  0
SECTION
  2
HEADER
  9
$ACADVER
  1
AC1015
  9
$ACADMAINTVER
 70
6
  9
$DWGCODEPAGE
  3
ANSI_1252
  9
$INSBASE
 10
0.0
 20
0.0
 30
0.0
  9
$EXTMIN
 10
1e+20
 20
1e+20
 30
1e+20
  9
$EXTMAX
 10
-1e+20
 20
-1e+20
 30
-1e+20
  9
$LIMMIN
 10
0.0
 20
0.0
  9
$LIMMAX
 10
420.0
 20
297.0
  9
$ORTHOMODE
 70
0
  9
$REGENMODE
 70
1
  9
$FILLMODE
 70
1
  9
$QTEXTMODE
 70
0
  9
$MIRRTEXT
 70
1
  9
$LTSCALE
 40
1.0
  9
$ATTMODE
 70
1
  9
$TEXTSIZE
 40
2.5
  9
$TRACEWID
 40
1.0
  9
$TEXTSTYLE
  7
Standard
  9
$CLAYER
  8
0
  9
$CELTYPE
  6
ByLayer
  9
$CECOLOR
 62
256
  9
$CELTSCALE
 40
1.0
  9
$DISPSILH
 70
0
  9
$DIMSCALE
 40
1.0
  9
$DIMASZ
 40
2.5
  9
$DIMEXO
 40
0.625
  9
$DIMDLI
 40
3.75
  9
$DIMRND
 40
0.0
  9
$DIMDLE
 40
0.0
  9
$DIMEXE
 40
1.25
  9
$DIMTP
 40
0.0
  9
$DIMTM
 40
0.0
  9
$DIMTXT
 40
2.5
  9
$DIMCEN
 40
2.5
  9
$DIMTSZ
 40
0.0
  9
$DIMTOL
 70
0
  9
$DIMLIM
 70
0
  9
$DIMTIH
 70
0
  9
$DIMTOH
 70
0
  9
$DIMSE1
 70
0
  9
$DIMSE2
 70
0
  9
$DIMTAD
 70
1
  9
$DIMZIN
 70
8
  9
$DIMBLK
  1

  9
$DIMASO
 70
1
  9
$DIMSHO
 70
1
  9
$DIMPOST
  1

  9
$DIMAPOST
  1

  9
$DIMALT
 70
0
  9
$DIMALTD
 70
3
  9
$DIMALTF
 40
0.03937007874
  9
$DIMLFAC
 40
1.0
  9
$DIMTOFL
 70
1
  9
$DIMTVP
 40
0.0
  9
$DIMTIX
 70
0
  9
$DIMSOXD
 70
0
  9
$DIMSAH
 70
0
  9
$DIMBLK1
  1

  9
$DIMBLK2
  1

  9
$DIMSTYLE
  2
ISO-25
  9
$DIMCLRD
 70
0
  9
$DIMCLRE
 70
0
  9
$DIMCLRT
 70
0
  9
$DIMTFAC
 40
1.0
  9
$DIMGAP
 40
0.625
  9
$DIMJUST
 70
0
  9
$DIMSD1
 70
0
  9
$DIMSD2
 70
0
  9
$DIMTOLJ
 70
0
  9
$DIMTZIN
 70
8
  9
$DIMALTZ
 70
0
  9
$DIMALTTZ
 70
0
  9
$DIMUPT
 70
0
  9
$DIMDEC
 70
2
  9
$DIMTDEC
 70
2
  9
$DIMALTU
 70
2
  9
$DIMALTTD
 70
3
  9
$DIMTXSTY
  7
Standard
  9
$DIMAUNIT
 70
0
  9
$DIMADEC
 70
0
  9
$DIMALTRND
 40
0.0
  9
$DIMAZIN
 70
0
  9
$DIMDSEP
 70
44
  9
$DIMATFIT
 70
3
  9
$DIMFRAC
 70
0
  9
$DIMLDRBLK
  1

  9
$DIMLUNIT
 70
2
  9
$DIMLWD
 70
-2
  9
$DIMLWE
 70
-2
  9
$DIMTMOVE
 70
0
  9
$LUNITS
 70
2
  9
$LUPREC
 70
4
  9
$SKETCHINC
 40
1.0
  9
$FILLETRAD
 40
10.0
  9
$AUNITS
 70
0
  9
$AUPREC
 70
2
  9
$MENU
  1
.
  9
$ELEVATION
 40
0.0
  9
$PELEVATION
 40
0.0
  9
$THICKNESS
 40
0.0
  9
$LIMCHECK
 70
0
  9
$CHAMFERA
 40
0.0
  9
$CHAMFERB
 40
0.0
  9
$CHAMFERC
 40
0.0
  9
$CHAMFERD
 40
0.0
  9
$SKPOLY
 70
0
  9
$TDCREATE
 40
2461252.4856944443
  9
$TDUCREATE
 40
2458532.153996898
  9
$TDUPDATE
 40
2461252.4856944443
  9
$TDUUPDATE
 40
2458532.1544311
  9
$TDINDWG
 40
0.0
  9
$TDUSRTIMER
 40
0.0
  9
$USRTIMER
 70
1
  9
$ANGBASE
 50
0.0
  9
$ANGDIR
 70
0
  9
$PDMODE
 70
0
  9
$PDSIZE
 40
0.0
  9
$PLINEWID
 40
0.0
  9
$SPLFRAME
 70
0
  9
$SPLINETYPE
 70
6
  9
$SPLINESEGS
 70
8
  9
$HANDSEED
  5
3AE
  9
$SURFTAB1
 70
6
  9
$SURFTAB2
 70
6
  9
$SURFTYPE
 70
6
  9
$SURFU
 70
6
  9
$SURFV
 70
6
  9
$UCSBASE
  2

  9
$UCSNAME
  2

  9
$UCSORG
 10
0.0
 20
0.0
 30
0.0
  9
$UCSXDIR
 10
1.0
 20
0.0
 30
0.0
  9
$UCSYDIR
 10
0.0
 20
1.0
 30
0.0
  9
$UCSORTHOREF
  2

  9
$UCSORTHOVIEW
 70
0
  9
$UCSORGTOP
 10
0.0
 20
0.0
 30
0.0
  9
$UCSORGBOTTOM
 10
0.0
 20
0.0
 30
0.0
  9
$UCSORGLEFT
 10
0.0
 20
0.0
 30
0.0
  9
$UCSORGRIGHT
 10
0.0
 20
0.0
 30
0.0
  9
$UCSORGFRONT
 10
0.0
 20
0.0
 30
0.0
  9
$UCSORGBACK
 10
0.0
 20
0.0
 30
0.0
  9
$PUCSBASE
  2

  9
$PUCSNAME
  2

  9
$PUCSORG
 10
0.0
 20
0.0
 30
0.0
  9
$PUCSXDIR
 10
1.0
 20
0.0
 30
0.0
  9
$PUCSYDIR
 10
0.0
 20
1.0
 30
0.0
  9
$PUCSORTHOREF
  2

  9
$PUCSORTHOVIEW
 70
0
  9
$PUCSORGTOP
 10
0.0
 20
0.0
 30
0.0
  9
$PUCSORGBOTTOM
 10
0.0
 20
0.0
 30
0.0
  9
$PUCSORGLEFT
 10
0.0
 20
0.0
 30
0.0
  9
$PUCSORGRIGHT
 10
0.0
 20
0.0
 30
0.0
  9
$PUCSORGFRONT
 10
0.0
 20
0.0
 30
0.0
  9
$PUCSORGBACK
 10
0.0
 20
0.0
 30
0.0
  9
$USERI1
 70
0
  9
$USERI2
 70
0
  9
$USERI3
 70
0
  9
$USERI4
 70
0
  9
$USERI5
 70
0
  9
$USERR1
 40
0.0
  9
$USERR2
 40
0.0
  9
$USERR3
 40
0.0
  9
$USERR4
 40
0.0
  9
$USERR5
 40
0.0
  9
$WORLDVIEW
 70
1
  9
$SHADEDGE
 70
3
  9
$SHADEDIF
 70
70
  9
$TILEMODE
 70
1
  9
$MAXACTVP
 70
64
  9
$PINSBASE
 10
0.0
 20
0.0
 30
0.0
  9
$PLIMCHECK
 70
0
  9
$PEXTMIN
 10
1e+20
 20
1e+20
 30
1e+20
  9
$PEXTMAX
 10
-1e+20
 20
-1e+20
 30
-1e+20
  9
$PLIMMIN
 10
0.0
 20
0.0
  9
$PLIMMAX
 10
420.0
 20
297.0
  9
$UNITMODE
 70
0
  9
$VISRETAIN
 70
1
  9
$PLINEGEN
 70
0
  9
$PSLTSCALE
 70
1
  9
$TREEDEPTH
 70
3020
  9
$CMLSTYLE
  2
Standard
  9
$CMLJUST
 70
0
  9
$CMLSCALE
 40
20.0
  9
$PROXYGRAPHICS
 70
1
  9
$MEASUREMENT
 70
1
  9
$CELWEIGHT
370
-1
  9
$ENDCAPS
280
0
  9
$JOINSTYLE
280
0
  9
$LWDISPLAY
290
0
  9
$INSUNITS
 70
6
  9
$HYPERLINKBASE
  1

  9
$STYLESHEET
  1

  9
$XEDIT
290
1
  9
$CEPSNTYPE
380
0
  9
$PSTYLEMODE
290
1
  9
$FINGERPRINTGUID
  2
{204E33FA-BE6C-4AAA-8DAE-E0517E0337DE}
  9
$VERSIONGUID
  2
{4BED95A8-56EE-44B3-92CD-B01F27FB39E6}
  9
$EXTNAMES
290
1
  9
$PSVPSCALE
 40
0.0
  9
$OLESTARTUP
290
0
  0
ENDSEC
  0
SECTION
  2
CLASSES
  0
CLASS
  1
ACDBDICTIONARYWDFLT
  2
AcDbDictionaryWithDefault
  3
ObjectDBX Classes
 90
0
280
0
281
0
  0
CLASS
  1
SUN
  2
AcDbSun
  3
SCENEOE
 90
1153
280
0
281
0
  0
CLASS
  1
VISUALSTYLE
  2
AcDbVisualStyle
  3
ObjectDBX Classes
 90
4095
280
0
281
0
  0
CLASS
  1
MATERIAL
  2
AcDbMaterial
  3
ObjectDBX Classes
 90
1153
280
0
281
0
  0
CLASS
  1
SCALE
  2
AcDbScale
  3
ObjectDBX Classes
 90
1153
280
0
281
0
  0
CLASS
  1
TABLESTYLE
  2
AcDbTableStyle
  3
ObjectDBX Classes
 90
4095
280
0
281
0
  0
CLASS
  1
MLEADERSTYLE
  2
AcDbMLeaderStyle
  3
ACDB_MLEADERSTYLE_CLASS
 90
4095
280
0
281
0
  0
CLASS
  1
DICTIONARYVAR
  2
AcDbDictionaryVar
  3
ObjectDBX Classes
 90
0
280
0
281
0
  0
CLASS
  1
CELLSTYLEMAP
  2
AcDbCellStyleMap
  3
ObjectDBX Classes
 90
1152
280
0
281
0
  0
CLASS
  1
MENTALRAYRENDERSETTINGS
  2
AcDbMentalRayRenderSettings
  3
SCENEOE
 90
1024
280
0
281
0
  0
CLASS
  1
ACDBDETAILVIEWSTYLE
  2
AcDbDetailViewStyle
  3
ObjectDBX Classes
 90
1025
280
0
281
0
  0
CLASS
  1
ACDBSECTIONVIEWSTYLE
  2
AcDbSectionViewStyle
  3
ObjectDBX Classes
 90
1025
280
0
281
0
  0
CLASS
  1
RASTERVARIABLES
  2
AcDbRasterVariables
  3
ISM
 90
0
280
0
281
0
  0
CLASS
  1
ACDBPLACEHOLDER
  2
AcDbPlaceHolder
  3
ObjectDBX Classes
 90
0
280
0
281
0
  0
CLASS
  1
LAYOUT
  2
AcDbLayout
  3
ObjectDBX Classes
 90
0
280
0
281
0
  0
ENDSEC
  0
SECTION
  2
TABLES
  0
TABLE
  2
VPORT
  5
8
330
0
100
AcDbSymbolTable
 70
1
  0
VPORT
  5
23
330
8
100
AcDbSymbolTableRecord
100
AcDbViewportTableRecord
  2
*Active
 70
0
 10
0.0
 20
0.0
 11
1.0
 21
1.0
 12
0.0
 22
0.0
 13
0.0
 23
0.0
 14
0.5
 24
0.5
 15
0.5
 25
0.5
 16
0.0
 26
0.0
 36
1.0
 17
0.0
 27
0.0
 37
0.0
 40
1000.0
 41
1.34
 42
50.0
 43
0.0
 44
0.0
 50
0.0
 51
0.0
 71
0
 72
1000
 73
1
 74
3
 75
0
 76
0
 77
0
 78
0
281
0
 65
0
146
0.0
  0
ENDTAB
  0
TABLE
  2
LTYPE
  5
2
330
0
100
AcDbSymbolTable
 70
3
  0
LTYPE
  5
24
330
2
100
AcDbSymbolTableRecord
100
AcDbLinetypeTableRecord
  2
ByBlock
 70
0
  3

 72
65
 73
0
 40
0.0
  0
LTYPE
  5
25
330
2
100
AcDbSymbolTableRecord
100
AcDbLinetypeTableRecord
  2
ByLayer
 70
0
  3

 72
65
 73
0
 40
0.0
  0
LTYPE
  5
26
330
2
100
AcDbSymbolTableRecord
100
AcDbLinetypeTableRecord
  2
Continuous
 70
0
  3

 72
65
 73
0
 40
0.0
  0
ENDTAB
  0
TABLE
  2
LAYER
  5
1
330
0
100
AcDbSymbolTable
 70
2
  0
LAYER
  5
27
330
1
100
AcDbSymbolTableRecord
100
AcDbLayerTableRecord
  2
0
 70
0
 62
7
  6
Continuous
370
-3
390
13
  0
LAYER
  5
28
330
1
100
AcDbSymbolTableRecord
100
AcDbLayerTableRecord
  2
Defpoints
 70
0
 62
7
  6
Continuous
290
0
370
-3
390
13
  0
ENDTAB
  0
TABLE
  2
STYLE
  5
5
330
0
100
AcDbSymbolTable
 70
1
  0
STYLE
  5
29
330
5
100
AcDbSymbolTableRecord
100
AcDbTextStyleTableRecord
  2
Standard
 70
0
 40
0.0
 41
1.0
 50
0.0
 71
0
 42
2.5
  3
txt
  4

  0
ENDTAB
  0
TABLE
  2
VIEW
  5
7
330
0
100
AcDbSymbolTable
 70
0
  0
ENDTAB
  0
TABLE
  2
UCS
  5
6
330
0
100
AcDbSymbolTable
 70
0
  0
ENDTAB
  0
TABLE
  2
APPID
  5
3
330
0
100
AcDbSymbolTable
 70
3
  0
APPID
  5
2A
330
3
100
AcDbSymbolTableRecord
100
AcDbRegAppTableRecord
  2
ACAD
 70
0
  0
APPID
  5
3AB
330
3
100
AcDbSymbolTableRecord
100
AcDbRegAppTableRecord
  2
HATCHBACKGROUNDCOLOR
 70
0
  0
APPID
  5
3AC
330
3
100
AcDbSymbolTableRecord
100
AcDbRegAppTableRecord
  2
EZDXF
 70
0
  0
ENDTAB
  0
TABLE
  2
DIMSTYLE
  5
4
330
0
100
AcDbSymbolTable
 70
1
100
AcDbDimStyleTable
  0
DIMSTYLE
105
2B
330
4
100
AcDbSymbolTableRecord
100
AcDbDimStyleTableRecord
  2
Standard
 70
0
  3

  4

 40
1.0
 41
2.5
 42
0.625
 43
3.75
 44
1.25
 45
0.0
 46
0.0
 47
0.0
 48
0.0
140
2.5
141
2.5
142
0.0
143
0.03937007874
144
1.0
145
0.0
146
1.0
147
0.625
148
0.0
 71
0
 72
0
 73
0
 74
0
 75
0
 76
0
 77
1
 78
8
 79
3
170
0
171
3
172
1
173
0
174
0
175
0
176
0
177
0
178
0
179
2
271
2
272
2
273
2
274
3
275
0
276
0
277
2
278
44
279
0
280
0
281
0
282
0
283
0
284
8
285
0
286
0
288
0
289
3
371
-2
372
-2
  0
ENDTAB
  0
TABLE
  2
BLOCK_RECORD
  5
9
330
0
100
AcDbSymbolTable
 70
2
  0
BLOCK_RECORD
  5
17
330
9
100
AcDbSymbolTableRecord
100
AcDbBlockTableRecord
  2
*Model_Space
340
1A
  0
BLOCK_RECORD
  5
1B
330
9
100
AcDbSymbolTableRecord
100
AcDbBlockTableRecord
  2
*Paper_Space
340
1E
  0
ENDTAB
  0
ENDSEC
  0
SECTION
  2
BLOCKS
  0
BLOCK
  5
18
330
17
100
AcDbEntity
  8
0
100
AcDbBlockBegin
  2
*Model_Space
 70
0
 10
0.0
 20
0.0
 30
0.0
  3
*Model_Space
  1

  0
ENDBLK
  5
19
330
17
100
AcDbEntity
  8
0
100
AcDbBlockEnd
  0
BLOCK
  5
1C
330
1B
100
AcDbEntity
  8
0
100
AcDbBlockBegin
  2
*Paper_Space
 70
0
 10
0.0
 20
0.0
 30
0.0
  3
*Paper_Space
  1

  0
ENDBLK
  5
1D
330
1B
100
AcDbEntity
  8
0
100
AcDbBlockEnd
  0
ENDSEC
  0
SECTION
  2
ENTITIES
  0
LWPOLYLINE
  5
2F
330
17
100
AcDbEntity
  8
ROADS
100
AcDbPolyline
 90
2
 70
0
 10
634364.0907426158
 20
4835932.539164021
 10
634336.5911989347
 20
4836016.132334746
  0
LWPOLYLINE
  5
30
330
17
100
AcDbEntity
  8
ROADS
100
AcDbPolyline
 90
2
 70
0
 10
634336.5911989347
 20
4836016.132334746
 10
634283.3147444194
 20
4835998.639305329
  0
LWPOLYLINE
  5
31
330
17
100
AcDbEntity
  8
ROADS
100
AcDbPolyline
 90
4
 70
0
 10
634264.3447976597
 20
4836015.443629914
 10
634259.3812939284
 20
4836030.706653793
 10
634285.5093948118
 20
4836045.75527839
 10
634280.05403776
 20
4836062.786063409
  0
LWPOLYLINE
  5
32
330
17
100
AcDbEntity
  8
ROADS
100
AcDbPolyline
 90
2
 70
0
 10
634336.5911989347
 20
4836016.132334746
 10
634305.8630526375
 20
4836108.812496513
  0
LWPOLYLINE
  5
33
330
17
100
AcDbEntity
  8
ROADS
100
AcDbPolyline
 90
2
 70
0
 10
634206.3140726826
 20
4836076.504790851
 10
634305.8630526375
 20
4836108.812496513
  0
LWPOLYLINE
  5
34
330
17
100
AcDbEntity
  8
ROADS
100
AcDbPolyline
 90
2
 70
0
 10
634169.5286362185
 20
4836121.990712484
 10
634248.086859486
 20
4836136.3242170075
  0
LWPOLYLINE
  5
35
330
17
100
AcDbEntity
  8
ROADS
100
AcDbPolyline
 90
2
 70
0
 10
634305.8630526375
 20
4836108.812496513
 10
634291.9552480653
 20
4836144.219991916
  0
LWPOLYLINE
  5
36
330
17
100
AcDbEntity
  8
ROADS
100
AcDbPolyline
 90
2
 70
0
 10
634248.086859486
 20
4836136.3242170075
 10
634291.9552480653
 20
4836144.219991916
  0
LWPOLYLINE
  5
37
330
17
100
AcDbEntity
  8
ROADS
100
AcDbPolyline
 90
2
 70
0
 10
634291.9552480653
 20
4836144.219991916
 10
634408.6527334399
 20
4836179.216746785
  0
LWPOLYLINE
  5
38
330
17
100
AcDbEntity
  8
ROADS
100
AcDbPolyline
 90
2
 70
0
 10
634248.086859486
 20
4836136.3242170075
 10
634231.3537629321
 20
4836191.287245602
  0
LWPOLYLINE
  5
39
330
17
100
AcDbEntity
  8
ROADS
100
AcDbPolyline
 90
2
 70
0
 10
634138.9652445583
 20
4836161.273726442
 10
634197.855530834
 20
4836181.0247588055
  0
LWPOLYLINE
  5
3A
330
17
100
AcDbEntity
  8
ROADS
100
AcDbPolyline
 90
2
 70
0
 10
634291.9552480653
 20
4836144.219991916
 10
634274.2018114489
 20
4836205.364092941
  0
LWPOLYLINE
  5
3B
330
17
100
AcDbEntity
  8
ROADS
100
AcDbPolyline
 90
2
 70
0
 10
634197.855530834
 20
4836181.0247588055
 10
634231.3537629321
 20
4836191.287245602
  0
LWPOLYLINE
  5
3C
330
17
100
AcDbEntity
  8
ROADS
100
AcDbPolyline
 90
2
 70
0
 10
634231.3537629321
 20
4836191.287245602
 10
634274.2018114489
 20
4836205.364092941
  0
LWPOLYLINE
  5
3D
330
17
100
AcDbEntity
  8
ROADS
100
AcDbPolyline
 90
2
 70
0
 10
634116.0815462394
 20
4836197.284941666
 10
634142.9719346364
 20
4836205.696520615
  0
LWPOLYLINE
  5
3E
330
17
100
AcDbEntity
  8
ROADS
100
AcDbPolyline
 90
2
 70
0
 10
634197.855530834
 20
4836181.0247588055
 10
634183.7620804375
 20
4836219.260117426
  0
LWPOLYLINE
  5
3F
330
17
100
AcDbEntity
  8
ROADS
100
AcDbPolyline
 90
2
 70
0
 10
634642.9779820447
 20
4835788.610786377
 10
634630.5166262246
 20
4835826.969356876
  0
LWPOLYLINE
  5
40
330
17
100
AcDbEntity
  8
ROADS
100
AcDbPolyline
 90
2
 70
0
 10
634727.2235402635
 20
4835792.631784316
 10
634763.19420547
 20
4835804.766103472
  0
LWPOLYLINE
  5
41
330
17
100
AcDbEntity
  8
ROADS
100
AcDbPolyline
 90
2
 70
0
 10
634581.1409837558
 20
4835810.848796897
 10
634630.5166262246
 20
4835826.969356876
  0
LWPOLYLINE
  5
42
330
17
100
AcDbEntity
  8
ROADS
100
AcDbPolyline
 90
2
 70
0
 10
634630.5166262246
 20
4835826.969356876
 10
634726.8202480772
 20
4835859.576138838
  0
LWPOLYLINE
  5
43
330
17
100
AcDbEntity
  8
ROADS
100
AcDbPolyline
 90
2
 70
0
 10
634630.5166262246
 20
4835826.969356876
 10
634615.9237389159
 20
4835867.716961074
  0
LWPOLYLINE
  5
44
330
17
100
AcDbEntity
  8
ROADS
100
AcDbPolyline
 90
2
 70
0
 10
635009.3709828063
 20
4835817.549198749
 10
635064.3168222385
 20
4835835.8496003775
  0
LWPOLYLINE
  5
45
330
17
100
AcDbEntity
  8
ROADS
100
AcDbPolyline
 90
2
 70
0
 10
635153.8937110018
 20
4835842.0595549755
 10
635072.9164595735
 20
4835815.499332538
  0
LWPOLYLINE
  5
46
330
17
100
AcDbEntity
  8
ROADS
100
AcDbPolyline
 90
2
 70
0
 10
634883.7730335052
 20
4835827.686931615
 10
634878.6488765724
 20
4835843.7126529
  0
LWPOLYLINE
  5
47
330
17
100
AcDbEntity
  8
ROADS
100
AcDbPolyline
 90
2
 70
0
 10
634835.2384238701
 20
4835829.152619439
 10
634878.6488765724
 20
4835843.7126529
  0
LWPOLYLINE
  5
48
330
17
100
AcDbEntity
  8
ROADS
100
AcDbPolyline
 90
2
 70
0
 10
635009.3709828063
 20
4835817.549198749
 10
634988.5246038358
 20
4835880.585191817
  0
LWPOLYLINE
  5
49
330
17
100
AcDbEntity
  8
ROADS
100
AcDbPolyline
 90
2
 70
0
 10
634835.2384238701
 20
4835829.152619439
 10
634816.1226077267
 20
4835889.898171664
  0
LWPOLYLINE
  5
4A
330
17
100
AcDbEntity
  8
ROADS
100
AcDbPolyline
 90
2
 70
0
 10
634878.6488765724
 20
4835843.7126529
 10
634988.5246038358
 20
4835880.585191817
  0
LWPOLYLINE
  5
4B
330
17
100
AcDbEntity
  8
ROADS
100
AcDbPolyline
 90
3
 70
0
 10
635058.2449162162
 20
4835857.830704293
 10
635139.4704588262
 20
4835884.071397325
 10
635153.8937110018
 20
4835842.0595549755
  0
LWPOLYLINE
  5
4C
330
17
100
AcDbEntity
  8
ROADS
100
AcDbPolyline
 90
2
 70
0
 10
634878.6488765724
 20
4835843.7126529
 10
634858.8667827137
 20
4835904.470167734
  0
LWPOLYLINE
  5
4D
330
17
100
AcDbEntity
  8
ROADS
100
AcDbPolyline
 90
2
 70
0
 10
634726.8202480772
 20
4835859.576138838
 10
634816.1226077267
 20
4835889.898171664
  0
LWPOLYLINE
  5
4E
330
17
100
AcDbEntity
  8
ROADS
100
AcDbPolyline
 90
2
 70
0
 10
634816.1226077267
 20
4835889.898171664
 10
634858.8667827137
 20
4835904.470167734
  0
LWPOLYLINE
  5
4F
330
17
100
AcDbEntity
  8
ROADS
100
AcDbPolyline
 90
2
 70
0
 10
634988.5246038358
 20
4835880.585191817
 10
635136.6712125635
 20
4835931.91788397
  0
LWPOLYLINE
  5
50
330
17
100
AcDbEntity
  8
ROADS
100
AcDbPolyline
 90
2
 70
0
 10
634988.5246038358
 20
4835880.585191817
 10
634968.2947301281
 20
4835940.774580862
  0
LWPOLYLINE
  5
51
330
17
100
AcDbEntity
  8
ROADS
100
AcDbPolyline
 90
2
 70
0
 10
634816.1226077267
 20
4835889.898171664
 10
634803.5014705815
 20
4835931.829543014
  0
LWPOLYLINE
  5
52
330
17
100
AcDbEntity
  8
ROADS
100
AcDbPolyline
 90
2
 70
0
 10
634712.9054265863
 20
4835902.148165825
 10
634803.5014705815
 20
4835931.829543014
  0
LWPOLYLINE
  5
53
330
17
100
AcDbEntity
  8
ROADS
100
AcDbPolyline
 90
2
 70
0
 10
634858.8667827137
 20
4835904.470167734
 10
634950.056086822
 20
4835934.529315407
  0
LWPOLYLINE
  5
54
330
17
100
AcDbEntity
  8
ROADS
100
AcDbPolyline
 90
2
 70
0
 10
634803.5014705815
 20
4835931.829543014
 10
634820.592355452
 20
4835934.902787126
  0
LWPOLYLINE
  5
55
330
17
100
AcDbEntity
  8
ROADS
100
AcDbPolyline
 90
2
 70
0
 10
634950.056086822
 20
4835934.529315407
 10
634968.2947301281
 20
4835940.774580862
  0
LWPOLYLINE
  5
56
330
17
100
AcDbEntity
  8
ROADS
100
AcDbPolyline
 90
2
 70
0
 10
634968.2947301281
 20
4835940.774580862
 10
635023.3818369952
 20
4835959.226067471
  0
LWPOLYLINE
  5
57
330
17
100
AcDbEntity
  8
ROADS
100
AcDbPolyline
 90
2
 70
0
 10
635023.3818369952
 20
4835959.226067471
 10
635130.2151521363
 20
4835994.615528686
  0
LWPOLYLINE
  5
58
330
17
100
AcDbEntity
  8
ROADS
100
AcDbPolyline
 90
2
 70
0
 10
635525.036613441
 20
4835955.318115231
 10
635499.0979567869
 20
4836013.972253942
  0
LWPOLYLINE
  5
59
330
17
100
AcDbEntity
  8
ROADS
100
AcDbPolyline
 90
2
 70
0
 10
635456.4530329756
 20
4835896.666124535
 10
635396.6059557414
 20
4836082.7052253205
  0
LWPOLYLINE
  5
5A
330
17
100
AcDbEntity
  8
ROADS
100
AcDbPolyline
 90
2
 70
0
 10
635270.8243494233
 20
4835994.220575274
 10
635246.2398679887
 20
4835986.718467029
  0
LWPOLYLINE
  5
5B
330
17
100
AcDbEntity
  8
ROADS
100
AcDbPolyline
 90
2
 70
0
 10
635270.8243494233
 20
4835994.220575274
 10
635258.0735331636
 20
4836036.79571075
  0
LWPOLYLINE
  5
5C
330
17
100
AcDbEntity
  8
ROADS
100
AcDbPolyline
 90
2
 70
0
 10
635130.2151521363
 20
4835994.615528686
 10
635258.0735331636
 20
4836036.79571075
  0
LWPOLYLINE
  5
5D
330
17
100
AcDbEntity
  8
ROADS
100
AcDbPolyline
 90
5
 70
0
 10
635499.0979567869
 20
4836013.972253942
 10
635460.1260989482
 20
4836001.000555766
 10
635447.0925862223
 20
4836039.685267708
 10
635410.9650518262
 20
4836057.35263784
 10
635396.6059557414
 20
4836082.7052253205
  0
LWPOLYLINE
  5
5E
330
17
100
AcDbEntity
  8
ROADS
100
AcDbPolyline
 90
2
 70
0
 10
635258.0735331636
 20
4836036.79571075
 10
635346.2366941447
 20
4836065.858132194
  0
LWPOLYLINE
  5
5F
330
17
100
AcDbEntity
  8
ROADS
100
AcDbPolyline
 90
2
 70
0
 10
635499.0979567869
 20
4836013.972253942
 10
635467.7198990844
 20
4836107.026020526
  0
LWPOLYLINE
  5
60
330
17
100
AcDbEntity
  8
ROADS
100
AcDbPolyline
 90
2
 70
0
 10
635346.2366941447
 20
4836065.858132194
 10
635396.6059557414
 20
4836082.7052253205
  0
LWPOLYLINE
  5
61
330
17
100
AcDbEntity
  8
ROADS
100
AcDbPolyline
 90
2
 70
0
 10
635346.2366941447
 20
4836065.858132194
 10
635331.2921873824
 20
4836111.391868989
  0
LWPOLYLINE
  5
62
330
17
100
AcDbEntity
  8
ROADS
100
AcDbPolyline
 90
2
 70
0
 10
634526.0618786844
 20
4835835.169459163
 10
634615.9237389159
 20
4835867.716961074
  0
LWPOLYLINE
  5
63
330
17
100
AcDbEntity
  8
ROADS
100
AcDbPolyline
 90
2
 70
0
 10
634520.3286206544
 20
4835837.701029566
 10
634505.3716969959
 20
4835884.243206532
  0
LWPOLYLINE
  5
64
330
17
100
AcDbEntity
  8
ROADS
100
AcDbPolyline
 90
2
 70
0
 10
634726.8202480772
 20
4835859.576138838
 10
634712.9054265863
 20
4835902.148165825
  0
LWPOLYLINE
  5
65
330
17
100
AcDbEntity
  8
ROADS
100
AcDbPolyline
 90
3
 70
0
 10
634505.3716969959
 20
4835884.243206532
 10
634550.3760520248
 20
4835899.532610492
 10
634539.1993262349
 20
4835940.673995401
  0
LWPOLYLINE
  5
66
330
17
100
AcDbEntity
  8
ROADS
100
AcDbPolyline
 90
2
 70
0
 10
634505.3716969959
 20
4835884.243206532
 10
634408.6527334399
 20
4836179.216746785
  0
LWPOLYLINE
  5
67
330
17
100
AcDbEntity
  8
ROADS
100
AcDbPolyline
 90
3
 70
0
 10
634565.3676916485
 20
4836179.6121286815
 10
634664.2887905161
 20
4835885.362823049
 10
634712.9054265863
 20
4835902.148165825
  0
LWPOLYLINE
  5
68
330
17
100
AcDbEntity
  8
ROADS
100
AcDbPolyline
 90
2
 70
0
 10
634615.9237389159
 20
4835867.716961074
 10
634500.6043911228
 20
4836211.408892695
  0
LWPOLYLINE
  5
69
330
17
100
AcDbEntity
  8
ROADS
100
AcDbPolyline
 90
2
 70
0
 10
634712.9054265863
 20
4835902.148165825
 10
634613.6609210939
 20
4836196.195645493
  0
LWPOLYLINE
  5
6A
330
17
100
AcDbEntity
  8
ROADS
100
AcDbPolyline
 90
2
 70
0
 10
634803.5014705815
 20
4835931.829543014
 10
634688.5613258826
 20
4836274.785940535
  0
LWPOLYLINE
  5
6B
330
17
100
AcDbEntity
  8
ROADS
100
AcDbPolyline
 90
2
 70
0
 10
635023.3818369952
 20
4835959.226067471
 10
635008.3646228546
 20
4836004.136397223
  0
LWPOLYLINE
  5
6C
330
17
100
AcDbEntity
  8
ROADS
100
AcDbPolyline
 90
2
 70
0
 10
635008.3646228546
 20
4836004.136397223
 10
635076.3669570278
 20
4836019.207103888
  0
LWPOLYLINE
  5
6D
330
17
100
AcDbEntity
  8
ROADS
100
AcDbPolyline
 90
2
 70
0
 10
635008.3646228546
 20
4836004.136397223
 10
634998.1157315198
 20
4836035.0017347
  0
LWPOLYLINE
  5
6E
330
17
100
AcDbEntity
  8
ROADS
100
AcDbPolyline
 90
2
 70
0
 10
634950.056086822
 20
4835934.529315407
 10
634889.1208222352
 20
4836124.310771644
  0
LWPOLYLINE
  5
6F
330
17
100
AcDbEntity
  8
ROADS
100
AcDbPolyline
 90
3
 70
0
 10
635130.2151521363
 20
4835994.615528686
 10
635108.5078585328
 20
4836060.516714316
 10
635188.7930371508
 20
4836087.049484211
  0
LWPOLYLINE
  5
70
330
17
100
AcDbEntity
  8
ROADS
100
AcDbPolyline
 90
2
 70
0
 10
634998.1157315198
 20
4836035.0017347
 10
635089.4142591059
 20
4836065.658955607
  0
LWPOLYLINE
  5
71
330
17
100
AcDbEntity
  8
ROADS
100
AcDbPolyline
 90
2
 70
0
 10
634998.1157315198
 20
4836035.0017347
 10
634963.3753449064
 20
4836146.921175378
  0
LWPOLYLINE
  5
72
330
17
100
AcDbEntity
  8
ROADS
100
AcDbPolyline
 90
2
 70
0
 10
634889.1208222352
 20
4836124.310771644
 10
634963.3753449064
 20
4836146.921175378
  0
LWPOLYLINE
  5
73
330
17
100
AcDbEntity
  8
ROADS
100
AcDbPolyline
 90
4
 70
0
 10
634747.226601458
 20
4836295.121819755
 10
634834.3257167672
 20
4835992.914982142
 10
634887.4614172006
 20
4836011.157172875
 10
634791.9478865237
 20
4836306.98538197
  0
LWPOLYLINE
  5
74
330
17
100
AcDbEntity
  8
ROADS
100
AcDbPolyline
 90
2
 70
0
 10
634963.3753449064
 20
4836146.921175378
 10
634955.6439071338
 20
4836170.803425378
  0
LWPOLYLINE
  5
75
330
17
100
AcDbEntity
  8
ROADS
100
AcDbPolyline
 90
3
 70
0
 10
634613.6609210939
 20
4836196.195645493
 10
634662.6353484518
 20
4836213.269524116
 10
634695.5439373688
 20
4836114.328166224
  0
LWPOLYLINE
  5
76
330
17
100
AcDbEntity
  8
ROADS
100
AcDbPolyline
 90
2
 70
0
 10
634454.5566949213
 20
4836194.585957518
 10
634473.5749982316
 20
4836135.750884154
  0
LWPOLYLINE
  5
77
330
17
100
AcDbEntity
  8
ROADS
100
AcDbPolyline
 90
2
 70
0
 10
634408.6527334399
 20
4836179.216746785
 10
634454.5566949213
 20
4836194.585957518
  0
LWPOLYLINE
  5
78
330
17
100
AcDbEntity
  8
ROADS
100
AcDbPolyline
 90
2
 70
0
 10
634565.3676916485
 20
4836179.6121286815
 10
634613.6609210939
 20
4836196.195645493
  0
LWPOLYLINE
  5
79
330
17
100
AcDbEntity
  8
ROADS
100
AcDbPolyline
 90
2
 70
0
 10
634454.5566949213
 20
4836194.585957518
 10
634500.6043911228
 20
4836211.408892695
  0
LWPOLYLINE
  5
7A
330
17
100
AcDbEntity
  8
ROADS
100
AcDbPolyline
 90
2
 70
0
 10
634565.3676916485
 20
4836179.6121286815
 10
634548.8584268147
 20
4836227.615170822
  0
LWPOLYLINE
  5
7B
330
17
100
AcDbEntity
  8
ROADS
100
AcDbPolyline
 90
2
 70
0
 10
634500.6043911228
 20
4836211.408892695
 10
634548.8584268147
 20
4836227.615170822
  0
LWPOLYLINE
  5
7C
330
17
100
AcDbEntity
  8
ROADS
100
AcDbPolyline
 90
2
 70
0
 10
634613.6609210939
 20
4836196.195645493
 10
634597.1166765471
 20
4836243.3674915815
  0
LWPOLYLINE
  5
7D
330
17
100
AcDbEntity
  8
ROADS
100
AcDbPolyline
 90
2
 70
0
 10
634548.8584268147
 20
4836227.615170822
 10
634584.8019953626
 20
4836238.978476036
  0
LWPOLYLINE
  5
7E
330
17
100
AcDbEntity
  8
ROADS
100
AcDbPolyline
 90
2
 70
0
 10
634584.8019953626
 20
4836238.978476036
 10
634597.1166765471
 20
4836243.3674915815
  0
LWPOLYLINE
  5
7F
330
17
100
AcDbEntity
  8
ROADS
100
AcDbPolyline
 90
2
 70
0
 10
634955.6439071338
 20
4836170.803425378
 10
634998.511350753
 20
4836183.591539878
  0
LWPOLYLINE
  5
80
330
17
100
AcDbEntity
  8
ROADS
100
AcDbPolyline
 90
2
 70
0
 10
634998.511350753
 20
4836183.591539878
 10
635040.9939247696
 20
4836198.140849456
  0
LWPOLYLINE
  5
81
330
17
100
AcDbEntity
  8
ROADS
100
AcDbPolyline
 90
2
 70
0
 10
635040.9939247696
 20
4836198.140849456
 10
635117.2667670574
 20
4836224.008048429
  0
LWPOLYLINE
  5
82
330
17
100
AcDbEntity
  8
ROADS
100
AcDbPolyline
 90
2
 70
0
 10
634889.1208222352
 20
4836124.310771644
 10
634829.0058544525
 20
4836312.02781679
  0
LWPOLYLINE
  5
83
330
17
100
AcDbEntity
  8
ROADS
100
AcDbPolyline
 90
2
 70
0
 10
634955.6439071338
 20
4836170.803425378
 10
634907.9188490696
 20
4836315.384849413
  0
LWPOLYLINE
  5
84
330
17
100
AcDbEntity
  8
ROADS
100
AcDbPolyline
 90
2
 70
0
 10
634998.511350753
 20
4836183.591539878
 10
634954.3803463259
 20
4836319.060186541
  0
LWPOLYLINE
  5
85
330
17
100
AcDbEntity
  8
ROADS
100
AcDbPolyline
 90
2
 70
0
 10
635117.2667670574
 20
4836224.008048429
 10
635097.6494726844
 20
4836284.717560788
  0
LWPOLYLINE
  5
86
330
17
100
AcDbEntity
  8
ROADS
100
AcDbPolyline
 90
2
 70
0
 10
635040.9939247696
 20
4836198.140849456
 10
634998.1084942145
 20
4836322.521087278
  0
LWPOLYLINE
  5
87
330
17
100
AcDbEntity
  8
ROADS
100
AcDbPolyline
 90
3
 70
0
 10
635117.2667670574
 20
4836224.008048429
 10
635186.3566302145
 20
4836246.854133048
 10
635165.2422623883
 20
4836334.661910798
  0
LWPOLYLINE
  5
88
330
17
100
AcDbEntity
  8
ROADS
100
AcDbPolyline
 90
2
 70
0
 10
635097.6494726844
 20
4836284.717560788
 10
635093.8174137746
 20
4836296.041245018
  0
LWPOLYLINE
  5
89
330
17
100
AcDbEntity
  8
ROADS
100
AcDbPolyline
 90
2
 70
0
 10
634548.8584268147
 20
4836227.615170822
 10
634532.8828565294
 20
4836273.756701552
  0
LWPOLYLINE
  5
8A
330
17
100
AcDbEntity
  8
ROADS
100
AcDbPolyline
 90
2
 70
0
 10
634597.1166765471
 20
4836243.3674915815
 10
634688.5613258826
 20
4836274.785940535
  0
LWPOLYLINE
  5
8B
330
17
100
AcDbEntity
  8
ROADS
100
AcDbPolyline
 90
2
 70
0
 10
634584.8019953626
 20
4836238.978476036
 10
634566.6843115559
 20
4836285.226790873
  0
LWPOLYLINE
  5
8C
330
17
100
AcDbEntity
  8
ROADS
100
AcDbPolyline
 90
2
 70
0
 10
634408.6527334399
 20
4836179.216746785
 10
634345.5547876472
 20
4836369.631804562
  0
LWPOLYLINE
  5
8D
330
17
100
AcDbEntity
  8
ROADS
100
AcDbPolyline
 90
2
 70
0
 10
634532.8828565294
 20
4836273.756701552
 10
634566.6843115559
 20
4836285.226790873
  0
LWPOLYLINE
  5
8E
330
17
100
AcDbEntity
  8
ROADS
100
AcDbPolyline
 90
2
 70
0
 10
634688.5613258826
 20
4836274.785940535
 10
634747.226601458
 20
4836295.121819755
  0
LWPOLYLINE
  5
8F
330
17
100
AcDbEntity
  8
ROADS
100
AcDbPolyline
 90
2
 70
0
 10
634566.6843115559
 20
4836285.226790873
 10
634633.3654378945
 20
4836307.985295161
  0
LWPOLYLINE
  5
90
330
17
100
AcDbEntity
  8
ROADS
100
AcDbPolyline
 90
2
 70
0
 10
634688.5613258826
 20
4836274.785940535
 10
634666.3211910063
 20
4836331.161086201
  0
LWPOLYLINE
  5
91
330
17
100
AcDbEntity
  8
ROADS
100
AcDbPolyline
 90
2
 70
0
 10
634500.6043911228
 20
4836211.408892695
 10
634436.3564868816
 20
4836400.321080015
  0
LWPOLYLINE
  5
92
330
17
100
AcDbEntity
  8
ROADS
100
AcDbPolyline
 90
2
 70
0
 10
634747.226601458
 20
4836295.121819755
 10
634738.4171241522
 20
4836319.664615823
  0
LWPOLYLINE
  5
93
330
17
100
AcDbEntity
  8
ROADS
100
AcDbPolyline
 90
2
 70
0
 10
635097.6494726844
 20
4836284.717560788
 10
635130.2951349658
 20
4836296.33978593
  0
LWPOLYLINE
  5
94
330
17
100
AcDbEntity
  8
ROADS
100
AcDbPolyline
 90
2
 70
0
 10
635093.8174137746
 20
4836296.041245018
 10
635061.6901364628
 20
4836285.672500439
  0
LWPOLYLINE
  5
95
330
17
100
AcDbEntity
  8
ROADS
100
AcDbPolyline
 90
2
 70
0
 10
634747.226601458
 20
4836295.121819755
 10
634791.9478865237
 20
4836306.98538197
  0
LWPOLYLINE
  5
96
330
17
100
AcDbEntity
  8
ROADS
100
AcDbPolyline
 90
2
 70
0
 10
634791.9478865237
 20
4836306.98538197
 10
634829.0058544525
 20
4836312.02781679
  0
LWPOLYLINE
  5
97
330
17
100
AcDbEntity
  8
ROADS
100
AcDbPolyline
 90
2
 70
0
 10
635093.8174137746
 20
4836296.041245018
 10
635081.6956467512
 20
4836327.884803789
  0
LWPOLYLINE
  5
98
330
17
100
AcDbEntity
  8
ROADS
100
AcDbPolyline
 90
2
 70
0
 10
634829.0058544525
 20
4836312.02781679
 10
634907.9188490696
 20
4836315.384849413
  0
LWPOLYLINE
  5
99
330
17
100
AcDbEntity
  8
ROADS
100
AcDbPolyline
 90
2
 70
0
 10
634907.9188490696
 20
4836315.384849413
 10
634954.3803463259
 20
4836319.060186541
  0
LWPOLYLINE
  5
9A
330
17
100
AcDbEntity
  8
ROADS
100
AcDbPolyline
 90
2
 70
0
 10
634954.3803463259
 20
4836319.060186541
 10
634998.1084942145
 20
4836322.521087278
  0
LWPOLYLINE
  5
9B
330
17
100
AcDbEntity
  8
ROADS
100
AcDbPolyline
 90
2
 70
0
 10
634998.1084942145
 20
4836322.521087278
 10
635081.6956467512
 20
4836327.884803789
  0
LWPOLYLINE
  5
9C
330
17
100
AcDbEntity
  8
ROADS
100
AcDbPolyline
 90
2
 70
0
 10
635081.6956467512
 20
4836327.884803789
 10
635165.2422623883
 20
4836334.661910798
  0
LWPOLYLINE
  5
9D
330
17
100
AcDbEntity
  8
ROADS
100
AcDbPolyline
 90
2
 70
0
 10
634231.3537629321
 20
4836191.287245602
 10
634218.0151690427
 20
4836231.414411995
  0
LWPOLYLINE
  5
9E
330
17
100
AcDbEntity
  8
ROADS
100
AcDbPolyline
 90
2
 70
0
 10
634142.9719346364
 20
4836205.696520615
 10
634183.7620804375
 20
4836219.260117426
  0
LWPOLYLINE
  5
9F
330
17
100
AcDbEntity
  8
ROADS
100
AcDbPolyline
 90
2
 70
0
 10
634183.7620804375
 20
4836219.260117426
 10
634218.0151690427
 20
4836231.414411995
  0
LWPOLYLINE
  5
A0
330
17
100
AcDbEntity
  8
ROADS
100
AcDbPolyline
 90
2
 70
0
 10
634087.2688055354
 20
4836242.993368532
 10
634072.2271056001
 20
4836288.108264221
  0
LWPOLYLINE
  5
A1
330
17
100
AcDbEntity
  8
ROADS
100
AcDbPolyline
 90
2
 70
0
 10
634065.3132132994
 20
4836286.109558757
 10
634072.2271056001
 20
4836288.108264221
  0
LWPOLYLINE
  5
A2
330
17
100
AcDbEntity
  8
ROADS
100
AcDbPolyline
 90
2
 70
0
 10
634274.2018114489
 20
4836205.364092941
 10
634231.6059317288
 20
4836332.817534355
  0
LWPOLYLINE
  5
A3
330
17
100
AcDbEntity
  8
ROADS
100
AcDbPolyline
 90
2
 70
0
 10
634288.8780764467
 20
4836351.711589611
 10
634330.353729797
 20
4836218.403388267
  0
LWPOLYLINE
  5
A4
330
17
100
AcDbEntity
  8
ROADS
100
AcDbPolyline
 90
2
 70
0
 10
634142.9719346364
 20
4836205.696520615
 10
634078.5748274443
 20
4836399.490211609
  0
LWPOLYLINE
  5
A5
330
17
100
AcDbEntity
  8
ROADS
100
AcDbPolyline
 90
2
 70
0
 10
634183.7620804375
 20
4836219.260117426
 10
634117.5891046611
 20
4836412.152646875
  0
LWPOLYLINE
  5
A6
330
17
100
AcDbEntity
  8
ROADS
100
AcDbPolyline
 90
2
 70
0
 10
634023.2479493084
 20
4836381.324198014
 10
634039.422893762
 20
4836386.974302401
  0
LWPOLYLINE
  5
A7
330
17
100
AcDbEntity
  8
ROADS
100
AcDbPolyline
 90
2
 70
0
 10
634218.0151690427
 20
4836231.414411995
 10
634156.904583587
 20
4836424.805530081
  0
LWPOLYLINE
  5
A8
330
17
100
AcDbEntity
  8
ROADS
100
AcDbPolyline
 90
2
 70
0
 10
634072.2271056001
 20
4836288.108264221
 10
634039.422893762
 20
4836386.974302401
  0
LWPOLYLINE
  5
A9
330
17
100
AcDbEntity
  8
ROADS
100
AcDbPolyline
 90
2
 70
0
 10
634231.6059317288
 20
4836332.817534355
 10
634270.1613922936
 20
4836345.800698482
  0
LWPOLYLINE
  5
AA
330
17
100
AcDbEntity
  8
ROADS
100
AcDbPolyline
 90
2
 70
0
 10
634270.1613922936
 20
4836345.800698482
 10
634288.8780764467
 20
4836351.711589611
  0
LWPOLYLINE
  5
AB
330
17
100
AcDbEntity
  8
ROADS
100
AcDbPolyline
 90
2
 70
0
 10
634288.8780764467
 20
4836351.711589611
 10
634345.5547876472
 20
4836369.631804562
  0
LWPOLYLINE
  5
AC
330
17
100
AcDbEntity
  8
ROADS
100
AcDbPolyline
 90
2
 70
0
 10
634231.6059317288
 20
4836332.817534355
 10
634207.5015484658
 20
4836405.4597402
  0
LWPOLYLINE
  5
AD
330
17
100
AcDbEntity
  8
ROADS
100
AcDbPolyline
 90
2
 70
0
 10
634270.1613922936
 20
4836345.800698482
 10
634245.9121960079
 20
4836418.376288025
  0
LWPOLYLINE
  5
AE
330
17
100
AcDbEntity
  8
ROADS
100
AcDbPolyline
 90
2
 70
0
 10
634039.422893762
 20
4836386.974302401
 10
634078.5748274443
 20
4836399.490211609
  0
LWPOLYLINE
  5
AF
330
17
100
AcDbEntity
  8
ROADS
100
AcDbPolyline
 90
2
 70
0
 10
634078.5748274443
 20
4836399.490211609
 10
634117.5891046611
 20
4836412.152646875
  0
LWPOLYLINE
  5
B0
330
17
100
AcDbEntity
  8
ROADS
100
AcDbPolyline
 90
2
 70
0
 10
634039.422893762
 20
4836386.974302401
 10
634025.2324766694
 20
4836428.746172377
  0
LWPOLYLINE
  5
B1
330
17
100
AcDbEntity
  8
ROADS
100
AcDbPolyline
 90
2
 70
0
 10
634207.5015484658
 20
4836405.4597402
 10
634245.9121960079
 20
4836418.376288025
  0
LWPOLYLINE
  5
B2
330
17
100
AcDbEntity
  8
ROADS
100
AcDbPolyline
 90
2
 70
0
 10
634007.3861571132
 20
4836422.842585933
 10
634025.2324766694
 20
4836428.746172377
  0
LWPOLYLINE
  5
B3
330
17
100
AcDbEntity
  8
ROADS
100
AcDbPolyline
 90
2
 70
0
 10
634117.5891046611
 20
4836412.152646875
 10
634156.904583587
 20
4836424.805530081
  0
LWPOLYLINE
  5
B4
330
17
100
AcDbEntity
  8
ROADS
100
AcDbPolyline
 90
2
 70
0
 10
634207.5015484658
 20
4836405.4597402
 10
634195.0928583598
 20
4836439.787728655
  0
LWPOLYLINE
  5
B5
330
17
100
AcDbEntity
  8
ROADS
100
AcDbPolyline
 90
2
 70
0
 10
634156.904583587
 20
4836424.805530081
 10
634195.0928583598
 20
4836439.787728655
  0
LWPOLYLINE
  5
B6
330
17
100
AcDbEntity
  8
ROADS
100
AcDbPolyline
 90
2
 70
0
 10
634117.5891046611
 20
4836412.152646875
 10
634103.4876097059
 20
4836454.703197612
  0
LWPOLYLINE
  5
B7
330
17
100
AcDbEntity
  8
ROADS
100
AcDbPolyline
 90
2
 70
0
 10
634245.9121960079
 20
4836418.376288025
 10
634233.379048245
 20
4836455.853790792
  0
LWPOLYLINE
  5
B8
330
17
100
AcDbEntity
  8
ROADS
100
AcDbPolyline
 90
2
 70
0
 10
634245.9121960079
 20
4836418.376288025
 10
634373.706547952
 20
4836460.370353313
  0
LWPOLYLINE
  5
B9
330
17
100
AcDbEntity
  8
ROADS
100
AcDbPolyline
 90
2
 70
0
 10
634025.2324766694
 20
4836428.746172377
 10
634103.4876097059
 20
4836454.703197612
  0
LWPOLYLINE
  5
BA
330
17
100
AcDbEntity
  8
ROADS
100
AcDbPolyline
 90
2
 70
0
 10
634566.6843115559
 20
4836285.226790873
 10
634546.875540341
 20
4836346.847814339
  0
LWPOLYLINE
  5
BB
330
17
100
AcDbEntity
  8
ROADS
100
AcDbPolyline
 90
2
 70
0
 10
634666.3211910063
 20
4836331.161086201
 10
634686.0398390914
 20
4836337.301118028
  0
LWPOLYLINE
  5
BC
330
17
100
AcDbEntity
  8
ROADS
100
AcDbPolyline
 90
3
 70
0
 10
634532.8828565294
 20
4836273.756701552
 10
634488.6884367404
 20
4836410.30009163
 10
634521.4644824867
 20
4836422.893747644
  0
LWPOLYLINE
  5
BD
330
17
100
AcDbEntity
  8
ROADS
100
AcDbPolyline
 90
2
 70
0
 10
634666.3211910063
 20
4836331.161086201
 10
634650.335310588
 20
4836378.64605507
  0
LWPOLYLINE
  5
BE
330
17
100
AcDbEntity
  8
ROADS
100
AcDbPolyline
 90
2
 70
0
 10
634546.875540341
 20
4836346.847814339
 10
634650.335310588
 20
4836378.64605507
  0
LWPOLYLINE
  5
BF
330
17
100
AcDbEntity
  8
ROADS
100
AcDbPolyline
 90
2
 70
0
 10
634345.5547876472
 20
4836369.631804562
 10
634398.2745874496
 20
4836387.916513834
  0
LWPOLYLINE
  5
C0
330
17
100
AcDbEntity
  8
ROADS
100
AcDbPolyline
 90
2
 70
0
 10
634546.875540341
 20
4836346.847814339
 10
634521.4644824867
 20
4836422.893747644
  0
LWPOLYLINE
  5
C1
330
17
100
AcDbEntity
  8
ROADS
100
AcDbPolyline
 90
2
 70
0
 10
634398.2745874496
 20
4836387.916513834
 10
634436.3564868816
 20
4836400.321080015
  0
LWPOLYLINE
  5
C2
330
17
100
AcDbEntity
  8
ROADS
100
AcDbPolyline
 90
2
 70
0
 10
634650.335310588
 20
4836378.64605507
 10
634626.6016272258
 20
4836455.784429129
  0
LWPOLYLINE
  5
C3
330
17
100
AcDbEntity
  8
ROADS
100
AcDbPolyline
 90
2
 70
0
 10
634398.2745874496
 20
4836387.916513834
 10
634373.706547952
 20
4836460.370353313
  0
LWPOLYLINE
  5
C4
330
17
100
AcDbEntity
  8
ROADS
100
AcDbPolyline
 90
2
 70
0
 10
634521.4644824867
 20
4836422.893747644
 10
634554.1704719445
 20
4836433.9970144825
  0
LWPOLYLINE
  5
C5
330
17
100
AcDbEntity
  8
ROADS
100
AcDbPolyline
 90
2
 70
0
 10
634436.3564868816
 20
4836400.321080015
 10
634412.320533212
 20
4836472.993565507
  0
LWPOLYLINE
  5
C6
330
17
100
AcDbEntity
  8
ROADS
100
AcDbPolyline
 90
2
 70
0
 10
634554.1704719445
 20
4836433.9970144825
 10
634626.6016272258
 20
4836455.784429129
  0
LWPOLYLINE
  5
C7
330
17
100
AcDbEntity
  8
ROADS
100
AcDbPolyline
 90
2
 70
0
 10
634554.1704719445
 20
4836433.9970144825
 10
634541.8137240628
 20
4836471.037704051
  0
LWPOLYLINE
  5
C8
330
17
100
AcDbEntity
  8
ROADS
100
AcDbPolyline
 90
2
 70
0
 10
634521.4644824867
 20
4836422.893747644
 10
634497.2501592967
 20
4836498.461267337
  0
LWPOLYLINE
  5
C9
330
17
100
AcDbEntity
  8
ROADS
100
AcDbPolyline
 90
2
 70
0
 10
634373.706547952
 20
4836460.370353313
 10
634412.320533212
 20
4836472.993565507
  0
LWPOLYLINE
  5
CA
330
17
100
AcDbEntity
  8
ROADS
100
AcDbPolyline
 90
2
 70
0
 10
634626.6016272258
 20
4836455.784429129
 10
634612.6067944809
 20
4836499.1270379685
  0
LWPOLYLINE
  5
CB
330
17
100
AcDbEntity
  8
ROADS
100
AcDbPolyline
 90
2
 70
0
 10
634373.706547952
 20
4836460.370353313
 10
634360.7149323248
 20
4836498.230611428
  0
LWPOLYLINE
  5
CC
330
17
100
AcDbEntity
  8
ROADS
100
AcDbPolyline
 90
5
 70
0
 10
634612.6067944809
 20
4836499.1270379685
 10
634632.474513502
 20
4836504.765731906
 10
634647.591218031
 20
4836484.554350594
 10
634653.5967752663
 20
4836465.138300538
 10
634626.6016272258
 20
4836455.784429129
  0
LWPOLYLINE
  5
CD
330
17
100
AcDbEntity
  8
ROADS
100
AcDbPolyline
 90
2
 70
0
 10
634541.8137240628
 20
4836471.037704051
 10
634529.1556815001
 20
4836508.978018728
  0
LWPOLYLINE
  5
CE
330
17
100
AcDbEntity
  8
ROADS
100
AcDbPolyline
 90
2
 70
0
 10
635081.6956467512
 20
4836327.884803789
 10
635066.0330789303
 20
4836368.937128229
  0
LWPOLYLINE
  5
CF
330
17
100
AcDbEntity
  8
ROADS
100
AcDbPolyline
 90
2
 70
0
 10
635066.0330789303
 20
4836368.937128229
 10
635035.44058977
 20
4836358.864151875
  0
LWPOLYLINE
  5
D0
330
17
100
AcDbEntity
  8
ROADS
100
AcDbPolyline
 90
2
 70
0
 10
634907.9188490696
 20
4836315.384849413
 10
634843.4041797828
 20
4836519.595720655
  0
LWPOLYLINE
  5
D1
330
17
100
AcDbEntity
  8
ROADS
100
AcDbPolyline
 90
2
 70
0
 10
634998.1084942145
 20
4836322.521087278
 10
634913.4528614832
 20
4836543.005232591
  0
LWPOLYLINE
  5
D2
330
17
100
AcDbEntity
  8
ROADS
100
AcDbPolyline
 90
2
 70
0
 10
635066.0330789303
 20
4836368.937128229
 10
634998.9144893823
 20
4836564.55527347
  0
LWPOLYLINE
  5
D3
330
17
100
AcDbEntity
  8
ROADS
100
AcDbPolyline
 90
2
 70
0
 10
635165.2422623883
 20
4836334.661910798
 10
635075.8278610108
 20
4836602.45116157
  0
LWPOLYLINE
  5
D4
330
17
100
AcDbEntity
  8
ROADS
100
AcDbPolyline
 90
2
 70
0
 10
634843.4041797828
 20
4836519.595720655
 10
634913.4528614832
 20
4836543.005232591
  0
LWPOLYLINE
  5
D5
330
17
100
AcDbEntity
  8
ROADS
100
AcDbPolyline
 90
2
 70
0
 10
634913.4528614832
 20
4836543.005232591
 10
634998.9144893823
 20
4836564.55527347
  0
LWPOLYLINE
  5
D6
330
17
100
AcDbEntity
  8
ROADS
100
AcDbPolyline
 90
2
 70
0
 10
634843.4041797828
 20
4836519.595720655
 10
634817.7644278365
 20
4836599.32588582
  0
LWPOLYLINE
  5
D7
330
17
100
AcDbEntity
  8
ROADS
100
AcDbPolyline
 90
2
 70
0
 10
634998.9144893823
 20
4836564.55527347
 10
634987.6725494686
 20
4836596.853760671
  0
LWPOLYLINE
  5
D8
330
17
100
AcDbEntity
  8
ROADS
100
AcDbPolyline
 90
2
 70
0
 10
634195.0928583598
 20
4836439.787728655
 10
634233.379048245
 20
4836455.853790792
  0
LWPOLYLINE
  5
D9
330
17
100
AcDbEntity
  8
ROADS
100
AcDbPolyline
 90
2
 70
0
 10
634025.2324766694
 20
4836428.746172377
 10
634009.7396939994
 20
4836472.246633584
  0
LWPOLYLINE
  5
DA
330
17
100
AcDbEntity
  8
ROADS
100
AcDbPolyline
 90
2
 70
0
 10
634195.0928583598
 20
4836439.787728655
 10
634182.1406420637
 20
4836480.834443318
  0
LWPOLYLINE
  5
DB
330
17
100
AcDbEntity
  8
ROADS
100
AcDbPolyline
 90
2
 70
0
 10
634103.4876097059
 20
4836454.703197612
 10
634182.1406420637
 20
4836480.834443318
  0
LWPOLYLINE
  5
DC
330
17
100
AcDbEntity
  8
ROADS
100
AcDbPolyline
 90
2
 70
0
 10
634103.4876097059
 20
4836454.703197612
 10
634088.999631903
 20
4836497.886809207
  0
LWPOLYLINE
  5
DD
330
17
100
AcDbEntity
  8
ROADS
100
AcDbPolyline
 90
2
 70
0
 10
634233.379048245
 20
4836455.853790792
 10
634360.7149323248
 20
4836498.230611428
  0
LWPOLYLINE
  5
DE
330
17
100
AcDbEntity
  8
ROADS
100
AcDbPolyline
 90
2
 70
0
 10
634009.7396939994
 20
4836472.246633584
 10
634049.8016774087
 20
4836485.206042455
  0
LWPOLYLINE
  5
DF
330
17
100
AcDbEntity
  8
ROADS
100
AcDbPolyline
 90
2
 70
0
 10
634049.8016774087
 20
4836485.206042455
 10
634088.999631903
 20
4836497.886809207
  0
LWPOLYLINE
  5
E0
330
17
100
AcDbEntity
  8
ROADS
100
AcDbPolyline
 90
2
 70
0
 10
634182.1406420637
 20
4836480.834443318
 10
634167.9454024105
 20
4836523.093280433
  0
LWPOLYLINE
  5
E1
330
17
100
AcDbEntity
  8
ROADS
100
AcDbPolyline
 90
2
 70
0
 10
634088.999631903
 20
4836497.886809207
 10
634128.209498799
 20
4836510.40678095
  0
LWPOLYLINE
  5
E2
330
17
100
AcDbEntity
  8
ROADS
100
AcDbPolyline
 90
2
 70
0
 10
634412.320533212
 20
4836472.993565507
 10
634399.096321513
 20
4836511.99171694
  0
LWPOLYLINE
  5
E3
330
17
100
AcDbEntity
  8
ROADS
100
AcDbPolyline
 90
3
 70
0
 10
634541.8137240628
 20
4836471.037704051
 10
634577.8221172439
 20
4836485.175940127
 10
634566.9804603349
 20
4836521.443959527
  0
LWPOLYLINE
  5
E4
330
17
100
AcDbEntity
  8
ROADS
100
AcDbPolyline
 90
2
 70
0
 10
634497.2501592967
 20
4836498.461267337
 10
634529.1556815001
 20
4836508.978018728
  0
LWPOLYLINE
  5
E5
330
17
100
AcDbEntity
  8
ROADS
100
AcDbPolyline
 90
2
 70
0
 10
634360.7149323248
 20
4836498.230611428
 10
634399.096321513
 20
4836511.99171694
  0
LWPOLYLINE
  5
E6
330
17
100
AcDbEntity
  8
ROADS
100
AcDbPolyline
 90
2
 70
0
 10
634529.1556815001
 20
4836508.978018728
 10
634566.9804603349
 20
4836521.443959527
  0
LWPOLYLINE
  5
E7
330
17
100
AcDbEntity
  8
ROADS
100
AcDbPolyline
 90
2
 70
0
 10
634612.6067944809
 20
4836499.1270379685
 10
634601.2766552853
 20
4836531.934938003
  0
LWPOLYLINE
  5
E8
330
17
100
AcDbEntity
  8
ROADS
100
AcDbPolyline
 90
2
 70
0
 10
634566.9804603349
 20
4836521.443959527
 10
634601.2766552853
 20
4836531.934938003
  0
LWPOLYLINE
  5
E9
330
17
100
AcDbEntity
  8
ROADS
100
AcDbPolyline
 90
2
 70
0
 10
634399.096321513
 20
4836511.99171694
 10
634386.5613434736
 20
4836549.597211137
  0
LWPOLYLINE
  5
EA
330
17
100
AcDbEntity
  8
ROADS
100
AcDbPolyline
 90
2
 70
0
 10
634497.2501592967
 20
4836498.461267337
 10
634469.3264584563
 20
4836576.962953121
  0
LWPOLYLINE
  5
EB
330
17
100
AcDbEntity
  8
ROADS
100
AcDbPolyline
 90
2
 70
0
 10
634618.0199828668
 20
4836559.759007028
 10
634628.8578070735
 20
4836524.920034106
  0
LWPOLYLINE
  5
EC
330
17
100
AcDbEntity
  8
ROADS
100
AcDbPolyline
 90
2
 70
0
 10
635165.2422623883
 20
4836334.661910798
 10
635254.400993683
 20
4836350.365255326
  0
LWPOLYLINE
  5
ED
330
17
100
AcDbEntity
  8
ROADS
100
AcDbPolyline
 90
2
 70
0
 10
635254.400993683
 20
4836350.365255326
 10
635340.8487798529
 20
4836376.894526554
  0
LWPOLYLINE
  5
EE
330
17
100
AcDbEntity
  8
ROADS
100
AcDbPolyline
 90
2
 70
0
 10
635340.8487798529
 20
4836376.894526554
 10
635356.442600945
 20
4836382.011906902
  0
LWPOLYLINE
  5
EF
330
17
100
AcDbEntity
  8
ROADS
100
AcDbPolyline
 90
2
 70
0
 10
635356.442600945
 20
4836382.011906902
 10
635427.734304654
 20
4836405.487903954
  0
LWPOLYLINE
  5
F0
330
17
100
AcDbEntity
  8
ROADS
100
AcDbPolyline
 90
2
 70
0
 10
635427.734304654
 20
4836405.487903954
 10
635476.5725637618
 20
4836421.47029625
  0
LWPOLYLINE
  5
F1
330
17
100
AcDbEntity
  8
ROADS
100
AcDbPolyline
 90
2
 70
0
 10
635476.5725637618
 20
4836421.47029625
 10
635544.4741010404
 20
4836445.2170377355
  0
LWPOLYLINE
  5
F2
330
17
100
AcDbEntity
  8
ROADS
100
AcDbPolyline
 90
2
 70
0
 10
635544.4741010404
 20
4836445.2170377355
 10
635639.0949314168
 20
4836452.871483987
  0
LWPOLYLINE
  5
F3
330
17
100
AcDbEntity
  8
ROADS
100
AcDbPolyline
 90
2
 70
0
 10
635639.0949314168
 20
4836452.871483987
 10
635597.2363259356
 20
4836581.902883571
  0
LWPOLYLINE
  5
F4
330
17
100
AcDbEntity
  8
ROADS
100
AcDbPolyline
 90
2
 70
0
 10
635254.400993683
 20
4836350.365255326
 10
635128.0967942699
 20
4836742.793237166
  0
LWPOLYLINE
  5
F5
330
17
100
AcDbEntity
  8
ROADS
100
AcDbPolyline
 90
2
 70
0
 10
635340.8487798529
 20
4836376.894526554
 10
635214.6628920911
 20
4836771.569932487
  0
LWPOLYLINE
  5
F6
330
17
100
AcDbEntity
  8
ROADS
100
AcDbPolyline
 90
2
 70
0
 10
634601.2766552853
 20
4836531.934938003
 10
634594.854659208
 20
4836553.253614128
  0
LWPOLYLINE
  5
F7
330
17
100
AcDbEntity
  8
ROADS
100
AcDbPolyline
 90
2
 70
0
 10
634594.854659208
 20
4836553.253614128
 10
634618.0199828668
 20
4836559.759007028
  0
LWPOLYLINE
  5
F8
330
17
100
AcDbEntity
  8
ROADS
100
AcDbPolyline
 90
2
 70
0
 10
634591.8330788533
 20
4836563.282323768
 10
634559.9943671915
 20
4836551.891199977
  0
LWPOLYLINE
  5
F9
330
17
100
AcDbEntity
  8
ROADS
100
AcDbPolyline
 90
2
 70
0
 10
634594.854659208
 20
4836553.253614128
 10
634591.8330788533
 20
4836563.282323768
  0
LWPOLYLINE
  5
FA
330
17
100
AcDbEntity
  8
ROADS
100
AcDbPolyline
 90
2
 70
0
 10
634386.5613434736
 20
4836549.597211137
 10
634469.3264584563
 20
4836576.962953121
  0
LWPOLYLINE
  5
FB
330
17
100
AcDbEntity
  8
ROADS
100
AcDbPolyline
 90
3
 70
0
 10
634618.0199828668
 20
4836559.759007028
 10
634684.4428419569
 20
4836580.926765711
 10
634699.5393712892
 20
4836555.913615082
  0
LWPOLYLINE
  5
FC
330
17
100
AcDbEntity
  8
ROADS
100
AcDbPolyline
 90
2
 70
0
 10
634386.5613434736
 20
4836549.597211137
 10
634369.4541742865
 20
4836599.083023147
  0
LWPOLYLINE
  5
FD
330
17
100
AcDbEntity
  8
ROADS
100
AcDbPolyline
 90
2
 70
0
 10
634469.3264584563
 20
4836576.962953121
 10
634492.9621955659
 20
4836583.3918444235
  0
LWPOLYLINE
  5
FE
330
17
100
AcDbEntity
  8
ROADS
100
AcDbPolyline
 90
2
 70
0
 10
634591.8330788533
 20
4836563.282323768
 10
634575.0040324577
 20
4836610.8815359045
  0
LWPOLYLINE
  5
FF
330
17
100
AcDbEntity
  8
ROADS
100
AcDbPolyline
 90
2
 70
0
 10
634492.9621955659
 20
4836583.3918444235
 10
634575.0040324577
 20
4836610.8815359045
  0
LWPOLYLINE
  5
100
330
17
100
AcDbEntity
  8
ROADS
100
AcDbPolyline
 90
2
 70
0
 10
634182.1406420637
 20
4836480.834443318
 10
634386.5613434736
 20
4836549.597211137
  0
LWPOLYLINE
  5
101
330
17
100
AcDbEntity
  8
ROADS
100
AcDbPolyline
 90
2
 70
0
 10
634128.209498799
 20
4836510.40678095
 10
634167.9454024105
 20
4836523.093280433
  0
LWPOLYLINE
  5
102
330
17
100
AcDbEntity
  8
ROADS
100
AcDbPolyline
 90
3
 70
0
 10
634009.7396939994
 20
4836472.246633584
 10
633984.7950910198
 20
4836551.699149412
 10
634022.7097130254
 20
4836566.548896389
  0
LWPOLYLINE
  5
103
330
17
100
AcDbEntity
  8
ROADS
100
AcDbPolyline
 90
2
 70
0
 10
634049.8016774087
 20
4836485.206042455
 10
634022.7097130254
 20
4836566.548896389
  0
LWPOLYLINE
  5
104
330
17
100
AcDbEntity
  8
ROADS
100
AcDbPolyline
 90
2
 70
0
 10
634167.9454024105
 20
4836523.093280433
 10
634150.6434458109
 20
4836574.447693882
  0
LWPOLYLINE
  5
105
330
17
100
AcDbEntity
  8
ROADS
100
AcDbPolyline
 90
2
 70
0
 10
634150.6434458109
 20
4836574.447693882
 10
634202.7818221735
 20
4836591.478808896
  0
LWPOLYLINE
  5
106
330
17
100
AcDbEntity
  8
ROADS
100
AcDbPolyline
 90
2
 70
0
 10
634088.999631903
 20
4836497.886809207
 10
634023.904556101
 20
4836696.257172082
  0
LWPOLYLINE
  5
107
330
17
100
AcDbEntity
  8
ROADS
100
AcDbPolyline
 90
2
 70
0
 10
634128.209498799
 20
4836510.40678095
 10
634062.5881589128
 20
4836709.175682115
  0
LWPOLYLINE
  5
108
330
17
100
AcDbEntity
  8
ROADS
100
AcDbPolyline
 90
2
 70
0
 10
634369.4541742865
 20
4836599.083023147
 10
634350.6514293823
 20
4836653.293565786
  0
LWPOLYLINE
  5
109
330
17
100
AcDbEntity
  8
ROADS
100
AcDbPolyline
 90
3
 70
0
 10
634022.7097130254
 20
4836566.548896389
 10
633983.982175217
 20
4836682.8232240565
 10
634023.904556101
 20
4836696.257172082
  0
LWPOLYLINE
  5
10A
330
17
100
AcDbEntity
  8
ROADS
100
AcDbPolyline
 90
2
 70
0
 10
634591.8330788533
 20
4836563.282323768
 10
634804.7686889089
 20
4836638.463222599
  0
LWPOLYLINE
  5
10B
330
17
100
AcDbEntity
  8
ROADS
100
AcDbPolyline
 90
2
 70
0
 10
634492.9621955659
 20
4836583.3918444235
 10
634479.145666858
 20
4836627.049681163
  0
LWPOLYLINE
  5
10C
330
17
100
AcDbEntity
  8
ROADS
100
AcDbPolyline
 90
2
 70
0
 10
634575.0040324577
 20
4836610.8815359045
 10
634584.8133601047
 20
4836614.559206211
  0
LWPOLYLINE
  5
10D
330
17
100
AcDbEntity
  8
ROADS
100
AcDbPolyline
 90
3
 70
0
 10
634369.4541742865
 20
4836599.083023147
 10
634415.4969633151
 20
4836614.4057960855
 10
634407.8350912298
 20
4836637.039150356
  0
LWPOLYLINE
  5
10E
330
17
100
AcDbEntity
  8
ROADS
100
AcDbPolyline
 90
2
 70
0
 10
634479.145666858
 20
4836627.049681163
 10
634442.6568978754
 20
4836616.194022305
  0
LWPOLYLINE
  5
10F
330
17
100
AcDbEntity
  8
ROADS
100
AcDbPolyline
 90
2
 70
0
 10
634479.145666858
 20
4836627.049681163
 10
634525.2065834843
 20
4836643.472382621
  0
LWPOLYLINE
  5
110
330
17
100
AcDbEntity
  8
ROADS
100
AcDbPolyline
 90
2
 70
0
 10
634584.8133601047
 20
4836614.559206211
 10
634569.5110577167
 20
4836660.57538723
  0
LWPOLYLINE
  5
111
330
17
100
AcDbEntity
  8
ROADS
100
AcDbPolyline
 90
2
 70
0
 10
634584.8133601047
 20
4836614.559206211
 10
634789.3305162531
 20
4836680.820666807
  0
LWPOLYLINE
  5
112
330
17
100
AcDbEntity
  8
ROADS
100
AcDbPolyline
 90
2
 70
0
 10
634525.2065834843
 20
4836643.472382621
 10
634569.5110577167
 20
4836660.57538723
  0
LWPOLYLINE
  5
113
330
17
100
AcDbEntity
  8
ROADS
100
AcDbPolyline
 90
2
 70
0
 10
634479.145666858
 20
4836627.049681163
 10
634441.6752026046
 20
4836747.193213652
  0
LWPOLYLINE
  5
114
330
17
100
AcDbEntity
  8
ROADS
100
AcDbPolyline
 90
2
 70
0
 10
635427.734304654
 20
4836405.487903954
 10
635300.423050098
 20
4836800.064045434
  0
LWPOLYLINE
  5
115
330
17
100
AcDbEntity
  8
ROADS
100
AcDbPolyline
 90
2
 70
0
 10
635476.5725637618
 20
4836421.47029625
 10
635347.4074549332
 20
4836822.553530227
  0
LWPOLYLINE
  5
116
330
17
100
AcDbEntity
  8
ROADS
100
AcDbPolyline
 90
2
 70
0
 10
635544.4741010404
 20
4836445.2170377355
 10
635415.3511208919
 20
4836845.129004998
  0
LWPOLYLINE
  5
117
330
17
100
AcDbEntity
  8
ROADS
100
AcDbPolyline
 90
2
 70
0
 10
635597.2363259356
 20
4836581.902883571
 10
635486.8333003963
 20
4836916.914734461
  0
LWPOLYLINE
  5
118
330
17
100
AcDbEntity
  8
ROADS
100
AcDbPolyline
 90
2
 70
0
 10
635128.0967942699
 20
4836742.793237166
 10
635214.6628920911
 20
4836771.569932487
  0
LWPOLYLINE
  5
119
330
17
100
AcDbEntity
  8
ROADS
100
AcDbPolyline
 90
2
 70
0
 10
635214.6628920911
 20
4836771.569932487
 10
635300.423050098
 20
4836800.064045434
  0
LWPOLYLINE
  5
11A
330
17
100
AcDbEntity
  8
ROADS
100
AcDbPolyline
 90
2
 70
0
 10
635214.6628920911
 20
4836771.569932487
 10
635199.7478184745
 20
4836817.683203396
  0
LWPOLYLINE
  5
11B
330
17
100
AcDbEntity
  8
ROADS
100
AcDbPolyline
 90
2
 70
0
 10
635300.423050098
 20
4836800.064045434
 10
635285.2909812432
 20
4836846.507431749
  0
LWPOLYLINE
  5
11C
330
17
100
AcDbEntity
  8
ROADS
100
AcDbPolyline
 90
2
 70
0
 10
635199.7478184745
 20
4836817.683203396
 10
635285.2909812432
 20
4836846.507431749
  0
LWPOLYLINE
  5
11D
330
17
100
AcDbEntity
  8
ROADS
100
AcDbPolyline
 90
2
 70
0
 10
635347.4074549332
 20
4836822.553530227
 10
635415.3511208919
 20
4836845.129004998
  0
LWPOLYLINE
  5
11E
330
17
100
AcDbEntity
  8
ROADS
100
AcDbPolyline
 90
2
 70
0
 10
635438.2843572306
 20
4835790.231134099
 10
635409.4337799845
 20
4835880.469676592
  0
LWPOLYLINE
  5
11F
330
17
100
AcDbEntity
  8
ROADS
100
AcDbPolyline
 90
2
 70
0
 10
635168.6787660421
 20
4835796.519947793
 10
635319.682452056
 20
4835847.369239306
  0
LWPOLYLINE
  5
120
330
17
100
AcDbEntity
  8
ROADS
100
AcDbPolyline
 90
2
 70
0
 10
635319.682452056
 20
4835847.369239306
 10
635409.4337799845
 20
4835880.469676592
  0
LWPOLYLINE
  5
121
330
17
100
AcDbEntity
  8
ROADS
100
AcDbPolyline
 90
2
 70
0
 10
635409.4337799845
 20
4835880.469676592
 10
635456.4530329756
 20
4835896.666124535
  0
LWPOLYLINE
  5
122
330
17
100
AcDbEntity
  8
ROADS
100
AcDbPolyline
 90
2
 70
0
 10
635319.682452056
 20
4835847.369239306
 10
635270.8243494233
 20
4835994.220575274
  0
LWPOLYLINE
  5
123
330
17
100
AcDbEntity
  8
ROADS
100
AcDbPolyline
 90
2
 70
0
 10
635456.4530329756
 20
4835896.666124535
 10
635525.036613441
 20
4835955.318115231
  0
LWPOLYLINE
  5
124
330
17
100
AcDbEntity
  8
ROADS
100
AcDbPolyline
 90
2
 70
0
 10
635409.4337799845
 20
4835880.469676592
 10
635346.2366941447
 20
4836065.858132194
  0
LWPOLYLINE
  5
125
330
17
100
AcDbEntity
  8
ROADS
100
AcDbPolyline
 90
2
 70
0
 10
635042.2779591262
 20
4835715.840066461
 10
635029.6444037849
 20
4835753.124721549
  0
LWPOLYLINE
  5
126
330
17
100
AcDbEntity
  8
ROADS
100
AcDbPolyline
 90
2
 70
0
 10
634935.1091063228
 20
4835721.758392685
 10
635029.6444037849
 20
4835753.124721549
  0
LWPOLYLINE
  5
127
330
17
100
AcDbEntity
  8
ROADS
100
AcDbPolyline
 90
2
 70
0
 10
634917.910454283
 20
4835724.0417323215
 10
634899.3526968136
 20
4835780.429580171
  0
LWPOLYLINE
  5
128
330
17
100
AcDbEntity
  8
ROADS
100
AcDbPolyline
 90
2
 70
0
 10
634798.2768491227
 20
4835746.309631134
 10
634899.3526968136
 20
4835780.429580171
  0
LWPOLYLINE
  5
129
330
17
100
AcDbEntity
  8
ROADS
100
AcDbPolyline
 90
2
 70
0
 10
634781.5014233005
 20
4835750.245479975
 10
634770.0826887479
 20
4835784.249904196
  0
LWPOLYLINE
  5
12A
330
17
100
AcDbEntity
  8
ROADS
100
AcDbPolyline
 90
2
 70
0
 10
635029.6444037849
 20
4835753.124721549
 10
635168.6787660421
 20
4835796.519947793
  0
LWPOLYLINE
  5
12B
330
17
100
AcDbEntity
  8
ROADS
100
AcDbPolyline
 90
2
 70
0
 10
635029.6444037849
 20
4835753.124721549
 10
635009.3709828063
 20
4835817.549198749
  0
LWPOLYLINE
  5
12C
330
17
100
AcDbEntity
  8
ROADS
100
AcDbPolyline
 90
2
 70
0
 10
634770.0826887479
 20
4835784.249904196
 10
634785.270885645
 20
4835789.3989182515
  0
LWPOLYLINE
  5
12D
330
17
100
AcDbEntity
  8
ROADS
100
AcDbPolyline
 90
2
 70
0
 10
634693.7315187023
 20
4835772.129845164
 10
634690.9261691086
 20
4835780.424555238
  0
LWPOLYLINE
  5
12E
330
17
100
AcDbEntity
  8
ROADS
100
AcDbPolyline
 90
2
 70
0
 10
634737.2742661275
 20
4835762.470596799
 10
634727.2235402635
 20
4835792.631784316
  0
LWPOLYLINE
  5
12F
330
17
100
AcDbEntity
  8
ROADS
100
AcDbPolyline
 90
2
 70
0
 10
634679.5557121818
 20
4835776.608734256
 10
634690.9261691086
 20
4835780.424555238
  0
LWPOLYLINE
  5
130
330
17
100
AcDbEntity
  8
ROADS
100
AcDbPolyline
 90
2
 70
0
 10
634690.9261691086
 20
4835780.424555238
 10
634727.2235402635
 20
4835792.631784316
  0
LWPOLYLINE
  5
131
330
17
100
AcDbEntity
  8
ROADS
100
AcDbPolyline
 90
2
 70
0
 10
634770.0826887479
 20
4835784.249904196
 10
634763.19420547
 20
4835804.766103472
  0
LWPOLYLINE
  5
132
330
17
100
AcDbEntity
  8
ROADS
100
AcDbPolyline
 90
3
 70
0
 10
634823.7222688239
 20
4835803.22022944
 10
634822.7825012093
 20
4835789.319063618
 10
634785.270885645
 20
4835789.3989182515
  0
LWPOLYLINE
  5
133
330
17
100
AcDbEntity
  8
ROADS
100
AcDbPolyline
 90
2
 70
0
 10
634899.3526968136
 20
4835780.429580171
 10
635009.3709828063
 20
4835817.549198749
  0
LWPOLYLINE
  5
134
330
17
100
AcDbEntity
  8
ROADS
100
AcDbPolyline
 90
2
 70
0
 10
634785.270885645
 20
4835789.3989182515
 10
634816.8651577646
 20
4835818.3780454695
  0
LWPOLYLINE
  5
135
330
17
100
AcDbEntity
  8
ROADS
100
AcDbPolyline
 90
2
 70
0
 10
634899.3526968136
 20
4835780.429580171
 10
634883.7730335052
 20
4835827.686931615
  0
LWPOLYLINE
  5
136
330
17
100
AcDbEntity
  8
ROADS
100
AcDbPolyline
 90
2
 70
0
 10
634823.7222688239
 20
4835803.22022944
 10
634816.8651577646
 20
4835818.3780454695
  0
LWPOLYLINE
  5
137
330
17
100
AcDbEntity
  8
ROADS
100
AcDbPolyline
 90
2
 70
0
 10
634763.19420547
 20
4835804.766103472
 10
634816.8651577646
 20
4835818.3780454695
  0
LWPOLYLINE
  5
138
330
17
100
AcDbEntity
  8
ROADS
100
AcDbPolyline
 90
2
 70
0
 10
634823.7222688239
 20
4835803.22022944
 10
634883.7730335052
 20
4835827.686931615
  0
LWPOLYLINE
  5
139
330
17
100
AcDbEntity
  8
ROADS
100
AcDbPolyline
 90
2
 70
0
 10
635153.8937110018
 20
4835842.0595549755
 10
635168.6787660421
 20
4835796.519947793
  0
LWPOLYLINE
  5
13A
330
17
100
AcDbEntity
  8
ROADS
100
AcDbPolyline
 90
2
 70
0
 10
634816.8651577646
 20
4835818.3780454695
 10
634835.2384238701
 20
4835829.152619439
  0
LWPOLYLINE
  5
13B
330
17
100
AcDbEntity
  8
ROADS
100
AcDbPolyline
 90
2
 70
0
 10
635818.017368193
 20
4835904.7380646365
 10
635815.0874071069
 20
4835913.583262505
  0
LWPOLYLINE
  5
13C
330
17
100
AcDbEntity
  8
ROADS
100
AcDbPolyline
 90
2
 70
0
 10
635850.0391741008
 20
4835920.098287196
 10
635847.0776987881
 20
4835922.406381404
  0
LWPOLYLINE
  5
13D
330
17
100
AcDbEntity
  8
ROADS
100
AcDbPolyline
 90
2
 70
0
 10
635815.0874071069
 20
4835913.583262505
 10
635847.0776987881
 20
4835922.406381404
  0
LWPOLYLINE
  5
13E
330
17
100
AcDbEntity
  8
ROADS
100
AcDbPolyline
 90
2
 70
0
 10
635861.3813578844
 20
4835925.704690326
 10
635860.5656151186
 20
4835935.530377877
  0
LWPOLYLINE
  5
13F
330
17
100
AcDbEntity
  8
ROADS
100
AcDbPolyline
 90
2
 70
0
 10
635847.0776987881
 20
4835922.406381404
 10
635860.5656151186
 20
4835935.530377877
  0
LWPOLYLINE
  5
140
330
17
100
AcDbEntity
  8
ROADS
100
AcDbPolyline
 90
2
 70
0
 10
635815.0874071069
 20
4835913.583262505
 10
635802.6483469271
 20
4835951.637210595
  0
LWPOLYLINE
  5
141
330
17
100
AcDbEntity
  8
ROADS
100
AcDbPolyline
 90
2
 70
0
 10
635847.0776987881
 20
4835922.406381404
 10
635802.6483469271
 20
4835951.637210595
  0
LWPOLYLINE
  5
142
330
17
100
AcDbEntity
  8
ROADS
100
AcDbPolyline
 90
2
 70
0
 10
635860.5656151186
 20
4835935.530377877
 10
635895.5159809638
 20
4835993.288311981
  0
LWPOLYLINE
  5
143
330
17
100
AcDbEntity
  8
ROADS
100
AcDbPolyline
 90
2
 70
0
 10
635895.5159809638
 20
4835993.288311981
 10
635872.3691301534
 20
4836019.524141884
  0
LWPOLYLINE
  5
144
330
17
100
AcDbEntity
  8
ROADS
100
AcDbPolyline
 90
2
 70
0
 10
635895.5159809638
 20
4835993.288311981
 10
635812.0468567369
 20
4836027.654281838
  0
LWPOLYLINE
  5
145
330
17
100
AcDbEntity
  8
ROADS
100
AcDbPolyline
 90
2
 70
0
 10
635895.5159809638
 20
4835993.288311981
 10
636059.6796650392
 20
4836038.387011999
  0
LWPOLYLINE
  5
146
330
17
100
AcDbEntity
  8
ROADS
100
AcDbPolyline
 90
2
 70
0
 10
635872.3691301534
 20
4836019.524141884
 10
635859.0569367202
 20
4836027.601177942
  0
LWPOLYLINE
  5
147
330
17
100
AcDbEntity
  8
ROADS
100
AcDbPolyline
 90
2
 70
0
 10
635802.6483469271
 20
4835951.637210595
 10
635753.0022770825
 20
4836098.532002158
  0
LWPOLYLINE
  5
148
330
17
100
AcDbEntity
  8
ROADS
100
AcDbPolyline
 90
3
 70
0
 10
635525.036613441
 20
4835955.318115231
 10
635604.8463955163
 20
4836046.370906614
 10
635753.0022770825
 20
4836098.532002158
  0
LWPOLYLINE
  5
149
330
17
100
AcDbEntity
  8
ROADS
100
AcDbPolyline
 90
2
 70
0
 10
635872.3691301534
 20
4836019.524141884
 10
635869.9462820356
 20
4836035.212715522
  0
LWPOLYLINE
  5
14A
330
17
100
AcDbEntity
  8
ROADS
100
AcDbPolyline
 90
2
 70
0
 10
635869.9462820356
 20
4836035.212715522
 10
635859.0569367202
 20
4836027.601177942
  0
LWPOLYLINE
  5
14B
330
17
100
AcDbEntity
  8
ROADS
100
AcDbPolyline
 90
3
 70
0
 10
635859.0569367202
 20
4836027.601177942
 10
635820.6785817511
 20
4836041.926586002
 10
635809.2725446799
 20
4836068.146670303
  0
LWPOLYLINE
  5
14C
330
17
100
AcDbEntity
  8
ROADS
100
AcDbPolyline
 90
2
 70
0
 10
635812.0468567369
 20
4836027.654281838
 10
635809.2725446799
 20
4836068.146670303
  0
LWPOLYLINE
  5
14D
330
17
100
AcDbEntity
  8
ROADS
100
AcDbPolyline
 90
2
 70
0
 10
635812.0468567369
 20
4836027.654281838
 10
635787.0169420956
 20
4836079.245277019
  0
LWPOLYLINE
  5
14E
330
17
100
AcDbEntity
  8
ROADS
100
AcDbPolyline
 90
2
 70
0
 10
635869.9462820356
 20
4836035.212715522
 10
635852.864990909
 20
4836091.121803269
  0
LWPOLYLINE
  5
14F
330
17
100
AcDbEntity
  8
ROADS
100
AcDbPolyline
 90
2
 70
0
 10
635809.2725446799
 20
4836068.146670303
 10
635810.4928955839
 20
4836081.739923632
  0
LWPOLYLINE
  5
150
330
17
100
AcDbEntity
  8
ROADS
100
AcDbPolyline
 90
2
 70
0
 10
635810.4928955839
 20
4836081.739923632
 10
635787.0169420956
 20
4836079.245277019
  0
LWPOLYLINE
  5
151
330
17
100
AcDbEntity
  8
ROADS
100
AcDbPolyline
 90
2
 70
0
 10
635787.0169420956
 20
4836079.245277019
 10
635753.0022770825
 20
4836098.532002158
  0
LWPOLYLINE
  5
152
330
17
100
AcDbEntity
  8
ROADS
100
AcDbPolyline
 90
2
 70
0
 10
635810.4928955839
 20
4836081.739923632
 10
635829.4848784129
 20
4836099.200814975
  0
LWPOLYLINE
  5
153
330
17
100
AcDbEntity
  8
ROADS
100
AcDbPolyline
 90
2
 70
0
 10
635852.864990909
 20
4836091.121803269
 10
635829.4848784129
 20
4836099.200814975
  0
LWPOLYLINE
  5
154
330
17
100
AcDbEntity
  8
ROADS
100
AcDbPolyline
 90
2
 70
0
 10
635852.864990909
 20
4836091.121803269
 10
635845.8789258823
 20
4836114.156519583
  0
LWPOLYLINE
  5
155
330
17
100
AcDbEntity
  8
ROADS
100
AcDbPolyline
 90
2
 70
0
 10
635829.4848784129
 20
4836099.200814975
 10
635845.8789258823
 20
4836114.156519583
  0
LWPOLYLINE
  5
156
330
17
100
AcDbEntity
  8
ROADS
100
AcDbPolyline
 90
2
 70
0
 10
635753.0022770825
 20
4836098.532002158
 10
635854.3351796615
 20
4836132.381001634
  0
LWPOLYLINE
  5
157
330
17
100
AcDbEntity
  8
ROADS
100
AcDbPolyline
 90
2
 70
0
 10
635845.8789258823
 20
4836114.156519583
 10
635854.3351796615
 20
4836132.381001634
  0
LWPOLYLINE
  5
158
330
17
100
AcDbEntity
  8
ROADS
100
AcDbPolyline
 90
2
 70
0
 10
635753.0022770825
 20
4836098.532002158
 10
635736.5208476395
 20
4836150.579575201
  0
LWPOLYLINE
  5
159
330
17
100
AcDbEntity
  8
ROADS
100
AcDbPolyline
 90
2
 70
0
 10
635736.5208476395
 20
4836150.579575201
 10
635673.5774187708
 20
4836128.838695171
  0
LWPOLYLINE
  5
15A
330
17
100
AcDbEntity
  8
ROADS
100
AcDbPolyline
 90
2
 70
0
 10
635396.6059557414
 20
4836082.7052253205
 10
635447.4313479481
 20
4836099.7135838475
  0
LWPOLYLINE
  5
15B
330
17
100
AcDbEntity
  8
ROADS
100
AcDbPolyline
 90
2
 70
0
 10
635447.4313479481
 20
4836099.7135838475
 10
635467.7198990844
 20
4836107.026020526
  0
LWPOLYLINE
  5
15C
330
17
100
AcDbEntity
  8
ROADS
100
AcDbPolyline
 90
2
 70
0
 10
635447.4313479481
 20
4836099.7135838475
 10
635438.4536146999
 20
4836124.6014240915
  0
LWPOLYLINE
  5
15D
330
17
100
AcDbEntity
  8
ROADS
100
AcDbPolyline
 90
2
 70
0
 10
635467.7198990844
 20
4836107.026020526
 10
635518.2333092452
 20
4836125.442867857
  0
LWPOLYLINE
  5
15E
330
17
100
AcDbEntity
  8
ROADS
100
AcDbPolyline
 90
2
 70
0
 10
635391.9731883544
 20
4836109.468778386
 10
635438.4536146999
 20
4836124.6014240915
  0
LWPOLYLINE
  5
15F
330
17
100
AcDbEntity
  8
ROADS
100
AcDbPolyline
 90
2
 70
0
 10
635438.4536146999
 20
4836124.6014240915
 10
635433.862576007
 20
4836138.79664791
  0
LWPOLYLINE
  5
160
330
17
100
AcDbEntity
  8
ROADS
100
AcDbPolyline
 90
2
 70
0
 10
635518.2333092452
 20
4836125.442867857
 10
635567.7311904398
 20
4836141.340141564
  0
LWPOLYLINE
  5
161
330
17
100
AcDbEntity
  8
ROADS
100
AcDbPolyline
 90
2
 70
0
 10
635518.2333092452
 20
4836125.442867857
 10
635506.2112803641
 20
4836162.500728094
  0
LWPOLYLINE
  5
162
330
17
100
AcDbEntity
  8
ROADS
100
AcDbPolyline
 90
2
 70
0
 10
635433.862576007
 20
4836138.79664791
 10
635506.2112803641
 20
4836162.500728094
  0
LWPOLYLINE
  5
163
330
17
100
AcDbEntity
  8
ROADS
100
AcDbPolyline
 90
2
 70
0
 10
635567.7311904398
 20
4836141.340141564
 10
635635.2593295994
 20
4836162.564861889
  0
LWPOLYLINE
  5
164
330
17
100
AcDbEntity
  8
ROADS
100
AcDbPolyline
 90
3
 70
0
 10
636124.2624006243
 20
4836085.132784113
 10
636146.7793707646
 20
4836113.10951651
 10
636170.5874929295
 20
4836123.071568231
  0
LWPOLYLINE
  5
165
330
17
100
AcDbEntity
  8
ROADS
100
AcDbPolyline
 90
3
 70
0
 10
636115.6363695328
 20
4836078.068337718
 10
636092.7948529955
 20
4836151.757927945
 10
636056.385365744
 20
4836207.913622213
  0
LWPOLYLINE
  5
166
330
17
100
AcDbEntity
  8
ROADS
100
AcDbPolyline
 90
2
 70
0
 10
636189.7902276878
 20
4836141.357466348
 10
636151.3094897954
 20
4836251.015634649
  0
LWPOLYLINE
  5
167
330
17
100
AcDbEntity
  8
ROADS
100
AcDbPolyline
 90
2
 70
0
 10
636056.385365744
 20
4836207.913622213
 10
636026.77271891
 20
4836207.694216751
  0
LWPOLYLINE
  5
168
330
17
100
AcDbEntity
  8
ROADS
100
AcDbPolyline
 90
2
 70
0
 10
636189.9404687224
 20
4836141.506753633
 10
636128.9884725334
 20
4836326.986301098
  0
LWPOLYLINE
  5
169
330
17
100
AcDbEntity
  8
ROADS
100
AcDbPolyline
 90
3
 70
0
 10
636235.9761835488
 20
4836313.0358986035
 10
636194.070164226
 20
4836295.159653979
 10
636230.3852097988
 20
4836181.694745898
  0
LWPOLYLINE
  5
16A
330
17
100
AcDbEntity
  8
ROADS
100
AcDbPolyline
 90
2
 70
0
 10
635736.5208476395
 20
4836150.579575201
 10
635787.3220064932
 20
4836167.354501901
  0
LWPOLYLINE
  5
16B
330
17
100
AcDbEntity
  8
ROADS
100
AcDbPolyline
 90
3
 70
0
 10
635854.3351796615
 20
4836132.381001634
 10
635992.359040296
 20
4836178.304440038
 10
636026.77271891
 20
4836207.694216751
  0
LWPOLYLINE
  5
16C
330
17
100
AcDbEntity
  8
ROADS
100
AcDbPolyline
 90
2
 70
0
 10
635736.5208476395
 20
4836150.579575201
 10
635723.1365510932
 20
4836191.572173072
  0
LWPOLYLINE
  5
16D
330
17
100
AcDbEntity
  8
ROADS
100
AcDbPolyline
 90
2
 70
0
 10
635635.2593295994
 20
4836162.564861889
 10
635723.1365510932
 20
4836191.572173072
  0
LWPOLYLINE
  5
16E
330
17
100
AcDbEntity
  8
ROADS
100
AcDbPolyline
 90
2
 70
0
 10
635635.2593295994
 20
4836162.564861889
 10
635621.4709192646
 20
4836204.502222855
  0
LWPOLYLINE
  5
16F
330
17
100
AcDbEntity
  8
ROADS
100
AcDbPolyline
 90
2
 70
0
 10
635854.3351796615
 20
4836132.381001634
 10
635860.0591711204
 20
4836237.05767027
  0
LWPOLYLINE
  5
170
330
17
100
AcDbEntity
  8
ROADS
100
AcDbPolyline
 90
2
 70
0
 10
635621.4709192646
 20
4836204.502222855
 10
635662.6855441093
 20
4836218.991631468
  0
LWPOLYLINE
  5
171
330
17
100
AcDbEntity
  8
ROADS
100
AcDbPolyline
 90
2
 70
0
 10
635723.1365510932
 20
4836191.572173072
 10
635860.0591711204
 20
4836237.05767027
  0
LWPOLYLINE
  5
172
330
17
100
AcDbEntity
  8
ROADS
100
AcDbPolyline
 90
2
 70
0
 10
635723.1365510932
 20
4836191.572173072
 10
635693.5718214354
 20
4836283.17464439
  0
LWPOLYLINE
  5
173
330
17
100
AcDbEntity
  8
ROADS
100
AcDbPolyline
 90
2
 70
0
 10
635860.0591711204
 20
4836237.05767027
 10
635965.4026782325
 20
4836272.055334203
  0
LWPOLYLINE
  5
174
330
17
100
AcDbEntity
  8
ROADS
100
AcDbPolyline
 90
2
 70
0
 10
636026.77271891
 20
4836207.694216751
 10
636039.5085613839
 20
4836255.055656147
  0
LWPOLYLINE
  5
175
330
17
100
AcDbEntity
  8
ROADS
100
AcDbPolyline
 90
2
 70
0
 10
636056.385365744
 20
4836207.913622213
 10
636039.5085613839
 20
4836255.055656147
  0
LWPOLYLINE
  5
176
330
17
100
AcDbEntity
  8
ROADS
100
AcDbPolyline
 90
2
 70
0
 10
636265.3747018941
 20
4836221.151346704
 10
636235.9761835488
 20
4836313.0358986035
  0
LWPOLYLINE
  5
177
330
17
100
AcDbEntity
  8
ROADS
100
AcDbPolyline
 90
2
 70
0
 10
636056.385365744
 20
4836207.913622213
 10
636110.6620009402
 20
4836282.37051139
  0
LWPOLYLINE
  5
178
330
17
100
AcDbEntity
  8
ROADS
100
AcDbPolyline
 90
2
 70
0
 10
636301.991858894
 20
4836265.286275403
 10
636280.7521439043
 20
4836331.704106652
  0
LWPOLYLINE
  5
179
330
17
100
AcDbEntity
  8
ROADS
100
AcDbPolyline
 90
2
 70
0
 10
636110.6620009402
 20
4836282.37051139
 10
636151.3094897954
 20
4836251.015634649
  0
LWPOLYLINE
  5
17A
330
17
100
AcDbEntity
  8
ROADS
100
AcDbPolyline
 90
2
 70
0
 10
636039.5085613839
 20
4836255.055656147
 10
636041.8091949836
 20
4836301.3633384295
  0
LWPOLYLINE
  5
17B
330
17
100
AcDbEntity
  8
ROADS
100
AcDbPolyline
 90
2
 70
0
 10
636151.3094897954
 20
4836251.015634649
 10
636131.8661245157
 20
4836308.46318908
  0
LWPOLYLINE
  5
17C
330
17
100
AcDbEntity
  8
ROADS
100
AcDbPolyline
 90
2
 70
0
 10
635965.4026782325
 20
4836272.055334203
 10
636041.8091949836
 20
4836301.3633384295
  0
LWPOLYLINE
  5
17D
330
17
100
AcDbEntity
  8
ROADS
100
AcDbPolyline
 90
2
 70
0
 10
636110.6620009402
 20
4836282.37051139
 10
636131.8661245157
 20
4836308.46318908
  0
LWPOLYLINE
  5
17E
330
17
100
AcDbEntity
  8
ROADS
100
AcDbPolyline
 90
2
 70
0
 10
635331.2921873824
 20
4836111.391868989
 10
635287.4156070033
 20
4836247.501314573
  0
LWPOLYLINE
  5
17F
330
17
100
AcDbEntity
  8
ROADS
100
AcDbPolyline
 90
3
 70
0
 10
635331.2921873824
 20
4836111.391868989
 10
635385.7303065936
 20
4836131.335798171
 10
635342.8078909719
 20
4836265.476344906
  0
LWPOLYLINE
  5
180
330
17
100
AcDbEntity
  8
ROADS
100
AcDbPolyline
 90
2
 70
0
 10
635581.1144165038
 20
4836190.895408943
 10
635621.4709192646
 20
4836204.502222855
  0
LWPOLYLINE
  5
181
330
17
100
AcDbEntity
  8
ROADS
100
AcDbPolyline
 90
2
 70
0
 10
635287.4156070033
 20
4836247.501314573
 10
635342.8078909719
 20
4836265.476344906
  0
LWPOLYLINE
  5
182
330
17
100
AcDbEntity
  8
ROADS
100
AcDbPolyline
 90
2
 70
0
 10
635433.862576007
 20
4836138.79664791
 10
635356.442600945
 20
4836382.011906902
  0
LWPOLYLINE
  5
183
330
17
100
AcDbEntity
  8
ROADS
100
AcDbPolyline
 90
2
 70
0
 10
635567.7311904398
 20
4836141.340141564
 10
635476.5725637618
 20
4836421.47029625
  0
LWPOLYLINE
  5
184
330
17
100
AcDbEntity
  8
ROADS
100
AcDbPolyline
 90
2
 70
0
 10
635506.2112803641
 20
4836162.500728094
 10
635427.734304654
 20
4836405.487903954
  0
LWPOLYLINE
  5
185
330
17
100
AcDbEntity
  8
ROADS
100
AcDbPolyline
 90
2
 70
0
 10
635342.8078909719
 20
4836265.476344906
 10
635326.8917871276
 20
4836315.212868347
  0
LWPOLYLINE
  5
186
330
17
100
AcDbEntity
  8
ROADS
100
AcDbPolyline
 90
2
 70
0
 10
635287.4156070033
 20
4836247.501314573
 10
635254.400993683
 20
4836350.365255326
  0
LWPOLYLINE
  5
187
330
17
100
AcDbEntity
  8
ROADS
100
AcDbPolyline
 90
2
 70
0
 10
635621.4709192646
 20
4836204.502222855
 10
635544.4741010404
 20
4836445.2170377355
  0
LWPOLYLINE
  5
188
330
17
100
AcDbEntity
  8
ROADS
100
AcDbPolyline
 90
2
 70
0
 10
636336.4042994909
 20
4836315.289569959
 10
636326.3871694176
 20
4836346.584513976
  0
LWPOLYLINE
  5
189
330
17
100
AcDbEntity
  8
ROADS
100
AcDbPolyline
 90
2
 70
0
 10
636364.7754768733
 20
4836359.3269704655
 10
636326.3871694176
 20
4836346.584513976
  0
LWPOLYLINE
  5
18A
330
17
100
AcDbEntity
  8
ROADS
100
AcDbPolyline
 90
2
 70
0
 10
636326.3871694176
 20
4836346.584513976
 10
636313.3420480897
 20
4836387.345288433
  0
LWPOLYLINE
  5
18B
330
17
100
AcDbEntity
  8
ROADS
100
AcDbPolyline
 90
2
 70
0
 10
636110.6620009402
 20
4836282.37051139
 10
636078.457214854
 20
4836310.851770274
  0
LWPOLYLINE
  5
18C
330
17
100
AcDbEntity
  8
ROADS
100
AcDbPolyline
 90
2
 70
0
 10
636041.8091949836
 20
4836301.3633384295
 10
636078.457214854
 20
4836310.851770274
  0
LWPOLYLINE
  5
18D
330
17
100
AcDbEntity
  8
ROADS
100
AcDbPolyline
 90
2
 70
0
 10
636131.8661245157
 20
4836308.46318908
 10
636128.9884725334
 20
4836326.986301098
  0
LWPOLYLINE
  5
18E
330
17
100
AcDbEntity
  8
ROADS
100
AcDbPolyline
 90
2
 70
0
 10
636078.457214854
 20
4836310.851770274
 10
636128.9884725334
 20
4836326.986301098
  0
LWPOLYLINE
  5
18F
330
17
100
AcDbEntity
  8
ROADS
100
AcDbPolyline
 90
2
 70
0
 10
636280.7521439043
 20
4836331.704106652
 10
636235.9761835488
 20
4836313.0358986035
  0
LWPOLYLINE
  5
190
330
17
100
AcDbEntity
  8
ROADS
100
AcDbPolyline
 90
2
 70
0
 10
636041.8091949836
 20
4836301.3633384295
 10
636015.8992397133
 20
4836356.230727154
  0
LWPOLYLINE
  5
191
330
17
100
AcDbEntity
  8
ROADS
100
AcDbPolyline
 90
2
 70
0
 10
636128.9884725334
 20
4836326.986301098
 10
636155.8045267244
 20
4836335.549393911
  0
LWPOLYLINE
  5
192
330
17
100
AcDbEntity
  8
ROADS
100
AcDbPolyline
 90
2
 70
0
 10
636235.9761835488
 20
4836313.0358986035
 10
636222.0081899834
 20
4836356.689234569
  0
LWPOLYLINE
  5
193
330
17
100
AcDbEntity
  8
ROADS
100
AcDbPolyline
 90
2
 70
0
 10
636326.3871694176
 20
4836346.584513976
 10
636280.7521439043
 20
4836331.704106652
  0
LWPOLYLINE
  5
194
330
17
100
AcDbEntity
  8
ROADS
100
AcDbPolyline
 90
2
 70
0
 10
636041.8091949836
 20
4836301.3633384295
 10
636072.8988967638
 20
4836386.560965838
  0
LWPOLYLINE
  5
195
330
17
100
AcDbEntity
  8
ROADS
100
AcDbPolyline
 90
2
 70
0
 10
635965.4026782325
 20
4836272.055334203
 10
635951.0128179367
 20
4836308.7863999875
  0
LWPOLYLINE
  5
196
330
17
100
AcDbEntity
  8
ROADS
100
AcDbPolyline
 90
4
 70
0
 10
635693.5718214354
 20
4836283.17464439
 10
635891.8518386459
 20
4836348.348246788
 10
635913.4146246971
 20
4836296.086510445
 10
635951.0128179367
 20
4836308.7863999875
  0
LWPOLYLINE
  5
197
330
17
100
AcDbEntity
  8
ROADS
100
AcDbPolyline
 90
2
 70
0
 10
635693.5718214354
 20
4836283.17464439
 10
635666.8461698113
 20
4836366.101674837
  0
LWPOLYLINE
  5
198
330
17
100
AcDbEntity
  8
ROADS
100
AcDbPolyline
 90
2
 70
0
 10
635951.0128179367
 20
4836308.7863999875
 10
635924.6929378366
 20
4836391.311793457
  0
LWPOLYLINE
  5
199
330
17
100
AcDbEntity
  8
ROADS
100
AcDbPolyline
 90
2
 70
0
 10
635666.8461698113
 20
4836366.101674837
 10
635864.7923102542
 20
4836432.20536649
  0
LWPOLYLINE
  5
19A
330
17
100
AcDbEntity
  8
ROADS
100
AcDbPolyline
 90
2
 70
0
 10
635924.6929378366
 20
4836391.311793457
 10
635981.4205510927
 20
4836419.097887396
  0
LWPOLYLINE
  5
19B
330
17
100
AcDbEntity
  8
ROADS
100
AcDbPolyline
 90
2
 70
0
 10
635666.8461698113
 20
4836366.101674837
 10
635639.0949314168
 20
4836452.871483987
  0
LWPOLYLINE
  5
19C
330
17
100
AcDbEntity
  8
ROADS
100
AcDbPolyline
 90
3
 70
0
 10
635924.6929378366
 20
4836391.311793457
 10
635910.3736394804
 20
4836444.963612652
 10
635923.5298836931
 20
4836470.9537672885
  0
LWPOLYLINE
  5
19D
330
17
100
AcDbEntity
  8
ROADS
100
AcDbPolyline
 90
2
 70
0
 10
635931.1430925524
 20
4836464.452845685
 10
635923.5298836931
 20
4836470.9537672885
  0
LWPOLYLINE
  5
19E
330
17
100
AcDbEntity
  8
ROADS
100
AcDbPolyline
 90
2
 70
0
 10
635639.0949314168
 20
4836452.871483987
 10
635766.2148542521
 20
4836493.145383704
  0
LWPOLYLINE
  5
19F
330
17
100
AcDbEntity
  8
ROADS
100
AcDbPolyline
 90
2
 70
0
 10
636313.3420480897
 20
4836387.345288433
 10
636394.7064990492
 20
4836414.044864381
  0
LWPOLYLINE
  5
1A0
330
17
100
AcDbEntity
  8
ROADS
100
AcDbPolyline
 90
2
 70
0
 10
636155.8045267244
 20
4836335.549393911
 10
636222.0081899834
 20
4836356.689234569
  0
LWPOLYLINE
  5
1A1
330
17
100
AcDbEntity
  8
ROADS
100
AcDbPolyline
 90
2
 70
0
 10
636015.8992397133
 20
4836356.230727154
 10
635987.2422818602
 20
4836340.823249383
  0
LWPOLYLINE
  5
1A2
330
17
100
AcDbEntity
  8
ROADS
100
AcDbPolyline
 90
3
 70
0
 10
636155.8045267244
 20
4836335.549393911
 10
636142.0317024479
 20
4836377.452092151
 10
636181.0698706887
 20
4836390.134032494
  0
LWPOLYLINE
  5
1A3
330
17
100
AcDbEntity
  8
ROADS
100
AcDbPolyline
 90
2
 70
0
 10
636222.0081899834
 20
4836356.689234569
 10
636313.3420480897
 20
4836387.345288433
  0
LWPOLYLINE
  5
1A4
330
17
100
AcDbEntity
  8
ROADS
100
AcDbPolyline
 90
3
 70
0
 10
636072.8988967638
 20
4836386.560965838
 10
636115.4510193779
 20
4836373.958200399
 10
636102.3115804087
 20
4836361.556540653
  0
LWPOLYLINE
  5
1A5
330
17
100
AcDbEntity
  8
ROADS
100
AcDbPolyline
 90
2
 70
0
 10
636015.8992397133
 20
4836356.230727154
 10
635981.4205510927
 20
4836419.097887396
  0
LWPOLYLINE
  5
1A6
330
17
100
AcDbEntity
  8
ROADS
100
AcDbPolyline
 90
3
 70
0
 10
636222.0081899834
 20
4836356.689234569
 10
636180.3991442539
 20
4836478.443737288
 10
636114.6762858112
 20
4836504.827773573
  0
LWPOLYLINE
  5
1A7
330
17
100
AcDbEntity
  8
ROADS
100
AcDbPolyline
 90
2
 70
0
 10
636072.8988967638
 20
4836386.560965838
 10
636114.6762858112
 20
4836504.827773573
  0
LWPOLYLINE
  5
1A8
330
17
100
AcDbEntity
  8
ROADS
100
AcDbPolyline
 90
3
 70
0
 10
635981.4205510927
 20
4836419.097887396
 10
636001.8971609167
 20
4836428.289920433
 10
636037.1007397982
 20
4836530.086396247
  0
LWPOLYLINE
  5
1A9
330
17
100
AcDbEntity
  8
ROADS
100
AcDbPolyline
 90
2
 70
0
 10
636313.3420480897
 20
4836387.345288433
 10
636253.6432051482
 20
4836570.77723122
  0
LWPOLYLINE
  5
1AA
330
17
100
AcDbEntity
  8
ROADS
100
AcDbPolyline
 90
2
 70
0
 10
636402.0307006474
 20
4836427.434480134
 10
636390.7124874229
 20
4836462.037829369
  0
LWPOLYLINE
  5
1AB
330
17
100
AcDbEntity
  8
ROADS
100
AcDbPolyline
 90
2
 70
0
 10
636390.7124874229
 20
4836462.037829369
 10
636421.737414331
 20
4836472.2194133615
  0
LWPOLYLINE
  5
1AC
330
17
100
AcDbEntity
  8
ROADS
100
AcDbPolyline
 90
3
 70
0
 10
636390.7124874229
 20
4836462.037829369
 10
636344.575687723
 20
4836446.9763151705
 10
636315.3501259654
 20
4836535.577800356
  0
LWPOLYLINE
  5
1AD
330
17
100
AcDbEntity
  8
ROADS
100
AcDbPolyline
 90
2
 70
0
 10
635940.294462311
 20
4836470.560843543
 10
635935.3944729085
 20
4836486.90768745
  0
LWPOLYLINE
  5
1AE
330
17
100
AcDbEntity
  8
ROADS
100
AcDbPolyline
 90
2
 70
0
 10
635923.5298836931
 20
4836470.9537672885
 10
635935.3944729085
 20
4836486.90768745
  0
LWPOLYLINE
  5
1AF
330
17
100
AcDbEntity
  8
ROADS
100
AcDbPolyline
 90
2
 70
0
 10
635766.2148542521
 20
4836493.145383704
 10
635841.3108139015
 20
4836509.993133685
  0
LWPOLYLINE
  5
1B0
330
17
100
AcDbEntity
  8
ROADS
100
AcDbPolyline
 90
2
 70
0
 10
635935.3944729085
 20
4836486.90768745
 10
635942.7894003275
 20
4836526.6588886
  0
LWPOLYLINE
  5
1B1
330
17
100
AcDbEntity
  8
ROADS
100
AcDbPolyline
 90
2
 70
0
 10
635766.2148542521
 20
4836493.145383704
 10
635772.0690925198
 20
4836529.774435331
  0
LWPOLYLINE
  5
1B2
330
17
100
AcDbEntity
  8
ROADS
100
AcDbPolyline
 90
2
 70
0
 10
635841.3108139015
 20
4836509.993133685
 10
635923.223302002
 20
4836520.540583907
  0
LWPOLYLINE
  5
1B3
330
17
100
AcDbEntity
  8
ROADS
100
AcDbPolyline
 90
2
 70
0
 10
635827.598026789
 20
4836526.120112251
 10
635841.3108139015
 20
4836509.993133685
  0
LWPOLYLINE
  5
1B4
330
17
100
AcDbEntity
  8
ROADS
100
AcDbPolyline
 90
2
 70
0
 10
635923.223302002
 20
4836520.540583907
 10
635942.7894003275
 20
4836526.6588886
  0
LWPOLYLINE
  5
1B5
330
17
100
AcDbEntity
  8
ROADS
100
AcDbPolyline
 90
2
 70
0
 10
635827.598026789
 20
4836526.120112251
 10
635772.0690925198
 20
4836529.774435331
  0
LWPOLYLINE
  5
1B6
330
17
100
AcDbEntity
  8
ROADS
100
AcDbPolyline
 90
2
 70
0
 10
635786.0217127096
 20
4836577.399875237
 10
635827.598026789
 20
4836526.120112251
  0
LWPOLYLINE
  5
1B7
330
17
100
AcDbEntity
  8
ROADS
100
AcDbPolyline
 90
2
 70
0
 10
636430.5659178902
 20
4836492.839958766
 10
636404.5197883979
 20
4836573.590438414
  0
LWPOLYLINE
  5
1B8
330
17
100
AcDbEntity
  8
ROADS
100
AcDbPolyline
 90
2
 70
0
 10
636390.7124874229
 20
4836462.037829369
 10
636345.0079212161
 20
4836602.934038095
  0
LWPOLYLINE
  5
1B9
330
17
100
AcDbEntity
  8
ROADS
100
AcDbPolyline
 90
2
 70
0
 10
636457.175389179
 20
4836566.958946067
 10
636435.9281633294
 20
4836633.788709145
  0
LWPOLYLINE
  5
1BA
330
17
100
AcDbEntity
  8
ROADS
100
AcDbPolyline
 90
2
 70
0
 10
636345.0079212161
 20
4836602.934038095
 10
636435.9281633294
 20
4836633.788709145
  0
LWPOLYLINE
  5
1BB
330
17
100
AcDbEntity
  8
ROADS
100
AcDbPolyline
 90
2
 70
0
 10
636435.9281633294
 20
4836633.788709145
 10
636479.2220526783
 20
4836647.849253049
  0
LWPOLYLINE
  5
1BC
330
17
100
AcDbEntity
  8
ROADS
100
AcDbPolyline
 90
2
 70
0
 10
636037.1007397982
 20
4836530.086396247
 10
636114.6762858112
 20
4836504.827773573
  0
LWPOLYLINE
  5
1BD
330
17
100
AcDbEntity
  8
ROADS
100
AcDbPolyline
 90
2
 70
0
 10
636114.6762858112
 20
4836504.827773573
 10
636136.9596154524
 20
4836567.361205761
  0
LWPOLYLINE
  5
1BE
330
17
100
AcDbEntity
  8
ROADS
100
AcDbPolyline
 90
2
 70
0
 10
636037.1007397982
 20
4836530.086396247
 10
636046.5632730993
 20
4836556.650829954
  0
LWPOLYLINE
  5
1BF
330
17
100
AcDbEntity
  8
ROADS
100
AcDbPolyline
 90
2
 70
0
 10
635942.7894003275
 20
4836526.6588886
 10
636056.2447754558
 20
4836591.679971921
  0
LWPOLYLINE
  5
1C0
330
17
100
AcDbEntity
  8
ROADS
100
AcDbPolyline
 90
4
 70
0
 10
636136.9596154524
 20
4836567.361205761
 10
636096.1271237684
 20
4836581.513176905
 10
636098.3893888511
 20
4836592.571058398
 10
636056.2447754558
 20
4836591.679971921
  0
LWPOLYLINE
  5
1C1
330
17
100
AcDbEntity
  8
ROADS
100
AcDbPolyline
 90
2
 70
0
 10
636136.9596154524
 20
4836567.361205761
 10
636148.6813722661
 20
4836604.377422949
  0
LWPOLYLINE
  5
1C2
330
17
100
AcDbEntity
  8
ROADS
100
AcDbPolyline
 90
2
 70
0
 10
636253.6432051482
 20
4836570.77723122
 10
636345.0079212161
 20
4836602.934038095
  0
LWPOLYLINE
  5
1C3
330
17
100
AcDbEntity
  8
ROADS
100
AcDbPolyline
 90
2
 70
0
 10
636148.6813722661
 20
4836604.377422949
 10
636253.6432051482
 20
4836570.77723122
  0
LWPOLYLINE
  5
1C4
330
17
100
AcDbEntity
  8
ROADS
100
AcDbPolyline
 90
2
 70
0
 10
636056.2447754558
 20
4836591.679971921
 10
636148.6813722661
 20
4836604.377422949
  0
LWPOLYLINE
  5
1C5
330
17
100
AcDbEntity
  8
ROADS
100
AcDbPolyline
 90
2
 70
0
 10
636056.2447754558
 20
4836591.679971921
 10
635991.4140538031
 20
4836625.472759612
  0
LWPOLYLINE
  5
1C6
330
17
100
AcDbEntity
  8
ROADS
100
AcDbPolyline
 90
2
 70
0
 10
635772.0690925198
 20
4836529.774435331
 10
635786.0217127096
 20
4836577.399875237
  0
LWPOLYLINE
  5
1C7
330
17
100
AcDbEntity
  8
ROADS
100
AcDbPolyline
 90
2
 70
0
 10
635923.223302002
 20
4836520.540583907
 10
635915.5268396892
 20
4836592.262731886
  0
LWPOLYLINE
  5
1C8
330
17
100
AcDbEntity
  8
ROADS
100
AcDbPolyline
 90
3
 70
0
 10
635786.0217127096
 20
4836577.399875237
 10
635735.5629417435
 20
4836560.302048724
 10
635712.6087560256
 20
4836576.019392898
  0
LWPOLYLINE
  5
1C9
330
17
100
AcDbEntity
  8
ROADS
100
AcDbPolyline
 90
2
 70
0
 10
635597.2363259356
 20
4836581.902883571
 10
635679.944058629
 20
4836613.288040407
  0
LWPOLYLINE
  5
1CA
330
17
100
AcDbEntity
  8
ROADS
100
AcDbPolyline
 90
2
 70
0
 10
635835.3546206618
 20
4836631.319578328
 10
635786.0217127096
 20
4836577.399875237
  0
LWPOLYLINE
  5
1CB
330
17
100
AcDbEntity
  8
ROADS
100
AcDbPolyline
 90
2
 70
0
 10
635915.5268396892
 20
4836592.262731886
 10
635991.4140538031
 20
4836625.472759612
  0
LWPOLYLINE
  5
1CC
330
17
100
AcDbEntity
  8
ROADS
100
AcDbPolyline
 90
3
 70
0
 10
635915.5268396892
 20
4836592.262731886
 10
635871.1324109368
 20
4836591.019936253
 10
635835.3546206618
 20
4836631.319578328
  0
LWPOLYLINE
  5
1CD
330
17
100
AcDbEntity
  8
ROADS
100
AcDbPolyline
 90
2
 70
0
 10
635679.944058629
 20
4836613.288040407
 10
635653.587792066
 20
4836654.877119705
  0
LWPOLYLINE
  5
1CE
330
17
100
AcDbEntity
  8
ROADS
100
AcDbPolyline
 90
2
 70
0
 10
635835.3546206618
 20
4836631.319578328
 10
635832.6906737317
 20
4836653.039315668
  0
LWPOLYLINE
  5
1CF
330
17
100
AcDbEntity
  8
ROADS
100
AcDbPolyline
 90
2
 70
0
 10
635679.944058629
 20
4836613.288040407
 10
635777.1307162188
 20
4836686.28364592
  0
LWPOLYLINE
  5
1D0
330
17
100
AcDbEntity
  8
ROADS
100
AcDbPolyline
 90
2
 70
0
 10
636148.6813722661
 20
4836604.377422949
 10
636163.5777026708
 20
4836645.912442573
  0
LWPOLYLINE
  5
1D1
330
17
100
AcDbEntity
  8
ROADS
100
AcDbPolyline
 90
2
 70
0
 10
636273.1970769353
 20
4836645.21340162
 10
636278.4521949083
 20
4836631.07416088
  0
LWPOLYLINE
  5
1D2
330
17
100
AcDbEntity
  8
ROADS
100
AcDbPolyline
 90
2
 70
0
 10
636102.309054107
 20
4836636.7438365575
 10
636111.7403265309
 20
4836664.151787927
  0
LWPOLYLINE
  5
1D3
330
17
100
AcDbEntity
  8
ROADS
100
AcDbPolyline
 90
2
 70
0
 10
636163.5777026708
 20
4836645.912442573
 10
636111.7403265309
 20
4836664.151787927
  0
LWPOLYLINE
  5
1D4
330
17
100
AcDbEntity
  8
ROADS
100
AcDbPolyline
 90
3
 70
0
 10
636228.3159283726
 20
4836667.344874553
 10
636221.484508621
 20
4836647.147561774
 10
636273.1970769353
 20
4836645.21340162
  0
LWPOLYLINE
  5
1D5
330
17
100
AcDbEntity
  8
ROADS
100
AcDbPolyline
 90
2
 70
0
 10
635991.4140538031
 20
4836625.472759612
 10
635951.0520330828
 20
4836700.715600647
  0
LWPOLYLINE
  5
1D6
330
17
100
AcDbEntity
  8
ROADS
100
AcDbPolyline
 90
2
 70
0
 10
636163.5777026708
 20
4836645.912442573
 10
636177.3917640733
 20
4836684.359623526
  0
LWPOLYLINE
  5
1D7
330
17
100
AcDbEntity
  8
ROADS
100
AcDbPolyline
 90
2
 70
0
 10
636056.2535776757
 20
4836683.832270327
 10
636111.7403265309
 20
4836664.151787927
  0
LWPOLYLINE
  5
1D8
330
17
100
AcDbEntity
  8
ROADS
100
AcDbPolyline
 90
2
 70
0
 10
636177.3917640733
 20
4836684.359623526
 10
636228.3159283726
 20
4836667.344874553
  0
LWPOLYLINE
  5
1D9
330
17
100
AcDbEntity
  8
ROADS
100
AcDbPolyline
 90
4
 70
0
 10
636228.3159283726
 20
4836667.344874553
 10
636242.711538427
 20
4836709.248886081
 10
636260.7206209352
 20
4836703.027957308
 10
636273.1970769353
 20
4836645.21340162
  0
LWPOLYLINE
  5
1DA
330
17
100
AcDbEntity
  8
ROADS
100
AcDbPolyline
 90
2
 70
0
 10
636345.0079212161
 20
4836602.934038095
 10
636297.8526855658
 20
4836749.88551864
  0
LWPOLYLINE
  5
1DB
330
17
100
AcDbEntity
  8
ROADS
100
AcDbPolyline
 90
2
 70
0
 10
636435.9281633294
 20
4836633.788709145
 10
636389.702698476
 20
4836780.756038443
  0
LWPOLYLINE
  5
1DC
330
17
100
AcDbEntity
  8
ROADS
100
AcDbPolyline
 90
2
 70
0
 10
636497.4311844152
 20
4836754.891511321
 10
636486.3206630091
 20
4836789.144771479
  0
LWPOLYLINE
  5
1DD
330
17
100
AcDbEntity
  8
ROADS
100
AcDbPolyline
 90
2
 70
0
 10
636297.8526855658
 20
4836749.88551864
 10
636389.702698476
 20
4836780.756038443
  0
LWPOLYLINE
  5
1DE
330
17
100
AcDbEntity
  8
ROADS
100
AcDbPolyline
 90
2
 70
0
 10
636389.702698476
 20
4836780.756038443
 10
636479.2870959281
 20
4836811.097561823
  0
LWPOLYLINE
  5
1DF
330
17
100
AcDbEntity
  8
ROADS
100
AcDbPolyline
 90
2
 70
0
 10
636486.3206630091
 20
4836789.144771479
 10
636479.2870959281
 20
4836811.097561823
  0
LWPOLYLINE
  5
1E0
330
17
100
AcDbEntity
  8
ROADS
100
AcDbPolyline
 90
2
 70
0
 10
636486.3206630091
 20
4836789.144771479
 10
636502.0313136277
 20
4836794.203020229
  0
LWPOLYLINE
  5
1E1
330
17
100
AcDbEntity
  8
ROADS
100
AcDbPolyline
 90
2
 70
0
 10
635832.6906737317
 20
4836653.039315668
 10
635951.0520330828
 20
4836700.715600647
  0
LWPOLYLINE
  5
1E2
330
17
100
AcDbEntity
  8
ROADS
100
AcDbPolyline
 90
2
 70
0
 10
635832.6906737317
 20
4836653.039315668
 10
635810.7666621017
 20
4836710.175912992
  0
LWPOLYLINE
  5
1E3
330
17
100
AcDbEntity
  8
ROADS
100
AcDbPolyline
 90
2
 70
0
 10
635777.1307162188
 20
4836686.28364592
 10
635810.7666621017
 20
4836710.175912992
  0
LWPOLYLINE
  5
1E4
330
17
100
AcDbEntity
  8
ROADS
100
AcDbPolyline
 90
2
 70
0
 10
635951.0520330828
 20
4836700.715600647
 10
635942.059604336
 20
4836723.537015501
  0
LWPOLYLINE
  5
1E5
330
17
100
AcDbEntity
  8
ROADS
100
AcDbPolyline
 90
2
 70
0
 10
635777.1307162188
 20
4836686.28364592
 10
635718.592496786
 20
4836749.227708084
  0
LWPOLYLINE
  5
1E6
330
17
100
AcDbEntity
  8
ROADS
100
AcDbPolyline
 90
2
 70
0
 10
635810.7666621017
 20
4836710.175912992
 10
635846.9254154525
 20
4836726.68015228
  0
LWPOLYLINE
  5
1E7
330
17
100
AcDbEntity
  8
ROADS
100
AcDbPolyline
 90
2
 70
0
 10
635942.059604336
 20
4836723.537015501
 10
635993.205999473
 20
4836721.662637567
  0
LWPOLYLINE
  5
1E8
330
17
100
AcDbEntity
  8
ROADS
100
AcDbPolyline
 90
2
 70
0
 10
635942.059604336
 20
4836723.537015501
 10
635901.523723475
 20
4836826.257104806
  0
LWPOLYLINE
  5
1E9
330
17
100
AcDbEntity
  8
ROADS
100
AcDbPolyline
 90
3
 70
0
 10
635600.1932392707
 20
4836952.967619514
 10
635679.1946484358
 20
4836727.017408033
 10
635718.592496786
 20
4836749.227708084
  0
LWPOLYLINE
  5
1EA
330
17
100
AcDbEntity
  8
ROADS
100
AcDbPolyline
 90
2
 70
0
 10
635901.523723475
 20
4836826.257104806
 10
635991.3635821721
 20
4836861.04660953
  0
LWPOLYLINE
  5
1EB
330
17
100
AcDbEntity
  8
ROADS
100
AcDbPolyline
 90
2
 70
0
 10
636389.702698476
 20
4836780.756038443
 10
636367.4510939751
 20
4836849.368824017
  0
LWPOLYLINE
  5
1EC
330
17
100
AcDbEntity
  8
ROADS
100
AcDbPolyline
 90
2
 70
0
 10
636327.5183024621
 20
4836836.163600592
 10
636330.5777702644
 20
4836818.67636139
  0
LWPOLYLINE
  5
1ED
330
17
100
AcDbEntity
  8
ROADS
100
AcDbPolyline
 90
2
 70
0
 10
636479.2870959281
 20
4836811.097561823
 10
636463.3949518169
 20
4836859.363531262
  0
LWPOLYLINE
  5
1EE
330
17
100
AcDbEntity
  8
ROADS
100
AcDbPolyline
 90
2
 70
0
 10
636327.5183024621
 20
4836836.163600592
 10
636367.4510939751
 20
4836849.368824017
  0
LWPOLYLINE
  5
1EF
330
17
100
AcDbEntity
  8
ROADS
100
AcDbPolyline
 90
2
 70
0
 10
636327.5183024621
 20
4836836.163600592
 10
636315.5038278176
 20
4836875.894901142
  0
LWPOLYLINE
  5
1F0
330
17
100
AcDbEntity
  8
ROADS
100
AcDbPolyline
 90
2
 70
0
 10
636463.3949518169
 20
4836859.363531262
 10
636504.2722445922
 20
4836872.852362057
  0
LWPOLYLINE
  5
1F1
330
17
100
AcDbEntity
  8
ROADS
100
AcDbPolyline
 90
3
 70
0
 10
636367.4510939751
 20
4836849.368824017
 10
636348.8486319865
 20
4836898.523847806
 10
636311.037035453
 20
4836929.34089604
  0
LWPOLYLINE
  5
1F2
330
17
100
AcDbEntity
  8
ROADS
100
AcDbPolyline
 90
3
 70
0
 10
635718.592496786
 20
4836749.227708084
 10
635759.6584698133
 20
4836779.679895952
 10
635690.3398917804
 20
4836980.520044386
  0
LWPOLYLINE
  5
1F3
330
17
100
AcDbEntity
  8
ROADS
100
AcDbPolyline
 90
2
 70
0
 10
635901.523723475
 20
4836826.257104806
 10
635862.8379484077
 20
4836920.627890228
  0
LWPOLYLINE
  5
1F4
330
17
100
AcDbEntity
  8
ROADS
100
AcDbPolyline
 90
2
 70
0
 10
635862.8379484077
 20
4836920.627890228
 10
635933.7494822491
 20
4836948.318532412
  0
LWPOLYLINE
  5
1F5
330
17
100
AcDbEntity
  8
ROADS
100
AcDbPolyline
 90
2
 70
0
 10
635933.7494822491
 20
4836948.318532412
 10
635975.4008346688
 20
4836964.374080443
  0
LWPOLYLINE
  5
1F6
330
17
100
AcDbEntity
  8
ROADS
100
AcDbPolyline
 90
2
 70
0
 10
635600.1932392707
 20
4836952.967619514
 10
635690.3398917804
 20
4836980.520044386
  0
LWPOLYLINE
  5
1F7
330
17
100
AcDbEntity
  8
ROADS
100
AcDbPolyline
 90
2
 70
0
 10
635862.8379484077
 20
4836920.627890228
 10
635819.496624187
 20
4837028.9416943025
  0
LWPOLYLINE
  5
1F8
330
17
100
AcDbEntity
  8
ROADS
100
AcDbPolyline
 90
2
 70
0
 10
635933.7494822491
 20
4836948.318532412
 10
635911.9623458706
 20
4837003.247409446
  0
LWPOLYLINE
  5
1F9
330
17
100
AcDbEntity
  8
ROADS
100
AcDbPolyline
 90
2
 70
0
 10
635975.4008346688
 20
4836964.374080443
 10
635964.7272088933
 20
4836991.068431929
  0
LWPOLYLINE
  5
1FA
330
17
100
AcDbEntity
  8
ROADS
100
AcDbPolyline
 90
2
 70
0
 10
635690.3398917804
 20
4836980.520044386
 10
635819.496624187
 20
4837028.9416943025
  0
LWPOLYLINE
  5
1FB
330
17
100
AcDbEntity
  8
ROADS
100
AcDbPolyline
 90
2
 70
0
 10
635819.496624187
 20
4837028.9416943025
 10
635964.3510707014
 20
4837089.569305508
  0
LWPOLYLINE
  5
1FC
330
17
100
AcDbEntity
  8
ROADS
100
AcDbPolyline
 90
3
 70
0
 10
636417.7131854328
 20
4837000.814181021
 10
636384.26097994
 20
4836956.085303687
 10
636421.8221928382
 20
4836834.6996252835
  0
LWPOLYLINE
  5
1FD
330
17
100
AcDbEntity
  8
ROADS
100
AcDbPolyline
 90
2
 70
0
 10
636463.3949518169
 20
4836859.363531262
 10
636417.7131854328
 20
4837000.814181021
  0
LWPOLYLINE
  5
1FE
330
17
100
AcDbEntity
  8
ROADS
100
AcDbPolyline
 90
2
 70
0
 10
636311.037035453
 20
4836929.34089604
 10
636402.180632405
 20
4837048.909619958
  0
LWPOLYLINE
  5
1FF
330
17
100
AcDbEntity
  8
ROADS
100
AcDbPolyline
 90
2
 70
0
 10
636417.7131854328
 20
4837000.814181021
 10
636402.180632405
 20
4837048.909619958
  0
LWPOLYLINE
  5
200
330
17
100
AcDbEntity
  8
ROADS
100
AcDbPolyline
 90
2
 70
0
 10
636402.180632405
 20
4837048.909619958
 10
636452.1300201054
 20
4837111.876448152
  0
LWPOLYLINE
  5
201
330
17
100
AcDbEntity
  8
ROADS
100
AcDbPolyline
 90
2
 70
0
 10
636177.3917640733
 20
4836684.359623526
 10
636210.0782134323
 20
4836776.026767763
  0
LWPOLYLINE
  5
202
330
17
100
AcDbEntity
  8
ROADS
100
AcDbPolyline
 90
2
 70
0
 10
636210.0782134323
 20
4836776.026767763
 10
636297.8526855658
 20
4836749.88551864
  0
LWPOLYLINE
  5
203
330
17
100
AcDbEntity
  8
ROADS
100
AcDbPolyline
 90
2
 70
0
 10
636210.0782134323
 20
4836776.026767763
 10
636235.0584927661
 20
4836832.711481555
  0
LWPOLYLINE
  5
204
330
17
100
AcDbEntity
  8
ROADS
100
AcDbPolyline
 90
3
 70
0
 10
636235.0584927661
 20
4836832.711481555
 10
636298.2103126753
 20
4836809.140261645
 10
636317.9264125946
 20
4836822.283927996
  0
LWPOLYLINE
  5
205
330
17
100
AcDbEntity
  8
ROADS
100
AcDbPolyline
 90
2
 70
0
 10
636235.0584927661
 20
4836832.711481555
 10
636311.037035453
 20
4836929.34089604
  0
LWPOLYLINE
  5
206
330
17
100
AcDbEntity
  8
ROADS
100
AcDbPolyline
 90
2
 70
0
 10
635985.537825617
 20
4836937.324992689
 10
635975.4008346688
 20
4836964.374080443
  0
LWPOLYLINE
  5
207
330
17
100
AcDbEntity
  8
ROADS
100
AcDbPolyline
 90
2
 70
0
 10
635997.8985966068
 20
4837008.352760113
 10
635964.3510707014
 20
4837089.569305508
  0
LWPOLYLINE
  5
208
330
17
100
AcDbEntity
  8
ROADS
100
AcDbPolyline
 90
3
 70
0
 10
635964.3510707014
 20
4837089.569305508
 10
636035.4123964497
 20
4837122.858194413
 10
636040.9787396449
 20
4837174.463403939
  0
LWPOLYLINE
  5
209
330
17
100
AcDbEntity
  8
ROADS
100
AcDbPolyline
 90
2
 70
0
 10
636028.9718754106
 20
4837170.304922513
 10
636039.0344582609
 20
4837137.970024179
  0
LWPOLYLINE
  5
20A
330
17
100
AcDbEntity
  8
ROADS
100
AcDbPolyline
 90
2
 70
0
 10
636040.9787396449
 20
4837174.463403939
 10
636028.9718754106
 20
4837170.304922513
  0
LWPOLYLINE
  5
20B
330
17
100
AcDbEntity
  8
ROADS
100
AcDbPolyline
 90
2
 70
0
 10
636480.0759244291
 20
4837090.815782137
 10
636452.1300201054
 20
4837111.876448152
  0
LWPOLYLINE
  5
20C
330
17
100
AcDbEntity
  8
ROADS
100
AcDbPolyline
 90
2
 70
0
 10
636402.180632405
 20
4837048.909619958
 10
636352.8312585213
 20
4837203.340057817
  0
LWPOLYLINE
  5
20D
330
17
100
AcDbEntity
  8
ROADS
100
AcDbPolyline
 90
2
 70
0
 10
636452.1300201054
 20
4837111.876448152
 10
636468.5843033117
 20
4837132.734582475
  0
LWPOLYLINE
  5
20E
330
17
100
AcDbEntity
  8
ROADS
100
AcDbPolyline
 90
2
 70
0
 10
636352.8312585213
 20
4837203.340057817
 10
636439.5889551116
 20
4837229.046826075
  0
LWPOLYLINE
  5
20F
330
17
100
AcDbEntity
  8
ROADS
100
AcDbPolyline
 90
3
 70
0
 10
635690.3398917804
 20
4836980.520044386
 10
635667.1187864465
 20
4837114.689858931
 10
635744.5185025209
 20
4837140.0206427025
  0
LWPOLYLINE
  5
210
330
17
100
AcDbEntity
  8
ROADS
100
AcDbPolyline
 90
4
 70
0
 10
635819.496624187
 20
4837028.9416943025
 10
635782.9088619063
 20
4837096.220999784
 10
635744.2501130754
 20
4837089.494372667
 10
635754.5292018545
 20
4837061.721813415
  0
LWPOLYLINE
  5
211
330
17
100
AcDbEntity
  8
ROADS
100
AcDbPolyline
 90
2
 70
0
 10
635964.3510707014
 20
4837089.569305508
 10
635927.0072701962
 20
4837192.84712938
  0
LWPOLYLINE
  5
212
330
17
100
AcDbEntity
  8
ROADS
100
AcDbPolyline
 90
2
 70
0
 10
635744.5185025209
 20
4837140.0206427025
 10
635927.0072701962
 20
4837192.84712938
  0
LWPOLYLINE
  5
213
330
17
100
AcDbEntity
  8
ROADS
100
AcDbPolyline
 90
2
 70
0
 10
635927.0072701962
 20
4837192.84712938
 10
635997.4541582002
 20
4837216.31255983
  0
LWPOLYLINE
  5
214
330
17
100
AcDbEntity
  8
ROADS
100
AcDbPolyline
 90
2
 70
0
 10
635744.5185025209
 20
4837140.0206427025
 10
635671.3604677466
 20
4837284.891400976
  0
LWPOLYLINE
  5
215
330
17
100
AcDbEntity
  8
ROADS
100
AcDbPolyline
 90
2
 70
0
 10
635579.9618800792
 20
4837255.893131383
 10
635671.3604677466
 20
4837284.891400976
  0
LWPOLYLINE
  5
216
330
17
100
AcDbEntity
  8
ROADS
100
AcDbPolyline
 90
2
 70
0
 10
635927.0072701962
 20
4837192.84712938
 10
635864.4384261051
 20
4837386.2537011
  0
LWPOLYLINE
  5
217
330
17
100
AcDbEntity
  8
ROADS
100
AcDbPolyline
 90
3
 70
0
 10
635804.8940638222
 20
4837308.896173648
 10
635775.69021549
 20
4837323.456356769
 10
635671.3604677466
 20
4837284.891400976
  0
LWPOLYLINE
  5
218
330
17
100
AcDbEntity
  8
ROADS
100
AcDbPolyline
 90
2
 70
0
 10
635671.3604677466
 20
4837284.891400976
 10
635739.5027188326
 20
4837362.627403237
  0
LWPOLYLINE
  5
219
330
17
100
AcDbEntity
  8
ROADS
100
AcDbPolyline
 90
2
 70
0
 10
636040.9787396449
 20
4837174.463403939
 10
636090.0774407493
 20
4837192.471824968
  0
LWPOLYLINE
  5
21A
330
17
100
AcDbEntity
  8
ROADS
100
AcDbPolyline
 90
3
 70
0
 10
636028.9718754106
 20
4837170.304922513
 10
636012.7429115052
 20
4837171.661581816
 10
635997.4541582002
 20
4837216.31255983
  0
LWPOLYLINE
  5
21B
330
17
100
AcDbEntity
  8
ROADS
100
AcDbPolyline
 90
2
 70
0
 10
636090.0774407493
 20
4837192.471824968
 10
636160.1533749838
 20
4837234.626715382
  0
LWPOLYLINE
  5
21C
330
17
100
AcDbEntity
  8
ROADS
100
AcDbPolyline
 90
2
 70
0
 10
636160.1533749838
 20
4837234.626715382
 10
636218.8514189001
 20
4837270.692337987
  0
LWPOLYLINE
  5
21D
330
17
100
AcDbEntity
  8
ROADS
100
AcDbPolyline
 90
2
 70
0
 10
635997.4541582002
 20
4837216.31255983
 10
635967.3515364449
 20
4837314.083337244
  0
LWPOLYLINE
  5
21E
330
17
100
AcDbEntity
  8
ROADS
100
AcDbPolyline
 90
2
 70
0
 10
636090.0774407493
 20
4837192.471824968
 10
636042.9402000988
 20
4837338.609368343
  0
LWPOLYLINE
  5
21F
330
17
100
AcDbEntity
  8
ROADS
100
AcDbPolyline
 90
2
 70
0
 10
636218.8514189001
 20
4837270.692337987
 10
636268.8987123136
 20
4837301.393064985
  0
LWPOLYLINE
  5
220
330
17
100
AcDbEntity
  8
ROADS
100
AcDbPolyline
 90
2
 70
0
 10
636160.1533749838
 20
4837234.626715382
 10
636117.8204646463
 20
4837363.763155783
  0
LWPOLYLINE
  5
221
330
17
100
AcDbEntity
  8
ROADS
100
AcDbPolyline
 90
2
 70
0
 10
636268.8987123136
 20
4837301.393064985
 10
636313.0469629222
 20
4837328.4728061
  0
LWPOLYLINE
  5
222
330
17
100
AcDbEntity
  8
ROADS
100
AcDbPolyline
 90
2
 70
0
 10
635967.3515364449
 20
4837314.083337244
 10
636042.9402000988
 20
4837338.609368343
  0
LWPOLYLINE
  5
223
330
17
100
AcDbEntity
  8
ROADS
100
AcDbPolyline
 90
2
 70
0
 10
636352.8312585213
 20
4837203.340057817
 10
636313.0469629222
 20
4837328.4728061
  0
LWPOLYLINE
  5
224
330
17
100
AcDbEntity
  8
ROADS
100
AcDbPolyline
 90
2
 70
0
 10
636313.0469629222
 20
4837328.4728061
 10
636389.022864366
 20
4837353.900799876
  0
LWPOLYLINE
  5
225
330
17
100
AcDbEntity
  8
ROADS
100
AcDbPolyline
 90
2
 70
0
 10
635402.2192450478
 20
4837331.7786061615
 10
635424.7527903663
 20
4837339.321732965
  0
LWPOLYLINE
  5
226
330
17
100
AcDbEntity
  8
ROADS
100
AcDbPolyline
 90
2
 70
0
 10
635402.2192450478
 20
4837331.7786061615
 10
635387.6411273116
 20
4837383.08942142
  0
LWPOLYLINE
  5
227
330
17
100
AcDbEntity
  8
ROADS
100
AcDbPolyline
 90
2
 70
0
 10
635358.4305264291
 20
4837317.120509231
 10
635323.7778103959
 20
4837431.963782056
  0
LWPOLYLINE
  5
228
330
17
100
AcDbEntity
  8
ROADS
100
AcDbPolyline
 90
3
 70
0
 10
635502.6239884421
 20
4837239.810252398
 10
635471.0745017519
 20
4837389.163687399
 10
635514.0407854562
 20
4837517.593295759
  0
LWPOLYLINE
  5
229
330
17
100
AcDbEntity
  8
ROADS
100
AcDbPolyline
 90
3
 70
0
 10
635579.9618800792
 20
4837255.893131383
 10
635574.0999218693
 20
4837329.357516383
 10
635514.0407854562
 20
4837517.593295759
  0
LWPOLYLINE
  5
22A
330
17
100
AcDbEntity
  8
ROADS
100
AcDbPolyline
 90
2
 70
0
 10
635323.7778103959
 20
4837431.963782056
 10
635288.7203616423
 20
4837412.356139211
  0
LWPOLYLINE
  5
22B
330
17
100
AcDbEntity
  8
ROADS
100
AcDbPolyline
 90
2
 70
0
 10
635323.7778103959
 20
4837431.963782056
 10
635332.1075508492
 20
4837459.335771081
  0
LWPOLYLINE
  5
22C
330
17
100
AcDbEntity
  8
ROADS
100
AcDbPolyline
 90
2
 70
0
 10
635323.7778103959
 20
4837431.963782056
 10
635312.0103235899
 20
4837468.598142795
  0
LWPOLYLINE
  5
22D
330
17
100
AcDbEntity
  8
ROADS
100
AcDbPolyline
 90
2
 70
0
 10
635312.0103235899
 20
4837468.598142795
 10
635332.1075508492
 20
4837459.335771081
  0
LWPOLYLINE
  5
22E
330
17
100
AcDbEntity
  8
ROADS
100
AcDbPolyline
 90
2
 70
0
 10
635332.1075508492
 20
4837459.335771081
 10
635391.7503113898
 20
4837492.26015914
  0
LWPOLYLINE
  5
22F
330
17
100
AcDbEntity
  8
ROADS
100
AcDbPolyline
 90
2
 70
0
 10
636268.8987123136
 20
4837301.393064985
 10
636251.1091138058
 20
4837351.772858244
  0
LWPOLYLINE
  5
230
330
17
100
AcDbEntity
  8
ROADS
100
AcDbPolyline
 90
2
 70
0
 10
636218.8514189001
 20
4837270.692337987
 10
636189.3165830426
 20
4837388.162691229
  0
LWPOLYLINE
  5
231
330
17
100
AcDbEntity
  8
ROADS
100
AcDbPolyline
 90
2
 70
0
 10
636042.9402000988
 20
4837338.609368343
 10
636117.8204646463
 20
4837363.763155783
  0
LWPOLYLINE
  5
232
330
17
100
AcDbEntity
  8
ROADS
100
AcDbPolyline
 90
2
 70
0
 10
636313.0469629222
 20
4837328.4728061
 10
636283.9060951824
 20
4837417.244756634
  0
LWPOLYLINE
  5
233
330
17
100
AcDbEntity
  8
ROADS
100
AcDbPolyline
 90
2
 70
0
 10
636117.8204646463
 20
4837363.763155783
 10
636189.3165830426
 20
4837388.162691229
  0
LWPOLYLINE
  5
234
330
17
100
AcDbEntity
  8
ROADS
100
AcDbPolyline
 90
2
 70
0
 10
636189.3165830426
 20
4837388.162691229
 10
636283.9060951824
 20
4837417.244756634
  0
LWPOLYLINE
  5
235
330
17
100
AcDbEntity
  8
ROADS
100
AcDbPolyline
 90
2
 70
0
 10
636042.9402000988
 20
4837338.609368343
 10
635984.9386471622
 20
4837521.813674941
  0
LWPOLYLINE
  5
236
330
17
100
AcDbEntity
  8
ROADS
100
AcDbPolyline
 90
2
 70
0
 10
636117.8204646463
 20
4837363.763155783
 10
636058.420263604
 20
4837550.22999495
  0
LWPOLYLINE
  5
237
330
17
100
AcDbEntity
  8
ROADS
100
AcDbPolyline
 90
2
 70
0
 10
636283.9060951824
 20
4837417.244756634
 10
636251.8776885017
 20
4837518.694602954
  0
LWPOLYLINE
  5
238
330
17
100
AcDbEntity
  8
ROADS
100
AcDbPolyline
 90
2
 70
0
 10
636189.3165830426
 20
4837388.162691229
 10
636129.9582859629
 20
4837572.974677343
  0
LWPOLYLINE
  5
239
330
17
100
AcDbEntity
  8
ROADS
100
AcDbPolyline
 90
2
 70
0
 10
635788.047447243
 20
4837337.052002702
 10
635739.5027188326
 20
4837362.627403237
  0
LWPOLYLINE
  5
23A
330
17
100
AcDbEntity
  8
ROADS
100
AcDbPolyline
 90
2
 70
0
 10
635739.5027188326
 20
4837362.627403237
 10
635764.8473415992
 20
4837393.462410219
  0
LWPOLYLINE
  5
23B
330
17
100
AcDbEntity
  8
ROADS
100
AcDbPolyline
 90
2
 70
0
 10
635967.3515364449
 20
4837314.083337244
 10
635926.618559218
 20
4837442.346048903
  0
LWPOLYLINE
  5
23C
330
17
100
AcDbEntity
  8
ROADS
100
AcDbPolyline
 90
2
 70
0
 10
635864.4384261051
 20
4837386.2537011
 10
635926.618559218
 20
4837442.346048903
  0
LWPOLYLINE
  5
23D
330
17
100
AcDbEntity
  8
ROADS
100
AcDbPolyline
 90
2
 70
0
 10
635864.4384261051
 20
4837386.2537011
 10
635845.0154342119
 20
4837444.555586976
  0
LWPOLYLINE
  5
23E
330
17
100
AcDbEntity
  8
ROADS
100
AcDbPolyline
 90
2
 70
0
 10
635764.8473415992
 20
4837393.462410219
 10
635820.6992596716
 20
4837493.000116236
  0
LWPOLYLINE
  5
23F
330
17
100
AcDbEntity
  8
ROADS
100
AcDbPolyline
 90
2
 70
0
 10
635845.0154342119
 20
4837444.555586976
 10
635864.0902061057
 20
4837456.4395657135
  0
LWPOLYLINE
  5
240
330
17
100
AcDbEntity
  8
ROADS
100
AcDbPolyline
 90
2
 70
0
 10
635845.0154342119
 20
4837444.555586976
 10
635840.896737914
 20
4837456.961195457
  0
LWPOLYLINE
  5
241
330
17
100
AcDbEntity
  8
ROADS
100
AcDbPolyline
 90
3
 70
0
 10
635764.8473415992
 20
4837393.462410219
 10
635689.6137824324
 20
4837467.61841936
 10
635750.8998136653
 20
4837538.5848860545
  0
LWPOLYLINE
  5
242
330
17
100
AcDbEntity
  8
ROADS
100
AcDbPolyline
 90
2
 70
0
 10
635926.618559218
 20
4837442.346048903
 10
635906.5445873311
 20
4837502.19130623
  0
LWPOLYLINE
  5
243
330
17
100
AcDbEntity
  8
ROADS
100
AcDbPolyline
 90
2
 70
0
 10
636283.9060951824
 20
4837417.244756634
 10
636344.9455736052
 20
4837436.415111458
  0
LWPOLYLINE
  5
244
330
17
100
AcDbEntity
  8
ROADS
100
AcDbPolyline
 90
2
 70
0
 10
635840.896737914
 20
4837456.961195457
 10
635820.6992596716
 20
4837493.000116236
  0
LWPOLYLINE
  5
245
330
17
100
AcDbEntity
  8
ROADS
100
AcDbPolyline
 90
2
 70
0
 10
635926.618559218
 20
4837442.346048903
 10
635984.9386471622
 20
4837521.813674941
  0
LWPOLYLINE
  5
246
330
17
100
AcDbEntity
  8
ROADS
100
AcDbPolyline
 90
2
 70
0
 10
635881.3444669526
 20
4837475.034214239
 10
635906.5445873311
 20
4837502.19130623
  0
LWPOLYLINE
  5
247
330
17
100
AcDbEntity
  8
ROADS
100
AcDbPolyline
 90
2
 70
0
 10
635840.896737914
 20
4837456.961195457
 10
635901.1290629636
 20
4837520.885017829
  0
LWPOLYLINE
  5
248
330
17
100
AcDbEntity
  8
ROADS
100
AcDbPolyline
 90
2
 70
0
 10
635906.5445873311
 20
4837502.19130623
 10
635901.1290629636
 20
4837520.885017829
  0
LWPOLYLINE
  5
249
330
17
100
AcDbEntity
  8
ROADS
100
AcDbPolyline
 90
2
 70
0
 10
635820.6992596716
 20
4837493.000116236
 10
635887.0193181476
 20
4837563.437602224
  0
LWPOLYLINE
  5
24A
330
17
100
AcDbEntity
  8
ROADS
100
AcDbPolyline
 90
2
 70
0
 10
635901.1290629636
 20
4837520.885017829
 10
635887.0193181476
 20
4837563.437602224
  0
LWPOLYLINE
  5
24B
330
17
100
AcDbEntity
  8
ROADS
100
AcDbPolyline
 90
3
 70
0
 10
635750.8998136653
 20
4837538.5848860545
 10
635730.2334712229
 20
4837579.037699279
 10
635732.8378876334
 20
4837630.23327171
  0
LWPOLYLINE
  5
24C
330
17
100
AcDbEntity
  8
ROADS
100
AcDbPolyline
 90
2
 70
0
 10
635887.0193181476
 20
4837563.437602224
 10
635942.7517876644
 20
4837623.874770911
  0
LWPOLYLINE
  5
24D
330
17
100
AcDbEntity
  8
ROADS
100
AcDbPolyline
 90
5
 70
0
 10
635557.8323349082
 20
4837564.5557833165
 10
635649.1322611206
 20
4837602.122764823
 10
635667.9223811708
 20
4837630.224345932
 10
635714.3626752897
 20
4837640.994107989
 10
635732.8378876334
 20
4837630.23327171
  0
LWPOLYLINE
  5
24E
330
17
100
AcDbEntity
  8
ROADS
100
AcDbPolyline
 90
2
 70
0
 10
634998.9144893823
 20
4836564.55527347
 10
635075.8278610108
 20
4836602.45116157
  0
LWPOLYLINE
  5
24F
330
17
100
AcDbEntity
  8
ROADS
100
AcDbPolyline
 90
2
 70
0
 10
634786.5922725485
 20
4836586.136151109
 10
634804.7686889089
 20
4836638.463222599
  0
LWPOLYLINE
  5
250
330
17
100
AcDbEntity
  8
ROADS
100
AcDbPolyline
 90
2
 70
0
 10
634817.7644278365
 20
4836599.32588582
 10
634804.7686889089
 20
4836638.463222599
  0
LWPOLYLINE
  5
251
330
17
100
AcDbEntity
  8
ROADS
100
AcDbPolyline
 90
2
 70
0
 10
634817.7644278365
 20
4836599.32588582
 10
635050.9105625337
 20
4836679.005167858
  0
LWPOLYLINE
  5
252
330
17
100
AcDbEntity
  8
ROADS
100
AcDbPolyline
 90
2
 70
0
 10
635075.8278610108
 20
4836602.45116157
 10
635050.9105625337
 20
4836679.005167858
  0
LWPOLYLINE
  5
253
330
17
100
AcDbEntity
  8
ROADS
100
AcDbPolyline
 90
2
 70
0
 10
634804.7686889089
 20
4836638.463222599
 10
634789.3305162531
 20
4836680.820666807
  0
LWPOLYLINE
  5
254
330
17
100
AcDbEntity
  8
ROADS
100
AcDbPolyline
 90
2
 70
0
 10
634789.3305162531
 20
4836680.820666807
 10
634878.0818695604
 20
4836710.307890733
  0
LWPOLYLINE
  5
255
330
17
100
AcDbEntity
  8
ROADS
100
AcDbPolyline
 90
2
 70
0
 10
634789.3305162531
 20
4836680.820666807
 10
634775.9473132117
 20
4836725.843822214
  0
LWPOLYLINE
  5
256
330
17
100
AcDbEntity
  8
ROADS
100
AcDbPolyline
 90
2
 70
0
 10
635050.9105625337
 20
4836679.005167858
 10
635027.6009769934
 20
4836759.895602369
  0
LWPOLYLINE
  5
257
330
17
100
AcDbEntity
  8
ROADS
100
AcDbPolyline
 90
2
 70
0
 10
634878.0818695604
 20
4836710.307890733
 10
634956.6966673427
 20
4836736.571573855
  0
LWPOLYLINE
  5
258
330
17
100
AcDbEntity
  8
ROADS
100
AcDbPolyline
 90
2
 70
0
 10
634150.6434458109
 20
4836574.447693882
 10
634112.6610409777
 20
4836690.606528528
  0
LWPOLYLINE
  5
259
330
17
100
AcDbEntity
  8
ROADS
100
AcDbPolyline
 90
2
 70
0
 10
634202.7818221735
 20
4836591.478808896
 10
634163.2360568929
 20
4836707.76040251
  0
LWPOLYLINE
  5
25A
330
17
100
AcDbEntity
  8
ROADS
100
AcDbPolyline
 90
3
 70
0
 10
634202.7818221735
 20
4836591.478808896
 10
634253.118681035
 20
4836607.922307241
 10
634212.8260574534
 20
4836724.081402225
  0
LWPOLYLINE
  5
25B
330
17
100
AcDbEntity
  8
ROADS
100
AcDbPolyline
 90
3
 70
0
 10
634350.6514293823
 20
4836653.293565786
 10
634301.9017064561
 20
4836636.959762204
 10
634265.1600845805
 20
4836741.9071471505
  0
LWPOLYLINE
  5
25C
330
17
100
AcDbEntity
  8
ROADS
100
AcDbPolyline
 90
2
 70
0
 10
634112.6610409777
 20
4836690.606528528
 10
634163.2360568929
 20
4836707.76040251
  0
LWPOLYLINE
  5
25D
330
17
100
AcDbEntity
  8
ROADS
100
AcDbPolyline
 90
2
 70
0
 10
634023.904556101
 20
4836696.257172082
 10
634062.5881589128
 20
4836709.175682115
  0
LWPOLYLINE
  5
25E
330
17
100
AcDbEntity
  8
ROADS
100
AcDbPolyline
 90
2
 70
0
 10
634023.904556101
 20
4836696.257172082
 10
634018.4334300911
 20
4836711.282483637
  0
LWPOLYLINE
  5
25F
330
17
100
AcDbEntity
  8
ROADS
100
AcDbPolyline
 90
2
 70
0
 10
634350.6514293823
 20
4836653.293565786
 10
634316.0391959678
 20
4836756.624832204
  0
LWPOLYLINE
  5
260
330
17
100
AcDbEntity
  8
ROADS
100
AcDbPolyline
 90
2
 70
0
 10
634112.6610409777
 20
4836690.606528528
 10
634102.3711261278
 20
4836721.858053488
  0
LWPOLYLINE
  5
261
330
17
100
AcDbEntity
  8
ROADS
100
AcDbPolyline
 90
2
 70
0
 10
634062.5881589128
 20
4836709.175682115
 10
634102.3711261278
 20
4836721.858053488
  0
LWPOLYLINE
  5
262
330
17
100
AcDbEntity
  8
ROADS
100
AcDbPolyline
 90
2
 70
0
 10
634403.3619209428
 20
4836733.260796644
 10
634429.7162614117
 20
4836647.030617872
  0
LWPOLYLINE
  5
263
330
17
100
AcDbEntity
  8
ROADS
100
AcDbPolyline
 90
2
 70
0
 10
634569.5110577167
 20
4836660.57538723
 10
634549.8720613847
 20
4836719.938270596
  0
LWPOLYLINE
  5
264
330
17
100
AcDbEntity
  8
ROADS
100
AcDbPolyline
 90
2
 70
0
 10
634775.9473132117
 20
4836725.843822214
 10
634569.5110577167
 20
4836660.57538723
  0
LWPOLYLINE
  5
265
330
17
100
AcDbEntity
  8
ROADS
100
AcDbPolyline
 90
3
 70
0
 10
634525.2065834843
 20
4836643.472382621
 10
634489.1517895303
 20
4836759.215659031
 10
634441.6752026046
 20
4836747.193213652
  0
LWPOLYLINE
  5
266
330
17
100
AcDbEntity
  8
ROADS
100
AcDbPolyline
 90
2
 70
0
 10
634403.3619209428
 20
4836733.260796644
 10
634384.9938774079
 20
4836727.426692519
  0
LWPOLYLINE
  5
267
330
17
100
AcDbEntity
  8
ROADS
100
AcDbPolyline
 90
2
 70
0
 10
634441.6752026046
 20
4836747.193213652
 10
634403.3619209428
 20
4836733.260796644
  0
LWPOLYLINE
  5
268
330
17
100
AcDbEntity
  8
ROADS
100
AcDbPolyline
 90
2
 70
0
 10
634549.8720613847
 20
4836719.938270596
 10
634699.3585617768
 20
4836765.901045296
  0
LWPOLYLINE
  5
269
330
17
100
AcDbEntity
  8
ROADS
100
AcDbPolyline
 90
2
 70
0
 10
634549.8720613847
 20
4836719.938270596
 10
634522.4052441209
 20
4836809.451134682
  0
LWPOLYLINE
  5
26A
330
17
100
AcDbEntity
  8
ROADS
100
AcDbPolyline
 90
2
 70
0
 10
634441.6752026046
 20
4836747.193213652
 10
634427.445898492
 20
4836792.660724796
  0
LWPOLYLINE
  5
26B
330
17
100
AcDbEntity
  8
ROADS
100
AcDbPolyline
 90
2
 70
0
 10
634316.0391959678
 20
4836756.624832204
 10
634427.445898492
 20
4836792.660724796
  0
LWPOLYLINE
  5
26C
330
17
100
AcDbEntity
  8
ROADS
100
AcDbPolyline
 90
2
 70
0
 10
634878.0818695604
 20
4836710.307890733
 10
634863.4439039568
 20
4836755.754071744
  0
LWPOLYLINE
  5
26D
330
17
100
AcDbEntity
  8
ROADS
100
AcDbPolyline
 90
2
 70
0
 10
634775.9473132117
 20
4836725.843822214
 10
634863.4439039568
 20
4836755.754071744
  0
LWPOLYLINE
  5
26E
330
17
100
AcDbEntity
  8
ROADS
100
AcDbPolyline
 90
2
 70
0
 10
634956.6966673427
 20
4836736.571573855
 10
635027.6009769934
 20
4836759.895602369
  0
LWPOLYLINE
  5
26F
330
17
100
AcDbEntity
  8
ROADS
100
AcDbPolyline
 90
2
 70
0
 10
634775.9473132117
 20
4836725.843822214
 10
634757.8347697442
 20
4836784.357934013
  0
LWPOLYLINE
  5
270
330
17
100
AcDbEntity
  8
ROADS
100
AcDbPolyline
 90
2
 70
0
 10
634956.6966673427
 20
4836736.571573855
 10
634941.6107091869
 20
4836782.3466920955
  0
LWPOLYLINE
  5
271
330
17
100
AcDbEntity
  8
ROADS
100
AcDbPolyline
 90
2
 70
0
 10
635027.6009769934
 20
4836759.895602369
 10
635037.5116026474
 20
4836763.226083791
  0
LWPOLYLINE
  5
272
330
17
100
AcDbEntity
  8
ROADS
100
AcDbPolyline
 90
2
 70
0
 10
635128.0967942699
 20
4836742.793237166
 10
635113.4891226285
 20
4836789.052068068
  0
LWPOLYLINE
  5
273
330
17
100
AcDbEntity
  8
ROADS
100
AcDbPolyline
 90
2
 70
0
 10
634863.4439039568
 20
4836755.754071744
 10
634941.6107091869
 20
4836782.3466920955
  0
LWPOLYLINE
  5
274
330
17
100
AcDbEntity
  8
ROADS
100
AcDbPolyline
 90
2
 70
0
 10
635037.5116026474
 20
4836763.226083791
 10
635113.4891226285
 20
4836789.052068068
  0
LWPOLYLINE
  5
275
330
17
100
AcDbEntity
  8
ROADS
100
AcDbPolyline
 90
2
 70
0
 10
635037.5116026474
 20
4836763.226083791
 10
635021.7388953986
 20
4836808.817778867
  0
LWPOLYLINE
  5
276
330
17
100
AcDbEntity
  8
ROADS
100
AcDbPolyline
 90
2
 70
0
 10
634163.2360568929
 20
4836707.76040251
 10
634212.8260574534
 20
4836724.081402225
  0
LWPOLYLINE
  5
277
330
17
100
AcDbEntity
  8
ROADS
100
AcDbPolyline
 90
2
 70
0
 10
634102.3711261278
 20
4836721.858053488
 10
634097.6257368512
 20
4836736.237437158
  0
LWPOLYLINE
  5
278
330
17
100
AcDbEntity
  8
ROADS
100
AcDbPolyline
 90
2
 70
0
 10
634212.8260574534
 20
4836724.081402225
 10
634265.1600845805
 20
4836741.9071471505
  0
LWPOLYLINE
  5
279
330
17
100
AcDbEntity
  8
ROADS
100
AcDbPolyline
 90
2
 70
0
 10
634212.8260574534
 20
4836724.081402225
 10
634196.5365300948
 20
4836771.045755394
  0
LWPOLYLINE
  5
27A
330
17
100
AcDbEntity
  8
ROADS
100
AcDbPolyline
 90
2
 70
0
 10
634265.1600845805
 20
4836741.9071471505
 10
634316.0391959678
 20
4836756.624832204
  0
LWPOLYLINE
  5
27B
330
17
100
AcDbEntity
  8
ROADS
100
AcDbPolyline
 90
2
 70
0
 10
634097.6257368512
 20
4836736.237437158
 10
634196.5365300948
 20
4836771.045755394
  0
LWPOLYLINE
  5
27C
330
17
100
AcDbEntity
  8
ROADS
100
AcDbPolyline
 90
2
 70
0
 10
634097.6257368512
 20
4836736.237437158
 10
634080.9166891864
 20
4836786.049422841
  0
LWPOLYLINE
  5
27D
330
17
100
AcDbEntity
  8
ROADS
100
AcDbPolyline
 90
2
 70
0
 10
634316.0391959678
 20
4836756.624832204
 10
634298.8370189955
 20
4836803.399180513
  0
LWPOLYLINE
  5
27E
330
17
100
AcDbEntity
  8
ROADS
100
AcDbPolyline
 90
2
 70
0
 10
634196.5365300948
 20
4836771.045755394
 10
634298.8370189955
 20
4836803.399180513
  0
LWPOLYLINE
  5
27F
330
17
100
AcDbEntity
  8
ROADS
100
AcDbPolyline
 90
2
 70
0
 10
634298.8370189955
 20
4836803.399180513
 10
634289.7636177607
 20
4836836.2308473615
  0
LWPOLYLINE
  5
280
330
17
100
AcDbEntity
  8
ROADS
100
AcDbPolyline
 90
2
 70
0
 10
634699.3585617768
 20
4836765.901045296
 10
634757.8347697442
 20
4836784.357934013
  0
LWPOLYLINE
  5
281
330
17
100
AcDbEntity
  8
ROADS
100
AcDbPolyline
 90
3
 70
0
 10
634699.3585617768
 20
4836765.901045296
 10
634690.1689018214
 20
4836812.461807201
 10
634569.1924725536
 20
4836782.555861448
  0
LWPOLYLINE
  5
282
330
17
100
AcDbEntity
  8
ROADS
100
AcDbPolyline
 90
2
 70
0
 10
634427.445898492
 20
4836792.660724796
 10
634470.1895726214
 20
4836808.029877837
  0
LWPOLYLINE
  5
283
330
17
100
AcDbEntity
  8
ROADS
100
AcDbPolyline
 90
2
 70
0
 10
634427.445898492
 20
4836792.660724796
 10
634415.3056929975
 20
4836836.6388821285
  0
LWPOLYLINE
  5
284
330
17
100
AcDbEntity
  8
ROADS
100
AcDbPolyline
 90
2
 70
0
 10
634757.8347697442
 20
4836784.357934013
 10
634725.9432446277
 20
4836877.648161296
  0
LWPOLYLINE
  5
285
330
17
100
AcDbEntity
  8
ROADS
100
AcDbPolyline
 90
2
 70
0
 10
634415.3056929975
 20
4836836.6388821285
 10
634398.3152879416
 20
4836830.831184198
  0
LWPOLYLINE
  5
286
330
17
100
AcDbEntity
  8
ROADS
100
AcDbPolyline
 90
2
 70
0
 10
634522.4052441209
 20
4836809.451134682
 10
634725.9432446277
 20
4836877.648161296
  0
LWPOLYLINE
  5
287
330
17
100
AcDbEntity
  8
ROADS
100
AcDbPolyline
 90
2
 70
0
 10
634415.3056929975
 20
4836836.6388821285
 10
634459.8778679003
 20
4836852.2651240295
  0
LWPOLYLINE
  5
288
330
17
100
AcDbEntity
  8
ROADS
100
AcDbPolyline
 90
2
 70
0
 10
634522.4052441209
 20
4836809.451134682
 10
634493.0871055457
 20
4836895.930255424
  0
LWPOLYLINE
  5
289
330
17
100
AcDbEntity
  8
ROADS
100
AcDbPolyline
 90
2
 70
0
 10
634289.7636177607
 20
4836836.2308473615
 10
634493.0871055457
 20
4836895.930255424
  0
LWPOLYLINE
  5
28A
330
17
100
AcDbEntity
  8
ROADS
100
AcDbPolyline
 90
2
 70
0
 10
635199.7478184745
 20
4836817.683203396
 10
635183.6919963021
 20
4836862.670747184
  0
LWPOLYLINE
  5
28B
330
17
100
AcDbEntity
  8
ROADS
100
AcDbPolyline
 90
2
 70
0
 10
635347.4074549332
 20
4836822.553530227
 10
635333.8981691902
 20
4836862.545708698
  0
LWPOLYLINE
  5
28C
330
17
100
AcDbEntity
  8
ROADS
100
AcDbPolyline
 90
2
 70
0
 10
635415.3511208919
 20
4836845.129004998
 10
635454.8774963808
 20
4836858.4598575765
  0
LWPOLYLINE
  5
28D
330
17
100
AcDbEntity
  8
ROADS
100
AcDbPolyline
 90
2
 70
0
 10
635285.2909812432
 20
4836846.507431749
 10
635333.8981691902
 20
4836862.545708698
  0
LWPOLYLINE
  5
28E
330
17
100
AcDbEntity
  8
ROADS
100
AcDbPolyline
 90
2
 70
0
 10
635415.3511208919
 20
4836845.129004998
 10
635402.2324807412
 20
4836885.308270426
  0
LWPOLYLINE
  5
28F
330
17
100
AcDbEntity
  8
ROADS
100
AcDbPolyline
 90
2
 70
0
 10
635285.2909812432
 20
4836846.507431749
 10
635271.9533119625
 20
4836887.185263938
  0
LWPOLYLINE
  5
290
330
17
100
AcDbEntity
  8
ROADS
100
AcDbPolyline
 90
2
 70
0
 10
635333.8981691902
 20
4836862.545708698
 10
635402.2324807412
 20
4836885.308270426
  0
LWPOLYLINE
  5
291
330
17
100
AcDbEntity
  8
ROADS
100
AcDbPolyline
 90
2
 70
0
 10
635183.6919963021
 20
4836862.670747184
 10
635271.9533119625
 20
4836887.185263938
  0
LWPOLYLINE
  5
292
330
17
100
AcDbEntity
  8
ROADS
100
AcDbPolyline
 90
2
 70
0
 10
635333.8981691902
 20
4836862.545708698
 10
635322.0849521597
 20
4836899.3342759
  0
LWPOLYLINE
  5
293
330
17
100
AcDbEntity
  8
ROADS
100
AcDbPolyline
 90
2
 70
0
 10
635271.9533119625
 20
4836887.185263938
 10
635322.0849521597
 20
4836899.3342759
  0
LWPOLYLINE
  5
294
330
17
100
AcDbEntity
  8
ROADS
100
AcDbPolyline
 90
2
 70
0
 10
634080.9166891864
 20
4836786.049422841
 10
634055.2724816153
 20
4836860.8268982945
  0
LWPOLYLINE
  5
295
330
17
100
AcDbEntity
  8
ROADS
100
AcDbPolyline
 90
2
 70
0
 10
634289.7636177607
 20
4836836.2308473615
 10
634283.368952461
 20
4836854.654751882
  0
LWPOLYLINE
  5
296
330
17
100
AcDbEntity
  8
ROADS
100
AcDbPolyline
 90
2
 70
0
 10
633967.1652951713
 20
4836832.120414811
 10
634055.2724816153
 20
4836860.8268982945
  0
LWPOLYLINE
  5
297
330
17
100
AcDbEntity
  8
ROADS
100
AcDbPolyline
 90
2
 70
0
 10
634283.368952461
 20
4836854.654751882
 10
634260.4035454747
 20
4836846.77384534
  0
LWPOLYLINE
  5
298
330
17
100
AcDbEntity
  8
ROADS
100
AcDbPolyline
 90
2
 70
0
 10
634055.2724816153
 20
4836860.8268982945
 10
634047.2124849985
 20
4836887.004315926
  0
LWPOLYLINE
  5
299
330
17
100
AcDbEntity
  8
ROADS
100
AcDbPolyline
 90
2
 70
0
 10
634047.2124849985
 20
4836887.004315926
 10
634094.5312701114
 20
4836901.445114072
  0
LWPOLYLINE
  5
29A
330
17
100
AcDbEntity
  8
ROADS
100
AcDbPolyline
 90
3
 70
0
 10
634283.368952461
 20
4836854.654751882
 10
634273.4971647374
 20
4836884.572737761
 10
634428.9609431855
 20
4836938.282277392
  0
LWPOLYLINE
  5
29B
330
17
100
AcDbEntity
  8
ROADS
100
AcDbPolyline
 90
3
 70
0
 10
634094.5312701114
 20
4836901.445114072
 10
634108.9713632518
 20
4836930.374604863
 10
634159.2731585002
 20
4836946.21146569
  0
LWPOLYLINE
  5
29C
330
17
100
AcDbEntity
  8
ROADS
100
AcDbPolyline
 90
2
 70
0
 10
634159.2731585002
 20
4836946.21146569
 10
634268.7170529184
 20
4836985.486682837
  0
LWPOLYLINE
  5
29D
330
17
100
AcDbEntity
  8
ROADS
100
AcDbPolyline
 90
2
 70
0
 10
634047.2124849985
 20
4836887.004315926
 10
633994.2253594243
 20
4837045.98928469
  0
LWPOLYLINE
  5
29E
330
17
100
AcDbEntity
  8
ROADS
100
AcDbPolyline
 90
2
 70
0
 10
634941.6107091869
 20
4836782.3466920955
 10
634981.9056756658
 20
4836795.811427975
  0
LWPOLYLINE
  5
29F
330
17
100
AcDbEntity
  8
ROADS
100
AcDbPolyline
 90
2
 70
0
 10
634981.9056756658
 20
4836795.811427975
 10
635021.7388953986
 20
4836808.817778867
  0
LWPOLYLINE
  5
2A0
330
17
100
AcDbEntity
  8
ROADS
100
AcDbPolyline
 90
2
 70
0
 10
635113.4891226285
 20
4836789.052068068
 10
635199.7478184745
 20
4836817.683203396
  0
LWPOLYLINE
  5
2A1
330
17
100
AcDbEntity
  8
ROADS
100
AcDbPolyline
 90
2
 70
0
 10
635113.4891226285
 20
4836789.052068068
 10
635099.3737566929
 20
4836834.521729224
  0
LWPOLYLINE
  5
2A2
330
17
100
AcDbEntity
  8
ROADS
100
AcDbPolyline
 90
2
 70
0
 10
635021.7388953986
 20
4836808.817778867
 10
635099.3737566929
 20
4836834.521729224
  0
LWPOLYLINE
  5
2A3
330
17
100
AcDbEntity
  8
ROADS
100
AcDbPolyline
 90
2
 70
0
 10
634981.9056756658
 20
4836795.811427975
 10
634958.472610482
 20
4836869.924028855
  0
LWPOLYLINE
  5
2A4
330
17
100
AcDbEntity
  8
ROADS
100
AcDbPolyline
 90
2
 70
0
 10
635099.3737566929
 20
4836834.521729224
 10
635183.6919963021
 20
4836862.670747184
  0
LWPOLYLINE
  5
2A5
330
17
100
AcDbEntity
  8
ROADS
100
AcDbPolyline
 90
2
 70
0
 10
634863.4439039568
 20
4836755.754071744
 10
634766.1241595633
 20
4837057.632909322
  0
LWPOLYLINE
  5
2A6
330
17
100
AcDbEntity
  8
ROADS
100
AcDbPolyline
 90
2
 70
0
 10
634941.6107091869
 20
4836782.3466920955
 10
634844.7840125726
 20
4837083.448442508
  0
LWPOLYLINE
  5
2A7
330
17
100
AcDbEntity
  8
ROADS
100
AcDbPolyline
 90
2
 70
0
 10
635099.3737566929
 20
4836834.521729224
 10
635034.8514851908
 20
4837035.981250554
  0
LWPOLYLINE
  5
2A8
330
17
100
AcDbEntity
  8
ROADS
100
AcDbPolyline
 90
2
 70
0
 10
634493.0871055457
 20
4836895.930255424
 10
634517.4365124813
 20
4836904.150224128
  0
LWPOLYLINE
  5
2A9
330
17
100
AcDbEntity
  8
ROADS
100
AcDbPolyline
 90
2
 70
0
 10
634725.9432446277
 20
4836877.648161296
 10
634698.6346066052
 20
4836963.664625721
  0
LWPOLYLINE
  5
2AA
330
17
100
AcDbEntity
  8
ROADS
100
AcDbPolyline
 90
2
 70
0
 10
634517.4365124813
 20
4836904.150224128
 10
634698.6346066052
 20
4836963.664625721
  0
LWPOLYLINE
  5
2AB
330
17
100
AcDbEntity
  8
ROADS
100
AcDbPolyline
 90
3
 70
0
 10
634517.4365124813
 20
4836904.150224128
 10
634504.5076558403
 20
4836950.261307728
 10
634684.4536042374
 20
4837008.754004637
  0
LWPOLYLINE
  5
2AC
330
17
100
AcDbEntity
  8
ROADS
100
AcDbPolyline
 90
2
 70
0
 10
634698.6346066052
 20
4836963.664625721
 10
634684.4536042374
 20
4837008.754004637
  0
LWPOLYLINE
  5
2AD
330
17
100
AcDbEntity
  8
ROADS
100
AcDbPolyline
 90
2
 70
0
 10
634723.1616187189
 20
4837042.972813666
 10
634758.4176359304
 20
4836933.193045581
  0
LWPOLYLINE
  5
2AE
330
17
100
AcDbEntity
  8
ROADS
100
AcDbPolyline
 90
2
 70
0
 10
634684.4536042374
 20
4837008.754004637
 10
634678.0590375558
 20
4837029.190099069
  0
LWPOLYLINE
  5
2AF
330
17
100
AcDbEntity
  8
ROADS
100
AcDbPolyline
 90
2
 70
0
 10
634347.2347033455
 20
4837022.975563263
 10
634387.7288246446
 20
4837042.677426659
  0
LWPOLYLINE
  5
2B0
330
17
100
AcDbEntity
  8
ROADS
100
AcDbPolyline
 90
2
 70
0
 10
634678.0590375558
 20
4837029.190099069
 10
634706.1036822824
 20
4837038.188965406
  0
LWPOLYLINE
  5
2B1
330
17
100
AcDbEntity
  8
ROADS
100
AcDbPolyline
 90
2
 70
0
 10
634706.1036822824
 20
4837038.188965406
 10
634723.1616187189
 20
4837042.972813666
  0
LWPOLYLINE
  5
2B2
330
17
100
AcDbEntity
  8
ROADS
100
AcDbPolyline
 90
2
 70
0
 10
633942.70335927
 20
4836825.0083841095
 10
633967.1652951713
 20
4836832.120414811
  0
LWPOLYLINE
  5
2B3
330
17
100
AcDbEntity
  8
ROADS
100
AcDbPolyline
 90
2
 70
0
 10
633967.1652951713
 20
4836832.120414811
 10
633947.5004135951
 20
4836890.920422764
  0
LWPOLYLINE
  5
2B4
330
17
100
AcDbEntity
  8
ROADS
100
AcDbPolyline
 90
2
 70
0
 10
634094.5312701114
 20
4836901.445114072
 10
634041.2051737942
 20
4837059.65190972
  0
LWPOLYLINE
  5
2B5
330
17
100
AcDbEntity
  8
ROADS
100
AcDbPolyline
 90
2
 70
0
 10
634159.2731585002
 20
4836946.21146569
 10
634137.3610092491
 20
4837033.775487264
  0
LWPOLYLINE
  5
2B6
330
17
100
AcDbEntity
  8
ROADS
100
AcDbPolyline
 90
2
 70
0
 10
634268.7170529184
 20
4836985.486682837
 10
634347.2347033455
 20
4837022.975563263
  0
LWPOLYLINE
  5
2B7
330
17
100
AcDbEntity
  8
ROADS
100
AcDbPolyline
 90
2
 70
0
 10
634268.7170529184
 20
4836985.486682837
 10
634226.1450997102
 20
4837113.5915146535
  0
LWPOLYLINE
  5
2B8
330
17
100
AcDbEntity
  8
ROADS
100
AcDbPolyline
 90
2
 70
0
 10
633994.2253594243
 20
4837045.98928469
 10
634041.2051737942
 20
4837059.65190972
  0
LWPOLYLINE
  5
2B9
330
17
100
AcDbEntity
  8
ROADS
100
AcDbPolyline
 90
2
 70
0
 10
634041.2051737942
 20
4837059.65190972
 10
634226.1450997102
 20
4837113.5915146535
  0
LWPOLYLINE
  5
2BA
330
17
100
AcDbEntity
  8
ROADS
100
AcDbPolyline
 90
2
 70
0
 10
633994.2253594243
 20
4837045.98928469
 10
633984.6562970923
 20
4837074.781073954
  0
LWPOLYLINE
  5
2BB
330
17
100
AcDbEntity
  8
ROADS
100
AcDbPolyline
 90
5
 70
0
 10
634041.2051737942
 20
4837059.65190972
 10
634027.1225466027
 20
4837104.859984795
 10
634172.3854240347
 20
4837146.785155824
 10
634170.6427293122
 20
4837158.539616053
 10
634207.4607089116
 20
4837171.373442617
  0
LWPOLYLINE
  5
2BC
330
17
100
AcDbEntity
  8
ROADS
100
AcDbPolyline
 90
2
 70
0
 10
634347.2347033455
 20
4837022.975563263
 10
634273.312181455
 20
4837228.6099614035
  0
LWPOLYLINE
  5
2BD
330
17
100
AcDbEntity
  8
ROADS
100
AcDbPolyline
 90
2
 70
0
 10
634226.1450997102
 20
4837113.5915146535
 10
634207.4607089116
 20
4837171.373442617
  0
LWPOLYLINE
  5
2BE
330
17
100
AcDbEntity
  8
ROADS
100
AcDbPolyline
 90
2
 70
0
 10
635021.7388953986
 20
4836808.817778867
 10
634924.8509819394
 20
4837110.26051622
  0
LWPOLYLINE
  5
2BF
330
17
100
AcDbEntity
  8
ROADS
100
AcDbPolyline
 90
2
 70
0
 10
635183.6919963021
 20
4836862.670747184
 10
635113.951541989
 20
4837062.45481444
  0
LWPOLYLINE
  5
2C0
330
17
100
AcDbEntity
  8
ROADS
100
AcDbPolyline
 90
2
 70
0
 10
635075.4675270049
 20
4837049.332816633
 10
635086.1521315749
 20
4837015.283107957
  0
LWPOLYLINE
  5
2C1
330
17
100
AcDbEntity
  8
ROADS
100
AcDbPolyline
 90
2
 70
0
 10
635034.8514851908
 20
4837035.981250554
 10
635075.4675270049
 20
4837049.332816633
  0
LWPOLYLINE
  5
2C2
330
17
100
AcDbEntity
  8
ROADS
100
AcDbPolyline
 90
2
 70
0
 10
634886.930065371
 20
4837097.634744205
 10
634921.2981256207
 20
4836990.173068709
  0
LWPOLYLINE
  5
2C3
330
17
100
AcDbEntity
  8
ROADS
100
AcDbPolyline
 90
2
 70
0
 10
635075.4675270049
 20
4837049.332816633
 10
635113.951541989
 20
4837062.45481444
  0
LWPOLYLINE
  5
2C4
330
17
100
AcDbEntity
  8
ROADS
100
AcDbPolyline
 90
2
 70
0
 10
634766.1241595633
 20
4837057.632909322
 10
634844.7840125726
 20
4837083.448442508
  0
LWPOLYLINE
  5
2C5
330
17
100
AcDbEntity
  8
ROADS
100
AcDbPolyline
 90
2
 70
0
 10
635113.951541989
 20
4837062.45481444
 10
635205.6637052456
 20
4837091.80369323
  0
LWPOLYLINE
  5
2C6
330
17
100
AcDbEntity
  8
ROADS
100
AcDbPolyline
 90
2
 70
0
 10
634844.7840125726
 20
4837083.448442508
 10
634856.3409880528
 20
4837087.485761534
  0
LWPOLYLINE
  5
2C7
330
17
100
AcDbEntity
  8
ROADS
100
AcDbPolyline
 90
2
 70
0
 10
635034.8514851908
 20
4837035.981250554
 10
635002.5469671526
 20
4837136.17665286
  0
LWPOLYLINE
  5
2C8
330
17
100
AcDbEntity
  8
ROADS
100
AcDbPolyline
 90
2
 70
0
 10
635402.2324807412
 20
4836885.308270426
 10
635486.8333003963
 20
4836916.914734461
  0
LWPOLYLINE
  5
2C9
330
17
100
AcDbEntity
  8
ROADS
100
AcDbPolyline
 90
2
 70
0
 10
635402.2324807412
 20
4836885.308270426
 10
635389.5856631077
 20
4836925.444060435
  0
LWPOLYLINE
  5
2CA
330
17
100
AcDbEntity
  8
ROADS
100
AcDbPolyline
 90
2
 70
0
 10
635532.6209240025
 20
4836931.478920011
 10
635547.1322355451
 20
4836882.9740996575
  0
LWPOLYLINE
  5
2CB
330
17
100
AcDbEntity
  8
ROADS
100
AcDbPolyline
 90
2
 70
0
 10
635389.5856631077
 20
4836925.444060435
 10
635348.0701729301
 20
4836911.668197307
  0
LWPOLYLINE
  5
2CC
330
17
100
AcDbEntity
  8
ROADS
100
AcDbPolyline
 90
2
 70
0
 10
635486.8333003963
 20
4836916.914734461
 10
635532.6209240025
 20
4836931.478920011
  0
LWPOLYLINE
  5
2CD
330
17
100
AcDbEntity
  8
ROADS
100
AcDbPolyline
 90
2
 70
0
 10
635389.5856631077
 20
4836925.444060435
 10
635429.1907332042
 20
4836938.515322028
  0
LWPOLYLINE
  5
2CE
330
17
100
AcDbEntity
  8
ROADS
100
AcDbPolyline
 90
2
 70
0
 10
635532.6209240025
 20
4836931.478920011
 10
635600.1932392707
 20
4836952.967619514
  0
LWPOLYLINE
  5
2CF
330
17
100
AcDbEntity
  8
ROADS
100
AcDbPolyline
 90
2
 70
0
 10
635271.9533119625
 20
4836887.185263938
 10
635205.6637052456
 20
4837091.80369323
  0
LWPOLYLINE
  5
2D0
330
17
100
AcDbEntity
  8
ROADS
100
AcDbPolyline
 90
2
 70
0
 10
635322.0849521597
 20
4836899.3342759
 10
635255.1206188453
 20
4837109.242487648
  0
LWPOLYLINE
  5
2D1
330
17
100
AcDbEntity
  8
ROADS
100
AcDbPolyline
 90
2
 70
0
 10
635600.1932392707
 20
4836952.967619514
 10
635550.4812379652
 20
4837093.696953468
  0
LWPOLYLINE
  5
2D2
330
17
100
AcDbEntity
  8
ROADS
100
AcDbPolyline
 90
2
 70
0
 10
635389.5856631077
 20
4836925.444060435
 10
635322.9440679721
 20
4837131.550817937
  0
LWPOLYLINE
  5
2D3
330
17
100
AcDbEntity
  8
ROADS
100
AcDbPolyline
 90
2
 70
0
 10
635486.8333003963
 20
4836916.914734461
 10
635401.4708404595
 20
4837185.083397566
  0
LWPOLYLINE
  5
2D4
330
17
100
AcDbEntity
  8
ROADS
100
AcDbPolyline
 90
3
 70
0
 10
635550.4812379652
 20
4837093.696953468
 10
635512.3200893734
 20
4837080.691784105
 10
635519.0839704291
 20
4837034.608092856
  0
LWPOLYLINE
  5
2D5
330
17
100
AcDbEntity
  8
ROADS
100
AcDbPolyline
 90
2
 70
0
 10
635205.6637052456
 20
4837091.80369323
 10
635255.1206188453
 20
4837109.242487648
  0
LWPOLYLINE
  5
2D6
330
17
100
AcDbEntity
  8
ROADS
100
AcDbPolyline
 90
2
 70
0
 10
635255.1206188453
 20
4837109.242487648
 10
635322.9440679721
 20
4837131.550817937
  0
LWPOLYLINE
  5
2D7
330
17
100
AcDbEntity
  8
ROADS
100
AcDbPolyline
 90
2
 70
0
 10
635550.4812379652
 20
4837093.696953468
 10
635531.1773143887
 20
4837157.308414565
  0
LWPOLYLINE
  5
2D8
330
17
100
AcDbEntity
  8
ROADS
100
AcDbPolyline
 90
3
 70
0
 10
635322.9440679721
 20
4837131.550817937
 10
635361.461088871
 20
4837145.116469529
 10
635401.4708404595
 20
4837185.083397566
  0
LWPOLYLINE
  5
2D9
330
17
100
AcDbEntity
  8
ROADS
100
AcDbPolyline
 90
2
 70
0
 10
635531.1773143887
 20
4837157.308414565
 10
635615.9182248715
 20
4837175.417317477
  0
LWPOLYLINE
  5
2DA
330
17
100
AcDbEntity
  8
ROADS
100
AcDbPolyline
 90
2
 70
0
 10
635205.6637052456
 20
4837091.80369323
 10
635137.4165213916
 20
4837303.1852239
  0
LWPOLYLINE
  5
2DB
330
17
100
AcDbEntity
  8
ROADS
100
AcDbPolyline
 90
2
 70
0
 10
635531.1773143887
 20
4837157.308414565
 10
635502.6239884421
 20
4837239.810252398
  0
LWPOLYLINE
  5
2DC
330
17
100
AcDbEntity
  8
ROADS
100
AcDbPolyline
 90
2
 70
0
 10
634856.3409880528
 20
4837087.485761534
 10
634886.930065371
 20
4837097.634744205
  0
LWPOLYLINE
  5
2DD
330
17
100
AcDbEntity
  8
ROADS
100
AcDbPolyline
 90
2
 70
0
 10
634886.930065371
 20
4837097.634744205
 10
634924.8509819394
 20
4837110.26051622
  0
LWPOLYLINE
  5
2DE
330
17
100
AcDbEntity
  8
ROADS
100
AcDbPolyline
 90
5
 70
0
 10
634706.1036822824
 20
4837038.188965406
 10
634682.069026724
 20
4837115.7028975
 10
634800.0521317958
 20
4837180.840827278
 10
634829.3617738778
 20
4837171.320015302
 10
634856.3409880528
 20
4837087.485761534
  0
LWPOLYLINE
  5
2DF
330
17
100
AcDbEntity
  8
ROADS
100
AcDbPolyline
 90
2
 70
0
 10
635113.951541989
 20
4837062.45481444
 10
635079.3946531826
 20
4837161.221387383
  0
LWPOLYLINE
  5
2E0
330
17
100
AcDbEntity
  8
ROADS
100
AcDbPolyline
 90
2
 70
0
 10
634924.8509819394
 20
4837110.26051622
 10
635002.5469671526
 20
4837136.17665286
  0
LWPOLYLINE
  5
2E1
330
17
100
AcDbEntity
  8
ROADS
100
AcDbPolyline
 90
2
 70
0
 10
635002.5469671526
 20
4837136.17665286
 10
635079.3946531826
 20
4837161.221387383
  0
LWPOLYLINE
  5
2E2
330
17
100
AcDbEntity
  8
ROADS
100
AcDbPolyline
 90
2
 70
0
 10
634924.8509819394
 20
4837110.26051622
 10
634896.326077872
 20
4837203.581640705
  0
LWPOLYLINE
  5
2E3
330
17
100
AcDbEntity
  8
ROADS
100
AcDbPolyline
 90
2
 70
0
 10
635002.5469671526
 20
4837136.17665286
 10
634967.6217440786
 20
4837242.259147838
  0
LWPOLYLINE
  5
2E4
330
17
100
AcDbEntity
  8
ROADS
100
AcDbPolyline
 90
2
 70
0
 10
635079.3946531826
 20
4837161.221387383
 10
635050.3067040911
 20
4837248.291835905
  0
LWPOLYLINE
  5
2E5
330
17
100
AcDbEntity
  8
ROADS
100
AcDbPolyline
 90
2
 70
0
 10
634749.3951286653
 20
4837207.812595118
 10
634779.8131343061
 20
4837225.042591009
  0
LWPOLYLINE
  5
2E6
330
17
100
AcDbEntity
  8
ROADS
100
AcDbPolyline
 90
2
 70
0
 10
634723.1616187189
 20
4837042.972813666
 10
634766.1241595633
 20
4837057.632909322
  0
LWPOLYLINE
  5
2E7
330
17
100
AcDbEntity
  8
ROADS
100
AcDbPolyline
 90
2
 70
0
 10
634678.0590375558
 20
4837029.190099069
 10
634647.2913792196
 20
4837125.752379534
  0
LWPOLYLINE
  5
2E8
330
17
100
AcDbEntity
  8
ROADS
100
AcDbPolyline
 90
2
 70
0
 10
634661.3675545584
 20
4837156.334986113
 10
634688.2024072825
 20
4837172.671604969
  0
LWPOLYLINE
  5
2E9
330
17
100
AcDbEntity
  8
ROADS
100
AcDbPolyline
 90
2
 70
0
 10
634688.2024072825
 20
4837172.671604969
 10
634719.7621763006
 20
4837191.025835539
  0
LWPOLYLINE
  5
2EA
330
17
100
AcDbEntity
  8
ROADS
100
AcDbPolyline
 90
2
 70
0
 10
634719.7621763006
 20
4837191.025835539
 10
634749.3951286653
 20
4837207.812595118
  0
LWPOLYLINE
  5
2EB
330
17
100
AcDbEntity
  8
ROADS
100
AcDbPolyline
 90
2
 70
0
 10
634647.2913792196
 20
4837125.752379534
 10
634595.4140250166
 20
4837284.329131424
  0
LWPOLYLINE
  5
2EC
330
17
100
AcDbEntity
  8
ROADS
100
AcDbPolyline
 90
2
 70
0
 10
634688.2024072825
 20
4837172.671604969
 10
634646.7638076303
 20
4837299.759983779
  0
LWPOLYLINE
  5
2ED
330
17
100
AcDbEntity
  8
ROADS
100
AcDbPolyline
 90
2
 70
0
 10
634719.7621763006
 20
4837191.025835539
 10
634680.4195214937
 20
4837310.218459867
  0
LWPOLYLINE
  5
2EE
330
17
100
AcDbEntity
  8
ROADS
100
AcDbPolyline
 90
2
 70
0
 10
634749.3951286653
 20
4837207.812595118
 10
634713.7550649478
 20
4837320.519135047
  0
LWPOLYLINE
  5
2EF
330
17
100
AcDbEntity
  8
ROADS
100
AcDbPolyline
 90
2
 70
0
 10
634595.4140250166
 20
4837284.329131424
 10
634646.7638076303
 20
4837299.759983779
  0
LWPOLYLINE
  5
2F0
330
17
100
AcDbEntity
  8
ROADS
100
AcDbPolyline
 90
3
 70
0
 10
635401.4708404595
 20
4837185.083397566
 10
635458.889103004
 20
4837229.529515757
 10
635502.6239884421
 20
4837239.810252398
  0
LWPOLYLINE
  5
2F1
330
17
100
AcDbEntity
  8
ROADS
100
AcDbPolyline
 90
2
 70
0
 10
635401.4708404595
 20
4837185.083397566
 10
635383.286546429
 20
4837240.867395454
  0
LWPOLYLINE
  5
2F2
330
17
100
AcDbEntity
  8
ROADS
100
AcDbPolyline
 90
2
 70
0
 10
635502.6239884421
 20
4837239.810252398
 10
635579.9618800792
 20
4837255.893131383
  0
LWPOLYLINE
  5
2F3
330
17
100
AcDbEntity
  8
ROADS
100
AcDbPolyline
 90
2
 70
0
 10
635255.1206188453
 20
4837109.242487648
 10
635162.5301686858
 20
4837394.845707734
  0
LWPOLYLINE
  5
2F4
330
17
100
AcDbEntity
  8
ROADS
100
AcDbPolyline
 90
2
 70
0
 10
635383.286546429
 20
4837240.867395454
 10
635358.4305264291
 20
4837317.120509231
  0
LWPOLYLINE
  5
2F5
330
17
100
AcDbEntity
  8
ROADS
100
AcDbPolyline
 90
2
 70
0
 10
635322.9440679721
 20
4837131.550817937
 10
635225.6138162423
 20
4837432.657710547
  0
LWPOLYLINE
  5
2F6
330
17
100
AcDbEntity
  8
ROADS
100
AcDbPolyline
 90
3
 70
0
 10
635383.286546429
 20
4837240.867395454
 10
635426.8823682767
 20
4837255.851023469
 10
635402.2192450478
 20
4837331.7786061615
  0
LWPOLYLINE
  5
2F7
330
17
100
AcDbEntity
  8
ROADS
100
AcDbPolyline
 90
2
 70
0
 10
635188.3257174516
 20
4837291.028269303
 10
635178.9130693735
 20
4837317.287312842
  0
LWPOLYLINE
  5
2F8
330
17
100
AcDbEntity
  8
ROADS
100
AcDbPolyline
 90
2
 70
0
 10
635358.4305264291
 20
4837317.120509231
 10
635402.2192450478
 20
4837331.7786061615
  0
LWPOLYLINE
  5
2F9
330
17
100
AcDbEntity
  8
ROADS
100
AcDbPolyline
 90
2
 70
0
 10
635178.9130693735
 20
4837317.287312842
 10
635171.6438334252
 20
4837339.883800432
  0
LWPOLYLINE
  5
2FA
330
17
100
AcDbEntity
  8
ROADS
100
AcDbPolyline
 90
2
 70
0
 10
634779.8131343061
 20
4837225.042591009
 10
634809.4205169366
 20
4837244.183593418
  0
LWPOLYLINE
  5
2FB
330
17
100
AcDbEntity
  8
ROADS
100
AcDbPolyline
 90
3
 70
0
 10
635050.3067040911
 20
4837248.291835905
 10
635092.697354222
 20
4837263.05563902
 10
635106.3934482873
 20
4837221.362737298
  0
LWPOLYLINE
  5
2FC
330
17
100
AcDbEntity
  8
ROADS
100
AcDbPolyline
 90
2
 70
0
 10
634809.4205169366
 20
4837244.183593418
 10
634838.6393897114
 20
4837263.074552626
  0
LWPOLYLINE
  5
2FD
330
17
100
AcDbEntity
  8
ROADS
100
AcDbPolyline
 90
2
 70
0
 10
634967.6217440786
 20
4837242.259147838
 10
634957.0831024179
 20
4837276.863524214
  0
LWPOLYLINE
  5
2FE
330
17
100
AcDbEntity
  8
ROADS
100
AcDbPolyline
 90
2
 70
0
 10
634967.6217440786
 20
4837242.259147838
 10
634920.8790447975
 20
4837280.125127882
  0
LWPOLYLINE
  5
2FF
330
17
100
AcDbEntity
  8
ROADS
100
AcDbPolyline
 90
2
 70
0
 10
634838.6393897114
 20
4837263.074552626
 10
634869.1503193364
 20
4837283.904043666
  0
LWPOLYLINE
  5
300
330
17
100
AcDbEntity
  8
ROADS
100
AcDbPolyline
 90
2
 70
0
 10
634779.8131343061
 20
4837225.042591009
 10
634746.1994925844
 20
4837331.098721683
  0
LWPOLYLINE
  5
301
330
17
100
AcDbEntity
  8
ROADS
100
AcDbPolyline
 90
2
 70
0
 10
635050.3067040911
 20
4837248.291835905
 10
635028.1538985488
 20
4837319.072288688
  0
LWPOLYLINE
  5
302
330
17
100
AcDbEntity
  8
ROADS
100
AcDbPolyline
 90
2
 70
0
 10
634809.4205169366
 20
4837244.183593418
 10
634777.7001394904
 20
4837344.62049262
  0
LWPOLYLINE
  5
303
330
17
100
AcDbEntity
  8
ROADS
100
AcDbPolyline
 90
2
 70
0
 10
634920.8790447975
 20
4837280.125127882
 10
634906.6244650672
 20
4837314.48728245
  0
LWPOLYLINE
  5
304
330
17
100
AcDbEntity
  8
ROADS
100
AcDbPolyline
 90
2
 70
0
 10
634838.6393897114
 20
4837263.074552626
 10
634809.8956543399
 20
4837351.019228504
  0
LWPOLYLINE
  5
305
330
17
100
AcDbEntity
  8
ROADS
100
AcDbPolyline
 90
2
 70
0
 10
635137.4165213916
 20
4837303.1852239
 10
635178.9130693735
 20
4837317.287312842
  0
LWPOLYLINE
  5
306
330
17
100
AcDbEntity
  8
ROADS
100
AcDbPolyline
 90
2
 70
0
 10
634869.1503193364
 20
4837283.904043666
 10
634844.7529068639
 20
4837361.841472994
  0
LWPOLYLINE
  5
307
330
17
100
AcDbEntity
  8
ROADS
100
AcDbPolyline
 90
3
 70
0
 10
634869.1503193364
 20
4837283.904043666
 10
634900.0516739921
 20
4837301.283305515
 10
634882.8116124023
 20
4837371.855972082
  0
LWPOLYLINE
  5
308
330
17
100
AcDbEntity
  8
ROADS
100
AcDbPolyline
 90
2
 70
0
 10
634906.6244650672
 20
4837314.48728245
 10
634925.8618318376
 20
4837342.373521696
  0
LWPOLYLINE
  5
309
330
17
100
AcDbEntity
  8
ROADS
100
AcDbPolyline
 90
2
 70
0
 10
635137.4165213916
 20
4837303.1852239
 10
635118.6426358023
 20
4837360.160111906
  0
LWPOLYLINE
  5
30A
330
17
100
AcDbEntity
  8
ROADS
100
AcDbPolyline
 90
2
 70
0
 10
634746.1994925844
 20
4837331.098721683
 10
634777.7001394904
 20
4837344.62049262
  0
LWPOLYLINE
  5
30B
330
17
100
AcDbEntity
  8
ROADS
100
AcDbPolyline
 90
2
 70
0
 10
634906.6244650672
 20
4837314.48728245
 10
634882.8116124023
 20
4837371.855972082
  0
LWPOLYLINE
  5
30C
330
17
100
AcDbEntity
  8
ROADS
100
AcDbPolyline
 90
3
 70
0
 10
634925.8618318376
 20
4837342.373521696
 10
634955.7366205924
 20
4837336.55325442
 10
634991.3746413998
 20
4837356.517399336
  0
LWPOLYLINE
  5
30D
330
17
100
AcDbEntity
  8
ROADS
100
AcDbPolyline
 90
2
 70
0
 10
634777.7001394904
 20
4837344.62049262
 10
634809.8956543399
 20
4837351.019228504
  0
LWPOLYLINE
  5
30E
330
17
100
AcDbEntity
  8
ROADS
100
AcDbPolyline
 90
2
 70
0
 10
634646.7638076303
 20
4837299.759983779
 10
634680.4195214937
 20
4837310.218459867
  0
LWPOLYLINE
  5
30F
330
17
100
AcDbEntity
  8
ROADS
100
AcDbPolyline
 90
2
 70
0
 10
634646.7638076303
 20
4837299.759983779
 10
634628.081724986
 20
4837330.424735553
  0
LWPOLYLINE
  5
310
330
17
100
AcDbEntity
  8
ROADS
100
AcDbPolyline
 90
2
 70
0
 10
634680.4195214937
 20
4837310.218459867
 10
634713.7550649478
 20
4837320.519135047
  0
LWPOLYLINE
  5
311
330
17
100
AcDbEntity
  8
ROADS
100
AcDbPolyline
 90
2
 70
0
 10
634596.2148461622
 20
4837320.094617298
 10
634628.081724986
 20
4837330.424735553
  0
LWPOLYLINE
  5
312
330
17
100
AcDbEntity
  8
ROADS
100
AcDbPolyline
 90
2
 70
0
 10
634713.7550649478
 20
4837320.519135047
 10
634746.1994925844
 20
4837331.098721683
  0
LWPOLYLINE
  5
313
330
17
100
AcDbEntity
  8
ROADS
100
AcDbPolyline
 90
2
 70
0
 10
634628.081724986
 20
4837330.424735553
 10
634616.5449148288
 20
4837362.821838587
  0
LWPOLYLINE
  5
314
330
17
100
AcDbEntity
  8
ROADS
100
AcDbPolyline
 90
2
 70
0
 10
634616.5449148288
 20
4837362.821838587
 10
634676.6530610182
 20
4837381.121324755
  0
LWPOLYLINE
  5
315
330
17
100
AcDbEntity
  8
ROADS
100
AcDbPolyline
 90
2
 70
0
 10
634595.4140250166
 20
4837284.329131424
 10
634540.0269975674
 20
4837461.835455897
  0
LWPOLYLINE
  5
316
330
17
100
AcDbEntity
  8
ROADS
100
AcDbPolyline
 90
3
 70
0
 10
634616.5449148288
 20
4837362.821838587
 10
634606.599613258
 20
4837395.6957591325
 10
634666.604568339
 20
4837414.613436739
  0
LWPOLYLINE
  5
317
330
17
100
AcDbEntity
  8
ROADS
100
AcDbPolyline
 90
2
 70
0
 10
634540.0269975674
 20
4837461.835455897
 10
634782.3398230419
 20
4837538.511790107
  0
LWPOLYLINE
  5
318
330
17
100
AcDbEntity
  8
ROADS
100
AcDbPolyline
 90
2
 70
0
 10
634809.8956543399
 20
4837351.019228504
 10
634844.7529068639
 20
4837361.841472994
  0
LWPOLYLINE
  5
319
330
17
100
AcDbEntity
  8
ROADS
100
AcDbPolyline
 90
2
 70
0
 10
634777.7001394904
 20
4837344.62049262
 10
634769.2914980326
 20
4837371.243688875
  0
LWPOLYLINE
  5
31A
330
17
100
AcDbEntity
  8
ROADS
100
AcDbPolyline
 90
2
 70
0
 10
634925.8618318376
 20
4837342.373521696
 10
634928.1640914427
 20
4837380.582401429
  0
LWPOLYLINE
  5
31B
330
17
100
AcDbEntity
  8
ROADS
100
AcDbPolyline
 90
2
 70
0
 10
634844.7529068639
 20
4837361.841472994
 10
634882.8116124023
 20
4837371.855972082
  0
LWPOLYLINE
  5
31C
330
17
100
AcDbEntity
  8
ROADS
100
AcDbPolyline
 90
3
 70
0
 10
634628.081724986
 20
4837330.424735553
 10
634865.9818780469
 20
4837404.412970109
 10
634882.8116124023
 20
4837371.855972082
  0
LWPOLYLINE
  5
31D
330
17
100
AcDbEntity
  8
ROADS
100
AcDbPolyline
 90
2
 70
0
 10
634882.8116124023
 20
4837371.855972082
 10
634928.1640914427
 20
4837380.582401429
  0
LWPOLYLINE
  5
31E
330
17
100
AcDbEntity
  8
ROADS
100
AcDbPolyline
 90
2
 70
0
 10
634928.1640914427
 20
4837380.582401429
 10
634910.6769112492
 20
4837452.1232550545
  0
LWPOLYLINE
  5
31F
330
17
100
AcDbEntity
  8
ROADS
100
AcDbPolyline
 90
2
 70
0
 10
634826.0725343595
 20
4837552.888855475
 10
634882.8116124023
 20
4837371.855972082
  0
LWPOLYLINE
  5
320
330
17
100
AcDbEntity
  8
ROADS
100
AcDbPolyline
 90
2
 70
0
 10
634910.6769112492
 20
4837452.1232550545
 10
634921.0432372581
 20
4837478.586962482
  0
LWPOLYLINE
  5
321
330
17
100
AcDbEntity
  8
ROADS
100
AcDbPolyline
 90
2
 70
0
 10
634921.0432372581
 20
4837478.586962482
 10
634963.4936140556
 20
4837473.291162125
  0
LWPOLYLINE
  5
322
330
17
100
AcDbEntity
  8
ROADS
100
AcDbPolyline
 90
2
 70
0
 10
634008.9760500819
 20
4837147.338146814
 10
634045.6791109694
 20
4837158.113918421
  0
LWPOLYLINE
  5
323
330
17
100
AcDbEntity
  8
ROADS
100
AcDbPolyline
 90
2
 70
0
 10
634045.6791109694
 20
4837158.113918421
 10
634197.412907744
 20
4837202.838358188
  0
LWPOLYLINE
  5
324
330
17
100
AcDbEntity
  8
ROADS
100
AcDbPolyline
 90
2
 70
0
 10
634207.4607089116
 20
4837171.373442617
 10
634197.412907744
 20
4837202.838358188
  0
LWPOLYLINE
  5
325
330
17
100
AcDbEntity
  8
ROADS
100
AcDbPolyline
 90
2
 70
0
 10
634045.6791109694
 20
4837158.113918421
 10
634031.8428998082
 20
4837199.344485391
  0
LWPOLYLINE
  5
326
330
17
100
AcDbEntity
  8
ROADS
100
AcDbPolyline
 90
2
 70
0
 10
634197.412907744
 20
4837202.838358188
 10
634273.312181455
 20
4837228.6099614035
  0
LWPOLYLINE
  5
327
330
17
100
AcDbEntity
  8
ROADS
100
AcDbPolyline
 90
2
 70
0
 10
634273.312181455
 20
4837228.6099614035
 10
634310.2583285508
 20
4837241.15909339
  0
LWPOLYLINE
  5
328
330
17
100
AcDbEntity
  8
ROADS
100
AcDbPolyline
 90
4
 70
0
 10
634058.4725546173
 20
4837253.796282823
 10
634070.9910627962
 20
4837216.630447705
 10
634109.1672055954
 20
4837229.294822415
 10
634093.8725449773
 20
4837274.719000666
  0
LWPOLYLINE
  5
329
330
17
100
AcDbEntity
  8
ROADS
100
AcDbPolyline
 90
2
 70
0
 10
634197.412907744
 20
4837202.838358188
 10
634166.029260345
 20
4837295.3045069715
  0
LWPOLYLINE
  5
32A
330
17
100
AcDbEntity
  8
ROADS
100
AcDbPolyline
 90
2
 70
0
 10
634065.0191752671
 20
4837265.457425558
 10
634093.8725449773
 20
4837274.719000666
  0
LWPOLYLINE
  5
32B
330
17
100
AcDbEntity
  8
ROADS
100
AcDbPolyline
 90
2
 70
0
 10
634273.312181455
 20
4837228.6099614035
 10
634241.8327506369
 20
4837326.7588682715
  0
LWPOLYLINE
  5
32C
330
17
100
AcDbEntity
  8
ROADS
100
AcDbPolyline
 90
2
 70
0
 10
634093.8725449773
 20
4837274.719000666
 10
634134.2215061213
 20
4837287.458680009
  0
LWPOLYLINE
  5
32D
330
17
100
AcDbEntity
  8
ROADS
100
AcDbPolyline
 90
2
 70
0
 10
634134.2215061213
 20
4837287.458680009
 10
634166.029260345
 20
4837295.3045069715
  0
LWPOLYLINE
  5
32E
330
17
100
AcDbEntity
  8
ROADS
100
AcDbPolyline
 90
2
 70
0
 10
634093.8725449773
 20
4837274.719000666
 10
634084.9284448334
 20
4837300.920735039
  0
LWPOLYLINE
  5
32F
330
17
100
AcDbEntity
  8
ROADS
100
AcDbPolyline
 90
2
 70
0
 10
634134.2215061213
 20
4837287.458680009
 10
634121.8912874061
 20
4837325.018815806
  0
LWPOLYLINE
  5
330
330
17
100
AcDbEntity
  8
ROADS
100
AcDbPolyline
 90
2
 70
0
 10
634166.029260345
 20
4837295.3045069715
 10
634241.8327506369
 20
4837326.7588682715
  0
LWPOLYLINE
  5
331
330
17
100
AcDbEntity
  8
ROADS
100
AcDbPolyline
 90
2
 70
0
 10
634241.8327506369
 20
4837326.7588682715
 10
634278.8722218164
 20
4837340.893829311
  0
LWPOLYLINE
  5
332
330
17
100
AcDbEntity
  8
ROADS
100
AcDbPolyline
 90
2
 70
0
 10
634121.8912874061
 20
4837325.018815806
 10
634222.0823969943
 20
4837362.577690858
  0
LWPOLYLINE
  5
333
330
17
100
AcDbEntity
  8
ROADS
100
AcDbPolyline
 90
2
 70
0
 10
634241.8327506369
 20
4837326.7588682715
 10
634222.0823969943
 20
4837362.577690858
  0
LWPOLYLINE
  5
334
330
17
100
AcDbEntity
  8
ROADS
100
AcDbPolyline
 90
2
 70
0
 10
634121.8912874061
 20
4837325.018815806
 10
634114.8745131658
 20
4837346.911905016
  0
LWPOLYLINE
  5
335
330
17
100
AcDbEntity
  8
ROADS
100
AcDbPolyline
 90
2
 70
0
 10
634222.0823969943
 20
4837362.577690858
 10
634263.5386785904
 20
4837377.73861034
  0
LWPOLYLINE
  5
336
330
17
100
AcDbEntity
  8
ROADS
100
AcDbPolyline
 90
2
 70
0
 10
634208.5974631999
 20
4837465.8179506045
 10
634214.7971834962
 20
4837448.547076401
  0
LWPOLYLINE
  5
337
330
17
100
AcDbEntity
  8
ROADS
100
AcDbPolyline
 90
2
 70
0
 10
634540.0269975674
 20
4837461.835455897
 10
634509.7287717746
 20
4837547.807760893
  0
LWPOLYLINE
  5
338
330
17
100
AcDbEntity
  8
ROADS
100
AcDbPolyline
 90
2
 70
0
 10
634509.7287717746
 20
4837547.807760893
 10
634483.817512615
 20
4837623.847553163
  0
LWPOLYLINE
  5
339
330
17
100
AcDbEntity
  8
ROADS
100
AcDbPolyline
 90
3
 70
0
 10
634509.7287717746
 20
4837547.807760893
 10
634618.8867179037
 20
4837579.284387348
 10
634612.3146488416
 20
4837662.812561991
  0
LWPOLYLINE
  5
33A
330
17
100
AcDbEntity
  8
ROADS
100
AcDbPolyline
 90
2
 70
0
 10
634390.8141470626
 20
4837618.965209496
 10
634478.1028519036
 20
4837647.746209373
  0
LWPOLYLINE
  5
33B
330
17
100
AcDbEntity
  8
ROADS
100
AcDbPolyline
 90
2
 70
0
 10
634664.0935841831
 20
4837734.611482016
 10
634727.2010283296
 20
4837532.381161212
  0
LWPOLYLINE
  5
33C
330
17
100
AcDbEntity
  8
ROADS
100
AcDbPolyline
 90
2
 70
0
 10
634483.817512615
 20
4837623.847553163
 10
634478.1028519036
 20
4837647.746209373
  0
LWPOLYLINE
  5
33D
330
17
100
AcDbEntity
  8
ROADS
100
AcDbPolyline
 90
2
 70
0
 10
634483.817512615
 20
4837623.847553163
 10
634595.2432883781
 20
4837658.790171525
  0
LWPOLYLINE
  5
33E
330
17
100
AcDbEntity
  8
ROADS
100
AcDbPolyline
 90
2
 70
0
 10
634595.2432883781
 20
4837658.790171525
 10
634612.3146488416
 20
4837662.812561991
  0
LWPOLYLINE
  5
33F
330
17
100
AcDbEntity
  8
ROADS
100
AcDbPolyline
 90
2
 70
0
 10
634612.3146488416
 20
4837662.812561991
 10
634624.8986393207
 20
4837678.465447998
  0
LWPOLYLINE
  5
340
330
17
100
AcDbEntity
  8
ROADS
100
AcDbPolyline
 90
2
 70
0
 10
634478.1028519036
 20
4837647.746209373
 10
634471.4779427943
 20
4837666.94158376
  0
LWPOLYLINE
  5
341
330
17
100
AcDbEntity
  8
ROADS
100
AcDbPolyline
 90
2
 70
0
 10
634910.6769112492
 20
4837452.1232550545
 10
634870.466991736
 20
4837566.066789601
  0
LWPOLYLINE
  5
342
330
17
100
AcDbEntity
  8
ROADS
100
AcDbPolyline
 90
2
 70
0
 10
634921.0432372581
 20
4837478.586962482
 10
634957.5618679533
 20
4837594.740230605
  0
LWPOLYLINE
  5
343
330
17
100
AcDbEntity
  8
ROADS
100
AcDbPolyline
 90
2
 70
0
 10
634782.3398230419
 20
4837538.511790107
 10
634826.0725343595
 20
4837552.888855475
  0
LWPOLYLINE
  5
344
330
17
100
AcDbEntity
  8
ROADS
100
AcDbPolyline
 90
2
 70
0
 10
634826.0725343595
 20
4837552.888855475
 10
634870.466991736
 20
4837566.066789601
  0
LWPOLYLINE
  5
345
330
17
100
AcDbEntity
  8
ROADS
100
AcDbPolyline
 90
2
 70
0
 10
635062.3197544344
 20
4837537.287746201
 10
635035.134874954
 20
4837618.054036244
  0
LWPOLYLINE
  5
346
330
17
100
AcDbEntity
  8
ROADS
100
AcDbPolyline
 90
2
 70
0
 10
634870.466991736
 20
4837566.066789601
 10
634957.5618679533
 20
4837594.740230605
  0
LWPOLYLINE
  5
347
330
17
100
AcDbEntity
  8
ROADS
100
AcDbPolyline
 90
2
 70
0
 10
634957.5618679533
 20
4837594.740230605
 10
635035.134874954
 20
4837618.054036244
  0
LWPOLYLINE
  5
348
330
17
100
AcDbEntity
  8
ROADS
100
AcDbPolyline
 90
2
 70
0
 10
635035.134874954
 20
4837618.054036244
 10
635084.339116819
 20
4837630.880936556
  0
LWPOLYLINE
  5
349
330
17
100
AcDbEntity
  8
ROADS
100
AcDbPolyline
 90
2
 70
0
 10
635084.339116819
 20
4837630.880936556
 10
635149.6867236488
 20
4837651.561449302
  0
LWPOLYLINE
  5
34A
330
17
100
AcDbEntity
  8
ROADS
100
AcDbPolyline
 90
2
 70
0
 10
634782.3398230419
 20
4837538.511790107
 10
634714.7047522136
 20
4837748.496418701
  0
LWPOLYLINE
  5
34B
330
17
100
AcDbEntity
  8
ROADS
100
AcDbPolyline
 90
2
 70
0
 10
635312.0103235899
 20
4837468.598142795
 10
635302.9329476713
 20
4837496.999438695
  0
LWPOLYLINE
  5
34C
330
17
100
AcDbEntity
  8
ROADS
100
AcDbPolyline
 90
2
 70
0
 10
635514.0407854562
 20
4837517.593295759
 10
635557.8323349082
 20
4837564.5557833165
  0
LWPOLYLINE
  5
34D
330
17
100
AcDbEntity
  8
ROADS
100
AcDbPolyline
 90
2
 70
0
 10
635557.8323349082
 20
4837564.5557833165
 10
635527.9993071079
 20
4837607.048979947
  0
LWPOLYLINE
  5
34E
330
17
100
AcDbEntity
  8
ROADS
100
AcDbPolyline
 90
2
 70
0
 10
635302.9329476713
 20
4837496.999438695
 10
635243.4407737664
 20
4837680.979424164
  0
LWPOLYLINE
  5
34F
330
17
100
AcDbEntity
  8
ROADS
100
AcDbPolyline
 90
2
 70
0
 10
635149.6867236488
 20
4837651.561449302
 10
635195.5981921997
 20
4837666.9600327555
  0
LWPOLYLINE
  5
350
330
17
100
AcDbEntity
  8
ROADS
100
AcDbPolyline
 90
3
 70
0
 10
635296.8010115329
 20
4837697.532819537
 10
635323.895736099
 20
4837623.191395825
 10
635466.0958714521
 20
4837667.603773535
  0
LWPOLYLINE
  5
351
330
17
100
AcDbEntity
  8
ROADS
100
AcDbPolyline
 90
2
 70
0
 10
635470.627758787
 20
4837657.622863607
 10
635466.0958714521
 20
4837667.603773535
  0
LWPOLYLINE
  5
352
330
17
100
AcDbEntity
  8
ROADS
100
AcDbPolyline
 90
2
 70
0
 10
635195.5981921997
 20
4837666.9600327555
 10
635243.4407737664
 20
4837680.979424164
  0
LWPOLYLINE
  5
353
330
17
100
AcDbEntity
  8
ROADS
100
AcDbPolyline
 90
2
 70
0
 10
635243.4407737664
 20
4837680.979424164
 10
635296.8010115329
 20
4837697.532819537
  0
LWPOLYLINE
  5
354
330
17
100
AcDbEntity
  8
ROADS
100
AcDbPolyline
 90
2
 70
0
 10
635466.0958714521
 20
4837667.603773535
 10
635440.9914910251
 20
4837744.146409811
  0
LWPOLYLINE
  5
355
330
17
100
AcDbEntity
  8
ROADS
100
AcDbPolyline
 90
2
 70
0
 10
634595.2432883781
 20
4837658.790171525
 10
634586.7828106892
 20
4837694.978545173
  0
LWPOLYLINE
  5
356
330
17
100
AcDbEntity
  8
ROADS
100
AcDbPolyline
 90
2
 70
0
 10
634586.7828106892
 20
4837694.978545173
 10
634546.3286899616
 20
4837681.470834231
  0
LWPOLYLINE
  5
357
330
17
100
AcDbEntity
  8
ROADS
100
AcDbPolyline
 90
2
 70
0
 10
634624.8986393207
 20
4837678.465447998
 10
634652.1676207313
 20
4837701.9840627555
  0
LWPOLYLINE
  5
358
330
17
100
AcDbEntity
  8
ROADS
100
AcDbPolyline
 90
2
 70
0
 10
634586.7828106892
 20
4837694.978545173
 10
634605.4395693493
 20
4837700.442395815
  0
LWPOLYLINE
  5
359
330
17
100
AcDbEntity
  8
ROADS
100
AcDbPolyline
 90
2
 70
0
 10
634624.8986393207
 20
4837678.465447998
 10
634613.8811612889
 20
4837720.908775718
  0
LWPOLYLINE
  5
35A
330
17
100
AcDbEntity
  8
ROADS
100
AcDbPolyline
 90
2
 70
0
 10
634613.8811612889
 20
4837720.908775718
 10
634652.1676207313
 20
4837701.9840627555
  0
LWPOLYLINE
  5
35B
330
17
100
AcDbEntity
  8
ROADS
100
AcDbPolyline
 90
2
 70
0
 10
634652.1676207313
 20
4837701.9840627555
 10
634664.0935841831
 20
4837734.611482016
  0
LWPOLYLINE
  5
35C
330
17
100
AcDbEntity
  8
ROADS
100
AcDbPolyline
 90
2
 70
0
 10
634613.8811612889
 20
4837720.908775718
 10
634613.8659928802
 20
4837730.017507332
  0
LWPOLYLINE
  5
35D
330
17
100
AcDbEntity
  8
ROADS
100
AcDbPolyline
 90
2
 70
0
 10
635243.4407737664
 20
4837680.979424164
 10
635218.8475897487
 20
4837758.067299979
  0
LWPOLYLINE
  5
35E
330
17
100
AcDbEntity
  8
ROADS
100
AcDbPolyline
 90
2
 70
0
 10
635552.9177805856
 20
4837670.790138801
 10
635518.5578870805
 20
4837768.550256903
  0
LWPOLYLINE
  5
35F
330
17
100
AcDbEntity
  8
ROADS
100
AcDbPolyline
 90
2
 70
0
 10
635296.8010115329
 20
4837697.532819537
 10
635440.9914910251
 20
4837744.146409811
  0
LWPOLYLINE
  5
360
330
17
100
AcDbEntity
  8
ROADS
100
AcDbPolyline
 90
3
 70
0
 10
635621.0374421634
 20
4837719.466254614
 10
635588.731958891
 20
4837705.623832969
 10
635568.7732640192
 20
4837757.932444418
  0
LWPOLYLINE
  5
361
330
17
100
AcDbEntity
  8
ROADS
100
AcDbPolyline
 90
2
 70
0
 10
635621.0374421634
 20
4837719.466254614
 10
635609.4729408998
 20
4837755.381246564
  0
LWPOLYLINE
  5
362
330
17
100
AcDbEntity
  8
ROADS
100
AcDbPolyline
 90
2
 70
0
 10
635440.9914910251
 20
4837744.146409811
 10
635518.5578870805
 20
4837768.550256903
  0
LWPOLYLINE
  5
363
330
17
100
AcDbEntity
  8
ROADS
100
AcDbPolyline
 90
2
 70
0
 10
635440.9914910251
 20
4837744.146409811
 10
635429.1790808869
 20
4837778.451759098
  0
LWPOLYLINE
  5
364
330
17
100
AcDbEntity
  8
ROADS
100
AcDbPolyline
 90
2
 70
0
 10
635609.4729408998
 20
4837755.381246564
 10
635595.9502550638
 20
4837793.951054554
  0
LWPOLYLINE
  5
365
330
17
100
AcDbEntity
  8
ROADS
100
AcDbPolyline
 90
2
 70
0
 10
635518.5578870805
 20
4837768.550256903
 10
635595.9502550638
 20
4837793.951054554
  0
LWPOLYLINE
  5
366
330
17
100
AcDbEntity
  8
ROADS
100
AcDbPolyline
 90
2
 70
0
 10
635218.8475897487
 20
4837758.067299979
 10
635414.4692123425
 20
4837821.173434847
  0
LWPOLYLINE
  5
367
330
17
100
AcDbEntity
  8
ROADS
100
AcDbPolyline
 90
2
 70
0
 10
634870.466991736
 20
4837566.066789601
 10
634802.1955495233
 20
4837776.232975255
  0
LWPOLYLINE
  5
368
330
17
100
AcDbEntity
  8
ROADS
100
AcDbPolyline
 90
2
 70
0
 10
634957.5618679533
 20
4837594.740230605
 10
634889.4534575972
 20
4837804.129347811
  0
LWPOLYLINE
  5
369
330
17
100
AcDbEntity
  8
ROADS
100
AcDbPolyline
 90
2
 70
0
 10
635035.134874954
 20
4837618.054036244
 10
634966.7659643353
 20
4837828.518578065
  0
LWPOLYLINE
  5
36A
330
17
100
AcDbEntity
  8
ROADS
100
AcDbPolyline
 90
2
 70
0
 10
635084.339116819
 20
4837630.880936556
 10
635010.4067787374
 20
4837860.9018595535
  0
LWPOLYLINE
  5
36B
330
17
100
AcDbEntity
  8
ROADS
100
AcDbPolyline
 90
2
 70
0
 10
634760.3507984884
 20
4837763.084127954
 10
634802.1955495233
 20
4837776.232975255
  0
LWPOLYLINE
  5
36C
330
17
100
AcDbEntity
  8
ROADS
100
AcDbPolyline
 90
2
 70
0
 10
634802.1955495233
 20
4837776.232975255
 10
634889.4534575972
 20
4837804.129347811
  0
LWPOLYLINE
  5
36D
330
17
100
AcDbEntity
  8
ROADS
100
AcDbPolyline
 90
2
 70
0
 10
634889.4534575972
 20
4837804.129347811
 10
634966.7659643353
 20
4837828.518578065
  0
LWPOLYLINE
  5
36E
330
17
100
AcDbEntity
  8
ROADS
100
AcDbPolyline
 90
2
 70
0
 10
635149.6867236488
 20
4837651.561449302
 10
635076.9575373211
 20
4837876.988202887
  0
LWPOLYLINE
  5
36F
330
17
100
AcDbEntity
  8
ROADS
100
AcDbPolyline
 90
2
 70
0
 10
635195.5981921997
 20
4837666.9600327555
 10
635123.5296082599
 20
4837892.038234993
  0
LWPOLYLINE
  5
370
330
17
100
AcDbEntity
  8
ROADS
100
AcDbPolyline
 90
2
 70
0
 10
634966.7659643353
 20
4837828.518578065
 10
634961.3669631286
 20
4837845.9114202615
  0
LWPOLYLINE
  5
371
330
17
100
AcDbEntity
  8
ROADS
100
AcDbPolyline
 90
2
 70
0
 10
634635.0318875624
 20
4837737.395007823
 10
634664.0935841831
 20
4837734.611482016
  0
LWPOLYLINE
  5
372
330
17
100
AcDbEntity
  8
ROADS
100
AcDbPolyline
 90
2
 70
0
 10
634664.0935841831
 20
4837734.611482016
 10
634714.7047522136
 20
4837748.496418701
  0
LWPOLYLINE
  5
373
330
17
100
AcDbEntity
  8
ROADS
100
AcDbPolyline
 90
2
 70
0
 10
634714.7047522136
 20
4837748.496418701
 10
634760.3507984884
 20
4837763.084127954
  0
LWPOLYLINE
  5
374
330
17
100
AcDbEntity
  8
ROADS
100
AcDbPolyline
 90
2
 70
0
 10
634664.0935841831
 20
4837734.611482016
 10
634660.6419332762
 20
4837745.854158411
  0
LWPOLYLINE
  5
375
330
17
100
AcDbEntity
  8
ROADS
100
AcDbPolyline
 90
2
 70
0
 10
634714.7047522136
 20
4837748.496418701
 10
634710.5376923592
 20
4837761.460516365
  0
LWPOLYLINE
  5
376
330
17
100
AcDbEntity
  8
ROADS
100
AcDbPolyline
 90
2
 70
0
 10
634755.9829770754
 20
4837776.480588149
 10
634760.3507984884
 20
4837763.084127954
  0
LWPOLYLINE
  5
377
330
17
100
AcDbEntity
  8
ROADS
100
AcDbPolyline
 90
2
 70
0
 10
635218.8475897487
 20
4837758.067299979
 10
635194.0517567488
 20
4837835.244507619
  0
LWPOLYLINE
  5
378
330
17
100
AcDbEntity
  8
ROADS
100
AcDbPolyline
 90
2
 70
0
 10
635429.1790808869
 20
4837778.451759098
 10
635414.4692123425
 20
4837821.173434847
  0
LWPOLYLINE
  5
379
330
17
100
AcDbEntity
  8
ROADS
100
AcDbPolyline
 90
2
 70
0
 10
635414.4692123425
 20
4837821.173434847
 10
635388.8846743444
 20
4837898.2184082875
  0
LWPOLYLINE
  5
37A
330
17
100
AcDbEntity
  8
ROADS
100
AcDbPolyline
 90
2
 70
0
 10
635595.9502550638
 20
4837793.951054554
 10
635549.3264173876
 20
4837933.616024249
  0
LWPOLYLINE
  5
37B
330
17
100
AcDbEntity
  8
ROADS
100
AcDbPolyline
 90
2
 70
0
 10
635376.0096886109
 20
4837937.083924409
 10
635390.5481077611
 20
4837941.518865502
  0
LWPOLYLINE
  5
37C
330
17
100
AcDbEntity
  8
ROADS
100
AcDbPolyline
 90
3
 70
0
 10
635419.620404058
 20
4837943.2940004915
 10
635469.2077128094
 20
4837794.202015137
 10
635429.1790808869
 20
4837778.451759098
  0
LWPOLYLINE
  5
37D
330
17
100
AcDbEntity
  8
ROADS
100
AcDbPolyline
 90
2
 70
0
 10
635194.0517567488
 20
4837835.244507619
 10
635388.8846743444
 20
4837898.2184082875
  0
LWPOLYLINE
  5
37E
330
17
100
AcDbEntity
  8
ROADS
100
AcDbPolyline
 90
2
 70
0
 10
635194.0517567488
 20
4837835.244507619
 10
635171.4134523715
 20
4837905.506315015
  0
LWPOLYLINE
  5
37F
330
17
100
AcDbEntity
  8
ROADS
100
AcDbPolyline
 90
2
 70
0
 10
635518.5578870805
 20
4837768.550256903
 10
635460.6740911057
 20
4837942.5016295975
  0
LWPOLYLINE
  5
380
330
17
100
AcDbEntity
  8
ROADS
100
AcDbPolyline
 90
2
 70
0
 10
635388.8846743444
 20
4837898.2184082875
 10
635376.0096886109
 20
4837937.083924409
  0
LWPOLYLINE
  5
381
330
17
100
AcDbEntity
  8
ROADS
100
AcDbPolyline
 90
2
 70
0
 10
635514.916659767
 20
4837921.493678691
 10
635549.3264173876
 20
4837933.616024249
  0
LWPOLYLINE
  5
382
330
17
100
AcDbEntity
  8
ROADS
100
AcDbPolyline
 90
2
 70
0
 10
634961.3669631286
 20
4837845.9114202615
 10
635008.1431490126
 20
4837860.423416821
  0
LWPOLYLINE
  5
383
330
17
100
AcDbEntity
  8
ROADS
100
AcDbPolyline
 90
2
 70
0
 10
634802.1955495233
 20
4837776.232975255
 10
634797.5847264121
 20
4837790.4900369635
  0
LWPOLYLINE
  5
384
330
17
100
AcDbEntity
  8
ROADS
100
AcDbPolyline
 90
2
 70
0
 10
634889.4534575972
 20
4837804.129347811
 10
634882.9182768557
 20
4837823.857459739
  0
LWPOLYLINE
  5
385
330
17
100
AcDbEntity
  8
ROADS
100
AcDbPolyline
 90
2
 70
0
 10
634961.3669631286
 20
4837845.9114202615
 10
634960.4459416248
 20
4837848.655166387
  0
LWPOLYLINE
  5
386
330
17
100
AcDbEntity
  8
ROADS
100
AcDbPolyline
 90
2
 70
0
 10
635549.3264173876
 20
4837933.616024249
 10
635557.4965115358
 20
4837936.217197506
  0
LWPOLYLINE
  5
387
330
17
100
AcDbEntity
  8
ROADS
100
AcDbPolyline
 90
2
 70
0
 10
635376.0096886109
 20
4837937.083924409
 10
635375.1434971724
 20
4837940.28376814
  0
LWPOLYLINE
  5
388
330
17
100
AcDbEntity
  8
ROADS
100
AcDbPolyline
 90
2
 70
0
 10
635549.3264173876
 20
4837933.616024249
 10
635548.0834812262
 20
4837937.338874358
  0
LWPOLYLINE
  5
389
330
17
100
AcDbEntity
  8
ROADS
100
AcDbPolyline
 90
2
 70
0
 10
636251.8776885017
 20
4837518.694602954
 10
636282.4846024155
 20
4837528.596377068
  0
LWPOLYLINE
  5
38A
330
17
100
AcDbEntity
  8
ROADS
100
AcDbPolyline
 90
2
 70
0
 10
635984.9386471622
 20
4837521.813674941
 10
636058.420263604
 20
4837550.22999495
  0
LWPOLYLINE
  5
38B
330
17
100
AcDbEntity
  8
ROADS
100
AcDbPolyline
 90
2
 70
0
 10
635984.9386471622
 20
4837521.813674941
 10
635959.938605833
 20
4837599.554432714
  0
LWPOLYLINE
  5
38C
330
17
100
AcDbEntity
  8
ROADS
100
AcDbPolyline
 90
2
 70
0
 10
636058.420263604
 20
4837550.22999495
 10
636129.9582859629
 20
4837572.974677343
  0
LWPOLYLINE
  5
38D
330
17
100
AcDbEntity
  8
ROADS
100
AcDbPolyline
 90
2
 70
0
 10
636251.8776885017
 20
4837518.694602954
 10
636226.2698589918
 20
4837596.33279677
  0
LWPOLYLINE
  5
38E
330
17
100
AcDbEntity
  8
ROADS
100
AcDbPolyline
 90
2
 70
0
 10
636058.420263604
 20
4837550.22999495
 10
636031.7925481283
 20
4837632.699750713
  0
LWPOLYLINE
  5
38F
330
17
100
AcDbEntity
  8
ROADS
100
AcDbPolyline
 90
2
 70
0
 10
635959.938605833
 20
4837599.554432714
 10
635989.7708180958
 20
4837609.0887527615
  0
LWPOLYLINE
  5
390
330
17
100
AcDbEntity
  8
ROADS
100
AcDbPolyline
 90
2
 70
0
 10
635750.8998136653
 20
4837538.5848860545
 10
635880.2073601965
 20
4837675.325245803
  0
LWPOLYLINE
  5
391
330
17
100
AcDbEntity
  8
ROADS
100
AcDbPolyline
 90
2
 70
0
 10
635959.938605833
 20
4837599.554432714
 10
635942.7517876644
 20
4837623.874770911
  0
LWPOLYLINE
  5
392
330
17
100
AcDbEntity
  8
ROADS
100
AcDbPolyline
 90
2
 70
0
 10
635942.7517876644
 20
4837623.874770911
 10
635880.2073601965
 20
4837675.325245803
  0
LWPOLYLINE
  5
393
330
17
100
AcDbEntity
  8
ROADS
100
AcDbPolyline
 90
3
 70
0
 10
635732.8378876334
 20
4837630.23327171
 10
635746.0062398552
 20
4837660.857084743
 10
635828.9262042174
 20
4837725.184248921
  0
LWPOLYLINE
  5
394
330
17
100
AcDbEntity
  8
ROADS
100
AcDbPolyline
 90
2
 70
0
 10
635880.2073601965
 20
4837675.325245803
 10
635828.9262042174
 20
4837725.184248921
  0
LWPOLYLINE
  5
395
330
17
100
AcDbEntity
  8
ROADS
100
AcDbPolyline
 90
2
 70
0
 10
635998.632357804
 20
4837683.477564266
 10
635908.2807294986
 20
4837769.446201563
  0
LWPOLYLINE
  5
396
330
17
100
AcDbEntity
  8
ROADS
100
AcDbPolyline
 90
2
 70
0
 10
635621.0374421634
 20
4837719.466254614
 10
635650.795920246
 20
4837738.937108957
  0
LWPOLYLINE
  5
397
330
17
100
AcDbEntity
  8
ROADS
100
AcDbPolyline
 90
2
 70
0
 10
635828.9262042174
 20
4837725.184248921
 10
635908.2807294986
 20
4837769.446201563
  0
LWPOLYLINE
  5
398
330
17
100
AcDbEntity
  8
ROADS
100
AcDbPolyline
 90
2
 70
0
 10
635609.4729408998
 20
4837755.381246564
 10
635672.4521060848
 20
4837775.692950493
  0
LWPOLYLINE
  5
399
330
17
100
AcDbEntity
  8
ROADS
100
AcDbPolyline
 90
2
 70
0
 10
635908.2807294986
 20
4837769.446201563
 10
635965.9166875206
 20
4837801.424369744
  0
LWPOLYLINE
  5
39A
330
17
100
AcDbEntity
  8
ROADS
100
AcDbPolyline
 90
2
 70
0
 10
636031.7925481283
 20
4837632.699750713
 10
636004.97869451
 20
4837624.266108087
  0
LWPOLYLINE
  5
39B
330
17
100
AcDbEntity
  8
ROADS
100
AcDbPolyline
 90
2
 70
0
 10
635942.7517876644
 20
4837623.874770911
 10
635998.632357804
 20
4837683.477564266
  0
LWPOLYLINE
  5
39C
330
17
100
AcDbEntity
  8
ROADS
100
AcDbPolyline
 90
2
 70
0
 10
636129.9582859629
 20
4837572.974677343
 10
636079.6282130581
 20
4837728.563342227
  0
LWPOLYLINE
  5
39D
330
17
100
AcDbEntity
  8
ROADS
100
AcDbPolyline
 90
2
 70
0
 10
636031.7925481283
 20
4837632.699750713
 10
636011.539303252
 20
4837696.483121548
  0
LWPOLYLINE
  5
39E
330
17
100
AcDbEntity
  8
ROADS
100
AcDbPolyline
 90
2
 70
0
 10
636156.6028574024
 20
4837665.744657324
 10
636175.9204633549
 20
4837616.488704349
  0
LWPOLYLINE
  5
39F
330
17
100
AcDbEntity
  8
ROADS
100
AcDbPolyline
 90
2
 70
0
 10
635998.632357804
 20
4837683.477564266
 10
636011.539303252
 20
4837696.483121548
  0
LWPOLYLINE
  5
3A0
330
17
100
AcDbEntity
  8
ROADS
100
AcDbPolyline
 90
2
 70
0
 10
636011.539303252
 20
4837696.483121548
 10
636056.9186794583
 20
4837744.935273422
  0
LWPOLYLINE
  5
3A1
330
17
100
AcDbEntity
  8
ROADS
100
AcDbPolyline
 90
3
 70
0
 10
635595.9502550638
 20
4837793.951054554
 10
635672.3100011545
 20
4837829.833103595
 10
635666.9728358227
 20
4837846.737058098
  0
LWPOLYLINE
  5
3A2
330
17
100
AcDbEntity
  8
ROADS
100
AcDbPolyline
 90
2
 70
0
 10
635829.2399363634
 20
4837836.567691038
 10
635816.7614633611
 20
4837820.331600736
  0
LWPOLYLINE
  5
3A3
330
17
100
AcDbEntity
  8
ROADS
100
AcDbPolyline
 90
2
 70
0
 10
635829.2399363634
 20
4837836.567691038
 10
635845.1279765014
 20
4837838.633199548
  0
LWPOLYLINE
  5
3A4
330
17
100
AcDbEntity
  8
ROADS
100
AcDbPolyline
 90
2
 70
0
 10
635666.9728358227
 20
4837846.737058098
 10
635746.4495605333
 20
4837872.84864145
  0
LWPOLYLINE
  5
3A5
330
17
100
AcDbEntity
  8
ROADS
100
AcDbPolyline
 90
3
 70
0
 10
635778.6671450288
 20
4837883.257195262
 10
635792.0740701804
 20
4837846.996978462
 10
635829.2399363634
 20
4837836.567691038
  0
LWPOLYLINE
  5
3A6
330
17
100
AcDbEntity
  8
ROADS
100
AcDbPolyline
 90
2
 70
0
 10
635746.4495605333
 20
4837872.84864145
 10
635778.6671450288
 20
4837883.257195262
  0
LWPOLYLINE
  5
3A7
330
17
100
AcDbEntity
  8
ROADS
100
AcDbPolyline
 90
2
 70
0
 10
635666.9728358227
 20
4837846.737058098
 10
635642.8113691504
 20
4837922.884214918
  0
LWPOLYLINE
  5
3A8
330
17
100
AcDbEntity
  8
ROADS
100
AcDbPolyline
 90
2
 70
0
 10
635746.4495605333
 20
4837872.84864145
 10
635737.4298471714
 20
4837898.869517693
  0
LWPOLYLINE
  5
3A9
330
17
100
AcDbEntity
  8
ROADS
100
AcDbPolyline
 90
2
 70
0
 10
635715.156181727
 20
4837906.181912838
 10
635702.1894992104
 20
4837901.944756327
  0
LWPOLYLINE
  5
3AA
330
17
100
AcDbEntity
  8
ROADS
100
AcDbPolyline
 90
2
 70
0
 10
635778.6671450288
 20
4837883.257195262
 10
635779.1043906714
 20
4837885.187857157
  0
ENDSEC
  0
SECTION
  2
OBJECTS
  0
DICTIONARY
  5
A
330
0
100
AcDbDictionary
281
1
  3
ACAD_COLOR
350
B
  3
ACAD_GROUP
350
C
  3
ACAD_LAYOUT
350
D
  3
ACAD_MATERIAL
350
E
  3
ACAD_MLEADERSTYLE
350
F
  3
ACAD_MLINESTYLE
350
10
  3
ACAD_PLOTSETTINGS
350
11
  3
ACAD_PLOTSTYLENAME
350
12
  3
ACAD_SCALELIST
350
14
  3
ACAD_TABLESTYLE
350
15
  3
ACAD_VISUALSTYLE
350
16
  3
EZDXF_META
350
2D
  0
DICTIONARY
  5
B
330
A
100
AcDbDictionary
281
1
  0
DICTIONARY
  5
C
330
A
100
AcDbDictionary
281
1
  0
DICTIONARY
  5
D
330
A
100
AcDbDictionary
281
1
  3
Model
350
1A
  3
Layout1
350
1E
  0
DICTIONARY
  5
E
330
A
100
AcDbDictionary
281
1
  3
ByBlock
350
1F
  3
ByLayer
350
20
  3
Global
350
21
  0
DICTIONARY
  5
F
330
A
100
AcDbDictionary
281
1
  3
Standard
350
2C
  0
DICTIONARY
  5
10
330
A
100
AcDbDictionary
281
1
  3
Standard
350
22
  0
DICTIONARY
  5
11
330
A
100
AcDbDictionary
281
1
  0
ACDBDICTIONARYWDFLT
  5
12
330
A
100
AcDbDictionary
281
1
  3
Normal
350
13
100
AcDbDictionaryWithDefault
340
13
  0
ACDBPLACEHOLDER
  5
13
330
12
  0
DICTIONARY
  5
14
330
A
100
AcDbDictionary
281
1
  0
DICTIONARY
  5
15
330
A
100
AcDbDictionary
281
1
  0
DICTIONARY
  5
16
330
A
100
AcDbDictionary
281
1
  0
LAYOUT
  5
1A
330
D
100
AcDbPlotSettings
  1

  4
A3
  6

 40
7.5
 41
20.0
 42
7.5
 43
20.0
 44
420.0
 45
297.0
 46
0.0
 47
0.0
 48
0.0
 49
0.0
140
0.0
141
0.0
142
1.0
143
1.0
 70
1024
 72
1
 73
0
 74
5
  7

 75
16
 76
0
 77
2
 78
300
147
1.0
148
0.0
149
0.0
100
AcDbLayout
  1
Model
 70
1
 71
0
 10
0.0
 20
0.0
 11
420.0
 21
297.0
 12
0.0
 22
0.0
 32
0.0
 14
1e+20
 24
1e+20
 34
1e+20
 15
-1e+20
 25
-1e+20
 35
-1e+20
146
0.0
 13
0.0
 23
0.0
 33
0.0
 16
1.0
 26
0.0
 36
0.0
 17
0.0
 27
1.0
 37
0.0
 76
1
330
17
  0
LAYOUT
  5
1E
330
D
100
AcDbPlotSettings
  1

  4
A3
  6

 40
7.5
 41
20.0
 42
7.5
 43
20.0
 44
420.0
 45
297.0
 46
0.0
 47
0.0
 48
0.0
 49
0.0
140
0.0
141
0.0
142
1.0
143
1.0
 70
0
 72
1
 73
0
 74
5
  7

 75
16
 76
0
 77
2
 78
300
147
1.0
148
0.0
149
0.0
100
AcDbLayout
  1
Layout1
 70
1
 71
1
 10
0.0
 20
0.0
 11
420.0
 21
297.0
 12
0.0
 22
0.0
 32
0.0
 14
1e+20
 24
1e+20
 34
1e+20
 15
-1e+20
 25
-1e+20
 35
-1e+20
146
0.0
 13
0.0
 23
0.0
 33
0.0
 16
1.0
 26
0.0
 36
0.0
 17
0.0
 27
1.0
 37
0.0
 76
1
330
1B
  0
MATERIAL
  5
1F
102
{ACAD_REACTORS
330
E
102
}
330
E
100
AcDbMaterial
  1
ByBlock
  2

 70
0
 40
1.0
 71
1
 41
1.0
 91
-1023410177
 42
1.0
 72
1
  3

 73
1
 74
1
 75
1
 44
0.5
 73
0
 45
1.0
 46
1.0
 77
1
  4

 78
1
 79
1
170
1
 48
1.0
171
1
  6

172
1
173
1
174
1
140
1.0
141
1.0
175
1
  7

176
1
177
1
178
1
143
1.0
179
1
  8

270
1
271
1
272
1
145
1.0
146
1.0
273
1
  9

274
1
275
1
276
1
 42
1.0
 72
1
  3

 73
1
 74
1
 75
1
 94
63
  0
MATERIAL
  5
20
102
{ACAD_REACTORS
330
E
102
}
330
E
100
AcDbMaterial
  1
ByLayer
  2

 70
0
 40
1.0
 71
1
 41
1.0
 91
-1023410177
 42
1.0
 72
1
  3

 73
1
 74
1
 75
1
 44
0.5
 73
0
 45
1.0
 46
1.0
 77
1
  4

 78
1
 79
1
170
1
 48
1.0
171
1
  6

172
1
173
1
174
1
140
1.0
141
1.0
175
1
  7

176
1
177
1
178
1
143
1.0
179
1
  8

270
1
271
1
272
1
145
1.0
146
1.0
273
1
  9

274
1
275
1
276
1
 42
1.0
 72
1
  3

 73
1
 74
1
 75
1
 94
63
  0
MATERIAL
  5
21
102
{ACAD_REACTORS
330
E
102
}
330
E
100
AcDbMaterial
  1
Global
  2

 70
0
 40
1.0
 71
1
 41
1.0
 91
-1023410177
 42
1.0
 72
1
  3

 73
1
 74
1
 75
1
 44
0.5
 73
0
 45
1.0
 46
1.0
 77
1
  4

 78
1
 79
1
170
1
 48
1.0
171
1
  6

172
1
173
1
174
1
140
1.0
141
1.0
175
1
  7

176
1
177
1
178
1
143
1.0
179
1
  8

270
1
271
1
272
1
145
1.0
146
1.0
273
1
  9

274
1
275
1
276
1
 42
1.0
 72
1
  3

 73
1
 74
1
 75
1
 94
63
  0
MLINESTYLE
  5
22
102
{ACAD_REACTORS
330
10
102
}
330
10
100
AcDbMlineStyle
  2
Standard
 70
0
  3

 62
256
 51
90.0
 52
90.0
 71
2
 49
0.5
 62
256
  6
BYLAYER
 49
-0.5
 62
256
  6
BYLAYER
  0
MLEADERSTYLE
  5
2C
102
{ACAD_REACTORS
330
F
102
}
330
F
100
AcDbMLeaderStyle
179
2
170
2
171
1
172
0
 90
2
 40
0.0
 41
0.0
173
1
 91
-1056964608
 92
-2
290
1
 42
2.0
291
1
 43
8.0
  3
Standard
 44
4.0
300

342
29
174
1
175
1
176
0
178
1
 93
-1056964608
 45
4.0
292
0
297
0
 46
4.0
 94
-1056964608
 47
1.0
 49
1.0
140
1.0
294
1
141
0.0
177
0
142
1.0
295
0
296
0
143
3.75
271
0
272
9
273
9
  0
DICTIONARY
  5
2D
330
A
100
AcDbDictionary
280
1
281
1
  3
CREATED_BY_EZDXF
350
2E
  3
WRITTEN_BY_EZDXF
350
3AD
  0
DICTIONARYVAR
  5
2E
330
2D
100
DictionaryVariables
280
0
  1
1.4.4 @ 2026-07-30T15:39:24.444382+00:00
  0
DICTIONARYVAR
  5
3AD
330
2D
100
DictionaryVariables
280
0
  1
1.4.4 @ 2026-07-30T15:39:24.510426+00:00
  0
ENDSEC
  0
EOF
