  0
SECTION
  2
HEADER
  9
$ACADVER
  1
AC1015
  9
$ACADMAINTVER
 70
6
  9
$DWGCODEPAGE
  3
ANSI_1252
  9
$INSBASE
 10
0.0
 20
0.0
 30
0.0
  9
$EXTMIN
 10
1e+20
 20
1e+20
 30
1e+20
  9
$EXTMAX
 10
-1e+20
 20
-1e+20
 30
-1e+20
  9
$LIMMIN
 10
0.0
 20
0.0
  9
$LIMMAX
 10
420.0
 20
297.0
  9
$ORTHOMODE
 70
0
  9
$REGENMODE
 70
1
  9
$FILLMODE
 70
1
  9
$QTEXTMODE
 70
0
  9
$MIRRTEXT
 70
1
  9
$LTSCALE
 40
1.0
  9
$ATTMODE
 70
1
  9
$TEXTSIZE
 40
2.5
  9
$TRACEWID
 40
1.0
  9
$TEXTSTYLE
  7
Standard
  9
$CLAYER
  8
0
  9
$CELTYPE
  6
ByLayer
  9
$CECOLOR
 62
256
  9
$CELTSCALE
 40
1.0
  9
$DISPSILH
 70
0
  9
$DIMSCALE
 40
1.0
  9
$DIMASZ
 40
2.5
  9
$DIMEXO
 40
0.625
  9
$DIMDLI
 40
3.75
  9
$DIMRND
 40
0.0
  9
$DIMDLE
 40
0.0
  9
$DIMEXE
 40
1.25
  9
$DIMTP
 40
0.0
  9
$DIMTM
 40
0.0
  9
$DIMTXT
 40
2.5
  9
$DIMCEN
 40
2.5
  9
$DIMTSZ
 40
0.0
  9
$DIMTOL
 70
0
  9
$DIMLIM
 70
0
  9
$DIMTIH
 70
0
  9
$DIMTOH
 70
0
  9
$DIMSE1
 70
0
  9
$DIMSE2
 70
0
  9
$DIMTAD
 70
1
  9
$DIMZIN
 70
8
  9
$DIMBLK
  1

  9
$DIMASO
 70
1
  9
$DIMSHO
 70
1
  9
$DIMPOST
  1

  9
$DIMAPOST
  1

  9
$DIMALT
 70
0
  9
$DIMALTD
 70
3
  9
$DIMALTF
 40
0.03937007874
  9
$DIMLFAC
 40
1.0
  9
$DIMTOFL
 70
1
  9
$DIMTVP
 40
0.0
  9
$DIMTIX
 70
0
  9
$DIMSOXD
 70
0
  9
$DIMSAH
 70
0
  9
$DIMBLK1
  1

  9
$DIMBLK2
  1

  9
$DIMSTYLE
  2
ISO-25
  9
$DIMCLRD
 70
0
  9
$DIMCLRE
 70
0
  9
$DIMCLRT
 70
0
  9
$DIMTFAC
 40
1.0
  9
$DIMGAP
 40
0.625
  9
$DIMJUST
 70
0
  9
$DIMSD1
 70
0
  9
$DIMSD2
 70
0
  9
$DIMTOLJ
 70
0
  9
$DIMTZIN
 70
8
  9
$DIMALTZ
 70
0
  9
$DIMALTTZ
 70
0
  9
$DIMUPT
 70
0
  9
$DIMDEC
 70
2
  9
$DIMTDEC
 70
2
  9
$DIMALTU
 70
2
  9
$DIMALTTD
 70
3
  9
$DIMTXSTY
  7
Standard
  9
$DIMAUNIT
 70
0
  9
$DIMADEC
 70
0
  9
$DIMALTRND
 40
0.0
  9
$DIMAZIN
 70
0
  9
$DIMDSEP
 70
44
  9
$DIMATFIT
 70
3
  9
$DIMFRAC
 70
0
  9
$DIMLDRBLK
  1

  9
$DIMLUNIT
 70
2
  9
$DIMLWD
 70
-2
  9
$DIMLWE
 70
-2
  9
$DIMTMOVE
 70
0
  9
$LUNITS
 70
2
  9
$LUPREC
 70
4
  9
$SKETCHINC
 40
1.0
  9
$FILLETRAD
 40
10.0
  9
$AUNITS
 70
0
  9
$AUPREC
 70
2
  9
$MENU
  1
.
  9
$ELEVATION
 40
0.0
  9
$PELEVATION
 40
0.0
  9
$THICKNESS
 40
0.0
  9
$LIMCHECK
 70
0
  9
$CHAMFERA
 40
0.0
  9
$CHAMFERB
 40
0.0
  9
$CHAMFERC
 40
0.0
  9
$CHAMFERD
 40
0.0
  9
$SKPOLY
 70
0
  9
$TDCREATE
 40
2461229.601238426
  9
$TDUCREATE
 40
2458532.153996898
  9
$TDUPDATE
 40
2461229.601238426
  9
$TDUUPDATE
 40
2458532.1544311
  9
$TDINDWG
 40
0.0
  9
$TDUSRTIMER
 40
0.0
  9
$USRTIMER
 70
1
  9
$ANGBASE
 50
0.0
  9
$ANGDIR
 70
0
  9
$PDMODE
 70
0
  9
$PDSIZE
 40
0.0
  9
$PLINEWID
 40
0.0
  9
$SPLFRAME
 70
0
  9
$SPLINETYPE
 70
6
  9
$SPLINESEGS
 70
8
  9
$HANDSEED
  5
269
  9
$SURFTAB1
 70
6
  9
$SURFTAB2
 70
6
  9
$SURFTYPE
 70
6
  9
$SURFU
 70
6
  9
$SURFV
 70
6
  9
$UCSBASE
  2

  9
$UCSNAME
  2

  9
$UCSORG
 10
0.0
 20
0.0
 30
0.0
  9
$UCSXDIR
 10
1.0
 20
0.0
 30
0.0
  9
$UCSYDIR
 10
0.0
 20
1.0
 30
0.0
  9
$UCSORTHOREF
  2

  9
$UCSORTHOVIEW
 70
0
  9
$UCSORGTOP
 10
0.0
 20
0.0
 30
0.0
  9
$UCSORGBOTTOM
 10
0.0
 20
0.0
 30
0.0
  9
$UCSORGLEFT
 10
0.0
 20
0.0
 30
0.0
  9
$UCSORGRIGHT
 10
0.0
 20
0.0
 30
0.0
  9
$UCSORGFRONT
 10
0.0
 20
0.0
 30
0.0
  9
$UCSORGBACK
 10
0.0
 20
0.0
 30
0.0
  9
$PUCSBASE
  2

  9
$PUCSNAME
  2

  9
$PUCSORG
 10
0.0
 20
0.0
 30
0.0
  9
$PUCSXDIR
 10
1.0
 20
0.0
 30
0.0
  9
$PUCSYDIR
 10
0.0
 20
1.0
 30
0.0
  9
$PUCSORTHOREF
  2

  9
$PUCSORTHOVIEW
 70
0
  9
$PUCSORGTOP
 10
0.0
 20
0.0
 30
0.0
  9
$PUCSORGBOTTOM
 10
0.0
 20
0.0
 30
0.0
  9
$PUCSORGLEFT
 10
0.0
 20
0.0
 30
0.0
  9
$PUCSORGRIGHT
 10
0.0
 20
0.0
 30
0.0
  9
$PUCSORGFRONT
 10
0.0
 20
0.0
 30
0.0
  9
$PUCSORGBACK
 10
0.0
 20
0.0
 30
0.0
  9
$USERI1
 70
0
  9
$USERI2
 70
0
  9
$USERI3
 70
0
  9
$USERI4
 70
0
  9
$USERI5
 70
0
  9
$USERR1
 40
0.0
  9
$USERR2
 40
0.0
  9
$USERR3
 40
0.0
  9
$USERR4
 40
0.0
  9
$USERR5
 40
0.0
  9
$WORLDVIEW
 70
1
  9
$SHADEDGE
 70
3
  9
$SHADEDIF
 70
70
  9
$TILEMODE
 70
1
  9
$MAXACTVP
 70
64
  9
$PINSBASE
 10
0.0
 20
0.0
 30
0.0
  9
$PLIMCHECK
 70
0
  9
$PEXTMIN
 10
1e+20
 20
1e+20
 30
1e+20
  9
$PEXTMAX
 10
-1e+20
 20
-1e+20
 30
-1e+20
  9
$PLIMMIN
 10
0.0
 20
0.0
  9
$PLIMMAX
 10
420.0
 20
297.0
  9
$UNITMODE
 70
0
  9
$VISRETAIN
 70
1
  9
$PLINEGEN
 70
0
  9
$PSLTSCALE
 70
1
  9
$TREEDEPTH
 70
3020
  9
$CMLSTYLE
  2
Standard
  9
$CMLJUST
 70
0
  9
$CMLSCALE
 40
20.0
  9
$PROXYGRAPHICS
 70
1
  9
$MEASUREMENT
 70
1
  9
$CELWEIGHT
370
-1
  9
$ENDCAPS
280
0
  9
$JOINSTYLE
280
0
  9
$LWDISPLAY
290
0
  9
$INSUNITS
 70
6
  9
$HYPERLINKBASE
  1

  9
$STYLESHEET
  1

  9
$XEDIT
290
1
  9
$CEPSNTYPE
380
0
  9
$PSTYLEMODE
290
1
  9
$FINGERPRINTGUID
  2
{5BDF9A44-AA28-478C-AEF1-060D8D73C20A}
  9
$VERSIONGUID
  2
{343A6273-E5AB-4D9C-A848-8369592FAA41}
  9
$EXTNAMES
290
1
  9
$PSVPSCALE
 40
0.0
  9
$OLESTARTUP
290
0
  0
ENDSEC
  0
SECTION
  2
CLASSES
  0
CLASS
  1
ACDBDICTIONARYWDFLT
  2
AcDbDictionaryWithDefault
  3
ObjectDBX Classes
 90
0
280
0
281
0
  0
CLASS
  1
SUN
  2
AcDbSun
  3
SCENEOE
 90
1153
280
0
281
0
  0
CLASS
  1
VISUALSTYLE
  2
AcDbVisualStyle
  3
ObjectDBX Classes
 90
4095
280
0
281
0
  0
CLASS
  1
MATERIAL
  2
AcDbMaterial
  3
ObjectDBX Classes
 90
1153
280
0
281
0
  0
CLASS
  1
SCALE
  2
AcDbScale
  3
ObjectDBX Classes
 90
1153
280
0
281
0
  0
CLASS
  1
TABLESTYLE
  2
AcDbTableStyle
  3
ObjectDBX Classes
 90
4095
280
0
281
0
  0
CLASS
  1
MLEADERSTYLE
  2
AcDbMLeaderStyle
  3
ACDB_MLEADERSTYLE_CLASS
 90
4095
280
0
281
0
  0
CLASS
  1
DICTIONARYVAR
  2
AcDbDictionaryVar
  3
ObjectDBX Classes
 90
0
280
0
281
0
  0
CLASS
  1
CELLSTYLEMAP
  2
AcDbCellStyleMap
  3
ObjectDBX Classes
 90
1152
280
0
281
0
  0
CLASS
  1
MENTALRAYRENDERSETTINGS
  2
AcDbMentalRayRenderSettings
  3
SCENEOE
 90
1024
280
0
281
0
  0
CLASS
  1
ACDBDETAILVIEWSTYLE
  2
AcDbDetailViewStyle
  3
ObjectDBX Classes
 90
1025
280
0
281
0
  0
CLASS
  1
ACDBSECTIONVIEWSTYLE
  2
AcDbSectionViewStyle
  3
ObjectDBX Classes
 90
1025
280
0
281
0
  0
CLASS
  1
RASTERVARIABLES
  2
AcDbRasterVariables
  3
ISM
 90
0
280
0
281
0
  0
CLASS
  1
ACDBPLACEHOLDER
  2
AcDbPlaceHolder
  3
ObjectDBX Classes
 90
0
280
0
281
0
  0
CLASS
  1
LAYOUT
  2
AcDbLayout
  3
ObjectDBX Classes
 90
0
280
0
281
0
  0
ENDSEC
  0
SECTION
  2
TABLES
  0
TABLE
  2
VPORT
  5
8
330
0
100
AcDbSymbolTable
 70
1
  0
VPORT
  5
23
330
8
100
AcDbSymbolTableRecord
100
AcDbViewportTableRecord
  2
*Active
 70
0
 10
0.0
 20
0.0
 11
1.0
 21
1.0
 12
0.0
 22
0.0
 13
0.0
 23
0.0
 14
0.5
 24
0.5
 15
0.5
 25
0.5
 16
0.0
 26
0.0
 36
1.0
 17
0.0
 27
0.0
 37
0.0
 40
1000.0
 41
1.34
 42
50.0
 43
0.0
 44
0.0
 50
0.0
 51
0.0
 71
0
 72
1000
 73
1
 74
3
 75
0
 76
0
 77
0
 78
0
281
0
 65
0
146
0.0
  0
ENDTAB
  0
TABLE
  2
LTYPE
  5
2
330
0
100
AcDbSymbolTable
 70
3
  0
LTYPE
  5
24
330
2
100
AcDbSymbolTableRecord
100
AcDbLinetypeTableRecord
  2
ByBlock
 70
0
  3

 72
65
 73
0
 40
0.0
  0
LTYPE
  5
25
330
2
100
AcDbSymbolTableRecord
100
AcDbLinetypeTableRecord
  2
ByLayer
 70
0
  3

 72
65
 73
0
 40
0.0
  0
LTYPE
  5
26
330
2
100
AcDbSymbolTableRecord
100
AcDbLinetypeTableRecord
  2
Continuous
 70
0
  3

 72
65
 73
0
 40
0.0
  0
ENDTAB
  0
TABLE
  2
LAYER
  5
1
330
0
100
AcDbSymbolTable
 70
2
  0
LAYER
  5
27
330
1
100
AcDbSymbolTableRecord
100
AcDbLayerTableRecord
  2
0
 70
0
 62
7
  6
Continuous
370
-3
390
13
  0
LAYER
  5
28
330
1
100
AcDbSymbolTableRecord
100
AcDbLayerTableRecord
  2
Defpoints
 70
0
 62
7
  6
Continuous
290
0
370
-3
390
13
  0
ENDTAB
  0
TABLE
  2
STYLE
  5
5
330
0
100
AcDbSymbolTable
 70
1
  0
STYLE
  5
29
330
5
100
AcDbSymbolTableRecord
100
AcDbTextStyleTableRecord
  2
Standard
 70
0
 40
0.0
 41
1.0
 50
0.0
 71
0
 42
2.5
  3
txt
  4

  0
ENDTAB
  0
TABLE
  2
VIEW
  5
7
330
0
100
AcDbSymbolTable
 70
0
  0
ENDTAB
  0
TABLE
  2
UCS
  5
6
330
0
100
AcDbSymbolTable
 70
0
  0
ENDTAB
  0
TABLE
  2
APPID
  5
3
330
0
100
AcDbSymbolTable
 70
3
  0
APPID
  5
2A
330
3
100
AcDbSymbolTableRecord
100
AcDbRegAppTableRecord
  2
ACAD
 70
0
  0
APPID
  5
266
330
3
100
AcDbSymbolTableRecord
100
AcDbRegAppTableRecord
  2
HATCHBACKGROUNDCOLOR
 70
0
  0
APPID
  5
267
330
3
100
AcDbSymbolTableRecord
100
AcDbRegAppTableRecord
  2
EZDXF
 70
0
  0
ENDTAB
  0
TABLE
  2
DIMSTYLE
  5
4
330
0
100
AcDbSymbolTable
 70
1
100
AcDbDimStyleTable
  0
DIMSTYLE
105
2B
330
4
100
AcDbSymbolTableRecord
100
AcDbDimStyleTableRecord
  2
Standard
 70
0
  3

  4

 40
1.0
 41
2.5
 42
0.625
 43
3.75
 44
1.25
 45
0.0
 46
0.0
 47
0.0
 48
0.0
140
2.5
141
2.5
142
0.0
143
0.03937007874
144
1.0
145
0.0
146
1.0
147
0.625
148
0.0
 71
0
 72
0
 73
0
 74
0
 75
0
 76
0
 77
1
 78
8
 79
3
170
0
171
3
172
1
173
0
174
0
175
0
176
0
177
0
178
0
179
2
271
2
272
2
273
2
274
3
275
0
276
0
277
2
278
44
279
0
280
0
281
0
282
0
283
0
284
8
285
0
286
0
288
0
289
3
371
-2
372
-2
  0
ENDTAB
  0
TABLE
  2
BLOCK_RECORD
  5
9
330
0
100
AcDbSymbolTable
 70
2
  0
BLOCK_RECORD
  5
17
330
9
100
AcDbSymbolTableRecord
100
AcDbBlockTableRecord
  2
*Model_Space
340
1A
  0
BLOCK_RECORD
  5
1B
330
9
100
AcDbSymbolTableRecord
100
AcDbBlockTableRecord
  2
*Paper_Space
340
1E
  0
ENDTAB
  0
ENDSEC
  0
SECTION
  2
BLOCKS
  0
BLOCK
  5
18
330
17
100
AcDbEntity
  8
0
100
AcDbBlockBegin
  2
*Model_Space
 70
0
 10
0.0
 20
0.0
 30
0.0
  3
*Model_Space
  1

  0
ENDBLK
  5
19
330
17
100
AcDbEntity
  8
0
100
AcDbBlockEnd
  0
BLOCK
  5
1C
330
1B
100
AcDbEntity
  8
0
100
AcDbBlockBegin
  2
*Paper_Space
 70
0
 10
0.0
 20
0.0
 30
0.0
  3
*Paper_Space
  1

  0
ENDBLK
  5
1D
330
1B
100
AcDbEntity
  8
0
100
AcDbBlockEnd
  0
ENDSEC
  0
SECTION
  2
ENTITIES
  0
LWPOLYLINE
  5
2F
330
17
100
AcDbEntity
  8
ROADS
100
AcDbPolyline
 90
2
 70
0
 10
618493.0488388182
 20
4832005.2783368975
 10
618434.9143280949
 20
4832183.080129151
  0
LWPOLYLINE
  5
30
330
17
100
AcDbEntity
  8
ROADS
100
AcDbPolyline
 90
2
 70
0
 10
618434.9143280949
 20
4832183.080129151
 10
618520.0050364713
 20
4832211.98863309
  0
LWPOLYLINE
  5
31
330
17
100
AcDbEntity
  8
ROADS
100
AcDbPolyline
 90
2
 70
0
 10
618576.4851459176
 20
4832039.798346885
 10
618520.0050364713
 20
4832211.98863309
  0
LWPOLYLINE
  5
32
330
17
100
AcDbEntity
  8
ROADS
100
AcDbPolyline
 90
2
 70
0
 10
618520.0050364713
 20
4832211.98863309
 10
618794.5580575607
 20
4832300.352008411
  0
LWPOLYLINE
  5
33
330
17
100
AcDbEntity
  8
ROADS
100
AcDbPolyline
 90
2
 70
0
 10
618753.3831511755
 20
4832428.843894423
 10
618794.5580575607
 20
4832300.352008411
  0
LWPOLYLINE
  5
34
330
17
100
AcDbEntity
  8
ROADS
100
AcDbPolyline
 90
2
 70
0
 10
618597.602513642
 20
4832385.204473929
 10
618753.3831511755
 20
4832428.843894423
  0
LWPOLYLINE
  5
35
330
17
100
AcDbEntity
  8
ROADS
100
AcDbPolyline
 90
2
 70
0
 10
617664.3179483889
 20
4832343.731909282
 10
617718.1668686877
 20
4832298.288385927
  0
LWPOLYLINE
  5
36
330
17
100
AcDbEntity
  8
ROADS
100
AcDbPolyline
 90
2
 70
0
 10
617610.1675122986
 20
4832380.182671255
 10
617664.3179483889
 20
4832343.731909282
  0
LWPOLYLINE
  5
37
330
17
100
AcDbEntity
  8
ROADS
100
AcDbPolyline
 90
4
 70
0
 10
617718.1668686877
 20
4832298.288385927
 10
617775.9101585998
 20
4832371.488212403
 10
617759.0300054487
 20
4832420.332846
 10
617728.6285786936
 20
4832437.622093787
  0
LWPOLYLINE
  5
38
330
17
100
AcDbEntity
  8
ROADS
100
AcDbPolyline
 90
2
 70
0
 10
617540.4536734788
 20
4832444.852132881
 10
617500.5753028193
 20
4832397.593264915
  0
LWPOLYLINE
  5
39
330
17
100
AcDbEntity
  8
ROADS
100
AcDbPolyline
 90
2
 70
0
 10
617728.6285786936
 20
4832437.622093787
 10
617664.3179483889
 20
4832343.731909282
  0
LWPOLYLINE
  5
3A
330
17
100
AcDbEntity
  8
ROADS
100
AcDbPolyline
 90
2
 70
0
 10
617540.4536734788
 20
4832444.852132881
 10
617610.1675122986
 20
4832380.182671255
  0
LWPOLYLINE
  5
3B
330
17
100
AcDbEntity
  8
ROADS
100
AcDbPolyline
 90
3
 70
0
 10
617841.3833567754
 20
4832412.276640029
 10
617806.984858797
 20
4832463.818826157
 10
617761.7229943322
 20
4832494.829014136
  0
LWPOLYLINE
  5
3C
330
17
100
AcDbEntity
  8
ROADS
100
AcDbPolyline
 90
2
 70
0
 10
617761.7229943322
 20
4832494.829014136
 10
617728.6285786936
 20
4832437.622093787
  0
LWPOLYLINE
  5
3D
330
17
100
AcDbEntity
  8
ROADS
100
AcDbPolyline
 90
2
 70
0
 10
617516.3498627214
 20
4832526.648285684
 10
617432.7151528229
 20
4832499.88299055
  0
LWPOLYLINE
  5
3E
330
17
100
AcDbEntity
  8
ROADS
100
AcDbPolyline
 90
2
 70
0
 10
617516.3498627214
 20
4832526.648285684
 10
617540.4536734788
 20
4832444.852132881
  0
LWPOLYLINE
  5
3F
330
17
100
AcDbEntity
  8
ROADS
100
AcDbPolyline
 90
2
 70
0
 10
618794.5580575607
 20
4832300.352008411
 10
618922.5961497615
 20
4832342.127402365
  0
LWPOLYLINE
  5
40
330
17
100
AcDbEntity
  8
ROADS
100
AcDbPolyline
 90
2
 70
0
 10
618434.9143280949
 20
4832183.080129151
 10
618392.1192938416
 20
4832324.06989374
  0
LWPOLYLINE
  5
41
330
17
100
AcDbEntity
  8
ROADS
100
AcDbPolyline
 90
2
 70
0
 10
618392.1192938416
 20
4832324.06989374
 10
618597.602513642
 20
4832385.204473929
  0
LWPOLYLINE
  5
42
330
17
100
AcDbEntity
  8
ROADS
100
AcDbPolyline
 90
2
 70
0
 10
618392.1192938416
 20
4832324.06989374
 10
618355.4928388472
 20
4832439.247171375
  0
LWPOLYLINE
  5
43
330
17
100
AcDbEntity
  8
ROADS
100
AcDbPolyline
 90
2
 70
0
 10
618355.4928388472
 20
4832439.247171375
 10
618337.6031187812
 20
4832484.134504232
  0
LWPOLYLINE
  5
44
330
17
100
AcDbEntity
  8
ROADS
100
AcDbPolyline
 90
2
 70
0
 10
618557.4958620652
 20
4832506.664657184
 10
618355.4928388472
 20
4832439.247171375
  0
LWPOLYLINE
  5
45
330
17
100
AcDbEntity
  8
ROADS
100
AcDbPolyline
 90
2
 70
0
 10
618292.3762719003
 20
4832503.185951062
 10
618337.6031187812
 20
4832484.134504232
  0
LWPOLYLINE
  5
46
330
17
100
AcDbEntity
  8
ROADS
100
AcDbPolyline
 90
2
 70
0
 10
618337.6031187812
 20
4832484.134504232
 10
618319.6625626828
 20
4832570.020362221
  0
LWPOLYLINE
  5
47
330
17
100
AcDbEntity
  8
ROADS
100
AcDbPolyline
 90
2
 70
0
 10
618337.6031187812
 20
4832484.134504232
 10
618298.1971720766
 20
4832577.249743694
  0
LWPOLYLINE
  5
48
330
17
100
AcDbEntity
  8
ROADS
100
AcDbPolyline
 90
3
 70
0
 10
618298.1971720766
 20
4832577.249743694
 10
618304.4032435626
 20
4832522.801964696
 10
618292.3762719003
 20
4832503.185951062
  0
LWPOLYLINE
  5
49
330
17
100
AcDbEntity
  8
ROADS
100
AcDbPolyline
 90
4
 70
0
 10
618264.6286583254
 20
4832691.98920477
 10
618248.4314400173
 20
4832662.971500546
 10
618268.230154072
 20
4832510.671905692
 10
618292.3762719003
 20
4832503.185951062
  0
LWPOLYLINE
  5
4A
330
17
100
AcDbEntity
  8
ROADS
100
AcDbPolyline
 90
2
 70
0
 10
618557.4958620652
 20
4832506.664657184
 10
618597.602513642
 20
4832385.204473929
  0
LWPOLYLINE
  5
4B
330
17
100
AcDbEntity
  8
ROADS
100
AcDbPolyline
 90
2
 70
0
 10
618753.3831511755
 20
4832428.843894423
 10
619078.3863252552
 20
4832529.278896937
  0
LWPOLYLINE
  5
4C
330
17
100
AcDbEntity
  8
ROADS
100
AcDbPolyline
 90
2
 70
0
 10
618709.2575810163
 20
4832555.491698315
 10
618557.4958620652
 20
4832506.664657184
  0
LWPOLYLINE
  5
4D
330
17
100
AcDbEntity
  8
ROADS
100
AcDbPolyline
 90
2
 70
0
 10
618515.4839312125
 20
4832634.028095987
 10
618557.4958620652
 20
4832506.664657184
  0
LWPOLYLINE
  5
4E
330
17
100
AcDbEntity
  8
ROADS
100
AcDbPolyline
 90
2
 70
0
 10
618654.1966893418
 20
4832679.421269353
 10
618709.2575810163
 20
4832555.491698315
  0
LWPOLYLINE
  5
4F
330
17
100
AcDbEntity
  8
ROADS
100
AcDbPolyline
 90
2
 70
0
 10
619115.9626149049
 20
4832688.395721891
 10
618709.2575810163
 20
4832555.491698315
  0
LWPOLYLINE
  5
50
330
17
100
AcDbEntity
  8
ROADS
100
AcDbPolyline
 90
2
 70
0
 10
618654.1966893418
 20
4832679.421269353
 10
618515.4839312125
 20
4832634.028095987
  0
LWPOLYLINE
  5
51
330
17
100
AcDbEntity
  8
ROADS
100
AcDbPolyline
 90
2
 70
0
 10
618666.5747423623
 20
4832683.649094784
 10
618654.1966893418
 20
4832679.421269353
  0
LWPOLYLINE
  5
52
330
17
100
AcDbEntity
  8
ROADS
100
AcDbPolyline
 90
2
 70
0
 10
618908.2721074084
 20
4832762.647502585
 10
618666.5747423623
 20
4832683.649094784
  0
LWPOLYLINE
  5
53
330
17
100
AcDbEntity
  8
ROADS
100
AcDbPolyline
 90
3
 70
0
 10
618654.1966893418
 20
4832679.421269353
 10
618604.1207068049
 20
4832800.015759014
 10
618473.5111155846
 20
4832762.102235983
  0
LWPOLYLINE
  5
54
330
17
100
AcDbEntity
  8
ROADS
100
AcDbPolyline
 90
2
 70
0
 10
618515.4839312125
 20
4832634.028095987
 10
618319.6625626828
 20
4832570.020362221
  0
LWPOLYLINE
  5
55
330
17
100
AcDbEntity
  8
ROADS
100
AcDbPolyline
 90
2
 70
0
 10
618319.6625626828
 20
4832570.020362221
 10
618277.2433059842
 20
4832698.397378082
  0
LWPOLYLINE
  5
56
330
17
100
AcDbEntity
  8
ROADS
100
AcDbPolyline
 90
2
 70
0
 10
618298.1971720766
 20
4832577.249743694
 10
618264.6286583254
 20
4832691.98920477
  0
LWPOLYLINE
  5
57
330
17
100
AcDbEntity
  8
ROADS
100
AcDbPolyline
 90
2
 70
0
 10
618277.2433059842
 20
4832698.397378082
 10
618264.6286583254
 20
4832691.98920477
  0
LWPOLYLINE
  5
58
330
17
100
AcDbEntity
  8
ROADS
100
AcDbPolyline
 90
2
 70
0
 10
618473.5111155846
 20
4832762.102235983
 10
618515.4839312125
 20
4832634.028095987
  0
LWPOLYLINE
  5
59
330
17
100
AcDbEntity
  8
ROADS
100
AcDbPolyline
 90
2
 70
0
 10
617925.8430306469
 20
4832765.307823352
 10
617846.5580034417
 20
4832635.055698441
  0
LWPOLYLINE
  5
5A
330
17
100
AcDbEntity
  8
ROADS
100
AcDbPolyline
 90
5
 70
0
 10
617925.8430306469
 20
4832765.307823352
 10
617966.9815402505
 20
4832731.047034415
 10
618034.0788489482
 20
4832631.988080812
 10
618060.1087498476
 20
4832643.996853883
 10
618201.6522978485
 20
4832812.582436144
  0
LWPOLYLINE
  5
5B
330
17
100
AcDbEntity
  8
ROADS
100
AcDbPolyline
 90
2
 70
0
 10
618264.6286583254
 20
4832691.98920477
 10
618244.4307490581
 20
4832761.451666037
  0
LWPOLYLINE
  5
5C
330
17
100
AcDbEntity
  8
ROADS
100
AcDbPolyline
 90
2
 70
0
 10
618473.5111155846
 20
4832762.102235983
 10
618277.2433059842
 20
4832698.397378082
  0
LWPOLYLINE
  5
5D
330
17
100
AcDbEntity
  8
ROADS
100
AcDbPolyline
 90
2
 70
0
 10
617956.461909103
 20
4832816.173858835
 10
617925.8430306469
 20
4832765.307823352
  0
LWPOLYLINE
  5
5E
330
17
100
AcDbEntity
  8
ROADS
100
AcDbPolyline
 90
2
 70
0
 10
617461.1050237718
 20
4832700.972745528
 10
617472.7079382503
 20
4832662.039134355
  0
LWPOLYLINE
  5
5F
330
17
100
AcDbEntity
  8
ROADS
100
AcDbPolyline
 90
2
 70
0
 10
617717.8895136572
 20
4832786.30774085
 10
617788.6967342087
 20
4832673.202436664
  0
LWPOLYLINE
  5
60
330
17
100
AcDbEntity
  8
ROADS
100
AcDbPolyline
 90
2
 70
0
 10
617461.1050237718
 20
4832700.972745528
 10
617638.8731832036
 20
4832759.616995569
  0
LWPOLYLINE
  5
61
330
17
100
AcDbEntity
  8
ROADS
100
AcDbPolyline
 90
2
 70
0
 10
617435.7600296221
 20
4832780.117346262
 10
617461.1050237718
 20
4832700.972745528
  0
LWPOLYLINE
  5
62
330
17
100
AcDbEntity
  8
ROADS
100
AcDbPolyline
 90
3
 70
0
 10
617343.151146074
 20
4832751.720946646
 10
617364.0012080895
 20
4832727.460925378
 10
617366.7157076874
 20
4832759.037003302
  0
LWPOLYLINE
  5
63
330
17
100
AcDbEntity
  8
ROADS
100
AcDbPolyline
 90
2
 70
0
 10
617343.151146074
 20
4832751.720946646
 10
617366.7157076874
 20
4832759.037003302
  0
LWPOLYLINE
  5
64
330
17
100
AcDbEntity
  8
ROADS
100
AcDbPolyline
 90
2
 70
0
 10
617366.7157076874
 20
4832759.037003302
 10
617435.7600296221
 20
4832780.117346262
  0
LWPOLYLINE
  5
65
330
17
100
AcDbEntity
  8
ROADS
100
AcDbPolyline
 90
2
 70
0
 10
617638.8731832036
 20
4832759.616995569
 10
617717.8895136572
 20
4832786.30774085
  0
LWPOLYLINE
  5
66
330
17
100
AcDbEntity
  8
ROADS
100
AcDbPolyline
 90
2
 70
0
 10
617399.609260037
 20
4832893.20677511
 10
617435.7600296221
 20
4832780.117346262
  0
LWPOLYLINE
  5
67
330
17
100
AcDbEntity
  8
ROADS
100
AcDbPolyline
 90
2
 70
0
 10
617557.0517224406
 20
4832944.931585007
 10
617638.8731832036
 20
4832759.616995569
  0
LWPOLYLINE
  5
68
330
17
100
AcDbEntity
  8
ROADS
100
AcDbPolyline
 90
2
 70
0
 10
618908.2721074084
 20
4832762.647502585
 10
618898.5346411113
 20
4832793.034670362
  0
LWPOLYLINE
  5
69
330
17
100
AcDbEntity
  8
ROADS
100
AcDbPolyline
 90
2
 70
0
 10
619007.7525420788
 20
4832795.091352181
 10
618908.2721074084
 20
4832762.647502585
  0
LWPOLYLINE
  5
6A
330
17
100
AcDbEntity
  8
ROADS
100
AcDbPolyline
 90
2
 70
0
 10
618898.5346411113
 20
4832793.034670362
 10
618890.6133985829
 20
4832817.60244081
  0
LWPOLYLINE
  5
6B
330
17
100
AcDbEntity
  8
ROADS
100
AcDbPolyline
 90
2
 70
0
 10
619073.4276428232
 20
4832816.250919181
 10
619007.7525420788
 20
4832795.091352181
  0
LWPOLYLINE
  5
6C
330
17
100
AcDbEntity
  8
ROADS
100
AcDbPolyline
 90
2
 70
0
 10
618996.6776509903
 20
4832826.716406521
 10
618898.5346411113
 20
4832793.034670362
  0
LWPOLYLINE
  5
6D
330
17
100
AcDbEntity
  8
ROADS
100
AcDbPolyline
 90
2
 70
0
 10
619007.7525420788
 20
4832795.091352181
 10
618996.6776509903
 20
4832826.716406521
  0
LWPOLYLINE
  5
6E
330
17
100
AcDbEntity
  8
ROADS
100
AcDbPolyline
 90
2
 70
0
 10
618890.6133985829
 20
4832817.60244081
 10
618884.2484573732
 20
4832837.342154506
  0
LWPOLYLINE
  5
6F
330
17
100
AcDbEntity
  8
ROADS
100
AcDbPolyline
 90
2
 70
0
 10
618884.2484573732
 20
4832837.342154506
 10
618849.7805616509
 20
4832823.375787427
  0
LWPOLYLINE
  5
70
330
17
100
AcDbEntity
  8
ROADS
100
AcDbPolyline
 90
2
 70
0
 10
618996.6776509903
 20
4832826.716406521
 10
619023.4805324769
 20
4832836.850125783
  0
LWPOLYLINE
  5
71
330
17
100
AcDbEntity
  8
ROADS
100
AcDbPolyline
 90
2
 70
0
 10
618989.0556109068
 20
4832850.0005422495
 10
618890.6133985829
 20
4832817.60244081
  0
LWPOLYLINE
  5
72
330
17
100
AcDbEntity
  8
ROADS
100
AcDbPolyline
 90
2
 70
0
 10
618244.4307490581
 20
4832761.451666037
 10
618224.1128808255
 20
4832831.906986292
  0
LWPOLYLINE
  5
73
330
17
100
AcDbEntity
  8
ROADS
100
AcDbPolyline
 90
3
 70
0
 10
618099.3107512286
 20
4832849.243350526
 10
618031.2156523685
 20
4832757.172659148
 10
617956.461909103
 20
4832816.173858835
  0
LWPOLYLINE
  5
74
330
17
100
AcDbEntity
  8
ROADS
100
AcDbPolyline
 90
2
 70
0
 10
618224.1128808255
 20
4832831.906986292
 10
618201.6522978485
 20
4832812.582436144
  0
LWPOLYLINE
  5
75
330
17
100
AcDbEntity
  8
ROADS
100
AcDbPolyline
 90
2
 70
0
 10
618224.1128808255
 20
4832831.906986292
 10
618253.2918273304
 20
4832875.6288010795
  0
LWPOLYLINE
  5
76
330
17
100
AcDbEntity
  8
ROADS
100
AcDbPolyline
 90
2
 70
0
 10
618147.664787726
 20
4832898.225841119
 10
618201.6522978485
 20
4832812.582436144
  0
LWPOLYLINE
  5
77
330
17
100
AcDbEntity
  8
ROADS
100
AcDbPolyline
 90
2
 70
0
 10
618099.3107512286
 20
4832849.243350526
 10
618099.9111351237
 20
4832870.666943043
  0
LWPOLYLINE
  5
78
330
17
100
AcDbEntity
  8
ROADS
100
AcDbPolyline
 90
2
 70
0
 10
618028.1990049528
 20
4832910.214423768
 10
617956.461909103
 20
4832816.173858835
  0
LWPOLYLINE
  5
79
330
17
100
AcDbEntity
  8
ROADS
100
AcDbPolyline
 90
2
 70
0
 10
618099.3107512286
 20
4832849.243350526
 10
618063.2586161782
 20
4832880.032933147
  0
LWPOLYLINE
  5
7A
330
17
100
AcDbEntity
  8
ROADS
100
AcDbPolyline
 90
2
 70
0
 10
618147.664787726
 20
4832898.225841119
 10
618099.3107512286
 20
4832849.243350526
  0
LWPOLYLINE
  5
7B
330
17
100
AcDbEntity
  8
ROADS
100
AcDbPolyline
 90
2
 70
0
 10
618224.1128808255
 20
4832831.906986292
 10
618195.2814116504
 20
4832924.790235945
  0
LWPOLYLINE
  5
7C
330
17
100
AcDbEntity
  8
ROADS
100
AcDbPolyline
 90
2
 70
0
 10
617356.1087834112
 20
4832878.822222676
 10
617311.496156459
 20
4832863.852660042
  0
LWPOLYLINE
  5
7D
330
17
100
AcDbEntity
  8
ROADS
100
AcDbPolyline
 90
2
 70
0
 10
617622.4606023959
 20
4832966.529299022
 10
617717.8895136572
 20
4832786.30774085
  0
LWPOLYLINE
  5
7E
330
17
100
AcDbEntity
  8
ROADS
100
AcDbPolyline
 90
4
 70
0
 10
617712.1809522404
 20
4832996.004617849
 10
617732.3238073048
 20
4832937.613657576
 10
617833.8884157011
 20
4832809.384668121
 10
617925.8430306469
 20
4832765.307823352
  0
LWPOLYLINE
  5
7F
330
17
100
AcDbEntity
  8
ROADS
100
AcDbPolyline
 90
2
 70
0
 10
617399.609260037
 20
4832893.20677511
 10
617356.1087834112
 20
4832878.822222676
  0
LWPOLYLINE
  5
80
330
17
100
AcDbEntity
  8
ROADS
100
AcDbPolyline
 90
2
 70
0
 10
617557.0517224406
 20
4832944.931585007
 10
617399.609260037
 20
4832893.20677511
  0
LWPOLYLINE
  5
81
330
17
100
AcDbEntity
  8
ROADS
100
AcDbPolyline
 90
3
 70
0
 10
617798.4417340114
 20
4833025.561436601
 10
617886.1116717474
 20
4832868.0723644495
 10
617956.461909103
 20
4832816.173858835
  0
LWPOLYLINE
  5
82
330
17
100
AcDbEntity
  8
ROADS
100
AcDbPolyline
 90
2
 70
0
 10
617580.2327028902
 20
4832952.611740099
 10
617557.0517224406
 20
4832944.931585007
  0
LWPOLYLINE
  5
83
330
17
100
AcDbEntity
  8
ROADS
100
AcDbPolyline
 90
2
 70
0
 10
617622.4606023959
 20
4832966.529299022
 10
617580.2327028902
 20
4832952.611740099
  0
LWPOLYLINE
  5
84
330
17
100
AcDbEntity
  8
ROADS
100
AcDbPolyline
 90
2
 70
0
 10
617712.1809522404
 20
4832996.004617849
 10
617622.4606023959
 20
4832966.529299022
  0
LWPOLYLINE
  5
85
330
17
100
AcDbEntity
  8
ROADS
100
AcDbPolyline
 90
2
 70
0
 10
617580.2327028902
 20
4832952.611740099
 10
617556.7953566338
 20
4833019.601422406
  0
LWPOLYLINE
  5
86
330
17
100
AcDbEntity
  8
ROADS
100
AcDbPolyline
 90
2
 70
0
 10
619246.6790311201
 20
4832731.603587063
 10
619115.9626149049
 20
4832688.395721891
  0
LWPOLYLINE
  5
87
330
17
100
AcDbEntity
  8
ROADS
100
AcDbPolyline
 90
2
 70
0
 10
619073.4276428232
 20
4832816.250919181
 10
619115.9626149049
 20
4832688.395721891
  0
LWPOLYLINE
  5
88
330
17
100
AcDbEntity
  8
ROADS
100
AcDbPolyline
 90
2
 70
0
 10
619303.0909625614
 20
4832799.507025775
 10
619276.09230662
 20
4832882.87969541
  0
LWPOLYLINE
  5
89
330
17
100
AcDbEntity
  8
ROADS
100
AcDbPolyline
 90
2
 70
0
 10
619276.09230662
 20
4832882.87969541
 10
619073.4276428232
 20
4832816.250919181
  0
LWPOLYLINE
  5
8A
330
17
100
AcDbEntity
  8
ROADS
100
AcDbPolyline
 90
2
 70
0
 10
619378.6526701024
 20
4832907.897864533
 10
619367.2063998628
 20
4832938.553655762
  0
LWPOLYLINE
  5
8B
330
17
100
AcDbEntity
  8
ROADS
100
AcDbPolyline
 90
3
 70
0
 10
619276.09230662
 20
4832882.87969541
 10
619281.0444687294
 20
4832907.56212701
 10
619367.2063998628
 20
4832938.553655762
  0
LWPOLYLINE
  5
8C
330
17
100
AcDbEntity
  8
ROADS
100
AcDbPolyline
 90
2
 70
0
 10
619276.09230662
 20
4832882.87969541
 10
619236.7601358157
 20
4833011.30083003
  0
LWPOLYLINE
  5
8D
330
17
100
AcDbEntity
  8
ROADS
100
AcDbPolyline
 90
2
 70
0
 10
619413.6402093011
 20
4833087.207155896
 10
619434.4725529217
 20
4833021.797222808
  0
LWPOLYLINE
  5
8E
330
17
100
AcDbEntity
  8
ROADS
100
AcDbPolyline
 90
2
 70
0
 10
619236.7601358157
 20
4833011.30083003
 10
619024.2196930929
 20
4832941.432398776
  0
LWPOLYLINE
  5
8F
330
17
100
AcDbEntity
  8
ROADS
100
AcDbPolyline
 90
2
 70
0
 10
619322.6200707235
 20
4833057.969192053
 10
619367.2063998628
 20
4832938.553655762
  0
LWPOLYLINE
  5
90
330
17
100
AcDbEntity
  8
ROADS
100
AcDbPolyline
 90
2
 70
0
 10
619236.7601358157
 20
4833011.30083003
 10
619232.9697446036
 20
4833026.642918076
  0
LWPOLYLINE
  5
91
330
17
100
AcDbEntity
  8
ROADS
100
AcDbPolyline
 90
2
 70
0
 10
619232.9697446036
 20
4833026.642918076
 10
619322.6200707235
 20
4833057.969192053
  0
LWPOLYLINE
  5
92
330
17
100
AcDbEntity
  8
ROADS
100
AcDbPolyline
 90
2
 70
0
 10
619322.6200707235
 20
4833057.969192053
 10
619413.6402093011
 20
4833087.207155896
  0
LWPOLYLINE
  5
93
330
17
100
AcDbEntity
  8
ROADS
100
AcDbPolyline
 90
2
 70
0
 10
619232.9697446036
 20
4833026.642918076
 10
619201.5911229651
 20
4833118.968380987
  0
LWPOLYLINE
  5
94
330
17
100
AcDbEntity
  8
ROADS
100
AcDbPolyline
 90
2
 70
0
 10
619112.128349008
 20
4833092.981692001
 10
619022.4724043946
 20
4833064.072416209
  0
LWPOLYLINE
  5
95
330
17
100
AcDbEntity
  8
ROADS
100
AcDbPolyline
 90
2
 70
0
 10
619293.8502391963
 20
4833145.994656921
 10
619322.6200707235
 20
4833057.969192053
  0
LWPOLYLINE
  5
96
330
17
100
AcDbEntity
  8
ROADS
100
AcDbPolyline
 90
2
 70
0
 10
619413.6402093011
 20
4833087.207155896
 10
619461.1223314159
 20
4833102.3356878925
  0
LWPOLYLINE
  5
97
330
17
100
AcDbEntity
  8
ROADS
100
AcDbPolyline
 90
2
 70
0
 10
619201.5911229651
 20
4833118.968380987
 10
619112.128349008
 20
4833092.981692001
  0
LWPOLYLINE
  5
98
330
17
100
AcDbEntity
  8
ROADS
100
AcDbPolyline
 90
2
 70
0
 10
619248.3276894074
 20
4833130.877425457
 10
619261.2444260804
 20
4833089.970286995
  0
LWPOLYLINE
  5
99
330
17
100
AcDbEntity
  8
ROADS
100
AcDbPolyline
 90
2
 70
0
 10
619248.3276894074
 20
4833130.877425457
 10
619201.5911229651
 20
4833118.968380987
  0
LWPOLYLINE
  5
9A
330
17
100
AcDbEntity
  8
ROADS
100
AcDbPolyline
 90
2
 70
0
 10
619384.2670240385
 20
4833175.028731055
 10
619413.6402093011
 20
4833087.207155896
  0
LWPOLYLINE
  5
9B
330
17
100
AcDbEntity
  8
ROADS
100
AcDbPolyline
 90
2
 70
0
 10
619293.8502391963
 20
4833145.994656921
 10
619248.3276894074
 20
4833130.877425457
  0
LWPOLYLINE
  5
9C
330
17
100
AcDbEntity
  8
ROADS
100
AcDbPolyline
 90
2
 70
0
 10
619482.1216318746
 20
4833205.244603795
 10
619473.9207610957
 20
4833202.736979524
  0
LWPOLYLINE
  5
9D
330
17
100
AcDbEntity
  8
ROADS
100
AcDbPolyline
 90
2
 70
0
 10
619384.2670240385
 20
4833175.028731055
 10
619293.8502391963
 20
4833145.994656921
  0
LWPOLYLINE
  5
9E
330
17
100
AcDbEntity
  8
ROADS
100
AcDbPolyline
 90
2
 70
0
 10
619064.1309397726
 20
4833244.081997951
 10
619112.128349008
 20
4833092.981692001
  0
LWPOLYLINE
  5
9F
330
17
100
AcDbEntity
  8
ROADS
100
AcDbPolyline
 90
2
 70
0
 10
619473.9207610957
 20
4833202.736979524
 10
619384.2670240385
 20
4833175.028731055
  0
LWPOLYLINE
  5
A0
330
17
100
AcDbEntity
  8
ROADS
100
AcDbPolyline
 90
2
 70
0
 10
619201.5911229651
 20
4833118.968380987
 10
619152.3804126809
 20
4833272.792900534
  0
LWPOLYLINE
  5
A1
330
17
100
AcDbEntity
  8
ROADS
100
AcDbPolyline
 90
2
 70
0
 10
619243.1985682386
 20
4833304.239342916
 10
619293.8502391963
 20
4833145.994656921
  0
LWPOLYLINE
  5
A2
330
17
100
AcDbEntity
  8
ROADS
100
AcDbPolyline
 90
2
 70
0
 10
619333.2132609354
 20
4833333.2761892835
 10
619384.2670240385
 20
4833175.028731055
  0
LWPOLYLINE
  5
A3
330
17
100
AcDbEntity
  8
ROADS
100
AcDbPolyline
 90
2
 70
0
 10
619152.3804126809
 20
4833272.792900534
 10
619064.1309397726
 20
4833244.081997951
  0
LWPOLYLINE
  5
A4
330
17
100
AcDbEntity
  8
ROADS
100
AcDbPolyline
 90
2
 70
0
 10
619421.5802873286
 20
4833361.628247701
 10
619473.9207610957
 20
4833202.736979524
  0
LWPOLYLINE
  5
A5
330
17
100
AcDbEntity
  8
ROADS
100
AcDbPolyline
 90
2
 70
0
 10
619243.1985682386
 20
4833304.239342916
 10
619152.3804126809
 20
4833272.792900534
  0
LWPOLYLINE
  5
A6
330
17
100
AcDbEntity
  8
ROADS
100
AcDbPolyline
 90
2
 70
0
 10
619333.2132609354
 20
4833333.2761892835
 10
619243.1985682386
 20
4833304.239342916
  0
LWPOLYLINE
  5
A7
330
17
100
AcDbEntity
  8
ROADS
100
AcDbPolyline
 90
2
 70
0
 10
619509.4616478557
 20
4833392.230631235
 10
619517.6710017284
 20
4833367.397829608
  0
LWPOLYLINE
  5
A8
330
17
100
AcDbEntity
  8
ROADS
100
AcDbPolyline
 90
2
 70
0
 10
619524.7844082873
 20
4833396.925514712
 10
619509.4616478557
 20
4833392.230631235
  0
LWPOLYLINE
  5
A9
330
17
100
AcDbEntity
  8
ROADS
100
AcDbPolyline
 90
2
 70
0
 10
619421.5802873286
 20
4833361.628247701
 10
619333.2132609354
 20
4833333.2761892835
  0
LWPOLYLINE
  5
AA
330
17
100
AcDbEntity
  8
ROADS
100
AcDbPolyline
 90
2
 70
0
 10
619152.3804126809
 20
4833272.792900534
 10
619100.8237489711
 20
4833424.3653946705
  0
LWPOLYLINE
  5
AB
330
17
100
AcDbEntity
  8
ROADS
100
AcDbPolyline
 90
2
 70
0
 10
619509.4616478557
 20
4833392.230631235
 10
619421.5802873286
 20
4833361.628247701
  0
LWPOLYLINE
  5
AC
330
17
100
AcDbEntity
  8
ROADS
100
AcDbPolyline
 90
2
 70
0
 10
619192.2851454425
 20
4833455.992005408
 10
619243.1985682386
 20
4833304.239342916
  0
LWPOLYLINE
  5
AD
330
17
100
AcDbEntity
  8
ROADS
100
AcDbPolyline
 90
2
 70
0
 10
619013.5412680055
 20
4833393.583354266
 10
619100.8237489711
 20
4833424.3653946705
  0
LWPOLYLINE
  5
AE
330
17
100
AcDbEntity
  8
ROADS
100
AcDbPolyline
 90
2
 70
0
 10
619283.3225581832
 20
4833485.598393303
 10
619333.2132609354
 20
4833333.2761892835
  0
LWPOLYLINE
  5
AF
330
17
100
AcDbEntity
  8
ROADS
100
AcDbPolyline
 90
2
 70
0
 10
619371.5585963347
 20
4833513.94812068
 10
619421.5802873286
 20
4833361.628247701
  0
LWPOLYLINE
  5
B0
330
17
100
AcDbEntity
  8
ROADS
100
AcDbPolyline
 90
2
 70
0
 10
619100.8237489711
 20
4833424.3653946705
 10
619192.2851454425
 20
4833455.992005408
  0
LWPOLYLINE
  5
B1
330
17
100
AcDbEntity
  8
ROADS
100
AcDbPolyline
 90
2
 70
0
 10
619100.8237489711
 20
4833424.3653946705
 10
619086.9442650287
 20
4833465.171598476
  0
LWPOLYLINE
  5
B2
330
17
100
AcDbEntity
  8
ROADS
100
AcDbPolyline
 90
2
 70
0
 10
619283.3225581832
 20
4833485.598393303
 10
619192.2851454425
 20
4833455.992005408
  0
LWPOLYLINE
  5
B3
330
17
100
AcDbEntity
  8
ROADS
100
AcDbPolyline
 90
2
 70
0
 10
619178.3563813679
 20
4833497.504855354
 10
619192.2851454425
 20
4833455.992005408
  0
LWPOLYLINE
  5
B4
330
17
100
AcDbEntity
  8
ROADS
100
AcDbPolyline
 90
2
 70
0
 10
619178.3563813679
 20
4833497.504855354
 10
619086.9442650287
 20
4833465.171598476
  0
LWPOLYLINE
  5
B5
330
17
100
AcDbEntity
  8
ROADS
100
AcDbPolyline
 90
2
 70
0
 10
619283.3225581832
 20
4833485.598393303
 10
619371.5585963347
 20
4833513.94812068
  0
LWPOLYLINE
  5
B6
330
17
100
AcDbEntity
  8
ROADS
100
AcDbPolyline
 90
2
 70
0
 10
619268.998832291
 20
4833529.32119988
 10
619283.3225581832
 20
4833485.598393303
  0
LWPOLYLINE
  5
B7
330
17
100
AcDbEntity
  8
ROADS
100
AcDbPolyline
 90
2
 70
0
 10
619268.998832291
 20
4833529.32119988
 10
619178.3563813679
 20
4833497.504855354
  0
LWPOLYLINE
  5
B8
330
17
100
AcDbEntity
  8
ROADS
100
AcDbPolyline
 90
2
 70
0
 10
619086.9442650287
 20
4833465.171598476
 10
619055.4549245513
 20
4833562.787180037
  0
LWPOLYLINE
  5
B9
330
17
100
AcDbEntity
  8
ROADS
100
AcDbPolyline
 90
2
 70
0
 10
619460.8900380455
 20
4833543.053688611
 10
619471.0838084246
 20
4833510.552654673
  0
LWPOLYLINE
  5
BA
330
17
100
AcDbEntity
  8
ROADS
100
AcDbPolyline
 90
2
 70
0
 10
619371.5585963347
 20
4833513.94812068
 10
619460.8900380455
 20
4833543.053688611
  0
LWPOLYLINE
  5
BB
330
17
100
AcDbEntity
  8
ROADS
100
AcDbPolyline
 90
2
 70
0
 10
619357.8641880243
 20
4833557.322297659
 10
619371.5585963347
 20
4833513.94812068
  0
LWPOLYLINE
  5
BC
330
17
100
AcDbEntity
  8
ROADS
100
AcDbPolyline
 90
2
 70
0
 10
619357.8641880243
 20
4833557.322297659
 10
619268.998832291
 20
4833529.32119988
  0
LWPOLYLINE
  5
BD
330
17
100
AcDbEntity
  8
ROADS
100
AcDbPolyline
 90
2
 70
0
 10
619471.0838084246
 20
4833510.552654673
 10
619509.4616478557
 20
4833392.230631235
  0
LWPOLYLINE
  5
BE
330
17
100
AcDbEntity
  8
ROADS
100
AcDbPolyline
 90
2
 70
0
 10
619471.0838084246
 20
4833510.552654673
 10
619537.4715470457
 20
4833514.105054433
  0
LWPOLYLINE
  5
BF
330
17
100
AcDbEntity
  8
ROADS
100
AcDbPolyline
 90
2
 70
0
 10
619460.8900380455
 20
4833543.053688611
 10
619538.5690552891
 20
4833567.954971424
  0
LWPOLYLINE
  5
C0
330
17
100
AcDbEntity
  8
ROADS
100
AcDbPolyline
 90
2
 70
0
 10
619535.3774431777
 20
4833614.857474242
 10
619447.2352684375
 20
4833585.617561054
  0
LWPOLYLINE
  5
C1
330
17
100
AcDbEntity
  8
ROADS
100
AcDbPolyline
 90
2
 70
0
 10
619447.2352684375
 20
4833585.617561054
 10
619460.8900380455
 20
4833543.053688611
  0
LWPOLYLINE
  5
C2
330
17
100
AcDbEntity
  8
ROADS
100
AcDbPolyline
 90
2
 70
0
 10
619447.2352684375
 20
4833585.617561054
 10
619357.8641880243
 20
4833557.322297659
  0
LWPOLYLINE
  5
C3
330
17
100
AcDbEntity
  8
ROADS
100
AcDbPolyline
 90
2
 70
0
 10
619200.468941286
 20
4833610.121762999
 10
619055.4549245513
 20
4833562.787180037
  0
LWPOLYLINE
  5
C4
330
17
100
AcDbEntity
  8
ROADS
100
AcDbPolyline
 90
3
 70
0
 10
619447.2352684375
 20
4833585.617561054
 10
619407.9075093487
 20
4833636.148754993
 10
619339.1115833018
 20
4833639.926563073
  0
LWPOLYLINE
  5
C5
330
17
100
AcDbEntity
  8
ROADS
100
AcDbPolyline
 90
2
 70
0
 10
619339.1115833018
 20
4833639.926563073
 10
619200.468941286
 20
4833610.121762999
  0
LWPOLYLINE
  5
C6
330
17
100
AcDbEntity
  8
ROADS
100
AcDbPolyline
 90
3
 70
0
 10
619200.468941286
 20
4833610.121762999
 10
619175.2648789376
 20
4833668.170458023
 10
619131.7187428505
 20
4833706.541902181
  0
LWPOLYLINE
  5
C7
330
17
100
AcDbEntity
  8
ROADS
100
AcDbPolyline
 90
3
 70
0
 10
619339.9524221594
 20
4833717.345734409
 10
619472.202175361
 20
4833711.05764932
 10
619534.5693225506
 20
4833670.693485804
  0
LWPOLYLINE
  5
C8
330
17
100
AcDbEntity
  8
ROADS
100
AcDbPolyline
 90
2
 70
0
 10
619339.1115833018
 20
4833639.926563073
 10
619339.9524221594
 20
4833717.345734409
  0
LWPOLYLINE
  5
C9
330
17
100
AcDbEntity
  8
ROADS
100
AcDbPolyline
 90
2
 70
0
 10
619269.2290033997
 20
4833779.299912641
 10
619339.9524221594
 20
4833717.345734409
  0
LWPOLYLINE
  5
CA
330
17
100
AcDbEntity
  8
ROADS
100
AcDbPolyline
 90
3
 70
0
 10
619220.091927963
 20
4833781.302921618
 10
619254.1030587142
 20
4833764.71298058
 10
619269.2290033997
 20
4833779.299912641
  0
LWPOLYLINE
  5
CB
330
17
100
AcDbEntity
  8
ROADS
100
AcDbPolyline
 90
2
 70
0
 10
619220.091927963
 20
4833781.302921618
 10
619205.5359884995
 20
4833782.098878458
  0
LWPOLYLINE
  5
CC
330
17
100
AcDbEntity
  8
ROADS
100
AcDbPolyline
 90
2
 70
0
 10
619245.6485121605
 20
4833788.6280921325
 10
619269.2290033997
 20
4833779.299912641
  0
LWPOLYLINE
  5
CD
330
17
100
AcDbEntity
  8
ROADS
100
AcDbPolyline
 90
2
 70
0
 10
619220.091927963
 20
4833781.302921618
 10
619222.5373968773
 20
4833799.15379907
  0
LWPOLYLINE
  5
CE
330
17
100
AcDbEntity
  8
ROADS
100
AcDbPolyline
 90
2
 70
0
 10
619222.5373968773
 20
4833799.15379907
 10
619245.6485121605
 20
4833788.6280921325
  0
LWPOLYLINE
  5
CF
330
17
100
AcDbEntity
  8
ROADS
100
AcDbPolyline
 90
2
 70
0
 10
619236.6064726238
 20
4833815.003678314
 10
619245.6485121605
 20
4833788.6280921325
  0
LWPOLYLINE
  5
D0
330
17
100
AcDbEntity
  8
ROADS
100
AcDbPolyline
 90
2
 70
0
 10
619212.4324280742
 20
4833805.604414175
 10
619222.5373968773
 20
4833799.15379907
  0
LWPOLYLINE
  5
D1
330
17
100
AcDbEntity
  8
ROADS
100
AcDbPolyline
 90
2
 70
0
 10
619236.6064726238
 20
4833815.003678314
 10
619212.4324280742
 20
4833805.604414175
  0
LWPOLYLINE
  5
D2
330
17
100
AcDbEntity
  8
ROADS
100
AcDbPolyline
 90
2
 70
0
 10
619154.4427163769
 20
4833858.085334278
 10
619212.4324280742
 20
4833805.604414175
  0
LWPOLYLINE
  5
D3
330
17
100
AcDbEntity
  8
ROADS
100
AcDbPolyline
 90
2
 70
0
 10
619267.7088538331
 20
4833874.749086649
 10
619236.6064726238
 20
4833815.003678314
  0
LWPOLYLINE
  5
D4
330
17
100
AcDbEntity
  8
ROADS
100
AcDbPolyline
 90
2
 70
0
 10
619293.4573231477
 20
4833863.933038534
 10
619384.7910731366
 20
4833848.20615337
  0
LWPOLYLINE
  5
D5
330
17
100
AcDbEntity
  8
ROADS
100
AcDbPolyline
 90
2
 70
0
 10
619622.311576298
 20
4833837.939996164
 10
619514.2733519268
 20
4833910.575775492
  0
LWPOLYLINE
  5
D6
330
17
100
AcDbEntity
  8
ROADS
100
AcDbPolyline
 90
2
 70
0
 10
619655.0218281924
 20
4833936.518991397
 10
619646.5524541615
 20
4833960.182491981
  0
LWPOLYLINE
  5
D7
330
17
100
AcDbEntity
  8
ROADS
100
AcDbPolyline
 90
2
 70
0
 10
619646.5524541615
 20
4833960.182491981
 10
619514.2733519268
 20
4833910.575775492
  0
LWPOLYLINE
  5
D8
330
17
100
AcDbEntity
  8
ROADS
100
AcDbPolyline
 90
2
 70
0
 10
619671.2114193549
 20
4833968.471692454
 10
619646.5524541615
 20
4833960.182491981
  0
LWPOLYLINE
  5
D9
330
17
100
AcDbEntity
  8
ROADS
100
AcDbPolyline
 90
3
 70
0
 10
619620.1637766632
 20
4834043.2658122135
 10
619479.3637542281
 20
4833997.704217537
 10
619446.8162526302
 20
4833957.216887857
  0
LWPOLYLINE
  5
DA
330
17
100
AcDbEntity
  8
ROADS
100
AcDbPolyline
 90
2
 70
0
 10
619646.5524541615
 20
4833960.182491981
 10
619620.1637766632
 20
4834043.2658122135
  0
LWPOLYLINE
  5
DB
330
17
100
AcDbEntity
  8
ROADS
100
AcDbPolyline
 90
2
 70
0
 10
619267.7088538331
 20
4833874.749086649
 10
619293.4573231477
 20
4833863.933038534
  0
LWPOLYLINE
  5
DC
330
17
100
AcDbEntity
  8
ROADS
100
AcDbPolyline
 90
2
 70
0
 10
619090.8045261182
 20
4833894.701549468
 10
619154.4427163769
 20
4833858.085334278
  0
LWPOLYLINE
  5
DD
330
17
100
AcDbEntity
  8
ROADS
100
AcDbPolyline
 90
2
 70
0
 10
619293.4573231477
 20
4833863.933038534
 10
619288.339095709
 20
4833896.855794612
  0
LWPOLYLINE
  5
DE
330
17
100
AcDbEntity
  8
ROADS
100
AcDbPolyline
 90
2
 70
0
 10
619514.2733519268
 20
4833910.575775492
 10
619446.8162526302
 20
4833957.216887857
  0
LWPOLYLINE
  5
DF
330
17
100
AcDbEntity
  8
ROADS
100
AcDbPolyline
 90
2
 70
0
 10
619356.8666648372
 20
4834016.645946107
 10
619267.7088538331
 20
4833874.749086649
  0
LWPOLYLINE
  5
E0
330
17
100
AcDbEntity
  8
ROADS
100
AcDbPolyline
 90
2
 70
0
 10
619446.8162526302
 20
4833957.216887857
 10
619383.6115862735
 20
4833998.559635139
  0
LWPOLYLINE
  5
E1
330
17
100
AcDbEntity
  8
ROADS
100
AcDbPolyline
 90
2
 70
0
 10
619383.6115862735
 20
4833998.559635139
 10
619356.8666648372
 20
4834016.645946107
  0
LWPOLYLINE
  5
E2
330
17
100
AcDbEntity
  8
ROADS
100
AcDbPolyline
 90
2
 70
0
 10
619432.4221696296
 20
4834067.570505274
 10
619383.6115862735
 20
4833998.559635139
  0
LWPOLYLINE
  5
E3
330
17
100
AcDbEntity
  8
ROADS
100
AcDbPolyline
 90
2
 70
0
 10
619356.8666648372
 20
4834016.645946107
 10
619299.6440700423
 20
4834055.3421900235
  0
LWPOLYLINE
  5
E4
330
17
100
AcDbEntity
  8
ROADS
100
AcDbPolyline
 90
2
 70
0
 10
619299.6440700423
 20
4834055.3421900235
 10
619236.8970674315
 20
4834098.973759655
  0
LWPOLYLINE
  5
E5
330
17
100
AcDbEntity
  8
ROADS
100
AcDbPolyline
 90
2
 70
0
 10
617664.3179483889
 20
4832343.731909282
 10
617601.8385899683
 20
4832260.687312268
  0
LWPOLYLINE
  5
E6
330
17
100
AcDbEntity
  8
ROADS
100
AcDbPolyline
 90
3
 70
0
 10
617718.1668686877
 20
4832298.288385927
 10
617735.3623621581
 20
4832272.890237488
 10
617659.8766953914
 20
4832198.255073652
  0
LWPOLYLINE
  5
E7
330
17
100
AcDbEntity
  8
ROADS
100
AcDbPolyline
 90
2
 70
0
 10
617610.1675122986
 20
4832380.182671255
 10
617554.2291588763
 20
4832318.855002568
  0
LWPOLYLINE
  5
E8
330
17
100
AcDbEntity
  8
ROADS
100
AcDbPolyline
 90
2
 70
0
 10
617513.364361783
 20
4832536.410660232
 10
617516.3498627214
 20
4832526.648285684
  0
LWPOLYLINE
  5
E9
330
17
100
AcDbEntity
  8
ROADS
100
AcDbPolyline
 90
2
 70
0
 10
617625.9383345629
 20
4832509.002921402
 10
617606.5165667222
 20
4832567.892933827
  0
LWPOLYLINE
  5
EA
330
17
100
AcDbEntity
  8
ROADS
100
AcDbPolyline
 90
2
 70
0
 10
617513.364361783
 20
4832536.410660232
 10
617606.5165667222
 20
4832567.892933827
  0
LWPOLYLINE
  5
EB
330
17
100
AcDbEntity
  8
ROADS
100
AcDbPolyline
 90
2
 70
0
 10
617846.5580034417
 20
4832635.055698441
 10
617761.7229943322
 20
4832494.829014136
  0
LWPOLYLINE
  5
EC
330
17
100
AcDbEntity
  8
ROADS
100
AcDbPolyline
 90
2
 70
0
 10
617472.7079382503
 20
4832662.039134355
 10
617513.364361783
 20
4832536.410660232
  0
LWPOLYLINE
  5
ED
330
17
100
AcDbEntity
  8
ROADS
100
AcDbPolyline
 90
2
 70
0
 10
617472.7079382503
 20
4832662.039134355
 10
617368.0873518388
 20
4832628.173067911
  0
LWPOLYLINE
  5
EE
330
17
100
AcDbEntity
  8
ROADS
100
AcDbPolyline
 90
2
 70
0
 10
617606.5165667222
 20
4832567.892933827
 10
617573.8817146762
 20
4832668.9875777345
  0
LWPOLYLINE
  5
EF
330
17
100
AcDbEntity
  8
ROADS
100
AcDbPolyline
 90
3
 70
0
 10
617638.8731832036
 20
4832759.616995569
 10
617707.8585468364
 20
4832541.185262503
 10
617761.7229943322
 20
4832494.829014136
  0
LWPOLYLINE
  5
F0
330
17
100
AcDbEntity
  8
ROADS
100
AcDbPolyline
 90
2
 70
0
 10
617788.6967342087
 20
4832673.202436664
 10
617761.8627952426
 20
4832632.695182013
  0
LWPOLYLINE
  5
F1
330
17
100
AcDbEntity
  8
ROADS
100
AcDbPolyline
 90
2
 70
0
 10
617788.6967342087
 20
4832673.202436664
 10
617846.5580034417
 20
4832635.055698441
  0
LWPOLYLINE
  5
F2
330
17
100
AcDbEntity
  8
ROADS
100
AcDbPolyline
 90
2
 70
0
 10
617330.8760818207
 20
4832747.7549346
 10
617343.151146074
 20
4832751.720946646
  0
LWPOLYLINE
  5
F3
330
17
100
AcDbEntity
  8
ROADS
100
AcDbPolyline
 90
2
 70
0
 10
617277.9788265734
 20
4833101.135530542
 10
617275.76187973
 20
4833100.421549424
  0
LWPOLYLINE
  5
F4
330
17
100
AcDbEntity
  8
ROADS
100
AcDbPolyline
 90
3
 70
0
 10
617283.4412618052
 20
4833248.38576884
 10
617350.0252010833
 20
4833264.3728071535
 10
617399.951544774
 20
4833143.370119798
  0
LWPOLYLINE
  5
F5
330
17
100
AcDbEntity
  8
ROADS
100
AcDbPolyline
 90
2
 70
0
 10
617720.5842083533
 20
4833246.401880608
 10
617505.3934442663
 20
4833178.317760792
  0
LWPOLYLINE
  5
F6
330
17
100
AcDbEntity
  8
ROADS
100
AcDbPolyline
 90
2
 70
0
 10
617505.3934442663
 20
4833178.317760792
 10
617463.437693558
 20
4833303.118650135
  0
LWPOLYLINE
  5
F7
330
17
100
AcDbEntity
  8
ROADS
100
AcDbPolyline
 90
2
 70
0
 10
617834.1498808207
 20
4833278.560302702
 10
617720.5842083533
 20
4833246.401880608
  0
LWPOLYLINE
  5
F8
330
17
100
AcDbEntity
  8
ROADS
100
AcDbPolyline
 90
2
 70
0
 10
617513.9773209178
 20
4833320.661577736
 10
617463.437693558
 20
4833303.118650135
  0
LWPOLYLINE
  5
F9
330
17
100
AcDbEntity
  8
ROADS
100
AcDbPolyline
 90
2
 70
0
 10
617720.5842083533
 20
4833246.401880608
 10
617675.2287420692
 20
4833378.592649477
  0
LWPOLYLINE
  5
FA
330
17
100
AcDbEntity
  8
ROADS
100
AcDbPolyline
 90
2
 70
0
 10
617834.1498808207
 20
4833278.560302702
 10
617787.3542210949
 20
4833415.682251519
  0
LWPOLYLINE
  5
FB
330
17
100
AcDbEntity
  8
ROADS
100
AcDbPolyline
 90
2
 70
0
 10
617309.4154944384
 20
4833377.640312867
 10
617424.5768292531
 20
4833418.301126186
  0
LWPOLYLINE
  5
FC
330
17
100
AcDbEntity
  8
ROADS
100
AcDbPolyline
 90
2
 70
0
 10
617463.437693558
 20
4833303.118650135
 10
617424.5768292531
 20
4833418.301126186
  0
LWPOLYLINE
  5
FD
330
17
100
AcDbEntity
  8
ROADS
100
AcDbPolyline
 90
2
 70
0
 10
617675.2287420692
 20
4833378.592649477
 10
617620.2331602003
 20
4833359.267117292
  0
LWPOLYLINE
  5
FE
330
17
100
AcDbEntity
  8
ROADS
100
AcDbPolyline
 90
2
 70
0
 10
618996.6776509903
 20
4832826.716406521
 10
618989.0556109068
 20
4832850.0005422495
  0
LWPOLYLINE
  5
FF
330
17
100
AcDbEntity
  8
ROADS
100
AcDbPolyline
 90
4
 70
0
 10
618989.0556109068
 20
4832850.0005422495
 10
618983.1557404527
 20
4832868.021601141
 10
618966.249214002
 20
4832866.577036804
 10
618884.2484573732
 20
4832837.342154506
  0
LWPOLYLINE
  5
100
330
17
100
AcDbEntity
  8
ROADS
100
AcDbPolyline
 90
3
 70
0
 10
618571.6789376736
 20
4832962.439386783
 10
618458.5833611179
 20
4832829.572899764
 10
618473.5111155846
 20
4832762.102235983
  0
LWPOLYLINE
  5
101
330
17
100
AcDbEntity
  8
ROADS
100
AcDbPolyline
 90
2
 70
0
 10
619024.2196930929
 20
4832941.432398776
 10
618884.3245918101
 20
4832906.840103584
  0
LWPOLYLINE
  5
102
330
17
100
AcDbEntity
  8
ROADS
100
AcDbPolyline
 90
3
 70
0
 10
618682.8163828986
 20
4832953.811422195
 10
618601.5593678582
 20
4832925.980032619
 10
618571.6789376736
 20
4832962.439386783
  0
LWPOLYLINE
  5
103
330
17
100
AcDbEntity
  8
ROADS
100
AcDbPolyline
 90
2
 70
0
 10
618754.6750871288
 20
4832975.056747496
 10
618769.7061550169
 20
4832934.354878986
  0
LWPOLYLINE
  5
104
330
17
100
AcDbEntity
  8
ROADS
100
AcDbPolyline
 90
2
 70
0
 10
618754.6750871288
 20
4832975.056747496
 10
618682.8163828986
 20
4832953.811422195
  0
LWPOLYLINE
  5
105
330
17
100
AcDbEntity
  8
ROADS
100
AcDbPolyline
 90
2
 70
0
 10
618844.8921489448
 20
4833004.289129517
 10
618754.6750871288
 20
4832975.056747496
  0
LWPOLYLINE
  5
106
330
17
100
AcDbEntity
  8
ROADS
100
AcDbPolyline
 90
2
 70
0
 10
618991.5708355284
 20
4833053.47059337
 10
619024.2196930929
 20
4832941.432398776
  0
LWPOLYLINE
  5
107
330
17
100
AcDbEntity
  8
ROADS
100
AcDbPolyline
 90
2
 70
0
 10
618682.8163828986
 20
4832953.811422195
 10
618640.6680839274
 20
4833043.777033663
  0
LWPOLYLINE
  5
108
330
17
100
AcDbEntity
  8
ROADS
100
AcDbPolyline
 90
2
 70
0
 10
618063.2586161782
 20
4832880.032933147
 10
618115.4182169351
 20
4832906.551412208
  0
LWPOLYLINE
  5
109
330
17
100
AcDbEntity
  8
ROADS
100
AcDbPolyline
 90
2
 70
0
 10
618063.2586161782
 20
4832880.032933147
 10
618028.1990049528
 20
4832910.214423768
  0
LWPOLYLINE
  5
10A
330
17
100
AcDbEntity
  8
ROADS
100
AcDbPolyline
 90
2
 70
0
 10
618104.993566128
 20
4832887.254361424
 10
618115.4182169351
 20
4832906.551412208
  0
LWPOLYLINE
  5
10B
330
17
100
AcDbEntity
  8
ROADS
100
AcDbPolyline
 90
3
 70
0
 10
618253.2918273304
 20
4832875.6288010795
 10
618237.0925867559
 20
4832928.513927004
 10
618195.2814116504
 20
4832924.790235945
  0
LWPOLYLINE
  5
10C
330
17
100
AcDbEntity
  8
ROADS
100
AcDbPolyline
 90
2
 70
0
 10
618147.664787726
 20
4832898.225841119
 10
618115.4182169351
 20
4832906.551412208
  0
LWPOLYLINE
  5
10D
330
17
100
AcDbEntity
  8
ROADS
100
AcDbPolyline
 90
2
 70
0
 10
618147.664787726
 20
4832898.225841119
 10
618195.2814116504
 20
4832924.790235945
  0
LWPOLYLINE
  5
10E
330
17
100
AcDbEntity
  8
ROADS
100
AcDbPolyline
 90
2
 70
0
 10
618071.3169411852
 20
4832935.202461657
 10
618028.1990049528
 20
4832910.214423768
  0
LWPOLYLINE
  5
10F
330
17
100
AcDbEntity
  8
ROADS
100
AcDbPolyline
 90
2
 70
0
 10
618195.2814116504
 20
4832924.790235945
 10
618177.6656843306
 20
4832981.406883555
  0
LWPOLYLINE
  5
110
330
17
100
AcDbEntity
  8
ROADS
100
AcDbPolyline
 90
4
 70
0
 10
618253.2918273304
 20
4832875.6288010795
 10
618314.6513074704
 20
4832907.430728883
 10
618366.6421246715
 20
4832968.912422174
 10
618316.3764023111
 20
4833039.685576713
  0
LWPOLYLINE
  5
111
330
17
100
AcDbEntity
  8
ROADS
100
AcDbPolyline
 90
2
 70
0
 10
618177.6656843306
 20
4832981.406883555
 10
618071.3169411852
 20
4832935.202461657
  0
LWPOLYLINE
  5
112
330
17
100
AcDbEntity
  8
ROADS
100
AcDbPolyline
 90
2
 70
0
 10
617356.1087834112
 20
4832878.822222676
 10
617277.9788265734
 20
4833101.135530542
  0
LWPOLYLINE
  5
113
330
17
100
AcDbEntity
  8
ROADS
100
AcDbPolyline
 90
2
 70
0
 10
617798.4417340114
 20
4833025.561436601
 10
617712.1809522404
 20
4832996.004617849
  0
LWPOLYLINE
  5
114
330
17
100
AcDbEntity
  8
ROADS
100
AcDbPolyline
 90
2
 70
0
 10
617556.7953566338
 20
4833019.601422406
 10
617613.0707708295
 20
4833038.607012566
  0
LWPOLYLINE
  5
115
330
17
100
AcDbEntity
  8
ROADS
100
AcDbPolyline
 90
2
 70
0
 10
617908.5707918003
 20
4833060.848793695
 10
617798.4417340114
 20
4833025.561436601
  0
LWPOLYLINE
  5
116
330
17
100
AcDbEntity
  8
ROADS
100
AcDbPolyline
 90
3
 70
0
 10
617399.951544774
 20
4833143.370119798
 10
617449.0009226451
 20
4833031.879861049
 10
617402.9397951164
 20
4833018.246039273
  0
LWPOLYLINE
  5
117
330
17
100
AcDbEntity
  8
ROADS
100
AcDbPolyline
 90
2
 70
0
 10
617556.7953566338
 20
4833019.601422406
 10
617505.3934442663
 20
4833178.317760792
  0
LWPOLYLINE
  5
118
330
17
100
AcDbEntity
  8
ROADS
100
AcDbPolyline
 90
2
 70
0
 10
617399.951544774
 20
4833143.370119798
 10
617277.9788265734
 20
4833101.135530542
  0
LWPOLYLINE
  5
119
330
17
100
AcDbEntity
  8
ROADS
100
AcDbPolyline
 90
2
 70
0
 10
617798.4417340114
 20
4833025.561436601
 10
617720.5842083533
 20
4833246.401880608
  0
LWPOLYLINE
  5
11A
330
17
100
AcDbEntity
  8
ROADS
100
AcDbPolyline
 90
2
 70
0
 10
617505.3934442663
 20
4833178.317760792
 10
617399.951544774
 20
4833143.370119798
  0
LWPOLYLINE
  5
11B
330
17
100
AcDbEntity
  8
ROADS
100
AcDbPolyline
 90
2
 70
0
 10
617908.5707918003
 20
4833060.848793695
 10
617834.1498808207
 20
4833278.560302702
  0
LWPOLYLINE
  5
11C
330
17
100
AcDbEntity
  8
ROADS
100
AcDbPolyline
 90
2
 70
0
 10
617980.6951506124
 20
4833084.70498647
 10
618071.3169411852
 20
4832935.202461657
  0
LWPOLYLINE
  5
11D
330
17
100
AcDbEntity
  8
ROADS
100
AcDbPolyline
 90
2
 70
0
 10
618316.3764023111
 20
4833039.685576713
 10
618177.6656843306
 20
4832981.406883555
  0
LWPOLYLINE
  5
11E
330
17
100
AcDbEntity
  8
ROADS
100
AcDbPolyline
 90
2
 70
0
 10
618177.6656843306
 20
4832981.406883555
 10
618132.0883368829
 20
4833132.241506412
  0
LWPOLYLINE
  5
11F
330
17
100
AcDbEntity
  8
ROADS
100
AcDbPolyline
 90
2
 70
0
 10
617980.6951506124
 20
4833084.70498647
 10
617908.5707918003
 20
4833060.848793695
  0
LWPOLYLINE
  5
120
330
17
100
AcDbEntity
  8
ROADS
100
AcDbPolyline
 90
2
 70
0
 10
618019.3326738783
 20
4833098.417687919
 10
617980.6951506124
 20
4833084.70498647
  0
LWPOLYLINE
  5
121
330
17
100
AcDbEntity
  8
ROADS
100
AcDbPolyline
 90
2
 70
0
 10
618132.0883368829
 20
4833132.241506412
 10
618019.3326738783
 20
4833098.417687919
  0
LWPOLYLINE
  5
122
330
17
100
AcDbEntity
  8
ROADS
100
AcDbPolyline
 90
5
 70
0
 10
618370.9023642757
 20
4833229.486661772
 10
618389.0690675627
 20
4833172.985954735
 10
618384.6279868188
 20
4833119.637800959
 10
618353.5934810038
 20
4833063.88098855
 10
618316.3764023111
 20
4833039.685576713
  0
LWPOLYLINE
  5
123
330
17
100
AcDbEntity
  8
ROADS
100
AcDbPolyline
 90
2
 70
0
 10
618240.8528909836
 20
4833169.994359715
 10
618132.0883368829
 20
4833132.241506412
  0
LWPOLYLINE
  5
124
330
17
100
AcDbEntity
  8
ROADS
100
AcDbPolyline
 90
2
 70
0
 10
618132.0883368829
 20
4833132.241506412
 10
618107.3037077201
 20
4833213.627440072
  0
LWPOLYLINE
  5
125
330
17
100
AcDbEntity
  8
ROADS
100
AcDbPolyline
 90
2
 70
0
 10
618240.8528909836
 20
4833169.994359715
 10
618201.9216417498
 20
4833219.734555001
  0
LWPOLYLINE
  5
126
330
17
100
AcDbEntity
  8
ROADS
100
AcDbPolyline
 90
2
 70
0
 10
618640.6680839274
 20
4833043.777033663
 10
618571.6789376736
 20
4832962.439386783
  0
LWPOLYLINE
  5
127
330
17
100
AcDbEntity
  8
ROADS
100
AcDbPolyline
 90
2
 70
0
 10
618933.3804560738
 20
4833034.280314632
 10
618844.8921489448
 20
4833004.289129517
  0
LWPOLYLINE
  5
128
330
17
100
AcDbEntity
  8
ROADS
100
AcDbPolyline
 90
2
 70
0
 10
618991.5708355284
 20
4833053.47059337
 10
618933.3804560738
 20
4833034.280314632
  0
LWPOLYLINE
  5
129
330
17
100
AcDbEntity
  8
ROADS
100
AcDbPolyline
 90
2
 70
0
 10
618708.4161872744
 20
4833125.861314017
 10
618754.6750871288
 20
4832975.056747496
  0
LWPOLYLINE
  5
12A
330
17
100
AcDbEntity
  8
ROADS
100
AcDbPolyline
 90
2
 70
0
 10
619022.4724043946
 20
4833064.072416209
 10
618991.5708355284
 20
4833053.47059337
  0
LWPOLYLINE
  5
12B
330
17
100
AcDbEntity
  8
ROADS
100
AcDbPolyline
 90
2
 70
0
 10
618708.4161872744
 20
4833125.861314017
 10
618640.6680839274
 20
4833043.777033663
  0
LWPOLYLINE
  5
12C
330
17
100
AcDbEntity
  8
ROADS
100
AcDbPolyline
 90
2
 70
0
 10
618779.0552535899
 20
4833211.8820164865
 10
618844.8921489448
 20
4833004.289129517
  0
LWPOLYLINE
  5
12D
330
17
100
AcDbEntity
  8
ROADS
100
AcDbPolyline
 90
2
 70
0
 10
618885.988043854
 20
4833183.171398989
 10
618933.3804560738
 20
4833034.280314632
  0
LWPOLYLINE
  5
12E
330
17
100
AcDbEntity
  8
ROADS
100
AcDbPolyline
 90
2
 70
0
 10
618975.7215278433
 20
4833214.649192793
 10
619022.4724043946
 20
4833064.072416209
  0
LWPOLYLINE
  5
12F
330
17
100
AcDbEntity
  8
ROADS
100
AcDbPolyline
 90
2
 70
0
 10
618779.0552535899
 20
4833211.8820164865
 10
618708.4161872744
 20
4833125.861314017
  0
LWPOLYLINE
  5
130
330
17
100
AcDbEntity
  8
ROADS
100
AcDbPolyline
 90
2
 70
0
 10
618370.9023642757
 20
4833229.486661772
 10
618240.8528909836
 20
4833169.994359715
  0
LWPOLYLINE
  5
131
330
17
100
AcDbEntity
  8
ROADS
100
AcDbPolyline
 90
2
 70
0
 10
618019.3326738783
 20
4833098.417687919
 10
617947.4371459939
 20
4833310.4107039645
  0
LWPOLYLINE
  5
132
330
17
100
AcDbEntity
  8
ROADS
100
AcDbPolyline
 90
3
 70
0
 10
618201.9216417498
 20
4833219.734555001
 10
618187.4960164668
 20
4833201.757231403
 10
618107.3037077201
 20
4833213.627440072
  0
LWPOLYLINE
  5
133
330
17
100
AcDbEntity
  8
ROADS
100
AcDbPolyline
 90
2
 70
0
 10
618107.3037077201
 20
4833213.627440072
 10
618090.6861526254
 20
4833257.28564782
  0
LWPOLYLINE
  5
134
330
17
100
AcDbEntity
  8
ROADS
100
AcDbPolyline
 90
2
 70
0
 10
618137.9539923904
 20
4833216.603444619
 10
618121.4137913694
 20
4833267.712313285
  0
LWPOLYLINE
  5
135
330
17
100
AcDbEntity
  8
ROADS
100
AcDbPolyline
 90
2
 70
0
 10
618239.2273640583
 20
4833275.544691524
 10
618201.9216417498
 20
4833219.734555001
  0
LWPOLYLINE
  5
136
330
17
100
AcDbEntity
  8
ROADS
100
AcDbPolyline
 90
2
 70
0
 10
618495.0914389059
 20
4833275.6006207885
 10
618370.9023642757
 20
4833229.486661772
  0
LWPOLYLINE
  5
137
330
17
100
AcDbEntity
  8
ROADS
100
AcDbPolyline
 90
2
 70
0
 10
618370.9023642757
 20
4833229.486661772
 10
618331.3971968023
 20
4833285.9707368715
  0
LWPOLYLINE
  5
138
330
17
100
AcDbEntity
  8
ROADS
100
AcDbPolyline
 90
2
 70
0
 10
618090.6861526254
 20
4833257.28564782
 10
618121.4137913694
 20
4833267.712313285
  0
LWPOLYLINE
  5
139
330
17
100
AcDbEntity
  8
ROADS
100
AcDbPolyline
 90
2
 70
0
 10
618121.4137913694
 20
4833267.712313285
 10
618142.4213646904
 20
4833278.511334201
  0
LWPOLYLINE
  5
13A
330
17
100
AcDbEntity
  8
ROADS
100
AcDbPolyline
 90
2
 70
0
 10
618975.7215278433
 20
4833214.649192793
 10
618885.988043854
 20
4833183.171398989
  0
LWPOLYLINE
  5
13B
330
17
100
AcDbEntity
  8
ROADS
100
AcDbPolyline
 90
2
 70
0
 10
619064.1309397726
 20
4833244.081997951
 10
618975.7215278433
 20
4833214.649192793
  0
LWPOLYLINE
  5
13C
330
17
100
AcDbEntity
  8
ROADS
100
AcDbPolyline
 90
2
 70
0
 10
618843.8949166278
 20
4833286.956545065
 10
618885.988043854
 20
4833183.171398989
  0
LWPOLYLINE
  5
13D
330
17
100
AcDbEntity
  8
ROADS
100
AcDbPolyline
 90
2
 70
0
 10
618843.8949166278
 20
4833286.956545065
 10
618779.0552535899
 20
4833211.8820164865
  0
LWPOLYLINE
  5
13E
330
17
100
AcDbEntity
  8
ROADS
100
AcDbPolyline
 90
2
 70
0
 10
618930.183884233
 20
4833349.165256883
 10
618975.7215278433
 20
4833214.649192793
  0
LWPOLYLINE
  5
13F
330
17
100
AcDbEntity
  8
ROADS
100
AcDbPolyline
 90
2
 70
0
 10
618881.3641559733
 20
4833330.568297801
 10
618843.8949166278
 20
4833286.956545065
  0
LWPOLYLINE
  5
140
330
17
100
AcDbEntity
  8
ROADS
100
AcDbPolyline
 90
2
 70
0
 10
618731.2646234401
 20
4833351.650977956
 10
618495.0914389059
 20
4833275.6006207885
  0
LWPOLYLINE
  5
141
330
17
100
AcDbEntity
  8
ROADS
100
AcDbPolyline
 90
2
 70
0
 10
619013.5412680055
 20
4833393.583354266
 10
619064.1309397726
 20
4833244.081997951
  0
LWPOLYLINE
  5
142
330
17
100
AcDbEntity
  8
ROADS
100
AcDbPolyline
 90
2
 70
0
 10
618930.183884233
 20
4833349.165256883
 10
618881.3641559733
 20
4833330.568297801
  0
LWPOLYLINE
  5
143
330
17
100
AcDbEntity
  8
ROADS
100
AcDbPolyline
 90
2
 70
0
 10
618924.5300353188
 20
4833364.77716087
 10
618930.183884233
 20
4833349.165256883
  0
LWPOLYLINE
  5
144
330
17
100
AcDbEntity
  8
ROADS
100
AcDbPolyline
 90
2
 70
0
 10
617947.4371459939
 20
4833310.4107039645
 10
617834.1498808207
 20
4833278.560302702
  0
LWPOLYLINE
  5
145
330
17
100
AcDbEntity
  8
ROADS
100
AcDbPolyline
 90
2
 70
0
 10
618239.2273640583
 20
4833275.544691524
 10
618186.8960020248
 20
4833321.667581692
  0
LWPOLYLINE
  5
146
330
17
100
AcDbEntity
  8
ROADS
100
AcDbPolyline
 90
2
 70
0
 10
618090.6861526254
 20
4833257.28564782
 10
618060.9923201657
 20
4833341.659946929
  0
LWPOLYLINE
  5
147
330
17
100
AcDbEntity
  8
ROADS
100
AcDbPolyline
 90
2
 70
0
 10
618280.9364237714
 20
4833334.498528405
 10
618239.2273640583
 20
4833275.544691524
  0
LWPOLYLINE
  5
148
330
17
100
AcDbEntity
  8
ROADS
100
AcDbPolyline
 90
2
 70
0
 10
618331.3971968023
 20
4833285.9707368715
 10
618280.9364237714
 20
4833334.498528405
  0
LWPOLYLINE
  5
149
330
17
100
AcDbEntity
  8
ROADS
100
AcDbPolyline
 90
2
 70
0
 10
618060.9923201657
 20
4833341.659946929
 10
617947.4371459939
 20
4833310.4107039645
  0
LWPOLYLINE
  5
14A
330
17
100
AcDbEntity
  8
ROADS
100
AcDbPolyline
 90
3
 70
0
 10
618331.3971968023
 20
4833285.9707368715
 10
618379.7315741662
 20
4833340.88118015
 10
618319.4656807892
 20
4833394.76296046
  0
LWPOLYLINE
  5
14B
330
17
100
AcDbEntity
  8
ROADS
100
AcDbPolyline
 90
2
 70
0
 10
618319.4656807892
 20
4833394.76296046
 10
618280.9364237714
 20
4833334.498528405
  0
LWPOLYLINE
  5
14C
330
17
100
AcDbEntity
  8
ROADS
100
AcDbPolyline
 90
3
 70
0
 10
618495.0914389059
 20
4833275.6006207885
 10
618459.6691711185
 20
4833375.1470389785
 10
618493.3705364327
 20
4833455.205967012
  0
LWPOLYLINE
  5
14D
330
17
100
AcDbEntity
  8
ROADS
100
AcDbPolyline
 90
2
 70
0
 10
617947.4371459939
 20
4833310.4107039645
 10
617897.1925415067
 20
4833452.003517137
  0
LWPOLYLINE
  5
14E
330
17
100
AcDbEntity
  8
ROADS
100
AcDbPolyline
 90
2
 70
0
 10
618060.9923201657
 20
4833341.659946929
 10
618009.5830980695
 20
4833490.836017637
  0
LWPOLYLINE
  5
14F
330
17
100
AcDbEntity
  8
ROADS
100
AcDbPolyline
 90
2
 70
0
 10
618186.8960020248
 20
4833321.667581692
 10
618118.2620778708
 20
4833526.651860813
  0
LWPOLYLINE
  5
150
330
17
100
AcDbEntity
  8
ROADS
100
AcDbPolyline
 90
3
 70
0
 10
618352.1528978271
 20
4833554.063340603
 10
618212.891496773
 20
4833332.978767663
 10
618186.8960020248
 20
4833321.667581692
  0
LWPOLYLINE
  5
151
330
17
100
AcDbEntity
  8
ROADS
100
AcDbPolyline
 90
2
 70
0
 10
618398.2904903688
 20
4833518.26589373
 10
618319.4656807892
 20
4833394.76296046
  0
LWPOLYLINE
  5
152
330
17
100
AcDbEntity
  8
ROADS
100
AcDbPolyline
 90
2
 70
0
 10
618009.5830980695
 20
4833490.836017637
 10
617897.1925415067
 20
4833452.003517137
  0
LWPOLYLINE
  5
153
330
17
100
AcDbEntity
  8
ROADS
100
AcDbPolyline
 90
2
 70
0
 10
618493.3705364327
 20
4833455.205967012
 10
618432.1712786194
 20
4833495.7133998545
  0
LWPOLYLINE
  5
154
330
17
100
AcDbEntity
  8
ROADS
100
AcDbPolyline
 90
2
 70
0
 10
618493.3705364327
 20
4833455.205967012
 10
618478.4894289012
 20
4833509.629981808
  0
LWPOLYLINE
  5
155
330
17
100
AcDbEntity
  8
ROADS
100
AcDbPolyline
 90
2
 70
0
 10
618462.9189750947
 20
4833494.629047607
 10
618462.8032017627
 20
4833513.410961158
  0
LWPOLYLINE
  5
156
330
17
100
AcDbEntity
  8
ROADS
100
AcDbPolyline
 90
2
 70
0
 10
618432.1712786194
 20
4833495.7133998545
 10
618398.2904903688
 20
4833518.26589373
  0
LWPOLYLINE
  5
157
330
17
100
AcDbEntity
  8
ROADS
100
AcDbPolyline
 90
2
 70
0
 10
618432.1712786194
 20
4833495.7133998545
 10
618446.4685831325
 20
4833519.9236530885
  0
LWPOLYLINE
  5
158
330
17
100
AcDbEntity
  8
ROADS
100
AcDbPolyline
 90
3
 70
0
 10
618881.3641559733
 20
4833330.568297801
 10
618875.581547182
 20
4833347.937437898
 10
618918.1437694795
 20
4833384.117966581
  0
LWPOLYLINE
  5
159
330
17
100
AcDbEntity
  8
ROADS
100
AcDbPolyline
 90
2
 70
0
 10
618918.1437694795
 20
4833384.117966581
 10
618924.5300353188
 20
4833364.77716087
  0
LWPOLYLINE
  5
15A
330
17
100
AcDbEntity
  8
ROADS
100
AcDbPolyline
 90
2
 70
0
 10
618924.5300353188
 20
4833364.77716087
 10
619013.5412680055
 20
4833393.583354266
  0
LWPOLYLINE
  5
15B
330
17
100
AcDbEntity
  8
ROADS
100
AcDbPolyline
 90
2
 70
0
 10
618910.7466676001
 20
4833410.945281597
 10
618731.2646234401
 20
4833351.650977956
  0
LWPOLYLINE
  5
15C
330
17
100
AcDbEntity
  8
ROADS
100
AcDbPolyline
 90
2
 70
0
 10
618910.7466676001
 20
4833410.945281597
 10
618918.1437694795
 20
4833384.117966581
  0
LWPOLYLINE
  5
15D
330
17
100
AcDbEntity
  8
ROADS
100
AcDbPolyline
 90
2
 70
0
 10
618595.2368172602
 20
4833371.673905195
 10
618493.3705364327
 20
4833455.205967012
  0
LWPOLYLINE
  5
15E
330
17
100
AcDbEntity
  8
ROADS
100
AcDbPolyline
 90
2
 70
0
 10
618998.9336059045
 20
4833436.74997706
 10
619013.5412680055
 20
4833393.583354266
  0
LWPOLYLINE
  5
15F
330
17
100
AcDbEntity
  8
ROADS
100
AcDbPolyline
 90
2
 70
0
 10
618998.9336059045
 20
4833436.74997706
 10
618910.7466676001
 20
4833410.945281597
  0
LWPOLYLINE
  5
160
330
17
100
AcDbEntity
  8
ROADS
100
AcDbPolyline
 90
2
 70
0
 10
619086.9442650287
 20
4833465.171598476
 10
618998.9336059045
 20
4833436.74997706
  0
LWPOLYLINE
  5
161
330
17
100
AcDbEntity
  8
ROADS
100
AcDbPolyline
 90
2
 70
0
 10
619055.4549245513
 20
4833562.787180037
 10
619013.0126244868
 20
4833686.326762732
  0
LWPOLYLINE
  5
162
330
17
100
AcDbEntity
  8
ROADS
100
AcDbPolyline
 90
2
 70
0
 10
617277.9788265734
 20
4833101.135530542
 10
617275.1298693385
 20
4833109.77120276
  0
LWPOLYLINE
  5
163
330
17
100
AcDbEntity
  8
ROADS
100
AcDbPolyline
 90
2
 70
0
 10
617787.3542210949
 20
4833415.682251519
 10
617675.2287420692
 20
4833378.592649477
  0
LWPOLYLINE
  5
164
330
17
100
AcDbEntity
  8
ROADS
100
AcDbPolyline
 90
2
 70
0
 10
617897.1925415067
 20
4833452.003517137
 10
617787.3542210949
 20
4833415.682251519
  0
LWPOLYLINE
  5
165
330
17
100
AcDbEntity
  8
ROADS
100
AcDbPolyline
 90
2
 70
0
 10
617424.5768292531
 20
4833418.301126186
 10
617394.4624561308
 20
4833508.515333716
  0
LWPOLYLINE
  5
166
330
17
100
AcDbEntity
  8
ROADS
100
AcDbPolyline
 90
2
 70
0
 10
617675.2287420692
 20
4833378.592649477
 10
617606.7976056212
 20
4833580.438664015
  0
LWPOLYLINE
  5
167
330
17
100
AcDbEntity
  8
ROADS
100
AcDbPolyline
 90
2
 70
0
 10
617787.3542210949
 20
4833415.682251519
 10
617717.0691587954
 20
4833619.454885677
  0
LWPOLYLINE
  5
168
330
17
100
AcDbEntity
  8
ROADS
100
AcDbPolyline
 90
2
 70
0
 10
617606.7976056212
 20
4833580.438664015
 10
617394.4624561308
 20
4833508.515333716
  0
LWPOLYLINE
  5
169
330
17
100
AcDbEntity
  8
ROADS
100
AcDbPolyline
 90
2
 70
0
 10
617394.4624561308
 20
4833508.515333716
 10
617375.240830397
 20
4833566.071099141
  0
LWPOLYLINE
  5
16A
330
17
100
AcDbEntity
  8
ROADS
100
AcDbPolyline
 90
2
 70
0
 10
617897.1925415067
 20
4833452.003517137
 10
617837.3651582123
 20
4833663.72348233
  0
LWPOLYLINE
  5
16B
330
17
100
AcDbEntity
  8
ROADS
100
AcDbPolyline
 90
2
 70
0
 10
617717.0691587954
 20
4833619.454885677
 10
617606.7976056212
 20
4833580.438664015
  0
LWPOLYLINE
  5
16C
330
17
100
AcDbEntity
  8
ROADS
100
AcDbPolyline
 90
2
 70
0
 10
618118.2620778708
 20
4833526.651860813
 10
618009.5830980695
 20
4833490.836017637
  0
LWPOLYLINE
  5
16D
330
17
100
AcDbEntity
  8
ROADS
100
AcDbPolyline
 90
2
 70
0
 10
618478.4894289012
 20
4833509.629981808
 10
618462.8032017627
 20
4833513.410961158
  0
LWPOLYLINE
  5
16E
330
17
100
AcDbEntity
  8
ROADS
100
AcDbPolyline
 90
2
 70
0
 10
618462.8032017627
 20
4833513.410961158
 10
618446.4685831325
 20
4833519.9236530885
  0
LWPOLYLINE
  5
16F
330
17
100
AcDbEntity
  8
ROADS
100
AcDbPolyline
 90
2
 70
0
 10
618478.4894289012
 20
4833509.629981808
 10
618477.9121321935
 20
4833524.087066936
  0
LWPOLYLINE
  5
170
330
17
100
AcDbEntity
  8
ROADS
100
AcDbPolyline
 90
2
 70
0
 10
618462.8032017627
 20
4833513.410961158
 10
618477.9121321935
 20
4833524.087066936
  0
LWPOLYLINE
  5
171
330
17
100
AcDbEntity
  8
ROADS
100
AcDbPolyline
 90
2
 70
0
 10
618446.4685831325
 20
4833519.9236530885
 10
618443.2675585832
 20
4833535.06134362
  0
LWPOLYLINE
  5
172
330
17
100
AcDbEntity
  8
ROADS
100
AcDbPolyline
 90
2
 70
0
 10
618428.6460856104
 20
4833538.489218269
 10
618398.2904903688
 20
4833518.26589373
  0
LWPOLYLINE
  5
173
330
17
100
AcDbEntity
  8
ROADS
100
AcDbPolyline
 90
2
 70
0
 10
618398.2904903688
 20
4833518.26589373
 10
618352.1528978271
 20
4833554.063340603
  0
LWPOLYLINE
  5
174
330
17
100
AcDbEntity
  8
ROADS
100
AcDbPolyline
 90
2
 70
0
 10
618443.2675585832
 20
4833535.06134362
 10
618428.6460856104
 20
4833538.489218269
  0
LWPOLYLINE
  5
175
330
17
100
AcDbEntity
  8
ROADS
100
AcDbPolyline
 90
2
 70
0
 10
618477.9121321935
 20
4833524.087066936
 10
618466.0465170224
 20
4833554.917729363
  0
LWPOLYLINE
  5
176
330
17
100
AcDbEntity
  8
ROADS
100
AcDbPolyline
 90
2
 70
0
 10
618009.5830980695
 20
4833490.836017637
 10
617974.3597579938
 20
4833597.164097673
  0
LWPOLYLINE
  5
177
330
17
100
AcDbEntity
  8
ROADS
100
AcDbPolyline
 90
2
 70
0
 10
618443.2675585832
 20
4833535.06134362
 10
618447.326914122
 20
4833557.717516833
  0
LWPOLYLINE
  5
178
330
17
100
AcDbEntity
  8
ROADS
100
AcDbPolyline
 90
2
 70
0
 10
618447.326914122
 20
4833557.717516833
 10
618428.6460856104
 20
4833538.489218269
  0
LWPOLYLINE
  5
179
330
17
100
AcDbEntity
  8
ROADS
100
AcDbPolyline
 90
2
 70
0
 10
618442.6404231736
 20
4833587.079869299
 10
618398.2904903688
 20
4833518.26589373
  0
LWPOLYLINE
  5
17A
330
17
100
AcDbEntity
  8
ROADS
100
AcDbPolyline
 90
2
 70
0
 10
618447.326914122
 20
4833557.717516833
 10
618466.0465170224
 20
4833554.917729363
  0
LWPOLYLINE
  5
17B
330
17
100
AcDbEntity
  8
ROADS
100
AcDbPolyline
 90
2
 70
0
 10
618466.0465170224
 20
4833554.917729363
 10
618456.7834062163
 20
4833575.821068686
  0
LWPOLYLINE
  5
17C
330
17
100
AcDbEntity
  8
ROADS
100
AcDbPolyline
 90
2
 70
0
 10
618447.326914122
 20
4833557.717516833
 10
618456.7834062163
 20
4833575.821068686
  0
LWPOLYLINE
  5
17D
330
17
100
AcDbEntity
  8
ROADS
100
AcDbPolyline
 90
3
 70
0
 10
618272.1834824339
 20
4833621.877471914
 10
618217.8651922139
 20
4833562.914717117
 10
618118.2620778708
 20
4833526.651860813
  0
LWPOLYLINE
  5
17E
330
17
100
AcDbEntity
  8
ROADS
100
AcDbPolyline
 90
2
 70
0
 10
618456.7834062163
 20
4833575.821068686
 10
618442.6404231736
 20
4833587.079869299
  0
LWPOLYLINE
  5
17F
330
17
100
AcDbEntity
  8
ROADS
100
AcDbPolyline
 90
2
 70
0
 10
618352.1528978271
 20
4833554.063340603
 10
618272.1834824339
 20
4833621.877471914
  0
LWPOLYLINE
  5
180
330
17
100
AcDbEntity
  8
ROADS
100
AcDbPolyline
 90
2
 70
0
 10
618459.1733697889
 20
4833611.9595555635
 10
618442.6404231736
 20
4833587.079869299
  0
LWPOLYLINE
  5
181
330
17
100
AcDbEntity
  8
ROADS
100
AcDbPolyline
 90
2
 70
0
 10
617974.3597579938
 20
4833597.164097673
 10
617937.7330466732
 20
4833702.484758168
  0
LWPOLYLINE
  5
182
330
17
100
AcDbEntity
  8
ROADS
100
AcDbPolyline
 90
2
 70
0
 10
618508.8710300858
 20
4833690.9795726575
 10
618459.1733697889
 20
4833611.9595555635
  0
LWPOLYLINE
  5
183
330
17
100
AcDbEntity
  8
ROADS
100
AcDbPolyline
 90
3
 70
0
 10
618169.3620842556
 20
4833708.127209931
 10
618118.0065188184
 20
4833646.475910254
 10
617974.3597579938
 20
4833597.164097673
  0
LWPOLYLINE
  5
184
330
17
100
AcDbEntity
  8
ROADS
100
AcDbPolyline
 90
2
 70
0
 10
618272.1834824339
 20
4833621.877471914
 10
618169.3620842556
 20
4833708.127209931
  0
LWPOLYLINE
  5
185
330
17
100
AcDbEntity
  8
ROADS
100
AcDbPolyline
 90
2
 70
0
 10
617937.7330466732
 20
4833702.484758168
 10
617837.3651582123
 20
4833663.72348233
  0
LWPOLYLINE
  5
186
330
17
100
AcDbEntity
  8
ROADS
100
AcDbPolyline
 90
2
 70
0
 10
618459.1733697889
 20
4833611.9595555635
 10
618278.9173055037
 20
4833762.109117168
  0
LWPOLYLINE
  5
187
330
17
100
AcDbEntity
  8
ROADS
100
AcDbPolyline
 90
2
 70
0
 10
618524.9815052972
 20
4833715.441618608
 10
618469.7503649264
 20
4833745.439495058
  0
LWPOLYLINE
  5
188
330
17
100
AcDbEntity
  8
ROADS
100
AcDbPolyline
 90
2
 70
0
 10
618130.5995970657
 20
4833770.768833044
 10
617937.7330466732
 20
4833702.484758168
  0
LWPOLYLINE
  5
189
330
17
100
AcDbEntity
  8
ROADS
100
AcDbPolyline
 90
2
 70
0
 10
618169.3620842556
 20
4833708.127209931
 10
618130.5995970657
 20
4833770.768833044
  0
LWPOLYLINE
  5
18A
330
17
100
AcDbEntity
  8
ROADS
100
AcDbPolyline
 90
5
 70
0
 10
618914.887437307
 20
4833746.00256385
 10
618746.509467117
 20
4833544.029033314
 10
618712.6125438985
 20
4833525.41974789
 10
618684.5416699108
 20
4833531.276649571
 10
618508.8710300858
 20
4833690.9795726575
  0
LWPOLYLINE
  5
18B
330
17
100
AcDbEntity
  8
ROADS
100
AcDbPolyline
 90
2
 70
0
 10
618524.9815052972
 20
4833715.441618608
 10
618508.8710300858
 20
4833690.9795726575
  0
LWPOLYLINE
  5
18C
330
17
100
AcDbEntity
  8
ROADS
100
AcDbPolyline
 90
2
 70
0
 10
619013.0126244868
 20
4833686.326762732
 10
619000.1263838644
 20
4833726.096357768
  0
LWPOLYLINE
  5
18D
330
17
100
AcDbEntity
  8
ROADS
100
AcDbPolyline
 90
3
 70
0
 10
618914.887437307
 20
4833746.00256385
 10
618958.1179637449
 20
4833717.677820641
 10
619000.1263838644
 20
4833726.096357768
  0
LWPOLYLINE
  5
18E
330
17
100
AcDbEntity
  8
ROADS
100
AcDbPolyline
 90
2
 70
0
 10
618796.0589700115
 20
4833825.737390333
 10
618914.887437307
 20
4833746.00256385
  0
LWPOLYLINE
  5
18F
330
17
100
AcDbEntity
  8
ROADS
100
AcDbPolyline
 90
3
 70
0
 10
619000.1263838644
 20
4833726.096357768
 10
619030.8911062374
 20
4833754.781448195
 10
618994.5229767956
 20
4833865.373296417
  0
LWPOLYLINE
  5
190
330
17
100
AcDbEntity
  8
ROADS
100
AcDbPolyline
 90
2
 70
0
 10
619000.1263838644
 20
4833726.096357768
 10
618948.2262548392
 20
4833878.154027397
  0
LWPOLYLINE
  5
191
330
17
100
AcDbEntity
  8
ROADS
100
AcDbPolyline
 90
2
 70
0
 10
618650.4763178552
 20
4833915.38897452
 10
618524.9815052972
 20
4833715.441618608
  0
LWPOLYLINE
  5
192
330
17
100
AcDbEntity
  8
ROADS
100
AcDbPolyline
 90
2
 70
0
 10
618948.2262548392
 20
4833878.154027397
 10
618796.0589700115
 20
4833825.737390333
  0
LWPOLYLINE
  5
193
330
17
100
AcDbEntity
  8
ROADS
100
AcDbPolyline
 90
2
 70
0
 10
618696.8221002579
 20
4833889.213158154
 10
618796.0589700115
 20
4833825.737390333
  0
LWPOLYLINE
  5
194
330
17
100
AcDbEntity
  8
ROADS
100
AcDbPolyline
 90
2
 70
0
 10
617737.1649605315
 20
4833627.028329361
 10
617717.0691587954
 20
4833619.454885677
  0
LWPOLYLINE
  5
195
330
17
100
AcDbEntity
  8
ROADS
100
AcDbPolyline
 90
2
 70
0
 10
617837.3651582123
 20
4833663.72348233
 10
617737.1649605315
 20
4833627.028329361
  0
LWPOLYLINE
  5
196
330
17
100
AcDbEntity
  8
ROADS
100
AcDbPolyline
 90
4
 70
0
 10
617606.7976056212
 20
4833580.438664015
 10
617591.6833203057
 20
4833634.92831725
 10
617611.1023630637
 20
4833703.461556929
 10
617569.2358890704
 20
4833838.582379607
  0
LWPOLYLINE
  5
197
330
17
100
AcDbEntity
  8
ROADS
100
AcDbPolyline
 90
2
 70
0
 10
617737.1649605315
 20
4833627.028329361
 10
617657.2150134447
 20
4833868.449471199
  0
LWPOLYLINE
  5
198
330
17
100
AcDbEntity
  8
ROADS
100
AcDbPolyline
 90
2
 70
0
 10
617516.9087780569
 20
4833771.712991274
 10
617522.246332816
 20
4833723.053297339
  0
LWPOLYLINE
  5
199
330
17
100
AcDbEntity
  8
ROADS
100
AcDbPolyline
 90
2
 70
0
 10
617837.3651582123
 20
4833663.72348233
 10
617754.3706235299
 20
4833901.434036245
  0
LWPOLYLINE
  5
19A
330
17
100
AcDbEntity
  8
ROADS
100
AcDbPolyline
 90
2
 70
0
 10
617569.2358890704
 20
4833838.582379607
 10
617567.5584434851
 20
4833838.013847508
  0
LWPOLYLINE
  5
19B
330
17
100
AcDbEntity
  8
ROADS
100
AcDbPolyline
 90
2
 70
0
 10
618469.7503649264
 20
4833745.439495058
 10
618435.9393154109
 20
4833762.749039665
  0
LWPOLYLINE
  5
19C
330
17
100
AcDbEntity
  8
ROADS
100
AcDbPolyline
 90
2
 70
0
 10
617937.7330466732
 20
4833702.484758168
 10
617899.8731567056
 20
4833817.051424228
  0
LWPOLYLINE
  5
19D
330
17
100
AcDbEntity
  8
ROADS
100
AcDbPolyline
 90
2
 70
0
 10
618469.7503649264
 20
4833745.439495058
 10
618509.7837369976
 20
4833790.592650072
  0
LWPOLYLINE
  5
19E
330
17
100
AcDbEntity
  8
ROADS
100
AcDbPolyline
 90
2
 70
0
 10
618278.9173055037
 20
4833762.109117168
 10
618209.3513098438
 20
4833825.603059012
  0
LWPOLYLINE
  5
19F
330
17
100
AcDbEntity
  8
ROADS
100
AcDbPolyline
 90
2
 70
0
 10
618209.3513098438
 20
4833825.603059012
 10
618130.5995970657
 20
4833770.768833044
  0
LWPOLYLINE
  5
1A0
330
17
100
AcDbEntity
  8
ROADS
100
AcDbPolyline
 90
2
 70
0
 10
618130.5995970657
 20
4833770.768833044
 10
618093.4638657178
 20
4833882.614551684
  0
LWPOLYLINE
  5
1A1
330
17
100
AcDbEntity
  8
ROADS
100
AcDbPolyline
 90
2
 70
0
 10
618209.3513098438
 20
4833825.603059012
 10
618204.238446447
 20
4833847.883432935
  0
LWPOLYLINE
  5
1A2
330
17
100
AcDbEntity
  8
ROADS
100
AcDbPolyline
 90
2
 70
0
 10
618093.4638657178
 20
4833882.614551684
 10
617899.8731567056
 20
4833817.051424228
  0
LWPOLYLINE
  5
1A3
330
17
100
AcDbEntity
  8
ROADS
100
AcDbPolyline
 90
3
 70
0
 10
618441.2080507604
 20
4833994.880564549
 10
618437.6200872358
 20
4833968.811783713
 10
618278.9173055037
 20
4833762.109117168
  0
LWPOLYLINE
  5
1A4
330
17
100
AcDbEntity
  8
ROADS
100
AcDbPolyline
 90
2
 70
0
 10
618204.238446447
 20
4833847.883432935
 10
618171.9624944616
 20
4833913.7153942995
  0
LWPOLYLINE
  5
1A5
330
17
100
AcDbEntity
  8
ROADS
100
AcDbPolyline
 90
2
 70
0
 10
618696.8221002579
 20
4833889.213158154
 10
618670.9047875868
 20
4833857.253073679
  0
LWPOLYLINE
  5
1A6
330
17
100
AcDbEntity
  8
ROADS
100
AcDbPolyline
 90
3
 70
0
 10
618994.5229767956
 20
4833865.373296417
 10
618978.9079013669
 20
4833884.765801393
 10
618948.2262548392
 20
4833878.154027397
  0
LWPOLYLINE
  5
1A7
330
17
100
AcDbEntity
  8
ROADS
100
AcDbPolyline
 90
2
 70
0
 10
618995.6219330438
 20
4833897.524361311
 10
618994.5229767956
 20
4833865.373296417
  0
LWPOLYLINE
  5
1A8
330
17
100
AcDbEntity
  8
ROADS
100
AcDbPolyline
 90
2
 70
0
 10
618948.2262548392
 20
4833878.154027397
 10
618956.1218007257
 20
4833902.76164589
  0
LWPOLYLINE
  5
1A9
330
17
100
AcDbEntity
  8
ROADS
100
AcDbPolyline
 90
2
 70
0
 10
618995.6219330438
 20
4833897.524361311
 10
619090.8045261182
 20
4833894.701549468
  0
LWPOLYLINE
  5
1AA
330
17
100
AcDbEntity
  8
ROADS
100
AcDbPolyline
 90
2
 70
0
 10
618995.6219330438
 20
4833897.524361311
 10
618956.1218007257
 20
4833902.76164589
  0
LWPOLYLINE
  5
1AB
330
17
100
AcDbEntity
  8
ROADS
100
AcDbPolyline
 90
2
 70
0
 10
618650.4763178552
 20
4833915.38897452
 10
618696.8221002579
 20
4833889.213158154
  0
LWPOLYLINE
  5
1AC
330
17
100
AcDbEntity
  8
ROADS
100
AcDbPolyline
 90
2
 70
0
 10
618696.8221002579
 20
4833889.213158154
 10
618721.1298617193
 20
4833920.647137803
  0
LWPOLYLINE
  5
1AD
330
17
100
AcDbEntity
  8
ROADS
100
AcDbPolyline
 90
2
 70
0
 10
618948.2262548392
 20
4833878.154027397
 10
618915.7709162273
 20
4833973.991006439
  0
LWPOLYLINE
  5
1AE
330
17
100
AcDbEntity
  8
ROADS
100
AcDbPolyline
 90
2
 70
0
 10
618650.4763178552
 20
4833915.38897452
 10
618573.0347673397
 20
4833944.090356758
  0
LWPOLYLINE
  5
1AF
330
17
100
AcDbEntity
  8
ROADS
100
AcDbPolyline
 90
2
 70
0
 10
617638.2632696396
 20
4833862.092732542
 10
617569.2358890704
 20
4833838.582379607
  0
LWPOLYLINE
  5
1B0
330
17
100
AcDbEntity
  8
ROADS
100
AcDbPolyline
 90
2
 70
0
 10
617657.2150134447
 20
4833868.449471199
 10
617638.2632696396
 20
4833862.092732542
  0
LWPOLYLINE
  5
1B1
330
17
100
AcDbEntity
  8
ROADS
100
AcDbPolyline
 90
2
 70
0
 10
617899.8731567056
 20
4833817.051424228
 10
617860.3771800938
 20
4833937.482694413
  0
LWPOLYLINE
  5
1B2
330
17
100
AcDbEntity
  8
ROADS
100
AcDbPolyline
 90
2
 70
0
 10
617754.3706235299
 20
4833901.434036245
 10
617657.2150134447
 20
4833868.449471199
  0
LWPOLYLINE
  5
1B3
330
17
100
AcDbEntity
  8
ROADS
100
AcDbPolyline
 90
2
 70
0
 10
617860.3771800938
 20
4833937.482694413
 10
617754.3706235299
 20
4833901.434036245
  0
LWPOLYLINE
  5
1B4
330
17
100
AcDbEntity
  8
ROADS
100
AcDbPolyline
 90
2
 70
0
 10
617638.2632696396
 20
4833862.092732542
 10
617620.9502619731
 20
4833914.639583726
  0
LWPOLYLINE
  5
1B5
330
17
100
AcDbEntity
  8
ROADS
100
AcDbPolyline
 90
2
 70
0
 10
617754.3706235299
 20
4833901.434036245
 10
617703.680899503
 20
4834040.1792737
  0
LWPOLYLINE
  5
1B6
330
17
100
AcDbEntity
  8
ROADS
100
AcDbPolyline
 90
2
 70
0
 10
618171.9624944616
 20
4833913.7153942995
 10
618093.4638657178
 20
4833882.614551684
  0
LWPOLYLINE
  5
1B7
330
17
100
AcDbEntity
  8
ROADS
100
AcDbPolyline
 90
2
 70
0
 10
618346.575383851
 20
4834031.08146308
 10
618204.238446447
 20
4833847.883432935
  0
LWPOLYLINE
  5
1B8
330
17
100
AcDbEntity
  8
ROADS
100
AcDbPolyline
 90
2
 70
0
 10
618093.4638657178
 20
4833882.614551684
 10
618052.2506027154
 20
4834008.478034212
  0
LWPOLYLINE
  5
1B9
330
17
100
AcDbEntity
  8
ROADS
100
AcDbPolyline
 90
2
 70
0
 10
618052.2506027154
 20
4834008.478034212
 10
617860.3771800938
 20
4833937.482694413
  0
LWPOLYLINE
  5
1BA
330
17
100
AcDbEntity
  8
ROADS
100
AcDbPolyline
 90
2
 70
0
 10
618473.1899383453
 20
4833991.464480977
 10
618441.2080507604
 20
4833994.880564549
  0
LWPOLYLINE
  5
1BB
330
17
100
AcDbEntity
  8
ROADS
100
AcDbPolyline
 90
2
 70
0
 10
618203.7991092112
 20
4834089.243954906
 10
618171.9624944616
 20
4833913.7153942995
  0
LWPOLYLINE
  5
1BC
330
17
100
AcDbEntity
  8
ROADS
100
AcDbPolyline
 90
2
 70
0
 10
618441.2080507604
 20
4833994.880564549
 10
618346.575383851
 20
4834031.08146308
  0
LWPOLYLINE
  5
1BD
330
17
100
AcDbEntity
  8
ROADS
100
AcDbPolyline
 90
3
 70
0
 10
618346.575383851
 20
4834031.08146308
 10
618300.1227766809
 20
4834073.460373937
 10
618245.6562578849
 20
4834084.11631065
  0
LWPOLYLINE
  5
1BE
330
17
100
AcDbEntity
  8
ROADS
100
AcDbPolyline
 90
3
 70
0
 10
618052.2506027154
 20
4834008.478034212
 10
618040.0809831733
 20
4834052.972618877
 10
618051.5959857157
 20
4834110.147721748
  0
LWPOLYLINE
  5
1BF
330
17
100
AcDbEntity
  8
ROADS
100
AcDbPolyline
 90
2
 70
0
 10
618245.6562578849
 20
4834084.11631065
 10
618203.7991092112
 20
4834089.243954906
  0
LWPOLYLINE
  5
1C0
330
17
100
AcDbEntity
  8
ROADS
100
AcDbPolyline
 90
2
 70
0
 10
618988.8517108066
 20
4834002.757934215
 10
619090.8045261182
 20
4833894.701549468
  0
LWPOLYLINE
  5
1C1
330
17
100
AcDbEntity
  8
ROADS
100
AcDbPolyline
 90
3
 70
0
 10
618956.1218007257
 20
4833902.76164589
 10
618939.3045233054
 20
4833988.833902458
 10
618956.9158217136
 20
4834012.257581166
  0
LWPOLYLINE
  5
1C2
330
17
100
AcDbEntity
  8
ROADS
100
AcDbPolyline
 90
2
 70
0
 10
618573.0347673397
 20
4833944.090356758
 10
618473.1899383453
 20
4833991.464480977
  0
LWPOLYLINE
  5
1C3
330
17
100
AcDbEntity
  8
ROADS
100
AcDbPolyline
 90
2
 70
0
 10
618573.0347673397
 20
4833944.090356758
 10
618607.3371299374
 20
4834000.795386678
  0
LWPOLYLINE
  5
1C4
330
17
100
AcDbEntity
  8
ROADS
100
AcDbPolyline
 90
2
 70
0
 10
618915.7709162273
 20
4833973.991006439
 10
618956.9158217136
 20
4834012.257581166
  0
LWPOLYLINE
  5
1C5
330
17
100
AcDbEntity
  8
ROADS
100
AcDbPolyline
 90
2
 70
0
 10
618766.1408888538
 20
4834097.455149499
 10
618650.4763178552
 20
4833915.38897452
  0
LWPOLYLINE
  5
1C6
330
17
100
AcDbEntity
  8
ROADS
100
AcDbPolyline
 90
2
 70
0
 10
618974.6370001824
 20
4834019.42164087
 10
618988.8517108066
 20
4834002.757934215
  0
LWPOLYLINE
  5
1C7
330
17
100
AcDbEntity
  8
ROADS
100
AcDbPolyline
 90
2
 70
0
 10
619014.2130291698
 20
4834024.758137666
 10
618988.8517108066
 20
4834002.757934215
  0
LWPOLYLINE
  5
1C8
330
17
100
AcDbEntity
  8
ROADS
100
AcDbPolyline
 90
2
 70
0
 10
618956.9158217136
 20
4834012.257581166
 10
618974.6370001824
 20
4834019.42164087
  0
LWPOLYLINE
  5
1C9
330
17
100
AcDbEntity
  8
ROADS
100
AcDbPolyline
 90
2
 70
0
 10
619014.2130291698
 20
4834024.758137666
 10
619051.3029193123
 20
4834069.380177782
  0
LWPOLYLINE
  5
1CA
330
17
100
AcDbEntity
  8
ROADS
100
AcDbPolyline
 90
4
 70
0
 10
618766.1408888538
 20
4834097.455149499
 10
618700.0748532322
 20
4834111.929585233
 10
618493.8255480984
 20
4834014.3222688595
 10
618473.1899383453
 20
4833991.464480977
  0
LWPOLYLINE
  5
1CB
330
17
100
AcDbEntity
  8
ROADS
100
AcDbPolyline
 90
3
 70
0
 10
618974.6370001824
 20
4834019.42164087
 10
618910.9278217772
 20
4834085.029600223
 10
618930.6784986305
 20
4834115.721053756
  0
LWPOLYLINE
  5
1CC
330
17
100
AcDbEntity
  8
ROADS
100
AcDbPolyline
 90
2
 70
0
 10
618930.6784986305
 20
4834115.721053756
 10
619014.2130291698
 20
4834024.758137666
  0
LWPOLYLINE
  5
1CD
330
17
100
AcDbEntity
  8
ROADS
100
AcDbPolyline
 90
2
 70
0
 10
618915.7709162273
 20
4833973.991006439
 10
618834.96477398
 20
4834206.485117129
  0
LWPOLYLINE
  5
1CE
330
17
100
AcDbEntity
  8
ROADS
100
AcDbPolyline
 90
5
 70
0
 10
618930.6784986305
 20
4834115.721053756
 10
618950.7441144647
 20
4834116.189409467
 10
618965.3788854145
 20
4834136.592684214
 10
618951.6339083542
 20
4834146.134608683
 10
618930.6784986305
 20
4834115.721053756
  0
LWPOLYLINE
  5
1CF
330
17
100
AcDbEntity
  8
ROADS
100
AcDbPolyline
 90
2
 70
0
 10
618817.3536576454
 20
4834180.064829097
 10
618766.1408888538
 20
4834097.455149499
  0
LWPOLYLINE
  5
1D0
330
17
100
AcDbEntity
  8
ROADS
100
AcDbPolyline
 90
3
 70
0
 10
619051.3029193123
 20
4834069.380177782
 10
619020.1054813595
 20
4834131.195628937
 10
618855.5029215581
 20
4834238.663526094
  0
LWPOLYLINE
  5
1D1
330
17
100
AcDbEntity
  8
ROADS
100
AcDbPolyline
 90
3
 70
0
 10
618846.8559187375
 20
4834225.1187335225
 10
618873.319930066
 20
4834158.0335736545
 10
618930.6784986305
 20
4834115.721053756
  0
LWPOLYLINE
  5
1D2
330
17
100
AcDbEntity
  8
ROADS
100
AcDbPolyline
 90
2
 70
0
 10
618817.3536576454
 20
4834180.064829097
 10
618723.0480697032
 20
4834196.226896309
  0
LWPOLYLINE
  5
1D3
330
17
100
AcDbEntity
  8
ROADS
100
AcDbPolyline
 90
2
 70
0
 10
618834.96477398
 20
4834206.485117129
 10
618817.3536576454
 20
4834180.064829097
  0
LWPOLYLINE
  5
1D4
330
17
100
AcDbEntity
  8
ROADS
100
AcDbPolyline
 90
2
 70
0
 10
617860.3771800938
 20
4833937.482694413
 10
617791.5950180071
 20
4834146.556613273
  0
LWPOLYLINE
  5
1D5
330
17
100
AcDbEntity
  8
ROADS
100
AcDbPolyline
 90
2
 70
0
 10
617791.5950180071
 20
4834146.556613273
 10
617781.3980250445
 20
4834143.580469105
  0
LWPOLYLINE
  5
1D6
330
17
100
AcDbEntity
  8
ROADS
100
AcDbPolyline
 90
2
 70
0
 10
617921.9291297712
 20
4834130.529779659
 10
617791.5950180071
 20
4834146.556613273
  0
LWPOLYLINE
  5
1D7
330
17
100
AcDbEntity
  8
ROADS
100
AcDbPolyline
 90
3
 70
0
 10
617936.2599402927
 20
4834186.3367129695
 10
617864.6958609829
 20
4834218.682326434
 10
617840.0129481029
 20
4834273.516671185
  0
LWPOLYLINE
  5
1D8
330
17
100
AcDbEntity
  8
ROADS
100
AcDbPolyline
 90
2
 70
0
 10
617791.5950180071
 20
4834146.556613273
 10
617787.3584532503
 20
4834159.112538193
  0
LWPOLYLINE
  5
1D9
330
17
100
AcDbEntity
  8
ROADS
100
AcDbPolyline
 90
2
 70
0
 10
618846.8559187375
 20
4834225.1187335225
 10
618834.96477398
 20
4834206.485117129
  0
LWPOLYLINE
  5
1DA
330
17
100
AcDbEntity
  8
ROADS
100
AcDbPolyline
 90
3
 70
0
 10
618723.0480697032
 20
4834196.226896309
 10
618623.6910068606
 20
4834199.128168994
 10
618583.969235984
 20
4834252.868161698
  0
LWPOLYLINE
  5
1DB
330
17
100
AcDbEntity
  8
ROADS
100
AcDbPolyline
 90
2
 70
0
 10
618723.0480697032
 20
4834196.226896309
 10
618723.3534982395
 20
4834252.9684947515
  0
LWPOLYLINE
  5
1DC
330
17
100
AcDbEntity
  8
ROADS
100
AcDbPolyline
 90
2
 70
0
 10
618855.5029215581
 20
4834238.663526094
 10
618846.8559187375
 20
4834225.1187335225
  0
LWPOLYLINE
  5
1DD
330
17
100
AcDbEntity
  8
ROADS
100
AcDbPolyline
 90
2
 70
0
 10
618834.96477398
 20
4834206.485117129
 10
618808.9627838687
 20
4834281.508909338
  0
LWPOLYLINE
  5
1DE
330
17
100
AcDbEntity
  8
ROADS
100
AcDbPolyline
 90
2
 70
0
 10
618583.969235984
 20
4834252.868161698
 10
618631.1608457
 20
4834281.975194248
  0
LWPOLYLINE
  5
1DF
330
17
100
AcDbEntity
  8
ROADS
100
AcDbPolyline
 90
2
 70
0
 10
618908.2115014396
 20
4834321.230284613
 10
618855.5029215581
 20
4834238.663526094
  0
LWPOLYLINE
  5
1E0
330
17
100
AcDbEntity
  8
ROADS
100
AcDbPolyline
 90
2
 70
0
 10
619004.7887238268
 20
4834253.975387914
 10
618908.2115014396
 20
4834321.230284613
  0
LWPOLYLINE
  5
1E1
330
17
100
AcDbEntity
  8
ROADS
100
AcDbPolyline
 90
2
 70
0
 10
618808.9627838687
 20
4834281.508909338
 10
618862.1132226237
 20
4834364.4706647
  0
LWPOLYLINE
  5
1E2
330
17
100
AcDbEntity
  8
ROADS
100
AcDbPolyline
 90
4
 70
0
 10
618583.969235984
 20
4834252.868161698
 10
618568.9475412982
 20
4834322.310160327
 10
618651.808709586
 20
4834379.783961729
 10
618764.4288863951
 20
4834417.124952759
  0
LWPOLYLINE
  5
1E3
330
17
100
AcDbEntity
  8
ROADS
100
AcDbPolyline
 90
2
 70
0
 10
618808.9627838687
 20
4834281.508909338
 10
618764.4288863951
 20
4834417.124952759
  0
LWPOLYLINE
  5
1E4
330
17
100
AcDbEntity
  8
ROADS
100
AcDbPolyline
 90
2
 70
0
 10
618952.2439934304
 20
4834390.560753905
 10
618908.2115014396
 20
4834321.230284613
  0
LWPOLYLINE
  5
1E5
330
17
100
AcDbEntity
  8
ROADS
100
AcDbPolyline
 90
2
 70
0
 10
618862.1132226237
 20
4834364.4706647
 10
618836.7751956603
 20
4834379.911249997
  0
LWPOLYLINE
  5
1E6
330
17
100
AcDbEntity
  8
ROADS
100
AcDbPolyline
 90
2
 70
0
 10
618862.1132226237
 20
4834364.4706647
 10
618900.5355441403
 20
4834424.44837776
  0
LWPOLYLINE
  5
1E7
330
17
100
AcDbEntity
  8
ROADS
100
AcDbPolyline
 90
3
 70
0
 10
618969.0417880267
 20
4834418.490419205
 10
619025.7524770539
 20
4834385.92825296
 10
619076.3217496455
 20
4834395.0916418545
  0
LWPOLYLINE
  5
1E8
330
17
100
AcDbEntity
  8
ROADS
100
AcDbPolyline
 90
2
 70
0
 10
618969.0417880267
 20
4834418.490419205
 10
618952.2439934304
 20
4834390.560753905
  0
LWPOLYLINE
  5
1E9
330
17
100
AcDbEntity
  8
ROADS
100
AcDbPolyline
 90
2
 70
0
 10
618952.2439934304
 20
4834390.560753905
 10
618900.5355441403
 20
4834424.44837776
  0
LWPOLYLINE
  5
1EA
330
17
100
AcDbEntity
  8
ROADS
100
AcDbPolyline
 90
2
 70
0
 10
618863.7170897783
 20
4834436.403319652
 10
618764.4288863951
 20
4834417.124952759
  0
LWPOLYLINE
  5
1EB
330
17
100
AcDbEntity
  8
ROADS
100
AcDbPolyline
 90
3
 70
0
 10
619076.3217496455
 20
4834395.0916418545
 10
619068.9238131411
 20
4834414.49165397
 10
618995.8835733881
 20
4834461.268191089
  0
LWPOLYLINE
  5
1EC
330
17
100
AcDbEntity
  8
ROADS
100
AcDbPolyline
 90
2
 70
0
 10
618900.5355441403
 20
4834424.44837776
 10
618863.7170897783
 20
4834436.403319652
  0
LWPOLYLINE
  5
1ED
330
17
100
AcDbEntity
  8
ROADS
100
AcDbPolyline
 90
2
 70
0
 10
618203.7991092112
 20
4834089.243954906
 10
618051.5959857157
 20
4834110.147721748
  0
LWPOLYLINE
  5
1EE
330
17
100
AcDbEntity
  8
ROADS
100
AcDbPolyline
 90
2
 70
0
 10
618245.6562578849
 20
4834084.11631065
 10
618215.2744089842
 20
4834129.859787984
  0
LWPOLYLINE
  5
1EF
330
17
100
AcDbEntity
  8
ROADS
100
AcDbPolyline
 90
2
 70
0
 10
618203.7991092112
 20
4834089.243954906
 10
618215.2744089842
 20
4834129.859787984
  0
LWPOLYLINE
  5
1F0
330
17
100
AcDbEntity
  8
ROADS
100
AcDbPolyline
 90
2
 70
0
 10
618051.5959857157
 20
4834110.147721748
 10
617921.9291297712
 20
4834130.529779659
  0
LWPOLYLINE
  5
1F1
330
17
100
AcDbEntity
  8
ROADS
100
AcDbPolyline
 90
2
 70
0
 10
617936.2599402927
 20
4834186.3367129695
 10
617921.9291297712
 20
4834130.529779659
  0
LWPOLYLINE
  5
1F2
330
17
100
AcDbEntity
  8
ROADS
100
AcDbPolyline
 90
3
 70
0
 10
618215.2744089842
 20
4834129.859787984
 10
618113.4738025554
 20
4834212.741691204
 10
617936.2599402927
 20
4834186.3367129695
  0
LWPOLYLINE
  5
1F3
330
17
100
AcDbEntity
  8
ROADS
100
AcDbPolyline
 90
2
 70
0
 10
618334.3579818851
 20
4834706.374598641
 10
618260.7566270547
 20
4834681.521298548
  0
LWPOLYLINE
  5
1F4
330
17
100
AcDbEntity
  8
ROADS
100
AcDbPolyline
 90
2
 70
0
 10
618556.6491530095
 20
4834781.987482141
 10
618334.3579818851
 20
4834706.374598641
  0
LWPOLYLINE
  5
1F5
330
17
100
AcDbEntity
  8
ROADS
100
AcDbPolyline
 90
2
 70
0
 10
618299.7783963729
 20
4834801.325895826
 10
618334.3579818851
 20
4834706.374598641
  0
LWPOLYLINE
  5
1F6
330
17
100
AcDbEntity
  8
ROADS
100
AcDbPolyline
 90
2
 70
0
 10
618299.7783963729
 20
4834801.325895826
 10
618257.7923030632
 20
4834787.528479188
  0
LWPOLYLINE
  5
1F7
330
17
100
AcDbEntity
  8
ROADS
100
AcDbPolyline
 90
2
 70
0
 10
619227.4241316497
 20
4834334.640527693
 10
619242.9607723734
 20
4834429.685979677
  0
LWPOLYLINE
  5
1F8
330
17
100
AcDbEntity
  8
ROADS
100
AcDbPolyline
 90
2
 70
0
 10
619323.1039135157
 20
4834377.123563473
 10
619242.9607723734
 20
4834429.685979677
  0
LWPOLYLINE
  5
1F9
330
17
100
AcDbEntity
  8
ROADS
100
AcDbPolyline
 90
2
 70
0
 10
619076.3217496455
 20
4834395.0916418545
 10
619136.2509843672
 20
4834414.069587477
  0
LWPOLYLINE
  5
1FA
330
17
100
AcDbEntity
  8
ROADS
100
AcDbPolyline
 90
2
 70
0
 10
619136.2509843672
 20
4834414.069587477
 10
619236.9405682653
 20
4834446.613809276
  0
LWPOLYLINE
  5
1FB
330
17
100
AcDbEntity
  8
ROADS
100
AcDbPolyline
 90
2
 70
0
 10
619242.9607723734
 20
4834429.685979677
 10
619236.9405682653
 20
4834446.613809276
  0
LWPOLYLINE
  5
1FC
330
17
100
AcDbEntity
  8
ROADS
100
AcDbPolyline
 90
3
 70
0
 10
619323.1039135157
 20
4834377.123563473
 10
619339.7028837821
 20
4834448.031318023
 10
619323.6679340156
 20
4834505.752700083
  0
LWPOLYLINE
  5
1FD
330
17
100
AcDbEntity
  8
ROADS
100
AcDbPolyline
 90
3
 70
0
 10
619136.2509843672
 20
4834414.069587477
 10
619131.1629986698
 20
4834464.790540945
 10
619193.6624272016
 20
4834566.9701239625
  0
LWPOLYLINE
  5
1FE
330
17
100
AcDbEntity
  8
ROADS
100
AcDbPolyline
 90
2
 70
0
 10
619236.9405682653
 20
4834446.613809276
 10
619193.6624272016
 20
4834566.9701239625
  0
LWPOLYLINE
  5
1FF
330
17
100
AcDbEntity
  8
ROADS
100
AcDbPolyline
 90
2
 70
0
 10
619323.6679340156
 20
4834505.752700083
 10
619376.8467288474
 20
4834529.555847495
  0
LWPOLYLINE
  5
200
330
17
100
AcDbEntity
  8
ROADS
100
AcDbPolyline
 90
2
 70
0
 10
619323.6679340156
 20
4834505.752700083
 10
619293.6229092513
 20
4834593.931004023
  0
LWPOLYLINE
  5
201
330
17
100
AcDbEntity
  8
ROADS
100
AcDbPolyline
 90
2
 70
0
 10
618995.8835733881
 20
4834461.268191089
 10
618969.0417880267
 20
4834418.490419205
  0
LWPOLYLINE
  5
202
330
17
100
AcDbEntity
  8
ROADS
100
AcDbPolyline
 90
2
 70
0
 10
618863.7170897783
 20
4834436.403319652
 10
618848.6658824142
 20
4834483.852021418
  0
LWPOLYLINE
  5
203
330
17
100
AcDbEntity
  8
ROADS
100
AcDbPolyline
 90
2
 70
0
 10
618764.4288863951
 20
4834417.124952759
 10
618705.113845534
 20
4834595.20433676
  0
LWPOLYLINE
  5
204
330
17
100
AcDbEntity
  8
ROADS
100
AcDbPolyline
 90
2
 70
0
 10
618848.6658824142
 20
4834483.852021418
 10
618807.8401176278
 20
4834606.628609367
  0
LWPOLYLINE
  5
205
330
17
100
AcDbEntity
  8
ROADS
100
AcDbPolyline
 90
2
 70
0
 10
618705.113845534
 20
4834595.20433676
 10
618589.7241320027
 20
4834558.166241797
  0
LWPOLYLINE
  5
206
330
17
100
AcDbEntity
  8
ROADS
100
AcDbPolyline
 90
4
 70
0
 10
619124.332750933
 20
4834665.115161052
 10
619017.908822586
 20
4834726.905270413
 10
618891.4258294835
 20
4834512.71099545
 10
618848.6658824142
 20
4834483.852021418
  0
LWPOLYLINE
  5
207
330
17
100
AcDbEntity
  8
ROADS
100
AcDbPolyline
 90
2
 70
0
 10
618807.8401176278
 20
4834606.628609367
 10
618767.1417439142
 20
4834728.496437509
  0
LWPOLYLINE
  5
208
330
17
100
AcDbEntity
  8
ROADS
100
AcDbPolyline
 90
2
 70
0
 10
618705.113845534
 20
4834595.20433676
 10
618633.5026845442
 20
4834808.721681023
  0
LWPOLYLINE
  5
209
330
17
100
AcDbEntity
  8
ROADS
100
AcDbPolyline
 90
2
 70
0
 10
618767.1417439142
 20
4834728.496437509
 10
618750.6093381603
 20
4834684.946996334
  0
LWPOLYLINE
  5
20A
330
17
100
AcDbEntity
  8
ROADS
100
AcDbPolyline
 90
4
 70
0
 10
619083.2260190942
 20
4834903.614616472
 10
619003.9832276026
 20
4834865.875759702
 10
618858.4474195825
 20
4834640.01961116
 10
618807.8401176278
 20
4834606.628609367
  0
LWPOLYLINE
  5
20B
330
17
100
AcDbEntity
  8
ROADS
100
AcDbPolyline
 90
2
 70
0
 10
619124.332750933
 20
4834665.115161052
 10
618995.8835733881
 20
4834461.268191089
  0
LWPOLYLINE
  5
20C
330
17
100
AcDbEntity
  8
ROADS
100
AcDbPolyline
 90
2
 70
0
 10
619193.6624272016
 20
4834566.9701239625
 10
619262.8207952315
 20
4834673.315271075
  0
LWPOLYLINE
  5
20D
330
17
100
AcDbEntity
  8
ROADS
100
AcDbPolyline
 90
2
 70
0
 10
619293.6229092513
 20
4834593.931004023
 10
619262.8207952315
 20
4834673.315271075
  0
LWPOLYLINE
  5
20E
330
17
100
AcDbEntity
  8
ROADS
100
AcDbPolyline
 90
3
 70
0
 10
619293.6229092513
 20
4834593.931004023
 10
619400.6370315272
 20
4834658.049836041
 10
619431.9535398829
 20
4834768.677196734
  0
LWPOLYLINE
  5
20F
330
17
100
AcDbEntity
  8
ROADS
100
AcDbPolyline
 90
2
 70
0
 10
619262.8207952315
 20
4834673.315271075
 10
619345.4346059078
 20
4834730.316786248
  0
LWPOLYLINE
  5
210
330
17
100
AcDbEntity
  8
ROADS
100
AcDbPolyline
 90
3
 70
0
 10
619313.6369520603
 20
4834830.084840963
 10
619188.9557953833
 20
4834757.027276764
 10
619124.332750933
 20
4834665.115161052
  0
LWPOLYLINE
  5
211
330
17
100
AcDbEntity
  8
ROADS
100
AcDbPolyline
 90
2
 70
0
 10
619345.4346059078
 20
4834730.316786248
 10
619431.9535398829
 20
4834768.677196734
  0
LWPOLYLINE
  5
212
330
17
100
AcDbEntity
  8
ROADS
100
AcDbPolyline
 90
2
 70
0
 10
619345.4346059078
 20
4834730.316786248
 10
619313.6369520603
 20
4834830.084840963
  0
LWPOLYLINE
  5
213
330
17
100
AcDbEntity
  8
ROADS
100
AcDbPolyline
 90
2
 70
0
 10
619431.9535398829
 20
4834768.677196734
 10
619455.0807926323
 20
4834831.225678284
  0
LWPOLYLINE
  5
214
330
17
100
AcDbEntity
  8
ROADS
100
AcDbPolyline
 90
2
 70
0
 10
619313.6369520603
 20
4834830.084840963
 10
619288.1217237773
 20
4834871.091189837
  0
LWPOLYLINE
  5
215
330
17
100
AcDbEntity
  8
ROADS
100
AcDbPolyline
 90
2
 70
0
 10
619710.2996933092
 20
4834071.759577241
 10
619620.1637766632
 20
4834043.2658122135
  0
LWPOLYLINE
  5
216
330
17
100
AcDbEntity
  8
ROADS
100
AcDbPolyline
 90
2
 70
0
 10
619620.1637766632
 20
4834043.2658122135
 10
619593.8871961803
 20
4834125.181100009
  0
LWPOLYLINE
  5
217
330
17
100
AcDbEntity
  8
ROADS
100
AcDbPolyline
 90
2
 70
0
 10
619547.562431278
 20
4834109.0781843625
 10
619432.4221696296
 20
4834067.570505274
  0
LWPOLYLINE
  5
218
330
17
100
AcDbEntity
  8
ROADS
100
AcDbPolyline
 90
2
 70
0
 10
619593.8871961803
 20
4834125.181100009
 10
619547.562431278
 20
4834109.0781843625
  0
LWPOLYLINE
  5
219
330
17
100
AcDbEntity
  8
ROADS
100
AcDbPolyline
 90
2
 70
0
 10
619729.1284062908
 20
4834144.20714676
 10
619722.4424446704
 20
4834166.5002781665
  0
LWPOLYLINE
  5
21A
330
17
100
AcDbEntity
  8
ROADS
100
AcDbPolyline
 90
2
 70
0
 10
619634.5674924677
 20
4834138.918907054
 10
619593.8871961803
 20
4834125.181100009
  0
LWPOLYLINE
  5
21B
330
17
100
AcDbEntity
  8
ROADS
100
AcDbPolyline
 90
2
 70
0
 10
619722.4424446704
 20
4834166.5002781665
 10
619634.5674924677
 20
4834138.918907054
  0
LWPOLYLINE
  5
21C
330
17
100
AcDbEntity
  8
ROADS
100
AcDbPolyline
 90
2
 70
0
 10
619734.2344975747
 20
4834170.815420852
 10
619722.4424446704
 20
4834166.5002781665
  0
LWPOLYLINE
  5
21D
330
17
100
AcDbEntity
  8
ROADS
100
AcDbPolyline
 90
2
 70
0
 10
619547.562431278
 20
4834109.0781843625
 10
619486.9395421689
 20
4834293.67665189
  0
LWPOLYLINE
  5
21E
330
17
100
AcDbEntity
  8
ROADS
100
AcDbPolyline
 90
2
 70
0
 10
619051.3029193123
 20
4834069.380177782
 10
619078.5708595366
 20
4834094.558970753
  0
LWPOLYLINE
  5
21F
330
17
100
AcDbEntity
  8
ROADS
100
AcDbPolyline
 90
2
 70
0
 10
619236.8970674315
 20
4834098.973759655
 10
619161.7253098803
 20
4834150.865056753
  0
LWPOLYLINE
  5
220
330
17
100
AcDbEntity
  8
ROADS
100
AcDbPolyline
 90
3
 70
0
 10
619432.4221696296
 20
4834067.570505274
 10
619415.9684204665
 20
4834142.656022421
 10
619453.5135032011
 20
4834283.095072985
  0
LWPOLYLINE
  5
221
330
17
100
AcDbEntity
  8
ROADS
100
AcDbPolyline
 90
2
 70
0
 10
619161.7253098803
 20
4834150.865056753
 10
619004.7887238268
 20
4834253.975387914
  0
LWPOLYLINE
  5
222
330
17
100
AcDbEntity
  8
ROADS
100
AcDbPolyline
 90
3
 70
0
 10
619236.8970674315
 20
4834098.973759655
 10
619268.3363264662
 20
4834156.068182747
 10
619323.1039135157
 20
4834377.123563473
  0
LWPOLYLINE
  5
223
330
17
100
AcDbEntity
  8
ROADS
100
AcDbPolyline
 90
3
 70
0
 10
619161.7253098803
 20
4834150.865056753
 10
619190.0283696285
 20
4834192.914214996
 10
619227.4241316497
 20
4834334.640527693
  0
LWPOLYLINE
  5
224
330
17
100
AcDbEntity
  8
ROADS
100
AcDbPolyline
 90
2
 70
0
 10
619486.9395421689
 20
4834293.67665189
 10
619453.5135032011
 20
4834283.095072985
  0
LWPOLYLINE
  5
225
330
17
100
AcDbEntity
  8
ROADS
100
AcDbPolyline
 90
2
 70
0
 10
619004.7887238268
 20
4834253.975387914
 10
619227.4241316497
 20
4834334.640527693
  0
LWPOLYLINE
  5
226
330
17
100
AcDbEntity
  8
ROADS
100
AcDbPolyline
 90
2
 70
0
 10
619453.5135032011
 20
4834283.095072985
 10
619468.0189117566
 20
4834342.578565122
  0
LWPOLYLINE
  5
227
330
17
100
AcDbEntity
  8
ROADS
100
AcDbPolyline
 90
2
 70
0
 10
619486.9395421689
 20
4834293.67665189
 10
619468.0189117566
 20
4834342.578565122
  0
LWPOLYLINE
  5
228
330
17
100
AcDbEntity
  8
ROADS
100
AcDbPolyline
 90
2
 70
0
 10
619634.5674924677
 20
4834138.918907054
 10
619573.4327279555
 20
4834324.282195461
  0
LWPOLYLINE
  5
229
330
17
100
AcDbEntity
  8
ROADS
100
AcDbPolyline
 90
2
 70
0
 10
619722.4424446704
 20
4834166.5002781665
 10
619651.0100673711
 20
4834386.340839872
  0
LWPOLYLINE
  5
22A
330
17
100
AcDbEntity
  8
ROADS
100
AcDbPolyline
 90
2
 70
0
 10
619573.4327279555
 20
4834324.282195461
 10
619486.9395421689
 20
4834293.67665189
  0
LWPOLYLINE
  5
22B
330
17
100
AcDbEntity
  8
ROADS
100
AcDbPolyline
 90
2
 70
0
 10
619739.1002277418
 20
4834413.535685826
 10
619732.5140545774
 20
4834432.549859654
  0
LWPOLYLINE
  5
22C
330
17
100
AcDbEntity
  8
ROADS
100
AcDbPolyline
 90
2
 70
0
 10
619573.4327279555
 20
4834324.282195461
 10
619557.1027498839
 20
4834370.552842886
  0
LWPOLYLINE
  5
22D
330
17
100
AcDbEntity
  8
ROADS
100
AcDbPolyline
 90
2
 70
0
 10
619630.8907406718
 20
4834396.273572739
 10
619557.1027498839
 20
4834370.552842886
  0
LWPOLYLINE
  5
22E
330
17
100
AcDbEntity
  8
ROADS
100
AcDbPolyline
 90
2
 70
0
 10
619630.8907406718
 20
4834396.273572739
 10
619651.0100673711
 20
4834386.340839872
  0
LWPOLYLINE
  5
22F
330
17
100
AcDbEntity
  8
ROADS
100
AcDbPolyline
 90
2
 70
0
 10
619651.0100673711
 20
4834386.340839872
 10
619661.1056859348
 20
4834406.854127333
  0
LWPOLYLINE
  5
230
330
17
100
AcDbEntity
  8
ROADS
100
AcDbPolyline
 90
2
 70
0
 10
619468.0189117566
 20
4834342.578565122
 10
619498.6115548112
 20
4834454.03286473
  0
LWPOLYLINE
  5
231
330
17
100
AcDbEntity
  8
ROADS
100
AcDbPolyline
 90
2
 70
0
 10
619640.5970302522
 20
4834416.748820616
 10
619630.8907406718
 20
4834396.273572739
  0
LWPOLYLINE
  5
232
330
17
100
AcDbEntity
  8
ROADS
100
AcDbPolyline
 90
2
 70
0
 10
619661.1056859348
 20
4834406.854127333
 10
619640.5970302522
 20
4834416.748820616
  0
LWPOLYLINE
  5
233
330
17
100
AcDbEntity
  8
ROADS
100
AcDbPolyline
 90
2
 70
0
 10
619557.1027498839
 20
4834370.552842886
 10
619528.3913526477
 20
4834454.772171078
  0
LWPOLYLINE
  5
234
330
17
100
AcDbEntity
  8
ROADS
100
AcDbPolyline
 90
2
 70
0
 10
619732.5140545774
 20
4834432.549859654
 10
619661.1056859348
 20
4834406.854127333
  0
LWPOLYLINE
  5
235
330
17
100
AcDbEntity
  8
ROADS
100
AcDbPolyline
 90
2
 70
0
 10
619736.7592544471
 20
4834433.96233245
 10
619732.5140545774
 20
4834432.549859654
  0
LWPOLYLINE
  5
236
330
17
100
AcDbEntity
  8
ROADS
100
AcDbPolyline
 90
2
 70
0
 10
619528.3913526477
 20
4834454.772171078
 10
619498.6115548112
 20
4834454.03286473
  0
LWPOLYLINE
  5
237
330
17
100
AcDbEntity
  8
ROADS
100
AcDbPolyline
 90
2
 70
0
 10
619498.6115548112
 20
4834454.03286473
 10
619512.02909186
 20
4834502.3852750575
  0
LWPOLYLINE
  5
238
330
17
100
AcDbEntity
  8
ROADS
100
AcDbPolyline
 90
2
 70
0
 10
619528.3913526477
 20
4834454.772171078
 10
619512.02909186
 20
4834502.3852750575
  0
LWPOLYLINE
  5
239
330
17
100
AcDbEntity
  8
ROADS
100
AcDbPolyline
 90
2
 70
0
 10
619640.5970302522
 20
4834416.748820616
 10
619573.1360047988
 20
4834607.359918602
  0
LWPOLYLINE
  5
23A
330
17
100
AcDbEntity
  8
ROADS
100
AcDbPolyline
 90
2
 70
0
 10
619512.02909186
 20
4834502.3852750575
 10
619539.3479621257
 20
4834605.740112423
  0
LWPOLYLINE
  5
23B
330
17
100
AcDbEntity
  8
ROADS
100
AcDbPolyline
 90
2
 70
0
 10
619732.5140545774
 20
4834432.549859654
 10
619644.2757320122
 20
4834688.743024827
  0
LWPOLYLINE
  5
23C
330
17
100
AcDbEntity
  8
ROADS
100
AcDbPolyline
 90
2
 70
0
 10
619573.1360047988
 20
4834607.359918602
 10
619539.3479621257
 20
4834605.740112423
  0
LWPOLYLINE
  5
23D
330
17
100
AcDbEntity
  8
ROADS
100
AcDbPolyline
 90
2
 70
0
 10
619539.3479621257
 20
4834605.740112423
 10
619553.6107929798
 20
4834659.056008606
  0
LWPOLYLINE
  5
23E
330
17
100
AcDbEntity
  8
ROADS
100
AcDbPolyline
 90
2
 70
0
 10
619573.1360047988
 20
4834607.359918602
 10
619553.6107929798
 20
4834659.056008606
  0
LWPOLYLINE
  5
23F
330
17
100
AcDbEntity
  8
ROADS
100
AcDbPolyline
 90
2
 70
0
 10
619644.2757320122
 20
4834688.743024827
 10
619553.6107929798
 20
4834659.056008606
  0
LWPOLYLINE
  5
240
330
17
100
AcDbEntity
  8
ROADS
100
AcDbPolyline
 90
2
 70
0
 10
619648.7152773987
 20
4834690.320119211
 10
619644.2757320122
 20
4834688.743024827
  0
LWPOLYLINE
  5
241
330
17
100
AcDbEntity
  8
ROADS
100
AcDbPolyline
 90
3
 70
0
 10
619553.6107929798
 20
4834659.056008606
 10
619575.3857978381
 20
4834747.618080786
 10
619595.5808010161
 20
4834774.53632887
  0
LWPOLYLINE
  5
242
330
17
100
AcDbEntity
  8
ROADS
100
AcDbPolyline
 90
2
 70
0
 10
619474.5989552367
 20
4834908.333849631
 10
619414.298507354
 20
4834876.406231079
  0
LWPOLYLINE
  5
243
330
17
100
AcDbEntity
  8
ROADS
100
AcDbPolyline
 90
2
 70
0
 10
619310.7619289017
 20
4834980.7166561885
 10
619328.7042172077
 20
4835014.428292687
  0
LWPOLYLINE
  5
244
330
17
100
AcDbEntity
  8
ROADS
100
AcDbPolyline
 90
2
 70
0
 10
619177.6521364364
 20
4834960.84069636
 10
619139.8203188347
 20
4835050.368212143
  0
LWPOLYLINE
  5
245
330
17
100
AcDbEntity
  8
ROADS
100
AcDbPolyline
 90
2
 70
0
 10
619329.3433413383
 20
4835014.3454444315
 10
619328.7042172077
 20
4835014.428292687
  0
LWPOLYLINE
  5
246
330
17
100
AcDbEntity
  8
ROADS
100
AcDbPolyline
 90
2
 70
0
 10
619328.7042172077
 20
4835014.428292687
 10
619260.7100875007
 20
4835042.835754121
  0
LWPOLYLINE
  5
247
330
17
100
AcDbEntity
  8
ROADS
100
AcDbPolyline
 90
3
 70
0
 10
619260.7100875007
 20
4835042.835754121
 10
619193.356920368
 20
4835064.000514905
 10
619139.8203188347
 20
4835050.368212143
  0
LWPOLYLINE
  5
248
330
17
100
AcDbEntity
  8
ROADS
100
AcDbPolyline
 90
2
 70
0
 10
619139.8203188347
 20
4835050.368212143
 10
619121.2785337488
 20
4835103.252633343
  0
LWPOLYLINE
  5
249
330
17
100
AcDbEntity
  8
ROADS
100
AcDbPolyline
 90
2
 70
0
 10
619260.7100875007
 20
4835042.835754121
 10
619263.5313146493
 20
4835050.170874471
  0
LWPOLYLINE
  5
24A
330
17
100
AcDbEntity
  8
ROADS
100
AcDbPolyline
 90
2
 70
0
 10
618767.1417439142
 20
4834728.496437509
 10
618728.8808912982
 20
4834839.937916313
  0
LWPOLYLINE
  5
24B
330
17
100
AcDbEntity
  8
ROADS
100
AcDbPolyline
 90
2
 70
0
 10
618633.5026845442
 20
4834808.721681023
 10
618556.6491530095
 20
4834781.987482141
  0
LWPOLYLINE
  5
24C
330
17
100
AcDbEntity
  8
ROADS
100
AcDbPolyline
 90
2
 70
0
 10
618728.8808912982
 20
4834839.937916313
 10
618633.5026845442
 20
4834808.721681023
  0
LWPOLYLINE
  5
24D
330
17
100
AcDbEntity
  8
ROADS
100
AcDbPolyline
 90
2
 70
0
 10
618556.6491530095
 20
4834781.987482141
 10
618521.6477452854
 20
4834875.708665727
  0
LWPOLYLINE
  5
24E
330
17
100
AcDbEntity
  8
ROADS
100
AcDbPolyline
 90
2
 70
0
 10
618633.5026845442
 20
4834808.721681023
 10
618596.1399657018
 20
4834925.633540336
  0
LWPOLYLINE
  5
24F
330
17
100
AcDbEntity
  8
ROADS
100
AcDbPolyline
 90
2
 70
0
 10
618521.6477452854
 20
4834875.708665727
 10
618517.2674753268
 20
4834898.340801241
  0
LWPOLYLINE
  5
250
330
17
100
AcDbEntity
  8
ROADS
100
AcDbPolyline
 90
2
 70
0
 10
618596.1399657018
 20
4834925.633540336
 10
618517.2674753268
 20
4834898.340801241
  0
LWPOLYLINE
  5
251
330
17
100
AcDbEntity
  8
ROADS
100
AcDbPolyline
 90
5
 70
0
 10
619001.2158834141
 20
4835112.944998394
 10
619017.906793609
 20
4835046.215218725
 10
618946.0684025778
 20
4834970.798777627
 10
618812.387816162
 20
4834749.994104197
 10
618767.1417439142
 20
4834728.496437509
  0
LWPOLYLINE
  5
252
330
17
100
AcDbEntity
  8
ROADS
100
AcDbPolyline
 90
3
 70
0
 10
618728.8808912982
 20
4834839.937916313
 10
618672.695727308
 20
4835009.55448053
 10
618824.2061082126
 20
4835066.598435015
  0
LWPOLYLINE
  5
253
330
17
100
AcDbEntity
  8
ROADS
100
AcDbPolyline
 90
4
 70
0
 10
618838.6072610375
 20
4835071.044930899
 10
618862.2836259454
 20
4835016.694916335
 10
618773.6573753653
 20
4834867.82834255
 10
618728.8808912982
 20
4834839.937916313
  0
LWPOLYLINE
  5
254
330
17
100
AcDbEntity
  8
ROADS
100
AcDbPolyline
 90
2
 70
0
 10
618521.6477452854
 20
4834875.708665727
 10
618299.7783963729
 20
4834801.325895826
  0
LWPOLYLINE
  5
255
330
17
100
AcDbEntity
  8
ROADS
100
AcDbPolyline
 90
2
 70
0
 10
618290.4222667079
 20
4834831.768842878
 10
618299.7783963729
 20
4834801.325895826
  0
LWPOLYLINE
  5
256
330
17
100
AcDbEntity
  8
ROADS
100
AcDbPolyline
 90
3
 70
0
 10
618517.2674753268
 20
4834898.340801241
 10
618482.1864044629
 20
4834958.296808495
 10
618376.4509746825
 20
4834923.11628322
  0
LWPOLYLINE
  5
257
330
17
100
AcDbEntity
  8
ROADS
100
AcDbPolyline
 90
2
 70
0
 10
619414.298507354
 20
4834876.406231079
 10
619313.6369520603
 20
4834830.084840963
  0
LWPOLYLINE
  5
258
330
17
100
AcDbEntity
  8
ROADS
100
AcDbPolyline
 90
2
 70
0
 10
619288.1217237773
 20
4834871.091189837
 10
619299.8359591906
 20
4834881.171329132
  0
LWPOLYLINE
  5
259
330
17
100
AcDbEntity
  8
ROADS
100
AcDbPolyline
 90
2
 70
0
 10
619288.1217237773
 20
4834871.091189837
 10
619215.7257669574
 20
4834924.651565353
  0
LWPOLYLINE
  5
25A
330
17
100
AcDbEntity
  8
ROADS
100
AcDbPolyline
 90
3
 70
0
 10
619414.298507354
 20
4834876.406231079
 10
619392.9179038766
 20
4834928.560760002
 10
619402.3635050821
 20
4834965.270022737
  0
LWPOLYLINE
  5
25B
330
17
100
AcDbEntity
  8
ROADS
100
AcDbPolyline
 90
3
 70
0
 10
619299.8359591906
 20
4834881.171329132
 10
619293.2170294945
 20
4834928.175484605
 10
619310.7619289017
 20
4834980.7166561885
  0
LWPOLYLINE
  5
25C
330
17
100
AcDbEntity
  8
ROADS
100
AcDbPolyline
 90
2
 70
0
 10
619177.6521364364
 20
4834960.84069636
 10
619083.2260190942
 20
4834903.614616472
  0
LWPOLYLINE
  5
25D
330
17
100
AcDbEntity
  8
ROADS
100
AcDbPolyline
 90
6
 70
0
 10
619310.7619289017
 20
4834980.7166561885
 10
619332.8430058153
 20
4834994.091326778
 10
619379.0171096032
 20
4834977.090353696
 10
619351.3974814027
 20
4834886.3415821465
 10
619324.9236802992
 20
4834873.550535303
 10
619299.8359591906
 20
4834881.171329132
  0
LWPOLYLINE
  5
25E
330
17
100
AcDbEntity
  8
ROADS
100
AcDbPolyline
 90
4
 70
0
 10
619083.2260190942
 20
4834903.614616472
 10
619070.9652628195
 20
4834942.4654479
 10
619047.5958631486
 20
4834951.345339568
 10
619072.9573342104
 20
4834969.959494615
  0
LWPOLYLINE
  5
25F
330
17
100
AcDbEntity
  8
ROADS
100
AcDbPolyline
 90
2
 70
0
 10
619215.7257669574
 20
4834924.651565353
 10
619177.6521364364
 20
4834960.84069636
  0
LWPOLYLINE
  5
260
330
17
100
AcDbEntity
  8
ROADS
100
AcDbPolyline
 90
2
 70
0
 10
619215.7257669574
 20
4834924.651565353
 10
619260.7100875007
 20
4835042.835754121
  0
LWPOLYLINE
  5
261
330
17
100
AcDbEntity
  8
ROADS
100
AcDbPolyline
 90
2
 70
0
 10
618596.1399657018
 20
4834925.633540336
 10
618555.8971613739
 20
4835045.696952816
  0
LWPOLYLINE
  5
262
330
17
100
AcDbEntity
  8
ROADS
100
AcDbPolyline
 90
2
 70
0
 10
618824.2061082126
 20
4835066.598435015
 10
618838.6072610375
 20
4835071.044930899
  0
LWPOLYLINE
  5
263
330
17
100
AcDbEntity
  8
ROADS
100
AcDbPolyline
 90
2
 70
0
 10
618838.6072610375
 20
4835071.044930899
 10
619001.2158834141
 20
4835112.944998394
  0
LWPOLYLINE
  5
264
330
17
100
AcDbEntity
  8
ROADS
100
AcDbPolyline
 90
2
 70
0
 10
618807.7809827772
 20
4835123.891768848
 10
618824.2061082126
 20
4835066.598435015
  0
LWPOLYLINE
  5
265
330
17
100
AcDbEntity
  8
ROADS
100
AcDbPolyline
 90
2
 70
0
 10
619030.8444699617
 20
4835122.369952134
 10
619001.2158834141
 20
4835112.944998394
  0
ENDSEC
  0
SECTION
  2
OBJECTS
  0
DICTIONARY
  5
A
330
0
100
AcDbDictionary
281
1
  3
ACAD_COLOR
350
B
  3
ACAD_GROUP
350
C
  3
ACAD_LAYOUT
350
D
  3
ACAD_MATERIAL
350
E
  3
ACAD_MLEADERSTYLE
350
F
  3
ACAD_MLINESTYLE
350
10
  3
ACAD_PLOTSETTINGS
350
11
  3
ACAD_PLOTSTYLENAME
350
12
  3
ACAD_SCALELIST
350
14
  3
ACAD_TABLESTYLE
350
15
  3
ACAD_VISUALSTYLE
350
16
  3
EZDXF_META
350
2D
  0
DICTIONARY
  5
B
330
A
100
AcDbDictionary
281
1
  0
DICTIONARY
  5
C
330
A
100
AcDbDictionary
281
1
  0
DICTIONARY
  5
D
330
A
100
AcDbDictionary
281
1
  3
Model
350
1A
  3
Layout1
350
1E
  0
DICTIONARY
  5
E
330
A
100
AcDbDictionary
281
1
  3
ByBlock
350
1F
  3
ByLayer
350
20
  3
Global
350
21
  0
DICTIONARY
  5
F
330
A
100
AcDbDictionary
281
1
  3
Standard
350
2C
  0
DICTIONARY
  5
10
330
A
100
AcDbDictionary
281
1
  3
Standard
350
22
  0
DICTIONARY
  5
11
330
A
100
AcDbDictionary
281
1
  0
ACDBDICTIONARYWDFLT
  5
12
330
A
100
AcDbDictionary
281
1
  3
Normal
350
13
100
AcDbDictionaryWithDefault
340
13
  0
ACDBPLACEHOLDER
  5
13
330
12
  0
DICTIONARY
  5
14
330
A
100
AcDbDictionary
281
1
  0
DICTIONARY
  5
15
330
A
100
AcDbDictionary
281
1
  0
DICTIONARY
  5
16
330
A
100
AcDbDictionary
281
1
  0
LAYOUT
  5
1A
330
D
100
AcDbPlotSettings
  1

  4
A3
  6

 40
7.5
 41
20.0
 42
7.5
 43
20.0
 44
420.0
 45
297.0
 46
0.0
 47
0.0
 48
0.0
 49
0.0
140
0.0
141
0.0
142
1.0
143
1.0
 70
1024
 72
1
 73
0
 74
5
  7

 75
16
 76
0
 77
2
 78
300
147
1.0
148
0.0
149
0.0
100
AcDbLayout
  1
Model
 70
1
 71
0
 10
0.0
 20
0.0
 11
420.0
 21
297.0
 12
0.0
 22
0.0
 32
0.0
 14
1e+20
 24
1e+20
 34
1e+20
 15
-1e+20
 25
-1e+20
 35
-1e+20
146
0.0
 13
0.0
 23
0.0
 33
0.0
 16
1.0
 26
0.0
 36
0.0
 17
0.0
 27
1.0
 37
0.0
 76
1
330
17
  0
LAYOUT
  5
1E
330
D
100
AcDbPlotSettings
  1

  4
A3
  6

 40
7.5
 41
20.0
 42
7.5
 43
20.0
 44
420.0
 45
297.0
 46
0.0
 47
0.0
 48
0.0
 49
0.0
140
0.0
141
0.0
142
1.0
143
1.0
 70
0
 72
1
 73
0
 74
5
  7

 75
16
 76
0
 77
2
 78
300
147
1.0
148
0.0
149
0.0
100
AcDbLayout
  1
Layout1
 70
1
 71
1
 10
0.0
 20
0.0
 11
420.0
 21
297.0
 12
0.0
 22
0.0
 32
0.0
 14
1e+20
 24
1e+20
 34
1e+20
 15
-1e+20
 25
-1e+20
 35
-1e+20
146
0.0
 13
0.0
 23
0.0
 33
0.0
 16
1.0
 26
0.0
 36
0.0
 17
0.0
 27
1.0
 37
0.0
 76
1
330
1B
  0
MATERIAL
  5
1F
102
{ACAD_REACTORS
330
E
102
}
330
E
100
AcDbMaterial
  1
ByBlock
  2

 70
0
 40
1.0
 71
1
 41
1.0
 91
-1023410177
 42
1.0
 72
1
  3

 73
1
 74
1
 75
1
 44
0.5
 73
0
 45
1.0
 46
1.0
 77
1
  4

 78
1
 79
1
170
1
 48
1.0
171
1
  6

172
1
173
1
174
1
140
1.0
141
1.0
175
1
  7

176
1
177
1
178
1
143
1.0
179
1
  8

270
1
271
1
272
1
145
1.0
146
1.0
273
1
  9

274
1
275
1
276
1
 42
1.0
 72
1
  3

 73
1
 74
1
 75
1
 94
63
  0
MATERIAL
  5
20
102
{ACAD_REACTORS
330
E
102
}
330
E
100
AcDbMaterial
  1
ByLayer
  2

 70
0
 40
1.0
 71
1
 41
1.0
 91
-1023410177
 42
1.0
 72
1
  3

 73
1
 74
1
 75
1
 44
0.5
 73
0
 45
1.0
 46
1.0
 77
1
  4

 78
1
 79
1
170
1
 48
1.0
171
1
  6

172
1
173
1
174
1
140
1.0
141
1.0
175
1
  7

176
1
177
1
178
1
143
1.0
179
1
  8

270
1
271
1
272
1
145
1.0
146
1.0
273
1
  9

274
1
275
1
276
1
 42
1.0
 72
1
  3

 73
1
 74
1
 75
1
 94
63
  0
MATERIAL
  5
21
102
{ACAD_REACTORS
330
E
102
}
330
E
100
AcDbMaterial
  1
Global
  2

 70
0
 40
1.0
 71
1
 41
1.0
 91
-1023410177
 42
1.0
 72
1
  3

 73
1
 74
1
 75
1
 44
0.5
 73
0
 45
1.0
 46
1.0
 77
1
  4

 78
1
 79
1
170
1
 48
1.0
171
1
  6

172
1
173
1
174
1
140
1.0
141
1.0
175
1
  7

176
1
177
1
178
1
143
1.0
179
1
  8

270
1
271
1
272
1
145
1.0
146
1.0
273
1
  9

274
1
275
1
276
1
 42
1.0
 72
1
  3

 73
1
 74
1
 75
1
 94
63
  0
MLINESTYLE
  5
22
102
{ACAD_REACTORS
330
10
102
}
330
10
100
AcDbMlineStyle
  2
Standard
 70
0
  3

 62
256
 51
90.0
 52
90.0
 71
2
 49
0.5
 62
256
  6
BYLAYER
 49
-0.5
 62
256
  6
BYLAYER
  0
MLEADERSTYLE
  5
2C
102
{ACAD_REACTORS
330
F
102
}
330
F
100
AcDbMLeaderStyle
179
2
170
2
171
1
172
0
 90
2
 40
0.0
 41
0.0
173
1
 91
-1056964608
 92
-2
290
1
 42
2.0
291
1
 43
8.0
  3
Standard
 44
4.0
300

342
29
174
1
175
1
176
0
178
1
 93
-1056964608
 45
4.0
292
0
297
0
 46
4.0
 94
-1056964608
 47
1.0
 49
1.0
140
1.0
294
1
141
0.0
177
0
142
1.0
295
0
296
0
143
3.75
271
0
272
9
273
9
  0
DICTIONARY
  5
2D
330
A
100
AcDbDictionary
280
1
281
1
  3
CREATED_BY_EZDXF
350
2E
  3
WRITTEN_BY_EZDXF
350
268
  0
DICTIONARYVAR
  5
2E
330
2D
100
DictionaryVariables
280
0
  1
1.4.4 @ 2026-07-07T18:25:47.596477+00:00
  0
DICTIONARYVAR
  5
268
330
2D
100
DictionaryVariables
280
0
  1
1.4.4 @ 2026-07-07T18:25:47.611673+00:00
  0
ENDSEC
  0
EOF
