  0
SECTION
  2
HEADER
  9
$ACADVER
  1
AC1015
  9
$ACADMAINTVER
 70
6
  9
$DWGCODEPAGE
  3
ANSI_1252
  9
$INSBASE
 10
0.0
 20
0.0
 30
0.0
  9
$EXTMIN
 10
1e+20
 20
1e+20
 30
1e+20
  9
$EXTMAX
 10
-1e+20
 20
-1e+20
 30
-1e+20
  9
$LIMMIN
 10
0.0
 20
0.0
  9
$LIMMAX
 10
420.0
 20
297.0
  9
$ORTHOMODE
 70
0
  9
$REGENMODE
 70
1
  9
$FILLMODE
 70
1
  9
$QTEXTMODE
 70
0
  9
$MIRRTEXT
 70
1
  9
$LTSCALE
 40
1.0
  9
$ATTMODE
 70
1
  9
$TEXTSIZE
 40
2.5
  9
$TRACEWID
 40
1.0
  9
$TEXTSTYLE
  7
Standard
  9
$CLAYER
  8
0
  9
$CELTYPE
  6
ByLayer
  9
$CECOLOR
 62
256
  9
$CELTSCALE
 40
1.0
  9
$DISPSILH
 70
0
  9
$DIMSCALE
 40
1.0
  9
$DIMASZ
 40
2.5
  9
$DIMEXO
 40
0.625
  9
$DIMDLI
 40
3.75
  9
$DIMRND
 40
0.0
  9
$DIMDLE
 40
0.0
  9
$DIMEXE
 40
1.25
  9
$DIMTP
 40
0.0
  9
$DIMTM
 40
0.0
  9
$DIMTXT
 40
2.5
  9
$DIMCEN
 40
2.5
  9
$DIMTSZ
 40
0.0
  9
$DIMTOL
 70
0
  9
$DIMLIM
 70
0
  9
$DIMTIH
 70
0
  9
$DIMTOH
 70
0
  9
$DIMSE1
 70
0
  9
$DIMSE2
 70
0
  9
$DIMTAD
 70
1
  9
$DIMZIN
 70
8
  9
$DIMBLK
  1

  9
$DIMASO
 70
1
  9
$DIMSHO
 70
1
  9
$DIMPOST
  1

  9
$DIMAPOST
  1

  9
$DIMALT
 70
0
  9
$DIMALTD
 70
3
  9
$DIMALTF
 40
0.03937007874
  9
$DIMLFAC
 40
1.0
  9
$DIMTOFL
 70
1
  9
$DIMTVP
 40
0.0
  9
$DIMTIX
 70
0
  9
$DIMSOXD
 70
0
  9
$DIMSAH
 70
0
  9
$DIMBLK1
  1

  9
$DIMBLK2
  1

  9
$DIMSTYLE
  2
ISO-25
  9
$DIMCLRD
 70
0
  9
$DIMCLRE
 70
0
  9
$DIMCLRT
 70
0
  9
$DIMTFAC
 40
1.0
  9
$DIMGAP
 40
0.625
  9
$DIMJUST
 70
0
  9
$DIMSD1
 70
0
  9
$DIMSD2
 70
0
  9
$DIMTOLJ
 70
0
  9
$DIMTZIN
 70
8
  9
$DIMALTZ
 70
0
  9
$DIMALTTZ
 70
0
  9
$DIMUPT
 70
0
  9
$DIMDEC
 70
2
  9
$DIMTDEC
 70
2
  9
$DIMALTU
 70
2
  9
$DIMALTTD
 70
3
  9
$DIMTXSTY
  7
Standard
  9
$DIMAUNIT
 70
0
  9
$DIMADEC
 70
0
  9
$DIMALTRND
 40
0.0
  9
$DIMAZIN
 70
0
  9
$DIMDSEP
 70
44
  9
$DIMATFIT
 70
3
  9
$DIMFRAC
 70
0
  9
$DIMLDRBLK
  1

  9
$DIMLUNIT
 70
2
  9
$DIMLWD
 70
-2
  9
$DIMLWE
 70
-2
  9
$DIMTMOVE
 70
0
  9
$LUNITS
 70
2
  9
$LUPREC
 70
4
  9
$SKETCHINC
 40
1.0
  9
$FILLETRAD
 40
10.0
  9
$AUNITS
 70
0
  9
$AUPREC
 70
2
  9
$MENU
  1
.
  9
$ELEVATION
 40
0.0
  9
$PELEVATION
 40
0.0
  9
$THICKNESS
 40
0.0
  9
$LIMCHECK
 70
0
  9
$CHAMFERA
 40
0.0
  9
$CHAMFERB
 40
0.0
  9
$CHAMFERC
 40
0.0
  9
$CHAMFERD
 40
0.0
  9
$SKPOLY
 70
0
  9
$TDCREATE
 40
2461252.4865277777
  9
$TDUCREATE
 40
2458532.153996898
  9
$TDUPDATE
 40
2461252.4865277777
  9
$TDUUPDATE
 40
2458532.1544311
  9
$TDINDWG
 40
0.0
  9
$TDUSRTIMER
 40
0.0
  9
$USRTIMER
 70
1
  9
$ANGBASE
 50
0.0
  9
$ANGDIR
 70
0
  9
$PDMODE
 70
0
  9
$PDSIZE
 40
0.0
  9
$PLINEWID
 40
0.0
  9
$SPLFRAME
 70
0
  9
$SPLINETYPE
 70
6
  9
$SPLINESEGS
 70
8
  9
$HANDSEED
  5
208
  9
$SURFTAB1
 70
6
  9
$SURFTAB2
 70
6
  9
$SURFTYPE
 70
6
  9
$SURFU
 70
6
  9
$SURFV
 70
6
  9
$UCSBASE
  2

  9
$UCSNAME
  2

  9
$UCSORG
 10
0.0
 20
0.0
 30
0.0
  9
$UCSXDIR
 10
1.0
 20
0.0
 30
0.0
  9
$UCSYDIR
 10
0.0
 20
1.0
 30
0.0
  9
$UCSORTHOREF
  2

  9
$UCSORTHOVIEW
 70
0
  9
$UCSORGTOP
 10
0.0
 20
0.0
 30
0.0
  9
$UCSORGBOTTOM
 10
0.0
 20
0.0
 30
0.0
  9
$UCSORGLEFT
 10
0.0
 20
0.0
 30
0.0
  9
$UCSORGRIGHT
 10
0.0
 20
0.0
 30
0.0
  9
$UCSORGFRONT
 10
0.0
 20
0.0
 30
0.0
  9
$UCSORGBACK
 10
0.0
 20
0.0
 30
0.0
  9
$PUCSBASE
  2

  9
$PUCSNAME
  2

  9
$PUCSORG
 10
0.0
 20
0.0
 30
0.0
  9
$PUCSXDIR
 10
1.0
 20
0.0
 30
0.0
  9
$PUCSYDIR
 10
0.0
 20
1.0
 30
0.0
  9
$PUCSORTHOREF
  2

  9
$PUCSORTHOVIEW
 70
0
  9
$PUCSORGTOP
 10
0.0
 20
0.0
 30
0.0
  9
$PUCSORGBOTTOM
 10
0.0
 20
0.0
 30
0.0
  9
$PUCSORGLEFT
 10
0.0
 20
0.0
 30
0.0
  9
$PUCSORGRIGHT
 10
0.0
 20
0.0
 30
0.0
  9
$PUCSORGFRONT
 10
0.0
 20
0.0
 30
0.0
  9
$PUCSORGBACK
 10
0.0
 20
0.0
 30
0.0
  9
$USERI1
 70
0
  9
$USERI2
 70
0
  9
$USERI3
 70
0
  9
$USERI4
 70
0
  9
$USERI5
 70
0
  9
$USERR1
 40
0.0
  9
$USERR2
 40
0.0
  9
$USERR3
 40
0.0
  9
$USERR4
 40
0.0
  9
$USERR5
 40
0.0
  9
$WORLDVIEW
 70
1
  9
$SHADEDGE
 70
3
  9
$SHADEDIF
 70
70
  9
$TILEMODE
 70
1
  9
$MAXACTVP
 70
64
  9
$PINSBASE
 10
0.0
 20
0.0
 30
0.0
  9
$PLIMCHECK
 70
0
  9
$PEXTMIN
 10
1e+20
 20
1e+20
 30
1e+20
  9
$PEXTMAX
 10
-1e+20
 20
-1e+20
 30
-1e+20
  9
$PLIMMIN
 10
0.0
 20
0.0
  9
$PLIMMAX
 10
420.0
 20
297.0
  9
$UNITMODE
 70
0
  9
$VISRETAIN
 70
1
  9
$PLINEGEN
 70
0
  9
$PSLTSCALE
 70
1
  9
$TREEDEPTH
 70
3020
  9
$CMLSTYLE
  2
Standard
  9
$CMLJUST
 70
0
  9
$CMLSCALE
 40
20.0
  9
$PROXYGRAPHICS
 70
1
  9
$MEASUREMENT
 70
1
  9
$CELWEIGHT
370
-1
  9
$ENDCAPS
280
0
  9
$JOINSTYLE
280
0
  9
$LWDISPLAY
290
0
  9
$INSUNITS
 70
6
  9
$HYPERLINKBASE
  1

  9
$STYLESHEET
  1

  9
$XEDIT
290
1
  9
$CEPSNTYPE
380
0
  9
$PSTYLEMODE
290
1
  9
$FINGERPRINTGUID
  2
{93C7931B-2103-4F8C-8D40-1B9D84299ABF}
  9
$VERSIONGUID
  2
{DCF7874D-48D4-40B3-86B9-3F9E2FB49E3A}
  9
$EXTNAMES
290
1
  9
$PSVPSCALE
 40
0.0
  9
$OLESTARTUP
290
0
  0
ENDSEC
  0
SECTION
  2
CLASSES
  0
CLASS
  1
ACDBDICTIONARYWDFLT
  2
AcDbDictionaryWithDefault
  3
ObjectDBX Classes
 90
0
280
0
281
0
  0
CLASS
  1
SUN
  2
AcDbSun
  3
SCENEOE
 90
1153
280
0
281
0
  0
CLASS
  1
VISUALSTYLE
  2
AcDbVisualStyle
  3
ObjectDBX Classes
 90
4095
280
0
281
0
  0
CLASS
  1
MATERIAL
  2
AcDbMaterial
  3
ObjectDBX Classes
 90
1153
280
0
281
0
  0
CLASS
  1
SCALE
  2
AcDbScale
  3
ObjectDBX Classes
 90
1153
280
0
281
0
  0
CLASS
  1
TABLESTYLE
  2
AcDbTableStyle
  3
ObjectDBX Classes
 90
4095
280
0
281
0
  0
CLASS
  1
MLEADERSTYLE
  2
AcDbMLeaderStyle
  3
ACDB_MLEADERSTYLE_CLASS
 90
4095
280
0
281
0
  0
CLASS
  1
DICTIONARYVAR
  2
AcDbDictionaryVar
  3
ObjectDBX Classes
 90
0
280
0
281
0
  0
CLASS
  1
CELLSTYLEMAP
  2
AcDbCellStyleMap
  3
ObjectDBX Classes
 90
1152
280
0
281
0
  0
CLASS
  1
MENTALRAYRENDERSETTINGS
  2
AcDbMentalRayRenderSettings
  3
SCENEOE
 90
1024
280
0
281
0
  0
CLASS
  1
ACDBDETAILVIEWSTYLE
  2
AcDbDetailViewStyle
  3
ObjectDBX Classes
 90
1025
280
0
281
0
  0
CLASS
  1
ACDBSECTIONVIEWSTYLE
  2
AcDbSectionViewStyle
  3
ObjectDBX Classes
 90
1025
280
0
281
0
  0
CLASS
  1
RASTERVARIABLES
  2
AcDbRasterVariables
  3
ISM
 90
0
280
0
281
0
  0
CLASS
  1
ACDBPLACEHOLDER
  2
AcDbPlaceHolder
  3
ObjectDBX Classes
 90
0
280
0
281
0
  0
CLASS
  1
LAYOUT
  2
AcDbLayout
  3
ObjectDBX Classes
 90
0
280
0
281
0
  0
ENDSEC
  0
SECTION
  2
TABLES
  0
TABLE
  2
VPORT
  5
8
330
0
100
AcDbSymbolTable
 70
1
  0
VPORT
  5
23
330
8
100
AcDbSymbolTableRecord
100
AcDbViewportTableRecord
  2
*Active
 70
0
 10
0.0
 20
0.0
 11
1.0
 21
1.0
 12
0.0
 22
0.0
 13
0.0
 23
0.0
 14
0.5
 24
0.5
 15
0.5
 25
0.5
 16
0.0
 26
0.0
 36
1.0
 17
0.0
 27
0.0
 37
0.0
 40
1000.0
 41
1.34
 42
50.0
 43
0.0
 44
0.0
 50
0.0
 51
0.0
 71
0
 72
1000
 73
1
 74
3
 75
0
 76
0
 77
0
 78
0
281
0
 65
0
146
0.0
  0
ENDTAB
  0
TABLE
  2
LTYPE
  5
2
330
0
100
AcDbSymbolTable
 70
3
  0
LTYPE
  5
24
330
2
100
AcDbSymbolTableRecord
100
AcDbLinetypeTableRecord
  2
ByBlock
 70
0
  3

 72
65
 73
0
 40
0.0
  0
LTYPE
  5
25
330
2
100
AcDbSymbolTableRecord
100
AcDbLinetypeTableRecord
  2
ByLayer
 70
0
  3

 72
65
 73
0
 40
0.0
  0
LTYPE
  5
26
330
2
100
AcDbSymbolTableRecord
100
AcDbLinetypeTableRecord
  2
Continuous
 70
0
  3

 72
65
 73
0
 40
0.0
  0
ENDTAB
  0
TABLE
  2
LAYER
  5
1
330
0
100
AcDbSymbolTable
 70
2
  0
LAYER
  5
27
330
1
100
AcDbSymbolTableRecord
100
AcDbLayerTableRecord
  2
0
 70
0
 62
7
  6
Continuous
370
-3
390
13
  0
LAYER
  5
28
330
1
100
AcDbSymbolTableRecord
100
AcDbLayerTableRecord
  2
Defpoints
 70
0
 62
7
  6
Continuous
290
0
370
-3
390
13
  0
ENDTAB
  0
TABLE
  2
STYLE
  5
5
330
0
100
AcDbSymbolTable
 70
1
  0
STYLE
  5
29
330
5
100
AcDbSymbolTableRecord
100
AcDbTextStyleTableRecord
  2
Standard
 70
0
 40
0.0
 41
1.0
 50
0.0
 71
0
 42
2.5
  3
txt
  4

  0
ENDTAB
  0
TABLE
  2
VIEW
  5
7
330
0
100
AcDbSymbolTable
 70
0
  0
ENDTAB
  0
TABLE
  2
UCS
  5
6
330
0
100
AcDbSymbolTable
 70
0
  0
ENDTAB
  0
TABLE
  2
APPID
  5
3
330
0
100
AcDbSymbolTable
 70
3
  0
APPID
  5
2A
330
3
100
AcDbSymbolTableRecord
100
AcDbRegAppTableRecord
  2
ACAD
 70
0
  0
APPID
  5
205
330
3
100
AcDbSymbolTableRecord
100
AcDbRegAppTableRecord
  2
HATCHBACKGROUNDCOLOR
 70
0
  0
APPID
  5
206
330
3
100
AcDbSymbolTableRecord
100
AcDbRegAppTableRecord
  2
EZDXF
 70
0
  0
ENDTAB
  0
TABLE
  2
DIMSTYLE
  5
4
330
0
100
AcDbSymbolTable
 70
1
100
AcDbDimStyleTable
  0
DIMSTYLE
105
2B
330
4
100
AcDbSymbolTableRecord
100
AcDbDimStyleTableRecord
  2
Standard
 70
0
  3

  4

 40
1.0
 41
2.5
 42
0.625
 43
3.75
 44
1.25
 45
0.0
 46
0.0
 47
0.0
 48
0.0
140
2.5
141
2.5
142
0.0
143
0.03937007874
144
1.0
145
0.0
146
1.0
147
0.625
148
0.0
 71
0
 72
0
 73
0
 74
0
 75
0
 76
0
 77
1
 78
8
 79
3
170
0
171
3
172
1
173
0
174
0
175
0
176
0
177
0
178
0
179
2
271
2
272
2
273
2
274
3
275
0
276
0
277
2
278
44
279
0
280
0
281
0
282
0
283
0
284
8
285
0
286
0
288
0
289
3
371
-2
372
-2
  0
ENDTAB
  0
TABLE
  2
BLOCK_RECORD
  5
9
330
0
100
AcDbSymbolTable
 70
2
  0
BLOCK_RECORD
  5
17
330
9
100
AcDbSymbolTableRecord
100
AcDbBlockTableRecord
  2
*Model_Space
340
1A
  0
BLOCK_RECORD
  5
1B
330
9
100
AcDbSymbolTableRecord
100
AcDbBlockTableRecord
  2
*Paper_Space
340
1E
  0
ENDTAB
  0
ENDSEC
  0
SECTION
  2
BLOCKS
  0
BLOCK
  5
18
330
17
100
AcDbEntity
  8
0
100
AcDbBlockBegin
  2
*Model_Space
 70
0
 10
0.0
 20
0.0
 30
0.0
  3
*Model_Space
  1

  0
ENDBLK
  5
19
330
17
100
AcDbEntity
  8
0
100
AcDbBlockEnd
  0
BLOCK
  5
1C
330
1B
100
AcDbEntity
  8
0
100
AcDbBlockBegin
  2
*Paper_Space
 70
0
 10
0.0
 20
0.0
 30
0.0
  3
*Paper_Space
  1

  0
ENDBLK
  5
1D
330
1B
100
AcDbEntity
  8
0
100
AcDbBlockEnd
  0
ENDSEC
  0
SECTION
  2
ENTITIES
  0
LWPOLYLINE
  5
2F
330
17
100
AcDbEntity
  8
ROADS
100
AcDbPolyline
 90
2
 70
0
 10
621611.1092192875
 20
4828955.832811274
 10
621481.9107609466
 20
4828877.428033333
  0
LWPOLYLINE
  5
30
330
17
100
AcDbEntity
  8
ROADS
100
AcDbPolyline
 90
2
 70
0
 10
621590.9500708764
 20
4829022.018732073
 10
621382.2264035722
 20
4828954.01510018
  0
LWPOLYLINE
  5
31
330
17
100
AcDbEntity
  8
ROADS
100
AcDbPolyline
 90
2
 70
0
 10
621560.9130210683
 20
4829115.528482393
 10
621303.2204347597
 20
4829031.130045891
  0
LWPOLYLINE
  5
32
330
17
100
AcDbEntity
  8
ROADS
100
AcDbPolyline
 90
2
 70
0
 10
621582.1834571019
 20
4829050.271683315
 10
621560.9130210683
 20
4829115.528482393
  0
LWPOLYLINE
  5
33
330
17
100
AcDbEntity
  8
ROADS
100
AcDbPolyline
 90
2
 70
0
 10
621560.9130210683
 20
4829115.528482393
 10
621547.4329564536
 20
4829157.692929631
  0
LWPOLYLINE
  5
34
330
17
100
AcDbEntity
  8
ROADS
100
AcDbPolyline
 90
2
 70
0
 10
621531.7096453918
 20
4829206.399154162
 10
621236.6858822989
 20
4829112.712441357
  0
LWPOLYLINE
  5
35
330
17
100
AcDbEntity
  8
ROADS
100
AcDbPolyline
 90
2
 70
0
 10
621547.4329564536
 20
4829157.692929631
 10
621531.7096453918
 20
4829206.399154162
  0
LWPOLYLINE
  5
36
330
17
100
AcDbEntity
  8
ROADS
100
AcDbPolyline
 90
2
 70
0
 10
621500.8311054136
 20
4829302.450788579
 10
621183.2235314252
 20
4829193.516136687
  0
LWPOLYLINE
  5
37
330
17
100
AcDbEntity
  8
ROADS
100
AcDbPolyline
 90
2
 70
0
 10
621639.8333127089
 20
4828863.976397808
 10
621631.8857035667
 20
4828889.9060426
  0
LWPOLYLINE
  5
38
330
17
100
AcDbEntity
  8
ROADS
100
AcDbPolyline
 90
2
 70
0
 10
621631.8857035667
 20
4828889.9060426
 10
621678.0539028654
 20
4828918.916083783
  0
LWPOLYLINE
  5
39
330
17
100
AcDbEntity
  8
ROADS
100
AcDbPolyline
 90
2
 70
0
 10
621631.8857035667
 20
4828889.9060426
 10
621611.1092192875
 20
4828955.832811274
  0
LWPOLYLINE
  5
3A
330
17
100
AcDbEntity
  8
ROADS
100
AcDbPolyline
 90
2
 70
0
 10
621611.1092192875
 20
4828955.832811274
 10
621590.9500708764
 20
4829022.018732073
  0
LWPOLYLINE
  5
3B
330
17
100
AcDbEntity
  8
ROADS
100
AcDbPolyline
 90
2
 70
0
 10
621590.9500708764
 20
4829022.018732073
 10
621582.1834571019
 20
4829050.271683315
  0
LWPOLYLINE
  5
3C
330
17
100
AcDbEntity
  8
ROADS
100
AcDbPolyline
 90
4
 70
0
 10
621820.3677343911
 20
4829329.044769336
 10
621746.9155262961
 20
4829101.456909398
 10
621695.3113939704
 20
4829027.521638623
 10
621611.1092192875
 20
4828955.832811274
  0
LWPOLYLINE
  5
3D
330
17
100
AcDbEntity
  8
ROADS
100
AcDbPolyline
 90
3
 70
0
 10
621730.3731912692
 20
4829333.665688403
 10
621680.4888325987
 20
4829173.258538373
 10
621582.1834571019
 20
4829050.271683315
  0
LWPOLYLINE
  5
3E
330
17
100
AcDbEntity
  8
ROADS
100
AcDbPolyline
 90
4
 70
0
 10
621637.0829268708
 20
4829349.947609282
 10
621623.4143411866
 20
4829259.745697022
 10
621593.7364237271
 20
4829191.005637006
 10
621547.4329564536
 20
4829157.692929631
  0
LWPOLYLINE
  5
3F
330
17
100
AcDbEntity
  8
ROADS
100
AcDbPolyline
 90
3
 70
0
 10
621869.4418410959
 20
4829341.344603873
 10
621864.3621383931
 20
4829300.72800831
 10
621897.0355562337
 20
4829289.602573647
  0
LWPOLYLINE
  5
40
330
17
100
AcDbEntity
  8
ROADS
100
AcDbPolyline
 90
2
 70
0
 10
621820.3677343911
 20
4829329.044769336
 10
621730.3731912692
 20
4829333.665688403
  0
LWPOLYLINE
  5
41
330
17
100
AcDbEntity
  8
ROADS
100
AcDbPolyline
 90
2
 70
0
 10
621060.4714405619
 20
4829323.0556916585
 10
621050.6401341025
 20
4829353.651635378
  0
LWPOLYLINE
  5
42
330
17
100
AcDbEntity
  8
ROADS
100
AcDbPolyline
 90
2
 70
0
 10
621050.6401341025
 20
4829353.651635378
 10
621020.4784876505
 20
4829444.69984973
  0
LWPOLYLINE
  5
43
330
17
100
AcDbEntity
  8
ROADS
100
AcDbPolyline
 90
2
 70
0
 10
621020.4784876505
 20
4829444.69984973
 10
620978.0242788707
 20
4829430.932697961
  0
LWPOLYLINE
  5
44
330
17
100
AcDbEntity
  8
ROADS
100
AcDbPolyline
 90
2
 70
0
 10
621020.4784876505
 20
4829444.69984973
 10
620992.1270209559
 20
4829537.180802704
  0
LWPOLYLINE
  5
45
330
17
100
AcDbEntity
  8
ROADS
100
AcDbPolyline
 90
2
 70
0
 10
621531.7096453918
 20
4829206.399154162
 10
621500.8311054136
 20
4829302.450788579
  0
LWPOLYLINE
  5
46
330
17
100
AcDbEntity
  8
ROADS
100
AcDbPolyline
 90
2
 70
0
 10
621472.4709271068
 20
4829390.015509596
 10
621109.1121785679
 20
4829270.129901767
  0
LWPOLYLINE
  5
47
330
17
100
AcDbEntity
  8
ROADS
100
AcDbPolyline
 90
2
 70
0
 10
621637.0829268708
 20
4829349.947609282
 10
621500.8311054136
 20
4829302.450788579
  0
LWPOLYLINE
  5
48
330
17
100
AcDbEntity
  8
ROADS
100
AcDbPolyline
 90
2
 70
0
 10
621500.8311054136
 20
4829302.450788579
 10
621472.4709271068
 20
4829390.015509596
  0
LWPOLYLINE
  5
49
330
17
100
AcDbEntity
  8
ROADS
100
AcDbPolyline
 90
2
 70
0
 10
621573.4522152429
 20
4829423.8317554565
 10
621472.4709271068
 20
4829390.015509596
  0
LWPOLYLINE
  5
4A
330
17
100
AcDbEntity
  8
ROADS
100
AcDbPolyline
 90
2
 70
0
 10
621444.2567224021
 20
4829477.497848846
 10
621050.6401341025
 20
4829353.651635378
  0
LWPOLYLINE
  5
4B
330
17
100
AcDbEntity
  8
ROADS
100
AcDbPolyline
 90
2
 70
0
 10
621472.4709271068
 20
4829390.015509596
 10
621444.2567224021
 20
4829477.497848846
  0
LWPOLYLINE
  5
4C
330
17
100
AcDbEntity
  8
ROADS
100
AcDbPolyline
 90
2
 70
0
 10
621415.8750875099
 20
4829569.487349919
 10
621020.4784876505
 20
4829444.69984973
  0
LWPOLYLINE
  5
4D
330
17
100
AcDbEntity
  8
ROADS
100
AcDbPolyline
 90
2
 70
0
 10
621444.2567224021
 20
4829477.497848846
 10
621415.8750875099
 20
4829569.487349919
  0
LWPOLYLINE
  5
4E
330
17
100
AcDbEntity
  8
ROADS
100
AcDbPolyline
 90
2
 70
0
 10
621573.4522152429
 20
4829423.8317554565
 10
621482.6987456586
 20
4829709.199455734
  0
LWPOLYLINE
  5
4F
330
17
100
AcDbEntity
  8
ROADS
100
AcDbPolyline
 90
2
 70
0
 10
621383.2728503981
 20
4829664.986763511
 10
620992.1270209559
 20
4829537.180802704
  0
LWPOLYLINE
  5
50
330
17
100
AcDbEntity
  8
ROADS
100
AcDbPolyline
 90
2
 70
0
 10
621415.8750875099
 20
4829569.487349919
 10
621383.2728503981
 20
4829664.986763511
  0
LWPOLYLINE
  5
51
330
17
100
AcDbEntity
  8
ROADS
100
AcDbPolyline
 90
2
 70
0
 10
621383.2728503981
 20
4829664.986763511
 10
621378.334897799
 20
4829679.58922626
  0
LWPOLYLINE
  5
52
330
17
100
AcDbEntity
  8
ROADS
100
AcDbPolyline
 90
2
 70
0
 10
621482.6987456586
 20
4829709.199455734
 10
621378.334897799
 20
4829679.58922626
  0
LWPOLYLINE
  5
53
330
17
100
AcDbEntity
  8
ROADS
100
AcDbPolyline
 90
2
 70
0
 10
621378.334897799
 20
4829679.58922626
 10
621353.9218214377
 20
4829755.7196689
  0
LWPOLYLINE
  5
54
330
17
100
AcDbEntity
  8
ROADS
100
AcDbPolyline
 90
2
 70
0
 10
621584.7570520465
 20
4829742.545230179
 10
621482.6987456586
 20
4829709.199455734
  0
LWPOLYLINE
  5
55
330
17
100
AcDbEntity
  8
ROADS
100
AcDbPolyline
 90
2
 70
0
 10
621353.9218214377
 20
4829755.7196689
 10
621322.3040630443
 20
4829854.458971697
  0
LWPOLYLINE
  5
56
330
17
100
AcDbEntity
  8
ROADS
100
AcDbPolyline
 90
2
 70
0
 10
621482.6987456586
 20
4829709.199455734
 10
621408.3885402184
 20
4829937.360462679
  0
LWPOLYLINE
  5
57
330
17
100
AcDbEntity
  8
ROADS
100
AcDbPolyline
 90
2
 70
0
 10
621322.3040630443
 20
4829854.458971697
 10
621305.5419610481
 20
4829906.24650613
  0
LWPOLYLINE
  5
58
330
17
100
AcDbEntity
  8
ROADS
100
AcDbPolyline
 90
2
 70
0
 10
621408.3885402184
 20
4829937.360462679
 10
621305.5419610481
 20
4829906.24650613
  0
LWPOLYLINE
  5
59
330
17
100
AcDbEntity
  8
ROADS
100
AcDbPolyline
 90
2
 70
0
 10
621869.4418410959
 20
4829341.344603873
 10
621820.3677343911
 20
4829329.044769336
  0
LWPOLYLINE
  5
5A
330
17
100
AcDbEntity
  8
ROADS
100
AcDbPolyline
 90
2
 70
0
 10
621730.3731912692
 20
4829333.665688403
 10
621637.0829268708
 20
4829349.947609282
  0
LWPOLYLINE
  5
5B
330
17
100
AcDbEntity
  8
ROADS
100
AcDbPolyline
 90
2
 70
0
 10
621949.693865565
 20
4829366.630110141
 10
621869.4418410959
 20
4829341.344603873
  0
LWPOLYLINE
  5
5C
330
17
100
AcDbEntity
  8
ROADS
100
AcDbPolyline
 90
2
 70
0
 10
621990.0617371683
 20
4829378.9217195
 10
621949.693865565
 20
4829366.630110141
  0
LWPOLYLINE
  5
5D
330
17
100
AcDbEntity
  8
ROADS
100
AcDbPolyline
 90
2
 70
0
 10
621828.0510868012
 20
4829476.109236783
 10
621820.3677343911
 20
4829329.044769336
  0
LWPOLYLINE
  5
5E
330
17
100
AcDbEntity
  8
ROADS
100
AcDbPolyline
 90
2
 70
0
 10
621728.2802684653
 20
4829473.63323226
 10
621730.3731912692
 20
4829333.665688403
  0
LWPOLYLINE
  5
5F
330
17
100
AcDbEntity
  8
ROADS
100
AcDbPolyline
 90
2
 70
0
 10
621949.693865565
 20
4829366.630110141
 10
621982.5305348746
 20
4829451.726059777
  0
LWPOLYLINE
  5
60
330
17
100
AcDbEntity
  8
ROADS
100
AcDbPolyline
 90
2
 70
0
 10
621677.2615855004
 20
4829457.209077275
 10
621573.4522152429
 20
4829423.8317554565
  0
LWPOLYLINE
  5
61
330
17
100
AcDbEntity
  8
ROADS
100
AcDbPolyline
 90
2
 70
0
 10
621728.2802684653
 20
4829473.63323226
 10
621677.2615855004
 20
4829457.209077275
  0
LWPOLYLINE
  5
62
330
17
100
AcDbEntity
  8
ROADS
100
AcDbPolyline
 90
2
 70
0
 10
621769.9227185433
 20
4829488.385978078
 10
621728.2802684653
 20
4829473.63323226
  0
LWPOLYLINE
  5
63
330
17
100
AcDbEntity
  8
ROADS
100
AcDbPolyline
 90
2
 70
0
 10
621829.3037380936
 20
4829506.751257785
 10
621828.0510868012
 20
4829476.109236783
  0
LWPOLYLINE
  5
64
330
17
100
AcDbEntity
  8
ROADS
100
AcDbPolyline
 90
2
 70
0
 10
621829.3037380936
 20
4829506.751257785
 10
621769.9227185433
 20
4829488.385978078
  0
LWPOLYLINE
  5
65
330
17
100
AcDbEntity
  8
ROADS
100
AcDbPolyline
 90
2
 70
0
 10
622062.0642333695
 20
4829523.428776942
 10
621828.0510868012
 20
4829476.109236783
  0
LWPOLYLINE
  5
66
330
17
100
AcDbEntity
  8
ROADS
100
AcDbPolyline
 90
2
 70
0
 10
621836.9907560392
 20
4829670.606567242
 10
621829.3037380936
 20
4829506.751257785
  0
LWPOLYLINE
  5
67
330
17
100
AcDbEntity
  8
ROADS
100
AcDbPolyline
 90
2
 70
0
 10
621677.2615855004
 20
4829457.209077275
 10
621584.7570520465
 20
4829742.545230179
  0
LWPOLYLINE
  5
68
330
17
100
AcDbEntity
  8
ROADS
100
AcDbPolyline
 90
2
 70
0
 10
621769.9227185433
 20
4829488.385978078
 10
621677.7101225441
 20
4829771.896392337
  0
LWPOLYLINE
  5
69
330
17
100
AcDbEntity
  8
ROADS
100
AcDbPolyline
 90
3
 70
0
 10
621836.9907560392
 20
4829670.606567242
 10
621814.869900598
 20
4829677.40835492
 10
621801.4065977449
 20
4829716.480974857
  0
LWPOLYLINE
  5
6A
330
17
100
AcDbEntity
  8
ROADS
100
AcDbPolyline
 90
2
 70
0
 10
621836.9907560392
 20
4829670.606567242
 10
621817.9193358191
 20
4829717.53375989
  0
LWPOLYLINE
  5
6B
330
17
100
AcDbEntity
  8
ROADS
100
AcDbPolyline
 90
2
 70
0
 10
621841.4449661062
 20
4829719.053226398
 10
621836.9907560392
 20
4829670.606567242
  0
LWPOLYLINE
  5
6C
330
17
100
AcDbEntity
  8
ROADS
100
AcDbPolyline
 90
2
 70
0
 10
621841.4449661062
 20
4829719.053226398
 10
622044.6784450843
 20
4829707.861314332
  0
LWPOLYLINE
  5
6D
330
17
100
AcDbEntity
  8
ROADS
100
AcDbPolyline
 90
2
 70
0
 10
621801.4065977449
 20
4829716.480974857
 10
621817.9193358191
 20
4829717.53375989
  0
LWPOLYLINE
  5
6E
330
17
100
AcDbEntity
  8
ROADS
100
AcDbPolyline
 90
2
 70
0
 10
621817.9193358191
 20
4829717.53375989
 10
621841.4449661062
 20
4829719.053226398
  0
LWPOLYLINE
  5
6F
330
17
100
AcDbEntity
  8
ROADS
100
AcDbPolyline
 90
2
 70
0
 10
621846.1885363854
 20
4829771.854312064
 10
621841.4449661062
 20
4829719.053226398
  0
LWPOLYLINE
  5
70
330
17
100
AcDbEntity
  8
ROADS
100
AcDbPolyline
 90
2
 70
0
 10
621677.7101225441
 20
4829771.896392337
 10
621584.7570520465
 20
4829742.545230179
  0
LWPOLYLINE
  5
71
330
17
100
AcDbEntity
  8
ROADS
100
AcDbPolyline
 90
2
 70
0
 10
621801.4065977449
 20
4829716.480974857
 10
621774.8515460258
 20
4829801.295219524
  0
LWPOLYLINE
  5
72
330
17
100
AcDbEntity
  8
ROADS
100
AcDbPolyline
 90
2
 70
0
 10
621584.7570520465
 20
4829742.545230179
 10
621571.6852371747
 20
4829782.809944931
  0
LWPOLYLINE
  5
73
330
17
100
AcDbEntity
  8
ROADS
100
AcDbPolyline
 90
2
 70
0
 10
621848.5715951464
 20
4829795.2774230875
 10
621846.1885363854
 20
4829771.854312064
  0
LWPOLYLINE
  5
74
330
17
100
AcDbEntity
  8
ROADS
100
AcDbPolyline
 90
2
 70
0
 10
621774.8515460258
 20
4829801.295219524
 10
621677.7101225441
 20
4829771.896392337
  0
LWPOLYLINE
  5
75
330
17
100
AcDbEntity
  8
ROADS
100
AcDbPolyline
 90
2
 70
0
 10
621848.5715951464
 20
4829795.2774230875
 10
621774.8515460258
 20
4829801.295219524
  0
LWPOLYLINE
  5
76
330
17
100
AcDbEntity
  8
ROADS
100
AcDbPolyline
 90
6
 70
0
 10
621846.1885363854
 20
4829771.854312064
 10
622056.6244707222
 20
4829750.579049408
 10
622103.7137659912
 20
4829775.709701845
 10
622097.3934059134
 20
4829850.791034675
 10
622076.3524874084
 20
4829882.4574743295
 10
622098.4734647108
 20
4829937.715578649
  0
LWPOLYLINE
  5
77
330
17
100
AcDbEntity
  8
ROADS
100
AcDbPolyline
 90
2
 70
0
 10
621858.5268022389
 20
4829904.031199002
 10
621848.5715951464
 20
4829795.2774230875
  0
LWPOLYLINE
  5
78
330
17
100
AcDbEntity
  8
ROADS
100
AcDbPolyline
 90
2
 70
0
 10
621774.8515460258
 20
4829801.295219524
 10
621723.9870797495
 20
4829957.990643637
  0
LWPOLYLINE
  5
79
330
17
100
AcDbEntity
  8
ROADS
100
AcDbPolyline
 90
2
 70
0
 10
621858.5268022389
 20
4829904.031199002
 10
622043.17025767
 20
4829857.137981583
  0
LWPOLYLINE
  5
7A
330
17
100
AcDbEntity
  8
ROADS
100
AcDbPolyline
 90
2
 70
0
 10
621677.7101225441
 20
4829771.896392337
 10
621604.4433247834
 20
4829998.593299511
  0
LWPOLYLINE
  5
7B
330
17
100
AcDbEntity
  8
ROADS
100
AcDbPolyline
 90
2
 70
0
 10
621813.9300078702
 20
4829967.245592284
 10
621804.0150099772
 20
4829858.481554335
  0
LWPOLYLINE
  5
7C
330
17
100
AcDbEntity
  8
ROADS
100
AcDbPolyline
 90
2
 70
0
 10
621865.6797206947
 20
4829972.264513494
 10
621858.5268022389
 20
4829904.031199002
  0
LWPOLYLINE
  5
7D
330
17
100
AcDbEntity
  8
ROADS
100
AcDbPolyline
 90
2
 70
0
 10
621813.9300078702
 20
4829967.245592284
 10
621723.9870797495
 20
4829957.990643637
  0
LWPOLYLINE
  5
7E
330
17
100
AcDbEntity
  8
ROADS
100
AcDbPolyline
 90
2
 70
0
 10
621865.6797206947
 20
4829972.264513494
 10
621813.9300078702
 20
4829967.245592284
  0
LWPOLYLINE
  5
7F
330
17
100
AcDbEntity
  8
ROADS
100
AcDbPolyline
 90
2
 70
0
 10
621723.9870797495
 20
4829957.990643637
 10
621697.424272284
 20
4830027.120000786
  0
LWPOLYLINE
  5
80
330
17
100
AcDbEntity
  8
ROADS
100
AcDbPolyline
 90
2
 70
0
 10
621604.4433247834
 20
4829998.593299511
 10
621577.7461640112
 20
4829990.341728162
  0
LWPOLYLINE
  5
81
330
17
100
AcDbEntity
  8
ROADS
100
AcDbPolyline
 90
3
 70
0
 10
622098.4734647108
 20
4829937.715578649
 10
622131.5763364917
 20
4829929.060069019
 10
622143.5437698246
 20
4829952.431309041
  0
LWPOLYLINE
  5
82
330
17
100
AcDbEntity
  8
ROADS
100
AcDbPolyline
 90
2
 70
0
 10
622098.4734647108
 20
4829937.715578649
 10
622088.390080854
 20
4829960.355506605
  0
LWPOLYLINE
  5
83
330
17
100
AcDbEntity
  8
ROADS
100
AcDbPolyline
 90
2
 70
0
 10
622088.390080854
 20
4829960.355506605
 10
622143.5437698246
 20
4829952.431309041
  0
LWPOLYLINE
  5
84
330
17
100
AcDbEntity
  8
ROADS
100
AcDbPolyline
 90
2
 70
0
 10
622143.5437698246
 20
4829952.431309041
 10
622144.7504537336
 20
4829970.168930032
  0
LWPOLYLINE
  5
85
330
17
100
AcDbEntity
  8
ROADS
100
AcDbPolyline
 90
2
 70
0
 10
622088.390080854
 20
4829960.355506605
 10
622077.9510957754
 20
4829968.577341702
  0
LWPOLYLINE
  5
86
330
17
100
AcDbEntity
  8
ROADS
100
AcDbPolyline
 90
2
 70
0
 10
622077.9510957754
 20
4829968.577341702
 10
622090.3539410557
 20
4830023.041887169
  0
LWPOLYLINE
  5
87
330
17
100
AcDbEntity
  8
ROADS
100
AcDbPolyline
 90
3
 70
0
 10
622077.9510957754
 20
4829968.577341702
 10
622053.4210753847
 20
4829993.6514473595
 10
622056.9958978301
 20
4830031.318760014
  0
LWPOLYLINE
  5
88
330
17
100
AcDbEntity
  8
ROADS
100
AcDbPolyline
 90
2
 70
0
 10
622034.893864618
 20
4830021.159834168
 10
622032.3194476702
 20
4829999.6115887435
  0
LWPOLYLINE
  5
89
330
17
100
AcDbEntity
  8
ROADS
100
AcDbPolyline
 90
2
 70
0
 10
622034.893864618
 20
4830021.159834168
 10
622046.8083100151
 20
4830026.065509087
  0
LWPOLYLINE
  5
8A
330
17
100
AcDbEntity
  8
ROADS
100
AcDbPolyline
 90
3
 70
0
 10
622013.4849863725
 20
4830032.032900909
 10
622009.1888046166
 20
4830016.197572193
 10
622034.893864618
 20
4830021.159834168
  0
LWPOLYLINE
  5
8B
330
17
100
AcDbEntity
  8
ROADS
100
AcDbPolyline
 90
2
 70
0
 10
621697.424272284
 20
4830027.120000786
 10
621604.4433247834
 20
4829998.593299511
  0
LWPOLYLINE
  5
8C
330
17
100
AcDbEntity
  8
ROADS
100
AcDbPolyline
 90
2
 70
0
 10
621901.4619622006
 20
4830086.283033387
 10
621865.6797206947
 20
4829972.264513494
  0
LWPOLYLINE
  5
8D
330
17
100
AcDbEntity
  8
ROADS
100
AcDbPolyline
 90
2
 70
0
 10
621901.4619622006
 20
4830086.283033387
 10
621697.424272284
 20
4830027.120000786
  0
LWPOLYLINE
  5
8E
330
17
100
AcDbEntity
  8
ROADS
100
AcDbPolyline
 90
2
 70
0
 10
622018.4486672152
 20
4830053.194199164
 10
621901.4619622006
 20
4830086.283033387
  0
LWPOLYLINE
  5
8F
330
17
100
AcDbEntity
  8
ROADS
100
AcDbPolyline
 90
2
 70
0
 10
621697.424272284
 20
4830027.120000786
 10
621661.7893816472
 20
4830118.099472227
  0
LWPOLYLINE
  5
90
330
17
100
AcDbEntity
  8
ROADS
100
AcDbPolyline
 90
2
 70
0
 10
621914.553374763
 20
4830120.121045306
 10
621901.4619622006
 20
4830086.283033387
  0
LWPOLYLINE
  5
91
330
17
100
AcDbEntity
  8
ROADS
100
AcDbPolyline
 90
3
 70
0
 10
621914.553374763
 20
4830120.121045306
 10
621770.4927480299
 20
4830150.518371581
 10
621661.7893816472
 20
4830118.099472227
  0
LWPOLYLINE
  5
92
330
17
100
AcDbEntity
  8
ROADS
100
AcDbPolyline
 90
2
 70
0
 10
621661.7893816472
 20
4830118.099472227
 10
621629.1368987692
 20
4830214.765050671
  0
LWPOLYLINE
  5
93
330
17
100
AcDbEntity
  8
ROADS
100
AcDbPolyline
 90
2
 70
0
 10
621952.161703556
 20
4830218.5798661085
 10
621914.553374763
 20
4830120.121045306
  0
LWPOLYLINE
  5
94
330
17
100
AcDbEntity
  8
ROADS
100
AcDbPolyline
 90
2
 70
0
 10
621902.7859564393
 20
4830230.066542735
 10
621884.0636369053
 20
4830179.047032345
  0
LWPOLYLINE
  5
95
330
17
100
AcDbEntity
  8
ROADS
100
AcDbPolyline
 90
2
 70
0
 10
622013.4849863725
 20
4830032.032900909
 10
622034.893864618
 20
4830021.159834168
  0
LWPOLYLINE
  5
96
330
17
100
AcDbEntity
  8
ROADS
100
AcDbPolyline
 90
2
 70
0
 10
622090.3539410557
 20
4830023.041887169
 10
622056.9958978301
 20
4830031.318760014
  0
LWPOLYLINE
  5
97
330
17
100
AcDbEntity
  8
ROADS
100
AcDbPolyline
 90
2
 70
0
 10
622018.4486672152
 20
4830053.194199164
 10
622013.4849863725
 20
4830032.032900909
  0
LWPOLYLINE
  5
98
330
17
100
AcDbEntity
  8
ROADS
100
AcDbPolyline
 90
2
 70
0
 10
622056.9958978301
 20
4830031.318760014
 10
622076.6470506825
 20
4830065.742294795
  0
LWPOLYLINE
  5
99
330
17
100
AcDbEntity
  8
ROADS
100
AcDbPolyline
 90
2
 70
0
 10
622090.3539410557
 20
4830023.041887169
 10
622107.0140262269
 20
4830078.832393072
  0
LWPOLYLINE
  5
9A
330
17
100
AcDbEntity
  8
ROADS
100
AcDbPolyline
 90
3
 70
0
 10
622018.4486672152
 20
4830053.194199164
 10
622057.6436705944
 20
4830074.351453523
 10
622076.6470506825
 20
4830065.742294795
  0
LWPOLYLINE
  5
9B
330
17
100
AcDbEntity
  8
ROADS
100
AcDbPolyline
 90
2
 70
0
 10
622076.6470506825
 20
4830065.742294795
 10
622107.0140262269
 20
4830078.832393072
  0
LWPOLYLINE
  5
9C
330
17
100
AcDbEntity
  8
ROADS
100
AcDbPolyline
 90
3
 70
0
 10
622107.0140262269
 20
4830078.832393072
 10
622154.160971309
 20
4830089.36545645
 10
622161.726053023
 20
4830133.5611590585
  0
LWPOLYLINE
  5
9D
330
17
100
AcDbEntity
  8
ROADS
100
AcDbPolyline
 90
2
 70
0
 10
622161.726053023
 20
4830133.5611590585
 10
621952.161703556
 20
4830218.5798661085
  0
LWPOLYLINE
  5
9E
330
17
100
AcDbEntity
  8
ROADS
100
AcDbPolyline
 90
2
 70
0
 10
622210.9819042546
 20
4830320.990600507
 10
622161.726053023
 20
4830133.5611590585
  0
LWPOLYLINE
  5
9F
330
17
100
AcDbEntity
  8
ROADS
100
AcDbPolyline
 90
2
 70
0
 10
621629.1368987692
 20
4830214.765050671
 10
621623.7723569148
 20
4830231.279897371
  0
LWPOLYLINE
  5
A0
330
17
100
AcDbEntity
  8
ROADS
100
AcDbPolyline
 90
2
 70
0
 10
621952.161703556
 20
4830218.5798661085
 10
621902.7859564393
 20
4830230.066542735
  0
LWPOLYLINE
  5
A1
330
17
100
AcDbEntity
  8
ROADS
100
AcDbPolyline
 90
3
 70
0
 10
621750.7226447915
 20
4830250.792831883
 10
621702.6140779379
 20
4830207.6309106955
 10
621629.1368987692
 20
4830214.765050671
  0
LWPOLYLINE
  5
A2
330
17
100
AcDbEntity
  8
ROADS
100
AcDbPolyline
 90
2
 70
0
 10
621902.7859564393
 20
4830230.066542735
 10
621763.7488402943
 20
4830266.53783491
  0
LWPOLYLINE
  5
A3
330
17
100
AcDbEntity
  8
ROADS
100
AcDbPolyline
 90
3
 70
0
 10
621623.7723569148
 20
4830231.279897371
 10
621660.9149114845
 20
4830269.874530076
 10
621681.5241131489
 20
4830249.153850671
  0
LWPOLYLINE
  5
A4
330
17
100
AcDbEntity
  8
ROADS
100
AcDbPolyline
 90
2
 70
0
 10
621763.7488402943
 20
4830266.53783491
 10
621750.7226447915
 20
4830250.792831883
  0
LWPOLYLINE
  5
A5
330
17
100
AcDbEntity
  8
ROADS
100
AcDbPolyline
 90
2
 70
0
 10
621984.8798369344
 20
4830305.298837299
 10
621952.161703556
 20
4830218.5798661085
  0
LWPOLYLINE
  5
A6
330
17
100
AcDbEntity
  8
ROADS
100
AcDbPolyline
 90
2
 70
0
 10
621819.2052325117
 20
4830324.565172921
 10
621763.7488402943
 20
4830266.53783491
  0
LWPOLYLINE
  5
A7
330
17
100
AcDbEntity
  8
ROADS
100
AcDbPolyline
 90
2
 70
0
 10
621623.7723569148
 20
4830231.279897371
 10
621570.0776265359
 20
4830421.300561856
  0
LWPOLYLINE
  5
A8
330
17
100
AcDbEntity
  8
ROADS
100
AcDbPolyline
 90
2
 70
0
 10
621750.7226447915
 20
4830250.792831883
 10
621570.0776265359
 20
4830421.300561856
  0
LWPOLYLINE
  5
A9
330
17
100
AcDbEntity
  8
ROADS
100
AcDbPolyline
 90
2
 70
0
 10
622670.5277154783
 20
4830021.638866807
 10
622656.7437765258
 20
4830004.214064568
  0
LWPOLYLINE
  5
AA
330
17
100
AcDbEntity
  8
ROADS
100
AcDbPolyline
 90
5
 70
0
 10
622851.5882357457
 20
4830460.184518281
 10
622858.8696931427
 20
4830408.360519181
 10
622809.7601664832
 20
4830268.024634618
 10
622708.1446171352
 20
4830175.159708804
 10
622670.5277154783
 20
4830021.638866807
  0
LWPOLYLINE
  5
AB
330
17
100
AcDbEntity
  8
ROADS
100
AcDbPolyline
 90
7
 70
0
 10
622863.8503598141
 20
4830463.0341502465
 10
622868.9886737617
 20
4830399.198851942
 10
622825.8004767514
 20
4830275.081707754
 10
622836.2932514646
 20
4830204.146783714
 10
622756.4342113249
 20
4830195.020893679
 10
622721.670568703
 20
4830170.824809812
 10
622670.5277154783
 20
4830021.638866807
  0
LWPOLYLINE
  5
AC
330
17
100
AcDbEntity
  8
ROADS
100
AcDbPolyline
 90
2
 70
0
 10
622851.5882357457
 20
4830460.184518281
 10
622863.8503598141
 20
4830463.0341502465
  0
LWPOLYLINE
  5
AD
330
17
100
AcDbEntity
  8
ROADS
100
AcDbPolyline
 90
2
 70
0
 10
622840.8518139904
 20
4830491.485607998
 10
622851.5882357457
 20
4830460.184518281
  0
LWPOLYLINE
  5
AE
330
17
100
AcDbEntity
  8
ROADS
100
AcDbPolyline
 90
2
 70
0
 10
622840.8518139904
 20
4830491.485607998
 10
622863.8503598141
 20
4830463.0341502465
  0
LWPOLYLINE
  5
AF
330
17
100
AcDbEntity
  8
ROADS
100
AcDbPolyline
 90
2
 70
0
 10
622739.6104446959
 20
4830592.709753692
 10
622840.8518139904
 20
4830491.485607998
  0
LWPOLYLINE
  5
B0
330
17
100
AcDbEntity
  8
ROADS
100
AcDbPolyline
 90
3
 70
0
 10
622624.2636258237
 20
4830686.7521939045
 10
622701.9359636538
 20
4830670.277461814
 10
622739.6104446959
 20
4830592.709753692
  0
LWPOLYLINE
  5
B1
330
17
100
AcDbEntity
  8
ROADS
100
AcDbPolyline
 90
2
 70
0
 10
622709.2497823525
 20
4830692.284640229
 10
622739.6104446959
 20
4830592.709753692
  0
LWPOLYLINE
  5
B2
330
17
100
AcDbEntity
  8
ROADS
100
AcDbPolyline
 90
2
 70
0
 10
622443.8220721786
 20
4830622.697676375
 10
622546.867660652
 20
4830687.043136627
  0
LWPOLYLINE
  5
B3
330
17
100
AcDbEntity
  8
ROADS
100
AcDbPolyline
 90
2
 70
0
 10
621984.8798369344
 20
4830305.298837299
 10
621902.6048216012
 20
4830384.313347269
  0
LWPOLYLINE
  5
B4
330
17
100
AcDbEntity
  8
ROADS
100
AcDbPolyline
 90
2
 70
0
 10
621889.6367967201
 20
4830394.5790762715
 10
621819.2052325117
 20
4830324.565172921
  0
LWPOLYLINE
  5
B5
330
17
100
AcDbEntity
  8
ROADS
100
AcDbPolyline
 90
2
 70
0
 10
621902.6048216012
 20
4830384.313347269
 10
621889.6367967201
 20
4830394.5790762715
  0
LWPOLYLINE
  5
B6
330
17
100
AcDbEntity
  8
ROADS
100
AcDbPolyline
 90
2
 70
0
 10
621819.2052325117
 20
4830324.565172921
 10
621603.4557841792
 20
4830532.539481312
  0
LWPOLYLINE
  5
B7
330
17
100
AcDbEntity
  8
ROADS
100
AcDbPolyline
 90
2
 70
0
 10
621961.2956686843
 20
4830514.34846993
 10
621902.6048216012
 20
4830384.313347269
  0
LWPOLYLINE
  5
B8
330
17
100
AcDbEntity
  8
ROADS
100
AcDbPolyline
 90
2
 70
0
 10
622053.4881084678
 20
4830480.8452258995
 10
621961.2956686843
 20
4830514.34846993
  0
LWPOLYLINE
  5
B9
330
17
100
AcDbEntity
  8
ROADS
100
AcDbPolyline
 90
2
 70
0
 10
621889.6367967201
 20
4830394.5790762715
 10
621673.8517872114
 20
4830605.181361323
  0
LWPOLYLINE
  5
BA
330
17
100
AcDbEntity
  8
ROADS
100
AcDbPolyline
 90
2
 70
0
 10
621961.2956686843
 20
4830514.34846993
 10
621861.7413766398
 20
4830554.580022273
  0
LWPOLYLINE
  5
BB
330
17
100
AcDbEntity
  8
ROADS
100
AcDbPolyline
 90
2
 70
0
 10
621620.9665708194
 20
4830550.753107394
 10
621603.4557841792
 20
4830532.539481312
  0
LWPOLYLINE
  5
BC
330
17
100
AcDbEntity
  8
ROADS
100
AcDbPolyline
 90
2
 70
0
 10
621673.8517872114
 20
4830605.181361323
 10
621620.9665708194
 20
4830550.753107394
  0
LWPOLYLINE
  5
BD
330
17
100
AcDbEntity
  8
ROADS
100
AcDbPolyline
 90
2
 70
0
 10
620992.1270209559
 20
4829537.180802704
 10
620961.9495916505
 20
4829627.494668849
  0
LWPOLYLINE
  5
BE
330
17
100
AcDbEntity
  8
ROADS
100
AcDbPolyline
 90
2
 70
0
 10
620961.9495916505
 20
4829627.494668849
 10
620930.19036624
 20
4829725.322272895
  0
LWPOLYLINE
  5
BF
330
17
100
AcDbEntity
  8
ROADS
100
AcDbPolyline
 90
2
 70
0
 10
621353.9218214377
 20
4829755.7196689
 10
620961.9495916505
 20
4829627.494668849
  0
LWPOLYLINE
  5
C0
330
17
100
AcDbEntity
  8
ROADS
100
AcDbPolyline
 90
2
 70
0
 10
621322.3040630443
 20
4829854.458971697
 10
620930.19036624
 20
4829725.322272895
  0
LWPOLYLINE
  5
C1
330
17
100
AcDbEntity
  8
ROADS
100
AcDbPolyline
 90
4
 70
0
 10
620930.19036624
 20
4829725.322272895
 10
620910.9819670725
 20
4829801.262605432
 10
621002.2736400502
 20
4829908.909101322
 10
621080.8969139007
 20
4829939.367488944
  0
LWPOLYLINE
  5
C2
330
17
100
AcDbEntity
  8
ROADS
100
AcDbPolyline
 90
2
 70
0
 10
621080.8969139007
 20
4829939.367488944
 10
621064.403522412
 20
4829999.144181783
  0
LWPOLYLINE
  5
C3
330
17
100
AcDbEntity
  8
ROADS
100
AcDbPolyline
 90
2
 70
0
 10
620881.2547704392
 20
4830216.274463002
 10
620799.6217271605
 20
4830189.299605373
  0
LWPOLYLINE
  5
C4
330
17
100
AcDbEntity
  8
ROADS
100
AcDbPolyline
 90
2
 70
0
 10
620979.9838823994
 20
4830250.219227739
 10
620881.2547704392
 20
4830216.274463002
  0
LWPOLYLINE
  5
C5
330
17
100
AcDbEntity
  8
ROADS
100
AcDbPolyline
 90
3
 70
0
 10
621164.9501609029
 20
4830342.605245555
 10
621060.65881408
 20
4830279.038681409
 10
620979.9838823994
 20
4830250.219227739
  0
LWPOLYLINE
  5
C6
330
17
100
AcDbEntity
  8
ROADS
100
AcDbPolyline
 90
2
 70
0
 10
620979.9838823994
 20
4830250.219227739
 10
620923.1687343655
 20
4830424.648488496
  0
LWPOLYLINE
  5
C7
330
17
100
AcDbEntity
  8
ROADS
100
AcDbPolyline
 90
2
 70
0
 10
621440.8687060277
 20
4829947.784573592
 10
621408.3885402184
 20
4829937.360462679
  0
LWPOLYLINE
  5
C8
330
17
100
AcDbEntity
  8
ROADS
100
AcDbPolyline
 90
2
 70
0
 10
621305.5419610481
 20
4829906.24650613
 10
621274.4255647598
 20
4830002.91624575
  0
LWPOLYLINE
  5
C9
330
17
100
AcDbEntity
  8
ROADS
100
AcDbPolyline
 90
2
 70
0
 10
621577.7461640112
 20
4829990.341728162
 10
621440.8687060277
 20
4829947.784573592
  0
LWPOLYLINE
  5
CA
330
17
100
AcDbEntity
  8
ROADS
100
AcDbPolyline
 90
2
 70
0
 10
621274.4255647598
 20
4830002.91624575
 10
621080.8969139007
 20
4829939.367488944
  0
LWPOLYLINE
  5
CB
330
17
100
AcDbEntity
  8
ROADS
100
AcDbPolyline
 90
2
 70
0
 10
621440.8687060277
 20
4829947.784573592
 10
621366.0696144935
 20
4830178.863800772
  0
LWPOLYLINE
  5
CC
330
17
100
AcDbEntity
  8
ROADS
100
AcDbPolyline
 90
2
 70
0
 10
621274.4255647598
 20
4830002.91624575
 10
621231.886249137
 20
4830137.255297358
  0
LWPOLYLINE
  5
CD
330
17
100
AcDbEntity
  8
ROADS
100
AcDbPolyline
 90
2
 70
0
 10
621577.7461640112
 20
4829990.341728162
 10
621501.328551054
 20
4830222.549856947
  0
LWPOLYLINE
  5
CE
330
17
100
AcDbEntity
  8
ROADS
100
AcDbPolyline
 90
2
 70
0
 10
621280.3847625322
 20
4830151.351913057
 10
621231.886249137
 20
4830137.255297358
  0
LWPOLYLINE
  5
CF
330
17
100
AcDbEntity
  8
ROADS
100
AcDbPolyline
 90
2
 70
0
 10
621366.0696144935
 20
4830178.863800772
 10
621280.3847625322
 20
4830151.351913057
  0
LWPOLYLINE
  5
D0
330
17
100
AcDbEntity
  8
ROADS
100
AcDbPolyline
 90
2
 70
0
 10
621231.886249137
 20
4830137.255297358
 10
621205.4515909939
 20
4830217.44933825
  0
LWPOLYLINE
  5
D1
330
17
100
AcDbEntity
  8
ROADS
100
AcDbPolyline
 90
2
 70
0
 10
621280.3847625322
 20
4830151.351913057
 10
621254.0179619304
 20
4830232.7162416475
  0
LWPOLYLINE
  5
D2
330
17
100
AcDbEntity
  8
ROADS
100
AcDbPolyline
 90
2
 70
0
 10
621501.328551054
 20
4830222.549856947
 10
621366.0696144935
 20
4830178.863800772
  0
LWPOLYLINE
  5
D3
330
17
100
AcDbEntity
  8
ROADS
100
AcDbPolyline
 90
2
 70
0
 10
621629.1368987692
 20
4830214.765050671
 10
621501.328551054
 20
4830222.549856947
  0
LWPOLYLINE
  5
D4
330
17
100
AcDbEntity
  8
ROADS
100
AcDbPolyline
 90
2
 70
0
 10
621254.0179619304
 20
4830232.7162416475
 10
621205.4515909939
 20
4830217.44933825
  0
LWPOLYLINE
  5
D5
330
17
100
AcDbEntity
  8
ROADS
100
AcDbPolyline
 90
2
 70
0
 10
621205.4515909939
 20
4830217.44933825
 10
621183.0206557933
 20
4830289.8613448925
  0
LWPOLYLINE
  5
D6
330
17
100
AcDbEntity
  8
ROADS
100
AcDbPolyline
 90
3
 70
0
 10
621413.5648462229
 20
4830338.301761776
 10
621335.2466484613
 20
4830266.370929363
 10
621254.0179619304
 20
4830232.7162416475
  0
LWPOLYLINE
  5
D7
330
17
100
AcDbEntity
  8
ROADS
100
AcDbPolyline
 90
2
 70
0
 10
621501.328551054
 20
4830222.549856947
 10
621448.0726405939
 20
4830371.504550998
  0
LWPOLYLINE
  5
D8
330
17
100
AcDbEntity
  8
ROADS
100
AcDbPolyline
 90
2
 70
0
 10
621183.0206557933
 20
4830289.8613448925
 10
621164.9501609029
 20
4830342.605245555
  0
LWPOLYLINE
  5
D9
330
17
100
AcDbEntity
  8
ROADS
100
AcDbPolyline
 90
2
 70
0
 10
621448.0726405939
 20
4830371.504550998
 10
621413.5648462229
 20
4830338.301761776
  0
LWPOLYLINE
  5
DA
330
17
100
AcDbEntity
  8
ROADS
100
AcDbPolyline
 90
2
 70
0
 10
621533.3936810766
 20
4830460.014668339
 10
621448.0726405939
 20
4830371.504550998
  0
LWPOLYLINE
  5
DB
330
17
100
AcDbEntity
  8
ROADS
100
AcDbPolyline
 90
2
 70
0
 10
620881.2547704392
 20
4830216.274463002
 10
620837.8486983841
 20
4830352.448218754
  0
LWPOLYLINE
  5
DC
330
17
100
AcDbEntity
  8
ROADS
100
AcDbPolyline
 90
2
 70
0
 10
621164.9501609029
 20
4830342.605245555
 10
621117.9167337157
 20
4830488.171022809
  0
LWPOLYLINE
  5
DD
330
17
100
AcDbEntity
  8
ROADS
100
AcDbPolyline
 90
2
 70
0
 10
621022.1933466091
 20
4830456.68357398
 10
621040.0691795433
 20
4830400.544038424
  0
LWPOLYLINE
  5
DE
330
17
100
AcDbEntity
  8
ROADS
100
AcDbPolyline
 90
2
 70
0
 10
621022.1933466091
 20
4830456.68357398
 10
620923.1687343655
 20
4830424.648488496
  0
LWPOLYLINE
  5
DF
330
17
100
AcDbEntity
  8
ROADS
100
AcDbPolyline
 90
2
 70
0
 10
621117.9167337157
 20
4830488.171022809
 10
621022.1933466091
 20
4830456.68357398
  0
LWPOLYLINE
  5
E0
330
17
100
AcDbEntity
  8
ROADS
100
AcDbPolyline
 90
2
 70
0
 10
620923.1687343655
 20
4830424.648488496
 10
620898.86796286
 20
4830500.718552947
  0
LWPOLYLINE
  5
E1
330
17
100
AcDbEntity
  8
ROADS
100
AcDbPolyline
 90
2
 70
0
 10
621151.6653711796
 20
4830500.34116791
 10
621162.8749438886
 20
4830470.220335119
  0
LWPOLYLINE
  5
E2
330
17
100
AcDbEntity
  8
ROADS
100
AcDbPolyline
 90
2
 70
0
 10
621151.6653711796
 20
4830500.34116791
 10
621117.9167337157
 20
4830488.171022809
  0
LWPOLYLINE
  5
E3
330
17
100
AcDbEntity
  8
ROADS
100
AcDbPolyline
 90
2
 70
0
 10
621117.9167337157
 20
4830488.171022809
 10
621086.0477305742
 20
4830586.635640364
  0
LWPOLYLINE
  5
E4
330
17
100
AcDbEntity
  8
ROADS
100
AcDbPolyline
 90
2
 70
0
 10
621570.0776265359
 20
4830421.300561856
 10
621533.3936810766
 20
4830460.014668339
  0
LWPOLYLINE
  5
E5
330
17
100
AcDbEntity
  8
ROADS
100
AcDbPolyline
 90
2
 70
0
 10
621162.8749438886
 20
4830470.220335119
 10
621171.5692358391
 20
4830443.541216721
  0
LWPOLYLINE
  5
E6
330
17
100
AcDbEntity
  8
ROADS
100
AcDbPolyline
 90
2
 70
0
 10
621210.9516269539
 20
4830486.796485432
 10
621219.4467970595
 20
4830460.123767091
  0
LWPOLYLINE
  5
E7
330
17
100
AcDbEntity
  8
ROADS
100
AcDbPolyline
 90
2
 70
0
 10
621266.3658630706
 20
4830422.588627873
 10
621232.5516031448
 20
4830527.263429603
  0
LWPOLYLINE
  5
E8
330
17
100
AcDbEntity
  8
ROADS
100
AcDbPolyline
 90
2
 70
0
 10
621210.9516269539
 20
4830486.796485432
 10
621162.8749438886
 20
4830470.220335119
  0
LWPOLYLINE
  5
E9
330
17
100
AcDbEntity
  8
ROADS
100
AcDbPolyline
 90
3
 70
0
 10
621413.5648462229
 20
4830338.301761776
 10
621353.1000797092
 20
4830409.5017426945
 10
621547.2086002217
 20
4830618.771327881
  0
LWPOLYLINE
  5
EA
330
17
100
AcDbEntity
  8
ROADS
100
AcDbPolyline
 90
2
 70
0
 10
621603.4557841792
 20
4830532.539481312
 10
621533.3936810766
 20
4830460.014668339
  0
LWPOLYLINE
  5
EB
330
17
100
AcDbEntity
  8
ROADS
100
AcDbPolyline
 90
2
 70
0
 10
621200.9914927861
 20
4830516.1208563205
 10
621210.9516269539
 20
4830486.796485432
  0
LWPOLYLINE
  5
EC
330
17
100
AcDbEntity
  8
ROADS
100
AcDbPolyline
 90
2
 70
0
 10
621200.9914927861
 20
4830516.1208563205
 10
621151.6653711796
 20
4830500.34116791
  0
LWPOLYLINE
  5
ED
330
17
100
AcDbEntity
  8
ROADS
100
AcDbPolyline
 90
2
 70
0
 10
621232.5516031448
 20
4830527.263429603
 10
621200.9914927861
 20
4830516.1208563205
  0
LWPOLYLINE
  5
EE
330
17
100
AcDbEntity
  8
ROADS
100
AcDbPolyline
 90
2
 70
0
 10
621040.1332701326
 20
4830570.662565181
 10
620905.2775782077
 20
4830526.132620831
  0
LWPOLYLINE
  5
EF
330
17
100
AcDbEntity
  8
ROADS
100
AcDbPolyline
 90
2
 70
0
 10
621086.0477305742
 20
4830586.635640364
 10
621040.1332701326
 20
4830570.662565181
  0
LWPOLYLINE
  5
F0
330
17
100
AcDbEntity
  8
ROADS
100
AcDbPolyline
 90
2
 70
0
 10
621040.1332701326
 20
4830570.662565181
 10
621010.9829449449
 20
4830662.119959348
  0
LWPOLYLINE
  5
F1
330
17
100
AcDbEntity
  8
ROADS
100
AcDbPolyline
 90
2
 70
0
 10
621086.0477305742
 20
4830586.635640364
 10
621062.071222567
 20
4830661.56278799
  0
LWPOLYLINE
  5
F2
330
17
100
AcDbEntity
  8
ROADS
100
AcDbPolyline
 90
2
 70
0
 10
621010.9829449449
 20
4830662.119959348
 10
620944.5940179431
 20
4830640.852511027
  0
LWPOLYLINE
  5
F3
330
17
100
AcDbEntity
  8
ROADS
100
AcDbPolyline
 90
2
 70
0
 10
621062.071222567
 20
4830661.56278799
 10
621056.875197077
 20
4830677.107601872
  0
LWPOLYLINE
  5
F4
330
17
100
AcDbEntity
  8
ROADS
100
AcDbPolyline
 90
2
 70
0
 10
621056.875197077
 20
4830677.107601872
 10
621010.9829449449
 20
4830662.119959348
  0
LWPOLYLINE
  5
F5
330
17
100
AcDbEntity
  8
ROADS
100
AcDbPolyline
 90
2
 70
0
 10
621177.8208066511
 20
4830698.623295501
 10
621062.071222567
 20
4830661.56278799
  0
LWPOLYLINE
  5
F6
330
17
100
AcDbEntity
  8
ROADS
100
AcDbPolyline
 90
2
 70
0
 10
621056.875197077
 20
4830677.107601872
 10
621032.8745685024
 20
4830751.09926063
  0
LWPOLYLINE
  5
F7
330
17
100
AcDbEntity
  8
ROADS
100
AcDbPolyline
 90
2
 70
0
 10
621365.7951364852
 20
4830569.522141869
 10
621232.5516031448
 20
4830527.263429603
  0
LWPOLYLINE
  5
F8
330
17
100
AcDbEntity
  8
ROADS
100
AcDbPolyline
 90
2
 70
0
 10
621232.5516031448
 20
4830527.263429603
 10
621177.8208066511
 20
4830698.623295501
  0
LWPOLYLINE
  5
F9
330
17
100
AcDbEntity
  8
ROADS
100
AcDbPolyline
 90
2
 70
0
 10
621547.2086002217
 20
4830618.771327881
 10
621561.4275704919
 20
4830632.592795782
  0
LWPOLYLINE
  5
FA
330
17
100
AcDbEntity
  8
ROADS
100
AcDbPolyline
 90
2
 70
0
 10
621365.7951364852
 20
4830569.522141869
 10
621308.6269743815
 20
4830740.285014474
  0
LWPOLYLINE
  5
FB
330
17
100
AcDbEntity
  8
ROADS
100
AcDbPolyline
 90
3
 70
0
 10
621365.7951364852
 20
4830569.522141869
 10
621489.7947207133
 20
4830618.899224718
 10
621447.265683666
 20
4830785.149396497
  0
LWPOLYLINE
  5
FC
330
17
100
AcDbEntity
  8
ROADS
100
AcDbPolyline
 90
2
 70
0
 10
621308.6269743815
 20
4830740.285014474
 10
621177.8208066511
 20
4830698.623295501
  0
LWPOLYLINE
  5
FD
330
17
100
AcDbEntity
  8
ROADS
100
AcDbPolyline
 90
2
 70
0
 10
621447.265683666
 20
4830785.149396497
 10
621308.6269743815
 20
4830740.285014474
  0
LWPOLYLINE
  5
FE
330
17
100
AcDbEntity
  8
ROADS
100
AcDbPolyline
 90
2
 70
0
 10
621308.6269743815
 20
4830740.285014474
 10
621277.9782975748
 20
4830832.529436157
  0
LWPOLYLINE
  5
FF
330
17
100
AcDbEntity
  8
ROADS
100
AcDbPolyline
 90
2
 70
0
 10
621501.0412295777
 20
4830803.907648885
 10
621447.265683666
 20
4830785.149396497
  0
LWPOLYLINE
  5
100
330
17
100
AcDbEntity
  8
ROADS
100
AcDbPolyline
 90
2
 70
0
 10
621501.0412295777
 20
4830803.907648885
 10
621471.4703434965
 20
4830895.721568855
  0
LWPOLYLINE
  5
101
330
17
100
AcDbEntity
  8
ROADS
100
AcDbPolyline
 90
2
 70
0
 10
621010.9829449449
 20
4830662.119959348
 10
620986.7654010062
 20
4830737.34362553
  0
LWPOLYLINE
  5
102
330
17
100
AcDbEntity
  8
ROADS
100
AcDbPolyline
 90
2
 70
0
 10
621032.8745685024
 20
4830751.09926063
 10
621023.1170785752
 20
4830781.6053202
  0
LWPOLYLINE
  5
103
330
17
100
AcDbEntity
  8
ROADS
100
AcDbPolyline
 90
2
 70
0
 10
621023.1170785752
 20
4830781.6053202
 10
621009.0125274555
 20
4830777.19943145
  0
LWPOLYLINE
  5
104
330
17
100
AcDbEntity
  8
ROADS
100
AcDbPolyline
 90
2
 70
0
 10
621277.9782975748
 20
4830832.529436157
 10
621032.8745685024
 20
4830751.09926063
  0
LWPOLYLINE
  5
105
330
17
100
AcDbEntity
  8
ROADS
100
AcDbPolyline
 90
2
 70
0
 10
621023.1170785752
 20
4830781.6053202
 10
621018.8081396415
 20
4830794.443131877
  0
LWPOLYLINE
  5
106
330
17
100
AcDbEntity
  8
ROADS
100
AcDbPolyline
 90
2
 70
0
 10
622053.4881084678
 20
4830480.8452258995
 10
621984.8798369344
 20
4830305.298837299
  0
LWPOLYLINE
  5
107
330
17
100
AcDbEntity
  8
ROADS
100
AcDbPolyline
 90
3
 70
0
 10
622210.9819042546
 20
4830320.990600507
 10
622258.8057026303
 20
4830483.8890793305
 10
622333.0800127483
 20
4830568.877726513
  0
LWPOLYLINE
  5
108
330
17
100
AcDbEntity
  8
ROADS
100
AcDbPolyline
 90
5
 70
0
 10
622333.0800127483
 20
4830568.877726513
 10
622296.3246998034
 20
4830564.868606762
 10
622234.2271290863
 20
4830485.5731883515
 10
622204.1001803452
 20
4830374.049779167
 10
622210.9819042546
 20
4830320.990600507
  0
LWPOLYLINE
  5
109
330
17
100
AcDbEntity
  8
ROADS
100
AcDbPolyline
 90
2
 70
0
 10
622087.6727895373
 20
4830571.907942628
 10
622053.4881084678
 20
4830480.8452258995
  0
LWPOLYLINE
  5
10A
330
17
100
AcDbEntity
  8
ROADS
100
AcDbPolyline
 90
3
 70
0
 10
622443.8220721786
 20
4830622.697676375
 10
622390.6132973923
 20
4830612.470045046
 10
622333.0800127483
 20
4830568.877726513
  0
LWPOLYLINE
  5
10B
330
17
100
AcDbEntity
  8
ROADS
100
AcDbPolyline
 90
2
 70
0
 10
622087.6727895373
 20
4830571.907942628
 10
621928.0979070051
 20
4830632.11221873
  0
LWPOLYLINE
  5
10C
330
17
100
AcDbEntity
  8
ROADS
100
AcDbPolyline
 90
2
 70
0
 10
622366.4335984541
 20
4830651.972138475
 10
622333.0800127483
 20
4830568.877726513
  0
LWPOLYLINE
  5
10D
330
17
100
AcDbEntity
  8
ROADS
100
AcDbPolyline
 90
2
 70
0
 10
622120.5830718247
 20
4830662.268625059
 10
622087.6727895373
 20
4830571.907942628
  0
LWPOLYLINE
  5
10E
330
17
100
AcDbEntity
  8
ROADS
100
AcDbPolyline
 90
2
 70
0
 10
622366.4335984541
 20
4830651.972138475
 10
622443.8220721786
 20
4830622.697676375
  0
LWPOLYLINE
  5
10F
330
17
100
AcDbEntity
  8
ROADS
100
AcDbPolyline
 90
2
 70
0
 10
622120.5830718247
 20
4830662.268625059
 10
621993.7430328485
 20
4830708.474541123
  0
LWPOLYLINE
  5
110
330
17
100
AcDbEntity
  8
ROADS
100
AcDbPolyline
 90
2
 70
0
 10
621620.9665708194
 20
4830550.753107394
 10
621547.2086002217
 20
4830618.771327881
  0
LWPOLYLINE
  5
111
330
17
100
AcDbEntity
  8
ROADS
100
AcDbPolyline
 90
2
 70
0
 10
621861.7413766398
 20
4830554.580022273
 10
621787.8106859963
 20
4830623.243701085
  0
LWPOLYLINE
  5
112
330
17
100
AcDbEntity
  8
ROADS
100
AcDbPolyline
 90
2
 70
0
 10
621928.0979070051
 20
4830632.11221873
 10
621861.7413766398
 20
4830554.580022273
  0
LWPOLYLINE
  5
113
330
17
100
AcDbEntity
  8
ROADS
100
AcDbPolyline
 90
2
 70
0
 10
621736.0382608266
 20
4830669.3065890735
 10
621673.8517872114
 20
4830605.181361323
  0
LWPOLYLINE
  5
114
330
17
100
AcDbEntity
  8
ROADS
100
AcDbPolyline
 90
2
 70
0
 10
621787.8106859963
 20
4830623.243701085
 10
621736.0382608266
 20
4830669.3065890735
  0
LWPOLYLINE
  5
115
330
17
100
AcDbEntity
  8
ROADS
100
AcDbPolyline
 90
2
 70
0
 10
621959.8149092557
 20
4830669.006846233
 10
621928.0979070051
 20
4830632.11221873
  0
LWPOLYLINE
  5
116
330
17
100
AcDbEntity
  8
ROADS
100
AcDbPolyline
 90
2
 70
0
 10
621959.8149092557
 20
4830669.006846233
 10
621964.1940968232
 20
4830646.088895221
  0
LWPOLYLINE
  5
117
330
17
100
AcDbEntity
  8
ROADS
100
AcDbPolyline
 90
2
 70
0
 10
621993.7430328485
 20
4830708.474541123
 10
621959.8149092557
 20
4830669.006846233
  0
LWPOLYLINE
  5
118
330
17
100
AcDbEntity
  8
ROADS
100
AcDbPolyline
 90
3
 70
0
 10
621724.1943279216
 20
4830781.595736056
 10
621828.8253592016
 20
4830682.987307815
 10
621787.8106859963
 20
4830623.243701085
  0
LWPOLYLINE
  5
119
330
17
100
AcDbEntity
  8
ROADS
100
AcDbPolyline
 90
3
 70
0
 10
621736.0382608266
 20
4830669.3065890735
 10
621677.9506864744
 20
4830729.257014037
 10
621724.1943279216
 20
4830781.595736056
  0
LWPOLYLINE
  5
11A
330
17
100
AcDbEntity
  8
ROADS
100
AcDbPolyline
 90
2
 70
0
 10
622797.8345388225
 20
4830702.666329226
 10
622807.0106524951
 20
4830666.09230863
  0
LWPOLYLINE
  5
11B
330
17
100
AcDbEntity
  8
ROADS
100
AcDbPolyline
 90
3
 70
0
 10
622624.2636258237
 20
4830686.7521939045
 10
622612.1004292388
 20
4830671.783760824
 10
622564.9443879509
 20
4830698.067200163
  0
LWPOLYLINE
  5
11C
330
17
100
AcDbEntity
  8
ROADS
100
AcDbPolyline
 90
2
 70
0
 10
622797.8345388225
 20
4830702.666329226
 10
622863.1565347108
 20
4830668.021610809
  0
LWPOLYLINE
  5
11D
330
17
100
AcDbEntity
  8
ROADS
100
AcDbPolyline
 90
2
 70
0
 10
622769.4252382175
 20
4830703.769199529
 10
622758.0058231845
 20
4830667.169147102
  0
LWPOLYLINE
  5
11E
330
17
100
AcDbEntity
  8
ROADS
100
AcDbPolyline
 90
2
 70
0
 10
622564.9443879509
 20
4830698.067200163
 10
622546.867660652
 20
4830687.043136627
  0
LWPOLYLINE
  5
11F
330
17
100
AcDbEntity
  8
ROADS
100
AcDbPolyline
 90
2
 70
0
 10
622709.2497823525
 20
4830692.284640229
 10
622769.4252382175
 20
4830703.769199529
  0
LWPOLYLINE
  5
120
330
17
100
AcDbEntity
  8
ROADS
100
AcDbPolyline
 90
2
 70
0
 10
622635.8351558901
 20
4830710.613367837
 10
622624.2636258237
 20
4830686.7521939045
  0
LWPOLYLINE
  5
121
330
17
100
AcDbEntity
  8
ROADS
100
AcDbPolyline
 90
2
 70
0
 10
622635.8351558901
 20
4830710.613367837
 10
622709.2497823525
 20
4830692.284640229
  0
LWPOLYLINE
  5
122
330
17
100
AcDbEntity
  8
ROADS
100
AcDbPolyline
 90
2
 70
0
 10
622546.867660652
 20
4830687.043136627
 10
622554.0773673885
 20
4830716.584785094
  0
LWPOLYLINE
  5
123
330
17
100
AcDbEntity
  8
ROADS
100
AcDbPolyline
 90
2
 70
0
 10
622769.4252382175
 20
4830703.769199529
 10
622797.8345388225
 20
4830702.666329226
  0
LWPOLYLINE
  5
124
330
17
100
AcDbEntity
  8
ROADS
100
AcDbPolyline
 90
4
 70
0
 10
622863.8503598141
 20
4830463.0341502465
 10
622940.4383467087
 20
4830487.268760837
 10
623010.974129016
 20
4830561.157501665
 10
623041.1434639725
 20
4830545.166676814
  0
LWPOLYLINE
  5
125
330
17
100
AcDbEntity
  8
ROADS
100
AcDbPolyline
 90
2
 70
0
 10
622982.8883290823
 20
4830829.838370345
 10
623068.3969486938
 20
4830675.531403597
  0
LWPOLYLINE
  5
126
330
17
100
AcDbEntity
  8
ROADS
100
AcDbPolyline
 90
2
 70
0
 10
623033.0551627241
 20
4830892.759698389
 10
622982.8883290823
 20
4830829.838370345
  0
LWPOLYLINE
  5
127
330
17
100
AcDbEntity
  8
ROADS
100
AcDbPolyline
 90
5
 70
0
 10
622982.8883290823
 20
4830829.838370345
 10
622951.3198226693
 20
4830838.582536612
 10
622901.6673527607
 20
4830944.261764801
 10
622917.9603308016
 20
4830972.926494065
 10
622978.8522827426
 20
4830986.8781747855
  0
LWPOLYLINE
  5
128
330
17
100
AcDbEntity
  8
ROADS
100
AcDbPolyline
 90
2
 70
0
 10
623033.0551627241
 20
4830892.759698389
 10
623010.0691787205
 20
4830963.22093602
  0
LWPOLYLINE
  5
129
330
17
100
AcDbEntity
  8
ROADS
100
AcDbPolyline
 90
3
 70
0
 10
623114.5342618076
 20
4830988.57831955
 10
623081.1144489996
 20
4830932.510828135
 10
623033.0551627241
 20
4830892.759698389
  0
LWPOLYLINE
  5
12A
330
17
100
AcDbEntity
  8
ROADS
100
AcDbPolyline
 90
2
 70
0
 10
623010.0691787205
 20
4830963.22093602
 10
622978.8522827426
 20
4830986.8781747855
  0
LWPOLYLINE
  5
12B
330
17
100
AcDbEntity
  8
ROADS
100
AcDbPolyline
 90
2
 70
0
 10
623010.0691787205
 20
4830963.22093602
 10
623031.9678113629
 20
4830988.266761886
  0
LWPOLYLINE
  5
12C
330
17
100
AcDbEntity
  8
ROADS
100
AcDbPolyline
 90
2
 70
0
 10
623113.2261966061
 20
4831002.251366738
 10
623031.9678113629
 20
4830988.266761886
  0
LWPOLYLINE
  5
12D
330
17
100
AcDbEntity
  8
ROADS
100
AcDbPolyline
 90
2
 70
0
 10
623113.2261966061
 20
4831002.251366738
 10
623114.5342618076
 20
4830988.57831955
  0
LWPOLYLINE
  5
12E
330
17
100
AcDbEntity
  8
ROADS
100
AcDbPolyline
 90
2
 70
0
 10
622366.4335984541
 20
4830651.972138475
 10
622163.4985291886
 20
4830738.140383736
  0
LWPOLYLINE
  5
12F
330
17
100
AcDbEntity
  8
ROADS
100
AcDbPolyline
 90
2
 70
0
 10
622163.4985291886
 20
4830738.140383736
 10
622120.5830718247
 20
4830662.268625059
  0
LWPOLYLINE
  5
130
330
17
100
AcDbEntity
  8
ROADS
100
AcDbPolyline
 90
2
 70
0
 10
622045.937937332
 20
4830770.421258152
 10
621993.7430328485
 20
4830708.474541123
  0
LWPOLYLINE
  5
131
330
17
100
AcDbEntity
  8
ROADS
100
AcDbPolyline
 90
2
 70
0
 10
622193.0133477931
 20
4830763.082707354
 10
622163.4985291886
 20
4830738.140383736
  0
LWPOLYLINE
  5
132
330
17
100
AcDbEntity
  8
ROADS
100
AcDbPolyline
 90
2
 70
0
 10
622257.9100124385
 20
4830790.727306888
 10
622193.0133477931
 20
4830763.082707354
  0
LWPOLYLINE
  5
133
330
17
100
AcDbEntity
  8
ROADS
100
AcDbPolyline
 90
2
 70
0
 10
622193.0133477931
 20
4830763.082707354
 10
622135.8135147633
 20
4830796.361993016
  0
LWPOLYLINE
  5
134
330
17
100
AcDbEntity
  8
ROADS
100
AcDbPolyline
 90
2
 70
0
 10
622257.9100124385
 20
4830790.727306888
 10
622248.2023203956
 20
4830828.217704659
  0
LWPOLYLINE
  5
135
330
17
100
AcDbEntity
  8
ROADS
100
AcDbPolyline
 90
2
 70
0
 10
622135.8135147633
 20
4830796.361993016
 10
622074.7778234946
 20
4830833.997177196
  0
LWPOLYLINE
  5
136
330
17
100
AcDbEntity
  8
ROADS
100
AcDbPolyline
 90
2
 70
0
 10
622375.7652730611
 20
4830842.890735969
 10
622257.9100124385
 20
4830790.727306888
  0
LWPOLYLINE
  5
137
330
17
100
AcDbEntity
  8
ROADS
100
AcDbPolyline
 90
2
 70
0
 10
622135.8135147633
 20
4830796.361993016
 10
622179.5884227939
 20
4830845.195034731
  0
LWPOLYLINE
  5
138
330
17
100
AcDbEntity
  8
ROADS
100
AcDbPolyline
 90
2
 70
0
 10
622564.9443879509
 20
4830698.067200163
 10
622554.0773673885
 20
4830716.584785094
  0
LWPOLYLINE
  5
139
330
17
100
AcDbEntity
  8
ROADS
100
AcDbPolyline
 90
2
 70
0
 10
622635.8351558901
 20
4830710.613367837
 10
622605.8346114536
 20
4830743.114666109
  0
LWPOLYLINE
  5
13A
330
17
100
AcDbEntity
  8
ROADS
100
AcDbPolyline
 90
2
 70
0
 10
622605.8346114536
 20
4830743.114666109
 10
622618.9950985168
 20
4830737.531462878
  0
LWPOLYLINE
  5
13B
330
17
100
AcDbEntity
  8
ROADS
100
AcDbPolyline
 90
3
 70
0
 10
622526.2201950011
 20
4830799.364527355
 10
622575.3396147436
 20
4830707.991453991
 10
622624.2636258237
 20
4830686.7521939045
  0
LWPOLYLINE
  5
13C
330
17
100
AcDbEntity
  8
ROADS
100
AcDbPolyline
 90
2
 70
0
 10
622605.8346114536
 20
4830743.114666109
 10
622596.6684183407
 20
4830756.387057562
  0
LWPOLYLINE
  5
13D
330
17
100
AcDbEntity
  8
ROADS
100
AcDbPolyline
 90
2
 70
0
 10
622554.0773673885
 20
4830716.584785094
 10
622521.3337707528
 20
4830783.127482703
  0
LWPOLYLINE
  5
13E
330
17
100
AcDbEntity
  8
ROADS
100
AcDbPolyline
 90
2
 70
0
 10
622521.3337707528
 20
4830783.127482703
 10
622526.2201950011
 20
4830799.364527355
  0
LWPOLYLINE
  5
13F
330
17
100
AcDbEntity
  8
ROADS
100
AcDbPolyline
 90
2
 70
0
 10
622521.3337707528
 20
4830783.127482703
 10
622428.0897130866
 20
4830880.646735352
  0
LWPOLYLINE
  5
140
330
17
100
AcDbEntity
  8
ROADS
100
AcDbPolyline
 90
2
 70
0
 10
622428.0897130866
 20
4830880.646735352
 10
622526.2201950011
 20
4830799.364527355
  0
LWPOLYLINE
  5
141
330
17
100
AcDbEntity
  8
ROADS
100
AcDbPolyline
 90
3
 70
0
 10
622605.6858507625
 20
4830896.331666226
 10
622541.4231203052
 20
4830838.021004276
 10
622526.2201950011
 20
4830799.364527355
  0
LWPOLYLINE
  5
142
330
17
100
AcDbEntity
  8
ROADS
100
AcDbPolyline
 90
2
 70
0
 10
622248.2023203956
 20
4830828.217704659
 10
622223.2984249338
 20
4830816.07926401
  0
LWPOLYLINE
  5
143
330
17
100
AcDbEntity
  8
ROADS
100
AcDbPolyline
 90
2
 70
0
 10
622248.2023203956
 20
4830828.217704659
 10
622278.2346477469
 20
4830838.9617233025
  0
LWPOLYLINE
  5
144
330
17
100
AcDbEntity
  8
ROADS
100
AcDbPolyline
 90
2
 70
0
 10
622194.4902413955
 20
4830879.34382401
 10
622248.2023203956
 20
4830828.217704659
  0
LWPOLYLINE
  5
145
330
17
100
AcDbEntity
  8
ROADS
100
AcDbPolyline
 90
2
 70
0
 10
622074.7778234946
 20
4830833.997177196
 10
622128.7787538433
 20
4830892.431390253
  0
LWPOLYLINE
  5
146
330
17
100
AcDbEntity
  8
ROADS
100
AcDbPolyline
 90
2
 70
0
 10
622416.735822982
 20
4830889.634059763
 10
622375.7652730611
 20
4830842.890735969
  0
LWPOLYLINE
  5
147
330
17
100
AcDbEntity
  8
ROADS
100
AcDbPolyline
 90
2
 70
0
 10
622074.7778234946
 20
4830833.997177196
 10
622005.4968862298
 20
4830899.74670093
  0
LWPOLYLINE
  5
148
330
17
100
AcDbEntity
  8
ROADS
100
AcDbPolyline
 90
2
 70
0
 10
622416.735822982
 20
4830889.634059763
 10
622428.0897130866
 20
4830880.646735352
  0
LWPOLYLINE
  5
149
330
17
100
AcDbEntity
  8
ROADS
100
AcDbPolyline
 90
2
 70
0
 10
622375.7652730611
 20
4830842.890735969
 10
622270.9329842202
 20
4830937.072435116
  0
LWPOLYLINE
  5
14A
330
17
100
AcDbEntity
  8
ROADS
100
AcDbPolyline
 90
2
 70
0
 10
622194.4902413955
 20
4830879.34382401
 10
622146.5953026182
 20
4830903.573757147
  0
LWPOLYLINE
  5
14B
330
17
100
AcDbEntity
  8
ROADS
100
AcDbPolyline
 90
2
 70
0
 10
622221.2078328877
 20
4830908.442826628
 10
622194.4902413955
 20
4830879.34382401
  0
LWPOLYLINE
  5
14C
330
17
100
AcDbEntity
  8
ROADS
100
AcDbPolyline
 90
2
 70
0
 10
622228.978368054
 20
4830920.279752811
 10
622221.2078328877
 20
4830908.442826628
  0
LWPOLYLINE
  5
14D
330
17
100
AcDbEntity
  8
ROADS
100
AcDbPolyline
 90
2
 70
0
 10
622221.2078328877
 20
4830908.442826628
 10
622140.3732380837
 20
4830930.132596454
  0
LWPOLYLINE
  5
14E
330
17
100
AcDbEntity
  8
ROADS
100
AcDbPolyline
 90
2
 70
0
 10
622228.978368054
 20
4830920.279752811
 10
622248.8724997911
 20
4830920.7946563475
  0
LWPOLYLINE
  5
14F
330
17
100
AcDbEntity
  8
ROADS
100
AcDbPolyline
 90
2
 70
0
 10
622248.8724997911
 20
4830920.7946563475
 10
622257.1035487762
 20
4830938.942699197
  0
LWPOLYLINE
  5
150
330
17
100
AcDbEntity
  8
ROADS
100
AcDbPolyline
 90
2
 70
0
 10
622233.5005818856
 20
4830941.813454577
 10
622228.978368054
 20
4830920.279752811
  0
LWPOLYLINE
  5
151
330
17
100
AcDbEntity
  8
ROADS
100
AcDbPolyline
 90
2
 70
0
 10
622233.5005818856
 20
4830941.813454577
 10
622248.8724997911
 20
4830920.7946563475
  0
LWPOLYLINE
  5
152
330
17
100
AcDbEntity
  8
ROADS
100
AcDbPolyline
 90
2
 70
0
 10
622270.9329842202
 20
4830937.072435116
 10
622257.1035487762
 20
4830938.942699197
  0
LWPOLYLINE
  5
153
330
17
100
AcDbEntity
  8
ROADS
100
AcDbPolyline
 90
2
 70
0
 10
622257.1035487762
 20
4830938.942699197
 10
622233.5005818856
 20
4830941.813454577
  0
LWPOLYLINE
  5
154
330
17
100
AcDbEntity
  8
ROADS
100
AcDbPolyline
 90
3
 70
0
 10
622019.4377854133
 20
4831009.338606455
 10
622061.0414596666
 20
4830958.424809687
 10
622005.4968862298
 20
4830899.74670093
  0
LWPOLYLINE
  5
155
330
17
100
AcDbEntity
  8
ROADS
100
AcDbPolyline
 90
2
 70
0
 10
622233.5005818856
 20
4830941.813454577
 10
622135.4925815237
 20
4830969.570267175
  0
LWPOLYLINE
  5
156
330
17
100
AcDbEntity
  8
ROADS
100
AcDbPolyline
 90
2
 70
0
 10
622605.6858507625
 20
4830896.331666226
 10
622614.8964296746
 20
4830875.399045373
  0
LWPOLYLINE
  5
157
330
17
100
AcDbEntity
  8
ROADS
100
AcDbPolyline
 90
2
 70
0
 10
622607.2076170731
 20
4830909.468286807
 10
622605.6858507625
 20
4830896.331666226
  0
LWPOLYLINE
  5
158
330
17
100
AcDbEntity
  8
ROADS
100
AcDbPolyline
 90
2
 70
0
 10
622607.2076170731
 20
4830909.468286807
 10
622611.3888675909
 20
4830941.074336898
  0
LWPOLYLINE
  5
159
330
17
100
AcDbEntity
  8
ROADS
100
AcDbPolyline
 90
2
 70
0
 10
622460.176567588
 20
4830968.424542663
 10
622416.735822982
 20
4830889.634059763
  0
LWPOLYLINE
  5
15A
330
17
100
AcDbEntity
  8
ROADS
100
AcDbPolyline
 90
2
 70
0
 10
622632.8208129194
 20
4831033.413437409
 10
622611.3888675909
 20
4830941.074336898
  0
LWPOLYLINE
  5
15B
330
17
100
AcDbEntity
  8
ROADS
100
AcDbPolyline
 90
2
 70
0
 10
622491.5471134726
 20
4831034.738403812
 10
622460.176567588
 20
4830968.424542663
  0
LWPOLYLINE
  5
15C
330
17
100
AcDbEntity
  8
ROADS
100
AcDbPolyline
 90
2
 70
0
 10
622726.4236563722
 20
4831017.203579804
 10
622715.1716084164
 20
4831057.558263724
  0
LWPOLYLINE
  5
15D
330
17
100
AcDbEntity
  8
ROADS
100
AcDbPolyline
 90
2
 70
0
 10
622632.8208129194
 20
4831033.413437409
 10
622651.6836649971
 20
4831053.8981793225
  0
LWPOLYLINE
  5
15E
330
17
100
AcDbEntity
  8
ROADS
100
AcDbPolyline
 90
2
 70
0
 10
622617.1307262491
 20
4831055.242046163
 10
622632.8208129194
 20
4831033.413437409
  0
LWPOLYLINE
  5
15F
330
17
100
AcDbEntity
  8
ROADS
100
AcDbPolyline
 90
6
 70
0
 10
622976.795505828
 20
4831090.099089213
 10
622904.97336184
 20
4831114.932832363
 10
622826.6085922803
 20
4831019.939538888
 10
622745.2738608588
 20
4830988.097696593
 10
622692.1428101533
 20
4831000.41349092
 10
622667.4315624951
 20
4831053.447642853
  0
LWPOLYLINE
  5
160
330
17
100
AcDbEntity
  8
ROADS
100
AcDbPolyline
 90
2
 70
0
 10
622651.6836649971
 20
4831053.8981793225
 10
622667.4315624951
 20
4831053.447642853
  0
LWPOLYLINE
  5
161
330
17
100
AcDbEntity
  8
ROADS
100
AcDbPolyline
 90
2
 70
0
 10
622617.1307262491
 20
4831055.242046163
 10
622651.6836649971
 20
4831053.8981793225
  0
LWPOLYLINE
  5
162
330
17
100
AcDbEntity
  8
ROADS
100
AcDbPolyline
 90
2
 70
0
 10
622667.4315624951
 20
4831053.447642853
 10
622715.1716084164
 20
4831057.558263724
  0
LWPOLYLINE
  5
163
330
17
100
AcDbEntity
  8
ROADS
100
AcDbPolyline
 90
4
 70
0
 10
622906.5716685227
 20
4831123.168108767
 10
622811.5309572448
 20
4831014.619904919
 10
622760.573215367
 20
4830995.315425671
 10
622726.4236563722
 20
4831017.203579804
  0
LWPOLYLINE
  5
164
330
17
100
AcDbEntity
  8
ROADS
100
AcDbPolyline
 90
2
 70
0
 10
622667.4315624951
 20
4831053.447642853
 10
622666.5922634746
 20
4831070.871320615
  0
LWPOLYLINE
  5
165
330
17
100
AcDbEntity
  8
ROADS
100
AcDbPolyline
 90
2
 70
0
 10
622525.93579367
 20
4831098.782692063
 10
622491.5471134726
 20
4831034.738403812
  0
LWPOLYLINE
  5
166
330
17
100
AcDbEntity
  8
ROADS
100
AcDbPolyline
 90
3
 70
0
 10
622525.93579367
 20
4831098.782692063
 10
622555.0383929473
 20
4831063.509745437
 10
622617.1307262491
 20
4831055.242046163
  0
LWPOLYLINE
  5
167
330
17
100
AcDbEntity
  8
ROADS
100
AcDbPolyline
 90
2
 70
0
 10
622536.6904585933
 20
4831118.812933815
 10
622666.5922634746
 20
4831070.871320615
  0
LWPOLYLINE
  5
168
330
17
100
AcDbEntity
  8
ROADS
100
AcDbPolyline
 90
2
 70
0
 10
622726.4236563722
 20
4831017.203579804
 10
622888.4117784107
 20
4831190.728848277
  0
LWPOLYLINE
  5
169
330
17
100
AcDbEntity
  8
ROADS
100
AcDbPolyline
 90
2
 70
0
 10
622536.6904585933
 20
4831118.812933815
 10
622525.93579367
 20
4831098.782692063
  0
LWPOLYLINE
  5
16A
330
17
100
AcDbEntity
  8
ROADS
100
AcDbPolyline
 90
4
 70
0
 10
621724.1943279216
 20
4830781.595736056
 10
621750.0679264796
 20
4830814.565620446
 10
621818.2384423979
 20
4830841.22529019
 10
621844.4666422252
 20
4830797.10506864
  0
LWPOLYLINE
  5
16B
330
17
100
AcDbEntity
  8
ROADS
100
AcDbPolyline
 90
3
 70
0
 10
622005.4968862298
 20
4830899.74670093
 10
621938.0558640327
 20
4830829.936197544
 10
621887.832487429
 20
4830868.911732915
  0
LWPOLYLINE
  5
16C
330
17
100
AcDbEntity
  8
ROADS
100
AcDbPolyline
 90
3
 70
0
 10
621501.0412295777
 20
4830803.907648885
 10
621697.3353526897
 20
4830868.27247581
 10
621679.0846232655
 20
4830963.038073631
  0
LWPOLYLINE
  5
16D
330
17
100
AcDbEntity
  8
ROADS
100
AcDbPolyline
 90
2
 70
0
 10
622019.4377854133
 20
4831009.338606455
 10
621887.832487429
 20
4830868.911732915
  0
LWPOLYLINE
  5
16E
330
17
100
AcDbEntity
  8
ROADS
100
AcDbPolyline
 90
4
 70
0
 10
621887.832487429
 20
4830868.911732915
 10
621843.1219534299
 20
4830914.276135893
 10
621965.4667214676
 20
4831047.344378389
 10
622019.4377854133
 20
4831009.338606455
  0
LWPOLYLINE
  5
16F
330
17
100
AcDbEntity
  8
ROADS
100
AcDbPolyline
 90
2
 70
0
 10
621679.0846232655
 20
4830963.038073631
 10
621715.5445560606
 20
4830978.854430419
  0
LWPOLYLINE
  5
170
330
17
100
AcDbEntity
  8
ROADS
100
AcDbPolyline
 90
2
 70
0
 10
621744.4231551685
 20
4830967.047579806
 10
621747.037273973
 20
4830989.3008146025
  0
LWPOLYLINE
  5
171
330
17
100
AcDbEntity
  8
ROADS
100
AcDbPolyline
 90
2
 70
0
 10
621715.5445560606
 20
4830978.854430419
 10
621733.8627886255
 20
4830991.840935211
  0
LWPOLYLINE
  5
172
330
17
100
AcDbEntity
  8
ROADS
100
AcDbPolyline
 90
2
 70
0
 10
621733.8627886255
 20
4830991.840935211
 10
621747.037273973
 20
4830989.3008146025
  0
LWPOLYLINE
  5
173
330
17
100
AcDbEntity
  8
ROADS
100
AcDbPolyline
 90
3
 70
0
 10
621715.5445560606
 20
4830978.854430419
 10
621724.6688621669
 20
4831003.881394914
 10
621737.6950850745
 20
4831001.853619786
  0
LWPOLYLINE
  5
174
330
17
100
AcDbEntity
  8
ROADS
100
AcDbPolyline
 90
2
 70
0
 10
621471.4703434965
 20
4830895.721568855
 10
621277.9782975748
 20
4830832.529436157
  0
LWPOLYLINE
  5
175
330
17
100
AcDbEntity
  8
ROADS
100
AcDbPolyline
 90
2
 70
0
 10
621277.9782975748
 20
4830832.529436157
 10
621248.6676005009
 20
4830924.001977618
  0
LWPOLYLINE
  5
176
330
17
100
AcDbEntity
  8
ROADS
100
AcDbPolyline
 90
2
 70
0
 10
621679.0846232655
 20
4830963.038073631
 10
621471.4703434965
 20
4830895.721568855
  0
LWPOLYLINE
  5
177
330
17
100
AcDbEntity
  8
ROADS
100
AcDbPolyline
 90
2
 70
0
 10
621471.4703434965
 20
4830895.721568855
 10
621441.3312306518
 20
4830987.988228293
  0
LWPOLYLINE
  5
178
330
17
100
AcDbEntity
  8
ROADS
100
AcDbPolyline
 90
2
 70
0
 10
621441.3312306518
 20
4830987.988228293
 10
621248.6676005009
 20
4830924.001977618
  0
LWPOLYLINE
  5
179
330
17
100
AcDbEntity
  8
ROADS
100
AcDbPolyline
 90
2
 70
0
 10
621248.6676005009
 20
4830924.001977618
 10
621219.6670986818
 20
4831017.013174687
  0
LWPOLYLINE
  5
17A
330
17
100
AcDbEntity
  8
ROADS
100
AcDbPolyline
 90
2
 70
0
 10
621649.6393918135
 20
4831054.259272497
 10
621441.3312306518
 20
4830987.988228293
  0
LWPOLYLINE
  5
17B
330
17
100
AcDbEntity
  8
ROADS
100
AcDbPolyline
 90
2
 70
0
 10
621441.3312306518
 20
4830987.988228293
 10
621412.8831572491
 20
4831079.757398272
  0
LWPOLYLINE
  5
17C
330
17
100
AcDbEntity
  8
ROADS
100
AcDbPolyline
 90
2
 70
0
 10
621219.6670986818
 20
4831017.013174687
 10
621412.8831572491
 20
4831079.757398272
  0
LWPOLYLINE
  5
17D
330
17
100
AcDbEntity
  8
ROADS
100
AcDbPolyline
 90
2
 70
0
 10
621219.6670986818
 20
4831017.013174687
 10
621190.4682981803
 20
4831109.042730801
  0
LWPOLYLINE
  5
17E
330
17
100
AcDbEntity
  8
ROADS
100
AcDbPolyline
 90
2
 70
0
 10
621248.6676005009
 20
4830924.001977618
 10
621063.5720853566
 20
4830864.206611383
  0
LWPOLYLINE
  5
17F
330
17
100
AcDbEntity
  8
ROADS
100
AcDbPolyline
 90
2
 70
0
 10
621114.4102386392
 20
4830982.583132356
 10
621219.6670986818
 20
4831017.013174687
  0
LWPOLYLINE
  5
180
330
17
100
AcDbEntity
  8
ROADS
100
AcDbPolyline
 90
2
 70
0
 10
621190.4682981803
 20
4831109.042730801
 10
621188.1056603993
 20
4831108.264981406
  0
LWPOLYLINE
  5
181
330
17
100
AcDbEntity
  8
ROADS
100
AcDbPolyline
 90
2
 70
0
 10
621733.8627886255
 20
4830991.840935211
 10
621737.6950850745
 20
4831001.853619786
  0
LWPOLYLINE
  5
182
330
17
100
AcDbEntity
  8
ROADS
100
AcDbPolyline
 90
2
 70
0
 10
621763.5831195068
 20
4831008.559588619
 10
621747.037273973
 20
4830989.3008146025
  0
LWPOLYLINE
  5
183
330
17
100
AcDbEntity
  8
ROADS
100
AcDbPolyline
 90
2
 70
0
 10
621679.0846232655
 20
4830963.038073631
 10
621649.6393918135
 20
4831054.259272497
  0
LWPOLYLINE
  5
184
330
17
100
AcDbEntity
  8
ROADS
100
AcDbPolyline
 90
2
 70
0
 10
621737.6950850745
 20
4831001.853619786
 10
621747.2535464301
 20
4831018.791061886
  0
LWPOLYLINE
  5
185
330
17
100
AcDbEntity
  8
ROADS
100
AcDbPolyline
 90
2
 70
0
 10
621763.5831195068
 20
4831008.559588619
 10
621747.2535464301
 20
4831018.791061886
  0
LWPOLYLINE
  5
186
330
17
100
AcDbEntity
  8
ROADS
100
AcDbPolyline
 90
2
 70
0
 10
621763.5831195068
 20
4831008.559588619
 10
621766.4716450783
 20
4831037.987108695
  0
LWPOLYLINE
  5
187
330
17
100
AcDbEntity
  8
ROADS
100
AcDbPolyline
 90
2
 70
0
 10
621747.2535464301
 20
4831018.791061886
 10
621735.5065763503
 20
4831073.617344017
  0
LWPOLYLINE
  5
188
330
17
100
AcDbEntity
  8
ROADS
100
AcDbPolyline
 90
2
 70
0
 10
621649.6393918135
 20
4831054.259272497
 10
621699.741792408
 20
4831071.190640553
  0
LWPOLYLINE
  5
189
330
17
100
AcDbEntity
  8
ROADS
100
AcDbPolyline
 90
2
 70
0
 10
621699.741792408
 20
4831071.190640553
 10
621735.5065763503
 20
4831073.617344017
  0
LWPOLYLINE
  5
18A
330
17
100
AcDbEntity
  8
ROADS
100
AcDbPolyline
 90
4
 70
0
 10
621763.5831195068
 20
4831008.559588619
 10
621855.2291357208
 20
4831032.593262663
 10
621825.0744718172
 20
4831141.105477865
 10
621802.6245247279
 20
4831162.357383069
  0
LWPOLYLINE
  5
18B
330
17
100
AcDbEntity
  8
ROADS
100
AcDbPolyline
 90
2
 70
0
 10
621649.6393918135
 20
4831054.259272497
 10
621620.545509647
 20
4831147.50889445
  0
LWPOLYLINE
  5
18C
330
17
100
AcDbEntity
  8
ROADS
100
AcDbPolyline
 90
2
 70
0
 10
621735.5065763503
 20
4831073.617344017
 10
621744.488196077
 20
4831144.404814796
  0
LWPOLYLINE
  5
18D
330
17
100
AcDbEntity
  8
ROADS
100
AcDbPolyline
 90
3
 70
0
 10
621699.741792408
 20
4831071.190640553
 10
621661.6114520163
 20
4831131.285029609
 10
621620.545509647
 20
4831147.50889445
  0
LWPOLYLINE
  5
18E
330
17
100
AcDbEntity
  8
ROADS
100
AcDbPolyline
 90
2
 70
0
 10
621600.1493263112
 20
4831141.379155302
 10
621620.545509647
 20
4831147.50889445
  0
LWPOLYLINE
  5
18F
330
17
100
AcDbEntity
  8
ROADS
100
AcDbPolyline
 90
2
 70
0
 10
621744.488196077
 20
4831144.404814796
 10
621802.6245247279
 20
4831162.357383069
  0
LWPOLYLINE
  5
190
330
17
100
AcDbEntity
  8
ROADS
100
AcDbPolyline
 90
2
 70
0
 10
621744.488196077
 20
4831144.404814796
 10
621723.4585607863
 20
4831181.1425759
  0
LWPOLYLINE
  5
191
330
17
100
AcDbEntity
  8
ROADS
100
AcDbPolyline
 90
2
 70
0
 10
621620.545509647
 20
4831147.50889445
 10
621723.4585607863
 20
4831181.1425759
  0
LWPOLYLINE
  5
192
330
17
100
AcDbEntity
  8
ROADS
100
AcDbPolyline
 90
2
 70
0
 10
621802.6245247279
 20
4831162.357383069
 10
621819.0819541569
 20
4831210.5888949735
  0
LWPOLYLINE
  5
193
330
17
100
AcDbEntity
  8
ROADS
100
AcDbPolyline
 90
2
 70
0
 10
621723.4585607863
 20
4831181.1425759
 10
621819.0819541569
 20
4831210.5888949735
  0
LWPOLYLINE
  5
194
330
17
100
AcDbEntity
  8
ROADS
100
AcDbPolyline
 90
3
 70
0
 10
621819.0819541569
 20
4831210.5888949735
 10
621918.872985272
 20
4831240.897560731
 10
621893.5136122367
 20
4831318.07197175
  0
LWPOLYLINE
  5
195
330
17
100
AcDbEntity
  8
ROADS
100
AcDbPolyline
 90
2
 70
0
 10
621412.8831572491
 20
4831079.757398272
 10
621600.1493263112
 20
4831141.379155302
  0
LWPOLYLINE
  5
196
330
17
100
AcDbEntity
  8
ROADS
100
AcDbPolyline
 90
2
 70
0
 10
621412.8831572491
 20
4831079.757398272
 10
621384.5229521375
 20
4831172.529184989
  0
LWPOLYLINE
  5
197
330
17
100
AcDbEntity
  8
ROADS
100
AcDbPolyline
 90
2
 70
0
 10
621384.5229521375
 20
4831172.529184989
 10
621190.4682981803
 20
4831109.042730801
  0
LWPOLYLINE
  5
198
330
17
100
AcDbEntity
  8
ROADS
100
AcDbPolyline
 90
3
 70
0
 10
621600.1493263112
 20
4831141.379155302
 10
621557.3479325044
 20
4831228.200833795
 10
621384.5229521375
 20
4831172.529184989
  0
LWPOLYLINE
  5
199
330
17
100
AcDbEntity
  8
ROADS
100
AcDbPolyline
 90
2
 70
0
 10
621321.3345463385
 20
4831253.213727589
 10
621291.8352314522
 20
4831243.772492363
  0
LWPOLYLINE
  5
19A
330
17
100
AcDbEntity
  8
ROADS
100
AcDbPolyline
 90
4
 70
0
 10
621321.3345463385
 20
4831253.213727589
 10
621392.9334412606
 20
4831276.422237343
 10
621374.6659611145
 20
4831305.076993613
 10
621341.4934422177
 20
4831295.293190034
  0
LWPOLYLINE
  5
19B
330
17
100
AcDbEntity
  8
ROADS
100
AcDbPolyline
 90
2
 70
0
 10
621319.7217879794
 20
4831274.285615784
 10
621321.3345463385
 20
4831253.213727589
  0
LWPOLYLINE
  5
19C
330
17
100
AcDbEntity
  8
ROADS
100
AcDbPolyline
 90
2
 70
0
 10
621620.545509647
 20
4831147.50889445
 10
621529.1531435723
 20
4831423.460230792
  0
LWPOLYLINE
  5
19D
330
17
100
AcDbEntity
  8
ROADS
100
AcDbPolyline
 90
3
 70
0
 10
622775.6591570631
 20
4831178.751849859
 10
622731.4434368411
 20
4831097.910166321
 10
622666.5922634746
 20
4831070.871320615
  0
LWPOLYLINE
  5
19E
330
17
100
AcDbEntity
  8
ROADS
100
AcDbPolyline
 90
3
 70
0
 10
622715.1716084164
 20
4831057.558263724
 10
622754.5348751117
 20
4831083.278606342
 10
622838.9892247415
 20
4831223.202093728
  0
LWPOLYLINE
  5
19F
330
17
100
AcDbEntity
  8
ROADS
100
AcDbPolyline
 90
2
 70
0
 10
622888.4117784107
 20
4831190.728848277
 10
622910.9652379288
 20
4831175.874057853
  0
LWPOLYLINE
  5
1A0
330
17
100
AcDbEntity
  8
ROADS
100
AcDbPolyline
 90
2
 70
0
 10
622589.3957406388
 20
4831250.210366296
 10
622536.6904585933
 20
4831118.812933815
  0
LWPOLYLINE
  5
1A1
330
17
100
AcDbEntity
  8
ROADS
100
AcDbPolyline
 90
2
 70
0
 10
622775.6591570631
 20
4831178.751849859
 10
622715.8935032848
 20
4831202.596316134
  0
LWPOLYLINE
  5
1A2
330
17
100
AcDbEntity
  8
ROADS
100
AcDbPolyline
 90
2
 70
0
 10
622868.5452784746
 20
4831214.643619781
 10
622888.4117784107
 20
4831190.728848277
  0
LWPOLYLINE
  5
1A3
330
17
100
AcDbEntity
  8
ROADS
100
AcDbPolyline
 90
2
 70
0
 10
622856.450166351
 20
4831221.536452457
 10
622868.5452784746
 20
4831214.643619781
  0
LWPOLYLINE
  5
1A4
330
17
100
AcDbEntity
  8
ROADS
100
AcDbPolyline
 90
2
 70
0
 10
622715.8935032848
 20
4831202.596316134
 10
622632.390661293
 20
4831234.027314953
  0
LWPOLYLINE
  5
1A5
330
17
100
AcDbEntity
  8
ROADS
100
AcDbPolyline
 90
2
 70
0
 10
622838.9892247415
 20
4831223.202093728
 10
622856.450166351
 20
4831221.536452457
  0
LWPOLYLINE
  5
1A6
330
17
100
AcDbEntity
  8
ROADS
100
AcDbPolyline
 90
2
 70
0
 10
622868.5452784746
 20
4831214.643619781
 10
622867.2792195334
 20
4831235.788779712
  0
LWPOLYLINE
  5
1A7
330
17
100
AcDbEntity
  8
ROADS
100
AcDbPolyline
 90
2
 70
0
 10
622856.450166351
 20
4831221.536452457
 10
622867.2792195334
 20
4831235.788779712
  0
LWPOLYLINE
  5
1A8
330
17
100
AcDbEntity
  8
ROADS
100
AcDbPolyline
 90
2
 70
0
 10
622838.9892247415
 20
4831223.202093728
 10
622842.2885717697
 20
4831238.6909526475
  0
LWPOLYLINE
  5
1A9
330
17
100
AcDbEntity
  8
ROADS
100
AcDbPolyline
 90
2
 70
0
 10
622824.7202189504
 20
4831293.352731968
 10
622775.6591570631
 20
4831178.751849859
  0
LWPOLYLINE
  5
1AA
330
17
100
AcDbEntity
  8
ROADS
100
AcDbPolyline
 90
2
 70
0
 10
622632.390661293
 20
4831234.027314953
 10
622589.3957406388
 20
4831250.210366296
  0
LWPOLYLINE
  5
1AB
330
17
100
AcDbEntity
  8
ROADS
100
AcDbPolyline
 90
2
 70
0
 10
622842.2885717697
 20
4831238.6909526475
 10
622859.1898099176
 20
4831249.185293913
  0
LWPOLYLINE
  5
1AC
330
17
100
AcDbEntity
  8
ROADS
100
AcDbPolyline
 90
2
 70
0
 10
622842.2885717697
 20
4831238.6909526475
 10
622844.9194625331
 20
4831254.756763916
  0
LWPOLYLINE
  5
1AD
330
17
100
AcDbEntity
  8
ROADS
100
AcDbPolyline
 90
2
 70
0
 10
622867.2792195334
 20
4831235.788779712
 10
622883.9814864625
 20
4831266.76202746
  0
LWPOLYLINE
  5
1AE
330
17
100
AcDbEntity
  8
ROADS
100
AcDbPolyline
 90
2
 70
0
 10
622844.9194625331
 20
4831254.756763916
 10
622859.1898099176
 20
4831249.185293913
  0
LWPOLYLINE
  5
1AF
330
17
100
AcDbEntity
  8
ROADS
100
AcDbPolyline
 90
2
 70
0
 10
622859.1898099176
 20
4831249.185293913
 10
622869.2913781431
 20
4831258.425235119
  0
LWPOLYLINE
  5
1B0
330
17
100
AcDbEntity
  8
ROADS
100
AcDbPolyline
 90
2
 70
0
 10
622859.1898099176
 20
4831249.185293913
 10
622851.9538070783
 20
4831262.506221071
  0
LWPOLYLINE
  5
1B1
330
17
100
AcDbEntity
  8
ROADS
100
AcDbPolyline
 90
2
 70
0
 10
622844.9194625331
 20
4831254.756763916
 10
622851.9538070783
 20
4831262.506221071
  0
LWPOLYLINE
  5
1B2
330
17
100
AcDbEntity
  8
ROADS
100
AcDbPolyline
 90
2
 70
0
 10
622851.9538070783
 20
4831262.506221071
 10
622869.2913781431
 20
4831258.425235119
  0
LWPOLYLINE
  5
1B3
330
17
100
AcDbEntity
  8
ROADS
100
AcDbPolyline
 90
2
 70
0
 10
622842.2885717697
 20
4831238.6909526475
 10
622836.9193300966
 20
4831282.3640818335
  0
LWPOLYLINE
  5
1B4
330
17
100
AcDbEntity
  8
ROADS
100
AcDbPolyline
 90
2
 70
0
 10
622869.2913781431
 20
4831258.425235119
 10
622873.281324137
 20
4831270.782919019
  0
LWPOLYLINE
  5
1B5
330
17
100
AcDbEntity
  8
ROADS
100
AcDbPolyline
 90
2
 70
0
 10
622737.2661974961
 20
4831328.766530757
 10
622715.8935032848
 20
4831202.596316134
  0
LWPOLYLINE
  5
1B6
330
17
100
AcDbEntity
  8
ROADS
100
AcDbPolyline
 90
2
 70
0
 10
622873.281324137
 20
4831270.782919019
 10
622883.9814864625
 20
4831266.76202746
  0
LWPOLYLINE
  5
1B7
330
17
100
AcDbEntity
  8
ROADS
100
AcDbPolyline
 90
2
 70
0
 10
622851.9538070783
 20
4831262.506221071
 10
622836.9193300966
 20
4831282.3640818335
  0
LWPOLYLINE
  5
1B8
330
17
100
AcDbEntity
  8
ROADS
100
AcDbPolyline
 90
2
 70
0
 10
622836.9193300966
 20
4831282.3640818335
 10
622873.281324137
 20
4831270.782919019
  0
LWPOLYLINE
  5
1B9
330
17
100
AcDbEntity
  8
ROADS
100
AcDbPolyline
 90
2
 70
0
 10
622632.390661293
 20
4831234.027314953
 10
622672.3845140812
 20
4831353.041562996
  0
LWPOLYLINE
  5
1BA
330
17
100
AcDbEntity
  8
ROADS
100
AcDbPolyline
 90
2
 70
0
 10
622883.9814864625
 20
4831266.76202746
 10
622887.1542686014
 20
4831334.258643568
  0
LWPOLYLINE
  5
1BB
330
17
100
AcDbEntity
  8
ROADS
100
AcDbPolyline
 90
3
 70
0
 10
622873.281324137
 20
4831270.782919019
 10
622863.2357658426
 20
4831313.0215007495
 10
622887.1542686014
 20
4831334.258643568
  0
LWPOLYLINE
  5
1BC
330
17
100
AcDbEntity
  8
ROADS
100
AcDbPolyline
 90
2
 70
0
 10
622629.7351959539
 20
4831368.997833946
 10
622589.3957406388
 20
4831250.210366296
  0
LWPOLYLINE
  5
1BD
330
17
100
AcDbEntity
  8
ROADS
100
AcDbPolyline
 90
2
 70
0
 10
622824.7202189504
 20
4831293.352731968
 10
622737.2661974961
 20
4831328.766530757
  0
LWPOLYLINE
  5
1BE
330
17
100
AcDbEntity
  8
ROADS
100
AcDbPolyline
 90
2
 70
0
 10
622737.2661974961
 20
4831328.766530757
 10
622672.3845140812
 20
4831353.041562996
  0
LWPOLYLINE
  5
1BF
330
17
100
AcDbEntity
  8
ROADS
100
AcDbPolyline
 90
2
 70
0
 10
622836.9193300966
 20
4831282.3640818335
 10
622876.1395678072
 20
4831433.404495831
  0
LWPOLYLINE
  5
1C0
330
17
100
AcDbEntity
  8
ROADS
100
AcDbPolyline
 90
2
 70
0
 10
622672.3845140812
 20
4831353.041562996
 10
622629.7351959539
 20
4831368.997833946
  0
LWPOLYLINE
  5
1C1
330
17
100
AcDbEntity
  8
ROADS
100
AcDbPolyline
 90
2
 70
0
 10
622862.0307528877
 20
4831437.230791462
 10
622824.7202189504
 20
4831293.352731968
  0
LWPOLYLINE
  5
1C2
330
17
100
AcDbEntity
  8
ROADS
100
AcDbPolyline
 90
2
 70
0
 10
622887.1542686014
 20
4831334.258643568
 10
622900.2785543789
 20
4831423.507108751
  0
LWPOLYLINE
  5
1C3
330
17
100
AcDbEntity
  8
ROADS
100
AcDbPolyline
 90
2
 70
0
 10
622769.0264441354
 20
4831471.869246911
 10
622737.2661974961
 20
4831328.766530757
  0
LWPOLYLINE
  5
1C4
330
17
100
AcDbEntity
  8
ROADS
100
AcDbPolyline
 90
2
 70
0
 10
622900.2785543789
 20
4831423.507108751
 10
622913.5460577034
 20
4831418.865573005
  0
LWPOLYLINE
  5
1C5
330
17
100
AcDbEntity
  8
ROADS
100
AcDbPolyline
 90
5
 70
0
 10
622270.9329842202
 20
4830937.072435116
 10
622294.2105635648
 20
4830979.005910285
 10
622350.4262528946
 20
4830978.007386113
 10
622371.4880692225
 20
4831012.22748161
 10
622460.176567588
 20
4830968.424542663
  0
LWPOLYLINE
  5
1C6
330
17
100
AcDbEntity
  8
ROADS
100
AcDbPolyline
 90
3
 70
0
 10
622491.5471134726
 20
4831034.738403812
 10
622430.3150101847
 20
4831041.2255588295
 10
622244.3438085798
 20
4831129.596146862
  0
LWPOLYLINE
  5
1C7
330
17
100
AcDbEntity
  8
ROADS
100
AcDbPolyline
 90
3
 70
0
 10
622536.6904585933
 20
4831118.812933815
 10
622357.7681364375
 20
4831211.079033569
 10
622207.285227528
 20
4831358.365389656
  0
LWPOLYLINE
  5
1C8
330
17
100
AcDbEntity
  8
ROADS
100
AcDbPolyline
 90
4
 70
0
 10
621893.5136122367
 20
4831318.07197175
 10
621900.1817555072
 20
4831341.993535611
 10
622130.6218683958
 20
4831389.073828531
 10
622148.2384759159
 20
4831415.488822699
  0
LWPOLYLINE
  5
1C9
330
17
100
AcDbEntity
  8
ROADS
100
AcDbPolyline
 90
2
 70
0
 10
622207.285227528
 20
4831358.365389656
 10
622148.2384759159
 20
4831415.488822699
  0
LWPOLYLINE
  5
1CA
330
17
100
AcDbEntity
  8
ROADS
100
AcDbPolyline
 90
2
 70
0
 10
622148.2384759159
 20
4831415.488822699
 10
622096.139218084
 20
4831470.610157633
  0
LWPOLYLINE
  5
1CB
330
17
100
AcDbEntity
  8
ROADS
100
AcDbPolyline
 90
2
 70
0
 10
622096.139218084
 20
4831470.610157633
 10
622078.6364995766
 20
4831487.653241236
  0
LWPOLYLINE
  5
1CC
330
17
100
AcDbEntity
  8
ROADS
100
AcDbPolyline
 90
2
 70
0
 10
622078.6364995766
 20
4831487.653241236
 10
622042.9957078482
 20
4831523.584010036
  0
LWPOLYLINE
  5
1CD
330
17
100
AcDbEntity
  8
ROADS
100
AcDbPolyline
 90
2
 70
0
 10
622042.9957078482
 20
4831523.584010036
 10
622003.7009016882
 20
4831565.152016634
  0
LWPOLYLINE
  5
1CE
330
17
100
AcDbEntity
  8
ROADS
100
AcDbPolyline
 90
2
 70
0
 10
622672.3845140812
 20
4831353.041562996
 10
622718.5592072629
 20
4831491.950466669
  0
LWPOLYLINE
  5
1CF
330
17
100
AcDbEntity
  8
ROADS
100
AcDbPolyline
 90
2
 70
0
 10
622876.1395678072
 20
4831433.404495831
 10
622900.2785543789
 20
4831423.507108751
  0
LWPOLYLINE
  5
1D0
330
17
100
AcDbEntity
  8
ROADS
100
AcDbPolyline
 90
2
 70
0
 10
622675.8622084623
 20
4831508.939910815
 10
622629.7351959539
 20
4831368.997833946
  0
LWPOLYLINE
  5
1D1
330
17
100
AcDbEntity
  8
ROADS
100
AcDbPolyline
 90
2
 70
0
 10
622862.0307528877
 20
4831437.230791462
 10
622769.0264441354
 20
4831471.869246911
  0
LWPOLYLINE
  5
1D2
330
17
100
AcDbEntity
  8
ROADS
100
AcDbPolyline
 90
2
 70
0
 10
622769.0264441354
 20
4831471.869246911
 10
622718.5592072629
 20
4831491.950466669
  0
LWPOLYLINE
  5
1D3
330
17
100
AcDbEntity
  8
ROADS
100
AcDbPolyline
 90
2
 70
0
 10
622718.5592072629
 20
4831491.950466669
 10
622675.8622084623
 20
4831508.939910815
  0
LWPOLYLINE
  5
1D4
330
17
100
AcDbEntity
  8
ROADS
100
AcDbPolyline
 90
2
 70
0
 10
622794.2480065011
 20
4831549.1166837495
 10
622769.0264441354
 20
4831471.869246911
  0
LWPOLYLINE
  5
1D5
330
17
100
AcDbEntity
  8
ROADS
100
AcDbPolyline
 90
2
 70
0
 10
622876.1395678072
 20
4831433.404495831
 10
622892.6884528622
 20
4831505.577256359
  0
LWPOLYLINE
  5
1D6
330
17
100
AcDbEntity
  8
ROADS
100
AcDbPolyline
 90
2
 70
0
 10
622880.2422145163
 20
4831511.606218484
 10
622862.0307528877
 20
4831437.230791462
  0
LWPOLYLINE
  5
1D7
330
17
100
AcDbEntity
  8
ROADS
100
AcDbPolyline
 90
2
 70
0
 10
622700.0762760154
 20
4831588.786525286
 10
622675.8622084623
 20
4831508.939910815
  0
LWPOLYLINE
  5
1D8
330
17
100
AcDbEntity
  8
ROADS
100
AcDbPolyline
 90
2
 70
0
 10
621715.9739227502
 20
4831485.324165216
 10
621685.7306233331
 20
4831475.744346745
  0
LWPOLYLINE
  5
1D9
330
17
100
AcDbEntity
  8
ROADS
100
AcDbPolyline
 90
2
 70
0
 10
622003.7009016882
 20
4831565.152016634
 10
621965.9422581632
 20
4831602.539678628
  0
LWPOLYLINE
  5
1DA
330
17
100
AcDbEntity
  8
ROADS
100
AcDbPolyline
 90
6
 70
0
 10
621654.0483188332
 20
4831394.480292704
 10
621654.1188536873
 20
4831369.2654274395
 10
621588.2270602852
 20
4831344.678922616
 10
621572.5103322444
 20
4831349.717212402
 10
621555.5831907038
 20
4831402.710787664
 10
621578.2117987464
 20
4831410.039927111
  0
LWPOLYLINE
  5
1DB
330
17
100
AcDbEntity
  8
ROADS
100
AcDbPolyline
 90
2
 70
0
 10
621578.2117987464
 20
4831410.039927111
 10
621590.8175066742
 20
4831370.897901279
  0
LWPOLYLINE
  5
1DC
330
17
100
AcDbEntity
  8
ROADS
100
AcDbPolyline
 90
2
 70
0
 10
621638.7096758136
 20
4831393.315131645
 10
621654.0483188332
 20
4831394.480292704
  0
LWPOLYLINE
  5
1DD
330
17
100
AcDbEntity
  8
ROADS
100
AcDbPolyline
 90
3
 70
0
 10
621602.9144063205
 20
4831418.038566762
 10
621614.0794412799
 20
4831388.450941795
 10
621638.7096758136
 20
4831393.315131645
  0
LWPOLYLINE
  5
1DE
330
17
100
AcDbEntity
  8
ROADS
100
AcDbPolyline
 90
2
 70
0
 10
621654.0483188332
 20
4831394.480292704
 10
621707.5178557617
 20
4831414.788196131
  0
LWPOLYLINE
  5
1DF
330
17
100
AcDbEntity
  8
ROADS
100
AcDbPolyline
 90
2
 70
0
 10
621707.5178557617
 20
4831414.788196131
 10
621713.5094914333
 20
4831398.217689731
  0
LWPOLYLINE
  5
1E0
330
17
100
AcDbEntity
  8
ROADS
100
AcDbPolyline
 90
2
 70
0
 10
621627.6959508663
 20
4831425.985631318
 10
621638.7096758136
 20
4831393.315131645
  0
LWPOLYLINE
  5
1E1
330
17
100
AcDbEntity
  8
ROADS
100
AcDbPolyline
 90
2
 70
0
 10
621578.2117987464
 20
4831410.039927111
 10
621602.9144063205
 20
4831418.038566762
  0
LWPOLYLINE
  5
1E2
330
17
100
AcDbEntity
  8
ROADS
100
AcDbPolyline
 90
2
 70
0
 10
621602.9144063205
 20
4831418.038566762
 10
621627.6959508663
 20
4831425.985631318
  0
LWPOLYLINE
  5
1E3
330
17
100
AcDbEntity
  8
ROADS
100
AcDbPolyline
 90
2
 70
0
 10
621653.9179926572
 20
4831431.141261761
 10
621656.6372054231
 20
4831413.478922391
  0
LWPOLYLINE
  5
1E4
330
17
100
AcDbEntity
  8
ROADS
100
AcDbPolyline
 90
2
 70
0
 10
621627.6959508663
 20
4831425.985631318
 10
621653.9179926572
 20
4831431.141261761
  0
LWPOLYLINE
  5
1E5
330
17
100
AcDbEntity
  8
ROADS
100
AcDbPolyline
 90
2
 70
0
 10
621675.9577758182
 20
4831425.562516461
 10
621670.0359889617
 20
4831434.502937212
  0
LWPOLYLINE
  5
1E6
330
17
100
AcDbEntity
  8
ROADS
100
AcDbPolyline
 90
2
 70
0
 10
621594.6718560258
 20
4831445.779904856
 10
621602.9144063205
 20
4831418.038566762
  0
LWPOLYLINE
  5
1E7
330
17
100
AcDbEntity
  8
ROADS
100
AcDbPolyline
 90
2
 70
0
 10
621670.0359889617
 20
4831434.502937212
 10
621653.9179926572
 20
4831431.141261761
  0
LWPOLYLINE
  5
1E8
330
17
100
AcDbEntity
  8
ROADS
100
AcDbPolyline
 90
2
 70
0
 10
621707.5178557617
 20
4831414.788196131
 10
621685.7306233331
 20
4831475.744346745
  0
LWPOLYLINE
  5
1E9
330
17
100
AcDbEntity
  8
ROADS
100
AcDbPolyline
 90
2
 70
0
 10
621653.9179926572
 20
4831431.141261761
 10
621644.8160128467
 20
4831462.28056397
  0
LWPOLYLINE
  5
1EA
330
17
100
AcDbEntity
  8
ROADS
100
AcDbPolyline
 90
2
 70
0
 10
621670.0359889617
 20
4831434.502937212
 10
621664.4452116779
 20
4831468.739481829
  0
LWPOLYLINE
  5
1EB
330
17
100
AcDbEntity
  8
ROADS
100
AcDbPolyline
 90
2
 70
0
 10
621644.8160128467
 20
4831462.28056397
 10
621594.6718560258
 20
4831445.779904856
  0
LWPOLYLINE
  5
1EC
330
17
100
AcDbEntity
  8
ROADS
100
AcDbPolyline
 90
2
 70
0
 10
621664.4452116779
 20
4831468.739481829
 10
621644.8160128467
 20
4831462.28056397
  0
LWPOLYLINE
  5
1ED
330
17
100
AcDbEntity
  8
ROADS
100
AcDbPolyline
 90
2
 70
0
 10
621685.7306233331
 20
4831475.744346745
 10
621664.4452116779
 20
4831468.739481829
  0
LWPOLYLINE
  5
1EE
330
17
100
AcDbEntity
  8
ROADS
100
AcDbPolyline
 90
2
 70
0
 10
621529.1531435723
 20
4831423.460230792
 10
621478.4703359469
 20
4831407.008813424
  0
LWPOLYLINE
  5
1EF
330
17
100
AcDbEntity
  8
ROADS
100
AcDbPolyline
 90
2
 70
0
 10
621594.6718560258
 20
4831445.779904856
 10
621529.1531435723
 20
4831423.460230792
  0
LWPOLYLINE
  5
1F0
330
17
100
AcDbEntity
  8
ROADS
100
AcDbPolyline
 90
2
 70
0
 10
621529.1531435723
 20
4831423.460230792
 10
621524.8282169632
 20
4831436.837101097
  0
LWPOLYLINE
  5
1F1
330
17
100
AcDbEntity
  8
ROADS
100
AcDbPolyline
 90
2
 70
0
 10
622978.8522827426
 20
4830986.8781747855
 10
622985.6746524496
 20
4831022.913189903
  0
LWPOLYLINE
  5
1F2
330
17
100
AcDbEntity
  8
ROADS
100
AcDbPolyline
 90
2
 70
0
 10
623031.9678113629
 20
4830988.266761886
 10
623003.4006095481
 20
4831024.624490961
  0
LWPOLYLINE
  5
1F3
330
17
100
AcDbEntity
  8
ROADS
100
AcDbPolyline
 90
2
 70
0
 10
623122.3235602595
 20
4831020.191597552
 10
623113.2261966061
 20
4831002.251366738
  0
LWPOLYLINE
  5
1F4
330
17
100
AcDbEntity
  8
ROADS
100
AcDbPolyline
 90
2
 70
0
 10
623003.4006095481
 20
4831024.624490961
 10
622985.6746524496
 20
4831022.913189903
  0
LWPOLYLINE
  5
1F5
330
17
100
AcDbEntity
  8
ROADS
100
AcDbPolyline
 90
2
 70
0
 10
623122.3235602595
 20
4831020.191597552
 10
623105.5400124447
 20
4831057.707262331
  0
LWPOLYLINE
  5
1F6
330
17
100
AcDbEntity
  8
ROADS
100
AcDbPolyline
 90
3
 70
0
 10
623332.9577992607
 20
4831097.427545938
 10
623220.782517141
 20
4831083.238385098
 10
623114.5342618076
 20
4830988.57831955
  0
LWPOLYLINE
  5
1F7
330
17
100
AcDbEntity
  8
ROADS
100
AcDbPolyline
 90
3
 70
0
 10
622985.6746524496
 20
4831022.913189903
 10
622981.7310041738
 20
4831068.330179748
 10
622995.370708066
 20
4831092.684778438
  0
LWPOLYLINE
  5
1F8
330
17
100
AcDbEntity
  8
ROADS
100
AcDbPolyline
 90
3
 70
0
 10
623003.4006095481
 20
4831024.624490961
 10
623006.0951952979
 20
4831066.725239694
 10
623026.1435069566
 20
4831091.67264115
  0
LWPOLYLINE
  5
1F9
330
17
100
AcDbEntity
  8
ROADS
100
AcDbPolyline
 90
2
 70
0
 10
623026.1435069566
 20
4831091.67264115
 10
623105.5400124447
 20
4831057.707262331
  0
LWPOLYLINE
  5
1FA
330
17
100
AcDbEntity
  8
ROADS
100
AcDbPolyline
 90
4
 70
0
 10
623332.9577992607
 20
4831097.427545938
 10
623264.6994953805
 20
4831130.745120465
 10
623193.6382725318
 20
4831088.657293293
 10
623122.3235602595
 20
4831020.191597552
  0
LWPOLYLINE
  5
1FB
330
17
100
AcDbEntity
  8
ROADS
100
AcDbPolyline
 90
2
 70
0
 10
622995.370708066
 20
4831092.684778438
 10
623026.1435069566
 20
4831091.67264115
  0
LWPOLYLINE
  5
1FC
330
17
100
AcDbEntity
  8
ROADS
100
AcDbPolyline
 90
2
 70
0
 10
623337.9361448558
 20
4831098.090636307
 10
623332.9577992607
 20
4831097.427545938
  0
LWPOLYLINE
  5
1FD
330
17
100
AcDbEntity
  8
ROADS
100
AcDbPolyline
 90
2
 70
0
 10
622906.5716685227
 20
4831123.168108767
 10
622995.370708066
 20
4831092.684778438
  0
LWPOLYLINE
  5
1FE
330
17
100
AcDbEntity
  8
ROADS
100
AcDbPolyline
 90
2
 70
0
 10
623105.5400124447
 20
4831057.707262331
 10
623244.3188502799
 20
4831164.269614183
  0
LWPOLYLINE
  5
1FF
330
17
100
AcDbEntity
  8
ROADS
100
AcDbPolyline
 90
3
 70
0
 10
623026.1435069566
 20
4831091.67264115
 10
622978.2640900621
 20
4831144.540293549
 10
622931.5501727471
 20
4831149.833655618
  0
LWPOLYLINE
  5
200
330
17
100
AcDbEntity
  8
ROADS
100
AcDbPolyline
 90
2
 70
0
 10
622931.5501727471
 20
4831149.833655618
 10
622906.5716685227
 20
4831123.168108767
  0
LWPOLYLINE
  5
201
330
17
100
AcDbEntity
  8
ROADS
100
AcDbPolyline
 90
2
 70
0
 10
623244.3188502799
 20
4831164.269614183
 10
623266.5439105823
 20
4831153.699587442
  0
LWPOLYLINE
  5
202
330
17
100
AcDbEntity
  8
ROADS
100
AcDbPolyline
 90
2
 70
0
 10
622931.5501727471
 20
4831149.833655618
 10
622910.9652379288
 20
4831175.874057853
  0
LWPOLYLINE
  5
203
330
17
100
AcDbEntity
  8
ROADS
100
AcDbPolyline
 90
2
 70
0
 10
623244.3188502799
 20
4831164.269614183
 10
623269.8395164465
 20
4831201.459299964
  0
LWPOLYLINE
  5
204
330
17
100
AcDbEntity
  8
ROADS
100
AcDbPolyline
 90
2
 70
0
 10
622900.2785543789
 20
4831423.507108751
 10
622918.8092965467
 20
4831492.924310717
  0
ENDSEC
  0
SECTION
  2
OBJECTS
  0
DICTIONARY
  5
A
330
0
100
AcDbDictionary
281
1
  3
ACAD_COLOR
350
B
  3
ACAD_GROUP
350
C
  3
ACAD_LAYOUT
350
D
  3
ACAD_MATERIAL
350
E
  3
ACAD_MLEADERSTYLE
350
F
  3
ACAD_MLINESTYLE
350
10
  3
ACAD_PLOTSETTINGS
350
11
  3
ACAD_PLOTSTYLENAME
350
12
  3
ACAD_SCALELIST
350
14
  3
ACAD_TABLESTYLE
350
15
  3
ACAD_VISUALSTYLE
350
16
  3
EZDXF_META
350
2D
  0
DICTIONARY
  5
B
330
A
100
AcDbDictionary
281
1
  0
DICTIONARY
  5
C
330
A
100
AcDbDictionary
281
1
  0
DICTIONARY
  5
D
330
A
100
AcDbDictionary
281
1
  3
Model
350
1A
  3
Layout1
350
1E
  0
DICTIONARY
  5
E
330
A
100
AcDbDictionary
281
1
  3
ByBlock
350
1F
  3
ByLayer
350
20
  3
Global
350
21
  0
DICTIONARY
  5
F
330
A
100
AcDbDictionary
281
1
  3
Standard
350
2C
  0
DICTIONARY
  5
10
330
A
100
AcDbDictionary
281
1
  3
Standard
350
22
  0
DICTIONARY
  5
11
330
A
100
AcDbDictionary
281
1
  0
ACDBDICTIONARYWDFLT
  5
12
330
A
100
AcDbDictionary
281
1
  3
Normal
350
13
100
AcDbDictionaryWithDefault
340
13
  0
ACDBPLACEHOLDER
  5
13
330
12
  0
DICTIONARY
  5
14
330
A
100
AcDbDictionary
281
1
  0
DICTIONARY
  5
15
330
A
100
AcDbDictionary
281
1
  0
DICTIONARY
  5
16
330
A
100
AcDbDictionary
281
1
  0
LAYOUT
  5
1A
330
D
100
AcDbPlotSettings
  1

  4
A3
  6

 40
7.5
 41
20.0
 42
7.5
 43
20.0
 44
420.0
 45
297.0
 46
0.0
 47
0.0
 48
0.0
 49
0.0
140
0.0
141
0.0
142
1.0
143
1.0
 70
1024
 72
1
 73
0
 74
5
  7

 75
16
 76
0
 77
2
 78
300
147
1.0
148
0.0
149
0.0
100
AcDbLayout
  1
Model
 70
1
 71
0
 10
0.0
 20
0.0
 11
420.0
 21
297.0
 12
0.0
 22
0.0
 32
0.0
 14
1e+20
 24
1e+20
 34
1e+20
 15
-1e+20
 25
-1e+20
 35
-1e+20
146
0.0
 13
0.0
 23
0.0
 33
0.0
 16
1.0
 26
0.0
 36
0.0
 17
0.0
 27
1.0
 37
0.0
 76
1
330
17
  0
LAYOUT
  5
1E
330
D
100
AcDbPlotSettings
  1

  4
A3
  6

 40
7.5
 41
20.0
 42
7.5
 43
20.0
 44
420.0
 45
297.0
 46
0.0
 47
0.0
 48
0.0
 49
0.0
140
0.0
141
0.0
142
1.0
143
1.0
 70
0
 72
1
 73
0
 74
5
  7

 75
16
 76
0
 77
2
 78
300
147
1.0
148
0.0
149
0.0
100
AcDbLayout
  1
Layout1
 70
1
 71
1
 10
0.0
 20
0.0
 11
420.0
 21
297.0
 12
0.0
 22
0.0
 32
0.0
 14
1e+20
 24
1e+20
 34
1e+20
 15
-1e+20
 25
-1e+20
 35
-1e+20
146
0.0
 13
0.0
 23
0.0
 33
0.0
 16
1.0
 26
0.0
 36
0.0
 17
0.0
 27
1.0
 37
0.0
 76
1
330
1B
  0
MATERIAL
  5
1F
102
{ACAD_REACTORS
330
E
102
}
330
E
100
AcDbMaterial
  1
ByBlock
  2

 70
0
 40
1.0
 71
1
 41
1.0
 91
-1023410177
 42
1.0
 72
1
  3

 73
1
 74
1
 75
1
 44
0.5
 73
0
 45
1.0
 46
1.0
 77
1
  4

 78
1
 79
1
170
1
 48
1.0
171
1
  6

172
1
173
1
174
1
140
1.0
141
1.0
175
1
  7

176
1
177
1
178
1
143
1.0
179
1
  8

270
1
271
1
272
1
145
1.0
146
1.0
273
1
  9

274
1
275
1
276
1
 42
1.0
 72
1
  3

 73
1
 74
1
 75
1
 94
63
  0
MATERIAL
  5
20
102
{ACAD_REACTORS
330
E
102
}
330
E
100
AcDbMaterial
  1
ByLayer
  2

 70
0
 40
1.0
 71
1
 41
1.0
 91
-1023410177
 42
1.0
 72
1
  3

 73
1
 74
1
 75
1
 44
0.5
 73
0
 45
1.0
 46
1.0
 77
1
  4

 78
1
 79
1
170
1
 48
1.0
171
1
  6

172
1
173
1
174
1
140
1.0
141
1.0
175
1
  7

176
1
177
1
178
1
143
1.0
179
1
  8

270
1
271
1
272
1
145
1.0
146
1.0
273
1
  9

274
1
275
1
276
1
 42
1.0
 72
1
  3

 73
1
 74
1
 75
1
 94
63
  0
MATERIAL
  5
21
102
{ACAD_REACTORS
330
E
102
}
330
E
100
AcDbMaterial
  1
Global
  2

 70
0
 40
1.0
 71
1
 41
1.0
 91
-1023410177
 42
1.0
 72
1
  3

 73
1
 74
1
 75
1
 44
0.5
 73
0
 45
1.0
 46
1.0
 77
1
  4

 78
1
 79
1
170
1
 48
1.0
171
1
  6

172
1
173
1
174
1
140
1.0
141
1.0
175
1
  7

176
1
177
1
178
1
143
1.0
179
1
  8

270
1
271
1
272
1
145
1.0
146
1.0
273
1
  9

274
1
275
1
276
1
 42
1.0
 72
1
  3

 73
1
 74
1
 75
1
 94
63
  0
MLINESTYLE
  5
22
102
{ACAD_REACTORS
330
10
102
}
330
10
100
AcDbMlineStyle
  2
Standard
 70
0
  3

 62
256
 51
90.0
 52
90.0
 71
2
 49
0.5
 62
256
  6
BYLAYER
 49
-0.5
 62
256
  6
BYLAYER
  0
MLEADERSTYLE
  5
2C
102
{ACAD_REACTORS
330
F
102
}
330
F
100
AcDbMLeaderStyle
179
2
170
2
171
1
172
0
 90
2
 40
0.0
 41
0.0
173
1
 91
-1056964608
 92
-2
290
1
 42
2.0
291
1
 43
8.0
  3
Standard
 44
4.0
300

342
29
174
1
175
1
176
0
178
1
 93
-1056964608
 45
4.0
292
0
297
0
 46
4.0
 94
-1056964608
 47
1.0
 49
1.0
140
1.0
294
1
141
0.0
177
0
142
1.0
295
0
296
0
143
3.75
271
0
272
9
273
9
  0
DICTIONARY
  5
2D
330
A
100
AcDbDictionary
280
1
281
1
  3
CREATED_BY_EZDXF
350
2E
  3
WRITTEN_BY_EZDXF
350
207
  0
DICTIONARYVAR
  5
2E
330
2D
100
DictionaryVariables
280
0
  1
1.4.4 @ 2026-07-30T15:40:36.838548+00:00
  0
DICTIONARYVAR
  5
207
330
2D
100
DictionaryVariables
280
0
  1
1.4.4 @ 2026-07-30T15:40:36.874031+00:00
  0
ENDSEC
  0
EOF
