  0
SECTION
  2
HEADER
  9
$ACADVER
  1
AC1015
  9
$ACADMAINTVER
 70
6
  9
$DWGCODEPAGE
  3
ANSI_1252
  9
$INSBASE
 10
0.0
 20
0.0
 30
0.0
  9
$EXTMIN
 10
1e+20
 20
1e+20
 30
1e+20
  9
$EXTMAX
 10
-1e+20
 20
-1e+20
 30
-1e+20
  9
$LIMMIN
 10
0.0
 20
0.0
  9
$LIMMAX
 10
420.0
 20
297.0
  9
$ORTHOMODE
 70
0
  9
$REGENMODE
 70
1
  9
$FILLMODE
 70
1
  9
$QTEXTMODE
 70
0
  9
$MIRRTEXT
 70
1
  9
$LTSCALE
 40
1.0
  9
$ATTMODE
 70
1
  9
$TEXTSIZE
 40
2.5
  9
$TRACEWID
 40
1.0
  9
$TEXTSTYLE
  7
Standard
  9
$CLAYER
  8
0
  9
$CELTYPE
  6
ByLayer
  9
$CECOLOR
 62
256
  9
$CELTSCALE
 40
1.0
  9
$DISPSILH
 70
0
  9
$DIMSCALE
 40
1.0
  9
$DIMASZ
 40
2.5
  9
$DIMEXO
 40
0.625
  9
$DIMDLI
 40
3.75
  9
$DIMRND
 40
0.0
  9
$DIMDLE
 40
0.0
  9
$DIMEXE
 40
1.25
  9
$DIMTP
 40
0.0
  9
$DIMTM
 40
0.0
  9
$DIMTXT
 40
2.5
  9
$DIMCEN
 40
2.5
  9
$DIMTSZ
 40
0.0
  9
$DIMTOL
 70
0
  9
$DIMLIM
 70
0
  9
$DIMTIH
 70
0
  9
$DIMTOH
 70
0
  9
$DIMSE1
 70
0
  9
$DIMSE2
 70
0
  9
$DIMTAD
 70
1
  9
$DIMZIN
 70
8
  9
$DIMBLK
  1

  9
$DIMASO
 70
1
  9
$DIMSHO
 70
1
  9
$DIMPOST
  1

  9
$DIMAPOST
  1

  9
$DIMALT
 70
0
  9
$DIMALTD
 70
3
  9
$DIMALTF
 40
0.03937007874
  9
$DIMLFAC
 40
1.0
  9
$DIMTOFL
 70
1
  9
$DIMTVP
 40
0.0
  9
$DIMTIX
 70
0
  9
$DIMSOXD
 70
0
  9
$DIMSAH
 70
0
  9
$DIMBLK1
  1

  9
$DIMBLK2
  1

  9
$DIMSTYLE
  2
ISO-25
  9
$DIMCLRD
 70
0
  9
$DIMCLRE
 70
0
  9
$DIMCLRT
 70
0
  9
$DIMTFAC
 40
1.0
  9
$DIMGAP
 40
0.625
  9
$DIMJUST
 70
0
  9
$DIMSD1
 70
0
  9
$DIMSD2
 70
0
  9
$DIMTOLJ
 70
0
  9
$DIMTZIN
 70
8
  9
$DIMALTZ
 70
0
  9
$DIMALTTZ
 70
0
  9
$DIMUPT
 70
0
  9
$DIMDEC
 70
2
  9
$DIMTDEC
 70
2
  9
$DIMALTU
 70
2
  9
$DIMALTTD
 70
3
  9
$DIMTXSTY
  7
Standard
  9
$DIMAUNIT
 70
0
  9
$DIMADEC
 70
0
  9
$DIMALTRND
 40
0.0
  9
$DIMAZIN
 70
0
  9
$DIMDSEP
 70
44
  9
$DIMATFIT
 70
3
  9
$DIMFRAC
 70
0
  9
$DIMLDRBLK
  1

  9
$DIMLUNIT
 70
2
  9
$DIMLWD
 70
-2
  9
$DIMLWE
 70
-2
  9
$DIMTMOVE
 70
0
  9
$LUNITS
 70
2
  9
$LUPREC
 70
4
  9
$SKETCHINC
 40
1.0
  9
$FILLETRAD
 40
10.0
  9
$AUNITS
 70
0
  9
$AUPREC
 70
2
  9
$MENU
  1
.
  9
$ELEVATION
 40
0.0
  9
$PELEVATION
 40
0.0
  9
$THICKNESS
 40
0.0
  9
$LIMCHECK
 70
0
  9
$CHAMFERA
 40
0.0
  9
$CHAMFERB
 40
0.0
  9
$CHAMFERC
 40
0.0
  9
$CHAMFERD
 40
0.0
  9
$SKPOLY
 70
0
  9
$TDCREATE
 40
2461252.4865625
  9
$TDUCREATE
 40
2458532.153996898
  9
$TDUPDATE
 40
2461252.4865740743
  9
$TDUUPDATE
 40
2458532.1544311
  9
$TDINDWG
 40
0.0
  9
$TDUSRTIMER
 40
0.0
  9
$USRTIMER
 70
1
  9
$ANGBASE
 50
0.0
  9
$ANGDIR
 70
0
  9
$PDMODE
 70
0
  9
$PDSIZE
 40
0.0
  9
$PLINEWID
 40
0.0
  9
$SPLFRAME
 70
0
  9
$SPLINETYPE
 70
6
  9
$SPLINESEGS
 70
8
  9
$HANDSEED
  5
265
  9
$SURFTAB1
 70
6
  9
$SURFTAB2
 70
6
  9
$SURFTYPE
 70
6
  9
$SURFU
 70
6
  9
$SURFV
 70
6
  9
$UCSBASE
  2

  9
$UCSNAME
  2

  9
$UCSORG
 10
0.0
 20
0.0
 30
0.0
  9
$UCSXDIR
 10
1.0
 20
0.0
 30
0.0
  9
$UCSYDIR
 10
0.0
 20
1.0
 30
0.0
  9
$UCSORTHOREF
  2

  9
$UCSORTHOVIEW
 70
0
  9
$UCSORGTOP
 10
0.0
 20
0.0
 30
0.0
  9
$UCSORGBOTTOM
 10
0.0
 20
0.0
 30
0.0
  9
$UCSORGLEFT
 10
0.0
 20
0.0
 30
0.0
  9
$UCSORGRIGHT
 10
0.0
 20
0.0
 30
0.0
  9
$UCSORGFRONT
 10
0.0
 20
0.0
 30
0.0
  9
$UCSORGBACK
 10
0.0
 20
0.0
 30
0.0
  9
$PUCSBASE
  2

  9
$PUCSNAME
  2

  9
$PUCSORG
 10
0.0
 20
0.0
 30
0.0
  9
$PUCSXDIR
 10
1.0
 20
0.0
 30
0.0
  9
$PUCSYDIR
 10
0.0
 20
1.0
 30
0.0
  9
$PUCSORTHOREF
  2

  9
$PUCSORTHOVIEW
 70
0
  9
$PUCSORGTOP
 10
0.0
 20
0.0
 30
0.0
  9
$PUCSORGBOTTOM
 10
0.0
 20
0.0
 30
0.0
  9
$PUCSORGLEFT
 10
0.0
 20
0.0
 30
0.0
  9
$PUCSORGRIGHT
 10
0.0
 20
0.0
 30
0.0
  9
$PUCSORGFRONT
 10
0.0
 20
0.0
 30
0.0
  9
$PUCSORGBACK
 10
0.0
 20
0.0
 30
0.0
  9
$USERI1
 70
0
  9
$USERI2
 70
0
  9
$USERI3
 70
0
  9
$USERI4
 70
0
  9
$USERI5
 70
0
  9
$USERR1
 40
0.0
  9
$USERR2
 40
0.0
  9
$USERR3
 40
0.0
  9
$USERR4
 40
0.0
  9
$USERR5
 40
0.0
  9
$WORLDVIEW
 70
1
  9
$SHADEDGE
 70
3
  9
$SHADEDIF
 70
70
  9
$TILEMODE
 70
1
  9
$MAXACTVP
 70
64
  9
$PINSBASE
 10
0.0
 20
0.0
 30
0.0
  9
$PLIMCHECK
 70
0
  9
$PEXTMIN
 10
1e+20
 20
1e+20
 30
1e+20
  9
$PEXTMAX
 10
-1e+20
 20
-1e+20
 30
-1e+20
  9
$PLIMMIN
 10
0.0
 20
0.0
  9
$PLIMMAX
 10
420.0
 20
297.0
  9
$UNITMODE
 70
0
  9
$VISRETAIN
 70
1
  9
$PLINEGEN
 70
0
  9
$PSLTSCALE
 70
1
  9
$TREEDEPTH
 70
3020
  9
$CMLSTYLE
  2
Standard
  9
$CMLJUST
 70
0
  9
$CMLSCALE
 40
20.0
  9
$PROXYGRAPHICS
 70
1
  9
$MEASUREMENT
 70
1
  9
$CELWEIGHT
370
-1
  9
$ENDCAPS
280
0
  9
$JOINSTYLE
280
0
  9
$LWDISPLAY
290
0
  9
$INSUNITS
 70
6
  9
$HYPERLINKBASE
  1

  9
$STYLESHEET
  1

  9
$XEDIT
290
1
  9
$CEPSNTYPE
380
0
  9
$PSTYLEMODE
290
1
  9
$FINGERPRINTGUID
  2
{324202C7-D368-4195-AD48-90B3E6587B77}
  9
$VERSIONGUID
  2
{A0AD3CEC-9A9B-48B0-B8F0-142A4A9B598B}
  9
$EXTNAMES
290
1
  9
$PSVPSCALE
 40
0.0
  9
$OLESTARTUP
290
0
  0
ENDSEC
  0
SECTION
  2
CLASSES
  0
CLASS
  1
ACDBDICTIONARYWDFLT
  2
AcDbDictionaryWithDefault
  3
ObjectDBX Classes
 90
0
280
0
281
0
  0
CLASS
  1
SUN
  2
AcDbSun
  3
SCENEOE
 90
1153
280
0
281
0
  0
CLASS
  1
VISUALSTYLE
  2
AcDbVisualStyle
  3
ObjectDBX Classes
 90
4095
280
0
281
0
  0
CLASS
  1
MATERIAL
  2
AcDbMaterial
  3
ObjectDBX Classes
 90
1153
280
0
281
0
  0
CLASS
  1
SCALE
  2
AcDbScale
  3
ObjectDBX Classes
 90
1153
280
0
281
0
  0
CLASS
  1
TABLESTYLE
  2
AcDbTableStyle
  3
ObjectDBX Classes
 90
4095
280
0
281
0
  0
CLASS
  1
MLEADERSTYLE
  2
AcDbMLeaderStyle
  3
ACDB_MLEADERSTYLE_CLASS
 90
4095
280
0
281
0
  0
CLASS
  1
DICTIONARYVAR
  2
AcDbDictionaryVar
  3
ObjectDBX Classes
 90
0
280
0
281
0
  0
CLASS
  1
CELLSTYLEMAP
  2
AcDbCellStyleMap
  3
ObjectDBX Classes
 90
1152
280
0
281
0
  0
CLASS
  1
MENTALRAYRENDERSETTINGS
  2
AcDbMentalRayRenderSettings
  3
SCENEOE
 90
1024
280
0
281
0
  0
CLASS
  1
ACDBDETAILVIEWSTYLE
  2
AcDbDetailViewStyle
  3
ObjectDBX Classes
 90
1025
280
0
281
0
  0
CLASS
  1
ACDBSECTIONVIEWSTYLE
  2
AcDbSectionViewStyle
  3
ObjectDBX Classes
 90
1025
280
0
281
0
  0
CLASS
  1
RASTERVARIABLES
  2
AcDbRasterVariables
  3
ISM
 90
0
280
0
281
0
  0
CLASS
  1
ACDBPLACEHOLDER
  2
AcDbPlaceHolder
  3
ObjectDBX Classes
 90
0
280
0
281
0
  0
CLASS
  1
LAYOUT
  2
AcDbLayout
  3
ObjectDBX Classes
 90
0
280
0
281
0
  0
ENDSEC
  0
SECTION
  2
TABLES
  0
TABLE
  2
VPORT
  5
8
330
0
100
AcDbSymbolTable
 70
1
  0
VPORT
  5
23
330
8
100
AcDbSymbolTableRecord
100
AcDbViewportTableRecord
  2
*Active
 70
0
 10
0.0
 20
0.0
 11
1.0
 21
1.0
 12
0.0
 22
0.0
 13
0.0
 23
0.0
 14
0.5
 24
0.5
 15
0.5
 25
0.5
 16
0.0
 26
0.0
 36
1.0
 17
0.0
 27
0.0
 37
0.0
 40
1000.0
 41
1.34
 42
50.0
 43
0.0
 44
0.0
 50
0.0
 51
0.0
 71
0
 72
1000
 73
1
 74
3
 75
0
 76
0
 77
0
 78
0
281
0
 65
0
146
0.0
  0
ENDTAB
  0
TABLE
  2
LTYPE
  5
2
330
0
100
AcDbSymbolTable
 70
3
  0
LTYPE
  5
24
330
2
100
AcDbSymbolTableRecord
100
AcDbLinetypeTableRecord
  2
ByBlock
 70
0
  3

 72
65
 73
0
 40
0.0
  0
LTYPE
  5
25
330
2
100
AcDbSymbolTableRecord
100
AcDbLinetypeTableRecord
  2
ByLayer
 70
0
  3

 72
65
 73
0
 40
0.0
  0
LTYPE
  5
26
330
2
100
AcDbSymbolTableRecord
100
AcDbLinetypeTableRecord
  2
Continuous
 70
0
  3

 72
65
 73
0
 40
0.0
  0
ENDTAB
  0
TABLE
  2
LAYER
  5
1
330
0
100
AcDbSymbolTable
 70
2
  0
LAYER
  5
27
330
1
100
AcDbSymbolTableRecord
100
AcDbLayerTableRecord
  2
0
 70
0
 62
7
  6
Continuous
370
-3
390
13
  0
LAYER
  5
28
330
1
100
AcDbSymbolTableRecord
100
AcDbLayerTableRecord
  2
Defpoints
 70
0
 62
7
  6
Continuous
290
0
370
-3
390
13
  0
ENDTAB
  0
TABLE
  2
STYLE
  5
5
330
0
100
AcDbSymbolTable
 70
1
  0
STYLE
  5
29
330
5
100
AcDbSymbolTableRecord
100
AcDbTextStyleTableRecord
  2
Standard
 70
0
 40
0.0
 41
1.0
 50
0.0
 71
0
 42
2.5
  3
txt
  4

  0
ENDTAB
  0
TABLE
  2
VIEW
  5
7
330
0
100
AcDbSymbolTable
 70
0
  0
ENDTAB
  0
TABLE
  2
UCS
  5
6
330
0
100
AcDbSymbolTable
 70
0
  0
ENDTAB
  0
TABLE
  2
APPID
  5
3
330
0
100
AcDbSymbolTable
 70
3
  0
APPID
  5
2A
330
3
100
AcDbSymbolTableRecord
100
AcDbRegAppTableRecord
  2
ACAD
 70
0
  0
APPID
  5
262
330
3
100
AcDbSymbolTableRecord
100
AcDbRegAppTableRecord
  2
HATCHBACKGROUNDCOLOR
 70
0
  0
APPID
  5
263
330
3
100
AcDbSymbolTableRecord
100
AcDbRegAppTableRecord
  2
EZDXF
 70
0
  0
ENDTAB
  0
TABLE
  2
DIMSTYLE
  5
4
330
0
100
AcDbSymbolTable
 70
1
100
AcDbDimStyleTable
  0
DIMSTYLE
105
2B
330
4
100
AcDbSymbolTableRecord
100
AcDbDimStyleTableRecord
  2
Standard
 70
0
  3

  4

 40
1.0
 41
2.5
 42
0.625
 43
3.75
 44
1.25
 45
0.0
 46
0.0
 47
0.0
 48
0.0
140
2.5
141
2.5
142
0.0
143
0.03937007874
144
1.0
145
0.0
146
1.0
147
0.625
148
0.0
 71
0
 72
0
 73
0
 74
0
 75
0
 76
0
 77
1
 78
8
 79
3
170
0
171
3
172
1
173
0
174
0
175
0
176
0
177
0
178
0
179
2
271
2
272
2
273
2
274
3
275
0
276
0
277
2
278
44
279
0
280
0
281
0
282
0
283
0
284
8
285
0
286
0
288
0
289
3
371
-2
372
-2
  0
ENDTAB
  0
TABLE
  2
BLOCK_RECORD
  5
9
330
0
100
AcDbSymbolTable
 70
2
  0
BLOCK_RECORD
  5
17
330
9
100
AcDbSymbolTableRecord
100
AcDbBlockTableRecord
  2
*Model_Space
340
1A
  0
BLOCK_RECORD
  5
1B
330
9
100
AcDbSymbolTableRecord
100
AcDbBlockTableRecord
  2
*Paper_Space
340
1E
  0
ENDTAB
  0
ENDSEC
  0
SECTION
  2
BLOCKS
  0
BLOCK
  5
18
330
17
100
AcDbEntity
  8
0
100
AcDbBlockBegin
  2
*Model_Space
 70
0
 10
0.0
 20
0.0
 30
0.0
  3
*Model_Space
  1

  0
ENDBLK
  5
19
330
17
100
AcDbEntity
  8
0
100
AcDbBlockEnd
  0
BLOCK
  5
1C
330
1B
100
AcDbEntity
  8
0
100
AcDbBlockBegin
  2
*Paper_Space
 70
0
 10
0.0
 20
0.0
 30
0.0
  3
*Paper_Space
  1

  0
ENDBLK
  5
1D
330
1B
100
AcDbEntity
  8
0
100
AcDbBlockEnd
  0
ENDSEC
  0
SECTION
  2
ENTITIES
  0
LWPOLYLINE
  5
2F
330
17
100
AcDbEntity
  8
ROADS
100
AcDbPolyline
 90
2
 70
0
 10
621500.8311054136
 20
4829302.450788579
 10
621358.0676719274
 20
4829253.485064196
  0
LWPOLYLINE
  5
30
330
17
100
AcDbEntity
  8
ROADS
100
AcDbPolyline
 90
2
 70
0
 10
621637.0829268708
 20
4829349.947609282
 10
621636.3286075772
 20
4829344.969695377
  0
LWPOLYLINE
  5
31
330
17
100
AcDbEntity
  8
ROADS
100
AcDbPolyline
 90
2
 70
0
 10
620946.914155406
 20
4829420.8442331515
 10
620729.992711958
 20
4829349.829462552
  0
LWPOLYLINE
  5
32
330
17
100
AcDbEntity
  8
ROADS
100
AcDbPolyline
 90
2
 70
0
 10
621085.893512584
 20
4829244.376415772
 10
621080.5102462554
 20
4829260.693057177
  0
LWPOLYLINE
  5
33
330
17
100
AcDbEntity
  8
ROADS
100
AcDbPolyline
 90
2
 70
0
 10
621080.5102462554
 20
4829260.693057177
 10
621050.6401341025
 20
4829353.651635378
  0
LWPOLYLINE
  5
34
330
17
100
AcDbEntity
  8
ROADS
100
AcDbPolyline
 90
2
 70
0
 10
621050.6401341025
 20
4829353.651635378
 10
621020.4784876505
 20
4829444.69984973
  0
LWPOLYLINE
  5
35
330
17
100
AcDbEntity
  8
ROADS
100
AcDbPolyline
 90
2
 70
0
 10
621020.4784876505
 20
4829444.69984973
 10
620946.914155406
 20
4829420.8442331515
  0
LWPOLYLINE
  5
36
330
17
100
AcDbEntity
  8
ROADS
100
AcDbPolyline
 90
2
 70
0
 10
621020.4784876505
 20
4829444.69984973
 10
620992.1270209559
 20
4829537.180802704
  0
LWPOLYLINE
  5
37
330
17
100
AcDbEntity
  8
ROADS
100
AcDbPolyline
 90
3
 70
0
 10
620946.914155406
 20
4829420.8442331515
 10
620915.0741211412
 20
4829469.662289697
 10
620781.3136814729
 20
4829572.246889406
  0
LWPOLYLINE
  5
38
330
17
100
AcDbEntity
  8
ROADS
100
AcDbPolyline
 90
2
 70
0
 10
621504.7597990037
 20
4829290.230086411
 10
621500.8311054136
 20
4829302.450788579
  0
LWPOLYLINE
  5
39
330
17
100
AcDbEntity
  8
ROADS
100
AcDbPolyline
 90
2
 70
0
 10
621472.4709271068
 20
4829390.015509596
 10
621080.5102462554
 20
4829260.693057177
  0
LWPOLYLINE
  5
3A
330
17
100
AcDbEntity
  8
ROADS
100
AcDbPolyline
 90
2
 70
0
 10
621637.0829268708
 20
4829349.947609282
 10
621500.8311054136
 20
4829302.450788579
  0
LWPOLYLINE
  5
3B
330
17
100
AcDbEntity
  8
ROADS
100
AcDbPolyline
 90
2
 70
0
 10
621500.8311054136
 20
4829302.450788579
 10
621472.4709271068
 20
4829390.015509596
  0
LWPOLYLINE
  5
3C
330
17
100
AcDbEntity
  8
ROADS
100
AcDbPolyline
 90
2
 70
0
 10
621573.4522152429
 20
4829423.8317554565
 10
621472.4709271068
 20
4829390.015509596
  0
LWPOLYLINE
  5
3D
330
17
100
AcDbEntity
  8
ROADS
100
AcDbPolyline
 90
2
 70
0
 10
621444.2567224021
 20
4829477.497848846
 10
621050.6401341025
 20
4829353.651635378
  0
LWPOLYLINE
  5
3E
330
17
100
AcDbEntity
  8
ROADS
100
AcDbPolyline
 90
2
 70
0
 10
621472.4709271068
 20
4829390.015509596
 10
621444.2567224021
 20
4829477.497848846
  0
LWPOLYLINE
  5
3F
330
17
100
AcDbEntity
  8
ROADS
100
AcDbPolyline
 90
2
 70
0
 10
621415.8750875099
 20
4829569.487349919
 10
621020.4784876505
 20
4829444.69984973
  0
LWPOLYLINE
  5
40
330
17
100
AcDbEntity
  8
ROADS
100
AcDbPolyline
 90
2
 70
0
 10
621444.2567224021
 20
4829477.497848846
 10
621415.8750875099
 20
4829569.487349919
  0
LWPOLYLINE
  5
41
330
17
100
AcDbEntity
  8
ROADS
100
AcDbPolyline
 90
2
 70
0
 10
621573.4522152429
 20
4829423.8317554565
 10
621482.6987456586
 20
4829709.199455734
  0
LWPOLYLINE
  5
42
330
17
100
AcDbEntity
  8
ROADS
100
AcDbPolyline
 90
2
 70
0
 10
621383.2728503981
 20
4829664.986763511
 10
620992.1270209559
 20
4829537.180802704
  0
LWPOLYLINE
  5
43
330
17
100
AcDbEntity
  8
ROADS
100
AcDbPolyline
 90
2
 70
0
 10
621415.8750875099
 20
4829569.487349919
 10
621383.2728503981
 20
4829664.986763511
  0
LWPOLYLINE
  5
44
330
17
100
AcDbEntity
  8
ROADS
100
AcDbPolyline
 90
2
 70
0
 10
621383.2728503981
 20
4829664.986763511
 10
621378.334897799
 20
4829679.58922626
  0
LWPOLYLINE
  5
45
330
17
100
AcDbEntity
  8
ROADS
100
AcDbPolyline
 90
2
 70
0
 10
621482.6987456586
 20
4829709.199455734
 10
621378.334897799
 20
4829679.58922626
  0
LWPOLYLINE
  5
46
330
17
100
AcDbEntity
  8
ROADS
100
AcDbPolyline
 90
2
 70
0
 10
621378.334897799
 20
4829679.58922626
 10
621353.9218214377
 20
4829755.7196689
  0
LWPOLYLINE
  5
47
330
17
100
AcDbEntity
  8
ROADS
100
AcDbPolyline
 90
2
 70
0
 10
621584.7570520465
 20
4829742.545230179
 10
621482.6987456586
 20
4829709.199455734
  0
LWPOLYLINE
  5
48
330
17
100
AcDbEntity
  8
ROADS
100
AcDbPolyline
 90
2
 70
0
 10
621353.9218214377
 20
4829755.7196689
 10
621322.3040630443
 20
4829854.458971697
  0
LWPOLYLINE
  5
49
330
17
100
AcDbEntity
  8
ROADS
100
AcDbPolyline
 90
2
 70
0
 10
621482.6987456586
 20
4829709.199455734
 10
621408.3885402184
 20
4829937.360462679
  0
LWPOLYLINE
  5
4A
330
17
100
AcDbEntity
  8
ROADS
100
AcDbPolyline
 90
2
 70
0
 10
621322.3040630443
 20
4829854.458971697
 10
621305.5419610481
 20
4829906.24650613
  0
LWPOLYLINE
  5
4B
330
17
100
AcDbEntity
  8
ROADS
100
AcDbPolyline
 90
2
 70
0
 10
621408.3885402184
 20
4829937.360462679
 10
621305.5419610481
 20
4829906.24650613
  0
LWPOLYLINE
  5
4C
330
17
100
AcDbEntity
  8
ROADS
100
AcDbPolyline
 90
2
 70
0
 10
620432.7886467254
 20
4829738.816702876
 10
620402.4144222894
 20
4829896.499134134
  0
LWPOLYLINE
  5
4D
330
17
100
AcDbEntity
  8
ROADS
100
AcDbPolyline
 90
2
 70
0
 10
620402.4144222894
 20
4829896.499134134
 10
620359.1523302624
 20
4830050.542105849
  0
LWPOLYLINE
  5
4E
330
17
100
AcDbEntity
  8
ROADS
100
AcDbPolyline
 90
2
 70
0
 10
620359.1523302624
 20
4830050.542105849
 10
620136.9583983029
 20
4829979.126326913
  0
LWPOLYLINE
  5
4F
330
17
100
AcDbEntity
  8
ROADS
100
AcDbPolyline
 90
2
 70
0
 10
620437.1660882788
 20
4830075.648239936
 10
620359.1523302624
 20
4830050.542105849
  0
LWPOLYLINE
  5
50
330
17
100
AcDbEntity
  8
ROADS
100
AcDbPolyline
 90
2
 70
0
 10
620425.9237585185
 20
4830170.645118434
 10
620397.6060081031
 20
4830262.6904400345
  0
LWPOLYLINE
  5
51
330
17
100
AcDbEntity
  8
ROADS
100
AcDbPolyline
 90
2
 70
0
 10
620397.6060081031
 20
4830262.6904400345
 10
620369.1295825306
 20
4830352.058769766
  0
LWPOLYLINE
  5
52
330
17
100
AcDbEntity
  8
ROADS
100
AcDbPolyline
 90
3
 70
0
 10
620359.1523302624
 20
4830050.542105849
 10
620237.2748026449
 20
4830280.606152988
 10
620115.9060476506
 20
4830566.646496207
  0
LWPOLYLINE
  5
53
330
17
100
AcDbEntity
  8
ROADS
100
AcDbPolyline
 90
2
 70
0
 10
620369.1295825306
 20
4830352.058769766
 10
620338.5946033798
 20
4830445.936086409
  0
LWPOLYLINE
  5
54
330
17
100
AcDbEntity
  8
ROADS
100
AcDbPolyline
 90
2
 70
0
 10
620338.5946033798
 20
4830445.936086409
 10
620302.9072697178
 20
4830551.168783529
  0
LWPOLYLINE
  5
55
330
17
100
AcDbEntity
  8
ROADS
100
AcDbPolyline
 90
2
 70
0
 10
620512.4867612055
 20
4830618.884368575
 10
620302.9072697178
 20
4830551.168783529
  0
LWPOLYLINE
  5
56
330
17
100
AcDbEntity
  8
ROADS
100
AcDbPolyline
 90
2
 70
0
 10
620636.1856705176
 20
4830339.43907012
 10
620397.6060081031
 20
4830262.6904400345
  0
LWPOLYLINE
  5
57
330
17
100
AcDbEntity
  8
ROADS
100
AcDbPolyline
 90
2
 70
0
 10
620784.4573823228
 20
4830184.288692799
 10
620697.2026019107
 20
4830458.889267308
  0
LWPOLYLINE
  5
58
330
17
100
AcDbEntity
  8
ROADS
100
AcDbPolyline
 90
2
 70
0
 10
620636.1856705176
 20
4830339.43907012
 10
620609.751518036
 20
4830430.261908736
  0
LWPOLYLINE
  5
59
330
17
100
AcDbEntity
  8
ROADS
100
AcDbPolyline
 90
2
 70
0
 10
620609.751518036
 20
4830430.261908736
 10
620369.1295825306
 20
4830352.058769766
  0
LWPOLYLINE
  5
5A
330
17
100
AcDbEntity
  8
ROADS
100
AcDbPolyline
 90
2
 70
0
 10
620697.2026019107
 20
4830458.889267308
 10
620609.751518036
 20
4830430.261908736
  0
LWPOLYLINE
  5
5B
330
17
100
AcDbEntity
  8
ROADS
100
AcDbPolyline
 90
2
 70
0
 10
620793.968784694
 20
4830490.108512955
 10
620697.2026019107
 20
4830458.889267308
  0
LWPOLYLINE
  5
5C
330
17
100
AcDbEntity
  8
ROADS
100
AcDbPolyline
 90
2
 70
0
 10
620609.751518036
 20
4830430.261908736
 10
620581.5343800614
 20
4830524.787681858
  0
LWPOLYLINE
  5
5D
330
17
100
AcDbEntity
  8
ROADS
100
AcDbPolyline
 90
2
 70
0
 10
620547.5203798544
 20
4830513.802810152
 10
620338.5946033798
 20
4830445.936086409
  0
LWPOLYLINE
  5
5E
330
17
100
AcDbEntity
  8
ROADS
100
AcDbPolyline
 90
2
 70
0
 10
620838.4491080269
 20
4830504.700101491
 10
620793.968784694
 20
4830490.108512955
  0
LWPOLYLINE
  5
5F
330
17
100
AcDbEntity
  8
ROADS
100
AcDbPolyline
 90
2
 70
0
 10
620581.5343800614
 20
4830524.787681858
 10
620547.5203798544
 20
4830513.802810152
  0
LWPOLYLINE
  5
60
330
17
100
AcDbEntity
  8
ROADS
100
AcDbPolyline
 90
2
 70
0
 10
620115.9060476506
 20
4830566.646496207
 10
619998.4676781286
 20
4830538.685302481
  0
LWPOLYLINE
  5
61
330
17
100
AcDbEntity
  8
ROADS
100
AcDbPolyline
 90
3
 70
0
 10
620115.9060476506
 20
4830566.646496207
 10
619953.957720373
 20
4830814.199042739
 10
619949.7621435227
 20
4830824.809813057
  0
LWPOLYLINE
  5
62
330
17
100
AcDbEntity
  8
ROADS
100
AcDbPolyline
 90
2
 70
0
 10
619999.3393883198
 20
4831109.366713711
 10
619983.5049736693
 20
4831105.870671271
  0
LWPOLYLINE
  5
63
330
17
100
AcDbEntity
  8
ROADS
100
AcDbPolyline
 90
2
 70
0
 10
620217.5624971832
 20
4830613.795709695
 10
620115.9060476506
 20
4830566.646496207
  0
LWPOLYLINE
  5
64
330
17
100
AcDbEntity
  8
ROADS
100
AcDbPolyline
 90
2
 70
0
 10
620302.9072697178
 20
4830551.168783529
 10
620275.6596839596
 20
4830642.9253604645
  0
LWPOLYLINE
  5
65
330
17
100
AcDbEntity
  8
ROADS
100
AcDbPolyline
 90
2
 70
0
 10
620275.6596839596
 20
4830642.9253604645
 10
620217.5624971832
 20
4830613.795709695
  0
LWPOLYLINE
  5
66
330
17
100
AcDbEntity
  8
ROADS
100
AcDbPolyline
 90
4
 70
0
 10
620217.5624971832
 20
4830613.795709695
 10
620195.9392771169
 20
4830680.0238153525
 10
620260.8622604421
 20
4830704.5295879245
 10
620258.7285362221
 20
4830725.656410463
  0
LWPOLYLINE
  5
67
330
17
100
AcDbEntity
  8
ROADS
100
AcDbPolyline
 90
2
 70
0
 10
620483.67109898
 20
4830709.089607444
 10
620275.6596839596
 20
4830642.9253604645
  0
LWPOLYLINE
  5
68
330
17
100
AcDbEntity
  8
ROADS
100
AcDbPolyline
 90
2
 70
0
 10
620258.7285362221
 20
4830725.656410463
 10
620229.849768626
 20
4830814.316868957
  0
LWPOLYLINE
  5
69
330
17
100
AcDbEntity
  8
ROADS
100
AcDbPolyline
 90
3
 70
0
 10
620258.7285362221
 20
4830725.656410463
 10
620378.9991424149
 20
4830766.25317153
 10
620357.9034366499
 20
4830850.387568819
  0
LWPOLYLINE
  5
6A
330
17
100
AcDbEntity
  8
ROADS
100
AcDbPolyline
 90
3
 70
0
 10
620229.849768626
 20
4830814.316868957
 10
620190.8972506964
 20
4830798.646576302
 10
620169.0679731084
 20
4830768.498016614
  0
LWPOLYLINE
  5
6B
330
17
100
AcDbEntity
  8
ROADS
100
AcDbPolyline
 90
2
 70
0
 10
620357.9034366499
 20
4830850.387568819
 10
620229.849768626
 20
4830814.316868957
  0
LWPOLYLINE
  5
6C
330
17
100
AcDbEntity
  8
ROADS
100
AcDbPolyline
 90
2
 70
0
 10
620416.9161435526
 20
4830867.478311694
 10
620357.9034366499
 20
4830850.387568819
  0
LWPOLYLINE
  5
6D
330
17
100
AcDbEntity
  8
ROADS
100
AcDbPolyline
 90
2
 70
0
 10
620326.5590494231
 20
4830941.510104193
 10
620179.1915200558
 20
4830899.79824428
  0
LWPOLYLINE
  5
6E
330
17
100
AcDbEntity
  8
ROADS
100
AcDbPolyline
 90
2
 70
0
 10
620143.7751783634
 20
4831006.242790234
 10
620179.1915200558
 20
4830899.79824428
  0
LWPOLYLINE
  5
6F
330
17
100
AcDbEntity
  8
ROADS
100
AcDbPolyline
 90
6
 70
0
 10
620179.1915200558
 20
4830899.79824428
 10
620052.4770897443
 20
4830867.042870095
 10
619992.3312826911
 20
4830878.1908114785
 10
619977.3322538583
 20
4830931.855016186
 10
620009.6824291826
 20
4831005.762390444
 10
619999.3393883198
 20
4831109.366713711
  0
LWPOLYLINE
  5
70
330
17
100
AcDbEntity
  8
ROADS
100
AcDbPolyline
 90
2
 70
0
 10
620143.7751783634
 20
4831006.242790234
 10
620192.2571001798
 20
4831021.413233336
  0
LWPOLYLINE
  5
71
330
17
100
AcDbEntity
  8
ROADS
100
AcDbPolyline
 90
2
 70
0
 10
620098.970917065
 20
4831148.253161056
 10
620143.7751783634
 20
4831006.242790234
  0
LWPOLYLINE
  5
72
330
17
100
AcDbEntity
  8
ROADS
100
AcDbPolyline
 90
2
 70
0
 10
620211.5131019102
 20
4831270.275267782
 10
620326.5590494231
 20
4830941.510104193
  0
LWPOLYLINE
  5
73
330
17
100
AcDbEntity
  8
ROADS
100
AcDbPolyline
 90
2
 70
0
 10
620017.5667682308
 20
4831121.896501327
 10
620098.970917065
 20
4831148.253161056
  0
LWPOLYLINE
  5
74
330
17
100
AcDbEntity
  8
ROADS
100
AcDbPolyline
 90
2
 70
0
 10
620074.9277616754
 20
4831226.6999877915
 10
620098.970917065
 20
4831148.253161056
  0
LWPOLYLINE
  5
75
330
17
100
AcDbEntity
  8
ROADS
100
AcDbPolyline
 90
2
 70
0
 10
620074.9277616754
 20
4831226.6999877915
 10
620015.8825419891
 20
4831206.731879617
  0
LWPOLYLINE
  5
76
330
17
100
AcDbEntity
  8
ROADS
100
AcDbPolyline
 90
2
 70
0
 10
620170.9800089615
 20
4831256.350439649
 10
620074.9277616754
 20
4831226.6999877915
  0
LWPOLYLINE
  5
77
330
17
100
AcDbEntity
  8
ROADS
100
AcDbPolyline
 90
2
 70
0
 10
621643.5067303794
 20
4829348.82646485
 10
621637.0829268708
 20
4829349.947609282
  0
LWPOLYLINE
  5
78
330
17
100
AcDbEntity
  8
ROADS
100
AcDbPolyline
 90
2
 70
0
 10
621828.0510868012
 20
4829476.109236783
 10
621827.779901779
 20
4829470.918575372
  0
LWPOLYLINE
  5
79
330
17
100
AcDbEntity
  8
ROADS
100
AcDbPolyline
 90
2
 70
0
 10
621728.2802684653
 20
4829473.63323226
 10
621729.4060990978
 20
4829398.341516706
  0
LWPOLYLINE
  5
7A
330
17
100
AcDbEntity
  8
ROADS
100
AcDbPolyline
 90
2
 70
0
 10
621677.2615855004
 20
4829457.209077275
 10
621573.4522152429
 20
4829423.8317554565
  0
LWPOLYLINE
  5
7B
330
17
100
AcDbEntity
  8
ROADS
100
AcDbPolyline
 90
2
 70
0
 10
621728.2802684653
 20
4829473.63323226
 10
621677.2615855004
 20
4829457.209077275
  0
LWPOLYLINE
  5
7C
330
17
100
AcDbEntity
  8
ROADS
100
AcDbPolyline
 90
2
 70
0
 10
621769.9227185433
 20
4829488.385978078
 10
621728.2802684653
 20
4829473.63323226
  0
LWPOLYLINE
  5
7D
330
17
100
AcDbEntity
  8
ROADS
100
AcDbPolyline
 90
2
 70
0
 10
621829.3037380936
 20
4829506.751257785
 10
621828.0510868012
 20
4829476.109236783
  0
LWPOLYLINE
  5
7E
330
17
100
AcDbEntity
  8
ROADS
100
AcDbPolyline
 90
2
 70
0
 10
621829.3037380936
 20
4829506.751257785
 10
621769.9227185433
 20
4829488.385978078
  0
LWPOLYLINE
  5
7F
330
17
100
AcDbEntity
  8
ROADS
100
AcDbPolyline
 90
2
 70
0
 10
621835.95148326
 20
4829477.706767234
 10
621828.0510868012
 20
4829476.109236783
  0
LWPOLYLINE
  5
80
330
17
100
AcDbEntity
  8
ROADS
100
AcDbPolyline
 90
2
 70
0
 10
621836.9907560392
 20
4829670.606567242
 10
621829.3037380936
 20
4829506.751257785
  0
LWPOLYLINE
  5
81
330
17
100
AcDbEntity
  8
ROADS
100
AcDbPolyline
 90
2
 70
0
 10
621677.2615855004
 20
4829457.209077275
 10
621584.7570520465
 20
4829742.545230179
  0
LWPOLYLINE
  5
82
330
17
100
AcDbEntity
  8
ROADS
100
AcDbPolyline
 90
2
 70
0
 10
621769.9227185433
 20
4829488.385978078
 10
621677.7101225441
 20
4829771.896392337
  0
LWPOLYLINE
  5
83
330
17
100
AcDbEntity
  8
ROADS
100
AcDbPolyline
 90
3
 70
0
 10
621836.9907560392
 20
4829670.606567242
 10
621814.869900598
 20
4829677.40835492
 10
621801.4065977449
 20
4829716.480974857
  0
LWPOLYLINE
  5
84
330
17
100
AcDbEntity
  8
ROADS
100
AcDbPolyline
 90
2
 70
0
 10
621836.9907560392
 20
4829670.606567242
 10
621817.9193358191
 20
4829717.53375989
  0
LWPOLYLINE
  5
85
330
17
100
AcDbEntity
  8
ROADS
100
AcDbPolyline
 90
2
 70
0
 10
621841.4449661062
 20
4829719.053226398
 10
621836.9907560392
 20
4829670.606567242
  0
LWPOLYLINE
  5
86
330
17
100
AcDbEntity
  8
ROADS
100
AcDbPolyline
 90
2
 70
0
 10
621841.4449661062
 20
4829719.053226398
 10
622037.2577259444
 20
4829708.269967653
  0
LWPOLYLINE
  5
87
330
17
100
AcDbEntity
  8
ROADS
100
AcDbPolyline
 90
2
 70
0
 10
621801.4065977449
 20
4829716.480974857
 10
621817.9193358191
 20
4829717.53375989
  0
LWPOLYLINE
  5
88
330
17
100
AcDbEntity
  8
ROADS
100
AcDbPolyline
 90
2
 70
0
 10
621817.9193358191
 20
4829717.53375989
 10
621841.4449661062
 20
4829719.053226398
  0
LWPOLYLINE
  5
89
330
17
100
AcDbEntity
  8
ROADS
100
AcDbPolyline
 90
2
 70
0
 10
621846.1885363854
 20
4829771.854312064
 10
621841.4449661062
 20
4829719.053226398
  0
LWPOLYLINE
  5
8A
330
17
100
AcDbEntity
  8
ROADS
100
AcDbPolyline
 90
2
 70
0
 10
621677.7101225441
 20
4829771.896392337
 10
621584.7570520465
 20
4829742.545230179
  0
LWPOLYLINE
  5
8B
330
17
100
AcDbEntity
  8
ROADS
100
AcDbPolyline
 90
2
 70
0
 10
621801.4065977449
 20
4829716.480974857
 10
621774.8515460258
 20
4829801.295219524
  0
LWPOLYLINE
  5
8C
330
17
100
AcDbEntity
  8
ROADS
100
AcDbPolyline
 90
2
 70
0
 10
621584.7570520465
 20
4829742.545230179
 10
621571.6852371747
 20
4829782.809944931
  0
LWPOLYLINE
  5
8D
330
17
100
AcDbEntity
  8
ROADS
100
AcDbPolyline
 90
2
 70
0
 10
621848.5715951464
 20
4829795.2774230875
 10
621846.1885363854
 20
4829771.854312064
  0
LWPOLYLINE
  5
8E
330
17
100
AcDbEntity
  8
ROADS
100
AcDbPolyline
 90
2
 70
0
 10
621774.8515460258
 20
4829801.295219524
 10
621677.7101225441
 20
4829771.896392337
  0
LWPOLYLINE
  5
8F
330
17
100
AcDbEntity
  8
ROADS
100
AcDbPolyline
 90
2
 70
0
 10
621848.5715951464
 20
4829795.2774230875
 10
621774.8515460258
 20
4829801.295219524
  0
LWPOLYLINE
  5
90
330
17
100
AcDbEntity
  8
ROADS
100
AcDbPolyline
 90
3
 70
0
 10
621846.1885363854
 20
4829771.854312064
 10
622056.6244707222
 20
4829750.579049408
 10
622069.5140697462
 20
4829757.457980836
  0
LWPOLYLINE
  5
91
330
17
100
AcDbEntity
  8
ROADS
100
AcDbPolyline
 90
4
 70
0
 10
622100.3547009433
 20
4829815.61297915
 10
622097.3934059134
 20
4829850.791034675
 10
622076.3524874084
 20
4829882.4574743295
 10
622098.4734647108
 20
4829937.715578649
  0
LWPOLYLINE
  5
92
330
17
100
AcDbEntity
  8
ROADS
100
AcDbPolyline
 90
2
 70
0
 10
621858.5268022389
 20
4829904.031199002
 10
621848.5715951464
 20
4829795.2774230875
  0
LWPOLYLINE
  5
93
330
17
100
AcDbEntity
  8
ROADS
100
AcDbPolyline
 90
2
 70
0
 10
621774.8515460258
 20
4829801.295219524
 10
621723.9870797495
 20
4829957.990643637
  0
LWPOLYLINE
  5
94
330
17
100
AcDbEntity
  8
ROADS
100
AcDbPolyline
 90
2
 70
0
 10
621858.5268022389
 20
4829904.031199002
 10
622043.17025767
 20
4829857.137981583
  0
LWPOLYLINE
  5
95
330
17
100
AcDbEntity
  8
ROADS
100
AcDbPolyline
 90
2
 70
0
 10
621677.7101225441
 20
4829771.896392337
 10
621604.4433247834
 20
4829998.593299511
  0
LWPOLYLINE
  5
96
330
17
100
AcDbEntity
  8
ROADS
100
AcDbPolyline
 90
2
 70
0
 10
621813.9300078702
 20
4829967.245592284
 10
621804.0150099772
 20
4829858.481554335
  0
LWPOLYLINE
  5
97
330
17
100
AcDbEntity
  8
ROADS
100
AcDbPolyline
 90
2
 70
0
 10
621865.6797206947
 20
4829972.264513494
 10
621858.5268022389
 20
4829904.031199002
  0
LWPOLYLINE
  5
98
330
17
100
AcDbEntity
  8
ROADS
100
AcDbPolyline
 90
2
 70
0
 10
621813.9300078702
 20
4829967.245592284
 10
621723.9870797495
 20
4829957.990643637
  0
LWPOLYLINE
  5
99
330
17
100
AcDbEntity
  8
ROADS
100
AcDbPolyline
 90
2
 70
0
 10
621865.6797206947
 20
4829972.264513494
 10
621813.9300078702
 20
4829967.245592284
  0
LWPOLYLINE
  5
9A
330
17
100
AcDbEntity
  8
ROADS
100
AcDbPolyline
 90
2
 70
0
 10
621723.9870797495
 20
4829957.990643637
 10
621697.424272284
 20
4830027.120000786
  0
LWPOLYLINE
  5
9B
330
17
100
AcDbEntity
  8
ROADS
100
AcDbPolyline
 90
2
 70
0
 10
621604.4433247834
 20
4829998.593299511
 10
621577.7461640112
 20
4829990.341728162
  0
LWPOLYLINE
  5
9C
330
17
100
AcDbEntity
  8
ROADS
100
AcDbPolyline
 90
3
 70
0
 10
622098.4734647108
 20
4829937.715578649
 10
622131.5763364917
 20
4829929.060069019
 10
622143.5437698246
 20
4829952.431309041
  0
LWPOLYLINE
  5
9D
330
17
100
AcDbEntity
  8
ROADS
100
AcDbPolyline
 90
2
 70
0
 10
622098.4734647108
 20
4829937.715578649
 10
622088.390080854
 20
4829960.355506605
  0
LWPOLYLINE
  5
9E
330
17
100
AcDbEntity
  8
ROADS
100
AcDbPolyline
 90
2
 70
0
 10
622088.390080854
 20
4829960.355506605
 10
622143.5437698246
 20
4829952.431309041
  0
LWPOLYLINE
  5
9F
330
17
100
AcDbEntity
  8
ROADS
100
AcDbPolyline
 90
2
 70
0
 10
622143.5437698246
 20
4829952.431309041
 10
622144.7504537336
 20
4829970.168930032
  0
LWPOLYLINE
  5
A0
330
17
100
AcDbEntity
  8
ROADS
100
AcDbPolyline
 90
2
 70
0
 10
622088.390080854
 20
4829960.355506605
 10
622077.9510957754
 20
4829968.577341702
  0
LWPOLYLINE
  5
A1
330
17
100
AcDbEntity
  8
ROADS
100
AcDbPolyline
 90
2
 70
0
 10
622077.9510957754
 20
4829968.577341702
 10
622090.3539410557
 20
4830023.041887169
  0
LWPOLYLINE
  5
A2
330
17
100
AcDbEntity
  8
ROADS
100
AcDbPolyline
 90
3
 70
0
 10
622077.9510957754
 20
4829968.577341702
 10
622053.4210753847
 20
4829993.6514473595
 10
622056.9958978301
 20
4830031.318760014
  0
LWPOLYLINE
  5
A3
330
17
100
AcDbEntity
  8
ROADS
100
AcDbPolyline
 90
2
 70
0
 10
622034.893864618
 20
4830021.159834168
 10
622032.3194476702
 20
4829999.6115887435
  0
LWPOLYLINE
  5
A4
330
17
100
AcDbEntity
  8
ROADS
100
AcDbPolyline
 90
2
 70
0
 10
622034.893864618
 20
4830021.159834168
 10
622046.8083100151
 20
4830026.065509087
  0
LWPOLYLINE
  5
A5
330
17
100
AcDbEntity
  8
ROADS
100
AcDbPolyline
 90
3
 70
0
 10
622013.4849863725
 20
4830032.032900909
 10
622009.1888046166
 20
4830016.197572193
 10
622034.893864618
 20
4830021.159834168
  0
LWPOLYLINE
  5
A6
330
17
100
AcDbEntity
  8
ROADS
100
AcDbPolyline
 90
2
 70
0
 10
621697.424272284
 20
4830027.120000786
 10
621604.4433247834
 20
4829998.593299511
  0
LWPOLYLINE
  5
A7
330
17
100
AcDbEntity
  8
ROADS
100
AcDbPolyline
 90
2
 70
0
 10
621901.4619622006
 20
4830086.283033387
 10
621865.6797206947
 20
4829972.264513494
  0
LWPOLYLINE
  5
A8
330
17
100
AcDbEntity
  8
ROADS
100
AcDbPolyline
 90
2
 70
0
 10
621901.4619622006
 20
4830086.283033387
 10
621697.424272284
 20
4830027.120000786
  0
LWPOLYLINE
  5
A9
330
17
100
AcDbEntity
  8
ROADS
100
AcDbPolyline
 90
2
 70
0
 10
622018.4486672152
 20
4830053.194199164
 10
621901.4619622006
 20
4830086.283033387
  0
LWPOLYLINE
  5
AA
330
17
100
AcDbEntity
  8
ROADS
100
AcDbPolyline
 90
2
 70
0
 10
621697.424272284
 20
4830027.120000786
 10
621661.7893816472
 20
4830118.099472227
  0
LWPOLYLINE
  5
AB
330
17
100
AcDbEntity
  8
ROADS
100
AcDbPolyline
 90
2
 70
0
 10
621914.553374763
 20
4830120.121045306
 10
621901.4619622006
 20
4830086.283033387
  0
LWPOLYLINE
  5
AC
330
17
100
AcDbEntity
  8
ROADS
100
AcDbPolyline
 90
3
 70
0
 10
621914.553374763
 20
4830120.121045306
 10
621770.4927480299
 20
4830150.518371581
 10
621661.7893816472
 20
4830118.099472227
  0
LWPOLYLINE
  5
AD
330
17
100
AcDbEntity
  8
ROADS
100
AcDbPolyline
 90
2
 70
0
 10
621661.7893816472
 20
4830118.099472227
 10
621629.1368987692
 20
4830214.765050671
  0
LWPOLYLINE
  5
AE
330
17
100
AcDbEntity
  8
ROADS
100
AcDbPolyline
 90
2
 70
0
 10
621952.161703556
 20
4830218.5798661085
 10
621914.553374763
 20
4830120.121045306
  0
LWPOLYLINE
  5
AF
330
17
100
AcDbEntity
  8
ROADS
100
AcDbPolyline
 90
2
 70
0
 10
621902.7859564393
 20
4830230.066542735
 10
621884.0636369053
 20
4830179.047032345
  0
LWPOLYLINE
  5
B0
330
17
100
AcDbEntity
  8
ROADS
100
AcDbPolyline
 90
2
 70
0
 10
622013.4849863725
 20
4830032.032900909
 10
622034.893864618
 20
4830021.159834168
  0
LWPOLYLINE
  5
B1
330
17
100
AcDbEntity
  8
ROADS
100
AcDbPolyline
 90
2
 70
0
 10
622090.3539410557
 20
4830023.041887169
 10
622056.9958978301
 20
4830031.318760014
  0
LWPOLYLINE
  5
B2
330
17
100
AcDbEntity
  8
ROADS
100
AcDbPolyline
 90
2
 70
0
 10
622018.4486672152
 20
4830053.194199164
 10
622013.4849863725
 20
4830032.032900909
  0
LWPOLYLINE
  5
B3
330
17
100
AcDbEntity
  8
ROADS
100
AcDbPolyline
 90
2
 70
0
 10
622056.9958978301
 20
4830031.318760014
 10
622076.6470506825
 20
4830065.742294795
  0
LWPOLYLINE
  5
B4
330
17
100
AcDbEntity
  8
ROADS
100
AcDbPolyline
 90
2
 70
0
 10
622090.3539410557
 20
4830023.041887169
 10
622107.0140262269
 20
4830078.832393072
  0
LWPOLYLINE
  5
B5
330
17
100
AcDbEntity
  8
ROADS
100
AcDbPolyline
 90
3
 70
0
 10
622018.4486672152
 20
4830053.194199164
 10
622057.6436705944
 20
4830074.351453523
 10
622076.6470506825
 20
4830065.742294795
  0
LWPOLYLINE
  5
B6
330
17
100
AcDbEntity
  8
ROADS
100
AcDbPolyline
 90
2
 70
0
 10
622076.6470506825
 20
4830065.742294795
 10
622107.0140262269
 20
4830078.832393072
  0
LWPOLYLINE
  5
B7
330
17
100
AcDbEntity
  8
ROADS
100
AcDbPolyline
 90
3
 70
0
 10
622107.0140262269
 20
4830078.832393072
 10
622154.160971309
 20
4830089.36545645
 10
622161.726053023
 20
4830133.5611590585
  0
LWPOLYLINE
  5
B8
330
17
100
AcDbEntity
  8
ROADS
100
AcDbPolyline
 90
2
 70
0
 10
622161.726053023
 20
4830133.5611590585
 10
621952.161703556
 20
4830218.5798661085
  0
LWPOLYLINE
  5
B9
330
17
100
AcDbEntity
  8
ROADS
100
AcDbPolyline
 90
2
 70
0
 10
622210.9819042546
 20
4830320.990600507
 10
622161.726053023
 20
4830133.5611590585
  0
LWPOLYLINE
  5
BA
330
17
100
AcDbEntity
  8
ROADS
100
AcDbPolyline
 90
2
 70
0
 10
621629.1368987692
 20
4830214.765050671
 10
621623.7723569148
 20
4830231.279897371
  0
LWPOLYLINE
  5
BB
330
17
100
AcDbEntity
  8
ROADS
100
AcDbPolyline
 90
2
 70
0
 10
621952.161703556
 20
4830218.5798661085
 10
621902.7859564393
 20
4830230.066542735
  0
LWPOLYLINE
  5
BC
330
17
100
AcDbEntity
  8
ROADS
100
AcDbPolyline
 90
3
 70
0
 10
621750.7226447915
 20
4830250.792831883
 10
621702.6140779379
 20
4830207.6309106955
 10
621629.1368987692
 20
4830214.765050671
  0
LWPOLYLINE
  5
BD
330
17
100
AcDbEntity
  8
ROADS
100
AcDbPolyline
 90
2
 70
0
 10
621902.7859564393
 20
4830230.066542735
 10
621763.7488402943
 20
4830266.53783491
  0
LWPOLYLINE
  5
BE
330
17
100
AcDbEntity
  8
ROADS
100
AcDbPolyline
 90
3
 70
0
 10
621623.7723569148
 20
4830231.279897371
 10
621660.9149114845
 20
4830269.874530076
 10
621681.5241131489
 20
4830249.153850671
  0
LWPOLYLINE
  5
BF
330
17
100
AcDbEntity
  8
ROADS
100
AcDbPolyline
 90
2
 70
0
 10
621763.7488402943
 20
4830266.53783491
 10
621750.7226447915
 20
4830250.792831883
  0
LWPOLYLINE
  5
C0
330
17
100
AcDbEntity
  8
ROADS
100
AcDbPolyline
 90
2
 70
0
 10
621984.8798369344
 20
4830305.298837299
 10
621952.161703556
 20
4830218.5798661085
  0
LWPOLYLINE
  5
C1
330
17
100
AcDbEntity
  8
ROADS
100
AcDbPolyline
 90
2
 70
0
 10
621819.2052325117
 20
4830324.565172921
 10
621763.7488402943
 20
4830266.53783491
  0
LWPOLYLINE
  5
C2
330
17
100
AcDbEntity
  8
ROADS
100
AcDbPolyline
 90
2
 70
0
 10
621623.7723569148
 20
4830231.279897371
 10
621570.0776265359
 20
4830421.300561856
  0
LWPOLYLINE
  5
C3
330
17
100
AcDbEntity
  8
ROADS
100
AcDbPolyline
 90
2
 70
0
 10
621750.7226447915
 20
4830250.792831883
 10
621570.0776265359
 20
4830421.300561856
  0
LWPOLYLINE
  5
C4
330
17
100
AcDbEntity
  8
ROADS
100
AcDbPolyline
 90
2
 70
0
 10
621984.8798369344
 20
4830305.298837299
 10
621902.6048216012
 20
4830384.313347269
  0
LWPOLYLINE
  5
C5
330
17
100
AcDbEntity
  8
ROADS
100
AcDbPolyline
 90
2
 70
0
 10
621889.6367967201
 20
4830394.5790762715
 10
621819.2052325117
 20
4830324.565172921
  0
LWPOLYLINE
  5
C6
330
17
100
AcDbEntity
  8
ROADS
100
AcDbPolyline
 90
2
 70
0
 10
621902.6048216012
 20
4830384.313347269
 10
621889.6367967201
 20
4830394.5790762715
  0
LWPOLYLINE
  5
C7
330
17
100
AcDbEntity
  8
ROADS
100
AcDbPolyline
 90
2
 70
0
 10
621819.2052325117
 20
4830324.565172921
 10
621603.4557841792
 20
4830532.539481312
  0
LWPOLYLINE
  5
C8
330
17
100
AcDbEntity
  8
ROADS
100
AcDbPolyline
 90
2
 70
0
 10
621961.2956686843
 20
4830514.34846993
 10
621902.6048216012
 20
4830384.313347269
  0
LWPOLYLINE
  5
C9
330
17
100
AcDbEntity
  8
ROADS
100
AcDbPolyline
 90
2
 70
0
 10
622053.4881084678
 20
4830480.8452258995
 10
621961.2956686843
 20
4830514.34846993
  0
LWPOLYLINE
  5
CA
330
17
100
AcDbEntity
  8
ROADS
100
AcDbPolyline
 90
2
 70
0
 10
621889.6367967201
 20
4830394.5790762715
 10
621673.8517872114
 20
4830605.181361323
  0
LWPOLYLINE
  5
CB
330
17
100
AcDbEntity
  8
ROADS
100
AcDbPolyline
 90
2
 70
0
 10
621961.2956686843
 20
4830514.34846993
 10
621861.7413766398
 20
4830554.580022273
  0
LWPOLYLINE
  5
CC
330
17
100
AcDbEntity
  8
ROADS
100
AcDbPolyline
 90
2
 70
0
 10
621620.9665708194
 20
4830550.753107394
 10
621603.4557841792
 20
4830532.539481312
  0
LWPOLYLINE
  5
CD
330
17
100
AcDbEntity
  8
ROADS
100
AcDbPolyline
 90
2
 70
0
 10
621673.8517872114
 20
4830605.181361323
 10
621620.9665708194
 20
4830550.753107394
  0
LWPOLYLINE
  5
CE
330
17
100
AcDbEntity
  8
ROADS
100
AcDbPolyline
 90
2
 70
0
 10
620481.2486457461
 20
4829508.489554394
 10
620432.7886467254
 20
4829738.816702876
  0
LWPOLYLINE
  5
CF
330
17
100
AcDbEntity
  8
ROADS
100
AcDbPolyline
 90
2
 70
0
 10
620465.9840842568
 20
4829973.2344968505
 10
620437.1660882788
 20
4830075.648239936
  0
LWPOLYLINE
  5
D0
330
17
100
AcDbEntity
  8
ROADS
100
AcDbPolyline
 90
2
 70
0
 10
620455.1814889845
 20
4830082.42191865
 10
620437.1660882788
 20
4830075.648239936
  0
LWPOLYLINE
  5
D1
330
17
100
AcDbEntity
  8
ROADS
100
AcDbPolyline
 90
2
 70
0
 10
620695.1269357518
 20
4830155.203934009
 10
620455.1814889845
 20
4830082.42191865
  0
LWPOLYLINE
  5
D2
330
17
100
AcDbEntity
  8
ROADS
100
AcDbPolyline
 90
2
 70
0
 10
620455.1814889845
 20
4830082.42191865
 10
620425.9237585185
 20
4830170.645118434
  0
LWPOLYLINE
  5
D3
330
17
100
AcDbEntity
  8
ROADS
100
AcDbPolyline
 90
2
 70
0
 10
620784.4573823228
 20
4830184.288692799
 10
620695.1269357518
 20
4830155.203934009
  0
LWPOLYLINE
  5
D4
330
17
100
AcDbEntity
  8
ROADS
100
AcDbPolyline
 90
2
 70
0
 10
620695.1269357518
 20
4830155.203934009
 10
620665.3880669039
 20
4830246.808643251
  0
LWPOLYLINE
  5
D5
330
17
100
AcDbEntity
  8
ROADS
100
AcDbPolyline
 90
2
 70
0
 10
620665.3880669039
 20
4830246.808643251
 10
620425.9237585185
 20
4830170.645118434
  0
LWPOLYLINE
  5
D6
330
17
100
AcDbEntity
  8
ROADS
100
AcDbPolyline
 90
2
 70
0
 10
620665.3880669039
 20
4830246.808643251
 10
620636.1856705176
 20
4830339.43907012
  0
LWPOLYLINE
  5
D7
330
17
100
AcDbEntity
  8
ROADS
100
AcDbPolyline
 90
2
 70
0
 10
620992.1270209559
 20
4829537.180802704
 10
620961.9495916505
 20
4829627.494668849
  0
LWPOLYLINE
  5
D8
330
17
100
AcDbEntity
  8
ROADS
100
AcDbPolyline
 90
2
 70
0
 10
620961.9495916505
 20
4829627.494668849
 10
620930.19036624
 20
4829725.322272895
  0
LWPOLYLINE
  5
D9
330
17
100
AcDbEntity
  8
ROADS
100
AcDbPolyline
 90
2
 70
0
 10
621353.9218214377
 20
4829755.7196689
 10
620961.9495916505
 20
4829627.494668849
  0
LWPOLYLINE
  5
DA
330
17
100
AcDbEntity
  8
ROADS
100
AcDbPolyline
 90
2
 70
0
 10
621322.3040630443
 20
4829854.458971697
 10
620930.19036624
 20
4829725.322272895
  0
LWPOLYLINE
  5
DB
330
17
100
AcDbEntity
  8
ROADS
100
AcDbPolyline
 90
4
 70
0
 10
620930.19036624
 20
4829725.322272895
 10
620910.9819670725
 20
4829801.262605432
 10
621002.2736400502
 20
4829908.909101322
 10
621080.8969139007
 20
4829939.367488944
  0
LWPOLYLINE
  5
DC
330
17
100
AcDbEntity
  8
ROADS
100
AcDbPolyline
 90
2
 70
0
 10
621080.8969139007
 20
4829939.367488944
 10
621064.403522412
 20
4829999.144181783
  0
LWPOLYLINE
  5
DD
330
17
100
AcDbEntity
  8
ROADS
100
AcDbPolyline
 90
2
 70
0
 10
620881.2547704392
 20
4830216.274463002
 10
620784.4573823228
 20
4830184.288692799
  0
LWPOLYLINE
  5
DE
330
17
100
AcDbEntity
  8
ROADS
100
AcDbPolyline
 90
2
 70
0
 10
620979.9838823994
 20
4830250.219227739
 10
620881.2547704392
 20
4830216.274463002
  0
LWPOLYLINE
  5
DF
330
17
100
AcDbEntity
  8
ROADS
100
AcDbPolyline
 90
3
 70
0
 10
621164.9501609029
 20
4830342.605245555
 10
621060.65881408
 20
4830279.038681409
 10
620979.9838823994
 20
4830250.219227739
  0
LWPOLYLINE
  5
E0
330
17
100
AcDbEntity
  8
ROADS
100
AcDbPolyline
 90
2
 70
0
 10
620979.9838823994
 20
4830250.219227739
 10
620923.1687343655
 20
4830424.648488496
  0
LWPOLYLINE
  5
E1
330
17
100
AcDbEntity
  8
ROADS
100
AcDbPolyline
 90
2
 70
0
 10
621440.8687060277
 20
4829947.784573592
 10
621408.3885402184
 20
4829937.360462679
  0
LWPOLYLINE
  5
E2
330
17
100
AcDbEntity
  8
ROADS
100
AcDbPolyline
 90
2
 70
0
 10
621305.5419610481
 20
4829906.24650613
 10
621274.4255647598
 20
4830002.91624575
  0
LWPOLYLINE
  5
E3
330
17
100
AcDbEntity
  8
ROADS
100
AcDbPolyline
 90
2
 70
0
 10
621577.7461640112
 20
4829990.341728162
 10
621440.8687060277
 20
4829947.784573592
  0
LWPOLYLINE
  5
E4
330
17
100
AcDbEntity
  8
ROADS
100
AcDbPolyline
 90
2
 70
0
 10
621274.4255647598
 20
4830002.91624575
 10
621080.8969139007
 20
4829939.367488944
  0
LWPOLYLINE
  5
E5
330
17
100
AcDbEntity
  8
ROADS
100
AcDbPolyline
 90
2
 70
0
 10
621440.8687060277
 20
4829947.784573592
 10
621366.0696144935
 20
4830178.863800772
  0
LWPOLYLINE
  5
E6
330
17
100
AcDbEntity
  8
ROADS
100
AcDbPolyline
 90
2
 70
0
 10
621274.4255647598
 20
4830002.91624575
 10
621231.886249137
 20
4830137.255297358
  0
LWPOLYLINE
  5
E7
330
17
100
AcDbEntity
  8
ROADS
100
AcDbPolyline
 90
2
 70
0
 10
621577.7461640112
 20
4829990.341728162
 10
621501.328551054
 20
4830222.549856947
  0
LWPOLYLINE
  5
E8
330
17
100
AcDbEntity
  8
ROADS
100
AcDbPolyline
 90
2
 70
0
 10
621280.3847625322
 20
4830151.351913057
 10
621231.886249137
 20
4830137.255297358
  0
LWPOLYLINE
  5
E9
330
17
100
AcDbEntity
  8
ROADS
100
AcDbPolyline
 90
2
 70
0
 10
621366.0696144935
 20
4830178.863800772
 10
621280.3847625322
 20
4830151.351913057
  0
LWPOLYLINE
  5
EA
330
17
100
AcDbEntity
  8
ROADS
100
AcDbPolyline
 90
2
 70
0
 10
621231.886249137
 20
4830137.255297358
 10
621205.4515909939
 20
4830217.44933825
  0
LWPOLYLINE
  5
EB
330
17
100
AcDbEntity
  8
ROADS
100
AcDbPolyline
 90
2
 70
0
 10
621280.3847625322
 20
4830151.351913057
 10
621254.0179619304
 20
4830232.7162416475
  0
LWPOLYLINE
  5
EC
330
17
100
AcDbEntity
  8
ROADS
100
AcDbPolyline
 90
2
 70
0
 10
621501.328551054
 20
4830222.549856947
 10
621366.0696144935
 20
4830178.863800772
  0
LWPOLYLINE
  5
ED
330
17
100
AcDbEntity
  8
ROADS
100
AcDbPolyline
 90
2
 70
0
 10
621629.1368987692
 20
4830214.765050671
 10
621501.328551054
 20
4830222.549856947
  0
LWPOLYLINE
  5
EE
330
17
100
AcDbEntity
  8
ROADS
100
AcDbPolyline
 90
2
 70
0
 10
621254.0179619304
 20
4830232.7162416475
 10
621205.4515909939
 20
4830217.44933825
  0
LWPOLYLINE
  5
EF
330
17
100
AcDbEntity
  8
ROADS
100
AcDbPolyline
 90
2
 70
0
 10
621205.4515909939
 20
4830217.44933825
 10
621183.0206557933
 20
4830289.8613448925
  0
LWPOLYLINE
  5
F0
330
17
100
AcDbEntity
  8
ROADS
100
AcDbPolyline
 90
3
 70
0
 10
621413.5648462229
 20
4830338.301761776
 10
621335.2466484613
 20
4830266.370929363
 10
621254.0179619304
 20
4830232.7162416475
  0
LWPOLYLINE
  5
F1
330
17
100
AcDbEntity
  8
ROADS
100
AcDbPolyline
 90
2
 70
0
 10
621501.328551054
 20
4830222.549856947
 10
621448.0726405939
 20
4830371.504550998
  0
LWPOLYLINE
  5
F2
330
17
100
AcDbEntity
  8
ROADS
100
AcDbPolyline
 90
2
 70
0
 10
621183.0206557933
 20
4830289.8613448925
 10
621164.9501609029
 20
4830342.605245555
  0
LWPOLYLINE
  5
F3
330
17
100
AcDbEntity
  8
ROADS
100
AcDbPolyline
 90
2
 70
0
 10
621448.0726405939
 20
4830371.504550998
 10
621413.5648462229
 20
4830338.301761776
  0
LWPOLYLINE
  5
F4
330
17
100
AcDbEntity
  8
ROADS
100
AcDbPolyline
 90
2
 70
0
 10
621533.3936810766
 20
4830460.014668339
 10
621448.0726405939
 20
4830371.504550998
  0
LWPOLYLINE
  5
F5
330
17
100
AcDbEntity
  8
ROADS
100
AcDbPolyline
 90
2
 70
0
 10
620881.2547704392
 20
4830216.274463002
 10
620793.968784694
 20
4830490.108512955
  0
LWPOLYLINE
  5
F6
330
17
100
AcDbEntity
  8
ROADS
100
AcDbPolyline
 90
2
 70
0
 10
621164.9501609029
 20
4830342.605245555
 10
621117.9167337157
 20
4830488.171022809
  0
LWPOLYLINE
  5
F7
330
17
100
AcDbEntity
  8
ROADS
100
AcDbPolyline
 90
2
 70
0
 10
621022.1933466091
 20
4830456.68357398
 10
621040.0691795433
 20
4830400.544038424
  0
LWPOLYLINE
  5
F8
330
17
100
AcDbEntity
  8
ROADS
100
AcDbPolyline
 90
2
 70
0
 10
621022.1933466091
 20
4830456.68357398
 10
620923.1687343655
 20
4830424.648488496
  0
LWPOLYLINE
  5
F9
330
17
100
AcDbEntity
  8
ROADS
100
AcDbPolyline
 90
2
 70
0
 10
621117.9167337157
 20
4830488.171022809
 10
621022.1933466091
 20
4830456.68357398
  0
LWPOLYLINE
  5
FA
330
17
100
AcDbEntity
  8
ROADS
100
AcDbPolyline
 90
2
 70
0
 10
620923.1687343655
 20
4830424.648488496
 10
620892.1356472083
 20
4830521.793097244
  0
LWPOLYLINE
  5
FB
330
17
100
AcDbEntity
  8
ROADS
100
AcDbPolyline
 90
2
 70
0
 10
621151.6653711796
 20
4830500.34116791
 10
621162.8749438886
 20
4830470.220335119
  0
LWPOLYLINE
  5
FC
330
17
100
AcDbEntity
  8
ROADS
100
AcDbPolyline
 90
2
 70
0
 10
621151.6653711796
 20
4830500.34116791
 10
621117.9167337157
 20
4830488.171022809
  0
LWPOLYLINE
  5
FD
330
17
100
AcDbEntity
  8
ROADS
100
AcDbPolyline
 90
2
 70
0
 10
620892.1356472083
 20
4830521.793097244
 10
620838.4491080269
 20
4830504.700101491
  0
LWPOLYLINE
  5
FE
330
17
100
AcDbEntity
  8
ROADS
100
AcDbPolyline
 90
2
 70
0
 10
621117.9167337157
 20
4830488.171022809
 10
621086.0477305742
 20
4830586.635640364
  0
LWPOLYLINE
  5
FF
330
17
100
AcDbEntity
  8
ROADS
100
AcDbPolyline
 90
2
 70
0
 10
621570.0776265359
 20
4830421.300561856
 10
621533.3936810766
 20
4830460.014668339
  0
LWPOLYLINE
  5
100
330
17
100
AcDbEntity
  8
ROADS
100
AcDbPolyline
 90
2
 70
0
 10
621162.8749438886
 20
4830470.220335119
 10
621171.5692358391
 20
4830443.541216721
  0
LWPOLYLINE
  5
101
330
17
100
AcDbEntity
  8
ROADS
100
AcDbPolyline
 90
2
 70
0
 10
621210.9516269539
 20
4830486.796485432
 10
621219.4467970595
 20
4830460.123767091
  0
LWPOLYLINE
  5
102
330
17
100
AcDbEntity
  8
ROADS
100
AcDbPolyline
 90
2
 70
0
 10
621266.3658630706
 20
4830422.588627873
 10
621232.5516031448
 20
4830527.263429603
  0
LWPOLYLINE
  5
103
330
17
100
AcDbEntity
  8
ROADS
100
AcDbPolyline
 90
2
 70
0
 10
621210.9516269539
 20
4830486.796485432
 10
621162.8749438886
 20
4830470.220335119
  0
LWPOLYLINE
  5
104
330
17
100
AcDbEntity
  8
ROADS
100
AcDbPolyline
 90
3
 70
0
 10
621413.5648462229
 20
4830338.301761776
 10
621353.1000797092
 20
4830409.5017426945
 10
621547.2086002217
 20
4830618.771327881
  0
LWPOLYLINE
  5
105
330
17
100
AcDbEntity
  8
ROADS
100
AcDbPolyline
 90
2
 70
0
 10
621603.4557841792
 20
4830532.539481312
 10
621533.3936810766
 20
4830460.014668339
  0
LWPOLYLINE
  5
106
330
17
100
AcDbEntity
  8
ROADS
100
AcDbPolyline
 90
2
 70
0
 10
621200.9914927861
 20
4830516.1208563205
 10
621210.9516269539
 20
4830486.796485432
  0
LWPOLYLINE
  5
107
330
17
100
AcDbEntity
  8
ROADS
100
AcDbPolyline
 90
2
 70
0
 10
621200.9914927861
 20
4830516.1208563205
 10
621151.6653711796
 20
4830500.34116791
  0
LWPOLYLINE
  5
108
330
17
100
AcDbEntity
  8
ROADS
100
AcDbPolyline
 90
2
 70
0
 10
621232.5516031448
 20
4830527.263429603
 10
621200.9914927861
 20
4830516.1208563205
  0
LWPOLYLINE
  5
109
330
17
100
AcDbEntity
  8
ROADS
100
AcDbPolyline
 90
2
 70
0
 10
621040.1332701326
 20
4830570.662565181
 10
620892.1356472083
 20
4830521.793097244
  0
LWPOLYLINE
  5
10A
330
17
100
AcDbEntity
  8
ROADS
100
AcDbPolyline
 90
2
 70
0
 10
620838.4491080269
 20
4830504.700101491
 10
620808.4711189742
 20
4830597.246041546
  0
LWPOLYLINE
  5
10B
330
17
100
AcDbEntity
  8
ROADS
100
AcDbPolyline
 90
2
 70
0
 10
621086.0477305742
 20
4830586.635640364
 10
621040.1332701326
 20
4830570.662565181
  0
LWPOLYLINE
  5
10C
330
17
100
AcDbEntity
  8
ROADS
100
AcDbPolyline
 90
2
 70
0
 10
621040.1332701326
 20
4830570.662565181
 10
621010.9829449449
 20
4830662.119959348
  0
LWPOLYLINE
  5
10D
330
17
100
AcDbEntity
  8
ROADS
100
AcDbPolyline
 90
2
 70
0
 10
621086.0477305742
 20
4830586.635640364
 10
621062.071222567
 20
4830661.56278799
  0
LWPOLYLINE
  5
10E
330
17
100
AcDbEntity
  8
ROADS
100
AcDbPolyline
 90
2
 70
0
 10
621010.9829449449
 20
4830662.119959348
 10
620808.4711189742
 20
4830597.246041546
  0
LWPOLYLINE
  5
10F
330
17
100
AcDbEntity
  8
ROADS
100
AcDbPolyline
 90
2
 70
0
 10
621062.071222567
 20
4830661.56278799
 10
621056.875197077
 20
4830677.107601872
  0
LWPOLYLINE
  5
110
330
17
100
AcDbEntity
  8
ROADS
100
AcDbPolyline
 90
2
 70
0
 10
621056.875197077
 20
4830677.107601872
 10
621010.9829449449
 20
4830662.119959348
  0
LWPOLYLINE
  5
111
330
17
100
AcDbEntity
  8
ROADS
100
AcDbPolyline
 90
2
 70
0
 10
621177.8208066511
 20
4830698.623295501
 10
621062.071222567
 20
4830661.56278799
  0
LWPOLYLINE
  5
112
330
17
100
AcDbEntity
  8
ROADS
100
AcDbPolyline
 90
2
 70
0
 10
621056.875197077
 20
4830677.107601872
 10
621032.8745685024
 20
4830751.09926063
  0
LWPOLYLINE
  5
113
330
17
100
AcDbEntity
  8
ROADS
100
AcDbPolyline
 90
2
 70
0
 10
620787.2571862907
 20
4830590.770563656
 10
620581.5343800614
 20
4830524.787681858
  0
LWPOLYLINE
  5
114
330
17
100
AcDbEntity
  8
ROADS
100
AcDbPolyline
 90
2
 70
0
 10
620547.5203798544
 20
4830513.802810152
 10
620512.4867612055
 20
4830618.884368575
  0
LWPOLYLINE
  5
115
330
17
100
AcDbEntity
  8
ROADS
100
AcDbPolyline
 90
2
 70
0
 10
620808.4711189742
 20
4830597.246041546
 10
620787.2571862907
 20
4830590.770563656
  0
LWPOLYLINE
  5
116
330
17
100
AcDbEntity
  8
ROADS
100
AcDbPolyline
 90
2
 70
0
 10
620787.2571862907
 20
4830590.770563656
 10
620753.300348467
 20
4830695.476624974
  0
LWPOLYLINE
  5
117
330
17
100
AcDbEntity
  8
ROADS
100
AcDbPolyline
 90
2
 70
0
 10
620753.300348467
 20
4830695.476624974
 10
620512.4867612055
 20
4830618.884368575
  0
LWPOLYLINE
  5
118
330
17
100
AcDbEntity
  8
ROADS
100
AcDbPolyline
 90
2
 70
0
 10
620512.4867612055
 20
4830618.884368575
 10
620483.67109898
 20
4830709.089607444
  0
LWPOLYLINE
  5
119
330
17
100
AcDbEntity
  8
ROADS
100
AcDbPolyline
 90
2
 70
0
 10
620556.2571088474
 20
4830732.396781317
 10
620483.67109898
 20
4830709.089607444
  0
LWPOLYLINE
  5
11A
330
17
100
AcDbEntity
  8
ROADS
100
AcDbPolyline
 90
2
 70
0
 10
620753.300348467
 20
4830695.476624974
 10
620724.91526982
 20
4830785.70370181
  0
LWPOLYLINE
  5
11B
330
17
100
AcDbEntity
  8
ROADS
100
AcDbPolyline
 90
2
 70
0
 10
620630.6009467083
 20
4830755.773721676
 10
620556.2571088474
 20
4830732.396781317
  0
LWPOLYLINE
  5
11C
330
17
100
AcDbEntity
  8
ROADS
100
AcDbPolyline
 90
2
 70
0
 10
620454.0012527225
 20
4830752.690462818
 10
620448.7121941166
 20
4830768.8460918795
  0
LWPOLYLINE
  5
11D
330
17
100
AcDbEntity
  8
ROADS
100
AcDbPolyline
 90
2
 70
0
 10
621365.7951364852
 20
4830569.522141869
 10
621232.5516031448
 20
4830527.263429603
  0
LWPOLYLINE
  5
11E
330
17
100
AcDbEntity
  8
ROADS
100
AcDbPolyline
 90
2
 70
0
 10
621232.5516031448
 20
4830527.263429603
 10
621177.8208066511
 20
4830698.623295501
  0
LWPOLYLINE
  5
11F
330
17
100
AcDbEntity
  8
ROADS
100
AcDbPolyline
 90
2
 70
0
 10
621547.2086002217
 20
4830618.771327881
 10
621561.4275704919
 20
4830632.592795782
  0
LWPOLYLINE
  5
120
330
17
100
AcDbEntity
  8
ROADS
100
AcDbPolyline
 90
2
 70
0
 10
621365.7951364852
 20
4830569.522141869
 10
621308.6269743815
 20
4830740.285014474
  0
LWPOLYLINE
  5
121
330
17
100
AcDbEntity
  8
ROADS
100
AcDbPolyline
 90
3
 70
0
 10
621365.7951364852
 20
4830569.522141869
 10
621489.7947207133
 20
4830618.899224718
 10
621447.265683666
 20
4830785.149396497
  0
LWPOLYLINE
  5
122
330
17
100
AcDbEntity
  8
ROADS
100
AcDbPolyline
 90
2
 70
0
 10
621308.6269743815
 20
4830740.285014474
 10
621177.8208066511
 20
4830698.623295501
  0
LWPOLYLINE
  5
123
330
17
100
AcDbEntity
  8
ROADS
100
AcDbPolyline
 90
2
 70
0
 10
621447.265683666
 20
4830785.149396497
 10
621308.6269743815
 20
4830740.285014474
  0
LWPOLYLINE
  5
124
330
17
100
AcDbEntity
  8
ROADS
100
AcDbPolyline
 90
2
 70
0
 10
621308.6269743815
 20
4830740.285014474
 10
621277.9782975748
 20
4830832.529436157
  0
LWPOLYLINE
  5
125
330
17
100
AcDbEntity
  8
ROADS
100
AcDbPolyline
 90
2
 70
0
 10
621501.0412295777
 20
4830803.907648885
 10
621447.265683666
 20
4830785.149396497
  0
LWPOLYLINE
  5
126
330
17
100
AcDbEntity
  8
ROADS
100
AcDbPolyline
 90
2
 70
0
 10
621501.0412295777
 20
4830803.907648885
 10
621471.4703434965
 20
4830895.721568855
  0
LWPOLYLINE
  5
127
330
17
100
AcDbEntity
  8
ROADS
100
AcDbPolyline
 90
2
 70
0
 10
621010.9829449449
 20
4830662.119959348
 10
620977.1395331421
 20
4830767.2431509625
  0
LWPOLYLINE
  5
128
330
17
100
AcDbEntity
  8
ROADS
100
AcDbPolyline
 90
2
 70
0
 10
620977.1395331421
 20
4830767.2431509625
 10
620753.300348467
 20
4830695.476624974
  0
LWPOLYLINE
  5
129
330
17
100
AcDbEntity
  8
ROADS
100
AcDbPolyline
 90
2
 70
0
 10
621032.8745685024
 20
4830751.09926063
 10
621023.1170785752
 20
4830781.6053202
  0
LWPOLYLINE
  5
12A
330
17
100
AcDbEntity
  8
ROADS
100
AcDbPolyline
 90
2
 70
0
 10
621023.1170785752
 20
4830781.6053202
 10
620977.1395331421
 20
4830767.2431509625
  0
LWPOLYLINE
  5
12B
330
17
100
AcDbEntity
  8
ROADS
100
AcDbPolyline
 90
2
 70
0
 10
621277.9782975748
 20
4830832.529436157
 10
621032.8745685024
 20
4830751.09926063
  0
LWPOLYLINE
  5
12C
330
17
100
AcDbEntity
  8
ROADS
100
AcDbPolyline
 90
2
 70
0
 10
620977.1395331421
 20
4830767.2431509625
 10
620947.1641721325
 20
4830858.033579203
  0
LWPOLYLINE
  5
12D
330
17
100
AcDbEntity
  8
ROADS
100
AcDbPolyline
 90
2
 70
0
 10
621023.1170785752
 20
4830781.6053202
 10
621002.061985434
 20
4830844.335687178
  0
LWPOLYLINE
  5
12E
330
17
100
AcDbEntity
  8
ROADS
100
AcDbPolyline
 90
2
 70
0
 10
620901.3422512049
 20
4830842.586167197
 10
620813.1148559286
 20
4830815.329226563
  0
LWPOLYLINE
  5
12F
330
17
100
AcDbEntity
  8
ROADS
100
AcDbPolyline
 90
2
 70
0
 10
620947.1641721325
 20
4830858.033579203
 10
620901.3422512049
 20
4830842.586167197
  0
LWPOLYLINE
  5
130
330
17
100
AcDbEntity
  8
ROADS
100
AcDbPolyline
 90
2
 70
0
 10
621002.061985434
 20
4830844.335687178
 10
620992.6908983903
 20
4830873.380658459
  0
LWPOLYLINE
  5
131
330
17
100
AcDbEntity
  8
ROADS
100
AcDbPolyline
 90
2
 70
0
 10
622053.4881084678
 20
4830480.8452258995
 10
621984.8798369344
 20
4830305.298837299
  0
LWPOLYLINE
  5
132
330
17
100
AcDbEntity
  8
ROADS
100
AcDbPolyline
 90
3
 70
0
 10
622210.9819042546
 20
4830320.990600507
 10
622258.8057026303
 20
4830483.8890793305
 10
622295.8497607101
 20
4830526.276876368
  0
LWPOLYLINE
  5
133
330
17
100
AcDbEntity
  8
ROADS
100
AcDbPolyline
 90
4
 70
0
 10
622292.4640633748
 20
4830559.938771707
 10
622234.2271290863
 20
4830485.5731883515
 10
622204.1001803452
 20
4830374.049779167
 10
622210.9819042546
 20
4830320.990600507
  0
LWPOLYLINE
  5
134
330
17
100
AcDbEntity
  8
ROADS
100
AcDbPolyline
 90
2
 70
0
 10
622087.6727895373
 20
4830571.907942628
 10
622053.4881084678
 20
4830480.8452258995
  0
LWPOLYLINE
  5
135
330
17
100
AcDbEntity
  8
ROADS
100
AcDbPolyline
 90
2
 70
0
 10
622087.6727895373
 20
4830571.907942628
 10
621928.0979070051
 20
4830632.11221873
  0
LWPOLYLINE
  5
136
330
17
100
AcDbEntity
  8
ROADS
100
AcDbPolyline
 90
2
 70
0
 10
622120.5830718247
 20
4830662.268625059
 10
622087.6727895373
 20
4830571.907942628
  0
LWPOLYLINE
  5
137
330
17
100
AcDbEntity
  8
ROADS
100
AcDbPolyline
 90
2
 70
0
 10
622120.5830718247
 20
4830662.268625059
 10
621993.7430328485
 20
4830708.474541123
  0
LWPOLYLINE
  5
138
330
17
100
AcDbEntity
  8
ROADS
100
AcDbPolyline
 90
2
 70
0
 10
621620.9665708194
 20
4830550.753107394
 10
621547.2086002217
 20
4830618.771327881
  0
LWPOLYLINE
  5
139
330
17
100
AcDbEntity
  8
ROADS
100
AcDbPolyline
 90
2
 70
0
 10
621861.7413766398
 20
4830554.580022273
 10
621787.8106859963
 20
4830623.243701085
  0
LWPOLYLINE
  5
13A
330
17
100
AcDbEntity
  8
ROADS
100
AcDbPolyline
 90
2
 70
0
 10
621928.0979070051
 20
4830632.11221873
 10
621861.7413766398
 20
4830554.580022273
  0
LWPOLYLINE
  5
13B
330
17
100
AcDbEntity
  8
ROADS
100
AcDbPolyline
 90
2
 70
0
 10
621736.0382608266
 20
4830669.3065890735
 10
621673.8517872114
 20
4830605.181361323
  0
LWPOLYLINE
  5
13C
330
17
100
AcDbEntity
  8
ROADS
100
AcDbPolyline
 90
2
 70
0
 10
621787.8106859963
 20
4830623.243701085
 10
621736.0382608266
 20
4830669.3065890735
  0
LWPOLYLINE
  5
13D
330
17
100
AcDbEntity
  8
ROADS
100
AcDbPolyline
 90
2
 70
0
 10
621959.8149092557
 20
4830669.006846233
 10
621928.0979070051
 20
4830632.11221873
  0
LWPOLYLINE
  5
13E
330
17
100
AcDbEntity
  8
ROADS
100
AcDbPolyline
 90
2
 70
0
 10
621959.8149092557
 20
4830669.006846233
 10
621964.1940968232
 20
4830646.088895221
  0
LWPOLYLINE
  5
13F
330
17
100
AcDbEntity
  8
ROADS
100
AcDbPolyline
 90
2
 70
0
 10
621993.7430328485
 20
4830708.474541123
 10
621959.8149092557
 20
4830669.006846233
  0
LWPOLYLINE
  5
140
330
17
100
AcDbEntity
  8
ROADS
100
AcDbPolyline
 90
3
 70
0
 10
621724.1943279216
 20
4830781.595736056
 10
621828.8253592016
 20
4830682.987307815
 10
621787.8106859963
 20
4830623.243701085
  0
LWPOLYLINE
  5
141
330
17
100
AcDbEntity
  8
ROADS
100
AcDbPolyline
 90
3
 70
0
 10
621736.0382608266
 20
4830669.3065890735
 10
621677.9506864744
 20
4830729.257014037
 10
621724.1943279216
 20
4830781.595736056
  0
LWPOLYLINE
  5
142
330
17
100
AcDbEntity
  8
ROADS
100
AcDbPolyline
 90
2
 70
0
 10
622264.8940456009
 20
4830695.086840757
 10
622163.4985291886
 20
4830738.140383736
  0
LWPOLYLINE
  5
143
330
17
100
AcDbEntity
  8
ROADS
100
AcDbPolyline
 90
2
 70
0
 10
622163.4985291886
 20
4830738.140383736
 10
622120.5830718247
 20
4830662.268625059
  0
LWPOLYLINE
  5
144
330
17
100
AcDbEntity
  8
ROADS
100
AcDbPolyline
 90
2
 70
0
 10
622045.937937332
 20
4830770.421258152
 10
621993.7430328485
 20
4830708.474541123
  0
LWPOLYLINE
  5
145
330
17
100
AcDbEntity
  8
ROADS
100
AcDbPolyline
 90
2
 70
0
 10
622193.0133477931
 20
4830763.082707354
 10
622163.4985291886
 20
4830738.140383736
  0
LWPOLYLINE
  5
146
330
17
100
AcDbEntity
  8
ROADS
100
AcDbPolyline
 90
2
 70
0
 10
622236.8858140722
 20
4830781.7714453265
 10
622193.0133477931
 20
4830763.082707354
  0
LWPOLYLINE
  5
147
330
17
100
AcDbEntity
  8
ROADS
100
AcDbPolyline
 90
2
 70
0
 10
622193.0133477931
 20
4830763.082707354
 10
622135.8135147633
 20
4830796.361993016
  0
LWPOLYLINE
  5
148
330
17
100
AcDbEntity
  8
ROADS
100
AcDbPolyline
 90
2
 70
0
 10
622135.8135147633
 20
4830796.361993016
 10
622074.7778234946
 20
4830833.997177196
  0
LWPOLYLINE
  5
149
330
17
100
AcDbEntity
  8
ROADS
100
AcDbPolyline
 90
2
 70
0
 10
622135.8135147633
 20
4830796.361993016
 10
622179.5884227939
 20
4830845.195034731
  0
LWPOLYLINE
  5
14A
330
17
100
AcDbEntity
  8
ROADS
100
AcDbPolyline
 90
2
 70
0
 10
622074.7778234946
 20
4830833.997177196
 10
622128.7787538433
 20
4830892.431390253
  0
LWPOLYLINE
  5
14B
330
17
100
AcDbEntity
  8
ROADS
100
AcDbPolyline
 90
2
 70
0
 10
622074.7778234946
 20
4830833.997177196
 10
622005.4968862298
 20
4830899.74670093
  0
LWPOLYLINE
  5
14C
330
17
100
AcDbEntity
  8
ROADS
100
AcDbPolyline
 90
2
 70
0
 10
622193.3997634404
 20
4830879.895494157
 10
622146.5953026182
 20
4830903.573757147
  0
LWPOLYLINE
  5
14D
330
17
100
AcDbEntity
  8
ROADS
100
AcDbPolyline
 90
2
 70
0
 10
622170.5786261071
 20
4830922.027800292
 10
622140.3732380837
 20
4830930.132596454
  0
LWPOLYLINE
  5
14E
330
17
100
AcDbEntity
  8
ROADS
100
AcDbPolyline
 90
3
 70
0
 10
622019.4377854133
 20
4831009.338606455
 10
622061.0414596666
 20
4830958.424809687
 10
622005.4968862298
 20
4830899.74670093
  0
LWPOLYLINE
  5
14F
330
17
100
AcDbEntity
  8
ROADS
100
AcDbPolyline
 90
2
 70
0
 10
622143.4275517868
 20
4830967.323006934
 10
622135.4925815237
 20
4830969.570267175
  0
LWPOLYLINE
  5
150
330
17
100
AcDbEntity
  8
ROADS
100
AcDbPolyline
 90
2
 70
0
 10
620556.2571088474
 20
4830732.396781317
 10
620535.4438813566
 20
4830796.576493241
  0
LWPOLYLINE
  5
151
330
17
100
AcDbEntity
  8
ROADS
100
AcDbPolyline
 90
2
 70
0
 10
620724.91526982
 20
4830785.70370181
 10
620630.6009467083
 20
4830755.773721676
  0
LWPOLYLINE
  5
152
330
17
100
AcDbEntity
  8
ROADS
100
AcDbPolyline
 90
2
 70
0
 10
620481.4832822729
 20
4830779.324013093
 10
620448.7121941166
 20
4830768.8460918795
  0
LWPOLYLINE
  5
153
330
17
100
AcDbEntity
  8
ROADS
100
AcDbPolyline
 90
2
 70
0
 10
620535.4438813566
 20
4830796.576493241
 10
620481.4832822729
 20
4830779.324013093
  0
LWPOLYLINE
  5
154
330
17
100
AcDbEntity
  8
ROADS
100
AcDbPolyline
 90
2
 70
0
 10
620813.1148559286
 20
4830815.329226563
 10
620724.91526982
 20
4830785.70370181
  0
LWPOLYLINE
  5
155
330
17
100
AcDbEntity
  8
ROADS
100
AcDbPolyline
 90
2
 70
0
 10
620630.6009467083
 20
4830755.773721676
 10
620591.8384970413
 20
4830878.048645071
  0
LWPOLYLINE
  5
156
330
17
100
AcDbEntity
  8
ROADS
100
AcDbPolyline
 90
2
 70
0
 10
620448.7121941166
 20
4830768.8460918795
 10
620416.9161435526
 20
4830867.478311694
  0
LWPOLYLINE
  5
157
330
17
100
AcDbEntity
  8
ROADS
100
AcDbPolyline
 90
2
 70
0
 10
620481.4832822729
 20
4830779.324013093
 10
620450.0666370501
 20
4830876.882550811
  0
LWPOLYLINE
  5
158
330
17
100
AcDbEntity
  8
ROADS
100
AcDbPolyline
 90
2
 70
0
 10
620535.4438813566
 20
4830796.576493241
 10
620504.2872483033
 20
4830893.2487052195
  0
LWPOLYLINE
  5
159
330
17
100
AcDbEntity
  8
ROADS
100
AcDbPolyline
 90
2
 70
0
 10
620724.91526982
 20
4830785.70370181
 10
620676.829913183
 20
4830933.691328134
  0
LWPOLYLINE
  5
15A
330
17
100
AcDbEntity
  8
ROADS
100
AcDbPolyline
 90
2
 70
0
 10
620450.0666370501
 20
4830876.882550811
 10
620416.9161435526
 20
4830867.478311694
  0
LWPOLYLINE
  5
15B
330
17
100
AcDbEntity
  8
ROADS
100
AcDbPolyline
 90
2
 70
0
 10
620569.8375806431
 20
4830883.971456739
 10
620591.8384970413
 20
4830878.048645071
  0
LWPOLYLINE
  5
15C
330
17
100
AcDbEntity
  8
ROADS
100
AcDbPolyline
 90
2
 70
0
 10
620504.2872483033
 20
4830893.2487052195
 10
620450.0666370501
 20
4830876.882550811
  0
LWPOLYLINE
  5
15D
330
17
100
AcDbEntity
  8
ROADS
100
AcDbPolyline
 90
2
 70
0
 10
620813.1148559286
 20
4830815.329226563
 10
620765.813400913
 20
4830963.212044541
  0
LWPOLYLINE
  5
15E
330
17
100
AcDbEntity
  8
ROADS
100
AcDbPolyline
 90
2
 70
0
 10
620591.8384970413
 20
4830878.048645071
 10
620582.9830109852
 20
4830905.954846118
  0
LWPOLYLINE
  5
15F
330
17
100
AcDbEntity
  8
ROADS
100
AcDbPolyline
 90
3
 70
0
 10
620537.6147425615
 20
4830901.934116559
 10
620551.7210611352
 20
4830882.242117129
 10
620569.8375806431
 20
4830883.971456739
  0
LWPOLYLINE
  5
160
330
17
100
AcDbEntity
  8
ROADS
100
AcDbPolyline
 90
2
 70
0
 10
620569.8375806431
 20
4830883.971456739
 10
620582.9830109852
 20
4830905.954846118
  0
LWPOLYLINE
  5
161
330
17
100
AcDbEntity
  8
ROADS
100
AcDbPolyline
 90
2
 70
0
 10
620537.6147425615
 20
4830901.934116559
 10
620504.2872483033
 20
4830893.2487052195
  0
LWPOLYLINE
  5
162
330
17
100
AcDbEntity
  8
ROADS
100
AcDbPolyline
 90
2
 70
0
 10
620582.9830109852
 20
4830905.954846118
 10
620537.6147425615
 20
4830901.934116559
  0
LWPOLYLINE
  5
163
330
17
100
AcDbEntity
  8
ROADS
100
AcDbPolyline
 90
2
 70
0
 10
620676.829913183
 20
4830933.691328134
 10
620582.9830109852
 20
4830905.954846118
  0
LWPOLYLINE
  5
164
330
17
100
AcDbEntity
  8
ROADS
100
AcDbPolyline
 90
4
 70
0
 10
621724.1943279216
 20
4830781.595736056
 10
621750.0679264796
 20
4830814.565620446
 10
621818.2384423979
 20
4830841.22529019
 10
621844.4666422252
 20
4830797.10506864
  0
LWPOLYLINE
  5
165
330
17
100
AcDbEntity
  8
ROADS
100
AcDbPolyline
 90
3
 70
0
 10
622005.4968862298
 20
4830899.74670093
 10
621938.0558640327
 20
4830829.936197544
 10
621887.832487429
 20
4830868.911732915
  0
LWPOLYLINE
  5
166
330
17
100
AcDbEntity
  8
ROADS
100
AcDbPolyline
 90
3
 70
0
 10
621501.0412295777
 20
4830803.907648885
 10
621697.3353526897
 20
4830868.27247581
 10
621679.0846232655
 20
4830963.038073631
  0
LWPOLYLINE
  5
167
330
17
100
AcDbEntity
  8
ROADS
100
AcDbPolyline
 90
2
 70
0
 10
622019.4377854133
 20
4831009.338606455
 10
621887.832487429
 20
4830868.911732915
  0
LWPOLYLINE
  5
168
330
17
100
AcDbEntity
  8
ROADS
100
AcDbPolyline
 90
4
 70
0
 10
621887.832487429
 20
4830868.911732915
 10
621843.1219534299
 20
4830914.276135893
 10
621965.4667214676
 20
4831047.344378389
 10
622019.4377854133
 20
4831009.338606455
  0
LWPOLYLINE
  5
169
330
17
100
AcDbEntity
  8
ROADS
100
AcDbPolyline
 90
2
 70
0
 10
621679.0846232655
 20
4830963.038073631
 10
621715.5445560606
 20
4830978.854430419
  0
LWPOLYLINE
  5
16A
330
17
100
AcDbEntity
  8
ROADS
100
AcDbPolyline
 90
2
 70
0
 10
621744.4231551685
 20
4830967.047579806
 10
621747.037273973
 20
4830989.3008146025
  0
LWPOLYLINE
  5
16B
330
17
100
AcDbEntity
  8
ROADS
100
AcDbPolyline
 90
2
 70
0
 10
621715.5445560606
 20
4830978.854430419
 10
621733.8627886255
 20
4830991.840935211
  0
LWPOLYLINE
  5
16C
330
17
100
AcDbEntity
  8
ROADS
100
AcDbPolyline
 90
2
 70
0
 10
621733.8627886255
 20
4830991.840935211
 10
621747.037273973
 20
4830989.3008146025
  0
LWPOLYLINE
  5
16D
330
17
100
AcDbEntity
  8
ROADS
100
AcDbPolyline
 90
3
 70
0
 10
621715.5445560606
 20
4830978.854430419
 10
621724.6688621669
 20
4831003.881394914
 10
621737.6950850745
 20
4831001.853619786
  0
LWPOLYLINE
  5
16E
330
17
100
AcDbEntity
  8
ROADS
100
AcDbPolyline
 90
2
 70
0
 10
621471.4703434965
 20
4830895.721568855
 10
621277.9782975748
 20
4830832.529436157
  0
LWPOLYLINE
  5
16F
330
17
100
AcDbEntity
  8
ROADS
100
AcDbPolyline
 90
2
 70
0
 10
621277.9782975748
 20
4830832.529436157
 10
621248.6676005009
 20
4830924.001977618
  0
LWPOLYLINE
  5
170
330
17
100
AcDbEntity
  8
ROADS
100
AcDbPolyline
 90
2
 70
0
 10
621679.0846232655
 20
4830963.038073631
 10
621471.4703434965
 20
4830895.721568855
  0
LWPOLYLINE
  5
171
330
17
100
AcDbEntity
  8
ROADS
100
AcDbPolyline
 90
2
 70
0
 10
621471.4703434965
 20
4830895.721568855
 10
621441.3312306518
 20
4830987.988228293
  0
LWPOLYLINE
  5
172
330
17
100
AcDbEntity
  8
ROADS
100
AcDbPolyline
 90
2
 70
0
 10
621441.3312306518
 20
4830987.988228293
 10
621248.6676005009
 20
4830924.001977618
  0
LWPOLYLINE
  5
173
330
17
100
AcDbEntity
  8
ROADS
100
AcDbPolyline
 90
2
 70
0
 10
621248.6676005009
 20
4830924.001977618
 10
621219.6670986818
 20
4831017.013174687
  0
LWPOLYLINE
  5
174
330
17
100
AcDbEntity
  8
ROADS
100
AcDbPolyline
 90
2
 70
0
 10
621649.6393918135
 20
4831054.259272497
 10
621441.3312306518
 20
4830987.988228293
  0
LWPOLYLINE
  5
175
330
17
100
AcDbEntity
  8
ROADS
100
AcDbPolyline
 90
2
 70
0
 10
621441.3312306518
 20
4830987.988228293
 10
621412.8831572491
 20
4831079.757398272
  0
LWPOLYLINE
  5
176
330
17
100
AcDbEntity
  8
ROADS
100
AcDbPolyline
 90
2
 70
0
 10
621219.6670986818
 20
4831017.013174687
 10
621412.8831572491
 20
4831079.757398272
  0
LWPOLYLINE
  5
177
330
17
100
AcDbEntity
  8
ROADS
100
AcDbPolyline
 90
2
 70
0
 10
621219.6670986818
 20
4831017.013174687
 10
621190.4682981803
 20
4831109.042730801
  0
LWPOLYLINE
  5
178
330
17
100
AcDbEntity
  8
ROADS
100
AcDbPolyline
 90
2
 70
0
 10
620992.6908983903
 20
4830873.380658459
 10
620947.1641721325
 20
4830858.033579203
  0
LWPOLYLINE
  5
179
330
17
100
AcDbEntity
  8
ROADS
100
AcDbPolyline
 90
2
 70
0
 10
621248.6676005009
 20
4830924.001977618
 10
621002.061985434
 20
4830844.335687178
  0
LWPOLYLINE
  5
17A
330
17
100
AcDbEntity
  8
ROADS
100
AcDbPolyline
 90
2
 70
0
 10
620992.6908983903
 20
4830873.380658459
 10
620974.7203406105
 20
4830936.530753605
  0
LWPOLYLINE
  5
17B
330
17
100
AcDbEntity
  8
ROADS
100
AcDbPolyline
 90
2
 70
0
 10
620901.3422512049
 20
4830842.586167197
 10
620854.0292418656
 20
4830991.826870004
  0
LWPOLYLINE
  5
17C
330
17
100
AcDbEntity
  8
ROADS
100
AcDbPolyline
 90
2
 70
0
 10
620947.1641721325
 20
4830858.033579203
 10
620899.8569266693
 20
4831006.62237659
  0
LWPOLYLINE
  5
17D
330
17
100
AcDbEntity
  8
ROADS
100
AcDbPolyline
 90
2
 70
0
 10
620974.7203406105
 20
4830936.530753605
 10
621011.4434406941
 20
4830948.902180726
  0
LWPOLYLINE
  5
17E
330
17
100
AcDbEntity
  8
ROADS
100
AcDbPolyline
 90
2
 70
0
 10
621011.4434406941
 20
4830948.902180726
 10
621219.6670986818
 20
4831017.013174687
  0
LWPOLYLINE
  5
17F
330
17
100
AcDbEntity
  8
ROADS
100
AcDbPolyline
 90
2
 70
0
 10
620899.8569266693
 20
4831006.62237659
 10
620854.0292418656
 20
4830991.826870004
  0
LWPOLYLINE
  5
180
330
17
100
AcDbEntity
  8
ROADS
100
AcDbPolyline
 90
2
 70
0
 10
620929.5629457419
 20
4831015.936414044
 10
620899.8569266693
 20
4831006.62237659
  0
LWPOLYLINE
  5
181
330
17
100
AcDbEntity
  8
ROADS
100
AcDbPolyline
 90
3
 70
0
 10
621190.4682981803
 20
4831109.042730801
 10
620987.2330577843
 20
4831042.140353089
 10
621011.4434406941
 20
4830948.902180726
  0
LWPOLYLINE
  5
182
330
17
100
AcDbEntity
  8
ROADS
100
AcDbPolyline
 90
2
 70
0
 10
621733.8627886255
 20
4830991.840935211
 10
621737.6950850745
 20
4831001.853619786
  0
LWPOLYLINE
  5
183
330
17
100
AcDbEntity
  8
ROADS
100
AcDbPolyline
 90
2
 70
0
 10
621763.5831195068
 20
4831008.559588619
 10
621747.037273973
 20
4830989.3008146025
  0
LWPOLYLINE
  5
184
330
17
100
AcDbEntity
  8
ROADS
100
AcDbPolyline
 90
2
 70
0
 10
621679.0846232655
 20
4830963.038073631
 10
621649.6393918135
 20
4831054.259272497
  0
LWPOLYLINE
  5
185
330
17
100
AcDbEntity
  8
ROADS
100
AcDbPolyline
 90
2
 70
0
 10
621737.6950850745
 20
4831001.853619786
 10
621747.2535464301
 20
4831018.791061886
  0
LWPOLYLINE
  5
186
330
17
100
AcDbEntity
  8
ROADS
100
AcDbPolyline
 90
2
 70
0
 10
621763.5831195068
 20
4831008.559588619
 10
621747.2535464301
 20
4831018.791061886
  0
LWPOLYLINE
  5
187
330
17
100
AcDbEntity
  8
ROADS
100
AcDbPolyline
 90
2
 70
0
 10
621763.5831195068
 20
4831008.559588619
 10
621766.4716450783
 20
4831037.987108695
  0
LWPOLYLINE
  5
188
330
17
100
AcDbEntity
  8
ROADS
100
AcDbPolyline
 90
2
 70
0
 10
621747.2535464301
 20
4831018.791061886
 10
621735.5065763503
 20
4831073.617344017
  0
LWPOLYLINE
  5
189
330
17
100
AcDbEntity
  8
ROADS
100
AcDbPolyline
 90
2
 70
0
 10
621649.6393918135
 20
4831054.259272497
 10
621699.741792408
 20
4831071.190640553
  0
LWPOLYLINE
  5
18A
330
17
100
AcDbEntity
  8
ROADS
100
AcDbPolyline
 90
2
 70
0
 10
621699.741792408
 20
4831071.190640553
 10
621735.5065763503
 20
4831073.617344017
  0
LWPOLYLINE
  5
18B
330
17
100
AcDbEntity
  8
ROADS
100
AcDbPolyline
 90
4
 70
0
 10
621763.5831195068
 20
4831008.559588619
 10
621855.2291357208
 20
4831032.593262663
 10
621825.0744718172
 20
4831141.105477865
 10
621802.6245247279
 20
4831162.357383069
  0
LWPOLYLINE
  5
18C
330
17
100
AcDbEntity
  8
ROADS
100
AcDbPolyline
 90
2
 70
0
 10
620974.7203406105
 20
4830936.530753605
 10
620896.3753255049
 20
4831181.957007415
  0
LWPOLYLINE
  5
18D
330
17
100
AcDbEntity
  8
ROADS
100
AcDbPolyline
 90
2
 70
0
 10
620996.2207351713
 20
4831146.856241389
 10
620936.2015872914
 20
4831128.786197707
  0
LWPOLYLINE
  5
18E
330
17
100
AcDbEntity
  8
ROADS
100
AcDbPolyline
 90
2
 70
0
 10
621160.6445716589
 20
4831201.785012881
 10
620996.2207351713
 20
4831146.856241389
  0
LWPOLYLINE
  5
18F
330
17
100
AcDbEntity
  8
ROADS
100
AcDbPolyline
 90
2
 70
0
 10
620896.3753255049
 20
4831181.957007415
 10
620853.4409034809
 20
4831168.648808512
  0
LWPOLYLINE
  5
190
330
17
100
AcDbEntity
  8
ROADS
100
AcDbPolyline
 90
2
 70
0
 10
620853.4409034809
 20
4831168.648808512
 10
620841.3199127633
 20
4831205.153398959
  0
LWPOLYLINE
  5
191
330
17
100
AcDbEntity
  8
ROADS
100
AcDbPolyline
 90
2
 70
0
 10
620953.2170694108
 20
4831279.806095658
 10
620996.2207351713
 20
4831146.856241389
  0
LWPOLYLINE
  5
192
330
17
100
AcDbEntity
  8
ROADS
100
AcDbPolyline
 90
2
 70
0
 10
620896.3753255049
 20
4831181.957007415
 10
620870.3112017508
 20
4831255.135283245
  0
LWPOLYLINE
  5
193
330
17
100
AcDbEntity
  8
ROADS
100
AcDbPolyline
 90
2
 70
0
 10
621160.6445716589
 20
4831201.785012881
 10
621130.7687088221
 20
4831292.153233448
  0
LWPOLYLINE
  5
194
330
17
100
AcDbEntity
  8
ROADS
100
AcDbPolyline
 90
2
 70
0
 10
620953.2170694108
 20
4831279.806095658
 10
620870.3112017508
 20
4831255.135283245
  0
LWPOLYLINE
  5
195
330
17
100
AcDbEntity
  8
ROADS
100
AcDbPolyline
 90
2
 70
0
 10
621033.4682744511
 20
4831304.618967464
 10
621050.1534212312
 20
4831245.920851097
  0
LWPOLYLINE
  5
196
330
17
100
AcDbEntity
  8
ROADS
100
AcDbPolyline
 90
2
 70
0
 10
620765.813400913
 20
4830963.212044541
 10
620676.829913183
 20
4830933.691328134
  0
LWPOLYLINE
  5
197
330
17
100
AcDbEntity
  8
ROADS
100
AcDbPolyline
 90
2
 70
0
 10
620542.1417120931
 20
4831006.182258333
 10
620326.5590494231
 20
4830941.510104193
  0
LWPOLYLINE
  5
198
330
17
100
AcDbEntity
  8
ROADS
100
AcDbPolyline
 90
2
 70
0
 10
620854.0292418656
 20
4830991.826870004
 10
620765.813400913
 20
4830963.212044541
  0
LWPOLYLINE
  5
199
330
17
100
AcDbEntity
  8
ROADS
100
AcDbPolyline
 90
4
 70
0
 10
620853.4409034809
 20
4831168.648808512
 10
620824.0166720145
 20
4831150.712481804
 10
620826.3372420341
 20
4831098.542175271
 10
620542.1417120931
 20
4831006.182258333
  0
LWPOLYLINE
  5
19A
330
17
100
AcDbEntity
  8
ROADS
100
AcDbPolyline
 90
2
 70
0
 10
620433.4415048226
 20
4831342.275559478
 10
620542.1417120931
 20
4831006.182258333
  0
LWPOLYLINE
  5
19B
330
17
100
AcDbEntity
  8
ROADS
100
AcDbPolyline
 90
2
 70
0
 10
620762.9903705672
 20
4831224.649164574
 10
620720.6170398393
 20
4831210.840080337
  0
LWPOLYLINE
  5
19C
330
17
100
AcDbEntity
  8
ROADS
100
AcDbPolyline
 90
2
 70
0
 10
620870.3112017508
 20
4831255.135283245
 10
620762.9903705672
 20
4831224.649164574
  0
LWPOLYLINE
  5
19D
330
17
100
AcDbEntity
  8
ROADS
100
AcDbPolyline
 90
2
 70
0
 10
620713.6624244755
 20
4831373.264326359
 10
620762.9903705672
 20
4831224.649164574
  0
LWPOLYLINE
  5
19E
330
17
100
AcDbEntity
  8
ROADS
100
AcDbPolyline
 90
2
 70
0
 10
620459.15659245
 20
4831350.577472421
 10
620433.4415048226
 20
4831342.275559478
  0
LWPOLYLINE
  5
19F
330
17
100
AcDbEntity
  8
ROADS
100
AcDbPolyline
 90
3
 70
0
 10
620433.4415048226
 20
4831342.275559478
 10
620432.515133689
 20
4831365.652795129
 10
620459.15659245
 20
4831350.577472421
  0
LWPOLYLINE
  5
1A0
330
17
100
AcDbEntity
  8
ROADS
100
AcDbPolyline
 90
2
 70
0
 10
621649.6393918135
 20
4831054.259272497
 10
621620.545509647
 20
4831147.50889445
  0
LWPOLYLINE
  5
1A1
330
17
100
AcDbEntity
  8
ROADS
100
AcDbPolyline
 90
2
 70
0
 10
621735.5065763503
 20
4831073.617344017
 10
621744.488196077
 20
4831144.404814796
  0
LWPOLYLINE
  5
1A2
330
17
100
AcDbEntity
  8
ROADS
100
AcDbPolyline
 90
3
 70
0
 10
621699.741792408
 20
4831071.190640553
 10
621661.6114520163
 20
4831131.285029609
 10
621620.545509647
 20
4831147.50889445
  0
LWPOLYLINE
  5
1A3
330
17
100
AcDbEntity
  8
ROADS
100
AcDbPolyline
 90
2
 70
0
 10
621600.1493263112
 20
4831141.379155302
 10
621620.545509647
 20
4831147.50889445
  0
LWPOLYLINE
  5
1A4
330
17
100
AcDbEntity
  8
ROADS
100
AcDbPolyline
 90
2
 70
0
 10
621744.488196077
 20
4831144.404814796
 10
621802.6245247279
 20
4831162.357383069
  0
LWPOLYLINE
  5
1A5
330
17
100
AcDbEntity
  8
ROADS
100
AcDbPolyline
 90
2
 70
0
 10
621744.488196077
 20
4831144.404814796
 10
621723.4585607863
 20
4831181.1425759
  0
LWPOLYLINE
  5
1A6
330
17
100
AcDbEntity
  8
ROADS
100
AcDbPolyline
 90
2
 70
0
 10
621620.545509647
 20
4831147.50889445
 10
621723.4585607863
 20
4831181.1425759
  0
LWPOLYLINE
  5
1A7
330
17
100
AcDbEntity
  8
ROADS
100
AcDbPolyline
 90
2
 70
0
 10
621802.6245247279
 20
4831162.357383069
 10
621819.0819541569
 20
4831210.5888949735
  0
LWPOLYLINE
  5
1A8
330
17
100
AcDbEntity
  8
ROADS
100
AcDbPolyline
 90
2
 70
0
 10
621723.4585607863
 20
4831181.1425759
 10
621819.0819541569
 20
4831210.5888949735
  0
LWPOLYLINE
  5
1A9
330
17
100
AcDbEntity
  8
ROADS
100
AcDbPolyline
 90
3
 70
0
 10
621819.0819541569
 20
4831210.5888949735
 10
621918.872985272
 20
4831240.897560731
 10
621893.5136122367
 20
4831318.07197175
  0
LWPOLYLINE
  5
1AA
330
17
100
AcDbEntity
  8
ROADS
100
AcDbPolyline
 90
2
 70
0
 10
621412.8831572491
 20
4831079.757398272
 10
621600.1493263112
 20
4831141.379155302
  0
LWPOLYLINE
  5
1AB
330
17
100
AcDbEntity
  8
ROADS
100
AcDbPolyline
 90
2
 70
0
 10
621412.8831572491
 20
4831079.757398272
 10
621384.5229521375
 20
4831172.529184989
  0
LWPOLYLINE
  5
1AC
330
17
100
AcDbEntity
  8
ROADS
100
AcDbPolyline
 90
2
 70
0
 10
621384.5229521375
 20
4831172.529184989
 10
621190.4682981803
 20
4831109.042730801
  0
LWPOLYLINE
  5
1AD
330
17
100
AcDbEntity
  8
ROADS
100
AcDbPolyline
 90
3
 70
0
 10
621600.1493263112
 20
4831141.379155302
 10
621557.3479325044
 20
4831228.200833795
 10
621384.5229521375
 20
4831172.529184989
  0
LWPOLYLINE
  5
1AE
330
17
100
AcDbEntity
  8
ROADS
100
AcDbPolyline
 90
2
 70
0
 10
621321.3345463385
 20
4831253.213727589
 10
621160.6445716589
 20
4831201.785012881
  0
LWPOLYLINE
  5
1AF
330
17
100
AcDbEntity
  8
ROADS
100
AcDbPolyline
 90
5
 70
0
 10
621321.3345463385
 20
4831253.213727589
 10
621392.9334412606
 20
4831276.422237343
 10
621374.6659611145
 20
4831305.076993613
 10
621318.6300541541
 20
4831288.549930693
 10
621321.3345463385
 20
4831253.213727589
  0
LWPOLYLINE
  5
1B0
330
17
100
AcDbEntity
  8
ROADS
100
AcDbPolyline
 90
2
 70
0
 10
621620.545509647
 20
4831147.50889445
 10
621529.1531435723
 20
4831423.460230792
  0
LWPOLYLINE
  5
1B1
330
17
100
AcDbEntity
  8
ROADS
100
AcDbPolyline
 90
2
 70
0
 10
621228.1813383431
 20
4831324.01646556
 10
621177.609501474
 20
4831316.093745623
  0
LWPOLYLINE
  5
1B2
330
17
100
AcDbEntity
  8
ROADS
100
AcDbPolyline
 90
2
 70
0
 10
621323.7320515265
 20
4831356.370100118
 10
621228.1813383431
 20
4831324.01646556
  0
LWPOLYLINE
  5
1B3
330
17
100
AcDbEntity
  8
ROADS
100
AcDbPolyline
 90
2
 70
0
 10
621421.9022906387
 20
4831388.647073681
 10
621323.7320515265
 20
4831356.370100118
  0
LWPOLYLINE
  5
1B4
330
17
100
AcDbEntity
  8
ROADS
100
AcDbPolyline
 90
2
 70
0
 10
619999.3393883198
 20
4831109.366713711
 10
620017.5667682308
 20
4831121.896501327
  0
LWPOLYLINE
  5
1B5
330
17
100
AcDbEntity
  8
ROADS
100
AcDbPolyline
 90
3
 70
0
 10
619997.753161045
 20
4831153.275118131
 10
620002.9969744042
 20
4831154.9546245355
 10
620017.5667682308
 20
4831121.896501327
  0
LWPOLYLINE
  5
1B6
330
17
100
AcDbEntity
  8
ROADS
100
AcDbPolyline
 90
2
 70
0
 10
620060.185619923
 20
4831270.293424795
 10
620074.9277616754
 20
4831226.6999877915
  0
LWPOLYLINE
  5
1B7
330
17
100
AcDbEntity
  8
ROADS
100
AcDbPolyline
 90
2
 70
0
 10
620040.7299851517
 20
4831263.954210998
 10
620060.185619923
 20
4831270.293424795
  0
LWPOLYLINE
  5
1B8
330
17
100
AcDbEntity
  8
ROADS
100
AcDbPolyline
 90
2
 70
0
 10
620211.5131019102
 20
4831270.275267782
 10
620170.9800089615
 20
4831256.350439649
  0
LWPOLYLINE
  5
1B9
330
17
100
AcDbEntity
  8
ROADS
100
AcDbPolyline
 90
2
 70
0
 10
620060.185619923
 20
4831270.293424795
 10
620107.0316157049
 20
4831285.067332297
  0
LWPOLYLINE
  5
1BA
330
17
100
AcDbEntity
  8
ROADS
100
AcDbPolyline
 90
2
 70
0
 10
620302.2069374444
 20
4831300.9899832215
 10
620211.5131019102
 20
4831270.275267782
  0
LWPOLYLINE
  5
1BB
330
17
100
AcDbEntity
  8
ROADS
100
AcDbPolyline
 90
2
 70
0
 10
620170.9800089615
 20
4831256.350439649
 10
620139.4004715745
 20
4831347.8076535
  0
LWPOLYLINE
  5
1BC
330
17
100
AcDbEntity
  8
ROADS
100
AcDbPolyline
 90
2
 70
0
 10
620433.4415048226
 20
4831342.275559478
 10
620302.2069374444
 20
4831300.9899832215
  0
LWPOLYLINE
  5
1BD
330
17
100
AcDbEntity
  8
ROADS
100
AcDbPolyline
 90
2
 70
0
 10
620302.2069374444
 20
4831300.9899832215
 10
620287.1015512517
 20
4831347.251994195
  0
LWPOLYLINE
  5
1BE
330
17
100
AcDbEntity
  8
ROADS
100
AcDbPolyline
 90
2
 70
0
 10
620053.0973248691
 20
4831291.256344732
 10
620060.185619923
 20
4831270.293424795
  0
LWPOLYLINE
  5
1BF
330
17
100
AcDbEntity
  8
ROADS
100
AcDbPolyline
 90
2
 70
0
 10
620287.1015512517
 20
4831347.251994195
 10
620239.4149227345
 20
4831331.236832838
  0
LWPOLYLINE
  5
1C0
330
17
100
AcDbEntity
  8
ROADS
100
AcDbPolyline
 90
8
 70
0
 10
620531.2493603184
 20
4831372.565818025
 10
620512.2497333735
 20
4831429.347943383
 10
620476.146840264
 20
4831455.716800611
 10
620430.4453662203
 20
4831439.862486163
 10
620397.522381334
 20
4831448.919067219
 10
620381.4268081854
 20
4831479.08052929
 10
620387.2313586519
 20
4831517.920005365
 10
620347.6571588261
 20
4831548.726311917
  0
LWPOLYLINE
  5
1C1
330
17
100
AcDbEntity
  8
ROADS
100
AcDbPolyline
 90
3
 70
0
 10
620656.1499175541
 20
4831415.004066482
 10
620634.6982014659
 20
4831461.212464782
 10
620571.1470119846
 20
4831507.736283447
  0
LWPOLYLINE
  5
1C2
330
17
100
AcDbEntity
  8
ROADS
100
AcDbPolyline
 90
2
 70
0
 10
620732.9044475071
 20
4831438.125706611
 10
620711.9606299591
 20
4831507.145257077
  0
LWPOLYLINE
  5
1C3
330
17
100
AcDbEntity
  8
ROADS
100
AcDbPolyline
 90
2
 70
0
 10
620801.6692982184
 20
4831461.4330211785
 10
620787.5882267915
 20
4831508.7846466815
  0
LWPOLYLINE
  5
1C4
330
17
100
AcDbEntity
  8
ROADS
100
AcDbPolyline
 90
2
 70
0
 10
620780.900606737
 20
4831531.275783469
 10
620711.9606299591
 20
4831507.145257077
  0
LWPOLYLINE
  5
1C5
330
17
100
AcDbEntity
  8
ROADS
100
AcDbPolyline
 90
2
 70
0
 10
620787.5882267915
 20
4831508.7846466815
 10
620780.900606737
 20
4831531.275783469
  0
LWPOLYLINE
  5
1C6
330
17
100
AcDbEntity
  8
ROADS
100
AcDbPolyline
 90
2
 70
0
 10
620571.1470119846
 20
4831507.736283447
 10
620486.2048971604
 20
4831566.882150386
  0
LWPOLYLINE
  5
1C7
330
17
100
AcDbEntity
  8
ROADS
100
AcDbPolyline
 90
2
 70
0
 10
620711.9606299591
 20
4831507.145257077
 10
620615.5518977473
 20
4831572.551250427
  0
LWPOLYLINE
  5
1C8
330
17
100
AcDbEntity
  8
ROADS
100
AcDbPolyline
 90
2
 70
0
 10
620615.5518977473
 20
4831572.551250427
 10
620571.1470119846
 20
4831507.736283447
  0
LWPOLYLINE
  5
1C9
330
17
100
AcDbEntity
  8
ROADS
100
AcDbPolyline
 90
2
 70
0
 10
620780.900606737
 20
4831531.275783469
 10
620757.7690910479
 20
4831608.630168433
  0
LWPOLYLINE
  5
1CA
330
17
100
AcDbEntity
  8
ROADS
100
AcDbPolyline
 90
2
 70
0
 10
620287.1015512517
 20
4831347.251994195
 10
620373.7664878026
 20
4831375.627853998
  0
LWPOLYLINE
  5
1CB
330
17
100
AcDbEntity
  8
ROADS
100
AcDbPolyline
 90
2
 70
0
 10
620228.8559347795
 20
4831377.320962035
 10
620139.4004715745
 20
4831347.8076535
  0
LWPOLYLINE
  5
1CC
330
17
100
AcDbEntity
  8
ROADS
100
AcDbPolyline
 90
2
 70
0
 10
620287.1015512517
 20
4831347.251994195
 10
620273.3849627239
 20
4831389.26591676
  0
LWPOLYLINE
  5
1CD
330
17
100
AcDbEntity
  8
ROADS
100
AcDbPolyline
 90
2
 70
0
 10
620273.3849627239
 20
4831389.26591676
 10
620228.8559347795
 20
4831377.320962035
  0
LWPOLYLINE
  5
1CE
330
17
100
AcDbEntity
  8
ROADS
100
AcDbPolyline
 90
2
 70
0
 10
620139.4004715745
 20
4831347.8076535
 10
620120.1027700237
 20
4831406.603619719
  0
LWPOLYLINE
  5
1CF
330
17
100
AcDbEntity
  8
ROADS
100
AcDbPolyline
 90
2
 70
0
 10
620315.2967595943
 20
4831405.424764954
 10
620273.3849627239
 20
4831389.26591676
  0
LWPOLYLINE
  5
1D0
330
17
100
AcDbEntity
  8
ROADS
100
AcDbPolyline
 90
2
 70
0
 10
620355.9265021884
 20
4831416.602249411
 10
620315.2967595943
 20
4831405.424764954
  0
LWPOLYLINE
  5
1D1
330
17
100
AcDbEntity
  8
ROADS
100
AcDbPolyline
 90
2
 70
0
 10
620315.2967595943
 20
4831405.424764954
 10
620277.7288936258
 20
4831529.762168892
  0
LWPOLYLINE
  5
1D2
330
17
100
AcDbEntity
  8
ROADS
100
AcDbPolyline
 90
2
 70
0
 10
620228.8559347795
 20
4831377.320962035
 10
620189.58859774
 20
4831497.516009656
  0
LWPOLYLINE
  5
1D3
330
17
100
AcDbEntity
  8
ROADS
100
AcDbPolyline
 90
2
 70
0
 10
620347.6571588261
 20
4831548.726311917
 10
620277.7288936258
 20
4831529.762168892
  0
LWPOLYLINE
  5
1D4
330
17
100
AcDbEntity
  8
ROADS
100
AcDbPolyline
 90
2
 70
0
 10
620374.4345418733
 20
4831590.500816349
 10
620347.6571588261
 20
4831548.726311917
  0
LWPOLYLINE
  5
1D5
330
17
100
AcDbEntity
  8
ROADS
100
AcDbPolyline
 90
2
 70
0
 10
620277.7288936258
 20
4831529.762168892
 10
620262.8920255895
 20
4831574.517928688
  0
LWPOLYLINE
  5
1D6
330
17
100
AcDbEntity
  8
ROADS
100
AcDbPolyline
 90
2
 70
0
 10
620374.4345418733
 20
4831590.500816349
 10
620338.9223471616
 20
4831612.515137605
  0
LWPOLYLINE
  5
1D7
330
17
100
AcDbEntity
  8
ROADS
100
AcDbPolyline
 90
2
 70
0
 10
620400.7746088805
 20
4831626.369181634
 10
620374.4345418733
 20
4831590.500816349
  0
LWPOLYLINE
  5
1D8
330
17
100
AcDbEntity
  8
ROADS
100
AcDbPolyline
 90
2
 70
0
 10
620444.7365091589
 20
4831692.508183919
 10
620400.7746088805
 20
4831626.369181634
  0
LWPOLYLINE
  5
1D9
330
17
100
AcDbEntity
  8
ROADS
100
AcDbPolyline
 90
3
 70
0
 10
621893.5136122367
 20
4831318.07197175
 10
621900.1817555072
 20
4831341.993535611
 10
621921.1293597004
 20
4831346.273256399
  0
LWPOLYLINE
  5
1DA
330
17
100
AcDbEntity
  8
ROADS
100
AcDbPolyline
 90
2
 70
0
 10
621715.9739227502
 20
4831485.324165216
 10
621685.7306233331
 20
4831475.744346745
  0
LWPOLYLINE
  5
1DB
330
17
100
AcDbEntity
  8
ROADS
100
AcDbPolyline
 90
2
 70
0
 10
621488.5736718785
 20
4831682.926717523
 10
621565.4655231631
 20
4831708.221877821
  0
LWPOLYLINE
  5
1DC
330
17
100
AcDbEntity
  8
ROADS
100
AcDbPolyline
 90
2
 70
0
 10
621033.4682744511
 20
4831304.618967464
 10
620953.2170694108
 20
4831279.806095658
  0
LWPOLYLINE
  5
1DD
330
17
100
AcDbEntity
  8
ROADS
100
AcDbPolyline
 90
2
 70
0
 10
621177.609501474
 20
4831316.093745623
 10
621130.7687088221
 20
4831292.153233448
  0
LWPOLYLINE
  5
1DE
330
17
100
AcDbEntity
  8
ROADS
100
AcDbPolyline
 90
3
 70
0
 10
621177.609501474
 20
4831316.093745623
 10
621143.9833150243
 20
4831316.50702884
 10
621130.7687088221
 20
4831292.153233448
  0
LWPOLYLINE
  5
1DF
330
17
100
AcDbEntity
  8
ROADS
100
AcDbPolyline
 90
2
 70
0
 10
621130.7687088221
 20
4831292.153233448
 10
621118.4124917428
 20
4831332.155752917
  0
LWPOLYLINE
  5
1E0
330
17
100
AcDbEntity
  8
ROADS
100
AcDbPolyline
 90
2
 70
0
 10
621118.4124917428
 20
4831332.155752917
 10
621033.4682744511
 20
4831304.618967464
  0
LWPOLYLINE
  5
1E1
330
17
100
AcDbEntity
  8
ROADS
100
AcDbPolyline
 90
2
 70
0
 10
620870.3112017508
 20
4831255.135283245
 10
620814.6805192177
 20
4831422.428420131
  0
LWPOLYLINE
  5
1E2
330
17
100
AcDbEntity
  8
ROADS
100
AcDbPolyline
 90
2
 70
0
 10
620897.8104478209
 20
4831449.36441544
 10
620953.2170694108
 20
4831279.806095658
  0
LWPOLYLINE
  5
1E3
330
17
100
AcDbEntity
  8
ROADS
100
AcDbPolyline
 90
2
 70
0
 10
620979.8530082118
 20
4831475.931763091
 10
621033.4682744511
 20
4831304.618967464
  0
LWPOLYLINE
  5
1E4
330
17
100
AcDbEntity
  8
ROADS
100
AcDbPolyline
 90
2
 70
0
 10
621118.4124917428
 20
4831332.155752917
 10
621062.6806035273
 20
4831503.330342255
  0
LWPOLYLINE
  5
1E5
330
17
100
AcDbEntity
  8
ROADS
100
AcDbPolyline
 90
2
 70
0
 10
620897.8104478209
 20
4831449.36441544
 10
620814.6805192177
 20
4831422.428420131
  0
LWPOLYLINE
  5
1E6
330
17
100
AcDbEntity
  8
ROADS
100
AcDbPolyline
 90
6
 70
0
 10
621654.0483188332
 20
4831394.480292704
 10
621654.1188536873
 20
4831369.2654274395
 10
621588.2270602852
 20
4831344.678922616
 10
621572.5103322444
 20
4831349.717212402
 10
621555.5831907038
 20
4831402.710787664
 10
621578.2117987464
 20
4831410.039927111
  0
LWPOLYLINE
  5
1E7
330
17
100
AcDbEntity
  8
ROADS
100
AcDbPolyline
 90
2
 70
0
 10
621578.2117987464
 20
4831410.039927111
 10
621590.8175066742
 20
4831370.897901279
  0
LWPOLYLINE
  5
1E8
330
17
100
AcDbEntity
  8
ROADS
100
AcDbPolyline
 90
2
 70
0
 10
621638.7096758136
 20
4831393.315131645
 10
621654.0483188332
 20
4831394.480292704
  0
LWPOLYLINE
  5
1E9
330
17
100
AcDbEntity
  8
ROADS
100
AcDbPolyline
 90
3
 70
0
 10
621602.9144063205
 20
4831418.038566762
 10
621614.0794412799
 20
4831388.450941795
 10
621638.7096758136
 20
4831393.315131645
  0
LWPOLYLINE
  5
1EA
330
17
100
AcDbEntity
  8
ROADS
100
AcDbPolyline
 90
2
 70
0
 10
621654.0483188332
 20
4831394.480292704
 10
621707.5178557617
 20
4831414.788196131
  0
LWPOLYLINE
  5
1EB
330
17
100
AcDbEntity
  8
ROADS
100
AcDbPolyline
 90
2
 70
0
 10
621707.5178557617
 20
4831414.788196131
 10
621713.5094914333
 20
4831398.217689731
  0
LWPOLYLINE
  5
1EC
330
17
100
AcDbEntity
  8
ROADS
100
AcDbPolyline
 90
2
 70
0
 10
621627.6959508663
 20
4831425.985631318
 10
621638.7096758136
 20
4831393.315131645
  0
LWPOLYLINE
  5
1ED
330
17
100
AcDbEntity
  8
ROADS
100
AcDbPolyline
 90
2
 70
0
 10
621578.2117987464
 20
4831410.039927111
 10
621602.9144063205
 20
4831418.038566762
  0
LWPOLYLINE
  5
1EE
330
17
100
AcDbEntity
  8
ROADS
100
AcDbPolyline
 90
2
 70
0
 10
621602.9144063205
 20
4831418.038566762
 10
621627.6959508663
 20
4831425.985631318
  0
LWPOLYLINE
  5
1EF
330
17
100
AcDbEntity
  8
ROADS
100
AcDbPolyline
 90
2
 70
0
 10
621653.9179926572
 20
4831431.141261761
 10
621656.6372054231
 20
4831413.478922391
  0
LWPOLYLINE
  5
1F0
330
17
100
AcDbEntity
  8
ROADS
100
AcDbPolyline
 90
2
 70
0
 10
620531.2493603184
 20
4831372.565818025
 10
620459.15659245
 20
4831350.577472421
  0
LWPOLYLINE
  5
1F1
330
17
100
AcDbEntity
  8
ROADS
100
AcDbPolyline
 90
2
 70
0
 10
620713.6624244755
 20
4831373.264326359
 10
620666.8190426917
 20
4831357.898403537
  0
LWPOLYLINE
  5
1F2
330
17
100
AcDbEntity
  8
ROADS
100
AcDbPolyline
 90
2
 70
0
 10
620709.0078779547
 20
4831387.287831525
 10
620713.6624244755
 20
4831373.264326359
  0
LWPOLYLINE
  5
1F3
330
17
100
AcDbEntity
  8
ROADS
100
AcDbPolyline
 90
2
 70
0
 10
620656.1499175541
 20
4831415.004066482
 10
620531.2493603184
 20
4831372.565818025
  0
LWPOLYLINE
  5
1F4
330
17
100
AcDbEntity
  8
ROADS
100
AcDbPolyline
 90
2
 70
0
 10
620814.6805192177
 20
4831422.428420131
 10
620709.0078779547
 20
4831387.287831525
  0
LWPOLYLINE
  5
1F5
330
17
100
AcDbEntity
  8
ROADS
100
AcDbPolyline
 90
2
 70
0
 10
620696.015202762
 20
4831426.428762335
 10
620709.0078779547
 20
4831387.287831525
  0
LWPOLYLINE
  5
1F6
330
17
100
AcDbEntity
  8
ROADS
100
AcDbPolyline
 90
2
 70
0
 10
620696.015202762
 20
4831426.428762335
 10
620656.1499175541
 20
4831415.004066482
  0
LWPOLYLINE
  5
1F7
330
17
100
AcDbEntity
  8
ROADS
100
AcDbPolyline
 90
2
 70
0
 10
620732.9044475071
 20
4831438.125706611
 10
620696.015202762
 20
4831426.428762335
  0
LWPOLYLINE
  5
1F8
330
17
100
AcDbEntity
  8
ROADS
100
AcDbPolyline
 90
2
 70
0
 10
620814.6805192177
 20
4831422.428420131
 10
620801.6692982184
 20
4831461.4330211785
  0
LWPOLYLINE
  5
1F9
330
17
100
AcDbEntity
  8
ROADS
100
AcDbPolyline
 90
2
 70
0
 10
620801.6692982184
 20
4831461.4330211785
 10
620732.9044475071
 20
4831438.125706611
  0
LWPOLYLINE
  5
1FA
330
17
100
AcDbEntity
  8
ROADS
100
AcDbPolyline
 90
2
 70
0
 10
621627.6959508663
 20
4831425.985631318
 10
621653.9179926572
 20
4831431.141261761
  0
LWPOLYLINE
  5
1FB
330
17
100
AcDbEntity
  8
ROADS
100
AcDbPolyline
 90
2
 70
0
 10
621675.9577758182
 20
4831425.562516461
 10
621670.0359889617
 20
4831434.502937212
  0
LWPOLYLINE
  5
1FC
330
17
100
AcDbEntity
  8
ROADS
100
AcDbPolyline
 90
2
 70
0
 10
621594.6718560258
 20
4831445.779904856
 10
621602.9144063205
 20
4831418.038566762
  0
LWPOLYLINE
  5
1FD
330
17
100
AcDbEntity
  8
ROADS
100
AcDbPolyline
 90
2
 70
0
 10
621670.0359889617
 20
4831434.502937212
 10
621653.9179926572
 20
4831431.141261761
  0
LWPOLYLINE
  5
1FE
330
17
100
AcDbEntity
  8
ROADS
100
AcDbPolyline
 90
2
 70
0
 10
621707.5178557617
 20
4831414.788196131
 10
621685.7306233331
 20
4831475.744346745
  0
LWPOLYLINE
  5
1FF
330
17
100
AcDbEntity
  8
ROADS
100
AcDbPolyline
 90
2
 70
0
 10
621653.9179926572
 20
4831431.141261761
 10
621644.8160128467
 20
4831462.28056397
  0
LWPOLYLINE
  5
200
330
17
100
AcDbEntity
  8
ROADS
100
AcDbPolyline
 90
2
 70
0
 10
621670.0359889617
 20
4831434.502937212
 10
621664.4452116779
 20
4831468.739481829
  0
LWPOLYLINE
  5
201
330
17
100
AcDbEntity
  8
ROADS
100
AcDbPolyline
 90
2
 70
0
 10
621644.8160128467
 20
4831462.28056397
 10
621594.6718560258
 20
4831445.779904856
  0
LWPOLYLINE
  5
202
330
17
100
AcDbEntity
  8
ROADS
100
AcDbPolyline
 90
2
 70
0
 10
621664.4452116779
 20
4831468.739481829
 10
621644.8160128467
 20
4831462.28056397
  0
LWPOLYLINE
  5
203
330
17
100
AcDbEntity
  8
ROADS
100
AcDbPolyline
 90
2
 70
0
 10
621685.7306233331
 20
4831475.744346745
 10
621664.4452116779
 20
4831468.739481829
  0
LWPOLYLINE
  5
204
330
17
100
AcDbEntity
  8
ROADS
100
AcDbPolyline
 90
2
 70
0
 10
621529.1531435723
 20
4831423.460230792
 10
621421.9022906387
 20
4831388.647073681
  0
LWPOLYLINE
  5
205
330
17
100
AcDbEntity
  8
ROADS
100
AcDbPolyline
 90
2
 70
0
 10
621228.1813383431
 20
4831324.01646556
 10
621160.3059969932
 20
4831534.485442802
  0
LWPOLYLINE
  5
206
330
17
100
AcDbEntity
  8
ROADS
100
AcDbPolyline
 90
2
 70
0
 10
621594.6718560258
 20
4831445.779904856
 10
621529.1531435723
 20
4831423.460230792
  0
LWPOLYLINE
  5
207
330
17
100
AcDbEntity
  8
ROADS
100
AcDbPolyline
 90
2
 70
0
 10
621323.7320515265
 20
4831356.370100118
 10
621255.6364379714
 20
4831565.689101226
  0
LWPOLYLINE
  5
208
330
17
100
AcDbEntity
  8
ROADS
100
AcDbPolyline
 90
2
 70
0
 10
621529.1531435723
 20
4831423.460230792
 10
621503.513281695
 20
4831502.763566542
  0
LWPOLYLINE
  5
209
330
17
100
AcDbEntity
  8
ROADS
100
AcDbPolyline
 90
2
 70
0
 10
621421.9022906387
 20
4831388.647073681
 10
621353.0463966123
 20
4831597.31336551
  0
LWPOLYLINE
  5
20A
330
17
100
AcDbEntity
  8
ROADS
100
AcDbPolyline
 90
2
 70
0
 10
621503.513281695
 20
4831502.763566542
 10
621477.4028299932
 20
4831580.658325598
  0
LWPOLYLINE
  5
20B
330
17
100
AcDbEntity
  8
ROADS
100
AcDbPolyline
 90
2
 70
0
 10
621160.3059969932
 20
4831534.485442802
 10
621255.6364379714
 20
4831565.689101226
  0
LWPOLYLINE
  5
20C
330
17
100
AcDbEntity
  8
ROADS
100
AcDbPolyline
 90
4
 70
0
 10
621477.4028299932
 20
4831580.658325598
 10
621607.6292269833
 20
4831623.302994914
 10
621672.7690097621
 20
4831558.93894374
 10
621503.513281695
 20
4831502.763566542
  0
LWPOLYLINE
  5
20D
330
17
100
AcDbEntity
  8
ROADS
100
AcDbPolyline
 90
2
 70
0
 10
621255.6364379714
 20
4831565.689101226
 10
621353.0463966123
 20
4831597.31336551
  0
LWPOLYLINE
  5
20E
330
17
100
AcDbEntity
  8
ROADS
100
AcDbPolyline
 90
2
 70
0
 10
620897.8104478209
 20
4831449.36441544
 10
620979.8530082118
 20
4831475.931763091
  0
LWPOLYLINE
  5
20F
330
17
100
AcDbEntity
  8
ROADS
100
AcDbPolyline
 90
2
 70
0
 10
620890.7253574518
 20
4831490.368174602
 10
620897.8104478209
 20
4831449.36441544
  0
LWPOLYLINE
  5
210
330
17
100
AcDbEntity
  8
ROADS
100
AcDbPolyline
 90
2
 70
0
 10
620890.7253574518
 20
4831490.368174602
 10
620801.6692982184
 20
4831461.4330211785
  0
LWPOLYLINE
  5
211
330
17
100
AcDbEntity
  8
ROADS
100
AcDbPolyline
 90
2
 70
0
 10
620968.5282402037
 20
4831516.851932335
 10
620979.8530082118
 20
4831475.931763091
  0
LWPOLYLINE
  5
212
330
17
100
AcDbEntity
  8
ROADS
100
AcDbPolyline
 90
2
 70
0
 10
620968.5282402037
 20
4831516.851932335
 10
620890.7253574518
 20
4831490.368174602
  0
LWPOLYLINE
  5
213
330
17
100
AcDbEntity
  8
ROADS
100
AcDbPolyline
 90
2
 70
0
 10
620890.7253574518
 20
4831490.368174602
 10
620881.3587280902
 20
4831538.481017717
  0
LWPOLYLINE
  5
214
330
17
100
AcDbEntity
  8
ROADS
100
AcDbPolyline
 90
2
 70
0
 10
621062.6806035273
 20
4831503.330342255
 10
621160.3059969932
 20
4831534.485442802
  0
LWPOLYLINE
  5
215
330
17
100
AcDbEntity
  8
ROADS
100
AcDbPolyline
 90
2
 70
0
 10
620988.7392030285
 20
4831523.212347256
 10
620968.5282402037
 20
4831516.851932335
  0
LWPOLYLINE
  5
216
330
17
100
AcDbEntity
  8
ROADS
100
AcDbPolyline
 90
2
 70
0
 10
621062.6806035273
 20
4831503.330342255
 10
621049.6940039884
 20
4831542.908439024
  0
LWPOLYLINE
  5
217
330
17
100
AcDbEntity
  8
ROADS
100
AcDbPolyline
 90
2
 70
0
 10
620787.5882267915
 20
4831508.7846466815
 10
620881.3587280902
 20
4831538.481017717
  0
LWPOLYLINE
  5
218
330
17
100
AcDbEntity
  8
ROADS
100
AcDbPolyline
 90
2
 70
0
 10
621049.6940039884
 20
4831542.908439024
 10
620988.7392030285
 20
4831523.212347256
  0
LWPOLYLINE
  5
219
330
17
100
AcDbEntity
  8
ROADS
100
AcDbPolyline
 90
2
 70
0
 10
620988.7392030285
 20
4831523.212347256
 10
620972.5371450757
 20
4831568.398584352
  0
LWPOLYLINE
  5
21A
330
17
100
AcDbEntity
  8
ROADS
100
AcDbPolyline
 90
2
 70
0
 10
620881.3587280902
 20
4831538.481017717
 10
620972.5371450757
 20
4831568.398584352
  0
LWPOLYLINE
  5
21B
330
17
100
AcDbEntity
  8
ROADS
100
AcDbPolyline
 90
2
 70
0
 10
621160.3059969932
 20
4831534.485442802
 10
621147.9851035348
 20
4831573.693560873
  0
LWPOLYLINE
  5
21C
330
17
100
AcDbEntity
  8
ROADS
100
AcDbPolyline
 90
2
 70
0
 10
621127.6622721162
 20
4831567.325118613
 10
621049.6940039884
 20
4831542.908439024
  0
LWPOLYLINE
  5
21D
330
17
100
AcDbEntity
  8
ROADS
100
AcDbPolyline
 90
2
 70
0
 10
621147.9851035348
 20
4831573.693560873
 10
621127.6622721162
 20
4831567.325118613
  0
LWPOLYLINE
  5
21E
330
17
100
AcDbEntity
  8
ROADS
100
AcDbPolyline
 90
2
 70
0
 10
621127.6622721162
 20
4831567.325118613
 10
621112.1609960122
 20
4831615.402659366
  0
LWPOLYLINE
  5
21F
330
17
100
AcDbEntity
  8
ROADS
100
AcDbPolyline
 90
2
 70
0
 10
620972.5371450757
 20
4831568.398584352
 10
621112.1609960122
 20
4831615.402659366
  0
LWPOLYLINE
  5
220
330
17
100
AcDbEntity
  8
ROADS
100
AcDbPolyline
 90
2
 70
0
 10
620881.3587280902
 20
4831538.481017717
 10
620831.647733032
 20
4831685.484199148
  0
LWPOLYLINE
  5
221
330
17
100
AcDbEntity
  8
ROADS
100
AcDbPolyline
 90
2
 70
0
 10
620972.5371450757
 20
4831568.398584352
 10
620941.4439591888
 20
4831667.467104802
  0
LWPOLYLINE
  5
222
330
17
100
AcDbEntity
  8
ROADS
100
AcDbPolyline
 90
2
 70
0
 10
621255.6364379714
 20
4831565.689101226
 10
621243.3093339842
 20
4831603.580059286
  0
LWPOLYLINE
  5
223
330
17
100
AcDbEntity
  8
ROADS
100
AcDbPolyline
 90
2
 70
0
 10
621224.5608085085
 20
4831599.080138034
 10
621147.9851035348
 20
4831573.693560873
  0
LWPOLYLINE
  5
224
330
17
100
AcDbEntity
  8
ROADS
100
AcDbPolyline
 90
2
 70
0
 10
621243.3093339842
 20
4831603.580059286
 10
621224.5608085085
 20
4831599.080138034
  0
LWPOLYLINE
  5
225
330
17
100
AcDbEntity
  8
ROADS
100
AcDbPolyline
 90
2
 70
0
 10
621353.0463966123
 20
4831597.31336551
 10
621401.9282349899
 20
4831612.885188926
  0
LWPOLYLINE
  5
226
330
17
100
AcDbEntity
  8
ROADS
100
AcDbPolyline
 90
2
 70
0
 10
621312.3380060986
 20
4831625.962166995
 10
621243.3093339842
 20
4831603.580059286
  0
LWPOLYLINE
  5
227
330
17
100
AcDbEntity
  8
ROADS
100
AcDbPolyline
 90
2
 70
0
 10
621353.0463966123
 20
4831597.31336551
 10
621340.6024802637
 20
4831635.02721525
  0
LWPOLYLINE
  5
228
330
17
100
AcDbEntity
  8
ROADS
100
AcDbPolyline
 90
2
 70
0
 10
621224.5608085085
 20
4831599.080138034
 10
621209.0156461688
 20
4831646.929388446
  0
LWPOLYLINE
  5
229
330
17
100
AcDbEntity
  8
ROADS
100
AcDbPolyline
 90
2
 70
0
 10
621477.4028299932
 20
4831580.658325598
 10
621447.4894620052
 20
4831669.718864109
  0
LWPOLYLINE
  5
22A
330
17
100
AcDbEntity
  8
ROADS
100
AcDbPolyline
 90
2
 70
0
 10
621340.6024802637
 20
4831635.02721525
 10
621312.3380060986
 20
4831625.962166995
  0
LWPOLYLINE
  5
22B
330
17
100
AcDbEntity
  8
ROADS
100
AcDbPolyline
 90
2
 70
0
 10
621112.1609960122
 20
4831615.402659366
 10
621209.0156461688
 20
4831646.929388446
  0
LWPOLYLINE
  5
22C
330
17
100
AcDbEntity
  8
ROADS
100
AcDbPolyline
 90
2
 70
0
 10
620486.2048971604
 20
4831566.882150386
 10
620513.1719367946
 20
4831613.049283471
  0
LWPOLYLINE
  5
22D
330
17
100
AcDbEntity
  8
ROADS
100
AcDbPolyline
 90
2
 70
0
 10
620486.2048971604
 20
4831566.882150386
 10
620400.7746088805
 20
4831626.369181634
  0
LWPOLYLINE
  5
22E
330
17
100
AcDbEntity
  8
ROADS
100
AcDbPolyline
 90
3
 70
0
 10
620513.1719367946
 20
4831613.049283471
 10
620542.633504374
 20
4831616.019682543
 10
620540.7965213596
 20
4831642.748613942
  0
LWPOLYLINE
  5
22F
330
17
100
AcDbEntity
  8
ROADS
100
AcDbPolyline
 90
2
 70
0
 10
620513.1719367946
 20
4831613.049283471
 10
620540.7965213596
 20
4831642.748613942
  0
LWPOLYLINE
  5
230
330
17
100
AcDbEntity
  8
ROADS
100
AcDbPolyline
 90
2
 70
0
 10
620757.7690910479
 20
4831608.630168433
 10
620742.210028369
 20
4831655.866074341
  0
LWPOLYLINE
  5
231
330
17
100
AcDbEntity
  8
ROADS
100
AcDbPolyline
 90
5
 70
0
 10
620757.7690910479
 20
4831608.630168433
 10
620718.5145490678
 20
4831600.154608071
 10
620696.5053674557
 20
4831625.076030399
 10
620707.658461283
 20
4831651.443648482
 10
620739.4361395453
 20
4831665.816381612
  0
LWPOLYLINE
  5
232
330
17
100
AcDbEntity
  8
ROADS
100
AcDbPolyline
 90
3
 70
0
 10
620615.5518977473
 20
4831572.551250427
 10
620600.6135968349
 20
4831601.979603799
 10
620630.9897652756
 20
4831715.95120638
  0
LWPOLYLINE
  5
233
330
17
100
AcDbEntity
  8
ROADS
100
AcDbPolyline
 90
2
 70
0
 10
620742.210028369
 20
4831655.866074341
 10
620739.4361395453
 20
4831665.816381612
  0
LWPOLYLINE
  5
234
330
17
100
AcDbEntity
  8
ROADS
100
AcDbPolyline
 90
2
 70
0
 10
620831.647733032
 20
4831685.484199148
 10
620742.210028369
 20
4831655.866074341
  0
LWPOLYLINE
  5
235
330
17
100
AcDbEntity
  8
ROADS
100
AcDbPolyline
 90
2
 70
0
 10
620540.7965213596
 20
4831642.748613942
 10
620594.6003335838
 20
4831716.443777543
  0
LWPOLYLINE
  5
236
330
17
100
AcDbEntity
  8
ROADS
100
AcDbPolyline
 90
3
 70
0
 10
620519.4402800057
 20
4831720.036007287
 10
620473.9644467935
 20
4831686.878009871
 10
620444.7365091589
 20
4831692.508183919
  0
LWPOLYLINE
  5
237
330
17
100
AcDbEntity
  8
ROADS
100
AcDbPolyline
 90
2
 70
0
 10
620739.4361395453
 20
4831665.816381612
 10
620714.3850668591
 20
4831741.368990977
  0
LWPOLYLINE
  5
238
330
17
100
AcDbEntity
  8
ROADS
100
AcDbPolyline
 90
2
 70
0
 10
620594.6003335838
 20
4831716.443777543
 10
620630.9897652756
 20
4831715.95120638
  0
LWPOLYLINE
  5
239
330
17
100
AcDbEntity
  8
ROADS
100
AcDbPolyline
 90
2
 70
0
 10
620630.9897652756
 20
4831715.95120638
 10
620611.8321188617
 20
4831740.7941304
  0
LWPOLYLINE
  5
23A
330
17
100
AcDbEntity
  8
ROADS
100
AcDbPolyline
 90
2
 70
0
 10
620594.6003335838
 20
4831716.443777543
 10
620611.8321188617
 20
4831740.7941304
  0
LWPOLYLINE
  5
23B
330
17
100
AcDbEntity
  8
ROADS
100
AcDbPolyline
 90
2
 70
0
 10
620714.3850668591
 20
4831741.368990977
 10
620630.9897652756
 20
4831715.95120638
  0
LWPOLYLINE
  5
23C
330
17
100
AcDbEntity
  8
ROADS
100
AcDbPolyline
 90
2
 70
0
 10
620594.6003335838
 20
4831716.443777543
 10
620577.2167017558
 20
4831752.083203664
  0
LWPOLYLINE
  5
23D
330
17
100
AcDbEntity
  8
ROADS
100
AcDbPolyline
 90
2
 70
0
 10
620577.2167017558
 20
4831752.083203664
 10
620519.4402800057
 20
4831720.036007287
  0
LWPOLYLINE
  5
23E
330
17
100
AcDbEntity
  8
ROADS
100
AcDbPolyline
 90
2
 70
0
 10
620519.4402800057
 20
4831720.036007287
 10
620503.010896602
 20
4831742.442794602
  0
LWPOLYLINE
  5
23F
330
17
100
AcDbEntity
  8
ROADS
100
AcDbPolyline
 90
2
 70
0
 10
620611.8321188617
 20
4831740.7941304
 10
620577.2167017558
 20
4831752.083203664
  0
LWPOLYLINE
  5
240
330
17
100
AcDbEntity
  8
ROADS
100
AcDbPolyline
 90
2
 70
0
 10
620444.7365091589
 20
4831692.508183919
 10
620429.6167651028
 20
4831701.882458908
  0
LWPOLYLINE
  5
241
330
17
100
AcDbEntity
  8
ROADS
100
AcDbPolyline
 90
2
 70
0
 10
621402.1388304197
 20
4831655.859904198
 10
621340.6024802637
 20
4831635.02721525
  0
LWPOLYLINE
  5
242
330
17
100
AcDbEntity
  8
ROADS
100
AcDbPolyline
 90
2
 70
0
 10
621312.3380060986
 20
4831625.962166995
 10
621297.4889137518
 20
4831671.926921437
  0
LWPOLYLINE
  5
243
330
17
100
AcDbEntity
  8
ROADS
100
AcDbPolyline
 90
2
 70
0
 10
621447.4894620052
 20
4831669.718864109
 10
621402.1388304197
 20
4831655.859904198
  0
LWPOLYLINE
  5
244
330
17
100
AcDbEntity
  8
ROADS
100
AcDbPolyline
 90
2
 70
0
 10
621297.4889137518
 20
4831671.926921437
 10
621274.8635179335
 20
4831664.974844685
  0
LWPOLYLINE
  5
245
330
17
100
AcDbEntity
  8
ROADS
100
AcDbPolyline
 90
2
 70
0
 10
621297.4889137518
 20
4831671.926921437
 10
621320.3585349196
 20
4831679.697447671
  0
LWPOLYLINE
  5
246
330
17
100
AcDbEntity
  8
ROADS
100
AcDbPolyline
 90
2
 70
0
 10
621488.5736718785
 20
4831682.926717523
 10
621447.4894620052
 20
4831669.718864109
  0
LWPOLYLINE
  5
247
330
17
100
AcDbEntity
  8
ROADS
100
AcDbPolyline
 90
2
 70
0
 10
621209.0156461688
 20
4831646.929388446
 10
621178.6961049557
 20
4831740.26069845
  0
LWPOLYLINE
  5
248
330
17
100
AcDbEntity
  8
ROADS
100
AcDbPolyline
 90
2
 70
0
 10
621297.4889137518
 20
4831671.926921437
 10
621267.027640286
 20
4831771.219956013
  0
LWPOLYLINE
  5
249
330
17
100
AcDbEntity
  8
ROADS
100
AcDbPolyline
 90
2
 70
0
 10
621402.1388304197
 20
4831655.859904198
 10
621354.24216573
 20
4831801.680026056
  0
LWPOLYLINE
  5
24A
330
17
100
AcDbEntity
  8
ROADS
100
AcDbPolyline
 90
2
 70
0
 10
621488.5736718785
 20
4831682.926717523
 10
621466.0153763503
 20
4831760.4314727085
  0
LWPOLYLINE
  5
24B
330
17
100
AcDbEntity
  8
ROADS
100
AcDbPolyline
 90
2
 70
0
 10
621112.1609960122
 20
4831615.402659366
 10
621081.380525606
 20
4831710.999215924
  0
LWPOLYLINE
  5
24C
330
17
100
AcDbEntity
  8
ROADS
100
AcDbPolyline
 90
2
 70
0
 10
621006.9436517027
 20
4831687.843362002
 10
620941.4439591888
 20
4831667.467104802
  0
LWPOLYLINE
  5
24D
330
17
100
AcDbEntity
  8
ROADS
100
AcDbPolyline
 90
2
 70
0
 10
620941.4439591888
 20
4831667.467104802
 10
620925.8052569312
 20
4831713.187530036
  0
LWPOLYLINE
  5
24E
330
17
100
AcDbEntity
  8
ROADS
100
AcDbPolyline
 90
2
 70
0
 10
620925.8052569312
 20
4831713.187530036
 10
620831.647733032
 20
4831685.484199148
  0
LWPOLYLINE
  5
24F
330
17
100
AcDbEntity
  8
ROADS
100
AcDbPolyline
 90
2
 70
0
 10
621081.380525606
 20
4831710.999215924
 10
621006.9436517027
 20
4831687.843362002
  0
LWPOLYLINE
  5
250
330
17
100
AcDbEntity
  8
ROADS
100
AcDbPolyline
 90
2
 70
0
 10
621178.6961049557
 20
4831740.26069845
 10
621081.380525606
 20
4831710.999215924
  0
LWPOLYLINE
  5
251
330
17
100
AcDbEntity
  8
ROADS
100
AcDbPolyline
 90
2
 70
0
 10
621006.9436517027
 20
4831687.843362002
 10
620965.6218713245
 20
4831823.503659312
  0
LWPOLYLINE
  5
252
330
17
100
AcDbEntity
  8
ROADS
100
AcDbPolyline
 90
2
 70
0
 10
620925.8052569312
 20
4831713.187530036
 10
620879.1558495114
 20
4831856.852609101
  0
LWPOLYLINE
  5
253
330
17
100
AcDbEntity
  8
ROADS
100
AcDbPolyline
 90
2
 70
0
 10
621081.380525606
 20
4831710.999215924
 10
621030.1132826515
 20
4831862.203264177
  0
LWPOLYLINE
  5
254
330
17
100
AcDbEntity
  8
ROADS
100
AcDbPolyline
 90
2
 70
0
 10
620965.6218713245
 20
4831823.503659312
 10
620943.0670383541
 20
4831815.857823743
  0
LWPOLYLINE
  5
255
330
17
100
AcDbEntity
  8
ROADS
100
AcDbPolyline
 90
2
 70
0
 10
620831.647733032
 20
4831685.484199148
 10
620782.6660955524
 20
4831838.609776619
  0
LWPOLYLINE
  5
256
330
17
100
AcDbEntity
  8
ROADS
100
AcDbPolyline
 90
2
 70
0
 10
620714.3850668591
 20
4831741.368990977
 10
620691.2099227858
 20
4831809.955187363
  0
LWPOLYLINE
  5
257
330
17
100
AcDbEntity
  8
ROADS
100
AcDbPolyline
 90
2
 70
0
 10
620577.2167017558
 20
4831752.083203664
 10
620570.1607986079
 20
4831773.405976274
  0
LWPOLYLINE
  5
258
330
17
100
AcDbEntity
  8
ROADS
100
AcDbPolyline
 90
2
 70
0
 10
620691.2099227858
 20
4831809.955187363
 10
620689.2675493346
 20
4831815.587016578
  0
LWPOLYLINE
  5
259
330
17
100
AcDbEntity
  8
ROADS
100
AcDbPolyline
 90
2
 70
0
 10
620782.6660955524
 20
4831838.609776619
 10
620691.2099227858
 20
4831809.955187363
  0
LWPOLYLINE
  5
25A
330
17
100
AcDbEntity
  8
ROADS
100
AcDbPolyline
 90
2
 70
0
 10
621267.027640286
 20
4831771.219956013
 10
621178.6961049557
 20
4831740.26069845
  0
LWPOLYLINE
  5
25B
330
17
100
AcDbEntity
  8
ROADS
100
AcDbPolyline
 90
2
 70
0
 10
621354.24216573
 20
4831801.680026056
 10
621267.027640286
 20
4831771.219956013
  0
LWPOLYLINE
  5
25C
330
17
100
AcDbEntity
  8
ROADS
100
AcDbPolyline
 90
2
 70
0
 10
621357.9206226353
 20
4831802.671106611
 10
621354.24216573
 20
4831801.680026056
  0
LWPOLYLINE
  5
25D
330
17
100
AcDbEntity
  8
ROADS
100
AcDbPolyline
 90
2
 70
0
 10
621267.027640286
 20
4831771.219956013
 10
621246.8877987928
 20
4831831.49378184
  0
LWPOLYLINE
  5
25E
330
17
100
AcDbEntity
  8
ROADS
100
AcDbPolyline
 90
2
 70
0
 10
621354.24216573
 20
4831801.680026056
 10
621353.7060882194
 20
4831804.190606603
  0
LWPOLYLINE
  5
25F
330
17
100
AcDbEntity
  8
ROADS
100
AcDbPolyline
 90
2
 70
0
 10
621178.6961049557
 20
4831740.26069845
 10
621146.3647488807
 20
4831851.653936359
  0
LWPOLYLINE
  5
260
330
17
100
AcDbEntity
  8
ROADS
100
AcDbPolyline
 90
2
 70
0
 10
620965.6218713245
 20
4831823.503659312
 10
620959.1387700895
 20
4831842.810359904
  0
LWPOLYLINE
  5
261
330
17
100
AcDbEntity
  8
ROADS
100
AcDbPolyline
 90
2
 70
0
 10
620797.6522036135
 20
4831843.492690415
 10
620782.6660955524
 20
4831838.609776619
  0
ENDSEC
  0
SECTION
  2
OBJECTS
  0
DICTIONARY
  5
A
330
0
100
AcDbDictionary
281
1
  3
ACAD_COLOR
350
B
  3
ACAD_GROUP
350
C
  3
ACAD_LAYOUT
350
D
  3
ACAD_MATERIAL
350
E
  3
ACAD_MLEADERSTYLE
350
F
  3
ACAD_MLINESTYLE
350
10
  3
ACAD_PLOTSETTINGS
350
11
  3
ACAD_PLOTSTYLENAME
350
12
  3
ACAD_SCALELIST
350
14
  3
ACAD_TABLESTYLE
350
15
  3
ACAD_VISUALSTYLE
350
16
  3
EZDXF_META
350
2D
  0
DICTIONARY
  5
B
330
A
100
AcDbDictionary
281
1
  0
DICTIONARY
  5
C
330
A
100
AcDbDictionary
281
1
  0
DICTIONARY
  5
D
330
A
100
AcDbDictionary
281
1
  3
Model
350
1A
  3
Layout1
350
1E
  0
DICTIONARY
  5
E
330
A
100
AcDbDictionary
281
1
  3
ByBlock
350
1F
  3
ByLayer
350
20
  3
Global
350
21
  0
DICTIONARY
  5
F
330
A
100
AcDbDictionary
281
1
  3
Standard
350
2C
  0
DICTIONARY
  5
10
330
A
100
AcDbDictionary
281
1
  3
Standard
350
22
  0
DICTIONARY
  5
11
330
A
100
AcDbDictionary
281
1
  0
ACDBDICTIONARYWDFLT
  5
12
330
A
100
AcDbDictionary
281
1
  3
Normal
350
13
100
AcDbDictionaryWithDefault
340
13
  0
ACDBPLACEHOLDER
  5
13
330
12
  0
DICTIONARY
  5
14
330
A
100
AcDbDictionary
281
1
  0
DICTIONARY
  5
15
330
A
100
AcDbDictionary
281
1
  0
DICTIONARY
  5
16
330
A
100
AcDbDictionary
281
1
  0
LAYOUT
  5
1A
330
D
100
AcDbPlotSettings
  1

  4
A3
  6

 40
7.5
 41
20.0
 42
7.5
 43
20.0
 44
420.0
 45
297.0
 46
0.0
 47
0.0
 48
0.0
 49
0.0
140
0.0
141
0.0
142
1.0
143
1.0
 70
1024
 72
1
 73
0
 74
5
  7

 75
16
 76
0
 77
2
 78
300
147
1.0
148
0.0
149
0.0
100
AcDbLayout
  1
Model
 70
1
 71
0
 10
0.0
 20
0.0
 11
420.0
 21
297.0
 12
0.0
 22
0.0
 32
0.0
 14
1e+20
 24
1e+20
 34
1e+20
 15
-1e+20
 25
-1e+20
 35
-1e+20
146
0.0
 13
0.0
 23
0.0
 33
0.0
 16
1.0
 26
0.0
 36
0.0
 17
0.0
 27
1.0
 37
0.0
 76
1
330
17
  0
LAYOUT
  5
1E
330
D
100
AcDbPlotSettings
  1

  4
A3
  6

 40
7.5
 41
20.0
 42
7.5
 43
20.0
 44
420.0
 45
297.0
 46
0.0
 47
0.0
 48
0.0
 49
0.0
140
0.0
141
0.0
142
1.0
143
1.0
 70
0
 72
1
 73
0
 74
5
  7

 75
16
 76
0
 77
2
 78
300
147
1.0
148
0.0
149
0.0
100
AcDbLayout
  1
Layout1
 70
1
 71
1
 10
0.0
 20
0.0
 11
420.0
 21
297.0
 12
0.0
 22
0.0
 32
0.0
 14
1e+20
 24
1e+20
 34
1e+20
 15
-1e+20
 25
-1e+20
 35
-1e+20
146
0.0
 13
0.0
 23
0.0
 33
0.0
 16
1.0
 26
0.0
 36
0.0
 17
0.0
 27
1.0
 37
0.0
 76
1
330
1B
  0
MATERIAL
  5
1F
102
{ACAD_REACTORS
330
E
102
}
330
E
100
AcDbMaterial
  1
ByBlock
  2

 70
0
 40
1.0
 71
1
 41
1.0
 91
-1023410177
 42
1.0
 72
1
  3

 73
1
 74
1
 75
1
 44
0.5
 73
0
 45
1.0
 46
1.0
 77
1
  4

 78
1
 79
1
170
1
 48
1.0
171
1
  6

172
1
173
1
174
1
140
1.0
141
1.0
175
1
  7

176
1
177
1
178
1
143
1.0
179
1
  8

270
1
271
1
272
1
145
1.0
146
1.0
273
1
  9

274
1
275
1
276
1
 42
1.0
 72
1
  3

 73
1
 74
1
 75
1
 94
63
  0
MATERIAL
  5
20
102
{ACAD_REACTORS
330
E
102
}
330
E
100
AcDbMaterial
  1
ByLayer
  2

 70
0
 40
1.0
 71
1
 41
1.0
 91
-1023410177
 42
1.0
 72
1
  3

 73
1
 74
1
 75
1
 44
0.5
 73
0
 45
1.0
 46
1.0
 77
1
  4

 78
1
 79
1
170
1
 48
1.0
171
1
  6

172
1
173
1
174
1
140
1.0
141
1.0
175
1
  7

176
1
177
1
178
1
143
1.0
179
1
  8

270
1
271
1
272
1
145
1.0
146
1.0
273
1
  9

274
1
275
1
276
1
 42
1.0
 72
1
  3

 73
1
 74
1
 75
1
 94
63
  0
MATERIAL
  5
21
102
{ACAD_REACTORS
330
E
102
}
330
E
100
AcDbMaterial
  1
Global
  2

 70
0
 40
1.0
 71
1
 41
1.0
 91
-1023410177
 42
1.0
 72
1
  3

 73
1
 74
1
 75
1
 44
0.5
 73
0
 45
1.0
 46
1.0
 77
1
  4

 78
1
 79
1
170
1
 48
1.0
171
1
  6

172
1
173
1
174
1
140
1.0
141
1.0
175
1
  7

176
1
177
1
178
1
143
1.0
179
1
  8

270
1
271
1
272
1
145
1.0
146
1.0
273
1
  9

274
1
275
1
276
1
 42
1.0
 72
1
  3

 73
1
 74
1
 75
1
 94
63
  0
MLINESTYLE
  5
22
102
{ACAD_REACTORS
330
10
102
}
330
10
100
AcDbMlineStyle
  2
Standard
 70
0
  3

 62
256
 51
90.0
 52
90.0
 71
2
 49
0.5
 62
256
  6
BYLAYER
 49
-0.5
 62
256
  6
BYLAYER
  0
MLEADERSTYLE
  5
2C
102
{ACAD_REACTORS
330
F
102
}
330
F
100
AcDbMLeaderStyle
179
2
170
2
171
1
172
0
 90
2
 40
0.0
 41
0.0
173
1
 91
-1056964608
 92
-2
290
1
 42
2.0
291
1
 43
8.0
  3
Standard
 44
4.0
300

342
29
174
1
175
1
176
0
178
1
 93
-1056964608
 45
4.0
292
0
297
0
 46
4.0
 94
-1056964608
 47
1.0
 49
1.0
140
1.0
294
1
141
0.0
177
0
142
1.0
295
0
296
0
143
3.75
271
0
272
9
273
9
  0
DICTIONARY
  5
2D
330
A
100
AcDbDictionary
280
1
281
1
  3
CREATED_BY_EZDXF
350
2E
  3
WRITTEN_BY_EZDXF
350
264
  0
DICTIONARYVAR
  5
2E
330
2D
100
DictionaryVariables
280
0
  1
1.4.4 @ 2026-07-30T15:40:39.961039+00:00
  0
DICTIONARYVAR
  5
264
330
2D
100
DictionaryVariables
280
0
  1
1.4.4 @ 2026-07-30T15:40:40.000273+00:00
  0
ENDSEC
  0
EOF
