  0
SECTION
  2
HEADER
  9
$ACADVER
  1
AC1015
  9
$ACADMAINTVER
 70
6
  9
$DWGCODEPAGE
  3
ANSI_1252
  9
$INSBASE
 10
0.0
 20
0.0
 30
0.0
  9
$EXTMIN
 10
1e+20
 20
1e+20
 30
1e+20
  9
$EXTMAX
 10
-1e+20
 20
-1e+20
 30
-1e+20
  9
$LIMMIN
 10
0.0
 20
0.0
  9
$LIMMAX
 10
420.0
 20
297.0
  9
$ORTHOMODE
 70
0
  9
$REGENMODE
 70
1
  9
$FILLMODE
 70
1
  9
$QTEXTMODE
 70
0
  9
$MIRRTEXT
 70
1
  9
$LTSCALE
 40
1.0
  9
$ATTMODE
 70
1
  9
$TEXTSIZE
 40
2.5
  9
$TRACEWID
 40
1.0
  9
$TEXTSTYLE
  7
Standard
  9
$CLAYER
  8
0
  9
$CELTYPE
  6
ByLayer
  9
$CECOLOR
 62
256
  9
$CELTSCALE
 40
1.0
  9
$DISPSILH
 70
0
  9
$DIMSCALE
 40
1.0
  9
$DIMASZ
 40
2.5
  9
$DIMEXO
 40
0.625
  9
$DIMDLI
 40
3.75
  9
$DIMRND
 40
0.0
  9
$DIMDLE
 40
0.0
  9
$DIMEXE
 40
1.25
  9
$DIMTP
 40
0.0
  9
$DIMTM
 40
0.0
  9
$DIMTXT
 40
2.5
  9
$DIMCEN
 40
2.5
  9
$DIMTSZ
 40
0.0
  9
$DIMTOL
 70
0
  9
$DIMLIM
 70
0
  9
$DIMTIH
 70
0
  9
$DIMTOH
 70
0
  9
$DIMSE1
 70
0
  9
$DIMSE2
 70
0
  9
$DIMTAD
 70
1
  9
$DIMZIN
 70
8
  9
$DIMBLK
  1

  9
$DIMASO
 70
1
  9
$DIMSHO
 70
1
  9
$DIMPOST
  1

  9
$DIMAPOST
  1

  9
$DIMALT
 70
0
  9
$DIMALTD
 70
3
  9
$DIMALTF
 40
0.03937007874
  9
$DIMLFAC
 40
1.0
  9
$DIMTOFL
 70
1
  9
$DIMTVP
 40
0.0
  9
$DIMTIX
 70
0
  9
$DIMSOXD
 70
0
  9
$DIMSAH
 70
0
  9
$DIMBLK1
  1

  9
$DIMBLK2
  1

  9
$DIMSTYLE
  2
ISO-25
  9
$DIMCLRD
 70
0
  9
$DIMCLRE
 70
0
  9
$DIMCLRT
 70
0
  9
$DIMTFAC
 40
1.0
  9
$DIMGAP
 40
0.625
  9
$DIMJUST
 70
0
  9
$DIMSD1
 70
0
  9
$DIMSD2
 70
0
  9
$DIMTOLJ
 70
0
  9
$DIMTZIN
 70
8
  9
$DIMALTZ
 70
0
  9
$DIMALTTZ
 70
0
  9
$DIMUPT
 70
0
  9
$DIMDEC
 70
2
  9
$DIMTDEC
 70
2
  9
$DIMALTU
 70
2
  9
$DIMALTTD
 70
3
  9
$DIMTXSTY
  7
Standard
  9
$DIMAUNIT
 70
0
  9
$DIMADEC
 70
0
  9
$DIMALTRND
 40
0.0
  9
$DIMAZIN
 70
0
  9
$DIMDSEP
 70
44
  9
$DIMATFIT
 70
3
  9
$DIMFRAC
 70
0
  9
$DIMLDRBLK
  1

  9
$DIMLUNIT
 70
2
  9
$DIMLWD
 70
-2
  9
$DIMLWE
 70
-2
  9
$DIMTMOVE
 70
0
  9
$LUNITS
 70
2
  9
$LUPREC
 70
4
  9
$SKETCHINC
 40
1.0
  9
$FILLETRAD
 40
10.0
  9
$AUNITS
 70
0
  9
$AUPREC
 70
2
  9
$MENU
  1
.
  9
$ELEVATION
 40
0.0
  9
$PELEVATION
 40
0.0
  9
$THICKNESS
 40
0.0
  9
$LIMCHECK
 70
0
  9
$CHAMFERA
 40
0.0
  9
$CHAMFERB
 40
0.0
  9
$CHAMFERC
 40
0.0
  9
$CHAMFERD
 40
0.0
  9
$SKPOLY
 70
0
  9
$TDCREATE
 40
2461229.600486111
  9
$TDUCREATE
 40
2458532.153996898
  9
$TDUPDATE
 40
2461229.600486111
  9
$TDUUPDATE
 40
2458532.1544311
  9
$TDINDWG
 40
0.0
  9
$TDUSRTIMER
 40
0.0
  9
$USRTIMER
 70
1
  9
$ANGBASE
 50
0.0
  9
$ANGDIR
 70
0
  9
$PDMODE
 70
0
  9
$PDSIZE
 40
0.0
  9
$PLINEWID
 40
0.0
  9
$SPLFRAME
 70
0
  9
$SPLINETYPE
 70
6
  9
$SPLINESEGS
 70
8
  9
$HANDSEED
  5
388
  9
$SURFTAB1
 70
6
  9
$SURFTAB2
 70
6
  9
$SURFTYPE
 70
6
  9
$SURFU
 70
6
  9
$SURFV
 70
6
  9
$UCSBASE
  2

  9
$UCSNAME
  2

  9
$UCSORG
 10
0.0
 20
0.0
 30
0.0
  9
$UCSXDIR
 10
1.0
 20
0.0
 30
0.0
  9
$UCSYDIR
 10
0.0
 20
1.0
 30
0.0
  9
$UCSORTHOREF
  2

  9
$UCSORTHOVIEW
 70
0
  9
$UCSORGTOP
 10
0.0
 20
0.0
 30
0.0
  9
$UCSORGBOTTOM
 10
0.0
 20
0.0
 30
0.0
  9
$UCSORGLEFT
 10
0.0
 20
0.0
 30
0.0
  9
$UCSORGRIGHT
 10
0.0
 20
0.0
 30
0.0
  9
$UCSORGFRONT
 10
0.0
 20
0.0
 30
0.0
  9
$UCSORGBACK
 10
0.0
 20
0.0
 30
0.0
  9
$PUCSBASE
  2

  9
$PUCSNAME
  2

  9
$PUCSORG
 10
0.0
 20
0.0
 30
0.0
  9
$PUCSXDIR
 10
1.0
 20
0.0
 30
0.0
  9
$PUCSYDIR
 10
0.0
 20
1.0
 30
0.0
  9
$PUCSORTHOREF
  2

  9
$PUCSORTHOVIEW
 70
0
  9
$PUCSORGTOP
 10
0.0
 20
0.0
 30
0.0
  9
$PUCSORGBOTTOM
 10
0.0
 20
0.0
 30
0.0
  9
$PUCSORGLEFT
 10
0.0
 20
0.0
 30
0.0
  9
$PUCSORGRIGHT
 10
0.0
 20
0.0
 30
0.0
  9
$PUCSORGFRONT
 10
0.0
 20
0.0
 30
0.0
  9
$PUCSORGBACK
 10
0.0
 20
0.0
 30
0.0
  9
$USERI1
 70
0
  9
$USERI2
 70
0
  9
$USERI3
 70
0
  9
$USERI4
 70
0
  9
$USERI5
 70
0
  9
$USERR1
 40
0.0
  9
$USERR2
 40
0.0
  9
$USERR3
 40
0.0
  9
$USERR4
 40
0.0
  9
$USERR5
 40
0.0
  9
$WORLDVIEW
 70
1
  9
$SHADEDGE
 70
3
  9
$SHADEDIF
 70
70
  9
$TILEMODE
 70
1
  9
$MAXACTVP
 70
64
  9
$PINSBASE
 10
0.0
 20
0.0
 30
0.0
  9
$PLIMCHECK
 70
0
  9
$PEXTMIN
 10
1e+20
 20
1e+20
 30
1e+20
  9
$PEXTMAX
 10
-1e+20
 20
-1e+20
 30
-1e+20
  9
$PLIMMIN
 10
0.0
 20
0.0
  9
$PLIMMAX
 10
420.0
 20
297.0
  9
$UNITMODE
 70
0
  9
$VISRETAIN
 70
1
  9
$PLINEGEN
 70
0
  9
$PSLTSCALE
 70
1
  9
$TREEDEPTH
 70
3020
  9
$CMLSTYLE
  2
Standard
  9
$CMLJUST
 70
0
  9
$CMLSCALE
 40
20.0
  9
$PROXYGRAPHICS
 70
1
  9
$MEASUREMENT
 70
1
  9
$CELWEIGHT
370
-1
  9
$ENDCAPS
280
0
  9
$JOINSTYLE
280
0
  9
$LWDISPLAY
290
0
  9
$INSUNITS
 70
6
  9
$HYPERLINKBASE
  1

  9
$STYLESHEET
  1

  9
$XEDIT
290
1
  9
$CEPSNTYPE
380
0
  9
$PSTYLEMODE
290
1
  9
$FINGERPRINTGUID
  2
{E6064809-1C55-4E87-8FDA-08EB05048CA0}
  9
$VERSIONGUID
  2
{55B7F314-E4AE-4EB9-8DFB-6C2A7824AB44}
  9
$EXTNAMES
290
1
  9
$PSVPSCALE
 40
0.0
  9
$OLESTARTUP
290
0
  0
ENDSEC
  0
SECTION
  2
CLASSES
  0
CLASS
  1
ACDBDICTIONARYWDFLT
  2
AcDbDictionaryWithDefault
  3
ObjectDBX Classes
 90
0
280
0
281
0
  0
CLASS
  1
SUN
  2
AcDbSun
  3
SCENEOE
 90
1153
280
0
281
0
  0
CLASS
  1
VISUALSTYLE
  2
AcDbVisualStyle
  3
ObjectDBX Classes
 90
4095
280
0
281
0
  0
CLASS
  1
MATERIAL
  2
AcDbMaterial
  3
ObjectDBX Classes
 90
1153
280
0
281
0
  0
CLASS
  1
SCALE
  2
AcDbScale
  3
ObjectDBX Classes
 90
1153
280
0
281
0
  0
CLASS
  1
TABLESTYLE
  2
AcDbTableStyle
  3
ObjectDBX Classes
 90
4095
280
0
281
0
  0
CLASS
  1
MLEADERSTYLE
  2
AcDbMLeaderStyle
  3
ACDB_MLEADERSTYLE_CLASS
 90
4095
280
0
281
0
  0
CLASS
  1
DICTIONARYVAR
  2
AcDbDictionaryVar
  3
ObjectDBX Classes
 90
0
280
0
281
0
  0
CLASS
  1
CELLSTYLEMAP
  2
AcDbCellStyleMap
  3
ObjectDBX Classes
 90
1152
280
0
281
0
  0
CLASS
  1
MENTALRAYRENDERSETTINGS
  2
AcDbMentalRayRenderSettings
  3
SCENEOE
 90
1024
280
0
281
0
  0
CLASS
  1
ACDBDETAILVIEWSTYLE
  2
AcDbDetailViewStyle
  3
ObjectDBX Classes
 90
1025
280
0
281
0
  0
CLASS
  1
ACDBSECTIONVIEWSTYLE
  2
AcDbSectionViewStyle
  3
ObjectDBX Classes
 90
1025
280
0
281
0
  0
CLASS
  1
RASTERVARIABLES
  2
AcDbRasterVariables
  3
ISM
 90
0
280
0
281
0
  0
CLASS
  1
ACDBPLACEHOLDER
  2
AcDbPlaceHolder
  3
ObjectDBX Classes
 90
0
280
0
281
0
  0
CLASS
  1
LAYOUT
  2
AcDbLayout
  3
ObjectDBX Classes
 90
0
280
0
281
0
  0
ENDSEC
  0
SECTION
  2
TABLES
  0
TABLE
  2
VPORT
  5
8
330
0
100
AcDbSymbolTable
 70
1
  0
VPORT
  5
23
330
8
100
AcDbSymbolTableRecord
100
AcDbViewportTableRecord
  2
*Active
 70
0
 10
0.0
 20
0.0
 11
1.0
 21
1.0
 12
0.0
 22
0.0
 13
0.0
 23
0.0
 14
0.5
 24
0.5
 15
0.5
 25
0.5
 16
0.0
 26
0.0
 36
1.0
 17
0.0
 27
0.0
 37
0.0
 40
1000.0
 41
1.34
 42
50.0
 43
0.0
 44
0.0
 50
0.0
 51
0.0
 71
0
 72
1000
 73
1
 74
3
 75
0
 76
0
 77
0
 78
0
281
0
 65
0
146
0.0
  0
ENDTAB
  0
TABLE
  2
LTYPE
  5
2
330
0
100
AcDbSymbolTable
 70
3
  0
LTYPE
  5
24
330
2
100
AcDbSymbolTableRecord
100
AcDbLinetypeTableRecord
  2
ByBlock
 70
0
  3

 72
65
 73
0
 40
0.0
  0
LTYPE
  5
25
330
2
100
AcDbSymbolTableRecord
100
AcDbLinetypeTableRecord
  2
ByLayer
 70
0
  3

 72
65
 73
0
 40
0.0
  0
LTYPE
  5
26
330
2
100
AcDbSymbolTableRecord
100
AcDbLinetypeTableRecord
  2
Continuous
 70
0
  3

 72
65
 73
0
 40
0.0
  0
ENDTAB
  0
TABLE
  2
LAYER
  5
1
330
0
100
AcDbSymbolTable
 70
2
  0
LAYER
  5
27
330
1
100
AcDbSymbolTableRecord
100
AcDbLayerTableRecord
  2
0
 70
0
 62
7
  6
Continuous
370
-3
390
13
  0
LAYER
  5
28
330
1
100
AcDbSymbolTableRecord
100
AcDbLayerTableRecord
  2
Defpoints
 70
0
 62
7
  6
Continuous
290
0
370
-3
390
13
  0
ENDTAB
  0
TABLE
  2
STYLE
  5
5
330
0
100
AcDbSymbolTable
 70
1
  0
STYLE
  5
29
330
5
100
AcDbSymbolTableRecord
100
AcDbTextStyleTableRecord
  2
Standard
 70
0
 40
0.0
 41
1.0
 50
0.0
 71
0
 42
2.5
  3
txt
  4

  0
ENDTAB
  0
TABLE
  2
VIEW
  5
7
330
0
100
AcDbSymbolTable
 70
0
  0
ENDTAB
  0
TABLE
  2
UCS
  5
6
330
0
100
AcDbSymbolTable
 70
0
  0
ENDTAB
  0
TABLE
  2
APPID
  5
3
330
0
100
AcDbSymbolTable
 70
3
  0
APPID
  5
2A
330
3
100
AcDbSymbolTableRecord
100
AcDbRegAppTableRecord
  2
ACAD
 70
0
  0
APPID
  5
385
330
3
100
AcDbSymbolTableRecord
100
AcDbRegAppTableRecord
  2
HATCHBACKGROUNDCOLOR
 70
0
  0
APPID
  5
386
330
3
100
AcDbSymbolTableRecord
100
AcDbRegAppTableRecord
  2
EZDXF
 70
0
  0
ENDTAB
  0
TABLE
  2
DIMSTYLE
  5
4
330
0
100
AcDbSymbolTable
 70
1
100
AcDbDimStyleTable
  0
DIMSTYLE
105
2B
330
4
100
AcDbSymbolTableRecord
100
AcDbDimStyleTableRecord
  2
Standard
 70
0
  3

  4

 40
1.0
 41
2.5
 42
0.625
 43
3.75
 44
1.25
 45
0.0
 46
0.0
 47
0.0
 48
0.0
140
2.5
141
2.5
142
0.0
143
0.03937007874
144
1.0
145
0.0
146
1.0
147
0.625
148
0.0
 71
0
 72
0
 73
0
 74
0
 75
0
 76
0
 77
1
 78
8
 79
3
170
0
171
3
172
1
173
0
174
0
175
0
176
0
177
0
178
0
179
2
271
2
272
2
273
2
274
3
275
0
276
0
277
2
278
44
279
0
280
0
281
0
282
0
283
0
284
8
285
0
286
0
288
0
289
3
371
-2
372
-2
  0
ENDTAB
  0
TABLE
  2
BLOCK_RECORD
  5
9
330
0
100
AcDbSymbolTable
 70
2
  0
BLOCK_RECORD
  5
17
330
9
100
AcDbSymbolTableRecord
100
AcDbBlockTableRecord
  2
*Model_Space
340
1A
  0
BLOCK_RECORD
  5
1B
330
9
100
AcDbSymbolTableRecord
100
AcDbBlockTableRecord
  2
*Paper_Space
340
1E
  0
ENDTAB
  0
ENDSEC
  0
SECTION
  2
BLOCKS
  0
BLOCK
  5
18
330
17
100
AcDbEntity
  8
0
100
AcDbBlockBegin
  2
*Model_Space
 70
0
 10
0.0
 20
0.0
 30
0.0
  3
*Model_Space
  1

  0
ENDBLK
  5
19
330
17
100
AcDbEntity
  8
0
100
AcDbBlockEnd
  0
BLOCK
  5
1C
330
1B
100
AcDbEntity
  8
0
100
AcDbBlockBegin
  2
*Paper_Space
 70
0
 10
0.0
 20
0.0
 30
0.0
  3
*Paper_Space
  1

  0
ENDBLK
  5
1D
330
1B
100
AcDbEntity
  8
0
100
AcDbBlockEnd
  0
ENDSEC
  0
SECTION
  2
ENTITIES
  0
LWPOLYLINE
  5
2F
330
17
100
AcDbEntity
  8
ROADS
100
AcDbPolyline
 90
2
 70
0
 10
631998.4512254221
 20
4837135.329685815
 10
632053.7408878439
 20
4837151.314950941
  0
LWPOLYLINE
  5
30
330
17
100
AcDbEntity
  8
ROADS
100
AcDbPolyline
 90
2
 70
0
 10
632740.9692698274
 20
4836535.561838581
 10
632702.5241823066
 20
4836592.460865977
  0
LWPOLYLINE
  5
31
330
17
100
AcDbEntity
  8
ROADS
100
AcDbPolyline
 90
2
 70
0
 10
632702.5241823066
 20
4836592.460865977
 10
632763.7797771463
 20
4836612.216976392
  0
LWPOLYLINE
  5
32
330
17
100
AcDbEntity
  8
ROADS
100
AcDbPolyline
 90
2
 70
0
 10
632702.5241823066
 20
4836592.460865977
 10
632653.1263864225
 20
4836676.799302134
  0
LWPOLYLINE
  5
33
330
17
100
AcDbEntity
  8
ROADS
100
AcDbPolyline
 90
2
 70
0
 10
633304.0059827004
 20
4836573.295088802
 10
633303.5946586693
 20
4836574.660354067
  0
LWPOLYLINE
  5
34
330
17
100
AcDbEntity
  8
ROADS
100
AcDbPolyline
 90
2
 70
0
 10
633746.561426295
 20
4836641.761041283
 10
633735.3389737781
 20
4836676.897984117
  0
LWPOLYLINE
  5
35
330
17
100
AcDbEntity
  8
ROADS
100
AcDbPolyline
 90
2
 70
0
 10
634063.7614428785
 20
4836836.073429476
 10
634055.2724816153
 20
4836860.8268982945
  0
LWPOLYLINE
  5
36
330
17
100
AcDbEntity
  8
ROADS
100
AcDbPolyline
 90
2
 70
0
 10
634055.2724816153
 20
4836860.8268982945
 10
634047.2124849985
 20
4836887.004315926
  0
LWPOLYLINE
  5
37
330
17
100
AcDbEntity
  8
ROADS
100
AcDbPolyline
 90
2
 70
0
 10
634047.2124849985
 20
4836887.004315926
 10
634094.5312701114
 20
4836901.445114072
  0
LWPOLYLINE
  5
38
330
17
100
AcDbEntity
  8
ROADS
100
AcDbPolyline
 90
2
 70
0
 10
633300.6203362653
 20
4836573.708829405
 10
633303.5946586693
 20
4836574.660354067
  0
LWPOLYLINE
  5
39
330
17
100
AcDbEntity
  8
ROADS
100
AcDbPolyline
 90
2
 70
0
 10
632828.7362319727
 20
4836528.770191483
 10
633272.4405025223
 20
4836673.363960233
  0
LWPOLYLINE
  5
3A
330
17
100
AcDbEntity
  8
ROADS
100
AcDbPolyline
 90
2
 70
0
 10
632763.7797771463
 20
4836612.216976392
 10
632934.0173133791
 20
4836667.68242466
  0
LWPOLYLINE
  5
3B
330
17
100
AcDbEntity
  8
ROADS
100
AcDbPolyline
 90
2
 70
0
 10
633257.9949173131
 20
4836718.517379603
 10
633155.7524581631
 20
4836685.516073187
  0
LWPOLYLINE
  5
3C
330
17
100
AcDbEntity
  8
ROADS
100
AcDbPolyline
 90
3
 70
0
 10
632934.0173133791
 20
4836667.68242466
 10
632918.3374327478
 20
4836708.423132335
 10
632856.8954642811
 20
4836746.31416889
  0
LWPOLYLINE
  5
3D
330
17
100
AcDbEntity
  8
ROADS
100
AcDbPolyline
 90
2
 70
0
 10
632934.0173133791
 20
4836667.68242466
 10
633242.9600101066
 20
4836766.340352853
  0
LWPOLYLINE
  5
3E
330
17
100
AcDbEntity
  8
ROADS
100
AcDbPolyline
 90
2
 70
0
 10
633440.1096569826
 20
4836567.694556838
 10
633473.8712434683
 20
4836578.150382686
  0
LWPOLYLINE
  5
3F
330
17
100
AcDbEntity
  8
ROADS
100
AcDbPolyline
 90
2
 70
0
 10
633348.5066616533
 20
4836568.199583218
 10
633344.5876914216
 20
4836587.671587717
  0
LWPOLYLINE
  5
40
330
17
100
AcDbEntity
  8
ROADS
100
AcDbPolyline
 90
3
 70
0
 10
633566.72359688
 20
4836583.719874587
 10
633564.3209688964
 20
4836591.400863994
 10
633580.8773368082
 20
4836598.146764186
  0
LWPOLYLINE
  5
41
330
17
100
AcDbEntity
  8
ROADS
100
AcDbPolyline
 90
2
 70
0
 10
633303.5946586693
 20
4836574.660354067
 10
633344.5876914216
 20
4836587.671587717
  0
LWPOLYLINE
  5
42
330
17
100
AcDbEntity
  8
ROADS
100
AcDbPolyline
 90
2
 70
0
 10
633517.7952353365
 20
4836575.111496023
 10
633498.84153072
 20
4836636.041539694
  0
LWPOLYLINE
  5
43
330
17
100
AcDbEntity
  8
ROADS
100
AcDbPolyline
 90
2
 70
0
 10
633344.5876914216
 20
4836587.671587717
 10
633498.84153072
 20
4836636.041539694
  0
LWPOLYLINE
  5
44
330
17
100
AcDbEntity
  8
ROADS
100
AcDbPolyline
 90
2
 70
0
 10
633344.5876914216
 20
4836587.671587717
 10
633332.6342738598
 20
4836638.468534002
  0
LWPOLYLINE
  5
45
330
17
100
AcDbEntity
  8
ROADS
100
AcDbPolyline
 90
2
 70
0
 10
633303.5946586693
 20
4836574.660354067
 10
633272.4405025223
 20
4836673.363960233
  0
LWPOLYLINE
  5
46
330
17
100
AcDbEntity
  8
ROADS
100
AcDbPolyline
 90
2
 70
0
 10
633332.6342738598
 20
4836638.468534002
 10
633395.9151675644
 20
4836659.49540986
  0
LWPOLYLINE
  5
47
330
17
100
AcDbEntity
  8
ROADS
100
AcDbPolyline
 90
2
 70
0
 10
633498.84153072
 20
4836636.041539694
 10
633483.1475344591
 20
4836685.525767794
  0
LWPOLYLINE
  5
48
330
17
100
AcDbEntity
  8
ROADS
100
AcDbPolyline
 90
2
 70
0
 10
633785.1846128672
 20
4836661.2170785
 10
633777.4395318878
 20
4836686.292976626
  0
LWPOLYLINE
  5
49
330
17
100
AcDbEntity
  8
ROADS
100
AcDbPolyline
 90
2
 70
0
 10
633706.8107319403
 20
4836626.107390533
 10
633683.9674132292
 20
4836698.377872871
  0
LWPOLYLINE
  5
4A
330
17
100
AcDbEntity
  8
ROADS
100
AcDbPolyline
 90
2
 70
0
 10
633815.8626981975
 20
4836698.292692466
 10
633821.6665752506
 20
4836680.640033778
  0
LWPOLYLINE
  5
4B
330
17
100
AcDbEntity
  8
ROADS
100
AcDbPolyline
 90
2
 70
0
 10
633852.237126745
 20
4836699.935730361
 10
633849.1450885289
 20
4836708.874343417
  0
LWPOLYLINE
  5
4C
330
17
100
AcDbEntity
  8
ROADS
100
AcDbPolyline
 90
2
 70
0
 10
633735.3389737781
 20
4836676.897984117
 10
633752.9419898295
 20
4836683.004764391
  0
LWPOLYLINE
  5
4D
330
17
100
AcDbEntity
  8
ROADS
100
AcDbPolyline
 90
2
 70
0
 10
633777.4395318878
 20
4836686.292976626
 10
633815.8626981975
 20
4836698.292692466
  0
LWPOLYLINE
  5
4E
330
17
100
AcDbEntity
  8
ROADS
100
AcDbPolyline
 90
2
 70
0
 10
633735.3389737781
 20
4836676.897984117
 10
633723.2047687937
 20
4836711.863429413
  0
LWPOLYLINE
  5
4F
330
17
100
AcDbEntity
  8
ROADS
100
AcDbPolyline
 90
2
 70
0
 10
633815.8626981975
 20
4836698.292692466
 10
633849.1450885289
 20
4836708.874343417
  0
LWPOLYLINE
  5
50
330
17
100
AcDbEntity
  8
ROADS
100
AcDbPolyline
 90
2
 70
0
 10
633332.6342738598
 20
4836638.468534002
 10
633317.1404724452
 20
4836687.777343096
  0
LWPOLYLINE
  5
51
330
17
100
AcDbEntity
  8
ROADS
100
AcDbPolyline
 90
2
 70
0
 10
633498.84153072
 20
4836636.041539694
 10
633683.9674132292
 20
4836698.377872871
  0
LWPOLYLINE
  5
52
330
17
100
AcDbEntity
  8
ROADS
100
AcDbPolyline
 90
2
 70
0
 10
633483.1475344591
 20
4836685.525767794
 10
633427.7366500945
 20
4836667.574428039
  0
LWPOLYLINE
  5
53
330
17
100
AcDbEntity
  8
ROADS
100
AcDbPolyline
 90
2
 70
0
 10
633272.4405025223
 20
4836673.363960233
 10
633317.1404724452
 20
4836687.777343096
  0
LWPOLYLINE
  5
54
330
17
100
AcDbEntity
  8
ROADS
100
AcDbPolyline
 90
2
 70
0
 10
633272.4405025223
 20
4836673.363960233
 10
633257.9949173131
 20
4836718.517379603
  0
LWPOLYLINE
  5
55
330
17
100
AcDbEntity
  8
ROADS
100
AcDbPolyline
 90
2
 70
0
 10
633483.1475344591
 20
4836685.525767794
 10
633470.4227748817
 20
4836725.994952219
  0
LWPOLYLINE
  5
56
330
17
100
AcDbEntity
  8
ROADS
100
AcDbPolyline
 90
2
 70
0
 10
633317.1404724452
 20
4836687.777343096
 10
633303.3527588961
 20
4836732.7746506035
  0
LWPOLYLINE
  5
57
330
17
100
AcDbEntity
  8
ROADS
100
AcDbPolyline
 90
2
 70
0
 10
633317.1404724452
 20
4836687.777343096
 10
633466.5486175324
 20
4836735.996708758
  0
LWPOLYLINE
  5
58
330
17
100
AcDbEntity
  8
ROADS
100
AcDbPolyline
 90
2
 70
0
 10
633470.4227748817
 20
4836725.994952219
 10
633466.5486175324
 20
4836735.996708758
  0
LWPOLYLINE
  5
59
330
17
100
AcDbEntity
  8
ROADS
100
AcDbPolyline
 90
2
 70
0
 10
633470.4227748817
 20
4836725.994952219
 10
633513.0554063603
 20
4836740.750997592
  0
LWPOLYLINE
  5
5A
330
17
100
AcDbEntity
  8
ROADS
100
AcDbPolyline
 90
2
 70
0
 10
633683.9674132292
 20
4836698.377872871
 10
633723.2047687937
 20
4836711.863429413
  0
LWPOLYLINE
  5
5B
330
17
100
AcDbEntity
  8
ROADS
100
AcDbPolyline
 90
2
 70
0
 10
633777.4395318878
 20
4836686.292976626
 10
633763.2045340377
 20
4836724.5557097355
  0
LWPOLYLINE
  5
5C
330
17
100
AcDbEntity
  8
ROADS
100
AcDbPolyline
 90
2
 70
0
 10
633723.2047687937
 20
4836711.863429413
 10
633763.2045340377
 20
4836724.5557097355
  0
LWPOLYLINE
  5
5D
330
17
100
AcDbEntity
  8
ROADS
100
AcDbPolyline
 90
2
 70
0
 10
633897.1307916288
 20
4836730.932998369
 10
633886.5367950109
 20
4836764.641997593
  0
LWPOLYLINE
  5
5E
330
17
100
AcDbEntity
  8
ROADS
100
AcDbPolyline
 90
2
 70
0
 10
633849.1450885289
 20
4836708.874343417
 10
633836.4065485068
 20
4836748.390244208
  0
LWPOLYLINE
  5
5F
330
17
100
AcDbEntity
  8
ROADS
100
AcDbPolyline
 90
2
 70
0
 10
633723.2047687937
 20
4836711.863429413
 10
633713.6070083701
 20
4836752.733214967
  0
LWPOLYLINE
  5
60
330
17
100
AcDbEntity
  8
ROADS
100
AcDbPolyline
 90
2
 70
0
 10
633763.2045340377
 20
4836724.5557097355
 10
633836.4065485068
 20
4836748.390244208
  0
LWPOLYLINE
  5
61
330
17
100
AcDbEntity
  8
ROADS
100
AcDbPolyline
 90
2
 70
0
 10
633683.9674132292
 20
4836698.377872871
 10
633654.7999232925
 20
4836790.025929543
  0
LWPOLYLINE
  5
62
330
17
100
AcDbEntity
  8
ROADS
100
AcDbPolyline
 90
2
 70
0
 10
633836.4065485068
 20
4836748.390244208
 10
633886.5367950109
 20
4836764.641997593
  0
LWPOLYLINE
  5
63
330
17
100
AcDbEntity
  8
ROADS
100
AcDbPolyline
 90
4
 70
0
 10
633513.0554063603
 20
4836740.750997592
 10
633528.6409933673
 20
4836693.556992406
 10
633627.2084542492
 20
4836726.713899939
 10
633612.8015577127
 20
4836775.478357291
  0
LWPOLYLINE
  5
64
330
17
100
AcDbEntity
  8
ROADS
100
AcDbPolyline
 90
2
 70
0
 10
633257.9949173131
 20
4836718.517379603
 10
633242.9600101066
 20
4836766.340352853
  0
LWPOLYLINE
  5
65
330
17
100
AcDbEntity
  8
ROADS
100
AcDbPolyline
 90
2
 70
0
 10
633303.3527588961
 20
4836732.7746506035
 10
633289.6146981609
 20
4836776.4637475135
  0
LWPOLYLINE
  5
66
330
17
100
AcDbEntity
  8
ROADS
100
AcDbPolyline
 90
2
 70
0
 10
633303.3527588961
 20
4836732.7746506035
 10
633452.620884107
 20
4836780.38545368
  0
LWPOLYLINE
  5
67
330
17
100
AcDbEntity
  8
ROADS
100
AcDbPolyline
 90
2
 70
0
 10
633513.0554063603
 20
4836740.750997592
 10
633612.8015577127
 20
4836775.478357291
  0
LWPOLYLINE
  5
68
330
17
100
AcDbEntity
  8
ROADS
100
AcDbPolyline
 90
2
 70
0
 10
633466.5486175324
 20
4836735.996708758
 10
633452.620884107
 20
4836780.38545368
  0
LWPOLYLINE
  5
69
330
17
100
AcDbEntity
  8
ROADS
100
AcDbPolyline
 90
2
 70
0
 10
633242.9600101066
 20
4836766.340352853
 10
633246.760423091
 20
4836775.846830028
  0
LWPOLYLINE
  5
6A
330
17
100
AcDbEntity
  8
ROADS
100
AcDbPolyline
 90
2
 70
0
 10
633242.9600101066
 20
4836766.340352853
 10
633289.6146981609
 20
4836776.4637475135
  0
LWPOLYLINE
  5
6B
330
17
100
AcDbEntity
  8
ROADS
100
AcDbPolyline
 90
4
 70
0
 10
633513.0554063603
 20
4836740.750997592
 10
633497.5375671308
 20
4836788.014229054
 10
633597.4147291388
 20
4836822.353938817
 10
633612.8015577127
 20
4836775.478357291
  0
LWPOLYLINE
  5
6C
330
17
100
AcDbEntity
  8
ROADS
100
AcDbPolyline
 90
2
 70
0
 10
633612.8015577127
 20
4836775.478357291
 10
633654.7999232925
 20
4836790.025929543
  0
LWPOLYLINE
  5
6D
330
17
100
AcDbEntity
  8
ROADS
100
AcDbPolyline
 90
2
 70
0
 10
632856.8954642811
 20
4836746.31416889
 10
632829.388028013
 20
4836776.138644047
  0
LWPOLYLINE
  5
6E
330
17
100
AcDbEntity
  8
ROADS
100
AcDbPolyline
 90
2
 70
0
 10
632856.8954642811
 20
4836746.31416889
 10
632964.5857609371
 20
4836782.1081920285
  0
LWPOLYLINE
  5
6F
330
17
100
AcDbEntity
  8
ROADS
100
AcDbPolyline
 90
2
 70
0
 10
632964.5857609371
 20
4836782.1081920285
 10
632952.349866277
 20
4836820.153958003
  0
LWPOLYLINE
  5
70
330
17
100
AcDbEntity
  8
ROADS
100
AcDbPolyline
 90
2
 70
0
 10
633242.9600101066
 20
4836766.340352853
 10
633218.2352300036
 20
4836841.544301132
  0
LWPOLYLINE
  5
71
330
17
100
AcDbEntity
  8
ROADS
100
AcDbPolyline
 90
4
 70
0
 10
632964.5857609371
 20
4836782.1081920285
 10
633019.2227344011
 20
4836799.106458169
 10
633053.1617836783
 20
4836788.855314726
 10
633218.2352300036
 20
4836841.544301132
  0
LWPOLYLINE
  5
72
330
17
100
AcDbEntity
  8
ROADS
100
AcDbPolyline
 90
2
 70
0
 10
632952.349866277
 20
4836820.153958003
 10
632948.5800770511
 20
4836831.905723539
  0
LWPOLYLINE
  5
73
330
17
100
AcDbEntity
  8
ROADS
100
AcDbPolyline
 90
3
 70
0
 10
632801.1678093326
 20
4836812.805764249
 10
632845.7705843119
 20
4836842.821618279
 10
632866.0396488539
 20
4836883.223302479
  0
LWPOLYLINE
  5
74
330
17
100
AcDbEntity
  8
ROADS
100
AcDbPolyline
 90
2
 70
0
 10
632948.5800770511
 20
4836831.905723539
 10
633155.5688519352
 20
4836889.680025339
  0
LWPOLYLINE
  5
75
330
17
100
AcDbEntity
  8
ROADS
100
AcDbPolyline
 90
2
 70
0
 10
633218.2352300036
 20
4836841.544301132
 10
633197.9304545379
 20
4836903.383093643
  0
LWPOLYLINE
  5
76
330
17
100
AcDbEntity
  8
ROADS
100
AcDbPolyline
 90
2
 70
0
 10
632948.5800770511
 20
4836831.905723539
 10
632921.5837379345
 20
4836914.984149139
  0
LWPOLYLINE
  5
77
330
17
100
AcDbEntity
  8
ROADS
100
AcDbPolyline
 90
2
 70
0
 10
633289.6146981609
 20
4836776.4637475135
 10
633437.7902320407
 20
4836822.829712189
  0
LWPOLYLINE
  5
78
330
17
100
AcDbEntity
  8
ROADS
100
AcDbPolyline
 90
2
 70
0
 10
633452.620884107
 20
4836780.38545368
 10
633437.7902320407
 20
4836822.829712189
  0
LWPOLYLINE
  5
79
330
17
100
AcDbEntity
  8
ROADS
100
AcDbPolyline
 90
3
 70
0
 10
633289.6146981609
 20
4836776.4637475135
 10
633275.112963914
 20
4836821.403132603
 10
633423.6889669073
 20
4836869.79051919
  0
LWPOLYLINE
  5
7A
330
17
100
AcDbEntity
  8
ROADS
100
AcDbPolyline
 90
2
 70
0
 10
633654.7999232925
 20
4836790.025929543
 10
633624.824508227
 20
4836883.213486807
  0
LWPOLYLINE
  5
7B
330
17
100
AcDbEntity
  8
ROADS
100
AcDbPolyline
 90
2
 70
0
 10
633437.7902320407
 20
4836822.829712189
 10
633427.2103177311
 20
4836858.0622470565
  0
LWPOLYLINE
  5
7C
330
17
100
AcDbEntity
  8
ROADS
100
AcDbPolyline
 90
2
 70
0
 10
633437.7902320407
 20
4836822.829712189
 10
633586.2354980205
 20
4836869.325604539
  0
LWPOLYLINE
  5
7D
330
17
100
AcDbEntity
  8
ROADS
100
AcDbPolyline
 90
2
 70
0
 10
633427.2103177311
 20
4836858.0622470565
 10
633423.6889669073
 20
4836869.79051919
  0
LWPOLYLINE
  5
7E
330
17
100
AcDbEntity
  8
ROADS
100
AcDbPolyline
 90
2
 70
0
 10
633586.2354980205
 20
4836869.325604539
 10
633624.824508227
 20
4836883.213486807
  0
LWPOLYLINE
  5
7F
330
17
100
AcDbEntity
  8
ROADS
100
AcDbPolyline
 90
2
 70
0
 10
633423.6889669073
 20
4836869.79051919
 10
633414.165401583
 20
4836896.878496477
  0
LWPOLYLINE
  5
80
330
17
100
AcDbEntity
  8
ROADS
100
AcDbPolyline
 90
2
 70
0
 10
633427.2103177311
 20
4836858.0622470565
 10
633573.2687846563
 20
4836909.181370213
  0
LWPOLYLINE
  5
81
330
17
100
AcDbEntity
  8
ROADS
100
AcDbPolyline
 90
2
 70
0
 10
633713.6070083701
 20
4836752.733214967
 10
633696.6751338155
 20
4836804.305256714
  0
LWPOLYLINE
  5
82
330
17
100
AcDbEntity
  8
ROADS
100
AcDbPolyline
 90
2
 70
0
 10
633713.6070083701
 20
4836752.733214967
 10
633873.3194503838
 20
4836804.835798742
  0
LWPOLYLINE
  5
83
330
17
100
AcDbEntity
  8
ROADS
100
AcDbPolyline
 90
2
 70
0
 10
633886.5367950109
 20
4836764.641997593
 10
633873.3194503838
 20
4836804.835798742
  0
LWPOLYLINE
  5
84
330
17
100
AcDbEntity
  8
ROADS
100
AcDbPolyline
 90
2
 70
0
 10
633654.7999232925
 20
4836790.025929543
 10
633696.6751338155
 20
4836804.305256714
  0
LWPOLYLINE
  5
85
330
17
100
AcDbEntity
  8
ROADS
100
AcDbPolyline
 90
2
 70
0
 10
633873.3194503838
 20
4836804.835798742
 10
633967.1652951713
 20
4836832.120414811
  0
LWPOLYLINE
  5
86
330
17
100
AcDbEntity
  8
ROADS
100
AcDbPolyline
 90
2
 70
0
 10
633696.6751338155
 20
4836804.305256714
 10
633787.2471931995
 20
4836834.906434341
  0
LWPOLYLINE
  5
87
330
17
100
AcDbEntity
  8
ROADS
100
AcDbPolyline
 90
2
 70
0
 10
633696.6751338155
 20
4836804.305256714
 10
633680.7802035091
 20
4836854.1148998495
  0
LWPOLYLINE
  5
88
330
17
100
AcDbEntity
  8
ROADS
100
AcDbPolyline
 90
2
 70
0
 10
633967.1652951713
 20
4836832.120414811
 10
634055.2724816153
 20
4836860.8268982945
  0
LWPOLYLINE
  5
89
330
17
100
AcDbEntity
  8
ROADS
100
AcDbPolyline
 90
2
 70
0
 10
633967.1652951713
 20
4836832.120414811
 10
633918.8099230005
 20
4836976.707925149
  0
LWPOLYLINE
  5
8A
330
17
100
AcDbEntity
  8
ROADS
100
AcDbPolyline
 90
2
 70
0
 10
633624.824508227
 20
4836883.213486807
 10
633815.3352568788
 20
4836948.237567483
  0
LWPOLYLINE
  5
8B
330
17
100
AcDbEntity
  8
ROADS
100
AcDbPolyline
 90
2
 70
0
 10
633155.5688519352
 20
4836889.680025339
 10
633164.926723297
 20
4836860.748925829
  0
LWPOLYLINE
  5
8C
330
17
100
AcDbEntity
  8
ROADS
100
AcDbPolyline
 90
3
 70
0
 10
632952.349866277
 20
4836820.153958003
 10
632904.0361233
 20
4836804.609140282
 10
632855.5699038464
 20
4836952.293434309
  0
LWPOLYLINE
  5
8D
330
17
100
AcDbEntity
  8
ROADS
100
AcDbPolyline
 90
2
 70
0
 10
633246.760423091
 20
4836775.846830028
 10
633177.8992013839
 20
4837002.412791643
  0
LWPOLYLINE
  5
8E
330
17
100
AcDbEntity
  8
ROADS
100
AcDbPolyline
 90
2
 70
0
 10
633155.5688519352
 20
4836889.680025339
 10
633197.9304545379
 20
4836903.383093643
  0
LWPOLYLINE
  5
8F
330
17
100
AcDbEntity
  8
ROADS
100
AcDbPolyline
 90
3
 70
0
 10
633124.7604218753
 20
4836981.538266541
 10
633139.7340363261
 20
4836936.055397449
 10
632989.8562613222
 20
4836887.159441593
  0
LWPOLYLINE
  5
90
330
17
100
AcDbEntity
  8
ROADS
100
AcDbPolyline
 90
2
 70
0
 10
632921.5837379345
 20
4836914.984149139
 10
633124.7604218753
 20
4836981.538266541
  0
LWPOLYLINE
  5
91
330
17
100
AcDbEntity
  8
ROADS
100
AcDbPolyline
 90
2
 70
0
 10
633197.9304545379
 20
4836903.383093643
 10
633167.3174584269
 20
4836995.604908153
  0
LWPOLYLINE
  5
92
330
17
100
AcDbEntity
  8
ROADS
100
AcDbPolyline
 90
2
 70
0
 10
632921.5837379345
 20
4836914.984149139
 10
632889.2077536804
 20
4837013.724522187
  0
LWPOLYLINE
  5
93
330
17
100
AcDbEntity
  8
ROADS
100
AcDbPolyline
 90
2
 70
0
 10
633124.7604218753
 20
4836981.538266541
 10
633167.3174584269
 20
4836995.604908153
  0
LWPOLYLINE
  5
94
330
17
100
AcDbEntity
  8
ROADS
100
AcDbPolyline
 90
2
 70
0
 10
632789.8230334457
 20
4836986.122258308
 10
632889.2077536804
 20
4837013.724522187
  0
LWPOLYLINE
  5
95
330
17
100
AcDbEntity
  8
ROADS
100
AcDbPolyline
 90
3
 70
0
 10
632763.7797771463
 20
4836612.216976392
 10
632749.1390461556
 20
4836659.867997134
 10
632845.0646794664
 20
4836690.557859656
  0
LWPOLYLINE
  5
96
330
17
100
AcDbEntity
  8
ROADS
100
AcDbPolyline
 90
2
 70
0
 10
632653.1263864225
 20
4836676.799302134
 10
632688.2245205593
 20
4836688.336821924
  0
LWPOLYLINE
  5
97
330
17
100
AcDbEntity
  8
ROADS
100
AcDbPolyline
 90
2
 70
0
 10
632688.2245205593
 20
4836688.336821924
 10
632856.8954642811
 20
4836746.31416889
  0
LWPOLYLINE
  5
98
330
17
100
AcDbEntity
  8
ROADS
100
AcDbPolyline
 90
2
 70
0
 10
632653.1263864225
 20
4836676.799302134
 10
632617.3583559215
 20
4836760.545113374
  0
LWPOLYLINE
  5
99
330
17
100
AcDbEntity
  8
ROADS
100
AcDbPolyline
 90
3
 70
0
 10
632688.2245205593
 20
4836688.336821924
 10
632674.159026758
 20
4836728.897674923
 10
632829.388028013
 20
4836776.138644047
  0
LWPOLYLINE
  5
9A
330
17
100
AcDbEntity
  8
ROADS
100
AcDbPolyline
 90
3
 70
0
 10
632505.5856911913
 20
4836751.085365535
 10
632556.3637099954
 20
4836711.206397395
 10
632617.3583559215
 20
4836760.545113374
  0
LWPOLYLINE
  5
9B
330
17
100
AcDbEntity
  8
ROADS
100
AcDbPolyline
 90
2
 70
0
 10
632505.5856911913
 20
4836751.085365535
 10
632515.3101682125
 20
4836755.580547657
  0
LWPOLYLINE
  5
9C
330
17
100
AcDbEntity
  8
ROADS
100
AcDbPolyline
 90
2
 70
0
 10
632494.8907851741
 20
4836767.902293593
 10
632505.5856911913
 20
4836751.085365535
  0
LWPOLYLINE
  5
9D
330
17
100
AcDbEntity
  8
ROADS
100
AcDbPolyline
 90
2
 70
0
 10
632617.3583559215
 20
4836760.545113374
 10
632657.2264732274
 20
4836769.172661575
  0
LWPOLYLINE
  5
9E
330
17
100
AcDbEntity
  8
ROADS
100
AcDbPolyline
 90
2
 70
0
 10
632550.7162222038
 20
4836799.808185446
 10
632494.8907851741
 20
4836767.902293593
  0
LWPOLYLINE
  5
9F
330
17
100
AcDbEntity
  8
ROADS
100
AcDbPolyline
 90
2
 70
0
 10
632617.3583559215
 20
4836760.545113374
 10
632580.5113783404
 20
4836814.639085321
  0
LWPOLYLINE
  5
A0
330
17
100
AcDbEntity
  8
ROADS
100
AcDbPolyline
 90
2
 70
0
 10
632467.2931591718
 20
4836809.739536467
 10
632494.8907851741
 20
4836767.902293593
  0
LWPOLYLINE
  5
A1
330
17
100
AcDbEntity
  8
ROADS
100
AcDbPolyline
 90
2
 70
0
 10
632829.388028013
 20
4836776.138644047
 10
632801.1678093326
 20
4836812.805764249
  0
LWPOLYLINE
  5
A2
330
17
100
AcDbEntity
  8
ROADS
100
AcDbPolyline
 90
3
 70
0
 10
632657.2264732274
 20
4836769.172661575
 10
632761.7649681047
 20
4836798.744193645
 10
632782.1387573846
 20
4836822.901982047
  0
LWPOLYLINE
  5
A3
330
17
100
AcDbEntity
  8
ROADS
100
AcDbPolyline
 90
3
 70
0
 10
632657.2264732274
 20
4836769.172661575
 10
632646.8565363087
 20
4836805.321484189
 10
632765.112435431
 20
4836841.041043076
  0
LWPOLYLINE
  5
A4
330
17
100
AcDbEntity
  8
ROADS
100
AcDbPolyline
 90
2
 70
0
 10
632580.5113783404
 20
4836814.639085321
 10
632550.7162222038
 20
4836799.808185446
  0
LWPOLYLINE
  5
A5
330
17
100
AcDbEntity
  8
ROADS
100
AcDbPolyline
 90
2
 70
0
 10
632467.2931591718
 20
4836809.739536467
 10
632485.2602894126
 20
4836820.6492587635
  0
LWPOLYLINE
  5
A6
330
17
100
AcDbEntity
  8
ROADS
100
AcDbPolyline
 90
2
 70
0
 10
632782.1387573846
 20
4836822.901982047
 10
632801.1678093326
 20
4836812.805764249
  0
LWPOLYLINE
  5
A7
330
17
100
AcDbEntity
  8
ROADS
100
AcDbPolyline
 90
2
 70
0
 10
632477.7436944111
 20
4836859.418358255
 10
632550.7162222038
 20
4836799.808185446
  0
LWPOLYLINE
  5
A8
330
17
100
AcDbEntity
  8
ROADS
100
AcDbPolyline
 90
2
 70
0
 10
632782.1387573846
 20
4836822.901982047
 10
632765.112435431
 20
4836841.041043076
  0
LWPOLYLINE
  5
A9
330
17
100
AcDbEntity
  8
ROADS
100
AcDbPolyline
 90
3
 70
0
 10
632387.9841728678
 20
4836775.883881606
 10
632382.1387999341
 20
4836819.238544087
 10
632423.3592960371
 20
4836861.419148118
  0
LWPOLYLINE
  5
AA
330
17
100
AcDbEntity
  8
ROADS
100
AcDbPolyline
 90
2
 70
0
 10
632410.2051182314
 20
4836858.552075269
 10
632423.3592960371
 20
4836861.419148118
  0
LWPOLYLINE
  5
AB
330
17
100
AcDbEntity
  8
ROADS
100
AcDbPolyline
 90
2
 70
0
 10
632441.2561893348
 20
4837005.567938828
 10
632398.3623905492
 20
4837067.146094858
  0
LWPOLYLINE
  5
AC
330
17
100
AcDbEntity
  8
ROADS
100
AcDbPolyline
 90
2
 70
0
 10
632398.3623905492
 20
4837067.146094858
 10
632355.5155144187
 20
4837131.272280797
  0
LWPOLYLINE
  5
AD
330
17
100
AcDbEntity
  8
ROADS
100
AcDbPolyline
 90
2
 70
0
 10
632053.7408878439
 20
4837151.314950941
 10
632120.0960448445
 20
4837169.947255225
  0
LWPOLYLINE
  5
AE
330
17
100
AcDbEntity
  8
ROADS
100
AcDbPolyline
 90
3
 70
0
 10
632477.7436944111
 20
4836859.418358255
 10
632450.9259434253
 20
4836834.236492041
 10
632467.2931591718
 20
4836809.739536467
  0
LWPOLYLINE
  5
AF
330
17
100
AcDbEntity
  8
ROADS
100
AcDbPolyline
 90
2
 70
0
 10
632580.5113783404
 20
4836814.639085321
 10
632758.2921036766
 20
4836877.6965982625
  0
LWPOLYLINE
  5
B0
330
17
100
AcDbEntity
  8
ROADS
100
AcDbPolyline
 90
2
 70
0
 10
632580.5113783404
 20
4836814.639085321
 10
632521.5226942785
 20
4836892.678547465
  0
LWPOLYLINE
  5
B1
330
17
100
AcDbEntity
  8
ROADS
100
AcDbPolyline
 90
2
 70
0
 10
632765.112435431
 20
4836841.041043076
 10
632758.2921036766
 20
4836877.6965982625
  0
LWPOLYLINE
  5
B2
330
17
100
AcDbEntity
  8
ROADS
100
AcDbPolyline
 90
2
 70
0
 10
632498.4832209208
 20
4836882.706175824
 10
632477.7436944111
 20
4836859.418358255
  0
LWPOLYLINE
  5
B3
330
17
100
AcDbEntity
  8
ROADS
100
AcDbPolyline
 90
2
 70
0
 10
632423.3592960371
 20
4836861.419148118
 10
632498.4832209208
 20
4836882.706175824
  0
LWPOLYLINE
  5
B4
330
17
100
AcDbEntity
  8
ROADS
100
AcDbPolyline
 90
2
 70
0
 10
632521.5226942785
 20
4836892.678547465
 10
632498.4832209208
 20
4836882.706175824
  0
LWPOLYLINE
  5
B5
330
17
100
AcDbEntity
  8
ROADS
100
AcDbPolyline
 90
2
 70
0
 10
632521.5226942785
 20
4836892.678547465
 10
632510.3523261638
 20
4836907.361708705
  0
LWPOLYLINE
  5
B6
330
17
100
AcDbEntity
  8
ROADS
100
AcDbPolyline
 90
2
 70
0
 10
632758.2921036766
 20
4836877.6965982625
 10
632740.2243582834
 20
4836972.11831043
  0
LWPOLYLINE
  5
B7
330
17
100
AcDbEntity
  8
ROADS
100
AcDbPolyline
 90
2
 70
0
 10
632510.3523261638
 20
4836907.361708705
 10
632646.9743112866
 20
4836945.503074754
  0
LWPOLYLINE
  5
B8
330
17
100
AcDbEntity
  8
ROADS
100
AcDbPolyline
 90
2
 70
0
 10
632510.3523261638
 20
4836907.361708705
 10
632441.2561893348
 20
4837005.567938828
  0
LWPOLYLINE
  5
B9
330
17
100
AcDbEntity
  8
ROADS
100
AcDbPolyline
 90
2
 70
0
 10
632646.9743112866
 20
4836945.503074754
 10
632740.2243582834
 20
4836972.11831043
  0
LWPOLYLINE
  5
BA
330
17
100
AcDbEntity
  8
ROADS
100
AcDbPolyline
 90
2
 70
0
 10
632740.2243582834
 20
4836972.11831043
 10
632789.8230334457
 20
4836986.122258308
  0
LWPOLYLINE
  5
BB
330
17
100
AcDbEntity
  8
ROADS
100
AcDbPolyline
 90
2
 70
0
 10
632646.9743112866
 20
4836945.503074754
 10
632616.6423327802
 20
4837053.516048493
  0
LWPOLYLINE
  5
BC
330
17
100
AcDbEntity
  8
ROADS
100
AcDbPolyline
 90
2
 70
0
 10
632789.8230334457
 20
4836986.122258308
 10
632775.090038578
 20
4837032.512499924
  0
LWPOLYLINE
  5
BD
330
17
100
AcDbEntity
  8
ROADS
100
AcDbPolyline
 90
2
 70
0
 10
632441.2561893348
 20
4837005.567938828
 10
632616.6423327802
 20
4837053.516048493
  0
LWPOLYLINE
  5
BE
330
17
100
AcDbEntity
  8
ROADS
100
AcDbPolyline
 90
2
 70
0
 10
632775.090038578
 20
4837032.512499924
 10
632823.5399710735
 20
4837045.999645539
  0
LWPOLYLINE
  5
BF
330
17
100
AcDbEntity
  8
ROADS
100
AcDbPolyline
 90
2
 70
0
 10
632775.090038578
 20
4837032.512499924
 10
632754.392006003
 20
4837096.188232691
  0
LWPOLYLINE
  5
C0
330
17
100
AcDbEntity
  8
ROADS
100
AcDbPolyline
 90
2
 70
0
 10
632616.6423327802
 20
4837053.516048493
 10
632754.392006003
 20
4837096.188232691
  0
LWPOLYLINE
  5
C1
330
17
100
AcDbEntity
  8
ROADS
100
AcDbPolyline
 90
2
 70
0
 10
632823.5399710735
 20
4837045.999645539
 10
632802.2489186376
 20
4837108.014532833
  0
LWPOLYLINE
  5
C2
330
17
100
AcDbEntity
  8
ROADS
100
AcDbPolyline
 90
2
 70
0
 10
633109.3241911783
 20
4837027.2187822675
 10
632927.357804921
 20
4836977.996535036
  0
LWPOLYLINE
  5
C3
330
17
100
AcDbEntity
  8
ROADS
100
AcDbPolyline
 90
2
 70
0
 10
633124.7604218753
 20
4836981.538266541
 10
633109.3241911783
 20
4837027.2187822675
  0
LWPOLYLINE
  5
C4
330
17
100
AcDbEntity
  8
ROADS
100
AcDbPolyline
 90
2
 70
0
 10
632889.2077536804
 20
4837013.724522187
 10
632874.3384619316
 20
4837058.028647328
  0
LWPOLYLINE
  5
C5
330
17
100
AcDbEntity
  8
ROADS
100
AcDbPolyline
 90
2
 70
0
 10
633167.3174584269
 20
4836995.604908153
 10
633136.3435330071
 20
4837086.437402401
  0
LWPOLYLINE
  5
C6
330
17
100
AcDbEntity
  8
ROADS
100
AcDbPolyline
 90
2
 70
0
 10
632889.2077536804
 20
4837013.724522187
 10
633093.569908876
 20
4837075.886780355
  0
LWPOLYLINE
  5
C7
330
17
100
AcDbEntity
  8
ROADS
100
AcDbPolyline
 90
2
 70
0
 10
633177.8992013839
 20
4837002.412791643
 10
633146.9149585366
 20
4837093.843315933
  0
LWPOLYLINE
  5
C8
330
17
100
AcDbEntity
  8
ROADS
100
AcDbPolyline
 90
2
 70
0
 10
633109.3241911783
 20
4837027.2187822675
 10
633093.569908876
 20
4837075.886780355
  0
LWPOLYLINE
  5
C9
330
17
100
AcDbEntity
  8
ROADS
100
AcDbPolyline
 90
2
 70
0
 10
632823.5399710735
 20
4837045.999645539
 10
632874.3384619316
 20
4837058.028647328
  0
LWPOLYLINE
  5
CA
330
17
100
AcDbEntity
  8
ROADS
100
AcDbPolyline
 90
2
 70
0
 10
633177.8992013839
 20
4837002.412791643
 10
633204.6272396214
 20
4837110.147695487
  0
LWPOLYLINE
  5
CB
330
17
100
AcDbEntity
  8
ROADS
100
AcDbPolyline
 90
2
 70
0
 10
633093.569908876
 20
4837075.886780355
 10
633136.3435330071
 20
4837086.437402401
  0
LWPOLYLINE
  5
CC
330
17
100
AcDbEntity
  8
ROADS
100
AcDbPolyline
 90
2
 70
0
 10
632874.3384619316
 20
4837058.028647328
 10
632859.048780677
 20
4837105.504416987
  0
LWPOLYLINE
  5
CD
330
17
100
AcDbEntity
  8
ROADS
100
AcDbPolyline
 90
2
 70
0
 10
633136.3435330071
 20
4837086.437402401
 10
633146.9149585366
 20
4837093.843315933
  0
LWPOLYLINE
  5
CE
330
17
100
AcDbEntity
  8
ROADS
100
AcDbPolyline
 90
2
 70
0
 10
632874.3384619316
 20
4837058.028647328
 10
633076.9095759338
 20
4837122.258207774
  0
LWPOLYLINE
  5
CF
330
17
100
AcDbEntity
  8
ROADS
100
AcDbPolyline
 90
2
 70
0
 10
633093.569908876
 20
4837075.886780355
 10
633076.9095759338
 20
4837122.258207774
  0
LWPOLYLINE
  5
D0
330
17
100
AcDbEntity
  8
ROADS
100
AcDbPolyline
 90
2
 70
0
 10
633146.9149585366
 20
4837093.843315933
 10
633206.9302994516
 20
4837123.952443055
  0
LWPOLYLINE
  5
D1
330
17
100
AcDbEntity
  8
ROADS
100
AcDbPolyline
 90
2
 70
0
 10
632859.048780677
 20
4837105.504416987
 10
632853.9596136606
 20
4837122.192707654
  0
LWPOLYLINE
  5
D2
330
17
100
AcDbEntity
  8
ROADS
100
AcDbPolyline
 90
2
 70
0
 10
632802.2489186376
 20
4837108.014532833
 10
632853.9596136606
 20
4837122.192707654
  0
LWPOLYLINE
  5
D3
330
17
100
AcDbEntity
  8
ROADS
100
AcDbPolyline
 90
2
 70
0
 10
633204.6272396214
 20
4837110.147695487
 10
633206.9302994516
 20
4837123.952443055
  0
LWPOLYLINE
  5
D4
330
17
100
AcDbEntity
  8
ROADS
100
AcDbPolyline
 90
2
 70
0
 10
633206.9302994516
 20
4837123.952443055
 10
633228.8960048618
 20
4837131.0062018195
  0
LWPOLYLINE
  5
D5
330
17
100
AcDbEntity
  8
ROADS
100
AcDbPolyline
 90
2
 70
0
 10
633198.1717474461
 20
4837168.987662287
 10
633146.9149585366
 20
4837093.843315933
  0
LWPOLYLINE
  5
D6
330
17
100
AcDbEntity
  8
ROADS
100
AcDbPolyline
 90
2
 70
0
 10
632355.5155144187
 20
4837131.272280797
 10
632290.2523686939
 20
4837218.93091792
  0
LWPOLYLINE
  5
D7
330
17
100
AcDbEntity
  8
ROADS
100
AcDbPolyline
 90
2
 70
0
 10
632120.0960448445
 20
4837169.947255225
 10
632163.9082857072
 20
4837183.28152212
  0
LWPOLYLINE
  5
D8
330
17
100
AcDbEntity
  8
ROADS
100
AcDbPolyline
 90
2
 70
0
 10
632163.9082857072
 20
4837183.28152212
 10
632171.132174057
 20
4837196.8671929985
  0
LWPOLYLINE
  5
D9
330
17
100
AcDbEntity
  8
ROADS
100
AcDbPolyline
 90
3
 70
0
 10
632120.0960448445
 20
4837169.947255225
 10
632116.5613717611
 20
4837182.965336367
 10
632150.3858592837
 20
4837214.7694157865
  0
LWPOLYLINE
  5
DA
330
17
100
AcDbEntity
  8
ROADS
100
AcDbPolyline
 90
2
 70
0
 10
632163.9082857072
 20
4837183.28152212
 10
632290.2523686939
 20
4837218.93091792
  0
LWPOLYLINE
  5
DB
330
17
100
AcDbEntity
  8
ROADS
100
AcDbPolyline
 90
2
 70
0
 10
632171.132174057
 20
4837196.8671929985
 10
632150.3858592837
 20
4837214.7694157865
  0
LWPOLYLINE
  5
DC
330
17
100
AcDbEntity
  8
ROADS
100
AcDbPolyline
 90
2
 70
0
 10
632150.3858592837
 20
4837214.7694157865
 10
632129.3269891434
 20
4837200.46051489
  0
LWPOLYLINE
  5
DD
330
17
100
AcDbEntity
  8
ROADS
100
AcDbPolyline
 90
2
 70
0
 10
632171.132174057
 20
4837196.8671929985
 10
632178.5496448653
 20
4837233.509636096
  0
LWPOLYLINE
  5
DE
330
17
100
AcDbEntity
  8
ROADS
100
AcDbPolyline
 90
2
 70
0
 10
632150.3858592837
 20
4837214.7694157865
 10
632178.5496448653
 20
4837233.509636096
  0
LWPOLYLINE
  5
DF
330
17
100
AcDbEntity
  8
ROADS
100
AcDbPolyline
 90
2
 70
0
 10
632290.2523686939
 20
4837218.93091792
 10
632487.5097145512
 20
4837275.77630697
  0
LWPOLYLINE
  5
E0
330
17
100
AcDbEntity
  8
ROADS
100
AcDbPolyline
 90
2
 70
0
 10
632754.392006003
 20
4837096.188232691
 10
632802.2489186376
 20
4837108.014532833
  0
LWPOLYLINE
  5
E1
330
17
100
AcDbEntity
  8
ROADS
100
AcDbPolyline
 90
2
 70
0
 10
632398.3623905492
 20
4837067.146094858
 10
632732.0463086657
 20
4837164.206504386
  0
LWPOLYLINE
  5
E2
330
17
100
AcDbEntity
  8
ROADS
100
AcDbPolyline
 90
2
 70
0
 10
632754.392006003
 20
4837096.188232691
 10
632732.0463086657
 20
4837164.206504386
  0
LWPOLYLINE
  5
E3
330
17
100
AcDbEntity
  8
ROADS
100
AcDbPolyline
 90
2
 70
0
 10
632355.5155144187
 20
4837131.272280797
 10
632710.0244883328
 20
4837231.734585427
  0
LWPOLYLINE
  5
E4
330
17
100
AcDbEntity
  8
ROADS
100
AcDbPolyline
 90
2
 70
0
 10
632732.0463086657
 20
4837164.206504386
 10
632710.0244883328
 20
4837231.734585427
  0
LWPOLYLINE
  5
E5
330
17
100
AcDbEntity
  8
ROADS
100
AcDbPolyline
 90
2
 70
0
 10
632695.277260361
 20
4837276.753440919
 10
632472.5145858675
 20
4837213.284295176
  0
LWPOLYLINE
  5
E6
330
17
100
AcDbEntity
  8
ROADS
100
AcDbPolyline
 90
2
 70
0
 10
632710.0244883328
 20
4837231.734585427
 10
632695.277260361
 20
4837276.753440919
  0
LWPOLYLINE
  5
E7
330
17
100
AcDbEntity
  8
ROADS
100
AcDbPolyline
 90
2
 70
0
 10
632830.6655509593
 20
4837195.148237761
 10
632775.4017355369
 20
4837359.582840243
  0
LWPOLYLINE
  5
E8
330
17
100
AcDbEntity
  8
ROADS
100
AcDbPolyline
 90
2
 70
0
 10
632695.277260361
 20
4837276.753440919
 10
632690.5728772405
 20
4837290.966485102
  0
LWPOLYLINE
  5
E9
330
17
100
AcDbEntity
  8
ROADS
100
AcDbPolyline
 90
2
 70
0
 10
632487.5097145512
 20
4837275.77630697
 10
632591.909993406
 20
4837306.017536152
  0
LWPOLYLINE
  5
EA
330
17
100
AcDbEntity
  8
ROADS
100
AcDbPolyline
 90
2
 70
0
 10
632290.2523686939
 20
4837218.93091792
 10
632296.8154827539
 20
4837315.231028949
  0
LWPOLYLINE
  5
EB
330
17
100
AcDbEntity
  8
ROADS
100
AcDbPolyline
 90
3
 70
0
 10
632178.5496448653
 20
4837233.509636096
 10
632235.4220665311
 20
4837247.691644924
 10
632244.0489829044
 20
4837307.955285779
  0
LWPOLYLINE
  5
EC
330
17
100
AcDbEntity
  8
ROADS
100
AcDbPolyline
 90
2
 70
0
 10
632178.5496448653
 20
4837233.509636096
 10
632193.7663326568
 20
4837314.634533062
  0
LWPOLYLINE
  5
ED
330
17
100
AcDbEntity
  8
ROADS
100
AcDbPolyline
 90
2
 70
0
 10
632473.4988121828
 20
4837318.900298503
 10
632351.1053664009
 20
4837283.2292844085
  0
LWPOLYLINE
  5
EE
330
17
100
AcDbEntity
  8
ROADS
100
AcDbPolyline
 90
2
 70
0
 10
632193.7663326568
 20
4837314.634533062
 10
632151.6693246483
 20
4837304.944544181
  0
LWPOLYLINE
  5
EF
330
17
100
AcDbEntity
  8
ROADS
100
AcDbPolyline
 90
2
 70
0
 10
632296.8154827539
 20
4837315.231028949
 10
632326.5571887618
 20
4837335.171725605
  0
LWPOLYLINE
  5
F0
330
17
100
AcDbEntity
  8
ROADS
100
AcDbPolyline
 90
2
 70
0
 10
632296.8154827539
 20
4837315.231028949
 10
632300.3910281976
 20
4837337.004366457
  0
LWPOLYLINE
  5
F1
330
17
100
AcDbEntity
  8
ROADS
100
AcDbPolyline
 90
2
 70
0
 10
632193.7663326568
 20
4837314.634533062
 10
632200.5976997159
 20
4837355.1781827025
  0
LWPOLYLINE
  5
F2
330
17
100
AcDbEntity
  8
ROADS
100
AcDbPolyline
 90
2
 70
0
 10
632200.5976997159
 20
4837355.1781827025
 10
632300.3910281976
 20
4837337.004366457
  0
LWPOLYLINE
  5
F3
330
17
100
AcDbEntity
  8
ROADS
100
AcDbPolyline
 90
2
 70
0
 10
632326.5571887618
 20
4837335.171725605
 10
632348.7216527782
 20
4837358.134971801
  0
LWPOLYLINE
  5
F4
330
17
100
AcDbEntity
  8
ROADS
100
AcDbPolyline
 90
2
 70
0
 10
633586.2354980205
 20
4836869.325604539
 10
633573.2687846563
 20
4836909.181370213
  0
LWPOLYLINE
  5
F5
330
17
100
AcDbEntity
  8
ROADS
100
AcDbPolyline
 90
2
 70
0
 10
633414.165401583
 20
4836896.878496477
 10
633447.452408247
 20
4836908.474320368
  0
LWPOLYLINE
  5
F6
330
17
100
AcDbEntity
  8
ROADS
100
AcDbPolyline
 90
2
 70
0
 10
633624.824508227
 20
4836883.213486807
 10
633599.4830669623
 20
4836961.047575466
  0
LWPOLYLINE
  5
F7
330
17
100
AcDbEntity
  8
ROADS
100
AcDbPolyline
 90
2
 70
0
 10
633447.452408247
 20
4836908.474320368
 10
633557.9796146262
 20
4836947.088480629
  0
LWPOLYLINE
  5
F8
330
17
100
AcDbEntity
  8
ROADS
100
AcDbPolyline
 90
2
 70
0
 10
633573.2687846563
 20
4836909.181370213
 10
633557.9796146262
 20
4836947.088480629
  0
LWPOLYLINE
  5
F9
330
17
100
AcDbEntity
  8
ROADS
100
AcDbPolyline
 90
3
 70
0
 10
633447.452408247
 20
4836908.474320368
 10
633435.313079203
 20
4836941.565483973
 10
633484.5751375551
 20
4836964.401080531
  0
LWPOLYLINE
  5
FA
330
17
100
AcDbEntity
  8
ROADS
100
AcDbPolyline
 90
2
 70
0
 10
633414.165401583
 20
4836896.878496477
 10
633386.7756976834
 20
4836978.202778923
  0
LWPOLYLINE
  5
FB
330
17
100
AcDbEntity
  8
ROADS
100
AcDbPolyline
 90
4
 70
0
 10
633342.0970734296
 20
4837111.871626553
 10
633294.6419379449
 20
4836963.954668822
 10
633315.3709941898
 20
4836885.014162439
 10
633246.760423091
 20
4836775.846830028
  0
LWPOLYLINE
  5
FC
330
17
100
AcDbEntity
  8
ROADS
100
AcDbPolyline
 90
2
 70
0
 10
633557.9796146262
 20
4836947.088480629
 10
633599.4830669623
 20
4836961.047575466
  0
LWPOLYLINE
  5
FD
330
17
100
AcDbEntity
  8
ROADS
100
AcDbPolyline
 90
2
 70
0
 10
633557.9796146262
 20
4836947.088480629
 10
633529.3620122259
 20
4837025.662868789
  0
LWPOLYLINE
  5
FE
330
17
100
AcDbEntity
  8
ROADS
100
AcDbPolyline
 90
3
 70
0
 10
634094.5312701114
 20
4836901.445114072
 10
634108.9713632518
 20
4836930.374604863
 10
634159.2731585002
 20
4836946.21146569
  0
LWPOLYLINE
  5
FF
330
17
100
AcDbEntity
  8
ROADS
100
AcDbPolyline
 90
2
 70
0
 10
634159.2731585002
 20
4836946.21146569
 10
634268.7170529184
 20
4836985.486682837
  0
LWPOLYLINE
  5
100
330
17
100
AcDbEntity
  8
ROADS
100
AcDbPolyline
 90
2
 70
0
 10
634094.5312701114
 20
4836901.445114072
 10
634041.2051737942
 20
4837059.65190972
  0
LWPOLYLINE
  5
101
330
17
100
AcDbEntity
  8
ROADS
100
AcDbPolyline
 90
2
 70
0
 10
634159.2731585002
 20
4836946.21146569
 10
634137.3610092491
 20
4837033.775487264
  0
LWPOLYLINE
  5
102
330
17
100
AcDbEntity
  8
ROADS
100
AcDbPolyline
 90
2
 70
0
 10
634268.7170529184
 20
4836985.486682837
 10
634347.2347033455
 20
4837022.975563263
  0
LWPOLYLINE
  5
103
330
17
100
AcDbEntity
  8
ROADS
100
AcDbPolyline
 90
2
 70
0
 10
634347.2347033455
 20
4837022.975563263
 10
634373.3262256614
 20
4837035.670038213
  0
LWPOLYLINE
  5
104
330
17
100
AcDbEntity
  8
ROADS
100
AcDbPolyline
 90
2
 70
0
 10
634268.7170529184
 20
4836985.486682837
 10
634226.1450997102
 20
4837113.5915146535
  0
LWPOLYLINE
  5
105
330
17
100
AcDbEntity
  8
ROADS
100
AcDbPolyline
 90
2
 70
0
 10
634041.2051737942
 20
4837059.65190972
 10
634226.1450997102
 20
4837113.5915146535
  0
LWPOLYLINE
  5
106
330
17
100
AcDbEntity
  8
ROADS
100
AcDbPolyline
 90
5
 70
0
 10
634041.2051737942
 20
4837059.65190972
 10
634027.1225466027
 20
4837104.859984795
 10
634172.3854240347
 20
4837146.785155824
 10
634170.6427293122
 20
4837158.539616053
 10
634207.4607089116
 20
4837171.373442617
  0
LWPOLYLINE
  5
107
330
17
100
AcDbEntity
  8
ROADS
100
AcDbPolyline
 90
2
 70
0
 10
633599.4830669623
 20
4836961.047575466
 10
633574.1885070893
 20
4837039.993590383
  0
LWPOLYLINE
  5
108
330
17
100
AcDbEntity
  8
ROADS
100
AcDbPolyline
 90
2
 70
0
 10
633386.7756976834
 20
4836978.202778923
 10
633529.3620122259
 20
4837025.662868789
  0
LWPOLYLINE
  5
109
330
17
100
AcDbEntity
  8
ROADS
100
AcDbPolyline
 90
2
 70
0
 10
633386.7756976834
 20
4836978.202778923
 10
633359.2184513748
 20
4837060.053061093
  0
LWPOLYLINE
  5
10A
330
17
100
AcDbEntity
  8
ROADS
100
AcDbPolyline
 90
2
 70
0
 10
633529.3620122259
 20
4837025.662868789
 10
633574.1885070893
 20
4837039.993590383
  0
LWPOLYLINE
  5
10B
330
17
100
AcDbEntity
  8
ROADS
100
AcDbPolyline
 90
3
 70
0
 10
633529.3620122259
 20
4837025.662868789
 10
633516.8335994252
 20
4837065.779568516
 10
633413.7230221691
 20
4837033.1654654285
  0
LWPOLYLINE
  5
10C
330
17
100
AcDbEntity
  8
ROADS
100
AcDbPolyline
 90
2
 70
0
 10
633574.1885070893
 20
4837039.993590383
 10
633612.3716866534
 20
4837053.372112243
  0
LWPOLYLINE
  5
10D
330
17
100
AcDbEntity
  8
ROADS
100
AcDbPolyline
 90
3
 70
0
 10
633287.8955884238
 20
4837006.4170825565
 10
633267.3131322789
 20
4837013.153446698
 10
633290.6975662032
 20
4837100.058250426
  0
LWPOLYLINE
  5
10E
330
17
100
AcDbEntity
  8
ROADS
100
AcDbPolyline
 90
2
 70
0
 10
633574.1885070893
 20
4837039.993590383
 10
633547.7999803104
 20
4837122.250079815
  0
LWPOLYLINE
  5
10F
330
17
100
AcDbEntity
  8
ROADS
100
AcDbPolyline
 90
2
 70
0
 10
633359.2184513748
 20
4837060.053061093
 10
633342.0970734296
 20
4837111.871626553
  0
LWPOLYLINE
  5
110
330
17
100
AcDbEntity
  8
ROADS
100
AcDbPolyline
 90
2
 70
0
 10
633359.2184513748
 20
4837060.053061093
 10
633547.7999803104
 20
4837122.250079815
  0
LWPOLYLINE
  5
111
330
17
100
AcDbEntity
  8
ROADS
100
AcDbPolyline
 90
2
 70
0
 10
634047.2124849985
 20
4836887.004315926
 10
633994.2253594243
 20
4837045.98928469
  0
LWPOLYLINE
  5
112
330
17
100
AcDbEntity
  8
ROADS
100
AcDbPolyline
 90
2
 70
0
 10
633599.4830669623
 20
4836961.047575466
 10
633791.6622911277
 20
4837027.267963134
  0
LWPOLYLINE
  5
113
330
17
100
AcDbEntity
  8
ROADS
100
AcDbPolyline
 90
3
 70
0
 10
633918.8099230005
 20
4836976.707925149
 10
633963.2144538258
 20
4836991.646075843
 10
633952.8323430346
 20
4837022.5748844715
  0
LWPOLYLINE
  5
114
330
17
100
AcDbEntity
  8
ROADS
100
AcDbPolyline
 90
3
 70
0
 10
633612.3716866534
 20
4837053.372112243
 10
633626.3062255139
 20
4837014.360916086
 10
633772.4819029807
 20
4837063.20507035
  0
LWPOLYLINE
  5
115
330
17
100
AcDbEntity
  8
ROADS
100
AcDbPolyline
 90
2
 70
0
 10
633994.2253594243
 20
4837045.98928469
 10
634041.2051737942
 20
4837059.65190972
  0
LWPOLYLINE
  5
116
330
17
100
AcDbEntity
  8
ROADS
100
AcDbPolyline
 90
2
 70
0
 10
633612.3716866534
 20
4837053.372112243
 10
633765.9174615529
 20
4837105.229796477
  0
LWPOLYLINE
  5
117
330
17
100
AcDbEntity
  8
ROADS
100
AcDbPolyline
 90
2
 70
0
 10
633994.2253594243
 20
4837045.98928469
 10
633964.8475901668
 20
4837134.382328038
  0
LWPOLYLINE
  5
118
330
17
100
AcDbEntity
  8
ROADS
100
AcDbPolyline
 90
2
 70
0
 10
633918.8099230005
 20
4836976.707925149
 10
633832.0024241775
 20
4837238.309649304
  0
LWPOLYLINE
  5
119
330
17
100
AcDbEntity
  8
ROADS
100
AcDbPolyline
 90
2
 70
0
 10
633964.8475901668
 20
4837134.382328038
 10
634045.6791109694
 20
4837158.113918421
  0
LWPOLYLINE
  5
11A
330
17
100
AcDbEntity
  8
ROADS
100
AcDbPolyline
 90
2
 70
0
 10
634045.6791109694
 20
4837158.113918421
 10
634014.8725739053
 20
4837249.914410243
  0
LWPOLYLINE
  5
11B
330
17
100
AcDbEntity
  8
ROADS
100
AcDbPolyline
 90
2
 70
0
 10
633136.3435330071
 20
4837086.437402401
 10
633104.2545105233
 20
4837177.158540813
  0
LWPOLYLINE
  5
11C
330
17
100
AcDbEntity
  8
ROADS
100
AcDbPolyline
 90
2
 70
0
 10
632859.048780677
 20
4837105.504416987
 10
633061.5914901802
 20
4837167.57081796
  0
LWPOLYLINE
  5
11D
330
17
100
AcDbEntity
  8
ROADS
100
AcDbPolyline
 90
2
 70
0
 10
633222.3516852467
 20
4837150.68243646
 10
633206.9302994516
 20
4837123.952443055
  0
LWPOLYLINE
  5
11E
330
17
100
AcDbEntity
  8
ROADS
100
AcDbPolyline
 90
2
 70
0
 10
633146.9149585366
 20
4837093.843315933
 10
633116.0173328591
 20
4837180.87003946
  0
LWPOLYLINE
  5
11F
330
17
100
AcDbEntity
  8
ROADS
100
AcDbPolyline
 90
2
 70
0
 10
633222.3516852467
 20
4837150.68243646
 10
633228.8960048618
 20
4837131.0062018195
  0
LWPOLYLINE
  5
120
330
17
100
AcDbEntity
  8
ROADS
100
AcDbPolyline
 90
2
 70
0
 10
633076.9095759338
 20
4837122.258207774
 10
633061.5914901802
 20
4837167.57081796
  0
LWPOLYLINE
  5
121
330
17
100
AcDbEntity
  8
ROADS
100
AcDbPolyline
 90
2
 70
0
 10
633198.1717474461
 20
4837168.987662287
 10
633206.9302994516
 20
4837123.952443055
  0
LWPOLYLINE
  5
122
330
17
100
AcDbEntity
  8
ROADS
100
AcDbPolyline
 90
2
 70
0
 10
632853.9596136606
 20
4837122.192707654
 10
632830.6655509593
 20
4837195.148237761
  0
LWPOLYLINE
  5
123
330
17
100
AcDbEntity
  8
ROADS
100
AcDbPolyline
 90
2
 70
0
 10
633216.3473949139
 20
4837169.253347186
 10
633222.3516852467
 20
4837150.68243646
  0
LWPOLYLINE
  5
124
330
17
100
AcDbEntity
  8
ROADS
100
AcDbPolyline
 90
2
 70
0
 10
633235.3445780962
 20
4837179.502685865
 10
633222.3516852467
 20
4837150.68243646
  0
LWPOLYLINE
  5
125
330
17
100
AcDbEntity
  8
ROADS
100
AcDbPolyline
 90
2
 70
0
 10
633204.6272396214
 20
4837110.147695487
 10
633290.6975662032
 20
4837100.058250426
  0
LWPOLYLINE
  5
126
330
17
100
AcDbEntity
  8
ROADS
100
AcDbPolyline
 90
2
 70
0
 10
633290.6975662032
 20
4837100.058250426
 10
633299.2965923236
 20
4837137.86627179
  0
LWPOLYLINE
  5
127
330
17
100
AcDbEntity
  8
ROADS
100
AcDbPolyline
 90
2
 70
0
 10
633342.0970734296
 20
4837111.871626553
 10
633332.3378209438
 20
4837140.433447122
  0
LWPOLYLINE
  5
128
330
17
100
AcDbEntity
  8
ROADS
100
AcDbPolyline
 90
2
 70
0
 10
633498.8904671466
 20
4837151.757056714
 10
633392.7399090265
 20
4837115.755685964
  0
LWPOLYLINE
  5
129
330
17
100
AcDbEntity
  8
ROADS
100
AcDbPolyline
 90
2
 70
0
 10
633228.8960048618
 20
4837131.0062018195
 10
633299.2965923236
 20
4837137.86627179
  0
LWPOLYLINE
  5
12A
330
17
100
AcDbEntity
  8
ROADS
100
AcDbPolyline
 90
2
 70
0
 10
633299.2965923236
 20
4837137.86627179
 10
633332.3378209438
 20
4837140.433447122
  0
LWPOLYLINE
  5
12B
330
17
100
AcDbEntity
  8
ROADS
100
AcDbPolyline
 90
2
 70
0
 10
633498.8904671466
 20
4837151.757056714
 10
633503.1349896332
 20
4837138.86176728
  0
LWPOLYLINE
  5
12C
330
17
100
AcDbEntity
  8
ROADS
100
AcDbPolyline
 90
2
 70
0
 10
633235.3445780962
 20
4837179.502685865
 10
633299.2965923236
 20
4837137.86627179
  0
LWPOLYLINE
  5
12D
330
17
100
AcDbEntity
  8
ROADS
100
AcDbPolyline
 90
2
 70
0
 10
633547.7999803104
 20
4837122.250079815
 10
633521.0526693673
 20
4837205.432143623
  0
LWPOLYLINE
  5
12E
330
17
100
AcDbEntity
  8
ROADS
100
AcDbPolyline
 90
2
 70
0
 10
633332.3378209438
 20
4837140.433447122
 10
633486.1211545703
 20
4837191.313346971
  0
LWPOLYLINE
  5
12F
330
17
100
AcDbEntity
  8
ROADS
100
AcDbPolyline
 90
2
 70
0
 10
634347.2347033455
 20
4837022.975563263
 10
634273.312181455
 20
4837228.6099614035
  0
LWPOLYLINE
  5
130
330
17
100
AcDbEntity
  8
ROADS
100
AcDbPolyline
 90
2
 70
0
 10
634226.1450997102
 20
4837113.5915146535
 10
634207.4607089116
 20
4837171.373442617
  0
LWPOLYLINE
  5
131
330
17
100
AcDbEntity
  8
ROADS
100
AcDbPolyline
 90
2
 70
0
 10
634045.6791109694
 20
4837158.113918421
 10
634197.412907744
 20
4837202.838358188
  0
LWPOLYLINE
  5
132
330
17
100
AcDbEntity
  8
ROADS
100
AcDbPolyline
 90
2
 70
0
 10
634207.4607089116
 20
4837171.373442617
 10
634197.412907744
 20
4837202.838358188
  0
LWPOLYLINE
  5
133
330
17
100
AcDbEntity
  8
ROADS
100
AcDbPolyline
 90
2
 70
0
 10
634197.412907744
 20
4837202.838358188
 10
634273.312181455
 20
4837228.6099614035
  0
LWPOLYLINE
  5
134
330
17
100
AcDbEntity
  8
ROADS
100
AcDbPolyline
 90
2
 70
0
 10
634273.312181455
 20
4837228.6099614035
 10
634310.2583285508
 20
4837241.15909339
  0
LWPOLYLINE
  5
135
330
17
100
AcDbEntity
  8
ROADS
100
AcDbPolyline
 90
4
 70
0
 10
634055.5667280668
 20
4837262.423306819
 10
634070.9910627962
 20
4837216.630447705
 10
634109.1672055954
 20
4837229.294822415
 10
634093.8725449773
 20
4837274.719000666
  0
LWPOLYLINE
  5
136
330
17
100
AcDbEntity
  8
ROADS
100
AcDbPolyline
 90
2
 70
0
 10
634197.412907744
 20
4837202.838358188
 10
634166.029260345
 20
4837295.3045069715
  0
LWPOLYLINE
  5
137
330
17
100
AcDbEntity
  8
ROADS
100
AcDbPolyline
 90
2
 70
0
 10
634055.5667280668
 20
4837262.423306819
 10
634093.8725449773
 20
4837274.719000666
  0
LWPOLYLINE
  5
138
330
17
100
AcDbEntity
  8
ROADS
100
AcDbPolyline
 90
2
 70
0
 10
634273.312181455
 20
4837228.6099614035
 10
634241.8327506369
 20
4837326.7588682715
  0
LWPOLYLINE
  5
139
330
17
100
AcDbEntity
  8
ROADS
100
AcDbPolyline
 90
2
 70
0
 10
633198.1717474461
 20
4837168.987662287
 10
633216.3473949139
 20
4837169.253347186
  0
LWPOLYLINE
  5
13A
330
17
100
AcDbEntity
  8
ROADS
100
AcDbPolyline
 90
2
 70
0
 10
633061.5914901802
 20
4837167.57081796
 10
633104.2545105233
 20
4837177.158540813
  0
LWPOLYLINE
  5
13B
330
17
100
AcDbEntity
  8
ROADS
100
AcDbPolyline
 90
2
 70
0
 10
633200.2641558739
 20
4837185.011778128
 10
633198.1717474461
 20
4837168.987662287
  0
LWPOLYLINE
  5
13C
330
17
100
AcDbEntity
  8
ROADS
100
AcDbPolyline
 90
2
 70
0
 10
633116.0173328591
 20
4837180.87003946
 10
633104.2545105233
 20
4837177.158540813
  0
LWPOLYLINE
  5
13D
330
17
100
AcDbEntity
  8
ROADS
100
AcDbPolyline
 90
2
 70
0
 10
633216.3473949139
 20
4837169.253347186
 10
633221.2179650101
 20
4837191.032160382
  0
LWPOLYLINE
  5
13E
330
17
100
AcDbEntity
  8
ROADS
100
AcDbPolyline
 90
2
 70
0
 10
633221.2179650101
 20
4837191.032160382
 10
633235.3445780962
 20
4837179.502685865
  0
LWPOLYLINE
  5
13F
330
17
100
AcDbEntity
  8
ROADS
100
AcDbPolyline
 90
2
 70
0
 10
633201.8364013964
 20
4837195.070011776
 10
633116.0173328591
 20
4837180.87003946
  0
LWPOLYLINE
  5
140
330
17
100
AcDbEntity
  8
ROADS
100
AcDbPolyline
 90
2
 70
0
 10
633200.2641558739
 20
4837185.011778128
 10
633221.2179650101
 20
4837191.032160382
  0
LWPOLYLINE
  5
141
330
17
100
AcDbEntity
  8
ROADS
100
AcDbPolyline
 90
3
 70
0
 10
633061.5914901802
 20
4837167.57081796
 10
633047.1766400475
 20
4837213.84183319
 10
632897.2669138303
 20
4837164.339139947
  0
LWPOLYLINE
  5
142
330
17
100
AcDbEntity
  8
ROADS
100
AcDbPolyline
 90
2
 70
0
 10
633201.8364013964
 20
4837195.070011776
 10
633200.2641558739
 20
4837185.011778128
  0
LWPOLYLINE
  5
143
330
17
100
AcDbEntity
  8
ROADS
100
AcDbPolyline
 90
2
 70
0
 10
633486.1211545703
 20
4837191.313346971
 10
633498.8904671466
 20
4837151.757056714
  0
LWPOLYLINE
  5
144
330
17
100
AcDbEntity
  8
ROADS
100
AcDbPolyline
 90
3
 70
0
 10
633547.7999803104
 20
4837122.250079815
 10
633742.8986837503
 20
4837187.6242735
 10
633731.6874062376
 20
4837226.410702247
  0
LWPOLYLINE
  5
145
330
17
100
AcDbEntity
  8
ROADS
100
AcDbPolyline
 90
2
 70
0
 10
633332.3378209438
 20
4837140.433447122
 10
633304.3594711287
 20
4837224.608274912
  0
LWPOLYLINE
  5
146
330
17
100
AcDbEntity
  8
ROADS
100
AcDbPolyline
 90
2
 70
0
 10
633486.1211545703
 20
4837191.313346971
 10
633521.0526693673
 20
4837205.432143623
  0
LWPOLYLINE
  5
147
330
17
100
AcDbEntity
  8
ROADS
100
AcDbPolyline
 90
3
 70
0
 10
633486.1211545703
 20
4837191.313346971
 10
633469.6369505328
 20
4837230.404421097
 10
633364.7555045886
 20
4837195.620075123
  0
LWPOLYLINE
  5
148
330
17
100
AcDbEntity
  8
ROADS
100
AcDbPolyline
 90
2
 70
0
 10
633282.97487443
 20
4837288.916732787
 10
633235.3445780962
 20
4837179.502685865
  0
LWPOLYLINE
  5
149
330
17
100
AcDbEntity
  8
ROADS
100
AcDbPolyline
 90
2
 70
0
 10
633521.0526693673
 20
4837205.432143623
 10
633717.1623016696
 20
4837271.476715997
  0
LWPOLYLINE
  5
14A
330
17
100
AcDbEntity
  8
ROADS
100
AcDbPolyline
 90
2
 70
0
 10
633521.0526693673
 20
4837205.432143623
 10
633494.5538601975
 20
4837287.867627875
  0
LWPOLYLINE
  5
14B
330
17
100
AcDbEntity
  8
ROADS
100
AcDbPolyline
 90
2
 70
0
 10
633304.3594711287
 20
4837224.608274912
 10
633454.2941353562
 20
4837274.566539888
  0
LWPOLYLINE
  5
14C
330
17
100
AcDbEntity
  8
ROADS
100
AcDbPolyline
 90
2
 70
0
 10
633304.3594711287
 20
4837224.608274912
 10
633282.97487443
 20
4837288.916732787
  0
LWPOLYLINE
  5
14D
330
17
100
AcDbEntity
  8
ROADS
100
AcDbPolyline
 90
2
 70
0
 10
633104.2545105233
 20
4837177.158540813
 10
633093.1304908078
 20
4837225.471731455
  0
LWPOLYLINE
  5
14E
330
17
100
AcDbEntity
  8
ROADS
100
AcDbPolyline
 90
2
 70
0
 10
633202.788562838
 20
4837212.374611405
 10
633221.2179650101
 20
4837191.032160382
  0
LWPOLYLINE
  5
14F
330
17
100
AcDbEntity
  8
ROADS
100
AcDbPolyline
 90
2
 70
0
 10
633116.0173328591
 20
4837180.87003946
 10
633093.1304908078
 20
4837225.471731455
  0
LWPOLYLINE
  5
150
330
17
100
AcDbEntity
  8
ROADS
100
AcDbPolyline
 90
2
 70
0
 10
633202.788562838
 20
4837212.374611405
 10
633201.8364013964
 20
4837195.070011776
  0
LWPOLYLINE
  5
151
330
17
100
AcDbEntity
  8
ROADS
100
AcDbPolyline
 90
2
 70
0
 10
632830.6655509593
 20
4837195.148237761
 10
633036.9739959534
 20
4837255.529649758
  0
LWPOLYLINE
  5
152
330
17
100
AcDbEntity
  8
ROADS
100
AcDbPolyline
 90
2
 70
0
 10
633093.1304908078
 20
4837225.471731455
 10
633141.5359056586
 20
4837242.0033546025
  0
LWPOLYLINE
  5
153
330
17
100
AcDbEntity
  8
ROADS
100
AcDbPolyline
 90
2
 70
0
 10
633188.8364808259
 20
4837257.387912157
 10
633202.788562838
 20
4837212.374611405
  0
LWPOLYLINE
  5
154
330
17
100
AcDbEntity
  8
ROADS
100
AcDbPolyline
 90
2
 70
0
 10
633093.1304908078
 20
4837225.471731455
 10
633076.3344226219
 20
4837266.960309105
  0
LWPOLYLINE
  5
155
330
17
100
AcDbEntity
  8
ROADS
100
AcDbPolyline
 90
2
 70
0
 10
633141.5359056586
 20
4837242.0033546025
 10
633188.8364808259
 20
4837257.387912157
  0
LWPOLYLINE
  5
156
330
17
100
AcDbEntity
  8
ROADS
100
AcDbPolyline
 90
2
 70
0
 10
633036.9739959534
 20
4837255.529649758
 10
633076.3344226219
 20
4837266.960309105
  0
LWPOLYLINE
  5
157
330
17
100
AcDbEntity
  8
ROADS
100
AcDbPolyline
 90
2
 70
0
 10
633731.6874062376
 20
4837226.410702247
 10
633701.6775488055
 20
4837216.258214615
  0
LWPOLYLINE
  5
158
330
17
100
AcDbEntity
  8
ROADS
100
AcDbPolyline
 90
2
 70
0
 10
633964.8475901668
 20
4837134.382328038
 10
633906.4348615755
 20
4837310.347501154
  0
LWPOLYLINE
  5
159
330
17
100
AcDbEntity
  8
ROADS
100
AcDbPolyline
 90
2
 70
0
 10
633794.0786407787
 20
4837228.338066648
 10
633768.789002991
 20
4837222.950320173
  0
LWPOLYLINE
  5
15A
330
17
100
AcDbEntity
  8
ROADS
100
AcDbPolyline
 90
2
 70
0
 10
633832.0024241775
 20
4837238.309649304
 10
633794.0786407787
 20
4837228.338066648
  0
LWPOLYLINE
  5
15B
330
17
100
AcDbEntity
  8
ROADS
100
AcDbPolyline
 90
2
 70
0
 10
633731.6874062376
 20
4837226.410702247
 10
633717.1623016696
 20
4837271.476715997
  0
LWPOLYLINE
  5
15C
330
17
100
AcDbEntity
  8
ROADS
100
AcDbPolyline
 90
2
 70
0
 10
634014.8725739053
 20
4837249.914410243
 10
634055.5667280668
 20
4837262.423306819
  0
LWPOLYLINE
  5
15D
330
17
100
AcDbEntity
  8
ROADS
100
AcDbPolyline
 90
4
 70
0
 10
633794.0786407787
 20
4837228.338066648
 10
633766.2635070062
 20
4837246.137542869
 10
633783.5951367451
 20
4837274.550266198
 10
633816.8772397756
 20
4837285.201974064
  0
LWPOLYLINE
  5
15E
330
17
100
AcDbEntity
  8
ROADS
100
AcDbPolyline
 90
2
 70
0
 10
633946.6824278788
 20
4837322.941332551
 10
633990.4415371128
 20
4837191.904859017
  0
LWPOLYLINE
  5
15F
330
17
100
AcDbEntity
  8
ROADS
100
AcDbPolyline
 90
2
 70
0
 10
633832.0024241775
 20
4837238.309649304
 10
633816.8772397756
 20
4837285.201974064
  0
LWPOLYLINE
  5
160
330
17
100
AcDbEntity
  8
ROADS
100
AcDbPolyline
 90
2
 70
0
 10
633860.6085161819
 20
4837311.0438791355
 10
633891.6539079077
 20
4837218.146664327
  0
LWPOLYLINE
  5
161
330
17
100
AcDbEntity
  8
ROADS
100
AcDbPolyline
 90
2
 70
0
 10
633717.1623016696
 20
4837271.476715997
 10
633812.3376085304
 20
4837299.3180370955
  0
LWPOLYLINE
  5
162
330
17
100
AcDbEntity
  8
ROADS
100
AcDbPolyline
 90
2
 70
0
 10
634014.8725739053
 20
4837249.914410243
 10
633982.4531725543
 20
4837334.01208692
  0
LWPOLYLINE
  5
163
330
17
100
AcDbEntity
  8
ROADS
100
AcDbPolyline
 90
2
 70
0
 10
633816.8772397756
 20
4837285.201974064
 10
633812.3376085304
 20
4837299.3180370955
  0
LWPOLYLINE
  5
164
330
17
100
AcDbEntity
  8
ROADS
100
AcDbPolyline
 90
2
 70
0
 10
633812.3376085304
 20
4837299.3180370955
 10
633860.6085161819
 20
4837311.0438791355
  0
LWPOLYLINE
  5
165
330
17
100
AcDbEntity
  8
ROADS
100
AcDbPolyline
 90
2
 70
0
 10
633906.4348615755
 20
4837310.347501154
 10
633902.6216806535
 20
4837322.174516505
  0
LWPOLYLINE
  5
166
330
17
100
AcDbEntity
  8
ROADS
100
AcDbPolyline
 90
2
 70
0
 10
633860.6085161819
 20
4837311.0438791355
 10
633902.6216806535
 20
4837322.174516505
  0
LWPOLYLINE
  5
167
330
17
100
AcDbEntity
  8
ROADS
100
AcDbPolyline
 90
2
 70
0
 10
633906.4348615755
 20
4837310.347501154
 10
633946.6824278788
 20
4837322.941332551
  0
LWPOLYLINE
  5
168
330
17
100
AcDbEntity
  8
ROADS
100
AcDbPolyline
 90
2
 70
0
 10
634040.1597592836
 20
4837308.527501474
 10
634027.0450259792
 20
4837347.771578115
  0
LWPOLYLINE
  5
169
330
17
100
AcDbEntity
  8
ROADS
100
AcDbPolyline
 90
2
 70
0
 10
633946.6824278788
 20
4837322.941332551
 10
633982.4531725543
 20
4837334.01208692
  0
LWPOLYLINE
  5
16A
330
17
100
AcDbEntity
  8
ROADS
100
AcDbPolyline
 90
2
 70
0
 10
633982.4531725543
 20
4837334.01208692
 10
634027.0450259792
 20
4837347.771578115
  0
LWPOLYLINE
  5
16B
330
17
100
AcDbEntity
  8
ROADS
100
AcDbPolyline
 90
2
 70
0
 10
634093.8725449773
 20
4837274.719000666
 10
634134.2215061213
 20
4837287.458680009
  0
LWPOLYLINE
  5
16C
330
17
100
AcDbEntity
  8
ROADS
100
AcDbPolyline
 90
2
 70
0
 10
634055.5667280668
 20
4837262.423306819
 10
634040.1597592836
 20
4837308.527501474
  0
LWPOLYLINE
  5
16D
330
17
100
AcDbEntity
  8
ROADS
100
AcDbPolyline
 90
2
 70
0
 10
634134.2215061213
 20
4837287.458680009
 10
634166.029260345
 20
4837295.3045069715
  0
LWPOLYLINE
  5
16E
330
17
100
AcDbEntity
  8
ROADS
100
AcDbPolyline
 90
2
 70
0
 10
634093.8725449773
 20
4837274.719000666
 10
634078.334130085
 20
4837320.238774934
  0
LWPOLYLINE
  5
16F
330
17
100
AcDbEntity
  8
ROADS
100
AcDbPolyline
 90
2
 70
0
 10
634134.2215061213
 20
4837287.458680009
 10
634121.8912874061
 20
4837325.018815806
  0
LWPOLYLINE
  5
170
330
17
100
AcDbEntity
  8
ROADS
100
AcDbPolyline
 90
2
 70
0
 10
634166.029260345
 20
4837295.3045069715
 10
634241.8327506369
 20
4837326.7588682715
  0
LWPOLYLINE
  5
171
330
17
100
AcDbEntity
  8
ROADS
100
AcDbPolyline
 90
2
 70
0
 10
634040.1597592836
 20
4837308.527501474
 10
634078.334130085
 20
4837320.238774934
  0
LWPOLYLINE
  5
172
330
17
100
AcDbEntity
  8
ROADS
100
AcDbPolyline
 90
2
 70
0
 10
634241.8327506369
 20
4837326.7588682715
 10
634278.8722218164
 20
4837340.893829311
  0
LWPOLYLINE
  5
173
330
17
100
AcDbEntity
  8
ROADS
100
AcDbPolyline
 90
2
 70
0
 10
634078.334130085
 20
4837320.238774934
 10
634065.7437625868
 20
4837359.741359112
  0
LWPOLYLINE
  5
174
330
17
100
AcDbEntity
  8
ROADS
100
AcDbPolyline
 90
2
 70
0
 10
634121.8912874061
 20
4837325.018815806
 10
634222.0823969943
 20
4837362.577690858
  0
LWPOLYLINE
  5
175
330
17
100
AcDbEntity
  8
ROADS
100
AcDbPolyline
 90
2
 70
0
 10
633537.7962351146
 20
4837298.215415463
 10
633550.7687593368
 20
4837257.653716262
  0
LWPOLYLINE
  5
176
330
17
100
AcDbEntity
  8
ROADS
100
AcDbPolyline
 90
2
 70
0
 10
633234.0093558694
 20
4837272.968014485
 10
633282.97487443
 20
4837288.916732787
  0
LWPOLYLINE
  5
177
330
17
100
AcDbEntity
  8
ROADS
100
AcDbPolyline
 90
2
 70
0
 10
633454.2941353562
 20
4837274.566539888
 10
633494.5538601975
 20
4837287.867627875
  0
LWPOLYLINE
  5
178
330
17
100
AcDbEntity
  8
ROADS
100
AcDbPolyline
 90
2
 70
0
 10
633494.5538601975
 20
4837287.867627875
 10
633537.7962351146
 20
4837298.215415463
  0
LWPOLYLINE
  5
179
330
17
100
AcDbEntity
  8
ROADS
100
AcDbPolyline
 90
2
 70
0
 10
633454.2941353562
 20
4837274.566539888
 10
633437.5904468457
 20
4837323.526432491
  0
LWPOLYLINE
  5
17A
330
17
100
AcDbEntity
  8
ROADS
100
AcDbPolyline
 90
2
 70
0
 10
633282.97487443
 20
4837288.916732787
 10
633275.06358411
 20
4837313.727659871
  0
LWPOLYLINE
  5
17B
330
17
100
AcDbEntity
  8
ROADS
100
AcDbPolyline
 90
2
 70
0
 10
633537.7962351146
 20
4837298.215415463
 10
633523.7969622981
 20
4837340.472681816
  0
LWPOLYLINE
  5
17C
330
17
100
AcDbEntity
  8
ROADS
100
AcDbPolyline
 90
2
 70
0
 10
633275.06358411
 20
4837313.727659871
 10
633311.6228880329
 20
4837325.817733612
  0
LWPOLYLINE
  5
17D
330
17
100
AcDbEntity
  8
ROADS
100
AcDbPolyline
 90
2
 70
0
 10
633537.7962351146
 20
4837298.215415463
 10
633687.6739984101
 20
4837344.910452183
  0
LWPOLYLINE
  5
17E
330
17
100
AcDbEntity
  8
ROADS
100
AcDbPolyline
 90
2
 70
0
 10
633494.5538601975
 20
4837287.867627875
 10
633466.1559137674
 20
4837375.831202729
  0
LWPOLYLINE
  5
17F
330
17
100
AcDbEntity
  8
ROADS
100
AcDbPolyline
 90
2
 70
0
 10
633188.8364808259
 20
4837257.387912157
 10
633234.0093558694
 20
4837272.968014485
  0
LWPOLYLINE
  5
180
330
17
100
AcDbEntity
  8
ROADS
100
AcDbPolyline
 90
3
 70
0
 10
633036.9739959534
 20
4837255.529649758
 10
633023.7447276933
 20
4837295.800620946
 10
632869.3893660218
 20
4837250.90486767
  0
LWPOLYLINE
  5
181
330
17
100
AcDbEntity
  8
ROADS
100
AcDbPolyline
 90
2
 70
0
 10
633141.5359056586
 20
4837242.0033546025
 10
633091.1815638486
 20
4837400.899441852
  0
LWPOLYLINE
  5
182
330
17
100
AcDbEntity
  8
ROADS
100
AcDbPolyline
 90
2
 70
0
 10
633076.3344226219
 20
4837266.960309105
 10
633039.0405173288
 20
4837386.930949016
  0
LWPOLYLINE
  5
183
330
17
100
AcDbEntity
  8
ROADS
100
AcDbPolyline
 90
2
 70
0
 10
633188.8364808259
 20
4837257.387912157
 10
633138.4349836472
 20
4837414.522026567
  0
LWPOLYLINE
  5
184
330
17
100
AcDbEntity
  8
ROADS
100
AcDbPolyline
 90
3
 70
0
 10
633234.0093558694
 20
4837272.968014485
 10
633184.2881025661
 20
4837428.3213069
 10
633138.4349836472
 20
4837414.522026567
  0
LWPOLYLINE
  5
185
330
17
100
AcDbEntity
  8
ROADS
100
AcDbPolyline
 90
2
 70
0
 10
633039.0405173288
 20
4837386.930949016
 10
632842.8949590279
 20
4837331.274104655
  0
LWPOLYLINE
  5
186
330
17
100
AcDbEntity
  8
ROADS
100
AcDbPolyline
 90
2
 70
0
 10
633039.0405173288
 20
4837386.930949016
 10
633091.1815638486
 20
4837400.899441852
  0
LWPOLYLINE
  5
187
330
17
100
AcDbEntity
  8
ROADS
100
AcDbPolyline
 90
2
 70
0
 10
632845.5147678223
 20
4837380.01532008
 10
632941.4485300408
 20
4837408.705386378
  0
LWPOLYLINE
  5
188
330
17
100
AcDbEntity
  8
ROADS
100
AcDbPolyline
 90
2
 70
0
 10
632845.5147678223
 20
4837380.01532008
 10
632833.6838029067
 20
4837421.657657657
  0
LWPOLYLINE
  5
189
330
17
100
AcDbEntity
  8
ROADS
100
AcDbPolyline
 90
2
 70
0
 10
633311.6228880329
 20
4837325.817733612
 10
633355.5912526328
 20
4837340.038960139
  0
LWPOLYLINE
  5
18A
330
17
100
AcDbEntity
  8
ROADS
100
AcDbPolyline
 90
2
 70
0
 10
633355.5912526328
 20
4837340.038960139
 10
633466.1559137674
 20
4837375.831202729
  0
LWPOLYLINE
  5
18B
330
17
100
AcDbEntity
  8
ROADS
100
AcDbPolyline
 90
2
 70
0
 10
633523.7969622981
 20
4837340.472681816
 10
633510.1184015104
 20
4837382.691741154
  0
LWPOLYLINE
  5
18C
330
17
100
AcDbEntity
  8
ROADS
100
AcDbPolyline
 90
2
 70
0
 10
633523.7969622981
 20
4837340.472681816
 10
633674.1567241505
 20
4837385.510317038
  0
LWPOLYLINE
  5
18D
330
17
100
AcDbEntity
  8
ROADS
100
AcDbPolyline
 90
2
 70
0
 10
633275.06358411
 20
4837313.727659871
 10
633230.9463332857
 20
4837440.874050448
  0
LWPOLYLINE
  5
18E
330
17
100
AcDbEntity
  8
ROADS
100
AcDbPolyline
 90
2
 70
0
 10
633466.1559137674
 20
4837375.831202729
 10
633510.1184015104
 20
4837382.691741154
  0
LWPOLYLINE
  5
18F
330
17
100
AcDbEntity
  8
ROADS
100
AcDbPolyline
 90
3
 70
0
 10
633311.6228880329
 20
4837325.817733612
 10
633271.0522819387
 20
4837454.464392389
 10
633230.9463332857
 20
4837440.874050448
  0
LWPOLYLINE
  5
190
330
17
100
AcDbEntity
  8
ROADS
100
AcDbPolyline
 90
2
 70
0
 10
633510.1184015104
 20
4837382.691741154
 10
633496.5495525245
 20
4837424.705764536
  0
LWPOLYLINE
  5
191
330
17
100
AcDbEntity
  8
ROADS
100
AcDbPolyline
 90
2
 70
0
 10
633466.1559137674
 20
4837375.831202729
 10
633441.2223763956
 20
4837453.832608945
  0
LWPOLYLINE
  5
192
330
17
100
AcDbEntity
  8
ROADS
100
AcDbPolyline
 90
2
 70
0
 10
633355.5912526328
 20
4837340.038960139
 10
633300.9577240214
 20
4837513.13389027
  0
LWPOLYLINE
  5
193
330
17
100
AcDbEntity
  8
ROADS
100
AcDbPolyline
 90
2
 70
0
 10
634241.8327506369
 20
4837326.7588682715
 10
634222.0823969943
 20
4837362.577690858
  0
LWPOLYLINE
  5
194
330
17
100
AcDbEntity
  8
ROADS
100
AcDbPolyline
 90
2
 70
0
 10
634121.8912874061
 20
4837325.018815806
 10
634106.5812084498
 20
4837372.787906405
  0
LWPOLYLINE
  5
195
330
17
100
AcDbEntity
  8
ROADS
100
AcDbPolyline
 90
2
 70
0
 10
634052.4633743906
 20
4837355.941894614
 10
634065.7437625868
 20
4837359.741359112
  0
LWPOLYLINE
  5
196
330
17
100
AcDbEntity
  8
ROADS
100
AcDbPolyline
 90
2
 70
0
 10
634065.7437625868
 20
4837359.741359112
 10
634106.5812084498
 20
4837372.787906405
  0
LWPOLYLINE
  5
197
330
17
100
AcDbEntity
  8
ROADS
100
AcDbPolyline
 90
2
 70
0
 10
634222.0823969943
 20
4837362.577690858
 10
634263.5386785904
 20
4837377.73861034
  0
LWPOLYLINE
  5
198
330
17
100
AcDbEntity
  8
ROADS
100
AcDbPolyline
 90
2
 70
0
 10
634106.5812084498
 20
4837372.787906405
 10
634093.5331656443
 20
4837401.431319666
  0
LWPOLYLINE
  5
199
330
17
100
AcDbEntity
  8
ROADS
100
AcDbPolyline
 90
2
 70
0
 10
634093.5331656443
 20
4837401.431319666
 10
634095.2875526131
 20
4837419.058499441
  0
LWPOLYLINE
  5
19A
330
17
100
AcDbEntity
  8
ROADS
100
AcDbPolyline
 90
2
 70
0
 10
634095.2875526131
 20
4837419.058499441
 10
634111.7742159736
 20
4837429.327481334
  0
LWPOLYLINE
  5
19B
330
17
100
AcDbEntity
  8
ROADS
100
AcDbPolyline
 90
3
 70
0
 10
634095.2875526131
 20
4837419.058499441
 10
634055.3853546868
 20
4837494.896184174
 10
634065.8579995305
 20
4837500.133998767
  0
LWPOLYLINE
  5
19C
330
17
100
AcDbEntity
  8
ROADS
100
AcDbPolyline
 90
2
 70
0
 10
634178.790307075
 20
4837548.853252064
 10
634214.7971834962
 20
4837448.547076401
  0
LWPOLYLINE
  5
19D
330
17
100
AcDbEntity
  8
ROADS
100
AcDbPolyline
 90
2
 70
0
 10
634027.0450259792
 20
4837347.771578115
 10
634052.4633743906
 20
4837355.941894614
  0
LWPOLYLINE
  5
19E
330
17
100
AcDbEntity
  8
ROADS
100
AcDbPolyline
 90
2
 70
0
 10
633902.6216806535
 20
4837322.174516505
 10
633849.29727008
 20
4837483.375433157
  0
LWPOLYLINE
  5
19F
330
17
100
AcDbEntity
  8
ROADS
100
AcDbPolyline
 90
3
 70
0
 10
633982.4531725543
 20
4837334.01208692
 10
633939.8438323069
 20
4837455.828574879
 10
633955.6771521337
 20
4837484.63826168
  0
LWPOLYLINE
  5
1A0
330
17
100
AcDbEntity
  8
ROADS
100
AcDbPolyline
 90
3
 70
0
 10
634052.4633743906
 20
4837355.941894614
 10
634029.9938562635
 20
4837412.495230917
 10
633955.6771521337
 20
4837484.63826168
  0
LWPOLYLINE
  5
1A1
330
17
100
AcDbEntity
  8
ROADS
100
AcDbPolyline
 90
2
 70
0
 10
633510.1184015104
 20
4837382.691741154
 10
633808.7703007577
 20
4837471.356580287
  0
LWPOLYLINE
  5
1A2
330
17
100
AcDbEntity
  8
ROADS
100
AcDbPolyline
 90
2
 70
0
 10
633808.7703007577
 20
4837471.356580287
 10
633849.29727008
 20
4837483.375433157
  0
LWPOLYLINE
  5
1A3
330
17
100
AcDbEntity
  8
ROADS
100
AcDbPolyline
 90
2
 70
0
 10
633808.7703007577
 20
4837471.356580287
 10
633794.8759605619
 20
4837513.339749211
  0
LWPOLYLINE
  5
1A4
330
17
100
AcDbEntity
  8
ROADS
100
AcDbPolyline
 90
3
 70
0
 10
634093.5331656443
 20
4837401.431319666
 10
633952.8507686919
 20
4837559.410290004
 10
633900.8747439092
 20
4837595.34081251
  0
LWPOLYLINE
  5
1A5
330
17
100
AcDbEntity
  8
ROADS
100
AcDbPolyline
 90
2
 70
0
 10
633849.29727008
 20
4837483.375433157
 10
633833.55201446
 20
4837531.317622527
  0
LWPOLYLINE
  5
1A6
330
17
100
AcDbEntity
  8
ROADS
100
AcDbPolyline
 90
3
 70
0
 10
633955.6771521337
 20
4837484.63826168
 10
633905.5546130547
 20
4837540.126416787
 10
633833.55201446
 20
4837531.317622527
  0
LWPOLYLINE
  5
1A7
330
17
100
AcDbEntity
  8
ROADS
100
AcDbPolyline
 90
2
 70
0
 10
633122.8533624262
 20
4837460.164893055
 10
633138.0964124261
 20
4837464.597894093
  0
LWPOLYLINE
  5
1A8
330
17
100
AcDbEntity
  8
ROADS
100
AcDbPolyline
 90
2
 70
0
 10
633230.9463332857
 20
4837440.874050448
 10
633214.4820575493
 20
4837488.180099743
  0
LWPOLYLINE
  5
1A9
330
17
100
AcDbEntity
  8
ROADS
100
AcDbPolyline
 90
2
 70
0
 10
632930.510683365
 20
4837449.625828566
 10
632916.3100351066
 20
4837493.617507618
  0
LWPOLYLINE
  5
1AA
330
17
100
AcDbEntity
  8
ROADS
100
AcDbPolyline
 90
2
 70
0
 10
632984.5575410763
 20
4837465.630452022
 10
633032.1918871836
 20
4837479.091917521
  0
LWPOLYLINE
  5
1AB
330
17
100
AcDbEntity
  8
ROADS
100
AcDbPolyline
 90
2
 70
0
 10
633138.0964124261
 20
4837464.597894093
 10
633214.4820575493
 20
4837488.180099743
  0
LWPOLYLINE
  5
1AC
330
17
100
AcDbEntity
  8
ROADS
100
AcDbPolyline
 90
2
 70
0
 10
633138.0964124261
 20
4837464.597894093
 10
633126.2480011606
 20
4837504.991850342
  0
LWPOLYLINE
  5
1AD
330
17
100
AcDbEntity
  8
ROADS
100
AcDbPolyline
 90
2
 70
0
 10
633032.1918871836
 20
4837479.091917521
 10
633084.7553651907
 20
4837493.397590344
  0
LWPOLYLINE
  5
1AE
330
17
100
AcDbEntity
  8
ROADS
100
AcDbPolyline
 90
2
 70
0
 10
632984.5575410763
 20
4837465.630452022
 10
632972.0250845128
 20
4837508.15318824
  0
LWPOLYLINE
  5
1AF
330
17
100
AcDbEntity
  8
ROADS
100
AcDbPolyline
 90
2
 70
0
 10
633126.2480011606
 20
4837504.991850342
 10
633084.7553651907
 20
4837493.397590344
  0
LWPOLYLINE
  5
1B0
330
17
100
AcDbEntity
  8
ROADS
100
AcDbPolyline
 90
2
 70
0
 10
632972.0250845128
 20
4837508.15318824
 10
632916.3100351066
 20
4837493.617507618
  0
LWPOLYLINE
  5
1B1
330
17
100
AcDbEntity
  8
ROADS
100
AcDbPolyline
 90
2
 70
0
 10
633496.5495525245
 20
4837424.705764536
 10
633483.52715571
 20
4837466.641660071
  0
LWPOLYLINE
  5
1B2
330
17
100
AcDbEntity
  8
ROADS
100
AcDbPolyline
 90
2
 70
0
 10
633441.2223763956
 20
4837453.832608945
 10
633483.52715571
 20
4837466.641660071
  0
LWPOLYLINE
  5
1B3
330
17
100
AcDbEntity
  8
ROADS
100
AcDbPolyline
 90
2
 70
0
 10
633496.5495525245
 20
4837424.705764536
 10
633794.8759605619
 20
4837513.339749211
  0
LWPOLYLINE
  5
1B4
330
17
100
AcDbEntity
  8
ROADS
100
AcDbPolyline
 90
2
 70
0
 10
633483.52715571
 20
4837466.641660071
 10
633469.0643420578
 20
4837510.584666375
  0
LWPOLYLINE
  5
1B5
330
17
100
AcDbEntity
  8
ROADS
100
AcDbPolyline
 90
2
 70
0
 10
633441.2223763956
 20
4837453.832608945
 10
633412.5855933654
 20
4837544.217032281
  0
LWPOLYLINE
  5
1B6
330
17
100
AcDbEntity
  8
ROADS
100
AcDbPolyline
 90
2
 70
0
 10
633214.4820575493
 20
4837488.180099743
 10
633300.9577240214
 20
4837513.13389027
  0
LWPOLYLINE
  5
1B7
330
17
100
AcDbEntity
  8
ROADS
100
AcDbPolyline
 90
2
 70
0
 10
633483.52715571
 20
4837466.641660071
 10
633781.4250964393
 20
4837553.528788058
  0
LWPOLYLINE
  5
1B8
330
17
100
AcDbEntity
  8
ROADS
100
AcDbPolyline
 90
2
 70
0
 10
633300.9577240214
 20
4837513.13389027
 10
633312.9607088207
 20
4837516.9482540535
  0
LWPOLYLINE
  5
1B9
330
17
100
AcDbEntity
  8
ROADS
100
AcDbPolyline
 90
2
 70
0
 10
633469.0643420578
 20
4837510.584666375
 10
633578.0820541945
 20
4837543.492768611
  0
LWPOLYLINE
  5
1BA
330
17
100
AcDbEntity
  8
ROADS
100
AcDbPolyline
 90
2
 70
0
 10
633312.9607088207
 20
4837516.9482540535
 10
633412.5855933654
 20
4837544.217032281
  0
LWPOLYLINE
  5
1BB
330
17
100
AcDbEntity
  8
ROADS
100
AcDbPolyline
 90
2
 70
0
 10
634577.0535827053
 20
4837343.171332938
 10
634540.0269975674
 20
4837461.835455897
  0
LWPOLYLINE
  5
1BC
330
17
100
AcDbEntity
  8
ROADS
100
AcDbPolyline
 90
2
 70
0
 10
634540.0269975674
 20
4837461.835455897
 10
634630.2317497487
 20
4837490.379424678
  0
LWPOLYLINE
  5
1BD
330
17
100
AcDbEntity
  8
ROADS
100
AcDbPolyline
 90
2
 70
0
 10
634540.0269975674
 20
4837461.835455897
 10
634509.7287717746
 20
4837547.807760893
  0
LWPOLYLINE
  5
1BE
330
17
100
AcDbEntity
  8
ROADS
100
AcDbPolyline
 90
2
 70
0
 10
634509.7287717746
 20
4837547.807760893
 10
634483.817512615
 20
4837623.847553163
  0
LWPOLYLINE
  5
1BF
330
17
100
AcDbEntity
  8
ROADS
100
AcDbPolyline
 90
3
 70
0
 10
634509.7287717746
 20
4837547.807760893
 10
634618.8867179037
 20
4837579.284387348
 10
634612.3146488416
 20
4837662.812561991
  0
LWPOLYLINE
  5
1C0
330
17
100
AcDbEntity
  8
ROADS
100
AcDbPolyline
 90
2
 70
0
 10
634483.817512615
 20
4837623.847553163
 10
634478.1028519036
 20
4837647.746209373
  0
LWPOLYLINE
  5
1C1
330
17
100
AcDbEntity
  8
ROADS
100
AcDbPolyline
 90
2
 70
0
 10
634483.817512615
 20
4837623.847553163
 10
634595.2432883781
 20
4837658.790171525
  0
LWPOLYLINE
  5
1C2
330
17
100
AcDbEntity
  8
ROADS
100
AcDbPolyline
 90
2
 70
0
 10
634178.790307075
 20
4837548.853252064
 10
634279.7761342255
 20
4837609.158461718
  0
LWPOLYLINE
  5
1C3
330
17
100
AcDbEntity
  8
ROADS
100
AcDbPolyline
 90
3
 70
0
 10
634126.576168488
 20
4837647.3841674775
 10
634161.4290775522
 20
4837543.477851718
 10
634178.790307075
 20
4837548.853252064
  0
LWPOLYLINE
  5
1C4
330
17
100
AcDbEntity
  8
ROADS
100
AcDbPolyline
 90
2
 70
0
 10
634310.7137534054
 20
4837591.073430147
 10
634300.1729025983
 20
4837608.380250043
  0
LWPOLYLINE
  5
1C5
330
17
100
AcDbEntity
  8
ROADS
100
AcDbPolyline
 90
2
 70
0
 10
634279.7761342255
 20
4837609.158461718
 10
634300.1729025983
 20
4837608.380250043
  0
LWPOLYLINE
  5
1C6
330
17
100
AcDbEntity
  8
ROADS
100
AcDbPolyline
 90
2
 70
0
 10
634300.1729025983
 20
4837608.380250043
 10
634284.3960946759
 20
4837625.052329351
  0
LWPOLYLINE
  5
1C7
330
17
100
AcDbEntity
  8
ROADS
100
AcDbPolyline
 90
2
 70
0
 10
634279.7761342255
 20
4837609.158461718
 10
634284.3960946759
 20
4837625.052329351
  0
LWPOLYLINE
  5
1C8
330
17
100
AcDbEntity
  8
ROADS
100
AcDbPolyline
 90
2
 70
0
 10
634284.3960946759
 20
4837625.052329351
 10
634263.2626791208
 20
4837620.056739046
  0
LWPOLYLINE
  5
1C9
330
17
100
AcDbEntity
  8
ROADS
100
AcDbPolyline
 90
3
 70
0
 10
634300.1729025983
 20
4837608.380250043
 10
634330.469818059
 20
4837599.068361115
 10
634478.1028519036
 20
4837647.746209373
  0
LWPOLYLINE
  5
1CA
330
17
100
AcDbEntity
  8
ROADS
100
AcDbPolyline
 90
3
 70
0
 10
634005.8272547469
 20
4837627.695921955
 10
634097.1685881087
 20
4837655.853059323
 10
634126.576168488
 20
4837647.3841674775
  0
LWPOLYLINE
  5
1CB
330
17
100
AcDbEntity
  8
ROADS
100
AcDbPolyline
 90
2
 70
0
 10
634126.576168488
 20
4837647.3841674775
 10
634210.6223164783
 20
4837663.90742874
  0
LWPOLYLINE
  5
1CC
330
17
100
AcDbEntity
  8
ROADS
100
AcDbPolyline
 90
2
 70
0
 10
634595.2432883781
 20
4837658.790171525
 10
634612.3146488416
 20
4837662.812561991
  0
LWPOLYLINE
  5
1CD
330
17
100
AcDbEntity
  8
ROADS
100
AcDbPolyline
 90
2
 70
0
 10
634612.3146488416
 20
4837662.812561991
 10
634624.8986393207
 20
4837678.465447998
  0
LWPOLYLINE
  5
1CE
330
17
100
AcDbEntity
  8
ROADS
100
AcDbPolyline
 90
2
 70
0
 10
634478.1028519036
 20
4837647.746209373
 10
634460.0937057557
 20
4837699.926895479
  0
LWPOLYLINE
  5
1CF
330
17
100
AcDbEntity
  8
ROADS
100
AcDbPolyline
 90
2
 70
0
 10
634595.2432883781
 20
4837658.790171525
 10
634586.7828106892
 20
4837694.978545173
  0
LWPOLYLINE
  5
1D0
330
17
100
AcDbEntity
  8
ROADS
100
AcDbPolyline
 90
2
 70
0
 10
634586.7828106892
 20
4837694.978545173
 10
634546.3286899616
 20
4837681.470834231
  0
LWPOLYLINE
  5
1D1
330
17
100
AcDbEntity
  8
ROADS
100
AcDbPolyline
 90
2
 70
0
 10
634624.8986393207
 20
4837678.465447998
 10
634652.1676207313
 20
4837701.9840627555
  0
LWPOLYLINE
  5
1D2
330
17
100
AcDbEntity
  8
ROADS
100
AcDbPolyline
 90
2
 70
0
 10
634586.7828106892
 20
4837694.978545173
 10
634605.4395693493
 20
4837700.442395815
  0
LWPOLYLINE
  5
1D3
330
17
100
AcDbEntity
  8
ROADS
100
AcDbPolyline
 90
2
 70
0
 10
634624.8986393207
 20
4837678.465447998
 10
634613.8811612889
 20
4837720.908775718
  0
LWPOLYLINE
  5
1D4
330
17
100
AcDbEntity
  8
ROADS
100
AcDbPolyline
 90
2
 70
0
 10
634613.8811612889
 20
4837720.908775718
 10
634652.1676207313
 20
4837701.9840627555
  0
LWPOLYLINE
  5
1D5
330
17
100
AcDbEntity
  8
ROADS
100
AcDbPolyline
 90
2
 70
0
 10
634460.0937057557
 20
4837699.926895479
 10
634542.9793279052
 20
4837727.427118473
  0
LWPOLYLINE
  5
1D6
330
17
100
AcDbEntity
  8
ROADS
100
AcDbPolyline
 90
2
 70
0
 10
634652.1676207313
 20
4837701.9840627555
 10
634654.5599247853
 20
4837708.529002096
  0
LWPOLYLINE
  5
1D7
330
17
100
AcDbEntity
  8
ROADS
100
AcDbPolyline
 90
2
 70
0
 10
634460.0937057557
 20
4837699.926895479
 10
634448.4932114069
 20
4837738.221311394
  0
LWPOLYLINE
  5
1D8
330
17
100
AcDbEntity
  8
ROADS
100
AcDbPolyline
 90
2
 70
0
 10
634613.8811612889
 20
4837720.908775718
 10
634613.8503289965
 20
4837739.423774954
  0
LWPOLYLINE
  5
1D9
330
17
100
AcDbEntity
  8
ROADS
100
AcDbPolyline
 90
2
 70
0
 10
634542.9793279052
 20
4837727.427118473
 10
634613.8503289965
 20
4837739.423774954
  0
LWPOLYLINE
  5
1DA
330
17
100
AcDbEntity
  8
ROADS
100
AcDbPolyline
 90
2
 70
0
 10
634613.8503289965
 20
4837739.423774954
 10
634653.5021040249
 20
4837735.625932711
  0
LWPOLYLINE
  5
1DB
330
17
100
AcDbEntity
  8
ROADS
100
AcDbPolyline
 90
2
 70
0
 10
634648.9720369857
 20
4837783.865206194
 10
634623.994175343
 20
4837865.22280088
  0
LWPOLYLINE
  5
1DC
330
17
100
AcDbEntity
  8
ROADS
100
AcDbPolyline
 90
2
 70
0
 10
633032.1918871836
 20
4837479.091917521
 10
633033.3875200141
 20
4837525.0844393065
  0
LWPOLYLINE
  5
1DD
330
17
100
AcDbEntity
  8
ROADS
100
AcDbPolyline
 90
2
 70
0
 10
632843.5087819096
 20
4837573.109262063
 10
632884.1771139773
 20
4837436.514921294
  0
LWPOLYLINE
  5
1DE
330
17
100
AcDbEntity
  8
ROADS
100
AcDbPolyline
 90
2
 70
0
 10
633126.2480011606
 20
4837504.991850342
 10
633164.1429538205
 20
4837516.000007056
  0
LWPOLYLINE
  5
1DF
330
17
100
AcDbEntity
  8
ROADS
100
AcDbPolyline
 90
2
 70
0
 10
633084.7553651907
 20
4837493.397590344
 10
633072.0850263163
 20
4837528.8622838715
  0
LWPOLYLINE
  5
1E0
330
17
100
AcDbEntity
  8
ROADS
100
AcDbPolyline
 90
2
 70
0
 10
633214.4820575493
 20
4837488.180099743
 10
633200.1886924915
 20
4837536.357472261
  0
LWPOLYLINE
  5
1E1
330
17
100
AcDbEntity
  8
ROADS
100
AcDbPolyline
 90
2
 70
0
 10
633033.3875200141
 20
4837525.0844393065
 10
632972.0250845128
 20
4837508.15318824
  0
LWPOLYLINE
  5
1E2
330
17
100
AcDbEntity
  8
ROADS
100
AcDbPolyline
 90
2
 70
0
 10
633033.3875200141
 20
4837525.0844393065
 10
633072.0850263163
 20
4837528.8622838715
  0
LWPOLYLINE
  5
1E3
330
17
100
AcDbEntity
  8
ROADS
100
AcDbPolyline
 90
3
 70
0
 10
633033.3875200141
 20
4837525.0844393065
 10
633065.845178866
 20
4837540.494368642
 10
633072.0850263163
 20
4837528.8622838715
  0
LWPOLYLINE
  5
1E4
330
17
100
AcDbEntity
  8
ROADS
100
AcDbPolyline
 90
2
 70
0
 10
632916.3100351066
 20
4837493.617507618
 10
632888.9612121704
 20
4837586.002235119
  0
LWPOLYLINE
  5
1E5
330
17
100
AcDbEntity
  8
ROADS
100
AcDbPolyline
 90
2
 70
0
 10
633200.1886924915
 20
4837536.357472261
 10
633250.066379078
 20
4837550.364567674
  0
LWPOLYLINE
  5
1E6
330
17
100
AcDbEntity
  8
ROADS
100
AcDbPolyline
 90
2
 70
0
 10
633469.0643420578
 20
4837510.584666375
 10
633453.7880436031
 20
4837557.260178396
  0
LWPOLYLINE
  5
1E7
330
17
100
AcDbEntity
  8
ROADS
100
AcDbPolyline
 90
2
 70
0
 10
633312.9607088207
 20
4837516.9482540535
 10
633299.1166076038
 20
4837564.393705323
  0
LWPOLYLINE
  5
1E8
330
17
100
AcDbEntity
  8
ROADS
100
AcDbPolyline
 90
2
 70
0
 10
633412.5855933654
 20
4837544.217032281
 10
633453.7880436031
 20
4837557.260178396
  0
LWPOLYLINE
  5
1E9
330
17
100
AcDbEntity
  8
ROADS
100
AcDbPolyline
 90
2
 70
0
 10
633250.066379078
 20
4837550.364567674
 10
633299.1166076038
 20
4837564.393705323
  0
LWPOLYLINE
  5
1EA
330
17
100
AcDbEntity
  8
ROADS
100
AcDbPolyline
 90
2
 70
0
 10
633250.066379078
 20
4837550.364567674
 10
633241.3423902433
 20
4837580.3522038665
  0
LWPOLYLINE
  5
1EB
330
17
100
AcDbEntity
  8
ROADS
100
AcDbPolyline
 90
2
 70
0
 10
633412.5855933654
 20
4837544.217032281
 10
633398.5300188636
 20
4837593.456816735
  0
LWPOLYLINE
  5
1EC
330
17
100
AcDbEntity
  8
ROADS
100
AcDbPolyline
 90
2
 70
0
 10
633453.7880436031
 20
4837557.260178396
 10
633556.8169624388
 20
4837586.258677444
  0
LWPOLYLINE
  5
1ED
330
17
100
AcDbEntity
  8
ROADS
100
AcDbPolyline
 90
2
 70
0
 10
633299.1166076038
 20
4837564.393705323
 10
633290.3042539251
 20
4837594.732775743
  0
LWPOLYLINE
  5
1EE
330
17
100
AcDbEntity
  8
ROADS
100
AcDbPolyline
 90
2
 70
0
 10
633241.3423902433
 20
4837580.3522038665
 10
633290.3042539251
 20
4837594.732775743
  0
LWPOLYLINE
  5
1EF
330
17
100
AcDbEntity
  8
ROADS
100
AcDbPolyline
 90
3
 70
0
 10
633398.5300188636
 20
4837593.456816735
 10
633347.534261414
 20
4837579.060458769
 10
633341.1839392792
 20
4837608.7450039005
  0
LWPOLYLINE
  5
1F0
330
17
100
AcDbEntity
  8
ROADS
100
AcDbPolyline
 90
2
 70
0
 10
633794.8759605619
 20
4837513.339749211
 10
633781.4250964393
 20
4837553.528788058
  0
LWPOLYLINE
  5
1F1
330
17
100
AcDbEntity
  8
ROADS
100
AcDbPolyline
 90
2
 70
0
 10
633833.55201446
 20
4837531.317622527
 10
633821.8100953395
 20
4837565.932114008
  0
LWPOLYLINE
  5
1F2
330
17
100
AcDbEntity
  8
ROADS
100
AcDbPolyline
 90
2
 70
0
 10
633781.4250964393
 20
4837553.528788058
 10
633821.8100953395
 20
4837565.932114008
  0
LWPOLYLINE
  5
1F3
330
17
100
AcDbEntity
  8
ROADS
100
AcDbPolyline
 90
2
 70
0
 10
633821.8100953395
 20
4837565.932114008
 10
633817.1357874342
 20
4837579.973732092
  0
LWPOLYLINE
  5
1F4
330
17
100
AcDbEntity
  8
ROADS
100
AcDbPolyline
 90
2
 70
0
 10
633817.1357874342
 20
4837579.973732092
 10
633900.8747439092
 20
4837595.34081251
  0
LWPOLYLINE
  5
1F5
330
17
100
AcDbEntity
  8
ROADS
100
AcDbPolyline
 90
2
 70
0
 10
633817.1357874342
 20
4837579.973732092
 10
633803.9450911812
 20
4837612.854879114
  0
LWPOLYLINE
  5
1F6
330
17
100
AcDbEntity
  8
ROADS
100
AcDbPolyline
 90
2
 70
0
 10
633900.8747439092
 20
4837595.34081251
 10
634005.8272547469
 20
4837627.695921955
  0
LWPOLYLINE
  5
1F7
330
17
100
AcDbEntity
  8
ROADS
100
AcDbPolyline
 90
2
 70
0
 10
633661.6587525429
 20
4837616.767100339
 10
633754.5328641334
 20
4837646.763076107
  0
LWPOLYLINE
  5
1F8
330
17
100
AcDbEntity
  8
ROADS
100
AcDbPolyline
 90
2
 70
0
 10
633803.9450911812
 20
4837612.854879114
 10
633789.0725982896
 20
4837656.776511126
  0
LWPOLYLINE
  5
1F9
330
17
100
AcDbEntity
  8
ROADS
100
AcDbPolyline
 90
2
 70
0
 10
633661.6587525429
 20
4837616.767100339
 10
633648.6542419994
 20
4837659.205373775
  0
LWPOLYLINE
  5
1FA
330
17
100
AcDbEntity
  8
ROADS
100
AcDbPolyline
 90
2
 70
0
 10
633200.1886924915
 20
4837536.357472261
 10
633190.1661201967
 20
4837570.297936569
  0
LWPOLYLINE
  5
1FB
330
17
100
AcDbEntity
  8
ROADS
100
AcDbPolyline
 90
2
 70
0
 10
632972.0250845128
 20
4837508.15318824
 10
632944.399605298
 20
4837601.872032513
  0
LWPOLYLINE
  5
1FC
330
17
100
AcDbEntity
  8
ROADS
100
AcDbPolyline
 90
2
 70
0
 10
633033.3875200141
 20
4837525.0844393065
 10
632998.6337713598
 20
4837617.086005802
  0
LWPOLYLINE
  5
1FD
330
17
100
AcDbEntity
  8
ROADS
100
AcDbPolyline
 90
2
 70
0
 10
633190.1661201967
 20
4837570.297936569
 10
633241.3423902433
 20
4837580.3522038665
  0
LWPOLYLINE
  5
1FE
330
17
100
AcDbEntity
  8
ROADS
100
AcDbPolyline
 90
2
 70
0
 10
632843.5087819096
 20
4837573.109262063
 10
632888.9612121704
 20
4837586.002235119
  0
LWPOLYLINE
  5
1FF
330
17
100
AcDbEntity
  8
ROADS
100
AcDbPolyline
 90
2
 70
0
 10
633072.0850263163
 20
4837528.8622838715
 10
633045.1625093735
 20
4837630.852523771
  0
LWPOLYLINE
  5
200
330
17
100
AcDbEntity
  8
ROADS
100
AcDbPolyline
 90
2
 70
0
 10
632888.9612121704
 20
4837586.002235119
 10
632944.399605298
 20
4837601.872032513
  0
LWPOLYLINE
  5
201
330
17
100
AcDbEntity
  8
ROADS
100
AcDbPolyline
 90
2
 70
0
 10
633126.2480011606
 20
4837504.991850342
 10
633073.4730412065
 20
4837683.258658148
  0
LWPOLYLINE
  5
202
330
17
100
AcDbEntity
  8
ROADS
100
AcDbPolyline
 90
2
 70
0
 10
632944.399605298
 20
4837601.872032513
 10
632998.6337713598
 20
4837617.086005802
  0
LWPOLYLINE
  5
203
330
17
100
AcDbEntity
  8
ROADS
100
AcDbPolyline
 90
2
 70
0
 10
632998.6337713598
 20
4837617.086005802
 10
633045.1625093735
 20
4837630.852523771
  0
LWPOLYLINE
  5
204
330
17
100
AcDbEntity
  8
ROADS
100
AcDbPolyline
 90
2
 70
0
 10
633803.9450911812
 20
4837612.854879114
 10
633992.7603613476
 20
4837666.338798411
  0
LWPOLYLINE
  5
205
330
17
100
AcDbEntity
  8
ROADS
100
AcDbPolyline
 90
2
 70
0
 10
634005.8272547469
 20
4837627.695921955
 10
633992.7603613476
 20
4837666.338798411
  0
LWPOLYLINE
  5
206
330
17
100
AcDbEntity
  8
ROADS
100
AcDbPolyline
 90
2
 70
0
 10
633754.5328641334
 20
4837646.763076107
 10
633789.0725982896
 20
4837656.776511126
  0
LWPOLYLINE
  5
207
330
17
100
AcDbEntity
  8
ROADS
100
AcDbPolyline
 90
2
 70
0
 10
633789.0725982896
 20
4837656.776511126
 10
633848.5997503072
 20
4837673.460368493
  0
LWPOLYLINE
  5
208
330
17
100
AcDbEntity
  8
ROADS
100
AcDbPolyline
 90
2
 70
0
 10
633754.5328641334
 20
4837646.763076107
 10
633741.7432533456
 20
4837687.465605048
  0
LWPOLYLINE
  5
209
330
17
100
AcDbEntity
  8
ROADS
100
AcDbPolyline
 90
2
 70
0
 10
633992.7603613476
 20
4837666.338798411
 10
633978.2374371807
 20
4837709.28969485
  0
LWPOLYLINE
  5
20A
330
17
100
AcDbEntity
  8
ROADS
100
AcDbPolyline
 90
2
 70
0
 10
633848.5997503072
 20
4837673.460368493
 10
633978.2374371807
 20
4837709.28969485
  0
LWPOLYLINE
  5
20B
330
17
100
AcDbEntity
  8
ROADS
100
AcDbPolyline
 90
2
 70
0
 10
633848.5997503072
 20
4837673.460368493
 10
633836.9125185134
 20
4837715.335439499
  0
LWPOLYLINE
  5
20C
330
17
100
AcDbEntity
  8
ROADS
100
AcDbPolyline
 90
3
 70
0
 10
633741.7432533456
 20
4837687.465605048
 10
633696.9043206183
 20
4837671.140902747
 10
633682.988265631
 20
4837718.139064858
  0
LWPOLYLINE
  5
20D
330
17
100
AcDbEntity
  8
ROADS
100
AcDbPolyline
 90
2
 70
0
 10
633635.8642175886
 20
4837703.331659835
 10
633682.988265631
 20
4837718.139064858
  0
LWPOLYLINE
  5
20E
330
17
100
AcDbEntity
  8
ROADS
100
AcDbPolyline
 90
2
 70
0
 10
633556.8169624388
 20
4837586.258677444
 10
633661.6587525429
 20
4837616.767100339
  0
LWPOLYLINE
  5
20F
330
17
100
AcDbEntity
  8
ROADS
100
AcDbPolyline
 90
2
 70
0
 10
633290.3042539251
 20
4837594.732775743
 10
633341.1839392792
 20
4837608.7450039005
  0
LWPOLYLINE
  5
210
330
17
100
AcDbEntity
  8
ROADS
100
AcDbPolyline
 90
2
 70
0
 10
633398.5300188636
 20
4837593.456816735
 10
633388.2486477288
 20
4837627.052591718
  0
LWPOLYLINE
  5
211
330
17
100
AcDbEntity
  8
ROADS
100
AcDbPolyline
 90
2
 70
0
 10
633388.2486477288
 20
4837627.052591718
 10
633484.3601015096
 20
4837656.708064001
  0
LWPOLYLINE
  5
212
330
17
100
AcDbEntity
  8
ROADS
100
AcDbPolyline
 90
2
 70
0
 10
633388.2486477288
 20
4837627.052591718
 10
633364.4981319963
 20
4837710.584800568
  0
LWPOLYLINE
  5
213
330
17
100
AcDbEntity
  8
ROADS
100
AcDbPolyline
 90
2
 70
0
 10
633341.1839392792
 20
4837608.7450039005
 10
633303.2765646398
 20
4837737.826839285
  0
LWPOLYLINE
  5
214
330
17
100
AcDbEntity
  8
ROADS
100
AcDbPolyline
 90
2
 70
0
 10
633290.3042539251
 20
4837594.732775743
 10
633241.0936958275
 20
4837763.699373789
  0
LWPOLYLINE
  5
215
330
17
100
AcDbEntity
  8
ROADS
100
AcDbPolyline
 90
2
 70
0
 10
633648.6542419994
 20
4837659.205373775
 10
633635.8642175886
 20
4837703.331659835
  0
LWPOLYLINE
  5
216
330
17
100
AcDbEntity
  8
ROADS
100
AcDbPolyline
 90
3
 70
0
 10
633648.6542419994
 20
4837659.205373775
 10
633593.1104024467
 20
4837644.514724159
 10
633557.8806117638
 20
4837766.385491783
  0
LWPOLYLINE
  5
217
330
17
100
AcDbEntity
  8
ROADS
100
AcDbPolyline
 90
2
 70
0
 10
633364.4981319963
 20
4837710.584800568
 10
633430.4384372716
 20
4837730.159857887
  0
LWPOLYLINE
  5
218
330
17
100
AcDbEntity
  8
ROADS
100
AcDbPolyline
 90
2
 70
0
 10
634210.6223164783
 20
4837663.90742874
 10
634251.9431203
 20
4837676.9367581755
  0
LWPOLYLINE
  5
219
330
17
100
AcDbEntity
  8
ROADS
100
AcDbPolyline
 90
3
 70
0
 10
634404.3952763198
 20
4837724.908721219
 10
634420.9918970459
 20
4837672.916516599
 10
634284.3960946759
 20
4837625.052329351
  0
LWPOLYLINE
  5
21A
330
17
100
AcDbEntity
  8
ROADS
100
AcDbPolyline
 90
2
 70
0
 10
633992.7603613476
 20
4837666.338798411
 10
634119.1861076554
 20
4837706.079374282
  0
LWPOLYLINE
  5
21B
330
17
100
AcDbEntity
  8
ROADS
100
AcDbPolyline
 90
2
 70
0
 10
634251.9431203
 20
4837676.9367581755
 10
634404.3952763198
 20
4837724.908721219
  0
LWPOLYLINE
  5
21C
330
17
100
AcDbEntity
  8
ROADS
100
AcDbPolyline
 90
2
 70
0
 10
634210.6223164783
 20
4837663.90742874
 10
634177.7875971041
 20
4837771.238529121
  0
LWPOLYLINE
  5
21D
330
17
100
AcDbEntity
  8
ROADS
100
AcDbPolyline
 90
3
 70
0
 10
634251.9431203
 20
4837676.9367581755
 10
634236.0691734594
 20
4837729.006011743
 10
634387.5814104278
 20
4837777.466039217
  0
LWPOLYLINE
  5
21E
330
17
100
AcDbEntity
  8
ROADS
100
AcDbPolyline
 90
2
 70
0
 10
634404.3952763198
 20
4837724.908721219
 10
634448.4932114069
 20
4837738.221311394
  0
LWPOLYLINE
  5
21F
330
17
100
AcDbEntity
  8
ROADS
100
AcDbPolyline
 90
2
 70
0
 10
634020.6828742437
 20
4837721.513293172
 10
634177.7875971041
 20
4837771.238529121
  0
LWPOLYLINE
  5
220
330
17
100
AcDbEntity
  8
ROADS
100
AcDbPolyline
 90
2
 70
0
 10
634404.3952763198
 20
4837724.908721219
 10
634387.5814104278
 20
4837777.466039217
  0
LWPOLYLINE
  5
221
330
17
100
AcDbEntity
  8
ROADS
100
AcDbPolyline
 90
2
 70
0
 10
634177.7875971041
 20
4837771.238529121
 10
634216.4994185781
 20
4837783.535627979
  0
LWPOLYLINE
  5
222
330
17
100
AcDbEntity
  8
ROADS
100
AcDbPolyline
 90
2
 70
0
 10
633190.1661201967
 20
4837570.297936569
 10
633150.9240685372
 20
4837706.325134947
  0
LWPOLYLINE
  5
223
330
17
100
AcDbEntity
  8
ROADS
100
AcDbPolyline
 90
2
 70
0
 10
633241.3423902433
 20
4837580.3522038665
 10
633203.6266454584
 20
4837710.009515203
  0
LWPOLYLINE
  5
224
330
17
100
AcDbEntity
  8
ROADS
100
AcDbPolyline
 90
2
 70
0
 10
633073.4730412065
 20
4837683.258658148
 10
633150.9240685372
 20
4837706.325134947
  0
LWPOLYLINE
  5
225
330
17
100
AcDbEntity
  8
ROADS
100
AcDbPolyline
 90
2
 70
0
 10
632944.399605298
 20
4837601.872032513
 10
632874.5127624535
 20
4837839.056919092
  0
LWPOLYLINE
  5
226
330
17
100
AcDbEntity
  8
ROADS
100
AcDbPolyline
 90
2
 70
0
 10
633150.9240685372
 20
4837706.325134947
 10
633142.7421986706
 20
4837735.478495784
  0
LWPOLYLINE
  5
227
330
17
100
AcDbEntity
  8
ROADS
100
AcDbPolyline
 90
2
 70
0
 10
632888.9612121704
 20
4837586.002235119
 10
632804.9977283175
 20
4837876.356699953
  0
LWPOLYLINE
  5
228
330
17
100
AcDbEntity
  8
ROADS
100
AcDbPolyline
 90
2
 70
0
 10
633142.7421986706
 20
4837735.478495784
 10
633241.0936958275
 20
4837763.699373789
  0
LWPOLYLINE
  5
229
330
17
100
AcDbEntity
  8
ROADS
100
AcDbPolyline
 90
2
 70
0
 10
633045.1625093735
 20
4837630.852523771
 10
632974.4123976498
 20
4837869.871009363
  0
LWPOLYLINE
  5
22A
330
17
100
AcDbEntity
  8
ROADS
100
AcDbPolyline
 90
2
 70
0
 10
632998.6337713598
 20
4837617.086005802
 10
632913.5641416971
 20
4837908.159610828
  0
LWPOLYLINE
  5
22B
330
17
100
AcDbEntity
  8
ROADS
100
AcDbPolyline
 90
2
 70
0
 10
633073.4730412065
 20
4837683.258658148
 10
633000.993260657
 20
4837934.24782187
  0
LWPOLYLINE
  5
22C
330
17
100
AcDbEntity
  8
ROADS
100
AcDbPolyline
 90
2
 70
0
 10
633741.7432533456
 20
4837687.465605048
 10
633728.1372367431
 20
4837734.379872817
  0
LWPOLYLINE
  5
22D
330
17
100
AcDbEntity
  8
ROADS
100
AcDbPolyline
 90
2
 70
0
 10
633978.2374371807
 20
4837709.28969485
 10
634020.6828742437
 20
4837721.513293172
  0
LWPOLYLINE
  5
22E
330
17
100
AcDbEntity
  8
ROADS
100
AcDbPolyline
 90
2
 70
0
 10
633682.988265631
 20
4837718.139064858
 10
633728.1372367431
 20
4837734.379872817
  0
LWPOLYLINE
  5
22F
330
17
100
AcDbEntity
  8
ROADS
100
AcDbPolyline
 90
2
 70
0
 10
633836.9125185134
 20
4837715.335439499
 10
633823.5331549463
 20
4837765.172557313
  0
LWPOLYLINE
  5
230
330
17
100
AcDbEntity
  8
ROADS
100
AcDbPolyline
 90
2
 70
0
 10
633836.9125185134
 20
4837715.335439499
 10
634006.6334341355
 20
4837766.263901677
  0
LWPOLYLINE
  5
231
330
17
100
AcDbEntity
  8
ROADS
100
AcDbPolyline
 90
2
 70
0
 10
634020.6828742437
 20
4837721.513293172
 10
634006.6334341355
 20
4837766.263901677
  0
LWPOLYLINE
  5
232
330
17
100
AcDbEntity
  8
ROADS
100
AcDbPolyline
 90
2
 70
0
 10
633682.988265631
 20
4837718.139064858
 10
633660.8357591353
 20
4837795.537742055
  0
LWPOLYLINE
  5
233
330
17
100
AcDbEntity
  8
ROADS
100
AcDbPolyline
 90
3
 70
0
 10
633741.7432533456
 20
4837687.465605048
 10
633788.3789781881
 20
4837705.247924176
 10
633748.8091876786
 20
4837843.132575252
  0
LWPOLYLINE
  5
234
330
17
100
AcDbEntity
  8
ROADS
100
AcDbPolyline
 90
2
 70
0
 10
633728.1372367431
 20
4837734.379872817
 10
633701.6581878822
 20
4837827.658608211
  0
LWPOLYLINE
  5
235
330
17
100
AcDbEntity
  8
ROADS
100
AcDbPolyline
 90
2
 70
0
 10
633823.5331549463
 20
4837765.172557313
 10
633991.5980933737
 20
4837813.934917159
  0
LWPOLYLINE
  5
236
330
17
100
AcDbEntity
  8
ROADS
100
AcDbPolyline
 90
2
 70
0
 10
633430.4384372716
 20
4837730.159857887
 10
633461.4018441646
 20
4837739.067527745
  0
LWPOLYLINE
  5
237
330
17
100
AcDbEntity
  8
ROADS
100
AcDbPolyline
 90
2
 70
0
 10
633635.8642175886
 20
4837703.331659835
 10
633613.9646719868
 20
4837781.286946857
  0
LWPOLYLINE
  5
238
330
17
100
AcDbEntity
  8
ROADS
100
AcDbPolyline
 90
2
 70
0
 10
633556.8169624388
 20
4837586.258677444
 10
633453.4769051255
 20
4837946.331923829
  0
LWPOLYLINE
  5
239
330
17
100
AcDbEntity
  8
ROADS
100
AcDbPolyline
 90
2
 70
0
 10
633557.8806117638
 20
4837766.385491783
 10
633613.9646719868
 20
4837781.286946857
  0
LWPOLYLINE
  5
23A
330
17
100
AcDbEntity
  8
ROADS
100
AcDbPolyline
 90
2
 70
0
 10
633613.9646719868
 20
4837781.286946857
 10
633660.8357591353
 20
4837795.537742055
  0
LWPOLYLINE
  5
23B
330
17
100
AcDbEntity
  8
ROADS
100
AcDbPolyline
 90
2
 70
0
 10
633364.4981319963
 20
4837710.584800568
 10
633308.6630116403
 20
4837903.768558961
  0
LWPOLYLINE
  5
23C
330
17
100
AcDbEntity
  8
ROADS
100
AcDbPolyline
 90
2
 70
0
 10
633557.8806117638
 20
4837766.385491783
 10
633525.5841841614
 20
4837878.404487129
  0
LWPOLYLINE
  5
23D
330
17
100
AcDbEntity
  8
ROADS
100
AcDbPolyline
 90
2
 70
0
 10
633430.4384372716
 20
4837730.159857887
 10
633374.5431000342
 20
4837923.243554221
  0
LWPOLYLINE
  5
23E
330
17
100
AcDbEntity
  8
ROADS
100
AcDbPolyline
 90
2
 70
0
 10
633613.9646719868
 20
4837781.286946857
 10
633556.7288767153
 20
4837976.819697113
  0
LWPOLYLINE
  5
23F
330
17
100
AcDbEntity
  8
ROADS
100
AcDbPolyline
 90
2
 70
0
 10
633660.8357591353
 20
4837795.537742055
 10
633605.078038454
 20
4837990.906235165
  0
LWPOLYLINE
  5
240
330
17
100
AcDbEntity
  8
ROADS
100
AcDbPolyline
 90
2
 70
0
 10
632487.5097145512
 20
4837275.77630697
 10
632473.4988121828
 20
4837318.900298503
  0
LWPOLYLINE
  5
241
330
17
100
AcDbEntity
  8
ROADS
100
AcDbPolyline
 90
2
 70
0
 10
632690.5728772405
 20
4837290.966485102
 10
632752.5859679475
 20
4837308.871275288
  0
LWPOLYLINE
  5
242
330
17
100
AcDbEntity
  8
ROADS
100
AcDbPolyline
 90
2
 70
0
 10
632690.5728772405
 20
4837290.966485102
 10
632677.4511148998
 20
4837330.823324854
  0
LWPOLYLINE
  5
243
330
17
100
AcDbEntity
  8
ROADS
100
AcDbPolyline
 90
2
 70
0
 10
632591.909993406
 20
4837306.017536152
 10
632677.4511148998
 20
4837330.823324854
  0
LWPOLYLINE
  5
244
330
17
100
AcDbEntity
  8
ROADS
100
AcDbPolyline
 90
2
 70
0
 10
632473.4988121828
 20
4837318.900298503
 10
632460.2237094073
 20
4837359.107365644
  0
LWPOLYLINE
  5
245
330
17
100
AcDbEntity
  8
ROADS
100
AcDbPolyline
 90
2
 70
0
 10
632677.4511148998
 20
4837330.823324854
 10
632737.328929421
 20
4837348.291474882
  0
LWPOLYLINE
  5
246
330
17
100
AcDbEntity
  8
ROADS
100
AcDbPolyline
 90
2
 70
0
 10
632591.909993406
 20
4837306.017536152
 10
632568.6259489898
 20
4837386.712781716
  0
LWPOLYLINE
  5
247
330
17
100
AcDbEntity
  8
ROADS
100
AcDbPolyline
 90
2
 70
0
 10
632737.328929421
 20
4837348.291474882
 10
632775.4017355369
 20
4837359.582840243
  0
LWPOLYLINE
  5
248
330
17
100
AcDbEntity
  8
ROADS
100
AcDbPolyline
 90
2
 70
0
 10
632775.4017355369
 20
4837359.582840243
 10
632845.5147678223
 20
4837380.01532008
  0
LWPOLYLINE
  5
249
330
17
100
AcDbEntity
  8
ROADS
100
AcDbPolyline
 90
2
 70
0
 10
632460.2237094073
 20
4837359.107365644
 10
632568.6259489898
 20
4837386.712781716
  0
LWPOLYLINE
  5
24A
330
17
100
AcDbEntity
  8
ROADS
100
AcDbPolyline
 90
2
 70
0
 10
632326.5571887618
 20
4837335.171725605
 10
632305.1066326126
 20
4837365.719356306
  0
LWPOLYLINE
  5
24B
330
17
100
AcDbEntity
  8
ROADS
100
AcDbPolyline
 90
2
 70
0
 10
632300.3910281976
 20
4837337.004366457
 10
632305.1066326126
 20
4837365.719356306
  0
LWPOLYLINE
  5
24C
330
17
100
AcDbEntity
  8
ROADS
100
AcDbPolyline
 90
2
 70
0
 10
632348.7216527782
 20
4837358.134971801
 10
632460.2237094073
 20
4837359.107365644
  0
LWPOLYLINE
  5
24D
330
17
100
AcDbEntity
  8
ROADS
100
AcDbPolyline
 90
2
 70
0
 10
632305.1066326126
 20
4837365.719356306
 10
632348.7216527782
 20
4837358.134971801
  0
LWPOLYLINE
  5
24E
330
17
100
AcDbEntity
  8
ROADS
100
AcDbPolyline
 90
2
 70
0
 10
632200.5976997159
 20
4837355.1781827025
 10
632212.5069947634
 20
4837421.516644336
  0
LWPOLYLINE
  5
24F
330
17
100
AcDbEntity
  8
ROADS
100
AcDbPolyline
 90
2
 70
0
 10
632160.1339833417
 20
4837407.580490361
 10
632212.5069947634
 20
4837421.516644336
  0
LWPOLYLINE
  5
250
330
17
100
AcDbEntity
  8
ROADS
100
AcDbPolyline
 90
2
 70
0
 10
632305.1066326126
 20
4837365.719356306
 10
632321.9199759853
 20
4837463.845476747
  0
LWPOLYLINE
  5
251
330
17
100
AcDbEntity
  8
ROADS
100
AcDbPolyline
 90
2
 70
0
 10
632370.3694047092
 20
4837455.899999766
 10
632361.6969330201
 20
4837406.230327928
  0
LWPOLYLINE
  5
252
330
17
100
AcDbEntity
  8
ROADS
100
AcDbPolyline
 90
2
 70
0
 10
632212.5069947634
 20
4837421.516644336
 10
632217.2271896362
 20
4837447.793023383
  0
LWPOLYLINE
  5
253
330
17
100
AcDbEntity
  8
ROADS
100
AcDbPolyline
 90
2
 70
0
 10
632217.2271896362
 20
4837447.793023383
 10
632151.8841520571
 20
4837452.383743815
  0
LWPOLYLINE
  5
254
330
17
100
AcDbEntity
  8
ROADS
100
AcDbPolyline
 90
2
 70
0
 10
632737.328929421
 20
4837348.291474882
 10
632719.0641130593
 20
4837430.819661407
  0
LWPOLYLINE
  5
255
330
17
100
AcDbEntity
  8
ROADS
100
AcDbPolyline
 90
2
 70
0
 10
632460.2237094073
 20
4837359.107365644
 10
632430.7977702395
 20
4837445.078918466
  0
LWPOLYLINE
  5
256
330
17
100
AcDbEntity
  8
ROADS
100
AcDbPolyline
 90
2
 70
0
 10
632568.6259489898
 20
4837386.712781716
 10
632719.0641130593
 20
4837430.819661407
  0
LWPOLYLINE
  5
257
330
17
100
AcDbEntity
  8
ROADS
100
AcDbPolyline
 90
2
 70
0
 10
632568.6259489898
 20
4837386.712781716
 10
632551.8214951153
 20
4837443.734345395
  0
LWPOLYLINE
  5
258
330
17
100
AcDbEntity
  8
ROADS
100
AcDbPolyline
 90
3
 70
0
 10
632833.6838029067
 20
4837421.657657657
 10
632783.1707687025
 20
4837407.283079662
 10
632768.8143579761
 20
4837456.017296977
  0
LWPOLYLINE
  5
259
330
17
100
AcDbEntity
  8
ROADS
100
AcDbPolyline
 90
2
 70
0
 10
632719.0641130593
 20
4837430.819661407
 10
632723.6341360589
 20
4837442.672232944
  0
LWPOLYLINE
  5
25A
330
17
100
AcDbEntity
  8
ROADS
100
AcDbPolyline
 90
2
 70
0
 10
632723.6341360589
 20
4837442.672232944
 10
632768.8143579761
 20
4837456.017296977
  0
LWPOLYLINE
  5
25B
330
17
100
AcDbEntity
  8
ROADS
100
AcDbPolyline
 90
3
 70
0
 10
632517.0840642434
 20
4837462.299616507
 10
632530.5429299359
 20
4837441.351369179
 10
632551.8214951153
 20
4837443.734345395
  0
LWPOLYLINE
  5
25C
330
17
100
AcDbEntity
  8
ROADS
100
AcDbPolyline
 90
2
 70
0
 10
632430.7977702395
 20
4837445.078918466
 10
632517.0840642434
 20
4837462.299616507
  0
LWPOLYLINE
  5
25D
330
17
100
AcDbEntity
  8
ROADS
100
AcDbPolyline
 90
2
 70
0
 10
632551.8214951153
 20
4837443.734345395
 10
632607.6268590358
 20
4837489.30005969
  0
LWPOLYLINE
  5
25E
330
17
100
AcDbEntity
  8
ROADS
100
AcDbPolyline
 90
2
 70
0
 10
633091.1815638486
 20
4837400.899441852
 10
633138.4349836472
 20
4837414.522026567
  0
LWPOLYLINE
  5
25F
330
17
100
AcDbEntity
  8
ROADS
100
AcDbPolyline
 90
2
 70
0
 10
633039.0405173288
 20
4837386.930949016
 10
633027.5033723384
 20
4837432.427429539
  0
LWPOLYLINE
  5
260
330
17
100
AcDbEntity
  8
ROADS
100
AcDbPolyline
 90
2
 70
0
 10
632941.4485300408
 20
4837408.705386378
 10
633027.5033723384
 20
4837432.427429539
  0
LWPOLYLINE
  5
261
330
17
100
AcDbEntity
  8
ROADS
100
AcDbPolyline
 90
2
 70
0
 10
632833.6838029067
 20
4837421.657657657
 10
632884.1771139773
 20
4837436.514921294
  0
LWPOLYLINE
  5
262
330
17
100
AcDbEntity
  8
ROADS
100
AcDbPolyline
 90
2
 70
0
 10
632941.4485300408
 20
4837408.705386378
 10
632930.510683365
 20
4837449.625828566
  0
LWPOLYLINE
  5
263
330
17
100
AcDbEntity
  8
ROADS
100
AcDbPolyline
 90
2
 70
0
 10
633138.4349836472
 20
4837414.522026567
 10
633122.8533624262
 20
4837460.164893055
  0
LWPOLYLINE
  5
264
330
17
100
AcDbEntity
  8
ROADS
100
AcDbPolyline
 90
2
 70
0
 10
632884.1771139773
 20
4837436.514921294
 10
632930.510683365
 20
4837449.625828566
  0
LWPOLYLINE
  5
265
330
17
100
AcDbEntity
  8
ROADS
100
AcDbPolyline
 90
2
 70
0
 10
633027.5033723384
 20
4837432.427429539
 10
633122.8533624262
 20
4837460.164893055
  0
LWPOLYLINE
  5
266
330
17
100
AcDbEntity
  8
ROADS
100
AcDbPolyline
 90
2
 70
0
 10
633027.5033723384
 20
4837432.427429539
 10
633032.1918871836
 20
4837479.091917521
  0
LWPOLYLINE
  5
267
330
17
100
AcDbEntity
  8
ROADS
100
AcDbPolyline
 90
2
 70
0
 10
632930.510683365
 20
4837449.625828566
 10
632984.5575410763
 20
4837465.630452022
  0
LWPOLYLINE
  5
268
330
17
100
AcDbEntity
  8
ROADS
100
AcDbPolyline
 90
2
 70
0
 10
632370.3694047092
 20
4837455.899999766
 10
632430.7977702395
 20
4837445.078918466
  0
LWPOLYLINE
  5
269
330
17
100
AcDbEntity
  8
ROADS
100
AcDbPolyline
 90
2
 70
0
 10
632321.9199759853
 20
4837463.845476747
 10
632370.3694047092
 20
4837455.899999766
  0
LWPOLYLINE
  5
26A
330
17
100
AcDbEntity
  8
ROADS
100
AcDbPolyline
 90
2
 70
0
 10
632217.2271896362
 20
4837447.793023383
 10
632222.317990566
 20
4837480.562604781
  0
LWPOLYLINE
  5
26B
330
17
100
AcDbEntity
  8
ROADS
100
AcDbPolyline
 90
2
 70
0
 10
632222.317990566
 20
4837480.562604781
 10
632321.9199759853
 20
4837463.845476747
  0
LWPOLYLINE
  5
26C
330
17
100
AcDbEntity
  8
ROADS
100
AcDbPolyline
 90
2
 70
0
 10
632222.317990566
 20
4837480.562604781
 10
632224.0643150853
 20
4837506.874209668
  0
LWPOLYLINE
  5
26D
330
17
100
AcDbEntity
  8
ROADS
100
AcDbPolyline
 90
2
 70
0
 10
632224.0643150853
 20
4837506.874209668
 10
632146.8987139066
 20
4837498.727145543
  0
LWPOLYLINE
  5
26E
330
17
100
AcDbEntity
  8
ROADS
100
AcDbPolyline
 90
2
 70
0
 10
632224.0643150853
 20
4837506.874209668
 10
632239.5058250511
 20
4837604.180942925
  0
LWPOLYLINE
  5
26F
330
17
100
AcDbEntity
  8
ROADS
100
AcDbPolyline
 90
2
 70
0
 10
632072.4505697535
 20
4837559.579505805
 10
632239.5058250511
 20
4837604.180942925
  0
LWPOLYLINE
  5
270
330
17
100
AcDbEntity
  8
ROADS
100
AcDbPolyline
 90
2
 70
0
 10
632321.9199759853
 20
4837463.845476747
 10
632371.6942691391
 20
4837754.520073468
  0
LWPOLYLINE
  5
271
330
17
100
AcDbEntity
  8
ROADS
100
AcDbPolyline
 90
2
 70
0
 10
632239.5058250511
 20
4837604.180942925
 10
632260.8441212673
 20
4837707.992826072
  0
LWPOLYLINE
  5
272
330
17
100
AcDbEntity
  8
ROADS
100
AcDbPolyline
 90
2
 70
0
 10
632723.6341360589
 20
4837442.672232944
 10
632704.0318066255
 20
4837516.097510522
  0
LWPOLYLINE
  5
273
330
17
100
AcDbEntity
  8
ROADS
100
AcDbPolyline
 90
2
 70
0
 10
632607.6268590358
 20
4837489.30005969
 10
632704.0318066255
 20
4837516.097510522
  0
LWPOLYLINE
  5
274
330
17
100
AcDbEntity
  8
ROADS
100
AcDbPolyline
 90
3
 70
0
 10
632680.4805495257
 20
4837595.251816452
 10
632723.0669674465
 20
4837607.412900323
 10
632768.8143579761
 20
4837456.017296977
  0
LWPOLYLINE
  5
275
330
17
100
AcDbEntity
  8
ROADS
100
AcDbPolyline
 90
4
 70
0
 10
632517.0840642434
 20
4837462.299616507
 10
632506.2197874688
 20
4837503.023320263
 10
632522.0939953745
 20
4837594.598513462
 10
632581.1955659938
 20
4837622.470477325
  0
LWPOLYLINE
  5
276
330
17
100
AcDbEntity
  8
ROADS
100
AcDbPolyline
 90
2
 70
0
 10
632704.0318066255
 20
4837516.097510522
 10
632680.4805495257
 20
4837595.251816452
  0
LWPOLYLINE
  5
277
330
17
100
AcDbEntity
  8
ROADS
100
AcDbPolyline
 90
2
 70
0
 10
632607.6268590358
 20
4837489.30005969
 10
632581.1955659938
 20
4837622.470477325
  0
LWPOLYLINE
  5
278
330
17
100
AcDbEntity
  8
ROADS
100
AcDbPolyline
 90
2
 70
0
 10
632430.7977702395
 20
4837445.078918466
 10
632459.8092696978
 20
4837673.501288801
  0
LWPOLYLINE
  5
279
330
17
100
AcDbEntity
  8
ROADS
100
AcDbPolyline
 90
2
 70
0
 10
632833.6838029067
 20
4837421.657657657
 10
632708.0594591345
 20
4837848.413402925
  0
LWPOLYLINE
  5
27A
330
17
100
AcDbEntity
  8
ROADS
100
AcDbPolyline
 90
2
 70
0
 10
632680.4805495257
 20
4837595.251816452
 10
632641.8866521239
 20
4837724.972032993
  0
LWPOLYLINE
  5
27B
330
17
100
AcDbEntity
  8
ROADS
100
AcDbPolyline
 90
2
 70
0
 10
632581.1955659938
 20
4837622.470477325
 10
632558.230345154
 20
4837700.297241652
  0
LWPOLYLINE
  5
27C
330
17
100
AcDbEntity
  8
ROADS
100
AcDbPolyline
 90
2
 70
0
 10
632459.8092696978
 20
4837673.501288801
 10
632558.230345154
 20
4837700.297241652
  0
LWPOLYLINE
  5
27D
330
17
100
AcDbEntity
  8
ROADS
100
AcDbPolyline
 90
2
 70
0
 10
632843.5087819096
 20
4837573.109262063
 10
632774.1461878563
 20
4837809.84252808
  0
LWPOLYLINE
  5
27E
330
17
100
AcDbEntity
  8
ROADS
100
AcDbPolyline
 90
2
 70
0
 10
632558.230345154
 20
4837700.297241652
 10
632641.8866521239
 20
4837724.972032993
  0
LWPOLYLINE
  5
27F
330
17
100
AcDbEntity
  8
ROADS
100
AcDbPolyline
 90
3
 70
0
 10
632459.8092696978
 20
4837673.501288801
 10
632468.1096846415
 20
4837726.156486215
 10
632453.3454619868
 20
4837773.66017414
  0
LWPOLYLINE
  5
280
330
17
100
AcDbEntity
  8
ROADS
100
AcDbPolyline
 90
2
 70
0
 10
632641.8866521239
 20
4837724.972032993
 10
632613.98567876
 20
4837820.843953967
  0
LWPOLYLINE
  5
281
330
17
100
AcDbEntity
  8
ROADS
100
AcDbPolyline
 90
2
 70
0
 10
632453.3454619868
 20
4837773.66017414
 10
632613.98567876
 20
4837820.843953967
  0
LWPOLYLINE
  5
282
330
17
100
AcDbEntity
  8
ROADS
100
AcDbPolyline
 90
2
 70
0
 10
632613.98567876
 20
4837820.843953967
 10
632708.0594591345
 20
4837848.413402925
  0
LWPOLYLINE
  5
283
330
17
100
AcDbEntity
  8
ROADS
100
AcDbPolyline
 90
3
 70
0
 10
632421.9268887317
 20
4837867.117235015
 10
632435.3988796322
 20
4837819.566182253
 10
632537.5479200133
 20
4837849.696855118
  0
LWPOLYLINE
  5
284
330
17
100
AcDbEntity
  8
ROADS
100
AcDbPolyline
 90
2
 70
0
 10
632708.0594591345
 20
4837848.413402925
 10
632804.9977283175
 20
4837876.356699953
  0
LWPOLYLINE
  5
285
330
17
100
AcDbEntity
  8
ROADS
100
AcDbPolyline
 90
2
 70
0
 10
632613.98567876
 20
4837820.843953967
 10
632586.495650838
 20
4837913.678054213
  0
LWPOLYLINE
  5
286
330
17
100
AcDbEntity
  8
ROADS
100
AcDbPolyline
 90
3
 70
0
 10
632260.8441212673
 20
4837707.992826072
 10
632105.2830729845
 20
4837669.179641059
 10
632064.9794120984
 20
4837763.899719595
  0
LWPOLYLINE
  5
287
330
17
100
AcDbEntity
  8
ROADS
100
AcDbPolyline
 90
2
 70
0
 10
632330.4388041005
 20
4837783.676245854
 10
632310.4897268077
 20
4837679.527432996
  0
LWPOLYLINE
  5
288
330
17
100
AcDbEntity
  8
ROADS
100
AcDbPolyline
 90
2
 70
0
 10
632260.8441212673
 20
4837707.992826072
 10
632276.8860341214
 20
4837782.2736620745
  0
LWPOLYLINE
  5
289
330
17
100
AcDbEntity
  8
ROADS
100
AcDbPolyline
 90
2
 70
0
 10
632371.6942691391
 20
4837754.520073468
 10
632453.3454619868
 20
4837773.66017414
  0
LWPOLYLINE
  5
28A
330
17
100
AcDbEntity
  8
ROADS
100
AcDbPolyline
 90
2
 70
0
 10
632371.6942691391
 20
4837754.520073468
 10
632377.4710400268
 20
4837785.080909429
  0
LWPOLYLINE
  5
28B
330
17
100
AcDbEntity
  8
ROADS
100
AcDbPolyline
 90
2
 70
0
 10
632069.3555327787
 20
4837772.940773361
 10
632276.8860341214
 20
4837782.2736620745
  0
LWPOLYLINE
  5
28C
330
17
100
AcDbEntity
  8
ROADS
100
AcDbPolyline
 90
2
 70
0
 10
632276.8860341214
 20
4837782.2736620745
 10
632330.4388041005
 20
4837783.676245854
  0
LWPOLYLINE
  5
28D
330
17
100
AcDbEntity
  8
ROADS
100
AcDbPolyline
 90
2
 70
0
 10
632330.4388041005
 20
4837783.676245854
 10
632377.4710400268
 20
4837785.080909429
  0
LWPOLYLINE
  5
28E
330
17
100
AcDbEntity
  8
ROADS
100
AcDbPolyline
 90
2
 70
0
 10
632330.4388041005
 20
4837783.676245854
 10
632338.2297457879
 20
4837829.88471394
  0
LWPOLYLINE
  5
28F
330
17
100
AcDbEntity
  8
ROADS
100
AcDbPolyline
 90
2
 70
0
 10
632377.4710400268
 20
4837785.080909429
 10
632396.1804652504
 20
4837860.505438281
  0
LWPOLYLINE
  5
290
330
17
100
AcDbEntity
  8
ROADS
100
AcDbPolyline
 90
2
 70
0
 10
632421.9268887317
 20
4837867.117235015
 10
632586.495650838
 20
4837913.678054213
  0
LWPOLYLINE
  5
291
330
17
100
AcDbEntity
  8
ROADS
100
AcDbPolyline
 90
2
 70
0
 10
632804.9977283175
 20
4837876.356699953
 10
632777.8467455308
 20
4837969.35399338
  0
LWPOLYLINE
  5
292
330
17
100
AcDbEntity
  8
ROADS
100
AcDbPolyline
 90
2
 70
0
 10
632586.495650838
 20
4837913.678054213
 10
632777.8467455308
 20
4837969.35399338
  0
LWPOLYLINE
  5
293
330
17
100
AcDbEntity
  8
ROADS
100
AcDbPolyline
 90
2
 70
0
 10
632586.495650838
 20
4837913.678054213
 10
632557.502367883
 20
4838011.384332968
  0
LWPOLYLINE
  5
294
330
17
100
AcDbEntity
  8
ROADS
100
AcDbPolyline
 90
2
 70
0
 10
632408.6008105185
 20
4837968.309081847
 10
632557.502367883
 20
4838011.384332968
  0
LWPOLYLINE
  5
295
330
17
100
AcDbEntity
  8
ROADS
100
AcDbPolyline
 90
2
 70
0
 10
632777.8467455308
 20
4837969.35399338
 10
632749.2851283369
 20
4838066.747105694
  0
LWPOLYLINE
  5
296
330
17
100
AcDbEntity
  8
ROADS
100
AcDbPolyline
 90
2
 70
0
 10
632557.502367883
 20
4838011.384332968
 10
632749.2851283369
 20
4838066.747105694
  0
LWPOLYLINE
  5
297
330
17
100
AcDbEntity
  8
ROADS
100
AcDbPolyline
 90
2
 70
0
 10
632557.502367883
 20
4838011.384332968
 10
632529.4589916233
 20
4838107.826676346
  0
LWPOLYLINE
  5
298
330
17
100
AcDbEntity
  8
ROADS
100
AcDbPolyline
 90
2
 70
0
 10
632749.2851283369
 20
4838066.747105694
 10
632857.8076274341
 20
4838098.377265544
  0
LWPOLYLINE
  5
299
330
17
100
AcDbEntity
  8
ROADS
100
AcDbPolyline
 90
2
 70
0
 10
632428.2823755224
 20
4838080.442725146
 10
632529.4589916233
 20
4838107.826676346
  0
LWPOLYLINE
  5
29A
330
17
100
AcDbEntity
  8
ROADS
100
AcDbPolyline
 90
2
 70
0
 10
632396.1804652504
 20
4837860.505438281
 10
632421.9268887317
 20
4837867.117235015
  0
LWPOLYLINE
  5
29B
330
17
100
AcDbEntity
  8
ROADS
100
AcDbPolyline
 90
2
 70
0
 10
632396.1804652504
 20
4837860.505438281
 10
632408.6008105185
 20
4837968.309081847
  0
LWPOLYLINE
  5
29C
330
17
100
AcDbEntity
  8
ROADS
100
AcDbPolyline
 90
2
 70
0
 10
632408.6008105185
 20
4837968.309081847
 10
632426.3765499366
 20
4838069.587415265
  0
LWPOLYLINE
  5
29D
330
17
100
AcDbEntity
  8
ROADS
100
AcDbPolyline
 90
2
 70
0
 10
632426.3765499366
 20
4838069.587415265
 10
632428.2823755224
 20
4838080.442725146
  0
LWPOLYLINE
  5
29E
330
17
100
AcDbEntity
  8
ROADS
100
AcDbPolyline
 90
2
 70
0
 10
632383.2755315282
 20
4838101.732571523
 10
632426.3765499366
 20
4838069.587415265
  0
LWPOLYLINE
  5
29F
330
17
100
AcDbEntity
  8
ROADS
100
AcDbPolyline
 90
2
 70
0
 10
632428.2823755224
 20
4838080.442725146
 10
632391.7224685997
 20
4838106.6752756685
  0
LWPOLYLINE
  5
2A0
330
17
100
AcDbEntity
  8
ROADS
100
AcDbPolyline
 90
2
 70
0
 10
634387.5814104278
 20
4837777.466039217
 10
634398.095013635
 20
4837793.40650148
  0
LWPOLYLINE
  5
2A1
330
17
100
AcDbEntity
  8
ROADS
100
AcDbPolyline
 90
2
 70
0
 10
634448.4932114069
 20
4837738.221311394
 10
634414.5746523655
 20
4837845.701892905
  0
LWPOLYLINE
  5
2A2
330
17
100
AcDbEntity
  8
ROADS
100
AcDbPolyline
 90
2
 70
0
 10
634006.6334341355
 20
4837766.263901677
 10
634201.8496820618
 20
4837828.188396024
  0
LWPOLYLINE
  5
2A3
330
17
100
AcDbEntity
  8
ROADS
100
AcDbPolyline
 90
2
 70
0
 10
634216.4994185781
 20
4837783.535627979
 10
634201.8496820618
 20
4837828.188396024
  0
LWPOLYLINE
  5
2A4
330
17
100
AcDbEntity
  8
ROADS
100
AcDbPolyline
 90
2
 70
0
 10
634216.4994185781
 20
4837783.535627979
 10
634414.5746523655
 20
4837845.701892905
  0
LWPOLYLINE
  5
2A5
330
17
100
AcDbEntity
  8
ROADS
100
AcDbPolyline
 90
2
 70
0
 10
634201.8496820618
 20
4837828.188396024
 10
634235.5490512849
 20
4837839.215748838
  0
LWPOLYLINE
  5
2A6
330
17
100
AcDbEntity
  8
ROADS
100
AcDbPolyline
 90
2
 70
0
 10
633991.5980933737
 20
4837813.934917159
 10
634188.0383543605
 20
4837872.103261505
  0
LWPOLYLINE
  5
2A7
330
17
100
AcDbEntity
  8
ROADS
100
AcDbPolyline
 90
2
 70
0
 10
634201.8496820618
 20
4837828.188396024
 10
634188.0383543605
 20
4837872.103261505
  0
LWPOLYLINE
  5
2A8
330
17
100
AcDbEntity
  8
ROADS
100
AcDbPolyline
 90
2
 70
0
 10
634414.5746523655
 20
4837845.701892905
 10
634400.3418059666
 20
4837889.311137075
  0
LWPOLYLINE
  5
2A9
330
17
100
AcDbEntity
  8
ROADS
100
AcDbPolyline
 90
2
 70
0
 10
634400.3418059666
 20
4837889.311137075
 10
634319.021795245
 20
4837865.823532504
  0
LWPOLYLINE
  5
2AA
330
17
100
AcDbEntity
  8
ROADS
100
AcDbPolyline
 90
2
 70
0
 10
634006.6334341355
 20
4837766.263901677
 10
633991.5980933737
 20
4837813.934917159
  0
LWPOLYLINE
  5
2AB
330
17
100
AcDbEntity
  8
ROADS
100
AcDbPolyline
 90
2
 70
0
 10
633823.5331549463
 20
4837765.172557313
 10
633796.3758460128
 20
4837857.189947911
  0
LWPOLYLINE
  5
2AC
330
17
100
AcDbEntity
  8
ROADS
100
AcDbPolyline
 90
2
 70
0
 10
633874.3893754152
 20
4837832.132743744
 10
633850.0358910363
 20
4837825.026739846
  0
LWPOLYLINE
  5
2AD
330
17
100
AcDbEntity
  8
ROADS
100
AcDbPolyline
 90
2
 70
0
 10
633701.6581878822
 20
4837827.658608211
 10
633748.8091876786
 20
4837843.132575252
  0
LWPOLYLINE
  5
2AE
330
17
100
AcDbEntity
  8
ROADS
100
AcDbPolyline
 90
2
 70
0
 10
633874.3893754152
 20
4837832.132743744
 10
633898.6401608463
 20
4837839.4429081185
  0
LWPOLYLINE
  5
2AF
330
17
100
AcDbEntity
  8
ROADS
100
AcDbPolyline
 90
2
 70
0
 10
633748.8091876786
 20
4837843.132575252
 10
633796.3758460128
 20
4837857.189947911
  0
LWPOLYLINE
  5
2B0
330
17
100
AcDbEntity
  8
ROADS
100
AcDbPolyline
 90
2
 70
0
 10
633860.3170651101
 20
4837879.032090571
 10
633874.3893754152
 20
4837832.132743744
  0
LWPOLYLINE
  5
2B1
330
17
100
AcDbEntity
  8
ROADS
100
AcDbPolyline
 90
2
 70
0
 10
633991.5980933737
 20
4837813.934917159
 10
633959.7271681908
 20
4837907.788256293
  0
LWPOLYLINE
  5
2B2
330
17
100
AcDbEntity
  8
ROADS
100
AcDbPolyline
 90
2
 70
0
 10
633796.3758460128
 20
4837857.189947911
 10
633860.3170651101
 20
4837879.032090571
  0
LWPOLYLINE
  5
2B3
330
17
100
AcDbEntity
  8
ROADS
100
AcDbPolyline
 90
2
 70
0
 10
633860.3170651101
 20
4837879.032090571
 10
633917.1434434766
 20
4837895.470127796
  0
LWPOLYLINE
  5
2B4
330
17
100
AcDbEntity
  8
ROADS
100
AcDbPolyline
 90
2
 70
0
 10
633241.0936958275
 20
4837763.699373789
 10
633203.3272974779
 20
4837895.876950898
  0
LWPOLYLINE
  5
2B5
330
17
100
AcDbEntity
  8
ROADS
100
AcDbPolyline
 90
2
 70
0
 10
633142.7421986706
 20
4837735.478495784
 10
633079.0172574845
 20
4837955.989608879
  0
LWPOLYLINE
  5
2B6
330
17
100
AcDbEntity
  8
ROADS
100
AcDbPolyline
 90
2
 70
0
 10
632804.9977283175
 20
4837876.356699953
 10
632913.5641416971
 20
4837908.159610828
  0
LWPOLYLINE
  5
2B7
330
17
100
AcDbEntity
  8
ROADS
100
AcDbPolyline
 90
2
 70
0
 10
633203.3272974779
 20
4837895.876950898
 10
633189.1119222244
 20
4837945.710848132
  0
LWPOLYLINE
  5
2B8
330
17
100
AcDbEntity
  8
ROADS
100
AcDbPolyline
 90
2
 70
0
 10
632913.5641416971
 20
4837908.159610828
 10
633000.993260657
 20
4837934.24782187
  0
LWPOLYLINE
  5
2B9
330
17
100
AcDbEntity
  8
ROADS
100
AcDbPolyline
 90
2
 70
0
 10
633000.993260657
 20
4837934.24782187
 10
633079.0172574845
 20
4837955.989608879
  0
LWPOLYLINE
  5
2BA
330
17
100
AcDbEntity
  8
ROADS
100
AcDbPolyline
 90
2
 70
0
 10
632913.5641416971
 20
4837908.159610828
 10
632886.650715366
 20
4838001.126225822
  0
LWPOLYLINE
  5
2BB
330
17
100
AcDbEntity
  8
ROADS
100
AcDbPolyline
 90
2
 70
0
 10
632777.8467455308
 20
4837969.35399338
 10
632886.650715366
 20
4838001.126225822
  0
LWPOLYLINE
  5
2BC
330
17
100
AcDbEntity
  8
ROADS
100
AcDbPolyline
 90
2
 70
0
 10
633079.0172574845
 20
4837955.989608879
 10
633276.1706826302
 20
4838015.392883883
  0
LWPOLYLINE
  5
2BD
330
17
100
AcDbEntity
  8
ROADS
100
AcDbPolyline
 90
2
 70
0
 10
633079.0172574845
 20
4837955.989608879
 10
633051.4106134702
 20
4838050.29083524
  0
LWPOLYLINE
  5
2BE
330
17
100
AcDbEntity
  8
ROADS
100
AcDbPolyline
 90
2
 70
0
 10
633917.1434434766
 20
4837895.470127796
 10
633959.7271681908
 20
4837907.788256293
  0
LWPOLYLINE
  5
2BF
330
17
100
AcDbEntity
  8
ROADS
100
AcDbPolyline
 90
2
 70
0
 10
633796.3758460128
 20
4837857.189947911
 10
633769.2396536174
 20
4837949.1997052645
  0
LWPOLYLINE
  5
2C0
330
17
100
AcDbEntity
  8
ROADS
100
AcDbPolyline
 90
2
 70
0
 10
633917.1434434766
 20
4837895.470127796
 10
633905.35434952
 20
4837937.8884024555
  0
LWPOLYLINE
  5
2C1
330
17
100
AcDbEntity
  8
ROADS
100
AcDbPolyline
 90
2
 70
0
 10
633905.35434952
 20
4837937.8884024555
 10
633827.9109903821
 20
4837913.780876641
  0
LWPOLYLINE
  5
2C2
330
17
100
AcDbEntity
  8
ROADS
100
AcDbPolyline
 90
2
 70
0
 10
633748.8091876786
 20
4837843.132575252
 10
633695.9620186593
 20
4838027.090821754
  0
LWPOLYLINE
  5
2C3
330
17
100
AcDbEntity
  8
ROADS
100
AcDbPolyline
 90
2
 70
0
 10
633959.7271681908
 20
4837907.788256293
 10
633928.8149599722
 20
4837998.342645757
  0
LWPOLYLINE
  5
2C4
330
17
100
AcDbEntity
  8
ROADS
100
AcDbPolyline
 90
2
 70
0
 10
633905.35434952
 20
4837937.8884024555
 10
633891.0793165461
 20
4837989.249448799
  0
LWPOLYLINE
  5
2C5
330
17
100
AcDbEntity
  8
ROADS
100
AcDbPolyline
 90
2
 70
0
 10
633769.2396536174
 20
4837949.1997052645
 10
633891.0793165461
 20
4837989.249448799
  0
LWPOLYLINE
  5
2C6
330
17
100
AcDbEntity
  8
ROADS
100
AcDbPolyline
 90
2
 70
0
 10
633891.0793165461
 20
4837989.249448799
 10
633928.8149599722
 20
4837998.342645757
  0
LWPOLYLINE
  5
2C7
330
17
100
AcDbEntity
  8
ROADS
100
AcDbPolyline
 90
2
 70
0
 10
633769.2396536174
 20
4837949.1997052645
 10
633741.9208557592
 20
4838041.683184294
  0
LWPOLYLINE
  5
2C8
330
17
100
AcDbEntity
  8
ROADS
100
AcDbPolyline
 90
2
 70
0
 10
633203.3272974779
 20
4837895.876950898
 10
633304.1446053485
 20
4837922.018307972
  0
LWPOLYLINE
  5
2C9
330
17
100
AcDbEntity
  8
ROADS
100
AcDbPolyline
 90
2
 70
0
 10
633308.6630116403
 20
4837903.768558961
 10
633304.1446053485
 20
4837922.018307972
  0
LWPOLYLINE
  5
2CA
330
17
100
AcDbEntity
  8
ROADS
100
AcDbPolyline
 90
2
 70
0
 10
633308.6630116403
 20
4837903.768558961
 10
633374.5431000342
 20
4837923.243554221
  0
LWPOLYLINE
  5
2CB
330
17
100
AcDbEntity
  8
ROADS
100
AcDbPolyline
 90
2
 70
0
 10
633374.5431000342
 20
4837923.243554221
 10
633453.4769051255
 20
4837946.331923829
  0
LWPOLYLINE
  5
2CC
330
17
100
AcDbEntity
  8
ROADS
100
AcDbPolyline
 90
2
 70
0
 10
633453.4769051255
 20
4837946.331923829
 10
633496.4975444665
 20
4837958.763953542
  0
LWPOLYLINE
  5
2CD
330
17
100
AcDbEntity
  8
ROADS
100
AcDbPolyline
 90
2
 70
0
 10
633496.4975444665
 20
4837958.763953542
 10
633556.7288767153
 20
4837976.819697113
  0
LWPOLYLINE
  5
2CE
330
17
100
AcDbEntity
  8
ROADS
100
AcDbPolyline
 90
2
 70
0
 10
633304.1446053485
 20
4837922.018307972
 10
633276.1706826302
 20
4838015.392883883
  0
LWPOLYLINE
  5
2CF
330
17
100
AcDbEntity
  8
ROADS
100
AcDbPolyline
 90
2
 70
0
 10
633496.4975444665
 20
4837958.763953542
 10
633483.0755334871
 20
4838006.700086807
  0
LWPOLYLINE
  5
2D0
330
17
100
AcDbEntity
  8
ROADS
100
AcDbPolyline
 90
2
 70
0
 10
633556.7288767153
 20
4837976.819697113
 10
633605.078038454
 20
4837990.906235165
  0
LWPOLYLINE
  5
2D1
330
17
100
AcDbEntity
  8
ROADS
100
AcDbPolyline
 90
2
 70
0
 10
633701.6581878822
 20
4837827.658608211
 10
633606.6826920881
 20
4838158.471845679
  0
LWPOLYLINE
  5
2D2
330
17
100
AcDbEntity
  8
ROADS
100
AcDbPolyline
 90
2
 70
0
 10
633374.5431000342
 20
4837923.243554221
 10
633328.7552461764
 20
4838077.910902358
  0
LWPOLYLINE
  5
2D3
330
17
100
AcDbEntity
  8
ROADS
100
AcDbPolyline
 90
2
 70
0
 10
633453.4769051255
 20
4837946.331923829
 10
633408.1175885191
 20
4838101.302080135
  0
LWPOLYLINE
  5
2D4
330
17
100
AcDbEntity
  8
ROADS
100
AcDbPolyline
 90
2
 70
0
 10
633276.1706826302
 20
4838015.392883883
 10
633262.2526402939
 20
4838059.0156671805
  0
LWPOLYLINE
  5
2D5
330
17
100
AcDbEntity
  8
ROADS
100
AcDbPolyline
 90
2
 70
0
 10
633556.7288767153
 20
4837976.819697113
 10
633512.7455945201
 20
4838131.350248069
  0
LWPOLYLINE
  5
2D6
330
17
100
AcDbEntity
  8
ROADS
100
AcDbPolyline
 90
2
 70
0
 10
633262.2526402939
 20
4838059.0156671805
 10
633307.8480059776
 20
4838071.97031136
  0
LWPOLYLINE
  5
2D7
330
17
100
AcDbEntity
  8
ROADS
100
AcDbPolyline
 90
2
 70
0
 10
633605.078038454
 20
4837990.906235165
 10
633560.6287068243
 20
4838145.270864527
  0
LWPOLYLINE
  5
2D8
330
17
100
AcDbEntity
  8
ROADS
100
AcDbPolyline
 90
2
 70
0
 10
633307.8480059776
 20
4838071.97031136
 10
633328.7552461764
 20
4838077.910902358
  0
LWPOLYLINE
  5
2D9
330
17
100
AcDbEntity
  8
ROADS
100
AcDbPolyline
 90
2
 70
0
 10
633262.2526402939
 20
4838059.0156671805
 10
633247.3482446751
 20
4838107.685012241
  0
LWPOLYLINE
  5
2DA
330
17
100
AcDbEntity
  8
ROADS
100
AcDbPolyline
 90
2
 70
0
 10
633328.7552461764
 20
4838077.910902358
 10
633408.1175885191
 20
4838101.302080135
  0
LWPOLYLINE
  5
2DB
330
17
100
AcDbEntity
  8
ROADS
100
AcDbPolyline
 90
2
 70
0
 10
633307.8480059776
 20
4838071.97031136
 10
633294.3609408402
 20
4838117.53104635
  0
LWPOLYLINE
  5
2DC
330
17
100
AcDbEntity
  8
ROADS
100
AcDbPolyline
 90
2
 70
0
 10
633928.8149599722
 20
4837998.342645757
 10
634129.1015065203
 20
4838056.6196580455
  0
LWPOLYLINE
  5
2DD
330
17
100
AcDbEntity
  8
ROADS
100
AcDbPolyline
 90
2
 70
0
 10
633741.9208557592
 20
4838041.683184294
 10
633695.9620186593
 20
4838027.090821754
  0
LWPOLYLINE
  5
2DE
330
17
100
AcDbEntity
  8
ROADS
100
AcDbPolyline
 90
2
 70
0
 10
633928.8149599722
 20
4837998.342645757
 10
633902.713828631
 20
4838085.208726496
  0
LWPOLYLINE
  5
2DF
330
17
100
AcDbEntity
  8
ROADS
100
AcDbPolyline
 90
2
 70
0
 10
633695.9620186593
 20
4838027.090821754
 10
633682.7537174318
 20
4838072.333626974
  0
LWPOLYLINE
  5
2E0
330
17
100
AcDbEntity
  8
ROADS
100
AcDbPolyline
 90
2
 70
0
 10
633741.9208557592
 20
4838041.683184294
 10
633902.713828631
 20
4838085.208726496
  0
LWPOLYLINE
  5
2E1
330
17
100
AcDbEntity
  8
ROADS
100
AcDbPolyline
 90
2
 70
0
 10
633741.9208557592
 20
4838041.683184294
 10
633720.1186960612
 20
4838129.842067525
  0
LWPOLYLINE
  5
2E2
330
17
100
AcDbEntity
  8
ROADS
100
AcDbPolyline
 90
2
 70
0
 10
633902.713828631
 20
4838085.208726496
 10
633996.0056107435
 20
4838111.411094453
  0
LWPOLYLINE
  5
2E3
330
17
100
AcDbEntity
  8
ROADS
100
AcDbPolyline
 90
2
 70
0
 10
633996.0056107435
 20
4838111.411094453
 10
634067.998590227
 20
4838134.355008812
  0
LWPOLYLINE
  5
2E4
330
17
100
AcDbEntity
  8
ROADS
100
AcDbPolyline
 90
2
 70
0
 10
633902.713828631
 20
4838085.208726496
 10
633872.4841475072
 20
4838176.453485426
  0
LWPOLYLINE
  5
2E5
330
17
100
AcDbEntity
  8
ROADS
100
AcDbPolyline
 90
2
 70
0
 10
633720.1186960612
 20
4838129.842067525
 10
633872.4841475072
 20
4838176.453485426
  0
LWPOLYLINE
  5
2E6
330
17
100
AcDbEntity
  8
ROADS
100
AcDbPolyline
 90
2
 70
0
 10
632886.650715366
 20
4838001.126225822
 10
633051.4106134702
 20
4838050.29083524
  0
LWPOLYLINE
  5
2E7
330
17
100
AcDbEntity
  8
ROADS
100
AcDbPolyline
 90
2
 70
0
 10
632886.650715366
 20
4838001.126225822
 10
632857.8076274341
 20
4838098.377265544
  0
LWPOLYLINE
  5
2E8
330
17
100
AcDbEntity
  8
ROADS
100
AcDbPolyline
 90
3
 70
0
 10
633201.8838614182
 20
4838094.787738848
 10
633215.7910278713
 20
4838047.066440505
 10
633118.8529638639
 20
4838018.553020086
  0
LWPOLYLINE
  5
2E9
330
17
100
AcDbEntity
  8
ROADS
100
AcDbPolyline
 90
2
 70
0
 10
633051.4106134702
 20
4838050.29083524
 10
633201.8838614182
 20
4838094.787738848
  0
LWPOLYLINE
  5
2EA
330
17
100
AcDbEntity
  8
ROADS
100
AcDbPolyline
 90
2
 70
0
 10
633051.4106134702
 20
4838050.29083524
 10
633024.8229009958
 20
4838137.410904428
  0
LWPOLYLINE
  5
2EB
330
17
100
AcDbEntity
  8
ROADS
100
AcDbPolyline
 90
2
 70
0
 10
633201.8838614182
 20
4838094.787738848
 10
633247.3482446751
 20
4838107.685012241
  0
LWPOLYLINE
  5
2EC
330
17
100
AcDbEntity
  8
ROADS
100
AcDbPolyline
 90
3
 70
0
 10
633201.8838614182
 20
4838094.787738848
 10
633188.4192691424
 20
4838139.437792248
 10
633088.2528440431
 20
4838110.543930644
  0
LWPOLYLINE
  5
2ED
330
17
100
AcDbEntity
  8
ROADS
100
AcDbPolyline
 90
2
 70
0
 10
633247.3482446751
 20
4838107.685012241
 10
633235.1607458347
 20
4838151.340088578
  0
LWPOLYLINE
  5
2EE
330
17
100
AcDbEntity
  8
ROADS
100
AcDbPolyline
 90
3
 70
0
 10
633135.2621177016
 20
4838160.831122324
 10
633143.8420172525
 20
4838129.965833969
 10
633222.913993822
 20
4838153.262752964
  0
LWPOLYLINE
  5
2EF
330
17
100
AcDbEntity
  8
ROADS
100
AcDbPolyline
 90
2
 70
0
 10
632857.8076274341
 20
4838098.377265544
 10
632830.2926779034
 20
4838196.067343914
  0
LWPOLYLINE
  5
2F0
330
17
100
AcDbEntity
  8
ROADS
100
AcDbPolyline
 90
2
 70
0
 10
633165.1041437036
 20
4838170.471602264
 10
633135.2621177016
 20
4838160.831122324
  0
LWPOLYLINE
  5
2F1
330
17
100
AcDbEntity
  8
ROADS
100
AcDbPolyline
 90
2
 70
0
 10
633235.1607458347
 20
4838151.340088578
 10
633224.1244531161
 20
4838187.579389123
  0
LWPOLYLINE
  5
2F2
330
17
100
AcDbEntity
  8
ROADS
100
AcDbPolyline
 90
3
 70
0
 10
633024.8229009958
 20
4838137.410904428
 10
632948.8195253932
 20
4838118.077812957
 10
632916.0137673425
 20
4838220.87563185
  0
LWPOLYLINE
  5
2F3
330
17
100
AcDbEntity
  8
ROADS
100
AcDbPolyline
 90
2
 70
0
 10
633224.1244531161
 20
4838187.579389123
 10
633165.1041437036
 20
4838170.471602264
  0
LWPOLYLINE
  5
2F4
330
17
100
AcDbEntity
  8
ROADS
100
AcDbPolyline
 90
2
 70
0
 10
633165.1041437036
 20
4838170.471602264
 10
633156.1900611115
 20
4838200.681795404
  0
LWPOLYLINE
  5
2F5
330
17
100
AcDbEntity
  8
ROADS
100
AcDbPolyline
 90
2
 70
0
 10
633024.8229009958
 20
4838137.410904428
 10
632994.5260422411
 20
4838243.984419801
  0
LWPOLYLINE
  5
2F6
330
17
100
AcDbEntity
  8
ROADS
100
AcDbPolyline
 90
2
 70
0
 10
633156.1900611115
 20
4838200.681795404
 10
633185.9461778877
 20
4838208.934614911
  0
LWPOLYLINE
  5
2F7
330
17
100
AcDbEntity
  8
ROADS
100
AcDbPolyline
 90
2
 70
0
 10
632830.2926779034
 20
4838196.067343914
 10
632916.0137673425
 20
4838220.87563185
  0
LWPOLYLINE
  5
2F8
330
17
100
AcDbEntity
  8
ROADS
100
AcDbPolyline
 90
2
 70
0
 10
633224.1244531161
 20
4838187.579389123
 10
633211.0756093701
 20
4838230.419816471
  0
LWPOLYLINE
  5
2F9
330
17
100
AcDbEntity
  8
ROADS
100
AcDbPolyline
 90
2
 70
0
 10
633185.9461778877
 20
4838208.934614911
 10
633204.7394289001
 20
4838214.145921074
  0
LWPOLYLINE
  5
2FA
330
17
100
AcDbEntity
  8
ROADS
100
AcDbPolyline
 90
2
 70
0
 10
633408.1175885191
 20
4838101.302080135
 10
633512.7455945201
 20
4838131.350248069
  0
LWPOLYLINE
  5
2FB
330
17
100
AcDbEntity
  8
ROADS
100
AcDbPolyline
 90
2
 70
0
 10
633294.3609408402
 20
4838117.53104635
 10
633348.4329474979
 20
4838132.976203979
  0
LWPOLYLINE
  5
2FC
330
17
100
AcDbEntity
  8
ROADS
100
AcDbPolyline
 90
2
 70
0
 10
633512.7455945201
 20
4838131.350248069
 10
633560.6287068243
 20
4838145.270864527
  0
LWPOLYLINE
  5
2FD
330
17
100
AcDbEntity
  8
ROADS
100
AcDbPolyline
 90
2
 70
0
 10
633294.3609408402
 20
4838117.53104635
 10
633278.3546854109
 20
4838163.8372764755
  0
LWPOLYLINE
  5
2FE
330
17
100
AcDbEntity
  8
ROADS
100
AcDbPolyline
 90
2
 70
0
 10
633560.6287068243
 20
4838145.270864527
 10
633606.6826920881
 20
4838158.471845679
  0
LWPOLYLINE
  5
2FF
330
17
100
AcDbEntity
  8
ROADS
100
AcDbPolyline
 90
2
 70
0
 10
633235.1607458347
 20
4838151.340088578
 10
633278.3546854109
 20
4838163.8372764755
  0
LWPOLYLINE
  5
300
330
17
100
AcDbEntity
  8
ROADS
100
AcDbPolyline
 90
2
 70
0
 10
633512.7455945201
 20
4838131.350248069
 10
633485.1198004534
 20
4838223.664576282
  0
LWPOLYLINE
  5
301
330
17
100
AcDbEntity
  8
ROADS
100
AcDbPolyline
 90
2
 70
0
 10
633278.3546854109
 20
4838163.8372764755
 10
633485.1198004534
 20
4838223.664576282
  0
LWPOLYLINE
  5
302
330
17
100
AcDbEntity
  8
ROADS
100
AcDbPolyline
 90
2
 70
0
 10
633278.3546854109
 20
4838163.8372764755
 10
633252.3315395652
 20
4838242.493929356
  0
LWPOLYLINE
  5
303
330
17
100
AcDbEntity
  8
ROADS
100
AcDbPolyline
 90
2
 70
0
 10
633485.1198004534
 20
4838223.664576282
 10
633674.5014479668
 20
4838277.668078056
  0
LWPOLYLINE
  5
304
330
17
100
AcDbEntity
  8
ROADS
100
AcDbPolyline
 90
2
 70
0
 10
634542.9793279052
 20
4837727.427118473
 10
634497.3668235352
 20
4837872.672414093
  0
LWPOLYLINE
  5
305
330
17
100
AcDbEntity
  8
ROADS
100
AcDbPolyline
 90
2
 70
0
 10
634414.5746523655
 20
4837845.701892905
 10
634497.3668235352
 20
4837872.672414093
  0
LWPOLYLINE
  5
306
330
17
100
AcDbEntity
  8
ROADS
100
AcDbPolyline
 90
2
 70
0
 10
634623.994175343
 20
4837865.22280088
 10
634633.9274805075
 20
4837868.396455113
  0
LWPOLYLINE
  5
307
330
17
100
AcDbEntity
  8
ROADS
100
AcDbPolyline
 90
2
 70
0
 10
634623.994175343
 20
4837865.22280088
 10
634609.6054941847
 20
4837908.379215274
  0
LWPOLYLINE
  5
308
330
17
100
AcDbEntity
  8
ROADS
100
AcDbPolyline
 90
2
 70
0
 10
634497.3668235352
 20
4837872.672414093
 10
634609.6054941847
 20
4837908.379215274
  0
LWPOLYLINE
  5
309
330
17
100
AcDbEntity
  8
ROADS
100
AcDbPolyline
 90
2
 70
0
 10
634609.6054941847
 20
4837908.379215274
 10
634623.1923749953
 20
4837912.817304217
  0
LWPOLYLINE
  5
30A
330
17
100
AcDbEntity
  8
ROADS
100
AcDbPolyline
 90
2
 70
0
 10
634623.1923749953
 20
4837912.817304217
 10
634623.19620884
 20
4837912.818513395
  0
LWPOLYLINE
  5
30B
330
17
100
AcDbEntity
  8
ROADS
100
AcDbPolyline
 90
2
 70
0
 10
634400.3418059666
 20
4837889.311137075
 10
634608.9321626117
 20
4837956.611593543
  0
LWPOLYLINE
  5
30C
330
17
100
AcDbEntity
  8
ROADS
100
AcDbPolyline
 90
2
 70
0
 10
634623.1923749953
 20
4837912.817304217
 10
634608.9321626117
 20
4837956.611593543
  0
LWPOLYLINE
  5
30D
330
17
100
AcDbEntity
  8
ROADS
100
AcDbPolyline
 90
2
 70
0
 10
634426.5748485747
 20
4837947.821442089
 10
634481.790354638
 20
4837966.019531947
  0
LWPOLYLINE
  5
30E
330
17
100
AcDbEntity
  8
ROADS
100
AcDbPolyline
 90
2
 70
0
 10
634608.9321626117
 20
4837956.611593543
 10
634594.1708666114
 20
4838001.34789627
  0
LWPOLYLINE
  5
30F
330
17
100
AcDbEntity
  8
ROADS
100
AcDbPolyline
 90
2
 70
0
 10
634481.790354638
 20
4837966.019531947
 10
634594.1708666114
 20
4838001.34789627
  0
LWPOLYLINE
  5
310
330
17
100
AcDbEntity
  8
ROADS
100
AcDbPolyline
 90
2
 70
0
 10
634608.9321626117
 20
4837956.611593543
 10
634610.0303864235
 20
4837956.957508015
  0
LWPOLYLINE
  5
311
330
17
100
AcDbEntity
  8
ROADS
100
AcDbPolyline
 90
2
 70
0
 10
634188.0383543605
 20
4837872.103261505
 10
634385.1787149858
 20
4837935.638781053
  0
LWPOLYLINE
  5
312
330
17
100
AcDbEntity
  8
ROADS
100
AcDbPolyline
 90
2
 70
0
 10
634400.3418059666
 20
4837889.311137075
 10
634385.1787149858
 20
4837935.638781053
  0
LWPOLYLINE
  5
313
330
17
100
AcDbEntity
  8
ROADS
100
AcDbPolyline
 90
2
 70
0
 10
634385.1787149858
 20
4837935.638781053
 10
634426.5748485747
 20
4837947.821442089
  0
LWPOLYLINE
  5
314
330
17
100
AcDbEntity
  8
ROADS
100
AcDbPolyline
 90
2
 70
0
 10
634385.1787149858
 20
4837935.638781053
 10
634325.6722111017
 20
4838118.249814696
  0
LWPOLYLINE
  5
315
330
17
100
AcDbEntity
  8
ROADS
100
AcDbPolyline
 90
2
 70
0
 10
634141.9088105223
 20
4838015.74390095
 10
634129.1015065203
 20
4838056.6196580455
  0
LWPOLYLINE
  5
316
330
17
100
AcDbEntity
  8
ROADS
100
AcDbPolyline
 90
2
 70
0
 10
634426.5748485747
 20
4837947.821442089
 10
634367.9255464458
 20
4838128.599846368
  0
LWPOLYLINE
  5
317
330
17
100
AcDbEntity
  8
ROADS
100
AcDbPolyline
 90
2
 70
0
 10
634129.1015065203
 20
4838056.6196580455
 10
634325.6722111017
 20
4838118.249814696
  0
LWPOLYLINE
  5
318
330
17
100
AcDbEntity
  8
ROADS
100
AcDbPolyline
 90
2
 70
0
 10
634129.1015065203
 20
4838056.6196580455
 10
634101.7295004394
 20
4838143.747823757
  0
LWPOLYLINE
  5
319
330
17
100
AcDbEntity
  8
ROADS
100
AcDbPolyline
 90
2
 70
0
 10
634325.6722111017
 20
4838118.249814696
 10
634367.9255464458
 20
4838128.599846368
  0
LWPOLYLINE
  5
31A
330
17
100
AcDbEntity
  8
ROADS
100
AcDbPolyline
 90
2
 70
0
 10
634367.9255464458
 20
4838128.599846368
 10
634420.9376984347
 20
4838146.198064212
  0
LWPOLYLINE
  5
31B
330
17
100
AcDbEntity
  8
ROADS
100
AcDbPolyline
 90
2
 70
0
 10
634594.1708666114
 20
4838001.34789627
 10
634594.8209748206
 20
4838001.557888565
  0
LWPOLYLINE
  5
31C
330
17
100
AcDbEntity
  8
ROADS
100
AcDbPolyline
 90
3
 70
0
 10
634594.1708666114
 20
4838001.34789627
 10
634548.2682872859
 20
4838060.386699413
 10
634547.0583444235
 20
4838092.503511968
  0
LWPOLYLINE
  5
31D
330
17
100
AcDbEntity
  8
ROADS
100
AcDbPolyline
 90
3
 70
0
 10
634481.790354638
 20
4837966.019531947
 10
634432.4910418857
 20
4838048.30783217
 10
634420.9376984347
 20
4838146.198064212
  0
LWPOLYLINE
  5
31E
330
17
100
AcDbEntity
  8
ROADS
100
AcDbPolyline
 90
2
 70
0
 10
634547.0583444235
 20
4838092.503511968
 10
634554.7408719562
 20
4838094.748005875
  0
LWPOLYLINE
  5
31F
330
17
100
AcDbEntity
  8
ROADS
100
AcDbPolyline
 90
2
 70
0
 10
634547.0583444235
 20
4838092.503511968
 10
634544.123332818
 20
4838113.014175697
  0
LWPOLYLINE
  5
320
330
17
100
AcDbEntity
  8
ROADS
100
AcDbPolyline
 90
2
 70
0
 10
634420.9376984347
 20
4838146.198064212
 10
634507.1832304312
 20
4838173.912520088
  0
LWPOLYLINE
  5
321
330
17
100
AcDbEntity
  8
ROADS
100
AcDbPolyline
 90
2
 70
0
 10
633101.7447141702
 20
4838274.884019842
 10
633135.2621177016
 20
4838160.831122324
  0
LWPOLYLINE
  5
322
330
17
100
AcDbEntity
  8
ROADS
100
AcDbPolyline
 90
2
 70
0
 10
632916.0137673425
 20
4838220.87563185
 10
632994.5260422411
 20
4838243.984419801
  0
LWPOLYLINE
  5
323
330
17
100
AcDbEntity
  8
ROADS
100
AcDbPolyline
 90
2
 70
0
 10
633211.0756093701
 20
4838230.419816471
 10
633252.3315395652
 20
4838242.493929356
  0
LWPOLYLINE
  5
324
330
17
100
AcDbEntity
  8
ROADS
100
AcDbPolyline
 90
2
 70
0
 10
633156.1900611115
 20
4838200.681795404
 10
633132.3038945775
 20
4838283.689412908
  0
LWPOLYLINE
  5
325
330
17
100
AcDbEntity
  8
ROADS
100
AcDbPolyline
 90
2
 70
0
 10
633185.9461778877
 20
4838208.934614911
 10
633164.2008780942
 20
4838280.237024871
  0
LWPOLYLINE
  5
326
330
17
100
AcDbEntity
  8
ROADS
100
AcDbPolyline
 90
2
 70
0
 10
632994.5260422411
 20
4838243.984419801
 10
633101.7447141702
 20
4838274.884019842
  0
LWPOLYLINE
  5
327
330
17
100
AcDbEntity
  8
ROADS
100
AcDbPolyline
 90
2
 70
0
 10
633211.0756093701
 20
4838230.419816471
 10
633190.7389856002
 20
4838300.529612536
  0
LWPOLYLINE
  5
328
330
17
100
AcDbEntity
  8
ROADS
100
AcDbPolyline
 90
2
 70
0
 10
633252.3315395652
 20
4838242.493929356
 10
633231.8240896796
 20
4838311.929589871
  0
LWPOLYLINE
  5
329
330
17
100
AcDbEntity
  8
ROADS
100
AcDbPolyline
 90
2
 70
0
 10
633101.7447141702
 20
4838274.884019842
 10
633132.3038945775
 20
4838283.689412908
  0
LWPOLYLINE
  5
32A
330
17
100
AcDbEntity
  8
ROADS
100
AcDbPolyline
 90
2
 70
0
 10
633132.3038945775
 20
4838283.689412908
 10
633150.7591811457
 20
4838289.007618599
  0
LWPOLYLINE
  5
32B
330
17
100
AcDbEntity
  8
ROADS
100
AcDbPolyline
 90
2
 70
0
 10
633720.1186960612
 20
4838129.842067525
 10
633702.3921302374
 20
4838187.519168718
  0
LWPOLYLINE
  5
32C
330
17
100
AcDbEntity
  8
ROADS
100
AcDbPolyline
 90
2
 70
0
 10
633606.6826920881
 20
4838158.471845679
 10
633702.3921302374
 20
4838187.519168718
  0
LWPOLYLINE
  5
32D
330
17
100
AcDbEntity
  8
ROADS
100
AcDbPolyline
 90
2
 70
0
 10
633702.3921302374
 20
4838187.519168718
 10
633686.3015787445
 20
4838214.155827541
  0
LWPOLYLINE
  5
32E
330
17
100
AcDbEntity
  8
ROADS
100
AcDbPolyline
 90
2
 70
0
 10
633872.4841475072
 20
4838176.453485426
 10
633854.9309883562
 20
4838234.439772053
  0
LWPOLYLINE
  5
32F
330
17
100
AcDbEntity
  8
ROADS
100
AcDbPolyline
 90
2
 70
0
 10
633702.3921302374
 20
4838187.519168718
 10
633854.9309883562
 20
4838234.439772053
  0
LWPOLYLINE
  5
330
330
17
100
AcDbEntity
  8
ROADS
100
AcDbPolyline
 90
5
 70
0
 10
633686.3015787445
 20
4838214.155827541
 10
633694.5964149251
 20
4838228.550516987
 10
633707.6278624608
 20
4838222.391699299
 10
633700.9107469094
 20
4838208.600092733
 10
633686.3015787445
 20
4838214.155827541
  0
LWPOLYLINE
  5
331
330
17
100
AcDbEntity
  8
ROADS
100
AcDbPolyline
 90
2
 70
0
 10
633996.0056107435
 20
4838111.411094453
 10
633906.1663176563
 20
4838343.633357135
  0
LWPOLYLINE
  5
332
330
17
100
AcDbEntity
  8
ROADS
100
AcDbPolyline
 90
2
 70
0
 10
633686.3015787445
 20
4838214.155827541
 10
633674.5014479668
 20
4838277.668078056
  0
LWPOLYLINE
  5
333
330
17
100
AcDbEntity
  8
ROADS
100
AcDbPolyline
 90
2
 70
0
 10
634067.998590227
 20
4838134.355008812
 10
633986.3297189145
 20
4838369.464324689
  0
LWPOLYLINE
  5
334
330
17
100
AcDbEntity
  8
ROADS
100
AcDbPolyline
 90
2
 70
0
 10
633854.9309883562
 20
4838234.439772053
 10
633828.1960630505
 20
4838320.680302278
  0
LWPOLYLINE
  5
335
330
17
100
AcDbEntity
  8
ROADS
100
AcDbPolyline
 90
2
 70
0
 10
633674.5014479668
 20
4838277.668078056
 10
633783.8197073976
 20
4838309.551801394
  0
LWPOLYLINE
  5
336
330
17
100
AcDbEntity
  8
ROADS
100
AcDbPolyline
 90
2
 70
0
 10
633783.8197073976
 20
4838309.551801394
 10
633828.1960630505
 20
4838320.680302278
  0
LWPOLYLINE
  5
337
330
17
100
AcDbEntity
  8
ROADS
100
AcDbPolyline
 90
2
 70
0
 10
633674.5014479668
 20
4838277.668078056
 10
633651.4459247594
 20
4838357.544587717
  0
LWPOLYLINE
  5
338
330
17
100
AcDbEntity
  8
ROADS
100
AcDbPolyline
 90
2
 70
0
 10
633828.1960630505
 20
4838320.680302278
 10
633906.1663176563
 20
4838343.633357135
  0
LWPOLYLINE
  5
339
330
17
100
AcDbEntity
  8
ROADS
100
AcDbPolyline
 90
2
 70
0
 10
633783.8197073976
 20
4838309.551801394
 10
633759.0856121595
 20
4838388.56690575
  0
LWPOLYLINE
  5
33A
330
17
100
AcDbEntity
  8
ROADS
100
AcDbPolyline
 90
2
 70
0
 10
633906.1663176563
 20
4838343.633357135
 10
633986.3297189145
 20
4838369.464324689
  0
LWPOLYLINE
  5
33B
330
17
100
AcDbEntity
  8
ROADS
100
AcDbPolyline
 90
2
 70
0
 10
633828.1960630505
 20
4838320.680302278
 10
633803.2404660605
 20
4838401.38054789
  0
LWPOLYLINE
  5
33C
330
17
100
AcDbEntity
  8
ROADS
100
AcDbPolyline
 90
2
 70
0
 10
633651.4459247594
 20
4838357.544587717
 10
633759.0856121595
 20
4838388.56690575
  0
LWPOLYLINE
  5
33D
330
17
100
AcDbEntity
  8
ROADS
100
AcDbPolyline
 90
2
 70
0
 10
633986.3297189145
 20
4838369.464324689
 10
634062.8816847301
 20
4838393.589846318
  0
LWPOLYLINE
  5
33E
330
17
100
AcDbEntity
  8
ROADS
100
AcDbPolyline
 90
2
 70
0
 10
633759.0856121595
 20
4838388.56690575
 10
633803.2404660605
 20
4838401.38054789
  0
LWPOLYLINE
  5
33F
330
17
100
AcDbEntity
  8
ROADS
100
AcDbPolyline
 90
2
 70
0
 10
632994.5260422411
 20
4838243.984419801
 10
632965.1952692897
 20
4838340.271574495
  0
LWPOLYLINE
  5
340
330
17
100
AcDbEntity
  8
ROADS
100
AcDbPolyline
 90
2
 70
0
 10
633150.7591811457
 20
4838289.007618599
 10
633190.7389856002
 20
4838300.529612536
  0
LWPOLYLINE
  5
341
330
17
100
AcDbEntity
  8
ROADS
100
AcDbPolyline
 90
2
 70
0
 10
633190.7389856002
 20
4838300.529612536
 10
633231.8240896796
 20
4838311.929589871
  0
LWPOLYLINE
  5
342
330
17
100
AcDbEntity
  8
ROADS
100
AcDbPolyline
 90
2
 70
0
 10
632802.691810693
 20
4838291.98171302
 10
632965.1952692897
 20
4838340.271574495
  0
LWPOLYLINE
  5
343
330
17
100
AcDbEntity
  8
ROADS
100
AcDbPolyline
 90
2
 70
0
 10
633150.7591811457
 20
4838289.007618599
 10
633121.6135038662
 20
4838386.118227829
  0
LWPOLYLINE
  5
344
330
17
100
AcDbEntity
  8
ROADS
100
AcDbPolyline
 90
2
 70
0
 10
633190.7389856002
 20
4838300.529612536
 10
633162.2204539124
 20
4838398.021605604
  0
LWPOLYLINE
  5
345
330
17
100
AcDbEntity
  8
ROADS
100
AcDbPolyline
 90
2
 70
0
 10
633231.8240896796
 20
4838311.929589871
 10
633203.1145028557
 20
4838410.142196101
  0
LWPOLYLINE
  5
346
330
17
100
AcDbEntity
  8
ROADS
100
AcDbPolyline
 90
2
 70
0
 10
632965.1952692897
 20
4838340.271574495
 10
633121.6135038662
 20
4838386.118227829
  0
LWPOLYLINE
  5
347
330
17
100
AcDbEntity
  8
ROADS
100
AcDbPolyline
 90
2
 70
0
 10
632965.1952692897
 20
4838340.271574495
 10
632938.805876198
 20
4838435.332814802
  0
LWPOLYLINE
  5
348
330
17
100
AcDbEntity
  8
ROADS
100
AcDbPolyline
 90
2
 70
0
 10
633121.6135038662
 20
4838386.118227829
 10
633162.2204539124
 20
4838398.021605604
  0
LWPOLYLINE
  5
349
330
17
100
AcDbEntity
  8
ROADS
100
AcDbPolyline
 90
2
 70
0
 10
633485.1198004534
 20
4838223.664576282
 10
633461.4116444185
 20
4838302.358145266
  0
LWPOLYLINE
  5
34A
330
17
100
AcDbEntity
  8
ROADS
100
AcDbPolyline
 90
2
 70
0
 10
633252.3315395652
 20
4838242.493929356
 10
633461.4116444185
 20
4838302.358145266
  0
LWPOLYLINE
  5
34B
330
17
100
AcDbEntity
  8
ROADS
100
AcDbPolyline
 90
2
 70
0
 10
633461.4116444185
 20
4838302.358145266
 10
633651.4459247594
 20
4838357.544587717
  0
LWPOLYLINE
  5
34C
330
17
100
AcDbEntity
  8
ROADS
100
AcDbPolyline
 90
2
 70
0
 10
633461.4116444185
 20
4838302.358145266
 10
633434.0404003791
 20
4838398.455854844
  0
LWPOLYLINE
  5
34D
330
17
100
AcDbEntity
  8
ROADS
100
AcDbPolyline
 90
3
 70
0
 10
633231.8240896796
 20
4838311.929589871
 10
633323.9635116667
 20
4838362.961123218
 10
633434.0404003791
 20
4838398.455854844
  0
LWPOLYLINE
  5
34E
330
17
100
AcDbEntity
  8
ROADS
100
AcDbPolyline
 90
2
 70
0
 10
633651.4459247594
 20
4838357.544587717
 10
633623.7025497115
 20
4838453.148577013
  0
LWPOLYLINE
  5
34F
330
17
100
AcDbEntity
  8
ROADS
100
AcDbPolyline
 90
2
 70
0
 10
633434.0404003791
 20
4838398.455854844
 10
633623.7025497115
 20
4838453.148577013
  0
LWPOLYLINE
  5
350
330
17
100
AcDbEntity
  8
ROADS
100
AcDbPolyline
 90
2
 70
0
 10
633434.0404003791
 20
4838398.455854844
 10
633409.2574457831
 20
4838481.112279942
  0
LWPOLYLINE
  5
351
330
17
100
AcDbEntity
  8
ROADS
100
AcDbPolyline
 90
2
 70
0
 10
633203.1145028557
 20
4838410.142196101
 10
633409.2574457831
 20
4838481.112279942
  0
LWPOLYLINE
  5
352
330
17
100
AcDbEntity
  8
ROADS
100
AcDbPolyline
 90
2
 70
0
 10
633623.7025497115
 20
4838453.148577013
 10
633611.8062916506
 20
4838492.7479341505
  0
LWPOLYLINE
  5
353
330
17
100
AcDbEntity
  8
ROADS
100
AcDbPolyline
 90
2
 70
0
 10
633162.2204539124
 20
4838398.021605604
 10
633203.1145028557
 20
4838410.142196101
  0
LWPOLYLINE
  5
354
330
17
100
AcDbEntity
  8
ROADS
100
AcDbPolyline
 90
2
 70
0
 10
633121.6135038662
 20
4838386.118227829
 10
633093.4234176201
 20
4838480.323872762
  0
LWPOLYLINE
  5
355
330
17
100
AcDbEntity
  8
ROADS
100
AcDbPolyline
 90
2
 70
0
 10
633162.2204539124
 20
4838398.021605604
 10
633133.752574342
 20
4838492.214235652
  0
LWPOLYLINE
  5
356
330
17
100
AcDbEntity
  8
ROADS
100
AcDbPolyline
 90
2
 70
0
 10
632938.805876198
 20
4838435.332814802
 10
633093.4234176201
 20
4838480.323872762
  0
LWPOLYLINE
  5
357
330
17
100
AcDbEntity
  8
ROADS
100
AcDbPolyline
 90
2
 70
0
 10
633203.1145028557
 20
4838410.142196101
 10
633185.9719003658
 20
4838507.575931456
  0
LWPOLYLINE
  5
358
330
17
100
AcDbEntity
  8
ROADS
100
AcDbPolyline
 90
2
 70
0
 10
633093.4234176201
 20
4838480.323872762
 10
633133.752574342
 20
4838492.214235652
  0
LWPOLYLINE
  5
359
330
17
100
AcDbEntity
  8
ROADS
100
AcDbPolyline
 90
2
 70
0
 10
632938.805876198
 20
4838435.332814802
 10
632938.1243495281
 20
4838437.70962771
  0
LWPOLYLINE
  5
35A
330
17
100
AcDbEntity
  8
ROADS
100
AcDbPolyline
 90
2
 70
0
 10
633133.752574342
 20
4838492.214235652
 10
633174.7989094909
 20
4838504.374594217
  0
LWPOLYLINE
  5
35B
330
17
100
AcDbEntity
  8
ROADS
100
AcDbPolyline
 90
2
 70
0
 10
633093.4234176201
 20
4838480.323872762
 10
633088.1076273354
 20
4838496.863739093
  0
LWPOLYLINE
  5
35C
330
17
100
AcDbEntity
  8
ROADS
100
AcDbPolyline
 90
2
 70
0
 10
633174.7989094909
 20
4838504.374594217
 10
633185.9719003658
 20
4838507.575931456
  0
LWPOLYLINE
  5
35D
330
17
100
AcDbEntity
  8
ROADS
100
AcDbPolyline
 90
2
 70
0
 10
633906.1663176563
 20
4838343.633357135
 10
633844.8019230057
 20
4838527.058343943
  0
LWPOLYLINE
  5
35E
330
17
100
AcDbEntity
  8
ROADS
100
AcDbPolyline
 90
2
 70
0
 10
633759.0856121595
 20
4838388.56690575
 10
633722.7823397649
 20
4838502.426591865
  0
LWPOLYLINE
  5
35F
330
17
100
AcDbEntity
  8
ROADS
100
AcDbPolyline
 90
2
 70
0
 10
633803.2404660605
 20
4838401.38054789
 10
633766.5354868278
 20
4838517.212143119
  0
LWPOLYLINE
  5
360
330
17
100
AcDbEntity
  8
ROADS
100
AcDbPolyline
 90
2
 70
0
 10
633986.3297189145
 20
4838369.464324689
 10
633930.2832654876
 20
4838522.44651802
  0
LWPOLYLINE
  5
361
330
17
100
AcDbEntity
  8
ROADS
100
AcDbPolyline
 90
2
 70
0
 10
633623.7025497115
 20
4838453.148577013
 10
633722.7823397649
 20
4838502.426591865
  0
LWPOLYLINE
  5
362
330
17
100
AcDbEntity
  8
ROADS
100
AcDbPolyline
 90
2
 70
0
 10
634062.8816847301
 20
4838393.589846318
 10
634024.4790468087
 20
4838505.901844685
  0
LWPOLYLINE
  5
363
330
17
100
AcDbEntity
  8
ROADS
100
AcDbPolyline
 90
2
 70
0
 10
633722.7823397649
 20
4838502.426591865
 10
633766.5354868278
 20
4838517.212143119
  0
LWPOLYLINE
  5
364
330
17
100
AcDbEntity
  8
ROADS
100
AcDbPolyline
 90
2
 70
0
 10
633766.5354868278
 20
4838517.212143119
 10
633790.163349638
 20
4838524.647420298
  0
LWPOLYLINE
  5
365
330
17
100
AcDbEntity
  8
ROADS
100
AcDbPolyline
 90
2
 70
0
 10
633722.7823397649
 20
4838502.426591865
 10
633718.3405153519
 20
4838516.375329854
  0
LWPOLYLINE
  5
366
330
17
100
AcDbEntity
  8
ROADS
100
AcDbPolyline
 90
2
 70
0
 10
633766.5354868278
 20
4838517.212143119
 10
633764.6828509715
 20
4838523.049635271
  0
LWPOLYLINE
  5
367
330
17
100
AcDbEntity
  8
ROADS
100
AcDbPolyline
 90
2
 70
0
 10
633174.7989094909
 20
4838504.374594217
 10
633170.6354532886
 20
4838518.312093759
  0
LWPOLYLINE
  5
368
330
17
100
AcDbEntity
  8
ROADS
100
AcDbPolyline
 90
2
 70
0
 10
633133.752574342
 20
4838492.214235652
 10
633128.7790962778
 20
4838508.359174523
  0
LWPOLYLINE
  5
369
330
17
100
AcDbEntity
  8
ROADS
100
AcDbPolyline
 90
2
 70
0
 10
634067.998590227
 20
4838134.355008812
 10
634101.7295004394
 20
4838143.747823757
  0
LWPOLYLINE
  5
36A
330
17
100
AcDbEntity
  8
ROADS
100
AcDbPolyline
 90
2
 70
0
 10
634101.7295004394
 20
4838143.747823757
 10
634138.7771507192
 20
4838156.100870294
  0
LWPOLYLINE
  5
36B
330
17
100
AcDbEntity
  8
ROADS
100
AcDbPolyline
 90
2
 70
0
 10
634325.6722111017
 20
4838118.249814696
 10
634295.6920670986
 20
4838204.597792043
  0
LWPOLYLINE
  5
36C
330
17
100
AcDbEntity
  8
ROADS
100
AcDbPolyline
 90
2
 70
0
 10
634138.7771507192
 20
4838156.100870294
 10
634215.3154042561
 20
4838179.052008099
  0
LWPOLYLINE
  5
36D
330
17
100
AcDbEntity
  8
ROADS
100
AcDbPolyline
 90
2
 70
0
 10
634215.3154042561
 20
4838179.052008099
 10
634295.6920670986
 20
4838204.597792043
  0
LWPOLYLINE
  5
36E
330
17
100
AcDbEntity
  8
ROADS
100
AcDbPolyline
 90
2
 70
0
 10
634295.6920670986
 20
4838204.597792043
 10
634446.3983378401
 20
4838252.385092625
  0
LWPOLYLINE
  5
36F
330
17
100
AcDbEntity
  8
ROADS
100
AcDbPolyline
 90
2
 70
0
 10
634295.6920670986
 20
4838204.597792043
 10
634269.4433091767
 20
4838287.23593163
  0
LWPOLYLINE
  5
370
330
17
100
AcDbEntity
  8
ROADS
100
AcDbPolyline
 90
2
 70
0
 10
634138.7771507192
 20
4838156.100870294
 10
634062.8816847301
 20
4838393.589846318
  0
LWPOLYLINE
  5
371
330
17
100
AcDbEntity
  8
ROADS
100
AcDbPolyline
 90
2
 70
0
 10
634215.3154042561
 20
4838179.052008099
 10
634138.5515201173
 20
4838418.106456542
  0
LWPOLYLINE
  5
372
330
17
100
AcDbEntity
  8
ROADS
100
AcDbPolyline
 90
2
 70
0
 10
634269.4433091767
 20
4838287.23593163
 10
634377.9737874737
 20
4838321.9141612835
  0
LWPOLYLINE
  5
373
330
17
100
AcDbEntity
  8
ROADS
100
AcDbPolyline
 90
2
 70
0
 10
634269.4433091767
 20
4838287.23593163
 10
634239.7735579999
 20
4838376.270716892
  0
LWPOLYLINE
  5
374
330
17
100
AcDbEntity
  8
ROADS
100
AcDbPolyline
 90
2
 70
0
 10
634062.8816847301
 20
4838393.589846318
 10
634138.5515201173
 20
4838418.106456542
  0
LWPOLYLINE
  5
375
330
17
100
AcDbEntity
  8
ROADS
100
AcDbPolyline
 90
2
 70
0
 10
634239.7735579999
 20
4838376.270716892
 10
634288.9171821803
 20
4838391.810996267
  0
LWPOLYLINE
  5
376
330
17
100
AcDbEntity
  8
ROADS
100
AcDbPolyline
 90
2
 70
0
 10
634239.7735579999
 20
4838376.270716892
 10
634221.3973402724
 20
4838432.346849486
  0
LWPOLYLINE
  5
377
330
17
100
AcDbEntity
  8
ROADS
100
AcDbPolyline
 90
2
 70
0
 10
634138.5515201173
 20
4838418.106456542
 10
634205.2124902892
 20
4838440.177263914
  0
LWPOLYLINE
  5
378
330
17
100
AcDbEntity
  8
ROADS
100
AcDbPolyline
 90
2
 70
0
 10
634138.5515201173
 20
4838418.106456542
 10
634117.2066497197
 20
4838478.1575473035
  0
LWPOLYLINE
  5
379
330
17
100
AcDbEntity
  8
ROADS
100
AcDbPolyline
 90
2
 70
0
 10
632749.2851283369
 20
4838066.747105694
 10
632719.3959810222
 20
4838164.3282074295
  0
LWPOLYLINE
  5
37A
330
17
100
AcDbEntity
  8
ROADS
100
AcDbPolyline
 90
2
 70
0
 10
632529.4589916233
 20
4838107.826676346
 10
632621.9507285594
 20
4838135.665608401
  0
LWPOLYLINE
  5
37B
330
17
100
AcDbEntity
  8
ROADS
100
AcDbPolyline
 90
2
 70
0
 10
632621.9507285594
 20
4838135.665608401
 10
632719.3959810222
 20
4838164.3282074295
  0
LWPOLYLINE
  5
37C
330
17
100
AcDbEntity
  8
ROADS
100
AcDbPolyline
 90
2
 70
0
 10
632428.2823755224
 20
4838080.442725146
 10
632437.807733657
 20
4838130.293336504
  0
LWPOLYLINE
  5
37D
330
17
100
AcDbEntity
  8
ROADS
100
AcDbPolyline
 90
2
 70
0
 10
632719.3959810222
 20
4838164.3282074295
 10
632830.2926779034
 20
4838196.067343914
  0
LWPOLYLINE
  5
37E
330
17
100
AcDbEntity
  8
ROADS
100
AcDbPolyline
 90
2
 70
0
 10
632621.9507285594
 20
4838135.665608401
 10
632605.7829237389
 20
4838190.693715265
  0
LWPOLYLINE
  5
37F
330
17
100
AcDbEntity
  8
ROADS
100
AcDbPolyline
 90
2
 70
0
 10
632830.2926779034
 20
4838196.067343914
 10
632802.691810693
 20
4838291.98171302
  0
LWPOLYLINE
  5
380
330
17
100
AcDbEntity
  8
ROADS
100
AcDbPolyline
 90
2
 70
0
 10
632711.65283154
 20
4838262.539536754
 10
632802.691810693
 20
4838291.98171302
  0
LWPOLYLINE
  5
381
330
17
100
AcDbEntity
  8
ROADS
100
AcDbPolyline
 90
2
 70
0
 10
632802.691810693
 20
4838291.98171302
 10
632788.4718331309
 20
4838337.02553752
  0
LWPOLYLINE
  5
382
330
17
100
AcDbEntity
  8
ROADS
100
AcDbPolyline
 90
2
 70
0
 10
633409.2574457831
 20
4838481.112279942
 10
633528.9095939064
 20
4838516.744602182
  0
LWPOLYLINE
  5
383
330
17
100
AcDbEntity
  8
ROADS
100
AcDbPolyline
 90
2
 70
0
 10
633409.2574457831
 20
4838481.112279942
 10
633392.4777818951
 20
4838536.346766098
  0
LWPOLYLINE
  5
384
330
17
100
AcDbEntity
  8
ROADS
100
AcDbPolyline
 90
2
 70
0
 10
633185.9719003658
 20
4838507.575931456
 10
633282.0615166842
 20
4838535.885179812
  0
ENDSEC
  0
SECTION
  2
OBJECTS
  0
DICTIONARY
  5
A
330
0
100
AcDbDictionary
281
1
  3
ACAD_COLOR
350
B
  3
ACAD_GROUP
350
C
  3
ACAD_LAYOUT
350
D
  3
ACAD_MATERIAL
350
E
  3
ACAD_MLEADERSTYLE
350
F
  3
ACAD_MLINESTYLE
350
10
  3
ACAD_PLOTSETTINGS
350
11
  3
ACAD_PLOTSTYLENAME
350
12
  3
ACAD_SCALELIST
350
14
  3
ACAD_TABLESTYLE
350
15
  3
ACAD_VISUALSTYLE
350
16
  3
EZDXF_META
350
2D
  0
DICTIONARY
  5
B
330
A
100
AcDbDictionary
281
1
  0
DICTIONARY
  5
C
330
A
100
AcDbDictionary
281
1
  0
DICTIONARY
  5
D
330
A
100
AcDbDictionary
281
1
  3
Model
350
1A
  3
Layout1
350
1E
  0
DICTIONARY
  5
E
330
A
100
AcDbDictionary
281
1
  3
ByBlock
350
1F
  3
ByLayer
350
20
  3
Global
350
21
  0
DICTIONARY
  5
F
330
A
100
AcDbDictionary
281
1
  3
Standard
350
2C
  0
DICTIONARY
  5
10
330
A
100
AcDbDictionary
281
1
  3
Standard
350
22
  0
DICTIONARY
  5
11
330
A
100
AcDbDictionary
281
1
  0
ACDBDICTIONARYWDFLT
  5
12
330
A
100
AcDbDictionary
281
1
  3
Normal
350
13
100
AcDbDictionaryWithDefault
340
13
  0
ACDBPLACEHOLDER
  5
13
330
12
  0
DICTIONARY
  5
14
330
A
100
AcDbDictionary
281
1
  0
DICTIONARY
  5
15
330
A
100
AcDbDictionary
281
1
  0
DICTIONARY
  5
16
330
A
100
AcDbDictionary
281
1
  0
LAYOUT
  5
1A
330
D
100
AcDbPlotSettings
  1

  4
A3
  6

 40
7.5
 41
20.0
 42
7.5
 43
20.0
 44
420.0
 45
297.0
 46
0.0
 47
0.0
 48
0.0
 49
0.0
140
0.0
141
0.0
142
1.0
143
1.0
 70
1024
 72
1
 73
0
 74
5
  7

 75
16
 76
0
 77
2
 78
300
147
1.0
148
0.0
149
0.0
100
AcDbLayout
  1
Model
 70
1
 71
0
 10
0.0
 20
0.0
 11
420.0
 21
297.0
 12
0.0
 22
0.0
 32
0.0
 14
1e+20
 24
1e+20
 34
1e+20
 15
-1e+20
 25
-1e+20
 35
-1e+20
146
0.0
 13
0.0
 23
0.0
 33
0.0
 16
1.0
 26
0.0
 36
0.0
 17
0.0
 27
1.0
 37
0.0
 76
1
330
17
  0
LAYOUT
  5
1E
330
D
100
AcDbPlotSettings
  1

  4
A3
  6

 40
7.5
 41
20.0
 42
7.5
 43
20.0
 44
420.0
 45
297.0
 46
0.0
 47
0.0
 48
0.0
 49
0.0
140
0.0
141
0.0
142
1.0
143
1.0
 70
0
 72
1
 73
0
 74
5
  7

 75
16
 76
0
 77
2
 78
300
147
1.0
148
0.0
149
0.0
100
AcDbLayout
  1
Layout1
 70
1
 71
1
 10
0.0
 20
0.0
 11
420.0
 21
297.0
 12
0.0
 22
0.0
 32
0.0
 14
1e+20
 24
1e+20
 34
1e+20
 15
-1e+20
 25
-1e+20
 35
-1e+20
146
0.0
 13
0.0
 23
0.0
 33
0.0
 16
1.0
 26
0.0
 36
0.0
 17
0.0
 27
1.0
 37
0.0
 76
1
330
1B
  0
MATERIAL
  5
1F
102
{ACAD_REACTORS
330
E
102
}
330
E
100
AcDbMaterial
  1
ByBlock
  2

 70
0
 40
1.0
 71
1
 41
1.0
 91
-1023410177
 42
1.0
 72
1
  3

 73
1
 74
1
 75
1
 44
0.5
 73
0
 45
1.0
 46
1.0
 77
1
  4

 78
1
 79
1
170
1
 48
1.0
171
1
  6

172
1
173
1
174
1
140
1.0
141
1.0
175
1
  7

176
1
177
1
178
1
143
1.0
179
1
  8

270
1
271
1
272
1
145
1.0
146
1.0
273
1
  9

274
1
275
1
276
1
 42
1.0
 72
1
  3

 73
1
 74
1
 75
1
 94
63
  0
MATERIAL
  5
20
102
{ACAD_REACTORS
330
E
102
}
330
E
100
AcDbMaterial
  1
ByLayer
  2

 70
0
 40
1.0
 71
1
 41
1.0
 91
-1023410177
 42
1.0
 72
1
  3

 73
1
 74
1
 75
1
 44
0.5
 73
0
 45
1.0
 46
1.0
 77
1
  4

 78
1
 79
1
170
1
 48
1.0
171
1
  6

172
1
173
1
174
1
140
1.0
141
1.0
175
1
  7

176
1
177
1
178
1
143
1.0
179
1
  8

270
1
271
1
272
1
145
1.0
146
1.0
273
1
  9

274
1
275
1
276
1
 42
1.0
 72
1
  3

 73
1
 74
1
 75
1
 94
63
  0
MATERIAL
  5
21
102
{ACAD_REACTORS
330
E
102
}
330
E
100
AcDbMaterial
  1
Global
  2

 70
0
 40
1.0
 71
1
 41
1.0
 91
-1023410177
 42
1.0
 72
1
  3

 73
1
 74
1
 75
1
 44
0.5
 73
0
 45
1.0
 46
1.0
 77
1
  4

 78
1
 79
1
170
1
 48
1.0
171
1
  6

172
1
173
1
174
1
140
1.0
141
1.0
175
1
  7

176
1
177
1
178
1
143
1.0
179
1
  8

270
1
271
1
272
1
145
1.0
146
1.0
273
1
  9

274
1
275
1
276
1
 42
1.0
 72
1
  3

 73
1
 74
1
 75
1
 94
63
  0
MLINESTYLE
  5
22
102
{ACAD_REACTORS
330
10
102
}
330
10
100
AcDbMlineStyle
  2
Standard
 70
0
  3

 62
256
 51
90.0
 52
90.0
 71
2
 49
0.5
 62
256
  6
BYLAYER
 49
-0.5
 62
256
  6
BYLAYER
  0
MLEADERSTYLE
  5
2C
102
{ACAD_REACTORS
330
F
102
}
330
F
100
AcDbMLeaderStyle
179
2
170
2
171
1
172
0
 90
2
 40
0.0
 41
0.0
173
1
 91
-1056964608
 92
-2
290
1
 42
2.0
291
1
 43
8.0
  3
Standard
 44
4.0
300

342
29
174
1
175
1
176
0
178
1
 93
-1056964608
 45
4.0
292
0
297
0
 46
4.0
 94
-1056964608
 47
1.0
 49
1.0
140
1.0
294
1
141
0.0
177
0
142
1.0
295
0
296
0
143
3.75
271
0
272
9
273
9
  0
DICTIONARY
  5
2D
330
A
100
AcDbDictionary
280
1
281
1
  3
CREATED_BY_EZDXF
350
2E
  3
WRITTEN_BY_EZDXF
350
387
  0
DICTIONARYVAR
  5
2E
330
2D
100
DictionaryVariables
280
0
  1
1.4.4 @ 2026-07-07T18:24:42.613090+00:00
  0
DICTIONARYVAR
  5
387
330
2D
100
DictionaryVariables
280
0
  1
1.4.4 @ 2026-07-07T18:24:42.636114+00:00
  0
ENDSEC
  0
EOF
