  0
SECTION
  2
HEADER
  9
$ACADVER
  1
AC1015
  9
$ACADMAINTVER
 70
6
  9
$DWGCODEPAGE
  3
ANSI_1252
  9
$INSBASE
 10
0.0
 20
0.0
 30
0.0
  9
$EXTMIN
 10
1e+20
 20
1e+20
 30
1e+20
  9
$EXTMAX
 10
-1e+20
 20
-1e+20
 30
-1e+20
  9
$LIMMIN
 10
0.0
 20
0.0
  9
$LIMMAX
 10
420.0
 20
297.0
  9
$ORTHOMODE
 70
0
  9
$REGENMODE
 70
1
  9
$FILLMODE
 70
1
  9
$QTEXTMODE
 70
0
  9
$MIRRTEXT
 70
1
  9
$LTSCALE
 40
1.0
  9
$ATTMODE
 70
1
  9
$TEXTSIZE
 40
2.5
  9
$TRACEWID
 40
1.0
  9
$TEXTSTYLE
  7
Standard
  9
$CLAYER
  8
0
  9
$CELTYPE
  6
ByLayer
  9
$CECOLOR
 62
256
  9
$CELTSCALE
 40
1.0
  9
$DISPSILH
 70
0
  9
$DIMSCALE
 40
1.0
  9
$DIMASZ
 40
2.5
  9
$DIMEXO
 40
0.625
  9
$DIMDLI
 40
3.75
  9
$DIMRND
 40
0.0
  9
$DIMDLE
 40
0.0
  9
$DIMEXE
 40
1.25
  9
$DIMTP
 40
0.0
  9
$DIMTM
 40
0.0
  9
$DIMTXT
 40
2.5
  9
$DIMCEN
 40
2.5
  9
$DIMTSZ
 40
0.0
  9
$DIMTOL
 70
0
  9
$DIMLIM
 70
0
  9
$DIMTIH
 70
0
  9
$DIMTOH
 70
0
  9
$DIMSE1
 70
0
  9
$DIMSE2
 70
0
  9
$DIMTAD
 70
1
  9
$DIMZIN
 70
8
  9
$DIMBLK
  1

  9
$DIMASO
 70
1
  9
$DIMSHO
 70
1
  9
$DIMPOST
  1

  9
$DIMAPOST
  1

  9
$DIMALT
 70
0
  9
$DIMALTD
 70
3
  9
$DIMALTF
 40
0.03937007874
  9
$DIMLFAC
 40
1.0
  9
$DIMTOFL
 70
1
  9
$DIMTVP
 40
0.0
  9
$DIMTIX
 70
0
  9
$DIMSOXD
 70
0
  9
$DIMSAH
 70
0
  9
$DIMBLK1
  1

  9
$DIMBLK2
  1

  9
$DIMSTYLE
  2
ISO-25
  9
$DIMCLRD
 70
0
  9
$DIMCLRE
 70
0
  9
$DIMCLRT
 70
0
  9
$DIMTFAC
 40
1.0
  9
$DIMGAP
 40
0.625
  9
$DIMJUST
 70
0
  9
$DIMSD1
 70
0
  9
$DIMSD2
 70
0
  9
$DIMTOLJ
 70
0
  9
$DIMTZIN
 70
8
  9
$DIMALTZ
 70
0
  9
$DIMALTTZ
 70
0
  9
$DIMUPT
 70
0
  9
$DIMDEC
 70
2
  9
$DIMTDEC
 70
2
  9
$DIMALTU
 70
2
  9
$DIMALTTD
 70
3
  9
$DIMTXSTY
  7
Standard
  9
$DIMAUNIT
 70
0
  9
$DIMADEC
 70
0
  9
$DIMALTRND
 40
0.0
  9
$DIMAZIN
 70
0
  9
$DIMDSEP
 70
44
  9
$DIMATFIT
 70
3
  9
$DIMFRAC
 70
0
  9
$DIMLDRBLK
  1

  9
$DIMLUNIT
 70
2
  9
$DIMLWD
 70
-2
  9
$DIMLWE
 70
-2
  9
$DIMTMOVE
 70
0
  9
$LUNITS
 70
2
  9
$LUPREC
 70
4
  9
$SKETCHINC
 40
1.0
  9
$FILLETRAD
 40
10.0
  9
$AUNITS
 70
0
  9
$AUPREC
 70
2
  9
$MENU
  1
.
  9
$ELEVATION
 40
0.0
  9
$PELEVATION
 40
0.0
  9
$THICKNESS
 40
0.0
  9
$LIMCHECK
 70
0
  9
$CHAMFERA
 40
0.0
  9
$CHAMFERB
 40
0.0
  9
$CHAMFERC
 40
0.0
  9
$CHAMFERD
 40
0.0
  9
$SKPOLY
 70
0
  9
$TDCREATE
 40
2461229.0968171298
  9
$TDUCREATE
 40
2458532.153996898
  9
$TDUPDATE
 40
2461229.0968171298
  9
$TDUUPDATE
 40
2458532.1544311
  9
$TDINDWG
 40
0.0
  9
$TDUSRTIMER
 40
0.0
  9
$USRTIMER
 70
1
  9
$ANGBASE
 50
0.0
  9
$ANGDIR
 70
0
  9
$PDMODE
 70
0
  9
$PDSIZE
 40
0.0
  9
$PLINEWID
 40
0.0
  9
$SPLFRAME
 70
0
  9
$SPLINETYPE
 70
6
  9
$SPLINESEGS
 70
8
  9
$HANDSEED
  5
42D
  9
$SURFTAB1
 70
6
  9
$SURFTAB2
 70
6
  9
$SURFTYPE
 70
6
  9
$SURFU
 70
6
  9
$SURFV
 70
6
  9
$UCSBASE
  2

  9
$UCSNAME
  2

  9
$UCSORG
 10
0.0
 20
0.0
 30
0.0
  9
$UCSXDIR
 10
1.0
 20
0.0
 30
0.0
  9
$UCSYDIR
 10
0.0
 20
1.0
 30
0.0
  9
$UCSORTHOREF
  2

  9
$UCSORTHOVIEW
 70
0
  9
$UCSORGTOP
 10
0.0
 20
0.0
 30
0.0
  9
$UCSORGBOTTOM
 10
0.0
 20
0.0
 30
0.0
  9
$UCSORGLEFT
 10
0.0
 20
0.0
 30
0.0
  9
$UCSORGRIGHT
 10
0.0
 20
0.0
 30
0.0
  9
$UCSORGFRONT
 10
0.0
 20
0.0
 30
0.0
  9
$UCSORGBACK
 10
0.0
 20
0.0
 30
0.0
  9
$PUCSBASE
  2

  9
$PUCSNAME
  2

  9
$PUCSORG
 10
0.0
 20
0.0
 30
0.0
  9
$PUCSXDIR
 10
1.0
 20
0.0
 30
0.0
  9
$PUCSYDIR
 10
0.0
 20
1.0
 30
0.0
  9
$PUCSORTHOREF
  2

  9
$PUCSORTHOVIEW
 70
0
  9
$PUCSORGTOP
 10
0.0
 20
0.0
 30
0.0
  9
$PUCSORGBOTTOM
 10
0.0
 20
0.0
 30
0.0
  9
$PUCSORGLEFT
 10
0.0
 20
0.0
 30
0.0
  9
$PUCSORGRIGHT
 10
0.0
 20
0.0
 30
0.0
  9
$PUCSORGFRONT
 10
0.0
 20
0.0
 30
0.0
  9
$PUCSORGBACK
 10
0.0
 20
0.0
 30
0.0
  9
$USERI1
 70
0
  9
$USERI2
 70
0
  9
$USERI3
 70
0
  9
$USERI4
 70
0
  9
$USERI5
 70
0
  9
$USERR1
 40
0.0
  9
$USERR2
 40
0.0
  9
$USERR3
 40
0.0
  9
$USERR4
 40
0.0
  9
$USERR5
 40
0.0
  9
$WORLDVIEW
 70
1
  9
$SHADEDGE
 70
3
  9
$SHADEDIF
 70
70
  9
$TILEMODE
 70
1
  9
$MAXACTVP
 70
64
  9
$PINSBASE
 10
0.0
 20
0.0
 30
0.0
  9
$PLIMCHECK
 70
0
  9
$PEXTMIN
 10
1e+20
 20
1e+20
 30
1e+20
  9
$PEXTMAX
 10
-1e+20
 20
-1e+20
 30
-1e+20
  9
$PLIMMIN
 10
0.0
 20
0.0
  9
$PLIMMAX
 10
420.0
 20
297.0
  9
$UNITMODE
 70
0
  9
$VISRETAIN
 70
1
  9
$PLINEGEN
 70
0
  9
$PSLTSCALE
 70
1
  9
$TREEDEPTH
 70
3020
  9
$CMLSTYLE
  2
Standard
  9
$CMLJUST
 70
0
  9
$CMLSCALE
 40
20.0
  9
$PROXYGRAPHICS
 70
1
  9
$MEASUREMENT
 70
1
  9
$CELWEIGHT
370
-1
  9
$ENDCAPS
280
0
  9
$JOINSTYLE
280
0
  9
$LWDISPLAY
290
0
  9
$INSUNITS
 70
6
  9
$HYPERLINKBASE
  1

  9
$STYLESHEET
  1

  9
$XEDIT
290
1
  9
$CEPSNTYPE
380
0
  9
$PSTYLEMODE
290
1
  9
$FINGERPRINTGUID
  2
{3B03ED8B-4F91-468E-8DFA-1EADA7E62B8F}
  9
$VERSIONGUID
  2
{69BBE722-937A-4670-8BFB-DE7AC1BB23A9}
  9
$EXTNAMES
290
1
  9
$PSVPSCALE
 40
0.0
  9
$OLESTARTUP
290
0
  0
ENDSEC
  0
SECTION
  2
CLASSES
  0
CLASS
  1
ACDBDICTIONARYWDFLT
  2
AcDbDictionaryWithDefault
  3
ObjectDBX Classes
 90
0
280
0
281
0
  0
CLASS
  1
SUN
  2
AcDbSun
  3
SCENEOE
 90
1153
280
0
281
0
  0
CLASS
  1
VISUALSTYLE
  2
AcDbVisualStyle
  3
ObjectDBX Classes
 90
4095
280
0
281
0
  0
CLASS
  1
MATERIAL
  2
AcDbMaterial
  3
ObjectDBX Classes
 90
1153
280
0
281
0
  0
CLASS
  1
SCALE
  2
AcDbScale
  3
ObjectDBX Classes
 90
1153
280
0
281
0
  0
CLASS
  1
TABLESTYLE
  2
AcDbTableStyle
  3
ObjectDBX Classes
 90
4095
280
0
281
0
  0
CLASS
  1
MLEADERSTYLE
  2
AcDbMLeaderStyle
  3
ACDB_MLEADERSTYLE_CLASS
 90
4095
280
0
281
0
  0
CLASS
  1
DICTIONARYVAR
  2
AcDbDictionaryVar
  3
ObjectDBX Classes
 90
0
280
0
281
0
  0
CLASS
  1
CELLSTYLEMAP
  2
AcDbCellStyleMap
  3
ObjectDBX Classes
 90
1152
280
0
281
0
  0
CLASS
  1
MENTALRAYRENDERSETTINGS
  2
AcDbMentalRayRenderSettings
  3
SCENEOE
 90
1024
280
0
281
0
  0
CLASS
  1
ACDBDETAILVIEWSTYLE
  2
AcDbDetailViewStyle
  3
ObjectDBX Classes
 90
1025
280
0
281
0
  0
CLASS
  1
ACDBSECTIONVIEWSTYLE
  2
AcDbSectionViewStyle
  3
ObjectDBX Classes
 90
1025
280
0
281
0
  0
CLASS
  1
RASTERVARIABLES
  2
AcDbRasterVariables
  3
ISM
 90
0
280
0
281
0
  0
CLASS
  1
ACDBPLACEHOLDER
  2
AcDbPlaceHolder
  3
ObjectDBX Classes
 90
0
280
0
281
0
  0
CLASS
  1
LAYOUT
  2
AcDbLayout
  3
ObjectDBX Classes
 90
0
280
0
281
0
  0
ENDSEC
  0
SECTION
  2
TABLES
  0
TABLE
  2
VPORT
  5
8
330
0
100
AcDbSymbolTable
 70
1
  0
VPORT
  5
23
330
8
100
AcDbSymbolTableRecord
100
AcDbViewportTableRecord
  2
*Active
 70
0
 10
0.0
 20
0.0
 11
1.0
 21
1.0
 12
0.0
 22
0.0
 13
0.0
 23
0.0
 14
0.5
 24
0.5
 15
0.5
 25
0.5
 16
0.0
 26
0.0
 36
1.0
 17
0.0
 27
0.0
 37
0.0
 40
1000.0
 41
1.34
 42
50.0
 43
0.0
 44
0.0
 50
0.0
 51
0.0
 71
0
 72
1000
 73
1
 74
3
 75
0
 76
0
 77
0
 78
0
281
0
 65
0
146
0.0
  0
ENDTAB
  0
TABLE
  2
LTYPE
  5
2
330
0
100
AcDbSymbolTable
 70
3
  0
LTYPE
  5
24
330
2
100
AcDbSymbolTableRecord
100
AcDbLinetypeTableRecord
  2
ByBlock
 70
0
  3

 72
65
 73
0
 40
0.0
  0
LTYPE
  5
25
330
2
100
AcDbSymbolTableRecord
100
AcDbLinetypeTableRecord
  2
ByLayer
 70
0
  3

 72
65
 73
0
 40
0.0
  0
LTYPE
  5
26
330
2
100
AcDbSymbolTableRecord
100
AcDbLinetypeTableRecord
  2
Continuous
 70
0
  3

 72
65
 73
0
 40
0.0
  0
ENDTAB
  0
TABLE
  2
LAYER
  5
1
330
0
100
AcDbSymbolTable
 70
2
  0
LAYER
  5
27
330
1
100
AcDbSymbolTableRecord
100
AcDbLayerTableRecord
  2
0
 70
0
 62
7
  6
Continuous
370
-3
390
13
  0
LAYER
  5
28
330
1
100
AcDbSymbolTableRecord
100
AcDbLayerTableRecord
  2
Defpoints
 70
0
 62
7
  6
Continuous
290
0
370
-3
390
13
  0
ENDTAB
  0
TABLE
  2
STYLE
  5
5
330
0
100
AcDbSymbolTable
 70
1
  0
STYLE
  5
29
330
5
100
AcDbSymbolTableRecord
100
AcDbTextStyleTableRecord
  2
Standard
 70
0
 40
0.0
 41
1.0
 50
0.0
 71
0
 42
2.5
  3
txt
  4

  0
ENDTAB
  0
TABLE
  2
VIEW
  5
7
330
0
100
AcDbSymbolTable
 70
0
  0
ENDTAB
  0
TABLE
  2
UCS
  5
6
330
0
100
AcDbSymbolTable
 70
0
  0
ENDTAB
  0
TABLE
  2
APPID
  5
3
330
0
100
AcDbSymbolTable
 70
3
  0
APPID
  5
2A
330
3
100
AcDbSymbolTableRecord
100
AcDbRegAppTableRecord
  2
ACAD
 70
0
  0
APPID
  5
42A
330
3
100
AcDbSymbolTableRecord
100
AcDbRegAppTableRecord
  2
HATCHBACKGROUNDCOLOR
 70
0
  0
APPID
  5
42B
330
3
100
AcDbSymbolTableRecord
100
AcDbRegAppTableRecord
  2
EZDXF
 70
0
  0
ENDTAB
  0
TABLE
  2
DIMSTYLE
  5
4
330
0
100
AcDbSymbolTable
 70
1
100
AcDbDimStyleTable
  0
DIMSTYLE
105
2B
330
4
100
AcDbSymbolTableRecord
100
AcDbDimStyleTableRecord
  2
Standard
 70
0
  3

  4

 40
1.0
 41
2.5
 42
0.625
 43
3.75
 44
1.25
 45
0.0
 46
0.0
 47
0.0
 48
0.0
140
2.5
141
2.5
142
0.0
143
0.03937007874
144
1.0
145
0.0
146
1.0
147
0.625
148
0.0
 71
0
 72
0
 73
0
 74
0
 75
0
 76
0
 77
1
 78
8
 79
3
170
0
171
3
172
1
173
0
174
0
175
0
176
0
177
0
178
0
179
2
271
2
272
2
273
2
274
3
275
0
276
0
277
2
278
44
279
0
280
0
281
0
282
0
283
0
284
8
285
0
286
0
288
0
289
3
371
-2
372
-2
  0
ENDTAB
  0
TABLE
  2
BLOCK_RECORD
  5
9
330
0
100
AcDbSymbolTable
 70
2
  0
BLOCK_RECORD
  5
17
330
9
100
AcDbSymbolTableRecord
100
AcDbBlockTableRecord
  2
*Model_Space
340
1A
  0
BLOCK_RECORD
  5
1B
330
9
100
AcDbSymbolTableRecord
100
AcDbBlockTableRecord
  2
*Paper_Space
340
1E
  0
ENDTAB
  0
ENDSEC
  0
SECTION
  2
BLOCKS
  0
BLOCK
  5
18
330
17
100
AcDbEntity
  8
0
100
AcDbBlockBegin
  2
*Model_Space
 70
0
 10
0.0
 20
0.0
 30
0.0
  3
*Model_Space
  1

  0
ENDBLK
  5
19
330
17
100
AcDbEntity
  8
0
100
AcDbBlockEnd
  0
BLOCK
  5
1C
330
1B
100
AcDbEntity
  8
0
100
AcDbBlockBegin
  2
*Paper_Space
 70
0
 10
0.0
 20
0.0
 30
0.0
  3
*Paper_Space
  1

  0
ENDBLK
  5
1D
330
1B
100
AcDbEntity
  8
0
100
AcDbBlockEnd
  0
ENDSEC
  0
SECTION
  2
ENTITIES
  0
LWPOLYLINE
  5
2F
330
17
100
AcDbEntity
  8
ROADS
100
AcDbPolyline
 90
5
 70
0
 10
628685.8282697273
 20
4831766.174523104
 10
628683.2640811984
 20
4831775.106228353
 10
628849.5612955226
 20
4831945.628051091
 10
629333.2174296761
 20
4832325.554279604
 10
629362.2201937829
 20
4832309.405212216
  0
LWPOLYLINE
  5
30
330
17
100
AcDbEntity
  8
ROADS
100
AcDbPolyline
 90
37
 70
0
 10
629249.7037667931
 20
4832454.451067263
 10
629275.2153120417
 20
4832438.217927345
 10
629430.8084431457
 20
4832554.106227482
 10
629306.3612607468
 20
4832740.039231453
 10
629385.234401528
 20
4832755.326484932
 10
629467.7036902622
 20
4832624.3517040815
 10
629508.0384822089
 20
4832637.300414101
 10
629635.0873247563
 20
4832725.676201203
 10
629715.9180573568
 20
4832740.665817323
 10
629631.9434626311
 20
4832731.854819333
 10
629506.7373114558
 20
4832644.167374152
 10
629442.2558227374
 20
4832746.000205763
 10
629451.8666637772
 20
4832765.304192318
 10
629715.6865028365
 20
4832805.168101117
 10
629739.2267259884
 20
4832742.323111202
 10
629706.3221707029
 20
4832857.447509257
 10
629763.0163167592
 20
4832875.919253234
 10
629782.6435166274
 20
4832815.0536889415
 10
629899.6011136322
 20
4832831.686255666
 10
629871.3321130545
 20
4832920.951662892
 10
629904.4263014467
 20
4832934.682638992
 10
629928.4014215432
 20
4832938.753158666
 10
629960.7165788788
 20
4832837.264995839
 10
630095.5770815731
 20
4832857.2963219285
 10
630055.3854423683
 20
4832984.789021636
 10
630097.9888303612
 20
4832997.8828012375
 10
630139.9856971786
 20
4832863.578226743
 10
630221.0825041019
 20
4832875.527489443
 10
630206.9935890831
 20
4832940.713513702
 10
630246.8996509336
 20
4832952.930489825
 10
630265.1433619922
 20
4832892.752890733
 10
630232.6714125787
 20
4832880.669265167
 10
630315.7416286394
 20
4832892.6601975
 10
630264.8704286205
 20
4833046.259844281
 10
630325.8141188077
 20
4833059.853094254
 10
630374.2821434581
 20
4832902.7127435915
 10
630472.3091647697
 20
4832916.95710954
  0
LWPOLYLINE
  5
31
330
17
100
AcDbEntity
  8
ROADS
100
AcDbPolyline
 90
4
 70
0
 10
630228.1108100575
 20
4833045.347514544
 10
630248.2901813311
 20
4832969.563795714
 10
630168.7757614118
 20
4832942.270019826
 10
630139.539282731
 20
4833022.590376332
  0
LWPOLYLINE
  5
32
330
17
100
AcDbEntity
  8
ROADS
100
AcDbPolyline
 90
2
 70
0
 10
630228.1108100575
 20
4833045.347514544
 10
630139.539282731
 20
4833022.590376332
  0
LWPOLYLINE
  5
33
330
17
100
AcDbEntity
  8
ROADS
100
AcDbPolyline
 90
2
 70
0
 10
630310.792563733
 20
4833070.062371909
 10
630228.1108100575
 20
4833045.347514544
  0
LWPOLYLINE
  5
34
330
17
100
AcDbEntity
  8
ROADS
100
AcDbPolyline
 90
2
 70
0
 10
630139.539282731
 20
4833022.590376332
 10
630112.5029471676
 20
4833103.906547435
  0
LWPOLYLINE
  5
35
330
17
100
AcDbEntity
  8
ROADS
100
AcDbPolyline
 90
2
 70
0
 10
630448.3883246183
 20
4833102.161100479
 10
630228.1108100575
 20
4833045.347514544
  0
LWPOLYLINE
  5
36
330
17
100
AcDbEntity
  8
ROADS
100
AcDbPolyline
 90
2
 70
0
 10
629710.0538061021
 20
4832877.127802779
 10
629712.2225959479
 20
4832890.9274486825
  0
LWPOLYLINE
  5
37
330
17
100
AcDbEntity
  8
ROADS
100
AcDbPolyline
 90
2
 70
0
 10
630139.539282731
 20
4833022.590376332
 10
629710.0538061021
 20
4832877.127802779
  0
LWPOLYLINE
  5
38
330
17
100
AcDbEntity
  8
ROADS
100
AcDbPolyline
 90
2
 70
0
 10
630139.539282731
 20
4833022.590376332
 10
629712.2225959479
 20
4832890.9274486825
  0
LWPOLYLINE
  5
39
330
17
100
AcDbEntity
  8
ROADS
100
AcDbPolyline
 90
2
 70
0
 10
630112.5029471676
 20
4833103.906547435
 10
629682.3239448045
 20
4832983.32156922
  0
LWPOLYLINE
  5
3A
330
17
100
AcDbEntity
  8
ROADS
100
AcDbPolyline
 90
2
 70
0
 10
630098.2712058418
 20
4833145.672311343
 10
629664.812406669
 20
4833036.575810875
  0
LWPOLYLINE
  5
3B
330
17
100
AcDbEntity
  8
ROADS
100
AcDbPolyline
 90
4
 70
0
 10
629951.3987763845
 20
4833197.474831876
 10
629965.2876917733
 20
4833133.95036954
 10
629676.9741932056
 20
4833064.801532834
 10
629664.812406669
 20
4833036.575810875
  0
LWPOLYLINE
  5
3C
330
17
100
AcDbEntity
  8
ROADS
100
AcDbPolyline
 90
2
 70
0
 10
629756.1179848074
 20
4833156.8670978425
 10
629687.3052265871
 20
4833135.174090451
  0
LWPOLYLINE
  5
3D
330
17
100
AcDbEntity
  8
ROADS
100
AcDbPolyline
 90
2
 70
0
 10
629804.1062754634
 20
4833171.257288557
 10
629756.1179848074
 20
4833156.8670978425
  0
LWPOLYLINE
  5
3E
330
17
100
AcDbEntity
  8
ROADS
100
AcDbPolyline
 90
2
 70
0
 10
629736.8563229593
 20
4833229.543063089
 10
629756.1179848074
 20
4833156.8670978425
  0
LWPOLYLINE
  5
3F
330
17
100
AcDbEntity
  8
ROADS
100
AcDbPolyline
 90
2
 70
0
 10
629951.3987763845
 20
4833197.474831876
 10
629736.8563229593
 20
4833229.543063089
  0
LWPOLYLINE
  5
40
330
17
100
AcDbEntity
  8
ROADS
100
AcDbPolyline
 90
7
 70
0
 10
629362.2201937829
 20
4832309.405212216
 10
629355.0784181006
 20
4832343.458493487
 10
629475.8622624509
 20
4832436.294234047
 10
629622.1063887579
 20
4832246.622598615
 10
629642.4446635066
 20
4832259.4699606225
 10
629708.0181140519
 20
4832179.665230844
 10
629772.6771862145
 20
4832193.547156461
  0
LWPOLYLINE
  5
41
330
17
100
AcDbEntity
  8
ROADS
100
AcDbPolyline
 90
3
 70
0
 10
629844.608836358
 20
4832217.268688526
 10
629898.5709088278
 20
4832246.935824334
 10
629921.6745641738
 20
4832240.027830051
  0
LWPOLYLINE
  5
42
330
17
100
AcDbEntity
  8
ROADS
100
AcDbPolyline
 90
3
 70
0
 10
630008.8894597136
 20
4832273.754329203
 10
629963.2003593959
 20
4832342.189224677
 10
630015.2086370921
 20
4832276.5316683855
  0
LWPOLYLINE
  5
43
330
17
100
AcDbEntity
  8
ROADS
100
AcDbPolyline
 90
4
 70
0
 10
629403.0832800224
 20
4832275.0191922
 10
629475.3379302562
 20
4832253.395225889
 10
629537.0440036632
 20
4832296.629113448
 10
629656.3381930159
 20
4832139.733052058
  0
LWPOLYLINE
  5
44
330
17
100
AcDbEntity
  8
ROADS
100
AcDbPolyline
 90
2
 70
0
 10
629409.9428986838
 20
4832763.029486309
 10
629408.070759769
 20
4832776.736260855
  0
LWPOLYLINE
  5
45
330
17
100
AcDbEntity
  8
ROADS
100
AcDbPolyline
 90
2
 70
0
 10
629438.4471416605
 20
4832766.99782129
 10
629449.0699952062
 20
4832786.7230128
  0
LWPOLYLINE
  5
46
330
17
100
AcDbEntity
  8
ROADS
100
AcDbPolyline
 90
2
 70
0
 10
629470.1453656938
 20
4832772.1969556445
 10
629449.0699952062
 20
4832786.7230128
  0
LWPOLYLINE
  5
47
330
17
100
AcDbEntity
  8
ROADS
100
AcDbPolyline
 90
2
 70
0
 10
629408.070759769
 20
4832776.736260855
 10
629382.4509365255
 20
4832784.7831997415
  0
LWPOLYLINE
  5
48
330
17
100
AcDbEntity
  8
ROADS
100
AcDbPolyline
 90
2
 70
0
 10
629408.070759769
 20
4832776.736260855
 10
629449.0699952062
 20
4832786.7230128
  0
LWPOLYLINE
  5
49
330
17
100
AcDbEntity
  8
ROADS
100
AcDbPolyline
 90
7
 70
0
 10
629461.3269352267
 20
4832799.636488839
 10
629496.3006230132
 20
4832809.637143135
 10
629492.241568469
 20
4832790.753501167
 10
629480.783930916
 20
4832797.994960617
 10
629491.0297131687
 20
4832805.95964634
 10
629477.3635189368
 20
4832803.483530707
 10
629489.394120265
 20
4832775.105975055
  0
LWPOLYLINE
  5
4A
330
17
100
AcDbEntity
  8
ROADS
100
AcDbPolyline
 90
2
 70
0
 10
629449.0699952062
 20
4832786.7230128
 10
629461.3269352267
 20
4832799.636488839
  0
LWPOLYLINE
  5
4B
330
17
100
AcDbEntity
  8
ROADS
100
AcDbPolyline
 90
2
 70
0
 10
629449.0699952062
 20
4832786.7230128
 10
629450.2215191167
 20
4832800.50287534
  0
LWPOLYLINE
  5
4C
330
17
100
AcDbEntity
  8
ROADS
100
AcDbPolyline
 90
2
 70
0
 10
629502.5256692906
 20
4832777.062393023
 10
629521.4265250186
 20
4832811.89631944
  0
LWPOLYLINE
  5
4D
330
17
100
AcDbEntity
  8
ROADS
100
AcDbPolyline
 90
3
 70
0
 10
629403.0832800224
 20
4832275.0191922
 10
629384.6610010369
 20
4832264.172593364
 10
629378.0551593439
 20
4832287.992862954
  0
LWPOLYLINE
  5
4E
330
17
100
AcDbEntity
  8
ROADS
100
AcDbPolyline
 90
2
 70
0
 10
629378.0551593439
 20
4832287.992862954
 10
629403.0832800224
 20
4832275.0191922
  0
LWPOLYLINE
  5
4F
330
17
100
AcDbEntity
  8
ROADS
100
AcDbPolyline
 90
2
 70
0
 10
629362.2201937829
 20
4832309.405212216
 10
629378.0551593439
 20
4832287.992862954
  0
LWPOLYLINE
  5
50
330
17
100
AcDbEntity
  8
ROADS
100
AcDbPolyline
 90
3
 70
0
 10
629084.2853947381
 20
4832302.650928772
 10
629141.4799773535
 20
4832351.81266091
 10
629105.280364531
 20
4832406.447272232
  0
LWPOLYLINE
  5
51
330
17
100
AcDbEntity
  8
ROADS
100
AcDbPolyline
 90
2
 70
0
 10
629208.7647640334
 20
4832418.489912534
 10
629203.1835394088
 20
4832433.701097263
  0
LWPOLYLINE
  5
52
330
17
100
AcDbEntity
  8
ROADS
100
AcDbPolyline
 90
2
 70
0
 10
629105.280364531
 20
4832406.447272232
 10
629169.5382512888
 20
4832463.698197835
  0
LWPOLYLINE
  5
53
330
17
100
AcDbEntity
  8
ROADS
100
AcDbPolyline
 90
2
 70
0
 10
629203.1835394088
 20
4832433.701097263
 10
629196.6924319752
 20
4832450.119922783
  0
LWPOLYLINE
  5
54
330
17
100
AcDbEntity
  8
ROADS
100
AcDbPolyline
 90
2
 70
0
 10
629203.1835394088
 20
4832433.701097263
 10
629226.4441169598
 20
4832453.403522346
  0
LWPOLYLINE
  5
55
330
17
100
AcDbEntity
  8
ROADS
100
AcDbPolyline
 90
2
 70
0
 10
629226.4441169598
 20
4832453.403522346
 10
629231.8826553046
 20
4832439.060017494
  0
LWPOLYLINE
  5
56
330
17
100
AcDbEntity
  8
ROADS
100
AcDbPolyline
 90
3
 70
0
 10
629196.6924319752
 20
4832450.119922783
 10
629210.9767581569
 20
4832468.4742667405
 10
629226.4441169598
 20
4832453.403522346
  0
LWPOLYLINE
  5
57
330
17
100
AcDbEntity
  8
ROADS
100
AcDbPolyline
 90
2
 70
0
 10
629226.4441169598
 20
4832453.403522346
 10
629246.1059908719
 20
4832475.234470004
  0
LWPOLYLINE
  5
58
330
17
100
AcDbEntity
  8
ROADS
100
AcDbPolyline
 90
2
 70
0
 10
629249.7037667931
 20
4832454.451067263
 10
629246.1059908719
 20
4832475.234470004
  0
LWPOLYLINE
  5
59
330
17
100
AcDbEntity
  8
ROADS
100
AcDbPolyline
 90
2
 70
0
 10
629196.6924319752
 20
4832450.119922783
 10
629184.1047550279
 20
4832480.452531244
  0
LWPOLYLINE
  5
5A
330
17
100
AcDbEntity
  8
ROADS
100
AcDbPolyline
 90
2
 70
0
 10
629225.1341346556
 20
4832485.358718799
 10
629226.4441169598
 20
4832453.403522346
  0
LWPOLYLINE
  5
5B
330
17
100
AcDbEntity
  8
ROADS
100
AcDbPolyline
 90
2
 70
0
 10
629169.5382512888
 20
4832463.698197835
 10
629184.1047550279
 20
4832480.452531244
  0
LWPOLYLINE
  5
5C
330
17
100
AcDbEntity
  8
ROADS
100
AcDbPolyline
 90
2
 70
0
 10
629169.5382512888
 20
4832463.698197835
 10
629164.5183332156
 20
4832488.593427046
  0
LWPOLYLINE
  5
5D
330
17
100
AcDbEntity
  8
ROADS
100
AcDbPolyline
 90
2
 70
0
 10
629225.1341346556
 20
4832485.358718799
 10
629246.1059908719
 20
4832475.234470004
  0
LWPOLYLINE
  5
5E
330
17
100
AcDbEntity
  8
ROADS
100
AcDbPolyline
 90
2
 70
0
 10
629184.1047550279
 20
4832480.452531244
 10
629225.1341346556
 20
4832485.358718799
  0
LWPOLYLINE
  5
5F
330
17
100
AcDbEntity
  8
ROADS
100
AcDbPolyline
 90
2
 70
0
 10
629184.1047550279
 20
4832480.452531244
 10
629164.5183332156
 20
4832488.593427046
  0
LWPOLYLINE
  5
60
330
17
100
AcDbEntity
  8
ROADS
100
AcDbPolyline
 90
2
 70
0
 10
629184.1047550279
 20
4832480.452531244
 10
629179.2423817931
 20
4832495.99272503
  0
LWPOLYLINE
  5
61
330
17
100
AcDbEntity
  8
ROADS
100
AcDbPolyline
 90
2
 70
0
 10
629031.6146684845
 20
4832267.239875447
 10
629084.2853947381
 20
4832302.650928772
  0
LWPOLYLINE
  5
62
330
17
100
AcDbEntity
  8
ROADS
100
AcDbPolyline
 90
2
 70
0
 10
629084.2853947381
 20
4832302.650928772
 10
629051.1942746151
 20
4832346.0909486795
  0
LWPOLYLINE
  5
63
330
17
100
AcDbEntity
  8
ROADS
100
AcDbPolyline
 90
2
 70
0
 10
629105.280364531
 20
4832406.447272232
 10
629015.2421175336
 20
4832523.067234207
  0
LWPOLYLINE
  5
64
330
17
100
AcDbEntity
  8
ROADS
100
AcDbPolyline
 90
4
 70
0
 10
629015.2421175336
 20
4832523.067234207
 10
628952.7285705489
 20
4832476.65356698
 10
628841.7685138464
 20
4832594.293483831
 10
628769.6879053889
 20
4832571.758544927
  0
LWPOLYLINE
  5
65
330
17
100
AcDbEntity
  8
ROADS
100
AcDbPolyline
 90
2
 70
0
 10
629084.2035761763
 20
4832575.431827854
 10
629015.2421175336
 20
4832523.067234207
  0
LWPOLYLINE
  5
66
330
17
100
AcDbEntity
  8
ROADS
100
AcDbPolyline
 90
2
 70
0
 10
629015.2421175336
 20
4832523.067234207
 10
628956.0669933975
 20
4832599.283103994
  0
LWPOLYLINE
  5
67
330
17
100
AcDbEntity
  8
ROADS
100
AcDbPolyline
 90
3
 70
0
 10
629129.2096987735
 20
4832610.043887747
 10
629026.4358995509
 20
4832651.184105036
 10
628956.0669933975
 20
4832599.283103994
  0
LWPOLYLINE
  5
68
330
17
100
AcDbEntity
  8
ROADS
100
AcDbPolyline
 90
2
 70
0
 10
628956.0669933975
 20
4832599.283103994
 10
628902.1517411487
 20
4832670.433651591
  0
LWPOLYLINE
  5
69
330
17
100
AcDbEntity
  8
ROADS
100
AcDbPolyline
 90
2
 70
0
 10
628902.1517411487
 20
4832670.433651591
 10
628797.3912518963
 20
4832657.732840931
  0
LWPOLYLINE
  5
6A
330
17
100
AcDbEntity
  8
ROADS
100
AcDbPolyline
 90
2
 70
0
 10
628892.4180892021
 20
4832689.748060193
 10
628795.3960643499
 20
4832677.105577746
  0
LWPOLYLINE
  5
6B
330
17
100
AcDbEntity
  8
ROADS
100
AcDbPolyline
 90
2
 70
0
 10
629164.5183332156
 20
4832488.593427046
 10
629179.2423817931
 20
4832495.99272503
  0
LWPOLYLINE
  5
6C
330
17
100
AcDbEntity
  8
ROADS
100
AcDbPolyline
 90
2
 70
0
 10
629164.5183332156
 20
4832488.593427046
 10
629152.8857055516
 20
4832501.2998468755
  0
LWPOLYLINE
  5
6D
330
17
100
AcDbEntity
  8
ROADS
100
AcDbPolyline
 90
2
 70
0
 10
629152.8857055516
 20
4832501.2998468755
 10
629131.1148368156
 20
4832514.9363908535
  0
LWPOLYLINE
  5
6E
330
17
100
AcDbEntity
  8
ROADS
100
AcDbPolyline
 90
3
 70
0
 10
629246.1059908719
 20
4832475.234470004
 10
629292.8349279029
 20
4832510.778225411
 10
629270.0899483291
 20
4832546.332662321
  0
LWPOLYLINE
  5
6F
330
17
100
AcDbEntity
  8
ROADS
100
AcDbPolyline
 90
2
 70
0
 10
629152.8857055516
 20
4832501.2998468755
 10
629149.6688458773
 20
4832521.425081396
  0
LWPOLYLINE
  5
70
330
17
100
AcDbEntity
  8
ROADS
100
AcDbPolyline
 90
2
 70
0
 10
629225.1341346556
 20
4832485.358718799
 10
629270.0899483291
 20
4832546.332662321
  0
LWPOLYLINE
  5
71
330
17
100
AcDbEntity
  8
ROADS
100
AcDbPolyline
 90
2
 70
0
 10
629179.2423817931
 20
4832495.99272503
 10
629156.9805026072
 20
4832537.1612593755
  0
LWPOLYLINE
  5
72
330
17
100
AcDbEntity
  8
ROADS
100
AcDbPolyline
 90
2
 70
0
 10
629131.1148368156
 20
4832514.9363908535
 10
629149.6688458773
 20
4832521.425081396
  0
LWPOLYLINE
  5
73
330
17
100
AcDbEntity
  8
ROADS
100
AcDbPolyline
 90
2
 70
0
 10
629149.6688458773
 20
4832521.425081396
 10
629156.9805026072
 20
4832537.1612593755
  0
LWPOLYLINE
  5
74
330
17
100
AcDbEntity
  8
ROADS
100
AcDbPolyline
 90
2
 70
0
 10
629156.9805026072
 20
4832537.1612593755
 10
629148.1887675901
 20
4832547.822621432
  0
LWPOLYLINE
  5
75
330
17
100
AcDbEntity
  8
ROADS
100
AcDbPolyline
 90
2
 70
0
 10
629131.1148368156
 20
4832514.9363908535
 10
629084.2035761763
 20
4832575.431827854
  0
LWPOLYLINE
  5
76
330
17
100
AcDbEntity
  8
ROADS
100
AcDbPolyline
 90
3
 70
0
 10
629148.1887675901
 20
4832547.822621432
 10
629138.9764749033
 20
4832530.897020632
 10
629118.2498161722
 20
4832563.324031161
  0
LWPOLYLINE
  5
77
330
17
100
AcDbEntity
  8
ROADS
100
AcDbPolyline
 90
2
 70
0
 10
629148.1887675901
 20
4832547.822621432
 10
629145.2334576511
 20
4832563.158757776
  0
LWPOLYLINE
  5
78
330
17
100
AcDbEntity
  8
ROADS
100
AcDbPolyline
 90
2
 70
0
 10
629148.1887675901
 20
4832547.822621432
 10
629118.2498161722
 20
4832563.324031161
  0
LWPOLYLINE
  5
79
330
17
100
AcDbEntity
  8
ROADS
100
AcDbPolyline
 90
2
 70
0
 10
629118.2498161722
 20
4832563.324031161
 10
629145.2334576511
 20
4832563.158757776
  0
LWPOLYLINE
  5
7A
330
17
100
AcDbEntity
  8
ROADS
100
AcDbPolyline
 90
2
 70
0
 10
629118.2498161722
 20
4832563.324031161
 10
629084.2035761763
 20
4832575.431827854
  0
LWPOLYLINE
  5
7B
330
17
100
AcDbEntity
  8
ROADS
100
AcDbPolyline
 90
2
 70
0
 10
629145.2334576511
 20
4832563.158757776
 10
629144.7320882457
 20
4832597.019486042
  0
LWPOLYLINE
  5
7C
330
17
100
AcDbEntity
  8
ROADS
100
AcDbPolyline
 90
2
 70
0
 10
629118.2498161722
 20
4832563.324031161
 10
629144.7320882457
 20
4832597.019486042
  0
LWPOLYLINE
  5
7D
330
17
100
AcDbEntity
  8
ROADS
100
AcDbPolyline
 90
2
 70
0
 10
629270.0899483291
 20
4832546.332662321
 10
629219.9287309418
 20
4832619.430250307
  0
LWPOLYLINE
  5
7E
330
17
100
AcDbEntity
  8
ROADS
100
AcDbPolyline
 90
2
 70
0
 10
629129.2096987735
 20
4832610.043887747
 10
629084.2035761763
 20
4832575.431827854
  0
LWPOLYLINE
  5
7F
330
17
100
AcDbEntity
  8
ROADS
100
AcDbPolyline
 90
2
 70
0
 10
629144.7320882457
 20
4832597.019486042
 10
629129.2096987735
 20
4832610.043887747
  0
LWPOLYLINE
  5
80
330
17
100
AcDbEntity
  8
ROADS
100
AcDbPolyline
 90
3
 70
0
 10
629185.0906607743
 20
4832618.763955946
 10
629215.0100214991
 20
4832605.78144775
 10
629219.9287309418
 20
4832619.430250307
  0
LWPOLYLINE
  5
81
330
17
100
AcDbEntity
  8
ROADS
100
AcDbPolyline
 90
2
 70
0
 10
629162.4231684136
 20
4832635.295238107
 10
629129.2096987735
 20
4832610.043887747
  0
LWPOLYLINE
  5
82
330
17
100
AcDbEntity
  8
ROADS
100
AcDbPolyline
 90
2
 70
0
 10
629185.0906607743
 20
4832618.763955946
 10
629162.4231684136
 20
4832635.295238107
  0
LWPOLYLINE
  5
83
330
17
100
AcDbEntity
  8
ROADS
100
AcDbPolyline
 90
2
 70
0
 10
629185.0906607743
 20
4832618.763955946
 10
629195.4541299994
 20
4832659.052194448
  0
LWPOLYLINE
  5
84
330
17
100
AcDbEntity
  8
ROADS
100
AcDbPolyline
 90
2
 70
0
 10
629219.9287309418
 20
4832619.430250307
 10
629195.4541299994
 20
4832659.052194448
  0
LWPOLYLINE
  5
85
330
17
100
AcDbEntity
  8
ROADS
100
AcDbPolyline
 90
2
 70
0
 10
629195.4541299994
 20
4832659.052194448
 10
629162.4231684136
 20
4832635.295238107
  0
LWPOLYLINE
  5
86
330
17
100
AcDbEntity
  8
ROADS
100
AcDbPolyline
 90
3
 70
0
 10
629195.4541299994
 20
4832659.052194448
 10
629109.4179033163
 20
4832713.586749104
 10
629089.9204016323
 20
4832742.817407679
  0
LWPOLYLINE
  5
87
330
17
100
AcDbEntity
  8
ROADS
100
AcDbPolyline
 90
3
 70
0
 10
629325.2069602519
 20
4832769.789792699
 10
629271.896159809
 20
4832739.804443266
 10
629195.4541299994
 20
4832659.052194448
  0
LWPOLYLINE
  5
88
330
17
100
AcDbEntity
  8
ROADS
100
AcDbPolyline
 90
4
 70
0
 10
629195.4541299994
 20
4832659.052194448
 10
629216.2909973463
 20
4832657.920127635
 10
629283.7215732586
 20
4832732.465625434
 10
629382.4509365255
 20
4832784.7831997415
  0
LWPOLYLINE
  5
89
330
17
100
AcDbEntity
  8
ROADS
100
AcDbPolyline
 90
2
 70
0
 10
628989.5847602286
 20
4832716.081581855
 10
628892.4180892021
 20
4832689.748060193
  0
LWPOLYLINE
  5
8A
330
17
100
AcDbEntity
  8
ROADS
100
AcDbPolyline
 90
2
 70
0
 10
629089.9204016323
 20
4832742.817407679
 10
628902.1517411487
 20
4832670.433651591
  0
LWPOLYLINE
  5
8B
330
17
100
AcDbEntity
  8
ROADS
100
AcDbPolyline
 90
2
 70
0
 10
628892.4180892021
 20
4832689.748060193
 10
628866.2621804748
 20
4832769.7807766
  0
LWPOLYLINE
  5
8C
330
17
100
AcDbEntity
  8
ROADS
100
AcDbPolyline
 90
2
 70
0
 10
629082.2091825315
 20
4832759.735208445
 10
628989.5847602286
 20
4832716.081581855
  0
LWPOLYLINE
  5
8D
330
17
100
AcDbEntity
  8
ROADS
100
AcDbPolyline
 90
2
 70
0
 10
629089.9204016323
 20
4832742.817407679
 10
629082.2091825315
 20
4832759.735208445
  0
LWPOLYLINE
  5
8E
330
17
100
AcDbEntity
  8
ROADS
100
AcDbPolyline
 90
2
 70
0
 10
628989.5847602286
 20
4832716.081581855
 10
628965.7070453796
 20
4832789.581048219
  0
LWPOLYLINE
  5
8F
330
17
100
AcDbEntity
  8
ROADS
100
AcDbPolyline
 90
2
 70
0
 10
628965.7070453796
 20
4832789.581048219
 10
628866.2621804748
 20
4832769.7807766
  0
LWPOLYLINE
  5
90
330
17
100
AcDbEntity
  8
ROADS
100
AcDbPolyline
 90
2
 70
0
 10
629082.2091825315
 20
4832759.735208445
 10
629056.1769391475
 20
4832839.785200942
  0
LWPOLYLINE
  5
91
330
17
100
AcDbEntity
  8
ROADS
100
AcDbPolyline
 90
2
 70
0
 10
628866.2621804748
 20
4832769.7807766
 10
628841.6645192143
 20
4832845.045320459
  0
LWPOLYLINE
  5
92
330
17
100
AcDbEntity
  8
ROADS
100
AcDbPolyline
 90
2
 70
0
 10
628965.7070453796
 20
4832789.581048219
 10
628948.6744863783
 20
4832842.011785199
  0
LWPOLYLINE
  5
93
330
17
100
AcDbEntity
  8
ROADS
100
AcDbPolyline
 90
2
 70
0
 10
629546.5074932787
 20
4832783.769594635
 10
629567.6291904805
 20
4832810.541101354
  0
LWPOLYLINE
  5
94
330
17
100
AcDbEntity
  8
ROADS
100
AcDbPolyline
 90
2
 70
0
 10
629578.8251818287
 20
4832788.779912666
 10
629567.6291904805
 20
4832810.541101354
  0
LWPOLYLINE
  5
95
330
17
100
AcDbEntity
  8
ROADS
100
AcDbPolyline
 90
2
 70
0
 10
629382.4509365255
 20
4832784.7831997415
 10
629459.1249110468
 20
4832817.891949266
  0
LWPOLYLINE
  5
96
330
17
100
AcDbEntity
  8
ROADS
100
AcDbPolyline
 90
2
 70
0
 10
629593.169916576
 20
4832791.450302843
 10
629590.3265279043
 20
4832812.877899678
  0
LWPOLYLINE
  5
97
330
17
100
AcDbEntity
  8
ROADS
100
AcDbPolyline
 90
2
 70
0
 10
629516.1100708949
 20
4832843.445418571
 10
629325.2069602519
 20
4832769.789792699
  0
LWPOLYLINE
  5
98
330
17
100
AcDbEntity
  8
ROADS
100
AcDbPolyline
 90
2
 70
0
 10
629461.3269352267
 20
4832799.636488839
 10
629459.1249110468
 20
4832817.891949266
  0
LWPOLYLINE
  5
99
330
17
100
AcDbEntity
  8
ROADS
100
AcDbPolyline
 90
2
 70
0
 10
629567.6291904805
 20
4832810.541101354
 10
629590.3265279043
 20
4832812.877899678
  0
LWPOLYLINE
  5
9A
330
17
100
AcDbEntity
  8
ROADS
100
AcDbPolyline
 90
2
 70
0
 10
629521.4265250186
 20
4832811.89631944
 10
629510.0626273135
 20
4832814.393146942
  0
LWPOLYLINE
  5
9B
330
17
100
AcDbEntity
  8
ROADS
100
AcDbPolyline
 90
2
 70
0
 10
629647.1243176814
 20
4832799.049772069
 10
629640.2489654949
 20
4832832.800866128
  0
LWPOLYLINE
  5
9C
330
17
100
AcDbEntity
  8
ROADS
100
AcDbPolyline
 90
2
 70
0
 10
629590.3265279043
 20
4832812.877899678
 10
629605.1669897964
 20
4832822.538230565
  0
LWPOLYLINE
  5
9D
330
17
100
AcDbEntity
  8
ROADS
100
AcDbPolyline
 90
2
 70
0
 10
629567.6291904805
 20
4832810.541101354
 10
629569.1292639914
 20
4832827.864399855
  0
LWPOLYLINE
  5
9E
330
17
100
AcDbEntity
  8
ROADS
100
AcDbPolyline
 90
2
 70
0
 10
629521.4265250186
 20
4832811.89631944
 10
629569.1292639914
 20
4832827.864399855
  0
LWPOLYLINE
  5
9F
330
17
100
AcDbEntity
  8
ROADS
100
AcDbPolyline
 90
2
 70
0
 10
629659.6679541359
 20
4832802.908699796
 10
629658.689715857
 20
4832836.980377558
  0
LWPOLYLINE
  5
A0
330
17
100
AcDbEntity
  8
ROADS
100
AcDbPolyline
 90
2
 70
0
 10
629521.4265250186
 20
4832811.89631944
 10
629519.4556111931
 20
4832832.194099485
  0
LWPOLYLINE
  5
A1
330
17
100
AcDbEntity
  8
ROADS
100
AcDbPolyline
 90
2
 70
0
 10
629569.1292639914
 20
4832827.864399855
 10
629558.1282940619
 20
4832819.077008905
  0
LWPOLYLINE
  5
A2
330
17
100
AcDbEntity
  8
ROADS
100
AcDbPolyline
 90
2
 70
0
 10
629459.1249110468
 20
4832817.891949266
 10
629519.4556111931
 20
4832832.194099485
  0
LWPOLYLINE
  5
A3
330
17
100
AcDbEntity
  8
ROADS
100
AcDbPolyline
 90
2
 70
0
 10
629590.3265279043
 20
4832812.877899678
 10
629581.8014254789
 20
4832843.454458212
  0
LWPOLYLINE
  5
A4
330
17
100
AcDbEntity
  8
ROADS
100
AcDbPolyline
 90
2
 70
0
 10
629640.2489654949
 20
4832832.800866128
 10
629658.689715857
 20
4832836.980377558
  0
LWPOLYLINE
  5
A5
330
17
100
AcDbEntity
  8
ROADS
100
AcDbPolyline
 90
2
 70
0
 10
629569.1292639914
 20
4832827.864399855
 10
629581.8014254789
 20
4832843.454458212
  0
LWPOLYLINE
  5
A6
330
17
100
AcDbEntity
  8
ROADS
100
AcDbPolyline
 90
2
 70
0
 10
629519.4556111931
 20
4832832.194099485
 10
629581.8014254789
 20
4832843.454458212
  0
LWPOLYLINE
  5
A7
330
17
100
AcDbEntity
  8
ROADS
100
AcDbPolyline
 90
2
 70
0
 10
629220.7268909509
 20
4832808.803510246
 10
629089.9204016323
 20
4832742.817407679
  0
LWPOLYLINE
  5
A8
330
17
100
AcDbEntity
  8
ROADS
100
AcDbPolyline
 90
2
 70
0
 10
629325.2069602519
 20
4832769.789792699
 10
629289.4378496374
 20
4832837.177036652
  0
LWPOLYLINE
  5
A9
330
17
100
AcDbEntity
  8
ROADS
100
AcDbPolyline
 90
2
 70
0
 10
629289.4378496374
 20
4832837.177036652
 10
629220.7268909509
 20
4832808.803510246
  0
LWPOLYLINE
  5
AA
330
17
100
AcDbEntity
  8
ROADS
100
AcDbPolyline
 90
2
 70
0
 10
629280.3054055506
 20
4832855.208239632
 10
629220.7268909509
 20
4832808.803510246
  0
LWPOLYLINE
  5
AB
330
17
100
AcDbEntity
  8
ROADS
100
AcDbPolyline
 90
2
 70
0
 10
629289.4378496374
 20
4832837.177036652
 10
629280.3054055506
 20
4832855.208239632
  0
LWPOLYLINE
  5
AC
330
17
100
AcDbEntity
  8
ROADS
100
AcDbPolyline
 90
2
 70
0
 10
629396.2356269454
 20
4832893.043182269
 10
629289.4378496374
 20
4832837.177036652
  0
LWPOLYLINE
  5
AD
330
17
100
AcDbEntity
  8
ROADS
100
AcDbPolyline
 90
2
 70
0
 10
629370.406553031
 20
4832929.547773011
 10
629280.3054055506
 20
4832855.208239632
  0
LWPOLYLINE
  5
AE
330
17
100
AcDbEntity
  8
ROADS
100
AcDbPolyline
 90
2
 70
0
 10
629255.9025796296
 20
4832932.361519815
 10
629280.3054055506
 20
4832855.208239632
  0
LWPOLYLINE
  5
AF
330
17
100
AcDbEntity
  8
ROADS
100
AcDbPolyline
 90
2
 70
0
 10
629370.406553031
 20
4832929.547773011
 10
629396.2356269454
 20
4832893.043182269
  0
LWPOLYLINE
  5
B0
330
17
100
AcDbEntity
  8
ROADS
100
AcDbPolyline
 90
2
 70
0
 10
629147.069022519
 20
4832928.608619373
 10
629028.0733162258
 20
4832924.330053261
  0
LWPOLYLINE
  5
B1
330
17
100
AcDbEntity
  8
ROADS
100
AcDbPolyline
 90
2
 70
0
 10
629640.2489654949
 20
4832832.800866128
 10
629635.9466865401
 20
4832853.386545441
  0
LWPOLYLINE
  5
B2
330
17
100
AcDbEntity
  8
ROADS
100
AcDbPolyline
 90
2
 70
0
 10
629658.689715857
 20
4832836.980377558
 10
629645.6822005768
 20
4832856.217661391
  0
LWPOLYLINE
  5
B3
330
17
100
AcDbEntity
  8
ROADS
100
AcDbPolyline
 90
2
 70
0
 10
629581.8014254789
 20
4832843.454458212
 10
629635.9466865401
 20
4832853.386545441
  0
LWPOLYLINE
  5
B4
330
17
100
AcDbEntity
  8
ROADS
100
AcDbPolyline
 90
2
 70
0
 10
629635.9466865401
 20
4832853.386545441
 10
629645.6822005768
 20
4832856.217661391
  0
LWPOLYLINE
  5
B5
330
17
100
AcDbEntity
  8
ROADS
100
AcDbPolyline
 90
2
 70
0
 10
629645.6822005768
 20
4832856.217661391
 10
629710.0538061021
 20
4832877.127802779
  0
LWPOLYLINE
  5
B6
330
17
100
AcDbEntity
  8
ROADS
100
AcDbPolyline
 90
2
 70
0
 10
629712.2225959479
 20
4832890.9274486825
 10
629516.1100708949
 20
4832843.445418571
  0
LWPOLYLINE
  5
B7
330
17
100
AcDbEntity
  8
ROADS
100
AcDbPolyline
 90
2
 70
0
 10
629516.1100708949
 20
4832843.445418571
 10
629504.7951947441
 20
4832897.241652193
  0
LWPOLYLINE
  5
B8
330
17
100
AcDbEntity
  8
ROADS
100
AcDbPolyline
 90
2
 70
0
 10
629583.049419771
 20
4832940.470691684
 10
629396.2356269454
 20
4832893.043182269
  0
LWPOLYLINE
  5
B9
330
17
100
AcDbEntity
  8
ROADS
100
AcDbPolyline
 90
2
 70
0
 10
629712.2225959479
 20
4832890.9274486825
 10
629682.3239448045
 20
4832983.32156922
  0
LWPOLYLINE
  5
BA
330
17
100
AcDbEntity
  8
ROADS
100
AcDbPolyline
 90
2
 70
0
 10
629610.024271951
 20
4832965.041827908
 10
629583.049419771
 20
4832940.470691684
  0
LWPOLYLINE
  5
BB
330
17
100
AcDbEntity
  8
ROADS
100
AcDbPolyline
 90
3
 70
0
 10
629056.1769391475
 20
4832839.785200942
 10
629023.1143221513
 20
4832831.229185847
 10
628948.6744863783
 20
4832842.011785199
  0
LWPOLYLINE
  5
BC
330
17
100
AcDbEntity
  8
ROADS
100
AcDbPolyline
 90
2
 70
0
 10
628948.6744863783
 20
4832842.011785199
 10
628841.6645192143
 20
4832845.045320459
  0
LWPOLYLINE
  5
BD
330
17
100
AcDbEntity
  8
ROADS
100
AcDbPolyline
 90
2
 70
0
 10
628841.6645192143
 20
4832845.045320459
 10
628830.7108431165
 20
4832892.745566369
  0
LWPOLYLINE
  5
BE
330
17
100
AcDbEntity
  8
ROADS
100
AcDbPolyline
 90
2
 70
0
 10
629056.1769391475
 20
4832839.785200942
 10
629028.0733162258
 20
4832924.330053261
  0
LWPOLYLINE
  5
BF
330
17
100
AcDbEntity
  8
ROADS
100
AcDbPolyline
 90
2
 70
0
 10
628948.6744863783
 20
4832842.011785199
 10
628913.7961809717
 20
4832950.531793781
  0
LWPOLYLINE
  5
C0
330
17
100
AcDbEntity
  8
ROADS
100
AcDbPolyline
 90
2
 70
0
 10
628913.7961809717
 20
4832950.531793781
 10
628830.7108431165
 20
4832892.745566369
  0
LWPOLYLINE
  5
C1
330
17
100
AcDbEntity
  8
ROADS
100
AcDbPolyline
 90
2
 70
0
 10
629028.0733162258
 20
4832924.330053261
 10
629002.5778378074
 20
4833003.50766169
  0
LWPOLYLINE
  5
C2
330
17
100
AcDbEntity
  8
ROADS
100
AcDbPolyline
 90
2
 70
0
 10
629002.5778378074
 20
4833003.50766169
 10
628913.7961809717
 20
4832950.531793781
  0
LWPOLYLINE
  5
C3
330
17
100
AcDbEntity
  8
ROADS
100
AcDbPolyline
 90
2
 70
0
 10
629113.9157126748
 20
4833031.875500939
 10
629002.5778378074
 20
4833003.50766169
  0
LWPOLYLINE
  5
C4
330
17
100
AcDbEntity
  8
ROADS
100
AcDbPolyline
 90
2
 70
0
 10
628837.526874229
 20
4833041.797669059
 10
628859.8684427498
 20
4833056.181353755
  0
LWPOLYLINE
  5
C5
330
17
100
AcDbEntity
  8
ROADS
100
AcDbPolyline
 90
2
 70
0
 10
629272.0486758803
 20
4832923.175159097
 10
629255.9025796296
 20
4832932.361519815
  0
LWPOLYLINE
  5
C6
330
17
100
AcDbEntity
  8
ROADS
100
AcDbPolyline
 90
2
 70
0
 10
629255.9025796296
 20
4832932.361519815
 10
629147.069022519
 20
4832928.608619373
  0
LWPOLYLINE
  5
C7
330
17
100
AcDbEntity
  8
ROADS
100
AcDbPolyline
 90
3
 70
0
 10
629407.9652267662
 20
4832988.183140997
 10
629365.9533888719
 20
4832952.653546656
 10
629272.0486758803
 20
4832923.175159097
  0
LWPOLYLINE
  5
C8
330
17
100
AcDbEntity
  8
ROADS
100
AcDbPolyline
 90
2
 70
0
 10
629272.0486758803
 20
4832923.175159097
 10
629245.2532754622
 20
4833008.817274079
  0
LWPOLYLINE
  5
C9
330
17
100
AcDbEntity
  8
ROADS
100
AcDbPolyline
 90
2
 70
0
 10
629235.8051870696
 20
4833004.636259184
 10
629255.9025796296
 20
4832932.361519815
  0
LWPOLYLINE
  5
CA
330
17
100
AcDbEntity
  8
ROADS
100
AcDbPolyline
 90
2
 70
0
 10
629407.9652267662
 20
4832988.183140997
 10
629353.4369909986
 20
4832969.949551441
  0
LWPOLYLINE
  5
CB
330
17
100
AcDbEntity
  8
ROADS
100
AcDbPolyline
 90
2
 70
0
 10
629147.069022519
 20
4832928.608619373
 10
629113.9157126748
 20
4833031.875500939
  0
LWPOLYLINE
  5
CC
330
17
100
AcDbEntity
  8
ROADS
100
AcDbPolyline
 90
3
 70
0
 10
629353.4369909986
 20
4832969.949551441
 10
629301.9418751799
 20
4832950.005660617
 10
629262.1478969946
 20
4833014.988986714
  0
LWPOLYLINE
  5
CD
330
17
100
AcDbEntity
  8
ROADS
100
AcDbPolyline
 90
2
 70
0
 10
629353.4369909986
 20
4832969.949551441
 10
629327.2316897055
 20
4833035.582484083
  0
LWPOLYLINE
  5
CE
330
17
100
AcDbEntity
  8
ROADS
100
AcDbPolyline
 90
2
 70
0
 10
629312.3086429548
 20
4832985.41940176
 10
629285.4674968601
 20
4833021.960856849
  0
LWPOLYLINE
  5
CF
330
17
100
AcDbEntity
  8
ROADS
100
AcDbPolyline
 90
2
 70
0
 10
629245.2532754622
 20
4833008.817274079
 10
629235.8051870696
 20
4833004.636259184
  0
LWPOLYLINE
  5
D0
330
17
100
AcDbEntity
  8
ROADS
100
AcDbPolyline
 90
2
 70
0
 10
629262.1478969946
 20
4833014.988986714
 10
629245.2532754622
 20
4833008.817274079
  0
LWPOLYLINE
  5
D1
330
17
100
AcDbEntity
  8
ROADS
100
AcDbPolyline
 90
2
 70
0
 10
629285.4674968601
 20
4833021.960856849
 10
629262.1478969946
 20
4833014.988986714
  0
LWPOLYLINE
  5
D2
330
17
100
AcDbEntity
  8
ROADS
100
AcDbPolyline
 90
2
 70
0
 10
629327.2316897055
 20
4833035.582484083
 10
629285.4674968601
 20
4833021.960856849
  0
LWPOLYLINE
  5
D3
330
17
100
AcDbEntity
  8
ROADS
100
AcDbPolyline
 90
2
 70
0
 10
629245.2532754622
 20
4833008.817274079
 10
629230.7888385172
 20
4833062.68704954
  0
LWPOLYLINE
  5
D4
330
17
100
AcDbEntity
  8
ROADS
100
AcDbPolyline
 90
2
 70
0
 10
629214.7036095635
 20
4833070.331397818
 10
629235.8051870696
 20
4833004.636259184
  0
LWPOLYLINE
  5
D5
330
17
100
AcDbEntity
  8
ROADS
100
AcDbPolyline
 90
2
 70
0
 10
629262.1478969946
 20
4833014.988986714
 10
629230.7888385172
 20
4833062.68704954
  0
LWPOLYLINE
  5
D6
330
17
100
AcDbEntity
  8
ROADS
100
AcDbPolyline
 90
2
 70
0
 10
629285.4674968601
 20
4833021.960856849
 10
629250.1259391379
 20
4833071.663592209
  0
LWPOLYLINE
  5
D7
330
17
100
AcDbEntity
  8
ROADS
100
AcDbPolyline
 90
2
 70
0
 10
629407.0943303758
 20
4833061.553419223
 10
629327.2316897055
 20
4833035.582484083
  0
LWPOLYLINE
  5
D8
330
17
100
AcDbEntity
  8
ROADS
100
AcDbPolyline
 90
2
 70
0
 10
629214.7036095635
 20
4833070.331397818
 10
629113.9157126748
 20
4833031.875500939
  0
LWPOLYLINE
  5
D9
330
17
100
AcDbEntity
  8
ROADS
100
AcDbPolyline
 90
2
 70
0
 10
629682.3239448045
 20
4832983.32156922
 10
629583.049419771
 20
4832940.470691684
  0
LWPOLYLINE
  5
DA
330
17
100
AcDbEntity
  8
ROADS
100
AcDbPolyline
 90
3
 70
0
 10
629664.812406669
 20
4833036.575810875
 10
629471.3889991171
 20
4832986.001083007
 10
629370.406553031
 20
4832929.547773011
  0
LWPOLYLINE
  5
DB
330
17
100
AcDbEntity
  8
ROADS
100
AcDbPolyline
 90
2
 70
0
 10
629428.4073214702
 20
4832995.726053514
 10
629407.9652267662
 20
4832988.183140997
  0
LWPOLYLINE
  5
DC
330
17
100
AcDbEntity
  8
ROADS
100
AcDbPolyline
 90
2
 70
0
 10
629531.5834897978
 20
4833022.560332425
 10
629428.4073214702
 20
4832995.726053514
  0
LWPOLYLINE
  5
DD
330
17
100
AcDbEntity
  8
ROADS
100
AcDbPolyline
 90
2
 70
0
 10
629682.3239448045
 20
4832983.32156922
 10
629664.812406669
 20
4833036.575810875
  0
LWPOLYLINE
  5
DE
330
17
100
AcDbEntity
  8
ROADS
100
AcDbPolyline
 90
2
 70
0
 10
629428.4073214702
 20
4832995.726053514
 10
629407.0943303758
 20
4833061.553419223
  0
LWPOLYLINE
  5
DF
330
17
100
AcDbEntity
  8
ROADS
100
AcDbPolyline
 90
3
 70
0
 10
629664.812406669
 20
4833036.575810875
 10
629638.7876614069
 20
4833047.419279157
 10
629531.5834897978
 20
4833022.560332425
  0
LWPOLYLINE
  5
E0
330
17
100
AcDbEntity
  8
ROADS
100
AcDbPolyline
 90
2
 70
0
 10
629407.0943303758
 20
4833061.553419223
 10
629389.4304483806
 20
4833115.932937043
  0
LWPOLYLINE
  5
E1
330
17
100
AcDbEntity
  8
ROADS
100
AcDbPolyline
 90
3
 70
0
 10
629501.2325487288
 20
4833164.937649866
 10
629540.6864706415
 20
4833038.2569069
 10
629531.5834897978
 20
4833022.560332425
  0
LWPOLYLINE
  5
E2
330
17
100
AcDbEntity
  8
ROADS
100
AcDbPolyline
 90
2
 70
0
 10
629664.812406669
 20
4833036.575810875
 10
629615.5175815931
 20
4833206.818772522
  0
LWPOLYLINE
  5
E3
330
17
100
AcDbEntity
  8
ROADS
100
AcDbPolyline
 90
2
 70
0
 10
629327.2316897055
 20
4833035.582484083
 10
629308.9876791144
 20
4833096.026919705
  0
LWPOLYLINE
  5
E4
330
17
100
AcDbEntity
  8
ROADS
100
AcDbPolyline
 90
2
 70
0
 10
629230.7888385172
 20
4833062.68704954
 10
629214.7036095635
 20
4833070.331397818
  0
LWPOLYLINE
  5
E5
330
17
100
AcDbEntity
  8
ROADS
100
AcDbPolyline
 90
2
 70
0
 10
629250.1259391379
 20
4833071.663592209
 10
629230.7888385172
 20
4833062.68704954
  0
LWPOLYLINE
  5
E6
330
17
100
AcDbEntity
  8
ROADS
100
AcDbPolyline
 90
2
 70
0
 10
629308.9876791144
 20
4833096.026919705
 10
629250.1259391379
 20
4833071.663592209
  0
LWPOLYLINE
  5
E7
330
17
100
AcDbEntity
  8
ROADS
100
AcDbPolyline
 90
2
 70
0
 10
629113.9157126748
 20
4833031.875500939
 10
629086.637612787
 20
4833144.503163579
  0
LWPOLYLINE
  5
E8
330
17
100
AcDbEntity
  8
ROADS
100
AcDbPolyline
 90
2
 70
0
 10
629304.3446969681
 20
4833109.012901553
 10
629214.7036095635
 20
4833070.331397818
  0
LWPOLYLINE
  5
E9
330
17
100
AcDbEntity
  8
ROADS
100
AcDbPolyline
 90
2
 70
0
 10
629308.9876791144
 20
4833096.026919705
 10
629304.3446969681
 20
4833109.012901553
  0
LWPOLYLINE
  5
EA
330
17
100
AcDbEntity
  8
ROADS
100
AcDbPolyline
 90
2
 70
0
 10
629308.9876791144
 20
4833096.026919705
 10
629389.4304483806
 20
4833115.932937043
  0
LWPOLYLINE
  5
EB
330
17
100
AcDbEntity
  8
ROADS
100
AcDbPolyline
 90
2
 70
0
 10
629214.7036095635
 20
4833070.331397818
 10
629182.9192800826
 20
4833169.589754414
  0
LWPOLYLINE
  5
EC
330
17
100
AcDbEntity
  8
ROADS
100
AcDbPolyline
 90
2
 70
0
 10
629388.2299312407
 20
4833131.230287744
 10
629304.3446969681
 20
4833109.012901553
  0
LWPOLYLINE
  5
ED
330
17
100
AcDbEntity
  8
ROADS
100
AcDbPolyline
 90
3
 70
0
 10
628859.8684427498
 20
4833056.181353755
 10
628885.1144197045
 20
4833043.658727337
 10
628883.6985895957
 20
4833071.257986231
  0
LWPOLYLINE
  5
EE
330
17
100
AcDbEntity
  8
ROADS
100
AcDbPolyline
 90
2
 70
0
 10
628859.8684427498
 20
4833056.181353755
 10
628883.6985895957
 20
4833071.257986231
  0
LWPOLYLINE
  5
EF
330
17
100
AcDbEntity
  8
ROADS
100
AcDbPolyline
 90
3
 70
0
 10
628883.6985895957
 20
4833071.257986231
 10
628898.2730747298
 20
4833085.562312933
 10
628920.7663011118
 20
4833074.344030489
  0
LWPOLYLINE
  5
F0
330
17
100
AcDbEntity
  8
ROADS
100
AcDbPolyline
 90
2
 70
0
 10
629002.5778378074
 20
4833003.50766169
 10
628949.1504707884
 20
4833172.498527788
  0
LWPOLYLINE
  5
F1
330
17
100
AcDbEntity
  8
ROADS
100
AcDbPolyline
 90
2
 70
0
 10
628949.1504707884
 20
4833172.498527788
 10
628936.1870616322
 20
4833214.474077636
  0
LWPOLYLINE
  5
F2
330
17
100
AcDbEntity
  8
ROADS
100
AcDbPolyline
 90
2
 70
0
 10
629221.1368765051
 20
4833258.322399518
 10
628949.1504707884
 20
4833172.498527788
  0
LWPOLYLINE
  5
F3
330
17
100
AcDbEntity
  8
ROADS
100
AcDbPolyline
 90
2
 70
0
 10
629144.5526485797
 20
4833292.024708943
 10
628936.1870616322
 20
4833214.474077636
  0
LWPOLYLINE
  5
F4
330
17
100
AcDbEntity
  8
ROADS
100
AcDbPolyline
 90
2
 70
0
 10
628936.1870616322
 20
4833214.474077636
 10
628910.4717516402
 20
4833301.717210309
  0
LWPOLYLINE
  5
F5
330
17
100
AcDbEntity
  8
ROADS
100
AcDbPolyline
 90
2
 70
0
 10
628910.4717516402
 20
4833301.717210309
 10
628836.373038049
 20
4833278.905626269
  0
LWPOLYLINE
  5
F6
330
17
100
AcDbEntity
  8
ROADS
100
AcDbPolyline
 90
2
 70
0
 10
628910.4717516402
 20
4833301.717210309
 10
628897.9536399146
 20
4833343.621793022
  0
LWPOLYLINE
  5
F7
330
17
100
AcDbEntity
  8
ROADS
100
AcDbPolyline
 90
2
 70
0
 10
629389.4304483806
 20
4833115.932937043
 10
629388.2299312407
 20
4833131.230287744
  0
LWPOLYLINE
  5
F8
330
17
100
AcDbEntity
  8
ROADS
100
AcDbPolyline
 90
2
 70
0
 10
629182.9192800826
 20
4833169.589754414
 10
629086.637612787
 20
4833144.503163579
  0
LWPOLYLINE
  5
F9
330
17
100
AcDbEntity
  8
ROADS
100
AcDbPolyline
 90
3
 70
0
 10
629173.0310336992
 20
4833176.06850302
 10
629082.2137919986
 20
4833157.979129603
 10
629086.637612787
 20
4833144.503163579
  0
LWPOLYLINE
  5
FA
330
17
100
AcDbEntity
  8
ROADS
100
AcDbPolyline
 90
2
 70
0
 10
629182.9192800826
 20
4833169.589754414
 10
629173.0310336992
 20
4833176.06850302
  0
LWPOLYLINE
  5
FB
330
17
100
AcDbEntity
  8
ROADS
100
AcDbPolyline
 90
2
 70
0
 10
629405.2347032081
 20
4833134.184779656
 10
629371.2051091064
 20
4833239.562030402
  0
LWPOLYLINE
  5
FC
330
17
100
AcDbEntity
  8
ROADS
100
AcDbPolyline
 90
3
 70
0
 10
629232.9205169658
 20
4833223.136956523
 10
629114.9397674231
 20
4833191.913808033
 10
628949.1504707884
 20
4833172.498527788
  0
LWPOLYLINE
  5
FD
330
17
100
AcDbEntity
  8
ROADS
100
AcDbPolyline
 90
3
 70
0
 10
629173.0310336992
 20
4833176.06850302
 10
629238.4670156587
 20
4833205.034959238
 10
629232.9205169658
 20
4833223.136956523
  0
LWPOLYLINE
  5
FE
330
17
100
AcDbEntity
  8
ROADS
100
AcDbPolyline
 90
2
 70
0
 10
629371.2051091064
 20
4833239.562030402
 10
629182.9192800826
 20
4833169.589754414
  0
LWPOLYLINE
  5
FF
330
17
100
AcDbEntity
  8
ROADS
100
AcDbPolyline
 90
2
 70
0
 10
629367.9867468294
 20
4833249.530551373
 10
629173.0310336992
 20
4833176.06850302
  0
LWPOLYLINE
  5
100
330
17
100
AcDbEntity
  8
ROADS
100
AcDbPolyline
 90
2
 70
0
 10
629232.9205169658
 20
4833223.136956523
 10
629221.1368765051
 20
4833258.322399518
  0
LWPOLYLINE
  5
101
330
17
100
AcDbEntity
  8
ROADS
100
AcDbPolyline
 90
2
 70
0
 10
629405.2347032081
 20
4833134.184779656
 10
629388.2299312407
 20
4833131.230287744
  0
LWPOLYLINE
  5
102
330
17
100
AcDbEntity
  8
ROADS
100
AcDbPolyline
 90
2
 70
0
 10
629501.2325487288
 20
4833164.937649866
 10
629405.2347032081
 20
4833134.184779656
  0
LWPOLYLINE
  5
103
330
17
100
AcDbEntity
  8
ROADS
100
AcDbPolyline
 90
2
 70
0
 10
629615.5175815931
 20
4833206.818772522
 10
629501.2325487288
 20
4833164.937649866
  0
LWPOLYLINE
  5
104
330
17
100
AcDbEntity
  8
ROADS
100
AcDbPolyline
 90
2
 70
0
 10
629736.8563229593
 20
4833229.543063089
 10
629615.5175815931
 20
4833206.818772522
  0
LWPOLYLINE
  5
105
330
17
100
AcDbEntity
  8
ROADS
100
AcDbPolyline
 90
2
 70
0
 10
629470.3257956097
 20
4833283.615273364
 10
629501.2325487288
 20
4833164.937649866
  0
LWPOLYLINE
  5
106
330
17
100
AcDbEntity
  8
ROADS
100
AcDbPolyline
 90
2
 70
0
 10
629615.5175815931
 20
4833206.818772522
 10
629586.4492542337
 20
4833293.051420102
  0
LWPOLYLINE
  5
107
330
17
100
AcDbEntity
  8
ROADS
100
AcDbPolyline
 90
2
 70
0
 10
629470.3257956097
 20
4833283.615273364
 10
629367.9867468294
 20
4833249.530551373
  0
LWPOLYLINE
  5
108
330
17
100
AcDbEntity
  8
ROADS
100
AcDbPolyline
 90
2
 70
0
 10
629571.731731761
 20
4833339.174631935
 10
629232.9205169658
 20
4833223.136956523
  0
LWPOLYLINE
  5
109
330
17
100
AcDbEntity
  8
ROADS
100
AcDbPolyline
 90
2
 70
0
 10
629650.018916518
 20
4833312.680561452
 10
629657.4188992081
 20
4833277.349846966
  0
LWPOLYLINE
  5
10A
330
17
100
AcDbEntity
  8
ROADS
100
AcDbPolyline
 90
2
 70
0
 10
629580.5518865199
 20
4833311.531620236
 10
629470.3257956097
 20
4833283.615273364
  0
LWPOLYLINE
  5
10B
330
17
100
AcDbEntity
  8
ROADS
100
AcDbPolyline
 90
2
 70
0
 10
629367.9867468294
 20
4833249.530551373
 10
629371.2051091064
 20
4833239.562030402
  0
LWPOLYLINE
  5
10C
330
17
100
AcDbEntity
  8
ROADS
100
AcDbPolyline
 90
4
 70
0
 10
629221.1368765051
 20
4833258.322399518
 10
629205.1250168924
 20
4833305.235225485
 10
629140.1364936837
 20
4833280.230106215
 10
629144.5526485797
 20
4833292.024708943
  0
LWPOLYLINE
  5
10D
330
17
100
AcDbEntity
  8
ROADS
100
AcDbPolyline
 90
2
 70
0
 10
629246.7484009232
 20
4833332.208246951
 10
629144.5526485797
 20
4833292.024708943
  0
LWPOLYLINE
  5
10E
330
17
100
AcDbEntity
  8
ROADS
100
AcDbPolyline
 90
2
 70
0
 10
629556.7379740786
 20
4833384.368783884
 10
629221.1368765051
 20
4833258.322399518
  0
LWPOLYLINE
  5
10F
330
17
100
AcDbEntity
  8
ROADS
100
AcDbPolyline
 90
2
 70
0
 10
629144.5526485797
 20
4833292.024708943
 10
629107.929041747
 20
4833406.798618484
  0
LWPOLYLINE
  5
110
330
17
100
AcDbEntity
  8
ROADS
100
AcDbPolyline
 90
2
 70
0
 10
629536.2924964454
 20
4833447.067613839
 10
629246.7484009232
 20
4833332.208246951
  0
LWPOLYLINE
  5
111
330
17
100
AcDbEntity
  8
ROADS
100
AcDbPolyline
 90
2
 70
0
 10
629246.7484009232
 20
4833332.208246951
 10
629188.6742812194
 20
4833499.054065992
  0
LWPOLYLINE
  5
112
330
17
100
AcDbEntity
  8
ROADS
100
AcDbPolyline
 90
2
 70
0
 10
629069.9852694471
 20
4833427.588812981
 10
629107.929041747
 20
4833406.798618484
  0
LWPOLYLINE
  5
113
330
17
100
AcDbEntity
  8
ROADS
100
AcDbPolyline
 90
2
 70
0
 10
629107.929041747
 20
4833406.798618484
 10
629088.0252244972
 20
4833468.966115886
  0
LWPOLYLINE
  5
114
330
17
100
AcDbEntity
  8
ROADS
100
AcDbPolyline
 90
2
 70
0
 10
629188.6742812194
 20
4833499.054065992
 10
629088.0252244972
 20
4833468.966115886
  0
LWPOLYLINE
  5
115
330
17
100
AcDbEntity
  8
ROADS
100
AcDbPolyline
 90
2
 70
0
 10
629586.4492542337
 20
4833293.051420102
 10
629580.5518865199
 20
4833311.531620236
  0
LWPOLYLINE
  5
116
330
17
100
AcDbEntity
  8
ROADS
100
AcDbPolyline
 90
2
 70
0
 10
629586.4492542337
 20
4833293.051420102
 10
629650.018916518
 20
4833312.680561452
  0
LWPOLYLINE
  5
117
330
17
100
AcDbEntity
  8
ROADS
100
AcDbPolyline
 90
2
 70
0
 10
629650.018916518
 20
4833312.680561452
 10
629707.5156921423
 20
4833330.399332218
  0
LWPOLYLINE
  5
118
330
17
100
AcDbEntity
  8
ROADS
100
AcDbPolyline
 90
2
 70
0
 10
629580.5518865199
 20
4833311.531620236
 10
629571.731731761
 20
4833339.174631935
  0
LWPOLYLINE
  5
119
330
17
100
AcDbEntity
  8
ROADS
100
AcDbPolyline
 90
2
 70
0
 10
629704.7105236865
 20
4833350.927560768
 10
629580.5518865199
 20
4833311.531620236
  0
LWPOLYLINE
  5
11A
330
17
100
AcDbEntity
  8
ROADS
100
AcDbPolyline
 90
2
 70
0
 10
629707.5156921423
 20
4833330.399332218
 10
629704.7105236865
 20
4833350.927560768
  0
LWPOLYLINE
  5
11B
330
17
100
AcDbEntity
  8
ROADS
100
AcDbPolyline
 90
2
 70
0
 10
629571.731731761
 20
4833339.174631935
 10
629556.7379740786
 20
4833384.368783884
  0
LWPOLYLINE
  5
11C
330
17
100
AcDbEntity
  8
ROADS
100
AcDbPolyline
 90
2
 70
0
 10
629779.3897163043
 20
4833404.657855136
 10
629571.731731761
 20
4833339.174631935
  0
LWPOLYLINE
  5
11D
330
17
100
AcDbEntity
  8
ROADS
100
AcDbPolyline
 90
2
 70
0
 10
629778.35538221
 20
4833430.513959687
 10
629556.7379740786
 20
4833384.368783884
  0
LWPOLYLINE
  5
11E
330
17
100
AcDbEntity
  8
ROADS
100
AcDbPolyline
 90
2
 70
0
 10
629556.7379740786
 20
4833384.368783884
 10
629536.2924964454
 20
4833447.067613839
  0
LWPOLYLINE
  5
11F
330
17
100
AcDbEntity
  8
ROADS
100
AcDbPolyline
 90
2
 70
0
 10
628897.9536399146
 20
4833343.621793022
 10
628823.2339969933
 20
4833320.748975341
  0
LWPOLYLINE
  5
120
330
17
100
AcDbEntity
  8
ROADS
100
AcDbPolyline
 90
2
 70
0
 10
628947.158044158
 20
4833358.833007845
 10
628897.9536399146
 20
4833343.621793022
  0
LWPOLYLINE
  5
121
330
17
100
AcDbEntity
  8
ROADS
100
AcDbPolyline
 90
2
 70
0
 10
628996.3698025503
 20
4833373.748340055
 10
628947.158044158
 20
4833358.833007845
  0
LWPOLYLINE
  5
122
330
17
100
AcDbEntity
  8
ROADS
100
AcDbPolyline
 90
2
 70
0
 10
629008.952729227
 20
4833377.561989276
 10
628996.3698025503
 20
4833373.748340055
  0
LWPOLYLINE
  5
123
330
17
100
AcDbEntity
  8
ROADS
100
AcDbPolyline
 90
2
 70
0
 10
628947.158044158
 20
4833358.833007845
 10
628933.85238733
 20
4833400.930373833
  0
LWPOLYLINE
  5
124
330
17
100
AcDbEntity
  8
ROADS
100
AcDbPolyline
 90
2
 70
0
 10
628996.3698025503
 20
4833373.748340055
 10
629004.4809176904
 20
4833392.752197153
  0
LWPOLYLINE
  5
125
330
17
100
AcDbEntity
  8
ROADS
100
AcDbPolyline
 90
2
 70
0
 10
628897.9536399146
 20
4833343.621793022
 10
628873.2085818632
 20
4833423.769966637
  0
LWPOLYLINE
  5
126
330
17
100
AcDbEntity
  8
ROADS
100
AcDbPolyline
 90
2
 70
0
 10
629008.952729227
 20
4833377.561989276
 10
629004.4809176904
 20
4833392.752197153
  0
LWPOLYLINE
  5
127
330
17
100
AcDbEntity
  8
ROADS
100
AcDbPolyline
 90
2
 70
0
 10
629107.929041747
 20
4833406.798618484
 10
629008.952729227
 20
4833377.561989276
  0
LWPOLYLINE
  5
128
330
17
100
AcDbEntity
  8
ROADS
100
AcDbPolyline
 90
2
 70
0
 10
629004.4809176904
 20
4833392.752197153
 10
629016.2121418269
 20
4833410.601398941
  0
LWPOLYLINE
  5
129
330
17
100
AcDbEntity
  8
ROADS
100
AcDbPolyline
 90
2
 70
0
 10
629004.4809176904
 20
4833392.752197153
 10
629001.3855711903
 20
4833412.348575592
  0
LWPOLYLINE
  5
12A
330
17
100
AcDbEntity
  8
ROADS
100
AcDbPolyline
 90
2
 70
0
 10
629016.2121418269
 20
4833410.601398941
 10
629001.3855711903
 20
4833412.348575592
  0
LWPOLYLINE
  5
12B
330
17
100
AcDbEntity
  8
ROADS
100
AcDbPolyline
 90
2
 70
0
 10
629001.3855711903
 20
4833412.348575592
 10
628984.0306752024
 20
4833414.21506903
  0
LWPOLYLINE
  5
12C
330
17
100
AcDbEntity
  8
ROADS
100
AcDbPolyline
 90
3
 70
0
 10
629016.2121418269
 20
4833410.601398941
 10
629067.3624723422
 20
4833404.299345567
 10
629069.9852694471
 20
4833427.588812981
  0
LWPOLYLINE
  5
12D
330
17
100
AcDbEntity
  8
ROADS
100
AcDbPolyline
 90
2
 70
0
 10
629016.2121418269
 20
4833410.601398941
 10
629028.0924807573
 20
4833423.021931666
  0
LWPOLYLINE
  5
12E
330
17
100
AcDbEntity
  8
ROADS
100
AcDbPolyline
 90
3
 70
0
 10
628933.85238733
 20
4833400.930373833
 10
628960.119886832
 20
4833413.339902487
 10
628957.2639703153
 20
4833434.57338145
  0
LWPOLYLINE
  5
12F
330
17
100
AcDbEntity
  8
ROADS
100
AcDbPolyline
 90
2
 70
0
 10
629001.3855711903
 20
4833412.348575592
 10
628994.3468589514
 20
4833425.808278206
  0
LWPOLYLINE
  5
130
330
17
100
AcDbEntity
  8
ROADS
100
AcDbPolyline
 90
2
 70
0
 10
628933.85238733
 20
4833400.930373833
 10
628921.5348928414
 20
4833440.08939771
  0
LWPOLYLINE
  5
131
330
17
100
AcDbEntity
  8
ROADS
100
AcDbPolyline
 90
2
 70
0
 10
629028.0924807573
 20
4833423.021931666
 10
628994.3468589514
 20
4833425.808278206
  0
LWPOLYLINE
  5
132
330
17
100
AcDbEntity
  8
ROADS
100
AcDbPolyline
 90
2
 70
0
 10
629041.8523670143
 20
4833428.280950005
 10
629028.0924807573
 20
4833423.021931666
  0
LWPOLYLINE
  5
133
330
17
100
AcDbEntity
  8
ROADS
100
AcDbPolyline
 90
2
 70
0
 10
629069.9852694471
 20
4833427.588812981
 10
629041.8523670143
 20
4833428.280950005
  0
LWPOLYLINE
  5
134
330
17
100
AcDbEntity
  8
ROADS
100
AcDbPolyline
 90
2
 70
0
 10
628921.5348928414
 20
4833440.08939771
 10
628873.2085818632
 20
4833423.769966637
  0
LWPOLYLINE
  5
135
330
17
100
AcDbEntity
  8
ROADS
100
AcDbPolyline
 90
2
 70
0
 10
628957.2639703153
 20
4833434.57338145
 10
628973.0978458581
 20
4833429.93554921
  0
LWPOLYLINE
  5
136
330
17
100
AcDbEntity
  8
ROADS
100
AcDbPolyline
 90
2
 70
0
 10
629069.9852694471
 20
4833427.588812981
 10
629060.4048830026
 20
4833445.143361346
  0
LWPOLYLINE
  5
137
330
17
100
AcDbEntity
  8
ROADS
100
AcDbPolyline
 90
2
 70
0
 10
629041.8523670143
 20
4833428.280950005
 10
629060.4048830026
 20
4833445.143361346
  0
LWPOLYLINE
  5
138
330
17
100
AcDbEntity
  8
ROADS
100
AcDbPolyline
 90
2
 70
0
 10
628994.3468589514
 20
4833425.808278206
 10
628965.4108348513
 20
4833447.836165592
  0
LWPOLYLINE
  5
139
330
17
100
AcDbEntity
  8
ROADS
100
AcDbPolyline
 90
2
 70
0
 10
628994.3468589514
 20
4833425.808278206
 10
628985.3606008525
 20
4833456.057411712
  0
LWPOLYLINE
  5
13A
330
17
100
AcDbEntity
  8
ROADS
100
AcDbPolyline
 90
2
 70
0
 10
628965.4108348513
 20
4833447.836165592
 10
628957.2639703153
 20
4833434.57338145
  0
LWPOLYLINE
  5
13B
330
17
100
AcDbEntity
  8
ROADS
100
AcDbPolyline
 90
2
 70
0
 10
628965.4108348513
 20
4833447.836165592
 10
628921.5348928414
 20
4833440.08939771
  0
LWPOLYLINE
  5
13C
330
17
100
AcDbEntity
  8
ROADS
100
AcDbPolyline
 90
2
 70
0
 10
629060.4048830026
 20
4833445.143361346
 10
628985.3606008525
 20
4833456.057411712
  0
LWPOLYLINE
  5
13D
330
17
100
AcDbEntity
  8
ROADS
100
AcDbPolyline
 90
2
 70
0
 10
628985.3606008525
 20
4833456.057411712
 10
628965.4108348513
 20
4833447.836165592
  0
LWPOLYLINE
  5
13E
330
17
100
AcDbEntity
  8
ROADS
100
AcDbPolyline
 90
2
 70
0
 10
628873.2085818632
 20
4833423.769966637
 10
628852.3429723755
 20
4833484.428937347
  0
LWPOLYLINE
  5
13F
330
17
100
AcDbEntity
  8
ROADS
100
AcDbPolyline
 90
2
 70
0
 10
629060.4048830026
 20
4833445.143361346
 10
629081.6715853367
 20
4833487.791563119
  0
LWPOLYLINE
  5
140
330
17
100
AcDbEntity
  8
ROADS
100
AcDbPolyline
 90
2
 70
0
 10
629081.6715853367
 20
4833487.791563119
 10
628985.3606008525
 20
4833456.057411712
  0
LWPOLYLINE
  5
141
330
17
100
AcDbEntity
  8
ROADS
100
AcDbPolyline
 90
2
 70
0
 10
629088.0252244972
 20
4833468.966115886
 10
629081.6715853367
 20
4833487.791563119
  0
LWPOLYLINE
  5
142
330
17
100
AcDbEntity
  8
ROADS
100
AcDbPolyline
 90
2
 70
0
 10
629081.6715853367
 20
4833487.791563119
 10
629069.3739877283
 20
4833524.852819533
  0
LWPOLYLINE
  5
143
330
17
100
AcDbEntity
  8
ROADS
100
AcDbPolyline
 90
2
 70
0
 10
629061.8369680241
 20
4833547.568140625
 10
628852.3429723755
 20
4833484.428937347
  0
LWPOLYLINE
  5
144
330
17
100
AcDbEntity
  8
ROADS
100
AcDbPolyline
 90
2
 70
0
 10
628852.3429723755
 20
4833484.428937347
 10
628825.8701668284
 20
4833565.274412623
  0
LWPOLYLINE
  5
145
330
17
100
AcDbEntity
  8
ROADS
100
AcDbPolyline
 90
2
 70
0
 10
629069.3739877283
 20
4833524.852819533
 10
629061.8369680241
 20
4833547.568140625
  0
LWPOLYLINE
  5
146
330
17
100
AcDbEntity
  8
ROADS
100
AcDbPolyline
 90
2
 70
0
 10
629061.8369680241
 20
4833547.568140625
 10
629050.5786303944
 20
4833585.393225862
  0
LWPOLYLINE
  5
147
330
17
100
AcDbEntity
  8
ROADS
100
AcDbPolyline
 90
2
 70
0
 10
629748.0091519793
 20
4833526.969246176
 10
629536.2924964454
 20
4833447.067613839
  0
LWPOLYLINE
  5
148
330
17
100
AcDbEntity
  8
ROADS
100
AcDbPolyline
 90
2
 70
0
 10
629536.2924964454
 20
4833447.067613839
 10
629505.1509728531
 20
4833541.102290238
  0
LWPOLYLINE
  5
149
330
17
100
AcDbEntity
  8
ROADS
100
AcDbPolyline
 90
2
 70
0
 10
629505.1509728531
 20
4833541.102290238
 10
629531.0602111107
 20
4833549.045068645
  0
LWPOLYLINE
  5
14A
330
17
100
AcDbEntity
  8
ROADS
100
AcDbPolyline
 90
2
 70
0
 10
629505.1509728531
 20
4833541.102290238
 10
629492.546889592
 20
4833590.08487124
  0
LWPOLYLINE
  5
14B
330
17
100
AcDbEntity
  8
ROADS
100
AcDbPolyline
 90
3
 70
0
 10
629531.0602111107
 20
4833549.045068645
 10
629599.2817815292
 20
4833568.972345927
 10
629612.2813900685
 20
4833585.920445543
  0
LWPOLYLINE
  5
14C
330
17
100
AcDbEntity
  8
ROADS
100
AcDbPolyline
 90
2
 70
0
 10
629531.0602111107
 20
4833549.045068645
 10
629538.6416992184
 20
4833596.855370003
  0
LWPOLYLINE
  5
14D
330
17
100
AcDbEntity
  8
ROADS
100
AcDbPolyline
 90
2
 70
0
 10
629492.546889592
 20
4833590.08487124
 10
629443.4395095411
 20
4833576.639473382
  0
LWPOLYLINE
  5
14E
330
17
100
AcDbEntity
  8
ROADS
100
AcDbPolyline
 90
2
 70
0
 10
629612.2813900685
 20
4833585.920445543
 10
629558.1502251134
 20
4833601.327239545
  0
LWPOLYLINE
  5
14F
330
17
100
AcDbEntity
  8
ROADS
100
AcDbPolyline
 90
2
 70
0
 10
629538.6416992184
 20
4833596.855370003
 10
629558.1502251134
 20
4833601.327239545
  0
LWPOLYLINE
  5
150
330
17
100
AcDbEntity
  8
ROADS
100
AcDbPolyline
 90
2
 70
0
 10
629443.4395095411
 20
4833576.639473382
 10
629428.1724334084
 20
4833627.880072333
  0
LWPOLYLINE
  5
151
330
17
100
AcDbEntity
  8
ROADS
100
AcDbPolyline
 90
2
 70
0
 10
629492.546889592
 20
4833590.08487124
 10
629483.9613616312
 20
4833617.637602758
  0
LWPOLYLINE
  5
152
330
17
100
AcDbEntity
  8
ROADS
100
AcDbPolyline
 90
2
 70
0
 10
629538.6416992184
 20
4833596.855370003
 10
629539.804956719
 20
4833614.773625113
  0
LWPOLYLINE
  5
153
330
17
100
AcDbEntity
  8
ROADS
100
AcDbPolyline
 90
2
 70
0
 10
629558.1502251134
 20
4833601.327239545
 10
629553.786895847
 20
4833618.537569128
  0
LWPOLYLINE
  5
154
330
17
100
AcDbEntity
  8
ROADS
100
AcDbPolyline
 90
2
 70
0
 10
629612.2813900685
 20
4833585.920445543
 10
629596.0461252334
 20
4833640.570307642
  0
LWPOLYLINE
  5
155
330
17
100
AcDbEntity
  8
ROADS
100
AcDbPolyline
 90
2
 70
0
 10
629539.804956719
 20
4833614.773625113
 10
629553.786895847
 20
4833618.537569128
  0
LWPOLYLINE
  5
156
330
17
100
AcDbEntity
  8
ROADS
100
AcDbPolyline
 90
2
 70
0
 10
629539.804956719
 20
4833614.773625113
 10
629517.7228001858
 20
4833625.654298807
  0
LWPOLYLINE
  5
157
330
17
100
AcDbEntity
  8
ROADS
100
AcDbPolyline
 90
2
 70
0
 10
629517.7228001858
 20
4833625.654298807
 10
629483.9613616312
 20
4833617.637602758
  0
LWPOLYLINE
  5
158
330
17
100
AcDbEntity
  8
ROADS
100
AcDbPolyline
 90
2
 70
0
 10
629483.9613616312
 20
4833617.637602758
 10
629479.3160849425
 20
4833631.800623823
  0
LWPOLYLINE
  5
159
330
17
100
AcDbEntity
  8
ROADS
100
AcDbPolyline
 90
2
 70
0
 10
629553.786895847
 20
4833618.537569128
 10
629566.2624808911
 20
4833638.4174000295
  0
LWPOLYLINE
  5
15A
330
17
100
AcDbEntity
  8
ROADS
100
AcDbPolyline
 90
2
 70
0
 10
629517.7228001858
 20
4833625.654298807
 10
629496.616923202
 20
4833636.412606277
  0
LWPOLYLINE
  5
15B
330
17
100
AcDbEntity
  8
ROADS
100
AcDbPolyline
 90
4
 70
0
 10
629958.1931617755
 20
4833593.516343841
 10
629938.8060170296
 20
4833553.332164621
 10
629959.9526328893
 20
4833530.822083917
 10
629961.2154237118
 20
4833501.43751376
  0
LWPOLYLINE
  5
15C
330
17
100
AcDbEntity
  8
ROADS
100
AcDbPolyline
 90
2
 70
0
 10
629748.0091519793
 20
4833526.969246176
 10
629719.1553924344
 20
4833623.347482623
  0
LWPOLYLINE
  5
15D
330
17
100
AcDbEntity
  8
ROADS
100
AcDbPolyline
 90
2
 70
0
 10
629958.1931617755
 20
4833593.516343841
 10
629852.1070539297
 20
4833560.409831
  0
LWPOLYLINE
  5
15E
330
17
100
AcDbEntity
  8
ROADS
100
AcDbPolyline
 90
2
 70
0
 10
629852.1070539297
 20
4833560.409831
 10
629821.6656677162
 20
4833655.266296643
  0
LWPOLYLINE
  5
15F
330
17
100
AcDbEntity
  8
ROADS
100
AcDbPolyline
 90
2
 70
0
 10
629821.6656677162
 20
4833655.266296643
 10
629719.1553924344
 20
4833623.347482623
  0
LWPOLYLINE
  5
160
330
17
100
AcDbEntity
  8
ROADS
100
AcDbPolyline
 90
2
 70
0
 10
629719.1553924344
 20
4833623.347482623
 10
629705.7817483945
 20
4833670.697071126
  0
LWPOLYLINE
  5
161
330
17
100
AcDbEntity
  8
ROADS
100
AcDbPolyline
 90
2
 70
0
 10
629958.1931617755
 20
4833593.516343841
 10
629912.741097529
 20
4833737.04395931
  0
LWPOLYLINE
  5
162
330
17
100
AcDbEntity
  8
ROADS
100
AcDbPolyline
 90
2
 70
0
 10
629821.6656677162
 20
4833655.266296643
 10
629805.8637207989
 20
4833704.504144388
  0
LWPOLYLINE
  5
163
330
17
100
AcDbEntity
  8
ROADS
100
AcDbPolyline
 90
2
 70
0
 10
629805.8637207989
 20
4833704.504144388
 10
629705.7817483945
 20
4833670.697071126
  0
LWPOLYLINE
  5
164
330
17
100
AcDbEntity
  8
ROADS
100
AcDbPolyline
 90
2
 70
0
 10
629912.741097529
 20
4833737.04395931
 10
629805.8637207989
 20
4833704.504144388
  0
LWPOLYLINE
  5
165
330
17
100
AcDbEntity
  8
ROADS
100
AcDbPolyline
 90
2
 70
0
 10
630448.3883246183
 20
4833102.161100479
 10
630310.792563733
 20
4833070.062371909
  0
LWPOLYLINE
  5
166
330
17
100
AcDbEntity
  8
ROADS
100
AcDbPolyline
 90
2
 70
0
 10
630310.792563733
 20
4833070.062371909
 10
630291.6123294011
 20
4833110.341633672
  0
LWPOLYLINE
  5
167
330
17
100
AcDbEntity
  8
ROADS
100
AcDbPolyline
 90
2
 70
0
 10
630282.2884122737
 20
4833094.861045302
 10
630291.6123294011
 20
4833110.341633672
  0
LWPOLYLINE
  5
168
330
17
100
AcDbEntity
  8
ROADS
100
AcDbPolyline
 90
2
 70
0
 10
630112.5029471676
 20
4833103.906547435
 10
630105.1396163749
 20
4833124.896965593
  0
LWPOLYLINE
  5
169
330
17
100
AcDbEntity
  8
ROADS
100
AcDbPolyline
 90
2
 70
0
 10
630112.5029471676
 20
4833103.906547435
 10
630297.9121946953
 20
4833130.1848858725
  0
LWPOLYLINE
  5
16A
330
17
100
AcDbEntity
  8
ROADS
100
AcDbPolyline
 90
2
 70
0
 10
630291.6123294011
 20
4833110.341633672
 10
630297.9121946953
 20
4833130.1848858725
  0
LWPOLYLINE
  5
16B
330
17
100
AcDbEntity
  8
ROADS
100
AcDbPolyline
 90
2
 70
0
 10
630105.1396163749
 20
4833124.896965593
 10
630098.2712058418
 20
4833145.672311343
  0
LWPOLYLINE
  5
16C
330
17
100
AcDbEntity
  8
ROADS
100
AcDbPolyline
 90
2
 70
0
 10
630190.5746688283
 20
4833170.411058979
 10
630105.1396163749
 20
4833124.896965593
  0
LWPOLYLINE
  5
16D
330
17
100
AcDbEntity
  8
ROADS
100
AcDbPolyline
 90
3
 70
0
 10
630407.9516447716
 20
4833197.127824803
 10
630227.3119722863
 20
4833124.441679462
 10
630112.5029471676
 20
4833103.906547435
  0
LWPOLYLINE
  5
16E
330
17
100
AcDbEntity
  8
ROADS
100
AcDbPolyline
 90
2
 70
0
 10
630190.5746688283
 20
4833170.411058979
 10
630098.2712058418
 20
4833145.672311343
  0
LWPOLYLINE
  5
16F
330
17
100
AcDbEntity
  8
ROADS
100
AcDbPolyline
 90
2
 70
0
 10
630468.7671040008
 20
4833108.39545925
 10
630448.3883246183
 20
4833102.161100479
  0
LWPOLYLINE
  5
170
330
17
100
AcDbEntity
  8
ROADS
100
AcDbPolyline
 90
2
 70
0
 10
630448.3883246183
 20
4833102.161100479
 10
630407.9516447716
 20
4833197.127824803
  0
LWPOLYLINE
  5
171
330
17
100
AcDbEntity
  8
ROADS
100
AcDbPolyline
 90
2
 70
0
 10
630468.9850166356
 20
4833106.990773331
 10
630448.3883246183
 20
4833102.161100479
  0
LWPOLYLINE
  5
172
330
17
100
AcDbEntity
  8
ROADS
100
AcDbPolyline
 90
2
 70
0
 10
630407.9516447716
 20
4833197.127824803
 10
630398.4712396356
 20
4833219.911796522
  0
LWPOLYLINE
  5
173
330
17
100
AcDbEntity
  8
ROADS
100
AcDbPolyline
 90
2
 70
0
 10
630445.2099932104
 20
4833220.909979762
 10
630407.9516447716
 20
4833197.127824803
  0
LWPOLYLINE
  5
174
330
17
100
AcDbEntity
  8
ROADS
100
AcDbPolyline
 90
2
 70
0
 10
630446.4340495879
 20
4833216.208897469
 10
630407.9516447716
 20
4833197.127824803
  0
LWPOLYLINE
  5
175
330
17
100
AcDbEntity
  8
ROADS
100
AcDbPolyline
 90
2
 70
0
 10
630443.7779031073
 20
4833226.410031514
 10
630398.4712396356
 20
4833219.911796522
  0
LWPOLYLINE
  5
176
330
17
100
AcDbEntity
  8
ROADS
100
AcDbPolyline
 90
2
 70
0
 10
630407.9516447716
 20
4833197.127824803
 10
630447.7877606848
 20
4833211.009866294
  0
LWPOLYLINE
  5
177
330
17
100
AcDbEntity
  8
ROADS
100
AcDbPolyline
 90
3
 70
0
 10
630297.9121946953
 20
4833130.1848858725
 10
630387.6239794481
 20
4833166.021600388
 10
630407.9516447716
 20
4833197.127824803
  0
LWPOLYLINE
  5
178
330
17
100
AcDbEntity
  8
ROADS
100
AcDbPolyline
 90
3
 70
0
 10
630398.4712396356
 20
4833219.911796522
 10
630304.965202579
 20
4833185.605276167
 10
630190.5746688283
 20
4833170.411058979
  0
LWPOLYLINE
  5
179
330
17
100
AcDbEntity
  8
ROADS
100
AcDbPolyline
 90
2
 70
0
 10
630098.2712058418
 20
4833145.672311343
 10
630048.9754744578
 20
4833247.839677593
  0
LWPOLYLINE
  5
17A
330
17
100
AcDbEntity
  8
ROADS
100
AcDbPolyline
 90
2
 70
0
 10
630398.4712396356
 20
4833219.911796522
 10
630365.4001466151
 20
4833335.809089684
  0
LWPOLYLINE
  5
17B
330
17
100
AcDbEntity
  8
ROADS
100
AcDbPolyline
 90
3
 70
0
 10
630302.3911269223
 20
4833413.474948058
 10
630147.9380776135
 20
4833356.70672645
 10
630048.9754744578
 20
4833247.839677593
  0
LWPOLYLINE
  5
17C
330
17
100
AcDbEntity
  8
ROADS
100
AcDbPolyline
 90
2
 70
0
 10
630365.4001466151
 20
4833335.809089684
 10
630337.1686024105
 20
4833423.9331768295
  0
LWPOLYLINE
  5
17D
330
17
100
AcDbEntity
  8
ROADS
100
AcDbPolyline
 90
2
 70
0
 10
630337.1686024105
 20
4833423.9331768295
 10
630302.3911269223
 20
4833413.474948058
  0
LWPOLYLINE
  5
17E
330
17
100
AcDbEntity
  8
ROADS
100
AcDbPolyline
 90
2
 70
0
 10
630302.3911269223
 20
4833413.474948058
 10
630294.6264559746
 20
4833430.690850728
  0
LWPOLYLINE
  5
17F
330
17
100
AcDbEntity
  8
ROADS
100
AcDbPolyline
 90
2
 70
0
 10
630337.1686024105
 20
4833423.9331768295
 10
630306.2587174709
 20
4833440.903790642
  0
LWPOLYLINE
  5
180
330
17
100
AcDbEntity
  8
ROADS
100
AcDbPolyline
 90
2
 70
0
 10
630294.6264559746
 20
4833430.690850728
 10
630306.2587174709
 20
4833440.903790642
  0
LWPOLYLINE
  5
181
330
17
100
AcDbEntity
  8
ROADS
100
AcDbPolyline
 90
2
 70
0
 10
630365.4001466151
 20
4833335.809089684
 10
630405.9921635047
 20
4833348.896781246
  0
LWPOLYLINE
  5
182
330
17
100
AcDbEntity
  8
ROADS
100
AcDbPolyline
 90
2
 70
0
 10
630048.9754744578
 20
4833247.839677593
 10
629951.3987763845
 20
4833197.474831876
  0
LWPOLYLINE
  5
183
330
17
100
AcDbEntity
  8
ROADS
100
AcDbPolyline
 90
2
 70
0
 10
629736.8563229593
 20
4833229.543063089
 10
629707.5156921423
 20
4833330.399332218
  0
LWPOLYLINE
  5
184
330
17
100
AcDbEntity
  8
ROADS
100
AcDbPolyline
 90
2
 70
0
 10
629707.5156921423
 20
4833330.399332218
 10
629744.1507600487
 20
4833341.658659734
  0
LWPOLYLINE
  5
185
330
17
100
AcDbEntity
  8
ROADS
100
AcDbPolyline
 90
3
 70
0
 10
629744.1507600487
 20
4833341.658659734
 10
629764.8597151928
 20
4833374.444176584
 10
629704.7105236865
 20
4833350.927560768
  0
LWPOLYLINE
  5
186
330
17
100
AcDbEntity
  8
ROADS
100
AcDbPolyline
 90
3
 70
0
 10
629744.1507600487
 20
4833341.658659734
 10
629773.683573142
 20
4833360.430663525
 10
629779.3897163043
 20
4833404.657855136
  0
LWPOLYLINE
  5
187
330
17
100
AcDbEntity
  8
ROADS
100
AcDbPolyline
 90
2
 70
0
 10
629779.3897163043
 20
4833404.657855136
 10
629778.35538221
 20
4833430.513959687
  0
LWPOLYLINE
  5
188
330
17
100
AcDbEntity
  8
ROADS
100
AcDbPolyline
 90
3
 70
0
 10
630298.7304396651
 20
4833539.274730088
 10
629972.0627652332
 20
4833466.655108575
 10
629779.3897163043
 20
4833404.657855136
  0
LWPOLYLINE
  5
189
330
17
100
AcDbEntity
  8
ROADS
100
AcDbPolyline
 90
2
 70
0
 10
629778.35538221
 20
4833430.513959687
 10
629748.0091519793
 20
4833526.969246176
  0
LWPOLYLINE
  5
18A
330
17
100
AcDbEntity
  8
ROADS
100
AcDbPolyline
 90
2
 70
0
 10
630284.4925769352
 20
4833581.6524325395
 10
629778.35538221
 20
4833430.513959687
  0
LWPOLYLINE
  5
18B
330
17
100
AcDbEntity
  8
ROADS
100
AcDbPolyline
 90
2
 70
0
 10
629852.1070539297
 20
4833560.409831
 10
629748.0091519793
 20
4833526.969246176
  0
LWPOLYLINE
  5
18C
330
17
100
AcDbEntity
  8
ROADS
100
AcDbPolyline
 90
2
 70
0
 10
630272.1143990441
 20
4833445.546074695
 10
630294.6264559746
 20
4833430.690850728
  0
LWPOLYLINE
  5
18D
330
17
100
AcDbEntity
  8
ROADS
100
AcDbPolyline
 90
2
 70
0
 10
630272.1143990441
 20
4833445.546074695
 10
630283.4202735563
 20
4833446.26144183
  0
LWPOLYLINE
  5
18E
330
17
100
AcDbEntity
  8
ROADS
100
AcDbPolyline
 90
2
 70
0
 10
630306.2587174709
 20
4833440.903790642
 10
630307.5278370634
 20
4833452.273533732
  0
LWPOLYLINE
  5
18F
330
17
100
AcDbEntity
  8
ROADS
100
AcDbPolyline
 90
2
 70
0
 10
630337.1686024105
 20
4833423.9331768295
 10
630322.2352202436
 20
4833473.143805422
  0
LWPOLYLINE
  5
190
330
17
100
AcDbEntity
  8
ROADS
100
AcDbPolyline
 90
2
 70
0
 10
630272.1143990441
 20
4833445.546074695
 10
630258.789649757
 20
4833453.060806747
  0
LWPOLYLINE
  5
191
330
17
100
AcDbEntity
  8
ROADS
100
AcDbPolyline
 90
2
 70
0
 10
630272.1143990441
 20
4833445.546074695
 10
630289.1627611206
 20
4833466.343644348
  0
LWPOLYLINE
  5
192
330
17
100
AcDbEntity
  8
ROADS
100
AcDbPolyline
 90
2
 70
0
 10
630307.5278370634
 20
4833452.273533732
 10
630289.1627611206
 20
4833466.343644348
  0
LWPOLYLINE
  5
193
330
17
100
AcDbEntity
  8
ROADS
100
AcDbPolyline
 90
2
 70
0
 10
630291.0952926058
 20
4833456.416863658
 10
630289.1627611206
 20
4833466.343644348
  0
LWPOLYLINE
  5
194
330
17
100
AcDbEntity
  8
ROADS
100
AcDbPolyline
 90
2
 70
0
 10
630307.5278370634
 20
4833452.273533732
 10
630322.2352202436
 20
4833473.143805422
  0
LWPOLYLINE
  5
195
330
17
100
AcDbEntity
  8
ROADS
100
AcDbPolyline
 90
2
 70
0
 10
630322.2352202436
 20
4833473.143805422
 10
630298.7304396651
 20
4833539.274730088
  0
LWPOLYLINE
  5
196
330
17
100
AcDbEntity
  8
ROADS
100
AcDbPolyline
 90
2
 70
0
 10
630378.4717829376
 20
4833436.272583761
 10
630337.1686024105
 20
4833423.9331768295
  0
LWPOLYLINE
  5
197
330
17
100
AcDbEntity
  8
ROADS
100
AcDbPolyline
 90
2
 70
0
 10
630342.986417767
 20
4833548.936805528
 10
630298.7304396651
 20
4833539.274730088
  0
LWPOLYLINE
  5
198
330
17
100
AcDbEntity
  8
ROADS
100
AcDbPolyline
 90
2
 70
0
 10
630298.7304396651
 20
4833539.274730088
 10
630284.4925769352
 20
4833581.6524325395
  0
LWPOLYLINE
  5
199
330
17
100
AcDbEntity
  8
ROADS
100
AcDbPolyline
 90
2
 70
0
 10
630284.4925769352
 20
4833581.6524325395
 10
630268.2270186085
 20
4833632.471085427
  0
LWPOLYLINE
  5
19A
330
17
100
AcDbEntity
  8
ROADS
100
AcDbPolyline
 90
2
 70
0
 10
630327.5775979835
 20
4833597.859021232
 10
630284.4925769352
 20
4833581.6524325395
  0
LWPOLYLINE
  5
19B
330
17
100
AcDbEntity
  8
ROADS
100
AcDbPolyline
 90
2
 70
0
 10
630250.8070766159
 20
4833685.630036945
 10
629958.1931617755
 20
4833593.516343841
  0
LWPOLYLINE
  5
19C
330
17
100
AcDbEntity
  8
ROADS
100
AcDbPolyline
 90
2
 70
0
 10
630268.2270186085
 20
4833632.471085427
 10
630250.8070766159
 20
4833685.630036945
  0
LWPOLYLINE
  5
19D
330
17
100
AcDbEntity
  8
ROADS
100
AcDbPolyline
 90
2
 70
0
 10
630312.3492180982
 20
4833646.208349478
 10
630268.2270186085
 20
4833632.471085427
  0
LWPOLYLINE
  5
19E
330
17
100
AcDbEntity
  8
ROADS
100
AcDbPolyline
 90
2
 70
0
 10
630295.0096528201
 20
4833699.228771632
 10
630250.8070766159
 20
4833685.630036945
  0
LWPOLYLINE
  5
19F
330
17
100
AcDbEntity
  8
ROADS
100
AcDbPolyline
 90
2
 70
0
 10
630250.8070766159
 20
4833685.630036945
 10
630206.7459023762
 20
4833829.330915879
  0
LWPOLYLINE
  5
1A0
330
17
100
AcDbEntity
  8
ROADS
100
AcDbPolyline
 90
2
 70
0
 10
629050.5786303944
 20
4833585.393225862
 10
628949.0552767168
 20
4833556.040510339
  0
LWPOLYLINE
  5
1A1
330
17
100
AcDbEntity
  8
ROADS
100
AcDbPolyline
 90
2
 70
0
 10
628977.177829868
 20
4833608.681276394
 10
628825.8701668284
 20
4833565.274412623
  0
LWPOLYLINE
  5
1A2
330
17
100
AcDbEntity
  8
ROADS
100
AcDbPolyline
 90
2
 70
0
 10
629050.5786303944
 20
4833585.393225862
 10
629118.9319515676
 20
4833606.1039176285
  0
LWPOLYLINE
  5
1A3
330
17
100
AcDbEntity
  8
ROADS
100
AcDbPolyline
 90
2
 70
0
 10
629050.5786303944
 20
4833585.393225862
 10
629038.0255238691
 20
4833626.797150031
  0
LWPOLYLINE
  5
1A4
330
17
100
AcDbEntity
  8
ROADS
100
AcDbPolyline
 90
2
 70
0
 10
629038.0255238691
 20
4833626.797150031
 10
628977.177829868
 20
4833608.681276394
  0
LWPOLYLINE
  5
1A5
330
17
100
AcDbEntity
  8
ROADS
100
AcDbPolyline
 90
3
 70
0
 10
628977.177829868
 20
4833608.681276394
 10
628963.2655533042
 20
4833653.630865031
 10
628921.425317026
 20
4833640.872858091
  0
LWPOLYLINE
  5
1A6
330
17
100
AcDbEntity
  8
ROADS
100
AcDbPolyline
 90
2
 70
0
 10
629038.0255238691
 20
4833626.797150031
 10
629005.7665060053
 20
4833726.885881196
  0
LWPOLYLINE
  5
1A7
330
17
100
AcDbEntity
  8
ROADS
100
AcDbPolyline
 90
2
 70
0
 10
628915.9913158386
 20
4833670.400629239
 10
628893.8650210281
 20
4833739.943403308
  0
LWPOLYLINE
  5
1A8
330
17
100
AcDbEntity
  8
ROADS
100
AcDbPolyline
 90
2
 70
0
 10
628893.8650210281
 20
4833739.943403308
 10
628780.5645040988
 20
4833705.026440051
  0
LWPOLYLINE
  5
1A9
330
17
100
AcDbEntity
  8
ROADS
100
AcDbPolyline
 90
3
 70
0
 10
629051.8766814632
 20
4833709.95007145
 10
629043.030848618
 20
4833737.740075315
 10
629005.7665060053
 20
4833726.885881196
  0
LWPOLYLINE
  5
1AA
330
17
100
AcDbEntity
  8
ROADS
100
AcDbPolyline
 90
2
 70
0
 10
629443.4395095411
 20
4833576.639473382
 10
629188.6742812194
 20
4833499.054065992
  0
LWPOLYLINE
  5
1AB
330
17
100
AcDbEntity
  8
ROADS
100
AcDbPolyline
 90
3
 70
0
 10
629069.3739877283
 20
4833524.852819533
 10
629134.0046321282
 20
4833543.540086867
 10
629128.101762015
 20
4833563.043727512
  0
LWPOLYLINE
  5
1AC
330
17
100
AcDbEntity
  8
ROADS
100
AcDbPolyline
 90
2
 70
0
 10
629234.8549743001
 20
4833686.327350813
 10
629038.0255238691
 20
4833626.797150031
  0
LWPOLYLINE
  5
1AD
330
17
100
AcDbEntity
  8
ROADS
100
AcDbPolyline
 90
2
 70
0
 10
629442.4905744599
 20
4833747.722042915
 10
629234.8549743001
 20
4833686.327350813
  0
LWPOLYLINE
  5
1AE
330
17
100
AcDbEntity
  8
ROADS
100
AcDbPolyline
 90
2
 70
0
 10
629234.8549743001
 20
4833686.327350813
 10
629202.3966165901
 20
4833789.530744031
  0
LWPOLYLINE
  5
1AF
330
17
100
AcDbEntity
  8
ROADS
100
AcDbPolyline
 90
2
 70
0
 10
629142.9911363311
 20
4833737.820625803
 10
629132.973848993
 20
4833769.393720861
  0
LWPOLYLINE
  5
1B0
330
17
100
AcDbEntity
  8
ROADS
100
AcDbPolyline
 90
2
 70
0
 10
629132.973848993
 20
4833769.393720861
 10
629103.7918816139
 20
4833760.595729508
  0
LWPOLYLINE
  5
1B1
330
17
100
AcDbEntity
  8
ROADS
100
AcDbPolyline
 90
2
 70
0
 10
629132.973848993
 20
4833769.393720861
 10
629160.7757541771
 20
4833778.300779576
  0
LWPOLYLINE
  5
1B2
330
17
100
AcDbEntity
  8
ROADS
100
AcDbPolyline
 90
2
 70
0
 10
629132.973848993
 20
4833769.393720861
 10
629120.5226001864
 20
4833807.26325086
  0
LWPOLYLINE
  5
1B3
330
17
100
AcDbEntity
  8
ROADS
100
AcDbPolyline
 90
2
 70
0
 10
629202.3966165901
 20
4833789.530744031
 10
629243.4809518927
 20
4833791.492385198
  0
LWPOLYLINE
  5
1B4
330
17
100
AcDbEntity
  8
ROADS
100
AcDbPolyline
 90
2
 70
0
 10
629517.7228001858
 20
4833625.654298807
 10
629566.2624808911
 20
4833638.4174000295
  0
LWPOLYLINE
  5
1B5
330
17
100
AcDbEntity
  8
ROADS
100
AcDbPolyline
 90
2
 70
0
 10
629479.3160849425
 20
4833631.800623823
 10
629496.616923202
 20
4833636.412606277
  0
LWPOLYLINE
  5
1B6
330
17
100
AcDbEntity
  8
ROADS
100
AcDbPolyline
 90
2
 70
0
 10
629566.2624808911
 20
4833638.4174000295
 10
629596.0461252334
 20
4833640.570307642
  0
LWPOLYLINE
  5
1B7
330
17
100
AcDbEntity
  8
ROADS
100
AcDbPolyline
 90
3
 70
0
 10
629496.616923202
 20
4833636.412606277
 10
629587.9447650118
 20
4833662.830931772
 10
629596.0461252334
 20
4833640.570307642
  0
LWPOLYLINE
  5
1B8
330
17
100
AcDbEntity
  8
ROADS
100
AcDbPolyline
 90
2
 70
0
 10
629479.3160849425
 20
4833631.800623823
 10
629464.2966470962
 20
4833677.694334718
  0
LWPOLYLINE
  5
1B9
330
17
100
AcDbEntity
  8
ROADS
100
AcDbPolyline
 90
2
 70
0
 10
629705.7817483945
 20
4833670.697071126
 10
629596.0461252334
 20
4833640.570307642
  0
LWPOLYLINE
  5
1BA
330
17
100
AcDbEntity
  8
ROADS
100
AcDbPolyline
 90
2
 70
0
 10
629705.7817483945
 20
4833670.697071126
 10
629693.2108121319
 20
4833710.76165847
  0
LWPOLYLINE
  5
1BB
330
17
100
AcDbEntity
  8
ROADS
100
AcDbPolyline
 90
2
 70
0
 10
629464.2966470962
 20
4833677.694334718
 10
629455.183940755
 20
4833705.752569004
  0
LWPOLYLINE
  5
1BC
330
17
100
AcDbEntity
  8
ROADS
100
AcDbPolyline
 90
2
 70
0
 10
629455.183940755
 20
4833705.752569004
 10
629526.0964527047
 20
4833727.296617394
  0
LWPOLYLINE
  5
1BD
330
17
100
AcDbEntity
  8
ROADS
100
AcDbPolyline
 90
4
 70
0
 10
629464.2966470962
 20
4833677.694334718
 10
629572.1936351828
 20
4833711.415618136
 10
629573.8618223816
 20
4833729.616020353
 10
629675.1319062203
 20
4833767.900880825
  0
LWPOLYLINE
  5
1BE
330
17
100
AcDbEntity
  8
ROADS
100
AcDbPolyline
 90
2
 70
0
 10
629455.183940755
 20
4833705.752569004
 10
629442.4905744599
 20
4833747.722042915
  0
LWPOLYLINE
  5
1BF
330
17
100
AcDbEntity
  8
ROADS
100
AcDbPolyline
 90
2
 70
0
 10
629693.2108121319
 20
4833710.76165847
 10
629682.4535737782
 20
4833742.992478958
  0
LWPOLYLINE
  5
1C0
330
17
100
AcDbEntity
  8
ROADS
100
AcDbPolyline
 90
2
 70
0
 10
629682.4535737782
 20
4833742.992478958
 10
629675.1319062203
 20
4833767.900880825
  0
LWPOLYLINE
  5
1C1
330
17
100
AcDbEntity
  8
ROADS
100
AcDbPolyline
 90
2
 70
0
 10
629557.3479988602
 20
4833782.828236327
 10
629442.4905744599
 20
4833747.722042915
  0
LWPOLYLINE
  5
1C2
330
17
100
AcDbEntity
  8
ROADS
100
AcDbPolyline
 90
2
 70
0
 10
629442.4905744599
 20
4833747.722042915
 10
629425.1295022222
 20
4833801.608971162
  0
LWPOLYLINE
  5
1C3
330
17
100
AcDbEntity
  8
ROADS
100
AcDbPolyline
 90
2
 70
0
 10
629675.1319062203
 20
4833767.900880825
 10
629660.8311972425
 20
4833816.30077563
  0
LWPOLYLINE
  5
1C4
330
17
100
AcDbEntity
  8
ROADS
100
AcDbPolyline
 90
2
 70
0
 10
629660.8311972425
 20
4833816.30077563
 10
629557.3479988602
 20
4833782.828236327
  0
LWPOLYLINE
  5
1C5
330
17
100
AcDbEntity
  8
ROADS
100
AcDbPolyline
 90
2
 70
0
 10
629557.3479988602
 20
4833782.828236327
 10
629540.7242830056
 20
4833836.254975876
  0
LWPOLYLINE
  5
1C6
330
17
100
AcDbEntity
  8
ROADS
100
AcDbPolyline
 90
2
 70
0
 10
629425.1295022222
 20
4833801.608971162
 10
629416.1589282042
 20
4833830.987858077
  0
LWPOLYLINE
  5
1C7
330
17
100
AcDbEntity
  8
ROADS
100
AcDbPolyline
 90
2
 70
0
 10
629540.7242830056
 20
4833836.254975876
 10
629425.1295022222
 20
4833801.608971162
  0
LWPOLYLINE
  5
1C8
330
17
100
AcDbEntity
  8
ROADS
100
AcDbPolyline
 90
3
 70
0
 10
629842.3634036158
 20
4833793.858011925
 10
629852.3610928811
 20
4833762.374502574
 10
629693.2108121319
 20
4833710.76165847
  0
LWPOLYLINE
  5
1C9
330
17
100
AcDbEntity
  8
ROADS
100
AcDbPolyline
 90
2
 70
0
 10
629751.5028994445
 20
4833764.652884357
 10
629682.4535737782
 20
4833742.992478958
  0
LWPOLYLINE
  5
1CA
330
17
100
AcDbEntity
  8
ROADS
100
AcDbPolyline
 90
2
 70
0
 10
629912.741097529
 20
4833737.04395931
 10
629889.9729915413
 20
4833809.225521614
  0
LWPOLYLINE
  5
1CB
330
17
100
AcDbEntity
  8
ROADS
100
AcDbPolyline
 90
2
 70
0
 10
629842.3634036158
 20
4833793.858011925
 10
629751.5028994445
 20
4833764.652884357
  0
LWPOLYLINE
  5
1CC
330
17
100
AcDbEntity
  8
ROADS
100
AcDbPolyline
 90
2
 70
0
 10
629889.9729915413
 20
4833809.225521614
 10
629842.3634036158
 20
4833793.858011925
  0
LWPOLYLINE
  5
1CD
330
17
100
AcDbEntity
  8
ROADS
100
AcDbPolyline
 90
3
 70
0
 10
629751.5028994445
 20
4833764.652884357
 10
629741.64624899
 20
4833796.134932984
 10
629879.7852389928
 20
4833839.71552882
  0
LWPOLYLINE
  5
1CE
330
17
100
AcDbEntity
  8
ROADS
100
AcDbPolyline
 90
2
 70
0
 10
629889.9729915413
 20
4833809.225521614
 10
629879.7852389928
 20
4833839.71552882
  0
LWPOLYLINE
  5
1CF
330
17
100
AcDbEntity
  8
ROADS
100
AcDbPolyline
 90
2
 70
0
 10
629760.8190211616
 20
4833850.1141871065
 10
629660.8311972425
 20
4833816.30077563
  0
LWPOLYLINE
  5
1D0
330
17
100
AcDbEntity
  8
ROADS
100
AcDbPolyline
 90
2
 70
0
 10
629879.7852389928
 20
4833839.71552882
 10
629866.9814514986
 20
4833882.204091835
  0
LWPOLYLINE
  5
1D1
330
17
100
AcDbEntity
  8
ROADS
100
AcDbPolyline
 90
2
 70
0
 10
629866.9814514986
 20
4833882.204091835
 10
629760.8190211616
 20
4833850.1141871065
  0
LWPOLYLINE
  5
1D2
330
17
100
AcDbEntity
  8
ROADS
100
AcDbPolyline
 90
2
 70
0
 10
629005.7665060053
 20
4833726.885881196
 10
628992.5830317292
 20
4833770.409544727
  0
LWPOLYLINE
  5
1D3
330
17
100
AcDbEntity
  8
ROADS
100
AcDbPolyline
 90
2
 70
0
 10
628992.5830317292
 20
4833770.409544727
 10
628893.8650210281
 20
4833739.943403308
  0
LWPOLYLINE
  5
1D4
330
17
100
AcDbEntity
  8
ROADS
100
AcDbPolyline
 90
2
 70
0
 10
629031.9319200632
 20
4833781.960463669
 10
628992.5830317292
 20
4833770.409544727
  0
LWPOLYLINE
  5
1D5
330
17
100
AcDbEntity
  8
ROADS
100
AcDbPolyline
 90
2
 70
0
 10
629071.8703160714
 20
4833793.707052492
 10
629031.9319200632
 20
4833781.960463669
  0
LWPOLYLINE
  5
1D6
330
17
100
AcDbEntity
  8
ROADS
100
AcDbPolyline
 90
2
 70
0
 10
629097.3386786387
 20
4833800.919823663
 10
629071.8703160714
 20
4833793.707052492
  0
LWPOLYLINE
  5
1D7
330
17
100
AcDbEntity
  8
ROADS
100
AcDbPolyline
 90
2
 70
0
 10
629071.8703160714
 20
4833793.707052492
 10
629059.2417491622
 20
4833832.75544947
  0
LWPOLYLINE
  5
1D8
330
17
100
AcDbEntity
  8
ROADS
100
AcDbPolyline
 90
2
 70
0
 10
629059.2417491622
 20
4833832.75544947
 10
629073.9318057463
 20
4833837.510262072
  0
LWPOLYLINE
  5
1D9
330
17
100
AcDbEntity
  8
ROADS
100
AcDbPolyline
 90
2
 70
0
 10
628992.5830317292
 20
4833770.409544727
 10
628948.1879929407
 20
4833906.583333607
  0
LWPOLYLINE
  5
1DA
330
17
100
AcDbEntity
  8
ROADS
100
AcDbPolyline
 90
2
 70
0
 10
629059.2417491622
 20
4833832.75544947
 10
629051.9783372137
 20
4833855.2156910375
  0
LWPOLYLINE
  5
1DB
330
17
100
AcDbEntity
  8
ROADS
100
AcDbPolyline
 90
2
 70
0
 10
629031.9319200632
 20
4833781.960463669
 10
628988.2294907238
 20
4833919.153853253
  0
LWPOLYLINE
  5
1DC
330
17
100
AcDbEntity
  8
ROADS
100
AcDbPolyline
 90
2
 70
0
 10
629120.5226001864
 20
4833807.26325086
 10
629097.3386786387
 20
4833800.919823663
  0
LWPOLYLINE
  5
1DD
330
17
100
AcDbEntity
  8
ROADS
100
AcDbPolyline
 90
2
 70
0
 10
629202.3966165901
 20
4833789.530744031
 10
629190.2285844109
 20
4833827.610413964
  0
LWPOLYLINE
  5
1DE
330
17
100
AcDbEntity
  8
ROADS
100
AcDbPolyline
 90
2
 70
0
 10
629097.3386786387
 20
4833800.919823663
 10
629113.226976415
 20
4833831.727050206
  0
LWPOLYLINE
  5
1DF
330
17
100
AcDbEntity
  8
ROADS
100
AcDbPolyline
 90
2
 70
0
 10
629190.2285844109
 20
4833827.610413964
 10
629120.5226001864
 20
4833807.26325086
  0
LWPOLYLINE
  5
1E0
330
17
100
AcDbEntity
  8
ROADS
100
AcDbPolyline
 90
2
 70
0
 10
629113.226976415
 20
4833831.727050206
 10
629107.9929627539
 20
4833849.137631772
  0
LWPOLYLINE
  5
1E1
330
17
100
AcDbEntity
  8
ROADS
100
AcDbPolyline
 90
2
 70
0
 10
629190.2285844109
 20
4833827.610413964
 10
629134.8898573713
 20
4833856.381727876
  0
LWPOLYLINE
  5
1E2
330
17
100
AcDbEntity
  8
ROADS
100
AcDbPolyline
 90
2
 70
0
 10
629113.226976415
 20
4833831.727050206
 10
629134.8898573713
 20
4833856.381727876
  0
LWPOLYLINE
  5
1E3
330
17
100
AcDbEntity
  8
ROADS
100
AcDbPolyline
 90
2
 70
0
 10
629107.9929627539
 20
4833849.137631772
 10
629095.2075800425
 20
4833850.715668564
  0
LWPOLYLINE
  5
1E4
330
17
100
AcDbEntity
  8
ROADS
100
AcDbPolyline
 90
2
 70
0
 10
629347.9297444464
 20
4833875.115770174
 10
629190.2285844109
 20
4833827.610413964
  0
LWPOLYLINE
  5
1E5
330
17
100
AcDbEntity
  8
ROADS
100
AcDbPolyline
 90
2
 70
0
 10
629347.9297444464
 20
4833875.115770174
 10
629360.6714421426
 20
4833833.018177424
  0
LWPOLYLINE
  5
1E6
330
17
100
AcDbEntity
  8
ROADS
100
AcDbPolyline
 90
2
 70
0
 10
629107.9929627539
 20
4833849.137631772
 10
629104.3879113145
 20
4833860.525246508
  0
LWPOLYLINE
  5
1E7
330
17
100
AcDbEntity
  8
ROADS
100
AcDbPolyline
 90
2
 70
0
 10
629095.2075800425
 20
4833850.715668564
 10
629104.3879113145
 20
4833860.525246508
  0
LWPOLYLINE
  5
1E8
330
17
100
AcDbEntity
  8
ROADS
100
AcDbPolyline
 90
2
 70
0
 10
629107.9929627539
 20
4833849.137631772
 10
629120.4053264584
 20
4833864.2139782915
  0
LWPOLYLINE
  5
1E9
330
17
100
AcDbEntity
  8
ROADS
100
AcDbPolyline
 90
2
 70
0
 10
629134.8898573713
 20
4833856.381727876
 10
629120.4053264584
 20
4833864.2139782915
  0
LWPOLYLINE
  5
1EA
330
17
100
AcDbEntity
  8
ROADS
100
AcDbPolyline
 90
2
 70
0
 10
629190.2285844109
 20
4833827.610413964
 10
629168.2077646558
 20
4833897.733180815
  0
LWPOLYLINE
  5
1EB
330
17
100
AcDbEntity
  8
ROADS
100
AcDbPolyline
 90
2
 70
0
 10
629134.8898573713
 20
4833856.381727876
 10
629150.8074924621
 20
4833874.112106199
  0
LWPOLYLINE
  5
1EC
330
17
100
AcDbEntity
  8
ROADS
100
AcDbPolyline
 90
2
 70
0
 10
629104.3879113145
 20
4833860.525246508
 10
629106.3105062108
 20
4833871.565738879
  0
LWPOLYLINE
  5
1ED
330
17
100
AcDbEntity
  8
ROADS
100
AcDbPolyline
 90
2
 70
0
 10
629070.1666173718
 20
4833860.745780164
 10
629106.3105062108
 20
4833871.565738879
  0
LWPOLYLINE
  5
1EE
330
17
100
AcDbEntity
  8
ROADS
100
AcDbPolyline
 90
2
 70
0
 10
629120.4053264584
 20
4833864.2139782915
 10
629106.3105062108
 20
4833871.565738879
  0
LWPOLYLINE
  5
1EF
330
17
100
AcDbEntity
  8
ROADS
100
AcDbPolyline
 90
2
 70
0
 10
629120.4053264584
 20
4833864.2139782915
 10
629128.6366088006
 20
4833873.967401356
  0
LWPOLYLINE
  5
1F0
330
17
100
AcDbEntity
  8
ROADS
100
AcDbPolyline
 90
2
 70
0
 10
629660.8311972425
 20
4833816.30077563
 10
629641.9730290932
 20
4833867.75151038
  0
LWPOLYLINE
  5
1F1
330
17
100
AcDbEntity
  8
ROADS
100
AcDbPolyline
 90
2
 70
0
 10
629531.2845308991
 20
4833866.028919802
 10
629416.1589282042
 20
4833830.987858077
  0
LWPOLYLINE
  5
1F2
330
17
100
AcDbEntity
  8
ROADS
100
AcDbPolyline
 90
2
 70
0
 10
629540.7242830056
 20
4833836.254975876
 10
629531.2845308991
 20
4833866.028919802
  0
LWPOLYLINE
  5
1F3
330
17
100
AcDbEntity
  8
ROADS
100
AcDbPolyline
 90
2
 70
0
 10
629416.1589282042
 20
4833830.987858077
 10
629398.2263013808
 20
4833889.605771762
  0
LWPOLYLINE
  5
1F4
330
17
100
AcDbEntity
  8
ROADS
100
AcDbPolyline
 90
3
 70
0
 10
629540.7242830056
 20
4833836.254975876
 10
629590.3797178912
 20
4833848.371728871
 10
629576.5948665887
 20
4833891.524569736
  0
LWPOLYLINE
  5
1F5
330
17
100
AcDbEntity
  8
ROADS
100
AcDbPolyline
 90
2
 70
0
 10
629531.2845308991
 20
4833866.028919802
 10
629527.9949128496
 20
4833876.50818716
  0
LWPOLYLINE
  5
1F6
330
17
100
AcDbEntity
  8
ROADS
100
AcDbPolyline
 90
2
 70
0
 10
629695.9588457004
 20
4833884.18033319
 10
629641.9730290932
 20
4833867.75151038
  0
LWPOLYLINE
  5
1F7
330
17
100
AcDbEntity
  8
ROADS
100
AcDbPolyline
 90
2
 70
0
 10
629576.5948665887
 20
4833891.524569736
 10
629527.9949128496
 20
4833876.50818716
  0
LWPOLYLINE
  5
1F8
330
17
100
AcDbEntity
  8
ROADS
100
AcDbPolyline
 90
2
 70
0
 10
629527.9949128496
 20
4833876.50818716
 10
629512.3542784187
 20
4833924.732327528
  0
LWPOLYLINE
  5
1F9
330
17
100
AcDbEntity
  8
ROADS
100
AcDbPolyline
 90
2
 70
0
 10
629512.3542784187
 20
4833924.732327528
 10
629398.2263013808
 20
4833889.605771762
  0
LWPOLYLINE
  5
1FA
330
17
100
AcDbEntity
  8
ROADS
100
AcDbPolyline
 90
2
 70
0
 10
629095.2075800425
 20
4833850.715668564
 10
629070.1666173718
 20
4833860.745780164
  0
LWPOLYLINE
  5
1FB
330
17
100
AcDbEntity
  8
ROADS
100
AcDbPolyline
 90
2
 70
0
 10
629051.9783372137
 20
4833855.2156910375
 10
629070.1666173718
 20
4833860.745780164
  0
LWPOLYLINE
  5
1FC
330
17
100
AcDbEntity
  8
ROADS
100
AcDbPolyline
 90
2
 70
0
 10
629051.9783372137
 20
4833855.2156910375
 10
629027.8326116471
 20
4833929.309290483
  0
LWPOLYLINE
  5
1FD
330
17
100
AcDbEntity
  8
ROADS
100
AcDbPolyline
 90
2
 70
0
 10
628948.1879929407
 20
4833906.583333607
 10
628859.7679474533
 20
4833881.525632563
  0
LWPOLYLINE
  5
1FE
330
17
100
AcDbEntity
  8
ROADS
100
AcDbPolyline
 90
2
 70
0
 10
628988.2294907238
 20
4833919.153853253
 10
628948.1879929407
 20
4833906.583333607
  0
LWPOLYLINE
  5
1FF
330
17
100
AcDbEntity
  8
ROADS
100
AcDbPolyline
 90
2
 70
0
 10
629027.8326116471
 20
4833929.309290483
 10
628988.2294907238
 20
4833919.153853253
  0
LWPOLYLINE
  5
200
330
17
100
AcDbEntity
  8
ROADS
100
AcDbPolyline
 90
2
 70
0
 10
628948.1879929407
 20
4833906.583333607
 10
628934.63321369
 20
4833947.742113831
  0
LWPOLYLINE
  5
201
330
17
100
AcDbEntity
  8
ROADS
100
AcDbPolyline
 90
2
 70
0
 10
629049.9368775203
 20
4833935.961233265
 10
629027.8326116471
 20
4833929.309290483
  0
LWPOLYLINE
  5
202
330
17
100
AcDbEntity
  8
ROADS
100
AcDbPolyline
 90
2
 70
0
 10
628988.2294907238
 20
4833919.153853253
 10
628973.2105851782
 20
4833958.98608731
  0
LWPOLYLINE
  5
203
330
17
100
AcDbEntity
  8
ROADS
100
AcDbPolyline
 90
2
 70
0
 10
629087.4732094348
 20
4833948.919509703
 10
629049.9368775203
 20
4833935.961233265
  0
LWPOLYLINE
  5
204
330
17
100
AcDbEntity
  8
ROADS
100
AcDbPolyline
 90
2
 70
0
 10
630206.7459023762
 20
4833829.330915879
 10
629912.741097529
 20
4833737.04395931
  0
LWPOLYLINE
  5
205
330
17
100
AcDbEntity
  8
ROADS
100
AcDbPolyline
 90
2
 70
0
 10
630233.7495208671
 20
4833838.142546675
 10
630206.7459023762
 20
4833829.330915879
  0
LWPOLYLINE
  5
206
330
17
100
AcDbEntity
  8
ROADS
100
AcDbPolyline
 90
2
 70
0
 10
630206.7459023762
 20
4833829.330915879
 10
630174.042691712
 20
4833928.548520311
  0
LWPOLYLINE
  5
207
330
17
100
AcDbEntity
  8
ROADS
100
AcDbPolyline
 90
2
 70
0
 10
630141.3999419226
 20
4833969.47835447
 10
629995.2463940319
 20
4833922.70806774
  0
LWPOLYLINE
  5
208
330
17
100
AcDbEntity
  8
ROADS
100
AcDbPolyline
 90
2
 70
0
 10
630084.8468501919
 20
4834028.421426801
 10
629971.5914275546
 20
4833992.441435809
  0
LWPOLYLINE
  5
209
330
17
100
AcDbEntity
  8
ROADS
100
AcDbPolyline
 90
2
 70
0
 10
629971.5914275546
 20
4833992.441435809
 10
629844.7192021352
 20
4833950.465504118
  0
LWPOLYLINE
  5
20A
330
17
100
AcDbEntity
  8
ROADS
100
AcDbPolyline
 90
2
 70
0
 10
629844.7192021352
 20
4833950.465504118
 10
629820.8976059183
 20
4834021.339906805
  0
LWPOLYLINE
  5
20B
330
17
100
AcDbEntity
  8
ROADS
100
AcDbPolyline
 90
2
 70
0
 10
629769.2222776341
 20
4834005.168832332
 10
629716.5618492949
 20
4833988.667935795
  0
LWPOLYLINE
  5
20C
330
17
100
AcDbEntity
  8
ROADS
100
AcDbPolyline
 90
2
 70
0
 10
629820.8976059183
 20
4834021.339906805
 10
629769.2222776341
 20
4834005.168832332
  0
LWPOLYLINE
  5
20D
330
17
100
AcDbEntity
  8
ROADS
100
AcDbPolyline
 90
2
 70
0
 10
629971.5914275546
 20
4833992.441435809
 10
629950.4654998995
 20
4834061.462453088
  0
LWPOLYLINE
  5
20E
330
17
100
AcDbEntity
  8
ROADS
100
AcDbPolyline
 90
2
 70
0
 10
629950.4654998995
 20
4834061.462453088
 10
629820.8976059183
 20
4834021.339906805
  0
LWPOLYLINE
  5
20F
330
17
100
AcDbEntity
  8
ROADS
100
AcDbPolyline
 90
2
 70
0
 10
629820.8976059183
 20
4834021.339906805
 10
629798.9089866031
 20
4834088.570174665
  0
LWPOLYLINE
  5
210
330
17
100
AcDbEntity
  8
ROADS
100
AcDbPolyline
 90
2
 70
0
 10
629950.4654998995
 20
4834061.462453088
 10
629939.4128575083
 20
4834097.5852211295
  0
LWPOLYLINE
  5
211
330
17
100
AcDbEntity
  8
ROADS
100
AcDbPolyline
 90
2
 70
0
 10
629835.1891422609
 20
4834098.660592169
 10
629855.2118947214
 20
4834068.818395262
  0
LWPOLYLINE
  5
212
330
17
100
AcDbEntity
  8
ROADS
100
AcDbPolyline
 90
2
 70
0
 10
630019.4347106296
 20
4834083.631429163
 10
629950.4654998995
 20
4834061.462453088
  0
LWPOLYLINE
  5
213
330
17
100
AcDbEntity
  8
ROADS
100
AcDbPolyline
 90
2
 70
0
 10
629835.1891422609
 20
4834098.660592169
 10
629798.9089866031
 20
4834088.570174665
  0
LWPOLYLINE
  5
214
330
17
100
AcDbEntity
  8
ROADS
100
AcDbPolyline
 90
3
 70
0
 10
629939.4128575083
 20
4834097.5852211295
 10
629901.8530853053
 20
4834085.199513081
 10
629888.2326015536
 20
4834115.6599691715
  0
LWPOLYLINE
  5
215
330
17
100
AcDbEntity
  8
ROADS
100
AcDbPolyline
 90
2
 70
0
 10
629888.2326015536
 20
4834115.6599691715
 10
629835.1891422609
 20
4834098.660592169
  0
LWPOLYLINE
  5
216
330
17
100
AcDbEntity
  8
ROADS
100
AcDbPolyline
 90
2
 70
0
 10
629939.4128575083
 20
4834097.5852211295
 10
629929.1292306777
 20
4834129.449587903
  0
LWPOLYLINE
  5
217
330
17
100
AcDbEntity
  8
ROADS
100
AcDbPolyline
 90
2
 70
0
 10
629929.1292306777
 20
4834129.449587903
 10
629888.2326015536
 20
4834115.6599691715
  0
LWPOLYLINE
  5
218
330
17
100
AcDbEntity
  8
ROADS
100
AcDbPolyline
 90
2
 70
0
 10
629798.9089866031
 20
4834088.570174665
 10
629778.5999640203
 20
4834160.642127298
  0
LWPOLYLINE
  5
219
330
17
100
AcDbEntity
  8
ROADS
100
AcDbPolyline
 90
2
 70
0
 10
629939.4128575083
 20
4834097.5852211295
 10
629982.3855798254
 20
4834110.998153816
  0
LWPOLYLINE
  5
21A
330
17
100
AcDbEntity
  8
ROADS
100
AcDbPolyline
 90
3
 70
0
 10
629888.2326015536
 20
4834115.6599691715
 10
629874.1926293506
 20
4834149.576082288
 10
629901.7280167274
 20
4834158.151523019
  0
LWPOLYLINE
  5
21B
330
17
100
AcDbEntity
  8
ROADS
100
AcDbPolyline
 90
2
 70
0
 10
629778.5999640203
 20
4834160.642127298
 10
629675.1328139375
 20
4834127.166760081
  0
LWPOLYLINE
  5
21C
330
17
100
AcDbEntity
  8
ROADS
100
AcDbPolyline
 90
2
 70
0
 10
629929.1292306777
 20
4834129.449587903
 10
629923.8220599644
 20
4834146.3942636065
  0
LWPOLYLINE
  5
21D
330
17
100
AcDbEntity
  8
ROADS
100
AcDbPolyline
 90
2
 70
0
 10
629760.8190211616
 20
4833850.1141871065
 10
629744.7325094232
 20
4833901.262006795
  0
LWPOLYLINE
  5
21E
330
17
100
AcDbEntity
  8
ROADS
100
AcDbPolyline
 90
2
 70
0
 10
629744.7325094232
 20
4833901.262006795
 10
629695.9588457004
 20
4833884.18033319
  0
LWPOLYLINE
  5
21F
330
17
100
AcDbEntity
  8
ROADS
100
AcDbPolyline
 90
2
 70
0
 10
629995.2463940319
 20
4833922.70806774
 10
629866.9814514986
 20
4833882.204091835
  0
LWPOLYLINE
  5
220
330
17
100
AcDbEntity
  8
ROADS
100
AcDbPolyline
 90
2
 70
0
 10
629866.9814514986
 20
4833882.204091835
 10
629849.2691878792
 20
4833934.714638837
  0
LWPOLYLINE
  5
221
330
17
100
AcDbEntity
  8
ROADS
100
AcDbPolyline
 90
2
 70
0
 10
629796.8708999634
 20
4833917.763456059
 10
629744.7325094232
 20
4833901.262006795
  0
LWPOLYLINE
  5
222
330
17
100
AcDbEntity
  8
ROADS
100
AcDbPolyline
 90
2
 70
0
 10
629849.2691878792
 20
4833934.714638837
 10
629796.8708999634
 20
4833917.763456059
  0
LWPOLYLINE
  5
223
330
17
100
AcDbEntity
  8
ROADS
100
AcDbPolyline
 90
2
 70
0
 10
629849.2691878792
 20
4833934.714638837
 10
629844.7192021352
 20
4833950.465504118
  0
LWPOLYLINE
  5
224
330
17
100
AcDbEntity
  8
ROADS
100
AcDbPolyline
 90
2
 70
0
 10
629744.7325094232
 20
4833901.262006795
 10
629716.5618492949
 20
4833988.667935795
  0
LWPOLYLINE
  5
225
330
17
100
AcDbEntity
  8
ROADS
100
AcDbPolyline
 90
2
 70
0
 10
629995.2463940319
 20
4833922.70806774
 10
629971.5914275546
 20
4833992.441435809
  0
LWPOLYLINE
  5
226
330
17
100
AcDbEntity
  8
ROADS
100
AcDbPolyline
 90
2
 70
0
 10
629796.8708999634
 20
4833917.763456059
 10
629769.2222776341
 20
4834005.168832332
  0
LWPOLYLINE
  5
227
330
17
100
AcDbEntity
  8
ROADS
100
AcDbPolyline
 90
2
 70
0
 10
629106.3105062108
 20
4833871.565738879
 10
629128.6366088006
 20
4833873.967401356
  0
LWPOLYLINE
  5
228
330
17
100
AcDbEntity
  8
ROADS
100
AcDbPolyline
 90
2
 70
0
 10
629128.6366088006
 20
4833873.967401356
 10
629150.8074924621
 20
4833874.112106199
  0
LWPOLYLINE
  5
229
330
17
100
AcDbEntity
  8
ROADS
100
AcDbPolyline
 90
2
 70
0
 10
629398.2263013808
 20
4833889.605771762
 10
629347.9297444464
 20
4833875.115770174
  0
LWPOLYLINE
  5
22A
330
17
100
AcDbEntity
  8
ROADS
100
AcDbPolyline
 90
2
 70
0
 10
629150.8074924621
 20
4833874.112106199
 10
629168.2077646558
 20
4833897.733180815
  0
LWPOLYLINE
  5
22B
330
17
100
AcDbEntity
  8
ROADS
100
AcDbPolyline
 90
2
 70
0
 10
629398.2263013808
 20
4833889.605771762
 10
629376.115622067
 20
4833960.050976373
  0
LWPOLYLINE
  5
22C
330
17
100
AcDbEntity
  8
ROADS
100
AcDbPolyline
 90
2
 70
0
 10
629376.115622067
 20
4833960.050976373
 10
629168.2077646558
 20
4833897.733180815
  0
LWPOLYLINE
  5
22D
330
17
100
AcDbEntity
  8
ROADS
100
AcDbPolyline
 90
2
 70
0
 10
629168.2077646558
 20
4833897.733180815
 10
629144.8049090848
 20
4833965.638810787
  0
LWPOLYLINE
  5
22E
330
17
100
AcDbEntity
  8
ROADS
100
AcDbPolyline
 90
2
 70
0
 10
629144.8049090848
 20
4833965.638810787
 10
629087.4732094348
 20
4833948.919509703
  0
LWPOLYLINE
  5
22F
330
17
100
AcDbEntity
  8
ROADS
100
AcDbPolyline
 90
2
 70
0
 10
629209.9274938263
 20
4833984.55207362
 10
629144.8049090848
 20
4833965.638810787
  0
LWPOLYLINE
  5
230
330
17
100
AcDbEntity
  8
ROADS
100
AcDbPolyline
 90
2
 70
0
 10
629376.115622067
 20
4833960.050976373
 10
629360.8113600651
 20
4834006.8445728645
  0
LWPOLYLINE
  5
231
330
17
100
AcDbEntity
  8
ROADS
100
AcDbPolyline
 90
2
 70
0
 10
629641.9730290932
 20
4833867.75151038
 10
629616.4639381897
 20
4833956.741627722
  0
LWPOLYLINE
  5
232
330
17
100
AcDbEntity
  8
ROADS
100
AcDbPolyline
 90
2
 70
0
 10
629576.5948665887
 20
4833891.524569736
 10
629561.563055831
 20
4833939.705216847
  0
LWPOLYLINE
  5
233
330
17
100
AcDbEntity
  8
ROADS
100
AcDbPolyline
 90
2
 70
0
 10
629666.4972567987
 20
4833973.625060488
 10
629695.9588457004
 20
4833884.18033319
  0
LWPOLYLINE
  5
234
330
17
100
AcDbEntity
  8
ROADS
100
AcDbPolyline
 90
2
 70
0
 10
629561.563055831
 20
4833939.705216847
 10
629512.3542784187
 20
4833924.732327528
  0
LWPOLYLINE
  5
235
330
17
100
AcDbEntity
  8
ROADS
100
AcDbPolyline
 90
2
 70
0
 10
629616.4639381897
 20
4833956.741627722
 10
629561.563055831
 20
4833939.705216847
  0
LWPOLYLINE
  5
236
330
17
100
AcDbEntity
  8
ROADS
100
AcDbPolyline
 90
2
 70
0
 10
629666.4972567987
 20
4833973.625060488
 10
629616.4639381897
 20
4833956.741627722
  0
LWPOLYLINE
  5
237
330
17
100
AcDbEntity
  8
ROADS
100
AcDbPolyline
 90
2
 70
0
 10
629616.4639381897
 20
4833956.741627722
 10
629604.0281198156
 20
4833995.6365555525
  0
LWPOLYLINE
  5
238
330
17
100
AcDbEntity
  8
ROADS
100
AcDbPolyline
 90
2
 70
0
 10
629716.5618492949
 20
4833988.667935795
 10
629666.4972567987
 20
4833973.625060488
  0
LWPOLYLINE
  5
239
330
17
100
AcDbEntity
  8
ROADS
100
AcDbPolyline
 90
3
 70
0
 10
629666.4972567987
 20
4833973.625060488
 10
629654.6356462794
 20
4834010.795252183
 10
629604.0281198156
 20
4833995.6365555525
  0
LWPOLYLINE
  5
23A
330
17
100
AcDbEntity
  8
ROADS
100
AcDbPolyline
 90
2
 70
0
 10
629604.0281198156
 20
4833995.6365555525
 10
629576.6303922527
 20
4834076.076929879
  0
LWPOLYLINE
  5
23B
330
17
100
AcDbEntity
  8
ROADS
100
AcDbPolyline
 90
2
 70
0
 10
628973.2105851782
 20
4833958.98608731
 10
628934.63321369
 20
4833947.742113831
  0
LWPOLYLINE
  5
23C
330
17
100
AcDbEntity
  8
ROADS
100
AcDbPolyline
 90
2
 70
0
 10
629049.9368775203
 20
4833935.961233265
 10
629036.59473215
 20
4833978.025928879
  0
LWPOLYLINE
  5
23D
330
17
100
AcDbEntity
  8
ROADS
100
AcDbPolyline
 90
2
 70
0
 10
628934.63321369
 20
4833947.742113831
 10
628921.6583782769
 20
4833987.79929859
  0
LWPOLYLINE
  5
23E
330
17
100
AcDbEntity
  8
ROADS
100
AcDbPolyline
 90
2
 70
0
 10
629036.59473215
 20
4833978.025928879
 10
628973.2105851782
 20
4833958.98608731
  0
LWPOLYLINE
  5
23F
330
17
100
AcDbEntity
  8
ROADS
100
AcDbPolyline
 90
2
 70
0
 10
629087.4732094348
 20
4833948.919509703
 10
629075.1343818929
 20
4833989.808263617
  0
LWPOLYLINE
  5
240
330
17
100
AcDbEntity
  8
ROADS
100
AcDbPolyline
 90
2
 70
0
 10
628973.2105851782
 20
4833958.98608731
 10
628960.120124707
 20
4833999.741233368
  0
LWPOLYLINE
  5
241
330
17
100
AcDbEntity
  8
ROADS
100
AcDbPolyline
 90
2
 70
0
 10
628921.6583782769
 20
4833987.79929859
 10
628873.5022853913
 20
4833973.849022994
  0
LWPOLYLINE
  5
242
330
17
100
AcDbEntity
  8
ROADS
100
AcDbPolyline
 90
2
 70
0
 10
629075.1343818929
 20
4833989.808263617
 10
629036.59473215
 20
4833978.025928879
  0
LWPOLYLINE
  5
243
330
17
100
AcDbEntity
  8
ROADS
100
AcDbPolyline
 90
2
 70
0
 10
628960.120124707
 20
4833999.741233368
 10
628921.6583782769
 20
4833987.79929859
  0
LWPOLYLINE
  5
244
330
17
100
AcDbEntity
  8
ROADS
100
AcDbPolyline
 90
2
 70
0
 10
629036.59473215
 20
4833978.025928879
 10
629023.6141535044
 20
4834019.009083242
  0
LWPOLYLINE
  5
245
330
17
100
AcDbEntity
  8
ROADS
100
AcDbPolyline
 90
2
 70
0
 10
628873.5022853913
 20
4833973.849022994
 10
628859.0020972071
 20
4834024.5433413815
  0
LWPOLYLINE
  5
246
330
17
100
AcDbEntity
  8
ROADS
100
AcDbPolyline
 90
2
 70
0
 10
628987.4480122237
 20
4834008.535732212
 10
628960.120124707
 20
4833999.741233368
  0
LWPOLYLINE
  5
247
330
17
100
AcDbEntity
  8
ROADS
100
AcDbPolyline
 90
2
 70
0
 10
629075.1343818929
 20
4833989.808263617
 10
629062.7687139837
 20
4834030.466513969
  0
LWPOLYLINE
  5
248
330
17
100
AcDbEntity
  8
ROADS
100
AcDbPolyline
 90
2
 70
0
 10
629023.6141535044
 20
4834019.009083242
 10
628987.4480122237
 20
4834008.535732212
  0
LWPOLYLINE
  5
249
330
17
100
AcDbEntity
  8
ROADS
100
AcDbPolyline
 90
2
 70
0
 10
629062.7687139837
 20
4834030.466513969
 10
629023.6141535044
 20
4834019.009083242
  0
LWPOLYLINE
  5
24A
330
17
100
AcDbEntity
  8
ROADS
100
AcDbPolyline
 90
2
 70
0
 10
628987.4480122237
 20
4834008.535732212
 10
628974.0233238324
 20
4834049.633860507
  0
LWPOLYLINE
  5
24B
330
17
100
AcDbEntity
  8
ROADS
100
AcDbPolyline
 90
2
 70
0
 10
628974.0233238324
 20
4834049.633860507
 10
628859.0020972071
 20
4834024.5433413815
  0
LWPOLYLINE
  5
24C
330
17
100
AcDbEntity
  8
ROADS
100
AcDbPolyline
 90
2
 70
0
 10
628859.0020972071
 20
4834024.5433413815
 10
628854.3481553304
 20
4834040.269971224
  0
LWPOLYLINE
  5
24D
330
17
100
AcDbEntity
  8
ROADS
100
AcDbPolyline
 90
2
 70
0
 10
629062.7687139837
 20
4834030.466513969
 10
629050.6203484026
 20
4834072.823803281
  0
LWPOLYLINE
  5
24E
330
17
100
AcDbEntity
  8
ROADS
100
AcDbPolyline
 90
2
 70
0
 10
629050.6203484026
 20
4834072.823803281
 10
628974.0233238324
 20
4834049.633860507
  0
LWPOLYLINE
  5
24F
330
17
100
AcDbEntity
  8
ROADS
100
AcDbPolyline
 90
3
 70
0
 10
629360.8113600651
 20
4834006.8445728645
 10
629306.0566539394
 20
4834012.514354423
 10
629209.9274938263
 20
4833984.55207362
  0
LWPOLYLINE
  5
250
330
17
100
AcDbEntity
  8
ROADS
100
AcDbPolyline
 90
2
 70
0
 10
629209.9274938263
 20
4833984.55207362
 10
629196.4812969179
 20
4834026.507899593
  0
LWPOLYLINE
  5
251
330
17
100
AcDbEntity
  8
ROADS
100
AcDbPolyline
 90
2
 70
0
 10
629196.4812969179
 20
4834026.507899593
 10
629075.1343818929
 20
4833989.808263617
  0
LWPOLYLINE
  5
252
330
17
100
AcDbEntity
  8
ROADS
100
AcDbPolyline
 90
2
 70
0
 10
629360.8113600651
 20
4834006.8445728645
 10
629340.5924567943
 20
4834066.325205587
  0
LWPOLYLINE
  5
253
330
17
100
AcDbEntity
  8
ROADS
100
AcDbPolyline
 90
2
 70
0
 10
629164.5468817295
 20
4834061.490101427
 10
629062.7687139837
 20
4834030.466513969
  0
LWPOLYLINE
  5
254
330
17
100
AcDbEntity
  8
ROADS
100
AcDbPolyline
 90
2
 70
0
 10
629340.5924567943
 20
4834066.325205587
 10
629196.4812969179
 20
4834026.507899593
  0
LWPOLYLINE
  5
255
330
17
100
AcDbEntity
  8
ROADS
100
AcDbPolyline
 90
2
 70
0
 10
629196.4812969179
 20
4834026.507899593
 10
629183.7446171542
 20
4834066.998946583
  0
LWPOLYLINE
  5
256
330
17
100
AcDbEntity
  8
ROADS
100
AcDbPolyline
 90
2
 70
0
 10
629183.7446171542
 20
4834066.998946583
 10
629164.5468817295
 20
4834061.490101427
  0
LWPOLYLINE
  5
257
330
17
100
AcDbEntity
  8
ROADS
100
AcDbPolyline
 90
2
 70
0
 10
629340.5924567943
 20
4834066.325205587
 10
629414.8893954227
 20
4834079.113893305
  0
LWPOLYLINE
  5
258
330
17
100
AcDbEntity
  8
ROADS
100
AcDbPolyline
 90
2
 70
0
 10
629243.0783579834
 20
4834084.72002467
 10
629183.7446171542
 20
4834066.998946583
  0
LWPOLYLINE
  5
259
330
17
100
AcDbEntity
  8
ROADS
100
AcDbPolyline
 90
2
 70
0
 10
629716.5618492949
 20
4833988.667935795
 10
629687.7044559991
 20
4834086.95519225
  0
LWPOLYLINE
  5
25A
330
17
100
AcDbEntity
  8
ROADS
100
AcDbPolyline
 90
2
 70
0
 10
629576.6303922527
 20
4834076.076929879
 10
629360.8113600651
 20
4834006.8445728645
  0
LWPOLYLINE
  5
25B
330
17
100
AcDbEntity
  8
ROADS
100
AcDbPolyline
 90
2
 70
0
 10
629687.7044559991
 20
4834086.95519225
 10
629663.0743535543
 20
4834078.7884717565
  0
LWPOLYLINE
  5
25C
330
17
100
AcDbEntity
  8
ROADS
100
AcDbPolyline
 90
2
 70
0
 10
629494.4970156079
 20
4834103.560370453
 10
629456.8656400372
 20
4834096.964780153
  0
LWPOLYLINE
  5
25D
330
17
100
AcDbEntity
  8
ROADS
100
AcDbPolyline
 90
2
 70
0
 10
629576.6303922527
 20
4834076.076929879
 10
629560.9364238962
 20
4834124.48361708
  0
LWPOLYLINE
  5
25E
330
17
100
AcDbEntity
  8
ROADS
100
AcDbPolyline
 90
2
 70
0
 10
629675.1328139375
 20
4834127.166760081
 10
629576.6303922527
 20
4834076.076929879
  0
LWPOLYLINE
  5
25F
330
17
100
AcDbEntity
  8
ROADS
100
AcDbPolyline
 90
2
 70
0
 10
629687.7044559991
 20
4834086.95519225
 10
629675.1328139375
 20
4834127.166760081
  0
LWPOLYLINE
  5
260
330
17
100
AcDbEntity
  8
ROADS
100
AcDbPolyline
 90
2
 70
0
 10
629524.5042812844
 20
4834113.010362464
 10
629494.4970156079
 20
4834103.560370453
  0
LWPOLYLINE
  5
261
330
17
100
AcDbEntity
  8
ROADS
100
AcDbPolyline
 90
4
 70
0
 10
629494.4970156079
 20
4834103.560370453
 10
629488.6124295018
 20
4834122.216295103
 10
629518.5565368942
 20
4834131.232117275
 10
629524.5042812844
 20
4834113.010362464
  0
LWPOLYLINE
  5
262
330
17
100
AcDbEntity
  8
ROADS
100
AcDbPolyline
 90
2
 70
0
 10
629560.9364238962
 20
4834124.48361708
 10
629524.5042812844
 20
4834113.010362464
  0
LWPOLYLINE
  5
263
330
17
100
AcDbEntity
  8
ROADS
100
AcDbPolyline
 90
2
 70
0
 10
628974.0233238324
 20
4834049.633860507
 10
628963.9345904728
 20
4834083.272650082
  0
LWPOLYLINE
  5
264
330
17
100
AcDbEntity
  8
ROADS
100
AcDbPolyline
 90
2
 70
0
 10
629050.6203484026
 20
4834072.823803281
 10
629038.3477167203
 20
4834110.978261505
  0
LWPOLYLINE
  5
265
330
17
100
AcDbEntity
  8
ROADS
100
AcDbPolyline
 90
2
 70
0
 10
629164.5468817295
 20
4834061.490101427
 10
629152.1125918184
 20
4834100.355998655
  0
LWPOLYLINE
  5
266
330
17
100
AcDbEntity
  8
ROADS
100
AcDbPolyline
 90
2
 70
0
 10
629152.1125918184
 20
4834100.355998655
 10
629050.6203484026
 20
4834072.823803281
  0
LWPOLYLINE
  5
267
330
17
100
AcDbEntity
  8
ROADS
100
AcDbPolyline
 90
2
 70
0
 10
629340.5924567943
 20
4834066.325205587
 10
629326.4542440189
 20
4834109.993654318
  0
LWPOLYLINE
  5
268
330
17
100
AcDbEntity
  8
ROADS
100
AcDbPolyline
 90
2
 70
0
 10
629326.4542440189
 20
4834109.993654318
 10
629243.0783579834
 20
4834084.72002467
  0
LWPOLYLINE
  5
269
330
17
100
AcDbEntity
  8
ROADS
100
AcDbPolyline
 90
2
 70
0
 10
629243.0783579834
 20
4834084.72002467
 10
629227.7707396589
 20
4834132.445599752
  0
LWPOLYLINE
  5
26A
330
17
100
AcDbEntity
  8
ROADS
100
AcDbPolyline
 90
2
 70
0
 10
629227.7707396589
 20
4834132.445599752
 10
629152.1125918184
 20
4834100.355998655
  0
LWPOLYLINE
  5
26B
330
17
100
AcDbEntity
  8
ROADS
100
AcDbPolyline
 90
2
 70
0
 10
629326.4542440189
 20
4834109.993654318
 10
629303.3719790304
 20
4834186.7727010865
  0
LWPOLYLINE
  5
26C
330
17
100
AcDbEntity
  8
ROADS
100
AcDbPolyline
 90
2
 70
0
 10
629152.1125918184
 20
4834100.355998655
 10
629136.9558260815
 20
4834148.927690003
  0
LWPOLYLINE
  5
26D
330
17
100
AcDbEntity
  8
ROADS
100
AcDbPolyline
 90
2
 70
0
 10
629227.7707396589
 20
4834132.445599752
 10
629212.3609355182
 20
4834179.099669835
  0
LWPOLYLINE
  5
26E
330
17
100
AcDbEntity
  8
ROADS
100
AcDbPolyline
 90
2
 70
0
 10
629303.3719790304
 20
4834186.7727010865
 10
629296.4814525761
 20
4834209.596335711
  0
LWPOLYLINE
  5
26F
330
17
100
AcDbEntity
  8
ROADS
100
AcDbPolyline
 90
2
 70
0
 10
629944.0299957879
 20
4834134.298498336
 10
629929.1292306777
 20
4834129.449587903
  0
LWPOLYLINE
  5
270
330
17
100
AcDbEntity
  8
ROADS
100
AcDbPolyline
 90
2
 70
0
 10
629778.5999640203
 20
4834160.642127298
 10
629765.93332339
 20
4834198.362813379
  0
LWPOLYLINE
  5
271
330
17
100
AcDbEntity
  8
ROADS
100
AcDbPolyline
 90
2
 70
0
 10
629849.1233254339
 20
4834183.079141709
 10
629778.5999640203
 20
4834160.642127298
  0
LWPOLYLINE
  5
272
330
17
100
AcDbEntity
  8
ROADS
100
AcDbPolyline
 90
2
 70
0
 10
629765.93332339
 20
4834198.362813379
 10
629760.372844704
 20
4834214.589984528
  0
LWPOLYLINE
  5
273
330
17
100
AcDbEntity
  8
ROADS
100
AcDbPolyline
 90
2
 70
0
 10
629704.417593729
 20
4834228.808740242
 10
629668.4212296186
 20
4834217.524708918
  0
LWPOLYLINE
  5
274
330
17
100
AcDbEntity
  8
ROADS
100
AcDbPolyline
 90
5
 70
0
 10
628217.8813802802
 20
4831765.322610927
 10
628187.732428755
 20
4831732.0017610965
 10
628143.9856776693
 20
4831723.667363691
 10
628180.4540017276
 20
4831797.146475277
 10
628220.3669482872
 20
4831813.952666767
  0
LWPOLYLINE
  5
275
330
17
100
AcDbEntity
  8
ROADS
100
AcDbPolyline
 90
4
 70
0
 10
628217.8813802802
 20
4831765.322610927
 10
628196.8533593032
 20
4831783.181857299
 10
628219.2030391592
 20
4831794.6263868455
 10
628220.3669482872
 20
4831813.952666767
  0
LWPOLYLINE
  5
276
330
17
100
AcDbEntity
  8
ROADS
100
AcDbPolyline
 90
3
 70
0
 10
628217.8813802802
 20
4831765.322610927
 10
628251.4760256056
 20
4831807.141270904
 10
628233.8311518976
 20
4831921.643903251
  0
LWPOLYLINE
  5
277
330
17
100
AcDbEntity
  8
ROADS
100
AcDbPolyline
 90
3
 70
0
 10
628220.3669482872
 20
4831813.952666767
 10
628235.1125413565
 20
4831838.824686557
 10
628220.0697481494
 20
4831920.23318096
  0
LWPOLYLINE
  5
278
330
17
100
AcDbEntity
  8
ROADS
100
AcDbPolyline
 90
2
 70
0
 10
628220.0697481494
 20
4831920.23318096
 10
628233.8311518976
 20
4831921.643903251
  0
LWPOLYLINE
  5
279
330
17
100
AcDbEntity
  8
ROADS
100
AcDbPolyline
 90
2
 70
0
 10
628233.8311518976
 20
4831921.643903251
 10
628263.1582768484
 20
4831959.047191644
  0
LWPOLYLINE
  5
27A
330
17
100
AcDbEntity
  8
ROADS
100
AcDbPolyline
 90
2
 70
0
 10
628220.0697481494
 20
4831920.23318096
 10
628253.4683618404
 20
4832003.729019038
  0
LWPOLYLINE
  5
27B
330
17
100
AcDbEntity
  8
ROADS
100
AcDbPolyline
 90
3
 70
0
 10
628263.1582768484
 20
4831959.047191644
 10
628262.0607072213
 20
4831984.701026371
 10
628303.0068412512
 20
4832026.6285448065
  0
LWPOLYLINE
  5
27C
330
17
100
AcDbEntity
  8
ROADS
100
AcDbPolyline
 90
2
 70
0
 10
628253.4683618404
 20
4832003.729019038
 10
628281.398438224
 20
4832048.9335823385
  0
LWPOLYLINE
  5
27D
330
17
100
AcDbEntity
  8
ROADS
100
AcDbPolyline
 90
15
 70
0
 10
627934.8607901182
 20
4832025.372955568
 10
628123.8962255085
 20
4832071.516344819
 10
628140.2848467096
 20
4832101.815405333
 10
628233.7881900872
 20
4832126.096379232
 10
628237.7632550708
 20
4832103.082708123
 10
628152.5270356475
 20
4832081.536285197
 10
628228.0043782227
 20
4832094.904856678
 10
628232.6348549781
 20
4832039.104902354
 10
628204.0082601192
 20
4832036.378511605
 10
628196.6179262695
 20
4831996.575410426
 10
628162.5281313673
 20
4831990.2430843115
 10
628146.1804340841
 20
4831959.947767062
 10
628096.0800201086
 20
4831935.992040828
 10
627954.2385562665
 20
4832013.167284056
 10
627938.8404580074
 20
4832009.077816664
  0
LWPOLYLINE
  5
27E
330
17
100
AcDbEntity
  8
ROADS
100
AcDbPolyline
 90
2
 70
0
 10
628253.4683618404
 20
4832003.729019038
 10
628264.7513280818
 20
4832073.177382054
  0
LWPOLYLINE
  5
27F
330
17
100
AcDbEntity
  8
ROADS
100
AcDbPolyline
 90
2
 70
0
 10
628281.398438224
 20
4832048.9335823385
 10
628264.7513280818
 20
4832073.177382054
  0
LWPOLYLINE
  5
280
330
17
100
AcDbEntity
  8
ROADS
100
AcDbPolyline
 90
3
 70
0
 10
628251.142953417
 20
4832138.004915428
 10
627979.4759960757
 20
4832069.520872849
 10
627909.8113450111
 20
4832124.712715902
  0
LWPOLYLINE
  5
281
330
17
100
AcDbEntity
  8
ROADS
100
AcDbPolyline
 90
2
 70
0
 10
628264.7513280818
 20
4832073.177382054
 10
628251.142953417
 20
4832138.004915428
  0
LWPOLYLINE
  5
282
330
17
100
AcDbEntity
  8
ROADS
100
AcDbPolyline
 90
4
 70
0
 10
627909.8113450111
 20
4832124.712715902
 10
627935.6752704631
 20
4832125.085046135
 10
627975.9286000303
 20
4832074.290084983
 10
628251.142953417
 20
4832138.004915428
  0
LWPOLYLINE
  5
283
330
17
100
AcDbEntity
  8
ROADS
100
AcDbPolyline
 90
2
 70
0
 10
627909.8113450111
 20
4832124.712715902
 10
628191.6154689873
 20
4832260.089077268
  0
LWPOLYLINE
  5
284
330
17
100
AcDbEntity
  8
ROADS
100
AcDbPolyline
 90
2
 70
0
 10
628251.142953417
 20
4832138.004915428
 10
628191.6154689873
 20
4832260.089077268
  0
LWPOLYLINE
  5
285
330
17
100
AcDbEntity
  8
ROADS
100
AcDbPolyline
 90
2
 70
0
 10
628251.142953417
 20
4832138.004915428
 10
628205.4110114004
 20
4832263.484558744
  0
LWPOLYLINE
  5
286
330
17
100
AcDbEntity
  8
ROADS
100
AcDbPolyline
 90
2
 70
0
 10
628184.5434628191
 20
4832276.280345639
 10
627903.5054368593
 20
4832149.5913697705
  0
LWPOLYLINE
  5
287
330
17
100
AcDbEntity
  8
ROADS
100
AcDbPolyline
 90
2
 70
0
 10
628191.6154689873
 20
4832260.089077268
 10
628205.4110114004
 20
4832263.484558744
  0
LWPOLYLINE
  5
288
330
17
100
AcDbEntity
  8
ROADS
100
AcDbPolyline
 90
3
 70
0
 10
628263.1582768484
 20
4831959.047191644
 10
628322.6359014938
 20
4831976.605938742
 10
628303.0068412512
 20
4832026.6285448065
  0
LWPOLYLINE
  5
289
330
17
100
AcDbEntity
  8
ROADS
100
AcDbPolyline
 90
2
 70
0
 10
628303.0068412512
 20
4832026.6285448065
 10
628281.398438224
 20
4832048.9335823385
  0
LWPOLYLINE
  5
28A
330
17
100
AcDbEntity
  8
ROADS
100
AcDbPolyline
 90
3
 70
0
 10
628281.398438224
 20
4832048.9335823385
 10
628285.5415519018
 20
4832098.090632587
 10
628303.0068412512
 20
4832026.6285448065
  0
LWPOLYLINE
  5
28B
330
17
100
AcDbEntity
  8
ROADS
100
AcDbPolyline
 90
4
 70
0
 10
628251.142953417
 20
4832138.004915428
 10
628291.5314805574
 20
4832154.182503024
 10
628348.7798983437
 20
4832202.849036175
 10
628356.3840916632
 20
4832253.009199573
  0
LWPOLYLINE
  5
28C
330
17
100
AcDbEntity
  8
ROADS
100
AcDbPolyline
 90
4
 70
0
 10
628356.3840916632
 20
4832253.009199573
 10
628353.3328468502
 20
4832198.828037178
 10
628290.9035705308
 20
4832147.865747419
 10
628251.142953417
 20
4832138.004915428
  0
LWPOLYLINE
  5
28D
330
17
100
AcDbEntity
  8
ROADS
100
AcDbPolyline
 90
3
 70
0
 10
628268.9024752772
 20
4832265.955900848
 10
628318.0683467936
 20
4832234.814217156
 10
628356.3840916632
 20
4832253.009199573
  0
LWPOLYLINE
  5
28E
330
17
100
AcDbEntity
  8
ROADS
100
AcDbPolyline
 90
2
 70
0
 10
628356.3840916632
 20
4832253.009199573
 10
628366.1143796396
 20
4832351.335422163
  0
LWPOLYLINE
  5
28F
330
17
100
AcDbEntity
  8
ROADS
100
AcDbPolyline
 90
2
 70
0
 10
628398.5837922441
 20
4832348.261396104
 10
628366.1143796396
 20
4832351.335422163
  0
LWPOLYLINE
  5
290
330
17
100
AcDbEntity
  8
ROADS
100
AcDbPolyline
 90
2
 70
0
 10
628268.9024752772
 20
4832265.955900848
 10
628375.3604502918
 20
4832499.230636714
  0
LWPOLYLINE
  5
291
330
17
100
AcDbEntity
  8
ROADS
100
AcDbPolyline
 90
3
 70
0
 10
628472.2308500794
 20
4832400.493513297
 10
628490.8996231644
 20
4832376.222241084
 10
628517.9020033815
 20
4832384.877704898
  0
LWPOLYLINE
  5
292
330
17
100
AcDbEntity
  8
ROADS
100
AcDbPolyline
 90
11
 70
0
 10
628366.1143796396
 20
4832351.335422163
 10
628531.4750253314
 20
4832329.138287547
 10
628788.9657967301
 20
4832393.019995465
 10
628935.3491100316
 20
4832486.687211131
 10
629043.5268800819
 20
4832347.24648817
 10
628833.3153376667
 20
4832181.1802193485
 10
628827.0240294037
 20
4832160.5851764865
 10
628884.8972141405
 20
4832132.284936548
 10
629234.2502741208
 20
4832399.408108364
 10
629260.3015953554
 20
4832429.816884756
 10
629249.7037667931
 20
4832454.451067263
  0
LWPOLYLINE
  5
293
330
17
100
AcDbEntity
  8
ROADS
100
AcDbPolyline
 90
4
 70
0
 10
628722.7845848993
 20
4832404.908979059
 10
628697.6243622241
 20
4832372.895247216
 10
628530.91672487
 20
4832331.311342717
 10
628398.5837922441
 20
4832348.261396104
  0
LWPOLYLINE
  5
294
330
17
100
AcDbEntity
  8
ROADS
100
AcDbPolyline
 90
3
 70
0
 10
628649.7368088826
 20
4832395.220462004
 10
628575.592072773
 20
4832401.687192223
 10
628517.9020033815
 20
4832384.877704898
  0
LWPOLYLINE
  5
295
330
17
100
AcDbEntity
  8
ROADS
100
AcDbPolyline
 90
2
 70
0
 10
628722.7845848993
 20
4832404.908979059
 10
628649.7368088826
 20
4832395.220462004
  0
LWPOLYLINE
  5
296
330
17
100
AcDbEntity
  8
ROADS
100
AcDbPolyline
 90
2
 70
0
 10
628649.7368088826
 20
4832395.220462004
 10
628629.070491876
 20
4832446.687947091
  0
LWPOLYLINE
  5
297
330
17
100
AcDbEntity
  8
ROADS
100
AcDbPolyline
 90
2
 70
0
 10
628741.1505510844
 20
4832492.643148912
 10
628722.7845848993
 20
4832404.908979059
  0
LWPOLYLINE
  5
298
330
17
100
AcDbEntity
  8
ROADS
100
AcDbPolyline
 90
2
 70
0
 10
628629.070491876
 20
4832446.687947091
 10
628550.370250696
 20
4832458.147181266
  0
LWPOLYLINE
  5
299
330
17
100
AcDbEntity
  8
ROADS
100
AcDbPolyline
 90
3
 70
0
 10
628741.1505510844
 20
4832492.643148912
 10
628695.356629556
 20
4832454.615683344
 10
628629.070491876
 20
4832446.687947091
  0
LWPOLYLINE
  5
29A
330
17
100
AcDbEntity
  8
ROADS
100
AcDbPolyline
 90
2
 70
0
 10
628769.6879053889
 20
4832571.758544927
 10
628741.1505510844
 20
4832492.643148912
  0
LWPOLYLINE
  5
29B
330
17
100
AcDbEntity
  8
ROADS
100
AcDbPolyline
 90
6
 70
0
 10
628383.38890293
 20
4832491.7632151
 10
628434.5708719719
 20
4832508.553118389
 10
628580.2565861018
 20
4832458.514216992
 10
628687.3805640389
 20
4832458.408816258
 10
628740.6561805519
 20
4832502.90039674
 10
628788.8409593285
 20
4832637.573001379
  0
LWPOLYLINE
  5
29C
330
17
100
AcDbEntity
  8
ROADS
100
AcDbPolyline
 90
3
 70
0
 10
628517.9020033815
 20
4832384.877704898
 10
628523.4250747133
 20
4832407.086958347
 10
628510.5381479741
 20
4832426.378875141
  0
LWPOLYLINE
  5
29D
330
17
100
AcDbEntity
  8
ROADS
100
AcDbPolyline
 90
3
 70
0
 10
628510.5381479741
 20
4832426.378875141
 10
628485.1666190937
 20
4832423.299741288
 10
628472.2308500794
 20
4832400.493513297
  0
LWPOLYLINE
  5
29E
330
17
100
AcDbEntity
  8
ROADS
100
AcDbPolyline
 90
2
 70
0
 10
628398.5837922441
 20
4832348.261396104
 10
628403.7470668138
 20
4832492.750130308
  0
LWPOLYLINE
  5
29F
330
17
100
AcDbEntity
  8
ROADS
100
AcDbPolyline
 90
3
 70
0
 10
628366.1143796396
 20
4832351.335422163
 10
628362.9335444969
 20
4832433.376799951
 10
628383.38890293
 20
4832491.7632151
  0
LWPOLYLINE
  5
2A0
330
17
100
AcDbEntity
  8
ROADS
100
AcDbPolyline
 90
2
 70
0
 10
628510.5381479741
 20
4832426.378875141
 10
628550.370250696
 20
4832458.147181266
  0
LWPOLYLINE
  5
2A1
330
17
100
AcDbEntity
  8
ROADS
100
AcDbPolyline
 90
2
 70
0
 10
628472.2308500794
 20
4832400.493513297
 10
628403.7470668138
 20
4832492.750130308
  0
LWPOLYLINE
  5
2A2
330
17
100
AcDbEntity
  8
ROADS
100
AcDbPolyline
 90
2
 70
0
 10
628510.5381479741
 20
4832426.378875141
 10
628512.0788518809
 20
4832471.423171687
  0
LWPOLYLINE
  5
2A3
330
17
100
AcDbEntity
  8
ROADS
100
AcDbPolyline
 90
2
 70
0
 10
628550.370250696
 20
4832458.147181266
 10
628512.0788518809
 20
4832471.423171687
  0
LWPOLYLINE
  5
2A4
330
17
100
AcDbEntity
  8
ROADS
100
AcDbPolyline
 90
3
 70
0
 10
628278.1928711697
 20
4832528.216801157
 10
628298.1870994047
 20
4832502.12638143
 10
628310.4933585759
 20
4832435.024376863
  0
LWPOLYLINE
  5
2A5
330
17
100
AcDbEntity
  8
ROADS
100
AcDbPolyline
 90
3
 70
0
 10
628512.0788518809
 20
4832471.423171687
 10
628442.4040173526
 20
4832498.999030055
 10
628403.7470668138
 20
4832492.750130308
  0
LWPOLYLINE
  5
2A6
330
17
100
AcDbEntity
  8
ROADS
100
AcDbPolyline
 90
2
 70
0
 10
628205.4110114004
 20
4832263.484558744
 10
628268.9024752772
 20
4832265.955900848
  0
LWPOLYLINE
  5
2A7
330
17
100
AcDbEntity
  8
ROADS
100
AcDbPolyline
 90
2
 70
0
 10
628191.6154689873
 20
4832260.089077268
 10
628184.5434628191
 20
4832276.280345639
  0
LWPOLYLINE
  5
2A8
330
17
100
AcDbEntity
  8
ROADS
100
AcDbPolyline
 90
2
 70
0
 10
628184.5434628191
 20
4832276.280345639
 10
628106.6433889103
 20
4832460.303683381
  0
LWPOLYLINE
  5
2A9
330
17
100
AcDbEntity
  8
ROADS
100
AcDbPolyline
 90
3
 70
0
 10
628361.5157825999
 20
4832506.688964176
 10
628279.1695102167
 20
4832335.8919521
 10
628184.5434628191
 20
4832276.280345639
  0
LWPOLYLINE
  5
2AA
330
17
100
AcDbEntity
  8
ROADS
100
AcDbPolyline
 90
2
 70
0
 10
628278.1928711697
 20
4832528.216801157
 10
628106.6433889103
 20
4832460.303683381
  0
LWPOLYLINE
  5
2AB
330
17
100
AcDbEntity
  8
ROADS
100
AcDbPolyline
 90
3
 70
0
 10
628278.1928711697
 20
4832528.216801157
 10
628233.9555115302
 20
4832640.229736915
 10
628241.6132933146
 20
4832678.17857032
  0
LWPOLYLINE
  5
2AC
330
17
100
AcDbEntity
  8
ROADS
100
AcDbPolyline
 90
2
 70
0
 10
628283.5790331004
 20
4832702.583457175
 10
628241.6132933146
 20
4832678.17857032
  0
LWPOLYLINE
  5
2AD
330
17
100
AcDbEntity
  8
ROADS
100
AcDbPolyline
 90
2
 70
0
 10
628283.5790331004
 20
4832702.583457175
 10
628245.7750259009
 20
4832828.625533329
  0
LWPOLYLINE
  5
2AE
330
17
100
AcDbEntity
  8
ROADS
100
AcDbPolyline
 90
2
 70
0
 10
628302.3080420201
 20
4832791.417661994
 10
628258.2912606518
 20
4832826.554566758
  0
LWPOLYLINE
  5
2AF
330
17
100
AcDbEntity
  8
ROADS
100
AcDbPolyline
 90
2
 70
0
 10
628278.9484731471
 20
4832823.130619155
 10
628258.2912606518
 20
4832826.554566758
  0
LWPOLYLINE
  5
2B0
330
17
100
AcDbEntity
  8
ROADS
100
AcDbPolyline
 90
2
 70
0
 10
628403.7470668138
 20
4832492.750130308
 10
628383.38890293
 20
4832491.7632151
  0
LWPOLYLINE
  5
2B1
330
17
100
AcDbEntity
  8
ROADS
100
AcDbPolyline
 90
2
 70
0
 10
628383.38890293
 20
4832491.7632151
 10
628375.3604502918
 20
4832499.230636714
  0
LWPOLYLINE
  5
2B2
330
17
100
AcDbEntity
  8
ROADS
100
AcDbPolyline
 90
2
 70
0
 10
628375.3604502918
 20
4832499.230636714
 10
628361.5157825999
 20
4832506.688964176
  0
LWPOLYLINE
  5
2B3
330
17
100
AcDbEntity
  8
ROADS
100
AcDbPolyline
 90
2
 70
0
 10
628361.5157825999
 20
4832506.688964176
 10
628332.6498679791
 20
4832550.13521595
  0
LWPOLYLINE
  5
2B4
330
17
100
AcDbEntity
  8
ROADS
100
AcDbPolyline
 90
2
 70
0
 10
628332.6498679791
 20
4832550.13521595
 10
628278.1928711697
 20
4832528.216801157
  0
LWPOLYLINE
  5
2B5
330
17
100
AcDbEntity
  8
ROADS
100
AcDbPolyline
 90
3
 70
0
 10
628375.3604502918
 20
4832499.230636714
 10
628451.5322750149
 20
4832562.109101462
 10
628538.2876502861
 20
4832593.948791529
  0
LWPOLYLINE
  5
2B6
330
17
100
AcDbEntity
  8
ROADS
100
AcDbPolyline
 90
2
 70
0
 10
628448.1958738142
 20
4832596.487066707
 10
628361.5157825999
 20
4832506.688964176
  0
LWPOLYLINE
  5
2B7
330
17
100
AcDbEntity
  8
ROADS
100
AcDbPolyline
 90
3
 70
0
 10
628375.3604502918
 20
4832499.230636714
 10
628440.8930147521
 20
4832570.552411681
 10
628533.9772078485
 20
4832606.907756992
  0
LWPOLYLINE
  5
2B8
330
17
100
AcDbEntity
  8
ROADS
100
AcDbPolyline
 90
2
 70
0
 10
628448.1958738142
 20
4832596.487066707
 10
628332.6498679791
 20
4832550.13521595
  0
LWPOLYLINE
  5
2B9
330
17
100
AcDbEntity
  8
ROADS
100
AcDbPolyline
 90
2
 70
0
 10
628538.2876502861
 20
4832593.948791529
 10
628533.9772078485
 20
4832606.907756992
  0
LWPOLYLINE
  5
2BA
330
17
100
AcDbEntity
  8
ROADS
100
AcDbPolyline
 90
2
 70
0
 10
628769.6879053889
 20
4832571.758544927
 10
628788.8409593285
 20
4832637.573001379
  0
LWPOLYLINE
  5
2BB
330
17
100
AcDbEntity
  8
ROADS
100
AcDbPolyline
 90
2
 70
0
 10
628538.2876502861
 20
4832593.948791529
 10
628788.8409593285
 20
4832637.573001379
  0
LWPOLYLINE
  5
2BC
330
17
100
AcDbEntity
  8
ROADS
100
AcDbPolyline
 90
2
 70
0
 10
628755.4992874621
 20
4832653.0940690655
 10
628520.5510424592
 20
4832621.0910875965
  0
LWPOLYLINE
  5
2BD
330
17
100
AcDbEntity
  8
ROADS
100
AcDbPolyline
 90
2
 70
0
 10
628788.8409593285
 20
4832637.573001379
 10
628797.3912518963
 20
4832657.732840931
  0
LWPOLYLINE
  5
2BE
330
17
100
AcDbEntity
  8
ROADS
100
AcDbPolyline
 90
2
 70
0
 10
628797.3912518963
 20
4832657.732840931
 10
628755.4992874621
 20
4832653.0940690655
  0
LWPOLYLINE
  5
2BF
330
17
100
AcDbEntity
  8
ROADS
100
AcDbPolyline
 90
2
 70
0
 10
628795.3960643499
 20
4832677.105577746
 10
628755.4992874621
 20
4832653.0940690655
  0
LWPOLYLINE
  5
2C0
330
17
100
AcDbEntity
  8
ROADS
100
AcDbPolyline
 90
2
 70
0
 10
628772.4714944003
 20
4832674.119644141
 10
628715.081863867
 20
4832676.37879319
  0
LWPOLYLINE
  5
2C1
330
17
100
AcDbEntity
  8
ROADS
100
AcDbPolyline
 90
2
 70
0
 10
628795.3960643499
 20
4832677.105577746
 10
628772.4714944003
 20
4832674.119644141
  0
LWPOLYLINE
  5
2C2
330
17
100
AcDbEntity
  8
ROADS
100
AcDbPolyline
 90
2
 70
0
 10
628715.081863867
 20
4832676.37879319
 10
628628.8557614415
 20
4832702.245439507
  0
LWPOLYLINE
  5
2C3
330
17
100
AcDbEntity
  8
ROADS
100
AcDbPolyline
 90
2
 70
0
 10
628628.8557614415
 20
4832702.245439507
 10
628508.3588626405
 20
4832722.166420438
  0
LWPOLYLINE
  5
2C4
330
17
100
AcDbEntity
  8
ROADS
100
AcDbPolyline
 90
2
 70
0
 10
628520.5510424592
 20
4832621.0910875965
 10
628448.1958738142
 20
4832596.487066707
  0
LWPOLYLINE
  5
2C5
330
17
100
AcDbEntity
  8
ROADS
100
AcDbPolyline
 90
2
 70
0
 10
628533.9772078485
 20
4832606.907756992
 10
628520.5510424592
 20
4832621.0910875965
  0
LWPOLYLINE
  5
2C6
330
17
100
AcDbEntity
  8
ROADS
100
AcDbPolyline
 90
2
 70
0
 10
628332.6498679791
 20
4832550.13521595
 10
628283.5790331004
 20
4832702.583457175
  0
LWPOLYLINE
  5
2C7
330
17
100
AcDbEntity
  8
ROADS
100
AcDbPolyline
 90
2
 70
0
 10
628508.3588626405
 20
4832722.166420438
 10
628520.5510424592
 20
4832621.0910875965
  0
LWPOLYLINE
  5
2C8
330
17
100
AcDbEntity
  8
ROADS
100
AcDbPolyline
 90
2
 70
0
 10
628363.8521895508
 20
4832713.489671255
 10
628283.5790331004
 20
4832702.583457175
  0
LWPOLYLINE
  5
2C9
330
17
100
AcDbEntity
  8
ROADS
100
AcDbPolyline
 90
2
 70
0
 10
628508.3588626405
 20
4832722.166420438
 10
628363.8521895508
 20
4832713.489671255
  0
LWPOLYLINE
  5
2CA
330
17
100
AcDbEntity
  8
ROADS
100
AcDbPolyline
 90
2
 70
0
 10
628363.8521895508
 20
4832713.489671255
 10
628352.2265783593
 20
4832822.890734738
  0
LWPOLYLINE
  5
2CB
330
17
100
AcDbEntity
  8
ROADS
100
AcDbPolyline
 90
2
 70
0
 10
628302.3080420201
 20
4832791.417661994
 10
628278.9484731471
 20
4832823.130619155
  0
LWPOLYLINE
  5
2CC
330
17
100
AcDbEntity
  8
ROADS
100
AcDbPolyline
 90
3
 70
0
 10
628339.2731692202
 20
4832823.198687462
 10
628327.7673503105
 20
4832797.1370804
 10
628302.3080420201
 20
4832791.417661994
  0
LWPOLYLINE
  5
2CD
330
17
100
AcDbEntity
  8
ROADS
100
AcDbPolyline
 90
2
 70
0
 10
628352.2265783593
 20
4832822.890734738
 10
628339.2731692202
 20
4832823.198687462
  0
LWPOLYLINE
  5
2CE
330
17
100
AcDbEntity
  8
ROADS
100
AcDbPolyline
 90
2
 70
0
 10
628772.4714944003
 20
4832674.119644141
 10
628759.7603039652
 20
4832757.206478067
  0
LWPOLYLINE
  5
2CF
330
17
100
AcDbEntity
  8
ROADS
100
AcDbPolyline
 90
2
 70
0
 10
628866.2621804748
 20
4832769.7807766
 10
628759.7603039652
 20
4832757.206478067
  0
LWPOLYLINE
  5
2D0
330
17
100
AcDbEntity
  8
ROADS
100
AcDbPolyline
 90
2
 70
0
 10
628715.081863867
 20
4832676.37879319
 10
628717.3662227354
 20
4832852.62875481
  0
LWPOLYLINE
  5
2D1
330
17
100
AcDbEntity
  8
ROADS
100
AcDbPolyline
 90
2
 70
0
 10
628642.6551599007
 20
4832843.504122005
 10
628628.8557614415
 20
4832702.245439507
  0
LWPOLYLINE
  5
2D2
330
17
100
AcDbEntity
  8
ROADS
100
AcDbPolyline
 90
3
 70
0
 10
628642.6551599007
 20
4832843.504122005
 10
628538.8917022219
 20
4832809.66989216
 10
628508.3588626405
 20
4832722.166420438
  0
LWPOLYLINE
  5
2D3
330
17
100
AcDbEntity
  8
ROADS
100
AcDbPolyline
 90
2
 70
0
 10
628759.7603039652
 20
4832757.206478067
 10
628744.3154041275
 20
4832854.045820869
  0
LWPOLYLINE
  5
2D4
330
17
100
AcDbEntity
  8
ROADS
100
AcDbPolyline
 90
2
 70
0
 10
628717.3662227354
 20
4832852.62875481
 10
628642.6551599007
 20
4832843.504122005
  0
LWPOLYLINE
  5
2D5
330
17
100
AcDbEntity
  8
ROADS
100
AcDbPolyline
 90
2
 70
0
 10
628744.3154041275
 20
4832854.045820869
 10
628717.3662227354
 20
4832852.62875481
  0
LWPOLYLINE
  5
2D6
330
17
100
AcDbEntity
  8
ROADS
100
AcDbPolyline
 90
2
 70
0
 10
628830.7108431165
 20
4832892.745566369
 10
628744.3154041275
 20
4832854.045820869
  0
LWPOLYLINE
  5
2D7
330
17
100
AcDbEntity
  8
ROADS
100
AcDbPolyline
 90
2
 70
0
 10
628489.9266540569
 20
4832896.71081075
 10
628722.4428325935
 20
4832986.480365914
  0
LWPOLYLINE
  5
2D8
330
17
100
AcDbEntity
  8
ROADS
100
AcDbPolyline
 90
2
 70
0
 10
627912.987412852
 20
4831846.48533294
 10
627922.1345342692
 20
4831814.072718475
  0
LWPOLYLINE
  5
2D9
330
17
100
AcDbEntity
  8
ROADS
100
AcDbPolyline
 90
2
 70
0
 10
627901.9957299065
 20
4831848.476872684
 10
627900.2861759595
 20
4831827.389305739
  0
LWPOLYLINE
  5
2DA
330
17
100
AcDbEntity
  8
ROADS
100
AcDbPolyline
 90
2
 70
0
 10
627912.987412852
 20
4831846.48533294
 10
627901.9957299065
 20
4831848.476872684
  0
LWPOLYLINE
  5
2DB
330
17
100
AcDbEntity
  8
ROADS
100
AcDbPolyline
 90
3
 70
0
 10
627935.9592677398
 20
4831919.9120604405
 10
627944.5605413275
 20
4831888.046424178
 10
627901.9957299065
 20
4831848.476872684
  0
LWPOLYLINE
  5
2DC
330
17
100
AcDbEntity
  8
ROADS
100
AcDbPolyline
 90
4
 70
0
 10
627941.0407430211
 20
4831933.076710618
 10
627966.3291372648
 20
4831904.307762241
 10
627964.8074010122
 20
4831871.5211700145
 10
627912.987412852
 20
4831846.48533294
  0
LWPOLYLINE
  5
2DD
330
17
100
AcDbEntity
  8
ROADS
100
AcDbPolyline
 90
4
 70
0
 10
627776.4352676064
 20
4831930.967082785
 10
627771.6729516371
 20
4831955.6591216745
 10
627875.890124102
 20
4831968.96790193
 10
627935.9592677398
 20
4831919.9120604405
  0
LWPOLYLINE
  5
2DE
330
17
100
AcDbEntity
  8
ROADS
100
AcDbPolyline
 90
2
 70
0
 10
627941.0407430211
 20
4831933.076710618
 10
627935.9592677398
 20
4831919.9120604405
  0
LWPOLYLINE
  5
2DF
330
17
100
AcDbEntity
  8
ROADS
100
AcDbPolyline
 90
11
 70
0
 10
628165.518522101
 20
4831712.232450162
 10
628172.1371295818
 20
4831712.257729641
 10
628203.9774637703
 20
4831729.069065499
 10
628263.4542170876
 20
4831802.856401881
 10
628249.382324323
 20
4831918.756683125
 10
628340.5018469755
 20
4831970.474330949
 10
628308.507862133
 20
4832120.959070429
 10
628265.9263545581
 20
4832111.757116576
 10
628265.0082006148
 20
4832131.299796148
 10
628360.9627960488
 20
4832197.972839975
 10
628366.1143796396
 20
4832351.335422163
  0
LWPOLYLINE
  5
2E0
330
17
100
AcDbEntity
  8
ROADS
100
AcDbPolyline
 90
4
 70
0
 10
627938.8404580074
 20
4832009.077816664
 10
627920.3024540751
 20
4832004.418582901
 10
627904.3909621163
 20
4831967.527746664
 10
627941.0407430211
 20
4831933.076710618
  0
LWPOLYLINE
  5
2E1
330
17
100
AcDbEntity
  8
ROADS
100
AcDbPolyline
 90
4
 70
0
 10
627716.8989254597
 20
4831999.830789526
 10
627870.0114949634
 20
4832037.558061762
 10
627898.2610047127
 20
4832016.708132733
 10
627934.8607901182
 20
4832025.372955568
  0
LWPOLYLINE
  5
2E2
330
17
100
AcDbEntity
  8
ROADS
100
AcDbPolyline
 90
2
 70
0
 10
627934.8607901182
 20
4832025.372955568
 10
627938.8404580074
 20
4832009.077816664
  0
LWPOLYLINE
  5
2E3
330
17
100
AcDbEntity
  8
ROADS
100
AcDbPolyline
 90
3
 70
0
 10
627901.3855757815
 20
4832093.454484806
 10
627894.5559603677
 20
4832049.297271062
 10
627712.1700068817
 20
4832006.2526546735
  0
LWPOLYLINE
  5
2E4
330
17
100
AcDbEntity
  8
ROADS
100
AcDbPolyline
 90
4
 70
0
 10
627820.8030146166
 20
4832106.595371356
 10
627843.8660519304
 20
4832045.73719629
 10
627889.2706985684
 20
4832056.322226884
 10
627890.4487031344
 20
4832091.084228449
  0
LWPOLYLINE
  5
2E5
330
17
100
AcDbEntity
  8
ROADS
100
AcDbPolyline
 90
2
 70
0
 10
627901.3855757815
 20
4832093.454484806
 10
627890.4487031344
 20
4832091.084228449
  0
LWPOLYLINE
  5
2E6
330
17
100
AcDbEntity
  8
ROADS
100
AcDbPolyline
 90
3
 70
0
 10
627901.3855757815
 20
4832093.454484806
 10
627921.0376544745
 20
4832073.705292697
 10
627909.8113450111
 20
4832124.712715902
  0
LWPOLYLINE
  5
2E7
330
17
100
AcDbEntity
  8
ROADS
100
AcDbPolyline
 90
3
 70
0
 10
627890.4487031344
 20
4832091.084228449
 10
627893.4874525907
 20
4832117.3433074765
 10
627909.8113450111
 20
4832124.712715902
  0
LWPOLYLINE
  5
2E8
330
17
100
AcDbEntity
  8
ROADS
100
AcDbPolyline
 90
2
 70
0
 10
627909.8113450111
 20
4832124.712715902
 10
627901.3855757815
 20
4832093.454484806
  0
LWPOLYLINE
  5
2E9
330
17
100
AcDbEntity
  8
ROADS
100
AcDbPolyline
 90
2
 70
0
 10
627816.5946459643
 20
4832121.489282203
 10
627820.8030146166
 20
4832106.595371356
  0
LWPOLYLINE
  5
2EA
330
17
100
AcDbEntity
  8
ROADS
100
AcDbPolyline
 90
2
 70
0
 10
627669.1000331624
 20
4832068.704945398
 10
627820.8030146166
 20
4832106.595371356
  0
LWPOLYLINE
  5
2EB
330
17
100
AcDbEntity
  8
ROADS
100
AcDbPolyline
 90
2
 70
0
 10
627816.5946459643
 20
4832121.489282203
 10
627659.9357921805
 20
4832084.109054739
  0
LWPOLYLINE
  5
2EC
330
17
100
AcDbEntity
  8
ROADS
100
AcDbPolyline
 90
2
 70
0
 10
627820.8030146166
 20
4832106.595371356
 10
627909.8113450111
 20
4832124.712715902
  0
LWPOLYLINE
  5
2ED
330
17
100
AcDbEntity
  8
ROADS
100
AcDbPolyline
 90
2
 70
0
 10
627903.5054368593
 20
4832149.5913697705
 10
627816.5946459643
 20
4832121.489282203
  0
LWPOLYLINE
  5
2EE
330
17
100
AcDbEntity
  8
ROADS
100
AcDbPolyline
 90
2
 70
0
 10
627909.8113450111
 20
4832124.712715902
 10
627903.5054368593
 20
4832149.5913697705
  0
LWPOLYLINE
  5
2EF
330
17
100
AcDbEntity
  8
ROADS
100
AcDbPolyline
 90
2
 70
0
 10
627903.5054368593
 20
4832149.5913697705
 10
627891.3409372941
 20
4832197.284625189
  0
LWPOLYLINE
  5
2F0
330
17
100
AcDbEntity
  8
ROADS
100
AcDbPolyline
 90
2
 70
0
 10
627816.5946459643
 20
4832121.489282203
 10
627760.7895530098
 20
4832327.351058105
  0
LWPOLYLINE
  5
2F1
330
17
100
AcDbEntity
  8
ROADS
100
AcDbPolyline
 90
2
 70
0
 10
627832.6578512732
 20
4832353.267259277
 10
627760.7895530098
 20
4832327.351058105
  0
LWPOLYLINE
  5
2F2
330
17
100
AcDbEntity
  8
ROADS
100
AcDbPolyline
 90
2
 70
0
 10
628106.6433889103
 20
4832460.303683381
 10
627832.6578512732
 20
4832353.267259277
  0
LWPOLYLINE
  5
2F3
330
17
100
AcDbEntity
  8
ROADS
100
AcDbPolyline
 90
5
 70
0
 10
628241.6132933146
 20
4832678.17857032
 10
628118.7905476388
 20
4832721.832038462
 10
628075.819422289
 20
4832762.306171019
 10
628028.7731219223
 20
4832771.618653193
 10
627557.5298506643
 20
4832586.850763445
  0
LWPOLYLINE
  5
2F4
330
17
100
AcDbEntity
  8
ROADS
100
AcDbPolyline
 90
2
 70
0
 10
627929.6683332308
 20
4832964.226166968
 10
627948.1770366858
 20
4832900.474045336
  0
LWPOLYLINE
  5
2F5
330
17
100
AcDbEntity
  8
ROADS
100
AcDbPolyline
 90
3
 70
0
 10
627854.8487620922
 20
4832942.189743996
 10
627808.1114141907
 20
4832931.474503615
 10
627668.6086504908
 20
4832958.088329003
  0
LWPOLYLINE
  5
2F6
330
17
100
AcDbEntity
  8
ROADS
100
AcDbPolyline
 90
2
 70
0
 10
627529.2965203201
 20
4832435.280622295
 10
627603.5816098807
 20
4832465.380236837
  0
LWPOLYLINE
  5
2F7
330
17
100
AcDbEntity
  8
ROADS
100
AcDbPolyline
 90
2
 70
0
 10
627557.5298506643
 20
4832586.850763445
 10
627491.5608718038
 20
4832561.028379783
  0
LWPOLYLINE
  5
2F8
330
17
100
AcDbEntity
  8
ROADS
100
AcDbPolyline
 90
2
 70
0
 10
627467.3420792198
 20
4832679.499932057
 10
627428.3383693101
 20
4832813.906540539
  0
LWPOLYLINE
  5
2F9
330
17
100
AcDbEntity
  8
ROADS
100
AcDbPolyline
 90
3
 70
0
 10
627760.7895530098
 20
4832327.351058105
 10
627616.1609003912
 20
4832254.268231766
 10
627587.1691908007
 20
4832245.183637279
  0
LWPOLYLINE
  5
2FA
330
17
100
AcDbEntity
  8
ROADS
100
AcDbPolyline
 90
3
 70
0
 10
627832.6578512732
 20
4832353.267259277
 10
627762.6805512299
 20
4832513.64604325
 10
627603.5816098807
 20
4832465.380236837
  0
LWPOLYLINE
  5
2FB
330
17
100
AcDbEntity
  8
ROADS
100
AcDbPolyline
 90
2
 70
0
 10
627603.5816098807
 20
4832465.380236837
 10
627557.5298506643
 20
4832586.850763445
  0
LWPOLYLINE
  5
2FC
330
17
100
AcDbEntity
  8
ROADS
100
AcDbPolyline
 90
2
 70
0
 10
628214.5729097308
 20
4832924.866948985
 10
627470.9629284963
 20
4832629.668398944
  0
LWPOLYLINE
  5
2FD
330
17
100
AcDbEntity
  8
ROADS
100
AcDbPolyline
 90
2
 70
0
 10
627509.150743709
 20
4832833.456048749
 10
627478.6737201378
 20
4832936.615787615
  0
LWPOLYLINE
  5
2FE
330
17
100
AcDbEntity
  8
ROADS
100
AcDbPolyline
 90
3
 70
0
 10
627668.6086504908
 20
4832958.088329003
 10
627597.5491243884
 20
4832970.044009253
 10
627478.6737201378
 20
4832936.615787615
  0
LWPOLYLINE
  5
2FF
330
17
100
AcDbEntity
  8
ROADS
100
AcDbPolyline
 90
3
 70
0
 10
627769.9144688785
 20
4833002.669293374
 10
627674.5231986985
 20
4832979.2735460345
 10
627668.6086504908
 20
4832958.088329003
  0
LWPOLYLINE
  5
300
330
17
100
AcDbEntity
  8
ROADS
100
AcDbPolyline
 90
2
 70
0
 10
627747.8688728649
 20
4833112.969413891
 10
627726.5211159794
 20
4833154.3842662675
  0
LWPOLYLINE
  5
301
330
17
100
AcDbEntity
  8
ROADS
100
AcDbPolyline
 90
2
 70
0
 10
627474.215979131
 20
4833162.532378997
 10
627726.5211159794
 20
4833154.3842662675
  0
LWPOLYLINE
  5
302
330
17
100
AcDbEntity
  8
ROADS
100
AcDbPolyline
 90
2
 70
0
 10
627726.5211159794
 20
4833154.3842662675
 10
627720.9220045658
 20
4833195.873713263
  0
LWPOLYLINE
  5
303
330
17
100
AcDbEntity
  8
ROADS
100
AcDbPolyline
 90
2
 70
0
 10
627478.6737201378
 20
4832936.615787615
 10
627421.7657692316
 20
4832919.2442213725
  0
LWPOLYLINE
  5
304
330
17
100
AcDbEntity
  8
ROADS
100
AcDbPolyline
 90
2
 70
0
 10
627879.704061332
 20
4832949.510354352
 10
627854.8487620922
 20
4832942.189743996
  0
LWPOLYLINE
  5
305
330
17
100
AcDbEntity
  8
ROADS
100
AcDbPolyline
 90
2
 70
0
 10
627929.6683332308
 20
4832964.226166968
 10
627879.704061332
 20
4832949.510354352
  0
LWPOLYLINE
  5
306
330
17
100
AcDbEntity
  8
ROADS
100
AcDbPolyline
 90
2
 70
0
 10
627879.704061332
 20
4832949.510354352
 10
627879.1147536635
 20
4832983.724888565
  0
LWPOLYLINE
  5
307
330
17
100
AcDbEntity
  8
ROADS
100
AcDbPolyline
 90
2
 70
0
 10
627854.8487620922
 20
4832942.189743996
 10
627837.5427879905
 20
4832992.098531307
  0
LWPOLYLINE
  5
308
330
17
100
AcDbEntity
  8
ROADS
100
AcDbPolyline
 90
2
 70
0
 10
627929.6683332308
 20
4832964.226166968
 10
627921.968807546
 20
4832990.209694905
  0
LWPOLYLINE
  5
309
330
17
100
AcDbEntity
  8
ROADS
100
AcDbPolyline
 90
2
 70
0
 10
627879.1147536635
 20
4832983.724888565
 10
627921.968807546
 20
4832990.209694905
  0
LWPOLYLINE
  5
30A
330
17
100
AcDbEntity
  8
ROADS
100
AcDbPolyline
 90
2
 70
0
 10
627879.1147536635
 20
4832983.724888565
 10
627876.579539856
 20
4833001.10418498
  0
LWPOLYLINE
  5
30B
330
17
100
AcDbEntity
  8
ROADS
100
AcDbPolyline
 90
3
 70
0
 10
627837.5427879905
 20
4832992.098531307
 10
627822.4263217923
 20
4832991.074971151
 10
627819.0058335532
 20
4833006.474141206
  0
LWPOLYLINE
  5
30C
330
17
100
AcDbEntity
  8
ROADS
100
AcDbPolyline
 90
2
 70
0
 10
627840.5854268427
 20
4833009.284274538
 10
627837.5427879905
 20
4832992.098531307
  0
LWPOLYLINE
  5
30D
330
17
100
AcDbEntity
  8
ROADS
100
AcDbPolyline
 90
2
 70
0
 10
627921.968807546
 20
4832990.209694905
 10
627913.5034947481
 20
4833018.7795488015
  0
LWPOLYLINE
  5
30E
330
17
100
AcDbEntity
  8
ROADS
100
AcDbPolyline
 90
2
 70
0
 10
627462.8587678575
 20
4833163.595077014
 10
627474.215979131
 20
4833162.532378997
  0
LWPOLYLINE
  5
30F
330
17
100
AcDbEntity
  8
ROADS
100
AcDbPolyline
 90
2
 70
0
 10
628339.2731692202
 20
4832823.198687462
 10
628278.9484731471
 20
4832823.130619155
  0
LWPOLYLINE
  5
310
330
17
100
AcDbEntity
  8
ROADS
100
AcDbPolyline
 90
2
 70
0
 10
628352.2265783593
 20
4832822.890734738
 10
628360.7687121226
 20
4832848.370752824
  0
LWPOLYLINE
  5
311
330
17
100
AcDbEntity
  8
ROADS
100
AcDbPolyline
 90
2
 70
0
 10
628360.7687121226
 20
4832848.370752824
 10
628380.9331755766
 20
4832880.515223966
  0
LWPOLYLINE
  5
312
330
17
100
AcDbEntity
  8
ROADS
100
AcDbPolyline
 90
2
 70
0
 10
628360.7687121226
 20
4832848.370752824
 10
628351.6543523308
 20
4832888.368664491
  0
LWPOLYLINE
  5
313
330
17
100
AcDbEntity
  8
ROADS
100
AcDbPolyline
 90
2
 70
0
 10
628380.9331755766
 20
4832880.515223966
 10
628351.6543523308
 20
4832888.368664491
  0
LWPOLYLINE
  5
314
330
17
100
AcDbEntity
  8
ROADS
100
AcDbPolyline
 90
2
 70
0
 10
628380.9331755766
 20
4832880.515223966
 10
628489.9266540569
 20
4832896.71081075
  0
LWPOLYLINE
  5
315
330
17
100
AcDbEntity
  8
ROADS
100
AcDbPolyline
 90
2
 70
0
 10
628226.9868673676
 20
4832887.94687835
 10
628354.3584562674
 20
4832911.228018922
  0
LWPOLYLINE
  5
316
330
17
100
AcDbEntity
  8
ROADS
100
AcDbPolyline
 90
2
 70
0
 10
628351.6543523308
 20
4832888.368664491
 10
628354.3584562674
 20
4832911.228018922
  0
LWPOLYLINE
  5
317
330
17
100
AcDbEntity
  8
ROADS
100
AcDbPolyline
 90
2
 70
0
 10
628489.9266540569
 20
4832896.71081075
 10
628372.3123974989
 20
4832925.352372261
  0
LWPOLYLINE
  5
318
330
17
100
AcDbEntity
  8
ROADS
100
AcDbPolyline
 90
2
 70
0
 10
628354.3584562674
 20
4832911.228018922
 10
628358.7066427222
 20
4832921.969292241
  0
LWPOLYLINE
  5
319
330
17
100
AcDbEntity
  8
ROADS
100
AcDbPolyline
 90
2
 70
0
 10
628258.2912606518
 20
4832826.554566758
 10
628245.7750259009
 20
4832828.625533329
  0
LWPOLYLINE
  5
31A
330
17
100
AcDbEntity
  8
ROADS
100
AcDbPolyline
 90
2
 70
0
 10
628245.7750259009
 20
4832828.625533329
 10
628226.9868673676
 20
4832887.94687835
  0
LWPOLYLINE
  5
31B
330
17
100
AcDbEntity
  8
ROADS
100
AcDbPolyline
 90
2
 70
0
 10
628226.9868673676
 20
4832887.94687835
 10
628214.5729097308
 20
4832924.866948985
  0
LWPOLYLINE
  5
31C
330
17
100
AcDbEntity
  8
ROADS
100
AcDbPolyline
 90
3
 70
0
 10
628043.8365455862
 20
4832900.481131285
 10
628154.8884961085
 20
4832939.064354092
 10
628132.7794257769
 20
4833024.045323433
  0
LWPOLYLINE
  5
31D
330
17
100
AcDbEntity
  8
ROADS
100
AcDbPolyline
 90
2
 70
0
 10
628214.5729097308
 20
4832924.866948985
 10
628178.8541384728
 20
4833037.507289867
  0
LWPOLYLINE
  5
31E
330
17
100
AcDbEntity
  8
ROADS
100
AcDbPolyline
 90
2
 70
0
 10
628079.1792053612
 20
4833008.260721207
 10
627929.6683332308
 20
4832964.226166968
  0
LWPOLYLINE
  5
31F
330
17
100
AcDbEntity
  8
ROADS
100
AcDbPolyline
 90
2
 70
0
 10
628132.7794257769
 20
4833024.045323433
 10
628079.1792053612
 20
4833008.260721207
  0
LWPOLYLINE
  5
320
330
17
100
AcDbEntity
  8
ROADS
100
AcDbPolyline
 90
2
 70
0
 10
628079.1792053612
 20
4833008.260721207
 10
628068.276894365
 20
4833044.264528681
  0
LWPOLYLINE
  5
321
330
17
100
AcDbEntity
  8
ROADS
100
AcDbPolyline
 90
2
 70
0
 10
628178.8541384728
 20
4833037.507289867
 10
628132.7794257769
 20
4833024.045323433
  0
LWPOLYLINE
  5
322
330
17
100
AcDbEntity
  8
ROADS
100
AcDbPolyline
 90
3
 70
0
 10
628311.522999834
 20
4832999.973750445
 10
628288.0803637125
 20
4833062.955226661
 10
628178.8541384728
 20
4833037.507289867
  0
LWPOLYLINE
  5
323
330
17
100
AcDbEntity
  8
ROADS
100
AcDbPolyline
 90
2
 70
0
 10
628737.430141614
 20
4832959.1253773095
 10
628722.4428325935
 20
4832986.480365914
  0
LWPOLYLINE
  5
324
330
17
100
AcDbEntity
  8
ROADS
100
AcDbPolyline
 90
2
 70
0
 10
628722.4428325935
 20
4832986.480365914
 10
628812.9517389031
 20
4833031.476895097
  0
LWPOLYLINE
  5
325
330
17
100
AcDbEntity
  8
ROADS
100
AcDbPolyline
 90
2
 70
0
 10
628722.4428325935
 20
4832986.480365914
 10
628702.1595399575
 20
4833036.55915681
  0
LWPOLYLINE
  5
326
330
17
100
AcDbEntity
  8
ROADS
100
AcDbPolyline
 90
2
 70
0
 10
628702.1595399575
 20
4833036.55915681
 10
628713.0111546617
 20
4833035.790200572
  0
LWPOLYLINE
  5
327
330
17
100
AcDbEntity
  8
ROADS
100
AcDbPolyline
 90
2
 70
0
 10
628812.9517389031
 20
4833031.476895097
 10
628781.8890262418
 20
4833041.418236221
  0
LWPOLYLINE
  5
328
330
17
100
AcDbEntity
  8
ROADS
100
AcDbPolyline
 90
2
 70
0
 10
628812.9517389031
 20
4833031.476895097
 10
628837.526874229
 20
4833041.797669059
  0
LWPOLYLINE
  5
329
330
17
100
AcDbEntity
  8
ROADS
100
AcDbPolyline
 90
2
 70
0
 10
628781.8890262418
 20
4833041.418236221
 10
628733.88662832
 20
4833041.263795214
  0
LWPOLYLINE
  5
32A
330
17
100
AcDbEntity
  8
ROADS
100
AcDbPolyline
 90
3
 70
0
 10
628702.1595399575
 20
4833036.55915681
 10
628697.4173241038
 20
4833051.21843348
 10
628710.9207325319
 20
4833054.897692111
  0
LWPOLYLINE
  5
32B
330
17
100
AcDbEntity
  8
ROADS
100
AcDbPolyline
 90
3
 70
0
 10
628781.8890262418
 20
4833041.418236221
 10
628788.4551007127
 20
4833064.1824032115
 10
628837.526874229
 20
4833041.797669059
  0
LWPOLYLINE
  5
32C
330
17
100
AcDbEntity
  8
ROADS
100
AcDbPolyline
 90
3
 70
0
 10
628435.4661581485
 20
4832981.228567357
 10
628702.2644624582
 20
4833084.542232398
 10
628941.3058001968
 20
4833129.45388396
  0
LWPOLYLINE
  5
32D
330
17
100
AcDbEntity
  8
ROADS
100
AcDbPolyline
 90
2
 70
0
 10
628132.7794257769
 20
4833024.045323433
 10
628113.1220450453
 20
4833043.309346438
  0
LWPOLYLINE
  5
32E
330
17
100
AcDbEntity
  8
ROADS
100
AcDbPolyline
 90
2
 70
0
 10
628132.7794257769
 20
4833024.045323433
 10
628121.4150798678
 20
4833062.373436916
  0
LWPOLYLINE
  5
32F
330
17
100
AcDbEntity
  8
ROADS
100
AcDbPolyline
 90
2
 70
0
 10
628113.1220450453
 20
4833043.309346438
 10
628100.4223266883
 20
4833052.157925308
  0
LWPOLYLINE
  5
330
330
17
100
AcDbEntity
  8
ROADS
100
AcDbPolyline
 90
2
 70
0
 10
628100.4223266883
 20
4833052.157925308
 10
628068.276894365
 20
4833044.264528681
  0
LWPOLYLINE
  5
331
330
17
100
AcDbEntity
  8
ROADS
100
AcDbPolyline
 90
2
 70
0
 10
628121.4150798678
 20
4833062.373436916
 10
628113.1220450453
 20
4833043.309346438
  0
LWPOLYLINE
  5
332
330
17
100
AcDbEntity
  8
ROADS
100
AcDbPolyline
 90
2
 70
0
 10
628121.4150798678
 20
4833062.373436916
 10
628100.4223266883
 20
4833052.157925308
  0
LWPOLYLINE
  5
333
330
17
100
AcDbEntity
  8
ROADS
100
AcDbPolyline
 90
3
 70
0
 10
628121.4150798678
 20
4833062.373436916
 10
628095.1027219307
 20
4833106.0717718
 10
627885.7170440576
 20
4833112.061887017
  0
LWPOLYLINE
  5
334
330
17
100
AcDbEntity
  8
ROADS
100
AcDbPolyline
 90
2
 70
0
 10
628178.8541384728
 20
4833037.507289867
 10
628145.2295417208
 20
4833140.8468501195
  0
LWPOLYLINE
  5
335
330
17
100
AcDbEntity
  8
ROADS
100
AcDbPolyline
 90
2
 70
0
 10
628145.2295417208
 20
4833140.8468501195
 10
628368.9579496316
 20
4833133.272327645
  0
LWPOLYLINE
  5
336
330
17
100
AcDbEntity
  8
ROADS
100
AcDbPolyline
 90
2
 70
0
 10
628145.2295417208
 20
4833140.8468501195
 10
628125.7588438478
 20
4833199.860806689
  0
LWPOLYLINE
  5
337
330
17
100
AcDbEntity
  8
ROADS
100
AcDbPolyline
 90
2
 70
0
 10
628358.7066427222
 20
4832921.969292241
 10
628372.3123974989
 20
4832925.352372261
  0
LWPOLYLINE
  5
338
330
17
100
AcDbEntity
  8
ROADS
100
AcDbPolyline
 90
2
 70
0
 10
628358.7066427222
 20
4832921.969292241
 10
628435.4661581485
 20
4832981.228567357
  0
LWPOLYLINE
  5
339
330
17
100
AcDbEntity
  8
ROADS
100
AcDbPolyline
 90
2
 70
0
 10
628372.3123974989
 20
4832925.352372261
 10
628435.4661581485
 20
4832981.228567357
  0
LWPOLYLINE
  5
33A
330
17
100
AcDbEntity
  8
ROADS
100
AcDbPolyline
 90
2
 70
0
 10
628423.5738542549
 20
4833012.616388993
 10
628214.5729097308
 20
4832924.866948985
  0
LWPOLYLINE
  5
33B
330
17
100
AcDbEntity
  8
ROADS
100
AcDbPolyline
 90
2
 70
0
 10
628435.4661581485
 20
4832981.228567357
 10
628423.5738542549
 20
4833012.616388993
  0
LWPOLYLINE
  5
33C
330
17
100
AcDbEntity
  8
ROADS
100
AcDbPolyline
 90
3
 70
0
 10
628423.5738542549
 20
4833012.616388993
 10
628371.3008880574
 20
4833084.19946301
 10
628368.9579496316
 20
4833133.272327645
  0
LWPOLYLINE
  5
33D
330
17
100
AcDbEntity
  8
ROADS
100
AcDbPolyline
 90
4
 70
0
 10
628368.9579496316
 20
4833133.272327645
 10
628370.0750985094
 20
4833170.454942776
 10
628310.5089414276
 20
4833186.130544712
 10
628271.747193625
 20
4833244.578878782
  0
LWPOLYLINE
  5
33E
330
17
100
AcDbEntity
  8
ROADS
100
AcDbPolyline
 90
2
 70
0
 10
628456.4272730647
 20
4833299.332857402
 10
628271.747193625
 20
4833244.578878782
  0
LWPOLYLINE
  5
33F
330
17
100
AcDbEntity
  8
ROADS
100
AcDbPolyline
 90
2
 70
0
 10
628529.1338853844
 20
4833321.061193097
 10
628456.4272730647
 20
4833299.332857402
  0
LWPOLYLINE
  5
340
330
17
100
AcDbEntity
  8
ROADS
100
AcDbPolyline
 90
2
 70
0
 10
628554.6587021427
 20
4833328.689964907
 10
628529.1338853844
 20
4833321.061193097
  0
LWPOLYLINE
  5
341
330
17
100
AcDbEntity
  8
ROADS
100
AcDbPolyline
 90
3
 70
0
 10
628949.1504707884
 20
4833172.498527788
 10
628663.9846949708
 20
4833102.650687987
 10
628423.5738542549
 20
4833012.616388993
  0
LWPOLYLINE
  5
342
330
17
100
AcDbEntity
  8
ROADS
100
AcDbPolyline
 90
3
 70
0
 10
628368.9579496316
 20
4833133.272327645
 10
628617.8094567766
 20
4833139.958729293
 10
628949.1504707884
 20
4833172.498527788
  0
LWPOLYLINE
  5
343
330
17
100
AcDbEntity
  8
ROADS
100
AcDbPolyline
 90
2
 70
0
 10
628722.1204920891
 20
4833175.976109329
 10
628701.7692177686
 20
4833246.166993549
  0
LWPOLYLINE
  5
344
330
17
100
AcDbEntity
  8
ROADS
100
AcDbPolyline
 90
2
 70
0
 10
628701.7692177686
 20
4833246.166993549
 10
628691.4984950302
 20
4833280.837686119
  0
LWPOLYLINE
  5
345
330
17
100
AcDbEntity
  8
ROADS
100
AcDbPolyline
 90
2
 70
0
 10
628836.373038049
 20
4833278.905626269
 10
628809.41540278
 20
4833270.208888274
  0
LWPOLYLINE
  5
346
330
17
100
AcDbEntity
  8
ROADS
100
AcDbPolyline
 90
4
 70
0
 10
628701.7692177686
 20
4833246.166993549
 10
628670.1050769141
 20
4833239.999376878
 10
628538.0938457848
 20
4833290.827123213
 10
628529.1338853844
 20
4833321.061193097
  0
LWPOLYLINE
  5
347
330
17
100
AcDbEntity
  8
ROADS
100
AcDbPolyline
 90
2
 70
0
 10
628823.2339969933
 20
4833320.748975341
 10
628836.373038049
 20
4833278.905626269
  0
LWPOLYLINE
  5
348
330
17
100
AcDbEntity
  8
ROADS
100
AcDbPolyline
 90
2
 70
0
 10
628823.2339969933
 20
4833320.748975341
 10
628691.4984950302
 20
4833280.837686119
  0
LWPOLYLINE
  5
349
330
17
100
AcDbEntity
  8
ROADS
100
AcDbPolyline
 90
2
 70
0
 10
628691.4984950302
 20
4833280.837686119
 10
628554.6587021427
 20
4833328.689964907
  0
LWPOLYLINE
  5
34A
330
17
100
AcDbEntity
  8
ROADS
100
AcDbPolyline
 90
2
 70
0
 10
628691.4984950302
 20
4833280.837686119
 10
628665.5689806317
 20
4833360.676389192
  0
LWPOLYLINE
  5
34B
330
17
100
AcDbEntity
  8
ROADS
100
AcDbPolyline
 90
3
 70
0
 10
628125.7588438478
 20
4833199.860806689
 10
628045.8230983336
 20
4833177.426838825
 10
627973.171949622
 20
4833179.003059956
  0
LWPOLYLINE
  5
34C
330
17
100
AcDbEntity
  8
ROADS
100
AcDbPolyline
 90
2
 70
0
 10
628224.6405629028
 20
4833230.665703067
 10
628125.7588438478
 20
4833199.860806689
  0
LWPOLYLINE
  5
34D
330
17
100
AcDbEntity
  8
ROADS
100
AcDbPolyline
 90
2
 70
0
 10
628271.747193625
 20
4833244.578878782
 10
628224.6405629028
 20
4833230.665703067
  0
LWPOLYLINE
  5
34E
330
17
100
AcDbEntity
  8
ROADS
100
AcDbPolyline
 90
2
 70
0
 10
628125.7588438478
 20
4833199.860806689
 10
628102.0400787523
 20
4833276.515126271
  0
LWPOLYLINE
  5
34F
330
17
100
AcDbEntity
  8
ROADS
100
AcDbPolyline
 90
2
 70
0
 10
627984.9379652133
 20
4833265.922758629
 10
628008.8871082705
 20
4833262.104204981
  0
LWPOLYLINE
  5
350
330
17
100
AcDbEntity
  8
ROADS
100
AcDbPolyline
 90
2
 70
0
 10
628271.747193625
 20
4833244.578878782
 10
628259.8046965047
 20
4833290.050017208
  0
LWPOLYLINE
  5
351
330
17
100
AcDbEntity
  8
ROADS
100
AcDbPolyline
 90
2
 70
0
 10
628224.6405629028
 20
4833230.665703067
 10
628202.1601166695
 20
4833305.535305795
  0
LWPOLYLINE
  5
352
330
17
100
AcDbEntity
  8
ROADS
100
AcDbPolyline
 90
2
 70
0
 10
628102.0400787523
 20
4833276.515126271
 10
628008.8871082705
 20
4833262.104204981
  0
LWPOLYLINE
  5
353
330
17
100
AcDbEntity
  8
ROADS
100
AcDbPolyline
 90
2
 70
0
 10
628008.8871082705
 20
4833262.104204981
 10
627999.2924039579
 20
4833305.0721744355
  0
LWPOLYLINE
  5
354
330
17
100
AcDbEntity
  8
ROADS
100
AcDbPolyline
 90
2
 70
0
 10
628273.4527529303
 20
4833288.2145365225
 10
628259.8046965047
 20
4833290.050017208
  0
LWPOLYLINE
  5
355
330
17
100
AcDbEntity
  8
ROADS
100
AcDbPolyline
 90
2
 70
0
 10
628202.1601166695
 20
4833305.535305795
 10
628102.0400787523
 20
4833276.515126271
  0
LWPOLYLINE
  5
356
330
17
100
AcDbEntity
  8
ROADS
100
AcDbPolyline
 90
2
 70
0
 10
628102.0400787523
 20
4833276.515126271
 10
628082.6094793241
 20
4833341.720191304
  0
LWPOLYLINE
  5
357
330
17
100
AcDbEntity
  8
ROADS
100
AcDbPolyline
 90
2
 70
0
 10
627999.2924039579
 20
4833305.0721744355
 10
627996.385754215
 20
4833315.2242987305
  0
LWPOLYLINE
  5
358
330
17
100
AcDbEntity
  8
ROADS
100
AcDbPolyline
 90
2
 70
0
 10
628024.1761227449
 20
4833323.7690593405
 10
627996.385754215
 20
4833315.2242987305
  0
LWPOLYLINE
  5
359
330
17
100
AcDbEntity
  8
ROADS
100
AcDbPolyline
 90
2
 70
0
 10
628082.6094793241
 20
4833341.720191304
 10
628024.1761227449
 20
4833323.7690593405
  0
LWPOLYLINE
  5
35A
330
17
100
AcDbEntity
  8
ROADS
100
AcDbPolyline
 90
2
 70
0
 10
628259.8046965047
 20
4833290.050017208
 10
628230.889517058
 20
4833386.129714442
  0
LWPOLYLINE
  5
35B
330
17
100
AcDbEntity
  8
ROADS
100
AcDbPolyline
 90
2
 70
0
 10
628202.1601166695
 20
4833305.535305795
 10
628182.6128974814
 20
4833371.382322836
  0
LWPOLYLINE
  5
35C
330
17
100
AcDbEntity
  8
ROADS
100
AcDbPolyline
 90
2
 70
0
 10
628135.6983155343
 20
4833357.46810328
 10
628082.6094793241
 20
4833341.720191304
  0
LWPOLYLINE
  5
35D
330
17
100
AcDbEntity
  8
ROADS
100
AcDbPolyline
 90
2
 70
0
 10
628024.1761227449
 20
4833323.7690593405
 10
628001.9573343969
 20
4833400.705472562
  0
LWPOLYLINE
  5
35E
330
17
100
AcDbEntity
  8
ROADS
100
AcDbPolyline
 90
2
 70
0
 10
628182.6128974814
 20
4833371.382322836
 10
628135.6983155343
 20
4833357.46810328
  0
LWPOLYLINE
  5
35F
330
17
100
AcDbEntity
  8
ROADS
100
AcDbPolyline
 90
2
 70
0
 10
628456.4272730647
 20
4833299.332857402
 10
628376.9061410691
 20
4833385.680442067
  0
LWPOLYLINE
  5
360
330
17
100
AcDbEntity
  8
ROADS
100
AcDbPolyline
 90
2
 70
0
 10
628554.6587021427
 20
4833328.689964907
 10
628455.9166140407
 20
4833409.125825566
  0
LWPOLYLINE
  5
361
330
17
100
AcDbEntity
  8
ROADS
100
AcDbPolyline
 90
2
 70
0
 10
628411.5190817362
 20
4833395.824617366
 10
628465.7142308352
 20
4833347.870868105
  0
LWPOLYLINE
  5
362
330
17
100
AcDbEntity
  8
ROADS
100
AcDbPolyline
 90
2
 70
0
 10
628411.5190817362
 20
4833395.824617366
 10
628376.9061410691
 20
4833385.680442067
  0
LWPOLYLINE
  5
363
330
17
100
AcDbEntity
  8
ROADS
100
AcDbPolyline
 90
2
 70
0
 10
628455.9166140407
 20
4833409.125825566
 10
628411.5190817362
 20
4833395.824617366
  0
LWPOLYLINE
  5
364
330
17
100
AcDbEntity
  8
ROADS
100
AcDbPolyline
 90
2
 70
0
 10
628376.9061410691
 20
4833385.680442067
 10
628345.1651580427
 20
4833419.596043132
  0
LWPOLYLINE
  5
365
330
17
100
AcDbEntity
  8
ROADS
100
AcDbPolyline
 90
2
 70
0
 10
628345.1651580427
 20
4833419.596043132
 10
628334.3636219561
 20
4833416.432634608
  0
LWPOLYLINE
  5
366
330
17
100
AcDbEntity
  8
ROADS
100
AcDbPolyline
 90
2
 70
0
 10
628455.9166140407
 20
4833409.125825566
 10
628423.7086396568
 20
4833444.588094438
  0
LWPOLYLINE
  5
367
330
17
100
AcDbEntity
  8
ROADS
100
AcDbPolyline
 90
2
 70
0
 10
628423.7086396568
 20
4833444.588094438
 10
628345.1651580427
 20
4833419.596043132
  0
LWPOLYLINE
  5
368
330
17
100
AcDbEntity
  8
ROADS
100
AcDbPolyline
 90
2
 70
0
 10
628334.3636219561
 20
4833416.432634608
 10
628314.8504652955
 20
4833452.117322662
  0
LWPOLYLINE
  5
369
330
17
100
AcDbEntity
  8
ROADS
100
AcDbPolyline
 90
2
 70
0
 10
628230.889517058
 20
4833386.129714442
 10
628182.6128974814
 20
4833371.382322836
  0
LWPOLYLINE
  5
36A
330
17
100
AcDbEntity
  8
ROADS
100
AcDbPolyline
 90
2
 70
0
 10
628334.3636219561
 20
4833416.432634608
 10
628230.889517058
 20
4833386.129714442
  0
LWPOLYLINE
  5
36B
330
17
100
AcDbEntity
  8
ROADS
100
AcDbPolyline
 90
2
 70
0
 10
628082.6094793241
 20
4833341.720191304
 10
628042.2462620132
 20
4833485.349005249
  0
LWPOLYLINE
  5
36C
330
17
100
AcDbEntity
  8
ROADS
100
AcDbPolyline
 90
2
 70
0
 10
628135.6983155343
 20
4833357.46810328
 10
628092.3342126402
 20
4833500.415162372
  0
LWPOLYLINE
  5
36D
330
17
100
AcDbEntity
  8
ROADS
100
AcDbPolyline
 90
2
 70
0
 10
628182.6128974814
 20
4833371.382322836
 10
628139.4193614132
 20
4833514.297980756
  0
LWPOLYLINE
  5
36E
330
17
100
AcDbEntity
  8
ROADS
100
AcDbPolyline
 90
2
 70
0
 10
628230.889517058
 20
4833386.129714442
 10
628188.702729515
 20
4833528.453546907
  0
LWPOLYLINE
  5
36F
330
17
100
AcDbEntity
  8
ROADS
100
AcDbPolyline
 90
2
 70
0
 10
628042.2462620132
 20
4833485.349005249
 10
627980.201145608
 20
4833466.874545359
  0
LWPOLYLINE
  5
370
330
17
100
AcDbEntity
  8
ROADS
100
AcDbPolyline
 90
2
 70
0
 10
628092.3342126402
 20
4833500.415162372
 10
628042.2462620132
 20
4833485.349005249
  0
LWPOLYLINE
  5
371
330
17
100
AcDbEntity
  8
ROADS
100
AcDbPolyline
 90
2
 70
0
 10
628139.4193614132
 20
4833514.297980756
 10
628092.3342126402
 20
4833500.415162372
  0
LWPOLYLINE
  5
372
330
17
100
AcDbEntity
  8
ROADS
100
AcDbPolyline
 90
2
 70
0
 10
628188.702729515
 20
4833528.453546907
 10
628139.4193614132
 20
4833514.297980756
  0
LWPOLYLINE
  5
373
330
17
100
AcDbEntity
  8
ROADS
100
AcDbPolyline
 90
3
 70
0
 10
627478.6737201378
 20
4832936.615787615
 10
627441.6915669728
 20
4833066.265612366
 10
627436.5585742077
 20
4833064.74167699
  0
LWPOLYLINE
  5
374
330
17
100
AcDbEntity
  8
ROADS
100
AcDbPolyline
 90
2
 70
0
 10
627819.0058335532
 20
4833006.474141206
 10
627769.9144688785
 20
4833002.669293374
  0
LWPOLYLINE
  5
375
330
17
100
AcDbEntity
  8
ROADS
100
AcDbPolyline
 90
2
 70
0
 10
627876.579539856
 20
4833001.10418498
 10
627874.8160532787
 20
4833013.742124188
  0
LWPOLYLINE
  5
376
330
17
100
AcDbEntity
  8
ROADS
100
AcDbPolyline
 90
2
 70
0
 10
627840.5854268427
 20
4833009.284274538
 10
627819.0058335532
 20
4833006.474141206
  0
LWPOLYLINE
  5
377
330
17
100
AcDbEntity
  8
ROADS
100
AcDbPolyline
 90
2
 70
0
 10
627876.579539856
 20
4833001.10418498
 10
627913.5034947481
 20
4833018.7795488015
  0
LWPOLYLINE
  5
378
330
17
100
AcDbEntity
  8
ROADS
100
AcDbPolyline
 90
2
 70
0
 10
627874.8160532787
 20
4833013.742124188
 10
627840.5854268427
 20
4833009.284274538
  0
LWPOLYLINE
  5
379
330
17
100
AcDbEntity
  8
ROADS
100
AcDbPolyline
 90
2
 70
0
 10
627913.5034947481
 20
4833018.7795488015
 10
627874.8160532787
 20
4833013.742124188
  0
LWPOLYLINE
  5
37A
330
17
100
AcDbEntity
  8
ROADS
100
AcDbPolyline
 90
2
 70
0
 10
627747.8688728649
 20
4833112.969413891
 10
627769.9144688785
 20
4833002.669293374
  0
LWPOLYLINE
  5
37B
330
17
100
AcDbEntity
  8
ROADS
100
AcDbPolyline
 90
2
 70
0
 10
627913.5034947481
 20
4833018.7795488015
 10
627885.7170440576
 20
4833112.061887017
  0
LWPOLYLINE
  5
37C
330
17
100
AcDbEntity
  8
ROADS
100
AcDbPolyline
 90
2
 70
0
 10
627885.7170440576
 20
4833112.061887017
 10
627747.8688728649
 20
4833112.969413891
  0
LWPOLYLINE
  5
37D
330
17
100
AcDbEntity
  8
ROADS
100
AcDbPolyline
 90
2
 70
0
 10
627726.5211159794
 20
4833154.3842662675
 10
628145.2295417208
 20
4833140.8468501195
  0
LWPOLYLINE
  5
37E
330
17
100
AcDbEntity
  8
ROADS
100
AcDbPolyline
 90
2
 70
0
 10
627474.215979131
 20
4833162.532378997
 10
627460.9585209757
 20
4833158.3549813805
  0
LWPOLYLINE
  5
37F
330
17
100
AcDbEntity
  8
ROADS
100
AcDbPolyline
 90
2
 70
0
 10
627973.171949622
 20
4833179.003059956
 10
627864.8590424785
 20
4833182.100932516
  0
LWPOLYLINE
  5
380
330
17
100
AcDbEntity
  8
ROADS
100
AcDbPolyline
 90
2
 70
0
 10
627864.8590424785
 20
4833182.100932516
 10
627720.9220045658
 20
4833195.873713263
  0
LWPOLYLINE
  5
381
330
17
100
AcDbEntity
  8
ROADS
100
AcDbPolyline
 90
2
 70
0
 10
627973.171949622
 20
4833179.003059956
 10
627956.2166912565
 20
4833234.377207897
  0
LWPOLYLINE
  5
382
330
17
100
AcDbEntity
  8
ROADS
100
AcDbPolyline
 90
2
 70
0
 10
627864.8590424785
 20
4833182.100932516
 10
627839.4404502088
 20
4833268.6461055195
  0
LWPOLYLINE
  5
383
330
17
100
AcDbEntity
  8
ROADS
100
AcDbPolyline
 90
3
 70
0
 10
627956.2166912565
 20
4833234.377207897
 10
627949.8858115817
 20
4833226.241280429
 10
627954.3009584676
 20
4833265.803401276
  0
LWPOLYLINE
  5
384
330
17
100
AcDbEntity
  8
ROADS
100
AcDbPolyline
 90
2
 70
0
 10
628008.8871082705
 20
4833262.104204981
 10
627956.2166912565
 20
4833234.377207897
  0
LWPOLYLINE
  5
385
330
17
100
AcDbEntity
  8
ROADS
100
AcDbPolyline
 90
2
 70
0
 10
627984.9379652133
 20
4833265.922758629
 10
627956.2166912565
 20
4833234.377207897
  0
LWPOLYLINE
  5
386
330
17
100
AcDbEntity
  8
ROADS
100
AcDbPolyline
 90
2
 70
0
 10
627839.4404502088
 20
4833268.6461055195
 10
627709.624942685
 20
4833231.695831274
  0
LWPOLYLINE
  5
387
330
17
100
AcDbEntity
  8
ROADS
100
AcDbPolyline
 90
2
 70
0
 10
627961.9828378612
 20
4833259.374010554
 10
627954.3009584676
 20
4833265.803401276
  0
LWPOLYLINE
  5
388
330
17
100
AcDbEntity
  8
ROADS
100
AcDbPolyline
 90
2
 70
0
 10
627984.9379652133
 20
4833265.922758629
 10
627954.3009584676
 20
4833265.803401276
  0
LWPOLYLINE
  5
389
330
17
100
AcDbEntity
  8
ROADS
100
AcDbPolyline
 90
2
 70
0
 10
627954.3009584676
 20
4833265.803401276
 10
627995.9637949319
 20
4833281.299496251
  0
LWPOLYLINE
  5
38A
330
17
100
AcDbEntity
  8
ROADS
100
AcDbPolyline
 90
2
 70
0
 10
627954.3009584676
 20
4833265.803401276
 10
627932.9671030877
 20
4833296.442531493
  0
LWPOLYLINE
  5
38B
330
17
100
AcDbEntity
  8
ROADS
100
AcDbPolyline
 90
2
 70
0
 10
627932.9671030877
 20
4833296.442531493
 10
627839.4404502088
 20
4833268.6461055195
  0
LWPOLYLINE
  5
38C
330
17
100
AcDbEntity
  8
ROADS
100
AcDbPolyline
 90
2
 70
0
 10
627954.3009584676
 20
4833265.803401276
 10
627951.9871646606
 20
4833302.206119199
  0
LWPOLYLINE
  5
38D
330
17
100
AcDbEntity
  8
ROADS
100
AcDbPolyline
 90
2
 70
0
 10
627954.3009584676
 20
4833265.803401276
 10
627999.2924039579
 20
4833305.0721744355
  0
LWPOLYLINE
  5
38E
330
17
100
AcDbEntity
  8
ROADS
100
AcDbPolyline
 90
2
 70
0
 10
627951.9871646606
 20
4833302.206119199
 10
627932.9671030877
 20
4833296.442531493
  0
LWPOLYLINE
  5
38F
330
17
100
AcDbEntity
  8
ROADS
100
AcDbPolyline
 90
2
 70
0
 10
627839.4404502088
 20
4833268.6461055195
 10
627816.1482461705
 20
4833345.43707214
  0
LWPOLYLINE
  5
390
330
17
100
AcDbEntity
  8
ROADS
100
AcDbPolyline
 90
2
 70
0
 10
627996.385754215
 20
4833315.2242987305
 10
627951.9871646606
 20
4833302.206119199
  0
LWPOLYLINE
  5
391
330
17
100
AcDbEntity
  8
ROADS
100
AcDbPolyline
 90
2
 70
0
 10
627932.9671030877
 20
4833296.442531493
 10
627912.841629009
 20
4833374.642335726
  0
LWPOLYLINE
  5
392
330
17
100
AcDbEntity
  8
ROADS
100
AcDbPolyline
 90
2
 70
0
 10
627912.841629009
 20
4833374.642335726
 10
627816.1482461705
 20
4833345.43707214
  0
LWPOLYLINE
  5
393
330
17
100
AcDbEntity
  8
ROADS
100
AcDbPolyline
 90
2
 70
0
 10
627651.971277039
 20
4833214.763891643
 10
627474.215979131
 20
4833162.532378997
  0
LWPOLYLINE
  5
394
330
17
100
AcDbEntity
  8
ROADS
100
AcDbPolyline
 90
2
 70
0
 10
627720.9220045658
 20
4833195.873713263
 10
627709.624942685
 20
4833231.695831274
  0
LWPOLYLINE
  5
395
330
17
100
AcDbEntity
  8
ROADS
100
AcDbPolyline
 90
2
 70
0
 10
627709.624942685
 20
4833231.695831274
 10
627651.971277039
 20
4833214.763891643
  0
LWPOLYLINE
  5
396
330
17
100
AcDbEntity
  8
ROADS
100
AcDbPolyline
 90
3
 70
0
 10
627651.971277039
 20
4833214.763891643
 10
627642.4590174055
 20
4833237.156407607
 10
627493.4611258624
 20
4833241.511523208
  0
LWPOLYLINE
  5
397
330
17
100
AcDbEntity
  8
ROADS
100
AcDbPolyline
 90
2
 70
0
 10
627680.2794345374
 20
4833313.767962686
 10
627655.3522180753
 20
4833305.088027137
  0
LWPOLYLINE
  5
398
330
17
100
AcDbEntity
  8
ROADS
100
AcDbPolyline
 90
2
 70
0
 10
627680.2794345374
 20
4833313.767962686
 10
627668.5007365249
 20
4833342.733685301
  0
LWPOLYLINE
  5
399
330
17
100
AcDbEntity
  8
ROADS
100
AcDbPolyline
 90
2
 70
0
 10
627816.1482461705
 20
4833345.43707214
 10
627680.2794345374
 20
4833313.767962686
  0
LWPOLYLINE
  5
39A
330
17
100
AcDbEntity
  8
ROADS
100
AcDbPolyline
 90
3
 70
0
 10
627535.2642419394
 20
4833321.176263851
 10
627726.2451975339
 20
4833378.214464116
 10
627790.4508338704
 20
4833431.305139081
  0
LWPOLYLINE
  5
39B
330
17
100
AcDbEntity
  8
ROADS
100
AcDbPolyline
 90
2
 70
0
 10
627816.1482461705
 20
4833345.43707214
 10
627796.6891815722
 20
4833410.612561352
  0
LWPOLYLINE
  5
39C
330
17
100
AcDbEntity
  8
ROADS
100
AcDbPolyline
 90
2
 70
0
 10
628001.9573343969
 20
4833400.705472562
 10
627912.841629009
 20
4833374.642335726
  0
LWPOLYLINE
  5
39D
330
17
100
AcDbEntity
  8
ROADS
100
AcDbPolyline
 90
2
 70
0
 10
627912.841629009
 20
4833374.642335726
 10
627892.797073951
 20
4833440.506305304
  0
LWPOLYLINE
  5
39E
330
17
100
AcDbEntity
  8
ROADS
100
AcDbPolyline
 90
2
 70
0
 10
627796.6891815722
 20
4833410.612561352
 10
627790.4508338704
 20
4833431.305139081
  0
LWPOLYLINE
  5
39F
330
17
100
AcDbEntity
  8
ROADS
100
AcDbPolyline
 90
2
 70
0
 10
627892.797073951
 20
4833440.506305304
 10
627796.6891815722
 20
4833410.612561352
  0
LWPOLYLINE
  5
3A0
330
17
100
AcDbEntity
  8
ROADS
100
AcDbPolyline
 90
2
 70
0
 10
628001.9573343969
 20
4833400.705472562
 10
627980.201145608
 20
4833466.874545359
  0
LWPOLYLINE
  5
3A1
330
17
100
AcDbEntity
  8
ROADS
100
AcDbPolyline
 90
2
 70
0
 10
627790.4508338704
 20
4833431.305139081
 10
627782.8750467441
 20
4833453.317629933
  0
LWPOLYLINE
  5
3A2
330
17
100
AcDbEntity
  8
ROADS
100
AcDbPolyline
 90
2
 70
0
 10
627938.0228425429
 20
4833453.793466906
 10
627892.797073951
 20
4833440.506305304
  0
LWPOLYLINE
  5
3A3
330
17
100
AcDbEntity
  8
ROADS
100
AcDbPolyline
 90
2
 70
0
 10
627980.201145608
 20
4833466.874545359
 10
627938.0228425429
 20
4833453.793466906
  0
LWPOLYLINE
  5
3A4
330
17
100
AcDbEntity
  8
ROADS
100
AcDbPolyline
 90
2
 70
0
 10
627833.0583149248
 20
4833467.9494661875
 10
627782.8750467441
 20
4833453.317629933
  0
LWPOLYLINE
  5
3A5
330
17
100
AcDbEntity
  8
ROADS
100
AcDbPolyline
 90
2
 70
0
 10
627892.797073951
 20
4833440.506305304
 10
627880.3362034395
 20
4833481.73474684
  0
LWPOLYLINE
  5
3A6
330
17
100
AcDbEntity
  8
ROADS
100
AcDbPolyline
 90
2
 70
0
 10
627880.3362034395
 20
4833481.73474684
 10
627833.0583149248
 20
4833467.9494661875
  0
LWPOLYLINE
  5
3A7
330
17
100
AcDbEntity
  8
ROADS
100
AcDbPolyline
 90
2
 70
0
 10
627782.8750467441
 20
4833453.317629933
 10
627751.8470398509
 20
4833558.297333006
  0
LWPOLYLINE
  5
3A8
330
17
100
AcDbEntity
  8
ROADS
100
AcDbPolyline
 90
2
 70
0
 10
627833.0583149248
 20
4833467.9494661875
 10
627796.3934488071
 20
4833588.749366658
  0
LWPOLYLINE
  5
3A9
330
17
100
AcDbEntity
  8
ROADS
100
AcDbPolyline
 90
2
 70
0
 10
627938.0228425429
 20
4833453.793466906
 10
627887.5944225952
 20
4833623.347460792
  0
LWPOLYLINE
  5
3AA
330
17
100
AcDbEntity
  8
ROADS
100
AcDbPolyline
 90
2
 70
0
 10
627880.3362034395
 20
4833481.73474684
 10
627841.5463138116
 20
4833610.57494933
  0
LWPOLYLINE
  5
3AB
330
17
100
AcDbEntity
  8
ROADS
100
AcDbPolyline
 90
2
 70
0
 10
627980.201145608
 20
4833466.874545359
 10
627930.2911052199
 20
4833635.191347964
  0
LWPOLYLINE
  5
3AC
330
17
100
AcDbEntity
  8
ROADS
100
AcDbPolyline
 90
2
 70
0
 10
627841.5463138116
 20
4833610.57494933
 10
627824.3286022218
 20
4833605.27837116
  0
LWPOLYLINE
  5
3AD
330
17
100
AcDbEntity
  8
ROADS
100
AcDbPolyline
 90
2
 70
0
 10
627887.5944225952
 20
4833623.347460792
 10
627841.5463138116
 20
4833610.57494933
  0
LWPOLYLINE
  5
3AE
330
17
100
AcDbEntity
  8
ROADS
100
AcDbPolyline
 90
2
 70
0
 10
628665.5689806317
 20
4833360.676389192
 10
628554.6587021427
 20
4833328.689964907
  0
LWPOLYLINE
  5
3AF
330
17
100
AcDbEntity
  8
ROADS
100
AcDbPolyline
 90
2
 70
0
 10
628665.5689806317
 20
4833360.676389192
 10
628652.4675171878
 20
4833401.602332267
  0
LWPOLYLINE
  5
3B0
330
17
100
AcDbEntity
  8
ROADS
100
AcDbPolyline
 90
2
 70
0
 10
628873.2085818632
 20
4833423.769966637
 10
628665.5689806317
 20
4833360.676389192
  0
LWPOLYLINE
  5
3B1
330
17
100
AcDbEntity
  8
ROADS
100
AcDbPolyline
 90
4
 70
0
 10
628652.4675171878
 20
4833401.602332267
 10
628614.4891830144
 20
4833389.142178502
 10
628595.5050704065
 20
4833448.343010098
 10
628633.9879678773
 20
4833460.386260758
  0
LWPOLYLINE
  5
3B2
330
17
100
AcDbEntity
  8
ROADS
100
AcDbPolyline
 90
2
 70
0
 10
628652.4675171878
 20
4833401.602332267
 10
628633.9879678773
 20
4833460.386260758
  0
LWPOLYLINE
  5
3B3
330
17
100
AcDbEntity
  8
ROADS
100
AcDbPolyline
 90
2
 70
0
 10
628633.9879678773
 20
4833460.386260758
 10
628620.718438835
 20
4833503.749319971
  0
LWPOLYLINE
  5
3B4
330
17
100
AcDbEntity
  8
ROADS
100
AcDbPolyline
 90
2
 70
0
 10
628620.718438835
 20
4833503.749319971
 10
628608.2773974268
 20
4833543.270094715
  0
LWPOLYLINE
  5
3B5
330
17
100
AcDbEntity
  8
ROADS
100
AcDbPolyline
 90
2
 70
0
 10
628825.8701668284
 20
4833565.274412623
 10
628620.718438835
 20
4833503.749319971
  0
LWPOLYLINE
  5
3B6
330
17
100
AcDbEntity
  8
ROADS
100
AcDbPolyline
 90
2
 70
0
 10
628608.2773974268
 20
4833543.270094715
 10
628567.4613914252
 20
4833531.05866027
  0
LWPOLYLINE
  5
3B7
330
17
100
AcDbEntity
  8
ROADS
100
AcDbPolyline
 90
2
 70
0
 10
628567.4613914252
 20
4833531.05866027
 10
628557.3379822442
 20
4833562.086753061
  0
LWPOLYLINE
  5
3B8
330
17
100
AcDbEntity
  8
ROADS
100
AcDbPolyline
 90
3
 70
0
 10
628352.3914466946
 20
4833476.656357334
 10
628358.5702910827
 20
4833466.948387151
 10
628314.8504652955
 20
4833452.117322662
  0
LWPOLYLINE
  5
3B9
330
17
100
AcDbEntity
  8
ROADS
100
AcDbPolyline
 90
2
 70
0
 10
628314.8504652955
 20
4833452.117322662
 10
628297.7172435292
 20
4833480.620549221
  0
LWPOLYLINE
  5
3BA
330
17
100
AcDbEntity
  8
ROADS
100
AcDbPolyline
 90
2
 70
0
 10
628620.718438835
 20
4833503.749319971
 10
628423.7086396568
 20
4833444.588094438
  0
LWPOLYLINE
  5
3BB
330
17
100
AcDbEntity
  8
ROADS
100
AcDbPolyline
 90
2
 70
0
 10
628423.7086396568
 20
4833444.588094438
 10
628379.9807007583
 20
4833506.345886718
  0
LWPOLYLINE
  5
3BC
330
17
100
AcDbEntity
  8
ROADS
100
AcDbPolyline
 90
2
 70
0
 10
628379.9807007583
 20
4833506.345886718
 10
628297.7172435292
 20
4833480.620549221
  0
LWPOLYLINE
  5
3BD
330
17
100
AcDbEntity
  8
ROADS
100
AcDbPolyline
 90
2
 70
0
 10
628297.7172435292
 20
4833480.620549221
 10
628278.6405318241
 20
4833512.297856578
  0
LWPOLYLINE
  5
3BE
330
17
100
AcDbEntity
  8
ROADS
100
AcDbPolyline
 90
2
 70
0
 10
628278.6405318241
 20
4833512.297856578
 10
628319.9904420906
 20
4833524.569931513
  0
LWPOLYLINE
  5
3BF
330
17
100
AcDbEntity
  8
ROADS
100
AcDbPolyline
 90
2
 70
0
 10
628567.4613914252
 20
4833531.05866027
 10
628498.8955161537
 20
4833510.6051916005
  0
LWPOLYLINE
  5
3C0
330
17
100
AcDbEntity
  8
ROADS
100
AcDbPolyline
 90
2
 70
0
 10
628379.9807007583
 20
4833506.345886718
 10
628336.1695675796
 20
4833573.370502925
  0
LWPOLYLINE
  5
3C1
330
17
100
AcDbEntity
  8
ROADS
100
AcDbPolyline
 90
2
 70
0
 10
628557.3379822442
 20
4833562.086753061
 10
628489.0529469632
 20
4833541.975376426
  0
LWPOLYLINE
  5
3C2
330
17
100
AcDbEntity
  8
ROADS
100
AcDbPolyline
 90
2
 70
0
 10
628278.6405318241
 20
4833512.297856578
 10
628256.8069385772
 20
4833548.60663863
  0
LWPOLYLINE
  5
3C3
330
17
100
AcDbEntity
  8
ROADS
100
AcDbPolyline
 90
2
 70
0
 10
628256.8069385772
 20
4833548.60663863
 10
628188.702729515
 20
4833528.453546907
  0
LWPOLYLINE
  5
3C4
330
17
100
AcDbEntity
  8
ROADS
100
AcDbPolyline
 90
2
 70
0
 10
628042.2462620132
 20
4833485.349005249
 10
628010.2858389815
 20
4833591.887261534
  0
LWPOLYLINE
  5
3C5
330
17
100
AcDbEntity
  8
ROADS
100
AcDbPolyline
 90
2
 70
0
 10
628188.702729515
 20
4833528.453546907
 10
628179.2813270539
 20
4833561.310409739
  0
LWPOLYLINE
  5
3C6
330
17
100
AcDbEntity
  8
ROADS
100
AcDbPolyline
 90
2
 70
0
 10
628092.3342126402
 20
4833500.415162372
 10
628059.8174863973
 20
4833606.746366265
  0
LWPOLYLINE
  5
3C7
330
17
100
AcDbEntity
  8
ROADS
100
AcDbPolyline
 90
2
 70
0
 10
628256.8069385772
 20
4833548.60663863
 10
628234.7345611156
 20
4833585.677150071
  0
LWPOLYLINE
  5
3C8
330
17
100
AcDbEntity
  8
ROADS
100
AcDbPolyline
 90
2
 70
0
 10
628139.4193614132
 20
4833514.297980756
 10
628108.1927210273
 20
4833621.292556021
  0
LWPOLYLINE
  5
3C9
330
17
100
AcDbEntity
  8
ROADS
100
AcDbPolyline
 90
2
 70
0
 10
628179.2813270539
 20
4833561.310409739
 10
628234.7345611156
 20
4833585.677150071
  0
LWPOLYLINE
  5
3CA
330
17
100
AcDbEntity
  8
ROADS
100
AcDbPolyline
 90
2
 70
0
 10
628179.2813270539
 20
4833561.310409739
 10
628161.709682662
 20
4833637.311268304
  0
LWPOLYLINE
  5
3CB
330
17
100
AcDbEntity
  8
ROADS
100
AcDbPolyline
 90
2
 70
0
 10
628059.8174863973
 20
4833606.746366265
 10
628010.2858389815
 20
4833591.887261534
  0
LWPOLYLINE
  5
3CC
330
17
100
AcDbEntity
  8
ROADS
100
AcDbPolyline
 90
2
 70
0
 10
628608.2773974268
 20
4833543.270094715
 10
628598.9620232208
 20
4833573.41373553
  0
LWPOLYLINE
  5
3CD
330
17
100
AcDbEntity
  8
ROADS
100
AcDbPolyline
 90
2
 70
0
 10
628598.9620232208
 20
4833573.41373553
 10
628557.3379822442
 20
4833562.086753061
  0
LWPOLYLINE
  5
3CE
330
17
100
AcDbEntity
  8
ROADS
100
AcDbPolyline
 90
2
 70
0
 10
628653.316664212
 20
4833588.68305137
 10
628598.9620232208
 20
4833573.41373553
  0
LWPOLYLINE
  5
3CF
330
17
100
AcDbEntity
  8
ROADS
100
AcDbPolyline
 90
2
 70
0
 10
628825.8701668284
 20
4833565.274412623
 10
628804.3871711767
 20
4833633.255196381
  0
LWPOLYLINE
  5
3D0
330
17
100
AcDbEntity
  8
ROADS
100
AcDbPolyline
 90
2
 70
0
 10
628598.9620232208
 20
4833573.41373553
 10
628576.4921531156
 20
4833643.819297325
  0
LWPOLYLINE
  5
3D1
330
17
100
AcDbEntity
  8
ROADS
100
AcDbPolyline
 90
2
 70
0
 10
628707.1447295131
 20
4833591.588035774
 10
628691.9332003492
 20
4833642.855526858
  0
LWPOLYLINE
  5
3D2
330
17
100
AcDbEntity
  8
ROADS
100
AcDbPolyline
 90
3
 70
0
 10
628613.0246532233
 20
4833654.93626031
 10
628625.1091481902
 20
4833622.140489586
 10
628656.4432274725
 20
4833631.325376284
  0
LWPOLYLINE
  5
3D3
330
17
100
AcDbEntity
  8
ROADS
100
AcDbPolyline
 90
2
 70
0
 10
628804.3871711767
 20
4833633.255196381
 10
628850.8127963564
 20
4833647.225147882
  0
LWPOLYLINE
  5
3D4
330
17
100
AcDbEntity
  8
ROADS
100
AcDbPolyline
 90
2
 70
0
 10
628691.9332003492
 20
4833642.855526858
 10
628666.7847314874
 20
4833651.476605152
  0
LWPOLYLINE
  5
3D5
330
17
100
AcDbEntity
  8
ROADS
100
AcDbPolyline
 90
2
 70
0
 10
628613.0246532233
 20
4833654.93626031
 10
628576.4921531156
 20
4833643.819297325
  0
LWPOLYLINE
  5
3D6
330
17
100
AcDbEntity
  8
ROADS
100
AcDbPolyline
 90
2
 70
0
 10
628336.1695675796
 20
4833573.370502925
 10
628256.8069385772
 20
4833548.60663863
  0
LWPOLYLINE
  5
3D7
330
17
100
AcDbEntity
  8
ROADS
100
AcDbPolyline
 90
2
 70
0
 10
628557.3379822442
 20
4833562.086753061
 10
628547.6158694249
 20
4833593.155098981
  0
LWPOLYLINE
  5
3D8
330
17
100
AcDbEntity
  8
ROADS
100
AcDbPolyline
 90
2
 70
0
 10
628547.6158694249
 20
4833593.155098981
 10
628477.109033792
 20
4833571.641471793
  0
LWPOLYLINE
  5
3D9
330
17
100
AcDbEntity
  8
ROADS
100
AcDbPolyline
 90
2
 70
0
 10
628534.8489908493
 20
4833631.613903435
 10
628336.1695675796
 20
4833573.370502925
  0
LWPOLYLINE
  5
3DA
330
17
100
AcDbEntity
  8
ROADS
100
AcDbPolyline
 90
2
 70
0
 10
628336.1695675796
 20
4833573.370502925
 10
628299.613695803
 20
4833637.363024218
  0
LWPOLYLINE
  5
3DB
330
17
100
AcDbEntity
  8
ROADS
100
AcDbPolyline
 90
2
 70
0
 10
628547.6158694249
 20
4833593.155098981
 10
628534.8489908493
 20
4833631.613903435
  0
LWPOLYLINE
  5
3DC
330
17
100
AcDbEntity
  8
ROADS
100
AcDbPolyline
 90
2
 70
0
 10
628576.4921531156
 20
4833643.819297325
 10
628534.8489908493
 20
4833631.613903435
  0
LWPOLYLINE
  5
3DD
330
17
100
AcDbEntity
  8
ROADS
100
AcDbPolyline
 90
2
 70
0
 10
628299.613695803
 20
4833637.363024218
 10
628279.3671003755
 20
4833677.992762652
  0
LWPOLYLINE
  5
3DE
330
17
100
AcDbEntity
  8
ROADS
100
AcDbPolyline
 90
2
 70
0
 10
628516.0395124222
 20
4833702.674643725
 10
628299.613695803
 20
4833637.363024218
  0
LWPOLYLINE
  5
3DF
330
17
100
AcDbEntity
  8
ROADS
100
AcDbPolyline
 90
2
 70
0
 10
628553.4094238983
 20
4833713.992758684
 10
628516.0395124222
 20
4833702.674643725
  0
LWPOLYLINE
  5
3E0
330
17
100
AcDbEntity
  8
ROADS
100
AcDbPolyline
 90
2
 70
0
 10
628072.9909432516
 20
4833610.696695268
 10
628059.8174863973
 20
4833606.746366265
  0
LWPOLYLINE
  5
3E1
330
17
100
AcDbEntity
  8
ROADS
100
AcDbPolyline
 90
2
 70
0
 10
628234.7345611156
 20
4833585.677150071
 10
628201.2059222383
 20
4833646.016123187
  0
LWPOLYLINE
  5
3E2
330
17
100
AcDbEntity
  8
ROADS
100
AcDbPolyline
 90
2
 70
0
 10
628108.1927210273
 20
4833621.292556021
 10
628072.9909432516
 20
4833610.696695268
  0
LWPOLYLINE
  5
3E3
330
17
100
AcDbEntity
  8
ROADS
100
AcDbPolyline
 90
2
 70
0
 10
628161.709682662
 20
4833637.311268304
 10
628108.1927210273
 20
4833621.292556021
  0
LWPOLYLINE
  5
3E4
330
17
100
AcDbEntity
  8
ROADS
100
AcDbPolyline
 90
2
 70
0
 10
628072.9909432516
 20
4833610.696695268
 10
628060.9134030528
 20
4833651.46405109
  0
LWPOLYLINE
  5
3E5
330
17
100
AcDbEntity
  8
ROADS
100
AcDbPolyline
 90
2
 70
0
 10
628201.2059222383
 20
4833646.016123187
 10
628161.709682662
 20
4833637.311268304
  0
LWPOLYLINE
  5
3E6
330
17
100
AcDbEntity
  8
ROADS
100
AcDbPolyline
 90
2
 70
0
 10
628010.2858389815
 20
4833591.887261534
 10
627985.1996689594
 20
4833679.422458628
  0
LWPOLYLINE
  5
3E7
330
17
100
AcDbEntity
  8
ROADS
100
AcDbPolyline
 90
2
 70
0
 10
628161.709682662
 20
4833637.311268304
 10
628154.6002932705
 20
4833679.63702169
  0
LWPOLYLINE
  5
3E8
330
17
100
AcDbEntity
  8
ROADS
100
AcDbPolyline
 90
2
 70
0
 10
628279.3671003755
 20
4833677.992762652
 10
628201.2059222383
 20
4833646.016123187
  0
LWPOLYLINE
  5
3E9
330
17
100
AcDbEntity
  8
ROADS
100
AcDbPolyline
 90
2
 70
0
 10
628154.6002932705
 20
4833679.63702169
 10
628060.9134030528
 20
4833651.46405109
  0
LWPOLYLINE
  5
3EA
330
17
100
AcDbEntity
  8
ROADS
100
AcDbPolyline
 90
2
 70
0
 10
628804.3871711767
 20
4833633.255196381
 10
628791.5459541524
 20
4833671.731686647
  0
LWPOLYLINE
  5
3EB
330
17
100
AcDbEntity
  8
ROADS
100
AcDbPolyline
 90
2
 70
0
 10
628666.7847314874
 20
4833651.476605152
 10
628613.0246532233
 20
4833654.93626031
  0
LWPOLYLINE
  5
3EC
330
17
100
AcDbEntity
  8
ROADS
100
AcDbPolyline
 90
2
 70
0
 10
628791.5459541524
 20
4833671.731686647
 10
628691.9332003492
 20
4833642.855526858
  0
LWPOLYLINE
  5
3ED
330
17
100
AcDbEntity
  8
ROADS
100
AcDbPolyline
 90
2
 70
0
 10
628576.4921531156
 20
4833643.819297325
 10
628553.4094238983
 20
4833713.992758684
  0
LWPOLYLINE
  5
3EE
330
17
100
AcDbEntity
  8
ROADS
100
AcDbPolyline
 90
3
 70
0
 10
628708.1239742364
 20
4833720.393274182
 10
628653.0869819226
 20
4833702.429424517
 10
628666.7847314874
 20
4833651.476605152
  0
LWPOLYLINE
  5
3EF
330
17
100
AcDbEntity
  8
ROADS
100
AcDbPolyline
 90
2
 70
0
 10
628791.5459541524
 20
4833671.731686647
 10
628780.5645040988
 20
4833705.026440051
  0
LWPOLYLINE
  5
3F0
330
17
100
AcDbEntity
  8
ROADS
100
AcDbPolyline
 90
2
 70
0
 10
628613.0246532233
 20
4833654.93626031
 10
628592.0398994313
 20
4833723.1265136935
  0
LWPOLYLINE
  5
3F1
330
17
100
AcDbEntity
  8
ROADS
100
AcDbPolyline
 90
2
 70
0
 10
628780.5645040988
 20
4833705.026440051
 10
628773.2342262571
 20
4833739.376247829
  0
LWPOLYLINE
  5
3F2
330
17
100
AcDbEntity
  8
ROADS
100
AcDbPolyline
 90
2
 70
0
 10
628773.2342262571
 20
4833739.376247829
 10
628708.1239742364
 20
4833720.393274182
  0
LWPOLYLINE
  5
3F3
330
17
100
AcDbEntity
  8
ROADS
100
AcDbPolyline
 90
2
 70
0
 10
628708.1239742364
 20
4833720.393274182
 10
628692.0512237012
 20
4833770.562122466
  0
LWPOLYLINE
  5
3F4
330
17
100
AcDbEntity
  8
ROADS
100
AcDbPolyline
 90
3
 70
0
 10
628060.9134030528
 20
4833651.46405109
 10
628051.4285430381
 20
4833681.357560558
 10
628020.6120355085
 20
4833672.810079529
  0
LWPOLYLINE
  5
3F5
330
17
100
AcDbEntity
  8
ROADS
100
AcDbPolyline
 90
2
 70
0
 10
628279.3671003755
 20
4833677.992762652
 10
628266.8942271837
 20
4833705.939163284
  0
LWPOLYLINE
  5
3F6
330
17
100
AcDbEntity
  8
ROADS
100
AcDbPolyline
 90
2
 70
0
 10
628154.6002932705
 20
4833679.63702169
 10
628144.6839046588
 20
4833712.213913398
  0
LWPOLYLINE
  5
3F7
330
17
100
AcDbEntity
  8
ROADS
100
AcDbPolyline
 90
2
 70
0
 10
628266.8942271837
 20
4833705.939163284
 10
628252.034898594
 20
4833745.2451701835
  0
LWPOLYLINE
  5
3F8
330
17
100
AcDbEntity
  8
ROADS
100
AcDbPolyline
 90
2
 70
0
 10
628252.034898594
 20
4833745.2451701835
 10
628144.6839046588
 20
4833712.213913398
  0
LWPOLYLINE
  5
3F9
330
17
100
AcDbEntity
  8
ROADS
100
AcDbPolyline
 90
2
 70
0
 10
628144.6839046588
 20
4833712.213913398
 10
628137.5589998511
 20
4833736.063001698
  0
LWPOLYLINE
  5
3FA
330
17
100
AcDbEntity
  8
ROADS
100
AcDbPolyline
 90
2
 70
0
 10
628516.0395124222
 20
4833702.674643725
 10
628505.6246150569
 20
4833734.834533236
  0
LWPOLYLINE
  5
3FB
330
17
100
AcDbEntity
  8
ROADS
100
AcDbPolyline
 90
2
 70
0
 10
628553.4094238983
 20
4833713.992758684
 10
628544.2828247831
 20
4833743.6507697785
  0
LWPOLYLINE
  5
3FC
330
17
100
AcDbEntity
  8
ROADS
100
AcDbPolyline
 90
2
 70
0
 10
628473.1320826693
 20
4833768.33250514
 10
628266.8942271837
 20
4833705.939163284
  0
LWPOLYLINE
  5
3FD
330
17
100
AcDbEntity
  8
ROADS
100
AcDbPolyline
 90
2
 70
0
 10
628544.2828247831
 20
4833743.6507697785
 10
628531.1948443075
 20
4833785.598994777
  0
LWPOLYLINE
  5
3FE
330
17
100
AcDbEntity
  8
ROADS
100
AcDbPolyline
 90
2
 70
0
 10
628461.1071448775
 20
4833806.187664107
 10
628252.034898594
 20
4833745.2451701835
  0
LWPOLYLINE
  5
3FF
330
17
100
AcDbEntity
  8
ROADS
100
AcDbPolyline
 90
2
 70
0
 10
628531.1948443075
 20
4833785.598994777
 10
628473.1320826693
 20
4833768.33250514
  0
LWPOLYLINE
  5
400
330
17
100
AcDbEntity
  8
ROADS
100
AcDbPolyline
 90
2
 70
0
 10
628473.1320826693
 20
4833768.33250514
 10
628461.1071448775
 20
4833806.187664107
  0
LWPOLYLINE
  5
401
330
17
100
AcDbEntity
  8
ROADS
100
AcDbPolyline
 90
2
 70
0
 10
628531.1948443075
 20
4833785.598994777
 10
628519.5657322421
 20
4833823.852339639
  0
LWPOLYLINE
  5
402
330
17
100
AcDbEntity
  8
ROADS
100
AcDbPolyline
 90
2
 70
0
 10
628519.5657322421
 20
4833823.852339639
 10
628461.1071448775
 20
4833806.187664107
  0
LWPOLYLINE
  5
403
330
17
100
AcDbEntity
  8
ROADS
100
AcDbPolyline
 90
2
 70
0
 10
628252.034898594
 20
4833745.2451701835
 10
628242.1596282476
 20
4833773.4321742
  0
LWPOLYLINE
  5
404
330
17
100
AcDbEntity
  8
ROADS
100
AcDbPolyline
 90
2
 70
0
 10
627930.2911052199
 20
4833635.191347964
 10
627887.5944225952
 20
4833623.347460792
  0
LWPOLYLINE
  5
405
330
17
100
AcDbEntity
  8
ROADS
100
AcDbPolyline
 90
2
 70
0
 10
627841.5463138116
 20
4833610.57494933
 10
627840.4543086693
 20
4833614.819821335
  0
LWPOLYLINE
  5
406
330
17
100
AcDbEntity
  8
ROADS
100
AcDbPolyline
 90
2
 70
0
 10
627930.2911052199
 20
4833635.191347964
 10
627924.7827336874
 20
4833654.818657159
  0
LWPOLYLINE
  5
407
330
17
100
AcDbEntity
  8
ROADS
100
AcDbPolyline
 90
3
 70
0
 10
628585.381982717
 20
4833801.724371426
 10
628598.5626472462
 20
4833760.236845663
 10
628544.2828247831
 20
4833743.6507697785
  0
LWPOLYLINE
  5
408
330
17
100
AcDbEntity
  8
ROADS
100
AcDbPolyline
 90
2
 70
0
 10
628773.2342262571
 20
4833739.376247829
 10
628738.7315384643
 20
4833845.247723745
  0
LWPOLYLINE
  5
409
330
17
100
AcDbEntity
  8
ROADS
100
AcDbPolyline
 90
2
 70
0
 10
628585.381982717
 20
4833801.724371426
 10
628531.1948443075
 20
4833785.598994777
  0
LWPOLYLINE
  5
40A
330
17
100
AcDbEntity
  8
ROADS
100
AcDbPolyline
 90
2
 70
0
 10
628738.7315384643
 20
4833845.247723745
 10
628585.381982717
 20
4833801.724371426
  0
LWPOLYLINE
  5
40B
330
17
100
AcDbEntity
  8
ROADS
100
AcDbPolyline
 90
2
 70
0
 10
628782.7393801427
 20
4833857.5358935725
 10
628801.2127326
 20
4833798.213811769
  0
LWPOLYLINE
  5
40C
330
17
100
AcDbEntity
  8
ROADS
100
AcDbPolyline
 90
2
 70
0
 10
628782.7393801427
 20
4833857.5358935725
 10
628738.7315384643
 20
4833845.247723745
  0
LWPOLYLINE
  5
40D
330
17
100
AcDbEntity
  8
ROADS
100
AcDbPolyline
 90
2
 70
0
 10
628726.090526543
 20
4833885.814955851
 10
628519.5657322421
 20
4833823.852339639
  0
LWPOLYLINE
  5
40E
330
17
100
AcDbEntity
  8
ROADS
100
AcDbPolyline
 90
2
 70
0
 10
628738.7315384643
 20
4833845.247723745
 10
628726.090526543
 20
4833885.814955851
  0
LWPOLYLINE
  5
40F
330
17
100
AcDbEntity
  8
ROADS
100
AcDbPolyline
 90
2
 70
0
 10
628859.7679474533
 20
4833881.525632563
 10
628782.7393801427
 20
4833857.5358935725
  0
LWPOLYLINE
  5
410
330
17
100
AcDbEntity
  8
ROADS
100
AcDbPolyline
 90
2
 70
0
 10
628617.9811417488
 20
4833898.276908477
 10
628507.8374910888
 20
4833865.432108986
  0
LWPOLYLINE
  5
411
330
17
100
AcDbEntity
  8
ROADS
100
AcDbPolyline
 90
2
 70
0
 10
628461.1071448775
 20
4833806.187664107
 10
628448.4796606756
 20
4833847.833179071
  0
LWPOLYLINE
  5
412
330
17
100
AcDbEntity
  8
ROADS
100
AcDbPolyline
 90
2
 70
0
 10
628448.4796606756
 20
4833847.833179071
 10
628446.8985780544
 20
4833847.383445449
  0
LWPOLYLINE
  5
413
330
17
100
AcDbEntity
  8
ROADS
100
AcDbPolyline
 90
2
 70
0
 10
628519.5657322421
 20
4833823.852339639
 10
628507.8374910888
 20
4833865.432108986
  0
LWPOLYLINE
  5
414
330
17
100
AcDbEntity
  8
ROADS
100
AcDbPolyline
 90
2
 70
0
 10
628507.8374910888
 20
4833865.432108986
 10
628448.4796606756
 20
4833847.833179071
  0
LWPOLYLINE
  5
415
330
17
100
AcDbEntity
  8
ROADS
100
AcDbPolyline
 90
2
 70
0
 10
628507.8374910888
 20
4833865.432108986
 10
628503.1202069448
 20
4833886.544072411
  0
LWPOLYLINE
  5
416
330
17
100
AcDbEntity
  8
ROADS
100
AcDbPolyline
 90
3
 70
0
 10
628726.090526543
 20
4833885.814955851
 10
628847.4852609632
 20
4833922.186360389
 10
628859.7679474533
 20
4833881.525632563
  0
LWPOLYLINE
  5
417
330
17
100
AcDbEntity
  8
ROADS
100
AcDbPolyline
 90
2
 70
0
 10
628726.090526543
 20
4833885.814955851
 10
628713.6528385854
 20
4833925.534803475
  0
LWPOLYLINE
  5
418
330
17
100
AcDbEntity
  8
ROADS
100
AcDbPolyline
 90
2
 70
0
 10
628713.6528385854
 20
4833925.534803475
 10
628617.9811417488
 20
4833898.276908477
  0
LWPOLYLINE
  5
419
330
17
100
AcDbEntity
  8
ROADS
100
AcDbPolyline
 90
2
 70
0
 10
628617.9811417488
 20
4833898.276908477
 10
628604.7320550176
 20
4833941.645554099
  0
LWPOLYLINE
  5
41A
330
17
100
AcDbEntity
  8
ROADS
100
AcDbPolyline
 90
2
 70
0
 10
628873.5022853913
 20
4833973.849022994
 10
628713.6528385854
 20
4833925.534803475
  0
LWPOLYLINE
  5
41B
330
17
100
AcDbEntity
  8
ROADS
100
AcDbPolyline
 90
2
 70
0
 10
628713.6528385854
 20
4833925.534803475
 10
628701.1221686734
 20
4833979.472910501
  0
LWPOLYLINE
  5
41C
330
17
100
AcDbEntity
  8
ROADS
100
AcDbPolyline
 90
2
 70
0
 10
628701.1221686734
 20
4833979.472910501
 10
628664.2545335945
 20
4833966.893070693
  0
LWPOLYLINE
  5
41D
330
17
100
AcDbEntity
  8
ROADS
100
AcDbPolyline
 90
2
 70
0
 10
628701.1221686734
 20
4833979.472910501
 10
628700.7804044988
 20
4833980.562258737
  0
LWPOLYLINE
  5
41E
330
17
100
AcDbEntity
  8
ROADS
100
AcDbPolyline
 90
3
 70
0
 10
628859.0020972071
 20
4834024.5433413815
 10
628741.3143130528
 20
4833994.164293717
 10
628740.876758236
 20
4833995.56763946
  0
LWPOLYLINE
  5
41F
330
17
100
AcDbEntity
  8
ROADS
100
AcDbPolyline
 90
2
 70
0
 10
629560.9364238962
 20
4834124.48361708
 10
629557.5424236032
 20
4834133.931925399
  0
LWPOLYLINE
  5
420
330
17
100
AcDbEntity
  8
ROADS
100
AcDbPolyline
 90
2
 70
0
 10
629543.4708119457
 20
4834180.498802999
 10
629326.4542440189
 20
4834109.993654318
  0
LWPOLYLINE
  5
421
330
17
100
AcDbEntity
  8
ROADS
100
AcDbPolyline
 90
2
 70
0
 10
629557.5424236032
 20
4834133.931925399
 10
629543.4708119457
 20
4834180.498802999
  0
LWPOLYLINE
  5
422
330
17
100
AcDbEntity
  8
ROADS
100
AcDbPolyline
 90
2
 70
0
 10
629765.93332339
 20
4834198.362813379
 10
629557.5424236032
 20
4834133.931925399
  0
LWPOLYLINE
  5
423
330
17
100
AcDbEntity
  8
ROADS
100
AcDbPolyline
 90
2
 70
0
 10
629563.1221201502
 20
4834186.58739863
 10
629543.4708119457
 20
4834180.498802999
  0
LWPOLYLINE
  5
424
330
17
100
AcDbEntity
  8
ROADS
100
AcDbPolyline
 90
2
 70
0
 10
629668.4212296186
 20
4834217.524708918
 10
629563.1221201502
 20
4834186.58739863
  0
LWPOLYLINE
  5
425
330
17
100
AcDbEntity
  8
ROADS
100
AcDbPolyline
 90
2
 70
0
 10
629563.1221201502
 20
4834186.58739863
 10
629548.6200837325
 20
4834234.503588289
  0
LWPOLYLINE
  5
426
330
17
100
AcDbEntity
  8
ROADS
100
AcDbPolyline
 90
2
 70
0
 10
629501.2344597466
 20
4834245.357628887
 10
629303.3719790304
 20
4834186.7727010865
  0
LWPOLYLINE
  5
427
330
17
100
AcDbEntity
  8
ROADS
100
AcDbPolyline
 90
2
 70
0
 10
629668.4212296186
 20
4834217.524708918
 10
629662.511891362
 20
4834236.11831988
  0
LWPOLYLINE
  5
428
330
17
100
AcDbEntity
  8
ROADS
100
AcDbPolyline
 90
2
 70
0
 10
629548.6200837325
 20
4834234.503588289
 10
629544.670112372
 20
4834246.883359723
  0
LWPOLYLINE
  5
429
330
17
100
AcDbEntity
  8
ROADS
100
AcDbPolyline
 90
2
 70
0
 10
629548.6200837325
 20
4834234.503588289
 10
629585.302092995
 20
4834244.6397504
  0
ENDSEC
  0
SECTION
  2
OBJECTS
  0
DICTIONARY
  5
A
330
0
100
AcDbDictionary
281
1
  3
ACAD_COLOR
350
B
  3
ACAD_GROUP
350
C
  3
ACAD_LAYOUT
350
D
  3
ACAD_MATERIAL
350
E
  3
ACAD_MLEADERSTYLE
350
F
  3
ACAD_MLINESTYLE
350
10
  3
ACAD_PLOTSETTINGS
350
11
  3
ACAD_PLOTSTYLENAME
350
12
  3
ACAD_SCALELIST
350
14
  3
ACAD_TABLESTYLE
350
15
  3
ACAD_VISUALSTYLE
350
16
  3
EZDXF_META
350
2D
  0
DICTIONARY
  5
B
330
A
100
AcDbDictionary
281
1
  0
DICTIONARY
  5
C
330
A
100
AcDbDictionary
281
1
  0
DICTIONARY
  5
D
330
A
100
AcDbDictionary
281
1
  3
Model
350
1A
  3
Layout1
350
1E
  0
DICTIONARY
  5
E
330
A
100
AcDbDictionary
281
1
  3
ByBlock
350
1F
  3
ByLayer
350
20
  3
Global
350
21
  0
DICTIONARY
  5
F
330
A
100
AcDbDictionary
281
1
  3
Standard
350
2C
  0
DICTIONARY
  5
10
330
A
100
AcDbDictionary
281
1
  3
Standard
350
22
  0
DICTIONARY
  5
11
330
A
100
AcDbDictionary
281
1
  0
ACDBDICTIONARYWDFLT
  5
12
330
A
100
AcDbDictionary
281
1
  3
Normal
350
13
100
AcDbDictionaryWithDefault
340
13
  0
ACDBPLACEHOLDER
  5
13
330
12
  0
DICTIONARY
  5
14
330
A
100
AcDbDictionary
281
1
  0
DICTIONARY
  5
15
330
A
100
AcDbDictionary
281
1
  0
DICTIONARY
  5
16
330
A
100
AcDbDictionary
281
1
  0
LAYOUT
  5
1A
330
D
100
AcDbPlotSettings
  1

  4
A3
  6

 40
7.5
 41
20.0
 42
7.5
 43
20.0
 44
420.0
 45
297.0
 46
0.0
 47
0.0
 48
0.0
 49
0.0
140
0.0
141
0.0
142
1.0
143
1.0
 70
1024
 72
1
 73
0
 74
5
  7

 75
16
 76
0
 77
2
 78
300
147
1.0
148
0.0
149
0.0
100
AcDbLayout
  1
Model
 70
1
 71
0
 10
0.0
 20
0.0
 11
420.0
 21
297.0
 12
0.0
 22
0.0
 32
0.0
 14
1e+20
 24
1e+20
 34
1e+20
 15
-1e+20
 25
-1e+20
 35
-1e+20
146
0.0
 13
0.0
 23
0.0
 33
0.0
 16
1.0
 26
0.0
 36
0.0
 17
0.0
 27
1.0
 37
0.0
 76
1
330
17
  0
LAYOUT
  5
1E
330
D
100
AcDbPlotSettings
  1

  4
A3
  6

 40
7.5
 41
20.0
 42
7.5
 43
20.0
 44
420.0
 45
297.0
 46
0.0
 47
0.0
 48
0.0
 49
0.0
140
0.0
141
0.0
142
1.0
143
1.0
 70
0
 72
1
 73
0
 74
5
  7

 75
16
 76
0
 77
2
 78
300
147
1.0
148
0.0
149
0.0
100
AcDbLayout
  1
Layout1
 70
1
 71
1
 10
0.0
 20
0.0
 11
420.0
 21
297.0
 12
0.0
 22
0.0
 32
0.0
 14
1e+20
 24
1e+20
 34
1e+20
 15
-1e+20
 25
-1e+20
 35
-1e+20
146
0.0
 13
0.0
 23
0.0
 33
0.0
 16
1.0
 26
0.0
 36
0.0
 17
0.0
 27
1.0
 37
0.0
 76
1
330
1B
  0
MATERIAL
  5
1F
102
{ACAD_REACTORS
330
E
102
}
330
E
100
AcDbMaterial
  1
ByBlock
  2

 70
0
 40
1.0
 71
1
 41
1.0
 91
-1023410177
 42
1.0
 72
1
  3

 73
1
 74
1
 75
1
 44
0.5
 73
0
 45
1.0
 46
1.0
 77
1
  4

 78
1
 79
1
170
1
 48
1.0
171
1
  6

172
1
173
1
174
1
140
1.0
141
1.0
175
1
  7

176
1
177
1
178
1
143
1.0
179
1
  8

270
1
271
1
272
1
145
1.0
146
1.0
273
1
  9

274
1
275
1
276
1
 42
1.0
 72
1
  3

 73
1
 74
1
 75
1
 94
63
  0
MATERIAL
  5
20
102
{ACAD_REACTORS
330
E
102
}
330
E
100
AcDbMaterial
  1
ByLayer
  2

 70
0
 40
1.0
 71
1
 41
1.0
 91
-1023410177
 42
1.0
 72
1
  3

 73
1
 74
1
 75
1
 44
0.5
 73
0
 45
1.0
 46
1.0
 77
1
  4

 78
1
 79
1
170
1
 48
1.0
171
1
  6

172
1
173
1
174
1
140
1.0
141
1.0
175
1
  7

176
1
177
1
178
1
143
1.0
179
1
  8

270
1
271
1
272
1
145
1.0
146
1.0
273
1
  9

274
1
275
1
276
1
 42
1.0
 72
1
  3

 73
1
 74
1
 75
1
 94
63
  0
MATERIAL
  5
21
102
{ACAD_REACTORS
330
E
102
}
330
E
100
AcDbMaterial
  1
Global
  2

 70
0
 40
1.0
 71
1
 41
1.0
 91
-1023410177
 42
1.0
 72
1
  3

 73
1
 74
1
 75
1
 44
0.5
 73
0
 45
1.0
 46
1.0
 77
1
  4

 78
1
 79
1
170
1
 48
1.0
171
1
  6

172
1
173
1
174
1
140
1.0
141
1.0
175
1
  7

176
1
177
1
178
1
143
1.0
179
1
  8

270
1
271
1
272
1
145
1.0
146
1.0
273
1
  9

274
1
275
1
276
1
 42
1.0
 72
1
  3

 73
1
 74
1
 75
1
 94
63
  0
MLINESTYLE
  5
22
102
{ACAD_REACTORS
330
10
102
}
330
10
100
AcDbMlineStyle
  2
Standard
 70
0
  3

 62
256
 51
90.0
 52
90.0
 71
2
 49
0.5
 62
256
  6
BYLAYER
 49
-0.5
 62
256
  6
BYLAYER
  0
MLEADERSTYLE
  5
2C
102
{ACAD_REACTORS
330
F
102
}
330
F
100
AcDbMLeaderStyle
179
2
170
2
171
1
172
0
 90
2
 40
0.0
 41
0.0
173
1
 91
-1056964608
 92
-2
290
1
 42
2.0
291
1
 43
8.0
  3
Standard
 44
4.0
300

342
29
174
1
175
1
176
0
178
1
 93
-1056964608
 45
4.0
292
0
297
0
 46
4.0
 94
-1056964608
 47
1.0
 49
1.0
140
1.0
294
1
141
0.0
177
0
142
1.0
295
0
296
0
143
3.75
271
0
272
9
273
9
  0
DICTIONARY
  5
2D
330
A
100
AcDbDictionary
280
1
281
1
  3
CREATED_BY_EZDXF
350
2E
  3
WRITTEN_BY_EZDXF
350
42C
  0
DICTIONARYVAR
  5
2E
330
2D
100
DictionaryVariables
280
0
  1
1.4.4 @ 2026-07-07T06:19:25.615863+00:00
  0
DICTIONARYVAR
  5
42C
330
2D
100
DictionaryVariables
280
0
  1
1.4.4 @ 2026-07-07T06:19:25.643490+00:00
  0
ENDSEC
  0
EOF
