  0
SECTION
  2
HEADER
  9
$ACADVER
  1
AC1015
  9
$ACADMAINTVER
 70
6
  9
$DWGCODEPAGE
  3
ANSI_1252
  9
$INSBASE
 10
0.0
 20
0.0
 30
0.0
  9
$EXTMIN
 10
1e+20
 20
1e+20
 30
1e+20
  9
$EXTMAX
 10
-1e+20
 20
-1e+20
 30
-1e+20
  9
$LIMMIN
 10
0.0
 20
0.0
  9
$LIMMAX
 10
420.0
 20
297.0
  9
$ORTHOMODE
 70
0
  9
$REGENMODE
 70
1
  9
$FILLMODE
 70
1
  9
$QTEXTMODE
 70
0
  9
$MIRRTEXT
 70
1
  9
$LTSCALE
 40
1.0
  9
$ATTMODE
 70
1
  9
$TEXTSIZE
 40
2.5
  9
$TRACEWID
 40
1.0
  9
$TEXTSTYLE
  7
Standard
  9
$CLAYER
  8
0
  9
$CELTYPE
  6
ByLayer
  9
$CECOLOR
 62
256
  9
$CELTSCALE
 40
1.0
  9
$DISPSILH
 70
0
  9
$DIMSCALE
 40
1.0
  9
$DIMASZ
 40
2.5
  9
$DIMEXO
 40
0.625
  9
$DIMDLI
 40
3.75
  9
$DIMRND
 40
0.0
  9
$DIMDLE
 40
0.0
  9
$DIMEXE
 40
1.25
  9
$DIMTP
 40
0.0
  9
$DIMTM
 40
0.0
  9
$DIMTXT
 40
2.5
  9
$DIMCEN
 40
2.5
  9
$DIMTSZ
 40
0.0
  9
$DIMTOL
 70
0
  9
$DIMLIM
 70
0
  9
$DIMTIH
 70
0
  9
$DIMTOH
 70
0
  9
$DIMSE1
 70
0
  9
$DIMSE2
 70
0
  9
$DIMTAD
 70
1
  9
$DIMZIN
 70
8
  9
$DIMBLK
  1

  9
$DIMASO
 70
1
  9
$DIMSHO
 70
1
  9
$DIMPOST
  1

  9
$DIMAPOST
  1

  9
$DIMALT
 70
0
  9
$DIMALTD
 70
3
  9
$DIMALTF
 40
0.03937007874
  9
$DIMLFAC
 40
1.0
  9
$DIMTOFL
 70
1
  9
$DIMTVP
 40
0.0
  9
$DIMTIX
 70
0
  9
$DIMSOXD
 70
0
  9
$DIMSAH
 70
0
  9
$DIMBLK1
  1

  9
$DIMBLK2
  1

  9
$DIMSTYLE
  2
ISO-25
  9
$DIMCLRD
 70
0
  9
$DIMCLRE
 70
0
  9
$DIMCLRT
 70
0
  9
$DIMTFAC
 40
1.0
  9
$DIMGAP
 40
0.625
  9
$DIMJUST
 70
0
  9
$DIMSD1
 70
0
  9
$DIMSD2
 70
0
  9
$DIMTOLJ
 70
0
  9
$DIMTZIN
 70
8
  9
$DIMALTZ
 70
0
  9
$DIMALTTZ
 70
0
  9
$DIMUPT
 70
0
  9
$DIMDEC
 70
2
  9
$DIMTDEC
 70
2
  9
$DIMALTU
 70
2
  9
$DIMALTTD
 70
3
  9
$DIMTXSTY
  7
Standard
  9
$DIMAUNIT
 70
0
  9
$DIMADEC
 70
0
  9
$DIMALTRND
 40
0.0
  9
$DIMAZIN
 70
0
  9
$DIMDSEP
 70
44
  9
$DIMATFIT
 70
3
  9
$DIMFRAC
 70
0
  9
$DIMLDRBLK
  1

  9
$DIMLUNIT
 70
2
  9
$DIMLWD
 70
-2
  9
$DIMLWE
 70
-2
  9
$DIMTMOVE
 70
0
  9
$LUNITS
 70
2
  9
$LUPREC
 70
4
  9
$SKETCHINC
 40
1.0
  9
$FILLETRAD
 40
10.0
  9
$AUNITS
 70
0
  9
$AUPREC
 70
2
  9
$MENU
  1
.
  9
$ELEVATION
 40
0.0
  9
$PELEVATION
 40
0.0
  9
$THICKNESS
 40
0.0
  9
$LIMCHECK
 70
0
  9
$CHAMFERA
 40
0.0
  9
$CHAMFERB
 40
0.0
  9
$CHAMFERC
 40
0.0
  9
$CHAMFERD
 40
0.0
  9
$SKPOLY
 70
0
  9
$TDCREATE
 40
2461229.6012962963
  9
$TDUCREATE
 40
2458532.153996898
  9
$TDUPDATE
 40
2461229.6012962963
  9
$TDUUPDATE
 40
2458532.1544311
  9
$TDINDWG
 40
0.0
  9
$TDUSRTIMER
 40
0.0
  9
$USRTIMER
 70
1
  9
$ANGBASE
 50
0.0
  9
$ANGDIR
 70
0
  9
$PDMODE
 70
0
  9
$PDSIZE
 40
0.0
  9
$PLINEWID
 40
0.0
  9
$SPLFRAME
 70
0
  9
$SPLINETYPE
 70
6
  9
$SPLINESEGS
 70
8
  9
$HANDSEED
  5
202
  9
$SURFTAB1
 70
6
  9
$SURFTAB2
 70
6
  9
$SURFTYPE
 70
6
  9
$SURFU
 70
6
  9
$SURFV
 70
6
  9
$UCSBASE
  2

  9
$UCSNAME
  2

  9
$UCSORG
 10
0.0
 20
0.0
 30
0.0
  9
$UCSXDIR
 10
1.0
 20
0.0
 30
0.0
  9
$UCSYDIR
 10
0.0
 20
1.0
 30
0.0
  9
$UCSORTHOREF
  2

  9
$UCSORTHOVIEW
 70
0
  9
$UCSORGTOP
 10
0.0
 20
0.0
 30
0.0
  9
$UCSORGBOTTOM
 10
0.0
 20
0.0
 30
0.0
  9
$UCSORGLEFT
 10
0.0
 20
0.0
 30
0.0
  9
$UCSORGRIGHT
 10
0.0
 20
0.0
 30
0.0
  9
$UCSORGFRONT
 10
0.0
 20
0.0
 30
0.0
  9
$UCSORGBACK
 10
0.0
 20
0.0
 30
0.0
  9
$PUCSBASE
  2

  9
$PUCSNAME
  2

  9
$PUCSORG
 10
0.0
 20
0.0
 30
0.0
  9
$PUCSXDIR
 10
1.0
 20
0.0
 30
0.0
  9
$PUCSYDIR
 10
0.0
 20
1.0
 30
0.0
  9
$PUCSORTHOREF
  2

  9
$PUCSORTHOVIEW
 70
0
  9
$PUCSORGTOP
 10
0.0
 20
0.0
 30
0.0
  9
$PUCSORGBOTTOM
 10
0.0
 20
0.0
 30
0.0
  9
$PUCSORGLEFT
 10
0.0
 20
0.0
 30
0.0
  9
$PUCSORGRIGHT
 10
0.0
 20
0.0
 30
0.0
  9
$PUCSORGFRONT
 10
0.0
 20
0.0
 30
0.0
  9
$PUCSORGBACK
 10
0.0
 20
0.0
 30
0.0
  9
$USERI1
 70
0
  9
$USERI2
 70
0
  9
$USERI3
 70
0
  9
$USERI4
 70
0
  9
$USERI5
 70
0
  9
$USERR1
 40
0.0
  9
$USERR2
 40
0.0
  9
$USERR3
 40
0.0
  9
$USERR4
 40
0.0
  9
$USERR5
 40
0.0
  9
$WORLDVIEW
 70
1
  9
$SHADEDGE
 70
3
  9
$SHADEDIF
 70
70
  9
$TILEMODE
 70
1
  9
$MAXACTVP
 70
64
  9
$PINSBASE
 10
0.0
 20
0.0
 30
0.0
  9
$PLIMCHECK
 70
0
  9
$PEXTMIN
 10
1e+20
 20
1e+20
 30
1e+20
  9
$PEXTMAX
 10
-1e+20
 20
-1e+20
 30
-1e+20
  9
$PLIMMIN
 10
0.0
 20
0.0
  9
$PLIMMAX
 10
420.0
 20
297.0
  9
$UNITMODE
 70
0
  9
$VISRETAIN
 70
1
  9
$PLINEGEN
 70
0
  9
$PSLTSCALE
 70
1
  9
$TREEDEPTH
 70
3020
  9
$CMLSTYLE
  2
Standard
  9
$CMLJUST
 70
0
  9
$CMLSCALE
 40
20.0
  9
$PROXYGRAPHICS
 70
1
  9
$MEASUREMENT
 70
1
  9
$CELWEIGHT
370
-1
  9
$ENDCAPS
280
0
  9
$JOINSTYLE
280
0
  9
$LWDISPLAY
290
0
  9
$INSUNITS
 70
6
  9
$HYPERLINKBASE
  1

  9
$STYLESHEET
  1

  9
$XEDIT
290
1
  9
$CEPSNTYPE
380
0
  9
$PSTYLEMODE
290
1
  9
$FINGERPRINTGUID
  2
{A406934E-7778-4A17-994B-CC53AF3F99DE}
  9
$VERSIONGUID
  2
{8F7C0CA9-B276-4D6A-85F3-86E2AD439165}
  9
$EXTNAMES
290
1
  9
$PSVPSCALE
 40
0.0
  9
$OLESTARTUP
290
0
  0
ENDSEC
  0
SECTION
  2
CLASSES
  0
CLASS
  1
ACDBDICTIONARYWDFLT
  2
AcDbDictionaryWithDefault
  3
ObjectDBX Classes
 90
0
280
0
281
0
  0
CLASS
  1
SUN
  2
AcDbSun
  3
SCENEOE
 90
1153
280
0
281
0
  0
CLASS
  1
VISUALSTYLE
  2
AcDbVisualStyle
  3
ObjectDBX Classes
 90
4095
280
0
281
0
  0
CLASS
  1
MATERIAL
  2
AcDbMaterial
  3
ObjectDBX Classes
 90
1153
280
0
281
0
  0
CLASS
  1
SCALE
  2
AcDbScale
  3
ObjectDBX Classes
 90
1153
280
0
281
0
  0
CLASS
  1
TABLESTYLE
  2
AcDbTableStyle
  3
ObjectDBX Classes
 90
4095
280
0
281
0
  0
CLASS
  1
MLEADERSTYLE
  2
AcDbMLeaderStyle
  3
ACDB_MLEADERSTYLE_CLASS
 90
4095
280
0
281
0
  0
CLASS
  1
DICTIONARYVAR
  2
AcDbDictionaryVar
  3
ObjectDBX Classes
 90
0
280
0
281
0
  0
CLASS
  1
CELLSTYLEMAP
  2
AcDbCellStyleMap
  3
ObjectDBX Classes
 90
1152
280
0
281
0
  0
CLASS
  1
MENTALRAYRENDERSETTINGS
  2
AcDbMentalRayRenderSettings
  3
SCENEOE
 90
1024
280
0
281
0
  0
CLASS
  1
ACDBDETAILVIEWSTYLE
  2
AcDbDetailViewStyle
  3
ObjectDBX Classes
 90
1025
280
0
281
0
  0
CLASS
  1
ACDBSECTIONVIEWSTYLE
  2
AcDbSectionViewStyle
  3
ObjectDBX Classes
 90
1025
280
0
281
0
  0
CLASS
  1
RASTERVARIABLES
  2
AcDbRasterVariables
  3
ISM
 90
0
280
0
281
0
  0
CLASS
  1
ACDBPLACEHOLDER
  2
AcDbPlaceHolder
  3
ObjectDBX Classes
 90
0
280
0
281
0
  0
CLASS
  1
LAYOUT
  2
AcDbLayout
  3
ObjectDBX Classes
 90
0
280
0
281
0
  0
ENDSEC
  0
SECTION
  2
TABLES
  0
TABLE
  2
VPORT
  5
8
330
0
100
AcDbSymbolTable
 70
1
  0
VPORT
  5
23
330
8
100
AcDbSymbolTableRecord
100
AcDbViewportTableRecord
  2
*Active
 70
0
 10
0.0
 20
0.0
 11
1.0
 21
1.0
 12
0.0
 22
0.0
 13
0.0
 23
0.0
 14
0.5
 24
0.5
 15
0.5
 25
0.5
 16
0.0
 26
0.0
 36
1.0
 17
0.0
 27
0.0
 37
0.0
 40
1000.0
 41
1.34
 42
50.0
 43
0.0
 44
0.0
 50
0.0
 51
0.0
 71
0
 72
1000
 73
1
 74
3
 75
0
 76
0
 77
0
 78
0
281
0
 65
0
146
0.0
  0
ENDTAB
  0
TABLE
  2
LTYPE
  5
2
330
0
100
AcDbSymbolTable
 70
3
  0
LTYPE
  5
24
330
2
100
AcDbSymbolTableRecord
100
AcDbLinetypeTableRecord
  2
ByBlock
 70
0
  3

 72
65
 73
0
 40
0.0
  0
LTYPE
  5
25
330
2
100
AcDbSymbolTableRecord
100
AcDbLinetypeTableRecord
  2
ByLayer
 70
0
  3

 72
65
 73
0
 40
0.0
  0
LTYPE
  5
26
330
2
100
AcDbSymbolTableRecord
100
AcDbLinetypeTableRecord
  2
Continuous
 70
0
  3

 72
65
 73
0
 40
0.0
  0
ENDTAB
  0
TABLE
  2
LAYER
  5
1
330
0
100
AcDbSymbolTable
 70
2
  0
LAYER
  5
27
330
1
100
AcDbSymbolTableRecord
100
AcDbLayerTableRecord
  2
0
 70
0
 62
7
  6
Continuous
370
-3
390
13
  0
LAYER
  5
28
330
1
100
AcDbSymbolTableRecord
100
AcDbLayerTableRecord
  2
Defpoints
 70
0
 62
7
  6
Continuous
290
0
370
-3
390
13
  0
ENDTAB
  0
TABLE
  2
STYLE
  5
5
330
0
100
AcDbSymbolTable
 70
1
  0
STYLE
  5
29
330
5
100
AcDbSymbolTableRecord
100
AcDbTextStyleTableRecord
  2
Standard
 70
0
 40
0.0
 41
1.0
 50
0.0
 71
0
 42
2.5
  3
txt
  4

  0
ENDTAB
  0
TABLE
  2
VIEW
  5
7
330
0
100
AcDbSymbolTable
 70
0
  0
ENDTAB
  0
TABLE
  2
UCS
  5
6
330
0
100
AcDbSymbolTable
 70
0
  0
ENDTAB
  0
TABLE
  2
APPID
  5
3
330
0
100
AcDbSymbolTable
 70
3
  0
APPID
  5
2A
330
3
100
AcDbSymbolTableRecord
100
AcDbRegAppTableRecord
  2
ACAD
 70
0
  0
APPID
  5
1FF
330
3
100
AcDbSymbolTableRecord
100
AcDbRegAppTableRecord
  2
HATCHBACKGROUNDCOLOR
 70
0
  0
APPID
  5
200
330
3
100
AcDbSymbolTableRecord
100
AcDbRegAppTableRecord
  2
EZDXF
 70
0
  0
ENDTAB
  0
TABLE
  2
DIMSTYLE
  5
4
330
0
100
AcDbSymbolTable
 70
1
100
AcDbDimStyleTable
  0
DIMSTYLE
105
2B
330
4
100
AcDbSymbolTableRecord
100
AcDbDimStyleTableRecord
  2
Standard
 70
0
  3

  4

 40
1.0
 41
2.5
 42
0.625
 43
3.75
 44
1.25
 45
0.0
 46
0.0
 47
0.0
 48
0.0
140
2.5
141
2.5
142
0.0
143
0.03937007874
144
1.0
145
0.0
146
1.0
147
0.625
148
0.0
 71
0
 72
0
 73
0
 74
0
 75
0
 76
0
 77
1
 78
8
 79
3
170
0
171
3
172
1
173
0
174
0
175
0
176
0
177
0
178
0
179
2
271
2
272
2
273
2
274
3
275
0
276
0
277
2
278
44
279
0
280
0
281
0
282
0
283
0
284
8
285
0
286
0
288
0
289
3
371
-2
372
-2
  0
ENDTAB
  0
TABLE
  2
BLOCK_RECORD
  5
9
330
0
100
AcDbSymbolTable
 70
2
  0
BLOCK_RECORD
  5
17
330
9
100
AcDbSymbolTableRecord
100
AcDbBlockTableRecord
  2
*Model_Space
340
1A
  0
BLOCK_RECORD
  5
1B
330
9
100
AcDbSymbolTableRecord
100
AcDbBlockTableRecord
  2
*Paper_Space
340
1E
  0
ENDTAB
  0
ENDSEC
  0
SECTION
  2
BLOCKS
  0
BLOCK
  5
18
330
17
100
AcDbEntity
  8
0
100
AcDbBlockBegin
  2
*Model_Space
 70
0
 10
0.0
 20
0.0
 30
0.0
  3
*Model_Space
  1

  0
ENDBLK
  5
19
330
17
100
AcDbEntity
  8
0
100
AcDbBlockEnd
  0
BLOCK
  5
1C
330
1B
100
AcDbEntity
  8
0
100
AcDbBlockBegin
  2
*Paper_Space
 70
0
 10
0.0
 20
0.0
 30
0.0
  3
*Paper_Space
  1

  0
ENDBLK
  5
1D
330
1B
100
AcDbEntity
  8
0
100
AcDbBlockEnd
  0
ENDSEC
  0
SECTION
  2
ENTITIES
  0
LWPOLYLINE
  5
2F
330
17
100
AcDbEntity
  8
ROADS
100
AcDbPolyline
 90
2
 70
0
 10
636233.4884516889
 20
4843767.502439284
 10
636222.6387428591
 20
4843750.6225188775
  0
LWPOLYLINE
  5
30
330
17
100
AcDbEntity
  8
ROADS
100
AcDbPolyline
 90
2
 70
0
 10
636365.2766375145
 20
4843774.441386399
 10
636358.4289380268
 20
4843795.768657564
  0
LWPOLYLINE
  5
31
330
17
100
AcDbEntity
  8
ROADS
100
AcDbPolyline
 90
2
 70
0
 10
635863.7284072757
 20
4843795.725148173
 10
635932.4872827968
 20
4843818.074143835
  0
LWPOLYLINE
  5
32
330
17
100
AcDbEntity
  8
ROADS
100
AcDbPolyline
 90
2
 70
0
 10
635962.0852239706
 20
4843768.988853982
 10
635932.4872827968
 20
4843818.074143835
  0
LWPOLYLINE
  5
33
330
17
100
AcDbEntity
  8
ROADS
100
AcDbPolyline
 90
2
 70
0
 10
635932.4872827968
 20
4843818.074143835
 10
636085.0951095591
 20
4843867.829108571
  0
LWPOLYLINE
  5
34
330
17
100
AcDbEntity
  8
ROADS
100
AcDbPolyline
 90
2
 70
0
 10
635932.4872827968
 20
4843818.074143835
 10
635904.2940245873
 20
4843906.944620692
  0
LWPOLYLINE
  5
35
330
17
100
AcDbEntity
  8
ROADS
100
AcDbPolyline
 90
3
 70
0
 10
635904.2940245873
 20
4843906.944620692
 10
635737.6585719467
 20
4843850.53214585
 10
635735.4322351085
 20
4843850.70551745
  0
LWPOLYLINE
  5
36
330
17
100
AcDbEntity
  8
ROADS
100
AcDbPolyline
 90
2
 70
0
 10
635678.3955625469
 20
4843885.544908803
 10
635702.5338581786
 20
4843887.523545473
  0
LWPOLYLINE
  5
37
330
17
100
AcDbEntity
  8
ROADS
100
AcDbPolyline
 90
2
 70
0
 10
635992.9402366884
 20
4843936.145926269
 10
635904.2940245873
 20
4843906.944620692
  0
LWPOLYLINE
  5
38
330
17
100
AcDbEntity
  8
ROADS
100
AcDbPolyline
 90
2
 70
0
 10
636061.9687475096
 20
4843754.872986957
 10
636115.8088336062
 20
4843767.234164955
  0
LWPOLYLINE
  5
39
330
17
100
AcDbEntity
  8
ROADS
100
AcDbPolyline
 90
2
 70
0
 10
636358.4289380268
 20
4843795.768657564
 10
636233.4884516889
 20
4843767.502439284
  0
LWPOLYLINE
  5
3A
330
17
100
AcDbEntity
  8
ROADS
100
AcDbPolyline
 90
4
 70
0
 10
636085.0951095591
 20
4843867.829108571
 10
636166.9821724118
 20
4843891.81559713
 10
636202.3997712908
 20
4843796.444246803
 10
636233.4884516889
 20
4843767.502439284
  0
LWPOLYLINE
  5
3B
330
17
100
AcDbEntity
  8
ROADS
100
AcDbPolyline
 90
2
 70
0
 10
636358.4289380268
 20
4843795.768657564
 10
636301.0128061953
 20
4843973.755209506
  0
LWPOLYLINE
  5
3C
330
17
100
AcDbEntity
  8
ROADS
100
AcDbPolyline
 90
2
 70
0
 10
636085.0951095591
 20
4843867.829108571
 10
636056.1098877816
 20
4843954.814118133
  0
LWPOLYLINE
  5
3D
330
17
100
AcDbEntity
  8
ROADS
100
AcDbPolyline
 90
2
 70
0
 10
636133.3507339228
 20
4843981.716775942
 10
636056.1098877816
 20
4843954.814118133
  0
LWPOLYLINE
  5
3E
330
17
100
AcDbEntity
  8
ROADS
100
AcDbPolyline
 90
2
 70
0
 10
636301.0128061953
 20
4843973.755209506
 10
636411.6858420459
 20
4844009.764923821
  0
LWPOLYLINE
  5
3F
330
17
100
AcDbEntity
  8
ROADS
100
AcDbPolyline
 90
2
 70
0
 10
636221.3905830588
 20
4844012.816312603
 10
636133.3507339228
 20
4843981.716775942
  0
LWPOLYLINE
  5
40
330
17
100
AcDbEntity
  8
ROADS
100
AcDbPolyline
 90
2
 70
0
 10
636301.0128061953
 20
4843973.755209506
 10
636281.7764033818
 20
4844034.888439632
  0
LWPOLYLINE
  5
41
330
17
100
AcDbEntity
  8
ROADS
100
AcDbPolyline
 90
2
 70
0
 10
636281.7764033818
 20
4844034.888439632
 10
636221.3905830588
 20
4844012.816312603
  0
LWPOLYLINE
  5
42
330
17
100
AcDbEntity
  8
ROADS
100
AcDbPolyline
 90
2
 70
0
 10
638369.4692890396
 20
4844389.592925969
 10
638331.2452348396
 20
4844508.608903017
  0
LWPOLYLINE
  5
43
330
17
100
AcDbEntity
  8
ROADS
100
AcDbPolyline
 90
2
 70
0
 10
638103.7127280158
 20
4844437.788890762
 10
638331.2452348396
 20
4844508.608903017
  0
LWPOLYLINE
  5
44
330
17
100
AcDbEntity
  8
ROADS
100
AcDbPolyline
 90
2
 70
0
 10
638331.2452348396
 20
4844508.608903017
 10
638280.5312370072
 20
4844667.169876988
  0
LWPOLYLINE
  5
45
330
17
100
AcDbEntity
  8
ROADS
100
AcDbPolyline
 90
3
 70
0
 10
638421.7790461616
 20
4844676.265995986
 10
638440.5994584565
 20
4844565.5971341785
 10
638571.6644316727
 20
4844648.98000378
  0
LWPOLYLINE
  5
46
330
17
100
AcDbEntity
  8
ROADS
100
AcDbPolyline
 90
2
 70
0
 10
637891.2595143606
 20
4844181.638410203
 10
637890.3160472752
 20
4844184.58171645
  0
LWPOLYLINE
  5
47
330
17
100
AcDbEntity
  8
ROADS
100
AcDbPolyline
 90
2
 70
0
 10
636482.8838698268
 20
4843830.031645775
 10
636489.9824736727
 20
4843811.99928054
  0
LWPOLYLINE
  5
48
330
17
100
AcDbEntity
  8
ROADS
100
AcDbPolyline
 90
2
 70
0
 10
636358.4289380268
 20
4843795.768657564
 10
636482.8838698268
 20
4843830.031645775
  0
LWPOLYLINE
  5
49
330
17
100
AcDbEntity
  8
ROADS
100
AcDbPolyline
 90
2
 70
0
 10
636482.8838698268
 20
4843830.031645775
 10
636442.3271157427
 20
4843919.307493296
  0
LWPOLYLINE
  5
4A
330
17
100
AcDbEntity
  8
ROADS
100
AcDbPolyline
 90
3
 70
0
 10
636482.8838698268
 20
4843830.031645775
 10
636670.6261318288
 20
4843890.447676824
 10
636668.1859870219
 20
4843935.409572425
  0
LWPOLYLINE
  5
4B
330
17
100
AcDbEntity
  8
ROADS
100
AcDbPolyline
 90
2
 70
0
 10
636668.1859870219
 20
4843935.409572425
 10
636759.1594415893
 20
4843965.06211896
  0
LWPOLYLINE
  5
4C
330
17
100
AcDbEntity
  8
ROADS
100
AcDbPolyline
 90
3
 70
0
 10
636442.3271157427
 20
4843919.307493296
 10
636642.6159435699
 20
4843983.951076783
 10
636668.1859870219
 20
4843935.409572425
  0
LWPOLYLINE
  5
4D
330
17
100
AcDbEntity
  8
ROADS
100
AcDbPolyline
 90
2
 70
0
 10
636442.3271157427
 20
4843919.307493296
 10
636411.6858420459
 20
4844009.764923821
  0
LWPOLYLINE
  5
4E
330
17
100
AcDbEntity
  8
ROADS
100
AcDbPolyline
 90
2
 70
0
 10
636759.1594415893
 20
4843965.06211896
 10
636712.9181550031
 20
4844109.243093432
  0
LWPOLYLINE
  5
4F
330
17
100
AcDbEntity
  8
ROADS
100
AcDbPolyline
 90
2
 70
0
 10
636411.6858420459
 20
4844009.764923821
 10
636620.8381112074
 20
4844078.569386716
  0
LWPOLYLINE
  5
50
330
17
100
AcDbEntity
  8
ROADS
100
AcDbPolyline
 90
2
 70
0
 10
636778.5377263258
 20
4843904.599253983
 10
636759.1594415893
 20
4843965.06211896
  0
LWPOLYLINE
  5
51
330
17
100
AcDbEntity
  8
ROADS
100
AcDbPolyline
 90
2
 70
0
 10
637130.2505423363
 20
4844039.541921068
 10
637120.692992326
 20
4844065.624076661
  0
LWPOLYLINE
  5
52
330
17
100
AcDbEntity
  8
ROADS
100
AcDbPolyline
 90
2
 70
0
 10
636870.9984809677
 20
4843942.785205149
 10
636808.8016529363
 20
4844136.984404689
  0
LWPOLYLINE
  5
53
330
17
100
AcDbEntity
  8
ROADS
100
AcDbPolyline
 90
2
 70
0
 10
637033.5846699477
 20
4844014.171690747
 10
636977.4653608352
 20
4844191.044696643
  0
LWPOLYLINE
  5
54
330
17
100
AcDbEntity
  8
ROADS
100
AcDbPolyline
 90
2
 70
0
 10
636942.7261704382
 20
4843982.107355013
 10
636885.4749668594
 20
4844162.375750103
  0
LWPOLYLINE
  5
55
330
17
100
AcDbEntity
  8
ROADS
100
AcDbPolyline
 90
2
 70
0
 10
637120.692992326
 20
4844065.624076661
 10
637248.3709859063
 20
4844104.941051687
  0
LWPOLYLINE
  5
56
330
17
100
AcDbEntity
  8
ROADS
100
AcDbPolyline
 90
2
 70
0
 10
636712.9181550031
 20
4844109.243093432
 10
636808.8016529363
 20
4844136.984404689
  0
LWPOLYLINE
  5
57
330
17
100
AcDbEntity
  8
ROADS
100
AcDbPolyline
 90
2
 70
0
 10
637120.692992326
 20
4844065.624076661
 10
637070.5452920027
 20
4844221.734568173
  0
LWPOLYLINE
  5
58
330
17
100
AcDbEntity
  8
ROADS
100
AcDbPolyline
 90
2
 70
0
 10
636808.8016529363
 20
4844136.984404689
 10
636885.4749668594
 20
4844162.375750103
  0
LWPOLYLINE
  5
59
330
17
100
AcDbEntity
  8
ROADS
100
AcDbPolyline
 90
2
 70
0
 10
637259.1623125048
 20
4844075.643942261
 10
637248.3709859063
 20
4844104.941051687
  0
LWPOLYLINE
  5
5A
330
17
100
AcDbEntity
  8
ROADS
100
AcDbPolyline
 90
2
 70
0
 10
637470.9009528203
 20
4844143.859009215
 10
637468.2946418007
 20
4844151.932708581
  0
LWPOLYLINE
  5
5B
330
17
100
AcDbEntity
  8
ROADS
100
AcDbPolyline
 90
2
 70
0
 10
637348.5602775319
 20
4844105.720508398
 10
637230.9566571164
 20
4844165.633392482
  0
LWPOLYLINE
  5
5C
330
17
100
AcDbEntity
  8
ROADS
100
AcDbPolyline
 90
2
 70
0
 10
637565.5154214641
 20
4844175.241303283
 10
637564.713435686
 20
4844177.683596192
  0
LWPOLYLINE
  5
5D
330
17
100
AcDbEntity
  8
ROADS
100
AcDbPolyline
 90
2
 70
0
 10
637248.3709859063
 20
4844104.941051687
 10
637230.9566571164
 20
4844165.633392482
  0
LWPOLYLINE
  5
5E
330
17
100
AcDbEntity
  8
ROADS
100
AcDbPolyline
 90
2
 70
0
 10
637564.713435686
 20
4844177.683596192
 10
637468.2946418007
 20
4844151.932708581
  0
LWPOLYLINE
  5
5F
330
17
100
AcDbEntity
  8
ROADS
100
AcDbPolyline
 90
2
 70
0
 10
637468.2946418007
 20
4844151.932708581
 10
637283.5845761759
 20
4844248.5977886105
  0
LWPOLYLINE
  5
60
330
17
100
AcDbEntity
  8
ROADS
100
AcDbPolyline
 90
3
 70
0
 10
637230.9566571164
 20
4844165.633392482
 10
637209.793201793
 20
4844226.257848845
 10
637283.5845761759
 20
4844248.5977886105
  0
LWPOLYLINE
  5
61
330
17
100
AcDbEntity
  8
ROADS
100
AcDbPolyline
 90
2
 70
0
 10
637283.5845761759
 20
4844248.5977886105
 10
637266.0814512542
 20
4844307.288336508
  0
LWPOLYLINE
  5
62
330
17
100
AcDbEntity
  8
ROADS
100
AcDbPolyline
 90
2
 70
0
 10
637564.713435686
 20
4844177.683596192
 10
637499.6839050945
 20
4844382.531393293
  0
LWPOLYLINE
  5
63
330
17
100
AcDbEntity
  8
ROADS
100
AcDbPolyline
 90
2
 70
0
 10
637266.0814512542
 20
4844307.288336508
 10
637384.2807513941
 20
4844345.4367113365
  0
LWPOLYLINE
  5
64
330
17
100
AcDbEntity
  8
ROADS
100
AcDbPolyline
 90
2
 70
0
 10
637634.0805507697
 20
4844288.952756854
 10
637591.9035488698
 20
4844419.205346854
  0
LWPOLYLINE
  5
65
330
17
100
AcDbEntity
  8
ROADS
100
AcDbPolyline
 90
2
 70
0
 10
637384.2807513941
 20
4844345.4367113365
 10
637499.6839050945
 20
4844382.531393293
  0
LWPOLYLINE
  5
66
330
17
100
AcDbEntity
  8
ROADS
100
AcDbPolyline
 90
2
 70
0
 10
637591.9035488698
 20
4844419.205346854
 10
637681.5192942482
 20
4844385.821627398
  0
LWPOLYLINE
  5
67
330
17
100
AcDbEntity
  8
ROADS
100
AcDbPolyline
 90
2
 70
0
 10
636885.4749668594
 20
4844162.375750103
 10
636977.4653608352
 20
4844191.044696643
  0
LWPOLYLINE
  5
68
330
17
100
AcDbEntity
  8
ROADS
100
AcDbPolyline
 90
2
 70
0
 10
636808.8016529363
 20
4844136.984404689
 10
636760.5337314821
 20
4844272.126868171
  0
LWPOLYLINE
  5
69
330
17
100
AcDbEntity
  8
ROADS
100
AcDbPolyline
 90
2
 70
0
 10
636977.4653608352
 20
4844191.044696643
 10
637070.5452920027
 20
4844221.734568173
  0
LWPOLYLINE
  5
6A
330
17
100
AcDbEntity
  8
ROADS
100
AcDbPolyline
 90
2
 70
0
 10
636977.4653608352
 20
4844191.044696643
 10
636932.465006213
 20
4844332.245929113
  0
LWPOLYLINE
  5
6B
330
17
100
AcDbEntity
  8
ROADS
100
AcDbPolyline
 90
2
 70
0
 10
637070.5452920027
 20
4844221.734568173
 10
637025.6249985461
 20
4844361.937193964
  0
LWPOLYLINE
  5
6C
330
17
100
AcDbEntity
  8
ROADS
100
AcDbPolyline
 90
2
 70
0
 10
636885.4749668594
 20
4844162.375750103
 10
636790.708387916
 20
4844462.698454437
  0
LWPOLYLINE
  5
6D
330
17
100
AcDbEntity
  8
ROADS
100
AcDbPolyline
 90
2
 70
0
 10
636932.465006213
 20
4844332.245929113
 10
637025.6249985461
 20
4844361.937193964
  0
LWPOLYLINE
  5
6E
330
17
100
AcDbEntity
  8
ROADS
100
AcDbPolyline
 90
2
 70
0
 10
637025.6249985461
 20
4844361.937193964
 10
637000.7786121562
 20
4844439.495474784
  0
LWPOLYLINE
  5
6F
330
17
100
AcDbEntity
  8
ROADS
100
AcDbPolyline
 90
2
 70
0
 10
636932.465006213
 20
4844332.245929113
 10
636881.6380355384
 20
4844491.345269778
  0
LWPOLYLINE
  5
70
330
17
100
AcDbEntity
  8
ROADS
100
AcDbPolyline
 90
4
 70
0
 10
637093.0324493903
 20
4844557.181445468
 10
637145.4753828538
 20
4844395.112996189
 10
637142.1004692791
 20
4844364.048041727
 10
637167.4013740271
 20
4844318.776921178
  0
LWPOLYLINE
  5
71
330
17
100
AcDbEntity
  8
ROADS
100
AcDbPolyline
 90
2
 70
0
 10
637499.6839050945
 20
4844382.531393293
 10
637470.0401936537
 20
4844473.006130952
  0
LWPOLYLINE
  5
72
330
17
100
AcDbEntity
  8
ROADS
100
AcDbPolyline
 90
3
 70
0
 10
637470.0401936537
 20
4844473.006130952
 10
637525.2058344586
 20
4844478.004323369
 10
637591.9035488698
 20
4844419.205346854
  0
LWPOLYLINE
  5
73
330
17
100
AcDbEntity
  8
ROADS
100
AcDbPolyline
 90
2
 70
0
 10
637384.2807513941
 20
4844345.4367113365
 10
637292.71388059
 20
4844620.809439057
  0
LWPOLYLINE
  5
74
330
17
100
AcDbEntity
  8
ROADS
100
AcDbPolyline
 90
2
 70
0
 10
637653.6881590884
 20
4844476.328232064
 10
637608.5351527652
 20
4844584.522869923
  0
LWPOLYLINE
  5
75
330
17
100
AcDbEntity
  8
ROADS
100
AcDbPolyline
 90
2
 70
0
 10
637470.0401936537
 20
4844473.006130952
 10
637423.7470017811
 20
4844623.184961753
  0
LWPOLYLINE
  5
76
330
17
100
AcDbEntity
  8
ROADS
100
AcDbPolyline
 90
2
 70
0
 10
637608.5351527652
 20
4844584.522869923
 10
637543.2855644774
 20
4844563.340587529
  0
LWPOLYLINE
  5
77
330
17
100
AcDbEntity
  8
ROADS
100
AcDbPolyline
 90
2
 70
0
 10
637176.7938943371
 20
4844584.702430583
 10
637292.71388059
 20
4844620.809439057
  0
LWPOLYLINE
  5
78
330
17
100
AcDbEntity
  8
ROADS
100
AcDbPolyline
 90
2
 70
0
 10
637608.5351527652
 20
4844584.522869923
 10
637579.6774420796
 20
4844673.009665068
  0
LWPOLYLINE
  5
79
330
17
100
AcDbEntity
  8
ROADS
100
AcDbPolyline
 90
2
 70
0
 10
637292.71388059
 20
4844620.809439057
 10
637410.5171771506
 20
4844659.9488498
  0
LWPOLYLINE
  5
7A
330
17
100
AcDbEntity
  8
ROADS
100
AcDbPolyline
 90
2
 70
0
 10
637423.7470017811
 20
4844623.184961753
 10
637410.5171771506
 20
4844659.9488498
  0
LWPOLYLINE
  5
7B
330
17
100
AcDbEntity
  8
ROADS
100
AcDbPolyline
 90
2
 70
0
 10
635677.3729500702
 20
4843885.638535335
 10
635678.3955625469
 20
4843885.544908803
  0
LWPOLYLINE
  5
7C
330
17
100
AcDbEntity
  8
ROADS
100
AcDbPolyline
 90
2
 70
0
 10
635678.3955625469
 20
4843885.544908803
 10
635678.4467977037
 20
4843896.801321662
  0
LWPOLYLINE
  5
7D
330
17
100
AcDbEntity
  8
ROADS
100
AcDbPolyline
 90
2
 70
0
 10
636056.1098877816
 20
4843954.814118133
 10
635992.9402366884
 20
4843936.145926269
  0
LWPOLYLINE
  5
7E
330
17
100
AcDbEntity
  8
ROADS
100
AcDbPolyline
 90
2
 70
0
 10
635904.2940245873
 20
4843906.944620692
 10
635869.4345805312
 20
4844027.444193189
  0
LWPOLYLINE
  5
7F
330
17
100
AcDbEntity
  8
ROADS
100
AcDbPolyline
 90
4
 70
0
 10
635992.9402366884
 20
4843936.145926269
 10
635964.503316916
 20
4844024.16592361
 10
635977.7268344709
 20
4844046.4082745295
 10
636017.9594992204
 20
4844063.140086401
  0
LWPOLYLINE
  5
80
330
17
100
AcDbEntity
  8
ROADS
100
AcDbPolyline
 90
2
 70
0
 10
635772.1153134016
 20
4844041.182637964
 10
635869.4345805312
 20
4844027.444193189
  0
LWPOLYLINE
  5
81
330
17
100
AcDbEntity
  8
ROADS
100
AcDbPolyline
 90
2
 70
0
 10
635690.4732444902
 20
4844055.318913479
 10
635772.1153134016
 20
4844041.182637964
  0
LWPOLYLINE
  5
82
330
17
100
AcDbEntity
  8
ROADS
100
AcDbPolyline
 90
4
 70
0
 10
635869.4345805312
 20
4844027.444193189
 10
635888.696687798
 20
4844087.301170981
 10
635918.6946775152
 20
4844123.850453014
 10
636019.4163041203
 20
4844165.681540296
  0
LWPOLYLINE
  5
83
330
17
100
AcDbEntity
  8
ROADS
100
AcDbPolyline
 90
5
 70
0
 10
635772.1153134016
 20
4844041.182637964
 10
635783.5682678445
 20
4844100.899216925
 10
635869.118109777
 20
4844212.463767374
 10
635990.9228227205
 20
4844253.176455706
 10
636019.4163041203
 20
4844165.681540296
  0
LWPOLYLINE
  5
84
330
17
100
AcDbEntity
  8
ROADS
100
AcDbPolyline
 90
3
 70
0
 10
635703.743434909
 20
4844156.460006086
 10
635783.1261729278
 20
4844263.4134927085
 10
635830.4352118069
 20
4844298.275025241
  0
LWPOLYLINE
  5
85
330
17
100
AcDbEntity
  8
ROADS
100
AcDbPolyline
 90
6
 70
0
 10
635703.743434909
 20
4844156.460006086
 10
635631.3276552792
 20
4844213.656041221
 10
635759.5427214012
 20
4844395.506144825
 10
635794.2171476034
 20
4844417.137792365
 10
635806.1707558483
 20
4844412.853824555
 10
635830.4352118069
 20
4844298.275025241
  0
LWPOLYLINE
  5
86
330
17
100
AcDbEntity
  8
ROADS
100
AcDbPolyline
 90
3
 70
0
 10
635830.4352118069
 20
4844298.275025241
 10
636053.4512908403
 20
4844362.329123075
 10
636082.3719868765
 20
4844282.338600327
  0
LWPOLYLINE
  5
87
330
17
100
AcDbEntity
  8
ROADS
100
AcDbPolyline
 90
2
 70
0
 10
635619.0672274255
 20
4843928.208247972
 10
635666.1565237101
 20
4844012.209435461
  0
LWPOLYLINE
  5
88
330
17
100
AcDbEntity
  8
ROADS
100
AcDbPolyline
 90
2
 70
0
 10
635504.3265954085
 20
4844039.980715939
 10
635511.2846905836
 20
4844049.955595929
  0
LWPOLYLINE
  5
89
330
17
100
AcDbEntity
  8
ROADS
100
AcDbPolyline
 90
2
 70
0
 10
635696.8603645611
 20
4843966.35174604
 10
635666.1565237101
 20
4844012.209435461
  0
LWPOLYLINE
  5
8A
330
17
100
AcDbEntity
  8
ROADS
100
AcDbPolyline
 90
2
 70
0
 10
635666.1565237101
 20
4844012.209435461
 10
635690.4732444902
 20
4844055.318913479
  0
LWPOLYLINE
  5
8B
330
17
100
AcDbEntity
  8
ROADS
100
AcDbPolyline
 90
2
 70
0
 10
635511.2846905836
 20
4844049.955595929
 10
635477.6600012253
 20
4844074.023218254
  0
LWPOLYLINE
  5
8C
330
17
100
AcDbEntity
  8
ROADS
100
AcDbPolyline
 90
2
 70
0
 10
635650.6280554364
 20
4844081.485884767
 10
635690.4732444902
 20
4844055.318913479
  0
LWPOLYLINE
  5
8D
330
17
100
AcDbEntity
  8
ROADS
100
AcDbPolyline
 90
3
 70
0
 10
635511.2846905836
 20
4844049.955595929
 10
635574.3768170562
 20
4844133.111006348
 10
635650.6280554364
 20
4844081.485884767
  0
LWPOLYLINE
  5
8E
330
17
100
AcDbEntity
  8
ROADS
100
AcDbPolyline
 90
2
 70
0
 10
635650.6280554364
 20
4844081.485884767
 10
635703.743434909
 20
4844156.460006086
  0
LWPOLYLINE
  5
8F
330
17
100
AcDbEntity
  8
ROADS
100
AcDbPolyline
 90
3
 70
0
 10
635745.2486780423
 20
4844543.802380527
 10
635736.0831053241
 20
4844472.591194904
 10
635464.3354765385
 20
4844092.351460848
  0
LWPOLYLINE
  5
90
330
17
100
AcDbEntity
  8
ROADS
100
AcDbPolyline
 90
2
 70
0
 10
635337.1261174695
 20
4844499.8897427255
 10
635582.7000484441
 20
4844525.817957171
  0
LWPOLYLINE
  5
91
330
17
100
AcDbEntity
  8
ROADS
100
AcDbPolyline
 90
2
 70
0
 10
636411.6858420459
 20
4844009.764923821
 10
636384.6848391031
 20
4844099.285154357
  0
LWPOLYLINE
  5
92
330
17
100
AcDbEntity
  8
ROADS
100
AcDbPolyline
 90
2
 70
0
 10
636620.8381112074
 20
4844078.569386716
 10
636712.9181550031
 20
4844109.243093432
  0
LWPOLYLINE
  5
93
330
17
100
AcDbEntity
  8
ROADS
100
AcDbPolyline
 90
3
 70
0
 10
636384.6848391031
 20
4844099.285154357
 10
636580.7317670556
 20
4844180.856570139
 10
636620.8381112074
 20
4844078.569386716
  0
LWPOLYLINE
  5
94
330
17
100
AcDbEntity
  8
ROADS
100
AcDbPolyline
 90
3
 70
0
 10
636384.6848391031
 20
4844099.285154357
 10
636358.3391109302
 20
4844183.820787059
 10
636466.0086990863
 20
4844222.215418286
  0
LWPOLYLINE
  5
95
330
17
100
AcDbEntity
  8
ROADS
100
AcDbPolyline
 90
2
 70
0
 10
636712.9181550031
 20
4844109.243093432
 10
636645.4541679532
 20
4844323.726180618
  0
LWPOLYLINE
  5
96
330
17
100
AcDbEntity
  8
ROADS
100
AcDbPolyline
 90
3
 70
0
 10
636466.0086990863
 20
4844222.215418286
 10
636556.1150850012
 20
4844290.860844586
 10
636645.4541679532
 20
4844323.726180618
  0
LWPOLYLINE
  5
97
330
17
100
AcDbEntity
  8
ROADS
100
AcDbPolyline
 90
2
 70
0
 10
636645.4541679532
 20
4844323.726180618
 10
636618.8933301108
 20
4844407.157868363
  0
LWPOLYLINE
  5
98
330
17
100
AcDbEntity
  8
ROADS
100
AcDbPolyline
 90
3
 70
0
 10
636466.0086990863
 20
4844222.215418286
 10
636382.9129439273
 20
4844368.942251936
 10
636325.1862055348
 20
4844547.275131467
  0
LWPOLYLINE
  5
99
330
17
100
AcDbEntity
  8
ROADS
100
AcDbPolyline
 90
2
 70
0
 10
636733.9240935525
 20
4844374.659437413
 10
636713.3482631919
 20
4844437.295611921
  0
LWPOLYLINE
  5
9A
330
17
100
AcDbEntity
  8
ROADS
100
AcDbPolyline
 90
2
 70
0
 10
636618.8933301108
 20
4844407.157868363
 10
636713.3482631919
 20
4844437.295611921
  0
LWPOLYLINE
  5
9B
330
17
100
AcDbEntity
  8
ROADS
100
AcDbPolyline
 90
2
 70
0
 10
636221.3905830588
 20
4844012.816312603
 10
636202.8558011841
 20
4844071.488008209
  0
LWPOLYLINE
  5
9C
330
17
100
AcDbEntity
  8
ROADS
100
AcDbPolyline
 90
4
 70
0
 10
636133.3507339228
 20
4843981.716775942
 10
636106.2228758076
 20
4844069.738504665
 10
636124.9690983278
 20
4844139.088031415
 10
636106.5298732016
 20
4844201.26374465
  0
LWPOLYLINE
  5
9D
330
17
100
AcDbEntity
  8
ROADS
100
AcDbPolyline
 90
2
 70
0
 10
636281.7764033818
 20
4844034.888439632
 10
636211.7872421918
 20
4844252.85586079
  0
LWPOLYLINE
  5
9E
330
17
100
AcDbEntity
  8
ROADS
100
AcDbPolyline
 90
2
 70
0
 10
636019.4163041203
 20
4844165.681540296
 10
636106.5298732016
 20
4844201.26374465
  0
LWPOLYLINE
  5
9F
330
17
100
AcDbEntity
  8
ROADS
100
AcDbPolyline
 90
2
 70
0
 10
636106.5298732016
 20
4844201.26374465
 10
636211.7872421918
 20
4844252.85586079
  0
LWPOLYLINE
  5
A0
330
17
100
AcDbEntity
  8
ROADS
100
AcDbPolyline
 90
2
 70
0
 10
636106.5298732016
 20
4844201.26374465
 10
636082.3719868765
 20
4844282.338600327
  0
LWPOLYLINE
  5
A1
330
17
100
AcDbEntity
  8
ROADS
100
AcDbPolyline
 90
2
 70
0
 10
636082.3719868765
 20
4844282.338600327
 10
636135.8748850198
 20
4844304.812196492
  0
LWPOLYLINE
  5
A2
330
17
100
AcDbEntity
  8
ROADS
100
AcDbPolyline
 90
2
 70
0
 10
636211.7872421918
 20
4844252.85586079
 10
636135.8274601353
 20
4844486.839524117
  0
LWPOLYLINE
  5
A3
330
17
100
AcDbEntity
  8
ROADS
100
AcDbPolyline
 90
2
 70
0
 10
636135.8274601353
 20
4844486.839524117
 10
636325.1862055348
 20
4844547.275131467
  0
LWPOLYLINE
  5
A4
330
17
100
AcDbEntity
  8
ROADS
100
AcDbPolyline
 90
2
 70
0
 10
636135.8274601353
 20
4844486.839524117
 10
636097.1852130175
 20
4844622.154952772
  0
LWPOLYLINE
  5
A5
330
17
100
AcDbEntity
  8
ROADS
100
AcDbPolyline
 90
2
 70
0
 10
636713.3482631919
 20
4844437.295611921
 10
636790.708387916
 20
4844462.698454437
  0
LWPOLYLINE
  5
A6
330
17
100
AcDbEntity
  8
ROADS
100
AcDbPolyline
 90
2
 70
0
 10
636618.8933301108
 20
4844407.157868363
 10
636553.4586908126
 20
4844609.415476748
  0
LWPOLYLINE
  5
A7
330
17
100
AcDbEntity
  8
ROADS
100
AcDbPolyline
 90
5
 70
0
 10
636713.3482631919
 20
4844437.295611921
 10
636637.012660834
 20
4844668.934569992
 10
636644.3910817794
 20
4844686.070704544
 10
636713.9980756411
 20
4844701.332310584
 10
636790.708387916
 20
4844462.698454437
  0
LWPOLYLINE
  5
A8
330
17
100
AcDbEntity
  8
ROADS
100
AcDbPolyline
 90
2
 70
0
 10
636325.1862055348
 20
4844547.275131467
 10
636553.4586908126
 20
4844609.415476748
  0
LWPOLYLINE
  5
A9
330
17
100
AcDbEntity
  8
ROADS
100
AcDbPolyline
 90
2
 70
0
 10
636553.4586908126
 20
4844609.415476748
 10
636509.2313750909
 20
4844752.6276541585
  0
LWPOLYLINE
  5
AA
330
17
100
AcDbEntity
  8
ROADS
100
AcDbPolyline
 90
2
 70
0
 10
636288.3086160049
 20
4844681.621492252
 10
636509.2313750909
 20
4844752.6276541585
  0
LWPOLYLINE
  5
AB
330
17
100
AcDbEntity
  8
ROADS
100
AcDbPolyline
 90
2
 70
0
 10
636509.2313750909
 20
4844752.6276541585
 10
636703.4305793378
 20
4844815.08729653
  0
LWPOLYLINE
  5
AC
330
17
100
AcDbEntity
  8
ROADS
100
AcDbPolyline
 90
2
 70
0
 10
636509.2313750909
 20
4844752.6276541585
 10
636476.1675934669
 20
4844856.040335512
  0
LWPOLYLINE
  5
AD
330
17
100
AcDbEntity
  8
ROADS
100
AcDbPolyline
 90
2
 70
0
 10
636703.4305793378
 20
4844815.08729653
 10
636770.2548370847
 20
4844836.341093942
  0
LWPOLYLINE
  5
AE
330
17
100
AcDbEntity
  8
ROADS
100
AcDbPolyline
 90
2
 70
0
 10
636383.2597189848
 20
4844826.354544449
 10
636476.1675934669
 20
4844856.040335512
  0
LWPOLYLINE
  5
AF
330
17
100
AcDbEntity
  8
ROADS
100
AcDbPolyline
 90
2
 70
0
 10
636097.1852130175
 20
4844622.154952772
 10
636288.3086160049
 20
4844681.621492252
  0
LWPOLYLINE
  5
B0
330
17
100
AcDbEntity
  8
ROADS
100
AcDbPolyline
 90
2
 70
0
 10
636288.3086160049
 20
4844681.621492252
 10
636260.7450842485
 20
4844785.132703597
  0
LWPOLYLINE
  5
B1
330
17
100
AcDbEntity
  8
ROADS
100
AcDbPolyline
 90
2
 70
0
 10
636097.1852130175
 20
4844622.154952772
 10
636029.4204285936
 20
4844867.433331067
  0
LWPOLYLINE
  5
B2
330
17
100
AcDbEntity
  8
ROADS
100
AcDbPolyline
 90
2
 70
0
 10
636260.7450842485
 20
4844785.132703597
 10
636383.2597189848
 20
4844826.354544449
  0
LWPOLYLINE
  5
B3
330
17
100
AcDbEntity
  8
ROADS
100
AcDbPolyline
 90
2
 70
0
 10
636260.7450842485
 20
4844785.132703597
 10
636237.8813282839
 20
4844870.727391
  0
LWPOLYLINE
  5
B4
330
17
100
AcDbEntity
  8
ROADS
100
AcDbPolyline
 90
3
 70
0
 10
636260.7450842485
 20
4844785.132703597
 10
636170.4512120225
 20
4844759.494637362
 10
636130.3208855571
 20
4844897.783372438
  0
LWPOLYLINE
  5
B5
330
17
100
AcDbEntity
  8
ROADS
100
AcDbPolyline
 90
3
 70
0
 10
636237.8813282839
 20
4844870.727391
 10
636356.8709800487
 20
4844909.886254035
 10
636383.2597189848
 20
4844826.354544449
  0
LWPOLYLINE
  5
B6
330
17
100
AcDbEntity
  8
ROADS
100
AcDbPolyline
 90
2
 70
0
 10
636029.4204285936
 20
4844867.433331067
 10
636130.3208855571
 20
4844897.783372438
  0
LWPOLYLINE
  5
B7
330
17
100
AcDbEntity
  8
ROADS
100
AcDbPolyline
 90
3
 70
0
 10
636185.4187985085
 20
4844916.782639265
 10
636224.1776564025
 20
4844928.690451347
 10
636237.8813282839
 20
4844870.727391
  0
LWPOLYLINE
  5
B8
330
17
100
AcDbEntity
  8
ROADS
100
AcDbPolyline
 90
2
 70
0
 10
636130.3208855571
 20
4844897.783372438
 10
636185.4187985085
 20
4844916.782639265
  0
LWPOLYLINE
  5
B9
330
17
100
AcDbEntity
  8
ROADS
100
AcDbPolyline
 90
3
 70
0
 10
635745.2486780423
 20
4844543.802380527
 10
635965.1659154145
 20
4844581.259171288
 10
636097.1852130175
 20
4844622.154952772
  0
LWPOLYLINE
  5
BA
330
17
100
AcDbEntity
  8
ROADS
100
AcDbPolyline
 90
2
 70
0
 10
635749.4865315496
 20
4844852.366192613
 10
635785.4851378952
 20
4844825.222574471
  0
LWPOLYLINE
  5
BB
330
17
100
AcDbEntity
  8
ROADS
100
AcDbPolyline
 90
3
 70
0
 10
635705.4134802001
 20
4844861.32401924
 10
635740.1944066308
 20
4844839.679841872
 10
635749.4865315496
 20
4844852.366192613
  0
LWPOLYLINE
  5
BC
330
17
100
AcDbEntity
  8
ROADS
100
AcDbPolyline
 90
2
 70
0
 10
635749.4865315496
 20
4844852.366192613
 10
635784.9315033141
 20
4844904.015976765
  0
LWPOLYLINE
  5
BD
330
17
100
AcDbEntity
  8
ROADS
100
AcDbPolyline
 90
2
 70
0
 10
635784.9315033141
 20
4844904.015976765
 10
635824.9196661978
 20
4844876.530063693
  0
LWPOLYLINE
  5
BE
330
17
100
AcDbEntity
  8
ROADS
100
AcDbPolyline
 90
2
 70
0
 10
636029.4204285936
 20
4844867.433331067
 10
635997.5892588267
 20
4844982.389692859
  0
LWPOLYLINE
  5
BF
330
17
100
AcDbEntity
  8
ROADS
100
AcDbPolyline
 90
2
 70
0
 10
635784.9315033141
 20
4844904.015976765
 10
635813.3692544953
 20
4844955.091350919
  0
LWPOLYLINE
  5
C0
330
17
100
AcDbEntity
  8
ROADS
100
AcDbPolyline
 90
2
 70
0
 10
635860.4023633116
 20
4844927.3669732995
 10
635813.3692544953
 20
4844955.091350919
  0
LWPOLYLINE
  5
C1
330
17
100
AcDbEntity
  8
ROADS
100
AcDbPolyline
 90
2
 70
0
 10
635846.0112596508
 20
4845093.93408675
 10
635705.4134802001
 20
4844861.32401924
  0
LWPOLYLINE
  5
C2
330
17
100
AcDbEntity
  8
ROADS
100
AcDbPolyline
 90
2
 70
0
 10
635813.3692544953
 20
4844955.091350919
 10
635845.1193848259
 20
4845005.940687204
  0
LWPOLYLINE
  5
C3
330
17
100
AcDbEntity
  8
ROADS
100
AcDbPolyline
 90
2
 70
0
 10
635323.4805597537
 20
4844916.757767282
 10
635380.7487341694
 20
4844934.696195723
  0
LWPOLYLINE
  5
C4
330
17
100
AcDbEntity
  8
ROADS
100
AcDbPolyline
 90
6
 70
0
 10
635682.6488830178
 20
4845005.014444551
 10
635695.7094186832
 20
4844960.08997903
 10
635662.3865193535
 20
4844903.25566979
 10
635547.5527770765
 20
4844858.722661905
 10
635530.409232253
 20
4844868.8881571805
 10
635507.4541339129
 20
4844946.770327243
  0
LWPOLYLINE
  5
C5
330
17
100
AcDbEntity
  8
ROADS
100
AcDbPolyline
 90
2
 70
0
 10
635380.7487341694
 20
4844934.696195723
 10
635444.6956629319
 20
4844929.483541815
  0
LWPOLYLINE
  5
C6
330
17
100
AcDbEntity
  8
ROADS
100
AcDbPolyline
 90
2
 70
0
 10
635444.6956629319
 20
4844929.483541815
 10
635507.4541339129
 20
4844946.770327243
  0
LWPOLYLINE
  5
C7
330
17
100
AcDbEntity
  8
ROADS
100
AcDbPolyline
 90
2
 70
0
 10
635507.4541339129
 20
4844946.770327243
 10
635682.6488830178
 20
4845005.014444551
  0
LWPOLYLINE
  5
C8
330
17
100
AcDbEntity
  8
ROADS
100
AcDbPolyline
 90
2
 70
0
 10
635380.7487341694
 20
4844934.696195723
 10
635386.633412463
 20
4845020.074145688
  0
LWPOLYLINE
  5
C9
330
17
100
AcDbEntity
  8
ROADS
100
AcDbPolyline
 90
2
 70
0
 10
635329.6141111325
 20
4845004.926283884
 10
635386.633412463
 20
4845020.074145688
  0
LWPOLYLINE
  5
CA
330
17
100
AcDbEntity
  8
ROADS
100
AcDbPolyline
 90
2
 70
0
 10
635386.633412463
 20
4845020.074145688
 10
635452.5318848054
 20
4845024.340666181
  0
LWPOLYLINE
  5
CB
330
17
100
AcDbEntity
  8
ROADS
100
AcDbPolyline
 90
3
 70
0
 10
635358.5774658674
 20
4845068.5148915155
 10
635465.1410136631
 20
4845094.647079441
 10
635451.0343401863
 20
4845115.990517843
  0
LWPOLYLINE
  5
CC
330
17
100
AcDbEntity
  8
ROADS
100
AcDbPolyline
 90
7
 70
0
 10
635682.6488830178
 20
4845005.014444551
 10
635627.8099313509
 20
4845102.394055423
 10
635591.5328190061
 20
4845208.928522616
 10
635597.0209819272
 20
4845228.883636908
 10
635682.5421922586
 20
4845237.4038721165
 10
635712.8207705414
 20
4845126.67340029
 10
635769.0603697556
 20
4845083.667905864
  0
LWPOLYLINE
  5
CD
330
17
100
AcDbEntity
  8
ROADS
100
AcDbPolyline
 90
2
 70
0
 10
636185.4187985085
 20
4844916.782639265
 10
636157.9119976015
 20
4845003.29431463
  0
LWPOLYLINE
  5
CE
330
17
100
AcDbEntity
  8
ROADS
100
AcDbPolyline
 90
2
 70
0
 10
636157.9119976015
 20
4845003.29431463
 10
636196.2036727972
 20
4845014.98865805
  0
LWPOLYLINE
  5
CF
330
17
100
AcDbEntity
  8
ROADS
100
AcDbPolyline
 90
2
 70
0
 10
635997.5892588267
 20
4844982.389692859
 10
636065.3702582996
 20
4845046.62361798
  0
LWPOLYLINE
  5
D0
330
17
100
AcDbEntity
  8
ROADS
100
AcDbPolyline
 90
3
 70
0
 10
636065.3702582996
 20
4845046.62361798
 10
636104.6068067498
 20
4844992.328207404
 10
636157.9119976015
 20
4845003.29431463
  0
LWPOLYLINE
  5
D1
330
17
100
AcDbEntity
  8
ROADS
100
AcDbPolyline
 90
2
 70
0
 10
636065.3702582996
 20
4845046.62361798
 10
636113.2963387979
 20
4845116.49957503
  0
LWPOLYLINE
  5
D2
330
17
100
AcDbEntity
  8
ROADS
100
AcDbPolyline
 90
2
 70
0
 10
636113.2963387979
 20
4845116.49957503
 10
636277.3569159177
 20
4845163.668292557
  0
LWPOLYLINE
  5
D3
330
17
100
AcDbEntity
  8
ROADS
100
AcDbPolyline
 90
2
 70
0
 10
636277.3569159177
 20
4845163.668292557
 10
636372.526249851
 20
4845191.9559897315
  0
LWPOLYLINE
  5
D4
330
17
100
AcDbEntity
  8
ROADS
100
AcDbPolyline
 90
2
 70
0
 10
636113.2963387979
 20
4845116.49957503
 10
636227.7398695664
 20
4845313.593291568
  0
LWPOLYLINE
  5
D5
330
17
100
AcDbEntity
  8
ROADS
100
AcDbPolyline
 90
2
 70
0
 10
636227.7398695664
 20
4845313.593291568
 10
636277.3569159177
 20
4845163.668292557
  0
LWPOLYLINE
  5
D6
330
17
100
AcDbEntity
  8
ROADS
100
AcDbPolyline
 90
2
 70
0
 10
636227.7398695664
 20
4845313.593291568
 10
636231.6586892306
 20
4845352.668735993
  0
LWPOLYLINE
  5
D7
330
17
100
AcDbEntity
  8
ROADS
100
AcDbPolyline
 90
2
 70
0
 10
637875.0521343882
 20
4844179.465906231
 10
637890.3160472752
 20
4844184.58171645
  0
LWPOLYLINE
  5
D8
330
17
100
AcDbEntity
  8
ROADS
100
AcDbPolyline
 90
4
 70
0
 10
637740.8861265432
 20
4844169.648926749
 10
637725.0900504291
 20
4844216.59158063
 10
637661.765827812
 20
4844206.444249666
 10
637634.0805507697
 20
4844288.952756854
  0
LWPOLYLINE
  5
D9
330
17
100
AcDbEntity
  8
ROADS
100
AcDbPolyline
 90
2
 70
0
 10
637634.0805507697
 20
4844288.952756854
 10
637711.8651684804
 20
4844301.362099989
  0
LWPOLYLINE
  5
DA
330
17
100
AcDbEntity
  8
ROADS
100
AcDbPolyline
 90
2
 70
0
 10
637965.5921946864
 20
4844393.377162344
 10
638103.7127280158
 20
4844437.788890762
  0
LWPOLYLINE
  5
DB
330
17
100
AcDbEntity
  8
ROADS
100
AcDbPolyline
 90
2
 70
0
 10
638103.7127280158
 20
4844437.788890762
 10
637985.4477222739
 20
4844809.369906136
  0
LWPOLYLINE
  5
DC
330
17
100
AcDbEntity
  8
ROADS
100
AcDbPolyline
 90
3
 70
0
 10
637890.3160472752
 20
4844184.58171645
 10
637630.9475803882
 20
4844999.967430867
 10
637579.6465926184
 20
4845092.048175577
  0
LWPOLYLINE
  5
DD
330
17
100
AcDbEntity
  8
ROADS
100
AcDbPolyline
 90
2
 70
0
 10
637985.4477222739
 20
4844809.369906136
 10
638213.3351241399
 20
4844882.5087932395
  0
LWPOLYLINE
  5
DE
330
17
100
AcDbEntity
  8
ROADS
100
AcDbPolyline
 90
3
 70
0
 10
637985.4477222739
 20
4844809.369906136
 10
637894.6037607732
 20
4845093.889958411
 10
637844.4418211884
 20
4845177.851622375
  0
LWPOLYLINE
  5
DF
330
17
100
AcDbEntity
  8
ROADS
100
AcDbPolyline
 90
2
 70
0
 10
637607.8540248291
 20
4845101.558786683
 10
637844.4418211884
 20
4845177.851622375
  0
LWPOLYLINE
  5
E0
330
17
100
AcDbEntity
  8
ROADS
100
AcDbPolyline
 90
2
 70
0
 10
637844.4418211884
 20
4845177.851622375
 10
638094.4178695485
 20
4845260.394569164
  0
LWPOLYLINE
  5
E1
330
17
100
AcDbEntity
  8
ROADS
100
AcDbPolyline
 90
2
 70
0
 10
638596.9624084417
 20
4844610.175279425
 10
638571.6644316727
 20
4844648.98000378
  0
LWPOLYLINE
  5
E2
330
17
100
AcDbEntity
  8
ROADS
100
AcDbPolyline
 90
2
 70
0
 10
638571.6644316727
 20
4844648.98000378
 10
638660.0937487932
 20
4844708.588732042
  0
LWPOLYLINE
  5
E3
330
17
100
AcDbEntity
  8
ROADS
100
AcDbPolyline
 90
2
 70
0
 10
638280.5312370072
 20
4844667.169876988
 10
638412.3449344318
 20
4844707.098144721
  0
LWPOLYLINE
  5
E4
330
17
100
AcDbEntity
  8
ROADS
100
AcDbPolyline
 90
2
 70
0
 10
638412.3449344318
 20
4844707.098144721
 10
638421.7790461616
 20
4844676.265995986
  0
LWPOLYLINE
  5
E5
330
17
100
AcDbEntity
  8
ROADS
100
AcDbPolyline
 90
3
 70
0
 10
638421.7790461616
 20
4844676.265995986
 10
638548.7968242571
 20
4844741.574893184
 10
638525.7311246275
 20
4844807.163590112
  0
LWPOLYLINE
  5
E6
330
17
100
AcDbEntity
  8
ROADS
100
AcDbPolyline
 90
2
 70
0
 10
638280.5312370072
 20
4844667.169876988
 10
638233.4081924747
 20
4844819.866260859
  0
LWPOLYLINE
  5
E7
330
17
100
AcDbEntity
  8
ROADS
100
AcDbPolyline
 90
3
 70
0
 10
638412.3449344318
 20
4844707.098144721
 10
638393.3517323242
 20
4844768.760174174
 10
638508.2007224939
 20
4844801.845689924
  0
LWPOLYLINE
  5
E8
330
17
100
AcDbEntity
  8
ROADS
100
AcDbPolyline
 90
3
 70
0
 10
638525.7311246275
 20
4844807.163590112
 10
638622.4088081077
 20
4844835.918719157
 10
638660.0937487932
 20
4844708.588732042
  0
LWPOLYLINE
  5
E9
330
17
100
AcDbEntity
  8
ROADS
100
AcDbPolyline
 90
2
 70
0
 10
638508.2007224939
 20
4844801.845689924
 10
638525.7311246275
 20
4844807.163590112
  0
LWPOLYLINE
  5
EA
330
17
100
AcDbEntity
  8
ROADS
100
AcDbPolyline
 90
2
 70
0
 10
638233.4081924747
 20
4844819.866260859
 10
638406.6515110526
 20
4844873.011942399
  0
LWPOLYLINE
  5
EB
330
17
100
AcDbEntity
  8
ROADS
100
AcDbPolyline
 90
2
 70
0
 10
638832.1900595071
 20
4844713.618968917
 10
638790.3513472321
 20
4844794.47633594
  0
LWPOLYLINE
  5
EC
330
17
100
AcDbEntity
  8
ROADS
100
AcDbPolyline
 90
2
 70
0
 10
638660.0937487932
 20
4844708.588732042
 10
638742.0340232928
 20
4844764.078609264
  0
LWPOLYLINE
  5
ED
330
17
100
AcDbEntity
  8
ROADS
100
AcDbPolyline
 90
2
 70
0
 10
638742.0340232928
 20
4844764.078609264
 10
638790.3513472321
 20
4844794.47633594
  0
LWPOLYLINE
  5
EE
330
17
100
AcDbEntity
  8
ROADS
100
AcDbPolyline
 90
2
 70
0
 10
638790.3513472321
 20
4844794.47633594
 10
638826.3839658997
 20
4844817.611951019
  0
LWPOLYLINE
  5
EF
330
17
100
AcDbEntity
  8
ROADS
100
AcDbPolyline
 90
2
 70
0
 10
638826.3839658997
 20
4844817.611951019
 10
638797.233549556
 20
4844912.092329906
  0
LWPOLYLINE
  5
F0
330
17
100
AcDbEntity
  8
ROADS
100
AcDbPolyline
 90
2
 70
0
 10
638742.0340232928
 20
4844764.078609264
 10
638656.7756198794
 20
4845043.562961406
  0
LWPOLYLINE
  5
F1
330
17
100
AcDbEntity
  8
ROADS
100
AcDbPolyline
 90
2
 70
0
 10
638826.3839658997
 20
4844817.611951019
 10
638949.8810353874
 20
4844898.256666988
  0
LWPOLYLINE
  5
F2
330
17
100
AcDbEntity
  8
ROADS
100
AcDbPolyline
 90
2
 70
0
 10
638956.4123914224
 20
4844911.896042852
 10
638933.5098742667
 20
4844990.571299922
  0
LWPOLYLINE
  5
F3
330
17
100
AcDbEntity
  8
ROADS
100
AcDbPolyline
 90
2
 70
0
 10
638508.2007224939
 20
4844801.845689924
 10
638479.4155749808
 20
4844893.332306553
  0
LWPOLYLINE
  5
F4
330
17
100
AcDbEntity
  8
ROADS
100
AcDbPolyline
 90
2
 70
0
 10
638233.4081924747
 20
4844819.866260859
 10
638213.3351241399
 20
4844882.5087932395
  0
LWPOLYLINE
  5
F5
330
17
100
AcDbEntity
  8
ROADS
100
AcDbPolyline
 90
2
 70
0
 10
638406.6515110526
 20
4844873.011942399
 10
638479.4155749808
 20
4844893.332306553
  0
LWPOLYLINE
  5
F6
330
17
100
AcDbEntity
  8
ROADS
100
AcDbPolyline
 90
2
 70
0
 10
638213.3351241399
 20
4844882.5087932395
 10
638204.552383554
 20
4844908.352236259
  0
LWPOLYLINE
  5
F7
330
17
100
AcDbEntity
  8
ROADS
100
AcDbPolyline
 90
2
 70
0
 10
638479.4155749808
 20
4844893.332306553
 10
638590.9801283939
 20
4844928.3585936
  0
LWPOLYLINE
  5
F8
330
17
100
AcDbEntity
  8
ROADS
100
AcDbPolyline
 90
2
 70
0
 10
638406.6515110526
 20
4844873.011942399
 10
638378.2335714861
 20
4844961.505887876
  0
LWPOLYLINE
  5
F9
330
17
100
AcDbEntity
  8
ROADS
100
AcDbPolyline
 90
2
 70
0
 10
638204.552383554
 20
4844908.352236259
 10
638294.2945783628
 20
4844936.981786025
  0
LWPOLYLINE
  5
FA
330
17
100
AcDbEntity
  8
ROADS
100
AcDbPolyline
 90
2
 70
0
 10
638294.2945783628
 20
4844936.981786025
 10
638378.2335714861
 20
4844961.505887876
  0
LWPOLYLINE
  5
FB
330
17
100
AcDbEntity
  8
ROADS
100
AcDbPolyline
 90
2
 70
0
 10
638378.2335714861
 20
4844961.505887876
 10
638656.7756198794
 20
4845043.562961406
  0
LWPOLYLINE
  5
FC
330
17
100
AcDbEntity
  8
ROADS
100
AcDbPolyline
 90
4
 70
0
 10
638294.2945783628
 20
4844936.981786025
 10
638229.6672067475
 20
4845143.833362069
 10
638310.4439503463
 20
4845177.300108309
 10
638378.2335714861
 20
4844961.505887876
  0
LWPOLYLINE
  5
FD
330
17
100
AcDbEntity
  8
ROADS
100
AcDbPolyline
 90
2
 70
0
 10
639008.7620647582
 20
4845078.362458461
 10
638998.4821697794
 20
4845109.761280146
  0
LWPOLYLINE
  5
FE
330
17
100
AcDbEntity
  8
ROADS
100
AcDbPolyline
 90
2
 70
0
 10
638797.233549556
 20
4844912.092329906
 10
638933.5098742667
 20
4844990.571299922
  0
LWPOLYLINE
  5
FF
330
17
100
AcDbEntity
  8
ROADS
100
AcDbPolyline
 90
2
 70
0
 10
638797.233549556
 20
4844912.092329906
 10
638766.4365939305
 20
4845014.545652601
  0
LWPOLYLINE
  5
100
330
17
100
AcDbEntity
  8
ROADS
100
AcDbPolyline
 90
2
 70
0
 10
638933.5098742667
 20
4844990.571299922
 10
638906.378777378
 20
4845077.088482495
  0
LWPOLYLINE
  5
101
330
17
100
AcDbEntity
  8
ROADS
100
AcDbPolyline
 90
3
 70
0
 10
638699.7283932772
 20
4845057.335985674
 10
638747.069137156
 20
4845069.2012769235
 10
638766.4365939305
 20
4845014.545652601
  0
LWPOLYLINE
  5
102
330
17
100
AcDbEntity
  8
ROADS
100
AcDbPolyline
 90
2
 70
0
 10
638766.4365939305
 20
4845014.545652601
 10
638906.378777378
 20
4845077.088482495
  0
LWPOLYLINE
  5
103
330
17
100
AcDbEntity
  8
ROADS
100
AcDbPolyline
 90
2
 70
0
 10
638656.7756198794
 20
4845043.562961406
 10
638699.7283932772
 20
4845057.335985674
  0
LWPOLYLINE
  5
104
330
17
100
AcDbEntity
  8
ROADS
100
AcDbPolyline
 90
2
 70
0
 10
638699.7283932772
 20
4845057.335985674
 10
638686.2141134898
 20
4845102.126622071
  0
LWPOLYLINE
  5
105
330
17
100
AcDbEntity
  8
ROADS
100
AcDbPolyline
 90
2
 70
0
 10
638906.378777378
 20
4845077.088482495
 10
638998.4821697794
 20
4845109.761280146
  0
LWPOLYLINE
  5
106
330
17
100
AcDbEntity
  8
ROADS
100
AcDbPolyline
 90
4
 70
0
 10
638906.378777378
 20
4845077.088482495
 10
638882.2467236809
 20
4845156.659277907
 10
638830.5984475841
 20
4845157.723230935
 10
638805.269242432
 20
4845241.2717122
  0
LWPOLYLINE
  5
107
330
17
100
AcDbEntity
  8
ROADS
100
AcDbPolyline
 90
2
 70
0
 10
638204.552383554
 20
4844908.352236259
 10
638094.4178695485
 20
4845260.394569164
  0
LWPOLYLINE
  5
108
330
17
100
AcDbEntity
  8
ROADS
100
AcDbPolyline
 90
2
 70
0
 10
638094.4178695485
 20
4845260.394569164
 10
638264.708671855
 20
4845310.673724471
  0
LWPOLYLINE
  5
109
330
17
100
AcDbEntity
  8
ROADS
100
AcDbPolyline
 90
2
 70
0
 10
638264.708671855
 20
4845310.673724471
 10
638324.6443170437
 20
4845328.571664397
  0
LWPOLYLINE
  5
10A
330
17
100
AcDbEntity
  8
ROADS
100
AcDbPolyline
 90
2
 70
0
 10
638324.6443170437
 20
4845328.571664397
 10
638365.3096621165
 20
4845341.856247797
  0
LWPOLYLINE
  5
10B
330
17
100
AcDbEntity
  8
ROADS
100
AcDbPolyline
 90
2
 70
0
 10
638264.708671855
 20
4845310.673724471
 10
638241.2814487747
 20
4845382.856410272
  0
LWPOLYLINE
  5
10C
330
17
100
AcDbEntity
  8
ROADS
100
AcDbPolyline
 90
2
 70
0
 10
638365.3096621165
 20
4845341.856247797
 10
638342.9532870911
 20
4845411.346085738
  0
LWPOLYLINE
  5
10D
330
17
100
AcDbEntity
  8
ROADS
100
AcDbPolyline
 90
2
 70
0
 10
638061.9208534533
 20
4845366.816239798
 10
638153.1006541543
 20
4845395.470933795
  0
LWPOLYLINE
  5
10E
330
17
100
AcDbEntity
  8
ROADS
100
AcDbPolyline
 90
3
 70
0
 10
638327.256455303
 20
4845459.964506867
 10
638286.0600014307
 20
4845448.340452109
 10
638324.6443170437
 20
4845328.571664397
  0
LWPOLYLINE
  5
10F
330
17
100
AcDbEntity
  8
ROADS
100
AcDbPolyline
 90
2
 70
0
 10
638342.9532870911
 20
4845411.346085738
 10
638366.3750347085
 20
4845416.840706358
  0
LWPOLYLINE
  5
110
330
17
100
AcDbEntity
  8
ROADS
100
AcDbPolyline
 90
2
 70
0
 10
638365.3096621165
 20
4845341.856247797
 10
638885.8762261758
 20
4845498.017652586
  0
LWPOLYLINE
  5
111
330
17
100
AcDbEntity
  8
ROADS
100
AcDbPolyline
 90
2
 70
0
 10
637266.0814512542
 20
4844307.288336508
 10
637176.7938943371
 20
4844584.702430583
  0
LWPOLYLINE
  5
112
330
17
100
AcDbEntity
  8
ROADS
100
AcDbPolyline
 90
2
 70
0
 10
636790.708387916
 20
4844462.698454437
 10
636881.6380355384
 20
4844491.345269778
  0
LWPOLYLINE
  5
113
330
17
100
AcDbEntity
  8
ROADS
100
AcDbPolyline
 90
2
 70
0
 10
636881.6380355384
 20
4844491.345269778
 10
637012.3904206264
 20
4844532.692226253
  0
LWPOLYLINE
  5
114
330
17
100
AcDbEntity
  8
ROADS
100
AcDbPolyline
 90
2
 70
0
 10
636881.6380355384
 20
4844491.345269778
 10
636866.2343649918
 20
4844541.071928061
  0
LWPOLYLINE
  5
115
330
17
100
AcDbEntity
  8
ROADS
100
AcDbPolyline
 90
2
 70
0
 10
637058.4301054233
 20
4844544.983871775
 10
637093.0324493903
 20
4844557.181445468
  0
LWPOLYLINE
  5
116
330
17
100
AcDbEntity
  8
ROADS
100
AcDbPolyline
 90
2
 70
0
 10
637093.0324493903
 20
4844557.181445468
 10
637176.7938943371
 20
4844584.702430583
  0
LWPOLYLINE
  5
117
330
17
100
AcDbEntity
  8
ROADS
100
AcDbPolyline
 90
2
 70
0
 10
637176.7938943371
 20
4844584.702430583
 10
637147.4526872941
 20
4844679.181408936
  0
LWPOLYLINE
  5
118
330
17
100
AcDbEntity
  8
ROADS
100
AcDbPolyline
 90
2
 70
0
 10
636866.2343649918
 20
4844541.071928061
 10
636804.1482793611
 20
4844734.968526387
  0
LWPOLYLINE
  5
119
330
17
100
AcDbEntity
  8
ROADS
100
AcDbPolyline
 90
5
 70
0
 10
636866.2343649918
 20
4844541.071928061
 10
636954.081851631
 20
4844577.666696063
 10
636902.5872314895
 20
4844752.754382365
 10
636891.5156777562
 20
4844763.554916568
 10
636804.1482793611
 20
4844734.968526387
  0
LWPOLYLINE
  5
11A
330
17
100
AcDbEntity
  8
ROADS
100
AcDbPolyline
 90
3
 70
0
 10
637093.0324493903
 20
4844557.181445468
 10
637024.7750560831
 20
4844794.9714605585
 10
637100.9752670522
 20
4844822.354589449
  0
LWPOLYLINE
  5
11B
330
17
100
AcDbEntity
  8
ROADS
100
AcDbPolyline
 90
2
 70
0
 10
637423.7470017811
 20
4844623.184961753
 10
637579.6774420796
 20
4844673.009665068
  0
LWPOLYLINE
  5
11C
330
17
100
AcDbEntity
  8
ROADS
100
AcDbPolyline
 90
2
 70
0
 10
637235.6626933402
 20
4844719.784675655
 10
637274.5089751903
 20
4844697.48692515
  0
LWPOLYLINE
  5
11D
330
17
100
AcDbEntity
  8
ROADS
100
AcDbPolyline
 90
2
 70
0
 10
637579.6774420796
 20
4844673.009665068
 10
637550.8454911934
 20
4844763.497098068
  0
LWPOLYLINE
  5
11E
330
17
100
AcDbEntity
  8
ROADS
100
AcDbPolyline
 90
2
 70
0
 10
637410.5171771506
 20
4844659.9488498
 10
637364.5473338423
 20
4844806.129113515
  0
LWPOLYLINE
  5
11F
330
17
100
AcDbEntity
  8
ROADS
100
AcDbPolyline
 90
2
 70
0
 10
637235.6626933402
 20
4844719.784675655
 10
637255.9869239263
 20
4844757.158092126
  0
LWPOLYLINE
  5
120
330
17
100
AcDbEntity
  8
ROADS
100
AcDbPolyline
 90
2
 70
0
 10
637550.8454911934
 20
4844763.497098068
 10
637483.8624211266
 20
4844741.284303869
  0
LWPOLYLINE
  5
121
330
17
100
AcDbEntity
  8
ROADS
100
AcDbPolyline
 90
3
 70
0
 10
637255.9869239263
 20
4844757.158092126
 10
637275.1812689174
 20
4844777.507484699
 10
637364.5473338423
 20
4844806.129113515
  0
LWPOLYLINE
  5
122
330
17
100
AcDbEntity
  8
ROADS
100
AcDbPolyline
 90
3
 70
0
 10
637550.8454911934
 20
4844763.497098068
 10
637521.0525718933
 20
4844848.508607717
 10
637459.67411083
 20
4844833.747963105
  0
LWPOLYLINE
  5
123
330
17
100
AcDbEntity
  8
ROADS
100
AcDbPolyline
 90
2
 70
0
 10
637459.67411083
 20
4844833.747963105
 10
637364.5473338423
 20
4844806.129113515
  0
LWPOLYLINE
  5
124
330
17
100
AcDbEntity
  8
ROADS
100
AcDbPolyline
 90
4
 70
0
 10
637255.9869239263
 20
4844757.158092126
 10
637233.6203973196
 20
4844773.753676053
 10
637211.6147838921
 20
4844846.361953045
 10
637335.9137836556
 20
4844892.617699726
  0
LWPOLYLINE
  5
125
330
17
100
AcDbEntity
  8
ROADS
100
AcDbPolyline
 90
2
 70
0
 10
637147.4526872941
 20
4844679.181408936
 10
637235.6626933402
 20
4844719.784675655
  0
LWPOLYLINE
  5
126
330
17
100
AcDbEntity
  8
ROADS
100
AcDbPolyline
 90
2
 70
0
 10
637147.4526872941
 20
4844679.181408936
 10
637100.9752670522
 20
4844822.354589449
  0
LWPOLYLINE
  5
127
330
17
100
AcDbEntity
  8
ROADS
100
AcDbPolyline
 90
2
 70
0
 10
636804.1482793611
 20
4844734.968526387
 10
636770.2548370847
 20
4844836.341093942
  0
LWPOLYLINE
  5
128
330
17
100
AcDbEntity
  8
ROADS
100
AcDbPolyline
 90
2
 70
0
 10
636770.2548370847
 20
4844836.341093942
 10
636833.7344913644
 20
4844856.949285719
  0
LWPOLYLINE
  5
129
330
17
100
AcDbEntity
  8
ROADS
100
AcDbPolyline
 90
2
 70
0
 10
637100.9752670522
 20
4844822.354589449
 10
637065.5744273233
 20
4844931.415651399
  0
LWPOLYLINE
  5
12A
330
17
100
AcDbEntity
  8
ROADS
100
AcDbPolyline
 90
2
 70
0
 10
636833.7344913644
 20
4844856.949285719
 10
637012.5765858028
 20
4844914.182519222
  0
LWPOLYLINE
  5
12B
330
17
100
AcDbEntity
  8
ROADS
100
AcDbPolyline
 90
2
 70
0
 10
637012.5765858028
 20
4844914.182519222
 10
637065.5744273233
 20
4844931.415651399
  0
LWPOLYLINE
  5
12C
330
17
100
AcDbEntity
  8
ROADS
100
AcDbPolyline
 90
2
 70
0
 10
637065.5744273233
 20
4844931.415651399
 10
637207.5264267526
 20
4844975.2998113
  0
LWPOLYLINE
  5
12D
330
17
100
AcDbEntity
  8
ROADS
100
AcDbPolyline
 90
2
 70
0
 10
637012.5765858028
 20
4844914.182519222
 10
636954.4098928552
 20
4845052.723042803
  0
LWPOLYLINE
  5
12E
330
17
100
AcDbEntity
  8
ROADS
100
AcDbPolyline
 90
2
 70
0
 10
637207.5264267526
 20
4844975.2998113
 10
637189.8308356153
 20
4845023.983903837
  0
LWPOLYLINE
  5
12F
330
17
100
AcDbEntity
  8
ROADS
100
AcDbPolyline
 90
2
 70
0
 10
637364.5473338423
 20
4844806.129113515
 10
637335.9137836556
 20
4844892.617699726
  0
LWPOLYLINE
  5
130
330
17
100
AcDbEntity
  8
ROADS
100
AcDbPolyline
 90
2
 70
0
 10
637459.67411083
 20
4844833.747963105
 10
637430.4107459215
 20
4844925.800684857
  0
LWPOLYLINE
  5
131
330
17
100
AcDbEntity
  8
ROADS
100
AcDbPolyline
 90
2
 70
0
 10
637430.4107459215
 20
4844925.800684857
 10
637498.5029886758
 20
4844947.56655326
  0
LWPOLYLINE
  5
132
330
17
100
AcDbEntity
  8
ROADS
100
AcDbPolyline
 90
2
 70
0
 10
637430.4107459215
 20
4844925.800684857
 10
637416.2077506569
 20
4844970.078639346
  0
LWPOLYLINE
  5
133
330
17
100
AcDbEntity
  8
ROADS
100
AcDbPolyline
 90
2
 70
0
 10
637335.9137836556
 20
4844892.617699726
 10
637302.729385786
 20
4845006.026363259
  0
LWPOLYLINE
  5
134
330
17
100
AcDbEntity
  8
ROADS
100
AcDbPolyline
 90
2
 70
0
 10
637207.5264267526
 20
4844975.2998113
 10
637302.729385786
 20
4845006.026363259
  0
LWPOLYLINE
  5
135
330
17
100
AcDbEntity
  8
ROADS
100
AcDbPolyline
 90
2
 70
0
 10
637302.729385786
 20
4845006.026363259
 10
637495.2477542682
 20
4845068.518862743
  0
LWPOLYLINE
  5
136
330
17
100
AcDbEntity
  8
ROADS
100
AcDbPolyline
 90
2
 70
0
 10
637302.729385786
 20
4845006.026363259
 10
637260.0627311391
 20
4845132.267502802
  0
LWPOLYLINE
  5
137
330
17
100
AcDbEntity
  8
ROADS
100
AcDbPolyline
 90
2
 70
0
 10
637495.2477542682
 20
4845068.518862743
 10
637579.6465926184
 20
4845092.048175577
  0
LWPOLYLINE
  5
138
330
17
100
AcDbEntity
  8
ROADS
100
AcDbPolyline
 90
2
 70
0
 10
637579.6465926184
 20
4845092.048175577
 10
637607.8540248291
 20
4845101.558786683
  0
LWPOLYLINE
  5
139
330
17
100
AcDbEntity
  8
ROADS
100
AcDbPolyline
 90
2
 70
0
 10
636833.7344913644
 20
4844856.949285719
 10
636731.7137035516
 20
4845186.706081844
  0
LWPOLYLINE
  5
13A
330
17
100
AcDbEntity
  8
ROADS
100
AcDbPolyline
 90
3
 70
0
 10
636954.4098928552
 20
4845052.723042803
 10
637085.6023395238
 20
4845060.100077131
 10
637189.8308356153
 20
4845023.983903837
  0
LWPOLYLINE
  5
13B
330
17
100
AcDbEntity
  8
ROADS
100
AcDbPolyline
 90
2
 70
0
 10
636954.4098928552
 20
4845052.723042803
 10
636935.8528168498
 20
4845121.395322101
  0
LWPOLYLINE
  5
13C
330
17
100
AcDbEntity
  8
ROADS
100
AcDbPolyline
 90
2
 70
0
 10
637189.8308356153
 20
4845023.983903837
 10
637149.483299923
 20
4845153.268268913
  0
LWPOLYLINE
  5
13D
330
17
100
AcDbEntity
  8
ROADS
100
AcDbPolyline
 90
2
 70
0
 10
636935.8528168498
 20
4845121.395322101
 10
636938.5581696356
 20
4845158.448690034
  0
LWPOLYLINE
  5
13E
330
17
100
AcDbEntity
  8
ROADS
100
AcDbPolyline
 90
2
 70
0
 10
636938.5581696356
 20
4845158.448690034
 10
637149.483299923
 20
4845153.268268913
  0
LWPOLYLINE
  5
13F
330
17
100
AcDbEntity
  8
ROADS
100
AcDbPolyline
 90
2
 70
0
 10
636935.8528168498
 20
4845121.395322101
 10
636894.6032854645
 20
4845238.66214985
  0
LWPOLYLINE
  5
140
330
17
100
AcDbEntity
  8
ROADS
100
AcDbPolyline
 90
2
 70
0
 10
637149.483299923
 20
4845153.268268913
 10
637118.617745684
 20
4845252.7205488505
  0
LWPOLYLINE
  5
141
330
17
100
AcDbEntity
  8
ROADS
100
AcDbPolyline
 90
2
 70
0
 10
636938.5581696356
 20
4845158.448690034
 10
636953.0913351858
 20
4845263.724451644
  0
LWPOLYLINE
  5
142
330
17
100
AcDbEntity
  8
ROADS
100
AcDbPolyline
 90
2
 70
0
 10
636731.7137035516
 20
4845186.706081844
 10
636894.6032854645
 20
4845238.66214985
  0
LWPOLYLINE
  5
143
330
17
100
AcDbEntity
  8
ROADS
100
AcDbPolyline
 90
2
 70
0
 10
637607.8540248291
 20
4845101.558786683
 10
637592.9587696807
 20
4845154.29601255
  0
LWPOLYLINE
  5
144
330
17
100
AcDbEntity
  8
ROADS
100
AcDbPolyline
 90
3
 70
0
 10
637495.2477542682
 20
4845068.518862743
 10
637481.5973125164
 20
4845111.276683339
 10
637404.8925667251
 20
4845195.812701902
  0
LWPOLYLINE
  5
145
330
17
100
AcDbEntity
  8
ROADS
100
AcDbPolyline
 90
2
 70
0
 10
637260.0627311391
 20
4845132.267502802
 10
637381.4255755756
 20
4845182.326551706
  0
LWPOLYLINE
  5
146
330
17
100
AcDbEntity
  8
ROADS
100
AcDbPolyline
 90
2
 70
0
 10
637260.0627311391
 20
4845132.267502802
 10
637230.873045987
 20
4845228.973908198
  0
LWPOLYLINE
  5
147
330
17
100
AcDbEntity
  8
ROADS
100
AcDbPolyline
 90
2
 70
0
 10
637381.4255755756
 20
4845182.326551706
 10
637404.8925667251
 20
4845195.812701902
  0
LWPOLYLINE
  5
148
330
17
100
AcDbEntity
  8
ROADS
100
AcDbPolyline
 90
3
 70
0
 10
637592.9587696807
 20
4845154.29601255
 10
637541.1428473858
 20
4845209.364953127
 10
637515.469168734
 20
4845288.413453059
  0
LWPOLYLINE
  5
149
330
17
100
AcDbEntity
  8
ROADS
100
AcDbPolyline
 90
2
 70
0
 10
637381.4255755756
 20
4845182.326551706
 10
637338.664571756
 20
4845268.707302666
  0
LWPOLYLINE
  5
14A
330
17
100
AcDbEntity
  8
ROADS
100
AcDbPolyline
 90
2
 70
0
 10
637230.873045987
 20
4845228.973908198
 10
637258.4672508963
 20
4845237.332311726
  0
LWPOLYLINE
  5
14B
330
17
100
AcDbEntity
  8
ROADS
100
AcDbPolyline
 90
2
 70
0
 10
637404.8925667251
 20
4845195.812701902
 10
637515.469168734
 20
4845288.413453059
  0
LWPOLYLINE
  5
14C
330
17
100
AcDbEntity
  8
ROADS
100
AcDbPolyline
 90
3
 70
0
 10
637592.9587696807
 20
4845154.29601255
 10
637616.0332594092
 20
4845229.72084476
 10
637587.0850268898
 20
4845330.211069762
  0
LWPOLYLINE
  5
14D
330
17
100
AcDbEntity
  8
ROADS
100
AcDbPolyline
 90
2
 70
0
 10
636953.0913351858
 20
4845263.724451644
 10
637118.617745684
 20
4845252.7205488505
  0
LWPOLYLINE
  5
14E
330
17
100
AcDbEntity
  8
ROADS
100
AcDbPolyline
 90
2
 70
0
 10
637230.873045987
 20
4845228.973908198
 10
637201.384915759
 20
4845321.2284832075
  0
LWPOLYLINE
  5
14F
330
17
100
AcDbEntity
  8
ROADS
100
AcDbPolyline
 90
2
 70
0
 10
636894.6032854645
 20
4845238.66214985
 10
636867.1932786237
 20
4845330.176191942
  0
LWPOLYLINE
  5
150
330
17
100
AcDbEntity
  8
ROADS
100
AcDbPolyline
 90
2
 70
0
 10
637118.617745684
 20
4845252.7205488505
 10
637099.070268823
 20
4845317.375549628
  0
LWPOLYLINE
  5
151
330
17
100
AcDbEntity
  8
ROADS
100
AcDbPolyline
 90
2
 70
0
 10
636953.0913351858
 20
4845263.724451644
 10
636968.5063328808
 20
4845341.011630753
  0
LWPOLYLINE
  5
152
330
17
100
AcDbEntity
  8
ROADS
100
AcDbPolyline
 90
2
 70
0
 10
637099.070268823
 20
4845317.375549628
 10
637195.0785509979
 20
4845338.116351403
  0
LWPOLYLINE
  5
153
330
17
100
AcDbEntity
  8
ROADS
100
AcDbPolyline
 90
2
 70
0
 10
637201.384915759
 20
4845321.2284832075
 10
637195.0785509979
 20
4845338.116351403
  0
LWPOLYLINE
  5
154
330
17
100
AcDbEntity
  8
ROADS
100
AcDbPolyline
 90
2
 70
0
 10
636867.1932786237
 20
4845330.176191942
 10
636968.5063328808
 20
4845341.011630753
  0
LWPOLYLINE
  5
155
330
17
100
AcDbEntity
  8
ROADS
100
AcDbPolyline
 90
2
 70
0
 10
637099.070268823
 20
4845317.375549628
 10
637085.6439757014
 20
4845358.137185424
  0
LWPOLYLINE
  5
156
330
17
100
AcDbEntity
  8
ROADS
100
AcDbPolyline
 90
2
 70
0
 10
636968.5063328808
 20
4845341.011630753
 10
636972.5000931236
 20
4845362.086872191
  0
LWPOLYLINE
  5
157
330
17
100
AcDbEntity
  8
ROADS
100
AcDbPolyline
 90
2
 70
0
 10
637515.469168734
 20
4845288.413453059
 10
637587.0850268898
 20
4845330.211069762
  0
LWPOLYLINE
  5
158
330
17
100
AcDbEntity
  8
ROADS
100
AcDbPolyline
 90
2
 70
0
 10
637338.664571756
 20
4845268.707302666
 10
637300.0773083263
 20
4845363.020338101
  0
LWPOLYLINE
  5
159
330
17
100
AcDbEntity
  8
ROADS
100
AcDbPolyline
 90
2
 70
0
 10
637201.384915759
 20
4845321.2284832075
 10
637300.0773083263
 20
4845363.020338101
  0
LWPOLYLINE
  5
15A
330
17
100
AcDbEntity
  8
ROADS
100
AcDbPolyline
 90
2
 70
0
 10
637338.664571756
 20
4845268.707302666
 10
637556.8345796746
 20
4845426.673323321
  0
LWPOLYLINE
  5
15B
330
17
100
AcDbEntity
  8
ROADS
100
AcDbPolyline
 90
2
 70
0
 10
637587.0850268898
 20
4845330.211069762
 10
637556.8345796746
 20
4845426.673323321
  0
LWPOLYLINE
  5
15C
330
17
100
AcDbEntity
  8
ROADS
100
AcDbPolyline
 90
2
 70
0
 10
637300.0773083263
 20
4845363.020338101
 10
637264.0628699835
 20
4845453.378573498
  0
LWPOLYLINE
  5
15D
330
17
100
AcDbEntity
  8
ROADS
100
AcDbPolyline
 90
2
 70
0
 10
637300.0773083263
 20
4845363.020338101
 10
637451.6370510262
 20
4845481.7756307935
  0
LWPOLYLINE
  5
15E
330
17
100
AcDbEntity
  8
ROADS
100
AcDbPolyline
 90
2
 70
0
 10
637556.8345796746
 20
4845426.673323321
 10
637528.9684835547
 20
4845519.178365557
  0
LWPOLYLINE
  5
15F
330
17
100
AcDbEntity
  8
ROADS
100
AcDbPolyline
 90
2
 70
0
 10
637451.6370510262
 20
4845481.7756307935
 10
637528.9684835547
 20
4845519.178365557
  0
LWPOLYLINE
  5
160
330
17
100
AcDbEntity
  8
ROADS
100
AcDbPolyline
 90
2
 70
0
 10
637264.0628699835
 20
4845453.378573498
 10
637231.7862947232
 20
4845554.8074937435
  0
LWPOLYLINE
  5
161
330
17
100
AcDbEntity
  8
ROADS
100
AcDbPolyline
 90
2
 70
0
 10
636972.5000931236
 20
4845362.086872191
 10
637085.6439757014
 20
4845358.137185424
  0
LWPOLYLINE
  5
162
330
17
100
AcDbEntity
  8
ROADS
100
AcDbPolyline
 90
2
 70
0
 10
636867.1932786237
 20
4845330.176191942
 10
636839.2657630699
 20
4845422.6809391575
  0
LWPOLYLINE
  5
163
330
17
100
AcDbEntity
  8
ROADS
100
AcDbPolyline
 90
2
 70
0
 10
636972.5000931236
 20
4845362.086872191
 10
636959.3320083384
 20
4845436.858275289
  0
LWPOLYLINE
  5
164
330
17
100
AcDbEntity
  8
ROADS
100
AcDbPolyline
 90
2
 70
0
 10
636839.2657630699
 20
4845422.6809391575
 10
636959.3320083384
 20
4845436.858275289
  0
LWPOLYLINE
  5
165
330
17
100
AcDbEntity
  8
ROADS
100
AcDbPolyline
 90
2
 70
0
 10
636839.2657630699
 20
4845422.6809391575
 10
636811.3114486483
 20
4845513.185004114
  0
LWPOLYLINE
  5
166
330
17
100
AcDbEntity
  8
ROADS
100
AcDbPolyline
 90
2
 70
0
 10
636959.3320083384
 20
4845436.858275289
 10
636929.4574623413
 20
4845533.329146279
  0
LWPOLYLINE
  5
167
330
17
100
AcDbEntity
  8
ROADS
100
AcDbPolyline
 90
2
 70
0
 10
636811.3114486483
 20
4845513.185004114
 10
636929.4574623413
 20
4845533.329146279
  0
LWPOLYLINE
  5
168
330
17
100
AcDbEntity
  8
ROADS
100
AcDbPolyline
 90
2
 70
0
 10
637085.6439757014
 20
4845358.137185424
 10
636973.207946531
 20
4845699.144517361
  0
LWPOLYLINE
  5
169
330
17
100
AcDbEntity
  8
ROADS
100
AcDbPolyline
 90
2
 70
0
 10
637195.0785509979
 20
4845338.116351403
 10
637070.4957663373
 20
4845736.260593533
  0
LWPOLYLINE
  5
16A
330
17
100
AcDbEntity
  8
ROADS
100
AcDbPolyline
 90
2
 70
0
 10
636811.3114486483
 20
4845513.185004114
 10
636779.3019812952
 20
4845613.616527793
  0
LWPOLYLINE
  5
16B
330
17
100
AcDbEntity
  8
ROADS
100
AcDbPolyline
 90
2
 70
0
 10
638094.4178695485
 20
4845260.394569164
 10
638061.9208534533
 20
4845366.816239798
  0
LWPOLYLINE
  5
16C
330
17
100
AcDbEntity
  8
ROADS
100
AcDbPolyline
 90
2
 70
0
 10
638061.9208534533
 20
4845366.816239798
 10
637938.7484963118
 20
4845750.070137491
  0
LWPOLYLINE
  5
16D
330
17
100
AcDbEntity
  8
ROADS
100
AcDbPolyline
 90
2
 70
0
 10
637844.4418211884
 20
4845177.851622375
 10
637556.8246230222
 20
4846079.531059494
  0
LWPOLYLINE
  5
16E
330
17
100
AcDbEntity
  8
ROADS
100
AcDbPolyline
 90
2
 70
0
 10
637938.7484963118
 20
4845750.070137491
 10
638029.4563634461
 20
4845778.27333736
  0
LWPOLYLINE
  5
16F
330
17
100
AcDbEntity
  8
ROADS
100
AcDbPolyline
 90
2
 70
0
 10
638029.4563634461
 20
4845778.27333736
 10
638119.4558342902
 20
4845802.906385638
  0
LWPOLYLINE
  5
170
330
17
100
AcDbEntity
  8
ROADS
100
AcDbPolyline
 90
2
 70
0
 10
637938.7484963118
 20
4845750.070137491
 10
637843.5497101485
 20
4846047.933303038
  0
LWPOLYLINE
  5
171
330
17
100
AcDbEntity
  8
ROADS
100
AcDbPolyline
 90
2
 70
0
 10
638029.4563634461
 20
4845778.27333736
 10
637934.4134851452
 20
4846076.581441282
  0
LWPOLYLINE
  5
172
330
17
100
AcDbEntity
  8
ROADS
100
AcDbPolyline
 90
2
 70
0
 10
638119.4558342902
 20
4845802.906385638
 10
638022.213997019
 20
4846105.174116824
  0
LWPOLYLINE
  5
173
330
17
100
AcDbEntity
  8
ROADS
100
AcDbPolyline
 90
2
 70
0
 10
637843.5497101485
 20
4846047.933303038
 10
637934.4134851452
 20
4846076.581441282
  0
LWPOLYLINE
  5
174
330
17
100
AcDbEntity
  8
ROADS
100
AcDbPolyline
 90
2
 70
0
 10
637934.4134851452
 20
4846076.581441282
 10
638022.213997019
 20
4846105.174116824
  0
LWPOLYLINE
  5
175
330
17
100
AcDbEntity
  8
ROADS
100
AcDbPolyline
 90
3
 70
0
 10
635337.1261174695
 20
4844499.8897427255
 10
635332.7008184637
 20
4844433.270860545
 10
635323.1783092206
 20
4844416.200533262
  0
LWPOLYLINE
  5
176
330
17
100
AcDbEntity
  8
ROADS
100
AcDbPolyline
 90
2
 70
0
 10
635299.7428696253
 20
4844495.407929024
 10
635337.1261174695
 20
4844499.8897427255
  0
LWPOLYLINE
  5
177
330
17
100
AcDbEntity
  8
ROADS
100
AcDbPolyline
 90
2
 70
0
 10
635582.7000484441
 20
4844525.817957171
 10
635745.2486780423
 20
4844543.802380527
  0
LWPOLYLINE
  5
178
330
17
100
AcDbEntity
  8
ROADS
100
AcDbPolyline
 90
4
 70
0
 10
635511.7183445358
 20
4844645.153267054
 10
635360.508268603
 20
4844589.694840329
 10
635336.520970466
 20
4844555.240577683
 10
635337.1261174695
 20
4844499.8897427255
  0
LWPOLYLINE
  5
179
330
17
100
AcDbEntity
  8
ROADS
100
AcDbPolyline
 90
3
 70
0
 10
635377.9698707917
 20
4844744.7314145705
 10
635402.0538663428
 20
4844672.988232632
 10
635315.7982828714
 20
4844629.91186239
  0
LWPOLYLINE
  5
17A
330
17
100
AcDbEntity
  8
ROADS
100
AcDbPolyline
 90
2
 70
0
 10
635511.7183445358
 20
4844645.153267054
 10
635466.7139062717
 20
4844775.201779956
  0
LWPOLYLINE
  5
17B
330
17
100
AcDbEntity
  8
ROADS
100
AcDbPolyline
 90
2
 70
0
 10
635271.9475865939
 20
4844710.413318599
 10
635377.9698707917
 20
4844744.7314145705
  0
LWPOLYLINE
  5
17C
330
17
100
AcDbEntity
  8
ROADS
100
AcDbPolyline
 90
3
 70
0
 10
635705.4134802001
 20
4844861.32401924
 10
635569.0225547645
 20
4844679.220718248
 10
635511.7183445358
 20
4844645.153267054
  0
LWPOLYLINE
  5
17D
330
17
100
AcDbEntity
  8
ROADS
100
AcDbPolyline
 90
2
 70
0
 10
635377.9698707917
 20
4844744.7314145705
 10
635466.7139062717
 20
4844775.201779956
  0
LWPOLYLINE
  5
17E
330
17
100
AcDbEntity
  8
ROADS
100
AcDbPolyline
 90
3
 70
0
 10
635323.4805597537
 20
4844916.757767282
 10
635349.6085821775
 20
4844834.806732546
 10
635278.4337736653
 20
4844811.166227658
  0
LWPOLYLINE
  5
17F
330
17
100
AcDbEntity
  8
ROADS
100
AcDbPolyline
 90
3
 70
0
 10
635466.7139062717
 20
4844775.201779956
 10
635436.5029818307
 20
4844866.793762685
 10
635444.6956629319
 20
4844929.483541815
  0
LWPOLYLINE
  5
180
330
17
100
AcDbEntity
  8
ROADS
100
AcDbPolyline
 90
2
 70
0
 10
635298.0207613787
 20
4844908.570651283
 10
635323.4805597537
 20
4844916.757767282
  0
LWPOLYLINE
  5
181
330
17
100
AcDbEntity
  8
ROADS
100
AcDbPolyline
 90
3
 70
0
 10
635404.0898549776
 20
4845147.550612877
 10
635433.3111780611
 20
4845157.723244672
 10
635486.9964945199
 20
4845226.834301061
  0
LWPOLYLINE
  5
182
330
17
100
AcDbEntity
  8
ROADS
100
AcDbPolyline
 90
2
 70
0
 10
635486.9964945199
 20
4845226.834301061
 10
635473.8017600856
 20
4845237.678425824
  0
LWPOLYLINE
  5
183
330
17
100
AcDbEntity
  8
ROADS
100
AcDbPolyline
 90
4
 70
0
 10
635486.9964945199
 20
4845226.834301061
 10
635563.389681617
 20
4845316.3303228365
 10
635653.6684038796
 20
4845325.83880926
 10
635640.8633165525
 20
4845380.467510334
  0
LWPOLYLINE
  5
184
330
17
100
AcDbEntity
  8
ROADS
100
AcDbPolyline
 90
2
 70
0
 10
635997.5892588267
 20
4844982.389692859
 10
635978.8275948558
 20
4845052.588210524
  0
LWPOLYLINE
  5
185
330
17
100
AcDbEntity
  8
ROADS
100
AcDbPolyline
 90
4
 70
0
 10
635845.1193848259
 20
4845005.940687204
 10
635893.914269774
 20
4844977.13311662
 10
635934.392849666
 20
4845042.691802932
 10
635916.9602407874
 20
4845110.960197801
  0
LWPOLYLINE
  5
186
330
17
100
AcDbEntity
  8
ROADS
100
AcDbPolyline
 90
3
 70
0
 10
635845.1193848259
 20
4845005.940687204
 10
635880.1111402949
 20
4845063.674833098
 10
635873.4760390569
 20
4845082.536861187
  0
LWPOLYLINE
  5
187
330
17
100
AcDbEntity
  8
ROADS
100
AcDbPolyline
 90
3
 70
0
 10
635682.6488830178
 20
4845005.014444551
 10
635733.268850161
 20
4845029.12107597
 10
635769.0603697556
 20
4845083.667905864
  0
LWPOLYLINE
  5
188
330
17
100
AcDbEntity
  8
ROADS
100
AcDbPolyline
 90
2
 70
0
 10
635873.4760390569
 20
4845082.536861187
 10
635846.0112596508
 20
4845093.93408675
  0
LWPOLYLINE
  5
189
330
17
100
AcDbEntity
  8
ROADS
100
AcDbPolyline
 90
2
 70
0
 10
635916.9602407874
 20
4845110.960197801
 10
635873.4760390569
 20
4845082.536861187
  0
LWPOLYLINE
  5
18A
330
17
100
AcDbEntity
  8
ROADS
100
AcDbPolyline
 90
2
 70
0
 10
635916.9602407874
 20
4845110.960197801
 10
635898.6252313999
 20
4845176.207980065
  0
LWPOLYLINE
  5
18B
330
17
100
AcDbEntity
  8
ROADS
100
AcDbPolyline
 90
2
 70
0
 10
635978.8275948558
 20
4845052.588210524
 10
635921.2969932999
 20
4845264.035239325
  0
LWPOLYLINE
  5
18C
330
17
100
AcDbEntity
  8
ROADS
100
AcDbPolyline
 90
4
 70
0
 10
635921.2969932999
 20
4845264.035239325
 10
635869.0700647713
 20
4845248.9202556
 10
635847.0113414478
 20
4845223.944648097
 10
635846.0112596508
 20
4845093.93408675
  0
LWPOLYLINE
  5
18D
330
17
100
AcDbEntity
  8
ROADS
100
AcDbPolyline
 90
3
 70
0
 10
635769.0603697556
 20
4845083.667905864
 10
635794.4538080641
 20
4845143.580949499
 10
635749.8514404153
 20
4845319.840846901
  0
LWPOLYLINE
  5
18E
330
17
100
AcDbEntity
  8
ROADS
100
AcDbPolyline
 90
2
 70
0
 10
636476.1675934669
 20
4844856.040335512
 10
636406.4869432683
 20
4845079.803826858
  0
LWPOLYLINE
  5
18F
330
17
100
AcDbEntity
  8
ROADS
100
AcDbPolyline
 90
2
 70
0
 10
636703.4305793378
 20
4844815.08729653
 10
636600.9192049564
 20
4845143.331957141
  0
LWPOLYLINE
  5
190
330
17
100
AcDbEntity
  8
ROADS
100
AcDbPolyline
 90
2
 70
0
 10
636569.7169465239
 20
4844898.738931035
 10
636493.2444979288
 20
4845107.377141776
  0
LWPOLYLINE
  5
191
330
17
100
AcDbEntity
  8
ROADS
100
AcDbPolyline
 90
2
 70
0
 10
636406.4869432683
 20
4845079.803826858
 10
636493.2444979288
 20
4845107.377141776
  0
LWPOLYLINE
  5
192
330
17
100
AcDbEntity
  8
ROADS
100
AcDbPolyline
 90
2
 70
0
 10
636493.2444979288
 20
4845107.377141776
 10
636600.9192049564
 20
4845143.331957141
  0
LWPOLYLINE
  5
193
330
17
100
AcDbEntity
  8
ROADS
100
AcDbPolyline
 90
2
 70
0
 10
636406.4869432683
 20
4845079.803826858
 10
636372.526249851
 20
4845191.9559897315
  0
LWPOLYLINE
  5
194
330
17
100
AcDbEntity
  8
ROADS
100
AcDbPolyline
 90
2
 70
0
 10
636600.9192049564
 20
4845143.331957141
 10
636731.7137035516
 20
4845186.706081844
  0
LWPOLYLINE
  5
195
330
17
100
AcDbEntity
  8
ROADS
100
AcDbPolyline
 90
2
 70
0
 10
636731.7137035516
 20
4845186.706081844
 10
636583.2502412216
 20
4845667.073332433
  0
LWPOLYLINE
  5
196
330
17
100
AcDbEntity
  8
ROADS
100
AcDbPolyline
 90
2
 70
0
 10
636600.9192049564
 20
4845143.331957141
 10
636432.6536277971
 20
4845670.160966027
  0
LWPOLYLINE
  5
197
330
17
100
AcDbEntity
  8
ROADS
100
AcDbPolyline
 90
2
 70
0
 10
636583.2502412216
 20
4845667.073332433
 10
636742.5223840992
 20
4845726.068747161
  0
LWPOLYLINE
  5
198
330
17
100
AcDbEntity
  8
ROADS
100
AcDbPolyline
 90
2
 70
0
 10
635921.2969932999
 20
4845264.035239325
 10
635895.4044364837
 20
4845361.583022284
  0
LWPOLYLINE
  5
199
330
17
100
AcDbEntity
  8
ROADS
100
AcDbPolyline
 90
2
 70
0
 10
635895.4044364837
 20
4845361.583022284
 10
635749.8514404153
 20
4845319.840846901
  0
LWPOLYLINE
  5
19A
330
17
100
AcDbEntity
  8
ROADS
100
AcDbPolyline
 90
3
 70
0
 10
635921.2969932999
 20
4845264.035239325
 10
636037.7572002326
 20
4845301.651270387
 10
636125.8289084075
 20
4845442.764007083
  0
LWPOLYLINE
  5
19B
330
17
100
AcDbEntity
  8
ROADS
100
AcDbPolyline
 90
2
 70
0
 10
635718.137238364
 20
4845423.796512607
 10
635749.8514404153
 20
4845319.840846901
  0
LWPOLYLINE
  5
19C
330
17
100
AcDbEntity
  8
ROADS
100
AcDbPolyline
 90
2
 70
0
 10
635895.4044364837
 20
4845361.583022284
 10
635862.7846039779
 20
4845480.110249732
  0
LWPOLYLINE
  5
19D
330
17
100
AcDbEntity
  8
ROADS
100
AcDbPolyline
 90
4
 70
0
 10
635895.4044364837
 20
4845361.583022284
 10
635976.5858041854
 20
4845383.055862797
 10
635999.286873358
 20
4845406.46898297
 10
635976.48057042
 20
4845510.016715306
  0
LWPOLYLINE
  5
19E
330
17
100
AcDbEntity
  8
ROADS
100
AcDbPolyline
 90
2
 70
0
 10
636372.526249851
 20
4845191.9559897315
 10
636277.3940711499
 20
4845495.6906433785
  0
LWPOLYLINE
  5
19F
330
17
100
AcDbEntity
  8
ROADS
100
AcDbPolyline
 90
2
 70
0
 10
636284.2579167949
 20
4845433.216342769
 10
636277.3940711499
 20
4845495.6906433785
  0
LWPOLYLINE
  5
1A0
330
17
100
AcDbEntity
  8
ROADS
100
AcDbPolyline
 90
3
 70
0
 10
636125.8289084075
 20
4845442.764007083
 10
636158.289924615
 20
4845500.358410053
 10
636161.3558756849
 20
4845543.728788184
  0
LWPOLYLINE
  5
1A1
330
17
100
AcDbEntity
  8
ROADS
100
AcDbPolyline
 90
2
 70
0
 10
636277.3940711499
 20
4845495.6906433785
 10
636263.9647512271
 20
4845538.663315123
  0
LWPOLYLINE
  5
1A2
330
17
100
AcDbEntity
  8
ROADS
100
AcDbPolyline
 90
3
 70
0
 10
636125.8289084075
 20
4845442.764007083
 10
636090.5879508231
 20
4845473.129093036
 10
636074.6268279843
 20
4845522.362545525
  0
LWPOLYLINE
  5
1A3
330
17
100
AcDbEntity
  8
ROADS
100
AcDbPolyline
 90
2
 70
0
 10
636263.9647512271
 20
4845538.663315123
 10
636252.8861567948
 20
4845573.930861034
  0
LWPOLYLINE
  5
1A4
330
17
100
AcDbEntity
  8
ROADS
100
AcDbPolyline
 90
2
 70
0
 10
636252.8861567948
 20
4845573.930861034
 10
636161.3558756849
 20
4845543.728788184
  0
LWPOLYLINE
  5
1A5
330
17
100
AcDbEntity
  8
ROADS
100
AcDbPolyline
 90
2
 70
0
 10
636252.2411182609
 20
4845590.866570505
 10
636252.8861567948
 20
4845573.930861034
  0
LWPOLYLINE
  5
1A6
330
17
100
AcDbEntity
  8
ROADS
100
AcDbPolyline
 90
2
 70
0
 10
636277.3940711499
 20
4845495.6906433785
 10
636334.7171064279
 20
4845617.543101974
  0
LWPOLYLINE
  5
1A7
330
17
100
AcDbEntity
  8
ROADS
100
AcDbPolyline
 90
2
 70
0
 10
636161.3558756849
 20
4845543.728788184
 10
636158.4796881661
 20
4845552.930096709
  0
LWPOLYLINE
  5
1A8
330
17
100
AcDbEntity
  8
ROADS
100
AcDbPolyline
 90
2
 70
0
 10
636252.8861567948
 20
4845573.930861034
 10
636248.071317992
 20
4845589.289900438
  0
LWPOLYLINE
  5
1A9
330
17
100
AcDbEntity
  8
ROADS
100
AcDbPolyline
 90
2
 70
0
 10
638998.4821697794
 20
4845109.761280146
 10
638956.243221697
 20
4845244.733640701
  0
LWPOLYLINE
  5
1AA
330
17
100
AcDbEntity
  8
ROADS
100
AcDbPolyline
 90
2
 70
0
 10
638805.269242432
 20
4845241.2717122
 10
638856.5658655704
 20
4845256.202957234
  0
LWPOLYLINE
  5
1AB
330
17
100
AcDbEntity
  8
ROADS
100
AcDbPolyline
 90
2
 70
0
 10
638805.269242432
 20
4845241.2717122
 10
638789.6081099008
 20
4845285.87546558
  0
LWPOLYLINE
  5
1AC
330
17
100
AcDbEntity
  8
ROADS
100
AcDbPolyline
 90
2
 70
0
 10
638789.6081099008
 20
4845285.87546558
 10
638741.3372093443
 20
4845271.142023091
  0
LWPOLYLINE
  5
1AD
330
17
100
AcDbEntity
  8
ROADS
100
AcDbPolyline
 90
2
 70
0
 10
638956.243221697
 20
4845244.733640701
 10
639022.2281181325
 20
4845270.410910287
  0
LWPOLYLINE
  5
1AE
330
17
100
AcDbEntity
  8
ROADS
100
AcDbPolyline
 90
2
 70
0
 10
638956.243221697
 20
4845244.733640701
 10
638914.7729445968
 20
4845376.577582099
  0
LWPOLYLINE
  5
1AF
330
17
100
AcDbEntity
  8
ROADS
100
AcDbPolyline
 90
3
 70
0
 10
638789.6081099008
 20
4845285.87546558
 10
638778.2687543081
 20
4845330.790497899
 10
638914.7729445968
 20
4845376.577582099
  0
LWPOLYLINE
  5
1B0
330
17
100
AcDbEntity
  8
ROADS
100
AcDbPolyline
 90
2
 70
0
 10
638914.7729445968
 20
4845376.577582099
 10
638885.8762261758
 20
4845498.017652586
  0
LWPOLYLINE
  5
1B1
330
17
100
AcDbEntity
  8
ROADS
100
AcDbPolyline
 90
2
 70
0
 10
638885.8762261758
 20
4845498.017652586
 10
638982.427555084
 20
4845527.925743371
  0
LWPOLYLINE
  5
1B2
330
17
100
AcDbEntity
  8
ROADS
100
AcDbPolyline
 90
2
 70
0
 10
638342.9532870911
 20
4845411.346085738
 10
638327.256455303
 20
4845459.964506867
  0
LWPOLYLINE
  5
1B3
330
17
100
AcDbEntity
  8
ROADS
100
AcDbPolyline
 90
4
 70
0
 10
638153.1006541543
 20
4845395.470933795
 10
638230.479123009
 20
4845419.875338378
 10
638237.5255270356
 20
4845438.004653344
 10
638194.4930215384
 20
4845570.24003852
  0
LWPOLYLINE
  5
1B4
330
17
100
AcDbEntity
  8
ROADS
100
AcDbPolyline
 90
2
 70
0
 10
638327.256455303
 20
4845459.964506867
 10
638308.7656778626
 20
4845520.162438074
  0
LWPOLYLINE
  5
1B5
330
17
100
AcDbEntity
  8
ROADS
100
AcDbPolyline
 90
2
 70
0
 10
638308.7656778626
 20
4845520.162438074
 10
638322.4232746065
 20
4845530.252702647
  0
LWPOLYLINE
  5
1B6
330
17
100
AcDbEntity
  8
ROADS
100
AcDbPolyline
 90
3
 70
0
 10
638153.1006541543
 20
4845395.470933795
 10
638063.760337193
 20
4845678.884100635
 10
638147.1070601098
 20
4845715.397786272
  0
LWPOLYLINE
  5
1B7
330
17
100
AcDbEntity
  8
ROADS
100
AcDbPolyline
 90
2
 70
0
 10
638308.7656778626
 20
4845520.162438074
 10
638282.4226145989
 20
4845598.834939907
  0
LWPOLYLINE
  5
1B8
330
17
100
AcDbEntity
  8
ROADS
100
AcDbPolyline
 90
2
 70
0
 10
638194.4930215384
 20
4845570.24003852
 10
638282.4226145989
 20
4845598.834939907
  0
LWPOLYLINE
  5
1B9
330
17
100
AcDbEntity
  8
ROADS
100
AcDbPolyline
 90
2
 70
0
 10
638282.4226145989
 20
4845598.834939907
 10
638374.9369446172
 20
4845629.513073489
  0
LWPOLYLINE
  5
1BA
330
17
100
AcDbEntity
  8
ROADS
100
AcDbPolyline
 90
2
 70
0
 10
638194.4930215384
 20
4845570.24003852
 10
638147.1070601098
 20
4845715.397786272
  0
LWPOLYLINE
  5
1BB
330
17
100
AcDbEntity
  8
ROADS
100
AcDbPolyline
 90
2
 70
0
 10
638374.9369446172
 20
4845629.513073489
 10
638529.7710756584
 20
4845677.322334139
  0
LWPOLYLINE
  5
1BC
330
17
100
AcDbEntity
  8
ROADS
100
AcDbPolyline
 90
2
 70
0
 10
638885.8762261758
 20
4845498.017652586
 10
638813.5923957973
 20
4845764.47112807
  0
LWPOLYLINE
  5
1BD
330
17
100
AcDbEntity
  8
ROADS
100
AcDbPolyline
 90
2
 70
0
 10
638621.3400138669
 20
4845704.983101197
 10
638713.5338301514
 20
4845732.65519924
  0
LWPOLYLINE
  5
1BE
330
17
100
AcDbEntity
  8
ROADS
100
AcDbPolyline
 90
2
 70
0
 10
638713.5338301514
 20
4845732.65519924
 10
638813.5923957973
 20
4845764.47112807
  0
LWPOLYLINE
  5
1BF
330
17
100
AcDbEntity
  8
ROADS
100
AcDbPolyline
 90
2
 70
0
 10
638813.5923957973
 20
4845764.47112807
 10
638769.5956437946
 20
4845908.687399997
  0
LWPOLYLINE
  5
1C0
330
17
100
AcDbEntity
  8
ROADS
100
AcDbPolyline
 90
2
 70
0
 10
638643.8861208169
 20
4845957.414705437
 10
638713.5338301514
 20
4845732.65519924
  0
LWPOLYLINE
  5
1C1
330
17
100
AcDbEntity
  8
ROADS
100
AcDbPolyline
 90
2
 70
0
 10
638769.5956437946
 20
4845908.687399997
 10
638794.2014801361
 20
4845916.64224403
  0
LWPOLYLINE
  5
1C2
330
17
100
AcDbEntity
  8
ROADS
100
AcDbPolyline
 90
2
 70
0
 10
638543.1297909872
 20
4845633.56002256
 10
638529.7710756584
 20
4845677.322334139
  0
LWPOLYLINE
  5
1C3
330
17
100
AcDbEntity
  8
ROADS
100
AcDbPolyline
 90
2
 70
0
 10
638374.9369446172
 20
4845629.513073489
 10
638341.1461766689
 20
4845734.912274619
  0
LWPOLYLINE
  5
1C4
330
17
100
AcDbEntity
  8
ROADS
100
AcDbPolyline
 90
2
 70
0
 10
638529.7710756584
 20
4845677.322334139
 10
638621.3400138669
 20
4845704.983101197
  0
LWPOLYLINE
  5
1C5
330
17
100
AcDbEntity
  8
ROADS
100
AcDbPolyline
 90
2
 70
0
 10
638282.4226145989
 20
4845598.834939907
 10
638211.8030186993
 20
4845825.580773118
  0
LWPOLYLINE
  5
1C6
330
17
100
AcDbEntity
  8
ROADS
100
AcDbPolyline
 90
2
 70
0
 10
638529.7710756584
 20
4845677.322334139
 10
638496.6862411858
 20
4845781.7332676025
  0
LWPOLYLINE
  5
1C7
330
17
100
AcDbEntity
  8
ROADS
100
AcDbPolyline
 90
2
 70
0
 10
638341.1461766689
 20
4845734.912274619
 10
638496.6862411858
 20
4845781.7332676025
  0
LWPOLYLINE
  5
1C8
330
17
100
AcDbEntity
  8
ROADS
100
AcDbPolyline
 90
2
 70
0
 10
638147.1070601098
 20
4845715.397786272
 10
638119.4558342902
 20
4845802.906385638
  0
LWPOLYLINE
  5
1C9
330
17
100
AcDbEntity
  8
ROADS
100
AcDbPolyline
 90
2
 70
0
 10
638341.1461766689
 20
4845734.912274619
 10
638303.4167558855
 20
4845854.24146254
  0
LWPOLYLINE
  5
1CA
330
17
100
AcDbEntity
  8
ROADS
100
AcDbPolyline
 90
2
 70
0
 10
638119.4558342902
 20
4845802.906385638
 10
638211.8030186993
 20
4845825.580773118
  0
LWPOLYLINE
  5
1CB
330
17
100
AcDbEntity
  8
ROADS
100
AcDbPolyline
 90
2
 70
0
 10
638621.3400138669
 20
4845704.983101197
 10
638552.1292409855
 20
4845929.750463963
  0
LWPOLYLINE
  5
1CC
330
17
100
AcDbEntity
  8
ROADS
100
AcDbPolyline
 90
2
 70
0
 10
638211.8030186993
 20
4845825.580773118
 10
638303.4167558855
 20
4845854.24146254
  0
LWPOLYLINE
  5
1CD
330
17
100
AcDbEntity
  8
ROADS
100
AcDbPolyline
 90
2
 70
0
 10
638496.6862411858
 20
4845781.7332676025
 10
638460.044331774
 20
4845903.081392595
  0
LWPOLYLINE
  5
1CE
330
17
100
AcDbEntity
  8
ROADS
100
AcDbPolyline
 90
2
 70
0
 10
638303.4167558855
 20
4845854.24146254
 10
638460.044331774
 20
4845903.081392595
  0
LWPOLYLINE
  5
1CF
330
17
100
AcDbEntity
  8
ROADS
100
AcDbPolyline
 90
2
 70
0
 10
638303.4167558855
 20
4845854.24146254
 10
638271.4660662136
 20
4845954.672467131
  0
LWPOLYLINE
  5
1D0
330
17
100
AcDbEntity
  8
ROADS
100
AcDbPolyline
 90
2
 70
0
 10
638460.044331774
 20
4845903.081392595
 10
638552.1292409855
 20
4845929.750463963
  0
LWPOLYLINE
  5
1D1
330
17
100
AcDbEntity
  8
ROADS
100
AcDbPolyline
 90
2
 70
0
 10
638552.1292409855
 20
4845929.750463963
 10
638643.8861208169
 20
4845957.414705437
  0
LWPOLYLINE
  5
1D2
330
17
100
AcDbEntity
  8
ROADS
100
AcDbPolyline
 90
2
 70
0
 10
638460.044331774
 20
4845903.081392595
 10
638424.6755164556
 20
4846002.450440333
  0
LWPOLYLINE
  5
1D3
330
17
100
AcDbEntity
  8
ROADS
100
AcDbPolyline
 90
2
 70
0
 10
638211.8030186993
 20
4845825.580773118
 10
638116.7417333846
 20
4846117.887123915
  0
LWPOLYLINE
  5
1D4
330
17
100
AcDbEntity
  8
ROADS
100
AcDbPolyline
 90
2
 70
0
 10
638271.4660662136
 20
4845954.672467131
 10
638424.6755164556
 20
4846002.450440333
  0
LWPOLYLINE
  5
1D5
330
17
100
AcDbEntity
  8
ROADS
100
AcDbPolyline
 90
2
 70
0
 10
638271.4660662136
 20
4845954.672467131
 10
638241.9116763051
 20
4846047.146089252
  0
LWPOLYLINE
  5
1D6
330
17
100
AcDbEntity
  8
ROADS
100
AcDbPolyline
 90
2
 70
0
 10
638612.7481614174
 20
4846057.861521907
 10
638643.8861208169
 20
4845957.414705437
  0
LWPOLYLINE
  5
1D7
330
17
100
AcDbEntity
  8
ROADS
100
AcDbPolyline
 90
2
 70
0
 10
638424.6755164556
 20
4846002.450440333
 10
638612.7481614174
 20
4846057.861521907
  0
LWPOLYLINE
  5
1D8
330
17
100
AcDbEntity
  8
ROADS
100
AcDbPolyline
 90
2
 70
0
 10
638424.6755164556
 20
4846002.450440333
 10
638395.8250289247
 20
4846093.937753276
  0
LWPOLYLINE
  5
1D9
330
17
100
AcDbEntity
  8
ROADS
100
AcDbPolyline
 90
2
 70
0
 10
638241.9116763051
 20
4846047.146089252
 10
638395.8250289247
 20
4846093.937753276
  0
LWPOLYLINE
  5
1DA
330
17
100
AcDbEntity
  8
ROADS
100
AcDbPolyline
 90
2
 70
0
 10
638607.4719372479
 20
4846076.008961914
 10
638612.7481614174
 20
4846057.861521907
  0
LWPOLYLINE
  5
1DB
330
17
100
AcDbEntity
  8
ROADS
100
AcDbPolyline
 90
2
 70
0
 10
638241.9116763051
 20
4846047.146089252
 10
638209.1491058973
 20
4846147.563354247
  0
LWPOLYLINE
  5
1DC
330
17
100
AcDbEntity
  8
ROADS
100
AcDbPolyline
 90
2
 70
0
 10
638395.8250289247
 20
4846093.937753276
 10
638502.2988507027
 20
4846131.249404104
  0
LWPOLYLINE
  5
1DD
330
17
100
AcDbEntity
  8
ROADS
100
AcDbPolyline
 90
2
 70
0
 10
638116.7417333846
 20
4846117.887123915
 10
638209.1491058973
 20
4846147.563354247
  0
LWPOLYLINE
  5
1DE
330
17
100
AcDbEntity
  8
ROADS
100
AcDbPolyline
 90
2
 70
0
 10
638395.8250289247
 20
4846093.937753276
 10
638370.8262323448
 20
4846173.938964522
  0
LWPOLYLINE
  5
1DF
330
17
100
AcDbEntity
  8
ROADS
100
AcDbPolyline
 90
2
 70
0
 10
638209.1491058973
 20
4846147.563354247
 10
638327.0817985607
 20
4846183.116793213
  0
LWPOLYLINE
  5
1E0
330
17
100
AcDbEntity
  8
ROADS
100
AcDbPolyline
 90
2
 70
0
 10
638209.1491058973
 20
4846147.563354247
 10
638191.8181331821
 20
4846201.467216296
  0
LWPOLYLINE
  5
1E1
330
17
100
AcDbEntity
  8
ROADS
100
AcDbPolyline
 90
6
 70
0
 10
637264.0628699835
 20
4845453.378573498
 10
637338.9344024732
 20
4845526.741067652
 10
637340.758629778
 20
4845584.780471375
 10
637322.8195415545
 20
4845605.458552751
 10
637293.3770189105
 20
4845608.9267419325
 10
637231.7862947232
 20
4845554.8074937435
  0
LWPOLYLINE
  5
1E2
330
17
100
AcDbEntity
  8
ROADS
100
AcDbPolyline
 90
3
 70
0
 10
637451.6370510262
 20
4845481.7756307935
 10
637428.5754801758
 20
4845609.371894377
 10
637388.3774965093
 20
4845685.652079248
  0
LWPOLYLINE
  5
1E3
330
17
100
AcDbEntity
  8
ROADS
100
AcDbPolyline
 90
3
 70
0
 10
637231.7862947232
 20
4845554.8074937435
 10
637196.2319542959
 20
4845661.175497261
 10
637271.6668546728
 20
4845720.545432879
  0
LWPOLYLINE
  5
1E4
330
17
100
AcDbEntity
  8
ROADS
100
AcDbPolyline
 90
2
 70
0
 10
637528.9684835547
 20
4845519.178365557
 10
637422.448258196
 20
4845860.900289073
  0
LWPOLYLINE
  5
1E5
330
17
100
AcDbEntity
  8
ROADS
100
AcDbPolyline
 90
3
 70
0
 10
637388.3774965093
 20
4845685.652079248
 10
637310.8871639186
 20
4845698.25206765
 10
637271.6668546728
 20
4845720.545432879
  0
LWPOLYLINE
  5
1E6
330
17
100
AcDbEntity
  8
ROADS
100
AcDbPolyline
 90
2
 70
0
 10
637388.3774965093
 20
4845685.652079248
 10
637331.8632468355
 20
4845832.770346656
  0
LWPOLYLINE
  5
1E7
330
17
100
AcDbEntity
  8
ROADS
100
AcDbPolyline
 90
2
 70
0
 10
637271.6668546728
 20
4845720.545432879
 10
637247.270747405
 20
4845805.914049735
  0
LWPOLYLINE
  5
1E8
330
17
100
AcDbEntity
  8
ROADS
100
AcDbPolyline
 90
2
 70
0
 10
637247.270747405
 20
4845805.914049735
 10
637331.8632468355
 20
4845832.770346656
  0
LWPOLYLINE
  5
1E9
330
17
100
AcDbEntity
  8
ROADS
100
AcDbPolyline
 90
2
 70
0
 10
637331.8632468355
 20
4845832.770346656
 10
637422.448258196
 20
4845860.900289073
  0
LWPOLYLINE
  5
1EA
330
17
100
AcDbEntity
  8
ROADS
100
AcDbPolyline
 90
2
 70
0
 10
637422.448258196
 20
4845860.900289073
 10
637381.8890770109
 20
4845987.4223626405
  0
LWPOLYLINE
  5
1EB
330
17
100
AcDbEntity
  8
ROADS
100
AcDbPolyline
 90
2
 70
0
 10
636929.4574623413
 20
4845533.329146279
 10
636924.6044987453
 20
4845625.253666651
  0
LWPOLYLINE
  5
1EC
330
17
100
AcDbEntity
  8
ROADS
100
AcDbPolyline
 90
2
 70
0
 10
636779.3019812952
 20
4845613.616527793
 10
636924.6044987453
 20
4845625.253666651
  0
LWPOLYLINE
  5
1ED
330
17
100
AcDbEntity
  8
ROADS
100
AcDbPolyline
 90
2
 70
0
 10
636924.6044987453
 20
4845625.253666651
 10
636973.207946531
 20
4845699.144517361
  0
LWPOLYLINE
  5
1EE
330
17
100
AcDbEntity
  8
ROADS
100
AcDbPolyline
 90
2
 70
0
 10
636779.3019812952
 20
4845613.616527793
 10
636742.5223840992
 20
4845726.068747161
  0
LWPOLYLINE
  5
1EF
330
17
100
AcDbEntity
  8
ROADS
100
AcDbPolyline
 90
2
 70
0
 10
636973.207946531
 20
4845699.144517361
 10
637070.4957663373
 20
4845736.260593533
  0
LWPOLYLINE
  5
1F0
330
17
100
AcDbEntity
  8
ROADS
100
AcDbPolyline
 90
2
 70
0
 10
636742.5223840992
 20
4845726.068747161
 10
636787.7340014481
 20
4845744.375099611
  0
LWPOLYLINE
  5
1F1
330
17
100
AcDbEntity
  8
ROADS
100
AcDbPolyline
 90
3
 70
0
 10
637070.4957663373
 20
4845736.260593533
 10
637083.8260745782
 20
4845728.46926255
 10
637168.697690914
 20
4845757.085743779
  0
LWPOLYLINE
  5
1F2
330
17
100
AcDbEntity
  8
ROADS
100
AcDbPolyline
 90
2
 70
0
 10
637168.697690914
 20
4845757.085743779
 10
637247.270747405
 20
4845805.914049735
  0
LWPOLYLINE
  5
1F3
330
17
100
AcDbEntity
  8
ROADS
100
AcDbPolyline
 90
2
 70
0
 10
637070.4957663373
 20
4845736.260593533
 10
637023.5235106704
 20
4845886.33871134
  0
LWPOLYLINE
  5
1F4
330
17
100
AcDbEntity
  8
ROADS
100
AcDbPolyline
 90
2
 70
0
 10
636973.207946531
 20
4845699.144517361
 10
636928.3001024388
 20
4845846.801531422
  0
LWPOLYLINE
  5
1F5
330
17
100
AcDbEntity
  8
ROADS
100
AcDbPolyline
 90
2
 70
0
 10
637168.697690914
 20
4845757.085743779
 10
637114.3275643092
 20
4845914.973189445
  0
LWPOLYLINE
  5
1F6
330
17
100
AcDbEntity
  8
ROADS
100
AcDbPolyline
 90
2
 70
0
 10
636583.2502412216
 20
4845667.073332433
 10
636564.2370012385
 20
4845726.684268208
  0
LWPOLYLINE
  5
1F7
330
17
100
AcDbEntity
  8
ROADS
100
AcDbPolyline
 90
2
 70
0
 10
636742.5223840992
 20
4845726.068747161
 10
636728.5284292736
 20
4845771.943344118
  0
LWPOLYLINE
  5
1F8
330
17
100
AcDbEntity
  8
ROADS
100
AcDbPolyline
 90
3
 70
0
 10
637366.9085477047
 20
4845985.413882855
 10
637250.9949365513
 20
4845945.416364443
 10
637250.4610287269
 20
4845958.874631233
  0
LWPOLYLINE
  5
1F9
330
17
100
AcDbEntity
  8
ROADS
100
AcDbPolyline
 90
2
 70
0
 10
638022.213997019
 20
4846105.174116824
 10
638116.7417333846
 20
4846117.887123915
  0
LWPOLYLINE
  5
1FA
330
17
100
AcDbEntity
  8
ROADS
100
AcDbPolyline
 90
2
 70
0
 10
637843.5497101485
 20
4846047.933303038
 10
637803.4979234233
 20
4846170.474875076
  0
LWPOLYLINE
  5
1FB
330
17
100
AcDbEntity
  8
ROADS
100
AcDbPolyline
 90
2
 70
0
 10
637934.4134851452
 20
4846076.581441282
 10
637909.8622751242
 20
4846197.699392544
  0
LWPOLYLINE
  5
1FC
330
17
100
AcDbEntity
  8
ROADS
100
AcDbPolyline
 90
2
 70
0
 10
638022.213997019
 20
4846105.174116824
 10
637991.229119669
 20
4846208.864955768
  0
LWPOLYLINE
  5
1FD
330
17
100
AcDbEntity
  8
ROADS
100
AcDbPolyline
 90
2
 70
0
 10
638116.7417333846
 20
4846117.887123915
 10
638087.199051834
 20
4846211.262403758
  0
LWPOLYLINE
  5
1FE
330
17
100
AcDbEntity
  8
ROADS
100
AcDbPolyline
 90
2
 70
0
 10
638769.5956437946
 20
4845908.687399997
 10
638753.0643459965
 20
4845961.913174915
  0
ENDSEC
  0
SECTION
  2
OBJECTS
  0
DICTIONARY
  5
A
330
0
100
AcDbDictionary
281
1
  3
ACAD_COLOR
350
B
  3
ACAD_GROUP
350
C
  3
ACAD_LAYOUT
350
D
  3
ACAD_MATERIAL
350
E
  3
ACAD_MLEADERSTYLE
350
F
  3
ACAD_MLINESTYLE
350
10
  3
ACAD_PLOTSETTINGS
350
11
  3
ACAD_PLOTSTYLENAME
350
12
  3
ACAD_SCALELIST
350
14
  3
ACAD_TABLESTYLE
350
15
  3
ACAD_VISUALSTYLE
350
16
  3
EZDXF_META
350
2D
  0
DICTIONARY
  5
B
330
A
100
AcDbDictionary
281
1
  0
DICTIONARY
  5
C
330
A
100
AcDbDictionary
281
1
  0
DICTIONARY
  5
D
330
A
100
AcDbDictionary
281
1
  3
Model
350
1A
  3
Layout1
350
1E
  0
DICTIONARY
  5
E
330
A
100
AcDbDictionary
281
1
  3
ByBlock
350
1F
  3
ByLayer
350
20
  3
Global
350
21
  0
DICTIONARY
  5
F
330
A
100
AcDbDictionary
281
1
  3
Standard
350
2C
  0
DICTIONARY
  5
10
330
A
100
AcDbDictionary
281
1
  3
Standard
350
22
  0
DICTIONARY
  5
11
330
A
100
AcDbDictionary
281
1
  0
ACDBDICTIONARYWDFLT
  5
12
330
A
100
AcDbDictionary
281
1
  3
Normal
350
13
100
AcDbDictionaryWithDefault
340
13
  0
ACDBPLACEHOLDER
  5
13
330
12
  0
DICTIONARY
  5
14
330
A
100
AcDbDictionary
281
1
  0
DICTIONARY
  5
15
330
A
100
AcDbDictionary
281
1
  0
DICTIONARY
  5
16
330
A
100
AcDbDictionary
281
1
  0
LAYOUT
  5
1A
330
D
100
AcDbPlotSettings
  1

  4
A3
  6

 40
7.5
 41
20.0
 42
7.5
 43
20.0
 44
420.0
 45
297.0
 46
0.0
 47
0.0
 48
0.0
 49
0.0
140
0.0
141
0.0
142
1.0
143
1.0
 70
1024
 72
1
 73
0
 74
5
  7

 75
16
 76
0
 77
2
 78
300
147
1.0
148
0.0
149
0.0
100
AcDbLayout
  1
Model
 70
1
 71
0
 10
0.0
 20
0.0
 11
420.0
 21
297.0
 12
0.0
 22
0.0
 32
0.0
 14
1e+20
 24
1e+20
 34
1e+20
 15
-1e+20
 25
-1e+20
 35
-1e+20
146
0.0
 13
0.0
 23
0.0
 33
0.0
 16
1.0
 26
0.0
 36
0.0
 17
0.0
 27
1.0
 37
0.0
 76
1
330
17
  0
LAYOUT
  5
1E
330
D
100
AcDbPlotSettings
  1

  4
A3
  6

 40
7.5
 41
20.0
 42
7.5
 43
20.0
 44
420.0
 45
297.0
 46
0.0
 47
0.0
 48
0.0
 49
0.0
140
0.0
141
0.0
142
1.0
143
1.0
 70
0
 72
1
 73
0
 74
5
  7

 75
16
 76
0
 77
2
 78
300
147
1.0
148
0.0
149
0.0
100
AcDbLayout
  1
Layout1
 70
1
 71
1
 10
0.0
 20
0.0
 11
420.0
 21
297.0
 12
0.0
 22
0.0
 32
0.0
 14
1e+20
 24
1e+20
 34
1e+20
 15
-1e+20
 25
-1e+20
 35
-1e+20
146
0.0
 13
0.0
 23
0.0
 33
0.0
 16
1.0
 26
0.0
 36
0.0
 17
0.0
 27
1.0
 37
0.0
 76
1
330
1B
  0
MATERIAL
  5
1F
102
{ACAD_REACTORS
330
E
102
}
330
E
100
AcDbMaterial
  1
ByBlock
  2

 70
0
 40
1.0
 71
1
 41
1.0
 91
-1023410177
 42
1.0
 72
1
  3

 73
1
 74
1
 75
1
 44
0.5
 73
0
 45
1.0
 46
1.0
 77
1
  4

 78
1
 79
1
170
1
 48
1.0
171
1
  6

172
1
173
1
174
1
140
1.0
141
1.0
175
1
  7

176
1
177
1
178
1
143
1.0
179
1
  8

270
1
271
1
272
1
145
1.0
146
1.0
273
1
  9

274
1
275
1
276
1
 42
1.0
 72
1
  3

 73
1
 74
1
 75
1
 94
63
  0
MATERIAL
  5
20
102
{ACAD_REACTORS
330
E
102
}
330
E
100
AcDbMaterial
  1
ByLayer
  2

 70
0
 40
1.0
 71
1
 41
1.0
 91
-1023410177
 42
1.0
 72
1
  3

 73
1
 74
1
 75
1
 44
0.5
 73
0
 45
1.0
 46
1.0
 77
1
  4

 78
1
 79
1
170
1
 48
1.0
171
1
  6

172
1
173
1
174
1
140
1.0
141
1.0
175
1
  7

176
1
177
1
178
1
143
1.0
179
1
  8

270
1
271
1
272
1
145
1.0
146
1.0
273
1
  9

274
1
275
1
276
1
 42
1.0
 72
1
  3

 73
1
 74
1
 75
1
 94
63
  0
MATERIAL
  5
21
102
{ACAD_REACTORS
330
E
102
}
330
E
100
AcDbMaterial
  1
Global
  2

 70
0
 40
1.0
 71
1
 41
1.0
 91
-1023410177
 42
1.0
 72
1
  3

 73
1
 74
1
 75
1
 44
0.5
 73
0
 45
1.0
 46
1.0
 77
1
  4

 78
1
 79
1
170
1
 48
1.0
171
1
  6

172
1
173
1
174
1
140
1.0
141
1.0
175
1
  7

176
1
177
1
178
1
143
1.0
179
1
  8

270
1
271
1
272
1
145
1.0
146
1.0
273
1
  9

274
1
275
1
276
1
 42
1.0
 72
1
  3

 73
1
 74
1
 75
1
 94
63
  0
MLINESTYLE
  5
22
102
{ACAD_REACTORS
330
10
102
}
330
10
100
AcDbMlineStyle
  2
Standard
 70
0
  3

 62
256
 51
90.0
 52
90.0
 71
2
 49
0.5
 62
256
  6
BYLAYER
 49
-0.5
 62
256
  6
BYLAYER
  0
MLEADERSTYLE
  5
2C
102
{ACAD_REACTORS
330
F
102
}
330
F
100
AcDbMLeaderStyle
179
2
170
2
171
1
172
0
 90
2
 40
0.0
 41
0.0
173
1
 91
-1056964608
 92
-2
290
1
 42
2.0
291
1
 43
8.0
  3
Standard
 44
4.0
300

342
29
174
1
175
1
176
0
178
1
 93
-1056964608
 45
4.0
292
0
297
0
 46
4.0
 94
-1056964608
 47
1.0
 49
1.0
140
1.0
294
1
141
0.0
177
0
142
1.0
295
0
296
0
143
3.75
271
0
272
9
273
9
  0
DICTIONARY
  5
2D
330
A
100
AcDbDictionary
280
1
281
1
  3
CREATED_BY_EZDXF
350
2E
  3
WRITTEN_BY_EZDXF
350
201
  0
DICTIONARYVAR
  5
2E
330
2D
100
DictionaryVariables
280
0
  1
1.4.4 @ 2026-07-07T18:25:52.126002+00:00
  0
DICTIONARYVAR
  5
201
330
2D
100
DictionaryVariables
280
0
  1
1.4.4 @ 2026-07-07T18:25:52.139689+00:00
  0
ENDSEC
  0
EOF
