  0
SECTION
  2
HEADER
  9
$ACADVER
  1
AC1015
  9
$ACADMAINTVER
 70
6
  9
$DWGCODEPAGE
  3
ANSI_1252
  9
$INSBASE
 10
0.0
 20
0.0
 30
0.0
  9
$EXTMIN
 10
1e+20
 20
1e+20
 30
1e+20
  9
$EXTMAX
 10
-1e+20
 20
-1e+20
 30
-1e+20
  9
$LIMMIN
 10
0.0
 20
0.0
  9
$LIMMAX
 10
420.0
 20
297.0
  9
$ORTHOMODE
 70
0
  9
$REGENMODE
 70
1
  9
$FILLMODE
 70
1
  9
$QTEXTMODE
 70
0
  9
$MIRRTEXT
 70
1
  9
$LTSCALE
 40
1.0
  9
$ATTMODE
 70
1
  9
$TEXTSIZE
 40
2.5
  9
$TRACEWID
 40
1.0
  9
$TEXTSTYLE
  7
Standard
  9
$CLAYER
  8
0
  9
$CELTYPE
  6
ByLayer
  9
$CECOLOR
 62
256
  9
$CELTSCALE
 40
1.0
  9
$DISPSILH
 70
0
  9
$DIMSCALE
 40
1.0
  9
$DIMASZ
 40
2.5
  9
$DIMEXO
 40
0.625
  9
$DIMDLI
 40
3.75
  9
$DIMRND
 40
0.0
  9
$DIMDLE
 40
0.0
  9
$DIMEXE
 40
1.25
  9
$DIMTP
 40
0.0
  9
$DIMTM
 40
0.0
  9
$DIMTXT
 40
2.5
  9
$DIMCEN
 40
2.5
  9
$DIMTSZ
 40
0.0
  9
$DIMTOL
 70
0
  9
$DIMLIM
 70
0
  9
$DIMTIH
 70
0
  9
$DIMTOH
 70
0
  9
$DIMSE1
 70
0
  9
$DIMSE2
 70
0
  9
$DIMTAD
 70
1
  9
$DIMZIN
 70
8
  9
$DIMBLK
  1

  9
$DIMASO
 70
1
  9
$DIMSHO
 70
1
  9
$DIMPOST
  1

  9
$DIMAPOST
  1

  9
$DIMALT
 70
0
  9
$DIMALTD
 70
3
  9
$DIMALTF
 40
0.03937007874
  9
$DIMLFAC
 40
1.0
  9
$DIMTOFL
 70
1
  9
$DIMTVP
 40
0.0
  9
$DIMTIX
 70
0
  9
$DIMSOXD
 70
0
  9
$DIMSAH
 70
0
  9
$DIMBLK1
  1

  9
$DIMBLK2
  1

  9
$DIMSTYLE
  2
ISO-25
  9
$DIMCLRD
 70
0
  9
$DIMCLRE
 70
0
  9
$DIMCLRT
 70
0
  9
$DIMTFAC
 40
1.0
  9
$DIMGAP
 40
0.625
  9
$DIMJUST
 70
0
  9
$DIMSD1
 70
0
  9
$DIMSD2
 70
0
  9
$DIMTOLJ
 70
0
  9
$DIMTZIN
 70
8
  9
$DIMALTZ
 70
0
  9
$DIMALTTZ
 70
0
  9
$DIMUPT
 70
0
  9
$DIMDEC
 70
2
  9
$DIMTDEC
 70
2
  9
$DIMALTU
 70
2
  9
$DIMALTTD
 70
3
  9
$DIMTXSTY
  7
Standard
  9
$DIMAUNIT
 70
0
  9
$DIMADEC
 70
0
  9
$DIMALTRND
 40
0.0
  9
$DIMAZIN
 70
0
  9
$DIMDSEP
 70
44
  9
$DIMATFIT
 70
3
  9
$DIMFRAC
 70
0
  9
$DIMLDRBLK
  1

  9
$DIMLUNIT
 70
2
  9
$DIMLWD
 70
-2
  9
$DIMLWE
 70
-2
  9
$DIMTMOVE
 70
0
  9
$LUNITS
 70
2
  9
$LUPREC
 70
4
  9
$SKETCHINC
 40
1.0
  9
$FILLETRAD
 40
10.0
  9
$AUNITS
 70
0
  9
$AUPREC
 70
2
  9
$MENU
  1
.
  9
$ELEVATION
 40
0.0
  9
$PELEVATION
 40
0.0
  9
$THICKNESS
 40
0.0
  9
$LIMCHECK
 70
0
  9
$CHAMFERA
 40
0.0
  9
$CHAMFERB
 40
0.0
  9
$CHAMFERC
 40
0.0
  9
$CHAMFERD
 40
0.0
  9
$SKPOLY
 70
0
  9
$TDCREATE
 40
2461252.48818287
  9
$TDUCREATE
 40
2458532.153996898
  9
$TDUPDATE
 40
2461252.48818287
  9
$TDUUPDATE
 40
2458532.1544311
  9
$TDINDWG
 40
0.0
  9
$TDUSRTIMER
 40
0.0
  9
$USRTIMER
 70
1
  9
$ANGBASE
 50
0.0
  9
$ANGDIR
 70
0
  9
$PDMODE
 70
0
  9
$PDSIZE
 40
0.0
  9
$PLINEWID
 40
0.0
  9
$SPLFRAME
 70
0
  9
$SPLINETYPE
 70
6
  9
$SPLINESEGS
 70
8
  9
$HANDSEED
  5
295
  9
$SURFTAB1
 70
6
  9
$SURFTAB2
 70
6
  9
$SURFTYPE
 70
6
  9
$SURFU
 70
6
  9
$SURFV
 70
6
  9
$UCSBASE
  2

  9
$UCSNAME
  2

  9
$UCSORG
 10
0.0
 20
0.0
 30
0.0
  9
$UCSXDIR
 10
1.0
 20
0.0
 30
0.0
  9
$UCSYDIR
 10
0.0
 20
1.0
 30
0.0
  9
$UCSORTHOREF
  2

  9
$UCSORTHOVIEW
 70
0
  9
$UCSORGTOP
 10
0.0
 20
0.0
 30
0.0
  9
$UCSORGBOTTOM
 10
0.0
 20
0.0
 30
0.0
  9
$UCSORGLEFT
 10
0.0
 20
0.0
 30
0.0
  9
$UCSORGRIGHT
 10
0.0
 20
0.0
 30
0.0
  9
$UCSORGFRONT
 10
0.0
 20
0.0
 30
0.0
  9
$UCSORGBACK
 10
0.0
 20
0.0
 30
0.0
  9
$PUCSBASE
  2

  9
$PUCSNAME
  2

  9
$PUCSORG
 10
0.0
 20
0.0
 30
0.0
  9
$PUCSXDIR
 10
1.0
 20
0.0
 30
0.0
  9
$PUCSYDIR
 10
0.0
 20
1.0
 30
0.0
  9
$PUCSORTHOREF
  2

  9
$PUCSORTHOVIEW
 70
0
  9
$PUCSORGTOP
 10
0.0
 20
0.0
 30
0.0
  9
$PUCSORGBOTTOM
 10
0.0
 20
0.0
 30
0.0
  9
$PUCSORGLEFT
 10
0.0
 20
0.0
 30
0.0
  9
$PUCSORGRIGHT
 10
0.0
 20
0.0
 30
0.0
  9
$PUCSORGFRONT
 10
0.0
 20
0.0
 30
0.0
  9
$PUCSORGBACK
 10
0.0
 20
0.0
 30
0.0
  9
$USERI1
 70
0
  9
$USERI2
 70
0
  9
$USERI3
 70
0
  9
$USERI4
 70
0
  9
$USERI5
 70
0
  9
$USERR1
 40
0.0
  9
$USERR2
 40
0.0
  9
$USERR3
 40
0.0
  9
$USERR4
 40
0.0
  9
$USERR5
 40
0.0
  9
$WORLDVIEW
 70
1
  9
$SHADEDGE
 70
3
  9
$SHADEDIF
 70
70
  9
$TILEMODE
 70
1
  9
$MAXACTVP
 70
64
  9
$PINSBASE
 10
0.0
 20
0.0
 30
0.0
  9
$PLIMCHECK
 70
0
  9
$PEXTMIN
 10
1e+20
 20
1e+20
 30
1e+20
  9
$PEXTMAX
 10
-1e+20
 20
-1e+20
 30
-1e+20
  9
$PLIMMIN
 10
0.0
 20
0.0
  9
$PLIMMAX
 10
420.0
 20
297.0
  9
$UNITMODE
 70
0
  9
$VISRETAIN
 70
1
  9
$PLINEGEN
 70
0
  9
$PSLTSCALE
 70
1
  9
$TREEDEPTH
 70
3020
  9
$CMLSTYLE
  2
Standard
  9
$CMLJUST
 70
0
  9
$CMLSCALE
 40
20.0
  9
$PROXYGRAPHICS
 70
1
  9
$MEASUREMENT
 70
1
  9
$CELWEIGHT
370
-1
  9
$ENDCAPS
280
0
  9
$JOINSTYLE
280
0
  9
$LWDISPLAY
290
0
  9
$INSUNITS
 70
6
  9
$HYPERLINKBASE
  1

  9
$STYLESHEET
  1

  9
$XEDIT
290
1
  9
$CEPSNTYPE
380
0
  9
$PSTYLEMODE
290
1
  9
$FINGERPRINTGUID
  2
{D62A394E-45B5-4D26-AD4F-3E1FA2731039}
  9
$VERSIONGUID
  2
{1C607E9B-7BE1-4810-9349-71BC41B06DCC}
  9
$EXTNAMES
290
1
  9
$PSVPSCALE
 40
0.0
  9
$OLESTARTUP
290
0
  0
ENDSEC
  0
SECTION
  2
CLASSES
  0
CLASS
  1
ACDBDICTIONARYWDFLT
  2
AcDbDictionaryWithDefault
  3
ObjectDBX Classes
 90
0
280
0
281
0
  0
CLASS
  1
SUN
  2
AcDbSun
  3
SCENEOE
 90
1153
280
0
281
0
  0
CLASS
  1
VISUALSTYLE
  2
AcDbVisualStyle
  3
ObjectDBX Classes
 90
4095
280
0
281
0
  0
CLASS
  1
MATERIAL
  2
AcDbMaterial
  3
ObjectDBX Classes
 90
1153
280
0
281
0
  0
CLASS
  1
SCALE
  2
AcDbScale
  3
ObjectDBX Classes
 90
1153
280
0
281
0
  0
CLASS
  1
TABLESTYLE
  2
AcDbTableStyle
  3
ObjectDBX Classes
 90
4095
280
0
281
0
  0
CLASS
  1
MLEADERSTYLE
  2
AcDbMLeaderStyle
  3
ACDB_MLEADERSTYLE_CLASS
 90
4095
280
0
281
0
  0
CLASS
  1
DICTIONARYVAR
  2
AcDbDictionaryVar
  3
ObjectDBX Classes
 90
0
280
0
281
0
  0
CLASS
  1
CELLSTYLEMAP
  2
AcDbCellStyleMap
  3
ObjectDBX Classes
 90
1152
280
0
281
0
  0
CLASS
  1
MENTALRAYRENDERSETTINGS
  2
AcDbMentalRayRenderSettings
  3
SCENEOE
 90
1024
280
0
281
0
  0
CLASS
  1
ACDBDETAILVIEWSTYLE
  2
AcDbDetailViewStyle
  3
ObjectDBX Classes
 90
1025
280
0
281
0
  0
CLASS
  1
ACDBSECTIONVIEWSTYLE
  2
AcDbSectionViewStyle
  3
ObjectDBX Classes
 90
1025
280
0
281
0
  0
CLASS
  1
RASTERVARIABLES
  2
AcDbRasterVariables
  3
ISM
 90
0
280
0
281
0
  0
CLASS
  1
ACDBPLACEHOLDER
  2
AcDbPlaceHolder
  3
ObjectDBX Classes
 90
0
280
0
281
0
  0
CLASS
  1
LAYOUT
  2
AcDbLayout
  3
ObjectDBX Classes
 90
0
280
0
281
0
  0
ENDSEC
  0
SECTION
  2
TABLES
  0
TABLE
  2
VPORT
  5
8
330
0
100
AcDbSymbolTable
 70
1
  0
VPORT
  5
23
330
8
100
AcDbSymbolTableRecord
100
AcDbViewportTableRecord
  2
*Active
 70
0
 10
0.0
 20
0.0
 11
1.0
 21
1.0
 12
0.0
 22
0.0
 13
0.0
 23
0.0
 14
0.5
 24
0.5
 15
0.5
 25
0.5
 16
0.0
 26
0.0
 36
1.0
 17
0.0
 27
0.0
 37
0.0
 40
1000.0
 41
1.34
 42
50.0
 43
0.0
 44
0.0
 50
0.0
 51
0.0
 71
0
 72
1000
 73
1
 74
3
 75
0
 76
0
 77
0
 78
0
281
0
 65
0
146
0.0
  0
ENDTAB
  0
TABLE
  2
LTYPE
  5
2
330
0
100
AcDbSymbolTable
 70
3
  0
LTYPE
  5
24
330
2
100
AcDbSymbolTableRecord
100
AcDbLinetypeTableRecord
  2
ByBlock
 70
0
  3

 72
65
 73
0
 40
0.0
  0
LTYPE
  5
25
330
2
100
AcDbSymbolTableRecord
100
AcDbLinetypeTableRecord
  2
ByLayer
 70
0
  3

 72
65
 73
0
 40
0.0
  0
LTYPE
  5
26
330
2
100
AcDbSymbolTableRecord
100
AcDbLinetypeTableRecord
  2
Continuous
 70
0
  3

 72
65
 73
0
 40
0.0
  0
ENDTAB
  0
TABLE
  2
LAYER
  5
1
330
0
100
AcDbSymbolTable
 70
2
  0
LAYER
  5
27
330
1
100
AcDbSymbolTableRecord
100
AcDbLayerTableRecord
  2
0
 70
0
 62
7
  6
Continuous
370
-3
390
13
  0
LAYER
  5
28
330
1
100
AcDbSymbolTableRecord
100
AcDbLayerTableRecord
  2
Defpoints
 70
0
 62
7
  6
Continuous
290
0
370
-3
390
13
  0
ENDTAB
  0
TABLE
  2
STYLE
  5
5
330
0
100
AcDbSymbolTable
 70
1
  0
STYLE
  5
29
330
5
100
AcDbSymbolTableRecord
100
AcDbTextStyleTableRecord
  2
Standard
 70
0
 40
0.0
 41
1.0
 50
0.0
 71
0
 42
2.5
  3
txt
  4

  0
ENDTAB
  0
TABLE
  2
VIEW
  5
7
330
0
100
AcDbSymbolTable
 70
0
  0
ENDTAB
  0
TABLE
  2
UCS
  5
6
330
0
100
AcDbSymbolTable
 70
0
  0
ENDTAB
  0
TABLE
  2
APPID
  5
3
330
0
100
AcDbSymbolTable
 70
3
  0
APPID
  5
2A
330
3
100
AcDbSymbolTableRecord
100
AcDbRegAppTableRecord
  2
ACAD
 70
0
  0
APPID
  5
292
330
3
100
AcDbSymbolTableRecord
100
AcDbRegAppTableRecord
  2
HATCHBACKGROUNDCOLOR
 70
0
  0
APPID
  5
293
330
3
100
AcDbSymbolTableRecord
100
AcDbRegAppTableRecord
  2
EZDXF
 70
0
  0
ENDTAB
  0
TABLE
  2
DIMSTYLE
  5
4
330
0
100
AcDbSymbolTable
 70
1
100
AcDbDimStyleTable
  0
DIMSTYLE
105
2B
330
4
100
AcDbSymbolTableRecord
100
AcDbDimStyleTableRecord
  2
Standard
 70
0
  3

  4

 40
1.0
 41
2.5
 42
0.625
 43
3.75
 44
1.25
 45
0.0
 46
0.0
 47
0.0
 48
0.0
140
2.5
141
2.5
142
0.0
143
0.03937007874
144
1.0
145
0.0
146
1.0
147
0.625
148
0.0
 71
0
 72
0
 73
0
 74
0
 75
0
 76
0
 77
1
 78
8
 79
3
170
0
171
3
172
1
173
0
174
0
175
0
176
0
177
0
178
0
179
2
271
2
272
2
273
2
274
3
275
0
276
0
277
2
278
44
279
0
280
0
281
0
282
0
283
0
284
8
285
0
286
0
288
0
289
3
371
-2
372
-2
  0
ENDTAB
  0
TABLE
  2
BLOCK_RECORD
  5
9
330
0
100
AcDbSymbolTable
 70
2
  0
BLOCK_RECORD
  5
17
330
9
100
AcDbSymbolTableRecord
100
AcDbBlockTableRecord
  2
*Model_Space
340
1A
  0
BLOCK_RECORD
  5
1B
330
9
100
AcDbSymbolTableRecord
100
AcDbBlockTableRecord
  2
*Paper_Space
340
1E
  0
ENDTAB
  0
ENDSEC
  0
SECTION
  2
BLOCKS
  0
BLOCK
  5
18
330
17
100
AcDbEntity
  8
0
100
AcDbBlockBegin
  2
*Model_Space
 70
0
 10
0.0
 20
0.0
 30
0.0
  3
*Model_Space
  1

  0
ENDBLK
  5
19
330
17
100
AcDbEntity
  8
0
100
AcDbBlockEnd
  0
BLOCK
  5
1C
330
1B
100
AcDbEntity
  8
0
100
AcDbBlockBegin
  2
*Paper_Space
 70
0
 10
0.0
 20
0.0
 30
0.0
  3
*Paper_Space
  1

  0
ENDBLK
  5
1D
330
1B
100
AcDbEntity
  8
0
100
AcDbBlockEnd
  0
ENDSEC
  0
SECTION
  2
ENTITIES
  0
LWPOLYLINE
  5
2F
330
17
100
AcDbEntity
  8
ROADS
100
AcDbPolyline
 90
2
 70
0
 10
637952.5717387195
 20
4843989.945632961
 10
637925.948788737
 20
4844073.419311133
  0
LWPOLYLINE
  5
30
330
17
100
AcDbEntity
  8
ROADS
100
AcDbPolyline
 90
2
 70
0
 10
636839.5827413072
 20
4843714.162121607
 10
636833.5702374276
 20
4843732.382986781
  0
LWPOLYLINE
  5
31
330
17
100
AcDbEntity
  8
ROADS
100
AcDbPolyline
 90
3
 70
0
 10
636721.2866732652
 20
4843675.773643958
 10
636762.3584375125
 20
4843709.08879776
 10
636833.5702374276
 20
4843732.382986781
  0
LWPOLYLINE
  5
32
330
17
100
AcDbEntity
  8
ROADS
100
AcDbPolyline
 90
2
 70
0
 10
636933.0539184287
 20
4843750.67935069
 10
636912.9971737685
 20
4843812.832108976
  0
LWPOLYLINE
  5
33
330
17
100
AcDbEntity
  8
ROADS
100
AcDbPolyline
 90
3
 70
0
 10
637528.0536622162
 20
4843961.992865417
 10
637321.8895590511
 20
4843897.249767041
 10
637323.5150369036
 20
4843886.253611586
  0
LWPOLYLINE
  5
34
330
17
100
AcDbEntity
  8
ROADS
100
AcDbPolyline
 90
2
 70
0
 10
637531.3603588793
 20
4843953.213955856
 10
637528.0536622162
 20
4843961.992865417
  0
LWPOLYLINE
  5
35
330
17
100
AcDbEntity
  8
ROADS
100
AcDbPolyline
 90
2
 70
0
 10
637623.5889674326
 20
4843993.126211451
 10
637528.0536622162
 20
4843961.992865417
  0
LWPOLYLINE
  5
36
330
17
100
AcDbEntity
  8
ROADS
100
AcDbPolyline
 90
2
 70
0
 10
637528.0536622162
 20
4843961.992865417
 10
637499.7505735361
 20
4844054.490103222
  0
LWPOLYLINE
  5
37
330
17
100
AcDbEntity
  8
ROADS
100
AcDbPolyline
 90
3
 70
0
 10
637467.9199896391
 20
4844044.912987587
 10
637292.2842478786
 20
4843985.722007625
 10
637248.3709859063
 20
4844104.941051687
  0
LWPOLYLINE
  5
38
330
17
100
AcDbEntity
  8
ROADS
100
AcDbPolyline
 90
2
 70
0
 10
637499.7505735361
 20
4844054.490103222
 10
637467.9199896391
 20
4844044.912987587
  0
LWPOLYLINE
  5
39
330
17
100
AcDbEntity
  8
ROADS
100
AcDbPolyline
 90
2
 70
0
 10
636833.5702374276
 20
4843732.382986781
 10
636819.1493447132
 20
4843783.127553848
  0
LWPOLYLINE
  5
3A
330
17
100
AcDbEntity
  8
ROADS
100
AcDbPolyline
 90
2
 70
0
 10
637020.7236049507
 20
4843795.345909002
 10
637006.0322364451
 20
4843842.520965936
  0
LWPOLYLINE
  5
3B
330
17
100
AcDbEntity
  8
ROADS
100
AcDbPolyline
 90
2
 70
0
 10
636819.1493447132
 20
4843783.127553848
 10
636912.9971737685
 20
4843812.832108976
  0
LWPOLYLINE
  5
3C
330
17
100
AcDbEntity
  8
ROADS
100
AcDbPolyline
 90
2
 70
0
 10
637080.523533344
 20
4843819.169156252
 10
637064.9431320438
 20
4843847.188816625
  0
LWPOLYLINE
  5
3D
330
17
100
AcDbEntity
  8
ROADS
100
AcDbPolyline
 90
2
 70
0
 10
636819.1493447132
 20
4843783.127553848
 10
636802.8194167402
 20
4843828.837101198
  0
LWPOLYLINE
  5
3E
330
17
100
AcDbEntity
  8
ROADS
100
AcDbPolyline
 90
2
 70
0
 10
636659.2168252252
 20
4843785.227622989
 10
636802.8194167402
 20
4843828.837101198
  0
LWPOLYLINE
  5
3F
330
17
100
AcDbEntity
  8
ROADS
100
AcDbPolyline
 90
2
 70
0
 10
636912.9971737685
 20
4843812.832108976
 10
636989.4034771137
 20
4843839.219645218
  0
LWPOLYLINE
  5
40
330
17
100
AcDbEntity
  8
ROADS
100
AcDbPolyline
 90
2
 70
0
 10
636989.4034771137
 20
4843839.219645218
 10
637006.0322364451
 20
4843842.520965936
  0
LWPOLYLINE
  5
41
330
17
100
AcDbEntity
  8
ROADS
100
AcDbPolyline
 90
2
 70
0
 10
637006.0322364451
 20
4843842.520965936
 10
637053.0251215925
 20
4843857.293498859
  0
LWPOLYLINE
  5
42
330
17
100
AcDbEntity
  8
ROADS
100
AcDbPolyline
 90
2
 70
0
 10
637053.0251215925
 20
4843857.293498859
 10
637064.9431320438
 20
4843847.188816625
  0
LWPOLYLINE
  5
43
330
17
100
AcDbEntity
  8
ROADS
100
AcDbPolyline
 90
2
 70
0
 10
637064.9431320438
 20
4843847.188816625
 10
637070.9969649668
 20
4843861.646730475
  0
LWPOLYLINE
  5
44
330
17
100
AcDbEntity
  8
ROADS
100
AcDbPolyline
 90
2
 70
0
 10
637053.0251215925
 20
4843857.293498859
 10
637070.9969649668
 20
4843861.646730475
  0
LWPOLYLINE
  5
45
330
17
100
AcDbEntity
  8
ROADS
100
AcDbPolyline
 90
2
 70
0
 10
636989.4034771137
 20
4843839.219645218
 10
636963.1644388508
 20
4843917.752832926
  0
LWPOLYLINE
  5
46
330
17
100
AcDbEntity
  8
ROADS
100
AcDbPolyline
 90
2
 70
0
 10
636802.8194167402
 20
4843828.837101198
 10
636759.1594415893
 20
4843965.06211896
  0
LWPOLYLINE
  5
47
330
17
100
AcDbEntity
  8
ROADS
100
AcDbPolyline
 90
2
 70
0
 10
636668.1859870219
 20
4843935.409572425
 10
636759.1594415893
 20
4843965.06211896
  0
LWPOLYLINE
  5
48
330
17
100
AcDbEntity
  8
ROADS
100
AcDbPolyline
 90
3
 70
0
 10
637070.9969649668
 20
4843861.646730475
 10
637182.750429548
 20
4843896.271917211
 10
637120.692992326
 20
4844065.624076661
  0
LWPOLYLINE
  5
49
330
17
100
AcDbEntity
  8
ROADS
100
AcDbPolyline
 90
3
 70
0
 10
636963.1644388508
 20
4843917.752832926
 10
636884.5967219935
 20
4843900.326970446
 10
636808.8016529363
 20
4844136.984404689
  0
LWPOLYLINE
  5
4A
330
17
100
AcDbEntity
  8
ROADS
100
AcDbPolyline
 90
3
 70
0
 10
637070.9969649668
 20
4843861.646730475
 10
637077.4809460148
 20
4843875.822405655
 10
636977.4653608352
 20
4844191.044696643
  0
LWPOLYLINE
  5
4B
330
17
100
AcDbEntity
  8
ROADS
100
AcDbPolyline
 90
2
 70
0
 10
636759.1594415893
 20
4843965.06211896
 10
636712.9181550031
 20
4844109.243093432
  0
LWPOLYLINE
  5
4C
330
17
100
AcDbEntity
  8
ROADS
100
AcDbPolyline
 90
2
 70
0
 10
636963.1644388508
 20
4843917.752832926
 10
636885.4749668594
 20
4844162.375750103
  0
LWPOLYLINE
  5
4D
330
17
100
AcDbEntity
  8
ROADS
100
AcDbPolyline
 90
2
 70
0
 10
637628.6413872237
 20
4843977.941811647
 10
637623.5889674326
 20
4843993.126211451
  0
LWPOLYLINE
  5
4E
330
17
100
AcDbEntity
  8
ROADS
100
AcDbPolyline
 90
3
 70
0
 10
637748.0274819554
 20
4843969.945100446
 10
637838.7982062243
 20
4844037.700272071
 10
637925.948788737
 20
4844073.419311133
  0
LWPOLYLINE
  5
4F
330
17
100
AcDbEntity
  8
ROADS
100
AcDbPolyline
 90
5
 70
0
 10
637646.4447718944
 20
4843975.717054533
 10
637688.2214242894
 20
4843999.013785417
 10
637692.4714934321
 20
4844015.438259484
 10
637675.5796426879
 20
4844031.970015318
 10
637617.2378083908
 20
4844012.602055393
  0
LWPOLYLINE
  5
50
330
17
100
AcDbEntity
  8
ROADS
100
AcDbPolyline
 90
2
 70
0
 10
637623.5889674326
 20
4843993.126211451
 10
637617.2378083908
 20
4844012.602055393
  0
LWPOLYLINE
  5
51
330
17
100
AcDbEntity
  8
ROADS
100
AcDbPolyline
 90
2
 70
0
 10
637617.2378083908
 20
4844012.602055393
 10
637594.7490889465
 20
4844086.215810885
  0
LWPOLYLINE
  5
52
330
17
100
AcDbEntity
  8
ROADS
100
AcDbPolyline
 90
2
 70
0
 10
637925.948788737
 20
4844073.419311133
 10
637991.6726172857
 20
4844082.94100514
  0
LWPOLYLINE
  5
53
330
17
100
AcDbEntity
  8
ROADS
100
AcDbPolyline
 90
2
 70
0
 10
637734.8137130479
 20
4844131.758666061
 10
637764.0006130745
 20
4844061.816483426
  0
LWPOLYLINE
  5
54
330
17
100
AcDbEntity
  8
ROADS
100
AcDbPolyline
 90
2
 70
0
 10
637594.7490889465
 20
4844086.215810885
 10
637734.8137130479
 20
4844131.758666061
  0
LWPOLYLINE
  5
55
330
17
100
AcDbEntity
  8
ROADS
100
AcDbPolyline
 90
2
 70
0
 10
637925.948788737
 20
4844073.419311133
 10
637890.3160472752
 20
4844184.58171645
  0
LWPOLYLINE
  5
56
330
17
100
AcDbEntity
  8
ROADS
100
AcDbPolyline
 90
2
 70
0
 10
637734.8137130479
 20
4844131.758666061
 10
637751.5151747647
 20
4844138.061605433
  0
LWPOLYLINE
  5
57
330
17
100
AcDbEntity
  8
ROADS
100
AcDbPolyline
 90
2
 70
0
 10
637120.692992326
 20
4844065.624076661
 10
637248.3709859063
 20
4844104.941051687
  0
LWPOLYLINE
  5
58
330
17
100
AcDbEntity
  8
ROADS
100
AcDbPolyline
 90
2
 70
0
 10
637499.7505735361
 20
4844054.490103222
 10
637468.2946418007
 20
4844151.932708581
  0
LWPOLYLINE
  5
59
330
17
100
AcDbEntity
  8
ROADS
100
AcDbPolyline
 90
2
 70
0
 10
637467.9199896391
 20
4844044.912987587
 10
637230.9566571164
 20
4844165.633392482
  0
LWPOLYLINE
  5
5A
330
17
100
AcDbEntity
  8
ROADS
100
AcDbPolyline
 90
2
 70
0
 10
637594.7490889465
 20
4844086.215810885
 10
637564.713435686
 20
4844177.683596192
  0
LWPOLYLINE
  5
5B
330
17
100
AcDbEntity
  8
ROADS
100
AcDbPolyline
 90
2
 70
0
 10
637248.3709859063
 20
4844104.941051687
 10
637230.9566571164
 20
4844165.633392482
  0
LWPOLYLINE
  5
5C
330
17
100
AcDbEntity
  8
ROADS
100
AcDbPolyline
 90
2
 70
0
 10
637564.713435686
 20
4844177.683596192
 10
637468.2946418007
 20
4844151.932708581
  0
LWPOLYLINE
  5
5D
330
17
100
AcDbEntity
  8
ROADS
100
AcDbPolyline
 90
2
 70
0
 10
637468.2946418007
 20
4844151.932708581
 10
637283.5845761759
 20
4844248.5977886105
  0
LWPOLYLINE
  5
5E
330
17
100
AcDbEntity
  8
ROADS
100
AcDbPolyline
 90
3
 70
0
 10
637230.9566571164
 20
4844165.633392482
 10
637209.793201793
 20
4844226.257848845
 10
637283.5845761759
 20
4844248.5977886105
  0
LWPOLYLINE
  5
5F
330
17
100
AcDbEntity
  8
ROADS
100
AcDbPolyline
 90
2
 70
0
 10
637283.5845761759
 20
4844248.5977886105
 10
637266.0814512542
 20
4844307.288336508
  0
LWPOLYLINE
  5
60
330
17
100
AcDbEntity
  8
ROADS
100
AcDbPolyline
 90
2
 70
0
 10
637564.713435686
 20
4844177.683596192
 10
637499.6839050945
 20
4844382.531393293
  0
LWPOLYLINE
  5
61
330
17
100
AcDbEntity
  8
ROADS
100
AcDbPolyline
 90
2
 70
0
 10
636712.9181550031
 20
4844109.243093432
 10
636808.8016529363
 20
4844136.984404689
  0
LWPOLYLINE
  5
62
330
17
100
AcDbEntity
  8
ROADS
100
AcDbPolyline
 90
2
 70
0
 10
637120.692992326
 20
4844065.624076661
 10
637070.5452920027
 20
4844221.734568173
  0
LWPOLYLINE
  5
63
330
17
100
AcDbEntity
  8
ROADS
100
AcDbPolyline
 90
2
 70
0
 10
636808.8016529363
 20
4844136.984404689
 10
636885.4749668594
 20
4844162.375750103
  0
LWPOLYLINE
  5
64
330
17
100
AcDbEntity
  8
ROADS
100
AcDbPolyline
 90
2
 70
0
 10
636885.4749668594
 20
4844162.375750103
 10
636977.4653608352
 20
4844191.044696643
  0
LWPOLYLINE
  5
65
330
17
100
AcDbEntity
  8
ROADS
100
AcDbPolyline
 90
2
 70
0
 10
636808.8016529363
 20
4844136.984404689
 10
636760.5337314821
 20
4844272.126868171
  0
LWPOLYLINE
  5
66
330
17
100
AcDbEntity
  8
ROADS
100
AcDbPolyline
 90
2
 70
0
 10
636977.4653608352
 20
4844191.044696643
 10
637070.5452920027
 20
4844221.734568173
  0
LWPOLYLINE
  5
67
330
17
100
AcDbEntity
  8
ROADS
100
AcDbPolyline
 90
2
 70
0
 10
636977.4653608352
 20
4844191.044696643
 10
636932.465006213
 20
4844332.245929113
  0
LWPOLYLINE
  5
68
330
17
100
AcDbEntity
  8
ROADS
100
AcDbPolyline
 90
2
 70
0
 10
637070.5452920027
 20
4844221.734568173
 10
637025.6249985461
 20
4844361.937193964
  0
LWPOLYLINE
  5
69
330
17
100
AcDbEntity
  8
ROADS
100
AcDbPolyline
 90
2
 70
0
 10
636885.4749668594
 20
4844162.375750103
 10
636790.708387916
 20
4844462.698454437
  0
LWPOLYLINE
  5
6A
330
17
100
AcDbEntity
  8
ROADS
100
AcDbPolyline
 90
2
 70
0
 10
636932.465006213
 20
4844332.245929113
 10
637025.6249985461
 20
4844361.937193964
  0
LWPOLYLINE
  5
6B
330
17
100
AcDbEntity
  8
ROADS
100
AcDbPolyline
 90
2
 70
0
 10
636046.0924694056
 20
4843627.700784956
 10
635895.338933143
 20
4843579.7047179695
  0
LWPOLYLINE
  5
6C
330
17
100
AcDbEntity
  8
ROADS
100
AcDbPolyline
 90
2
 70
0
 10
635714.333559293
 20
4843639.2685484
 10
635702.9334746735
 20
4843734.803400038
  0
LWPOLYLINE
  5
6D
330
17
100
AcDbEntity
  8
ROADS
100
AcDbPolyline
 90
5
 70
0
 10
635747.7228062953
 20
4843729.698730578
 10
635792.4445467121
 20
4843697.005411935
 10
635847.4863669493
 20
4843688.001982333
 10
635925.908146602
 20
4843702.924882442
 10
635981.7082787888
 20
4843736.4459373
  0
LWPOLYLINE
  5
6E
330
17
100
AcDbEntity
  8
ROADS
100
AcDbPolyline
 90
2
 70
0
 10
635657.6761368958
 20
4843721.565991787
 10
635702.9334746735
 20
4843734.803400038
  0
LWPOLYLINE
  5
6F
330
17
100
AcDbEntity
  8
ROADS
100
AcDbPolyline
 90
2
 70
0
 10
635702.9334746735
 20
4843734.803400038
 10
635747.7228062953
 20
4843729.698730578
  0
LWPOLYLINE
  5
70
330
17
100
AcDbEntity
  8
ROADS
100
AcDbPolyline
 90
3
 70
0
 10
635747.7228062953
 20
4843729.698730578
 10
635779.2762599343
 20
4843768.275300276
 10
635932.4872827968
 20
4843818.074143835
  0
LWPOLYLINE
  5
71
330
17
100
AcDbEntity
  8
ROADS
100
AcDbPolyline
 90
3
 70
0
 10
636291.5633192615
 20
4843556.462100118
 10
636250.9195089738
 20
4843583.294541377
 10
636121.8336958163
 20
4843549.533174348
  0
LWPOLYLINE
  5
72
330
17
100
AcDbEntity
  8
ROADS
100
AcDbPolyline
 90
2
 70
0
 10
636069.5351347682
 20
4843552.313222426
 10
636046.0924694056
 20
4843627.700784956
  0
LWPOLYLINE
  5
73
330
17
100
AcDbEntity
  8
ROADS
100
AcDbPolyline
 90
3
 70
0
 10
636206.4962297302
 20
4843725.508081149
 10
636166.7027157472
 20
4843667.280558062
 10
636046.0924694056
 20
4843627.700784956
  0
LWPOLYLINE
  5
74
330
17
100
AcDbEntity
  8
ROADS
100
AcDbPolyline
 90
2
 70
0
 10
636046.0924694056
 20
4843627.700784956
 10
635981.7082787888
 20
4843736.4459373
  0
LWPOLYLINE
  5
75
330
17
100
AcDbEntity
  8
ROADS
100
AcDbPolyline
 90
2
 70
0
 10
636206.4962297302
 20
4843725.508081149
 10
636257.5984921625
 20
4843702.9301187685
  0
LWPOLYLINE
  5
76
330
17
100
AcDbEntity
  8
ROADS
100
AcDbPolyline
 90
2
 70
0
 10
636233.4884516889
 20
4843767.502439284
 10
636206.4962297302
 20
4843725.508081149
  0
LWPOLYLINE
  5
77
330
17
100
AcDbEntity
  8
ROADS
100
AcDbPolyline
 90
2
 70
0
 10
635981.7082787888
 20
4843736.4459373
 10
636115.8088336062
 20
4843767.234164955
  0
LWPOLYLINE
  5
78
330
17
100
AcDbEntity
  8
ROADS
100
AcDbPolyline
 90
2
 70
0
 10
636358.4289380268
 20
4843795.768657564
 10
636233.4884516889
 20
4843767.502439284
  0
LWPOLYLINE
  5
79
330
17
100
AcDbEntity
  8
ROADS
100
AcDbPolyline
 90
4
 70
0
 10
636085.0951095591
 20
4843867.829108571
 10
636166.9821724118
 20
4843891.81559713
 10
636202.3997712908
 20
4843796.444246803
 10
636233.4884516889
 20
4843767.502439284
  0
LWPOLYLINE
  5
7A
330
17
100
AcDbEntity
  8
ROADS
100
AcDbPolyline
 90
2
 70
0
 10
635932.4872827968
 20
4843818.074143835
 10
636085.0951095591
 20
4843867.829108571
  0
LWPOLYLINE
  5
7B
330
17
100
AcDbEntity
  8
ROADS
100
AcDbPolyline
 90
2
 70
0
 10
636426.4248749613
 20
4843583.99420868
 10
636358.4289380268
 20
4843795.768657564
  0
LWPOLYLINE
  5
7C
330
17
100
AcDbEntity
  8
ROADS
100
AcDbPolyline
 90
2
 70
0
 10
636698.7931790419
 20
4843668.609229076
 10
636659.2168252252
 20
4843785.227622989
  0
LWPOLYLINE
  5
7D
330
17
100
AcDbEntity
  8
ROADS
100
AcDbPolyline
 90
3
 70
0
 10
636482.8838698268
 20
4843830.031645775
 10
636517.2838249737
 20
4843742.646496707
 10
636659.2168252252
 20
4843785.227622989
  0
LWPOLYLINE
  5
7E
330
17
100
AcDbEntity
  8
ROADS
100
AcDbPolyline
 90
2
 70
0
 10
636358.4289380268
 20
4843795.768657564
 10
636482.8838698268
 20
4843830.031645775
  0
LWPOLYLINE
  5
7F
330
17
100
AcDbEntity
  8
ROADS
100
AcDbPolyline
 90
2
 70
0
 10
636482.8838698268
 20
4843830.031645775
 10
636442.3271157427
 20
4843919.307493296
  0
LWPOLYLINE
  5
80
330
17
100
AcDbEntity
  8
ROADS
100
AcDbPolyline
 90
3
 70
0
 10
636482.8838698268
 20
4843830.031645775
 10
636670.6261318288
 20
4843890.447676824
 10
636668.1859870219
 20
4843935.409572425
  0
LWPOLYLINE
  5
81
330
17
100
AcDbEntity
  8
ROADS
100
AcDbPolyline
 90
2
 70
0
 10
635612.3558860511
 20
4843691.639414739
 10
635657.6761368958
 20
4843721.565991787
  0
LWPOLYLINE
  5
82
330
17
100
AcDbEntity
  8
ROADS
100
AcDbPolyline
 90
2
 70
0
 10
635530.6491936321
 20
4843744.918836855
 10
635542.9027403514
 20
4843777.32622101
  0
LWPOLYLINE
  5
83
330
17
100
AcDbEntity
  8
ROADS
100
AcDbPolyline
 90
2
 70
0
 10
635501.7108677754
 20
4843860.756817678
 10
635454.9585991943
 20
4843805.511756807
  0
LWPOLYLINE
  5
84
330
17
100
AcDbEntity
  8
ROADS
100
AcDbPolyline
 90
3
 70
0
 10
635597.7978095834
 20
4843868.845930564
 10
635558.891511798
 20
4843876.795324369
 10
635501.7108677754
 20
4843860.756817678
  0
LWPOLYLINE
  5
85
330
17
100
AcDbEntity
  8
ROADS
100
AcDbPolyline
 90
2
 70
0
 10
635597.7978095834
 20
4843868.845930564
 10
635633.0834989822
 20
4843889.693510023
  0
LWPOLYLINE
  5
86
330
17
100
AcDbEntity
  8
ROADS
100
AcDbPolyline
 90
2
 70
0
 10
635981.7082787888
 20
4843736.4459373
 10
635932.4872827968
 20
4843818.074143835
  0
LWPOLYLINE
  5
87
330
17
100
AcDbEntity
  8
ROADS
100
AcDbPolyline
 90
3
 70
0
 10
635657.6761368958
 20
4843721.565991787
 10
635630.5521657293
 20
4843802.584073664
 10
635643.5236272716
 20
4843857.862719421
  0
LWPOLYLINE
  5
88
330
17
100
AcDbEntity
  8
ROADS
100
AcDbPolyline
 90
2
 70
0
 10
635932.4872827968
 20
4843818.074143835
 10
635904.2940245873
 20
4843906.944620692
  0
LWPOLYLINE
  5
89
330
17
100
AcDbEntity
  8
ROADS
100
AcDbPolyline
 90
2
 70
0
 10
635643.5236272716
 20
4843857.862719421
 10
635597.7978095834
 20
4843868.845930564
  0
LWPOLYLINE
  5
8A
330
17
100
AcDbEntity
  8
ROADS
100
AcDbPolyline
 90
3
 70
0
 10
635904.2940245873
 20
4843906.944620692
 10
635737.6585719467
 20
4843850.53214585
 10
635643.5236272716
 20
4843857.862719421
  0
LWPOLYLINE
  5
8B
330
17
100
AcDbEntity
  8
ROADS
100
AcDbPolyline
 90
2
 70
0
 10
635678.3955625469
 20
4843885.544908803
 10
635702.5338581786
 20
4843887.523545473
  0
LWPOLYLINE
  5
8C
330
17
100
AcDbEntity
  8
ROADS
100
AcDbPolyline
 90
2
 70
0
 10
635633.0834989822
 20
4843889.693510023
 10
635678.3955625469
 20
4843885.544908803
  0
LWPOLYLINE
  5
8D
330
17
100
AcDbEntity
  8
ROADS
100
AcDbPolyline
 90
2
 70
0
 10
635678.3955625469
 20
4843885.544908803
 10
635678.4467977037
 20
4843896.801321662
  0
LWPOLYLINE
  5
8E
330
17
100
AcDbEntity
  8
ROADS
100
AcDbPolyline
 90
2
 70
0
 10
635992.9402366884
 20
4843936.145926269
 10
635904.2940245873
 20
4843906.944620692
  0
LWPOLYLINE
  5
8F
330
17
100
AcDbEntity
  8
ROADS
100
AcDbPolyline
 90
4
 70
0
 10
635633.0834989822
 20
4843889.693510023
 10
635613.3191983624
 20
4843897.569414535
 10
635618.4673770239
 20
4843927.138192778
 10
635666.1565237101
 20
4844012.209435461
  0
LWPOLYLINE
  5
90
330
17
100
AcDbEntity
  8
ROADS
100
AcDbPolyline
 90
2
 70
0
 10
636358.4289380268
 20
4843795.768657564
 10
636301.0128061953
 20
4843973.755209506
  0
LWPOLYLINE
  5
91
330
17
100
AcDbEntity
  8
ROADS
100
AcDbPolyline
 90
3
 70
0
 10
636442.3271157427
 20
4843919.307493296
 10
636642.6159435699
 20
4843983.951076783
 10
636668.1859870219
 20
4843935.409572425
  0
LWPOLYLINE
  5
92
330
17
100
AcDbEntity
  8
ROADS
100
AcDbPolyline
 90
2
 70
0
 10
636442.3271157427
 20
4843919.307493296
 10
636411.6858420459
 20
4844009.764923821
  0
LWPOLYLINE
  5
93
330
17
100
AcDbEntity
  8
ROADS
100
AcDbPolyline
 90
2
 70
0
 10
636301.0128061953
 20
4843973.755209506
 10
636411.6858420459
 20
4844009.764923821
  0
LWPOLYLINE
  5
94
330
17
100
AcDbEntity
  8
ROADS
100
AcDbPolyline
 90
2
 70
0
 10
636411.6858420459
 20
4844009.764923821
 10
636620.8381112074
 20
4844078.569386716
  0
LWPOLYLINE
  5
95
330
17
100
AcDbEntity
  8
ROADS
100
AcDbPolyline
 90
2
 70
0
 10
636411.6858420459
 20
4844009.764923821
 10
636384.6848391031
 20
4844099.285154357
  0
LWPOLYLINE
  5
96
330
17
100
AcDbEntity
  8
ROADS
100
AcDbPolyline
 90
2
 70
0
 10
636620.8381112074
 20
4844078.569386716
 10
636712.9181550031
 20
4844109.243093432
  0
LWPOLYLINE
  5
97
330
17
100
AcDbEntity
  8
ROADS
100
AcDbPolyline
 90
3
 70
0
 10
636384.6848391031
 20
4844099.285154357
 10
636580.7317670556
 20
4844180.856570139
 10
636620.8381112074
 20
4844078.569386716
  0
LWPOLYLINE
  5
98
330
17
100
AcDbEntity
  8
ROADS
100
AcDbPolyline
 90
3
 70
0
 10
636384.6848391031
 20
4844099.285154357
 10
636358.3391109302
 20
4844183.820787059
 10
636466.0086990863
 20
4844222.215418286
  0
LWPOLYLINE
  5
99
330
17
100
AcDbEntity
  8
ROADS
100
AcDbPolyline
 90
2
 70
0
 10
636712.9181550031
 20
4844109.243093432
 10
636645.4541679532
 20
4844323.726180618
  0
LWPOLYLINE
  5
9A
330
17
100
AcDbEntity
  8
ROADS
100
AcDbPolyline
 90
2
 70
0
 10
636085.0951095591
 20
4843867.829108571
 10
636056.1098877816
 20
4843954.814118133
  0
LWPOLYLINE
  5
9B
330
17
100
AcDbEntity
  8
ROADS
100
AcDbPolyline
 90
2
 70
0
 10
636056.1098877816
 20
4843954.814118133
 10
635992.9402366884
 20
4843936.145926269
  0
LWPOLYLINE
  5
9C
330
17
100
AcDbEntity
  8
ROADS
100
AcDbPolyline
 90
2
 70
0
 10
636133.3507339228
 20
4843981.716775942
 10
636056.1098877816
 20
4843954.814118133
  0
LWPOLYLINE
  5
9D
330
17
100
AcDbEntity
  8
ROADS
100
AcDbPolyline
 90
2
 70
0
 10
636221.3905830588
 20
4844012.816312603
 10
636133.3507339228
 20
4843981.716775942
  0
LWPOLYLINE
  5
9E
330
17
100
AcDbEntity
  8
ROADS
100
AcDbPolyline
 90
4
 70
0
 10
635992.9402366884
 20
4843936.145926269
 10
635964.503316916
 20
4844024.16592361
 10
635977.7268344709
 20
4844046.4082745295
 10
636017.9594992204
 20
4844063.140086401
  0
LWPOLYLINE
  5
9F
330
17
100
AcDbEntity
  8
ROADS
100
AcDbPolyline
 90
2
 70
0
 10
636301.0128061953
 20
4843973.755209506
 10
636281.7764033818
 20
4844034.888439632
  0
LWPOLYLINE
  5
A0
330
17
100
AcDbEntity
  8
ROADS
100
AcDbPolyline
 90
2
 70
0
 10
636281.7764033818
 20
4844034.888439632
 10
636221.3905830588
 20
4844012.816312603
  0
LWPOLYLINE
  5
A1
330
17
100
AcDbEntity
  8
ROADS
100
AcDbPolyline
 90
2
 70
0
 10
636221.3905830588
 20
4844012.816312603
 10
636202.8558011841
 20
4844071.488008209
  0
LWPOLYLINE
  5
A2
330
17
100
AcDbEntity
  8
ROADS
100
AcDbPolyline
 90
4
 70
0
 10
636133.3507339228
 20
4843981.716775942
 10
636106.2228758076
 20
4844069.738504665
 10
636124.9690983278
 20
4844139.088031415
 10
636106.5298732016
 20
4844201.26374465
  0
LWPOLYLINE
  5
A3
330
17
100
AcDbEntity
  8
ROADS
100
AcDbPolyline
 90
2
 70
0
 10
636281.7764033818
 20
4844034.888439632
 10
636211.7872421918
 20
4844252.85586079
  0
LWPOLYLINE
  5
A4
330
17
100
AcDbEntity
  8
ROADS
100
AcDbPolyline
 90
2
 70
0
 10
635904.2940245873
 20
4843906.944620692
 10
635869.4345805312
 20
4844027.444193189
  0
LWPOLYLINE
  5
A5
330
17
100
AcDbEntity
  8
ROADS
100
AcDbPolyline
 90
2
 70
0
 10
635696.8603645611
 20
4843966.35174604
 10
635666.1565237101
 20
4844012.209435461
  0
LWPOLYLINE
  5
A6
330
17
100
AcDbEntity
  8
ROADS
100
AcDbPolyline
 90
2
 70
0
 10
635666.1565237101
 20
4844012.209435461
 10
635690.4732444902
 20
4844055.318913479
  0
LWPOLYLINE
  5
A7
330
17
100
AcDbEntity
  8
ROADS
100
AcDbPolyline
 90
2
 70
0
 10
635772.1153134016
 20
4844041.182637964
 10
635869.4345805312
 20
4844027.444193189
  0
LWPOLYLINE
  5
A8
330
17
100
AcDbEntity
  8
ROADS
100
AcDbPolyline
 90
2
 70
0
 10
635690.4732444902
 20
4844055.318913479
 10
635772.1153134016
 20
4844041.182637964
  0
LWPOLYLINE
  5
A9
330
17
100
AcDbEntity
  8
ROADS
100
AcDbPolyline
 90
2
 70
0
 10
635650.6280554364
 20
4844081.485884767
 10
635690.4732444902
 20
4844055.318913479
  0
LWPOLYLINE
  5
AA
330
17
100
AcDbEntity
  8
ROADS
100
AcDbPolyline
 90
4
 70
0
 10
635869.4345805312
 20
4844027.444193189
 10
635888.696687798
 20
4844087.301170981
 10
635918.6946775152
 20
4844123.850453014
 10
636019.4163041203
 20
4844165.681540296
  0
LWPOLYLINE
  5
AB
330
17
100
AcDbEntity
  8
ROADS
100
AcDbPolyline
 90
2
 70
0
 10
635650.6280554364
 20
4844081.485884767
 10
635703.743434909
 20
4844156.460006086
  0
LWPOLYLINE
  5
AC
330
17
100
AcDbEntity
  8
ROADS
100
AcDbPolyline
 90
5
 70
0
 10
635772.1153134016
 20
4844041.182637964
 10
635783.5682678445
 20
4844100.899216925
 10
635869.118109777
 20
4844212.463767374
 10
635990.9228227205
 20
4844253.176455706
 10
636019.4163041203
 20
4844165.681540296
  0
LWPOLYLINE
  5
AD
330
17
100
AcDbEntity
  8
ROADS
100
AcDbPolyline
 90
3
 70
0
 10
635703.743434909
 20
4844156.460006086
 10
635783.1261729278
 20
4844263.4134927085
 10
635830.4352118069
 20
4844298.275025241
  0
LWPOLYLINE
  5
AE
330
17
100
AcDbEntity
  8
ROADS
100
AcDbPolyline
 90
2
 70
0
 10
638594.8056626859
 20
4844289.040724022
 10
638581.5376605951
 20
4844342.129237501
  0
LWPOLYLINE
  5
AF
330
17
100
AcDbEntity
  8
ROADS
100
AcDbPolyline
 90
2
 70
0
 10
638679.4423418987
 20
4844343.0434972765
 10
638670.7151532348
 20
4844370.747441706
  0
LWPOLYLINE
  5
B0
330
17
100
AcDbEntity
  8
ROADS
100
AcDbPolyline
 90
2
 70
0
 10
638432.4947158212
 20
4844191.574366263
 10
638403.1817571227
 20
4844284.891856914
  0
LWPOLYLINE
  5
B1
330
17
100
AcDbEntity
  8
ROADS
100
AcDbPolyline
 90
5
 70
0
 10
637991.6726172857
 20
4844082.94100514
 10
638033.4760466416
 20
4844058.940502298
 10
638074.1349609278
 20
4844065.952210295
 10
638161.7030624966
 20
4844116.949289446
 10
638161.9602887201
 20
4844132.239397537
  0
LWPOLYLINE
  5
B2
330
17
100
AcDbEntity
  8
ROADS
100
AcDbPolyline
 90
2
 70
0
 10
638161.9602887201
 20
4844132.239397537
 10
638103.9677773512
 20
4844166.874834569
  0
LWPOLYLINE
  5
B3
330
17
100
AcDbEntity
  8
ROADS
100
AcDbPolyline
 90
2
 70
0
 10
638507.8596862368
 20
4844236.082413144
 10
638483.1046693594
 20
4844310.3421860915
  0
LWPOLYLINE
  5
B4
330
17
100
AcDbEntity
  8
ROADS
100
AcDbPolyline
 90
4
 70
0
 10
638103.9677773512
 20
4844166.874834569
 10
638103.1893349233
 20
4844214.842287615
 10
638136.8847731856
 20
4844251.451761065
 10
638242.1565494325
 20
4844270.162325775
  0
LWPOLYLINE
  5
B5
330
17
100
AcDbEntity
  8
ROADS
100
AcDbPolyline
 90
3
 70
0
 10
638242.1565494325
 20
4844270.162325775
 10
638331.1806191783
 20
4844251.487192104
 10
638398.9570568015
 20
4844297.778607351
  0
LWPOLYLINE
  5
B6
330
17
100
AcDbEntity
  8
ROADS
100
AcDbPolyline
 90
2
 70
0
 10
638403.1817571227
 20
4844284.891856914
 10
638398.9570568015
 20
4844297.778607351
  0
LWPOLYLINE
  5
B7
330
17
100
AcDbEntity
  8
ROADS
100
AcDbPolyline
 90
2
 70
0
 10
638403.1817571227
 20
4844284.891856914
 10
638483.1046693594
 20
4844310.3421860915
  0
LWPOLYLINE
  5
B8
330
17
100
AcDbEntity
  8
ROADS
100
AcDbPolyline
 90
2
 70
0
 10
638483.1046693594
 20
4844310.3421860915
 10
638581.5376605951
 20
4844342.129237501
  0
LWPOLYLINE
  5
B9
330
17
100
AcDbEntity
  8
ROADS
100
AcDbPolyline
 90
2
 70
0
 10
638398.9570568015
 20
4844297.778607351
 10
638331.2452348396
 20
4844508.608903017
  0
LWPOLYLINE
  5
BA
330
17
100
AcDbEntity
  8
ROADS
100
AcDbPolyline
 90
2
 70
0
 10
638760.3992554628
 20
4844389.536966129
 10
638757.5192154526
 20
4844399.322688306
  0
LWPOLYLINE
  5
BB
330
17
100
AcDbEntity
  8
ROADS
100
AcDbPolyline
 90
2
 70
0
 10
638581.5376605951
 20
4844342.129237501
 10
638670.7151532348
 20
4844370.747441706
  0
LWPOLYLINE
  5
BC
330
17
100
AcDbEntity
  8
ROADS
100
AcDbPolyline
 90
2
 70
0
 10
638670.7151532348
 20
4844370.747441706
 10
638757.5192154526
 20
4844399.322688306
  0
LWPOLYLINE
  5
BD
330
17
100
AcDbEntity
  8
ROADS
100
AcDbPolyline
 90
2
 70
0
 10
638757.5192154526
 20
4844399.322688306
 10
638794.3726121417
 20
4844412.189702477
  0
LWPOLYLINE
  5
BE
330
17
100
AcDbEntity
  8
ROADS
100
AcDbPolyline
 90
3
 70
0
 10
638398.9570568015
 20
4844297.778607351
 10
638433.8159530036
 20
4844334.149160985
 10
638882.14918592
 20
4844617.068114436
  0
LWPOLYLINE
  5
BF
330
17
100
AcDbEntity
  8
ROADS
100
AcDbPolyline
 90
3
 70
0
 10
638801.1510402597
 20
4844417.185531054
 10
638838.0278137468
 20
4844502.791237854
 10
638917.7900922273
 20
4844554.241269258
  0
LWPOLYLINE
  5
C0
330
17
100
AcDbEntity
  8
ROADS
100
AcDbPolyline
 90
2
 70
0
 10
638917.7900922273
 20
4844554.241269258
 10
638882.14918592
 20
4844617.068114436
  0
LWPOLYLINE
  5
C1
330
17
100
AcDbEntity
  8
ROADS
100
AcDbPolyline
 90
2
 70
0
 10
638917.7900922273
 20
4844554.241269258
 10
639003.0849296986
 20
4844606.575834866
  0
LWPOLYLINE
  5
C2
330
17
100
AcDbEntity
  8
ROADS
100
AcDbPolyline
 90
2
 70
0
 10
638596.9624084417
 20
4844610.175279425
 10
638571.6644316727
 20
4844648.98000378
  0
LWPOLYLINE
  5
C3
330
17
100
AcDbEntity
  8
ROADS
100
AcDbPolyline
 90
2
 70
0
 10
638571.6644316727
 20
4844648.98000378
 10
638660.0937487932
 20
4844708.588732042
  0
LWPOLYLINE
  5
C4
330
17
100
AcDbEntity
  8
ROADS
100
AcDbPolyline
 90
2
 70
0
 10
638882.14918592
 20
4844617.068114436
 10
639082.5895916105
 20
4844722.12969675
  0
LWPOLYLINE
  5
C5
330
17
100
AcDbEntity
  8
ROADS
100
AcDbPolyline
 90
2
 70
0
 10
638882.14918592
 20
4844617.068114436
 10
638790.3513472321
 20
4844794.47633594
  0
LWPOLYLINE
  5
C6
330
17
100
AcDbEntity
  8
ROADS
100
AcDbPolyline
 90
2
 70
0
 10
635460.1790360569
 20
4844086.535609462
 10
635341.1581085867
 20
4843922.815971045
  0
LWPOLYLINE
  5
C7
330
17
100
AcDbEntity
  8
ROADS
100
AcDbPolyline
 90
3
 70
0
 10
635501.7108677754
 20
4843860.756817678
 10
635428.6139393551
 20
4843931.441720873
 10
635511.2846905836
 20
4844049.955595929
  0
LWPOLYLINE
  5
C8
330
17
100
AcDbEntity
  8
ROADS
100
AcDbPolyline
 90
2
 70
0
 10
635511.2846905836
 20
4844049.955595929
 10
635460.1790360569
 20
4844086.535609462
  0
LWPOLYLINE
  5
C9
330
17
100
AcDbEntity
  8
ROADS
100
AcDbPolyline
 90
3
 70
0
 10
635511.2846905836
 20
4844049.955595929
 10
635574.3768170562
 20
4844133.111006348
 10
635650.6280554364
 20
4844081.485884767
  0
LWPOLYLINE
  5
CA
330
17
100
AcDbEntity
  8
ROADS
100
AcDbPolyline
 90
3
 70
0
 10
635745.2486780423
 20
4844543.802380527
 10
635736.0831053241
 20
4844472.591194904
 10
635460.1790360569
 20
4844086.535609462
  0
LWPOLYLINE
  5
CB
330
17
100
AcDbEntity
  8
ROADS
100
AcDbPolyline
 90
2
 70
0
 10
635337.1261174695
 20
4844499.8897427255
 10
635582.7000484441
 20
4844525.817957171
  0
LWPOLYLINE
  5
CC
330
17
100
AcDbEntity
  8
ROADS
100
AcDbPolyline
 90
4
 70
0
 10
635511.7183445358
 20
4844645.153267054
 10
635360.508268603
 20
4844589.694840329
 10
635336.520970466
 20
4844555.240577683
 10
635337.1261174695
 20
4844499.8897427255
  0
LWPOLYLINE
  5
CD
330
17
100
AcDbEntity
  8
ROADS
100
AcDbPolyline
 90
3
 70
0
 10
635377.9698707917
 20
4844744.7314145705
 10
635402.0538663428
 20
4844672.988232632
 10
635315.7982828714
 20
4844629.91186239
  0
LWPOLYLINE
  5
CE
330
17
100
AcDbEntity
  8
ROADS
100
AcDbPolyline
 90
2
 70
0
 10
635511.7183445358
 20
4844645.153267054
 10
635466.7139062717
 20
4844775.201779956
  0
LWPOLYLINE
  5
CF
330
17
100
AcDbEntity
  8
ROADS
100
AcDbPolyline
 90
2
 70
0
 10
635211.4006285295
 20
4844690.815020624
 10
635377.9698707917
 20
4844744.7314145705
  0
LWPOLYLINE
  5
D0
330
17
100
AcDbEntity
  8
ROADS
100
AcDbPolyline
 90
2
 70
0
 10
636019.4163041203
 20
4844165.681540296
 10
636106.5298732016
 20
4844201.26374465
  0
LWPOLYLINE
  5
D1
330
17
100
AcDbEntity
  8
ROADS
100
AcDbPolyline
 90
2
 70
0
 10
636106.5298732016
 20
4844201.26374465
 10
636211.7872421918
 20
4844252.85586079
  0
LWPOLYLINE
  5
D2
330
17
100
AcDbEntity
  8
ROADS
100
AcDbPolyline
 90
2
 70
0
 10
636106.5298732016
 20
4844201.26374465
 10
636082.3719868765
 20
4844282.338600327
  0
LWPOLYLINE
  5
D3
330
17
100
AcDbEntity
  8
ROADS
100
AcDbPolyline
 90
2
 70
0
 10
636082.3719868765
 20
4844282.338600327
 10
636135.8748850198
 20
4844304.812196492
  0
LWPOLYLINE
  5
D4
330
17
100
AcDbEntity
  8
ROADS
100
AcDbPolyline
 90
2
 70
0
 10
636211.7872421918
 20
4844252.85586079
 10
636135.8274601353
 20
4844486.839524117
  0
LWPOLYLINE
  5
D5
330
17
100
AcDbEntity
  8
ROADS
100
AcDbPolyline
 90
2
 70
0
 10
636135.8274601353
 20
4844486.839524117
 10
636325.1862055348
 20
4844547.275131467
  0
LWPOLYLINE
  5
D6
330
17
100
AcDbEntity
  8
ROADS
100
AcDbPolyline
 90
2
 70
0
 10
636135.8274601353
 20
4844486.839524117
 10
636097.1852130175
 20
4844622.154952772
  0
LWPOLYLINE
  5
D7
330
17
100
AcDbEntity
  8
ROADS
100
AcDbPolyline
 90
2
 70
0
 10
636097.1852130175
 20
4844622.154952772
 10
636288.3086160049
 20
4844681.621492252
  0
LWPOLYLINE
  5
D8
330
17
100
AcDbEntity
  8
ROADS
100
AcDbPolyline
 90
2
 70
0
 10
636288.3086160049
 20
4844681.621492252
 10
636260.7450842485
 20
4844785.132703597
  0
LWPOLYLINE
  5
D9
330
17
100
AcDbEntity
  8
ROADS
100
AcDbPolyline
 90
2
 70
0
 10
636097.1852130175
 20
4844622.154952772
 10
636029.4204285936
 20
4844867.433331067
  0
LWPOLYLINE
  5
DA
330
17
100
AcDbEntity
  8
ROADS
100
AcDbPolyline
 90
3
 70
0
 10
636466.0086990863
 20
4844222.215418286
 10
636556.1150850012
 20
4844290.860844586
 10
636645.4541679532
 20
4844323.726180618
  0
LWPOLYLINE
  5
DB
330
17
100
AcDbEntity
  8
ROADS
100
AcDbPolyline
 90
2
 70
0
 10
636645.4541679532
 20
4844323.726180618
 10
636618.8933301108
 20
4844407.157868363
  0
LWPOLYLINE
  5
DC
330
17
100
AcDbEntity
  8
ROADS
100
AcDbPolyline
 90
3
 70
0
 10
636466.0086990863
 20
4844222.215418286
 10
636382.9129439273
 20
4844368.942251936
 10
636325.1862055348
 20
4844547.275131467
  0
LWPOLYLINE
  5
DD
330
17
100
AcDbEntity
  8
ROADS
100
AcDbPolyline
 90
2
 70
0
 10
636618.8933301108
 20
4844407.157868363
 10
636713.3482631919
 20
4844437.295611921
  0
LWPOLYLINE
  5
DE
330
17
100
AcDbEntity
  8
ROADS
100
AcDbPolyline
 90
2
 70
0
 10
636618.8933301108
 20
4844407.157868363
 10
636553.4586908126
 20
4844609.415476748
  0
LWPOLYLINE
  5
DF
330
17
100
AcDbEntity
  8
ROADS
100
AcDbPolyline
 90
2
 70
0
 10
636325.1862055348
 20
4844547.275131467
 10
636553.4586908126
 20
4844609.415476748
  0
LWPOLYLINE
  5
E0
330
17
100
AcDbEntity
  8
ROADS
100
AcDbPolyline
 90
2
 70
0
 10
636553.4586908126
 20
4844609.415476748
 10
636509.2313750909
 20
4844752.6276541585
  0
LWPOLYLINE
  5
E1
330
17
100
AcDbEntity
  8
ROADS
100
AcDbPolyline
 90
2
 70
0
 10
636288.3086160049
 20
4844681.621492252
 10
636509.2313750909
 20
4844752.6276541585
  0
LWPOLYLINE
  5
E2
330
17
100
AcDbEntity
  8
ROADS
100
AcDbPolyline
 90
2
 70
0
 10
636509.2313750909
 20
4844752.6276541585
 10
636703.4305793378
 20
4844815.08729653
  0
LWPOLYLINE
  5
E3
330
17
100
AcDbEntity
  8
ROADS
100
AcDbPolyline
 90
2
 70
0
 10
636509.2313750909
 20
4844752.6276541585
 10
636476.1675934669
 20
4844856.040335512
  0
LWPOLYLINE
  5
E4
330
17
100
AcDbEntity
  8
ROADS
100
AcDbPolyline
 90
6
 70
0
 10
635703.743434909
 20
4844156.460006086
 10
635631.3276552792
 20
4844213.656041221
 10
635759.5427214012
 20
4844395.506144825
 10
635794.2171476034
 20
4844417.137792365
 10
635806.1707558483
 20
4844412.853824555
 10
635830.4352118069
 20
4844298.275025241
  0
LWPOLYLINE
  5
E5
330
17
100
AcDbEntity
  8
ROADS
100
AcDbPolyline
 90
3
 70
0
 10
635830.4352118069
 20
4844298.275025241
 10
636053.4512908403
 20
4844362.329123075
 10
636082.3719868765
 20
4844282.338600327
  0
LWPOLYLINE
  5
E6
330
17
100
AcDbEntity
  8
ROADS
100
AcDbPolyline
 90
2
 70
0
 10
635582.7000484441
 20
4844525.817957171
 10
635745.2486780423
 20
4844543.802380527
  0
LWPOLYLINE
  5
E7
330
17
100
AcDbEntity
  8
ROADS
100
AcDbPolyline
 90
3
 70
0
 10
635745.2486780423
 20
4844543.802380527
 10
635965.1659154145
 20
4844581.259171288
 10
636097.1852130175
 20
4844622.154952772
  0
LWPOLYLINE
  5
E8
330
17
100
AcDbEntity
  8
ROADS
100
AcDbPolyline
 90
2
 70
0
 10
635749.4865315496
 20
4844852.366192613
 10
635785.4851378952
 20
4844825.222574471
  0
LWPOLYLINE
  5
E9
330
17
100
AcDbEntity
  8
ROADS
100
AcDbPolyline
 90
3
 70
0
 10
635705.4134802001
 20
4844861.32401924
 10
635740.1944066308
 20
4844839.679841872
 10
635749.4865315496
 20
4844852.366192613
  0
LWPOLYLINE
  5
EA
330
17
100
AcDbEntity
  8
ROADS
100
AcDbPolyline
 90
2
 70
0
 10
635749.4865315496
 20
4844852.366192613
 10
635784.9315033141
 20
4844904.015976765
  0
LWPOLYLINE
  5
EB
330
17
100
AcDbEntity
  8
ROADS
100
AcDbPolyline
 90
2
 70
0
 10
635784.9315033141
 20
4844904.015976765
 10
635824.9196661978
 20
4844876.530063693
  0
LWPOLYLINE
  5
EC
330
17
100
AcDbEntity
  8
ROADS
100
AcDbPolyline
 90
2
 70
0
 10
635784.9315033141
 20
4844904.015976765
 10
635813.3692544953
 20
4844955.091350919
  0
LWPOLYLINE
  5
ED
330
17
100
AcDbEntity
  8
ROADS
100
AcDbPolyline
 90
2
 70
0
 10
635860.4023633116
 20
4844927.3669732995
 10
635813.3692544953
 20
4844955.091350919
  0
LWPOLYLINE
  5
EE
330
17
100
AcDbEntity
  8
ROADS
100
AcDbPolyline
 90
2
 70
0
 10
635211.4006285295
 20
4844690.815020624
 10
635181.157036943
 20
4844778.856043508
  0
LWPOLYLINE
  5
EF
330
17
100
AcDbEntity
  8
ROADS
100
AcDbPolyline
 90
3
 70
0
 10
635705.4134802001
 20
4844861.32401924
 10
635569.0225547645
 20
4844679.220718248
 10
635511.7183445358
 20
4844645.153267054
  0
LWPOLYLINE
  5
F0
330
17
100
AcDbEntity
  8
ROADS
100
AcDbPolyline
 90
2
 70
0
 10
635377.9698707917
 20
4844744.7314145705
 10
635466.7139062717
 20
4844775.201779956
  0
LWPOLYLINE
  5
F1
330
17
100
AcDbEntity
  8
ROADS
100
AcDbPolyline
 90
3
 70
0
 10
635323.4805597537
 20
4844916.757767282
 10
635349.6085821775
 20
4844834.806732546
 10
635181.157036943
 20
4844778.856043508
  0
LWPOLYLINE
  5
F2
330
17
100
AcDbEntity
  8
ROADS
100
AcDbPolyline
 90
3
 70
0
 10
635466.7139062717
 20
4844775.201779956
 10
635436.5029818307
 20
4844866.793762685
 10
635444.6956629319
 20
4844929.483541815
  0
LWPOLYLINE
  5
F3
330
17
100
AcDbEntity
  8
ROADS
100
AcDbPolyline
 90
2
 70
0
 10
635223.3807143198
 20
4844884.568626032
 10
635323.4805597537
 20
4844916.757767282
  0
LWPOLYLINE
  5
F4
330
17
100
AcDbEntity
  8
ROADS
100
AcDbPolyline
 90
2
 70
0
 10
635223.3807143198
 20
4844884.568626032
 10
635199.3264111872
 20
4844955.885256097
  0
LWPOLYLINE
  5
F5
330
17
100
AcDbEntity
  8
ROADS
100
AcDbPolyline
 90
2
 70
0
 10
635323.4805597537
 20
4844916.757767282
 10
635380.7487341694
 20
4844934.696195723
  0
LWPOLYLINE
  5
F6
330
17
100
AcDbEntity
  8
ROADS
100
AcDbPolyline
 90
6
 70
0
 10
635682.6488830178
 20
4845005.014444551
 10
635695.7094186832
 20
4844960.08997903
 10
635662.3865193535
 20
4844903.25566979
 10
635547.5527770765
 20
4844858.722661905
 10
635530.409232253
 20
4844868.8881571805
 10
635507.4541339129
 20
4844946.770327243
  0
LWPOLYLINE
  5
F7
330
17
100
AcDbEntity
  8
ROADS
100
AcDbPolyline
 90
2
 70
0
 10
635380.7487341694
 20
4844934.696195723
 10
635444.6956629319
 20
4844929.483541815
  0
LWPOLYLINE
  5
F8
330
17
100
AcDbEntity
  8
ROADS
100
AcDbPolyline
 90
2
 70
0
 10
636260.7450842485
 20
4844785.132703597
 10
636237.8813282839
 20
4844870.727391
  0
LWPOLYLINE
  5
F9
330
17
100
AcDbEntity
  8
ROADS
100
AcDbPolyline
 90
3
 70
0
 10
636260.7450842485
 20
4844785.132703597
 10
636170.4512120225
 20
4844759.494637362
 10
636130.3208855571
 20
4844897.783372438
  0
LWPOLYLINE
  5
FA
330
17
100
AcDbEntity
  8
ROADS
100
AcDbPolyline
 90
3
 70
0
 10
636237.8813282839
 20
4844870.727391
 10
636356.8709800487
 20
4844909.886254035
 10
636383.2597189848
 20
4844826.354544449
  0
LWPOLYLINE
  5
FB
330
17
100
AcDbEntity
  8
ROADS
100
AcDbPolyline
 90
2
 70
0
 10
636029.4204285936
 20
4844867.433331067
 10
636130.3208855571
 20
4844897.783372438
  0
LWPOLYLINE
  5
FC
330
17
100
AcDbEntity
  8
ROADS
100
AcDbPolyline
 90
3
 70
0
 10
636185.4187985085
 20
4844916.782639265
 10
636224.1776564025
 20
4844928.690451347
 10
636237.8813282839
 20
4844870.727391
  0
LWPOLYLINE
  5
FD
330
17
100
AcDbEntity
  8
ROADS
100
AcDbPolyline
 90
2
 70
0
 10
636130.3208855571
 20
4844897.783372438
 10
636185.4187985085
 20
4844916.782639265
  0
LWPOLYLINE
  5
FE
330
17
100
AcDbEntity
  8
ROADS
100
AcDbPolyline
 90
2
 70
0
 10
636029.4204285936
 20
4844867.433331067
 10
635997.5892588267
 20
4844982.389692859
  0
LWPOLYLINE
  5
FF
330
17
100
AcDbEntity
  8
ROADS
100
AcDbPolyline
 90
2
 70
0
 10
636185.4187985085
 20
4844916.782639265
 10
636157.9119976015
 20
4845003.29431463
  0
LWPOLYLINE
  5
100
330
17
100
AcDbEntity
  8
ROADS
100
AcDbPolyline
 90
2
 70
0
 10
636157.9119976015
 20
4845003.29431463
 10
636196.2036727972
 20
4845014.98865805
  0
LWPOLYLINE
  5
101
330
17
100
AcDbEntity
  8
ROADS
100
AcDbPolyline
 90
2
 70
0
 10
635997.5892588267
 20
4844982.389692859
 10
636065.3702582996
 20
4845046.62361798
  0
LWPOLYLINE
  5
102
330
17
100
AcDbEntity
  8
ROADS
100
AcDbPolyline
 90
2
 70
0
 10
636260.7450842485
 20
4844785.132703597
 10
636383.2597189848
 20
4844826.354544449
  0
LWPOLYLINE
  5
103
330
17
100
AcDbEntity
  8
ROADS
100
AcDbPolyline
 90
2
 70
0
 10
636383.2597189848
 20
4844826.354544449
 10
636476.1675934669
 20
4844856.040335512
  0
LWPOLYLINE
  5
104
330
17
100
AcDbEntity
  8
ROADS
100
AcDbPolyline
 90
2
 70
0
 10
636476.1675934669
 20
4844856.040335512
 10
636406.4869432683
 20
4845079.803826858
  0
LWPOLYLINE
  5
105
330
17
100
AcDbEntity
  8
ROADS
100
AcDbPolyline
 90
2
 70
0
 10
636703.4305793378
 20
4844815.08729653
 10
636600.9192049564
 20
4845143.331957141
  0
LWPOLYLINE
  5
106
330
17
100
AcDbEntity
  8
ROADS
100
AcDbPolyline
 90
2
 70
0
 10
636569.7169465239
 20
4844898.738931035
 10
636493.2444979288
 20
4845107.377141776
  0
LWPOLYLINE
  5
107
330
17
100
AcDbEntity
  8
ROADS
100
AcDbPolyline
 90
2
 70
0
 10
636406.4869432683
 20
4845079.803826858
 10
636493.2444979288
 20
4845107.377141776
  0
LWPOLYLINE
  5
108
330
17
100
AcDbEntity
  8
ROADS
100
AcDbPolyline
 90
2
 70
0
 10
636493.2444979288
 20
4845107.377141776
 10
636600.9192049564
 20
4845143.331957141
  0
LWPOLYLINE
  5
109
330
17
100
AcDbEntity
  8
ROADS
100
AcDbPolyline
 90
2
 70
0
 10
636406.4869432683
 20
4845079.803826858
 10
636372.526249851
 20
4845191.9559897315
  0
LWPOLYLINE
  5
10A
330
17
100
AcDbEntity
  8
ROADS
100
AcDbPolyline
 90
2
 70
0
 10
636600.9192049564
 20
4845143.331957141
 10
636731.7137035516
 20
4845186.706081844
  0
LWPOLYLINE
  5
10B
330
17
100
AcDbEntity
  8
ROADS
100
AcDbPolyline
 90
2
 70
0
 10
636277.3569159177
 20
4845163.668292557
 10
636372.526249851
 20
4845191.9559897315
  0
LWPOLYLINE
  5
10C
330
17
100
AcDbEntity
  8
ROADS
100
AcDbPolyline
 90
2
 70
0
 10
635846.0112596508
 20
4845093.93408675
 10
635705.4134802001
 20
4844861.32401924
  0
LWPOLYLINE
  5
10D
330
17
100
AcDbEntity
  8
ROADS
100
AcDbPolyline
 90
2
 70
0
 10
635813.3692544953
 20
4844955.091350919
 10
635845.1193848259
 20
4845005.940687204
  0
LWPOLYLINE
  5
10E
330
17
100
AcDbEntity
  8
ROADS
100
AcDbPolyline
 90
4
 70
0
 10
635845.1193848259
 20
4845005.940687204
 10
635893.914269774
 20
4844977.13311662
 10
635934.392849666
 20
4845042.691802932
 10
635916.9602407874
 20
4845110.960197801
  0
LWPOLYLINE
  5
10F
330
17
100
AcDbEntity
  8
ROADS
100
AcDbPolyline
 90
3
 70
0
 10
635845.1193848259
 20
4845005.940687204
 10
635880.1111402949
 20
4845063.674833098
 10
635873.4760390569
 20
4845082.536861187
  0
LWPOLYLINE
  5
110
330
17
100
AcDbEntity
  8
ROADS
100
AcDbPolyline
 90
3
 70
0
 10
635682.6488830178
 20
4845005.014444551
 10
635733.268850161
 20
4845029.12107597
 10
635769.0603697556
 20
4845083.667905864
  0
LWPOLYLINE
  5
111
330
17
100
AcDbEntity
  8
ROADS
100
AcDbPolyline
 90
2
 70
0
 10
635873.4760390569
 20
4845082.536861187
 10
635846.0112596508
 20
4845093.93408675
  0
LWPOLYLINE
  5
112
330
17
100
AcDbEntity
  8
ROADS
100
AcDbPolyline
 90
2
 70
0
 10
635916.9602407874
 20
4845110.960197801
 10
635873.4760390569
 20
4845082.536861187
  0
LWPOLYLINE
  5
113
330
17
100
AcDbEntity
  8
ROADS
100
AcDbPolyline
 90
7
 70
0
 10
635682.6488830178
 20
4845005.014444551
 10
635627.8099313509
 20
4845102.394055423
 10
635591.5328190061
 20
4845208.928522616
 10
635597.0209819272
 20
4845228.883636908
 10
635682.5421922586
 20
4845237.4038721165
 10
635712.8207705414
 20
4845126.67340029
 10
635769.0603697556
 20
4845083.667905864
  0
LWPOLYLINE
  5
114
330
17
100
AcDbEntity
  8
ROADS
100
AcDbPolyline
 90
2
 70
0
 10
635916.9602407874
 20
4845110.960197801
 10
635898.6252313999
 20
4845176.207980065
  0
LWPOLYLINE
  5
115
330
17
100
AcDbEntity
  8
ROADS
100
AcDbPolyline
 90
2
 70
0
 10
635978.8275948558
 20
4845052.588210524
 10
635921.2969932999
 20
4845264.035239325
  0
LWPOLYLINE
  5
116
330
17
100
AcDbEntity
  8
ROADS
100
AcDbPolyline
 90
2
 70
0
 10
635997.5892588267
 20
4844982.389692859
 10
635978.8275948558
 20
4845052.588210524
  0
LWPOLYLINE
  5
117
330
17
100
AcDbEntity
  8
ROADS
100
AcDbPolyline
 90
3
 70
0
 10
636065.3702582996
 20
4845046.62361798
 10
636104.6068067498
 20
4844992.328207404
 10
636157.9119976015
 20
4845003.29431463
  0
LWPOLYLINE
  5
118
330
17
100
AcDbEntity
  8
ROADS
100
AcDbPolyline
 90
2
 70
0
 10
636065.3702582996
 20
4845046.62361798
 10
636113.2963387979
 20
4845116.49957503
  0
LWPOLYLINE
  5
119
330
17
100
AcDbEntity
  8
ROADS
100
AcDbPolyline
 90
2
 70
0
 10
636113.2963387979
 20
4845116.49957503
 10
636277.3569159177
 20
4845163.668292557
  0
LWPOLYLINE
  5
11A
330
17
100
AcDbEntity
  8
ROADS
100
AcDbPolyline
 90
2
 70
0
 10
636113.2963387979
 20
4845116.49957503
 10
636227.7398695664
 20
4845313.593291568
  0
LWPOLYLINE
  5
11B
330
17
100
AcDbEntity
  8
ROADS
100
AcDbPolyline
 90
2
 70
0
 10
636227.7398695664
 20
4845313.593291568
 10
636277.3569159177
 20
4845163.668292557
  0
LWPOLYLINE
  5
11C
330
17
100
AcDbEntity
  8
ROADS
100
AcDbPolyline
 90
2
 70
0
 10
636227.7398695664
 20
4845313.593291568
 10
636231.6586892306
 20
4845352.668735993
  0
LWPOLYLINE
  5
11D
330
17
100
AcDbEntity
  8
ROADS
100
AcDbPolyline
 90
3
 70
0
 10
635921.2969932999
 20
4845264.035239325
 10
636037.7572002326
 20
4845301.651270387
 10
636125.8289084075
 20
4845442.764007083
  0
LWPOLYLINE
  5
11E
330
17
100
AcDbEntity
  8
ROADS
100
AcDbPolyline
 90
2
 70
0
 10
636284.2579167949
 20
4845433.216342769
 10
636277.3940711499
 20
4845495.6906433785
  0
LWPOLYLINE
  5
11F
330
17
100
AcDbEntity
  8
ROADS
100
AcDbPolyline
 90
3
 70
0
 10
636125.8289084075
 20
4845442.764007083
 10
636158.289924615
 20
4845500.358410053
 10
636161.3558756849
 20
4845543.728788184
  0
LWPOLYLINE
  5
120
330
17
100
AcDbEntity
  8
ROADS
100
AcDbPolyline
 90
4
 70
0
 10
635921.2969932999
 20
4845264.035239325
 10
635869.0700647713
 20
4845248.9202556
 10
635847.0113414478
 20
4845223.944648097
 10
635846.0112596508
 20
4845093.93408675
  0
LWPOLYLINE
  5
121
330
17
100
AcDbEntity
  8
ROADS
100
AcDbPolyline
 90
3
 70
0
 10
635769.0603697556
 20
4845083.667905864
 10
635794.4538080641
 20
4845143.580949499
 10
635749.8514404153
 20
4845319.840846901
  0
LWPOLYLINE
  5
122
330
17
100
AcDbEntity
  8
ROADS
100
AcDbPolyline
 90
2
 70
0
 10
635921.2969932999
 20
4845264.035239325
 10
635895.4044364837
 20
4845361.583022284
  0
LWPOLYLINE
  5
123
330
17
100
AcDbEntity
  8
ROADS
100
AcDbPolyline
 90
2
 70
0
 10
635895.4044364837
 20
4845361.583022284
 10
635749.8514404153
 20
4845319.840846901
  0
LWPOLYLINE
  5
124
330
17
100
AcDbEntity
  8
ROADS
100
AcDbPolyline
 90
3
 70
0
 10
635634.0339828327
 20
4845409.602620527
 10
635715.452774636
 20
4845432.595889411
 10
635749.8514404153
 20
4845319.840846901
  0
LWPOLYLINE
  5
125
330
17
100
AcDbEntity
  8
ROADS
100
AcDbPolyline
 90
2
 70
0
 10
635895.4044364837
 20
4845361.583022284
 10
635849.1715139339
 20
4845529.574691942
  0
LWPOLYLINE
  5
126
330
17
100
AcDbEntity
  8
ROADS
100
AcDbPolyline
 90
4
 70
0
 10
635895.4044364837
 20
4845361.583022284
 10
635976.5858041854
 20
4845383.055862797
 10
635999.286873358
 20
4845406.46898297
 10
635958.6983937067
 20
4845590.75334674
  0
LWPOLYLINE
  5
127
330
17
100
AcDbEntity
  8
ROADS
100
AcDbPolyline
 90
3
 70
0
 10
635849.1715139339
 20
4845529.574691942
 10
635578.1989249331
 20
4845456.886742199
 10
635563.8759349085
 20
4845483.270695999
  0
LWPOLYLINE
  5
128
330
17
100
AcDbEntity
  8
ROADS
100
AcDbPolyline
 90
2
 70
0
 10
635849.1715139339
 20
4845529.574691942
 10
635815.8634970593
 20
4845655.769679822
  0
LWPOLYLINE
  5
129
330
17
100
AcDbEntity
  8
ROADS
100
AcDbPolyline
 90
2
 70
0
 10
635607.1421948345
 20
4845586.848181869
 10
635815.8634970593
 20
4845655.769679822
  0
LWPOLYLINE
  5
12A
330
17
100
AcDbEntity
  8
ROADS
100
AcDbPolyline
 90
2
 70
0
 10
637266.0814512542
 20
4844307.288336508
 10
637384.2807513941
 20
4844345.4367113365
  0
LWPOLYLINE
  5
12B
330
17
100
AcDbEntity
  8
ROADS
100
AcDbPolyline
 90
2
 70
0
 10
637384.2807513941
 20
4844345.4367113365
 10
637499.6839050945
 20
4844382.531393293
  0
LWPOLYLINE
  5
12C
330
17
100
AcDbEntity
  8
ROADS
100
AcDbPolyline
 90
2
 70
0
 10
637499.6839050945
 20
4844382.531393293
 10
637470.0401936537
 20
4844473.006130952
  0
LWPOLYLINE
  5
12D
330
17
100
AcDbEntity
  8
ROADS
100
AcDbPolyline
 90
2
 70
0
 10
637266.0814512542
 20
4844307.288336508
 10
637176.7938943371
 20
4844584.702430583
  0
LWPOLYLINE
  5
12E
330
17
100
AcDbEntity
  8
ROADS
100
AcDbPolyline
 90
3
 70
0
 10
637470.0401936537
 20
4844473.006130952
 10
637525.2058344586
 20
4844478.004323369
 10
637591.9035488698
 20
4844419.205346854
  0
LWPOLYLINE
  5
12F
330
17
100
AcDbEntity
  8
ROADS
100
AcDbPolyline
 90
2
 70
0
 10
637384.2807513941
 20
4844345.4367113365
 10
637292.71388059
 20
4844620.809439057
  0
LWPOLYLINE
  5
130
330
17
100
AcDbEntity
  8
ROADS
100
AcDbPolyline
 90
2
 70
0
 10
637470.0401936537
 20
4844473.006130952
 10
637423.7470017811
 20
4844623.184961753
  0
LWPOLYLINE
  5
131
330
17
100
AcDbEntity
  8
ROADS
100
AcDbPolyline
 90
2
 70
0
 10
637608.5351527652
 20
4844584.522869923
 10
637543.2855644774
 20
4844563.340587529
  0
LWPOLYLINE
  5
132
330
17
100
AcDbEntity
  8
ROADS
100
AcDbPolyline
 90
2
 70
0
 10
637176.7938943371
 20
4844584.702430583
 10
637292.71388059
 20
4844620.809439057
  0
LWPOLYLINE
  5
133
330
17
100
AcDbEntity
  8
ROADS
100
AcDbPolyline
 90
2
 70
0
 10
637608.5351527652
 20
4844584.522869923
 10
637579.6774420796
 20
4844673.009665068
  0
LWPOLYLINE
  5
134
330
17
100
AcDbEntity
  8
ROADS
100
AcDbPolyline
 90
2
 70
0
 10
637025.6249985461
 20
4844361.937193964
 10
637000.7786121562
 20
4844439.495474784
  0
LWPOLYLINE
  5
135
330
17
100
AcDbEntity
  8
ROADS
100
AcDbPolyline
 90
2
 70
0
 10
636733.9240935525
 20
4844374.659437413
 10
636713.3482631919
 20
4844437.295611921
  0
LWPOLYLINE
  5
136
330
17
100
AcDbEntity
  8
ROADS
100
AcDbPolyline
 90
2
 70
0
 10
636932.465006213
 20
4844332.245929113
 10
636881.6380355384
 20
4844491.345269778
  0
LWPOLYLINE
  5
137
330
17
100
AcDbEntity
  8
ROADS
100
AcDbPolyline
 90
4
 70
0
 10
637093.0324493903
 20
4844557.181445468
 10
637145.4753828538
 20
4844395.112996189
 10
637142.1004692791
 20
4844364.048041727
 10
637167.4013740271
 20
4844318.776921178
  0
LWPOLYLINE
  5
138
330
17
100
AcDbEntity
  8
ROADS
100
AcDbPolyline
 90
2
 70
0
 10
636713.3482631919
 20
4844437.295611921
 10
636790.708387916
 20
4844462.698454437
  0
LWPOLYLINE
  5
139
330
17
100
AcDbEntity
  8
ROADS
100
AcDbPolyline
 90
2
 70
0
 10
636790.708387916
 20
4844462.698454437
 10
636881.6380355384
 20
4844491.345269778
  0
LWPOLYLINE
  5
13A
330
17
100
AcDbEntity
  8
ROADS
100
AcDbPolyline
 90
2
 70
0
 10
636881.6380355384
 20
4844491.345269778
 10
637012.3904206264
 20
4844532.692226253
  0
LWPOLYLINE
  5
13B
330
17
100
AcDbEntity
  8
ROADS
100
AcDbPolyline
 90
2
 70
0
 10
636881.6380355384
 20
4844491.345269778
 10
636866.2343649918
 20
4844541.071928061
  0
LWPOLYLINE
  5
13C
330
17
100
AcDbEntity
  8
ROADS
100
AcDbPolyline
 90
2
 70
0
 10
637058.4301054233
 20
4844544.983871775
 10
637093.0324493903
 20
4844557.181445468
  0
LWPOLYLINE
  5
13D
330
17
100
AcDbEntity
  8
ROADS
100
AcDbPolyline
 90
5
 70
0
 10
636713.3482631919
 20
4844437.295611921
 10
636637.012660834
 20
4844668.934569992
 10
636644.3910817794
 20
4844686.070704544
 10
636713.9980756411
 20
4844701.332310584
 10
636790.708387916
 20
4844462.698454437
  0
LWPOLYLINE
  5
13E
330
17
100
AcDbEntity
  8
ROADS
100
AcDbPolyline
 90
2
 70
0
 10
637751.5151747647
 20
4844138.061605433
 10
637890.3160472752
 20
4844184.58171645
  0
LWPOLYLINE
  5
13F
330
17
100
AcDbEntity
  8
ROADS
100
AcDbPolyline
 90
4
 70
0
 10
637751.5151747647
 20
4844138.061605433
 10
637725.0900504291
 20
4844216.59158063
 10
637661.765827812
 20
4844206.444249666
 10
637634.0805507697
 20
4844288.952756854
  0
LWPOLYLINE
  5
140
330
17
100
AcDbEntity
  8
ROADS
100
AcDbPolyline
 90
2
 70
0
 10
637634.0805507697
 20
4844288.952756854
 10
637711.8651684804
 20
4844301.362099989
  0
LWPOLYLINE
  5
141
330
17
100
AcDbEntity
  8
ROADS
100
AcDbPolyline
 90
2
 70
0
 10
637634.0805507697
 20
4844288.952756854
 10
637591.9035488698
 20
4844419.205346854
  0
LWPOLYLINE
  5
142
330
17
100
AcDbEntity
  8
ROADS
100
AcDbPolyline
 90
2
 70
0
 10
637591.9035488698
 20
4844419.205346854
 10
637681.5192942482
 20
4844385.821627398
  0
LWPOLYLINE
  5
143
330
17
100
AcDbEntity
  8
ROADS
100
AcDbPolyline
 90
2
 70
0
 10
637965.5921946864
 20
4844393.377162344
 10
638103.7127280158
 20
4844437.788890762
  0
LWPOLYLINE
  5
144
330
17
100
AcDbEntity
  8
ROADS
100
AcDbPolyline
 90
2
 70
0
 10
637653.6881590884
 20
4844476.328232064
 10
637608.5351527652
 20
4844584.522869923
  0
LWPOLYLINE
  5
145
330
17
100
AcDbEntity
  8
ROADS
100
AcDbPolyline
 90
2
 70
0
 10
638103.7127280158
 20
4844437.788890762
 10
637985.4477222739
 20
4844809.369906136
  0
LWPOLYLINE
  5
146
330
17
100
AcDbEntity
  8
ROADS
100
AcDbPolyline
 90
3
 70
0
 10
637890.3160472752
 20
4844184.58171645
 10
637630.9475803882
 20
4844999.967430867
 10
637579.6465926184
 20
4845092.048175577
  0
LWPOLYLINE
  5
147
330
17
100
AcDbEntity
  8
ROADS
100
AcDbPolyline
 90
3
 70
0
 10
637985.4477222739
 20
4844809.369906136
 10
637894.6037607732
 20
4845093.889958411
 10
637844.4418211884
 20
4845177.851622375
  0
LWPOLYLINE
  5
148
330
17
100
AcDbEntity
  8
ROADS
100
AcDbPolyline
 90
2
 70
0
 10
637292.71388059
 20
4844620.809439057
 10
637410.5171771506
 20
4844659.9488498
  0
LWPOLYLINE
  5
149
330
17
100
AcDbEntity
  8
ROADS
100
AcDbPolyline
 90
2
 70
0
 10
637423.7470017811
 20
4844623.184961753
 10
637410.5171771506
 20
4844659.9488498
  0
LWPOLYLINE
  5
14A
330
17
100
AcDbEntity
  8
ROADS
100
AcDbPolyline
 90
2
 70
0
 10
637423.7470017811
 20
4844623.184961753
 10
637579.6774420796
 20
4844673.009665068
  0
LWPOLYLINE
  5
14B
330
17
100
AcDbEntity
  8
ROADS
100
AcDbPolyline
 90
2
 70
0
 10
637147.4526872941
 20
4844679.181408936
 10
637235.6626933402
 20
4844719.784675655
  0
LWPOLYLINE
  5
14C
330
17
100
AcDbEntity
  8
ROADS
100
AcDbPolyline
 90
2
 70
0
 10
637235.6626933402
 20
4844719.784675655
 10
637274.5089751903
 20
4844697.48692515
  0
LWPOLYLINE
  5
14D
330
17
100
AcDbEntity
  8
ROADS
100
AcDbPolyline
 90
2
 70
0
 10
637579.6774420796
 20
4844673.009665068
 10
637550.8454911934
 20
4844763.497098068
  0
LWPOLYLINE
  5
14E
330
17
100
AcDbEntity
  8
ROADS
100
AcDbPolyline
 90
2
 70
0
 10
637410.5171771506
 20
4844659.9488498
 10
637364.5473338423
 20
4844806.129113515
  0
LWPOLYLINE
  5
14F
330
17
100
AcDbEntity
  8
ROADS
100
AcDbPolyline
 90
2
 70
0
 10
637235.6626933402
 20
4844719.784675655
 10
637255.9869239263
 20
4844757.158092126
  0
LWPOLYLINE
  5
150
330
17
100
AcDbEntity
  8
ROADS
100
AcDbPolyline
 90
2
 70
0
 10
637550.8454911934
 20
4844763.497098068
 10
637483.8624211266
 20
4844741.284303869
  0
LWPOLYLINE
  5
151
330
17
100
AcDbEntity
  8
ROADS
100
AcDbPolyline
 90
3
 70
0
 10
637255.9869239263
 20
4844757.158092126
 10
637275.1812689174
 20
4844777.507484699
 10
637364.5473338423
 20
4844806.129113515
  0
LWPOLYLINE
  5
152
330
17
100
AcDbEntity
  8
ROADS
100
AcDbPolyline
 90
2
 70
0
 10
637093.0324493903
 20
4844557.181445468
 10
637176.7938943371
 20
4844584.702430583
  0
LWPOLYLINE
  5
153
330
17
100
AcDbEntity
  8
ROADS
100
AcDbPolyline
 90
2
 70
0
 10
637176.7938943371
 20
4844584.702430583
 10
637147.4526872941
 20
4844679.181408936
  0
LWPOLYLINE
  5
154
330
17
100
AcDbEntity
  8
ROADS
100
AcDbPolyline
 90
2
 70
0
 10
636866.2343649918
 20
4844541.071928061
 10
636804.1482793611
 20
4844734.968526387
  0
LWPOLYLINE
  5
155
330
17
100
AcDbEntity
  8
ROADS
100
AcDbPolyline
 90
5
 70
0
 10
636866.2343649918
 20
4844541.071928061
 10
636954.081851631
 20
4844577.666696063
 10
636902.5872314895
 20
4844752.754382365
 10
636891.5156777562
 20
4844763.554916568
 10
636804.1482793611
 20
4844734.968526387
  0
LWPOLYLINE
  5
156
330
17
100
AcDbEntity
  8
ROADS
100
AcDbPolyline
 90
3
 70
0
 10
637093.0324493903
 20
4844557.181445468
 10
637024.7750560831
 20
4844794.9714605585
 10
637100.9752670522
 20
4844822.354589449
  0
LWPOLYLINE
  5
157
330
17
100
AcDbEntity
  8
ROADS
100
AcDbPolyline
 90
2
 70
0
 10
637147.4526872941
 20
4844679.181408936
 10
637100.9752670522
 20
4844822.354589449
  0
LWPOLYLINE
  5
158
330
17
100
AcDbEntity
  8
ROADS
100
AcDbPolyline
 90
2
 70
0
 10
636804.1482793611
 20
4844734.968526387
 10
636770.2548370847
 20
4844836.341093942
  0
LWPOLYLINE
  5
159
330
17
100
AcDbEntity
  8
ROADS
100
AcDbPolyline
 90
2
 70
0
 10
636703.4305793378
 20
4844815.08729653
 10
636770.2548370847
 20
4844836.341093942
  0
LWPOLYLINE
  5
15A
330
17
100
AcDbEntity
  8
ROADS
100
AcDbPolyline
 90
2
 70
0
 10
636770.2548370847
 20
4844836.341093942
 10
636833.7344913644
 20
4844856.949285719
  0
LWPOLYLINE
  5
15B
330
17
100
AcDbEntity
  8
ROADS
100
AcDbPolyline
 90
2
 70
0
 10
637100.9752670522
 20
4844822.354589449
 10
637065.5744273233
 20
4844931.415651399
  0
LWPOLYLINE
  5
15C
330
17
100
AcDbEntity
  8
ROADS
100
AcDbPolyline
 90
3
 70
0
 10
637550.8454911934
 20
4844763.497098068
 10
637521.0525718933
 20
4844848.508607717
 10
637459.67411083
 20
4844833.747963105
  0
LWPOLYLINE
  5
15D
330
17
100
AcDbEntity
  8
ROADS
100
AcDbPolyline
 90
2
 70
0
 10
637459.67411083
 20
4844833.747963105
 10
637364.5473338423
 20
4844806.129113515
  0
LWPOLYLINE
  5
15E
330
17
100
AcDbEntity
  8
ROADS
100
AcDbPolyline
 90
4
 70
0
 10
637255.9869239263
 20
4844757.158092126
 10
637233.6203973196
 20
4844773.753676053
 10
637211.6147838921
 20
4844846.361953045
 10
637335.9137836556
 20
4844892.617699726
  0
LWPOLYLINE
  5
15F
330
17
100
AcDbEntity
  8
ROADS
100
AcDbPolyline
 90
2
 70
0
 10
637364.5473338423
 20
4844806.129113515
 10
637335.9137836556
 20
4844892.617699726
  0
LWPOLYLINE
  5
160
330
17
100
AcDbEntity
  8
ROADS
100
AcDbPolyline
 90
2
 70
0
 10
637459.67411083
 20
4844833.747963105
 10
637430.4107459215
 20
4844925.800684857
  0
LWPOLYLINE
  5
161
330
17
100
AcDbEntity
  8
ROADS
100
AcDbPolyline
 90
2
 70
0
 10
637430.4107459215
 20
4844925.800684857
 10
637498.5029886758
 20
4844947.56655326
  0
LWPOLYLINE
  5
162
330
17
100
AcDbEntity
  8
ROADS
100
AcDbPolyline
 90
2
 70
0
 10
637430.4107459215
 20
4844925.800684857
 10
637416.2077506569
 20
4844970.078639346
  0
LWPOLYLINE
  5
163
330
17
100
AcDbEntity
  8
ROADS
100
AcDbPolyline
 90
2
 70
0
 10
637335.9137836556
 20
4844892.617699726
 10
637302.729385786
 20
4845006.026363259
  0
LWPOLYLINE
  5
164
330
17
100
AcDbEntity
  8
ROADS
100
AcDbPolyline
 90
2
 70
0
 10
637207.5264267526
 20
4844975.2998113
 10
637302.729385786
 20
4845006.026363259
  0
LWPOLYLINE
  5
165
330
17
100
AcDbEntity
  8
ROADS
100
AcDbPolyline
 90
2
 70
0
 10
637207.5264267526
 20
4844975.2998113
 10
637189.8308356153
 20
4845023.983903837
  0
LWPOLYLINE
  5
166
330
17
100
AcDbEntity
  8
ROADS
100
AcDbPolyline
 90
2
 70
0
 10
636833.7344913644
 20
4844856.949285719
 10
637012.5765858028
 20
4844914.182519222
  0
LWPOLYLINE
  5
167
330
17
100
AcDbEntity
  8
ROADS
100
AcDbPolyline
 90
2
 70
0
 10
637012.5765858028
 20
4844914.182519222
 10
637065.5744273233
 20
4844931.415651399
  0
LWPOLYLINE
  5
168
330
17
100
AcDbEntity
  8
ROADS
100
AcDbPolyline
 90
2
 70
0
 10
637065.5744273233
 20
4844931.415651399
 10
637207.5264267526
 20
4844975.2998113
  0
LWPOLYLINE
  5
169
330
17
100
AcDbEntity
  8
ROADS
100
AcDbPolyline
 90
2
 70
0
 10
637012.5765858028
 20
4844914.182519222
 10
636954.4098928552
 20
4845052.723042803
  0
LWPOLYLINE
  5
16A
330
17
100
AcDbEntity
  8
ROADS
100
AcDbPolyline
 90
2
 70
0
 10
636833.7344913644
 20
4844856.949285719
 10
636731.7137035516
 20
4845186.706081844
  0
LWPOLYLINE
  5
16B
330
17
100
AcDbEntity
  8
ROADS
100
AcDbPolyline
 90
3
 70
0
 10
636954.4098928552
 20
4845052.723042803
 10
637085.6023395238
 20
4845060.100077131
 10
637189.8308356153
 20
4845023.983903837
  0
LWPOLYLINE
  5
16C
330
17
100
AcDbEntity
  8
ROADS
100
AcDbPolyline
 90
2
 70
0
 10
636954.4098928552
 20
4845052.723042803
 10
636935.8528168498
 20
4845121.395322101
  0
LWPOLYLINE
  5
16D
330
17
100
AcDbEntity
  8
ROADS
100
AcDbPolyline
 90
2
 70
0
 10
637189.8308356153
 20
4845023.983903837
 10
637149.483299923
 20
4845153.268268913
  0
LWPOLYLINE
  5
16E
330
17
100
AcDbEntity
  8
ROADS
100
AcDbPolyline
 90
2
 70
0
 10
636935.8528168498
 20
4845121.395322101
 10
636938.5581696356
 20
4845158.448690034
  0
LWPOLYLINE
  5
16F
330
17
100
AcDbEntity
  8
ROADS
100
AcDbPolyline
 90
2
 70
0
 10
636938.5581696356
 20
4845158.448690034
 10
637149.483299923
 20
4845153.268268913
  0
LWPOLYLINE
  5
170
330
17
100
AcDbEntity
  8
ROADS
100
AcDbPolyline
 90
2
 70
0
 10
637302.729385786
 20
4845006.026363259
 10
637495.2477542682
 20
4845068.518862743
  0
LWPOLYLINE
  5
171
330
17
100
AcDbEntity
  8
ROADS
100
AcDbPolyline
 90
2
 70
0
 10
637302.729385786
 20
4845006.026363259
 10
637260.0627311391
 20
4845132.267502802
  0
LWPOLYLINE
  5
172
330
17
100
AcDbEntity
  8
ROADS
100
AcDbPolyline
 90
2
 70
0
 10
637495.2477542682
 20
4845068.518862743
 10
637579.6465926184
 20
4845092.048175577
  0
LWPOLYLINE
  5
173
330
17
100
AcDbEntity
  8
ROADS
100
AcDbPolyline
 90
2
 70
0
 10
637579.6465926184
 20
4845092.048175577
 10
637607.8540248291
 20
4845101.558786683
  0
LWPOLYLINE
  5
174
330
17
100
AcDbEntity
  8
ROADS
100
AcDbPolyline
 90
3
 70
0
 10
637495.2477542682
 20
4845068.518862743
 10
637481.5973125164
 20
4845111.276683339
 10
637404.8925667251
 20
4845195.812701902
  0
LWPOLYLINE
  5
175
330
17
100
AcDbEntity
  8
ROADS
100
AcDbPolyline
 90
2
 70
0
 10
637260.0627311391
 20
4845132.267502802
 10
637381.4255755756
 20
4845182.326551706
  0
LWPOLYLINE
  5
176
330
17
100
AcDbEntity
  8
ROADS
100
AcDbPolyline
 90
2
 70
0
 10
637260.0627311391
 20
4845132.267502802
 10
637230.873045987
 20
4845228.973908198
  0
LWPOLYLINE
  5
177
330
17
100
AcDbEntity
  8
ROADS
100
AcDbPolyline
 90
2
 70
0
 10
637381.4255755756
 20
4845182.326551706
 10
637404.8925667251
 20
4845195.812701902
  0
LWPOLYLINE
  5
178
330
17
100
AcDbEntity
  8
ROADS
100
AcDbPolyline
 90
3
 70
0
 10
637592.9587696807
 20
4845154.29601255
 10
637541.1428473858
 20
4845209.364953127
 10
637515.469168734
 20
4845288.413453059
  0
LWPOLYLINE
  5
179
330
17
100
AcDbEntity
  8
ROADS
100
AcDbPolyline
 90
2
 70
0
 10
637381.4255755756
 20
4845182.326551706
 10
637338.664571756
 20
4845268.707302666
  0
LWPOLYLINE
  5
17A
330
17
100
AcDbEntity
  8
ROADS
100
AcDbPolyline
 90
2
 70
0
 10
636935.8528168498
 20
4845121.395322101
 10
636894.6032854645
 20
4845238.66214985
  0
LWPOLYLINE
  5
17B
330
17
100
AcDbEntity
  8
ROADS
100
AcDbPolyline
 90
2
 70
0
 10
637149.483299923
 20
4845153.268268913
 10
637118.617745684
 20
4845252.7205488505
  0
LWPOLYLINE
  5
17C
330
17
100
AcDbEntity
  8
ROADS
100
AcDbPolyline
 90
2
 70
0
 10
636938.5581696356
 20
4845158.448690034
 10
636953.0913351858
 20
4845263.724451644
  0
LWPOLYLINE
  5
17D
330
17
100
AcDbEntity
  8
ROADS
100
AcDbPolyline
 90
2
 70
0
 10
636731.7137035516
 20
4845186.706081844
 10
636894.6032854645
 20
4845238.66214985
  0
LWPOLYLINE
  5
17E
330
17
100
AcDbEntity
  8
ROADS
100
AcDbPolyline
 90
2
 70
0
 10
636953.0913351858
 20
4845263.724451644
 10
637118.617745684
 20
4845252.7205488505
  0
LWPOLYLINE
  5
17F
330
17
100
AcDbEntity
  8
ROADS
100
AcDbPolyline
 90
2
 70
0
 10
636894.6032854645
 20
4845238.66214985
 10
636867.1932786237
 20
4845330.176191942
  0
LWPOLYLINE
  5
180
330
17
100
AcDbEntity
  8
ROADS
100
AcDbPolyline
 90
2
 70
0
 10
637118.617745684
 20
4845252.7205488505
 10
637099.070268823
 20
4845317.375549628
  0
LWPOLYLINE
  5
181
330
17
100
AcDbEntity
  8
ROADS
100
AcDbPolyline
 90
2
 70
0
 10
636953.0913351858
 20
4845263.724451644
 10
636968.5063328808
 20
4845341.011630753
  0
LWPOLYLINE
  5
182
330
17
100
AcDbEntity
  8
ROADS
100
AcDbPolyline
 90
2
 70
0
 10
637099.070268823
 20
4845317.375549628
 10
637195.0785509979
 20
4845338.116351403
  0
LWPOLYLINE
  5
183
330
17
100
AcDbEntity
  8
ROADS
100
AcDbPolyline
 90
2
 70
0
 10
636867.1932786237
 20
4845330.176191942
 10
636968.5063328808
 20
4845341.011630753
  0
LWPOLYLINE
  5
184
330
17
100
AcDbEntity
  8
ROADS
100
AcDbPolyline
 90
2
 70
0
 10
637230.873045987
 20
4845228.973908198
 10
637258.4672508963
 20
4845237.332311726
  0
LWPOLYLINE
  5
185
330
17
100
AcDbEntity
  8
ROADS
100
AcDbPolyline
 90
2
 70
0
 10
637404.8925667251
 20
4845195.812701902
 10
637515.469168734
 20
4845288.413453059
  0
LWPOLYLINE
  5
186
330
17
100
AcDbEntity
  8
ROADS
100
AcDbPolyline
 90
2
 70
0
 10
637230.873045987
 20
4845228.973908198
 10
637201.384915759
 20
4845321.2284832075
  0
LWPOLYLINE
  5
187
330
17
100
AcDbEntity
  8
ROADS
100
AcDbPolyline
 90
2
 70
0
 10
637515.469168734
 20
4845288.413453059
 10
637587.0850268898
 20
4845330.211069762
  0
LWPOLYLINE
  5
188
330
17
100
AcDbEntity
  8
ROADS
100
AcDbPolyline
 90
2
 70
0
 10
637338.664571756
 20
4845268.707302666
 10
637300.0773083263
 20
4845363.020338101
  0
LWPOLYLINE
  5
189
330
17
100
AcDbEntity
  8
ROADS
100
AcDbPolyline
 90
2
 70
0
 10
637201.384915759
 20
4845321.2284832075
 10
637195.0785509979
 20
4845338.116351403
  0
LWPOLYLINE
  5
18A
330
17
100
AcDbEntity
  8
ROADS
100
AcDbPolyline
 90
2
 70
0
 10
637201.384915759
 20
4845321.2284832075
 10
637300.0773083263
 20
4845363.020338101
  0
LWPOLYLINE
  5
18B
330
17
100
AcDbEntity
  8
ROADS
100
AcDbPolyline
 90
2
 70
0
 10
637338.664571756
 20
4845268.707302666
 10
637556.8345796746
 20
4845426.673323321
  0
LWPOLYLINE
  5
18C
330
17
100
AcDbEntity
  8
ROADS
100
AcDbPolyline
 90
2
 70
0
 10
637587.0850268898
 20
4845330.211069762
 10
637556.8345796746
 20
4845426.673323321
  0
LWPOLYLINE
  5
18D
330
17
100
AcDbEntity
  8
ROADS
100
AcDbPolyline
 90
2
 70
0
 10
637300.0773083263
 20
4845363.020338101
 10
637264.0628699835
 20
4845453.378573498
  0
LWPOLYLINE
  5
18E
330
17
100
AcDbEntity
  8
ROADS
100
AcDbPolyline
 90
2
 70
0
 10
638103.7127280158
 20
4844437.788890762
 10
638331.2452348396
 20
4844508.608903017
  0
LWPOLYLINE
  5
18F
330
17
100
AcDbEntity
  8
ROADS
100
AcDbPolyline
 90
2
 70
0
 10
638331.2452348396
 20
4844508.608903017
 10
638280.5312370072
 20
4844667.169876988
  0
LWPOLYLINE
  5
190
330
17
100
AcDbEntity
  8
ROADS
100
AcDbPolyline
 90
3
 70
0
 10
638421.7790461616
 20
4844676.265995986
 10
638440.5994584565
 20
4844565.5971341785
 10
638571.6644316727
 20
4844648.98000378
  0
LWPOLYLINE
  5
191
330
17
100
AcDbEntity
  8
ROADS
100
AcDbPolyline
 90
2
 70
0
 10
638280.5312370072
 20
4844667.169876988
 10
638412.3449344318
 20
4844707.098144721
  0
LWPOLYLINE
  5
192
330
17
100
AcDbEntity
  8
ROADS
100
AcDbPolyline
 90
2
 70
0
 10
638412.3449344318
 20
4844707.098144721
 10
638421.7790461616
 20
4844676.265995986
  0
LWPOLYLINE
  5
193
330
17
100
AcDbEntity
  8
ROADS
100
AcDbPolyline
 90
3
 70
0
 10
638421.7790461616
 20
4844676.265995986
 10
638548.7968242571
 20
4844741.574893184
 10
638525.7311246275
 20
4844807.163590112
  0
LWPOLYLINE
  5
194
330
17
100
AcDbEntity
  8
ROADS
100
AcDbPolyline
 90
2
 70
0
 10
638280.5312370072
 20
4844667.169876988
 10
638233.4081924747
 20
4844819.866260859
  0
LWPOLYLINE
  5
195
330
17
100
AcDbEntity
  8
ROADS
100
AcDbPolyline
 90
3
 70
0
 10
638412.3449344318
 20
4844707.098144721
 10
638393.3517323242
 20
4844768.760174174
 10
638508.2007224939
 20
4844801.845689924
  0
LWPOLYLINE
  5
196
330
17
100
AcDbEntity
  8
ROADS
100
AcDbPolyline
 90
2
 70
0
 10
638508.2007224939
 20
4844801.845689924
 10
638525.7311246275
 20
4844807.163590112
  0
LWPOLYLINE
  5
197
330
17
100
AcDbEntity
  8
ROADS
100
AcDbPolyline
 90
2
 70
0
 10
637985.4477222739
 20
4844809.369906136
 10
638213.3351241399
 20
4844882.5087932395
  0
LWPOLYLINE
  5
198
330
17
100
AcDbEntity
  8
ROADS
100
AcDbPolyline
 90
2
 70
0
 10
638660.0937487932
 20
4844708.588732042
 10
638742.0340232928
 20
4844764.078609264
  0
LWPOLYLINE
  5
199
330
17
100
AcDbEntity
  8
ROADS
100
AcDbPolyline
 90
3
 70
0
 10
638525.7311246275
 20
4844807.163590112
 10
638622.4088081077
 20
4844835.918719157
 10
638660.0937487932
 20
4844708.588732042
  0
LWPOLYLINE
  5
19A
330
17
100
AcDbEntity
  8
ROADS
100
AcDbPolyline
 90
2
 70
0
 10
638742.0340232928
 20
4844764.078609264
 10
638790.3513472321
 20
4844794.47633594
  0
LWPOLYLINE
  5
19B
330
17
100
AcDbEntity
  8
ROADS
100
AcDbPolyline
 90
2
 70
0
 10
638790.3513472321
 20
4844794.47633594
 10
638826.3839658997
 20
4844817.611951019
  0
LWPOLYLINE
  5
19C
330
17
100
AcDbEntity
  8
ROADS
100
AcDbPolyline
 90
2
 70
0
 10
638826.3839658997
 20
4844817.611951019
 10
638797.233549556
 20
4844912.092329906
  0
LWPOLYLINE
  5
19D
330
17
100
AcDbEntity
  8
ROADS
100
AcDbPolyline
 90
2
 70
0
 10
638742.0340232928
 20
4844764.078609264
 10
638656.7756198794
 20
4845043.562961406
  0
LWPOLYLINE
  5
19E
330
17
100
AcDbEntity
  8
ROADS
100
AcDbPolyline
 90
3
 70
0
 10
638826.3839658997
 20
4844817.611951019
 10
638958.7053972884
 20
4844904.019056023
 10
638933.5098742667
 20
4844990.571299922
  0
LWPOLYLINE
  5
19F
330
17
100
AcDbEntity
  8
ROADS
100
AcDbPolyline
 90
2
 70
0
 10
639109.8117263562
 20
4844769.717252222
 10
638998.4821697794
 20
4845109.761280146
  0
LWPOLYLINE
  5
1A0
330
17
100
AcDbEntity
  8
ROADS
100
AcDbPolyline
 90
2
 70
0
 10
638797.233549556
 20
4844912.092329906
 10
638933.5098742667
 20
4844990.571299922
  0
LWPOLYLINE
  5
1A1
330
17
100
AcDbEntity
  8
ROADS
100
AcDbPolyline
 90
2
 70
0
 10
638797.233549556
 20
4844912.092329906
 10
638766.4365939305
 20
4845014.545652601
  0
LWPOLYLINE
  5
1A2
330
17
100
AcDbEntity
  8
ROADS
100
AcDbPolyline
 90
2
 70
0
 10
638233.4081924747
 20
4844819.866260859
 10
638406.6515110526
 20
4844873.011942399
  0
LWPOLYLINE
  5
1A3
330
17
100
AcDbEntity
  8
ROADS
100
AcDbPolyline
 90
2
 70
0
 10
638508.2007224939
 20
4844801.845689924
 10
638479.4155749808
 20
4844893.332306553
  0
LWPOLYLINE
  5
1A4
330
17
100
AcDbEntity
  8
ROADS
100
AcDbPolyline
 90
2
 70
0
 10
638233.4081924747
 20
4844819.866260859
 10
638213.3351241399
 20
4844882.5087932395
  0
LWPOLYLINE
  5
1A5
330
17
100
AcDbEntity
  8
ROADS
100
AcDbPolyline
 90
2
 70
0
 10
638406.6515110526
 20
4844873.011942399
 10
638479.4155749808
 20
4844893.332306553
  0
LWPOLYLINE
  5
1A6
330
17
100
AcDbEntity
  8
ROADS
100
AcDbPolyline
 90
2
 70
0
 10
638213.3351241399
 20
4844882.5087932395
 10
638204.552383554
 20
4844908.352236259
  0
LWPOLYLINE
  5
1A7
330
17
100
AcDbEntity
  8
ROADS
100
AcDbPolyline
 90
2
 70
0
 10
638479.4155749808
 20
4844893.332306553
 10
638590.9801283939
 20
4844928.3585936
  0
LWPOLYLINE
  5
1A8
330
17
100
AcDbEntity
  8
ROADS
100
AcDbPolyline
 90
2
 70
0
 10
638406.6515110526
 20
4844873.011942399
 10
638378.2335714861
 20
4844961.505887876
  0
LWPOLYLINE
  5
1A9
330
17
100
AcDbEntity
  8
ROADS
100
AcDbPolyline
 90
2
 70
0
 10
638204.552383554
 20
4844908.352236259
 10
638294.2945783628
 20
4844936.981786025
  0
LWPOLYLINE
  5
1AA
330
17
100
AcDbEntity
  8
ROADS
100
AcDbPolyline
 90
2
 70
0
 10
638294.2945783628
 20
4844936.981786025
 10
638378.2335714861
 20
4844961.505887876
  0
LWPOLYLINE
  5
1AB
330
17
100
AcDbEntity
  8
ROADS
100
AcDbPolyline
 90
2
 70
0
 10
638378.2335714861
 20
4844961.505887876
 10
638656.7756198794
 20
4845043.562961406
  0
LWPOLYLINE
  5
1AC
330
17
100
AcDbEntity
  8
ROADS
100
AcDbPolyline
 90
2
 70
0
 10
638933.5098742667
 20
4844990.571299922
 10
638906.378777378
 20
4845077.088482495
  0
LWPOLYLINE
  5
1AD
330
17
100
AcDbEntity
  8
ROADS
100
AcDbPolyline
 90
3
 70
0
 10
638699.7283932772
 20
4845057.335985674
 10
638747.069137156
 20
4845069.2012769235
 10
638766.4365939305
 20
4845014.545652601
  0
LWPOLYLINE
  5
1AE
330
17
100
AcDbEntity
  8
ROADS
100
AcDbPolyline
 90
2
 70
0
 10
638766.4365939305
 20
4845014.545652601
 10
638906.378777378
 20
4845077.088482495
  0
LWPOLYLINE
  5
1AF
330
17
100
AcDbEntity
  8
ROADS
100
AcDbPolyline
 90
2
 70
0
 10
638656.7756198794
 20
4845043.562961406
 10
638699.7283932772
 20
4845057.335985674
  0
LWPOLYLINE
  5
1B0
330
17
100
AcDbEntity
  8
ROADS
100
AcDbPolyline
 90
2
 70
0
 10
638699.7283932772
 20
4845057.335985674
 10
638686.2141134898
 20
4845102.126622071
  0
LWPOLYLINE
  5
1B1
330
17
100
AcDbEntity
  8
ROADS
100
AcDbPolyline
 90
2
 70
0
 10
638906.378777378
 20
4845077.088482495
 10
638998.4821697794
 20
4845109.761280146
  0
LWPOLYLINE
  5
1B2
330
17
100
AcDbEntity
  8
ROADS
100
AcDbPolyline
 90
4
 70
0
 10
638906.378777378
 20
4845077.088482495
 10
638882.2467236809
 20
4845156.659277907
 10
638830.5984475841
 20
4845157.723230935
 10
638805.269242432
 20
4845241.2717122
  0
LWPOLYLINE
  5
1B3
330
17
100
AcDbEntity
  8
ROADS
100
AcDbPolyline
 90
2
 70
0
 10
638998.4821697794
 20
4845109.761280146
 10
638956.243221697
 20
4845244.733640701
  0
LWPOLYLINE
  5
1B4
330
17
100
AcDbEntity
  8
ROADS
100
AcDbPolyline
 90
2
 70
0
 10
638805.269242432
 20
4845241.2717122
 10
638856.5658655704
 20
4845256.202957234
  0
LWPOLYLINE
  5
1B5
330
17
100
AcDbEntity
  8
ROADS
100
AcDbPolyline
 90
2
 70
0
 10
638805.269242432
 20
4845241.2717122
 10
638789.6081099008
 20
4845285.87546558
  0
LWPOLYLINE
  5
1B6
330
17
100
AcDbEntity
  8
ROADS
100
AcDbPolyline
 90
2
 70
0
 10
639194.9917443241
 20
4845322.5401405515
 10
639203.3360934107
 20
4845294.399468349
  0
LWPOLYLINE
  5
1B7
330
17
100
AcDbEntity
  8
ROADS
100
AcDbPolyline
 90
2
 70
0
 10
639194.9917443241
 20
4845322.5401405515
 10
639219.0686591502
 20
4845329.748527174
  0
LWPOLYLINE
  5
1B8
330
17
100
AcDbEntity
  8
ROADS
100
AcDbPolyline
 90
4
 70
0
 10
638294.2945783628
 20
4844936.981786025
 10
638229.6672067475
 20
4845143.833362069
 10
638310.4439503463
 20
4845177.300108309
 10
638378.2335714861
 20
4844961.505887876
  0
LWPOLYLINE
  5
1B9
330
17
100
AcDbEntity
  8
ROADS
100
AcDbPolyline
 90
2
 70
0
 10
638204.552383554
 20
4844908.352236259
 10
638094.4178695485
 20
4845260.394569164
  0
LWPOLYLINE
  5
1BA
330
17
100
AcDbEntity
  8
ROADS
100
AcDbPolyline
 90
2
 70
0
 10
638094.4178695485
 20
4845260.394569164
 10
638264.708671855
 20
4845310.673724471
  0
LWPOLYLINE
  5
1BB
330
17
100
AcDbEntity
  8
ROADS
100
AcDbPolyline
 90
2
 70
0
 10
638094.4178695485
 20
4845260.394569164
 10
638061.9208534533
 20
4845366.816239798
  0
LWPOLYLINE
  5
1BC
330
17
100
AcDbEntity
  8
ROADS
100
AcDbPolyline
 90
2
 70
0
 10
638264.708671855
 20
4845310.673724471
 10
638324.6443170437
 20
4845328.571664397
  0
LWPOLYLINE
  5
1BD
330
17
100
AcDbEntity
  8
ROADS
100
AcDbPolyline
 90
2
 70
0
 10
638324.6443170437
 20
4845328.571664397
 10
638365.3096621165
 20
4845341.856247797
  0
LWPOLYLINE
  5
1BE
330
17
100
AcDbEntity
  8
ROADS
100
AcDbPolyline
 90
2
 70
0
 10
638264.708671855
 20
4845310.673724471
 10
638241.2814487747
 20
4845382.856410272
  0
LWPOLYLINE
  5
1BF
330
17
100
AcDbEntity
  8
ROADS
100
AcDbPolyline
 90
2
 70
0
 10
638365.3096621165
 20
4845341.856247797
 10
638342.9532870911
 20
4845411.346085738
  0
LWPOLYLINE
  5
1C0
330
17
100
AcDbEntity
  8
ROADS
100
AcDbPolyline
 90
2
 70
0
 10
638061.9208534533
 20
4845366.816239798
 10
638153.1006541543
 20
4845395.470933795
  0
LWPOLYLINE
  5
1C1
330
17
100
AcDbEntity
  8
ROADS
100
AcDbPolyline
 90
3
 70
0
 10
638327.256455303
 20
4845459.964506867
 10
638286.0600014307
 20
4845448.340452109
 10
638324.6443170437
 20
4845328.571664397
  0
LWPOLYLINE
  5
1C2
330
17
100
AcDbEntity
  8
ROADS
100
AcDbPolyline
 90
2
 70
0
 10
638789.6081099008
 20
4845285.87546558
 10
638741.3372093443
 20
4845271.142023091
  0
LWPOLYLINE
  5
1C3
330
17
100
AcDbEntity
  8
ROADS
100
AcDbPolyline
 90
3
 70
0
 10
638956.243221697
 20
4845244.733640701
 10
639047.7891211724
 20
4845280.35768298
 10
639030.6643367102
 20
4845359.009287117
  0
LWPOLYLINE
  5
1C4
330
17
100
AcDbEntity
  8
ROADS
100
AcDbPolyline
 90
2
 70
0
 10
638956.243221697
 20
4845244.733640701
 10
638914.7729445968
 20
4845376.577582099
  0
LWPOLYLINE
  5
1C5
330
17
100
AcDbEntity
  8
ROADS
100
AcDbPolyline
 90
3
 70
0
 10
638789.6081099008
 20
4845285.87546558
 10
638778.2687543081
 20
4845330.790497899
 10
638914.7729445968
 20
4845376.577582099
  0
LWPOLYLINE
  5
1C6
330
17
100
AcDbEntity
  8
ROADS
100
AcDbPolyline
 90
2
 70
0
 10
639030.6643367102
 20
4845359.009287117
 10
639093.5601025531
 20
4845378.138992979
  0
LWPOLYLINE
  5
1C7
330
17
100
AcDbEntity
  8
ROADS
100
AcDbPolyline
 90
2
 70
0
 10
639093.5601025531
 20
4845378.138992979
 10
639171.1553163684
 20
4845401.24525582
  0
LWPOLYLINE
  5
1C8
330
17
100
AcDbEntity
  8
ROADS
100
AcDbPolyline
 90
3
 70
0
 10
639030.6643367102
 20
4845359.009287117
 10
639013.2757429237
 20
4845427.983162955
 10
639069.3840127385
 20
4845455.994847451
  0
LWPOLYLINE
  5
1C9
330
17
100
AcDbEntity
  8
ROADS
100
AcDbPolyline
 90
2
 70
0
 10
639093.5601025531
 20
4845378.138992979
 10
639069.3840127385
 20
4845455.994847451
  0
LWPOLYLINE
  5
1CA
330
17
100
AcDbEntity
  8
ROADS
100
AcDbPolyline
 90
2
 70
0
 10
638365.3096621165
 20
4845341.856247797
 10
638885.8762261758
 20
4845498.017652586
  0
LWPOLYLINE
  5
1CB
330
17
100
AcDbEntity
  8
ROADS
100
AcDbPolyline
 90
2
 70
0
 10
638914.7729445968
 20
4845376.577582099
 10
638885.8762261758
 20
4845498.017652586
  0
LWPOLYLINE
  5
1CC
330
17
100
AcDbEntity
  8
ROADS
100
AcDbPolyline
 90
2
 70
0
 10
639171.1553163684
 20
4845401.24525582
 10
639194.9917443241
 20
4845322.5401405515
  0
LWPOLYLINE
  5
1CD
330
17
100
AcDbEntity
  8
ROADS
100
AcDbPolyline
 90
2
 70
0
 10
639171.1553163684
 20
4845401.24525582
 10
639202.4105468902
 20
4845410.459092887
  0
LWPOLYLINE
  5
1CE
330
17
100
AcDbEntity
  8
ROADS
100
AcDbPolyline
 90
2
 70
0
 10
639202.4105468902
 20
4845410.459092887
 10
639207.4544959994
 20
4845411.996938795
  0
LWPOLYLINE
  5
1CF
330
17
100
AcDbEntity
  8
ROADS
100
AcDbPolyline
 90
2
 70
0
 10
639202.4105468902
 20
4845410.459092887
 10
639178.6441147714
 20
4845489.992052536
  0
LWPOLYLINE
  5
1D0
330
17
100
AcDbEntity
  8
ROADS
100
AcDbPolyline
 90
2
 70
0
 10
639195.4645812389
 20
4845494.8712630095
 10
639178.6441147714
 20
4845489.992052536
  0
LWPOLYLINE
  5
1D1
330
17
100
AcDbEntity
  8
ROADS
100
AcDbPolyline
 90
4
 70
0
 10
635337.1261174695
 20
4844499.8897427255
 10
635332.7008184637
 20
4844433.270860545
 10
635308.1833837961
 20
4844389.320193423
 10
635174.3006564194
 20
4844222.952902954
  0
LWPOLYLINE
  5
1D2
330
17
100
AcDbEntity
  8
ROADS
100
AcDbPolyline
 90
2
 70
0
 10
635100.2210606979
 20
4844471.487600301
 10
635337.1261174695
 20
4844499.8897427255
  0
LWPOLYLINE
  5
1D3
330
17
100
AcDbEntity
  8
ROADS
100
AcDbPolyline
 90
5
 70
0
 10
635211.4006285295
 20
4844690.815020624
 10
635227.2919538297
 20
4844629.894478174
 10
635221.993919452
 20
4844568.174237473
 10
635207.5589327824
 20
4844553.246612301
 10
635085.7948869949
 20
4844538.661711178
  0
LWPOLYLINE
  5
1D4
330
17
100
AcDbEntity
  8
ROADS
100
AcDbPolyline
 90
2
 70
0
 10
635073.5219601777
 20
4844644.879864667
 10
635211.4006285295
 20
4844690.815020624
  0
LWPOLYLINE
  5
1D5
330
17
100
AcDbEntity
  8
ROADS
100
AcDbPolyline
 90
2
 70
0
 10
635181.157036943
 20
4844778.856043508
 10
635072.3936923158
 20
4844743.406541834
  0
LWPOLYLINE
  5
1D6
330
17
100
AcDbEntity
  8
ROADS
100
AcDbPolyline
 90
3
 70
0
 10
635081.7525674601
 20
4844846.21156563
 10
635092.9343532121
 20
4844842.931256848
 10
635223.3807143198
 20
4844884.568626032
  0
LWPOLYLINE
  5
1D7
330
17
100
AcDbEntity
  8
ROADS
100
AcDbPolyline
 90
2
 70
0
 10
635117.5637164641
 20
4845006.524677103
 10
635144.5966673233
 20
4844997.448410442
  0
LWPOLYLINE
  5
1D8
330
17
100
AcDbEntity
  8
ROADS
100
AcDbPolyline
 90
2
 70
0
 10
635444.6956629319
 20
4844929.483541815
 10
635507.4541339129
 20
4844946.770327243
  0
LWPOLYLINE
  5
1D9
330
17
100
AcDbEntity
  8
ROADS
100
AcDbPolyline
 90
2
 70
0
 10
635507.4541339129
 20
4844946.770327243
 10
635682.6488830178
 20
4845005.014444551
  0
LWPOLYLINE
  5
1DA
330
17
100
AcDbEntity
  8
ROADS
100
AcDbPolyline
 90
3
 70
0
 10
635199.3264111872
 20
4844955.885256097
 10
635151.9701569299
 20
4844976.827639624
 10
635144.5966673233
 20
4844997.448410442
  0
LWPOLYLINE
  5
1DB
330
17
100
AcDbEntity
  8
ROADS
100
AcDbPolyline
 90
2
 70
0
 10
635380.7487341694
 20
4844934.696195723
 10
635386.633412463
 20
4845020.074145688
  0
LWPOLYLINE
  5
1DC
330
17
100
AcDbEntity
  8
ROADS
100
AcDbPolyline
 90
3
 70
0
 10
635199.3264111872
 20
4844955.885256097
 10
635207.6150182
 20
4844972.515760484
 10
635386.633412463
 20
4845020.074145688
  0
LWPOLYLINE
  5
1DD
330
17
100
AcDbEntity
  8
ROADS
100
AcDbPolyline
 90
2
 70
0
 10
635144.5966673233
 20
4844997.448410442
 10
635194.6555750663
 20
4845028.316927538
  0
LWPOLYLINE
  5
1DE
330
17
100
AcDbEntity
  8
ROADS
100
AcDbPolyline
 90
2
 70
0
 10
635386.633412463
 20
4845020.074145688
 10
635452.5318848054
 20
4845024.340666181
  0
LWPOLYLINE
  5
1DF
330
17
100
AcDbEntity
  8
ROADS
100
AcDbPolyline
 90
2
 70
0
 10
635194.6555750663
 20
4845028.316927538
 10
635192.1288900992
 20
4845038.726076315
  0
LWPOLYLINE
  5
1E0
330
17
100
AcDbEntity
  8
ROADS
100
AcDbPolyline
 90
3
 70
0
 10
635194.6555750663
 20
4845028.316927538
 10
635465.1410136631
 20
4845094.647079441
 10
635451.0343401863
 20
4845115.990517843
  0
LWPOLYLINE
  5
1E1
330
17
100
AcDbEntity
  8
ROADS
100
AcDbPolyline
 90
2
 70
0
 10
635187.3748315128
 20
4845173.186441494
 10
635257.7556720665
 20
4845196.786958927
  0
LWPOLYLINE
  5
1E2
330
17
100
AcDbEntity
  8
ROADS
100
AcDbPolyline
 90
5
 70
0
 10
635257.7556720665
 20
4845196.786958927
 10
635281.0914223734
 20
4845140.6886376925
 10
635337.3407763746
 20
4845124.313684238
 10
635433.3111780611
 20
4845157.723244672
 10
635486.9964945199
 20
4845226.834301061
  0
LWPOLYLINE
  5
1E3
330
17
100
AcDbEntity
  8
ROADS
100
AcDbPolyline
 90
2
 70
0
 10
635257.7556720665
 20
4845196.786958927
 10
635319.8570418428
 20
4845217.6081934525
  0
LWPOLYLINE
  5
1E4
330
17
100
AcDbEntity
  8
ROADS
100
AcDbPolyline
 90
3
 70
0
 10
635258.028559477
 20
4845287.425790849
 10
635284.4045970985
 20
4845296.1640645685
 10
635319.8570418428
 20
4845217.6081934525
  0
LWPOLYLINE
  5
1E5
330
17
100
AcDbEntity
  8
ROADS
100
AcDbPolyline
 90
3
 70
0
 10
635319.8570418428
 20
4845217.6081934525
 10
635384.5955439345
 20
4845237.662118271
 10
635420.5661744855
 20
4845281.430222039
  0
LWPOLYLINE
  5
1E6
330
17
100
AcDbEntity
  8
ROADS
100
AcDbPolyline
 90
2
 70
0
 10
635486.9964945199
 20
4845226.834301061
 10
635420.5661744855
 20
4845281.430222039
  0
LWPOLYLINE
  5
1E7
330
17
100
AcDbEntity
  8
ROADS
100
AcDbPolyline
 90
4
 70
0
 10
635486.9964945199
 20
4845226.834301061
 10
635563.389681617
 20
4845316.3303228365
 10
635653.6684038796
 20
4845325.83880926
 10
635634.0339828327
 20
4845409.602620527
  0
LWPOLYLINE
  5
1E8
330
17
100
AcDbEntity
  8
ROADS
100
AcDbPolyline
 90
4
 70
0
 10
635420.5661744855
 20
4845281.430222039
 10
635379.4886808117
 20
4845314.839343164
 10
635350.9216147285
 20
4845379.819715759
 10
635336.9092288181
 20
4845384.032182555
  0
LWPOLYLINE
  5
1E9
330
17
100
AcDbEntity
  8
ROADS
100
AcDbPolyline
 90
3
 70
0
 10
635420.5661744855
 20
4845281.430222039
 10
635524.6922596222
 20
4845403.75825762
 10
635634.0339828327
 20
4845409.602620527
  0
LWPOLYLINE
  5
1EA
330
17
100
AcDbEntity
  8
ROADS
100
AcDbPolyline
 90
2
 70
0
 10
635563.8759349085
 20
4845483.270695999
 10
635540.9705064471
 20
4845553.528921595
  0
LWPOLYLINE
  5
1EB
330
17
100
AcDbEntity
  8
ROADS
100
AcDbPolyline
 90
2
 70
0
 10
635581.3706766642
 20
4845578.047370433
 10
635587.8637242516
 20
4845580.264520857
  0
LWPOLYLINE
  5
1EC
330
17
100
AcDbEntity
  8
ROADS
100
AcDbPolyline
 90
2
 70
0
 10
635563.8759349085
 20
4845483.270695999
 10
635587.8637242516
 20
4845580.264520857
  0
LWPOLYLINE
  5
1ED
330
17
100
AcDbEntity
  8
ROADS
100
AcDbPolyline
 90
2
 70
0
 10
635587.8637242516
 20
4845580.264520857
 10
635607.1421948345
 20
4845586.848181869
  0
LWPOLYLINE
  5
1EE
330
17
100
AcDbEntity
  8
ROADS
100
AcDbPolyline
 90
2
 70
0
 10
636277.3940711499
 20
4845495.6906433785
 10
636263.9647512271
 20
4845538.663315123
  0
LWPOLYLINE
  5
1EF
330
17
100
AcDbEntity
  8
ROADS
100
AcDbPolyline
 90
3
 70
0
 10
636125.8289084075
 20
4845442.764007083
 10
636090.5879508231
 20
4845473.129093036
 10
636043.8492662299
 20
4845617.298574753
  0
LWPOLYLINE
  5
1F0
330
17
100
AcDbEntity
  8
ROADS
100
AcDbPolyline
 90
2
 70
0
 10
636263.9647512271
 20
4845538.663315123
 10
636252.8861567948
 20
4845573.930861034
  0
LWPOLYLINE
  5
1F1
330
17
100
AcDbEntity
  8
ROADS
100
AcDbPolyline
 90
2
 70
0
 10
636252.8861567948
 20
4845573.930861034
 10
636161.3558756849
 20
4845543.728788184
  0
LWPOLYLINE
  5
1F2
330
17
100
AcDbEntity
  8
ROADS
100
AcDbPolyline
 90
2
 70
0
 10
636251.5114907376
 20
4845610.023193103
 10
636252.8861567948
 20
4845573.930861034
  0
LWPOLYLINE
  5
1F3
330
17
100
AcDbEntity
  8
ROADS
100
AcDbPolyline
 90
2
 70
0
 10
635958.6983937067
 20
4845590.75334674
 10
636043.8492662299
 20
4845617.298574753
  0
LWPOLYLINE
  5
1F4
330
17
100
AcDbEntity
  8
ROADS
100
AcDbPolyline
 90
2
 70
0
 10
636236.5897237601
 20
4845636.0583202075
 10
636251.5114907376
 20
4845610.023193103
  0
LWPOLYLINE
  5
1F5
330
17
100
AcDbEntity
  8
ROADS
100
AcDbPolyline
 90
2
 70
0
 10
636161.3558756849
 20
4845543.728788184
 10
636098.1352478621
 20
4845745.980031512
  0
LWPOLYLINE
  5
1F6
330
17
100
AcDbEntity
  8
ROADS
100
AcDbPolyline
 90
2
 70
0
 10
636252.8861567948
 20
4845573.930861034
 10
636188.2186843561
 20
4845780.216117509
  0
LWPOLYLINE
  5
1F7
330
17
100
AcDbEntity
  8
ROADS
100
AcDbPolyline
 90
2
 70
0
 10
636043.8492662299
 20
4845617.298574753
 10
636011.8482170792
 20
4845717.821883817
  0
LWPOLYLINE
  5
1F8
330
17
100
AcDbEntity
  8
ROADS
100
AcDbPolyline
 90
2
 70
0
 10
636372.526249851
 20
4845191.9559897315
 10
636277.3940711499
 20
4845495.6906433785
  0
LWPOLYLINE
  5
1F9
330
17
100
AcDbEntity
  8
ROADS
100
AcDbPolyline
 90
2
 70
0
 10
636731.7137035516
 20
4845186.706081844
 10
636583.2502412216
 20
4845667.073332433
  0
LWPOLYLINE
  5
1FA
330
17
100
AcDbEntity
  8
ROADS
100
AcDbPolyline
 90
2
 70
0
 10
636600.9192049564
 20
4845143.331957141
 10
636403.0592623933
 20
4845762.819075056
  0
LWPOLYLINE
  5
1FB
330
17
100
AcDbEntity
  8
ROADS
100
AcDbPolyline
 90
2
 70
0
 10
636277.3940711499
 20
4845495.6906433785
 10
636403.0592623933
 20
4845762.819075056
  0
LWPOLYLINE
  5
1FC
330
17
100
AcDbEntity
  8
ROADS
100
AcDbPolyline
 90
2
 70
0
 10
636583.2502412216
 20
4845667.073332433
 10
636742.5223840992
 20
4845726.068747161
  0
LWPOLYLINE
  5
1FD
330
17
100
AcDbEntity
  8
ROADS
100
AcDbPolyline
 90
2
 70
0
 10
636583.2502412216
 20
4845667.073332433
 10
636503.4530015837
 20
4845917.256264503
  0
LWPOLYLINE
  5
1FE
330
17
100
AcDbEntity
  8
ROADS
100
AcDbPolyline
 90
2
 70
0
 10
636403.0592623933
 20
4845762.819075056
 10
636469.2393712311
 20
4845904.355822433
  0
LWPOLYLINE
  5
1FF
330
17
100
AcDbEntity
  8
ROADS
100
AcDbPolyline
 90
3
 70
0
 10
636251.5114907376
 20
4845610.023193103
 10
636308.3219531067
 20
4845708.081669215
 10
636310.8694125887
 20
4845831.005219493
  0
LWPOLYLINE
  5
200
330
17
100
AcDbEntity
  8
ROADS
100
AcDbPolyline
 90
2
 70
0
 10
635958.6983937067
 20
4845590.75334674
 10
635927.449800291
 20
4845704.49638155
  0
LWPOLYLINE
  5
201
330
17
100
AcDbEntity
  8
ROADS
100
AcDbPolyline
 90
2
 70
0
 10
635815.8634970593
 20
4845655.769679822
 10
635811.182656747
 20
4845673.566999102
  0
LWPOLYLINE
  5
202
330
17
100
AcDbEntity
  8
ROADS
100
AcDbPolyline
 90
2
 70
0
 10
635607.1421948345
 20
4845586.848181869
 10
635605.9543024632
 20
4845591.456413526
  0
LWPOLYLINE
  5
203
330
17
100
AcDbEntity
  8
ROADS
100
AcDbPolyline
 90
2
 70
0
 10
638342.9532870911
 20
4845411.346085738
 10
638366.3750347085
 20
4845416.840706358
  0
LWPOLYLINE
  5
204
330
17
100
AcDbEntity
  8
ROADS
100
AcDbPolyline
 90
2
 70
0
 10
638342.9532870911
 20
4845411.346085738
 10
638327.256455303
 20
4845459.964506867
  0
LWPOLYLINE
  5
205
330
17
100
AcDbEntity
  8
ROADS
100
AcDbPolyline
 90
4
 70
0
 10
638153.1006541543
 20
4845395.470933795
 10
638230.479123009
 20
4845419.875338378
 10
638237.5255270356
 20
4845438.004653344
 10
638194.4930215384
 20
4845570.24003852
  0
LWPOLYLINE
  5
206
330
17
100
AcDbEntity
  8
ROADS
100
AcDbPolyline
 90
2
 70
0
 10
638327.256455303
 20
4845459.964506867
 10
638308.7656778626
 20
4845520.162438074
  0
LWPOLYLINE
  5
207
330
17
100
AcDbEntity
  8
ROADS
100
AcDbPolyline
 90
2
 70
0
 10
638308.7656778626
 20
4845520.162438074
 10
638322.4232746065
 20
4845530.252702647
  0
LWPOLYLINE
  5
208
330
17
100
AcDbEntity
  8
ROADS
100
AcDbPolyline
 90
3
 70
0
 10
638153.1006541543
 20
4845395.470933795
 10
638063.760337193
 20
4845678.884100635
 10
638147.1070601098
 20
4845715.397786272
  0
LWPOLYLINE
  5
209
330
17
100
AcDbEntity
  8
ROADS
100
AcDbPolyline
 90
2
 70
0
 10
638308.7656778626
 20
4845520.162438074
 10
638282.4226145989
 20
4845598.834939907
  0
LWPOLYLINE
  5
20A
330
17
100
AcDbEntity
  8
ROADS
100
AcDbPolyline
 90
2
 70
0
 10
638194.4930215384
 20
4845570.24003852
 10
638282.4226145989
 20
4845598.834939907
  0
LWPOLYLINE
  5
20B
330
17
100
AcDbEntity
  8
ROADS
100
AcDbPolyline
 90
2
 70
0
 10
638282.4226145989
 20
4845598.834939907
 10
638374.9369446172
 20
4845629.513073489
  0
LWPOLYLINE
  5
20C
330
17
100
AcDbEntity
  8
ROADS
100
AcDbPolyline
 90
2
 70
0
 10
638194.4930215384
 20
4845570.24003852
 10
638147.1070601098
 20
4845715.397786272
  0
LWPOLYLINE
  5
20D
330
17
100
AcDbEntity
  8
ROADS
100
AcDbPolyline
 90
2
 70
0
 10
639178.6441147714
 20
4845489.992052536
 10
639163.5396173773
 20
4845540.912042527
  0
LWPOLYLINE
  5
20E
330
17
100
AcDbEntity
  8
ROADS
100
AcDbPolyline
 90
2
 70
0
 10
639163.5396173773
 20
4845540.912042527
 10
639182.4380616702
 20
4845550.716624671
  0
LWPOLYLINE
  5
20F
330
17
100
AcDbEntity
  8
ROADS
100
AcDbPolyline
 90
2
 70
0
 10
639069.3840127385
 20
4845455.994847451
 10
639178.6441147714
 20
4845489.992052536
  0
LWPOLYLINE
  5
210
330
17
100
AcDbEntity
  8
ROADS
100
AcDbPolyline
 90
2
 70
0
 10
638885.8762261758
 20
4845498.017652586
 10
639035.9878731406
 20
4845544.516782284
  0
LWPOLYLINE
  5
211
330
17
100
AcDbEntity
  8
ROADS
100
AcDbPolyline
 90
3
 70
0
 10
639080.0910133319
 20
4845557.614649646
 10
639102.6555763846
 20
4845520.703623542
 10
639163.5396173773
 20
4845540.912042527
  0
LWPOLYLINE
  5
212
330
17
100
AcDbEntity
  8
ROADS
100
AcDbPolyline
 90
2
 70
0
 10
639035.9878731406
 20
4845544.516782284
 10
639080.0910133319
 20
4845557.614649646
  0
LWPOLYLINE
  5
213
330
17
100
AcDbEntity
  8
ROADS
100
AcDbPolyline
 90
2
 70
0
 10
639080.0910133319
 20
4845557.614649646
 10
639173.7951039149
 20
4845586.206742871
  0
LWPOLYLINE
  5
214
330
17
100
AcDbEntity
  8
ROADS
100
AcDbPolyline
 90
4
 70
0
 10
639035.9878731406
 20
4845544.516782284
 10
639030.2976304186
 20
4845581.05931322
 10
639042.4183885248
 20
4845592.348890382
 10
639164.8371855669
 20
4845619.0892192805
  0
LWPOLYLINE
  5
215
330
17
100
AcDbEntity
  8
ROADS
100
AcDbPolyline
 90
2
 70
0
 10
638885.8762261758
 20
4845498.017652586
 10
638813.5923957973
 20
4845764.47112807
  0
LWPOLYLINE
  5
216
330
17
100
AcDbEntity
  8
ROADS
100
AcDbPolyline
 90
2
 70
0
 10
638529.7710756584
 20
4845677.322334139
 10
638621.3400138669
 20
4845704.983101197
  0
LWPOLYLINE
  5
217
330
17
100
AcDbEntity
  8
ROADS
100
AcDbPolyline
 90
2
 70
0
 10
638621.3400138669
 20
4845704.983101197
 10
638713.5338301514
 20
4845732.65519924
  0
LWPOLYLINE
  5
218
330
17
100
AcDbEntity
  8
ROADS
100
AcDbPolyline
 90
2
 70
0
 10
638713.5338301514
 20
4845732.65519924
 10
638813.5923957973
 20
4845764.47112807
  0
LWPOLYLINE
  5
219
330
17
100
AcDbEntity
  8
ROADS
100
AcDbPolyline
 90
2
 70
0
 10
638374.9369446172
 20
4845629.513073489
 10
638529.7710756584
 20
4845677.322334139
  0
LWPOLYLINE
  5
21A
330
17
100
AcDbEntity
  8
ROADS
100
AcDbPolyline
 90
2
 70
0
 10
638543.1297909872
 20
4845633.56002256
 10
638529.7710756584
 20
4845677.322334139
  0
LWPOLYLINE
  5
21B
330
17
100
AcDbEntity
  8
ROADS
100
AcDbPolyline
 90
2
 70
0
 10
638374.9369446172
 20
4845629.513073489
 10
638341.1461766689
 20
4845734.912274619
  0
LWPOLYLINE
  5
21C
330
17
100
AcDbEntity
  8
ROADS
100
AcDbPolyline
 90
2
 70
0
 10
638282.4226145989
 20
4845598.834939907
 10
638211.8030186993
 20
4845825.580773118
  0
LWPOLYLINE
  5
21D
330
17
100
AcDbEntity
  8
ROADS
100
AcDbPolyline
 90
2
 70
0
 10
638529.7710756584
 20
4845677.322334139
 10
638496.6862411858
 20
4845781.7332676025
  0
LWPOLYLINE
  5
21E
330
17
100
AcDbEntity
  8
ROADS
100
AcDbPolyline
 90
2
 70
0
 10
638341.1461766689
 20
4845734.912274619
 10
638496.6862411858
 20
4845781.7332676025
  0
LWPOLYLINE
  5
21F
330
17
100
AcDbEntity
  8
ROADS
100
AcDbPolyline
 90
2
 70
0
 10
638147.1070601098
 20
4845715.397786272
 10
638119.4558342902
 20
4845802.906385638
  0
LWPOLYLINE
  5
220
330
17
100
AcDbEntity
  8
ROADS
100
AcDbPolyline
 90
2
 70
0
 10
638029.4563634461
 20
4845778.27333736
 10
638119.4558342902
 20
4845802.906385638
  0
LWPOLYLINE
  5
221
330
17
100
AcDbEntity
  8
ROADS
100
AcDbPolyline
 90
2
 70
0
 10
638341.1461766689
 20
4845734.912274619
 10
638303.4167558855
 20
4845854.24146254
  0
LWPOLYLINE
  5
222
330
17
100
AcDbEntity
  8
ROADS
100
AcDbPolyline
 90
2
 70
0
 10
638119.4558342902
 20
4845802.906385638
 10
638211.8030186993
 20
4845825.580773118
  0
LWPOLYLINE
  5
223
330
17
100
AcDbEntity
  8
ROADS
100
AcDbPolyline
 90
2
 70
0
 10
638621.3400138669
 20
4845704.983101197
 10
638552.1292409855
 20
4845929.750463963
  0
LWPOLYLINE
  5
224
330
17
100
AcDbEntity
  8
ROADS
100
AcDbPolyline
 90
2
 70
0
 10
638813.5923957973
 20
4845764.47112807
 10
638769.5956437946
 20
4845908.687399997
  0
LWPOLYLINE
  5
225
330
17
100
AcDbEntity
  8
ROADS
100
AcDbPolyline
 90
2
 70
0
 10
638643.8861208169
 20
4845957.414705437
 10
638713.5338301514
 20
4845732.65519924
  0
LWPOLYLINE
  5
226
330
17
100
AcDbEntity
  8
ROADS
100
AcDbPolyline
 90
2
 70
0
 10
639116.5489628989
 20
4845754.969113462
 10
639100.5149512674
 20
4845802.013139693
  0
LWPOLYLINE
  5
227
330
17
100
AcDbEntity
  8
ROADS
100
AcDbPolyline
 90
2
 70
0
 10
638552.1292409855
 20
4845929.750463963
 10
638643.8861208169
 20
4845957.414705437
  0
LWPOLYLINE
  5
228
330
17
100
AcDbEntity
  8
ROADS
100
AcDbPolyline
 90
2
 70
0
 10
638769.5956437946
 20
4845908.687399997
 10
638996.5734367456
 20
4845982.067264702
  0
LWPOLYLINE
  5
229
330
17
100
AcDbEntity
  8
ROADS
100
AcDbPolyline
 90
2
 70
0
 10
638612.7481614174
 20
4846057.861521907
 10
638643.8861208169
 20
4845957.414705437
  0
LWPOLYLINE
  5
22A
330
17
100
AcDbEntity
  8
ROADS
100
AcDbPolyline
 90
2
 70
0
 10
638769.5956437946
 20
4845908.687399997
 10
638694.8461764347
 20
4846149.358058374
  0
LWPOLYLINE
  5
22B
330
17
100
AcDbEntity
  8
ROADS
100
AcDbPolyline
 90
2
 70
0
 10
638595.6825862054
 20
4846116.558137591
 10
638612.7481614174
 20
4846057.861521907
  0
LWPOLYLINE
  5
22C
330
17
100
AcDbEntity
  8
ROADS
100
AcDbPolyline
 90
2
 70
0
 10
638595.6825862054
 20
4846116.558137591
 10
638642.0231747968
 20
4846132.399846649
  0
LWPOLYLINE
  5
22D
330
17
100
AcDbEntity
  8
ROADS
100
AcDbPolyline
 90
2
 70
0
 10
638211.8030186993
 20
4845825.580773118
 10
638303.4167558855
 20
4845854.24146254
  0
LWPOLYLINE
  5
22E
330
17
100
AcDbEntity
  8
ROADS
100
AcDbPolyline
 90
2
 70
0
 10
638496.6862411858
 20
4845781.7332676025
 10
638460.044331774
 20
4845903.081392595
  0
LWPOLYLINE
  5
22F
330
17
100
AcDbEntity
  8
ROADS
100
AcDbPolyline
 90
2
 70
0
 10
638303.4167558855
 20
4845854.24146254
 10
638460.044331774
 20
4845903.081392595
  0
LWPOLYLINE
  5
230
330
17
100
AcDbEntity
  8
ROADS
100
AcDbPolyline
 90
2
 70
0
 10
638303.4167558855
 20
4845854.24146254
 10
638271.4660662136
 20
4845954.672467131
  0
LWPOLYLINE
  5
231
330
17
100
AcDbEntity
  8
ROADS
100
AcDbPolyline
 90
2
 70
0
 10
638460.044331774
 20
4845903.081392595
 10
638552.1292409855
 20
4845929.750463963
  0
LWPOLYLINE
  5
232
330
17
100
AcDbEntity
  8
ROADS
100
AcDbPolyline
 90
2
 70
0
 10
638460.044331774
 20
4845903.081392595
 10
638424.6755164556
 20
4846002.450440333
  0
LWPOLYLINE
  5
233
330
17
100
AcDbEntity
  8
ROADS
100
AcDbPolyline
 90
2
 70
0
 10
638119.4558342902
 20
4845802.906385638
 10
638022.213997019
 20
4846105.174116824
  0
LWPOLYLINE
  5
234
330
17
100
AcDbEntity
  8
ROADS
100
AcDbPolyline
 90
2
 70
0
 10
638211.8030186993
 20
4845825.580773118
 10
638116.7417333846
 20
4846117.887123915
  0
LWPOLYLINE
  5
235
330
17
100
AcDbEntity
  8
ROADS
100
AcDbPolyline
 90
2
 70
0
 10
638271.4660662136
 20
4845954.672467131
 10
638424.6755164556
 20
4846002.450440333
  0
LWPOLYLINE
  5
236
330
17
100
AcDbEntity
  8
ROADS
100
AcDbPolyline
 90
2
 70
0
 10
638271.4660662136
 20
4845954.672467131
 10
638241.9116763051
 20
4846047.146089252
  0
LWPOLYLINE
  5
237
330
17
100
AcDbEntity
  8
ROADS
100
AcDbPolyline
 90
2
 70
0
 10
638424.6755164556
 20
4846002.450440333
 10
638612.7481614174
 20
4846057.861521907
  0
LWPOLYLINE
  5
238
330
17
100
AcDbEntity
  8
ROADS
100
AcDbPolyline
 90
2
 70
0
 10
638424.6755164556
 20
4846002.450440333
 10
638395.8250289247
 20
4846093.937753276
  0
LWPOLYLINE
  5
239
330
17
100
AcDbEntity
  8
ROADS
100
AcDbPolyline
 90
2
 70
0
 10
638241.9116763051
 20
4846047.146089252
 10
638395.8250289247
 20
4846093.937753276
  0
LWPOLYLINE
  5
23A
330
17
100
AcDbEntity
  8
ROADS
100
AcDbPolyline
 90
2
 70
0
 10
638241.9116763051
 20
4846047.146089252
 10
638209.1491058973
 20
4846147.563354247
  0
LWPOLYLINE
  5
23B
330
17
100
AcDbEntity
  8
ROADS
100
AcDbPolyline
 90
2
 70
0
 10
638022.213997019
 20
4846105.174116824
 10
638116.7417333846
 20
4846117.887123915
  0
LWPOLYLINE
  5
23C
330
17
100
AcDbEntity
  8
ROADS
100
AcDbPolyline
 90
2
 70
0
 10
638395.8250289247
 20
4846093.937753276
 10
638588.4292624723
 20
4846161.432108135
  0
LWPOLYLINE
  5
23D
330
17
100
AcDbEntity
  8
ROADS
100
AcDbPolyline
 90
2
 70
0
 10
638116.7417333846
 20
4846117.887123915
 10
638209.1491058973
 20
4846147.563354247
  0
LWPOLYLINE
  5
23E
330
17
100
AcDbEntity
  8
ROADS
100
AcDbPolyline
 90
2
 70
0
 10
638395.8250289247
 20
4846093.937753276
 10
638364.4391276906
 20
4846194.378992788
  0
LWPOLYLINE
  5
23F
330
17
100
AcDbEntity
  8
ROADS
100
AcDbPolyline
 90
2
 70
0
 10
638209.1491058973
 20
4846147.563354247
 10
638364.4391276906
 20
4846194.378992788
  0
LWPOLYLINE
  5
240
330
17
100
AcDbEntity
  8
ROADS
100
AcDbPolyline
 90
2
 70
0
 10
638209.1491058973
 20
4846147.563354247
 10
638179.7377282172
 20
4846239.040438147
  0
LWPOLYLINE
  5
241
330
17
100
AcDbEntity
  8
ROADS
100
AcDbPolyline
 90
2
 70
0
 10
637934.4134851452
 20
4846076.581441282
 10
638022.213997019
 20
4846105.174116824
  0
LWPOLYLINE
  5
242
330
17
100
AcDbEntity
  8
ROADS
100
AcDbPolyline
 90
2
 70
0
 10
637843.5497101485
 20
4846047.933303038
 10
637800.331077635
 20
4846180.164087294
  0
LWPOLYLINE
  5
243
330
17
100
AcDbEntity
  8
ROADS
100
AcDbPolyline
 90
2
 70
0
 10
637934.4134851452
 20
4846076.581441282
 10
637906.539687963
 20
4846214.090639636
  0
LWPOLYLINE
  5
244
330
17
100
AcDbEntity
  8
ROADS
100
AcDbPolyline
 90
2
 70
0
 10
638022.213997019
 20
4846105.174116824
 10
637982.0863749841
 20
4846239.461135185
  0
LWPOLYLINE
  5
245
330
17
100
AcDbEntity
  8
ROADS
100
AcDbPolyline
 90
2
 70
0
 10
637906.539687963
 20
4846214.090639636
 10
637982.0863749841
 20
4846239.461135185
  0
LWPOLYLINE
  5
246
330
17
100
AcDbEntity
  8
ROADS
100
AcDbPolyline
 90
2
 70
0
 10
637800.331077635
 20
4846180.164087294
 10
637742.3053140566
 20
4846360.88439447
  0
LWPOLYLINE
  5
247
330
17
100
AcDbEntity
  8
ROADS
100
AcDbPolyline
 90
2
 70
0
 10
638116.7417333846
 20
4846117.887123915
 10
638023.9062393341
 20
4846411.311409773
  0
LWPOLYLINE
  5
248
330
17
100
AcDbEntity
  8
ROADS
100
AcDbPolyline
 90
3
 70
0
 10
637906.539687963
 20
4846214.090639636
 10
637857.214181405
 20
4846366.212707046
 10
637841.4010001568
 20
4846388.013959192
  0
LWPOLYLINE
  5
249
330
17
100
AcDbEntity
  8
ROADS
100
AcDbPolyline
 90
2
 70
0
 10
637982.0863749841
 20
4846239.461135185
 10
637929.6303997103
 20
4846403.451714032
  0
LWPOLYLINE
  5
24A
330
17
100
AcDbEntity
  8
ROADS
100
AcDbPolyline
 90
2
 70
0
 10
638470.4378521071
 20
4846229.301898463
 10
638588.4292624723
 20
4846161.432108135
  0
LWPOLYLINE
  5
24B
330
17
100
AcDbEntity
  8
ROADS
100
AcDbPolyline
 90
2
 70
0
 10
638364.4391276906
 20
4846194.378992788
 10
638470.4378521071
 20
4846229.301898463
  0
LWPOLYLINE
  5
24C
330
17
100
AcDbEntity
  8
ROADS
100
AcDbPolyline
 90
2
 70
0
 10
638354.6443857318
 20
4846293.212065981
 10
638470.4378521071
 20
4846229.301898463
  0
LWPOLYLINE
  5
24D
330
17
100
AcDbEntity
  8
ROADS
100
AcDbPolyline
 90
2
 70
0
 10
638179.7377282172
 20
4846239.040438147
 10
638354.6443857318
 20
4846293.212065981
  0
LWPOLYLINE
  5
24E
330
17
100
AcDbEntity
  8
ROADS
100
AcDbPolyline
 90
2
 70
0
 10
638270.667472524
 20
4846344.284153753
 10
638354.6443857318
 20
4846293.212065981
  0
LWPOLYLINE
  5
24F
330
17
100
AcDbEntity
  8
ROADS
100
AcDbPolyline
 90
2
 70
0
 10
638179.7377282172
 20
4846239.040438147
 10
638126.3460112019
 20
4846410.0008572815
  0
LWPOLYLINE
  5
250
330
17
100
AcDbEntity
  8
ROADS
100
AcDbPolyline
 90
2
 70
0
 10
638159.9879792238
 20
4846406.778576248
 10
638270.667472524
 20
4846344.284153753
  0
LWPOLYLINE
  5
251
330
17
100
AcDbEntity
  8
ROADS
100
AcDbPolyline
 90
2
 70
0
 10
638270.667472524
 20
4846344.284153753
 10
638297.5410176605
 20
4846389.569598707
  0
LWPOLYLINE
  5
252
330
17
100
AcDbEntity
  8
ROADS
100
AcDbPolyline
 90
2
 70
0
 10
637099.070268823
 20
4845317.375549628
 10
637085.6439757014
 20
4845358.137185424
  0
LWPOLYLINE
  5
253
330
17
100
AcDbEntity
  8
ROADS
100
AcDbPolyline
 90
2
 70
0
 10
636968.5063328808
 20
4845341.011630753
 10
636972.5000931236
 20
4845362.086872191
  0
LWPOLYLINE
  5
254
330
17
100
AcDbEntity
  8
ROADS
100
AcDbPolyline
 90
2
 70
0
 10
636972.5000931236
 20
4845362.086872191
 10
637085.6439757014
 20
4845358.137185424
  0
LWPOLYLINE
  5
255
330
17
100
AcDbEntity
  8
ROADS
100
AcDbPolyline
 90
2
 70
0
 10
636867.1932786237
 20
4845330.176191942
 10
636839.2657630699
 20
4845422.6809391575
  0
LWPOLYLINE
  5
256
330
17
100
AcDbEntity
  8
ROADS
100
AcDbPolyline
 90
2
 70
0
 10
636972.5000931236
 20
4845362.086872191
 10
636959.3320083384
 20
4845436.858275289
  0
LWPOLYLINE
  5
257
330
17
100
AcDbEntity
  8
ROADS
100
AcDbPolyline
 90
2
 70
0
 10
636839.2657630699
 20
4845422.6809391575
 10
636959.3320083384
 20
4845436.858275289
  0
LWPOLYLINE
  5
258
330
17
100
AcDbEntity
  8
ROADS
100
AcDbPolyline
 90
2
 70
0
 10
636839.2657630699
 20
4845422.6809391575
 10
636811.3114486483
 20
4845513.185004114
  0
LWPOLYLINE
  5
259
330
17
100
AcDbEntity
  8
ROADS
100
AcDbPolyline
 90
2
 70
0
 10
636959.3320083384
 20
4845436.858275289
 10
636929.4574623413
 20
4845533.329146279
  0
LWPOLYLINE
  5
25A
330
17
100
AcDbEntity
  8
ROADS
100
AcDbPolyline
 90
2
 70
0
 10
636811.3114486483
 20
4845513.185004114
 10
636929.4574623413
 20
4845533.329146279
  0
LWPOLYLINE
  5
25B
330
17
100
AcDbEntity
  8
ROADS
100
AcDbPolyline
 90
2
 70
0
 10
637085.6439757014
 20
4845358.137185424
 10
636973.207946531
 20
4845699.144517361
  0
LWPOLYLINE
  5
25C
330
17
100
AcDbEntity
  8
ROADS
100
AcDbPolyline
 90
2
 70
0
 10
637300.0773083263
 20
4845363.020338101
 10
637451.6370510262
 20
4845481.7756307935
  0
LWPOLYLINE
  5
25D
330
17
100
AcDbEntity
  8
ROADS
100
AcDbPolyline
 90
2
 70
0
 10
637556.8345796746
 20
4845426.673323321
 10
637528.9684835547
 20
4845519.178365557
  0
LWPOLYLINE
  5
25E
330
17
100
AcDbEntity
  8
ROADS
100
AcDbPolyline
 90
2
 70
0
 10
637451.6370510262
 20
4845481.7756307935
 10
637528.9684835547
 20
4845519.178365557
  0
LWPOLYLINE
  5
25F
330
17
100
AcDbEntity
  8
ROADS
100
AcDbPolyline
 90
2
 70
0
 10
637264.0628699835
 20
4845453.378573498
 10
637231.7862947232
 20
4845554.8074937435
  0
LWPOLYLINE
  5
260
330
17
100
AcDbEntity
  8
ROADS
100
AcDbPolyline
 90
6
 70
0
 10
637264.0628699835
 20
4845453.378573498
 10
637338.9344024732
 20
4845526.741067652
 10
637340.758629778
 20
4845584.780471375
 10
637322.8195415545
 20
4845605.458552751
 10
637293.3770189105
 20
4845608.9267419325
 10
637231.7862947232
 20
4845554.8074937435
  0
LWPOLYLINE
  5
261
330
17
100
AcDbEntity
  8
ROADS
100
AcDbPolyline
 90
3
 70
0
 10
637451.6370510262
 20
4845481.7756307935
 10
637428.5754801758
 20
4845609.371894377
 10
637388.3774965093
 20
4845685.652079248
  0
LWPOLYLINE
  5
262
330
17
100
AcDbEntity
  8
ROADS
100
AcDbPolyline
 90
3
 70
0
 10
637231.7862947232
 20
4845554.8074937435
 10
637196.2319542959
 20
4845661.175497261
 10
637271.6668546728
 20
4845720.545432879
  0
LWPOLYLINE
  5
263
330
17
100
AcDbEntity
  8
ROADS
100
AcDbPolyline
 90
2
 70
0
 10
637528.9684835547
 20
4845519.178365557
 10
637422.448258196
 20
4845860.900289073
  0
LWPOLYLINE
  5
264
330
17
100
AcDbEntity
  8
ROADS
100
AcDbPolyline
 90
3
 70
0
 10
637388.3774965093
 20
4845685.652079248
 10
637310.8871639186
 20
4845698.25206765
 10
637271.6668546728
 20
4845720.545432879
  0
LWPOLYLINE
  5
265
330
17
100
AcDbEntity
  8
ROADS
100
AcDbPolyline
 90
2
 70
0
 10
637388.3774965093
 20
4845685.652079248
 10
637331.8632468355
 20
4845832.770346656
  0
LWPOLYLINE
  5
266
330
17
100
AcDbEntity
  8
ROADS
100
AcDbPolyline
 90
2
 70
0
 10
637195.0785509979
 20
4845338.116351403
 10
637070.4957663373
 20
4845736.260593533
  0
LWPOLYLINE
  5
267
330
17
100
AcDbEntity
  8
ROADS
100
AcDbPolyline
 90
2
 70
0
 10
636811.3114486483
 20
4845513.185004114
 10
636779.3019812952
 20
4845613.616527793
  0
LWPOLYLINE
  5
268
330
17
100
AcDbEntity
  8
ROADS
100
AcDbPolyline
 90
2
 70
0
 10
636929.4574623413
 20
4845533.329146279
 10
636924.6044987453
 20
4845625.253666651
  0
LWPOLYLINE
  5
269
330
17
100
AcDbEntity
  8
ROADS
100
AcDbPolyline
 90
2
 70
0
 10
636779.3019812952
 20
4845613.616527793
 10
636924.6044987453
 20
4845625.253666651
  0
LWPOLYLINE
  5
26A
330
17
100
AcDbEntity
  8
ROADS
100
AcDbPolyline
 90
2
 70
0
 10
636924.6044987453
 20
4845625.253666651
 10
636973.207946531
 20
4845699.144517361
  0
LWPOLYLINE
  5
26B
330
17
100
AcDbEntity
  8
ROADS
100
AcDbPolyline
 90
2
 70
0
 10
636779.3019812952
 20
4845613.616527793
 10
636742.5223840992
 20
4845726.068747161
  0
LWPOLYLINE
  5
26C
330
17
100
AcDbEntity
  8
ROADS
100
AcDbPolyline
 90
2
 70
0
 10
636973.207946531
 20
4845699.144517361
 10
637070.4957663373
 20
4845736.260593533
  0
LWPOLYLINE
  5
26D
330
17
100
AcDbEntity
  8
ROADS
100
AcDbPolyline
 90
2
 70
0
 10
636742.5223840992
 20
4845726.068747161
 10
636787.7340014481
 20
4845744.375099611
  0
LWPOLYLINE
  5
26E
330
17
100
AcDbEntity
  8
ROADS
100
AcDbPolyline
 90
3
 70
0
 10
637070.4957663373
 20
4845736.260593533
 10
637083.8260745782
 20
4845728.46926255
 10
637168.697690914
 20
4845757.085743779
  0
LWPOLYLINE
  5
26F
330
17
100
AcDbEntity
  8
ROADS
100
AcDbPolyline
 90
2
 70
0
 10
637070.4957663373
 20
4845736.260593533
 10
637012.7813258982
 20
4845920.660394403
  0
LWPOLYLINE
  5
270
330
17
100
AcDbEntity
  8
ROADS
100
AcDbPolyline
 90
2
 70
0
 10
637607.8540248291
 20
4845101.558786683
 10
637592.9587696807
 20
4845154.29601255
  0
LWPOLYLINE
  5
271
330
17
100
AcDbEntity
  8
ROADS
100
AcDbPolyline
 90
2
 70
0
 10
637607.8540248291
 20
4845101.558786683
 10
637844.4418211884
 20
4845177.851622375
  0
LWPOLYLINE
  5
272
330
17
100
AcDbEntity
  8
ROADS
100
AcDbPolyline
 90
2
 70
0
 10
637844.4418211884
 20
4845177.851622375
 10
638094.4178695485
 20
4845260.394569164
  0
LWPOLYLINE
  5
273
330
17
100
AcDbEntity
  8
ROADS
100
AcDbPolyline
 90
3
 70
0
 10
637592.9587696807
 20
4845154.29601255
 10
637616.0332594092
 20
4845229.72084476
 10
637587.0850268898
 20
4845330.211069762
  0
LWPOLYLINE
  5
274
330
17
100
AcDbEntity
  8
ROADS
100
AcDbPolyline
 90
2
 70
0
 10
638061.9208534533
 20
4845366.816239798
 10
637938.7484963118
 20
4845750.070137491
  0
LWPOLYLINE
  5
275
330
17
100
AcDbEntity
  8
ROADS
100
AcDbPolyline
 90
3
 70
0
 10
637844.4418211884
 20
4845177.851622375
 10
637553.9024933125
 20
4846088.691931266
 10
637800.331077635
 20
4846180.164087294
  0
LWPOLYLINE
  5
276
330
17
100
AcDbEntity
  8
ROADS
100
AcDbPolyline
 90
2
 70
0
 10
637938.7484963118
 20
4845750.070137491
 10
638029.4563634461
 20
4845778.27333736
  0
LWPOLYLINE
  5
277
330
17
100
AcDbEntity
  8
ROADS
100
AcDbPolyline
 90
2
 70
0
 10
637938.7484963118
 20
4845750.070137491
 10
637843.5497101485
 20
4846047.933303038
  0
LWPOLYLINE
  5
278
330
17
100
AcDbEntity
  8
ROADS
100
AcDbPolyline
 90
2
 70
0
 10
638029.4563634461
 20
4845778.27333736
 10
637934.4134851452
 20
4846076.581441282
  0
LWPOLYLINE
  5
279
330
17
100
AcDbEntity
  8
ROADS
100
AcDbPolyline
 90
2
 70
0
 10
637843.5497101485
 20
4846047.933303038
 10
637934.4134851452
 20
4846076.581441282
  0
LWPOLYLINE
  5
27A
330
17
100
AcDbEntity
  8
ROADS
100
AcDbPolyline
 90
3
 70
0
 10
636742.5223840992
 20
4845726.068747161
 10
636688.5485054114
 20
4845903.004428453
 10
636777.7189237892
 20
4845935.62313063
  0
LWPOLYLINE
  5
27B
330
17
100
AcDbEntity
  8
ROADS
100
AcDbPolyline
 90
2
 70
0
 10
636973.207946531
 20
4845699.144517361
 10
636890.9285248216
 20
4845969.679297506
  0
LWPOLYLINE
  5
27C
330
17
100
AcDbEntity
  8
ROADS
100
AcDbPolyline
 90
3
 70
0
 10
637168.697690914
 20
4845757.085743779
 10
637106.199458342
 20
4845938.57670059
 10
637012.7813258982
 20
4845920.660394403
  0
LWPOLYLINE
  5
27D
330
17
100
AcDbEntity
  8
ROADS
100
AcDbPolyline
 90
2
 70
0
 10
636777.7189237892
 20
4845935.62313063
 10
636890.9285248216
 20
4845969.679297506
  0
LWPOLYLINE
  5
27E
330
17
100
AcDbEntity
  8
ROADS
100
AcDbPolyline
 90
2
 70
0
 10
637012.7813258982
 20
4845920.660394403
 10
636987.5962176241
 20
4846002.43381471
  0
LWPOLYLINE
  5
27F
330
17
100
AcDbEntity
  8
ROADS
100
AcDbPolyline
 90
2
 70
0
 10
636777.7189237892
 20
4845935.62313063
 10
636762.5322657955
 20
4845983.548325477
  0
LWPOLYLINE
  5
280
330
17
100
AcDbEntity
  8
ROADS
100
AcDbPolyline
 90
2
 70
0
 10
636890.9285248216
 20
4845969.679297506
 10
636987.5962176241
 20
4846002.43381471
  0
LWPOLYLINE
  5
281
330
17
100
AcDbEntity
  8
ROADS
100
AcDbPolyline
 90
3
 70
0
 10
636987.5962176241
 20
4846002.43381471
 10
637070.3331380886
 20
4846044.935975153
 10
637102.0382285252
 20
4846085.51384561
  0
LWPOLYLINE
  5
282
330
17
100
AcDbEntity
  8
ROADS
100
AcDbPolyline
 90
3
 70
0
 10
637102.0382285252
 20
4846085.51384561
 10
637178.7697842908
 20
4846017.895147012
 10
637210.301188337
 20
4846050.117112185
  0
LWPOLYLINE
  5
283
330
17
100
AcDbEntity
  8
ROADS
100
AcDbPolyline
 90
2
 70
0
 10
637271.6668546728
 20
4845720.545432879
 10
637247.270747405
 20
4845805.914049735
  0
LWPOLYLINE
  5
284
330
17
100
AcDbEntity
  8
ROADS
100
AcDbPolyline
 90
2
 70
0
 10
637168.697690914
 20
4845757.085743779
 10
637247.270747405
 20
4845805.914049735
  0
LWPOLYLINE
  5
285
330
17
100
AcDbEntity
  8
ROADS
100
AcDbPolyline
 90
2
 70
0
 10
637247.270747405
 20
4845805.914049735
 10
637331.8632468355
 20
4845832.770346656
  0
LWPOLYLINE
  5
286
330
17
100
AcDbEntity
  8
ROADS
100
AcDbPolyline
 90
2
 70
0
 10
637331.8632468355
 20
4845832.770346656
 10
637422.448258196
 20
4845860.900289073
  0
LWPOLYLINE
  5
287
330
17
100
AcDbEntity
  8
ROADS
100
AcDbPolyline
 90
2
 70
0
 10
637422.448258196
 20
4845860.900289073
 10
637380.976753989
 20
4845990.268302749
  0
LWPOLYLINE
  5
288
330
17
100
AcDbEntity
  8
ROADS
100
AcDbPolyline
 90
4
 70
0
 10
637380.976753989
 20
4845990.268302749
 10
637250.9949365513
 20
4845945.416364443
 10
637248.1096197054
 20
4846018.146828606
 10
637210.301188337
 20
4846050.117112185
  0
LWPOLYLINE
  5
289
330
17
100
AcDbEntity
  8
ROADS
100
AcDbPolyline
 90
4
 70
0
 10
637210.301188337
 20
4846050.117112185
 10
637254.8134737193
 20
4846095.27834814
 10
637232.9962874516
 20
4846160.890314477
 10
637232.2812570396
 20
4846161.516877361
  0
LWPOLYLINE
  5
28A
330
17
100
AcDbEntity
  8
ROADS
100
AcDbPolyline
 90
2
 70
0
 10
637380.976753989
 20
4845990.268302749
 10
637319.3281799085
 20
4846179.757855088
  0
LWPOLYLINE
  5
28B
330
17
100
AcDbEntity
  8
ROADS
100
AcDbPolyline
 90
2
 70
0
 10
636987.5962176241
 20
4846002.43381471
 10
636963.7387278969
 20
4846077.197744099
  0
LWPOLYLINE
  5
28C
330
17
100
AcDbEntity
  8
ROADS
100
AcDbPolyline
 90
2
 70
0
 10
637102.0382285252
 20
4846085.51384561
 10
637137.1580499384
 20
4846131.694556842
  0
LWPOLYLINE
  5
28D
330
17
100
AcDbEntity
  8
ROADS
100
AcDbPolyline
 90
2
 70
0
 10
637102.0382285252
 20
4846085.51384561
 10
637076.0443711238
 20
4846112.2211827515
  0
LWPOLYLINE
  5
28E
330
17
100
AcDbEntity
  8
ROADS
100
AcDbPolyline
 90
2
 70
0
 10
638588.4292624723
 20
4846161.432108135
 10
638595.6825862054
 20
4846116.558137591
  0
LWPOLYLINE
  5
28F
330
17
100
AcDbEntity
  8
ROADS
100
AcDbPolyline
 90
2
 70
0
 10
638642.0231747968
 20
4846132.399846649
 10
638694.8461764347
 20
4846149.358058374
  0
LWPOLYLINE
  5
290
330
17
100
AcDbEntity
  8
ROADS
100
AcDbPolyline
 90
2
 70
0
 10
638588.4292624723
 20
4846161.432108135
 10
638642.0231747968
 20
4846132.399846649
  0
LWPOLYLINE
  5
291
330
17
100
AcDbEntity
  8
ROADS
100
AcDbPolyline
 90
2
 70
0
 10
638694.8461764347
 20
4846149.358058374
 10
638656.6706007912
 20
4846279.014067603
  0
ENDSEC
  0
SECTION
  2
OBJECTS
  0
DICTIONARY
  5
A
330
0
100
AcDbDictionary
281
1
  3
ACAD_COLOR
350
B
  3
ACAD_GROUP
350
C
  3
ACAD_LAYOUT
350
D
  3
ACAD_MATERIAL
350
E
  3
ACAD_MLEADERSTYLE
350
F
  3
ACAD_MLINESTYLE
350
10
  3
ACAD_PLOTSETTINGS
350
11
  3
ACAD_PLOTSTYLENAME
350
12
  3
ACAD_SCALELIST
350
14
  3
ACAD_TABLESTYLE
350
15
  3
ACAD_VISUALSTYLE
350
16
  3
EZDXF_META
350
2D
  0
DICTIONARY
  5
B
330
A
100
AcDbDictionary
281
1
  0
DICTIONARY
  5
C
330
A
100
AcDbDictionary
281
1
  0
DICTIONARY
  5
D
330
A
100
AcDbDictionary
281
1
  3
Model
350
1A
  3
Layout1
350
1E
  0
DICTIONARY
  5
E
330
A
100
AcDbDictionary
281
1
  3
ByBlock
350
1F
  3
ByLayer
350
20
  3
Global
350
21
  0
DICTIONARY
  5
F
330
A
100
AcDbDictionary
281
1
  3
Standard
350
2C
  0
DICTIONARY
  5
10
330
A
100
AcDbDictionary
281
1
  3
Standard
350
22
  0
DICTIONARY
  5
11
330
A
100
AcDbDictionary
281
1
  0
ACDBDICTIONARYWDFLT
  5
12
330
A
100
AcDbDictionary
281
1
  3
Normal
350
13
100
AcDbDictionaryWithDefault
340
13
  0
ACDBPLACEHOLDER
  5
13
330
12
  0
DICTIONARY
  5
14
330
A
100
AcDbDictionary
281
1
  0
DICTIONARY
  5
15
330
A
100
AcDbDictionary
281
1
  0
DICTIONARY
  5
16
330
A
100
AcDbDictionary
281
1
  0
LAYOUT
  5
1A
330
D
100
AcDbPlotSettings
  1

  4
A3
  6

 40
7.5
 41
20.0
 42
7.5
 43
20.0
 44
420.0
 45
297.0
 46
0.0
 47
0.0
 48
0.0
 49
0.0
140
0.0
141
0.0
142
1.0
143
1.0
 70
1024
 72
1
 73
0
 74
5
  7

 75
16
 76
0
 77
2
 78
300
147
1.0
148
0.0
149
0.0
100
AcDbLayout
  1
Model
 70
1
 71
0
 10
0.0
 20
0.0
 11
420.0
 21
297.0
 12
0.0
 22
0.0
 32
0.0
 14
1e+20
 24
1e+20
 34
1e+20
 15
-1e+20
 25
-1e+20
 35
-1e+20
146
0.0
 13
0.0
 23
0.0
 33
0.0
 16
1.0
 26
0.0
 36
0.0
 17
0.0
 27
1.0
 37
0.0
 76
1
330
17
  0
LAYOUT
  5
1E
330
D
100
AcDbPlotSettings
  1

  4
A3
  6

 40
7.5
 41
20.0
 42
7.5
 43
20.0
 44
420.0
 45
297.0
 46
0.0
 47
0.0
 48
0.0
 49
0.0
140
0.0
141
0.0
142
1.0
143
1.0
 70
0
 72
1
 73
0
 74
5
  7

 75
16
 76
0
 77
2
 78
300
147
1.0
148
0.0
149
0.0
100
AcDbLayout
  1
Layout1
 70
1
 71
1
 10
0.0
 20
0.0
 11
420.0
 21
297.0
 12
0.0
 22
0.0
 32
0.0
 14
1e+20
 24
1e+20
 34
1e+20
 15
-1e+20
 25
-1e+20
 35
-1e+20
146
0.0
 13
0.0
 23
0.0
 33
0.0
 16
1.0
 26
0.0
 36
0.0
 17
0.0
 27
1.0
 37
0.0
 76
1
330
1B
  0
MATERIAL
  5
1F
102
{ACAD_REACTORS
330
E
102
}
330
E
100
AcDbMaterial
  1
ByBlock
  2

 70
0
 40
1.0
 71
1
 41
1.0
 91
-1023410177
 42
1.0
 72
1
  3

 73
1
 74
1
 75
1
 44
0.5
 73
0
 45
1.0
 46
1.0
 77
1
  4

 78
1
 79
1
170
1
 48
1.0
171
1
  6

172
1
173
1
174
1
140
1.0
141
1.0
175
1
  7

176
1
177
1
178
1
143
1.0
179
1
  8

270
1
271
1
272
1
145
1.0
146
1.0
273
1
  9

274
1
275
1
276
1
 42
1.0
 72
1
  3

 73
1
 74
1
 75
1
 94
63
  0
MATERIAL
  5
20
102
{ACAD_REACTORS
330
E
102
}
330
E
100
AcDbMaterial
  1
ByLayer
  2

 70
0
 40
1.0
 71
1
 41
1.0
 91
-1023410177
 42
1.0
 72
1
  3

 73
1
 74
1
 75
1
 44
0.5
 73
0
 45
1.0
 46
1.0
 77
1
  4

 78
1
 79
1
170
1
 48
1.0
171
1
  6

172
1
173
1
174
1
140
1.0
141
1.0
175
1
  7

176
1
177
1
178
1
143
1.0
179
1
  8

270
1
271
1
272
1
145
1.0
146
1.0
273
1
  9

274
1
275
1
276
1
 42
1.0
 72
1
  3

 73
1
 74
1
 75
1
 94
63
  0
MATERIAL
  5
21
102
{ACAD_REACTORS
330
E
102
}
330
E
100
AcDbMaterial
  1
Global
  2

 70
0
 40
1.0
 71
1
 41
1.0
 91
-1023410177
 42
1.0
 72
1
  3

 73
1
 74
1
 75
1
 44
0.5
 73
0
 45
1.0
 46
1.0
 77
1
  4

 78
1
 79
1
170
1
 48
1.0
171
1
  6

172
1
173
1
174
1
140
1.0
141
1.0
175
1
  7

176
1
177
1
178
1
143
1.0
179
1
  8

270
1
271
1
272
1
145
1.0
146
1.0
273
1
  9

274
1
275
1
276
1
 42
1.0
 72
1
  3

 73
1
 74
1
 75
1
 94
63
  0
MLINESTYLE
  5
22
102
{ACAD_REACTORS
330
10
102
}
330
10
100
AcDbMlineStyle
  2
Standard
 70
0
  3

 62
256
 51
90.0
 52
90.0
 71
2
 49
0.5
 62
256
  6
BYLAYER
 49
-0.5
 62
256
  6
BYLAYER
  0
MLEADERSTYLE
  5
2C
102
{ACAD_REACTORS
330
F
102
}
330
F
100
AcDbMLeaderStyle
179
2
170
2
171
1
172
0
 90
2
 40
0.0
 41
0.0
173
1
 91
-1056964608
 92
-2
290
1
 42
2.0
291
1
 43
8.0
  3
Standard
 44
4.0
300

342
29
174
1
175
1
176
0
178
1
 93
-1056964608
 45
4.0
292
0
297
0
 46
4.0
 94
-1056964608
 47
1.0
 49
1.0
140
1.0
294
1
141
0.0
177
0
142
1.0
295
0
296
0
143
3.75
271
0
272
9
273
9
  0
DICTIONARY
  5
2D
330
A
100
AcDbDictionary
280
1
281
1
  3
CREATED_BY_EZDXF
350
2E
  3
WRITTEN_BY_EZDXF
350
294
  0
DICTIONARYVAR
  5
2E
330
2D
100
DictionaryVariables
280
0
  1
1.4.4 @ 2026-07-30T15:42:59.211221+00:00
  0
DICTIONARYVAR
  5
294
330
2D
100
DictionaryVariables
280
0
  1
1.4.4 @ 2026-07-30T15:42:59.282067+00:00
  0
ENDSEC
  0
EOF
