  0
SECTION
  2
HEADER
  9
$ACADVER
  1
AC1015
  9
$ACADMAINTVER
 70
6
  9
$DWGCODEPAGE
  3
ANSI_1252
  9
$INSBASE
 10
0.0
 20
0.0
 30
0.0
  9
$EXTMIN
 10
1e+20
 20
1e+20
 30
1e+20
  9
$EXTMAX
 10
-1e+20
 20
-1e+20
 30
-1e+20
  9
$LIMMIN
 10
0.0
 20
0.0
  9
$LIMMAX
 10
420.0
 20
297.0
  9
$ORTHOMODE
 70
0
  9
$REGENMODE
 70
1
  9
$FILLMODE
 70
1
  9
$QTEXTMODE
 70
0
  9
$MIRRTEXT
 70
1
  9
$LTSCALE
 40
1.0
  9
$ATTMODE
 70
1
  9
$TEXTSIZE
 40
2.5
  9
$TRACEWID
 40
1.0
  9
$TEXTSTYLE
  7
Standard
  9
$CLAYER
  8
0
  9
$CELTYPE
  6
ByLayer
  9
$CECOLOR
 62
256
  9
$CELTSCALE
 40
1.0
  9
$DISPSILH
 70
0
  9
$DIMSCALE
 40
1.0
  9
$DIMASZ
 40
2.5
  9
$DIMEXO
 40
0.625
  9
$DIMDLI
 40
3.75
  9
$DIMRND
 40
0.0
  9
$DIMDLE
 40
0.0
  9
$DIMEXE
 40
1.25
  9
$DIMTP
 40
0.0
  9
$DIMTM
 40
0.0
  9
$DIMTXT
 40
2.5
  9
$DIMCEN
 40
2.5
  9
$DIMTSZ
 40
0.0
  9
$DIMTOL
 70
0
  9
$DIMLIM
 70
0
  9
$DIMTIH
 70
0
  9
$DIMTOH
 70
0
  9
$DIMSE1
 70
0
  9
$DIMSE2
 70
0
  9
$DIMTAD
 70
1
  9
$DIMZIN
 70
8
  9
$DIMBLK
  1

  9
$DIMASO
 70
1
  9
$DIMSHO
 70
1
  9
$DIMPOST
  1

  9
$DIMAPOST
  1

  9
$DIMALT
 70
0
  9
$DIMALTD
 70
3
  9
$DIMALTF
 40
0.03937007874
  9
$DIMLFAC
 40
1.0
  9
$DIMTOFL
 70
1
  9
$DIMTVP
 40
0.0
  9
$DIMTIX
 70
0
  9
$DIMSOXD
 70
0
  9
$DIMSAH
 70
0
  9
$DIMBLK1
  1

  9
$DIMBLK2
  1

  9
$DIMSTYLE
  2
ISO-25
  9
$DIMCLRD
 70
0
  9
$DIMCLRE
 70
0
  9
$DIMCLRT
 70
0
  9
$DIMTFAC
 40
1.0
  9
$DIMGAP
 40
0.625
  9
$DIMJUST
 70
0
  9
$DIMSD1
 70
0
  9
$DIMSD2
 70
0
  9
$DIMTOLJ
 70
0
  9
$DIMTZIN
 70
8
  9
$DIMALTZ
 70
0
  9
$DIMALTTZ
 70
0
  9
$DIMUPT
 70
0
  9
$DIMDEC
 70
2
  9
$DIMTDEC
 70
2
  9
$DIMALTU
 70
2
  9
$DIMALTTD
 70
3
  9
$DIMTXSTY
  7
Standard
  9
$DIMAUNIT
 70
0
  9
$DIMADEC
 70
0
  9
$DIMALTRND
 40
0.0
  9
$DIMAZIN
 70
0
  9
$DIMDSEP
 70
44
  9
$DIMATFIT
 70
3
  9
$DIMFRAC
 70
0
  9
$DIMLDRBLK
  1

  9
$DIMLUNIT
 70
2
  9
$DIMLWD
 70
-2
  9
$DIMLWE
 70
-2
  9
$DIMTMOVE
 70
0
  9
$LUNITS
 70
2
  9
$LUPREC
 70
4
  9
$SKETCHINC
 40
1.0
  9
$FILLETRAD
 40
10.0
  9
$AUNITS
 70
0
  9
$AUPREC
 70
2
  9
$MENU
  1
.
  9
$ELEVATION
 40
0.0
  9
$PELEVATION
 40
0.0
  9
$THICKNESS
 40
0.0
  9
$LIMCHECK
 70
0
  9
$CHAMFERA
 40
0.0
  9
$CHAMFERB
 40
0.0
  9
$CHAMFERC
 40
0.0
  9
$CHAMFERD
 40
0.0
  9
$SKPOLY
 70
0
  9
$TDCREATE
 40
2461229.097789352
  9
$TDUCREATE
 40
2458532.153996898
  9
$TDUPDATE
 40
2461229.097789352
  9
$TDUUPDATE
 40
2458532.1544311
  9
$TDINDWG
 40
0.0
  9
$TDUSRTIMER
 40
0.0
  9
$USRTIMER
 70
1
  9
$ANGBASE
 50
0.0
  9
$ANGDIR
 70
0
  9
$PDMODE
 70
0
  9
$PDSIZE
 40
0.0
  9
$PLINEWID
 40
0.0
  9
$SPLFRAME
 70
0
  9
$SPLINETYPE
 70
6
  9
$SPLINESEGS
 70
8
  9
$HANDSEED
  5
32D
  9
$SURFTAB1
 70
6
  9
$SURFTAB2
 70
6
  9
$SURFTYPE
 70
6
  9
$SURFU
 70
6
  9
$SURFV
 70
6
  9
$UCSBASE
  2

  9
$UCSNAME
  2

  9
$UCSORG
 10
0.0
 20
0.0
 30
0.0
  9
$UCSXDIR
 10
1.0
 20
0.0
 30
0.0
  9
$UCSYDIR
 10
0.0
 20
1.0
 30
0.0
  9
$UCSORTHOREF
  2

  9
$UCSORTHOVIEW
 70
0
  9
$UCSORGTOP
 10
0.0
 20
0.0
 30
0.0
  9
$UCSORGBOTTOM
 10
0.0
 20
0.0
 30
0.0
  9
$UCSORGLEFT
 10
0.0
 20
0.0
 30
0.0
  9
$UCSORGRIGHT
 10
0.0
 20
0.0
 30
0.0
  9
$UCSORGFRONT
 10
0.0
 20
0.0
 30
0.0
  9
$UCSORGBACK
 10
0.0
 20
0.0
 30
0.0
  9
$PUCSBASE
  2

  9
$PUCSNAME
  2

  9
$PUCSORG
 10
0.0
 20
0.0
 30
0.0
  9
$PUCSXDIR
 10
1.0
 20
0.0
 30
0.0
  9
$PUCSYDIR
 10
0.0
 20
1.0
 30
0.0
  9
$PUCSORTHOREF
  2

  9
$PUCSORTHOVIEW
 70
0
  9
$PUCSORGTOP
 10
0.0
 20
0.0
 30
0.0
  9
$PUCSORGBOTTOM
 10
0.0
 20
0.0
 30
0.0
  9
$PUCSORGLEFT
 10
0.0
 20
0.0
 30
0.0
  9
$PUCSORGRIGHT
 10
0.0
 20
0.0
 30
0.0
  9
$PUCSORGFRONT
 10
0.0
 20
0.0
 30
0.0
  9
$PUCSORGBACK
 10
0.0
 20
0.0
 30
0.0
  9
$USERI1
 70
0
  9
$USERI2
 70
0
  9
$USERI3
 70
0
  9
$USERI4
 70
0
  9
$USERI5
 70
0
  9
$USERR1
 40
0.0
  9
$USERR2
 40
0.0
  9
$USERR3
 40
0.0
  9
$USERR4
 40
0.0
  9
$USERR5
 40
0.0
  9
$WORLDVIEW
 70
1
  9
$SHADEDGE
 70
3
  9
$SHADEDIF
 70
70
  9
$TILEMODE
 70
1
  9
$MAXACTVP
 70
64
  9
$PINSBASE
 10
0.0
 20
0.0
 30
0.0
  9
$PLIMCHECK
 70
0
  9
$PEXTMIN
 10
1e+20
 20
1e+20
 30
1e+20
  9
$PEXTMAX
 10
-1e+20
 20
-1e+20
 30
-1e+20
  9
$PLIMMIN
 10
0.0
 20
0.0
  9
$PLIMMAX
 10
420.0
 20
297.0
  9
$UNITMODE
 70
0
  9
$VISRETAIN
 70
1
  9
$PLINEGEN
 70
0
  9
$PSLTSCALE
 70
1
  9
$TREEDEPTH
 70
3020
  9
$CMLSTYLE
  2
Standard
  9
$CMLJUST
 70
0
  9
$CMLSCALE
 40
20.0
  9
$PROXYGRAPHICS
 70
1
  9
$MEASUREMENT
 70
1
  9
$CELWEIGHT
370
-1
  9
$ENDCAPS
280
0
  9
$JOINSTYLE
280
0
  9
$LWDISPLAY
290
0
  9
$INSUNITS
 70
6
  9
$HYPERLINKBASE
  1

  9
$STYLESHEET
  1

  9
$XEDIT
290
1
  9
$CEPSNTYPE
380
0
  9
$PSTYLEMODE
290
1
  9
$FINGERPRINTGUID
  2
{3F937D33-BFBF-4D22-9523-CBBA3BFF1571}
  9
$VERSIONGUID
  2
{D38C43CD-81C9-44FA-B3FE-AF1CA767EA61}
  9
$EXTNAMES
290
1
  9
$PSVPSCALE
 40
0.0
  9
$OLESTARTUP
290
0
  0
ENDSEC
  0
SECTION
  2
CLASSES
  0
CLASS
  1
ACDBDICTIONARYWDFLT
  2
AcDbDictionaryWithDefault
  3
ObjectDBX Classes
 90
0
280
0
281
0
  0
CLASS
  1
SUN
  2
AcDbSun
  3
SCENEOE
 90
1153
280
0
281
0
  0
CLASS
  1
VISUALSTYLE
  2
AcDbVisualStyle
  3
ObjectDBX Classes
 90
4095
280
0
281
0
  0
CLASS
  1
MATERIAL
  2
AcDbMaterial
  3
ObjectDBX Classes
 90
1153
280
0
281
0
  0
CLASS
  1
SCALE
  2
AcDbScale
  3
ObjectDBX Classes
 90
1153
280
0
281
0
  0
CLASS
  1
TABLESTYLE
  2
AcDbTableStyle
  3
ObjectDBX Classes
 90
4095
280
0
281
0
  0
CLASS
  1
MLEADERSTYLE
  2
AcDbMLeaderStyle
  3
ACDB_MLEADERSTYLE_CLASS
 90
4095
280
0
281
0
  0
CLASS
  1
DICTIONARYVAR
  2
AcDbDictionaryVar
  3
ObjectDBX Classes
 90
0
280
0
281
0
  0
CLASS
  1
CELLSTYLEMAP
  2
AcDbCellStyleMap
  3
ObjectDBX Classes
 90
1152
280
0
281
0
  0
CLASS
  1
MENTALRAYRENDERSETTINGS
  2
AcDbMentalRayRenderSettings
  3
SCENEOE
 90
1024
280
0
281
0
  0
CLASS
  1
ACDBDETAILVIEWSTYLE
  2
AcDbDetailViewStyle
  3
ObjectDBX Classes
 90
1025
280
0
281
0
  0
CLASS
  1
ACDBSECTIONVIEWSTYLE
  2
AcDbSectionViewStyle
  3
ObjectDBX Classes
 90
1025
280
0
281
0
  0
CLASS
  1
RASTERVARIABLES
  2
AcDbRasterVariables
  3
ISM
 90
0
280
0
281
0
  0
CLASS
  1
ACDBPLACEHOLDER
  2
AcDbPlaceHolder
  3
ObjectDBX Classes
 90
0
280
0
281
0
  0
CLASS
  1
LAYOUT
  2
AcDbLayout
  3
ObjectDBX Classes
 90
0
280
0
281
0
  0
ENDSEC
  0
SECTION
  2
TABLES
  0
TABLE
  2
VPORT
  5
8
330
0
100
AcDbSymbolTable
 70
1
  0
VPORT
  5
23
330
8
100
AcDbSymbolTableRecord
100
AcDbViewportTableRecord
  2
*Active
 70
0
 10
0.0
 20
0.0
 11
1.0
 21
1.0
 12
0.0
 22
0.0
 13
0.0
 23
0.0
 14
0.5
 24
0.5
 15
0.5
 25
0.5
 16
0.0
 26
0.0
 36
1.0
 17
0.0
 27
0.0
 37
0.0
 40
1000.0
 41
1.34
 42
50.0
 43
0.0
 44
0.0
 50
0.0
 51
0.0
 71
0
 72
1000
 73
1
 74
3
 75
0
 76
0
 77
0
 78
0
281
0
 65
0
146
0.0
  0
ENDTAB
  0
TABLE
  2
LTYPE
  5
2
330
0
100
AcDbSymbolTable
 70
3
  0
LTYPE
  5
24
330
2
100
AcDbSymbolTableRecord
100
AcDbLinetypeTableRecord
  2
ByBlock
 70
0
  3

 72
65
 73
0
 40
0.0
  0
LTYPE
  5
25
330
2
100
AcDbSymbolTableRecord
100
AcDbLinetypeTableRecord
  2
ByLayer
 70
0
  3

 72
65
 73
0
 40
0.0
  0
LTYPE
  5
26
330
2
100
AcDbSymbolTableRecord
100
AcDbLinetypeTableRecord
  2
Continuous
 70
0
  3

 72
65
 73
0
 40
0.0
  0
ENDTAB
  0
TABLE
  2
LAYER
  5
1
330
0
100
AcDbSymbolTable
 70
2
  0
LAYER
  5
27
330
1
100
AcDbSymbolTableRecord
100
AcDbLayerTableRecord
  2
0
 70
0
 62
7
  6
Continuous
370
-3
390
13
  0
LAYER
  5
28
330
1
100
AcDbSymbolTableRecord
100
AcDbLayerTableRecord
  2
Defpoints
 70
0
 62
7
  6
Continuous
290
0
370
-3
390
13
  0
ENDTAB
  0
TABLE
  2
STYLE
  5
5
330
0
100
AcDbSymbolTable
 70
1
  0
STYLE
  5
29
330
5
100
AcDbSymbolTableRecord
100
AcDbTextStyleTableRecord
  2
Standard
 70
0
 40
0.0
 41
1.0
 50
0.0
 71
0
 42
2.5
  3
txt
  4

  0
ENDTAB
  0
TABLE
  2
VIEW
  5
7
330
0
100
AcDbSymbolTable
 70
0
  0
ENDTAB
  0
TABLE
  2
UCS
  5
6
330
0
100
AcDbSymbolTable
 70
0
  0
ENDTAB
  0
TABLE
  2
APPID
  5
3
330
0
100
AcDbSymbolTable
 70
3
  0
APPID
  5
2A
330
3
100
AcDbSymbolTableRecord
100
AcDbRegAppTableRecord
  2
ACAD
 70
0
  0
APPID
  5
32A
330
3
100
AcDbSymbolTableRecord
100
AcDbRegAppTableRecord
  2
HATCHBACKGROUNDCOLOR
 70
0
  0
APPID
  5
32B
330
3
100
AcDbSymbolTableRecord
100
AcDbRegAppTableRecord
  2
EZDXF
 70
0
  0
ENDTAB
  0
TABLE
  2
DIMSTYLE
  5
4
330
0
100
AcDbSymbolTable
 70
1
100
AcDbDimStyleTable
  0
DIMSTYLE
105
2B
330
4
100
AcDbSymbolTableRecord
100
AcDbDimStyleTableRecord
  2
Standard
 70
0
  3

  4

 40
1.0
 41
2.5
 42
0.625
 43
3.75
 44
1.25
 45
0.0
 46
0.0
 47
0.0
 48
0.0
140
2.5
141
2.5
142
0.0
143
0.03937007874
144
1.0
145
0.0
146
1.0
147
0.625
148
0.0
 71
0
 72
0
 73
0
 74
0
 75
0
 76
0
 77
1
 78
8
 79
3
170
0
171
3
172
1
173
0
174
0
175
0
176
0
177
0
178
0
179
2
271
2
272
2
273
2
274
3
275
0
276
0
277
2
278
44
279
0
280
0
281
0
282
0
283
0
284
8
285
0
286
0
288
0
289
3
371
-2
372
-2
  0
ENDTAB
  0
TABLE
  2
BLOCK_RECORD
  5
9
330
0
100
AcDbSymbolTable
 70
2
  0
BLOCK_RECORD
  5
17
330
9
100
AcDbSymbolTableRecord
100
AcDbBlockTableRecord
  2
*Model_Space
340
1A
  0
BLOCK_RECORD
  5
1B
330
9
100
AcDbSymbolTableRecord
100
AcDbBlockTableRecord
  2
*Paper_Space
340
1E
  0
ENDTAB
  0
ENDSEC
  0
SECTION
  2
BLOCKS
  0
BLOCK
  5
18
330
17
100
AcDbEntity
  8
0
100
AcDbBlockBegin
  2
*Model_Space
 70
0
 10
0.0
 20
0.0
 30
0.0
  3
*Model_Space
  1

  0
ENDBLK
  5
19
330
17
100
AcDbEntity
  8
0
100
AcDbBlockEnd
  0
BLOCK
  5
1C
330
1B
100
AcDbEntity
  8
0
100
AcDbBlockBegin
  2
*Paper_Space
 70
0
 10
0.0
 20
0.0
 30
0.0
  3
*Paper_Space
  1

  0
ENDBLK
  5
1D
330
1B
100
AcDbEntity
  8
0
100
AcDbBlockEnd
  0
ENDSEC
  0
SECTION
  2
ENTITIES
  0
LWPOLYLINE
  5
2F
330
17
100
AcDbEntity
  8
ROADS
100
AcDbPolyline
 90
2
 70
0
 10
625763.4016419251
 20
4836482.733355977
 10
625761.1893236671
 20
4836489.465836113
  0
LWPOLYLINE
  5
30
330
17
100
AcDbEntity
  8
ROADS
100
AcDbPolyline
 90
2
 70
0
 10
625711.8887173816
 20
4836474.586655573
 10
625612.8786207039
 20
4836504.132071527
  0
LWPOLYLINE
  5
31
330
17
100
AcDbEntity
  8
ROADS
100
AcDbPolyline
 90
3
 70
0
 10
625397.6852853524
 20
4836537.2100242525
 10
625350.9317558088
 20
4836522.049810786
 10
625355.0887633176
 20
4836508.728107756
  0
LWPOLYLINE
  5
32
330
17
100
AcDbEntity
  8
ROADS
100
AcDbPolyline
 90
2
 70
0
 10
625298.7382524526
 20
4836530.53902347
 10
625274.9546884361
 20
4836609.531981631
  0
LWPOLYLINE
  5
33
330
17
100
AcDbEntity
  8
ROADS
100
AcDbPolyline
 90
2
 70
0
 10
625612.8786207039
 20
4836504.132071527
 10
625518.0568357758
 20
4836472.73169486
  0
LWPOLYLINE
  5
34
330
17
100
AcDbEntity
  8
ROADS
100
AcDbPolyline
 90
2
 70
0
 10
625793.8376700784
 20
4836489.596294658
 10
625761.1893236671
 20
4836489.465836113
  0
LWPOLYLINE
  5
35
330
17
100
AcDbEntity
  8
ROADS
100
AcDbPolyline
 90
2
 70
0
 10
625517.8816117198
 20
4836472.74617034
 10
625504.4268261051
 20
4836512.129605651
  0
LWPOLYLINE
  5
36
330
17
100
AcDbEntity
  8
ROADS
100
AcDbPolyline
 90
2
 70
0
 10
625520.9798704707
 20
4836511.653875221
 10
625504.4268261051
 20
4836512.129605651
  0
LWPOLYLINE
  5
37
330
17
100
AcDbEntity
  8
ROADS
100
AcDbPolyline
 90
3
 70
0
 10
625612.8786207039
 20
4836504.132071527
 10
625580.8726086968
 20
4836520.236289996
 10
625520.9798704707
 20
4836511.653875221
  0
LWPOLYLINE
  5
38
330
17
100
AcDbEntity
  8
ROADS
100
AcDbPolyline
 90
2
 70
0
 10
625705.4894067628
 20
4836502.391470163
 10
625695.6943036971
 20
4836531.789054742
  0
LWPOLYLINE
  5
39
330
17
100
AcDbEntity
  8
ROADS
100
AcDbPolyline
 90
2
 70
0
 10
625695.6943036971
 20
4836531.789054742
 10
625612.8786207039
 20
4836504.132071527
  0
LWPOLYLINE
  5
3A
330
17
100
AcDbEntity
  8
ROADS
100
AcDbPolyline
 90
2
 70
0
 10
625761.1893236671
 20
4836489.465836113
 10
625741.507842955
 20
4836547.114297704
  0
LWPOLYLINE
  5
3B
330
17
100
AcDbEntity
  8
ROADS
100
AcDbPolyline
 90
2
 70
0
 10
625504.4268261051
 20
4836512.129605651
 10
625486.3761120026
 20
4836566.478320295
  0
LWPOLYLINE
  5
3C
330
17
100
AcDbEntity
  8
ROADS
100
AcDbPolyline
 90
2
 70
0
 10
625741.507842955
 20
4836547.114297704
 10
625695.6943036971
 20
4836531.789054742
  0
LWPOLYLINE
  5
3D
330
17
100
AcDbEntity
  8
ROADS
100
AcDbPolyline
 90
2
 70
0
 10
625504.4268261051
 20
4836512.129605651
 10
625397.6852853524
 20
4836537.2100242525
  0
LWPOLYLINE
  5
3E
330
17
100
AcDbEntity
  8
ROADS
100
AcDbPolyline
 90
2
 70
0
 10
625421.3271661317
 20
4836544.922933657
 10
625397.6852853524
 20
4836537.2100242525
  0
LWPOLYLINE
  5
3F
330
17
100
AcDbEntity
  8
ROADS
100
AcDbPolyline
 90
2
 70
0
 10
625486.3761120026
 20
4836566.478320295
 10
625421.3271661317
 20
4836544.922933657
  0
LWPOLYLINE
  5
40
330
17
100
AcDbEntity
  8
ROADS
100
AcDbPolyline
 90
2
 70
0
 10
625393.3107191398
 20
4836642.3638782995
 10
625421.3271661317
 20
4836544.922933657
  0
LWPOLYLINE
  5
41
330
17
100
AcDbEntity
  8
ROADS
100
AcDbPolyline
 90
2
 70
0
 10
625274.9546884361
 20
4836609.531981631
 10
625187.4303907979
 20
4836587.597868651
  0
LWPOLYLINE
  5
42
330
17
100
AcDbEntity
  8
ROADS
100
AcDbPolyline
 90
2
 70
0
 10
625309.3615195114
 20
4836617.999581274
 10
625274.9546884361
 20
4836609.531981631
  0
LWPOLYLINE
  5
43
330
17
100
AcDbEntity
  8
ROADS
100
AcDbPolyline
 90
2
 70
0
 10
625486.3761120026
 20
4836566.478320295
 10
625454.9157580702
 20
4836662.132909693
  0
LWPOLYLINE
  5
44
330
17
100
AcDbEntity
  8
ROADS
100
AcDbPolyline
 90
2
 70
0
 10
625393.3107191398
 20
4836642.3638782995
 10
625309.3615195114
 20
4836617.999581274
  0
LWPOLYLINE
  5
45
330
17
100
AcDbEntity
  8
ROADS
100
AcDbPolyline
 90
2
 70
0
 10
625148.6217290245
 20
4836613.550288702
 10
625130.3241037051
 20
4836672.938401464
  0
LWPOLYLINE
  5
46
330
17
100
AcDbEntity
  8
ROADS
100
AcDbPolyline
 90
2
 70
0
 10
626314.9204868727
 20
4836651.579958524
 10
626294.6765428219
 20
4836717.49031999
  0
LWPOLYLINE
  5
47
330
17
100
AcDbEntity
  8
ROADS
100
AcDbPolyline
 90
3
 70
0
 10
625679.2989355146
 20
4836580.924430784
 10
625552.124177369
 20
4836538.254515325
 10
625520.9798704707
 20
4836511.653875221
  0
LWPOLYLINE
  5
48
330
17
100
AcDbEntity
  8
ROADS
100
AcDbPolyline
 90
2
 70
0
 10
625695.6943036971
 20
4836531.789054742
 10
625679.2989355146
 20
4836580.924430784
  0
LWPOLYLINE
  5
49
330
17
100
AcDbEntity
  8
ROADS
100
AcDbPolyline
 90
2
 70
0
 10
625741.507842955
 20
4836547.114297704
 10
625710.2336127287
 20
4836641.047228165
  0
LWPOLYLINE
  5
4A
330
17
100
AcDbEntity
  8
ROADS
100
AcDbPolyline
 90
2
 70
0
 10
625664.1059408745
 20
4836626.005309988
 10
625486.3761120026
 20
4836566.478320295
  0
LWPOLYLINE
  5
4B
330
17
100
AcDbEntity
  8
ROADS
100
AcDbPolyline
 90
2
 70
0
 10
625679.2989355146
 20
4836580.924430784
 10
625664.1059408745
 20
4836626.005309988
  0
LWPOLYLINE
  5
4C
330
17
100
AcDbEntity
  8
ROADS
100
AcDbPolyline
 90
2
 70
0
 10
625710.2336127287
 20
4836641.047228165
 10
625664.1059408745
 20
4836626.005309988
  0
LWPOLYLINE
  5
4D
330
17
100
AcDbEntity
  8
ROADS
100
AcDbPolyline
 90
2
 70
0
 10
625710.2336127287
 20
4836641.047228165
 10
625692.8332565933
 20
4836687.357267067
  0
LWPOLYLINE
  5
4E
330
17
100
AcDbEntity
  8
ROADS
100
AcDbPolyline
 90
3
 70
0
 10
625546.457425057
 20
4836691.142776609
 10
625565.6575501307
 20
4836649.330557537
 10
625543.206463354
 20
4836641.9641886335
  0
LWPOLYLINE
  5
4F
330
17
100
AcDbEntity
  8
ROADS
100
AcDbPolyline
 90
2
 70
0
 10
625546.457425057
 20
4836691.142776609
 10
625454.9157580702
 20
4836662.132909693
  0
LWPOLYLINE
  5
50
330
17
100
AcDbEntity
  8
ROADS
100
AcDbPolyline
 90
3
 70
0
 10
625607.5657009518
 20
4836710.953845632
 10
625627.2649611193
 20
4836668.693619432
 10
625595.2039585358
 20
4836658.637332344
  0
LWPOLYLINE
  5
51
330
17
100
AcDbEntity
  8
ROADS
100
AcDbPolyline
 90
2
 70
0
 10
625878.8493520262
 20
4836511.714545469
 10
625830.0286919904
 20
4836664.874674718
  0
LWPOLYLINE
  5
52
330
17
100
AcDbEntity
  8
ROADS
100
AcDbPolyline
 90
3
 70
0
 10
625825.545339781
 20
4836496.819887756
 10
625776.3783993003
 20
4836647.740607399
 10
625830.0286919904
 20
4836664.874674718
  0
LWPOLYLINE
  5
53
330
17
100
AcDbEntity
  8
ROADS
100
AcDbPolyline
 90
2
 70
0
 10
625976.8418670888
 20
4836542.4064067975
 10
625903.7468482598
 20
4836771.8958298005
  0
LWPOLYLINE
  5
54
330
17
100
AcDbEntity
  8
ROADS
100
AcDbPolyline
 90
2
 70
0
 10
626073.7626390144
 20
4836574.468719587
 10
626000.5559105963
 20
4836801.709054846
  0
LWPOLYLINE
  5
55
330
17
100
AcDbEntity
  8
ROADS
100
AcDbPolyline
 90
2
 70
0
 10
626170.5988946863
 20
4836607.323210584
 10
626101.0358638334
 20
4836823.08017797
  0
LWPOLYLINE
  5
56
330
17
100
AcDbEntity
  8
ROADS
100
AcDbPolyline
 90
2
 70
0
 10
626050.9338073394
 20
4836812.689626014
 10
626121.9757657372
 20
4836590.418611506
  0
LWPOLYLINE
  5
57
330
17
100
AcDbEntity
  8
ROADS
100
AcDbPolyline
 90
2
 70
0
 10
626267.1955093907
 20
4836637.801072274
 10
626201.5523718431
 20
4836841.684811099
  0
LWPOLYLINE
  5
58
330
17
100
AcDbEntity
  8
ROADS
100
AcDbPolyline
 90
2
 70
0
 10
626363.6286092255
 20
4836666.525749594
 10
626301.3221395001
 20
4836860.218948087
  0
LWPOLYLINE
  5
59
330
17
100
AcDbEntity
  8
ROADS
100
AcDbPolyline
 90
2
 70
0
 10
626149.3402755881
 20
4836833.003200395
 10
626215.6504422614
 20
4836624.755675054
  0
LWPOLYLINE
  5
5A
330
17
100
AcDbEntity
  8
ROADS
100
AcDbPolyline
 90
2
 70
0
 10
626251.1773624211
 20
4836851.359703011
 10
626281.9950412805
 20
4836752.816110635
  0
LWPOLYLINE
  5
5B
330
17
100
AcDbEntity
  8
ROADS
100
AcDbPolyline
 90
2
 70
0
 10
626149.3402755881
 20
4836833.003200395
 10
626101.0358638334
 20
4836823.08017797
  0
LWPOLYLINE
  5
5C
330
17
100
AcDbEntity
  8
ROADS
100
AcDbPolyline
 90
2
 70
0
 10
626201.5523718431
 20
4836841.684811099
 10
626149.3402755881
 20
4836833.003200395
  0
LWPOLYLINE
  5
5D
330
17
100
AcDbEntity
  8
ROADS
100
AcDbPolyline
 90
2
 70
0
 10
626101.0358638334
 20
4836823.08017797
 10
626086.4637071148
 20
4836869.66241783
  0
LWPOLYLINE
  5
5E
330
17
100
AcDbEntity
  8
ROADS
100
AcDbPolyline
 90
2
 70
0
 10
626251.1773624211
 20
4836851.359703011
 10
626201.5523718431
 20
4836841.684811099
  0
LWPOLYLINE
  5
5F
330
17
100
AcDbEntity
  8
ROADS
100
AcDbPolyline
 90
2
 70
0
 10
625951.547680879
 20
4836786.714519106
 10
626014.5385274412
 20
4836592.750673685
  0
LWPOLYLINE
  5
60
330
17
100
AcDbEntity
  8
ROADS
100
AcDbPolyline
 90
2
 70
0
 10
625830.0286919904
 20
4836664.874674718
 10
625809.4307953739
 20
4836728.458911415
  0
LWPOLYLINE
  5
61
330
17
100
AcDbEntity
  8
ROADS
100
AcDbPolyline
 90
2
 70
0
 10
625853.7155662908
 20
4836748.854837419
 10
625877.3492175712
 20
4836688.999701105
  0
LWPOLYLINE
  5
62
330
17
100
AcDbEntity
  8
ROADS
100
AcDbPolyline
 90
2
 70
0
 10
625853.7155662908
 20
4836748.854837419
 10
625809.4307953739
 20
4836728.458911415
  0
LWPOLYLINE
  5
63
330
17
100
AcDbEntity
  8
ROADS
100
AcDbPolyline
 90
2
 70
0
 10
625809.4307953739
 20
4836728.458911415
 10
625794.8025380621
 20
4836773.6100173965
  0
LWPOLYLINE
  5
64
330
17
100
AcDbEntity
  8
ROADS
100
AcDbPolyline
 90
2
 70
0
 10
625903.7468482598
 20
4836771.8958298005
 10
625853.7155662908
 20
4836748.854837419
  0
LWPOLYLINE
  5
65
330
17
100
AcDbEntity
  8
ROADS
100
AcDbPolyline
 90
2
 70
0
 10
625951.547680879
 20
4836786.714519106
 10
625903.7468482598
 20
4836771.8958298005
  0
LWPOLYLINE
  5
66
330
17
100
AcDbEntity
  8
ROADS
100
AcDbPolyline
 90
2
 70
0
 10
626000.5559105963
 20
4836801.709054846
 10
625951.547680879
 20
4836786.714519106
  0
LWPOLYLINE
  5
67
330
17
100
AcDbEntity
  8
ROADS
100
AcDbPolyline
 90
2
 70
0
 10
625903.7468482598
 20
4836771.8958298005
 10
625888.9786477725
 20
4836818.259486707
  0
LWPOLYLINE
  5
68
330
17
100
AcDbEntity
  8
ROADS
100
AcDbPolyline
 90
2
 70
0
 10
625888.9786477725
 20
4836818.259486707
 10
625794.8025380621
 20
4836773.6100173965
  0
LWPOLYLINE
  5
69
330
17
100
AcDbEntity
  8
ROADS
100
AcDbPolyline
 90
2
 70
0
 10
625587.5592247588
 20
4836704.169707568
 10
625546.457425057
 20
4836691.142776609
  0
LWPOLYLINE
  5
6A
330
17
100
AcDbEntity
  8
ROADS
100
AcDbPolyline
 90
2
 70
0
 10
625607.5657009518
 20
4836710.953845632
 10
625587.5592247588
 20
4836704.169707568
  0
LWPOLYLINE
  5
6B
330
17
100
AcDbEntity
  8
ROADS
100
AcDbPolyline
 90
2
 70
0
 10
625809.4307953739
 20
4836728.458911415
 10
625692.8332565933
 20
4836687.357267067
  0
LWPOLYLINE
  5
6C
330
17
100
AcDbEntity
  8
ROADS
100
AcDbPolyline
 90
2
 70
0
 10
625692.8332565933
 20
4836687.357267067
 10
625676.9561990427
 20
4836734.484892091
  0
LWPOLYLINE
  5
6D
330
17
100
AcDbEntity
  8
ROADS
100
AcDbPolyline
 90
2
 70
0
 10
625676.9561990427
 20
4836734.484892091
 10
625607.5657009518
 20
4836710.953845632
  0
LWPOLYLINE
  5
6E
330
17
100
AcDbEntity
  8
ROADS
100
AcDbPolyline
 90
2
 70
0
 10
625587.5592247588
 20
4836704.169707568
 10
625559.5611344652
 20
4836744.679769365
  0
LWPOLYLINE
  5
6F
330
17
100
AcDbEntity
  8
ROADS
100
AcDbPolyline
 90
2
 70
0
 10
625554.3589223797
 20
4836760.768622647
 10
625453.8427830293
 20
4836726.724176223
  0
LWPOLYLINE
  5
70
330
17
100
AcDbEntity
  8
ROADS
100
AcDbPolyline
 90
2
 70
0
 10
625559.5611344652
 20
4836744.679769365
 10
625554.3589223797
 20
4836760.768622647
  0
LWPOLYLINE
  5
71
330
17
100
AcDbEntity
  8
ROADS
100
AcDbPolyline
 90
2
 70
0
 10
625794.8025380621
 20
4836773.6100173965
 10
625676.9561990427
 20
4836734.484892091
  0
LWPOLYLINE
  5
72
330
17
100
AcDbEntity
  8
ROADS
100
AcDbPolyline
 90
2
 70
0
 10
625613.701656644
 20
4836772.308306921
 10
625559.5611344652
 20
4836744.679769365
  0
LWPOLYLINE
  5
73
330
17
100
AcDbEntity
  8
ROADS
100
AcDbPolyline
 90
2
 70
0
 10
625676.9561990427
 20
4836734.484892091
 10
625660.1726435097
 20
4836786.282389638
  0
LWPOLYLINE
  5
74
330
17
100
AcDbEntity
  8
ROADS
100
AcDbPolyline
 90
2
 70
0
 10
625660.1726435097
 20
4836786.282389638
 10
625613.701656644
 20
4836772.308306921
  0
LWPOLYLINE
  5
75
330
17
100
AcDbEntity
  8
ROADS
100
AcDbPolyline
 90
2
 70
0
 10
625554.3589223797
 20
4836760.768622647
 10
625555.2567387307
 20
4836809.725651605
  0
LWPOLYLINE
  5
76
330
17
100
AcDbEntity
  8
ROADS
100
AcDbPolyline
 90
2
 70
0
 10
625555.2567387307
 20
4836809.725651605
 10
625438.5130219411
 20
4836771.127507342
  0
LWPOLYLINE
  5
77
330
17
100
AcDbEntity
  8
ROADS
100
AcDbPolyline
 90
2
 70
0
 10
625660.1726435097
 20
4836786.282389638
 10
625640.7388631897
 20
4836846.268430273
  0
LWPOLYLINE
  5
78
330
17
100
AcDbEntity
  8
ROADS
100
AcDbPolyline
 90
2
 70
0
 10
625613.701656644
 20
4836772.308306921
 10
625587.3404459037
 20
4836867.02706432
  0
LWPOLYLINE
  5
79
330
17
100
AcDbEntity
  8
ROADS
100
AcDbPolyline
 90
2
 70
0
 10
625555.2567387307
 20
4836809.725651605
 10
625531.4647203081
 20
4836899.5195655925
  0
LWPOLYLINE
  5
7A
330
17
100
AcDbEntity
  8
ROADS
100
AcDbPolyline
 90
2
 70
0
 10
625728.3362638397
 20
4836874.840016786
 10
625640.7388631897
 20
4836846.268430273
  0
LWPOLYLINE
  5
7B
330
17
100
AcDbEntity
  8
ROADS
100
AcDbPolyline
 90
2
 70
0
 10
625640.7388631897
 20
4836846.268430273
 10
625612.4581857724
 20
4836926.571655923
  0
LWPOLYLINE
  5
7C
330
17
100
AcDbEntity
  8
ROADS
100
AcDbPolyline
 90
2
 70
0
 10
625817.4823675351
 20
4836903.71063911
 10
625728.3362638397
 20
4836874.840016786
  0
LWPOLYLINE
  5
7D
330
17
100
AcDbEntity
  8
ROADS
100
AcDbPolyline
 90
2
 70
0
 10
626301.3221395001
 20
4836860.218948087
 10
626251.1773624211
 20
4836851.359703011
  0
LWPOLYLINE
  5
7E
330
17
100
AcDbEntity
  8
ROADS
100
AcDbPolyline
 90
2
 70
0
 10
626201.5523718431
 20
4836841.684811099
 10
626186.8384342231
 20
4836888.696525823
  0
LWPOLYLINE
  5
7F
330
17
100
AcDbEntity
  8
ROADS
100
AcDbPolyline
 90
2
 70
0
 10
626400.4150226845
 20
4836880.183941367
 10
626301.3221395001
 20
4836860.218948087
  0
LWPOLYLINE
  5
80
330
17
100
AcDbEntity
  8
ROADS
100
AcDbPolyline
 90
2
 70
0
 10
626186.8384342231
 20
4836888.696525823
 10
626086.4637071148
 20
4836869.66241783
  0
LWPOLYLINE
  5
81
330
17
100
AcDbEntity
  8
ROADS
100
AcDbPolyline
 90
2
 70
0
 10
626301.3221395001
 20
4836860.218948087
 10
626286.319203476
 20
4836908.003496145
  0
LWPOLYLINE
  5
82
330
17
100
AcDbEntity
  8
ROADS
100
AcDbPolyline
 90
2
 70
0
 10
626257.9631201683
 20
4836902.661439497
 10
626186.8384342231
 20
4836888.696525823
  0
LWPOLYLINE
  5
83
330
17
100
AcDbEntity
  8
ROADS
100
AcDbPolyline
 90
2
 70
0
 10
626286.319203476
 20
4836908.003496145
 10
626257.9631201683
 20
4836902.661439497
  0
LWPOLYLINE
  5
84
330
17
100
AcDbEntity
  8
ROADS
100
AcDbPolyline
 90
2
 70
0
 10
626349.7388608668
 20
4836919.788963915
 10
626286.319203476
 20
4836908.003496145
  0
LWPOLYLINE
  5
85
330
17
100
AcDbEntity
  8
ROADS
100
AcDbPolyline
 90
2
 70
0
 10
626257.9631201683
 20
4836902.661439497
 10
626245.3874339771
 20
4836942.310388695
  0
LWPOLYLINE
  5
86
330
17
100
AcDbEntity
  8
ROADS
100
AcDbPolyline
 90
2
 70
0
 10
626385.8795260522
 20
4836926.396861493
 10
626349.7388608668
 20
4836919.788963915
  0
LWPOLYLINE
  5
87
330
17
100
AcDbEntity
  8
ROADS
100
AcDbPolyline
 90
2
 70
0
 10
626050.9338073394
 20
4836812.689626014
 10
626000.5559105963
 20
4836801.709054846
  0
LWPOLYLINE
  5
88
330
17
100
AcDbEntity
  8
ROADS
100
AcDbPolyline
 90
2
 70
0
 10
626101.0358638334
 20
4836823.08017797
 10
626050.9338073394
 20
4836812.689626014
  0
LWPOLYLINE
  5
89
330
17
100
AcDbEntity
  8
ROADS
100
AcDbPolyline
 90
2
 70
0
 10
626000.5559105963
 20
4836801.709054846
 10
625985.6702768067
 20
4836849.616690636
  0
LWPOLYLINE
  5
8A
330
17
100
AcDbEntity
  8
ROADS
100
AcDbPolyline
 90
2
 70
0
 10
625985.6702768067
 20
4836849.616690636
 10
625888.9786477725
 20
4836818.259486707
  0
LWPOLYLINE
  5
8B
330
17
100
AcDbEntity
  8
ROADS
100
AcDbPolyline
 90
2
 70
0
 10
626086.4637071148
 20
4836869.66241783
 10
625985.6702768067
 20
4836849.616690636
  0
LWPOLYLINE
  5
8C
330
17
100
AcDbEntity
  8
ROADS
100
AcDbPolyline
 90
2
 70
0
 10
625909.64440407
 20
4836911.912609538
 10
625817.4823675351
 20
4836903.71063911
  0
LWPOLYLINE
  5
8D
330
17
100
AcDbEntity
  8
ROADS
100
AcDbPolyline
 90
2
 70
0
 10
626001.6370716667
 20
4836920.6335517755
 10
625909.64440407
 20
4836911.912609538
  0
LWPOLYLINE
  5
8E
330
17
100
AcDbEntity
  8
ROADS
100
AcDbPolyline
 90
2
 70
0
 10
626101.0642025874
 20
4836961.5958235655
 10
626001.6370716667
 20
4836920.6335517755
  0
LWPOLYLINE
  5
8F
330
17
100
AcDbEntity
  8
ROADS
100
AcDbPolyline
 90
2
 70
0
 10
625909.64440407
 20
4836911.912609538
 10
625870.8986200272
 20
4837040.7964790845
  0
LWPOLYLINE
  5
90
330
17
100
AcDbEntity
  8
ROADS
100
AcDbPolyline
 90
2
 70
0
 10
626001.6370716667
 20
4836920.6335517755
 10
625955.7139629036
 20
4837053.990931615
  0
LWPOLYLINE
  5
91
330
17
100
AcDbEntity
  8
ROADS
100
AcDbPolyline
 90
2
 70
0
 10
625379.1874119291
 20
4836950.047412107
 10
625254.713779008
 20
4836908.493797485
  0
LWPOLYLINE
  5
92
330
17
100
AcDbEntity
  8
ROADS
100
AcDbPolyline
 90
2
 70
0
 10
625254.713779008
 20
4836908.493797485
 10
625240.8379913102
 20
4836950.524252314
  0
LWPOLYLINE
  5
93
330
17
100
AcDbEntity
  8
ROADS
100
AcDbPolyline
 90
2
 70
0
 10
625240.8379913102
 20
4836950.524252314
 10
625221.9510304057
 20
4836944.601398736
  0
LWPOLYLINE
  5
94
330
17
100
AcDbEntity
  8
ROADS
100
AcDbPolyline
 90
2
 70
0
 10
625240.8379913102
 20
4836950.524252314
 10
625312.3406838194
 20
4836975.428595222
  0
LWPOLYLINE
  5
95
330
17
100
AcDbEntity
  8
ROADS
100
AcDbPolyline
 90
2
 70
0
 10
625583.981386891
 20
4837016.557875706
 10
625379.1874119291
 20
4836950.047412107
  0
LWPOLYLINE
  5
96
330
17
100
AcDbEntity
  8
ROADS
100
AcDbPolyline
 90
2
 70
0
 10
625379.1874119291
 20
4836950.047412107
 10
625350.4293478526
 20
4837037.061813301
  0
LWPOLYLINE
  5
97
330
17
100
AcDbEntity
  8
ROADS
100
AcDbPolyline
 90
2
 70
0
 10
625350.4293478526
 20
4837037.061813301
 10
625150.5914500661
 20
4836972.229592711
  0
LWPOLYLINE
  5
98
330
17
100
AcDbEntity
  8
ROADS
100
AcDbPolyline
 90
2
 70
0
 10
625220.1267721253
 20
4837044.208999912
 10
625194.5468512912
 20
4837035.4429556625
  0
LWPOLYLINE
  5
99
330
17
100
AcDbEntity
  8
ROADS
100
AcDbPolyline
 90
2
 70
0
 10
625220.1267721253
 20
4837044.208999912
 10
625302.9077724073
 20
4837070.513382946
  0
LWPOLYLINE
  5
9A
330
17
100
AcDbEntity
  8
ROADS
100
AcDbPolyline
 90
2
 70
0
 10
625206.8193120429
 20
4837086.498736567
 10
625220.1267721253
 20
4837044.208999912
  0
LWPOLYLINE
  5
9B
330
17
100
AcDbEntity
  8
ROADS
100
AcDbPolyline
 90
2
 70
0
 10
625454.9157580702
 20
4836662.132909693
 10
625393.3107191398
 20
4836642.3638782995
  0
LWPOLYLINE
  5
9C
330
17
100
AcDbEntity
  8
ROADS
100
AcDbPolyline
 90
2
 70
0
 10
625309.3615195114
 20
4836617.999581274
 10
625280.726053004
 20
4836719.531524836
  0
LWPOLYLINE
  5
9D
330
17
100
AcDbEntity
  8
ROADS
100
AcDbPolyline
 90
2
 70
0
 10
625238.2462992361
 20
4836717.284292718
 10
625180.7847412261
 20
4836688.212663469
  0
LWPOLYLINE
  5
9E
330
17
100
AcDbEntity
  8
ROADS
100
AcDbPolyline
 90
2
 70
0
 10
625280.726053004
 20
4836719.531524836
 10
625238.2462992361
 20
4836717.284292718
  0
LWPOLYLINE
  5
9F
330
17
100
AcDbEntity
  8
ROADS
100
AcDbPolyline
 90
2
 70
0
 10
625458.0904813228
 20
4836714.421283121
 10
625453.8427830293
 20
4836726.724176223
  0
LWPOLYLINE
  5
A0
330
17
100
AcDbEntity
  8
ROADS
100
AcDbPolyline
 90
2
 70
0
 10
625301.6269334119
 20
4836724.967754363
 10
625280.726053004
 20
4836719.531524836
  0
LWPOLYLINE
  5
A1
330
17
100
AcDbEntity
  8
ROADS
100
AcDbPolyline
 90
2
 70
0
 10
625438.5130219411
 20
4836771.127507342
 10
625301.6269334119
 20
4836724.967754363
  0
LWPOLYLINE
  5
A2
330
17
100
AcDbEntity
  8
ROADS
100
AcDbPolyline
 90
2
 70
0
 10
625453.8427830293
 20
4836726.724176223
 10
625438.5130219411
 20
4836771.127507342
  0
LWPOLYLINE
  5
A3
330
17
100
AcDbEntity
  8
ROADS
100
AcDbPolyline
 90
3
 70
0
 10
625301.6269334119
 20
4836724.967754363
 10
625288.1471454073
 20
4836769.710535349
 10
625330.5753025899
 20
4836784.655557756
  0
LWPOLYLINE
  5
A4
330
17
100
AcDbEntity
  8
ROADS
100
AcDbPolyline
 90
2
 70
0
 10
625238.2462992361
 20
4836717.284292718
 10
625208.2591223909
 20
4836792.691300685
  0
LWPOLYLINE
  5
A5
330
17
100
AcDbEntity
  8
ROADS
100
AcDbPolyline
 90
2
 70
0
 10
625180.7847412261
 20
4836688.212663469
 10
625130.3241037051
 20
4836672.938401464
  0
LWPOLYLINE
  5
A6
330
17
100
AcDbEntity
  8
ROADS
100
AcDbPolyline
 90
2
 70
0
 10
625130.3241037051
 20
4836672.938401464
 10
625096.4271133575
 20
4836779.294416922
  0
LWPOLYLINE
  5
A7
330
17
100
AcDbEntity
  8
ROADS
100
AcDbPolyline
 90
3
 70
0
 10
625096.4271133575
 20
4836779.294416922
 10
625047.2075517117
 20
4836763.6335642375
 10
625021.2417157054
 20
4836848.21474841
  0
LWPOLYLINE
  5
A8
330
17
100
AcDbEntity
  8
ROADS
100
AcDbPolyline
 90
2
 70
0
 10
624924.642607808
 20
4836853.588746639
 10
624889.0120234684
 20
4836966.141257815
  0
LWPOLYLINE
  5
A9
330
17
100
AcDbEntity
  8
ROADS
100
AcDbPolyline
 90
2
 70
0
 10
625008.6872009365
 20
4836738.326615313
 10
624914.1806670784
 20
4837037.6878172
  0
LWPOLYLINE
  5
AA
330
17
100
AcDbEntity
  8
ROADS
100
AcDbPolyline
 90
2
 70
0
 10
625180.7847412261
 20
4836688.212663469
 10
625055.1065552608
 20
4837085.187273164
  0
LWPOLYLINE
  5
AB
330
17
100
AcDbEntity
  8
ROADS
100
AcDbPolyline
 90
2
 70
0
 10
624877.9462338157
 20
4836962.445957701
 10
624888.1995283939
 20
4836921.308385302
  0
LWPOLYLINE
  5
AC
330
17
100
AcDbEntity
  8
ROADS
100
AcDbPolyline
 90
2
 70
0
 10
625438.5130219411
 20
4836771.127507342
 10
625425.5676482363
 20
4836810.428659603
  0
LWPOLYLINE
  5
AD
330
17
100
AcDbEntity
  8
ROADS
100
AcDbPolyline
 90
2
 70
0
 10
625410.6326407328
 20
4836859.049360259
 10
625208.2591223909
 20
4836792.691300685
  0
LWPOLYLINE
  5
AE
330
17
100
AcDbEntity
  8
ROADS
100
AcDbPolyline
 90
2
 70
0
 10
625425.5676482363
 20
4836810.428659603
 10
625506.5709815109
 20
4836846.114390335
  0
LWPOLYLINE
  5
AF
330
17
100
AcDbEntity
  8
ROADS
100
AcDbPolyline
 90
2
 70
0
 10
625425.5676482363
 20
4836810.428659603
 10
625410.6326407328
 20
4836859.049360259
  0
LWPOLYLINE
  5
B0
330
17
100
AcDbEntity
  8
ROADS
100
AcDbPolyline
 90
2
 70
0
 10
625208.2591223909
 20
4836792.691300685
 10
625179.3196565111
 20
4836883.325092587
  0
LWPOLYLINE
  5
B1
330
17
100
AcDbEntity
  8
ROADS
100
AcDbPolyline
 90
2
 70
0
 10
625474.4026674845
 20
4836881.258718937
 10
625410.6326407328
 20
4836859.049360259
  0
LWPOLYLINE
  5
B2
330
17
100
AcDbEntity
  8
ROADS
100
AcDbPolyline
 90
2
 70
0
 10
625254.713779008
 20
4836908.493797485
 10
625179.3196565111
 20
4836883.325092587
  0
LWPOLYLINE
  5
B3
330
17
100
AcDbEntity
  8
ROADS
100
AcDbPolyline
 90
2
 70
0
 10
625474.4026674845
 20
4836881.258718937
 10
625460.5481701214
 20
4836924.876677625
  0
LWPOLYLINE
  5
B4
330
17
100
AcDbEntity
  8
ROADS
100
AcDbPolyline
 90
2
 70
0
 10
625410.6326407328
 20
4836859.049360259
 10
625379.1874119291
 20
4836950.047412107
  0
LWPOLYLINE
  5
B5
330
17
100
AcDbEntity
  8
ROADS
100
AcDbPolyline
 90
2
 70
0
 10
625460.5481701214
 20
4836924.876677625
 10
625426.2475795773
 20
4836913.68580954
  0
LWPOLYLINE
  5
B6
330
17
100
AcDbEntity
  8
ROADS
100
AcDbPolyline
 90
2
 70
0
 10
625096.4271133575
 20
4836779.294416922
 10
625004.5097781542
 20
4837070.143507632
  0
LWPOLYLINE
  5
B7
330
17
100
AcDbEntity
  8
ROADS
100
AcDbPolyline
 90
2
 70
0
 10
625179.3196565111
 20
4836883.325092587
 10
625150.5914500661
 20
4836972.229592711
  0
LWPOLYLINE
  5
B8
330
17
100
AcDbEntity
  8
ROADS
100
AcDbPolyline
 90
2
 70
0
 10
624877.9462338157
 20
4836962.445957701
 10
624889.0120234684
 20
4836966.141257815
  0
LWPOLYLINE
  5
B9
330
17
100
AcDbEntity
  8
ROADS
100
AcDbPolyline
 90
3
 70
0
 10
624914.1806670784
 20
4837037.6878172
 10
624951.7409911397
 20
4837053.877403093
 10
624984.9610634029
 20
4836958.302816849
  0
LWPOLYLINE
  5
BA
330
17
100
AcDbEntity
  8
ROADS
100
AcDbPolyline
 90
2
 70
0
 10
625150.5914500661
 20
4836972.229592711
 10
625123.215495367
 20
4837058.966409383
  0
LWPOLYLINE
  5
BB
330
17
100
AcDbEntity
  8
ROADS
100
AcDbPolyline
 90
2
 70
0
 10
624872.0842243996
 20
4837019.832118267
 10
624914.1806670784
 20
4837037.6878172
  0
LWPOLYLINE
  5
BC
330
17
100
AcDbEntity
  8
ROADS
100
AcDbPolyline
 90
2
 70
0
 10
624914.1806670784
 20
4837037.6878172
 10
624898.4596069232
 20
4837088.409835816
  0
LWPOLYLINE
  5
BD
330
17
100
AcDbEntity
  8
ROADS
100
AcDbPolyline
 90
2
 70
0
 10
625206.8193120429
 20
4837086.498736567
 10
625123.215495367
 20
4837058.966409383
  0
LWPOLYLINE
  5
BE
330
17
100
AcDbEntity
  8
ROADS
100
AcDbPolyline
 90
2
 70
0
 10
625055.1065552608
 20
4837085.187273164
 10
625004.5097781542
 20
4837070.143507632
  0
LWPOLYLINE
  5
BF
330
17
100
AcDbEntity
  8
ROADS
100
AcDbPolyline
 90
2
 70
0
 10
625123.215495367
 20
4837058.966409383
 10
625109.9183542237
 20
4837101.736346608
  0
LWPOLYLINE
  5
C0
330
17
100
AcDbEntity
  8
ROADS
100
AcDbPolyline
 90
2
 70
0
 10
624889.0120234684
 20
4836966.141257815
 10
624872.0842243996
 20
4837019.832118267
  0
LWPOLYLINE
  5
C1
330
17
100
AcDbEntity
  8
ROADS
100
AcDbPolyline
 90
2
 70
0
 10
624845.1658742588
 20
4837067.715997291
 10
624877.9462338157
 20
4836962.445957701
  0
LWPOLYLINE
  5
C2
330
17
100
AcDbEntity
  8
ROADS
100
AcDbPolyline
 90
2
 70
0
 10
624845.1658742588
 20
4837067.715997291
 10
624834.4649168062
 20
4837064.251271285
  0
LWPOLYLINE
  5
C3
330
17
100
AcDbEntity
  8
ROADS
100
AcDbPolyline
 90
2
 70
0
 10
624872.0842243996
 20
4837019.832118267
 10
624855.3172054307
 20
4837070.880735423
  0
LWPOLYLINE
  5
C4
330
17
100
AcDbEntity
  8
ROADS
100
AcDbPolyline
 90
2
 70
0
 10
624855.3172054307
 20
4837070.880735423
 10
624845.1658742588
 20
4837067.715997291
  0
LWPOLYLINE
  5
C5
330
17
100
AcDbEntity
  8
ROADS
100
AcDbPolyline
 90
2
 70
0
 10
625109.9183542237
 20
4837101.736346608
 10
625055.1065552608
 20
4837085.187273164
  0
LWPOLYLINE
  5
C6
330
17
100
AcDbEntity
  8
ROADS
100
AcDbPolyline
 90
2
 70
0
 10
625004.5097781542
 20
4837070.143507632
 10
624989.9315995475
 20
4837117.833537088
  0
LWPOLYLINE
  5
C7
330
17
100
AcDbEntity
  8
ROADS
100
AcDbPolyline
 90
2
 70
0
 10
624957.7818746727
 20
4837107.37859856
 10
624898.4596069232
 20
4837088.409835816
  0
LWPOLYLINE
  5
C8
330
17
100
AcDbEntity
  8
ROADS
100
AcDbPolyline
 90
2
 70
0
 10
624989.9315995475
 20
4837117.833537088
 10
624957.7818746727
 20
4837107.37859856
  0
LWPOLYLINE
  5
C9
330
17
100
AcDbEntity
  8
ROADS
100
AcDbPolyline
 90
2
 70
0
 10
625109.9183542237
 20
4837101.736346608
 10
625206.3043340617
 20
4837133.557062681
  0
LWPOLYLINE
  5
CA
330
17
100
AcDbEntity
  8
ROADS
100
AcDbPolyline
 90
2
 70
0
 10
625109.9183542237
 20
4837101.736346608
 10
625094.3790164436
 20
4837152.08615742
  0
LWPOLYLINE
  5
CB
330
17
100
AcDbEntity
  8
ROADS
100
AcDbPolyline
 90
2
 70
0
 10
625054.6861740764
 20
4837139.34668356
 10
624989.9315995475
 20
4837117.833537088
  0
LWPOLYLINE
  5
CC
330
17
100
AcDbEntity
  8
ROADS
100
AcDbPolyline
 90
2
 70
0
 10
624957.7818746727
 20
4837107.37859856
 10
624944.4232061901
 20
4837150.343410977
  0
LWPOLYLINE
  5
CD
330
17
100
AcDbEntity
  8
ROADS
100
AcDbPolyline
 90
2
 70
0
 10
625094.3790164436
 20
4837152.08615742
 10
625054.6861740764
 20
4837139.34668356
  0
LWPOLYLINE
  5
CE
330
17
100
AcDbEntity
  8
ROADS
100
AcDbPolyline
 90
2
 70
0
 10
624992.4310510895
 20
4837166.038406458
 10
624944.4232061901
 20
4837150.343410977
  0
LWPOLYLINE
  5
CF
330
17
100
AcDbEntity
  8
ROADS
100
AcDbPolyline
 90
2
 70
0
 10
625556.3527498342
 20
4837103.7162562795
 10
625350.4293478526
 20
4837037.061813301
  0
LWPOLYLINE
  5
D0
330
17
100
AcDbEntity
  8
ROADS
100
AcDbPolyline
 90
2
 70
0
 10
625350.4293478526
 20
4837037.061813301
 10
625322.4398439202
 20
4837124.433617917
  0
LWPOLYLINE
  5
D1
330
17
100
AcDbEntity
  8
ROADS
100
AcDbPolyline
 90
2
 70
0
 10
625322.4398439202
 20
4837124.433617917
 10
625206.8193120429
 20
4837086.498736567
  0
LWPOLYLINE
  5
D2
330
17
100
AcDbEntity
  8
ROADS
100
AcDbPolyline
 90
2
 70
0
 10
625466.3902163001
 20
4837172.422384831
 10
625322.4398439202
 20
4837124.433617917
  0
LWPOLYLINE
  5
D3
330
17
100
AcDbEntity
  8
ROADS
100
AcDbPolyline
 90
2
 70
0
 10
625322.4398439202
 20
4837124.433617917
 10
625291.5710117596
 20
4837214.025466033
  0
LWPOLYLINE
  5
D4
330
17
100
AcDbEntity
  8
ROADS
100
AcDbPolyline
 90
2
 70
0
 10
625246.7224269238
 20
4837201.475756455
 10
625149.8726551977
 20
4837170.91370076
  0
LWPOLYLINE
  5
D5
330
17
100
AcDbEntity
  8
ROADS
100
AcDbPolyline
 90
2
 70
0
 10
625466.3902163001
 20
4837172.422384831
 10
625451.5912342519
 20
4837216.836297066
  0
LWPOLYLINE
  5
D6
330
17
100
AcDbEntity
  8
ROADS
100
AcDbPolyline
 90
2
 70
0
 10
625291.5710117596
 20
4837214.025466033
 10
625246.7224269238
 20
4837201.475756455
  0
LWPOLYLINE
  5
D7
330
17
100
AcDbEntity
  8
ROADS
100
AcDbPolyline
 90
2
 70
0
 10
625451.5912342519
 20
4837216.836297066
 10
625396.0102990133
 20
4837199.6812462
  0
LWPOLYLINE
  5
D8
330
17
100
AcDbEntity
  8
ROADS
100
AcDbPolyline
 90
2
 70
0
 10
625451.5912342519
 20
4837216.836297066
 10
625463.150949752
 20
4837222.473653705
  0
LWPOLYLINE
  5
D9
330
17
100
AcDbEntity
  8
ROADS
100
AcDbPolyline
 90
2
 70
0
 10
624898.4596069232
 20
4837088.409835816
 10
624855.3172054307
 20
4837070.880735423
  0
LWPOLYLINE
  5
DA
330
17
100
AcDbEntity
  8
ROADS
100
AcDbPolyline
 90
2
 70
0
 10
624883.8528773653
 20
4837339.080519992
 10
624836.3792034332
 20
4837323.600175952
  0
LWPOLYLINE
  5
DB
330
17
100
AcDbEntity
  8
ROADS
100
AcDbPolyline
 90
2
 70
0
 10
624883.8528773653
 20
4837339.080519992
 10
624880.6554362713
 20
4837349.104251274
  0
LWPOLYLINE
  5
DC
330
17
100
AcDbEntity
  8
ROADS
100
AcDbPolyline
 90
2
 70
0
 10
626349.7388608668
 20
4836919.788963915
 10
626337.05436621
 20
4836960.588024224
  0
LWPOLYLINE
  5
DD
330
17
100
AcDbEntity
  8
ROADS
100
AcDbPolyline
 90
3
 70
0
 10
626245.3874339771
 20
4836942.310388695
 10
626118.3875255913
 20
4836920.599660964
 10
626101.0642025874
 20
4836961.5958235655
  0
LWPOLYLINE
  5
DE
330
17
100
AcDbEntity
  8
ROADS
100
AcDbPolyline
 90
2
 70
0
 10
626337.05436621
 20
4836960.588024224
 10
626245.3874339771
 20
4836942.310388695
  0
LWPOLYLINE
  5
DF
330
17
100
AcDbEntity
  8
ROADS
100
AcDbPolyline
 90
2
 70
0
 10
626245.3874339771
 20
4836942.310388695
 10
626236.0333660758
 20
4836973.087065138
  0
LWPOLYLINE
  5
E0
330
17
100
AcDbEntity
  8
ROADS
100
AcDbPolyline
 90
2
 70
0
 10
626236.0333660758
 20
4836973.087065138
 10
626232.8119432537
 20
4836985.1005242355
  0
LWPOLYLINE
  5
E1
330
17
100
AcDbEntity
  8
ROADS
100
AcDbPolyline
 90
2
 70
0
 10
626133.0708053585
 20
4836998.66375904
 10
626101.0642025874
 20
4836961.5958235655
  0
LWPOLYLINE
  5
E2
330
17
100
AcDbEntity
  8
ROADS
100
AcDbPolyline
 90
2
 70
0
 10
626337.05436621
 20
4836960.588024224
 10
626322.9482090807
 20
4837002.635448487
  0
LWPOLYLINE
  5
E3
330
17
100
AcDbEntity
  8
ROADS
100
AcDbPolyline
 90
2
 70
0
 10
626236.0333660758
 20
4836973.087065138
 10
626133.0708053585
 20
4836998.66375904
  0
LWPOLYLINE
  5
E4
330
17
100
AcDbEntity
  8
ROADS
100
AcDbPolyline
 90
2
 70
0
 10
626322.9482090807
 20
4837002.635448487
 10
626232.8119432537
 20
4836985.1005242355
  0
LWPOLYLINE
  5
E5
330
17
100
AcDbEntity
  8
ROADS
100
AcDbPolyline
 90
2
 70
0
 10
626232.8119432537
 20
4836985.1005242355
 10
626196.135799378
 20
4837098.3020098945
  0
LWPOLYLINE
  5
E6
330
17
100
AcDbEntity
  8
ROADS
100
AcDbPolyline
 90
2
 70
0
 10
625531.4647203081
 20
4836899.5195655925
 10
625474.4026674845
 20
4836881.258718937
  0
LWPOLYLINE
  5
E7
330
17
100
AcDbEntity
  8
ROADS
100
AcDbPolyline
 90
2
 70
0
 10
625612.4581857724
 20
4836926.571655923
 10
625531.4647203081
 20
4836899.5195655925
  0
LWPOLYLINE
  5
E8
330
17
100
AcDbEntity
  8
ROADS
100
AcDbPolyline
 90
3
 70
0
 10
625460.5481701214
 20
4836924.876677625
 10
625557.7634565288
 20
4836957.2148995325
 10
625562.3570199413
 20
4836943.842698355
  0
LWPOLYLINE
  5
E9
330
17
100
AcDbEntity
  8
ROADS
100
AcDbPolyline
 90
2
 70
0
 10
625817.4823675351
 20
4836903.71063911
 10
625781.7903609858
 20
4837011.768491072
  0
LWPOLYLINE
  5
EA
330
17
100
AcDbEntity
  8
ROADS
100
AcDbPolyline
 90
2
 70
0
 10
625612.4581857724
 20
4836926.571655923
 10
625583.981386891
 20
4837016.557875706
  0
LWPOLYLINE
  5
EB
330
17
100
AcDbEntity
  8
ROADS
100
AcDbPolyline
 90
2
 70
0
 10
625728.3362638397
 20
4836874.840016786
 10
625643.2336560332
 20
4837132.199942126
  0
LWPOLYLINE
  5
EC
330
17
100
AcDbEntity
  8
ROADS
100
AcDbPolyline
 90
2
 70
0
 10
625583.981386891
 20
4837016.557875706
 10
625556.3527498342
 20
4837103.7162562795
  0
LWPOLYLINE
  5
ED
330
17
100
AcDbEntity
  8
ROADS
100
AcDbPolyline
 90
2
 70
0
 10
625781.7903609858
 20
4837011.768491072
 10
625732.2821963361
 20
4837161.81790501
  0
LWPOLYLINE
  5
EE
330
17
100
AcDbEntity
  8
ROADS
100
AcDbPolyline
 90
2
 70
0
 10
625598.9524391775
 20
4837117.693378838
 10
625556.3527498342
 20
4837103.7162562795
  0
LWPOLYLINE
  5
EF
330
17
100
AcDbEntity
  8
ROADS
100
AcDbPolyline
 90
2
 70
0
 10
625643.2336560332
 20
4837132.199942126
 10
625598.9524391775
 20
4837117.693378838
  0
LWPOLYLINE
  5
F0
330
17
100
AcDbEntity
  8
ROADS
100
AcDbPolyline
 90
2
 70
0
 10
625870.8986200272
 20
4837040.7964790845
 10
625781.7903609858
 20
4837011.768491072
  0
LWPOLYLINE
  5
F1
330
17
100
AcDbEntity
  8
ROADS
100
AcDbPolyline
 90
4
 70
0
 10
625955.7139629036
 20
4837053.990931615
 10
626002.1495468352
 20
4837067.104376403
 10
626028.9140792213
 20
4836992.503986371
 10
626065.8293514927
 20
4836996.313728878
  0
LWPOLYLINE
  5
F2
330
17
100
AcDbEntity
  8
ROADS
100
AcDbPolyline
 90
2
 70
0
 10
625950.4901771218
 20
4837069.667885304
 10
625870.8986200272
 20
4837040.7964790845
  0
LWPOLYLINE
  5
F3
330
17
100
AcDbEntity
  8
ROADS
100
AcDbPolyline
 90
2
 70
0
 10
625955.7139629036
 20
4837053.990931615
 10
625950.4901771218
 20
4837069.667885304
  0
LWPOLYLINE
  5
F4
330
17
100
AcDbEntity
  8
ROADS
100
AcDbPolyline
 90
2
 70
0
 10
625870.8986200272
 20
4837040.7964790845
 10
625819.9149690394
 20
4837190.977255263
  0
LWPOLYLINE
  5
F5
330
17
100
AcDbEntity
  8
ROADS
100
AcDbPolyline
 90
4
 70
0
 10
626133.0708053585
 20
4836998.66375904
 10
626057.1812850281
 20
4837071.112733124
 10
626004.4936374915
 20
4837090.444127826
 10
625951.3057079449
 20
4837253.902870421
  0
LWPOLYLINE
  5
F6
330
17
100
AcDbEntity
  8
ROADS
100
AcDbPolyline
 90
2
 70
0
 10
625950.4901771218
 20
4837069.667885304
 10
625898.7926476579
 20
4837227.939754271
  0
LWPOLYLINE
  5
F7
330
17
100
AcDbEntity
  8
ROADS
100
AcDbPolyline
 90
2
 70
0
 10
625898.7926476579
 20
4837227.939754271
 10
625819.9149690394
 20
4837190.977255263
  0
LWPOLYLINE
  5
F8
330
17
100
AcDbEntity
  8
ROADS
100
AcDbPolyline
 90
2
 70
0
 10
625951.3057079449
 20
4837253.902870421
 10
625898.7926476579
 20
4837227.939754271
  0
LWPOLYLINE
  5
F9
330
17
100
AcDbEntity
  8
ROADS
100
AcDbPolyline
 90
2
 70
0
 10
626040.0164138228
 20
4837283.182762505
 10
625951.3057079449
 20
4837253.902870421
  0
LWPOLYLINE
  5
FA
330
17
100
AcDbEntity
  8
ROADS
100
AcDbPolyline
 90
2
 70
0
 10
626322.9482090807
 20
4837002.635448487
 10
626305.7120358509
 20
4837107.551000704
  0
LWPOLYLINE
  5
FB
330
17
100
AcDbEntity
  8
ROADS
100
AcDbPolyline
 90
2
 70
0
 10
626305.7120358509
 20
4837107.551000704
 10
626334.5010588206
 20
4837143.645231545
  0
LWPOLYLINE
  5
FC
330
17
100
AcDbEntity
  8
ROADS
100
AcDbPolyline
 90
2
 70
0
 10
626196.135799378
 20
4837098.3020098945
 10
626169.4321238025
 20
4837182.586100427
  0
LWPOLYLINE
  5
FD
330
17
100
AcDbEntity
  8
ROADS
100
AcDbPolyline
 90
2
 70
0
 10
626375.6136810773
 20
4837138.934886528
 10
626334.5010588206
 20
4837143.645231545
  0
LWPOLYLINE
  5
FE
330
17
100
AcDbEntity
  8
ROADS
100
AcDbPolyline
 90
2
 70
0
 10
626375.6136810773
 20
4837138.934886528
 10
626361.6366291967
 20
4837181.915698694
  0
LWPOLYLINE
  5
FF
330
17
100
AcDbEntity
  8
ROADS
100
AcDbPolyline
 90
2
 70
0
 10
626334.5010588206
 20
4837143.645231545
 10
626361.6366291967
 20
4837181.915698694
  0
LWPOLYLINE
  5
100
330
17
100
AcDbEntity
  8
ROADS
100
AcDbPolyline
 90
3
 70
0
 10
626305.7120358509
 20
4837107.551000704
 10
626266.8896697611
 20
4837127.684176059
 10
626237.054088002
 20
4837229.3716768315
  0
LWPOLYLINE
  5
101
330
17
100
AcDbEntity
  8
ROADS
100
AcDbPolyline
 90
3
 70
0
 10
626196.135799378
 20
4837098.3020098945
 10
626080.5329322352
 20
4837159.413174267
 10
626040.0164138228
 20
4837283.182762505
  0
LWPOLYLINE
  5
102
330
17
100
AcDbEntity
  8
ROADS
100
AcDbPolyline
 90
2
 70
0
 10
626237.054088002
 20
4837229.3716768315
 10
626169.4321238025
 20
4837182.586100427
  0
LWPOLYLINE
  5
103
330
17
100
AcDbEntity
  8
ROADS
100
AcDbPolyline
 90
2
 70
0
 10
626361.6366291967
 20
4837181.915698694
 10
626332.5743190874
 20
4837270.870450417
  0
LWPOLYLINE
  5
104
330
17
100
AcDbEntity
  8
ROADS
100
AcDbPolyline
 90
2
 70
0
 10
625732.2821963361
 20
4837161.81790501
 10
625643.2336560332
 20
4837132.199942126
  0
LWPOLYLINE
  5
105
330
17
100
AcDbEntity
  8
ROADS
100
AcDbPolyline
 90
2
 70
0
 10
625556.3527498342
 20
4837103.7162562795
 10
625526.4466520577
 20
4837191.942500264
  0
LWPOLYLINE
  5
106
330
17
100
AcDbEntity
  8
ROADS
100
AcDbPolyline
 90
2
 70
0
 10
625819.9149690394
 20
4837190.977255263
 10
625732.2821963361
 20
4837161.81790501
  0
LWPOLYLINE
  5
107
330
17
100
AcDbEntity
  8
ROADS
100
AcDbPolyline
 90
2
 70
0
 10
625526.4466520577
 20
4837191.942500264
 10
625466.3902163001
 20
4837172.422384831
  0
LWPOLYLINE
  5
108
330
17
100
AcDbEntity
  8
ROADS
100
AcDbPolyline
 90
2
 70
0
 10
625598.9524391775
 20
4837117.693378838
 10
625554.8716433826
 20
4837251.424908782
  0
LWPOLYLINE
  5
109
330
17
100
AcDbEntity
  8
ROADS
100
AcDbPolyline
 90
2
 70
0
 10
625643.2336560332
 20
4837132.199942126
 10
625598.8401432952
 20
4837265.471806721
  0
LWPOLYLINE
  5
10A
330
17
100
AcDbEntity
  8
ROADS
100
AcDbPolyline
 90
2
 70
0
 10
625526.4466520577
 20
4837191.942500264
 10
625511.4958941692
 20
4837237.725753093
  0
LWPOLYLINE
  5
10B
330
17
100
AcDbEntity
  8
ROADS
100
AcDbPolyline
 90
2
 70
0
 10
625732.2821963361
 20
4837161.81790501
 10
625688.2525828126
 20
4837292.883255046
  0
LWPOLYLINE
  5
10C
330
17
100
AcDbEntity
  8
ROADS
100
AcDbPolyline
 90
2
 70
0
 10
625554.8716433826
 20
4837251.424908782
 10
625511.4958941692
 20
4837237.725753093
  0
LWPOLYLINE
  5
10D
330
17
100
AcDbEntity
  8
ROADS
100
AcDbPolyline
 90
2
 70
0
 10
625819.9149690394
 20
4837190.977255263
 10
625776.8447288533
 20
4837320.751910243
  0
LWPOLYLINE
  5
10E
330
17
100
AcDbEntity
  8
ROADS
100
AcDbPolyline
 90
2
 70
0
 10
625598.8401432952
 20
4837265.471806721
 10
625554.8716433826
 20
4837251.424908782
  0
LWPOLYLINE
  5
10F
330
17
100
AcDbEntity
  8
ROADS
100
AcDbPolyline
 90
2
 70
0
 10
625511.4958941692
 20
4837237.725753093
 10
625498.8436780168
 20
4837282.103487268
  0
LWPOLYLINE
  5
110
330
17
100
AcDbEntity
  8
ROADS
100
AcDbPolyline
 90
2
 70
0
 10
625688.2525828126
 20
4837292.883255046
 10
625598.8401432952
 20
4837265.471806721
  0
LWPOLYLINE
  5
111
330
17
100
AcDbEntity
  8
ROADS
100
AcDbPolyline
 90
2
 70
0
 10
625598.8401432952
 20
4837265.471806721
 10
625587.3040044841
 20
4837310.373764006
  0
LWPOLYLINE
  5
112
330
17
100
AcDbEntity
  8
ROADS
100
AcDbPolyline
 90
2
 70
0
 10
625587.3040044841
 20
4837310.373764006
 10
625498.8436780168
 20
4837282.103487268
  0
LWPOLYLINE
  5
113
330
17
100
AcDbEntity
  8
ROADS
100
AcDbPolyline
 90
2
 70
0
 10
625776.8447288533
 20
4837320.751910243
 10
625688.2525828126
 20
4837292.883255046
  0
LWPOLYLINE
  5
114
330
17
100
AcDbEntity
  8
ROADS
100
AcDbPolyline
 90
2
 70
0
 10
625688.2525828126
 20
4837292.883255046
 10
625674.6934463897
 20
4837337.750638548
  0
LWPOLYLINE
  5
115
330
17
100
AcDbEntity
  8
ROADS
100
AcDbPolyline
 90
2
 70
0
 10
625674.6934463897
 20
4837337.750638548
 10
625587.3040044841
 20
4837310.373764006
  0
LWPOLYLINE
  5
116
330
17
100
AcDbEntity
  8
ROADS
100
AcDbPolyline
 90
2
 70
0
 10
625587.3040044841
 20
4837310.373764006
 10
625578.0834589341
 20
4837351.821394961
  0
LWPOLYLINE
  5
117
330
17
100
AcDbEntity
  8
ROADS
100
AcDbPolyline
 90
2
 70
0
 10
625578.0834589341
 20
4837351.821394961
 10
625487.8832714956
 20
4837325.943781419
  0
LWPOLYLINE
  5
118
330
17
100
AcDbEntity
  8
ROADS
100
AcDbPolyline
 90
2
 70
0
 10
626169.4321238025
 20
4837182.586100427
 10
626131.5901063283
 20
4837298.759636142
  0
LWPOLYLINE
  5
119
330
17
100
AcDbEntity
  8
ROADS
100
AcDbPolyline
 90
3
 70
0
 10
626332.5743190874
 20
4837270.870450417
 10
626262.4206116532
 20
4837255.084906368
 10
626237.054088002
 20
4837229.3716768315
  0
LWPOLYLINE
  5
11A
330
17
100
AcDbEntity
  8
ROADS
100
AcDbPolyline
 90
2
 70
0
 10
626332.5743190874
 20
4837270.870450417
 10
626309.9839330136
 20
4837348.95557721
  0
LWPOLYLINE
  5
11B
330
17
100
AcDbEntity
  8
ROADS
100
AcDbPolyline
 90
4
 70
0
 10
626309.9839330136
 20
4837348.95557721
 10
626270.9909176534
 20
4837348.994448737
 10
626199.9304413628
 20
4837312.346261881
 10
626131.5901063283
 20
4837298.759636142
  0
LWPOLYLINE
  5
11C
330
17
100
AcDbEntity
  8
ROADS
100
AcDbPolyline
 90
2
 70
0
 10
626131.5901063283
 20
4837298.759636142
 10
626106.3334512461
 20
4837374.639368895
  0
LWPOLYLINE
  5
11D
330
17
100
AcDbEntity
  8
ROADS
100
AcDbPolyline
 90
2
 70
0
 10
626406.0129939539
 20
4837371.332454569
 10
626309.9839330136
 20
4837348.95557721
  0
LWPOLYLINE
  5
11E
330
17
100
AcDbEntity
  8
ROADS
100
AcDbPolyline
 90
2
 70
0
 10
626309.9839330136
 20
4837348.95557721
 10
626280.7816150312
 20
4837432.599454793
  0
LWPOLYLINE
  5
11F
330
17
100
AcDbEntity
  8
ROADS
100
AcDbPolyline
 90
2
 70
0
 10
626106.3334512461
 20
4837374.639368895
 10
626089.609980962
 20
4837423.6608263105
  0
LWPOLYLINE
  5
120
330
17
100
AcDbEntity
  8
ROADS
100
AcDbPolyline
 90
2
 70
0
 10
626280.7816150312
 20
4837432.599454793
 10
626106.3334512461
 20
4837374.639368895
  0
LWPOLYLINE
  5
121
330
17
100
AcDbEntity
  8
ROADS
100
AcDbPolyline
 90
2
 70
0
 10
626265.295921335
 20
4837479.369185511
 10
626089.609980962
 20
4837423.6608263105
  0
LWPOLYLINE
  5
122
330
17
100
AcDbEntity
  8
ROADS
100
AcDbPolyline
 90
2
 70
0
 10
625898.7926476579
 20
4837227.939754271
 10
625859.0049002342
 20
4837347.770217601
  0
LWPOLYLINE
  5
123
330
17
100
AcDbEntity
  8
ROADS
100
AcDbPolyline
 90
2
 70
0
 10
626131.5901063283
 20
4837298.759636142
 10
626040.0164138228
 20
4837283.182762505
  0
LWPOLYLINE
  5
124
330
17
100
AcDbEntity
  8
ROADS
100
AcDbPolyline
 90
2
 70
0
 10
625859.0049002342
 20
4837347.770217601
 10
625776.8447288533
 20
4837320.751910243
  0
LWPOLYLINE
  5
125
330
17
100
AcDbEntity
  8
ROADS
100
AcDbPolyline
 90
2
 70
0
 10
625859.0049002342
 20
4837347.770217601
 10
625902.6839543467
 20
4837362.229930023
  0
LWPOLYLINE
  5
126
330
17
100
AcDbEntity
  8
ROADS
100
AcDbPolyline
 90
2
 70
0
 10
625859.0049002342
 20
4837347.770217601
 10
625843.4447084197
 20
4837393.186467345
  0
LWPOLYLINE
  5
127
330
17
100
AcDbEntity
  8
ROADS
100
AcDbPolyline
 90
2
 70
0
 10
625843.4447084197
 20
4837393.186467345
 10
625764.7410222674
 20
4837367.5352346245
  0
LWPOLYLINE
  5
128
330
17
100
AcDbEntity
  8
ROADS
100
AcDbPolyline
 90
2
 70
0
 10
625856.4819675221
 20
4837398.135515938
 10
625843.4447084197
 20
4837393.186467345
  0
LWPOLYLINE
  5
129
330
17
100
AcDbEntity
  8
ROADS
100
AcDbPolyline
 90
2
 70
0
 10
625941.0139907213
 20
4837427.105854115
 10
625856.4819675221
 20
4837398.135515938
  0
LWPOLYLINE
  5
12A
330
17
100
AcDbEntity
  8
ROADS
100
AcDbPolyline
 90
2
 70
0
 10
626018.7365733943
 20
4837452.982884706
 10
625941.0139907213
 20
4837427.105854115
  0
LWPOLYLINE
  5
12B
330
17
100
AcDbEntity
  8
ROADS
100
AcDbPolyline
 90
2
 70
0
 10
626089.609980962
 20
4837423.6608263105
 10
626073.1025226437
 20
4837470.47005551
  0
LWPOLYLINE
  5
12C
330
17
100
AcDbEntity
  8
ROADS
100
AcDbPolyline
 90
2
 70
0
 10
626280.7816150312
 20
4837432.599454793
 10
626265.295921335
 20
4837479.369185511
  0
LWPOLYLINE
  5
12D
330
17
100
AcDbEntity
  8
ROADS
100
AcDbPolyline
 90
2
 70
0
 10
626406.0129939539
 20
4837371.332454569
 10
626346.2593566016
 20
4837556.584912993
  0
LWPOLYLINE
  5
12E
330
17
100
AcDbEntity
  8
ROADS
100
AcDbPolyline
 90
2
 70
0
 10
626171.4090447243
 20
4837502.114685002
 10
626090.9090608357
 20
4837475.751377029
  0
LWPOLYLINE
  5
12F
330
17
100
AcDbEntity
  8
ROADS
100
AcDbPolyline
 90
2
 70
0
 10
626265.295921335
 20
4837479.369185511
 10
626252.6019580972
 20
4837526.494418843
  0
LWPOLYLINE
  5
130
330
17
100
AcDbEntity
  8
ROADS
100
AcDbPolyline
 90
2
 70
0
 10
626252.6019580972
 20
4837526.494418843
 10
626171.4090447243
 20
4837502.114685002
  0
LWPOLYLINE
  5
131
330
17
100
AcDbEntity
  8
ROADS
100
AcDbPolyline
 90
2
 70
0
 10
626346.2593566016
 20
4837556.584912993
 10
626252.6019580972
 20
4837526.494418843
  0
LWPOLYLINE
  5
132
330
17
100
AcDbEntity
  8
ROADS
100
AcDbPolyline
 90
2
 70
0
 10
626252.6019580972
 20
4837526.494418843
 10
626234.544443126
 20
4837589.336582899
  0
LWPOLYLINE
  5
133
330
17
100
AcDbEntity
  8
ROADS
100
AcDbPolyline
 90
2
 70
0
 10
626346.2593566016
 20
4837556.584912993
 10
626329.8805764088
 20
4837611.483979802
  0
LWPOLYLINE
  5
134
330
17
100
AcDbEntity
  8
ROADS
100
AcDbPolyline
 90
2
 70
0
 10
626171.4090447243
 20
4837502.114685002
 10
626091.9789586494
 20
4837752.5749818375
  0
LWPOLYLINE
  5
135
330
17
100
AcDbEntity
  8
ROADS
100
AcDbPolyline
 90
3
 70
0
 10
626329.8805764088
 20
4837611.483979802
 10
626312.7085316671
 20
4837620.553974095
 10
626282.3242795903
 20
4837711.54089059
  0
LWPOLYLINE
  5
136
330
17
100
AcDbEntity
  8
ROADS
100
AcDbPolyline
 90
2
 70
0
 10
626073.1025226437
 20
4837470.47005551
 10
626018.7365733943
 20
4837452.982884706
  0
LWPOLYLINE
  5
137
330
17
100
AcDbEntity
  8
ROADS
100
AcDbPolyline
 90
2
 70
0
 10
626090.9090608357
 20
4837475.751377029
 10
626073.1025226437
 20
4837470.47005551
  0
LWPOLYLINE
  5
138
330
17
100
AcDbEntity
  8
ROADS
100
AcDbPolyline
 90
2
 70
0
 10
626018.7365733943
 20
4837452.982884706
 10
626004.4490809635
 20
4837499.635239256
  0
LWPOLYLINE
  5
139
330
17
100
AcDbEntity
  8
ROADS
100
AcDbPolyline
 90
2
 70
0
 10
626090.9090608357
 20
4837475.751377029
 10
626076.2438114259
 20
4837522.609921464
  0
LWPOLYLINE
  5
13A
330
17
100
AcDbEntity
  8
ROADS
100
AcDbPolyline
 90
2
 70
0
 10
626076.2438114259
 20
4837522.609921464
 10
626004.4490809635
 20
4837499.635239256
  0
LWPOLYLINE
  5
13B
330
17
100
AcDbEntity
  8
ROADS
100
AcDbPolyline
 90
2
 70
0
 10
625941.0139907213
 20
4837427.105854115
 10
625863.7007341832
 20
4837679.468387381
  0
LWPOLYLINE
  5
13C
330
17
100
AcDbEntity
  8
ROADS
100
AcDbPolyline
 90
2
 70
0
 10
625856.4819675221
 20
4837398.135515938
 10
625746.6277377144
 20
4837740.858720552
  0
LWPOLYLINE
  5
13D
330
17
100
AcDbEntity
  8
ROADS
100
AcDbPolyline
 90
2
 70
0
 10
626004.4490809635
 20
4837499.635239256
 10
625940.7793314338
 20
4837703.128695602
  0
LWPOLYLINE
  5
13E
330
17
100
AcDbEntity
  8
ROADS
100
AcDbPolyline
 90
2
 70
0
 10
626076.2438114259
 20
4837522.609921464
 10
626012.82985656
 20
4837727.054098958
  0
LWPOLYLINE
  5
13F
330
17
100
AcDbEntity
  8
ROADS
100
AcDbPolyline
 90
2
 70
0
 10
625863.7007341832
 20
4837679.468387381
 10
625824.721888335
 20
4837669.43689246
  0
LWPOLYLINE
  5
140
330
17
100
AcDbEntity
  8
ROADS
100
AcDbPolyline
 90
2
 70
0
 10
625054.6861740764
 20
4837139.34668356
 10
625040.7357584847
 20
4837181.465759624
  0
LWPOLYLINE
  5
141
330
17
100
AcDbEntity
  8
ROADS
100
AcDbPolyline
 90
2
 70
0
 10
624944.4232061901
 20
4837150.343410977
 10
624937.0232506769
 20
4837172.493821827
  0
LWPOLYLINE
  5
142
330
17
100
AcDbEntity
  8
ROADS
100
AcDbPolyline
 90
2
 70
0
 10
625149.8726551977
 20
4837170.91370076
 10
625094.3790164436
 20
4837152.08615742
  0
LWPOLYLINE
  5
143
330
17
100
AcDbEntity
  8
ROADS
100
AcDbPolyline
 90
2
 70
0
 10
624937.0232506769
 20
4837172.493821827
 10
624896.7167284181
 20
4837159.625246887
  0
LWPOLYLINE
  5
144
330
17
100
AcDbEntity
  8
ROADS
100
AcDbPolyline
 90
2
 70
0
 10
625040.7357584847
 20
4837181.465759624
 10
624992.4310510895
 20
4837166.038406458
  0
LWPOLYLINE
  5
145
330
17
100
AcDbEntity
  8
ROADS
100
AcDbPolyline
 90
2
 70
0
 10
625088.7321305277
 20
4837197.187557853
 10
625040.7357584847
 20
4837181.465759624
  0
LWPOLYLINE
  5
146
330
17
100
AcDbEntity
  8
ROADS
100
AcDbPolyline
 90
2
 70
0
 10
625149.8726551977
 20
4837170.91370076
 10
625136.1836202603
 20
4837212.901506836
  0
LWPOLYLINE
  5
147
330
17
100
AcDbEntity
  8
ROADS
100
AcDbPolyline
 90
2
 70
0
 10
625136.1836202603
 20
4837212.901506836
 10
625088.7321305277
 20
4837197.187557853
  0
LWPOLYLINE
  5
148
330
17
100
AcDbEntity
  8
ROADS
100
AcDbPolyline
 90
2
 70
0
 10
625184.7970268235
 20
4837228.900487294
 10
625136.1836202603
 20
4837212.901506836
  0
LWPOLYLINE
  5
149
330
17
100
AcDbEntity
  8
ROADS
100
AcDbPolyline
 90
3
 70
0
 10
624944.4232061901
 20
4837150.343410977
 10
624896.062237578
 20
4837134.378019453
 10
624836.3792034332
 20
4837323.600175952
  0
LWPOLYLINE
  5
14A
330
17
100
AcDbEntity
  8
ROADS
100
AcDbPolyline
 90
2
 70
0
 10
624937.0232506769
 20
4837172.493821827
 10
624896.0222175743
 20
4837300.942481508
  0
LWPOLYLINE
  5
14B
330
17
100
AcDbEntity
  8
ROADS
100
AcDbPolyline
 90
2
 70
0
 10
624992.4310510895
 20
4837166.038406458
 10
624944.5989408069
 20
4837316.755790324
  0
LWPOLYLINE
  5
14C
330
17
100
AcDbEntity
  8
ROADS
100
AcDbPolyline
 90
2
 70
0
 10
625040.7357584847
 20
4837181.465759624
 10
624992.6130166949
 20
4837332.492924717
  0
LWPOLYLINE
  5
14D
330
17
100
AcDbEntity
  8
ROADS
100
AcDbPolyline
 90
2
 70
0
 10
625088.7321305277
 20
4837197.187557853
 10
625040.6126090047
 20
4837348.201800023
  0
LWPOLYLINE
  5
14E
330
17
100
AcDbEntity
  8
ROADS
100
AcDbPolyline
 90
2
 70
0
 10
625136.1836202603
 20
4837212.901506836
 10
625088.8329888688
 20
4837363.59165456
  0
LWPOLYLINE
  5
14F
330
17
100
AcDbEntity
  8
ROADS
100
AcDbPolyline
 90
2
 70
0
 10
625184.7970268235
 20
4837228.900487294
 10
625136.7532725844
 20
4837379.705127004
  0
LWPOLYLINE
  5
150
330
17
100
AcDbEntity
  8
ROADS
100
AcDbPolyline
 90
2
 70
0
 10
624944.5989408069
 20
4837316.755790324
 10
624896.0222175743
 20
4837300.942481508
  0
LWPOLYLINE
  5
151
330
17
100
AcDbEntity
  8
ROADS
100
AcDbPolyline
 90
2
 70
0
 10
624896.0222175743
 20
4837300.942481508
 10
624883.8528773653
 20
4837339.080519992
  0
LWPOLYLINE
  5
152
330
17
100
AcDbEntity
  8
ROADS
100
AcDbPolyline
 90
2
 70
0
 10
624992.6130166949
 20
4837332.492924717
 10
624944.5989408069
 20
4837316.755790324
  0
LWPOLYLINE
  5
153
330
17
100
AcDbEntity
  8
ROADS
100
AcDbPolyline
 90
2
 70
0
 10
625040.6126090047
 20
4837348.201800023
 10
624992.6130166949
 20
4837332.492924717
  0
LWPOLYLINE
  5
154
330
17
100
AcDbEntity
  8
ROADS
100
AcDbPolyline
 90
2
 70
0
 10
625339.1505743815
 20
4837229.626735991
 10
625291.5710117596
 20
4837214.025466033
  0
LWPOLYLINE
  5
155
330
17
100
AcDbEntity
  8
ROADS
100
AcDbPolyline
 90
2
 70
0
 10
625246.7224269238
 20
4837201.475756455
 10
625232.8520543522
 20
4837244.421348118
  0
LWPOLYLINE
  5
156
330
17
100
AcDbEntity
  8
ROADS
100
AcDbPolyline
 90
2
 70
0
 10
625232.8520543522
 20
4837244.421348118
 10
625184.7970268235
 20
4837228.900487294
  0
LWPOLYLINE
  5
157
330
17
100
AcDbEntity
  8
ROADS
100
AcDbPolyline
 90
2
 70
0
 10
625339.1505743815
 20
4837229.626735991
 10
625324.5748381073
 20
4837274.96771827
  0
LWPOLYLINE
  5
158
330
17
100
AcDbEntity
  8
ROADS
100
AcDbPolyline
 90
2
 70
0
 10
625498.8436780168
 20
4837282.103487268
 10
625339.1505743815
 20
4837229.626735991
  0
LWPOLYLINE
  5
159
330
17
100
AcDbEntity
  8
ROADS
100
AcDbPolyline
 90
2
 70
0
 10
625324.5748381073
 20
4837274.96771827
 10
625311.5905118724
 20
4837317.636324247
  0
LWPOLYLINE
  5
15A
330
17
100
AcDbEntity
  8
ROADS
100
AcDbPolyline
 90
2
 70
0
 10
625487.8832714956
 20
4837325.943781419
 10
625324.5748381073
 20
4837274.96771827
  0
LWPOLYLINE
  5
15B
330
17
100
AcDbEntity
  8
ROADS
100
AcDbPolyline
 90
2
 70
0
 10
625498.8436780168
 20
4837282.103487268
 10
625487.8832714956
 20
4837325.943781419
  0
LWPOLYLINE
  5
15C
330
17
100
AcDbEntity
  8
ROADS
100
AcDbPolyline
 90
2
 70
0
 10
625232.8520543522
 20
4837244.421348118
 10
625184.9325378141
 20
4837395.544271917
  0
LWPOLYLINE
  5
15D
330
17
100
AcDbEntity
  8
ROADS
100
AcDbPolyline
 90
2
 70
0
 10
625354.6799839423
 20
4837331.348306431
 10
625311.5905118724
 20
4837317.636324247
  0
LWPOLYLINE
  5
15E
330
17
100
AcDbEntity
  8
ROADS
100
AcDbPolyline
 90
2
 70
0
 10
624992.6130166949
 20
4837332.492924717
 10
624978.1368645085
 20
4837378.686703855
  0
LWPOLYLINE
  5
15F
330
17
100
AcDbEntity
  8
ROADS
100
AcDbPolyline
 90
2
 70
0
 10
625088.8329888688
 20
4837363.59165456
 10
625040.6126090047
 20
4837348.201800023
  0
LWPOLYLINE
  5
160
330
17
100
AcDbEntity
  8
ROADS
100
AcDbPolyline
 90
2
 70
0
 10
624978.1368645085
 20
4837378.686703855
 10
624880.6554362713
 20
4837349.104251274
  0
LWPOLYLINE
  5
161
330
17
100
AcDbEntity
  8
ROADS
100
AcDbPolyline
 90
2
 70
0
 10
625136.7532725844
 20
4837379.705127004
 10
625088.8329888688
 20
4837363.59165456
  0
LWPOLYLINE
  5
162
330
17
100
AcDbEntity
  8
ROADS
100
AcDbPolyline
 90
2
 70
0
 10
625088.8329888688
 20
4837363.59165456
 10
625074.3941978909
 20
4837409.765120238
  0
LWPOLYLINE
  5
163
330
17
100
AcDbEntity
  8
ROADS
100
AcDbPolyline
 90
2
 70
0
 10
625184.9325378141
 20
4837395.544271917
 10
625136.7532725844
 20
4837379.705127004
  0
LWPOLYLINE
  5
164
330
17
100
AcDbEntity
  8
ROADS
100
AcDbPolyline
 90
2
 70
0
 10
625074.3941978909
 20
4837409.765120238
 10
624978.1368645085
 20
4837378.686703855
  0
LWPOLYLINE
  5
165
330
17
100
AcDbEntity
  8
ROADS
100
AcDbPolyline
 90
2
 70
0
 10
624914.8167049586
 20
4837408.418284413
 10
624867.0890327797
 20
4837392.439308486
  0
LWPOLYLINE
  5
166
330
17
100
AcDbEntity
  8
ROADS
100
AcDbPolyline
 90
2
 70
0
 10
624978.1368645085
 20
4837378.686703855
 10
624963.3924889385
 20
4837424.5046078125
  0
LWPOLYLINE
  5
167
330
17
100
AcDbEntity
  8
ROADS
100
AcDbPolyline
 90
2
 70
0
 10
624963.3924889385
 20
4837424.5046078125
 10
624914.8167049586
 20
4837408.418284413
  0
LWPOLYLINE
  5
168
330
17
100
AcDbEntity
  8
ROADS
100
AcDbPolyline
 90
2
 70
0
 10
625487.8832714956
 20
4837325.943781419
 10
625473.9723739536
 20
4837370.188740279
  0
LWPOLYLINE
  5
169
330
17
100
AcDbEntity
  8
ROADS
100
AcDbPolyline
 90
2
 70
0
 10
625473.9723739536
 20
4837370.188740279
 10
625354.6799839423
 20
4837331.348306431
  0
LWPOLYLINE
  5
16A
330
17
100
AcDbEntity
  8
ROADS
100
AcDbPolyline
 90
3
 70
0
 10
625232.8520543522
 20
4837244.421348118
 10
625282.5347518814
 20
4837260.297666939
 10
625218.8715220026
 20
4837458.192530427
  0
LWPOLYLINE
  5
16B
330
17
100
AcDbEntity
  8
ROADS
100
AcDbPolyline
 90
2
 70
0
 10
625311.5905118724
 20
4837317.636324247
 10
625262.0635252857
 20
4837472.040388966
  0
LWPOLYLINE
  5
16C
330
17
100
AcDbEntity
  8
ROADS
100
AcDbPolyline
 90
2
 70
0
 10
625354.6799839423
 20
4837331.348306431
 10
625306.4997596301
 20
4837486.653794787
  0
LWPOLYLINE
  5
16D
330
17
100
AcDbEntity
  8
ROADS
100
AcDbPolyline
 90
2
 70
0
 10
625473.9723739536
 20
4837370.188740279
 10
625425.2080532804
 20
4837524.721672102
  0
LWPOLYLINE
  5
16E
330
17
100
AcDbEntity
  8
ROADS
100
AcDbPolyline
 90
2
 70
0
 10
625218.8715220026
 20
4837458.192530427
 10
625170.1616048343
 20
4837441.281718756
  0
LWPOLYLINE
  5
16F
330
17
100
AcDbEntity
  8
ROADS
100
AcDbPolyline
 90
2
 70
0
 10
625262.0635252857
 20
4837472.040388966
 10
625218.8715220026
 20
4837458.192530427
  0
LWPOLYLINE
  5
170
330
17
100
AcDbEntity
  8
ROADS
100
AcDbPolyline
 90
2
 70
0
 10
625306.4997596301
 20
4837486.653794787
 10
625262.0635252857
 20
4837472.040388966
  0
LWPOLYLINE
  5
171
330
17
100
AcDbEntity
  8
ROADS
100
AcDbPolyline
 90
2
 70
0
 10
625218.8715220026
 20
4837458.192530427
 10
625202.1025814696
 20
4837512.605333734
  0
LWPOLYLINE
  5
172
330
17
100
AcDbEntity
  8
ROADS
100
AcDbPolyline
 90
2
 70
0
 10
625184.9325378141
 20
4837395.544271917
 10
625170.1616048343
 20
4837441.281718756
  0
LWPOLYLINE
  5
173
330
17
100
AcDbEntity
  8
ROADS
100
AcDbPolyline
 90
2
 70
0
 10
625170.1616048343
 20
4837441.281718756
 10
625074.3941978909
 20
4837409.765120238
  0
LWPOLYLINE
  5
174
330
17
100
AcDbEntity
  8
ROADS
100
AcDbPolyline
 90
2
 70
0
 10
625011.0560079738
 20
4837439.441874715
 10
624963.3924889385
 20
4837424.5046078125
  0
LWPOLYLINE
  5
175
330
17
100
AcDbEntity
  8
ROADS
100
AcDbPolyline
 90
2
 70
0
 10
625074.3941978909
 20
4837409.765120238
 10
625059.661069321
 20
4837455.624241776
  0
LWPOLYLINE
  5
176
330
17
100
AcDbEntity
  8
ROADS
100
AcDbPolyline
 90
2
 70
0
 10
625059.661069321
 20
4837455.624241776
 10
625011.0560079738
 20
4837439.441874715
  0
LWPOLYLINE
  5
177
330
17
100
AcDbEntity
  8
ROADS
100
AcDbPolyline
 90
2
 70
0
 10
625107.7153473592
 20
4837471.019109142
 10
625059.661069321
 20
4837455.624241776
  0
LWPOLYLINE
  5
178
330
17
100
AcDbEntity
  8
ROADS
100
AcDbPolyline
 90
2
 70
0
 10
625170.1616048343
 20
4837441.281718756
 10
625155.1577220061
 20
4837487.125954975
  0
LWPOLYLINE
  5
179
330
17
100
AcDbEntity
  8
ROADS
100
AcDbPolyline
 90
2
 70
0
 10
625155.1577220061
 20
4837487.125954975
 10
625107.7153473592
 20
4837471.019109142
  0
LWPOLYLINE
  5
17A
330
17
100
AcDbEntity
  8
ROADS
100
AcDbPolyline
 90
2
 70
0
 10
624914.8167049586
 20
4837408.418284413
 10
624867.2991593368
 20
4837559.542311733
  0
LWPOLYLINE
  5
17B
330
17
100
AcDbEntity
  8
ROADS
100
AcDbPolyline
 90
2
 70
0
 10
624963.3924889385
 20
4837424.5046078125
 10
624914.7977124811
 20
4837575.41616228
  0
LWPOLYLINE
  5
17C
330
17
100
AcDbEntity
  8
ROADS
100
AcDbPolyline
 90
2
 70
0
 10
624880.6554362713
 20
4837349.104251274
 10
624867.0890327797
 20
4837392.439308486
  0
LWPOLYLINE
  5
17D
330
17
100
AcDbEntity
  8
ROADS
100
AcDbPolyline
 90
2
 70
0
 10
624836.3792034332
 20
4837323.600175952
 10
624803.149525601
 20
4837428.859903638
  0
LWPOLYLINE
  5
17E
330
17
100
AcDbEntity
  8
ROADS
100
AcDbPolyline
 90
2
 70
0
 10
624867.0890327797
 20
4837392.439308486
 10
624823.47702881
 20
4837531.7454058025
  0
LWPOLYLINE
  5
17F
330
17
100
AcDbEntity
  8
ROADS
100
AcDbPolyline
 90
2
 70
0
 10
624867.2991593368
 20
4837559.542311733
 10
624827.1717311877
 20
4837546.131039799
  0
LWPOLYLINE
  5
180
330
17
100
AcDbEntity
  8
ROADS
100
AcDbPolyline
 90
2
 70
0
 10
624901.00759817
 20
4837621.055296765
 10
624847.1302054073
 20
4837606.444530542
  0
LWPOLYLINE
  5
181
330
17
100
AcDbEntity
  8
ROADS
100
AcDbPolyline
 90
2
 70
0
 10
625155.1577220061
 20
4837487.125954975
 10
625137.7628996117
 20
4837543.078514056
  0
LWPOLYLINE
  5
182
330
17
100
AcDbEntity
  8
ROADS
100
AcDbPolyline
 90
2
 70
0
 10
625011.0560079738
 20
4837439.441874715
 10
624962.594202423
 20
4837590.852380965
  0
LWPOLYLINE
  5
183
330
17
100
AcDbEntity
  8
ROADS
100
AcDbPolyline
 90
2
 70
0
 10
625059.661069321
 20
4837455.624241776
 10
625011.6125718642
 20
4837606.741725978
  0
LWPOLYLINE
  5
184
330
17
100
AcDbEntity
  8
ROADS
100
AcDbPolyline
 90
2
 70
0
 10
625107.7153473592
 20
4837471.019109142
 10
625059.4116297301
 20
4837622.479016551
  0
LWPOLYLINE
  5
185
330
17
100
AcDbEntity
  8
ROADS
100
AcDbPolyline
 90
2
 70
0
 10
625187.5201816111
 20
4837559.86127261
 10
625137.7628996117
 20
4837543.078514056
  0
LWPOLYLINE
  5
186
330
17
100
AcDbEntity
  8
ROADS
100
AcDbPolyline
 90
2
 70
0
 10
624914.7977124811
 20
4837575.41616228
 10
624867.2991593368
 20
4837559.542311733
  0
LWPOLYLINE
  5
187
330
17
100
AcDbEntity
  8
ROADS
100
AcDbPolyline
 90
2
 70
0
 10
625187.5201816111
 20
4837559.86127261
 10
625172.4707738042
 20
4837606.341718527
  0
LWPOLYLINE
  5
188
330
17
100
AcDbEntity
  8
ROADS
100
AcDbPolyline
 90
2
 70
0
 10
624962.594202423
 20
4837590.852380965
 10
624914.7977124811
 20
4837575.41616228
  0
LWPOLYLINE
  5
189
330
17
100
AcDbEntity
  8
ROADS
100
AcDbPolyline
 90
2
 70
0
 10
625137.7628996117
 20
4837543.078514056
 10
625106.9186250839
 20
4837637.998017515
  0
LWPOLYLINE
  5
18A
330
17
100
AcDbEntity
  8
ROADS
100
AcDbPolyline
 90
2
 70
0
 10
624914.7977124811
 20
4837575.41616228
 10
624901.00759817
 20
4837621.055296765
  0
LWPOLYLINE
  5
18B
330
17
100
AcDbEntity
  8
ROADS
100
AcDbPolyline
 90
2
 70
0
 10
625425.2080532804
 20
4837524.721672102
 10
625306.4997596301
 20
4837486.653794787
  0
LWPOLYLINE
  5
18C
330
17
100
AcDbEntity
  8
ROADS
100
AcDbPolyline
 90
2
 70
0
 10
625202.1025814696
 20
4837512.605333734
 10
625187.5201816111
 20
4837559.86127261
  0
LWPOLYLINE
  5
18D
330
17
100
AcDbEntity
  8
ROADS
100
AcDbPolyline
 90
3
 70
0
 10
625350.8727094406
 20
4837613.646411476
 10
625365.8083038862
 20
4837566.989872873
 10
625202.1025814696
 20
4837512.605333734
  0
LWPOLYLINE
  5
18E
330
17
100
AcDbEntity
  8
ROADS
100
AcDbPolyline
 90
2
 70
0
 10
625233.2759894107
 20
4837575.054583076
 10
625187.5201816111
 20
4837559.86127261
  0
LWPOLYLINE
  5
18F
330
17
100
AcDbEntity
  8
ROADS
100
AcDbPolyline
 90
2
 70
0
 10
625425.2080532804
 20
4837524.721672102
 10
625392.8401033754
 20
4837627.414144398
  0
LWPOLYLINE
  5
190
330
17
100
AcDbEntity
  8
ROADS
100
AcDbPolyline
 90
2
 70
0
 10
625312.3861798836
 20
4837601.279709981
 10
625233.2759894107
 20
4837575.054583076
  0
LWPOLYLINE
  5
191
330
17
100
AcDbEntity
  8
ROADS
100
AcDbPolyline
 90
2
 70
0
 10
625233.2759894107
 20
4837575.054583076
 10
625217.8703780592
 20
4837622.042621495
  0
LWPOLYLINE
  5
192
330
17
100
AcDbEntity
  8
ROADS
100
AcDbPolyline
 90
2
 70
0
 10
625350.8727094406
 20
4837613.646411476
 10
625312.3861798836
 20
4837601.279709981
  0
LWPOLYLINE
  5
193
330
17
100
AcDbEntity
  8
ROADS
100
AcDbPolyline
 90
2
 70
0
 10
625217.8703780592
 20
4837622.042621495
 10
625172.4707738042
 20
4837606.341718527
  0
LWPOLYLINE
  5
194
330
17
100
AcDbEntity
  8
ROADS
100
AcDbPolyline
 90
2
 70
0
 10
625392.8401033754
 20
4837627.414144398
 10
625350.8727094406
 20
4837613.646411476
  0
LWPOLYLINE
  5
195
330
17
100
AcDbEntity
  8
ROADS
100
AcDbPolyline
 90
2
 70
0
 10
625011.6125718642
 20
4837606.741725978
 10
624962.594202423
 20
4837590.852380965
  0
LWPOLYLINE
  5
196
330
17
100
AcDbEntity
  8
ROADS
100
AcDbPolyline
 90
2
 70
0
 10
625059.4116297301
 20
4837622.479016551
 10
625011.6125718642
 20
4837606.741725978
  0
LWPOLYLINE
  5
197
330
17
100
AcDbEntity
  8
ROADS
100
AcDbPolyline
 90
2
 70
0
 10
625011.6125718642
 20
4837606.741725978
 10
624997.4293113006
 20
4837652.663778309
  0
LWPOLYLINE
  5
198
330
17
100
AcDbEntity
  8
ROADS
100
AcDbPolyline
 90
2
 70
0
 10
625106.9186250839
 20
4837637.998017515
 10
625059.4116297301
 20
4837622.479016551
  0
LWPOLYLINE
  5
199
330
17
100
AcDbEntity
  8
ROADS
100
AcDbPolyline
 90
2
 70
0
 10
624997.4293113006
 20
4837652.663778309
 10
624901.00759817
 20
4837621.055296765
  0
LWPOLYLINE
  5
19A
330
17
100
AcDbEntity
  8
ROADS
100
AcDbPolyline
 90
2
 70
0
 10
624901.00759817
 20
4837621.055296765
 10
624885.8320516978
 20
4837666.824379875
  0
LWPOLYLINE
  5
19B
330
17
100
AcDbEntity
  8
ROADS
100
AcDbPolyline
 90
2
 70
0
 10
625172.4707738042
 20
4837606.341718527
 10
625141.6795128116
 20
4837701.204181892
  0
LWPOLYLINE
  5
19C
330
17
100
AcDbEntity
  8
ROADS
100
AcDbPolyline
 90
2
 70
0
 10
625106.9186250839
 20
4837637.998017515
 10
625091.7442832469
 20
4837684.695201625
  0
LWPOLYLINE
  5
19D
330
17
100
AcDbEntity
  8
ROADS
100
AcDbPolyline
 90
2
 70
0
 10
625091.7442832469
 20
4837684.695201625
 10
624997.4293113006
 20
4837652.663778309
  0
LWPOLYLINE
  5
19E
330
17
100
AcDbEntity
  8
ROADS
100
AcDbPolyline
 90
2
 70
0
 10
624935.0483834246
 20
4837682.660309702
 10
624885.8320516978
 20
4837666.824379875
  0
LWPOLYLINE
  5
19F
330
17
100
AcDbEntity
  8
ROADS
100
AcDbPolyline
 90
2
 70
0
 10
625312.3861798836
 20
4837601.279709981
 10
625297.2516338024
 20
4837647.711629097
  0
LWPOLYLINE
  5
1A0
330
17
100
AcDbEntity
  8
ROADS
100
AcDbPolyline
 90
2
 70
0
 10
625255.7897496657
 20
4837634.305059509
 10
625217.8703780592
 20
4837622.042621495
  0
LWPOLYLINE
  5
1A1
330
17
100
AcDbEntity
  8
ROADS
100
AcDbPolyline
 90
2
 70
0
 10
625350.8727094406
 20
4837613.646411476
 10
625334.9929138294
 20
4837659.757839854
  0
LWPOLYLINE
  5
1A2
330
17
100
AcDbEntity
  8
ROADS
100
AcDbPolyline
 90
2
 70
0
 10
625392.8401033754
 20
4837627.414144398
 10
625386.329860957
 20
4837648.585609541
  0
LWPOLYLINE
  5
1A3
330
17
100
AcDbEntity
  8
ROADS
100
AcDbPolyline
 90
2
 70
0
 10
625297.2516338024
 20
4837647.711629097
 10
625255.7897496657
 20
4837634.305059509
  0
LWPOLYLINE
  5
1A4
330
17
100
AcDbEntity
  8
ROADS
100
AcDbPolyline
 90
2
 70
0
 10
625297.2516338024
 20
4837647.711629097
 10
625334.9929138294
 20
4837659.757839854
  0
LWPOLYLINE
  5
1A5
330
17
100
AcDbEntity
  8
ROADS
100
AcDbPolyline
 90
2
 70
0
 10
625474.5351541168
 20
4837677.268385618
 10
625386.329860957
 20
4837648.585609541
  0
LWPOLYLINE
  5
1A6
330
17
100
AcDbEntity
  8
ROADS
100
AcDbPolyline
 90
2
 70
0
 10
625217.8703780592
 20
4837622.042621495
 10
625183.6906677596
 20
4837715.094215939
  0
LWPOLYLINE
  5
1A7
330
17
100
AcDbEntity
  8
ROADS
100
AcDbPolyline
 90
2
 70
0
 10
625255.7897496657
 20
4837634.305059509
 10
625226.1652370144
 20
4837729.737176372
  0
LWPOLYLINE
  5
1A8
330
17
100
AcDbEntity
  8
ROADS
100
AcDbPolyline
 90
2
 70
0
 10
625297.2516338024
 20
4837647.711629097
 10
625267.4412161466
 20
4837743.966940974
  0
LWPOLYLINE
  5
1A9
330
17
100
AcDbEntity
  8
ROADS
100
AcDbPolyline
 90
2
 70
0
 10
624885.8320516978
 20
4837666.824379875
 10
624869.8637751744
 20
4837661.399601156
  0
LWPOLYLINE
  5
1AA
330
17
100
AcDbEntity
  8
ROADS
100
AcDbPolyline
 90
2
 70
0
 10
624885.8320516978
 20
4837666.824379875
 10
624880.4536128907
 20
4837683.663172482
  0
LWPOLYLINE
  5
1AB
330
17
100
AcDbEntity
  8
ROADS
100
AcDbPolyline
 90
2
 70
0
 10
624997.4293113006
 20
4837652.663778309
 10
624981.9461017959
 20
4837697.749271411
  0
LWPOLYLINE
  5
1AC
330
17
100
AcDbEntity
  8
ROADS
100
AcDbPolyline
 90
2
 70
0
 10
624981.9461017959
 20
4837697.749271411
 10
624935.0483834246
 20
4837682.660309702
  0
LWPOLYLINE
  5
1AD
330
17
100
AcDbEntity
  8
ROADS
100
AcDbPolyline
 90
2
 70
0
 10
625141.6795128116
 20
4837701.204181892
 10
625091.7442832469
 20
4837684.695201625
  0
LWPOLYLINE
  5
1AE
330
17
100
AcDbEntity
  8
ROADS
100
AcDbPolyline
 90
2
 70
0
 10
625029.8310991809
 20
4837713.379121884
 10
624981.9461017959
 20
4837697.749271411
  0
LWPOLYLINE
  5
1AF
330
17
100
AcDbEntity
  8
ROADS
100
AcDbPolyline
 90
2
 70
0
 10
625091.7442832469
 20
4837684.695201625
 10
625077.7633185501
 20
4837729.024831602
  0
LWPOLYLINE
  5
1B0
330
17
100
AcDbEntity
  8
ROADS
100
AcDbPolyline
 90
2
 70
0
 10
625183.6906677596
 20
4837715.094215939
 10
625141.6795128116
 20
4837701.204181892
  0
LWPOLYLINE
  5
1B1
330
17
100
AcDbEntity
  8
ROADS
100
AcDbPolyline
 90
2
 70
0
 10
625077.7633185501
 20
4837729.024831602
 10
625029.8310991809
 20
4837713.379121884
  0
LWPOLYLINE
  5
1B2
330
17
100
AcDbEntity
  8
ROADS
100
AcDbPolyline
 90
2
 70
0
 10
624935.0483834246
 20
4837682.660309702
 10
624914.9304016076
 20
4837745.779193349
  0
LWPOLYLINE
  5
1B3
330
17
100
AcDbEntity
  8
ROADS
100
AcDbPolyline
 90
2
 70
0
 10
624981.9461017959
 20
4837697.749271411
 10
624950.520899981
 20
4837798.88869497
  0
LWPOLYLINE
  5
1B4
330
17
100
AcDbEntity
  8
ROADS
100
AcDbPolyline
 90
2
 70
0
 10
625029.8310991809
 20
4837713.379121884
 10
624988.2005593687
 20
4837847.029668294
  0
LWPOLYLINE
  5
1B5
330
17
100
AcDbEntity
  8
ROADS
100
AcDbPolyline
 90
2
 70
0
 10
625334.9929138294
 20
4837659.757839854
 10
625308.0999349377
 20
4837757.379999898
  0
LWPOLYLINE
  5
1B6
330
17
100
AcDbEntity
  8
ROADS
100
AcDbPolyline
 90
2
 70
0
 10
625386.329860957
 20
4837648.585609541
 10
625347.1750209751
 20
4837770.270392753
  0
LWPOLYLINE
  5
1B7
330
17
100
AcDbEntity
  8
ROADS
100
AcDbPolyline
 90
2
 70
0
 10
625226.1652370144
 20
4837729.737176372
 10
625183.6906677596
 20
4837715.094215939
  0
LWPOLYLINE
  5
1B8
330
17
100
AcDbEntity
  8
ROADS
100
AcDbPolyline
 90
2
 70
0
 10
625267.4412161466
 20
4837743.966940974
 10
625226.1652370144
 20
4837729.737176372
  0
LWPOLYLINE
  5
1B9
330
17
100
AcDbEntity
  8
ROADS
100
AcDbPolyline
 90
2
 70
0
 10
625308.0999349377
 20
4837757.379999898
 10
625267.4412161466
 20
4837743.966940974
  0
LWPOLYLINE
  5
1BA
330
17
100
AcDbEntity
  8
ROADS
100
AcDbPolyline
 90
2
 70
0
 10
625347.1750209751
 20
4837770.270392753
 10
625308.0999349377
 20
4837757.379999898
  0
LWPOLYLINE
  5
1BB
330
17
100
AcDbEntity
  8
ROADS
100
AcDbPolyline
 90
2
 70
0
 10
625474.5351541168
 20
4837677.268385618
 10
625402.2005170274
 20
4837916.115786116
  0
LWPOLYLINE
  5
1BC
330
17
100
AcDbEntity
  8
ROADS
100
AcDbPolyline
 90
2
 70
0
 10
625347.1750209751
 20
4837770.270392753
 10
625311.2587501239
 20
4837887.010439433
  0
LWPOLYLINE
  5
1BD
330
17
100
AcDbEntity
  8
ROADS
100
AcDbPolyline
 90
2
 70
0
 10
625226.1652370144
 20
4837729.737176372
 10
625154.978849065
 20
4837958.014063888
  0
LWPOLYLINE
  5
1BE
330
17
100
AcDbEntity
  8
ROADS
100
AcDbPolyline
 90
2
 70
0
 10
625267.4412161466
 20
4837743.966940974
 10
625196.3411070481
 20
4837971.508873003
  0
LWPOLYLINE
  5
1BF
330
17
100
AcDbEntity
  8
ROADS
100
AcDbPolyline
 90
2
 70
0
 10
625077.7633185501
 20
4837729.024831602
 10
625034.6279865055
 20
4837868.61250143
  0
LWPOLYLINE
  5
1C0
330
17
100
AcDbEntity
  8
ROADS
100
AcDbPolyline
 90
2
 70
0
 10
625141.6795128116
 20
4837701.204181892
 10
625069.85882106
 20
4837929.595436243
  0
LWPOLYLINE
  5
1C1
330
17
100
AcDbEntity
  8
ROADS
100
AcDbPolyline
 90
2
 70
0
 10
625183.6906677596
 20
4837715.094215939
 10
625113.6455154372
 20
4837944.523781388
  0
LWPOLYLINE
  5
1C2
330
17
100
AcDbEntity
  8
ROADS
100
AcDbPolyline
 90
2
 70
0
 10
625034.6279865055
 20
4837868.61250143
 10
624996.355434094
 20
4837856.089762454
  0
LWPOLYLINE
  5
1C3
330
17
100
AcDbEntity
  8
ROADS
100
AcDbPolyline
 90
2
 70
0
 10
625034.6279865055
 20
4837868.61250143
 10
625027.3056331639
 20
4837890.475541178
  0
LWPOLYLINE
  5
1C4
330
17
100
AcDbEntity
  8
ROADS
100
AcDbPolyline
 90
2
 70
0
 10
625113.6455154372
 20
4837944.523781388
 10
625071.3243594824
 20
4837930.938018589
  0
LWPOLYLINE
  5
1C5
330
17
100
AcDbEntity
  8
ROADS
100
AcDbPolyline
 90
2
 70
0
 10
625154.978849065
 20
4837958.014063888
 10
625113.6455154372
 20
4837944.523781388
  0
LWPOLYLINE
  5
1C6
330
17
100
AcDbEntity
  8
ROADS
100
AcDbPolyline
 90
2
 70
0
 10
625196.3411070481
 20
4837971.508873003
 10
625154.978849065
 20
4837958.014063888
  0
LWPOLYLINE
  5
1C7
330
17
100
AcDbEntity
  8
ROADS
100
AcDbPolyline
 90
2
 70
0
 10
625776.8447288533
 20
4837320.751910243
 10
625764.7410222674
 20
4837367.5352346245
  0
LWPOLYLINE
  5
1C8
330
17
100
AcDbEntity
  8
ROADS
100
AcDbPolyline
 90
2
 70
0
 10
625764.7410222674
 20
4837367.5352346245
 10
625674.6934463897
 20
4837337.750638548
  0
LWPOLYLINE
  5
1C9
330
17
100
AcDbEntity
  8
ROADS
100
AcDbPolyline
 90
2
 70
0
 10
625578.0834589341
 20
4837351.821394961
 10
625474.5351541168
 20
4837677.268385618
  0
LWPOLYLINE
  5
1CA
330
17
100
AcDbEntity
  8
ROADS
100
AcDbPolyline
 90
2
 70
0
 10
625674.6934463897
 20
4837337.750638548
 10
625564.3317451522
 20
4837705.387922189
  0
LWPOLYLINE
  5
1CB
330
17
100
AcDbEntity
  8
ROADS
100
AcDbPolyline
 90
2
 70
0
 10
625764.7410222674
 20
4837367.5352346245
 10
625652.790277634
 20
4837732.678227431
  0
LWPOLYLINE
  5
1CC
330
17
100
AcDbEntity
  8
ROADS
100
AcDbPolyline
 90
2
 70
0
 10
625564.3317451522
 20
4837705.387922189
 10
625474.5351541168
 20
4837677.268385618
  0
LWPOLYLINE
  5
1CD
330
17
100
AcDbEntity
  8
ROADS
100
AcDbPolyline
 90
2
 70
0
 10
625652.790277634
 20
4837732.678227431
 10
625564.3317451522
 20
4837705.387922189
  0
LWPOLYLINE
  5
1CE
330
17
100
AcDbEntity
  8
ROADS
100
AcDbPolyline
 90
2
 70
0
 10
625652.790277634
 20
4837732.678227431
 10
625614.0290059538
 20
4837851.233036658
  0
LWPOLYLINE
  5
1CF
330
17
100
AcDbEntity
  8
ROADS
100
AcDbPolyline
 90
2
 70
0
 10
625746.6277377144
 20
4837740.858720552
 10
625711.5351335865
 20
4837855.461682598
  0
LWPOLYLINE
  5
1D0
330
17
100
AcDbEntity
  8
ROADS
100
AcDbPolyline
 90
2
 70
0
 10
625564.3317451522
 20
4837705.387922189
 10
625488.2315672896
 20
4837942.924205417
  0
LWPOLYLINE
  5
1D1
330
17
100
AcDbEntity
  8
ROADS
100
AcDbPolyline
 90
2
 70
0
 10
625940.7793314338
 20
4837703.128695602
 10
625863.7007341832
 20
4837679.468387381
  0
LWPOLYLINE
  5
1D2
330
17
100
AcDbEntity
  8
ROADS
100
AcDbPolyline
 90
2
 70
0
 10
626012.82985656
 20
4837727.054098958
 10
625940.7793314338
 20
4837703.128695602
  0
LWPOLYLINE
  5
1D3
330
17
100
AcDbEntity
  8
ROADS
100
AcDbPolyline
 90
2
 70
0
 10
626091.9789586494
 20
4837752.5749818375
 10
626012.82985656
 20
4837727.054098958
  0
LWPOLYLINE
  5
1D4
330
17
100
AcDbEntity
  8
ROADS
100
AcDbPolyline
 90
2
 70
0
 10
626012.82985656
 20
4837727.054098958
 10
625986.4815285283
 20
4837815.18274708
  0
LWPOLYLINE
  5
1D5
330
17
100
AcDbEntity
  8
ROADS
100
AcDbPolyline
 90
2
 70
0
 10
625986.4815285283
 20
4837815.18274708
 10
625746.6277377144
 20
4837740.858720552
  0
LWPOLYLINE
  5
1D6
330
17
100
AcDbEntity
  8
ROADS
100
AcDbPolyline
 90
2
 70
0
 10
625968.4857731663
 20
4837873.059673653
 10
625773.7289212904
 20
4837812.320967198
  0
LWPOLYLINE
  5
1D7
330
17
100
AcDbEntity
  8
ROADS
100
AcDbPolyline
 90
2
 70
0
 10
625986.4815285283
 20
4837815.18274708
 10
625968.4857731663
 20
4837873.059673653
  0
LWPOLYLINE
  5
1D8
330
17
100
AcDbEntity
  8
ROADS
100
AcDbPolyline
 90
2
 70
0
 10
625950.6523023878
 20
4837930.0914798435
 10
625711.5351335865
 20
4837855.461682598
  0
LWPOLYLINE
  5
1D9
330
17
100
AcDbEntity
  8
ROADS
100
AcDbPolyline
 90
2
 70
0
 10
625968.4857731663
 20
4837873.059673653
 10
625950.6523023878
 20
4837930.0914798435
  0
LWPOLYLINE
  5
1DA
330
17
100
AcDbEntity
  8
ROADS
100
AcDbPolyline
 90
2
 70
0
 10
626091.9789586494
 20
4837752.5749818375
 10
625968.3214783212
 20
4838158.331356285
  0
LWPOLYLINE
  5
1DB
330
17
100
AcDbEntity
  8
ROADS
100
AcDbPolyline
 90
3
 70
0
 10
626279.0462765807
 20
4837890.4092147825
 10
626303.6262066492
 20
4837817.560420993
 10
626256.7580528138
 20
4837794.191430615
  0
LWPOLYLINE
  5
1DC
330
17
100
AcDbEntity
  8
ROADS
100
AcDbPolyline
 90
3
 70
0
 10
626252.5439199215
 20
4837804.469827303
 10
626234.3564917635
 20
4837870.6768268915
 10
626279.0462765807
 20
4837890.4092147825
  0
LWPOLYLINE
  5
1DD
330
17
100
AcDbEntity
  8
ROADS
100
AcDbPolyline
 90
2
 70
0
 10
626386.6392459715
 20
4837923.000989987
 10
626279.0462765807
 20
4837890.4092147825
  0
LWPOLYLINE
  5
1DE
330
17
100
AcDbEntity
  8
ROADS
100
AcDbPolyline
 90
2
 70
0
 10
626279.0462765807
 20
4837890.4092147825
 10
626234.3564869537
 20
4838023.784885758
  0
LWPOLYLINE
  5
1DF
330
17
100
AcDbEntity
  8
ROADS
100
AcDbPolyline
 90
2
 70
0
 10
626172.3411508482
 20
4837778.482837754
 10
626048.4000674181
 20
4838183.273114831
  0
LWPOLYLINE
  5
1E0
330
17
100
AcDbEntity
  8
ROADS
100
AcDbPolyline
 90
2
 70
0
 10
626386.6392459715
 20
4837923.000989987
 10
626332.6308974625
 20
4838096.29654176
  0
LWPOLYLINE
  5
1E1
330
17
100
AcDbEntity
  8
ROADS
100
AcDbPolyline
 90
2
 70
0
 10
626234.3564869537
 20
4838023.784885758
 10
626184.9516462461
 20
4838009.62553745
  0
LWPOLYLINE
  5
1E2
330
17
100
AcDbEntity
  8
ROADS
100
AcDbPolyline
 90
2
 70
0
 10
626234.3564869537
 20
4838023.784885758
 10
626233.9176942521
 20
4838068.669605824
  0
LWPOLYLINE
  5
1E3
330
17
100
AcDbEntity
  8
ROADS
100
AcDbPolyline
 90
3
 70
0
 10
626295.5986228297
 20
4838088.6703331135
 10
626307.1074523651
 20
4838048.741107147
 10
626282.8507447095
 20
4838041.014951837
  0
LWPOLYLINE
  5
1E4
330
17
100
AcDbEntity
  8
ROADS
100
AcDbPolyline
 90
2
 70
0
 10
626295.5986228297
 20
4838088.6703331135
 10
626233.9176942521
 20
4838068.669605824
  0
LWPOLYLINE
  5
1E5
330
17
100
AcDbEntity
  8
ROADS
100
AcDbPolyline
 90
2
 70
0
 10
625702.5557560392
 20
4837879.83869375
 10
625614.0290059538
 20
4837851.233036658
  0
LWPOLYLINE
  5
1E6
330
17
100
AcDbEntity
  8
ROADS
100
AcDbPolyline
 90
2
 70
0
 10
625711.5351335865
 20
4837855.461682598
 10
625702.5557560392
 20
4837879.83869375
  0
LWPOLYLINE
  5
1E7
330
17
100
AcDbEntity
  8
ROADS
100
AcDbPolyline
 90
2
 70
0
 10
625614.0290059538
 20
4837851.233036658
 10
625574.8854205514
 20
4837973.617123966
  0
LWPOLYLINE
  5
1E8
330
17
100
AcDbEntity
  8
ROADS
100
AcDbPolyline
 90
2
 70
0
 10
625488.2315672896
 20
4837942.924205417
 10
625574.8854205514
 20
4837973.617123966
  0
LWPOLYLINE
  5
1E9
330
17
100
AcDbEntity
  8
ROADS
100
AcDbPolyline
 90
2
 70
0
 10
625702.5557560392
 20
4837879.83869375
 10
625648.5802001482
 20
4838048.508224949
  0
LWPOLYLINE
  5
1EA
330
17
100
AcDbEntity
  8
ROADS
100
AcDbPolyline
 90
2
 70
0
 10
625574.8854205514
 20
4837973.617123966
 10
625537.842579891
 20
4838089.218789762
  0
LWPOLYLINE
  5
1EB
330
17
100
AcDbEntity
  8
ROADS
100
AcDbPolyline
 90
2
 70
0
 10
625648.5802001482
 20
4838048.508224949
 10
625632.4102450727
 20
4838095.950503511
  0
LWPOLYLINE
  5
1EC
330
17
100
AcDbEntity
  8
ROADS
100
AcDbPolyline
 90
2
 70
0
 10
625838.3668090696
 20
4838105.662615586
 10
625648.5802001482
 20
4838048.508224949
  0
LWPOLYLINE
  5
1ED
330
17
100
AcDbEntity
  8
ROADS
100
AcDbPolyline
 90
2
 70
0
 10
625537.842579891
 20
4838089.218789762
 10
625491.2441097912
 20
4838080.140504033
  0
LWPOLYLINE
  5
1EE
330
17
100
AcDbEntity
  8
ROADS
100
AcDbPolyline
 90
2
 70
0
 10
625537.842579891
 20
4838089.218789762
 10
625526.1998486358
 20
4838125.549295494
  0
LWPOLYLINE
  5
1EF
330
17
100
AcDbEntity
  8
ROADS
100
AcDbPolyline
 90
2
 70
0
 10
625950.6523023878
 20
4837930.0914798435
 10
625902.6496510641
 20
4838084.074298546
  0
LWPOLYLINE
  5
1F0
330
17
100
AcDbEntity
  8
ROADS
100
AcDbPolyline
 90
3
 70
0
 10
625870.9706384717
 20
4838066.224323765
 10
625846.2602033254
 20
4838058.206953816
 10
625842.7630035713
 20
4838072.914557851
  0
LWPOLYLINE
  5
1F1
330
17
100
AcDbEntity
  8
ROADS
100
AcDbPolyline
 90
2
 70
0
 10
625880.2501001115
 20
4838077.2317887945
 10
625870.9706384717
 20
4838066.224323765
  0
LWPOLYLINE
  5
1F2
330
17
100
AcDbEntity
  8
ROADS
100
AcDbPolyline
 90
2
 70
0
 10
625870.9706384717
 20
4838066.224323765
 10
625866.6908929612
 20
4838079.853713288
  0
LWPOLYLINE
  5
1F3
330
17
100
AcDbEntity
  8
ROADS
100
AcDbPolyline
 90
2
 70
0
 10
625866.6908929612
 20
4838079.853713288
 10
625842.7630035713
 20
4838072.914557851
  0
LWPOLYLINE
  5
1F4
330
17
100
AcDbEntity
  8
ROADS
100
AcDbPolyline
 90
2
 70
0
 10
625880.2501001115
 20
4838077.2317887945
 10
625866.6908929612
 20
4838079.853713288
  0
LWPOLYLINE
  5
1F5
330
17
100
AcDbEntity
  8
ROADS
100
AcDbPolyline
 90
2
 70
0
 10
625902.6496510641
 20
4838084.074298546
 10
625880.2501001115
 20
4838077.2317887945
  0
LWPOLYLINE
  5
1F6
330
17
100
AcDbEntity
  8
ROADS
100
AcDbPolyline
 90
2
 70
0
 10
625842.7630035713
 20
4838072.914557851
 10
625838.3668090696
 20
4838105.662615586
  0
LWPOLYLINE
  5
1F7
330
17
100
AcDbEntity
  8
ROADS
100
AcDbPolyline
 90
2
 70
0
 10
625902.6496510641
 20
4838084.074298546
 10
625890.5073486152
 20
4838122.092907098
  0
LWPOLYLINE
  5
1F8
330
17
100
AcDbEntity
  8
ROADS
100
AcDbPolyline
 90
2
 70
0
 10
625890.5073486152
 20
4838122.092907098
 10
625838.3668090696
 20
4838105.662615586
  0
LWPOLYLINE
  5
1F9
330
17
100
AcDbEntity
  8
ROADS
100
AcDbPolyline
 90
2
 70
0
 10
626181.4700976936
 20
4838101.59599962
 10
626193.4928051769
 20
4838061.675081988
  0
LWPOLYLINE
  5
1FA
330
17
100
AcDbEntity
  8
ROADS
100
AcDbPolyline
 90
2
 70
0
 10
626233.9176942521
 20
4838068.669605824
 10
626220.578621984
 20
4838114.24605499
  0
LWPOLYLINE
  5
1FB
330
17
100
AcDbEntity
  8
ROADS
100
AcDbPolyline
 90
2
 70
0
 10
626332.6308974625
 20
4838096.29654176
 10
626295.5986228297
 20
4838088.6703331135
  0
LWPOLYLINE
  5
1FC
330
17
100
AcDbEntity
  8
ROADS
100
AcDbPolyline
 90
2
 70
0
 10
626181.4700976936
 20
4838101.59599962
 10
626159.5997274362
 20
4838094.523040384
  0
LWPOLYLINE
  5
1FD
330
17
100
AcDbEntity
  8
ROADS
100
AcDbPolyline
 90
2
 70
0
 10
626412.1104023899
 20
4838117.403247101
 10
626332.6308974625
 20
4838096.29654176
  0
LWPOLYLINE
  5
1FE
330
17
100
AcDbEntity
  8
ROADS
100
AcDbPolyline
 90
2
 70
0
 10
626220.578621984
 20
4838114.24605499
 10
626181.4700976936
 20
4838101.59599962
  0
LWPOLYLINE
  5
1FF
330
17
100
AcDbEntity
  8
ROADS
100
AcDbPolyline
 90
2
 70
0
 10
626220.578621984
 20
4838114.24605499
 10
626189.8309553668
 20
4838213.817838254
  0
LWPOLYLINE
  5
200
330
17
100
AcDbEntity
  8
ROADS
100
AcDbPolyline
 90
2
 70
0
 10
626332.6308974625
 20
4838096.29654176
 10
626275.1325605485
 20
4838284.669812613
  0
LWPOLYLINE
  5
201
330
17
100
AcDbEntity
  8
ROADS
100
AcDbPolyline
 90
2
 70
0
 10
626189.8309553668
 20
4838213.817838254
 10
626048.4000674181
 20
4838183.273114831
  0
LWPOLYLINE
  5
202
330
17
100
AcDbEntity
  8
ROADS
100
AcDbPolyline
 90
2
 70
0
 10
626189.8309553668
 20
4838213.817838254
 10
626176.6740458388
 20
4838258.555521137
  0
LWPOLYLINE
  5
203
330
17
100
AcDbEntity
  8
ROADS
100
AcDbPolyline
 90
2
 70
0
 10
625632.4102450727
 20
4838095.950503511
 10
625618.9785025121
 20
4838153.341871225
  0
LWPOLYLINE
  5
204
330
17
100
AcDbEntity
  8
ROADS
100
AcDbPolyline
 90
2
 70
0
 10
625829.439865935
 20
4838159.466617213
 10
625632.4102450727
 20
4838095.950503511
  0
LWPOLYLINE
  5
205
330
17
100
AcDbEntity
  8
ROADS
100
AcDbPolyline
 90
2
 70
0
 10
625618.9785025121
 20
4838153.341871225
 10
625526.1998486358
 20
4838125.549295494
  0
LWPOLYLINE
  5
206
330
17
100
AcDbEntity
  8
ROADS
100
AcDbPolyline
 90
2
 70
0
 10
625526.1998486358
 20
4838125.549295494
 10
625510.5108979507
 20
4838180.919607113
  0
LWPOLYLINE
  5
207
330
17
100
AcDbEntity
  8
ROADS
100
AcDbPolyline
 90
2
 70
0
 10
625856.9216255441
 20
4838224.756441438
 10
625618.9785025121
 20
4838153.341871225
  0
LWPOLYLINE
  5
208
330
17
100
AcDbEntity
  8
ROADS
100
AcDbPolyline
 90
2
 70
0
 10
625618.9785025121
 20
4838153.341871225
 10
625605.2684692696
 20
4838207.893340963
  0
LWPOLYLINE
  5
209
330
17
100
AcDbEntity
  8
ROADS
100
AcDbPolyline
 90
2
 70
0
 10
625890.5073486152
 20
4838122.092907098
 10
625887.1164417751
 20
4838133.13522176
  0
LWPOLYLINE
  5
20A
330
17
100
AcDbEntity
  8
ROADS
100
AcDbPolyline
 90
2
 70
0
 10
625838.3668090696
 20
4838105.662615586
 10
625829.439865935
 20
4838159.466617213
  0
LWPOLYLINE
  5
20B
330
17
100
AcDbEntity
  8
ROADS
100
AcDbPolyline
 90
2
 70
0
 10
625968.3214783212
 20
4838158.331356285
 10
625887.1164417751
 20
4838133.13522176
  0
LWPOLYLINE
  5
20C
330
17
100
AcDbEntity
  8
ROADS
100
AcDbPolyline
 90
2
 70
0
 10
625887.1164417751
 20
4838133.13522176
 10
625874.4550205288
 20
4838174.033605436
  0
LWPOLYLINE
  5
20D
330
17
100
AcDbEntity
  8
ROADS
100
AcDbPolyline
 90
2
 70
0
 10
625874.4550205288
 20
4838174.033605436
 10
625829.439865935
 20
4838159.466617213
  0
LWPOLYLINE
  5
20E
330
17
100
AcDbEntity
  8
ROADS
100
AcDbPolyline
 90
2
 70
0
 10
626048.4000674181
 20
4838183.273114831
 10
625968.3214783212
 20
4838158.331356285
  0
LWPOLYLINE
  5
20F
330
17
100
AcDbEntity
  8
ROADS
100
AcDbPolyline
 90
2
 70
0
 10
625874.4550205288
 20
4838174.033605436
 10
625856.9216255441
 20
4838224.756441438
  0
LWPOLYLINE
  5
210
330
17
100
AcDbEntity
  8
ROADS
100
AcDbPolyline
 90
2
 70
0
 10
625940.4746016017
 20
4838247.142897581
 10
625856.9216255441
 20
4838224.756441438
  0
LWPOLYLINE
  5
211
330
17
100
AcDbEntity
  8
ROADS
100
AcDbPolyline
 90
2
 70
0
 10
626020.4850383719
 20
4838272.534469152
 10
625940.4746016017
 20
4838247.142897581
  0
LWPOLYLINE
  5
212
330
17
100
AcDbEntity
  8
ROADS
100
AcDbPolyline
 90
2
 70
0
 10
625856.9216255441
 20
4838224.756441438
 10
625838.1330338938
 20
4838290.737924989
  0
LWPOLYLINE
  5
213
330
17
100
AcDbEntity
  8
ROADS
100
AcDbPolyline
 90
2
 70
0
 10
626380.2322158631
 20
4838222.389963238
 10
626354.4765846146
 20
4838307.211194375
  0
LWPOLYLINE
  5
214
330
17
100
AcDbEntity
  8
ROADS
100
AcDbPolyline
 90
2
 70
0
 10
626275.1325605485
 20
4838284.669812613
 10
626176.6740458388
 20
4838258.555521137
  0
LWPOLYLINE
  5
215
330
17
100
AcDbEntity
  8
ROADS
100
AcDbPolyline
 90
2
 70
0
 10
626176.6740458388
 20
4838258.555521137
 10
626159.8021174456
 20
4838311.022465193
  0
LWPOLYLINE
  5
216
330
17
100
AcDbEntity
  8
ROADS
100
AcDbPolyline
 90
2
 70
0
 10
626159.8021174456
 20
4838311.022465193
 10
626020.4850383719
 20
4838272.534469152
  0
LWPOLYLINE
  5
217
330
17
100
AcDbEntity
  8
ROADS
100
AcDbPolyline
 90
2
 70
0
 10
626354.4765846146
 20
4838307.211194375
 10
626275.1325605485
 20
4838284.669812613
  0
LWPOLYLINE
  5
218
330
17
100
AcDbEntity
  8
ROADS
100
AcDbPolyline
 90
2
 70
0
 10
626159.8021174456
 20
4838311.022465193
 10
626134.6761117732
 20
4838388.961843611
  0
LWPOLYLINE
  5
219
330
17
100
AcDbEntity
  8
ROADS
100
AcDbPolyline
 90
2
 70
0
 10
626122.8705151862
 20
4838387.049904093
 10
626042.8209609002
 20
4838362.67872672
  0
LWPOLYLINE
  5
21A
330
17
100
AcDbEntity
  8
ROADS
100
AcDbPolyline
 90
2
 70
0
 10
626354.4765846146
 20
4838307.211194375
 10
626325.972220662
 20
4838401.900411124
  0
LWPOLYLINE
  5
21B
330
17
100
AcDbEntity
  8
ROADS
100
AcDbPolyline
 90
2
 70
0
 10
626275.1325605485
 20
4838284.669812613
 10
626238.6133993041
 20
4838400.498072477
  0
LWPOLYLINE
  5
21C
330
17
100
AcDbEntity
  8
ROADS
100
AcDbPolyline
 90
2
 70
0
 10
625308.0999349377
 20
4837757.379999898
 10
625236.799817476
 20
4837984.25730233
  0
LWPOLYLINE
  5
21D
330
17
100
AcDbEntity
  8
ROADS
100
AcDbPolyline
 90
2
 70
0
 10
625311.2587501239
 20
4837887.010439433
 10
625402.2005170274
 20
4837916.115786116
  0
LWPOLYLINE
  5
21E
330
17
100
AcDbEntity
  8
ROADS
100
AcDbPolyline
 90
2
 70
0
 10
625402.2005170274
 20
4837916.115786116
 10
625488.2315672896
 20
4837942.924205417
  0
LWPOLYLINE
  5
21F
330
17
100
AcDbEntity
  8
ROADS
100
AcDbPolyline
 90
2
 70
0
 10
625311.2587501239
 20
4837887.010439433
 10
625278.1795152589
 20
4837997.838938093
  0
LWPOLYLINE
  5
220
330
17
100
AcDbEntity
  8
ROADS
100
AcDbPolyline
 90
2
 70
0
 10
625236.799817476
 20
4837984.25730233
 10
625196.3411070481
 20
4837971.508873003
  0
LWPOLYLINE
  5
221
330
17
100
AcDbEntity
  8
ROADS
100
AcDbPolyline
 90
2
 70
0
 10
625278.1795152589
 20
4837997.838938093
 10
625236.799817476
 20
4837984.25730233
  0
LWPOLYLINE
  5
222
330
17
100
AcDbEntity
  8
ROADS
100
AcDbPolyline
 90
2
 70
0
 10
625402.2005170274
 20
4837916.115786116
 10
625337.5217300304
 20
4838116.817946488
  0
LWPOLYLINE
  5
223
330
17
100
AcDbEntity
  8
ROADS
100
AcDbPolyline
 90
2
 70
0
 10
625236.799817476
 20
4837984.25730233
 10
625216.2126611496
 20
4838050.802284501
  0
LWPOLYLINE
  5
224
330
17
100
AcDbEntity
  8
ROADS
100
AcDbPolyline
 90
2
 70
0
 10
625278.1795152589
 20
4837997.838938093
 10
625253.7937349231
 20
4838073.99457506
  0
LWPOLYLINE
  5
225
330
17
100
AcDbEntity
  8
ROADS
100
AcDbPolyline
 90
2
 70
0
 10
625488.2315672896
 20
4837942.924205417
 10
625422.6480168779
 20
4838148.24384954
  0
LWPOLYLINE
  5
226
330
17
100
AcDbEntity
  8
ROADS
100
AcDbPolyline
 90
2
 70
0
 10
625154.978849065
 20
4837958.014063888
 10
625142.5990951839
 20
4837996.72484718
  0
LWPOLYLINE
  5
227
330
17
100
AcDbEntity
  8
ROADS
100
AcDbPolyline
 90
2
 70
0
 10
625113.6455154372
 20
4837944.523781388
 10
625107.1945446683
 20
4837964.331613497
  0
LWPOLYLINE
  5
228
330
17
100
AcDbEntity
  8
ROADS
100
AcDbPolyline
 90
2
 70
0
 10
625196.3411070481
 20
4837971.508873003
 10
625179.3321637627
 20
4838024.77060603
  0
LWPOLYLINE
  5
229
330
17
100
AcDbEntity
  8
ROADS
100
AcDbPolyline
 90
2
 70
0
 10
625940.4746016017
 20
4838247.142897581
 10
625916.5663164573
 20
4838325.43311014
  0
LWPOLYLINE
  5
22A
330
17
100
AcDbEntity
  8
ROADS
100
AcDbPolyline
 90
2
 70
0
 10
626020.4850383719
 20
4838272.534469152
 10
625995.3235275372
 20
4838352.826492996
  0
LWPOLYLINE
  5
22B
330
17
100
AcDbEntity
  8
ROADS
100
AcDbPolyline
 90
2
 70
0
 10
626552.0773556915
 20
4836727.705305792
 10
626546.323681786
 20
4836745.412186591
  0
LWPOLYLINE
  5
22C
330
17
100
AcDbEntity
  8
ROADS
100
AcDbPolyline
 90
2
 70
0
 10
626459.1391253058
 20
4836697.740970894
 10
626400.4150226845
 20
4836880.183941367
  0
LWPOLYLINE
  5
22D
330
17
100
AcDbEntity
  8
ROADS
100
AcDbPolyline
 90
2
 70
0
 10
626667.1277207608
 20
4836779.658597658
 10
626546.323681786
 20
4836745.412186591
  0
LWPOLYLINE
  5
22E
330
17
100
AcDbEntity
  8
ROADS
100
AcDbPolyline
 90
2
 70
0
 10
626546.323681786
 20
4836745.412186591
 10
626507.9582038868
 20
4836864.159588927
  0
LWPOLYLINE
  5
22F
330
17
100
AcDbEntity
  8
ROADS
100
AcDbPolyline
 90
2
 70
0
 10
626450.2432802073
 20
4836887.855399973
 10
626489.8996858606
 20
4836762.313956242
  0
LWPOLYLINE
  5
230
330
17
100
AcDbEntity
  8
ROADS
100
AcDbPolyline
 90
2
 70
0
 10
626733.749634599
 20
4836831.761398952
 10
626559.9050929442
 20
4836826.178613832
  0
LWPOLYLINE
  5
231
330
17
100
AcDbEntity
  8
ROADS
100
AcDbPolyline
 90
2
 70
0
 10
626720.6642247946
 20
4836871.448192526
 10
626507.9582038868
 20
4836864.159588927
  0
LWPOLYLINE
  5
232
330
17
100
AcDbEntity
  8
ROADS
100
AcDbPolyline
 90
2
 70
0
 10
626507.9582038868
 20
4836864.159588927
 10
626496.9995831492
 20
4836898.141469769
  0
LWPOLYLINE
  5
233
330
17
100
AcDbEntity
  8
ROADS
100
AcDbPolyline
 90
2
 70
0
 10
626450.2432802073
 20
4836887.855399973
 10
626400.4150226845
 20
4836880.183941367
  0
LWPOLYLINE
  5
234
330
17
100
AcDbEntity
  8
ROADS
100
AcDbPolyline
 90
2
 70
0
 10
626496.9995831492
 20
4836898.141469769
 10
626450.2432802073
 20
4836887.855399973
  0
LWPOLYLINE
  5
235
330
17
100
AcDbEntity
  8
ROADS
100
AcDbPolyline
 90
2
 70
0
 10
626400.4150226845
 20
4836880.183941367
 10
626385.8795260522
 20
4836926.396861493
  0
LWPOLYLINE
  5
236
330
17
100
AcDbEntity
  8
ROADS
100
AcDbPolyline
 90
2
 70
0
 10
626740.0826390893
 20
4836810.927690923
 10
626738.1157190645
 20
4836818.33253238
  0
LWPOLYLINE
  5
237
330
17
100
AcDbEntity
  8
ROADS
100
AcDbPolyline
 90
2
 70
0
 10
626738.1157190645
 20
4836818.33253238
 10
626733.749634599
 20
4836831.761398952
  0
LWPOLYLINE
  5
238
330
17
100
AcDbEntity
  8
ROADS
100
AcDbPolyline
 90
2
 70
0
 10
626733.749634599
 20
4836831.761398952
 10
626724.8863292681
 20
4836860.395867473
  0
LWPOLYLINE
  5
239
330
17
100
AcDbEntity
  8
ROADS
100
AcDbPolyline
 90
2
 70
0
 10
626767.0342494405
 20
4836827.5443943925
 10
626738.1157190645
 20
4836818.33253238
  0
LWPOLYLINE
  5
23A
330
17
100
AcDbEntity
  8
ROADS
100
AcDbPolyline
 90
2
 70
0
 10
626724.8863292681
 20
4836860.395867473
 10
626720.6642247946
 20
4836871.448192526
  0
LWPOLYLINE
  5
23B
330
17
100
AcDbEntity
  8
ROADS
100
AcDbPolyline
 90
2
 70
0
 10
626954.0870956931
 20
4836986.105584558
 10
626952.1819153134
 20
4836994.022018574
  0
LWPOLYLINE
  5
23C
330
17
100
AcDbEntity
  8
ROADS
100
AcDbPolyline
 90
2
 70
0
 10
626720.6642247946
 20
4836871.448192526
 10
626707.9235271255
 20
4836912.700310975
  0
LWPOLYLINE
  5
23D
330
17
100
AcDbEntity
  8
ROADS
100
AcDbPolyline
 90
3
 70
0
 10
626860.5698269962
 20
4836972.481136029
 10
626868.9113910866
 20
4836904.676834949
 10
626724.8863292681
 20
4836860.395867473
  0
LWPOLYLINE
  5
23E
330
17
100
AcDbEntity
  8
ROADS
100
AcDbPolyline
 90
2
 70
0
 10
626707.9235271255
 20
4836912.700310975
 10
626697.0809713633
 20
4836947.867381073
  0
LWPOLYLINE
  5
23F
330
17
100
AcDbEntity
  8
ROADS
100
AcDbPolyline
 90
2
 70
0
 10
626697.0809713633
 20
4836947.867381073
 10
626665.462890784
 20
4836947.489630584
  0
LWPOLYLINE
  5
240
330
17
100
AcDbEntity
  8
ROADS
100
AcDbPolyline
 90
2
 70
0
 10
626860.5698269962
 20
4836972.481136029
 10
626697.0809713633
 20
4836947.867381073
  0
LWPOLYLINE
  5
241
330
17
100
AcDbEntity
  8
ROADS
100
AcDbPolyline
 90
2
 70
0
 10
626932.6642102984
 20
4836990.510876252
 10
626860.5698269962
 20
4836972.481136029
  0
LWPOLYLINE
  5
242
330
17
100
AcDbEntity
  8
ROADS
100
AcDbPolyline
 90
2
 70
0
 10
626665.462890784
 20
4836947.489630584
 10
626687.05134683
 20
4837027.337827561
  0
LWPOLYLINE
  5
243
330
17
100
AcDbEntity
  8
ROADS
100
AcDbPolyline
 90
2
 70
0
 10
626952.1819153134
 20
4836994.022018574
 10
626932.6642102984
 20
4836990.510876252
  0
LWPOLYLINE
  5
244
330
17
100
AcDbEntity
  8
ROADS
100
AcDbPolyline
 90
2
 70
0
 10
626932.6642102984
 20
4836990.510876252
 10
626906.9379084609
 20
4837075.107853237
  0
LWPOLYLINE
  5
245
330
17
100
AcDbEntity
  8
ROADS
100
AcDbPolyline
 90
2
 70
0
 10
626808.4810680682
 20
4837046.673760901
 10
626687.05134683
 20
4837027.337827561
  0
LWPOLYLINE
  5
246
330
17
100
AcDbEntity
  8
ROADS
100
AcDbPolyline
 90
2
 70
0
 10
626707.9235271255
 20
4836912.700310975
 10
626496.9995831492
 20
4836898.141469769
  0
LWPOLYLINE
  5
247
330
17
100
AcDbEntity
  8
ROADS
100
AcDbPolyline
 90
2
 70
0
 10
626496.9995831492
 20
4836898.141469769
 10
626483.4215146884
 20
4836940.766500274
  0
LWPOLYLINE
  5
248
330
17
100
AcDbEntity
  8
ROADS
100
AcDbPolyline
 90
2
 70
0
 10
626440.956344725
 20
4836936.045350683
 10
626385.8795260522
 20
4836926.396861493
  0
LWPOLYLINE
  5
249
330
17
100
AcDbEntity
  8
ROADS
100
AcDbPolyline
 90
2
 70
0
 10
626483.4215146884
 20
4836940.766500274
 10
626440.956344725
 20
4836936.045350683
  0
LWPOLYLINE
  5
24A
330
17
100
AcDbEntity
  8
ROADS
100
AcDbPolyline
 90
2
 70
0
 10
626541.4955048129
 20
4836944.664844977
 10
626483.4215146884
 20
4836940.766500274
  0
LWPOLYLINE
  5
24B
330
17
100
AcDbEntity
  8
ROADS
100
AcDbPolyline
 90
2
 70
0
 10
626665.462890784
 20
4836947.489630584
 10
626541.4955048129
 20
4836944.664844977
  0
LWPOLYLINE
  5
24C
330
17
100
AcDbEntity
  8
ROADS
100
AcDbPolyline
 90
2
 70
0
 10
626440.956344725
 20
4836936.045350683
 10
626428.3851613207
 20
4836977.601515683
  0
LWPOLYLINE
  5
24D
330
17
100
AcDbEntity
  8
ROADS
100
AcDbPolyline
 90
2
 70
0
 10
626428.3851613207
 20
4836977.601515683
 10
626337.05436621
 20
4836960.588024224
  0
LWPOLYLINE
  5
24E
330
17
100
AcDbEntity
  8
ROADS
100
AcDbPolyline
 90
2
 70
0
 10
626428.3851613207
 20
4836977.601515683
 10
626469.7698402
 20
4836982.346133896
  0
LWPOLYLINE
  5
24F
330
17
100
AcDbEntity
  8
ROADS
100
AcDbPolyline
 90
2
 70
0
 10
626541.4955048129
 20
4836944.664844977
 10
626471.1788652181
 20
4837168.770765723
  0
LWPOLYLINE
  5
250
330
17
100
AcDbEntity
  8
ROADS
100
AcDbPolyline
 90
2
 70
0
 10
627148.6994954089
 20
4837538.712448593
 10
627144.8872313937
 20
4837537.539208853
  0
LWPOLYLINE
  5
251
330
17
100
AcDbEntity
  8
ROADS
100
AcDbPolyline
 90
2
 70
0
 10
627144.7636205747
 20
4837599.588687195
 10
627127.4922768661
 20
4837594.599164469
  0
LWPOLYLINE
  5
252
330
17
100
AcDbEntity
  8
ROADS
100
AcDbPolyline
 90
2
 70
0
 10
627137.8754388866
 20
4837641.658003942
 10
627115.1076851685
 20
4837634.679674796
  0
LWPOLYLINE
  5
253
330
17
100
AcDbEntity
  8
ROADS
100
AcDbPolyline
 90
2
 70
0
 10
627126.9399714641
 20
4837696.367704343
 10
627097.6999433083
 20
4837688.022159896
  0
LWPOLYLINE
  5
254
330
17
100
AcDbEntity
  8
ROADS
100
AcDbPolyline
 90
2
 70
0
 10
626964.3215387332
 20
4836997.704673826
 10
626952.1819153134
 20
4836994.022018574
  0
LWPOLYLINE
  5
255
330
17
100
AcDbEntity
  8
ROADS
100
AcDbPolyline
 90
2
 70
0
 10
627078.4038015333
 20
4837180.783047712
 10
627075.0772673683
 20
4837193.007526651
  0
LWPOLYLINE
  5
256
330
17
100
AcDbEntity
  8
ROADS
100
AcDbPolyline
 90
3
 70
0
 10
627018.5004074322
 20
4837162.336561535
 10
626959.8276634841
 20
4837105.329093102
 10
626927.2329271141
 20
4837090.272769157
  0
LWPOLYLINE
  5
257
330
17
100
AcDbEntity
  8
ROADS
100
AcDbPolyline
 90
2
 70
0
 10
627018.5004074322
 20
4837162.336561535
 10
627041.5414924939
 20
4837153.672678593
  0
LWPOLYLINE
  5
258
330
17
100
AcDbEntity
  8
ROADS
100
AcDbPolyline
 90
2
 70
0
 10
627018.5004074322
 20
4837162.336561535
 10
627033.4213570768
 20
4837166.537634286
  0
LWPOLYLINE
  5
259
330
17
100
AcDbEntity
  8
ROADS
100
AcDbPolyline
 90
2
 70
0
 10
627009.9093567074
 20
4837174.03392884
 10
627018.5004074322
 20
4837162.336561535
  0
LWPOLYLINE
  5
25A
330
17
100
AcDbEntity
  8
ROADS
100
AcDbPolyline
 90
2
 70
0
 10
626906.9379084609
 20
4837075.107853237
 10
626808.4810680682
 20
4837046.673760901
  0
LWPOLYLINE
  5
25B
330
17
100
AcDbEntity
  8
ROADS
100
AcDbPolyline
 90
4
 70
0
 10
626687.05134683
 20
4837027.337827561
 10
626713.1215094115
 20
4837073.593042792
 10
626717.6385788159
 20
4837148.869282386
 10
626786.871716532
 20
4837174.808794393
  0
LWPOLYLINE
  5
25C
330
17
100
AcDbEntity
  8
ROADS
100
AcDbPolyline
 90
2
 70
0
 10
626906.9379084609
 20
4837075.107853237
 10
626888.6753354504
 20
4837138.895512727
  0
LWPOLYLINE
  5
25D
330
17
100
AcDbEntity
  8
ROADS
100
AcDbPolyline
 90
3
 70
0
 10
626808.4810680682
 20
4837046.673760901
 10
626811.4784215902
 20
4837091.8457090445
 10
626786.871716532
 20
4837174.808794393
  0
LWPOLYLINE
  5
25E
330
17
100
AcDbEntity
  8
ROADS
100
AcDbPolyline
 90
2
 70
0
 10
626982.2542913135
 20
4837165.980349328
 10
626888.6753354504
 20
4837138.895512727
  0
LWPOLYLINE
  5
25F
330
17
100
AcDbEntity
  8
ROADS
100
AcDbPolyline
 90
2
 70
0
 10
626888.6753354504
 20
4837138.895512727
 10
626869.6375754231
 20
4837201.363067185
  0
LWPOLYLINE
  5
260
330
17
100
AcDbEntity
  8
ROADS
100
AcDbPolyline
 90
2
 70
0
 10
626786.871716532
 20
4837174.808794393
 10
626869.6375754231
 20
4837201.363067185
  0
LWPOLYLINE
  5
261
330
17
100
AcDbEntity
  8
ROADS
100
AcDbPolyline
 90
2
 70
0
 10
626869.6375754231
 20
4837201.363067185
 10
626841.8647410873
 20
4837287.307087024
  0
LWPOLYLINE
  5
262
330
17
100
AcDbEntity
  8
ROADS
100
AcDbPolyline
 90
2
 70
0
 10
626759.5164879226
 20
4837260.887354842
 10
626660.5583152421
 20
4837229.486974739
  0
LWPOLYLINE
  5
263
330
17
100
AcDbEntity
  8
ROADS
100
AcDbPolyline
 90
2
 70
0
 10
626805.4378522513
 20
4837275.620657597
 10
626759.5164879226
 20
4837260.887354842
  0
LWPOLYLINE
  5
264
330
17
100
AcDbEntity
  8
ROADS
100
AcDbPolyline
 90
2
 70
0
 10
626428.3851613207
 20
4836977.601515683
 10
626375.6136810773
 20
4837138.934886528
  0
LWPOLYLINE
  5
265
330
17
100
AcDbEntity
  8
ROADS
100
AcDbPolyline
 90
3
 70
0
 10
626687.05134683
 20
4837027.337827561
 10
626644.3264768476
 20
4837045.21633222
 10
626590.8582186465
 20
4837207.0292262165
  0
LWPOLYLINE
  5
266
330
17
100
AcDbEntity
  8
ROADS
100
AcDbPolyline
 90
2
 70
0
 10
626471.1788652181
 20
4837168.770765723
 10
626375.6136810773
 20
4837138.934886528
  0
LWPOLYLINE
  5
267
330
17
100
AcDbEntity
  8
ROADS
100
AcDbPolyline
 90
2
 70
0
 10
626590.8582186465
 20
4837207.0292262165
 10
626471.1788652181
 20
4837168.770765723
  0
LWPOLYLINE
  5
268
330
17
100
AcDbEntity
  8
ROADS
100
AcDbPolyline
 90
2
 70
0
 10
626660.5583152421
 20
4837229.486974739
 10
626590.8582186465
 20
4837207.0292262165
  0
LWPOLYLINE
  5
269
330
17
100
AcDbEntity
  8
ROADS
100
AcDbPolyline
 90
2
 70
0
 10
626471.1788652181
 20
4837168.770765723
 10
626406.0129939539
 20
4837371.332454569
  0
LWPOLYLINE
  5
26A
330
17
100
AcDbEntity
  8
ROADS
100
AcDbPolyline
 90
2
 70
0
 10
626660.5583152421
 20
4837229.486974739
 10
626596.7453060823
 20
4837431.006169223
  0
LWPOLYLINE
  5
26B
330
17
100
AcDbEntity
  8
ROADS
100
AcDbPolyline
 90
2
 70
0
 10
626698.9070735297
 20
4837291.343183862
 10
626648.2098139387
 20
4837447.683846988
  0
LWPOLYLINE
  5
26C
330
17
100
AcDbEntity
  8
ROADS
100
AcDbPolyline
 90
2
 70
0
 10
626519.9153476863
 20
4837353.275132865
 10
626505.4544544896
 20
4837402.326569424
  0
LWPOLYLINE
  5
26D
330
17
100
AcDbEntity
  8
ROADS
100
AcDbPolyline
 90
2
 70
0
 10
626505.4544544896
 20
4837402.326569424
 10
626406.0129939539
 20
4837371.332454569
  0
LWPOLYLINE
  5
26E
330
17
100
AcDbEntity
  8
ROADS
100
AcDbPolyline
 90
2
 70
0
 10
627009.9093567074
 20
4837174.03392884
 10
626982.2542913135
 20
4837165.980349328
  0
LWPOLYLINE
  5
26F
330
17
100
AcDbEntity
  8
ROADS
100
AcDbPolyline
 90
2
 70
0
 10
627075.0772673683
 20
4837193.007526651
 10
627009.9093567074
 20
4837174.03392884
  0
LWPOLYLINE
  5
270
330
17
100
AcDbEntity
  8
ROADS
100
AcDbPolyline
 90
2
 70
0
 10
627114.0633307645
 20
4837274.231296212
 10
627056.6099498443
 20
4837260.483736885
  0
LWPOLYLINE
  5
271
330
17
100
AcDbEntity
  8
ROADS
100
AcDbPolyline
 90
2
 70
0
 10
627075.0772673683
 20
4837193.007526651
 10
627056.6099498443
 20
4837260.483736885
  0
LWPOLYLINE
  5
272
330
17
100
AcDbEntity
  8
ROADS
100
AcDbPolyline
 90
2
 70
0
 10
626982.2542913135
 20
4837165.980349328
 10
626934.5648517099
 20
4837316.8122172635
  0
LWPOLYLINE
  5
273
330
17
100
AcDbEntity
  8
ROADS
100
AcDbPolyline
 90
2
 70
0
 10
627056.6099498443
 20
4837260.483736885
 10
627013.6947828234
 20
4837340.586615268
  0
LWPOLYLINE
  5
274
330
17
100
AcDbEntity
  8
ROADS
100
AcDbPolyline
 90
2
 70
0
 10
627013.6947828234
 20
4837340.586615268
 10
626934.5648517099
 20
4837316.8122172635
  0
LWPOLYLINE
  5
275
330
17
100
AcDbEntity
  8
ROADS
100
AcDbPolyline
 90
2
 70
0
 10
627096.8224490945
 20
4837367.210493134
 10
627013.6947828234
 20
4837340.586615268
  0
LWPOLYLINE
  5
276
330
17
100
AcDbEntity
  8
ROADS
100
AcDbPolyline
 90
2
 70
0
 10
627013.6947828234
 20
4837340.586615268
 10
626996.9418590107
 20
4837392.948879909
  0
LWPOLYLINE
  5
277
330
17
100
AcDbEntity
  8
ROADS
100
AcDbPolyline
 90
2
 70
0
 10
627138.8307359468
 20
4837380.1103145555
 10
627096.8224490945
 20
4837367.210493134
  0
LWPOLYLINE
  5
278
330
17
100
AcDbEntity
  8
ROADS
100
AcDbPolyline
 90
2
 70
0
 10
626841.8647410873
 20
4837287.307087024
 10
626805.4378522513
 20
4837275.620657597
  0
LWPOLYLINE
  5
279
330
17
100
AcDbEntity
  8
ROADS
100
AcDbPolyline
 90
2
 70
0
 10
626878.7441460676
 20
4837298.966700287
 10
626841.8647410873
 20
4837287.307087024
  0
LWPOLYLINE
  5
27A
330
17
100
AcDbEntity
  8
ROADS
100
AcDbPolyline
 90
3
 70
0
 10
626805.4378522513
 20
4837275.620657597
 10
626789.1785606854
 20
4837325.3516593035
 10
626826.2366636816
 20
4837338.023568159
  0
LWPOLYLINE
  5
27B
330
17
100
AcDbEntity
  8
ROADS
100
AcDbPolyline
 90
2
 70
0
 10
626934.5648517099
 20
4837316.8122172635
 10
626878.7441460676
 20
4837298.966700287
  0
LWPOLYLINE
  5
27C
330
17
100
AcDbEntity
  8
ROADS
100
AcDbPolyline
 90
2
 70
0
 10
626759.5164879226
 20
4837260.887354842
 10
626729.2996123747
 20
4837361.424029372
  0
LWPOLYLINE
  5
27D
330
17
100
AcDbEntity
  8
ROADS
100
AcDbPolyline
 90
2
 70
0
 10
626878.7441460676
 20
4837298.966700287
 10
626850.6758296568
 20
4837398.870222591
  0
LWPOLYLINE
  5
27E
330
17
100
AcDbEntity
  8
ROADS
100
AcDbPolyline
 90
2
 70
0
 10
626810.2841552979
 20
4837386.661051297
 10
626729.2996123747
 20
4837361.424029372
  0
LWPOLYLINE
  5
27F
330
17
100
AcDbEntity
  8
ROADS
100
AcDbPolyline
 90
4
 70
0
 10
626996.9418590107
 20
4837392.948879909
 10
626907.7409589754
 20
4837360.0147918025
 10
626891.6388818045
 20
4837410.507694415
 10
626850.6758296568
 20
4837398.870222591
  0
LWPOLYLINE
  5
280
330
17
100
AcDbEntity
  8
ROADS
100
AcDbPolyline
 90
2
 70
0
 10
626850.6758296568
 20
4837398.870222591
 10
626810.2841552979
 20
4837386.661051297
  0
LWPOLYLINE
  5
281
330
17
100
AcDbEntity
  8
ROADS
100
AcDbPolyline
 90
2
 70
0
 10
626729.2996123747
 20
4837361.424029372
 10
626695.2708628755
 20
4837462.934811957
  0
LWPOLYLINE
  5
282
330
17
100
AcDbEntity
  8
ROADS
100
AcDbPolyline
 90
2
 70
0
 10
627096.8224490945
 20
4837367.210493134
 10
627071.4880351694
 20
4837459.219028032
  0
LWPOLYLINE
  5
283
330
17
100
AcDbEntity
  8
ROADS
100
AcDbPolyline
 90
2
 70
0
 10
626996.9418590107
 20
4837392.948879909
 10
626968.857256697
 20
4837480.479376803
  0
LWPOLYLINE
  5
284
330
17
100
AcDbEntity
  8
ROADS
100
AcDbPolyline
 90
3
 70
0
 10
627145.1727094597
 20
4837427.758825728
 10
627131.8740144467
 20
4837424.311878454
 10
627116.2484500471
 20
4837475.053444554
  0
LWPOLYLINE
  5
285
330
17
100
AcDbEntity
  8
ROADS
100
AcDbPolyline
 90
2
 70
0
 10
627021.718306639
 20
4837496.471292463
 10
626968.857256697
 20
4837480.479376803
  0
LWPOLYLINE
  5
286
330
17
100
AcDbEntity
  8
ROADS
100
AcDbPolyline
 90
2
 70
0
 10
626968.857256697
 20
4837480.479376803
 10
626953.0336037354
 20
4837525.252967717
  0
LWPOLYLINE
  5
287
330
17
100
AcDbEntity
  8
ROADS
100
AcDbPolyline
 90
2
 70
0
 10
627093.5285472723
 20
4837518.379254465
 10
627021.718306639
 20
4837496.471292463
  0
LWPOLYLINE
  5
288
330
17
100
AcDbEntity
  8
ROADS
100
AcDbPolyline
 90
2
 70
0
 10
627149.8140148827
 20
4837521.474158183
 10
627144.8872313937
 20
4837537.539208853
  0
LWPOLYLINE
  5
289
330
17
100
AcDbEntity
  8
ROADS
100
AcDbPolyline
 90
3
 70
0
 10
627021.718306639
 20
4837496.471292463
 10
627010.2379734505
 20
4837533.6659688
 10
626996.8928097419
 20
4837529.95240641
  0
LWPOLYLINE
  5
28A
330
17
100
AcDbEntity
  8
ROADS
100
AcDbPolyline
 90
3
 70
0
 10
626810.2841552979
 20
4837386.661051297
 10
626794.9710753255
 20
4837440.14288779
 10
626758.6330836464
 20
4837425.753386744
  0
LWPOLYLINE
  5
28B
330
17
100
AcDbEntity
  8
ROADS
100
AcDbPolyline
 90
2
 70
0
 10
626850.6758296568
 20
4837398.870222591
 10
626819.1184610743
 20
4837495.058406683
  0
LWPOLYLINE
  5
28C
330
17
100
AcDbEntity
  8
ROADS
100
AcDbPolyline
 90
2
 70
0
 10
626790.8384577867
 20
4837486.613479815
 10
626695.2708628755
 20
4837462.934811957
  0
LWPOLYLINE
  5
28D
330
17
100
AcDbEntity
  8
ROADS
100
AcDbPolyline
 90
2
 70
0
 10
626695.2708628755
 20
4837462.934811957
 10
626682.6917015199
 20
4837503.213768445
  0
LWPOLYLINE
  5
28E
330
17
100
AcDbEntity
  8
ROADS
100
AcDbPolyline
 90
2
 70
0
 10
626819.1184610743
 20
4837495.058406683
 10
626790.8384577867
 20
4837486.613479815
  0
LWPOLYLINE
  5
28F
330
17
100
AcDbEntity
  8
ROADS
100
AcDbPolyline
 90
2
 70
0
 10
626790.8384577867
 20
4837486.613479815
 10
626777.6017810253
 20
4837529.019685721
  0
LWPOLYLINE
  5
290
330
17
100
AcDbEntity
  8
ROADS
100
AcDbPolyline
 90
2
 70
0
 10
626902.3804556926
 20
4837521.937753168
 10
626819.1184610743
 20
4837495.058406683
  0
LWPOLYLINE
  5
291
330
17
100
AcDbEntity
  8
ROADS
100
AcDbPolyline
 90
2
 70
0
 10
626729.5507151048
 20
4837519.019122719
 10
626682.6917015199
 20
4837503.213768445
  0
LWPOLYLINE
  5
292
330
17
100
AcDbEntity
  8
ROADS
100
AcDbPolyline
 90
2
 70
0
 10
626777.6017810253
 20
4837529.019685721
 10
626729.5507151048
 20
4837519.019122719
  0
LWPOLYLINE
  5
293
330
17
100
AcDbEntity
  8
ROADS
100
AcDbPolyline
 90
2
 70
0
 10
626948.4718848327
 20
4837539.516347469
 10
626902.3804556926
 20
4837521.937753168
  0
LWPOLYLINE
  5
294
330
17
100
AcDbEntity
  8
ROADS
100
AcDbPolyline
 90
2
 70
0
 10
626554.6374269036
 20
4837418.914974498
 10
626568.1337785826
 20
4837371.494187092
  0
LWPOLYLINE
  5
295
330
17
100
AcDbEntity
  8
ROADS
100
AcDbPolyline
 90
2
 70
0
 10
626554.6374269036
 20
4837418.914974498
 10
626505.4544544896
 20
4837402.326569424
  0
LWPOLYLINE
  5
296
330
17
100
AcDbEntity
  8
ROADS
100
AcDbPolyline
 90
2
 70
0
 10
626596.7453060823
 20
4837431.006169223
 10
626554.6374269036
 20
4837418.914974498
  0
LWPOLYLINE
  5
297
330
17
100
AcDbEntity
  8
ROADS
100
AcDbPolyline
 90
2
 70
0
 10
626648.2098139387
 20
4837447.683846988
 10
626596.7453060823
 20
4837431.006169223
  0
LWPOLYLINE
  5
298
330
17
100
AcDbEntity
  8
ROADS
100
AcDbPolyline
 90
2
 70
0
 10
626554.6374269036
 20
4837418.914974498
 10
626533.267085223
 20
4837480.133194417
  0
LWPOLYLINE
  5
299
330
17
100
AcDbEntity
  8
ROADS
100
AcDbPolyline
 90
2
 70
0
 10
626695.2708628755
 20
4837462.934811957
 10
626648.2098139387
 20
4837447.683846988
  0
LWPOLYLINE
  5
29A
330
17
100
AcDbEntity
  8
ROADS
100
AcDbPolyline
 90
2
 70
0
 10
626505.4544544896
 20
4837402.326569424
 10
626445.6756868269
 20
4837588.026650048
  0
LWPOLYLINE
  5
29B
330
17
100
AcDbEntity
  8
ROADS
100
AcDbPolyline
 90
2
 70
0
 10
626596.7453060823
 20
4837431.006169223
 10
626555.5391660717
 20
4837561.655859893
  0
LWPOLYLINE
  5
29C
330
17
100
AcDbEntity
  8
ROADS
100
AcDbPolyline
 90
2
 70
0
 10
626648.2098139387
 20
4837447.683846988
 10
626605.8469497473
 20
4837580.083242848
  0
LWPOLYLINE
  5
29D
330
17
100
AcDbEntity
  8
ROADS
100
AcDbPolyline
 90
2
 70
0
 10
626682.6917015199
 20
4837503.213768445
 10
626653.3264699719
 20
4837597.078397711
  0
LWPOLYLINE
  5
29E
330
17
100
AcDbEntity
  8
ROADS
100
AcDbPolyline
 90
2
 70
0
 10
627118.2505499186
 20
4837525.762782724
 10
627093.5285472723
 20
4837518.379254465
  0
LWPOLYLINE
  5
29F
330
17
100
AcDbEntity
  8
ROADS
100
AcDbPolyline
 90
2
 70
0
 10
626996.8928097419
 20
4837529.95240641
 10
626953.0336037354
 20
4837525.252967717
  0
LWPOLYLINE
  5
2A0
330
17
100
AcDbEntity
  8
ROADS
100
AcDbPolyline
 90
2
 70
0
 10
627144.8872313937
 20
4837537.539208853
 10
627118.2505499186
 20
4837525.762782724
  0
LWPOLYLINE
  5
2A1
330
17
100
AcDbEntity
  8
ROADS
100
AcDbPolyline
 90
3
 70
0
 10
627093.5285472723
 20
4837518.379254465
 10
627082.6269630343
 20
4837555.755415434
 10
627106.8090296551
 20
4837563.0781782055
  0
LWPOLYLINE
  5
2A2
330
17
100
AcDbEntity
  8
ROADS
100
AcDbPolyline
 90
2
 70
0
 10
626996.8928097419
 20
4837529.95240641
 10
626988.9109614794
 20
4837556.376684752
  0
LWPOLYLINE
  5
2A3
330
17
100
AcDbEntity
  8
ROADS
100
AcDbPolyline
 90
2
 70
0
 10
627118.2505499186
 20
4837525.762782724
 10
627106.8090296551
 20
4837563.0781782055
  0
LWPOLYLINE
  5
2A4
330
17
100
AcDbEntity
  8
ROADS
100
AcDbPolyline
 90
2
 70
0
 10
626988.9109614794
 20
4837556.376684752
 10
626948.4718848327
 20
4837539.516347469
  0
LWPOLYLINE
  5
2A5
330
17
100
AcDbEntity
  8
ROADS
100
AcDbPolyline
 90
2
 70
0
 10
627144.8872313937
 20
4837537.539208853
 10
627134.592587143
 20
4837571.492139311
  0
LWPOLYLINE
  5
2A6
330
17
100
AcDbEntity
  8
ROADS
100
AcDbPolyline
 90
2
 70
0
 10
627106.8090296551
 20
4837563.0781782055
 10
627121.012125008
 20
4837567.379294297
  0
LWPOLYLINE
  5
2A7
330
17
100
AcDbEntity
  8
ROADS
100
AcDbPolyline
 90
2
 70
0
 10
627121.012125008
 20
4837567.379294297
 10
627134.592587143
 20
4837571.492139311
  0
LWPOLYLINE
  5
2A8
330
17
100
AcDbEntity
  8
ROADS
100
AcDbPolyline
 90
2
 70
0
 10
626953.0336037354
 20
4837525.252967717
 10
626948.4718848327
 20
4837539.516347469
  0
LWPOLYLINE
  5
2A9
330
17
100
AcDbEntity
  8
ROADS
100
AcDbPolyline
 90
2
 70
0
 10
626777.6017810253
 20
4837529.019685721
 10
626824.9836810589
 20
4837547.985696267
  0
LWPOLYLINE
  5
2AA
330
17
100
AcDbEntity
  8
ROADS
100
AcDbPolyline
 90
2
 70
0
 10
626902.3804556926
 20
4837521.937753168
 10
626888.5894341499
 20
4837567.236123757
  0
LWPOLYLINE
  5
2AB
330
17
100
AcDbEntity
  8
ROADS
100
AcDbPolyline
 90
2
 70
0
 10
626824.9836810589
 20
4837547.985696267
 10
626888.5894341499
 20
4837567.236123757
  0
LWPOLYLINE
  5
2AC
330
17
100
AcDbEntity
  8
ROADS
100
AcDbPolyline
 90
2
 70
0
 10
626729.5507151048
 20
4837519.019122719
 10
626701.3537163762
 20
4837610.717759367
  0
LWPOLYLINE
  5
2AD
330
17
100
AcDbEntity
  8
ROADS
100
AcDbPolyline
 90
2
 70
0
 10
626810.7014875966
 20
4837594.287233957
 10
626824.9836810589
 20
4837547.985696267
  0
LWPOLYLINE
  5
2AE
330
17
100
AcDbEntity
  8
ROADS
100
AcDbPolyline
 90
2
 70
0
 10
626777.6017810253
 20
4837529.019685721
 10
626748.4162138627
 20
4837622.515566236
  0
LWPOLYLINE
  5
2AF
330
17
100
AcDbEntity
  8
ROADS
100
AcDbPolyline
 90
2
 70
0
 10
626948.4718848327
 20
4837539.516347469
 10
626919.0519295507
 20
4837632.008974778
  0
LWPOLYLINE
  5
2B0
330
17
100
AcDbEntity
  8
ROADS
100
AcDbPolyline
 90
2
 70
0
 10
626873.685975226
 20
4837612.886394584
 10
626888.5894341499
 20
4837567.236123757
  0
LWPOLYLINE
  5
2B1
330
17
100
AcDbEntity
  8
ROADS
100
AcDbPolyline
 90
2
 70
0
 10
626873.685975226
 20
4837612.886394584
 10
626810.7014875966
 20
4837594.287233957
  0
LWPOLYLINE
  5
2B2
330
17
100
AcDbEntity
  8
ROADS
100
AcDbPolyline
 90
2
 70
0
 10
626555.5391660717
 20
4837561.655859893
 10
626512.130051848
 20
4837548.30204273
  0
LWPOLYLINE
  5
2B3
330
17
100
AcDbEntity
  8
ROADS
100
AcDbPolyline
 90
2
 70
0
 10
626605.8469497473
 20
4837580.083242848
 10
626555.5391660717
 20
4837561.655859893
  0
LWPOLYLINE
  5
2B4
330
17
100
AcDbEntity
  8
ROADS
100
AcDbPolyline
 90
2
 70
0
 10
626445.6756868269
 20
4837588.026650048
 10
626346.2593566016
 20
4837556.584912993
  0
LWPOLYLINE
  5
2B5
330
17
100
AcDbEntity
  8
ROADS
100
AcDbPolyline
 90
2
 70
0
 10
626653.3264699719
 20
4837597.078397711
 10
626605.8469497473
 20
4837580.083242848
  0
LWPOLYLINE
  5
2B6
330
17
100
AcDbEntity
  8
ROADS
100
AcDbPolyline
 90
2
 70
0
 10
626555.5391660717
 20
4837561.655859893
 10
626537.8765545792
 20
4837617.480799243
  0
LWPOLYLINE
  5
2B7
330
17
100
AcDbEntity
  8
ROADS
100
AcDbPolyline
 90
2
 70
0
 10
626489.2584816435
 20
4837601.67462838
 10
626445.6756868269
 20
4837588.026650048
  0
LWPOLYLINE
  5
2B8
330
17
100
AcDbEntity
  8
ROADS
100
AcDbPolyline
 90
2
 70
0
 10
626605.8469497473
 20
4837580.083242848
 10
626590.9839973608
 20
4837633.724188197
  0
LWPOLYLINE
  5
2B9
330
17
100
AcDbEntity
  8
ROADS
100
AcDbPolyline
 90
2
 70
0
 10
626537.8765545792
 20
4837617.480799243
 10
626489.2584816435
 20
4837601.67462838
  0
LWPOLYLINE
  5
2BA
330
17
100
AcDbEntity
  8
ROADS
100
AcDbPolyline
 90
2
 70
0
 10
626653.3264699719
 20
4837597.078397711
 10
626637.4885892451
 20
4837647.94705167
  0
LWPOLYLINE
  5
2BB
330
17
100
AcDbEntity
  8
ROADS
100
AcDbPolyline
 90
2
 70
0
 10
626590.9839973608
 20
4837633.724188197
 10
626537.8765545792
 20
4837617.480799243
  0
LWPOLYLINE
  5
2BC
330
17
100
AcDbEntity
  8
ROADS
100
AcDbPolyline
 90
2
 70
0
 10
627127.4922768661
 20
4837594.599164469
 10
626988.9109614794
 20
4837556.376684752
  0
LWPOLYLINE
  5
2BD
330
17
100
AcDbEntity
  8
ROADS
100
AcDbPolyline
 90
2
 70
0
 10
627121.012125008
 20
4837567.379294297
 10
627127.4922768661
 20
4837594.599164469
  0
LWPOLYLINE
  5
2BE
330
17
100
AcDbEntity
  8
ROADS
100
AcDbPolyline
 90
2
 70
0
 10
627134.592587143
 20
4837571.492139311
 10
627127.4922768661
 20
4837594.599164469
  0
LWPOLYLINE
  5
2BF
330
17
100
AcDbEntity
  8
ROADS
100
AcDbPolyline
 90
2
 70
0
 10
627127.4922768661
 20
4837594.599164469
 10
627115.1076851685
 20
4837634.679674796
  0
LWPOLYLINE
  5
2C0
330
17
100
AcDbEntity
  8
ROADS
100
AcDbPolyline
 90
2
 70
0
 10
627110.4538110553
 20
4837647.430300076
 10
626972.9326742983
 20
4837607.266853747
  0
LWPOLYLINE
  5
2C1
330
17
100
AcDbEntity
  8
ROADS
100
AcDbPolyline
 90
2
 70
0
 10
627115.1076851685
 20
4837634.679674796
 10
627110.4538110553
 20
4837647.430300076
  0
LWPOLYLINE
  5
2C2
330
17
100
AcDbEntity
  8
ROADS
100
AcDbPolyline
 90
2
 70
0
 10
627097.6999433083
 20
4837688.022159896
 10
626919.0519295507
 20
4837632.008974778
  0
LWPOLYLINE
  5
2C3
330
17
100
AcDbEntity
  8
ROADS
100
AcDbPolyline
 90
2
 70
0
 10
627110.4538110553
 20
4837647.430300076
 10
627097.6999433083
 20
4837688.022159896
  0
LWPOLYLINE
  5
2C4
330
17
100
AcDbEntity
  8
ROADS
100
AcDbPolyline
 90
2
 70
0
 10
627084.9900806067
 20
4837728.8348261425
 10
626946.5634473774
 20
4837686.263826244
  0
LWPOLYLINE
  5
2C5
330
17
100
AcDbEntity
  8
ROADS
100
AcDbPolyline
 90
2
 70
0
 10
627097.6999433083
 20
4837688.022159896
 10
627084.9900806067
 20
4837728.8348261425
  0
LWPOLYLINE
  5
2C6
330
17
100
AcDbEntity
  8
ROADS
100
AcDbPolyline
 90
2
 70
0
 10
626489.2584816435
 20
4837601.67462838
 10
626473.828686371
 20
4837652.042607182
  0
LWPOLYLINE
  5
2C7
330
17
100
AcDbEntity
  8
ROADS
100
AcDbPolyline
 90
2
 70
0
 10
626637.4885892451
 20
4837647.94705167
 10
626590.9839973608
 20
4837633.724188197
  0
LWPOLYLINE
  5
2C8
330
17
100
AcDbEntity
  8
ROADS
100
AcDbPolyline
 90
3
 70
0
 10
626463.548873891
 20
4837683.6275927415
 10
626359.9001029244
 20
4837649.708136988
 10
626329.8805764088
 20
4837611.483979802
  0
LWPOLYLINE
  5
2C9
330
17
100
AcDbEntity
  8
ROADS
100
AcDbPolyline
 90
2
 70
0
 10
626473.828686371
 20
4837652.042607182
 10
626467.6917658044
 20
4837671.979817783
  0
LWPOLYLINE
  5
2CA
330
17
100
AcDbEntity
  8
ROADS
100
AcDbPolyline
 90
2
 70
0
 10
626566.320819668
 20
4837680.985513009
 10
626473.828686371
 20
4837652.042607182
  0
LWPOLYLINE
  5
2CB
330
17
100
AcDbEntity
  8
ROADS
100
AcDbPolyline
 90
2
 70
0
 10
626637.4885892451
 20
4837647.94705167
 10
626623.5032958877
 20
4837692.208805667
  0
LWPOLYLINE
  5
2CC
330
17
100
AcDbEntity
  8
ROADS
100
AcDbPolyline
 90
2
 70
0
 10
626467.6917658044
 20
4837671.979817783
 10
626463.548873891
 20
4837683.6275927415
  0
LWPOLYLINE
  5
2CD
330
17
100
AcDbEntity
  8
ROADS
100
AcDbPolyline
 90
2
 70
0
 10
626520.3335536611
 20
4837688.478306366
 10
626467.6917658044
 20
4837671.979817783
  0
LWPOLYLINE
  5
2CE
330
17
100
AcDbEntity
  8
ROADS
100
AcDbPolyline
 90
2
 70
0
 10
626566.320819668
 20
4837680.985513009
 10
626520.3335536611
 20
4837688.478306366
  0
LWPOLYLINE
  5
2CF
330
17
100
AcDbEntity
  8
ROADS
100
AcDbPolyline
 90
2
 70
0
 10
626623.5032958877
 20
4837692.208805667
 10
626566.320819668
 20
4837680.985513009
  0
LWPOLYLINE
  5
2D0
330
17
100
AcDbEntity
  8
ROADS
100
AcDbPolyline
 90
2
 70
0
 10
626701.3537163762
 20
4837610.717759367
 10
626653.3264699719
 20
4837597.078397711
  0
LWPOLYLINE
  5
2D1
330
17
100
AcDbEntity
  8
ROADS
100
AcDbPolyline
 90
2
 70
0
 10
626810.7014875966
 20
4837594.287233957
 10
626802.4818967263
 20
4837620.558187391
  0
LWPOLYLINE
  5
2D2
330
17
100
AcDbEntity
  8
ROADS
100
AcDbPolyline
 90
2
 70
0
 10
626748.4162138627
 20
4837622.515566236
 10
626701.3537163762
 20
4837610.717759367
  0
LWPOLYLINE
  5
2D3
330
17
100
AcDbEntity
  8
ROADS
100
AcDbPolyline
 90
2
 70
0
 10
626919.0519295507
 20
4837632.008974778
 10
626873.685975226
 20
4837612.886394584
  0
LWPOLYLINE
  5
2D4
330
17
100
AcDbEntity
  8
ROADS
100
AcDbPolyline
 90
3
 70
0
 10
626873.685975226
 20
4837612.886394584
 10
626859.4255121436
 20
4837658.262272918
 10
626906.015673202
 20
4837673.7277739905
  0
LWPOLYLINE
  5
2D5
330
17
100
AcDbEntity
  8
ROADS
100
AcDbPolyline
 90
2
 70
0
 10
626748.4162138627
 20
4837622.515566236
 10
626732.3239254968
 20
4837678.16092233
  0
LWPOLYLINE
  5
2D6
330
17
100
AcDbEntity
  8
ROADS
100
AcDbPolyline
 90
2
 70
0
 10
626919.0519295507
 20
4837632.008974778
 10
626906.015673202
 20
4837673.7277739905
  0
LWPOLYLINE
  5
2D7
330
17
100
AcDbEntity
  8
ROADS
100
AcDbPolyline
 90
2
 70
0
 10
626732.3239254968
 20
4837678.16092233
 10
626637.4885892451
 20
4837647.94705167
  0
LWPOLYLINE
  5
2D8
330
17
100
AcDbEntity
  8
ROADS
100
AcDbPolyline
 90
2
 70
0
 10
626852.7642453581
 20
4837716.315348717
 10
626732.3239254968
 20
4837678.16092233
  0
LWPOLYLINE
  5
2D9
330
17
100
AcDbEntity
  8
ROADS
100
AcDbPolyline
 90
2
 70
0
 10
626906.015673202
 20
4837673.7277739905
 10
626890.0779796548
 20
4837726.132751773
  0
LWPOLYLINE
  5
2DA
330
17
100
AcDbEntity
  8
ROADS
100
AcDbPolyline
 90
2
 70
0
 10
626439.0440507433
 20
4837760.840049768
 10
626282.3242795903
 20
4837711.54089059
  0
LWPOLYLINE
  5
2DB
330
17
100
AcDbEntity
  8
ROADS
100
AcDbPolyline
 90
2
 70
0
 10
626179.259510473
 20
4837761.896976431
 10
626185.8630182635
 20
4837742.758269784
  0
LWPOLYLINE
  5
2DC
330
17
100
AcDbEntity
  8
ROADS
100
AcDbPolyline
 90
2
 70
0
 10
626179.259510473
 20
4837761.896976431
 10
626162.9403620891
 20
4837743.272750922
  0
LWPOLYLINE
  5
2DD
330
17
100
AcDbEntity
  8
ROADS
100
AcDbPolyline
 90
2
 70
0
 10
626282.3242795903
 20
4837711.54089059
 10
626256.7580528138
 20
4837794.191430615
  0
LWPOLYLINE
  5
2DE
330
17
100
AcDbEntity
  8
ROADS
100
AcDbPolyline
 90
2
 70
0
 10
626172.3411508482
 20
4837778.482837754
 10
626091.9789586494
 20
4837752.5749818375
  0
LWPOLYLINE
  5
2DF
330
17
100
AcDbEntity
  8
ROADS
100
AcDbPolyline
 90
2
 70
0
 10
626172.3411508482
 20
4837778.482837754
 10
626179.259510473
 20
4837761.896976431
  0
LWPOLYLINE
  5
2E0
330
17
100
AcDbEntity
  8
ROADS
100
AcDbPolyline
 90
3
 70
0
 10
626179.259510473
 20
4837761.896976431
 10
626202.5550066342
 20
4837768.13863827
 10
626208.2607767557
 20
4837790.122124596
  0
LWPOLYLINE
  5
2E1
330
17
100
AcDbEntity
  8
ROADS
100
AcDbPolyline
 90
2
 70
0
 10
626208.2607767557
 20
4837790.122124596
 10
626172.3411508482
 20
4837778.482837754
  0
LWPOLYLINE
  5
2E2
330
17
100
AcDbEntity
  8
ROADS
100
AcDbPolyline
 90
2
 70
0
 10
626252.5439199215
 20
4837804.469827303
 10
626208.2607767557
 20
4837790.122124596
  0
LWPOLYLINE
  5
2E3
330
17
100
AcDbEntity
  8
ROADS
100
AcDbPolyline
 90
2
 70
0
 10
626256.7580528138
 20
4837794.191430615
 10
626252.5439199215
 20
4837804.469827303
  0
LWPOLYLINE
  5
2E4
330
17
100
AcDbEntity
  8
ROADS
100
AcDbPolyline
 90
2
 70
0
 10
626732.3239254968
 20
4837678.16092233
 10
626717.7564537983
 20
4837722.430159677
  0
LWPOLYLINE
  5
2E5
330
17
100
AcDbEntity
  8
ROADS
100
AcDbPolyline
 90
2
 70
0
 10
626890.0779796548
 20
4837726.132751773
 10
626852.7642453581
 20
4837716.315348717
  0
LWPOLYLINE
  5
2E6
330
17
100
AcDbEntity
  8
ROADS
100
AcDbPolyline
 90
2
 70
0
 10
626852.7642453581
 20
4837716.315348717
 10
626839.0910347236
 20
4837759.466704761
  0
LWPOLYLINE
  5
2E7
330
17
100
AcDbEntity
  8
ROADS
100
AcDbPolyline
 90
2
 70
0
 10
626982.2473301401
 20
4837754.460336787
 10
626890.0779796548
 20
4837726.132751773
  0
LWPOLYLINE
  5
2E8
330
17
100
AcDbEntity
  8
ROADS
100
AcDbPolyline
 90
2
 70
0
 10
626839.0910347236
 20
4837759.466704761
 10
626717.7564537983
 20
4837722.430159677
  0
LWPOLYLINE
  5
2E9
330
17
100
AcDbEntity
  8
ROADS
100
AcDbPolyline
 90
2
 70
0
 10
626839.0910347236
 20
4837759.466704761
 10
626829.097396819
 20
4837790.765379684
  0
LWPOLYLINE
  5
2EA
330
17
100
AcDbEntity
  8
ROADS
100
AcDbPolyline
 90
2
 70
0
 10
626717.7564537983
 20
4837722.430159677
 10
626672.924137232
 20
4837865.014006087
  0
LWPOLYLINE
  5
2EB
330
17
100
AcDbEntity
  8
ROADS
100
AcDbPolyline
 90
2
 70
0
 10
626829.097396819
 20
4837790.765379684
 10
626904.6245952749
 20
4837814.233209098
  0
LWPOLYLINE
  5
2EC
330
17
100
AcDbEntity
  8
ROADS
100
AcDbPolyline
 90
2
 70
0
 10
626829.097396819
 20
4837790.765379684
 10
626793.0828802648
 20
4837901.925325442
  0
LWPOLYLINE
  5
2ED
330
17
100
AcDbEntity
  8
ROADS
100
AcDbPolyline
 90
2
 70
0
 10
626793.0828802648
 20
4837901.925325442
 10
626672.924137232
 20
4837865.014006087
  0
LWPOLYLINE
  5
2EE
330
17
100
AcDbEntity
  8
ROADS
100
AcDbPolyline
 90
2
 70
0
 10
626520.3335536611
 20
4837688.478306366
 10
626527.8583545006
 20
4837702.614737301
  0
LWPOLYLINE
  5
2EF
330
17
100
AcDbEntity
  8
ROADS
100
AcDbPolyline
 90
2
 70
0
 10
626717.7564537983
 20
4837722.430159677
 10
626623.5032958877
 20
4837692.208805667
  0
LWPOLYLINE
  5
2F0
330
17
100
AcDbEntity
  8
ROADS
100
AcDbPolyline
 90
2
 70
0
 10
626463.548873891
 20
4837683.6275927415
 10
626446.1007488988
 20
4837739.97842102
  0
LWPOLYLINE
  5
2F1
330
17
100
AcDbEntity
  8
ROADS
100
AcDbPolyline
 90
2
 70
0
 10
626446.1007488988
 20
4837739.97842102
 10
626439.0440507433
 20
4837760.840049768
  0
LWPOLYLINE
  5
2F2
330
17
100
AcDbEntity
  8
ROADS
100
AcDbPolyline
 90
2
 70
0
 10
626446.1007488988
 20
4837739.97842102
 10
626544.0246632401
 20
4837771.494235899
  0
LWPOLYLINE
  5
2F3
330
17
100
AcDbEntity
  8
ROADS
100
AcDbPolyline
 90
2
 70
0
 10
626623.5032958877
 20
4837692.208805667
 10
626578.6602057025
 20
4837835.721476759
  0
LWPOLYLINE
  5
2F4
330
17
100
AcDbEntity
  8
ROADS
100
AcDbPolyline
 90
2
 70
0
 10
626439.0440507433
 20
4837760.840049768
 10
626420.3702603935
 20
4837820.208884314
  0
LWPOLYLINE
  5
2F5
330
17
100
AcDbEntity
  8
ROADS
100
AcDbPolyline
 90
2
 70
0
 10
626420.3702603935
 20
4837820.208884314
 10
626517.863663177
 20
4837849.31779018
  0
LWPOLYLINE
  5
2F6
330
17
100
AcDbEntity
  8
ROADS
100
AcDbPolyline
 90
2
 70
0
 10
626672.924137232
 20
4837865.014006087
 10
626578.6602057025
 20
4837835.721476759
  0
LWPOLYLINE
  5
2F7
330
17
100
AcDbEntity
  8
ROADS
100
AcDbPolyline
 90
2
 70
0
 10
626420.3702603935
 20
4837820.208884314
 10
626396.929612129
 20
4837897.026544148
  0
LWPOLYLINE
  5
2F8
330
17
100
AcDbEntity
  8
ROADS
100
AcDbPolyline
 90
2
 70
0
 10
627084.9900806067
 20
4837728.8348261425
 10
627070.0452939221
 20
4837778.095592176
  0
LWPOLYLINE
  5
2F9
330
17
100
AcDbEntity
  8
ROADS
100
AcDbPolyline
 90
2
 70
0
 10
627070.0452939221
 20
4837778.095592176
 10
626982.2473301401
 20
4837754.460336787
  0
LWPOLYLINE
  5
2FA
330
17
100
AcDbEntity
  8
ROADS
100
AcDbPolyline
 90
2
 70
0
 10
627091.4986583674
 20
4837784.396959789
 10
627070.0452939221
 20
4837778.095592176
  0
LWPOLYLINE
  5
2FB
330
17
100
AcDbEntity
  8
ROADS
100
AcDbPolyline
 90
2
 70
0
 10
627101.2207997311
 20
4837787.055870891
 10
627091.4986583674
 20
4837784.396959789
  0
LWPOLYLINE
  5
2FC
330
17
100
AcDbEntity
  8
ROADS
100
AcDbPolyline
 90
2
 70
0
 10
627091.4986583674
 20
4837784.396959789
 10
627078.8138233561
 20
4837826.921680044
  0
LWPOLYLINE
  5
2FD
330
17
100
AcDbEntity
  8
ROADS
100
AcDbPolyline
 90
2
 70
0
 10
627088.0835981197
 20
4837829.824500386
 10
627078.8138233561
 20
4837826.921680044
  0
LWPOLYLINE
  5
2FE
330
17
100
AcDbEntity
  8
ROADS
100
AcDbPolyline
 90
2
 70
0
 10
626982.2473301401
 20
4837754.460336787
 10
626921.6861540445
 20
4837951.666177181
  0
LWPOLYLINE
  5
2FF
330
17
100
AcDbEntity
  8
ROADS
100
AcDbPolyline
 90
2
 70
0
 10
626793.0828802648
 20
4837901.925325442
 10
626783.2425026501
 20
4837932.601225936
  0
LWPOLYLINE
  5
300
330
17
100
AcDbEntity
  8
ROADS
100
AcDbPolyline
 90
2
 70
0
 10
626793.0828802648
 20
4837901.925325442
 10
626864.2713897559
 20
4837947.975589971
  0
LWPOLYLINE
  5
301
330
17
100
AcDbEntity
  8
ROADS
100
AcDbPolyline
 90
2
 70
0
 10
626783.2425026501
 20
4837932.601225936
 10
626800.3677178049
 20
4837955.3173216
  0
LWPOLYLINE
  5
302
330
17
100
AcDbEntity
  8
ROADS
100
AcDbPolyline
 90
2
 70
0
 10
626864.2713897559
 20
4837947.975589971
 10
626921.6861540445
 20
4837951.666177181
  0
LWPOLYLINE
  5
303
330
17
100
AcDbEntity
  8
ROADS
100
AcDbPolyline
 90
2
 70
0
 10
626844.3092812002
 20
4837951.784802181
 10
626864.2713897559
 20
4837947.975589971
  0
LWPOLYLINE
  5
304
330
17
100
AcDbEntity
  8
ROADS
100
AcDbPolyline
 90
2
 70
0
 10
626783.2425026501
 20
4837932.601225936
 10
626789.6469076527
 20
4837967.214156164
  0
LWPOLYLINE
  5
305
330
17
100
AcDbEntity
  8
ROADS
100
AcDbPolyline
 90
2
 70
0
 10
626800.3677178049
 20
4837955.3173216
 10
626844.3092812002
 20
4837951.784802181
  0
LWPOLYLINE
  5
306
330
17
100
AcDbEntity
  8
ROADS
100
AcDbPolyline
 90
2
 70
0
 10
626844.3092812002
 20
4837951.784802181
 10
626846.5244697663
 20
4837966.268747839
  0
LWPOLYLINE
  5
307
330
17
100
AcDbEntity
  8
ROADS
100
AcDbPolyline
 90
2
 70
0
 10
626800.3677178049
 20
4837955.3173216
 10
626789.6469076527
 20
4837967.214156164
  0
LWPOLYLINE
  5
308
330
17
100
AcDbEntity
  8
ROADS
100
AcDbPolyline
 90
3
 70
0
 10
626789.6469076527
 20
4837967.214156164
 10
626806.2086222953
 20
4837995.706414534
 10
626782.5385958371
 20
4838067.84071824
  0
LWPOLYLINE
  5
309
330
17
100
AcDbEntity
  8
ROADS
100
AcDbPolyline
 90
2
 70
0
 10
626578.6602057025
 20
4837835.721476759
 10
626544.8235931927
 20
4837943.023990898
  0
LWPOLYLINE
  5
30A
330
17
100
AcDbEntity
  8
ROADS
100
AcDbPolyline
 90
2
 70
0
 10
626471.8946437123
 20
4837922.541824742
 10
626396.929612129
 20
4837897.026544148
  0
LWPOLYLINE
  5
30B
330
17
100
AcDbEntity
  8
ROADS
100
AcDbPolyline
 90
2
 70
0
 10
626396.929612129
 20
4837897.026544148
 10
626386.6392459715
 20
4837923.000989987
  0
LWPOLYLINE
  5
30C
330
17
100
AcDbEntity
  8
ROADS
100
AcDbPolyline
 90
2
 70
0
 10
626544.8235931927
 20
4837943.023990898
 10
626471.8946437123
 20
4837922.541824742
  0
LWPOLYLINE
  5
30D
330
17
100
AcDbEntity
  8
ROADS
100
AcDbPolyline
 90
2
 70
0
 10
626672.924137232
 20
4837865.014006087
 10
626623.510413604
 20
4838018.660625959
  0
LWPOLYLINE
  5
30E
330
17
100
AcDbEntity
  8
ROADS
100
AcDbPolyline
 90
2
 70
0
 10
626544.8235931927
 20
4837943.023990898
 10
626513.7878219138
 20
4838072.95749678
  0
LWPOLYLINE
  5
30F
330
17
100
AcDbEntity
  8
ROADS
100
AcDbPolyline
 90
2
 70
0
 10
626471.8946437123
 20
4837922.541824742
 10
626412.1104023899
 20
4838117.403247101
  0
LWPOLYLINE
  5
310
330
17
100
AcDbEntity
  8
ROADS
100
AcDbPolyline
 90
2
 70
0
 10
626623.510413604
 20
4838018.660625959
 10
626598.8443153463
 20
4838098.81335722
  0
LWPOLYLINE
  5
311
330
17
100
AcDbEntity
  8
ROADS
100
AcDbPolyline
 90
2
 70
0
 10
626598.8443153463
 20
4838098.81335722
 10
626513.7878219138
 20
4838072.95749678
  0
LWPOLYLINE
  5
312
330
17
100
AcDbEntity
  8
ROADS
100
AcDbPolyline
 90
2
 70
0
 10
626513.7878219138
 20
4838072.95749678
 10
626492.3474605054
 20
4838141.800360361
  0
LWPOLYLINE
  5
313
330
17
100
AcDbEntity
  8
ROADS
100
AcDbPolyline
 90
2
 70
0
 10
627078.8138233561
 20
4837826.921680044
 10
627043.4314960117
 20
4837941.750112681
  0
LWPOLYLINE
  5
314
330
17
100
AcDbEntity
  8
ROADS
100
AcDbPolyline
 90
2
 70
0
 10
626623.510413604
 20
4838018.660625959
 10
626782.5385958371
 20
4838067.84071824
  0
LWPOLYLINE
  5
315
330
17
100
AcDbEntity
  8
ROADS
100
AcDbPolyline
 90
2
 70
0
 10
626921.6861540445
 20
4837951.666177181
 10
626852.4836308358
 20
4838177.3313985765
  0
LWPOLYLINE
  5
316
330
17
100
AcDbEntity
  8
ROADS
100
AcDbPolyline
 90
2
 70
0
 10
626782.5385958371
 20
4838067.84071824
 10
626762.7762937753
 20
4838150.176306225
  0
LWPOLYLINE
  5
317
330
17
100
AcDbEntity
  8
ROADS
100
AcDbPolyline
 90
2
 70
0
 10
626762.7762937753
 20
4838150.176306225
 10
626686.1358645328
 20
4838126.388757259
  0
LWPOLYLINE
  5
318
330
17
100
AcDbEntity
  8
ROADS
100
AcDbPolyline
 90
2
 70
0
 10
626775.8757472142
 20
4838155.558548471
 10
626762.7762937753
 20
4838150.176306225
  0
LWPOLYLINE
  5
319
330
17
100
AcDbEntity
  8
ROADS
100
AcDbPolyline
 90
2
 70
0
 10
626852.4836308358
 20
4838177.3313985765
 10
626775.8757472142
 20
4838155.558548471
  0
LWPOLYLINE
  5
31A
330
17
100
AcDbEntity
  8
ROADS
100
AcDbPolyline
 90
2
 70
0
 10
626864.5298117598
 20
4838183.729410276
 10
626852.4836308358
 20
4838177.3313985765
  0
LWPOLYLINE
  5
31B
330
17
100
AcDbEntity
  8
ROADS
100
AcDbPolyline
 90
2
 70
0
 10
626775.8757472142
 20
4838155.558548471
 10
626736.5725464914
 20
4838283.421242319
  0
LWPOLYLINE
  5
31C
330
17
100
AcDbEntity
  8
ROADS
100
AcDbPolyline
 90
2
 70
0
 10
626686.1358645328
 20
4838126.388757259
 10
626598.8443153463
 20
4838098.81335722
  0
LWPOLYLINE
  5
31D
330
17
100
AcDbEntity
  8
ROADS
100
AcDbPolyline
 90
2
 70
0
 10
626492.3474605054
 20
4838141.800360361
 10
626412.1104023899
 20
4838117.403247101
  0
LWPOLYLINE
  5
31E
330
17
100
AcDbEntity
  8
ROADS
100
AcDbPolyline
 90
2
 70
0
 10
626412.1104023899
 20
4838117.403247101
 10
626380.2322158631
 20
4838222.389963238
  0
LWPOLYLINE
  5
31F
330
17
100
AcDbEntity
  8
ROADS
100
AcDbPolyline
 90
2
 70
0
 10
626598.8443153463
 20
4838098.81335722
 10
626545.7632872917
 20
4838272.916812598
  0
LWPOLYLINE
  5
320
330
17
100
AcDbEntity
  8
ROADS
100
AcDbPolyline
 90
2
 70
0
 10
626492.3474605054
 20
4838141.800360361
 10
626460.4324081964
 20
4838246.916940518
  0
LWPOLYLINE
  5
321
330
17
100
AcDbEntity
  8
ROADS
100
AcDbPolyline
 90
2
 70
0
 10
626686.1358645328
 20
4838126.388757259
 10
626632.236251324
 20
4838299.967417082
  0
LWPOLYLINE
  5
322
330
17
100
AcDbEntity
  8
ROADS
100
AcDbPolyline
 90
2
 70
0
 10
626460.4324081964
 20
4838246.916940518
 10
626380.2322158631
 20
4838222.389963238
  0
LWPOLYLINE
  5
323
330
17
100
AcDbEntity
  8
ROADS
100
AcDbPolyline
 90
2
 70
0
 10
626545.7632872917
 20
4838272.916812598
 10
626460.4324081964
 20
4838246.916940518
  0
LWPOLYLINE
  5
324
330
17
100
AcDbEntity
  8
ROADS
100
AcDbPolyline
 90
2
 70
0
 10
626632.236251324
 20
4838299.967417082
 10
626545.7632872917
 20
4838272.916812598
  0
LWPOLYLINE
  5
325
330
17
100
AcDbEntity
  8
ROADS
100
AcDbPolyline
 90
2
 70
0
 10
626460.4324081964
 20
4838246.916940518
 10
626432.4865823648
 20
4838330.690514792
  0
LWPOLYLINE
  5
326
330
17
100
AcDbEntity
  8
ROADS
100
AcDbPolyline
 90
2
 70
0
 10
626432.4865823648
 20
4838330.690514792
 10
626354.4765846146
 20
4838307.211194375
  0
LWPOLYLINE
  5
327
330
17
100
AcDbEntity
  8
ROADS
100
AcDbPolyline
 90
2
 70
0
 10
626545.7632872917
 20
4838272.916812598
 10
626513.1705167422
 20
4838377.891856824
  0
LWPOLYLINE
  5
328
330
17
100
AcDbEntity
  8
ROADS
100
AcDbPolyline
 90
2
 70
0
 10
626632.236251324
 20
4838299.967417082
 10
626619.4300368145
 20
4838342.276258833
  0
LWPOLYLINE
  5
329
330
17
100
AcDbEntity
  8
ROADS
100
AcDbPolyline
 90
2
 70
0
 10
626432.4865823648
 20
4838330.690514792
 10
626413.6332871391
 20
4838396.029607246
  0
ENDSEC
  0
SECTION
  2
OBJECTS
  0
DICTIONARY
  5
A
330
0
100
AcDbDictionary
281
1
  3
ACAD_COLOR
350
B
  3
ACAD_GROUP
350
C
  3
ACAD_LAYOUT
350
D
  3
ACAD_MATERIAL
350
E
  3
ACAD_MLEADERSTYLE
350
F
  3
ACAD_MLINESTYLE
350
10
  3
ACAD_PLOTSETTINGS
350
11
  3
ACAD_PLOTSTYLENAME
350
12
  3
ACAD_SCALELIST
350
14
  3
ACAD_TABLESTYLE
350
15
  3
ACAD_VISUALSTYLE
350
16
  3
EZDXF_META
350
2D
  0
DICTIONARY
  5
B
330
A
100
AcDbDictionary
281
1
  0
DICTIONARY
  5
C
330
A
100
AcDbDictionary
281
1
  0
DICTIONARY
  5
D
330
A
100
AcDbDictionary
281
1
  3
Model
350
1A
  3
Layout1
350
1E
  0
DICTIONARY
  5
E
330
A
100
AcDbDictionary
281
1
  3
ByBlock
350
1F
  3
ByLayer
350
20
  3
Global
350
21
  0
DICTIONARY
  5
F
330
A
100
AcDbDictionary
281
1
  3
Standard
350
2C
  0
DICTIONARY
  5
10
330
A
100
AcDbDictionary
281
1
  3
Standard
350
22
  0
DICTIONARY
  5
11
330
A
100
AcDbDictionary
281
1
  0
ACDBDICTIONARYWDFLT
  5
12
330
A
100
AcDbDictionary
281
1
  3
Normal
350
13
100
AcDbDictionaryWithDefault
340
13
  0
ACDBPLACEHOLDER
  5
13
330
12
  0
DICTIONARY
  5
14
330
A
100
AcDbDictionary
281
1
  0
DICTIONARY
  5
15
330
A
100
AcDbDictionary
281
1
  0
DICTIONARY
  5
16
330
A
100
AcDbDictionary
281
1
  0
LAYOUT
  5
1A
330
D
100
AcDbPlotSettings
  1

  4
A3
  6

 40
7.5
 41
20.0
 42
7.5
 43
20.0
 44
420.0
 45
297.0
 46
0.0
 47
0.0
 48
0.0
 49
0.0
140
0.0
141
0.0
142
1.0
143
1.0
 70
1024
 72
1
 73
0
 74
5
  7

 75
16
 76
0
 77
2
 78
300
147
1.0
148
0.0
149
0.0
100
AcDbLayout
  1
Model
 70
1
 71
0
 10
0.0
 20
0.0
 11
420.0
 21
297.0
 12
0.0
 22
0.0
 32
0.0
 14
1e+20
 24
1e+20
 34
1e+20
 15
-1e+20
 25
-1e+20
 35
-1e+20
146
0.0
 13
0.0
 23
0.0
 33
0.0
 16
1.0
 26
0.0
 36
0.0
 17
0.0
 27
1.0
 37
0.0
 76
1
330
17
  0
LAYOUT
  5
1E
330
D
100
AcDbPlotSettings
  1

  4
A3
  6

 40
7.5
 41
20.0
 42
7.5
 43
20.0
 44
420.0
 45
297.0
 46
0.0
 47
0.0
 48
0.0
 49
0.0
140
0.0
141
0.0
142
1.0
143
1.0
 70
0
 72
1
 73
0
 74
5
  7

 75
16
 76
0
 77
2
 78
300
147
1.0
148
0.0
149
0.0
100
AcDbLayout
  1
Layout1
 70
1
 71
1
 10
0.0
 20
0.0
 11
420.0
 21
297.0
 12
0.0
 22
0.0
 32
0.0
 14
1e+20
 24
1e+20
 34
1e+20
 15
-1e+20
 25
-1e+20
 35
-1e+20
146
0.0
 13
0.0
 23
0.0
 33
0.0
 16
1.0
 26
0.0
 36
0.0
 17
0.0
 27
1.0
 37
0.0
 76
1
330
1B
  0
MATERIAL
  5
1F
102
{ACAD_REACTORS
330
E
102
}
330
E
100
AcDbMaterial
  1
ByBlock
  2

 70
0
 40
1.0
 71
1
 41
1.0
 91
-1023410177
 42
1.0
 72
1
  3

 73
1
 74
1
 75
1
 44
0.5
 73
0
 45
1.0
 46
1.0
 77
1
  4

 78
1
 79
1
170
1
 48
1.0
171
1
  6

172
1
173
1
174
1
140
1.0
141
1.0
175
1
  7

176
1
177
1
178
1
143
1.0
179
1
  8

270
1
271
1
272
1
145
1.0
146
1.0
273
1
  9

274
1
275
1
276
1
 42
1.0
 72
1
  3

 73
1
 74
1
 75
1
 94
63
  0
MATERIAL
  5
20
102
{ACAD_REACTORS
330
E
102
}
330
E
100
AcDbMaterial
  1
ByLayer
  2

 70
0
 40
1.0
 71
1
 41
1.0
 91
-1023410177
 42
1.0
 72
1
  3

 73
1
 74
1
 75
1
 44
0.5
 73
0
 45
1.0
 46
1.0
 77
1
  4

 78
1
 79
1
170
1
 48
1.0
171
1
  6

172
1
173
1
174
1
140
1.0
141
1.0
175
1
  7

176
1
177
1
178
1
143
1.0
179
1
  8

270
1
271
1
272
1
145
1.0
146
1.0
273
1
  9

274
1
275
1
276
1
 42
1.0
 72
1
  3

 73
1
 74
1
 75
1
 94
63
  0
MATERIAL
  5
21
102
{ACAD_REACTORS
330
E
102
}
330
E
100
AcDbMaterial
  1
Global
  2

 70
0
 40
1.0
 71
1
 41
1.0
 91
-1023410177
 42
1.0
 72
1
  3

 73
1
 74
1
 75
1
 44
0.5
 73
0
 45
1.0
 46
1.0
 77
1
  4

 78
1
 79
1
170
1
 48
1.0
171
1
  6

172
1
173
1
174
1
140
1.0
141
1.0
175
1
  7

176
1
177
1
178
1
143
1.0
179
1
  8

270
1
271
1
272
1
145
1.0
146
1.0
273
1
  9

274
1
275
1
276
1
 42
1.0
 72
1
  3

 73
1
 74
1
 75
1
 94
63
  0
MLINESTYLE
  5
22
102
{ACAD_REACTORS
330
10
102
}
330
10
100
AcDbMlineStyle
  2
Standard
 70
0
  3

 62
256
 51
90.0
 52
90.0
 71
2
 49
0.5
 62
256
  6
BYLAYER
 49
-0.5
 62
256
  6
BYLAYER
  0
MLEADERSTYLE
  5
2C
102
{ACAD_REACTORS
330
F
102
}
330
F
100
AcDbMLeaderStyle
179
2
170
2
171
1
172
0
 90
2
 40
0.0
 41
0.0
173
1
 91
-1056964608
 92
-2
290
1
 42
2.0
291
1
 43
8.0
  3
Standard
 44
4.0
300

342
29
174
1
175
1
176
0
178
1
 93
-1056964608
 45
4.0
292
0
297
0
 46
4.0
 94
-1056964608
 47
1.0
 49
1.0
140
1.0
294
1
141
0.0
177
0
142
1.0
295
0
296
0
143
3.75
271
0
272
9
273
9
  0
DICTIONARY
  5
2D
330
A
100
AcDbDictionary
280
1
281
1
  3
CREATED_BY_EZDXF
350
2E
  3
WRITTEN_BY_EZDXF
350
32C
  0
DICTIONARYVAR
  5
2E
330
2D
100
DictionaryVariables
280
0
  1
1.4.4 @ 2026-07-07T06:20:49.580838+00:00
  0
DICTIONARYVAR
  5
32C
330
2D
100
DictionaryVariables
280
0
  1
1.4.4 @ 2026-07-07T06:20:49.605183+00:00
  0
ENDSEC
  0
EOF
