  0
SECTION
  2
HEADER
  9
$ACADVER
  1
AC1015
  9
$ACADMAINTVER
 70
6
  9
$DWGCODEPAGE
  3
ANSI_1252
  9
$INSBASE
 10
0.0
 20
0.0
 30
0.0
  9
$EXTMIN
 10
1e+20
 20
1e+20
 30
1e+20
  9
$EXTMAX
 10
-1e+20
 20
-1e+20
 30
-1e+20
  9
$LIMMIN
 10
0.0
 20
0.0
  9
$LIMMAX
 10
420.0
 20
297.0
  9
$ORTHOMODE
 70
0
  9
$REGENMODE
 70
1
  9
$FILLMODE
 70
1
  9
$QTEXTMODE
 70
0
  9
$MIRRTEXT
 70
1
  9
$LTSCALE
 40
1.0
  9
$ATTMODE
 70
1
  9
$TEXTSIZE
 40
2.5
  9
$TRACEWID
 40
1.0
  9
$TEXTSTYLE
  7
Standard
  9
$CLAYER
  8
0
  9
$CELTYPE
  6
ByLayer
  9
$CECOLOR
 62
256
  9
$CELTSCALE
 40
1.0
  9
$DISPSILH
 70
0
  9
$DIMSCALE
 40
1.0
  9
$DIMASZ
 40
2.5
  9
$DIMEXO
 40
0.625
  9
$DIMDLI
 40
3.75
  9
$DIMRND
 40
0.0
  9
$DIMDLE
 40
0.0
  9
$DIMEXE
 40
1.25
  9
$DIMTP
 40
0.0
  9
$DIMTM
 40
0.0
  9
$DIMTXT
 40
2.5
  9
$DIMCEN
 40
2.5
  9
$DIMTSZ
 40
0.0
  9
$DIMTOL
 70
0
  9
$DIMLIM
 70
0
  9
$DIMTIH
 70
0
  9
$DIMTOH
 70
0
  9
$DIMSE1
 70
0
  9
$DIMSE2
 70
0
  9
$DIMTAD
 70
1
  9
$DIMZIN
 70
8
  9
$DIMBLK
  1

  9
$DIMASO
 70
1
  9
$DIMSHO
 70
1
  9
$DIMPOST
  1

  9
$DIMAPOST
  1

  9
$DIMALT
 70
0
  9
$DIMALTD
 70
3
  9
$DIMALTF
 40
0.03937007874
  9
$DIMLFAC
 40
1.0
  9
$DIMTOFL
 70
1
  9
$DIMTVP
 40
0.0
  9
$DIMTIX
 70
0
  9
$DIMSOXD
 70
0
  9
$DIMSAH
 70
0
  9
$DIMBLK1
  1

  9
$DIMBLK2
  1

  9
$DIMSTYLE
  2
ISO-25
  9
$DIMCLRD
 70
0
  9
$DIMCLRE
 70
0
  9
$DIMCLRT
 70
0
  9
$DIMTFAC
 40
1.0
  9
$DIMGAP
 40
0.625
  9
$DIMJUST
 70
0
  9
$DIMSD1
 70
0
  9
$DIMSD2
 70
0
  9
$DIMTOLJ
 70
0
  9
$DIMTZIN
 70
8
  9
$DIMALTZ
 70
0
  9
$DIMALTTZ
 70
0
  9
$DIMUPT
 70
0
  9
$DIMDEC
 70
2
  9
$DIMTDEC
 70
2
  9
$DIMALTU
 70
2
  9
$DIMALTTD
 70
3
  9
$DIMTXSTY
  7
Standard
  9
$DIMAUNIT
 70
0
  9
$DIMADEC
 70
0
  9
$DIMALTRND
 40
0.0
  9
$DIMAZIN
 70
0
  9
$DIMDSEP
 70
44
  9
$DIMATFIT
 70
3
  9
$DIMFRAC
 70
0
  9
$DIMLDRBLK
  1

  9
$DIMLUNIT
 70
2
  9
$DIMLWD
 70
-2
  9
$DIMLWE
 70
-2
  9
$DIMTMOVE
 70
0
  9
$LUNITS
 70
2
  9
$LUPREC
 70
4
  9
$SKETCHINC
 40
1.0
  9
$FILLETRAD
 40
10.0
  9
$AUNITS
 70
0
  9
$AUPREC
 70
2
  9
$MENU
  1
.
  9
$ELEVATION
 40
0.0
  9
$PELEVATION
 40
0.0
  9
$THICKNESS
 40
0.0
  9
$LIMCHECK
 70
0
  9
$CHAMFERA
 40
0.0
  9
$CHAMFERB
 40
0.0
  9
$CHAMFERC
 40
0.0
  9
$CHAMFERD
 40
0.0
  9
$SKPOLY
 70
0
  9
$TDCREATE
 40
2461229.600821759
  9
$TDUCREATE
 40
2458532.153996898
  9
$TDUPDATE
 40
2461229.600821759
  9
$TDUUPDATE
 40
2458532.1544311
  9
$TDINDWG
 40
0.0
  9
$TDUSRTIMER
 40
0.0
  9
$USRTIMER
 70
1
  9
$ANGBASE
 50
0.0
  9
$ANGDIR
 70
0
  9
$PDMODE
 70
0
  9
$PDSIZE
 40
0.0
  9
$PLINEWID
 40
0.0
  9
$SPLFRAME
 70
0
  9
$SPLINETYPE
 70
6
  9
$SPLINESEGS
 70
8
  9
$HANDSEED
  5
1B9
  9
$SURFTAB1
 70
6
  9
$SURFTAB2
 70
6
  9
$SURFTYPE
 70
6
  9
$SURFU
 70
6
  9
$SURFV
 70
6
  9
$UCSBASE
  2

  9
$UCSNAME
  2

  9
$UCSORG
 10
0.0
 20
0.0
 30
0.0
  9
$UCSXDIR
 10
1.0
 20
0.0
 30
0.0
  9
$UCSYDIR
 10
0.0
 20
1.0
 30
0.0
  9
$UCSORTHOREF
  2

  9
$UCSORTHOVIEW
 70
0
  9
$UCSORGTOP
 10
0.0
 20
0.0
 30
0.0
  9
$UCSORGBOTTOM
 10
0.0
 20
0.0
 30
0.0
  9
$UCSORGLEFT
 10
0.0
 20
0.0
 30
0.0
  9
$UCSORGRIGHT
 10
0.0
 20
0.0
 30
0.0
  9
$UCSORGFRONT
 10
0.0
 20
0.0
 30
0.0
  9
$UCSORGBACK
 10
0.0
 20
0.0
 30
0.0
  9
$PUCSBASE
  2

  9
$PUCSNAME
  2

  9
$PUCSORG
 10
0.0
 20
0.0
 30
0.0
  9
$PUCSXDIR
 10
1.0
 20
0.0
 30
0.0
  9
$PUCSYDIR
 10
0.0
 20
1.0
 30
0.0
  9
$PUCSORTHOREF
  2

  9
$PUCSORTHOVIEW
 70
0
  9
$PUCSORGTOP
 10
0.0
 20
0.0
 30
0.0
  9
$PUCSORGBOTTOM
 10
0.0
 20
0.0
 30
0.0
  9
$PUCSORGLEFT
 10
0.0
 20
0.0
 30
0.0
  9
$PUCSORGRIGHT
 10
0.0
 20
0.0
 30
0.0
  9
$PUCSORGFRONT
 10
0.0
 20
0.0
 30
0.0
  9
$PUCSORGBACK
 10
0.0
 20
0.0
 30
0.0
  9
$USERI1
 70
0
  9
$USERI2
 70
0
  9
$USERI3
 70
0
  9
$USERI4
 70
0
  9
$USERI5
 70
0
  9
$USERR1
 40
0.0
  9
$USERR2
 40
0.0
  9
$USERR3
 40
0.0
  9
$USERR4
 40
0.0
  9
$USERR5
 40
0.0
  9
$WORLDVIEW
 70
1
  9
$SHADEDGE
 70
3
  9
$SHADEDIF
 70
70
  9
$TILEMODE
 70
1
  9
$MAXACTVP
 70
64
  9
$PINSBASE
 10
0.0
 20
0.0
 30
0.0
  9
$PLIMCHECK
 70
0
  9
$PEXTMIN
 10
1e+20
 20
1e+20
 30
1e+20
  9
$PEXTMAX
 10
-1e+20
 20
-1e+20
 30
-1e+20
  9
$PLIMMIN
 10
0.0
 20
0.0
  9
$PLIMMAX
 10
420.0
 20
297.0
  9
$UNITMODE
 70
0
  9
$VISRETAIN
 70
1
  9
$PLINEGEN
 70
0
  9
$PSLTSCALE
 70
1
  9
$TREEDEPTH
 70
3020
  9
$CMLSTYLE
  2
Standard
  9
$CMLJUST
 70
0
  9
$CMLSCALE
 40
20.0
  9
$PROXYGRAPHICS
 70
1
  9
$MEASUREMENT
 70
1
  9
$CELWEIGHT
370
-1
  9
$ENDCAPS
280
0
  9
$JOINSTYLE
280
0
  9
$LWDISPLAY
290
0
  9
$INSUNITS
 70
6
  9
$HYPERLINKBASE
  1

  9
$STYLESHEET
  1

  9
$XEDIT
290
1
  9
$CEPSNTYPE
380
0
  9
$PSTYLEMODE
290
1
  9
$FINGERPRINTGUID
  2
{366FF737-0A94-4734-B0CF-0AF40CB47ADE}
  9
$VERSIONGUID
  2
{60B1506E-1A9D-4DF4-870D-C0E0C608C539}
  9
$EXTNAMES
290
1
  9
$PSVPSCALE
 40
0.0
  9
$OLESTARTUP
290
0
  0
ENDSEC
  0
SECTION
  2
CLASSES
  0
CLASS
  1
ACDBDICTIONARYWDFLT
  2
AcDbDictionaryWithDefault
  3
ObjectDBX Classes
 90
0
280
0
281
0
  0
CLASS
  1
SUN
  2
AcDbSun
  3
SCENEOE
 90
1153
280
0
281
0
  0
CLASS
  1
VISUALSTYLE
  2
AcDbVisualStyle
  3
ObjectDBX Classes
 90
4095
280
0
281
0
  0
CLASS
  1
MATERIAL
  2
AcDbMaterial
  3
ObjectDBX Classes
 90
1153
280
0
281
0
  0
CLASS
  1
SCALE
  2
AcDbScale
  3
ObjectDBX Classes
 90
1153
280
0
281
0
  0
CLASS
  1
TABLESTYLE
  2
AcDbTableStyle
  3
ObjectDBX Classes
 90
4095
280
0
281
0
  0
CLASS
  1
MLEADERSTYLE
  2
AcDbMLeaderStyle
  3
ACDB_MLEADERSTYLE_CLASS
 90
4095
280
0
281
0
  0
CLASS
  1
DICTIONARYVAR
  2
AcDbDictionaryVar
  3
ObjectDBX Classes
 90
0
280
0
281
0
  0
CLASS
  1
CELLSTYLEMAP
  2
AcDbCellStyleMap
  3
ObjectDBX Classes
 90
1152
280
0
281
0
  0
CLASS
  1
MENTALRAYRENDERSETTINGS
  2
AcDbMentalRayRenderSettings
  3
SCENEOE
 90
1024
280
0
281
0
  0
CLASS
  1
ACDBDETAILVIEWSTYLE
  2
AcDbDetailViewStyle
  3
ObjectDBX Classes
 90
1025
280
0
281
0
  0
CLASS
  1
ACDBSECTIONVIEWSTYLE
  2
AcDbSectionViewStyle
  3
ObjectDBX Classes
 90
1025
280
0
281
0
  0
CLASS
  1
RASTERVARIABLES
  2
AcDbRasterVariables
  3
ISM
 90
0
280
0
281
0
  0
CLASS
  1
ACDBPLACEHOLDER
  2
AcDbPlaceHolder
  3
ObjectDBX Classes
 90
0
280
0
281
0
  0
CLASS
  1
LAYOUT
  2
AcDbLayout
  3
ObjectDBX Classes
 90
0
280
0
281
0
  0
ENDSEC
  0
SECTION
  2
TABLES
  0
TABLE
  2
VPORT
  5
8
330
0
100
AcDbSymbolTable
 70
1
  0
VPORT
  5
23
330
8
100
AcDbSymbolTableRecord
100
AcDbViewportTableRecord
  2
*Active
 70
0
 10
0.0
 20
0.0
 11
1.0
 21
1.0
 12
0.0
 22
0.0
 13
0.0
 23
0.0
 14
0.5
 24
0.5
 15
0.5
 25
0.5
 16
0.0
 26
0.0
 36
1.0
 17
0.0
 27
0.0
 37
0.0
 40
1000.0
 41
1.34
 42
50.0
 43
0.0
 44
0.0
 50
0.0
 51
0.0
 71
0
 72
1000
 73
1
 74
3
 75
0
 76
0
 77
0
 78
0
281
0
 65
0
146
0.0
  0
ENDTAB
  0
TABLE
  2
LTYPE
  5
2
330
0
100
AcDbSymbolTable
 70
3
  0
LTYPE
  5
24
330
2
100
AcDbSymbolTableRecord
100
AcDbLinetypeTableRecord
  2
ByBlock
 70
0
  3

 72
65
 73
0
 40
0.0
  0
LTYPE
  5
25
330
2
100
AcDbSymbolTableRecord
100
AcDbLinetypeTableRecord
  2
ByLayer
 70
0
  3

 72
65
 73
0
 40
0.0
  0
LTYPE
  5
26
330
2
100
AcDbSymbolTableRecord
100
AcDbLinetypeTableRecord
  2
Continuous
 70
0
  3

 72
65
 73
0
 40
0.0
  0
ENDTAB
  0
TABLE
  2
LAYER
  5
1
330
0
100
AcDbSymbolTable
 70
2
  0
LAYER
  5
27
330
1
100
AcDbSymbolTableRecord
100
AcDbLayerTableRecord
  2
0
 70
0
 62
7
  6
Continuous
370
-3
390
13
  0
LAYER
  5
28
330
1
100
AcDbSymbolTableRecord
100
AcDbLayerTableRecord
  2
Defpoints
 70
0
 62
7
  6
Continuous
290
0
370
-3
390
13
  0
ENDTAB
  0
TABLE
  2
STYLE
  5
5
330
0
100
AcDbSymbolTable
 70
1
  0
STYLE
  5
29
330
5
100
AcDbSymbolTableRecord
100
AcDbTextStyleTableRecord
  2
Standard
 70
0
 40
0.0
 41
1.0
 50
0.0
 71
0
 42
2.5
  3
txt
  4

  0
ENDTAB
  0
TABLE
  2
VIEW
  5
7
330
0
100
AcDbSymbolTable
 70
0
  0
ENDTAB
  0
TABLE
  2
UCS
  5
6
330
0
100
AcDbSymbolTable
 70
0
  0
ENDTAB
  0
TABLE
  2
APPID
  5
3
330
0
100
AcDbSymbolTable
 70
3
  0
APPID
  5
2A
330
3
100
AcDbSymbolTableRecord
100
AcDbRegAppTableRecord
  2
ACAD
 70
0
  0
APPID
  5
1B6
330
3
100
AcDbSymbolTableRecord
100
AcDbRegAppTableRecord
  2
HATCHBACKGROUNDCOLOR
 70
0
  0
APPID
  5
1B7
330
3
100
AcDbSymbolTableRecord
100
AcDbRegAppTableRecord
  2
EZDXF
 70
0
  0
ENDTAB
  0
TABLE
  2
DIMSTYLE
  5
4
330
0
100
AcDbSymbolTable
 70
1
100
AcDbDimStyleTable
  0
DIMSTYLE
105
2B
330
4
100
AcDbSymbolTableRecord
100
AcDbDimStyleTableRecord
  2
Standard
 70
0
  3

  4

 40
1.0
 41
2.5
 42
0.625
 43
3.75
 44
1.25
 45
0.0
 46
0.0
 47
0.0
 48
0.0
140
2.5
141
2.5
142
0.0
143
0.03937007874
144
1.0
145
0.0
146
1.0
147
0.625
148
0.0
 71
0
 72
0
 73
0
 74
0
 75
0
 76
0
 77
1
 78
8
 79
3
170
0
171
3
172
1
173
0
174
0
175
0
176
0
177
0
178
0
179
2
271
2
272
2
273
2
274
3
275
0
276
0
277
2
278
44
279
0
280
0
281
0
282
0
283
0
284
8
285
0
286
0
288
0
289
3
371
-2
372
-2
  0
ENDTAB
  0
TABLE
  2
BLOCK_RECORD
  5
9
330
0
100
AcDbSymbolTable
 70
2
  0
BLOCK_RECORD
  5
17
330
9
100
AcDbSymbolTableRecord
100
AcDbBlockTableRecord
  2
*Model_Space
340
1A
  0
BLOCK_RECORD
  5
1B
330
9
100
AcDbSymbolTableRecord
100
AcDbBlockTableRecord
  2
*Paper_Space
340
1E
  0
ENDTAB
  0
ENDSEC
  0
SECTION
  2
BLOCKS
  0
BLOCK
  5
18
330
17
100
AcDbEntity
  8
0
100
AcDbBlockBegin
  2
*Model_Space
 70
0
 10
0.0
 20
0.0
 30
0.0
  3
*Model_Space
  1

  0
ENDBLK
  5
19
330
17
100
AcDbEntity
  8
0
100
AcDbBlockEnd
  0
BLOCK
  5
1C
330
1B
100
AcDbEntity
  8
0
100
AcDbBlockBegin
  2
*Paper_Space
 70
0
 10
0.0
 20
0.0
 30
0.0
  3
*Paper_Space
  1

  0
ENDBLK
  5
1D
330
1B
100
AcDbEntity
  8
0
100
AcDbBlockEnd
  0
ENDSEC
  0
SECTION
  2
ENTITIES
  0
LWPOLYLINE
  5
2F
330
17
100
AcDbEntity
  8
ROADS
100
AcDbPolyline
 90
3
 70
0
 10
629962.6986315359
 20
4839038.507882987
 10
629852.6157537574
 20
4839002.084115277
 10
629854.9836614059
 20
4838995.567495092
  0
LWPOLYLINE
  5
30
330
17
100
AcDbEntity
  8
ROADS
100
AcDbPolyline
 90
2
 70
0
 10
630076.2248224919
 20
4839049.045630822
 10
630068.8113155075
 20
4839072.993722454
  0
LWPOLYLINE
  5
31
330
17
100
AcDbEntity
  8
ROADS
100
AcDbPolyline
 90
2
 70
0
 10
630185.0370753036
 20
4839081.63857123
 10
630177.6111166461
 20
4839105.882075886
  0
LWPOLYLINE
  5
32
330
17
100
AcDbEntity
  8
ROADS
100
AcDbPolyline
 90
2
 70
0
 10
630270.947059689
 20
4839110.236377788
 10
630263.2793268907
 20
4839134.014692422
  0
LWPOLYLINE
  5
33
330
17
100
AcDbEntity
  8
ROADS
100
AcDbPolyline
 90
2
 70
0
 10
630068.8113155075
 20
4839072.993722454
 10
630177.6111166461
 20
4839105.882075886
  0
LWPOLYLINE
  5
34
330
17
100
AcDbEntity
  8
ROADS
100
AcDbPolyline
 90
2
 70
0
 10
630177.6111166461
 20
4839105.882075886
 10
630263.2793268907
 20
4839134.014692422
  0
LWPOLYLINE
  5
35
330
17
100
AcDbEntity
  8
ROADS
100
AcDbPolyline
 90
2
 70
0
 10
630492.8101060988
 20
4839245.500602885
 10
630503.0917795723
 20
4839245.983896335
  0
LWPOLYLINE
  5
36
330
17
100
AcDbEntity
  8
ROADS
100
AcDbPolyline
 90
2
 70
0
 10
630460.0991294578
 20
4839212.814228101
 10
630492.8101060988
 20
4839245.500602885
  0
LWPOLYLINE
  5
37
330
17
100
AcDbEntity
  8
ROADS
100
AcDbPolyline
 90
2
 70
0
 10
630492.8101060988
 20
4839245.500602885
 10
630511.6183397769
 20
4839253.648795538
  0
LWPOLYLINE
  5
38
330
17
100
AcDbEntity
  8
ROADS
100
AcDbPolyline
 90
2
 70
0
 10
629969.1501468027
 20
4839017.962375744
 10
629962.6986315359
 20
4839038.507882987
  0
LWPOLYLINE
  5
39
330
17
100
AcDbEntity
  8
ROADS
100
AcDbPolyline
 90
2
 70
0
 10
629962.6986315359
 20
4839038.507882987
 10
630068.8113155075
 20
4839072.993722454
  0
LWPOLYLINE
  5
3A
330
17
100
AcDbEntity
  8
ROADS
100
AcDbPolyline
 90
2
 70
0
 10
630025.1910949874
 20
4839538.971556499
 10
630040.4202216112
 20
4839536.840398615
  0
LWPOLYLINE
  5
3B
330
17
100
AcDbEntity
  8
ROADS
100
AcDbPolyline
 90
2
 70
0
 10
630040.4202216112
 20
4839536.840398615
 10
630028.4584121418
 20
4839577.662390766
  0
LWPOLYLINE
  5
3C
330
17
100
AcDbEntity
  8
ROADS
100
AcDbPolyline
 90
2
 70
0
 10
630028.4584121418
 20
4839577.662390766
 10
630025.1910949874
 20
4839538.971556499
  0
LWPOLYLINE
  5
3D
330
17
100
AcDbEntity
  8
ROADS
100
AcDbPolyline
 90
3
 70
0
 10
629831.3208004684
 20
4839555.537631349
 10
629816.2030707696
 20
4839584.541180525
 10
629778.9371201834
 20
4839592.5205968125
  0
LWPOLYLINE
  5
3E
330
17
100
AcDbEntity
  8
ROADS
100
AcDbPolyline
 90
2
 70
0
 10
629778.9371201834
 20
4839592.5205968125
 10
629714.5633687767
 20
4839572.026648299
  0
LWPOLYLINE
  5
3F
330
17
100
AcDbEntity
  8
ROADS
100
AcDbPolyline
 90
2
 70
0
 10
629831.3208004684
 20
4839555.537631349
 10
630017.8457064093
 20
4839614.088975569
  0
LWPOLYLINE
  5
40
330
17
100
AcDbEntity
  8
ROADS
100
AcDbPolyline
 90
2
 70
0
 10
630028.4584121418
 20
4839577.662390766
 10
630017.8457064093
 20
4839614.088975569
  0
LWPOLYLINE
  5
41
330
17
100
AcDbEntity
  8
ROADS
100
AcDbPolyline
 90
3
 70
0
 10
629778.9371201834
 20
4839592.5205968125
 10
629739.599864805
 20
4839606.423954024
 10
629690.2308053348
 20
4839657.425411047
  0
LWPOLYLINE
  5
42
330
17
100
AcDbEntity
  8
ROADS
100
AcDbPolyline
 90
2
 70
0
 10
630263.2793268907
 20
4839134.014692422
 10
630408.0984851124
 20
4839177.727201566
  0
LWPOLYLINE
  5
43
330
17
100
AcDbEntity
  8
ROADS
100
AcDbPolyline
 90
2
 70
0
 10
630177.6111166461
 20
4839105.882075886
 10
630040.4202216112
 20
4839536.840398615
  0
LWPOLYLINE
  5
44
330
17
100
AcDbEntity
  8
ROADS
100
AcDbPolyline
 90
11
 70
0
 10
630040.4202216112
 20
4839536.840398615
 10
630113.7924746072
 20
4839526.416452571
 10
630213.08714562
 20
4839474.307969267
 10
630237.188885651
 20
4839444.399833128
 10
630234.7832901545
 20
4839389.916441064
 10
630286.8077851444
 20
4839356.9251802685
 10
630320.1032775498
 20
4839396.555301227
 10
630342.4815466388
 20
4839400.885420189
 10
630433.1292989117
 20
4839323.587640534
 10
630447.4425677957
 20
4839365.864589993
 10
630492.8101060988
 20
4839245.500602885
  0
LWPOLYLINE
  5
45
330
17
100
AcDbEntity
  8
ROADS
100
AcDbPolyline
 90
2
 70
0
 10
630017.8457064093
 20
4839614.088975569
 10
630647.4482972592
 20
4839809.905691558
  0
LWPOLYLINE
  5
46
330
17
100
AcDbEntity
  8
ROADS
100
AcDbPolyline
 90
2
 70
0
 10
630027.8987131589
 20
4839750.499457154
 10
630069.0499783418
 20
4839763.469819412
  0
LWPOLYLINE
  5
47
330
17
100
AcDbEntity
  8
ROADS
100
AcDbPolyline
 90
2
 70
0
 10
630069.0499783418
 20
4839763.469819412
 10
630387.0372522278
 20
4839861.882415596
  0
LWPOLYLINE
  5
48
330
17
100
AcDbEntity
  8
ROADS
100
AcDbPolyline
 90
3
 70
0
 10
630069.0499783418
 20
4839763.469819412
 10
630057.7955378883
 20
4839819.44617458
 10
630330.2125264683
 20
4839904.592463127
  0
LWPOLYLINE
  5
49
330
17
100
AcDbEntity
  8
ROADS
100
AcDbPolyline
 90
2
 70
0
 10
629993.6811812727
 20
4839858.573058756
 10
630269.40512102
 20
4839945.666328703
  0
LWPOLYLINE
  5
4A
330
17
100
AcDbEntity
  8
ROADS
100
AcDbPolyline
 90
2
 70
0
 10
630387.0372522278
 20
4839861.882415596
 10
630352.1233275271
 20
4839970.1645388715
  0
LWPOLYLINE
  5
4B
330
17
100
AcDbEntity
  8
ROADS
100
AcDbPolyline
 90
2
 70
0
 10
630269.40512102
 20
4839945.666328703
 10
630352.1233275271
 20
4839970.1645388715
  0
LWPOLYLINE
  5
4C
330
17
100
AcDbEntity
  8
ROADS
100
AcDbPolyline
 90
2
 70
0
 10
630017.8457064093
 20
4839614.088975569
 10
629995.2125822187
 20
4839741.258498675
  0
LWPOLYLINE
  5
4D
330
17
100
AcDbEntity
  8
ROADS
100
AcDbPolyline
 90
2
 70
0
 10
629690.2308053348
 20
4839657.425411047
 10
629995.2125822187
 20
4839741.258498675
  0
LWPOLYLINE
  5
4E
330
17
100
AcDbEntity
  8
ROADS
100
AcDbPolyline
 90
2
 70
0
 10
629995.2125822187
 20
4839741.258498675
 10
630027.8987131589
 20
4839750.499457154
  0
LWPOLYLINE
  5
4F
330
17
100
AcDbEntity
  8
ROADS
100
AcDbPolyline
 90
2
 70
0
 10
629659.9182453085
 20
4839755.126835224
 10
629759.2780243226
 20
4839785.42641653
  0
LWPOLYLINE
  5
50
330
17
100
AcDbEntity
  8
ROADS
100
AcDbPolyline
 90
2
 70
0
 10
629995.2125822187
 20
4839741.258498675
 10
629972.9523036631
 20
4839852.294615
  0
LWPOLYLINE
  5
51
330
17
100
AcDbEntity
  8
ROADS
100
AcDbPolyline
 90
2
 70
0
 10
629759.2780243226
 20
4839785.42641653
 10
629852.1835362604
 20
4839814.5011674855
  0
LWPOLYLINE
  5
52
330
17
100
AcDbEntity
  8
ROADS
100
AcDbPolyline
 90
2
 70
0
 10
629759.2780243226
 20
4839785.42641653
 10
629747.882748191
 20
4839823.317910723
  0
LWPOLYLINE
  5
53
330
17
100
AcDbEntity
  8
ROADS
100
AcDbPolyline
 90
2
 70
0
 10
630027.8987131589
 20
4839750.499457154
 10
629993.6811812727
 20
4839858.573058756
  0
LWPOLYLINE
  5
54
330
17
100
AcDbEntity
  8
ROADS
100
AcDbPolyline
 90
2
 70
0
 10
629747.882748191
 20
4839823.317910723
 10
629761.1517455898
 20
4839827.570252793
  0
LWPOLYLINE
  5
55
330
17
100
AcDbEntity
  8
ROADS
100
AcDbPolyline
 90
2
 70
0
 10
629852.1835362604
 20
4839814.5011674855
 10
629972.9523036631
 20
4839852.294615
  0
LWPOLYLINE
  5
56
330
17
100
AcDbEntity
  8
ROADS
100
AcDbPolyline
 90
8
 70
0
 10
629335.322276089
 20
4839339.402263223
 10
629353.5632844329
 20
4839326.203325663
 10
629426.0120834173
 20
4839324.222733282
 10
629501.7272769453
 20
4839348.437032624
 10
629674.0378142874
 20
4839349.95111427
 10
629779.2551615409
 20
4839428.4488997
 10
629934.9536136405
 20
4839466.783103167
 10
630025.1910949874
 20
4839538.971556499
  0
LWPOLYLINE
  5
57
330
17
100
AcDbEntity
  8
ROADS
100
AcDbPolyline
 90
3
 70
0
 10
629335.322276089
 20
4839339.402263223
 10
629925.0797898917
 20
4839527.487752161
 10
630025.1910949874
 20
4839538.971556499
  0
LWPOLYLINE
  5
58
330
17
100
AcDbEntity
  8
ROADS
100
AcDbPolyline
 90
2
 70
0
 10
629317.4958065959
 20
4839396.576706432
 10
629831.3208004684
 20
4839555.537631349
  0
LWPOLYLINE
  5
59
330
17
100
AcDbEntity
  8
ROADS
100
AcDbPolyline
 90
2
 70
0
 10
629279.4859900951
 20
4839149.341201963
 10
629250.8062914147
 20
4839311.662537443
  0
LWPOLYLINE
  5
5A
330
17
100
AcDbEntity
  8
ROADS
100
AcDbPolyline
 90
2
 70
0
 10
629250.8062914147
 20
4839311.662537443
 10
629248.869334852
 20
4839321.935200059
  0
LWPOLYLINE
  5
5B
330
17
100
AcDbEntity
  8
ROADS
100
AcDbPolyline
 90
2
 70
0
 10
629272.1253394927
 20
4839325.450123345
 10
629250.8062914147
 20
4839311.662537443
  0
LWPOLYLINE
  5
5C
330
17
100
AcDbEntity
  8
ROADS
100
AcDbPolyline
 90
2
 70
0
 10
629248.869334852
 20
4839321.935200059
 10
629272.1253394927
 20
4839325.450123345
  0
LWPOLYLINE
  5
5D
330
17
100
AcDbEntity
  8
ROADS
100
AcDbPolyline
 90
2
 70
0
 10
629272.1253394927
 20
4839325.450123345
 10
629335.322276089
 20
4839339.402263223
  0
LWPOLYLINE
  5
5E
330
17
100
AcDbEntity
  8
ROADS
100
AcDbPolyline
 90
2
 70
0
 10
629248.869334852
 20
4839321.935200059
 10
629240.9571418196
 20
4839371.724469192
  0
LWPOLYLINE
  5
5F
330
17
100
AcDbEntity
  8
ROADS
100
AcDbPolyline
 90
3
 70
0
 10
629248.869334852
 20
4839321.935200059
 10
629158.94109818
 20
4839318.735249476
 10
629097.1718731051
 20
4839339.185870648
  0
LWPOLYLINE
  5
60
330
17
100
AcDbEntity
  8
ROADS
100
AcDbPolyline
 90
2
 70
0
 10
629317.4958065959
 20
4839396.576706432
 10
629335.322276089
 20
4839339.402263223
  0
LWPOLYLINE
  5
61
330
17
100
AcDbEntity
  8
ROADS
100
AcDbPolyline
 90
2
 70
0
 10
629240.9571418196
 20
4839371.724469192
 10
629317.4958065959
 20
4839396.576706432
  0
LWPOLYLINE
  5
62
330
17
100
AcDbEntity
  8
ROADS
100
AcDbPolyline
 90
2
 70
0
 10
629018.4262621178
 20
4839485.300066667
 10
629020.1225395441
 20
4839502.441533283
  0
LWPOLYLINE
  5
63
330
17
100
AcDbEntity
  8
ROADS
100
AcDbPolyline
 90
2
 70
0
 10
629020.1225395441
 20
4839502.441533283
 10
629011.631008186
 20
4839504.254575419
  0
LWPOLYLINE
  5
64
330
17
100
AcDbEntity
  8
ROADS
100
AcDbPolyline
 90
3
 70
0
 10
629010.344182634
 20
4839521.827953566
 10
629024.2919153231
 20
4839517.582979109
 10
629020.1225395441
 20
4839502.441533283
  0
LWPOLYLINE
  5
65
330
17
100
AcDbEntity
  8
ROADS
100
AcDbPolyline
 90
2
 70
0
 10
629007.3436264525
 20
4839516.21368915
 10
629010.344182634
 20
4839521.827953566
  0
LWPOLYLINE
  5
66
330
17
100
AcDbEntity
  8
ROADS
100
AcDbPolyline
 90
2
 70
0
 10
629004.603741232
 20
4839523.856255406
 10
629010.344182634
 20
4839521.827953566
  0
LWPOLYLINE
  5
67
330
17
100
AcDbEntity
  8
ROADS
100
AcDbPolyline
 90
3
 70
0
 10
629086.0046700509
 20
4839575.594281201
 10
629035.8905006496
 20
4839570.496371422
 10
628983.5411816371
 20
4839587.332011797
  0
LWPOLYLINE
  5
68
330
17
100
AcDbEntity
  8
ROADS
100
AcDbPolyline
 90
2
 70
0
 10
629240.9571418196
 20
4839371.724469192
 10
629213.957986127
 20
4839511.048559737
  0
LWPOLYLINE
  5
69
330
17
100
AcDbEntity
  8
ROADS
100
AcDbPolyline
 90
2
 70
0
 10
629317.4958065959
 20
4839396.576706432
 10
629277.4859412267
 20
4839529.367018695
  0
LWPOLYLINE
  5
6A
330
17
100
AcDbEntity
  8
ROADS
100
AcDbPolyline
 90
2
 70
0
 10
629213.957986127
 20
4839511.048559737
 10
629277.4859412267
 20
4839529.367018695
  0
LWPOLYLINE
  5
6B
330
17
100
AcDbEntity
  8
ROADS
100
AcDbPolyline
 90
2
 70
0
 10
629213.957986127
 20
4839511.048559737
 10
629198.13273197
 20
4839613.767275485
  0
LWPOLYLINE
  5
6C
330
17
100
AcDbEntity
  8
ROADS
100
AcDbPolyline
 90
2
 70
0
 10
629198.13273197
 20
4839613.767275485
 10
629086.0046700509
 20
4839575.594281201
  0
LWPOLYLINE
  5
6D
330
17
100
AcDbEntity
  8
ROADS
100
AcDbPolyline
 90
2
 70
0
 10
629198.13273197
 20
4839613.767275485
 10
629182.0658514948
 20
4839726.523293735
  0
LWPOLYLINE
  5
6E
330
17
100
AcDbEntity
  8
ROADS
100
AcDbPolyline
 90
2
 70
0
 10
629182.0658514948
 20
4839726.523293735
 10
629173.453109659
 20
4839778.327008078
  0
LWPOLYLINE
  5
6F
330
17
100
AcDbEntity
  8
ROADS
100
AcDbPolyline
 90
2
 70
0
 10
629132.7341030373
 20
4839767.45063866
 10
629037.1938003546
 20
4839737.757253204
  0
LWPOLYLINE
  5
70
330
17
100
AcDbEntity
  8
ROADS
100
AcDbPolyline
 90
2
 70
0
 10
629173.453109659
 20
4839778.327008078
 10
629132.7341030373
 20
4839767.45063866
  0
LWPOLYLINE
  5
71
330
17
100
AcDbEntity
  8
ROADS
100
AcDbPolyline
 90
2
 70
0
 10
629132.7341030373
 20
4839767.45063866
 10
629121.7301150532
 20
4839802.95197896
  0
LWPOLYLINE
  5
72
330
17
100
AcDbEntity
  8
ROADS
100
AcDbPolyline
 90
2
 70
0
 10
629086.0046700509
 20
4839575.594281201
 10
629037.1938003546
 20
4839737.757253204
  0
LWPOLYLINE
  5
73
330
17
100
AcDbEntity
  8
ROADS
100
AcDbPolyline
 90
2
 70
0
 10
629037.1938003546
 20
4839737.757253204
 10
628948.7871874312
 20
4839710.636435858
  0
LWPOLYLINE
  5
74
330
17
100
AcDbEntity
  8
ROADS
100
AcDbPolyline
 90
2
 70
0
 10
629037.1938003546
 20
4839737.757253204
 10
629002.5252496314
 20
4839851.031727672
  0
LWPOLYLINE
  5
75
330
17
100
AcDbEntity
  8
ROADS
100
AcDbPolyline
 90
2
 70
0
 10
629041.0053619638
 20
4839862.445636157
 10
629002.5252496314
 20
4839851.031727672
  0
LWPOLYLINE
  5
76
330
17
100
AcDbEntity
  8
ROADS
100
AcDbPolyline
 90
2
 70
0
 10
629002.5252496314
 20
4839851.031727672
 10
628985.2353674868
 20
4839908.171793395
  0
LWPOLYLINE
  5
77
330
17
100
AcDbEntity
  8
ROADS
100
AcDbPolyline
 90
2
 70
0
 10
629277.4859412267
 20
4839529.367018695
 10
629690.2308053348
 20
4839657.425411047
  0
LWPOLYLINE
  5
78
330
17
100
AcDbEntity
  8
ROADS
100
AcDbPolyline
 90
2
 70
0
 10
629198.13273197
 20
4839613.767275485
 10
629659.9182453085
 20
4839755.126835224
  0
LWPOLYLINE
  5
79
330
17
100
AcDbEntity
  8
ROADS
100
AcDbPolyline
 90
2
 70
0
 10
629690.2308053348
 20
4839657.425411047
 10
629659.9182453085
 20
4839755.126835224
  0
LWPOLYLINE
  5
7A
330
17
100
AcDbEntity
  8
ROADS
100
AcDbPolyline
 90
2
 70
0
 10
629182.0658514948
 20
4839726.523293735
 10
629726.824491695
 20
4839893.341829306
  0
LWPOLYLINE
  5
7B
330
17
100
AcDbEntity
  8
ROADS
100
AcDbPolyline
 90
2
 70
0
 10
629408.1066770402
 20
4839907.534906445
 10
629516.8899693923
 20
4839941.043214339
  0
LWPOLYLINE
  5
7C
330
17
100
AcDbEntity
  8
ROADS
100
AcDbPolyline
 90
2
 70
0
 10
629516.8899693923
 20
4839941.043214339
 10
629535.7032533715
 20
4839990.34997312
  0
LWPOLYLINE
  5
7D
330
17
100
AcDbEntity
  8
ROADS
100
AcDbPolyline
 90
2
 70
0
 10
629516.8899693923
 20
4839941.043214339
 10
629715.2856298805
 20
4840000.635550657
  0
LWPOLYLINE
  5
7E
330
17
100
AcDbEntity
  8
ROADS
100
AcDbPolyline
 90
3
 70
0
 10
629516.8899693923
 20
4839941.043214339
 10
629454.7120885096
 20
4839983.417267607
 10
629387.5044586102
 20
4840058.702569679
  0
LWPOLYLINE
  5
7F
330
17
100
AcDbEntity
  8
ROADS
100
AcDbPolyline
 90
2
 70
0
 10
629535.7032533715
 20
4839990.34997312
 10
629551.1428068643
 20
4840032.719222527
  0
LWPOLYLINE
  5
80
330
17
100
AcDbEntity
  8
ROADS
100
AcDbPolyline
 90
2
 70
0
 10
629535.7032533715
 20
4839990.34997312
 10
629706.3239590172
 20
4840032.974173695
  0
LWPOLYLINE
  5
81
330
17
100
AcDbEntity
  8
ROADS
100
AcDbPolyline
 90
2
 70
0
 10
629173.453109659
 20
4839778.327008078
 10
629164.5071574381
 20
4839833.788940544
  0
LWPOLYLINE
  5
82
330
17
100
AcDbEntity
  8
ROADS
100
AcDbPolyline
 90
2
 70
0
 10
629164.5071574381
 20
4839833.788940544
 10
629154.7443533401
 20
4839897.751670228
  0
LWPOLYLINE
  5
83
330
17
100
AcDbEntity
  8
ROADS
100
AcDbPolyline
 90
2
 70
0
 10
629164.5071574381
 20
4839833.788940544
 10
629408.1066770402
 20
4839907.534906445
  0
LWPOLYLINE
  5
84
330
17
100
AcDbEntity
  8
ROADS
100
AcDbPolyline
 90
2
 70
0
 10
629154.7443533401
 20
4839897.751670228
 10
629091.3383622584
 20
4839878.498290741
  0
LWPOLYLINE
  5
85
330
17
100
AcDbEntity
  8
ROADS
100
AcDbPolyline
 90
2
 70
0
 10
629154.7443533401
 20
4839897.751670228
 10
629149.0730609006
 20
4839926.87704979
  0
LWPOLYLINE
  5
86
330
17
100
AcDbEntity
  8
ROADS
100
AcDbPolyline
 90
2
 70
0
 10
629408.1066770402
 20
4839907.534906445
 10
629294.5339167179
 20
4839971.045607059
  0
LWPOLYLINE
  5
87
330
17
100
AcDbEntity
  8
ROADS
100
AcDbPolyline
 90
2
 70
0
 10
629149.0730609006
 20
4839926.87704979
 10
629294.5339167179
 20
4839971.045607059
  0
LWPOLYLINE
  5
88
330
17
100
AcDbEntity
  8
ROADS
100
AcDbPolyline
 90
2
 70
0
 10
629149.0730609006
 20
4839926.87704979
 10
629136.3737937858
 20
4840000.471303904
  0
LWPOLYLINE
  5
89
330
17
100
AcDbEntity
  8
ROADS
100
AcDbPolyline
 90
2
 70
0
 10
629091.7138685598
 20
4839987.1994501855
 10
629097.7188162721
 20
4839948.034432216
  0
LWPOLYLINE
  5
8A
330
17
100
AcDbEntity
  8
ROADS
100
AcDbPolyline
 90
2
 70
0
 10
629294.5339167179
 20
4839971.045607059
 10
629241.1369943604
 20
4840011.909381997
  0
LWPOLYLINE
  5
8B
330
17
100
AcDbEntity
  8
ROADS
100
AcDbPolyline
 90
2
 70
0
 10
628985.2353674868
 20
4839908.171793395
 10
628927.7575109779
 20
4839890.976850474
  0
LWPOLYLINE
  5
8C
330
17
100
AcDbEntity
  8
ROADS
100
AcDbPolyline
 90
2
 70
0
 10
628985.2353674868
 20
4839908.171793395
 10
628972.9098334799
 20
4839949.059568603
  0
LWPOLYLINE
  5
8D
330
17
100
AcDbEntity
  8
ROADS
100
AcDbPolyline
 90
2
 70
0
 10
629091.7138685598
 20
4839987.1994501855
 10
628972.9098334799
 20
4839949.059568603
  0
LWPOLYLINE
  5
8E
330
17
100
AcDbEntity
  8
ROADS
100
AcDbPolyline
 90
2
 70
0
 10
628972.9098334799
 20
4839949.059568603
 10
628948.1148221554
 20
4840030.996516966
  0
LWPOLYLINE
  5
8F
330
17
100
AcDbEntity
  8
ROADS
100
AcDbPolyline
 90
2
 70
0
 10
629036.3554606523
 20
4840058.319757035
 10
628948.1148221554
 20
4840030.996516966
  0
LWPOLYLINE
  5
90
330
17
100
AcDbEntity
  8
ROADS
100
AcDbPolyline
 90
2
 70
0
 10
628948.1148221554
 20
4840030.996516966
 10
628942.0515286593
 20
4840050.802850711
  0
LWPOLYLINE
  5
91
330
17
100
AcDbEntity
  8
ROADS
100
AcDbPolyline
 90
2
 70
0
 10
629067.4908148814
 20
4840153.488483407
 10
628954.4473051912
 20
4840119.914677367
  0
LWPOLYLINE
  5
92
330
17
100
AcDbEntity
  8
ROADS
100
AcDbPolyline
 90
2
 70
0
 10
629136.3737937858
 20
4840000.471303904
 10
629091.7138685598
 20
4839987.1994501855
  0
LWPOLYLINE
  5
93
330
17
100
AcDbEntity
  8
ROADS
100
AcDbPolyline
 90
3
 70
0
 10
629091.7138685598
 20
4839987.1994501855
 10
629078.6671650396
 20
4840070.710075695
 10
629122.5674398912
 20
4840080.532462755
  0
LWPOLYLINE
  5
94
330
17
100
AcDbEntity
  8
ROADS
100
AcDbPolyline
 90
2
 70
0
 10
629241.1369943604
 20
4840011.909381997
 10
629387.5044586102
 20
4840058.702569679
  0
LWPOLYLINE
  5
95
330
17
100
AcDbEntity
  8
ROADS
100
AcDbPolyline
 90
2
 70
0
 10
629136.3737937858
 20
4840000.471303904
 10
629122.5674398912
 20
4840080.532462755
  0
LWPOLYLINE
  5
96
330
17
100
AcDbEntity
  8
ROADS
100
AcDbPolyline
 90
2
 70
0
 10
629241.1369943604
 20
4840011.909381997
 10
629167.9380456158
 20
4840091.171508342
  0
LWPOLYLINE
  5
97
330
17
100
AcDbEntity
  8
ROADS
100
AcDbPolyline
 90
2
 70
0
 10
629122.5674398912
 20
4840080.532462755
 10
629167.9380456158
 20
4840091.171508342
  0
LWPOLYLINE
  5
98
330
17
100
AcDbEntity
  8
ROADS
100
AcDbPolyline
 90
2
 70
0
 10
629387.5044586102
 20
4840058.702569679
 10
629353.8224300155
 20
4840148.093342012
  0
LWPOLYLINE
  5
99
330
17
100
AcDbEntity
  8
ROADS
100
AcDbPolyline
 90
2
 70
0
 10
629167.9380456158
 20
4840091.171508342
 10
629353.8224300155
 20
4840148.093342012
  0
LWPOLYLINE
  5
9A
330
17
100
AcDbEntity
  8
ROADS
100
AcDbPolyline
 90
2
 70
0
 10
629122.5674398912
 20
4840080.532462755
 10
629108.4160790076
 20
4840165.234688362
  0
LWPOLYLINE
  5
9B
330
17
100
AcDbEntity
  8
ROADS
100
AcDbPolyline
 90
2
 70
0
 10
629353.8224300155
 20
4840148.093342012
 10
629396.0630033363
 20
4840160.741413881
  0
LWPOLYLINE
  5
9C
330
17
100
AcDbEntity
  8
ROADS
100
AcDbPolyline
 90
2
 70
0
 10
628839.7221072016
 20
4840657.806564553
 10
628805.5465378176
 20
4840647.1904118
  0
LWPOLYLINE
  5
9D
330
17
100
AcDbEntity
  8
ROADS
100
AcDbPolyline
 90
2
 70
0
 10
628825.1967536374
 20
4840757.090407191
 10
628803.1457641389
 20
4840750.162280295
  0
LWPOLYLINE
  5
9E
330
17
100
AcDbEntity
  8
ROADS
100
AcDbPolyline
 90
2
 70
0
 10
628822.2673144235
 20
4840813.864207552
 10
628807.7134169432
 20
4840809.436703549
  0
LWPOLYLINE
  5
9F
330
17
100
AcDbEntity
  8
ROADS
100
AcDbPolyline
 90
2
 70
0
 10
628825.1967536374
 20
4840757.090407191
 10
628822.2673144235
 20
4840813.864207552
  0
LWPOLYLINE
  5
A0
330
17
100
AcDbEntity
  8
ROADS
100
AcDbPolyline
 90
2
 70
0
 10
628822.2673144235
 20
4840813.864207552
 10
628818.9838336663
 20
4840881.897506667
  0
LWPOLYLINE
  5
A1
330
17
100
AcDbEntity
  8
ROADS
100
AcDbPolyline
 90
2
 70
0
 10
630765.7314554522
 20
4839846.633178046
 10
630788.5876925355
 20
4839853.764818416
  0
LWPOLYLINE
  5
A2
330
17
100
AcDbEntity
  8
ROADS
100
AcDbPolyline
 90
2
 70
0
 10
630727.0029644766
 20
4839966.3992500305
 10
630790.0696684243
 20
4839986.0384161845
  0
LWPOLYLINE
  5
A3
330
17
100
AcDbEntity
  8
ROADS
100
AcDbPolyline
 90
2
 70
0
 10
630707.5448219745
 20
4840019.891113338
 10
630786.999688363
 20
4840044.556590989
  0
LWPOLYLINE
  5
A4
330
17
100
AcDbEntity
  8
ROADS
100
AcDbPolyline
 90
3
 70
0
 10
629852.1835362604
 20
4839814.5011674855
 10
629859.791400897
 20
4839856.382732452
 10
629875.873589958
 20
4839863.344159977
  0
LWPOLYLINE
  5
A5
330
17
100
AcDbEntity
  8
ROADS
100
AcDbPolyline
 90
2
 70
0
 10
629972.9523036631
 20
4839852.294615
 10
629993.6811812727
 20
4839858.573058756
  0
LWPOLYLINE
  5
A6
330
17
100
AcDbEntity
  8
ROADS
100
AcDbPolyline
 90
2
 70
0
 10
629747.882748191
 20
4839823.317910723
 10
629726.824491695
 20
4839893.341829306
  0
LWPOLYLINE
  5
A7
330
17
100
AcDbEntity
  8
ROADS
100
AcDbPolyline
 90
3
 70
0
 10
629761.1517455898
 20
4839827.570252793
 10
629781.9448261333
 20
4839835.218948421
 10
629788.8961187097
 20
4839897.056520862
  0
LWPOLYLINE
  5
A8
330
17
100
AcDbEntity
  8
ROADS
100
AcDbPolyline
 90
3
 70
0
 10
629761.1517455898
 20
4839827.570252793
 10
629747.1939518901
 20
4839882.339564373
 10
629788.8961187097
 20
4839897.056520862
  0
LWPOLYLINE
  5
A9
330
17
100
AcDbEntity
  8
ROADS
100
AcDbPolyline
 90
2
 70
0
 10
629788.8961187097
 20
4839897.056520862
 10
629771.0715280911
 20
4839899.590734507
  0
LWPOLYLINE
  5
AA
330
17
100
AcDbEntity
  8
ROADS
100
AcDbPolyline
 90
3
 70
0
 10
629726.824491695
 20
4839893.341829306
 10
629742.7892724492
 20
4839905.631503305
 10
629734.862214017
 20
4839939.488454397
  0
LWPOLYLINE
  5
AB
330
17
100
AcDbEntity
  8
ROADS
100
AcDbPolyline
 90
2
 70
0
 10
629972.9523036631
 20
4839852.294615
 10
629928.0362631609
 20
4839999.488389633
  0
LWPOLYLINE
  5
AC
330
17
100
AcDbEntity
  8
ROADS
100
AcDbPolyline
 90
2
 70
0
 10
629788.8961187097
 20
4839897.056520862
 10
629803.1035167861
 20
4839960.684492153
  0
LWPOLYLINE
  5
AD
330
17
100
AcDbEntity
  8
ROADS
100
AcDbPolyline
 90
2
 70
0
 10
629829.9336400825
 20
4839969.017461766
 10
629842.3170490576
 20
4839924.490374798
  0
LWPOLYLINE
  5
AE
330
17
100
AcDbEntity
  8
ROADS
100
AcDbPolyline
 90
2
 70
0
 10
630647.4482972592
 20
4839809.905691558
 10
630650.1526102772
 20
4839783.089672931
  0
LWPOLYLINE
  5
AF
330
17
100
AcDbEntity
  8
ROADS
100
AcDbPolyline
 90
2
 70
0
 10
630647.4482972592
 20
4839809.905691558
 10
630765.7314554522
 20
4839846.633178046
  0
LWPOLYLINE
  5
B0
330
17
100
AcDbEntity
  8
ROADS
100
AcDbPolyline
 90
2
 70
0
 10
630387.0372522278
 20
4839861.882415596
 10
630513.179113873
 20
4839902.079314219
  0
LWPOLYLINE
  5
B1
330
17
100
AcDbEntity
  8
ROADS
100
AcDbPolyline
 90
2
 70
0
 10
630765.7314554522
 20
4839846.633178046
 10
630727.0029644766
 20
4839966.3992500305
  0
LWPOLYLINE
  5
B2
330
17
100
AcDbEntity
  8
ROADS
100
AcDbPolyline
 90
2
 70
0
 10
630513.179113873
 20
4839902.079314219
 10
630647.3672361693
 20
4839944.009932818
  0
LWPOLYLINE
  5
B3
330
17
100
AcDbEntity
  8
ROADS
100
AcDbPolyline
 90
2
 70
0
 10
630647.3672361693
 20
4839944.009932818
 10
630727.0029644766
 20
4839966.3992500305
  0
LWPOLYLINE
  5
B4
330
17
100
AcDbEntity
  8
ROADS
100
AcDbPolyline
 90
2
 70
0
 10
630513.179113873
 20
4839902.079314219
 10
630480.0156620614
 20
4840009.484079487
  0
LWPOLYLINE
  5
B5
330
17
100
AcDbEntity
  8
ROADS
100
AcDbPolyline
 90
2
 70
0
 10
630727.0029644766
 20
4839966.3992500305
 10
630707.5448219745
 20
4840019.891113338
  0
LWPOLYLINE
  5
B6
330
17
100
AcDbEntity
  8
ROADS
100
AcDbPolyline
 90
2
 70
0
 10
630391.9814790562
 20
4839983.38656412
 10
630480.0156620614
 20
4840009.484079487
  0
LWPOLYLINE
  5
B7
330
17
100
AcDbEntity
  8
ROADS
100
AcDbPolyline
 90
2
 70
0
 10
630647.3672361693
 20
4839944.009932818
 10
630611.7654460894
 20
4840049.874513102
  0
LWPOLYLINE
  5
B8
330
17
100
AcDbEntity
  8
ROADS
100
AcDbPolyline
 90
2
 70
0
 10
629734.862214017
 20
4839939.488454397
 10
629803.1035167861
 20
4839960.684492153
  0
LWPOLYLINE
  5
B9
330
17
100
AcDbEntity
  8
ROADS
100
AcDbPolyline
 90
2
 70
0
 10
629803.1035167861
 20
4839960.684492153
 10
629829.9336400825
 20
4839969.017461766
  0
LWPOLYLINE
  5
BA
330
17
100
AcDbEntity
  8
ROADS
100
AcDbPolyline
 90
2
 70
0
 10
629734.862214017
 20
4839939.488454397
 10
629715.2856298805
 20
4840000.635550657
  0
LWPOLYLINE
  5
BB
330
17
100
AcDbEntity
  8
ROADS
100
AcDbPolyline
 90
2
 70
0
 10
629829.9336400825
 20
4839969.017461766
 10
629928.0362631609
 20
4839999.488389633
  0
LWPOLYLINE
  5
BC
330
17
100
AcDbEntity
  8
ROADS
100
AcDbPolyline
 90
2
 70
0
 10
629715.2856298805
 20
4840000.635550657
 10
629706.3239590172
 20
4840032.974173695
  0
LWPOLYLINE
  5
BD
330
17
100
AcDbEntity
  8
ROADS
100
AcDbPolyline
 90
2
 70
0
 10
629928.0362631609
 20
4839999.488389633
 10
630111.6531882357
 20
4840055.81523044
  0
LWPOLYLINE
  5
BE
330
17
100
AcDbEntity
  8
ROADS
100
AcDbPolyline
 90
2
 70
0
 10
629706.3239590172
 20
4840032.974173695
 10
629780.7088720556
 20
4840055.651978697
  0
LWPOLYLINE
  5
BF
330
17
100
AcDbEntity
  8
ROADS
100
AcDbPolyline
 90
2
 70
0
 10
629928.0362631609
 20
4839999.488389633
 10
629899.1372906198
 20
4840090.467956294
  0
LWPOLYLINE
  5
C0
330
17
100
AcDbEntity
  8
ROADS
100
AcDbPolyline
 90
2
 70
0
 10
629780.7088720556
 20
4840055.651978697
 10
629899.1372906198
 20
4840090.467956294
  0
LWPOLYLINE
  5
C1
330
17
100
AcDbEntity
  8
ROADS
100
AcDbPolyline
 90
2
 70
0
 10
629780.7088720556
 20
4840055.651978697
 10
629740.93361612
 20
4840096.250218802
  0
LWPOLYLINE
  5
C2
330
17
100
AcDbEntity
  8
ROADS
100
AcDbPolyline
 90
2
 70
0
 10
630391.9814790562
 20
4839983.38656412
 10
630374.8435128268
 20
4840041.079648651
  0
LWPOLYLINE
  5
C3
330
17
100
AcDbEntity
  8
ROADS
100
AcDbPolyline
 90
2
 70
0
 10
630480.0156620614
 20
4840009.484079487
 10
630557.8654648409
 20
4840035.397346297
  0
LWPOLYLINE
  5
C4
330
17
100
AcDbEntity
  8
ROADS
100
AcDbPolyline
 90
2
 70
0
 10
630557.8654648409
 20
4840035.397346297
 10
630611.7654460894
 20
4840049.874513102
  0
LWPOLYLINE
  5
C5
330
17
100
AcDbEntity
  8
ROADS
100
AcDbPolyline
 90
2
 70
0
 10
630707.5448219745
 20
4840019.891113338
 10
630687.9648154959
 20
4840075.253901573
  0
LWPOLYLINE
  5
C6
330
17
100
AcDbEntity
  8
ROADS
100
AcDbPolyline
 90
2
 70
0
 10
630611.7654460894
 20
4840049.874513102
 10
630630.4669822947
 20
4840057.713415931
  0
LWPOLYLINE
  5
C7
330
17
100
AcDbEntity
  8
ROADS
100
AcDbPolyline
 90
2
 70
0
 10
630630.4669822947
 20
4840057.713415931
 10
630687.9648154959
 20
4840075.253901573
  0
LWPOLYLINE
  5
C8
330
17
100
AcDbEntity
  8
ROADS
100
AcDbPolyline
 90
3
 70
0
 10
630480.0156620614
 20
4840009.484079487
 10
630462.4553508328
 20
4840061.169105474
 10
630377.6159818721
 20
4840136.634647764
  0
LWPOLYLINE
  5
C9
330
17
100
AcDbEntity
  8
ROADS
100
AcDbPolyline
 90
2
 70
0
 10
630630.4669822947
 20
4840057.713415931
 10
630613.0709742948
 20
4840115.903905598
  0
LWPOLYLINE
  5
CA
330
17
100
AcDbEntity
  8
ROADS
100
AcDbPolyline
 90
2
 70
0
 10
630687.9648154959
 20
4840075.253901573
 10
630778.614660164
 20
4840101.479088366
  0
LWPOLYLINE
  5
CB
330
17
100
AcDbEntity
  8
ROADS
100
AcDbPolyline
 90
2
 70
0
 10
630557.8654648409
 20
4840035.397346297
 10
630512.9748457401
 20
4840176.0923470985
  0
LWPOLYLINE
  5
CC
330
17
100
AcDbEntity
  8
ROADS
100
AcDbPolyline
 90
2
 70
0
 10
630352.1233275271
 20
4839970.1645388715
 10
630391.9814790562
 20
4839983.38656412
  0
LWPOLYLINE
  5
CD
330
17
100
AcDbEntity
  8
ROADS
100
AcDbPolyline
 90
2
 70
0
 10
630269.40512102
 20
4839945.666328703
 10
630224.0134180845
 20
4840089.850402416
  0
LWPOLYLINE
  5
CE
330
17
100
AcDbEntity
  8
ROADS
100
AcDbPolyline
 90
2
 70
0
 10
630124.3477848733
 20
4840014.0439340025
 10
630111.6531882357
 20
4840055.81523044
  0
LWPOLYLINE
  5
CF
330
17
100
AcDbEntity
  8
ROADS
100
AcDbPolyline
 90
2
 70
0
 10
630111.6531882357
 20
4840055.81523044
 10
630224.0134180845
 20
4840089.850402416
  0
LWPOLYLINE
  5
D0
330
17
100
AcDbEntity
  8
ROADS
100
AcDbPolyline
 90
2
 70
0
 10
630111.6531882357
 20
4840055.81523044
 10
630084.4317771082
 20
4840146.879198284
  0
LWPOLYLINE
  5
D1
330
17
100
AcDbEntity
  8
ROADS
100
AcDbPolyline
 90
2
 70
0
 10
630224.0134180845
 20
4840089.850402416
 10
630377.6159818721
 20
4840136.634647764
  0
LWPOLYLINE
  5
D2
330
17
100
AcDbEntity
  8
ROADS
100
AcDbPolyline
 90
2
 70
0
 10
630084.4317771082
 20
4840146.879198284
 10
630078.526683166
 20
4840166.925782934
  0
LWPOLYLINE
  5
D3
330
17
100
AcDbEntity
  8
ROADS
100
AcDbPolyline
 90
2
 70
0
 10
630377.6159818721
 20
4840136.634647764
 10
630290.7986013504
 20
4840208.224089518
  0
LWPOLYLINE
  5
D4
330
17
100
AcDbEntity
  8
ROADS
100
AcDbPolyline
 90
2
 70
0
 10
630084.4317771082
 20
4840146.879198284
 10
630290.7986013504
 20
4840208.224089518
  0
LWPOLYLINE
  5
D5
330
17
100
AcDbEntity
  8
ROADS
100
AcDbPolyline
 90
2
 70
0
 10
630078.526683166
 20
4840166.925782934
 10
630270.564837913
 20
4840225.1002269415
  0
LWPOLYLINE
  5
D6
330
17
100
AcDbEntity
  8
ROADS
100
AcDbPolyline
 90
2
 70
0
 10
629899.1372906198
 20
4840090.467956294
 10
629991.5410642973
 20
4840118.642662784
  0
LWPOLYLINE
  5
D7
330
17
100
AcDbEntity
  8
ROADS
100
AcDbPolyline
 90
2
 70
0
 10
629740.93361612
 20
4840096.250218802
 10
629665.3831313581
 20
4840145.235799635
  0
LWPOLYLINE
  5
D8
330
17
100
AcDbEntity
  8
ROADS
100
AcDbPolyline
 90
2
 70
0
 10
629740.93361612
 20
4840096.250218802
 10
629761.0340826171
 20
4840150.968184084
  0
LWPOLYLINE
  5
D9
330
17
100
AcDbEntity
  8
ROADS
100
AcDbPolyline
 90
2
 70
0
 10
629991.5410642973
 20
4840118.642662784
 10
630084.4317771082
 20
4840146.879198284
  0
LWPOLYLINE
  5
DA
330
17
100
AcDbEntity
  8
ROADS
100
AcDbPolyline
 90
2
 70
0
 10
629899.1372906198
 20
4840090.467956294
 10
629871.1450627059
 20
4840181.46391345
  0
LWPOLYLINE
  5
DB
330
17
100
AcDbEntity
  8
ROADS
100
AcDbPolyline
 90
2
 70
0
 10
629991.5410642973
 20
4840118.642662784
 10
629973.7791371554
 20
4840178.265519097
  0
LWPOLYLINE
  5
DC
330
17
100
AcDbEntity
  8
ROADS
100
AcDbPolyline
 90
2
 70
0
 10
629761.0340826171
 20
4840150.968184084
 10
629871.1450627059
 20
4840181.46391345
  0
LWPOLYLINE
  5
DD
330
17
100
AcDbEntity
  8
ROADS
100
AcDbPolyline
 90
2
 70
0
 10
629761.0340826171
 20
4840150.968184084
 10
629749.3033202703
 20
4840267.260564575
  0
LWPOLYLINE
  5
DE
330
17
100
AcDbEntity
  8
ROADS
100
AcDbPolyline
 90
3
 70
0
 10
629883.1108047588
 20
4840306.884191085
 10
629927.0401567692
 20
4840163.379883403
 10
629973.7791371554
 20
4840178.265519097
  0
LWPOLYLINE
  5
DF
330
17
100
AcDbEntity
  8
ROADS
100
AcDbPolyline
 90
2
 70
0
 10
629871.1450627059
 20
4840181.46391345
 10
629837.1350741326
 20
4840293.149430573
  0
LWPOLYLINE
  5
E0
330
17
100
AcDbEntity
  8
ROADS
100
AcDbPolyline
 90
4
 70
0
 10
630687.9648154959
 20
4840075.253901573
 10
630682.694679448
 20
4840112.661269637
 10
630700.7205808663
 20
4840161.490928626
 10
630686.816804834
 20
4840228.746263732
  0
LWPOLYLINE
  5
E1
330
17
100
AcDbEntity
  8
ROADS
100
AcDbPolyline
 90
2
 70
0
 10
630377.6159818721
 20
4840136.634647764
 10
630512.9748457401
 20
4840176.0923470985
  0
LWPOLYLINE
  5
E2
330
17
100
AcDbEntity
  8
ROADS
100
AcDbPolyline
 90
2
 70
0
 10
630512.9748457401
 20
4840176.0923470985
 10
630686.816804834
 20
4840228.746263732
  0
LWPOLYLINE
  5
E3
330
17
100
AcDbEntity
  8
ROADS
100
AcDbPolyline
 90
2
 70
0
 10
630686.816804834
 20
4840228.746263732
 10
630764.3033272994
 20
4840251.848037625
  0
LWPOLYLINE
  5
E4
330
17
100
AcDbEntity
  8
ROADS
100
AcDbPolyline
 90
2
 70
0
 10
630382.9403803418
 20
4840236.237108007
 10
630375.9462759537
 20
4840256.611030159
  0
LWPOLYLINE
  5
E5
330
17
100
AcDbEntity
  8
ROADS
100
AcDbPolyline
 90
2
 70
0
 10
630382.9403803418
 20
4840236.237108007
 10
630474.02658407
 20
4840265.1081057
  0
LWPOLYLINE
  5
E6
330
17
100
AcDbEntity
  8
ROADS
100
AcDbPolyline
 90
2
 70
0
 10
630686.816804834
 20
4840228.746263732
 10
630658.4055182978
 20
4840320.677910348
  0
LWPOLYLINE
  5
E7
330
17
100
AcDbEntity
  8
ROADS
100
AcDbPolyline
 90
2
 70
0
 10
630474.02658407
 20
4840265.1081057
 10
630565.9883055881
 20
4840292.462849162
  0
LWPOLYLINE
  5
E8
330
17
100
AcDbEntity
  8
ROADS
100
AcDbPolyline
 90
2
 70
0
 10
630565.9883055881
 20
4840292.462849162
 10
630658.4055182978
 20
4840320.677910348
  0
LWPOLYLINE
  5
E9
330
17
100
AcDbEntity
  8
ROADS
100
AcDbPolyline
 90
2
 70
0
 10
630658.4055182978
 20
4840320.677910348
 10
630746.4289563926
 20
4840347.319844754
  0
LWPOLYLINE
  5
EA
330
17
100
AcDbEntity
  8
ROADS
100
AcDbPolyline
 90
2
 70
0
 10
630078.526683166
 20
4840166.925782934
 10
630050.870096799
 20
4840257.719841007
  0
LWPOLYLINE
  5
EB
330
17
100
AcDbEntity
  8
ROADS
100
AcDbPolyline
 90
2
 70
0
 10
630290.7986013504
 20
4840208.224089518
 10
630270.564837913
 20
4840225.1002269415
  0
LWPOLYLINE
  5
EC
330
17
100
AcDbEntity
  8
ROADS
100
AcDbPolyline
 90
2
 70
0
 10
630290.7986013504
 20
4840208.224089518
 10
630382.9403803418
 20
4840236.237108007
  0
LWPOLYLINE
  5
ED
330
17
100
AcDbEntity
  8
ROADS
100
AcDbPolyline
 90
2
 70
0
 10
630270.564837913
 20
4840225.1002269415
 10
630375.9462759537
 20
4840256.611030159
  0
LWPOLYLINE
  5
EE
330
17
100
AcDbEntity
  8
ROADS
100
AcDbPolyline
 90
2
 70
0
 10
630270.564837913
 20
4840225.1002269415
 10
630200.3238260909
 20
4840302.427931906
  0
LWPOLYLINE
  5
EF
330
17
100
AcDbEntity
  8
ROADS
100
AcDbPolyline
 90
2
 70
0
 10
630050.870096799
 20
4840257.719841007
 10
630200.3238260909
 20
4840302.427931906
  0
LWPOLYLINE
  5
F0
330
17
100
AcDbEntity
  8
ROADS
100
AcDbPolyline
 90
2
 70
0
 10
630375.9462759537
 20
4840256.611030159
 10
630347.129249627
 20
4840346.593108948
  0
LWPOLYLINE
  5
F1
330
17
100
AcDbEntity
  8
ROADS
100
AcDbPolyline
 90
2
 70
0
 10
630200.3238260909
 20
4840302.427931906
 10
630347.129249627
 20
4840346.593108948
  0
LWPOLYLINE
  5
F2
330
17
100
AcDbEntity
  8
ROADS
100
AcDbPolyline
 90
2
 70
0
 10
630200.3238260909
 20
4840302.427931906
 10
630141.3523866193
 20
4840385.239886396
  0
LWPOLYLINE
  5
F3
330
17
100
AcDbEntity
  8
ROADS
100
AcDbPolyline
 90
2
 70
0
 10
630023.3466764488
 20
4840349.388355506
 10
630103.5121371096
 20
4840373.719451603
  0
LWPOLYLINE
  5
F4
330
17
100
AcDbEntity
  8
ROADS
100
AcDbPolyline
 90
2
 70
0
 10
629973.7791371554
 20
4840178.265519097
 10
629930.8389318226
 20
4840321.322709371
  0
LWPOLYLINE
  5
F5
330
17
100
AcDbEntity
  8
ROADS
100
AcDbPolyline
 90
2
 70
0
 10
629663.7807114244
 20
4840240.71044275
 10
629749.3033202703
 20
4840267.260564575
  0
LWPOLYLINE
  5
F6
330
17
100
AcDbEntity
  8
ROADS
100
AcDbPolyline
 90
2
 70
0
 10
629749.3033202703
 20
4840267.260564575
 10
629837.1350741326
 20
4840293.149430573
  0
LWPOLYLINE
  5
F7
330
17
100
AcDbEntity
  8
ROADS
100
AcDbPolyline
 90
2
 70
0
 10
629837.1350741326
 20
4840293.149430573
 10
629883.1108047588
 20
4840306.884191085
  0
LWPOLYLINE
  5
F8
330
17
100
AcDbEntity
  8
ROADS
100
AcDbPolyline
 90
2
 70
0
 10
630050.870096799
 20
4840257.719841007
 10
630023.3466764488
 20
4840349.388355506
  0
LWPOLYLINE
  5
F9
330
17
100
AcDbEntity
  8
ROADS
100
AcDbPolyline
 90
2
 70
0
 10
629883.1108047588
 20
4840306.884191085
 10
629930.8389318226
 20
4840321.322709371
  0
LWPOLYLINE
  5
FA
330
17
100
AcDbEntity
  8
ROADS
100
AcDbPolyline
 90
2
 70
0
 10
629930.8389318226
 20
4840321.322709371
 10
630023.3466764488
 20
4840349.388355506
  0
LWPOLYLINE
  5
FB
330
17
100
AcDbEntity
  8
ROADS
100
AcDbPolyline
 90
2
 70
0
 10
629837.1350741326
 20
4840293.149430573
 10
629807.389915437
 20
4840390.654095307
  0
LWPOLYLINE
  5
FC
330
17
100
AcDbEntity
  8
ROADS
100
AcDbPolyline
 90
2
 70
0
 10
629807.389915437
 20
4840390.654095307
 10
630117.9711569473
 20
4840483.654836868
  0
LWPOLYLINE
  5
FD
330
17
100
AcDbEntity
  8
ROADS
100
AcDbPolyline
 90
2
 70
0
 10
629807.389915437
 20
4840390.654095307
 10
629773.6219187815
 20
4840489.7080674805
  0
LWPOLYLINE
  5
FE
330
17
100
AcDbEntity
  8
ROADS
100
AcDbPolyline
 90
2
 70
0
 10
630103.5121371096
 20
4840373.719451603
 10
630141.3523866193
 20
4840385.239886396
  0
LWPOLYLINE
  5
FF
330
17
100
AcDbEntity
  8
ROADS
100
AcDbPolyline
 90
2
 70
0
 10
630347.129249627
 20
4840346.593108948
 10
630321.1733991229
 20
4840439.3391359765
  0
LWPOLYLINE
  5
100
330
17
100
AcDbEntity
  8
ROADS
100
AcDbPolyline
 90
3
 70
0
 10
630103.5121371096
 20
4840373.719451603
 10
630096.7520158306
 20
4840396.471755666
 10
630132.900313513
 20
4840412.68091366
  0
LWPOLYLINE
  5
101
330
17
100
AcDbEntity
  8
ROADS
100
AcDbPolyline
 90
2
 70
0
 10
630141.3523866193
 20
4840385.239886396
 10
630132.900313513
 20
4840412.68091366
  0
LWPOLYLINE
  5
102
330
17
100
AcDbEntity
  8
ROADS
100
AcDbPolyline
 90
2
 70
0
 10
630141.3523866193
 20
4840385.239886396
 10
630321.1733991229
 20
4840439.3391359765
  0
LWPOLYLINE
  5
103
330
17
100
AcDbEntity
  8
ROADS
100
AcDbPolyline
 90
2
 70
0
 10
630132.900313513
 20
4840412.68091366
 10
630117.9711569473
 20
4840483.654836868
  0
LWPOLYLINE
  5
104
330
17
100
AcDbEntity
  8
ROADS
100
AcDbPolyline
 90
2
 70
0
 10
630321.1733991229
 20
4840439.3391359765
 10
630412.399407104
 20
4840466.782610974
  0
LWPOLYLINE
  5
105
330
17
100
AcDbEntity
  8
ROADS
100
AcDbPolyline
 90
2
 70
0
 10
630117.9711569473
 20
4840483.654836868
 10
630093.3749100583
 20
4840583.998927408
  0
LWPOLYLINE
  5
106
330
17
100
AcDbEntity
  8
ROADS
100
AcDbPolyline
 90
2
 70
0
 10
630117.9711569473
 20
4840483.654836868
 10
630561.4444203349
 20
4840616.992059642
  0
LWPOLYLINE
  5
107
330
17
100
AcDbEntity
  8
ROADS
100
AcDbPolyline
 90
2
 70
0
 10
630093.3749100583
 20
4840583.998927408
 10
630196.5055216812
 20
4840616.868200251
  0
LWPOLYLINE
  5
108
330
17
100
AcDbEntity
  8
ROADS
100
AcDbPolyline
 90
2
 70
0
 10
630474.02658407
 20
4840265.1081057
 10
630412.399407104
 20
4840466.782610974
  0
LWPOLYLINE
  5
109
330
17
100
AcDbEntity
  8
ROADS
100
AcDbPolyline
 90
2
 70
0
 10
630565.9883055881
 20
4840292.462849162
 10
630505.2310795498
 20
4840495.468240677
  0
LWPOLYLINE
  5
10A
330
17
100
AcDbEntity
  8
ROADS
100
AcDbPolyline
 90
2
 70
0
 10
630658.4055182978
 20
4840320.677910348
 10
630597.3539939424
 20
4840523.641525421
  0
LWPOLYLINE
  5
10B
330
17
100
AcDbEntity
  8
ROADS
100
AcDbPolyline
 90
2
 70
0
 10
630412.399407104
 20
4840466.782610974
 10
630505.2310795498
 20
4840495.468240677
  0
LWPOLYLINE
  5
10C
330
17
100
AcDbEntity
  8
ROADS
100
AcDbPolyline
 90
2
 70
0
 10
630505.2310795498
 20
4840495.468240677
 10
630597.3539939424
 20
4840523.641525421
  0
LWPOLYLINE
  5
10D
330
17
100
AcDbEntity
  8
ROADS
100
AcDbPolyline
 90
2
 70
0
 10
630597.3539939424
 20
4840523.641525421
 10
630673.7130875973
 20
4840545.212122375
  0
LWPOLYLINE
  5
10E
330
17
100
AcDbEntity
  8
ROADS
100
AcDbPolyline
 90
2
 70
0
 10
630597.3539939424
 20
4840523.641525421
 10
630561.4444203349
 20
4840616.992059642
  0
LWPOLYLINE
  5
10F
330
17
100
AcDbEntity
  8
ROADS
100
AcDbPolyline
 90
2
 70
0
 10
630561.4444203349
 20
4840616.992059642
 10
630619.5874299625
 20
4840634.762912178
  0
LWPOLYLINE
  5
110
330
17
100
AcDbEntity
  8
ROADS
100
AcDbPolyline
 90
2
 70
0
 10
629670.0461949958
 20
4840457.9828993175
 10
629773.6219187815
 20
4840489.7080674805
  0
LWPOLYLINE
  5
111
330
17
100
AcDbEntity
  8
ROADS
100
AcDbPolyline
 90
2
 70
0
 10
629773.6219187815
 20
4840489.7080674805
 10
629880.3941351007
 20
4840521.641102687
  0
LWPOLYLINE
  5
112
330
17
100
AcDbEntity
  8
ROADS
100
AcDbPolyline
 90
2
 70
0
 10
629880.3941351007
 20
4840521.641102687
 10
629987.1630243202
 20
4840552.07399176
  0
LWPOLYLINE
  5
113
330
17
100
AcDbEntity
  8
ROADS
100
AcDbPolyline
 90
2
 70
0
 10
629987.1630243202
 20
4840552.07399176
 10
630093.3749100583
 20
4840583.998927408
  0
LWPOLYLINE
  5
114
330
17
100
AcDbEntity
  8
ROADS
100
AcDbPolyline
 90
2
 70
0
 10
629773.6219187815
 20
4840489.7080674805
 10
629699.0993477398
 20
4840747.313685046
  0
LWPOLYLINE
  5
115
330
17
100
AcDbEntity
  8
ROADS
100
AcDbPolyline
 90
2
 70
0
 10
629880.3941351007
 20
4840521.641102687
 10
629805.6458510791
 20
4840777.099561658
  0
LWPOLYLINE
  5
116
330
17
100
AcDbEntity
  8
ROADS
100
AcDbPolyline
 90
2
 70
0
 10
629987.1630243202
 20
4840552.07399176
 10
629910.232780576
 20
4840808.735130785
  0
LWPOLYLINE
  5
117
330
17
100
AcDbEntity
  8
ROADS
100
AcDbPolyline
 90
2
 70
0
 10
629699.0993477398
 20
4840747.313685046
 10
629805.6458510791
 20
4840777.099561658
  0
LWPOLYLINE
  5
118
330
17
100
AcDbEntity
  8
ROADS
100
AcDbPolyline
 90
2
 70
0
 10
629805.6458510791
 20
4840777.099561658
 10
629880.7209806025
 20
4840800.153553317
  0
LWPOLYLINE
  5
119
330
17
100
AcDbEntity
  8
ROADS
100
AcDbPolyline
 90
2
 70
0
 10
629880.7209806025
 20
4840800.153553317
 10
629910.232780576
 20
4840808.735130785
  0
LWPOLYLINE
  5
11A
330
17
100
AcDbEntity
  8
ROADS
100
AcDbPolyline
 90
2
 70
0
 10
630196.5055216812
 20
4840616.868200251
 10
630303.5273473591
 20
4840647.310723747
  0
LWPOLYLINE
  5
11B
330
17
100
AcDbEntity
  8
ROADS
100
AcDbPolyline
 90
2
 70
0
 10
630303.5273473591
 20
4840647.310723747
 10
630408.9204317176
 20
4840679.723938273
  0
LWPOLYLINE
  5
11C
330
17
100
AcDbEntity
  8
ROADS
100
AcDbPolyline
 90
2
 70
0
 10
630093.3749100583
 20
4840583.998927408
 10
630015.9787550326
 20
4840839.600636183
  0
LWPOLYLINE
  5
11D
330
17
100
AcDbEntity
  8
ROADS
100
AcDbPolyline
 90
2
 70
0
 10
630196.5055216812
 20
4840616.868200251
 10
630121.6004624354
 20
4840871.697999332
  0
LWPOLYLINE
  5
11E
330
17
100
AcDbEntity
  8
ROADS
100
AcDbPolyline
 90
2
 70
0
 10
630303.5273473591
 20
4840647.310723747
 10
630225.0481760388
 20
4840904.39608891
  0
LWPOLYLINE
  5
11F
330
17
100
AcDbEntity
  8
ROADS
100
AcDbPolyline
 90
2
 70
0
 10
630408.9204317176
 20
4840679.723938273
 10
630332.6174863012
 20
4840937.852828472
  0
LWPOLYLINE
  5
120
330
17
100
AcDbEntity
  8
ROADS
100
AcDbPolyline
 90
2
 70
0
 10
630015.9787550326
 20
4840839.600636183
 10
630121.6004624354
 20
4840871.697999332
  0
LWPOLYLINE
  5
121
330
17
100
AcDbEntity
  8
ROADS
100
AcDbPolyline
 90
2
 70
0
 10
630121.6004624354
 20
4840871.697999332
 10
630225.0481760388
 20
4840904.39608891
  0
LWPOLYLINE
  5
122
330
17
100
AcDbEntity
  8
ROADS
100
AcDbPolyline
 90
2
 70
0
 10
630225.0481760388
 20
4840904.39608891
 10
630255.7329697749
 20
4840913.453941843
  0
LWPOLYLINE
  5
123
330
17
100
AcDbEntity
  8
ROADS
100
AcDbPolyline
 90
2
 70
0
 10
630255.7329697749
 20
4840913.453941843
 10
630332.6174863012
 20
4840937.852828472
  0
LWPOLYLINE
  5
124
330
17
100
AcDbEntity
  8
ROADS
100
AcDbPolyline
 90
2
 70
0
 10
630561.4444203349
 20
4840616.992059642
 10
630514.5686338271
 20
4840710.14364495
  0
LWPOLYLINE
  5
125
330
17
100
AcDbEntity
  8
ROADS
100
AcDbPolyline
 90
2
 70
0
 10
630408.9204317176
 20
4840679.723938273
 10
630514.5686338271
 20
4840710.14364495
  0
LWPOLYLINE
  5
126
330
17
100
AcDbEntity
  8
ROADS
100
AcDbPolyline
 90
2
 70
0
 10
630514.5686338271
 20
4840710.14364495
 10
630612.3157194229
 20
4840740.521876959
  0
LWPOLYLINE
  5
127
330
17
100
AcDbEntity
  8
ROADS
100
AcDbPolyline
 90
2
 70
0
 10
630514.5686338271
 20
4840710.14364495
 10
630438.2466935107
 20
4840967.77223049
  0
LWPOLYLINE
  5
128
330
17
100
AcDbEntity
  8
ROADS
100
AcDbPolyline
 90
2
 70
0
 10
630610.6662646532
 20
4840776.081579623
 10
630543.7182317773
 20
4841000.492999983
  0
LWPOLYLINE
  5
129
330
17
100
AcDbEntity
  8
ROADS
100
AcDbPolyline
 90
2
 70
0
 10
630413.1507468452
 20
4840960.816643609
 10
630438.2466935107
 20
4840967.77223049
  0
LWPOLYLINE
  5
12A
330
17
100
AcDbEntity
  8
ROADS
100
AcDbPolyline
 90
2
 70
0
 10
629910.232780576
 20
4840808.735130785
 10
630015.9787550326
 20
4840839.600636183
  0
LWPOLYLINE
  5
12B
330
17
100
AcDbEntity
  8
ROADS
100
AcDbPolyline
 90
2
 70
0
 10
629880.7209806025
 20
4840800.153553317
 10
629839.5576486445
 20
4840933.594106051
  0
LWPOLYLINE
  5
12C
330
17
100
AcDbEntity
  8
ROADS
100
AcDbPolyline
 90
2
 70
0
 10
629659.4293120471
 20
4840880.801194199
 10
629839.5576486445
 20
4840933.594106051
  0
LWPOLYLINE
  5
12D
330
17
100
AcDbEntity
  8
ROADS
100
AcDbPolyline
 90
2
 70
0
 10
629839.5576486445
 20
4840933.594106051
 10
629861.8760677638
 20
4840940.289404859
  0
LWPOLYLINE
  5
12E
330
17
100
AcDbEntity
  8
ROADS
100
AcDbPolyline
 90
2
 70
0
 10
629861.8760677638
 20
4840940.289404859
 10
629839.6070226924
 20
4841015.699750208
  0
LWPOLYLINE
  5
12F
330
17
100
AcDbEntity
  8
ROADS
100
AcDbPolyline
 90
2
 70
0
 10
629861.8760677638
 20
4840940.289404859
 10
630216.2230349605
 20
4841048.117635143
  0
LWPOLYLINE
  5
130
330
17
100
AcDbEntity
  8
ROADS
100
AcDbPolyline
 90
2
 70
0
 10
629839.6070226924
 20
4841015.699750208
 10
629813.999006419
 20
4841108.724401414
  0
LWPOLYLINE
  5
131
330
17
100
AcDbEntity
  8
ROADS
100
AcDbPolyline
 90
2
 70
0
 10
629839.6070226924
 20
4841015.699750208
 10
630193.2813448635
 20
4841122.176786317
  0
LWPOLYLINE
  5
132
330
17
100
AcDbEntity
  8
ROADS
100
AcDbPolyline
 90
2
 70
0
 10
629610.0612999446
 20
4841047.904526707
 10
629813.999006419
 20
4841108.724401414
  0
LWPOLYLINE
  5
133
330
17
100
AcDbEntity
  8
ROADS
100
AcDbPolyline
 90
2
 70
0
 10
629813.999006419
 20
4841108.724401414
 10
630014.0381274242
 20
4841168.738747468
  0
LWPOLYLINE
  5
134
330
17
100
AcDbEntity
  8
ROADS
100
AcDbPolyline
 90
2
 70
0
 10
630438.2466935107
 20
4840967.77223049
 10
630496.2172529966
 20
4840985.325417509
  0
LWPOLYLINE
  5
135
330
17
100
AcDbEntity
  8
ROADS
100
AcDbPolyline
 90
2
 70
0
 10
630496.2172529966
 20
4840985.325417509
 10
630543.7182317773
 20
4841000.492999983
  0
LWPOLYLINE
  5
136
330
17
100
AcDbEntity
  8
ROADS
100
AcDbPolyline
 90
2
 70
0
 10
630543.7182317773
 20
4841000.492999983
 10
630561.3603444626
 20
4841005.188090897
  0
LWPOLYLINE
  5
137
330
17
100
AcDbEntity
  8
ROADS
100
AcDbPolyline
 90
2
 70
0
 10
630496.2172529966
 20
4840985.325417509
 10
630479.4566405122
 20
4841043.764353406
  0
LWPOLYLINE
  5
138
330
17
100
AcDbEntity
  8
ROADS
100
AcDbPolyline
 90
2
 70
0
 10
630413.1507468452
 20
4840960.816643609
 10
630371.8564071103
 20
4841093.586971531
  0
LWPOLYLINE
  5
139
330
17
100
AcDbEntity
  8
ROADS
100
AcDbPolyline
 90
2
 70
0
 10
630479.4566405122
 20
4841043.764353406
 10
630540.7427963194
 20
4841062.4443376195
  0
LWPOLYLINE
  5
13A
330
17
100
AcDbEntity
  8
ROADS
100
AcDbPolyline
 90
2
 70
0
 10
630479.4566405122
 20
4841043.764353406
 10
630462.5672843525
 20
4841101.524905313
  0
LWPOLYLINE
  5
13B
330
17
100
AcDbEntity
  8
ROADS
100
AcDbPolyline
 90
3
 70
0
 10
630371.8564071103
 20
4841093.586971531
 10
630423.142000249
 20
4841109.508098827
 10
630462.5672843525
 20
4841101.524905313
  0
LWPOLYLINE
  5
13C
330
17
100
AcDbEntity
  8
ROADS
100
AcDbPolyline
 90
2
 70
0
 10
630332.6174863012
 20
4840937.852828472
 10
630413.1507468452
 20
4840960.816643609
  0
LWPOLYLINE
  5
13D
330
17
100
AcDbEntity
  8
ROADS
100
AcDbPolyline
 90
2
 70
0
 10
630255.7329697749
 20
4840913.453941843
 10
630216.2230349605
 20
4841048.117635143
  0
LWPOLYLINE
  5
13E
330
17
100
AcDbEntity
  8
ROADS
100
AcDbPolyline
 90
2
 70
0
 10
630332.6174863012
 20
4840937.852828472
 10
630294.0545351917
 20
4841069.7844900265
  0
LWPOLYLINE
  5
13F
330
17
100
AcDbEntity
  8
ROADS
100
AcDbPolyline
 90
2
 70
0
 10
630216.2230349605
 20
4841048.117635143
 10
630294.0545351917
 20
4841069.7844900265
  0
LWPOLYLINE
  5
140
330
17
100
AcDbEntity
  8
ROADS
100
AcDbPolyline
 90
2
 70
0
 10
630294.0545351917
 20
4841069.7844900265
 10
630371.8564071103
 20
4841093.586971531
  0
LWPOLYLINE
  5
141
330
17
100
AcDbEntity
  8
ROADS
100
AcDbPolyline
 90
2
 70
0
 10
630216.2230349605
 20
4841048.117635143
 10
630193.2813448635
 20
4841122.176786317
  0
LWPOLYLINE
  5
142
330
17
100
AcDbEntity
  8
ROADS
100
AcDbPolyline
 90
2
 70
0
 10
630294.0545351917
 20
4841069.7844900265
 10
630245.8786655065
 20
4841238.808821784
  0
LWPOLYLINE
  5
143
330
17
100
AcDbEntity
  8
ROADS
100
AcDbPolyline
 90
2
 70
0
 10
630193.2813448635
 20
4841122.176786317
 10
630164.7398996288
 20
4841214.4368940145
  0
LWPOLYLINE
  5
144
330
17
100
AcDbEntity
  8
ROADS
100
AcDbPolyline
 90
2
 70
0
 10
630371.8564071103
 20
4841093.586971531
 10
630323.2893848863
 20
4841261.62219077
  0
LWPOLYLINE
  5
145
330
17
100
AcDbEntity
  8
ROADS
100
AcDbPolyline
 90
2
 70
0
 10
630014.0381274242
 20
4841168.738747468
 10
630164.7398996288
 20
4841214.4368940145
  0
LWPOLYLINE
  5
146
330
17
100
AcDbEntity
  8
ROADS
100
AcDbPolyline
 90
2
 70
0
 10
629551.1428068643
 20
4840032.719222527
 10
629585.3115882786
 20
4840124.783755955
  0
LWPOLYLINE
  5
147
330
17
100
AcDbEntity
  8
ROADS
100
AcDbPolyline
 90
3
 70
0
 10
629551.1428068643
 20
4840032.719222527
 10
629489.2766790275
 20
4840086.493689646
 10
629446.7758749949
 20
4840175.201892365
  0
LWPOLYLINE
  5
148
330
17
100
AcDbEntity
  8
ROADS
100
AcDbPolyline
 90
3
 70
0
 10
629585.3115882786
 20
4840124.783755955
 10
629627.7809402165
 20
4840111.053142201
 10
629665.3831313581
 20
4840145.235799635
  0
LWPOLYLINE
  5
149
330
17
100
AcDbEntity
  8
ROADS
100
AcDbPolyline
 90
2
 70
0
 10
629534.7493973991
 20
4840202.371365548
 10
629585.3115882786
 20
4840124.783755955
  0
LWPOLYLINE
  5
14A
330
17
100
AcDbEntity
  8
ROADS
100
AcDbPolyline
 90
2
 70
0
 10
629396.0630033363
 20
4840160.741413881
 10
629446.7758749949
 20
4840175.201892365
  0
LWPOLYLINE
  5
14B
330
17
100
AcDbEntity
  8
ROADS
100
AcDbPolyline
 90
2
 70
0
 10
629396.0630033363
 20
4840160.741413881
 10
629388.4307628628
 20
4840207.542546886
  0
LWPOLYLINE
  5
14C
330
17
100
AcDbEntity
  8
ROADS
100
AcDbPolyline
 90
2
 70
0
 10
629446.7758749949
 20
4840175.201892365
 10
629534.7493973991
 20
4840202.371365548
  0
LWPOLYLINE
  5
14D
330
17
100
AcDbEntity
  8
ROADS
100
AcDbPolyline
 90
2
 70
0
 10
629665.3831313581
 20
4840145.235799635
 10
629663.7807114244
 20
4840240.71044275
  0
LWPOLYLINE
  5
14E
330
17
100
AcDbEntity
  8
ROADS
100
AcDbPolyline
 90
2
 70
0
 10
629534.7493973991
 20
4840202.371365548
 10
629620.1929037168
 20
4840229.920106078
  0
LWPOLYLINE
  5
14F
330
17
100
AcDbEntity
  8
ROADS
100
AcDbPolyline
 90
2
 70
0
 10
629620.1929037168
 20
4840229.920106078
 10
629663.7807114244
 20
4840240.71044275
  0
LWPOLYLINE
  5
150
330
17
100
AcDbEntity
  8
ROADS
100
AcDbPolyline
 90
2
 70
0
 10
629108.4160790076
 20
4840165.234688362
 10
629067.4908148814
 20
4840153.488483407
  0
LWPOLYLINE
  5
151
330
17
100
AcDbEntity
  8
ROADS
100
AcDbPolyline
 90
2
 70
0
 10
629108.4160790076
 20
4840165.234688362
 10
629106.2016495175
 20
4840179.068563672
  0
LWPOLYLINE
  5
152
330
17
100
AcDbEntity
  8
ROADS
100
AcDbPolyline
 90
2
 70
0
 10
629106.2016495175
 20
4840179.068563672
 10
629091.2833599165
 20
4840261.6622631885
  0
LWPOLYLINE
  5
153
330
17
100
AcDbEntity
  8
ROADS
100
AcDbPolyline
 90
2
 70
0
 10
629106.2016495175
 20
4840179.068563672
 10
629588.766274992
 20
4840324.351078478
  0
LWPOLYLINE
  5
154
330
17
100
AcDbEntity
  8
ROADS
100
AcDbPolyline
 90
2
 70
0
 10
629091.2833599165
 20
4840261.6622631885
 10
629087.6659895566
 20
4840283.778316407
  0
LWPOLYLINE
  5
155
330
17
100
AcDbEntity
  8
ROADS
100
AcDbPolyline
 90
2
 70
0
 10
629087.6659895566
 20
4840283.778316407
 10
629171.8798200078
 20
4840309.639680695
  0
LWPOLYLINE
  5
156
330
17
100
AcDbEntity
  8
ROADS
100
AcDbPolyline
 90
2
 70
0
 10
629171.8798200078
 20
4840309.639680695
 10
629244.0957375653
 20
4840330.09061919
  0
LWPOLYLINE
  5
157
330
17
100
AcDbEntity
  8
ROADS
100
AcDbPolyline
 90
2
 70
0
 10
629244.0957375653
 20
4840330.09061919
 10
629350.5340295242
 20
4840362.700560923
  0
LWPOLYLINE
  5
158
330
17
100
AcDbEntity
  8
ROADS
100
AcDbPolyline
 90
2
 70
0
 10
629350.5340295242
 20
4840362.700560923
 10
629378.231183812
 20
4840370.756219756
  0
LWPOLYLINE
  5
159
330
17
100
AcDbEntity
  8
ROADS
100
AcDbPolyline
 90
2
 70
0
 10
629378.231183812
 20
4840370.756219756
 10
629379.2616238904
 20
4840402.29602783
  0
LWPOLYLINE
  5
15A
330
17
100
AcDbEntity
  8
ROADS
100
AcDbPolyline
 90
2
 70
0
 10
629067.4908148814
 20
4840153.488483407
 10
629051.9792724818
 20
4840249.857373367
  0
LWPOLYLINE
  5
15B
330
17
100
AcDbEntity
  8
ROADS
100
AcDbPolyline
 90
2
 70
0
 10
629051.9792724818
 20
4840249.857373367
 10
628945.160675421
 20
4840218.01102466
  0
LWPOLYLINE
  5
15C
330
17
100
AcDbEntity
  8
ROADS
100
AcDbPolyline
 90
2
 70
0
 10
629091.2833599165
 20
4840261.6622631885
 10
629051.9792724818
 20
4840249.857373367
  0
LWPOLYLINE
  5
15D
330
17
100
AcDbEntity
  8
ROADS
100
AcDbPolyline
 90
2
 70
0
 10
628888.7769019228
 20
4840326.872163173
 10
628904.6690268565
 20
4840403.531566615
  0
LWPOLYLINE
  5
15E
330
17
100
AcDbEntity
  8
ROADS
100
AcDbPolyline
 90
2
 70
0
 10
628904.6690268565
 20
4840403.531566615
 10
628871.3758039956
 20
4840404.0282433415
  0
LWPOLYLINE
  5
15F
330
17
100
AcDbEntity
  8
ROADS
100
AcDbPolyline
 90
2
 70
0
 10
629087.6659895566
 20
4840283.778316407
 10
629041.1395522915
 20
4840547.439389094
  0
LWPOLYLINE
  5
160
330
17
100
AcDbEntity
  8
ROADS
100
AcDbPolyline
 90
2
 70
0
 10
628904.6690268565
 20
4840403.531566615
 10
628887.6058526803
 20
4840502.164478278
  0
LWPOLYLINE
  5
161
330
17
100
AcDbEntity
  8
ROADS
100
AcDbPolyline
 90
2
 70
0
 10
628887.6058526803
 20
4840502.164478278
 10
628836.872190461
 20
4840485.425500635
  0
LWPOLYLINE
  5
162
330
17
100
AcDbEntity
  8
ROADS
100
AcDbPolyline
 90
2
 70
0
 10
629620.1929037168
 20
4840229.920106078
 10
629588.766274992
 20
4840324.351078478
  0
LWPOLYLINE
  5
163
330
17
100
AcDbEntity
  8
ROADS
100
AcDbPolyline
 90
2
 70
0
 10
629588.766274992
 20
4840324.351078478
 10
629807.389915437
 20
4840390.654095307
  0
LWPOLYLINE
  5
164
330
17
100
AcDbEntity
  8
ROADS
100
AcDbPolyline
 90
2
 70
0
 10
629588.766274992
 20
4840324.351078478
 10
629563.8314487431
 20
4840426.665031883
  0
LWPOLYLINE
  5
165
330
17
100
AcDbEntity
  8
ROADS
100
AcDbPolyline
 90
2
 70
0
 10
629378.231183812
 20
4840370.756219756
 10
629455.7709335882
 20
4840394.44472715
  0
LWPOLYLINE
  5
166
330
17
100
AcDbEntity
  8
ROADS
100
AcDbPolyline
 90
2
 70
0
 10
629455.7709335882
 20
4840394.44472715
 10
629563.8314487431
 20
4840426.665031883
  0
LWPOLYLINE
  5
167
330
17
100
AcDbEntity
  8
ROADS
100
AcDbPolyline
 90
2
 70
0
 10
629563.8314487431
 20
4840426.665031883
 10
629670.0461949958
 20
4840457.9828993175
  0
LWPOLYLINE
  5
168
330
17
100
AcDbEntity
  8
ROADS
100
AcDbPolyline
 90
2
 70
0
 10
629455.7709335882
 20
4840394.44472715
 10
629380.3183752698
 20
4840650.589193208
  0
LWPOLYLINE
  5
169
330
17
100
AcDbEntity
  8
ROADS
100
AcDbPolyline
 90
2
 70
0
 10
629563.8314487431
 20
4840426.665031883
 10
629485.6373671406
 20
4840681.498880311
  0
LWPOLYLINE
  5
16A
330
17
100
AcDbEntity
  8
ROADS
100
AcDbPolyline
 90
2
 70
0
 10
629670.0461949958
 20
4840457.9828993175
 10
629593.302383156
 20
4840714.7391952155
  0
LWPOLYLINE
  5
16B
330
17
100
AcDbEntity
  8
ROADS
100
AcDbPolyline
 90
2
 70
0
 10
629380.3183752698
 20
4840650.589193208
 10
629485.6373671406
 20
4840681.498880311
  0
LWPOLYLINE
  5
16C
330
17
100
AcDbEntity
  8
ROADS
100
AcDbPolyline
 90
2
 70
0
 10
629244.0957375653
 20
4840330.09061919
 10
629183.8647069869
 20
4840530.058515946
  0
LWPOLYLINE
  5
16D
330
17
100
AcDbEntity
  8
ROADS
100
AcDbPolyline
 90
2
 70
0
 10
629171.8798200078
 20
4840309.639680695
 10
629112.6136714342
 20
4840569.919087762
  0
LWPOLYLINE
  5
16E
330
17
100
AcDbEntity
  8
ROADS
100
AcDbPolyline
 90
2
 70
0
 10
629350.5340295242
 20
4840362.700560923
 10
629290.8504797051
 20
4840561.923370343
  0
LWPOLYLINE
  5
16F
330
17
100
AcDbEntity
  8
ROADS
100
AcDbPolyline
 90
2
 70
0
 10
629183.8647069869
 20
4840530.058515946
 10
629290.8504797051
 20
4840561.923370343
  0
LWPOLYLINE
  5
170
330
17
100
AcDbEntity
  8
ROADS
100
AcDbPolyline
 90
2
 70
0
 10
629183.8647069869
 20
4840530.058515946
 10
629166.8452043023
 20
4840586.287409658
  0
LWPOLYLINE
  5
171
330
17
100
AcDbEntity
  8
ROADS
100
AcDbPolyline
 90
2
 70
0
 10
629112.6136714342
 20
4840569.919087762
 10
629166.8452043023
 20
4840586.287409658
  0
LWPOLYLINE
  5
172
330
17
100
AcDbEntity
  8
ROADS
100
AcDbPolyline
 90
2
 70
0
 10
629290.8504797051
 20
4840561.923370343
 10
629273.6979643158
 20
4840618.98093053
  0
LWPOLYLINE
  5
173
330
17
100
AcDbEntity
  8
ROADS
100
AcDbPolyline
 90
2
 70
0
 10
629166.8452043023
 20
4840586.287409658
 10
629273.6979643158
 20
4840618.98093053
  0
LWPOLYLINE
  5
174
330
17
100
AcDbEntity
  8
ROADS
100
AcDbPolyline
 90
2
 70
0
 10
629273.6979643158
 20
4840618.98093053
 10
629380.3183752698
 20
4840650.589193208
  0
LWPOLYLINE
  5
175
330
17
100
AcDbEntity
  8
ROADS
100
AcDbPolyline
 90
2
 70
0
 10
629017.3949572416
 20
4840686.248661285
 10
629446.8974763022
 20
4840816.753263064
  0
LWPOLYLINE
  5
176
330
17
100
AcDbEntity
  8
ROADS
100
AcDbPolyline
 90
2
 70
0
 10
629041.1395522915
 20
4840547.439389094
 10
628887.6058526803
 20
4840502.164478278
  0
LWPOLYLINE
  5
177
330
17
100
AcDbEntity
  8
ROADS
100
AcDbPolyline
 90
2
 70
0
 10
629041.1395522915
 20
4840547.439389094
 10
629112.6136714342
 20
4840569.919087762
  0
LWPOLYLINE
  5
178
330
17
100
AcDbEntity
  8
ROADS
100
AcDbPolyline
 90
2
 70
0
 10
628887.6058526803
 20
4840502.164478278
 10
628839.7221072016
 20
4840657.806564553
  0
LWPOLYLINE
  5
179
330
17
100
AcDbEntity
  8
ROADS
100
AcDbPolyline
 90
2
 70
0
 10
629041.1395522915
 20
4840547.439389094
 10
629017.3949572416
 20
4840686.248661285
  0
LWPOLYLINE
  5
17A
330
17
100
AcDbEntity
  8
ROADS
100
AcDbPolyline
 90
2
 70
0
 10
629012.8399141871
 20
4840711.077423164
 10
628839.7221072016
 20
4840657.806564553
  0
LWPOLYLINE
  5
17B
330
17
100
AcDbEntity
  8
ROADS
100
AcDbPolyline
 90
2
 70
0
 10
629017.3949572416
 20
4840686.248661285
 10
629012.8399141871
 20
4840711.077423164
  0
LWPOLYLINE
  5
17C
330
17
100
AcDbEntity
  8
ROADS
100
AcDbPolyline
 90
2
 70
0
 10
628839.7221072016
 20
4840657.806564553
 10
628825.1967536374
 20
4840757.090407191
  0
LWPOLYLINE
  5
17D
330
17
100
AcDbEntity
  8
ROADS
100
AcDbPolyline
 90
2
 70
0
 10
629012.8399141871
 20
4840711.077423164
 10
628995.5832445449
 20
4840808.294755926
  0
LWPOLYLINE
  5
17E
330
17
100
AcDbEntity
  8
ROADS
100
AcDbPolyline
 90
2
 70
0
 10
628995.5832445449
 20
4840808.294755926
 10
628825.1967536374
 20
4840757.090407191
  0
LWPOLYLINE
  5
17F
330
17
100
AcDbEntity
  8
ROADS
100
AcDbPolyline
 90
2
 70
0
 10
628995.5832445449
 20
4840808.294755926
 10
628986.1766697764
 20
4840863.697295977
  0
LWPOLYLINE
  5
180
330
17
100
AcDbEntity
  8
ROADS
100
AcDbPolyline
 90
2
 70
0
 10
629485.6373671406
 20
4840681.498880311
 10
629593.302383156
 20
4840714.7391952155
  0
LWPOLYLINE
  5
181
330
17
100
AcDbEntity
  8
ROADS
100
AcDbPolyline
 90
2
 70
0
 10
629593.302383156
 20
4840714.7391952155
 10
629699.0993477398
 20
4840747.313685046
  0
LWPOLYLINE
  5
182
330
17
100
AcDbEntity
  8
ROADS
100
AcDbPolyline
 90
2
 70
0
 10
629485.6373671406
 20
4840681.498880311
 10
629446.8974763022
 20
4840816.753263064
  0
LWPOLYLINE
  5
183
330
17
100
AcDbEntity
  8
ROADS
100
AcDbPolyline
 90
2
 70
0
 10
629699.0993477398
 20
4840747.313685046
 10
629659.4293120471
 20
4840880.801194199
  0
LWPOLYLINE
  5
184
330
17
100
AcDbEntity
  8
ROADS
100
AcDbPolyline
 90
2
 70
0
 10
629446.8974763022
 20
4840816.753263064
 10
629659.4293120471
 20
4840880.801194199
  0
LWPOLYLINE
  5
185
330
17
100
AcDbEntity
  8
ROADS
100
AcDbPolyline
 90
2
 70
0
 10
629446.8974763022
 20
4840816.753263064
 10
629396.7870146388
 20
4840984.103081251
  0
LWPOLYLINE
  5
186
330
17
100
AcDbEntity
  8
ROADS
100
AcDbPolyline
 90
2
 70
0
 10
629659.4293120471
 20
4840880.801194199
 10
629610.0612999446
 20
4841047.904526707
  0
LWPOLYLINE
  5
187
330
17
100
AcDbEntity
  8
ROADS
100
AcDbPolyline
 90
2
 70
0
 10
629396.7870146388
 20
4840984.103081251
 10
629610.0612999446
 20
4841047.904526707
  0
LWPOLYLINE
  5
188
330
17
100
AcDbEntity
  8
ROADS
100
AcDbPolyline
 90
2
 70
0
 10
629610.0612999446
 20
4841047.904526707
 10
629590.4109035577
 20
4841114.114554285
  0
LWPOLYLINE
  5
189
330
17
100
AcDbEntity
  8
ROADS
100
AcDbPolyline
 90
2
 70
0
 10
629590.4109035577
 20
4841114.114554285
 10
629757.1009106424
 20
4841163.388173335
  0
LWPOLYLINE
  5
18A
330
17
100
AcDbEntity
  8
ROADS
100
AcDbPolyline
 90
2
 70
0
 10
628986.1766697764
 20
4840863.697295977
 10
628822.2673144235
 20
4840813.864207552
  0
LWPOLYLINE
  5
18B
330
17
100
AcDbEntity
  8
ROADS
100
AcDbPolyline
 90
2
 70
0
 10
628986.1766697764
 20
4840863.697295977
 10
628961.1999540906
 20
4841012.532407031
  0
LWPOLYLINE
  5
18C
330
17
100
AcDbEntity
  8
ROADS
100
AcDbPolyline
 90
2
 70
0
 10
628961.1999540906
 20
4841012.532407031
 10
628836.5779369537
 20
4840973.510856881
  0
LWPOLYLINE
  5
18D
330
17
100
AcDbEntity
  8
ROADS
100
AcDbPolyline
 90
2
 70
0
 10
628961.1999540906
 20
4841012.532407031
 10
628958.3853645585
 20
4841030.460687862
  0
LWPOLYLINE
  5
18E
330
17
100
AcDbEntity
  8
ROADS
100
AcDbPolyline
 90
2
 70
0
 10
628958.3853645585
 20
4841030.460687862
 10
628942.349743752
 20
4841113.444125315
  0
LWPOLYLINE
  5
18F
330
17
100
AcDbEntity
  8
ROADS
100
AcDbPolyline
 90
2
 70
0
 10
628898.0893738382
 20
4841100.478380645
 10
628906.8055344255
 20
4841049.878691593
  0
LWPOLYLINE
  5
190
330
17
100
AcDbEntity
  8
ROADS
100
AcDbPolyline
 90
2
 70
0
 10
628898.0893738382
 20
4841100.478380645
 10
628877.3965072676
 20
4841093.992788757
  0
LWPOLYLINE
  5
191
330
17
100
AcDbEntity
  8
ROADS
100
AcDbPolyline
 90
2
 70
0
 10
628942.349743752
 20
4841113.444125315
 10
628898.0893738382
 20
4841100.478380645
  0
LWPOLYLINE
  5
192
330
17
100
AcDbEntity
  8
ROADS
100
AcDbPolyline
 90
2
 70
0
 10
628942.349743752
 20
4841113.444125315
 10
628935.2156529177
 20
4841163.658419399
  0
LWPOLYLINE
  5
193
330
17
100
AcDbEntity
  8
ROADS
100
AcDbPolyline
 90
2
 70
0
 10
628935.2156529177
 20
4841163.658419399
 10
628929.873983039
 20
4841194.619369471
  0
LWPOLYLINE
  5
194
330
17
100
AcDbEntity
  8
ROADS
100
AcDbPolyline
 90
2
 70
0
 10
628986.1766697764
 20
4840863.697295977
 10
629396.7870146388
 20
4840984.103081251
  0
LWPOLYLINE
  5
195
330
17
100
AcDbEntity
  8
ROADS
100
AcDbPolyline
 90
2
 70
0
 10
629396.7870146388
 20
4840984.103081251
 10
629347.6649908186
 20
4841146.564901041
  0
LWPOLYLINE
  5
196
330
17
100
AcDbEntity
  8
ROADS
100
AcDbPolyline
 90
2
 70
0
 10
628958.3853645585
 20
4841030.460687862
 10
629347.6649908186
 20
4841146.564901041
  0
LWPOLYLINE
  5
197
330
17
100
AcDbEntity
  8
ROADS
100
AcDbPolyline
 90
2
 70
0
 10
629347.6649908186
 20
4841146.564901041
 10
629383.81089946
 20
4841157.3731912635
  0
LWPOLYLINE
  5
198
330
17
100
AcDbEntity
  8
ROADS
100
AcDbPolyline
 90
2
 70
0
 10
629347.6649908186
 20
4841146.564901041
 10
629343.2724671651
 20
4841177.857065683
  0
LWPOLYLINE
  5
199
330
17
100
AcDbEntity
  8
ROADS
100
AcDbPolyline
 90
2
 70
0
 10
629383.81089946
 20
4841157.3731912635
 10
629343.2724671651
 20
4841177.857065683
  0
LWPOLYLINE
  5
19A
330
17
100
AcDbEntity
  8
ROADS
100
AcDbPolyline
 90
3
 70
0
 10
629315.0782287346
 20
4841174.88969476
 10
629328.5587103185
 20
4841192.81984938
 10
629343.2724671651
 20
4841177.857065683
  0
LWPOLYLINE
  5
19B
330
17
100
AcDbEntity
  8
ROADS
100
AcDbPolyline
 90
2
 70
0
 10
628935.2156529177
 20
4841163.658419399
 10
629522.7370964113
 20
4841340.483671982
  0
LWPOLYLINE
  5
19C
330
17
100
AcDbEntity
  8
ROADS
100
AcDbPolyline
 90
2
 70
0
 10
629041.1872700999
 20
4841338.021331679
 10
629485.3163278506
 20
4841472.184623337
  0
LWPOLYLINE
  5
19D
330
17
100
AcDbEntity
  8
ROADS
100
AcDbPolyline
 90
2
 70
0
 10
628979.1107537847
 20
4841232.565340014
 10
628974.4944001413
 20
4841259.880168496
  0
LWPOLYLINE
  5
19E
330
17
100
AcDbEntity
  8
ROADS
100
AcDbPolyline
 90
2
 70
0
 10
630462.5672843525
 20
4841101.524905313
 10
630519.697022003
 20
4841112.129937646
  0
LWPOLYLINE
  5
19F
330
17
100
AcDbEntity
  8
ROADS
100
AcDbPolyline
 90
2
 70
0
 10
630462.5672843525
 20
4841101.524905313
 10
630401.036955449
 20
4841285.219721552
  0
LWPOLYLINE
  5
1A0
330
17
100
AcDbEntity
  8
ROADS
100
AcDbPolyline
 90
2
 70
0
 10
630401.036955449
 20
4841285.219721552
 10
630409.3565774648
 20
4841287.548443618
  0
LWPOLYLINE
  5
1A1
330
17
100
AcDbEntity
  8
ROADS
100
AcDbPolyline
 90
2
 70
0
 10
630401.036955449
 20
4841285.219721552
 10
630396.1595441427
 20
4841301.913383223
  0
LWPOLYLINE
  5
1A2
330
17
100
AcDbEntity
  8
ROADS
100
AcDbPolyline
 90
2
 70
0
 10
630164.7398996288
 20
4841214.4368940145
 10
630245.8786655065
 20
4841238.808821784
  0
LWPOLYLINE
  5
1A3
330
17
100
AcDbEntity
  8
ROADS
100
AcDbPolyline
 90
2
 70
0
 10
630164.7398996288
 20
4841214.4368940145
 10
630144.3224479111
 20
4841278.875016518
  0
LWPOLYLINE
  5
1A4
330
17
100
AcDbEntity
  8
ROADS
100
AcDbPolyline
 90
2
 70
0
 10
630245.8786655065
 20
4841238.808821784
 10
630323.2893848863
 20
4841261.62219077
  0
LWPOLYLINE
  5
1A5
330
17
100
AcDbEntity
  8
ROADS
100
AcDbPolyline
 90
2
 70
0
 10
630245.8786655065
 20
4841238.808821784
 10
630225.8780846519
 20
4841303.531522088
  0
LWPOLYLINE
  5
1A6
330
17
100
AcDbEntity
  8
ROADS
100
AcDbPolyline
 90
2
 70
0
 10
630323.2893848863
 20
4841261.62219077
 10
630401.036955449
 20
4841285.219721552
  0
LWPOLYLINE
  5
1A7
330
17
100
AcDbEntity
  8
ROADS
100
AcDbPolyline
 90
2
 70
0
 10
630323.2893848863
 20
4841261.62219077
 10
630304.2396749225
 20
4841326.742139282
  0
LWPOLYLINE
  5
1A8
330
17
100
AcDbEntity
  8
ROADS
100
AcDbPolyline
 90
2
 70
0
 10
629590.4109035577
 20
4841114.114554285
 10
629561.7218525029
 20
4841211.384172292
  0
LWPOLYLINE
  5
1A9
330
17
100
AcDbEntity
  8
ROADS
100
AcDbPolyline
 90
2
 70
0
 10
629383.81089946
 20
4841157.3731912635
 10
629561.7218525029
 20
4841211.384172292
  0
LWPOLYLINE
  5
1AA
330
17
100
AcDbEntity
  8
ROADS
100
AcDbPolyline
 90
2
 70
0
 10
629561.7218525029
 20
4841211.384172292
 10
629727.0435974938
 20
4841259.200975575
  0
LWPOLYLINE
  5
1AB
330
17
100
AcDbEntity
  8
ROADS
100
AcDbPolyline
 90
2
 70
0
 10
629561.7218525029
 20
4841211.384172292
 10
629522.7370964113
 20
4841340.483671982
  0
LWPOLYLINE
  5
1AC
330
17
100
AcDbEntity
  8
ROADS
100
AcDbPolyline
 90
2
 70
0
 10
629522.7370964113
 20
4841340.483671982
 10
629485.3163278506
 20
4841472.184623337
  0
LWPOLYLINE
  5
1AD
330
17
100
AcDbEntity
  8
ROADS
100
AcDbPolyline
 90
2
 70
0
 10
629485.3163278506
 20
4841472.184623337
 10
629451.221074359
 20
4841586.464647604
  0
LWPOLYLINE
  5
1AE
330
17
100
AcDbEntity
  8
ROADS
100
AcDbPolyline
 90
3
 70
0
 10
629485.3163278506
 20
4841472.184623337
 10
629774.6790413188
 20
4841567.863503756
 10
629831.3904311176
 20
4841613.098915209
  0
LWPOLYLINE
  5
1AF
330
17
100
AcDbEntity
  8
ROADS
100
AcDbPolyline
 90
2
 70
0
 10
629757.1009106424
 20
4841163.388173335
 10
629795.3301212711
 20
4841173.858650936
  0
LWPOLYLINE
  5
1B0
330
17
100
AcDbEntity
  8
ROADS
100
AcDbPolyline
 90
3
 70
0
 10
630014.0381274242
 20
4841168.738747468
 10
629997.4874703584
 20
4841217.619715622
 10
630056.6927435505
 20
4841242.538786958
  0
LWPOLYLINE
  5
1B1
330
17
100
AcDbEntity
  8
ROADS
100
AcDbPolyline
 90
2
 70
0
 10
629757.1009106424
 20
4841163.388173335
 10
629727.0435974938
 20
4841259.200975575
  0
LWPOLYLINE
  5
1B2
330
17
100
AcDbEntity
  8
ROADS
100
AcDbPolyline
 90
2
 70
0
 10
629727.0435974938
 20
4841259.200975575
 10
629972.8256684985
 20
4841332.572063023
  0
LWPOLYLINE
  5
1B3
330
17
100
AcDbEntity
  8
ROADS
100
AcDbPolyline
 90
2
 70
0
 10
629522.7370964113
 20
4841340.483671982
 10
629931.9251836066
 20
4841461.533532126
  0
LWPOLYLINE
  5
1B4
330
17
100
AcDbEntity
  8
ROADS
100
AcDbPolyline
 90
2
 70
0
 10
629843.0544008977
 20
4841619.8061295515
 10
629831.3904311176
 20
4841613.098915209
  0
LWPOLYLINE
  5
1B5
330
17
100
AcDbEntity
  8
ROADS
100
AcDbPolyline
 90
2
 70
0
 10
629831.3904311176
 20
4841613.098915209
 10
629829.2027189133
 20
4841621.790658963
  0
ENDSEC
  0
SECTION
  2
OBJECTS
  0
DICTIONARY
  5
A
330
0
100
AcDbDictionary
281
1
  3
ACAD_COLOR
350
B
  3
ACAD_GROUP
350
C
  3
ACAD_LAYOUT
350
D
  3
ACAD_MATERIAL
350
E
  3
ACAD_MLEADERSTYLE
350
F
  3
ACAD_MLINESTYLE
350
10
  3
ACAD_PLOTSETTINGS
350
11
  3
ACAD_PLOTSTYLENAME
350
12
  3
ACAD_SCALELIST
350
14
  3
ACAD_TABLESTYLE
350
15
  3
ACAD_VISUALSTYLE
350
16
  3
EZDXF_META
350
2D
  0
DICTIONARY
  5
B
330
A
100
AcDbDictionary
281
1
  0
DICTIONARY
  5
C
330
A
100
AcDbDictionary
281
1
  0
DICTIONARY
  5
D
330
A
100
AcDbDictionary
281
1
  3
Model
350
1A
  3
Layout1
350
1E
  0
DICTIONARY
  5
E
330
A
100
AcDbDictionary
281
1
  3
ByBlock
350
1F
  3
ByLayer
350
20
  3
Global
350
21
  0
DICTIONARY
  5
F
330
A
100
AcDbDictionary
281
1
  3
Standard
350
2C
  0
DICTIONARY
  5
10
330
A
100
AcDbDictionary
281
1
  3
Standard
350
22
  0
DICTIONARY
  5
11
330
A
100
AcDbDictionary
281
1
  0
ACDBDICTIONARYWDFLT
  5
12
330
A
100
AcDbDictionary
281
1
  3
Normal
350
13
100
AcDbDictionaryWithDefault
340
13
  0
ACDBPLACEHOLDER
  5
13
330
12
  0
DICTIONARY
  5
14
330
A
100
AcDbDictionary
281
1
  0
DICTIONARY
  5
15
330
A
100
AcDbDictionary
281
1
  0
DICTIONARY
  5
16
330
A
100
AcDbDictionary
281
1
  0
LAYOUT
  5
1A
330
D
100
AcDbPlotSettings
  1

  4
A3
  6

 40
7.5
 41
20.0
 42
7.5
 43
20.0
 44
420.0
 45
297.0
 46
0.0
 47
0.0
 48
0.0
 49
0.0
140
0.0
141
0.0
142
1.0
143
1.0
 70
1024
 72
1
 73
0
 74
5
  7

 75
16
 76
0
 77
2
 78
300
147
1.0
148
0.0
149
0.0
100
AcDbLayout
  1
Model
 70
1
 71
0
 10
0.0
 20
0.0
 11
420.0
 21
297.0
 12
0.0
 22
0.0
 32
0.0
 14
1e+20
 24
1e+20
 34
1e+20
 15
-1e+20
 25
-1e+20
 35
-1e+20
146
0.0
 13
0.0
 23
0.0
 33
0.0
 16
1.0
 26
0.0
 36
0.0
 17
0.0
 27
1.0
 37
0.0
 76
1
330
17
  0
LAYOUT
  5
1E
330
D
100
AcDbPlotSettings
  1

  4
A3
  6

 40
7.5
 41
20.0
 42
7.5
 43
20.0
 44
420.0
 45
297.0
 46
0.0
 47
0.0
 48
0.0
 49
0.0
140
0.0
141
0.0
142
1.0
143
1.0
 70
0
 72
1
 73
0
 74
5
  7

 75
16
 76
0
 77
2
 78
300
147
1.0
148
0.0
149
0.0
100
AcDbLayout
  1
Layout1
 70
1
 71
1
 10
0.0
 20
0.0
 11
420.0
 21
297.0
 12
0.0
 22
0.0
 32
0.0
 14
1e+20
 24
1e+20
 34
1e+20
 15
-1e+20
 25
-1e+20
 35
-1e+20
146
0.0
 13
0.0
 23
0.0
 33
0.0
 16
1.0
 26
0.0
 36
0.0
 17
0.0
 27
1.0
 37
0.0
 76
1
330
1B
  0
MATERIAL
  5
1F
102
{ACAD_REACTORS
330
E
102
}
330
E
100
AcDbMaterial
  1
ByBlock
  2

 70
0
 40
1.0
 71
1
 41
1.0
 91
-1023410177
 42
1.0
 72
1
  3

 73
1
 74
1
 75
1
 44
0.5
 73
0
 45
1.0
 46
1.0
 77
1
  4

 78
1
 79
1
170
1
 48
1.0
171
1
  6

172
1
173
1
174
1
140
1.0
141
1.0
175
1
  7

176
1
177
1
178
1
143
1.0
179
1
  8

270
1
271
1
272
1
145
1.0
146
1.0
273
1
  9

274
1
275
1
276
1
 42
1.0
 72
1
  3

 73
1
 74
1
 75
1
 94
63
  0
MATERIAL
  5
20
102
{ACAD_REACTORS
330
E
102
}
330
E
100
AcDbMaterial
  1
ByLayer
  2

 70
0
 40
1.0
 71
1
 41
1.0
 91
-1023410177
 42
1.0
 72
1
  3

 73
1
 74
1
 75
1
 44
0.5
 73
0
 45
1.0
 46
1.0
 77
1
  4

 78
1
 79
1
170
1
 48
1.0
171
1
  6

172
1
173
1
174
1
140
1.0
141
1.0
175
1
  7

176
1
177
1
178
1
143
1.0
179
1
  8

270
1
271
1
272
1
145
1.0
146
1.0
273
1
  9

274
1
275
1
276
1
 42
1.0
 72
1
  3

 73
1
 74
1
 75
1
 94
63
  0
MATERIAL
  5
21
102
{ACAD_REACTORS
330
E
102
}
330
E
100
AcDbMaterial
  1
Global
  2

 70
0
 40
1.0
 71
1
 41
1.0
 91
-1023410177
 42
1.0
 72
1
  3

 73
1
 74
1
 75
1
 44
0.5
 73
0
 45
1.0
 46
1.0
 77
1
  4

 78
1
 79
1
170
1
 48
1.0
171
1
  6

172
1
173
1
174
1
140
1.0
141
1.0
175
1
  7

176
1
177
1
178
1
143
1.0
179
1
  8

270
1
271
1
272
1
145
1.0
146
1.0
273
1
  9

274
1
275
1
276
1
 42
1.0
 72
1
  3

 73
1
 74
1
 75
1
 94
63
  0
MLINESTYLE
  5
22
102
{ACAD_REACTORS
330
10
102
}
330
10
100
AcDbMlineStyle
  2
Standard
 70
0
  3

 62
256
 51
90.0
 52
90.0
 71
2
 49
0.5
 62
256
  6
BYLAYER
 49
-0.5
 62
256
  6
BYLAYER
  0
MLEADERSTYLE
  5
2C
102
{ACAD_REACTORS
330
F
102
}
330
F
100
AcDbMLeaderStyle
179
2
170
2
171
1
172
0
 90
2
 40
0.0
 41
0.0
173
1
 91
-1056964608
 92
-2
290
1
 42
2.0
291
1
 43
8.0
  3
Standard
 44
4.0
300

342
29
174
1
175
1
176
0
178
1
 93
-1056964608
 45
4.0
292
0
297
0
 46
4.0
 94
-1056964608
 47
1.0
 49
1.0
140
1.0
294
1
141
0.0
177
0
142
1.0
295
0
296
0
143
3.75
271
0
272
9
273
9
  0
DICTIONARY
  5
2D
330
A
100
AcDbDictionary
280
1
281
1
  3
CREATED_BY_EZDXF
350
2E
  3
WRITTEN_BY_EZDXF
350
1B8
  0
DICTIONARYVAR
  5
2E
330
2D
100
DictionaryVariables
280
0
  1
1.4.4 @ 2026-07-07T18:25:11.902045+00:00
  0
DICTIONARYVAR
  5
1B8
330
2D
100
DictionaryVariables
280
0
  1
1.4.4 @ 2026-07-07T18:25:11.918623+00:00
  0
ENDSEC
  0
EOF
