  0
SECTION
  2
HEADER
  9
$ACADVER
  1
AC1015
  9
$ACADMAINTVER
 70
6
  9
$DWGCODEPAGE
  3
ANSI_1252
  9
$INSBASE
 10
0.0
 20
0.0
 30
0.0
  9
$EXTMIN
 10
1e+20
 20
1e+20
 30
1e+20
  9
$EXTMAX
 10
-1e+20
 20
-1e+20
 30
-1e+20
  9
$LIMMIN
 10
0.0
 20
0.0
  9
$LIMMAX
 10
420.0
 20
297.0
  9
$ORTHOMODE
 70
0
  9
$REGENMODE
 70
1
  9
$FILLMODE
 70
1
  9
$QTEXTMODE
 70
0
  9
$MIRRTEXT
 70
1
  9
$LTSCALE
 40
1.0
  9
$ATTMODE
 70
1
  9
$TEXTSIZE
 40
2.5
  9
$TRACEWID
 40
1.0
  9
$TEXTSTYLE
  7
Standard
  9
$CLAYER
  8
0
  9
$CELTYPE
  6
ByLayer
  9
$CECOLOR
 62
256
  9
$CELTSCALE
 40
1.0
  9
$DISPSILH
 70
0
  9
$DIMSCALE
 40
1.0
  9
$DIMASZ
 40
2.5
  9
$DIMEXO
 40
0.625
  9
$DIMDLI
 40
3.75
  9
$DIMRND
 40
0.0
  9
$DIMDLE
 40
0.0
  9
$DIMEXE
 40
1.25
  9
$DIMTP
 40
0.0
  9
$DIMTM
 40
0.0
  9
$DIMTXT
 40
2.5
  9
$DIMCEN
 40
2.5
  9
$DIMTSZ
 40
0.0
  9
$DIMTOL
 70
0
  9
$DIMLIM
 70
0
  9
$DIMTIH
 70
0
  9
$DIMTOH
 70
0
  9
$DIMSE1
 70
0
  9
$DIMSE2
 70
0
  9
$DIMTAD
 70
1
  9
$DIMZIN
 70
8
  9
$DIMBLK
  1

  9
$DIMASO
 70
1
  9
$DIMSHO
 70
1
  9
$DIMPOST
  1

  9
$DIMAPOST
  1

  9
$DIMALT
 70
0
  9
$DIMALTD
 70
3
  9
$DIMALTF
 40
0.03937007874
  9
$DIMLFAC
 40
1.0
  9
$DIMTOFL
 70
1
  9
$DIMTVP
 40
0.0
  9
$DIMTIX
 70
0
  9
$DIMSOXD
 70
0
  9
$DIMSAH
 70
0
  9
$DIMBLK1
  1

  9
$DIMBLK2
  1

  9
$DIMSTYLE
  2
ISO-25
  9
$DIMCLRD
 70
0
  9
$DIMCLRE
 70
0
  9
$DIMCLRT
 70
0
  9
$DIMTFAC
 40
1.0
  9
$DIMGAP
 40
0.625
  9
$DIMJUST
 70
0
  9
$DIMSD1
 70
0
  9
$DIMSD2
 70
0
  9
$DIMTOLJ
 70
0
  9
$DIMTZIN
 70
8
  9
$DIMALTZ
 70
0
  9
$DIMALTTZ
 70
0
  9
$DIMUPT
 70
0
  9
$DIMDEC
 70
2
  9
$DIMTDEC
 70
2
  9
$DIMALTU
 70
2
  9
$DIMALTTD
 70
3
  9
$DIMTXSTY
  7
Standard
  9
$DIMAUNIT
 70
0
  9
$DIMADEC
 70
0
  9
$DIMALTRND
 40
0.0
  9
$DIMAZIN
 70
0
  9
$DIMDSEP
 70
44
  9
$DIMATFIT
 70
3
  9
$DIMFRAC
 70
0
  9
$DIMLDRBLK
  1

  9
$DIMLUNIT
 70
2
  9
$DIMLWD
 70
-2
  9
$DIMLWE
 70
-2
  9
$DIMTMOVE
 70
0
  9
$LUNITS
 70
2
  9
$LUPREC
 70
4
  9
$SKETCHINC
 40
1.0
  9
$FILLETRAD
 40
10.0
  9
$AUNITS
 70
0
  9
$AUPREC
 70
2
  9
$MENU
  1
.
  9
$ELEVATION
 40
0.0
  9
$PELEVATION
 40
0.0
  9
$THICKNESS
 40
0.0
  9
$LIMCHECK
 70
0
  9
$CHAMFERA
 40
0.0
  9
$CHAMFERB
 40
0.0
  9
$CHAMFERC
 40
0.0
  9
$CHAMFERD
 40
0.0
  9
$SKPOLY
 70
0
  9
$TDCREATE
 40
2461229.0972337965
  9
$TDUCREATE
 40
2458532.153996898
  9
$TDUPDATE
 40
2461229.0972337965
  9
$TDUUPDATE
 40
2458532.1544311
  9
$TDINDWG
 40
0.0
  9
$TDUSRTIMER
 40
0.0
  9
$USRTIMER
 70
1
  9
$ANGBASE
 50
0.0
  9
$ANGDIR
 70
0
  9
$PDMODE
 70
0
  9
$PDSIZE
 40
0.0
  9
$PLINEWID
 40
0.0
  9
$SPLFRAME
 70
0
  9
$SPLINETYPE
 70
6
  9
$SPLINESEGS
 70
8
  9
$HANDSEED
  5
2BA
  9
$SURFTAB1
 70
6
  9
$SURFTAB2
 70
6
  9
$SURFTYPE
 70
6
  9
$SURFU
 70
6
  9
$SURFV
 70
6
  9
$UCSBASE
  2

  9
$UCSNAME
  2

  9
$UCSORG
 10
0.0
 20
0.0
 30
0.0
  9
$UCSXDIR
 10
1.0
 20
0.0
 30
0.0
  9
$UCSYDIR
 10
0.0
 20
1.0
 30
0.0
  9
$UCSORTHOREF
  2

  9
$UCSORTHOVIEW
 70
0
  9
$UCSORGTOP
 10
0.0
 20
0.0
 30
0.0
  9
$UCSORGBOTTOM
 10
0.0
 20
0.0
 30
0.0
  9
$UCSORGLEFT
 10
0.0
 20
0.0
 30
0.0
  9
$UCSORGRIGHT
 10
0.0
 20
0.0
 30
0.0
  9
$UCSORGFRONT
 10
0.0
 20
0.0
 30
0.0
  9
$UCSORGBACK
 10
0.0
 20
0.0
 30
0.0
  9
$PUCSBASE
  2

  9
$PUCSNAME
  2

  9
$PUCSORG
 10
0.0
 20
0.0
 30
0.0
  9
$PUCSXDIR
 10
1.0
 20
0.0
 30
0.0
  9
$PUCSYDIR
 10
0.0
 20
1.0
 30
0.0
  9
$PUCSORTHOREF
  2

  9
$PUCSORTHOVIEW
 70
0
  9
$PUCSORGTOP
 10
0.0
 20
0.0
 30
0.0
  9
$PUCSORGBOTTOM
 10
0.0
 20
0.0
 30
0.0
  9
$PUCSORGLEFT
 10
0.0
 20
0.0
 30
0.0
  9
$PUCSORGRIGHT
 10
0.0
 20
0.0
 30
0.0
  9
$PUCSORGFRONT
 10
0.0
 20
0.0
 30
0.0
  9
$PUCSORGBACK
 10
0.0
 20
0.0
 30
0.0
  9
$USERI1
 70
0
  9
$USERI2
 70
0
  9
$USERI3
 70
0
  9
$USERI4
 70
0
  9
$USERI5
 70
0
  9
$USERR1
 40
0.0
  9
$USERR2
 40
0.0
  9
$USERR3
 40
0.0
  9
$USERR4
 40
0.0
  9
$USERR5
 40
0.0
  9
$WORLDVIEW
 70
1
  9
$SHADEDGE
 70
3
  9
$SHADEDIF
 70
70
  9
$TILEMODE
 70
1
  9
$MAXACTVP
 70
64
  9
$PINSBASE
 10
0.0
 20
0.0
 30
0.0
  9
$PLIMCHECK
 70
0
  9
$PEXTMIN
 10
1e+20
 20
1e+20
 30
1e+20
  9
$PEXTMAX
 10
-1e+20
 20
-1e+20
 30
-1e+20
  9
$PLIMMIN
 10
0.0
 20
0.0
  9
$PLIMMAX
 10
420.0
 20
297.0
  9
$UNITMODE
 70
0
  9
$VISRETAIN
 70
1
  9
$PLINEGEN
 70
0
  9
$PSLTSCALE
 70
1
  9
$TREEDEPTH
 70
3020
  9
$CMLSTYLE
  2
Standard
  9
$CMLJUST
 70
0
  9
$CMLSCALE
 40
20.0
  9
$PROXYGRAPHICS
 70
1
  9
$MEASUREMENT
 70
1
  9
$CELWEIGHT
370
-1
  9
$ENDCAPS
280
0
  9
$JOINSTYLE
280
0
  9
$LWDISPLAY
290
0
  9
$INSUNITS
 70
6
  9
$HYPERLINKBASE
  1

  9
$STYLESHEET
  1

  9
$XEDIT
290
1
  9
$CEPSNTYPE
380
0
  9
$PSTYLEMODE
290
1
  9
$FINGERPRINTGUID
  2
{329695EF-5983-4B13-BA39-FC9A36F57F98}
  9
$VERSIONGUID
  2
{4101D3D1-4530-48C4-9D72-AACCCD31213C}
  9
$EXTNAMES
290
1
  9
$PSVPSCALE
 40
0.0
  9
$OLESTARTUP
290
0
  0
ENDSEC
  0
SECTION
  2
CLASSES
  0
CLASS
  1
ACDBDICTIONARYWDFLT
  2
AcDbDictionaryWithDefault
  3
ObjectDBX Classes
 90
0
280
0
281
0
  0
CLASS
  1
SUN
  2
AcDbSun
  3
SCENEOE
 90
1153
280
0
281
0
  0
CLASS
  1
VISUALSTYLE
  2
AcDbVisualStyle
  3
ObjectDBX Classes
 90
4095
280
0
281
0
  0
CLASS
  1
MATERIAL
  2
AcDbMaterial
  3
ObjectDBX Classes
 90
1153
280
0
281
0
  0
CLASS
  1
SCALE
  2
AcDbScale
  3
ObjectDBX Classes
 90
1153
280
0
281
0
  0
CLASS
  1
TABLESTYLE
  2
AcDbTableStyle
  3
ObjectDBX Classes
 90
4095
280
0
281
0
  0
CLASS
  1
MLEADERSTYLE
  2
AcDbMLeaderStyle
  3
ACDB_MLEADERSTYLE_CLASS
 90
4095
280
0
281
0
  0
CLASS
  1
DICTIONARYVAR
  2
AcDbDictionaryVar
  3
ObjectDBX Classes
 90
0
280
0
281
0
  0
CLASS
  1
CELLSTYLEMAP
  2
AcDbCellStyleMap
  3
ObjectDBX Classes
 90
1152
280
0
281
0
  0
CLASS
  1
MENTALRAYRENDERSETTINGS
  2
AcDbMentalRayRenderSettings
  3
SCENEOE
 90
1024
280
0
281
0
  0
CLASS
  1
ACDBDETAILVIEWSTYLE
  2
AcDbDetailViewStyle
  3
ObjectDBX Classes
 90
1025
280
0
281
0
  0
CLASS
  1
ACDBSECTIONVIEWSTYLE
  2
AcDbSectionViewStyle
  3
ObjectDBX Classes
 90
1025
280
0
281
0
  0
CLASS
  1
RASTERVARIABLES
  2
AcDbRasterVariables
  3
ISM
 90
0
280
0
281
0
  0
CLASS
  1
ACDBPLACEHOLDER
  2
AcDbPlaceHolder
  3
ObjectDBX Classes
 90
0
280
0
281
0
  0
CLASS
  1
LAYOUT
  2
AcDbLayout
  3
ObjectDBX Classes
 90
0
280
0
281
0
  0
ENDSEC
  0
SECTION
  2
TABLES
  0
TABLE
  2
VPORT
  5
8
330
0
100
AcDbSymbolTable
 70
1
  0
VPORT
  5
23
330
8
100
AcDbSymbolTableRecord
100
AcDbViewportTableRecord
  2
*Active
 70
0
 10
0.0
 20
0.0
 11
1.0
 21
1.0
 12
0.0
 22
0.0
 13
0.0
 23
0.0
 14
0.5
 24
0.5
 15
0.5
 25
0.5
 16
0.0
 26
0.0
 36
1.0
 17
0.0
 27
0.0
 37
0.0
 40
1000.0
 41
1.34
 42
50.0
 43
0.0
 44
0.0
 50
0.0
 51
0.0
 71
0
 72
1000
 73
1
 74
3
 75
0
 76
0
 77
0
 78
0
281
0
 65
0
146
0.0
  0
ENDTAB
  0
TABLE
  2
LTYPE
  5
2
330
0
100
AcDbSymbolTable
 70
3
  0
LTYPE
  5
24
330
2
100
AcDbSymbolTableRecord
100
AcDbLinetypeTableRecord
  2
ByBlock
 70
0
  3

 72
65
 73
0
 40
0.0
  0
LTYPE
  5
25
330
2
100
AcDbSymbolTableRecord
100
AcDbLinetypeTableRecord
  2
ByLayer
 70
0
  3

 72
65
 73
0
 40
0.0
  0
LTYPE
  5
26
330
2
100
AcDbSymbolTableRecord
100
AcDbLinetypeTableRecord
  2
Continuous
 70
0
  3

 72
65
 73
0
 40
0.0
  0
ENDTAB
  0
TABLE
  2
LAYER
  5
1
330
0
100
AcDbSymbolTable
 70
2
  0
LAYER
  5
27
330
1
100
AcDbSymbolTableRecord
100
AcDbLayerTableRecord
  2
0
 70
0
 62
7
  6
Continuous
370
-3
390
13
  0
LAYER
  5
28
330
1
100
AcDbSymbolTableRecord
100
AcDbLayerTableRecord
  2
Defpoints
 70
0
 62
7
  6
Continuous
290
0
370
-3
390
13
  0
ENDTAB
  0
TABLE
  2
STYLE
  5
5
330
0
100
AcDbSymbolTable
 70
1
  0
STYLE
  5
29
330
5
100
AcDbSymbolTableRecord
100
AcDbTextStyleTableRecord
  2
Standard
 70
0
 40
0.0
 41
1.0
 50
0.0
 71
0
 42
2.5
  3
txt
  4

  0
ENDTAB
  0
TABLE
  2
VIEW
  5
7
330
0
100
AcDbSymbolTable
 70
0
  0
ENDTAB
  0
TABLE
  2
UCS
  5
6
330
0
100
AcDbSymbolTable
 70
0
  0
ENDTAB
  0
TABLE
  2
APPID
  5
3
330
0
100
AcDbSymbolTable
 70
3
  0
APPID
  5
2A
330
3
100
AcDbSymbolTableRecord
100
AcDbRegAppTableRecord
  2
ACAD
 70
0
  0
APPID
  5
2B7
330
3
100
AcDbSymbolTableRecord
100
AcDbRegAppTableRecord
  2
HATCHBACKGROUNDCOLOR
 70
0
  0
APPID
  5
2B8
330
3
100
AcDbSymbolTableRecord
100
AcDbRegAppTableRecord
  2
EZDXF
 70
0
  0
ENDTAB
  0
TABLE
  2
DIMSTYLE
  5
4
330
0
100
AcDbSymbolTable
 70
1
100
AcDbDimStyleTable
  0
DIMSTYLE
105
2B
330
4
100
AcDbSymbolTableRecord
100
AcDbDimStyleTableRecord
  2
Standard
 70
0
  3

  4

 40
1.0
 41
2.5
 42
0.625
 43
3.75
 44
1.25
 45
0.0
 46
0.0
 47
0.0
 48
0.0
140
2.5
141
2.5
142
0.0
143
0.03937007874
144
1.0
145
0.0
146
1.0
147
0.625
148
0.0
 71
0
 72
0
 73
0
 74
0
 75
0
 76
0
 77
1
 78
8
 79
3
170
0
171
3
172
1
173
0
174
0
175
0
176
0
177
0
178
0
179
2
271
2
272
2
273
2
274
3
275
0
276
0
277
2
278
44
279
0
280
0
281
0
282
0
283
0
284
8
285
0
286
0
288
0
289
3
371
-2
372
-2
  0
ENDTAB
  0
TABLE
  2
BLOCK_RECORD
  5
9
330
0
100
AcDbSymbolTable
 70
2
  0
BLOCK_RECORD
  5
17
330
9
100
AcDbSymbolTableRecord
100
AcDbBlockTableRecord
  2
*Model_Space
340
1A
  0
BLOCK_RECORD
  5
1B
330
9
100
AcDbSymbolTableRecord
100
AcDbBlockTableRecord
  2
*Paper_Space
340
1E
  0
ENDTAB
  0
ENDSEC
  0
SECTION
  2
BLOCKS
  0
BLOCK
  5
18
330
17
100
AcDbEntity
  8
0
100
AcDbBlockBegin
  2
*Model_Space
 70
0
 10
0.0
 20
0.0
 30
0.0
  3
*Model_Space
  1

  0
ENDBLK
  5
19
330
17
100
AcDbEntity
  8
0
100
AcDbBlockEnd
  0
BLOCK
  5
1C
330
1B
100
AcDbEntity
  8
0
100
AcDbBlockBegin
  2
*Paper_Space
 70
0
 10
0.0
 20
0.0
 30
0.0
  3
*Paper_Space
  1

  0
ENDBLK
  5
1D
330
1B
100
AcDbEntity
  8
0
100
AcDbBlockEnd
  0
ENDSEC
  0
SECTION
  2
ENTITIES
  0
LWPOLYLINE
  5
2F
330
17
100
AcDbEntity
  8
ROADS
100
AcDbPolyline
 90
2
 70
0
 10
626299.5786143362
 20
4836701.530124455
 10
626294.6765428219
 20
4836717.49031999
  0
LWPOLYLINE
  5
30
330
17
100
AcDbEntity
  8
ROADS
100
AcDbPolyline
 90
2
 70
0
 10
626008.1228291697
 20
4836778.2206522
 10
626000.5559105963
 20
4836801.709054846
  0
LWPOLYLINE
  5
31
330
17
100
AcDbEntity
  8
ROADS
100
AcDbPolyline
 90
2
 70
0
 10
626130.8240465489
 20
4836730.689034458
 10
626101.0358638334
 20
4836823.08017797
  0
LWPOLYLINE
  5
32
330
17
100
AcDbEntity
  8
ROADS
100
AcDbPolyline
 90
2
 70
0
 10
626050.9338073394
 20
4836812.689626014
 10
626070.5516372921
 20
4836751.3107583085
  0
LWPOLYLINE
  5
33
330
17
100
AcDbEntity
  8
ROADS
100
AcDbPolyline
 90
2
 70
0
 10
626244.7940503829
 20
4836707.378691326
 10
626201.5523718431
 20
4836841.684811099
  0
LWPOLYLINE
  5
34
330
17
100
AcDbEntity
  8
ROADS
100
AcDbPolyline
 90
2
 70
0
 10
626353.0758547377
 20
4836699.33127972
 10
626301.3221395001
 20
4836860.218948087
  0
LWPOLYLINE
  5
35
330
17
100
AcDbEntity
  8
ROADS
100
AcDbPolyline
 90
2
 70
0
 10
626149.3402755881
 20
4836833.003200395
 10
626186.1594514118
 20
4836717.372330574
  0
LWPOLYLINE
  5
36
330
17
100
AcDbEntity
  8
ROADS
100
AcDbPolyline
 90
2
 70
0
 10
626251.1773624211
 20
4836851.359703011
 10
626281.9950412805
 20
4836752.816110635
  0
LWPOLYLINE
  5
37
330
17
100
AcDbEntity
  8
ROADS
100
AcDbPolyline
 90
2
 70
0
 10
626149.3402755881
 20
4836833.003200395
 10
626101.0358638334
 20
4836823.08017797
  0
LWPOLYLINE
  5
38
330
17
100
AcDbEntity
  8
ROADS
100
AcDbPolyline
 90
2
 70
0
 10
626201.5523718431
 20
4836841.684811099
 10
626149.3402755881
 20
4836833.003200395
  0
LWPOLYLINE
  5
39
330
17
100
AcDbEntity
  8
ROADS
100
AcDbPolyline
 90
2
 70
0
 10
626101.0358638334
 20
4836823.08017797
 10
626086.4637071148
 20
4836869.66241783
  0
LWPOLYLINE
  5
3A
330
17
100
AcDbEntity
  8
ROADS
100
AcDbPolyline
 90
2
 70
0
 10
626251.1773624211
 20
4836851.359703011
 10
626201.5523718431
 20
4836841.684811099
  0
LWPOLYLINE
  5
3B
330
17
100
AcDbEntity
  8
ROADS
100
AcDbPolyline
 90
2
 70
0
 10
626000.5559105963
 20
4836801.709054846
 10
625975.7304515259
 20
4836794.113468647
  0
LWPOLYLINE
  5
3C
330
17
100
AcDbEntity
  8
ROADS
100
AcDbPolyline
 90
2
 70
0
 10
626301.3221395001
 20
4836860.218948087
 10
626251.1773624211
 20
4836851.359703011
  0
LWPOLYLINE
  5
3D
330
17
100
AcDbEntity
  8
ROADS
100
AcDbPolyline
 90
2
 70
0
 10
626201.5523718431
 20
4836841.684811099
 10
626186.8384342231
 20
4836888.696525823
  0
LWPOLYLINE
  5
3E
330
17
100
AcDbEntity
  8
ROADS
100
AcDbPolyline
 90
2
 70
0
 10
626400.4150226845
 20
4836880.183941367
 10
626301.3221395001
 20
4836860.218948087
  0
LWPOLYLINE
  5
3F
330
17
100
AcDbEntity
  8
ROADS
100
AcDbPolyline
 90
2
 70
0
 10
626186.8384342231
 20
4836888.696525823
 10
626086.4637071148
 20
4836869.66241783
  0
LWPOLYLINE
  5
40
330
17
100
AcDbEntity
  8
ROADS
100
AcDbPolyline
 90
2
 70
0
 10
626301.3221395001
 20
4836860.218948087
 10
626286.319203476
 20
4836908.003496145
  0
LWPOLYLINE
  5
41
330
17
100
AcDbEntity
  8
ROADS
100
AcDbPolyline
 90
2
 70
0
 10
626257.9631201683
 20
4836902.661439497
 10
626186.8384342231
 20
4836888.696525823
  0
LWPOLYLINE
  5
42
330
17
100
AcDbEntity
  8
ROADS
100
AcDbPolyline
 90
2
 70
0
 10
626286.319203476
 20
4836908.003496145
 10
626257.9631201683
 20
4836902.661439497
  0
LWPOLYLINE
  5
43
330
17
100
AcDbEntity
  8
ROADS
100
AcDbPolyline
 90
2
 70
0
 10
626349.7388608668
 20
4836919.788963915
 10
626286.319203476
 20
4836908.003496145
  0
LWPOLYLINE
  5
44
330
17
100
AcDbEntity
  8
ROADS
100
AcDbPolyline
 90
2
 70
0
 10
626257.9631201683
 20
4836902.661439497
 10
626245.3874339771
 20
4836942.310388695
  0
LWPOLYLINE
  5
45
330
17
100
AcDbEntity
  8
ROADS
100
AcDbPolyline
 90
2
 70
0
 10
626385.8795260522
 20
4836926.396861493
 10
626349.7388608668
 20
4836919.788963915
  0
LWPOLYLINE
  5
46
330
17
100
AcDbEntity
  8
ROADS
100
AcDbPolyline
 90
2
 70
0
 10
626050.9338073394
 20
4836812.689626014
 10
626000.5559105963
 20
4836801.709054846
  0
LWPOLYLINE
  5
47
330
17
100
AcDbEntity
  8
ROADS
100
AcDbPolyline
 90
2
 70
0
 10
626101.0358638334
 20
4836823.08017797
 10
626050.9338073394
 20
4836812.689626014
  0
LWPOLYLINE
  5
48
330
17
100
AcDbEntity
  8
ROADS
100
AcDbPolyline
 90
2
 70
0
 10
626000.5559105963
 20
4836801.709054846
 10
625985.6702768067
 20
4836849.616690636
  0
LWPOLYLINE
  5
49
330
17
100
AcDbEntity
  8
ROADS
100
AcDbPolyline
 90
2
 70
0
 10
625985.6702768067
 20
4836849.616690636
 10
625918.1913441777
 20
4836827.733196972
  0
LWPOLYLINE
  5
4A
330
17
100
AcDbEntity
  8
ROADS
100
AcDbPolyline
 90
2
 70
0
 10
626086.4637071148
 20
4836869.66241783
 10
625985.6702768067
 20
4836849.616690636
  0
LWPOLYLINE
  5
4B
330
17
100
AcDbEntity
  8
ROADS
100
AcDbPolyline
 90
2
 70
0
 10
625909.64440407
 20
4836911.912609538
 10
625819.8977420568
 20
4836903.925595627
  0
LWPOLYLINE
  5
4C
330
17
100
AcDbEntity
  8
ROADS
100
AcDbPolyline
 90
2
 70
0
 10
626001.6370716667
 20
4836920.6335517755
 10
625909.64440407
 20
4836911.912609538
  0
LWPOLYLINE
  5
4D
330
17
100
AcDbEntity
  8
ROADS
100
AcDbPolyline
 90
2
 70
0
 10
626101.0642025874
 20
4836961.5958235655
 10
626001.6370716667
 20
4836920.6335517755
  0
LWPOLYLINE
  5
4E
330
17
100
AcDbEntity
  8
ROADS
100
AcDbPolyline
 90
2
 70
0
 10
625909.64440407
 20
4836911.912609538
 10
625870.8986200272
 20
4837040.7964790845
  0
LWPOLYLINE
  5
4F
330
17
100
AcDbEntity
  8
ROADS
100
AcDbPolyline
 90
2
 70
0
 10
626001.6370716667
 20
4836920.6335517755
 10
625955.7139629036
 20
4837053.990931615
  0
LWPOLYLINE
  5
50
330
17
100
AcDbEntity
  8
ROADS
100
AcDbPolyline
 90
2
 70
0
 10
626349.7388608668
 20
4836919.788963915
 10
626337.05436621
 20
4836960.588024224
  0
LWPOLYLINE
  5
51
330
17
100
AcDbEntity
  8
ROADS
100
AcDbPolyline
 90
3
 70
0
 10
626245.3874339771
 20
4836942.310388695
 10
626118.3875255913
 20
4836920.599660964
 10
626101.0642025874
 20
4836961.5958235655
  0
LWPOLYLINE
  5
52
330
17
100
AcDbEntity
  8
ROADS
100
AcDbPolyline
 90
2
 70
0
 10
626337.05436621
 20
4836960.588024224
 10
626245.3874339771
 20
4836942.310388695
  0
LWPOLYLINE
  5
53
330
17
100
AcDbEntity
  8
ROADS
100
AcDbPolyline
 90
2
 70
0
 10
626245.3874339771
 20
4836942.310388695
 10
626236.0333660758
 20
4836973.087065138
  0
LWPOLYLINE
  5
54
330
17
100
AcDbEntity
  8
ROADS
100
AcDbPolyline
 90
2
 70
0
 10
626236.0333660758
 20
4836973.087065138
 10
626232.8119432537
 20
4836985.1005242355
  0
LWPOLYLINE
  5
55
330
17
100
AcDbEntity
  8
ROADS
100
AcDbPolyline
 90
2
 70
0
 10
626133.0708053585
 20
4836998.66375904
 10
626101.0642025874
 20
4836961.5958235655
  0
LWPOLYLINE
  5
56
330
17
100
AcDbEntity
  8
ROADS
100
AcDbPolyline
 90
2
 70
0
 10
626337.05436621
 20
4836960.588024224
 10
626322.9482090807
 20
4837002.635448487
  0
LWPOLYLINE
  5
57
330
17
100
AcDbEntity
  8
ROADS
100
AcDbPolyline
 90
2
 70
0
 10
626236.0333660758
 20
4836973.087065138
 10
626133.0708053585
 20
4836998.66375904
  0
LWPOLYLINE
  5
58
330
17
100
AcDbEntity
  8
ROADS
100
AcDbPolyline
 90
2
 70
0
 10
626322.9482090807
 20
4837002.635448487
 10
626232.8119432537
 20
4836985.1005242355
  0
LWPOLYLINE
  5
59
330
17
100
AcDbEntity
  8
ROADS
100
AcDbPolyline
 90
2
 70
0
 10
626232.8119432537
 20
4836985.1005242355
 10
626196.135799378
 20
4837098.3020098945
  0
LWPOLYLINE
  5
5A
330
17
100
AcDbEntity
  8
ROADS
100
AcDbPolyline
 90
2
 70
0
 10
625816.3860511404
 20
4836907.029746275
 10
625781.7903609858
 20
4837011.768491072
  0
LWPOLYLINE
  5
5B
330
17
100
AcDbEntity
  8
ROADS
100
AcDbPolyline
 90
2
 70
0
 10
625643.5393811685
 20
4837131.275394688
 10
625643.2336560332
 20
4837132.199942126
  0
LWPOLYLINE
  5
5C
330
17
100
AcDbEntity
  8
ROADS
100
AcDbPolyline
 90
2
 70
0
 10
625781.7903609858
 20
4837011.768491072
 10
625732.2821963361
 20
4837161.81790501
  0
LWPOLYLINE
  5
5D
330
17
100
AcDbEntity
  8
ROADS
100
AcDbPolyline
 90
2
 70
0
 10
625643.2336560332
 20
4837132.199942126
 10
625643.1056558788
 20
4837132.15800917
  0
LWPOLYLINE
  5
5E
330
17
100
AcDbEntity
  8
ROADS
100
AcDbPolyline
 90
2
 70
0
 10
625870.8986200272
 20
4837040.7964790845
 10
625781.7903609858
 20
4837011.768491072
  0
LWPOLYLINE
  5
5F
330
17
100
AcDbEntity
  8
ROADS
100
AcDbPolyline
 90
4
 70
0
 10
625955.7139629036
 20
4837053.990931615
 10
626002.1495468352
 20
4837067.104376403
 10
626028.9140792213
 20
4836992.503986371
 10
626065.8293514927
 20
4836996.313728878
  0
LWPOLYLINE
  5
60
330
17
100
AcDbEntity
  8
ROADS
100
AcDbPolyline
 90
2
 70
0
 10
625950.4901771218
 20
4837069.667885304
 10
625870.8986200272
 20
4837040.7964790845
  0
LWPOLYLINE
  5
61
330
17
100
AcDbEntity
  8
ROADS
100
AcDbPolyline
 90
2
 70
0
 10
625955.7139629036
 20
4837053.990931615
 10
625950.4901771218
 20
4837069.667885304
  0
LWPOLYLINE
  5
62
330
17
100
AcDbEntity
  8
ROADS
100
AcDbPolyline
 90
2
 70
0
 10
625870.8986200272
 20
4837040.7964790845
 10
625819.9149690394
 20
4837190.977255263
  0
LWPOLYLINE
  5
63
330
17
100
AcDbEntity
  8
ROADS
100
AcDbPolyline
 90
4
 70
0
 10
626133.0708053585
 20
4836998.66375904
 10
626057.1812850281
 20
4837071.112733124
 10
626004.4936374915
 20
4837090.444127826
 10
625951.3057079449
 20
4837253.902870421
  0
LWPOLYLINE
  5
64
330
17
100
AcDbEntity
  8
ROADS
100
AcDbPolyline
 90
2
 70
0
 10
625950.4901771218
 20
4837069.667885304
 10
625898.7926476579
 20
4837227.939754271
  0
LWPOLYLINE
  5
65
330
17
100
AcDbEntity
  8
ROADS
100
AcDbPolyline
 90
2
 70
0
 10
625898.7926476579
 20
4837227.939754271
 10
625819.9149690394
 20
4837190.977255263
  0
LWPOLYLINE
  5
66
330
17
100
AcDbEntity
  8
ROADS
100
AcDbPolyline
 90
2
 70
0
 10
625951.3057079449
 20
4837253.902870421
 10
625898.7926476579
 20
4837227.939754271
  0
LWPOLYLINE
  5
67
330
17
100
AcDbEntity
  8
ROADS
100
AcDbPolyline
 90
2
 70
0
 10
626040.0164138228
 20
4837283.182762505
 10
625951.3057079449
 20
4837253.902870421
  0
LWPOLYLINE
  5
68
330
17
100
AcDbEntity
  8
ROADS
100
AcDbPolyline
 90
2
 70
0
 10
626322.9482090807
 20
4837002.635448487
 10
626305.7120358509
 20
4837107.551000704
  0
LWPOLYLINE
  5
69
330
17
100
AcDbEntity
  8
ROADS
100
AcDbPolyline
 90
2
 70
0
 10
626305.7120358509
 20
4837107.551000704
 10
626334.5010588206
 20
4837143.645231545
  0
LWPOLYLINE
  5
6A
330
17
100
AcDbEntity
  8
ROADS
100
AcDbPolyline
 90
2
 70
0
 10
626196.135799378
 20
4837098.3020098945
 10
626169.4321238025
 20
4837182.586100427
  0
LWPOLYLINE
  5
6B
330
17
100
AcDbEntity
  8
ROADS
100
AcDbPolyline
 90
2
 70
0
 10
626375.6136810773
 20
4837138.934886528
 10
626334.5010588206
 20
4837143.645231545
  0
LWPOLYLINE
  5
6C
330
17
100
AcDbEntity
  8
ROADS
100
AcDbPolyline
 90
2
 70
0
 10
626375.6136810773
 20
4837138.934886528
 10
626361.6366291967
 20
4837181.915698694
  0
LWPOLYLINE
  5
6D
330
17
100
AcDbEntity
  8
ROADS
100
AcDbPolyline
 90
2
 70
0
 10
626334.5010588206
 20
4837143.645231545
 10
626361.6366291967
 20
4837181.915698694
  0
LWPOLYLINE
  5
6E
330
17
100
AcDbEntity
  8
ROADS
100
AcDbPolyline
 90
3
 70
0
 10
626305.7120358509
 20
4837107.551000704
 10
626266.8896697611
 20
4837127.684176059
 10
626237.054088002
 20
4837229.3716768315
  0
LWPOLYLINE
  5
6F
330
17
100
AcDbEntity
  8
ROADS
100
AcDbPolyline
 90
3
 70
0
 10
626196.135799378
 20
4837098.3020098945
 10
626080.5329322352
 20
4837159.413174267
 10
626040.0164138228
 20
4837283.182762505
  0
LWPOLYLINE
  5
70
330
17
100
AcDbEntity
  8
ROADS
100
AcDbPolyline
 90
2
 70
0
 10
626237.054088002
 20
4837229.3716768315
 10
626169.4321238025
 20
4837182.586100427
  0
LWPOLYLINE
  5
71
330
17
100
AcDbEntity
  8
ROADS
100
AcDbPolyline
 90
2
 70
0
 10
626361.6366291967
 20
4837181.915698694
 10
626332.5743190874
 20
4837270.870450417
  0
LWPOLYLINE
  5
72
330
17
100
AcDbEntity
  8
ROADS
100
AcDbPolyline
 90
2
 70
0
 10
625732.2821963361
 20
4837161.81790501
 10
625643.2336560332
 20
4837132.199942126
  0
LWPOLYLINE
  5
73
330
17
100
AcDbEntity
  8
ROADS
100
AcDbPolyline
 90
2
 70
0
 10
625819.9149690394
 20
4837190.977255263
 10
625732.2821963361
 20
4837161.81790501
  0
LWPOLYLINE
  5
74
330
17
100
AcDbEntity
  8
ROADS
100
AcDbPolyline
 90
2
 70
0
 10
625643.2336560332
 20
4837132.199942126
 10
625598.8401432952
 20
4837265.471806721
  0
LWPOLYLINE
  5
75
330
17
100
AcDbEntity
  8
ROADS
100
AcDbPolyline
 90
2
 70
0
 10
625732.2821963361
 20
4837161.81790501
 10
625688.2525828126
 20
4837292.883255046
  0
LWPOLYLINE
  5
76
330
17
100
AcDbEntity
  8
ROADS
100
AcDbPolyline
 90
2
 70
0
 10
625819.9149690394
 20
4837190.977255263
 10
625776.8447288533
 20
4837320.751910243
  0
LWPOLYLINE
  5
77
330
17
100
AcDbEntity
  8
ROADS
100
AcDbPolyline
 90
2
 70
0
 10
625598.8401432952
 20
4837265.471806721
 10
625588.9199860996
 20
4837262.302550641
  0
LWPOLYLINE
  5
78
330
17
100
AcDbEntity
  8
ROADS
100
AcDbPolyline
 90
2
 70
0
 10
625688.2525828126
 20
4837292.883255046
 10
625598.8401432952
 20
4837265.471806721
  0
LWPOLYLINE
  5
79
330
17
100
AcDbEntity
  8
ROADS
100
AcDbPolyline
 90
2
 70
0
 10
625598.8401432952
 20
4837265.471806721
 10
625587.3040044841
 20
4837310.373764006
  0
LWPOLYLINE
  5
7A
330
17
100
AcDbEntity
  8
ROADS
100
AcDbPolyline
 90
2
 70
0
 10
625587.3040044841
 20
4837310.373764006
 10
625574.9227535465
 20
4837306.416946252
  0
LWPOLYLINE
  5
7B
330
17
100
AcDbEntity
  8
ROADS
100
AcDbPolyline
 90
2
 70
0
 10
625776.8447288533
 20
4837320.751910243
 10
625688.2525828126
 20
4837292.883255046
  0
LWPOLYLINE
  5
7C
330
17
100
AcDbEntity
  8
ROADS
100
AcDbPolyline
 90
2
 70
0
 10
625688.2525828126
 20
4837292.883255046
 10
625674.6934463897
 20
4837337.750638548
  0
LWPOLYLINE
  5
7D
330
17
100
AcDbEntity
  8
ROADS
100
AcDbPolyline
 90
2
 70
0
 10
625674.6934463897
 20
4837337.750638548
 10
625587.3040044841
 20
4837310.373764006
  0
LWPOLYLINE
  5
7E
330
17
100
AcDbEntity
  8
ROADS
100
AcDbPolyline
 90
2
 70
0
 10
625587.3040044841
 20
4837310.373764006
 10
625578.0834589341
 20
4837351.821394961
  0
LWPOLYLINE
  5
7F
330
17
100
AcDbEntity
  8
ROADS
100
AcDbPolyline
 90
2
 70
0
 10
625578.0834589341
 20
4837351.821394961
 10
625562.5440729636
 20
4837347.363286434
  0
LWPOLYLINE
  5
80
330
17
100
AcDbEntity
  8
ROADS
100
AcDbPolyline
 90
2
 70
0
 10
626169.4321238025
 20
4837182.586100427
 10
626131.5901063283
 20
4837298.759636142
  0
LWPOLYLINE
  5
81
330
17
100
AcDbEntity
  8
ROADS
100
AcDbPolyline
 90
3
 70
0
 10
626332.5743190874
 20
4837270.870450417
 10
626262.4206116532
 20
4837255.084906368
 10
626237.054088002
 20
4837229.3716768315
  0
LWPOLYLINE
  5
82
330
17
100
AcDbEntity
  8
ROADS
100
AcDbPolyline
 90
2
 70
0
 10
626332.5743190874
 20
4837270.870450417
 10
626309.9839330136
 20
4837348.95557721
  0
LWPOLYLINE
  5
83
330
17
100
AcDbEntity
  8
ROADS
100
AcDbPolyline
 90
4
 70
0
 10
626309.9839330136
 20
4837348.95557721
 10
626270.9909176534
 20
4837348.994448737
 10
626199.9304413628
 20
4837312.346261881
 10
626131.5901063283
 20
4837298.759636142
  0
LWPOLYLINE
  5
84
330
17
100
AcDbEntity
  8
ROADS
100
AcDbPolyline
 90
2
 70
0
 10
626131.5901063283
 20
4837298.759636142
 10
626106.3334512461
 20
4837374.639368895
  0
LWPOLYLINE
  5
85
330
17
100
AcDbEntity
  8
ROADS
100
AcDbPolyline
 90
2
 70
0
 10
626406.0129939539
 20
4837371.332454569
 10
626309.9839330136
 20
4837348.95557721
  0
LWPOLYLINE
  5
86
330
17
100
AcDbEntity
  8
ROADS
100
AcDbPolyline
 90
2
 70
0
 10
626309.9839330136
 20
4837348.95557721
 10
626280.7816150312
 20
4837432.599454793
  0
LWPOLYLINE
  5
87
330
17
100
AcDbEntity
  8
ROADS
100
AcDbPolyline
 90
2
 70
0
 10
626106.3334512461
 20
4837374.639368895
 10
626089.609980962
 20
4837423.6608263105
  0
LWPOLYLINE
  5
88
330
17
100
AcDbEntity
  8
ROADS
100
AcDbPolyline
 90
2
 70
0
 10
626280.7816150312
 20
4837432.599454793
 10
626106.3334512461
 20
4837374.639368895
  0
LWPOLYLINE
  5
89
330
17
100
AcDbEntity
  8
ROADS
100
AcDbPolyline
 90
2
 70
0
 10
626265.295921335
 20
4837479.369185511
 10
626089.609980962
 20
4837423.6608263105
  0
LWPOLYLINE
  5
8A
330
17
100
AcDbEntity
  8
ROADS
100
AcDbPolyline
 90
2
 70
0
 10
625898.7926476579
 20
4837227.939754271
 10
625859.0049002342
 20
4837347.770217601
  0
LWPOLYLINE
  5
8B
330
17
100
AcDbEntity
  8
ROADS
100
AcDbPolyline
 90
2
 70
0
 10
626131.5901063283
 20
4837298.759636142
 10
626040.0164138228
 20
4837283.182762505
  0
LWPOLYLINE
  5
8C
330
17
100
AcDbEntity
  8
ROADS
100
AcDbPolyline
 90
2
 70
0
 10
625859.0049002342
 20
4837347.770217601
 10
625776.8447288533
 20
4837320.751910243
  0
LWPOLYLINE
  5
8D
330
17
100
AcDbEntity
  8
ROADS
100
AcDbPolyline
 90
2
 70
0
 10
625859.0049002342
 20
4837347.770217601
 10
625902.6839543467
 20
4837362.229930023
  0
LWPOLYLINE
  5
8E
330
17
100
AcDbEntity
  8
ROADS
100
AcDbPolyline
 90
2
 70
0
 10
625859.0049002342
 20
4837347.770217601
 10
625843.4447084197
 20
4837393.186467345
  0
LWPOLYLINE
  5
8F
330
17
100
AcDbEntity
  8
ROADS
100
AcDbPolyline
 90
2
 70
0
 10
625843.4447084197
 20
4837393.186467345
 10
625764.7410222674
 20
4837367.5352346245
  0
LWPOLYLINE
  5
90
330
17
100
AcDbEntity
  8
ROADS
100
AcDbPolyline
 90
2
 70
0
 10
625856.4819675221
 20
4837398.135515938
 10
625843.4447084197
 20
4837393.186467345
  0
LWPOLYLINE
  5
91
330
17
100
AcDbEntity
  8
ROADS
100
AcDbPolyline
 90
2
 70
0
 10
625941.0139907213
 20
4837427.105854115
 10
625856.4819675221
 20
4837398.135515938
  0
LWPOLYLINE
  5
92
330
17
100
AcDbEntity
  8
ROADS
100
AcDbPolyline
 90
2
 70
0
 10
626018.7365733943
 20
4837452.982884706
 10
625941.0139907213
 20
4837427.105854115
  0
LWPOLYLINE
  5
93
330
17
100
AcDbEntity
  8
ROADS
100
AcDbPolyline
 90
2
 70
0
 10
626089.609980962
 20
4837423.6608263105
 10
626073.1025226437
 20
4837470.47005551
  0
LWPOLYLINE
  5
94
330
17
100
AcDbEntity
  8
ROADS
100
AcDbPolyline
 90
2
 70
0
 10
626280.7816150312
 20
4837432.599454793
 10
626265.295921335
 20
4837479.369185511
  0
LWPOLYLINE
  5
95
330
17
100
AcDbEntity
  8
ROADS
100
AcDbPolyline
 90
2
 70
0
 10
626406.0129939539
 20
4837371.332454569
 10
626346.2593566016
 20
4837556.584912993
  0
LWPOLYLINE
  5
96
330
17
100
AcDbEntity
  8
ROADS
100
AcDbPolyline
 90
2
 70
0
 10
626171.4090447243
 20
4837502.114685002
 10
626090.9090608357
 20
4837475.751377029
  0
LWPOLYLINE
  5
97
330
17
100
AcDbEntity
  8
ROADS
100
AcDbPolyline
 90
2
 70
0
 10
626265.295921335
 20
4837479.369185511
 10
626252.6019580972
 20
4837526.494418843
  0
LWPOLYLINE
  5
98
330
17
100
AcDbEntity
  8
ROADS
100
AcDbPolyline
 90
2
 70
0
 10
626252.6019580972
 20
4837526.494418843
 10
626171.4090447243
 20
4837502.114685002
  0
LWPOLYLINE
  5
99
330
17
100
AcDbEntity
  8
ROADS
100
AcDbPolyline
 90
2
 70
0
 10
626346.2593566016
 20
4837556.584912993
 10
626252.6019580972
 20
4837526.494418843
  0
LWPOLYLINE
  5
9A
330
17
100
AcDbEntity
  8
ROADS
100
AcDbPolyline
 90
2
 70
0
 10
626252.6019580972
 20
4837526.494418843
 10
626234.544443126
 20
4837589.336582899
  0
LWPOLYLINE
  5
9B
330
17
100
AcDbEntity
  8
ROADS
100
AcDbPolyline
 90
2
 70
0
 10
626346.2593566016
 20
4837556.584912993
 10
626329.8805764088
 20
4837611.483979802
  0
LWPOLYLINE
  5
9C
330
17
100
AcDbEntity
  8
ROADS
100
AcDbPolyline
 90
2
 70
0
 10
626171.4090447243
 20
4837502.114685002
 10
626091.9789586494
 20
4837752.5749818375
  0
LWPOLYLINE
  5
9D
330
17
100
AcDbEntity
  8
ROADS
100
AcDbPolyline
 90
3
 70
0
 10
626329.8805764088
 20
4837611.483979802
 10
626312.7085316671
 20
4837620.553974095
 10
626282.3242795903
 20
4837711.54089059
  0
LWPOLYLINE
  5
9E
330
17
100
AcDbEntity
  8
ROADS
100
AcDbPolyline
 90
2
 70
0
 10
626073.1025226437
 20
4837470.47005551
 10
626018.7365733943
 20
4837452.982884706
  0
LWPOLYLINE
  5
9F
330
17
100
AcDbEntity
  8
ROADS
100
AcDbPolyline
 90
2
 70
0
 10
626090.9090608357
 20
4837475.751377029
 10
626073.1025226437
 20
4837470.47005551
  0
LWPOLYLINE
  5
A0
330
17
100
AcDbEntity
  8
ROADS
100
AcDbPolyline
 90
2
 70
0
 10
626018.7365733943
 20
4837452.982884706
 10
626004.4490809635
 20
4837499.635239256
  0
LWPOLYLINE
  5
A1
330
17
100
AcDbEntity
  8
ROADS
100
AcDbPolyline
 90
2
 70
0
 10
626090.9090608357
 20
4837475.751377029
 10
626076.2438114259
 20
4837522.609921464
  0
LWPOLYLINE
  5
A2
330
17
100
AcDbEntity
  8
ROADS
100
AcDbPolyline
 90
2
 70
0
 10
626076.2438114259
 20
4837522.609921464
 10
626004.4490809635
 20
4837499.635239256
  0
LWPOLYLINE
  5
A3
330
17
100
AcDbEntity
  8
ROADS
100
AcDbPolyline
 90
2
 70
0
 10
625941.0139907213
 20
4837427.105854115
 10
625863.7007341832
 20
4837679.468387381
  0
LWPOLYLINE
  5
A4
330
17
100
AcDbEntity
  8
ROADS
100
AcDbPolyline
 90
2
 70
0
 10
625856.4819675221
 20
4837398.135515938
 10
625746.6277377144
 20
4837740.858720552
  0
LWPOLYLINE
  5
A5
330
17
100
AcDbEntity
  8
ROADS
100
AcDbPolyline
 90
2
 70
0
 10
626004.4490809635
 20
4837499.635239256
 10
625940.7793314338
 20
4837703.128695602
  0
LWPOLYLINE
  5
A6
330
17
100
AcDbEntity
  8
ROADS
100
AcDbPolyline
 90
2
 70
0
 10
626076.2438114259
 20
4837522.609921464
 10
626012.82985656
 20
4837727.054098958
  0
LWPOLYLINE
  5
A7
330
17
100
AcDbEntity
  8
ROADS
100
AcDbPolyline
 90
2
 70
0
 10
625863.7007341832
 20
4837679.468387381
 10
625824.721888335
 20
4837669.43689246
  0
LWPOLYLINE
  5
A8
330
17
100
AcDbEntity
  8
ROADS
100
AcDbPolyline
 90
2
 70
0
 10
625776.8447288533
 20
4837320.751910243
 10
625764.7410222674
 20
4837367.5352346245
  0
LWPOLYLINE
  5
A9
330
17
100
AcDbEntity
  8
ROADS
100
AcDbPolyline
 90
2
 70
0
 10
625764.7410222674
 20
4837367.5352346245
 10
625674.6934463897
 20
4837337.750638548
  0
LWPOLYLINE
  5
AA
330
17
100
AcDbEntity
  8
ROADS
100
AcDbPolyline
 90
2
 70
0
 10
625578.0834589341
 20
4837351.821394961
 10
625528.8990404765
 20
4837506.405489819
  0
LWPOLYLINE
  5
AB
330
17
100
AcDbEntity
  8
ROADS
100
AcDbPolyline
 90
2
 70
0
 10
625674.6934463897
 20
4837337.750638548
 10
625564.3317451522
 20
4837705.387922189
  0
LWPOLYLINE
  5
AC
330
17
100
AcDbEntity
  8
ROADS
100
AcDbPolyline
 90
2
 70
0
 10
625764.7410222674
 20
4837367.5352346245
 10
625652.790277634
 20
4837732.678227431
  0
LWPOLYLINE
  5
AD
330
17
100
AcDbEntity
  8
ROADS
100
AcDbPolyline
 90
2
 70
0
 10
625564.3317451522
 20
4837705.387922189
 10
625531.9777108266
 20
4837695.256352149
  0
LWPOLYLINE
  5
AE
330
17
100
AcDbEntity
  8
ROADS
100
AcDbPolyline
 90
2
 70
0
 10
625652.790277634
 20
4837732.678227431
 10
625564.3317451522
 20
4837705.387922189
  0
LWPOLYLINE
  5
AF
330
17
100
AcDbEntity
  8
ROADS
100
AcDbPolyline
 90
2
 70
0
 10
625652.790277634
 20
4837732.678227431
 10
625614.0290059538
 20
4837851.233036658
  0
LWPOLYLINE
  5
B0
330
17
100
AcDbEntity
  8
ROADS
100
AcDbPolyline
 90
2
 70
0
 10
625746.6277377144
 20
4837740.858720552
 10
625711.5351335865
 20
4837855.461682598
  0
LWPOLYLINE
  5
B1
330
17
100
AcDbEntity
  8
ROADS
100
AcDbPolyline
 90
2
 70
0
 10
625564.3317451522
 20
4837705.387922189
 10
625544.6224969674
 20
4837766.907641203
  0
LWPOLYLINE
  5
B2
330
17
100
AcDbEntity
  8
ROADS
100
AcDbPolyline
 90
2
 70
0
 10
625940.7793314338
 20
4837703.128695602
 10
625863.7007341832
 20
4837679.468387381
  0
LWPOLYLINE
  5
B3
330
17
100
AcDbEntity
  8
ROADS
100
AcDbPolyline
 90
2
 70
0
 10
626012.82985656
 20
4837727.054098958
 10
625940.7793314338
 20
4837703.128695602
  0
LWPOLYLINE
  5
B4
330
17
100
AcDbEntity
  8
ROADS
100
AcDbPolyline
 90
2
 70
0
 10
626091.9789586494
 20
4837752.5749818375
 10
626012.82985656
 20
4837727.054098958
  0
LWPOLYLINE
  5
B5
330
17
100
AcDbEntity
  8
ROADS
100
AcDbPolyline
 90
2
 70
0
 10
626012.82985656
 20
4837727.054098958
 10
625986.4815285283
 20
4837815.18274708
  0
LWPOLYLINE
  5
B6
330
17
100
AcDbEntity
  8
ROADS
100
AcDbPolyline
 90
2
 70
0
 10
625986.4815285283
 20
4837815.18274708
 10
625746.6277377144
 20
4837740.858720552
  0
LWPOLYLINE
  5
B7
330
17
100
AcDbEntity
  8
ROADS
100
AcDbPolyline
 90
2
 70
0
 10
625968.4857731663
 20
4837873.059673653
 10
625773.7289212904
 20
4837812.320967198
  0
LWPOLYLINE
  5
B8
330
17
100
AcDbEntity
  8
ROADS
100
AcDbPolyline
 90
2
 70
0
 10
625986.4815285283
 20
4837815.18274708
 10
625968.4857731663
 20
4837873.059673653
  0
LWPOLYLINE
  5
B9
330
17
100
AcDbEntity
  8
ROADS
100
AcDbPolyline
 90
2
 70
0
 10
625950.6523023878
 20
4837930.0914798435
 10
625711.5351335865
 20
4837855.461682598
  0
LWPOLYLINE
  5
BA
330
17
100
AcDbEntity
  8
ROADS
100
AcDbPolyline
 90
2
 70
0
 10
625968.4857731663
 20
4837873.059673653
 10
625950.6523023878
 20
4837930.0914798435
  0
LWPOLYLINE
  5
BB
330
17
100
AcDbEntity
  8
ROADS
100
AcDbPolyline
 90
2
 70
0
 10
626091.9789586494
 20
4837752.5749818375
 10
625968.3214783212
 20
4838158.331356285
  0
LWPOLYLINE
  5
BC
330
17
100
AcDbEntity
  8
ROADS
100
AcDbPolyline
 90
3
 70
0
 10
626279.0462765807
 20
4837890.4092147825
 10
626303.6262066492
 20
4837817.560420993
 10
626256.7580528138
 20
4837794.191430615
  0
LWPOLYLINE
  5
BD
330
17
100
AcDbEntity
  8
ROADS
100
AcDbPolyline
 90
3
 70
0
 10
626252.5439199215
 20
4837804.469827303
 10
626234.3564917635
 20
4837870.6768268915
 10
626279.0462765807
 20
4837890.4092147825
  0
LWPOLYLINE
  5
BE
330
17
100
AcDbEntity
  8
ROADS
100
AcDbPolyline
 90
2
 70
0
 10
626386.6392459715
 20
4837923.000989987
 10
626279.0462765807
 20
4837890.4092147825
  0
LWPOLYLINE
  5
BF
330
17
100
AcDbEntity
  8
ROADS
100
AcDbPolyline
 90
2
 70
0
 10
626279.0462765807
 20
4837890.4092147825
 10
626234.3564869537
 20
4838023.784885758
  0
LWPOLYLINE
  5
C0
330
17
100
AcDbEntity
  8
ROADS
100
AcDbPolyline
 90
2
 70
0
 10
626172.3411508482
 20
4837778.482837754
 10
626048.4000674181
 20
4838183.273114831
  0
LWPOLYLINE
  5
C1
330
17
100
AcDbEntity
  8
ROADS
100
AcDbPolyline
 90
2
 70
0
 10
626386.6392459715
 20
4837923.000989987
 10
626332.6308974625
 20
4838096.29654176
  0
LWPOLYLINE
  5
C2
330
17
100
AcDbEntity
  8
ROADS
100
AcDbPolyline
 90
2
 70
0
 10
626234.3564869537
 20
4838023.784885758
 10
626184.9516462461
 20
4838009.62553745
  0
LWPOLYLINE
  5
C3
330
17
100
AcDbEntity
  8
ROADS
100
AcDbPolyline
 90
2
 70
0
 10
626234.3564869537
 20
4838023.784885758
 10
626233.9176942521
 20
4838068.669605824
  0
LWPOLYLINE
  5
C4
330
17
100
AcDbEntity
  8
ROADS
100
AcDbPolyline
 90
3
 70
0
 10
626295.5986228297
 20
4838088.6703331135
 10
626307.1074523651
 20
4838048.741107147
 10
626282.8507447095
 20
4838041.014951837
  0
LWPOLYLINE
  5
C5
330
17
100
AcDbEntity
  8
ROADS
100
AcDbPolyline
 90
2
 70
0
 10
626295.5986228297
 20
4838088.6703331135
 10
626233.9176942521
 20
4838068.669605824
  0
LWPOLYLINE
  5
C6
330
17
100
AcDbEntity
  8
ROADS
100
AcDbPolyline
 90
2
 70
0
 10
625702.5557560392
 20
4837879.83869375
 10
625614.0290059538
 20
4837851.233036658
  0
LWPOLYLINE
  5
C7
330
17
100
AcDbEntity
  8
ROADS
100
AcDbPolyline
 90
2
 70
0
 10
625711.5351335865
 20
4837855.461682598
 10
625702.5557560392
 20
4837879.83869375
  0
LWPOLYLINE
  5
C8
330
17
100
AcDbEntity
  8
ROADS
100
AcDbPolyline
 90
2
 70
0
 10
625614.0290059538
 20
4837851.233036658
 10
625593.5715275732
 20
4837915.19421432
  0
LWPOLYLINE
  5
C9
330
17
100
AcDbEntity
  8
ROADS
100
AcDbPolyline
 90
2
 70
0
 10
625702.5557560392
 20
4837879.83869375
 10
625654.7161721613
 20
4838029.333776334
  0
LWPOLYLINE
  5
CA
330
17
100
AcDbEntity
  8
ROADS
100
AcDbPolyline
 90
2
 70
0
 10
625838.3668090696
 20
4838105.662615586
 10
625674.0656998821
 20
4838056.1832037885
  0
LWPOLYLINE
  5
CB
330
17
100
AcDbEntity
  8
ROADS
100
AcDbPolyline
 90
2
 70
0
 10
625950.6523023878
 20
4837930.0914798435
 10
625902.6496510641
 20
4838084.074298546
  0
LWPOLYLINE
  5
CC
330
17
100
AcDbEntity
  8
ROADS
100
AcDbPolyline
 90
3
 70
0
 10
625870.9706384717
 20
4838066.224323765
 10
625846.2602033254
 20
4838058.206953816
 10
625842.7630035713
 20
4838072.914557851
  0
LWPOLYLINE
  5
CD
330
17
100
AcDbEntity
  8
ROADS
100
AcDbPolyline
 90
2
 70
0
 10
625880.2501001115
 20
4838077.2317887945
 10
625870.9706384717
 20
4838066.224323765
  0
LWPOLYLINE
  5
CE
330
17
100
AcDbEntity
  8
ROADS
100
AcDbPolyline
 90
2
 70
0
 10
625870.9706384717
 20
4838066.224323765
 10
625866.6908929612
 20
4838079.853713288
  0
LWPOLYLINE
  5
CF
330
17
100
AcDbEntity
  8
ROADS
100
AcDbPolyline
 90
2
 70
0
 10
625866.6908929612
 20
4838079.853713288
 10
625842.7630035713
 20
4838072.914557851
  0
LWPOLYLINE
  5
D0
330
17
100
AcDbEntity
  8
ROADS
100
AcDbPolyline
 90
2
 70
0
 10
625880.2501001115
 20
4838077.2317887945
 10
625866.6908929612
 20
4838079.853713288
  0
LWPOLYLINE
  5
D1
330
17
100
AcDbEntity
  8
ROADS
100
AcDbPolyline
 90
2
 70
0
 10
625902.6496510641
 20
4838084.074298546
 10
625880.2501001115
 20
4838077.2317887945
  0
LWPOLYLINE
  5
D2
330
17
100
AcDbEntity
  8
ROADS
100
AcDbPolyline
 90
2
 70
0
 10
625842.7630035713
 20
4838072.914557851
 10
625838.3668090696
 20
4838105.662615586
  0
LWPOLYLINE
  5
D3
330
17
100
AcDbEntity
  8
ROADS
100
AcDbPolyline
 90
2
 70
0
 10
625902.6496510641
 20
4838084.074298546
 10
625890.5073486152
 20
4838122.092907098
  0
LWPOLYLINE
  5
D4
330
17
100
AcDbEntity
  8
ROADS
100
AcDbPolyline
 90
2
 70
0
 10
625890.5073486152
 20
4838122.092907098
 10
625838.3668090696
 20
4838105.662615586
  0
LWPOLYLINE
  5
D5
330
17
100
AcDbEntity
  8
ROADS
100
AcDbPolyline
 90
2
 70
0
 10
626181.4700976936
 20
4838101.59599962
 10
626193.4928051769
 20
4838061.675081988
  0
LWPOLYLINE
  5
D6
330
17
100
AcDbEntity
  8
ROADS
100
AcDbPolyline
 90
2
 70
0
 10
626233.9176942521
 20
4838068.669605824
 10
626220.578621984
 20
4838114.24605499
  0
LWPOLYLINE
  5
D7
330
17
100
AcDbEntity
  8
ROADS
100
AcDbPolyline
 90
2
 70
0
 10
626332.6308974625
 20
4838096.29654176
 10
626295.5986228297
 20
4838088.6703331135
  0
LWPOLYLINE
  5
D8
330
17
100
AcDbEntity
  8
ROADS
100
AcDbPolyline
 90
2
 70
0
 10
626181.4700976936
 20
4838101.59599962
 10
626159.5997274362
 20
4838094.523040384
  0
LWPOLYLINE
  5
D9
330
17
100
AcDbEntity
  8
ROADS
100
AcDbPolyline
 90
2
 70
0
 10
626412.1104023899
 20
4838117.403247101
 10
626332.6308974625
 20
4838096.29654176
  0
LWPOLYLINE
  5
DA
330
17
100
AcDbEntity
  8
ROADS
100
AcDbPolyline
 90
2
 70
0
 10
626220.578621984
 20
4838114.24605499
 10
626181.4700976936
 20
4838101.59599962
  0
LWPOLYLINE
  5
DB
330
17
100
AcDbEntity
  8
ROADS
100
AcDbPolyline
 90
2
 70
0
 10
626220.578621984
 20
4838114.24605499
 10
626189.8309553668
 20
4838213.817838254
  0
LWPOLYLINE
  5
DC
330
17
100
AcDbEntity
  8
ROADS
100
AcDbPolyline
 90
2
 70
0
 10
626332.6308974625
 20
4838096.29654176
 10
626275.1325605485
 20
4838284.669812613
  0
LWPOLYLINE
  5
DD
330
17
100
AcDbEntity
  8
ROADS
100
AcDbPolyline
 90
2
 70
0
 10
626189.8309553668
 20
4838213.817838254
 10
626048.4000674181
 20
4838183.273114831
  0
LWPOLYLINE
  5
DE
330
17
100
AcDbEntity
  8
ROADS
100
AcDbPolyline
 90
2
 70
0
 10
626189.8309553668
 20
4838213.817838254
 10
626176.6740458388
 20
4838258.555521137
  0
LWPOLYLINE
  5
DF
330
17
100
AcDbEntity
  8
ROADS
100
AcDbPolyline
 90
2
 70
0
 10
625829.439865935
 20
4838159.466617213
 10
625731.7940146817
 20
4838127.988685298
  0
LWPOLYLINE
  5
E0
330
17
100
AcDbEntity
  8
ROADS
100
AcDbPolyline
 90
2
 70
0
 10
625856.9216255441
 20
4838224.756441438
 10
625823.5641107598
 20
4838214.744752294
  0
LWPOLYLINE
  5
E1
330
17
100
AcDbEntity
  8
ROADS
100
AcDbPolyline
 90
2
 70
0
 10
625890.5073486152
 20
4838122.092907098
 10
625887.1164417751
 20
4838133.13522176
  0
LWPOLYLINE
  5
E2
330
17
100
AcDbEntity
  8
ROADS
100
AcDbPolyline
 90
2
 70
0
 10
625838.3668090696
 20
4838105.662615586
 10
625829.439865935
 20
4838159.466617213
  0
LWPOLYLINE
  5
E3
330
17
100
AcDbEntity
  8
ROADS
100
AcDbPolyline
 90
2
 70
0
 10
625968.3214783212
 20
4838158.331356285
 10
625887.1164417751
 20
4838133.13522176
  0
LWPOLYLINE
  5
E4
330
17
100
AcDbEntity
  8
ROADS
100
AcDbPolyline
 90
2
 70
0
 10
625887.1164417751
 20
4838133.13522176
 10
625874.4550205288
 20
4838174.033605436
  0
LWPOLYLINE
  5
E5
330
17
100
AcDbEntity
  8
ROADS
100
AcDbPolyline
 90
2
 70
0
 10
625874.4550205288
 20
4838174.033605436
 10
625829.439865935
 20
4838159.466617213
  0
LWPOLYLINE
  5
E6
330
17
100
AcDbEntity
  8
ROADS
100
AcDbPolyline
 90
2
 70
0
 10
626048.4000674181
 20
4838183.273114831
 10
625968.3214783212
 20
4838158.331356285
  0
LWPOLYLINE
  5
E7
330
17
100
AcDbEntity
  8
ROADS
100
AcDbPolyline
 90
2
 70
0
 10
625874.4550205288
 20
4838174.033605436
 10
625856.9216255441
 20
4838224.756441438
  0
LWPOLYLINE
  5
E8
330
17
100
AcDbEntity
  8
ROADS
100
AcDbPolyline
 90
2
 70
0
 10
625940.4746016017
 20
4838247.142897581
 10
625856.9216255441
 20
4838224.756441438
  0
LWPOLYLINE
  5
E9
330
17
100
AcDbEntity
  8
ROADS
100
AcDbPolyline
 90
2
 70
0
 10
626020.4850383719
 20
4838272.534469152
 10
625940.4746016017
 20
4838247.142897581
  0
LWPOLYLINE
  5
EA
330
17
100
AcDbEntity
  8
ROADS
100
AcDbPolyline
 90
2
 70
0
 10
625856.9216255441
 20
4838224.756441438
 10
625853.2890021547
 20
4838237.513431683
  0
LWPOLYLINE
  5
EB
330
17
100
AcDbEntity
  8
ROADS
100
AcDbPolyline
 90
2
 70
0
 10
626380.2322158631
 20
4838222.389963238
 10
626354.4765846146
 20
4838307.211194375
  0
LWPOLYLINE
  5
EC
330
17
100
AcDbEntity
  8
ROADS
100
AcDbPolyline
 90
2
 70
0
 10
626275.1325605485
 20
4838284.669812613
 10
626176.6740458388
 20
4838258.555521137
  0
LWPOLYLINE
  5
ED
330
17
100
AcDbEntity
  8
ROADS
100
AcDbPolyline
 90
2
 70
0
 10
626176.6740458388
 20
4838258.555521137
 10
626159.8021174456
 20
4838311.022465193
  0
LWPOLYLINE
  5
EE
330
17
100
AcDbEntity
  8
ROADS
100
AcDbPolyline
 90
2
 70
0
 10
626159.8021174456
 20
4838311.022465193
 10
626020.4850383719
 20
4838272.534469152
  0
LWPOLYLINE
  5
EF
330
17
100
AcDbEntity
  8
ROADS
100
AcDbPolyline
 90
2
 70
0
 10
626354.4765846146
 20
4838307.211194375
 10
626275.1325605485
 20
4838284.669812613
  0
LWPOLYLINE
  5
F0
330
17
100
AcDbEntity
  8
ROADS
100
AcDbPolyline
 90
2
 70
0
 10
626159.8021174456
 20
4838311.022465193
 10
626137.4463660212
 20
4838380.368679343
  0
LWPOLYLINE
  5
F1
330
17
100
AcDbEntity
  8
ROADS
100
AcDbPolyline
 90
2
 70
0
 10
626354.4765846146
 20
4838307.211194375
 10
626313.8149595535
 20
4838442.285859967
  0
LWPOLYLINE
  5
F2
330
17
100
AcDbEntity
  8
ROADS
100
AcDbPolyline
 90
2
 70
0
 10
626275.1325605485
 20
4838284.669812613
 10
626233.3918248795
 20
4838417.05940244
  0
LWPOLYLINE
  5
F3
330
17
100
AcDbEntity
  8
ROADS
100
AcDbPolyline
 90
2
 70
0
 10
625940.4746016017
 20
4838247.142897581
 10
625928.4410373875
 20
4838286.548078441
  0
LWPOLYLINE
  5
F4
330
17
100
AcDbEntity
  8
ROADS
100
AcDbPolyline
 90
2
 70
0
 10
626020.4850383719
 20
4838272.534469152
 10
626004.100753652
 20
4838324.817791407
  0
LWPOLYLINE
  5
F5
330
17
100
AcDbEntity
  8
ROADS
100
AcDbPolyline
 90
2
 70
0
 10
626552.8381817972
 20
4836725.3638701495
 10
626546.323681786
 20
4836745.412186591
  0
LWPOLYLINE
  5
F6
330
17
100
AcDbEntity
  8
ROADS
100
AcDbPolyline
 90
2
 70
0
 10
626713.4338308828
 20
4836773.342772145
 10
626712.7009697114
 20
4836775.649401386
  0
LWPOLYLINE
  5
F7
330
17
100
AcDbEntity
  8
ROADS
100
AcDbPolyline
 90
3
 70
0
 10
626680.4358183715
 20
4836762.900318632
 10
626679.8113243377
 20
4836764.8460449
 10
626712.7009697114
 20
4836775.649401386
  0
LWPOLYLINE
  5
F8
330
17
100
AcDbEntity
  8
ROADS
100
AcDbPolyline
 90
2
 70
0
 10
626456.3342251242
 20
4836706.455183596
 10
626400.4150226845
 20
4836880.183941367
  0
LWPOLYLINE
  5
F9
330
17
100
AcDbEntity
  8
ROADS
100
AcDbPolyline
 90
2
 70
0
 10
626667.1277207608
 20
4836779.658597658
 10
626546.323681786
 20
4836745.412186591
  0
LWPOLYLINE
  5
FA
330
17
100
AcDbEntity
  8
ROADS
100
AcDbPolyline
 90
2
 70
0
 10
626546.323681786
 20
4836745.412186591
 10
626507.9582038868
 20
4836864.159588927
  0
LWPOLYLINE
  5
FB
330
17
100
AcDbEntity
  8
ROADS
100
AcDbPolyline
 90
2
 70
0
 10
626450.2432802073
 20
4836887.855399973
 10
626489.8996858606
 20
4836762.313956242
  0
LWPOLYLINE
  5
FC
330
17
100
AcDbEntity
  8
ROADS
100
AcDbPolyline
 90
2
 70
0
 10
626733.749634599
 20
4836831.761398952
 10
626559.9050929442
 20
4836826.178613832
  0
LWPOLYLINE
  5
FD
330
17
100
AcDbEntity
  8
ROADS
100
AcDbPolyline
 90
2
 70
0
 10
626720.6642247946
 20
4836871.448192526
 10
626507.9582038868
 20
4836864.159588927
  0
LWPOLYLINE
  5
FE
330
17
100
AcDbEntity
  8
ROADS
100
AcDbPolyline
 90
2
 70
0
 10
626507.9582038868
 20
4836864.159588927
 10
626496.9995831492
 20
4836898.141469769
  0
LWPOLYLINE
  5
FF
330
17
100
AcDbEntity
  8
ROADS
100
AcDbPolyline
 90
2
 70
0
 10
626450.2432802073
 20
4836887.855399973
 10
626400.4150226845
 20
4836880.183941367
  0
LWPOLYLINE
  5
100
330
17
100
AcDbEntity
  8
ROADS
100
AcDbPolyline
 90
2
 70
0
 10
626496.9995831492
 20
4836898.141469769
 10
626450.2432802073
 20
4836887.855399973
  0
LWPOLYLINE
  5
101
330
17
100
AcDbEntity
  8
ROADS
100
AcDbPolyline
 90
2
 70
0
 10
626400.4150226845
 20
4836880.183941367
 10
626385.8795260522
 20
4836926.396861493
  0
LWPOLYLINE
  5
102
330
17
100
AcDbEntity
  8
ROADS
100
AcDbPolyline
 90
2
 70
0
 10
626747.9079785219
 20
4836782.233691853
 10
626746.5042571514
 20
4836786.75229841
  0
LWPOLYLINE
  5
103
330
17
100
AcDbEntity
  8
ROADS
100
AcDbPolyline
 90
2
 70
0
 10
626712.7009697114
 20
4836775.649401386
 10
626746.5042571514
 20
4836786.75229841
  0
LWPOLYLINE
  5
104
330
17
100
AcDbEntity
  8
ROADS
100
AcDbPolyline
 90
2
 70
0
 10
626746.5042571514
 20
4836786.75229841
 10
626738.1157190645
 20
4836818.33253238
  0
LWPOLYLINE
  5
105
330
17
100
AcDbEntity
  8
ROADS
100
AcDbPolyline
 90
3
 70
0
 10
626937.6661599131
 20
4836853.876960611
 10
626816.4017257517
 20
4836812.34572878
 10
626818.3259363568
 20
4836804.219888386
  0
LWPOLYLINE
  5
106
330
17
100
AcDbEntity
  8
ROADS
100
AcDbPolyline
 90
2
 70
0
 10
626738.1157190645
 20
4836818.33253238
 10
626733.749634599
 20
4836831.761398952
  0
LWPOLYLINE
  5
107
330
17
100
AcDbEntity
  8
ROADS
100
AcDbPolyline
 90
2
 70
0
 10
626733.749634599
 20
4836831.761398952
 10
626724.8863292681
 20
4836860.395867473
  0
LWPOLYLINE
  5
108
330
17
100
AcDbEntity
  8
ROADS
100
AcDbPolyline
 90
3
 70
0
 10
626937.6661599131
 20
4836853.876960611
 10
626928.5872138919
 20
4836879.006332361
 10
626738.1157190645
 20
4836818.33253238
  0
LWPOLYLINE
  5
109
330
17
100
AcDbEntity
  8
ROADS
100
AcDbPolyline
 90
2
 70
0
 10
626724.8863292681
 20
4836860.395867473
 10
626720.6642247946
 20
4836871.448192526
  0
LWPOLYLINE
  5
10A
330
17
100
AcDbEntity
  8
ROADS
100
AcDbPolyline
 90
2
 70
0
 10
627027.5040309837
 20
4836852.911978096
 10
626982.7635593051
 20
4836866.948713954
  0
LWPOLYLINE
  5
10B
330
17
100
AcDbEntity
  8
ROADS
100
AcDbPolyline
 90
2
 70
0
 10
626982.7635593051
 20
4836866.948713954
 10
626937.6661599131
 20
4836853.876960611
  0
LWPOLYLINE
  5
10C
330
17
100
AcDbEntity
  8
ROADS
100
AcDbPolyline
 90
2
 70
0
 10
627052.6836799214
 20
4836887.25476241
 10
626982.7635593051
 20
4836866.948713954
  0
LWPOLYLINE
  5
10D
330
17
100
AcDbEntity
  8
ROADS
100
AcDbPolyline
 90
2
 70
0
 10
627052.6836799214
 20
4836887.25476241
 10
627054.8270152395
 20
4836867.334292243
  0
LWPOLYLINE
  5
10E
330
17
100
AcDbEntity
  8
ROADS
100
AcDbPolyline
 90
2
 70
0
 10
627074.5150193946
 20
4836893.614910783
 10
627052.6836799214
 20
4836887.25476241
  0
LWPOLYLINE
  5
10F
330
17
100
AcDbEntity
  8
ROADS
100
AcDbPolyline
 90
2
 70
0
 10
627161.4018541116
 20
4836907.132897247
 10
627157.8649848513
 20
4836919.119632484
  0
LWPOLYLINE
  5
110
330
17
100
AcDbEntity
  8
ROADS
100
AcDbPolyline
 90
2
 70
0
 10
627117.2497475613
 20
4836907.048474635
 10
627074.5150193946
 20
4836893.614910783
  0
LWPOLYLINE
  5
111
330
17
100
AcDbEntity
  8
ROADS
100
AcDbPolyline
 90
2
 70
0
 10
627200.297988786
 20
4836927.977050421
 10
627199.3491880083
 20
4836931.306513183
  0
LWPOLYLINE
  5
112
330
17
100
AcDbEntity
  8
ROADS
100
AcDbPolyline
 90
2
 70
0
 10
627157.8649848513
 20
4836919.119632484
 10
627117.2497475613
 20
4836907.048474635
  0
LWPOLYLINE
  5
113
330
17
100
AcDbEntity
  8
ROADS
100
AcDbPolyline
 90
2
 70
0
 10
626982.7635593051
 20
4836866.948713954
 10
626952.1819153134
 20
4836994.022018574
  0
LWPOLYLINE
  5
114
330
17
100
AcDbEntity
  8
ROADS
100
AcDbPolyline
 90
2
 70
0
 10
627157.8649848513
 20
4836919.119632484
 10
627145.2011548956
 20
4836963.530388393
  0
LWPOLYLINE
  5
115
330
17
100
AcDbEntity
  8
ROADS
100
AcDbPolyline
 90
2
 70
0
 10
627117.2497475613
 20
4836907.048474635
 10
627093.429678416
 20
4836993.943782073
  0
LWPOLYLINE
  5
116
330
17
100
AcDbEntity
  8
ROADS
100
AcDbPolyline
 90
2
 70
0
 10
627199.3491880083
 20
4836931.306513183
 10
627187.4219426453
 20
4836975.742594931
  0
LWPOLYLINE
  5
117
330
17
100
AcDbEntity
  8
ROADS
100
AcDbPolyline
 90
2
 70
0
 10
627074.5150193946
 20
4836893.614910783
 10
627036.1096839897
 20
4837019.482201923
  0
LWPOLYLINE
  5
118
330
17
100
AcDbEntity
  8
ROADS
100
AcDbPolyline
 90
2
 70
0
 10
626720.6642247946
 20
4836871.448192526
 10
626707.9235271255
 20
4836912.700310975
  0
LWPOLYLINE
  5
119
330
17
100
AcDbEntity
  8
ROADS
100
AcDbPolyline
 90
3
 70
0
 10
626860.5698269962
 20
4836972.481136029
 10
626868.9113910866
 20
4836904.676834949
 10
626724.8863292681
 20
4836860.395867473
  0
LWPOLYLINE
  5
11A
330
17
100
AcDbEntity
  8
ROADS
100
AcDbPolyline
 90
2
 70
0
 10
626707.9235271255
 20
4836912.700310975
 10
626697.0809713633
 20
4836947.867381073
  0
LWPOLYLINE
  5
11B
330
17
100
AcDbEntity
  8
ROADS
100
AcDbPolyline
 90
2
 70
0
 10
626697.0809713633
 20
4836947.867381073
 10
626665.462890784
 20
4836947.489630584
  0
LWPOLYLINE
  5
11C
330
17
100
AcDbEntity
  8
ROADS
100
AcDbPolyline
 90
2
 70
0
 10
626860.5698269962
 20
4836972.481136029
 10
626697.0809713633
 20
4836947.867381073
  0
LWPOLYLINE
  5
11D
330
17
100
AcDbEntity
  8
ROADS
100
AcDbPolyline
 90
2
 70
0
 10
626932.6642102984
 20
4836990.510876252
 10
626860.5698269962
 20
4836972.481136029
  0
LWPOLYLINE
  5
11E
330
17
100
AcDbEntity
  8
ROADS
100
AcDbPolyline
 90
2
 70
0
 10
626665.462890784
 20
4836947.489630584
 10
626687.05134683
 20
4837027.337827561
  0
LWPOLYLINE
  5
11F
330
17
100
AcDbEntity
  8
ROADS
100
AcDbPolyline
 90
2
 70
0
 10
626952.1819153134
 20
4836994.022018574
 10
626932.6642102984
 20
4836990.510876252
  0
LWPOLYLINE
  5
120
330
17
100
AcDbEntity
  8
ROADS
100
AcDbPolyline
 90
2
 70
0
 10
626932.6642102984
 20
4836990.510876252
 10
626906.9379084609
 20
4837075.107853237
  0
LWPOLYLINE
  5
121
330
17
100
AcDbEntity
  8
ROADS
100
AcDbPolyline
 90
2
 70
0
 10
626808.4810680682
 20
4837046.673760901
 10
626687.05134683
 20
4837027.337827561
  0
LWPOLYLINE
  5
122
330
17
100
AcDbEntity
  8
ROADS
100
AcDbPolyline
 90
2
 70
0
 10
626707.9235271255
 20
4836912.700310975
 10
626496.9995831492
 20
4836898.141469769
  0
LWPOLYLINE
  5
123
330
17
100
AcDbEntity
  8
ROADS
100
AcDbPolyline
 90
2
 70
0
 10
626496.9995831492
 20
4836898.141469769
 10
626483.4215146884
 20
4836940.766500274
  0
LWPOLYLINE
  5
124
330
17
100
AcDbEntity
  8
ROADS
100
AcDbPolyline
 90
2
 70
0
 10
626440.956344725
 20
4836936.045350683
 10
626385.8795260522
 20
4836926.396861493
  0
LWPOLYLINE
  5
125
330
17
100
AcDbEntity
  8
ROADS
100
AcDbPolyline
 90
2
 70
0
 10
626483.4215146884
 20
4836940.766500274
 10
626440.956344725
 20
4836936.045350683
  0
LWPOLYLINE
  5
126
330
17
100
AcDbEntity
  8
ROADS
100
AcDbPolyline
 90
2
 70
0
 10
626541.4955048129
 20
4836944.664844977
 10
626483.4215146884
 20
4836940.766500274
  0
LWPOLYLINE
  5
127
330
17
100
AcDbEntity
  8
ROADS
100
AcDbPolyline
 90
2
 70
0
 10
626665.462890784
 20
4836947.489630584
 10
626541.4955048129
 20
4836944.664844977
  0
LWPOLYLINE
  5
128
330
17
100
AcDbEntity
  8
ROADS
100
AcDbPolyline
 90
2
 70
0
 10
626440.956344725
 20
4836936.045350683
 10
626428.3851613207
 20
4836977.601515683
  0
LWPOLYLINE
  5
129
330
17
100
AcDbEntity
  8
ROADS
100
AcDbPolyline
 90
2
 70
0
 10
626428.3851613207
 20
4836977.601515683
 10
626337.05436621
 20
4836960.588024224
  0
LWPOLYLINE
  5
12A
330
17
100
AcDbEntity
  8
ROADS
100
AcDbPolyline
 90
2
 70
0
 10
626428.3851613207
 20
4836977.601515683
 10
626469.7698402
 20
4836982.346133896
  0
LWPOLYLINE
  5
12B
330
17
100
AcDbEntity
  8
ROADS
100
AcDbPolyline
 90
2
 70
0
 10
626541.4955048129
 20
4836944.664844977
 10
626471.1788652181
 20
4837168.770765723
  0
LWPOLYLINE
  5
12C
330
17
100
AcDbEntity
  8
ROADS
100
AcDbPolyline
 90
2
 70
0
 10
627199.3491880083
 20
4836931.306513183
 10
627235.6865845163
 20
4836942.426173077
  0
LWPOLYLINE
  5
12D
330
17
100
AcDbEntity
  8
ROADS
100
AcDbPolyline
 90
2
 70
0
 10
627315.9897229862
 20
4837015.018851626
 10
627187.4219426453
 20
4836975.742594931
  0
LWPOLYLINE
  5
12E
330
17
100
AcDbEntity
  8
ROADS
100
AcDbPolyline
 90
3
 70
0
 10
627187.4219426453
 20
4836975.742594931
 10
627174.8235440014
 20
4837020.737572103
 10
627302.8327660195
 20
4837059.76572906
  0
LWPOLYLINE
  5
12F
330
17
100
AcDbEntity
  8
ROADS
100
AcDbPolyline
 90
2
 70
0
 10
627444.190775652
 20
4837173.344973507
 10
627114.7114581902
 20
4837047.35823916
  0
LWPOLYLINE
  5
130
330
17
100
AcDbEntity
  8
ROADS
100
AcDbPolyline
 90
2
 70
0
 10
627444.190775652
 20
4837173.344973507
 10
627423.1535842497
 20
4837225.20980949
  0
LWPOLYLINE
  5
131
330
17
100
AcDbEntity
  8
ROADS
100
AcDbPolyline
 90
3
 70
0
 10
627423.1535842497
 20
4837225.20980949
 10
627397.5790031827
 20
4837222.167151598
 10
627335.1236066144
 20
4837261.402213966
  0
LWPOLYLINE
  5
132
330
17
100
AcDbEntity
  8
ROADS
100
AcDbPolyline
 90
2
 70
0
 10
627542.4817653995
 20
4837178.517647111
 10
627444.190775652
 20
4837173.344973507
  0
LWPOLYLINE
  5
133
330
17
100
AcDbEntity
  8
ROADS
100
AcDbPolyline
 90
2
 70
0
 10
627649.7234597404
 20
4837358.666962722
 10
627648.3322243042
 20
4837363.157471328
  0
LWPOLYLINE
  5
134
330
17
100
AcDbEntity
  8
ROADS
100
AcDbPolyline
 90
3
 70
0
 10
627633.113335879
 20
4837414.6365193445
 10
627615.4991404975
 20
4837402.088196873
 10
627633.7300710846
 20
4837324.099571099
  0
LWPOLYLINE
  5
135
330
17
100
AcDbEntity
  8
ROADS
100
AcDbPolyline
 90
3
 70
0
 10
627609.6406176757
 20
4837278.816400958
 10
627566.9471249998
 20
4837272.132001012
 10
627509.1280601721
 20
4837429.094323454
  0
LWPOLYLINE
  5
136
330
17
100
AcDbEntity
  8
ROADS
100
AcDbPolyline
 90
4
 70
0
 10
627335.1236066144
 20
4837261.402213966
 10
627299.8815674457
 20
4837229.0429090215
 10
627254.5867237548
 20
4837217.597125935
 10
627241.9146445276
 20
4837288.231364215
  0
LWPOLYLINE
  5
137
330
17
100
AcDbEntity
  8
ROADS
100
AcDbPolyline
 90
2
 70
0
 10
627335.1236066144
 20
4837261.402213966
 10
627315.2496237408
 20
4837282.623151819
  0
LWPOLYLINE
  5
138
330
17
100
AcDbEntity
  8
ROADS
100
AcDbPolyline
 90
2
 70
0
 10
627315.2496237408
 20
4837282.623151819
 10
627241.9146445276
 20
4837288.231364215
  0
LWPOLYLINE
  5
139
330
17
100
AcDbEntity
  8
ROADS
100
AcDbPolyline
 90
5
 70
0
 10
627315.2496237408
 20
4837282.623151819
 10
627312.254029784
 20
4837405.741657271
 10
627414.5675926069
 20
4837432.441530603
 10
627449.8397664774
 20
4837294.6937380815
 10
627423.1535842497
 20
4837225.20980949
  0
LWPOLYLINE
  5
13A
330
17
100
AcDbEntity
  8
ROADS
100
AcDbPolyline
 90
2
 70
0
 10
627241.9146445276
 20
4837288.231364215
 10
627188.3319497405
 20
4837395.311049123
  0
LWPOLYLINE
  5
13B
330
17
100
AcDbEntity
  8
ROADS
100
AcDbPolyline
 90
2
 70
0
 10
627520.1155697977
 20
4837538.7049202
 10
627175.9521389841
 20
4837435.736681495
  0
LWPOLYLINE
  5
13C
330
17
100
AcDbEntity
  8
ROADS
100
AcDbPolyline
 90
2
 70
0
 10
627504.2934461549
 20
4837590.636060426
 10
627161.0152571821
 20
4837484.94961321
  0
LWPOLYLINE
  5
13D
330
17
100
AcDbEntity
  8
ROADS
100
AcDbPolyline
 90
2
 70
0
 10
627469.9891510719
 20
4837637.5906455815
 10
627144.8872313937
 20
4837537.539208853
  0
LWPOLYLINE
  5
13E
330
17
100
AcDbEntity
  8
ROADS
100
AcDbPolyline
 90
2
 70
0
 10
627453.1555056549
 20
4837688.680094617
 10
627127.4922768661
 20
4837594.599164469
  0
LWPOLYLINE
  5
13F
330
17
100
AcDbEntity
  8
ROADS
100
AcDbPolyline
 90
2
 70
0
 10
627469.9891510719
 20
4837637.5906455815
 10
627453.1555056549
 20
4837688.680094617
  0
LWPOLYLINE
  5
140
330
17
100
AcDbEntity
  8
ROADS
100
AcDbPolyline
 90
2
 70
0
 10
627652.374210329
 20
4837364.3961759405
 10
627648.3322243042
 20
4837363.157471328
  0
LWPOLYLINE
  5
141
330
17
100
AcDbEntity
  8
ROADS
100
AcDbPolyline
 90
2
 70
0
 10
627648.3322243042
 20
4837363.157471328
 10
627633.113335879
 20
4837414.6365193445
  0
LWPOLYLINE
  5
142
330
17
100
AcDbEntity
  8
ROADS
100
AcDbPolyline
 90
2
 70
0
 10
627485.0721222407
 20
4837422.64789805
 10
627509.1280601721
 20
4837429.094323454
  0
LWPOLYLINE
  5
143
330
17
100
AcDbEntity
  8
ROADS
100
AcDbPolyline
 90
2
 70
0
 10
627633.113335879
 20
4837414.6365193445
 10
627618.4678310844
 20
4837463.275752128
  0
LWPOLYLINE
  5
144
330
17
100
AcDbEntity
  8
ROADS
100
AcDbPolyline
 90
2
 70
0
 10
627509.1280601721
 20
4837429.094323454
 10
627618.4678310844
 20
4837463.275752128
  0
LWPOLYLINE
  5
145
330
17
100
AcDbEntity
  8
ROADS
100
AcDbPolyline
 90
2
 70
0
 10
627700.0859045791
 20
4837519.4780115755
 10
627688.5630908151
 20
4837556.794275513
  0
LWPOLYLINE
  5
146
330
17
100
AcDbEntity
  8
ROADS
100
AcDbPolyline
 90
2
 70
0
 10
627618.4678310844
 20
4837463.275752128
 10
627598.173529481
 20
4837529.025909769
  0
LWPOLYLINE
  5
147
330
17
100
AcDbEntity
  8
ROADS
100
AcDbPolyline
 90
2
 70
0
 10
627541.5494896165
 20
4837545.087933914
 10
627520.1155697977
 20
4837538.7049202
  0
LWPOLYLINE
  5
148
330
17
100
AcDbEntity
  8
ROADS
100
AcDbPolyline
 90
2
 70
0
 10
627688.5630908151
 20
4837556.794275513
 10
627598.173529481
 20
4837529.025909769
  0
LWPOLYLINE
  5
149
330
17
100
AcDbEntity
  8
ROADS
100
AcDbPolyline
 90
2
 70
0
 10
627598.173529481
 20
4837529.025909769
 10
627588.7844985414
 20
4837558.966010169
  0
LWPOLYLINE
  5
14A
330
17
100
AcDbEntity
  8
ROADS
100
AcDbPolyline
 90
2
 70
0
 10
627588.7844985414
 20
4837558.966010169
 10
627541.5494896165
 20
4837545.087933914
  0
LWPOLYLINE
  5
14B
330
17
100
AcDbEntity
  8
ROADS
100
AcDbPolyline
 90
2
 70
0
 10
627541.5494896165
 20
4837545.087933914
 10
627529.3345994618
 20
4837582.641405269
  0
LWPOLYLINE
  5
14C
330
17
100
AcDbEntity
  8
ROADS
100
AcDbPolyline
 90
2
 70
0
 10
627520.1155697977
 20
4837538.7049202
 10
627504.2934461549
 20
4837590.636060426
  0
LWPOLYLINE
  5
14D
330
17
100
AcDbEntity
  8
ROADS
100
AcDbPolyline
 90
2
 70
0
 10
627706.696610025
 20
4837561.914110989
 10
627688.5630908151
 20
4837556.794275513
  0
LWPOLYLINE
  5
14E
330
17
100
AcDbEntity
  8
ROADS
100
AcDbPolyline
 90
2
 70
0
 10
627588.7844985414
 20
4837558.966010169
 10
627556.680139657
 20
4837663.440023152
  0
LWPOLYLINE
  5
14F
330
17
100
AcDbEntity
  8
ROADS
100
AcDbPolyline
 90
2
 70
0
 10
627504.2934461549
 20
4837590.636060426
 10
627489.0856527636
 20
4837643.048335905
  0
LWPOLYLINE
  5
150
330
17
100
AcDbEntity
  8
ROADS
100
AcDbPolyline
 90
2
 70
0
 10
627489.0856527636
 20
4837643.048335905
 10
627469.9891510719
 20
4837637.5906455815
  0
LWPOLYLINE
  5
151
330
17
100
AcDbEntity
  8
ROADS
100
AcDbPolyline
 90
2
 70
0
 10
627556.680139657
 20
4837663.440023152
 10
627489.0856527636
 20
4837643.048335905
  0
LWPOLYLINE
  5
152
330
17
100
AcDbEntity
  8
ROADS
100
AcDbPolyline
 90
2
 70
0
 10
627688.5630908151
 20
4837556.794275513
 10
627620.2039024301
 20
4837785.657545042
  0
LWPOLYLINE
  5
153
330
17
100
AcDbEntity
  8
ROADS
100
AcDbPolyline
 90
2
 70
0
 10
627556.680139657
 20
4837663.440023152
 10
627503.5051649015
 20
4837723.360157054
  0
LWPOLYLINE
  5
154
330
17
100
AcDbEntity
  8
ROADS
100
AcDbPolyline
 90
2
 70
0
 10
627556.680139657
 20
4837663.440023152
 10
627536.8408853234
 20
4837729.795424713
  0
LWPOLYLINE
  5
155
330
17
100
AcDbEntity
  8
ROADS
100
AcDbPolyline
 90
3
 70
0
 10
627536.8408853234
 20
4837729.795424713
 10
627529.9999588242
 20
4837713.344672842
 10
627503.5051649015
 20
4837723.360157054
  0
LWPOLYLINE
  5
156
330
17
100
AcDbEntity
  8
ROADS
100
AcDbPolyline
 90
2
 70
0
 10
627503.5051649015
 20
4837723.360157054
 10
627482.1968524241
 20
4837748.186366212
  0
LWPOLYLINE
  5
157
330
17
100
AcDbEntity
  8
ROADS
100
AcDbPolyline
 90
2
 70
0
 10
627536.8408853234
 20
4837729.795424713
 10
627528.0397921468
 20
4837758.800088039
  0
LWPOLYLINE
  5
158
330
17
100
AcDbEntity
  8
ROADS
100
AcDbPolyline
 90
2
 70
0
 10
627620.2039024301
 20
4837785.657545042
 10
627528.0397921468
 20
4837758.800088039
  0
LWPOLYLINE
  5
159
330
17
100
AcDbEntity
  8
ROADS
100
AcDbPolyline
 90
2
 70
0
 10
627620.2039024301
 20
4837785.657545042
 10
627613.4850053763
 20
4837808.133457361
  0
LWPOLYLINE
  5
15A
330
17
100
AcDbEntity
  8
ROADS
100
AcDbPolyline
 90
2
 70
0
 10
627528.0397921468
 20
4837758.800088039
 10
627500.1192020082
 20
4837850.082897313
  0
LWPOLYLINE
  5
15B
330
17
100
AcDbEntity
  8
ROADS
100
AcDbPolyline
 90
2
 70
0
 10
627701.8326970568
 20
4837819.104736516
 10
627620.2039024301
 20
4837785.657545042
  0
LWPOLYLINE
  5
15C
330
17
100
AcDbEntity
  8
ROADS
100
AcDbPolyline
 90
2
 70
0
 10
627440.2636223534
 20
4837734.34014994
 10
627115.1076851685
 20
4837634.679674796
  0
LWPOLYLINE
  5
15D
330
17
100
AcDbEntity
  8
ROADS
100
AcDbPolyline
 90
2
 70
0
 10
627453.1555056549
 20
4837688.680094617
 10
627482.6268943703
 20
4837697.976986747
  0
LWPOLYLINE
  5
15E
330
17
100
AcDbEntity
  8
ROADS
100
AcDbPolyline
 90
2
 70
0
 10
627453.1555056549
 20
4837688.680094617
 10
627440.2636223534
 20
4837734.34014994
  0
LWPOLYLINE
  5
15F
330
17
100
AcDbEntity
  8
ROADS
100
AcDbPolyline
 90
2
 70
0
 10
627375.464489098
 20
4837767.300344937
 10
627097.6999433083
 20
4837688.022159896
  0
LWPOLYLINE
  5
160
330
17
100
AcDbEntity
  8
ROADS
100
AcDbPolyline
 90
2
 70
0
 10
627482.1968524241
 20
4837748.186366212
 10
627440.2636223534
 20
4837734.34014994
  0
LWPOLYLINE
  5
161
330
17
100
AcDbEntity
  8
ROADS
100
AcDbPolyline
 90
2
 70
0
 10
627482.1968524241
 20
4837748.186366212
 10
627440.4917793903
 20
4837787.747627152
  0
LWPOLYLINE
  5
162
330
17
100
AcDbEntity
  8
ROADS
100
AcDbPolyline
 90
2
 70
0
 10
627440.4917793903
 20
4837787.747627152
 10
627375.464489098
 20
4837767.300344937
  0
LWPOLYLINE
  5
163
330
17
100
AcDbEntity
  8
ROADS
100
AcDbPolyline
 90
3
 70
0
 10
627375.464489098
 20
4837767.300344937
 10
627367.3468250458
 20
4837793.18715806
 10
627338.0428260592
 20
4837811.167324338
  0
LWPOLYLINE
  5
164
330
17
100
AcDbEntity
  8
ROADS
100
AcDbPolyline
 90
2
 70
0
 10
627440.4917793903
 20
4837787.747627152
 10
627411.9663235336
 20
4837806.031896788
  0
LWPOLYLINE
  5
165
330
17
100
AcDbEntity
  8
ROADS
100
AcDbPolyline
 90
3
 70
0
 10
627500.1192020082
 20
4837850.082897313
 10
627428.2688510024
 20
4837828.730148482
 10
627411.9663235336
 20
4837806.031896788
  0
LWPOLYLINE
  5
166
330
17
100
AcDbEntity
  8
ROADS
100
AcDbPolyline
 90
2
 70
0
 10
627187.4219426453
 20
4836975.742594931
 10
627145.2011548956
 20
4836963.530388393
  0
LWPOLYLINE
  5
167
330
17
100
AcDbEntity
  8
ROADS
100
AcDbPolyline
 90
2
 70
0
 10
627145.2011548956
 20
4836963.530388393
 10
627114.7114581902
 20
4837047.35823916
  0
LWPOLYLINE
  5
168
330
17
100
AcDbEntity
  8
ROADS
100
AcDbPolyline
 90
2
 70
0
 10
627036.1096839897
 20
4837019.482201923
 10
626952.1819153134
 20
4836994.022018574
  0
LWPOLYLINE
  5
169
330
17
100
AcDbEntity
  8
ROADS
100
AcDbPolyline
 90
2
 70
0
 10
627114.7114581902
 20
4837047.35823916
 10
627036.1096839897
 20
4837019.482201923
  0
LWPOLYLINE
  5
16A
330
17
100
AcDbEntity
  8
ROADS
100
AcDbPolyline
 90
3
 70
0
 10
627114.7114581902
 20
4837047.35823916
 10
627060.0898580783
 20
4837048.753625779
 10
627038.7694639995
 20
4837064.132043977
  0
LWPOLYLINE
  5
16B
330
17
100
AcDbEntity
  8
ROADS
100
AcDbPolyline
 90
2
 70
0
 10
627114.7114581902
 20
4837047.35823916
 10
627075.0772673683
 20
4837193.007526651
  0
LWPOLYLINE
  5
16C
330
17
100
AcDbEntity
  8
ROADS
100
AcDbPolyline
 90
3
 70
0
 10
627018.5004074322
 20
4837162.336561535
 10
626959.8276634841
 20
4837105.329093102
 10
626927.2329271141
 20
4837090.272769157
  0
LWPOLYLINE
  5
16D
330
17
100
AcDbEntity
  8
ROADS
100
AcDbPolyline
 90
2
 70
0
 10
627018.5004074322
 20
4837162.336561535
 10
627041.5414924939
 20
4837153.672678593
  0
LWPOLYLINE
  5
16E
330
17
100
AcDbEntity
  8
ROADS
100
AcDbPolyline
 90
2
 70
0
 10
627018.5004074322
 20
4837162.336561535
 10
627033.4213570768
 20
4837166.537634286
  0
LWPOLYLINE
  5
16F
330
17
100
AcDbEntity
  8
ROADS
100
AcDbPolyline
 90
2
 70
0
 10
627009.9093567074
 20
4837174.03392884
 10
627018.5004074322
 20
4837162.336561535
  0
LWPOLYLINE
  5
170
330
17
100
AcDbEntity
  8
ROADS
100
AcDbPolyline
 90
2
 70
0
 10
626906.9379084609
 20
4837075.107853237
 10
626808.4810680682
 20
4837046.673760901
  0
LWPOLYLINE
  5
171
330
17
100
AcDbEntity
  8
ROADS
100
AcDbPolyline
 90
4
 70
0
 10
626687.05134683
 20
4837027.337827561
 10
626713.1215094115
 20
4837073.593042792
 10
626717.6385788159
 20
4837148.869282386
 10
626786.871716532
 20
4837174.808794393
  0
LWPOLYLINE
  5
172
330
17
100
AcDbEntity
  8
ROADS
100
AcDbPolyline
 90
2
 70
0
 10
626906.9379084609
 20
4837075.107853237
 10
626888.6753354504
 20
4837138.895512727
  0
LWPOLYLINE
  5
173
330
17
100
AcDbEntity
  8
ROADS
100
AcDbPolyline
 90
3
 70
0
 10
626808.4810680682
 20
4837046.673760901
 10
626811.4784215902
 20
4837091.8457090445
 10
626786.871716532
 20
4837174.808794393
  0
LWPOLYLINE
  5
174
330
17
100
AcDbEntity
  8
ROADS
100
AcDbPolyline
 90
2
 70
0
 10
626982.2542913135
 20
4837165.980349328
 10
626888.6753354504
 20
4837138.895512727
  0
LWPOLYLINE
  5
175
330
17
100
AcDbEntity
  8
ROADS
100
AcDbPolyline
 90
2
 70
0
 10
626888.6753354504
 20
4837138.895512727
 10
626869.6375754231
 20
4837201.363067185
  0
LWPOLYLINE
  5
176
330
17
100
AcDbEntity
  8
ROADS
100
AcDbPolyline
 90
2
 70
0
 10
626786.871716532
 20
4837174.808794393
 10
626869.6375754231
 20
4837201.363067185
  0
LWPOLYLINE
  5
177
330
17
100
AcDbEntity
  8
ROADS
100
AcDbPolyline
 90
2
 70
0
 10
626869.6375754231
 20
4837201.363067185
 10
626841.8647410873
 20
4837287.307087024
  0
LWPOLYLINE
  5
178
330
17
100
AcDbEntity
  8
ROADS
100
AcDbPolyline
 90
2
 70
0
 10
626759.5164879226
 20
4837260.887354842
 10
626660.5583152421
 20
4837229.486974739
  0
LWPOLYLINE
  5
179
330
17
100
AcDbEntity
  8
ROADS
100
AcDbPolyline
 90
2
 70
0
 10
626805.4378522513
 20
4837275.620657597
 10
626759.5164879226
 20
4837260.887354842
  0
LWPOLYLINE
  5
17A
330
17
100
AcDbEntity
  8
ROADS
100
AcDbPolyline
 90
2
 70
0
 10
626428.3851613207
 20
4836977.601515683
 10
626375.6136810773
 20
4837138.934886528
  0
LWPOLYLINE
  5
17B
330
17
100
AcDbEntity
  8
ROADS
100
AcDbPolyline
 90
3
 70
0
 10
626687.05134683
 20
4837027.337827561
 10
626644.3264768476
 20
4837045.21633222
 10
626590.8582186465
 20
4837207.0292262165
  0
LWPOLYLINE
  5
17C
330
17
100
AcDbEntity
  8
ROADS
100
AcDbPolyline
 90
2
 70
0
 10
626471.1788652181
 20
4837168.770765723
 10
626375.6136810773
 20
4837138.934886528
  0
LWPOLYLINE
  5
17D
330
17
100
AcDbEntity
  8
ROADS
100
AcDbPolyline
 90
2
 70
0
 10
626590.8582186465
 20
4837207.0292262165
 10
626471.1788652181
 20
4837168.770765723
  0
LWPOLYLINE
  5
17E
330
17
100
AcDbEntity
  8
ROADS
100
AcDbPolyline
 90
2
 70
0
 10
626660.5583152421
 20
4837229.486974739
 10
626590.8582186465
 20
4837207.0292262165
  0
LWPOLYLINE
  5
17F
330
17
100
AcDbEntity
  8
ROADS
100
AcDbPolyline
 90
2
 70
0
 10
626471.1788652181
 20
4837168.770765723
 10
626406.0129939539
 20
4837371.332454569
  0
LWPOLYLINE
  5
180
330
17
100
AcDbEntity
  8
ROADS
100
AcDbPolyline
 90
2
 70
0
 10
626660.5583152421
 20
4837229.486974739
 10
626596.7453060823
 20
4837431.006169223
  0
LWPOLYLINE
  5
181
330
17
100
AcDbEntity
  8
ROADS
100
AcDbPolyline
 90
2
 70
0
 10
626698.9070735297
 20
4837291.343183862
 10
626648.2098139387
 20
4837447.683846988
  0
LWPOLYLINE
  5
182
330
17
100
AcDbEntity
  8
ROADS
100
AcDbPolyline
 90
2
 70
0
 10
626519.9153476863
 20
4837353.275132865
 10
626505.4544544896
 20
4837402.326569424
  0
LWPOLYLINE
  5
183
330
17
100
AcDbEntity
  8
ROADS
100
AcDbPolyline
 90
2
 70
0
 10
626505.4544544896
 20
4837402.326569424
 10
626406.0129939539
 20
4837371.332454569
  0
LWPOLYLINE
  5
184
330
17
100
AcDbEntity
  8
ROADS
100
AcDbPolyline
 90
2
 70
0
 10
627009.9093567074
 20
4837174.03392884
 10
626982.2542913135
 20
4837165.980349328
  0
LWPOLYLINE
  5
185
330
17
100
AcDbEntity
  8
ROADS
100
AcDbPolyline
 90
2
 70
0
 10
627075.0772673683
 20
4837193.007526651
 10
627009.9093567074
 20
4837174.03392884
  0
LWPOLYLINE
  5
186
330
17
100
AcDbEntity
  8
ROADS
100
AcDbPolyline
 90
5
 70
0
 10
627120.3368379758
 20
4837132.244203005
 10
627176.8089835735
 20
4837161.628198768
 10
627146.3024813251
 20
4837269.387216453
 10
627130.6252520671
 20
4837278.194265703
 10
627056.6099498443
 20
4837260.483736885
  0
LWPOLYLINE
  5
187
330
17
100
AcDbEntity
  8
ROADS
100
AcDbPolyline
 90
2
 70
0
 10
627075.0772673683
 20
4837193.007526651
 10
627056.6099498443
 20
4837260.483736885
  0
LWPOLYLINE
  5
188
330
17
100
AcDbEntity
  8
ROADS
100
AcDbPolyline
 90
2
 70
0
 10
626982.2542913135
 20
4837165.980349328
 10
626934.5648517099
 20
4837316.8122172635
  0
LWPOLYLINE
  5
189
330
17
100
AcDbEntity
  8
ROADS
100
AcDbPolyline
 90
2
 70
0
 10
627056.6099498443
 20
4837260.483736885
 10
627013.6947828234
 20
4837340.586615268
  0
LWPOLYLINE
  5
18A
330
17
100
AcDbEntity
  8
ROADS
100
AcDbPolyline
 90
2
 70
0
 10
627013.6947828234
 20
4837340.586615268
 10
626934.5648517099
 20
4837316.8122172635
  0
LWPOLYLINE
  5
18B
330
17
100
AcDbEntity
  8
ROADS
100
AcDbPolyline
 90
2
 70
0
 10
627096.8224490945
 20
4837367.210493134
 10
627013.6947828234
 20
4837340.586615268
  0
LWPOLYLINE
  5
18C
330
17
100
AcDbEntity
  8
ROADS
100
AcDbPolyline
 90
2
 70
0
 10
627013.6947828234
 20
4837340.586615268
 10
626996.9418590107
 20
4837392.948879909
  0
LWPOLYLINE
  5
18D
330
17
100
AcDbEntity
  8
ROADS
100
AcDbPolyline
 90
2
 70
0
 10
627188.3319497405
 20
4837395.311049123
 10
627096.8224490945
 20
4837367.210493134
  0
LWPOLYLINE
  5
18E
330
17
100
AcDbEntity
  8
ROADS
100
AcDbPolyline
 90
2
 70
0
 10
626841.8647410873
 20
4837287.307087024
 10
626805.4378522513
 20
4837275.620657597
  0
LWPOLYLINE
  5
18F
330
17
100
AcDbEntity
  8
ROADS
100
AcDbPolyline
 90
2
 70
0
 10
626878.7441460676
 20
4837298.966700287
 10
626841.8647410873
 20
4837287.307087024
  0
LWPOLYLINE
  5
190
330
17
100
AcDbEntity
  8
ROADS
100
AcDbPolyline
 90
3
 70
0
 10
626805.4378522513
 20
4837275.620657597
 10
626789.1785606854
 20
4837325.3516593035
 10
626826.2366636816
 20
4837338.023568159
  0
LWPOLYLINE
  5
191
330
17
100
AcDbEntity
  8
ROADS
100
AcDbPolyline
 90
2
 70
0
 10
626934.5648517099
 20
4837316.8122172635
 10
626878.7441460676
 20
4837298.966700287
  0
LWPOLYLINE
  5
192
330
17
100
AcDbEntity
  8
ROADS
100
AcDbPolyline
 90
2
 70
0
 10
626759.5164879226
 20
4837260.887354842
 10
626729.2996123747
 20
4837361.424029372
  0
LWPOLYLINE
  5
193
330
17
100
AcDbEntity
  8
ROADS
100
AcDbPolyline
 90
2
 70
0
 10
626878.7441460676
 20
4837298.966700287
 10
626850.6758296568
 20
4837398.870222591
  0
LWPOLYLINE
  5
194
330
17
100
AcDbEntity
  8
ROADS
100
AcDbPolyline
 90
2
 70
0
 10
626810.2841552979
 20
4837386.661051297
 10
626729.2996123747
 20
4837361.424029372
  0
LWPOLYLINE
  5
195
330
17
100
AcDbEntity
  8
ROADS
100
AcDbPolyline
 90
4
 70
0
 10
626996.9418590107
 20
4837392.948879909
 10
626907.7409589754
 20
4837360.0147918025
 10
626891.6388818045
 20
4837410.507694415
 10
626850.6758296568
 20
4837398.870222591
  0
LWPOLYLINE
  5
196
330
17
100
AcDbEntity
  8
ROADS
100
AcDbPolyline
 90
2
 70
0
 10
626850.6758296568
 20
4837398.870222591
 10
626810.2841552979
 20
4837386.661051297
  0
LWPOLYLINE
  5
197
330
17
100
AcDbEntity
  8
ROADS
100
AcDbPolyline
 90
2
 70
0
 10
626729.2996123747
 20
4837361.424029372
 10
626695.2708628755
 20
4837462.934811957
  0
LWPOLYLINE
  5
198
330
17
100
AcDbEntity
  8
ROADS
100
AcDbPolyline
 90
2
 70
0
 10
627096.8224490945
 20
4837367.210493134
 10
627071.4880351694
 20
4837459.219028032
  0
LWPOLYLINE
  5
199
330
17
100
AcDbEntity
  8
ROADS
100
AcDbPolyline
 90
2
 70
0
 10
627188.3319497405
 20
4837395.311049123
 10
627175.9521389841
 20
4837435.736681495
  0
LWPOLYLINE
  5
19A
330
17
100
AcDbEntity
  8
ROADS
100
AcDbPolyline
 90
2
 70
0
 10
626996.9418590107
 20
4837392.948879909
 10
626968.857256697
 20
4837480.479376803
  0
LWPOLYLINE
  5
19B
330
17
100
AcDbEntity
  8
ROADS
100
AcDbPolyline
 90
3
 70
0
 10
627175.9521389841
 20
4837435.736681495
 10
627131.8740144467
 20
4837424.311878454
 10
627116.2484500471
 20
4837475.053444554
  0
LWPOLYLINE
  5
19C
330
17
100
AcDbEntity
  8
ROADS
100
AcDbPolyline
 90
2
 70
0
 10
627175.9521389841
 20
4837435.736681495
 10
627161.0152571821
 20
4837484.94961321
  0
LWPOLYLINE
  5
19D
330
17
100
AcDbEntity
  8
ROADS
100
AcDbPolyline
 90
2
 70
0
 10
627021.718306639
 20
4837496.471292463
 10
626968.857256697
 20
4837480.479376803
  0
LWPOLYLINE
  5
19E
330
17
100
AcDbEntity
  8
ROADS
100
AcDbPolyline
 90
2
 70
0
 10
626968.857256697
 20
4837480.479376803
 10
626953.0336037354
 20
4837525.252967717
  0
LWPOLYLINE
  5
19F
330
17
100
AcDbEntity
  8
ROADS
100
AcDbPolyline
 90
2
 70
0
 10
627093.5285472723
 20
4837518.379254465
 10
627021.718306639
 20
4837496.471292463
  0
LWPOLYLINE
  5
1A0
330
17
100
AcDbEntity
  8
ROADS
100
AcDbPolyline
 90
2
 70
0
 10
627161.0152571821
 20
4837484.94961321
 10
627144.8872313937
 20
4837537.539208853
  0
LWPOLYLINE
  5
1A1
330
17
100
AcDbEntity
  8
ROADS
100
AcDbPolyline
 90
3
 70
0
 10
627021.718306639
 20
4837496.471292463
 10
627010.2379734505
 20
4837533.6659688
 10
626996.8928097419
 20
4837529.95240641
  0
LWPOLYLINE
  5
1A2
330
17
100
AcDbEntity
  8
ROADS
100
AcDbPolyline
 90
3
 70
0
 10
626810.2841552979
 20
4837386.661051297
 10
626794.9710753255
 20
4837440.14288779
 10
626758.6330836464
 20
4837425.753386744
  0
LWPOLYLINE
  5
1A3
330
17
100
AcDbEntity
  8
ROADS
100
AcDbPolyline
 90
2
 70
0
 10
626850.6758296568
 20
4837398.870222591
 10
626819.1184610743
 20
4837495.058406683
  0
LWPOLYLINE
  5
1A4
330
17
100
AcDbEntity
  8
ROADS
100
AcDbPolyline
 90
2
 70
0
 10
626790.8384577867
 20
4837486.613479815
 10
626695.2708628755
 20
4837462.934811957
  0
LWPOLYLINE
  5
1A5
330
17
100
AcDbEntity
  8
ROADS
100
AcDbPolyline
 90
2
 70
0
 10
626695.2708628755
 20
4837462.934811957
 10
626682.6917015199
 20
4837503.213768445
  0
LWPOLYLINE
  5
1A6
330
17
100
AcDbEntity
  8
ROADS
100
AcDbPolyline
 90
2
 70
0
 10
626819.1184610743
 20
4837495.058406683
 10
626790.8384577867
 20
4837486.613479815
  0
LWPOLYLINE
  5
1A7
330
17
100
AcDbEntity
  8
ROADS
100
AcDbPolyline
 90
2
 70
0
 10
626790.8384577867
 20
4837486.613479815
 10
626777.6017810253
 20
4837529.019685721
  0
LWPOLYLINE
  5
1A8
330
17
100
AcDbEntity
  8
ROADS
100
AcDbPolyline
 90
2
 70
0
 10
626902.3804556926
 20
4837521.937753168
 10
626819.1184610743
 20
4837495.058406683
  0
LWPOLYLINE
  5
1A9
330
17
100
AcDbEntity
  8
ROADS
100
AcDbPolyline
 90
2
 70
0
 10
626729.5507151048
 20
4837519.019122719
 10
626682.6917015199
 20
4837503.213768445
  0
LWPOLYLINE
  5
1AA
330
17
100
AcDbEntity
  8
ROADS
100
AcDbPolyline
 90
2
 70
0
 10
626777.6017810253
 20
4837529.019685721
 10
626729.5507151048
 20
4837519.019122719
  0
LWPOLYLINE
  5
1AB
330
17
100
AcDbEntity
  8
ROADS
100
AcDbPolyline
 90
2
 70
0
 10
626948.4718848327
 20
4837539.516347469
 10
626902.3804556926
 20
4837521.937753168
  0
LWPOLYLINE
  5
1AC
330
17
100
AcDbEntity
  8
ROADS
100
AcDbPolyline
 90
2
 70
0
 10
626554.6374269036
 20
4837418.914974498
 10
626568.1337785826
 20
4837371.494187092
  0
LWPOLYLINE
  5
1AD
330
17
100
AcDbEntity
  8
ROADS
100
AcDbPolyline
 90
2
 70
0
 10
626554.6374269036
 20
4837418.914974498
 10
626505.4544544896
 20
4837402.326569424
  0
LWPOLYLINE
  5
1AE
330
17
100
AcDbEntity
  8
ROADS
100
AcDbPolyline
 90
2
 70
0
 10
626596.7453060823
 20
4837431.006169223
 10
626554.6374269036
 20
4837418.914974498
  0
LWPOLYLINE
  5
1AF
330
17
100
AcDbEntity
  8
ROADS
100
AcDbPolyline
 90
2
 70
0
 10
626648.2098139387
 20
4837447.683846988
 10
626596.7453060823
 20
4837431.006169223
  0
LWPOLYLINE
  5
1B0
330
17
100
AcDbEntity
  8
ROADS
100
AcDbPolyline
 90
2
 70
0
 10
626554.6374269036
 20
4837418.914974498
 10
626533.267085223
 20
4837480.133194417
  0
LWPOLYLINE
  5
1B1
330
17
100
AcDbEntity
  8
ROADS
100
AcDbPolyline
 90
2
 70
0
 10
626695.2708628755
 20
4837462.934811957
 10
626648.2098139387
 20
4837447.683846988
  0
LWPOLYLINE
  5
1B2
330
17
100
AcDbEntity
  8
ROADS
100
AcDbPolyline
 90
2
 70
0
 10
626505.4544544896
 20
4837402.326569424
 10
626445.6756868269
 20
4837588.026650048
  0
LWPOLYLINE
  5
1B3
330
17
100
AcDbEntity
  8
ROADS
100
AcDbPolyline
 90
2
 70
0
 10
626596.7453060823
 20
4837431.006169223
 10
626555.5391660717
 20
4837561.655859893
  0
LWPOLYLINE
  5
1B4
330
17
100
AcDbEntity
  8
ROADS
100
AcDbPolyline
 90
2
 70
0
 10
626648.2098139387
 20
4837447.683846988
 10
626605.8469497473
 20
4837580.083242848
  0
LWPOLYLINE
  5
1B5
330
17
100
AcDbEntity
  8
ROADS
100
AcDbPolyline
 90
2
 70
0
 10
626682.6917015199
 20
4837503.213768445
 10
626653.3264699719
 20
4837597.078397711
  0
LWPOLYLINE
  5
1B6
330
17
100
AcDbEntity
  8
ROADS
100
AcDbPolyline
 90
2
 70
0
 10
627118.2505499186
 20
4837525.762782724
 10
627093.5285472723
 20
4837518.379254465
  0
LWPOLYLINE
  5
1B7
330
17
100
AcDbEntity
  8
ROADS
100
AcDbPolyline
 90
2
 70
0
 10
626996.8928097419
 20
4837529.95240641
 10
626953.0336037354
 20
4837525.252967717
  0
LWPOLYLINE
  5
1B8
330
17
100
AcDbEntity
  8
ROADS
100
AcDbPolyline
 90
2
 70
0
 10
627144.8872313937
 20
4837537.539208853
 10
627118.2505499186
 20
4837525.762782724
  0
LWPOLYLINE
  5
1B9
330
17
100
AcDbEntity
  8
ROADS
100
AcDbPolyline
 90
3
 70
0
 10
627093.5285472723
 20
4837518.379254465
 10
627082.6269630343
 20
4837555.755415434
 10
627106.8090296551
 20
4837563.0781782055
  0
LWPOLYLINE
  5
1BA
330
17
100
AcDbEntity
  8
ROADS
100
AcDbPolyline
 90
2
 70
0
 10
626996.8928097419
 20
4837529.95240641
 10
626988.9109614794
 20
4837556.376684752
  0
LWPOLYLINE
  5
1BB
330
17
100
AcDbEntity
  8
ROADS
100
AcDbPolyline
 90
2
 70
0
 10
627118.2505499186
 20
4837525.762782724
 10
627106.8090296551
 20
4837563.0781782055
  0
LWPOLYLINE
  5
1BC
330
17
100
AcDbEntity
  8
ROADS
100
AcDbPolyline
 90
2
 70
0
 10
626988.9109614794
 20
4837556.376684752
 10
626948.4718848327
 20
4837539.516347469
  0
LWPOLYLINE
  5
1BD
330
17
100
AcDbEntity
  8
ROADS
100
AcDbPolyline
 90
2
 70
0
 10
627144.8872313937
 20
4837537.539208853
 10
627134.592587143
 20
4837571.492139311
  0
LWPOLYLINE
  5
1BE
330
17
100
AcDbEntity
  8
ROADS
100
AcDbPolyline
 90
2
 70
0
 10
627106.8090296551
 20
4837563.0781782055
 10
627121.012125008
 20
4837567.379294297
  0
LWPOLYLINE
  5
1BF
330
17
100
AcDbEntity
  8
ROADS
100
AcDbPolyline
 90
2
 70
0
 10
627121.012125008
 20
4837567.379294297
 10
627134.592587143
 20
4837571.492139311
  0
LWPOLYLINE
  5
1C0
330
17
100
AcDbEntity
  8
ROADS
100
AcDbPolyline
 90
2
 70
0
 10
626953.0336037354
 20
4837525.252967717
 10
626948.4718848327
 20
4837539.516347469
  0
LWPOLYLINE
  5
1C1
330
17
100
AcDbEntity
  8
ROADS
100
AcDbPolyline
 90
2
 70
0
 10
626777.6017810253
 20
4837529.019685721
 10
626824.9836810589
 20
4837547.985696267
  0
LWPOLYLINE
  5
1C2
330
17
100
AcDbEntity
  8
ROADS
100
AcDbPolyline
 90
2
 70
0
 10
626902.3804556926
 20
4837521.937753168
 10
626888.5894341499
 20
4837567.236123757
  0
LWPOLYLINE
  5
1C3
330
17
100
AcDbEntity
  8
ROADS
100
AcDbPolyline
 90
2
 70
0
 10
626824.9836810589
 20
4837547.985696267
 10
626888.5894341499
 20
4837567.236123757
  0
LWPOLYLINE
  5
1C4
330
17
100
AcDbEntity
  8
ROADS
100
AcDbPolyline
 90
2
 70
0
 10
626729.5507151048
 20
4837519.019122719
 10
626701.3537163762
 20
4837610.717759367
  0
LWPOLYLINE
  5
1C5
330
17
100
AcDbEntity
  8
ROADS
100
AcDbPolyline
 90
2
 70
0
 10
626810.7014875966
 20
4837594.287233957
 10
626824.9836810589
 20
4837547.985696267
  0
LWPOLYLINE
  5
1C6
330
17
100
AcDbEntity
  8
ROADS
100
AcDbPolyline
 90
2
 70
0
 10
626777.6017810253
 20
4837529.019685721
 10
626748.4162138627
 20
4837622.515566236
  0
LWPOLYLINE
  5
1C7
330
17
100
AcDbEntity
  8
ROADS
100
AcDbPolyline
 90
2
 70
0
 10
626948.4718848327
 20
4837539.516347469
 10
626919.0519295507
 20
4837632.008974778
  0
LWPOLYLINE
  5
1C8
330
17
100
AcDbEntity
  8
ROADS
100
AcDbPolyline
 90
2
 70
0
 10
626873.685975226
 20
4837612.886394584
 10
626888.5894341499
 20
4837567.236123757
  0
LWPOLYLINE
  5
1C9
330
17
100
AcDbEntity
  8
ROADS
100
AcDbPolyline
 90
2
 70
0
 10
626873.685975226
 20
4837612.886394584
 10
626810.7014875966
 20
4837594.287233957
  0
LWPOLYLINE
  5
1CA
330
17
100
AcDbEntity
  8
ROADS
100
AcDbPolyline
 90
2
 70
0
 10
626555.5391660717
 20
4837561.655859893
 10
626512.130051848
 20
4837548.30204273
  0
LWPOLYLINE
  5
1CB
330
17
100
AcDbEntity
  8
ROADS
100
AcDbPolyline
 90
2
 70
0
 10
626605.8469497473
 20
4837580.083242848
 10
626555.5391660717
 20
4837561.655859893
  0
LWPOLYLINE
  5
1CC
330
17
100
AcDbEntity
  8
ROADS
100
AcDbPolyline
 90
2
 70
0
 10
626445.6756868269
 20
4837588.026650048
 10
626346.2593566016
 20
4837556.584912993
  0
LWPOLYLINE
  5
1CD
330
17
100
AcDbEntity
  8
ROADS
100
AcDbPolyline
 90
2
 70
0
 10
626653.3264699719
 20
4837597.078397711
 10
626605.8469497473
 20
4837580.083242848
  0
LWPOLYLINE
  5
1CE
330
17
100
AcDbEntity
  8
ROADS
100
AcDbPolyline
 90
2
 70
0
 10
626555.5391660717
 20
4837561.655859893
 10
626537.8765545792
 20
4837617.480799243
  0
LWPOLYLINE
  5
1CF
330
17
100
AcDbEntity
  8
ROADS
100
AcDbPolyline
 90
2
 70
0
 10
626489.2584816435
 20
4837601.67462838
 10
626445.6756868269
 20
4837588.026650048
  0
LWPOLYLINE
  5
1D0
330
17
100
AcDbEntity
  8
ROADS
100
AcDbPolyline
 90
2
 70
0
 10
626605.8469497473
 20
4837580.083242848
 10
626590.9839973608
 20
4837633.724188197
  0
LWPOLYLINE
  5
1D1
330
17
100
AcDbEntity
  8
ROADS
100
AcDbPolyline
 90
2
 70
0
 10
626537.8765545792
 20
4837617.480799243
 10
626489.2584816435
 20
4837601.67462838
  0
LWPOLYLINE
  5
1D2
330
17
100
AcDbEntity
  8
ROADS
100
AcDbPolyline
 90
2
 70
0
 10
626653.3264699719
 20
4837597.078397711
 10
626637.4885892451
 20
4837647.94705167
  0
LWPOLYLINE
  5
1D3
330
17
100
AcDbEntity
  8
ROADS
100
AcDbPolyline
 90
2
 70
0
 10
626590.9839973608
 20
4837633.724188197
 10
626537.8765545792
 20
4837617.480799243
  0
LWPOLYLINE
  5
1D4
330
17
100
AcDbEntity
  8
ROADS
100
AcDbPolyline
 90
2
 70
0
 10
627127.4922768661
 20
4837594.599164469
 10
626988.9109614794
 20
4837556.376684752
  0
LWPOLYLINE
  5
1D5
330
17
100
AcDbEntity
  8
ROADS
100
AcDbPolyline
 90
2
 70
0
 10
627121.012125008
 20
4837567.379294297
 10
627127.4922768661
 20
4837594.599164469
  0
LWPOLYLINE
  5
1D6
330
17
100
AcDbEntity
  8
ROADS
100
AcDbPolyline
 90
2
 70
0
 10
627134.592587143
 20
4837571.492139311
 10
627127.4922768661
 20
4837594.599164469
  0
LWPOLYLINE
  5
1D7
330
17
100
AcDbEntity
  8
ROADS
100
AcDbPolyline
 90
2
 70
0
 10
627127.4922768661
 20
4837594.599164469
 10
627115.1076851685
 20
4837634.679674796
  0
LWPOLYLINE
  5
1D8
330
17
100
AcDbEntity
  8
ROADS
100
AcDbPolyline
 90
2
 70
0
 10
627110.4538110553
 20
4837647.430300076
 10
626972.9326742983
 20
4837607.266853747
  0
LWPOLYLINE
  5
1D9
330
17
100
AcDbEntity
  8
ROADS
100
AcDbPolyline
 90
2
 70
0
 10
627115.1076851685
 20
4837634.679674796
 10
627110.4538110553
 20
4837647.430300076
  0
LWPOLYLINE
  5
1DA
330
17
100
AcDbEntity
  8
ROADS
100
AcDbPolyline
 90
2
 70
0
 10
627097.6999433083
 20
4837688.022159896
 10
626919.0519295507
 20
4837632.008974778
  0
LWPOLYLINE
  5
1DB
330
17
100
AcDbEntity
  8
ROADS
100
AcDbPolyline
 90
2
 70
0
 10
627110.4538110553
 20
4837647.430300076
 10
627097.6999433083
 20
4837688.022159896
  0
LWPOLYLINE
  5
1DC
330
17
100
AcDbEntity
  8
ROADS
100
AcDbPolyline
 90
2
 70
0
 10
627084.9900806067
 20
4837728.8348261425
 10
626946.5634473774
 20
4837686.263826244
  0
LWPOLYLINE
  5
1DD
330
17
100
AcDbEntity
  8
ROADS
100
AcDbPolyline
 90
2
 70
0
 10
627097.6999433083
 20
4837688.022159896
 10
627084.9900806067
 20
4837728.8348261425
  0
LWPOLYLINE
  5
1DE
330
17
100
AcDbEntity
  8
ROADS
100
AcDbPolyline
 90
2
 70
0
 10
626489.2584816435
 20
4837601.67462838
 10
626473.828686371
 20
4837652.042607182
  0
LWPOLYLINE
  5
1DF
330
17
100
AcDbEntity
  8
ROADS
100
AcDbPolyline
 90
2
 70
0
 10
626637.4885892451
 20
4837647.94705167
 10
626590.9839973608
 20
4837633.724188197
  0
LWPOLYLINE
  5
1E0
330
17
100
AcDbEntity
  8
ROADS
100
AcDbPolyline
 90
3
 70
0
 10
626463.548873891
 20
4837683.6275927415
 10
626359.9001029244
 20
4837649.708136988
 10
626329.8805764088
 20
4837611.483979802
  0
LWPOLYLINE
  5
1E1
330
17
100
AcDbEntity
  8
ROADS
100
AcDbPolyline
 90
2
 70
0
 10
626473.828686371
 20
4837652.042607182
 10
626467.6917658044
 20
4837671.979817783
  0
LWPOLYLINE
  5
1E2
330
17
100
AcDbEntity
  8
ROADS
100
AcDbPolyline
 90
2
 70
0
 10
626566.320819668
 20
4837680.985513009
 10
626473.828686371
 20
4837652.042607182
  0
LWPOLYLINE
  5
1E3
330
17
100
AcDbEntity
  8
ROADS
100
AcDbPolyline
 90
2
 70
0
 10
626637.4885892451
 20
4837647.94705167
 10
626623.5032958877
 20
4837692.208805667
  0
LWPOLYLINE
  5
1E4
330
17
100
AcDbEntity
  8
ROADS
100
AcDbPolyline
 90
2
 70
0
 10
626467.6917658044
 20
4837671.979817783
 10
626463.548873891
 20
4837683.6275927415
  0
LWPOLYLINE
  5
1E5
330
17
100
AcDbEntity
  8
ROADS
100
AcDbPolyline
 90
2
 70
0
 10
626520.3335536611
 20
4837688.478306366
 10
626467.6917658044
 20
4837671.979817783
  0
LWPOLYLINE
  5
1E6
330
17
100
AcDbEntity
  8
ROADS
100
AcDbPolyline
 90
2
 70
0
 10
626566.320819668
 20
4837680.985513009
 10
626520.3335536611
 20
4837688.478306366
  0
LWPOLYLINE
  5
1E7
330
17
100
AcDbEntity
  8
ROADS
100
AcDbPolyline
 90
2
 70
0
 10
626623.5032958877
 20
4837692.208805667
 10
626566.320819668
 20
4837680.985513009
  0
LWPOLYLINE
  5
1E8
330
17
100
AcDbEntity
  8
ROADS
100
AcDbPolyline
 90
2
 70
0
 10
626701.3537163762
 20
4837610.717759367
 10
626653.3264699719
 20
4837597.078397711
  0
LWPOLYLINE
  5
1E9
330
17
100
AcDbEntity
  8
ROADS
100
AcDbPolyline
 90
2
 70
0
 10
626810.7014875966
 20
4837594.287233957
 10
626802.4818967263
 20
4837620.558187391
  0
LWPOLYLINE
  5
1EA
330
17
100
AcDbEntity
  8
ROADS
100
AcDbPolyline
 90
2
 70
0
 10
626748.4162138627
 20
4837622.515566236
 10
626701.3537163762
 20
4837610.717759367
  0
LWPOLYLINE
  5
1EB
330
17
100
AcDbEntity
  8
ROADS
100
AcDbPolyline
 90
2
 70
0
 10
626919.0519295507
 20
4837632.008974778
 10
626873.685975226
 20
4837612.886394584
  0
LWPOLYLINE
  5
1EC
330
17
100
AcDbEntity
  8
ROADS
100
AcDbPolyline
 90
3
 70
0
 10
626873.685975226
 20
4837612.886394584
 10
626859.4255121436
 20
4837658.262272918
 10
626906.015673202
 20
4837673.7277739905
  0
LWPOLYLINE
  5
1ED
330
17
100
AcDbEntity
  8
ROADS
100
AcDbPolyline
 90
2
 70
0
 10
626748.4162138627
 20
4837622.515566236
 10
626732.3239254968
 20
4837678.16092233
  0
LWPOLYLINE
  5
1EE
330
17
100
AcDbEntity
  8
ROADS
100
AcDbPolyline
 90
2
 70
0
 10
626919.0519295507
 20
4837632.008974778
 10
626906.015673202
 20
4837673.7277739905
  0
LWPOLYLINE
  5
1EF
330
17
100
AcDbEntity
  8
ROADS
100
AcDbPolyline
 90
2
 70
0
 10
626732.3239254968
 20
4837678.16092233
 10
626637.4885892451
 20
4837647.94705167
  0
LWPOLYLINE
  5
1F0
330
17
100
AcDbEntity
  8
ROADS
100
AcDbPolyline
 90
2
 70
0
 10
626852.7642453581
 20
4837716.315348717
 10
626732.3239254968
 20
4837678.16092233
  0
LWPOLYLINE
  5
1F1
330
17
100
AcDbEntity
  8
ROADS
100
AcDbPolyline
 90
2
 70
0
 10
626906.015673202
 20
4837673.7277739905
 10
626890.0779796548
 20
4837726.132751773
  0
LWPOLYLINE
  5
1F2
330
17
100
AcDbEntity
  8
ROADS
100
AcDbPolyline
 90
2
 70
0
 10
626439.0440507433
 20
4837760.840049768
 10
626282.3242795903
 20
4837711.54089059
  0
LWPOLYLINE
  5
1F3
330
17
100
AcDbEntity
  8
ROADS
100
AcDbPolyline
 90
2
 70
0
 10
626179.259510473
 20
4837761.896976431
 10
626185.8630182635
 20
4837742.758269784
  0
LWPOLYLINE
  5
1F4
330
17
100
AcDbEntity
  8
ROADS
100
AcDbPolyline
 90
2
 70
0
 10
626179.259510473
 20
4837761.896976431
 10
626162.9403620891
 20
4837743.272750922
  0
LWPOLYLINE
  5
1F5
330
17
100
AcDbEntity
  8
ROADS
100
AcDbPolyline
 90
2
 70
0
 10
626282.3242795903
 20
4837711.54089059
 10
626256.7580528138
 20
4837794.191430615
  0
LWPOLYLINE
  5
1F6
330
17
100
AcDbEntity
  8
ROADS
100
AcDbPolyline
 90
2
 70
0
 10
626172.3411508482
 20
4837778.482837754
 10
626091.9789586494
 20
4837752.5749818375
  0
LWPOLYLINE
  5
1F7
330
17
100
AcDbEntity
  8
ROADS
100
AcDbPolyline
 90
2
 70
0
 10
626172.3411508482
 20
4837778.482837754
 10
626179.259510473
 20
4837761.896976431
  0
LWPOLYLINE
  5
1F8
330
17
100
AcDbEntity
  8
ROADS
100
AcDbPolyline
 90
3
 70
0
 10
626179.259510473
 20
4837761.896976431
 10
626202.5550066342
 20
4837768.13863827
 10
626208.2607767557
 20
4837790.122124596
  0
LWPOLYLINE
  5
1F9
330
17
100
AcDbEntity
  8
ROADS
100
AcDbPolyline
 90
2
 70
0
 10
626208.2607767557
 20
4837790.122124596
 10
626172.3411508482
 20
4837778.482837754
  0
LWPOLYLINE
  5
1FA
330
17
100
AcDbEntity
  8
ROADS
100
AcDbPolyline
 90
2
 70
0
 10
626252.5439199215
 20
4837804.469827303
 10
626208.2607767557
 20
4837790.122124596
  0
LWPOLYLINE
  5
1FB
330
17
100
AcDbEntity
  8
ROADS
100
AcDbPolyline
 90
2
 70
0
 10
626256.7580528138
 20
4837794.191430615
 10
626252.5439199215
 20
4837804.469827303
  0
LWPOLYLINE
  5
1FC
330
17
100
AcDbEntity
  8
ROADS
100
AcDbPolyline
 90
2
 70
0
 10
626732.3239254968
 20
4837678.16092233
 10
626717.7564537983
 20
4837722.430159677
  0
LWPOLYLINE
  5
1FD
330
17
100
AcDbEntity
  8
ROADS
100
AcDbPolyline
 90
2
 70
0
 10
626890.0779796548
 20
4837726.132751773
 10
626852.7642453581
 20
4837716.315348717
  0
LWPOLYLINE
  5
1FE
330
17
100
AcDbEntity
  8
ROADS
100
AcDbPolyline
 90
2
 70
0
 10
626852.7642453581
 20
4837716.315348717
 10
626839.0910347236
 20
4837759.466704761
  0
LWPOLYLINE
  5
1FF
330
17
100
AcDbEntity
  8
ROADS
100
AcDbPolyline
 90
2
 70
0
 10
626982.2473301401
 20
4837754.460336787
 10
626890.0779796548
 20
4837726.132751773
  0
LWPOLYLINE
  5
200
330
17
100
AcDbEntity
  8
ROADS
100
AcDbPolyline
 90
2
 70
0
 10
626839.0910347236
 20
4837759.466704761
 10
626717.7564537983
 20
4837722.430159677
  0
LWPOLYLINE
  5
201
330
17
100
AcDbEntity
  8
ROADS
100
AcDbPolyline
 90
2
 70
0
 10
626839.0910347236
 20
4837759.466704761
 10
626829.097396819
 20
4837790.765379684
  0
LWPOLYLINE
  5
202
330
17
100
AcDbEntity
  8
ROADS
100
AcDbPolyline
 90
2
 70
0
 10
626717.7564537983
 20
4837722.430159677
 10
626672.924137232
 20
4837865.014006087
  0
LWPOLYLINE
  5
203
330
17
100
AcDbEntity
  8
ROADS
100
AcDbPolyline
 90
2
 70
0
 10
626829.097396819
 20
4837790.765379684
 10
626904.6245952749
 20
4837814.233209098
  0
LWPOLYLINE
  5
204
330
17
100
AcDbEntity
  8
ROADS
100
AcDbPolyline
 90
2
 70
0
 10
626829.097396819
 20
4837790.765379684
 10
626793.0828802648
 20
4837901.925325442
  0
LWPOLYLINE
  5
205
330
17
100
AcDbEntity
  8
ROADS
100
AcDbPolyline
 90
2
 70
0
 10
626793.0828802648
 20
4837901.925325442
 10
626672.924137232
 20
4837865.014006087
  0
LWPOLYLINE
  5
206
330
17
100
AcDbEntity
  8
ROADS
100
AcDbPolyline
 90
2
 70
0
 10
626520.3335536611
 20
4837688.478306366
 10
626527.8583545006
 20
4837702.614737301
  0
LWPOLYLINE
  5
207
330
17
100
AcDbEntity
  8
ROADS
100
AcDbPolyline
 90
2
 70
0
 10
626717.7564537983
 20
4837722.430159677
 10
626623.5032958877
 20
4837692.208805667
  0
LWPOLYLINE
  5
208
330
17
100
AcDbEntity
  8
ROADS
100
AcDbPolyline
 90
2
 70
0
 10
626463.548873891
 20
4837683.6275927415
 10
626446.1007488988
 20
4837739.97842102
  0
LWPOLYLINE
  5
209
330
17
100
AcDbEntity
  8
ROADS
100
AcDbPolyline
 90
2
 70
0
 10
626446.1007488988
 20
4837739.97842102
 10
626439.0440507433
 20
4837760.840049768
  0
LWPOLYLINE
  5
20A
330
17
100
AcDbEntity
  8
ROADS
100
AcDbPolyline
 90
2
 70
0
 10
626446.1007488988
 20
4837739.97842102
 10
626544.0246632401
 20
4837771.494235899
  0
LWPOLYLINE
  5
20B
330
17
100
AcDbEntity
  8
ROADS
100
AcDbPolyline
 90
2
 70
0
 10
626623.5032958877
 20
4837692.208805667
 10
626578.6602057025
 20
4837835.721476759
  0
LWPOLYLINE
  5
20C
330
17
100
AcDbEntity
  8
ROADS
100
AcDbPolyline
 90
2
 70
0
 10
626439.0440507433
 20
4837760.840049768
 10
626420.3702603935
 20
4837820.208884314
  0
LWPOLYLINE
  5
20D
330
17
100
AcDbEntity
  8
ROADS
100
AcDbPolyline
 90
2
 70
0
 10
626420.3702603935
 20
4837820.208884314
 10
626517.863663177
 20
4837849.31779018
  0
LWPOLYLINE
  5
20E
330
17
100
AcDbEntity
  8
ROADS
100
AcDbPolyline
 90
2
 70
0
 10
626672.924137232
 20
4837865.014006087
 10
626578.6602057025
 20
4837835.721476759
  0
LWPOLYLINE
  5
20F
330
17
100
AcDbEntity
  8
ROADS
100
AcDbPolyline
 90
2
 70
0
 10
626420.3702603935
 20
4837820.208884314
 10
626396.929612129
 20
4837897.026544148
  0
LWPOLYLINE
  5
210
330
17
100
AcDbEntity
  8
ROADS
100
AcDbPolyline
 90
2
 70
0
 10
627084.9900806067
 20
4837728.8348261425
 10
627070.0452939221
 20
4837778.095592176
  0
LWPOLYLINE
  5
211
330
17
100
AcDbEntity
  8
ROADS
100
AcDbPolyline
 90
2
 70
0
 10
627070.0452939221
 20
4837778.095592176
 10
626982.2473301401
 20
4837754.460336787
  0
LWPOLYLINE
  5
212
330
17
100
AcDbEntity
  8
ROADS
100
AcDbPolyline
 90
2
 70
0
 10
627091.4986583674
 20
4837784.396959789
 10
627070.0452939221
 20
4837778.095592176
  0
LWPOLYLINE
  5
213
330
17
100
AcDbEntity
  8
ROADS
100
AcDbPolyline
 90
2
 70
0
 10
627190.5986379801
 20
4837811.499840329
 10
627091.4986583674
 20
4837784.396959789
  0
LWPOLYLINE
  5
214
330
17
100
AcDbEntity
  8
ROADS
100
AcDbPolyline
 90
2
 70
0
 10
627091.4986583674
 20
4837784.396959789
 10
627078.8138233561
 20
4837826.921680044
  0
LWPOLYLINE
  5
215
330
17
100
AcDbEntity
  8
ROADS
100
AcDbPolyline
 90
2
 70
0
 10
627190.5986379801
 20
4837811.499840329
 10
627176.8921662985
 20
4837857.041782922
  0
LWPOLYLINE
  5
216
330
17
100
AcDbEntity
  8
ROADS
100
AcDbPolyline
 90
2
 70
0
 10
627127.3539246288
 20
4837842.121962354
 10
627078.8138233561
 20
4837826.921680044
  0
LWPOLYLINE
  5
217
330
17
100
AcDbEntity
  8
ROADS
100
AcDbPolyline
 90
2
 70
0
 10
627176.8921662985
 20
4837857.041782922
 10
627127.3539246288
 20
4837842.121962354
  0
LWPOLYLINE
  5
218
330
17
100
AcDbEntity
  8
ROADS
100
AcDbPolyline
 90
2
 70
0
 10
626982.2473301401
 20
4837754.460336787
 10
626921.6861540445
 20
4837951.666177181
  0
LWPOLYLINE
  5
219
330
17
100
AcDbEntity
  8
ROADS
100
AcDbPolyline
 90
2
 70
0
 10
627225.3543228904
 20
4837872.184160563
 10
627176.8921662985
 20
4837857.041782922
  0
LWPOLYLINE
  5
21A
330
17
100
AcDbEntity
  8
ROADS
100
AcDbPolyline
 90
2
 70
0
 10
626793.0828802648
 20
4837901.925325442
 10
626783.2425026501
 20
4837932.601225936
  0
LWPOLYLINE
  5
21B
330
17
100
AcDbEntity
  8
ROADS
100
AcDbPolyline
 90
2
 70
0
 10
626793.0828802648
 20
4837901.925325442
 10
626864.2713897559
 20
4837947.975589971
  0
LWPOLYLINE
  5
21C
330
17
100
AcDbEntity
  8
ROADS
100
AcDbPolyline
 90
2
 70
0
 10
626783.2425026501
 20
4837932.601225936
 10
626800.3677178049
 20
4837955.3173216
  0
LWPOLYLINE
  5
21D
330
17
100
AcDbEntity
  8
ROADS
100
AcDbPolyline
 90
2
 70
0
 10
626864.2713897559
 20
4837947.975589971
 10
626921.6861540445
 20
4837951.666177181
  0
LWPOLYLINE
  5
21E
330
17
100
AcDbEntity
  8
ROADS
100
AcDbPolyline
 90
2
 70
0
 10
626844.3092812002
 20
4837951.784802181
 10
626864.2713897559
 20
4837947.975589971
  0
LWPOLYLINE
  5
21F
330
17
100
AcDbEntity
  8
ROADS
100
AcDbPolyline
 90
2
 70
0
 10
626783.2425026501
 20
4837932.601225936
 10
626789.6469076527
 20
4837967.214156164
  0
LWPOLYLINE
  5
220
330
17
100
AcDbEntity
  8
ROADS
100
AcDbPolyline
 90
2
 70
0
 10
626800.3677178049
 20
4837955.3173216
 10
626844.3092812002
 20
4837951.784802181
  0
LWPOLYLINE
  5
221
330
17
100
AcDbEntity
  8
ROADS
100
AcDbPolyline
 90
2
 70
0
 10
626844.3092812002
 20
4837951.784802181
 10
626846.5244697663
 20
4837966.268747839
  0
LWPOLYLINE
  5
222
330
17
100
AcDbEntity
  8
ROADS
100
AcDbPolyline
 90
2
 70
0
 10
626800.3677178049
 20
4837955.3173216
 10
626789.6469076527
 20
4837967.214156164
  0
LWPOLYLINE
  5
223
330
17
100
AcDbEntity
  8
ROADS
100
AcDbPolyline
 90
3
 70
0
 10
626789.6469076527
 20
4837967.214156164
 10
626806.2086222953
 20
4837995.706414534
 10
626782.5385958371
 20
4838067.84071824
  0
LWPOLYLINE
  5
224
330
17
100
AcDbEntity
  8
ROADS
100
AcDbPolyline
 90
2
 70
0
 10
626578.6602057025
 20
4837835.721476759
 10
626544.8235931927
 20
4837943.023990898
  0
LWPOLYLINE
  5
225
330
17
100
AcDbEntity
  8
ROADS
100
AcDbPolyline
 90
2
 70
0
 10
626471.8946437123
 20
4837922.541824742
 10
626396.929612129
 20
4837897.026544148
  0
LWPOLYLINE
  5
226
330
17
100
AcDbEntity
  8
ROADS
100
AcDbPolyline
 90
2
 70
0
 10
626396.929612129
 20
4837897.026544148
 10
626386.6392459715
 20
4837923.000989987
  0
LWPOLYLINE
  5
227
330
17
100
AcDbEntity
  8
ROADS
100
AcDbPolyline
 90
2
 70
0
 10
626544.8235931927
 20
4837943.023990898
 10
626471.8946437123
 20
4837922.541824742
  0
LWPOLYLINE
  5
228
330
17
100
AcDbEntity
  8
ROADS
100
AcDbPolyline
 90
2
 70
0
 10
626672.924137232
 20
4837865.014006087
 10
626623.510413604
 20
4838018.660625959
  0
LWPOLYLINE
  5
229
330
17
100
AcDbEntity
  8
ROADS
100
AcDbPolyline
 90
2
 70
0
 10
626544.8235931927
 20
4837943.023990898
 10
626513.7878219138
 20
4838072.95749678
  0
LWPOLYLINE
  5
22A
330
17
100
AcDbEntity
  8
ROADS
100
AcDbPolyline
 90
2
 70
0
 10
626471.8946437123
 20
4837922.541824742
 10
626412.1104023899
 20
4838117.403247101
  0
LWPOLYLINE
  5
22B
330
17
100
AcDbEntity
  8
ROADS
100
AcDbPolyline
 90
2
 70
0
 10
626623.510413604
 20
4838018.660625959
 10
626598.8443153463
 20
4838098.81335722
  0
LWPOLYLINE
  5
22C
330
17
100
AcDbEntity
  8
ROADS
100
AcDbPolyline
 90
2
 70
0
 10
626598.8443153463
 20
4838098.81335722
 10
626513.7878219138
 20
4838072.95749678
  0
LWPOLYLINE
  5
22D
330
17
100
AcDbEntity
  8
ROADS
100
AcDbPolyline
 90
2
 70
0
 10
626513.7878219138
 20
4838072.95749678
 10
626492.3474605054
 20
4838141.800360361
  0
LWPOLYLINE
  5
22E
330
17
100
AcDbEntity
  8
ROADS
100
AcDbPolyline
 90
2
 70
0
 10
627613.4850053763
 20
4837808.133457361
 10
627635.0583868801
 20
4837844.958940017
  0
LWPOLYLINE
  5
22F
330
17
100
AcDbEntity
  8
ROADS
100
AcDbPolyline
 90
2
 70
0
 10
627650.5593013677
 20
4837816.983499925
 10
627635.0583868801
 20
4837844.958940017
  0
LWPOLYLINE
  5
230
330
17
100
AcDbEntity
  8
ROADS
100
AcDbPolyline
 90
2
 70
0
 10
627698.698038326
 20
4837838.531824911
 10
627683.4907856514
 20
4837845.327859544
  0
LWPOLYLINE
  5
231
330
17
100
AcDbEntity
  8
ROADS
100
AcDbPolyline
 90
2
 70
0
 10
627613.4850053763
 20
4837808.133457361
 10
627594.4844872564
 20
4837871.352832466
  0
LWPOLYLINE
  5
232
330
17
100
AcDbEntity
  8
ROADS
100
AcDbPolyline
 90
2
 70
0
 10
627635.0583868801
 20
4837844.958940017
 10
627642.9978375104
 20
4837854.970158596
  0
LWPOLYLINE
  5
233
330
17
100
AcDbEntity
  8
ROADS
100
AcDbPolyline
 90
2
 70
0
 10
627683.4907856514
 20
4837845.327859544
 10
627642.9978375104
 20
4837854.970158596
  0
LWPOLYLINE
  5
234
330
17
100
AcDbEntity
  8
ROADS
100
AcDbPolyline
 90
2
 70
0
 10
627642.9978375104
 20
4837854.970158596
 10
627594.4844872564
 20
4837871.352832466
  0
LWPOLYLINE
  5
235
330
17
100
AcDbEntity
  8
ROADS
100
AcDbPolyline
 90
2
 70
0
 10
627683.4907856514
 20
4837845.327859544
 10
627667.113024734
 20
4837881.640972171
  0
LWPOLYLINE
  5
236
330
17
100
AcDbEntity
  8
ROADS
100
AcDbPolyline
 90
2
 70
0
 10
627642.9978375104
 20
4837854.970158596
 10
627667.113024734
 20
4837881.640972171
  0
LWPOLYLINE
  5
237
330
17
100
AcDbEntity
  8
ROADS
100
AcDbPolyline
 90
2
 70
0
 10
627411.9663235336
 20
4837806.031896788
 10
627330.8255743803
 20
4837852.627389579
  0
LWPOLYLINE
  5
238
330
17
100
AcDbEntity
  8
ROADS
100
AcDbPolyline
 90
2
 70
0
 10
627330.8255743803
 20
4837852.627389579
 10
627190.5986379801
 20
4837811.499840329
  0
LWPOLYLINE
  5
239
330
17
100
AcDbEntity
  8
ROADS
100
AcDbPolyline
 90
2
 70
0
 10
627387.62723351
 20
4837870.149742042
 10
627330.8255743803
 20
4837852.627389579
  0
LWPOLYLINE
  5
23A
330
17
100
AcDbEntity
  8
ROADS
100
AcDbPolyline
 90
2
 70
0
 10
627330.8255743803
 20
4837852.627389579
 10
627291.4230100191
 20
4837895.016436879
  0
LWPOLYLINE
  5
23B
330
17
100
AcDbEntity
  8
ROADS
100
AcDbPolyline
 90
2
 70
0
 10
627291.4230100191
 20
4837895.016436879
 10
627225.3543228904
 20
4837872.184160563
  0
LWPOLYLINE
  5
23C
330
17
100
AcDbEntity
  8
ROADS
100
AcDbPolyline
 90
2
 70
0
 10
627484.9166385115
 20
4837899.439063478
 10
627387.62723351
 20
4837870.149742042
  0
LWPOLYLINE
  5
23D
330
17
100
AcDbEntity
  8
ROADS
100
AcDbPolyline
 90
2
 70
0
 10
627387.62723351
 20
4837870.149742042
 10
627370.7755379642
 20
4837921.498190543
  0
LWPOLYLINE
  5
23E
330
17
100
AcDbEntity
  8
ROADS
100
AcDbPolyline
 90
2
 70
0
 10
627324.3928578312
 20
4837907.441474897
 10
627291.4230100191
 20
4837895.016436879
  0
LWPOLYLINE
  5
23F
330
17
100
AcDbEntity
  8
ROADS
100
AcDbPolyline
 90
2
 70
0
 10
627370.7755379642
 20
4837921.498190543
 10
627324.3928578312
 20
4837907.441474897
  0
LWPOLYLINE
  5
240
330
17
100
AcDbEntity
  8
ROADS
100
AcDbPolyline
 90
2
 70
0
 10
627484.9166385115
 20
4837899.439063478
 10
627468.732897661
 20
4837951.51065109
  0
LWPOLYLINE
  5
241
330
17
100
AcDbEntity
  8
ROADS
100
AcDbPolyline
 90
2
 70
0
 10
627500.1192020082
 20
4837850.082897313
 10
627484.9166385115
 20
4837899.439063478
  0
LWPOLYLINE
  5
242
330
17
100
AcDbEntity
  8
ROADS
100
AcDbPolyline
 90
2
 70
0
 10
627667.113024734
 20
4837881.640972171
 10
627664.1669596063
 20
4837915.197820608
  0
LWPOLYLINE
  5
243
330
17
100
AcDbEntity
  8
ROADS
100
AcDbPolyline
 90
2
 70
0
 10
627594.4844872564
 20
4837871.352832466
 10
627577.9686360398
 20
4837926.304614081
  0
LWPOLYLINE
  5
244
330
17
100
AcDbEntity
  8
ROADS
100
AcDbPolyline
 90
2
 70
0
 10
627577.9686360398
 20
4837926.304614081
 10
627484.9166385115
 20
4837899.439063478
  0
LWPOLYLINE
  5
245
330
17
100
AcDbEntity
  8
ROADS
100
AcDbPolyline
 90
2
 70
0
 10
627667.113024734
 20
4837881.640972171
 10
627682.3884412064
 20
4837901.23839007
  0
LWPOLYLINE
  5
246
330
17
100
AcDbEntity
  8
ROADS
100
AcDbPolyline
 90
2
 70
0
 10
627664.1669596063
 20
4837915.197820608
 10
627658.0991396222
 20
4837949.725272384
  0
LWPOLYLINE
  5
247
330
17
100
AcDbEntity
  8
ROADS
100
AcDbPolyline
 90
2
 70
0
 10
627664.1669596063
 20
4837915.197820608
 10
627671.18300256
 20
4837939.201394886
  0
LWPOLYLINE
  5
248
330
17
100
AcDbEntity
  8
ROADS
100
AcDbPolyline
 90
2
 70
0
 10
627658.0991396222
 20
4837949.725272384
 10
627577.9686360398
 20
4837926.304614081
  0
LWPOLYLINE
  5
249
330
17
100
AcDbEntity
  8
ROADS
100
AcDbPolyline
 90
2
 70
0
 10
627666.9982400484
 20
4837952.326748451
 10
627658.0991396222
 20
4837949.725272384
  0
LWPOLYLINE
  5
24A
330
17
100
AcDbEntity
  8
ROADS
100
AcDbPolyline
 90
2
 70
0
 10
627419.229659284
 20
4837936.367423351
 10
627370.7755379642
 20
4837921.498190543
  0
LWPOLYLINE
  5
24B
330
17
100
AcDbEntity
  8
ROADS
100
AcDbPolyline
 90
2
 70
0
 10
627468.732897661
 20
4837951.51065109
 10
627419.229659284
 20
4837936.367423351
  0
LWPOLYLINE
  5
24C
330
17
100
AcDbEntity
  8
ROADS
100
AcDbPolyline
 90
2
 70
0
 10
627291.4230100191
 20
4837895.016436879
 10
627229.0809725162
 20
4838037.6548372265
  0
LWPOLYLINE
  5
24D
330
17
100
AcDbEntity
  8
ROADS
100
AcDbPolyline
 90
2
 70
0
 10
627468.732897661
 20
4837951.51065109
 10
627404.8496122122
 20
4838147.096560207
  0
LWPOLYLINE
  5
24E
330
17
100
AcDbEntity
  8
ROADS
100
AcDbPolyline
 90
2
 70
0
 10
627324.3928578312
 20
4837907.441474897
 10
627226.0921622582
 20
4838217.277942365
  0
LWPOLYLINE
  5
24F
330
17
100
AcDbEntity
  8
ROADS
100
AcDbPolyline
 90
2
 70
0
 10
627370.7755379642
 20
4837921.498190543
 10
627271.4726241309
 20
4838231.673592001
  0
LWPOLYLINE
  5
250
330
17
100
AcDbEntity
  8
ROADS
100
AcDbPolyline
 90
2
 70
0
 10
627419.229659284
 20
4837936.367423351
 10
627325.0382152456
 20
4838235.253607579
  0
LWPOLYLINE
  5
251
330
17
100
AcDbEntity
  8
ROADS
100
AcDbPolyline
 90
2
 70
0
 10
627461.4069709327
 20
4838164.247524617
 10
627404.8496122122
 20
4838147.096560207
  0
LWPOLYLINE
  5
252
330
17
100
AcDbEntity
  8
ROADS
100
AcDbPolyline
 90
2
 70
0
 10
627475.5532965574
 20
4838168.536143001
 10
627461.4069709327
 20
4838164.247524617
  0
LWPOLYLINE
  5
253
330
17
100
AcDbEntity
  8
ROADS
100
AcDbPolyline
 90
2
 70
0
 10
627404.8496122122
 20
4838147.096560207
 10
627372.0522466445
 20
4838253.218031922
  0
LWPOLYLINE
  5
254
330
17
100
AcDbEntity
  8
ROADS
100
AcDbPolyline
 90
4
 70
0
 10
627475.5532965574
 20
4838168.536143001
 10
627490.7731187101
 20
4838150.573776956
 10
627516.7641580818
 20
4838155.030127406
 10
627551.344386333
 20
4838188.423647217
  0
LWPOLYLINE
  5
255
330
17
100
AcDbEntity
  8
ROADS
100
AcDbPolyline
 90
2
 70
0
 10
627551.344386333
 20
4838188.423647217
 10
627475.5532965574
 20
4838168.536143001
  0
LWPOLYLINE
  5
256
330
17
100
AcDbEntity
  8
ROADS
100
AcDbPolyline
 90
2
 70
0
 10
627556.9525414733
 20
4838189.98614474
 10
627551.344386333
 20
4838188.423647217
  0
LWPOLYLINE
  5
257
330
17
100
AcDbEntity
  8
ROADS
100
AcDbPolyline
 90
3
 70
0
 10
627461.4069709327
 20
4838164.247524617
 10
627445.4717978713
 20
4838214.7934963405
 10
627521.587945538
 20
4838237.3871983625
  0
LWPOLYLINE
  5
258
330
17
100
AcDbEntity
  8
ROADS
100
AcDbPolyline
 90
2
 70
0
 10
627551.344386333
 20
4838188.423647217
 10
627546.9106888054
 20
4838204.042488819
  0
LWPOLYLINE
  5
259
330
17
100
AcDbEntity
  8
ROADS
100
AcDbPolyline
 90
2
 70
0
 10
627271.4726241309
 20
4838231.673592001
 10
627226.0921622582
 20
4838217.277942365
  0
LWPOLYLINE
  5
25A
330
17
100
AcDbEntity
  8
ROADS
100
AcDbPolyline
 90
2
 70
0
 10
627479.9761446329
 20
4838285.7544959895
 10
627372.0522466445
 20
4838253.218031922
  0
LWPOLYLINE
  5
25B
330
17
100
AcDbEntity
  8
ROADS
100
AcDbPolyline
 90
2
 70
0
 10
627372.0522466445
 20
4838253.218031922
 10
627344.4305566155
 20
4838343.450100194
  0
LWPOLYLINE
  5
25C
330
17
100
AcDbEntity
  8
ROADS
100
AcDbPolyline
 90
2
 70
0
 10
627271.4726241309
 20
4838231.673592001
 10
627218.4654494342
 20
4838399.915349363
  0
LWPOLYLINE
  5
25D
330
17
100
AcDbEntity
  8
ROADS
100
AcDbPolyline
 90
2
 70
0
 10
627400.6117944168
 20
4838361.213294008
 10
627344.4305566155
 20
4838343.450100194
  0
LWPOLYLINE
  5
25E
330
17
100
AcDbEntity
  8
ROADS
100
AcDbPolyline
 90
2
 70
0
 10
627344.4305566155
 20
4838343.450100194
 10
627218.4654494342
 20
4838399.915349363
  0
LWPOLYLINE
  5
25F
330
17
100
AcDbEntity
  8
ROADS
100
AcDbPolyline
 90
2
 70
0
 10
627344.4305566155
 20
4838343.450100194
 10
627320.9958448376
 20
4838418.2162779
  0
LWPOLYLINE
  5
260
330
17
100
AcDbEntity
  8
ROADS
100
AcDbPolyline
 90
2
 70
0
 10
627078.8138233561
 20
4837826.921680044
 10
627032.2903673396
 20
4837977.907099494
  0
LWPOLYLINE
  5
261
330
17
100
AcDbEntity
  8
ROADS
100
AcDbPolyline
 90
2
 70
0
 10
627127.3539246288
 20
4837842.121962354
 10
627081.2913658784
 20
4837991.8421591865
  0
LWPOLYLINE
  5
262
330
17
100
AcDbEntity
  8
ROADS
100
AcDbPolyline
 90
2
 70
0
 10
627176.8921662985
 20
4837857.041782922
 10
627129.031746296
 20
4838005.420401957
  0
LWPOLYLINE
  5
263
330
17
100
AcDbEntity
  8
ROADS
100
AcDbPolyline
 90
2
 70
0
 10
627225.3543228904
 20
4837872.184160563
 10
627179.5335798671
 20
4838021.69275762
  0
LWPOLYLINE
  5
264
330
17
100
AcDbEntity
  8
ROADS
100
AcDbPolyline
 90
2
 70
0
 10
627081.2913658784
 20
4837991.8421591865
 10
627032.2903673396
 20
4837977.907099494
  0
LWPOLYLINE
  5
265
330
17
100
AcDbEntity
  8
ROADS
100
AcDbPolyline
 90
2
 70
0
 10
627129.031746296
 20
4838005.420401957
 10
627081.2913658784
 20
4837991.8421591865
  0
LWPOLYLINE
  5
266
330
17
100
AcDbEntity
  8
ROADS
100
AcDbPolyline
 90
2
 70
0
 10
627179.5335798671
 20
4838021.69275762
 10
627129.031746296
 20
4838005.420401957
  0
LWPOLYLINE
  5
267
330
17
100
AcDbEntity
  8
ROADS
100
AcDbPolyline
 90
2
 70
0
 10
627229.0809725162
 20
4838037.6548372265
 10
627179.5335798671
 20
4838021.69275762
  0
LWPOLYLINE
  5
268
330
17
100
AcDbEntity
  8
ROADS
100
AcDbPolyline
 90
2
 70
0
 10
627032.2903673396
 20
4837977.907099494
 10
626971.6871106506
 20
4838171.01791899
  0
LWPOLYLINE
  5
269
330
17
100
AcDbEntity
  8
ROADS
100
AcDbPolyline
 90
2
 70
0
 10
627081.2913658784
 20
4837991.8421591865
 10
627021.4388184267
 20
4838185.523617024
  0
LWPOLYLINE
  5
26A
330
17
100
AcDbEntity
  8
ROADS
100
AcDbPolyline
 90
2
 70
0
 10
627129.031746296
 20
4838005.420401957
 10
627068.8885027453
 20
4838199.359643522
  0
LWPOLYLINE
  5
26B
330
17
100
AcDbEntity
  8
ROADS
100
AcDbPolyline
 90
2
 70
0
 10
627179.5335798671
 20
4838021.69275762
 10
627118.6644605892
 20
4838214.515828499
  0
LWPOLYLINE
  5
26C
330
17
100
AcDbEntity
  8
ROADS
100
AcDbPolyline
 90
2
 70
0
 10
627229.0809725162
 20
4838037.6548372265
 10
627175.1820881162
 20
4838201.128179179
  0
LWPOLYLINE
  5
26D
330
17
100
AcDbEntity
  8
ROADS
100
AcDbPolyline
 90
2
 70
0
 10
627021.4388184267
 20
4838185.523617024
 10
626971.6871106506
 20
4838171.01791899
  0
LWPOLYLINE
  5
26E
330
17
100
AcDbEntity
  8
ROADS
100
AcDbPolyline
 90
2
 70
0
 10
626971.6871106506
 20
4838171.01791899
 10
626957.4230092447
 20
4838210.287347916
  0
LWPOLYLINE
  5
26F
330
17
100
AcDbEntity
  8
ROADS
100
AcDbPolyline
 90
2
 70
0
 10
627068.8885027453
 20
4838199.359643522
 10
627021.4388184267
 20
4838185.523617024
  0
LWPOLYLINE
  5
270
330
17
100
AcDbEntity
  8
ROADS
100
AcDbPolyline
 90
2
 70
0
 10
627118.6644605892
 20
4838214.515828499
 10
627068.8885027453
 20
4838199.359643522
  0
LWPOLYLINE
  5
271
330
17
100
AcDbEntity
  8
ROADS
100
AcDbPolyline
 90
2
 70
0
 10
627226.0921622582
 20
4838217.277942365
 10
627175.1820881162
 20
4838201.128179179
  0
LWPOLYLINE
  5
272
330
17
100
AcDbEntity
  8
ROADS
100
AcDbPolyline
 90
2
 70
0
 10
627175.1820881162
 20
4838201.128179179
 10
627167.2563706463
 20
4838229.311580734
  0
LWPOLYLINE
  5
273
330
17
100
AcDbEntity
  8
ROADS
100
AcDbPolyline
 90
2
 70
0
 10
627167.2563706463
 20
4838229.311580734
 10
627118.6644605892
 20
4838214.515828499
  0
LWPOLYLINE
  5
274
330
17
100
AcDbEntity
  8
ROADS
100
AcDbPolyline
 90
2
 70
0
 10
626623.510413604
 20
4838018.660625959
 10
626782.5385958371
 20
4838067.84071824
  0
LWPOLYLINE
  5
275
330
17
100
AcDbEntity
  8
ROADS
100
AcDbPolyline
 90
2
 70
0
 10
626921.6861540445
 20
4837951.666177181
 10
626852.4836308358
 20
4838177.3313985765
  0
LWPOLYLINE
  5
276
330
17
100
AcDbEntity
  8
ROADS
100
AcDbPolyline
 90
2
 70
0
 10
626782.5385958371
 20
4838067.84071824
 10
626762.7762937753
 20
4838150.176306225
  0
LWPOLYLINE
  5
277
330
17
100
AcDbEntity
  8
ROADS
100
AcDbPolyline
 90
2
 70
0
 10
626762.7762937753
 20
4838150.176306225
 10
626686.1358645328
 20
4838126.388757259
  0
LWPOLYLINE
  5
278
330
17
100
AcDbEntity
  8
ROADS
100
AcDbPolyline
 90
2
 70
0
 10
626775.8757472142
 20
4838155.558548471
 10
626762.7762937753
 20
4838150.176306225
  0
LWPOLYLINE
  5
279
330
17
100
AcDbEntity
  8
ROADS
100
AcDbPolyline
 90
2
 70
0
 10
626852.4836308358
 20
4838177.3313985765
 10
626775.8757472142
 20
4838155.558548471
  0
LWPOLYLINE
  5
27A
330
17
100
AcDbEntity
  8
ROADS
100
AcDbPolyline
 90
2
 70
0
 10
626865.7232606285
 20
4838184.363279207
 10
626852.4836308358
 20
4838177.3313985765
  0
LWPOLYLINE
  5
27B
330
17
100
AcDbEntity
  8
ROADS
100
AcDbPolyline
 90
2
 70
0
 10
626957.4230092447
 20
4838210.287347916
 10
626865.7232606285
 20
4838184.363279207
  0
LWPOLYLINE
  5
27C
330
17
100
AcDbEntity
  8
ROADS
100
AcDbPolyline
 90
2
 70
0
 10
626775.8757472142
 20
4838155.558548471
 10
626732.6869656452
 20
4838296.061964322
  0
LWPOLYLINE
  5
27D
330
17
100
AcDbEntity
  8
ROADS
100
AcDbPolyline
 90
2
 70
0
 10
626865.7232606285
 20
4838184.363279207
 10
626822.7739574519
 20
4838324.508038755
  0
LWPOLYLINE
  5
27E
330
17
100
AcDbEntity
  8
ROADS
100
AcDbPolyline
 90
2
 70
0
 10
626686.1358645328
 20
4838126.388757259
 10
626598.8443153463
 20
4838098.81335722
  0
LWPOLYLINE
  5
27F
330
17
100
AcDbEntity
  8
ROADS
100
AcDbPolyline
 90
2
 70
0
 10
626492.3474605054
 20
4838141.800360361
 10
626412.1104023899
 20
4838117.403247101
  0
LWPOLYLINE
  5
280
330
17
100
AcDbEntity
  8
ROADS
100
AcDbPolyline
 90
2
 70
0
 10
626412.1104023899
 20
4838117.403247101
 10
626380.2322158631
 20
4838222.389963238
  0
LWPOLYLINE
  5
281
330
17
100
AcDbEntity
  8
ROADS
100
AcDbPolyline
 90
2
 70
0
 10
626598.8443153463
 20
4838098.81335722
 10
626545.7632872917
 20
4838272.916812598
  0
LWPOLYLINE
  5
282
330
17
100
AcDbEntity
  8
ROADS
100
AcDbPolyline
 90
2
 70
0
 10
626492.3474605054
 20
4838141.800360361
 10
626460.4324081964
 20
4838246.916940518
  0
LWPOLYLINE
  5
283
330
17
100
AcDbEntity
  8
ROADS
100
AcDbPolyline
 90
2
 70
0
 10
626686.1358645328
 20
4838126.388757259
 10
626632.236251324
 20
4838299.967417082
  0
LWPOLYLINE
  5
284
330
17
100
AcDbEntity
  8
ROADS
100
AcDbPolyline
 90
2
 70
0
 10
626460.4324081964
 20
4838246.916940518
 10
626380.2322158631
 20
4838222.389963238
  0
LWPOLYLINE
  5
285
330
17
100
AcDbEntity
  8
ROADS
100
AcDbPolyline
 90
2
 70
0
 10
626545.7632872917
 20
4838272.916812598
 10
626460.4324081964
 20
4838246.916940518
  0
LWPOLYLINE
  5
286
330
17
100
AcDbEntity
  8
ROADS
100
AcDbPolyline
 90
2
 70
0
 10
626632.236251324
 20
4838299.967417082
 10
626545.7632872917
 20
4838272.916812598
  0
LWPOLYLINE
  5
287
330
17
100
AcDbEntity
  8
ROADS
100
AcDbPolyline
 90
2
 70
0
 10
626460.4324081964
 20
4838246.916940518
 10
626432.4865823648
 20
4838330.690514792
  0
LWPOLYLINE
  5
288
330
17
100
AcDbEntity
  8
ROADS
100
AcDbPolyline
 90
2
 70
0
 10
626957.4230092447
 20
4838210.287347916
 10
626915.898519335
 20
4838351.3859709855
  0
LWPOLYLINE
  5
289
330
17
100
AcDbEntity
  8
ROADS
100
AcDbPolyline
 90
2
 70
0
 10
626822.7739574519
 20
4838324.508038755
 10
626732.6869656452
 20
4838296.061964322
  0
LWPOLYLINE
  5
28A
330
17
100
AcDbEntity
  8
ROADS
100
AcDbPolyline
 90
2
 70
0
 10
626915.898519335
 20
4838351.3859709855
 10
626822.7739574519
 20
4838324.508038755
  0
LWPOLYLINE
  5
28B
330
17
100
AcDbEntity
  8
ROADS
100
AcDbPolyline
 90
2
 70
0
 10
626732.6869656452
 20
4838296.061964322
 10
626682.1390438871
 20
4838457.002479149
  0
LWPOLYLINE
  5
28C
330
17
100
AcDbEntity
  8
ROADS
100
AcDbPolyline
 90
2
 70
0
 10
626915.898519335
 20
4838351.3859709855
 10
626898.2968736194
 20
4838410.356226283
  0
LWPOLYLINE
  5
28D
330
17
100
AcDbEntity
  8
ROADS
100
AcDbPolyline
 90
2
 70
0
 10
626965.4303279732
 20
4838373.072156984
 10
626898.2968736194
 20
4838410.356226283
  0
LWPOLYLINE
  5
28E
330
17
100
AcDbEntity
  8
ROADS
100
AcDbPolyline
 90
2
 70
0
 10
626822.7739574519
 20
4838324.508038755
 10
626780.2160242633
 20
4838464.4648306
  0
LWPOLYLINE
  5
28F
330
17
100
AcDbEntity
  8
ROADS
100
AcDbPolyline
 90
2
 70
0
 10
626898.2968736194
 20
4838410.356226283
 10
626887.9184475658
 20
4838445.12164082
  0
LWPOLYLINE
  5
290
330
17
100
AcDbEntity
  8
ROADS
100
AcDbPolyline
 90
2
 70
0
 10
626887.9184475658
 20
4838445.12164082
 10
626780.2160242633
 20
4838464.4648306
  0
LWPOLYLINE
  5
291
330
17
100
AcDbEntity
  8
ROADS
100
AcDbPolyline
 90
2
 70
0
 10
626887.9184475658
 20
4838445.12164082
 10
626886.8169696907
 20
4838470.577274871
  0
LWPOLYLINE
  5
292
330
17
100
AcDbEntity
  8
ROADS
100
AcDbPolyline
 90
2
 70
0
 10
627068.8885027453
 20
4838199.359643522
 10
627026.0879944782
 20
4838343.108399351
  0
LWPOLYLINE
  5
293
330
17
100
AcDbEntity
  8
ROADS
100
AcDbPolyline
 90
3
 70
0
 10
627118.6644605892
 20
4838214.515828499
 10
627075.1269756701
 20
4838313.364504821
 10
627026.0879944782
 20
4838343.108399351
  0
LWPOLYLINE
  5
294
330
17
100
AcDbEntity
  8
ROADS
100
AcDbPolyline
 90
2
 70
0
 10
627021.4388184267
 20
4838185.523617024
 10
626965.4303279732
 20
4838373.072156984
  0
LWPOLYLINE
  5
295
330
17
100
AcDbEntity
  8
ROADS
100
AcDbPolyline
 90
3
 70
0
 10
627167.2563706463
 20
4838229.311580734
 10
627109.7667404336
 20
4838341.693761968
 10
627044.5822041315
 20
4838384.295430721
  0
LWPOLYLINE
  5
296
330
17
100
AcDbEntity
  8
ROADS
100
AcDbPolyline
 90
2
 70
0
 10
627026.0879944782
 20
4838343.108399351
 10
626965.4303279732
 20
4838373.072156984
  0
LWPOLYLINE
  5
297
330
17
100
AcDbEntity
  8
ROADS
100
AcDbPolyline
 90
2
 70
0
 10
627026.0879944782
 20
4838343.108399351
 10
627044.5822041315
 20
4838384.295430721
  0
LWPOLYLINE
  5
298
330
17
100
AcDbEntity
  8
ROADS
100
AcDbPolyline
 90
2
 70
0
 10
627044.5822041315
 20
4838384.295430721
 10
627091.3695865164
 20
4838468.915877825
  0
LWPOLYLINE
  5
299
330
17
100
AcDbEntity
  8
ROADS
100
AcDbPolyline
 90
2
 70
0
 10
627044.5822041315
 20
4838384.295430721
 10
626886.8169696907
 20
4838470.577274871
  0
LWPOLYLINE
  5
29A
330
17
100
AcDbEntity
  8
ROADS
100
AcDbPolyline
 90
2
 70
0
 10
627218.4654494342
 20
4838399.915349363
 10
627091.3695865164
 20
4838468.915877825
  0
LWPOLYLINE
  5
29B
330
17
100
AcDbEntity
  8
ROADS
100
AcDbPolyline
 90
2
 70
0
 10
627218.4654494342
 20
4838399.915349363
 10
627191.5901973465
 20
4838485.81801094
  0
LWPOLYLINE
  5
29C
330
17
100
AcDbEntity
  8
ROADS
100
AcDbPolyline
 90
2
 70
0
 10
626432.4865823648
 20
4838330.690514792
 10
626354.4765846146
 20
4838307.211194375
  0
LWPOLYLINE
  5
29D
330
17
100
AcDbEntity
  8
ROADS
100
AcDbPolyline
 90
2
 70
0
 10
626545.7632872917
 20
4838272.916812598
 10
626488.6944160055
 20
4838456.724668947
  0
LWPOLYLINE
  5
29E
330
17
100
AcDbEntity
  8
ROADS
100
AcDbPolyline
 90
2
 70
0
 10
626632.236251324
 20
4838299.967417082
 10
626584.4956866512
 20
4838457.691465383
  0
LWPOLYLINE
  5
29F
330
17
100
AcDbEntity
  8
ROADS
100
AcDbPolyline
 90
2
 70
0
 10
626432.4865823648
 20
4838330.690514792
 10
626393.9842014378
 20
4838464.12663813
  0
LWPOLYLINE
  5
2A0
330
17
100
AcDbEntity
  8
ROADS
100
AcDbPolyline
 90
2
 70
0
 10
626488.6944160055
 20
4838456.724668947
 10
626483.5494164738
 20
4838473.847138594
  0
LWPOLYLINE
  5
2A1
330
17
100
AcDbEntity
  8
ROADS
100
AcDbPolyline
 90
2
 70
0
 10
626579.2765438785
 20
4838474.932106023
 10
626488.6944160055
 20
4838456.724668947
  0
LWPOLYLINE
  5
2A2
330
17
100
AcDbEntity
  8
ROADS
100
AcDbPolyline
 90
2
 70
0
 10
626584.4956866512
 20
4838457.691465383
 10
626579.2765438785
 20
4838474.932106023
  0
LWPOLYLINE
  5
2A3
330
17
100
AcDbEntity
  8
ROADS
100
AcDbPolyline
 90
2
 70
0
 10
626676.5860299314
 20
4838475.064135834
 10
626584.4956866512
 20
4838457.691465383
  0
LWPOLYLINE
  5
2A4
330
17
100
AcDbEntity
  8
ROADS
100
AcDbPolyline
 90
2
 70
0
 10
626483.5494164738
 20
4838473.847138594
 10
626399.23986541
 20
4838465.478729561
  0
LWPOLYLINE
  5
2A5
330
17
100
AcDbEntity
  8
ROADS
100
AcDbPolyline
 90
2
 70
0
 10
626682.1390438871
 20
4838457.002479149
 10
626676.5860299314
 20
4838475.064135834
  0
LWPOLYLINE
  5
2A6
330
17
100
AcDbEntity
  8
ROADS
100
AcDbPolyline
 90
2
 70
0
 10
626776.7698302127
 20
4838475.798189098
 10
626682.1390438871
 20
4838457.002479149
  0
LWPOLYLINE
  5
2A7
330
17
100
AcDbEntity
  8
ROADS
100
AcDbPolyline
 90
2
 70
0
 10
626780.2160242633
 20
4838464.4648306
 10
626776.7698302127
 20
4838475.798189098
  0
LWPOLYLINE
  5
2A8
330
17
100
AcDbEntity
  8
ROADS
100
AcDbPolyline
 90
3
 70
0
 10
626886.8169696907
 20
4838470.577274871
 10
626822.0502889897
 20
4838502.8508182205
 10
626769.3761284853
 20
4838508.432444088
  0
LWPOLYLINE
  5
2A9
330
17
100
AcDbEntity
  8
ROADS
100
AcDbPolyline
 90
2
 70
0
 10
626776.7698302127
 20
4838475.798189098
 10
626769.3761284853
 20
4838508.432444088
  0
LWPOLYLINE
  5
2AA
330
17
100
AcDbEntity
  8
ROADS
100
AcDbPolyline
 90
2
 70
0
 10
626886.8169696907
 20
4838470.577274871
 10
626923.5070576547
 20
4838538.425037247
  0
LWPOLYLINE
  5
2AB
330
17
100
AcDbEntity
  8
ROADS
100
AcDbPolyline
 90
2
 70
0
 10
626769.3761284853
 20
4838508.432444088
 10
626665.8205044031
 20
4838510.082539284
  0
LWPOLYLINE
  5
2AC
330
17
100
AcDbEntity
  8
ROADS
100
AcDbPolyline
 90
2
 70
0
 10
626923.5070576547
 20
4838538.425037247
 10
626951.0604944838
 20
4838547.063926644
  0
LWPOLYLINE
  5
2AD
330
17
100
AcDbEntity
  8
ROADS
100
AcDbPolyline
 90
3
 70
0
 10
626923.5070576547
 20
4838538.425037247
 10
626913.4745442718
 20
4838556.885709086
 10
626916.9533639268
 20
4838561.260488478
  0
LWPOLYLINE
  5
2AE
330
17
100
AcDbEntity
  8
ROADS
100
AcDbPolyline
 90
2
 70
0
 10
626951.0604944838
 20
4838547.063926644
 10
626949.3438265119
 20
4838557.118284046
  0
LWPOLYLINE
  5
2AF
330
17
100
AcDbEntity
  8
ROADS
100
AcDbPolyline
 90
2
 70
0
 10
626483.5494164738
 20
4838473.847138594
 10
626479.4597713621
 20
4838488.46686677
  0
LWPOLYLINE
  5
2B0
330
17
100
AcDbEntity
  8
ROADS
100
AcDbPolyline
 90
2
 70
0
 10
626579.2765438785
 20
4838474.932106023
 10
626568.830751479
 20
4838509.441251645
  0
LWPOLYLINE
  5
2B1
330
17
100
AcDbEntity
  8
ROADS
100
AcDbPolyline
 90
2
 70
0
 10
626676.5860299314
 20
4838475.064135834
 10
626665.8205044031
 20
4838510.082539284
  0
LWPOLYLINE
  5
2B2
330
17
100
AcDbEntity
  8
ROADS
100
AcDbPolyline
 90
2
 70
0
 10
626568.830751479
 20
4838509.441251645
 10
626546.6259805304
 20
4838508.983680781
  0
LWPOLYLINE
  5
2B3
330
17
100
AcDbEntity
  8
ROADS
100
AcDbPolyline
 90
2
 70
0
 10
626665.8205044031
 20
4838510.082539284
 10
626568.830751479
 20
4838509.441251645
  0
LWPOLYLINE
  5
2B4
330
17
100
AcDbEntity
  8
ROADS
100
AcDbPolyline
 90
2
 70
0
 10
626665.8205044031
 20
4838510.082539284
 10
626656.3208836105
 20
4838540.283133844
  0
LWPOLYLINE
  5
2B5
330
17
100
AcDbEntity
  8
ROADS
100
AcDbPolyline
 90
2
 70
0
 10
626769.3761284853
 20
4838508.432444088
 10
626771.628832877
 20
4838560.604692493
  0
LWPOLYLINE
  5
2B6
330
17
100
AcDbEntity
  8
ROADS
100
AcDbPolyline
 90
2
 70
0
 10
627091.3695865164
 20
4838468.915877825
 10
626951.0604944838
 20
4838547.063926644
  0
ENDSEC
  0
SECTION
  2
OBJECTS
  0
DICTIONARY
  5
A
330
0
100
AcDbDictionary
281
1
  3
ACAD_COLOR
350
B
  3
ACAD_GROUP
350
C
  3
ACAD_LAYOUT
350
D
  3
ACAD_MATERIAL
350
E
  3
ACAD_MLEADERSTYLE
350
F
  3
ACAD_MLINESTYLE
350
10
  3
ACAD_PLOTSETTINGS
350
11
  3
ACAD_PLOTSTYLENAME
350
12
  3
ACAD_SCALELIST
350
14
  3
ACAD_TABLESTYLE
350
15
  3
ACAD_VISUALSTYLE
350
16
  3
EZDXF_META
350
2D
  0
DICTIONARY
  5
B
330
A
100
AcDbDictionary
281
1
  0
DICTIONARY
  5
C
330
A
100
AcDbDictionary
281
1
  0
DICTIONARY
  5
D
330
A
100
AcDbDictionary
281
1
  3
Model
350
1A
  3
Layout1
350
1E
  0
DICTIONARY
  5
E
330
A
100
AcDbDictionary
281
1
  3
ByBlock
350
1F
  3
ByLayer
350
20
  3
Global
350
21
  0
DICTIONARY
  5
F
330
A
100
AcDbDictionary
281
1
  3
Standard
350
2C
  0
DICTIONARY
  5
10
330
A
100
AcDbDictionary
281
1
  3
Standard
350
22
  0
DICTIONARY
  5
11
330
A
100
AcDbDictionary
281
1
  0
ACDBDICTIONARYWDFLT
  5
12
330
A
100
AcDbDictionary
281
1
  3
Normal
350
13
100
AcDbDictionaryWithDefault
340
13
  0
ACDBPLACEHOLDER
  5
13
330
12
  0
DICTIONARY
  5
14
330
A
100
AcDbDictionary
281
1
  0
DICTIONARY
  5
15
330
A
100
AcDbDictionary
281
1
  0
DICTIONARY
  5
16
330
A
100
AcDbDictionary
281
1
  0
LAYOUT
  5
1A
330
D
100
AcDbPlotSettings
  1

  4
A3
  6

 40
7.5
 41
20.0
 42
7.5
 43
20.0
 44
420.0
 45
297.0
 46
0.0
 47
0.0
 48
0.0
 49
0.0
140
0.0
141
0.0
142
1.0
143
1.0
 70
1024
 72
1
 73
0
 74
5
  7

 75
16
 76
0
 77
2
 78
300
147
1.0
148
0.0
149
0.0
100
AcDbLayout
  1
Model
 70
1
 71
0
 10
0.0
 20
0.0
 11
420.0
 21
297.0
 12
0.0
 22
0.0
 32
0.0
 14
1e+20
 24
1e+20
 34
1e+20
 15
-1e+20
 25
-1e+20
 35
-1e+20
146
0.0
 13
0.0
 23
0.0
 33
0.0
 16
1.0
 26
0.0
 36
0.0
 17
0.0
 27
1.0
 37
0.0
 76
1
330
17
  0
LAYOUT
  5
1E
330
D
100
AcDbPlotSettings
  1

  4
A3
  6

 40
7.5
 41
20.0
 42
7.5
 43
20.0
 44
420.0
 45
297.0
 46
0.0
 47
0.0
 48
0.0
 49
0.0
140
0.0
141
0.0
142
1.0
143
1.0
 70
0
 72
1
 73
0
 74
5
  7

 75
16
 76
0
 77
2
 78
300
147
1.0
148
0.0
149
0.0
100
AcDbLayout
  1
Layout1
 70
1
 71
1
 10
0.0
 20
0.0
 11
420.0
 21
297.0
 12
0.0
 22
0.0
 32
0.0
 14
1e+20
 24
1e+20
 34
1e+20
 15
-1e+20
 25
-1e+20
 35
-1e+20
146
0.0
 13
0.0
 23
0.0
 33
0.0
 16
1.0
 26
0.0
 36
0.0
 17
0.0
 27
1.0
 37
0.0
 76
1
330
1B
  0
MATERIAL
  5
1F
102
{ACAD_REACTORS
330
E
102
}
330
E
100
AcDbMaterial
  1
ByBlock
  2

 70
0
 40
1.0
 71
1
 41
1.0
 91
-1023410177
 42
1.0
 72
1
  3

 73
1
 74
1
 75
1
 44
0.5
 73
0
 45
1.0
 46
1.0
 77
1
  4

 78
1
 79
1
170
1
 48
1.0
171
1
  6

172
1
173
1
174
1
140
1.0
141
1.0
175
1
  7

176
1
177
1
178
1
143
1.0
179
1
  8

270
1
271
1
272
1
145
1.0
146
1.0
273
1
  9

274
1
275
1
276
1
 42
1.0
 72
1
  3

 73
1
 74
1
 75
1
 94
63
  0
MATERIAL
  5
20
102
{ACAD_REACTORS
330
E
102
}
330
E
100
AcDbMaterial
  1
ByLayer
  2

 70
0
 40
1.0
 71
1
 41
1.0
 91
-1023410177
 42
1.0
 72
1
  3

 73
1
 74
1
 75
1
 44
0.5
 73
0
 45
1.0
 46
1.0
 77
1
  4

 78
1
 79
1
170
1
 48
1.0
171
1
  6

172
1
173
1
174
1
140
1.0
141
1.0
175
1
  7

176
1
177
1
178
1
143
1.0
179
1
  8

270
1
271
1
272
1
145
1.0
146
1.0
273
1
  9

274
1
275
1
276
1
 42
1.0
 72
1
  3

 73
1
 74
1
 75
1
 94
63
  0
MATERIAL
  5
21
102
{ACAD_REACTORS
330
E
102
}
330
E
100
AcDbMaterial
  1
Global
  2

 70
0
 40
1.0
 71
1
 41
1.0
 91
-1023410177
 42
1.0
 72
1
  3

 73
1
 74
1
 75
1
 44
0.5
 73
0
 45
1.0
 46
1.0
 77
1
  4

 78
1
 79
1
170
1
 48
1.0
171
1
  6

172
1
173
1
174
1
140
1.0
141
1.0
175
1
  7

176
1
177
1
178
1
143
1.0
179
1
  8

270
1
271
1
272
1
145
1.0
146
1.0
273
1
  9

274
1
275
1
276
1
 42
1.0
 72
1
  3

 73
1
 74
1
 75
1
 94
63
  0
MLINESTYLE
  5
22
102
{ACAD_REACTORS
330
10
102
}
330
10
100
AcDbMlineStyle
  2
Standard
 70
0
  3

 62
256
 51
90.0
 52
90.0
 71
2
 49
0.5
 62
256
  6
BYLAYER
 49
-0.5
 62
256
  6
BYLAYER
  0
MLEADERSTYLE
  5
2C
102
{ACAD_REACTORS
330
F
102
}
330
F
100
AcDbMLeaderStyle
179
2
170
2
171
1
172
0
 90
2
 40
0.0
 41
0.0
173
1
 91
-1056964608
 92
-2
290
1
 42
2.0
291
1
 43
8.0
  3
Standard
 44
4.0
300

342
29
174
1
175
1
176
0
178
1
 93
-1056964608
 45
4.0
292
0
297
0
 46
4.0
 94
-1056964608
 47
1.0
 49
1.0
140
1.0
294
1
141
0.0
177
0
142
1.0
295
0
296
0
143
3.75
271
0
272
9
273
9
  0
DICTIONARY
  5
2D
330
A
100
AcDbDictionary
280
1
281
1
  3
CREATED_BY_EZDXF
350
2E
  3
WRITTEN_BY_EZDXF
350
2B9
  0
DICTIONARYVAR
  5
2E
330
2D
100
DictionaryVariables
280
0
  1
1.4.4 @ 2026-07-07T06:20:01.871920+00:00
  0
DICTIONARYVAR
  5
2B9
330
2D
100
DictionaryVariables
280
0
  1
1.4.4 @ 2026-07-07T06:20:01.888931+00:00
  0
ENDSEC
  0
EOF
