  0
SECTION
  2
HEADER
  9
$ACADVER
  1
AC1015
  9
$ACADMAINTVER
 70
6
  9
$DWGCODEPAGE
  3
ANSI_1252
  9
$INSBASE
 10
0.0
 20
0.0
 30
0.0
  9
$EXTMIN
 10
1e+20
 20
1e+20
 30
1e+20
  9
$EXTMAX
 10
-1e+20
 20
-1e+20
 30
-1e+20
  9
$LIMMIN
 10
0.0
 20
0.0
  9
$LIMMAX
 10
420.0
 20
297.0
  9
$ORTHOMODE
 70
0
  9
$REGENMODE
 70
1
  9
$FILLMODE
 70
1
  9
$QTEXTMODE
 70
0
  9
$MIRRTEXT
 70
1
  9
$LTSCALE
 40
1.0
  9
$ATTMODE
 70
1
  9
$TEXTSIZE
 40
2.5
  9
$TRACEWID
 40
1.0
  9
$TEXTSTYLE
  7
Standard
  9
$CLAYER
  8
0
  9
$CELTYPE
  6
ByLayer
  9
$CECOLOR
 62
256
  9
$CELTSCALE
 40
1.0
  9
$DISPSILH
 70
0
  9
$DIMSCALE
 40
1.0
  9
$DIMASZ
 40
2.5
  9
$DIMEXO
 40
0.625
  9
$DIMDLI
 40
3.75
  9
$DIMRND
 40
0.0
  9
$DIMDLE
 40
0.0
  9
$DIMEXE
 40
1.25
  9
$DIMTP
 40
0.0
  9
$DIMTM
 40
0.0
  9
$DIMTXT
 40
2.5
  9
$DIMCEN
 40
2.5
  9
$DIMTSZ
 40
0.0
  9
$DIMTOL
 70
0
  9
$DIMLIM
 70
0
  9
$DIMTIH
 70
0
  9
$DIMTOH
 70
0
  9
$DIMSE1
 70
0
  9
$DIMSE2
 70
0
  9
$DIMTAD
 70
1
  9
$DIMZIN
 70
8
  9
$DIMBLK
  1

  9
$DIMASO
 70
1
  9
$DIMSHO
 70
1
  9
$DIMPOST
  1

  9
$DIMAPOST
  1

  9
$DIMALT
 70
0
  9
$DIMALTD
 70
3
  9
$DIMALTF
 40
0.03937007874
  9
$DIMLFAC
 40
1.0
  9
$DIMTOFL
 70
1
  9
$DIMTVP
 40
0.0
  9
$DIMTIX
 70
0
  9
$DIMSOXD
 70
0
  9
$DIMSAH
 70
0
  9
$DIMBLK1
  1

  9
$DIMBLK2
  1

  9
$DIMSTYLE
  2
ISO-25
  9
$DIMCLRD
 70
0
  9
$DIMCLRE
 70
0
  9
$DIMCLRT
 70
0
  9
$DIMTFAC
 40
1.0
  9
$DIMGAP
 40
0.625
  9
$DIMJUST
 70
0
  9
$DIMSD1
 70
0
  9
$DIMSD2
 70
0
  9
$DIMTOLJ
 70
0
  9
$DIMTZIN
 70
8
  9
$DIMALTZ
 70
0
  9
$DIMALTTZ
 70
0
  9
$DIMUPT
 70
0
  9
$DIMDEC
 70
2
  9
$DIMTDEC
 70
2
  9
$DIMALTU
 70
2
  9
$DIMALTTD
 70
3
  9
$DIMTXSTY
  7
Standard
  9
$DIMAUNIT
 70
0
  9
$DIMADEC
 70
0
  9
$DIMALTRND
 40
0.0
  9
$DIMAZIN
 70
0
  9
$DIMDSEP
 70
44
  9
$DIMATFIT
 70
3
  9
$DIMFRAC
 70
0
  9
$DIMLDRBLK
  1

  9
$DIMLUNIT
 70
2
  9
$DIMLWD
 70
-2
  9
$DIMLWE
 70
-2
  9
$DIMTMOVE
 70
0
  9
$LUNITS
 70
2
  9
$LUPREC
 70
4
  9
$SKETCHINC
 40
1.0
  9
$FILLETRAD
 40
10.0
  9
$AUNITS
 70
0
  9
$AUPREC
 70
2
  9
$MENU
  1
.
  9
$ELEVATION
 40
0.0
  9
$PELEVATION
 40
0.0
  9
$THICKNESS
 40
0.0
  9
$LIMCHECK
 70
0
  9
$CHAMFERA
 40
0.0
  9
$CHAMFERB
 40
0.0
  9
$CHAMFERC
 40
0.0
  9
$CHAMFERD
 40
0.0
  9
$SKPOLY
 70
0
  9
$TDCREATE
 40
2461252.4853819446
  9
$TDUCREATE
 40
2458532.153996898
  9
$TDUPDATE
 40
2461252.4853819446
  9
$TDUUPDATE
 40
2458532.1544311
  9
$TDINDWG
 40
0.0
  9
$TDUSRTIMER
 40
0.0
  9
$USRTIMER
 70
1
  9
$ANGBASE
 50
0.0
  9
$ANGDIR
 70
0
  9
$PDMODE
 70
0
  9
$PDSIZE
 40
0.0
  9
$PLINEWID
 40
0.0
  9
$SPLFRAME
 70
0
  9
$SPLINETYPE
 70
6
  9
$SPLINESEGS
 70
8
  9
$HANDSEED
  5
24A
  9
$SURFTAB1
 70
6
  9
$SURFTAB2
 70
6
  9
$SURFTYPE
 70
6
  9
$SURFU
 70
6
  9
$SURFV
 70
6
  9
$UCSBASE
  2

  9
$UCSNAME
  2

  9
$UCSORG
 10
0.0
 20
0.0
 30
0.0
  9
$UCSXDIR
 10
1.0
 20
0.0
 30
0.0
  9
$UCSYDIR
 10
0.0
 20
1.0
 30
0.0
  9
$UCSORTHOREF
  2

  9
$UCSORTHOVIEW
 70
0
  9
$UCSORGTOP
 10
0.0
 20
0.0
 30
0.0
  9
$UCSORGBOTTOM
 10
0.0
 20
0.0
 30
0.0
  9
$UCSORGLEFT
 10
0.0
 20
0.0
 30
0.0
  9
$UCSORGRIGHT
 10
0.0
 20
0.0
 30
0.0
  9
$UCSORGFRONT
 10
0.0
 20
0.0
 30
0.0
  9
$UCSORGBACK
 10
0.0
 20
0.0
 30
0.0
  9
$PUCSBASE
  2

  9
$PUCSNAME
  2

  9
$PUCSORG
 10
0.0
 20
0.0
 30
0.0
  9
$PUCSXDIR
 10
1.0
 20
0.0
 30
0.0
  9
$PUCSYDIR
 10
0.0
 20
1.0
 30
0.0
  9
$PUCSORTHOREF
  2

  9
$PUCSORTHOVIEW
 70
0
  9
$PUCSORGTOP
 10
0.0
 20
0.0
 30
0.0
  9
$PUCSORGBOTTOM
 10
0.0
 20
0.0
 30
0.0
  9
$PUCSORGLEFT
 10
0.0
 20
0.0
 30
0.0
  9
$PUCSORGRIGHT
 10
0.0
 20
0.0
 30
0.0
  9
$PUCSORGFRONT
 10
0.0
 20
0.0
 30
0.0
  9
$PUCSORGBACK
 10
0.0
 20
0.0
 30
0.0
  9
$USERI1
 70
0
  9
$USERI2
 70
0
  9
$USERI3
 70
0
  9
$USERI4
 70
0
  9
$USERI5
 70
0
  9
$USERR1
 40
0.0
  9
$USERR2
 40
0.0
  9
$USERR3
 40
0.0
  9
$USERR4
 40
0.0
  9
$USERR5
 40
0.0
  9
$WORLDVIEW
 70
1
  9
$SHADEDGE
 70
3
  9
$SHADEDIF
 70
70
  9
$TILEMODE
 70
1
  9
$MAXACTVP
 70
64
  9
$PINSBASE
 10
0.0
 20
0.0
 30
0.0
  9
$PLIMCHECK
 70
0
  9
$PEXTMIN
 10
1e+20
 20
1e+20
 30
1e+20
  9
$PEXTMAX
 10
-1e+20
 20
-1e+20
 30
-1e+20
  9
$PLIMMIN
 10
0.0
 20
0.0
  9
$PLIMMAX
 10
420.0
 20
297.0
  9
$UNITMODE
 70
0
  9
$VISRETAIN
 70
1
  9
$PLINEGEN
 70
0
  9
$PSLTSCALE
 70
1
  9
$TREEDEPTH
 70
3020
  9
$CMLSTYLE
  2
Standard
  9
$CMLJUST
 70
0
  9
$CMLSCALE
 40
20.0
  9
$PROXYGRAPHICS
 70
1
  9
$MEASUREMENT
 70
1
  9
$CELWEIGHT
370
-1
  9
$ENDCAPS
280
0
  9
$JOINSTYLE
280
0
  9
$LWDISPLAY
290
0
  9
$INSUNITS
 70
6
  9
$HYPERLINKBASE
  1

  9
$STYLESHEET
  1

  9
$XEDIT
290
1
  9
$CEPSNTYPE
380
0
  9
$PSTYLEMODE
290
1
  9
$FINGERPRINTGUID
  2
{085D080B-8AEF-4A77-914C-0A8CAB11F893}
  9
$VERSIONGUID
  2
{7FD46909-3B95-4A3C-BAF4-8DB7A245AC53}
  9
$EXTNAMES
290
1
  9
$PSVPSCALE
 40
0.0
  9
$OLESTARTUP
290
0
  0
ENDSEC
  0
SECTION
  2
CLASSES
  0
CLASS
  1
ACDBDICTIONARYWDFLT
  2
AcDbDictionaryWithDefault
  3
ObjectDBX Classes
 90
0
280
0
281
0
  0
CLASS
  1
SUN
  2
AcDbSun
  3
SCENEOE
 90
1153
280
0
281
0
  0
CLASS
  1
VISUALSTYLE
  2
AcDbVisualStyle
  3
ObjectDBX Classes
 90
4095
280
0
281
0
  0
CLASS
  1
MATERIAL
  2
AcDbMaterial
  3
ObjectDBX Classes
 90
1153
280
0
281
0
  0
CLASS
  1
SCALE
  2
AcDbScale
  3
ObjectDBX Classes
 90
1153
280
0
281
0
  0
CLASS
  1
TABLESTYLE
  2
AcDbTableStyle
  3
ObjectDBX Classes
 90
4095
280
0
281
0
  0
CLASS
  1
MLEADERSTYLE
  2
AcDbMLeaderStyle
  3
ACDB_MLEADERSTYLE_CLASS
 90
4095
280
0
281
0
  0
CLASS
  1
DICTIONARYVAR
  2
AcDbDictionaryVar
  3
ObjectDBX Classes
 90
0
280
0
281
0
  0
CLASS
  1
CELLSTYLEMAP
  2
AcDbCellStyleMap
  3
ObjectDBX Classes
 90
1152
280
0
281
0
  0
CLASS
  1
MENTALRAYRENDERSETTINGS
  2
AcDbMentalRayRenderSettings
  3
SCENEOE
 90
1024
280
0
281
0
  0
CLASS
  1
ACDBDETAILVIEWSTYLE
  2
AcDbDetailViewStyle
  3
ObjectDBX Classes
 90
1025
280
0
281
0
  0
CLASS
  1
ACDBSECTIONVIEWSTYLE
  2
AcDbSectionViewStyle
  3
ObjectDBX Classes
 90
1025
280
0
281
0
  0
CLASS
  1
RASTERVARIABLES
  2
AcDbRasterVariables
  3
ISM
 90
0
280
0
281
0
  0
CLASS
  1
ACDBPLACEHOLDER
  2
AcDbPlaceHolder
  3
ObjectDBX Classes
 90
0
280
0
281
0
  0
CLASS
  1
LAYOUT
  2
AcDbLayout
  3
ObjectDBX Classes
 90
0
280
0
281
0
  0
ENDSEC
  0
SECTION
  2
TABLES
  0
TABLE
  2
VPORT
  5
8
330
0
100
AcDbSymbolTable
 70
1
  0
VPORT
  5
23
330
8
100
AcDbSymbolTableRecord
100
AcDbViewportTableRecord
  2
*Active
 70
0
 10
0.0
 20
0.0
 11
1.0
 21
1.0
 12
0.0
 22
0.0
 13
0.0
 23
0.0
 14
0.5
 24
0.5
 15
0.5
 25
0.5
 16
0.0
 26
0.0
 36
1.0
 17
0.0
 27
0.0
 37
0.0
 40
1000.0
 41
1.34
 42
50.0
 43
0.0
 44
0.0
 50
0.0
 51
0.0
 71
0
 72
1000
 73
1
 74
3
 75
0
 76
0
 77
0
 78
0
281
0
 65
0
146
0.0
  0
ENDTAB
  0
TABLE
  2
LTYPE
  5
2
330
0
100
AcDbSymbolTable
 70
3
  0
LTYPE
  5
24
330
2
100
AcDbSymbolTableRecord
100
AcDbLinetypeTableRecord
  2
ByBlock
 70
0
  3

 72
65
 73
0
 40
0.0
  0
LTYPE
  5
25
330
2
100
AcDbSymbolTableRecord
100
AcDbLinetypeTableRecord
  2
ByLayer
 70
0
  3

 72
65
 73
0
 40
0.0
  0
LTYPE
  5
26
330
2
100
AcDbSymbolTableRecord
100
AcDbLinetypeTableRecord
  2
Continuous
 70
0
  3

 72
65
 73
0
 40
0.0
  0
ENDTAB
  0
TABLE
  2
LAYER
  5
1
330
0
100
AcDbSymbolTable
 70
2
  0
LAYER
  5
27
330
1
100
AcDbSymbolTableRecord
100
AcDbLayerTableRecord
  2
0
 70
0
 62
7
  6
Continuous
370
-3
390
13
  0
LAYER
  5
28
330
1
100
AcDbSymbolTableRecord
100
AcDbLayerTableRecord
  2
Defpoints
 70
0
 62
7
  6
Continuous
290
0
370
-3
390
13
  0
ENDTAB
  0
TABLE
  2
STYLE
  5
5
330
0
100
AcDbSymbolTable
 70
1
  0
STYLE
  5
29
330
5
100
AcDbSymbolTableRecord
100
AcDbTextStyleTableRecord
  2
Standard
 70
0
 40
0.0
 41
1.0
 50
0.0
 71
0
 42
2.5
  3
txt
  4

  0
ENDTAB
  0
TABLE
  2
VIEW
  5
7
330
0
100
AcDbSymbolTable
 70
0
  0
ENDTAB
  0
TABLE
  2
UCS
  5
6
330
0
100
AcDbSymbolTable
 70
0
  0
ENDTAB
  0
TABLE
  2
APPID
  5
3
330
0
100
AcDbSymbolTable
 70
3
  0
APPID
  5
2A
330
3
100
AcDbSymbolTableRecord
100
AcDbRegAppTableRecord
  2
ACAD
 70
0
  0
APPID
  5
247
330
3
100
AcDbSymbolTableRecord
100
AcDbRegAppTableRecord
  2
HATCHBACKGROUNDCOLOR
 70
0
  0
APPID
  5
248
330
3
100
AcDbSymbolTableRecord
100
AcDbRegAppTableRecord
  2
EZDXF
 70
0
  0
ENDTAB
  0
TABLE
  2
DIMSTYLE
  5
4
330
0
100
AcDbSymbolTable
 70
1
100
AcDbDimStyleTable
  0
DIMSTYLE
105
2B
330
4
100
AcDbSymbolTableRecord
100
AcDbDimStyleTableRecord
  2
Standard
 70
0
  3

  4

 40
1.0
 41
2.5
 42
0.625
 43
3.75
 44
1.25
 45
0.0
 46
0.0
 47
0.0
 48
0.0
140
2.5
141
2.5
142
0.0
143
0.03937007874
144
1.0
145
0.0
146
1.0
147
0.625
148
0.0
 71
0
 72
0
 73
0
 74
0
 75
0
 76
0
 77
1
 78
8
 79
3
170
0
171
3
172
1
173
0
174
0
175
0
176
0
177
0
178
0
179
2
271
2
272
2
273
2
274
3
275
0
276
0
277
2
278
44
279
0
280
0
281
0
282
0
283
0
284
8
285
0
286
0
288
0
289
3
371
-2
372
-2
  0
ENDTAB
  0
TABLE
  2
BLOCK_RECORD
  5
9
330
0
100
AcDbSymbolTable
 70
2
  0
BLOCK_RECORD
  5
17
330
9
100
AcDbSymbolTableRecord
100
AcDbBlockTableRecord
  2
*Model_Space
340
1A
  0
BLOCK_RECORD
  5
1B
330
9
100
AcDbSymbolTableRecord
100
AcDbBlockTableRecord
  2
*Paper_Space
340
1E
  0
ENDTAB
  0
ENDSEC
  0
SECTION
  2
BLOCKS
  0
BLOCK
  5
18
330
17
100
AcDbEntity
  8
0
100
AcDbBlockBegin
  2
*Model_Space
 70
0
 10
0.0
 20
0.0
 30
0.0
  3
*Model_Space
  1

  0
ENDBLK
  5
19
330
17
100
AcDbEntity
  8
0
100
AcDbBlockEnd
  0
BLOCK
  5
1C
330
1B
100
AcDbEntity
  8
0
100
AcDbBlockBegin
  2
*Paper_Space
 70
0
 10
0.0
 20
0.0
 30
0.0
  3
*Paper_Space
  1

  0
ENDBLK
  5
1D
330
1B
100
AcDbEntity
  8
0
100
AcDbBlockEnd
  0
ENDSEC
  0
SECTION
  2
ENTITIES
  0
LWPOLYLINE
  5
2F
330
17
100
AcDbEntity
  8
ROADS
100
AcDbPolyline
 90
2
 70
0
 10
622687.5519932905
 20
4837559.994195006
 10
622656.4585931415
 20
4837495.398072606
  0
LWPOLYLINE
  5
30
330
17
100
AcDbEntity
  8
ROADS
100
AcDbPolyline
 90
2
 70
0
 10
622473.810394503
 20
4837722.302605324
 10
622397.1660228677
 20
4837553.9005872
  0
LWPOLYLINE
  5
31
330
17
100
AcDbEntity
  8
ROADS
100
AcDbPolyline
 90
2
 70
0
 10
622731.4940627877
 20
4837521.317973297
 10
622722.4028416708
 20
4837492.781205655
  0
LWPOLYLINE
  5
32
330
17
100
AcDbEntity
  8
ROADS
100
AcDbPolyline
 90
2
 70
0
 10
622778.9597673898
 20
4837493.281817891
 10
622783.390495614
 20
4837512.393043078
  0
LWPOLYLINE
  5
33
330
17
100
AcDbEntity
  8
ROADS
100
AcDbPolyline
 90
2
 70
0
 10
622829.7364007517
 20
4837496.172619378
 10
622781.4150009382
 20
4837561.7397296345
  0
LWPOLYLINE
  5
34
330
17
100
AcDbEntity
  8
ROADS
100
AcDbPolyline
 90
2
 70
0
 10
622879.6296664128
 20
4837502.211585278
 10
622825.6091654795
 20
4837575.729637032
  0
LWPOLYLINE
  5
35
330
17
100
AcDbEntity
  8
ROADS
100
AcDbPolyline
 90
2
 70
0
 10
622687.5519932905
 20
4837559.994195006
 10
622731.4940627877
 20
4837521.317973297
  0
LWPOLYLINE
  5
36
330
17
100
AcDbEntity
  8
ROADS
100
AcDbPolyline
 90
3
 70
0
 10
622781.4150009382
 20
4837561.7397296345
 10
622747.2916028027
 20
4837547.181920791
 10
622731.4940627877
 20
4837521.317973297
  0
LWPOLYLINE
  5
37
330
17
100
AcDbEntity
  8
ROADS
100
AcDbPolyline
 90
2
 70
0
 10
622592.6517643769
 20
4837625.389147348
 10
622531.3472747282
 20
4837515.034392473
  0
LWPOLYLINE
  5
38
330
17
100
AcDbEntity
  8
ROADS
100
AcDbPolyline
 90
2
 70
0
 10
622825.6091654795
 20
4837575.729637032
 10
622781.4150009382
 20
4837561.7397296345
  0
LWPOLYLINE
  5
39
330
17
100
AcDbEntity
  8
ROADS
100
AcDbPolyline
 90
2
 70
0
 10
622607.7705904281
 20
4837632.019384835
 10
622687.5519932905
 20
4837559.994195006
  0
LWPOLYLINE
  5
3A
330
17
100
AcDbEntity
  8
ROADS
100
AcDbPolyline
 90
2
 70
0
 10
622165.9349048937
 20
4837697.854578601
 10
622172.9427044608
 20
4837670.607717696
  0
LWPOLYLINE
  5
3B
330
17
100
AcDbEntity
  8
ROADS
100
AcDbPolyline
 90
2
 70
0
 10
622343.321772582
 20
4837717.347505413
 10
622287.2599025648
 20
4837601.080544348
  0
LWPOLYLINE
  5
3C
330
17
100
AcDbEntity
  8
ROADS
100
AcDbPolyline
 90
2
 70
0
 10
622476.1166227382
 20
4837780.079084992
 10
622370.8407690332
 20
4837563.17342822
  0
LWPOLYLINE
  5
3D
330
17
100
AcDbEntity
  8
ROADS
100
AcDbPolyline
 90
2
 70
0
 10
622165.9349048937
 20
4837697.854578601
 10
622139.326535777
 20
4837694.548669391
  0
LWPOLYLINE
  5
3E
330
17
100
AcDbEntity
  8
ROADS
100
AcDbPolyline
 90
2
 70
0
 10
622343.321772582
 20
4837717.347505413
 10
622303.391204863
 20
4837737.40132021
  0
LWPOLYLINE
  5
3F
330
17
100
AcDbEntity
  8
ROADS
100
AcDbPolyline
 90
2
 70
0
 10
622825.6091654795
 20
4837575.729637032
 10
622776.9747448132
 20
4837638.161164845
  0
LWPOLYLINE
  5
40
330
17
100
AcDbEntity
  8
ROADS
100
AcDbPolyline
 90
2
 70
0
 10
622592.6517643769
 20
4837625.389147348
 10
622580.871383145
 20
4837622.613970704
  0
LWPOLYLINE
  5
41
330
17
100
AcDbEntity
  8
ROADS
100
AcDbPolyline
 90
2
 70
0
 10
622580.871383145
 20
4837622.613970704
 10
622535.4204225598
 20
4837627.467245455
  0
LWPOLYLINE
  5
42
330
17
100
AcDbEntity
  8
ROADS
100
AcDbPolyline
 90
2
 70
0
 10
622607.7705904281
 20
4837632.019384835
 10
622592.6517643769
 20
4837625.389147348
  0
LWPOLYLINE
  5
43
330
17
100
AcDbEntity
  8
ROADS
100
AcDbPolyline
 90
2
 70
0
 10
622832.1888661017
 20
4837651.85135894
 10
622776.9747448132
 20
4837638.161164845
  0
LWPOLYLINE
  5
44
330
17
100
AcDbEntity
  8
ROADS
100
AcDbPolyline
 90
2
 70
0
 10
622580.871383145
 20
4837622.613970704
 10
622551.6352635635
 20
4837684.197217543
  0
LWPOLYLINE
  5
45
330
17
100
AcDbEntity
  8
ROADS
100
AcDbPolyline
 90
2
 70
0
 10
622551.6352635635
 20
4837684.197217543
 10
622607.7705904281
 20
4837632.019384835
  0
LWPOLYLINE
  5
46
330
17
100
AcDbEntity
  8
ROADS
100
AcDbPolyline
 90
2
 70
0
 10
622930.383482048
 20
4837666.40588644
 10
622832.1888661017
 20
4837651.85135894
  0
LWPOLYLINE
  5
47
330
17
100
AcDbEntity
  8
ROADS
100
AcDbPolyline
 90
2
 70
0
 10
622510.0971488737
 20
4837704.884007425
 10
622551.6352635635
 20
4837684.197217543
  0
LWPOLYLINE
  5
48
330
17
100
AcDbEntity
  8
ROADS
100
AcDbPolyline
 90
2
 70
0
 10
622776.9747448132
 20
4837638.161164845
 10
622619.7969590846
 20
4837777.07039702
  0
LWPOLYLINE
  5
49
330
17
100
AcDbEntity
  8
ROADS
100
AcDbPolyline
 90
2
 70
0
 10
622473.810394503
 20
4837722.302605324
 10
622510.0971488737
 20
4837704.884007425
  0
LWPOLYLINE
  5
4A
330
17
100
AcDbEntity
  8
ROADS
100
AcDbPolyline
 90
2
 70
0
 10
622510.0971488737
 20
4837704.884007425
 10
622527.9440503474
 20
4837740.657486283
  0
LWPOLYLINE
  5
4B
330
17
100
AcDbEntity
  8
ROADS
100
AcDbPolyline
 90
2
 70
0
 10
622930.383482048
 20
4837666.40588644
 10
622892.2258206621
 20
4837782.734544017
  0
LWPOLYLINE
  5
4C
330
17
100
AcDbEntity
  8
ROADS
100
AcDbPolyline
 90
2
 70
0
 10
622619.7969590846
 20
4837777.07039702
 10
622551.6352635635
 20
4837684.197217543
  0
LWPOLYLINE
  5
4D
330
17
100
AcDbEntity
  8
ROADS
100
AcDbPolyline
 90
2
 70
0
 10
622514.6998112657
 20
4837801.348884687
 10
622473.810394503
 20
4837722.302605324
  0
LWPOLYLINE
  5
4E
330
17
100
AcDbEntity
  8
ROADS
100
AcDbPolyline
 90
2
 70
0
 10
622892.2258206621
 20
4837782.734544017
 10
622786.124498018
 20
4837743.094764905
  0
LWPOLYLINE
  5
4F
330
17
100
AcDbEntity
  8
ROADS
100
AcDbPolyline
 90
2
 70
0
 10
622908.7027515671
 20
4837795.445655221
 10
622892.2258206621
 20
4837782.734544017
  0
LWPOLYLINE
  5
50
330
17
100
AcDbEntity
  8
ROADS
100
AcDbPolyline
 90
2
 70
0
 10
622476.1166227382
 20
4837780.079084992
 10
622388.8786942455
 20
4837802.791471099
  0
LWPOLYLINE
  5
51
330
17
100
AcDbEntity
  8
ROADS
100
AcDbPolyline
 90
2
 70
0
 10
622619.7969590846
 20
4837777.07039702
 10
622496.0941899413
 20
4837822.1243990185
  0
LWPOLYLINE
  5
52
330
17
100
AcDbEntity
  8
ROADS
100
AcDbPolyline
 90
2
 70
0
 10
622496.0941899413
 20
4837822.1243990185
 10
622476.1166227382
 20
4837780.079084992
  0
LWPOLYLINE
  5
53
330
17
100
AcDbEntity
  8
ROADS
100
AcDbPolyline
 90
2
 70
0
 10
622016.1106766663
 20
4837859.823591114
 10
621978.2787817484
 20
4837846.641734012
  0
LWPOLYLINE
  5
54
330
17
100
AcDbEntity
  8
ROADS
100
AcDbPolyline
 90
2
 70
0
 10
622388.8786942455
 20
4837802.791471099
 10
622343.321772582
 20
4837717.347505413
  0
LWPOLYLINE
  5
55
330
17
100
AcDbEntity
  8
ROADS
100
AcDbPolyline
 90
3
 70
0
 10
622312.6437615906
 20
4837865.732746442
 10
622253.319457433
 20
4837741.347965456
 10
622165.9349048937
 20
4837697.854578601
  0
LWPOLYLINE
  5
56
330
17
100
AcDbEntity
  8
ROADS
100
AcDbPolyline
 90
2
 70
0
 10
622388.8786942455
 20
4837802.791471099
 10
622341.3874090929
 20
4837815.289182575
  0
LWPOLYLINE
  5
57
330
17
100
AcDbEntity
  8
ROADS
100
AcDbPolyline
 90
2
 70
0
 10
622407.9164650192
 20
4837842.389662378
 10
622388.8786942455
 20
4837802.791471099
  0
LWPOLYLINE
  5
58
330
17
100
AcDbEntity
  8
ROADS
100
AcDbPolyline
 90
2
 70
0
 10
622030.7118199418
 20
4837819.101756587
 10
622047.4595108338
 20
4837772.39189612
  0
LWPOLYLINE
  5
59
330
17
100
AcDbEntity
  8
ROADS
100
AcDbPolyline
 90
3
 70
0
 10
622050.066539725
 20
4837769.642764813
 10
622229.9756955642
 20
4837829.025938513
 10
622255.9830917711
 20
4837879.831690772
  0
LWPOLYLINE
  5
5A
330
17
100
AcDbEntity
  8
ROADS
100
AcDbPolyline
 90
2
 70
0
 10
622030.7118199418
 20
4837819.101756587
 10
622075.7374934453
 20
4837833.833741222
  0
LWPOLYLINE
  5
5B
330
17
100
AcDbEntity
  8
ROADS
100
AcDbPolyline
 90
2
 70
0
 10
622016.1106766663
 20
4837859.823591114
 10
622030.7118199418
 20
4837819.101756587
  0
LWPOLYLINE
  5
5C
330
17
100
AcDbEntity
  8
ROADS
100
AcDbPolyline
 90
2
 70
0
 10
622407.9164650192
 20
4837842.389662378
 10
622312.6437615906
 20
4837865.732746442
  0
LWPOLYLINE
  5
5D
330
17
100
AcDbEntity
  8
ROADS
100
AcDbPolyline
 90
2
 70
0
 10
622312.6437615906
 20
4837865.732746442
 10
622255.9830917711
 20
4837879.831690772
  0
LWPOLYLINE
  5
5E
330
17
100
AcDbEntity
  8
ROADS
100
AcDbPolyline
 90
2
 70
0
 10
622187.4177675464
 20
4837918.4864875795
 10
622016.1106766663
 20
4837859.823591114
  0
LWPOLYLINE
  5
5F
330
17
100
AcDbEntity
  8
ROADS
100
AcDbPolyline
 90
3
 70
0
 10
622908.7027515671
 20
4837795.445655221
 10
622872.9306779916
 20
4837818.078329219
 10
622802.7437296709
 20
4837811.41566583
  0
LWPOLYLINE
  5
60
330
17
100
AcDbEntity
  8
ROADS
100
AcDbPolyline
 90
2
 70
0
 10
622496.0941899413
 20
4837822.1243990185
 10
622407.9164650192
 20
4837842.389662378
  0
LWPOLYLINE
  5
61
330
17
100
AcDbEntity
  8
ROADS
100
AcDbPolyline
 90
3
 70
0
 10
622802.7437296709
 20
4837811.41566583
 10
622767.475032525
 20
4837819.321215064
 10
622595.94141245
 20
4837928.431286556
  0
LWPOLYLINE
  5
62
330
17
100
AcDbEntity
  8
ROADS
100
AcDbPolyline
 90
3
 70
0
 10
622802.7437296709
 20
4837811.41566583
 10
622816.9471152361
 20
4837885.250152659
 10
622753.0505532403
 20
4837934.595973217
  0
LWPOLYLINE
  5
63
330
17
100
AcDbEntity
  8
ROADS
100
AcDbPolyline
 90
2
 70
0
 10
622496.0941899413
 20
4837822.1243990185
 10
622452.8948605299
 20
4837925.8141021645
  0
LWPOLYLINE
  5
64
330
17
100
AcDbEntity
  8
ROADS
100
AcDbPolyline
 90
3
 70
0
 10
622916.8734083486
 20
4837966.952376112
 10
622872.5239374208
 20
4837960.111956136
 10
622746.5894364947
 20
4838048.100659445
  0
LWPOLYLINE
  5
65
330
17
100
AcDbEntity
  8
ROADS
100
AcDbPolyline
 90
2
 70
0
 10
622916.8734083486
 20
4837966.952376112
 10
622886.5773898917
 20
4838058.213947737
  0
LWPOLYLINE
  5
66
330
17
100
AcDbEntity
  8
ROADS
100
AcDbPolyline
 90
2
 70
0
 10
622886.5773898917
 20
4838058.213947737
 10
622746.5894364947
 20
4838048.100659445
  0
LWPOLYLINE
  5
67
330
17
100
AcDbEntity
  8
ROADS
100
AcDbPolyline
 90
5
 70
0
 10
622746.5894364947
 20
4838048.100659445
 10
622669.4841896703
 20
4838100.378689987
 10
622665.818703905
 20
4838123.120500585
 10
622682.2093557195
 20
4838142.756896538
 10
622856.4408720183
 20
4838147.788305148
  0
LWPOLYLINE
  5
68
330
17
100
AcDbEntity
  8
ROADS
100
AcDbPolyline
 90
2
 70
0
 10
622886.5773898917
 20
4838058.213947737
 10
622856.4408720183
 20
4838147.788305148
  0
LWPOLYLINE
  5
69
330
17
100
AcDbEntity
  8
ROADS
100
AcDbPolyline
 90
3
 70
0
 10
622050.9518571565
 20
4838010.742754012
 10
622042.7294977648
 20
4837996.3653754145
 10
621901.8960402976
 20
4837951.234012887
  0
LWPOLYLINE
  5
6A
330
17
100
AcDbEntity
  8
ROADS
100
AcDbPolyline
 90
2
 70
0
 10
622050.9518571565
 20
4838010.742754012
 10
621952.354136702
 20
4838074.888523148
  0
LWPOLYLINE
  5
6B
330
17
100
AcDbEntity
  8
ROADS
100
AcDbPolyline
 90
2
 70
0
 10
622255.9830917711
 20
4837879.831690772
 10
622187.4177675464
 20
4837918.4864875795
  0
LWPOLYLINE
  5
6C
330
17
100
AcDbEntity
  8
ROADS
100
AcDbPolyline
 90
2
 70
0
 10
622187.4177675464
 20
4837918.4864875795
 10
622069.2048780957
 20
4837998.4032954965
  0
LWPOLYLINE
  5
6D
330
17
100
AcDbEntity
  8
ROADS
100
AcDbPolyline
 90
3
 70
0
 10
622114.6021037431
 20
4838068.397618394
 10
622233.7194193974
 20
4837990.894294927
 10
622187.4177675464
 20
4837918.4864875795
  0
LWPOLYLINE
  5
6E
330
17
100
AcDbEntity
  8
ROADS
100
AcDbPolyline
 90
2
 70
0
 10
622069.2048780957
 20
4837998.4032954965
 10
622050.9518571565
 20
4838010.742754012
  0
LWPOLYLINE
  5
6F
330
17
100
AcDbEntity
  8
ROADS
100
AcDbPolyline
 90
2
 70
0
 10
622452.8948605299
 20
4837925.8141021645
 10
622370.6450602853
 20
4838103.461048668
  0
LWPOLYLINE
  5
70
330
17
100
AcDbEntity
  8
ROADS
100
AcDbPolyline
 90
2
 70
0
 10
622069.2048780957
 20
4837998.4032954965
 10
622092.4185025678
 20
4838034.368814318
  0
LWPOLYLINE
  5
71
330
17
100
AcDbEntity
  8
ROADS
100
AcDbPolyline
 90
2
 70
0
 10
622092.4185025678
 20
4838034.368814318
 10
622131.3656873308
 20
4838008.416985333
  0
LWPOLYLINE
  5
72
330
17
100
AcDbEntity
  8
ROADS
100
AcDbPolyline
 90
2
 70
0
 10
622092.4185025678
 20
4838034.368814318
 10
622114.6021037431
 20
4838068.397618394
  0
LWPOLYLINE
  5
73
330
17
100
AcDbEntity
  8
ROADS
100
AcDbPolyline
 90
2
 70
0
 10
621975.2503705845
 20
4838109.989254489
 10
622092.4185025678
 20
4838034.368814318
  0
LWPOLYLINE
  5
74
330
17
100
AcDbEntity
  8
ROADS
100
AcDbPolyline
 90
2
 70
0
 10
622114.6021037431
 20
4838068.397618394
 10
621997.7262778435
 20
4838144.443358453
  0
LWPOLYLINE
  5
75
330
17
100
AcDbEntity
  8
ROADS
100
AcDbPolyline
 90
2
 70
0
 10
621916.3627118967
 20
4838094.116476623
 10
621838.7640828575
 20
4838064.216470902
  0
LWPOLYLINE
  5
76
330
17
100
AcDbEntity
  8
ROADS
100
AcDbPolyline
 90
2
 70
0
 10
621952.354136702
 20
4838074.888523148
 10
621916.3627118967
 20
4838094.116476623
  0
LWPOLYLINE
  5
77
330
17
100
AcDbEntity
  8
ROADS
100
AcDbPolyline
 90
2
 70
0
 10
621975.2503705845
 20
4838109.989254489
 10
621952.354136702
 20
4838074.888523148
  0
LWPOLYLINE
  5
78
330
17
100
AcDbEntity
  8
ROADS
100
AcDbPolyline
 90
2
 70
0
 10
621997.7262778435
 20
4838144.443358453
 10
621975.2503705845
 20
4838109.989254489
  0
LWPOLYLINE
  5
79
330
17
100
AcDbEntity
  8
ROADS
100
AcDbPolyline
 90
2
 70
0
 10
621975.2503705845
 20
4838109.989254489
 10
621840.611886383
 20
4838197.639223311
  0
LWPOLYLINE
  5
7A
330
17
100
AcDbEntity
  8
ROADS
100
AcDbPolyline
 90
2
 70
0
 10
621916.3627118967
 20
4838094.116476623
 10
621792.0496734461
 20
4838178.989365584
  0
LWPOLYLINE
  5
7B
330
17
100
AcDbEntity
  8
ROADS
100
AcDbPolyline
 90
2
 70
0
 10
621997.7262778435
 20
4838144.443358453
 10
621907.8428559806
 20
4838203.286442248
  0
LWPOLYLINE
  5
7C
330
17
100
AcDbEntity
  8
ROADS
100
AcDbPolyline
 90
2
 70
0
 10
621840.611886383
 20
4838197.639223311
 10
621808.0470373183
 20
4838219.498252415
  0
LWPOLYLINE
  5
7D
330
17
100
AcDbEntity
  8
ROADS
100
AcDbPolyline
 90
3
 70
0
 10
621840.611886383
 20
4838197.639223311
 10
621862.5060223668
 20
4838232.962837677
 10
621907.8428559806
 20
4838203.286442248
  0
LWPOLYLINE
  5
7E
330
17
100
AcDbEntity
  8
ROADS
100
AcDbPolyline
 90
2
 70
0
 10
621907.8428559806
 20
4838203.286442248
 10
621929.570447369
 20
4838237.312991646
  0
LWPOLYLINE
  5
7F
330
17
100
AcDbEntity
  8
ROADS
100
AcDbPolyline
 90
2
 70
0
 10
622942.3470799179
 20
4838174.329321316
 10
622856.4408720183
 20
4838147.788305148
  0
LWPOLYLINE
  5
80
330
17
100
AcDbEntity
  8
ROADS
100
AcDbPolyline
 90
2
 70
0
 10
622856.4408720183
 20
4838147.788305148
 10
622806.6158822475
 20
4838296.273440405
  0
LWPOLYLINE
  5
81
330
17
100
AcDbEntity
  8
ROADS
100
AcDbPolyline
 90
2
 70
0
 10
622942.3470799179
 20
4838174.329321316
 10
622878.5541518037
 20
4838363.6858697515
  0
LWPOLYLINE
  5
82
330
17
100
AcDbEntity
  8
ROADS
100
AcDbPolyline
 90
2
 70
0
 10
622878.5541518037
 20
4838363.6858697515
 10
622806.6158822475
 20
4838296.273440405
  0
LWPOLYLINE
  5
83
330
17
100
AcDbEntity
  8
ROADS
100
AcDbPolyline
 90
2
 70
0
 10
622719.7778822315
 20
4838264.468293704
 10
622668.2684382203
 20
4838418.418150855
  0
LWPOLYLINE
  5
84
330
17
100
AcDbEntity
  8
ROADS
100
AcDbPolyline
 90
2
 70
0
 10
622806.6158822475
 20
4838296.273440405
 10
622753.9806913618
 20
4838449.181920729
  0
LWPOLYLINE
  5
85
330
17
100
AcDbEntity
  8
ROADS
100
AcDbPolyline
 90
2
 70
0
 10
622955.6848707282
 20
4838409.13815757
 10
622878.5541518037
 20
4838363.6858697515
  0
LWPOLYLINE
  5
86
330
17
100
AcDbEntity
  8
ROADS
100
AcDbPolyline
 90
2
 70
0
 10
622668.2684382203
 20
4838418.418150855
 10
622624.8128820965
 20
4838404.869518715
  0
LWPOLYLINE
  5
87
330
17
100
AcDbEntity
  8
ROADS
100
AcDbPolyline
 90
2
 70
0
 10
622753.9806913618
 20
4838449.181920729
 10
622668.2684382203
 20
4838418.418150855
  0
LWPOLYLINE
  5
88
330
17
100
AcDbEntity
  8
ROADS
100
AcDbPolyline
 90
2
 70
0
 10
622878.5541518037
 20
4838363.6858697515
 10
622827.566568413
 20
4838520.875383569
  0
LWPOLYLINE
  5
89
330
17
100
AcDbEntity
  8
ROADS
100
AcDbPolyline
 90
7
 70
0
 10
622370.6450602853
 20
4838103.461048668
 10
622313.4339837714
 20
4838086.782538767
 10
622267.2056942933
 20
4838099.339052588
 10
622113.1538969945
 20
4838200.440621441
 10
622105.8468240942
 20
4838227.462731122
 10
622039.2102074813
 20
4838242.91623985
 10
622002.0031466305
 20
4838293.358648515
  0
LWPOLYLINE
  5
8A
330
17
100
AcDbEntity
  8
ROADS
100
AcDbPolyline
 90
2
 70
0
 10
622370.6450602853
 20
4838103.461048668
 10
622269.3917993776
 20
4838379.8263820615
  0
LWPOLYLINE
  5
8B
330
17
100
AcDbEntity
  8
ROADS
100
AcDbPolyline
 90
2
 70
0
 10
622201.4476160469
 20
4838357.1009172825
 10
622002.0031466305
 20
4838293.358648515
  0
LWPOLYLINE
  5
8C
330
17
100
AcDbEntity
  8
ROADS
100
AcDbPolyline
 90
2
 70
0
 10
622269.3917993776
 20
4838379.8263820615
 10
622201.4476160469
 20
4838357.1009172825
  0
LWPOLYLINE
  5
8D
330
17
100
AcDbEntity
  8
ROADS
100
AcDbPolyline
 90
3
 70
0
 10
622201.4476160469
 20
4838357.1009172825
 10
622208.555786123
 20
4838444.13459013
 10
622177.9327212883
 20
4838544.903460349
  0
LWPOLYLINE
  5
8E
330
17
100
AcDbEntity
  8
ROADS
100
AcDbPolyline
 90
2
 70
0
 10
622269.3917993776
 20
4838379.8263820615
 10
622184.0283816478
 20
4838678.290003954
  0
LWPOLYLINE
  5
8F
330
17
100
AcDbEntity
  8
ROADS
100
AcDbPolyline
 90
5
 70
0
 10
622184.0283816478
 20
4838678.290003954
 10
622146.259250181
 20
4838668.634393615
 10
622113.1111660855
 20
4838686.465659562
 10
622083.8654405396
 20
4838822.7640586905
 10
621988.5488259591
 20
4838928.69789536
  0
LWPOLYLINE
  5
90
330
17
100
AcDbEntity
  8
ROADS
100
AcDbPolyline
 90
2
 70
0
 10
622440.9510991697
 20
4838783.692190052
 10
622379.9693626945
 20
4838816.742731416
  0
LWPOLYLINE
  5
91
330
17
100
AcDbEntity
  8
ROADS
100
AcDbPolyline
 90
2
 70
0
 10
622379.9693626945
 20
4838816.742731416
 10
622349.7597579688
 20
4838836.046217481
  0
LWPOLYLINE
  5
92
330
17
100
AcDbEntity
  8
ROADS
100
AcDbPolyline
 90
2
 70
0
 10
622379.9693626945
 20
4838816.742731416
 10
622374.7374610039
 20
4838841.325269718
  0
LWPOLYLINE
  5
93
330
17
100
AcDbEntity
  8
ROADS
100
AcDbPolyline
 90
4
 70
0
 10
622728.3915451757
 20
4838533.822218161
 10
622541.2925832823
 20
4838449.723061984
 10
622415.7683415904
 20
4838428.227678434
 10
622269.3917993776
 20
4838379.8263820615
  0
LWPOLYLINE
  5
94
330
17
100
AcDbEntity
  8
ROADS
100
AcDbPolyline
 90
2
 70
0
 10
622753.9806913618
 20
4838449.181920729
 10
622728.3915451757
 20
4838533.822218161
  0
LWPOLYLINE
  5
95
330
17
100
AcDbEntity
  8
ROADS
100
AcDbPolyline
 90
2
 70
0
 10
622827.566568413
 20
4838520.875383569
 10
622766.0131554117
 20
4838500.662067765
  0
LWPOLYLINE
  5
96
330
17
100
AcDbEntity
  8
ROADS
100
AcDbPolyline
 90
2
 70
0
 10
622827.566568413
 20
4838520.875383569
 10
622813.2356485844
 20
4838562.574221765
  0
LWPOLYLINE
  5
97
330
17
100
AcDbEntity
  8
ROADS
100
AcDbPolyline
 90
2
 70
0
 10
622813.2356485844
 20
4838562.574221765
 10
622728.3915451757
 20
4838533.822218161
  0
LWPOLYLINE
  5
98
330
17
100
AcDbEntity
  8
ROADS
100
AcDbPolyline
 90
2
 70
0
 10
622912.7918171226
 20
4838539.614791992
 10
622895.6162799505
 20
4838590.959663703
  0
LWPOLYLINE
  5
99
330
17
100
AcDbEntity
  8
ROADS
100
AcDbPolyline
 90
2
 70
0
 10
622895.6162799505
 20
4838590.959663703
 10
622813.2356485844
 20
4838562.574221765
  0
LWPOLYLINE
  5
9A
330
17
100
AcDbEntity
  8
ROADS
100
AcDbPolyline
 90
4
 70
0
 10
622728.3915451757
 20
4838533.822218161
 10
622714.4332412652
 20
4838556.966878977
 10
622664.4241722082
 20
4838570.6580153
 10
622632.6533731113
 20
4838672.068283353
  0
LWPOLYLINE
  5
9B
330
17
100
AcDbEntity
  8
ROADS
100
AcDbPolyline
 90
2
 70
0
 10
622895.6162799505
 20
4838590.959663703
 10
622865.6259831913
 20
4838666.747945029
  0
LWPOLYLINE
  5
9C
330
17
100
AcDbEntity
  8
ROADS
100
AcDbPolyline
 90
3
 70
0
 10
622632.6533731113
 20
4838672.068283353
 10
622524.5721342365
 20
4838702.918834555
 10
622509.3256531938
 20
4838733.588536222
  0
LWPOLYLINE
  5
9D
330
17
100
AcDbEntity
  8
ROADS
100
AcDbPolyline
 90
2
 70
0
 10
622988.9313474105
 20
4839082.693859129
 10
622906.6504647961
 20
4839056.811216286
  0
LWPOLYLINE
  5
9E
330
17
100
AcDbEntity
  8
ROADS
100
AcDbPolyline
 90
2
 70
0
 10
623269.6081426479
 20
4838986.901147136
 10
623238.7802727005
 20
4839164.76346501
  0
LWPOLYLINE
  5
9F
330
17
100
AcDbEntity
  8
ROADS
100
AcDbPolyline
 90
2
 70
0
 10
623071.5121988604
 20
4839109.740998458
 10
622988.9313474105
 20
4839082.693859129
  0
LWPOLYLINE
  5
A0
330
17
100
AcDbEntity
  8
ROADS
100
AcDbPolyline
 90
2
 70
0
 10
623438.9146388881
 20
4839042.686494151
 10
623417.9714269412
 20
4839159.285587648
  0
LWPOLYLINE
  5
A1
330
17
100
AcDbEntity
  8
ROADS
100
AcDbPolyline
 90
2
 70
0
 10
623354.2193705024
 20
4839015.043066328
 10
623323.9850131895
 20
4839195.586298507
  0
LWPOLYLINE
  5
A2
330
17
100
AcDbEntity
  8
ROADS
100
AcDbPolyline
 90
2
 70
0
 10
623155.6701652175
 20
4839137.284704034
 10
623071.5121988604
 20
4839109.740998458
  0
LWPOLYLINE
  5
A3
330
17
100
AcDbEntity
  8
ROADS
100
AcDbPolyline
 90
2
 70
0
 10
623238.7802727005
 20
4839164.76346501
 10
623155.6701652175
 20
4839137.284704034
  0
LWPOLYLINE
  5
A4
330
17
100
AcDbEntity
  8
ROADS
100
AcDbPolyline
 90
2
 70
0
 10
622988.9313474105
 20
4839082.693859129
 10
622958.1788390812
 20
4839252.29797473
  0
LWPOLYLINE
  5
A5
330
17
100
AcDbEntity
  8
ROADS
100
AcDbPolyline
 90
2
 70
0
 10
623417.9714269412
 20
4839159.285587648
 10
623323.9850131895
 20
4839195.586298507
  0
LWPOLYLINE
  5
A6
330
17
100
AcDbEntity
  8
ROADS
100
AcDbPolyline
 90
2
 70
0
 10
623323.9850131895
 20
4839195.586298507
 10
623238.7802727005
 20
4839164.76346501
  0
LWPOLYLINE
  5
A7
330
17
100
AcDbEntity
  8
ROADS
100
AcDbPolyline
 90
2
 70
0
 10
624237.1208521676
 20
4839029.76517005
 10
624220.5561896753
 20
4839024.174872612
  0
LWPOLYLINE
  5
A8
330
17
100
AcDbEntity
  8
ROADS
100
AcDbPolyline
 90
2
 70
0
 10
624220.5561896753
 20
4839024.174872612
 10
624204.4760800195
 20
4839073.225114639
  0
LWPOLYLINE
  5
A9
330
17
100
AcDbEntity
  8
ROADS
100
AcDbPolyline
 90
2
 70
0
 10
624204.4760800195
 20
4839073.225114639
 10
624112.793128891
 20
4839042.990084468
  0
LWPOLYLINE
  5
AA
330
17
100
AcDbEntity
  8
ROADS
100
AcDbPolyline
 90
2
 70
0
 10
624221.5833401659
 20
4839078.744772295
 10
624204.4760800195
 20
4839073.225114639
  0
LWPOLYLINE
  5
AB
330
17
100
AcDbEntity
  8
ROADS
100
AcDbPolyline
 90
2
 70
0
 10
624021.154133701
 20
4839012.758865706
 10
623969.6598275296
 20
4839172.282780077
  0
LWPOLYLINE
  5
AC
330
17
100
AcDbEntity
  8
ROADS
100
AcDbPolyline
 90
2
 70
0
 10
624112.793128891
 20
4839042.990084468
 10
624059.5560159163
 20
4839204.044593073
  0
LWPOLYLINE
  5
AD
330
17
100
AcDbEntity
  8
ROADS
100
AcDbPolyline
 90
2
 70
0
 10
624204.4760800195
 20
4839073.225114639
 10
624151.4142730682
 20
4839235.090877054
  0
LWPOLYLINE
  5
AE
330
17
100
AcDbEntity
  8
ROADS
100
AcDbPolyline
 90
2
 70
0
 10
623969.6598275296
 20
4839172.282780077
 10
623921.5616877577
 20
4839154.847817247
  0
LWPOLYLINE
  5
AF
330
17
100
AcDbEntity
  8
ROADS
100
AcDbPolyline
 90
2
 70
0
 10
623071.5121988604
 20
4839109.740998458
 10
623041.972838224
 20
4839279.726117712
  0
LWPOLYLINE
  5
B0
330
17
100
AcDbEntity
  8
ROADS
100
AcDbPolyline
 90
2
 70
0
 10
623155.6701652175
 20
4839137.284704034
 10
623125.4095822085
 20
4839307.444825989
  0
LWPOLYLINE
  5
B1
330
17
100
AcDbEntity
  8
ROADS
100
AcDbPolyline
 90
2
 70
0
 10
623370.2060246961
 20
4839255.6954461355
 10
623323.9850131895
 20
4839195.586298507
  0
LWPOLYLINE
  5
B2
330
17
100
AcDbEntity
  8
ROADS
100
AcDbPolyline
 90
2
 70
0
 10
623238.7802727005
 20
4839164.76346501
 10
623215.1658464753
 20
4839311.769689454
  0
LWPOLYLINE
  5
B3
330
17
100
AcDbEntity
  8
ROADS
100
AcDbPolyline
 90
3
 70
0
 10
623323.9850131895
 20
4839195.586298507
 10
623292.1803468907
 20
4839261.540308236
 10
623238.5750432909
 20
4839304.913805366
  0
LWPOLYLINE
  5
B4
330
17
100
AcDbEntity
  8
ROADS
100
AcDbPolyline
 90
2
 70
0
 10
623041.972838224
 20
4839279.726117712
 10
622958.1788390812
 20
4839252.29797473
  0
LWPOLYLINE
  5
B5
330
17
100
AcDbEntity
  8
ROADS
100
AcDbPolyline
 90
2
 70
0
 10
623392.3991109463
 20
4839284.554369875
 10
623370.2060246961
 20
4839255.6954461355
  0
LWPOLYLINE
  5
B6
330
17
100
AcDbEntity
  8
ROADS
100
AcDbPolyline
 90
3
 70
0
 10
623370.2060246961
 20
4839255.6954461355
 10
623365.5983470933
 20
4839289.717821321
 10
623343.7438651344
 20
4839308.423433228
  0
LWPOLYLINE
  5
B7
330
17
100
AcDbEntity
  8
ROADS
100
AcDbPolyline
 90
2
 70
0
 10
623125.4095822085
 20
4839307.444825989
 10
623041.972838224
 20
4839279.726117712
  0
LWPOLYLINE
  5
B8
330
17
100
AcDbEntity
  8
ROADS
100
AcDbPolyline
 90
2
 70
0
 10
623408.601787229
 20
4839303.247417116
 10
623392.3991109463
 20
4839284.554369875
  0
LWPOLYLINE
  5
B9
330
17
100
AcDbEntity
  8
ROADS
100
AcDbPolyline
 90
2
 70
0
 10
623588.2078787816
 20
4839091.412516521
 10
623559.3218835506
 20
4839087.515802631
  0
LWPOLYLINE
  5
BA
330
17
100
AcDbEntity
  8
ROADS
100
AcDbPolyline
 90
2
 70
0
 10
623791.0824468029
 20
4839112.083354585
 10
623710.5876139388
 20
4839086.5239704475
  0
LWPOLYLINE
  5
BB
330
17
100
AcDbEntity
  8
ROADS
100
AcDbPolyline
 90
2
 70
0
 10
623588.2078787816
 20
4839091.412516521
 10
623575.3487508354
 20
4839147.494787903
  0
LWPOLYLINE
  5
BC
330
17
100
AcDbEntity
  8
ROADS
100
AcDbPolyline
 90
2
 70
0
 10
623559.3218835506
 20
4839087.515802631
 10
623417.9714269412
 20
4839159.285587648
  0
LWPOLYLINE
  5
BD
330
17
100
AcDbEntity
  8
ROADS
100
AcDbPolyline
 90
2
 70
0
 10
623873.1917194593
 20
4839139.780065778
 10
623791.0824468029
 20
4839112.083354585
  0
LWPOLYLINE
  5
BE
330
17
100
AcDbEntity
  8
ROADS
100
AcDbPolyline
 90
2
 70
0
 10
623921.5616877577
 20
4839154.847817247
 10
623873.1917194593
 20
4839139.780065778
  0
LWPOLYLINE
  5
BF
330
17
100
AcDbEntity
  8
ROADS
100
AcDbPolyline
 90
2
 70
0
 10
623575.3487508354
 20
4839147.494787903
 10
623565.8954333809
 20
4839191.103023582
  0
LWPOLYLINE
  5
C0
330
17
100
AcDbEntity
  8
ROADS
100
AcDbPolyline
 90
3
 70
0
 10
623575.3487508354
 20
4839147.494787903
 10
623436.6915347046
 20
4839210.633830675
 10
623392.3991109463
 20
4839284.554369875
  0
LWPOLYLINE
  5
C1
330
17
100
AcDbEntity
  8
ROADS
100
AcDbPolyline
 90
3
 70
0
 10
623873.1917194593
 20
4839139.780065778
 10
623835.9836011743
 20
4839263.510455424
 10
623843.6972441811
 20
4839302.0279978365
  0
LWPOLYLINE
  5
C2
330
17
100
AcDbEntity
  8
ROADS
100
AcDbPolyline
 90
6
 70
0
 10
623710.5876139388
 20
4839086.5239704475
 10
623679.8116847922
 20
4839076.978777509
 10
623677.1495833651
 20
4839160.176918088
 10
623709.2944798286
 20
4839264.369777317
 10
623760.2671359859
 20
4839348.893224166
 10
623830.2030746009
 20
4839417.313234124
  0
LWPOLYLINE
  5
C3
330
17
100
AcDbEntity
  8
ROADS
100
AcDbPolyline
 90
2
 70
0
 10
624059.5560159163
 20
4839204.044593073
 10
623969.6598275296
 20
4839172.282780077
  0
LWPOLYLINE
  5
C4
330
17
100
AcDbEntity
  8
ROADS
100
AcDbPolyline
 90
2
 70
0
 10
623921.5616877577
 20
4839154.847817247
 10
623895.3406733421
 20
4839233.991642227
  0
LWPOLYLINE
  5
C5
330
17
100
AcDbEntity
  8
ROADS
100
AcDbPolyline
 90
2
 70
0
 10
624151.4142730682
 20
4839235.090877054
 10
624059.5560159163
 20
4839204.044593073
  0
LWPOLYLINE
  5
C6
330
17
100
AcDbEntity
  8
ROADS
100
AcDbPolyline
 90
2
 70
0
 10
623969.6598275296
 20
4839172.282780077
 10
623922.6141704961
 20
4839318.291413088
  0
LWPOLYLINE
  5
C7
330
17
100
AcDbEntity
  8
ROADS
100
AcDbPolyline
 90
2
 70
0
 10
624152.8241234331
 20
4839235.546844662
 10
624151.4142730682
 20
4839235.090877054
  0
LWPOLYLINE
  5
C8
330
17
100
AcDbEntity
  8
ROADS
100
AcDbPolyline
 90
2
 70
0
 10
624059.5560159163
 20
4839204.044593073
 10
624013.1322562979
 20
4839348.511429848
  0
LWPOLYLINE
  5
C9
330
17
100
AcDbEntity
  8
ROADS
100
AcDbPolyline
 90
2
 70
0
 10
624151.4142730682
 20
4839235.090877054
 10
624148.124849489
 20
4839244.895135328
  0
LWPOLYLINE
  5
CA
330
17
100
AcDbEntity
  8
ROADS
100
AcDbPolyline
 90
2
 70
0
 10
624013.1322562979
 20
4839348.511429848
 10
623922.6141704961
 20
4839318.291413088
  0
LWPOLYLINE
  5
CB
330
17
100
AcDbEntity
  8
ROADS
100
AcDbPolyline
 90
2
 70
0
 10
623238.5750432909
 20
4839304.913805366
 10
623215.1658464753
 20
4839311.769689454
  0
LWPOLYLINE
  5
CC
330
17
100
AcDbEntity
  8
ROADS
100
AcDbPolyline
 90
2
 70
0
 10
623215.1658464753
 20
4839311.769689454
 10
623125.4095822085
 20
4839307.444825989
  0
LWPOLYLINE
  5
CD
330
17
100
AcDbEntity
  8
ROADS
100
AcDbPolyline
 90
2
 70
0
 10
623408.601787229
 20
4839303.247417116
 10
623387.140178029
 20
4839321.795129463
  0
LWPOLYLINE
  5
CE
330
17
100
AcDbEntity
  8
ROADS
100
AcDbPolyline
 90
2
 70
0
 10
623343.7438651344
 20
4839308.423433228
 10
623356.7840244748
 20
4839324.20612298
  0
LWPOLYLINE
  5
CF
330
17
100
AcDbEntity
  8
ROADS
100
AcDbPolyline
 90
2
 70
0
 10
623387.140178029
 20
4839321.795129463
 10
623394.9134841247
 20
4839330.700197249
  0
LWPOLYLINE
  5
D0
330
17
100
AcDbEntity
  8
ROADS
100
AcDbPolyline
 90
2
 70
0
 10
623452.8177442339
 20
4839361.916250664
 10
623408.601787229
 20
4839303.247417116
  0
LWPOLYLINE
  5
D1
330
17
100
AcDbEntity
  8
ROADS
100
AcDbPolyline
 90
2
 70
0
 10
623238.5750432909
 20
4839304.913805366
 10
623263.422563312
 20
4839363.496236998
  0
LWPOLYLINE
  5
D2
330
17
100
AcDbEntity
  8
ROADS
100
AcDbPolyline
 90
2
 70
0
 10
623343.7438651344
 20
4839308.423433228
 10
623263.422563312
 20
4839363.496236998
  0
LWPOLYLINE
  5
D3
330
17
100
AcDbEntity
  8
ROADS
100
AcDbPolyline
 90
2
 70
0
 10
623387.140178029
 20
4839321.795129463
 10
623334.5038900096
 20
4839372.134511391
  0
LWPOLYLINE
  5
D4
330
17
100
AcDbEntity
  8
ROADS
100
AcDbPolyline
 90
3
 70
0
 10
623263.422563312
 20
4839363.496236998
 10
623257.9495920745
 20
4839383.380234701
 10
623277.8630702297
 20
4839410.772845904
  0
LWPOLYLINE
  5
D5
330
17
100
AcDbEntity
  8
ROADS
100
AcDbPolyline
 90
2
 70
0
 10
624067.9569871156
 20
4839365.924341151
 10
624013.1322562979
 20
4839348.511429848
  0
LWPOLYLINE
  5
D6
330
17
100
AcDbEntity
  8
ROADS
100
AcDbPolyline
 90
2
 70
0
 10
624013.1322562979
 20
4839348.511429848
 10
623983.2664294417
 20
4839434.209672642
  0
LWPOLYLINE
  5
D7
330
17
100
AcDbEntity
  8
ROADS
100
AcDbPolyline
 90
2
 70
0
 10
623983.2664294417
 20
4839434.209672642
 10
623835.5376800097
 20
4839383.629647561
  0
LWPOLYLINE
  5
D8
330
17
100
AcDbEntity
  8
ROADS
100
AcDbPolyline
 90
2
 70
0
 10
623983.2664294417
 20
4839434.209672642
 10
623971.1513879739
 20
4839476.115398179
  0
LWPOLYLINE
  5
D9
330
17
100
AcDbEntity
  8
ROADS
100
AcDbPolyline
 90
4
 70
0
 10
623959.0771542917
 20
4839487.824589251
 10
623949.9333683404
 20
4839484.365313664
 10
623940.0015581814
 20
4839475.647190312
 10
623960.0890564062
 20
4839486.949990752
  0
LWPOLYLINE
  5
DA
330
17
100
AcDbEntity
  8
ROADS
100
AcDbPolyline
 90
2
 70
0
 10
623922.6141704961
 20
4839318.291413088
 10
623843.6972441811
 20
4839302.0279978365
  0
LWPOLYLINE
  5
DB
330
17
100
AcDbEntity
  8
ROADS
100
AcDbPolyline
 90
2
 70
0
 10
623843.6972441811
 20
4839302.0279978365
 10
623835.5376800097
 20
4839383.629647561
  0
LWPOLYLINE
  5
DC
330
17
100
AcDbEntity
  8
ROADS
100
AcDbPolyline
 90
2
 70
0
 10
623835.5376800097
 20
4839383.629647561
 10
623830.2030746009
 20
4839417.313234124
  0
LWPOLYLINE
  5
DD
330
17
100
AcDbEntity
  8
ROADS
100
AcDbPolyline
 90
3
 70
0
 10
623566.1175194618
 20
4839448.430242174
 10
623518.1661088716
 20
4839427.476733791
 10
623452.8177442339
 20
4839361.916250664
  0
LWPOLYLINE
  5
DE
330
17
100
AcDbEntity
  8
ROADS
100
AcDbPolyline
 90
2
 70
0
 10
623959.9663615293
 20
4839487.056037329
 10
623830.2030746009
 20
4839417.313234124
  0
LWPOLYLINE
  5
DF
330
17
100
AcDbEntity
  8
ROADS
100
AcDbPolyline
 90
2
 70
0
 10
623830.2030746009
 20
4839417.313234124
 10
623808.5428835361
 20
4839527.377799091
  0
LWPOLYLINE
  5
E0
330
17
100
AcDbEntity
  8
ROADS
100
AcDbPolyline
 90
2
 70
0
 10
623808.5428835361
 20
4839527.377799091
 10
623566.1175194618
 20
4839448.430242174
  0
LWPOLYLINE
  5
E1
330
17
100
AcDbEntity
  8
ROADS
100
AcDbPolyline
 90
2
 70
0
 10
623808.5428835361
 20
4839527.377799091
 10
623793.2530870928
 20
4839613.4639541535
  0
LWPOLYLINE
  5
E2
330
17
100
AcDbEntity
  8
ROADS
100
AcDbPolyline
 90
3
 70
0
 10
623926.5889768123
 20
4839515.904490273
 10
623924.1645962191
 20
4839515.123767869
 10
623808.5428835361
 20
4839527.377799091
  0
LWPOLYLINE
  5
E3
330
17
100
AcDbEntity
  8
ROADS
100
AcDbPolyline
 90
3
 70
0
 10
623281.7995830277
 20
4837603.755884815
 10
623261.955520349
 20
4837668.478346525
 10
623308.4891248671
 20
4837676.288283119
  0
LWPOLYLINE
  5
E4
330
17
100
AcDbEntity
  8
ROADS
100
AcDbPolyline
 90
2
 70
0
 10
623229.5405049071
 20
4837586.463353703
 10
623191.2471904487
 20
4837704.352910319
  0
LWPOLYLINE
  5
E5
330
17
100
AcDbEntity
  8
ROADS
100
AcDbPolyline
 90
2
 70
0
 10
623334.6763725313
 20
4837621.086816256
 10
623308.4891248671
 20
4837676.288283119
  0
LWPOLYLINE
  5
E6
330
17
100
AcDbEntity
  8
ROADS
100
AcDbPolyline
 90
3
 70
0
 10
623308.4891248671
 20
4837676.288283119
 10
623418.102667095
 20
4837678.085695819
 10
623453.009119256
 20
4837659.9541778825
  0
LWPOLYLINE
  5
E7
330
17
100
AcDbEntity
  8
ROADS
100
AcDbPolyline
 90
2
 70
0
 10
623017.1501514147
 20
4837680.37472224
 10
622930.383482048
 20
4837666.40588644
  0
LWPOLYLINE
  5
E8
330
17
100
AcDbEntity
  8
ROADS
100
AcDbPolyline
 90
2
 70
0
 10
623191.2471904487
 20
4837704.352910319
 10
623017.1501514147
 20
4837680.37472224
  0
LWPOLYLINE
  5
E9
330
17
100
AcDbEntity
  8
ROADS
100
AcDbPolyline
 90
2
 70
0
 10
623308.4891248671
 20
4837676.288283119
 10
623295.400495623
 20
4837716.071585456
  0
LWPOLYLINE
  5
EA
330
17
100
AcDbEntity
  8
ROADS
100
AcDbPolyline
 90
2
 70
0
 10
623017.1501514147
 20
4837680.37472224
 10
622998.9404383737
 20
4837734.277075359
  0
LWPOLYLINE
  5
EB
330
17
100
AcDbEntity
  8
ROADS
100
AcDbPolyline
 90
2
 70
0
 10
623492.813479041
 20
4837690.3054371765
 10
623388.5250113064
 20
4837728.855367918
  0
LWPOLYLINE
  5
EC
330
17
100
AcDbEntity
  8
ROADS
100
AcDbPolyline
 90
2
 70
0
 10
623511.0667657276
 20
4837679.146805491
 10
623507.9644276948
 20
4837683.439086671
  0
LWPOLYLINE
  5
ED
330
17
100
AcDbEntity
  8
ROADS
100
AcDbPolyline
 90
2
 70
0
 10
623492.813479041
 20
4837690.3054371765
 10
623456.5191179746
 20
4837661.114509078
  0
LWPOLYLINE
  5
EE
330
17
100
AcDbEntity
  8
ROADS
100
AcDbPolyline
 90
2
 70
0
 10
623536.4087331455
 20
4837687.516671008
 10
623507.9644276948
 20
4837683.439086671
  0
LWPOLYLINE
  5
EF
330
17
100
AcDbEntity
  8
ROADS
100
AcDbPolyline
 90
2
 70
0
 10
623507.9644276948
 20
4837683.439086671
 10
623492.813479041
 20
4837690.3054371765
  0
LWPOLYLINE
  5
F0
330
17
100
AcDbEntity
  8
ROADS
100
AcDbPolyline
 90
2
 70
0
 10
623507.9644276948
 20
4837683.439086671
 10
623461.9049309015
 20
4837829.591557162
  0
LWPOLYLINE
  5
F1
330
17
100
AcDbEntity
  8
ROADS
100
AcDbPolyline
 90
2
 70
0
 10
623598.2034989849
 20
4837710.052569065
 10
623553.3053052506
 20
4837861.291163604
  0
LWPOLYLINE
  5
F2
330
17
100
AcDbEntity
  8
ROADS
100
AcDbPolyline
 90
2
 70
0
 10
623683.1156406114
 20
4837746.4993546605
 10
623637.3258364648
 20
4837888.207074368
  0
LWPOLYLINE
  5
F3
330
17
100
AcDbEntity
  8
ROADS
100
AcDbPolyline
 90
2
 70
0
 10
623295.400495623
 20
4837716.071585456
 10
623191.2471904487
 20
4837704.352910319
  0
LWPOLYLINE
  5
F4
330
17
100
AcDbEntity
  8
ROADS
100
AcDbPolyline
 90
2
 70
0
 10
623388.5250113064
 20
4837728.855367918
 10
623295.400495623
 20
4837716.071585456
  0
LWPOLYLINE
  5
F5
330
17
100
AcDbEntity
  8
ROADS
100
AcDbPolyline
 90
2
 70
0
 10
623295.400495623
 20
4837716.071585456
 10
623280.693148582
 20
4837760.866362868
  0
LWPOLYLINE
  5
F6
330
17
100
AcDbEntity
  8
ROADS
100
AcDbPolyline
 90
2
 70
0
 10
623191.2471904487
 20
4837704.352910319
 10
623161.3458951279
 20
4837791.209997548
  0
LWPOLYLINE
  5
F7
330
17
100
AcDbEntity
  8
ROADS
100
AcDbPolyline
 90
2
 70
0
 10
623388.5250113064
 20
4837728.855367918
 10
623376.1423853466
 20
4837771.100570562
  0
LWPOLYLINE
  5
F8
330
17
100
AcDbEntity
  8
ROADS
100
AcDbPolyline
 90
2
 70
0
 10
623161.3458951279
 20
4837791.209997548
 10
622998.9404383737
 20
4837734.277075359
  0
LWPOLYLINE
  5
F9
330
17
100
AcDbEntity
  8
ROADS
100
AcDbPolyline
 90
2
 70
0
 10
623280.693148582
 20
4837760.866362868
 10
623376.1423853466
 20
4837771.100570562
  0
LWPOLYLINE
  5
FA
330
17
100
AcDbEntity
  8
ROADS
100
AcDbPolyline
 90
2
 70
0
 10
622998.9404383737
 20
4837734.277075359
 10
622969.6828178336
 20
4837819.993194568
  0
LWPOLYLINE
  5
FB
330
17
100
AcDbEntity
  8
ROADS
100
AcDbPolyline
 90
2
 70
0
 10
623376.1423853466
 20
4837771.100570562
 10
623367.6255596693
 20
4837800.152015344
  0
LWPOLYLINE
  5
FC
330
17
100
AcDbEntity
  8
ROADS
100
AcDbPolyline
 90
3
 70
0
 10
623194.2189877053
 20
4837839.788941759
 10
623224.1659368686
 20
4837752.233140654
 10
623280.693148582
 20
4837760.866362868
  0
LWPOLYLINE
  5
FD
330
17
100
AcDbEntity
  8
ROADS
100
AcDbPolyline
 90
2
 70
0
 10
622969.6828178336
 20
4837819.993194568
 10
622908.7027515671
 20
4837795.445655221
  0
LWPOLYLINE
  5
FE
330
17
100
AcDbEntity
  8
ROADS
100
AcDbPolyline
 90
2
 70
0
 10
623161.3458951279
 20
4837791.209997548
 10
623151.1377907424
 20
4837826.244135348
  0
LWPOLYLINE
  5
FF
330
17
100
AcDbEntity
  8
ROADS
100
AcDbPolyline
 90
2
 70
0
 10
623280.693148582
 20
4837760.866362868
 10
623249.1125641105
 20
4837857.050567364
  0
LWPOLYLINE
  5
100
330
17
100
AcDbEntity
  8
ROADS
100
AcDbPolyline
 90
2
 70
0
 10
623461.9049309015
 20
4837829.591557162
 10
623367.6255596693
 20
4837800.152015344
  0
LWPOLYLINE
  5
101
330
17
100
AcDbEntity
  8
ROADS
100
AcDbPolyline
 90
2
 70
0
 10
623194.2189877053
 20
4837839.788941759
 10
623151.1377907424
 20
4837826.244135348
  0
LWPOLYLINE
  5
102
330
17
100
AcDbEntity
  8
ROADS
100
AcDbPolyline
 90
2
 70
0
 10
623081.637421597
 20
4837862.788033555
 10
623099.1258464591
 20
4837810.725720859
  0
LWPOLYLINE
  5
103
330
17
100
AcDbEntity
  8
ROADS
100
AcDbPolyline
 90
2
 70
0
 10
623081.637421597
 20
4837862.788033555
 10
622969.6828178336
 20
4837819.993194568
  0
LWPOLYLINE
  5
104
330
17
100
AcDbEntity
  8
ROADS
100
AcDbPolyline
 90
2
 70
0
 10
623367.6255596693
 20
4837800.152015344
 10
623338.6088245083
 20
4837887.9736866
  0
LWPOLYLINE
  5
105
330
17
100
AcDbEntity
  8
ROADS
100
AcDbPolyline
 90
2
 70
0
 10
623249.1125641105
 20
4837857.050567364
 10
623194.2189877053
 20
4837839.788941759
  0
LWPOLYLINE
  5
106
330
17
100
AcDbEntity
  8
ROADS
100
AcDbPolyline
 90
2
 70
0
 10
623151.1377907424
 20
4837826.244135348
 10
623132.7432426062
 20
4837881.462225499
  0
LWPOLYLINE
  5
107
330
17
100
AcDbEntity
  8
ROADS
100
AcDbPolyline
 90
2
 70
0
 10
623763.9530836133
 20
4837790.373362574
 10
623724.0289879425
 20
4837916.25857305
  0
LWPOLYLINE
  5
108
330
17
100
AcDbEntity
  8
ROADS
100
AcDbPolyline
 90
2
 70
0
 10
623553.3053052506
 20
4837861.291163604
 10
623461.9049309015
 20
4837829.591557162
  0
LWPOLYLINE
  5
109
330
17
100
AcDbEntity
  8
ROADS
100
AcDbPolyline
 90
2
 70
0
 10
623842.7356980741
 20
4837843.259702319
 10
623823.7650750183
 20
4837903.158652213
  0
LWPOLYLINE
  5
10A
330
17
100
AcDbEntity
  8
ROADS
100
AcDbPolyline
 90
2
 70
0
 10
623637.3258364648
 20
4837888.207074368
 10
623553.3053052506
 20
4837861.291163604
  0
LWPOLYLINE
  5
10B
330
17
100
AcDbEntity
  8
ROADS
100
AcDbPolyline
 90
2
 70
0
 10
623724.0289879425
 20
4837916.25857305
 10
623637.3258364648
 20
4837888.207074368
  0
LWPOLYLINE
  5
10C
330
17
100
AcDbEntity
  8
ROADS
100
AcDbPolyline
 90
2
 70
0
 10
623553.3053052506
 20
4837861.291163604
 10
623524.1984445159
 20
4837947.680175476
  0
LWPOLYLINE
  5
10D
330
17
100
AcDbEntity
  8
ROADS
100
AcDbPolyline
 90
2
 70
0
 10
623823.7650750183
 20
4837903.158652213
 10
623757.7185763094
 20
4837928.394822485
  0
LWPOLYLINE
  5
10E
330
17
100
AcDbEntity
  8
ROADS
100
AcDbPolyline
 90
2
 70
0
 10
623757.7185763094
 20
4837928.394822485
 10
623724.0289879425
 20
4837916.25857305
  0
LWPOLYLINE
  5
10F
330
17
100
AcDbEntity
  8
ROADS
100
AcDbPolyline
 90
2
 70
0
 10
623833.872246563
 20
4837969.198379112
 10
623823.7650750183
 20
4837903.158652213
  0
LWPOLYLINE
  5
110
330
17
100
AcDbEntity
  8
ROADS
100
AcDbPolyline
 90
2
 70
0
 10
623757.7185763094
 20
4837928.394822485
 10
623669.7870505104
 20
4837995.224659174
  0
LWPOLYLINE
  5
111
330
17
100
AcDbEntity
  8
ROADS
100
AcDbPolyline
 90
2
 70
0
 10
623132.7432426062
 20
4837881.462225499
 10
623081.637421597
 20
4837862.788033555
  0
LWPOLYLINE
  5
112
330
17
100
AcDbEntity
  8
ROADS
100
AcDbPolyline
 90
2
 70
0
 10
623338.6088245083
 20
4837887.9736866
 10
623249.1125641105
 20
4837857.050567364
  0
LWPOLYLINE
  5
113
330
17
100
AcDbEntity
  8
ROADS
100
AcDbPolyline
 90
2
 70
0
 10
623194.2189877053
 20
4837839.788941759
 10
623166.5182588634
 20
4837925.568262504
  0
LWPOLYLINE
  5
114
330
17
100
AcDbEntity
  8
ROADS
100
AcDbPolyline
 90
2
 70
0
 10
622969.6828178336
 20
4837819.993194568
 10
622916.8734083486
 20
4837966.952376112
  0
LWPOLYLINE
  5
115
330
17
100
AcDbEntity
  8
ROADS
100
AcDbPolyline
 90
2
 70
0
 10
623132.7432426062
 20
4837881.462225499
 10
623122.8190721822
 20
4837911.966266674
  0
LWPOLYLINE
  5
116
330
17
100
AcDbEntity
  8
ROADS
100
AcDbPolyline
 90
2
 70
0
 10
623524.1984445159
 20
4837947.680175476
 10
623338.6088245083
 20
4837887.9736866
  0
LWPOLYLINE
  5
117
330
17
100
AcDbEntity
  8
ROADS
100
AcDbPolyline
 90
2
 70
0
 10
623166.5182588634
 20
4837925.568262504
 10
623122.8190721822
 20
4837911.966266674
  0
LWPOLYLINE
  5
118
330
17
100
AcDbEntity
  8
ROADS
100
AcDbPolyline
 90
2
 70
0
 10
623338.6088245083
 20
4837887.9736866
 10
623310.8764884196
 20
4837975.554559946
  0
LWPOLYLINE
  5
119
330
17
100
AcDbEntity
  8
ROADS
100
AcDbPolyline
 90
2
 70
0
 10
623310.8764884196
 20
4837975.554559946
 10
623166.5182588634
 20
4837925.568262504
  0
LWPOLYLINE
  5
11A
330
17
100
AcDbEntity
  8
ROADS
100
AcDbPolyline
 90
2
 70
0
 10
623122.8190721822
 20
4837911.966266674
 10
623087.7556744514
 20
4838011.087069654
  0
LWPOLYLINE
  5
11B
330
17
100
AcDbEntity
  8
ROADS
100
AcDbPolyline
 90
2
 70
0
 10
623927.1764452824
 20
4837913.913492468
 10
623902.7378420047
 20
4838047.879456651
  0
LWPOLYLINE
  5
11C
330
17
100
AcDbEntity
  8
ROADS
100
AcDbPolyline
 90
3
 70
0
 10
624007.5039865077
 20
4837998.095813126
 10
623995.1389544789
 20
4838047.145558281
 10
624040.4307654747
 20
4838061.912470214
  0
LWPOLYLINE
  5
11D
330
17
100
AcDbEntity
  8
ROADS
100
AcDbPolyline
 90
2
 70
0
 10
623166.5182588634
 20
4837925.568262504
 10
623132.2537387469
 20
4838026.024592063
  0
LWPOLYLINE
  5
11E
330
17
100
AcDbEntity
  8
ROADS
100
AcDbPolyline
 90
2
 70
0
 10
623495.2480078407
 20
4838034.985048506
 10
623310.8764884196
 20
4837975.554559946
  0
LWPOLYLINE
  5
11F
330
17
100
AcDbEntity
  8
ROADS
100
AcDbPolyline
 90
2
 70
0
 10
623132.2537387469
 20
4838026.024592063
 10
623087.7556744514
 20
4838011.087069654
  0
LWPOLYLINE
  5
120
330
17
100
AcDbEntity
  8
ROADS
100
AcDbPolyline
 90
2
 70
0
 10
623310.8764884196
 20
4837975.554559946
 10
623277.5151704963
 20
4838074.784201423
  0
LWPOLYLINE
  5
121
330
17
100
AcDbEntity
  8
ROADS
100
AcDbPolyline
 90
2
 70
0
 10
623087.7556744514
 20
4838011.087069654
 10
623068.1584517625
 20
4838069.157530329
  0
LWPOLYLINE
  5
122
330
17
100
AcDbEntity
  8
ROADS
100
AcDbPolyline
 90
2
 70
0
 10
623277.5151704963
 20
4838074.784201423
 10
623132.2537387469
 20
4838026.024592063
  0
LWPOLYLINE
  5
123
330
17
100
AcDbEntity
  8
ROADS
100
AcDbPolyline
 90
2
 70
0
 10
623068.1584517625
 20
4838069.157530329
 10
622966.2235931318
 20
4838035.197274771
  0
LWPOLYLINE
  5
124
330
17
100
AcDbEntity
  8
ROADS
100
AcDbPolyline
 90
2
 70
0
 10
623132.2537387469
 20
4838026.024592063
 10
623098.460669062
 20
4838126.953451802
  0
LWPOLYLINE
  5
125
330
17
100
AcDbEntity
  8
ROADS
100
AcDbPolyline
 90
2
 70
0
 10
623053.5497881263
 20
4838112.447472661
 10
622886.5773898917
 20
4838058.213947737
  0
LWPOLYLINE
  5
126
330
17
100
AcDbEntity
  8
ROADS
100
AcDbPolyline
 90
2
 70
0
 10
623068.1584517625
 20
4838069.157530329
 10
623053.5497881263
 20
4838112.447472661
  0
LWPOLYLINE
  5
127
330
17
100
AcDbEntity
  8
ROADS
100
AcDbPolyline
 90
2
 70
0
 10
623669.7870505104
 20
4837995.224659174
 10
623524.1984445159
 20
4837947.680175476
  0
LWPOLYLINE
  5
128
330
17
100
AcDbEntity
  8
ROADS
100
AcDbPolyline
 90
2
 70
0
 10
623524.1984445159
 20
4837947.680175476
 10
623495.2480078407
 20
4838034.985048506
  0
LWPOLYLINE
  5
129
330
17
100
AcDbEntity
  8
ROADS
100
AcDbPolyline
 90
3
 70
0
 10
623902.7378420047
 20
4838047.879456651
 10
623861.8392513238
 20
4838033.971051436
 10
623833.872246563
 20
4837969.198379112
  0
LWPOLYLINE
  5
12A
330
17
100
AcDbEntity
  8
ROADS
100
AcDbPolyline
 90
2
 70
0
 10
623700.0149020351
 20
4838030.872187691
 10
623737.65075441
 20
4838000.245272771
  0
LWPOLYLINE
  5
12B
330
17
100
AcDbEntity
  8
ROADS
100
AcDbPolyline
 90
2
 70
0
 10
623833.872246563
 20
4837969.198379112
 10
623736.2946409353
 20
4838066.156156933
  0
LWPOLYLINE
  5
12C
330
17
100
AcDbEntity
  8
ROADS
100
AcDbPolyline
 90
2
 70
0
 10
623669.7870505104
 20
4837995.224659174
 10
623613.1212827705
 20
4838078.376098063
  0
LWPOLYLINE
  5
12D
330
17
100
AcDbEntity
  8
ROADS
100
AcDbPolyline
 90
2
 70
0
 10
623736.2946409353
 20
4838066.156156933
 10
623700.0149020351
 20
4838030.872187691
  0
LWPOLYLINE
  5
12E
330
17
100
AcDbEntity
  8
ROADS
100
AcDbPolyline
 90
2
 70
0
 10
623664.2224425059
 20
4838073.094032353
 10
623700.0149020351
 20
4838030.872187691
  0
LWPOLYLINE
  5
12F
330
17
100
AcDbEntity
  8
ROADS
100
AcDbPolyline
 90
2
 70
0
 10
623613.1212827705
 20
4838078.376098063
 10
623495.2480078407
 20
4838034.985048506
  0
LWPOLYLINE
  5
130
330
17
100
AcDbEntity
  8
ROADS
100
AcDbPolyline
 90
2
 70
0
 10
623495.2480078407
 20
4838034.985048506
 10
623461.088724876
 20
4838134.540323723
  0
LWPOLYLINE
  5
131
330
17
100
AcDbEntity
  8
ROADS
100
AcDbPolyline
 90
2
 70
0
 10
624045.7950558353
 20
4838045.152580895
 10
624040.4307654747
 20
4838061.912470214
  0
LWPOLYLINE
  5
132
330
17
100
AcDbEntity
  8
ROADS
100
AcDbPolyline
 90
2
 70
0
 10
623950.1099468702
 20
4838056.5256679505
 10
623902.7378420047
 20
4838047.879456651
  0
LWPOLYLINE
  5
133
330
17
100
AcDbEntity
  8
ROADS
100
AcDbPolyline
 90
2
 70
0
 10
624081.4352244154
 20
4838096.128001139
 10
624061.7164587376
 20
4838158.3925236715
  0
LWPOLYLINE
  5
134
330
17
100
AcDbEntity
  8
ROADS
100
AcDbPolyline
 90
2
 70
0
 10
624116.962626855
 20
4838155.2832243405
 10
624110.7193409279
 20
4838174.4106383175
  0
LWPOLYLINE
  5
135
330
17
100
AcDbEntity
  8
ROADS
100
AcDbPolyline
 90
2
 70
0
 10
624040.4307654747
 20
4838061.912470214
 10
624000.5284025127
 20
4838186.084328833
  0
LWPOLYLINE
  5
136
330
17
100
AcDbEntity
  8
ROADS
100
AcDbPolyline
 90
2
 70
0
 10
623461.088724876
 20
4838134.540323723
 10
623277.5151704963
 20
4838074.784201423
  0
LWPOLYLINE
  5
137
330
17
100
AcDbEntity
  8
ROADS
100
AcDbPolyline
 90
2
 70
0
 10
623098.460669062
 20
4838126.953451802
 10
623053.5497881263
 20
4838112.447472661
  0
LWPOLYLINE
  5
138
330
17
100
AcDbEntity
  8
ROADS
100
AcDbPolyline
 90
2
 70
0
 10
623277.5151704963
 20
4838074.784201423
 10
623244.0335291288
 20
4838173.97464551
  0
LWPOLYLINE
  5
139
330
17
100
AcDbEntity
  8
ROADS
100
AcDbPolyline
 90
2
 70
0
 10
623053.5497881263
 20
4838112.447472661
 10
623038.9712290548
 20
4838157.556046123
  0
LWPOLYLINE
  5
13A
330
17
100
AcDbEntity
  8
ROADS
100
AcDbPolyline
 90
2
 70
0
 10
623038.9712290548
 20
4838157.556046123
 10
622936.938231815
 20
4838123.382980949
  0
LWPOLYLINE
  5
13B
330
17
100
AcDbEntity
  8
ROADS
100
AcDbPolyline
 90
2
 70
0
 10
623244.0335291288
 20
4838173.97464551
 10
623098.460669062
 20
4838126.953451802
  0
LWPOLYLINE
  5
13C
330
17
100
AcDbEntity
  8
ROADS
100
AcDbPolyline
 90
2
 70
0
 10
623098.460669062
 20
4838126.953451802
 10
623065.8628841402
 20
4838227.591895551
  0
LWPOLYLINE
  5
13D
330
17
100
AcDbEntity
  8
ROADS
100
AcDbPolyline
 90
2
 70
0
 10
623038.9712290548
 20
4838157.556046123
 10
623024.1288520787
 20
4838203.482884905
  0
LWPOLYLINE
  5
13E
330
17
100
AcDbEntity
  8
ROADS
100
AcDbPolyline
 90
2
 70
0
 10
623461.088724876
 20
4838134.540323723
 10
623427.9870471286
 20
4838235.611784413
  0
LWPOLYLINE
  5
13F
330
17
100
AcDbEntity
  8
ROADS
100
AcDbPolyline
 90
2
 70
0
 10
623024.1288520787
 20
4838203.482884905
 10
622942.3470799179
 20
4838174.329321316
  0
LWPOLYLINE
  5
140
330
17
100
AcDbEntity
  8
ROADS
100
AcDbPolyline
 90
2
 70
0
 10
624110.7193409279
 20
4838174.4106383175
 10
624061.7164587376
 20
4838158.3925236715
  0
LWPOLYLINE
  5
141
330
17
100
AcDbEntity
  8
ROADS
100
AcDbPolyline
 90
2
 70
0
 10
624000.5284025127
 20
4838186.084328833
 10
623956.2213156099
 20
4838172.027248729
  0
LWPOLYLINE
  5
142
330
17
100
AcDbEntity
  8
ROADS
100
AcDbPolyline
 90
2
 70
0
 10
624061.7164587376
 20
4838158.3925236715
 10
624048.2624357645
 20
4838200.873431422
  0
LWPOLYLINE
  5
143
330
17
100
AcDbEntity
  8
ROADS
100
AcDbPolyline
 90
2
 70
0
 10
624131.5135239412
 20
4838181.208579454
 10
624110.7193409279
 20
4838174.4106383175
  0
LWPOLYLINE
  5
144
330
17
100
AcDbEntity
  8
ROADS
100
AcDbPolyline
 90
2
 70
0
 10
624048.2624357645
 20
4838200.873431422
 10
624000.5284025127
 20
4838186.084328833
  0
LWPOLYLINE
  5
145
330
17
100
AcDbEntity
  8
ROADS
100
AcDbPolyline
 90
2
 70
0
 10
624152.8581616434
 20
4838224.9284852315
 10
624149.6912662992
 20
4838234.574675175
  0
LWPOLYLINE
  5
146
330
17
100
AcDbEntity
  8
ROADS
100
AcDbPolyline
 90
2
 70
0
 10
624149.6912662992
 20
4838234.574675175
 10
624048.2624357645
 20
4838200.873431422
  0
LWPOLYLINE
  5
147
330
17
100
AcDbEntity
  8
ROADS
100
AcDbPolyline
 90
2
 70
0
 10
623902.7378420047
 20
4838047.879456651
 10
623876.5571009977
 20
4838182.092959993
  0
LWPOLYLINE
  5
148
330
17
100
AcDbEntity
  8
ROADS
100
AcDbPolyline
 90
3
 70
0
 10
623876.5571009977
 20
4838182.092959993
 10
623845.8394435312
 20
4838173.138930528
 10
623736.2946409353
 20
4838066.156156933
  0
LWPOLYLINE
  5
149
330
17
100
AcDbEntity
  8
ROADS
100
AcDbPolyline
 90
2
 70
0
 10
623613.1212827705
 20
4838078.376098063
 10
623592.7910155115
 20
4838174.540343442
  0
LWPOLYLINE
  5
14A
330
17
100
AcDbEntity
  8
ROADS
100
AcDbPolyline
 90
2
 70
0
 10
623750.0902499282
 20
4838216.830964297
 10
623613.1212827705
 20
4838078.376098063
  0
LWPOLYLINE
  5
14B
330
17
100
AcDbEntity
  8
ROADS
100
AcDbPolyline
 90
2
 70
0
 10
623592.7910155115
 20
4838174.540343442
 10
623461.088724876
 20
4838134.540323723
  0
LWPOLYLINE
  5
14C
330
17
100
AcDbEntity
  8
ROADS
100
AcDbPolyline
 90
2
 70
0
 10
623592.7910155115
 20
4838174.540343442
 10
623588.8261004441
 20
4838192.991580278
  0
LWPOLYLINE
  5
14D
330
17
100
AcDbEntity
  8
ROADS
100
AcDbPolyline
 90
2
 70
0
 10
623541.7940178058
 20
4838215.145083813
 10
623546.6420591028
 20
4838199.840983274
  0
LWPOLYLINE
  5
14E
330
17
100
AcDbEntity
  8
ROADS
100
AcDbPolyline
 90
2
 70
0
 10
623541.7940178058
 20
4838215.145083813
 10
623499.1542066995
 20
4838201.136175109
  0
LWPOLYLINE
  5
14F
330
17
100
AcDbEntity
  8
ROADS
100
AcDbPolyline
 90
2
 70
0
 10
623876.5571009977
 20
4838182.092959993
 10
623860.1932921119
 20
4838234.229719485
  0
LWPOLYLINE
  5
150
330
17
100
AcDbEntity
  8
ROADS
100
AcDbPolyline
 90
2
 70
0
 10
623588.8261004441
 20
4838192.991580278
 10
623567.5964391383
 20
4838281.709163815
  0
LWPOLYLINE
  5
151
330
17
100
AcDbEntity
  8
ROADS
100
AcDbPolyline
 90
2
 70
0
 10
623427.9870471286
 20
4838235.611784413
 10
623244.0335291288
 20
4838173.97464551
  0
LWPOLYLINE
  5
152
330
17
100
AcDbEntity
  8
ROADS
100
AcDbPolyline
 90
2
 70
0
 10
623024.1288520787
 20
4838203.482884905
 10
623021.8373556873
 20
4838213.56694079
  0
LWPOLYLINE
  5
153
330
17
100
AcDbEntity
  8
ROADS
100
AcDbPolyline
 90
2
 70
0
 10
623065.8628841402
 20
4838227.591895551
 10
623021.8373556873
 20
4838213.56694079
  0
LWPOLYLINE
  5
154
330
17
100
AcDbEntity
  8
ROADS
100
AcDbPolyline
 90
2
 70
0
 10
623244.0335291288
 20
4838173.97464551
 10
623211.9400877543
 20
4838274.262232939
  0
LWPOLYLINE
  5
155
330
17
100
AcDbEntity
  8
ROADS
100
AcDbPolyline
 90
2
 70
0
 10
623211.9400877543
 20
4838274.262232939
 10
623065.8628841402
 20
4838227.591895551
  0
LWPOLYLINE
  5
156
330
17
100
AcDbEntity
  8
ROADS
100
AcDbPolyline
 90
2
 70
0
 10
623021.8373556873
 20
4838213.56694079
 10
622991.9351881238
 20
4838300.023405389
  0
LWPOLYLINE
  5
157
330
17
100
AcDbEntity
  8
ROADS
100
AcDbPolyline
 90
2
 70
0
 10
623065.8628841402
 20
4838227.591895551
 10
623036.6222776059
 20
4838314.516358963
  0
LWPOLYLINE
  5
158
330
17
100
AcDbEntity
  8
ROADS
100
AcDbPolyline
 90
2
 70
0
 10
623427.9870471286
 20
4838235.611784413
 10
623394.8842981431
 20
4838335.248133471
  0
LWPOLYLINE
  5
159
330
17
100
AcDbEntity
  8
ROADS
100
AcDbPolyline
 90
2
 70
0
 10
623036.6222776059
 20
4838314.516358963
 10
622991.9351881238
 20
4838300.023405389
  0
LWPOLYLINE
  5
15A
330
17
100
AcDbEntity
  8
ROADS
100
AcDbPolyline
 90
2
 70
0
 10
623211.9400877543
 20
4838274.262232939
 10
623183.2513916248
 20
4838362.131760082
  0
LWPOLYLINE
  5
15B
330
17
100
AcDbEntity
  8
ROADS
100
AcDbPolyline
 90
2
 70
0
 10
624158.6850779109
 20
4838238.235519855
 10
624149.6912662992
 20
4838234.574675175
  0
LWPOLYLINE
  5
15C
330
17
100
AcDbEntity
  8
ROADS
100
AcDbPolyline
 90
2
 70
0
 10
624048.2624357645
 20
4838200.873431422
 10
624000.4589131944
 20
4838334.593374439
  0
LWPOLYLINE
  5
15D
330
17
100
AcDbEntity
  8
ROADS
100
AcDbPolyline
 90
2
 70
0
 10
624149.6912662992
 20
4838234.574675175
 10
624118.1026524978
 20
4838330.2234140625
  0
LWPOLYLINE
  5
15E
330
17
100
AcDbEntity
  8
ROADS
100
AcDbPolyline
 90
2
 70
0
 10
624000.4589131944
 20
4838334.593374439
 10
623915.6640514098
 20
4838307.49680963
  0
LWPOLYLINE
  5
15F
330
17
100
AcDbEntity
  8
ROADS
100
AcDbPolyline
 90
2
 70
0
 10
624118.1026524978
 20
4838330.2234140625
 10
624066.0887144498
 20
4838344.443411444
  0
LWPOLYLINE
  5
160
330
17
100
AcDbEntity
  8
ROADS
100
AcDbPolyline
 90
2
 70
0
 10
624043.2758093724
 20
4838342.6577096945
 10
624000.4589131944
 20
4838334.593374439
  0
LWPOLYLINE
  5
161
330
17
100
AcDbEntity
  8
ROADS
100
AcDbPolyline
 90
2
 70
0
 10
624043.2758093724
 20
4838342.6577096945
 10
624066.0887144498
 20
4838344.443411444
  0
LWPOLYLINE
  5
162
330
17
100
AcDbEntity
  8
ROADS
100
AcDbPolyline
 90
2
 70
0
 10
624043.2758093724
 20
4838342.6577096945
 10
624057.940651832
 20
4838357.139710035
  0
LWPOLYLINE
  5
163
330
17
100
AcDbEntity
  8
ROADS
100
AcDbPolyline
 90
2
 70
0
 10
623525.2343284384
 20
4838267.275246472
 10
623541.7940178058
 20
4838215.145083813
  0
LWPOLYLINE
  5
164
330
17
100
AcDbEntity
  8
ROADS
100
AcDbPolyline
 90
2
 70
0
 10
623692.438518537
 20
4838293.670728462
 10
623588.8261004441
 20
4838192.991580278
  0
LWPOLYLINE
  5
165
330
17
100
AcDbEntity
  8
ROADS
100
AcDbPolyline
 90
2
 70
0
 10
623845.4973781673
 20
4838279.631289522
 10
623750.0902499282
 20
4838216.830964297
  0
LWPOLYLINE
  5
166
330
17
100
AcDbEntity
  8
ROADS
100
AcDbPolyline
 90
2
 70
0
 10
623525.2343284384
 20
4838267.275246472
 10
623427.9870471286
 20
4838235.611784413
  0
LWPOLYLINE
  5
167
330
17
100
AcDbEntity
  8
ROADS
100
AcDbPolyline
 90
3
 70
0
 10
623750.0902499282
 20
4838216.830964297
 10
623703.411644391
 20
4838261.571535358
 10
623692.438518537
 20
4838293.670728462
  0
LWPOLYLINE
  5
168
330
17
100
AcDbEntity
  8
ROADS
100
AcDbPolyline
 90
2
 70
0
 10
623567.5964391383
 20
4838281.709163815
 10
623525.2343284384
 20
4838267.275246472
  0
LWPOLYLINE
  5
169
330
17
100
AcDbEntity
  8
ROADS
100
AcDbPolyline
 90
2
 70
0
 10
623567.5964391383
 20
4838281.709163815
 10
623561.7084362567
 20
4838299.219567994
  0
LWPOLYLINE
  5
16A
330
17
100
AcDbEntity
  8
ROADS
100
AcDbPolyline
 90
2
 70
0
 10
623915.6640514098
 20
4838307.49680963
 10
623845.4973781673
 20
4838279.631289522
  0
LWPOLYLINE
  5
16B
330
17
100
AcDbEntity
  8
ROADS
100
AcDbPolyline
 90
4
 70
0
 10
623845.4973781673
 20
4838279.631289522
 10
623813.0807735458
 20
4838366.9845304815
 10
623755.0086417831
 20
4838348.690250973
 10
623692.438518537
 20
4838293.670728462
  0
LWPOLYLINE
  5
16C
330
17
100
AcDbEntity
  8
ROADS
100
AcDbPolyline
 90
2
 70
0
 10
623561.7084362567
 20
4838299.219567994
 10
623520.029491538
 20
4838377.996768996
  0
LWPOLYLINE
  5
16D
330
17
100
AcDbEntity
  8
ROADS
100
AcDbPolyline
 90
2
 70
0
 10
623036.6222776059
 20
4838314.516358963
 10
623023.2358071863
 20
4838355.309268577
  0
LWPOLYLINE
  5
16E
330
17
100
AcDbEntity
  8
ROADS
100
AcDbPolyline
 90
2
 70
0
 10
623183.2513916248
 20
4838362.131760082
 10
623036.6222776059
 20
4838314.516358963
  0
LWPOLYLINE
  5
16F
330
17
100
AcDbEntity
  8
ROADS
100
AcDbPolyline
 90
2
 70
0
 10
622991.9351881238
 20
4838300.023405389
 10
622962.5968322118
 20
4838390.41624717
  0
LWPOLYLINE
  5
170
330
17
100
AcDbEntity
  8
ROADS
100
AcDbPolyline
 90
2
 70
0
 10
623262.2750852108
 20
4838388.022340483
 10
623278.3885966189
 20
4838309.306814869
  0
LWPOLYLINE
  5
171
330
17
100
AcDbEntity
  8
ROADS
100
AcDbPolyline
 90
2
 70
0
 10
623479.0128126509
 20
4838363.322163503
 10
623394.8842981431
 20
4838335.248133471
  0
LWPOLYLINE
  5
172
330
17
100
AcDbEntity
  8
ROADS
100
AcDbPolyline
 90
2
 70
0
 10
623262.2750852108
 20
4838388.022340483
 10
623183.2513916248
 20
4838362.131760082
  0
LWPOLYLINE
  5
173
330
17
100
AcDbEntity
  8
ROADS
100
AcDbPolyline
 90
2
 70
0
 10
623394.8842981431
 20
4838335.248133471
 10
623365.6142504762
 20
4838422.249144964
  0
LWPOLYLINE
  5
174
330
17
100
AcDbEntity
  8
ROADS
100
AcDbPolyline
 90
2
 70
0
 10
622962.5968322118
 20
4838390.41624717
 10
622955.6848707282
 20
4838409.13815757
  0
LWPOLYLINE
  5
175
330
17
100
AcDbEntity
  8
ROADS
100
AcDbPolyline
 90
2
 70
0
 10
623365.6142504762
 20
4838422.249144964
 10
623262.2750852108
 20
4838388.022340483
  0
LWPOLYLINE
  5
176
330
17
100
AcDbEntity
  8
ROADS
100
AcDbPolyline
 90
2
 70
0
 10
623183.2513916248
 20
4838362.131760082
 10
623152.6858953292
 20
4838452.195436765
  0
LWPOLYLINE
  5
177
330
17
100
AcDbEntity
  8
ROADS
100
AcDbPolyline
 90
2
 70
0
 10
624066.0887144498
 20
4838344.443411444
 10
624057.940651832
 20
4838357.139710035
  0
LWPOLYLINE
  5
178
330
17
100
AcDbEntity
  8
ROADS
100
AcDbPolyline
 90
2
 70
0
 10
624000.4589131944
 20
4838334.593374439
 10
623982.8885301967
 20
4838374.897202127
  0
LWPOLYLINE
  5
179
330
17
100
AcDbEntity
  8
ROADS
100
AcDbPolyline
 90
2
 70
0
 10
624118.1026524978
 20
4838330.2234140625
 10
624091.1014962936
 20
4838411.981374314
  0
LWPOLYLINE
  5
17A
330
17
100
AcDbEntity
  8
ROADS
100
AcDbPolyline
 90
2
 70
0
 10
623995.5959274234
 20
4838378.948249618
 10
624010.6716706466
 20
4838364.465158576
  0
LWPOLYLINE
  5
17B
330
17
100
AcDbEntity
  8
ROADS
100
AcDbPolyline
 90
2
 70
0
 10
623982.8885301967
 20
4838374.897202127
 10
623995.5959274234
 20
4838378.948249618
  0
LWPOLYLINE
  5
17C
330
17
100
AcDbEntity
  8
ROADS
100
AcDbPolyline
 90
2
 70
0
 10
624057.940651832
 20
4838357.139710035
 10
624091.1014962936
 20
4838411.981374314
  0
LWPOLYLINE
  5
17D
330
17
100
AcDbEntity
  8
ROADS
100
AcDbPolyline
 90
2
 70
0
 10
623982.8885301967
 20
4838374.897202127
 10
623974.2227291766
 20
4838401.399857004
  0
LWPOLYLINE
  5
17E
330
17
100
AcDbEntity
  8
ROADS
100
AcDbPolyline
 90
2
 70
0
 10
623995.5959274234
 20
4838378.948249618
 10
623984.1923625139
 20
4838408.139029186
  0
LWPOLYLINE
  5
17F
330
17
100
AcDbEntity
  8
ROADS
100
AcDbPolyline
 90
2
 70
0
 10
624216.4113256051
 20
4838376.471360842
 10
624169.968580455
 20
4838516.426367683
  0
LWPOLYLINE
  5
180
330
17
100
AcDbEntity
  8
ROADS
100
AcDbPolyline
 90
2
 70
0
 10
623974.2227291766
 20
4838401.399857004
 10
623984.1923625139
 20
4838408.139029186
  0
LWPOLYLINE
  5
181
330
17
100
AcDbEntity
  8
ROADS
100
AcDbPolyline
 90
2
 70
0
 10
623692.438518537
 20
4838293.670728462
 10
623702.4375867835
 20
4838423.570286387
  0
LWPOLYLINE
  5
182
330
17
100
AcDbEntity
  8
ROADS
100
AcDbPolyline
 90
2
 70
0
 10
623520.029491538
 20
4838377.996768996
 10
623479.0128126509
 20
4838363.322163503
  0
LWPOLYLINE
  5
183
330
17
100
AcDbEntity
  8
ROADS
100
AcDbPolyline
 90
4
 70
0
 10
623690.8208889714
 20
4838455.587829914
 10
623623.3087599414
 20
4838425.436191334
 10
623599.8430744706
 20
4838339.930379912
 10
623561.7084362567
 20
4838299.219567994
  0
LWPOLYLINE
  5
184
330
17
100
AcDbEntity
  8
ROADS
100
AcDbPolyline
 90
2
 70
0
 10
623702.4375867835
 20
4838423.570286387
 10
623811.466953646
 20
4838455.376936825
  0
LWPOLYLINE
  5
185
330
17
100
AcDbEntity
  8
ROADS
100
AcDbPolyline
 90
2
 70
0
 10
623702.4375867835
 20
4838423.570286387
 10
623690.8208889714
 20
4838455.587829914
  0
LWPOLYLINE
  5
186
330
17
100
AcDbEntity
  8
ROADS
100
AcDbPolyline
 90
2
 70
0
 10
623822.3196209973
 20
4838434.0851207515
 10
623811.466953646
 20
4838455.376936825
  0
LWPOLYLINE
  5
187
330
17
100
AcDbEntity
  8
ROADS
100
AcDbPolyline
 90
3
 70
0
 10
623520.029491538
 20
4838377.996768996
 10
623536.903450979
 20
4838468.001568888
 10
623523.4769537792
 20
4838518.3032960165
  0
LWPOLYLINE
  5
188
330
17
100
AcDbEntity
  8
ROADS
100
AcDbPolyline
 90
2
 70
0
 10
623690.8208889714
 20
4838455.587829914
 10
623674.1406762132
 20
4838509.623923019
  0
LWPOLYLINE
  5
189
330
17
100
AcDbEntity
  8
ROADS
100
AcDbPolyline
 90
3
 70
0
 10
623811.466953646
 20
4838455.376936825
 10
623787.7888876075
 20
4838545.653360165
 10
623745.8783693127
 20
4838534.006712789
  0
LWPOLYLINE
  5
18A
330
17
100
AcDbEntity
  8
ROADS
100
AcDbPolyline
 90
2
 70
0
 10
623745.8783693127
 20
4838534.006712789
 10
623674.1406762132
 20
4838509.623923019
  0
LWPOLYLINE
  5
18B
330
17
100
AcDbEntity
  8
ROADS
100
AcDbPolyline
 90
2
 70
0
 10
623111.4377188805
 20
4838437.992673886
 10
622962.5968322118
 20
4838390.41624717
  0
LWPOLYLINE
  5
18C
330
17
100
AcDbEntity
  8
ROADS
100
AcDbPolyline
 90
2
 70
0
 10
623152.6858953292
 20
4838452.195436765
 10
623111.4377188805
 20
4838437.992673886
  0
LWPOLYLINE
  5
18D
330
17
100
AcDbEntity
  8
ROADS
100
AcDbPolyline
 90
2
 70
0
 10
622955.6848707282
 20
4838409.13815757
 10
622930.2444099954
 20
4838487.437885201
  0
LWPOLYLINE
  5
18E
330
17
100
AcDbEntity
  8
ROADS
100
AcDbPolyline
 90
2
 70
0
 10
623365.6142504762
 20
4838422.249144964
 10
623334.8670092776
 20
4838513.291627874
  0
LWPOLYLINE
  5
18F
330
17
100
AcDbEntity
  8
ROADS
100
AcDbPolyline
 90
2
 70
0
 10
623334.8670092776
 20
4838513.291627874
 10
623152.6858953292
 20
4838452.195436765
  0
LWPOLYLINE
  5
190
330
17
100
AcDbEntity
  8
ROADS
100
AcDbPolyline
 90
2
 70
0
 10
623111.4377188805
 20
4838437.992673886
 10
623078.7236093018
 20
4838534.662791367
  0
LWPOLYLINE
  5
191
330
17
100
AcDbEntity
  8
ROADS
100
AcDbPolyline
 90
2
 70
0
 10
623479.0128126509
 20
4838363.322163503
 10
623403.0311733892
 20
4838612.327550653
  0
LWPOLYLINE
  5
192
330
17
100
AcDbEntity
  8
ROADS
100
AcDbPolyline
 90
2
 70
0
 10
623152.6858953292
 20
4838452.195436765
 10
623120.8955268182
 20
4838548.550257055
  0
LWPOLYLINE
  5
193
330
17
100
AcDbEntity
  8
ROADS
100
AcDbPolyline
 90
2
 70
0
 10
623078.7236093018
 20
4838534.662791367
 10
622930.2444099954
 20
4838487.437885201
  0
LWPOLYLINE
  5
194
330
17
100
AcDbEntity
  8
ROADS
100
AcDbPolyline
 90
2
 70
0
 10
622930.2444099954
 20
4838487.437885201
 10
622912.7918171226
 20
4838539.614791992
  0
LWPOLYLINE
  5
195
330
17
100
AcDbEntity
  8
ROADS
100
AcDbPolyline
 90
2
 70
0
 10
623974.2227291766
 20
4838401.399857004
 10
623969.5785956982
 20
4838415.326590166
  0
LWPOLYLINE
  5
196
330
17
100
AcDbEntity
  8
ROADS
100
AcDbPolyline
 90
2
 70
0
 10
623984.1923625139
 20
4838408.139029186
 10
623968.0442255781
 20
4838449.621637103
  0
LWPOLYLINE
  5
197
330
17
100
AcDbEntity
  8
ROADS
100
AcDbPolyline
 90
2
 70
0
 10
624091.1014962936
 20
4838411.981374314
 10
624067.576938087
 20
4838483.210647703
  0
LWPOLYLINE
  5
198
330
17
100
AcDbEntity
  8
ROADS
100
AcDbPolyline
 90
2
 70
0
 10
624067.576938087
 20
4838483.210647703
 10
623968.0442255781
 20
4838449.621637103
  0
LWPOLYLINE
  5
199
330
17
100
AcDbEntity
  8
ROADS
100
AcDbPolyline
 90
2
 70
0
 10
624169.968580455
 20
4838516.426367683
 10
624067.576938087
 20
4838483.210647703
  0
LWPOLYLINE
  5
19A
330
17
100
AcDbEntity
  8
ROADS
100
AcDbPolyline
 90
2
 70
0
 10
623968.0442255781
 20
4838449.621637103
 10
623907.0860099843
 20
4838635.389802362
  0
LWPOLYLINE
  5
19B
330
17
100
AcDbEntity
  8
ROADS
100
AcDbPolyline
 90
2
 70
0
 10
624067.576938087
 20
4838483.210647703
 10
624007.2435411818
 20
4838667.33007727
  0
LWPOLYLINE
  5
19C
330
17
100
AcDbEntity
  8
ROADS
100
AcDbPolyline
 90
2
 70
0
 10
624169.968580455
 20
4838516.426367683
 10
624107.547640624
 20
4838702.392186886
  0
LWPOLYLINE
  5
19D
330
17
100
AcDbEntity
  8
ROADS
100
AcDbPolyline
 90
2
 70
0
 10
624007.2435411818
 20
4838667.33007727
 10
623907.0860099843
 20
4838635.389802362
  0
LWPOLYLINE
  5
19E
330
17
100
AcDbEntity
  8
ROADS
100
AcDbPolyline
 90
2
 70
0
 10
624107.547640624
 20
4838702.392186886
 10
624007.2435411818
 20
4838667.33007727
  0
LWPOLYLINE
  5
19F
330
17
100
AcDbEntity
  8
ROADS
100
AcDbPolyline
 90
2
 70
0
 10
623120.8955268182
 20
4838548.550257055
 10
623078.7236093018
 20
4838534.662791367
  0
LWPOLYLINE
  5
1A0
330
17
100
AcDbEntity
  8
ROADS
100
AcDbPolyline
 90
2
 70
0
 10
623334.8670092776
 20
4838513.291627874
 10
623303.3698352203
 20
4838609.081769832
  0
LWPOLYLINE
  5
1A1
330
17
100
AcDbEntity
  8
ROADS
100
AcDbPolyline
 90
2
 70
0
 10
623120.8955268182
 20
4838548.550257055
 10
623102.5338825182
 20
4838600.394731638
  0
LWPOLYLINE
  5
1A2
330
17
100
AcDbEntity
  8
ROADS
100
AcDbPolyline
 90
4
 70
0
 10
623097.697689594
 20
4838614.821976977
 10
623056.5799321648
 20
4838601.2605870655
 10
623060.7391666838
 20
4838587.603137232
 10
622912.7918171226
 20
4838539.614791992
  0
LWPOLYLINE
  5
1A3
330
17
100
AcDbEntity
  8
ROADS
100
AcDbPolyline
 90
2
 70
0
 10
623303.3698352203
 20
4838609.081769832
 10
623120.8955268182
 20
4838548.550257055
  0
LWPOLYLINE
  5
1A4
330
17
100
AcDbEntity
  8
ROADS
100
AcDbPolyline
 90
2
 70
0
 10
622987.8412493868
 20
4838621.068263738
 10
622895.6162799505
 20
4838590.959663703
  0
LWPOLYLINE
  5
1A5
330
17
100
AcDbEntity
  8
ROADS
100
AcDbPolyline
 90
2
 70
0
 10
623102.5338825182
 20
4838600.394731638
 10
623097.697689594
 20
4838614.821976977
  0
LWPOLYLINE
  5
1A6
330
17
100
AcDbEntity
  8
ROADS
100
AcDbPolyline
 90
2
 70
0
 10
623496.1241854645
 20
4838607.226102586
 10
623403.0311733892
 20
4838612.327550653
  0
LWPOLYLINE
  5
1A7
330
17
100
AcDbEntity
  8
ROADS
100
AcDbPolyline
 90
2
 70
0
 10
623102.5338825182
 20
4838600.394731638
 10
623202.9041381108
 20
4838634.106860408
  0
LWPOLYLINE
  5
1A8
330
17
100
AcDbEntity
  8
ROADS
100
AcDbPolyline
 90
3
 70
0
 10
623403.0311733892
 20
4838612.327550653
 10
623361.8809102228
 20
4838628.868086323
 10
623303.3698352203
 20
4838609.081769832
  0
LWPOLYLINE
  5
1A9
330
17
100
AcDbEntity
  8
ROADS
100
AcDbPolyline
 90
2
 70
0
 10
623674.1406762132
 20
4838509.623923019
 10
623664.6128630122
 20
4838542.20627219
  0
LWPOLYLINE
  5
1AA
330
17
100
AcDbEntity
  8
ROADS
100
AcDbPolyline
 90
2
 70
0
 10
623664.6128630122
 20
4838542.20627219
 10
623523.4769537792
 20
4838518.3032960165
  0
LWPOLYLINE
  5
1AB
330
17
100
AcDbEntity
  8
ROADS
100
AcDbPolyline
 90
2
 70
0
 10
623523.4769537792
 20
4838518.3032960165
 10
623496.1241854645
 20
4838607.226102586
  0
LWPOLYLINE
  5
1AC
330
17
100
AcDbEntity
  8
ROADS
100
AcDbPolyline
 90
2
 70
0
 10
623745.8783693127
 20
4838534.006712789
 10
623720.0745000506
 20
4838591.866986293
  0
LWPOLYLINE
  5
1AD
330
17
100
AcDbEntity
  8
ROADS
100
AcDbPolyline
 90
2
 70
0
 10
623664.6128630122
 20
4838542.20627219
 10
623701.2745057
 20
4838609.117835578
  0
LWPOLYLINE
  5
1AE
330
17
100
AcDbEntity
  8
ROADS
100
AcDbPolyline
 90
3
 70
0
 10
623720.0745000506
 20
4838591.866986293
 10
623697.3539121476
 20
4838590.175943821
 10
623714.0169867841
 20
4838611.007411591
  0
LWPOLYLINE
  5
1AF
330
17
100
AcDbEntity
  8
ROADS
100
AcDbPolyline
 90
2
 70
0
 10
623720.0745000506
 20
4838591.866986293
 10
623714.0169867841
 20
4838611.007411591
  0
LWPOLYLINE
  5
1B0
330
17
100
AcDbEntity
  8
ROADS
100
AcDbPolyline
 90
2
 70
0
 10
623637.6916654047
 20
4838627.227719645
 10
623496.1241854645
 20
4838607.226102586
  0
LWPOLYLINE
  5
1B1
330
17
100
AcDbEntity
  8
ROADS
100
AcDbPolyline
 90
2
 70
0
 10
623701.2745057
 20
4838609.117835578
 10
623637.6916654047
 20
4838627.227719645
  0
LWPOLYLINE
  5
1B2
330
17
100
AcDbEntity
  8
ROADS
100
AcDbPolyline
 90
2
 70
0
 10
623701.2745057
 20
4838609.117835578
 10
623721.1635265232
 20
4838639.63665481
  0
LWPOLYLINE
  5
1B3
330
17
100
AcDbEntity
  8
ROADS
100
AcDbPolyline
 90
2
 70
0
 10
624262.0220493708
 20
4838537.298035812
 10
624169.968580455
 20
4838516.426367683
  0
LWPOLYLINE
  5
1B4
330
17
100
AcDbEntity
  8
ROADS
100
AcDbPolyline
 90
2
 70
0
 10
623714.0169867841
 20
4838611.007411591
 10
623721.1635265232
 20
4838639.63665481
  0
LWPOLYLINE
  5
1B5
330
17
100
AcDbEntity
  8
ROADS
100
AcDbPolyline
 90
2
 70
0
 10
623496.1241854645
 20
4838607.226102586
 10
623472.8324655446
 20
4838677.801414407
  0
LWPOLYLINE
  5
1B6
330
17
100
AcDbEntity
  8
ROADS
100
AcDbPolyline
 90
2
 70
0
 10
623637.6916654047
 20
4838627.227719645
 10
623610.028957424
 20
4838725.653430586
  0
LWPOLYLINE
  5
1B7
330
17
100
AcDbEntity
  8
ROADS
100
AcDbPolyline
 90
2
 70
0
 10
623721.1635265232
 20
4838639.63665481
 10
623684.8602357425
 20
4838771.627833186
  0
LWPOLYLINE
  5
1B8
330
17
100
AcDbEntity
  8
ROADS
100
AcDbPolyline
 90
3
 70
0
 10
623610.028957424
 20
4838725.653430586
 10
623455.4069500804
 20
4838699.895353857
 10
623346.5661919173
 20
4838739.437678263
  0
LWPOLYLINE
  5
1B9
330
17
100
AcDbEntity
  8
ROADS
100
AcDbPolyline
 90
2
 70
0
 10
623684.8602357425
 20
4838771.627833186
 10
623610.028957424
 20
4838725.653430586
  0
LWPOLYLINE
  5
1BA
330
17
100
AcDbEntity
  8
ROADS
100
AcDbPolyline
 90
2
 70
0
 10
623907.0860099843
 20
4838635.389802362
 10
623824.3966317631
 20
4838887.662289367
  0
LWPOLYLINE
  5
1BB
330
17
100
AcDbEntity
  8
ROADS
100
AcDbPolyline
 90
2
 70
0
 10
623714.4276522107
 20
4838792.200208991
 10
623684.8602357425
 20
4838771.627833186
  0
LWPOLYLINE
  5
1BC
330
17
100
AcDbEntity
  8
ROADS
100
AcDbPolyline
 90
2
 70
0
 10
623684.8602357425
 20
4838771.627833186
 10
623675.1660031185
 20
4838803.291618855
  0
LWPOLYLINE
  5
1BD
330
17
100
AcDbEntity
  8
ROADS
100
AcDbPolyline
 90
2
 70
0
 10
623675.1660031185
 20
4838803.291618855
 10
623491.6374054287
 20
4838779.141724196
  0
LWPOLYLINE
  5
1BE
330
17
100
AcDbEntity
  8
ROADS
100
AcDbPolyline
 90
2
 70
0
 10
623346.5661919173
 20
4838739.437678263
 10
623325.8304340275
 20
4838732.787277717
  0
LWPOLYLINE
  5
1BF
330
17
100
AcDbEntity
  8
ROADS
100
AcDbPolyline
 90
2
 70
0
 10
623152.6733435404
 20
4838769.131067497
 10
622972.393836019
 20
4838708.7331986325
  0
LWPOLYLINE
  5
1C0
330
17
100
AcDbEntity
  8
ROADS
100
AcDbPolyline
 90
2
 70
0
 10
622972.393836019
 20
4838708.7331986325
 10
622958.0668773401
 20
4838773.210245645
  0
LWPOLYLINE
  5
1C1
330
17
100
AcDbEntity
  8
ROADS
100
AcDbPolyline
 90
2
 70
0
 10
623325.8304340275
 20
4838732.787277717
 10
623312.7881769625
 20
4838774.837496495
  0
LWPOLYLINE
  5
1C2
330
17
100
AcDbEntity
  8
ROADS
100
AcDbPolyline
 90
2
 70
0
 10
622958.0668773401
 20
4838773.210245645
 10
622940.538557158
 20
4838741.943649788
  0
LWPOLYLINE
  5
1C3
330
17
100
AcDbEntity
  8
ROADS
100
AcDbPolyline
 90
2
 70
0
 10
623491.6374054287
 20
4838779.141724196
 10
623346.5661919173
 20
4838739.437678263
  0
LWPOLYLINE
  5
1C4
330
17
100
AcDbEntity
  8
ROADS
100
AcDbPolyline
 90
2
 70
0
 10
623312.7881769625
 20
4838774.837496495
 10
623220.245127768
 20
4838744.120042537
  0
LWPOLYLINE
  5
1C5
330
17
100
AcDbEntity
  8
ROADS
100
AcDbPolyline
 90
2
 70
0
 10
622958.0668773401
 20
4838773.210245645
 10
622958.6898380984
 20
4838789.523320665
  0
LWPOLYLINE
  5
1C6
330
17
100
AcDbEntity
  8
ROADS
100
AcDbPolyline
 90
2
 70
0
 10
623298.14180229
 20
4838815.562629849
 10
623152.6733435404
 20
4838769.131067497
  0
LWPOLYLINE
  5
1C7
330
17
100
AcDbEntity
  8
ROADS
100
AcDbPolyline
 90
2
 70
0
 10
623312.7881769625
 20
4838774.837496495
 10
623298.14180229
 20
4838815.562629849
  0
LWPOLYLINE
  5
1C8
330
17
100
AcDbEntity
  8
ROADS
100
AcDbPolyline
 90
2
 70
0
 10
624007.2435411818
 20
4838667.33007727
 10
623925.1841498755
 20
4838928.2544807345
  0
LWPOLYLINE
  5
1C9
330
17
100
AcDbEntity
  8
ROADS
100
AcDbPolyline
 90
2
 70
0
 10
624107.547640624
 20
4838702.392186886
 10
624023.7398821394
 20
4838960.481886093
  0
LWPOLYLINE
  5
1CA
330
17
100
AcDbEntity
  8
ROADS
100
AcDbPolyline
 90
2
 70
0
 10
624023.7398821394
 20
4838960.481886093
 10
623925.1841498755
 20
4838928.2544807345
  0
LWPOLYLINE
  5
1CB
330
17
100
AcDbEntity
  8
ROADS
100
AcDbPolyline
 90
2
 70
0
 10
624036.3917655433
 20
4838965.556006056
 10
624023.7398821394
 20
4838960.481886093
  0
LWPOLYLINE
  5
1CC
330
17
100
AcDbEntity
  8
ROADS
100
AcDbPolyline
 90
2
 70
0
 10
624128.3417171802
 20
4838995.956846899
 10
624036.3917655433
 20
4838965.556006056
  0
LWPOLYLINE
  5
1CD
330
17
100
AcDbEntity
  8
ROADS
100
AcDbPolyline
 90
2
 70
0
 10
624036.3917655433
 20
4838965.556006056
 10
624021.154133701
 20
4839012.758865706
  0
LWPOLYLINE
  5
1CE
330
17
100
AcDbEntity
  8
ROADS
100
AcDbPolyline
 90
2
 70
0
 10
624021.154133701
 20
4839012.758865706
 10
623970.2601097452
 20
4838995.861378059
  0
LWPOLYLINE
  5
1CF
330
17
100
AcDbEntity
  8
ROADS
100
AcDbPolyline
 90
2
 70
0
 10
624220.5561896753
 20
4839024.174872612
 10
624128.3417171802
 20
4838995.956846899
  0
LWPOLYLINE
  5
1D0
330
17
100
AcDbEntity
  8
ROADS
100
AcDbPolyline
 90
2
 70
0
 10
624128.3417171802
 20
4838995.956846899
 10
624112.793128891
 20
4839042.990084468
  0
LWPOLYLINE
  5
1D1
330
17
100
AcDbEntity
  8
ROADS
100
AcDbPolyline
 90
2
 70
0
 10
624112.793128891
 20
4839042.990084468
 10
624021.154133701
 20
4839012.758865706
  0
LWPOLYLINE
  5
1D2
330
17
100
AcDbEntity
  8
ROADS
100
AcDbPolyline
 90
2
 70
0
 10
623152.6733435404
 20
4838769.131067497
 10
623126.3398826811
 20
4838846.593620975
  0
LWPOLYLINE
  5
1D3
330
17
100
AcDbEntity
  8
ROADS
100
AcDbPolyline
 90
2
 70
0
 10
623126.3398826811
 20
4838846.593620975
 10
622958.6898380984
 20
4838789.523320665
  0
LWPOLYLINE
  5
1D4
330
17
100
AcDbEntity
  8
ROADS
100
AcDbPolyline
 90
2
 70
0
 10
623298.14180229
 20
4838815.562629849
 10
623283.3781854024
 20
4838851.21438317
  0
LWPOLYLINE
  5
1D5
330
17
100
AcDbEntity
  8
ROADS
100
AcDbPolyline
 90
2
 70
0
 10
622958.6898380984
 20
4838789.523320665
 10
622940.4155526911
 20
4838878.940194421
  0
LWPOLYLINE
  5
1D6
330
17
100
AcDbEntity
  8
ROADS
100
AcDbPolyline
 90
2
 70
0
 10
623285.558444233
 20
4838898.806220698
 10
623126.3398826811
 20
4838846.593620975
  0
LWPOLYLINE
  5
1D7
330
17
100
AcDbEntity
  8
ROADS
100
AcDbPolyline
 90
2
 70
0
 10
623422.7818532706
 20
4838971.20303746
 10
623491.6374054287
 20
4838779.141724196
  0
LWPOLYLINE
  5
1D8
330
17
100
AcDbEntity
  8
ROADS
100
AcDbPolyline
 90
2
 70
0
 10
623126.3398826811
 20
4838846.593620975
 10
623105.003249073
 20
4838932.315959273
  0
LWPOLYLINE
  5
1D9
330
17
100
AcDbEntity
  8
ROADS
100
AcDbPolyline
 90
2
 70
0
 10
623023.2380572282
 20
4838906.062654559
 10
622940.4155526911
 20
4838878.940194421
  0
LWPOLYLINE
  5
1DA
330
17
100
AcDbEntity
  8
ROADS
100
AcDbPolyline
 90
2
 70
0
 10
622940.4155526911
 20
4838878.940194421
 10
622934.5145152125
 20
4838906.070795303
  0
LWPOLYLINE
  5
1DB
330
17
100
AcDbEntity
  8
ROADS
100
AcDbPolyline
 90
2
 70
0
 10
623313.1095284196
 20
4838906.949983902
 10
623285.558444233
 20
4838898.806220698
  0
LWPOLYLINE
  5
1DC
330
17
100
AcDbEntity
  8
ROADS
100
AcDbPolyline
 90
2
 70
0
 10
623734.920059413
 20
4838828.558756965
 10
623675.1660031185
 20
4838803.291618855
  0
LWPOLYLINE
  5
1DD
330
17
100
AcDbEntity
  8
ROADS
100
AcDbPolyline
 90
2
 70
0
 10
623734.920059413
 20
4838828.558756965
 10
623783.7072474385
 20
4838857.104704105
  0
LWPOLYLINE
  5
1DE
330
17
100
AcDbEntity
  8
ROADS
100
AcDbPolyline
 90
2
 70
0
 10
623824.3966317631
 20
4838887.662289367
 10
623783.7072474385
 20
4838857.104704105
  0
LWPOLYLINE
  5
1DF
330
17
100
AcDbEntity
  8
ROADS
100
AcDbPolyline
 90
2
 70
0
 10
623859.1653857082
 20
4838906.849194797
 10
623824.3966317631
 20
4838887.662289367
  0
LWPOLYLINE
  5
1E0
330
17
100
AcDbEntity
  8
ROADS
100
AcDbPolyline
 90
2
 70
0
 10
623925.1841498755
 20
4838928.2544807345
 10
623859.1653857082
 20
4838906.849194797
  0
LWPOLYLINE
  5
1E1
330
17
100
AcDbEntity
  8
ROADS
100
AcDbPolyline
 90
2
 70
0
 10
623783.7072474385
 20
4838857.104704105
 10
623710.5876139388
 20
4839086.5239704475
  0
LWPOLYLINE
  5
1E2
330
17
100
AcDbEntity
  8
ROADS
100
AcDbPolyline
 90
2
 70
0
 10
623859.1653857082
 20
4838906.849194797
 10
623791.0824468029
 20
4839112.083354585
  0
LWPOLYLINE
  5
1E3
330
17
100
AcDbEntity
  8
ROADS
100
AcDbPolyline
 90
3
 70
0
 10
623925.1841498755
 20
4838928.2544807345
 10
623925.4687954917
 20
4838975.515103639
 10
623873.1917194593
 20
4839139.780065778
  0
LWPOLYLINE
  5
1E4
330
17
100
AcDbEntity
  8
ROADS
100
AcDbPolyline
 90
2
 70
0
 10
623559.3218835506
 20
4839087.515802631
 10
623438.9146388881
 20
4839042.686494151
  0
LWPOLYLINE
  5
1E5
330
17
100
AcDbEntity
  8
ROADS
100
AcDbPolyline
 90
2
 70
0
 10
623598.0119903809
 20
4839049.916729312
 10
623588.2078787816
 20
4839091.412516521
  0
LWPOLYLINE
  5
1E6
330
17
100
AcDbEntity
  8
ROADS
100
AcDbPolyline
 90
2
 70
0
 10
623105.003249073
 20
4838932.315959273
 10
623023.2380572282
 20
4838906.062654559
  0
LWPOLYLINE
  5
1E7
330
17
100
AcDbEntity
  8
ROADS
100
AcDbPolyline
 90
2
 70
0
 10
623285.558444233
 20
4838898.806220698
 10
623269.6081426479
 20
4838986.901147136
  0
LWPOLYLINE
  5
1E8
330
17
100
AcDbEntity
  8
ROADS
100
AcDbPolyline
 90
2
 70
0
 10
623188.0101343871
 20
4838960.967857071
 10
623105.003249073
 20
4838932.315959273
  0
LWPOLYLINE
  5
1E9
330
17
100
AcDbEntity
  8
ROADS
100
AcDbPolyline
 90
2
 70
0
 10
622934.5145152125
 20
4838906.070795303
 10
622913.0128344995
 20
4839025.683767763
  0
LWPOLYLINE
  5
1EA
330
17
100
AcDbEntity
  8
ROADS
100
AcDbPolyline
 90
2
 70
0
 10
623269.6081426479
 20
4838986.901147136
 10
623188.0101343871
 20
4838960.967857071
  0
LWPOLYLINE
  5
1EB
330
17
100
AcDbEntity
  8
ROADS
100
AcDbPolyline
 90
2
 70
0
 10
623023.2380572282
 20
4838906.062654559
 10
622988.9313474105
 20
4839082.693859129
  0
LWPOLYLINE
  5
1EC
330
17
100
AcDbEntity
  8
ROADS
100
AcDbPolyline
 90
2
 70
0
 10
623354.2193705024
 20
4839015.043066328
 10
623269.6081426479
 20
4838986.901147136
  0
LWPOLYLINE
  5
1ED
330
17
100
AcDbEntity
  8
ROADS
100
AcDbPolyline
 90
2
 70
0
 10
623105.003249073
 20
4838932.315959273
 10
623071.5121988604
 20
4839109.740998458
  0
LWPOLYLINE
  5
1EE
330
17
100
AcDbEntity
  8
ROADS
100
AcDbPolyline
 90
2
 70
0
 10
623438.9146388881
 20
4839042.686494151
 10
623354.2193705024
 20
4839015.043066328
  0
LWPOLYLINE
  5
1EF
330
17
100
AcDbEntity
  8
ROADS
100
AcDbPolyline
 90
2
 70
0
 10
623188.0101343871
 20
4838960.967857071
 10
623155.6701652175
 20
4839137.284704034
  0
LWPOLYLINE
  5
1F0
330
17
100
AcDbEntity
  8
ROADS
100
AcDbPolyline
 90
2
 70
0
 10
621932.9778111584
 20
4838273.074277423
 10
621775.5357126904
 20
4838228.559531738
  0
LWPOLYLINE
  5
1F1
330
17
100
AcDbEntity
  8
ROADS
100
AcDbPolyline
 90
2
 70
0
 10
622002.0031466305
 20
4838293.358648515
 10
621932.9778111584
 20
4838273.074277423
  0
LWPOLYLINE
  5
1F2
330
17
100
AcDbEntity
  8
ROADS
100
AcDbPolyline
 90
2
 70
0
 10
621750.8314802868
 20
4838315.924693172
 10
621764.7790963536
 20
4838346.164506368
  0
LWPOLYLINE
  5
1F3
330
17
100
AcDbEntity
  8
ROADS
100
AcDbPolyline
 90
3
 70
0
 10
622002.0031466305
 20
4838293.358648515
 10
621982.01567993
 20
4838366.038526603
 10
622020.474086671
 20
4838443.021706437
  0
LWPOLYLINE
  5
1F4
330
17
100
AcDbEntity
  8
ROADS
100
AcDbPolyline
 90
5
 70
0
 10
621988.5488259591
 20
4838928.69789536
 10
621931.1985744872
 20
4838819.930470351
 10
621888.1960739266
 20
4838775.564582625
 10
621823.0371113875
 20
4838744.8785737585
 10
621745.6496070557
 20
4838744.933328048
  0
LWPOLYLINE
  5
1F5
330
17
100
AcDbEntity
  8
ROADS
100
AcDbPolyline
 90
2
 70
0
 10
623097.697689594
 20
4838614.821976977
 10
623084.8135051162
 20
4838652.999837536
  0
LWPOLYLINE
  5
1F6
330
17
100
AcDbEntity
  8
ROADS
100
AcDbPolyline
 90
2
 70
0
 10
623084.8135051162
 20
4838652.999837536
 10
622987.8412493868
 20
4838621.068263738
  0
LWPOLYLINE
  5
1F7
330
17
100
AcDbEntity
  8
ROADS
100
AcDbPolyline
 90
2
 70
0
 10
622987.8412493868
 20
4838621.068263738
 10
622979.7741273713
 20
4838665.7245613765
  0
LWPOLYLINE
  5
1F8
330
17
100
AcDbEntity
  8
ROADS
100
AcDbPolyline
 90
2
 70
0
 10
622979.7741273713
 20
4838665.7245613765
 10
622940.3471983522
 20
4838652.288758891
  0
LWPOLYLINE
  5
1F9
330
17
100
AcDbEntity
  8
ROADS
100
AcDbPolyline
 90
2
 70
0
 10
623303.3698352203
 20
4838609.081769832
 10
623271.2638144081
 20
4838716.47046612
  0
LWPOLYLINE
  5
1FA
330
17
100
AcDbEntity
  8
ROADS
100
AcDbPolyline
 90
2
 70
0
 10
623179.8511578954
 20
4838686.453513187
 10
623084.8135051162
 20
4838652.999837536
  0
LWPOLYLINE
  5
1FB
330
17
100
AcDbEntity
  8
ROADS
100
AcDbPolyline
 90
2
 70
0
 10
622979.7741273713
 20
4838665.7245613765
 10
622972.393836019
 20
4838708.7331986325
  0
LWPOLYLINE
  5
1FC
330
17
100
AcDbEntity
  8
ROADS
100
AcDbPolyline
 90
2
 70
0
 10
623271.2638144081
 20
4838716.47046612
 10
623179.8511578954
 20
4838686.453513187
  0
LWPOLYLINE
  5
1FD
330
17
100
AcDbEntity
  8
ROADS
100
AcDbPolyline
 90
2
 70
0
 10
623325.8304340275
 20
4838732.787277717
 10
623271.2638144081
 20
4838716.47046612
  0
LWPOLYLINE
  5
1FE
330
17
100
AcDbEntity
  8
ROADS
100
AcDbPolyline
 90
2
 70
0
 10
623179.8511578954
 20
4838686.453513187
 10
623152.6733435404
 20
4838769.131067497
  0
LWPOLYLINE
  5
1FF
330
17
100
AcDbEntity
  8
ROADS
100
AcDbPolyline
 90
2
 70
0
 10
622940.538557158
 20
4838741.943649788
 10
622865.6259831913
 20
4838666.747945029
  0
LWPOLYLINE
  5
200
330
17
100
AcDbEntity
  8
ROADS
100
AcDbPolyline
 90
2
 70
0
 10
622509.3256531938
 20
4838733.588536222
 10
622490.8952089786
 20
4838752.527079916
  0
LWPOLYLINE
  5
201
330
17
100
AcDbEntity
  8
ROADS
100
AcDbPolyline
 90
2
 70
0
 10
622509.3256531938
 20
4838733.588536222
 10
622501.2841640835
 20
4838761.900445066
  0
LWPOLYLINE
  5
202
330
17
100
AcDbEntity
  8
ROADS
100
AcDbPolyline
 90
3
 70
0
 10
622865.6259831913
 20
4838666.747945029
 10
622825.5427452724
 20
4838726.858884336
 10
622711.4016150384
 20
4838835.24860478
  0
LWPOLYLINE
  5
203
330
17
100
AcDbEntity
  8
ROADS
100
AcDbPolyline
 90
4
 70
0
 10
622632.6533731113
 20
4838672.068283353
 10
622596.3233813867
 20
4838783.371545015
 10
622611.3154223905
 20
4838803.03567305
 10
622711.4016150384
 20
4838835.24860478
  0
LWPOLYLINE
  5
204
330
17
100
AcDbEntity
  8
ROADS
100
AcDbPolyline
 90
2
 70
0
 10
622501.2841640835
 20
4838761.900445066
 10
622490.8952089786
 20
4838752.527079916
  0
LWPOLYLINE
  5
205
330
17
100
AcDbEntity
  8
ROADS
100
AcDbPolyline
 90
2
 70
0
 10
622490.8952089786
 20
4838752.527079916
 10
622440.9510991697
 20
4838783.692190052
  0
LWPOLYLINE
  5
206
330
17
100
AcDbEntity
  8
ROADS
100
AcDbPolyline
 90
2
 70
0
 10
622501.2841640835
 20
4838761.900445066
 10
622494.1713993244
 20
4838783.816843822
  0
LWPOLYLINE
  5
207
330
17
100
AcDbEntity
  8
ROADS
100
AcDbPolyline
 90
2
 70
0
 10
622494.1713993244
 20
4838783.816843822
 10
622440.9510991697
 20
4838783.692190052
  0
LWPOLYLINE
  5
208
330
17
100
AcDbEntity
  8
ROADS
100
AcDbPolyline
 90
2
 70
0
 10
622940.538557158
 20
4838741.943649788
 10
622812.2764490381
 20
4838865.881742866
  0
LWPOLYLINE
  5
209
330
17
100
AcDbEntity
  8
ROADS
100
AcDbPolyline
 90
2
 70
0
 10
622494.1713993244
 20
4838783.816843822
 10
622464.4957335946
 20
4838872.838843941
  0
LWPOLYLINE
  5
20A
330
17
100
AcDbEntity
  8
ROADS
100
AcDbPolyline
 90
2
 70
0
 10
622812.2764490381
 20
4838865.881742866
 10
622711.4016150384
 20
4838835.24860478
  0
LWPOLYLINE
  5
20B
330
17
100
AcDbEntity
  8
ROADS
100
AcDbPolyline
 90
4
 70
0
 10
622640.8319934618
 20
4838901.158331082
 10
622586.1728566821
 20
4838841.4227499645
 10
622492.0948689629
 20
4838826.631342107
 10
622475.2625977949
 20
4838876.634279936
  0
LWPOLYLINE
  5
20C
330
17
100
AcDbEntity
  8
ROADS
100
AcDbPolyline
 90
2
 70
0
 10
622711.4016150384
 20
4838835.24860478
 10
622640.8319934618
 20
4838901.158331082
  0
LWPOLYLINE
  5
20D
330
17
100
AcDbEntity
  8
ROADS
100
AcDbPolyline
 90
2
 70
0
 10
622475.2625977949
 20
4838876.634279936
 10
622464.4957335946
 20
4838872.838843941
  0
LWPOLYLINE
  5
20E
330
17
100
AcDbEntity
  8
ROADS
100
AcDbPolyline
 90
2
 70
0
 10
622934.5145152125
 20
4838906.070795303
 10
622812.2764490381
 20
4838865.881742866
  0
LWPOLYLINE
  5
20F
330
17
100
AcDbEntity
  8
ROADS
100
AcDbPolyline
 90
2
 70
0
 10
622611.9733425968
 20
4838928.09563142
 10
622475.2625977949
 20
4838876.634279936
  0
LWPOLYLINE
  5
210
330
17
100
AcDbEntity
  8
ROADS
100
AcDbPolyline
 90
2
 70
0
 10
622640.8319934618
 20
4838901.158331082
 10
622611.9733425968
 20
4838928.09563142
  0
LWPOLYLINE
  5
211
330
17
100
AcDbEntity
  8
ROADS
100
AcDbPolyline
 90
2
 70
0
 10
622706.8169494353
 20
4838960.436776414
 10
622611.9733425968
 20
4838928.09563142
  0
LWPOLYLINE
  5
212
330
17
100
AcDbEntity
  8
ROADS
100
AcDbPolyline
 90
2
 70
0
 10
622611.9733425968
 20
4838928.09563142
 10
622545.8065240085
 20
4838974.513018744
  0
LWPOLYLINE
  5
213
330
17
100
AcDbEntity
  8
ROADS
100
AcDbPolyline
 90
2
 70
0
 10
622374.7374610039
 20
4838841.325269718
 10
622349.7597579688
 20
4838836.046217481
  0
LWPOLYLINE
  5
214
330
17
100
AcDbEntity
  8
ROADS
100
AcDbPolyline
 90
2
 70
0
 10
622464.4957335946
 20
4838872.838843941
 10
622374.7374610039
 20
4838841.325269718
  0
LWPOLYLINE
  5
215
330
17
100
AcDbEntity
  8
ROADS
100
AcDbPolyline
 90
2
 70
0
 10
622184.0283816478
 20
4838678.290003954
 10
621996.5684870448
 20
4839068.493475276
  0
LWPOLYLINE
  5
216
330
17
100
AcDbEntity
  8
ROADS
100
AcDbPolyline
 90
3
 70
0
 10
622349.7597579688
 20
4838836.046217481
 10
622308.4710462084
 20
4838855.271295205
 10
622226.8402417526
 20
4838941.068798402
  0
LWPOLYLINE
  5
217
330
17
100
AcDbEntity
  8
ROADS
100
AcDbPolyline
 90
2
 70
0
 10
622226.8402417526
 20
4838941.068798402
 10
622169.2003923997
 20
4838949.589583651
  0
LWPOLYLINE
  5
218
330
17
100
AcDbEntity
  8
ROADS
100
AcDbPolyline
 90
2
 70
0
 10
622312.6246448264
 20
4838976.100171994
 10
622226.8402417526
 20
4838941.068798402
  0
LWPOLYLINE
  5
219
330
17
100
AcDbEntity
  8
ROADS
100
AcDbPolyline
 90
3
 70
0
 10
622545.8065240085
 20
4838974.513018744
 10
622455.8663893401
 20
4838993.354036429
 10
622312.6246448264
 20
4838976.100171994
  0
LWPOLYLINE
  5
21A
330
17
100
AcDbEntity
  8
ROADS
100
AcDbPolyline
 90
2
 70
0
 10
622169.2003923997
 20
4838949.589583651
 10
621996.5684870448
 20
4839068.493475276
  0
LWPOLYLINE
  5
21B
330
17
100
AcDbEntity
  8
ROADS
100
AcDbPolyline
 90
3
 70
0
 10
622471.0670447298
 20
4839092.922777372
 10
622334.9235466167
 20
4839058.978474014
 10
622312.6246448264
 20
4838976.100171994
  0
LWPOLYLINE
  5
21C
330
17
100
AcDbEntity
  8
ROADS
100
AcDbPolyline
 90
2
 70
0
 10
622205.2077964116
 20
4839267.7004316375
 10
622143.2529416255
 20
4839244.755123302
  0
LWPOLYLINE
  5
21D
330
17
100
AcDbEntity
  8
ROADS
100
AcDbPolyline
 90
2
 70
0
 10
622913.0128344995
 20
4839025.683767763
 10
622706.8169494353
 20
4838960.436776414
  0
LWPOLYLINE
  5
21E
330
17
100
AcDbEntity
  8
ROADS
100
AcDbPolyline
 90
2
 70
0
 10
622706.8169494353
 20
4838960.436776414
 10
622644.9193669696
 20
4839034.658745337
  0
LWPOLYLINE
  5
21F
330
17
100
AcDbEntity
  8
ROADS
100
AcDbPolyline
 90
2
 70
0
 10
622545.8065240085
 20
4838974.513018744
 10
622586.0665143116
 20
4839069.652865336
  0
LWPOLYLINE
  5
220
330
17
100
AcDbEntity
  8
ROADS
100
AcDbPolyline
 90
2
 70
0
 10
622913.0128344995
 20
4839025.683767763
 10
622906.6504647961
 20
4839056.811216286
  0
LWPOLYLINE
  5
221
330
17
100
AcDbEntity
  8
ROADS
100
AcDbPolyline
 90
2
 70
0
 10
622644.9193669696
 20
4839034.658745337
 10
622586.0665143116
 20
4839069.652865336
  0
LWPOLYLINE
  5
222
330
17
100
AcDbEntity
  8
ROADS
100
AcDbPolyline
 90
2
 70
0
 10
622896.0778272052
 20
4839120.282099157
 10
622644.9193669696
 20
4839034.658745337
  0
LWPOLYLINE
  5
223
330
17
100
AcDbEntity
  8
ROADS
100
AcDbPolyline
 90
2
 70
0
 10
622586.0665143116
 20
4839069.652865336
 10
622471.0670447298
 20
4839092.922777372
  0
LWPOLYLINE
  5
224
330
17
100
AcDbEntity
  8
ROADS
100
AcDbPolyline
 90
2
 70
0
 10
622906.6504647961
 20
4839056.811216286
 10
622896.0778272052
 20
4839120.282099157
  0
LWPOLYLINE
  5
225
330
17
100
AcDbEntity
  8
ROADS
100
AcDbPolyline
 90
2
 70
0
 10
622586.0665143116
 20
4839069.652865336
 10
622613.6503288716
 20
4839132.150852599
  0
LWPOLYLINE
  5
226
330
17
100
AcDbEntity
  8
ROADS
100
AcDbPolyline
 90
2
 70
0
 10
622613.6503288716
 20
4839132.150852599
 10
622471.0670447298
 20
4839092.922777372
  0
LWPOLYLINE
  5
227
330
17
100
AcDbEntity
  8
ROADS
100
AcDbPolyline
 90
6
 70
0
 10
622849.1378800909
 20
4839375.771565501
 10
622636.5589316223
 20
4839315.93416585
 10
622458.4569006898
 20
4839229.775242472
 10
622287.6510438228
 20
4839179.95011556
 10
622231.5141814693
 20
4839115.336588563
 10
622169.2003923997
 20
4838949.589583651
  0
LWPOLYLINE
  5
228
330
17
100
AcDbEntity
  8
ROADS
100
AcDbPolyline
 90
2
 70
0
 10
622896.0778272052
 20
4839120.282099157
 10
622877.0537892166
 20
4839225.710165835
  0
LWPOLYLINE
  5
229
330
17
100
AcDbEntity
  8
ROADS
100
AcDbPolyline
 90
3
 70
0
 10
622613.6503288716
 20
4839132.150852599
 10
622778.8748328966
 20
4839185.970234088
 10
622831.3484603078
 20
4839226.654435927
  0
LWPOLYLINE
  5
22A
330
17
100
AcDbEntity
  8
ROADS
100
AcDbPolyline
 90
2
 70
0
 10
622831.3484603078
 20
4839226.654435927
 10
622877.0537892166
 20
4839225.710165835
  0
LWPOLYLINE
  5
22B
330
17
100
AcDbEntity
  8
ROADS
100
AcDbPolyline
 90
2
 70
0
 10
622958.1788390812
 20
4839252.29797473
 10
622877.0537892166
 20
4839225.710165835
  0
LWPOLYLINE
  5
22C
330
17
100
AcDbEntity
  8
ROADS
100
AcDbPolyline
 90
2
 70
0
 10
622877.0537892166
 20
4839225.710165835
 10
622868.7352096845
 20
4839273.593045729
  0
LWPOLYLINE
  5
22D
330
17
100
AcDbEntity
  8
ROADS
100
AcDbPolyline
 90
2
 70
0
 10
622831.3484603078
 20
4839226.654435927
 10
622868.7352096845
 20
4839273.593045729
  0
LWPOLYLINE
  5
22E
330
17
100
AcDbEntity
  8
ROADS
100
AcDbPolyline
 90
2
 70
0
 10
622868.7352096845
 20
4839273.593045729
 10
622849.1378800909
 20
4839375.771565501
  0
LWPOLYLINE
  5
22F
330
17
100
AcDbEntity
  8
ROADS
100
AcDbPolyline
 90
3
 70
0
 10
622579.824283654
 20
4839452.580471008
 10
622593.5096435943
 20
4839394.664234708
 10
622294.1399000059
 20
4839295.955005439
  0
LWPOLYLINE
  5
230
330
17
100
AcDbEntity
  8
ROADS
100
AcDbPolyline
 90
3
 70
0
 10
622465.8166798075
 20
4839434.731219756
 10
622522.9256665106
 20
4839431.18014534
 10
622579.824283654
 20
4839452.580471008
  0
LWPOLYLINE
  5
231
330
17
100
AcDbEntity
  8
ROADS
100
AcDbPolyline
 90
2
 70
0
 10
622294.1399000059
 20
4839295.955005439
 10
622205.2077964116
 20
4839267.7004316375
  0
LWPOLYLINE
  5
232
330
17
100
AcDbEntity
  8
ROADS
100
AcDbPolyline
 90
2
 70
0
 10
622205.2077964116
 20
4839267.7004316375
 10
622179.6139141718
 20
4839381.700790666
  0
LWPOLYLINE
  5
233
330
17
100
AcDbEntity
  8
ROADS
100
AcDbPolyline
 90
3
 70
0
 10
622294.1399000059
 20
4839295.955005439
 10
622277.921001702
 20
4839377.5004845075
 10
622359.8775224809
 20
4839416.935939661
  0
LWPOLYLINE
  5
234
330
17
100
AcDbEntity
  8
ROADS
100
AcDbPolyline
 90
2
 70
0
 10
622359.8775224809
 20
4839416.935939661
 10
622465.8166798075
 20
4839434.731219756
  0
LWPOLYLINE
  5
235
330
17
100
AcDbEntity
  8
ROADS
100
AcDbPolyline
 90
2
 70
0
 10
622359.8775224809
 20
4839416.935939661
 10
622343.0910322159
 20
4839467.754027055
  0
LWPOLYLINE
  5
236
330
17
100
AcDbEntity
  8
ROADS
100
AcDbPolyline
 90
2
 70
0
 10
622465.8166798075
 20
4839434.731219756
 10
622429.7635844109
 20
4839511.846103587
  0
LWPOLYLINE
  5
237
330
17
100
AcDbEntity
  8
ROADS
100
AcDbPolyline
 90
2
 70
0
 10
622849.1378800909
 20
4839375.771565501
 10
622806.1123434567
 20
4839605.368507198
  0
LWPOLYLINE
  5
238
330
17
100
AcDbEntity
  8
ROADS
100
AcDbPolyline
 90
2
 70
0
 10
622565.4781480281
 20
4839533.8648787625
 10
622579.824283654
 20
4839452.580471008
  0
LWPOLYLINE
  5
239
330
17
100
AcDbEntity
  8
ROADS
100
AcDbPolyline
 90
2
 70
0
 10
622487.6066066741
 20
4839540.48648483
 10
622474.9276033445
 20
4839536.318537335
  0
LWPOLYLINE
  5
23A
330
17
100
AcDbEntity
  8
ROADS
100
AcDbPolyline
 90
2
 70
0
 10
622565.4781480281
 20
4839533.8648787625
 10
622487.6066066741
 20
4839540.48648483
  0
LWPOLYLINE
  5
23B
330
17
100
AcDbEntity
  8
ROADS
100
AcDbPolyline
 90
2
 70
0
 10
622806.1123434567
 20
4839605.368507198
 10
622565.4781480281
 20
4839533.8648787625
  0
LWPOLYLINE
  5
23C
330
17
100
AcDbEntity
  8
ROADS
100
AcDbPolyline
 90
2
 70
0
 10
622487.6066066741
 20
4839540.48648483
 10
622486.0135479379
 20
4839544.923625081
  0
LWPOLYLINE
  5
23D
330
17
100
AcDbEntity
  8
ROADS
100
AcDbPolyline
 90
2
 70
0
 10
622806.1123434567
 20
4839605.368507198
 10
622790.4385195129
 20
4839694.993051656
  0
LWPOLYLINE
  5
23E
330
17
100
AcDbEntity
  8
ROADS
100
AcDbPolyline
 90
3
 70
0
 10
621776.3170908528
 20
4838859.409800079
 10
621849.4646119091
 20
4838951.738142619
 10
621821.6996582033
 20
4838973.6903815875
  0
LWPOLYLINE
  5
23F
330
17
100
AcDbEntity
  8
ROADS
100
AcDbPolyline
 90
3
 70
0
 10
621988.5488259591
 20
4838928.69789536
 10
621873.5617696943
 20
4839049.0895269485
 10
621869.2534105254
 20
4839062.133188678
  0
LWPOLYLINE
  5
240
330
17
100
AcDbEntity
  8
ROADS
100
AcDbPolyline
 90
2
 70
0
 10
621996.5684870448
 20
4839068.493475276
 10
621906.0577679931
 20
4839117.381162995
  0
LWPOLYLINE
  5
241
330
17
100
AcDbEntity
  8
ROADS
100
AcDbPolyline
 90
2
 70
0
 10
621996.5684870448
 20
4839068.493475276
 10
621947.2974138907
 20
4839172.58794382
  0
LWPOLYLINE
  5
242
330
17
100
AcDbEntity
  8
ROADS
100
AcDbPolyline
 90
2
 70
0
 10
622849.1378800909
 20
4839375.771565501
 10
623110.2399698099
 20
4839454.315751239
  0
LWPOLYLINE
  5
243
330
17
100
AcDbEntity
  8
ROADS
100
AcDbPolyline
 90
3
 70
0
 10
623452.8177442339
 20
4839361.916250664
 10
623432.2596338743
 20
4839386.9616366085
 10
623392.2662413041
 20
4839572.553593835
  0
LWPOLYLINE
  5
244
330
17
100
AcDbEntity
  8
ROADS
100
AcDbPolyline
 90
2
 70
0
 10
623392.2662413041
 20
4839572.553593835
 10
623253.7068661425
 20
4839531.114927758
  0
LWPOLYLINE
  5
245
330
17
100
AcDbEntity
  8
ROADS
100
AcDbPolyline
 90
2
 70
0
 10
623392.2662413041
 20
4839572.553593835
 10
623337.3017299904
 20
4839757.119121521
  0
LWPOLYLINE
  5
246
330
17
100
AcDbEntity
  8
ROADS
100
AcDbPolyline
 90
2
 70
0
 10
622806.1123434567
 20
4839605.368507198
 10
623247.2035043233
 20
4839759.073775272
  0
ENDSEC
  0
SECTION
  2
OBJECTS
  0
DICTIONARY
  5
A
330
0
100
AcDbDictionary
281
1
  3
ACAD_COLOR
350
B
  3
ACAD_GROUP
350
C
  3
ACAD_LAYOUT
350
D
  3
ACAD_MATERIAL
350
E
  3
ACAD_MLEADERSTYLE
350
F
  3
ACAD_MLINESTYLE
350
10
  3
ACAD_PLOTSETTINGS
350
11
  3
ACAD_PLOTSTYLENAME
350
12
  3
ACAD_SCALELIST
350
14
  3
ACAD_TABLESTYLE
350
15
  3
ACAD_VISUALSTYLE
350
16
  3
EZDXF_META
350
2D
  0
DICTIONARY
  5
B
330
A
100
AcDbDictionary
281
1
  0
DICTIONARY
  5
C
330
A
100
AcDbDictionary
281
1
  0
DICTIONARY
  5
D
330
A
100
AcDbDictionary
281
1
  3
Model
350
1A
  3
Layout1
350
1E
  0
DICTIONARY
  5
E
330
A
100
AcDbDictionary
281
1
  3
ByBlock
350
1F
  3
ByLayer
350
20
  3
Global
350
21
  0
DICTIONARY
  5
F
330
A
100
AcDbDictionary
281
1
  3
Standard
350
2C
  0
DICTIONARY
  5
10
330
A
100
AcDbDictionary
281
1
  3
Standard
350
22
  0
DICTIONARY
  5
11
330
A
100
AcDbDictionary
281
1
  0
ACDBDICTIONARYWDFLT
  5
12
330
A
100
AcDbDictionary
281
1
  3
Normal
350
13
100
AcDbDictionaryWithDefault
340
13
  0
ACDBPLACEHOLDER
  5
13
330
12
  0
DICTIONARY
  5
14
330
A
100
AcDbDictionary
281
1
  0
DICTIONARY
  5
15
330
A
100
AcDbDictionary
281
1
  0
DICTIONARY
  5
16
330
A
100
AcDbDictionary
281
1
  0
LAYOUT
  5
1A
330
D
100
AcDbPlotSettings
  1

  4
A3
  6

 40
7.5
 41
20.0
 42
7.5
 43
20.0
 44
420.0
 45
297.0
 46
0.0
 47
0.0
 48
0.0
 49
0.0
140
0.0
141
0.0
142
1.0
143
1.0
 70
1024
 72
1
 73
0
 74
5
  7

 75
16
 76
0
 77
2
 78
300
147
1.0
148
0.0
149
0.0
100
AcDbLayout
  1
Model
 70
1
 71
0
 10
0.0
 20
0.0
 11
420.0
 21
297.0
 12
0.0
 22
0.0
 32
0.0
 14
1e+20
 24
1e+20
 34
1e+20
 15
-1e+20
 25
-1e+20
 35
-1e+20
146
0.0
 13
0.0
 23
0.0
 33
0.0
 16
1.0
 26
0.0
 36
0.0
 17
0.0
 27
1.0
 37
0.0
 76
1
330
17
  0
LAYOUT
  5
1E
330
D
100
AcDbPlotSettings
  1

  4
A3
  6

 40
7.5
 41
20.0
 42
7.5
 43
20.0
 44
420.0
 45
297.0
 46
0.0
 47
0.0
 48
0.0
 49
0.0
140
0.0
141
0.0
142
1.0
143
1.0
 70
0
 72
1
 73
0
 74
5
  7

 75
16
 76
0
 77
2
 78
300
147
1.0
148
0.0
149
0.0
100
AcDbLayout
  1
Layout1
 70
1
 71
1
 10
0.0
 20
0.0
 11
420.0
 21
297.0
 12
0.0
 22
0.0
 32
0.0
 14
1e+20
 24
1e+20
 34
1e+20
 15
-1e+20
 25
-1e+20
 35
-1e+20
146
0.0
 13
0.0
 23
0.0
 33
0.0
 16
1.0
 26
0.0
 36
0.0
 17
0.0
 27
1.0
 37
0.0
 76
1
330
1B
  0
MATERIAL
  5
1F
102
{ACAD_REACTORS
330
E
102
}
330
E
100
AcDbMaterial
  1
ByBlock
  2

 70
0
 40
1.0
 71
1
 41
1.0
 91
-1023410177
 42
1.0
 72
1
  3

 73
1
 74
1
 75
1
 44
0.5
 73
0
 45
1.0
 46
1.0
 77
1
  4

 78
1
 79
1
170
1
 48
1.0
171
1
  6

172
1
173
1
174
1
140
1.0
141
1.0
175
1
  7

176
1
177
1
178
1
143
1.0
179
1
  8

270
1
271
1
272
1
145
1.0
146
1.0
273
1
  9

274
1
275
1
276
1
 42
1.0
 72
1
  3

 73
1
 74
1
 75
1
 94
63
  0
MATERIAL
  5
20
102
{ACAD_REACTORS
330
E
102
}
330
E
100
AcDbMaterial
  1
ByLayer
  2

 70
0
 40
1.0
 71
1
 41
1.0
 91
-1023410177
 42
1.0
 72
1
  3

 73
1
 74
1
 75
1
 44
0.5
 73
0
 45
1.0
 46
1.0
 77
1
  4

 78
1
 79
1
170
1
 48
1.0
171
1
  6

172
1
173
1
174
1
140
1.0
141
1.0
175
1
  7

176
1
177
1
178
1
143
1.0
179
1
  8

270
1
271
1
272
1
145
1.0
146
1.0
273
1
  9

274
1
275
1
276
1
 42
1.0
 72
1
  3

 73
1
 74
1
 75
1
 94
63
  0
MATERIAL
  5
21
102
{ACAD_REACTORS
330
E
102
}
330
E
100
AcDbMaterial
  1
Global
  2

 70
0
 40
1.0
 71
1
 41
1.0
 91
-1023410177
 42
1.0
 72
1
  3

 73
1
 74
1
 75
1
 44
0.5
 73
0
 45
1.0
 46
1.0
 77
1
  4

 78
1
 79
1
170
1
 48
1.0
171
1
  6

172
1
173
1
174
1
140
1.0
141
1.0
175
1
  7

176
1
177
1
178
1
143
1.0
179
1
  8

270
1
271
1
272
1
145
1.0
146
1.0
273
1
  9

274
1
275
1
276
1
 42
1.0
 72
1
  3

 73
1
 74
1
 75
1
 94
63
  0
MLINESTYLE
  5
22
102
{ACAD_REACTORS
330
10
102
}
330
10
100
AcDbMlineStyle
  2
Standard
 70
0
  3

 62
256
 51
90.0
 52
90.0
 71
2
 49
0.5
 62
256
  6
BYLAYER
 49
-0.5
 62
256
  6
BYLAYER
  0
MLEADERSTYLE
  5
2C
102
{ACAD_REACTORS
330
F
102
}
330
F
100
AcDbMLeaderStyle
179
2
170
2
171
1
172
0
 90
2
 40
0.0
 41
0.0
173
1
 91
-1056964608
 92
-2
290
1
 42
2.0
291
1
 43
8.0
  3
Standard
 44
4.0
300

342
29
174
1
175
1
176
0
178
1
 93
-1056964608
 45
4.0
292
0
297
0
 46
4.0
 94
-1056964608
 47
1.0
 49
1.0
140
1.0
294
1
141
0.0
177
0
142
1.0
295
0
296
0
143
3.75
271
0
272
9
273
9
  0
DICTIONARY
  5
2D
330
A
100
AcDbDictionary
280
1
281
1
  3
CREATED_BY_EZDXF
350
2E
  3
WRITTEN_BY_EZDXF
350
249
  0
DICTIONARYVAR
  5
2E
330
2D
100
DictionaryVariables
280
0
  1
1.4.4 @ 2026-07-30T15:38:57.449164+00:00
  0
DICTIONARYVAR
  5
249
330
2D
100
DictionaryVariables
280
0
  1
1.4.4 @ 2026-07-30T15:38:57.511623+00:00
  0
ENDSEC
  0
EOF
