  0
SECTION
  2
HEADER
  9
$ACADVER
  1
AC1015
  9
$ACADMAINTVER
 70
6
  9
$DWGCODEPAGE
  3
ANSI_1252
  9
$INSBASE
 10
0.0
 20
0.0
 30
0.0
  9
$EXTMIN
 10
1e+20
 20
1e+20
 30
1e+20
  9
$EXTMAX
 10
-1e+20
 20
-1e+20
 30
-1e+20
  9
$LIMMIN
 10
0.0
 20
0.0
  9
$LIMMAX
 10
420.0
 20
297.0
  9
$ORTHOMODE
 70
0
  9
$REGENMODE
 70
1
  9
$FILLMODE
 70
1
  9
$QTEXTMODE
 70
0
  9
$MIRRTEXT
 70
1
  9
$LTSCALE
 40
1.0
  9
$ATTMODE
 70
1
  9
$TEXTSIZE
 40
2.5
  9
$TRACEWID
 40
1.0
  9
$TEXTSTYLE
  7
Standard
  9
$CLAYER
  8
0
  9
$CELTYPE
  6
ByLayer
  9
$CECOLOR
 62
256
  9
$CELTSCALE
 40
1.0
  9
$DISPSILH
 70
0
  9
$DIMSCALE
 40
1.0
  9
$DIMASZ
 40
2.5
  9
$DIMEXO
 40
0.625
  9
$DIMDLI
 40
3.75
  9
$DIMRND
 40
0.0
  9
$DIMDLE
 40
0.0
  9
$DIMEXE
 40
1.25
  9
$DIMTP
 40
0.0
  9
$DIMTM
 40
0.0
  9
$DIMTXT
 40
2.5
  9
$DIMCEN
 40
2.5
  9
$DIMTSZ
 40
0.0
  9
$DIMTOL
 70
0
  9
$DIMLIM
 70
0
  9
$DIMTIH
 70
0
  9
$DIMTOH
 70
0
  9
$DIMSE1
 70
0
  9
$DIMSE2
 70
0
  9
$DIMTAD
 70
1
  9
$DIMZIN
 70
8
  9
$DIMBLK
  1

  9
$DIMASO
 70
1
  9
$DIMSHO
 70
1
  9
$DIMPOST
  1

  9
$DIMAPOST
  1

  9
$DIMALT
 70
0
  9
$DIMALTD
 70
3
  9
$DIMALTF
 40
0.03937007874
  9
$DIMLFAC
 40
1.0
  9
$DIMTOFL
 70
1
  9
$DIMTVP
 40
0.0
  9
$DIMTIX
 70
0
  9
$DIMSOXD
 70
0
  9
$DIMSAH
 70
0
  9
$DIMBLK1
  1

  9
$DIMBLK2
  1

  9
$DIMSTYLE
  2
ISO-25
  9
$DIMCLRD
 70
0
  9
$DIMCLRE
 70
0
  9
$DIMCLRT
 70
0
  9
$DIMTFAC
 40
1.0
  9
$DIMGAP
 40
0.625
  9
$DIMJUST
 70
0
  9
$DIMSD1
 70
0
  9
$DIMSD2
 70
0
  9
$DIMTOLJ
 70
0
  9
$DIMTZIN
 70
8
  9
$DIMALTZ
 70
0
  9
$DIMALTTZ
 70
0
  9
$DIMUPT
 70
0
  9
$DIMDEC
 70
2
  9
$DIMTDEC
 70
2
  9
$DIMALTU
 70
2
  9
$DIMALTTD
 70
3
  9
$DIMTXSTY
  7
Standard
  9
$DIMAUNIT
 70
0
  9
$DIMADEC
 70
0
  9
$DIMALTRND
 40
0.0
  9
$DIMAZIN
 70
0
  9
$DIMDSEP
 70
44
  9
$DIMATFIT
 70
3
  9
$DIMFRAC
 70
0
  9
$DIMLDRBLK
  1

  9
$DIMLUNIT
 70
2
  9
$DIMLWD
 70
-2
  9
$DIMLWE
 70
-2
  9
$DIMTMOVE
 70
0
  9
$LUNITS
 70
2
  9
$LUPREC
 70
4
  9
$SKETCHINC
 40
1.0
  9
$FILLETRAD
 40
10.0
  9
$AUNITS
 70
0
  9
$AUPREC
 70
2
  9
$MENU
  1
.
  9
$ELEVATION
 40
0.0
  9
$PELEVATION
 40
0.0
  9
$THICKNESS
 40
0.0
  9
$LIMCHECK
 70
0
  9
$CHAMFERA
 40
0.0
  9
$CHAMFERB
 40
0.0
  9
$CHAMFERC
 40
0.0
  9
$CHAMFERD
 40
0.0
  9
$SKPOLY
 70
0
  9
$TDCREATE
 40
2461252.4879282406
  9
$TDUCREATE
 40
2458532.153996898
  9
$TDUPDATE
 40
2461252.4879282406
  9
$TDUUPDATE
 40
2458532.1544311
  9
$TDINDWG
 40
0.0
  9
$TDUSRTIMER
 40
0.0
  9
$USRTIMER
 70
1
  9
$ANGBASE
 50
0.0
  9
$ANGDIR
 70
0
  9
$PDMODE
 70
0
  9
$PDSIZE
 40
0.0
  9
$PLINEWID
 40
0.0
  9
$SPLFRAME
 70
0
  9
$SPLINETYPE
 70
6
  9
$SPLINESEGS
 70
8
  9
$HANDSEED
  5
319
  9
$SURFTAB1
 70
6
  9
$SURFTAB2
 70
6
  9
$SURFTYPE
 70
6
  9
$SURFU
 70
6
  9
$SURFV
 70
6
  9
$UCSBASE
  2

  9
$UCSNAME
  2

  9
$UCSORG
 10
0.0
 20
0.0
 30
0.0
  9
$UCSXDIR
 10
1.0
 20
0.0
 30
0.0
  9
$UCSYDIR
 10
0.0
 20
1.0
 30
0.0
  9
$UCSORTHOREF
  2

  9
$UCSORTHOVIEW
 70
0
  9
$UCSORGTOP
 10
0.0
 20
0.0
 30
0.0
  9
$UCSORGBOTTOM
 10
0.0
 20
0.0
 30
0.0
  9
$UCSORGLEFT
 10
0.0
 20
0.0
 30
0.0
  9
$UCSORGRIGHT
 10
0.0
 20
0.0
 30
0.0
  9
$UCSORGFRONT
 10
0.0
 20
0.0
 30
0.0
  9
$UCSORGBACK
 10
0.0
 20
0.0
 30
0.0
  9
$PUCSBASE
  2

  9
$PUCSNAME
  2

  9
$PUCSORG
 10
0.0
 20
0.0
 30
0.0
  9
$PUCSXDIR
 10
1.0
 20
0.0
 30
0.0
  9
$PUCSYDIR
 10
0.0
 20
1.0
 30
0.0
  9
$PUCSORTHOREF
  2

  9
$PUCSORTHOVIEW
 70
0
  9
$PUCSORGTOP
 10
0.0
 20
0.0
 30
0.0
  9
$PUCSORGBOTTOM
 10
0.0
 20
0.0
 30
0.0
  9
$PUCSORGLEFT
 10
0.0
 20
0.0
 30
0.0
  9
$PUCSORGRIGHT
 10
0.0
 20
0.0
 30
0.0
  9
$PUCSORGFRONT
 10
0.0
 20
0.0
 30
0.0
  9
$PUCSORGBACK
 10
0.0
 20
0.0
 30
0.0
  9
$USERI1
 70
0
  9
$USERI2
 70
0
  9
$USERI3
 70
0
  9
$USERI4
 70
0
  9
$USERI5
 70
0
  9
$USERR1
 40
0.0
  9
$USERR2
 40
0.0
  9
$USERR3
 40
0.0
  9
$USERR4
 40
0.0
  9
$USERR5
 40
0.0
  9
$WORLDVIEW
 70
1
  9
$SHADEDGE
 70
3
  9
$SHADEDIF
 70
70
  9
$TILEMODE
 70
1
  9
$MAXACTVP
 70
64
  9
$PINSBASE
 10
0.0
 20
0.0
 30
0.0
  9
$PLIMCHECK
 70
0
  9
$PEXTMIN
 10
1e+20
 20
1e+20
 30
1e+20
  9
$PEXTMAX
 10
-1e+20
 20
-1e+20
 30
-1e+20
  9
$PLIMMIN
 10
0.0
 20
0.0
  9
$PLIMMAX
 10
420.0
 20
297.0
  9
$UNITMODE
 70
0
  9
$VISRETAIN
 70
1
  9
$PLINEGEN
 70
0
  9
$PSLTSCALE
 70
1
  9
$TREEDEPTH
 70
3020
  9
$CMLSTYLE
  2
Standard
  9
$CMLJUST
 70
0
  9
$CMLSCALE
 40
20.0
  9
$PROXYGRAPHICS
 70
1
  9
$MEASUREMENT
 70
1
  9
$CELWEIGHT
370
-1
  9
$ENDCAPS
280
0
  9
$JOINSTYLE
280
0
  9
$LWDISPLAY
290
0
  9
$INSUNITS
 70
6
  9
$HYPERLINKBASE
  1

  9
$STYLESHEET
  1

  9
$XEDIT
290
1
  9
$CEPSNTYPE
380
0
  9
$PSTYLEMODE
290
1
  9
$FINGERPRINTGUID
  2
{E67D69DA-E8DD-4D23-B200-578B08F7CDE7}
  9
$VERSIONGUID
  2
{744142FD-8E66-438F-B790-88D2E4C5553B}
  9
$EXTNAMES
290
1
  9
$PSVPSCALE
 40
0.0
  9
$OLESTARTUP
290
0
  0
ENDSEC
  0
SECTION
  2
CLASSES
  0
CLASS
  1
ACDBDICTIONARYWDFLT
  2
AcDbDictionaryWithDefault
  3
ObjectDBX Classes
 90
0
280
0
281
0
  0
CLASS
  1
SUN
  2
AcDbSun
  3
SCENEOE
 90
1153
280
0
281
0
  0
CLASS
  1
VISUALSTYLE
  2
AcDbVisualStyle
  3
ObjectDBX Classes
 90
4095
280
0
281
0
  0
CLASS
  1
MATERIAL
  2
AcDbMaterial
  3
ObjectDBX Classes
 90
1153
280
0
281
0
  0
CLASS
  1
SCALE
  2
AcDbScale
  3
ObjectDBX Classes
 90
1153
280
0
281
0
  0
CLASS
  1
TABLESTYLE
  2
AcDbTableStyle
  3
ObjectDBX Classes
 90
4095
280
0
281
0
  0
CLASS
  1
MLEADERSTYLE
  2
AcDbMLeaderStyle
  3
ACDB_MLEADERSTYLE_CLASS
 90
4095
280
0
281
0
  0
CLASS
  1
DICTIONARYVAR
  2
AcDbDictionaryVar
  3
ObjectDBX Classes
 90
0
280
0
281
0
  0
CLASS
  1
CELLSTYLEMAP
  2
AcDbCellStyleMap
  3
ObjectDBX Classes
 90
1152
280
0
281
0
  0
CLASS
  1
MENTALRAYRENDERSETTINGS
  2
AcDbMentalRayRenderSettings
  3
SCENEOE
 90
1024
280
0
281
0
  0
CLASS
  1
ACDBDETAILVIEWSTYLE
  2
AcDbDetailViewStyle
  3
ObjectDBX Classes
 90
1025
280
0
281
0
  0
CLASS
  1
ACDBSECTIONVIEWSTYLE
  2
AcDbSectionViewStyle
  3
ObjectDBX Classes
 90
1025
280
0
281
0
  0
CLASS
  1
RASTERVARIABLES
  2
AcDbRasterVariables
  3
ISM
 90
0
280
0
281
0
  0
CLASS
  1
ACDBPLACEHOLDER
  2
AcDbPlaceHolder
  3
ObjectDBX Classes
 90
0
280
0
281
0
  0
CLASS
  1
LAYOUT
  2
AcDbLayout
  3
ObjectDBX Classes
 90
0
280
0
281
0
  0
ENDSEC
  0
SECTION
  2
TABLES
  0
TABLE
  2
VPORT
  5
8
330
0
100
AcDbSymbolTable
 70
1
  0
VPORT
  5
23
330
8
100
AcDbSymbolTableRecord
100
AcDbViewportTableRecord
  2
*Active
 70
0
 10
0.0
 20
0.0
 11
1.0
 21
1.0
 12
0.0
 22
0.0
 13
0.0
 23
0.0
 14
0.5
 24
0.5
 15
0.5
 25
0.5
 16
0.0
 26
0.0
 36
1.0
 17
0.0
 27
0.0
 37
0.0
 40
1000.0
 41
1.34
 42
50.0
 43
0.0
 44
0.0
 50
0.0
 51
0.0
 71
0
 72
1000
 73
1
 74
3
 75
0
 76
0
 77
0
 78
0
281
0
 65
0
146
0.0
  0
ENDTAB
  0
TABLE
  2
LTYPE
  5
2
330
0
100
AcDbSymbolTable
 70
3
  0
LTYPE
  5
24
330
2
100
AcDbSymbolTableRecord
100
AcDbLinetypeTableRecord
  2
ByBlock
 70
0
  3

 72
65
 73
0
 40
0.0
  0
LTYPE
  5
25
330
2
100
AcDbSymbolTableRecord
100
AcDbLinetypeTableRecord
  2
ByLayer
 70
0
  3

 72
65
 73
0
 40
0.0
  0
LTYPE
  5
26
330
2
100
AcDbSymbolTableRecord
100
AcDbLinetypeTableRecord
  2
Continuous
 70
0
  3

 72
65
 73
0
 40
0.0
  0
ENDTAB
  0
TABLE
  2
LAYER
  5
1
330
0
100
AcDbSymbolTable
 70
2
  0
LAYER
  5
27
330
1
100
AcDbSymbolTableRecord
100
AcDbLayerTableRecord
  2
0
 70
0
 62
7
  6
Continuous
370
-3
390
13
  0
LAYER
  5
28
330
1
100
AcDbSymbolTableRecord
100
AcDbLayerTableRecord
  2
Defpoints
 70
0
 62
7
  6
Continuous
290
0
370
-3
390
13
  0
ENDTAB
  0
TABLE
  2
STYLE
  5
5
330
0
100
AcDbSymbolTable
 70
1
  0
STYLE
  5
29
330
5
100
AcDbSymbolTableRecord
100
AcDbTextStyleTableRecord
  2
Standard
 70
0
 40
0.0
 41
1.0
 50
0.0
 71
0
 42
2.5
  3
txt
  4

  0
ENDTAB
  0
TABLE
  2
VIEW
  5
7
330
0
100
AcDbSymbolTable
 70
0
  0
ENDTAB
  0
TABLE
  2
UCS
  5
6
330
0
100
AcDbSymbolTable
 70
0
  0
ENDTAB
  0
TABLE
  2
APPID
  5
3
330
0
100
AcDbSymbolTable
 70
3
  0
APPID
  5
2A
330
3
100
AcDbSymbolTableRecord
100
AcDbRegAppTableRecord
  2
ACAD
 70
0
  0
APPID
  5
316
330
3
100
AcDbSymbolTableRecord
100
AcDbRegAppTableRecord
  2
HATCHBACKGROUNDCOLOR
 70
0
  0
APPID
  5
317
330
3
100
AcDbSymbolTableRecord
100
AcDbRegAppTableRecord
  2
EZDXF
 70
0
  0
ENDTAB
  0
TABLE
  2
DIMSTYLE
  5
4
330
0
100
AcDbSymbolTable
 70
1
100
AcDbDimStyleTable
  0
DIMSTYLE
105
2B
330
4
100
AcDbSymbolTableRecord
100
AcDbDimStyleTableRecord
  2
Standard
 70
0
  3

  4

 40
1.0
 41
2.5
 42
0.625
 43
3.75
 44
1.25
 45
0.0
 46
0.0
 47
0.0
 48
0.0
140
2.5
141
2.5
142
0.0
143
0.03937007874
144
1.0
145
0.0
146
1.0
147
0.625
148
0.0
 71
0
 72
0
 73
0
 74
0
 75
0
 76
0
 77
1
 78
8
 79
3
170
0
171
3
172
1
173
0
174
0
175
0
176
0
177
0
178
0
179
2
271
2
272
2
273
2
274
3
275
0
276
0
277
2
278
44
279
0
280
0
281
0
282
0
283
0
284
8
285
0
286
0
288
0
289
3
371
-2
372
-2
  0
ENDTAB
  0
TABLE
  2
BLOCK_RECORD
  5
9
330
0
100
AcDbSymbolTable
 70
2
  0
BLOCK_RECORD
  5
17
330
9
100
AcDbSymbolTableRecord
100
AcDbBlockTableRecord
  2
*Model_Space
340
1A
  0
BLOCK_RECORD
  5
1B
330
9
100
AcDbSymbolTableRecord
100
AcDbBlockTableRecord
  2
*Paper_Space
340
1E
  0
ENDTAB
  0
ENDSEC
  0
SECTION
  2
BLOCKS
  0
BLOCK
  5
18
330
17
100
AcDbEntity
  8
0
100
AcDbBlockBegin
  2
*Model_Space
 70
0
 10
0.0
 20
0.0
 30
0.0
  3
*Model_Space
  1

  0
ENDBLK
  5
19
330
17
100
AcDbEntity
  8
0
100
AcDbBlockEnd
  0
BLOCK
  5
1C
330
1B
100
AcDbEntity
  8
0
100
AcDbBlockBegin
  2
*Paper_Space
 70
0
 10
0.0
 20
0.0
 30
0.0
  3
*Paper_Space
  1

  0
ENDBLK
  5
1D
330
1B
100
AcDbEntity
  8
0
100
AcDbBlockEnd
  0
ENDSEC
  0
SECTION
  2
ENTITIES
  0
LWPOLYLINE
  5
2F
330
17
100
AcDbEntity
  8
ROADS
100
AcDbPolyline
 90
2
 70
0
 10
627188.2795688773
 20
4838838.043300798
 10
627178.471123653
 20
4838867.748998678
  0
LWPOLYLINE
  5
30
330
17
100
AcDbEntity
  8
ROADS
100
AcDbPolyline
 90
2
 70
0
 10
627273.3182092877
 20
4838892.672144204
 10
627178.471123653
 20
4838867.748998678
  0
LWPOLYLINE
  5
31
330
17
100
AcDbEntity
  8
ROADS
100
AcDbPolyline
 90
2
 70
0
 10
627178.471123653
 20
4838867.748998678
 10
627139.6119436545
 20
4838991.684787093
  0
LWPOLYLINE
  5
32
330
17
100
AcDbEntity
  8
ROADS
100
AcDbPolyline
 90
2
 70
0
 10
626302.2180036115
 20
4838748.050711881
 10
626287.4956254165
 20
4838784.899105842
  0
LWPOLYLINE
  5
33
330
17
100
AcDbEntity
  8
ROADS
100
AcDbPolyline
 90
2
 70
0
 10
626287.4956254165
 20
4838784.899105842
 10
626228.9803158488
 20
4838788.0968826115
  0
LWPOLYLINE
  5
34
330
17
100
AcDbEntity
  8
ROADS
100
AcDbPolyline
 90
2
 70
0
 10
626287.4956254165
 20
4838784.899105842
 10
626276.8176351842
 20
4838811.953569956
  0
LWPOLYLINE
  5
35
330
17
100
AcDbEntity
  8
ROADS
100
AcDbPolyline
 90
2
 70
0
 10
626276.8176351842
 20
4838811.953569956
 10
626255.8288342942
 20
4838872.85353723
  0
LWPOLYLINE
  5
36
330
17
100
AcDbEntity
  8
ROADS
100
AcDbPolyline
 90
3
 70
0
 10
626276.8176351842
 20
4838811.953569956
 10
626333.533421777
 20
4838866.773699723
 10
626381.2110537341
 20
4838886.964298388
  0
LWPOLYLINE
  5
37
330
17
100
AcDbEntity
  8
ROADS
100
AcDbPolyline
 90
3
 70
0
 10
626434.5943480487
 20
4838818.238789514
 10
626381.8576618701
 20
4838859.89837973
 10
626381.2110537341
 20
4838886.964298388
  0
LWPOLYLINE
  5
38
330
17
100
AcDbEntity
  8
ROADS
100
AcDbPolyline
 90
2
 70
0
 10
626255.8288342942
 20
4838872.85353723
 10
626222.0995863117
 20
4838850.919142871
  0
LWPOLYLINE
  5
39
330
17
100
AcDbEntity
  8
ROADS
100
AcDbPolyline
 90
3
 70
0
 10
626424.8544643023
 20
4838949.170442959
 10
626529.5263824915
 20
4838885.280937009
 10
626542.567785671
 20
4838856.830120081
  0
LWPOLYLINE
  5
3A
330
17
100
AcDbEntity
  8
ROADS
100
AcDbPolyline
 90
2
 70
0
 10
626381.2110537341
 20
4838886.964298388
 10
626409.5792384103
 20
4838921.1584671745
  0
LWPOLYLINE
  5
3B
330
17
100
AcDbEntity
  8
ROADS
100
AcDbPolyline
 90
2
 70
0
 10
626255.8288342942
 20
4838872.85353723
 10
626233.0739734492
 20
4838945.36023945
  0
LWPOLYLINE
  5
3C
330
17
100
AcDbEntity
  8
ROADS
100
AcDbPolyline
 90
4
 70
0
 10
626542.567785671
 20
4838856.830120081
 10
626654.7745174913
 20
4838774.345726561
 10
626801.1802404675
 20
4838763.850235044
 10
626827.9992198747
 20
4838754.7079167
  0
LWPOLYLINE
  5
3D
330
17
100
AcDbEntity
  8
ROADS
100
AcDbPolyline
 90
2
 70
0
 10
626487.632793528
 20
4838799.869040854
 10
626542.567785671
 20
4838856.830120081
  0
LWPOLYLINE
  5
3E
330
17
100
AcDbEntity
  8
ROADS
100
AcDbPolyline
 90
4
 70
0
 10
626795.0617272116
 20
4838879.902630421
 10
626740.4135416243
 20
4838880.503188065
 10
626672.1248461825
 20
4838921.776476518
 10
626573.9596997333
 20
4839080.78542526
  0
LWPOLYLINE
  5
3F
330
17
100
AcDbEntity
  8
ROADS
100
AcDbPolyline
 90
2
 70
0
 10
626795.0617272116
 20
4838879.902630421
 10
626671.3039548958
 20
4839143.566051245
  0
LWPOLYLINE
  5
40
330
17
100
AcDbEntity
  8
ROADS
100
AcDbPolyline
 90
2
 70
0
 10
626573.9596997333
 20
4839080.78542526
 10
626548.8587683222
 20
4839098.33343893
  0
LWPOLYLINE
  5
41
330
17
100
AcDbEntity
  8
ROADS
100
AcDbPolyline
 90
2
 70
0
 10
626573.9596997333
 20
4839080.78542526
 10
626615.0575235421
 20
4839124.937494388
  0
LWPOLYLINE
  5
42
330
17
100
AcDbEntity
  8
ROADS
100
AcDbPolyline
 90
2
 70
0
 10
626615.0575235421
 20
4839124.937494388
 10
626548.8587683222
 20
4839098.33343893
  0
LWPOLYLINE
  5
43
330
17
100
AcDbEntity
  8
ROADS
100
AcDbPolyline
 90
2
 70
0
 10
626548.8587683222
 20
4839098.33343893
 10
626487.2591354166
 20
4839139.349641325
  0
LWPOLYLINE
  5
44
330
17
100
AcDbEntity
  8
ROADS
100
AcDbPolyline
 90
2
 70
0
 10
626671.3039548958
 20
4839143.566051245
 10
626615.0575235421
 20
4839124.937494388
  0
LWPOLYLINE
  5
45
330
17
100
AcDbEntity
  8
ROADS
100
AcDbPolyline
 90
2
 70
0
 10
626814.0915448887
 20
4839132.348227958
 10
626671.3039548958
 20
4839143.566051245
  0
LWPOLYLINE
  5
46
330
17
100
AcDbEntity
  8
ROADS
100
AcDbPolyline
 90
2
 70
0
 10
626846.1211708635
 20
4838760.237053806
 10
626823.352350563
 20
4838814.284352013
  0
LWPOLYLINE
  5
47
330
17
100
AcDbEntity
  8
ROADS
100
AcDbPolyline
 90
2
 70
0
 10
626857.7880036396
 20
4838763.920283209
 10
626823.352350563
 20
4838814.284352013
  0
LWPOLYLINE
  5
48
330
17
100
AcDbEntity
  8
ROADS
100
AcDbPolyline
 90
2
 70
0
 10
626823.352350563
 20
4838814.284352013
 10
626795.0617272116
 20
4838879.902630421
  0
LWPOLYLINE
  5
49
330
17
100
AcDbEntity
  8
ROADS
100
AcDbPolyline
 90
3
 70
0
 10
627178.471123653
 20
4838867.748998678
 10
626982.0102267384
 20
4838906.822816053
 10
626889.9057619391
 20
4838896.80620711
  0
LWPOLYLINE
  5
4A
330
17
100
AcDbEntity
  8
ROADS
100
AcDbPolyline
 90
2
 70
0
 10
626889.9057619391
 20
4838896.80620711
 10
626795.0617272116
 20
4838879.902630421
  0
LWPOLYLINE
  5
4B
330
17
100
AcDbEntity
  8
ROADS
100
AcDbPolyline
 90
2
 70
0
 10
626889.9057619391
 20
4838896.80620711
 10
626845.6101759123
 20
4839000.513314453
  0
LWPOLYLINE
  5
4C
330
17
100
AcDbEntity
  8
ROADS
100
AcDbPolyline
 90
4
 70
0
 10
627139.6119436545
 20
4838991.684787093
 10
627079.4255859931
 20
4838983.869632135
 10
626913.5738027358
 20
4839012.98143113
 10
626845.6101759123
 20
4839000.513314453
  0
LWPOLYLINE
  5
4D
330
17
100
AcDbEntity
  8
ROADS
100
AcDbPolyline
 90
3
 70
0
 10
626845.6101759123
 20
4839000.513314453
 10
626812.5894374144
 20
4839080.161876101
 10
626814.0915448887
 20
4839132.348227958
  0
LWPOLYLINE
  5
4E
330
17
100
AcDbEntity
  8
ROADS
100
AcDbPolyline
 90
3
 70
0
 10
627103.4667035198
 20
4839107.283123925
 10
627026.496609261
 20
4839094.974076508
 10
626814.0915448887
 20
4839132.348227958
  0
LWPOLYLINE
  5
4F
330
17
100
AcDbEntity
  8
ROADS
100
AcDbPolyline
 90
2
 70
0
 10
626814.0915448887
 20
4839132.348227958
 10
626824.2778777342
 20
4839231.789550809
  0
LWPOLYLINE
  5
50
330
17
100
AcDbEntity
  8
ROADS
100
AcDbPolyline
 90
2
 70
0
 10
627273.3182092877
 20
4838892.672144204
 10
627211.2434498748
 20
4839092.905772014
  0
LWPOLYLINE
  5
51
330
17
100
AcDbEntity
  8
ROADS
100
AcDbPolyline
 90
2
 70
0
 10
627139.6119436545
 20
4838991.684787093
 10
627117.5451430802
 20
4839064.020108751
  0
LWPOLYLINE
  5
52
330
17
100
AcDbEntity
  8
ROADS
100
AcDbPolyline
 90
2
 70
0
 10
627211.2434498748
 20
4839092.905772014
 10
627117.5451430802
 20
4839064.020108751
  0
LWPOLYLINE
  5
53
330
17
100
AcDbEntity
  8
ROADS
100
AcDbPolyline
 90
2
 70
0
 10
627341.9925788933
 20
4839040.000540009
 10
627314.5149759181
 20
4839123.5827302635
  0
LWPOLYLINE
  5
54
330
17
100
AcDbEntity
  8
ROADS
100
AcDbPolyline
 90
2
 70
0
 10
627117.5451430802
 20
4839064.020108751
 10
627103.4667035198
 20
4839107.283123925
  0
LWPOLYLINE
  5
55
330
17
100
AcDbEntity
  8
ROADS
100
AcDbPolyline
 90
2
 70
0
 10
627314.5149759181
 20
4839123.5827302635
 10
627211.2434498748
 20
4839092.905772014
  0
LWPOLYLINE
  5
56
330
17
100
AcDbEntity
  8
ROADS
100
AcDbPolyline
 90
2
 70
0
 10
627103.4667035198
 20
4839107.283123925
 10
627061.7010232715
 20
4839237.202651619
  0
LWPOLYLINE
  5
57
330
17
100
AcDbEntity
  8
ROADS
100
AcDbPolyline
 90
2
 70
0
 10
627211.2434498748
 20
4839092.905772014
 10
627146.6925571305
 20
4839292.192477645
  0
LWPOLYLINE
  5
58
330
17
100
AcDbEntity
  8
ROADS
100
AcDbPolyline
 90
2
 70
0
 10
627314.5149759181
 20
4839123.5827302635
 10
627261.1534143825
 20
4839286.3466244405
  0
LWPOLYLINE
  5
59
330
17
100
AcDbEntity
  8
ROADS
100
AcDbPolyline
 90
2
 70
0
 10
627146.6925571305
 20
4839292.192477645
 10
627053.423530321
 20
4839263.460538596
  0
LWPOLYLINE
  5
5A
330
17
100
AcDbEntity
  8
ROADS
100
AcDbPolyline
 90
3
 70
0
 10
626551.0702554866
 20
4839203.129747503
 10
626523.9606001572
 20
4839192.074696144
 10
626487.2591354166
 20
4839139.349641325
  0
LWPOLYLINE
  5
5B
330
17
100
AcDbEntity
  8
ROADS
100
AcDbPolyline
 90
2
 70
0
 10
626671.3039548958
 20
4839143.566051245
 10
626630.2291269868
 20
4839228.388179364
  0
LWPOLYLINE
  5
5C
330
17
100
AcDbEntity
  8
ROADS
100
AcDbPolyline
 90
2
 70
0
 10
626605.0240672019
 20
4839220.346757618
 10
626551.0702554866
 20
4839203.129747503
  0
LWPOLYLINE
  5
5D
330
17
100
AcDbEntity
  8
ROADS
100
AcDbPolyline
 90
3
 70
0
 10
626551.0702554866
 20
4839203.129747503
 10
626558.6637063358
 20
4839226.735526546
 10
626587.007950632
 20
4839239.088992708
  0
LWPOLYLINE
  5
5E
330
17
100
AcDbEntity
  8
ROADS
100
AcDbPolyline
 90
2
 70
0
 10
626630.2291269868
 20
4839228.388179364
 10
626605.0240672019
 20
4839220.346757618
  0
LWPOLYLINE
  5
5F
330
17
100
AcDbEntity
  8
ROADS
100
AcDbPolyline
 90
2
 70
0
 10
626605.0240672019
 20
4839220.346757618
 10
626602.9388420924
 20
4839238.070107097
  0
LWPOLYLINE
  5
60
330
17
100
AcDbEntity
  8
ROADS
100
AcDbPolyline
 90
2
 70
0
 10
626602.9388420924
 20
4839238.070107097
 10
626630.2291269868
 20
4839228.388179364
  0
LWPOLYLINE
  5
61
330
17
100
AcDbEntity
  8
ROADS
100
AcDbPolyline
 90
3
 70
0
 10
626824.2778777342
 20
4839231.789550809
 10
626707.8179864665
 20
4839248.335900588
 10
626630.2291269868
 20
4839228.388179364
  0
LWPOLYLINE
  5
62
330
17
100
AcDbEntity
  8
ROADS
100
AcDbPolyline
 90
2
 70
0
 10
626587.007950632
 20
4839239.088992708
 10
626602.9388420924
 20
4839238.070107097
  0
LWPOLYLINE
  5
63
330
17
100
AcDbEntity
  8
ROADS
100
AcDbPolyline
 90
2
 70
0
 10
626602.9388420924
 20
4839238.070107097
 10
626591.7098611243
 20
4839252.100830701
  0
LWPOLYLINE
  5
64
330
17
100
AcDbEntity
  8
ROADS
100
AcDbPolyline
 90
2
 70
0
 10
626587.007950632
 20
4839239.088992708
 10
626591.7098611243
 20
4839252.100830701
  0
LWPOLYLINE
  5
65
330
17
100
AcDbEntity
  8
ROADS
100
AcDbPolyline
 90
2
 70
0
 10
626630.2291269868
 20
4839228.388179364
 10
626585.2732806155
 20
4839314.911184502
  0
LWPOLYLINE
  5
66
330
17
100
AcDbEntity
  8
ROADS
100
AcDbPolyline
 90
2
 70
0
 10
626591.7098611243
 20
4839252.100830701
 10
626570.9210241213
 20
4839294.589337403
  0
LWPOLYLINE
  5
67
330
17
100
AcDbEntity
  8
ROADS
100
AcDbPolyline
 90
2
 70
0
 10
626570.9210241213
 20
4839294.589337403
 10
626557.4499629983
 20
4839295.100686274
  0
LWPOLYLINE
  5
68
330
17
100
AcDbEntity
  8
ROADS
100
AcDbPolyline
 90
2
 70
0
 10
626570.9210241213
 20
4839294.589337403
 10
626585.2732806155
 20
4839314.911184502
  0
LWPOLYLINE
  5
69
330
17
100
AcDbEntity
  8
ROADS
100
AcDbPolyline
 90
3
 70
0
 10
626731.0640487958
 20
4839343.660189363
 10
626686.9881859119
 20
4839347.098090545
 10
626585.2732806155
 20
4839314.911184502
  0
LWPOLYLINE
  5
6A
330
17
100
AcDbEntity
  8
ROADS
100
AcDbPolyline
 90
2
 70
0
 10
626833.0778732973
 20
4839326.378506118
 10
626731.0640487958
 20
4839343.660189363
  0
LWPOLYLINE
  5
6B
330
17
100
AcDbEntity
  8
ROADS
100
AcDbPolyline
 90
2
 70
0
 10
626585.2732806155
 20
4839314.911184502
 10
626540.0904138524
 20
4839399.222427031
  0
LWPOLYLINE
  5
6C
330
17
100
AcDbEntity
  8
ROADS
100
AcDbPolyline
 90
2
 70
0
 10
626731.0640487958
 20
4839343.660189363
 10
626699.8491843723
 20
4839448.193867758
  0
LWPOLYLINE
  5
6D
330
17
100
AcDbEntity
  8
ROADS
100
AcDbPolyline
 90
2
 70
0
 10
626699.8491843723
 20
4839448.193867758
 10
626540.0904138524
 20
4839399.222427031
  0
LWPOLYLINE
  5
6E
330
17
100
AcDbEntity
  8
ROADS
100
AcDbPolyline
 90
3
 70
0
 10
627061.7010232715
 20
4839237.202651619
 10
626976.5543881713
 20
4839212.236892185
 10
626824.2778777342
 20
4839231.789550809
  0
LWPOLYLINE
  5
6F
330
17
100
AcDbEntity
  8
ROADS
100
AcDbPolyline
 90
2
 70
0
 10
627061.7010232715
 20
4839237.202651619
 10
627053.423530321
 20
4839263.460538596
  0
LWPOLYLINE
  5
70
330
17
100
AcDbEntity
  8
ROADS
100
AcDbPolyline
 90
2
 70
0
 10
626824.2778777342
 20
4839231.789550809
 10
626833.0778732973
 20
4839326.378506118
  0
LWPOLYLINE
  5
71
330
17
100
AcDbEntity
  8
ROADS
100
AcDbPolyline
 90
2
 70
0
 10
627053.423530321
 20
4839263.460538596
 10
627032.3783445526
 20
4839328.575860329
  0
LWPOLYLINE
  5
72
330
17
100
AcDbEntity
  8
ROADS
100
AcDbPolyline
 90
2
 70
0
 10
626930.5601209961
 20
4839313.261094065
 10
626833.0778732973
 20
4839326.378506118
  0
LWPOLYLINE
  5
73
330
17
100
AcDbEntity
  8
ROADS
100
AcDbPolyline
 90
2
 70
0
 10
627032.3783445526
 20
4839328.575860329
 10
626930.5601209961
 20
4839313.261094065
  0
LWPOLYLINE
  5
74
330
17
100
AcDbEntity
  8
ROADS
100
AcDbPolyline
 90
2
 70
0
 10
627032.3783445526
 20
4839328.575860329
 10
626992.1774347436
 20
4839457.016549733
  0
LWPOLYLINE
  5
75
330
17
100
AcDbEntity
  8
ROADS
100
AcDbPolyline
 90
2
 70
0
 10
626833.0778732973
 20
4839326.378506118
 10
626788.9085425303
 20
4839478.213756064
  0
LWPOLYLINE
  5
76
330
17
100
AcDbEntity
  8
ROADS
100
AcDbPolyline
 90
2
 70
0
 10
626930.5601209961
 20
4839313.261094065
 10
626877.0387918028
 20
4839504.8656464415
  0
LWPOLYLINE
  5
77
330
17
100
AcDbEntity
  8
ROADS
100
AcDbPolyline
 90
2
 70
0
 10
627083.9655671399
 20
4839485.127710328
 10
626992.1774347436
 20
4839457.016549733
  0
LWPOLYLINE
  5
78
330
17
100
AcDbEntity
  8
ROADS
100
AcDbPolyline
 90
3
 70
0
 10
626393.7855394135
 20
4839199.165384265
 10
626438.8497700808
 20
4839273.932025796
 10
626384.3572260576
 20
4839348.632755713
  0
LWPOLYLINE
  5
79
330
17
100
AcDbEntity
  8
ROADS
100
AcDbPolyline
 90
2
 70
0
 10
626249.7316836463
 20
4839305.598400899
 10
626227.4049883686
 20
4839299.261650526
  0
LWPOLYLINE
  5
7A
330
17
100
AcDbEntity
  8
ROADS
100
AcDbPolyline
 90
2
 70
0
 10
626384.3572260576
 20
4839348.632755713
 10
626249.7316836463
 20
4839305.598400899
  0
LWPOLYLINE
  5
7B
330
17
100
AcDbEntity
  8
ROADS
100
AcDbPolyline
 90
2
 70
0
 10
626540.0904138524
 20
4839399.222427031
 10
626384.3572260576
 20
4839348.632755713
  0
LWPOLYLINE
  5
7C
330
17
100
AcDbEntity
  8
ROADS
100
AcDbPolyline
 90
2
 70
0
 10
626384.3572260576
 20
4839348.632755713
 10
626353.5902966806
 20
4839442.448789615
  0
LWPOLYLINE
  5
7D
330
17
100
AcDbEntity
  8
ROADS
100
AcDbPolyline
 90
2
 70
0
 10
626274.7317797233
 20
4839417.286765786
 10
626200.3871985707
 20
4839393.028462205
  0
LWPOLYLINE
  5
7E
330
17
100
AcDbEntity
  8
ROADS
100
AcDbPolyline
 90
2
 70
0
 10
626353.5902966806
 20
4839442.448789615
 10
626274.7317797233
 20
4839417.286765786
  0
LWPOLYLINE
  5
7F
330
17
100
AcDbEntity
  8
ROADS
100
AcDbPolyline
 90
2
 70
0
 10
626429.8137598141
 20
4839465.837051224
 10
626353.5902966806
 20
4839442.448789615
  0
LWPOLYLINE
  5
80
330
17
100
AcDbEntity
  8
ROADS
100
AcDbPolyline
 90
2
 70
0
 10
626509.512998705
 20
4839490.466274035
 10
626429.8137598141
 20
4839465.837051224
  0
LWPOLYLINE
  5
81
330
17
100
AcDbEntity
  8
ROADS
100
AcDbPolyline
 90
2
 70
0
 10
626274.7317797233
 20
4839417.286765786
 10
626215.4256053331
 20
4839613.15002997
  0
LWPOLYLINE
  5
82
330
17
100
AcDbEntity
  8
ROADS
100
AcDbPolyline
 90
2
 70
0
 10
626540.0904138524
 20
4839399.222427031
 10
626509.512998705
 20
4839490.466274035
  0
LWPOLYLINE
  5
83
330
17
100
AcDbEntity
  8
ROADS
100
AcDbPolyline
 90
2
 70
0
 10
626788.9085425303
 20
4839478.213756064
 10
626699.8491843723
 20
4839448.193867758
  0
LWPOLYLINE
  5
84
330
17
100
AcDbEntity
  8
ROADS
100
AcDbPolyline
 90
2
 70
0
 10
626591.3117029514
 20
4839515.630519709
 10
626509.512998705
 20
4839490.466274035
  0
LWPOLYLINE
  5
85
330
17
100
AcDbEntity
  8
ROADS
100
AcDbPolyline
 90
2
 70
0
 10
626788.9085425303
 20
4839478.213756064
 10
626761.5202810969
 20
4839570.3419100335
  0
LWPOLYLINE
  5
86
330
17
100
AcDbEntity
  8
ROADS
100
AcDbPolyline
 90
2
 70
0
 10
626675.7673103546
 20
4839544.182045863
 10
626591.3117029514
 20
4839515.630519709
  0
LWPOLYLINE
  5
87
330
17
100
AcDbEntity
  8
ROADS
100
AcDbPolyline
 90
2
 70
0
 10
626761.5202810969
 20
4839570.3419100335
 10
626675.7673103546
 20
4839544.182045863
  0
LWPOLYLINE
  5
88
330
17
100
AcDbEntity
  8
ROADS
100
AcDbPolyline
 90
2
 70
0
 10
626591.3117029514
 20
4839515.630519709
 10
626530.2638090546
 20
4839713.290552314
  0
LWPOLYLINE
  5
89
330
17
100
AcDbEntity
  8
ROADS
100
AcDbPolyline
 90
2
 70
0
 10
626675.7673103546
 20
4839544.182045863
 10
626616.370889004
 20
4839739.24934306
  0
LWPOLYLINE
  5
8A
330
17
100
AcDbEntity
  8
ROADS
100
AcDbPolyline
 90
2
 70
0
 10
626761.5202810969
 20
4839570.3419100335
 10
626702.8814761557
 20
4839765.762980116
  0
LWPOLYLINE
  5
8B
330
17
100
AcDbEntity
  8
ROADS
100
AcDbPolyline
 90
2
 70
0
 10
626616.370889004
 20
4839739.24934306
 10
626530.2638090546
 20
4839713.290552314
  0
LWPOLYLINE
  5
8C
330
17
100
AcDbEntity
  8
ROADS
100
AcDbPolyline
 90
2
 70
0
 10
626877.0387918028
 20
4839504.8656464415
 10
626788.9085425303
 20
4839478.213756064
  0
LWPOLYLINE
  5
8D
330
17
100
AcDbEntity
  8
ROADS
100
AcDbPolyline
 90
2
 70
0
 10
626992.1774347436
 20
4839457.016549733
 10
626966.8674246401
 20
4839531.503273275
  0
LWPOLYLINE
  5
8E
330
17
100
AcDbEntity
  8
ROADS
100
AcDbPolyline
 90
2
 70
0
 10
626966.8674246401
 20
4839531.503273275
 10
626877.0387918028
 20
4839504.8656464415
  0
LWPOLYLINE
  5
8F
330
17
100
AcDbEntity
  8
ROADS
100
AcDbPolyline
 90
2
 70
0
 10
627083.9655671399
 20
4839485.127710328
 10
627022.572234176
 20
4839678.302013847
  0
LWPOLYLINE
  5
90
330
17
100
AcDbEntity
  8
ROADS
100
AcDbPolyline
 90
2
 70
0
 10
626850.5852877711
 20
4839596.235686248
 10
626761.5202810969
 20
4839570.3419100335
  0
LWPOLYLINE
  5
91
330
17
100
AcDbEntity
  8
ROADS
100
AcDbPolyline
 90
2
 70
0
 10
626966.8674246401
 20
4839531.503273275
 10
626930.4219483653
 20
4839650.476271105
  0
LWPOLYLINE
  5
92
330
17
100
AcDbEntity
  8
ROADS
100
AcDbPolyline
 90
2
 70
0
 10
626893.2903513394
 20
4839621.030745852
 10
626850.5852877711
 20
4839596.235686248
  0
LWPOLYLINE
  5
93
330
17
100
AcDbEntity
  8
ROADS
100
AcDbPolyline
 90
2
 70
0
 10
626930.4219483653
 20
4839650.476271105
 10
626893.2903513394
 20
4839621.030745852
  0
LWPOLYLINE
  5
94
330
17
100
AcDbEntity
  8
ROADS
100
AcDbPolyline
 90
2
 70
0
 10
627022.572234176
 20
4839678.302013847
 10
626930.4219483653
 20
4839650.476271105
  0
LWPOLYLINE
  5
95
330
17
100
AcDbEntity
  8
ROADS
100
AcDbPolyline
 90
2
 70
0
 10
626850.5852877711
 20
4839596.235686248
 10
626792.2275624918
 20
4839776.9479929935
  0
LWPOLYLINE
  5
96
330
17
100
AcDbEntity
  8
ROADS
100
AcDbPolyline
 90
2
 70
0
 10
626449.4272259034
 20
4839689.58925546
 10
626530.2638090546
 20
4839713.290552314
  0
LWPOLYLINE
  5
97
330
17
100
AcDbEntity
  8
ROADS
100
AcDbPolyline
 90
2
 70
0
 10
626281.4693665323
 20
4839685.51757646
 10
626271.7968484416
 20
4839727.2950763395
  0
LWPOLYLINE
  5
98
330
17
100
AcDbEntity
  8
ROADS
100
AcDbPolyline
 90
2
 70
0
 10
626449.4272259034
 20
4839689.58925546
 10
626435.6765545859
 20
4839733.858149111
  0
LWPOLYLINE
  5
99
330
17
100
AcDbEntity
  8
ROADS
100
AcDbPolyline
 90
2
 70
0
 10
626424.9291332463
 20
4839730.584525954
 10
626354.6302048038
 20
4839708.62446743
  0
LWPOLYLINE
  5
9A
330
17
100
AcDbEntity
  8
ROADS
100
AcDbPolyline
 90
2
 70
0
 10
626435.6765545859
 20
4839733.858149111
 10
626424.9291332463
 20
4839730.584525954
  0
LWPOLYLINE
  5
9B
330
17
100
AcDbEntity
  8
ROADS
100
AcDbPolyline
 90
2
 70
0
 10
626515.9078798136
 20
4839758.8150816895
 10
626435.6765545859
 20
4839733.858149111
  0
LWPOLYLINE
  5
9C
330
17
100
AcDbEntity
  8
ROADS
100
AcDbPolyline
 90
2
 70
0
 10
626411.5577651538
 20
4839773.345186473
 10
626271.7968484416
 20
4839727.2950763395
  0
LWPOLYLINE
  5
9D
330
17
100
AcDbEntity
  8
ROADS
100
AcDbPolyline
 90
2
 70
0
 10
626424.9291332463
 20
4839730.584525954
 10
626411.5577651538
 20
4839773.345186473
  0
LWPOLYLINE
  5
9E
330
17
100
AcDbEntity
  8
ROADS
100
AcDbPolyline
 90
2
 70
0
 10
626271.7968484416
 20
4839727.2950763395
 10
626254.8464626861
 20
4839780.142568767
  0
LWPOLYLINE
  5
9F
330
17
100
AcDbEntity
  8
ROADS
100
AcDbPolyline
 90
2
 70
0
 10
626411.5577651538
 20
4839773.345186473
 10
626394.2048602167
 20
4839824.966343598
  0
LWPOLYLINE
  5
A0
330
17
100
AcDbEntity
  8
ROADS
100
AcDbPolyline
 90
2
 70
0
 10
627431.0021905731
 20
4838949.748097904
 10
627273.3182092877
 20
4838892.672144204
  0
LWPOLYLINE
  5
A1
330
17
100
AcDbEntity
  8
ROADS
100
AcDbPolyline
 90
2
 70
0
 10
627468.0003956374
 20
4838973.158843756
 10
627409.9683071445
 20
4839153.913263159
  0
LWPOLYLINE
  5
A2
330
17
100
AcDbEntity
  8
ROADS
100
AcDbPolyline
 90
2
 70
0
 10
627552.2024474248
 20
4839038.670766423
 10
627505.3012978343
 20
4839182.4945258135
  0
LWPOLYLINE
  5
A3
330
17
100
AcDbEntity
  8
ROADS
100
AcDbPolyline
 90
2
 70
0
 10
627409.9683071445
 20
4839153.913263159
 10
627314.5149759181
 20
4839123.5827302635
  0
LWPOLYLINE
  5
A4
330
17
100
AcDbEntity
  8
ROADS
100
AcDbPolyline
 90
2
 70
0
 10
627505.3012978343
 20
4839182.4945258135
 10
627409.9683071445
 20
4839153.913263159
  0
LWPOLYLINE
  5
A5
330
17
100
AcDbEntity
  8
ROADS
100
AcDbPolyline
 90
3
 70
0
 10
627657.2982518753
 20
4839144.5618484765
 10
627634.6353579061
 20
4839140.762391677
 10
627600.3981441142
 20
4839210.531498191
  0
LWPOLYLINE
  5
A6
330
17
100
AcDbEntity
  8
ROADS
100
AcDbPolyline
 90
2
 70
0
 10
627704.0925292443
 20
4839203.590859312
 10
627692.0935705748
 20
4839240.737095366
  0
LWPOLYLINE
  5
A7
330
17
100
AcDbEntity
  8
ROADS
100
AcDbPolyline
 90
2
 70
0
 10
627692.0935705748
 20
4839240.737095366
 10
627600.3981441142
 20
4839210.531498191
  0
LWPOLYLINE
  5
A8
330
17
100
AcDbEntity
  8
ROADS
100
AcDbPolyline
 90
2
 70
0
 10
627692.0935705748
 20
4839240.737095366
 10
627664.6597266891
 20
4839324.660170798
  0
LWPOLYLINE
  5
A9
330
17
100
AcDbEntity
  8
ROADS
100
AcDbPolyline
 90
2
 70
0
 10
627808.770082861
 20
4839382.017256883
 10
627807.0305437836
 20
4839387.528580175
  0
LWPOLYLINE
  5
AA
330
17
100
AcDbEntity
  8
ROADS
100
AcDbPolyline
 90
2
 70
0
 10
627600.3981441142
 20
4839210.531498191
 10
627505.3012978343
 20
4839182.4945258135
  0
LWPOLYLINE
  5
AB
330
17
100
AcDbEntity
  8
ROADS
100
AcDbPolyline
 90
2
 70
0
 10
627505.3012978343
 20
4839182.4945258135
 10
627478.3266314093
 20
4839264.19972541
  0
LWPOLYLINE
  5
AC
330
17
100
AcDbEntity
  8
ROADS
100
AcDbPolyline
 90
2
 70
0
 10
627409.9683071445
 20
4839153.913263159
 10
627356.4484812302
 20
4839316.63433367
  0
LWPOLYLINE
  5
AD
330
17
100
AcDbEntity
  8
ROADS
100
AcDbPolyline
 90
2
 70
0
 10
627664.6597266891
 20
4839324.660170798
 10
627478.3266314093
 20
4839264.19972541
  0
LWPOLYLINE
  5
AE
330
17
100
AcDbEntity
  8
ROADS
100
AcDbPolyline
 90
2
 70
0
 10
627478.3266314093
 20
4839264.19972541
 10
627449.3615741262
 20
4839344.978849034
  0
LWPOLYLINE
  5
AF
330
17
100
AcDbEntity
  8
ROADS
100
AcDbPolyline
 90
2
 70
0
 10
627449.3615741262
 20
4839344.978849034
 10
627356.4484812302
 20
4839316.63433367
  0
LWPOLYLINE
  5
B0
330
17
100
AcDbEntity
  8
ROADS
100
AcDbPolyline
 90
2
 70
0
 10
627638.9367513587
 20
4839404.946951113
 10
627449.3615741262
 20
4839344.978849034
  0
LWPOLYLINE
  5
B1
330
17
100
AcDbEntity
  8
ROADS
100
AcDbPolyline
 90
2
 70
0
 10
627449.3615741262
 20
4839344.978849034
 10
627423.6245056703
 20
4839425.271321605
  0
LWPOLYLINE
  5
B2
330
17
100
AcDbEntity
  8
ROADS
100
AcDbPolyline
 90
2
 70
0
 10
627612.5933340355
 20
4839485.448509374
 10
627423.6245056703
 20
4839425.271321605
  0
LWPOLYLINE
  5
B3
330
17
100
AcDbEntity
  8
ROADS
100
AcDbPolyline
 90
2
 70
0
 10
627423.6245056703
 20
4839425.271321605
 10
627395.5224808403
 20
4839510.914335902
  0
LWPOLYLINE
  5
B4
330
17
100
AcDbEntity
  8
ROADS
100
AcDbPolyline
 90
2
 70
0
 10
627356.4484812302
 20
4839316.63433367
 10
627261.1534143825
 20
4839286.3466244405
  0
LWPOLYLINE
  5
B5
330
17
100
AcDbEntity
  8
ROADS
100
AcDbPolyline
 90
2
 70
0
 10
627261.1534143825
 20
4839286.3466244405
 10
627241.2668584044
 20
4839321.910105124
  0
LWPOLYLINE
  5
B6
330
17
100
AcDbEntity
  8
ROADS
100
AcDbPolyline
 90
2
 70
0
 10
627241.2668584044
 20
4839321.910105124
 10
627146.6925571305
 20
4839292.192477645
  0
LWPOLYLINE
  5
B7
330
17
100
AcDbEntity
  8
ROADS
100
AcDbPolyline
 90
2
 70
0
 10
627146.6925571305
 20
4839292.192477645
 10
627083.9655671399
 20
4839485.127710328
  0
LWPOLYLINE
  5
B8
330
17
100
AcDbEntity
  8
ROADS
100
AcDbPolyline
 90
2
 70
0
 10
627241.2668584044
 20
4839321.910105124
 10
627184.5471333384
 20
4839495.2528418675
  0
LWPOLYLINE
  5
B9
330
17
100
AcDbEntity
  8
ROADS
100
AcDbPolyline
 90
2
 70
0
 10
627356.4484812302
 20
4839316.63433367
 10
627284.9450520668
 20
4839526.4209692795
  0
LWPOLYLINE
  5
BA
330
17
100
AcDbEntity
  8
ROADS
100
AcDbPolyline
 90
2
 70
0
 10
627177.4148494371
 20
4839515.117052493
 10
627083.9655671399
 20
4839485.127710328
  0
LWPOLYLINE
  5
BB
330
17
100
AcDbEntity
  8
ROADS
100
AcDbPolyline
 90
2
 70
0
 10
627184.5471333384
 20
4839495.2528418675
 10
627177.4148494371
 20
4839515.117052493
  0
LWPOLYLINE
  5
BC
330
17
100
AcDbEntity
  8
ROADS
100
AcDbPolyline
 90
2
 70
0
 10
627284.9450520668
 20
4839526.4209692795
 10
627184.5471333384
 20
4839495.2528418675
  0
LWPOLYLINE
  5
BD
330
17
100
AcDbEntity
  8
ROADS
100
AcDbPolyline
 90
2
 70
0
 10
627380.534652356
 20
4839556.403057912
 10
627284.9450520668
 20
4839526.4209692795
  0
LWPOLYLINE
  5
BE
330
17
100
AcDbEntity
  8
ROADS
100
AcDbPolyline
 90
2
 70
0
 10
627664.6597266891
 20
4839324.660170798
 10
627659.7322760874
 20
4839338.15639325
  0
LWPOLYLINE
  5
BF
330
17
100
AcDbEntity
  8
ROADS
100
AcDbPolyline
 90
2
 70
0
 10
627721.3674473711
 20
4839361.139297234
 10
627659.7322760874
 20
4839338.15639325
  0
LWPOLYLINE
  5
C0
330
17
100
AcDbEntity
  8
ROADS
100
AcDbPolyline
 90
2
 70
0
 10
627659.7322760874
 20
4839338.15639325
 10
627638.9367513587
 20
4839404.946951113
  0
LWPOLYLINE
  5
C1
330
17
100
AcDbEntity
  8
ROADS
100
AcDbPolyline
 90
2
 70
0
 10
627807.0305437836
 20
4839387.528580175
 10
627721.3674473711
 20
4839361.139297234
  0
LWPOLYLINE
  5
C2
330
17
100
AcDbEntity
  8
ROADS
100
AcDbPolyline
 90
2
 70
0
 10
627638.9367513587
 20
4839404.946951113
 10
627612.5933340355
 20
4839485.448509374
  0
LWPOLYLINE
  5
C3
330
17
100
AcDbEntity
  8
ROADS
100
AcDbPolyline
 90
2
 70
0
 10
627807.0305437836
 20
4839387.528580175
 10
627759.2413182607
 20
4839539.281775568
  0
LWPOLYLINE
  5
C4
330
17
100
AcDbEntity
  8
ROADS
100
AcDbPolyline
 90
2
 70
0
 10
627839.2802842363
 20
4839456.843233437
 10
627759.2413182607
 20
4839539.281775568
  0
LWPOLYLINE
  5
C5
330
17
100
AcDbEntity
  8
ROADS
100
AcDbPolyline
 90
2
 70
0
 10
627721.3674473711
 20
4839361.139297234
 10
627624.5261900795
 20
4839642.905352613
  0
LWPOLYLINE
  5
C6
330
17
100
AcDbEntity
  8
ROADS
100
AcDbPolyline
 90
2
 70
0
 10
627759.2413182607
 20
4839539.281775568
 10
627624.5261900795
 20
4839642.905352613
  0
LWPOLYLINE
  5
C7
330
17
100
AcDbEntity
  8
ROADS
100
AcDbPolyline
 90
2
 70
0
 10
627866.7714050269
 20
4839545.647291302
 10
627824.9930157795
 20
4839677.0640363805
  0
LWPOLYLINE
  5
C8
330
17
100
AcDbEntity
  8
ROADS
100
AcDbPolyline
 90
2
 70
0
 10
627488.8969700813
 20
4839541.836417321
 10
627395.5224808403
 20
4839510.914335902
  0
LWPOLYLINE
  5
C9
330
17
100
AcDbEntity
  8
ROADS
100
AcDbPolyline
 90
2
 70
0
 10
627612.5933340355
 20
4839485.448509374
 10
627583.7927813268
 20
4839572.692032141
  0
LWPOLYLINE
  5
CA
330
17
100
AcDbEntity
  8
ROADS
100
AcDbPolyline
 90
2
 70
0
 10
627395.5224808403
 20
4839510.914335902
 10
627380.534652356
 20
4839556.403057912
  0
LWPOLYLINE
  5
CB
330
17
100
AcDbEntity
  8
ROADS
100
AcDbPolyline
 90
2
 70
0
 10
627583.7927813268
 20
4839572.692032141
 10
627488.8969700813
 20
4839541.836417321
  0
LWPOLYLINE
  5
CC
330
17
100
AcDbEntity
  8
ROADS
100
AcDbPolyline
 90
3
 70
0
 10
627488.8969700813
 20
4839541.836417321
 10
627434.7846974012
 20
4839591.85666975
 10
627375.2679112873
 20
4839593.35209703
  0
LWPOLYLINE
  5
CD
330
17
100
AcDbEntity
  8
ROADS
100
AcDbPolyline
 90
2
 70
0
 10
627380.534652356
 20
4839556.403057912
 10
627375.2679112873
 20
4839593.35209703
  0
LWPOLYLINE
  5
CE
330
17
100
AcDbEntity
  8
ROADS
100
AcDbPolyline
 90
2
 70
0
 10
627583.7927813268
 20
4839572.692032141
 10
627556.5790619629
 20
4839659.25820383
  0
LWPOLYLINE
  5
CF
330
17
100
AcDbEntity
  8
ROADS
100
AcDbPolyline
 90
2
 70
0
 10
627624.5261900795
 20
4839642.905352613
 10
627556.5790619629
 20
4839659.25820383
  0
LWPOLYLINE
  5
D0
330
17
100
AcDbEntity
  8
ROADS
100
AcDbPolyline
 90
2
 70
0
 10
627375.2679112873
 20
4839593.35209703
 10
627339.9399808114
 20
4839734.516838745
  0
LWPOLYLINE
  5
D1
330
17
100
AcDbEntity
  8
ROADS
100
AcDbPolyline
 90
2
 70
0
 10
627556.5790619629
 20
4839659.25820383
 10
627438.2761137949
 20
4839690.407022212
  0
LWPOLYLINE
  5
D2
330
17
100
AcDbEntity
  8
ROADS
100
AcDbPolyline
 90
3
 70
0
 10
627888.6796981446
 20
4839656.696839575
 10
627852.6612537849
 20
4839678.309644612
 10
627824.9930157795
 20
4839677.0640363805
  0
LWPOLYLINE
  5
D3
330
17
100
AcDbEntity
  8
ROADS
100
AcDbPolyline
 90
2
 70
0
 10
627897.8599724364
 20
4839763.052213214
 10
627780.1854111683
 20
4839818.891507078
  0
LWPOLYLINE
  5
D4
330
17
100
AcDbEntity
  8
ROADS
100
AcDbPolyline
 90
2
 70
0
 10
627898.074416761
 20
4839830.381031402
 10
627750.3300855838
 20
4839897.241397337
  0
LWPOLYLINE
  5
D5
330
17
100
AcDbEntity
  8
ROADS
100
AcDbPolyline
 90
2
 70
0
 10
627177.4148494371
 20
4839515.117052493
 10
627128.399024057
 20
4839674.363219335
  0
LWPOLYLINE
  5
D6
330
17
100
AcDbEntity
  8
ROADS
100
AcDbPolyline
 90
2
 70
0
 10
627284.9450520668
 20
4839526.4209692795
 10
627217.8055181217
 20
4839700.844264017
  0
LWPOLYLINE
  5
D7
330
17
100
AcDbEntity
  8
ROADS
100
AcDbPolyline
 90
2
 70
0
 10
627217.8055181217
 20
4839700.844264017
 10
627128.399024057
 20
4839674.363219335
  0
LWPOLYLINE
  5
D8
330
17
100
AcDbEntity
  8
ROADS
100
AcDbPolyline
 90
2
 70
0
 10
627128.399024057
 20
4839674.363219335
 10
627115.021440298
 20
4839708.898350487
  0
LWPOLYLINE
  5
D9
330
17
100
AcDbEntity
  8
ROADS
100
AcDbPolyline
 90
2
 70
0
 10
627320.8567091788
 20
4839743.586678483
 10
627217.8055181217
 20
4839700.844264017
  0
LWPOLYLINE
  5
DA
330
17
100
AcDbEntity
  8
ROADS
100
AcDbPolyline
 90
2
 70
0
 10
627339.9399808114
 20
4839734.516838745
 10
627320.8567091788
 20
4839743.586678483
  0
LWPOLYLINE
  5
DB
330
17
100
AcDbEntity
  8
ROADS
100
AcDbPolyline
 90
2
 70
0
 10
627320.8567091788
 20
4839743.586678483
 10
627300.4306019377
 20
4839753.527278817
  0
LWPOLYLINE
  5
DC
330
17
100
AcDbEntity
  8
ROADS
100
AcDbPolyline
 90
3
 70
0
 10
627300.4306019377
 20
4839753.527278817
 10
627306.5817070552
 20
4839775.92995511
 10
627284.6356606977
 20
4839835.942680052
  0
LWPOLYLINE
  5
DD
330
17
100
AcDbEntity
  8
ROADS
100
AcDbPolyline
 90
3
 70
0
 10
627300.4306019377
 20
4839753.527278817
 10
627172.8242134353
 20
4839829.115490629
 10
627056.1864860447
 20
4839929.027580515
  0
LWPOLYLINE
  5
DE
330
17
100
AcDbEntity
  8
ROADS
100
AcDbPolyline
 90
2
 70
0
 10
627381.3343442829
 20
4839864.982862442
 10
627284.6356606977
 20
4839835.942680052
  0
LWPOLYLINE
  5
DF
330
17
100
AcDbEntity
  8
ROADS
100
AcDbPolyline
 90
2
 70
0
 10
627812.1933389961
 20
4839715.1979241995
 10
627624.5261900795
 20
4839642.905352613
  0
LWPOLYLINE
  5
E0
330
17
100
AcDbEntity
  8
ROADS
100
AcDbPolyline
 90
2
 70
0
 10
627824.9930157795
 20
4839677.0640363805
 10
627812.1933389961
 20
4839715.1979241995
  0
LWPOLYLINE
  5
E1
330
17
100
AcDbEntity
  8
ROADS
100
AcDbPolyline
 90
2
 70
0
 10
627674.7675615433
 20
4839786.948885212
 10
627527.0303383187
 20
4839743.852995864
  0
LWPOLYLINE
  5
E2
330
17
100
AcDbEntity
  8
ROADS
100
AcDbPolyline
 90
2
 70
0
 10
627812.1933389961
 20
4839715.1979241995
 10
627780.1854111683
 20
4839818.891507078
  0
LWPOLYLINE
  5
E3
330
17
100
AcDbEntity
  8
ROADS
100
AcDbPolyline
 90
2
 70
0
 10
627780.1854111683
 20
4839818.891507078
 10
627674.7675615433
 20
4839786.948885212
  0
LWPOLYLINE
  5
E4
330
17
100
AcDbEntity
  8
ROADS
100
AcDbPolyline
 90
2
 70
0
 10
627780.1854111683
 20
4839818.891507078
 10
627750.3300855838
 20
4839897.241397337
  0
LWPOLYLINE
  5
E5
330
17
100
AcDbEntity
  8
ROADS
100
AcDbPolyline
 90
2
 70
0
 10
627736.4215104503
 20
4839967.203236049
 10
627750.3300855838
 20
4839897.241397337
  0
LWPOLYLINE
  5
E6
330
17
100
AcDbEntity
  8
ROADS
100
AcDbPolyline
 90
2
 70
0
 10
627816.0439514829
 20
4839930.038326197
 10
627736.4215104503
 20
4839967.203236049
  0
LWPOLYLINE
  5
E7
330
17
100
AcDbEntity
  8
ROADS
100
AcDbPolyline
 90
2
 70
0
 10
627736.4215104503
 20
4839967.203236049
 10
627712.7725783655
 20
4839978.337106638
  0
LWPOLYLINE
  5
E8
330
17
100
AcDbEntity
  8
ROADS
100
AcDbPolyline
 90
2
 70
0
 10
627712.7725783655
 20
4839978.337106638
 10
627577.2896226337
 20
4840042.531109569
  0
LWPOLYLINE
  5
E9
330
17
100
AcDbEntity
  8
ROADS
100
AcDbPolyline
 90
2
 70
0
 10
625273.9457194416
 20
4839085.038748809
 10
625279.2589646905
 20
4839105.731397931
  0
LWPOLYLINE
  5
EA
330
17
100
AcDbEntity
  8
ROADS
100
AcDbPolyline
 90
2
 70
0
 10
625266.0457243319
 20
4839097.899942667
 10
625279.2589646905
 20
4839105.731397931
  0
LWPOLYLINE
  5
EB
330
17
100
AcDbEntity
  8
ROADS
100
AcDbPolyline
 90
2
 70
0
 10
625260.7917765168
 20
4839107.246097546
 10
625267.0895728425
 20
4839123.43326582
  0
LWPOLYLINE
  5
EC
330
17
100
AcDbEntity
  8
ROADS
100
AcDbPolyline
 90
2
 70
0
 10
625279.2589646905
 20
4839105.731397931
 10
625267.0895728425
 20
4839123.43326582
  0
LWPOLYLINE
  5
ED
330
17
100
AcDbEntity
  8
ROADS
100
AcDbPolyline
 90
2
 70
0
 10
625364.4384931932
 20
4839111.386012834
 10
625333.1442201382
 20
4839208.157909115
  0
LWPOLYLINE
  5
EE
330
17
100
AcDbEntity
  8
ROADS
100
AcDbPolyline
 90
3
 70
0
 10
625267.0895728425
 20
4839123.43326582
 10
625296.0151213456
 20
4839195.332553443
 10
625333.1442201382
 20
4839208.157909115
  0
LWPOLYLINE
  5
EF
330
17
100
AcDbEntity
  8
ROADS
100
AcDbPolyline
 90
2
 70
0
 10
625565.0446100794
 20
4839176.276950901
 10
625526.448676437
 20
4839164.072092305
  0
LWPOLYLINE
  5
F0
330
17
100
AcDbEntity
  8
ROADS
100
AcDbPolyline
 90
2
 70
0
 10
625526.448676437
 20
4839164.072092305
 10
625512.252333115
 20
4839208.437827818
  0
LWPOLYLINE
  5
F1
330
17
100
AcDbEntity
  8
ROADS
100
AcDbPolyline
 90
2
 70
0
 10
625565.0446100794
 20
4839176.276950901
 10
625535.4156439605
 20
4839264.27302213
  0
LWPOLYLINE
  5
F2
330
17
100
AcDbEntity
  8
ROADS
100
AcDbPolyline
 90
2
 70
0
 10
625535.4156439605
 20
4839264.27302213
 10
625333.1442201382
 20
4839208.157909115
  0
LWPOLYLINE
  5
F3
330
17
100
AcDbEntity
  8
ROADS
100
AcDbPolyline
 90
2
 70
0
 10
625333.1442201382
 20
4839208.157909115
 10
625306.0516096983
 20
4839291.858555097
  0
LWPOLYLINE
  5
F4
330
17
100
AcDbEntity
  8
ROADS
100
AcDbPolyline
 90
2
 70
0
 10
625535.4156439605
 20
4839264.27302213
 10
625511.1574538673
 20
4839343.424728036
  0
LWPOLYLINE
  5
F5
330
17
100
AcDbEntity
  8
ROADS
100
AcDbPolyline
 90
2
 70
0
 10
625507.7153989729
 20
4839354.086071548
 10
625306.0516096983
 20
4839291.858555097
  0
LWPOLYLINE
  5
F6
330
17
100
AcDbEntity
  8
ROADS
100
AcDbPolyline
 90
2
 70
0
 10
625511.1574538673
 20
4839343.424728036
 10
625507.7153989729
 20
4839354.086071548
  0
LWPOLYLINE
  5
F7
330
17
100
AcDbEntity
  8
ROADS
100
AcDbPolyline
 90
2
 70
0
 10
625793.9309046249
 20
4838883.350306839
 10
625759.1361518425
 20
4838875.098458716
  0
LWPOLYLINE
  5
F8
330
17
100
AcDbEntity
  8
ROADS
100
AcDbPolyline
 90
2
 70
0
 10
625912.2951288511
 20
4838776.243051508
 10
625842.3923196536
 20
4838998.916590765
  0
LWPOLYLINE
  5
F9
330
17
100
AcDbEntity
  8
ROADS
100
AcDbPolyline
 90
2
 70
0
 10
625665.4442811924
 20
4838875.400769654
 10
625648.0832927953
 20
4838918.688230373
  0
LWPOLYLINE
  5
FA
330
17
100
AcDbEntity
  8
ROADS
100
AcDbPolyline
 90
2
 70
0
 10
625697.3504683636
 20
4838880.578189843
 10
625648.0832927953
 20
4838918.688230373
  0
LWPOLYLINE
  5
FB
330
17
100
AcDbEntity
  8
ROADS
100
AcDbPolyline
 90
2
 70
0
 10
625793.9309046249
 20
4838883.350306839
 10
625765.3639956429
 20
4838972.206723442
  0
LWPOLYLINE
  5
FC
330
17
100
AcDbEntity
  8
ROADS
100
AcDbPolyline
 90
2
 70
0
 10
625648.0832927953
 20
4838918.688230373
 10
625641.454787974
 20
4838937.215396989
  0
LWPOLYLINE
  5
FD
330
17
100
AcDbEntity
  8
ROADS
100
AcDbPolyline
 90
2
 70
0
 10
625765.3639956429
 20
4838972.206723442
 10
625641.454787974
 20
4838937.215396989
  0
LWPOLYLINE
  5
FE
330
17
100
AcDbEntity
  8
ROADS
100
AcDbPolyline
 90
2
 70
0
 10
625641.454787974
 20
4838937.215396989
 10
625616.3369482427
 20
4839011.760336121
  0
LWPOLYLINE
  5
FF
330
17
100
AcDbEntity
  8
ROADS
100
AcDbPolyline
 90
2
 70
0
 10
625842.3923196536
 20
4838998.916590765
 10
625765.3639956429
 20
4838972.206723442
  0
LWPOLYLINE
  5
100
330
17
100
AcDbEntity
  8
ROADS
100
AcDbPolyline
 90
2
 70
0
 10
625939.7046154327
 20
4839023.151232692
 10
625842.3923196536
 20
4838998.916590765
  0
LWPOLYLINE
  5
101
330
17
100
AcDbEntity
  8
ROADS
100
AcDbPolyline
 90
2
 70
0
 10
625997.260925511
 20
4838908.881654321
 10
626002.3641275571
 20
4838927.739065559
  0
LWPOLYLINE
  5
102
330
17
100
AcDbEntity
  8
ROADS
100
AcDbPolyline
 90
2
 70
0
 10
626010.544063287
 20
4838915.772325421
 10
626002.3641275571
 20
4838927.739065559
  0
LWPOLYLINE
  5
103
330
17
100
AcDbEntity
  8
ROADS
100
AcDbPolyline
 90
2
 70
0
 10
626010.544063287
 20
4838915.772325421
 10
626059.8833670579
 20
4838933.274811416
  0
LWPOLYLINE
  5
104
330
17
100
AcDbEntity
  8
ROADS
100
AcDbPolyline
 90
2
 70
0
 10
626233.0739734492
 20
4838945.36023945
 10
626135.8027900378
 20
4838915.973040493
  0
LWPOLYLINE
  5
105
330
17
100
AcDbEntity
  8
ROADS
100
AcDbPolyline
 90
2
 70
0
 10
625977.1623734199
 20
4838898.619508448
 10
625954.0296310319
 20
4838975.486567918
  0
LWPOLYLINE
  5
106
330
17
100
AcDbEntity
  8
ROADS
100
AcDbPolyline
 90
2
 70
0
 10
626002.3641275571
 20
4838927.739065559
 10
626007.7925775475
 20
4838960.073149557
  0
LWPOLYLINE
  5
107
330
17
100
AcDbEntity
  8
ROADS
100
AcDbPolyline
 90
2
 70
0
 10
626059.8833670579
 20
4838933.274811416
 10
626042.9163536018
 20
4838954.726166096
  0
LWPOLYLINE
  5
108
330
17
100
AcDbEntity
  8
ROADS
100
AcDbPolyline
 90
2
 70
0
 10
626042.9163536018
 20
4838954.726166096
 10
626007.7925775475
 20
4838960.073149557
  0
LWPOLYLINE
  5
109
330
17
100
AcDbEntity
  8
ROADS
100
AcDbPolyline
 90
2
 70
0
 10
626007.7925775475
 20
4838960.073149557
 10
625954.0296310319
 20
4838975.486567918
  0
LWPOLYLINE
  5
10A
330
17
100
AcDbEntity
  8
ROADS
100
AcDbPolyline
 90
2
 70
0
 10
626042.9163536018
 20
4838954.726166096
 10
626015.527879142
 20
4838988.331723248
  0
LWPOLYLINE
  5
10B
330
17
100
AcDbEntity
  8
ROADS
100
AcDbPolyline
 90
3
 70
0
 10
625446.9089801025
 20
4838964.397944433
 10
625422.1988750933
 20
4838912.801048248
 10
625405.8058026385
 20
4838906.551693575
  0
LWPOLYLINE
  5
10C
330
17
100
AcDbEntity
  8
ROADS
100
AcDbPolyline
 90
2
 70
0
 10
625648.0832927953
 20
4838918.688230373
 10
625549.7930666052
 20
4838973.065444557
  0
LWPOLYLINE
  5
10D
330
17
100
AcDbEntity
  8
ROADS
100
AcDbPolyline
 90
2
 70
0
 10
625531.00935558
 20
4838928.265118289
 10
625446.9089801025
 20
4838964.397944433
  0
LWPOLYLINE
  5
10E
330
17
100
AcDbEntity
  8
ROADS
100
AcDbPolyline
 90
2
 70
0
 10
625549.7930666052
 20
4838973.065444557
 10
625531.00935558
 20
4838928.265118289
  0
LWPOLYLINE
  5
10F
330
17
100
AcDbEntity
  8
ROADS
100
AcDbPolyline
 90
2
 70
0
 10
625464.6058365641
 20
4839007.97003219
 10
625446.9089801025
 20
4838964.397944433
  0
LWPOLYLINE
  5
110
330
17
100
AcDbEntity
  8
ROADS
100
AcDbPolyline
 90
2
 70
0
 10
625549.7930666052
 20
4838973.065444557
 10
625464.6058365641
 20
4839007.97003219
  0
LWPOLYLINE
  5
111
330
17
100
AcDbEntity
  8
ROADS
100
AcDbPolyline
 90
2
 70
0
 10
625370.6464583018
 20
4838945.1596550215
 10
625343.6813508515
 20
4839058.423044487
  0
LWPOLYLINE
  5
112
330
17
100
AcDbEntity
  8
ROADS
100
AcDbPolyline
 90
2
 70
0
 10
625464.6058365641
 20
4839007.97003219
 10
625449.6690751804
 20
4839013.327653472
  0
LWPOLYLINE
  5
113
330
17
100
AcDbEntity
  8
ROADS
100
AcDbPolyline
 90
2
 70
0
 10
625449.6690751804
 20
4839013.327653472
 10
625343.6813508515
 20
4839058.423044487
  0
LWPOLYLINE
  5
114
330
17
100
AcDbEntity
  8
ROADS
100
AcDbPolyline
 90
2
 70
0
 10
626007.7925775475
 20
4838960.073149557
 10
626015.527879142
 20
4838988.331723248
  0
LWPOLYLINE
  5
115
330
17
100
AcDbEntity
  8
ROADS
100
AcDbPolyline
 90
2
 70
0
 10
625954.0296310319
 20
4838975.486567918
 10
625939.7046154327
 20
4839023.151232692
  0
LWPOLYLINE
  5
116
330
17
100
AcDbEntity
  8
ROADS
100
AcDbPolyline
 90
2
 70
0
 10
626015.527879142
 20
4838988.331723248
 10
625990.864744451
 20
4839039.341590389
  0
LWPOLYLINE
  5
117
330
17
100
AcDbEntity
  8
ROADS
100
AcDbPolyline
 90
2
 70
0
 10
625990.864744451
 20
4839039.341590389
 10
625939.7046154327
 20
4839023.151232692
  0
LWPOLYLINE
  5
118
330
17
100
AcDbEntity
  8
ROADS
100
AcDbPolyline
 90
2
 70
0
 10
626135.8027900378
 20
4838915.973040493
 10
626057.3820200321
 20
4839170.5624945415
  0
LWPOLYLINE
  5
119
330
17
100
AcDbEntity
  8
ROADS
100
AcDbPolyline
 90
4
 70
0
 10
626233.0739734492
 20
4838945.36023945
 10
626172.4586268278
 20
4839128.280612159
 10
626104.2237139622
 20
4839177.3102083765
 10
626057.3820200321
 20
4839170.5624945415
  0
LWPOLYLINE
  5
11A
330
17
100
AcDbEntity
  8
ROADS
100
AcDbPolyline
 90
2
 70
0
 10
625990.864744451
 20
4839039.341590389
 10
625937.9495929768
 20
4839211.495475919
  0
LWPOLYLINE
  5
11B
330
17
100
AcDbEntity
  8
ROADS
100
AcDbPolyline
 90
2
 70
0
 10
626057.3820200321
 20
4839170.5624945415
 10
626034.5272026302
 20
4839243.008322984
  0
LWPOLYLINE
  5
11C
330
17
100
AcDbEntity
  8
ROADS
100
AcDbPolyline
 90
2
 70
0
 10
626034.5272026302
 20
4839243.008322984
 10
625937.9495929768
 20
4839211.495475919
  0
LWPOLYLINE
  5
11D
330
17
100
AcDbEntity
  8
ROADS
100
AcDbPolyline
 90
2
 70
0
 10
626131.622548779
 20
4839270.11629362
 10
626034.5272026302
 20
4839243.008322984
  0
LWPOLYLINE
  5
11E
330
17
100
AcDbEntity
  8
ROADS
100
AcDbPolyline
 90
2
 70
0
 10
625616.3369482427
 20
4839011.760336121
 10
625591.6093842414
 20
4839088.833468859
  0
LWPOLYLINE
  5
11F
330
17
100
AcDbEntity
  8
ROADS
100
AcDbPolyline
 90
3
 70
0
 10
625591.6093842414
 20
4839088.833468859
 10
625471.1459181743
 20
4839049.725210452
 10
625449.6690751804
 20
4839013.327653472
  0
LWPOLYLINE
  5
120
330
17
100
AcDbEntity
  8
ROADS
100
AcDbPolyline
 90
2
 70
0
 10
625343.6813508515
 20
4839058.423044487
 10
625274.8804543116
 20
4839083.517000225
  0
LWPOLYLINE
  5
121
330
17
100
AcDbEntity
  8
ROADS
100
AcDbPolyline
 90
2
 70
0
 10
625343.6813508515
 20
4839058.423044487
 10
625359.5576338383
 20
4839096.989408718
  0
LWPOLYLINE
  5
122
330
17
100
AcDbEntity
  8
ROADS
100
AcDbPolyline
 90
2
 70
0
 10
625359.5576338383
 20
4839096.989408718
 10
625391.7974973007
 20
4839084.382872894
  0
LWPOLYLINE
  5
123
330
17
100
AcDbEntity
  8
ROADS
100
AcDbPolyline
 90
2
 70
0
 10
625359.5576338383
 20
4839096.989408718
 10
625364.4384931932
 20
4839111.386012834
  0
LWPOLYLINE
  5
124
330
17
100
AcDbEntity
  8
ROADS
100
AcDbPolyline
 90
2
 70
0
 10
625359.5576338383
 20
4839096.989408718
 10
625319.5782687324
 20
4839112.032081443
  0
LWPOLYLINE
  5
125
330
17
100
AcDbEntity
  8
ROADS
100
AcDbPolyline
 90
2
 70
0
 10
625591.6093842414
 20
4839088.833468859
 10
625565.0446100794
 20
4839176.276950901
  0
LWPOLYLINE
  5
126
330
17
100
AcDbEntity
  8
ROADS
100
AcDbPolyline
 90
2
 70
0
 10
625526.448676437
 20
4839164.072092305
 10
625364.4384931932
 20
4839111.386012834
  0
LWPOLYLINE
  5
127
330
17
100
AcDbEntity
  8
ROADS
100
AcDbPolyline
 90
2
 70
0
 10
625526.448676437
 20
4839164.072092305
 10
625540.6573548828
 20
4839119.68757519
  0
LWPOLYLINE
  5
128
330
17
100
AcDbEntity
  8
ROADS
100
AcDbPolyline
 90
2
 70
0
 10
626409.5792384103
 20
4838921.1584671745
 10
626391.9797551923
 20
4838924.278310653
  0
LWPOLYLINE
  5
129
330
17
100
AcDbEntity
  8
ROADS
100
AcDbPolyline
 90
5
 70
0
 10
626381.2110537341
 20
4838886.964298388
 10
626322.4582519219
 20
4838921.257612297
 10
626321.1717752549
 20
4838947.539905421
 10
626289.5554898721
 20
4838962.046882993
 10
626233.0739734492
 20
4838945.36023945
  0
LWPOLYLINE
  5
12A
330
17
100
AcDbEntity
  8
ROADS
100
AcDbPolyline
 90
2
 70
0
 10
626409.5792384103
 20
4838921.1584671745
 10
626424.8544643023
 20
4838949.170442959
  0
LWPOLYLINE
  5
12B
330
17
100
AcDbEntity
  8
ROADS
100
AcDbPolyline
 90
2
 70
0
 10
626429.2327756983
 20
4838960.169296737
 10
626424.8544643023
 20
4838949.170442959
  0
LWPOLYLINE
  5
12C
330
17
100
AcDbEntity
  8
ROADS
100
AcDbPolyline
 90
2
 70
0
 10
626448.2197698201
 20
4838989.42249016
 10
626429.2327756983
 20
4838960.169296737
  0
LWPOLYLINE
  5
12D
330
17
100
AcDbEntity
  8
ROADS
100
AcDbPolyline
 90
3
 70
0
 10
626429.2327756983
 20
4838960.169296737
 10
626427.2782161485
 20
4838984.629404618
 10
626448.2197698201
 20
4838989.42249016
  0
LWPOLYLINE
  5
12E
330
17
100
AcDbEntity
  8
ROADS
100
AcDbPolyline
 90
2
 70
0
 10
626548.8587683222
 20
4839098.33343893
 10
626448.2197698201
 20
4838989.42249016
  0
LWPOLYLINE
  5
12F
330
17
100
AcDbEntity
  8
ROADS
100
AcDbPolyline
 90
5
 70
0
 10
626131.622548779
 20
4839270.11629362
 10
626148.4318638981
 20
4839230.185006239
 10
626271.308702055
 20
4839132.911967327
 10
626296.0567195797
 20
4839056.8121087765
 10
626424.8544643023
 20
4838949.170442959
  0
LWPOLYLINE
  5
130
330
17
100
AcDbEntity
  8
ROADS
100
AcDbPolyline
 90
2
 70
0
 10
626487.2591354166
 20
4839139.349641325
 10
626393.7855394135
 20
4839199.165384265
  0
LWPOLYLINE
  5
131
330
17
100
AcDbEntity
  8
ROADS
100
AcDbPolyline
 90
3
 70
0
 10
626393.7855394135
 20
4839199.165384265
 10
626258.3349890964
 20
4839286.4823952755
 10
626249.7316836463
 20
4839305.598400899
  0
LWPOLYLINE
  5
132
330
17
100
AcDbEntity
  8
ROADS
100
AcDbPolyline
 90
2
 70
0
 10
625842.3923196536
 20
4838998.916590765
 10
625817.8004195823
 20
4839076.837279631
  0
LWPOLYLINE
  5
133
330
17
100
AcDbEntity
  8
ROADS
100
AcDbPolyline
 90
2
 70
0
 10
625817.8004195823
 20
4839076.837279631
 10
625616.3369482427
 20
4839011.760336121
  0
LWPOLYLINE
  5
134
330
17
100
AcDbEntity
  8
ROADS
100
AcDbPolyline
 90
2
 70
0
 10
625939.7046154327
 20
4839023.151232692
 10
625896.4835732938
 20
4839160.72443785
  0
LWPOLYLINE
  5
135
330
17
100
AcDbEntity
  8
ROADS
100
AcDbPolyline
 90
2
 70
0
 10
625817.8004195823
 20
4839076.837279631
 10
625802.2628405527
 20
4839129.725289727
  0
LWPOLYLINE
  5
136
330
17
100
AcDbEntity
  8
ROADS
100
AcDbPolyline
 90
2
 70
0
 10
625792.894186188
 20
4839155.327304402
 10
625591.6093842414
 20
4839088.833468859
  0
LWPOLYLINE
  5
137
330
17
100
AcDbEntity
  8
ROADS
100
AcDbPolyline
 90
2
 70
0
 10
625802.2628405527
 20
4839129.725289727
 10
625792.894186188
 20
4839155.327304402
  0
LWPOLYLINE
  5
138
330
17
100
AcDbEntity
  8
ROADS
100
AcDbPolyline
 90
2
 70
0
 10
625896.4835732938
 20
4839160.72443785
 10
625802.2628405527
 20
4839129.725289727
  0
LWPOLYLINE
  5
139
330
17
100
AcDbEntity
  8
ROADS
100
AcDbPolyline
 90
2
 70
0
 10
625896.4835732938
 20
4839160.72443785
 10
625886.6327126316
 20
4839195.789286992
  0
LWPOLYLINE
  5
13A
330
17
100
AcDbEntity
  8
ROADS
100
AcDbPolyline
 90
2
 70
0
 10
625792.894186188
 20
4839155.327304402
 10
625773.1737116369
 20
4839220.910376977
  0
LWPOLYLINE
  5
13B
330
17
100
AcDbEntity
  8
ROADS
100
AcDbPolyline
 90
2
 70
0
 10
625937.9495929768
 20
4839211.495475919
 10
625886.6327126316
 20
4839195.789286992
  0
LWPOLYLINE
  5
13C
330
17
100
AcDbEntity
  8
ROADS
100
AcDbPolyline
 90
2
 70
0
 10
625767.631310692
 20
4839237.444076266
 10
625565.0446100794
 20
4839176.276950901
  0
LWPOLYLINE
  5
13D
330
17
100
AcDbEntity
  8
ROADS
100
AcDbPolyline
 90
2
 70
0
 10
625886.6327126316
 20
4839195.789286992
 10
625868.6305703453
 20
4839250.965853906
  0
LWPOLYLINE
  5
13E
330
17
100
AcDbEntity
  8
ROADS
100
AcDbPolyline
 90
2
 70
0
 10
625773.1737116369
 20
4839220.910376977
 10
625767.631310692
 20
4839237.444076266
  0
LWPOLYLINE
  5
13F
330
17
100
AcDbEntity
  8
ROADS
100
AcDbPolyline
 90
2
 70
0
 10
625868.6305703453
 20
4839250.965853906
 10
625773.1737116369
 20
4839220.910376977
  0
LWPOLYLINE
  5
140
330
17
100
AcDbEntity
  8
ROADS
100
AcDbPolyline
 90
2
 70
0
 10
625767.631310692
 20
4839237.444076266
 10
625743.4660709364
 20
4839313.060316093
  0
LWPOLYLINE
  5
141
330
17
100
AcDbEntity
  8
ROADS
100
AcDbPolyline
 90
2
 70
0
 10
625937.9495929768
 20
4839211.495475919
 10
625888.903682117
 20
4839367.944387372
  0
LWPOLYLINE
  5
142
330
17
100
AcDbEntity
  8
ROADS
100
AcDbPolyline
 90
2
 70
0
 10
625739.756336988
 20
4839324.863891138
 10
625535.4156439605
 20
4839264.27302213
  0
LWPOLYLINE
  5
143
330
17
100
AcDbEntity
  8
ROADS
100
AcDbPolyline
 90
2
 70
0
 10
625868.6305703453
 20
4839250.965853906
 10
625838.7937915758
 20
4839347.378728274
  0
LWPOLYLINE
  5
144
330
17
100
AcDbEntity
  8
ROADS
100
AcDbPolyline
 90
2
 70
0
 10
625743.4660709364
 20
4839313.060316093
 10
625739.756336988
 20
4839324.863891138
  0
LWPOLYLINE
  5
145
330
17
100
AcDbEntity
  8
ROADS
100
AcDbPolyline
 90
2
 70
0
 10
625838.7937915758
 20
4839347.378728274
 10
625743.4660709364
 20
4839313.060316093
  0
LWPOLYLINE
  5
146
330
17
100
AcDbEntity
  8
ROADS
100
AcDbPolyline
 90
2
 70
0
 10
626227.4049883686
 20
4839299.261650526
 10
626131.622548779
 20
4839270.11629362
  0
LWPOLYLINE
  5
147
330
17
100
AcDbEntity
  8
ROADS
100
AcDbPolyline
 90
2
 70
0
 10
626034.5272026302
 20
4839243.008322984
 10
625983.6280768787
 20
4839398.300683652
  0
LWPOLYLINE
  5
148
330
17
100
AcDbEntity
  8
ROADS
100
AcDbPolyline
 90
2
 70
0
 10
626227.4049883686
 20
4839299.261650526
 10
626200.3871985707
 20
4839393.028462205
  0
LWPOLYLINE
  5
149
330
17
100
AcDbEntity
  8
ROADS
100
AcDbPolyline
 90
2
 70
0
 10
626131.622548779
 20
4839270.11629362
 10
626079.51688155
 20
4839428.363043189
  0
LWPOLYLINE
  5
14A
330
17
100
AcDbEntity
  8
ROADS
100
AcDbPolyline
 90
2
 70
0
 10
625983.6280768787
 20
4839398.300683652
 10
625888.903682117
 20
4839367.944387372
  0
LWPOLYLINE
  5
14B
330
17
100
AcDbEntity
  8
ROADS
100
AcDbPolyline
 90
2
 70
0
 10
626079.51688155
 20
4839428.363043189
 10
625983.6280768787
 20
4839398.300683652
  0
LWPOLYLINE
  5
14C
330
17
100
AcDbEntity
  8
ROADS
100
AcDbPolyline
 90
2
 70
0
 10
626200.3871985707
 20
4839393.028462205
 10
626178.5863239901
 20
4839459.009991058
  0
LWPOLYLINE
  5
14D
330
17
100
AcDbEntity
  8
ROADS
100
AcDbPolyline
 90
2
 70
0
 10
626178.5863239901
 20
4839459.009991058
 10
626079.51688155
 20
4839428.363043189
  0
LWPOLYLINE
  5
14E
330
17
100
AcDbEntity
  8
ROADS
100
AcDbPolyline
 90
2
 70
0
 10
626079.51688155
 20
4839428.363043189
 10
626049.1619278468
 20
4839531.689995542
  0
LWPOLYLINE
  5
14F
330
17
100
AcDbEntity
  8
ROADS
100
AcDbPolyline
 90
2
 70
0
 10
625983.6280768787
 20
4839398.300683652
 10
625926.249478936
 20
4839573.577949965
  0
LWPOLYLINE
  5
150
330
17
100
AcDbEntity
  8
ROADS
100
AcDbPolyline
 90
2
 70
0
 10
625888.903682117
 20
4839367.944387372
 10
625838.7937915758
 20
4839347.378728274
  0
LWPOLYLINE
  5
151
330
17
100
AcDbEntity
  8
ROADS
100
AcDbPolyline
 90
2
 70
0
 10
625739.756336988
 20
4839324.863891138
 10
625715.0714784057
 20
4839406.703078035
  0
LWPOLYLINE
  5
152
330
17
100
AcDbEntity
  8
ROADS
100
AcDbPolyline
 90
2
 70
0
 10
625715.0714784057
 20
4839406.703078035
 10
625511.1574538673
 20
4839343.424728036
  0
LWPOLYLINE
  5
153
330
17
100
AcDbEntity
  8
ROADS
100
AcDbPolyline
 90
2
 70
0
 10
625838.7937915758
 20
4839347.378728274
 10
625809.5847808219
 20
4839434.794420511
  0
LWPOLYLINE
  5
154
330
17
100
AcDbEntity
  8
ROADS
100
AcDbPolyline
 90
2
 70
0
 10
625809.5847808219
 20
4839434.794420511
 10
625715.0714784057
 20
4839406.703078035
  0
LWPOLYLINE
  5
155
330
17
100
AcDbEntity
  8
ROADS
100
AcDbPolyline
 90
2
 70
0
 10
625715.0714784057
 20
4839406.703078035
 10
625684.6988892406
 20
4839496.136800234
  0
LWPOLYLINE
  5
156
330
17
100
AcDbEntity
  8
ROADS
100
AcDbPolyline
 90
2
 70
0
 10
625888.903682117
 20
4839367.944387372
 10
625837.6217499508
 20
4839545.362022302
  0
LWPOLYLINE
  5
157
330
17
100
AcDbEntity
  8
ROADS
100
AcDbPolyline
 90
2
 70
0
 10
625809.5847808219
 20
4839434.794420511
 10
625796.2537984761
 20
4839482.236015283
  0
LWPOLYLINE
  5
158
330
17
100
AcDbEntity
  8
ROADS
100
AcDbPolyline
 90
2
 70
0
 10
625796.2537984761
 20
4839482.236015283
 10
625775.7619116185
 20
4839476.19396965
  0
LWPOLYLINE
  5
159
330
17
100
AcDbEntity
  8
ROADS
100
AcDbPolyline
 90
2
 70
0
 10
625796.2537984761
 20
4839482.236015283
 10
625782.1024401686
 20
4839527.760654763
  0
LWPOLYLINE
  5
15A
330
17
100
AcDbEntity
  8
ROADS
100
AcDbPolyline
 90
2
 70
0
 10
625306.0516096983
 20
4839291.858555097
 10
625284.7712675389
 20
4839370.254530236
  0
LWPOLYLINE
  5
15B
330
17
100
AcDbEntity
  8
ROADS
100
AcDbPolyline
 90
2
 70
0
 10
625284.7712675389
 20
4839370.254530236
 10
625158.3507620934
 20
4839332.502170534
  0
LWPOLYLINE
  5
15C
330
17
100
AcDbEntity
  8
ROADS
100
AcDbPolyline
 90
2
 70
0
 10
625328.1931961881
 20
4839476.918546162
 10
625131.4883761719
 20
4839412.769272176
  0
LWPOLYLINE
  5
15D
330
17
100
AcDbEntity
  8
ROADS
100
AcDbPolyline
 90
2
 70
0
 10
625301.5116002399
 20
4839558.736499392
 10
625111.6960356225
 20
4839497.235723986
  0
LWPOLYLINE
  5
15E
330
17
100
AcDbEntity
  8
ROADS
100
AcDbPolyline
 90
2
 70
0
 10
625301.5116002399
 20
4839558.736499392
 10
625275.0593606841
 20
4839643.574759437
  0
LWPOLYLINE
  5
15F
330
17
100
AcDbEntity
  8
ROADS
100
AcDbPolyline
 90
2
 70
0
 10
625275.0593606841
 20
4839643.574759437
 10
625098.9846429734
 20
4839587.09961352
  0
LWPOLYLINE
  5
160
330
17
100
AcDbEntity
  8
ROADS
100
AcDbPolyline
 90
2
 70
0
 10
625275.0593606841
 20
4839643.574759437
 10
625249.3029590189
 20
4839720.463146825
  0
LWPOLYLINE
  5
161
330
17
100
AcDbEntity
  8
ROADS
100
AcDbPolyline
 90
2
 70
0
 10
625249.3029590189
 20
4839720.463146825
 10
625094.6357412469
 20
4839672.612687062
  0
LWPOLYLINE
  5
162
330
17
100
AcDbEntity
  8
ROADS
100
AcDbPolyline
 90
2
 70
0
 10
625187.2452083613
 20
4839714.010121112
 10
625094.1964488074
 20
4839684.412840427
  0
LWPOLYLINE
  5
163
330
17
100
AcDbEntity
  8
ROADS
100
AcDbPolyline
 90
2
 70
0
 10
625226.5900045832
 20
4839723.743439916
 10
625187.2452083613
 20
4839714.010121112
  0
LWPOLYLINE
  5
164
330
17
100
AcDbEntity
  8
ROADS
100
AcDbPolyline
 90
2
 70
0
 10
625249.3029590189
 20
4839720.463146825
 10
625226.5900045832
 20
4839723.743439916
  0
LWPOLYLINE
  5
165
330
17
100
AcDbEntity
  8
ROADS
100
AcDbPolyline
 90
2
 70
0
 10
625187.2452083613
 20
4839714.010121112
 10
625184.0487987078
 20
4839739.7267397065
  0
LWPOLYLINE
  5
166
330
17
100
AcDbEntity
  8
ROADS
100
AcDbPolyline
 90
2
 70
0
 10
625226.5900045832
 20
4839723.743439916
 10
625200.9555805468
 20
4839735.617864059
  0
LWPOLYLINE
  5
167
330
17
100
AcDbEntity
  8
ROADS
100
AcDbPolyline
 90
2
 70
0
 10
625226.5900045832
 20
4839723.743439916
 10
625226.2977506205
 20
4839739.473704479
  0
LWPOLYLINE
  5
168
330
17
100
AcDbEntity
  8
ROADS
100
AcDbPolyline
 90
2
 70
0
 10
625200.9555805468
 20
4839735.617864059
 10
625184.0487987078
 20
4839739.7267397065
  0
LWPOLYLINE
  5
169
330
17
100
AcDbEntity
  8
ROADS
100
AcDbPolyline
 90
2
 70
0
 10
625156.7042954599
 20
4839744.368319124
 10
625096.0286748155
 20
4839733.263602809
  0
LWPOLYLINE
  5
16A
330
17
100
AcDbEntity
  8
ROADS
100
AcDbPolyline
 90
2
 70
0
 10
625200.9555805468
 20
4839735.617864059
 10
625210.4002722005
 20
4839742.822629873
  0
LWPOLYLINE
  5
16B
330
17
100
AcDbEntity
  8
ROADS
100
AcDbPolyline
 90
2
 70
0
 10
625096.847152165
 20
4839747.056993656
 10
625097.7649257709
 20
4839748.57329966
  0
LWPOLYLINE
  5
16C
330
17
100
AcDbEntity
  8
ROADS
100
AcDbPolyline
 90
2
 70
0
 10
625226.2977506205
 20
4839739.473704479
 10
625210.4002722005
 20
4839742.822629873
  0
LWPOLYLINE
  5
16D
330
17
100
AcDbEntity
  8
ROADS
100
AcDbPolyline
 90
2
 70
0
 10
625184.0487987078
 20
4839739.7267397065
 10
625156.7042954599
 20
4839744.368319124
  0
LWPOLYLINE
  5
16E
330
17
100
AcDbEntity
  8
ROADS
100
AcDbPolyline
 90
3
 70
0
 10
625210.4002722005
 20
4839742.822629873
 10
625198.8282418244
 20
4839751.853791213
 10
625200.9555805468
 20
4839735.617864059
  0
LWPOLYLINE
  5
16F
330
17
100
AcDbEntity
  8
ROADS
100
AcDbPolyline
 90
2
 70
0
 10
625226.2977506205
 20
4839739.473704479
 10
625222.9200490174
 20
4839776.841534896
  0
LWPOLYLINE
  5
170
330
17
100
AcDbEntity
  8
ROADS
100
AcDbPolyline
 90
2
 70
0
 10
625222.9200490174
 20
4839776.841534896
 10
625156.7042954599
 20
4839744.368319124
  0
LWPOLYLINE
  5
171
330
17
100
AcDbEntity
  8
ROADS
100
AcDbPolyline
 90
2
 70
0
 10
625240.8330351583
 20
4839787.317684848
 10
625222.9200490174
 20
4839776.841534896
  0
LWPOLYLINE
  5
172
330
17
100
AcDbEntity
  8
ROADS
100
AcDbPolyline
 90
2
 70
0
 10
625334.7323718016
 20
4839817.183424092
 10
625240.8330351583
 20
4839787.317684848
  0
LWPOLYLINE
  5
173
330
17
100
AcDbEntity
  8
ROADS
100
AcDbPolyline
 90
2
 70
0
 10
625228.9950553037
 20
4839823.430558204
 10
625240.8330351583
 20
4839787.317684848
  0
LWPOLYLINE
  5
174
330
17
100
AcDbEntity
  8
ROADS
100
AcDbPolyline
 90
2
 70
0
 10
625208.7041724935
 20
4839857.466390543
 10
625104.9506278614
 20
4839826.455672038
  0
LWPOLYLINE
  5
175
330
17
100
AcDbEntity
  8
ROADS
100
AcDbPolyline
 90
2
 70
0
 10
625228.9950553037
 20
4839823.430558204
 10
625208.7041724935
 20
4839857.466390543
  0
LWPOLYLINE
  5
176
330
17
100
AcDbEntity
  8
ROADS
100
AcDbPolyline
 90
2
 70
0
 10
625319.6793648452
 20
4839860.123196184
 10
625228.9950553037
 20
4839823.430558204
  0
LWPOLYLINE
  5
177
330
17
100
AcDbEntity
  8
ROADS
100
AcDbPolyline
 90
2
 70
0
 10
625311.7934542081
 20
4839889.666201728
 10
625208.7041724935
 20
4839857.466390543
  0
LWPOLYLINE
  5
178
330
17
100
AcDbEntity
  8
ROADS
100
AcDbPolyline
 90
2
 70
0
 10
625208.7041724935
 20
4839857.466390543
 10
625178.1554644788
 20
4839949.112876598
  0
LWPOLYLINE
  5
179
330
17
100
AcDbEntity
  8
ROADS
100
AcDbPolyline
 90
2
 70
0
 10
625178.1554644788
 20
4839949.112876598
 10
625126.0111250997
 20
4839931.83329395
  0
LWPOLYLINE
  5
17A
330
17
100
AcDbEntity
  8
ROADS
100
AcDbPolyline
 90
2
 70
0
 10
625372.518054738
 20
4840008.830535161
 10
625178.1554644788
 20
4839949.112876598
  0
LWPOLYLINE
  5
17B
330
17
100
AcDbEntity
  8
ROADS
100
AcDbPolyline
 90
2
 70
0
 10
625507.7153989729
 20
4839354.086071548
 10
625495.1990983451
 20
4839392.427844749
  0
LWPOLYLINE
  5
17C
330
17
100
AcDbEntity
  8
ROADS
100
AcDbPolyline
 90
2
 70
0
 10
625356.0406294952
 20
4839391.40846076
 10
625284.7712675389
 20
4839370.254530236
  0
LWPOLYLINE
  5
17D
330
17
100
AcDbEntity
  8
ROADS
100
AcDbPolyline
 90
2
 70
0
 10
625483.1433148172
 20
4839430.078906429
 10
625356.0406294952
 20
4839391.40846076
  0
LWPOLYLINE
  5
17E
330
17
100
AcDbEntity
  8
ROADS
100
AcDbPolyline
 90
2
 70
0
 10
625495.1990983451
 20
4839392.427844749
 10
625483.1433148172
 20
4839430.078906429
  0
LWPOLYLINE
  5
17F
330
17
100
AcDbEntity
  8
ROADS
100
AcDbPolyline
 90
2
 70
0
 10
625356.0406294952
 20
4839391.40846076
 10
625341.4676989665
 20
4839434.339271002
  0
LWPOLYLINE
  5
180
330
17
100
AcDbEntity
  8
ROADS
100
AcDbPolyline
 90
2
 70
0
 10
625495.1990983451
 20
4839392.427844749
 10
625645.5535449801
 20
4839436.716247267
  0
LWPOLYLINE
  5
181
330
17
100
AcDbEntity
  8
ROADS
100
AcDbPolyline
 90
2
 70
0
 10
625341.4676989665
 20
4839434.339271002
 10
625328.1931961881
 20
4839476.918546162
  0
LWPOLYLINE
  5
182
330
17
100
AcDbEntity
  8
ROADS
100
AcDbPolyline
 90
2
 70
0
 10
625684.6988892406
 20
4839496.136800234
 10
625483.1433148172
 20
4839430.078906429
  0
LWPOLYLINE
  5
183
330
17
100
AcDbEntity
  8
ROADS
100
AcDbPolyline
 90
2
 70
0
 10
625627.760608851
 20
4839524.716432187
 10
625341.4676989665
 20
4839434.339271002
  0
LWPOLYLINE
  5
184
330
17
100
AcDbEntity
  8
ROADS
100
AcDbPolyline
 90
2
 70
0
 10
625328.1931961881
 20
4839476.918546162
 10
625301.5116002399
 20
4839558.736499392
  0
LWPOLYLINE
  5
185
330
17
100
AcDbEntity
  8
ROADS
100
AcDbPolyline
 90
2
 70
0
 10
625755.2087988103
 20
4839519.3076594155
 10
625684.6988892406
 20
4839496.136800234
  0
LWPOLYLINE
  5
186
330
17
100
AcDbEntity
  8
ROADS
100
AcDbPolyline
 90
2
 70
0
 10
625782.1024401686
 20
4839527.760654763
 10
625755.2087988103
 20
4839519.3076594155
  0
LWPOLYLINE
  5
187
330
17
100
AcDbEntity
  8
ROADS
100
AcDbPolyline
 90
2
 70
0
 10
625837.6217499508
 20
4839545.362022302
 10
625782.1024401686
 20
4839527.760654763
  0
LWPOLYLINE
  5
188
330
17
100
AcDbEntity
  8
ROADS
100
AcDbPolyline
 90
2
 70
0
 10
625755.2087988103
 20
4839519.3076594155
 10
625741.3291619963
 20
4839563.411125183
  0
LWPOLYLINE
  5
189
330
17
100
AcDbEntity
  8
ROADS
100
AcDbPolyline
 90
2
 70
0
 10
625741.3291619963
 20
4839563.411125183
 10
625686.0899044113
 20
4839543.127671065
  0
LWPOLYLINE
  5
18A
330
17
100
AcDbEntity
  8
ROADS
100
AcDbPolyline
 90
2
 70
0
 10
625837.6217499508
 20
4839545.362022302
 10
625833.613782998
 20
4839569.752933953
  0
LWPOLYLINE
  5
18B
330
17
100
AcDbEntity
  8
ROADS
100
AcDbPolyline
 90
2
 70
0
 10
625926.249478936
 20
4839573.577949965
 10
625837.6217499508
 20
4839545.362022302
  0
LWPOLYLINE
  5
18C
330
17
100
AcDbEntity
  8
ROADS
100
AcDbPolyline
 90
2
 70
0
 10
625833.613782998
 20
4839569.752933953
 10
625793.3203389198
 20
4839558.758382698
  0
LWPOLYLINE
  5
18D
330
17
100
AcDbEntity
  8
ROADS
100
AcDbPolyline
 90
2
 70
0
 10
625828.3992837482
 20
4839586.181556479
 10
625741.3291619963
 20
4839563.411125183
  0
LWPOLYLINE
  5
18E
330
17
100
AcDbEntity
  8
ROADS
100
AcDbPolyline
 90
2
 70
0
 10
625833.613782998
 20
4839569.752933953
 10
625828.3992837482
 20
4839586.181556479
  0
LWPOLYLINE
  5
18F
330
17
100
AcDbEntity
  8
ROADS
100
AcDbPolyline
 90
2
 70
0
 10
626178.5863239901
 20
4839459.009991058
 10
626147.0616856352
 20
4839562.535823423
  0
LWPOLYLINE
  5
190
330
17
100
AcDbEntity
  8
ROADS
100
AcDbPolyline
 90
2
 70
0
 10
626049.1619278468
 20
4839531.689995542
 10
626095.2912730091
 20
4839581.903430588
  0
LWPOLYLINE
  5
191
330
17
100
AcDbEntity
  8
ROADS
100
AcDbPolyline
 90
2
 70
0
 10
626049.1619278468
 20
4839531.689995542
 10
626025.3973939277
 20
4839605.605428168
  0
LWPOLYLINE
  5
192
330
17
100
AcDbEntity
  8
ROADS
100
AcDbPolyline
 90
3
 70
0
 10
626147.0616856352
 20
4839562.535823423
 10
626130.9365271948
 20
4839557.295808719
 10
626095.2912730091
 20
4839581.903430588
  0
LWPOLYLINE
  5
193
330
17
100
AcDbEntity
  8
ROADS
100
AcDbPolyline
 90
2
 70
0
 10
626147.0616856352
 20
4839562.535823423
 10
626138.7166961952
 20
4839586.554277936
  0
LWPOLYLINE
  5
194
330
17
100
AcDbEntity
  8
ROADS
100
AcDbPolyline
 90
2
 70
0
 10
626025.3973939277
 20
4839605.605428168
 10
625926.249478936
 20
4839573.577949965
  0
LWPOLYLINE
  5
195
330
17
100
AcDbEntity
  8
ROADS
100
AcDbPolyline
 90
2
 70
0
 10
626215.4256053331
 20
4839613.15002997
 10
626138.7166961952
 20
4839586.554277936
  0
LWPOLYLINE
  5
196
330
17
100
AcDbEntity
  8
ROADS
100
AcDbPolyline
 90
2
 70
0
 10
626095.2912730091
 20
4839581.903430588
 10
626123.6636303167
 20
4839636.756923354
  0
LWPOLYLINE
  5
197
330
17
100
AcDbEntity
  8
ROADS
100
AcDbPolyline
 90
2
 70
0
 10
626138.7166961952
 20
4839586.554277936
 10
626123.6636303167
 20
4839636.756923354
  0
LWPOLYLINE
  5
198
330
17
100
AcDbEntity
  8
ROADS
100
AcDbPolyline
 90
2
 70
0
 10
626123.6636303167
 20
4839636.756923354
 10
626025.3973939277
 20
4839605.605428168
  0
LWPOLYLINE
  5
199
330
17
100
AcDbEntity
  8
ROADS
100
AcDbPolyline
 90
2
 70
0
 10
626353.5902966806
 20
4839442.448789615
 10
626292.2221097676
 20
4839639.382356915
  0
LWPOLYLINE
  5
19A
330
17
100
AcDbEntity
  8
ROADS
100
AcDbPolyline
 90
2
 70
0
 10
626429.8137598141
 20
4839465.837051224
 10
626368.411022451
 20
4839664.126115202
  0
LWPOLYLINE
  5
19B
330
17
100
AcDbEntity
  8
ROADS
100
AcDbPolyline
 90
2
 70
0
 10
626509.512998705
 20
4839490.466274035
 10
626449.4272259034
 20
4839689.58925546
  0
LWPOLYLINE
  5
19C
330
17
100
AcDbEntity
  8
ROADS
100
AcDbPolyline
 90
2
 70
0
 10
626292.2221097676
 20
4839639.382356915
 10
626215.4256053331
 20
4839613.15002997
  0
LWPOLYLINE
  5
19D
330
17
100
AcDbEntity
  8
ROADS
100
AcDbPolyline
 90
2
 70
0
 10
626368.411022451
 20
4839664.126115202
 10
626292.2221097676
 20
4839639.382356915
  0
LWPOLYLINE
  5
19E
330
17
100
AcDbEntity
  8
ROADS
100
AcDbPolyline
 90
2
 70
0
 10
626292.2221097676
 20
4839639.382356915
 10
626281.4693665323
 20
4839685.51757646
  0
LWPOLYLINE
  5
19F
330
17
100
AcDbEntity
  8
ROADS
100
AcDbPolyline
 90
2
 70
0
 10
626281.4693665323
 20
4839685.51757646
 10
626199.8819056985
 20
4839659.986110884
  0
LWPOLYLINE
  5
1A0
330
17
100
AcDbEntity
  8
ROADS
100
AcDbPolyline
 90
2
 70
0
 10
626449.4272259034
 20
4839689.58925546
 10
626368.411022451
 20
4839664.126115202
  0
LWPOLYLINE
  5
1A1
330
17
100
AcDbEntity
  8
ROADS
100
AcDbPolyline
 90
2
 70
0
 10
626368.411022451
 20
4839664.126115202
 10
626354.6302048038
 20
4839708.62446743
  0
LWPOLYLINE
  5
1A2
330
17
100
AcDbEntity
  8
ROADS
100
AcDbPolyline
 90
2
 70
0
 10
626354.6302048038
 20
4839708.62446743
 10
626281.4693665323
 20
4839685.51757646
  0
LWPOLYLINE
  5
1A3
330
17
100
AcDbEntity
  8
ROADS
100
AcDbPolyline
 90
2
 70
0
 10
625741.3291619963
 20
4839563.411125183
 10
625728.9960472856
 20
4839603.510333176
  0
LWPOLYLINE
  5
1A4
330
17
100
AcDbEntity
  8
ROADS
100
AcDbPolyline
 90
2
 70
0
 10
625926.249478936
 20
4839573.577949965
 10
625909.3068874865
 20
4839611.891688998
  0
LWPOLYLINE
  5
1A5
330
17
100
AcDbEntity
  8
ROADS
100
AcDbPolyline
 90
2
 70
0
 10
625909.3068874865
 20
4839611.891688998
 10
625828.3992837482
 20
4839586.181556479
  0
LWPOLYLINE
  5
1A6
330
17
100
AcDbEntity
  8
ROADS
100
AcDbPolyline
 90
2
 70
0
 10
625728.9960472856
 20
4839603.510333176
 10
625702.5740433455
 20
4839687.11717429
  0
LWPOLYLINE
  5
1A7
330
17
100
AcDbEntity
  8
ROADS
100
AcDbPolyline
 90
2
 70
0
 10
625828.3992837482
 20
4839586.181556479
 10
625774.4659157527
 20
4839759.324914168
  0
LWPOLYLINE
  5
1A8
330
17
100
AcDbEntity
  8
ROADS
100
AcDbPolyline
 90
2
 70
0
 10
625909.3068874865
 20
4839611.891688998
 10
625853.7341880949
 20
4839786.207496033
  0
LWPOLYLINE
  5
1A9
330
17
100
AcDbEntity
  8
ROADS
100
AcDbPolyline
 90
2
 70
0
 10
625702.5740433455
 20
4839687.11717429
 10
625690.4852072343
 20
4839725.5426960215
  0
LWPOLYLINE
  5
1AA
330
17
100
AcDbEntity
  8
ROADS
100
AcDbPolyline
 90
2
 70
0
 10
625774.4659157527
 20
4839759.324914168
 10
625690.4852072343
 20
4839725.5426960215
  0
LWPOLYLINE
  5
1AB
330
17
100
AcDbEntity
  8
ROADS
100
AcDbPolyline
 90
2
 70
0
 10
625690.4852072343
 20
4839725.5426960215
 10
625676.0566485873
 20
4839771.3523130845
  0
LWPOLYLINE
  5
1AC
330
17
100
AcDbEntity
  8
ROADS
100
AcDbPolyline
 90
2
 70
0
 10
625853.7341880949
 20
4839786.207496033
 10
625774.4659157527
 20
4839759.324914168
  0
LWPOLYLINE
  5
1AD
330
17
100
AcDbEntity
  8
ROADS
100
AcDbPolyline
 90
2
 70
0
 10
625728.9960472856
 20
4839603.510333176
 10
625328.1931961881
 20
4839476.918546162
  0
LWPOLYLINE
  5
1AE
330
17
100
AcDbEntity
  8
ROADS
100
AcDbPolyline
 90
2
 70
0
 10
625702.5740433455
 20
4839687.11717429
 10
625301.5116002399
 20
4839558.736499392
  0
LWPOLYLINE
  5
1AF
330
17
100
AcDbEntity
  8
ROADS
100
AcDbPolyline
 90
2
 70
0
 10
625676.0566485873
 20
4839771.3523130845
 10
625275.0593606841
 20
4839643.574759437
  0
LWPOLYLINE
  5
1B0
330
17
100
AcDbEntity
  8
ROADS
100
AcDbPolyline
 90
2
 70
0
 10
625649.3522605826
 20
4839855.3090400165
 10
625249.3029590189
 20
4839720.463146825
  0
LWPOLYLINE
  5
1B1
330
17
100
AcDbEntity
  8
ROADS
100
AcDbPolyline
 90
2
 70
0
 10
625385.2697272368
 20
4839833.637790823
 10
625334.7323718016
 20
4839817.183424092
  0
LWPOLYLINE
  5
1B2
330
17
100
AcDbEntity
  8
ROADS
100
AcDbPolyline
 90
2
 70
0
 10
625319.6793648452
 20
4839860.123196184
 10
625334.7323718016
 20
4839817.183424092
  0
LWPOLYLINE
  5
1B3
330
17
100
AcDbEntity
  8
ROADS
100
AcDbPolyline
 90
2
 70
0
 10
625385.2697272368
 20
4839833.637790823
 10
625630.7169171064
 20
4839912.866215812
  0
LWPOLYLINE
  5
1B4
330
17
100
AcDbEntity
  8
ROADS
100
AcDbPolyline
 90
2
 70
0
 10
625311.7934542081
 20
4839889.666201728
 10
625319.6793648452
 20
4839860.123196184
  0
LWPOLYLINE
  5
1B5
330
17
100
AcDbEntity
  8
ROADS
100
AcDbPolyline
 90
2
 70
0
 10
625399.3099490624
 20
4839920.867244846
 10
625311.7934542081
 20
4839889.666201728
  0
LWPOLYLINE
  5
1B6
330
17
100
AcDbEntity
  8
ROADS
100
AcDbPolyline
 90
2
 70
0
 10
625606.7506967668
 20
4839984.383744007
 10
625399.3099490624
 20
4839920.867244846
  0
LWPOLYLINE
  5
1B7
330
17
100
AcDbEntity
  8
ROADS
100
AcDbPolyline
 90
2
 70
0
 10
626215.4256053331
 20
4839613.15002997
 10
626199.8819056985
 20
4839659.986110884
  0
LWPOLYLINE
  5
1B8
330
17
100
AcDbEntity
  8
ROADS
100
AcDbPolyline
 90
2
 70
0
 10
626199.8819056985
 20
4839659.986110884
 10
626123.6636303167
 20
4839636.756923354
  0
LWPOLYLINE
  5
1B9
330
17
100
AcDbEntity
  8
ROADS
100
AcDbPolyline
 90
2
 70
0
 10
626271.7968484416
 20
4839727.2950763395
 10
626170.1046389956
 20
4839691.688300848
  0
LWPOLYLINE
  5
1BA
330
17
100
AcDbEntity
  8
ROADS
100
AcDbPolyline
 90
2
 70
0
 10
626067.2817551584
 20
4839737.337866653
 10
626076.4832290617
 20
4839723.577518172
  0
LWPOLYLINE
  5
1BB
330
17
100
AcDbEntity
  8
ROADS
100
AcDbPolyline
 90
2
 70
0
 10
626254.8464626861
 20
4839780.142568767
 10
626067.2817551584
 20
4839737.337866653
  0
LWPOLYLINE
  5
1BC
330
17
100
AcDbEntity
  8
ROADS
100
AcDbPolyline
 90
2
 70
0
 10
626024.2462309948
 20
4839840.926400879
 10
626067.2817551584
 20
4839737.337866653
  0
LWPOLYLINE
  5
1BD
330
17
100
AcDbEntity
  8
ROADS
100
AcDbPolyline
 90
3
 70
0
 10
626225.7950504378
 20
4839872.105454611
 10
626098.4652768426
 20
4839832.707609352
 10
626024.2462309948
 20
4839840.926400879
  0
LWPOLYLINE
  5
1BE
330
17
100
AcDbEntity
  8
ROADS
100
AcDbPolyline
 90
2
 70
0
 10
626001.2437044091
 20
4839902.845390232
 10
626024.2462309948
 20
4839840.926400879
  0
LWPOLYLINE
  5
1BF
330
17
100
AcDbEntity
  8
ROADS
100
AcDbPolyline
 90
2
 70
0
 10
626225.7950504378
 20
4839872.105454611
 10
626197.843140588
 20
4839961.058038277
  0
LWPOLYLINE
  5
1C0
330
17
100
AcDbEntity
  8
ROADS
100
AcDbPolyline
 90
2
 70
0
 10
626197.843140588
 20
4839961.058038277
 10
626001.2437044091
 20
4839902.845390232
  0
LWPOLYLINE
  5
1C1
330
17
100
AcDbEntity
  8
ROADS
100
AcDbPolyline
 90
2
 70
0
 10
625881.4078396676
 20
4839795.491674587
 10
625853.7341880949
 20
4839786.207496033
  0
LWPOLYLINE
  5
1C2
330
17
100
AcDbEntity
  8
ROADS
100
AcDbPolyline
 90
2
 70
0
 10
625918.4096241929
 20
4839806.401703219
 10
625881.4078396676
 20
4839795.491674587
  0
LWPOLYLINE
  5
1C3
330
17
100
AcDbEntity
  8
ROADS
100
AcDbPolyline
 90
2
 70
0
 10
625676.0566485873
 20
4839771.3523130845
 10
625649.3522605826
 20
4839855.3090400165
  0
LWPOLYLINE
  5
1C4
330
17
100
AcDbEntity
  8
ROADS
100
AcDbPolyline
 90
3
 70
0
 10
625774.4659157527
 20
4839759.324914168
 10
625739.7472149127
 20
4839897.498813511
 10
625837.3452636675
 20
4839935.617185805
  0
LWPOLYLINE
  5
1C5
330
17
100
AcDbEntity
  8
ROADS
100
AcDbPolyline
 90
2
 70
0
 10
625881.4078396676
 20
4839795.491674587
 10
625837.3452636675
 20
4839935.617185805
  0
LWPOLYLINE
  5
1C6
330
17
100
AcDbEntity
  8
ROADS
100
AcDbPolyline
 90
2
 70
0
 10
625649.3522605826
 20
4839855.3090400165
 10
625630.7169171064
 20
4839912.866215812
  0
LWPOLYLINE
  5
1C7
330
17
100
AcDbEntity
  8
ROADS
100
AcDbPolyline
 90
2
 70
0
 10
625630.7169171064
 20
4839912.866215812
 10
625606.7506967668
 20
4839984.383744007
  0
LWPOLYLINE
  5
1C8
330
17
100
AcDbEntity
  8
ROADS
100
AcDbPolyline
 90
2
 70
0
 10
625837.3452636675
 20
4839935.617185805
 10
625924.5912259622
 20
4839967.406927416
  0
LWPOLYLINE
  5
1C9
330
17
100
AcDbEntity
  8
ROADS
100
AcDbPolyline
 90
2
 70
0
 10
625671.135724467
 20
4840003.656668524
 10
625606.7506967668
 20
4839984.383744007
  0
LWPOLYLINE
  5
1CA
330
17
100
AcDbEntity
  8
ROADS
100
AcDbPolyline
 90
2
 70
0
 10
625892.2031365901
 20
4840070.449986832
 10
625671.135724467
 20
4840003.656668524
  0
LWPOLYLINE
  5
1CB
330
17
100
AcDbEntity
  8
ROADS
100
AcDbPolyline
 90
2
 70
0
 10
625970.3284633958
 20
4839985.00840388
 10
626001.2437044091
 20
4839902.845390232
  0
LWPOLYLINE
  5
1CC
330
17
100
AcDbEntity
  8
ROADS
100
AcDbPolyline
 90
2
 70
0
 10
625970.3284633958
 20
4839985.00840388
 10
625924.5912259622
 20
4839967.406927416
  0
LWPOLYLINE
  5
1CD
330
17
100
AcDbEntity
  8
ROADS
100
AcDbPolyline
 90
3
 70
0
 10
626197.843140588
 20
4839961.058038277
 10
626166.4069936336
 20
4840045.202288217
 10
625970.3284633958
 20
4839985.00840388
  0
LWPOLYLINE
  5
1CE
330
17
100
AcDbEntity
  8
ROADS
100
AcDbPolyline
 90
2
 70
0
 10
625970.3284633958
 20
4839985.00840388
 10
625953.0727694975
 20
4840036.341224368
  0
LWPOLYLINE
  5
1CF
330
17
100
AcDbEntity
  8
ROADS
100
AcDbPolyline
 90
2
 70
0
 10
625938.3029519757
 20
4840086.361936768
 10
625953.0727694975
 20
4840036.341224368
  0
LWPOLYLINE
  5
1D0
330
17
100
AcDbEntity
  8
ROADS
100
AcDbPolyline
 90
2
 70
0
 10
625948.8280058538
 20
4840090.151574034
 10
625938.3029519757
 20
4840086.361936768
  0
LWPOLYLINE
  5
1D1
330
17
100
AcDbEntity
  8
ROADS
100
AcDbPolyline
 90
2
 70
0
 10
626291.0964431508
 20
4840151.822450191
 10
625953.0727694975
 20
4840036.341224368
  0
LWPOLYLINE
  5
1D2
330
17
100
AcDbEntity
  8
ROADS
100
AcDbPolyline
 90
2
 70
0
 10
626040.5492811529
 20
4840121.828825799
 10
625948.8280058538
 20
4840090.151574034
  0
LWPOLYLINE
  5
1D3
330
17
100
AcDbEntity
  8
ROADS
100
AcDbPolyline
 90
2
 70
0
 10
626131.473924306
 20
4840152.931648015
 10
626040.5492811529
 20
4840121.828825799
  0
LWPOLYLINE
  5
1D4
330
17
100
AcDbEntity
  8
ROADS
100
AcDbPolyline
 90
2
 70
0
 10
626219.2126866244
 20
4840189.380164541
 10
626131.473924306
 20
4840152.931648015
  0
LWPOLYLINE
  5
1D5
330
17
100
AcDbEntity
  8
ROADS
100
AcDbPolyline
 90
2
 70
0
 10
625399.3099490624
 20
4839920.867244846
 10
625372.518054738
 20
4840008.830535161
  0
LWPOLYLINE
  5
1D6
330
17
100
AcDbEntity
  8
ROADS
100
AcDbPolyline
 90
2
 70
0
 10
625606.7506967668
 20
4839984.383744007
 10
625578.2787389082
 20
4840073.006726793
  0
LWPOLYLINE
  5
1D7
330
17
100
AcDbEntity
  8
ROADS
100
AcDbPolyline
 90
2
 70
0
 10
625578.2787389082
 20
4840073.006726793
 10
625372.518054738
 20
4840008.830535161
  0
LWPOLYLINE
  5
1D8
330
17
100
AcDbEntity
  8
ROADS
100
AcDbPolyline
 90
2
 70
0
 10
625372.518054738
 20
4840008.830535161
 10
625344.4171636055
 20
4840098.778242171
  0
LWPOLYLINE
  5
1D9
330
17
100
AcDbEntity
  8
ROADS
100
AcDbPolyline
 90
2
 70
0
 10
625578.2787389082
 20
4840073.006726793
 10
625553.698172744
 20
4840159.961002131
  0
LWPOLYLINE
  5
1DA
330
17
100
AcDbEntity
  8
ROADS
100
AcDbPolyline
 90
2
 70
0
 10
625553.698172744
 20
4840159.961002131
 10
625344.4171636055
 20
4840098.778242171
  0
LWPOLYLINE
  5
1DB
330
17
100
AcDbEntity
  8
ROADS
100
AcDbPolyline
 90
2
 70
0
 10
625344.4171636055
 20
4840098.778242171
 10
625319.5467779929
 20
4840184.506142183
  0
LWPOLYLINE
  5
1DC
330
17
100
AcDbEntity
  8
ROADS
100
AcDbPolyline
 90
2
 70
0
 10
625553.698172744
 20
4840159.961002131
 10
625525.6396787047
 20
4840249.607495764
  0
LWPOLYLINE
  5
1DD
330
17
100
AcDbEntity
  8
ROADS
100
AcDbPolyline
 90
2
 70
0
 10
625525.6396787047
 20
4840249.607495764
 10
625319.5467779929
 20
4840184.506142183
  0
LWPOLYLINE
  5
1DE
330
17
100
AcDbEntity
  8
ROADS
100
AcDbPolyline
 90
2
 70
0
 10
625319.5467779929
 20
4840184.506142183
 10
625294.6120831504
 20
4840280.530448036
  0
LWPOLYLINE
  5
1DF
330
17
100
AcDbEntity
  8
ROADS
100
AcDbPolyline
 90
2
 70
0
 10
625178.1554644788
 20
4839949.112876598
 10
625154.3483476616
 20
4840023.914334617
  0
LWPOLYLINE
  5
1E0
330
17
100
AcDbEntity
  8
ROADS
100
AcDbPolyline
 90
2
 70
0
 10
625344.4171636055
 20
4840098.778242171
 10
625160.148877797
 20
4840039.868971344
  0
LWPOLYLINE
  5
1E1
330
17
100
AcDbEntity
  8
ROADS
100
AcDbPolyline
 90
2
 70
0
 10
625319.5467779929
 20
4840184.506142183
 10
625209.8241467498
 20
4840151.398778725
  0
LWPOLYLINE
  5
1E2
330
17
100
AcDbEntity
  8
ROADS
100
AcDbPolyline
 90
2
 70
0
 10
625294.6120831504
 20
4840280.530448036
 10
625291.7195838037
 20
4840279.796142707
  0
LWPOLYLINE
  5
1E3
330
17
100
AcDbEntity
  8
ROADS
100
AcDbPolyline
 90
2
 70
0
 10
625294.6120831504
 20
4840280.530448036
 10
625293.9068280391
 20
4840282.745243815
  0
LWPOLYLINE
  5
1E4
330
17
100
AcDbEntity
  8
ROADS
100
AcDbPolyline
 90
2
 70
0
 10
626219.2126866244
 20
4840189.380164541
 10
626224.0581097978
 20
4840176.715077375
  0
LWPOLYLINE
  5
1E5
330
17
100
AcDbEntity
  8
ROADS
100
AcDbPolyline
 90
2
 70
0
 10
626219.2126866244
 20
4840189.380164541
 10
626233.4466082967
 20
4840188.93365772
  0
LWPOLYLINE
  5
1E6
330
17
100
AcDbEntity
  8
ROADS
100
AcDbPolyline
 90
2
 70
0
 10
626222.5656864619
 20
4840210.837098161
 10
626219.2126866244
 20
4840189.380164541
  0
LWPOLYLINE
  5
1E7
330
17
100
AcDbEntity
  8
ROADS
100
AcDbPolyline
 90
2
 70
0
 10
626040.5492811529
 20
4840121.828825799
 10
625982.6263791083
 20
4840306.965734411
  0
LWPOLYLINE
  5
1E8
330
17
100
AcDbEntity
  8
ROADS
100
AcDbPolyline
 90
2
 70
0
 10
626131.473924306
 20
4840152.931648015
 10
626074.2546325955
 20
4840335.769196677
  0
LWPOLYLINE
  5
1E9
330
17
100
AcDbEntity
  8
ROADS
100
AcDbPolyline
 90
2
 70
0
 10
626222.5656864619
 20
4840210.837098161
 10
626166.5104882246
 20
4840364.819043693
  0
LWPOLYLINE
  5
1EA
330
17
100
AcDbEntity
  8
ROADS
100
AcDbPolyline
 90
2
 70
0
 10
625982.6263791083
 20
4840306.965734411
 10
625890.9342676075
 20
4840277.879115616
  0
LWPOLYLINE
  5
1EB
330
17
100
AcDbEntity
  8
ROADS
100
AcDbPolyline
 90
2
 70
0
 10
626074.2546325955
 20
4840335.769196677
 10
625982.6263791083
 20
4840306.965734411
  0
LWPOLYLINE
  5
1EC
330
17
100
AcDbEntity
  8
ROADS
100
AcDbPolyline
 90
2
 70
0
 10
626166.5104882246
 20
4840364.819043693
 10
626074.2546325955
 20
4840335.769196677
  0
LWPOLYLINE
  5
1ED
330
17
100
AcDbEntity
  8
ROADS
100
AcDbPolyline
 90
2
 70
0
 10
626074.2546325955
 20
4840335.769196677
 10
626048.425290224
 20
4840419.1087768115
  0
LWPOLYLINE
  5
1EE
330
17
100
AcDbEntity
  8
ROADS
100
AcDbPolyline
 90
3
 70
0
 10
625671.135724467
 20
4840003.656668524
 10
625644.7823002045
 20
4840091.371942496
 10
625690.2050178526
 20
4840107.782663073
  0
LWPOLYLINE
  5
1EF
330
17
100
AcDbEntity
  8
ROADS
100
AcDbPolyline
 90
2
 70
0
 10
625938.3029519757
 20
4840086.361936768
 10
625892.2031365901
 20
4840070.449986832
  0
LWPOLYLINE
  5
1F0
330
17
100
AcDbEntity
  8
ROADS
100
AcDbPolyline
 90
2
 70
0
 10
625948.8280058538
 20
4840090.151574034
 10
625890.9342676075
 20
4840277.879115616
  0
LWPOLYLINE
  5
1F1
330
17
100
AcDbEntity
  8
ROADS
100
AcDbPolyline
 90
2
 70
0
 10
625832.3655764457
 20
4840256.062208963
 10
625553.698172744
 20
4840159.961002131
  0
LWPOLYLINE
  5
1F2
330
17
100
AcDbEntity
  8
ROADS
100
AcDbPolyline
 90
2
 70
0
 10
625890.9342676075
 20
4840277.879115616
 10
625832.3655764457
 20
4840256.062208963
  0
LWPOLYLINE
  5
1F3
330
17
100
AcDbEntity
  8
ROADS
100
AcDbPolyline
 90
2
 70
0
 10
625890.9342676075
 20
4840277.879115616
 10
625863.1950586974
 20
4840360.875080042
  0
LWPOLYLINE
  5
1F4
330
17
100
AcDbEntity
  8
ROADS
100
AcDbPolyline
 90
2
 70
0
 10
625684.494507124
 20
4840352.595462985
 10
625671.1861526626
 20
4840396.679221789
  0
LWPOLYLINE
  5
1F5
330
17
100
AcDbEntity
  8
ROADS
100
AcDbPolyline
 90
2
 70
0
 10
625741.0572245708
 20
4840374.679099675
 10
625657.1911393104
 20
4840499.438932179
  0
LWPOLYLINE
  5
1F6
330
17
100
AcDbEntity
  8
ROADS
100
AcDbPolyline
 90
2
 70
0
 10
625671.1861526626
 20
4840396.679221789
 10
625657.1911393104
 20
4840499.438932179
  0
LWPOLYLINE
  5
1F7
330
17
100
AcDbEntity
  8
ROADS
100
AcDbPolyline
 90
4
 70
0
 10
625863.1950586974
 20
4840360.875080042
 10
625851.934054381
 20
4840403.453316471
 10
625816.2759049231
 20
4840412.1351709785
 10
625752.5938990717
 20
4840545.630719162
  0
LWPOLYLINE
  5
1F8
330
17
100
AcDbEntity
  8
ROADS
100
AcDbPolyline
 90
2
 70
0
 10
625525.6396787047
 20
4840249.607495764
 10
625496.9246886638
 20
4840341.4337216485
  0
LWPOLYLINE
  5
1F9
330
17
100
AcDbEntity
  8
ROADS
100
AcDbPolyline
 90
2
 70
0
 10
625496.9246886638
 20
4840341.4337216485
 10
625294.6120831504
 20
4840280.530448036
  0
LWPOLYLINE
  5
1FA
330
17
100
AcDbEntity
  8
ROADS
100
AcDbPolyline
 90
2
 70
0
 10
625671.1861526626
 20
4840396.679221789
 10
625496.9246886638
 20
4840341.4337216485
  0
LWPOLYLINE
  5
1FB
330
17
100
AcDbEntity
  8
ROADS
100
AcDbPolyline
 90
2
 70
0
 10
625496.9246886638
 20
4840341.4337216485
 10
625468.7892400515
 20
4840435.054520054
  0
LWPOLYLINE
  5
1FC
330
17
100
AcDbEntity
  8
ROADS
100
AcDbPolyline
 90
2
 70
0
 10
625468.7892400515
 20
4840435.054520054
 10
625417.2645801705
 20
4840419.339893989
  0
LWPOLYLINE
  5
1FD
330
17
100
AcDbEntity
  8
ROADS
100
AcDbPolyline
 90
2
 70
0
 10
625468.7892400515
 20
4840435.054520054
 10
625593.7716611639
 20
4840473.120978236
  0
LWPOLYLINE
  5
1FE
330
17
100
AcDbEntity
  8
ROADS
100
AcDbPolyline
 90
2
 70
0
 10
625468.7892400515
 20
4840435.054520054
 10
625461.5159887556
 20
4840458.83247799
  0
LWPOLYLINE
  5
1FF
330
17
100
AcDbEntity
  8
ROADS
100
AcDbPolyline
 90
2
 70
0
 10
626257.6381032557
 20
4840393.824490844
 10
626166.5104882246
 20
4840364.819043693
  0
LWPOLYLINE
  5
200
330
17
100
AcDbEntity
  8
ROADS
100
AcDbPolyline
 90
2
 70
0
 10
626005.0042160725
 20
4840405.375369159
 10
625863.1950586974
 20
4840360.875080042
  0
LWPOLYLINE
  5
201
330
17
100
AcDbEntity
  8
ROADS
100
AcDbPolyline
 90
2
 70
0
 10
626048.425290224
 20
4840419.1087768115
 10
626005.0042160725
 20
4840405.375369159
  0
LWPOLYLINE
  5
202
330
17
100
AcDbEntity
  8
ROADS
100
AcDbPolyline
 90
2
 70
0
 10
626231.687271556
 20
4840477.1339126015
 10
626048.425290224
 20
4840419.1087768115
  0
LWPOLYLINE
  5
203
330
17
100
AcDbEntity
  8
ROADS
100
AcDbPolyline
 90
2
 70
0
 10
626005.0042160725
 20
4840405.375369159
 10
625958.8745341749
 20
4840503.203482854
  0
LWPOLYLINE
  5
204
330
17
100
AcDbEntity
  8
ROADS
100
AcDbPolyline
 90
2
 70
0
 10
625958.8745341749
 20
4840503.203482854
 10
625906.3272475251
 20
4840549.973977071
  0
LWPOLYLINE
  5
205
330
17
100
AcDbEntity
  8
ROADS
100
AcDbPolyline
 90
2
 70
0
 10
625996.1576332203
 20
4840564.115611588
 10
625958.8745341749
 20
4840503.203482854
  0
LWPOLYLINE
  5
206
330
17
100
AcDbEntity
  8
ROADS
100
AcDbPolyline
 90
2
 70
0
 10
625996.1576332203
 20
4840564.115611588
 10
625906.3272475251
 20
4840549.973977071
  0
LWPOLYLINE
  5
207
330
17
100
AcDbEntity
  8
ROADS
100
AcDbPolyline
 90
4
 70
0
 10
626384.5741497069
 20
4840623.500811997
 10
626070.9329051438
 20
4840525.654265333
 10
626048.9705452572
 20
4840582.641248809
 10
625996.1576332203
 20
4840564.115611588
  0
LWPOLYLINE
  5
208
330
17
100
AcDbEntity
  8
ROADS
100
AcDbPolyline
 90
2
 70
0
 10
626357.8869844812
 20
4840715.444441012
 10
626023.3067302833
 20
4840615.598843449
  0
LWPOLYLINE
  5
209
330
17
100
AcDbEntity
  8
ROADS
100
AcDbPolyline
 90
2
 70
0
 10
625854.9114353808
 20
4840532.830210603
 10
625817.16995592
 20
4840530.635226283
  0
LWPOLYLINE
  5
20A
330
17
100
AcDbEntity
  8
ROADS
100
AcDbPolyline
 90
2
 70
0
 10
625817.16995592
 20
4840530.635226283
 10
625820.2947454738
 20
4840541.821412662
  0
LWPOLYLINE
  5
20B
330
17
100
AcDbEntity
  8
ROADS
100
AcDbPolyline
 90
2
 70
0
 10
625817.16995592
 20
4840530.635226283
 10
625752.5938990717
 20
4840545.630719162
  0
LWPOLYLINE
  5
20C
330
17
100
AcDbEntity
  8
ROADS
100
AcDbPolyline
 90
2
 70
0
 10
625889.7107856577
 20
4840545.358565543
 10
625854.9114353808
 20
4840532.830210603
  0
LWPOLYLINE
  5
20D
330
17
100
AcDbEntity
  8
ROADS
100
AcDbPolyline
 90
2
 70
0
 10
625657.1911393104
 20
4840499.438932179
 10
625637.4993693859
 20
4840573.306963045
  0
LWPOLYLINE
  5
20E
330
17
100
AcDbEntity
  8
ROADS
100
AcDbPolyline
 90
2
 70
0
 10
625906.3272475251
 20
4840549.973977071
 10
625889.7107856577
 20
4840545.358565543
  0
LWPOLYLINE
  5
20F
330
17
100
AcDbEntity
  8
ROADS
100
AcDbPolyline
 90
2
 70
0
 10
625854.9114353808
 20
4840532.830210603
 10
625850.0839491667
 20
4840564.621715758
  0
LWPOLYLINE
  5
210
330
17
100
AcDbEntity
  8
ROADS
100
AcDbPolyline
 90
2
 70
0
 10
625850.0839491667
 20
4840564.621715758
 10
625839.49429848
 20
4840564.513109812
  0
LWPOLYLINE
  5
211
330
17
100
AcDbEntity
  8
ROADS
100
AcDbPolyline
 90
2
 70
0
 10
625889.7107856577
 20
4840545.358565543
 10
625874.5281692805
 20
4840594.533729319
  0
LWPOLYLINE
  5
212
330
17
100
AcDbEntity
  8
ROADS
100
AcDbPolyline
 90
3
 70
0
 10
625906.3272475251
 20
4840549.973977071
 10
625893.8590726845
 20
4840589.2401784565
 10
625874.5281692805
 20
4840594.533729319
  0
LWPOLYLINE
  5
213
330
17
100
AcDbEntity
  8
ROADS
100
AcDbPolyline
 90
2
 70
0
 10
625850.0839491667
 20
4840564.621715758
 10
625874.5281692805
 20
4840594.533729319
  0
LWPOLYLINE
  5
214
330
17
100
AcDbEntity
  8
ROADS
100
AcDbPolyline
 90
2
 70
0
 10
625752.5938990717
 20
4840545.630719162
 10
625725.0564642224
 20
4840613.051067305
  0
LWPOLYLINE
  5
215
330
17
100
AcDbEntity
  8
ROADS
100
AcDbPolyline
 90
2
 70
0
 10
625874.5281692805
 20
4840594.533729319
 10
625855.2754455296
 20
4840655.567913174
  0
LWPOLYLINE
  5
216
330
17
100
AcDbEntity
  8
ROADS
100
AcDbPolyline
 90
2
 70
0
 10
625914.3481614455
 20
4838611.224172998
 10
625910.3956740997
 20
4838623.836818173
  0
LWPOLYLINE
  5
217
330
17
100
AcDbEntity
  8
ROADS
100
AcDbPolyline
 90
2
 70
0
 10
625910.3956740997
 20
4838623.836818173
 10
625889.1150243563
 20
4838617.229851294
  0
LWPOLYLINE
  5
218
330
17
100
AcDbEntity
  8
ROADS
100
AcDbPolyline
 90
2
 70
0
 10
625730.1945570122
 20
4838673.200442942
 10
625723.8581983286
 20
4838692.705825701
  0
LWPOLYLINE
  5
219
330
17
100
AcDbEntity
  8
ROADS
100
AcDbPolyline
 90
2
 70
0
 10
626114.7131747796
 20
4838585.786257447
 10
626063.0673116395
 20
4838622.194142963
  0
LWPOLYLINE
  5
21A
330
17
100
AcDbEntity
  8
ROADS
100
AcDbPolyline
 90
2
 70
0
 10
626074.0341763783
 20
4838587.295498037
 10
626063.0673116395
 20
4838622.194142963
  0
LWPOLYLINE
  5
21B
330
17
100
AcDbEntity
  8
ROADS
100
AcDbPolyline
 90
3
 70
0
 10
626063.0673116395
 20
4838622.194142963
 10
626054.5139461977
 20
4838607.369565855
 10
626010.4984381775
 20
4838593.893688454
  0
LWPOLYLINE
  5
21C
330
17
100
AcDbEntity
  8
ROADS
100
AcDbPolyline
 90
2
 70
0
 10
625723.8581983286
 20
4838692.705825701
 10
625702.8848643595
 20
4838685.733052416
  0
LWPOLYLINE
  5
21D
330
17
100
AcDbEntity
  8
ROADS
100
AcDbPolyline
 90
2
 70
0
 10
626388.0131034993
 20
4838616.970056546
 10
626368.247793644
 20
4838680.166491037
  0
LWPOLYLINE
  5
21E
330
17
100
AcDbEntity
  8
ROADS
100
AcDbPolyline
 90
2
 70
0
 10
626339.5244005526
 20
4838604.907143305
 10
626321.4969288411
 20
4838663.971923091
  0
LWPOLYLINE
  5
21F
330
17
100
AcDbEntity
  8
ROADS
100
AcDbPolyline
 90
4
 70
0
 10
626451.3615983843
 20
4838634.195022966
 10
626442.038971866
 20
4838662.266115861
 10
626397.2727367354
 20
4838684.190719036
 10
626368.247793644
 20
4838680.166491037
  0
LWPOLYLINE
  5
220
330
17
100
AcDbEntity
  8
ROADS
100
AcDbPolyline
 90
3
 70
0
 10
626302.2180036115
 20
4838748.050711881
 10
626248.5036472137
 20
4838733.519782972
 10
626291.4410635625
 20
4838597.1725500375
  0
LWPOLYLINE
  5
221
330
17
100
AcDbEntity
  8
ROADS
100
AcDbPolyline
 90
2
 70
0
 10
626368.247793644
 20
4838680.166491037
 10
626321.4969288411
 20
4838663.971923091
  0
LWPOLYLINE
  5
222
330
17
100
AcDbEntity
  8
ROADS
100
AcDbPolyline
 90
2
 70
0
 10
626321.4969288411
 20
4838663.971923091
 10
626302.2180036115
 20
4838748.050711881
  0
LWPOLYLINE
  5
223
330
17
100
AcDbEntity
  8
ROADS
100
AcDbPolyline
 90
3
 70
0
 10
626368.247793644
 20
4838680.166491037
 10
626342.7668691719
 20
4838758.585273717
 10
626302.2180036115
 20
4838748.050711881
  0
LWPOLYLINE
  5
224
330
17
100
AcDbEntity
  8
ROADS
100
AcDbPolyline
 90
3
 70
0
 10
625910.3956740997
 20
4838623.836818173
 10
625889.96614569
 20
4838693.351346893
 10
625896.0080494465
 20
4838736.6101476895
  0
LWPOLYLINE
  5
225
330
17
100
AcDbEntity
  8
ROADS
100
AcDbPolyline
 90
3
 70
0
 10
625820.7085845448
 20
4838637.7420560215
 10
625784.293484087
 20
4838752.205394437
 10
625806.9000449051
 20
4838797.912943662
  0
LWPOLYLINE
  5
226
330
17
100
AcDbEntity
  8
ROADS
100
AcDbPolyline
 90
2
 70
0
 10
625919.8423282647
 20
4838719.643265389
 10
625896.0080494465
 20
4838736.6101476895
  0
LWPOLYLINE
  5
227
330
17
100
AcDbEntity
  8
ROADS
100
AcDbPolyline
 90
2
 70
0
 10
625723.8581983286
 20
4838692.705825701
 10
625692.5044677074
 20
4838789.314278028
  0
LWPOLYLINE
  5
228
330
17
100
AcDbEntity
  8
ROADS
100
AcDbPolyline
 90
2
 70
0
 10
625919.8423282647
 20
4838719.643265389
 10
625912.2951288511
 20
4838776.243051508
  0
LWPOLYLINE
  5
229
330
17
100
AcDbEntity
  8
ROADS
100
AcDbPolyline
 90
2
 70
0
 10
625896.0080494465
 20
4838736.6101476895
 10
625842.7370109804
 20
4838774.643806633
  0
LWPOLYLINE
  5
22A
330
17
100
AcDbEntity
  8
ROADS
100
AcDbPolyline
 90
2
 70
0
 10
625842.7370109804
 20
4838774.643806633
 10
625824.1357020466
 20
4838787.925120435
  0
LWPOLYLINE
  5
22B
330
17
100
AcDbEntity
  8
ROADS
100
AcDbPolyline
 90
2
 70
0
 10
625692.5044677074
 20
4838789.314278028
 10
625650.9118215805
 20
4838775.479162104
  0
LWPOLYLINE
  5
22C
330
17
100
AcDbEntity
  8
ROADS
100
AcDbPolyline
 90
3
 70
0
 10
625842.7370109804
 20
4838774.643806633
 10
625864.177699392
 20
4838806.9614989925
 10
625912.2951288511
 20
4838776.243051508
  0
LWPOLYLINE
  5
22D
330
17
100
AcDbEntity
  8
ROADS
100
AcDbPolyline
 90
2
 70
0
 10
625824.1357020466
 20
4838787.925120435
 10
625806.9000449051
 20
4838797.912943662
  0
LWPOLYLINE
  5
22E
330
17
100
AcDbEntity
  8
ROADS
100
AcDbPolyline
 90
2
 70
0
 10
626063.0673116395
 20
4838622.194142963
 10
625982.762462703
 20
4838676.8258372415
  0
LWPOLYLINE
  5
22F
330
17
100
AcDbEntity
  8
ROADS
100
AcDbPolyline
 90
3
 70
0
 10
625982.762462703
 20
4838676.8258372415
 10
625953.9041307995
 20
4838639.321673614
 10
625910.3956740997
 20
4838623.836818173
  0
LWPOLYLINE
  5
230
330
17
100
AcDbEntity
  8
ROADS
100
AcDbPolyline
 90
2
 70
0
 10
625982.762462703
 20
4838676.8258372415
 10
625919.8423282647
 20
4838719.643265389
  0
LWPOLYLINE
  5
231
330
17
100
AcDbEntity
  8
ROADS
100
AcDbPolyline
 90
3
 70
0
 10
626248.8977585161
 20
4838590.392731561
 10
626185.1779300247
 20
4838817.442327088
 10
626135.8027900378
 20
4838915.973040493
  0
LWPOLYLINE
  5
232
330
17
100
AcDbEntity
  8
ROADS
100
AcDbPolyline
 90
2
 70
0
 10
626178.3351711547
 20
4838586.068632587
 10
626076.3304338524
 20
4838896.947175782
  0
LWPOLYLINE
  5
233
330
17
100
AcDbEntity
  8
ROADS
100
AcDbPolyline
 90
2
 70
0
 10
626063.0673116395
 20
4838622.194142963
 10
625977.1623734199
 20
4838898.619508448
  0
LWPOLYLINE
  5
234
330
17
100
AcDbEntity
  8
ROADS
100
AcDbPolyline
 90
2
 70
0
 10
625977.1623734199
 20
4838898.619508448
 10
625997.260925511
 20
4838908.881654321
  0
LWPOLYLINE
  5
235
330
17
100
AcDbEntity
  8
ROADS
100
AcDbPolyline
 90
2
 70
0
 10
626135.8027900378
 20
4838915.973040493
 10
626076.3304338524
 20
4838896.947175782
  0
LWPOLYLINE
  5
236
330
17
100
AcDbEntity
  8
ROADS
100
AcDbPolyline
 90
2
 70
0
 10
625997.260925511
 20
4838908.881654321
 10
626010.544063287
 20
4838915.772325421
  0
LWPOLYLINE
  5
237
330
17
100
AcDbEntity
  8
ROADS
100
AcDbPolyline
 90
2
 70
0
 10
626076.3304338524
 20
4838896.947175782
 10
626059.8833670579
 20
4838933.274811416
  0
LWPOLYLINE
  5
238
330
17
100
AcDbEntity
  8
ROADS
100
AcDbPolyline
 90
3
 70
0
 10
625650.9118215805
 20
4838775.479162104
 10
625664.9385500115
 20
4838727.495114861
 10
625640.2701061883
 20
4838719.207657903
  0
LWPOLYLINE
  5
239
330
17
100
AcDbEntity
  8
ROADS
100
AcDbPolyline
 90
2
 70
0
 10
625650.9118215805
 20
4838775.479162104
 10
625584.8959354314
 20
4838752.727494195
  0
LWPOLYLINE
  5
23A
330
17
100
AcDbEntity
  8
ROADS
100
AcDbPolyline
 90
2
 70
0
 10
625636.1104731776
 20
4838819.679976892
 10
625538.8624547772
 20
4838786.066952998
  0
LWPOLYLINE
  5
23B
330
17
100
AcDbEntity
  8
ROADS
100
AcDbPolyline
 90
2
 70
0
 10
625622.2351483857
 20
4838861.117879285
 10
625560.1547860013
 20
4838840.596292649
  0
LWPOLYLINE
  5
23C
330
17
100
AcDbEntity
  8
ROADS
100
AcDbPolyline
 90
2
 70
0
 10
625531.00935558
 20
4838928.265118289
 10
625487.1143877078
 20
4838827.860240734
  0
LWPOLYLINE
  5
23D
330
17
100
AcDbEntity
  8
ROADS
100
AcDbPolyline
 90
3
 70
0
 10
625622.2351483857
 20
4838861.117879285
 10
625612.0936336619
 20
4838890.691635532
 10
625531.00935558
 20
4838928.265118289
  0
LWPOLYLINE
  5
23E
330
17
100
AcDbEntity
  8
ROADS
100
AcDbPolyline
 90
2
 70
0
 10
625650.9118215805
 20
4838775.479162104
 10
625636.1104731776
 20
4838819.679976892
  0
LWPOLYLINE
  5
23F
330
17
100
AcDbEntity
  8
ROADS
100
AcDbPolyline
 90
2
 70
0
 10
625806.9000449051
 20
4838797.912943662
 10
625748.6005142494
 20
4838841.541950723
  0
LWPOLYLINE
  5
240
330
17
100
AcDbEntity
  8
ROADS
100
AcDbPolyline
 90
2
 70
0
 10
625692.5044677074
 20
4838789.314278028
 10
625669.9795561342
 20
4838861.634012023
  0
LWPOLYLINE
  5
241
330
17
100
AcDbEntity
  8
ROADS
100
AcDbPolyline
 90
3
 70
0
 10
625748.6005142494
 20
4838841.541950723
 10
625726.8190805146
 20
4838809.4861187935
 10
625713.887518342
 20
4838828.715322976
  0
LWPOLYLINE
  5
242
330
17
100
AcDbEntity
  8
ROADS
100
AcDbPolyline
 90
2
 70
0
 10
625824.1357020466
 20
4838787.925120435
 10
625793.9309046249
 20
4838883.350306839
  0
LWPOLYLINE
  5
243
330
17
100
AcDbEntity
  8
ROADS
100
AcDbPolyline
 90
2
 70
0
 10
625636.1104731776
 20
4838819.679976892
 10
625622.2351483857
 20
4838861.117879285
  0
LWPOLYLINE
  5
244
330
17
100
AcDbEntity
  8
ROADS
100
AcDbPolyline
 90
2
 70
0
 10
625748.6005142494
 20
4838841.541950723
 10
625697.3504683636
 20
4838880.578189843
  0
LWPOLYLINE
  5
245
330
17
100
AcDbEntity
  8
ROADS
100
AcDbPolyline
 90
2
 70
0
 10
625665.4442811924
 20
4838875.400769654
 10
625622.2351483857
 20
4838861.117879285
  0
LWPOLYLINE
  5
246
330
17
100
AcDbEntity
  8
ROADS
100
AcDbPolyline
 90
2
 70
0
 10
625669.9795561342
 20
4838861.634012023
 10
625665.4442811924
 20
4838875.400769654
  0
LWPOLYLINE
  5
247
330
17
100
AcDbEntity
  8
ROADS
100
AcDbPolyline
 90
2
 70
0
 10
625669.9795561342
 20
4838861.634012023
 10
625697.3504683636
 20
4838880.578189843
  0
LWPOLYLINE
  5
248
330
17
100
AcDbEntity
  8
ROADS
100
AcDbPolyline
 90
2
 70
0
 10
626530.2638090546
 20
4839713.290552314
 10
626515.9078798136
 20
4839758.8150816895
  0
LWPOLYLINE
  5
249
330
17
100
AcDbEntity
  8
ROADS
100
AcDbPolyline
 90
2
 70
0
 10
626643.553135038
 20
4839747.507585818
 10
626616.370889004
 20
4839739.24934306
  0
LWPOLYLINE
  5
24A
330
17
100
AcDbEntity
  8
ROADS
100
AcDbPolyline
 90
2
 70
0
 10
626616.370889004
 20
4839739.24934306
 10
626602.1849150981
 20
4839786.683572978
  0
LWPOLYLINE
  5
24B
330
17
100
AcDbEntity
  8
ROADS
100
AcDbPolyline
 90
2
 70
0
 10
626602.1849150981
 20
4839786.683572978
 10
626515.9078798136
 20
4839758.8150816895
  0
LWPOLYLINE
  5
24C
330
17
100
AcDbEntity
  8
ROADS
100
AcDbPolyline
 90
2
 70
0
 10
626787.0538447115
 20
4839793.166384533
 10
626702.8814761557
 20
4839765.762980116
  0
LWPOLYLINE
  5
24D
330
17
100
AcDbEntity
  8
ROADS
100
AcDbPolyline
 90
2
 70
0
 10
626792.2275624918
 20
4839776.9479929935
 10
626787.0538447115
 20
4839793.166384533
  0
LWPOLYLINE
  5
24E
330
17
100
AcDbEntity
  8
ROADS
100
AcDbPolyline
 90
2
 70
0
 10
626702.8814761557
 20
4839765.762980116
 10
626687.9708066586
 20
4839813.896153275
  0
LWPOLYLINE
  5
24F
330
17
100
AcDbEntity
  8
ROADS
100
AcDbPolyline
 90
2
 70
0
 10
626687.9708066586
 20
4839813.896153275
 10
626602.1849150981
 20
4839786.683572978
  0
LWPOLYLINE
  5
250
330
17
100
AcDbEntity
  8
ROADS
100
AcDbPolyline
 90
2
 70
0
 10
626700.1527939453
 20
4839817.751769323
 10
626687.9708066586
 20
4839813.896153275
  0
LWPOLYLINE
  5
251
330
17
100
AcDbEntity
  8
ROADS
100
AcDbPolyline
 90
2
 70
0
 10
626687.053209569
 20
4839859.971345795
 10
626411.5577651538
 20
4839773.345186473
  0
LWPOLYLINE
  5
252
330
17
100
AcDbEntity
  8
ROADS
100
AcDbPolyline
 90
2
 70
0
 10
627115.021440298
 20
4839708.898350487
 10
627022.572234176
 20
4839678.302013847
  0
LWPOLYLINE
  5
253
330
17
100
AcDbEntity
  8
ROADS
100
AcDbPolyline
 90
3
 70
0
 10
626893.2903513394
 20
4839621.030745852
 10
626838.6089135747
 20
4839791.456950465
 10
626792.2275624918
 20
4839776.9479929935
  0
LWPOLYLINE
  5
254
330
17
100
AcDbEntity
  8
ROADS
100
AcDbPolyline
 90
2
 70
0
 10
626930.4219483653
 20
4839650.476271105
 10
626889.6510787965
 20
4839782.333783136
  0
LWPOLYLINE
  5
255
330
17
100
AcDbEntity
  8
ROADS
100
AcDbPolyline
 90
4
 70
0
 10
627115.021440298
 20
4839708.898350487
 10
627097.9978944515
 20
4839745.187629778
 10
627005.5781748627
 20
4839812.681855788
 10
626889.6510787965
 20
4839782.333783136
  0
LWPOLYLINE
  5
256
330
17
100
AcDbEntity
  8
ROADS
100
AcDbPolyline
 90
2
 70
0
 10
626889.6510787965
 20
4839782.333783136
 10
626862.1233031615
 20
4839868.017523588
  0
LWPOLYLINE
  5
257
330
17
100
AcDbEntity
  8
ROADS
100
AcDbPolyline
 90
2
 70
0
 10
626862.1233031615
 20
4839868.017523588
 10
626772.0064999252
 20
4839840.341037738
  0
LWPOLYLINE
  5
258
330
17
100
AcDbEntity
  8
ROADS
100
AcDbPolyline
 90
2
 70
0
 10
626862.1233031615
 20
4839868.017523588
 10
626855.3058205673
 20
4839912.73942174
  0
LWPOLYLINE
  5
259
330
17
100
AcDbEntity
  8
ROADS
100
AcDbPolyline
 90
2
 70
0
 10
627056.1864860447
 20
4839929.027580515
 10
626862.1233031615
 20
4839868.017523588
  0
LWPOLYLINE
  5
25A
330
17
100
AcDbEntity
  8
ROADS
100
AcDbPolyline
 90
2
 70
0
 10
626855.3058205673
 20
4839912.73942174
 10
626853.8616606595
 20
4839934.853646686
  0
LWPOLYLINE
  5
25B
330
17
100
AcDbEntity
  8
ROADS
100
AcDbPolyline
 90
2
 70
0
 10
627056.1864860447
 20
4839929.027580515
 10
627034.7310764751
 20
4839973.142147095
  0
LWPOLYLINE
  5
25C
330
17
100
AcDbEntity
  8
ROADS
100
AcDbPolyline
 90
2
 70
0
 10
626787.0538447115
 20
4839793.166384533
 10
626772.0064999252
 20
4839840.341037738
  0
LWPOLYLINE
  5
25D
330
17
100
AcDbEntity
  8
ROADS
100
AcDbPolyline
 90
2
 70
0
 10
626772.0064999252
 20
4839840.341037738
 10
626700.1527939453
 20
4839817.751769323
  0
LWPOLYLINE
  5
25E
330
17
100
AcDbEntity
  8
ROADS
100
AcDbPolyline
 90
2
 70
0
 10
626700.1527939453
 20
4839817.751769323
 10
626687.053209569
 20
4839859.971345795
  0
LWPOLYLINE
  5
25F
330
17
100
AcDbEntity
  8
ROADS
100
AcDbPolyline
 90
2
 70
0
 10
626670.4617253433
 20
4839910.962278002
 10
626394.2048602167
 20
4839824.966343598
  0
LWPOLYLINE
  5
260
330
17
100
AcDbEntity
  8
ROADS
100
AcDbPolyline
 90
2
 70
0
 10
626687.053209569
 20
4839859.971345795
 10
626670.4617253433
 20
4839910.962278002
  0
LWPOLYLINE
  5
261
330
17
100
AcDbEntity
  8
ROADS
100
AcDbPolyline
 90
2
 70
0
 10
626855.3058205673
 20
4839912.73942174
 10
626687.053209569
 20
4839859.971345795
  0
LWPOLYLINE
  5
262
330
17
100
AcDbEntity
  8
ROADS
100
AcDbPolyline
 90
3
 70
0
 10
626853.8616606595
 20
4839934.853646686
 10
626753.0375823756
 20
4839934.1865795255
 10
626670.4617253433
 20
4839910.962278002
  0
LWPOLYLINE
  5
263
330
17
100
AcDbEntity
  8
ROADS
100
AcDbPolyline
 90
2
 70
0
 10
626670.4617253433
 20
4839910.962278002
 10
626639.0062950853
 20
4840004.240854968
  0
LWPOLYLINE
  5
264
330
17
100
AcDbEntity
  8
ROADS
100
AcDbPolyline
 90
3
 70
0
 10
626846.0454482028
 20
4840032.73122153
 10
626758.4520988127
 20
4840034.113613029
 10
626639.0062950853
 20
4840004.240854968
  0
LWPOLYLINE
  5
265
330
17
100
AcDbEntity
  8
ROADS
100
AcDbPolyline
 90
2
 70
0
 10
626639.0062950853
 20
4840004.240854968
 10
626609.8926259266
 20
4840093.172518719
  0
LWPOLYLINE
  5
266
330
17
100
AcDbEntity
  8
ROADS
100
AcDbPolyline
 90
2
 70
0
 10
626394.2048602167
 20
4839824.966343598
 10
626254.8464626861
 20
4839780.142568767
  0
LWPOLYLINE
  5
267
330
17
100
AcDbEntity
  8
ROADS
100
AcDbPolyline
 90
2
 70
0
 10
626254.8464626861
 20
4839780.142568767
 10
626225.7950504378
 20
4839872.105454611
  0
LWPOLYLINE
  5
268
330
17
100
AcDbEntity
  8
ROADS
100
AcDbPolyline
 90
2
 70
0
 10
626394.2048602167
 20
4839824.966343598
 10
626366.0779114303
 20
4839916.628970795
  0
LWPOLYLINE
  5
269
330
17
100
AcDbEntity
  8
ROADS
100
AcDbPolyline
 90
2
 70
0
 10
626366.0779114303
 20
4839916.628970795
 10
626225.7950504378
 20
4839872.105454611
  0
LWPOLYLINE
  5
26A
330
17
100
AcDbEntity
  8
ROADS
100
AcDbPolyline
 90
2
 70
0
 10
626639.0062950853
 20
4840004.240854968
 10
626366.0779114303
 20
4839916.628970795
  0
LWPOLYLINE
  5
26B
330
17
100
AcDbEntity
  8
ROADS
100
AcDbPolyline
 90
2
 70
0
 10
626366.0779114303
 20
4839916.628970795
 10
626336.0022652642
 20
4840006.056195156
  0
LWPOLYLINE
  5
26C
330
17
100
AcDbEntity
  8
ROADS
100
AcDbPolyline
 90
2
 70
0
 10
626336.0022652642
 20
4840006.056195156
 10
626197.843140588
 20
4839961.058038277
  0
LWPOLYLINE
  5
26D
330
17
100
AcDbEntity
  8
ROADS
100
AcDbPolyline
 90
2
 70
0
 10
626609.8926259266
 20
4840093.172518719
 10
626336.0022652642
 20
4840006.056195156
  0
LWPOLYLINE
  5
26E
330
17
100
AcDbEntity
  8
ROADS
100
AcDbPolyline
 90
2
 70
0
 10
626336.0022652642
 20
4840006.056195156
 10
626308.4922437147
 20
4840094.571766104
  0
LWPOLYLINE
  5
26F
330
17
100
AcDbEntity
  8
ROADS
100
AcDbPolyline
 90
2
 70
0
 10
626308.4922437147
 20
4840094.571766104
 10
626291.0964431508
 20
4840151.822450191
  0
LWPOLYLINE
  5
270
330
17
100
AcDbEntity
  8
ROADS
100
AcDbPolyline
 90
2
 70
0
 10
626853.8616606595
 20
4839934.853646686
 10
626846.0454482028
 20
4840032.73122153
  0
LWPOLYLINE
  5
271
330
17
100
AcDbEntity
  8
ROADS
100
AcDbPolyline
 90
3
 70
0
 10
627034.7310764751
 20
4839973.142147095
 10
627003.8789814382
 20
4839997.584497758
 10
626846.0454482028
 20
4840032.73122153
  0
LWPOLYLINE
  5
272
330
17
100
AcDbEntity
  8
ROADS
100
AcDbPolyline
 90
2
 70
0
 10
627034.7310764751
 20
4839973.142147095
 10
627029.3058659036
 20
4840034.545782757
  0
LWPOLYLINE
  5
273
330
17
100
AcDbEntity
  8
ROADS
100
AcDbPolyline
 90
2
 70
0
 10
626846.0454482028
 20
4840032.73122153
 10
626829.0402482015
 20
4840127.922383341
  0
LWPOLYLINE
  5
274
330
17
100
AcDbEntity
  8
ROADS
100
AcDbPolyline
 90
3
 70
0
 10
627112.2594072898
 20
4840084.048597205
 10
626972.6880875415
 20
4840118.523646317
 10
626829.0402482015
 20
4840127.922383341
  0
LWPOLYLINE
  5
275
330
17
100
AcDbEntity
  8
ROADS
100
AcDbPolyline
 90
3
 70
0
 10
627112.2594072898
 20
4840084.048597205
 10
627089.2317393951
 20
4840189.13748634
 10
627004.515144588
 20
4840214.970390709
  0
LWPOLYLINE
  5
276
330
17
100
AcDbEntity
  8
ROADS
100
AcDbPolyline
 90
2
 70
0
 10
626829.0402482015
 20
4840127.922383341
 10
626807.8194435902
 20
4840231.532780579
  0
LWPOLYLINE
  5
277
330
17
100
AcDbEntity
  8
ROADS
100
AcDbPolyline
 90
2
 70
0
 10
627004.515144588
 20
4840214.970390709
 10
627001.3690724246
 20
4840200.371573214
  0
LWPOLYLINE
  5
278
330
17
100
AcDbEntity
  8
ROADS
100
AcDbPolyline
 90
2
 70
0
 10
627004.515144588
 20
4840214.970390709
 10
626807.8194435902
 20
4840231.532780579
  0
LWPOLYLINE
  5
279
330
17
100
AcDbEntity
  8
ROADS
100
AcDbPolyline
 90
2
 70
0
 10
626807.8194435902
 20
4840231.532780579
 10
626797.9938976178
 20
4840283.70719679
  0
LWPOLYLINE
  5
27A
330
17
100
AcDbEntity
  8
ROADS
100
AcDbPolyline
 90
2
 70
0
 10
626582.38464888
 20
4840181.683192116
 10
626308.4922437147
 20
4840094.571766104
  0
LWPOLYLINE
  5
27B
330
17
100
AcDbEntity
  8
ROADS
100
AcDbPolyline
 90
2
 70
0
 10
626291.0964431508
 20
4840151.822450191
 10
626282.7234772374
 20
4840164.56122473
  0
LWPOLYLINE
  5
27C
330
17
100
AcDbEntity
  8
ROADS
100
AcDbPolyline
 90
2
 70
0
 10
626224.0581097978
 20
4840176.715077375
 10
626282.7234772374
 20
4840164.56122473
  0
LWPOLYLINE
  5
27D
330
17
100
AcDbEntity
  8
ROADS
100
AcDbPolyline
 90
2
 70
0
 10
626224.0581097978
 20
4840176.715077375
 10
626233.4466082967
 20
4840188.93365772
  0
LWPOLYLINE
  5
27E
330
17
100
AcDbEntity
  8
ROADS
100
AcDbPolyline
 90
2
 70
0
 10
626282.7234772374
 20
4840164.56122473
 10
626265.9595227671
 20
4840204.521472487
  0
LWPOLYLINE
  5
27F
330
17
100
AcDbEntity
  8
ROADS
100
AcDbPolyline
 90
2
 70
0
 10
626282.7234772374
 20
4840164.56122473
 10
626316.5115008869
 20
4840208.502629539
  0
LWPOLYLINE
  5
280
330
17
100
AcDbEntity
  8
ROADS
100
AcDbPolyline
 90
2
 70
0
 10
626233.4466082967
 20
4840188.93365772
 10
626265.9595227671
 20
4840204.521472487
  0
LWPOLYLINE
  5
281
330
17
100
AcDbEntity
  8
ROADS
100
AcDbPolyline
 90
2
 70
0
 10
626302.380942417
 20
4840212.577221577
 10
626265.9595227671
 20
4840204.521472487
  0
LWPOLYLINE
  5
282
330
17
100
AcDbEntity
  8
ROADS
100
AcDbPolyline
 90
2
 70
0
 10
626316.5115008869
 20
4840208.502629539
 10
626302.380942417
 20
4840212.577221577
  0
LWPOLYLINE
  5
283
330
17
100
AcDbEntity
  8
ROADS
100
AcDbPolyline
 90
2
 70
0
 10
626265.9595227671
 20
4840204.521472487
 10
626232.5174953749
 20
4840222.542840484
  0
LWPOLYLINE
  5
284
330
17
100
AcDbEntity
  8
ROADS
100
AcDbPolyline
 90
3
 70
0
 10
626829.0402482015
 20
4840127.922383341
 10
626718.1112409093
 20
4840126.112372905
 10
626609.8926259266
 20
4840093.172518719
  0
LWPOLYLINE
  5
285
330
17
100
AcDbEntity
  8
ROADS
100
AcDbPolyline
 90
2
 70
0
 10
626609.8926259266
 20
4840093.172518719
 10
626582.38464888
 20
4840181.683192116
  0
LWPOLYLINE
  5
286
330
17
100
AcDbEntity
  8
ROADS
100
AcDbPolyline
 90
3
 70
0
 10
626807.8194435902
 20
4840231.532780579
 10
626716.9902337494
 20
4840222.339934461
 10
626582.38464888
 20
4840181.683192116
  0
LWPOLYLINE
  5
287
330
17
100
AcDbEntity
  8
ROADS
100
AcDbPolyline
 90
3
 70
0
 10
626797.9938976178
 20
4840283.70719679
 10
626599.4208768584
 20
4840255.73788085
 10
626291.0964431508
 20
4840151.822450191
  0
LWPOLYLINE
  5
288
330
17
100
AcDbEntity
  8
ROADS
100
AcDbPolyline
 90
2
 70
0
 10
626663.5447659239
 20
4840326.596310827
 10
626496.7536073141
 20
4840275.806614889
  0
LWPOLYLINE
  5
289
330
17
100
AcDbEntity
  8
ROADS
100
AcDbPolyline
 90
2
 70
0
 10
626797.9938976178
 20
4840283.70719679
 10
626787.9802282337
 20
4840333.179041799
  0
LWPOLYLINE
  5
28A
330
17
100
AcDbEntity
  8
ROADS
100
AcDbPolyline
 90
3
 70
0
 10
626787.9802282337
 20
4840333.179041799
 10
626742.4645991473
 20
4840349.089523698
 10
626663.5447659239
 20
4840326.596310827
  0
LWPOLYLINE
  5
28B
330
17
100
AcDbEntity
  8
ROADS
100
AcDbPolyline
 90
2
 70
0
 10
626663.5447659239
 20
4840326.596310827
 10
626634.6724612914
 20
4840415.614326802
  0
LWPOLYLINE
  5
28C
330
17
100
AcDbEntity
  8
ROADS
100
AcDbPolyline
 90
2
 70
0
 10
626634.6724612914
 20
4840415.614326802
 10
626468.817776488
 20
4840363.255439596
  0
LWPOLYLINE
  5
28D
330
17
100
AcDbEntity
  8
ROADS
100
AcDbPolyline
 90
2
 70
0
 10
626787.9802282337
 20
4840333.179041799
 10
626764.4637761457
 20
4840446.26545687
  0
LWPOLYLINE
  5
28E
330
17
100
AcDbEntity
  8
ROADS
100
AcDbPolyline
 90
2
 70
0
 10
626316.5115008869
 20
4840208.502629539
 10
626312.480899835
 20
4840221.871003434
  0
LWPOLYLINE
  5
28F
330
17
100
AcDbEntity
  8
ROADS
100
AcDbPolyline
 90
2
 70
0
 10
626232.5174953749
 20
4840222.542840484
 10
626222.5656864619
 20
4840210.837098161
  0
LWPOLYLINE
  5
290
330
17
100
AcDbEntity
  8
ROADS
100
AcDbPolyline
 90
2
 70
0
 10
626302.380942417
 20
4840212.577221577
 10
626312.480899835
 20
4840221.871003434
  0
LWPOLYLINE
  5
291
330
17
100
AcDbEntity
  8
ROADS
100
AcDbPolyline
 90
2
 70
0
 10
626265.9595227671
 20
4840204.521472487
 10
626282.1764975718
 20
4840239.453279228
  0
LWPOLYLINE
  5
292
330
17
100
AcDbEntity
  8
ROADS
100
AcDbPolyline
 90
2
 70
0
 10
626312.480899835
 20
4840221.871003434
 10
626297.7435472116
 20
4840235.549687881
  0
LWPOLYLINE
  5
293
330
17
100
AcDbEntity
  8
ROADS
100
AcDbPolyline
 90
2
 70
0
 10
626282.1764975718
 20
4840239.453279228
 10
626232.5174953749
 20
4840222.542840484
  0
LWPOLYLINE
  5
294
330
17
100
AcDbEntity
  8
ROADS
100
AcDbPolyline
 90
2
 70
0
 10
626404.2639839
 20
4840248.340630789
 10
626312.480899835
 20
4840221.871003434
  0
LWPOLYLINE
  5
295
330
17
100
AcDbEntity
  8
ROADS
100
AcDbPolyline
 90
2
 70
0
 10
626297.7435472116
 20
4840235.549687881
 10
626282.1764975718
 20
4840239.453279228
  0
LWPOLYLINE
  5
296
330
17
100
AcDbEntity
  8
ROADS
100
AcDbPolyline
 90
2
 70
0
 10
626496.7536073141
 20
4840275.806614889
 10
626404.2639839
 20
4840248.340630789
  0
LWPOLYLINE
  5
297
330
17
100
AcDbEntity
  8
ROADS
100
AcDbPolyline
 90
2
 70
0
 10
626297.7435472116
 20
4840235.549687881
 10
626257.6381032557
 20
4840393.824490844
  0
LWPOLYLINE
  5
298
330
17
100
AcDbEntity
  8
ROADS
100
AcDbPolyline
 90
2
 70
0
 10
626496.7536073141
 20
4840275.806614889
 10
626468.817776488
 20
4840363.255439596
  0
LWPOLYLINE
  5
299
330
17
100
AcDbEntity
  8
ROADS
100
AcDbPolyline
 90
2
 70
0
 10
626404.2639839
 20
4840248.340630789
 10
626349.7051487394
 20
4840422.699942377
  0
LWPOLYLINE
  5
29A
330
17
100
AcDbEntity
  8
ROADS
100
AcDbPolyline
 90
2
 70
0
 10
626468.817776488
 20
4840363.255439596
 10
626441.9863128302
 20
4840451.460276431
  0
LWPOLYLINE
  5
29B
330
17
100
AcDbEntity
  8
ROADS
100
AcDbPolyline
 90
2
 70
0
 10
626349.7051487394
 20
4840422.699942377
 10
626257.6381032557
 20
4840393.824490844
  0
LWPOLYLINE
  5
29C
330
17
100
AcDbEntity
  8
ROADS
100
AcDbPolyline
 90
2
 70
0
 10
626257.6381032557
 20
4840393.824490844
 10
626231.687271556
 20
4840477.1339126015
  0
LWPOLYLINE
  5
29D
330
17
100
AcDbEntity
  8
ROADS
100
AcDbPolyline
 90
2
 70
0
 10
626441.9863128302
 20
4840451.460276431
 10
626349.7051487394
 20
4840422.699942377
  0
LWPOLYLINE
  5
29E
330
17
100
AcDbEntity
  8
ROADS
100
AcDbPolyline
 90
2
 70
0
 10
626441.9863128302
 20
4840451.460276431
 10
626412.8704429192
 20
4840535.312507373
  0
LWPOLYLINE
  5
29F
330
17
100
AcDbEntity
  8
ROADS
100
AcDbPolyline
 90
2
 70
0
 10
626412.8704429192
 20
4840535.312507373
 10
626231.687271556
 20
4840477.1339126015
  0
LWPOLYLINE
  5
2A0
330
17
100
AcDbEntity
  8
ROADS
100
AcDbPolyline
 90
2
 70
0
 10
626579.690787635
 20
4840587.57993796
 10
626412.8704429192
 20
4840535.312507373
  0
LWPOLYLINE
  5
2A1
330
17
100
AcDbEntity
  8
ROADS
100
AcDbPolyline
 90
2
 70
0
 10
626384.5741497069
 20
4840623.500811997
 10
626357.8869844812
 20
4840715.444441012
  0
LWPOLYLINE
  5
2A2
330
17
100
AcDbEntity
  8
ROADS
100
AcDbPolyline
 90
2
 70
0
 10
626764.4637761457
 20
4840446.26545687
 10
626634.6724612914
 20
4840415.614326802
  0
LWPOLYLINE
  5
2A3
330
17
100
AcDbEntity
  8
ROADS
100
AcDbPolyline
 90
2
 70
0
 10
626634.6724612914
 20
4840415.614326802
 10
626606.488745513
 20
4840504.987807876
  0
LWPOLYLINE
  5
2A4
330
17
100
AcDbEntity
  8
ROADS
100
AcDbPolyline
 90
2
 70
0
 10
626606.488745513
 20
4840504.987807876
 10
626441.9863128302
 20
4840451.460276431
  0
LWPOLYLINE
  5
2A5
330
17
100
AcDbEntity
  8
ROADS
100
AcDbPolyline
 90
2
 70
0
 10
626764.4637761457
 20
4840446.26545687
 10
626744.9255738638
 20
4840544.9239579085
  0
LWPOLYLINE
  5
2A6
330
17
100
AcDbEntity
  8
ROADS
100
AcDbPolyline
 90
2
 70
0
 10
626744.9255738638
 20
4840544.9239579085
 10
626606.488745513
 20
4840504.987807876
  0
LWPOLYLINE
  5
2A7
330
17
100
AcDbEntity
  8
ROADS
100
AcDbPolyline
 90
2
 70
0
 10
626606.488745513
 20
4840504.987807876
 10
626579.690787635
 20
4840587.57993796
  0
LWPOLYLINE
  5
2A8
330
17
100
AcDbEntity
  8
ROADS
100
AcDbPolyline
 90
2
 70
0
 10
626853.3447473262
 20
4840577.391570552
 10
626744.9255738638
 20
4840544.9239579085
  0
LWPOLYLINE
  5
2A9
330
17
100
AcDbEntity
  8
ROADS
100
AcDbPolyline
 90
2
 70
0
 10
626744.9255738638
 20
4840544.9239579085
 10
626726.8776471828
 20
4840635.611927589
  0
LWPOLYLINE
  5
2AA
330
17
100
AcDbEntity
  8
ROADS
100
AcDbPolyline
 90
2
 70
0
 10
626726.8776471828
 20
4840635.611927589
 10
626579.690787635
 20
4840587.57993796
  0
LWPOLYLINE
  5
2AB
330
17
100
AcDbEntity
  8
ROADS
100
AcDbPolyline
 90
2
 70
0
 10
626818.8374327343
 20
4840665.778621895
 10
626726.8776471828
 20
4840635.611927589
  0
LWPOLYLINE
  5
2AC
330
17
100
AcDbEntity
  8
ROADS
100
AcDbPolyline
 90
2
 70
0
 10
627556.5790619629
 20
4839659.25820383
 10
627527.0303383187
 20
4839743.852995864
  0
LWPOLYLINE
  5
2AD
330
17
100
AcDbEntity
  8
ROADS
100
AcDbPolyline
 90
2
 70
0
 10
627438.2761137949
 20
4839690.407022212
 10
627339.9399808114
 20
4839734.516838745
  0
LWPOLYLINE
  5
2AE
330
17
100
AcDbEntity
  8
ROADS
100
AcDbPolyline
 90
2
 70
0
 10
627438.2761137949
 20
4839690.407022212
 10
627381.3343442829
 20
4839864.982862442
  0
LWPOLYLINE
  5
2AF
330
17
100
AcDbEntity
  8
ROADS
100
AcDbPolyline
 90
2
 70
0
 10
627527.0303383187
 20
4839743.852995864
 10
627497.8821714958
 20
4839831.789230332
  0
LWPOLYLINE
  5
2B0
330
17
100
AcDbEntity
  8
ROADS
100
AcDbPolyline
 90
4
 70
0
 10
627674.7675615433
 20
4839786.948885212
 10
627654.443463131
 20
4839844.481360585
 10
627624.5403215572
 20
4839862.017498522
 10
627497.8821714958
 20
4839831.789230332
  0
LWPOLYLINE
  5
2B1
330
17
100
AcDbEntity
  8
ROADS
100
AcDbPolyline
 90
2
 70
0
 10
627497.8821714958
 20
4839831.789230332
 10
627477.6027769727
 20
4839895.750386196
  0
LWPOLYLINE
  5
2B2
330
17
100
AcDbEntity
  8
ROADS
100
AcDbPolyline
 90
2
 70
0
 10
627477.6027769727
 20
4839895.750386196
 10
627381.3343442829
 20
4839864.982862442
  0
LWPOLYLINE
  5
2B3
330
17
100
AcDbEntity
  8
ROADS
100
AcDbPolyline
 90
2
 70
0
 10
627381.3343442829
 20
4839864.982862442
 10
627318.2737253441
 20
4840011.666202796
  0
LWPOLYLINE
  5
2B4
330
17
100
AcDbEntity
  8
ROADS
100
AcDbPolyline
 90
2
 70
0
 10
627477.6027769727
 20
4839895.750386196
 10
627379.2402775313
 20
4840028.871250304
  0
LWPOLYLINE
  5
2B5
330
17
100
AcDbEntity
  8
ROADS
100
AcDbPolyline
 90
2
 70
0
 10
627750.3300855838
 20
4839897.241397337
 10
627441.735514702
 20
4840049.029145678
  0
LWPOLYLINE
  5
2B6
330
17
100
AcDbEntity
  8
ROADS
100
AcDbPolyline
 90
2
 70
0
 10
627894.2132048352
 20
4839894.733816112
 10
627816.0439514829
 20
4839930.038326197
  0
LWPOLYLINE
  5
2B7
330
17
100
AcDbEntity
  8
ROADS
100
AcDbPolyline
 90
2
 70
0
 10
627816.0439514829
 20
4839930.038326197
 10
627774.6373371459
 20
4840105.313426196
  0
LWPOLYLINE
  5
2B8
330
17
100
AcDbEntity
  8
ROADS
100
AcDbPolyline
 90
2
 70
0
 10
627712.7725783655
 20
4839978.337106638
 10
627683.055387431
 20
4840076.90875239
  0
LWPOLYLINE
  5
2B9
330
17
100
AcDbEntity
  8
ROADS
100
AcDbPolyline
 90
2
 70
0
 10
627683.055387431
 20
4840076.90875239
 10
627577.2896226337
 20
4840042.531109569
  0
LWPOLYLINE
  5
2BA
330
17
100
AcDbEntity
  8
ROADS
100
AcDbPolyline
 90
2
 70
0
 10
627774.6373371459
 20
4840105.313426196
 10
627683.055387431
 20
4840076.90875239
  0
LWPOLYLINE
  5
2BB
330
17
100
AcDbEntity
  8
ROADS
100
AcDbPolyline
 90
2
 70
0
 10
627683.055387431
 20
4840076.90875239
 10
627669.2671974223
 20
4840120.261057312
  0
LWPOLYLINE
  5
2BC
330
17
100
AcDbEntity
  8
ROADS
100
AcDbPolyline
 90
2
 70
0
 10
627669.2671974223
 20
4840120.261057312
 10
627631.3047030127
 20
4840108.934533204
  0
LWPOLYLINE
  5
2BD
330
17
100
AcDbEntity
  8
ROADS
100
AcDbPolyline
 90
2
 70
0
 10
627855.2904186551
 20
4840129.986095719
 10
627774.6373371459
 20
4840105.313426196
  0
LWPOLYLINE
  5
2BE
330
17
100
AcDbEntity
  8
ROADS
100
AcDbPolyline
 90
2
 70
0
 10
627712.7240163637
 20
4840134.408165274
 10
627669.2671974223
 20
4840120.261057312
  0
LWPOLYLINE
  5
2BF
330
17
100
AcDbEntity
  8
ROADS
100
AcDbPolyline
 90
2
 70
0
 10
627774.6373371459
 20
4840105.313426196
 10
627760.751930585
 20
4840150.114075508
  0
LWPOLYLINE
  5
2C0
330
17
100
AcDbEntity
  8
ROADS
100
AcDbPolyline
 90
2
 70
0
 10
627631.3047030127
 20
4840108.934533204
 10
627621.4605864043
 20
4840152.849221165
  0
LWPOLYLINE
  5
2C1
330
17
100
AcDbEntity
  8
ROADS
100
AcDbPolyline
 90
2
 70
0
 10
627284.6356606977
 20
4839835.942680052
 10
627236.4248493784
 20
4839987.111414703
  0
LWPOLYLINE
  5
2C2
330
17
100
AcDbEntity
  8
ROADS
100
AcDbPolyline
 90
2
 70
0
 10
627140.1088892001
 20
4839956.045507233
 10
627056.1864860447
 20
4839929.027580515
  0
LWPOLYLINE
  5
2C3
330
17
100
AcDbEntity
  8
ROADS
100
AcDbPolyline
 90
2
 70
0
 10
627236.4248493784
 20
4839987.111414703
 10
627140.1088892001
 20
4839956.045507233
  0
LWPOLYLINE
  5
2C4
330
17
100
AcDbEntity
  8
ROADS
100
AcDbPolyline
 90
2
 70
0
 10
627318.2737253441
 20
4840011.666202796
 10
627236.4248493784
 20
4839987.111414703
  0
LWPOLYLINE
  5
2C5
330
17
100
AcDbEntity
  8
ROADS
100
AcDbPolyline
 90
2
 70
0
 10
627236.4248493784
 20
4839987.111414703
 10
627220.7313548913
 20
4840037.21911574
  0
LWPOLYLINE
  5
2C6
330
17
100
AcDbEntity
  8
ROADS
100
AcDbPolyline
 90
2
 70
0
 10
627140.1088892001
 20
4839956.045507233
 10
627112.2594072898
 20
4840084.048597205
  0
LWPOLYLINE
  5
2C7
330
17
100
AcDbEntity
  8
ROADS
100
AcDbPolyline
 90
2
 70
0
 10
627441.735514702
 20
4840049.029145678
 10
627212.8715689305
 20
4840196.479824743
  0
LWPOLYLINE
  5
2C8
330
17
100
AcDbEntity
  8
ROADS
100
AcDbPolyline
 90
3
 70
0
 10
627417.8652369621
 20
4840136.073762872
 10
627370.4519484553
 20
4840165.717830998
 10
627220.5740686334
 20
4840212.563178521
  0
LWPOLYLINE
  5
2C9
330
17
100
AcDbEntity
  8
ROADS
100
AcDbPolyline
 90
2
 70
0
 10
627212.8715689305
 20
4840196.479824743
 10
627220.5740686334
 20
4840212.563178521
  0
LWPOLYLINE
  5
2CA
330
17
100
AcDbEntity
  8
ROADS
100
AcDbPolyline
 90
2
 70
0
 10
627212.8715689305
 20
4840196.479824743
 10
627087.0045495107
 20
4840249.277409947
  0
LWPOLYLINE
  5
2CB
330
17
100
AcDbEntity
  8
ROADS
100
AcDbPolyline
 90
2
 70
0
 10
627760.751930585
 20
4840150.114075508
 10
627712.7240163637
 20
4840134.408165274
  0
LWPOLYLINE
  5
2CC
330
17
100
AcDbEntity
  8
ROADS
100
AcDbPolyline
 90
2
 70
0
 10
627621.4605864043
 20
4840152.849221165
 10
627580.2346173978
 20
4840140.266573411
  0
LWPOLYLINE
  5
2CD
330
17
100
AcDbEntity
  8
ROADS
100
AcDbPolyline
 90
2
 70
0
 10
627797.8342177414
 20
4840161.44968443
 10
627760.751930585
 20
4840150.114075508
  0
LWPOLYLINE
  5
2CE
330
17
100
AcDbEntity
  8
ROADS
100
AcDbPolyline
 90
2
 70
0
 10
627712.7240163637
 20
4840134.408165274
 10
627705.4004674915
 20
4840178.797495196
  0
LWPOLYLINE
  5
2CF
330
17
100
AcDbEntity
  8
ROADS
100
AcDbPolyline
 90
2
 70
0
 10
627843.8684313213
 20
4840175.556636628
 10
627797.8342177414
 20
4840161.44968443
  0
LWPOLYLINE
  5
2D0
330
17
100
AcDbEntity
  8
ROADS
100
AcDbPolyline
 90
2
 70
0
 10
627797.8342177414
 20
4840161.44968443
 10
627789.1169082981
 20
4840204.742739204
  0
LWPOLYLINE
  5
2D1
330
17
100
AcDbEntity
  8
ROADS
100
AcDbPolyline
 90
2
 70
0
 10
627789.1169082981
 20
4840204.742739204
 10
627705.4004674915
 20
4840178.797495196
  0
LWPOLYLINE
  5
2D2
330
17
100
AcDbEntity
  8
ROADS
100
AcDbPolyline
 90
2
 70
0
 10
627789.1169082981
 20
4840204.742739204
 10
627831.8063576608
 20
4840218.5489578685
  0
LWPOLYLINE
  5
2D3
330
17
100
AcDbEntity
  8
ROADS
100
AcDbPolyline
 90
2
 70
0
 10
627789.1169082981
 20
4840204.742739204
 10
627781.1798609934
 20
4840244.154660423
  0
LWPOLYLINE
  5
2D4
330
17
100
AcDbEntity
  8
ROADS
100
AcDbPolyline
 90
2
 70
0
 10
627379.2402775313
 20
4840028.871250304
 10
627318.2737253441
 20
4840011.666202796
  0
LWPOLYLINE
  5
2D5
330
17
100
AcDbEntity
  8
ROADS
100
AcDbPolyline
 90
2
 70
0
 10
627441.735514702
 20
4840049.029145678
 10
627379.2402775313
 20
4840028.871250304
  0
LWPOLYLINE
  5
2D6
330
17
100
AcDbEntity
  8
ROADS
100
AcDbPolyline
 90
2
 70
0
 10
627577.2896226337
 20
4840042.531109569
 10
627517.8018749955
 20
4840072.378772318
  0
LWPOLYLINE
  5
2D7
330
17
100
AcDbEntity
  8
ROADS
100
AcDbPolyline
 90
2
 70
0
 10
627517.8018749955
 20
4840072.378772318
 10
627441.735514702
 20
4840049.029145678
  0
LWPOLYLINE
  5
2D8
330
17
100
AcDbEntity
  8
ROADS
100
AcDbPolyline
 90
2
 70
0
 10
627540.7011760843
 20
4840079.7935245475
 10
627517.8018749955
 20
4840072.378772318
  0
LWPOLYLINE
  5
2D9
330
17
100
AcDbEntity
  8
ROADS
100
AcDbPolyline
 90
2
 70
0
 10
627631.3047030127
 20
4840108.934533204
 10
627540.7011760843
 20
4840079.7935245475
  0
LWPOLYLINE
  5
2DA
330
17
100
AcDbEntity
  8
ROADS
100
AcDbPolyline
 90
2
 70
0
 10
627517.8018749955
 20
4840072.378772318
 10
627417.8652369621
 20
4840136.073762872
  0
LWPOLYLINE
  5
2DB
330
17
100
AcDbEntity
  8
ROADS
100
AcDbPolyline
 90
2
 70
0
 10
627540.7011760843
 20
4840079.7935245475
 10
627468.0211899672
 20
4840436.98811569
  0
LWPOLYLINE
  5
2DC
330
17
100
AcDbEntity
  8
ROADS
100
AcDbPolyline
 90
3
 70
0
 10
627417.8652369621
 20
4840136.073762872
 10
627371.6834694084
 20
4840405.244122206
 10
627468.0211899672
 20
4840436.98811569
  0
LWPOLYLINE
  5
2DD
330
17
100
AcDbEntity
  8
ROADS
100
AcDbPolyline
 90
2
 70
0
 10
627583.470978544
 20
4840327.5779808285
 10
627545.5838438954
 20
4840317.890902956
  0
LWPOLYLINE
  5
2DE
330
17
100
AcDbEntity
  8
ROADS
100
AcDbPolyline
 90
2
 70
0
 10
627621.4605864043
 20
4840152.849221165
 10
627583.470978544
 20
4840327.5779808285
  0
LWPOLYLINE
  5
2DF
330
17
100
AcDbEntity
  8
ROADS
100
AcDbPolyline
 90
2
 70
0
 10
627819.3948093451
 20
4840257.986641332
 10
627781.1798609934
 20
4840244.154660423
  0
LWPOLYLINE
  5
2E0
330
17
100
AcDbEntity
  8
ROADS
100
AcDbPolyline
 90
2
 70
0
 10
627705.4004674915
 20
4840178.797495196
 10
627667.731363308
 20
4840355.101194698
  0
LWPOLYLINE
  5
2E1
330
17
100
AcDbEntity
  8
ROADS
100
AcDbPolyline
 90
2
 70
0
 10
627781.1798609934
 20
4840244.154660423
 10
627750.6961839023
 20
4840381.60191686
  0
LWPOLYLINE
  5
2E2
330
17
100
AcDbEntity
  8
ROADS
100
AcDbPolyline
 90
2
 70
0
 10
627667.731363308
 20
4840355.101194698
 10
627583.470978544
 20
4840327.5779808285
  0
LWPOLYLINE
  5
2E3
330
17
100
AcDbEntity
  8
ROADS
100
AcDbPolyline
 90
2
 70
0
 10
627750.6961839023
 20
4840381.60191686
 10
627667.731363308
 20
4840355.101194698
  0
LWPOLYLINE
  5
2E4
330
17
100
AcDbEntity
  8
ROADS
100
AcDbPolyline
 90
2
 70
0
 10
627750.6961839023
 20
4840381.60191686
 10
627748.3892362253
 20
4840398.559260274
  0
LWPOLYLINE
  5
2E5
330
17
100
AcDbEntity
  8
ROADS
100
AcDbPolyline
 90
2
 70
0
 10
627758.0076904
 20
4840401.571857505
 10
627748.3892362253
 20
4840398.559260274
  0
LWPOLYLINE
  5
2E6
330
17
100
AcDbEntity
  8
ROADS
100
AcDbPolyline
 90
2
 70
0
 10
627667.731363308
 20
4840355.101194698
 10
627608.8292014765
 20
4840590.633442679
  0
LWPOLYLINE
  5
2E7
330
17
100
AcDbEntity
  8
ROADS
100
AcDbPolyline
 90
2
 70
0
 10
627508.2023020905
 20
4840451.215995579
 10
627468.0211899672
 20
4840436.98811569
  0
LWPOLYLINE
  5
2E8
330
17
100
AcDbEntity
  8
ROADS
100
AcDbPolyline
 90
2
 70
0
 10
627583.470978544
 20
4840327.5779808285
 10
627532.6576264448
 20
4840566.411733502
  0
LWPOLYLINE
  5
2E9
330
17
100
AcDbEntity
  8
ROADS
100
AcDbPolyline
 90
2
 70
0
 10
627463.6809640853
 20
4840545.426415994
 10
627267.2155391654
 20
4840484.3589646835
  0
LWPOLYLINE
  5
2EA
330
17
100
AcDbEntity
  8
ROADS
100
AcDbPolyline
 90
2
 70
0
 10
627532.6576264448
 20
4840566.411733502
 10
627463.6809640853
 20
4840545.426415994
  0
LWPOLYLINE
  5
2EB
330
17
100
AcDbEntity
  8
ROADS
100
AcDbPolyline
 90
2
 70
0
 10
627463.6809640853
 20
4840545.426415994
 10
627450.03156887
 20
4840589.727245201
  0
LWPOLYLINE
  5
2EC
330
17
100
AcDbEntity
  8
ROADS
100
AcDbPolyline
 90
2
 70
0
 10
627608.8292014765
 20
4840590.633442679
 10
627532.6576264448
 20
4840566.411733502
  0
LWPOLYLINE
  5
2ED
330
17
100
AcDbEntity
  8
ROADS
100
AcDbPolyline
 90
2
 70
0
 10
627542.2029387377
 20
4840675.501169254
 10
627238.0187405706
 20
4840584.83897133
  0
LWPOLYLINE
  5
2EE
330
17
100
AcDbEntity
  8
ROADS
100
AcDbPolyline
 90
2
 70
0
 10
627608.8292014765
 20
4840590.633442679
 10
627587.1252922243
 20
4840633.83158443
  0
LWPOLYLINE
  5
2EF
330
17
100
AcDbEntity
  8
ROADS
100
AcDbPolyline
 90
2
 70
0
 10
627443.6812985952
 20
4840753.93304425
 10
627218.2925379036
 20
4840683.493202566
  0
LWPOLYLINE
  5
2F0
330
17
100
AcDbEntity
  8
ROADS
100
AcDbPolyline
 90
3
 70
0
 10
627087.0045495107
 20
4840249.277409947
 10
626931.8230809136
 20
4840281.275313887
 10
626797.9938976178
 20
4840283.70719679
  0
LWPOLYLINE
  5
2F1
330
17
100
AcDbEntity
  8
ROADS
100
AcDbPolyline
 90
3
 70
0
 10
627090.7412324655
 20
4840265.28150395
 10
627017.3840890098
 20
4840306.161834314
 10
626982.0089731661
 20
4840392.935155677
  0
LWPOLYLINE
  5
2F2
330
17
100
AcDbEntity
  8
ROADS
100
AcDbPolyline
 90
2
 70
0
 10
626982.0089731661
 20
4840392.935155677
 10
626787.9802282337
 20
4840333.179041799
  0
LWPOLYLINE
  5
2F3
330
17
100
AcDbEntity
  8
ROADS
100
AcDbPolyline
 90
3
 70
0
 10
626982.0089731661
 20
4840392.935155677
 10
626957.972180389
 20
4840457.509236949
 10
626925.1425022427
 20
4840495.6826004535
  0
LWPOLYLINE
  5
2F4
330
17
100
AcDbEntity
  8
ROADS
100
AcDbPolyline
 90
2
 70
0
 10
626925.1425022427
 20
4840495.6826004535
 10
626764.4637761457
 20
4840446.26545687
  0
LWPOLYLINE
  5
2F5
330
17
100
AcDbEntity
  8
ROADS
100
AcDbPolyline
 90
2
 70
0
 10
626925.1425022427
 20
4840495.6826004535
 10
626853.3447473262
 20
4840577.391570552
  0
LWPOLYLINE
  5
2F6
330
17
100
AcDbEntity
  8
ROADS
100
AcDbPolyline
 90
2
 70
0
 10
626853.3447473262
 20
4840577.391570552
 10
626818.8374327343
 20
4840665.778621895
  0
LWPOLYLINE
  5
2F7
330
17
100
AcDbEntity
  8
ROADS
100
AcDbPolyline
 90
2
 70
0
 10
627218.2925379036
 20
4840683.493202566
 10
626853.3447473262
 20
4840577.391570552
  0
LWPOLYLINE
  5
2F8
330
17
100
AcDbEntity
  8
ROADS
100
AcDbPolyline
 90
2
 70
0
 10
627199.2674232861
 20
4840781.867090538
 10
626818.8374327343
 20
4840665.778621895
  0
LWPOLYLINE
  5
2F9
330
17
100
AcDbEntity
  8
ROADS
100
AcDbPolyline
 90
2
 70
0
 10
627131.830711976
 20
4840867.45021686
 10
626805.517276994
 20
4840764.8386589205
  0
LWPOLYLINE
  5
2FA
330
17
100
AcDbEntity
  8
ROADS
100
AcDbPolyline
 90
2
 70
0
 10
627220.5740686334
 20
4840212.563178521
 10
627090.7412324655
 20
4840265.28150395
  0
LWPOLYLINE
  5
2FB
330
17
100
AcDbEntity
  8
ROADS
100
AcDbPolyline
 90
2
 70
0
 10
627087.0045495107
 20
4840249.277409947
 10
627090.7412324655
 20
4840265.28150395
  0
LWPOLYLINE
  5
2FC
330
17
100
AcDbEntity
  8
ROADS
100
AcDbPolyline
 90
2
 70
0
 10
627267.2155391654
 20
4840484.3589646835
 10
626982.0089731661
 20
4840392.935155677
  0
LWPOLYLINE
  5
2FD
330
17
100
AcDbEntity
  8
ROADS
100
AcDbPolyline
 90
2
 70
0
 10
627267.2155391654
 20
4840484.3589646835
 10
627238.0187405706
 20
4840584.83897133
  0
LWPOLYLINE
  5
2FE
330
17
100
AcDbEntity
  8
ROADS
100
AcDbPolyline
 90
2
 70
0
 10
627238.0187405706
 20
4840584.83897133
 10
626925.1425022427
 20
4840495.6826004535
  0
LWPOLYLINE
  5
2FF
330
17
100
AcDbEntity
  8
ROADS
100
AcDbPolyline
 90
2
 70
0
 10
627238.0187405706
 20
4840584.83897133
 10
627218.2925379036
 20
4840683.493202566
  0
LWPOLYLINE
  5
300
330
17
100
AcDbEntity
  8
ROADS
100
AcDbPolyline
 90
2
 70
0
 10
627218.2925379036
 20
4840683.493202566
 10
627199.2674232861
 20
4840781.867090538
  0
LWPOLYLINE
  5
301
330
17
100
AcDbEntity
  8
ROADS
100
AcDbPolyline
 90
2
 70
0
 10
627199.2674232861
 20
4840781.867090538
 10
627173.6549522389
 20
4840879.241714343
  0
LWPOLYLINE
  5
302
330
17
100
AcDbEntity
  8
ROADS
100
AcDbPolyline
 90
2
 70
0
 10
627173.6549522389
 20
4840879.241714343
 10
627131.830711976
 20
4840867.45021686
  0
LWPOLYLINE
  5
303
330
17
100
AcDbEntity
  8
ROADS
100
AcDbPolyline
 90
2
 70
0
 10
627183.7463110241
 20
4840882.440818907
 10
627173.6549522389
 20
4840879.241714343
  0
LWPOLYLINE
  5
304
330
17
100
AcDbEntity
  8
ROADS
100
AcDbPolyline
 90
2
 70
0
 10
626707.1808528163
 20
4840729.2702344265
 10
626384.5741497069
 20
4840623.500811997
  0
LWPOLYLINE
  5
305
330
17
100
AcDbEntity
  8
ROADS
100
AcDbPolyline
 90
2
 70
0
 10
626726.8776471828
 20
4840635.611927589
 10
626707.1808528163
 20
4840729.2702344265
  0
LWPOLYLINE
  5
306
330
17
100
AcDbEntity
  8
ROADS
100
AcDbPolyline
 90
2
 70
0
 10
626805.517276994
 20
4840764.8386589205
 10
626707.1808528163
 20
4840729.2702344265
  0
LWPOLYLINE
  5
307
330
17
100
AcDbEntity
  8
ROADS
100
AcDbPolyline
 90
2
 70
0
 10
626690.7933112931
 20
4840821.487320328
 10
626357.8869844812
 20
4840715.444441012
  0
LWPOLYLINE
  5
308
330
17
100
AcDbEntity
  8
ROADS
100
AcDbPolyline
 90
2
 70
0
 10
626707.1808528163
 20
4840729.2702344265
 10
626690.7933112931
 20
4840821.487320328
  0
LWPOLYLINE
  5
309
330
17
100
AcDbEntity
  8
ROADS
100
AcDbPolyline
 90
2
 70
0
 10
626690.7933112931
 20
4840821.487320328
 10
626688.458473753
 20
4840836.44798177
  0
LWPOLYLINE
  5
30A
330
17
100
AcDbEntity
  8
ROADS
100
AcDbPolyline
 90
2
 70
0
 10
626811.3486290924
 20
4840872.444736459
 10
626688.458473753
 20
4840836.44798177
  0
LWPOLYLINE
  5
30B
330
17
100
AcDbEntity
  8
ROADS
100
AcDbPolyline
 90
2
 70
0
 10
626688.458473753
 20
4840836.44798177
 10
626671.0103100102
 20
4840915.912441842
  0
LWPOLYLINE
  5
30C
330
17
100
AcDbEntity
  8
ROADS
100
AcDbPolyline
 90
2
 70
0
 10
626650.1498950489
 20
4840912.816961214
 10
626521.3771108948
 20
4840872.497002084
  0
LWPOLYLINE
  5
30D
330
17
100
AcDbEntity
  8
ROADS
100
AcDbPolyline
 90
2
 70
0
 10
626357.8869844812
 20
4840715.444441012
 10
626330.3351722626
 20
4840800.524326183
  0
LWPOLYLINE
  5
30E
330
17
100
AcDbEntity
  8
ROADS
100
AcDbPolyline
 90
2
 70
0
 10
626521.3771108948
 20
4840872.497002084
 10
626451.8516472352
 20
4840850.855418619
  0
LWPOLYLINE
  5
30F
330
17
100
AcDbEntity
  8
ROADS
100
AcDbPolyline
 90
2
 70
0
 10
626521.3771108948
 20
4840872.497002084
 10
626520.1068545792
 20
4840876.509949173
  0
LWPOLYLINE
  5
310
330
17
100
AcDbEntity
  8
ROADS
100
AcDbPolyline
 90
2
 70
0
 10
626805.517276994
 20
4840764.8386589205
 10
626811.3486290924
 20
4840872.444736459
  0
LWPOLYLINE
  5
311
330
17
100
AcDbEntity
  8
ROADS
100
AcDbPolyline
 90
3
 70
0
 10
626982.9382350959
 20
4840925.773045748
 10
626880.7223522885
 20
4840924.424165468
 10
626811.3486290924
 20
4840872.444736459
  0
LWPOLYLINE
  5
312
330
17
100
AcDbEntity
  8
ROADS
100
AcDbPolyline
 90
2
 70
0
 10
627748.3892362253
 20
4840398.559260274
 10
627741.1788013505
 20
4840430.05909072
  0
LWPOLYLINE
  5
313
330
17
100
AcDbEntity
  8
ROADS
100
AcDbPolyline
 90
2
 70
0
 10
627622.5339109213
 20
4840594.775674601
 10
627608.8292014765
 20
4840590.633442679
  0
LWPOLYLINE
  5
314
330
17
100
AcDbEntity
  8
ROADS
100
AcDbPolyline
 90
2
 70
0
 10
627329.7865779003
 20
4840821.917647511
 10
627199.2674232861
 20
4840781.867090538
  0
LWPOLYLINE
  5
315
330
17
100
AcDbEntity
  8
ROADS
100
AcDbPolyline
 90
2
 70
0
 10
627131.830711976
 20
4840867.45021686
 10
627122.23400257
 20
4840899.812282354
  0
ENDSEC
  0
SECTION
  2
OBJECTS
  0
DICTIONARY
  5
A
330
0
100
AcDbDictionary
281
1
  3
ACAD_COLOR
350
B
  3
ACAD_GROUP
350
C
  3
ACAD_LAYOUT
350
D
  3
ACAD_MATERIAL
350
E
  3
ACAD_MLEADERSTYLE
350
F
  3
ACAD_MLINESTYLE
350
10
  3
ACAD_PLOTSETTINGS
350
11
  3
ACAD_PLOTSTYLENAME
350
12
  3
ACAD_SCALELIST
350
14
  3
ACAD_TABLESTYLE
350
15
  3
ACAD_VISUALSTYLE
350
16
  3
EZDXF_META
350
2D
  0
DICTIONARY
  5
B
330
A
100
AcDbDictionary
281
1
  0
DICTIONARY
  5
C
330
A
100
AcDbDictionary
281
1
  0
DICTIONARY
  5
D
330
A
100
AcDbDictionary
281
1
  3
Model
350
1A
  3
Layout1
350
1E
  0
DICTIONARY
  5
E
330
A
100
AcDbDictionary
281
1
  3
ByBlock
350
1F
  3
ByLayer
350
20
  3
Global
350
21
  0
DICTIONARY
  5
F
330
A
100
AcDbDictionary
281
1
  3
Standard
350
2C
  0
DICTIONARY
  5
10
330
A
100
AcDbDictionary
281
1
  3
Standard
350
22
  0
DICTIONARY
  5
11
330
A
100
AcDbDictionary
281
1
  0
ACDBDICTIONARYWDFLT
  5
12
330
A
100
AcDbDictionary
281
1
  3
Normal
350
13
100
AcDbDictionaryWithDefault
340
13
  0
ACDBPLACEHOLDER
  5
13
330
12
  0
DICTIONARY
  5
14
330
A
100
AcDbDictionary
281
1
  0
DICTIONARY
  5
15
330
A
100
AcDbDictionary
281
1
  0
DICTIONARY
  5
16
330
A
100
AcDbDictionary
281
1
  0
LAYOUT
  5
1A
330
D
100
AcDbPlotSettings
  1

  4
A3
  6

 40
7.5
 41
20.0
 42
7.5
 43
20.0
 44
420.0
 45
297.0
 46
0.0
 47
0.0
 48
0.0
 49
0.0
140
0.0
141
0.0
142
1.0
143
1.0
 70
1024
 72
1
 73
0
 74
5
  7

 75
16
 76
0
 77
2
 78
300
147
1.0
148
0.0
149
0.0
100
AcDbLayout
  1
Model
 70
1
 71
0
 10
0.0
 20
0.0
 11
420.0
 21
297.0
 12
0.0
 22
0.0
 32
0.0
 14
1e+20
 24
1e+20
 34
1e+20
 15
-1e+20
 25
-1e+20
 35
-1e+20
146
0.0
 13
0.0
 23
0.0
 33
0.0
 16
1.0
 26
0.0
 36
0.0
 17
0.0
 27
1.0
 37
0.0
 76
1
330
17
  0
LAYOUT
  5
1E
330
D
100
AcDbPlotSettings
  1

  4
A3
  6

 40
7.5
 41
20.0
 42
7.5
 43
20.0
 44
420.0
 45
297.0
 46
0.0
 47
0.0
 48
0.0
 49
0.0
140
0.0
141
0.0
142
1.0
143
1.0
 70
0
 72
1
 73
0
 74
5
  7

 75
16
 76
0
 77
2
 78
300
147
1.0
148
0.0
149
0.0
100
AcDbLayout
  1
Layout1
 70
1
 71
1
 10
0.0
 20
0.0
 11
420.0
 21
297.0
 12
0.0
 22
0.0
 32
0.0
 14
1e+20
 24
1e+20
 34
1e+20
 15
-1e+20
 25
-1e+20
 35
-1e+20
146
0.0
 13
0.0
 23
0.0
 33
0.0
 16
1.0
 26
0.0
 36
0.0
 17
0.0
 27
1.0
 37
0.0
 76
1
330
1B
  0
MATERIAL
  5
1F
102
{ACAD_REACTORS
330
E
102
}
330
E
100
AcDbMaterial
  1
ByBlock
  2

 70
0
 40
1.0
 71
1
 41
1.0
 91
-1023410177
 42
1.0
 72
1
  3

 73
1
 74
1
 75
1
 44
0.5
 73
0
 45
1.0
 46
1.0
 77
1
  4

 78
1
 79
1
170
1
 48
1.0
171
1
  6

172
1
173
1
174
1
140
1.0
141
1.0
175
1
  7

176
1
177
1
178
1
143
1.0
179
1
  8

270
1
271
1
272
1
145
1.0
146
1.0
273
1
  9

274
1
275
1
276
1
 42
1.0
 72
1
  3

 73
1
 74
1
 75
1
 94
63
  0
MATERIAL
  5
20
102
{ACAD_REACTORS
330
E
102
}
330
E
100
AcDbMaterial
  1
ByLayer
  2

 70
0
 40
1.0
 71
1
 41
1.0
 91
-1023410177
 42
1.0
 72
1
  3

 73
1
 74
1
 75
1
 44
0.5
 73
0
 45
1.0
 46
1.0
 77
1
  4

 78
1
 79
1
170
1
 48
1.0
171
1
  6

172
1
173
1
174
1
140
1.0
141
1.0
175
1
  7

176
1
177
1
178
1
143
1.0
179
1
  8

270
1
271
1
272
1
145
1.0
146
1.0
273
1
  9

274
1
275
1
276
1
 42
1.0
 72
1
  3

 73
1
 74
1
 75
1
 94
63
  0
MATERIAL
  5
21
102
{ACAD_REACTORS
330
E
102
}
330
E
100
AcDbMaterial
  1
Global
  2

 70
0
 40
1.0
 71
1
 41
1.0
 91
-1023410177
 42
1.0
 72
1
  3

 73
1
 74
1
 75
1
 44
0.5
 73
0
 45
1.0
 46
1.0
 77
1
  4

 78
1
 79
1
170
1
 48
1.0
171
1
  6

172
1
173
1
174
1
140
1.0
141
1.0
175
1
  7

176
1
177
1
178
1
143
1.0
179
1
  8

270
1
271
1
272
1
145
1.0
146
1.0
273
1
  9

274
1
275
1
276
1
 42
1.0
 72
1
  3

 73
1
 74
1
 75
1
 94
63
  0
MLINESTYLE
  5
22
102
{ACAD_REACTORS
330
10
102
}
330
10
100
AcDbMlineStyle
  2
Standard
 70
0
  3

 62
256
 51
90.0
 52
90.0
 71
2
 49
0.5
 62
256
  6
BYLAYER
 49
-0.5
 62
256
  6
BYLAYER
  0
MLEADERSTYLE
  5
2C
102
{ACAD_REACTORS
330
F
102
}
330
F
100
AcDbMLeaderStyle
179
2
170
2
171
1
172
0
 90
2
 40
0.0
 41
0.0
173
1
 91
-1056964608
 92
-2
290
1
 42
2.0
291
1
 43
8.0
  3
Standard
 44
4.0
300

342
29
174
1
175
1
176
0
178
1
 93
-1056964608
 45
4.0
292
0
297
0
 46
4.0
 94
-1056964608
 47
1.0
 49
1.0
140
1.0
294
1
141
0.0
177
0
142
1.0
295
0
296
0
143
3.75
271
0
272
9
273
9
  0
DICTIONARY
  5
2D
330
A
100
AcDbDictionary
280
1
281
1
  3
CREATED_BY_EZDXF
350
2E
  3
WRITTEN_BY_EZDXF
350
318
  0
DICTIONARYVAR
  5
2E
330
2D
100
DictionaryVariables
280
0
  1
1.4.4 @ 2026-07-30T15:42:37.559141+00:00
  0
DICTIONARYVAR
  5
318
330
2D
100
DictionaryVariables
280
0
  1
1.4.4 @ 2026-07-30T15:42:37.632878+00:00
  0
ENDSEC
  0
EOF
