  0
SECTION
  2
HEADER
  9
$ACADVER
  1
AC1015
  9
$ACADMAINTVER
 70
6
  9
$DWGCODEPAGE
  3
ANSI_1252
  9
$INSBASE
 10
0.0
 20
0.0
 30
0.0
  9
$EXTMIN
 10
1e+20
 20
1e+20
 30
1e+20
  9
$EXTMAX
 10
-1e+20
 20
-1e+20
 30
-1e+20
  9
$LIMMIN
 10
0.0
 20
0.0
  9
$LIMMAX
 10
420.0
 20
297.0
  9
$ORTHOMODE
 70
0
  9
$REGENMODE
 70
1
  9
$FILLMODE
 70
1
  9
$QTEXTMODE
 70
0
  9
$MIRRTEXT
 70
1
  9
$LTSCALE
 40
1.0
  9
$ATTMODE
 70
1
  9
$TEXTSIZE
 40
2.5
  9
$TRACEWID
 40
1.0
  9
$TEXTSTYLE
  7
Standard
  9
$CLAYER
  8
0
  9
$CELTYPE
  6
ByLayer
  9
$CECOLOR
 62
256
  9
$CELTSCALE
 40
1.0
  9
$DISPSILH
 70
0
  9
$DIMSCALE
 40
1.0
  9
$DIMASZ
 40
2.5
  9
$DIMEXO
 40
0.625
  9
$DIMDLI
 40
3.75
  9
$DIMRND
 40
0.0
  9
$DIMDLE
 40
0.0
  9
$DIMEXE
 40
1.25
  9
$DIMTP
 40
0.0
  9
$DIMTM
 40
0.0
  9
$DIMTXT
 40
2.5
  9
$DIMCEN
 40
2.5
  9
$DIMTSZ
 40
0.0
  9
$DIMTOL
 70
0
  9
$DIMLIM
 70
0
  9
$DIMTIH
 70
0
  9
$DIMTOH
 70
0
  9
$DIMSE1
 70
0
  9
$DIMSE2
 70
0
  9
$DIMTAD
 70
1
  9
$DIMZIN
 70
8
  9
$DIMBLK
  1

  9
$DIMASO
 70
1
  9
$DIMSHO
 70
1
  9
$DIMPOST
  1

  9
$DIMAPOST
  1

  9
$DIMALT
 70
0
  9
$DIMALTD
 70
3
  9
$DIMALTF
 40
0.03937007874
  9
$DIMLFAC
 40
1.0
  9
$DIMTOFL
 70
1
  9
$DIMTVP
 40
0.0
  9
$DIMTIX
 70
0
  9
$DIMSOXD
 70
0
  9
$DIMSAH
 70
0
  9
$DIMBLK1
  1

  9
$DIMBLK2
  1

  9
$DIMSTYLE
  2
ISO-25
  9
$DIMCLRD
 70
0
  9
$DIMCLRE
 70
0
  9
$DIMCLRT
 70
0
  9
$DIMTFAC
 40
1.0
  9
$DIMGAP
 40
0.625
  9
$DIMJUST
 70
0
  9
$DIMSD1
 70
0
  9
$DIMSD2
 70
0
  9
$DIMTOLJ
 70
0
  9
$DIMTZIN
 70
8
  9
$DIMALTZ
 70
0
  9
$DIMALTTZ
 70
0
  9
$DIMUPT
 70
0
  9
$DIMDEC
 70
2
  9
$DIMTDEC
 70
2
  9
$DIMALTU
 70
2
  9
$DIMALTTD
 70
3
  9
$DIMTXSTY
  7
Standard
  9
$DIMAUNIT
 70
0
  9
$DIMADEC
 70
0
  9
$DIMALTRND
 40
0.0
  9
$DIMAZIN
 70
0
  9
$DIMDSEP
 70
44
  9
$DIMATFIT
 70
3
  9
$DIMFRAC
 70
0
  9
$DIMLDRBLK
  1

  9
$DIMLUNIT
 70
2
  9
$DIMLWD
 70
-2
  9
$DIMLWE
 70
-2
  9
$DIMTMOVE
 70
0
  9
$LUNITS
 70
2
  9
$LUPREC
 70
4
  9
$SKETCHINC
 40
1.0
  9
$FILLETRAD
 40
10.0
  9
$AUNITS
 70
0
  9
$AUPREC
 70
2
  9
$MENU
  1
.
  9
$ELEVATION
 40
0.0
  9
$PELEVATION
 40
0.0
  9
$THICKNESS
 40
0.0
  9
$LIMCHECK
 70
0
  9
$CHAMFERA
 40
0.0
  9
$CHAMFERB
 40
0.0
  9
$CHAMFERC
 40
0.0
  9
$CHAMFERD
 40
0.0
  9
$SKPOLY
 70
0
  9
$TDCREATE
 40
2461229.0965162036
  9
$TDUCREATE
 40
2458532.153996898
  9
$TDUPDATE
 40
2461229.0965162036
  9
$TDUUPDATE
 40
2458532.1544311
  9
$TDINDWG
 40
0.0
  9
$TDUSRTIMER
 40
0.0
  9
$USRTIMER
 70
1
  9
$ANGBASE
 50
0.0
  9
$ANGDIR
 70
0
  9
$PDMODE
 70
0
  9
$PDSIZE
 40
0.0
  9
$PLINEWID
 40
0.0
  9
$SPLFRAME
 70
0
  9
$SPLINETYPE
 70
6
  9
$SPLINESEGS
 70
8
  9
$HANDSEED
  5
145
  9
$SURFTAB1
 70
6
  9
$SURFTAB2
 70
6
  9
$SURFTYPE
 70
6
  9
$SURFU
 70
6
  9
$SURFV
 70
6
  9
$UCSBASE
  2

  9
$UCSNAME
  2

  9
$UCSORG
 10
0.0
 20
0.0
 30
0.0
  9
$UCSXDIR
 10
1.0
 20
0.0
 30
0.0
  9
$UCSYDIR
 10
0.0
 20
1.0
 30
0.0
  9
$UCSORTHOREF
  2

  9
$UCSORTHOVIEW
 70
0
  9
$UCSORGTOP
 10
0.0
 20
0.0
 30
0.0
  9
$UCSORGBOTTOM
 10
0.0
 20
0.0
 30
0.0
  9
$UCSORGLEFT
 10
0.0
 20
0.0
 30
0.0
  9
$UCSORGRIGHT
 10
0.0
 20
0.0
 30
0.0
  9
$UCSORGFRONT
 10
0.0
 20
0.0
 30
0.0
  9
$UCSORGBACK
 10
0.0
 20
0.0
 30
0.0
  9
$PUCSBASE
  2

  9
$PUCSNAME
  2

  9
$PUCSORG
 10
0.0
 20
0.0
 30
0.0
  9
$PUCSXDIR
 10
1.0
 20
0.0
 30
0.0
  9
$PUCSYDIR
 10
0.0
 20
1.0
 30
0.0
  9
$PUCSORTHOREF
  2

  9
$PUCSORTHOVIEW
 70
0
  9
$PUCSORGTOP
 10
0.0
 20
0.0
 30
0.0
  9
$PUCSORGBOTTOM
 10
0.0
 20
0.0
 30
0.0
  9
$PUCSORGLEFT
 10
0.0
 20
0.0
 30
0.0
  9
$PUCSORGRIGHT
 10
0.0
 20
0.0
 30
0.0
  9
$PUCSORGFRONT
 10
0.0
 20
0.0
 30
0.0
  9
$PUCSORGBACK
 10
0.0
 20
0.0
 30
0.0
  9
$USERI1
 70
0
  9
$USERI2
 70
0
  9
$USERI3
 70
0
  9
$USERI4
 70
0
  9
$USERI5
 70
0
  9
$USERR1
 40
0.0
  9
$USERR2
 40
0.0
  9
$USERR3
 40
0.0
  9
$USERR4
 40
0.0
  9
$USERR5
 40
0.0
  9
$WORLDVIEW
 70
1
  9
$SHADEDGE
 70
3
  9
$SHADEDIF
 70
70
  9
$TILEMODE
 70
1
  9
$MAXACTVP
 70
64
  9
$PINSBASE
 10
0.0
 20
0.0
 30
0.0
  9
$PLIMCHECK
 70
0
  9
$PEXTMIN
 10
1e+20
 20
1e+20
 30
1e+20
  9
$PEXTMAX
 10
-1e+20
 20
-1e+20
 30
-1e+20
  9
$PLIMMIN
 10
0.0
 20
0.0
  9
$PLIMMAX
 10
420.0
 20
297.0
  9
$UNITMODE
 70
0
  9
$VISRETAIN
 70
1
  9
$PLINEGEN
 70
0
  9
$PSLTSCALE
 70
1
  9
$TREEDEPTH
 70
3020
  9
$CMLSTYLE
  2
Standard
  9
$CMLJUST
 70
0
  9
$CMLSCALE
 40
20.0
  9
$PROXYGRAPHICS
 70
1
  9
$MEASUREMENT
 70
1
  9
$CELWEIGHT
370
-1
  9
$ENDCAPS
280
0
  9
$JOINSTYLE
280
0
  9
$LWDISPLAY
290
0
  9
$INSUNITS
 70
6
  9
$HYPERLINKBASE
  1

  9
$STYLESHEET
  1

  9
$XEDIT
290
1
  9
$CEPSNTYPE
380
0
  9
$PSTYLEMODE
290
1
  9
$FINGERPRINTGUID
  2
{37F6F1C9-E0C4-4631-AB13-4200F694D2A0}
  9
$VERSIONGUID
  2
{969BB861-AEDF-411C-917C-F82FFD10C2BA}
  9
$EXTNAMES
290
1
  9
$PSVPSCALE
 40
0.0
  9
$OLESTARTUP
290
0
  0
ENDSEC
  0
SECTION
  2
CLASSES
  0
CLASS
  1
ACDBDICTIONARYWDFLT
  2
AcDbDictionaryWithDefault
  3
ObjectDBX Classes
 90
0
280
0
281
0
  0
CLASS
  1
SUN
  2
AcDbSun
  3
SCENEOE
 90
1153
280
0
281
0
  0
CLASS
  1
VISUALSTYLE
  2
AcDbVisualStyle
  3
ObjectDBX Classes
 90
4095
280
0
281
0
  0
CLASS
  1
MATERIAL
  2
AcDbMaterial
  3
ObjectDBX Classes
 90
1153
280
0
281
0
  0
CLASS
  1
SCALE
  2
AcDbScale
  3
ObjectDBX Classes
 90
1153
280
0
281
0
  0
CLASS
  1
TABLESTYLE
  2
AcDbTableStyle
  3
ObjectDBX Classes
 90
4095
280
0
281
0
  0
CLASS
  1
MLEADERSTYLE
  2
AcDbMLeaderStyle
  3
ACDB_MLEADERSTYLE_CLASS
 90
4095
280
0
281
0
  0
CLASS
  1
DICTIONARYVAR
  2
AcDbDictionaryVar
  3
ObjectDBX Classes
 90
0
280
0
281
0
  0
CLASS
  1
CELLSTYLEMAP
  2
AcDbCellStyleMap
  3
ObjectDBX Classes
 90
1152
280
0
281
0
  0
CLASS
  1
MENTALRAYRENDERSETTINGS
  2
AcDbMentalRayRenderSettings
  3
SCENEOE
 90
1024
280
0
281
0
  0
CLASS
  1
ACDBDETAILVIEWSTYLE
  2
AcDbDetailViewStyle
  3
ObjectDBX Classes
 90
1025
280
0
281
0
  0
CLASS
  1
ACDBSECTIONVIEWSTYLE
  2
AcDbSectionViewStyle
  3
ObjectDBX Classes
 90
1025
280
0
281
0
  0
CLASS
  1
RASTERVARIABLES
  2
AcDbRasterVariables
  3
ISM
 90
0
280
0
281
0
  0
CLASS
  1
ACDBPLACEHOLDER
  2
AcDbPlaceHolder
  3
ObjectDBX Classes
 90
0
280
0
281
0
  0
CLASS
  1
LAYOUT
  2
AcDbLayout
  3
ObjectDBX Classes
 90
0
280
0
281
0
  0
ENDSEC
  0
SECTION
  2
TABLES
  0
TABLE
  2
VPORT
  5
8
330
0
100
AcDbSymbolTable
 70
1
  0
VPORT
  5
23
330
8
100
AcDbSymbolTableRecord
100
AcDbViewportTableRecord
  2
*Active
 70
0
 10
0.0
 20
0.0
 11
1.0
 21
1.0
 12
0.0
 22
0.0
 13
0.0
 23
0.0
 14
0.5
 24
0.5
 15
0.5
 25
0.5
 16
0.0
 26
0.0
 36
1.0
 17
0.0
 27
0.0
 37
0.0
 40
1000.0
 41
1.34
 42
50.0
 43
0.0
 44
0.0
 50
0.0
 51
0.0
 71
0
 72
1000
 73
1
 74
3
 75
0
 76
0
 77
0
 78
0
281
0
 65
0
146
0.0
  0
ENDTAB
  0
TABLE
  2
LTYPE
  5
2
330
0
100
AcDbSymbolTable
 70
3
  0
LTYPE
  5
24
330
2
100
AcDbSymbolTableRecord
100
AcDbLinetypeTableRecord
  2
ByBlock
 70
0
  3

 72
65
 73
0
 40
0.0
  0
LTYPE
  5
25
330
2
100
AcDbSymbolTableRecord
100
AcDbLinetypeTableRecord
  2
ByLayer
 70
0
  3

 72
65
 73
0
 40
0.0
  0
LTYPE
  5
26
330
2
100
AcDbSymbolTableRecord
100
AcDbLinetypeTableRecord
  2
Continuous
 70
0
  3

 72
65
 73
0
 40
0.0
  0
ENDTAB
  0
TABLE
  2
LAYER
  5
1
330
0
100
AcDbSymbolTable
 70
2
  0
LAYER
  5
27
330
1
100
AcDbSymbolTableRecord
100
AcDbLayerTableRecord
  2
0
 70
0
 62
7
  6
Continuous
370
-3
390
13
  0
LAYER
  5
28
330
1
100
AcDbSymbolTableRecord
100
AcDbLayerTableRecord
  2
Defpoints
 70
0
 62
7
  6
Continuous
290
0
370
-3
390
13
  0
ENDTAB
  0
TABLE
  2
STYLE
  5
5
330
0
100
AcDbSymbolTable
 70
1
  0
STYLE
  5
29
330
5
100
AcDbSymbolTableRecord
100
AcDbTextStyleTableRecord
  2
Standard
 70
0
 40
0.0
 41
1.0
 50
0.0
 71
0
 42
2.5
  3
txt
  4

  0
ENDTAB
  0
TABLE
  2
VIEW
  5
7
330
0
100
AcDbSymbolTable
 70
0
  0
ENDTAB
  0
TABLE
  2
UCS
  5
6
330
0
100
AcDbSymbolTable
 70
0
  0
ENDTAB
  0
TABLE
  2
APPID
  5
3
330
0
100
AcDbSymbolTable
 70
3
  0
APPID
  5
2A
330
3
100
AcDbSymbolTableRecord
100
AcDbRegAppTableRecord
  2
ACAD
 70
0
  0
APPID
  5
142
330
3
100
AcDbSymbolTableRecord
100
AcDbRegAppTableRecord
  2
HATCHBACKGROUNDCOLOR
 70
0
  0
APPID
  5
143
330
3
100
AcDbSymbolTableRecord
100
AcDbRegAppTableRecord
  2
EZDXF
 70
0
  0
ENDTAB
  0
TABLE
  2
DIMSTYLE
  5
4
330
0
100
AcDbSymbolTable
 70
1
100
AcDbDimStyleTable
  0
DIMSTYLE
105
2B
330
4
100
AcDbSymbolTableRecord
100
AcDbDimStyleTableRecord
  2
Standard
 70
0
  3

  4

 40
1.0
 41
2.5
 42
0.625
 43
3.75
 44
1.25
 45
0.0
 46
0.0
 47
0.0
 48
0.0
140
2.5
141
2.5
142
0.0
143
0.03937007874
144
1.0
145
0.0
146
1.0
147
0.625
148
0.0
 71
0
 72
0
 73
0
 74
0
 75
0
 76
0
 77
1
 78
8
 79
3
170
0
171
3
172
1
173
0
174
0
175
0
176
0
177
0
178
0
179
2
271
2
272
2
273
2
274
3
275
0
276
0
277
2
278
44
279
0
280
0
281
0
282
0
283
0
284
8
285
0
286
0
288
0
289
3
371
-2
372
-2
  0
ENDTAB
  0
TABLE
  2
BLOCK_RECORD
  5
9
330
0
100
AcDbSymbolTable
 70
2
  0
BLOCK_RECORD
  5
17
330
9
100
AcDbSymbolTableRecord
100
AcDbBlockTableRecord
  2
*Model_Space
340
1A
  0
BLOCK_RECORD
  5
1B
330
9
100
AcDbSymbolTableRecord
100
AcDbBlockTableRecord
  2
*Paper_Space
340
1E
  0
ENDTAB
  0
ENDSEC
  0
SECTION
  2
BLOCKS
  0
BLOCK
  5
18
330
17
100
AcDbEntity
  8
0
100
AcDbBlockBegin
  2
*Model_Space
 70
0
 10
0.0
 20
0.0
 30
0.0
  3
*Model_Space
  1

  0
ENDBLK
  5
19
330
17
100
AcDbEntity
  8
0
100
AcDbBlockEnd
  0
BLOCK
  5
1C
330
1B
100
AcDbEntity
  8
0
100
AcDbBlockBegin
  2
*Paper_Space
 70
0
 10
0.0
 20
0.0
 30
0.0
  3
*Paper_Space
  1

  0
ENDBLK
  5
1D
330
1B
100
AcDbEntity
  8
0
100
AcDbBlockEnd
  0
ENDSEC
  0
SECTION
  2
ENTITIES
  0
LWPOLYLINE
  5
2F
330
17
100
AcDbEntity
  8
ROADS
100
AcDbPolyline
 90
2
 70
0
 10
615930.5905725667
 20
4842529.159215981
 10
615918.4619163204
 20
4842561.520544756
  0
LWPOLYLINE
  5
30
330
17
100
AcDbEntity
  8
ROADS
100
AcDbPolyline
 90
3
 70
0
 10
615073.7344526564
 20
4842856.098618987
 10
615077.0370579698
 20
4842872.830267923
 10
615070.0891021282
 20
4842902.706289914
  0
LWPOLYLINE
  5
31
330
17
100
AcDbEntity
  8
ROADS
100
AcDbPolyline
 90
2
 70
0
 10
614840.2743789428
 20
4842978.816574274
 10
614838.4403625503
 20
4842983.51736472
  0
LWPOLYLINE
  5
32
330
17
100
AcDbEntity
  8
ROADS
100
AcDbPolyline
 90
2
 70
0
 10
614925.8898628417
 20
4843015.601105867
 10
614960.3386897102
 20
4842922.742011595
  0
LWPOLYLINE
  5
33
330
17
100
AcDbEntity
  8
ROADS
100
AcDbPolyline
 90
2
 70
0
 10
615181.4729935626
 20
4842940.221404884
 10
615070.0891021282
 20
4842902.706289914
  0
LWPOLYLINE
  5
34
330
17
100
AcDbEntity
  8
ROADS
100
AcDbPolyline
 90
3
 70
0
 10
615070.0891021282
 20
4842902.706289914
 10
615022.2446912922
 20
4843018.3452934865
 10
614925.8898628417
 20
4843015.601105867
  0
LWPOLYLINE
  5
35
330
17
100
AcDbEntity
  8
ROADS
100
AcDbPolyline
 90
2
 70
0
 10
614565.0659309734
 20
4843277.946329778
 10
614544.0340930334
 20
4843268.3716306705
  0
LWPOLYLINE
  5
36
330
17
100
AcDbEntity
  8
ROADS
100
AcDbPolyline
 90
2
 70
0
 10
614838.4403625503
 20
4842983.51736472
 10
614834.5755752755
 20
4842981.893759443
  0
LWPOLYLINE
  5
37
330
17
100
AcDbEntity
  8
ROADS
100
AcDbPolyline
 90
2
 70
0
 10
614925.8898628417
 20
4843015.601105867
 10
614838.4403625503
 20
4842983.51736472
  0
LWPOLYLINE
  5
38
330
17
100
AcDbEntity
  8
ROADS
100
AcDbPolyline
 90
2
 70
0
 10
614757.730689594
 20
4843052.056183016
 10
614768.1160291666
 20
4843024.607718208
  0
LWPOLYLINE
  5
39
330
17
100
AcDbEntity
  8
ROADS
100
AcDbPolyline
 90
2
 70
0
 10
615685.1051427957
 20
4842807.827795205
 10
615633.9735717302
 20
4842854.961612972
  0
LWPOLYLINE
  5
3A
330
17
100
AcDbEntity
  8
ROADS
100
AcDbPolyline
 90
2
 70
0
 10
615459.0582833157
 20
4842839.241134902
 10
615266.5000138573
 20
4842876.756754291
  0
LWPOLYLINE
  5
3B
330
17
100
AcDbEntity
  8
ROADS
100
AcDbPolyline
 90
3
 70
0
 10
615508.564017958
 20
4842928.996680997
 10
615496.5378337929
 20
4842871.421415402
 10
615459.0582833157
 20
4842839.241134902
  0
LWPOLYLINE
  5
3C
330
17
100
AcDbEntity
  8
ROADS
100
AcDbPolyline
 90
2
 70
0
 10
615811.6767911152
 20
4842867.159468463
 10
615732.83612692
 20
4842910.662641099
  0
LWPOLYLINE
  5
3D
330
17
100
AcDbEntity
  8
ROADS
100
AcDbPolyline
 90
3
 70
0
 10
615633.9735717302
 20
4842854.961612972
 10
615549.7007822994
 20
4842916.641942786
 10
615508.564017958
 20
4842928.996680997
  0
LWPOLYLINE
  5
3E
330
17
100
AcDbEntity
  8
ROADS
100
AcDbPolyline
 90
2
 70
0
 10
615266.5000138573
 20
4842876.756754291
 10
615181.4729935626
 20
4842940.221404884
  0
LWPOLYLINE
  5
3F
330
17
100
AcDbEntity
  8
ROADS
100
AcDbPolyline
 90
3
 70
0
 10
615508.564017958
 20
4842928.996680997
 10
615316.8751678168
 20
4842956.267716133
 10
615243.3729264723
 20
4843020.643990718
  0
LWPOLYLINE
  5
40
330
17
100
AcDbEntity
  8
ROADS
100
AcDbPolyline
 90
2
 70
0
 10
615243.3729264723
 20
4843020.643990718
 10
615181.4729935626
 20
4842940.221404884
  0
LWPOLYLINE
  5
41
330
17
100
AcDbEntity
  8
ROADS
100
AcDbPolyline
 90
2
 70
0
 10
615811.6767911152
 20
4842867.159468463
 10
615733.9063115357
 20
4843094.678203739
  0
LWPOLYLINE
  5
42
330
17
100
AcDbEntity
  8
ROADS
100
AcDbPolyline
 90
3
 70
0
 10
615732.83612692
 20
4842910.662641099
 10
615392.4631972392
 20
4843093.222643054
 10
615356.1727350001
 20
4843126.561646243
  0
LWPOLYLINE
  5
43
330
17
100
AcDbEntity
  8
ROADS
100
AcDbPolyline
 90
2
 70
0
 10
615181.4729935626
 20
4842940.221404884
 10
615078.2919224587
 20
4843136.361903166
  0
LWPOLYLINE
  5
44
330
17
100
AcDbEntity
  8
ROADS
100
AcDbPolyline
 90
4
 70
0
 10
615078.2919224587
 20
4843136.361903166
 10
615028.2640215763
 20
4843115.456785724
 10
614936.6960860656
 20
4843119.299389335
 10
614757.730689594
 20
4843052.056183016
  0
LWPOLYLINE
  5
45
330
17
100
AcDbEntity
  8
ROADS
100
AcDbPolyline
 90
2
 70
0
 10
614726.4734843855
 20
4843136.990535801
 10
614757.730689594
 20
4843052.056183016
  0
LWPOLYLINE
  5
46
330
17
100
AcDbEntity
  8
ROADS
100
AcDbPolyline
 90
2
 70
0
 10
615243.3729264723
 20
4843020.643990718
 10
615147.5640215186
 20
4843211.423807411
  0
LWPOLYLINE
  5
47
330
17
100
AcDbEntity
  8
ROADS
100
AcDbPolyline
 90
2
 70
0
 10
614599.560247422
 20
4843187.398070691
 10
614565.0659309734
 20
4843277.946329778
  0
LWPOLYLINE
  5
48
330
17
100
AcDbEntity
  8
ROADS
100
AcDbPolyline
 90
2
 70
0
 10
615078.2919224587
 20
4843136.361903166
 10
615046.7965201972
 20
4843203.294546949
  0
LWPOLYLINE
  5
49
330
17
100
AcDbEntity
  8
ROADS
100
AcDbPolyline
 90
3
 70
0
 10
615018.5773968733
 20
4843218.784142002
 10
614949.2346709253
 20
4843224.028065245
 10
614726.4734843855
 20
4843136.990535801
  0
LWPOLYLINE
  5
4A
330
17
100
AcDbEntity
  8
ROADS
100
AcDbPolyline
 90
4
 70
0
 10
614809.3496913866
 20
4843272.9951714305
 10
614761.4043477008
 20
4843251.125722834
 10
614719.4383325253
 20
4843188.863497636
 10
614726.4734843855
 20
4843136.990535801
  0
LWPOLYLINE
  5
4B
330
17
100
AcDbEntity
  8
ROADS
100
AcDbPolyline
 90
2
 70
0
 10
615046.7965201972
 20
4843203.294546949
 10
615018.5773968733
 20
4843218.784142002
  0
LWPOLYLINE
  5
4C
330
17
100
AcDbEntity
  8
ROADS
100
AcDbPolyline
 90
2
 70
0
 10
615918.4619163204
 20
4842561.520544756
 10
615857.9848433775
 20
4842540.980664459
  0
LWPOLYLINE
  5
4D
330
17
100
AcDbEntity
  8
ROADS
100
AcDbPolyline
 90
2
 70
0
 10
615545.4174268324
 20
4842662.791394611
 10
615584.0394322862
 20
4842615.483180784
  0
LWPOLYLINE
  5
4E
330
17
100
AcDbEntity
  8
ROADS
100
AcDbPolyline
 90
2
 70
0
 10
615918.4619163204
 20
4842561.520544756
 10
615871.9224188135
 20
4842693.243967465
  0
LWPOLYLINE
  5
4F
330
17
100
AcDbEntity
  8
ROADS
100
AcDbPolyline
 90
2
 70
0
 10
615421.5813471985
 20
4842645.715832337
 10
615416.147247971
 20
4842649.953268191
  0
LWPOLYLINE
  5
50
330
17
100
AcDbEntity
  8
ROADS
100
AcDbPolyline
 90
2
 70
0
 10
615545.4174268324
 20
4842662.791394611
 10
615497.5408353665
 20
4842627.336109995
  0
LWPOLYLINE
  5
51
330
17
100
AcDbEntity
  8
ROADS
100
AcDbPolyline
 90
2
 70
0
 10
615416.147247971
 20
4842649.953268191
 10
615409.9983131912
 20
4842649.355680608
  0
LWPOLYLINE
  5
52
330
17
100
AcDbEntity
  8
ROADS
100
AcDbPolyline
 90
2
 70
0
 10
616526.8215215653
 20
4842700.990339307
 10
616482.5663414004
 20
4842792.033595186
  0
LWPOLYLINE
  5
53
330
17
100
AcDbEntity
  8
ROADS
100
AcDbPolyline
 90
10
 70
0
 10
616430.4263878617
 20
4842633.913600788
 10
616424.5061000332
 20
4842635.595959576
 10
616267.9037091166
 20
4842579.1138110785
 10
616220.4926058039
 20
4842607.992544797
 10
616106.3056844298
 20
4842627.084355866
 10
616045.3306501489
 20
4842669.5849602595
 10
616020.3921864346
 20
4842716.752947064
 10
615981.7779985953
 20
4842733.386510552
 10
615962.3109141283
 20
4842780.652519793
 10
615811.6767911152
 20
4842867.159468463
  0
LWPOLYLINE
  5
54
330
17
100
AcDbEntity
  8
ROADS
100
AcDbPolyline
 90
3
 70
0
 10
615330.632749019
 20
4842678.739143809
 10
615330.5878596717
 20
4842678.907436677
 10
615341.8646015039
 20
4842767.114929583
  0
LWPOLYLINE
  5
55
330
17
100
AcDbEntity
  8
ROADS
100
AcDbPolyline
 90
2
 70
0
 10
615240.9493892357
 20
4842723.912003756
 10
615251.1284097901
 20
4842779.97392919
  0
LWPOLYLINE
  5
56
330
17
100
AcDbEntity
  8
ROADS
100
AcDbPolyline
 90
3
 70
0
 10
615561.0463309168
 20
4842797.958018036
 10
615428.2925655295
 20
4842690.175194233
 10
615416.147247971
 20
4842649.953268191
  0
LWPOLYLINE
  5
57
330
17
100
AcDbEntity
  8
ROADS
100
AcDbPolyline
 90
3
 70
0
 10
615545.4174268324
 20
4842662.791394611
 10
615615.5697630022
 20
4842720.062738771
 10
615561.0463309168
 20
4842797.958018036
  0
LWPOLYLINE
  5
58
330
17
100
AcDbEntity
  8
ROADS
100
AcDbPolyline
 90
2
 70
0
 10
615341.8646015039
 20
4842767.114929583
 10
615251.1284097901
 20
4842779.97392919
  0
LWPOLYLINE
  5
59
330
17
100
AcDbEntity
  8
ROADS
100
AcDbPolyline
 90
2
 70
0
 10
615871.9224188135
 20
4842693.243967465
 10
615811.6767911152
 20
4842867.159468463
  0
LWPOLYLINE
  5
5A
330
17
100
AcDbEntity
  8
ROADS
100
AcDbPolyline
 90
5
 70
0
 10
615871.9224188135
 20
4842693.243967465
 10
615858.0008478618
 20
4842689.109869449
 10
615829.5001552054
 20
4842729.987172486
 10
615818.1034647517
 20
4842774.924169964
 10
615732.83612692
 20
4842910.662641099
  0
LWPOLYLINE
  5
5B
330
17
100
AcDbEntity
  8
ROADS
100
AcDbPolyline
 90
3
 70
0
 10
615459.0582833157
 20
4842839.241134902
 10
615371.8284448953
 20
4842769.157336881
 10
615341.8646015039
 20
4842767.114929583
  0
LWPOLYLINE
  5
5C
330
17
100
AcDbEntity
  8
ROADS
100
AcDbPolyline
 90
2
 70
0
 10
615633.9735717302
 20
4842854.961612972
 10
615561.0463309168
 20
4842797.958018036
  0
LWPOLYLINE
  5
5D
330
17
100
AcDbEntity
  8
ROADS
100
AcDbPolyline
 90
2
 70
0
 10
615251.1284097901
 20
4842779.97392919
 10
615266.5000138573
 20
4842876.756754291
  0
LWPOLYLINE
  5
5E
330
17
100
AcDbEntity
  8
ROADS
100
AcDbPolyline
 90
3
 70
0
 10
616653.6271633672
 20
4843362.189480278
 10
616785.2940472689
 20
4843372.587227695
 10
616907.5376938008
 20
4843334.9364804095
  0
LWPOLYLINE
  5
5F
330
17
100
AcDbEntity
  8
ROADS
100
AcDbPolyline
 90
3
 70
0
 10
616524.2776272496
 20
4842806.342015853
 10
616526.640252056
 20
4842752.33412966
 10
616555.2522365677
 20
4842724.32192146
  0
LWPOLYLINE
  5
60
330
17
100
AcDbEntity
  8
ROADS
100
AcDbPolyline
 90
2
 70
0
 10
616482.5663414004
 20
4842792.033595186
 10
616524.2776272496
 20
4842806.342015853
  0
LWPOLYLINE
  5
61
330
17
100
AcDbEntity
  8
ROADS
100
AcDbPolyline
 90
2
 70
0
 10
616524.2776272496
 20
4842806.342015853
 10
616693.6450711597
 20
4842875.407851178
  0
LWPOLYLINE
  5
62
330
17
100
AcDbEntity
  8
ROADS
100
AcDbPolyline
 90
2
 70
0
 10
616482.5663414004
 20
4842792.033595186
 10
616425.5486137616
 20
4842990.204558718
  0
LWPOLYLINE
  5
63
330
17
100
AcDbEntity
  8
ROADS
100
AcDbPolyline
 90
7
 70
0
 10
616035.6003862643
 20
4842947.037917223
 10
616060.162262364
 20
4842866.92116696
 10
616054.4171698662
 20
4842790.233442182
 10
616080.6574147446
 20
4842776.50549563
 10
616286.8500204538
 20
4842868.022353127
 10
616282.0882402763
 20
4842966.452099644
 10
616262.8205335643
 20
4843026.346123589
  0
LWPOLYLINE
  5
64
330
17
100
AcDbEntity
  8
ROADS
100
AcDbPolyline
 90
2
 70
0
 10
616262.8205335643
 20
4843026.346123589
 10
616035.6003862643
 20
4842947.037917223
  0
LWPOLYLINE
  5
65
330
17
100
AcDbEntity
  8
ROADS
100
AcDbPolyline
 90
2
 70
0
 10
616035.6003862643
 20
4842947.037917223
 10
615986.7146326337
 20
4843090.6402099
  0
LWPOLYLINE
  5
66
330
17
100
AcDbEntity
  8
ROADS
100
AcDbPolyline
 90
11
 70
0
 10
616653.6271633672
 20
4843362.189480278
 10
616636.0331725917
 20
4843312.274452435
 10
616721.1802561678
 20
4843234.522341417
 10
616735.0944423754
 20
4843122.610717898
 10
616754.4629137008
 20
4843093.614404093
 10
616714.6466199734
 20
4843029.587691912
 10
616717.7740644129
 20
4842993.106165556
 10
616698.0119522295
 20
4842956.726324779
 10
616702.8394362349
 20
4842891.516678322
 10
616547.0351990886
 20
4842843.199062448
 10
616524.2776272496
 20
4842806.342015853
  0
LWPOLYLINE
  5
67
330
17
100
AcDbEntity
  8
ROADS
100
AcDbPolyline
 90
2
 70
0
 10
616262.8205335643
 20
4843026.346123589
 10
616206.1547414016
 20
4843168.221622513
  0
LWPOLYLINE
  5
68
330
17
100
AcDbEntity
  8
ROADS
100
AcDbPolyline
 90
3
 70
0
 10
616431.6603932434
 20
4843231.813505984
 10
616438.084057844
 20
4843000.476771773
 10
616425.5486137616
 20
4842990.204558718
  0
LWPOLYLINE
  5
69
330
17
100
AcDbEntity
  8
ROADS
100
AcDbPolyline
 90
3
 70
0
 10
616425.5486137616
 20
4842990.204558718
 10
616380.0945393151
 20
4843108.57937025
 10
616268.8748549877
 20
4843242.953169621
  0
LWPOLYLINE
  5
6A
330
17
100
AcDbEntity
  8
ROADS
100
AcDbPolyline
 90
2
 70
0
 10
616206.1547414016
 20
4843168.221622513
 10
615986.7146326337
 20
4843090.6402099
  0
LWPOLYLINE
  5
6B
330
17
100
AcDbEntity
  8
ROADS
100
AcDbPolyline
 90
2
 70
0
 10
616206.1547414016
 20
4843168.221622513
 10
616175.6546675297
 20
4843246.014827592
  0
LWPOLYLINE
  5
6C
330
17
100
AcDbEntity
  8
ROADS
100
AcDbPolyline
 90
2
 70
0
 10
616175.6546675297
 20
4843246.014827592
 10
615958.900491212
 20
4843172.200098444
  0
LWPOLYLINE
  5
6D
330
17
100
AcDbEntity
  8
ROADS
100
AcDbPolyline
 90
3
 70
0
 10
616431.6603932434
 20
4843231.813505984
 10
616300.5788975033
 20
4843253.941391361
 10
616268.8748549877
 20
4843242.953169621
  0
LWPOLYLINE
  5
6E
330
17
100
AcDbEntity
  8
ROADS
100
AcDbPolyline
 90
2
 70
0
 10
616432.3384734495
 20
4843290.037044654
 10
616431.6603932434
 20
4843231.813505984
  0
LWPOLYLINE
  5
6F
330
17
100
AcDbEntity
  8
ROADS
100
AcDbPolyline
 90
2
 70
0
 10
616268.8748549877
 20
4843242.953169621
 10
616213.0487262306
 20
4843285.571892394
  0
LWPOLYLINE
  5
70
330
17
100
AcDbEntity
  8
ROADS
100
AcDbPolyline
 90
2
 70
0
 10
616213.0487262306
 20
4843285.571892394
 10
616175.6546675297
 20
4843246.014827592
  0
LWPOLYLINE
  5
71
330
17
100
AcDbEntity
  8
ROADS
100
AcDbPolyline
 90
2
 70
0
 10
616432.3384734495
 20
4843290.037044654
 10
616542.7056608009
 20
4843323.579406223
  0
LWPOLYLINE
  5
72
330
17
100
AcDbEntity
  8
ROADS
100
AcDbPolyline
 90
2
 70
0
 10
616213.0487262306
 20
4843285.571892394
 10
616109.0525135593
 20
4843344.248105223
  0
LWPOLYLINE
  5
73
330
17
100
AcDbEntity
  8
ROADS
100
AcDbPolyline
 90
2
 70
0
 10
615803.6048561563
 20
4843118.512505924
 10
615848.405173442
 20
4843007.743283538
  0
LWPOLYLINE
  5
74
330
17
100
AcDbEntity
  8
ROADS
100
AcDbPolyline
 90
2
 70
0
 10
615356.1727350001
 20
4843126.561646243
 10
615243.3729264723
 20
4843020.643990718
  0
LWPOLYLINE
  5
75
330
17
100
AcDbEntity
  8
ROADS
100
AcDbPolyline
 90
2
 70
0
 10
615803.6048561563
 20
4843118.512505924
 10
615733.9063115357
 20
4843094.678203739
  0
LWPOLYLINE
  5
76
330
17
100
AcDbEntity
  8
ROADS
100
AcDbPolyline
 90
2
 70
0
 10
615986.7146326337
 20
4843090.6402099
 10
615958.900491212
 20
4843172.200098444
  0
LWPOLYLINE
  5
77
330
17
100
AcDbEntity
  8
ROADS
100
AcDbPolyline
 90
2
 70
0
 10
615958.900491212
 20
4843172.200098444
 10
615803.6048561563
 20
4843118.512505924
  0
LWPOLYLINE
  5
78
330
17
100
AcDbEntity
  8
ROADS
100
AcDbPolyline
 90
3
 70
0
 10
615356.1727350001
 20
4843126.561646243
 10
615330.8358898367
 20
4843165.794077072
 10
615308.4191219577
 20
4843284.632506202
  0
LWPOLYLINE
  5
79
330
17
100
AcDbEntity
  8
ROADS
100
AcDbPolyline
 90
3
 70
0
 10
615588.9829786512
 20
4843169.107990494
 10
615531.824665471
 20
4843172.573441014
 10
615467.8229654449
 20
4843248.420000852
  0
LWPOLYLINE
  5
7A
330
17
100
AcDbEntity
  8
ROADS
100
AcDbPolyline
 90
2
 70
0
 10
615733.9063115357
 20
4843094.678203739
 10
615652.8387751507
 20
4843337.931593996
  0
LWPOLYLINE
  5
7B
330
17
100
AcDbEntity
  8
ROADS
100
AcDbPolyline
 90
2
 70
0
 10
615958.900491212
 20
4843172.200098444
 10
615921.8288751272
 20
4843276.807061935
  0
LWPOLYLINE
  5
7C
330
17
100
AcDbEntity
  8
ROADS
100
AcDbPolyline
 90
2
 70
0
 10
615782.2019578282
 20
4843248.849784346
 10
615743.8632769062
 20
4843237.502471444
  0
LWPOLYLINE
  5
7D
330
17
100
AcDbEntity
  8
ROADS
100
AcDbPolyline
 90
2
 70
0
 10
615147.5640215186
 20
4843211.423807411
 10
615308.4191219577
 20
4843284.632506202
  0
LWPOLYLINE
  5
7E
330
17
100
AcDbEntity
  8
ROADS
100
AcDbPolyline
 90
2
 70
0
 10
615467.8229654449
 20
4843248.420000852
 10
615526.9059837084
 20
4843271.490137048
  0
LWPOLYLINE
  5
7F
330
17
100
AcDbEntity
  8
ROADS
100
AcDbPolyline
 90
2
 70
0
 10
615914.7131837099
 20
4843296.555823954
 10
615782.2019578282
 20
4843248.849784346
  0
LWPOLYLINE
  5
80
330
17
100
AcDbEntity
  8
ROADS
100
AcDbPolyline
 90
2
 70
0
 10
615921.8288751272
 20
4843276.807061935
 10
615914.7131837099
 20
4843296.555823954
  0
LWPOLYLINE
  5
81
330
17
100
AcDbEntity
  8
ROADS
100
AcDbPolyline
 90
3
 70
0
 10
615467.8229654449
 20
4843248.420000852
 10
615449.8361170044
 20
4843328.597605101
 10
615465.815758478
 20
4843353.887560401
  0
LWPOLYLINE
  5
82
330
17
100
AcDbEntity
  8
ROADS
100
AcDbPolyline
 90
2
 70
0
 10
615782.2019578282
 20
4843248.849784346
 10
615734.9066110628
 20
4843384.140481635
  0
LWPOLYLINE
  5
83
330
17
100
AcDbEntity
  8
ROADS
100
AcDbPolyline
 90
4
 70
0
 10
615652.8387751507
 20
4843337.931593996
 10
615609.3526103407
 20
4843327.985134985
 10
615514.9807192646
 20
4843367.277911312
 10
615465.815758478
 20
4843353.887560401
  0
LWPOLYLINE
  5
84
330
17
100
AcDbEntity
  8
ROADS
100
AcDbPolyline
 90
2
 70
0
 10
615914.7131837099
 20
4843296.555823954
 10
615869.0542653304
 20
4843430.166143294
  0
LWPOLYLINE
  5
85
330
17
100
AcDbEntity
  8
ROADS
100
AcDbPolyline
 90
2
 70
0
 10
615734.9066110628
 20
4843384.140481635
 10
615689.1943422802
 20
4843370.05260109
  0
LWPOLYLINE
  5
86
330
17
100
AcDbEntity
  8
ROADS
100
AcDbPolyline
 90
2
 70
0
 10
615869.0542653304
 20
4843430.166143294
 10
615734.9066110628
 20
4843384.140481635
  0
LWPOLYLINE
  5
87
330
17
100
AcDbEntity
  8
ROADS
100
AcDbPolyline
 90
3
 70
0
 10
616057.5353869688
 20
4843369.086273196
 10
616032.0078918244
 20
4843315.873625989
 10
615921.8288751272
 20
4843276.807061935
  0
LWPOLYLINE
  5
88
330
17
100
AcDbEntity
  8
ROADS
100
AcDbPolyline
 90
2
 70
0
 10
616406.010824882
 20
4843372.451460585
 10
616432.3384734495
 20
4843290.037044654
  0
LWPOLYLINE
  5
89
330
17
100
AcDbEntity
  8
ROADS
100
AcDbPolyline
 90
3
 70
0
 10
616406.010824882
 20
4843372.451460585
 10
616289.0135996694
 20
4843331.942371498
 10
616214.7288106182
 20
4843371.693859193
  0
LWPOLYLINE
  5
8A
330
17
100
AcDbEntity
  8
ROADS
100
AcDbPolyline
 90
2
 70
0
 10
616109.0525135593
 20
4843344.248105223
 10
616057.5353869688
 20
4843369.086273196
  0
LWPOLYLINE
  5
8B
330
17
100
AcDbEntity
  8
ROADS
100
AcDbPolyline
 90
2
 70
0
 10
616138.3516251919
 20
4843410.083412284
 10
616109.0525135593
 20
4843344.248105223
  0
LWPOLYLINE
  5
8C
330
17
100
AcDbEntity
  8
ROADS
100
AcDbPolyline
 90
2
 70
0
 10
616214.7288106182
 20
4843371.693859193
 10
616138.3516251919
 20
4843410.083412284
  0
LWPOLYLINE
  5
8D
330
17
100
AcDbEntity
  8
ROADS
100
AcDbPolyline
 90
3
 70
0
 10
616670.5317867642
 20
4843501.062794179
 10
616676.6327931726
 20
4843426.164911656
 10
616653.6271633672
 20
4843362.189480278
  0
LWPOLYLINE
  5
8E
330
17
100
AcDbEntity
  8
ROADS
100
AcDbPolyline
 90
3
 70
0
 10
616527.381629173
 20
4843503.037504076
 10
616538.7149271029
 20
4843420.3431302225
 10
616406.010824882
 20
4843372.451460585
  0
LWPOLYLINE
  5
8F
330
17
100
AcDbEntity
  8
ROADS
100
AcDbPolyline
 90
4
 70
0
 10
616253.1003663061
 20
4843555.349929179
 10
616291.1277536533
 20
4843433.362673071
 10
616229.7153895772
 20
4843403.727097302
 10
616214.7288106182
 20
4843371.693859193
  0
LWPOLYLINE
  5
90
330
17
100
AcDbEntity
  8
ROADS
100
AcDbPolyline
 90
2
 70
0
 10
616335.4382991607
 20
4843582.226258948
 10
616406.010824882
 20
4843372.451460585
  0
LWPOLYLINE
  5
91
330
17
100
AcDbEntity
  8
ROADS
100
AcDbPolyline
 90
2
 70
0
 10
616057.5353869688
 20
4843369.086273196
 10
615893.5993272762
 20
4843460.971346255
  0
LWPOLYLINE
  5
92
330
17
100
AcDbEntity
  8
ROADS
100
AcDbPolyline
 90
3
 70
0
 10
615465.815758478
 20
4843353.887560401
 10
615429.3558952094
 20
4843429.230624856
 10
615342.3005275413
 20
4843520.158195016
  0
LWPOLYLINE
  5
93
330
17
100
AcDbEntity
  8
ROADS
100
AcDbPolyline
 90
3
 70
0
 10
615869.0542653304
 20
4843430.166143294
 10
615871.9993978881
 20
4843450.382035691
 10
615893.5993272762
 20
4843460.971346255
  0
LWPOLYLINE
  5
94
330
17
100
AcDbEntity
  8
ROADS
100
AcDbPolyline
 90
2
 70
0
 10
615869.0542653304
 20
4843430.166143294
 10
615857.3240696341
 20
4843483.02481352
  0
LWPOLYLINE
  5
95
330
17
100
AcDbEntity
  8
ROADS
100
AcDbPolyline
 90
2
 70
0
 10
615893.5993272762
 20
4843460.971346255
 10
615857.3240696341
 20
4843483.02481352
  0
LWPOLYLINE
  5
96
330
17
100
AcDbEntity
  8
ROADS
100
AcDbPolyline
 90
2
 70
0
 10
615652.8387751507
 20
4843337.931593996
 10
615558.3071879882
 20
4843613.6950366935
  0
LWPOLYLINE
  5
97
330
17
100
AcDbEntity
  8
ROADS
100
AcDbPolyline
 90
2
 70
0
 10
615857.3240696341
 20
4843483.02481352
 10
615965.0392754442
 20
4843642.167811615
  0
LWPOLYLINE
  5
98
330
17
100
AcDbEntity
  8
ROADS
100
AcDbPolyline
 90
2
 70
0
 10
615857.3240696341
 20
4843483.02481352
 10
615589.9560638168
 20
4843653.68907994
  0
LWPOLYLINE
  5
99
330
17
100
AcDbEntity
  8
ROADS
100
AcDbPolyline
 90
3
 70
0
 10
615558.3071879882
 20
4843613.6950366935
 10
615564.7723851553
 20
4843644.020915722
 10
615589.9560638168
 20
4843653.68907994
  0
LWPOLYLINE
  5
9A
330
17
100
AcDbEntity
  8
ROADS
100
AcDbPolyline
 90
2
 70
0
 10
615558.3071879882
 20
4843613.6950366935
 10
615532.3303192831
 20
4843689.105869904
  0
LWPOLYLINE
  5
9B
330
17
100
AcDbEntity
  8
ROADS
100
AcDbPolyline
 90
2
 70
0
 10
615137.4086893266
 20
4843231.867521007
 10
615046.7965201972
 20
4843203.294546949
  0
LWPOLYLINE
  5
9C
330
17
100
AcDbEntity
  8
ROADS
100
AcDbPolyline
 90
2
 70
0
 10
615147.5640215186
 20
4843211.423807411
 10
615137.4086893266
 20
4843231.867521007
  0
LWPOLYLINE
  5
9D
330
17
100
AcDbEntity
  8
ROADS
100
AcDbPolyline
 90
2
 70
0
 10
615018.5773968733
 20
4843218.784142002
 10
614961.6158766001
 20
4843332.2559914505
  0
LWPOLYLINE
  5
9E
330
17
100
AcDbEntity
  8
ROADS
100
AcDbPolyline
 90
2
 70
0
 10
614961.6158766001
 20
4843332.2559914505
 10
614809.3496913866
 20
4843272.9951714305
  0
LWPOLYLINE
  5
9F
330
17
100
AcDbEntity
  8
ROADS
100
AcDbPolyline
 90
4
 70
0
 10
615137.4086893266
 20
4843231.867521007
 10
615036.4634405617
 20
4843390.613402046
 10
614935.6570752263
 20
4843386.787497665
 10
614961.6158766001
 20
4843332.2559914505
  0
LWPOLYLINE
  5
A0
330
17
100
AcDbEntity
  8
ROADS
100
AcDbPolyline
 90
3
 70
0
 10
614809.3496913866
 20
4843272.9951714305
 10
614795.4891757028
 20
4843318.745435785
 10
614836.5466639686
 20
4843386.890395726
  0
LWPOLYLINE
  5
A1
330
17
100
AcDbEntity
  8
ROADS
100
AcDbPolyline
 90
2
 70
0
 10
614565.0659309734
 20
4843277.946329778
 10
614512.0270532108
 20
4843420.779745712
  0
LWPOLYLINE
  5
A2
330
17
100
AcDbEntity
  8
ROADS
100
AcDbPolyline
 90
9
 70
0
 10
615308.4191219577
 20
4843284.632506202
 10
615286.1563437779
 20
4843345.520148748
 10
615194.9988109941
 20
4843379.609928673
 10
615117.9317477477
 20
4843500.922060817
 10
615069.3316564529
 20
4843522.952860835
 10
614908.2095387009
 20
4843498.863529934
 10
614841.3043595925
 20
4843469.058622104
 10
614683.4071744133
 20
4843328.090774854
 10
614565.0659309734
 20
4843277.946329778
  0
LWPOLYLINE
  5
A3
330
17
100
AcDbEntity
  8
ROADS
100
AcDbPolyline
 90
2
 70
0
 10
614512.0270532108
 20
4843420.779745712
 10
614489.8968898614
 20
4843479.480581567
  0
LWPOLYLINE
  5
A4
330
17
100
AcDbEntity
  8
ROADS
100
AcDbPolyline
 90
2
 70
0
 10
614489.8968898614
 20
4843479.480581567
 10
614460.8572554708
 20
4843468.382135235
  0
LWPOLYLINE
  5
A5
330
17
100
AcDbEntity
  8
ROADS
100
AcDbPolyline
 90
3
 70
0
 10
614512.0270532108
 20
4843420.779745712
 10
614645.4141120161
 20
4843481.448861563
 10
614713.0223734758
 20
4843550.800479683
  0
LWPOLYLINE
  5
A6
330
17
100
AcDbEntity
  8
ROADS
100
AcDbPolyline
 90
2
 70
0
 10
614713.0223734758
 20
4843550.800479683
 10
614777.2286671875
 20
4843605.921179109
  0
LWPOLYLINE
  5
A7
330
17
100
AcDbEntity
  8
ROADS
100
AcDbPolyline
 90
4
 70
0
 10
614713.0223734758
 20
4843550.800479683
 10
614676.2086073398
 20
4843597.083217381
 10
614550.4375415021
 20
4843539.795002399
 10
614513.7136257119
 20
4843626.136331345
  0
LWPOLYLINE
  5
A8
330
17
100
AcDbEntity
  8
ROADS
100
AcDbPolyline
 90
3
 70
0
 10
614777.2286671875
 20
4843605.921179109
 10
614870.7971035456
 20
4843643.619991874
 10
614955.5229709893
 20
4843650.155940334
  0
LWPOLYLINE
  5
A9
330
17
100
AcDbEntity
  8
ROADS
100
AcDbPolyline
 90
4
 70
0
 10
614777.2286671875
 20
4843605.921179109
 10
614739.9691868792
 20
4843675.746446696
 10
614687.3489172377
 20
4843696.292381215
 10
614513.7136257119
 20
4843626.136331345
  0
LWPOLYLINE
  5
AA
330
17
100
AcDbEntity
  8
ROADS
100
AcDbPolyline
 90
2
 70
0
 10
614955.5229709893
 20
4843650.155940334
 10
615017.9802831832
 20
4843659.2878346555
  0
LWPOLYLINE
  5
AB
330
17
100
AcDbEntity
  8
ROADS
100
AcDbPolyline
 90
2
 70
0
 10
614513.7136257119
 20
4843626.136331345
 10
614480.6351361482
 20
4843716.545734977
  0
LWPOLYLINE
  5
AC
330
17
100
AcDbEntity
  8
ROADS
100
AcDbPolyline
 90
2
 70
0
 10
614955.5229709893
 20
4843650.155940334
 10
614919.369719177
 20
4843735.5736695
  0
LWPOLYLINE
  5
AD
330
17
100
AcDbEntity
  8
ROADS
100
AcDbPolyline
 90
2
 70
0
 10
614489.8968898614
 20
4843479.480581567
 10
614435.1368024877
 20
4843626.304324154
  0
LWPOLYLINE
  5
AE
330
17
100
AcDbEntity
  8
ROADS
100
AcDbPolyline
 90
2
 70
0
 10
614480.6351361482
 20
4843716.545734977
 10
614456.8455940273
 20
4843780.620638131
  0
LWPOLYLINE
  5
AF
330
17
100
AcDbEntity
  8
ROADS
100
AcDbPolyline
 90
3
 70
0
 10
614633.4273304234
 20
4843808.827049652
 10
614586.8399373355
 20
4843765.477584667
 10
614480.6351361482
 20
4843716.545734977
  0
LWPOLYLINE
  5
B0
330
17
100
AcDbEntity
  8
ROADS
100
AcDbPolyline
 90
2
 70
0
 10
614919.369719177
 20
4843735.5736695
 10
614679.7114672512
 20
4843792.20152974
  0
LWPOLYLINE
  5
B1
330
17
100
AcDbEntity
  8
ROADS
100
AcDbPolyline
 90
4
 70
0
 10
614679.7114672512
 20
4843792.20152974
 10
614698.86039752
 20
4843840.068393881
 10
614949.4166112707
 20
4843789.370006407
 10
614919.369719177
 20
4843735.5736695
  0
LWPOLYLINE
  5
B2
330
17
100
AcDbEntity
  8
ROADS
100
AcDbPolyline
 90
2
 70
0
 10
614679.7114672512
 20
4843792.20152974
 10
614633.4273304234
 20
4843808.827049652
  0
LWPOLYLINE
  5
B3
330
17
100
AcDbEntity
  8
ROADS
100
AcDbPolyline
 90
2
 70
0
 10
615022.1268450135
 20
4843796.366482348
 10
614938.1209968836
 20
4843814.024157172
  0
LWPOLYLINE
  5
B4
330
17
100
AcDbEntity
  8
ROADS
100
AcDbPolyline
 90
2
 70
0
 10
615589.9560638168
 20
4843653.68907994
 10
615532.3303192831
 20
4843689.105869904
  0
LWPOLYLINE
  5
B5
330
17
100
AcDbEntity
  8
ROADS
100
AcDbPolyline
 90
2
 70
0
 10
615432.7410579061
 20
4843713.10866763
 10
615418.8710860985
 20
4843648.013801228
  0
LWPOLYLINE
  5
B6
330
17
100
AcDbEntity
  8
ROADS
100
AcDbPolyline
 90
2
 70
0
 10
615726.9115791087
 20
4843715.741114064
 10
615804.2552089116
 20
4843673.790072478
  0
LWPOLYLINE
  5
B7
330
17
100
AcDbEntity
  8
ROADS
100
AcDbPolyline
 90
2
 70
0
 10
615532.3303192831
 20
4843689.105869904
 10
615466.4745990011
 20
4843706.280159045
  0
LWPOLYLINE
  5
B8
330
17
100
AcDbEntity
  8
ROADS
100
AcDbPolyline
 90
2
 70
0
 10
615466.4745990011
 20
4843706.280159045
 10
615432.7410579061
 20
4843713.10866763
  0
LWPOLYLINE
  5
B9
330
17
100
AcDbEntity
  8
ROADS
100
AcDbPolyline
 90
2
 70
0
 10
615532.3303192831
 20
4843689.105869904
 10
615512.0802106455
 20
4843752.330027937
  0
LWPOLYLINE
  5
BA
330
17
100
AcDbEntity
  8
ROADS
100
AcDbPolyline
 90
3
 70
0
 10
615512.0802106455
 20
4843752.330027937
 10
615503.7223290317
 20
4843716.51573672
 10
615466.4745990011
 20
4843706.280159045
  0
LWPOLYLINE
  5
BB
330
17
100
AcDbEntity
  8
ROADS
100
AcDbPolyline
 90
2
 70
0
 10
615432.7410579061
 20
4843713.10866763
 10
615022.1268450135
 20
4843796.366482348
  0
LWPOLYLINE
  5
BC
330
17
100
AcDbEntity
  8
ROADS
100
AcDbPolyline
 90
2
 70
0
 10
615726.9115791087
 20
4843715.741114064
 10
615778.774778242
 20
4843800.6584047135
  0
LWPOLYLINE
  5
BD
330
17
100
AcDbEntity
  8
ROADS
100
AcDbPolyline
 90
3
 70
0
 10
615597.6705668624
 20
4843827.676579731
 10
615638.2725598146
 20
4843760.900743876
 10
615726.9115791087
 20
4843715.741114064
  0
LWPOLYLINE
  5
BE
330
17
100
AcDbEntity
  8
ROADS
100
AcDbPolyline
 90
3
 70
0
 10
616253.1003663061
 20
4843555.349929179
 10
616198.3968327948
 20
4843528.994877394
 10
616138.3516251919
 20
4843410.083412284
  0
LWPOLYLINE
  5
BF
330
17
100
AcDbEntity
  8
ROADS
100
AcDbPolyline
 90
2
 70
0
 10
616641.2534050648
 20
4843515.7832429325
 10
616670.5317867642
 20
4843501.062794179
  0
LWPOLYLINE
  5
C0
330
17
100
AcDbEntity
  8
ROADS
100
AcDbPolyline
 90
2
 70
0
 10
616527.381629173
 20
4843503.037504076
 10
616641.2534050648
 20
4843515.7832429325
  0
LWPOLYLINE
  5
C1
330
17
100
AcDbEntity
  8
ROADS
100
AcDbPolyline
 90
2
 70
0
 10
616670.8531091339
 20
4843519.496182764
 10
616670.5317867642
 20
4843501.062794179
  0
LWPOLYLINE
  5
C2
330
17
100
AcDbEntity
  8
ROADS
100
AcDbPolyline
 90
2
 70
0
 10
616641.2534050648
 20
4843515.7832429325
 10
616670.8531091339
 20
4843519.496182764
  0
LWPOLYLINE
  5
C3
330
17
100
AcDbEntity
  8
ROADS
100
AcDbPolyline
 90
2
 70
0
 10
616679.2386887424
 20
4843589.7451631455
 10
616670.8531091339
 20
4843519.496182764
  0
LWPOLYLINE
  5
C4
330
17
100
AcDbEntity
  8
ROADS
100
AcDbPolyline
 90
3
 70
0
 10
616527.381629173
 20
4843503.037504076
 10
616465.8070594152
 20
4843499.429750816
 10
616426.2058731031
 20
4843613.225325353
  0
LWPOLYLINE
  5
C5
330
17
100
AcDbEntity
  8
ROADS
100
AcDbPolyline
 90
2
 70
0
 10
616335.4382991607
 20
4843582.226258948
 10
616253.1003663061
 20
4843555.349929179
  0
LWPOLYLINE
  5
C6
330
17
100
AcDbEntity
  8
ROADS
100
AcDbPolyline
 90
2
 70
0
 10
616558.7661022691
 20
4843635.421699949
 10
616527.381629173
 20
4843503.037504076
  0
LWPOLYLINE
  5
C7
330
17
100
AcDbEntity
  8
ROADS
100
AcDbPolyline
 90
2
 70
0
 10
616376.2807822598
 20
4843596.630047552
 10
616335.4382991607
 20
4843582.226258948
  0
LWPOLYLINE
  5
C8
330
17
100
AcDbEntity
  8
ROADS
100
AcDbPolyline
 90
2
 70
0
 10
616919.6215810871
 20
4843497.276732477
 10
616891.1045935055
 20
4843479.8560005305
  0
LWPOLYLINE
  5
C9
330
17
100
AcDbEntity
  8
ROADS
100
AcDbPolyline
 90
2
 70
0
 10
616213.8261527193
 20
4843640.3124885615
 10
616253.1003663061
 20
4843555.349929179
  0
LWPOLYLINE
  5
CA
330
17
100
AcDbEntity
  8
ROADS
100
AcDbPolyline
 90
2
 70
0
 10
616426.2058731031
 20
4843613.225325353
 10
616376.2807822598
 20
4843596.630047552
  0
LWPOLYLINE
  5
CB
330
17
100
AcDbEntity
  8
ROADS
100
AcDbPolyline
 90
3
 70
0
 10
615965.0392754442
 20
4843642.167811615
 10
616061.9762024903
 20
4843572.503603353
 10
616090.2501509628
 20
4843572.386430916
  0
LWPOLYLINE
  5
CC
330
17
100
AcDbEntity
  8
ROADS
100
AcDbPolyline
 90
3
 70
0
 10
616558.7661022691
 20
4843635.421699949
 10
616514.4706843881
 20
4843641.391014576
 10
616426.2058731031
 20
4843613.225325353
  0
LWPOLYLINE
  5
CD
330
17
100
AcDbEntity
  8
ROADS
100
AcDbPolyline
 90
4
 70
0
 10
616569.1109101552
 20
4843680.194345117
 10
616613.5967798418
 20
4843667.627278558
 10
616650.7768039507
 20
4843603.9973709
 10
616679.2386887424
 20
4843589.7451631455
  0
LWPOLYLINE
  5
CE
330
17
100
AcDbEntity
  8
ROADS
100
AcDbPolyline
 90
2
 70
0
 10
616569.1109101552
 20
4843680.194345117
 10
616558.7661022691
 20
4843635.421699949
  0
LWPOLYLINE
  5
CF
330
17
100
AcDbEntity
  8
ROADS
100
AcDbPolyline
 90
2
 70
0
 10
615965.0392754442
 20
4843642.167811615
 10
616045.2520185336
 20
4843699.373553965
  0
LWPOLYLINE
  5
D0
330
17
100
AcDbEntity
  8
ROADS
100
AcDbPolyline
 90
3
 70
0
 10
616213.8261527193
 20
4843640.3124885615
 10
616129.7016581055
 20
4843664.784323007
 10
616102.2335854726
 20
4843720.0386944655
  0
LWPOLYLINE
  5
D1
330
17
100
AcDbEntity
  8
ROADS
100
AcDbPolyline
 90
2
 70
0
 10
616313.8993818462
 20
4843791.268615
 10
616376.2807822598
 20
4843596.630047552
  0
LWPOLYLINE
  5
D2
330
17
100
AcDbEntity
  8
ROADS
100
AcDbPolyline
 90
3
 70
0
 10
616215.4858199635
 20
4843758.215032854
 10
616248.4481348505
 20
4843655.174684504
 10
616213.8261527193
 20
4843640.3124885615
  0
LWPOLYLINE
  5
D3
330
17
100
AcDbEntity
  8
ROADS
100
AcDbPolyline
 90
2
 70
0
 10
616045.2520185336
 20
4843699.373553965
 10
616102.2335854726
 20
4843720.0386944655
  0
LWPOLYLINE
  5
D4
330
17
100
AcDbEntity
  8
ROADS
100
AcDbPolyline
 90
2
 70
0
 10
616011.3872459828
 20
4843755.761141502
 10
616045.2520185336
 20
4843699.373553965
  0
LWPOLYLINE
  5
D5
330
17
100
AcDbEntity
  8
ROADS
100
AcDbPolyline
 90
2
 70
0
 10
616102.2335854726
 20
4843720.0386944655
 10
616186.523036065
 20
4843749.096446463
  0
LWPOLYLINE
  5
D6
330
17
100
AcDbEntity
  8
ROADS
100
AcDbPolyline
 90
2
 70
0
 10
616186.523036065
 20
4843749.096446463
 10
616215.4858199635
 20
4843758.215032854
  0
LWPOLYLINE
  5
D7
330
17
100
AcDbEntity
  8
ROADS
100
AcDbPolyline
 90
2
 70
0
 10
616215.4858199635
 20
4843758.215032854
 10
616269.866324404
 20
4843777.334059663
  0
LWPOLYLINE
  5
D8
330
17
100
AcDbEntity
  8
ROADS
100
AcDbPolyline
 90
2
 70
0
 10
615972.9341962072
 20
4843791.60755988
 10
616011.3872459828
 20
4843755.761141502
  0
LWPOLYLINE
  5
D9
330
17
100
AcDbEntity
  8
ROADS
100
AcDbPolyline
 90
3
 70
0
 10
616540.0080147865
 20
4843867.786249539
 10
616578.768222813
 20
4843737.69793908
 10
616569.1109101552
 20
4843680.194345117
  0
LWPOLYLINE
  5
DA
330
17
100
AcDbEntity
  8
ROADS
100
AcDbPolyline
 90
2
 70
0
 10
616269.866324404
 20
4843777.334059663
 10
616313.8993818462
 20
4843791.268615
  0
LWPOLYLINE
  5
DB
330
17
100
AcDbEntity
  8
ROADS
100
AcDbPolyline
 90
2
 70
0
 10
616186.523036065
 20
4843749.096446463
 10
616159.3001519267
 20
4843831.959074501
  0
LWPOLYLINE
  5
DC
330
17
100
AcDbEntity
  8
ROADS
100
AcDbPolyline
 90
3
 70
0
 10
616159.3001519267
 20
4843831.959074501
 10
616056.0579834513
 20
4843798.271062744
 10
616011.3872459828
 20
4843755.761141502
  0
LWPOLYLINE
  5
DD
330
17
100
AcDbEntity
  8
ROADS
100
AcDbPolyline
 90
2
 70
0
 10
615512.0802106455
 20
4843752.330027937
 10
615497.3226784675
 20
4843791.99846337
  0
LWPOLYLINE
  5
DE
330
17
100
AcDbEntity
  8
ROADS
100
AcDbPolyline
 90
2
 70
0
 10
615778.774778242
 20
4843800.6584047135
 10
615852.1406961932
 20
4843754.488246016
  0
LWPOLYLINE
  5
DF
330
17
100
AcDbEntity
  8
ROADS
100
AcDbPolyline
 90
2
 70
0
 10
615497.3226784675
 20
4843791.99846337
 10
615597.6705668624
 20
4843827.676579731
  0
LWPOLYLINE
  5
E0
330
17
100
AcDbEntity
  8
ROADS
100
AcDbPolyline
 90
2
 70
0
 10
615831.1062533379
 20
4843874.51288336
 10
615972.9341962072
 20
4843791.60755988
  0
LWPOLYLINE
  5
E1
330
17
100
AcDbEntity
  8
ROADS
100
AcDbPolyline
 90
2
 70
0
 10
615778.774778242
 20
4843800.6584047135
 10
615831.1062533379
 20
4843874.51288336
  0
LWPOLYLINE
  5
E2
330
17
100
AcDbEntity
  8
ROADS
100
AcDbPolyline
 90
2
 70
0
 10
615597.6705668624
 20
4843827.676579731
 10
615628.6258806754
 20
4843860.849901694
  0
LWPOLYLINE
  5
E3
330
17
100
AcDbEntity
  8
ROADS
100
AcDbPolyline
 90
2
 70
0
 10
615497.3226784675
 20
4843791.99846337
 10
615448.8869713377
 20
4843928.125851371
  0
LWPOLYLINE
  5
E4
330
17
100
AcDbEntity
  8
ROADS
100
AcDbPolyline
 90
2
 70
0
 10
615668.9483446308
 20
4843895.520850421
 10
615695.9563377276
 20
4843827.288870296
  0
LWPOLYLINE
  5
E5
330
17
100
AcDbEntity
  8
ROADS
100
AcDbPolyline
 90
2
 70
0
 10
615628.6258806754
 20
4843860.849901694
 10
615668.9483446308
 20
4843895.520850421
  0
LWPOLYLINE
  5
E6
330
17
100
AcDbEntity
  8
ROADS
100
AcDbPolyline
 90
3
 70
0
 10
615668.9483446308
 20
4843895.520850421
 10
615770.6211053844
 20
4843922.814262217
 10
615831.1062533379
 20
4843874.51288336
  0
LWPOLYLINE
  5
E7
330
17
100
AcDbEntity
  8
ROADS
100
AcDbPolyline
 90
3
 70
0
 10
616782.5233898548
 20
4843922.362199897
 10
616706.0102280577
 20
4843753.768904764
 10
616679.2386887424
 20
4843589.7451631455
  0
LWPOLYLINE
  5
E8
330
17
100
AcDbEntity
  8
ROADS
100
AcDbPolyline
 90
2
 70
0
 10
616313.8993818462
 20
4843791.268615
 10
616397.3111266646
 20
4843820.3665141165
  0
LWPOLYLINE
  5
E9
330
17
100
AcDbEntity
  8
ROADS
100
AcDbPolyline
 90
2
 70
0
 10
615972.9341962072
 20
4843791.60755988
 10
616005.0559728373
 20
4843850.003264752
  0
LWPOLYLINE
  5
EA
330
17
100
AcDbEntity
  8
ROADS
100
AcDbPolyline
 90
2
 70
0
 10
616397.3111266646
 20
4843820.3665141165
 10
616540.0080147865
 20
4843867.786249539
  0
LWPOLYLINE
  5
EB
330
17
100
AcDbEntity
  8
ROADS
100
AcDbPolyline
 90
2
 70
0
 10
616397.3111266646
 20
4843820.3665141165
 10
616367.2172096305
 20
4843900.628134687
  0
LWPOLYLINE
  5
EC
330
17
100
AcDbEntity
  8
ROADS
100
AcDbPolyline
 90
4
 70
0
 10
616159.3001519267
 20
4843831.959074501
 10
616139.6680461847
 20
4843891.534923468
 10
616090.8702488152
 20
4843878.242622235
 10
616101.6330412615
 20
4843930.415997761
  0
LWPOLYLINE
  5
ED
330
17
100
AcDbEntity
  8
ROADS
100
AcDbPolyline
 90
3
 70
0
 10
616235.9283810715
 20
4844005.352460101
 10
616212.7985178434
 20
4843943.109872663
 10
616269.866324404
 20
4843777.334059663
  0
LWPOLYLINE
  5
EE
330
17
100
AcDbEntity
  8
ROADS
100
AcDbPolyline
 90
3
 70
0
 10
616540.0080147865
 20
4843867.786249539
 10
616585.8542557585
 20
4843902.319286533
 10
616611.1781880622
 20
4843954.123838063
  0
LWPOLYLINE
  5
EF
330
17
100
AcDbEntity
  8
ROADS
100
AcDbPolyline
 90
2
 70
0
 10
616101.6330412615
 20
4843930.415997761
 10
616007.2426680665
 20
4843891.894069283
  0
LWPOLYLINE
  5
F0
330
17
100
AcDbEntity
  8
ROADS
100
AcDbPolyline
 90
2
 70
0
 10
616101.6330412615
 20
4843930.415997761
 10
616111.2712241339
 20
4843945.749934455
  0
LWPOLYLINE
  5
F1
330
17
100
AcDbEntity
  8
ROADS
100
AcDbPolyline
 90
4
 70
0
 10
616367.2172096305
 20
4843900.628134687
 10
616324.9530344566
 20
4843890.845710461
 10
616284.9111627825
 20
4843997.9330147365
 10
616248.726654772
 20
4844027.618821563
  0
LWPOLYLINE
  5
F2
330
17
100
AcDbEntity
  8
ROADS
100
AcDbPolyline
 90
4
 70
0
 10
616488.4732656073
 20
4844082.502845371
 10
616451.2376659549
 20
4844056.677944682
 10
616491.4108680477
 20
4843935.820551086
 10
616540.0080147865
 20
4843867.786249539
  0
LWPOLYLINE
  5
F3
330
17
100
AcDbEntity
  8
ROADS
100
AcDbPolyline
 90
3
 70
0
 10
616111.2712241339
 20
4843945.749934455
 10
616178.8271548945
 20
4844038.2476818245
 10
616235.9283810715
 20
4844005.352460101
  0
LWPOLYLINE
  5
F4
330
17
100
AcDbEntity
  8
ROADS
100
AcDbPolyline
 90
2
 70
0
 10
616611.1781880622
 20
4843954.123838063
 10
616661.4456475076
 20
4844049.965336996
  0
LWPOLYLINE
  5
F5
330
17
100
AcDbEntity
  8
ROADS
100
AcDbPolyline
 90
3
 70
0
 10
616335.327216977
 20
4844120.417419537
 10
616404.6440758056
 20
4843922.62735847
 10
616367.2172096305
 20
4843900.628134687
  0
LWPOLYLINE
  5
F6
330
17
100
AcDbEntity
  8
ROADS
100
AcDbPolyline
 90
2
 70
0
 10
616111.2712241339
 20
4843945.749934455
 10
616092.4233720695
 20
4844083.830769696
  0
LWPOLYLINE
  5
F7
330
17
100
AcDbEntity
  8
ROADS
100
AcDbPolyline
 90
2
 70
0
 10
616248.726654772
 20
4844027.618821563
 10
616235.9283810715
 20
4844005.352460101
  0
LWPOLYLINE
  5
F8
330
17
100
AcDbEntity
  8
ROADS
100
AcDbPolyline
 90
4
 70
0
 10
616611.1781880622
 20
4843954.123838063
 10
616570.8153428707
 20
4843982.659499983
 10
616531.9742493582
 20
4844087.327537511
 10
616488.4732656073
 20
4844082.502845371
  0
LWPOLYLINE
  5
F9
330
17
100
AcDbEntity
  8
ROADS
100
AcDbPolyline
 90
3
 70
0
 10
616335.327216977
 20
4844120.417419537
 10
616289.8907792878
 20
4844098.32716896
 10
616248.726654772
 20
4844027.618821563
  0
LWPOLYLINE
  5
FA
330
17
100
AcDbEntity
  8
ROADS
100
AcDbPolyline
 90
2
 70
0
 10
616661.4456475076
 20
4844049.965336996
 10
616668.290311212
 20
4844056.646042764
  0
LWPOLYLINE
  5
FB
330
17
100
AcDbEntity
  8
ROADS
100
AcDbPolyline
 90
3
 70
0
 10
616661.4456475076
 20
4844049.965336996
 10
616625.6689851165
 20
4844088.05381578
 10
616624.646957502
 20
4844094.905208856
  0
LWPOLYLINE
  5
FC
330
17
100
AcDbEntity
  8
ROADS
100
AcDbPolyline
 90
2
 70
0
 10
616488.4732656073
 20
4844082.502845371
 10
616457.5128009866
 20
4844162.181759606
  0
LWPOLYLINE
  5
FD
330
17
100
AcDbEntity
  8
ROADS
100
AcDbPolyline
 90
2
 70
0
 10
616400.1021980098
 20
4844143.117804102
 10
616335.327216977
 20
4844120.417419537
  0
LWPOLYLINE
  5
FE
330
17
100
AcDbEntity
  8
ROADS
100
AcDbPolyline
 90
2
 70
0
 10
616457.5128009866
 20
4844162.181759606
 10
616400.1021980098
 20
4844143.117804102
  0
LWPOLYLINE
  5
FF
330
17
100
AcDbEntity
  8
ROADS
100
AcDbPolyline
 90
2
 70
0
 10
616502.696772916
 20
4844177.825695801
 10
616457.5128009866
 20
4844162.181759606
  0
LWPOLYLINE
  5
100
330
17
100
AcDbEntity
  8
ROADS
100
AcDbPolyline
 90
2
 70
0
 10
616400.1021980098
 20
4844143.117804102
 10
616369.9404048171
 20
4844228.339318704
  0
LWPOLYLINE
  5
101
330
17
100
AcDbEntity
  8
ROADS
100
AcDbPolyline
 90
2
 70
0
 10
616297.2410779329
 20
4844215.090736869
 10
616369.9404048171
 20
4844228.339318704
  0
LWPOLYLINE
  5
102
330
17
100
AcDbEntity
  8
ROADS
100
AcDbPolyline
 90
2
 70
0
 10
616369.9404048171
 20
4844228.339318704
 10
616395.4929607889
 20
4844238.533177864
  0
LWPOLYLINE
  5
103
330
17
100
AcDbEntity
  8
ROADS
100
AcDbPolyline
 90
2
 70
0
 10
614653.3209322216
 20
4843869.693715046
 10
614633.4273304234
 20
4843808.827049652
  0
LWPOLYLINE
  5
104
330
17
100
AcDbEntity
  8
ROADS
100
AcDbPolyline
 90
2
 70
0
 10
614938.1209968836
 20
4843814.024157172
 10
614653.3209322216
 20
4843869.693715046
  0
LWPOLYLINE
  5
105
330
17
100
AcDbEntity
  8
ROADS
100
AcDbPolyline
 90
2
 70
0
 10
614938.1209968836
 20
4843814.024157172
 10
614900.923928012
 20
4843890.8294127695
  0
LWPOLYLINE
  5
106
330
17
100
AcDbEntity
  8
ROADS
100
AcDbPolyline
 90
3
 70
0
 10
615077.5147553026
 20
4843915.876329915
 10
615044.2851099595
 20
4843873.772648623
 10
615022.1268450135
 20
4843796.366482348
  0
LWPOLYLINE
  5
107
330
17
100
AcDbEntity
  8
ROADS
100
AcDbPolyline
 90
2
 70
0
 10
615077.5147553026
 20
4843915.876329915
 10
615118.75848786
 20
4843876.621953945
  0
LWPOLYLINE
  5
108
330
17
100
AcDbEntity
  8
ROADS
100
AcDbPolyline
 90
2
 70
0
 10
614864.7128741933
 20
4843904.0195352025
 10
614900.923928012
 20
4843890.8294127695
  0
LWPOLYLINE
  5
109
330
17
100
AcDbEntity
  8
ROADS
100
AcDbPolyline
 90
2
 70
0
 10
614653.3209322216
 20
4843869.693715046
 10
614464.140469159
 20
4843909.563674195
  0
LWPOLYLINE
  5
10A
330
17
100
AcDbEntity
  8
ROADS
100
AcDbPolyline
 90
2
 70
0
 10
614667.995873761
 20
4843942.962221973
 10
614653.3209322216
 20
4843869.693715046
  0
LWPOLYLINE
  5
10B
330
17
100
AcDbEntity
  8
ROADS
100
AcDbPolyline
 90
2
 70
0
 10
614667.995873761
 20
4843942.962221973
 10
614864.7128741933
 20
4843904.0195352025
  0
LWPOLYLINE
  5
10C
330
17
100
AcDbEntity
  8
ROADS
100
AcDbPolyline
 90
2
 70
0
 10
615194.0432809499
 20
4843968.990336259
 10
615077.5147553026
 20
4843915.876329915
  0
LWPOLYLINE
  5
10D
330
17
100
AcDbEntity
  8
ROADS
100
AcDbPolyline
 90
3
 70
0
 10
614900.923928012
 20
4843890.8294127695
 10
614967.8307535816
 20
4843908.150448965
 10
615048.9895041364
 20
4844036.431081345
  0
LWPOLYLINE
  5
10E
330
17
100
AcDbEntity
  8
ROADS
100
AcDbPolyline
 90
3
 70
0
 10
614783.838232141
 20
4844056.560292624
 10
614871.8693166771
 20
4844040.219593746
 10
614864.7128741933
 20
4843904.0195352025
  0
LWPOLYLINE
  5
10F
330
17
100
AcDbEntity
  8
ROADS
100
AcDbPolyline
 90
2
 70
0
 10
614660.5305509937
 20
4844068.329215752
 10
614667.995873761
 20
4843942.962221973
  0
LWPOLYLINE
  5
110
330
17
100
AcDbEntity
  8
ROADS
100
AcDbPolyline
 90
2
 70
0
 10
615157.6110781255
 20
4844075.333599356
 10
615194.0432809499
 20
4843968.990336259
  0
LWPOLYLINE
  5
111
330
17
100
AcDbEntity
  8
ROADS
100
AcDbPolyline
 90
2
 70
0
 10
614482.8046757681
 20
4843981.550452858
 10
614667.995873761
 20
4843942.962221973
  0
LWPOLYLINE
  5
112
330
17
100
AcDbEntity
  8
ROADS
100
AcDbPolyline
 90
2
 70
0
 10
614783.838232141
 20
4844056.560292624
 10
614775.33040104
 20
4844012.405143702
  0
LWPOLYLINE
  5
113
330
17
100
AcDbEntity
  8
ROADS
100
AcDbPolyline
 90
2
 70
0
 10
615157.6110781255
 20
4844075.333599356
 10
615048.9895041364
 20
4844036.431081345
  0
LWPOLYLINE
  5
114
330
17
100
AcDbEntity
  8
ROADS
100
AcDbPolyline
 90
2
 70
0
 10
614660.5305509937
 20
4844068.329215752
 10
614783.838232141
 20
4844056.560292624
  0
LWPOLYLINE
  5
115
330
17
100
AcDbEntity
  8
ROADS
100
AcDbPolyline
 90
3
 70
0
 10
614515.2643564063
 20
4844072.697406513
 10
614598.1748377264
 20
4844058.699080686
 10
614660.5305509937
 20
4844068.329215752
  0
LWPOLYLINE
  5
116
330
17
100
AcDbEntity
  8
ROADS
100
AcDbPolyline
 90
2
 70
0
 10
614515.2643564063
 20
4844072.697406513
 10
614515.7136148828
 20
4844075.917911563
  0
LWPOLYLINE
  5
117
330
17
100
AcDbEntity
  8
ROADS
100
AcDbPolyline
 90
4
 70
0
 10
615448.8869713377
 20
4843928.125851371
 10
615556.8140715285
 20
4843961.316646942
 10
615588.3312128363
 20
4843896.508421614
 10
615628.6258806754
 20
4843860.849901694
  0
LWPOLYLINE
  5
118
330
17
100
AcDbEntity
  8
ROADS
100
AcDbPolyline
 90
4
 70
0
 10
615194.0432809499
 20
4843968.990336259
 10
615238.1027302608
 20
4843857.284986726
 10
615333.3192098846
 20
4843886.510525215
 10
615291.4397394541
 20
4844029.759219246
  0
LWPOLYLINE
  5
119
330
17
100
AcDbEntity
  8
ROADS
100
AcDbPolyline
 90
2
 70
0
 10
615448.8869713377
 20
4843928.125851371
 10
615419.2277078104
 20
4844012.829225306
  0
LWPOLYLINE
  5
11A
330
17
100
AcDbEntity
  8
ROADS
100
AcDbPolyline
 90
2
 70
0
 10
615419.2277078104
 20
4844012.829225306
 10
615400.3525429758
 20
4844066.333970586
  0
LWPOLYLINE
  5
11B
330
17
100
AcDbEntity
  8
ROADS
100
AcDbPolyline
 90
2
 70
0
 10
615419.2277078104
 20
4844012.829225306
 10
615552.7241085096
 20
4844078.1338427765
  0
LWPOLYLINE
  5
11C
330
17
100
AcDbEntity
  8
ROADS
100
AcDbPolyline
 90
2
 70
0
 10
615291.4397394541
 20
4844029.759219246
 10
615400.3525429758
 20
4844066.333970586
  0
LWPOLYLINE
  5
11D
330
17
100
AcDbEntity
  8
ROADS
100
AcDbPolyline
 90
4
 70
0
 10
615291.4397394541
 20
4844029.759219246
 10
615240.8472005341
 20
4844160.346794342
 10
615148.8367888652
 20
4844131.67724376
 10
615157.6110781255
 20
4844075.333599356
  0
LWPOLYLINE
  5
11E
330
17
100
AcDbEntity
  8
ROADS
100
AcDbPolyline
 90
2
 70
0
 10
615400.3525429758
 20
4844066.333970586
 10
615329.7308565808
 20
4844266.990863589
  0
LWPOLYLINE
  5
11F
330
17
100
AcDbEntity
  8
ROADS
100
AcDbPolyline
 90
2
 70
0
 10
615811.249485837
 20
4844222.237317392
 10
615830.653695925
 20
4844147.854496264
  0
LWPOLYLINE
  5
120
330
17
100
AcDbEntity
  8
ROADS
100
AcDbPolyline
 90
2
 70
0
 10
615820.7707713796
 20
4844248.80445383
 10
615811.249485837
 20
4844222.237317392
  0
LWPOLYLINE
  5
121
330
17
100
AcDbEntity
  8
ROADS
100
AcDbPolyline
 90
2
 70
0
 10
615048.9895041364
 20
4844036.431081345
 10
614997.8406180424
 20
4844193.4411777835
  0
LWPOLYLINE
  5
122
330
17
100
AcDbEntity
  8
ROADS
100
AcDbPolyline
 90
2
 70
0
 10
614514.4687545209
 20
4844072.912711865
 10
614515.2643564063
 20
4844072.697406513
  0
LWPOLYLINE
  5
123
330
17
100
AcDbEntity
  8
ROADS
100
AcDbPolyline
 90
3
 70
0
 10
614591.3383022305
 20
4844216.129308909
 10
614644.9550509986
 20
4844132.54684294
 10
614660.5305509937
 20
4844068.329215752
  0
LWPOLYLINE
  5
124
330
17
100
AcDbEntity
  8
ROADS
100
AcDbPolyline
 90
3
 70
0
 10
614997.8406180424
 20
4844193.4411777835
 10
614915.6464851826
 20
4844162.951308245
 10
614838.1855368017
 20
4844174.548222324
  0
LWPOLYLINE
  5
125
330
17
100
AcDbEntity
  8
ROADS
100
AcDbPolyline
 90
3
 70
0
 10
614838.1855368017
 20
4844174.548222324
 10
614757.6252313296
 20
4844198.589334345
 10
614682.1376610514
 20
4844296.446131262
  0
LWPOLYLINE
  5
126
330
17
100
AcDbEntity
  8
ROADS
100
AcDbPolyline
 90
2
 70
0
 10
615245.9651445887
 20
4844279.44364691
 10
614997.8406180424
 20
4844193.4411777835
  0
LWPOLYLINE
  5
127
330
17
100
AcDbEntity
  8
ROADS
100
AcDbPolyline
 90
3
 70
0
 10
614838.1855368017
 20
4844174.548222324
 10
614864.347082755
 20
4844246.912721505
 10
615040.7515159227
 20
4844309.722106038
  0
LWPOLYLINE
  5
128
330
17
100
AcDbEntity
  8
ROADS
100
AcDbPolyline
 90
2
 70
0
 10
614617.256234328
 20
4844252.64944393
 10
614682.1376610514
 20
4844296.446131262
  0
LWPOLYLINE
  5
129
330
17
100
AcDbEntity
  8
ROADS
100
AcDbPolyline
 90
3
 70
0
 10
615040.7515159227
 20
4844309.722106038
 10
615211.2280517068
 20
4844369.815157732
 10
615245.9651445887
 20
4844279.44364691
  0
LWPOLYLINE
  5
12A
330
17
100
AcDbEntity
  8
ROADS
100
AcDbPolyline
 90
3
 70
0
 10
615820.7707713796
 20
4844248.80445383
 10
615972.3261130165
 20
4844213.952290063
 10
616008.8576220508
 20
4844261.816066693
  0
LWPOLYLINE
  5
12B
330
17
100
AcDbEntity
  8
ROADS
100
AcDbPolyline
 90
2
 70
0
 10
615771.7917827305
 20
4844275.736474043
 10
615811.249485837
 20
4844222.237317392
  0
LWPOLYLINE
  5
12C
330
17
100
AcDbEntity
  8
ROADS
100
AcDbPolyline
 90
2
 70
0
 10
615771.7917827305
 20
4844275.736474043
 10
615820.7707713796
 20
4844248.80445383
  0
LWPOLYLINE
  5
12D
330
17
100
AcDbEntity
  8
ROADS
100
AcDbPolyline
 90
3
 70
0
 10
615245.9651445887
 20
4844279.44364691
 10
615264.4159570879
 20
4844247.776842091
 10
615329.7308565808
 20
4844266.990863589
  0
LWPOLYLINE
  5
12E
330
17
100
AcDbEntity
  8
ROADS
100
AcDbPolyline
 90
3
 70
0
 10
615710.4054034867
 20
4844385.190182146
 10
615743.4392002104
 20
4844304.666978924
 10
615771.7917827305
 20
4844275.736474043
  0
LWPOLYLINE
  5
12F
330
17
100
AcDbEntity
  8
ROADS
100
AcDbPolyline
 90
2
 70
0
 10
615329.7308565808
 20
4844266.990863589
 10
615265.961440117
 20
4844517.070066282
  0
LWPOLYLINE
  5
130
330
17
100
AcDbEntity
  8
ROADS
100
AcDbPolyline
 90
3
 70
0
 10
615984.709178686
 20
4844497.427709356
 10
616005.1093717779
 20
4844433.214192706
 10
615912.0821773369
 20
4844405.349120172
  0
LWPOLYLINE
  5
131
330
17
100
AcDbEntity
  8
ROADS
100
AcDbPolyline
 90
3
 70
0
 10
615445.3391450314
 20
4844572.31128954
 10
615508.7049039945
 20
4844543.534767613
 10
615710.4054034867
 20
4844385.190182146
  0
LWPOLYLINE
  5
132
330
17
100
AcDbEntity
  8
ROADS
100
AcDbPolyline
 90
3
 70
0
 10
615265.961440117
 20
4844517.070066282
 10
615318.338275958
 20
4844560.348541976
 10
615421.1990517399
 20
4844571.3961942885
  0
LWPOLYLINE
  5
133
330
17
100
AcDbEntity
  8
ROADS
100
AcDbPolyline
 90
2
 70
0
 10
615421.1990517399
 20
4844571.3961942885
 10
615445.3391450314
 20
4844572.31128954
  0
LWPOLYLINE
  5
134
330
17
100
AcDbEntity
  8
ROADS
100
AcDbPolyline
 90
8
 70
0
 10
615710.4054034867
 20
4844385.190182146
 10
615759.2051895031
 20
4844402.069181037
 10
615802.102319559
 20
4844393.899602815
 10
615882.6989597786
 20
4844342.1273190705
 10
615940.5537023171
 20
4844336.3236034475
 10
615992.432811646
 20
4844359.543541172
 10
616132.0814435063
 20
4844365.092029927
 10
616169.7092177098
 20
4844382.4939383175
  0
LWPOLYLINE
  5
135
330
17
100
AcDbEntity
  8
ROADS
100
AcDbPolyline
 90
2
 70
0
 10
615988.5090849365
 20
4844544.275869014
 10
615984.709178686
 20
4844497.427709356
  0
LWPOLYLINE
  5
136
330
17
100
AcDbEntity
  8
ROADS
100
AcDbPolyline
 90
2
 70
0
 10
616005.3768659672
 20
4844543.897222191
 10
615988.5090849365
 20
4844544.275869014
  0
LWPOLYLINE
  5
137
330
17
100
AcDbEntity
  8
ROADS
100
AcDbPolyline
 90
2
 70
0
 10
615433.1556712334
 20
4844589.054159655
 10
615421.1990517399
 20
4844571.3961942885
  0
LWPOLYLINE
  5
138
330
17
100
AcDbEntity
  8
ROADS
100
AcDbPolyline
 90
2
 70
0
 10
615433.1556712334
 20
4844589.054159655
 10
615445.3391450314
 20
4844572.31128954
  0
LWPOLYLINE
  5
139
330
17
100
AcDbEntity
  8
ROADS
100
AcDbPolyline
 90
2
 70
0
 10
615265.961440117
 20
4844517.070066282
 10
615255.3018457764
 20
4844648.580043591
  0
LWPOLYLINE
  5
13A
330
17
100
AcDbEntity
  8
ROADS
100
AcDbPolyline
 90
4
 70
0
 10
615984.709178686
 20
4844497.427709356
 10
615892.91569857
 20
4844500.676852346
 10
615806.7719484081
 20
4844589.339719057
 10
615791.8663337523
 20
4844654.938774715
  0
LWPOLYLINE
  5
13B
330
17
100
AcDbEntity
  8
ROADS
100
AcDbPolyline
 90
3
 70
0
 10
615988.5090849365
 20
4844544.275869014
 10
615946.4879779546
 20
4844572.658878735
 10
615932.7397559707
 20
4844590.957239108
  0
LWPOLYLINE
  5
13C
330
17
100
AcDbEntity
  8
ROADS
100
AcDbPolyline
 90
3
 70
0
 10
615440.0773537037
 20
4844692.262987615
 10
615417.2907745654
 20
4844623.985871615
 10
615433.1556712334
 20
4844589.054159655
  0
LWPOLYLINE
  5
13D
330
17
100
AcDbEntity
  8
ROADS
100
AcDbPolyline
 90
2
 70
0
 10
614682.1376610514
 20
4844296.446131262
 10
614669.5137015837
 20
4844314.331475988
  0
LWPOLYLINE
  5
13E
330
17
100
AcDbEntity
  8
ROADS
100
AcDbPolyline
 90
2
 70
0
 10
615040.7515159227
 20
4844309.722106038
 10
615005.5794934272
 20
4844410.086945034
  0
LWPOLYLINE
  5
13F
330
17
100
AcDbEntity
  8
ROADS
100
AcDbPolyline
 90
2
 70
0
 10
614864.6800587958
 20
4844360.033657398
 10
615005.5794934272
 20
4844410.086945034
  0
LWPOLYLINE
  5
140
330
17
100
AcDbEntity
  8
ROADS
100
AcDbPolyline
 90
2
 70
0
 10
615005.5794934272
 20
4844410.086945034
 10
615046.9876130982
 20
4844423.8380046915
  0
LWPOLYLINE
  5
141
330
17
100
AcDbEntity
  8
ROADS
100
AcDbPolyline
 90
3
 70
0
 10
615005.5794934272
 20
4844410.086945034
 10
614969.3356151124
 20
4844502.43214844
 10
614821.7794575469
 20
4844452.1565516675
  0
ENDSEC
  0
SECTION
  2
OBJECTS
  0
DICTIONARY
  5
A
330
0
100
AcDbDictionary
281
1
  3
ACAD_COLOR
350
B
  3
ACAD_GROUP
350
C
  3
ACAD_LAYOUT
350
D
  3
ACAD_MATERIAL
350
E
  3
ACAD_MLEADERSTYLE
350
F
  3
ACAD_MLINESTYLE
350
10
  3
ACAD_PLOTSETTINGS
350
11
  3
ACAD_PLOTSTYLENAME
350
12
  3
ACAD_SCALELIST
350
14
  3
ACAD_TABLESTYLE
350
15
  3
ACAD_VISUALSTYLE
350
16
  3
EZDXF_META
350
2D
  0
DICTIONARY
  5
B
330
A
100
AcDbDictionary
281
1
  0
DICTIONARY
  5
C
330
A
100
AcDbDictionary
281
1
  0
DICTIONARY
  5
D
330
A
100
AcDbDictionary
281
1
  3
Model
350
1A
  3
Layout1
350
1E
  0
DICTIONARY
  5
E
330
A
100
AcDbDictionary
281
1
  3
ByBlock
350
1F
  3
ByLayer
350
20
  3
Global
350
21
  0
DICTIONARY
  5
F
330
A
100
AcDbDictionary
281
1
  3
Standard
350
2C
  0
DICTIONARY
  5
10
330
A
100
AcDbDictionary
281
1
  3
Standard
350
22
  0
DICTIONARY
  5
11
330
A
100
AcDbDictionary
281
1
  0
ACDBDICTIONARYWDFLT
  5
12
330
A
100
AcDbDictionary
281
1
  3
Normal
350
13
100
AcDbDictionaryWithDefault
340
13
  0
ACDBPLACEHOLDER
  5
13
330
12
  0
DICTIONARY
  5
14
330
A
100
AcDbDictionary
281
1
  0
DICTIONARY
  5
15
330
A
100
AcDbDictionary
281
1
  0
DICTIONARY
  5
16
330
A
100
AcDbDictionary
281
1
  0
LAYOUT
  5
1A
330
D
100
AcDbPlotSettings
  1

  4
A3
  6

 40
7.5
 41
20.0
 42
7.5
 43
20.0
 44
420.0
 45
297.0
 46
0.0
 47
0.0
 48
0.0
 49
0.0
140
0.0
141
0.0
142
1.0
143
1.0
 70
1024
 72
1
 73
0
 74
5
  7

 75
16
 76
0
 77
2
 78
300
147
1.0
148
0.0
149
0.0
100
AcDbLayout
  1
Model
 70
1
 71
0
 10
0.0
 20
0.0
 11
420.0
 21
297.0
 12
0.0
 22
0.0
 32
0.0
 14
1e+20
 24
1e+20
 34
1e+20
 15
-1e+20
 25
-1e+20
 35
-1e+20
146
0.0
 13
0.0
 23
0.0
 33
0.0
 16
1.0
 26
0.0
 36
0.0
 17
0.0
 27
1.0
 37
0.0
 76
1
330
17
  0
LAYOUT
  5
1E
330
D
100
AcDbPlotSettings
  1

  4
A3
  6

 40
7.5
 41
20.0
 42
7.5
 43
20.0
 44
420.0
 45
297.0
 46
0.0
 47
0.0
 48
0.0
 49
0.0
140
0.0
141
0.0
142
1.0
143
1.0
 70
0
 72
1
 73
0
 74
5
  7

 75
16
 76
0
 77
2
 78
300
147
1.0
148
0.0
149
0.0
100
AcDbLayout
  1
Layout1
 70
1
 71
1
 10
0.0
 20
0.0
 11
420.0
 21
297.0
 12
0.0
 22
0.0
 32
0.0
 14
1e+20
 24
1e+20
 34
1e+20
 15
-1e+20
 25
-1e+20
 35
-1e+20
146
0.0
 13
0.0
 23
0.0
 33
0.0
 16
1.0
 26
0.0
 36
0.0
 17
0.0
 27
1.0
 37
0.0
 76
1
330
1B
  0
MATERIAL
  5
1F
102
{ACAD_REACTORS
330
E
102
}
330
E
100
AcDbMaterial
  1
ByBlock
  2

 70
0
 40
1.0
 71
1
 41
1.0
 91
-1023410177
 42
1.0
 72
1
  3

 73
1
 74
1
 75
1
 44
0.5
 73
0
 45
1.0
 46
1.0
 77
1
  4

 78
1
 79
1
170
1
 48
1.0
171
1
  6

172
1
173
1
174
1
140
1.0
141
1.0
175
1
  7

176
1
177
1
178
1
143
1.0
179
1
  8

270
1
271
1
272
1
145
1.0
146
1.0
273
1
  9

274
1
275
1
276
1
 42
1.0
 72
1
  3

 73
1
 74
1
 75
1
 94
63
  0
MATERIAL
  5
20
102
{ACAD_REACTORS
330
E
102
}
330
E
100
AcDbMaterial
  1
ByLayer
  2

 70
0
 40
1.0
 71
1
 41
1.0
 91
-1023410177
 42
1.0
 72
1
  3

 73
1
 74
1
 75
1
 44
0.5
 73
0
 45
1.0
 46
1.0
 77
1
  4

 78
1
 79
1
170
1
 48
1.0
171
1
  6

172
1
173
1
174
1
140
1.0
141
1.0
175
1
  7

176
1
177
1
178
1
143
1.0
179
1
  8

270
1
271
1
272
1
145
1.0
146
1.0
273
1
  9

274
1
275
1
276
1
 42
1.0
 72
1
  3

 73
1
 74
1
 75
1
 94
63
  0
MATERIAL
  5
21
102
{ACAD_REACTORS
330
E
102
}
330
E
100
AcDbMaterial
  1
Global
  2

 70
0
 40
1.0
 71
1
 41
1.0
 91
-1023410177
 42
1.0
 72
1
  3

 73
1
 74
1
 75
1
 44
0.5
 73
0
 45
1.0
 46
1.0
 77
1
  4

 78
1
 79
1
170
1
 48
1.0
171
1
  6

172
1
173
1
174
1
140
1.0
141
1.0
175
1
  7

176
1
177
1
178
1
143
1.0
179
1
  8

270
1
271
1
272
1
145
1.0
146
1.0
273
1
  9

274
1
275
1
276
1
 42
1.0
 72
1
  3

 73
1
 74
1
 75
1
 94
63
  0
MLINESTYLE
  5
22
102
{ACAD_REACTORS
330
10
102
}
330
10
100
AcDbMlineStyle
  2
Standard
 70
0
  3

 62
256
 51
90.0
 52
90.0
 71
2
 49
0.5
 62
256
  6
BYLAYER
 49
-0.5
 62
256
  6
BYLAYER
  0
MLEADERSTYLE
  5
2C
102
{ACAD_REACTORS
330
F
102
}
330
F
100
AcDbMLeaderStyle
179
2
170
2
171
1
172
0
 90
2
 40
0.0
 41
0.0
173
1
 91
-1056964608
 92
-2
290
1
 42
2.0
291
1
 43
8.0
  3
Standard
 44
4.0
300

342
29
174
1
175
1
176
0
178
1
 93
-1056964608
 45
4.0
292
0
297
0
 46
4.0
 94
-1056964608
 47
1.0
 49
1.0
140
1.0
294
1
141
0.0
177
0
142
1.0
295
0
296
0
143
3.75
271
0
272
9
273
9
  0
DICTIONARY
  5
2D
330
A
100
AcDbDictionary
280
1
281
1
  3
CREATED_BY_EZDXF
350
2E
  3
WRITTEN_BY_EZDXF
350
144
  0
DICTIONARYVAR
  5
2E
330
2D
100
DictionaryVariables
280
0
  1
1.4.4 @ 2026-07-07T06:18:59.778776+00:00
  0
DICTIONARYVAR
  5
144
330
2D
100
DictionaryVariables
280
0
  1
1.4.4 @ 2026-07-07T06:18:59.787425+00:00
  0
ENDSEC
  0
EOF
