  0
SECTION
  2
HEADER
  9
$ACADVER
  1
AC1015
  9
$ACADMAINTVER
 70
6
  9
$DWGCODEPAGE
  3
ANSI_1252
  9
$INSBASE
 10
0.0
 20
0.0
 30
0.0
  9
$EXTMIN
 10
1e+20
 20
1e+20
 30
1e+20
  9
$EXTMAX
 10
-1e+20
 20
-1e+20
 30
-1e+20
  9
$LIMMIN
 10
0.0
 20
0.0
  9
$LIMMAX
 10
420.0
 20
297.0
  9
$ORTHOMODE
 70
0
  9
$REGENMODE
 70
1
  9
$FILLMODE
 70
1
  9
$QTEXTMODE
 70
0
  9
$MIRRTEXT
 70
1
  9
$LTSCALE
 40
1.0
  9
$ATTMODE
 70
1
  9
$TEXTSIZE
 40
2.5
  9
$TRACEWID
 40
1.0
  9
$TEXTSTYLE
  7
Standard
  9
$CLAYER
  8
0
  9
$CELTYPE
  6
ByLayer
  9
$CECOLOR
 62
256
  9
$CELTSCALE
 40
1.0
  9
$DISPSILH
 70
0
  9
$DIMSCALE
 40
1.0
  9
$DIMASZ
 40
2.5
  9
$DIMEXO
 40
0.625
  9
$DIMDLI
 40
3.75
  9
$DIMRND
 40
0.0
  9
$DIMDLE
 40
0.0
  9
$DIMEXE
 40
1.25
  9
$DIMTP
 40
0.0
  9
$DIMTM
 40
0.0
  9
$DIMTXT
 40
2.5
  9
$DIMCEN
 40
2.5
  9
$DIMTSZ
 40
0.0
  9
$DIMTOL
 70
0
  9
$DIMLIM
 70
0
  9
$DIMTIH
 70
0
  9
$DIMTOH
 70
0
  9
$DIMSE1
 70
0
  9
$DIMSE2
 70
0
  9
$DIMTAD
 70
1
  9
$DIMZIN
 70
8
  9
$DIMBLK
  1

  9
$DIMASO
 70
1
  9
$DIMSHO
 70
1
  9
$DIMPOST
  1

  9
$DIMAPOST
  1

  9
$DIMALT
 70
0
  9
$DIMALTD
 70
3
  9
$DIMALTF
 40
0.03937007874
  9
$DIMLFAC
 40
1.0
  9
$DIMTOFL
 70
1
  9
$DIMTVP
 40
0.0
  9
$DIMTIX
 70
0
  9
$DIMSOXD
 70
0
  9
$DIMSAH
 70
0
  9
$DIMBLK1
  1

  9
$DIMBLK2
  1

  9
$DIMSTYLE
  2
ISO-25
  9
$DIMCLRD
 70
0
  9
$DIMCLRE
 70
0
  9
$DIMCLRT
 70
0
  9
$DIMTFAC
 40
1.0
  9
$DIMGAP
 40
0.625
  9
$DIMJUST
 70
0
  9
$DIMSD1
 70
0
  9
$DIMSD2
 70
0
  9
$DIMTOLJ
 70
0
  9
$DIMTZIN
 70
8
  9
$DIMALTZ
 70
0
  9
$DIMALTTZ
 70
0
  9
$DIMUPT
 70
0
  9
$DIMDEC
 70
2
  9
$DIMTDEC
 70
2
  9
$DIMALTU
 70
2
  9
$DIMALTTD
 70
3
  9
$DIMTXSTY
  7
Standard
  9
$DIMAUNIT
 70
0
  9
$DIMADEC
 70
0
  9
$DIMALTRND
 40
0.0
  9
$DIMAZIN
 70
0
  9
$DIMDSEP
 70
44
  9
$DIMATFIT
 70
3
  9
$DIMFRAC
 70
0
  9
$DIMLDRBLK
  1

  9
$DIMLUNIT
 70
2
  9
$DIMLWD
 70
-2
  9
$DIMLWE
 70
-2
  9
$DIMTMOVE
 70
0
  9
$LUNITS
 70
2
  9
$LUPREC
 70
4
  9
$SKETCHINC
 40
1.0
  9
$FILLETRAD
 40
10.0
  9
$AUNITS
 70
0
  9
$AUPREC
 70
2
  9
$MENU
  1
.
  9
$ELEVATION
 40
0.0
  9
$PELEVATION
 40
0.0
  9
$THICKNESS
 40
0.0
  9
$LIMCHECK
 70
0
  9
$CHAMFERA
 40
0.0
  9
$CHAMFERB
 40
0.0
  9
$CHAMFERC
 40
0.0
  9
$CHAMFERD
 40
0.0
  9
$SKPOLY
 70
0
  9
$TDCREATE
 40
2461229.096608796
  9
$TDUCREATE
 40
2458532.153996898
  9
$TDUPDATE
 40
2461229.096608796
  9
$TDUUPDATE
 40
2458532.1544311
  9
$TDINDWG
 40
0.0
  9
$TDUSRTIMER
 40
0.0
  9
$USRTIMER
 70
1
  9
$ANGBASE
 50
0.0
  9
$ANGDIR
 70
0
  9
$PDMODE
 70
0
  9
$PDSIZE
 40
0.0
  9
$PLINEWID
 40
0.0
  9
$SPLFRAME
 70
0
  9
$SPLINETYPE
 70
6
  9
$SPLINESEGS
 70
8
  9
$HANDSEED
  5
2D7
  9
$SURFTAB1
 70
6
  9
$SURFTAB2
 70
6
  9
$SURFTYPE
 70
6
  9
$SURFU
 70
6
  9
$SURFV
 70
6
  9
$UCSBASE
  2

  9
$UCSNAME
  2

  9
$UCSORG
 10
0.0
 20
0.0
 30
0.0
  9
$UCSXDIR
 10
1.0
 20
0.0
 30
0.0
  9
$UCSYDIR
 10
0.0
 20
1.0
 30
0.0
  9
$UCSORTHOREF
  2

  9
$UCSORTHOVIEW
 70
0
  9
$UCSORGTOP
 10
0.0
 20
0.0
 30
0.0
  9
$UCSORGBOTTOM
 10
0.0
 20
0.0
 30
0.0
  9
$UCSORGLEFT
 10
0.0
 20
0.0
 30
0.0
  9
$UCSORGRIGHT
 10
0.0
 20
0.0
 30
0.0
  9
$UCSORGFRONT
 10
0.0
 20
0.0
 30
0.0
  9
$UCSORGBACK
 10
0.0
 20
0.0
 30
0.0
  9
$PUCSBASE
  2

  9
$PUCSNAME
  2

  9
$PUCSORG
 10
0.0
 20
0.0
 30
0.0
  9
$PUCSXDIR
 10
1.0
 20
0.0
 30
0.0
  9
$PUCSYDIR
 10
0.0
 20
1.0
 30
0.0
  9
$PUCSORTHOREF
  2

  9
$PUCSORTHOVIEW
 70
0
  9
$PUCSORGTOP
 10
0.0
 20
0.0
 30
0.0
  9
$PUCSORGBOTTOM
 10
0.0
 20
0.0
 30
0.0
  9
$PUCSORGLEFT
 10
0.0
 20
0.0
 30
0.0
  9
$PUCSORGRIGHT
 10
0.0
 20
0.0
 30
0.0
  9
$PUCSORGFRONT
 10
0.0
 20
0.0
 30
0.0
  9
$PUCSORGBACK
 10
0.0
 20
0.0
 30
0.0
  9
$USERI1
 70
0
  9
$USERI2
 70
0
  9
$USERI3
 70
0
  9
$USERI4
 70
0
  9
$USERI5
 70
0
  9
$USERR1
 40
0.0
  9
$USERR2
 40
0.0
  9
$USERR3
 40
0.0
  9
$USERR4
 40
0.0
  9
$USERR5
 40
0.0
  9
$WORLDVIEW
 70
1
  9
$SHADEDGE
 70
3
  9
$SHADEDIF
 70
70
  9
$TILEMODE
 70
1
  9
$MAXACTVP
 70
64
  9
$PINSBASE
 10
0.0
 20
0.0
 30
0.0
  9
$PLIMCHECK
 70
0
  9
$PEXTMIN
 10
1e+20
 20
1e+20
 30
1e+20
  9
$PEXTMAX
 10
-1e+20
 20
-1e+20
 30
-1e+20
  9
$PLIMMIN
 10
0.0
 20
0.0
  9
$PLIMMAX
 10
420.0
 20
297.0
  9
$UNITMODE
 70
0
  9
$VISRETAIN
 70
1
  9
$PLINEGEN
 70
0
  9
$PSLTSCALE
 70
1
  9
$TREEDEPTH
 70
3020
  9
$CMLSTYLE
  2
Standard
  9
$CMLJUST
 70
0
  9
$CMLSCALE
 40
20.0
  9
$PROXYGRAPHICS
 70
1
  9
$MEASUREMENT
 70
1
  9
$CELWEIGHT
370
-1
  9
$ENDCAPS
280
0
  9
$JOINSTYLE
280
0
  9
$LWDISPLAY
290
0
  9
$INSUNITS
 70
6
  9
$HYPERLINKBASE
  1

  9
$STYLESHEET
  1

  9
$XEDIT
290
1
  9
$CEPSNTYPE
380
0
  9
$PSTYLEMODE
290
1
  9
$FINGERPRINTGUID
  2
{FF677327-DC8F-4F1F-82D9-132D0E736A79}
  9
$VERSIONGUID
  2
{52840533-696F-4C98-B871-BE8AF30FE7CC}
  9
$EXTNAMES
290
1
  9
$PSVPSCALE
 40
0.0
  9
$OLESTARTUP
290
0
  0
ENDSEC
  0
SECTION
  2
CLASSES
  0
CLASS
  1
ACDBDICTIONARYWDFLT
  2
AcDbDictionaryWithDefault
  3
ObjectDBX Classes
 90
0
280
0
281
0
  0
CLASS
  1
SUN
  2
AcDbSun
  3
SCENEOE
 90
1153
280
0
281
0
  0
CLASS
  1
VISUALSTYLE
  2
AcDbVisualStyle
  3
ObjectDBX Classes
 90
4095
280
0
281
0
  0
CLASS
  1
MATERIAL
  2
AcDbMaterial
  3
ObjectDBX Classes
 90
1153
280
0
281
0
  0
CLASS
  1
SCALE
  2
AcDbScale
  3
ObjectDBX Classes
 90
1153
280
0
281
0
  0
CLASS
  1
TABLESTYLE
  2
AcDbTableStyle
  3
ObjectDBX Classes
 90
4095
280
0
281
0
  0
CLASS
  1
MLEADERSTYLE
  2
AcDbMLeaderStyle
  3
ACDB_MLEADERSTYLE_CLASS
 90
4095
280
0
281
0
  0
CLASS
  1
DICTIONARYVAR
  2
AcDbDictionaryVar
  3
ObjectDBX Classes
 90
0
280
0
281
0
  0
CLASS
  1
CELLSTYLEMAP
  2
AcDbCellStyleMap
  3
ObjectDBX Classes
 90
1152
280
0
281
0
  0
CLASS
  1
MENTALRAYRENDERSETTINGS
  2
AcDbMentalRayRenderSettings
  3
SCENEOE
 90
1024
280
0
281
0
  0
CLASS
  1
ACDBDETAILVIEWSTYLE
  2
AcDbDetailViewStyle
  3
ObjectDBX Classes
 90
1025
280
0
281
0
  0
CLASS
  1
ACDBSECTIONVIEWSTYLE
  2
AcDbSectionViewStyle
  3
ObjectDBX Classes
 90
1025
280
0
281
0
  0
CLASS
  1
RASTERVARIABLES
  2
AcDbRasterVariables
  3
ISM
 90
0
280
0
281
0
  0
CLASS
  1
ACDBPLACEHOLDER
  2
AcDbPlaceHolder
  3
ObjectDBX Classes
 90
0
280
0
281
0
  0
CLASS
  1
LAYOUT
  2
AcDbLayout
  3
ObjectDBX Classes
 90
0
280
0
281
0
  0
ENDSEC
  0
SECTION
  2
TABLES
  0
TABLE
  2
VPORT
  5
8
330
0
100
AcDbSymbolTable
 70
1
  0
VPORT
  5
23
330
8
100
AcDbSymbolTableRecord
100
AcDbViewportTableRecord
  2
*Active
 70
0
 10
0.0
 20
0.0
 11
1.0
 21
1.0
 12
0.0
 22
0.0
 13
0.0
 23
0.0
 14
0.5
 24
0.5
 15
0.5
 25
0.5
 16
0.0
 26
0.0
 36
1.0
 17
0.0
 27
0.0
 37
0.0
 40
1000.0
 41
1.34
 42
50.0
 43
0.0
 44
0.0
 50
0.0
 51
0.0
 71
0
 72
1000
 73
1
 74
3
 75
0
 76
0
 77
0
 78
0
281
0
 65
0
146
0.0
  0
ENDTAB
  0
TABLE
  2
LTYPE
  5
2
330
0
100
AcDbSymbolTable
 70
3
  0
LTYPE
  5
24
330
2
100
AcDbSymbolTableRecord
100
AcDbLinetypeTableRecord
  2
ByBlock
 70
0
  3

 72
65
 73
0
 40
0.0
  0
LTYPE
  5
25
330
2
100
AcDbSymbolTableRecord
100
AcDbLinetypeTableRecord
  2
ByLayer
 70
0
  3

 72
65
 73
0
 40
0.0
  0
LTYPE
  5
26
330
2
100
AcDbSymbolTableRecord
100
AcDbLinetypeTableRecord
  2
Continuous
 70
0
  3

 72
65
 73
0
 40
0.0
  0
ENDTAB
  0
TABLE
  2
LAYER
  5
1
330
0
100
AcDbSymbolTable
 70
2
  0
LAYER
  5
27
330
1
100
AcDbSymbolTableRecord
100
AcDbLayerTableRecord
  2
0
 70
0
 62
7
  6
Continuous
370
-3
390
13
  0
LAYER
  5
28
330
1
100
AcDbSymbolTableRecord
100
AcDbLayerTableRecord
  2
Defpoints
 70
0
 62
7
  6
Continuous
290
0
370
-3
390
13
  0
ENDTAB
  0
TABLE
  2
STYLE
  5
5
330
0
100
AcDbSymbolTable
 70
1
  0
STYLE
  5
29
330
5
100
AcDbSymbolTableRecord
100
AcDbTextStyleTableRecord
  2
Standard
 70
0
 40
0.0
 41
1.0
 50
0.0
 71
0
 42
2.5
  3
txt
  4

  0
ENDTAB
  0
TABLE
  2
VIEW
  5
7
330
0
100
AcDbSymbolTable
 70
0
  0
ENDTAB
  0
TABLE
  2
UCS
  5
6
330
0
100
AcDbSymbolTable
 70
0
  0
ENDTAB
  0
TABLE
  2
APPID
  5
3
330
0
100
AcDbSymbolTable
 70
3
  0
APPID
  5
2A
330
3
100
AcDbSymbolTableRecord
100
AcDbRegAppTableRecord
  2
ACAD
 70
0
  0
APPID
  5
2D4
330
3
100
AcDbSymbolTableRecord
100
AcDbRegAppTableRecord
  2
HATCHBACKGROUNDCOLOR
 70
0
  0
APPID
  5
2D5
330
3
100
AcDbSymbolTableRecord
100
AcDbRegAppTableRecord
  2
EZDXF
 70
0
  0
ENDTAB
  0
TABLE
  2
DIMSTYLE
  5
4
330
0
100
AcDbSymbolTable
 70
1
100
AcDbDimStyleTable
  0
DIMSTYLE
105
2B
330
4
100
AcDbSymbolTableRecord
100
AcDbDimStyleTableRecord
  2
Standard
 70
0
  3

  4

 40
1.0
 41
2.5
 42
0.625
 43
3.75
 44
1.25
 45
0.0
 46
0.0
 47
0.0
 48
0.0
140
2.5
141
2.5
142
0.0
143
0.03937007874
144
1.0
145
0.0
146
1.0
147
0.625
148
0.0
 71
0
 72
0
 73
0
 74
0
 75
0
 76
0
 77
1
 78
8
 79
3
170
0
171
3
172
1
173
0
174
0
175
0
176
0
177
0
178
0
179
2
271
2
272
2
273
2
274
3
275
0
276
0
277
2
278
44
279
0
280
0
281
0
282
0
283
0
284
8
285
0
286
0
288
0
289
3
371
-2
372
-2
  0
ENDTAB
  0
TABLE
  2
BLOCK_RECORD
  5
9
330
0
100
AcDbSymbolTable
 70
2
  0
BLOCK_RECORD
  5
17
330
9
100
AcDbSymbolTableRecord
100
AcDbBlockTableRecord
  2
*Model_Space
340
1A
  0
BLOCK_RECORD
  5
1B
330
9
100
AcDbSymbolTableRecord
100
AcDbBlockTableRecord
  2
*Paper_Space
340
1E
  0
ENDTAB
  0
ENDSEC
  0
SECTION
  2
BLOCKS
  0
BLOCK
  5
18
330
17
100
AcDbEntity
  8
0
100
AcDbBlockBegin
  2
*Model_Space
 70
0
 10
0.0
 20
0.0
 30
0.0
  3
*Model_Space
  1

  0
ENDBLK
  5
19
330
17
100
AcDbEntity
  8
0
100
AcDbBlockEnd
  0
BLOCK
  5
1C
330
1B
100
AcDbEntity
  8
0
100
AcDbBlockBegin
  2
*Paper_Space
 70
0
 10
0.0
 20
0.0
 30
0.0
  3
*Paper_Space
  1

  0
ENDBLK
  5
1D
330
1B
100
AcDbEntity
  8
0
100
AcDbBlockEnd
  0
ENDSEC
  0
SECTION
  2
ENTITIES
  0
LWPOLYLINE
  5
2F
330
17
100
AcDbEntity
  8
ROADS
100
AcDbPolyline
 90
2
 70
0
 10
624596.0857522163
 20
4833829.780778666
 10
624442.3008861699
 20
4833784.814775474
  0
LWPOLYLINE
  5
30
330
17
100
AcDbEntity
  8
ROADS
100
AcDbPolyline
 90
2
 70
0
 10
624656.207868419
 20
4833854.081027079
 10
624644.9826137078
 20
4833945.339546949
  0
LWPOLYLINE
  5
31
330
17
100
AcDbEntity
  8
ROADS
100
AcDbPolyline
 90
2
 70
0
 10
624821.5332968113
 20
4833955.656193439
 10
624811.3805249904
 20
4833988.366788882
  0
LWPOLYLINE
  5
32
330
17
100
AcDbEntity
  8
ROADS
100
AcDbPolyline
 90
2
 70
0
 10
624691.2430774298
 20
4833958.455347163
 10
624644.9826137078
 20
4833945.339546949
  0
LWPOLYLINE
  5
33
330
17
100
AcDbEntity
  8
ROADS
100
AcDbPolyline
 90
2
 70
0
 10
624811.3805249904
 20
4833988.366788882
 10
624691.2430774298
 20
4833958.455347163
  0
LWPOLYLINE
  5
34
330
17
100
AcDbEntity
  8
ROADS
100
AcDbPolyline
 90
2
 70
0
 10
624865.2850956763
 20
4833985.351773153
 10
624861.3697596146
 20
4833998.492329459
  0
LWPOLYLINE
  5
35
330
17
100
AcDbEntity
  8
ROADS
100
AcDbPolyline
 90
2
 70
0
 10
625004.9232031445
 20
4834018.074604431
 10
624998.973769855
 20
4834037.80750502
  0
LWPOLYLINE
  5
36
330
17
100
AcDbEntity
  8
ROADS
100
AcDbPolyline
 90
2
 70
0
 10
624958.2007628793
 20
4834004.853317485
 10
624952.0564338317
 20
4834024.40379457
  0
LWPOLYLINE
  5
37
330
17
100
AcDbEntity
  8
ROADS
100
AcDbPolyline
 90
2
 70
0
 10
624952.0564338317
 20
4834024.40379457
 10
624861.3697596146
 20
4833998.492329459
  0
LWPOLYLINE
  5
38
330
17
100
AcDbEntity
  8
ROADS
100
AcDbPolyline
 90
2
 70
0
 10
624998.973769855
 20
4834037.80750502
 10
624952.0564338317
 20
4834024.40379457
  0
LWPOLYLINE
  5
39
330
17
100
AcDbEntity
  8
ROADS
100
AcDbPolyline
 90
2
 70
0
 10
625052.4589853532
 20
4834033.9107442945
 10
625042.960939112
 20
4834064.712008206
  0
LWPOLYLINE
  5
3A
330
17
100
AcDbEntity
  8
ROADS
100
AcDbPolyline
 90
2
 70
0
 10
624998.973769855
 20
4834037.80750502
 10
624995.2662145887
 20
4834050.49719716
  0
LWPOLYLINE
  5
3B
330
17
100
AcDbEntity
  8
ROADS
100
AcDbPolyline
 90
2
 70
0
 10
624952.0564338317
 20
4834024.40379457
 10
624938.3711135662
 20
4834068.310870066
  0
LWPOLYLINE
  5
3C
330
17
100
AcDbEntity
  8
ROADS
100
AcDbPolyline
 90
2
 70
0
 10
624938.3711135662
 20
4834068.310870066
 10
624848.0953260091
 20
4834043.513881423
  0
LWPOLYLINE
  5
3D
330
17
100
AcDbEntity
  8
ROADS
100
AcDbPolyline
 90
2
 70
0
 10
625042.960939112
 20
4834064.712008206
 10
624995.2662145887
 20
4834050.49719716
  0
LWPOLYLINE
  5
3E
330
17
100
AcDbEntity
  8
ROADS
100
AcDbPolyline
 90
3
 70
0
 10
624691.2430774298
 20
4833958.455347163
 10
624678.7704167825
 20
4834004.654432631
 10
624740.5277941052
 20
4834021.97155763
  0
LWPOLYLINE
  5
3F
330
17
100
AcDbEntity
  8
ROADS
100
AcDbPolyline
 90
2
 70
0
 10
624644.9826137078
 20
4833945.339546949
 10
624633.3088528026
 20
4834037.580560996
  0
LWPOLYLINE
  5
40
330
17
100
AcDbEntity
  8
ROADS
100
AcDbPolyline
 90
2
 70
0
 10
624861.3697596146
 20
4833998.492329459
 10
624811.3805249904
 20
4833988.366788882
  0
LWPOLYLINE
  5
41
330
17
100
AcDbEntity
  8
ROADS
100
AcDbPolyline
 90
2
 70
0
 10
624861.3697596146
 20
4833998.492329459
 10
624848.0953260091
 20
4834043.513881423
  0
LWPOLYLINE
  5
42
330
17
100
AcDbEntity
  8
ROADS
100
AcDbPolyline
 90
2
 70
0
 10
624811.3805249904
 20
4833988.366788882
 10
624785.5661767849
 20
4834072.214313585
  0
LWPOLYLINE
  5
43
330
17
100
AcDbEntity
  8
ROADS
100
AcDbPolyline
 90
2
 70
0
 10
624781.8576409353
 20
4834084.902979483
 10
624633.3088528026
 20
4834037.580560996
  0
LWPOLYLINE
  5
44
330
17
100
AcDbEntity
  8
ROADS
100
AcDbPolyline
 90
2
 70
0
 10
624633.3088528026
 20
4834037.580560996
 10
624623.8834932032
 20
4834087.865933663
  0
LWPOLYLINE
  5
45
330
17
100
AcDbEntity
  8
ROADS
100
AcDbPolyline
 90
2
 70
0
 10
624848.0953260091
 20
4834043.513881423
 10
624835.1245299133
 20
4834087.504861336
  0
LWPOLYLINE
  5
46
330
17
100
AcDbEntity
  8
ROADS
100
AcDbPolyline
 90
2
 70
0
 10
624785.5661767849
 20
4834072.214313585
 10
624781.8576409353
 20
4834084.902979483
  0
LWPOLYLINE
  5
47
330
17
100
AcDbEntity
  8
ROADS
100
AcDbPolyline
 90
2
 70
0
 10
624835.1245299133
 20
4834087.504861336
 10
624785.5661767849
 20
4834072.214313585
  0
LWPOLYLINE
  5
48
330
17
100
AcDbEntity
  8
ROADS
100
AcDbPolyline
 90
2
 70
0
 10
625230.7465504345
 20
4834118.840251079
 10
625095.2270542076
 20
4834080.081509968
  0
LWPOLYLINE
  5
49
330
17
100
AcDbEntity
  8
ROADS
100
AcDbPolyline
 90
3
 70
0
 10
625142.2909003475
 20
4834161.788687586
 10
625160.0572673144
 20
4834151.366217171
 10
625228.5387173871
 20
4834171.305070912
  0
LWPOLYLINE
  5
4A
330
17
100
AcDbEntity
  8
ROADS
100
AcDbPolyline
 90
2
 70
0
 10
625351.597310378
 20
4834212.511058425
 10
625350.8996978472
 20
4834215.561130447
  0
LWPOLYLINE
  5
4B
330
17
100
AcDbEntity
  8
ROADS
100
AcDbPolyline
 90
2
 70
0
 10
625095.2270542076
 20
4834080.081509968
 10
625042.960939112
 20
4834064.712008206
  0
LWPOLYLINE
  5
4C
330
17
100
AcDbEntity
  8
ROADS
100
AcDbPolyline
 90
2
 70
0
 10
624995.2662145887
 20
4834050.49719716
 10
624971.2261062495
 20
4834129.494063312
  0
LWPOLYLINE
  5
4D
330
17
100
AcDbEntity
  8
ROADS
100
AcDbPolyline
 90
2
 70
0
 10
624938.3711135662
 20
4834068.310870066
 10
624925.6656991811
 20
4834113.5537264105
  0
LWPOLYLINE
  5
4E
330
17
100
AcDbEntity
  8
ROADS
100
AcDbPolyline
 90
2
 70
0
 10
625095.2270542076
 20
4834080.081509968
 10
625065.2873443775
 20
4834161.305891461
  0
LWPOLYLINE
  5
4F
330
17
100
AcDbEntity
  8
ROADS
100
AcDbPolyline
 90
2
 70
0
 10
625095.2270542076
 20
4834080.081509968
 10
625142.2909003475
 20
4834161.788687586
  0
LWPOLYLINE
  5
50
330
17
100
AcDbEntity
  8
ROADS
100
AcDbPolyline
 90
2
 70
0
 10
624971.2261062495
 20
4834129.494063312
 10
624925.6656991811
 20
4834113.5537264105
  0
LWPOLYLINE
  5
51
330
17
100
AcDbEntity
  8
ROADS
100
AcDbPolyline
 90
2
 70
0
 10
624925.6656991811
 20
4834113.5537264105
 10
624912.0850880757
 20
4834159.1917828
  0
LWPOLYLINE
  5
52
330
17
100
AcDbEntity
  8
ROADS
100
AcDbPolyline
 90
2
 70
0
 10
625042.960939112
 20
4834064.712008206
 10
624995.2236375174
 20
4834223.92701559
  0
LWPOLYLINE
  5
53
330
17
100
AcDbEntity
  8
ROADS
100
AcDbPolyline
 90
2
 70
0
 10
624971.2261062495
 20
4834129.494063312
 10
624944.7219514782
 20
4834216.562827752
  0
LWPOLYLINE
  5
54
330
17
100
AcDbEntity
  8
ROADS
100
AcDbPolyline
 90
2
 70
0
 10
624912.0850880757
 20
4834159.1917828
 10
624898.7209381523
 20
4834204.306719186
  0
LWPOLYLINE
  5
55
330
17
100
AcDbEntity
  8
ROADS
100
AcDbPolyline
 90
2
 70
0
 10
624372.2524688618
 20
4834003.516472546
 10
624368.6833904767
 20
4834016.014633805
  0
LWPOLYLINE
  5
56
330
17
100
AcDbEntity
  8
ROADS
100
AcDbPolyline
 90
2
 70
0
 10
624385.99418318
 20
4834029.522225981
 10
624372.2524688618
 20
4834003.516472546
  0
LWPOLYLINE
  5
57
330
17
100
AcDbEntity
  8
ROADS
100
AcDbPolyline
 90
3
 70
0
 10
624362.0466318375
 20
4834003.089992953
 10
624261.736003024
 20
4834004.9871134525
 10
624190.687932119
 20
4834043.015025106
  0
LWPOLYLINE
  5
58
330
17
100
AcDbEntity
  8
ROADS
100
AcDbPolyline
 90
2
 70
0
 10
624623.8834932032
 20
4834087.865933663
 10
624385.99418318
 20
4834029.522225981
  0
LWPOLYLINE
  5
59
330
17
100
AcDbEntity
  8
ROADS
100
AcDbPolyline
 90
3
 70
0
 10
624467.8760877575
 20
4834147.066451216
 10
624440.816261513
 20
4834127.88834112
 10
624385.99418318
 20
4834029.522225981
  0
LWPOLYLINE
  5
5A
330
17
100
AcDbEntity
  8
ROADS
100
AcDbPolyline
 90
2
 70
0
 10
624368.6833904767
 20
4834016.014633805
 10
624312.4624877695
 20
4834273.947749812
  0
LWPOLYLINE
  5
5B
330
17
100
AcDbEntity
  8
ROADS
100
AcDbPolyline
 90
2
 70
0
 10
624595.2222465689
 20
4834234.854864613
 10
624467.8760877575
 20
4834147.066451216
  0
LWPOLYLINE
  5
5C
330
17
100
AcDbEntity
  8
ROADS
100
AcDbPolyline
 90
2
 70
0
 10
624467.8760877575
 20
4834147.066451216
 10
624424.806178608
 20
4834290.1756715
  0
LWPOLYLINE
  5
5D
330
17
100
AcDbEntity
  8
ROADS
100
AcDbPolyline
 90
3
 70
0
 10
624302.6178962415
 20
4834263.328748842
 10
624232.4232544146
 20
4834223.211893232
 10
624244.1007703294
 20
4834202.801873576
  0
LWPOLYLINE
  5
5E
330
17
100
AcDbEntity
  8
ROADS
100
AcDbPolyline
 90
2
 70
0
 10
624302.6178962415
 20
4834263.328748842
 10
624260.9714976338
 20
4834259.078787964
  0
LWPOLYLINE
  5
5F
330
17
100
AcDbEntity
  8
ROADS
100
AcDbPolyline
 90
2
 70
0
 10
624925.6656991811
 20
4834113.5537264105
 10
624835.1245299133
 20
4834087.504861336
  0
LWPOLYLINE
  5
60
330
17
100
AcDbEntity
  8
ROADS
100
AcDbPolyline
 90
2
 70
0
 10
624623.8834932032
 20
4834087.865933663
 10
624615.9080289647
 20
4834139.433578551
  0
LWPOLYLINE
  5
61
330
17
100
AcDbEntity
  8
ROADS
100
AcDbPolyline
 90
2
 70
0
 10
624781.8576409353
 20
4834084.902979483
 10
624757.2387153973
 20
4834163.888330634
  0
LWPOLYLINE
  5
62
330
17
100
AcDbEntity
  8
ROADS
100
AcDbPolyline
 90
2
 70
0
 10
624912.0850880757
 20
4834159.1917828
 10
624820.4267449351
 20
4834131.987651264
  0
LWPOLYLINE
  5
63
330
17
100
AcDbEntity
  8
ROADS
100
AcDbPolyline
 90
2
 70
0
 10
624752.6351382235
 20
4834178.180904912
 10
624615.9080289647
 20
4834139.433578551
  0
LWPOLYLINE
  5
64
330
17
100
AcDbEntity
  8
ROADS
100
AcDbPolyline
 90
2
 70
0
 10
624757.2387153973
 20
4834163.888330634
 10
624752.6351382235
 20
4834178.180904912
  0
LWPOLYLINE
  5
65
330
17
100
AcDbEntity
  8
ROADS
100
AcDbPolyline
 90
2
 70
0
 10
624898.7209381523
 20
4834204.306719186
 10
624757.2387153973
 20
4834163.888330634
  0
LWPOLYLINE
  5
66
330
17
100
AcDbEntity
  8
ROADS
100
AcDbPolyline
 90
2
 70
0
 10
624615.9080289647
 20
4834139.433578551
 10
624595.2222465689
 20
4834234.854864613
  0
LWPOLYLINE
  5
67
330
17
100
AcDbEntity
  8
ROADS
100
AcDbPolyline
 90
2
 70
0
 10
624752.6351382235
 20
4834178.180904912
 10
624721.6477421906
 20
4834279.41334839
  0
LWPOLYLINE
  5
68
330
17
100
AcDbEntity
  8
ROADS
100
AcDbPolyline
 90
3
 70
0
 10
624681.2182873097
 20
4834266.978931825
 10
624697.602076159
 20
4834212.598100888
 10
624669.5444261059
 20
4834202.535432898
  0
LWPOLYLINE
  5
69
330
17
100
AcDbEntity
  8
ROADS
100
AcDbPolyline
 90
2
 70
0
 10
625228.5387173871
 20
4834171.305070912
 10
625350.8996978472
 20
4834215.561130447
  0
LWPOLYLINE
  5
6A
330
17
100
AcDbEntity
  8
ROADS
100
AcDbPolyline
 90
2
 70
0
 10
625259.8929095073
 20
4834222.237626166
 10
625228.5387173871
 20
4834171.305070912
  0
LWPOLYLINE
  5
6B
330
17
100
AcDbEntity
  8
ROADS
100
AcDbPolyline
 90
2
 70
0
 10
625266.1428345589
 20
4834203.394531959
 10
625259.8929095073
 20
4834222.237626166
  0
LWPOLYLINE
  5
6C
330
17
100
AcDbEntity
  8
ROADS
100
AcDbPolyline
 90
2
 70
0
 10
625356.6023556369
 20
4834217.254110644
 10
625350.8996978472
 20
4834215.561130447
  0
LWPOLYLINE
  5
6D
330
17
100
AcDbEntity
  8
ROADS
100
AcDbPolyline
 90
2
 70
0
 10
625271.7810980193
 20
4834241.794593811
 10
625259.8929095073
 20
4834222.237626166
  0
LWPOLYLINE
  5
6E
330
17
100
AcDbEntity
  8
ROADS
100
AcDbPolyline
 90
2
 70
0
 10
625142.2909003475
 20
4834161.788687586
 10
625229.0065220555
 20
4834308.805224078
  0
LWPOLYLINE
  5
6F
330
17
100
AcDbEntity
  8
ROADS
100
AcDbPolyline
 90
2
 70
0
 10
625350.8996978472
 20
4834215.561130447
 10
625333.462941688
 20
4834264.99725735
  0
LWPOLYLINE
  5
70
330
17
100
AcDbEntity
  8
ROADS
100
AcDbPolyline
 90
2
 70
0
 10
625303.087395427
 20
4834257.422312234
 10
625271.7810980193
 20
4834241.794593811
  0
LWPOLYLINE
  5
71
330
17
100
AcDbEntity
  8
ROADS
100
AcDbPolyline
 90
2
 70
0
 10
625333.462941688
 20
4834264.99725735
 10
625271.7810980193
 20
4834241.794593811
  0
LWPOLYLINE
  5
72
330
17
100
AcDbEntity
  8
ROADS
100
AcDbPolyline
 90
2
 70
0
 10
625328.8704715291
 20
4834293.903378298
 10
625338.1925234433
 20
4834319.988338415
  0
LWPOLYLINE
  5
73
330
17
100
AcDbEntity
  8
ROADS
100
AcDbPolyline
 90
2
 70
0
 10
625373.4825543083
 20
4834308.035515451
 10
625338.1925234433
 20
4834319.988338415
  0
LWPOLYLINE
  5
74
330
17
100
AcDbEntity
  8
ROADS
100
AcDbPolyline
 90
2
 70
0
 10
625229.0065220555
 20
4834308.805224078
 10
625174.0554575583
 20
4834342.387884531
  0
LWPOLYLINE
  5
75
330
17
100
AcDbEntity
  8
ROADS
100
AcDbPolyline
 90
2
 70
0
 10
625229.0065220555
 20
4834308.805224078
 10
625252.8331944956
 20
4834348.898127452
  0
LWPOLYLINE
  5
76
330
17
100
AcDbEntity
  8
ROADS
100
AcDbPolyline
 90
2
 70
0
 10
625338.1925234433
 20
4834319.988338415
 10
625252.8331944956
 20
4834348.898127452
  0
LWPOLYLINE
  5
77
330
17
100
AcDbEntity
  8
ROADS
100
AcDbPolyline
 90
2
 70
0
 10
625252.8331944956
 20
4834348.898127452
 10
625188.3389521588
 20
4834382.737307703
  0
LWPOLYLINE
  5
78
330
17
100
AcDbEntity
  8
ROADS
100
AcDbPolyline
 90
2
 70
0
 10
625188.3389521588
 20
4834382.737307703
 10
625211.6338385843
 20
4834421.875546296
  0
LWPOLYLINE
  5
79
330
17
100
AcDbEntity
  8
ROADS
100
AcDbPolyline
 90
2
 70
0
 10
625211.6338385843
 20
4834421.875546296
 10
625234.3967879297
 20
4834460.9531722255
  0
LWPOLYLINE
  5
7A
330
17
100
AcDbEntity
  8
ROADS
100
AcDbPolyline
 90
2
 70
0
 10
625460.6304973598
 20
4834339.058228129
 10
625198.2041934241
 20
4834685.102524356
  0
LWPOLYLINE
  5
7B
330
17
100
AcDbEntity
  8
ROADS
100
AcDbPolyline
 90
2
 70
0
 10
625234.3967879297
 20
4834460.9531722255
 10
625262.7193910213
 20
4834511.463936142
  0
LWPOLYLINE
  5
7C
330
17
100
AcDbEntity
  8
ROADS
100
AcDbPolyline
 90
2
 70
0
 10
625065.2873443775
 20
4834161.305891461
 10
625043.1967804022
 20
4834237.73186089
  0
LWPOLYLINE
  5
7D
330
17
100
AcDbEntity
  8
ROADS
100
AcDbPolyline
 90
2
 70
0
 10
624944.7219514782
 20
4834216.562827752
 10
624898.7209381523
 20
4834204.306719186
  0
LWPOLYLINE
  5
7E
330
17
100
AcDbEntity
  8
ROADS
100
AcDbPolyline
 90
2
 70
0
 10
624995.2236375174
 20
4834223.92701559
 10
624944.7219514782
 20
4834216.562827752
  0
LWPOLYLINE
  5
7F
330
17
100
AcDbEntity
  8
ROADS
100
AcDbPolyline
 90
2
 70
0
 10
624898.7209381523
 20
4834204.306719186
 10
624885.1852832208
 20
4834248.729514205
  0
LWPOLYLINE
  5
80
330
17
100
AcDbEntity
  8
ROADS
100
AcDbPolyline
 90
2
 70
0
 10
625043.1967804022
 20
4834237.73186089
 10
624995.2236375174
 20
4834223.92701559
  0
LWPOLYLINE
  5
81
330
17
100
AcDbEntity
  8
ROADS
100
AcDbPolyline
 90
2
 70
0
 10
624995.2236375174
 20
4834223.92701559
 10
624977.2802202932
 20
4834278.032689824
  0
LWPOLYLINE
  5
82
330
17
100
AcDbEntity
  8
ROADS
100
AcDbPolyline
 90
2
 70
0
 10
625065.2873443775
 20
4834161.305891461
 10
625174.0554575583
 20
4834342.387884531
  0
LWPOLYLINE
  5
83
330
17
100
AcDbEntity
  8
ROADS
100
AcDbPolyline
 90
2
 70
0
 10
624944.7219514782
 20
4834216.562827752
 10
624909.4115134417
 20
4834334.270095727
  0
LWPOLYLINE
  5
84
330
17
100
AcDbEntity
  8
ROADS
100
AcDbPolyline
 90
2
 70
0
 10
625043.1967804022
 20
4834237.73186089
 10
625110.7669631566
 20
4834335.691596015
  0
LWPOLYLINE
  5
85
330
17
100
AcDbEntity
  8
ROADS
100
AcDbPolyline
 90
3
 70
0
 10
625110.7669631566
 20
4834335.691596015
 10
625027.7252977398
 20
4834313.785436816
 10
624977.2802202932
 20
4834278.032689824
  0
LWPOLYLINE
  5
86
330
17
100
AcDbEntity
  8
ROADS
100
AcDbPolyline
 90
2
 70
0
 10
625333.462941688
 20
4834264.99725735
 10
625303.087395427
 20
4834257.422312234
  0
LWPOLYLINE
  5
87
330
17
100
AcDbEntity
  8
ROADS
100
AcDbPolyline
 90
2
 70
0
 10
625297.2454161763
 20
4834284.015216426
 10
625271.7810980193
 20
4834241.794593811
  0
LWPOLYLINE
  5
88
330
17
100
AcDbEntity
  8
ROADS
100
AcDbPolyline
 90
2
 70
0
 10
625303.087395427
 20
4834257.422312234
 10
625305.9026076862
 20
4834273.630106542
  0
LWPOLYLINE
  5
89
330
17
100
AcDbEntity
  8
ROADS
100
AcDbPolyline
 90
2
 70
0
 10
625388.736542854
 20
4834249.144071221
 10
625373.4825543083
 20
4834308.035515451
  0
LWPOLYLINE
  5
8A
330
17
100
AcDbEntity
  8
ROADS
100
AcDbPolyline
 90
2
 70
0
 10
625305.9026076862
 20
4834273.630106542
 10
625333.462941688
 20
4834264.99725735
  0
LWPOLYLINE
  5
8B
330
17
100
AcDbEntity
  8
ROADS
100
AcDbPolyline
 90
2
 70
0
 10
625305.9026076862
 20
4834273.630106542
 10
625297.2454161763
 20
4834284.015216426
  0
LWPOLYLINE
  5
8C
330
17
100
AcDbEntity
  8
ROADS
100
AcDbPolyline
 90
2
 70
0
 10
625333.462941688
 20
4834264.99725735
 10
625328.8704715291
 20
4834293.903378298
  0
LWPOLYLINE
  5
8D
330
17
100
AcDbEntity
  8
ROADS
100
AcDbPolyline
 90
2
 70
0
 10
625426.4614147241
 20
4834292.5694164885
 10
625373.4825543083
 20
4834308.035515451
  0
LWPOLYLINE
  5
8E
330
17
100
AcDbEntity
  8
ROADS
100
AcDbPolyline
 90
2
 70
0
 10
625229.0065220555
 20
4834308.805224078
 10
625297.2454161763
 20
4834284.015216426
  0
LWPOLYLINE
  5
8F
330
17
100
AcDbEntity
  8
ROADS
100
AcDbPolyline
 90
2
 70
0
 10
625328.8704715291
 20
4834293.903378298
 10
625315.982052709
 20
4834299.529743381
  0
LWPOLYLINE
  5
90
330
17
100
AcDbEntity
  8
ROADS
100
AcDbPolyline
 90
2
 70
0
 10
624312.4624877695
 20
4834273.947749812
 10
624302.6178962415
 20
4834263.328748842
  0
LWPOLYLINE
  5
91
330
17
100
AcDbEntity
  8
ROADS
100
AcDbPolyline
 90
3
 70
0
 10
624424.806178608
 20
4834290.1756715
 10
624384.9943458813
 20
4834299.896611973
 10
624312.4624877695
 20
4834273.947749812
  0
LWPOLYLINE
  5
92
330
17
100
AcDbEntity
  8
ROADS
100
AcDbPolyline
 90
2
 70
0
 10
624424.806178608
 20
4834290.1756715
 10
624399.734023519
 20
4834384.883573579
  0
LWPOLYLINE
  5
93
330
17
100
AcDbEntity
  8
ROADS
100
AcDbPolyline
 90
2
 70
0
 10
624312.4624877695
 20
4834273.947749812
 10
624265.7430860401
 20
4834419.284542393
  0
LWPOLYLINE
  5
94
330
17
100
AcDbEntity
  8
ROADS
100
AcDbPolyline
 90
2
 70
0
 10
624346.3107997767
 20
4834367.421027949
 10
624321.9348676971
 20
4834359.821034207
  0
LWPOLYLINE
  5
95
330
17
100
AcDbEntity
  8
ROADS
100
AcDbPolyline
 90
2
 70
0
 10
624399.734023519
 20
4834384.883573579
 10
624346.3107997767
 20
4834367.421027949
  0
LWPOLYLINE
  5
96
330
17
100
AcDbEntity
  8
ROADS
100
AcDbPolyline
 90
2
 70
0
 10
624346.3107997767
 20
4834367.421027949
 10
624330.2058738647
 20
4834419.7627263125
  0
LWPOLYLINE
  5
97
330
17
100
AcDbEntity
  8
ROADS
100
AcDbPolyline
 90
2
 70
0
 10
624558.2766687326
 20
4834345.872091827
 10
624521.4890384302
 20
4834453.847986198
  0
LWPOLYLINE
  5
98
330
17
100
AcDbEntity
  8
ROADS
100
AcDbPolyline
 90
2
 70
0
 10
624399.734023519
 20
4834384.883573579
 10
624376.0852968525
 20
4834455.614908777
  0
LWPOLYLINE
  5
99
330
17
100
AcDbEntity
  8
ROADS
100
AcDbPolyline
 90
2
 70
0
 10
624376.0852968525
 20
4834455.614908777
 10
624265.7430860401
 20
4834419.284542393
  0
LWPOLYLINE
  5
9A
330
17
100
AcDbEntity
  8
ROADS
100
AcDbPolyline
 90
2
 70
0
 10
624977.2802202932
 20
4834278.032689824
 10
624956.4921582812
 20
4834348.264832428
  0
LWPOLYLINE
  5
9B
330
17
100
AcDbEntity
  8
ROADS
100
AcDbPolyline
 90
2
 70
0
 10
624956.4921582812
 20
4834348.264832428
 10
624909.4115134417
 20
4834334.270095727
  0
LWPOLYLINE
  5
9C
330
17
100
AcDbEntity
  8
ROADS
100
AcDbPolyline
 90
2
 70
0
 10
625110.7669631566
 20
4834335.691596015
 10
625132.4715390151
 20
4834367.981696415
  0
LWPOLYLINE
  5
9D
330
17
100
AcDbEntity
  8
ROADS
100
AcDbPolyline
 90
2
 70
0
 10
624909.4115134417
 20
4834334.270095727
 10
624897.2220436538
 20
4834374.563992074
  0
LWPOLYLINE
  5
9E
330
17
100
AcDbEntity
  8
ROADS
100
AcDbPolyline
 90
2
 70
0
 10
625174.0554575583
 20
4834342.387884531
 10
625132.4715390151
 20
4834367.981696415
  0
LWPOLYLINE
  5
9F
330
17
100
AcDbEntity
  8
ROADS
100
AcDbPolyline
 90
2
 70
0
 10
625148.6910628533
 20
4834405.402945887
 10
624956.4921582812
 20
4834348.264832428
  0
LWPOLYLINE
  5
A0
330
17
100
AcDbEntity
  8
ROADS
100
AcDbPolyline
 90
2
 70
0
 10
625132.4715390151
 20
4834367.981696415
 10
625148.6910628533
 20
4834405.402945887
  0
LWPOLYLINE
  5
A1
330
17
100
AcDbEntity
  8
ROADS
100
AcDbPolyline
 90
2
 70
0
 10
625188.3389521588
 20
4834382.737307703
 10
625148.6910628533
 20
4834405.402945887
  0
LWPOLYLINE
  5
A2
330
17
100
AcDbEntity
  8
ROADS
100
AcDbPolyline
 90
2
 70
0
 10
624897.2220436538
 20
4834374.563992074
 10
624879.62800945
 20
4834442.811735053
  0
LWPOLYLINE
  5
A3
330
17
100
AcDbEntity
  8
ROADS
100
AcDbPolyline
 90
2
 70
0
 10
625148.6910628533
 20
4834405.402945887
 10
625060.9245185836
 20
4834458.828546549
  0
LWPOLYLINE
  5
A4
330
17
100
AcDbEntity
  8
ROADS
100
AcDbPolyline
 90
2
 70
0
 10
624681.2182873097
 20
4834266.978931825
 10
624595.2222465689
 20
4834234.854864613
  0
LWPOLYLINE
  5
A5
330
17
100
AcDbEntity
  8
ROADS
100
AcDbPolyline
 90
2
 70
0
 10
624721.6477421906
 20
4834279.41334839
 10
624681.2182873097
 20
4834266.978931825
  0
LWPOLYLINE
  5
A6
330
17
100
AcDbEntity
  8
ROADS
100
AcDbPolyline
 90
2
 70
0
 10
624595.2222465689
 20
4834234.854864613
 10
624558.2766687326
 20
4834345.872091827
  0
LWPOLYLINE
  5
A7
330
17
100
AcDbEntity
  8
ROADS
100
AcDbPolyline
 90
2
 70
0
 10
624909.4115134417
 20
4834334.270095727
 10
624721.6477421906
 20
4834279.41334839
  0
LWPOLYLINE
  5
A8
330
17
100
AcDbEntity
  8
ROADS
100
AcDbPolyline
 90
2
 70
0
 10
624879.62800945
 20
4834442.811735053
 10
624558.2766687326
 20
4834345.872091827
  0
LWPOLYLINE
  5
A9
330
17
100
AcDbEntity
  8
ROADS
100
AcDbPolyline
 90
2
 70
0
 10
624765.1552892767
 20
4834533.292589073
 10
624521.4890384302
 20
4834453.847986198
  0
LWPOLYLINE
  5
AA
330
17
100
AcDbEntity
  8
ROADS
100
AcDbPolyline
 90
2
 70
0
 10
624879.62800945
 20
4834442.811735053
 10
624848.0428561876
 20
4834559.957262496
  0
LWPOLYLINE
  5
AB
330
17
100
AcDbEntity
  8
ROADS
100
AcDbPolyline
 90
2
 70
0
 10
624808.3047701372
 20
4834547.172285053
 10
624765.1552892767
 20
4834533.292589073
  0
LWPOLYLINE
  5
AC
330
17
100
AcDbEntity
  8
ROADS
100
AcDbPolyline
 90
2
 70
0
 10
624848.0428561876
 20
4834559.957262496
 10
624808.3047701372
 20
4834547.172285053
  0
LWPOLYLINE
  5
AD
330
17
100
AcDbEntity
  8
ROADS
100
AcDbPolyline
 90
2
 70
0
 10
624685.4037716645
 20
4834608.100131465
 10
624490.2284726638
 20
4834544.905850647
  0
LWPOLYLINE
  5
AE
330
17
100
AcDbEntity
  8
ROADS
100
AcDbPolyline
 90
2
 70
0
 10
624897.2220436538
 20
4834374.563992074
 10
624983.1417300379
 20
4834506.213242972
  0
LWPOLYLINE
  5
AF
330
17
100
AcDbEntity
  8
ROADS
100
AcDbPolyline
 90
2
 70
0
 10
625211.6338385843
 20
4834421.875546296
 10
625084.8731074093
 20
4834498.039595655
  0
LWPOLYLINE
  5
B0
330
17
100
AcDbEntity
  8
ROADS
100
AcDbPolyline
 90
2
 70
0
 10
625060.9245185836
 20
4834458.828546549
 10
625084.8731074093
 20
4834498.039595655
  0
LWPOLYLINE
  5
B1
330
17
100
AcDbEntity
  8
ROADS
100
AcDbPolyline
 90
2
 70
0
 10
625060.9245185836
 20
4834458.828546549
 10
624983.1417300379
 20
4834506.213242972
  0
LWPOLYLINE
  5
B2
330
17
100
AcDbEntity
  8
ROADS
100
AcDbPolyline
 90
2
 70
0
 10
625234.3967879297
 20
4834460.9531722255
 10
625106.0634288989
 20
4834535.707708305
  0
LWPOLYLINE
  5
B3
330
17
100
AcDbEntity
  8
ROADS
100
AcDbPolyline
 90
2
 70
0
 10
625047.0868518167
 20
4834520.288839417
 10
625084.8731074093
 20
4834498.039595655
  0
LWPOLYLINE
  5
B4
330
17
100
AcDbEntity
  8
ROADS
100
AcDbPolyline
 90
2
 70
0
 10
625084.8731074093
 20
4834498.039595655
 10
625106.0634288989
 20
4834535.707708305
  0
LWPOLYLINE
  5
B5
330
17
100
AcDbEntity
  8
ROADS
100
AcDbPolyline
 90
2
 70
0
 10
624983.1417300379
 20
4834506.213242972
 10
625009.8404318136
 20
4834543.212873125
  0
LWPOLYLINE
  5
B6
330
17
100
AcDbEntity
  8
ROADS
100
AcDbPolyline
 90
2
 70
0
 10
625047.0868518167
 20
4834520.288839417
 10
625009.8404318136
 20
4834543.212873125
  0
LWPOLYLINE
  5
B7
330
17
100
AcDbEntity
  8
ROADS
100
AcDbPolyline
 90
2
 70
0
 10
624983.1417300379
 20
4834506.213242972
 10
624841.8852818763
 20
4834595.930935737
  0
LWPOLYLINE
  5
B8
330
17
100
AcDbEntity
  8
ROADS
100
AcDbPolyline
 90
4
 70
0
 10
625499.2685805076
 20
4834400.682150492
 10
625457.6618286801
 20
4834500.982949877
 10
625378.1710783897
 20
4834746.634014626
 10
625295.370824227
 20
4834733.278581411
  0
LWPOLYLINE
  5
B9
330
17
100
AcDbEntity
  8
ROADS
100
AcDbPolyline
 90
2
 70
0
 10
624996.7478860389
 20
4834929.022565248
 10
625446.5206840948
 20
4834319.221453127
  0
LWPOLYLINE
  5
BA
330
17
100
AcDbEntity
  8
ROADS
100
AcDbPolyline
 90
2
 70
0
 10
625198.2041934241
 20
4834685.102524356
 10
625283.1478165996
 20
4834729.368421334
  0
LWPOLYLINE
  5
BB
330
17
100
AcDbEntity
  8
ROADS
100
AcDbPolyline
 90
2
 70
0
 10
625295.370824227
 20
4834733.278581411
 10
625283.1478165996
 20
4834729.368421334
  0
LWPOLYLINE
  5
BC
330
17
100
AcDbEntity
  8
ROADS
100
AcDbPolyline
 90
2
 70
0
 10
625515.2731184831
 20
4834788.000097966
 10
625472.596811534
 20
4834775.435470904
  0
LWPOLYLINE
  5
BD
330
17
100
AcDbEntity
  8
ROADS
100
AcDbPolyline
 90
3
 70
0
 10
625283.1478165996
 20
4834729.368421334
 10
625227.6896957722
 20
4834720.019449327
 10
625095.2036264682
 20
4834908.31713676
  0
LWPOLYLINE
  5
BE
330
17
100
AcDbEntity
  8
ROADS
100
AcDbPolyline
 90
3
 70
0
 10
625295.370824227
 20
4834733.278581411
 10
625275.9876985443
 20
4834786.058179915
 10
625169.0162712559
 20
4834935.118393781
  0
LWPOLYLINE
  5
BF
330
17
100
AcDbEntity
  8
ROADS
100
AcDbPolyline
 90
4
 70
0
 10
625228.8574220007
 20
4835002.12235942
 10
625253.7032627603
 20
4834925.921212786
 10
625359.9789096747
 20
4834956.199997225
 10
625391.1955620991
 20
4834859.670829087
  0
LWPOLYLINE
  5
C0
330
17
100
AcDbEntity
  8
ROADS
100
AcDbPolyline
 90
2
 70
0
 10
625228.8574220007
 20
4835002.12235942
 10
625165.8456604729
 20
4834981.003142562
  0
LWPOLYLINE
  5
C1
330
17
100
AcDbEntity
  8
ROADS
100
AcDbPolyline
 90
2
 70
0
 10
625368.0997147867
 20
4835044.80379317
 10
625228.8574220007
 20
4835002.12235942
  0
LWPOLYLINE
  5
C2
330
17
100
AcDbEntity
  8
ROADS
100
AcDbPolyline
 90
2
 70
0
 10
624848.0428561876
 20
4834559.957262496
 10
624841.8852818763
 20
4834595.930935737
  0
LWPOLYLINE
  5
C3
330
17
100
AcDbEntity
  8
ROADS
100
AcDbPolyline
 90
2
 70
0
 10
624765.1552892767
 20
4834533.292589073
 10
624740.330936818
 20
4834625.07489014
  0
LWPOLYLINE
  5
C4
330
17
100
AcDbEntity
  8
ROADS
100
AcDbPolyline
 90
3
 70
0
 10
624685.4037716645
 20
4834608.100131465
 10
624698.520412318
 20
4834563.457790898
 10
624658.1850504051
 20
4834550.3000022555
  0
LWPOLYLINE
  5
C5
330
17
100
AcDbEntity
  8
ROADS
100
AcDbPolyline
 90
2
 70
0
 10
624740.330936818
 20
4834625.07489014
 10
624685.4037716645
 20
4834608.100131465
  0
LWPOLYLINE
  5
C6
330
17
100
AcDbEntity
  8
ROADS
100
AcDbPolyline
 90
3
 70
0
 10
624670.7399045615
 20
4834707.630484617
 10
624685.9123982991
 20
4834659.573124704
 10
624595.1953115433
 20
4834632.1418746095
  0
LWPOLYLINE
  5
C7
330
17
100
AcDbEntity
  8
ROADS
100
AcDbPolyline
 90
3
 70
0
 10
624692.9928902354
 20
4834782.604803581
 10
624747.5119204511
 20
4834799.032183973
 10
624808.3047701372
 20
4834547.172285053
  0
LWPOLYLINE
  5
C8
330
17
100
AcDbEntity
  8
ROADS
100
AcDbPolyline
 90
2
 70
0
 10
624740.330936818
 20
4834625.07489014
 10
624713.1781569986
 20
4834721.298331887
  0
LWPOLYLINE
  5
C9
330
17
100
AcDbEntity
  8
ROADS
100
AcDbPolyline
 90
2
 70
0
 10
624670.7399045615
 20
4834707.630484617
 10
624457.9798437573
 20
4834639.725040785
  0
LWPOLYLINE
  5
CA
330
17
100
AcDbEntity
  8
ROADS
100
AcDbPolyline
 90
2
 70
0
 10
624713.1781569986
 20
4834721.298331887
 10
624670.7399045615
 20
4834707.630484617
  0
LWPOLYLINE
  5
CB
330
17
100
AcDbEntity
  8
ROADS
100
AcDbPolyline
 90
2
 70
0
 10
624841.8852818763
 20
4834595.930935737
 10
624787.8203270233
 20
4834865.849454064
  0
LWPOLYLINE
  5
CC
330
17
100
AcDbEntity
  8
ROADS
100
AcDbPolyline
 90
2
 70
0
 10
625009.8404318136
 20
4834543.212873125
 10
625033.2945008271
 20
4834582.893009905
  0
LWPOLYLINE
  5
CD
330
17
100
AcDbEntity
  8
ROADS
100
AcDbPolyline
 90
2
 70
0
 10
625047.0868518167
 20
4834520.288839417
 10
625121.3763437653
 20
4834645.245591801
  0
LWPOLYLINE
  5
CE
330
17
100
AcDbEntity
  8
ROADS
100
AcDbPolyline
 90
2
 70
0
 10
625106.0634288989
 20
4834535.707708305
 10
625166.6744377821
 20
4834638.520003354
  0
LWPOLYLINE
  5
CF
330
17
100
AcDbEntity
  8
ROADS
100
AcDbPolyline
 90
4
 70
0
 10
625009.8404318136
 20
4834543.212873125
 10
624892.3517115656
 20
4834613.764117311
 10
624934.3332432811
 20
4834641.026455185
 10
625033.2945008271
 20
4834582.893009905
  0
LWPOLYLINE
  5
D0
330
17
100
AcDbEntity
  8
ROADS
100
AcDbPolyline
 90
2
 70
0
 10
625033.2945008271
 20
4834582.893009905
 10
625085.3040434566
 20
4834668.884879683
  0
LWPOLYLINE
  5
D1
330
17
100
AcDbEntity
  8
ROADS
100
AcDbPolyline
 90
2
 70
0
 10
625198.2041934241
 20
4834685.102524356
 10
625034.8783507795
 20
4834904.772481517
  0
LWPOLYLINE
  5
D2
330
17
100
AcDbEntity
  8
ROADS
100
AcDbPolyline
 90
2
 70
0
 10
624996.7478860389
 20
4834929.022565248
 10
624787.8203270233
 20
4834865.849454064
  0
LWPOLYLINE
  5
D3
330
17
100
AcDbEntity
  8
ROADS
100
AcDbPolyline
 90
2
 70
0
 10
625034.8783507795
 20
4834904.772481517
 10
625014.051290731
 20
4834934.308640924
  0
LWPOLYLINE
  5
D4
330
17
100
AcDbEntity
  8
ROADS
100
AcDbPolyline
 90
2
 70
0
 10
625169.0162712559
 20
4834935.118393781
 10
625095.2036264682
 20
4834908.31713676
  0
LWPOLYLINE
  5
D5
330
17
100
AcDbEntity
  8
ROADS
100
AcDbPolyline
 90
3
 70
0
 10
625034.8783507795
 20
4834904.772481517
 10
625024.5162430389
 20
4834927.981458929
 10
625071.473766945
 20
4834951.552590178
  0
LWPOLYLINE
  5
D6
330
17
100
AcDbEntity
  8
ROADS
100
AcDbPolyline
 90
2
 70
0
 10
624290.5124882344
 20
4834711.943819012
 10
624277.6750197464
 20
4834708.6125947125
  0
LWPOLYLINE
  5
D7
330
17
100
AcDbEntity
  8
ROADS
100
AcDbPolyline
 90
2
 70
0
 10
624438.1259790232
 20
4834695.9221864855
 10
624419.1940864869
 20
4834751.403952804
  0
LWPOLYLINE
  5
D8
330
17
100
AcDbEntity
  8
ROADS
100
AcDbPolyline
 90
2
 70
0
 10
624419.1940864869
 20
4834751.403952804
 10
624290.5124882344
 20
4834711.943819012
  0
LWPOLYLINE
  5
D9
330
17
100
AcDbEntity
  8
ROADS
100
AcDbPolyline
 90
2
 70
0
 10
624162.261627275
 20
4834741.1021259725
 10
624178.7712520261
 20
4834746.260824531
  0
LWPOLYLINE
  5
DA
330
17
100
AcDbEntity
  8
ROADS
100
AcDbPolyline
 90
2
 70
0
 10
624435.7089876422
 20
4834756.492747215
 10
624419.1940864869
 20
4834751.403952804
  0
LWPOLYLINE
  5
DB
330
17
100
AcDbEntity
  8
ROADS
100
AcDbPolyline
 90
2
 70
0
 10
624162.261627275
 20
4834741.1021259725
 10
624150.2890637922
 20
4834778.93870937
  0
LWPOLYLINE
  5
DC
330
17
100
AcDbEntity
  8
ROADS
100
AcDbPolyline
 90
2
 70
0
 10
624435.7089876422
 20
4834756.492747215
 10
624424.4075463765
 20
4834803.783999236
  0
LWPOLYLINE
  5
DD
330
17
100
AcDbEntity
  8
ROADS
100
AcDbPolyline
 90
2
 70
0
 10
624277.6750197464
 20
4834708.6125947125
 10
624232.1202251331
 20
4834851.972761795
  0
LWPOLYLINE
  5
DE
330
17
100
AcDbEntity
  8
ROADS
100
AcDbPolyline
 90
2
 70
0
 10
624639.4261625375
 20
4834819.605041089
 10
624435.7089876422
 20
4834756.492747215
  0
LWPOLYLINE
  5
DF
330
17
100
AcDbEntity
  8
ROADS
100
AcDbPolyline
 90
2
 70
0
 10
624424.4075463765
 20
4834803.783999236
 10
624415.3955235115
 20
4834850.726613424
  0
LWPOLYLINE
  5
E0
330
17
100
AcDbEntity
  8
ROADS
100
AcDbPolyline
 90
2
 70
0
 10
625368.0997147867
 20
4835044.80379317
 10
625545.7027242475
 20
4834495.51457787
  0
LWPOLYLINE
  5
E1
330
17
100
AcDbEntity
  8
ROADS
100
AcDbPolyline
 90
2
 70
0
 10
625592.8337070607
 20
4834665.615361349
 10
625575.8448031656
 20
4834719.276567375
  0
LWPOLYLINE
  5
E2
330
17
100
AcDbEntity
  8
ROADS
100
AcDbPolyline
 90
2
 70
0
 10
625536.666380264
 20
4834709.9928604
 10
625547.9061528805
 20
4834673.582953337
  0
LWPOLYLINE
  5
E3
330
17
100
AcDbEntity
  8
ROADS
100
AcDbPolyline
 90
2
 70
0
 10
625536.666380264
 20
4834709.9928604
 10
625512.3388055195
 20
4834703.0327267125
  0
LWPOLYLINE
  5
E4
330
17
100
AcDbEntity
  8
ROADS
100
AcDbPolyline
 90
2
 70
0
 10
625575.8448031656
 20
4834719.276567375
 10
625536.666380264
 20
4834709.9928604
  0
LWPOLYLINE
  5
E5
330
17
100
AcDbEntity
  8
ROADS
100
AcDbPolyline
 90
2
 70
0
 10
625600.8303571844
 20
4834725.265867684
 10
625575.8448031656
 20
4834719.276567375
  0
LWPOLYLINE
  5
E6
330
17
100
AcDbEntity
  8
ROADS
100
AcDbPolyline
 90
2
 70
0
 10
625536.666380264
 20
4834709.9928604
 10
625524.8561405946
 20
4834749.690640487
  0
LWPOLYLINE
  5
E7
330
17
100
AcDbEntity
  8
ROADS
100
AcDbPolyline
 90
2
 70
0
 10
625524.8561405946
 20
4834749.690640487
 10
625475.0032632237
 20
4834734.866667638
  0
LWPOLYLINE
  5
E8
330
17
100
AcDbEntity
  8
ROADS
100
AcDbPolyline
 90
2
 70
0
 10
625575.8448031656
 20
4834719.276567375
 10
625551.4521894235
 20
4834799.119201935
  0
LWPOLYLINE
  5
E9
330
17
100
AcDbEntity
  8
ROADS
100
AcDbPolyline
 90
2
 70
0
 10
625524.8561405946
 20
4834749.690640487
 10
625515.2731184831
 20
4834788.000097966
  0
LWPOLYLINE
  5
EA
330
17
100
AcDbEntity
  8
ROADS
100
AcDbPolyline
 90
2
 70
0
 10
625551.4521894235
 20
4834799.119201935
 10
625515.2731184831
 20
4834788.000097966
  0
LWPOLYLINE
  5
EB
330
17
100
AcDbEntity
  8
ROADS
100
AcDbPolyline
 90
3
 70
0
 10
625515.2731184831
 20
4834788.000097966
 10
625496.3736656836
 20
4834871.169697685
 10
625525.5235925217
 20
4834883.989346515
  0
LWPOLYLINE
  5
EC
330
17
100
AcDbEntity
  8
ROADS
100
AcDbPolyline
 90
2
 70
0
 10
625551.4521894235
 20
4834799.119201935
 10
625525.5235925217
 20
4834883.989346515
  0
LWPOLYLINE
  5
ED
330
17
100
AcDbEntity
  8
ROADS
100
AcDbPolyline
 90
2
 70
0
 10
625603.136689591
 20
4834785.249537069
 10
625541.5071038207
 20
4834988.125198658
  0
LWPOLYLINE
  5
EE
330
17
100
AcDbEntity
  8
ROADS
100
AcDbPolyline
 90
2
 70
0
 10
625525.5235925217
 20
4834883.989346515
 10
625496.7941128898
 20
4834974.375161658
  0
LWPOLYLINE
  5
EF
330
17
100
AcDbEntity
  8
ROADS
100
AcDbPolyline
 90
2
 70
0
 10
625541.5071038207
 20
4834988.125198658
 10
625496.7941128898
 20
4834974.375161658
  0
LWPOLYLINE
  5
F0
330
17
100
AcDbEntity
  8
ROADS
100
AcDbPolyline
 90
2
 70
0
 10
625578.2898051023
 20
4834999.437726332
 10
625541.5071038207
 20
4834988.125198658
  0
LWPOLYLINE
  5
F1
330
17
100
AcDbEntity
  8
ROADS
100
AcDbPolyline
 90
2
 70
0
 10
625556.8340057585
 20
4835101.251692746
 10
625467.9350812153
 20
4835073.309104861
  0
LWPOLYLINE
  5
F2
330
17
100
AcDbEntity
  8
ROADS
100
AcDbPolyline
 90
2
 70
0
 10
624200.3383723878
 20
4834504.387863496
 10
624146.8401847467
 20
4834398.79230236
  0
LWPOLYLINE
  5
F3
330
17
100
AcDbEntity
  8
ROADS
100
AcDbPolyline
 90
2
 70
0
 10
624265.7430860401
 20
4834419.284542393
 10
624242.941877831
 20
4834489.713149851
  0
LWPOLYLINE
  5
F4
330
17
100
AcDbEntity
  8
ROADS
100
AcDbPolyline
 90
2
 70
0
 10
624521.4890384302
 20
4834453.847986198
 10
624506.2066848774
 20
4834498.469160473
  0
LWPOLYLINE
  5
F5
330
17
100
AcDbEntity
  8
ROADS
100
AcDbPolyline
 90
2
 70
0
 10
624506.2066848774
 20
4834498.469160473
 10
624376.0852968525
 20
4834455.614908777
  0
LWPOLYLINE
  5
F6
330
17
100
AcDbEntity
  8
ROADS
100
AcDbPolyline
 90
2
 70
0
 10
624376.0852968525
 20
4834455.614908777
 10
624359.2299629998
 20
4834506.758980108
  0
LWPOLYLINE
  5
F7
330
17
100
AcDbEntity
  8
ROADS
100
AcDbPolyline
 90
2
 70
0
 10
624242.941877831
 20
4834489.713149851
 10
624200.3383723878
 20
4834504.387863496
  0
LWPOLYLINE
  5
F8
330
17
100
AcDbEntity
  8
ROADS
100
AcDbPolyline
 90
2
 70
0
 10
624359.2299629998
 20
4834506.758980108
 10
624306.3387079478
 20
4834489.577047323
  0
LWPOLYLINE
  5
F9
330
17
100
AcDbEntity
  8
ROADS
100
AcDbPolyline
 90
3
 70
0
 10
624200.3383723878
 20
4834504.387863496
 10
624175.9584928502
 20
4834512.110601567
 10
624167.5809844722
 20
4834496.623358227
  0
LWPOLYLINE
  5
FA
330
17
100
AcDbEntity
  8
ROADS
100
AcDbPolyline
 90
2
 70
0
 10
624506.2066848774
 20
4834498.469160473
 10
624490.2284726638
 20
4834544.905850647
  0
LWPOLYLINE
  5
FB
330
17
100
AcDbEntity
  8
ROADS
100
AcDbPolyline
 90
2
 70
0
 10
624359.2299629998
 20
4834506.758980108
 10
624336.4722723259
 20
4834575.719309927
  0
LWPOLYLINE
  5
FC
330
17
100
AcDbEntity
  8
ROADS
100
AcDbPolyline
 90
2
 70
0
 10
624146.8401847467
 20
4834398.79230236
 10
624135.424758418
 20
4834367.136300796
  0
LWPOLYLINE
  5
FD
330
17
100
AcDbEntity
  8
ROADS
100
AcDbPolyline
 90
2
 70
0
 10
624146.8401847467
 20
4834398.79230236
 10
624113.1960036227
 20
4834403.84945529
  0
LWPOLYLINE
  5
FE
330
17
100
AcDbEntity
  8
ROADS
100
AcDbPolyline
 90
2
 70
0
 10
623806.4111258666
 20
4834397.534531204
 10
623747.4350983241
 20
4834409.188648819
  0
LWPOLYLINE
  5
FF
330
17
100
AcDbEntity
  8
ROADS
100
AcDbPolyline
 90
2
 70
0
 10
623806.4111258666
 20
4834397.534531204
 10
623764.4628357585
 20
4834528.218569953
  0
LWPOLYLINE
  5
100
330
17
100
AcDbEntity
  8
ROADS
100
AcDbPolyline
 90
3
 70
0
 10
623806.4111258666
 20
4834397.534531204
 10
623854.5262594027
 20
4834503.225191408
 10
623924.6103681504
 20
4834592.658634854
  0
LWPOLYLINE
  5
101
330
17
100
AcDbEntity
  8
ROADS
100
AcDbPolyline
 90
2
 70
0
 10
623885.5181182848
 20
4834580.001367145
 10
623760.5276850181
 20
4834538.505972243
  0
LWPOLYLINE
  5
102
330
17
100
AcDbEntity
  8
ROADS
100
AcDbPolyline
 90
2
 70
0
 10
623924.6103681504
 20
4834592.658634854
 10
623885.5181182848
 20
4834580.001367145
  0
LWPOLYLINE
  5
103
330
17
100
AcDbEntity
  8
ROADS
100
AcDbPolyline
 90
2
 70
0
 10
623996.5231195848
 20
4834614.843650072
 10
623924.6103681504
 20
4834592.658634854
  0
LWPOLYLINE
  5
104
330
17
100
AcDbEntity
  8
ROADS
100
AcDbPolyline
 90
2
 70
0
 10
624101.200245484
 20
4834649.1645478755
 10
623996.5231195848
 20
4834614.843650072
  0
LWPOLYLINE
  5
105
330
17
100
AcDbEntity
  8
ROADS
100
AcDbPolyline
 90
2
 70
0
 10
624180.4431255425
 20
4834675.736315139
 10
624101.200245484
 20
4834649.1645478755
  0
LWPOLYLINE
  5
106
330
17
100
AcDbEntity
  8
ROADS
100
AcDbPolyline
 90
2
 70
0
 10
623631.5407723922
 20
4834497.249382706
 10
623531.9245188028
 20
4834465.004159288
  0
LWPOLYLINE
  5
107
330
17
100
AcDbEntity
  8
ROADS
100
AcDbPolyline
 90
2
 70
0
 10
623655.7682635006
 20
4834505.091701069
 10
623631.5407723922
 20
4834497.249382706
  0
LWPOLYLINE
  5
108
330
17
100
AcDbEntity
  8
ROADS
100
AcDbPolyline
 90
2
 70
0
 10
623760.5276850181
 20
4834538.505972243
 10
623655.7682635006
 20
4834505.091701069
  0
LWPOLYLINE
  5
109
330
17
100
AcDbEntity
  8
ROADS
100
AcDbPolyline
 90
3
 70
0
 10
623441.802030373
 20
4834528.124387176
 10
623411.2950534322
 20
4834537.387433974
 10
623348.6500470907
 20
4834518.67916378
  0
LWPOLYLINE
  5
10A
330
17
100
AcDbEntity
  8
ROADS
100
AcDbPolyline
 90
2
 70
0
 10
623631.5407723922
 20
4834497.249382706
 10
623609.7614260202
 20
4834564.149141396
  0
LWPOLYLINE
  5
10B
330
17
100
AcDbEntity
  8
ROADS
100
AcDbPolyline
 90
2
 70
0
 10
623764.4628357585
 20
4834528.218569953
 10
623760.5276850181
 20
4834538.505972243
  0
LWPOLYLINE
  5
10C
330
17
100
AcDbEntity
  8
ROADS
100
AcDbPolyline
 90
2
 70
0
 10
623348.6500470907
 20
4834518.67916378
 10
623331.5807639936
 20
4834570.3752354
  0
LWPOLYLINE
  5
10D
330
17
100
AcDbEntity
  8
ROADS
100
AcDbPolyline
 90
2
 70
0
 10
623331.5807639936
 20
4834570.3752354
 10
623329.0581364316
 20
4834569.852583541
  0
LWPOLYLINE
  5
10E
330
17
100
AcDbEntity
  8
ROADS
100
AcDbPolyline
 90
3
 70
0
 10
623609.7614260202
 20
4834564.149141396
 10
623574.7568286711
 20
4834564.4704368375
 10
623568.3888453064
 20
4834580.274140132
  0
LWPOLYLINE
  5
10F
330
17
100
AcDbEntity
  8
ROADS
100
AcDbPolyline
 90
2
 70
0
 10
623609.7614260202
 20
4834564.149141396
 10
623604.0576046144
 20
4834582.379975542
  0
LWPOLYLINE
  5
110
330
17
100
AcDbEntity
  8
ROADS
100
AcDbPolyline
 90
2
 70
0
 10
624490.2284726638
 20
4834544.905850647
 10
624463.433523455
 20
4834618.293467573
  0
LWPOLYLINE
  5
111
330
17
100
AcDbEntity
  8
ROADS
100
AcDbPolyline
 90
2
 70
0
 10
624242.941877831
 20
4834489.713149851
 10
624180.4431255425
 20
4834675.736315139
  0
LWPOLYLINE
  5
112
330
17
100
AcDbEntity
  8
ROADS
100
AcDbPolyline
 90
4
 70
0
 10
624463.433523455
 20
4834618.293467573
 10
624417.717075105
 20
4834604.13036161
 10
624410.1635879574
 20
4834583.941747539
 10
624336.4722723259
 20
4834575.719309927
  0
LWPOLYLINE
  5
113
330
17
100
AcDbEntity
  8
ROADS
100
AcDbPolyline
 90
2
 70
0
 10
624463.433523455
 20
4834618.293467573
 10
624457.9798437573
 20
4834639.725040785
  0
LWPOLYLINE
  5
114
330
17
100
AcDbEntity
  8
ROADS
100
AcDbPolyline
 90
2
 70
0
 10
624180.4431255425
 20
4834675.736315139
 10
624132.7395540919
 20
4834594.911778166
  0
LWPOLYLINE
  5
115
330
17
100
AcDbEntity
  8
ROADS
100
AcDbPolyline
 90
2
 70
0
 10
624336.4722723259
 20
4834575.719309927
 10
624290.5124882344
 20
4834711.943819012
  0
LWPOLYLINE
  5
116
330
17
100
AcDbEntity
  8
ROADS
100
AcDbPolyline
 90
2
 70
0
 10
624457.9798437573
 20
4834639.725040785
 10
624438.1259790232
 20
4834695.9221864855
  0
LWPOLYLINE
  5
117
330
17
100
AcDbEntity
  8
ROADS
100
AcDbPolyline
 90
2
 70
0
 10
624438.1259790232
 20
4834695.9221864855
 10
624320.0575726656
 20
4834659.580078017
  0
LWPOLYLINE
  5
118
330
17
100
AcDbEntity
  8
ROADS
100
AcDbPolyline
 90
2
 70
0
 10
624277.6750197464
 20
4834708.6125947125
 10
624180.4431255425
 20
4834675.736315139
  0
LWPOLYLINE
  5
119
330
17
100
AcDbEntity
  8
ROADS
100
AcDbPolyline
 90
2
 70
0
 10
624180.4431255425
 20
4834675.736315139
 10
624162.261627275
 20
4834741.1021259725
  0
LWPOLYLINE
  5
11A
330
17
100
AcDbEntity
  8
ROADS
100
AcDbPolyline
 90
2
 70
0
 10
623604.0576046144
 20
4834582.379975542
 10
623568.3888453064
 20
4834580.274140132
  0
LWPOLYLINE
  5
11B
330
17
100
AcDbEntity
  8
ROADS
100
AcDbPolyline
 90
2
 70
0
 10
623331.5807639936
 20
4834570.3752354
 10
623327.6943760513
 20
4834582.076661339
  0
LWPOLYLINE
  5
11C
330
17
100
AcDbEntity
  8
ROADS
100
AcDbPolyline
 90
5
 70
0
 10
623568.3888453064
 20
4834580.274140132
 10
623471.0253798126
 20
4834611.172823426
 10
623415.0279953583
 20
4834672.611751102
 10
623438.2122222414
 20
4834772.2998744715
 10
623518.8420706718
 20
4834839.584765548
  0
LWPOLYLINE
  5
11D
330
17
100
AcDbEntity
  8
ROADS
100
AcDbPolyline
 90
2
 70
0
 10
623604.0576046144
 20
4834582.379975542
 10
623518.8420706718
 20
4834839.584765548
  0
LWPOLYLINE
  5
11E
330
17
100
AcDbEntity
  8
ROADS
100
AcDbPolyline
 90
2
 70
0
 10
623760.5276850181
 20
4834538.505972243
 10
623626.830278621
 20
4834943.937128882
  0
LWPOLYLINE
  5
11F
330
17
100
AcDbEntity
  8
ROADS
100
AcDbPolyline
 90
3
 70
0
 10
623400.7884514435
 20
4834864.514066204
 10
623339.8463297689
 20
4834742.200296107
 10
623325.7532443022
 20
4834736.823831648
  0
LWPOLYLINE
  5
120
330
17
100
AcDbEntity
  8
ROADS
100
AcDbPolyline
 90
2
 70
0
 10
623518.8420706718
 20
4834839.584765548
 10
623498.4619226797
 20
4834902.767584047
  0
LWPOLYLINE
  5
121
330
17
100
AcDbEntity
  8
ROADS
100
AcDbPolyline
 90
2
 70
0
 10
623498.4619226797
 20
4834902.767584047
 10
623400.7884514435
 20
4834864.514066204
  0
LWPOLYLINE
  5
122
330
17
100
AcDbEntity
  8
ROADS
100
AcDbPolyline
 90
2
 70
0
 10
623885.5181182848
 20
4834580.001367145
 10
623755.3113344997
 20
4834985.070739787
  0
LWPOLYLINE
  5
123
330
17
100
AcDbEntity
  8
ROADS
100
AcDbPolyline
 90
2
 70
0
 10
623996.5231195848
 20
4834614.843650072
 10
623862.7107737255
 20
4835020.593003156
  0
LWPOLYLINE
  5
124
330
17
100
AcDbEntity
  8
ROADS
100
AcDbPolyline
 90
2
 70
0
 10
624101.200245484
 20
4834649.1645478755
 10
623977.3950205646
 20
4835057.421043082
  0
LWPOLYLINE
  5
125
330
17
100
AcDbEntity
  8
ROADS
100
AcDbPolyline
 90
2
 70
0
 10
624150.2890637922
 20
4834778.93870937
 10
624092.3920846453
 20
4834954.026380531
  0
LWPOLYLINE
  5
126
330
17
100
AcDbEntity
  8
ROADS
100
AcDbPolyline
 90
2
 70
0
 10
624138.8611239752
 20
4834968.045118046
 10
624092.3920846453
 20
4834954.026380531
  0
LWPOLYLINE
  5
127
330
17
100
AcDbEntity
  8
ROADS
100
AcDbPolyline
 90
2
 70
0
 10
624138.8611239752
 20
4834968.045118046
 10
624119.4961397583
 20
4835027.180183852
  0
LWPOLYLINE
  5
128
330
17
100
AcDbEntity
  8
ROADS
100
AcDbPolyline
 90
2
 70
0
 10
623862.7107737255
 20
4835020.593003156
 10
623755.3113344997
 20
4834985.070739787
  0
LWPOLYLINE
  5
129
330
17
100
AcDbEntity
  8
ROADS
100
AcDbPolyline
 90
2
 70
0
 10
624092.3920846453
 20
4834954.026380531
 10
624053.2556808522
 20
4835073.315197017
  0
LWPOLYLINE
  5
12A
330
17
100
AcDbEntity
  8
ROADS
100
AcDbPolyline
 90
2
 70
0
 10
623977.3950205646
 20
4835057.421043082
 10
623862.7107737255
 20
4835020.593003156
  0
LWPOLYLINE
  5
12B
330
17
100
AcDbEntity
  8
ROADS
100
AcDbPolyline
 90
2
 70
0
 10
623977.3950205646
 20
4835057.421043082
 10
623968.2752733338
 20
4835063.410500196
  0
LWPOLYLINE
  5
12C
330
17
100
AcDbEntity
  8
ROADS
100
AcDbPolyline
 90
2
 70
0
 10
623498.4619226797
 20
4834902.767584047
 10
623487.6858077788
 20
4834935.493454613
  0
LWPOLYLINE
  5
12D
330
17
100
AcDbEntity
  8
ROADS
100
AcDbPolyline
 90
2
 70
0
 10
623626.830278621
 20
4834943.937128882
 10
623498.4619226797
 20
4834902.767584047
  0
LWPOLYLINE
  5
12E
330
17
100
AcDbEntity
  8
ROADS
100
AcDbPolyline
 90
2
 70
0
 10
623487.6858077788
 20
4834935.493454613
 10
623482.8912710923
 20
4834950.33554063
  0
LWPOLYLINE
  5
12F
330
17
100
AcDbEntity
  8
ROADS
100
AcDbPolyline
 90
3
 70
0
 10
623487.6858077788
 20
4834935.493454613
 10
623534.1974053737
 20
4834951.413031992
 10
623529.081000025
 20
4834985.49828229
  0
LWPOLYLINE
  5
130
330
17
100
AcDbEntity
  8
ROADS
100
AcDbPolyline
 90
3
 70
0
 10
623482.8912710923
 20
4834950.33554063
 10
623433.220360554
 20
4834934.258848493
 10
623414.2245515406
 20
4834989.681276749
  0
LWPOLYLINE
  5
131
330
17
100
AcDbEntity
  8
ROADS
100
AcDbPolyline
 90
2
 70
0
 10
623755.3113344997
 20
4834985.070739787
 10
623626.830278621
 20
4834943.937128882
  0
LWPOLYLINE
  5
132
330
17
100
AcDbEntity
  8
ROADS
100
AcDbPolyline
 90
3
 70
0
 10
623400.7884514435
 20
4834864.514066204
 10
623362.2992437423
 20
4834961.229205489
 10
623430.6174326435
 20
4835108.6706348155
  0
LWPOLYLINE
  5
133
330
17
100
AcDbEntity
  8
ROADS
100
AcDbPolyline
 90
2
 70
0
 10
623482.8912710923
 20
4834950.33554063
 10
623430.6174326435
 20
4835108.6706348155
  0
LWPOLYLINE
  5
134
330
17
100
AcDbEntity
  8
ROADS
100
AcDbPolyline
 90
2
 70
0
 10
623755.3113344997
 20
4834985.070739787
 10
623690.6030386101
 20
4835181.175122622
  0
LWPOLYLINE
  5
135
330
17
100
AcDbEntity
  8
ROADS
100
AcDbPolyline
 90
2
 70
0
 10
624511.9489897444
 20
4835012.579652596
 10
624521.2890463966
 20
4834976.867564037
  0
LWPOLYLINE
  5
136
330
17
100
AcDbEntity
  8
ROADS
100
AcDbPolyline
 90
2
 70
0
 10
624511.9489897444
 20
4835012.579652596
 10
624447.293747439
 20
4834995.693995281
  0
LWPOLYLINE
  5
137
330
17
100
AcDbEntity
  8
ROADS
100
AcDbPolyline
 90
3
 70
0
 10
624361.1730843593
 20
4835012.182106823
 10
624337.7642750768
 20
4835005.132077416
 10
624322.0945055214
 20
4835053.477898749
  0
LWPOLYLINE
  5
138
330
17
100
AcDbEntity
  8
ROADS
100
AcDbPolyline
 90
2
 70
0
 10
624447.293747439
 20
4834995.693995281
 10
624415.4936489937
 20
4835083.120843933
  0
LWPOLYLINE
  5
139
330
17
100
AcDbEntity
  8
ROADS
100
AcDbPolyline
 90
3
 70
0
 10
624369.2073614981
 20
4835068.395345328
 10
624385.4216891999
 20
4835019.909854163
 10
624361.1730843593
 20
4835012.182106823
  0
LWPOLYLINE
  5
13A
330
17
100
AcDbEntity
  8
ROADS
100
AcDbPolyline
 90
2
 70
0
 10
624322.0945055214
 20
4835053.477898749
 10
624276.0582639129
 20
4835038.695925141
  0
LWPOLYLINE
  5
13B
330
17
100
AcDbEntity
  8
ROADS
100
AcDbPolyline
 90
2
 70
0
 10
624200.3545682565
 20
4835112.695368186
 10
624238.9005709805
 20
4834997.467046603
  0
LWPOLYLINE
  5
13C
330
17
100
AcDbEntity
  8
ROADS
100
AcDbPolyline
 90
2
 70
0
 10
624369.2073614981
 20
4835068.395345328
 10
624322.0945055214
 20
4835053.477898749
  0
LWPOLYLINE
  5
13D
330
17
100
AcDbEntity
  8
ROADS
100
AcDbPolyline
 90
2
 70
0
 10
624415.4936489937
 20
4835083.120843933
 10
624369.2073614981
 20
4835068.395345328
  0
LWPOLYLINE
  5
13E
330
17
100
AcDbEntity
  8
ROADS
100
AcDbPolyline
 90
2
 70
0
 10
624276.0582639129
 20
4835038.695925141
 10
624247.6166939463
 20
4835129.920638926
  0
LWPOLYLINE
  5
13F
330
17
100
AcDbEntity
  8
ROADS
100
AcDbPolyline
 90
2
 70
0
 10
624006.2318641861
 20
4835066.972821774
 10
623977.3950205646
 20
4835057.421043082
  0
LWPOLYLINE
  5
140
330
17
100
AcDbEntity
  8
ROADS
100
AcDbPolyline
 90
2
 70
0
 10
623862.7107737255
 20
4835020.593003156
 10
623827.7562251153
 20
4835117.387159366
  0
LWPOLYLINE
  5
141
330
17
100
AcDbEntity
  8
ROADS
100
AcDbPolyline
 90
2
 70
0
 10
624053.2556808522
 20
4835073.315197017
 10
624006.2318641861
 20
4835066.972821774
  0
LWPOLYLINE
  5
142
330
17
100
AcDbEntity
  8
ROADS
100
AcDbPolyline
 90
2
 70
0
 10
624103.1362579123
 20
4835081.726324186
 10
624053.2556808522
 20
4835073.315197017
  0
LWPOLYLINE
  5
143
330
17
100
AcDbEntity
  8
ROADS
100
AcDbPolyline
 90
2
 70
0
 10
623968.2752733338
 20
4835063.410500196
 10
623968.885214478
 20
4835092.790061924
  0
LWPOLYLINE
  5
144
330
17
100
AcDbEntity
  8
ROADS
100
AcDbPolyline
 90
2
 70
0
 10
624006.2318641861
 20
4835066.972821774
 10
623968.885214478
 20
4835092.790061924
  0
LWPOLYLINE
  5
145
330
17
100
AcDbEntity
  8
ROADS
100
AcDbPolyline
 90
2
 70
0
 10
624151.1145974308
 20
4835096.728415314
 10
624103.1362579123
 20
4835081.726324186
  0
LWPOLYLINE
  5
146
330
17
100
AcDbEntity
  8
ROADS
100
AcDbPolyline
 90
5
 70
0
 10
623968.2752733338
 20
4835063.410500196
 10
623934.6146417116
 20
4835084.646130514
 10
623895.4354771636
 20
4835144.508009206
 10
623843.7887072735
 20
4835136.048947289
 10
623827.7562251153
 20
4835117.387159366
  0
LWPOLYLINE
  5
147
330
17
100
AcDbEntity
  8
ROADS
100
AcDbPolyline
 90
4
 70
0
 10
623968.885214478
 20
4835092.790061924
 10
623954.8579974722
 20
4835123.906118476
 10
623977.1209907307
 20
4835130.221897262
 10
623968.8876431264
 20
4835143.659765322
  0
LWPOLYLINE
  5
148
330
17
100
AcDbEntity
  8
ROADS
100
AcDbPolyline
 90
2
 70
0
 10
623827.7562251153
 20
4835117.387159366
 10
623749.1268005746
 20
4835199.056991467
  0
LWPOLYLINE
  5
149
330
17
100
AcDbEntity
  8
ROADS
100
AcDbPolyline
 90
2
 70
0
 10
624670.7399045615
 20
4834707.630484617
 10
624653.4296958109
 20
4834761.363507399
  0
LWPOLYLINE
  5
14A
330
17
100
AcDbEntity
  8
ROADS
100
AcDbPolyline
 90
2
 70
0
 10
624653.4296958109
 20
4834761.363507399
 10
624575.5866514121
 20
4834736.846098616
  0
LWPOLYLINE
  5
14B
330
17
100
AcDbEntity
  8
ROADS
100
AcDbPolyline
 90
2
 70
0
 10
624713.1781569986
 20
4834721.298331887
 10
624692.9928902354
 20
4834782.604803581
  0
LWPOLYLINE
  5
14C
330
17
100
AcDbEntity
  8
ROADS
100
AcDbPolyline
 90
2
 70
0
 10
624653.4296958109
 20
4834761.363507399
 10
624639.4261625375
 20
4834819.605041089
  0
LWPOLYLINE
  5
14D
330
17
100
AcDbEntity
  8
ROADS
100
AcDbPolyline
 90
2
 70
0
 10
624692.9928902354
 20
4834782.604803581
 10
624678.2564737081
 20
4834832.539143904
  0
LWPOLYLINE
  5
14E
330
17
100
AcDbEntity
  8
ROADS
100
AcDbPolyline
 90
2
 70
0
 10
624678.2564737081
 20
4834832.539143904
 10
624639.4261625375
 20
4834819.605041089
  0
LWPOLYLINE
  5
14F
330
17
100
AcDbEntity
  8
ROADS
100
AcDbPolyline
 90
2
 70
0
 10
624639.4261625375
 20
4834819.605041089
 10
624627.0706075763
 20
4834871.102993632
  0
LWPOLYLINE
  5
150
330
17
100
AcDbEntity
  8
ROADS
100
AcDbPolyline
 90
2
 70
0
 10
624787.8203270233
 20
4834865.849454064
 10
624678.2564737081
 20
4834832.539143904
  0
LWPOLYLINE
  5
151
330
17
100
AcDbEntity
  8
ROADS
100
AcDbPolyline
 90
2
 70
0
 10
624627.0706075763
 20
4834871.102993632
 10
624701.6062417196
 20
4834894.305579927
  0
LWPOLYLINE
  5
152
330
17
100
AcDbEntity
  8
ROADS
100
AcDbPolyline
 90
2
 70
0
 10
624627.0706075763
 20
4834871.102993632
 10
624610.9226409479
 20
4834922.77789905
  0
LWPOLYLINE
  5
153
330
17
100
AcDbEntity
  8
ROADS
100
AcDbPolyline
 90
2
 70
0
 10
624627.0706075763
 20
4834871.102993632
 10
624424.4075463765
 20
4834803.783999236
  0
LWPOLYLINE
  5
154
330
17
100
AcDbEntity
  8
ROADS
100
AcDbPolyline
 90
2
 70
0
 10
624415.3955235115
 20
4834850.726613424
 10
624407.2216337986
 20
4834887.816847742
  0
LWPOLYLINE
  5
155
330
17
100
AcDbEntity
  8
ROADS
100
AcDbPolyline
 90
2
 70
0
 10
624342.8547119376
 20
4834891.660537764
 10
624232.1202251331
 20
4834851.972761795
  0
LWPOLYLINE
  5
156
330
17
100
AcDbEntity
  8
ROADS
100
AcDbPolyline
 90
3
 70
0
 10
624150.2890637922
 20
4834778.93870937
 10
624195.4468705239
 20
4834793.907773259
 10
624138.8611239752
 20
4834968.045118046
  0
LWPOLYLINE
  5
157
330
17
100
AcDbEntity
  8
ROADS
100
AcDbPolyline
 90
2
 70
0
 10
624610.9226409479
 20
4834922.77789905
 10
624415.3955235115
 20
4834850.726613424
  0
LWPOLYLINE
  5
158
330
17
100
AcDbEntity
  8
ROADS
100
AcDbPolyline
 90
2
 70
0
 10
624407.2216337986
 20
4834887.816847742
 10
624342.8547119376
 20
4834891.660537764
  0
LWPOLYLINE
  5
159
330
17
100
AcDbEntity
  8
ROADS
100
AcDbPolyline
 90
4
 70
0
 10
624407.2216337986
 20
4834887.816847742
 10
624462.4296799547
 20
4834933.507259579
 10
624465.6122232836
 20
4834966.955586425
 10
624447.293747439
 20
4834995.693995281
  0
LWPOLYLINE
  5
15A
330
17
100
AcDbEntity
  8
ROADS
100
AcDbPolyline
 90
3
 70
0
 10
624342.8547119376
 20
4834891.660537764
 10
624313.1179176469
 20
4834924.2007406335
 10
624276.0582639129
 20
4835038.695925141
  0
LWPOLYLINE
  5
15B
330
17
100
AcDbEntity
  8
ROADS
100
AcDbPolyline
 90
2
 70
0
 10
624232.1202251331
 20
4834851.972761795
 10
624151.1145974308
 20
4835096.728415314
  0
LWPOLYLINE
  5
15C
330
17
100
AcDbEntity
  8
ROADS
100
AcDbPolyline
 90
2
 70
0
 10
624361.1730843593
 20
4835012.182106823
 10
624375.3881954879
 20
4834953.467928332
  0
LWPOLYLINE
  5
15D
330
17
100
AcDbEntity
  8
ROADS
100
AcDbPolyline
 90
2
 70
0
 10
625095.2036264682
 20
4834908.31713676
 10
625081.2742981225
 20
4834954.761927312
  0
LWPOLYLINE
  5
15E
330
17
100
AcDbEntity
  8
ROADS
100
AcDbPolyline
 90
2
 70
0
 10
625014.051290731
 20
4834934.308640924
 10
624996.7478860389
 20
4834929.022565248
  0
LWPOLYLINE
  5
15F
330
17
100
AcDbEntity
  8
ROADS
100
AcDbPolyline
 90
2
 70
0
 10
625169.0162712559
 20
4834935.118393781
 10
625179.1302046954
 20
4834942.013102432
  0
LWPOLYLINE
  5
160
330
17
100
AcDbEntity
  8
ROADS
100
AcDbPolyline
 90
2
 70
0
 10
625071.473766945
 20
4834951.552590178
 10
625014.051290731
 20
4834934.308640924
  0
LWPOLYLINE
  5
161
330
17
100
AcDbEntity
  8
ROADS
100
AcDbPolyline
 90
2
 70
0
 10
625014.051290731
 20
4834934.308640924
 10
624988.8351125361
 20
4834970.918848115
  0
LWPOLYLINE
  5
162
330
17
100
AcDbEntity
  8
ROADS
100
AcDbPolyline
 90
2
 70
0
 10
625081.2742981225
 20
4834954.761927312
 10
625071.473766945
 20
4834951.552590178
  0
LWPOLYLINE
  5
163
330
17
100
AcDbEntity
  8
ROADS
100
AcDbPolyline
 90
2
 70
0
 10
625169.0162712559
 20
4834935.118393781
 10
625139.8873467015
 20
4834973.361480309
  0
LWPOLYLINE
  5
164
330
17
100
AcDbEntity
  8
ROADS
100
AcDbPolyline
 90
3
 70
0
 10
624988.8351125361
 20
4834970.918848115
 10
625013.1182196715
 20
4834942.331218644
 10
625071.473766945
 20
4834951.552590178
  0
LWPOLYLINE
  5
165
330
17
100
AcDbEntity
  8
ROADS
100
AcDbPolyline
 90
2
 70
0
 10
625139.8873467015
 20
4834973.361480309
 10
625081.2742981225
 20
4834954.761927312
  0
LWPOLYLINE
  5
166
330
17
100
AcDbEntity
  8
ROADS
100
AcDbPolyline
 90
2
 70
0
 10
625071.473766945
 20
4834951.552590178
 10
625059.0780022828
 20
4834987.2385000205
  0
LWPOLYLINE
  5
167
330
17
100
AcDbEntity
  8
ROADS
100
AcDbPolyline
 90
2
 70
0
 10
624787.8203270233
 20
4834865.849454064
 10
624764.8798692953
 20
4834972.740618119
  0
LWPOLYLINE
  5
168
330
17
100
AcDbEntity
  8
ROADS
100
AcDbPolyline
 90
2
 70
0
 10
624651.9636276045
 20
4834935.957487266
 10
624610.9226409479
 20
4834922.77789905
  0
LWPOLYLINE
  5
169
330
17
100
AcDbEntity
  8
ROADS
100
AcDbPolyline
 90
2
 70
0
 10
624725.243953475
 20
4834960.390465162
 10
624651.9636276045
 20
4834935.957487266
  0
LWPOLYLINE
  5
16A
330
17
100
AcDbEntity
  8
ROADS
100
AcDbPolyline
 90
2
 70
0
 10
624764.8798692953
 20
4834972.740618119
 10
624725.243953475
 20
4834960.390465162
  0
LWPOLYLINE
  5
16B
330
17
100
AcDbEntity
  8
ROADS
100
AcDbPolyline
 90
2
 70
0
 10
624610.9226409479
 20
4834922.77789905
 10
624580.9610981352
 20
4835018.256467602
  0
LWPOLYLINE
  5
16C
330
17
100
AcDbEntity
  8
ROADS
100
AcDbPolyline
 90
3
 70
0
 10
624716.1123692383
 20
4835008.025994207
 10
624638.4126006317
 20
4834983.881133796
 10
624651.9636276045
 20
4834935.957487266
  0
LWPOLYLINE
  5
16D
330
17
100
AcDbEntity
  8
ROADS
100
AcDbPolyline
 90
2
 70
0
 10
624725.243953475
 20
4834960.390465162
 10
624716.1123692383
 20
4835008.025994207
  0
LWPOLYLINE
  5
16E
330
17
100
AcDbEntity
  8
ROADS
100
AcDbPolyline
 90
2
 70
0
 10
624570.6960521328
 20
4835019.555980032
 10
624511.9489897444
 20
4835012.579652596
  0
LWPOLYLINE
  5
16F
330
17
100
AcDbEntity
  8
ROADS
100
AcDbPolyline
 90
2
 70
0
 10
624580.9610981352
 20
4835018.256467602
 10
624570.6960521328
 20
4835019.555980032
  0
LWPOLYLINE
  5
170
330
17
100
AcDbEntity
  8
ROADS
100
AcDbPolyline
 90
2
 70
0
 10
624764.8798692953
 20
4834972.740618119
 10
624745.9030858955
 20
4835069.425861702
  0
LWPOLYLINE
  5
171
330
17
100
AcDbEntity
  8
ROADS
100
AcDbPolyline
 90
2
 70
0
 10
625165.8456604729
 20
4834981.003142562
 10
625139.8873467015
 20
4834973.361480309
  0
LWPOLYLINE
  5
172
330
17
100
AcDbEntity
  8
ROADS
100
AcDbPolyline
 90
2
 70
0
 10
625059.0780022828
 20
4834987.2385000205
 10
625055.4823272191
 20
4834998.5501304995
  0
LWPOLYLINE
  5
173
330
17
100
AcDbEntity
  8
ROADS
100
AcDbPolyline
 90
2
 70
0
 10
625059.0780022828
 20
4834987.2385000205
 10
625129.3359952577
 20
4835008.642714886
  0
LWPOLYLINE
  5
174
330
17
100
AcDbEntity
  8
ROADS
100
AcDbPolyline
 90
2
 70
0
 10
625165.8456604729
 20
4834981.003142562
 10
625151.2635669132
 20
4835028.815216553
  0
LWPOLYLINE
  5
175
330
17
100
AcDbEntity
  8
ROADS
100
AcDbPolyline
 90
2
 70
0
 10
625103.9372319282
 20
4835013.474860228
 10
625055.4823272191
 20
4834998.5501304995
  0
LWPOLYLINE
  5
176
330
17
100
AcDbEntity
  8
ROADS
100
AcDbPolyline
 90
2
 70
0
 10
625151.2635669132
 20
4835028.815216553
 10
625103.9372319282
 20
4835013.474860228
  0
LWPOLYLINE
  5
177
330
17
100
AcDbEntity
  8
ROADS
100
AcDbPolyline
 90
2
 70
0
 10
625151.2635669132
 20
4835028.815216553
 10
625176.7688649105
 20
4835037.479751483
  0
LWPOLYLINE
  5
178
330
17
100
AcDbEntity
  8
ROADS
100
AcDbPolyline
 90
2
 70
0
 10
624988.8351125361
 20
4834970.918848115
 10
624895.4771104611
 20
4835099.7228500135
  0
LWPOLYLINE
  5
179
330
17
100
AcDbEntity
  8
ROADS
100
AcDbPolyline
 90
2
 70
0
 10
625176.7688649105
 20
4835037.479751483
 10
625169.3204333709
 20
4835061.240435481
  0
LWPOLYLINE
  5
17A
330
17
100
AcDbEntity
  8
ROADS
100
AcDbPolyline
 90
2
 70
0
 10
625151.2635669132
 20
4835028.815216553
 10
625135.5689998448
 20
4835076.207153111
  0
LWPOLYLINE
  5
17B
330
17
100
AcDbEntity
  8
ROADS
100
AcDbPolyline
 90
2
 70
0
 10
625496.7941128898
 20
4834974.375161658
 10
625467.9350812153
 20
4835073.309104861
  0
LWPOLYLINE
  5
17C
330
17
100
AcDbEntity
  8
ROADS
100
AcDbPolyline
 90
2
 70
0
 10
625467.9350812153
 20
4835073.309104861
 10
625368.0997147867
 20
4835044.80379317
  0
LWPOLYLINE
  5
17D
330
17
100
AcDbEntity
  8
ROADS
100
AcDbPolyline
 90
3
 70
0
 10
625176.7688649105
 20
4835037.479751483
 10
625260.6999190332
 20
4835063.543410036
 10
625253.5080770351
 20
4835087.299737543
  0
LWPOLYLINE
  5
17E
330
17
100
AcDbEntity
  8
ROADS
100
AcDbPolyline
 90
2
 70
0
 10
625253.5080770351
 20
4835087.299737543
 10
625169.3204333709
 20
4835061.240435481
  0
LWPOLYLINE
  5
17F
330
17
100
AcDbEntity
  8
ROADS
100
AcDbPolyline
 90
2
 70
0
 10
625162.2415009157
 20
4835084.227754654
 10
625246.4916597861
 20
4835110.369196677
  0
LWPOLYLINE
  5
180
330
17
100
AcDbEntity
  8
ROADS
100
AcDbPolyline
 90
2
 70
0
 10
625253.5080770351
 20
4835087.299737543
 10
625246.4916597861
 20
4835110.369196677
  0
LWPOLYLINE
  5
181
330
17
100
AcDbEntity
  8
ROADS
100
AcDbPolyline
 90
3
 70
0
 10
625246.4916597861
 20
4835110.369196677
 10
625290.5996061726
 20
4835124.228310965
 10
625286.5356472812
 20
4835134.447421336
  0
LWPOLYLINE
  5
182
330
17
100
AcDbEntity
  8
ROADS
100
AcDbPolyline
 90
2
 70
0
 10
625546.0432449527
 20
4835151.267011642
 10
625362.7429454128
 20
4835092.957677564
  0
LWPOLYLINE
  5
183
330
17
100
AcDbEntity
  8
ROADS
100
AcDbPolyline
 90
3
 70
0
 10
625286.5356472812
 20
4835134.447421336
 10
625297.5772083367
 20
4835161.833559476
 10
625274.1599475702
 20
4835173.004871751
  0
LWPOLYLINE
  5
184
330
17
100
AcDbEntity
  8
ROADS
100
AcDbPolyline
 90
2
 70
0
 10
625286.5356472812
 20
4835134.447421336
 10
625274.1599475702
 20
4835173.004871751
  0
LWPOLYLINE
  5
185
330
17
100
AcDbEntity
  8
ROADS
100
AcDbPolyline
 90
2
 70
0
 10
625055.4823272191
 20
4834998.5501304995
 10
625013.3852561273
 20
4835134.62169571
  0
LWPOLYLINE
  5
186
330
17
100
AcDbEntity
  8
ROADS
100
AcDbPolyline
 90
2
 70
0
 10
625169.3204333709
 20
4835061.240435481
 10
625162.2415009157
 20
4835084.227754654
  0
LWPOLYLINE
  5
187
330
17
100
AcDbEntity
  8
ROADS
100
AcDbPolyline
 90
2
 70
0
 10
625135.5689998448
 20
4835076.207153111
 10
625162.2415009157
 20
4835084.227754654
  0
LWPOLYLINE
  5
188
330
17
100
AcDbEntity
  8
ROADS
100
AcDbPolyline
 90
2
 70
0
 10
624966.3043412636
 20
4835120.587838979
 10
624895.4771104611
 20
4835099.7228500135
  0
LWPOLYLINE
  5
189
330
17
100
AcDbEntity
  8
ROADS
100
AcDbPolyline
 90
2
 70
0
 10
625103.9372319282
 20
4835013.474860228
 10
625032.8956498886
 20
4835240.539258124
  0
LWPOLYLINE
  5
18A
330
17
100
AcDbEntity
  8
ROADS
100
AcDbPolyline
 90
2
 70
0
 10
625013.3852561273
 20
4835134.62169571
 10
624966.3043412636
 20
4835120.587838979
  0
LWPOLYLINE
  5
18B
330
17
100
AcDbEntity
  8
ROADS
100
AcDbPolyline
 90
2
 70
0
 10
624966.3043412636
 20
4835120.587838979
 10
624951.9024874922
 20
4835165.509977385
  0
LWPOLYLINE
  5
18C
330
17
100
AcDbEntity
  8
ROADS
100
AcDbPolyline
 90
2
 70
0
 10
625135.5689998448
 20
4835076.207153111
 10
625084.9484287661
 20
4835233.132820199
  0
LWPOLYLINE
  5
18D
330
17
100
AcDbEntity
  8
ROADS
100
AcDbPolyline
 90
2
 70
0
 10
624951.9024874922
 20
4835165.509977385
 10
624908.0337430054
 20
4835152.030215795
  0
LWPOLYLINE
  5
18E
330
17
100
AcDbEntity
  8
ROADS
100
AcDbPolyline
 90
2
 70
0
 10
625126.3654495772
 20
4835246.314261912
 10
625167.9455839505
 20
4835108.747235783
  0
LWPOLYLINE
  5
18F
330
17
100
AcDbEntity
  8
ROADS
100
AcDbPolyline
 90
2
 70
0
 10
624616.6049379755
 20
4835029.491398394
 10
624580.9610981352
 20
4835018.256467602
  0
LWPOLYLINE
  5
190
330
17
100
AcDbEntity
  8
ROADS
100
AcDbPolyline
 90
2
 70
0
 10
624716.1123692383
 20
4835008.025994207
 10
624706.7859957018
 20
4835057.585104386
  0
LWPOLYLINE
  5
191
330
17
100
AcDbEntity
  8
ROADS
100
AcDbPolyline
 90
2
 70
0
 10
624661.2144954258
 20
4835044.1435880475
 10
624616.6049379755
 20
4835029.491398394
  0
LWPOLYLINE
  5
192
330
17
100
AcDbEntity
  8
ROADS
100
AcDbPolyline
 90
2
 70
0
 10
624706.7859957018
 20
4835057.585104386
 10
624661.2144954258
 20
4835044.1435880475
  0
LWPOLYLINE
  5
193
330
17
100
AcDbEntity
  8
ROADS
100
AcDbPolyline
 90
2
 70
0
 10
624745.9030858955
 20
4835069.425861702
 10
624706.7859957018
 20
4835057.585104386
  0
LWPOLYLINE
  5
194
330
17
100
AcDbEntity
  8
ROADS
100
AcDbPolyline
 90
2
 70
0
 10
624570.6960521328
 20
4835019.555980032
 10
624539.8858183669
 20
4835110.919965081
  0
LWPOLYLINE
  5
195
330
17
100
AcDbEntity
  8
ROADS
100
AcDbPolyline
 90
2
 70
0
 10
624616.6049379755
 20
4835029.491398394
 10
624552.1615522762
 20
4835223.599959716
  0
LWPOLYLINE
  5
196
330
17
100
AcDbEntity
  8
ROADS
100
AcDbPolyline
 90
2
 70
0
 10
624699.4418255724
 20
4835329.296142464
 10
624996.7478860389
 20
4834929.022565248
  0
LWPOLYLINE
  5
197
330
17
100
AcDbEntity
  8
ROADS
100
AcDbPolyline
 90
2
 70
0
 10
624895.4771104611
 20
4835099.7228500135
 10
624835.9960652144
 20
4835179.424990014
  0
LWPOLYLINE
  5
198
330
17
100
AcDbEntity
  8
ROADS
100
AcDbPolyline
 90
2
 70
0
 10
624661.2144954258
 20
4835044.1435880475
 10
624597.3605030978
 20
4835237.456784212
  0
LWPOLYLINE
  5
199
330
17
100
AcDbEntity
  8
ROADS
100
AcDbPolyline
 90
2
 70
0
 10
625013.3852561273
 20
4835134.62169571
 10
624985.2843005129
 20
4835225.8087583715
  0
LWPOLYLINE
  5
19A
330
17
100
AcDbEntity
  8
ROADS
100
AcDbPolyline
 90
2
 70
0
 10
625208.2385087071
 20
4835112.305806353
 10
625160.0963096297
 20
4835257.047124615
  0
LWPOLYLINE
  5
19B
330
17
100
AcDbEntity
  8
ROADS
100
AcDbPolyline
 90
2
 70
0
 10
624951.9024874922
 20
4835165.509977385
 10
624937.9935791295
 20
4835210.381020288
  0
LWPOLYLINE
  5
19C
330
17
100
AcDbEntity
  8
ROADS
100
AcDbPolyline
 90
2
 70
0
 10
624937.9935791295
 20
4835210.381020288
 10
624875.0760715602
 20
4835191.132588186
  0
LWPOLYLINE
  5
19D
330
17
100
AcDbEntity
  8
ROADS
100
AcDbPolyline
 90
2
 70
0
 10
624985.2843005129
 20
4835225.8087583715
 10
624937.9935791295
 20
4835210.381020288
  0
LWPOLYLINE
  5
19E
330
17
100
AcDbEntity
  8
ROADS
100
AcDbPolyline
 90
2
 70
0
 10
625032.8956498886
 20
4835240.539258124
 10
624985.2843005129
 20
4835225.8087583715
  0
LWPOLYLINE
  5
19F
330
17
100
AcDbEntity
  8
ROADS
100
AcDbPolyline
 90
2
 70
0
 10
625126.3654495772
 20
4835246.314261912
 10
625084.9484287661
 20
4835233.132820199
  0
LWPOLYLINE
  5
1A0
330
17
100
AcDbEntity
  8
ROADS
100
AcDbPolyline
 90
2
 70
0
 10
625084.9484287661
 20
4835233.132820199
 10
625077.6176715066
 20
4835253.730444995
  0
LWPOLYLINE
  5
1A1
330
17
100
AcDbEntity
  8
ROADS
100
AcDbPolyline
 90
2
 70
0
 10
625077.6176715066
 20
4835253.730444995
 10
625032.8956498886
 20
4835240.539258124
  0
LWPOLYLINE
  5
1A2
330
17
100
AcDbEntity
  8
ROADS
100
AcDbPolyline
 90
2
 70
0
 10
625160.0963096297
 20
4835257.047124615
 10
625126.3654495772
 20
4835246.314261912
  0
LWPOLYLINE
  5
1A3
330
17
100
AcDbEntity
  8
ROADS
100
AcDbPolyline
 90
2
 70
0
 10
624706.7859957018
 20
4835057.585104386
 10
624637.7087798695
 20
4835249.981352666
  0
LWPOLYLINE
  5
1A4
330
17
100
AcDbEntity
  8
ROADS
100
AcDbPolyline
 90
2
 70
0
 10
624745.9030858955
 20
4835069.425861702
 10
624683.1897962888
 20
4835264.416814534
  0
LWPOLYLINE
  5
1A5
330
17
100
AcDbEntity
  8
ROADS
100
AcDbPolyline
 90
2
 70
0
 10
624875.0760715602
 20
4835191.132588186
 10
624835.9960652144
 20
4835179.424990014
  0
LWPOLYLINE
  5
1A6
330
17
100
AcDbEntity
  8
ROADS
100
AcDbPolyline
 90
2
 70
0
 10
624597.3605030978
 20
4835237.456784212
 10
624552.1615522762
 20
4835223.599959716
  0
LWPOLYLINE
  5
1A7
330
17
100
AcDbEntity
  8
ROADS
100
AcDbPolyline
 90
2
 70
0
 10
624637.7087798695
 20
4835249.981352666
 10
624597.3605030978
 20
4835237.456784212
  0
LWPOLYLINE
  5
1A8
330
17
100
AcDbEntity
  8
ROADS
100
AcDbPolyline
 90
2
 70
0
 10
624835.9960652144
 20
4835179.424990014
 10
624722.0684233408
 20
4835332.041826457
  0
LWPOLYLINE
  5
1A9
330
17
100
AcDbEntity
  8
ROADS
100
AcDbPolyline
 90
2
 70
0
 10
624683.1897962888
 20
4835264.416814534
 10
624637.7087798695
 20
4835249.981352666
  0
LWPOLYLINE
  5
1AA
330
17
100
AcDbEntity
  8
ROADS
100
AcDbPolyline
 90
2
 70
0
 10
624637.7087798695
 20
4835249.981352666
 10
624615.8934280314
 20
4835296.817027943
  0
LWPOLYLINE
  5
1AB
330
17
100
AcDbEntity
  8
ROADS
100
AcDbPolyline
 90
2
 70
0
 10
624821.5877006121
 20
4835359.266888088
 10
624875.0760715602
 20
4835191.132588186
  0
LWPOLYLINE
  5
1AC
330
17
100
AcDbEntity
  8
ROADS
100
AcDbPolyline
 90
2
 70
0
 10
624683.1897962888
 20
4835264.416814534
 10
624663.2531959256
 20
4835315.116168531
  0
LWPOLYLINE
  5
1AD
330
17
100
AcDbEntity
  8
ROADS
100
AcDbPolyline
 90
2
 70
0
 10
623626.830278621
 20
4834943.937128882
 10
623515.3441393895
 20
4835281.830583778
  0
LWPOLYLINE
  5
1AE
330
17
100
AcDbEntity
  8
ROADS
100
AcDbPolyline
 90
2
 70
0
 10
623430.6174326435
 20
4835108.6706348155
 10
623420.4938277924
 20
4835132.030839449
  0
LWPOLYLINE
  5
1AF
330
17
100
AcDbEntity
  8
ROADS
100
AcDbPolyline
 90
2
 70
0
 10
623749.1268005746
 20
4835199.056991467
 10
623690.6030386101
 20
4835181.175122622
  0
LWPOLYLINE
  5
1B0
330
17
100
AcDbEntity
  8
ROADS
100
AcDbPolyline
 90
2
 70
0
 10
623749.1268005746
 20
4835199.056991467
 10
623773.3380578234
 20
4835246.464115513
  0
LWPOLYLINE
  5
1B1
330
17
100
AcDbEntity
  8
ROADS
100
AcDbPolyline
 90
2
 70
0
 10
623690.6030386101
 20
4835181.175122622
 10
623636.5965389652
 20
4835344.789229593
  0
LWPOLYLINE
  5
1B2
330
17
100
AcDbEntity
  8
ROADS
100
AcDbPolyline
 90
2
 70
0
 10
623740.7984593506
 20
4835316.159481521
 10
623732.8551879039
 20
4835248.277384428
  0
LWPOLYLINE
  5
1B3
330
17
100
AcDbEntity
  8
ROADS
100
AcDbPolyline
 90
2
 70
0
 10
623773.3380578234
 20
4835246.464115513
 10
623779.3129624652
 20
4835328.743382107
  0
LWPOLYLINE
  5
1B4
330
17
100
AcDbEntity
  8
ROADS
100
AcDbPolyline
 90
2
 70
0
 10
624539.8858183669
 20
4835110.919965081
 10
624415.4936489937
 20
4835083.120843933
  0
LWPOLYLINE
  5
1B5
330
17
100
AcDbEntity
  8
ROADS
100
AcDbPolyline
 90
2
 70
0
 10
624200.3545682565
 20
4835112.695368186
 10
624151.1145974308
 20
4835096.728415314
  0
LWPOLYLINE
  5
1B6
330
17
100
AcDbEntity
  8
ROADS
100
AcDbPolyline
 90
2
 70
0
 10
624247.6166939463
 20
4835129.920638926
 10
624200.3545682565
 20
4835112.695368186
  0
LWPOLYLINE
  5
1B7
330
17
100
AcDbEntity
  8
ROADS
100
AcDbPolyline
 90
2
 70
0
 10
624415.4936489937
 20
4835083.120843933
 10
624386.3951841714
 20
4835174.723737679
  0
LWPOLYLINE
  5
1B8
330
17
100
AcDbEntity
  8
ROADS
100
AcDbPolyline
 90
2
 70
0
 10
624539.8858183669
 20
4835110.919965081
 10
624524.2132432638
 20
4835159.5302745495
  0
LWPOLYLINE
  5
1B9
330
17
100
AcDbEntity
  8
ROADS
100
AcDbPolyline
 90
2
 70
0
 10
624524.2132432638
 20
4835159.5302745495
 10
624447.6938033367
 20
4835141.846075739
  0
LWPOLYLINE
  5
1BA
330
17
100
AcDbEntity
  8
ROADS
100
AcDbPolyline
 90
2
 70
0
 10
624386.3951841714
 20
4835174.723737679
 10
624247.6166939463
 20
4835129.920638926
  0
LWPOLYLINE
  5
1BB
330
17
100
AcDbEntity
  8
ROADS
100
AcDbPolyline
 90
2
 70
0
 10
624524.2132432638
 20
4835159.5302745495
 10
624507.7183407772
 20
4835209.70479847
  0
LWPOLYLINE
  5
1BC
330
17
100
AcDbEntity
  8
ROADS
100
AcDbPolyline
 90
2
 70
0
 10
624247.6166939463
 20
4835129.920638926
 10
624207.9730337806
 20
4835254.417597594
  0
LWPOLYLINE
  5
1BD
330
17
100
AcDbEntity
  8
ROADS
100
AcDbPolyline
 90
2
 70
0
 10
624507.7183407772
 20
4835209.70479847
 10
624386.3951841714
 20
4835174.723737679
  0
LWPOLYLINE
  5
1BE
330
17
100
AcDbEntity
  8
ROADS
100
AcDbPolyline
 90
2
 70
0
 10
624103.1362579123
 20
4835081.726324186
 10
624052.8765226617
 20
4835240.93814869
  0
LWPOLYLINE
  5
1BF
330
17
100
AcDbEntity
  8
ROADS
100
AcDbPolyline
 90
2
 70
0
 10
624053.2556808522
 20
4835073.315197017
 10
623978.7955243994
 20
4835292.887677721
  0
LWPOLYLINE
  5
1C0
330
17
100
AcDbEntity
  8
ROADS
100
AcDbPolyline
 90
2
 70
0
 10
624151.1145974308
 20
4835096.728415314
 10
624080.150082362
 20
4835313.729012834
  0
LWPOLYLINE
  5
1C1
330
17
100
AcDbEntity
  8
ROADS
100
AcDbPolyline
 90
2
 70
0
 10
623893.2214671975
 20
4835265.372278564
 10
623773.3380578234
 20
4835246.464115513
  0
LWPOLYLINE
  5
1C2
330
17
100
AcDbEntity
  8
ROADS
100
AcDbPolyline
 90
2
 70
0
 10
623978.7955243994
 20
4835292.887677721
 10
623893.2214671975
 20
4835265.372278564
  0
LWPOLYLINE
  5
1C3
330
17
100
AcDbEntity
  8
ROADS
100
AcDbPolyline
 90
2
 70
0
 10
623893.2214671975
 20
4835265.372278564
 10
623859.0795769806
 20
4835369.1534735
  0
LWPOLYLINE
  5
1C4
330
17
100
AcDbEntity
  8
ROADS
100
AcDbPolyline
 90
3
 70
0
 10
624080.150082362
 20
4835313.729012834
 10
624032.2776520037
 20
4835298.290785222
 10
624018.3228142285
 20
4835339.120657278
  0
LWPOLYLINE
  5
1C5
330
17
100
AcDbEntity
  8
ROADS
100
AcDbPolyline
 90
2
 70
0
 10
623816.1786083758
 20
4835354.812177054
 10
623836.2992425433
 20
4835293.045706535
  0
LWPOLYLINE
  5
1C6
330
17
100
AcDbEntity
  8
ROADS
100
AcDbPolyline
 90
2
 70
0
 10
623779.3129624652
 20
4835328.743382107
 10
623775.9504468838
 20
4835342.2042919565
  0
LWPOLYLINE
  5
1C7
330
17
100
AcDbEntity
  8
ROADS
100
AcDbPolyline
 90
2
 70
0
 10
623978.7955243994
 20
4835292.887677721
 10
623944.5985533198
 20
4835397.667953037
  0
LWPOLYLINE
  5
1C8
330
17
100
AcDbEntity
  8
ROADS
100
AcDbPolyline
 90
2
 70
0
 10
623816.1786083758
 20
4835354.812177054
 10
623775.9504468838
 20
4835342.2042919565
  0
LWPOLYLINE
  5
1C9
330
17
100
AcDbEntity
  8
ROADS
100
AcDbPolyline
 90
2
 70
0
 10
623859.0795769806
 20
4835369.1534735
 10
623816.1786083758
 20
4835354.812177054
  0
LWPOLYLINE
  5
1CA
330
17
100
AcDbEntity
  8
ROADS
100
AcDbPolyline
 90
2
 70
0
 10
624080.150082362
 20
4835313.729012834
 10
624043.7835814962
 20
4835429.428670878
  0
LWPOLYLINE
  5
1CB
330
17
100
AcDbEntity
  8
ROADS
100
AcDbPolyline
 90
2
 70
0
 10
623859.0795769806
 20
4835369.1534735
 10
623846.1947878958
 20
4835412.63880369
  0
LWPOLYLINE
  5
1CC
330
17
100
AcDbEntity
  8
ROADS
100
AcDbPolyline
 90
2
 70
0
 10
623846.1947878958
 20
4835412.63880369
 10
623761.6785555508
 20
4835385.138508063
  0
LWPOLYLINE
  5
1CD
330
17
100
AcDbEntity
  8
ROADS
100
AcDbPolyline
 90
2
 70
0
 10
623907.1018856664
 20
4835371.210715912
 10
623890.5466743797
 20
4835426.712324415
  0
LWPOLYLINE
  5
1CE
330
17
100
AcDbEntity
  8
ROADS
100
AcDbPolyline
 90
2
 70
0
 10
623994.0917535464
 20
4835413.62051807
 10
624001.1755568759
 20
4835393.295513322
  0
LWPOLYLINE
  5
1CF
330
17
100
AcDbEntity
  8
ROADS
100
AcDbPolyline
 90
2
 70
0
 10
623994.0917535464
 20
4835413.62051807
 10
623944.5985533198
 20
4835397.667953037
  0
LWPOLYLINE
  5
1D0
330
17
100
AcDbEntity
  8
ROADS
100
AcDbPolyline
 90
2
 70
0
 10
623944.5985533198
 20
4835397.667953037
 10
623931.68182795
 20
4835439.987655146
  0
LWPOLYLINE
  5
1D1
330
17
100
AcDbEntity
  8
ROADS
100
AcDbPolyline
 90
2
 70
0
 10
623890.5466743797
 20
4835426.712324415
 10
623846.1947878958
 20
4835412.63880369
  0
LWPOLYLINE
  5
1D2
330
17
100
AcDbEntity
  8
ROADS
100
AcDbPolyline
 90
3
 70
0
 10
624212.7972866057
 20
4835390.885042608
 10
624230.207883
 20
4835331.4376328755
 10
624296.7835397555
 20
4835352.396278473
  0
LWPOLYLINE
  5
1D3
330
17
100
AcDbEntity
  8
ROADS
100
AcDbPolyline
 90
2
 70
0
 10
624558.2908450423
 20
4835382.805364805
 10
624419.1827775593
 20
4835339.52428159
  0
LWPOLYLINE
  5
1D4
330
17
100
AcDbEntity
  8
ROADS
100
AcDbPolyline
 90
2
 70
0
 10
624296.7835397555
 20
4835352.396278473
 10
624277.6273075088
 20
4835411.486122645
  0
LWPOLYLINE
  5
1D5
330
17
100
AcDbEntity
  8
ROADS
100
AcDbPolyline
 90
2
 70
0
 10
624212.7972866057
 20
4835390.885042608
 10
624168.8521191792
 20
4835376.659858437
  0
LWPOLYLINE
  5
1D6
330
17
100
AcDbEntity
  8
ROADS
100
AcDbPolyline
 90
2
 70
0
 10
624367.757281623
 20
4835372.755407524
 10
624302.257021588
 20
4835421.08888671
  0
LWPOLYLINE
  5
1D7
330
17
100
AcDbEntity
  8
ROADS
100
AcDbPolyline
 90
2
 70
0
 10
624530.2297691714
 20
4835421.613177856
 10
624367.757281623
 20
4835372.755407524
  0
LWPOLYLINE
  5
1D8
330
17
100
AcDbEntity
  8
ROADS
100
AcDbPolyline
 90
2
 70
0
 10
624257.5325807717
 20
4835405.05051102
 10
624212.7972866057
 20
4835390.885042608
  0
LWPOLYLINE
  5
1D9
330
17
100
AcDbEntity
  8
ROADS
100
AcDbPolyline
 90
2
 70
0
 10
624277.6273075088
 20
4835411.486122645
 10
624257.5325807717
 20
4835405.05051102
  0
LWPOLYLINE
  5
1DA
330
17
100
AcDbEntity
  8
ROADS
100
AcDbPolyline
 90
2
 70
0
 10
624302.257021588
 20
4835421.08888671
 10
624277.6273075088
 20
4835411.486122645
  0
LWPOLYLINE
  5
1DB
330
17
100
AcDbEntity
  8
ROADS
100
AcDbPolyline
 90
2
 70
0
 10
624212.7972866057
 20
4835390.885042608
 10
624194.6083438788
 20
4835452.83800814
  0
LWPOLYLINE
  5
1DC
330
17
100
AcDbEntity
  8
ROADS
100
AcDbPolyline
 90
4
 70
0
 10
623740.7984593506
 20
4835316.159481521
 10
623738.4276021832
 20
4835326.323146615
 10
623709.7584049704
 20
4835316.848387361
 10
623715.5548334409
 20
4835298.531228877
  0
LWPOLYLINE
  5
1DD
330
17
100
AcDbEntity
  8
ROADS
100
AcDbPolyline
 90
2
 70
0
 10
623580.489685063
 20
4835327.142044876
 10
623545.1502780401
 20
4835315.921351999
  0
LWPOLYLINE
  5
1DE
330
17
100
AcDbEntity
  8
ROADS
100
AcDbPolyline
 90
2
 70
0
 10
623779.3129624652
 20
4835328.743382107
 10
623740.7984593506
 20
4835316.159481521
  0
LWPOLYLINE
  5
1DF
330
17
100
AcDbEntity
  8
ROADS
100
AcDbPolyline
 90
2
 70
0
 10
623636.5965389652
 20
4835344.789229593
 10
623580.489685063
 20
4835327.142044876
  0
LWPOLYLINE
  5
1E0
330
17
100
AcDbEntity
  8
ROADS
100
AcDbPolyline
 90
2
 70
0
 10
623692.1753085093
 20
4835362.937899311
 10
623636.5965389652
 20
4835344.789229593
  0
LWPOLYLINE
  5
1E1
330
17
100
AcDbEntity
  8
ROADS
100
AcDbPolyline
 90
2
 70
0
 10
623775.9504468838
 20
4835342.2042919565
 10
623761.6785555508
 20
4835385.138508063
  0
LWPOLYLINE
  5
1E2
330
17
100
AcDbEntity
  8
ROADS
100
AcDbPolyline
 90
2
 70
0
 10
623761.6785555508
 20
4835385.138508063
 10
623692.1753085093
 20
4835362.937899311
  0
LWPOLYLINE
  5
1E3
330
17
100
AcDbEntity
  8
ROADS
100
AcDbPolyline
 90
2
 70
0
 10
623761.6785555508
 20
4835385.138508063
 10
623747.3520552396
 20
4835426.031627984
  0
LWPOLYLINE
  5
1E4
330
17
100
AcDbEntity
  8
ROADS
100
AcDbPolyline
 90
2
 70
0
 10
624043.7835814962
 20
4835429.428670878
 10
623994.0917535464
 20
4835413.62051807
  0
LWPOLYLINE
  5
1E5
330
17
100
AcDbEntity
  8
ROADS
100
AcDbPolyline
 90
2
 70
0
 10
623846.1947878958
 20
4835412.63880369
 10
623831.2569328404
 20
4835453.1898630345
  0
LWPOLYLINE
  5
1E6
330
17
100
AcDbEntity
  8
ROADS
100
AcDbPolyline
 90
2
 70
0
 10
623931.68182795
 20
4835439.987655146
 10
623890.5466743797
 20
4835426.712324415
  0
LWPOLYLINE
  5
1E7
330
17
100
AcDbEntity
  8
ROADS
100
AcDbPolyline
 90
2
 70
0
 10
623831.2569328404
 20
4835453.1898630345
 10
623791.4488101968
 20
4835440.304544642
  0
LWPOLYLINE
  5
1E8
330
17
100
AcDbEntity
  8
ROADS
100
AcDbPolyline
 90
2
 70
0
 10
624043.7835814962
 20
4835429.428670878
 10
624030.2450538533
 20
4835471.016104998
  0
LWPOLYLINE
  5
1E9
330
17
100
AcDbEntity
  8
ROADS
100
AcDbPolyline
 90
2
 70
0
 10
624030.2450538533
 20
4835471.016104998
 10
623931.68182795
 20
4835439.987655146
  0
LWPOLYLINE
  5
1EA
330
17
100
AcDbEntity
  8
ROADS
100
AcDbPolyline
 90
2
 70
0
 10
623831.2569328404
 20
4835453.1898630345
 10
623873.9044626004
 20
4835467.554592261
  0
LWPOLYLINE
  5
1EB
330
17
100
AcDbEntity
  8
ROADS
100
AcDbPolyline
 90
2
 70
0
 10
623931.68182795
 20
4835439.987655146
 10
623915.6562480087
 20
4835486.106850062
  0
LWPOLYLINE
  5
1EC
330
17
100
AcDbEntity
  8
ROADS
100
AcDbPolyline
 90
2
 70
0
 10
624082.1463351356
 20
4835487.414241707
 10
624030.2450538533
 20
4835471.016104998
  0
LWPOLYLINE
  5
1ED
330
17
100
AcDbEntity
  8
ROADS
100
AcDbPolyline
 90
2
 70
0
 10
624030.2450538533
 20
4835471.016104998
 10
624024.5291838261
 20
4835487.697648445
  0
LWPOLYLINE
  5
1EE
330
17
100
AcDbEntity
  8
ROADS
100
AcDbPolyline
 90
2
 70
0
 10
624257.5325807717
 20
4835405.05051102
 10
624237.4103656653
 20
4835467.621067175
  0
LWPOLYLINE
  5
1EF
330
17
100
AcDbEntity
  8
ROADS
100
AcDbPolyline
 90
2
 70
0
 10
624168.8521191792
 20
4835376.659858437
 10
624128.5866219181
 20
4835502.579593678
  0
LWPOLYLINE
  5
1F0
330
17
100
AcDbEntity
  8
ROADS
100
AcDbPolyline
 90
2
 70
0
 10
624237.4103656653
 20
4835467.621067175
 10
624194.6083438788
 20
4835452.83800814
  0
LWPOLYLINE
  5
1F1
330
17
100
AcDbEntity
  8
ROADS
100
AcDbPolyline
 90
2
 70
0
 10
624502.837101442
 20
4835534.689070198
 10
624302.257021588
 20
4835421.08888671
  0
LWPOLYLINE
  5
1F2
330
17
100
AcDbEntity
  8
ROADS
100
AcDbPolyline
 90
2
 70
0
 10
624302.257021588
 20
4835421.08888671
 10
624263.5084032221
 20
4835545.9670343315
  0
LWPOLYLINE
  5
1F3
330
17
100
AcDbEntity
  8
ROADS
100
AcDbPolyline
 90
2
 70
0
 10
624194.6083438788
 20
4835452.83800814
 10
624174.0780229629
 20
4835516.961754181
  0
LWPOLYLINE
  5
1F4
330
17
100
AcDbEntity
  8
ROADS
100
AcDbPolyline
 90
2
 70
0
 10
624575.3001361835
 20
4835436.275747337
 10
624502.837101442
 20
4835534.689070198
  0
LWPOLYLINE
  5
1F5
330
17
100
AcDbEntity
  8
ROADS
100
AcDbPolyline
 90
2
 70
0
 10
624237.4103656653
 20
4835467.621067175
 10
624218.0197555901
 20
4835530.712869775
  0
LWPOLYLINE
  5
1F6
330
17
100
AcDbEntity
  8
ROADS
100
AcDbPolyline
 90
2
 70
0
 10
624174.0780229629
 20
4835516.961754181
 10
624128.5866219181
 20
4835502.579593678
  0
LWPOLYLINE
  5
1F7
330
17
100
AcDbEntity
  8
ROADS
100
AcDbPolyline
 90
2
 70
0
 10
624218.0197555901
 20
4835530.712869775
 10
624174.0780229629
 20
4835516.961754181
  0
LWPOLYLINE
  5
1F8
330
17
100
AcDbEntity
  8
ROADS
100
AcDbPolyline
 90
2
 70
0
 10
623580.489685063
 20
4835327.142044876
 10
623574.273548785
 20
4835346.939174977
  0
LWPOLYLINE
  5
1F9
330
17
100
AcDbEntity
  8
ROADS
100
AcDbPolyline
 90
2
 70
0
 10
623791.4488101968
 20
4835440.304544642
 10
623747.3520552396
 20
4835426.031627984
  0
LWPOLYLINE
  5
1FA
330
17
100
AcDbEntity
  8
ROADS
100
AcDbPolyline
 90
2
 70
0
 10
623636.5965389652
 20
4835344.789229593
 10
623621.3273356772
 20
4835390.983662411
  0
LWPOLYLINE
  5
1FB
330
17
100
AcDbEntity
  8
ROADS
100
AcDbPolyline
 90
2
 70
0
 10
623692.1753085093
 20
4835362.937899311
 10
623670.0681109497
 20
4835428.418156037
  0
LWPOLYLINE
  5
1FC
330
17
100
AcDbEntity
  8
ROADS
100
AcDbPolyline
 90
2
 70
0
 10
623747.3520552396
 20
4835426.031627984
 10
623733.0087872851
 20
4835469.48089778
  0
LWPOLYLINE
  5
1FD
330
17
100
AcDbEntity
  8
ROADS
100
AcDbPolyline
 90
2
 70
0
 10
623791.4488101968
 20
4835440.304544642
 10
623774.7815641694
 20
4835492.285493917
  0
LWPOLYLINE
  5
1FE
330
17
100
AcDbEntity
  8
ROADS
100
AcDbPolyline
 90
2
 70
0
 10
624128.5866219181
 20
4835502.579593678
 10
624082.1463351356
 20
4835487.414241707
  0
LWPOLYLINE
  5
1FF
330
17
100
AcDbEntity
  8
ROADS
100
AcDbPolyline
 90
2
 70
0
 10
624024.5291838261
 20
4835487.697648445
 10
624014.723950173
 20
4835518.880023621
  0
LWPOLYLINE
  5
200
330
17
100
AcDbEntity
  8
ROADS
100
AcDbPolyline
 90
2
 70
0
 10
623915.6562480087
 20
4835486.106850062
 10
623967.901268805
 20
4835528.960081549
  0
LWPOLYLINE
  5
201
330
17
100
AcDbEntity
  8
ROADS
100
AcDbPolyline
 90
2
 70
0
 10
624024.5291838261
 20
4835487.697648445
 10
623967.901268805
 20
4835528.960081549
  0
LWPOLYLINE
  5
202
330
17
100
AcDbEntity
  8
ROADS
100
AcDbPolyline
 90
2
 70
0
 10
624082.1463351356
 20
4835487.414241707
 10
624066.3454807948
 20
4835535.761135044
  0
LWPOLYLINE
  5
203
330
17
100
AcDbEntity
  8
ROADS
100
AcDbPolyline
 90
2
 70
0
 10
624066.3454807948
 20
4835535.761135044
 10
624014.723950173
 20
4835518.880023621
  0
LWPOLYLINE
  5
204
330
17
100
AcDbEntity
  8
ROADS
100
AcDbPolyline
 90
2
 70
0
 10
623915.6562480087
 20
4835486.106850062
 10
623896.8531150289
 20
4835543.404187147
  0
LWPOLYLINE
  5
205
330
17
100
AcDbEntity
  8
ROADS
100
AcDbPolyline
 90
2
 70
0
 10
623967.901268805
 20
4835528.960081549
 10
623937.1672528274
 20
4835556.294496142
  0
LWPOLYLINE
  5
206
330
17
100
AcDbEntity
  8
ROADS
100
AcDbPolyline
 90
2
 70
0
 10
624014.723950173
 20
4835518.880023621
 10
623996.5523071605
 20
4835575.633546756
  0
LWPOLYLINE
  5
207
330
17
100
AcDbEntity
  8
ROADS
100
AcDbPolyline
 90
2
 70
0
 10
625274.1599475702
 20
4835173.004871751
 10
625264.4091180557
 20
4835204.441369939
  0
LWPOLYLINE
  5
208
330
17
100
AcDbEntity
  8
ROADS
100
AcDbPolyline
 90
3
 70
0
 10
625533.1516034526
 20
4835200.246906711
 10
625394.3741986006
 20
4835157.821137245
 10
625363.7026258248
 20
4835228.398669021
  0
LWPOLYLINE
  5
209
330
17
100
AcDbEntity
  8
ROADS
100
AcDbPolyline
 90
2
 70
0
 10
625264.4091180557
 20
4835204.441369939
 10
625287.7315385696
 20
4835196.137506917
  0
LWPOLYLINE
  5
20A
330
17
100
AcDbEntity
  8
ROADS
100
AcDbPolyline
 90
2
 70
0
 10
625264.4091180557
 20
4835204.441369939
 10
625237.6841951867
 20
4835280.084499278
  0
LWPOLYLINE
  5
20B
330
17
100
AcDbEntity
  8
ROADS
100
AcDbPolyline
 90
2
 70
0
 10
625472.2291967868
 20
4835263.612529742
 10
625363.7026258248
 20
4835228.398669021
  0
LWPOLYLINE
  5
20C
330
17
100
AcDbEntity
  8
ROADS
100
AcDbPolyline
 90
2
 70
0
 10
625472.2291967868
 20
4835263.612529742
 10
625483.0210782135
 20
4835232.840870754
  0
LWPOLYLINE
  5
20D
330
17
100
AcDbEntity
  8
ROADS
100
AcDbPolyline
 90
2
 70
0
 10
625231.7801047198
 20
4835486.01531156
 10
625368.0997147867
 20
4835044.80379317
  0
LWPOLYLINE
  5
20E
330
17
100
AcDbEntity
  8
ROADS
100
AcDbPolyline
 90
2
 70
0
 10
625363.7026258248
 20
4835228.398669021
 10
625339.0427050589
 20
4835311.570573456
  0
LWPOLYLINE
  5
20F
330
17
100
AcDbEntity
  8
ROADS
100
AcDbPolyline
 90
2
 70
0
 10
625237.6841951867
 20
4835280.084499278
 10
625203.5044814509
 20
4835269.563029632
  0
LWPOLYLINE
  5
210
330
17
100
AcDbEntity
  8
ROADS
100
AcDbPolyline
 90
2
 70
0
 10
625237.6841951867
 20
4835280.084499278
 10
625229.2224885469
 20
4835306.871034638
  0
LWPOLYLINE
  5
211
330
17
100
AcDbEntity
  8
ROADS
100
AcDbPolyline
 90
2
 70
0
 10
625508.082200596
 20
4835274.381835704
 10
625472.2291967868
 20
4835263.612529742
  0
LWPOLYLINE
  5
212
330
17
100
AcDbEntity
  8
ROADS
100
AcDbPolyline
 90
2
 70
0
 10
624552.1615522762
 20
4835223.599959716
 10
624507.7183407772
 20
4835209.70479847
  0
LWPOLYLINE
  5
213
330
17
100
AcDbEntity
  8
ROADS
100
AcDbPolyline
 90
3
 70
0
 10
624386.3951841714
 20
4835174.723737679
 10
624370.3917281411
 20
4835226.258196952
 10
624381.4269803958
 20
4835274.735278757
  0
LWPOLYLINE
  5
214
330
17
100
AcDbEntity
  8
ROADS
100
AcDbPolyline
 90
2
 70
0
 10
624615.8934280314
 20
4835296.817027943
 10
624433.66024949
 20
4835243.2888347795
  0
LWPOLYLINE
  5
215
330
17
100
AcDbEntity
  8
ROADS
100
AcDbPolyline
 90
2
 70
0
 10
624339.9700025953
 20
4835297.015032227
 10
624207.9730337806
 20
4835254.417597594
  0
LWPOLYLINE
  5
216
330
17
100
AcDbEntity
  8
ROADS
100
AcDbPolyline
 90
2
 70
0
 10
624381.4269803958
 20
4835274.735278757
 10
624380.8751015163
 20
4835309.798178621
  0
LWPOLYLINE
  5
217
330
17
100
AcDbEntity
  8
ROADS
100
AcDbPolyline
 90
2
 70
0
 10
624380.8751015163
 20
4835309.798178621
 10
624339.9700025953
 20
4835297.015032227
  0
LWPOLYLINE
  5
218
330
17
100
AcDbEntity
  8
ROADS
100
AcDbPolyline
 90
2
 70
0
 10
624590.3367768377
 20
4835339.481337559
 10
624381.4269803958
 20
4835274.735278757
  0
LWPOLYLINE
  5
219
330
17
100
AcDbEntity
  8
ROADS
100
AcDbPolyline
 90
2
 70
0
 10
624207.9730337806
 20
4835254.417597594
 10
624168.8521191792
 20
4835376.659858437
  0
LWPOLYLINE
  5
21A
330
17
100
AcDbEntity
  8
ROADS
100
AcDbPolyline
 90
3
 70
0
 10
624296.7835397555
 20
4835352.396278473
 10
624323.3702824813
 20
4835352.488909934
 10
624339.9700025953
 20
4835297.015032227
  0
LWPOLYLINE
  5
21B
330
17
100
AcDbEntity
  8
ROADS
100
AcDbPolyline
 90
2
 70
0
 10
624380.8751015163
 20
4835309.798178621
 10
624367.757281623
 20
4835372.755407524
  0
LWPOLYLINE
  5
21C
330
17
100
AcDbEntity
  8
ROADS
100
AcDbPolyline
 90
2
 70
0
 10
625203.5044814509
 20
4835269.563029632
 10
625160.0963096297
 20
4835257.047124615
  0
LWPOLYLINE
  5
21D
330
17
100
AcDbEntity
  8
ROADS
100
AcDbPolyline
 90
2
 70
0
 10
624937.9935791295
 20
4835210.381020288
 10
624899.0633703743
 20
4835334.296092628
  0
LWPOLYLINE
  5
21E
330
17
100
AcDbEntity
  8
ROADS
100
AcDbPolyline
 90
2
 70
0
 10
624985.2843005129
 20
4835225.8087583715
 10
624930.7540815948
 20
4835393.874270424
  0
LWPOLYLINE
  5
21F
330
17
100
AcDbEntity
  8
ROADS
100
AcDbPolyline
 90
2
 70
0
 10
625032.8956498886
 20
4835240.539258124
 10
624980.0359476928
 20
4835409.023014283
  0
LWPOLYLINE
  5
220
330
17
100
AcDbEntity
  8
ROADS
100
AcDbPolyline
 90
2
 70
0
 10
625077.6176715066
 20
4835253.730444995
 10
625027.3693589146
 20
4835422.642453775
  0
LWPOLYLINE
  5
221
330
17
100
AcDbEntity
  8
ROADS
100
AcDbPolyline
 90
3
 70
0
 10
625191.9708050053
 20
4835424.23118189
 10
625158.5334314016
 20
4835413.417102409
 10
625203.5044814509
 20
4835269.563029632
  0
LWPOLYLINE
  5
222
330
17
100
AcDbEntity
  8
ROADS
100
AcDbPolyline
 90
2
 70
0
 10
625160.0963096297
 20
4835257.047124615
 10
625103.2624575401
 20
4835446.04774058
  0
LWPOLYLINE
  5
223
330
17
100
AcDbEntity
  8
ROADS
100
AcDbPolyline
 90
2
 70
0
 10
624930.7540815948
 20
4835393.874270424
 10
624880.7449301974
 20
4835378.020344461
  0
LWPOLYLINE
  5
224
330
17
100
AcDbEntity
  8
ROADS
100
AcDbPolyline
 90
2
 70
0
 10
624980.0359476928
 20
4835409.023014283
 10
624930.7540815948
 20
4835393.874270424
  0
LWPOLYLINE
  5
225
330
17
100
AcDbEntity
  8
ROADS
100
AcDbPolyline
 90
2
 70
0
 10
625027.3693589146
 20
4835422.642453775
 10
624980.0359476928
 20
4835409.023014283
  0
LWPOLYLINE
  5
226
330
17
100
AcDbEntity
  8
ROADS
100
AcDbPolyline
 90
4
 70
0
 10
624699.4418255724
 20
4835329.296142464
 10
624671.384014216
 20
4835318.580342172
 10
624683.6018986232
 20
4835298.1561002275
 10
624663.2531959256
 20
4835315.116168531
  0
LWPOLYLINE
  5
227
330
17
100
AcDbEntity
  8
ROADS
100
AcDbPolyline
 90
2
 70
0
 10
624615.8934280314
 20
4835296.817027943
 10
624601.154054893
 20
4835342.762065963
  0
LWPOLYLINE
  5
228
330
17
100
AcDbEntity
  8
ROADS
100
AcDbPolyline
 90
2
 70
0
 10
624699.4418255724
 20
4835329.296142464
 10
624722.0684233408
 20
4835332.041826457
  0
LWPOLYLINE
  5
229
330
17
100
AcDbEntity
  8
ROADS
100
AcDbPolyline
 90
2
 70
0
 10
624663.2531959256
 20
4835315.116168531
 10
624636.1513514603
 20
4835353.969342505
  0
LWPOLYLINE
  5
22A
330
17
100
AcDbEntity
  8
ROADS
100
AcDbPolyline
 90
2
 70
0
 10
624742.8882835356
 20
4835338.418547577
 10
624722.0684233408
 20
4835332.041826457
  0
LWPOLYLINE
  5
22B
330
17
100
AcDbEntity
  8
ROADS
100
AcDbPolyline
 90
2
 70
0
 10
624601.154054893
 20
4835342.762065963
 10
624590.3367768377
 20
4835339.481337559
  0
LWPOLYLINE
  5
22C
330
17
100
AcDbEntity
  8
ROADS
100
AcDbPolyline
 90
2
 70
0
 10
624636.1513514603
 20
4835353.969342505
 10
624601.154054893
 20
4835342.762065963
  0
LWPOLYLINE
  5
22D
330
17
100
AcDbEntity
  8
ROADS
100
AcDbPolyline
 90
2
 70
0
 10
624821.5877006121
 20
4835359.266888088
 10
624742.8882835356
 20
4835338.418547577
  0
LWPOLYLINE
  5
22E
330
17
100
AcDbEntity
  8
ROADS
100
AcDbPolyline
 90
2
 70
0
 10
624590.3367768377
 20
4835339.481337559
 10
624558.2908450423
 20
4835382.805364805
  0
LWPOLYLINE
  5
22F
330
17
100
AcDbEntity
  8
ROADS
100
AcDbPolyline
 90
2
 70
0
 10
624880.7449301974
 20
4835378.020344461
 10
624821.5877006121
 20
4835359.266888088
  0
LWPOLYLINE
  5
230
330
17
100
AcDbEntity
  8
ROADS
100
AcDbPolyline
 90
2
 70
0
 10
624696.915066702
 20
4835420.492431363
 10
624742.8882835356
 20
4835338.418547577
  0
LWPOLYLINE
  5
231
330
17
100
AcDbEntity
  8
ROADS
100
AcDbPolyline
 90
2
 70
0
 10
624636.1513514603
 20
4835353.969342505
 10
624575.3001361835
 20
4835436.275747337
  0
LWPOLYLINE
  5
232
330
17
100
AcDbEntity
  8
ROADS
100
AcDbPolyline
 90
2
 70
0
 10
624722.0684233408
 20
4835332.041826457
 10
624623.9212671901
 20
4835472.120660331
  0
LWPOLYLINE
  5
233
330
17
100
AcDbEntity
  8
ROADS
100
AcDbPolyline
 90
2
 70
0
 10
624558.2908450423
 20
4835382.805364805
 10
624530.2297691714
 20
4835421.613177856
  0
LWPOLYLINE
  5
234
330
17
100
AcDbEntity
  8
ROADS
100
AcDbPolyline
 90
2
 70
0
 10
624880.7449301974
 20
4835378.020344461
 10
624853.6434139792
 20
4835469.07241218
  0
LWPOLYLINE
  5
235
330
17
100
AcDbEntity
  8
ROADS
100
AcDbPolyline
 90
2
 70
0
 10
624575.3001361835
 20
4835436.275747337
 10
624530.2297691714
 20
4835421.613177856
  0
LWPOLYLINE
  5
236
330
17
100
AcDbEntity
  8
ROADS
100
AcDbPolyline
 90
2
 70
0
 10
624853.6434139792
 20
4835469.07241218
 10
624696.915066702
 20
4835420.492431363
  0
LWPOLYLINE
  5
237
330
17
100
AcDbEntity
  8
ROADS
100
AcDbPolyline
 90
2
 70
0
 10
624651.9469983656
 20
4835502.670969781
 10
624696.915066702
 20
4835420.492431363
  0
LWPOLYLINE
  5
238
330
17
100
AcDbEntity
  8
ROADS
100
AcDbPolyline
 90
2
 70
0
 10
624902.8128507204
 20
4835484.133126486
 10
624853.6434139792
 20
4835469.07241218
  0
LWPOLYLINE
  5
239
330
17
100
AcDbEntity
  8
ROADS
100
AcDbPolyline
 90
2
 70
0
 10
624651.9469983656
 20
4835502.670969781
 10
624623.9212671901
 20
4835472.120660331
  0
LWPOLYLINE
  5
23A
330
17
100
AcDbEntity
  8
ROADS
100
AcDbPolyline
 90
2
 70
0
 10
625339.0427050589
 20
4835311.570573456
 10
625297.4363621634
 20
4835299.400750194
  0
LWPOLYLINE
  5
23B
330
17
100
AcDbEntity
  8
ROADS
100
AcDbPolyline
 90
2
 70
0
 10
625265.4690729964
 20
4835318.235920125
 10
625269.9782012757
 20
4835301.979521003
  0
LWPOLYLINE
  5
23C
330
17
100
AcDbEntity
  8
ROADS
100
AcDbPolyline
 90
2
 70
0
 10
625229.2224885469
 20
4835306.871034638
 10
625265.4690729964
 20
4835318.235920125
  0
LWPOLYLINE
  5
23D
330
17
100
AcDbEntity
  8
ROADS
100
AcDbPolyline
 90
2
 70
0
 10
625471.97698913
 20
4835353.721508846
 10
625339.0427050589
 20
4835311.570573456
  0
LWPOLYLINE
  5
23E
330
17
100
AcDbEntity
  8
ROADS
100
AcDbPolyline
 90
2
 70
0
 10
625229.2224885469
 20
4835306.871034638
 10
625191.9708050053
 20
4835424.23118189
  0
LWPOLYLINE
  5
23F
330
17
100
AcDbEntity
  8
ROADS
100
AcDbPolyline
 90
2
 70
0
 10
625223.1244924382
 20
4835452.334948015
 10
625265.4690729964
 20
4835318.235920125
  0
LWPOLYLINE
  5
240
330
17
100
AcDbEntity
  8
ROADS
100
AcDbPolyline
 90
2
 70
0
 10
625191.9708050053
 20
4835424.23118189
 10
625186.2199114425
 20
4835442.351231398
  0
LWPOLYLINE
  5
241
330
17
100
AcDbEntity
  8
ROADS
100
AcDbPolyline
 90
2
 70
0
 10
625186.2199114425
 20
4835442.351231398
 10
625223.1244924382
 20
4835452.334948015
  0
LWPOLYLINE
  5
242
330
17
100
AcDbEntity
  8
ROADS
100
AcDbPolyline
 90
2
 70
0
 10
625223.1244924382
 20
4835452.334948015
 10
625217.6152657465
 20
4835469.644322202
  0
LWPOLYLINE
  5
243
330
17
100
AcDbEntity
  8
ROADS
100
AcDbPolyline
 90
2
 70
0
 10
625231.7801047198
 20
4835486.01531156
 10
625178.3783211893
 20
4835469.021962751
  0
LWPOLYLINE
  5
244
330
17
100
AcDbEntity
  8
ROADS
100
AcDbPolyline
 90
2
 70
0
 10
625305.2907060869
 20
4835508.917526884
 10
625231.7801047198
 20
4835486.01531156
  0
LWPOLYLINE
  5
245
330
17
100
AcDbEntity
  8
ROADS
100
AcDbPolyline
 90
3
 70
0
 10
625382.6732676248
 20
4835488.714956385
 10
625315.0248596714
 20
4835466.595118785
 10
625305.2907060869
 20
4835508.917526884
  0
LWPOLYLINE
  5
246
330
17
100
AcDbEntity
  8
ROADS
100
AcDbPolyline
 90
2
 70
0
 10
625351.838838282
 20
4835523.320042376
 10
625305.2907060869
 20
4835508.917526884
  0
LWPOLYLINE
  5
247
330
17
100
AcDbEntity
  8
ROADS
100
AcDbPolyline
 90
2
 70
0
 10
625305.2907060869
 20
4835508.917526884
 10
625297.1178188995
 20
4835550.234100926
  0
LWPOLYLINE
  5
248
330
17
100
AcDbEntity
  8
ROADS
100
AcDbPolyline
 90
2
 70
0
 10
625319.7502494056
 20
4835557.17245812
 10
625297.1178188995
 20
4835550.234100926
  0
LWPOLYLINE
  5
249
330
17
100
AcDbEntity
  8
ROADS
100
AcDbPolyline
 90
4
 70
0
 10
624309.2789669082
 20
4835560.397255541
 10
624326.0823971308
 20
4835508.869283104
 10
624446.0522858639
 20
4835552.874479346
 10
624455.0169333677
 20
4835535.717622445
  0
LWPOLYLINE
  5
24A
330
17
100
AcDbEntity
  8
ROADS
100
AcDbPolyline
 90
2
 70
0
 10
624263.5084032221
 20
4835545.9670343315
 10
624218.0197555901
 20
4835530.712869775
  0
LWPOLYLINE
  5
24B
330
17
100
AcDbEntity
  8
ROADS
100
AcDbPolyline
 90
2
 70
0
 10
624416.4872877286
 20
4835710.786657049
 10
624699.4418255724
 20
4835329.296142464
  0
LWPOLYLINE
  5
24C
330
17
100
AcDbEntity
  8
ROADS
100
AcDbPolyline
 90
2
 70
0
 10
624309.2789669082
 20
4835560.397255541
 10
624263.5084032221
 20
4835545.9670343315
  0
LWPOLYLINE
  5
24D
330
17
100
AcDbEntity
  8
ROADS
100
AcDbPolyline
 90
2
 70
0
 10
624502.837101442
 20
4835534.689070198
 10
624450.8557648561
 20
4835605.024120375
  0
LWPOLYLINE
  5
24E
330
17
100
AcDbEntity
  8
ROADS
100
AcDbPolyline
 90
2
 70
0
 10
624450.8557648561
 20
4835605.024120375
 10
624309.2789669082
 20
4835560.397255541
  0
LWPOLYLINE
  5
24F
330
17
100
AcDbEntity
  8
ROADS
100
AcDbPolyline
 90
2
 70
0
 10
624450.8557648561
 20
4835605.024120375
 10
624431.0598927333
 20
4835628.57750666
  0
LWPOLYLINE
  5
250
330
17
100
AcDbEntity
  8
ROADS
100
AcDbPolyline
 90
2
 70
0
 10
624623.9212671901
 20
4835472.120660331
 10
624435.628526223
 20
4835716.813388348
  0
LWPOLYLINE
  5
251
330
17
100
AcDbEntity
  8
ROADS
100
AcDbPolyline
 90
2
 70
0
 10
624263.5084032221
 20
4835545.9670343315
 10
624232.2626606056
 20
4835644.212586706
  0
LWPOLYLINE
  5
252
330
17
100
AcDbEntity
  8
ROADS
100
AcDbPolyline
 90
3
 70
0
 10
624375.0637038699
 20
4835671.12445692
 10
624327.9566761429
 20
4835650.022700389
 10
624289.4196205194
 20
4835609.919869925
  0
LWPOLYLINE
  5
253
330
17
100
AcDbEntity
  8
ROADS
100
AcDbPolyline
 90
2
 70
0
 10
625074.4606319176
 20
4835437.043563117
 10
625027.3693589146
 20
4835422.642453775
  0
LWPOLYLINE
  5
254
330
17
100
AcDbEntity
  8
ROADS
100
AcDbPolyline
 90
2
 70
0
 10
624930.7540815948
 20
4835393.874270424
 10
624902.8128507204
 20
4835484.133126486
  0
LWPOLYLINE
  5
255
330
17
100
AcDbEntity
  8
ROADS
100
AcDbPolyline
 90
2
 70
0
 10
625103.2624575401
 20
4835446.04774058
 10
625074.4606319176
 20
4835437.043563117
  0
LWPOLYLINE
  5
256
330
17
100
AcDbEntity
  8
ROADS
100
AcDbPolyline
 90
2
 70
0
 10
625121.2030642544
 20
4835451.656381864
 10
625103.2624575401
 20
4835446.04774058
  0
LWPOLYLINE
  5
257
330
17
100
AcDbEntity
  8
ROADS
100
AcDbPolyline
 90
2
 70
0
 10
625186.2199114425
 20
4835442.351231398
 10
625178.3783211893
 20
4835469.021962751
  0
LWPOLYLINE
  5
258
330
17
100
AcDbEntity
  8
ROADS
100
AcDbPolyline
 90
2
 70
0
 10
625178.3783211893
 20
4835469.021962751
 10
625121.2030642544
 20
4835451.656381864
  0
LWPOLYLINE
  5
259
330
17
100
AcDbEntity
  8
ROADS
100
AcDbPolyline
 90
2
 70
0
 10
625121.2030642544
 20
4835451.656381864
 10
625090.2276578436
 20
4835549.270841645
  0
LWPOLYLINE
  5
25A
330
17
100
AcDbEntity
  8
ROADS
100
AcDbPolyline
 90
2
 70
0
 10
624902.8128507204
 20
4835484.133126486
 10
624872.9861144252
 20
4835577.234037458
  0
LWPOLYLINE
  5
25B
330
17
100
AcDbEntity
  8
ROADS
100
AcDbPolyline
 90
2
 70
0
 10
624980.0359476928
 20
4835409.023014283
 10
624885.4954254068
 20
4835698.669867993
  0
LWPOLYLINE
  5
25C
330
17
100
AcDbEntity
  8
ROADS
100
AcDbPolyline
 90
2
 70
0
 10
625027.3693589146
 20
4835422.642453775
 10
624933.0543189688
 20
4835713.589493062
  0
LWPOLYLINE
  5
25D
330
17
100
AcDbEntity
  8
ROADS
100
AcDbPolyline
 90
2
 70
0
 10
624732.4463712112
 20
4835532.541875946
 10
624651.9469983656
 20
4835502.670969781
  0
LWPOLYLINE
  5
25E
330
17
100
AcDbEntity
  8
ROADS
100
AcDbPolyline
 90
2
 70
0
 10
624651.9469983656
 20
4835502.670969781
 10
624602.1911051117
 20
4835573.872335614
  0
LWPOLYLINE
  5
25F
330
17
100
AcDbEntity
  8
ROADS
100
AcDbPolyline
 90
2
 70
0
 10
624872.9861144252
 20
4835577.234037458
 10
624732.4463712112
 20
4835532.541875946
  0
LWPOLYLINE
  5
260
330
17
100
AcDbEntity
  8
ROADS
100
AcDbPolyline
 90
2
 70
0
 10
624732.4463712112
 20
4835532.541875946
 10
624707.7811339523
 20
4835608.096091004
  0
LWPOLYLINE
  5
261
330
17
100
AcDbEntity
  8
ROADS
100
AcDbPolyline
 90
2
 70
0
 10
624654.8259530792
 20
4835591.628850166
 10
624660.9383067406
 20
4835571.880277948
  0
LWPOLYLINE
  5
262
330
17
100
AcDbEntity
  8
ROADS
100
AcDbPolyline
 90
2
 70
0
 10
624654.8259530792
 20
4835591.628850166
 10
624602.1911051117
 20
4835573.872335614
  0
LWPOLYLINE
  5
263
330
17
100
AcDbEntity
  8
ROADS
100
AcDbPolyline
 90
2
 70
0
 10
624707.7811339523
 20
4835608.096091004
 10
624654.8259530792
 20
4835591.628850166
  0
LWPOLYLINE
  5
264
330
17
100
AcDbEntity
  8
ROADS
100
AcDbPolyline
 90
2
 70
0
 10
624602.1911051117
 20
4835573.872335614
 10
624582.1293726418
 20
4835636.856062549
  0
LWPOLYLINE
  5
265
330
17
100
AcDbEntity
  8
ROADS
100
AcDbPolyline
 90
2
 70
0
 10
624707.7811339523
 20
4835608.096091004
 10
624697.4114986904
 20
4835641.78645969
  0
LWPOLYLINE
  5
266
330
17
100
AcDbEntity
  8
ROADS
100
AcDbPolyline
 90
2
 70
0
 10
624582.1293726418
 20
4835636.856062549
 10
624519.2368637252
 20
4835616.948985792
  0
LWPOLYLINE
  5
267
330
17
100
AcDbEntity
  8
ROADS
100
AcDbPolyline
 90
2
 70
0
 10
624872.9861144252
 20
4835577.234037458
 10
624837.7836999506
 20
4835684.570529067
  0
LWPOLYLINE
  5
268
330
17
100
AcDbEntity
  8
ROADS
100
AcDbPolyline
 90
3
 70
0
 10
624697.4114986904
 20
4835641.78645969
 10
624740.8424184229
 20
4835654.3123102505
 10
624742.7599508777
 20
4835668.393745477
  0
LWPOLYLINE
  5
269
330
17
100
AcDbEntity
  8
ROADS
100
AcDbPolyline
 90
2
 70
0
 10
624582.1293726418
 20
4835636.856062549
 10
624563.9330661069
 20
4835692.575113729
  0
LWPOLYLINE
  5
26A
330
17
100
AcDbEntity
  8
ROADS
100
AcDbPolyline
 90
2
 70
0
 10
624823.8201594241
 20
4835693.463575098
 10
624742.7599508777
 20
4835668.393745477
  0
LWPOLYLINE
  5
26B
330
17
100
AcDbEntity
  8
ROADS
100
AcDbPolyline
 90
2
 70
0
 10
624654.8259530792
 20
4835591.628850166
 10
624599.4897379323
 20
4835764.403659105
  0
LWPOLYLINE
  5
26C
330
17
100
AcDbEntity
  8
ROADS
100
AcDbPolyline
 90
2
 70
0
 10
624563.9330661069
 20
4835692.575113729
 10
624526.2423301111
 20
4835681.385111204
  0
LWPOLYLINE
  5
26D
330
17
100
AcDbEntity
  8
ROADS
100
AcDbPolyline
 90
2
 70
0
 10
624837.7836999506
 20
4835684.570529067
 10
624823.8201594241
 20
4835693.463575098
  0
LWPOLYLINE
  5
26E
330
17
100
AcDbEntity
  8
ROADS
100
AcDbPolyline
 90
2
 70
0
 10
624697.4114986904
 20
4835641.78645969
 10
624667.1810932616
 20
4835736.581094482
  0
LWPOLYLINE
  5
26F
330
17
100
AcDbEntity
  8
ROADS
100
AcDbPolyline
 90
2
 70
0
 10
624885.4954254068
 20
4835698.669867993
 10
624837.7836999506
 20
4835684.570529067
  0
LWPOLYLINE
  5
270
330
17
100
AcDbEntity
  8
ROADS
100
AcDbPolyline
 90
2
 70
0
 10
624742.7599508777
 20
4835668.393745477
 10
624733.461110252
 20
4835734.899265799
  0
LWPOLYLINE
  5
271
330
17
100
AcDbEntity
  8
ROADS
100
AcDbPolyline
 90
2
 70
0
 10
623967.901268805
 20
4835528.960081549
 10
623986.0705662793
 20
4835571.588025159
  0
LWPOLYLINE
  5
272
330
17
100
AcDbEntity
  8
ROADS
100
AcDbPolyline
 90
2
 70
0
 10
623831.2569328404
 20
4835453.1898630345
 10
623812.092110203
 20
4835510.656380234
  0
LWPOLYLINE
  5
273
330
17
100
AcDbEntity
  8
ROADS
100
AcDbPolyline
 90
2
 70
0
 10
624066.3454807948
 20
4835535.761135044
 10
624047.757262943
 20
4835594.551312928
  0
LWPOLYLINE
  5
274
330
17
100
AcDbEntity
  8
ROADS
100
AcDbPolyline
 90
2
 70
0
 10
624128.5866219181
 20
4835502.579593678
 10
624094.1603076794
 20
4835608.666833906
  0
LWPOLYLINE
  5
275
330
17
100
AcDbEntity
  8
ROADS
100
AcDbPolyline
 90
2
 70
0
 10
624431.0598927333
 20
4835628.57750666
 10
624375.0637038699
 20
4835671.12445692
  0
LWPOLYLINE
  5
276
330
17
100
AcDbEntity
  8
ROADS
100
AcDbPolyline
 90
2
 70
0
 10
624431.0598927333
 20
4835628.57750666
 10
624382.0069293373
 20
4835690.603023723
  0
LWPOLYLINE
  5
277
330
17
100
AcDbEntity
  8
ROADS
100
AcDbPolyline
 90
2
 70
0
 10
624382.0069293373
 20
4835690.603023723
 10
624375.0637038699
 20
4835671.12445692
  0
LWPOLYLINE
  5
278
330
17
100
AcDbEntity
  8
ROADS
100
AcDbPolyline
 90
2
 70
0
 10
624375.0637038699
 20
4835671.12445692
 10
624350.3425907755
 20
4835689.872141723
  0
LWPOLYLINE
  5
279
330
17
100
AcDbEntity
  8
ROADS
100
AcDbPolyline
 90
2
 70
0
 10
624382.0069293373
 20
4835690.603023723
 10
624376.1076066138
 20
4835698.066750772
  0
LWPOLYLINE
  5
27A
330
17
100
AcDbEntity
  8
ROADS
100
AcDbPolyline
 90
2
 70
0
 10
624543.7466845345
 20
4835749.819600192
 10
624507.5184169286
 20
4835734.591476811
  0
LWPOLYLINE
  5
27B
330
17
100
AcDbEntity
  8
ROADS
100
AcDbPolyline
 90
2
 70
0
 10
625297.1178188995
 20
4835550.234100926
 10
625285.7539519203
 20
4835587.287570259
  0
LWPOLYLINE
  5
27C
330
17
100
AcDbEntity
  8
ROADS
100
AcDbPolyline
 90
2
 70
0
 10
625090.2276578436
 20
4835549.270841645
 10
625069.4776968204
 20
4835611.268165041
  0
LWPOLYLINE
  5
27D
330
17
100
AcDbEntity
  8
ROADS
100
AcDbPolyline
 90
2
 70
0
 10
625074.4606319176
 20
4835437.043563117
 10
624980.6651888833
 20
4835728.179043673
  0
LWPOLYLINE
  5
27E
330
17
100
AcDbEntity
  8
ROADS
100
AcDbPolyline
 90
4
 70
0
 10
625090.2276578436
 20
4835549.270841645
 10
625184.7525429489
 20
4835578.443314625
 10
625172.8679024728
 20
4835617.217627517
 10
625116.0643035638
 20
4835600.259763239
  0
LWPOLYLINE
  5
27F
330
17
100
AcDbEntity
  8
ROADS
100
AcDbPolyline
 90
3
 70
0
 10
625069.4776968204
 20
4835611.268165041
 10
625081.471599447
 20
4835614.961201086
 10
625073.2541817728
 20
4835640.293051462
  0
LWPOLYLINE
  5
280
330
17
100
AcDbEntity
  8
ROADS
100
AcDbPolyline
 90
2
 70
0
 10
625069.4776968204
 20
4835611.268165041
 10
625029.8262010979
 20
4835735.321690808
  0
LWPOLYLINE
  5
281
330
17
100
AcDbEntity
  8
ROADS
100
AcDbPolyline
 90
2
 70
0
 10
624933.0543189688
 20
4835713.589493062
 10
624885.4954254068
 20
4835698.669867993
  0
LWPOLYLINE
  5
282
330
17
100
AcDbEntity
  8
ROADS
100
AcDbPolyline
 90
2
 70
0
 10
624980.6651888833
 20
4835728.179043673
 10
624933.0543189688
 20
4835713.589493062
  0
LWPOLYLINE
  5
283
330
17
100
AcDbEntity
  8
ROADS
100
AcDbPolyline
 90
2
 70
0
 10
625174.4664500997
 20
4835667.488526994
 10
625231.7801047198
 20
4835486.01531156
  0
LWPOLYLINE
  5
284
330
17
100
AcDbEntity
  8
ROADS
100
AcDbPolyline
 90
2
 70
0
 10
625016.7494954774
 20
4835739.838847575
 10
624980.6651888833
 20
4835728.179043673
  0
LWPOLYLINE
  5
285
330
17
100
AcDbEntity
  8
ROADS
100
AcDbPolyline
 90
2
 70
0
 10
624823.8201594241
 20
4835693.463575098
 10
624733.461110252
 20
4835734.899265799
  0
LWPOLYLINE
  5
286
330
17
100
AcDbEntity
  8
ROADS
100
AcDbPolyline
 90
2
 70
0
 10
624563.9330661069
 20
4835692.575113729
 10
624545.6073539307
 20
4835750.306407254
  0
LWPOLYLINE
  5
287
330
17
100
AcDbEntity
  8
ROADS
100
AcDbPolyline
 90
2
 70
0
 10
624837.7836999506
 20
4835684.570529067
 10
624806.8052583286
 20
4835778.312618656
  0
LWPOLYLINE
  5
288
330
17
100
AcDbEntity
  8
ROADS
100
AcDbPolyline
 90
2
 70
0
 10
624733.461110252
 20
4835734.899265799
 10
624716.7599172516
 20
4835751.398228221
  0
LWPOLYLINE
  5
289
330
17
100
AcDbEntity
  8
ROADS
100
AcDbPolyline
 90
2
 70
0
 10
624716.7599172516
 20
4835751.398228221
 10
624667.1810932616
 20
4835736.581094482
  0
LWPOLYLINE
  5
28A
330
17
100
AcDbEntity
  8
ROADS
100
AcDbPolyline
 90
2
 70
0
 10
624667.1810932616
 20
4835736.581094482
 10
624655.4725320467
 20
4835773.378754774
  0
LWPOLYLINE
  5
28B
330
17
100
AcDbEntity
  8
ROADS
100
AcDbPolyline
 90
2
 70
0
 10
624806.8052583286
 20
4835778.312618656
 10
624716.7599172516
 20
4835751.398228221
  0
LWPOLYLINE
  5
28C
330
17
100
AcDbEntity
  8
ROADS
100
AcDbPolyline
 90
2
 70
0
 10
624699.5190081354
 20
4835778.210420202
 10
624703.86848681
 20
4835763.330816404
  0
LWPOLYLINE
  5
28D
330
17
100
AcDbEntity
  8
ROADS
100
AcDbPolyline
 90
2
 70
0
 10
624885.4954254068
 20
4835698.669867993
 10
624860.6925510679
 20
4835774.946194363
  0
LWPOLYLINE
  5
28E
330
17
100
AcDbEntity
  8
ROADS
100
AcDbPolyline
 90
2
 70
0
 10
624806.8052583286
 20
4835778.312618656
 10
624806.3827039694
 20
4835779.643993011
  0
LWPOLYLINE
  5
28F
330
17
100
AcDbEntity
  8
ROADS
100
AcDbPolyline
 90
2
 70
0
 10
624933.0543189688
 20
4835713.589493062
 10
624915.6542180538
 20
4835767.026564671
  0
LWPOLYLINE
  5
290
330
17
100
AcDbEntity
  8
ROADS
100
AcDbPolyline
 90
2
 70
0
 10
624980.6651888833
 20
4835728.179043673
 10
624972.3817613791
 20
4835753.4734475445
  0
LWPOLYLINE
  5
291
330
17
100
AcDbEntity
  8
ROADS
100
AcDbPolyline
 90
2
 70
0
 10
624442.5820596456
 20
4833783.940776505
 10
624442.3008861699
 20
4833784.814775474
  0
LWPOLYLINE
  5
292
330
17
100
AcDbEntity
  8
ROADS
100
AcDbPolyline
 90
3
 70
0
 10
624372.2524688618
 20
4834003.516472546
 10
624322.4736885298
 20
4833894.68999038
 10
624366.1735241318
 20
4833770.103848487
  0
LWPOLYLINE
  5
293
330
17
100
AcDbEntity
  8
ROADS
100
AcDbPolyline
 90
2
 70
0
 10
624442.3008861699
 20
4833784.814775474
 10
624412.7939243909
 20
4833877.625464631
  0
LWPOLYLINE
  5
294
330
17
100
AcDbEntity
  8
ROADS
100
AcDbPolyline
 90
4
 70
0
 10
624185.1383456554
 20
4833755.918729752
 10
624171.2104880831
 20
4833786.69445504
 10
624199.532710587
 20
4833997.185458883
 10
624190.687932119
 20
4834043.015025106
  0
LWPOLYLINE
  5
295
330
17
100
AcDbEntity
  8
ROADS
100
AcDbPolyline
 90
2
 70
0
 10
624644.9826137078
 20
4833945.339546949
 10
624412.7939243909
 20
4833877.625464631
  0
LWPOLYLINE
  5
296
330
17
100
AcDbEntity
  8
ROADS
100
AcDbPolyline
 90
2
 70
0
 10
624412.7939243909
 20
4833877.625464631
 10
624384.5378202695
 20
4833965.24546786
  0
LWPOLYLINE
  5
297
330
17
100
AcDbEntity
  8
ROADS
100
AcDbPolyline
 90
2
 70
0
 10
624362.0466318375
 20
4834003.089992953
 10
624328.936037661
 20
4833926.338473121
  0
LWPOLYLINE
  5
298
330
17
100
AcDbEntity
  8
ROADS
100
AcDbPolyline
 90
2
 70
0
 10
624384.5378202695
 20
4833965.24546786
 10
624372.2524688618
 20
4834003.516472546
  0
LWPOLYLINE
  5
299
330
17
100
AcDbEntity
  8
ROADS
100
AcDbPolyline
 90
2
 70
0
 10
624633.3088528026
 20
4834037.580560996
 10
624384.5378202695
 20
4833965.24546786
  0
LWPOLYLINE
  5
29A
330
17
100
AcDbEntity
  8
ROADS
100
AcDbPolyline
 90
2
 70
0
 10
624368.6833904767
 20
4834016.014633805
 10
624362.0466318375
 20
4834003.089992953
  0
LWPOLYLINE
  5
29B
330
17
100
AcDbEntity
  8
ROADS
100
AcDbPolyline
 90
2
 70
0
 10
623804.7524448085
 20
4833866.833297513
 10
623808.1992114783
 20
4833895.988894739
  0
LWPOLYLINE
  5
29C
330
17
100
AcDbEntity
  8
ROADS
100
AcDbPolyline
 90
2
 70
0
 10
623807.9810784049
 20
4833864.963915061
 10
623808.1992114783
 20
4833895.988894739
  0
LWPOLYLINE
  5
29D
330
17
100
AcDbEntity
  8
ROADS
100
AcDbPolyline
 90
2
 70
0
 10
623968.7654732545
 20
4833894.610295162
 10
623936.5313117559
 20
4833852.530522514
  0
LWPOLYLINE
  5
29E
330
17
100
AcDbEntity
  8
ROADS
100
AcDbPolyline
 90
3
 70
0
 10
623808.1992114783
 20
4833895.988894739
 10
623862.5639190341
 20
4833910.878720806
 10
623968.7654732545
 20
4833894.610295162
  0
LWPOLYLINE
  5
29F
330
17
100
AcDbEntity
  8
ROADS
100
AcDbPolyline
 90
2
 70
0
 10
623808.1992114783
 20
4833895.988894739
 10
623800.346909534
 20
4834058.761895749
  0
LWPOLYLINE
  5
2A0
330
17
100
AcDbEntity
  8
ROADS
100
AcDbPolyline
 90
4
 70
0
 10
623541.4328597817
 20
4834104.342983848
 10
623540.6434746099
 20
4834109.171620869
 10
623557.2184598229
 20
4834162.167900444
 10
623650.4693424479
 20
4834250.13184407
  0
LWPOLYLINE
  5
2A1
330
17
100
AcDbEntity
  8
ROADS
100
AcDbPolyline
 90
5
 70
0
 10
623536.134213773
 20
4834109.9724974055
 10
623535.0002797162
 20
4834117.355042506
 10
623552.245590034
 20
4834166.296230435
 10
623613.348212097
 20
4834213.684035499
 10
623640.4585573548
 20
4834257.8372998005
  0
LWPOLYLINE
  5
2A2
330
17
100
AcDbEntity
  8
ROADS
100
AcDbPolyline
 90
4
 70
0
 10
623968.7654732545
 20
4833894.610295162
 10
624087.6140211138
 20
4833986.495117451
 10
624101.2624508799
 20
4834014.452265029
 10
624086.6471455304
 20
4834062.728650435
  0
LWPOLYLINE
  5
2A3
330
17
100
AcDbEntity
  8
ROADS
100
AcDbPolyline
 90
2
 70
0
 10
624190.687932119
 20
4834043.015025106
 10
624086.6471455304
 20
4834062.728650435
  0
LWPOLYLINE
  5
2A4
330
17
100
AcDbEntity
  8
ROADS
100
AcDbPolyline
 90
2
 70
0
 10
623800.346909534
 20
4834058.761895749
 10
623806.764967792
 20
4834122.515193669
  0
LWPOLYLINE
  5
2A5
330
17
100
AcDbEntity
  8
ROADS
100
AcDbPolyline
 90
2
 70
0
 10
624086.6471455304
 20
4834062.728650435
 10
624073.9151282173
 20
4834118.7954795975
  0
LWPOLYLINE
  5
2A6
330
17
100
AcDbEntity
  8
ROADS
100
AcDbPolyline
 90
2
 70
0
 10
624073.9151282173
 20
4834118.7954795975
 10
623806.764967792
 20
4834122.515193669
  0
LWPOLYLINE
  5
2A7
330
17
100
AcDbEntity
  8
ROADS
100
AcDbPolyline
 90
2
 70
0
 10
623806.764967792
 20
4834122.515193669
 10
623806.5105517578
 20
4834158.057934554
  0
LWPOLYLINE
  5
2A8
330
17
100
AcDbEntity
  8
ROADS
100
AcDbPolyline
 90
2
 70
0
 10
624073.9151282173
 20
4834118.7954795975
 10
624059.4776191629
 20
4834205.64609551
  0
LWPOLYLINE
  5
2A9
330
17
100
AcDbEntity
  8
ROADS
100
AcDbPolyline
 90
2
 70
0
 10
623806.5105517578
 20
4834158.057934554
 10
623815.5743523794
 20
4834166.670700948
  0
LWPOLYLINE
  5
2AA
330
17
100
AcDbEntity
  8
ROADS
100
AcDbPolyline
 90
5
 70
0
 10
624190.687932119
 20
4834043.015025106
 10
624167.4908590005
 20
4834141.324958735
 10
624097.6219693564
 20
4834214.5899975905
 10
624116.8390718896
 20
4834277.491646662
 10
624108.9000664924
 20
4834305.740640633
  0
LWPOLYLINE
  5
2AB
330
17
100
AcDbEntity
  8
ROADS
100
AcDbPolyline
 90
2
 70
0
 10
623815.5743523794
 20
4834166.670700948
 10
623876.395317995
 20
4834192.989356935
  0
LWPOLYLINE
  5
2AC
330
17
100
AcDbEntity
  8
ROADS
100
AcDbPolyline
 90
3
 70
0
 10
623800.346909534
 20
4834058.761895749
 10
623714.6627600214
 20
4834063.2284827605
 10
623705.6676997569
 20
4834147.52624385
  0
LWPOLYLINE
  5
2AD
330
17
100
AcDbEntity
  8
ROADS
100
AcDbPolyline
 90
2
 70
0
 10
623806.5105517578
 20
4834158.057934554
 10
623705.6676997569
 20
4834147.52624385
  0
LWPOLYLINE
  5
2AE
330
17
100
AcDbEntity
  8
ROADS
100
AcDbPolyline
 90
2
 70
0
 10
623705.6676997569
 20
4834147.52624385
 10
623650.4693424479
 20
4834250.13184407
  0
LWPOLYLINE
  5
2AF
330
17
100
AcDbEntity
  8
ROADS
100
AcDbPolyline
 90
2
 70
0
 10
623424.0919812873
 20
4834270.540688115
 10
623425.1367311975
 20
4834275.091347622
  0
LWPOLYLINE
  5
2B0
330
17
100
AcDbEntity
  8
ROADS
100
AcDbPolyline
 90
2
 70
0
 10
623876.395317995
 20
4834192.989356935
 10
623917.5611959943
 20
4834192.146355271
  0
LWPOLYLINE
  5
2B1
330
17
100
AcDbEntity
  8
ROADS
100
AcDbPolyline
 90
4
 70
0
 10
623917.5611959943
 20
4834192.146355271
 10
624006.9573738701
 20
4834177.456354397
 10
624028.1979231637
 20
4834216.32729741
 10
624059.4776191629
 20
4834205.64609551
  0
LWPOLYLINE
  5
2B2
330
17
100
AcDbEntity
  8
ROADS
100
AcDbPolyline
 90
2
 70
0
 10
623904.3002510897
 20
4834211.303670679
 10
623917.5611959943
 20
4834192.146355271
  0
LWPOLYLINE
  5
2B3
330
17
100
AcDbEntity
  8
ROADS
100
AcDbPolyline
 90
2
 70
0
 10
623876.395317995
 20
4834192.989356935
 10
623904.3002510897
 20
4834211.303670679
  0
LWPOLYLINE
  5
2B4
330
17
100
AcDbEntity
  8
ROADS
100
AcDbPolyline
 90
2
 70
0
 10
623806.5105517578
 20
4834158.057934554
 10
623806.1887662308
 20
4834319.98699848
  0
LWPOLYLINE
  5
2B5
330
17
100
AcDbEntity
  8
ROADS
100
AcDbPolyline
 90
3
 70
0
 10
623904.3002510897
 20
4834211.303670679
 10
623910.4991000117
 20
4834260.128252392
 10
623952.9259843812
 20
4834267.449476878
  0
LWPOLYLINE
  5
2B6
330
17
100
AcDbEntity
  8
ROADS
100
AcDbPolyline
 90
2
 70
0
 10
623815.5743523794
 20
4834166.670700948
 10
623817.0213712435
 20
4834318.65672491
  0
LWPOLYLINE
  5
2B7
330
17
100
AcDbEntity
  8
ROADS
100
AcDbPolyline
 90
2
 70
0
 10
623876.395317995
 20
4834192.989356935
 10
623850.7726668953
 20
4834313.536501226
  0
LWPOLYLINE
  5
2B8
330
17
100
AcDbEntity
  8
ROADS
100
AcDbPolyline
 90
2
 70
0
 10
624059.4776191629
 20
4834205.64609551
 10
624065.748597383
 20
4834301.989499236
  0
LWPOLYLINE
  5
2B9
330
17
100
AcDbEntity
  8
ROADS
100
AcDbPolyline
 90
4
 70
0
 10
624065.748597383
 20
4834301.989499236
 10
624021.4722094788
 20
4834299.44808967
 10
623977.750805236
 20
4834261.389855543
 10
623952.9259843812
 20
4834267.449476878
  0
LWPOLYLINE
  5
2BA
330
17
100
AcDbEntity
  8
ROADS
100
AcDbPolyline
 90
2
 70
0
 10
623650.4693424479
 20
4834250.13184407
 10
623640.4585573548
 20
4834257.8372998005
  0
LWPOLYLINE
  5
2BB
330
17
100
AcDbEntity
  8
ROADS
100
AcDbPolyline
 90
2
 70
0
 10
623640.4585573548
 20
4834257.8372998005
 10
623648.0109459828
 20
4834268.017327137
  0
LWPOLYLINE
  5
2BC
330
17
100
AcDbEntity
  8
ROADS
100
AcDbPolyline
 90
2
 70
0
 10
623640.4585573548
 20
4834257.8372998005
 10
623632.2561551715
 20
4834272.829813993
  0
LWPOLYLINE
  5
2BD
330
17
100
AcDbEntity
  8
ROADS
100
AcDbPolyline
 90
2
 70
0
 10
623425.1367311975
 20
4834275.091347622
 10
623422.3112589458
 20
4834274.124483528
  0
LWPOLYLINE
  5
2BE
330
17
100
AcDbEntity
  8
ROADS
100
AcDbPolyline
 90
2
 70
0
 10
623648.0109459828
 20
4834268.017327137
 10
623632.2561551715
 20
4834272.829813993
  0
LWPOLYLINE
  5
2BF
330
17
100
AcDbEntity
  8
ROADS
100
AcDbPolyline
 90
2
 70
0
 10
623425.1367311975
 20
4834275.091347622
 10
623396.2333791715
 20
4834370.522756109
  0
LWPOLYLINE
  5
2C0
330
17
100
AcDbEntity
  8
ROADS
100
AcDbPolyline
 90
2
 70
0
 10
623650.4693424479
 20
4834250.13184407
 10
623747.4350983241
 20
4834409.188648819
  0
LWPOLYLINE
  5
2C1
330
17
100
AcDbEntity
  8
ROADS
100
AcDbPolyline
 90
4
 70
0
 10
623850.7726668953
 20
4834313.536501226
 10
623897.6185285187
 20
4834298.353431852
 10
623941.9949979972
 20
4834304.983862818
 10
623952.9259843812
 20
4834267.449476878
  0
LWPOLYLINE
  5
2C2
330
17
100
AcDbEntity
  8
ROADS
100
AcDbPolyline
 90
2
 70
0
 10
624108.9000664924
 20
4834305.740640633
 10
624132.4777584034
 20
4834316.6703735795
  0
LWPOLYLINE
  5
2C3
330
17
100
AcDbEntity
  8
ROADS
100
AcDbPolyline
 90
2
 70
0
 10
624065.748597383
 20
4834301.989499236
 10
624065.5129808336
 20
4834324.31941348
  0
LWPOLYLINE
  5
2C4
330
17
100
AcDbEntity
  8
ROADS
100
AcDbPolyline
 90
2
 70
0
 10
624108.9000664924
 20
4834305.740640633
 10
624065.5129808336
 20
4834324.31941348
  0
LWPOLYLINE
  5
2C5
330
17
100
AcDbEntity
  8
ROADS
100
AcDbPolyline
 90
2
 70
0
 10
623817.0213712435
 20
4834318.65672491
 10
623850.7726668953
 20
4834313.536501226
  0
LWPOLYLINE
  5
2C6
330
17
100
AcDbEntity
  8
ROADS
100
AcDbPolyline
 90
2
 70
0
 10
623806.1887662308
 20
4834319.98699848
 10
623817.0213712435
 20
4834318.65672491
  0
LWPOLYLINE
  5
2C7
330
17
100
AcDbEntity
  8
ROADS
100
AcDbPolyline
 90
2
 70
0
 10
623850.7726668953
 20
4834313.536501226
 10
623806.4111258666
 20
4834397.534531204
  0
LWPOLYLINE
  5
2C8
330
17
100
AcDbEntity
  8
ROADS
100
AcDbPolyline
 90
2
 70
0
 10
623817.0213712435
 20
4834318.65672491
 10
623806.4111258666
 20
4834397.534531204
  0
LWPOLYLINE
  5
2C9
330
17
100
AcDbEntity
  8
ROADS
100
AcDbPolyline
 90
2
 70
0
 10
623806.1887662308
 20
4834319.98699848
 10
623806.4111258666
 20
4834397.534531204
  0
LWPOLYLINE
  5
2CA
330
17
100
AcDbEntity
  8
ROADS
100
AcDbPolyline
 90
2
 70
0
 10
624065.5129808336
 20
4834324.31941348
 10
623806.4111258666
 20
4834397.534531204
  0
LWPOLYLINE
  5
2CB
330
17
100
AcDbEntity
  8
ROADS
100
AcDbPolyline
 90
2
 70
0
 10
623648.0109459828
 20
4834268.017327137
 10
623747.4350983241
 20
4834409.188648819
  0
LWPOLYLINE
  5
2CC
330
17
100
AcDbEntity
  8
ROADS
100
AcDbPolyline
 90
2
 70
0
 10
623632.2561551715
 20
4834272.829813993
 10
623531.9245188028
 20
4834465.004159288
  0
LWPOLYLINE
  5
2CD
330
17
100
AcDbEntity
  8
ROADS
100
AcDbPolyline
 90
2
 70
0
 10
623381.4929679179
 20
4834416.977671821
 10
623365.0945215032
 20
4834411.611136145
  0
LWPOLYLINE
  5
2CE
330
17
100
AcDbEntity
  8
ROADS
100
AcDbPolyline
 90
2
 70
0
 10
623488.4197373758
 20
4834450.817086086
 10
623381.4929679179
 20
4834416.977671821
  0
LWPOLYLINE
  5
2CF
330
17
100
AcDbEntity
  8
ROADS
100
AcDbPolyline
 90
5
 70
0
 10
623747.4350983241
 20
4834409.188648819
 10
623702.5542851569
 20
4834442.983171423
 10
623691.9143032578
 20
4834470.946291643
 10
623665.827289001
 20
4834473.251885015
 10
623655.7682635006
 20
4834505.091701069
  0
LWPOLYLINE
  5
2D0
330
17
100
AcDbEntity
  8
ROADS
100
AcDbPolyline
 90
2
 70
0
 10
623531.9245188028
 20
4834465.004159288
 10
623488.4197373758
 20
4834450.817086086
  0
LWPOLYLINE
  5
2D1
330
17
100
AcDbEntity
  8
ROADS
100
AcDbPolyline
 90
2
 70
0
 10
623381.4929679179
 20
4834416.977671821
 10
623348.6500470907
 20
4834518.67916378
  0
LWPOLYLINE
  5
2D2
330
17
100
AcDbEntity
  8
ROADS
100
AcDbPolyline
 90
2
 70
0
 10
623747.4350983241
 20
4834409.188648819
 10
623764.4628357585
 20
4834528.218569953
  0
LWPOLYLINE
  5
2D3
330
17
100
AcDbEntity
  8
ROADS
100
AcDbPolyline
 90
2
 70
0
 10
623488.4197373758
 20
4834450.817086086
 10
623470.6420052069
 20
4834506.519580634
  0
ENDSEC
  0
SECTION
  2
OBJECTS
  0
DICTIONARY
  5
A
330
0
100
AcDbDictionary
281
1
  3
ACAD_COLOR
350
B
  3
ACAD_GROUP
350
C
  3
ACAD_LAYOUT
350
D
  3
ACAD_MATERIAL
350
E
  3
ACAD_MLEADERSTYLE
350
F
  3
ACAD_MLINESTYLE
350
10
  3
ACAD_PLOTSETTINGS
350
11
  3
ACAD_PLOTSTYLENAME
350
12
  3
ACAD_SCALELIST
350
14
  3
ACAD_TABLESTYLE
350
15
  3
ACAD_VISUALSTYLE
350
16
  3
EZDXF_META
350
2D
  0
DICTIONARY
  5
B
330
A
100
AcDbDictionary
281
1
  0
DICTIONARY
  5
C
330
A
100
AcDbDictionary
281
1
  0
DICTIONARY
  5
D
330
A
100
AcDbDictionary
281
1
  3
Model
350
1A
  3
Layout1
350
1E
  0
DICTIONARY
  5
E
330
A
100
AcDbDictionary
281
1
  3
ByBlock
350
1F
  3
ByLayer
350
20
  3
Global
350
21
  0
DICTIONARY
  5
F
330
A
100
AcDbDictionary
281
1
  3
Standard
350
2C
  0
DICTIONARY
  5
10
330
A
100
AcDbDictionary
281
1
  3
Standard
350
22
  0
DICTIONARY
  5
11
330
A
100
AcDbDictionary
281
1
  0
ACDBDICTIONARYWDFLT
  5
12
330
A
100
AcDbDictionary
281
1
  3
Normal
350
13
100
AcDbDictionaryWithDefault
340
13
  0
ACDBPLACEHOLDER
  5
13
330
12
  0
DICTIONARY
  5
14
330
A
100
AcDbDictionary
281
1
  0
DICTIONARY
  5
15
330
A
100
AcDbDictionary
281
1
  0
DICTIONARY
  5
16
330
A
100
AcDbDictionary
281
1
  0
LAYOUT
  5
1A
330
D
100
AcDbPlotSettings
  1

  4
A3
  6

 40
7.5
 41
20.0
 42
7.5
 43
20.0
 44
420.0
 45
297.0
 46
0.0
 47
0.0
 48
0.0
 49
0.0
140
0.0
141
0.0
142
1.0
143
1.0
 70
1024
 72
1
 73
0
 74
5
  7

 75
16
 76
0
 77
2
 78
300
147
1.0
148
0.0
149
0.0
100
AcDbLayout
  1
Model
 70
1
 71
0
 10
0.0
 20
0.0
 11
420.0
 21
297.0
 12
0.0
 22
0.0
 32
0.0
 14
1e+20
 24
1e+20
 34
1e+20
 15
-1e+20
 25
-1e+20
 35
-1e+20
146
0.0
 13
0.0
 23
0.0
 33
0.0
 16
1.0
 26
0.0
 36
0.0
 17
0.0
 27
1.0
 37
0.0
 76
1
330
17
  0
LAYOUT
  5
1E
330
D
100
AcDbPlotSettings
  1

  4
A3
  6

 40
7.5
 41
20.0
 42
7.5
 43
20.0
 44
420.0
 45
297.0
 46
0.0
 47
0.0
 48
0.0
 49
0.0
140
0.0
141
0.0
142
1.0
143
1.0
 70
0
 72
1
 73
0
 74
5
  7

 75
16
 76
0
 77
2
 78
300
147
1.0
148
0.0
149
0.0
100
AcDbLayout
  1
Layout1
 70
1
 71
1
 10
0.0
 20
0.0
 11
420.0
 21
297.0
 12
0.0
 22
0.0
 32
0.0
 14
1e+20
 24
1e+20
 34
1e+20
 15
-1e+20
 25
-1e+20
 35
-1e+20
146
0.0
 13
0.0
 23
0.0
 33
0.0
 16
1.0
 26
0.0
 36
0.0
 17
0.0
 27
1.0
 37
0.0
 76
1
330
1B
  0
MATERIAL
  5
1F
102
{ACAD_REACTORS
330
E
102
}
330
E
100
AcDbMaterial
  1
ByBlock
  2

 70
0
 40
1.0
 71
1
 41
1.0
 91
-1023410177
 42
1.0
 72
1
  3

 73
1
 74
1
 75
1
 44
0.5
 73
0
 45
1.0
 46
1.0
 77
1
  4

 78
1
 79
1
170
1
 48
1.0
171
1
  6

172
1
173
1
174
1
140
1.0
141
1.0
175
1
  7

176
1
177
1
178
1
143
1.0
179
1
  8

270
1
271
1
272
1
145
1.0
146
1.0
273
1
  9

274
1
275
1
276
1
 42
1.0
 72
1
  3

 73
1
 74
1
 75
1
 94
63
  0
MATERIAL
  5
20
102
{ACAD_REACTORS
330
E
102
}
330
E
100
AcDbMaterial
  1
ByLayer
  2

 70
0
 40
1.0
 71
1
 41
1.0
 91
-1023410177
 42
1.0
 72
1
  3

 73
1
 74
1
 75
1
 44
0.5
 73
0
 45
1.0
 46
1.0
 77
1
  4

 78
1
 79
1
170
1
 48
1.0
171
1
  6

172
1
173
1
174
1
140
1.0
141
1.0
175
1
  7

176
1
177
1
178
1
143
1.0
179
1
  8

270
1
271
1
272
1
145
1.0
146
1.0
273
1
  9

274
1
275
1
276
1
 42
1.0
 72
1
  3

 73
1
 74
1
 75
1
 94
63
  0
MATERIAL
  5
21
102
{ACAD_REACTORS
330
E
102
}
330
E
100
AcDbMaterial
  1
Global
  2

 70
0
 40
1.0
 71
1
 41
1.0
 91
-1023410177
 42
1.0
 72
1
  3

 73
1
 74
1
 75
1
 44
0.5
 73
0
 45
1.0
 46
1.0
 77
1
  4

 78
1
 79
1
170
1
 48
1.0
171
1
  6

172
1
173
1
174
1
140
1.0
141
1.0
175
1
  7

176
1
177
1
178
1
143
1.0
179
1
  8

270
1
271
1
272
1
145
1.0
146
1.0
273
1
  9

274
1
275
1
276
1
 42
1.0
 72
1
  3

 73
1
 74
1
 75
1
 94
63
  0
MLINESTYLE
  5
22
102
{ACAD_REACTORS
330
10
102
}
330
10
100
AcDbMlineStyle
  2
Standard
 70
0
  3

 62
256
 51
90.0
 52
90.0
 71
2
 49
0.5
 62
256
  6
BYLAYER
 49
-0.5
 62
256
  6
BYLAYER
  0
MLEADERSTYLE
  5
2C
102
{ACAD_REACTORS
330
F
102
}
330
F
100
AcDbMLeaderStyle
179
2
170
2
171
1
172
0
 90
2
 40
0.0
 41
0.0
173
1
 91
-1056964608
 92
-2
290
1
 42
2.0
291
1
 43
8.0
  3
Standard
 44
4.0
300

342
29
174
1
175
1
176
0
178
1
 93
-1056964608
 45
4.0
292
0
297
0
 46
4.0
 94
-1056964608
 47
1.0
 49
1.0
140
1.0
294
1
141
0.0
177
0
142
1.0
295
0
296
0
143
3.75
271
0
272
9
273
9
  0
DICTIONARY
  5
2D
330
A
100
AcDbDictionary
280
1
281
1
  3
CREATED_BY_EZDXF
350
2E
  3
WRITTEN_BY_EZDXF
350
2D6
  0
DICTIONARYVAR
  5
2E
330
2D
100
DictionaryVariables
280
0
  1
1.4.4 @ 2026-07-07T06:19:07.174912+00:00
  0
DICTIONARYVAR
  5
2D6
330
2D
100
DictionaryVariables
280
0
  1
1.4.4 @ 2026-07-07T06:19:07.192680+00:00
  0
ENDSEC
  0
EOF
