  0
SECTION
  2
HEADER
  9
$ACADVER
  1
AC1015
  9
$ACADMAINTVER
 70
6
  9
$DWGCODEPAGE
  3
ANSI_1252
  9
$INSBASE
 10
0.0
 20
0.0
 30
0.0
  9
$EXTMIN
 10
1e+20
 20
1e+20
 30
1e+20
  9
$EXTMAX
 10
-1e+20
 20
-1e+20
 30
-1e+20
  9
$LIMMIN
 10
0.0
 20
0.0
  9
$LIMMAX
 10
420.0
 20
297.0
  9
$ORTHOMODE
 70
0
  9
$REGENMODE
 70
1
  9
$FILLMODE
 70
1
  9
$QTEXTMODE
 70
0
  9
$MIRRTEXT
 70
1
  9
$LTSCALE
 40
1.0
  9
$ATTMODE
 70
1
  9
$TEXTSIZE
 40
2.5
  9
$TRACEWID
 40
1.0
  9
$TEXTSTYLE
  7
Standard
  9
$CLAYER
  8
0
  9
$CELTYPE
  6
ByLayer
  9
$CECOLOR
 62
256
  9
$CELTSCALE
 40
1.0
  9
$DISPSILH
 70
0
  9
$DIMSCALE
 40
1.0
  9
$DIMASZ
 40
2.5
  9
$DIMEXO
 40
0.625
  9
$DIMDLI
 40
3.75
  9
$DIMRND
 40
0.0
  9
$DIMDLE
 40
0.0
  9
$DIMEXE
 40
1.25
  9
$DIMTP
 40
0.0
  9
$DIMTM
 40
0.0
  9
$DIMTXT
 40
2.5
  9
$DIMCEN
 40
2.5
  9
$DIMTSZ
 40
0.0
  9
$DIMTOL
 70
0
  9
$DIMLIM
 70
0
  9
$DIMTIH
 70
0
  9
$DIMTOH
 70
0
  9
$DIMSE1
 70
0
  9
$DIMSE2
 70
0
  9
$DIMTAD
 70
1
  9
$DIMZIN
 70
8
  9
$DIMBLK
  1

  9
$DIMASO
 70
1
  9
$DIMSHO
 70
1
  9
$DIMPOST
  1

  9
$DIMAPOST
  1

  9
$DIMALT
 70
0
  9
$DIMALTD
 70
3
  9
$DIMALTF
 40
0.03937007874
  9
$DIMLFAC
 40
1.0
  9
$DIMTOFL
 70
1
  9
$DIMTVP
 40
0.0
  9
$DIMTIX
 70
0
  9
$DIMSOXD
 70
0
  9
$DIMSAH
 70
0
  9
$DIMBLK1
  1

  9
$DIMBLK2
  1

  9
$DIMSTYLE
  2
ISO-25
  9
$DIMCLRD
 70
0
  9
$DIMCLRE
 70
0
  9
$DIMCLRT
 70
0
  9
$DIMTFAC
 40
1.0
  9
$DIMGAP
 40
0.625
  9
$DIMJUST
 70
0
  9
$DIMSD1
 70
0
  9
$DIMSD2
 70
0
  9
$DIMTOLJ
 70
0
  9
$DIMTZIN
 70
8
  9
$DIMALTZ
 70
0
  9
$DIMALTTZ
 70
0
  9
$DIMUPT
 70
0
  9
$DIMDEC
 70
2
  9
$DIMTDEC
 70
2
  9
$DIMALTU
 70
2
  9
$DIMALTTD
 70
3
  9
$DIMTXSTY
  7
Standard
  9
$DIMAUNIT
 70
0
  9
$DIMADEC
 70
0
  9
$DIMALTRND
 40
0.0
  9
$DIMAZIN
 70
0
  9
$DIMDSEP
 70
44
  9
$DIMATFIT
 70
3
  9
$DIMFRAC
 70
0
  9
$DIMLDRBLK
  1

  9
$DIMLUNIT
 70
2
  9
$DIMLWD
 70
-2
  9
$DIMLWE
 70
-2
  9
$DIMTMOVE
 70
0
  9
$LUNITS
 70
2
  9
$LUPREC
 70
4
  9
$SKETCHINC
 40
1.0
  9
$FILLETRAD
 40
10.0
  9
$AUNITS
 70
0
  9
$AUPREC
 70
2
  9
$MENU
  1
.
  9
$ELEVATION
 40
0.0
  9
$PELEVATION
 40
0.0
  9
$THICKNESS
 40
0.0
  9
$LIMCHECK
 70
0
  9
$CHAMFERA
 40
0.0
  9
$CHAMFERB
 40
0.0
  9
$CHAMFERC
 40
0.0
  9
$CHAMFERD
 40
0.0
  9
$SKPOLY
 70
0
  9
$TDCREATE
 40
2461229.6013078704
  9
$TDUCREATE
 40
2458532.153996898
  9
$TDUPDATE
 40
2461229.6013078704
  9
$TDUUPDATE
 40
2458532.1544311
  9
$TDINDWG
 40
0.0
  9
$TDUSRTIMER
 40
0.0
  9
$USRTIMER
 70
1
  9
$ANGBASE
 50
0.0
  9
$ANGDIR
 70
0
  9
$PDMODE
 70
0
  9
$PDSIZE
 40
0.0
  9
$PLINEWID
 40
0.0
  9
$SPLFRAME
 70
0
  9
$SPLINETYPE
 70
6
  9
$SPLINESEGS
 70
8
  9
$HANDSEED
  5
30E
  9
$SURFTAB1
 70
6
  9
$SURFTAB2
 70
6
  9
$SURFTYPE
 70
6
  9
$SURFU
 70
6
  9
$SURFV
 70
6
  9
$UCSBASE
  2

  9
$UCSNAME
  2

  9
$UCSORG
 10
0.0
 20
0.0
 30
0.0
  9
$UCSXDIR
 10
1.0
 20
0.0
 30
0.0
  9
$UCSYDIR
 10
0.0
 20
1.0
 30
0.0
  9
$UCSORTHOREF
  2

  9
$UCSORTHOVIEW
 70
0
  9
$UCSORGTOP
 10
0.0
 20
0.0
 30
0.0
  9
$UCSORGBOTTOM
 10
0.0
 20
0.0
 30
0.0
  9
$UCSORGLEFT
 10
0.0
 20
0.0
 30
0.0
  9
$UCSORGRIGHT
 10
0.0
 20
0.0
 30
0.0
  9
$UCSORGFRONT
 10
0.0
 20
0.0
 30
0.0
  9
$UCSORGBACK
 10
0.0
 20
0.0
 30
0.0
  9
$PUCSBASE
  2

  9
$PUCSNAME
  2

  9
$PUCSORG
 10
0.0
 20
0.0
 30
0.0
  9
$PUCSXDIR
 10
1.0
 20
0.0
 30
0.0
  9
$PUCSYDIR
 10
0.0
 20
1.0
 30
0.0
  9
$PUCSORTHOREF
  2

  9
$PUCSORTHOVIEW
 70
0
  9
$PUCSORGTOP
 10
0.0
 20
0.0
 30
0.0
  9
$PUCSORGBOTTOM
 10
0.0
 20
0.0
 30
0.0
  9
$PUCSORGLEFT
 10
0.0
 20
0.0
 30
0.0
  9
$PUCSORGRIGHT
 10
0.0
 20
0.0
 30
0.0
  9
$PUCSORGFRONT
 10
0.0
 20
0.0
 30
0.0
  9
$PUCSORGBACK
 10
0.0
 20
0.0
 30
0.0
  9
$USERI1
 70
0
  9
$USERI2
 70
0
  9
$USERI3
 70
0
  9
$USERI4
 70
0
  9
$USERI5
 70
0
  9
$USERR1
 40
0.0
  9
$USERR2
 40
0.0
  9
$USERR3
 40
0.0
  9
$USERR4
 40
0.0
  9
$USERR5
 40
0.0
  9
$WORLDVIEW
 70
1
  9
$SHADEDGE
 70
3
  9
$SHADEDIF
 70
70
  9
$TILEMODE
 70
1
  9
$MAXACTVP
 70
64
  9
$PINSBASE
 10
0.0
 20
0.0
 30
0.0
  9
$PLIMCHECK
 70
0
  9
$PEXTMIN
 10
1e+20
 20
1e+20
 30
1e+20
  9
$PEXTMAX
 10
-1e+20
 20
-1e+20
 30
-1e+20
  9
$PLIMMIN
 10
0.0
 20
0.0
  9
$PLIMMAX
 10
420.0
 20
297.0
  9
$UNITMODE
 70
0
  9
$VISRETAIN
 70
1
  9
$PLINEGEN
 70
0
  9
$PSLTSCALE
 70
1
  9
$TREEDEPTH
 70
3020
  9
$CMLSTYLE
  2
Standard
  9
$CMLJUST
 70
0
  9
$CMLSCALE
 40
20.0
  9
$PROXYGRAPHICS
 70
1
  9
$MEASUREMENT
 70
1
  9
$CELWEIGHT
370
-1
  9
$ENDCAPS
280
0
  9
$JOINSTYLE
280
0
  9
$LWDISPLAY
290
0
  9
$INSUNITS
 70
6
  9
$HYPERLINKBASE
  1

  9
$STYLESHEET
  1

  9
$XEDIT
290
1
  9
$CEPSNTYPE
380
0
  9
$PSTYLEMODE
290
1
  9
$FINGERPRINTGUID
  2
{8EB4ED75-4024-435A-9E51-85EB93175E2D}
  9
$VERSIONGUID
  2
{8503F602-2D3B-41CE-87F6-7C4181B0D908}
  9
$EXTNAMES
290
1
  9
$PSVPSCALE
 40
0.0
  9
$OLESTARTUP
290
0
  0
ENDSEC
  0
SECTION
  2
CLASSES
  0
CLASS
  1
ACDBDICTIONARYWDFLT
  2
AcDbDictionaryWithDefault
  3
ObjectDBX Classes
 90
0
280
0
281
0
  0
CLASS
  1
SUN
  2
AcDbSun
  3
SCENEOE
 90
1153
280
0
281
0
  0
CLASS
  1
VISUALSTYLE
  2
AcDbVisualStyle
  3
ObjectDBX Classes
 90
4095
280
0
281
0
  0
CLASS
  1
MATERIAL
  2
AcDbMaterial
  3
ObjectDBX Classes
 90
1153
280
0
281
0
  0
CLASS
  1
SCALE
  2
AcDbScale
  3
ObjectDBX Classes
 90
1153
280
0
281
0
  0
CLASS
  1
TABLESTYLE
  2
AcDbTableStyle
  3
ObjectDBX Classes
 90
4095
280
0
281
0
  0
CLASS
  1
MLEADERSTYLE
  2
AcDbMLeaderStyle
  3
ACDB_MLEADERSTYLE_CLASS
 90
4095
280
0
281
0
  0
CLASS
  1
DICTIONARYVAR
  2
AcDbDictionaryVar
  3
ObjectDBX Classes
 90
0
280
0
281
0
  0
CLASS
  1
CELLSTYLEMAP
  2
AcDbCellStyleMap
  3
ObjectDBX Classes
 90
1152
280
0
281
0
  0
CLASS
  1
MENTALRAYRENDERSETTINGS
  2
AcDbMentalRayRenderSettings
  3
SCENEOE
 90
1024
280
0
281
0
  0
CLASS
  1
ACDBDETAILVIEWSTYLE
  2
AcDbDetailViewStyle
  3
ObjectDBX Classes
 90
1025
280
0
281
0
  0
CLASS
  1
ACDBSECTIONVIEWSTYLE
  2
AcDbSectionViewStyle
  3
ObjectDBX Classes
 90
1025
280
0
281
0
  0
CLASS
  1
RASTERVARIABLES
  2
AcDbRasterVariables
  3
ISM
 90
0
280
0
281
0
  0
CLASS
  1
ACDBPLACEHOLDER
  2
AcDbPlaceHolder
  3
ObjectDBX Classes
 90
0
280
0
281
0
  0
CLASS
  1
LAYOUT
  2
AcDbLayout
  3
ObjectDBX Classes
 90
0
280
0
281
0
  0
ENDSEC
  0
SECTION
  2
TABLES
  0
TABLE
  2
VPORT
  5
8
330
0
100
AcDbSymbolTable
 70
1
  0
VPORT
  5
23
330
8
100
AcDbSymbolTableRecord
100
AcDbViewportTableRecord
  2
*Active
 70
0
 10
0.0
 20
0.0
 11
1.0
 21
1.0
 12
0.0
 22
0.0
 13
0.0
 23
0.0
 14
0.5
 24
0.5
 15
0.5
 25
0.5
 16
0.0
 26
0.0
 36
1.0
 17
0.0
 27
0.0
 37
0.0
 40
1000.0
 41
1.34
 42
50.0
 43
0.0
 44
0.0
 50
0.0
 51
0.0
 71
0
 72
1000
 73
1
 74
3
 75
0
 76
0
 77
0
 78
0
281
0
 65
0
146
0.0
  0
ENDTAB
  0
TABLE
  2
LTYPE
  5
2
330
0
100
AcDbSymbolTable
 70
3
  0
LTYPE
  5
24
330
2
100
AcDbSymbolTableRecord
100
AcDbLinetypeTableRecord
  2
ByBlock
 70
0
  3

 72
65
 73
0
 40
0.0
  0
LTYPE
  5
25
330
2
100
AcDbSymbolTableRecord
100
AcDbLinetypeTableRecord
  2
ByLayer
 70
0
  3

 72
65
 73
0
 40
0.0
  0
LTYPE
  5
26
330
2
100
AcDbSymbolTableRecord
100
AcDbLinetypeTableRecord
  2
Continuous
 70
0
  3

 72
65
 73
0
 40
0.0
  0
ENDTAB
  0
TABLE
  2
LAYER
  5
1
330
0
100
AcDbSymbolTable
 70
2
  0
LAYER
  5
27
330
1
100
AcDbSymbolTableRecord
100
AcDbLayerTableRecord
  2
0
 70
0
 62
7
  6
Continuous
370
-3
390
13
  0
LAYER
  5
28
330
1
100
AcDbSymbolTableRecord
100
AcDbLayerTableRecord
  2
Defpoints
 70
0
 62
7
  6
Continuous
290
0
370
-3
390
13
  0
ENDTAB
  0
TABLE
  2
STYLE
  5
5
330
0
100
AcDbSymbolTable
 70
1
  0
STYLE
  5
29
330
5
100
AcDbSymbolTableRecord
100
AcDbTextStyleTableRecord
  2
Standard
 70
0
 40
0.0
 41
1.0
 50
0.0
 71
0
 42
2.5
  3
txt
  4

  0
ENDTAB
  0
TABLE
  2
VIEW
  5
7
330
0
100
AcDbSymbolTable
 70
0
  0
ENDTAB
  0
TABLE
  2
UCS
  5
6
330
0
100
AcDbSymbolTable
 70
0
  0
ENDTAB
  0
TABLE
  2
APPID
  5
3
330
0
100
AcDbSymbolTable
 70
3
  0
APPID
  5
2A
330
3
100
AcDbSymbolTableRecord
100
AcDbRegAppTableRecord
  2
ACAD
 70
0
  0
APPID
  5
30B
330
3
100
AcDbSymbolTableRecord
100
AcDbRegAppTableRecord
  2
HATCHBACKGROUNDCOLOR
 70
0
  0
APPID
  5
30C
330
3
100
AcDbSymbolTableRecord
100
AcDbRegAppTableRecord
  2
EZDXF
 70
0
  0
ENDTAB
  0
TABLE
  2
DIMSTYLE
  5
4
330
0
100
AcDbSymbolTable
 70
1
100
AcDbDimStyleTable
  0
DIMSTYLE
105
2B
330
4
100
AcDbSymbolTableRecord
100
AcDbDimStyleTableRecord
  2
Standard
 70
0
  3

  4

 40
1.0
 41
2.5
 42
0.625
 43
3.75
 44
1.25
 45
0.0
 46
0.0
 47
0.0
 48
0.0
140
2.5
141
2.5
142
0.0
143
0.03937007874
144
1.0
145
0.0
146
1.0
147
0.625
148
0.0
 71
0
 72
0
 73
0
 74
0
 75
0
 76
0
 77
1
 78
8
 79
3
170
0
171
3
172
1
173
0
174
0
175
0
176
0
177
0
178
0
179
2
271
2
272
2
273
2
274
3
275
0
276
0
277
2
278
44
279
0
280
0
281
0
282
0
283
0
284
8
285
0
286
0
288
0
289
3
371
-2
372
-2
  0
ENDTAB
  0
TABLE
  2
BLOCK_RECORD
  5
9
330
0
100
AcDbSymbolTable
 70
2
  0
BLOCK_RECORD
  5
17
330
9
100
AcDbSymbolTableRecord
100
AcDbBlockTableRecord
  2
*Model_Space
340
1A
  0
BLOCK_RECORD
  5
1B
330
9
100
AcDbSymbolTableRecord
100
AcDbBlockTableRecord
  2
*Paper_Space
340
1E
  0
ENDTAB
  0
ENDSEC
  0
SECTION
  2
BLOCKS
  0
BLOCK
  5
18
330
17
100
AcDbEntity
  8
0
100
AcDbBlockBegin
  2
*Model_Space
 70
0
 10
0.0
 20
0.0
 30
0.0
  3
*Model_Space
  1

  0
ENDBLK
  5
19
330
17
100
AcDbEntity
  8
0
100
AcDbBlockEnd
  0
BLOCK
  5
1C
330
1B
100
AcDbEntity
  8
0
100
AcDbBlockBegin
  2
*Paper_Space
 70
0
 10
0.0
 20
0.0
 30
0.0
  3
*Paper_Space
  1

  0
ENDBLK
  5
1D
330
1B
100
AcDbEntity
  8
0
100
AcDbBlockEnd
  0
ENDSEC
  0
SECTION
  2
ENTITIES
  0
LWPOLYLINE
  5
2F
330
17
100
AcDbEntity
  8
ROADS
100
AcDbPolyline
 90
2
 70
0
 10
622550.7919427365
 20
4841633.598195649
 10
622535.6481977609
 20
4841716.947703588
  0
LWPOLYLINE
  5
30
330
17
100
AcDbEntity
  8
ROADS
100
AcDbPolyline
 90
2
 70
0
 10
622659.5119450334
 20
4841615.116183688
 10
622634.1708142245
 20
4841751.714329191
  0
LWPOLYLINE
  5
31
330
17
100
AcDbEntity
  8
ROADS
100
AcDbPolyline
 90
2
 70
0
 10
622324.2999143
 20
4841696.104457615
 10
622308.5592269554
 20
4841763.1473444635
  0
LWPOLYLINE
  5
32
330
17
100
AcDbEntity
  8
ROADS
100
AcDbPolyline
 90
2
 70
0
 10
622442.8392399724
 20
4841666.662989374
 10
622535.6481977609
 20
4841716.947703588
  0
LWPOLYLINE
  5
33
330
17
100
AcDbEntity
  8
ROADS
100
AcDbPolyline
 90
2
 70
0
 10
622535.6481977609
 20
4841716.947703588
 10
622634.1708142245
 20
4841751.714329191
  0
LWPOLYLINE
  5
34
330
17
100
AcDbEntity
  8
ROADS
100
AcDbPolyline
 90
2
 70
0
 10
622634.1708142245
 20
4841751.714329191
 10
622734.2132959103
 20
4841784.449380104
  0
LWPOLYLINE
  5
35
330
17
100
AcDbEntity
  8
ROADS
100
AcDbPolyline
 90
2
 70
0
 10
622734.2132959103
 20
4841784.449380104
 10
622833.8609546443
 20
4841819.827435101
  0
LWPOLYLINE
  5
36
330
17
100
AcDbEntity
  8
ROADS
100
AcDbPolyline
 90
2
 70
0
 10
621784.5666703619
 20
4841758.117490822
 10
621784.6776859378
 20
4841757.689463415
  0
LWPOLYLINE
  5
37
330
17
100
AcDbEntity
  8
ROADS
100
AcDbPolyline
 90
2
 70
0
 10
621784.0626880267
 20
4841757.958661338
 10
621784.5666703619
 20
4841758.117490822
  0
LWPOLYLINE
  5
38
330
17
100
AcDbEntity
  8
ROADS
100
AcDbPolyline
 90
2
 70
0
 10
621784.5666703619
 20
4841758.117490822
 10
621957.3494363299
 20
4841815.046971525
  0
LWPOLYLINE
  5
39
330
17
100
AcDbEntity
  8
ROADS
100
AcDbPolyline
 90
2
 70
0
 10
622084.6394457621
 20
4841692.97880108
 10
622047.2201645562
 20
4841680.814371613
  0
LWPOLYLINE
  5
3A
330
17
100
AcDbEntity
  8
ROADS
100
AcDbPolyline
 90
2
 70
0
 10
622308.5592269554
 20
4841763.1473444635
 10
622084.6394457621
 20
4841692.97880108
  0
LWPOLYLINE
  5
3B
330
17
100
AcDbEntity
  8
ROADS
100
AcDbPolyline
 90
2
 70
0
 10
622084.6394457621
 20
4841692.97880108
 10
622056.7567440151
 20
4841773.069976982
  0
LWPOLYLINE
  5
3C
330
17
100
AcDbEntity
  8
ROADS
100
AcDbPolyline
 90
2
 70
0
 10
622308.5592269554
 20
4841763.1473444635
 10
622265.7645516754
 20
4841916.301180699
  0
LWPOLYLINE
  5
3D
330
17
100
AcDbEntity
  8
ROADS
100
AcDbPolyline
 90
2
 70
0
 10
621957.3494363299
 20
4841815.046971525
 10
622115.1062112772
 20
4841867.02334781
  0
LWPOLYLINE
  5
3E
330
17
100
AcDbEntity
  8
ROADS
100
AcDbPolyline
 90
2
 70
0
 10
622162.0109621794
 20
4841882.5209233565
 10
622180.1124327511
 20
4841827.947927473
  0
LWPOLYLINE
  5
3F
330
17
100
AcDbEntity
  8
ROADS
100
AcDbPolyline
 90
2
 70
0
 10
621957.3494363299
 20
4841815.046971525
 10
621929.5647650361
 20
4841901.158661788
  0
LWPOLYLINE
  5
40
330
17
100
AcDbEntity
  8
ROADS
100
AcDbPolyline
 90
2
 70
0
 10
622115.1062112772
 20
4841867.02334781
 10
622162.0109621794
 20
4841882.5209233565
  0
LWPOLYLINE
  5
41
330
17
100
AcDbEntity
  8
ROADS
100
AcDbPolyline
 90
2
 70
0
 10
622162.0109621794
 20
4841882.5209233565
 10
622184.4943278607
 20
4841889.79815399
  0
LWPOLYLINE
  5
42
330
17
100
AcDbEntity
  8
ROADS
100
AcDbPolyline
 90
2
 70
0
 10
622184.4943278607
 20
4841889.79815399
 10
622265.7645516754
 20
4841916.301180699
  0
LWPOLYLINE
  5
43
330
17
100
AcDbEntity
  8
ROADS
100
AcDbPolyline
 90
3
 70
0
 10
621476.1885103568
 20
4842028.93789932
 10
621479.1052217433
 20
4842029.78788264
 10
621492.5955152055
 20
4842105.118436735
  0
LWPOLYLINE
  5
44
330
17
100
AcDbEntity
  8
ROADS
100
AcDbPolyline
 90
2
 70
0
 10
621439.6690960109
 20
4842088.228242136
 10
621492.5955152055
 20
4842105.118436735
  0
LWPOLYLINE
  5
45
330
17
100
AcDbEntity
  8
ROADS
100
AcDbPolyline
 90
2
 70
0
 10
621439.1912779255
 20
4842089.179001849
 10
621511.3615193509
 20
4842113.563945069
  0
LWPOLYLINE
  5
46
330
17
100
AcDbEntity
  8
ROADS
100
AcDbPolyline
 90
2
 70
0
 10
622089.1516343155
 20
4841946.502382577
 10
622115.1062112772
 20
4841867.02334781
  0
LWPOLYLINE
  5
47
330
17
100
AcDbEntity
  8
ROADS
100
AcDbPolyline
 90
2
 70
0
 10
622184.4943278607
 20
4841889.79815399
 10
622165.6194011682
 20
4841925.772270642
  0
LWPOLYLINE
  5
48
330
17
100
AcDbEntity
  8
ROADS
100
AcDbPolyline
 90
2
 70
0
 10
621929.5647650361
 20
4841901.158661788
 10
622089.1516343155
 20
4841946.502382577
  0
LWPOLYLINE
  5
49
330
17
100
AcDbEntity
  8
ROADS
100
AcDbPolyline
 90
2
 70
0
 10
622165.6194011682
 20
4841925.772270642
 10
622141.0580406017
 20
4841928.269893226
  0
LWPOLYLINE
  5
4A
330
17
100
AcDbEntity
  8
ROADS
100
AcDbPolyline
 90
2
 70
0
 10
622165.6194011682
 20
4841925.772270642
 10
622157.7350235214
 20
4841936.437088303
  0
LWPOLYLINE
  5
4B
330
17
100
AcDbEntity
  8
ROADS
100
AcDbPolyline
 90
2
 70
0
 10
622146.9353310802
 20
4841943.07795581
 10
622141.0580406017
 20
4841928.269893226
  0
LWPOLYLINE
  5
4C
330
17
100
AcDbEntity
  8
ROADS
100
AcDbPolyline
 90
2
 70
0
 10
622141.0580406017
 20
4841928.269893226
 10
622134.7848469369
 20
4841947.217259027
  0
LWPOLYLINE
  5
4D
330
17
100
AcDbEntity
  8
ROADS
100
AcDbPolyline
 90
2
 70
0
 10
622157.7350235214
 20
4841936.437088303
 10
622146.9353310802
 20
4841943.07795581
  0
LWPOLYLINE
  5
4E
330
17
100
AcDbEntity
  8
ROADS
100
AcDbPolyline
 90
2
 70
0
 10
622146.9353310802
 20
4841943.07795581
 10
622134.7848469369
 20
4841947.217259027
  0
LWPOLYLINE
  5
4F
330
17
100
AcDbEntity
  8
ROADS
100
AcDbPolyline
 90
2
 70
0
 10
622157.7350235214
 20
4841936.437088303
 10
622177.0380646503
 20
4841956.543373821
  0
LWPOLYLINE
  5
50
330
17
100
AcDbEntity
  8
ROADS
100
AcDbPolyline
 90
2
 70
0
 10
622429.1045713323
 20
4841672.080834834
 10
622377.5181403011
 20
4841953.3643948445
  0
LWPOLYLINE
  5
51
330
17
100
AcDbEntity
  8
ROADS
100
AcDbPolyline
 90
2
 70
0
 10
622535.6481977609
 20
4841716.947703588
 10
622461.5383987611
 20
4842107.736878275
  0
LWPOLYLINE
  5
52
330
17
100
AcDbEntity
  8
ROADS
100
AcDbPolyline
 90
2
 70
0
 10
622265.7645516754
 20
4841916.301180699
 10
622377.5181403011
 20
4841953.3643948445
  0
LWPOLYLINE
  5
53
330
17
100
AcDbEntity
  8
ROADS
100
AcDbPolyline
 90
2
 70
0
 10
622634.1708142245
 20
4841751.714329191
 10
622561.6420627248
 20
4842140.95465046
  0
LWPOLYLINE
  5
54
330
17
100
AcDbEntity
  8
ROADS
100
AcDbPolyline
 90
2
 70
0
 10
622734.2132959103
 20
4841784.449380104
 10
622661.5494682568
 20
4842173.69036655
  0
LWPOLYLINE
  5
55
330
17
100
AcDbEntity
  8
ROADS
100
AcDbPolyline
 90
2
 70
0
 10
622377.5181403011
 20
4841953.3643948445
 10
622351.0543724542
 20
4842071.474118299
  0
LWPOLYLINE
  5
56
330
17
100
AcDbEntity
  8
ROADS
100
AcDbPolyline
 90
2
 70
0
 10
622351.0543724542
 20
4842071.474118299
 10
622461.5383987611
 20
4842107.736878275
  0
LWPOLYLINE
  5
57
330
17
100
AcDbEntity
  8
ROADS
100
AcDbPolyline
 90
2
 70
0
 10
622461.5383987611
 20
4842107.736878275
 10
622561.6420627248
 20
4842140.95465046
  0
LWPOLYLINE
  5
58
330
17
100
AcDbEntity
  8
ROADS
100
AcDbPolyline
 90
2
 70
0
 10
622561.6420627248
 20
4842140.95465046
 10
622661.5494682568
 20
4842173.69036655
  0
LWPOLYLINE
  5
59
330
17
100
AcDbEntity
  8
ROADS
100
AcDbPolyline
 90
2
 70
0
 10
622661.5494682568
 20
4842173.69036655
 10
622762.4762455284
 20
4842206.79656853
  0
LWPOLYLINE
  5
5A
330
17
100
AcDbEntity
  8
ROADS
100
AcDbPolyline
 90
2
 70
0
 10
622833.8609546443
 20
4841819.827435101
 10
622927.947311521
 20
4841897.203947723
  0
LWPOLYLINE
  5
5B
330
17
100
AcDbEntity
  8
ROADS
100
AcDbPolyline
 90
2
 70
0
 10
622927.947311521
 20
4841897.203947723
 10
622943.0676545013
 20
4841909.106674001
  0
LWPOLYLINE
  5
5C
330
17
100
AcDbEntity
  8
ROADS
100
AcDbPolyline
 90
2
 70
0
 10
622833.8609546443
 20
4841819.827435101
 10
622762.4762455284
 20
4842206.79656853
  0
LWPOLYLINE
  5
5D
330
17
100
AcDbEntity
  8
ROADS
100
AcDbPolyline
 90
2
 70
0
 10
623312.4357540151
 20
4842067.549748147
 10
623181.0427715634
 20
4842024.303661482
  0
LWPOLYLINE
  5
5E
330
17
100
AcDbEntity
  8
ROADS
100
AcDbPolyline
 90
2
 70
0
 10
622927.947311521
 20
4841897.203947723
 10
622862.6679738173
 20
4842240.015492372
  0
LWPOLYLINE
  5
5F
330
17
100
AcDbEntity
  8
ROADS
100
AcDbPolyline
 90
3
 70
0
 10
622943.0676545013
 20
4841909.106674001
 10
623016.9214880144
 20
4841976.3450739775
 10
622962.1854905598
 20
4842272.803712049
  0
LWPOLYLINE
  5
60
330
17
100
AcDbEntity
  8
ROADS
100
AcDbPolyline
 90
2
 70
0
 10
622762.4762455284
 20
4842206.79656853
 10
622862.6679738173
 20
4842240.015492372
  0
LWPOLYLINE
  5
61
330
17
100
AcDbEntity
  8
ROADS
100
AcDbPolyline
 90
2
 70
0
 10
622862.6679738173
 20
4842240.015492372
 10
622962.1854905598
 20
4842272.803712049
  0
LWPOLYLINE
  5
62
330
17
100
AcDbEntity
  8
ROADS
100
AcDbPolyline
 90
2
 70
0
 10
622962.1854905598
 20
4842272.803712049
 10
623030.1013355209
 20
4842296.868575241
  0
LWPOLYLINE
  5
63
330
17
100
AcDbEntity
  8
ROADS
100
AcDbPolyline
 90
2
 70
0
 10
623249.9353581065
 20
4842362.17851699
 10
623067.591842962
 20
4842309.099704584
  0
LWPOLYLINE
  5
64
330
17
100
AcDbEntity
  8
ROADS
100
AcDbPolyline
 90
3
 70
0
 10
621784.5666703619
 20
4841758.117490822
 10
621761.935018118
 20
4841845.347947387
 10
621929.5647650361
 20
4841901.158661788
  0
LWPOLYLINE
  5
65
330
17
100
AcDbEntity
  8
ROADS
100
AcDbPolyline
 90
2
 70
0
 10
621492.5955152055
 20
4842105.118436735
 10
621511.3615193509
 20
4842113.563945069
  0
LWPOLYLINE
  5
66
330
17
100
AcDbEntity
  8
ROADS
100
AcDbPolyline
 90
2
 70
0
 10
621511.3615193509
 20
4842113.563945069
 10
621559.6754934303
 20
4842149.878479794
  0
LWPOLYLINE
  5
67
330
17
100
AcDbEntity
  8
ROADS
100
AcDbPolyline
 90
5
 70
0
 10
621559.6754934303
 20
4842149.878479794
 10
621573.177463562
 20
4842137.371269592
 10
621733.7587746106
 20
4842190.030892076
 10
621823.4226113687
 20
4842254.252613011
 10
622056.068521972
 20
4842327.625561341
  0
LWPOLYLINE
  5
68
330
17
100
AcDbEntity
  8
ROADS
100
AcDbPolyline
 90
4
 70
0
 10
621511.3615193509
 20
4842113.563945069
 10
621530.4416678488
 20
4842227.924948138
 10
621519.8803009428
 20
4842315.99280151
 10
621533.5905648107
 20
4842393.145441285
  0
LWPOLYLINE
  5
69
330
17
100
AcDbEntity
  8
ROADS
100
AcDbPolyline
 90
4
 70
0
 10
621559.6754934303
 20
4842149.878479794
 10
621545.4016530525
 20
4842205.198665216
 10
621550.2731405218
 20
4842336.576803205
 10
621533.5905648107
 20
4842393.145441285
  0
LWPOLYLINE
  5
6A
330
17
100
AcDbEntity
  8
ROADS
100
AcDbPolyline
 90
2
 70
0
 10
621983.9437248204
 20
4842541.4742073165
 10
621533.5905648107
 20
4842393.145441285
  0
LWPOLYLINE
  5
6B
330
17
100
AcDbEntity
  8
ROADS
100
AcDbPolyline
 90
3
 70
0
 10
621533.5905648107
 20
4842393.145441285
 10
621497.8647163332
 20
4842512.778268935
 10
621562.3267485404
 20
4842553.216315374
  0
LWPOLYLINE
  5
6C
330
17
100
AcDbEntity
  8
ROADS
100
AcDbPolyline
 90
3
 70
0
 10
621804.4636099754
 20
4842609.64091518
 10
621608.7631330531
 20
4842543.808849006
 10
621562.3267485404
 20
4842553.216315374
  0
LWPOLYLINE
  5
6D
330
17
100
AcDbEntity
  8
ROADS
100
AcDbPolyline
 90
2
 70
0
 10
621840.8254507118
 20
4842620.516546395
 10
621804.4636099754
 20
4842609.64091518
  0
LWPOLYLINE
  5
6E
330
17
100
AcDbEntity
  8
ROADS
100
AcDbPolyline
 90
2
 70
0
 10
622134.7848469369
 20
4841947.217259027
 10
622089.1516343155
 20
4841946.502382577
  0
LWPOLYLINE
  5
6F
330
17
100
AcDbEntity
  8
ROADS
100
AcDbPolyline
 90
2
 70
0
 10
622056.068521972
 20
4842327.625561341
 10
622300.1196120954
 20
4842381.191083249
  0
LWPOLYLINE
  5
70
330
17
100
AcDbEntity
  8
ROADS
100
AcDbPolyline
 90
2
 70
0
 10
622300.1196120954
 20
4842381.191083249
 10
622290.1036452967
 20
4842462.383677857
  0
LWPOLYLINE
  5
71
330
17
100
AcDbEntity
  8
ROADS
100
AcDbPolyline
 90
2
 70
0
 10
621983.9437248204
 20
4842541.4742073165
 10
622056.068521972
 20
4842327.625561341
  0
LWPOLYLINE
  5
72
330
17
100
AcDbEntity
  8
ROADS
100
AcDbPolyline
 90
2
 70
0
 10
622290.1036452967
 20
4842462.383677857
 10
622256.7262810592
 20
4842631.881647575
  0
LWPOLYLINE
  5
73
330
17
100
AcDbEntity
  8
ROADS
100
AcDbPolyline
 90
2
 70
0
 10
622128.2955860121
 20
4842589.538125586
 10
621983.9437248204
 20
4842541.4742073165
  0
LWPOLYLINE
  5
74
330
17
100
AcDbEntity
  8
ROADS
100
AcDbPolyline
 90
2
 70
0
 10
622256.7262810592
 20
4842631.881647575
 10
622128.2955860121
 20
4842589.538125586
  0
LWPOLYLINE
  5
75
330
17
100
AcDbEntity
  8
ROADS
100
AcDbPolyline
 90
2
 70
0
 10
621983.9437248204
 20
4842541.4742073165
 10
621918.2083216677
 20
4842744.923926234
  0
LWPOLYLINE
  5
76
330
17
100
AcDbEntity
  8
ROADS
100
AcDbPolyline
 90
2
 70
0
 10
622128.2955860121
 20
4842589.538125586
 10
622061.3906124597
 20
4842792.681739907
  0
LWPOLYLINE
  5
77
330
17
100
AcDbEntity
  8
ROADS
100
AcDbPolyline
 90
2
 70
0
 10
622256.7262810592
 20
4842631.881647575
 10
622219.9648063893
 20
4842845.184412891
  0
LWPOLYLINE
  5
78
330
17
100
AcDbEntity
  8
ROADS
100
AcDbPolyline
 90
2
 70
0
 10
622351.0543724542
 20
4842071.474118299
 10
622300.1196120954
 20
4842381.191083249
  0
LWPOLYLINE
  5
79
330
17
100
AcDbEntity
  8
ROADS
100
AcDbPolyline
 90
2
 70
0
 10
622621.0956046365
 20
4842380.609296285
 10
622604.0077759332
 20
4842468.68130993
  0
LWPOLYLINE
  5
7A
330
17
100
AcDbEntity
  8
ROADS
100
AcDbPolyline
 90
2
 70
0
 10
622724.2068037968
 20
4842416.514229296
 10
622712.4103143221
 20
4842503.69699298
  0
LWPOLYLINE
  5
7B
330
17
100
AcDbEntity
  8
ROADS
100
AcDbPolyline
 90
2
 70
0
 10
622712.4103143221
 20
4842503.69699298
 10
622604.0077759332
 20
4842468.68130993
  0
LWPOLYLINE
  5
7C
330
17
100
AcDbEntity
  8
ROADS
100
AcDbPolyline
 90
3
 70
0
 10
622290.1036452967
 20
4842462.383677857
 10
622433.6821023511
 20
4842506.000391591
 10
622415.1023075492
 20
4842727.162742215
  0
LWPOLYLINE
  5
7D
330
17
100
AcDbEntity
  8
ROADS
100
AcDbPolyline
 90
2
 70
0
 10
622604.0077759332
 20
4842468.68130993
 10
622546.1564297884
 20
4842788.997779139
  0
LWPOLYLINE
  5
7E
330
17
100
AcDbEntity
  8
ROADS
100
AcDbPolyline
 90
2
 70
0
 10
622712.4103143221
 20
4842503.69699298
 10
622655.4839873024
 20
4842824.95134889
  0
LWPOLYLINE
  5
7F
330
17
100
AcDbEntity
  8
ROADS
100
AcDbPolyline
 90
2
 70
0
 10
622415.1023075492
 20
4842727.162742215
 10
622256.7262810592
 20
4842631.881647575
  0
LWPOLYLINE
  5
80
330
17
100
AcDbEntity
  8
ROADS
100
AcDbPolyline
 90
2
 70
0
 10
622546.1564297884
 20
4842788.997779139
 10
622415.1023075492
 20
4842727.162742215
  0
LWPOLYLINE
  5
81
330
17
100
AcDbEntity
  8
ROADS
100
AcDbPolyline
 90
2
 70
0
 10
622604.459863827
 20
4842808.412008592
 10
622546.1564297884
 20
4842788.997779139
  0
LWPOLYLINE
  5
82
330
17
100
AcDbEntity
  8
ROADS
100
AcDbPolyline
 90
2
 70
0
 10
621465.1416122424
 20
4842596.959816591
 10
621510.2999850706
 20
4842654.5677680215
  0
LWPOLYLINE
  5
83
330
17
100
AcDbEntity
  8
ROADS
100
AcDbPolyline
 90
3
 70
0
 10
621775.8853353249
 20
4842698.314758379
 10
621617.3221676837
 20
4842644.108342355
 10
621562.3267485404
 20
4842553.216315374
  0
LWPOLYLINE
  5
84
330
17
100
AcDbEntity
  8
ROADS
100
AcDbPolyline
 90
2
 70
0
 10
621804.4636099754
 20
4842609.64091518
 10
621775.8853353249
 20
4842698.314758379
  0
LWPOLYLINE
  5
85
330
17
100
AcDbEntity
  8
ROADS
100
AcDbPolyline
 90
3
 70
0
 10
621510.2999850706
 20
4842654.5677680215
 10
621466.0046969774
 20
4842666.130566584
 10
621439.3453927147
 20
4842691.937709711
  0
LWPOLYLINE
  5
86
330
17
100
AcDbEntity
  8
ROADS
100
AcDbPolyline
 90
3
 70
0
 10
621510.2999850706
 20
4842654.5677680215
 10
621517.9096702235
 20
4842709.854009197
 10
621500.4006390822
 20
4842765.171608943
  0
LWPOLYLINE
  5
87
330
17
100
AcDbEntity
  8
ROADS
100
AcDbPolyline
 90
2
 70
0
 10
621918.2083216677
 20
4842744.923926234
 10
621775.8853353249
 20
4842698.314758379
  0
LWPOLYLINE
  5
88
330
17
100
AcDbEntity
  8
ROADS
100
AcDbPolyline
 90
4
 70
0
 10
621775.8853353249
 20
4842698.314758379
 10
621750.7890085396
 20
4842772.744953456
 10
621609.6507984883
 20
4842731.072465274
 10
621586.7259738852
 20
4842804.872896479
  0
LWPOLYLINE
  5
89
330
17
100
AcDbEntity
  8
ROADS
100
AcDbPolyline
 90
2
 70
0
 10
621586.7259738852
 20
4842804.872896479
 10
621500.4006390822
 20
4842765.171608943
  0
LWPOLYLINE
  5
8A
330
17
100
AcDbEntity
  8
ROADS
100
AcDbPolyline
 90
2
 70
0
 10
621500.4006390822
 20
4842765.171608943
 10
621459.6991035012
 20
4842854.905974338
  0
LWPOLYLINE
  5
8B
330
17
100
AcDbEntity
  8
ROADS
100
AcDbPolyline
 90
4
 70
0
 10
621894.2102001971
 20
4842818.57099079
 10
621839.6164557266
 20
4842807.643336944
 10
621819.384307685
 20
4842868.814967287
 10
621874.6883962436
 20
4842896.68627506
  0
LWPOLYLINE
  5
8C
330
17
100
AcDbEntity
  8
ROADS
100
AcDbPolyline
 90
6
 70
0
 10
623149.1953483294
 20
4842696.004033436
 10
623279.6279609425
 20
4842737.770922812
 10
623297.2497058968
 20
4842724.077177024
 10
623307.4318292093
 20
4842647.798601982
 10
623169.3860390175
 20
4842605.521925531
 10
623149.1953483294
 20
4842696.004033436
  0
LWPOLYLINE
  5
8D
330
17
100
AcDbEntity
  8
ROADS
100
AcDbPolyline
 90
2
 70
0
 10
623129.3655516962
 20
4842787.154696571
 10
623149.1953483294
 20
4842696.004033436
  0
LWPOLYLINE
  5
8E
330
17
100
AcDbEntity
  8
ROADS
100
AcDbPolyline
 90
2
 70
0
 10
622947.264184768
 20
4842922.915428243
 10
622655.4839873024
 20
4842824.95134889
  0
LWPOLYLINE
  5
8F
330
17
100
AcDbEntity
  8
ROADS
100
AcDbPolyline
 90
4
 70
0
 10
623421.70234449
 20
4842978.037692638
 10
623123.2373636923
 20
4842878.750372486
 10
623113.8186107246
 20
4842863.020103136
 10
623129.3655516962
 20
4842787.154696571
  0
LWPOLYLINE
  5
90
330
17
100
AcDbEntity
  8
ROADS
100
AcDbPolyline
 90
2
 70
0
 10
623104.6381296454
 20
4842976.555625851
 10
622947.264184768
 20
4842922.915428243
  0
LWPOLYLINE
  5
91
330
17
100
AcDbEntity
  8
ROADS
100
AcDbPolyline
 90
3
 70
0
 10
623104.6381296454
 20
4842976.555625851
 10
623060.306936457
 20
4843011.138941638
 10
623047.4400994143
 20
4843062.059588867
  0
LWPOLYLINE
  5
92
330
17
100
AcDbEntity
  8
ROADS
100
AcDbPolyline
 90
2
 70
0
 10
623373.7444218369
 20
4843062.812951877
 10
623104.6381296454
 20
4842976.555625851
  0
LWPOLYLINE
  5
93
330
17
100
AcDbEntity
  8
ROADS
100
AcDbPolyline
 90
2
 70
0
 10
623339.6622889951
 20
4843158.189890494
 10
623047.4400994143
 20
4843062.059588867
  0
LWPOLYLINE
  5
94
330
17
100
AcDbEntity
  8
ROADS
100
AcDbPolyline
 90
2
 70
0
 10
623047.4400994143
 20
4843062.059588867
 10
623030.0258392475
 20
4843161.220327751
  0
LWPOLYLINE
  5
95
330
17
100
AcDbEntity
  8
ROADS
100
AcDbPolyline
 90
2
 70
0
 10
623310.3142937062
 20
4843254.786565801
 10
623030.0258392475
 20
4843161.220327751
  0
LWPOLYLINE
  5
96
330
17
100
AcDbEntity
  8
ROADS
100
AcDbPolyline
 90
2
 70
0
 10
622061.3906124597
 20
4842792.681739907
 10
621918.2083216677
 20
4842744.923926234
  0
LWPOLYLINE
  5
97
330
17
100
AcDbEntity
  8
ROADS
100
AcDbPolyline
 90
2
 70
0
 10
621918.2083216677
 20
4842744.923926234
 10
621894.2102001971
 20
4842818.57099079
  0
LWPOLYLINE
  5
98
330
17
100
AcDbEntity
  8
ROADS
100
AcDbPolyline
 90
2
 70
0
 10
622219.9648063893
 20
4842845.184412891
 10
622061.3906124597
 20
4842792.681739907
  0
LWPOLYLINE
  5
99
330
17
100
AcDbEntity
  8
ROADS
100
AcDbPolyline
 90
2
 70
0
 10
622219.9648063893
 20
4842845.184412891
 10
622209.948318586
 20
4842900.543740862
  0
LWPOLYLINE
  5
9A
330
17
100
AcDbEntity
  8
ROADS
100
AcDbPolyline
 90
5
 70
0
 10
621874.6883962436
 20
4842896.68627506
 10
622073.0272883275
 20
4842953.501929212
 10
622073.7983036967
 20
4842897.095230759
 10
622047.1200253266
 20
4842875.660340845
 10
621894.2102001971
 20
4842818.57099079
  0
LWPOLYLINE
  5
9B
330
17
100
AcDbEntity
  8
ROADS
100
AcDbPolyline
 90
2
 70
0
 10
622209.948318586
 20
4842900.543740862
 10
622181.7476556499
 20
4843043.873092724
  0
LWPOLYLINE
  5
9C
330
17
100
AcDbEntity
  8
ROADS
100
AcDbPolyline
 90
3
 70
0
 10
622049.4799921737
 20
4843096.601437488
 10
622051.4454849849
 20
4843053.210975387
 10
621846.8751767441
 20
4842985.906987102
  0
LWPOLYLINE
  5
9D
330
17
100
AcDbEntity
  8
ROADS
100
AcDbPolyline
 90
3
 70
0
 10
622181.7476556499
 20
4843043.873092724
 10
622256.3851554564
 20
4843061.885938294
 10
622317.6773857097
 20
4843101.8672818355
  0
LWPOLYLINE
  5
9E
330
17
100
AcDbEntity
  8
ROADS
100
AcDbPolyline
 90
2
 70
0
 10
622181.7476556499
 20
4843043.873092724
 10
622164.2339334908
 20
4843130.714193015
  0
LWPOLYLINE
  5
9F
330
17
100
AcDbEntity
  8
ROADS
100
AcDbPolyline
 90
2
 70
0
 10
622049.4799921737
 20
4843096.601437488
 10
622097.5573810103
 20
4843111.621385867
  0
LWPOLYLINE
  5
A0
330
17
100
AcDbEntity
  8
ROADS
100
AcDbPolyline
 90
2
 70
0
 10
622655.4839873024
 20
4842824.95134889
 10
622604.459863827
 20
4842808.412008592
  0
LWPOLYLINE
  5
A1
330
17
100
AcDbEntity
  8
ROADS
100
AcDbPolyline
 90
2
 70
0
 10
622604.459863827
 20
4842808.412008592
 10
622573.8812518669
 20
4842943.003570245
  0
LWPOLYLINE
  5
A2
330
17
100
AcDbEntity
  8
ROADS
100
AcDbPolyline
 90
2
 70
0
 10
622209.948318586
 20
4842900.543740862
 10
622443.9073252844
 20
4842977.900177652
  0
LWPOLYLINE
  5
A3
330
17
100
AcDbEntity
  8
ROADS
100
AcDbPolyline
 90
2
 70
0
 10
622573.8812518669
 20
4842943.003570245
 10
622560.4251952909
 20
4842954.9040881945
  0
LWPOLYLINE
  5
A4
330
17
100
AcDbEntity
  8
ROADS
100
AcDbPolyline
 90
3
 70
0
 10
622443.9073252844
 20
4842977.900177652
 10
622458.6634312844
 20
4842925.5037444
 10
622560.4251952909
 20
4842954.9040881945
  0
LWPOLYLINE
  5
A5
330
17
100
AcDbEntity
  8
ROADS
100
AcDbPolyline
 90
2
 70
0
 10
622560.4251952909
 20
4842954.9040881945
 10
622558.1139694132
 20
4842971.816074286
  0
LWPOLYLINE
  5
A6
330
17
100
AcDbEntity
  8
ROADS
100
AcDbPolyline
 90
2
 70
0
 10
622573.8812518669
 20
4842943.003570245
 10
622571.6977564153
 20
4843009.763788526
  0
LWPOLYLINE
  5
A7
330
17
100
AcDbEntity
  8
ROADS
100
AcDbPolyline
 90
2
 70
0
 10
622397.0599408514
 20
4843129.172483004
 10
622443.9073252844
 20
4842977.900177652
  0
LWPOLYLINE
  5
A8
330
17
100
AcDbEntity
  8
ROADS
100
AcDbPolyline
 90
2
 70
0
 10
622317.6773857097
 20
4843101.8672818355
 10
622327.8230408675
 20
4843039.760956898
  0
LWPOLYLINE
  5
A9
330
17
100
AcDbEntity
  8
ROADS
100
AcDbPolyline
 90
2
 70
0
 10
622317.6773857097
 20
4843101.8672818355
 10
622397.0599408514
 20
4843129.172483004
  0
LWPOLYLINE
  5
AA
330
17
100
AcDbEntity
  8
ROADS
100
AcDbPolyline
 90
2
 70
0
 10
621533.5905648107
 20
4842393.145441285
 10
621345.0456401045
 20
4842332.701386834
  0
LWPOLYLINE
  5
AB
330
17
100
AcDbEntity
  8
ROADS
100
AcDbPolyline
 90
3
 70
0
 10
621304.2685305076
 20
4842551.289039305
 10
621401.2039850713
 20
4842602.525836213
 10
621439.3453927147
 20
4842691.937709711
  0
LWPOLYLINE
  5
AC
330
17
100
AcDbEntity
  8
ROADS
100
AcDbPolyline
 90
2
 70
0
 10
621298.9621096187
 20
4842641.872947951
 10
621338.4309405943
 20
4842673.14784971
  0
LWPOLYLINE
  5
AD
330
17
100
AcDbEntity
  8
ROADS
100
AcDbPolyline
 90
2
 70
0
 10
621338.4309405943
 20
4842673.14784971
 10
621299.9664004386
 20
4842681.25724217
  0
LWPOLYLINE
  5
AE
330
17
100
AcDbEntity
  8
ROADS
100
AcDbPolyline
 90
2
 70
0
 10
621338.4309405943
 20
4842673.14784971
 10
621364.0823171226
 20
4842729.268984489
  0
LWPOLYLINE
  5
AF
330
17
100
AcDbEntity
  8
ROADS
100
AcDbPolyline
 90
2
 70
0
 10
621439.3453927147
 20
4842691.937709711
 10
621364.0823171226
 20
4842729.268984489
  0
LWPOLYLINE
  5
B0
330
17
100
AcDbEntity
  8
ROADS
100
AcDbPolyline
 90
2
 70
0
 10
621362.9830417462
 20
4842701.380501489
 10
621364.0823171226
 20
4842729.268984489
  0
LWPOLYLINE
  5
B1
330
17
100
AcDbEntity
  8
ROADS
100
AcDbPolyline
 90
4
 70
0
 10
621364.0823171226
 20
4842729.268984489
 10
621399.7549312852
 20
4842833.965033054
 10
621377.3897056038
 20
4842849.28090954
 10
621381.3413508135
 20
4842867.100236553
  0
LWPOLYLINE
  5
B2
330
17
100
AcDbEntity
  8
ROADS
100
AcDbPolyline
 90
3
 70
0
 10
621381.3413508135
 20
4842867.100236553
 10
621440.2662230927
 20
4842844.933786071
 10
621459.6991035012
 20
4842854.905974338
  0
LWPOLYLINE
  5
B3
330
17
100
AcDbEntity
  8
ROADS
100
AcDbPolyline
 90
2
 70
0
 10
621381.3413508135
 20
4842867.100236553
 10
621334.6404954676
 20
4842883.0172758
  0
LWPOLYLINE
  5
B4
330
17
100
AcDbEntity
  8
ROADS
100
AcDbPolyline
 90
2
 70
0
 10
621459.6991035012
 20
4842854.905974338
 10
621399.9804373485
 20
4843035.850366916
  0
LWPOLYLINE
  5
B5
330
17
100
AcDbEntity
  8
ROADS
100
AcDbPolyline
 90
2
 70
0
 10
621818.0236399295
 20
4843395.450724539
 10
621787.5667423229
 20
4843501.110636293
  0
LWPOLYLINE
  5
B6
330
17
100
AcDbEntity
  8
ROADS
100
AcDbPolyline
 90
2
 70
0
 10
621902.9587574464
 20
4843423.449500643
 10
621877.468720684
 20
4843549.518506742
  0
LWPOLYLINE
  5
B7
330
17
100
AcDbEntity
  8
ROADS
100
AcDbPolyline
 90
3
 70
0
 10
621651.5444249518
 20
4842921.640456721
 10
621673.8862456843
 20
4842837.287982365
 10
621586.7259738852
 20
4842804.872896479
  0
LWPOLYLINE
  5
B8
330
17
100
AcDbEntity
  8
ROADS
100
AcDbPolyline
 90
2
 70
0
 10
621551.3450450468
 20
4842888.757318639
 10
621459.6991035012
 20
4842854.905974338
  0
LWPOLYLINE
  5
B9
330
17
100
AcDbEntity
  8
ROADS
100
AcDbPolyline
 90
2
 70
0
 10
621651.5444249518
 20
4842921.640456721
 10
621551.3450450468
 20
4842888.757318639
  0
LWPOLYLINE
  5
BA
330
17
100
AcDbEntity
  8
ROADS
100
AcDbPolyline
 90
2
 70
0
 10
621758.2972309239
 20
4842957.22535827
 10
621651.5444249518
 20
4842921.640456721
  0
LWPOLYLINE
  5
BB
330
17
100
AcDbEntity
  8
ROADS
100
AcDbPolyline
 90
2
 70
0
 10
621846.8751767441
 20
4842985.906987102
 10
621874.6883962436
 20
4842896.68627506
  0
LWPOLYLINE
  5
BC
330
17
100
AcDbEntity
  8
ROADS
100
AcDbPolyline
 90
4
 70
0
 10
621758.2972309239
 20
4842957.22535827
 10
621722.9507693799
 20
4843048.428768873
 10
621527.732012023
 20
4842986.15634212
 10
621551.3450450468
 20
4842888.757318639
  0
LWPOLYLINE
  5
BD
330
17
100
AcDbEntity
  8
ROADS
100
AcDbPolyline
 90
2
 70
0
 10
621846.8751767441
 20
4842985.906987102
 10
621758.2972309239
 20
4842957.22535827
  0
LWPOLYLINE
  5
BE
330
17
100
AcDbEntity
  8
ROADS
100
AcDbPolyline
 90
3
 70
0
 10
621921.6577916375
 20
4843115.507630764
 10
621813.9643535232
 20
4843078.682578741
 10
621846.8751767441
 20
4842985.906987102
  0
LWPOLYLINE
  5
BF
330
17
100
AcDbEntity
  8
ROADS
100
AcDbPolyline
 90
5
 70
0
 10
621663.295442546
 20
4843232.48440356
 10
621681.891266983
 20
4843135.751570964
 10
621497.3995427677
 20
4843074.169299471
 10
621482.3019126914
 20
4843083.171428271
 10
621466.3139351706
 20
4843137.742346127
  0
LWPOLYLINE
  5
C0
330
17
100
AcDbEntity
  8
ROADS
100
AcDbPolyline
 90
2
 70
0
 10
621555.3172176155
 20
4843211.838922319
 10
621501.5030294345
 20
4843194.084412969
  0
LWPOLYLINE
  5
C1
330
17
100
AcDbEntity
  8
ROADS
100
AcDbPolyline
 90
2
 70
0
 10
622097.5573810103
 20
4843111.621385867
 10
622164.2339334908
 20
4843130.714193015
  0
LWPOLYLINE
  5
C2
330
17
100
AcDbEntity
  8
ROADS
100
AcDbPolyline
 90
3
 70
0
 10
622049.4799921737
 20
4843096.601437488
 10
622025.3263900536
 20
4843146.348571434
 10
621921.6577916375
 20
4843115.507630764
  0
LWPOLYLINE
  5
C3
330
17
100
AcDbEntity
  8
ROADS
100
AcDbPolyline
 90
2
 70
0
 10
621921.6577916375
 20
4843115.507630764
 10
621891.1763952812
 20
4843205.004054014
  0
LWPOLYLINE
  5
C4
330
17
100
AcDbEntity
  8
ROADS
100
AcDbPolyline
 90
2
 70
0
 10
622164.2339334908
 20
4843130.714193015
 10
622135.8406430654
 20
4843278.768244239
  0
LWPOLYLINE
  5
C5
330
17
100
AcDbEntity
  8
ROADS
100
AcDbPolyline
 90
2
 70
0
 10
622032.0212454727
 20
4843366.358083652
 10
622097.5573810103
 20
4843111.621385867
  0
LWPOLYLINE
  5
C6
330
17
100
AcDbEntity
  8
ROADS
100
AcDbPolyline
 90
2
 70
0
 10
622243.7665132316
 20
4843275.798708092
 10
622253.6994996778
 20
4843221.961945615
  0
LWPOLYLINE
  5
C7
330
17
100
AcDbEntity
  8
ROADS
100
AcDbPolyline
 90
3
 70
0
 10
621985.4627703273
 20
4843337.757960446
 10
622000.2295095407
 20
4843242.900816793
 10
621891.1763952812
 20
4843205.004054014
  0
LWPOLYLINE
  5
C8
330
17
100
AcDbEntity
  8
ROADS
100
AcDbPolyline
 90
2
 70
0
 10
622135.8406430654
 20
4843278.768244239
 10
622122.1264674583
 20
4843349.841354874
  0
LWPOLYLINE
  5
C9
330
17
100
AcDbEntity
  8
ROADS
100
AcDbPolyline
 90
2
 70
0
 10
621985.4627703273
 20
4843337.757960446
 10
621853.5432303705
 20
4843295.573053995
  0
LWPOLYLINE
  5
CA
330
17
100
AcDbEntity
  8
ROADS
100
AcDbPolyline
 90
3
 70
0
 10
622135.8406430654
 20
4843278.768244239
 10
622200.4949640998
 20
4843301.072633846
 10
622188.040501525
 20
4843368.739398719
  0
LWPOLYLINE
  5
CB
330
17
100
AcDbEntity
  8
ROADS
100
AcDbPolyline
 90
3
 70
0
 10
622397.0599408514
 20
4843129.172483004
 10
622425.3686301265
 20
4843144.733644536
 10
622406.5095450766
 20
4843227.556257338
  0
LWPOLYLINE
  5
CC
330
17
100
AcDbEntity
  8
ROADS
100
AcDbPolyline
 90
2
 70
0
 10
622406.5095450766
 20
4843227.556257338
 10
622362.3148435008
 20
4843213.445603979
  0
LWPOLYLINE
  5
CD
330
17
100
AcDbEntity
  8
ROADS
100
AcDbPolyline
 90
2
 70
0
 10
622406.5095450766
 20
4843227.556257338
 10
622554.1466890641
 20
4843276.005015538
  0
LWPOLYLINE
  5
CE
330
17
100
AcDbEntity
  8
ROADS
100
AcDbPolyline
 90
2
 70
0
 10
622406.5095450766
 20
4843227.556257338
 10
622381.7039981249
 20
4843320.607712508
  0
LWPOLYLINE
  5
CF
330
17
100
AcDbEntity
  8
ROADS
100
AcDbPolyline
 90
2
 70
0
 10
622601.0119367898
 20
4843296.170819828
 10
622611.7539155841
 20
4843254.380730612
  0
LWPOLYLINE
  5
D0
330
17
100
AcDbEntity
  8
ROADS
100
AcDbPolyline
 90
2
 70
0
 10
622243.7665132316
 20
4843275.798708092
 10
622381.7039981249
 20
4843320.607712508
  0
LWPOLYLINE
  5
D1
330
17
100
AcDbEntity
  8
ROADS
100
AcDbPolyline
 90
2
 70
0
 10
622601.0119367898
 20
4843296.170819828
 10
622666.123357526
 20
4843318.97304053
  0
LWPOLYLINE
  5
D2
330
17
100
AcDbEntity
  8
ROADS
100
AcDbPolyline
 90
2
 70
0
 10
622666.123357526
 20
4843318.97304053
 10
622720.8136869217
 20
4843335.896844251
  0
LWPOLYLINE
  5
D3
330
17
100
AcDbEntity
  8
ROADS
100
AcDbPolyline
 90
2
 70
0
 10
622720.8136869217
 20
4843335.896844251
 10
622803.6561694053
 20
4843363.219763035
  0
LWPOLYLINE
  5
D4
330
17
100
AcDbEntity
  8
ROADS
100
AcDbPolyline
 90
2
 70
0
 10
622571.2508058181
 20
4843409.12708651
 10
622601.0119367898
 20
4843296.170819828
  0
LWPOLYLINE
  5
D5
330
17
100
AcDbEntity
  8
ROADS
100
AcDbPolyline
 90
3
 70
0
 10
621891.1763952812
 20
4843205.004054014
 10
621783.8960524632
 20
4843176.959859509
 10
621754.3803951857
 20
4843262.550541642
  0
LWPOLYLINE
  5
D6
330
17
100
AcDbEntity
  8
ROADS
100
AcDbPolyline
 90
2
 70
0
 10
621663.295442546
 20
4843232.48440356
 10
621555.3172176155
 20
4843211.838922319
  0
LWPOLYLINE
  5
D7
330
17
100
AcDbEntity
  8
ROADS
100
AcDbPolyline
 90
2
 70
0
 10
621754.3803951857
 20
4843262.550541642
 10
621663.295442546
 20
4843232.48440356
  0
LWPOLYLINE
  5
D8
330
17
100
AcDbEntity
  8
ROADS
100
AcDbPolyline
 90
2
 70
0
 10
621555.3172176155
 20
4843211.838922319
 10
621538.7098346946
 20
4843257.446519002
  0
LWPOLYLINE
  5
D9
330
17
100
AcDbEntity
  8
ROADS
100
AcDbPolyline
 90
2
 70
0
 10
621853.5432303705
 20
4843295.573053995
 10
621754.3803951857
 20
4843262.550541642
  0
LWPOLYLINE
  5
DA
330
17
100
AcDbEntity
  8
ROADS
100
AcDbPolyline
 90
2
 70
0
 10
621853.5432303705
 20
4843295.573053995
 10
621818.0236399295
 20
4843395.450724539
  0
LWPOLYLINE
  5
DB
330
17
100
AcDbEntity
  8
ROADS
100
AcDbPolyline
 90
2
 70
0
 10
621818.0236399295
 20
4843395.450724539
 10
621582.3376527413
 20
4843318.179341361
  0
LWPOLYLINE
  5
DC
330
17
100
AcDbEntity
  8
ROADS
100
AcDbPolyline
 90
2
 70
0
 10
621902.9587574464
 20
4843423.449500643
 10
621818.0236399295
 20
4843395.450724539
  0
LWPOLYLINE
  5
DD
330
17
100
AcDbEntity
  8
ROADS
100
AcDbPolyline
 90
2
 70
0
 10
622214.5039200331
 20
4843376.298788704
 10
622243.7665132316
 20
4843275.798708092
  0
LWPOLYLINE
  5
DE
330
17
100
AcDbEntity
  8
ROADS
100
AcDbPolyline
 90
2
 70
0
 10
622032.0212454727
 20
4843366.358083652
 10
621985.4627703273
 20
4843337.757960446
  0
LWPOLYLINE
  5
DF
330
17
100
AcDbEntity
  8
ROADS
100
AcDbPolyline
 90
2
 70
0
 10
622122.1264674583
 20
4843349.841354874
 10
622188.040501525
 20
4843368.739398719
  0
LWPOLYLINE
  5
E0
330
17
100
AcDbEntity
  8
ROADS
100
AcDbPolyline
 90
2
 70
0
 10
622188.040501525
 20
4843368.739398719
 10
622214.5039200331
 20
4843376.298788704
  0
LWPOLYLINE
  5
E1
330
17
100
AcDbEntity
  8
ROADS
100
AcDbPolyline
 90
2
 70
0
 10
622122.1264674583
 20
4843349.841354874
 10
622112.4934560747
 20
4843399.591330013
  0
LWPOLYLINE
  5
E2
330
17
100
AcDbEntity
  8
ROADS
100
AcDbPolyline
 90
2
 70
0
 10
622112.4934560747
 20
4843399.591330013
 10
622032.0212454727
 20
4843366.358083652
  0
LWPOLYLINE
  5
E3
330
17
100
AcDbEntity
  8
ROADS
100
AcDbPolyline
 90
3
 70
0
 10
622108.2761304633
 20
4843422.248058133
 10
622176.3738788626
 20
4843431.6101929
 10
622188.040501525
 20
4843368.739398719
  0
LWPOLYLINE
  5
E4
330
17
100
AcDbEntity
  8
ROADS
100
AcDbPolyline
 90
2
 70
0
 10
622112.4934560747
 20
4843399.591330013
 10
622108.2761304633
 20
4843422.248058133
  0
LWPOLYLINE
  5
E5
330
17
100
AcDbEntity
  8
ROADS
100
AcDbPolyline
 90
2
 70
0
 10
622108.2761304633
 20
4843422.248058133
 10
622095.4974012352
 20
4843487.717826889
  0
LWPOLYLINE
  5
E6
330
17
100
AcDbEntity
  8
ROADS
100
AcDbPolyline
 90
2
 70
0
 10
622095.4974012352
 20
4843487.717826889
 10
621902.9587574464
 20
4843423.449500643
  0
LWPOLYLINE
  5
E7
330
17
100
AcDbEntity
  8
ROADS
100
AcDbPolyline
 90
2
 70
0
 10
622640.4477906681
 20
4843431.30075268
 10
622666.123357526
 20
4843318.97304053
  0
LWPOLYLINE
  5
E8
330
17
100
AcDbEntity
  8
ROADS
100
AcDbPolyline
 90
3
 70
0
 10
622381.7039981249
 20
4843320.607712508
 10
622483.5824908267
 20
4843356.207582496
 10
622452.6826879885
 20
4843453.176921769
  0
LWPOLYLINE
  5
E9
330
17
100
AcDbEntity
  8
ROADS
100
AcDbPolyline
 90
2
 70
0
 10
622701.6442382258
 20
4843451.0524846595
 10
622720.8136869217
 20
4843335.896844251
  0
LWPOLYLINE
  5
EA
330
17
100
AcDbEntity
  8
ROADS
100
AcDbPolyline
 90
2
 70
0
 10
622214.5039200331
 20
4843376.298788704
 10
622452.6826879885
 20
4843453.176921769
  0
LWPOLYLINE
  5
EB
330
17
100
AcDbEntity
  8
ROADS
100
AcDbPolyline
 90
2
 70
0
 10
622571.2508058181
 20
4843409.12708651
 10
622640.4477906681
 20
4843431.30075268
  0
LWPOLYLINE
  5
EC
330
17
100
AcDbEntity
  8
ROADS
100
AcDbPolyline
 90
2
 70
0
 10
622640.4477906681
 20
4843431.30075268
 10
622701.6442382258
 20
4843451.0524846595
  0
LWPOLYLINE
  5
ED
330
17
100
AcDbEntity
  8
ROADS
100
AcDbPolyline
 90
2
 70
0
 10
622701.6442382258
 20
4843451.0524846595
 10
622787.978989898
 20
4843463.729926637
  0
LWPOLYLINE
  5
EE
330
17
100
AcDbEntity
  8
ROADS
100
AcDbPolyline
 90
5
 70
0
 10
622214.5039200331
 20
4843376.298788704
 10
622197.5861732448
 20
4843471.811081442
 10
622292.9834714708
 20
4843508.781721625
 10
622416.1516925542
 20
4843544.782048925
 10
622452.6826879885
 20
4843453.176921769
  0
LWPOLYLINE
  5
EF
330
17
100
AcDbEntity
  8
ROADS
100
AcDbPolyline
 90
2
 70
0
 10
622686.653645453
 20
4843538.880422507
 10
622701.6442382258
 20
4843451.0524846595
  0
LWPOLYLINE
  5
F0
330
17
100
AcDbEntity
  8
ROADS
100
AcDbPolyline
 90
2
 70
0
 10
622771.9674622052
 20
4843551.385397
 10
622787.978989898
 20
4843463.729926637
  0
LWPOLYLINE
  5
F1
330
17
100
AcDbEntity
  8
ROADS
100
AcDbPolyline
 90
2
 70
0
 10
622495.3069726906
 20
4843617.178428426
 10
622571.2508058181
 20
4843409.12708651
  0
LWPOLYLINE
  5
F2
330
17
100
AcDbEntity
  8
ROADS
100
AcDbPolyline
 90
2
 70
0
 10
622686.653645453
 20
4843538.880422507
 10
622771.9674622052
 20
4843551.385397
  0
LWPOLYLINE
  5
F3
330
17
100
AcDbEntity
  8
ROADS
100
AcDbPolyline
 90
2
 70
0
 10
622646.334683712
 20
4843707.476790469
 10
622686.653645453
 20
4843538.880422507
  0
LWPOLYLINE
  5
F4
330
17
100
AcDbEntity
  8
ROADS
100
AcDbPolyline
 90
2
 70
0
 10
622737.0823723334
 20
4843761.488210594
 10
622771.9674622052
 20
4843551.385397
  0
LWPOLYLINE
  5
F5
330
17
100
AcDbEntity
  8
ROADS
100
AcDbPolyline
 90
2
 70
0
 10
622462.7450215277
 20
4843703.320136745
 10
622495.3069726906
 20
4843617.178428426
  0
LWPOLYLINE
  5
F6
330
17
100
AcDbEntity
  8
ROADS
100
AcDbPolyline
 90
2
 70
0
 10
622495.3069726906
 20
4843617.178428426
 10
622646.334683712
 20
4843707.476790469
  0
LWPOLYLINE
  5
F7
330
17
100
AcDbEntity
  8
ROADS
100
AcDbPolyline
 90
3
 70
0
 10
622219.7385707442
 20
4843731.703433608
 10
622333.2840984683
 20
4843693.30507653
 10
622462.7450215277
 20
4843703.320136745
  0
LWPOLYLINE
  5
F8
330
17
100
AcDbEntity
  8
ROADS
100
AcDbPolyline
 90
2
 70
0
 10
622462.7450215277
 20
4843703.320136745
 10
622436.0762014773
 20
4843728.594579054
  0
LWPOLYLINE
  5
F9
330
17
100
AcDbEntity
  8
ROADS
100
AcDbPolyline
 90
2
 70
0
 10
622462.7450215277
 20
4843703.320136745
 10
622483.062266916
 20
4843744.51492209
  0
LWPOLYLINE
  5
FA
330
17
100
AcDbEntity
  8
ROADS
100
AcDbPolyline
 90
2
 70
0
 10
622646.334683712
 20
4843707.476790469
 10
622694.3256796245
 20
4843753.842821918
  0
LWPOLYLINE
  5
FB
330
17
100
AcDbEntity
  8
ROADS
100
AcDbPolyline
 90
2
 70
0
 10
622095.4974012352
 20
4843487.717826889
 10
622090.2875926043
 20
4843515.756840563
  0
LWPOLYLINE
  5
FC
330
17
100
AcDbEntity
  8
ROADS
100
AcDbPolyline
 90
4
 70
0
 10
622090.2875926043
 20
4843515.756840563
 10
622204.8106141761
 20
4843556.657885834
 10
622190.5416636367
 20
4843667.376838813
 10
622219.7385707442
 20
4843731.703433608
  0
LWPOLYLINE
  5
FD
330
17
100
AcDbEntity
  8
ROADS
100
AcDbPolyline
 90
2
 70
0
 10
622090.2875926043
 20
4843515.756840563
 10
622038.8802084813
 20
4843772.902343134
  0
LWPOLYLINE
  5
FE
330
17
100
AcDbEntity
  8
ROADS
100
AcDbPolyline
 90
2
 70
0
 10
622219.7385707442
 20
4843731.703433608
 10
622230.2418018475
 20
4843755.968724607
  0
LWPOLYLINE
  5
FF
330
17
100
AcDbEntity
  8
ROADS
100
AcDbPolyline
 90
2
 70
0
 10
622219.7385707442
 20
4843731.703433608
 10
622159.9863893981
 20
4843764.314301591
  0
LWPOLYLINE
  5
100
330
17
100
AcDbEntity
  8
ROADS
100
AcDbPolyline
 90
2
 70
0
 10
622038.8802084813
 20
4843772.902343134
 10
622007.0168438111
 20
4843766.5434225425
  0
LWPOLYLINE
  5
101
330
17
100
AcDbEntity
  8
ROADS
100
AcDbPolyline
 90
2
 70
0
 10
622159.9863893981
 20
4843764.314301591
 10
622038.8802084813
 20
4843772.902343134
  0
LWPOLYLINE
  5
102
330
17
100
AcDbEntity
  8
ROADS
100
AcDbPolyline
 90
3
 70
0
 10
622307.9675901862
 20
4843779.606906845
 10
622318.1708574768
 20
4843756.473508644
 10
622259.5978099176
 20
4843786.4551025275
  0
LWPOLYLINE
  5
103
330
17
100
AcDbEntity
  8
ROADS
100
AcDbPolyline
 90
2
 70
0
 10
622182.95217996
 20
4843793.4974307865
 10
622230.2418018475
 20
4843755.968724607
  0
LWPOLYLINE
  5
104
330
17
100
AcDbEntity
  8
ROADS
100
AcDbPolyline
 90
2
 70
0
 10
622255.615063409
 20
4843771.156774629
 10
622259.5978099176
 20
4843786.4551025275
  0
LWPOLYLINE
  5
105
330
17
100
AcDbEntity
  8
ROADS
100
AcDbPolyline
 90
2
 70
0
 10
622436.0762014773
 20
4843728.594579054
 10
622483.062266916
 20
4843744.51492209
  0
LWPOLYLINE
  5
106
330
17
100
AcDbEntity
  8
ROADS
100
AcDbPolyline
 90
3
 70
0
 10
622230.2418018475
 20
4843755.968724607
 10
622327.0198665871
 20
4843722.634081067
 10
622436.0762014773
 20
4843728.594579054
  0
LWPOLYLINE
  5
107
330
17
100
AcDbEntity
  8
ROADS
100
AcDbPolyline
 90
2
 70
0
 10
622462.7450215277
 20
4843703.320136745
 10
622590.6888719897
 20
4843780.731018479
  0
LWPOLYLINE
  5
108
330
17
100
AcDbEntity
  8
ROADS
100
AcDbPolyline
 90
2
 70
0
 10
622590.6888719897
 20
4843780.731018479
 10
622646.334683712
 20
4843707.476790469
  0
LWPOLYLINE
  5
109
330
17
100
AcDbEntity
  8
ROADS
100
AcDbPolyline
 90
2
 70
0
 10
622694.3256796245
 20
4843753.842821918
 10
622737.0823723334
 20
4843761.488210594
  0
LWPOLYLINE
  5
10A
330
17
100
AcDbEntity
  8
ROADS
100
AcDbPolyline
 90
2
 70
0
 10
622483.062266916
 20
4843744.51492209
 10
622568.4412448496
 20
4843800.813248802
  0
LWPOLYLINE
  5
10B
330
17
100
AcDbEntity
  8
ROADS
100
AcDbPolyline
 90
4
 70
0
 10
622694.3256796245
 20
4843753.842821918
 10
622684.5938013054
 20
4843790.544443415
 10
622698.3316863264
 20
4843813.2362492625
 10
622727.5106592549
 20
4843820.718840913
  0
LWPOLYLINE
  5
10C
330
17
100
AcDbEntity
  8
ROADS
100
AcDbPolyline
 90
2
 70
0
 10
622590.6888719897
 20
4843780.731018479
 10
622568.4412448496
 20
4843800.813248802
  0
LWPOLYLINE
  5
10D
330
17
100
AcDbEntity
  8
ROADS
100
AcDbPolyline
 90
2
 70
0
 10
622727.5106592549
 20
4843820.718840913
 10
622737.0823723334
 20
4843761.488210594
  0
LWPOLYLINE
  5
10E
330
17
100
AcDbEntity
  8
ROADS
100
AcDbPolyline
 90
2
 70
0
 10
622568.4412448496
 20
4843800.813248802
 10
622604.140154357
 20
4843841.570486249
  0
LWPOLYLINE
  5
10F
330
17
100
AcDbEntity
  8
ROADS
100
AcDbPolyline
 90
2
 70
0
 10
622159.9863893981
 20
4843764.314301591
 10
622182.95217996
 20
4843793.4974307865
  0
LWPOLYLINE
  5
110
330
17
100
AcDbEntity
  8
ROADS
100
AcDbPolyline
 90
2
 70
0
 10
622071.3628249111
 20
4843800.351663288
 10
622038.8802084813
 20
4843772.902343134
  0
LWPOLYLINE
  5
111
330
17
100
AcDbEntity
  8
ROADS
100
AcDbPolyline
 90
2
 70
0
 10
622259.5978099176
 20
4843786.4551025275
 10
622210.8653662791
 20
4843819.522976555
  0
LWPOLYLINE
  5
112
330
17
100
AcDbEntity
  8
ROADS
100
AcDbPolyline
 90
2
 70
0
 10
622173.5897279204
 20
4843813.549893757
 10
622182.95217996
 20
4843793.4974307865
  0
LWPOLYLINE
  5
113
330
17
100
AcDbEntity
  8
ROADS
100
AcDbPolyline
 90
2
 70
0
 10
622182.95217996
 20
4843793.4974307865
 10
622210.8653662791
 20
4843819.522976555
  0
LWPOLYLINE
  5
114
330
17
100
AcDbEntity
  8
ROADS
100
AcDbPolyline
 90
3
 70
0
 10
622173.4158348258
 20
4843846.245295459
 10
622126.1748622106
 20
4843836.508629645
 10
622071.3628249111
 20
4843800.351663288
  0
LWPOLYLINE
  5
115
330
17
100
AcDbEntity
  8
ROADS
100
AcDbPolyline
 90
2
 70
0
 10
622173.5897279204
 20
4843813.549893757
 10
622173.4158348258
 20
4843846.245295459
  0
LWPOLYLINE
  5
116
330
17
100
AcDbEntity
  8
ROADS
100
AcDbPolyline
 90
3
 70
0
 10
622173.5897279204
 20
4843813.549893757
 10
622191.2663993953
 20
4843832.395787909
 10
622187.9254033176
 20
4843871.717171321
  0
LWPOLYLINE
  5
117
330
17
100
AcDbEntity
  8
ROADS
100
AcDbPolyline
 90
3
 70
0
 10
622259.5978099176
 20
4843786.4551025275
 10
622298.9963906392
 20
4843851.681945651
 10
622277.3628793359
 20
4843903.798799373
  0
LWPOLYLINE
  5
118
330
17
100
AcDbEntity
  8
ROADS
100
AcDbPolyline
 90
2
 70
0
 10
622038.8802084813
 20
4843772.902343134
 10
622011.561315825
 20
4843922.247800551
  0
LWPOLYLINE
  5
119
330
17
100
AcDbEntity
  8
ROADS
100
AcDbPolyline
 90
2
 70
0
 10
622210.8653662791
 20
4843819.522976555
 10
622209.2654663909
 20
4843887.623248745
  0
LWPOLYLINE
  5
11A
330
17
100
AcDbEntity
  8
ROADS
100
AcDbPolyline
 90
2
 70
0
 10
622173.4158348258
 20
4843846.245295459
 10
622187.9254033176
 20
4843871.717171321
  0
LWPOLYLINE
  5
11B
330
17
100
AcDbEntity
  8
ROADS
100
AcDbPolyline
 90
2
 70
0
 10
622071.3628249111
 20
4843800.351663288
 10
622037.9630318496
 20
4843924.1548479
  0
LWPOLYLINE
  5
11C
330
17
100
AcDbEntity
  8
ROADS
100
AcDbPolyline
 90
2
 70
0
 10
622187.9254033176
 20
4843871.717171321
 10
622209.2654663909
 20
4843887.623248745
  0
LWPOLYLINE
  5
11D
330
17
100
AcDbEntity
  8
ROADS
100
AcDbPolyline
 90
2
 70
0
 10
622209.2654663909
 20
4843887.623248745
 10
622277.3628793359
 20
4843903.798799373
  0
LWPOLYLINE
  5
11E
330
17
100
AcDbEntity
  8
ROADS
100
AcDbPolyline
 90
2
 70
0
 10
622011.561315825
 20
4843922.247800551
 10
621982.6534636355
 20
4843916.977217844
  0
LWPOLYLINE
  5
11F
330
17
100
AcDbEntity
  8
ROADS
100
AcDbPolyline
 90
2
 70
0
 10
622037.9630318496
 20
4843924.1548479
 10
622028.4706939798
 20
4843974.084350721
  0
LWPOLYLINE
  5
120
330
17
100
AcDbEntity
  8
ROADS
100
AcDbPolyline
 90
3
 70
0
 10
622037.9630318496
 20
4843924.1548479
 10
622051.2757242832
 20
4843926.415957752
 10
622041.5902897667
 20
4843976.515974801
  0
LWPOLYLINE
  5
121
330
17
100
AcDbEntity
  8
ROADS
100
AcDbPolyline
 90
2
 70
0
 10
622028.4706939798
 20
4843974.084350721
 10
622041.5902897667
 20
4843976.515974801
  0
LWPOLYLINE
  5
122
330
17
100
AcDbEntity
  8
ROADS
100
AcDbPolyline
 90
2
 70
0
 10
622590.6888719897
 20
4843780.731018479
 10
622655.3125156213
 20
4843879.637718924
  0
LWPOLYLINE
  5
123
330
17
100
AcDbEntity
  8
ROADS
100
AcDbPolyline
 90
3
 70
0
 10
622655.3125156213
 20
4843879.637718924
 10
622711.5272758282
 20
4843853.067079594
 10
622727.5106592549
 20
4843820.718840913
  0
LWPOLYLINE
  5
124
330
17
100
AcDbEntity
  8
ROADS
100
AcDbPolyline
 90
2
 70
0
 10
622604.140154357
 20
4843841.570486249
 10
622593.235932299
 20
4843860.611013244
  0
LWPOLYLINE
  5
125
330
17
100
AcDbEntity
  8
ROADS
100
AcDbPolyline
 90
2
 70
0
 10
622604.140154357
 20
4843841.570486249
 10
622622.2454180558
 20
4843869.997631385
  0
LWPOLYLINE
  5
126
330
17
100
AcDbEntity
  8
ROADS
100
AcDbPolyline
 90
2
 70
0
 10
622622.2454180558
 20
4843869.997631385
 10
622593.235932299
 20
4843860.611013244
  0
LWPOLYLINE
  5
127
330
17
100
AcDbEntity
  8
ROADS
100
AcDbPolyline
 90
4
 70
0
 10
622593.235932299
 20
4843860.611013244
 10
622520.9507794394
 20
4843874.622108583
 10
622482.1186704325
 20
4843914.683062112
 10
622475.4906981407
 20
4843951.010829021
  0
LWPOLYLINE
  5
128
330
17
100
AcDbEntity
  8
ROADS
100
AcDbPolyline
 90
2
 70
0
 10
622655.3125156213
 20
4843879.637718924
 10
622672.7783024951
 20
4843949.021296088
  0
LWPOLYLINE
  5
129
330
17
100
AcDbEntity
  8
ROADS
100
AcDbPolyline
 90
2
 70
0
 10
622475.4906981407
 20
4843951.010829021
 10
622486.8932239411
 20
4843975.869454445
  0
LWPOLYLINE
  5
12A
330
17
100
AcDbEntity
  8
ROADS
100
AcDbPolyline
 90
2
 70
0
 10
622464.6991599902
 20
4843979.072820656
 10
622475.4906981407
 20
4843951.010829021
  0
LWPOLYLINE
  5
12B
330
17
100
AcDbEntity
  8
ROADS
100
AcDbPolyline
 90
5
 70
0
 10
622622.2454180558
 20
4843869.997631385
 10
622642.3720166394
 20
4843923.3795898715
 10
622635.2724388838
 20
4843980.729861771
 10
622609.699416377
 20
4844021.427884618
 10
622552.1305280984
 20
4844065.8438392095
  0
LWPOLYLINE
  5
12C
330
17
100
AcDbEntity
  8
ROADS
100
AcDbPolyline
 90
3
 70
0
 10
622277.3628793359
 20
4843903.798799373
 10
622318.7639443825
 20
4843955.607769945
 10
622328.6462847645
 20
4844093.212260584
  0
LWPOLYLINE
  5
12D
330
17
100
AcDbEntity
  8
ROADS
100
AcDbPolyline
 90
2
 70
0
 10
622028.4706939798
 20
4843974.084350721
 10
622014.2590883158
 20
4844046.442467893
  0
LWPOLYLINE
  5
12E
330
17
100
AcDbEntity
  8
ROADS
100
AcDbPolyline
 90
2
 70
0
 10
622041.5902897667
 20
4843976.515974801
 10
622027.2760397827
 20
4844049.3512588795
  0
LWPOLYLINE
  5
12F
330
17
100
AcDbEntity
  8
ROADS
100
AcDbPolyline
 90
2
 70
0
 10
622011.561315825
 20
4843922.247800551
 10
621976.2139457209
 20
4844104.240418197
  0
LWPOLYLINE
  5
130
330
17
100
AcDbEntity
  8
ROADS
100
AcDbPolyline
 90
2
 70
0
 10
622014.2590883158
 20
4844046.442467893
 10
622027.2760397827
 20
4844049.3512588795
  0
LWPOLYLINE
  5
131
330
17
100
AcDbEntity
  8
ROADS
100
AcDbPolyline
 90
2
 70
0
 10
622014.2590883158
 20
4844046.442467893
 10
622008.0226453297
 20
4844110.525905591
  0
LWPOLYLINE
  5
132
330
17
100
AcDbEntity
  8
ROADS
100
AcDbPolyline
 90
2
 70
0
 10
622027.2760397827
 20
4844049.3512588795
 10
622008.0226453297
 20
4844110.525905591
  0
LWPOLYLINE
  5
133
330
17
100
AcDbEntity
  8
ROADS
100
AcDbPolyline
 90
2
 70
0
 10
621976.2139457209
 20
4844104.240418197
 10
622008.0226453297
 20
4844110.525905591
  0
LWPOLYLINE
  5
134
330
17
100
AcDbEntity
  8
ROADS
100
AcDbPolyline
 90
2
 70
0
 10
621976.2139457209
 20
4844104.240418197
 10
621969.3844344473
 20
4844139.10540983
  0
LWPOLYLINE
  5
135
330
17
100
AcDbEntity
  8
ROADS
100
AcDbPolyline
 90
3
 70
0
 10
622008.0226453297
 20
4844110.525905591
 10
622030.4144366048
 20
4844115.18016838
 10
622043.9553233585
 20
4844161.178473896
  0
LWPOLYLINE
  5
136
330
17
100
AcDbEntity
  8
ROADS
100
AcDbPolyline
 90
2
 70
0
 10
622464.6991599902
 20
4843979.072820656
 10
622486.8932239411
 20
4843975.869454445
  0
LWPOLYLINE
  5
137
330
17
100
AcDbEntity
  8
ROADS
100
AcDbPolyline
 90
3
 70
0
 10
622486.8932239411
 20
4843975.869454445
 10
622524.8333415538
 20
4844009.272918595
 10
622536.064005727
 20
4844061.907785158
  0
LWPOLYLINE
  5
138
330
17
100
AcDbEntity
  8
ROADS
100
AcDbPolyline
 90
3
 70
0
 10
622340.6860622567
 20
4844092.980214882
 10
622363.5719985894
 20
4844018.74997549
 10
622464.6991599902
 20
4843979.072820656
  0
LWPOLYLINE
  5
139
330
17
100
AcDbEntity
  8
ROADS
100
AcDbPolyline
 90
2
 70
0
 10
622536.064005727
 20
4844061.907785158
 10
622552.1305280984
 20
4844065.8438392095
  0
LWPOLYLINE
  5
13A
330
17
100
AcDbEntity
  8
ROADS
100
AcDbPolyline
 90
2
 70
0
 10
622536.064005727
 20
4844061.907785158
 10
622536.6485159225
 20
4844089.002680765
  0
LWPOLYLINE
  5
13B
330
17
100
AcDbEntity
  8
ROADS
100
AcDbPolyline
 90
2
 70
0
 10
622552.1305280984
 20
4844065.8438392095
 10
622536.6485159225
 20
4844089.002680765
  0
LWPOLYLINE
  5
13C
330
17
100
AcDbEntity
  8
ROADS
100
AcDbPolyline
 90
2
 70
0
 10
622340.6860622567
 20
4844092.980214882
 10
622328.6462847645
 20
4844093.212260584
  0
LWPOLYLINE
  5
13D
330
17
100
AcDbEntity
  8
ROADS
100
AcDbPolyline
 90
6
 70
0
 10
622552.1305280984
 20
4844065.8438392095
 10
622576.4312226871
 20
4844086.1427579215
 10
622622.8893066355
 20
4844052.789197089
 10
622658.2101644884
 20
4844067.806366708
 10
622671.4167083757
 20
4844123.767189778
 10
622643.4500355755
 20
4844161.7317384835
  0
LWPOLYLINE
  5
13E
330
17
100
AcDbEntity
  8
ROADS
100
AcDbPolyline
 90
2
 70
0
 10
622326.8762864671
 20
4844131.928570237
 10
622340.6860622567
 20
4844092.980214882
  0
LWPOLYLINE
  5
13F
330
17
100
AcDbEntity
  8
ROADS
100
AcDbPolyline
 90
2
 70
0
 10
622326.8762864671
 20
4844131.928570237
 10
622328.6462847645
 20
4844093.212260584
  0
LWPOLYLINE
  5
140
330
17
100
AcDbEntity
  8
ROADS
100
AcDbPolyline
 90
4
 70
0
 10
622043.9553233585
 20
4844161.178473896
 10
622062.998339632
 20
4844176.85896684
 10
622068.2817892898
 20
4844151.273413461
 10
622083.0260146481
 20
4844173.504390443
  0
LWPOLYLINE
  5
141
330
17
100
AcDbEntity
  8
ROADS
100
AcDbPolyline
 90
2
 70
0
 10
622008.0226453297
 20
4844110.525905591
 10
621981.4198852428
 20
4844225.55634862
  0
LWPOLYLINE
  5
142
330
17
100
AcDbEntity
  8
ROADS
100
AcDbPolyline
 90
2
 70
0
 10
622179.8632795552
 20
4844173.466532744
 10
622192.5380597804
 20
4844165.502619161
  0
LWPOLYLINE
  5
143
330
17
100
AcDbEntity
  8
ROADS
100
AcDbPolyline
 90
2
 70
0
 10
622043.9553233585
 20
4844161.178473896
 10
622064.3017598265
 20
4844192.3052914115
  0
LWPOLYLINE
  5
144
330
17
100
AcDbEntity
  8
ROADS
100
AcDbPolyline
 90
2
 70
0
 10
622083.0260146481
 20
4844173.504390443
 10
622064.3017598265
 20
4844192.3052914115
  0
LWPOLYLINE
  5
145
330
17
100
AcDbEntity
  8
ROADS
100
AcDbPolyline
 90
2
 70
0
 10
622131.5086536161
 20
4844193.591071261
 10
622179.8632795552
 20
4844173.466532744
  0
LWPOLYLINE
  5
146
330
17
100
AcDbEntity
  8
ROADS
100
AcDbPolyline
 90
2
 70
0
 10
622083.0260146481
 20
4844173.504390443
 10
622131.5086536161
 20
4844193.591071261
  0
LWPOLYLINE
  5
147
330
17
100
AcDbEntity
  8
ROADS
100
AcDbPolyline
 90
2
 70
0
 10
621969.3844344473
 20
4844139.10540983
 10
621951.7030874373
 20
4844230.439578504
  0
LWPOLYLINE
  5
148
330
17
100
AcDbEntity
  8
ROADS
100
AcDbPolyline
 90
3
 70
0
 10
622179.8632795552
 20
4844173.466532744
 10
622199.4462412111
 20
4844192.686975929
 10
622150.5775527173
 20
4844218.447473122
  0
LWPOLYLINE
  5
149
330
17
100
AcDbEntity
  8
ROADS
100
AcDbPolyline
 90
2
 70
0
 10
622064.3017598265
 20
4844192.3052914115
 10
622131.4308090201
 20
4844220.647941556
  0
LWPOLYLINE
  5
14A
330
17
100
AcDbEntity
  8
ROADS
100
AcDbPolyline
 90
2
 70
0
 10
621951.7030874373
 20
4844230.439578504
 10
621935.5138693452
 20
4844227.175579312
  0
LWPOLYLINE
  5
14B
330
17
100
AcDbEntity
  8
ROADS
100
AcDbPolyline
 90
2
 70
0
 10
622536.6485159225
 20
4844089.002680765
 10
622523.6119140803
 20
4844141.973235973
  0
LWPOLYLINE
  5
14C
330
17
100
AcDbEntity
  8
ROADS
100
AcDbPolyline
 90
2
 70
0
 10
622294.5338391068
 20
4844188.485248116
 10
622326.8762864671
 20
4844131.928570237
  0
LWPOLYLINE
  5
14D
330
17
100
AcDbEntity
  8
ROADS
100
AcDbPolyline
 90
3
 70
0
 10
622398.4268201522
 20
4844186.938558143
 10
622469.9146439598
 20
4844181.394009294
 10
622523.6119140803
 20
4844141.973235973
  0
LWPOLYLINE
  5
14E
330
17
100
AcDbEntity
  8
ROADS
100
AcDbPolyline
 90
3
 70
0
 10
622371.599372531
 20
4844173.248715503
 10
622392.241391108
 20
4844168.331182442
 10
622398.4268201522
 20
4844186.938558143
  0
LWPOLYLINE
  5
14F
330
17
100
AcDbEntity
  8
ROADS
100
AcDbPolyline
 90
2
 70
0
 10
622294.5338391068
 20
4844188.485248116
 10
622371.599372531
 20
4844173.248715503
  0
LWPOLYLINE
  5
150
330
17
100
AcDbEntity
  8
ROADS
100
AcDbPolyline
 90
3
 70
0
 10
622371.599372531
 20
4844173.248715503
 10
622378.297831248
 20
4844192.352901946
 10
622398.4268201522
 20
4844186.938558143
  0
LWPOLYLINE
  5
151
330
17
100
AcDbEntity
  8
ROADS
100
AcDbPolyline
 90
5
 70
0
 10
622398.4268201522
 20
4844186.938558143
 10
622419.077893063
 20
4844261.226503016
 10
622385.0552255567
 20
4844269.844961583
 10
622370.8206096075
 20
4844256.80562789
 10
622361.9047018375
 20
4844279.147283967
  0
LWPOLYLINE
  5
152
330
17
100
AcDbEntity
  8
ROADS
100
AcDbPolyline
 90
2
 70
0
 10
622344.1312568887
 20
4844280.008549006
 10
622361.9047018375
 20
4844279.147283967
  0
LWPOLYLINE
  5
153
330
17
100
AcDbEntity
  8
ROADS
100
AcDbPolyline
 90
4
 70
0
 10
622277.123248346
 20
4844296.071180554
 10
622307.6172137258
 20
4844293.944153147
 10
622335.4971526822
 20
4844267.8396514235
 10
622344.1312568887
 20
4844280.008549006
  0
LWPOLYLINE
  5
154
330
17
100
AcDbEntity
  8
ROADS
100
AcDbPolyline
 90
2
 70
0
 10
622337.0823076923
 20
4844322.462966459
 10
622344.1312568887
 20
4844280.008549006
  0
LWPOLYLINE
  5
155
330
17
100
AcDbEntity
  8
ROADS
100
AcDbPolyline
 90
2
 70
0
 10
622131.5086536161
 20
4844193.591071261
 10
622131.4308090201
 20
4844220.647941556
  0
LWPOLYLINE
  5
156
330
17
100
AcDbEntity
  8
ROADS
100
AcDbPolyline
 90
3
 70
0
 10
622294.5338391068
 20
4844188.485248116
 10
622233.3685580039
 20
4844188.394903844
 10
622223.8096299826
 20
4844234.764054075
  0
LWPOLYLINE
  5
157
330
17
100
AcDbEntity
  8
ROADS
100
AcDbPolyline
 90
3
 70
0
 10
622294.5338391068
 20
4844188.485248116
 10
622242.6778660117
 20
4844197.405869251
 10
622223.8096299826
 20
4844234.764054075
  0
LWPOLYLINE
  5
158
330
17
100
AcDbEntity
  8
ROADS
100
AcDbPolyline
 90
2
 70
0
 10
622131.4308090201
 20
4844220.647941556
 10
622150.5775527173
 20
4844218.447473122
  0
LWPOLYLINE
  5
159
330
17
100
AcDbEntity
  8
ROADS
100
AcDbPolyline
 90
2
 70
0
 10
622219.9205467339
 20
4844264.199045204
 10
622294.5338391068
 20
4844188.485248116
  0
LWPOLYLINE
  5
15A
330
17
100
AcDbEntity
  8
ROADS
100
AcDbPolyline
 90
2
 70
0
 10
621981.4198852428
 20
4844225.55634862
 10
621951.7030874373
 20
4844230.439578504
  0
LWPOLYLINE
  5
15B
330
17
100
AcDbEntity
  8
ROADS
100
AcDbPolyline
 90
2
 70
0
 10
621981.4198852428
 20
4844225.55634862
 10
621988.2662934582
 20
4844236.156794093
  0
LWPOLYLINE
  5
15C
330
17
100
AcDbEntity
  8
ROADS
100
AcDbPolyline
 90
2
 70
0
 10
621977.0429930392
 20
4844245.921062342
 10
621951.7030874373
 20
4844230.439578504
  0
LWPOLYLINE
  5
15D
330
17
100
AcDbEntity
  8
ROADS
100
AcDbPolyline
 90
4
 70
0
 10
622150.5775527173
 20
4844218.447473122
 10
622148.1802470674
 20
4844230.057621597
 10
622089.4118173101
 20
4844240.754171206
 10
622077.1827327894
 20
4844261.771763738
  0
LWPOLYLINE
  5
15E
330
17
100
AcDbEntity
  8
ROADS
100
AcDbPolyline
 90
2
 70
0
 10
621988.2662934582
 20
4844236.156794093
 10
621977.0429930392
 20
4844245.921062342
  0
LWPOLYLINE
  5
15F
330
17
100
AcDbEntity
  8
ROADS
100
AcDbPolyline
 90
2
 70
0
 10
622223.8096299826
 20
4844234.764054075
 10
622219.9205467339
 20
4844264.199045204
  0
LWPOLYLINE
  5
160
330
17
100
AcDbEntity
  8
ROADS
100
AcDbPolyline
 90
2
 70
0
 10
621988.2662934582
 20
4844236.156794093
 10
622027.2263536765
 20
4844290.606193803
  0
LWPOLYLINE
  5
161
330
17
100
AcDbEntity
  8
ROADS
100
AcDbPolyline
 90
2
 70
0
 10
622077.1827327894
 20
4844261.771763738
 10
622162.0933079742
 20
4844273.671572989
  0
LWPOLYLINE
  5
162
330
17
100
AcDbEntity
  8
ROADS
100
AcDbPolyline
 90
2
 70
0
 10
622162.0933079742
 20
4844273.671572989
 10
622219.9205467339
 20
4844264.199045204
  0
LWPOLYLINE
  5
163
330
17
100
AcDbEntity
  8
ROADS
100
AcDbPolyline
 90
2
 70
0
 10
622219.9205467339
 20
4844264.199045204
 10
622221.2026882347
 20
4844279.770998103
  0
LWPOLYLINE
  5
164
330
17
100
AcDbEntity
  8
ROADS
100
AcDbPolyline
 90
2
 70
0
 10
622027.2263536765
 20
4844290.606193803
 10
622077.1827327894
 20
4844261.771763738
  0
LWPOLYLINE
  5
165
330
17
100
AcDbEntity
  8
ROADS
100
AcDbPolyline
 90
2
 70
0
 10
622162.0933079742
 20
4844273.671572989
 10
622161.6075039877
 20
4844286.308376651
  0
LWPOLYLINE
  5
166
330
17
100
AcDbEntity
  8
ROADS
100
AcDbPolyline
 90
2
 70
0
 10
622161.6075039877
 20
4844286.308376651
 10
622166.9598857325
 20
4844301.490997779
  0
LWPOLYLINE
  5
167
330
17
100
AcDbEntity
  8
ROADS
100
AcDbPolyline
 90
2
 70
0
 10
622161.6075039877
 20
4844286.308376651
 10
622116.8818992451
 20
4844304.452505678
  0
LWPOLYLINE
  5
168
330
17
100
AcDbEntity
  8
ROADS
100
AcDbPolyline
 90
3
 70
0
 10
622221.2026882347
 20
4844279.770998103
 10
622228.0699708527
 20
4844313.466929102
 10
622201.5394044328
 20
4844334.36260088
  0
LWPOLYLINE
  5
169
330
17
100
AcDbEntity
  8
ROADS
100
AcDbPolyline
 90
2
 70
0
 10
621969.3844344473
 20
4844139.10540983
 10
621947.4838725793
 20
4844134.134895623
  0
LWPOLYLINE
  5
16A
330
17
100
AcDbEntity
  8
ROADS
100
AcDbPolyline
 90
2
 70
0
 10
622337.0823076923
 20
4844322.462966459
 10
622277.123248346
 20
4844296.071180554
  0
LWPOLYLINE
  5
16B
330
17
100
AcDbEntity
  8
ROADS
100
AcDbPolyline
 90
4
 70
0
 10
622523.6119140803
 20
4844141.973235973
 10
622584.1986217228
 20
4844334.593461158
 10
622566.9158573772
 20
4844417.551597149
 10
622514.8763047421
 20
4844487.865841641
  0
LWPOLYLINE
  5
16C
330
17
100
AcDbEntity
  8
ROADS
100
AcDbPolyline
 90
2
 70
0
 10
622332.2873531678
 20
4844368.099342259
 10
622337.0823076923
 20
4844322.462966459
  0
LWPOLYLINE
  5
16D
330
17
100
AcDbEntity
  8
ROADS
100
AcDbPolyline
 90
3
 70
0
 10
622332.2873531678
 20
4844368.099342259
 10
622317.676183532
 20
4844346.942800575
 10
622296.5288509297
 20
4844363.4757282
  0
LWPOLYLINE
  5
16E
330
17
100
AcDbEntity
  8
ROADS
100
AcDbPolyline
 90
3
 70
0
 10
622361.9047018375
 20
4844279.147283967
 10
622413.5374895391
 20
4844301.61114198
 10
622445.8355852793
 20
4844447.234903545
  0
LWPOLYLINE
  5
16F
330
17
100
AcDbEntity
  8
ROADS
100
AcDbPolyline
 90
3
 70
0
 10
622301.1920615549
 20
4844430.641364668
 10
622322.9966259148
 20
4844431.938193555
 10
622332.2873531678
 20
4844368.099342259
  0
LWPOLYLINE
  5
170
330
17
100
AcDbEntity
  8
ROADS
100
AcDbPolyline
 90
4
 70
0
 10
622332.2873531678
 20
4844368.099342259
 10
622376.4013080976
 20
4844368.412022342
 10
622398.4840305477
 20
4844435.927068208
 10
622445.8355852793
 20
4844447.234903545
  0
LWPOLYLINE
  5
171
330
17
100
AcDbEntity
  8
ROADS
100
AcDbPolyline
 90
2
 70
0
 10
622445.8355852793
 20
4844447.234903545
 10
622480.6335039535
 20
4844473.071162603
  0
LWPOLYLINE
  5
172
330
17
100
AcDbEntity
  8
ROADS
100
AcDbPolyline
 90
2
 70
0
 10
622480.6335039535
 20
4844473.071162603
 10
622514.8763047421
 20
4844487.865841641
  0
LWPOLYLINE
  5
173
330
17
100
AcDbEntity
  8
ROADS
100
AcDbPolyline
 90
2
 70
0
 10
622480.6335039535
 20
4844473.071162603
 10
622486.6833406936
 20
4844509.550458528
  0
LWPOLYLINE
  5
174
330
17
100
AcDbEntity
  8
ROADS
100
AcDbPolyline
 90
3
 70
0
 10
622221.2026882347
 20
4844279.770998103
 10
622198.1466553413
 20
4844308.986971592
 10
622201.5394044328
 20
4844334.36260088
  0
LWPOLYLINE
  5
175
330
17
100
AcDbEntity
  8
ROADS
100
AcDbPolyline
 90
3
 70
0
 10
622277.123248346
 20
4844296.071180554
 10
622253.3832707455
 20
4844297.664458897
 10
622248.9764919485
 20
4844334.482431172
  0
LWPOLYLINE
  5
176
330
17
100
AcDbEntity
  8
ROADS
100
AcDbPolyline
 90
6
 70
0
 10
622116.8818992451
 20
4844304.452505678
 10
622103.3144886802
 20
4844295.436449976
 10
622081.8842269445
 20
4844315.445411647
 10
622048.607301168
 20
4844314.691915801
 10
622025.287015446
 20
4844334.752657428
 10
622034.3992475765
 20
4844349.069302952
  0
LWPOLYLINE
  5
177
330
17
100
AcDbEntity
  8
ROADS
100
AcDbPolyline
 90
2
 70
0
 10
622116.8818992451
 20
4844304.452505678
 10
622096.5477545211
 20
4844343.84522705
  0
LWPOLYLINE
  5
178
330
17
100
AcDbEntity
  8
ROADS
100
AcDbPolyline
 90
2
 70
0
 10
621951.7030874373
 20
4844230.439578504
 10
621933.4285930889
 20
4844324.753849305
  0
LWPOLYLINE
  5
179
330
17
100
AcDbEntity
  8
ROADS
100
AcDbPolyline
 90
2
 70
0
 10
622248.9764919485
 20
4844334.482431172
 10
622201.5394044328
 20
4844334.36260088
  0
LWPOLYLINE
  5
17A
330
17
100
AcDbEntity
  8
ROADS
100
AcDbPolyline
 90
2
 70
0
 10
621977.0429930392
 20
4844245.921062342
 10
621944.5095913854
 20
4844425.083028904
  0
LWPOLYLINE
  5
17B
330
17
100
AcDbEntity
  8
ROADS
100
AcDbPolyline
 90
3
 70
0
 10
622011.6956000838
 20
4844390.030186538
 10
622004.4493900711
 20
4844340.974694406
 10
622027.2263536765
 20
4844290.606193803
  0
LWPOLYLINE
  5
17C
330
17
100
AcDbEntity
  8
ROADS
100
AcDbPolyline
 90
2
 70
0
 10
622248.9764919485
 20
4844334.482431172
 10
622246.7478478602
 20
4844353.291978834
  0
LWPOLYLINE
  5
17D
330
17
100
AcDbEntity
  8
ROADS
100
AcDbPolyline
 90
3
 70
0
 10
622096.5477545211
 20
4844343.84522705
 10
622140.2782970142
 20
4844356.191532286
 10
622201.5394044328
 20
4844334.36260088
  0
LWPOLYLINE
  5
17E
330
17
100
AcDbEntity
  8
ROADS
100
AcDbPolyline
 90
2
 70
0
 10
622096.5477545211
 20
4844343.84522705
 10
622060.9710143574
 20
4844357.988792842
  0
LWPOLYLINE
  5
17F
330
17
100
AcDbEntity
  8
ROADS
100
AcDbPolyline
 90
2
 70
0
 10
622060.9710143574
 20
4844357.988792842
 10
622034.3992475765
 20
4844349.069302952
  0
LWPOLYLINE
  5
180
330
17
100
AcDbEntity
  8
ROADS
100
AcDbPolyline
 90
2
 70
0
 10
622246.7478478602
 20
4844353.291978834
 10
622296.5288509297
 20
4844363.4757282
  0
LWPOLYLINE
  5
181
330
17
100
AcDbEntity
  8
ROADS
100
AcDbPolyline
 90
2
 70
0
 10
622201.5394044328
 20
4844334.36260088
 10
622204.1084502584
 20
4844386.094070281
  0
LWPOLYLINE
  5
182
330
17
100
AcDbEntity
  8
ROADS
100
AcDbPolyline
 90
3
 70
0
 10
622201.5394044328
 20
4844334.36260088
 10
622186.0152015958
 20
4844358.470687209
 10
622204.1084502584
 20
4844386.094070281
  0
LWPOLYLINE
  5
183
330
17
100
AcDbEntity
  8
ROADS
100
AcDbPolyline
 90
2
 70
0
 10
622034.3992475765
 20
4844349.069302952
 10
622039.860741482
 20
4844382.859769969
  0
LWPOLYLINE
  5
184
330
17
100
AcDbEntity
  8
ROADS
100
AcDbPolyline
 90
2
 70
0
 10
622060.9710143574
 20
4844357.988792842
 10
622039.860741482
 20
4844382.859769969
  0
LWPOLYLINE
  5
185
330
17
100
AcDbEntity
  8
ROADS
100
AcDbPolyline
 90
3
 70
0
 10
622096.5477545211
 20
4844343.84522705
 10
622090.6423708816
 20
4844369.148506641
 10
622116.6138002095
 20
4844399.01912077
  0
LWPOLYLINE
  5
186
330
17
100
AcDbEntity
  8
ROADS
100
AcDbPolyline
 90
2
 70
0
 10
622237.5271395659
 20
4844399.206728352
 10
622246.7478478602
 20
4844353.291978834
  0
LWPOLYLINE
  5
187
330
17
100
AcDbEntity
  8
ROADS
100
AcDbPolyline
 90
3
 70
0
 10
622039.860741482
 20
4844382.859769969
 10
622079.2392644327
 20
4844401.381577568
 10
622116.6138002095
 20
4844399.01912077
  0
LWPOLYLINE
  5
188
330
17
100
AcDbEntity
  8
ROADS
100
AcDbPolyline
 90
2
 70
0
 10
622204.1084502584
 20
4844386.094070281
 10
622237.5271395659
 20
4844399.206728352
  0
LWPOLYLINE
  5
189
330
17
100
AcDbEntity
  8
ROADS
100
AcDbPolyline
 90
2
 70
0
 10
622296.5288509297
 20
4844363.4757282
 10
622301.1920615549
 20
4844430.641364668
  0
LWPOLYLINE
  5
18A
330
17
100
AcDbEntity
  8
ROADS
100
AcDbPolyline
 90
2
 70
0
 10
622237.5271395659
 20
4844399.206728352
 10
622249.0632267502
 20
4844412.5437211655
  0
LWPOLYLINE
  5
18B
330
17
100
AcDbEntity
  8
ROADS
100
AcDbPolyline
 90
2
 70
0
 10
622230.8193645702
 20
4844417.569660243
 10
622237.5271395659
 20
4844399.206728352
  0
LWPOLYLINE
  5
18C
330
17
100
AcDbEntity
  8
ROADS
100
AcDbPolyline
 90
2
 70
0
 10
621944.8749402731
 20
4844427.148501439
 10
622011.6956000838
 20
4844390.030186538
  0
LWPOLYLINE
  5
18D
330
17
100
AcDbEntity
  8
ROADS
100
AcDbPolyline
 90
2
 70
0
 10
622139.479905431
 20
4844419.123056071
 10
622116.6138002095
 20
4844399.01912077
  0
LWPOLYLINE
  5
18E
330
17
100
AcDbEntity
  8
ROADS
100
AcDbPolyline
 90
2
 70
0
 10
622192.8473046939
 20
4844434.798337258
 10
622204.1084502584
 20
4844386.094070281
  0
LWPOLYLINE
  5
18F
330
17
100
AcDbEntity
  8
ROADS
100
AcDbPolyline
 90
3
 70
0
 10
622074.5820516497
 20
4844434.079801353
 10
622038.5272384493
 20
4844421.161428572
 10
622011.6956000838
 20
4844390.030186538
  0
LWPOLYLINE
  5
190
330
17
100
AcDbEntity
  8
ROADS
100
AcDbPolyline
 90
2
 70
0
 10
622230.8193645702
 20
4844417.569660243
 10
622249.0632267502
 20
4844412.5437211655
  0
LWPOLYLINE
  5
191
330
17
100
AcDbEntity
  8
ROADS
100
AcDbPolyline
 90
2
 70
0
 10
622249.0632267502
 20
4844412.5437211655
 10
622301.1920615549
 20
4844430.641364668
  0
LWPOLYLINE
  5
192
330
17
100
AcDbEntity
  8
ROADS
100
AcDbPolyline
 90
2
 70
0
 10
622192.8473046939
 20
4844434.798337258
 10
622230.8193645702
 20
4844417.569660243
  0
LWPOLYLINE
  5
193
330
17
100
AcDbEntity
  8
ROADS
100
AcDbPolyline
 90
2
 70
0
 10
622139.479905431
 20
4844419.123056071
 10
622074.5820516497
 20
4844434.079801353
  0
LWPOLYLINE
  5
194
330
17
100
AcDbEntity
  8
ROADS
100
AcDbPolyline
 90
2
 70
0
 10
622192.8473046939
 20
4844434.798337258
 10
622139.479905431
 20
4844419.123056071
  0
LWPOLYLINE
  5
195
330
17
100
AcDbEntity
  8
ROADS
100
AcDbPolyline
 90
2
 70
0
 10
622074.5820516497
 20
4844434.079801353
 10
622068.1044866699
 20
4844474.801445026
  0
LWPOLYLINE
  5
196
330
17
100
AcDbEntity
  8
ROADS
100
AcDbPolyline
 90
2
 70
0
 10
622273.5881464445
 20
4844517.059726573
 10
622192.8473046939
 20
4844434.798337258
  0
LWPOLYLINE
  5
197
330
17
100
AcDbEntity
  8
ROADS
100
AcDbPolyline
 90
3
 70
0
 10
622080.7896075285
 20
4844620.697988665
 10
622116.4275051281
 20
4844533.805118196
 10
622192.8473046939
 20
4844434.798337258
  0
LWPOLYLINE
  5
198
330
17
100
AcDbEntity
  8
ROADS
100
AcDbPolyline
 90
2
 70
0
 10
622273.5881464445
 20
4844517.059726573
 10
622273.983374394
 20
4844587.249232658
  0
LWPOLYLINE
  5
199
330
17
100
AcDbEntity
  8
ROADS
100
AcDbPolyline
 90
2
 70
0
 10
622130.5143752602
 20
4844581.846435068
 10
622119.5829221414
 20
4844562.787617476
  0
LWPOLYLINE
  5
19A
330
17
100
AcDbEntity
  8
ROADS
100
AcDbPolyline
 90
2
 70
0
 10
622130.5143752602
 20
4844581.846435068
 10
622171.5758704473
 20
4844572.647426796
  0
LWPOLYLINE
  5
19B
330
17
100
AcDbEntity
  8
ROADS
100
AcDbPolyline
 90
2
 70
0
 10
622143.9637157705
 20
4844600.715498685
 10
622179.3129945109
 20
4844581.221915934
  0
LWPOLYLINE
  5
19C
330
17
100
AcDbEntity
  8
ROADS
100
AcDbPolyline
 90
2
 70
0
 10
622143.9637157705
 20
4844600.715498685
 10
622130.5143752602
 20
4844581.846435068
  0
LWPOLYLINE
  5
19D
330
17
100
AcDbEntity
  8
ROADS
100
AcDbPolyline
 90
2
 70
0
 10
622273.983374394
 20
4844587.249232658
 10
622278.9952609536
 20
4844600.303597457
  0
LWPOLYLINE
  5
19E
330
17
100
AcDbEntity
  8
ROADS
100
AcDbPolyline
 90
2
 70
0
 10
622030.1803883383
 20
4844600.197726941
 10
622024.0230415866
 20
4844619.035131611
  0
LWPOLYLINE
  5
19F
330
17
100
AcDbEntity
  8
ROADS
100
AcDbPolyline
 90
2
 70
0
 10
622080.7896075285
 20
4844620.697988665
 10
622143.9637157705
 20
4844600.715498685
  0
LWPOLYLINE
  5
1A0
330
17
100
AcDbEntity
  8
ROADS
100
AcDbPolyline
 90
2
 70
0
 10
622514.8763047421
 20
4844487.865841641
 10
622486.6833406936
 20
4844509.550458528
  0
LWPOLYLINE
  5
1A1
330
17
100
AcDbEntity
  8
ROADS
100
AcDbPolyline
 90
2
 70
0
 10
622486.6833406936
 20
4844509.550458528
 10
622396.9612229686
 20
4844543.12065376
  0
LWPOLYLINE
  5
1A2
330
17
100
AcDbEntity
  8
ROADS
100
AcDbPolyline
 90
3
 70
0
 10
622396.9612229686
 20
4844543.12065376
 10
622330.2616650008
 20
4844539.715887865
 10
622273.5881464445
 20
4844517.059726573
  0
LWPOLYLINE
  5
1A3
330
17
100
AcDbEntity
  8
ROADS
100
AcDbPolyline
 90
2
 70
0
 10
622396.9612229686
 20
4844543.12065376
 10
622360.4363421773
 20
4844597.310967548
  0
LWPOLYLINE
  5
1A4
330
17
100
AcDbEntity
  8
ROADS
100
AcDbPolyline
 90
3
 70
0
 10
622360.4363421773
 20
4844597.310967548
 10
622318.4430062354
 20
4844581.20089562
 10
622273.983374394
 20
4844587.249232658
  0
LWPOLYLINE
  5
1A5
330
17
100
AcDbEntity
  8
ROADS
100
AcDbPolyline
 90
3
 70
0
 10
622353.1882343149
 20
4844609.559326181
 10
622317.007276595
 20
4844594.327529707
 10
622278.9952609536
 20
4844600.303597457
  0
LWPOLYLINE
  5
1A6
330
17
100
AcDbEntity
  8
ROADS
100
AcDbPolyline
 90
2
 70
0
 10
622360.4363421773
 20
4844597.310967548
 10
622353.1882343149
 20
4844609.559326181
  0
LWPOLYLINE
  5
1A7
330
17
100
AcDbEntity
  8
ROADS
100
AcDbPolyline
 90
3
 70
0
 10
622382.760905984
 20
4844682.562257189
 10
622377.6228274439
 20
4844640.466206954
 10
622353.1882343149
 20
4844609.559326181
  0
LWPOLYLINE
  5
1A8
330
17
100
AcDbEntity
  8
ROADS
100
AcDbPolyline
 90
2
 70
0
 10
622382.760905984
 20
4844682.562257189
 10
622458.5062362863
 20
4844708.096898937
  0
LWPOLYLINE
  5
1A9
330
17
100
AcDbEntity
  8
ROADS
100
AcDbPolyline
 90
3
 70
0
 10
622331.4417044151
 20
4844743.192001153
 10
622364.9210489907
 20
4844721.887145349
 10
622382.760905984
 20
4844682.562257189
  0
LWPOLYLINE
  5
1AA
330
17
100
AcDbEntity
  8
ROADS
100
AcDbPolyline
 90
2
 70
0
 10
622002.2233804679
 20
4844618.051403158
 10
622024.0230415866
 20
4844619.035131611
  0
LWPOLYLINE
  5
1AB
330
17
100
AcDbEntity
  8
ROADS
100
AcDbPolyline
 90
2
 70
0
 10
622080.7896075285
 20
4844620.697988665
 10
622024.0230415866
 20
4844619.035131611
  0
LWPOLYLINE
  5
1AC
330
17
100
AcDbEntity
  8
ROADS
100
AcDbPolyline
 90
3
 70
0
 10
622273.983374394
 20
4844587.249232658
 10
622236.1091577023
 20
4844616.489903206
 10
622218.9882879729
 20
4844657.640881918
  0
LWPOLYLINE
  5
1AD
330
17
100
AcDbEntity
  8
ROADS
100
AcDbPolyline
 90
2
 70
0
 10
622143.9637157705
 20
4844600.715498685
 10
622218.9882879729
 20
4844657.640881918
  0
LWPOLYLINE
  5
1AE
330
17
100
AcDbEntity
  8
ROADS
100
AcDbPolyline
 90
3
 70
0
 10
622278.9952609536
 20
4844600.303597457
 10
622240.4480400598
 20
4844633.740281912
 10
622230.8038009058
 20
4844675.759669851
  0
LWPOLYLINE
  5
1AF
330
17
100
AcDbEntity
  8
ROADS
100
AcDbPolyline
 90
3
 70
0
 10
622122.8226725499
 20
4844700.282775832
 10
622087.9773782846
 20
4844667.124316517
 10
622080.7896075285
 20
4844620.697988665
  0
LWPOLYLINE
  5
1B0
330
17
100
AcDbEntity
  8
ROADS
100
AcDbPolyline
 90
2
 70
0
 10
622218.9882879729
 20
4844657.640881918
 10
622218.1060996703
 20
4844676.427803272
  0
LWPOLYLINE
  5
1B1
330
17
100
AcDbEntity
  8
ROADS
100
AcDbPolyline
 90
2
 70
0
 10
622218.1060996703
 20
4844676.427803272
 10
622230.8038009058
 20
4844675.759669851
  0
LWPOLYLINE
  5
1B2
330
17
100
AcDbEntity
  8
ROADS
100
AcDbPolyline
 90
2
 70
0
 10
622082.8180693078
 20
4844731.527942878
 10
622050.9437604406
 20
4844709.045260839
  0
LWPOLYLINE
  5
1B3
330
17
100
AcDbEntity
  8
ROADS
100
AcDbPolyline
 90
2
 70
0
 10
622122.8226725499
 20
4844700.282775832
 10
622218.1060996703
 20
4844676.427803272
  0
LWPOLYLINE
  5
1B4
330
17
100
AcDbEntity
  8
ROADS
100
AcDbPolyline
 90
2
 70
0
 10
622230.8038009058
 20
4844675.759669851
 10
622253.552098539
 20
4844745.173849212
  0
LWPOLYLINE
  5
1B5
330
17
100
AcDbEntity
  8
ROADS
100
AcDbPolyline
 90
2
 70
0
 10
622218.1060996703
 20
4844676.427803272
 10
622253.552098539
 20
4844745.173849212
  0
LWPOLYLINE
  5
1B6
330
17
100
AcDbEntity
  8
ROADS
100
AcDbPolyline
 90
2
 70
0
 10
622082.8180693078
 20
4844731.527942878
 10
622122.8226725499
 20
4844700.282775832
  0
LWPOLYLINE
  5
1B7
330
17
100
AcDbEntity
  8
ROADS
100
AcDbPolyline
 90
2
 70
0
 10
622244.6600556503
 20
4844781.439580776
 10
622122.8226725499
 20
4844700.282775832
  0
LWPOLYLINE
  5
1B8
330
17
100
AcDbEntity
  8
ROADS
100
AcDbPolyline
 90
2
 70
0
 10
622069.9218206466
 20
4844739.40648309
 10
622082.8180693078
 20
4844731.527942878
  0
LWPOLYLINE
  5
1B9
330
17
100
AcDbEntity
  8
ROADS
100
AcDbPolyline
 90
2
 70
0
 10
621907.1273267905
 20
4844967.775344699
 10
621910.2569689207
 20
4844979.45617605
  0
LWPOLYLINE
  5
1BA
330
17
100
AcDbEntity
  8
ROADS
100
AcDbPolyline
 90
2
 70
0
 10
624577.1337408634
 20
4842229.537121396
 10
624558.1523729532
 20
4842244.8539603995
  0
LWPOLYLINE
  5
1BB
330
17
100
AcDbEntity
  8
ROADS
100
AcDbPolyline
 90
2
 70
0
 10
624558.1523729532
 20
4842244.8539603995
 10
624552.8266328136
 20
4842283.33566724
  0
LWPOLYLINE
  5
1BC
330
17
100
AcDbEntity
  8
ROADS
100
AcDbPolyline
 90
2
 70
0
 10
624761.6589936175
 20
4842278.33957577
 10
624740.1645016198
 20
4842345.516575963
  0
LWPOLYLINE
  5
1BD
330
17
100
AcDbEntity
  8
ROADS
100
AcDbPolyline
 90
2
 70
0
 10
624552.8266328136
 20
4842283.33566724
 10
624646.6324797844
 20
4842314.403089784
  0
LWPOLYLINE
  5
1BE
330
17
100
AcDbEntity
  8
ROADS
100
AcDbPolyline
 90
2
 70
0
 10
624057.4888384632
 20
4842317.328698351
 10
624058.8441983064
 20
4842312.650298475
  0
LWPOLYLINE
  5
1BF
330
17
100
AcDbEntity
  8
ROADS
100
AcDbPolyline
 90
2
 70
0
 10
624057.4888384632
 20
4842317.328698351
 10
624052.2986099095
 20
4842315.625990714
  0
LWPOLYLINE
  5
1C0
330
17
100
AcDbEntity
  8
ROADS
100
AcDbPolyline
 90
2
 70
0
 10
623891.3669698228
 20
4842304.535550922
 10
623875.3884133277
 20
4842346.272486224
  0
LWPOLYLINE
  5
1C1
330
17
100
AcDbEntity
  8
ROADS
100
AcDbPolyline
 90
2
 70
0
 10
624047.6488681129
 20
4842372.1095079845
 10
624057.4888384632
 20
4842317.328698351
  0
LWPOLYLINE
  5
1C2
330
17
100
AcDbEntity
  8
ROADS
100
AcDbPolyline
 90
2
 70
0
 10
624047.6488681129
 20
4842372.1095079845
 10
623969.7389925467
 20
4842368.560263683
  0
LWPOLYLINE
  5
1C3
330
17
100
AcDbEntity
  8
ROADS
100
AcDbPolyline
 90
2
 70
0
 10
624064.3780982927
 20
4842510.939633524
 10
624052.9828339926
 20
4842568.60344224
  0
LWPOLYLINE
  5
1C4
330
17
100
AcDbEntity
  8
ROADS
100
AcDbPolyline
 90
4
 70
0
 10
624213.4613590448
 20
4842561.310577452
 10
624145.8250581024
 20
4842539.193243147
 10
624106.1012212506
 20
4842568.350826548
 10
624052.9828339926
 20
4842568.60344224
  0
LWPOLYLINE
  5
1C5
330
17
100
AcDbEntity
  8
ROADS
100
AcDbPolyline
 90
2
 70
0
 10
624052.9828339926
 20
4842568.60344224
 10
624024.803431803
 20
4842652.137832602
  0
LWPOLYLINE
  5
1C6
330
17
100
AcDbEntity
  8
ROADS
100
AcDbPolyline
 90
3
 70
0
 10
624219.2372566769
 20
4842730.455151241
 10
624062.7408073014
 20
4842683.389131216
 10
624024.803431803
 20
4842652.137832602
  0
LWPOLYLINE
  5
1C7
330
17
100
AcDbEntity
  8
ROADS
100
AcDbPolyline
 90
2
 70
0
 10
623785.2645269124
 20
4842222.403424259
 10
623757.5264743327
 20
4842309.572452051
  0
LWPOLYLINE
  5
1C8
330
17
100
AcDbEntity
  8
ROADS
100
AcDbPolyline
 90
3
 70
0
 10
624024.803431803
 20
4842652.137832602
 10
623971.2667747837
 20
4842609.143586166
 10
623249.9353581065
 20
4842362.17851699
  0
LWPOLYLINE
  5
1C9
330
17
100
AcDbEntity
  8
ROADS
100
AcDbPolyline
 90
3
 70
0
 10
623462.7663356846
 20
4842703.45791493
 10
623374.9606183106
 20
4842674.35418612
 10
623352.5643951152
 20
4842698.945075879
  0
LWPOLYLINE
  5
1CA
330
17
100
AcDbEntity
  8
ROADS
100
AcDbPolyline
 90
2
 70
0
 10
623521.0548377901
 20
4842723.20892659
 10
623462.7663356846
 20
4842703.45791493
  0
LWPOLYLINE
  5
1CB
330
17
100
AcDbEntity
  8
ROADS
100
AcDbPolyline
 90
2
 70
0
 10
623462.7663356846
 20
4842703.45791493
 10
623461.2013198659
 20
4842735.278216939
  0
LWPOLYLINE
  5
1CC
330
17
100
AcDbEntity
  8
ROADS
100
AcDbPolyline
 90
2
 70
0
 10
623780.963429087
 20
4842808.892642522
 10
623521.0548377901
 20
4842723.20892659
  0
LWPOLYLINE
  5
1CD
330
17
100
AcDbEntity
  8
ROADS
100
AcDbPolyline
 90
2
 70
0
 10
623521.0548377901
 20
4842723.20892659
 10
623492.8083959853
 20
4842811.11018227
  0
LWPOLYLINE
  5
1CE
330
17
100
AcDbEntity
  8
ROADS
100
AcDbPolyline
 90
2
 70
0
 10
623463.5378403225
 20
4842896.582762615
 10
623129.3655516962
 20
4842787.154696571
  0
LWPOLYLINE
  5
1CF
330
17
100
AcDbEntity
  8
ROADS
100
AcDbPolyline
 90
2
 70
0
 10
623492.8083959853
 20
4842811.11018227
 10
623463.5378403225
 20
4842896.582762615
  0
LWPOLYLINE
  5
1D0
330
17
100
AcDbEntity
  8
ROADS
100
AcDbPolyline
 90
2
 70
0
 10
623780.963429087
 20
4842808.892642522
 10
623749.8326675394
 20
4842904.204138678
  0
LWPOLYLINE
  5
1D1
330
17
100
AcDbEntity
  8
ROADS
100
AcDbPolyline
 90
2
 70
0
 10
624117.9314561735
 20
4842920.312640097
 10
623780.963429087
 20
4842808.892642522
  0
LWPOLYLINE
  5
1D2
330
17
100
AcDbEntity
  8
ROADS
100
AcDbPolyline
 90
2
 70
0
 10
624179.1179925163
 20
4842940.131184776
 10
624117.9314561735
 20
4842920.312640097
  0
LWPOLYLINE
  5
1D3
330
17
100
AcDbEntity
  8
ROADS
100
AcDbPolyline
 90
3
 70
0
 10
623940.8458440811
 20
4843076.289560773
 10
623966.0891442976
 20
4842976.791239384
 10
623749.8326675394
 20
4842904.204138678
  0
LWPOLYLINE
  5
1D4
330
17
100
AcDbEntity
  8
ROADS
100
AcDbPolyline
 90
2
 70
0
 10
624117.9314561735
 20
4842920.312640097
 10
624077.8481429934
 20
4843122.195827264
  0
LWPOLYLINE
  5
1D5
330
17
100
AcDbEntity
  8
ROADS
100
AcDbPolyline
 90
2
 70
0
 10
623866.155912047
 20
4843052.147358237
 10
623716.9275515985
 20
4843002.180639426
  0
LWPOLYLINE
  5
1D6
330
17
100
AcDbEntity
  8
ROADS
100
AcDbPolyline
 90
2
 70
0
 10
624027.559531148
 20
4843105.287669309
 10
624054.3922330841
 20
4842998.645714866
  0
LWPOLYLINE
  5
1D7
330
17
100
AcDbEntity
  8
ROADS
100
AcDbPolyline
 90
2
 70
0
 10
623940.8458440811
 20
4843076.289560773
 10
623866.155912047
 20
4843052.147358237
  0
LWPOLYLINE
  5
1D8
330
17
100
AcDbEntity
  8
ROADS
100
AcDbPolyline
 90
2
 70
0
 10
624158.9954595919
 20
4843032.198864954
 10
624134.9738783664
 20
4843142.100907276
  0
LWPOLYLINE
  5
1D9
330
17
100
AcDbEntity
  8
ROADS
100
AcDbPolyline
 90
2
 70
0
 10
624027.559531148
 20
4843105.287669309
 10
623940.8458440811
 20
4843076.289560773
  0
LWPOLYLINE
  5
1DA
330
17
100
AcDbEntity
  8
ROADS
100
AcDbPolyline
 90
2
 70
0
 10
623866.155912047
 20
4843052.147358237
 10
623841.0269732312
 20
4843129.4715546025
  0
LWPOLYLINE
  5
1DB
330
17
100
AcDbEntity
  8
ROADS
100
AcDbPolyline
 90
2
 70
0
 10
623749.8326675394
 20
4842904.204138678
 10
623492.8083959853
 20
4842811.11018227
  0
LWPOLYLINE
  5
1DC
330
17
100
AcDbEntity
  8
ROADS
100
AcDbPolyline
 90
2
 70
0
 10
623463.5378403225
 20
4842896.582762615
 10
623421.70234449
 20
4842978.037692638
  0
LWPOLYLINE
  5
1DD
330
17
100
AcDbEntity
  8
ROADS
100
AcDbPolyline
 90
3
 70
0
 10
623716.9275515985
 20
4843002.180639426
 10
623606.2384367207
 20
4842942.866054052
 10
623463.5378403225
 20
4842896.582762615
  0
LWPOLYLINE
  5
1DE
330
17
100
AcDbEntity
  8
ROADS
100
AcDbPolyline
 90
2
 70
0
 10
623749.8326675394
 20
4842904.204138678
 10
623716.9275515985
 20
4843002.180639426
  0
LWPOLYLINE
  5
1DF
330
17
100
AcDbEntity
  8
ROADS
100
AcDbPolyline
 90
2
 70
0
 10
623421.70234449
 20
4842978.037692638
 10
623373.7444218369
 20
4843062.812951877
  0
LWPOLYLINE
  5
1E0
330
17
100
AcDbEntity
  8
ROADS
100
AcDbPolyline
 90
2
 70
0
 10
623691.7409170815
 20
4843080.096791211
 10
623421.70234449
 20
4842978.037692638
  0
LWPOLYLINE
  5
1E1
330
17
100
AcDbEntity
  8
ROADS
100
AcDbPolyline
 90
2
 70
0
 10
623716.9275515985
 20
4843002.180639426
 10
623691.7409170815
 20
4843080.096791211
  0
LWPOLYLINE
  5
1E2
330
17
100
AcDbEntity
  8
ROADS
100
AcDbPolyline
 90
2
 70
0
 10
623585.0411386733
 20
4843134.418251683
 10
623373.7444218369
 20
4843062.812951877
  0
LWPOLYLINE
  5
1E3
330
17
100
AcDbEntity
  8
ROADS
100
AcDbPolyline
 90
2
 70
0
 10
623841.0269732312
 20
4843129.4715546025
 10
623691.7409170815
 20
4843080.096791211
  0
LWPOLYLINE
  5
1E4
330
17
100
AcDbEntity
  8
ROADS
100
AcDbPolyline
 90
2
 70
0
 10
623373.7444218369
 20
4843062.812951877
 10
623339.6622889951
 20
4843158.189890494
  0
LWPOLYLINE
  5
1E5
330
17
100
AcDbEntity
  8
ROADS
100
AcDbPolyline
 90
2
 70
0
 10
623691.7409170815
 20
4843080.096791211
 10
623665.6362688682
 20
4843160.772457654
  0
LWPOLYLINE
  5
1E6
330
17
100
AcDbEntity
  8
ROADS
100
AcDbPolyline
 90
2
 70
0
 10
623665.6362688682
 20
4843160.772457654
 10
623585.0411386733
 20
4843134.418251683
  0
LWPOLYLINE
  5
1E7
330
17
100
AcDbEntity
  8
ROADS
100
AcDbPolyline
 90
2
 70
0
 10
623585.0411386733
 20
4843134.418251683
 10
623553.8675381762
 20
4843229.10885612
  0
LWPOLYLINE
  5
1E8
330
17
100
AcDbEntity
  8
ROADS
100
AcDbPolyline
 90
2
 70
0
 10
623795.5849000285
 20
4843204.091909286
 10
623665.6362688682
 20
4843160.772457654
  0
LWPOLYLINE
  5
1E9
330
17
100
AcDbEntity
  8
ROADS
100
AcDbPolyline
 90
2
 70
0
 10
623553.8675381762
 20
4843229.10885612
 10
623339.6622889951
 20
4843158.189890494
  0
LWPOLYLINE
  5
1EA
330
17
100
AcDbEntity
  8
ROADS
100
AcDbPolyline
 90
2
 70
0
 10
623339.6622889951
 20
4843158.189890494
 10
623310.3142937062
 20
4843254.786565801
  0
LWPOLYLINE
  5
1EB
330
17
100
AcDbEntity
  8
ROADS
100
AcDbPolyline
 90
2
 70
0
 10
623795.5849000285
 20
4843204.091909286
 10
623764.0792993669
 20
4843298.116522867
  0
LWPOLYLINE
  5
1EC
330
17
100
AcDbEntity
  8
ROADS
100
AcDbPolyline
 90
2
 70
0
 10
623764.0792993669
 20
4843298.116522867
 10
623553.8675381762
 20
4843229.10885612
  0
LWPOLYLINE
  5
1ED
330
17
100
AcDbEntity
  8
ROADS
100
AcDbPolyline
 90
2
 70
0
 10
623553.8675381762
 20
4843229.10885612
 10
623522.2407395147
 20
4843324.139257359
  0
LWPOLYLINE
  5
1EE
330
17
100
AcDbEntity
  8
ROADS
100
AcDbPolyline
 90
2
 70
0
 10
623522.2407395147
 20
4843324.139257359
 10
623310.3142937062
 20
4843254.786565801
  0
LWPOLYLINE
  5
1EF
330
17
100
AcDbEntity
  8
ROADS
100
AcDbPolyline
 90
2
 70
0
 10
624077.8481429934
 20
4843122.195827264
 10
624027.559531148
 20
4843105.287669309
  0
LWPOLYLINE
  5
1F0
330
17
100
AcDbEntity
  8
ROADS
100
AcDbPolyline
 90
2
 70
0
 10
624134.9738783664
 20
4843142.100907276
 10
624077.8481429934
 20
4843122.195827264
  0
LWPOLYLINE
  5
1F1
330
17
100
AcDbEntity
  8
ROADS
100
AcDbPolyline
 90
2
 70
0
 10
624077.8481429934
 20
4843122.195827264
 10
624058.9875525878
 20
4843218.687546463
  0
LWPOLYLINE
  5
1F2
330
17
100
AcDbEntity
  8
ROADS
100
AcDbPolyline
 90
4
 70
0
 10
624031.5516949862
 20
4843259.536088117
 10
624038.5724815268
 20
4843216.863915035
 10
624013.3862599753
 20
4843195.256875621
 10
623841.0269732312
 20
4843129.4715546025
  0
LWPOLYLINE
  5
1F3
330
17
100
AcDbEntity
  8
ROADS
100
AcDbPolyline
 90
2
 70
0
 10
624134.9738783664
 20
4843142.100907276
 10
624112.3255858402
 20
4843271.545830977
  0
LWPOLYLINE
  5
1F4
330
17
100
AcDbEntity
  8
ROADS
100
AcDbPolyline
 90
3
 70
0
 10
624031.5516949862
 20
4843259.536088117
 10
623940.0371626489
 20
4843248.746996669
 10
623795.5849000285
 20
4843204.091909286
  0
LWPOLYLINE
  5
1F5
330
17
100
AcDbEntity
  8
ROADS
100
AcDbPolyline
 90
2
 70
0
 10
624112.3255858402
 20
4843271.545830977
 10
624031.5516949862
 20
4843259.536088117
  0
LWPOLYLINE
  5
1F6
330
17
100
AcDbEntity
  8
ROADS
100
AcDbPolyline
 90
2
 70
0
 10
623974.2783121439
 20
4843368.77413002
 10
623764.0792993669
 20
4843298.116522867
  0
LWPOLYLINE
  5
1F7
330
17
100
AcDbEntity
  8
ROADS
100
AcDbPolyline
 90
2
 70
0
 10
624112.3255858402
 20
4843271.545830977
 10
624088.9695265249
 20
4843405.061142376
  0
LWPOLYLINE
  5
1F8
330
17
100
AcDbEntity
  8
ROADS
100
AcDbPolyline
 90
2
 70
0
 10
624088.9695265249
 20
4843405.061142376
 10
623974.2783121439
 20
4843368.77413002
  0
LWPOLYLINE
  5
1F9
330
17
100
AcDbEntity
  8
ROADS
100
AcDbPolyline
 90
2
 70
0
 10
623310.3142937062
 20
4843254.786565801
 10
623278.7583627877
 20
4843350.377706766
  0
LWPOLYLINE
  5
1FA
330
17
100
AcDbEntity
  8
ROADS
100
AcDbPolyline
 90
2
 70
0
 10
623764.0792993669
 20
4843298.116522867
 10
623732.136274386
 20
4843394.040299929
  0
LWPOLYLINE
  5
1FB
330
17
100
AcDbEntity
  8
ROADS
100
AcDbPolyline
 90
2
 70
0
 10
623522.2407395147
 20
4843324.139257359
 10
623503.7315895105
 20
4843379.339048551
  0
LWPOLYLINE
  5
1FC
330
17
100
AcDbEntity
  8
ROADS
100
AcDbPolyline
 90
2
 70
0
 10
623732.136274386
 20
4843394.040299929
 10
623621.9820184661
 20
4843353.245220583
  0
LWPOLYLINE
  5
1FD
330
17
100
AcDbEntity
  8
ROADS
100
AcDbPolyline
 90
2
 70
0
 10
623491.3674101764
 20
4843416.2166287415
 10
623278.7583627877
 20
4843350.377706766
  0
LWPOLYLINE
  5
1FE
330
17
100
AcDbEntity
  8
ROADS
100
AcDbPolyline
 90
2
 70
0
 10
623503.7315895105
 20
4843379.339048551
 10
623491.3674101764
 20
4843416.2166287415
  0
LWPOLYLINE
  5
1FF
330
17
100
AcDbEntity
  8
ROADS
100
AcDbPolyline
 90
2
 70
0
 10
623491.3674101764
 20
4843416.2166287415
 10
623483.5205854807
 20
4843440.160315481
  0
LWPOLYLINE
  5
200
330
17
100
AcDbEntity
  8
ROADS
100
AcDbPolyline
 90
3
 70
0
 10
623491.3674101764
 20
4843416.2166287415
 10
623511.9881287887
 20
4843442.310238871
 10
623504.1282741185
 20
4843453.4390328
  0
LWPOLYLINE
  5
201
330
17
100
AcDbEntity
  8
ROADS
100
AcDbPolyline
 90
3
 70
0
 10
623503.7315895105
 20
4843379.339048551
 10
623647.9684667803
 20
4843444.83335483
 10
623635.021802347
 20
4843491.292400172
  0
LWPOLYLINE
  5
202
330
17
100
AcDbEntity
  8
ROADS
100
AcDbPolyline
 90
2
 70
0
 10
623732.136274386
 20
4843394.040299929
 10
623700.6461993838
 20
4843490.077264341
  0
LWPOLYLINE
  5
203
330
17
100
AcDbEntity
  8
ROADS
100
AcDbPolyline
 90
2
 70
0
 10
623483.5205854807
 20
4843440.160315481
 10
623504.1282741185
 20
4843453.4390328
  0
LWPOLYLINE
  5
204
330
17
100
AcDbEntity
  8
ROADS
100
AcDbPolyline
 90
2
 70
0
 10
623532.3435991538
 20
4843451.346673683
 10
623532.8761680742
 20
4843481.81088058
  0
LWPOLYLINE
  5
205
330
17
100
AcDbEntity
  8
ROADS
100
AcDbPolyline
 90
2
 70
0
 10
623504.1282741185
 20
4843453.4390328
 10
623532.8761680742
 20
4843481.81088058
  0
LWPOLYLINE
  5
206
330
17
100
AcDbEntity
  8
ROADS
100
AcDbPolyline
 90
2
 70
0
 10
623483.5205854807
 20
4843440.160315481
 10
623458.8414901455
 20
4843515.778451709
  0
LWPOLYLINE
  5
207
330
17
100
AcDbEntity
  8
ROADS
100
AcDbPolyline
 90
2
 70
0
 10
623458.8414901455
 20
4843515.778451709
 10
623248.9449928349
 20
4843445.941372341
  0
LWPOLYLINE
  5
208
330
17
100
AcDbEntity
  8
ROADS
100
AcDbPolyline
 90
2
 70
0
 10
623532.8761680742
 20
4843481.81088058
 10
623554.1006735963
 20
4843547.25045344
  0
LWPOLYLINE
  5
209
330
17
100
AcDbEntity
  8
ROADS
100
AcDbPolyline
 90
3
 70
0
 10
623248.9449928349
 20
4843445.941372341
 10
623215.7041381279
 20
4843546.271717371
 10
623427.6367294138
 20
4843610.693434367
  0
LWPOLYLINE
  5
20A
330
17
100
AcDbEntity
  8
ROADS
100
AcDbPolyline
 90
2
 70
0
 10
623554.1006735963
 20
4843547.25045344
 10
623458.8414901455
 20
4843515.778451709
  0
LWPOLYLINE
  5
20B
330
17
100
AcDbEntity
  8
ROADS
100
AcDbPolyline
 90
2
 70
0
 10
623700.6461993838
 20
4843490.077264341
 10
623668.9925193281
 20
4843585.206702555
  0
LWPOLYLINE
  5
20C
330
17
100
AcDbEntity
  8
ROADS
100
AcDbPolyline
 90
2
 70
0
 10
623458.8414901455
 20
4843515.778451709
 10
623427.6367294138
 20
4843610.693434367
  0
LWPOLYLINE
  5
20D
330
17
100
AcDbEntity
  8
ROADS
100
AcDbPolyline
 90
2
 70
0
 10
623974.2783121439
 20
4843368.77413002
 10
623942.6871581401
 20
4843463.654275585
  0
LWPOLYLINE
  5
20E
330
17
100
AcDbEntity
  8
ROADS
100
AcDbPolyline
 90
2
 70
0
 10
623942.6871581401
 20
4843463.654275585
 10
623732.136274386
 20
4843394.040299929
  0
LWPOLYLINE
  5
20F
330
17
100
AcDbEntity
  8
ROADS
100
AcDbPolyline
 90
2
 70
0
 10
624088.9695265249
 20
4843405.061142376
 10
624070.9569686934
 20
4843505.968435465
  0
LWPOLYLINE
  5
210
330
17
100
AcDbEntity
  8
ROADS
100
AcDbPolyline
 90
2
 70
0
 10
624070.9569686934
 20
4843505.968435465
 10
623942.6871581401
 20
4843463.654275585
  0
LWPOLYLINE
  5
211
330
17
100
AcDbEntity
  8
ROADS
100
AcDbPolyline
 90
2
 70
0
 10
623942.6871581401
 20
4843463.654275585
 10
623910.9160275484
 20
4843559.194180448
  0
LWPOLYLINE
  5
212
330
17
100
AcDbEntity
  8
ROADS
100
AcDbPolyline
 90
2
 70
0
 10
623910.9160275484
 20
4843559.194180448
 10
623700.6461993838
 20
4843490.077264341
  0
LWPOLYLINE
  5
213
330
17
100
AcDbEntity
  8
ROADS
100
AcDbPolyline
 90
2
 70
0
 10
623910.9160275484
 20
4843559.194180448
 10
623902.4681223315
 20
4843584.299574201
  0
LWPOLYLINE
  5
214
330
17
100
AcDbEntity
  8
ROADS
100
AcDbPolyline
 90
2
 70
0
 10
623902.4681223315
 20
4843584.299574201
 10
623879.8243561182
 20
4843651.588202491
  0
LWPOLYLINE
  5
215
330
17
100
AcDbEntity
  8
ROADS
100
AcDbPolyline
 90
4
 70
0
 10
623902.4681223315
 20
4843584.299574201
 10
623940.24923586
 20
4843600.920369509
 10
623925.6376757923
 20
4843653.222618562
 10
623879.8243561182
 20
4843651.588202491
  0
LWPOLYLINE
  5
216
330
17
100
AcDbEntity
  8
ROADS
100
AcDbPolyline
 90
3
 70
0
 10
624070.9569686934
 20
4843505.968435465
 10
624021.9338899071
 20
4843591.123525421
 10
623874.135229084
 20
4843769.987425335
  0
LWPOLYLINE
  5
217
330
17
100
AcDbEntity
  8
ROADS
100
AcDbPolyline
 90
2
 70
0
 10
623668.9925193281
 20
4843585.206702555
 10
623554.1006735963
 20
4843547.25045344
  0
LWPOLYLINE
  5
218
330
17
100
AcDbEntity
  8
ROADS
100
AcDbPolyline
 90
2
 70
0
 10
623879.8243561182
 20
4843651.588202491
 10
623668.9925193281
 20
4843585.206702555
  0
LWPOLYLINE
  5
219
330
17
100
AcDbEntity
  8
ROADS
100
AcDbPolyline
 90
2
 70
0
 10
623668.9925193281
 20
4843585.206702555
 10
623637.6147918017
 20
4843680.780141689
  0
LWPOLYLINE
  5
21A
330
17
100
AcDbEntity
  8
ROADS
100
AcDbPolyline
 90
2
 70
0
 10
623637.6147918017
 20
4843680.780141689
 10
623427.6367294138
 20
4843610.693434367
  0
LWPOLYLINE
  5
21B
330
17
100
AcDbEntity
  8
ROADS
100
AcDbPolyline
 90
2
 70
0
 10
623427.6367294138
 20
4843610.693434367
 10
623395.9041502879
 20
4843706.589895056
  0
LWPOLYLINE
  5
21C
330
17
100
AcDbEntity
  8
ROADS
100
AcDbPolyline
 90
2
 70
0
 10
623395.9041502879
 20
4843706.589895056
 10
623297.8726262974
 20
4843674.082623189
  0
LWPOLYLINE
  5
21D
330
17
100
AcDbEntity
  8
ROADS
100
AcDbPolyline
 90
2
 70
0
 10
623841.7796667815
 20
4843747.331515117
 10
623637.6147918017
 20
4843680.780141689
  0
LWPOLYLINE
  5
21E
330
17
100
AcDbEntity
  8
ROADS
100
AcDbPolyline
 90
2
 70
0
 10
623637.6147918017
 20
4843680.780141689
 10
623606.0953745092
 20
4843776.058483201
  0
LWPOLYLINE
  5
21F
330
17
100
AcDbEntity
  8
ROADS
100
AcDbPolyline
 90
2
 70
0
 10
623606.0953745092
 20
4843776.058483201
 10
623395.9041502879
 20
4843706.589895056
  0
LWPOLYLINE
  5
220
330
17
100
AcDbEntity
  8
ROADS
100
AcDbPolyline
 90
3
 70
0
 10
623395.9041502879
 20
4843706.589895056
 10
623364.5455480203
 20
4843801.272046278
 10
623574.7890106159
 20
4843871.222658323
  0
LWPOLYLINE
  5
221
330
17
100
AcDbEntity
  8
ROADS
100
AcDbPolyline
 90
2
 70
0
 10
625371.8818701552
 20
4842755.488910263
 10
625258.6922673284
 20
4842719.467248199
  0
LWPOLYLINE
  5
222
330
17
100
AcDbEntity
  8
ROADS
100
AcDbPolyline
 90
2
 70
0
 10
625235.2485806087
 20
4842778.770275456
 10
625258.828619064
 20
4842813.925054199
  0
LWPOLYLINE
  5
223
330
17
100
AcDbEntity
  8
ROADS
100
AcDbPolyline
 90
2
 70
0
 10
625258.828619064
 20
4842813.925054199
 10
625277.2012789539
 20
4842846.21142248
  0
LWPOLYLINE
  5
224
330
17
100
AcDbEntity
  8
ROADS
100
AcDbPolyline
 90
6
 70
0
 10
625258.828619064
 20
4842813.925054199
 10
625258.7934670966
 20
4842878.022040522
 10
625286.6505624912
 20
4842933.628401681
 10
625422.9882003617
 20
4842987.777223209
 10
625453.4385609027
 20
4842976.8037580745
 10
625502.3395804568
 20
4842992.48605679
  0
LWPOLYLINE
  5
225
330
17
100
AcDbEntity
  8
ROADS
100
AcDbPolyline
 90
2
 70
0
 10
625344.1684769867
 20
4843364.456951006
 10
625355.7576026048
 20
4843322.887368573
  0
LWPOLYLINE
  5
226
330
17
100
AcDbEntity
  8
ROADS
100
AcDbPolyline
 90
2
 70
0
 10
625553.8400193185
 20
4843431.602164738
 10
625344.1684769867
 20
4843364.456951006
  0
LWPOLYLINE
  5
227
330
17
100
AcDbEntity
  8
ROADS
100
AcDbPolyline
 90
2
 70
0
 10
625315.6529125209
 20
4843454.169865946
 10
625344.1684769867
 20
4843364.456951006
  0
LWPOLYLINE
  5
228
330
17
100
AcDbEntity
  8
ROADS
100
AcDbPolyline
 90
2
 70
0
 10
625526.0496554553
 20
4843520.586216231
 10
625315.6529125209
 20
4843454.169865946
  0
LWPOLYLINE
  5
229
330
17
100
AcDbEntity
  8
ROADS
100
AcDbPolyline
 90
2
 70
0
 10
625553.8400193185
 20
4843431.602164738
 10
625562.4914187232
 20
4843402.4940970335
  0
LWPOLYLINE
  5
22A
330
17
100
AcDbEntity
  8
ROADS
100
AcDbPolyline
 90
2
 70
0
 10
625526.0496554553
 20
4843520.586216231
 10
625553.8400193185
 20
4843431.602164738
  0
LWPOLYLINE
  5
22B
330
17
100
AcDbEntity
  8
ROADS
100
AcDbPolyline
 90
2
 70
0
 10
625553.8400193185
 20
4843431.602164738
 10
625587.4899645133
 20
4843442.935279418
  0
LWPOLYLINE
  5
22C
330
17
100
AcDbEntity
  8
ROADS
100
AcDbPolyline
 90
2
 70
0
 10
625588.5139595289
 20
4843540.319920114
 10
625526.0496554553
 20
4843520.586216231
  0
LWPOLYLINE
  5
22D
330
17
100
AcDbEntity
  8
ROADS
100
AcDbPolyline
 90
2
 70
0
 10
625498.0756183247
 20
4843609.660933691
 10
625526.0496554553
 20
4843520.586216231
  0
LWPOLYLINE
  5
22E
330
17
100
AcDbEntity
  8
ROADS
100
AcDbPolyline
 90
2
 70
0
 10
625579.950624313
 20
4843635.53993829
 10
625498.0756183247
 20
4843609.660933691
  0
LWPOLYLINE
  5
22F
330
17
100
AcDbEntity
  8
ROADS
100
AcDbPolyline
 90
2
 70
0
 10
625287.1763103923
 20
4843542.889415083
 10
625315.6529125209
 20
4843454.169865946
  0
LWPOLYLINE
  5
230
330
17
100
AcDbEntity
  8
ROADS
100
AcDbPolyline
 90
2
 70
0
 10
625498.0756183247
 20
4843609.660933691
 10
625287.1763103923
 20
4843542.889415083
  0
LWPOLYLINE
  5
231
330
17
100
AcDbEntity
  8
ROADS
100
AcDbPolyline
 90
2
 70
0
 10
625258.9333017807
 20
4843633.06726061
 10
625287.1763103923
 20
4843542.889415083
  0
LWPOLYLINE
  5
232
330
17
100
AcDbEntity
  8
ROADS
100
AcDbPolyline
 90
2
 70
0
 10
625470.5989835555
 20
4843699.487183889
 10
625498.0756183247
 20
4843609.660933691
  0
LWPOLYLINE
  5
233
330
17
100
AcDbEntity
  8
ROADS
100
AcDbPolyline
 90
2
 70
0
 10
625414.8030415644
 20
4843683.453726788
 10
625258.9333017807
 20
4843633.06726061
  0
LWPOLYLINE
  5
234
330
17
100
AcDbEntity
  8
ROADS
100
AcDbPolyline
 90
2
 70
0
 10
625470.5989835555
 20
4843699.487183889
 10
625414.8030415644
 20
4843683.453726788
  0
LWPOLYLINE
  5
235
330
17
100
AcDbEntity
  8
ROADS
100
AcDbPolyline
 90
2
 70
0
 10
625408.9163620183
 20
4843737.4432415925
 10
625414.8030415644
 20
4843683.453726788
  0
LWPOLYLINE
  5
236
330
17
100
AcDbEntity
  8
ROADS
100
AcDbPolyline
 90
2
 70
0
 10
625396.6087402529
 20
4843777.81974256
 10
625408.9163620183
 20
4843737.4432415925
  0
LWPOLYLINE
  5
237
330
17
100
AcDbEntity
  8
ROADS
100
AcDbPolyline
 90
2
 70
0
 10
625396.6087402529
 20
4843777.81974256
 10
625391.8730676516
 20
4843791.817811549
  0
LWPOLYLINE
  5
238
330
17
100
AcDbEntity
  8
ROADS
100
AcDbPolyline
 90
2
 70
0
 10
625430.7137627963
 20
4843797.536260094
 10
625396.6087402529
 20
4843777.81974256
  0
LWPOLYLINE
  5
239
330
17
100
AcDbEntity
  8
ROADS
100
AcDbPolyline
 90
2
 70
0
 10
624974.1919837553
 20
4842385.951839907
 10
624973.687051442
 20
4842390.236460034
  0
LWPOLYLINE
  5
23A
330
17
100
AcDbEntity
  8
ROADS
100
AcDbPolyline
 90
2
 70
0
 10
624948.3442827198
 20
4842400.312351959
 10
624973.687051442
 20
4842390.236460034
  0
LWPOLYLINE
  5
23B
330
17
100
AcDbEntity
  8
ROADS
100
AcDbPolyline
 90
2
 70
0
 10
624973.687051442
 20
4842390.236460034
 10
624965.2523829425
 20
4842424.835729034
  0
LWPOLYLINE
  5
23C
330
17
100
AcDbEntity
  8
ROADS
100
AcDbPolyline
 90
2
 70
0
 10
624948.3442827198
 20
4842400.312351959
 10
624965.2523829425
 20
4842424.835729034
  0
LWPOLYLINE
  5
23D
330
17
100
AcDbEntity
  8
ROADS
100
AcDbPolyline
 90
2
 70
0
 10
624965.2523829425
 20
4842424.835729034
 10
624983.0412510566
 20
4842486.2831052365
  0
LWPOLYLINE
  5
23E
330
17
100
AcDbEntity
  8
ROADS
100
AcDbPolyline
 90
2
 70
0
 10
625137.0147376074
 20
4843279.603399536
 10
625081.9688132108
 20
4843457.148947414
  0
LWPOLYLINE
  5
23F
330
17
100
AcDbEntity
  8
ROADS
100
AcDbPolyline
 90
3
 70
0
 10
624966.2902515021
 20
4843421.632986322
 10
624989.6161250687
 20
4843364.921061489
 10
625029.5262407707
 20
4843334.984820968
  0
LWPOLYLINE
  5
240
330
17
100
AcDbEntity
  8
ROADS
100
AcDbPolyline
 90
2
 70
0
 10
624966.2902515021
 20
4843421.632986322
 10
624955.5000286128
 20
4843428.628054823
  0
LWPOLYLINE
  5
241
330
17
100
AcDbEntity
  8
ROADS
100
AcDbPolyline
 90
2
 70
0
 10
625081.9688132108
 20
4843457.148947414
 10
624966.2902515021
 20
4843421.632986322
  0
LWPOLYLINE
  5
242
330
17
100
AcDbEntity
  8
ROADS
100
AcDbPolyline
 90
2
 70
0
 10
625081.9688132108
 20
4843457.148947414
 10
625046.1785251952
 20
4843566.490195161
  0
LWPOLYLINE
  5
243
330
17
100
AcDbEntity
  8
ROADS
100
AcDbPolyline
 90
2
 70
0
 10
625046.1785251952
 20
4843566.490195161
 10
624830.6490570342
 20
4843499.452459225
  0
LWPOLYLINE
  5
244
330
17
100
AcDbEntity
  8
ROADS
100
AcDbPolyline
 90
2
 70
0
 10
624740.1645016198
 20
4842345.516575963
 10
624722.6882635283
 20
4842388.021616544
  0
LWPOLYLINE
  5
245
330
17
100
AcDbEntity
  8
ROADS
100
AcDbPolyline
 90
2
 70
0
 10
624740.1645016198
 20
4842345.516575963
 10
624948.3442827198
 20
4842400.312351959
  0
LWPOLYLINE
  5
246
330
17
100
AcDbEntity
  8
ROADS
100
AcDbPolyline
 90
3
 70
0
 10
624983.0412510566
 20
4842486.2831052365
 10
624420.3588255559
 20
4842307.792548092
 10
624399.1779450874
 20
4842376.899936273
  0
LWPOLYLINE
  5
247
330
17
100
AcDbEntity
  8
ROADS
100
AcDbPolyline
 90
5
 70
0
 10
624219.2372566769
 20
4842730.455151241
 10
624343.5216144271
 20
4842795.169132202
 10
624680.7044738306
 20
4842896.851647296
 10
624880.1626355324
 20
4842785.4051849125
 10
624983.0412510566
 20
4842486.2831052365
  0
LWPOLYLINE
  5
248
330
17
100
AcDbEntity
  8
ROADS
100
AcDbPolyline
 90
2
 70
0
 10
624830.6490570342
 20
4843499.452459225
 10
624595.1042723199
 20
4843424.037038708
  0
LWPOLYLINE
  5
249
330
17
100
AcDbEntity
  8
ROADS
100
AcDbPolyline
 90
3
 70
0
 10
624884.0434628393
 20
4843763.538140071
 10
624818.4798704021
 20
4843815.738148868
 10
624785.3873421488
 20
4843869.0280202925
  0
LWPOLYLINE
  5
24A
330
17
100
AcDbEntity
  8
ROADS
100
AcDbPolyline
 90
2
 70
0
 10
624785.3873421488
 20
4843869.0280202925
 10
624750.7265888335
 20
4843984.2479016455
  0
LWPOLYLINE
  5
24B
330
17
100
AcDbEntity
  8
ROADS
100
AcDbPolyline
 90
2
 70
0
 10
625020.4408374735
 20
4844070.403437661
 10
624750.7265888335
 20
4843984.2479016455
  0
LWPOLYLINE
  5
24C
330
17
100
AcDbEntity
  8
ROADS
100
AcDbPolyline
 90
2
 70
0
 10
624750.7265888335
 20
4843984.2479016455
 10
624716.954005145
 20
4844104.817133072
  0
LWPOLYLINE
  5
24D
330
17
100
AcDbEntity
  8
ROADS
100
AcDbPolyline
 90
2
 70
0
 10
624998.1699529848
 20
4844192.292057647
 10
624716.954005145
 20
4844104.817133072
  0
LWPOLYLINE
  5
24E
330
17
100
AcDbEntity
  8
ROADS
100
AcDbPolyline
 90
2
 70
0
 10
625109.2160255942
 20
4843585.992398405
 10
625046.1785251952
 20
4843566.490195161
  0
LWPOLYLINE
  5
24F
330
17
100
AcDbEntity
  8
ROADS
100
AcDbPolyline
 90
2
 70
0
 10
625258.9333017807
 20
4843633.06726061
 10
625109.2160255942
 20
4843585.992398405
  0
LWPOLYLINE
  5
250
330
17
100
AcDbEntity
  8
ROADS
100
AcDbPolyline
 90
2
 70
0
 10
625046.1785251952
 20
4843566.490195161
 10
625001.1591511503
 20
4843676.358381044
  0
LWPOLYLINE
  5
251
330
17
100
AcDbEntity
  8
ROADS
100
AcDbPolyline
 90
2
 70
0
 10
625109.2160255942
 20
4843585.992398405
 10
625088.1459096413
 20
4843705.089660085
  0
LWPOLYLINE
  5
252
330
17
100
AcDbEntity
  8
ROADS
100
AcDbPolyline
 90
2
 70
0
 10
625088.1459096413
 20
4843705.089660085
 10
625001.1591511503
 20
4843676.358381044
  0
LWPOLYLINE
  5
253
330
17
100
AcDbEntity
  8
ROADS
100
AcDbPolyline
 90
4
 70
0
 10
624884.0434628393
 20
4843763.538140071
 10
624851.994413458
 20
4843705.38474796
 10
624872.092936655
 20
4843635.923732425
 10
625001.1591511503
 20
4843676.358381044
  0
LWPOLYLINE
  5
254
330
17
100
AcDbEntity
  8
ROADS
100
AcDbPolyline
 90
2
 70
0
 10
625001.1591511503
 20
4843676.358381044
 10
624884.0434628393
 20
4843763.538140071
  0
LWPOLYLINE
  5
255
330
17
100
AcDbEntity
  8
ROADS
100
AcDbPolyline
 90
2
 70
0
 10
625088.1459096413
 20
4843705.089660085
 10
625065.2080417321
 20
4843827.645289609
  0
LWPOLYLINE
  5
256
330
17
100
AcDbEntity
  8
ROADS
100
AcDbPolyline
 90
2
 70
0
 10
625065.2080417321
 20
4843827.645289609
 10
624884.0434628393
 20
4843763.538140071
  0
LWPOLYLINE
  5
257
330
17
100
AcDbEntity
  8
ROADS
100
AcDbPolyline
 90
5
 70
0
 10
625088.1459096413
 20
4843705.089660085
 10
625180.7760611319
 20
4843731.773998181
 10
625187.6182039079
 20
4843746.5366903255
 10
625134.7129699081
 20
4843965.576278273
 10
625042.9691855377
 20
4843949.150498767
  0
LWPOLYLINE
  5
258
330
17
100
AcDbEntity
  8
ROADS
100
AcDbPolyline
 90
2
 70
0
 10
625065.2080417321
 20
4843827.645289609
 10
625042.9691855377
 20
4843949.150498767
  0
LWPOLYLINE
  5
259
330
17
100
AcDbEntity
  8
ROADS
100
AcDbPolyline
 90
2
 70
0
 10
625042.9691855377
 20
4843949.150498767
 10
624785.3873421488
 20
4843869.0280202925
  0
LWPOLYLINE
  5
25A
330
17
100
AcDbEntity
  8
ROADS
100
AcDbPolyline
 90
2
 70
0
 10
625042.9691855377
 20
4843949.150498767
 10
625026.2511691059
 20
4844040.187936702
  0
LWPOLYLINE
  5
25B
330
17
100
AcDbEntity
  8
ROADS
100
AcDbPolyline
 90
2
 70
0
 10
625026.2511691059
 20
4844040.187936702
 10
625020.4408374735
 20
4844070.403437661
  0
LWPOLYLINE
  5
25C
330
17
100
AcDbEntity
  8
ROADS
100
AcDbPolyline
 90
2
 70
0
 10
625225.9517611827
 20
4844107.225997052
 10
625026.2511691059
 20
4844040.187936702
  0
LWPOLYLINE
  5
25D
330
17
100
AcDbEntity
  8
ROADS
100
AcDbPolyline
 90
2
 70
0
 10
625020.4408374735
 20
4844070.403437661
 10
624998.1699529848
 20
4844192.292057647
  0
LWPOLYLINE
  5
25E
330
17
100
AcDbEntity
  8
ROADS
100
AcDbPolyline
 90
2
 70
0
 10
625195.3800165013
 20
4844190.690243403
 10
625131.1444236446
 20
4844253.768873155
  0
LWPOLYLINE
  5
25F
330
17
100
AcDbEntity
  8
ROADS
100
AcDbPolyline
 90
2
 70
0
 10
624998.1699529848
 20
4844192.292057647
 10
624975.409569033
 20
4844315.253860015
  0
LWPOLYLINE
  5
260
330
17
100
AcDbEntity
  8
ROADS
100
AcDbPolyline
 90
3
 70
0
 10
625131.1444236446
 20
4844253.768873155
 10
625085.671046957
 20
4844305.846538616
 10
625058.08593058
 20
4844377.739156203
  0
LWPOLYLINE
  5
261
330
17
100
AcDbEntity
  8
ROADS
100
AcDbPolyline
 90
2
 70
0
 10
624975.409569033
 20
4844315.253860015
 10
624969.5023133289
 20
4844347.617717058
  0
LWPOLYLINE
  5
262
330
17
100
AcDbEntity
  8
ROADS
100
AcDbPolyline
 90
2
 70
0
 10
624716.954005145
 20
4844104.817133072
 10
624684.0074133822
 20
4844223.067167499
  0
LWPOLYLINE
  5
263
330
17
100
AcDbEntity
  8
ROADS
100
AcDbPolyline
 90
2
 70
0
 10
624684.0074133822
 20
4844223.067167499
 10
624706.9908073492
 20
4844255.373034875
  0
LWPOLYLINE
  5
264
330
17
100
AcDbEntity
  8
ROADS
100
AcDbPolyline
 90
2
 70
0
 10
624975.409569033
 20
4844315.253860015
 10
624684.0074133822
 20
4844223.067167499
  0
LWPOLYLINE
  5
265
330
17
100
AcDbEntity
  8
ROADS
100
AcDbPolyline
 90
2
 70
0
 10
624684.0074133822
 20
4844223.067167499
 10
624601.437138688
 20
4844492.214018482
  0
LWPOLYLINE
  5
266
330
17
100
AcDbEntity
  8
ROADS
100
AcDbPolyline
 90
2
 70
0
 10
624770.8030501946
 20
4844379.060120445
 10
624744.4796262152
 20
4844370.2210613405
  0
LWPOLYLINE
  5
267
330
17
100
AcDbEntity
  8
ROADS
100
AcDbPolyline
 90
2
 70
0
 10
624860.7297764833
 20
4844406.856738626
 10
624770.8030501946
 20
4844379.060120445
  0
LWPOLYLINE
  5
268
330
17
100
AcDbEntity
  8
ROADS
100
AcDbPolyline
 90
2
 70
0
 10
624860.7297764833
 20
4844406.856738626
 10
624838.6838440468
 20
4844460.74958937
  0
LWPOLYLINE
  5
269
330
17
100
AcDbEntity
  8
ROADS
100
AcDbPolyline
 90
2
 70
0
 10
624770.8030501946
 20
4844379.060120445
 10
624723.47398184
 20
4844529.046502003
  0
LWPOLYLINE
  5
26A
330
17
100
AcDbEntity
  8
ROADS
100
AcDbPolyline
 90
2
 70
0
 10
624667.4486803903
 20
4844511.881225497
 10
624601.437138688
 20
4844492.214018482
  0
LWPOLYLINE
  5
26B
330
17
100
AcDbEntity
  8
ROADS
100
AcDbPolyline
 90
2
 70
0
 10
624723.47398184
 20
4844529.046502003
 10
624667.4486803903
 20
4844511.881225497
  0
LWPOLYLINE
  5
26C
330
17
100
AcDbEntity
  8
ROADS
100
AcDbPolyline
 90
4
 70
0
 10
625131.1444236446
 20
4844253.768873155
 10
625207.2130200127
 20
4844310.092205652
 10
625307.3752664854
 20
4844337.2361097075
 10
625320.5739188266
 20
4844367.092626729
  0
LWPOLYLINE
  5
26D
330
17
100
AcDbEntity
  8
ROADS
100
AcDbPolyline
 90
2
 70
0
 10
625058.08593058
 20
4844377.739156203
 10
624969.5023133289
 20
4844347.617717058
  0
LWPOLYLINE
  5
26E
330
17
100
AcDbEntity
  8
ROADS
100
AcDbPolyline
 90
2
 70
0
 10
624969.5023133289
 20
4844347.617717058
 10
624948.9259953188
 20
4844442.02345142
  0
LWPOLYLINE
  5
26F
330
17
100
AcDbEntity
  8
ROADS
100
AcDbPolyline
 90
2
 70
0
 10
625259.6573875039
 20
4844441.123768839
 10
625058.08593058
 20
4844377.739156203
  0
LWPOLYLINE
  5
270
330
17
100
AcDbEntity
  8
ROADS
100
AcDbPolyline
 90
2
 70
0
 10
624948.9259953188
 20
4844442.02345142
 10
624860.7297764833
 20
4844406.856738626
  0
LWPOLYLINE
  5
271
330
17
100
AcDbEntity
  8
ROADS
100
AcDbPolyline
 90
2
 70
0
 10
625037.48312934
 20
4844469.4642843725
 10
624948.9259953188
 20
4844442.02345142
  0
LWPOLYLINE
  5
272
330
17
100
AcDbEntity
  8
ROADS
100
AcDbPolyline
 90
2
 70
0
 10
625178.806590549
 20
4844515.558803432
 10
625037.48312934
 20
4844469.4642843725
  0
LWPOLYLINE
  5
273
330
17
100
AcDbEntity
  8
ROADS
100
AcDbPolyline
 90
2
 70
0
 10
624948.9259953188
 20
4844442.02345142
 10
624903.6000096665
 20
4844586.153845193
  0
LWPOLYLINE
  5
274
330
17
100
AcDbEntity
  8
ROADS
100
AcDbPolyline
 90
2
 70
0
 10
624991.5280207163
 20
4844614.0953503605
 10
625037.48312934
 20
4844469.4642843725
  0
LWPOLYLINE
  5
275
330
17
100
AcDbEntity
  8
ROADS
100
AcDbPolyline
 90
2
 70
0
 10
624991.5280207163
 20
4844614.0953503605
 10
624903.6000096665
 20
4844586.153845193
  0
LWPOLYLINE
  5
276
330
17
100
AcDbEntity
  8
ROADS
100
AcDbPolyline
 90
2
 70
0
 10
624667.4486803903
 20
4844511.881225497
 10
624650.5170588619
 20
4844574.05708727
  0
LWPOLYLINE
  5
277
330
17
100
AcDbEntity
  8
ROADS
100
AcDbPolyline
 90
2
 70
0
 10
624903.6000096665
 20
4844586.153845193
 10
624723.47398184
 20
4844529.046502003
  0
LWPOLYLINE
  5
278
330
17
100
AcDbEntity
  8
ROADS
100
AcDbPolyline
 90
2
 70
0
 10
624601.437138688
 20
4844492.214018482
 10
624512.4236522365
 20
4844773.382736223
  0
LWPOLYLINE
  5
279
330
17
100
AcDbEntity
  8
ROADS
100
AcDbPolyline
 90
2
 70
0
 10
624903.6000096665
 20
4844586.153845193
 10
624886.4091310261
 20
4844664.894738261
  0
LWPOLYLINE
  5
27A
330
17
100
AcDbEntity
  8
ROADS
100
AcDbPolyline
 90
5
 70
0
 10
624633.666080701
 20
4844722.313952336
 10
624600.0867549495
 20
4844711.505554225
 10
624572.8584677286
 20
4844686.419203575
 10
624578.9179695094
 20
4844659.456441486
 10
624615.3589349778
 20
4844651.835800672
  0
LWPOLYLINE
  5
27B
330
17
100
AcDbEntity
  8
ROADS
100
AcDbPolyline
 90
2
 70
0
 10
624708.6135267726
 20
4844692.691778783
 10
624710.3790353148
 20
4844683.710921821
  0
LWPOLYLINE
  5
27C
330
17
100
AcDbEntity
  8
ROADS
100
AcDbPolyline
 90
3
 70
0
 10
624399.1779450874
 20
4842376.899936273
 10
624316.6601144217
 20
4842374.711364296
 10
624273.3886171211
 20
4842450.638279405
  0
LWPOLYLINE
  5
27D
330
17
100
AcDbEntity
  8
ROADS
100
AcDbPolyline
 90
2
 70
0
 10
624273.3886171211
 20
4842450.638279405
 10
624219.2372566769
 20
4842730.455151241
  0
LWPOLYLINE
  5
27E
330
17
100
AcDbEntity
  8
ROADS
100
AcDbPolyline
 90
2
 70
0
 10
624219.2372566769
 20
4842730.455151241
 10
624179.1179925163
 20
4842940.131184776
  0
LWPOLYLINE
  5
27F
330
17
100
AcDbEntity
  8
ROADS
100
AcDbPolyline
 90
2
 70
0
 10
624179.1179925163
 20
4842940.131184776
 10
624158.9954595919
 20
4843032.198864954
  0
LWPOLYLINE
  5
280
330
17
100
AcDbEntity
  8
ROADS
100
AcDbPolyline
 90
8
 70
0
 10
624595.1042723199
 20
4843424.037038708
 10
624699.4337408515
 20
4843268.593044956
 10
624705.7466287954
 20
4843221.604736445
 10
624619.4791056978
 20
4843100.2735739965
 10
624463.3381703893
 20
4843011.792520165
 10
624420.7275650239
 20
4843015.234435023
 10
624295.3754377686
 20
4843068.292350592
 10
624158.9954595919
 20
4843032.198864954
  0
LWPOLYLINE
  5
281
330
17
100
AcDbEntity
  8
ROADS
100
AcDbPolyline
 90
2
 70
0
 10
624595.1042723199
 20
4843424.037038708
 10
624112.3255858402
 20
4843271.545830977
  0
LWPOLYLINE
  5
282
330
17
100
AcDbEntity
  8
ROADS
100
AcDbPolyline
 90
14
 70
0
 10
624595.1042723199
 20
4843424.037038708
 10
624588.8550874816
 20
4843483.470160542
 10
624617.2801528776
 20
4843527.194095877
 10
624669.7979878358
 20
4843716.841166066
 10
624659.2559214982
 20
4843916.229251422
 10
624622.5946945527
 20
4844009.815686202
 10
624428.3883731199
 20
4844211.528804726
 10
624405.6640978993
 20
4844258.923965911
 10
624414.0766454138
 20
4844310.288045804
 10
624461.0556996705
 20
4844359.419233159
 10
624137.9742942428
 20
4844742.795441921
 10
623798.788060347
 20
4845028.243189398
 10
623747.0235961779
 20
4845124.934958753
 10
623712.5822122131
 20
4845281.702495397
  0
LWPOLYLINE
  5
283
330
17
100
AcDbEntity
  8
ROADS
100
AcDbPolyline
 90
2
 70
0
 10
624512.4236522365
 20
4844773.382736223
 10
624485.5320921175
 20
4844857.891436731
  0
LWPOLYLINE
  5
284
330
17
100
AcDbEntity
  8
ROADS
100
AcDbPolyline
 90
2
 70
0
 10
624485.5320921175
 20
4844857.891436731
 10
624462.8612449693
 20
4844929.363500257
  0
LWPOLYLINE
  5
285
330
17
100
AcDbEntity
  8
ROADS
100
AcDbPolyline
 90
2
 70
0
 10
623030.0258392475
 20
4843161.220327751
 10
623012.4237006364
 20
4843261.946734098
  0
LWPOLYLINE
  5
286
330
17
100
AcDbEntity
  8
ROADS
100
AcDbPolyline
 90
2
 70
0
 10
623278.7583627877
 20
4843350.377706766
 10
623012.4237006364
 20
4843261.946734098
  0
LWPOLYLINE
  5
287
330
17
100
AcDbEntity
  8
ROADS
100
AcDbPolyline
 90
3
 70
0
 10
623012.4237006364
 20
4843261.946734098
 10
622994.440676405
 20
4843363.676952476
 10
623248.9449928349
 20
4843445.941372341
  0
LWPOLYLINE
  5
288
330
17
100
AcDbEntity
  8
ROADS
100
AcDbPolyline
 90
2
 70
0
 10
622803.6561694053
 20
4843363.219763035
 10
622853.2710761898
 20
4843375.458475672
  0
LWPOLYLINE
  5
289
330
17
100
AcDbEntity
  8
ROADS
100
AcDbPolyline
 90
2
 70
0
 10
623278.7583627877
 20
4843350.377706766
 10
623248.9449928349
 20
4843445.941372341
  0
LWPOLYLINE
  5
28A
330
17
100
AcDbEntity
  8
ROADS
100
AcDbPolyline
 90
2
 70
0
 10
622787.978989898
 20
4843463.729926637
 10
622803.6561694053
 20
4843363.219763035
  0
LWPOLYLINE
  5
28B
330
17
100
AcDbEntity
  8
ROADS
100
AcDbPolyline
 90
4
 70
0
 10
623165.1320706639
 20
4845333.620297823
 10
623254.0583278523
 20
4845220.584793178
 10
623261.8168589417
 20
4845118.351093989
 10
623296.4979346554
 20
4845074.316819264
  0
LWPOLYLINE
  5
28C
330
17
100
AcDbEntity
  8
ROADS
100
AcDbPolyline
 90
2
 70
0
 10
623165.1320706639
 20
4845333.620297823
 10
623148.0884197401
 20
4845320.962043694
  0
LWPOLYLINE
  5
28D
330
17
100
AcDbEntity
  8
ROADS
100
AcDbPolyline
 90
3
 70
0
 10
622843.5831759546
 20
4845630.995588355
 10
622913.3212676232
 20
4845523.716097156
 10
622910.5969447172
 20
4845454.585331015
  0
LWPOLYLINE
  5
28E
330
17
100
AcDbEntity
  8
ROADS
100
AcDbPolyline
 90
3
 70
0
 10
622843.5831759546
 20
4845630.995588355
 10
622928.349324777
 20
4845617.192873969
 10
623014.6235876364
 20
4845520.553320635
  0
LWPOLYLINE
  5
28F
330
17
100
AcDbEntity
  8
ROADS
100
AcDbPolyline
 90
2
 70
0
 10
623791.0093460805
 20
4843838.459194005
 10
623606.0953745092
 20
4843776.058483201
  0
LWPOLYLINE
  5
290
330
17
100
AcDbEntity
  8
ROADS
100
AcDbPolyline
 90
2
 70
0
 10
623606.0953745092
 20
4843776.058483201
 10
623574.7890106159
 20
4843871.222658323
  0
LWPOLYLINE
  5
291
330
17
100
AcDbEntity
  8
ROADS
100
AcDbPolyline
 90
4
 70
0
 10
623874.135229084
 20
4843769.987425335
 10
623685.7987393774
 20
4843978.165822659
 10
623617.0978632042
 20
4843992.434843409
 10
623389.2601330588
 20
4843919.963505516
  0
LWPOLYLINE
  5
292
330
17
100
AcDbEntity
  8
ROADS
100
AcDbPolyline
 90
2
 70
0
 10
623668.3416420321
 20
4843902.6098732
 10
623574.7890106159
 20
4843871.222658323
  0
LWPOLYLINE
  5
293
330
17
100
AcDbEntity
  8
ROADS
100
AcDbPolyline
 90
2
 70
0
 10
623574.7890106159
 20
4843871.222658323
 10
623557.1352732999
 20
4843923.579768936
  0
LWPOLYLINE
  5
294
330
17
100
AcDbEntity
  8
ROADS
100
AcDbPolyline
 90
2
 70
0
 10
623721.0959998507
 20
4843919.699781236
 10
623668.3416420321
 20
4843902.6098732
  0
LWPOLYLINE
  5
295
330
17
100
AcDbEntity
  8
ROADS
100
AcDbPolyline
 90
3
 70
0
 10
623668.3416420321
 20
4843902.6098732
 10
623650.6244299674
 20
4843941.017125289
 10
623557.1352732999
 20
4843923.579768936
  0
LWPOLYLINE
  5
296
330
17
100
AcDbEntity
  8
ROADS
100
AcDbPolyline
 90
2
 70
0
 10
623557.1352732999
 20
4843923.579768936
 10
623545.5561185791
 20
4843961.4490986895
  0
LWPOLYLINE
  5
297
330
17
100
AcDbEntity
  8
ROADS
100
AcDbPolyline
 90
2
 70
0
 10
623762.1443054704
 20
4845296.640707434
 10
623712.5822122131
 20
4845281.702495397
  0
LWPOLYLINE
  5
298
330
17
100
AcDbEntity
  8
ROADS
100
AcDbPolyline
 90
5
 70
0
 10
623712.5822122131
 20
4845281.702495397
 10
623639.8649931602
 20
4845265.158930116
 10
623584.3961064295
 20
4845274.714038136
 10
623524.7767478415
 20
4845307.037161563
 10
623465.2934940059
 20
4845381.326891502
  0
LWPOLYLINE
  5
299
330
17
100
AcDbEntity
  8
ROADS
100
AcDbPolyline
 90
2
 70
0
 10
623879.8243561182
 20
4843651.588202491
 10
623841.7796667815
 20
4843747.331515117
  0
LWPOLYLINE
  5
29A
330
17
100
AcDbEntity
  8
ROADS
100
AcDbPolyline
 90
2
 70
0
 10
623841.7796667815
 20
4843747.331515117
 10
623874.135229084
 20
4843769.987425335
  0
LWPOLYLINE
  5
29B
330
17
100
AcDbEntity
  8
ROADS
100
AcDbPolyline
 90
3
 70
0
 10
624092.9218342755
 20
4845154.99598575
 10
624049.9885383346
 20
4845151.002054336
 10
624003.31513486
 20
4845168.615878873
  0
LWPOLYLINE
  5
29C
330
17
100
AcDbEntity
  8
ROADS
100
AcDbPolyline
 90
2
 70
0
 10
624092.9218342755
 20
4845154.99598575
 10
624060.8815583803
 20
4845263.144244735
  0
LWPOLYLINE
  5
29D
330
17
100
AcDbEntity
  8
ROADS
100
AcDbPolyline
 90
2
 70
0
 10
624162.28056661
 20
4845295.040536649
 10
624060.8815583803
 20
4845263.144244735
  0
LWPOLYLINE
  5
29E
330
17
100
AcDbEntity
  8
ROADS
100
AcDbPolyline
 90
2
 70
0
 10
624060.8815583803
 20
4845263.144244735
 10
624025.365406176
 20
4845377.91922873
  0
LWPOLYLINE
  5
29F
330
17
100
AcDbEntity
  8
ROADS
100
AcDbPolyline
 90
2
 70
0
 10
624025.365406176
 20
4845377.91922873
 10
623762.1443054704
 20
4845296.640707434
  0
LWPOLYLINE
  5
2A0
330
17
100
AcDbEntity
  8
ROADS
100
AcDbPolyline
 90
2
 70
0
 10
624079.5484702418
 20
4845395.154352625
 10
624025.365406176
 20
4845377.91922873
  0
LWPOLYLINE
  5
2A1
330
17
100
AcDbEntity
  8
ROADS
100
AcDbPolyline
 90
3
 70
0
 10
624290.9379469136
 20
4845087.128448529
 10
624128.6612504346
 20
4845046.259987315
 10
624092.9218342755
 20
4845154.99598575
  0
LWPOLYLINE
  5
2A2
330
17
100
AcDbEntity
  8
ROADS
100
AcDbPolyline
 90
2
 70
0
 10
624330.0377369587
 20
4845099.8033296205
 10
624290.9379469136
 20
4845087.128448529
  0
LWPOLYLINE
  5
2A3
330
17
100
AcDbEntity
  8
ROADS
100
AcDbPolyline
 90
2
 70
0
 10
624290.9379469136
 20
4845087.128448529
 10
624263.478634386
 20
4845174.932390056
  0
LWPOLYLINE
  5
2A4
330
17
100
AcDbEntity
  8
ROADS
100
AcDbPolyline
 90
2
 70
0
 10
624243.7855178793
 20
4845196.406560117
 10
624092.9218342755
 20
4845154.99598575
  0
LWPOLYLINE
  5
2A5
330
17
100
AcDbEntity
  8
ROADS
100
AcDbPolyline
 90
2
 70
0
 10
623712.5822122131
 20
4845281.702495397
 10
623682.0934909096
 20
4845448.547098467
  0
LWPOLYLINE
  5
2A6
330
17
100
AcDbEntity
  8
ROADS
100
AcDbPolyline
 90
3
 70
0
 10
623400.8282929123
 20
4845461.8397015445
 10
623320.1135281133
 20
4845402.17709957
 10
623165.1320706639
 20
4845333.620297823
  0
LWPOLYLINE
  5
2A7
330
17
100
AcDbEntity
  8
ROADS
100
AcDbPolyline
 90
4
 70
0
 10
623682.0934909096
 20
4845448.547098467
 10
623610.3786001215
 20
4845410.782550007
 10
623515.3634580916
 20
4845412.12112035
 10
623465.2934940059
 20
4845381.326891502
  0
LWPOLYLINE
  5
2A8
330
17
100
AcDbEntity
  8
ROADS
100
AcDbPolyline
 90
2
 70
0
 10
623465.2934940059
 20
4845381.326891502
 10
623400.8282929123
 20
4845461.8397015445
  0
LWPOLYLINE
  5
2A9
330
17
100
AcDbEntity
  8
ROADS
100
AcDbPolyline
 90
2
 70
0
 10
623762.1443054704
 20
4845296.640707434
 10
623700.8742872934
 20
4845621.464172281
  0
LWPOLYLINE
  5
2AA
330
17
100
AcDbEntity
  8
ROADS
100
AcDbPolyline
 90
3
 70
0
 10
623400.8282929123
 20
4845461.8397015445
 10
623265.5715882588
 20
4845632.030136059
 10
623199.8718486573
 20
4845691.85944952
  0
LWPOLYLINE
  5
2AB
330
17
100
AcDbEntity
  8
ROADS
100
AcDbPolyline
 90
2
 70
0
 10
623700.8742872934
 20
4845621.464172281
 10
623754.613614275
 20
4845636.511082346
  0
LWPOLYLINE
  5
2AC
330
17
100
AcDbEntity
  8
ROADS
100
AcDbPolyline
 90
5
 70
0
 10
623400.8282929123
 20
4845461.8397015445
 10
623506.0449988529
 20
4845553.605663732
 10
623456.6191112902
 20
4845817.86621586
 10
623428.0468444949
 20
4845830.6114581805
 10
623255.5392623389
 20
4845766.487286243
  0
LWPOLYLINE
  5
2AD
330
17
100
AcDbEntity
  8
ROADS
100
AcDbPolyline
 90
2
 70
0
 10
623700.8742872934
 20
4845621.464172281
 10
623676.2483371687
 20
4845752.048024808
  0
LWPOLYLINE
  5
2AE
330
17
100
AcDbEntity
  8
ROADS
100
AcDbPolyline
 90
2
 70
0
 10
623682.0934909096
 20
4845448.547098467
 10
623605.84829243
 20
4845885.244311093
  0
LWPOLYLINE
  5
2AF
330
17
100
AcDbEntity
  8
ROADS
100
AcDbPolyline
 90
2
 70
0
 10
623707.7865978859
 20
4845761.765102016
 10
623676.2483371687
 20
4845752.048024808
  0
LWPOLYLINE
  5
2B0
330
17
100
AcDbEntity
  8
ROADS
100
AcDbPolyline
 90
2
 70
0
 10
623676.2483371687
 20
4845752.048024808
 10
623664.2175364018
 20
4845814.542362707
  0
LWPOLYLINE
  5
2B1
330
17
100
AcDbEntity
  8
ROADS
100
AcDbPolyline
 90
2
 70
0
 10
625564.0860304509
 20
4843728.918776953
 10
625470.5989835555
 20
4843699.487183889
  0
LWPOLYLINE
  5
2B2
330
17
100
AcDbEntity
  8
ROADS
100
AcDbPolyline
 90
2
 70
0
 10
625551.8213738808
 20
4843782.621622105
 10
625408.9163620183
 20
4843737.4432415925
  0
LWPOLYLINE
  5
2B3
330
17
100
AcDbEntity
  8
ROADS
100
AcDbPolyline
 90
2
 70
0
 10
625538.5651577207
 20
4843831.744790787
 10
625430.7137627963
 20
4843797.536260094
  0
LWPOLYLINE
  5
2B4
330
17
100
AcDbEntity
  8
ROADS
100
AcDbPolyline
 90
4
 70
0
 10
625517.5923461212
 20
4843906.897873905
 10
625501.6580617889
 20
4843901.318491464
 10
625441.1748256426
 20
4843840.432083664
 10
625430.7137627963
 20
4843797.536260094
  0
LWPOLYLINE
  5
2B5
330
17
100
AcDbEntity
  8
ROADS
100
AcDbPolyline
 90
2
 70
0
 10
625391.8730676516
 20
4843791.817811549
 10
625337.2564810232
 20
4843954.635351263
  0
LWPOLYLINE
  5
2B6
330
17
100
AcDbEntity
  8
ROADS
100
AcDbPolyline
 90
4
 70
0
 10
625312.3175646018
 20
4844036.084497932
 10
625217.1515098731
 20
4844002.8127855575
 10
625283.5456405234
 20
4843770.841602187
 10
625391.8730676516
 20
4843791.817811549
  0
LWPOLYLINE
  5
2B7
330
17
100
AcDbEntity
  8
ROADS
100
AcDbPolyline
 90
2
 70
0
 10
625490.55062626
 20
4844003.796438295
 10
625337.2564810232
 20
4843954.635351263
  0
LWPOLYLINE
  5
2B8
330
17
100
AcDbEntity
  8
ROADS
100
AcDbPolyline
 90
2
 70
0
 10
625337.2564810232
 20
4843954.635351263
 10
625312.3175646018
 20
4844036.084497932
  0
LWPOLYLINE
  5
2B9
330
17
100
AcDbEntity
  8
ROADS
100
AcDbPolyline
 90
2
 70
0
 10
625465.827406033
 20
4844084.3072870355
 10
625312.3175646018
 20
4844036.084497932
  0
LWPOLYLINE
  5
2BA
330
17
100
AcDbEntity
  8
ROADS
100
AcDbPolyline
 90
2
 70
0
 10
625312.3175646018
 20
4844036.084497932
 10
625283.5074720882
 20
4844123.49588806
  0
LWPOLYLINE
  5
2BB
330
17
100
AcDbEntity
  8
ROADS
100
AcDbPolyline
 90
2
 70
0
 10
625283.5074720882
 20
4844123.49588806
 10
625225.9517611827
 20
4844107.225997052
  0
LWPOLYLINE
  5
2BC
330
17
100
AcDbEntity
  8
ROADS
100
AcDbPolyline
 90
2
 70
0
 10
625225.9517611827
 20
4844107.225997052
 10
625195.3800165013
 20
4844190.690243403
  0
LWPOLYLINE
  5
2BD
330
17
100
AcDbEntity
  8
ROADS
100
AcDbPolyline
 90
2
 70
0
 10
625430.3083928068
 20
4844172.129280124
 10
625283.5074720882
 20
4844123.49588806
  0
LWPOLYLINE
  5
2BE
330
17
100
AcDbEntity
  8
ROADS
100
AcDbPolyline
 90
2
 70
0
 10
625195.3800165013
 20
4844190.690243403
 10
625390.5120729925
 20
4844254.746749707
  0
LWPOLYLINE
  5
2BF
330
17
100
AcDbEntity
  8
ROADS
100
AcDbPolyline
 90
2
 70
0
 10
624575.0884228993
 20
4844793.318570079
 10
624512.4236522365
 20
4844773.382736223
  0
LWPOLYLINE
  5
2C0
330
17
100
AcDbEntity
  8
ROADS
100
AcDbPolyline
 90
2
 70
0
 10
625010.592537128
 20
4844620.249386759
 10
624991.5280207163
 20
4844614.0953503605
  0
LWPOLYLINE
  5
2C1
330
17
100
AcDbEntity
  8
ROADS
100
AcDbPolyline
 90
2
 70
0
 10
624485.5320921175
 20
4844857.891436731
 10
624513.985490897
 20
4844867.387891912
  0
LWPOLYLINE
  5
2C2
330
17
100
AcDbEntity
  8
ROADS
100
AcDbPolyline
 90
2
 70
0
 10
621836.8114667663
 20
4845144.316999892
 10
621854.1244539791
 20
4845072.21103343
  0
LWPOLYLINE
  5
2C3
330
17
100
AcDbEntity
  8
ROADS
100
AcDbPolyline
 90
2
 70
0
 10
621888.3141404501
 20
4844999.337003825
 10
621910.2569689207
 20
4844979.45617605
  0
LWPOLYLINE
  5
2C4
330
17
100
AcDbEntity
  8
ROADS
100
AcDbPolyline
 90
2
 70
0
 10
621836.8114667663
 20
4845144.316999892
 10
621828.4926394671
 20
4845144.248329778
  0
LWPOLYLINE
  5
2C5
330
17
100
AcDbEntity
  8
ROADS
100
AcDbPolyline
 90
3
 70
0
 10
622253.552098539
 20
4844745.173849212
 10
622263.539888552
 20
4844777.356220866
 10
622244.6600556503
 20
4844781.439580776
  0
LWPOLYLINE
  5
2C6
330
17
100
AcDbEntity
  8
ROADS
100
AcDbPolyline
 90
2
 70
0
 10
622218.9637821047
 20
4844824.7983917575
 10
622244.6600556503
 20
4844781.439580776
  0
LWPOLYLINE
  5
2C7
330
17
100
AcDbEntity
  8
ROADS
100
AcDbPolyline
 90
4
 70
0
 10
622158.8728400514
 20
4845033.460280982
 10
622160.9269086539
 20
4844912.89675591
 10
622143.8699370389
 20
4844822.604641994
 10
622082.8180693078
 20
4844731.527942878
  0
LWPOLYLINE
  5
2C8
330
17
100
AcDbEntity
  8
ROADS
100
AcDbPolyline
 90
5
 70
0
 10
622046.4472759755
 20
4845007.074896167
 10
622098.0692234344
 20
4844933.53661564
 10
622081.0650853161
 20
4844860.762300431
 10
622015.7348263501
 20
4844823.6576829115
 10
622012.1432618935
 20
4844824.056940104
  0
LWPOLYLINE
  5
2C9
330
17
100
AcDbEntity
  8
ROADS
100
AcDbPolyline
 90
5
 70
0
 10
622158.8728400514
 20
4845033.460280982
 10
622196.0068701057
 20
4845032.009582191
 10
622214.9987722198
 20
4845011.6854933
 10
622201.4410511623
 20
4844881.679829846
 10
622218.9637821047
 20
4844824.7983917575
  0
LWPOLYLINE
  5
2CA
330
17
100
AcDbEntity
  8
ROADS
100
AcDbPolyline
 90
3
 70
0
 10
621910.2569689207
 20
4844979.45617605
 10
621986.3418967618
 20
4844977.226697753
 10
622046.4472759755
 20
4845007.074896167
  0
LWPOLYLINE
  5
2CB
330
17
100
AcDbEntity
  8
ROADS
100
AcDbPolyline
 90
3
 70
0
 10
622046.4472759755
 20
4845007.074896167
 10
622068.931913506
 20
4845025.986406025
 10
622158.8728400514
 20
4845033.460280982
  0
LWPOLYLINE
  5
2CC
330
17
100
AcDbEntity
  8
ROADS
100
AcDbPolyline
 90
2
 70
0
 10
622151.3623553197
 20
4845199.979184808
 10
622158.8728400514
 20
4845033.460280982
  0
LWPOLYLINE
  5
2CD
330
17
100
AcDbEntity
  8
ROADS
100
AcDbPolyline
 90
2
 70
0
 10
622218.9637821047
 20
4844824.7983917575
 10
622612.2937031817
 20
4844952.933248772
  0
LWPOLYLINE
  5
2CE
330
17
100
AcDbEntity
  8
ROADS
100
AcDbPolyline
 90
2
 70
0
 10
622612.2937031817
 20
4844952.933248772
 10
622726.6080065243
 20
4844990.44990125
  0
LWPOLYLINE
  5
2CF
330
17
100
AcDbEntity
  8
ROADS
100
AcDbPolyline
 90
8
 70
0
 10
622726.6080065243
 20
4844990.44990125
 10
622722.1318129277
 20
4845003.482493178
 10
622807.3259173215
 20
4845027.346234054
 10
622816.295940577
 20
4845056.53009086
 10
622692.502366295
 20
4845208.654063738
 10
622581.6150923074
 20
4845299.65965047
 10
622566.3491513468
 20
4845375.550916501
 10
622594.7512651872
 20
4845436.055825039
  0
LWPOLYLINE
  5
2D0
330
17
100
AcDbEntity
  8
ROADS
100
AcDbPolyline
 90
7
 70
0
 10
622726.6080065243
 20
4844990.44990125
 10
622803.8656356441
 20
4845017.632101136
 10
622821.2823882025
 20
4845061.268612551
 10
622693.3135428831
 20
4845215.1080681225
 10
622586.4882887792
 20
4845303.859095654
 10
622572.1765063658
 20
4845377.645537688
 10
622594.7512651872
 20
4845436.055825039
  0
LWPOLYLINE
  5
2D1
330
17
100
AcDbEntity
  8
ROADS
100
AcDbPolyline
 90
2
 70
0
 10
622594.7512651872
 20
4845436.055825039
 10
622843.5831759546
 20
4845630.995588355
  0
LWPOLYLINE
  5
2D2
330
17
100
AcDbEntity
  8
ROADS
100
AcDbPolyline
 90
7
 70
0
 10
622594.7512651872
 20
4845436.055825039
 10
622569.8272347255
 20
4845525.767205835
 10
622592.0948022552
 20
4845589.634539786
 10
622574.3628778587
 20
4845650.60441463
 10
622625.9612350353
 20
4845685.624488057
 10
622650.4585151447
 20
4845771.6563050775
 10
622696.0587636852
 20
4845824.502660636
  0
LWPOLYLINE
  5
2D3
330
17
100
AcDbEntity
  8
ROADS
100
AcDbPolyline
 90
2
 70
0
 10
622346.8903054453
 20
4845708.1230128845
 10
622379.2092226914
 20
4845584.900334681
  0
LWPOLYLINE
  5
2D4
330
17
100
AcDbEntity
  8
ROADS
100
AcDbPolyline
 90
2
 70
0
 10
622480.5915532276
 20
4845753.195333088
 10
622346.8903054453
 20
4845708.1230128845
  0
LWPOLYLINE
  5
2D5
330
17
100
AcDbEntity
  8
ROADS
100
AcDbPolyline
 90
2
 70
0
 10
622346.8903054453
 20
4845708.1230128845
 10
622328.3056702914
 20
4845820.319852627
  0
LWPOLYLINE
  5
2D6
330
17
100
AcDbEntity
  8
ROADS
100
AcDbPolyline
 90
2
 70
0
 10
622696.0587636852
 20
4845824.502660636
 10
622480.5915532276
 20
4845753.195333088
  0
LWPOLYLINE
  5
2D7
330
17
100
AcDbEntity
  8
ROADS
100
AcDbPolyline
 90
4
 70
0
 10
621836.8114667663
 20
4845144.316999892
 10
621987.5212005276
 20
4845204.724723067
 10
622093.2111162373
 20
4845227.1225180505
 10
622151.3623553197
 20
4845199.979184808
  0
LWPOLYLINE
  5
2D8
330
17
100
AcDbEntity
  8
ROADS
100
AcDbPolyline
 90
3
 70
0
 10
622152.6131218817
 20
4845540.570982413
 10
622139.9061346387
 20
4845461.290126391
 10
622151.3623553197
 20
4845199.979184808
  0
LWPOLYLINE
  5
2D9
330
17
100
AcDbEntity
  8
ROADS
100
AcDbPolyline
 90
3
 70
0
 10
622346.8903054453
 20
4845708.1230128845
 10
622230.5082858298
 20
4845651.820816688
 10
622152.6131218817
 20
4845540.570982413
  0
LWPOLYLINE
  5
2DA
330
17
100
AcDbEntity
  8
ROADS
100
AcDbPolyline
 90
3
 70
0
 10
622152.6131218817
 20
4845540.570982413
 10
622090.6195979116
 20
4845582.021356583
 10
622039.8104262834
 20
4845725.478049679
  0
LWPOLYLINE
  5
2DB
330
17
100
AcDbEntity
  8
ROADS
100
AcDbPolyline
 90
3
 70
0
 10
621907.2453354548
 20
4845794.053245251
 10
621947.4037410726
 20
4845708.046873835
 10
622039.8104262834
 20
4845725.478049679
  0
LWPOLYLINE
  5
2DC
330
17
100
AcDbEntity
  8
ROADS
100
AcDbPolyline
 90
2
 70
0
 10
622039.8104262834
 20
4845725.478049679
 10
622328.3056702914
 20
4845820.319852627
  0
LWPOLYLINE
  5
2DD
330
17
100
AcDbEntity
  8
ROADS
100
AcDbPolyline
 90
2
 70
0
 10
621999.4721833251
 20
4845923.760217617
 10
622029.6001035051
 20
4845935.752053463
  0
LWPOLYLINE
  5
2DE
330
17
100
AcDbEntity
  8
ROADS
100
AcDbPolyline
 90
2
 70
0
 10
622029.6001035051
 20
4845935.752053463
 10
622296.0974081724
 20
4846023.129305197
  0
LWPOLYLINE
  5
2DF
330
17
100
AcDbEntity
  8
ROADS
100
AcDbPolyline
 90
2
 70
0
 10
622029.6001035051
 20
4845935.752053463
 10
622024.6281602983
 20
4845952.421308629
  0
LWPOLYLINE
  5
2E0
330
17
100
AcDbEntity
  8
ROADS
100
AcDbPolyline
 90
3
 70
0
 10
622296.0974081724
 20
4846023.129305197
 10
622277.551217289
 20
4846132.424669869
 10
622189.3461891918
 20
4846103.243418488
  0
LWPOLYLINE
  5
2E1
330
17
100
AcDbEntity
  8
ROADS
100
AcDbPolyline
 90
2
 70
0
 10
622826.7149584829
 20
4845851.74004684
 10
622696.0587636852
 20
4845824.502660636
  0
LWPOLYLINE
  5
2E2
330
17
100
AcDbEntity
  8
ROADS
100
AcDbPolyline
 90
2
 70
0
 10
622328.3056702914
 20
4845820.319852627
 10
622296.0974081724
 20
4846023.129305197
  0
LWPOLYLINE
  5
2E3
330
17
100
AcDbEntity
  8
ROADS
100
AcDbPolyline
 90
4
 70
0
 10
622761.6862045331
 20
4846039.077670448
 10
622697.6577713814
 20
4846107.123484522
 10
622554.9664993404
 20
4846172.960585456
 10
622504.6717229387
 20
4846300.034914113
  0
LWPOLYLINE
  5
2E4
330
17
100
AcDbEntity
  8
ROADS
100
AcDbPolyline
 90
3
 70
0
 10
622504.6717229387
 20
4846300.034914113
 10
622690.1569739869
 20
4846366.891391232
 10
622697.2434977618
 20
4846377.2021216415
  0
LWPOLYLINE
  5
2E5
330
17
100
AcDbEntity
  8
ROADS
100
AcDbPolyline
 90
2
 70
0
 10
622504.6717229387
 20
4846300.034914113
 10
622498.0125392367
 20
4846321.0285663875
  0
LWPOLYLINE
  5
2E6
330
17
100
AcDbEntity
  8
ROADS
100
AcDbPolyline
 90
2
 70
0
 10
623255.5392623389
 20
4845766.487286243
 10
623199.8718486573
 20
4845691.85944952
  0
LWPOLYLINE
  5
2E7
330
17
100
AcDbEntity
  8
ROADS
100
AcDbPolyline
 90
2
 70
0
 10
622843.5831759546
 20
4845630.995588355
 10
622826.7149584829
 20
4845851.74004684
  0
LWPOLYLINE
  5
2E8
330
17
100
AcDbEntity
  8
ROADS
100
AcDbPolyline
 90
3
 70
0
 10
623199.8718486573
 20
4845691.85944952
 10
622931.1293676539
 20
4845836.707136368
 10
622826.7149584829
 20
4845851.74004684
  0
LWPOLYLINE
  5
2E9
330
17
100
AcDbEntity
  8
ROADS
100
AcDbPolyline
 90
3
 70
0
 10
623255.5392623389
 20
4845766.487286243
 10
623102.239808624
 20
4845866.588263425
 10
623063.7994151061
 20
4845945.966127187
  0
LWPOLYLINE
  5
2EA
330
17
100
AcDbEntity
  8
ROADS
100
AcDbPolyline
 90
3
 70
0
 10
622826.7149584829
 20
4845851.74004684
 10
622812.4891461005
 20
4845945.014040233
 10
622761.6862045331
 20
4846039.077670448
  0
LWPOLYLINE
  5
2EB
330
17
100
AcDbEntity
  8
ROADS
100
AcDbPolyline
 90
2
 70
0
 10
623449.8221124334
 20
4846074.202355721
 10
623063.7994151061
 20
4845945.966127187
  0
LWPOLYLINE
  5
2EC
330
17
100
AcDbEntity
  8
ROADS
100
AcDbPolyline
 90
2
 70
0
 10
623063.7994151061
 20
4845945.966127187
 10
622973.9340671384
 20
4846180.69544528
  0
LWPOLYLINE
  5
2ED
330
17
100
AcDbEntity
  8
ROADS
100
AcDbPolyline
 90
2
 70
0
 10
622761.6862045331
 20
4846039.077670448
 10
622973.9340671384
 20
4846180.69544528
  0
LWPOLYLINE
  5
2EE
330
17
100
AcDbEntity
  8
ROADS
100
AcDbPolyline
 90
3
 70
0
 10
622973.9340671384
 20
4846180.69544528
 10
623157.2564627191
 20
4846244.019597049
 10
623210.4679691243
 20
4846281.0264358865
  0
LWPOLYLINE
  5
2EF
330
17
100
AcDbEntity
  8
ROADS
100
AcDbPolyline
 90
5
 70
0
 10
623022.8266819952
 20
4841646.638620169
 10
623026.2978514032
 20
4841657.07085377
 10
623049.707233894
 20
4841667.945024058
 10
623027.7739315084
 20
4841762.172802424
 10
623033.5942116238
 20
4841803.230177502
  0
LWPOLYLINE
  5
2F0
330
17
100
AcDbEntity
  8
ROADS
100
AcDbPolyline
 90
2
 70
0
 10
622870.063999524
 20
4841615.547516734
 10
622852.5967832241
 20
4841709.316048131
  0
LWPOLYLINE
  5
2F1
330
17
100
AcDbEntity
  8
ROADS
100
AcDbPolyline
 90
2
 70
0
 10
622852.5967832241
 20
4841709.316048131
 10
622944.2966456776
 20
4841728.859478118
  0
LWPOLYLINE
  5
2F2
330
17
100
AcDbEntity
  8
ROADS
100
AcDbPolyline
 90
2
 70
0
 10
622852.5967832241
 20
4841709.316048131
 10
622833.8609546443
 20
4841819.827435101
  0
LWPOLYLINE
  5
2F3
330
17
100
AcDbEntity
  8
ROADS
100
AcDbPolyline
 90
3
 70
0
 10
623033.5942116238
 20
4841803.230177502
 10
623061.8541454131
 20
4841788.778873949
 10
623095.7669051952
 20
4841802.258263676
  0
LWPOLYLINE
  5
2F4
330
17
100
AcDbEntity
  8
ROADS
100
AcDbPolyline
 90
2
 70
0
 10
623353.634348776
 20
4841865.863100696
 10
623198.2694005289
 20
4841817.047987767
  0
LWPOLYLINE
  5
2F5
330
17
100
AcDbEntity
  8
ROADS
100
AcDbPolyline
 90
2
 70
0
 10
623033.5942116238
 20
4841803.230177502
 10
622943.0676545013
 20
4841909.106674001
  0
LWPOLYLINE
  5
2F6
330
17
100
AcDbEntity
  8
ROADS
100
AcDbPolyline
 90
2
 70
0
 10
623374.2651221894
 20
4841771.3252915805
 10
623353.634348776
 20
4841865.863100696
  0
LWPOLYLINE
  5
2F7
330
17
100
AcDbEntity
  8
ROADS
100
AcDbPolyline
 90
2
 70
0
 10
623684.6385440276
 20
4841975.306967383
 10
623353.634348776
 20
4841865.863100696
  0
LWPOLYLINE
  5
2F8
330
17
100
AcDbEntity
  8
ROADS
100
AcDbPolyline
 90
2
 70
0
 10
623353.634348776
 20
4841865.863100696
 10
623312.4357540151
 20
4842067.549748147
  0
LWPOLYLINE
  5
2F9
330
17
100
AcDbEntity
  8
ROADS
100
AcDbPolyline
 90
2
 70
0
 10
623785.2645269124
 20
4842222.403424259
 10
623312.4357540151
 20
4842067.549748147
  0
LWPOLYLINE
  5
2FA
330
17
100
AcDbEntity
  8
ROADS
100
AcDbPolyline
 90
2
 70
0
 10
623312.4357540151
 20
4842067.549748147
 10
623249.9353581065
 20
4842362.17851699
  0
LWPOLYLINE
  5
2FB
330
17
100
AcDbEntity
  8
ROADS
100
AcDbPolyline
 90
2
 70
0
 10
624314.1121800332
 20
4842236.06880789
 10
624303.4418241745
 20
4842232.562880755
  0
LWPOLYLINE
  5
2FC
330
17
100
AcDbEntity
  8
ROADS
100
AcDbPolyline
 90
2
 70
0
 10
624314.9385903036
 20
4842230.667741673
 10
624314.1121800332
 20
4842236.06880789
  0
LWPOLYLINE
  5
2FD
330
17
100
AcDbEntity
  8
ROADS
100
AcDbPolyline
 90
2
 70
0
 10
624343.3580272283
 20
4842226.665790829
 10
624513.276784153
 20
4842271.163222403
  0
LWPOLYLINE
  5
2FE
330
17
100
AcDbEntity
  8
ROADS
100
AcDbPolyline
 90
2
 70
0
 10
624558.1523729532
 20
4842244.8539603995
 10
624513.276784153
 20
4842271.163222403
  0
LWPOLYLINE
  5
2FF
330
17
100
AcDbEntity
  8
ROADS
100
AcDbPolyline
 90
2
 70
0
 10
623813.8869891212
 20
4842135.893663491
 10
623785.2645269124
 20
4842222.403424259
  0
LWPOLYLINE
  5
300
330
17
100
AcDbEntity
  8
ROADS
100
AcDbPolyline
 90
2
 70
0
 10
623869.7922414339
 20
4842249.564014252
 10
623785.2645269124
 20
4842222.403424259
  0
LWPOLYLINE
  5
301
330
17
100
AcDbEntity
  8
ROADS
100
AcDbPolyline
 90
2
 70
0
 10
624314.1121800332
 20
4842236.06880789
 10
624303.9815932389
 20
4842289.391323687
  0
LWPOLYLINE
  5
302
330
17
100
AcDbEntity
  8
ROADS
100
AcDbPolyline
 90
2
 70
0
 10
624513.276784153
 20
4842271.163222403
 10
624552.8266328136
 20
4842283.33566724
  0
LWPOLYLINE
  5
303
330
17
100
AcDbEntity
  8
ROADS
100
AcDbPolyline
 90
5
 70
0
 10
624292.2852597651
 20
4842342.1974711055
 10
624253.5852514534
 20
4842328.54632987
 10
624244.6560375214
 20
4842301.402273606
 10
624264.2270395706
 20
4842281.513411719
 10
624303.9815932389
 20
4842289.391323687
  0
LWPOLYLINE
  5
304
330
17
100
AcDbEntity
  8
ROADS
100
AcDbPolyline
 90
2
 70
0
 10
624303.9815932389
 20
4842289.391323687
 10
624292.2852597651
 20
4842342.1974711055
  0
LWPOLYLINE
  5
305
330
17
100
AcDbEntity
  8
ROADS
100
AcDbPolyline
 90
2
 70
0
 10
624289.446274295
 20
4842359.593022386
 10
624093.7049822984
 20
4842296.808382919
  0
LWPOLYLINE
  5
306
330
17
100
AcDbEntity
  8
ROADS
100
AcDbPolyline
 90
2
 70
0
 10
624292.2852597651
 20
4842342.1974711055
 10
624289.446274295
 20
4842359.593022386
  0
LWPOLYLINE
  5
307
330
17
100
AcDbEntity
  8
ROADS
100
AcDbPolyline
 90
2
 70
0
 10
624399.1779450874
 20
4842376.899936273
 10
624292.2852597651
 20
4842342.1974711055
  0
LWPOLYLINE
  5
308
330
17
100
AcDbEntity
  8
ROADS
100
AcDbPolyline
 90
2
 70
0
 10
624399.1779450874
 20
4842376.899936273
 10
624392.6541348456
 20
4842421.95629408
  0
LWPOLYLINE
  5
309
330
17
100
AcDbEntity
  8
ROADS
100
AcDbPolyline
 90
2
 70
0
 10
624289.446274295
 20
4842359.593022386
 10
624273.3886171211
 20
4842450.638279405
  0
LWPOLYLINE
  5
30A
330
17
100
AcDbEntity
  8
ROADS
100
AcDbPolyline
 90
2
 70
0
 10
624273.3886171211
 20
4842450.638279405
 10
624047.6488681129
 20
4842372.1095079845
  0
ENDSEC
  0
SECTION
  2
OBJECTS
  0
DICTIONARY
  5
A
330
0
100
AcDbDictionary
281
1
  3
ACAD_COLOR
350
B
  3
ACAD_GROUP
350
C
  3
ACAD_LAYOUT
350
D
  3
ACAD_MATERIAL
350
E
  3
ACAD_MLEADERSTYLE
350
F
  3
ACAD_MLINESTYLE
350
10
  3
ACAD_PLOTSETTINGS
350
11
  3
ACAD_PLOTSTYLENAME
350
12
  3
ACAD_SCALELIST
350
14
  3
ACAD_TABLESTYLE
350
15
  3
ACAD_VISUALSTYLE
350
16
  3
EZDXF_META
350
2D
  0
DICTIONARY
  5
B
330
A
100
AcDbDictionary
281
1
  0
DICTIONARY
  5
C
330
A
100
AcDbDictionary
281
1
  0
DICTIONARY
  5
D
330
A
100
AcDbDictionary
281
1
  3
Model
350
1A
  3
Layout1
350
1E
  0
DICTIONARY
  5
E
330
A
100
AcDbDictionary
281
1
  3
ByBlock
350
1F
  3
ByLayer
350
20
  3
Global
350
21
  0
DICTIONARY
  5
F
330
A
100
AcDbDictionary
281
1
  3
Standard
350
2C
  0
DICTIONARY
  5
10
330
A
100
AcDbDictionary
281
1
  3
Standard
350
22
  0
DICTIONARY
  5
11
330
A
100
AcDbDictionary
281
1
  0
ACDBDICTIONARYWDFLT
  5
12
330
A
100
AcDbDictionary
281
1
  3
Normal
350
13
100
AcDbDictionaryWithDefault
340
13
  0
ACDBPLACEHOLDER
  5
13
330
12
  0
DICTIONARY
  5
14
330
A
100
AcDbDictionary
281
1
  0
DICTIONARY
  5
15
330
A
100
AcDbDictionary
281
1
  0
DICTIONARY
  5
16
330
A
100
AcDbDictionary
281
1
  0
LAYOUT
  5
1A
330
D
100
AcDbPlotSettings
  1

  4
A3
  6

 40
7.5
 41
20.0
 42
7.5
 43
20.0
 44
420.0
 45
297.0
 46
0.0
 47
0.0
 48
0.0
 49
0.0
140
0.0
141
0.0
142
1.0
143
1.0
 70
1024
 72
1
 73
0
 74
5
  7

 75
16
 76
0
 77
2
 78
300
147
1.0
148
0.0
149
0.0
100
AcDbLayout
  1
Model
 70
1
 71
0
 10
0.0
 20
0.0
 11
420.0
 21
297.0
 12
0.0
 22
0.0
 32
0.0
 14
1e+20
 24
1e+20
 34
1e+20
 15
-1e+20
 25
-1e+20
 35
-1e+20
146
0.0
 13
0.0
 23
0.0
 33
0.0
 16
1.0
 26
0.0
 36
0.0
 17
0.0
 27
1.0
 37
0.0
 76
1
330
17
  0
LAYOUT
  5
1E
330
D
100
AcDbPlotSettings
  1

  4
A3
  6

 40
7.5
 41
20.0
 42
7.5
 43
20.0
 44
420.0
 45
297.0
 46
0.0
 47
0.0
 48
0.0
 49
0.0
140
0.0
141
0.0
142
1.0
143
1.0
 70
0
 72
1
 73
0
 74
5
  7

 75
16
 76
0
 77
2
 78
300
147
1.0
148
0.0
149
0.0
100
AcDbLayout
  1
Layout1
 70
1
 71
1
 10
0.0
 20
0.0
 11
420.0
 21
297.0
 12
0.0
 22
0.0
 32
0.0
 14
1e+20
 24
1e+20
 34
1e+20
 15
-1e+20
 25
-1e+20
 35
-1e+20
146
0.0
 13
0.0
 23
0.0
 33
0.0
 16
1.0
 26
0.0
 36
0.0
 17
0.0
 27
1.0
 37
0.0
 76
1
330
1B
  0
MATERIAL
  5
1F
102
{ACAD_REACTORS
330
E
102
}
330
E
100
AcDbMaterial
  1
ByBlock
  2

 70
0
 40
1.0
 71
1
 41
1.0
 91
-1023410177
 42
1.0
 72
1
  3

 73
1
 74
1
 75
1
 44
0.5
 73
0
 45
1.0
 46
1.0
 77
1
  4

 78
1
 79
1
170
1
 48
1.0
171
1
  6

172
1
173
1
174
1
140
1.0
141
1.0
175
1
  7

176
1
177
1
178
1
143
1.0
179
1
  8

270
1
271
1
272
1
145
1.0
146
1.0
273
1
  9

274
1
275
1
276
1
 42
1.0
 72
1
  3

 73
1
 74
1
 75
1
 94
63
  0
MATERIAL
  5
20
102
{ACAD_REACTORS
330
E
102
}
330
E
100
AcDbMaterial
  1
ByLayer
  2

 70
0
 40
1.0
 71
1
 41
1.0
 91
-1023410177
 42
1.0
 72
1
  3

 73
1
 74
1
 75
1
 44
0.5
 73
0
 45
1.0
 46
1.0
 77
1
  4

 78
1
 79
1
170
1
 48
1.0
171
1
  6

172
1
173
1
174
1
140
1.0
141
1.0
175
1
  7

176
1
177
1
178
1
143
1.0
179
1
  8

270
1
271
1
272
1
145
1.0
146
1.0
273
1
  9

274
1
275
1
276
1
 42
1.0
 72
1
  3

 73
1
 74
1
 75
1
 94
63
  0
MATERIAL
  5
21
102
{ACAD_REACTORS
330
E
102
}
330
E
100
AcDbMaterial
  1
Global
  2

 70
0
 40
1.0
 71
1
 41
1.0
 91
-1023410177
 42
1.0
 72
1
  3

 73
1
 74
1
 75
1
 44
0.5
 73
0
 45
1.0
 46
1.0
 77
1
  4

 78
1
 79
1
170
1
 48
1.0
171
1
  6

172
1
173
1
174
1
140
1.0
141
1.0
175
1
  7

176
1
177
1
178
1
143
1.0
179
1
  8

270
1
271
1
272
1
145
1.0
146
1.0
273
1
  9

274
1
275
1
276
1
 42
1.0
 72
1
  3

 73
1
 74
1
 75
1
 94
63
  0
MLINESTYLE
  5
22
102
{ACAD_REACTORS
330
10
102
}
330
10
100
AcDbMlineStyle
  2
Standard
 70
0
  3

 62
256
 51
90.0
 52
90.0
 71
2
 49
0.5
 62
256
  6
BYLAYER
 49
-0.5
 62
256
  6
BYLAYER
  0
MLEADERSTYLE
  5
2C
102
{ACAD_REACTORS
330
F
102
}
330
F
100
AcDbMLeaderStyle
179
2
170
2
171
1
172
0
 90
2
 40
0.0
 41
0.0
173
1
 91
-1056964608
 92
-2
290
1
 42
2.0
291
1
 43
8.0
  3
Standard
 44
4.0
300

342
29
174
1
175
1
176
0
178
1
 93
-1056964608
 45
4.0
292
0
297
0
 46
4.0
 94
-1056964608
 47
1.0
 49
1.0
140
1.0
294
1
141
0.0
177
0
142
1.0
295
0
296
0
143
3.75
271
0
272
9
273
9
  0
DICTIONARY
  5
2D
330
A
100
AcDbDictionary
280
1
281
1
  3
CREATED_BY_EZDXF
350
2E
  3
WRITTEN_BY_EZDXF
350
30D
  0
DICTIONARYVAR
  5
2E
330
2D
100
DictionaryVariables
280
0
  1
1.4.4 @ 2026-07-07T18:25:53.366041+00:00
  0
DICTIONARYVAR
  5
30D
330
2D
100
DictionaryVariables
280
0
  1
1.4.4 @ 2026-07-07T18:25:53.384794+00:00
  0
ENDSEC
  0
EOF
