  0
SECTION
  2
HEADER
  9
$ACADVER
  1
AC1015
  9
$ACADMAINTVER
 70
6
  9
$DWGCODEPAGE
  3
ANSI_1252
  9
$INSBASE
 10
0.0
 20
0.0
 30
0.0
  9
$EXTMIN
 10
1e+20
 20
1e+20
 30
1e+20
  9
$EXTMAX
 10
-1e+20
 20
-1e+20
 30
-1e+20
  9
$LIMMIN
 10
0.0
 20
0.0
  9
$LIMMAX
 10
420.0
 20
297.0
  9
$ORTHOMODE
 70
0
  9
$REGENMODE
 70
1
  9
$FILLMODE
 70
1
  9
$QTEXTMODE
 70
0
  9
$MIRRTEXT
 70
1
  9
$LTSCALE
 40
1.0
  9
$ATTMODE
 70
1
  9
$TEXTSIZE
 40
2.5
  9
$TRACEWID
 40
1.0
  9
$TEXTSTYLE
  7
Standard
  9
$CLAYER
  8
0
  9
$CELTYPE
  6
ByLayer
  9
$CECOLOR
 62
256
  9
$CELTSCALE
 40
1.0
  9
$DISPSILH
 70
0
  9
$DIMSCALE
 40
1.0
  9
$DIMASZ
 40
2.5
  9
$DIMEXO
 40
0.625
  9
$DIMDLI
 40
3.75
  9
$DIMRND
 40
0.0
  9
$DIMDLE
 40
0.0
  9
$DIMEXE
 40
1.25
  9
$DIMTP
 40
0.0
  9
$DIMTM
 40
0.0
  9
$DIMTXT
 40
2.5
  9
$DIMCEN
 40
2.5
  9
$DIMTSZ
 40
0.0
  9
$DIMTOL
 70
0
  9
$DIMLIM
 70
0
  9
$DIMTIH
 70
0
  9
$DIMTOH
 70
0
  9
$DIMSE1
 70
0
  9
$DIMSE2
 70
0
  9
$DIMTAD
 70
1
  9
$DIMZIN
 70
8
  9
$DIMBLK
  1

  9
$DIMASO
 70
1
  9
$DIMSHO
 70
1
  9
$DIMPOST
  1

  9
$DIMAPOST
  1

  9
$DIMALT
 70
0
  9
$DIMALTD
 70
3
  9
$DIMALTF
 40
0.03937007874
  9
$DIMLFAC
 40
1.0
  9
$DIMTOFL
 70
1
  9
$DIMTVP
 40
0.0
  9
$DIMTIX
 70
0
  9
$DIMSOXD
 70
0
  9
$DIMSAH
 70
0
  9
$DIMBLK1
  1

  9
$DIMBLK2
  1

  9
$DIMSTYLE
  2
ISO-25
  9
$DIMCLRD
 70
0
  9
$DIMCLRE
 70
0
  9
$DIMCLRT
 70
0
  9
$DIMTFAC
 40
1.0
  9
$DIMGAP
 40
0.625
  9
$DIMJUST
 70
0
  9
$DIMSD1
 70
0
  9
$DIMSD2
 70
0
  9
$DIMTOLJ
 70
0
  9
$DIMTZIN
 70
8
  9
$DIMALTZ
 70
0
  9
$DIMALTTZ
 70
0
  9
$DIMUPT
 70
0
  9
$DIMDEC
 70
2
  9
$DIMTDEC
 70
2
  9
$DIMALTU
 70
2
  9
$DIMALTTD
 70
3
  9
$DIMTXSTY
  7
Standard
  9
$DIMAUNIT
 70
0
  9
$DIMADEC
 70
0
  9
$DIMALTRND
 40
0.0
  9
$DIMAZIN
 70
0
  9
$DIMDSEP
 70
44
  9
$DIMATFIT
 70
3
  9
$DIMFRAC
 70
0
  9
$DIMLDRBLK
  1

  9
$DIMLUNIT
 70
2
  9
$DIMLWD
 70
-2
  9
$DIMLWE
 70
-2
  9
$DIMTMOVE
 70
0
  9
$LUNITS
 70
2
  9
$LUPREC
 70
4
  9
$SKETCHINC
 40
1.0
  9
$FILLETRAD
 40
10.0
  9
$AUNITS
 70
0
  9
$AUPREC
 70
2
  9
$MENU
  1
.
  9
$ELEVATION
 40
0.0
  9
$PELEVATION
 40
0.0
  9
$THICKNESS
 40
0.0
  9
$LIMCHECK
 70
0
  9
$CHAMFERA
 40
0.0
  9
$CHAMFERB
 40
0.0
  9
$CHAMFERC
 40
0.0
  9
$CHAMFERD
 40
0.0
  9
$SKPOLY
 70
0
  9
$TDCREATE
 40
2461229.096712963
  9
$TDUCREATE
 40
2458532.153996898
  9
$TDUPDATE
 40
2461229.096712963
  9
$TDUUPDATE
 40
2458532.1544311
  9
$TDINDWG
 40
0.0
  9
$TDUSRTIMER
 40
0.0
  9
$USRTIMER
 70
1
  9
$ANGBASE
 50
0.0
  9
$ANGDIR
 70
0
  9
$PDMODE
 70
0
  9
$PDSIZE
 40
0.0
  9
$PLINEWID
 40
0.0
  9
$SPLFRAME
 70
0
  9
$SPLINETYPE
 70
6
  9
$SPLINESEGS
 70
8
  9
$HANDSEED
  5
287
  9
$SURFTAB1
 70
6
  9
$SURFTAB2
 70
6
  9
$SURFTYPE
 70
6
  9
$SURFU
 70
6
  9
$SURFV
 70
6
  9
$UCSBASE
  2

  9
$UCSNAME
  2

  9
$UCSORG
 10
0.0
 20
0.0
 30
0.0
  9
$UCSXDIR
 10
1.0
 20
0.0
 30
0.0
  9
$UCSYDIR
 10
0.0
 20
1.0
 30
0.0
  9
$UCSORTHOREF
  2

  9
$UCSORTHOVIEW
 70
0
  9
$UCSORGTOP
 10
0.0
 20
0.0
 30
0.0
  9
$UCSORGBOTTOM
 10
0.0
 20
0.0
 30
0.0
  9
$UCSORGLEFT
 10
0.0
 20
0.0
 30
0.0
  9
$UCSORGRIGHT
 10
0.0
 20
0.0
 30
0.0
  9
$UCSORGFRONT
 10
0.0
 20
0.0
 30
0.0
  9
$UCSORGBACK
 10
0.0
 20
0.0
 30
0.0
  9
$PUCSBASE
  2

  9
$PUCSNAME
  2

  9
$PUCSORG
 10
0.0
 20
0.0
 30
0.0
  9
$PUCSXDIR
 10
1.0
 20
0.0
 30
0.0
  9
$PUCSYDIR
 10
0.0
 20
1.0
 30
0.0
  9
$PUCSORTHOREF
  2

  9
$PUCSORTHOVIEW
 70
0
  9
$PUCSORGTOP
 10
0.0
 20
0.0
 30
0.0
  9
$PUCSORGBOTTOM
 10
0.0
 20
0.0
 30
0.0
  9
$PUCSORGLEFT
 10
0.0
 20
0.0
 30
0.0
  9
$PUCSORGRIGHT
 10
0.0
 20
0.0
 30
0.0
  9
$PUCSORGFRONT
 10
0.0
 20
0.0
 30
0.0
  9
$PUCSORGBACK
 10
0.0
 20
0.0
 30
0.0
  9
$USERI1
 70
0
  9
$USERI2
 70
0
  9
$USERI3
 70
0
  9
$USERI4
 70
0
  9
$USERI5
 70
0
  9
$USERR1
 40
0.0
  9
$USERR2
 40
0.0
  9
$USERR3
 40
0.0
  9
$USERR4
 40
0.0
  9
$USERR5
 40
0.0
  9
$WORLDVIEW
 70
1
  9
$SHADEDGE
 70
3
  9
$SHADEDIF
 70
70
  9
$TILEMODE
 70
1
  9
$MAXACTVP
 70
64
  9
$PINSBASE
 10
0.0
 20
0.0
 30
0.0
  9
$PLIMCHECK
 70
0
  9
$PEXTMIN
 10
1e+20
 20
1e+20
 30
1e+20
  9
$PEXTMAX
 10
-1e+20
 20
-1e+20
 30
-1e+20
  9
$PLIMMIN
 10
0.0
 20
0.0
  9
$PLIMMAX
 10
420.0
 20
297.0
  9
$UNITMODE
 70
0
  9
$VISRETAIN
 70
1
  9
$PLINEGEN
 70
0
  9
$PSLTSCALE
 70
1
  9
$TREEDEPTH
 70
3020
  9
$CMLSTYLE
  2
Standard
  9
$CMLJUST
 70
0
  9
$CMLSCALE
 40
20.0
  9
$PROXYGRAPHICS
 70
1
  9
$MEASUREMENT
 70
1
  9
$CELWEIGHT
370
-1
  9
$ENDCAPS
280
0
  9
$JOINSTYLE
280
0
  9
$LWDISPLAY
290
0
  9
$INSUNITS
 70
6
  9
$HYPERLINKBASE
  1

  9
$STYLESHEET
  1

  9
$XEDIT
290
1
  9
$CEPSNTYPE
380
0
  9
$PSTYLEMODE
290
1
  9
$FINGERPRINTGUID
  2
{3BAE6C77-EEF5-4C24-8845-8EB87EBDD37D}
  9
$VERSIONGUID
  2
{A632CC7E-809D-4FA9-85DC-D16FA81D3020}
  9
$EXTNAMES
290
1
  9
$PSVPSCALE
 40
0.0
  9
$OLESTARTUP
290
0
  0
ENDSEC
  0
SECTION
  2
CLASSES
  0
CLASS
  1
ACDBDICTIONARYWDFLT
  2
AcDbDictionaryWithDefault
  3
ObjectDBX Classes
 90
0
280
0
281
0
  0
CLASS
  1
SUN
  2
AcDbSun
  3
SCENEOE
 90
1153
280
0
281
0
  0
CLASS
  1
VISUALSTYLE
  2
AcDbVisualStyle
  3
ObjectDBX Classes
 90
4095
280
0
281
0
  0
CLASS
  1
MATERIAL
  2
AcDbMaterial
  3
ObjectDBX Classes
 90
1153
280
0
281
0
  0
CLASS
  1
SCALE
  2
AcDbScale
  3
ObjectDBX Classes
 90
1153
280
0
281
0
  0
CLASS
  1
TABLESTYLE
  2
AcDbTableStyle
  3
ObjectDBX Classes
 90
4095
280
0
281
0
  0
CLASS
  1
MLEADERSTYLE
  2
AcDbMLeaderStyle
  3
ACDB_MLEADERSTYLE_CLASS
 90
4095
280
0
281
0
  0
CLASS
  1
DICTIONARYVAR
  2
AcDbDictionaryVar
  3
ObjectDBX Classes
 90
0
280
0
281
0
  0
CLASS
  1
CELLSTYLEMAP
  2
AcDbCellStyleMap
  3
ObjectDBX Classes
 90
1152
280
0
281
0
  0
CLASS
  1
MENTALRAYRENDERSETTINGS
  2
AcDbMentalRayRenderSettings
  3
SCENEOE
 90
1024
280
0
281
0
  0
CLASS
  1
ACDBDETAILVIEWSTYLE
  2
AcDbDetailViewStyle
  3
ObjectDBX Classes
 90
1025
280
0
281
0
  0
CLASS
  1
ACDBSECTIONVIEWSTYLE
  2
AcDbSectionViewStyle
  3
ObjectDBX Classes
 90
1025
280
0
281
0
  0
CLASS
  1
RASTERVARIABLES
  2
AcDbRasterVariables
  3
ISM
 90
0
280
0
281
0
  0
CLASS
  1
ACDBPLACEHOLDER
  2
AcDbPlaceHolder
  3
ObjectDBX Classes
 90
0
280
0
281
0
  0
CLASS
  1
LAYOUT
  2
AcDbLayout
  3
ObjectDBX Classes
 90
0
280
0
281
0
  0
ENDSEC
  0
SECTION
  2
TABLES
  0
TABLE
  2
VPORT
  5
8
330
0
100
AcDbSymbolTable
 70
1
  0
VPORT
  5
23
330
8
100
AcDbSymbolTableRecord
100
AcDbViewportTableRecord
  2
*Active
 70
0
 10
0.0
 20
0.0
 11
1.0
 21
1.0
 12
0.0
 22
0.0
 13
0.0
 23
0.0
 14
0.5
 24
0.5
 15
0.5
 25
0.5
 16
0.0
 26
0.0
 36
1.0
 17
0.0
 27
0.0
 37
0.0
 40
1000.0
 41
1.34
 42
50.0
 43
0.0
 44
0.0
 50
0.0
 51
0.0
 71
0
 72
1000
 73
1
 74
3
 75
0
 76
0
 77
0
 78
0
281
0
 65
0
146
0.0
  0
ENDTAB
  0
TABLE
  2
LTYPE
  5
2
330
0
100
AcDbSymbolTable
 70
3
  0
LTYPE
  5
24
330
2
100
AcDbSymbolTableRecord
100
AcDbLinetypeTableRecord
  2
ByBlock
 70
0
  3

 72
65
 73
0
 40
0.0
  0
LTYPE
  5
25
330
2
100
AcDbSymbolTableRecord
100
AcDbLinetypeTableRecord
  2
ByLayer
 70
0
  3

 72
65
 73
0
 40
0.0
  0
LTYPE
  5
26
330
2
100
AcDbSymbolTableRecord
100
AcDbLinetypeTableRecord
  2
Continuous
 70
0
  3

 72
65
 73
0
 40
0.0
  0
ENDTAB
  0
TABLE
  2
LAYER
  5
1
330
0
100
AcDbSymbolTable
 70
2
  0
LAYER
  5
27
330
1
100
AcDbSymbolTableRecord
100
AcDbLayerTableRecord
  2
0
 70
0
 62
7
  6
Continuous
370
-3
390
13
  0
LAYER
  5
28
330
1
100
AcDbSymbolTableRecord
100
AcDbLayerTableRecord
  2
Defpoints
 70
0
 62
7
  6
Continuous
290
0
370
-3
390
13
  0
ENDTAB
  0
TABLE
  2
STYLE
  5
5
330
0
100
AcDbSymbolTable
 70
1
  0
STYLE
  5
29
330
5
100
AcDbSymbolTableRecord
100
AcDbTextStyleTableRecord
  2
Standard
 70
0
 40
0.0
 41
1.0
 50
0.0
 71
0
 42
2.5
  3
txt
  4

  0
ENDTAB
  0
TABLE
  2
VIEW
  5
7
330
0
100
AcDbSymbolTable
 70
0
  0
ENDTAB
  0
TABLE
  2
UCS
  5
6
330
0
100
AcDbSymbolTable
 70
0
  0
ENDTAB
  0
TABLE
  2
APPID
  5
3
330
0
100
AcDbSymbolTable
 70
3
  0
APPID
  5
2A
330
3
100
AcDbSymbolTableRecord
100
AcDbRegAppTableRecord
  2
ACAD
 70
0
  0
APPID
  5
284
330
3
100
AcDbSymbolTableRecord
100
AcDbRegAppTableRecord
  2
HATCHBACKGROUNDCOLOR
 70
0
  0
APPID
  5
285
330
3
100
AcDbSymbolTableRecord
100
AcDbRegAppTableRecord
  2
EZDXF
 70
0
  0
ENDTAB
  0
TABLE
  2
DIMSTYLE
  5
4
330
0
100
AcDbSymbolTable
 70
1
100
AcDbDimStyleTable
  0
DIMSTYLE
105
2B
330
4
100
AcDbSymbolTableRecord
100
AcDbDimStyleTableRecord
  2
Standard
 70
0
  3

  4

 40
1.0
 41
2.5
 42
0.625
 43
3.75
 44
1.25
 45
0.0
 46
0.0
 47
0.0
 48
0.0
140
2.5
141
2.5
142
0.0
143
0.03937007874
144
1.0
145
0.0
146
1.0
147
0.625
148
0.0
 71
0
 72
0
 73
0
 74
0
 75
0
 76
0
 77
1
 78
8
 79
3
170
0
171
3
172
1
173
0
174
0
175
0
176
0
177
0
178
0
179
2
271
2
272
2
273
2
274
3
275
0
276
0
277
2
278
44
279
0
280
0
281
0
282
0
283
0
284
8
285
0
286
0
288
0
289
3
371
-2
372
-2
  0
ENDTAB
  0
TABLE
  2
BLOCK_RECORD
  5
9
330
0
100
AcDbSymbolTable
 70
2
  0
BLOCK_RECORD
  5
17
330
9
100
AcDbSymbolTableRecord
100
AcDbBlockTableRecord
  2
*Model_Space
340
1A
  0
BLOCK_RECORD
  5
1B
330
9
100
AcDbSymbolTableRecord
100
AcDbBlockTableRecord
  2
*Paper_Space
340
1E
  0
ENDTAB
  0
ENDSEC
  0
SECTION
  2
BLOCKS
  0
BLOCK
  5
18
330
17
100
AcDbEntity
  8
0
100
AcDbBlockBegin
  2
*Model_Space
 70
0
 10
0.0
 20
0.0
 30
0.0
  3
*Model_Space
  1

  0
ENDBLK
  5
19
330
17
100
AcDbEntity
  8
0
100
AcDbBlockEnd
  0
BLOCK
  5
1C
330
1B
100
AcDbEntity
  8
0
100
AcDbBlockBegin
  2
*Paper_Space
 70
0
 10
0.0
 20
0.0
 30
0.0
  3
*Paper_Space
  1

  0
ENDBLK
  5
1D
330
1B
100
AcDbEntity
  8
0
100
AcDbBlockEnd
  0
ENDSEC
  0
SECTION
  2
ENTITIES
  0
LWPOLYLINE
  5
2F
330
17
100
AcDbEntity
  8
ROADS
100
AcDbPolyline
 90
2
 70
0
 10
631867.9032504881
 20
4836327.61690779
 10
631865.6979086192
 20
4836334.546675987
  0
LWPOLYLINE
  5
30
330
17
100
AcDbEntity
  8
ROADS
100
AcDbPolyline
 90
2
 70
0
 10
631860.2073733904
 20
4836332.851455006
 10
631865.6979086192
 20
4836334.546675987
  0
LWPOLYLINE
  5
31
330
17
100
AcDbEntity
  8
ROADS
100
AcDbPolyline
 90
2
 70
0
 10
631934.4037750924
 20
4836315.484443443
 10
631922.6160973929
 20
4836352.47413194
  0
LWPOLYLINE
  5
32
330
17
100
AcDbEntity
  8
ROADS
100
AcDbPolyline
 90
2
 70
0
 10
631865.6979086192
 20
4836334.546675987
 10
631922.6160973929
 20
4836352.47413194
  0
LWPOLYLINE
  5
33
330
17
100
AcDbEntity
  8
ROADS
100
AcDbPolyline
 90
2
 70
0
 10
631816.7326677985
 20
4836362.421885535
 10
631813.511809258
 20
4836372.386003711
  0
LWPOLYLINE
  5
34
330
17
100
AcDbEntity
  8
ROADS
100
AcDbPolyline
 90
2
 70
0
 10
632047.7047685278
 20
4836348.539467977
 10
632080.9362458241
 20
4836358.775084282
  0
LWPOLYLINE
  5
35
330
17
100
AcDbEntity
  8
ROADS
100
AcDbPolyline
 90
2
 70
0
 10
631964.0928906307
 20
4836364.274941963
 10
632047.7047685278
 20
4836348.539467977
  0
LWPOLYLINE
  5
36
330
17
100
AcDbEntity
  8
ROADS
100
AcDbPolyline
 90
2
 70
0
 10
631922.6160973929
 20
4836352.47413194
 10
631964.0928906307
 20
4836364.274941963
  0
LWPOLYLINE
  5
37
330
17
100
AcDbEntity
  8
ROADS
100
AcDbPolyline
 90
2
 70
0
 10
632047.7047685278
 20
4836348.539467977
 10
632039.0577754691
 20
4836375.659198962
  0
LWPOLYLINE
  5
38
330
17
100
AcDbEntity
  8
ROADS
100
AcDbPolyline
 90
2
 70
0
 10
631806.384084868
 20
4836370.570148488
 10
631813.511809258
 20
4836372.386003711
  0
LWPOLYLINE
  5
39
330
17
100
AcDbEntity
  8
ROADS
100
AcDbPolyline
 90
2
 70
0
 10
631760.1914903617
 20
4836409.114625046
 10
631823.3701344521
 20
4836430.206623601
  0
LWPOLYLINE
  5
3A
330
17
100
AcDbEntity
  8
ROADS
100
AcDbPolyline
 90
2
 70
0
 10
631716.3798137227
 20
4836452.395508315
 10
631706.6498383121
 20
4836482.886231868
  0
LWPOLYLINE
  5
3B
330
17
100
AcDbEntity
  8
ROADS
100
AcDbPolyline
 90
4
 70
0
 10
631531.8220874049
 20
4836727.116253733
 10
631559.0367250291
 20
4836712.354484154
 10
631734.6106627693
 20
4836703.354419498
 10
632074.8344588114
 20
4836552.1495493855
  0
LWPOLYLINE
  5
3C
330
17
100
AcDbEntity
  8
ROADS
100
AcDbPolyline
 90
4
 70
0
 10
631493.563456848
 20
4836884.1514812745
 10
631581.2960562085
 20
4836828.126647819
 10
631711.1021242497
 20
4836843.760940941
 10
631756.5268364209
 20
4836873.056511857
  0
LWPOLYLINE
  5
3D
330
17
100
AcDbEntity
  8
ROADS
100
AcDbPolyline
 90
2
 70
0
 10
631493.563456848
 20
4836884.1514812745
 10
631551.5732976022
 20
4836939.593562261
  0
LWPOLYLINE
  5
3E
330
17
100
AcDbEntity
  8
ROADS
100
AcDbPolyline
 90
2
 70
0
 10
631551.5732976022
 20
4836939.593562261
 10
631578.953294119
 20
4836933.126163142
  0
LWPOLYLINE
  5
3F
330
17
100
AcDbEntity
  8
ROADS
100
AcDbPolyline
 90
2
 70
0
 10
631510.5251274864
 20
4837008.469814089
 10
631551.5732976022
 20
4836939.593562261
  0
LWPOLYLINE
  5
40
330
17
100
AcDbEntity
  8
ROADS
100
AcDbPolyline
 90
2
 70
0
 10
631551.5732976022
 20
4836939.593562261
 10
631624.2529165156
 20
4837013.248292963
  0
LWPOLYLINE
  5
41
330
17
100
AcDbEntity
  8
ROADS
100
AcDbPolyline
 90
2
 70
0
 10
631510.5251274864
 20
4837008.469814089
 10
631578.7442258345
 20
4837037.707228281
  0
LWPOLYLINE
  5
42
330
17
100
AcDbEntity
  8
ROADS
100
AcDbPolyline
 90
2
 70
0
 10
631624.2529165156
 20
4837013.248292963
 10
631578.7442258345
 20
4837037.707228281
  0
LWPOLYLINE
  5
43
330
17
100
AcDbEntity
  8
ROADS
100
AcDbPolyline
 90
2
 70
0
 10
631478.1640001262
 20
4836868.752669133
 10
631493.563456848
 20
4836884.1514812745
  0
LWPOLYLINE
  5
44
330
17
100
AcDbEntity
  8
ROADS
100
AcDbPolyline
 90
3
 70
0
 10
631857.4294999386
 20
4836529.412956268
 10
631899.6282395741
 20
4836542.1039070785
 10
631913.7895595294
 20
4836500.139766602
  0
LWPOLYLINE
  5
45
330
17
100
AcDbEntity
  8
ROADS
100
AcDbPolyline
 90
2
 70
0
 10
631857.4294999386
 20
4836529.412956268
 10
631830.9296166905
 20
4836517.597922234
  0
LWPOLYLINE
  5
46
330
17
100
AcDbEntity
  8
ROADS
100
AcDbPolyline
 90
4
 70
0
 10
632134.9525804125
 20
4836524.135389117
 10
631732.29153658
 20
4836695.0558604095
 10
631552.2369102411
 20
4836707.449166724
 10
631537.95255826
 20
4836716.032172311
  0
LWPOLYLINE
  5
47
330
17
100
AcDbEntity
  8
ROADS
100
AcDbPolyline
 90
3
 70
0
 10
632200.2690425173
 20
4836549.994348144
 10
631965.9205787028
 20
4836801.500282273
 10
631894.2422271513
 20
4836930.796042779
  0
LWPOLYLINE
  5
48
330
17
100
AcDbEntity
  8
ROADS
100
AcDbPolyline
 90
3
 70
0
 10
632114.1488406511
 20
4836635.310256556
 10
631954.9737674082
 20
4836801.001308378
 10
631881.3695084306
 20
4836926.080920413
  0
LWPOLYLINE
  5
49
330
17
100
AcDbEntity
  8
ROADS
100
AcDbPolyline
 90
2
 70
0
 10
631894.2422271513
 20
4836930.796042779
 10
631881.3695084306
 20
4836926.080920413
  0
LWPOLYLINE
  5
4A
330
17
100
AcDbEntity
  8
ROADS
100
AcDbPolyline
 90
2
 70
0
 10
631881.3695084306
 20
4836926.080920413
 10
631819.7900628659
 20
4837083.5713698985
  0
LWPOLYLINE
  5
4B
330
17
100
AcDbEntity
  8
ROADS
100
AcDbPolyline
 90
2
 70
0
 10
631894.2422271513
 20
4836930.796042779
 10
631842.5885537618
 20
4837090.110118154
  0
LWPOLYLINE
  5
4C
330
17
100
AcDbEntity
  8
ROADS
100
AcDbPolyline
 90
2
 70
0
 10
631819.7900628659
 20
4837083.5713698985
 10
631842.5885537618
 20
4837090.110118154
  0
LWPOLYLINE
  5
4D
330
17
100
AcDbEntity
  8
ROADS
100
AcDbPolyline
 90
2
 70
0
 10
631842.5885537618
 20
4837090.110118154
 10
631858.8713472176
 20
4837094.779905495
  0
LWPOLYLINE
  5
4E
330
17
100
AcDbEntity
  8
ROADS
100
AcDbPolyline
 90
3
 70
0
 10
631453.161401141
 20
4837008.8904014025
 10
631475.4769296509
 20
4837016.336318461
 10
631510.5251274864
 20
4837008.469814089
  0
LWPOLYLINE
  5
4F
330
17
100
AcDbEntity
  8
ROADS
100
AcDbPolyline
 90
2
 70
0
 10
631450.1557509688
 20
4837070.164179865
 10
631496.195932227
 20
4837085.2181156995
  0
LWPOLYLINE
  5
50
330
17
100
AcDbEntity
  8
ROADS
100
AcDbPolyline
 90
3
 70
0
 10
631445.8082311414
 20
4837206.4653278245
 10
631457.9884852986
 20
4837205.034176931
 10
631490.4594084924
 20
4837108.616134439
  0
LWPOLYLINE
  5
51
330
17
100
AcDbEntity
  8
ROADS
100
AcDbPolyline
 90
2
 70
0
 10
632434.4259314256
 20
4836216.290523087
 10
632429.2866707945
 20
4836237.779975929
  0
LWPOLYLINE
  5
52
330
17
100
AcDbEntity
  8
ROADS
100
AcDbPolyline
 90
2
 70
0
 10
632405.6566437008
 20
4836267.547552588
 10
632418.6588231603
 20
4836213.300520725
  0
LWPOLYLINE
  5
53
330
17
100
AcDbEntity
  8
ROADS
100
AcDbPolyline
 90
2
 70
0
 10
632538.0507728681
 20
4836279.668680722
 10
632548.1037696052
 20
4836244.632002409
  0
LWPOLYLINE
  5
54
330
17
100
AcDbEntity
  8
ROADS
100
AcDbPolyline
 90
2
 70
0
 10
632611.8325416591
 20
4836269.255568592
 10
632538.0507728681
 20
4836279.668680722
  0
LWPOLYLINE
  5
55
330
17
100
AcDbEntity
  8
ROADS
100
AcDbPolyline
 90
2
 70
0
 10
632276.686628864
 20
4836204.298424216
 10
632284.3784257128
 20
4836237.174001505
  0
LWPOLYLINE
  5
56
330
17
100
AcDbEntity
  8
ROADS
100
AcDbPolyline
 90
2
 70
0
 10
632402.3143294972
 20
4836210.543000929
 10
632390.0373525439
 20
4836263.763363006
  0
LWPOLYLINE
  5
57
330
17
100
AcDbEntity
  8
ROADS
100
AcDbPolyline
 90
2
 70
0
 10
632186.8930125671
 20
4836211.219587575
 10
632205.8361065967
 20
4836229.5563779315
  0
LWPOLYLINE
  5
58
330
17
100
AcDbEntity
  8
ROADS
100
AcDbPolyline
 90
2
 70
0
 10
632214.3699375963
 20
4836208.272315817
 10
632284.3784257128
 20
4836237.174001505
  0
LWPOLYLINE
  5
59
330
17
100
AcDbEntity
  8
ROADS
100
AcDbPolyline
 90
2
 70
0
 10
632090.8863973045
 20
4836229.960726836
 10
632087.7551621394
 20
4836236.630028149
  0
LWPOLYLINE
  5
5A
330
17
100
AcDbEntity
  8
ROADS
100
AcDbPolyline
 90
2
 70
0
 10
632111.8599672336
 20
4836225.235074946
 10
632105.6272234604
 20
4836242.288586698
  0
LWPOLYLINE
  5
5B
330
17
100
AcDbEntity
  8
ROADS
100
AcDbPolyline
 90
3
 70
0
 10
632167.9475014304
 20
4836213.57662617
 10
632213.2247048095
 20
4836258.371177988
 10
632202.7899102035
 20
4836278.061030127
  0
LWPOLYLINE
  5
5C
330
17
100
AcDbEntity
  8
ROADS
100
AcDbPolyline
 90
2
 70
0
 10
632087.7551621394
 20
4836236.630028149
 10
632105.6272234604
 20
4836242.288586698
  0
LWPOLYLINE
  5
5D
330
17
100
AcDbEntity
  8
ROADS
100
AcDbPolyline
 90
2
 70
0
 10
632105.6272234604
 20
4836242.288586698
 10
632146.7087016265
 20
4836255.4893491855
  0
LWPOLYLINE
  5
5E
330
17
100
AcDbEntity
  8
ROADS
100
AcDbPolyline
 90
2
 70
0
 10
632284.3784257128
 20
4836237.174001505
 10
632390.0373525439
 20
4836263.763363006
  0
LWPOLYLINE
  5
5F
330
17
100
AcDbEntity
  8
ROADS
100
AcDbPolyline
 90
2
 70
0
 10
632777.5069287413
 20
4836406.358004308
 10
632883.8739519495
 20
4836440.3862070665
  0
LWPOLYLINE
  5
60
330
17
100
AcDbEntity
  8
ROADS
100
AcDbPolyline
 90
2
 70
0
 10
632760.5679718062
 20
4836506.555607805
 10
633261.6095932899
 20
4836669.834397664
  0
LWPOLYLINE
  5
61
330
17
100
AcDbEntity
  8
ROADS
100
AcDbPolyline
 90
2
 70
0
 10
632763.7797771463
 20
4836612.216976392
 10
632934.0173133791
 20
4836667.68242466
  0
LWPOLYLINE
  5
62
330
17
100
AcDbEntity
  8
ROADS
100
AcDbPolyline
 90
2
 70
0
 10
633257.9949173131
 20
4836718.517379603
 10
633155.7524581631
 20
4836685.516073187
  0
LWPOLYLINE
  5
63
330
17
100
AcDbEntity
  8
ROADS
100
AcDbPolyline
 90
3
 70
0
 10
632934.0173133791
 20
4836667.68242466
 10
632918.3374327478
 20
4836708.423132335
 10
632856.8954642811
 20
4836746.31416889
  0
LWPOLYLINE
  5
64
330
17
100
AcDbEntity
  8
ROADS
100
AcDbPolyline
 90
2
 70
0
 10
632934.0173133791
 20
4836667.68242466
 10
633242.9600101066
 20
4836766.340352853
  0
LWPOLYLINE
  5
65
330
17
100
AcDbEntity
  8
ROADS
100
AcDbPolyline
 90
2
 70
0
 10
632856.8954642811
 20
4836746.31416889
 10
632829.388028013
 20
4836776.138644047
  0
LWPOLYLINE
  5
66
330
17
100
AcDbEntity
  8
ROADS
100
AcDbPolyline
 90
2
 70
0
 10
633271.3210677174
 20
4836676.863043757
 10
633257.9949173131
 20
4836718.517379603
  0
LWPOLYLINE
  5
67
330
17
100
AcDbEntity
  8
ROADS
100
AcDbPolyline
 90
2
 70
0
 10
632078.7129430518
 20
4836233.766892694
 10
632087.7551621394
 20
4836236.630028149
  0
LWPOLYLINE
  5
68
330
17
100
AcDbEntity
  8
ROADS
100
AcDbPolyline
 90
2
 70
0
 10
631945.5453612403
 20
4836283.859955885
 10
631934.4037750924
 20
4836315.484443443
  0
LWPOLYLINE
  5
69
330
17
100
AcDbEntity
  8
ROADS
100
AcDbPolyline
 90
2
 70
0
 10
631905.0292383656
 20
4836305.9523845045
 10
631934.4037750924
 20
4836315.484443443
  0
LWPOLYLINE
  5
6A
330
17
100
AcDbEntity
  8
ROADS
100
AcDbPolyline
 90
2
 70
0
 10
632080.9362458241
 20
4836358.775084282
 10
632072.0982006758
 20
4836386.7264270075
  0
LWPOLYLINE
  5
6B
330
17
100
AcDbEntity
  8
ROADS
100
AcDbPolyline
 90
3
 70
0
 10
631964.0928906307
 20
4836364.274941963
 10
631996.0436192739
 20
4836373.605832096
 10
631993.12202783
 20
4836384.57734504
  0
LWPOLYLINE
  5
6C
330
17
100
AcDbEntity
  8
ROADS
100
AcDbPolyline
 90
2
 70
0
 10
631922.6160973929
 20
4836352.47413194
 10
631907.6096764845
 20
4836401.38252724
  0
LWPOLYLINE
  5
6D
330
17
100
AcDbEntity
  8
ROADS
100
AcDbPolyline
 90
2
 70
0
 10
631813.511809258
 20
4836372.386003711
 10
631907.6096764845
 20
4836401.38252724
  0
LWPOLYLINE
  5
6E
330
17
100
AcDbEntity
  8
ROADS
100
AcDbPolyline
 90
2
 70
0
 10
631993.12202783
 20
4836384.57734504
 10
632017.8964332112
 20
4836416.627720583
  0
LWPOLYLINE
  5
6F
330
17
100
AcDbEntity
  8
ROADS
100
AcDbPolyline
 90
2
 70
0
 10
631993.12202783
 20
4836384.57734504
 10
631978.6402761583
 20
4836429.57893795
  0
LWPOLYLINE
  5
70
330
17
100
AcDbEntity
  8
ROADS
100
AcDbPolyline
 90
2
 70
0
 10
631907.6096764845
 20
4836401.38252724
 10
631891.2254979166
 20
4836452.207153124
  0
LWPOLYLINE
  5
71
330
17
100
AcDbEntity
  8
ROADS
100
AcDbPolyline
 90
2
 70
0
 10
631823.3701344521
 20
4836430.206623601
 10
631861.9511955376
 20
4836442.422115027
  0
LWPOLYLINE
  5
72
330
17
100
AcDbEntity
  8
ROADS
100
AcDbPolyline
 90
2
 70
0
 10
631861.9511955376
 20
4836442.422115027
 10
631891.2254979166
 20
4836452.207153124
  0
LWPOLYLINE
  5
73
330
17
100
AcDbEntity
  8
ROADS
100
AcDbPolyline
 90
3
 70
0
 10
631926.6269927265
 20
4836464.109137131
 10
631977.7324031298
 20
4836481.4469744675
 10
632017.8964332112
 20
4836416.627720583
  0
LWPOLYLINE
  5
74
330
17
100
AcDbEntity
  8
ROADS
100
AcDbPolyline
 90
2
 70
0
 10
632429.2866707945
 20
4836237.779975929
 10
632419.9797131652
 20
4836271.034283782
  0
LWPOLYLINE
  5
75
330
17
100
AcDbEntity
  8
ROADS
100
AcDbPolyline
 90
2
 70
0
 10
632390.0373525439
 20
4836263.763363006
 10
632405.6566437008
 20
4836267.547552588
  0
LWPOLYLINE
  5
76
330
17
100
AcDbEntity
  8
ROADS
100
AcDbPolyline
 90
2
 70
0
 10
632405.6566437008
 20
4836267.547552588
 10
632419.9797131652
 20
4836271.034283782
  0
LWPOLYLINE
  5
77
330
17
100
AcDbEntity
  8
ROADS
100
AcDbPolyline
 90
2
 70
0
 10
632391.5150901043
 20
4836324.375772076
 10
632405.6566437008
 20
4836267.547552588
  0
LWPOLYLINE
  5
78
330
17
100
AcDbEntity
  8
ROADS
100
AcDbPolyline
 90
2
 70
0
 10
632080.9362458241
 20
4836358.775084282
 10
632105.7945855359
 20
4836366.4941209825
  0
LWPOLYLINE
  5
79
330
17
100
AcDbEntity
  8
ROADS
100
AcDbPolyline
 90
3
 70
0
 10
632390.0373525439
 20
4836263.763363006
 10
632340.7790398025
 20
4836396.948062535
 10
632200.2690425173
 20
4836549.994348144
  0
LWPOLYLINE
  5
7A
330
17
100
AcDbEntity
  8
ROADS
100
AcDbPolyline
 90
6
 70
0
 10
632419.9797131652
 20
4836271.034283782
 10
632395.053760064
 20
4836367.16306425
 10
632431.7585953719
 20
4836389.176404953
 10
632378.7200553934
 20
4836522.326751527
 10
632330.7635141874
 20
4836608.375307091
 10
632311.7009863841
 20
4836616.287247956
  0
LWPOLYLINE
  5
7B
330
17
100
AcDbEntity
  8
ROADS
100
AcDbPolyline
 90
2
 70
0
 10
632391.5150901043
 20
4836324.375772076
 10
632311.7009863841
 20
4836616.287247956
  0
LWPOLYLINE
  5
7C
330
17
100
AcDbEntity
  8
ROADS
100
AcDbPolyline
 90
2
 70
0
 10
632155.334125673
 20
4836521.31568685
 10
632139.3037195625
 20
4836508.991900105
  0
LWPOLYLINE
  5
7D
330
17
100
AcDbEntity
  8
ROADS
100
AcDbPolyline
 90
2
 70
0
 10
632134.9525804125
 20
4836524.135389117
 10
632139.3037195625
 20
4836508.991900105
  0
LWPOLYLINE
  5
7E
330
17
100
AcDbEntity
  8
ROADS
100
AcDbPolyline
 90
2
 70
0
 10
631891.2254979166
 20
4836452.207153124
 10
631926.6269927265
 20
4836464.109137131
  0
LWPOLYLINE
  5
7F
330
17
100
AcDbEntity
  8
ROADS
100
AcDbPolyline
 90
2
 70
0
 10
631861.9511955376
 20
4836442.422115027
 10
631849.3795373008
 20
4836482.835875945
  0
LWPOLYLINE
  5
80
330
17
100
AcDbEntity
  8
ROADS
100
AcDbPolyline
 90
3
 70
0
 10
632139.3037195625
 20
4836508.991900105
 10
632113.7028576784
 20
4836502.902551572
 10
632017.8964332112
 20
4836416.627720583
  0
LWPOLYLINE
  5
81
330
17
100
AcDbEntity
  8
ROADS
100
AcDbPolyline
 90
2
 70
0
 10
631823.3701344521
 20
4836430.206623601
 10
631797.0502029753
 20
4836513.718062967
  0
LWPOLYLINE
  5
82
330
17
100
AcDbEntity
  8
ROADS
100
AcDbPolyline
 90
2
 70
0
 10
631834.2973540921
 20
4836477.7497948
 10
631849.3795373008
 20
4836482.835875945
  0
LWPOLYLINE
  5
83
330
17
100
AcDbEntity
  8
ROADS
100
AcDbPolyline
 90
2
 70
0
 10
631926.6269927265
 20
4836464.109137131
 10
631913.7895595294
 20
4836500.139766602
  0
LWPOLYLINE
  5
84
330
17
100
AcDbEntity
  8
ROADS
100
AcDbPolyline
 90
2
 70
0
 10
631849.3795373008
 20
4836482.835875945
 10
631867.571163628
 20
4836498.418974614
  0
LWPOLYLINE
  5
85
330
17
100
AcDbEntity
  8
ROADS
100
AcDbPolyline
 90
2
 70
0
 10
631867.571163628
 20
4836498.418974614
 10
631878.3318051337
 20
4836486.924662362
  0
LWPOLYLINE
  5
86
330
17
100
AcDbEntity
  8
ROADS
100
AcDbPolyline
 90
2
 70
0
 10
631913.7895595294
 20
4836500.139766602
 10
631957.122483808
 20
4836514.374340144
  0
LWPOLYLINE
  5
87
330
17
100
AcDbEntity
  8
ROADS
100
AcDbPolyline
 90
2
 70
0
 10
631867.571163628
 20
4836498.418974614
 10
631857.4294999386
 20
4836529.412956268
  0
LWPOLYLINE
  5
88
330
17
100
AcDbEntity
  8
ROADS
100
AcDbPolyline
 90
3
 70
0
 10
632419.9797131652
 20
4836271.034283782
 10
632514.5303289795
 20
4836293.253487006
 10
632538.0507728681
 20
4836279.668680722
  0
LWPOLYLINE
  5
89
330
17
100
AcDbEntity
  8
ROADS
100
AcDbPolyline
 90
2
 70
0
 10
632538.0507728681
 20
4836279.668680722
 10
632535.7512265984
 20
4836360.772417483
  0
LWPOLYLINE
  5
8A
330
17
100
AcDbEntity
  8
ROADS
100
AcDbPolyline
 90
2
 70
0
 10
632766.2719308134
 20
4836356.428618371
 10
632777.5069287413
 20
4836406.358004308
  0
LWPOLYLINE
  5
8B
330
17
100
AcDbEntity
  8
ROADS
100
AcDbPolyline
 90
3
 70
0
 10
632777.5069287413
 20
4836406.358004308
 10
632778.228725797
 20
4836468.372926624
 10
632760.5679718062
 20
4836506.555607805
  0
LWPOLYLINE
  5
8C
330
17
100
AcDbEntity
  8
ROADS
100
AcDbPolyline
 90
2
 70
0
 10
632760.5679718062
 20
4836506.555607805
 10
632702.5241823066
 20
4836592.460865977
  0
LWPOLYLINE
  5
8D
330
17
100
AcDbEntity
  8
ROADS
100
AcDbPolyline
 90
2
 70
0
 10
632702.5241823066
 20
4836592.460865977
 10
632763.7797771463
 20
4836612.216976392
  0
LWPOLYLINE
  5
8E
330
17
100
AcDbEntity
  8
ROADS
100
AcDbPolyline
 90
2
 70
0
 10
632702.5241823066
 20
4836592.460865977
 10
632653.1263864225
 20
4836676.799302134
  0
LWPOLYLINE
  5
8F
330
17
100
AcDbEntity
  8
ROADS
100
AcDbPolyline
 90
3
 70
0
 10
632763.7797771463
 20
4836612.216976392
 10
632749.1390461556
 20
4836659.867997134
 10
632845.0646794664
 20
4836690.557859656
  0
LWPOLYLINE
  5
90
330
17
100
AcDbEntity
  8
ROADS
100
AcDbPolyline
 90
2
 70
0
 10
632653.1263864225
 20
4836676.799302134
 10
632688.2245205593
 20
4836688.336821924
  0
LWPOLYLINE
  5
91
330
17
100
AcDbEntity
  8
ROADS
100
AcDbPolyline
 90
2
 70
0
 10
632688.2245205593
 20
4836688.336821924
 10
632856.8954642811
 20
4836746.31416889
  0
LWPOLYLINE
  5
92
330
17
100
AcDbEntity
  8
ROADS
100
AcDbPolyline
 90
2
 70
0
 10
632155.334125673
 20
4836521.31568685
 10
632134.9525804125
 20
4836524.135389117
  0
LWPOLYLINE
  5
93
330
17
100
AcDbEntity
  8
ROADS
100
AcDbPolyline
 90
2
 70
0
 10
632200.2690425173
 20
4836549.994348144
 10
632155.334125673
 20
4836521.31568685
  0
LWPOLYLINE
  5
94
330
17
100
AcDbEntity
  8
ROADS
100
AcDbPolyline
 90
3
 70
0
 10
632074.8344588114
 20
4836552.1495493855
 10
632154.5361491605
 20
4836529.385877884
 10
632200.2690425173
 20
4836549.994348144
  0
LWPOLYLINE
  5
95
330
17
100
AcDbEntity
  8
ROADS
100
AcDbPolyline
 90
2
 70
0
 10
632200.2690425173
 20
4836549.994348144
 10
632114.1488406511
 20
4836635.310256556
  0
LWPOLYLINE
  5
96
330
17
100
AcDbEntity
  8
ROADS
100
AcDbPolyline
 90
4
 70
0
 10
632114.1488406511
 20
4836635.310256556
 10
632129.2074870539
 20
4836569.634000187
 10
632110.8874306009
 20
4836552.801467906
 10
632074.8344588114
 20
4836552.1495493855
  0
LWPOLYLINE
  5
97
330
17
100
AcDbEntity
  8
ROADS
100
AcDbPolyline
 90
5
 70
0
 10
631858.8713472176
 20
4837094.779905495
 10
631893.466204118
 20
4836992.899727742
 10
632006.1764722449
 20
4836794.928672062
 10
632309.4803697779
 20
4836463.387297432
 10
632391.5150901043
 20
4836324.375772076
  0
LWPOLYLINE
  5
98
330
17
100
AcDbEntity
  8
ROADS
100
AcDbPolyline
 90
3
 70
0
 10
632387.9841728678
 20
4836775.883881606
 10
632382.1387999341
 20
4836819.238544087
 10
632423.3592960371
 20
4836861.419148118
  0
LWPOLYLINE
  5
99
330
17
100
AcDbEntity
  8
ROADS
100
AcDbPolyline
 90
2
 70
0
 10
632410.2051182314
 20
4836858.552075269
 10
632423.3592960371
 20
4836861.419148118
  0
LWPOLYLINE
  5
9A
330
17
100
AcDbEntity
  8
ROADS
100
AcDbPolyline
 90
5
 70
0
 10
632311.7009863841
 20
4836616.287247956
 10
632231.1950183068
 20
4836683.194764568
 10
632055.6156478155
 20
4836934.826303127
 10
632005.7715404762
 20
4837032.342461513
 10
631982.7555817154
 20
4837130.791784605
  0
LWPOLYLINE
  5
9B
330
17
100
AcDbEntity
  8
ROADS
100
AcDbPolyline
 90
3
 70
0
 10
632311.7009863841
 20
4836616.287247956
 10
632109.4734140112
 20
4836955.584748994
 10
632053.7408878439
 20
4837151.314950941
  0
LWPOLYLINE
  5
9C
330
17
100
AcDbEntity
  8
ROADS
100
AcDbPolyline
 90
2
 70
0
 10
632653.1263864225
 20
4836676.799302134
 10
632617.3583559215
 20
4836760.545113374
  0
LWPOLYLINE
  5
9D
330
17
100
AcDbEntity
  8
ROADS
100
AcDbPolyline
 90
3
 70
0
 10
632688.2245205593
 20
4836688.336821924
 10
632674.159026758
 20
4836728.897674923
 10
632829.388028013
 20
4836776.138644047
  0
LWPOLYLINE
  5
9E
330
17
100
AcDbEntity
  8
ROADS
100
AcDbPolyline
 90
3
 70
0
 10
632505.5856911913
 20
4836751.085365535
 10
632556.3637099954
 20
4836711.206397395
 10
632617.3583559215
 20
4836760.545113374
  0
LWPOLYLINE
  5
9F
330
17
100
AcDbEntity
  8
ROADS
100
AcDbPolyline
 90
2
 70
0
 10
632505.5856911913
 20
4836751.085365535
 10
632515.3101682125
 20
4836755.580547657
  0
LWPOLYLINE
  5
A0
330
17
100
AcDbEntity
  8
ROADS
100
AcDbPolyline
 90
2
 70
0
 10
632494.8907851741
 20
4836767.902293593
 10
632505.5856911913
 20
4836751.085365535
  0
LWPOLYLINE
  5
A1
330
17
100
AcDbEntity
  8
ROADS
100
AcDbPolyline
 90
2
 70
0
 10
632617.3583559215
 20
4836760.545113374
 10
632657.2264732274
 20
4836769.172661575
  0
LWPOLYLINE
  5
A2
330
17
100
AcDbEntity
  8
ROADS
100
AcDbPolyline
 90
2
 70
0
 10
632550.7162222038
 20
4836799.808185446
 10
632494.8907851741
 20
4836767.902293593
  0
LWPOLYLINE
  5
A3
330
17
100
AcDbEntity
  8
ROADS
100
AcDbPolyline
 90
2
 70
0
 10
632617.3583559215
 20
4836760.545113374
 10
632580.5113783404
 20
4836814.639085321
  0
LWPOLYLINE
  5
A4
330
17
100
AcDbEntity
  8
ROADS
100
AcDbPolyline
 90
2
 70
0
 10
632467.2931591718
 20
4836809.739536467
 10
632494.8907851741
 20
4836767.902293593
  0
LWPOLYLINE
  5
A5
330
17
100
AcDbEntity
  8
ROADS
100
AcDbPolyline
 90
2
 70
0
 10
632829.388028013
 20
4836776.138644047
 10
632801.1678093326
 20
4836812.805764249
  0
LWPOLYLINE
  5
A6
330
17
100
AcDbEntity
  8
ROADS
100
AcDbPolyline
 90
2
 70
0
 10
632856.8954642811
 20
4836746.31416889
 10
632964.5857609371
 20
4836782.1081920285
  0
LWPOLYLINE
  5
A7
330
17
100
AcDbEntity
  8
ROADS
100
AcDbPolyline
 90
2
 70
0
 10
632964.5857609371
 20
4836782.1081920285
 10
632952.349866277
 20
4836820.153958003
  0
LWPOLYLINE
  5
A8
330
17
100
AcDbEntity
  8
ROADS
100
AcDbPolyline
 90
2
 70
0
 10
633242.9600101066
 20
4836766.340352853
 10
633218.2352300036
 20
4836841.544301132
  0
LWPOLYLINE
  5
A9
330
17
100
AcDbEntity
  8
ROADS
100
AcDbPolyline
 90
4
 70
0
 10
632964.5857609371
 20
4836782.1081920285
 10
633019.2227344011
 20
4836799.106458169
 10
633053.1617836783
 20
4836788.855314726
 10
633218.2352300036
 20
4836841.544301132
  0
LWPOLYLINE
  5
AA
330
17
100
AcDbEntity
  8
ROADS
100
AcDbPolyline
 90
2
 70
0
 10
632952.349866277
 20
4836820.153958003
 10
632948.5800770511
 20
4836831.905723539
  0
LWPOLYLINE
  5
AB
330
17
100
AcDbEntity
  8
ROADS
100
AcDbPolyline
 90
3
 70
0
 10
632801.1678093326
 20
4836812.805764249
 10
632845.7705843119
 20
4836842.821618279
 10
632866.0396488539
 20
4836883.223302479
  0
LWPOLYLINE
  5
AC
330
17
100
AcDbEntity
  8
ROADS
100
AcDbPolyline
 90
2
 70
0
 10
632948.5800770511
 20
4836831.905723539
 10
633155.5688519352
 20
4836889.680025339
  0
LWPOLYLINE
  5
AD
330
17
100
AcDbEntity
  8
ROADS
100
AcDbPolyline
 90
2
 70
0
 10
633218.2352300036
 20
4836841.544301132
 10
633197.9304545379
 20
4836903.383093643
  0
LWPOLYLINE
  5
AE
330
17
100
AcDbEntity
  8
ROADS
100
AcDbPolyline
 90
2
 70
0
 10
632948.5800770511
 20
4836831.905723539
 10
632921.5837379345
 20
4836914.984149139
  0
LWPOLYLINE
  5
AF
330
17
100
AcDbEntity
  8
ROADS
100
AcDbPolyline
 90
2
 70
0
 10
633155.5688519352
 20
4836889.680025339
 10
633164.926723297
 20
4836860.748925829
  0
LWPOLYLINE
  5
B0
330
17
100
AcDbEntity
  8
ROADS
100
AcDbPolyline
 90
3
 70
0
 10
632657.2264732274
 20
4836769.172661575
 10
632761.7649681047
 20
4836798.744193645
 10
632782.1387573846
 20
4836822.901982047
  0
LWPOLYLINE
  5
B1
330
17
100
AcDbEntity
  8
ROADS
100
AcDbPolyline
 90
3
 70
0
 10
632657.2264732274
 20
4836769.172661575
 10
632646.8565363087
 20
4836805.321484189
 10
632765.112435431
 20
4836841.041043076
  0
LWPOLYLINE
  5
B2
330
17
100
AcDbEntity
  8
ROADS
100
AcDbPolyline
 90
2
 70
0
 10
632580.5113783404
 20
4836814.639085321
 10
632550.7162222038
 20
4836799.808185446
  0
LWPOLYLINE
  5
B3
330
17
100
AcDbEntity
  8
ROADS
100
AcDbPolyline
 90
2
 70
0
 10
632467.2931591718
 20
4836809.739536467
 10
632485.2602894126
 20
4836820.6492587635
  0
LWPOLYLINE
  5
B4
330
17
100
AcDbEntity
  8
ROADS
100
AcDbPolyline
 90
2
 70
0
 10
632782.1387573846
 20
4836822.901982047
 10
632801.1678093326
 20
4836812.805764249
  0
LWPOLYLINE
  5
B5
330
17
100
AcDbEntity
  8
ROADS
100
AcDbPolyline
 90
2
 70
0
 10
632477.7436944111
 20
4836859.418358255
 10
632550.7162222038
 20
4836799.808185446
  0
LWPOLYLINE
  5
B6
330
17
100
AcDbEntity
  8
ROADS
100
AcDbPolyline
 90
2
 70
0
 10
632782.1387573846
 20
4836822.901982047
 10
632765.112435431
 20
4836841.041043076
  0
LWPOLYLINE
  5
B7
330
17
100
AcDbEntity
  8
ROADS
100
AcDbPolyline
 90
3
 70
0
 10
632477.7436944111
 20
4836859.418358255
 10
632450.9259434253
 20
4836834.236492041
 10
632467.2931591718
 20
4836809.739536467
  0
LWPOLYLINE
  5
B8
330
17
100
AcDbEntity
  8
ROADS
100
AcDbPolyline
 90
2
 70
0
 10
632580.5113783404
 20
4836814.639085321
 10
632758.2921036766
 20
4836877.6965982625
  0
LWPOLYLINE
  5
B9
330
17
100
AcDbEntity
  8
ROADS
100
AcDbPolyline
 90
2
 70
0
 10
632580.5113783404
 20
4836814.639085321
 10
632521.5226942785
 20
4836892.678547465
  0
LWPOLYLINE
  5
BA
330
17
100
AcDbEntity
  8
ROADS
100
AcDbPolyline
 90
2
 70
0
 10
631496.195932227
 20
4837085.2181156995
 10
631510.5251274864
 20
4837008.469814089
  0
LWPOLYLINE
  5
BB
330
17
100
AcDbEntity
  8
ROADS
100
AcDbPolyline
 90
2
 70
0
 10
631624.2529165156
 20
4837013.248292963
 10
631819.7900628659
 20
4837083.5713698985
  0
LWPOLYLINE
  5
BC
330
17
100
AcDbEntity
  8
ROADS
100
AcDbPolyline
 90
3
 70
0
 10
631490.4594084924
 20
4837108.616134439
 10
631565.1988257109
 20
4837121.179554932
 10
631571.1941560977
 20
4837072.520316422
  0
LWPOLYLINE
  5
BD
330
17
100
AcDbEntity
  8
ROADS
100
AcDbPolyline
 90
2
 70
0
 10
631490.4594084924
 20
4837108.616134439
 10
631496.195932227
 20
4837085.2181156995
  0
LWPOLYLINE
  5
BE
330
17
100
AcDbEntity
  8
ROADS
100
AcDbPolyline
 90
7
 70
0
 10
631578.7442258345
 20
4837037.707228281
 10
631623.4656750029
 20
4837073.427580604
 10
631634.0031926081
 20
4837140.911198534
 10
631609.5142521996
 20
4837185.489722761
 10
631469.6337716237
 20
4837332.75529841
 10
631464.2446711478
 20
4837397.162657178
 10
631491.4014104487
 20
4837434.671548249
  0
LWPOLYLINE
  5
BF
330
17
100
AcDbEntity
  8
ROADS
100
AcDbPolyline
 90
5
 70
0
 10
631842.5885537618
 20
4837090.110118154
 10
631716.4296816404
 20
4837305.250083755
 10
631716.391689296
 20
4837327.093044662
 10
631621.2752836213
 20
4837452.691477942
 10
631611.4219232848
 20
4837547.728435317
  0
LWPOLYLINE
  5
C0
330
17
100
AcDbEntity
  8
ROADS
100
AcDbPolyline
 90
3
 70
0
 10
631611.4219232848
 20
4837547.728435317
 10
631795.9578259549
 20
4837253.647294926
 10
631858.8713472176
 20
4837094.779905495
  0
LWPOLYLINE
  5
C1
330
17
100
AcDbEntity
  8
ROADS
100
AcDbPolyline
 90
2
 70
0
 10
631696.245097553
 20
4837308.350317299
 10
631598.1655056151
 20
4837408.399244662
  0
LWPOLYLINE
  5
C2
330
17
100
AcDbEntity
  8
ROADS
100
AcDbPolyline
 90
8
 70
0
 10
631598.1655056151
 20
4837408.399244662
 10
631620.1010918142
 20
4837379.978779105
 10
631623.831281017
 20
4837331.043554896
 10
631599.3306077447
 20
4837305.098556042
 10
631562.95284069
 20
4837303.441608224
 10
631535.3917358739
 20
4837327.444015441
 10
631504.4707177805
 20
4837407.390846098
 10
631534.9654247914
 20
4837475.440392568
  0
LWPOLYLINE
  5
C3
330
17
100
AcDbEntity
  8
ROADS
100
AcDbPolyline
 90
3
 70
0
 10
631696.245097553
 20
4837308.350317299
 10
631585.7031318485
 20
4837476.219972952
 10
631611.4219232848
 20
4837547.728435317
  0
LWPOLYLINE
  5
C4
330
17
100
AcDbEntity
  8
ROADS
100
AcDbPolyline
 90
2
 70
0
 10
631491.4014104487
 20
4837434.671548249
 10
631451.4052549978
 20
4837406.115525492
  0
LWPOLYLINE
  5
C5
330
17
100
AcDbEntity
  8
ROADS
100
AcDbPolyline
 90
2
 70
0
 10
631467.1138056177
 20
4837511.312327485
 10
631534.9654247914
 20
4837475.440392568
  0
LWPOLYLINE
  5
C6
330
17
100
AcDbEntity
  8
ROADS
100
AcDbPolyline
 90
2
 70
0
 10
631598.1655056151
 20
4837408.399244662
 10
631534.9654247914
 20
4837475.440392568
  0
LWPOLYLINE
  5
C7
330
17
100
AcDbEntity
  8
ROADS
100
AcDbPolyline
 90
2
 70
0
 10
631491.4014104487
 20
4837434.671548249
 10
631534.9654247914
 20
4837475.440392568
  0
LWPOLYLINE
  5
C8
330
17
100
AcDbEntity
  8
ROADS
100
AcDbPolyline
 90
2
 70
0
 10
631534.9654247914
 20
4837475.440392568
 10
631611.4219232848
 20
4837547.728435317
  0
LWPOLYLINE
  5
C9
330
17
100
AcDbEntity
  8
ROADS
100
AcDbPolyline
 90
3
 70
0
 10
631534.9654247914
 20
4837475.440392568
 10
631490.6713415832
 20
4837588.06981749
 10
631495.2708637685
 20
4837653.940992714
  0
LWPOLYLINE
  5
CA
330
17
100
AcDbEntity
  8
ROADS
100
AcDbPolyline
 90
2
 70
0
 10
631499.3376810263
 20
4837666.440818489
 10
631521.0798570164
 20
4837722.151764058
  0
LWPOLYLINE
  5
CB
330
17
100
AcDbEntity
  8
ROADS
100
AcDbPolyline
 90
2
 70
0
 10
631755.114146928
 20
4837680.918007798
 10
631611.4219232848
 20
4837547.728435317
  0
LWPOLYLINE
  5
CC
330
17
100
AcDbEntity
  8
ROADS
100
AcDbPolyline
 90
5
 70
0
 10
631611.4219232848
 20
4837547.728435317
 10
631555.4689368997
 20
4837525.320910248
 10
631517.9953609941
 20
4837560.145853578
 10
631511.8904766238
 20
4837672.754882385
 10
631537.2482579253
 20
4837745.780429839
  0
LWPOLYLINE
  5
CD
330
17
100
AcDbEntity
  8
ROADS
100
AcDbPolyline
 90
3
 70
0
 10
631611.4219232848
 20
4837547.728435317
 10
631531.5229632112
 20
4837667.832551802
 10
631545.9527284019
 20
4837735.256556416
  0
LWPOLYLINE
  5
CE
330
17
100
AcDbEntity
  8
ROADS
100
AcDbPolyline
 90
2
 70
0
 10
631521.0798570164
 20
4837722.151764058
 10
631517.8256177736
 20
4837723.265596598
  0
LWPOLYLINE
  5
CF
330
17
100
AcDbEntity
  8
ROADS
100
AcDbPolyline
 90
2
 70
0
 10
631521.0798570164
 20
4837722.151764058
 10
631537.2482579253
 20
4837745.780429839
  0
LWPOLYLINE
  5
D0
330
17
100
AcDbEntity
  8
ROADS
100
AcDbPolyline
 90
2
 70
0
 10
631545.9527284019
 20
4837735.256556416
 10
631537.2482579253
 20
4837745.780429839
  0
LWPOLYLINE
  5
D1
330
17
100
AcDbEntity
  8
ROADS
100
AcDbPolyline
 90
2
 70
0
 10
631858.8713472176
 20
4837094.779905495
 10
631982.7555817154
 20
4837130.791784605
  0
LWPOLYLINE
  5
D2
330
17
100
AcDbEntity
  8
ROADS
100
AcDbPolyline
 90
2
 70
0
 10
631982.7555817154
 20
4837130.791784605
 10
632053.7408878439
 20
4837151.314950941
  0
LWPOLYLINE
  5
D3
330
17
100
AcDbEntity
  8
ROADS
100
AcDbPolyline
 90
3
 70
0
 10
631819.7900628659
 20
4837083.5713698985
 10
631767.7047678765
 20
4837207.134880061
 10
631696.245097553
 20
4837308.350317299
  0
LWPOLYLINE
  5
D4
330
17
100
AcDbEntity
  8
ROADS
100
AcDbPolyline
 90
6
 70
0
 10
631982.7555817154
 20
4837130.791784605
 10
631917.30340414
 20
4837337.461954839
 10
631929.0396293541
 20
4837419.563429617
 10
631912.6629532143
 20
4837544.119753671
 10
631834.1360149097
 20
4837629.3321465645
 10
631755.114146928
 20
4837680.918007798
  0
LWPOLYLINE
  5
D5
330
17
100
AcDbEntity
  8
ROADS
100
AcDbPolyline
 90
3
 70
0
 10
632053.7408878439
 20
4837151.314950941
 10
631992.3940760863
 20
4837439.215595035
 10
631922.8924415411
 20
4837972.238313073
  0
LWPOLYLINE
  5
D6
330
17
100
AcDbEntity
  8
ROADS
100
AcDbPolyline
 90
3
 70
0
 10
631860.7509451703
 20
4837856.051659609
 10
631817.2805510273
 20
4837746.129179928
 10
631755.114146928
 20
4837680.918007798
  0
LWPOLYLINE
  5
D7
330
17
100
AcDbEntity
  8
ROADS
100
AcDbPolyline
 90
2
 70
0
 10
632026.0393856554
 20
4837771.457396386
 10
632061.2868159777
 20
4837772.577913756
  0
LWPOLYLINE
  5
D8
330
17
100
AcDbEntity
  8
ROADS
100
AcDbPolyline
 90
6
 70
0
 10
631755.114146928
 20
4837680.918007798
 10
631718.4118486498
 20
4837727.119761737
 10
631728.0710814149
 20
4837786.479924588
 10
631814.1391440156
 20
4837851.75337131
 10
631874.7667554163
 20
4837946.52800309
 10
631922.8924415411
 20
4837972.238313073
  0
LWPOLYLINE
  5
D9
330
17
100
AcDbEntity
  8
ROADS
100
AcDbPolyline
 90
2
 70
0
 10
631703.6949610133
 20
4837948.620657594
 10
631905.1985254367
 20
4838082.580707494
  0
LWPOLYLINE
  5
DA
330
17
100
AcDbEntity
  8
ROADS
100
AcDbPolyline
 90
2
 70
0
 10
631922.8924415411
 20
4837972.238313073
 10
631908.7468396977
 20
4838062.230332531
  0
LWPOLYLINE
  5
DB
330
17
100
AcDbEntity
  8
ROADS
100
AcDbPolyline
 90
2
 70
0
 10
631588.4428640892
 20
4837866.500515341
 10
631591.6894173358
 20
4837870.93786629
  0
LWPOLYLINE
  5
DC
330
17
100
AcDbEntity
  8
ROADS
100
AcDbPolyline
 90
5
 70
0
 10
631908.7468396977
 20
4838062.230332531
 10
631670.4946734379
 20
4837883.914021293
 10
631609.2754750903
 20
4837807.805162213
 10
631578.0842374167
 20
4837678.240356372
 10
631611.4219232848
 20
4837547.728435317
  0
LWPOLYLINE
  5
DD
330
17
100
AcDbEntity
  8
ROADS
100
AcDbPolyline
 90
3
 70
0
 10
631545.9527284019
 20
4837735.256556416
 10
631620.719706775
 20
4837852.684500957
 10
631703.6949610133
 20
4837948.620657594
  0
LWPOLYLINE
  5
DE
330
17
100
AcDbEntity
  8
ROADS
100
AcDbPolyline
 90
2
 70
0
 10
631537.2482579253
 20
4837745.780429839
 10
631703.6949610133
 20
4837948.620657594
  0
LWPOLYLINE
  5
DF
330
17
100
AcDbEntity
  8
ROADS
100
AcDbPolyline
 90
2
 70
0
 10
631591.6894173358
 20
4837870.93786629
 10
631687.8692611746
 20
4837963.412231173
  0
LWPOLYLINE
  5
E0
330
17
100
AcDbEntity
  8
ROADS
100
AcDbPolyline
 90
2
 70
0
 10
631687.8692611746
 20
4837963.412231173
 10
631703.6949610133
 20
4837948.620657594
  0
LWPOLYLINE
  5
E1
330
17
100
AcDbEntity
  8
ROADS
100
AcDbPolyline
 90
2
 70
0
 10
631703.6949610133
 20
4837948.620657594
 10
631699.520366941
 20
4837966.883204085
  0
LWPOLYLINE
  5
E2
330
17
100
AcDbEntity
  8
ROADS
100
AcDbPolyline
 90
2
 70
0
 10
631591.6894173358
 20
4837870.93786629
 10
631591.2483230015
 20
4837870.96635858
  0
LWPOLYLINE
  5
E3
330
17
100
AcDbEntity
  8
ROADS
100
AcDbPolyline
 90
2
 70
0
 10
631687.8692611746
 20
4837963.412231173
 10
631699.520366941
 20
4837966.883204085
  0
LWPOLYLINE
  5
E4
330
17
100
AcDbEntity
  8
ROADS
100
AcDbPolyline
 90
2
 70
0
 10
631699.520366941
 20
4837966.883204085
 10
631689.1300471659
 20
4837999.828538721
  0
LWPOLYLINE
  5
E5
330
17
100
AcDbEntity
  8
ROADS
100
AcDbPolyline
 90
2
 70
0
 10
631703.6949610133
 20
4837948.620657594
 10
631903.0974557406
 20
4838094.62962493
  0
LWPOLYLINE
  5
E6
330
17
100
AcDbEntity
  8
ROADS
100
AcDbPolyline
 90
2
 70
0
 10
631908.7468396977
 20
4838062.230332531
 10
631905.1985254367
 20
4838082.580707494
  0
LWPOLYLINE
  5
E7
330
17
100
AcDbEntity
  8
ROADS
100
AcDbPolyline
 90
2
 70
0
 10
631905.1985254367
 20
4838082.580707494
 10
631903.0974557406
 20
4838094.62962493
  0
LWPOLYLINE
  5
E8
330
17
100
AcDbEntity
  8
ROADS
100
AcDbPolyline
 90
5
 70
0
 10
631922.8924415411
 20
4837972.238313073
 10
631978.9646874748
 20
4838004.420838742
 10
632013.3195801568
 20
4838051.073715702
 10
632065.3187507179
 20
4838207.099076549
 10
632064.1134810068
 20
4838237.205109216
  0
LWPOLYLINE
  5
E9
330
17
100
AcDbEntity
  8
ROADS
100
AcDbPolyline
 90
3
 70
0
 10
631905.1985254367
 20
4838082.580707494
 10
631961.2974172056
 20
4838153.984721147
 10
631974.0493886304
 20
4838205.417419819
  0
LWPOLYLINE
  5
EA
330
17
100
AcDbEntity
  8
ROADS
100
AcDbPolyline
 90
3
 70
0
 10
631903.0974557406
 20
4838094.62962493
 10
631959.7090878842
 20
4838173.901513057
 10
631964.2374527544
 20
4838201.5825089635
  0
LWPOLYLINE
  5
EB
330
17
100
AcDbEntity
  8
ROADS
100
AcDbPolyline
 90
3
 70
0
 10
632001.8985438632
 20
4838216.302022926
 10
631977.5073314541
 20
4838138.354695659
 10
631908.7468396977
 20
4838062.230332531
  0
LWPOLYLINE
  5
EC
330
17
100
AcDbEntity
  8
ROADS
100
AcDbPolyline
 90
2
 70
0
 10
631903.0974557406
 20
4838094.62962493
 10
631891.2284055026
 20
4838164.994020129
  0
LWPOLYLINE
  5
ED
330
17
100
AcDbEntity
  8
ROADS
100
AcDbPolyline
 90
2
 70
0
 10
633310.4394724375
 20
4836709.646593344
 10
633303.3527588961
 20
4836732.7746506035
  0
LWPOLYLINE
  5
EE
330
17
100
AcDbEntity
  8
ROADS
100
AcDbPolyline
 90
2
 70
0
 10
633257.9949173131
 20
4836718.517379603
 10
633242.9600101066
 20
4836766.340352853
  0
LWPOLYLINE
  5
EF
330
17
100
AcDbEntity
  8
ROADS
100
AcDbPolyline
 90
2
 70
0
 10
633303.3527588961
 20
4836732.7746506035
 10
633289.6146981609
 20
4836776.4637475135
  0
LWPOLYLINE
  5
F0
330
17
100
AcDbEntity
  8
ROADS
100
AcDbPolyline
 90
2
 70
0
 10
633303.3527588961
 20
4836732.7746506035
 10
633352.0214400403
 20
4836748.298091999
  0
LWPOLYLINE
  5
F1
330
17
100
AcDbEntity
  8
ROADS
100
AcDbPolyline
 90
2
 70
0
 10
633242.9600101066
 20
4836766.340352853
 10
633246.760423091
 20
4836775.846830028
  0
LWPOLYLINE
  5
F2
330
17
100
AcDbEntity
  8
ROADS
100
AcDbPolyline
 90
2
 70
0
 10
633242.9600101066
 20
4836766.340352853
 10
633289.6146981609
 20
4836776.4637475135
  0
LWPOLYLINE
  5
F3
330
17
100
AcDbEntity
  8
ROADS
100
AcDbPolyline
 90
2
 70
0
 10
633289.6146981609
 20
4836776.4637475135
 10
633409.7750488457
 20
4836814.063413459
  0
LWPOLYLINE
  5
F4
330
17
100
AcDbEntity
  8
ROADS
100
AcDbPolyline
 90
3
 70
0
 10
633289.6146981609
 20
4836776.4637475135
 10
633275.112963914
 20
4836821.403132603
 10
633423.6889669073
 20
4836869.79051919
  0
LWPOLYLINE
  5
F5
330
17
100
AcDbEntity
  8
ROADS
100
AcDbPolyline
 90
2
 70
0
 10
633431.6372920315
 20
4836843.319828372
 10
633427.2103177311
 20
4836858.0622470565
  0
LWPOLYLINE
  5
F6
330
17
100
AcDbEntity
  8
ROADS
100
AcDbPolyline
 90
2
 70
0
 10
633427.2103177311
 20
4836858.0622470565
 10
633423.6889669073
 20
4836869.79051919
  0
LWPOLYLINE
  5
F7
330
17
100
AcDbEntity
  8
ROADS
100
AcDbPolyline
 90
2
 70
0
 10
633423.6889669073
 20
4836869.79051919
 10
633414.165401583
 20
4836896.878496477
  0
LWPOLYLINE
  5
F8
330
17
100
AcDbEntity
  8
ROADS
100
AcDbPolyline
 90
2
 70
0
 10
633427.2103177311
 20
4836858.0622470565
 10
633447.7491170792
 20
4836865.250638359
  0
LWPOLYLINE
  5
F9
330
17
100
AcDbEntity
  8
ROADS
100
AcDbPolyline
 90
2
 70
0
 10
633414.165401583
 20
4836896.878496477
 10
633447.452408247
 20
4836908.474320368
  0
LWPOLYLINE
  5
FA
330
17
100
AcDbEntity
  8
ROADS
100
AcDbPolyline
 90
2
 70
0
 10
633447.452408247
 20
4836908.474320368
 10
633480.6847403632
 20
4836920.0844808
  0
LWPOLYLINE
  5
FB
330
17
100
AcDbEntity
  8
ROADS
100
AcDbPolyline
 90
3
 70
0
 10
633447.452408247
 20
4836908.474320368
 10
633435.313079203
 20
4836941.565483973
 10
633484.5751375551
 20
4836964.401080531
  0
LWPOLYLINE
  5
FC
330
17
100
AcDbEntity
  8
ROADS
100
AcDbPolyline
 90
2
 70
0
 10
633414.165401583
 20
4836896.878496477
 10
633386.7756976834
 20
4836978.202778923
  0
LWPOLYLINE
  5
FD
330
17
100
AcDbEntity
  8
ROADS
100
AcDbPolyline
 90
4
 70
0
 10
633342.0970734296
 20
4837111.871626553
 10
633294.6419379449
 20
4836963.954668822
 10
633315.3709941898
 20
4836885.014162439
 10
633246.760423091
 20
4836775.846830028
  0
LWPOLYLINE
  5
FE
330
17
100
AcDbEntity
  8
ROADS
100
AcDbPolyline
 90
2
 70
0
 10
633529.4946130204
 20
4837025.298791248
 10
633529.3620122259
 20
4837025.662868789
  0
LWPOLYLINE
  5
FF
330
17
100
AcDbEntity
  8
ROADS
100
AcDbPolyline
 90
2
 70
0
 10
633386.7756976834
 20
4836978.202778923
 10
633529.3620122259
 20
4837025.662868789
  0
LWPOLYLINE
  5
100
330
17
100
AcDbEntity
  8
ROADS
100
AcDbPolyline
 90
2
 70
0
 10
633386.7756976834
 20
4836978.202778923
 10
633359.2184513748
 20
4837060.053061093
  0
LWPOLYLINE
  5
101
330
17
100
AcDbEntity
  8
ROADS
100
AcDbPolyline
 90
2
 70
0
 10
633529.3620122259
 20
4837025.662868789
 10
633529.6562554982
 20
4837025.756936337
  0
LWPOLYLINE
  5
102
330
17
100
AcDbEntity
  8
ROADS
100
AcDbPolyline
 90
3
 70
0
 10
633529.3620122259
 20
4837025.662868789
 10
633516.8335994252
 20
4837065.779568516
 10
633413.7230221691
 20
4837033.1654654285
  0
LWPOLYLINE
  5
103
330
17
100
AcDbEntity
  8
ROADS
100
AcDbPolyline
 90
3
 70
0
 10
633287.8955884238
 20
4837006.4170825565
 10
633267.3131322789
 20
4837013.153446698
 10
633290.6975662032
 20
4837100.058250426
  0
LWPOLYLINE
  5
104
330
17
100
AcDbEntity
  8
ROADS
100
AcDbPolyline
 90
2
 70
0
 10
633554.3021316797
 20
4837101.982023554
 10
633547.7999803104
 20
4837122.250079815
  0
LWPOLYLINE
  5
105
330
17
100
AcDbEntity
  8
ROADS
100
AcDbPolyline
 90
2
 70
0
 10
633359.2184513748
 20
4837060.053061093
 10
633342.0970734296
 20
4837111.871626553
  0
LWPOLYLINE
  5
106
330
17
100
AcDbEntity
  8
ROADS
100
AcDbPolyline
 90
2
 70
0
 10
633359.2184513748
 20
4837060.053061093
 10
633547.7999803104
 20
4837122.250079815
  0
LWPOLYLINE
  5
107
330
17
100
AcDbEntity
  8
ROADS
100
AcDbPolyline
 90
2
 70
0
 10
633204.6272396214
 20
4837110.147695487
 10
633290.6975662032
 20
4837100.058250426
  0
LWPOLYLINE
  5
108
330
17
100
AcDbEntity
  8
ROADS
100
AcDbPolyline
 90
2
 70
0
 10
633290.6975662032
 20
4837100.058250426
 10
633299.2965923236
 20
4837137.86627179
  0
LWPOLYLINE
  5
109
330
17
100
AcDbEntity
  8
ROADS
100
AcDbPolyline
 90
2
 70
0
 10
633342.0970734296
 20
4837111.871626553
 10
633332.3378209438
 20
4837140.433447122
  0
LWPOLYLINE
  5
10A
330
17
100
AcDbEntity
  8
ROADS
100
AcDbPolyline
 90
2
 70
0
 10
633498.8904671466
 20
4837151.757056714
 10
633392.7399090265
 20
4837115.755685964
  0
LWPOLYLINE
  5
10B
330
17
100
AcDbEntity
  8
ROADS
100
AcDbPolyline
 90
2
 70
0
 10
633228.8960048618
 20
4837131.0062018195
 10
633299.2965923236
 20
4837137.86627179
  0
LWPOLYLINE
  5
10C
330
17
100
AcDbEntity
  8
ROADS
100
AcDbPolyline
 90
2
 70
0
 10
632859.048780677
 20
4837105.504416987
 10
633061.5914901802
 20
4837167.57081796
  0
LWPOLYLINE
  5
10D
330
17
100
AcDbEntity
  8
ROADS
100
AcDbPolyline
 90
2
 70
0
 10
633222.3516852467
 20
4837150.68243646
 10
633206.9302994516
 20
4837123.952443055
  0
LWPOLYLINE
  5
10E
330
17
100
AcDbEntity
  8
ROADS
100
AcDbPolyline
 90
2
 70
0
 10
633146.9149585366
 20
4837093.843315933
 10
633116.0173328591
 20
4837180.87003946
  0
LWPOLYLINE
  5
10F
330
17
100
AcDbEntity
  8
ROADS
100
AcDbPolyline
 90
2
 70
0
 10
633222.3516852467
 20
4837150.68243646
 10
633228.8960048618
 20
4837131.0062018195
  0
LWPOLYLINE
  5
110
330
17
100
AcDbEntity
  8
ROADS
100
AcDbPolyline
 90
2
 70
0
 10
633076.9095759338
 20
4837122.258207774
 10
633061.5914901802
 20
4837167.57081796
  0
LWPOLYLINE
  5
111
330
17
100
AcDbEntity
  8
ROADS
100
AcDbPolyline
 90
2
 70
0
 10
633198.1717474461
 20
4837168.987662287
 10
633206.9302994516
 20
4837123.952443055
  0
LWPOLYLINE
  5
112
330
17
100
AcDbEntity
  8
ROADS
100
AcDbPolyline
 90
2
 70
0
 10
632853.9596136606
 20
4837122.192707654
 10
632830.6655509593
 20
4837195.148237761
  0
LWPOLYLINE
  5
113
330
17
100
AcDbEntity
  8
ROADS
100
AcDbPolyline
 90
2
 70
0
 10
633216.3473949139
 20
4837169.253347186
 10
633222.3516852467
 20
4837150.68243646
  0
LWPOLYLINE
  5
114
330
17
100
AcDbEntity
  8
ROADS
100
AcDbPolyline
 90
2
 70
0
 10
633235.3445780962
 20
4837179.502685865
 10
633222.3516852467
 20
4837150.68243646
  0
LWPOLYLINE
  5
115
330
17
100
AcDbEntity
  8
ROADS
100
AcDbPolyline
 90
2
 70
0
 10
633198.1717474461
 20
4837168.987662287
 10
633216.3473949139
 20
4837169.253347186
  0
LWPOLYLINE
  5
116
330
17
100
AcDbEntity
  8
ROADS
100
AcDbPolyline
 90
2
 70
0
 10
633299.2965923236
 20
4837137.86627179
 10
633332.3378209438
 20
4837140.433447122
  0
LWPOLYLINE
  5
117
330
17
100
AcDbEntity
  8
ROADS
100
AcDbPolyline
 90
2
 70
0
 10
633498.8904671466
 20
4837151.757056714
 10
633503.1349896332
 20
4837138.86176728
  0
LWPOLYLINE
  5
118
330
17
100
AcDbEntity
  8
ROADS
100
AcDbPolyline
 90
2
 70
0
 10
633235.3445780962
 20
4837179.502685865
 10
633299.2965923236
 20
4837137.86627179
  0
LWPOLYLINE
  5
119
330
17
100
AcDbEntity
  8
ROADS
100
AcDbPolyline
 90
2
 70
0
 10
633547.7999803104
 20
4837122.250079815
 10
633521.0526693673
 20
4837205.432143623
  0
LWPOLYLINE
  5
11A
330
17
100
AcDbEntity
  8
ROADS
100
AcDbPolyline
 90
2
 70
0
 10
633332.3378209438
 20
4837140.433447122
 10
633486.1211545703
 20
4837191.313346971
  0
LWPOLYLINE
  5
11B
330
17
100
AcDbEntity
  8
ROADS
100
AcDbPolyline
 90
2
 70
0
 10
633486.1211545703
 20
4837191.313346971
 10
633498.8904671466
 20
4837151.757056714
  0
LWPOLYLINE
  5
11C
330
17
100
AcDbEntity
  8
ROADS
100
AcDbPolyline
 90
2
 70
0
 10
633547.7999803104
 20
4837122.250079815
 10
633560.2388181406
 20
4837126.418118757
  0
LWPOLYLINE
  5
11D
330
17
100
AcDbEntity
  8
ROADS
100
AcDbPolyline
 90
2
 70
0
 10
633332.3378209438
 20
4837140.433447122
 10
633304.3594711287
 20
4837224.608274912
  0
LWPOLYLINE
  5
11E
330
17
100
AcDbEntity
  8
ROADS
100
AcDbPolyline
 90
2
 70
0
 10
633486.1211545703
 20
4837191.313346971
 10
633521.0526693673
 20
4837205.432143623
  0
LWPOLYLINE
  5
11F
330
17
100
AcDbEntity
  8
ROADS
100
AcDbPolyline
 90
3
 70
0
 10
633486.1211545703
 20
4837191.313346971
 10
633469.6369505328
 20
4837230.404421097
 10
633364.7555045886
 20
4837195.620075123
  0
LWPOLYLINE
  5
120
330
17
100
AcDbEntity
  8
ROADS
100
AcDbPolyline
 90
3
 70
0
 10
632952.349866277
 20
4836820.153958003
 10
632904.0361233
 20
4836804.609140282
 10
632855.5699038464
 20
4836952.293434309
  0
LWPOLYLINE
  5
121
330
17
100
AcDbEntity
  8
ROADS
100
AcDbPolyline
 90
2
 70
0
 10
633246.760423091
 20
4836775.846830028
 10
633177.8992013839
 20
4837002.412791643
  0
LWPOLYLINE
  5
122
330
17
100
AcDbEntity
  8
ROADS
100
AcDbPolyline
 90
2
 70
0
 10
633155.5688519352
 20
4836889.680025339
 10
633197.9304545379
 20
4836903.383093643
  0
LWPOLYLINE
  5
123
330
17
100
AcDbEntity
  8
ROADS
100
AcDbPolyline
 90
3
 70
0
 10
633124.7604218753
 20
4836981.538266541
 10
633139.7340363261
 20
4836936.055397449
 10
632989.8562613222
 20
4836887.159441593
  0
LWPOLYLINE
  5
124
330
17
100
AcDbEntity
  8
ROADS
100
AcDbPolyline
 90
2
 70
0
 10
632921.5837379345
 20
4836914.984149139
 10
633124.7604218753
 20
4836981.538266541
  0
LWPOLYLINE
  5
125
330
17
100
AcDbEntity
  8
ROADS
100
AcDbPolyline
 90
2
 70
0
 10
633197.9304545379
 20
4836903.383093643
 10
633167.3174584269
 20
4836995.604908153
  0
LWPOLYLINE
  5
126
330
17
100
AcDbEntity
  8
ROADS
100
AcDbPolyline
 90
2
 70
0
 10
632921.5837379345
 20
4836914.984149139
 10
632889.2077536804
 20
4837013.724522187
  0
LWPOLYLINE
  5
127
330
17
100
AcDbEntity
  8
ROADS
100
AcDbPolyline
 90
2
 70
0
 10
633124.7604218753
 20
4836981.538266541
 10
633167.3174584269
 20
4836995.604908153
  0
LWPOLYLINE
  5
128
330
17
100
AcDbEntity
  8
ROADS
100
AcDbPolyline
 90
2
 70
0
 10
632789.8230334457
 20
4836986.122258308
 10
632889.2077536804
 20
4837013.724522187
  0
LWPOLYLINE
  5
129
330
17
100
AcDbEntity
  8
ROADS
100
AcDbPolyline
 90
2
 70
0
 10
633109.3241911783
 20
4837027.2187822675
 10
632927.357804921
 20
4836977.996535036
  0
LWPOLYLINE
  5
12A
330
17
100
AcDbEntity
  8
ROADS
100
AcDbPolyline
 90
2
 70
0
 10
632765.112435431
 20
4836841.041043076
 10
632758.2921036766
 20
4836877.6965982625
  0
LWPOLYLINE
  5
12B
330
17
100
AcDbEntity
  8
ROADS
100
AcDbPolyline
 90
2
 70
0
 10
632498.4832209208
 20
4836882.706175824
 10
632477.7436944111
 20
4836859.418358255
  0
LWPOLYLINE
  5
12C
330
17
100
AcDbEntity
  8
ROADS
100
AcDbPolyline
 90
2
 70
0
 10
632423.3592960371
 20
4836861.419148118
 10
632498.4832209208
 20
4836882.706175824
  0
LWPOLYLINE
  5
12D
330
17
100
AcDbEntity
  8
ROADS
100
AcDbPolyline
 90
2
 70
0
 10
632521.5226942785
 20
4836892.678547465
 10
632498.4832209208
 20
4836882.706175824
  0
LWPOLYLINE
  5
12E
330
17
100
AcDbEntity
  8
ROADS
100
AcDbPolyline
 90
2
 70
0
 10
632521.5226942785
 20
4836892.678547465
 10
632510.3523261638
 20
4836907.361708705
  0
LWPOLYLINE
  5
12F
330
17
100
AcDbEntity
  8
ROADS
100
AcDbPolyline
 90
2
 70
0
 10
632758.2921036766
 20
4836877.6965982625
 10
632740.2243582834
 20
4836972.11831043
  0
LWPOLYLINE
  5
130
330
17
100
AcDbEntity
  8
ROADS
100
AcDbPolyline
 90
2
 70
0
 10
632510.3523261638
 20
4836907.361708705
 10
632646.9743112866
 20
4836945.503074754
  0
LWPOLYLINE
  5
131
330
17
100
AcDbEntity
  8
ROADS
100
AcDbPolyline
 90
2
 70
0
 10
632510.3523261638
 20
4836907.361708705
 10
632441.2561893348
 20
4837005.567938828
  0
LWPOLYLINE
  5
132
330
17
100
AcDbEntity
  8
ROADS
100
AcDbPolyline
 90
2
 70
0
 10
632646.9743112866
 20
4836945.503074754
 10
632740.2243582834
 20
4836972.11831043
  0
LWPOLYLINE
  5
133
330
17
100
AcDbEntity
  8
ROADS
100
AcDbPolyline
 90
2
 70
0
 10
632740.2243582834
 20
4836972.11831043
 10
632789.8230334457
 20
4836986.122258308
  0
LWPOLYLINE
  5
134
330
17
100
AcDbEntity
  8
ROADS
100
AcDbPolyline
 90
2
 70
0
 10
633124.7604218753
 20
4836981.538266541
 10
633109.3241911783
 20
4837027.2187822675
  0
LWPOLYLINE
  5
135
330
17
100
AcDbEntity
  8
ROADS
100
AcDbPolyline
 90
2
 70
0
 10
632889.2077536804
 20
4837013.724522187
 10
632874.3384619316
 20
4837058.028647328
  0
LWPOLYLINE
  5
136
330
17
100
AcDbEntity
  8
ROADS
100
AcDbPolyline
 90
2
 70
0
 10
633167.3174584269
 20
4836995.604908153
 10
633136.3435330071
 20
4837086.437402401
  0
LWPOLYLINE
  5
137
330
17
100
AcDbEntity
  8
ROADS
100
AcDbPolyline
 90
2
 70
0
 10
632889.2077536804
 20
4837013.724522187
 10
633093.569908876
 20
4837075.886780355
  0
LWPOLYLINE
  5
138
330
17
100
AcDbEntity
  8
ROADS
100
AcDbPolyline
 90
2
 70
0
 10
633177.8992013839
 20
4837002.412791643
 10
633146.9149585366
 20
4837093.843315933
  0
LWPOLYLINE
  5
139
330
17
100
AcDbEntity
  8
ROADS
100
AcDbPolyline
 90
2
 70
0
 10
633109.3241911783
 20
4837027.2187822675
 10
633093.569908876
 20
4837075.886780355
  0
LWPOLYLINE
  5
13A
330
17
100
AcDbEntity
  8
ROADS
100
AcDbPolyline
 90
2
 70
0
 10
632823.5399710735
 20
4837045.999645539
 10
632874.3384619316
 20
4837058.028647328
  0
LWPOLYLINE
  5
13B
330
17
100
AcDbEntity
  8
ROADS
100
AcDbPolyline
 90
2
 70
0
 10
633177.8992013839
 20
4837002.412791643
 10
633204.6272396214
 20
4837110.147695487
  0
LWPOLYLINE
  5
13C
330
17
100
AcDbEntity
  8
ROADS
100
AcDbPolyline
 90
2
 70
0
 10
633093.569908876
 20
4837075.886780355
 10
633136.3435330071
 20
4837086.437402401
  0
LWPOLYLINE
  5
13D
330
17
100
AcDbEntity
  8
ROADS
100
AcDbPolyline
 90
2
 70
0
 10
632874.3384619316
 20
4837058.028647328
 10
632859.048780677
 20
4837105.504416987
  0
LWPOLYLINE
  5
13E
330
17
100
AcDbEntity
  8
ROADS
100
AcDbPolyline
 90
2
 70
0
 10
632646.9743112866
 20
4836945.503074754
 10
632616.6423327802
 20
4837053.516048493
  0
LWPOLYLINE
  5
13F
330
17
100
AcDbEntity
  8
ROADS
100
AcDbPolyline
 90
2
 70
0
 10
632789.8230334457
 20
4836986.122258308
 10
632775.090038578
 20
4837032.512499924
  0
LWPOLYLINE
  5
140
330
17
100
AcDbEntity
  8
ROADS
100
AcDbPolyline
 90
2
 70
0
 10
632441.2561893348
 20
4837005.567938828
 10
632616.6423327802
 20
4837053.516048493
  0
LWPOLYLINE
  5
141
330
17
100
AcDbEntity
  8
ROADS
100
AcDbPolyline
 90
2
 70
0
 10
632775.090038578
 20
4837032.512499924
 10
632823.5399710735
 20
4837045.999645539
  0
LWPOLYLINE
  5
142
330
17
100
AcDbEntity
  8
ROADS
100
AcDbPolyline
 90
2
 70
0
 10
632775.090038578
 20
4837032.512499924
 10
632754.392006003
 20
4837096.188232691
  0
LWPOLYLINE
  5
143
330
17
100
AcDbEntity
  8
ROADS
100
AcDbPolyline
 90
2
 70
0
 10
632616.6423327802
 20
4837053.516048493
 10
632754.392006003
 20
4837096.188232691
  0
LWPOLYLINE
  5
144
330
17
100
AcDbEntity
  8
ROADS
100
AcDbPolyline
 90
2
 70
0
 10
632823.5399710735
 20
4837045.999645539
 10
632802.2489186376
 20
4837108.014532833
  0
LWPOLYLINE
  5
145
330
17
100
AcDbEntity
  8
ROADS
100
AcDbPolyline
 90
2
 70
0
 10
632754.392006003
 20
4837096.188232691
 10
632802.2489186376
 20
4837108.014532833
  0
LWPOLYLINE
  5
146
330
17
100
AcDbEntity
  8
ROADS
100
AcDbPolyline
 90
2
 70
0
 10
632398.3623905492
 20
4837067.146094858
 10
632732.0463086657
 20
4837164.206504386
  0
LWPOLYLINE
  5
147
330
17
100
AcDbEntity
  8
ROADS
100
AcDbPolyline
 90
2
 70
0
 10
632754.392006003
 20
4837096.188232691
 10
632732.0463086657
 20
4837164.206504386
  0
LWPOLYLINE
  5
148
330
17
100
AcDbEntity
  8
ROADS
100
AcDbPolyline
 90
2
 70
0
 10
632441.2561893348
 20
4837005.567938828
 10
632398.3623905492
 20
4837067.146094858
  0
LWPOLYLINE
  5
149
330
17
100
AcDbEntity
  8
ROADS
100
AcDbPolyline
 90
2
 70
0
 10
632398.3623905492
 20
4837067.146094858
 10
632355.5155144187
 20
4837131.272280797
  0
LWPOLYLINE
  5
14A
330
17
100
AcDbEntity
  8
ROADS
100
AcDbPolyline
 90
2
 70
0
 10
632053.7408878439
 20
4837151.314950941
 10
632120.0960448445
 20
4837169.947255225
  0
LWPOLYLINE
  5
14B
330
17
100
AcDbEntity
  8
ROADS
100
AcDbPolyline
 90
2
 70
0
 10
632355.5155144187
 20
4837131.272280797
 10
632290.2523686939
 20
4837218.93091792
  0
LWPOLYLINE
  5
14C
330
17
100
AcDbEntity
  8
ROADS
100
AcDbPolyline
 90
2
 70
0
 10
632120.0960448445
 20
4837169.947255225
 10
632163.9082857072
 20
4837183.28152212
  0
LWPOLYLINE
  5
14D
330
17
100
AcDbEntity
  8
ROADS
100
AcDbPolyline
 90
2
 70
0
 10
632163.9082857072
 20
4837183.28152212
 10
632171.132174057
 20
4837196.8671929985
  0
LWPOLYLINE
  5
14E
330
17
100
AcDbEntity
  8
ROADS
100
AcDbPolyline
 90
3
 70
0
 10
632120.0960448445
 20
4837169.947255225
 10
632116.5613717611
 20
4837182.965336367
 10
632150.3858592837
 20
4837214.7694157865
  0
LWPOLYLINE
  5
14F
330
17
100
AcDbEntity
  8
ROADS
100
AcDbPolyline
 90
2
 70
0
 10
632163.9082857072
 20
4837183.28152212
 10
632290.2523686939
 20
4837218.93091792
  0
LWPOLYLINE
  5
150
330
17
100
AcDbEntity
  8
ROADS
100
AcDbPolyline
 90
2
 70
0
 10
632171.132174057
 20
4837196.8671929985
 10
632150.3858592837
 20
4837214.7694157865
  0
LWPOLYLINE
  5
151
330
17
100
AcDbEntity
  8
ROADS
100
AcDbPolyline
 90
2
 70
0
 10
632150.3858592837
 20
4837214.7694157865
 10
632129.3269891434
 20
4837200.46051489
  0
LWPOLYLINE
  5
152
330
17
100
AcDbEntity
  8
ROADS
100
AcDbPolyline
 90
2
 70
0
 10
633136.3435330071
 20
4837086.437402401
 10
633146.9149585366
 20
4837093.843315933
  0
LWPOLYLINE
  5
153
330
17
100
AcDbEntity
  8
ROADS
100
AcDbPolyline
 90
2
 70
0
 10
632874.3384619316
 20
4837058.028647328
 10
633076.9095759338
 20
4837122.258207774
  0
LWPOLYLINE
  5
154
330
17
100
AcDbEntity
  8
ROADS
100
AcDbPolyline
 90
2
 70
0
 10
633093.569908876
 20
4837075.886780355
 10
633076.9095759338
 20
4837122.258207774
  0
LWPOLYLINE
  5
155
330
17
100
AcDbEntity
  8
ROADS
100
AcDbPolyline
 90
2
 70
0
 10
633146.9149585366
 20
4837093.843315933
 10
633206.9302994516
 20
4837123.952443055
  0
LWPOLYLINE
  5
156
330
17
100
AcDbEntity
  8
ROADS
100
AcDbPolyline
 90
2
 70
0
 10
632859.048780677
 20
4837105.504416987
 10
632853.9596136606
 20
4837122.192707654
  0
LWPOLYLINE
  5
157
330
17
100
AcDbEntity
  8
ROADS
100
AcDbPolyline
 90
2
 70
0
 10
632802.2489186376
 20
4837108.014532833
 10
632853.9596136606
 20
4837122.192707654
  0
LWPOLYLINE
  5
158
330
17
100
AcDbEntity
  8
ROADS
100
AcDbPolyline
 90
2
 70
0
 10
633204.6272396214
 20
4837110.147695487
 10
633206.9302994516
 20
4837123.952443055
  0
LWPOLYLINE
  5
159
330
17
100
AcDbEntity
  8
ROADS
100
AcDbPolyline
 90
2
 70
0
 10
633206.9302994516
 20
4837123.952443055
 10
633228.8960048618
 20
4837131.0062018195
  0
LWPOLYLINE
  5
15A
330
17
100
AcDbEntity
  8
ROADS
100
AcDbPolyline
 90
2
 70
0
 10
633198.1717474461
 20
4837168.987662287
 10
633146.9149585366
 20
4837093.843315933
  0
LWPOLYLINE
  5
15B
330
17
100
AcDbEntity
  8
ROADS
100
AcDbPolyline
 90
2
 70
0
 10
633136.3435330071
 20
4837086.437402401
 10
633104.2545105233
 20
4837177.158540813
  0
LWPOLYLINE
  5
15C
330
17
100
AcDbEntity
  8
ROADS
100
AcDbPolyline
 90
2
 70
0
 10
632355.5155144187
 20
4837131.272280797
 10
632710.0244883328
 20
4837231.734585427
  0
LWPOLYLINE
  5
15D
330
17
100
AcDbEntity
  8
ROADS
100
AcDbPolyline
 90
2
 70
0
 10
632732.0463086657
 20
4837164.206504386
 10
632710.0244883328
 20
4837231.734585427
  0
LWPOLYLINE
  5
15E
330
17
100
AcDbEntity
  8
ROADS
100
AcDbPolyline
 90
2
 70
0
 10
632695.277260361
 20
4837276.753440919
 10
632472.5145858675
 20
4837213.284295176
  0
LWPOLYLINE
  5
15F
330
17
100
AcDbEntity
  8
ROADS
100
AcDbPolyline
 90
2
 70
0
 10
632710.0244883328
 20
4837231.734585427
 10
632695.277260361
 20
4837276.753440919
  0
LWPOLYLINE
  5
160
330
17
100
AcDbEntity
  8
ROADS
100
AcDbPolyline
 90
2
 70
0
 10
632830.6655509593
 20
4837195.148237761
 10
632775.4017355369
 20
4837359.582840243
  0
LWPOLYLINE
  5
161
330
17
100
AcDbEntity
  8
ROADS
100
AcDbPolyline
 90
2
 70
0
 10
632695.277260361
 20
4837276.753440919
 10
632690.5728772405
 20
4837290.966485102
  0
LWPOLYLINE
  5
162
330
17
100
AcDbEntity
  8
ROADS
100
AcDbPolyline
 90
2
 70
0
 10
632487.5097145512
 20
4837275.77630697
 10
632591.909993406
 20
4837306.017536152
  0
LWPOLYLINE
  5
163
330
17
100
AcDbEntity
  8
ROADS
100
AcDbPolyline
 90
2
 70
0
 10
632487.5097145512
 20
4837275.77630697
 10
632473.4988121828
 20
4837318.900298503
  0
LWPOLYLINE
  5
164
330
17
100
AcDbEntity
  8
ROADS
100
AcDbPolyline
 90
2
 70
0
 10
632690.5728772405
 20
4837290.966485102
 10
632752.5859679475
 20
4837308.871275288
  0
LWPOLYLINE
  5
165
330
17
100
AcDbEntity
  8
ROADS
100
AcDbPolyline
 90
2
 70
0
 10
632690.5728772405
 20
4837290.966485102
 10
632677.4511148998
 20
4837330.823324854
  0
LWPOLYLINE
  5
166
330
17
100
AcDbEntity
  8
ROADS
100
AcDbPolyline
 90
2
 70
0
 10
632171.132174057
 20
4837196.8671929985
 10
632178.5496448653
 20
4837233.509636096
  0
LWPOLYLINE
  5
167
330
17
100
AcDbEntity
  8
ROADS
100
AcDbPolyline
 90
2
 70
0
 10
632150.3858592837
 20
4837214.7694157865
 10
632178.5496448653
 20
4837233.509636096
  0
LWPOLYLINE
  5
168
330
17
100
AcDbEntity
  8
ROADS
100
AcDbPolyline
 90
2
 70
0
 10
632290.2523686939
 20
4837218.93091792
 10
632487.5097145512
 20
4837275.77630697
  0
LWPOLYLINE
  5
169
330
17
100
AcDbEntity
  8
ROADS
100
AcDbPolyline
 90
2
 70
0
 10
632290.2523686939
 20
4837218.93091792
 10
632296.8154827539
 20
4837315.231028949
  0
LWPOLYLINE
  5
16A
330
17
100
AcDbEntity
  8
ROADS
100
AcDbPolyline
 90
3
 70
0
 10
632178.5496448653
 20
4837233.509636096
 10
632235.4220665311
 20
4837247.691644924
 10
632244.0489829044
 20
4837307.955285779
  0
LWPOLYLINE
  5
16B
330
17
100
AcDbEntity
  8
ROADS
100
AcDbPolyline
 90
2
 70
0
 10
632178.5496448653
 20
4837233.509636096
 10
632193.7663326568
 20
4837314.634533062
  0
LWPOLYLINE
  5
16C
330
17
100
AcDbEntity
  8
ROADS
100
AcDbPolyline
 90
2
 70
0
 10
632473.4988121828
 20
4837318.900298503
 10
632351.1053664009
 20
4837283.2292844085
  0
LWPOLYLINE
  5
16D
330
17
100
AcDbEntity
  8
ROADS
100
AcDbPolyline
 90
2
 70
0
 10
632193.7663326568
 20
4837314.634533062
 10
632151.6693246483
 20
4837304.944544181
  0
LWPOLYLINE
  5
16E
330
17
100
AcDbEntity
  8
ROADS
100
AcDbPolyline
 90
2
 70
0
 10
632296.8154827539
 20
4837315.231028949
 10
632326.5571887618
 20
4837335.171725605
  0
LWPOLYLINE
  5
16F
330
17
100
AcDbEntity
  8
ROADS
100
AcDbPolyline
 90
2
 70
0
 10
632296.8154827539
 20
4837315.231028949
 10
632300.3910281976
 20
4837337.004366457
  0
LWPOLYLINE
  5
170
330
17
100
AcDbEntity
  8
ROADS
100
AcDbPolyline
 90
2
 70
0
 10
632591.909993406
 20
4837306.017536152
 10
632677.4511148998
 20
4837330.823324854
  0
LWPOLYLINE
  5
171
330
17
100
AcDbEntity
  8
ROADS
100
AcDbPolyline
 90
2
 70
0
 10
632473.4988121828
 20
4837318.900298503
 10
632460.2237094073
 20
4837359.107365644
  0
LWPOLYLINE
  5
172
330
17
100
AcDbEntity
  8
ROADS
100
AcDbPolyline
 90
2
 70
0
 10
632677.4511148998
 20
4837330.823324854
 10
632737.328929421
 20
4837348.291474882
  0
LWPOLYLINE
  5
173
330
17
100
AcDbEntity
  8
ROADS
100
AcDbPolyline
 90
2
 70
0
 10
632591.909993406
 20
4837306.017536152
 10
632568.6259489898
 20
4837386.712781716
  0
LWPOLYLINE
  5
174
330
17
100
AcDbEntity
  8
ROADS
100
AcDbPolyline
 90
2
 70
0
 10
632737.328929421
 20
4837348.291474882
 10
632775.4017355369
 20
4837359.582840243
  0
LWPOLYLINE
  5
175
330
17
100
AcDbEntity
  8
ROADS
100
AcDbPolyline
 90
2
 70
0
 10
632775.4017355369
 20
4837359.582840243
 10
632845.5147678223
 20
4837380.01532008
  0
LWPOLYLINE
  5
176
330
17
100
AcDbEntity
  8
ROADS
100
AcDbPolyline
 90
2
 70
0
 10
632460.2237094073
 20
4837359.107365644
 10
632568.6259489898
 20
4837386.712781716
  0
LWPOLYLINE
  5
177
330
17
100
AcDbEntity
  8
ROADS
100
AcDbPolyline
 90
2
 70
0
 10
632737.328929421
 20
4837348.291474882
 10
632719.0641130593
 20
4837430.819661407
  0
LWPOLYLINE
  5
178
330
17
100
AcDbEntity
  8
ROADS
100
AcDbPolyline
 90
2
 70
0
 10
632460.2237094073
 20
4837359.107365644
 10
632430.7977702395
 20
4837445.078918466
  0
LWPOLYLINE
  5
179
330
17
100
AcDbEntity
  8
ROADS
100
AcDbPolyline
 90
2
 70
0
 10
632568.6259489898
 20
4837386.712781716
 10
632719.0641130593
 20
4837430.819661407
  0
LWPOLYLINE
  5
17A
330
17
100
AcDbEntity
  8
ROADS
100
AcDbPolyline
 90
2
 70
0
 10
632193.7663326568
 20
4837314.634533062
 10
632200.5976997159
 20
4837355.1781827025
  0
LWPOLYLINE
  5
17B
330
17
100
AcDbEntity
  8
ROADS
100
AcDbPolyline
 90
2
 70
0
 10
632200.5976997159
 20
4837355.1781827025
 10
632300.3910281976
 20
4837337.004366457
  0
LWPOLYLINE
  5
17C
330
17
100
AcDbEntity
  8
ROADS
100
AcDbPolyline
 90
2
 70
0
 10
632326.5571887618
 20
4837335.171725605
 10
632348.7216527782
 20
4837358.134971801
  0
LWPOLYLINE
  5
17D
330
17
100
AcDbEntity
  8
ROADS
100
AcDbPolyline
 90
2
 70
0
 10
632326.5571887618
 20
4837335.171725605
 10
632305.1066326126
 20
4837365.719356306
  0
LWPOLYLINE
  5
17E
330
17
100
AcDbEntity
  8
ROADS
100
AcDbPolyline
 90
2
 70
0
 10
632300.3910281976
 20
4837337.004366457
 10
632305.1066326126
 20
4837365.719356306
  0
LWPOLYLINE
  5
17F
330
17
100
AcDbEntity
  8
ROADS
100
AcDbPolyline
 90
2
 70
0
 10
632348.7216527782
 20
4837358.134971801
 10
632460.2237094073
 20
4837359.107365644
  0
LWPOLYLINE
  5
180
330
17
100
AcDbEntity
  8
ROADS
100
AcDbPolyline
 90
2
 70
0
 10
632305.1066326126
 20
4837365.719356306
 10
632348.7216527782
 20
4837358.134971801
  0
LWPOLYLINE
  5
181
330
17
100
AcDbEntity
  8
ROADS
100
AcDbPolyline
 90
2
 70
0
 10
632200.5976997159
 20
4837355.1781827025
 10
632212.5069947634
 20
4837421.516644336
  0
LWPOLYLINE
  5
182
330
17
100
AcDbEntity
  8
ROADS
100
AcDbPolyline
 90
2
 70
0
 10
632160.1339833417
 20
4837407.580490361
 10
632212.5069947634
 20
4837421.516644336
  0
LWPOLYLINE
  5
183
330
17
100
AcDbEntity
  8
ROADS
100
AcDbPolyline
 90
2
 70
0
 10
632305.1066326126
 20
4837365.719356306
 10
632321.9199759853
 20
4837463.845476747
  0
LWPOLYLINE
  5
184
330
17
100
AcDbEntity
  8
ROADS
100
AcDbPolyline
 90
2
 70
0
 10
633061.5914901802
 20
4837167.57081796
 10
633104.2545105233
 20
4837177.158540813
  0
LWPOLYLINE
  5
185
330
17
100
AcDbEntity
  8
ROADS
100
AcDbPolyline
 90
2
 70
0
 10
633200.2641558739
 20
4837185.011778128
 10
633198.1717474461
 20
4837168.987662287
  0
LWPOLYLINE
  5
186
330
17
100
AcDbEntity
  8
ROADS
100
AcDbPolyline
 90
2
 70
0
 10
633116.0173328591
 20
4837180.87003946
 10
633104.2545105233
 20
4837177.158540813
  0
LWPOLYLINE
  5
187
330
17
100
AcDbEntity
  8
ROADS
100
AcDbPolyline
 90
2
 70
0
 10
633216.3473949139
 20
4837169.253347186
 10
633221.2179650101
 20
4837191.032160382
  0
LWPOLYLINE
  5
188
330
17
100
AcDbEntity
  8
ROADS
100
AcDbPolyline
 90
2
 70
0
 10
633221.2179650101
 20
4837191.032160382
 10
633235.3445780962
 20
4837179.502685865
  0
LWPOLYLINE
  5
189
330
17
100
AcDbEntity
  8
ROADS
100
AcDbPolyline
 90
2
 70
0
 10
633201.8364013964
 20
4837195.070011776
 10
633116.0173328591
 20
4837180.87003946
  0
LWPOLYLINE
  5
18A
330
17
100
AcDbEntity
  8
ROADS
100
AcDbPolyline
 90
2
 70
0
 10
633200.2641558739
 20
4837185.011778128
 10
633221.2179650101
 20
4837191.032160382
  0
LWPOLYLINE
  5
18B
330
17
100
AcDbEntity
  8
ROADS
100
AcDbPolyline
 90
3
 70
0
 10
633061.5914901802
 20
4837167.57081796
 10
633047.1766400475
 20
4837213.84183319
 10
632897.2669138303
 20
4837164.339139947
  0
LWPOLYLINE
  5
18C
330
17
100
AcDbEntity
  8
ROADS
100
AcDbPolyline
 90
2
 70
0
 10
633201.8364013964
 20
4837195.070011776
 10
633200.2641558739
 20
4837185.011778128
  0
LWPOLYLINE
  5
18D
330
17
100
AcDbEntity
  8
ROADS
100
AcDbPolyline
 90
2
 70
0
 10
633104.2545105233
 20
4837177.158540813
 10
633093.1304908078
 20
4837225.471731455
  0
LWPOLYLINE
  5
18E
330
17
100
AcDbEntity
  8
ROADS
100
AcDbPolyline
 90
2
 70
0
 10
633202.788562838
 20
4837212.374611405
 10
633221.2179650101
 20
4837191.032160382
  0
LWPOLYLINE
  5
18F
330
17
100
AcDbEntity
  8
ROADS
100
AcDbPolyline
 90
2
 70
0
 10
633116.0173328591
 20
4837180.87003946
 10
633093.1304908078
 20
4837225.471731455
  0
LWPOLYLINE
  5
190
330
17
100
AcDbEntity
  8
ROADS
100
AcDbPolyline
 90
2
 70
0
 10
633202.788562838
 20
4837212.374611405
 10
633201.8364013964
 20
4837195.070011776
  0
LWPOLYLINE
  5
191
330
17
100
AcDbEntity
  8
ROADS
100
AcDbPolyline
 90
2
 70
0
 10
632830.6655509593
 20
4837195.148237761
 10
633036.9739959534
 20
4837255.529649758
  0
LWPOLYLINE
  5
192
330
17
100
AcDbEntity
  8
ROADS
100
AcDbPolyline
 90
2
 70
0
 10
633093.1304908078
 20
4837225.471731455
 10
633141.5359056586
 20
4837242.0033546025
  0
LWPOLYLINE
  5
193
330
17
100
AcDbEntity
  8
ROADS
100
AcDbPolyline
 90
2
 70
0
 10
633188.8364808259
 20
4837257.387912157
 10
633202.788562838
 20
4837212.374611405
  0
LWPOLYLINE
  5
194
330
17
100
AcDbEntity
  8
ROADS
100
AcDbPolyline
 90
2
 70
0
 10
633093.1304908078
 20
4837225.471731455
 10
633076.3344226219
 20
4837266.960309105
  0
LWPOLYLINE
  5
195
330
17
100
AcDbEntity
  8
ROADS
100
AcDbPolyline
 90
2
 70
0
 10
633141.5359056586
 20
4837242.0033546025
 10
633188.8364808259
 20
4837257.387912157
  0
LWPOLYLINE
  5
196
330
17
100
AcDbEntity
  8
ROADS
100
AcDbPolyline
 90
2
 70
0
 10
633036.9739959534
 20
4837255.529649758
 10
633076.3344226219
 20
4837266.960309105
  0
LWPOLYLINE
  5
197
330
17
100
AcDbEntity
  8
ROADS
100
AcDbPolyline
 90
2
 70
0
 10
633188.8364808259
 20
4837257.387912157
 10
633234.0093558694
 20
4837272.968014485
  0
LWPOLYLINE
  5
198
330
17
100
AcDbEntity
  8
ROADS
100
AcDbPolyline
 90
2
 70
0
 10
633282.97487443
 20
4837288.916732787
 10
633235.3445780962
 20
4837179.502685865
  0
LWPOLYLINE
  5
199
330
17
100
AcDbEntity
  8
ROADS
100
AcDbPolyline
 90
2
 70
0
 10
633521.0526693673
 20
4837205.432143623
 10
633577.2920457538
 20
4837224.3720881855
  0
LWPOLYLINE
  5
19A
330
17
100
AcDbEntity
  8
ROADS
100
AcDbPolyline
 90
2
 70
0
 10
633521.0526693673
 20
4837205.432143623
 10
633494.5538601975
 20
4837287.867627875
  0
LWPOLYLINE
  5
19B
330
17
100
AcDbEntity
  8
ROADS
100
AcDbPolyline
 90
2
 70
0
 10
633304.3594711287
 20
4837224.608274912
 10
633454.2941353562
 20
4837274.566539888
  0
LWPOLYLINE
  5
19C
330
17
100
AcDbEntity
  8
ROADS
100
AcDbPolyline
 90
2
 70
0
 10
633304.3594711287
 20
4837224.608274912
 10
633282.97487443
 20
4837288.916732787
  0
LWPOLYLINE
  5
19D
330
17
100
AcDbEntity
  8
ROADS
100
AcDbPolyline
 90
2
 70
0
 10
633537.7962351146
 20
4837298.215415463
 10
633550.7687593368
 20
4837257.653716262
  0
LWPOLYLINE
  5
19E
330
17
100
AcDbEntity
  8
ROADS
100
AcDbPolyline
 90
2
 70
0
 10
633234.0093558694
 20
4837272.968014485
 10
633282.97487443
 20
4837288.916732787
  0
LWPOLYLINE
  5
19F
330
17
100
AcDbEntity
  8
ROADS
100
AcDbPolyline
 90
2
 70
0
 10
633454.2941353562
 20
4837274.566539888
 10
633494.5538601975
 20
4837287.867627875
  0
LWPOLYLINE
  5
1A0
330
17
100
AcDbEntity
  8
ROADS
100
AcDbPolyline
 90
2
 70
0
 10
633494.5538601975
 20
4837287.867627875
 10
633537.7962351146
 20
4837298.215415463
  0
LWPOLYLINE
  5
1A1
330
17
100
AcDbEntity
  8
ROADS
100
AcDbPolyline
 90
2
 70
0
 10
633454.2941353562
 20
4837274.566539888
 10
633437.5904468457
 20
4837323.526432491
  0
LWPOLYLINE
  5
1A2
330
17
100
AcDbEntity
  8
ROADS
100
AcDbPolyline
 90
3
 70
0
 10
633036.9739959534
 20
4837255.529649758
 10
633023.7447276933
 20
4837295.800620946
 10
632869.3893660218
 20
4837250.90486767
  0
LWPOLYLINE
  5
1A3
330
17
100
AcDbEntity
  8
ROADS
100
AcDbPolyline
 90
2
 70
0
 10
633141.5359056586
 20
4837242.0033546025
 10
633091.1815638486
 20
4837400.899441852
  0
LWPOLYLINE
  5
1A4
330
17
100
AcDbEntity
  8
ROADS
100
AcDbPolyline
 90
2
 70
0
 10
633076.3344226219
 20
4837266.960309105
 10
633039.0405173288
 20
4837386.930949016
  0
LWPOLYLINE
  5
1A5
330
17
100
AcDbEntity
  8
ROADS
100
AcDbPolyline
 90
2
 70
0
 10
633188.8364808259
 20
4837257.387912157
 10
633138.4349836472
 20
4837414.522026567
  0
LWPOLYLINE
  5
1A6
330
17
100
AcDbEntity
  8
ROADS
100
AcDbPolyline
 90
3
 70
0
 10
633234.0093558694
 20
4837272.968014485
 10
633184.2881025661
 20
4837428.3213069
 10
633138.4349836472
 20
4837414.522026567
  0
LWPOLYLINE
  5
1A7
330
17
100
AcDbEntity
  8
ROADS
100
AcDbPolyline
 90
2
 70
0
 10
633039.0405173288
 20
4837386.930949016
 10
632842.8949590279
 20
4837331.274104655
  0
LWPOLYLINE
  5
1A8
330
17
100
AcDbEntity
  8
ROADS
100
AcDbPolyline
 90
2
 70
0
 10
633039.0405173288
 20
4837386.930949016
 10
633091.1815638486
 20
4837400.899441852
  0
LWPOLYLINE
  5
1A9
330
17
100
AcDbEntity
  8
ROADS
100
AcDbPolyline
 90
2
 70
0
 10
632845.5147678223
 20
4837380.01532008
 10
632941.4485300408
 20
4837408.705386378
  0
LWPOLYLINE
  5
1AA
330
17
100
AcDbEntity
  8
ROADS
100
AcDbPolyline
 90
2
 70
0
 10
632845.5147678223
 20
4837380.01532008
 10
632833.6838029067
 20
4837421.657657657
  0
LWPOLYLINE
  5
1AB
330
17
100
AcDbEntity
  8
ROADS
100
AcDbPolyline
 90
2
 70
0
 10
633091.1815638486
 20
4837400.899441852
 10
633138.4349836472
 20
4837414.522026567
  0
LWPOLYLINE
  5
1AC
330
17
100
AcDbEntity
  8
ROADS
100
AcDbPolyline
 90
2
 70
0
 10
633282.97487443
 20
4837288.916732787
 10
633275.06358411
 20
4837313.727659871
  0
LWPOLYLINE
  5
1AD
330
17
100
AcDbEntity
  8
ROADS
100
AcDbPolyline
 90
2
 70
0
 10
633537.7962351146
 20
4837298.215415463
 10
633523.7969622981
 20
4837340.472681816
  0
LWPOLYLINE
  5
1AE
330
17
100
AcDbEntity
  8
ROADS
100
AcDbPolyline
 90
2
 70
0
 10
633275.06358411
 20
4837313.727659871
 10
633311.6228880329
 20
4837325.817733612
  0
LWPOLYLINE
  5
1AF
330
17
100
AcDbEntity
  8
ROADS
100
AcDbPolyline
 90
2
 70
0
 10
633537.7962351146
 20
4837298.215415463
 10
633586.5836679466
 20
4837313.415341839
  0
LWPOLYLINE
  5
1B0
330
17
100
AcDbEntity
  8
ROADS
100
AcDbPolyline
 90
2
 70
0
 10
633494.5538601975
 20
4837287.867627875
 10
633466.1559137674
 20
4837375.831202729
  0
LWPOLYLINE
  5
1B1
330
17
100
AcDbEntity
  8
ROADS
100
AcDbPolyline
 90
2
 70
0
 10
633311.6228880329
 20
4837325.817733612
 10
633355.5912526328
 20
4837340.038960139
  0
LWPOLYLINE
  5
1B2
330
17
100
AcDbEntity
  8
ROADS
100
AcDbPolyline
 90
2
 70
0
 10
633355.5912526328
 20
4837340.038960139
 10
633466.1559137674
 20
4837375.831202729
  0
LWPOLYLINE
  5
1B3
330
17
100
AcDbEntity
  8
ROADS
100
AcDbPolyline
 90
2
 70
0
 10
633523.7969622981
 20
4837340.472681816
 10
633510.1184015104
 20
4837382.691741154
  0
LWPOLYLINE
  5
1B4
330
17
100
AcDbEntity
  8
ROADS
100
AcDbPolyline
 90
2
 70
0
 10
633523.7969622981
 20
4837340.472681816
 10
633589.2551036357
 20
4837360.079522473
  0
LWPOLYLINE
  5
1B5
330
17
100
AcDbEntity
  8
ROADS
100
AcDbPolyline
 90
2
 70
0
 10
633275.06358411
 20
4837313.727659871
 10
633230.9463332857
 20
4837440.874050448
  0
LWPOLYLINE
  5
1B6
330
17
100
AcDbEntity
  8
ROADS
100
AcDbPolyline
 90
2
 70
0
 10
633510.1184015104
 20
4837382.691741154
 10
633588.42513469
 20
4837405.939722894
  0
LWPOLYLINE
  5
1B7
330
17
100
AcDbEntity
  8
ROADS
100
AcDbPolyline
 90
2
 70
0
 10
633466.1559137674
 20
4837375.831202729
 10
633510.1184015104
 20
4837382.691741154
  0
LWPOLYLINE
  5
1B8
330
17
100
AcDbEntity
  8
ROADS
100
AcDbPolyline
 90
3
 70
0
 10
633311.6228880329
 20
4837325.817733612
 10
633271.0522819387
 20
4837454.464392389
 10
633230.9463332857
 20
4837440.874050448
  0
LWPOLYLINE
  5
1B9
330
17
100
AcDbEntity
  8
ROADS
100
AcDbPolyline
 90
2
 70
0
 10
633510.1184015104
 20
4837382.691741154
 10
633496.5495525245
 20
4837424.705764536
  0
LWPOLYLINE
  5
1BA
330
17
100
AcDbEntity
  8
ROADS
100
AcDbPolyline
 90
2
 70
0
 10
633466.1559137674
 20
4837375.831202729
 10
633441.2223763956
 20
4837453.832608945
  0
LWPOLYLINE
  5
1BB
330
17
100
AcDbEntity
  8
ROADS
100
AcDbPolyline
 90
2
 70
0
 10
633355.5912526328
 20
4837340.038960139
 10
633300.9577240214
 20
4837513.13389027
  0
LWPOLYLINE
  5
1BC
330
17
100
AcDbEntity
  8
ROADS
100
AcDbPolyline
 90
2
 70
0
 10
633496.5495525245
 20
4837424.705764536
 10
633483.52715571
 20
4837466.641660071
  0
LWPOLYLINE
  5
1BD
330
17
100
AcDbEntity
  8
ROADS
100
AcDbPolyline
 90
2
 70
0
 10
633441.2223763956
 20
4837453.832608945
 10
633483.52715571
 20
4837466.641660071
  0
LWPOLYLINE
  5
1BE
330
17
100
AcDbEntity
  8
ROADS
100
AcDbPolyline
 90
2
 70
0
 10
633496.5495525245
 20
4837424.705764536
 10
633586.3650689009
 20
4837451.390318393
  0
LWPOLYLINE
  5
1BF
330
17
100
AcDbEntity
  8
ROADS
100
AcDbPolyline
 90
2
 70
0
 10
633483.52715571
 20
4837466.641660071
 10
633469.0643420578
 20
4837510.584666375
  0
LWPOLYLINE
  5
1C0
330
17
100
AcDbEntity
  8
ROADS
100
AcDbPolyline
 90
2
 70
0
 10
633441.2223763956
 20
4837453.832608945
 10
633412.5855933654
 20
4837544.217032281
  0
LWPOLYLINE
  5
1C1
330
17
100
AcDbEntity
  8
ROADS
100
AcDbPolyline
 90
2
 70
0
 10
633230.9463332857
 20
4837440.874050448
 10
633214.4820575493
 20
4837488.180099743
  0
LWPOLYLINE
  5
1C2
330
17
100
AcDbEntity
  8
ROADS
100
AcDbPolyline
 90
2
 70
0
 10
632930.510683365
 20
4837449.625828566
 10
632916.3100351066
 20
4837493.617507618
  0
LWPOLYLINE
  5
1C3
330
17
100
AcDbEntity
  8
ROADS
100
AcDbPolyline
 90
2
 70
0
 10
632984.5575410763
 20
4837465.630452022
 10
633032.1918871836
 20
4837479.091917521
  0
LWPOLYLINE
  5
1C4
330
17
100
AcDbEntity
  8
ROADS
100
AcDbPolyline
 90
2
 70
0
 10
633138.0964124261
 20
4837464.597894093
 10
633214.4820575493
 20
4837488.180099743
  0
LWPOLYLINE
  5
1C5
330
17
100
AcDbEntity
  8
ROADS
100
AcDbPolyline
 90
2
 70
0
 10
633138.0964124261
 20
4837464.597894093
 10
633126.2480011606
 20
4837504.991850342
  0
LWPOLYLINE
  5
1C6
330
17
100
AcDbEntity
  8
ROADS
100
AcDbPolyline
 90
2
 70
0
 10
633032.1918871836
 20
4837479.091917521
 10
633084.7553651907
 20
4837493.397590344
  0
LWPOLYLINE
  5
1C7
330
17
100
AcDbEntity
  8
ROADS
100
AcDbPolyline
 90
2
 70
0
 10
632984.5575410763
 20
4837465.630452022
 10
632972.0250845128
 20
4837508.15318824
  0
LWPOLYLINE
  5
1C8
330
17
100
AcDbEntity
  8
ROADS
100
AcDbPolyline
 90
2
 70
0
 10
633126.2480011606
 20
4837504.991850342
 10
633084.7553651907
 20
4837493.397590344
  0
LWPOLYLINE
  5
1C9
330
17
100
AcDbEntity
  8
ROADS
100
AcDbPolyline
 90
2
 70
0
 10
632972.0250845128
 20
4837508.15318824
 10
632916.3100351066
 20
4837493.617507618
  0
LWPOLYLINE
  5
1CA
330
17
100
AcDbEntity
  8
ROADS
100
AcDbPolyline
 90
2
 70
0
 10
633032.1918871836
 20
4837479.091917521
 10
633033.3875200141
 20
4837525.0844393065
  0
LWPOLYLINE
  5
1CB
330
17
100
AcDbEntity
  8
ROADS
100
AcDbPolyline
 90
2
 70
0
 10
632843.5087819096
 20
4837573.109262063
 10
632884.1771139773
 20
4837436.514921294
  0
LWPOLYLINE
  5
1CC
330
17
100
AcDbEntity
  8
ROADS
100
AcDbPolyline
 90
2
 70
0
 10
633126.2480011606
 20
4837504.991850342
 10
633164.1429538205
 20
4837516.000007056
  0
LWPOLYLINE
  5
1CD
330
17
100
AcDbEntity
  8
ROADS
100
AcDbPolyline
 90
2
 70
0
 10
633084.7553651907
 20
4837493.397590344
 10
633072.0850263163
 20
4837528.8622838715
  0
LWPOLYLINE
  5
1CE
330
17
100
AcDbEntity
  8
ROADS
100
AcDbPolyline
 90
2
 70
0
 10
633214.4820575493
 20
4837488.180099743
 10
633200.1886924915
 20
4837536.357472261
  0
LWPOLYLINE
  5
1CF
330
17
100
AcDbEntity
  8
ROADS
100
AcDbPolyline
 90
2
 70
0
 10
633033.3875200141
 20
4837525.0844393065
 10
632972.0250845128
 20
4837508.15318824
  0
LWPOLYLINE
  5
1D0
330
17
100
AcDbEntity
  8
ROADS
100
AcDbPolyline
 90
2
 70
0
 10
633033.3875200141
 20
4837525.0844393065
 10
633072.0850263163
 20
4837528.8622838715
  0
LWPOLYLINE
  5
1D1
330
17
100
AcDbEntity
  8
ROADS
100
AcDbPolyline
 90
3
 70
0
 10
633033.3875200141
 20
4837525.0844393065
 10
633065.845178866
 20
4837540.494368642
 10
633072.0850263163
 20
4837528.8622838715
  0
LWPOLYLINE
  5
1D2
330
17
100
AcDbEntity
  8
ROADS
100
AcDbPolyline
 90
2
 70
0
 10
632916.3100351066
 20
4837493.617507618
 10
632888.9612121704
 20
4837586.002235119
  0
LWPOLYLINE
  5
1D3
330
17
100
AcDbEntity
  8
ROADS
100
AcDbPolyline
 90
2
 70
0
 10
633200.1886924915
 20
4837536.357472261
 10
633250.066379078
 20
4837550.364567674
  0
LWPOLYLINE
  5
1D4
330
17
100
AcDbEntity
  8
ROADS
100
AcDbPolyline
 90
2
 70
0
 10
633200.1886924915
 20
4837536.357472261
 10
633190.1661201967
 20
4837570.297936569
  0
LWPOLYLINE
  5
1D5
330
17
100
AcDbEntity
  8
ROADS
100
AcDbPolyline
 90
2
 70
0
 10
633214.4820575493
 20
4837488.180099743
 10
633300.9577240214
 20
4837513.13389027
  0
LWPOLYLINE
  5
1D6
330
17
100
AcDbEntity
  8
ROADS
100
AcDbPolyline
 90
2
 70
0
 10
633483.52715571
 20
4837466.641660071
 10
633580.2516498535
 20
4837494.853045089
  0
LWPOLYLINE
  5
1D7
330
17
100
AcDbEntity
  8
ROADS
100
AcDbPolyline
 90
2
 70
0
 10
633300.9577240214
 20
4837513.13389027
 10
633312.9607088207
 20
4837516.9482540535
  0
LWPOLYLINE
  5
1D8
330
17
100
AcDbEntity
  8
ROADS
100
AcDbPolyline
 90
2
 70
0
 10
633469.0643420578
 20
4837510.584666375
 10
633572.2089322316
 20
4837541.719907172
  0
LWPOLYLINE
  5
1D9
330
17
100
AcDbEntity
  8
ROADS
100
AcDbPolyline
 90
2
 70
0
 10
633312.9607088207
 20
4837516.9482540535
 10
633412.5855933654
 20
4837544.217032281
  0
LWPOLYLINE
  5
1DA
330
17
100
AcDbEntity
  8
ROADS
100
AcDbPolyline
 90
2
 70
0
 10
633469.0643420578
 20
4837510.584666375
 10
633453.7880436031
 20
4837557.260178396
  0
LWPOLYLINE
  5
1DB
330
17
100
AcDbEntity
  8
ROADS
100
AcDbPolyline
 90
2
 70
0
 10
633312.9607088207
 20
4837516.9482540535
 10
633299.1166076038
 20
4837564.393705323
  0
LWPOLYLINE
  5
1DC
330
17
100
AcDbEntity
  8
ROADS
100
AcDbPolyline
 90
2
 70
0
 10
633412.5855933654
 20
4837544.217032281
 10
633453.7880436031
 20
4837557.260178396
  0
LWPOLYLINE
  5
1DD
330
17
100
AcDbEntity
  8
ROADS
100
AcDbPolyline
 90
2
 70
0
 10
633250.066379078
 20
4837550.364567674
 10
633299.1166076038
 20
4837564.393705323
  0
LWPOLYLINE
  5
1DE
330
17
100
AcDbEntity
  8
ROADS
100
AcDbPolyline
 90
2
 70
0
 10
633250.066379078
 20
4837550.364567674
 10
633241.3423902433
 20
4837580.3522038665
  0
LWPOLYLINE
  5
1DF
330
17
100
AcDbEntity
  8
ROADS
100
AcDbPolyline
 90
2
 70
0
 10
632972.0250845128
 20
4837508.15318824
 10
632944.399605298
 20
4837601.872032513
  0
LWPOLYLINE
  5
1E0
330
17
100
AcDbEntity
  8
ROADS
100
AcDbPolyline
 90
2
 70
0
 10
633033.3875200141
 20
4837525.0844393065
 10
632998.6337713598
 20
4837617.086005802
  0
LWPOLYLINE
  5
1E1
330
17
100
AcDbEntity
  8
ROADS
100
AcDbPolyline
 90
2
 70
0
 10
633190.1661201967
 20
4837570.297936569
 10
633241.3423902433
 20
4837580.3522038665
  0
LWPOLYLINE
  5
1E2
330
17
100
AcDbEntity
  8
ROADS
100
AcDbPolyline
 90
2
 70
0
 10
632843.5087819096
 20
4837573.109262063
 10
632888.9612121704
 20
4837586.002235119
  0
LWPOLYLINE
  5
1E3
330
17
100
AcDbEntity
  8
ROADS
100
AcDbPolyline
 90
2
 70
0
 10
633072.0850263163
 20
4837528.8622838715
 10
633045.1625093735
 20
4837630.852523771
  0
LWPOLYLINE
  5
1E4
330
17
100
AcDbEntity
  8
ROADS
100
AcDbPolyline
 90
2
 70
0
 10
632888.9612121704
 20
4837586.002235119
 10
632944.399605298
 20
4837601.872032513
  0
LWPOLYLINE
  5
1E5
330
17
100
AcDbEntity
  8
ROADS
100
AcDbPolyline
 90
2
 70
0
 10
633126.2480011606
 20
4837504.991850342
 10
633073.4730412065
 20
4837683.258658148
  0
LWPOLYLINE
  5
1E6
330
17
100
AcDbEntity
  8
ROADS
100
AcDbPolyline
 90
2
 70
0
 10
632944.399605298
 20
4837601.872032513
 10
632998.6337713598
 20
4837617.086005802
  0
LWPOLYLINE
  5
1E7
330
17
100
AcDbEntity
  8
ROADS
100
AcDbPolyline
 90
2
 70
0
 10
632998.6337713598
 20
4837617.086005802
 10
633045.1625093735
 20
4837630.852523771
  0
LWPOLYLINE
  5
1E8
330
17
100
AcDbEntity
  8
ROADS
100
AcDbPolyline
 90
2
 70
0
 10
633190.1661201967
 20
4837570.297936569
 10
633150.9240685372
 20
4837706.325134947
  0
LWPOLYLINE
  5
1E9
330
17
100
AcDbEntity
  8
ROADS
100
AcDbPolyline
 90
2
 70
0
 10
633412.5855933654
 20
4837544.217032281
 10
633398.5300188636
 20
4837593.456816735
  0
LWPOLYLINE
  5
1EA
330
17
100
AcDbEntity
  8
ROADS
100
AcDbPolyline
 90
2
 70
0
 10
633453.7880436031
 20
4837557.260178396
 10
633556.8169624388
 20
4837586.258677444
  0
LWPOLYLINE
  5
1EB
330
17
100
AcDbEntity
  8
ROADS
100
AcDbPolyline
 90
2
 70
0
 10
633299.1166076038
 20
4837564.393705323
 10
633290.3042539251
 20
4837594.732775743
  0
LWPOLYLINE
  5
1EC
330
17
100
AcDbEntity
  8
ROADS
100
AcDbPolyline
 90
2
 70
0
 10
633241.3423902433
 20
4837580.3522038665
 10
633290.3042539251
 20
4837594.732775743
  0
LWPOLYLINE
  5
1ED
330
17
100
AcDbEntity
  8
ROADS
100
AcDbPolyline
 90
3
 70
0
 10
633398.5300188636
 20
4837593.456816735
 10
633347.534261414
 20
4837579.060458769
 10
633341.1839392792
 20
4837608.7450039005
  0
LWPOLYLINE
  5
1EE
330
17
100
AcDbEntity
  8
ROADS
100
AcDbPolyline
 90
2
 70
0
 10
633556.8169624388
 20
4837586.258677444
 10
633561.0921259237
 20
4837587.502728079
  0
LWPOLYLINE
  5
1EF
330
17
100
AcDbEntity
  8
ROADS
100
AcDbPolyline
 90
2
 70
0
 10
633290.3042539251
 20
4837594.732775743
 10
633341.1839392792
 20
4837608.7450039005
  0
LWPOLYLINE
  5
1F0
330
17
100
AcDbEntity
  8
ROADS
100
AcDbPolyline
 90
2
 70
0
 10
633398.5300188636
 20
4837593.456816735
 10
633388.2486477288
 20
4837627.052591718
  0
LWPOLYLINE
  5
1F1
330
17
100
AcDbEntity
  8
ROADS
100
AcDbPolyline
 90
2
 70
0
 10
633388.2486477288
 20
4837627.052591718
 10
633484.3601015096
 20
4837656.708064001
  0
LWPOLYLINE
  5
1F2
330
17
100
AcDbEntity
  8
ROADS
100
AcDbPolyline
 90
2
 70
0
 10
633388.2486477288
 20
4837627.052591718
 10
633364.4981319963
 20
4837710.584800568
  0
LWPOLYLINE
  5
1F3
330
17
100
AcDbEntity
  8
ROADS
100
AcDbPolyline
 90
2
 70
0
 10
633039.0405173288
 20
4837386.930949016
 10
633027.5033723384
 20
4837432.427429539
  0
LWPOLYLINE
  5
1F4
330
17
100
AcDbEntity
  8
ROADS
100
AcDbPolyline
 90
2
 70
0
 10
632941.4485300408
 20
4837408.705386378
 10
633027.5033723384
 20
4837432.427429539
  0
LWPOLYLINE
  5
1F5
330
17
100
AcDbEntity
  8
ROADS
100
AcDbPolyline
 90
2
 70
0
 10
632833.6838029067
 20
4837421.657657657
 10
632884.1771139773
 20
4837436.514921294
  0
LWPOLYLINE
  5
1F6
330
17
100
AcDbEntity
  8
ROADS
100
AcDbPolyline
 90
2
 70
0
 10
632941.4485300408
 20
4837408.705386378
 10
632930.510683365
 20
4837449.625828566
  0
LWPOLYLINE
  5
1F7
330
17
100
AcDbEntity
  8
ROADS
100
AcDbPolyline
 90
2
 70
0
 10
633138.4349836472
 20
4837414.522026567
 10
633122.8533624262
 20
4837460.164893055
  0
LWPOLYLINE
  5
1F8
330
17
100
AcDbEntity
  8
ROADS
100
AcDbPolyline
 90
2
 70
0
 10
632884.1771139773
 20
4837436.514921294
 10
632930.510683365
 20
4837449.625828566
  0
LWPOLYLINE
  5
1F9
330
17
100
AcDbEntity
  8
ROADS
100
AcDbPolyline
 90
2
 70
0
 10
633027.5033723384
 20
4837432.427429539
 10
633122.8533624262
 20
4837460.164893055
  0
LWPOLYLINE
  5
1FA
330
17
100
AcDbEntity
  8
ROADS
100
AcDbPolyline
 90
2
 70
0
 10
633027.5033723384
 20
4837432.427429539
 10
633032.1918871836
 20
4837479.091917521
  0
LWPOLYLINE
  5
1FB
330
17
100
AcDbEntity
  8
ROADS
100
AcDbPolyline
 90
2
 70
0
 10
632930.510683365
 20
4837449.625828566
 10
632984.5575410763
 20
4837465.630452022
  0
LWPOLYLINE
  5
1FC
330
17
100
AcDbEntity
  8
ROADS
100
AcDbPolyline
 90
2
 70
0
 10
633122.8533624262
 20
4837460.164893055
 10
633138.0964124261
 20
4837464.597894093
  0
LWPOLYLINE
  5
1FD
330
17
100
AcDbEntity
  8
ROADS
100
AcDbPolyline
 90
2
 70
0
 10
632568.6259489898
 20
4837386.712781716
 10
632551.8214951153
 20
4837443.734345395
  0
LWPOLYLINE
  5
1FE
330
17
100
AcDbEntity
  8
ROADS
100
AcDbPolyline
 90
3
 70
0
 10
632833.6838029067
 20
4837421.657657657
 10
632783.1707687025
 20
4837407.283079662
 10
632768.8143579761
 20
4837456.017296977
  0
LWPOLYLINE
  5
1FF
330
17
100
AcDbEntity
  8
ROADS
100
AcDbPolyline
 90
2
 70
0
 10
632719.0641130593
 20
4837430.819661407
 10
632723.6341360589
 20
4837442.672232944
  0
LWPOLYLINE
  5
200
330
17
100
AcDbEntity
  8
ROADS
100
AcDbPolyline
 90
2
 70
0
 10
632723.6341360589
 20
4837442.672232944
 10
632768.8143579761
 20
4837456.017296977
  0
LWPOLYLINE
  5
201
330
17
100
AcDbEntity
  8
ROADS
100
AcDbPolyline
 90
3
 70
0
 10
632517.0840642434
 20
4837462.299616507
 10
632530.5429299359
 20
4837441.351369179
 10
632551.8214951153
 20
4837443.734345395
  0
LWPOLYLINE
  5
202
330
17
100
AcDbEntity
  8
ROADS
100
AcDbPolyline
 90
2
 70
0
 10
632430.7977702395
 20
4837445.078918466
 10
632517.0840642434
 20
4837462.299616507
  0
LWPOLYLINE
  5
203
330
17
100
AcDbEntity
  8
ROADS
100
AcDbPolyline
 90
2
 70
0
 10
632551.8214951153
 20
4837443.734345395
 10
632607.6268590358
 20
4837489.30005969
  0
LWPOLYLINE
  5
204
330
17
100
AcDbEntity
  8
ROADS
100
AcDbPolyline
 90
2
 70
0
 10
632723.6341360589
 20
4837442.672232944
 10
632704.0318066255
 20
4837516.097510522
  0
LWPOLYLINE
  5
205
330
17
100
AcDbEntity
  8
ROADS
100
AcDbPolyline
 90
2
 70
0
 10
632607.6268590358
 20
4837489.30005969
 10
632704.0318066255
 20
4837516.097510522
  0
LWPOLYLINE
  5
206
330
17
100
AcDbEntity
  8
ROADS
100
AcDbPolyline
 90
3
 70
0
 10
632680.4805495257
 20
4837595.251816452
 10
632723.0669674465
 20
4837607.412900323
 10
632768.8143579761
 20
4837456.017296977
  0
LWPOLYLINE
  5
207
330
17
100
AcDbEntity
  8
ROADS
100
AcDbPolyline
 90
2
 70
0
 10
632370.3694047092
 20
4837455.899999766
 10
632361.6969330201
 20
4837406.230327928
  0
LWPOLYLINE
  5
208
330
17
100
AcDbEntity
  8
ROADS
100
AcDbPolyline
 90
2
 70
0
 10
632212.5069947634
 20
4837421.516644336
 10
632217.2271896362
 20
4837447.793023383
  0
LWPOLYLINE
  5
209
330
17
100
AcDbEntity
  8
ROADS
100
AcDbPolyline
 90
2
 70
0
 10
632217.2271896362
 20
4837447.793023383
 10
632151.8841520571
 20
4837452.383743815
  0
LWPOLYLINE
  5
20A
330
17
100
AcDbEntity
  8
ROADS
100
AcDbPolyline
 90
2
 70
0
 10
632370.3694047092
 20
4837455.899999766
 10
632430.7977702395
 20
4837445.078918466
  0
LWPOLYLINE
  5
20B
330
17
100
AcDbEntity
  8
ROADS
100
AcDbPolyline
 90
2
 70
0
 10
632321.9199759853
 20
4837463.845476747
 10
632370.3694047092
 20
4837455.899999766
  0
LWPOLYLINE
  5
20C
330
17
100
AcDbEntity
  8
ROADS
100
AcDbPolyline
 90
2
 70
0
 10
632217.2271896362
 20
4837447.793023383
 10
632222.317990566
 20
4837480.562604781
  0
LWPOLYLINE
  5
20D
330
17
100
AcDbEntity
  8
ROADS
100
AcDbPolyline
 90
2
 70
0
 10
632222.317990566
 20
4837480.562604781
 10
632321.9199759853
 20
4837463.845476747
  0
LWPOLYLINE
  5
20E
330
17
100
AcDbEntity
  8
ROADS
100
AcDbPolyline
 90
2
 70
0
 10
632222.317990566
 20
4837480.562604781
 10
632224.0643150853
 20
4837506.874209668
  0
LWPOLYLINE
  5
20F
330
17
100
AcDbEntity
  8
ROADS
100
AcDbPolyline
 90
2
 70
0
 10
632224.0643150853
 20
4837506.874209668
 10
632146.8987139066
 20
4837498.727145543
  0
LWPOLYLINE
  5
210
330
17
100
AcDbEntity
  8
ROADS
100
AcDbPolyline
 90
2
 70
0
 10
632224.0643150853
 20
4837506.874209668
 10
632239.5058250511
 20
4837604.180942925
  0
LWPOLYLINE
  5
211
330
17
100
AcDbEntity
  8
ROADS
100
AcDbPolyline
 90
2
 70
0
 10
632072.4505697535
 20
4837559.579505805
 10
632239.5058250511
 20
4837604.180942925
  0
LWPOLYLINE
  5
212
330
17
100
AcDbEntity
  8
ROADS
100
AcDbPolyline
 90
2
 70
0
 10
632321.9199759853
 20
4837463.845476747
 10
632371.6942691391
 20
4837754.520073468
  0
LWPOLYLINE
  5
213
330
17
100
AcDbEntity
  8
ROADS
100
AcDbPolyline
 90
2
 70
0
 10
632239.5058250511
 20
4837604.180942925
 10
632260.8441212673
 20
4837707.992826072
  0
LWPOLYLINE
  5
214
330
17
100
AcDbEntity
  8
ROADS
100
AcDbPolyline
 90
3
 70
0
 10
632260.8441212673
 20
4837707.992826072
 10
632105.2830729845
 20
4837669.179641059
 10
632061.2868159777
 20
4837772.577913756
  0
LWPOLYLINE
  5
215
330
17
100
AcDbEntity
  8
ROADS
100
AcDbPolyline
 90
2
 70
0
 10
632330.4388041005
 20
4837783.676245854
 10
632310.4897268077
 20
4837679.527432996
  0
LWPOLYLINE
  5
216
330
17
100
AcDbEntity
  8
ROADS
100
AcDbPolyline
 90
2
 70
0
 10
632260.8441212673
 20
4837707.992826072
 10
632276.8860341214
 20
4837782.2736620745
  0
LWPOLYLINE
  5
217
330
17
100
AcDbEntity
  8
ROADS
100
AcDbPolyline
 90
2
 70
0
 10
632371.6942691391
 20
4837754.520073468
 10
632453.3454619868
 20
4837773.66017414
  0
LWPOLYLINE
  5
218
330
17
100
AcDbEntity
  8
ROADS
100
AcDbPolyline
 90
2
 70
0
 10
632371.6942691391
 20
4837754.520073468
 10
632377.4710400268
 20
4837785.080909429
  0
LWPOLYLINE
  5
219
330
17
100
AcDbEntity
  8
ROADS
100
AcDbPolyline
 90
2
 70
0
 10
632061.2868159777
 20
4837772.577913756
 10
632276.8860341214
 20
4837782.2736620745
  0
LWPOLYLINE
  5
21A
330
17
100
AcDbEntity
  8
ROADS
100
AcDbPolyline
 90
2
 70
0
 10
632276.8860341214
 20
4837782.2736620745
 10
632330.4388041005
 20
4837783.676245854
  0
LWPOLYLINE
  5
21B
330
17
100
AcDbEntity
  8
ROADS
100
AcDbPolyline
 90
4
 70
0
 10
632517.0840642434
 20
4837462.299616507
 10
632506.2197874688
 20
4837503.023320263
 10
632522.0939953745
 20
4837594.598513462
 10
632581.1955659938
 20
4837622.470477325
  0
LWPOLYLINE
  5
21C
330
17
100
AcDbEntity
  8
ROADS
100
AcDbPolyline
 90
2
 70
0
 10
632704.0318066255
 20
4837516.097510522
 10
632680.4805495257
 20
4837595.251816452
  0
LWPOLYLINE
  5
21D
330
17
100
AcDbEntity
  8
ROADS
100
AcDbPolyline
 90
2
 70
0
 10
632607.6268590358
 20
4837489.30005969
 10
632581.1955659938
 20
4837622.470477325
  0
LWPOLYLINE
  5
21E
330
17
100
AcDbEntity
  8
ROADS
100
AcDbPolyline
 90
2
 70
0
 10
632430.7977702395
 20
4837445.078918466
 10
632459.8092696978
 20
4837673.501288801
  0
LWPOLYLINE
  5
21F
330
17
100
AcDbEntity
  8
ROADS
100
AcDbPolyline
 90
2
 70
0
 10
632833.6838029067
 20
4837421.657657657
 10
632708.0594591345
 20
4837848.413402925
  0
LWPOLYLINE
  5
220
330
17
100
AcDbEntity
  8
ROADS
100
AcDbPolyline
 90
2
 70
0
 10
632680.4805495257
 20
4837595.251816452
 10
632641.8866521239
 20
4837724.972032993
  0
LWPOLYLINE
  5
221
330
17
100
AcDbEntity
  8
ROADS
100
AcDbPolyline
 90
2
 70
0
 10
632581.1955659938
 20
4837622.470477325
 10
632558.230345154
 20
4837700.297241652
  0
LWPOLYLINE
  5
222
330
17
100
AcDbEntity
  8
ROADS
100
AcDbPolyline
 90
2
 70
0
 10
632459.8092696978
 20
4837673.501288801
 10
632558.230345154
 20
4837700.297241652
  0
LWPOLYLINE
  5
223
330
17
100
AcDbEntity
  8
ROADS
100
AcDbPolyline
 90
2
 70
0
 10
632843.5087819096
 20
4837573.109262063
 10
632774.1461878563
 20
4837809.84252808
  0
LWPOLYLINE
  5
224
330
17
100
AcDbEntity
  8
ROADS
100
AcDbPolyline
 90
2
 70
0
 10
632558.230345154
 20
4837700.297241652
 10
632641.8866521239
 20
4837724.972032993
  0
LWPOLYLINE
  5
225
330
17
100
AcDbEntity
  8
ROADS
100
AcDbPolyline
 90
2
 70
0
 10
633241.3423902433
 20
4837580.3522038665
 10
633203.6266454584
 20
4837710.009515203
  0
LWPOLYLINE
  5
226
330
17
100
AcDbEntity
  8
ROADS
100
AcDbPolyline
 90
2
 70
0
 10
633073.4730412065
 20
4837683.258658148
 10
633150.9240685372
 20
4837706.325134947
  0
LWPOLYLINE
  5
227
330
17
100
AcDbEntity
  8
ROADS
100
AcDbPolyline
 90
2
 70
0
 10
632944.399605298
 20
4837601.872032513
 10
632874.5127624535
 20
4837839.056919092
  0
LWPOLYLINE
  5
228
330
17
100
AcDbEntity
  8
ROADS
100
AcDbPolyline
 90
2
 70
0
 10
633150.9240685372
 20
4837706.325134947
 10
633142.7421986706
 20
4837735.478495784
  0
LWPOLYLINE
  5
229
330
17
100
AcDbEntity
  8
ROADS
100
AcDbPolyline
 90
2
 70
0
 10
632888.9612121704
 20
4837586.002235119
 10
632804.9977283175
 20
4837876.356699953
  0
LWPOLYLINE
  5
22A
330
17
100
AcDbEntity
  8
ROADS
100
AcDbPolyline
 90
2
 70
0
 10
633142.7421986706
 20
4837735.478495784
 10
633241.0936958275
 20
4837763.699373789
  0
LWPOLYLINE
  5
22B
330
17
100
AcDbEntity
  8
ROADS
100
AcDbPolyline
 90
2
 70
0
 10
633045.1625093735
 20
4837630.852523771
 10
632974.4123976498
 20
4837869.871009363
  0
LWPOLYLINE
  5
22C
330
17
100
AcDbEntity
  8
ROADS
100
AcDbPolyline
 90
2
 70
0
 10
632998.6337713598
 20
4837617.086005802
 10
632913.5641416971
 20
4837908.159610828
  0
LWPOLYLINE
  5
22D
330
17
100
AcDbEntity
  8
ROADS
100
AcDbPolyline
 90
2
 70
0
 10
633073.4730412065
 20
4837683.258658148
 10
633000.993260657
 20
4837934.24782187
  0
LWPOLYLINE
  5
22E
330
17
100
AcDbEntity
  8
ROADS
100
AcDbPolyline
 90
2
 70
0
 10
633241.0936958275
 20
4837763.699373789
 10
633203.3272974779
 20
4837895.876950898
  0
LWPOLYLINE
  5
22F
330
17
100
AcDbEntity
  8
ROADS
100
AcDbPolyline
 90
3
 70
0
 10
632459.8092696978
 20
4837673.501288801
 10
632468.1096846415
 20
4837726.156486215
 10
632453.3454619868
 20
4837773.66017414
  0
LWPOLYLINE
  5
230
330
17
100
AcDbEntity
  8
ROADS
100
AcDbPolyline
 90
2
 70
0
 10
632641.8866521239
 20
4837724.972032993
 10
632613.98567876
 20
4837820.843953967
  0
LWPOLYLINE
  5
231
330
17
100
AcDbEntity
  8
ROADS
100
AcDbPolyline
 90
2
 70
0
 10
632453.3454619868
 20
4837773.66017414
 10
632613.98567876
 20
4837820.843953967
  0
LWPOLYLINE
  5
232
330
17
100
AcDbEntity
  8
ROADS
100
AcDbPolyline
 90
2
 70
0
 10
632613.98567876
 20
4837820.843953967
 10
632708.0594591345
 20
4837848.413402925
  0
LWPOLYLINE
  5
233
330
17
100
AcDbEntity
  8
ROADS
100
AcDbPolyline
 90
3
 70
0
 10
632421.9268887317
 20
4837867.117235015
 10
632435.3988796322
 20
4837819.566182253
 10
632537.5479200133
 20
4837849.696855118
  0
LWPOLYLINE
  5
234
330
17
100
AcDbEntity
  8
ROADS
100
AcDbPolyline
 90
2
 70
0
 10
632708.0594591345
 20
4837848.413402925
 10
632804.9977283175
 20
4837876.356699953
  0
LWPOLYLINE
  5
235
330
17
100
AcDbEntity
  8
ROADS
100
AcDbPolyline
 90
2
 70
0
 10
632613.98567876
 20
4837820.843953967
 10
632586.495650838
 20
4837913.678054213
  0
LWPOLYLINE
  5
236
330
17
100
AcDbEntity
  8
ROADS
100
AcDbPolyline
 90
2
 70
0
 10
632421.9268887317
 20
4837867.117235015
 10
632586.495650838
 20
4837913.678054213
  0
LWPOLYLINE
  5
237
330
17
100
AcDbEntity
  8
ROADS
100
AcDbPolyline
 90
2
 70
0
 10
632804.9977283175
 20
4837876.356699953
 10
632777.8467455308
 20
4837969.35399338
  0
LWPOLYLINE
  5
238
330
17
100
AcDbEntity
  8
ROADS
100
AcDbPolyline
 90
2
 70
0
 10
632586.495650838
 20
4837913.678054213
 10
632777.8467455308
 20
4837969.35399338
  0
LWPOLYLINE
  5
239
330
17
100
AcDbEntity
  8
ROADS
100
AcDbPolyline
 90
2
 70
0
 10
633142.7421986706
 20
4837735.478495784
 10
633079.0172574845
 20
4837955.989608879
  0
LWPOLYLINE
  5
23A
330
17
100
AcDbEntity
  8
ROADS
100
AcDbPolyline
 90
2
 70
0
 10
632804.9977283175
 20
4837876.356699953
 10
632913.5641416971
 20
4837908.159610828
  0
LWPOLYLINE
  5
23B
330
17
100
AcDbEntity
  8
ROADS
100
AcDbPolyline
 90
2
 70
0
 10
633203.3272974779
 20
4837895.876950898
 10
633189.1119222244
 20
4837945.710848132
  0
LWPOLYLINE
  5
23C
330
17
100
AcDbEntity
  8
ROADS
100
AcDbPolyline
 90
2
 70
0
 10
632913.5641416971
 20
4837908.159610828
 10
633000.993260657
 20
4837934.24782187
  0
LWPOLYLINE
  5
23D
330
17
100
AcDbEntity
  8
ROADS
100
AcDbPolyline
 90
2
 70
0
 10
633000.993260657
 20
4837934.24782187
 10
633079.0172574845
 20
4837955.989608879
  0
LWPOLYLINE
  5
23E
330
17
100
AcDbEntity
  8
ROADS
100
AcDbPolyline
 90
2
 70
0
 10
632913.5641416971
 20
4837908.159610828
 10
632886.650715366
 20
4838001.126225822
  0
LWPOLYLINE
  5
23F
330
17
100
AcDbEntity
  8
ROADS
100
AcDbPolyline
 90
2
 70
0
 10
632777.8467455308
 20
4837969.35399338
 10
632886.650715366
 20
4838001.126225822
  0
LWPOLYLINE
  5
240
330
17
100
AcDbEntity
  8
ROADS
100
AcDbPolyline
 90
2
 70
0
 10
633079.0172574845
 20
4837955.989608879
 10
633276.1706826302
 20
4838015.392883883
  0
LWPOLYLINE
  5
241
330
17
100
AcDbEntity
  8
ROADS
100
AcDbPolyline
 90
2
 70
0
 10
633079.0172574845
 20
4837955.989608879
 10
633051.4106134702
 20
4838050.29083524
  0
LWPOLYLINE
  5
242
330
17
100
AcDbEntity
  8
ROADS
100
AcDbPolyline
 90
2
 70
0
 10
632886.650715366
 20
4838001.126225822
 10
633051.4106134702
 20
4838050.29083524
  0
LWPOLYLINE
  5
243
330
17
100
AcDbEntity
  8
ROADS
100
AcDbPolyline
 90
2
 70
0
 10
632586.495650838
 20
4837913.678054213
 10
632557.502367883
 20
4838011.384332968
  0
LWPOLYLINE
  5
244
330
17
100
AcDbEntity
  8
ROADS
100
AcDbPolyline
 90
2
 70
0
 10
632408.6008105185
 20
4837968.309081847
 10
632557.502367883
 20
4838011.384332968
  0
LWPOLYLINE
  5
245
330
17
100
AcDbEntity
  8
ROADS
100
AcDbPolyline
 90
2
 70
0
 10
632777.8467455308
 20
4837969.35399338
 10
632749.2851283369
 20
4838066.747105694
  0
LWPOLYLINE
  5
246
330
17
100
AcDbEntity
  8
ROADS
100
AcDbPolyline
 90
2
 70
0
 10
632557.502367883
 20
4838011.384332968
 10
632749.2851283369
 20
4838066.747105694
  0
LWPOLYLINE
  5
247
330
17
100
AcDbEntity
  8
ROADS
100
AcDbPolyline
 90
2
 70
0
 10
632557.502367883
 20
4838011.384332968
 10
632529.4589916233
 20
4838107.826676346
  0
LWPOLYLINE
  5
248
330
17
100
AcDbEntity
  8
ROADS
100
AcDbPolyline
 90
2
 70
0
 10
632749.2851283369
 20
4838066.747105694
 10
632857.8076274341
 20
4838098.377265544
  0
LWPOLYLINE
  5
249
330
17
100
AcDbEntity
  8
ROADS
100
AcDbPolyline
 90
2
 70
0
 10
632428.2823755224
 20
4838080.442725146
 10
632529.4589916233
 20
4838107.826676346
  0
LWPOLYLINE
  5
24A
330
17
100
AcDbEntity
  8
ROADS
100
AcDbPolyline
 90
2
 70
0
 10
632749.2851283369
 20
4838066.747105694
 10
632719.3959810222
 20
4838164.3282074295
  0
LWPOLYLINE
  5
24B
330
17
100
AcDbEntity
  8
ROADS
100
AcDbPolyline
 90
2
 70
0
 10
632529.4589916233
 20
4838107.826676346
 10
632621.9507285594
 20
4838135.665608401
  0
LWPOLYLINE
  5
24C
330
17
100
AcDbEntity
  8
ROADS
100
AcDbPolyline
 90
2
 70
0
 10
632621.9507285594
 20
4838135.665608401
 10
632719.3959810222
 20
4838164.3282074295
  0
LWPOLYLINE
  5
24D
330
17
100
AcDbEntity
  8
ROADS
100
AcDbPolyline
 90
2
 70
0
 10
632330.4388041005
 20
4837783.676245854
 10
632377.4710400268
 20
4837785.080909429
  0
LWPOLYLINE
  5
24E
330
17
100
AcDbEntity
  8
ROADS
100
AcDbPolyline
 90
2
 70
0
 10
632330.4388041005
 20
4837783.676245854
 10
632338.2297457879
 20
4837829.88471394
  0
LWPOLYLINE
  5
24F
330
17
100
AcDbEntity
  8
ROADS
100
AcDbPolyline
 90
2
 70
0
 10
632377.4710400268
 20
4837785.080909429
 10
632396.1804652504
 20
4837860.505438281
  0
LWPOLYLINE
  5
250
330
17
100
AcDbEntity
  8
ROADS
100
AcDbPolyline
 90
2
 70
0
 10
632396.1804652504
 20
4837860.505438281
 10
632421.9268887317
 20
4837867.117235015
  0
LWPOLYLINE
  5
251
330
17
100
AcDbEntity
  8
ROADS
100
AcDbPolyline
 90
2
 70
0
 10
632396.1804652504
 20
4837860.505438281
 10
632408.6008105185
 20
4837968.309081847
  0
LWPOLYLINE
  5
252
330
17
100
AcDbEntity
  8
ROADS
100
AcDbPolyline
 90
2
 70
0
 10
632408.6008105185
 20
4837968.309081847
 10
632426.3765499366
 20
4838069.587415265
  0
LWPOLYLINE
  5
253
330
17
100
AcDbEntity
  8
ROADS
100
AcDbPolyline
 90
2
 70
0
 10
632426.3765499366
 20
4838069.587415265
 10
632428.2823755224
 20
4838080.442725146
  0
LWPOLYLINE
  5
254
330
17
100
AcDbEntity
  8
ROADS
100
AcDbPolyline
 90
7
 70
0
 10
632170.89979515
 20
4838260.29267934
 10
632204.4227723494
 20
4838249.378133882
 10
632272.8272546147
 20
4838142.763065885
 10
632270.1609910314
 20
4838069.724211489
 10
632212.3570389566
 20
4838036.299233758
 10
632198.7219309384
 20
4838056.208170488
 10
632209.7049707749
 20
4838117.51752003
  0
LWPOLYLINE
  5
255
330
17
100
AcDbEntity
  8
ROADS
100
AcDbPolyline
 90
4
 70
0
 10
632332.8951943893
 20
4838268.363386716
 10
632374.3953423518
 20
4838202.631619756
 10
632379.3992656992
 20
4838104.623528056
 10
632426.3765499366
 20
4838069.587415265
  0
LWPOLYLINE
  5
256
330
17
100
AcDbEntity
  8
ROADS
100
AcDbPolyline
 90
4
 70
0
 10
632428.2823755224
 20
4838080.442725146
 10
632385.4451683967
 20
4838111.179378894
 10
632369.0928524456
 20
4838230.0608440675
 10
632339.7216313778
 20
4838268.142129888
  0
LWPOLYLINE
  5
257
330
17
100
AcDbEntity
  8
ROADS
100
AcDbPolyline
 90
2
 70
0
 10
633341.1839392792
 20
4837608.7450039005
 10
633303.2765646398
 20
4837737.826839285
  0
LWPOLYLINE
  5
258
330
17
100
AcDbEntity
  8
ROADS
100
AcDbPolyline
 90
2
 70
0
 10
633290.3042539251
 20
4837594.732775743
 10
633241.0936958275
 20
4837763.699373789
  0
LWPOLYLINE
  5
259
330
17
100
AcDbEntity
  8
ROADS
100
AcDbPolyline
 90
2
 70
0
 10
633364.4981319963
 20
4837710.584800568
 10
633430.4384372716
 20
4837730.159857887
  0
LWPOLYLINE
  5
25A
330
17
100
AcDbEntity
  8
ROADS
100
AcDbPolyline
 90
2
 70
0
 10
633430.4384372716
 20
4837730.159857887
 10
633461.4018441646
 20
4837739.067527745
  0
LWPOLYLINE
  5
25B
330
17
100
AcDbEntity
  8
ROADS
100
AcDbPolyline
 90
2
 70
0
 10
633556.8169624388
 20
4837586.258677444
 10
633507.7559933953
 20
4837757.204415753
  0
LWPOLYLINE
  5
25C
330
17
100
AcDbEntity
  8
ROADS
100
AcDbPolyline
 90
2
 70
0
 10
633364.4981319963
 20
4837710.584800568
 10
633308.6630116403
 20
4837903.768558961
  0
LWPOLYLINE
  5
25D
330
17
100
AcDbEntity
  8
ROADS
100
AcDbPolyline
 90
2
 70
0
 10
633430.4384372716
 20
4837730.159857887
 10
633374.5431000342
 20
4837923.243554221
  0
LWPOLYLINE
  5
25E
330
17
100
AcDbEntity
  8
ROADS
100
AcDbPolyline
 90
2
 70
0
 10
633203.3272974779
 20
4837895.876950898
 10
633304.1446053485
 20
4837922.018307972
  0
LWPOLYLINE
  5
25F
330
17
100
AcDbEntity
  8
ROADS
100
AcDbPolyline
 90
2
 70
0
 10
633308.6630116403
 20
4837903.768558961
 10
633304.1446053485
 20
4837922.018307972
  0
LWPOLYLINE
  5
260
330
17
100
AcDbEntity
  8
ROADS
100
AcDbPolyline
 90
2
 70
0
 10
633308.6630116403
 20
4837903.768558961
 10
633374.5431000342
 20
4837923.243554221
  0
LWPOLYLINE
  5
261
330
17
100
AcDbEntity
  8
ROADS
100
AcDbPolyline
 90
2
 70
0
 10
633374.5431000342
 20
4837923.243554221
 10
633407.8920497753
 20
4837932.9982198775
  0
LWPOLYLINE
  5
262
330
17
100
AcDbEntity
  8
ROADS
100
AcDbPolyline
 90
2
 70
0
 10
633304.1446053485
 20
4837922.018307972
 10
633276.1706826302
 20
4838015.392883883
  0
LWPOLYLINE
  5
263
330
17
100
AcDbEntity
  8
ROADS
100
AcDbPolyline
 90
2
 70
0
 10
633374.5431000342
 20
4837923.243554221
 10
633351.5444280774
 20
4838000.931047792
  0
LWPOLYLINE
  5
264
330
17
100
AcDbEntity
  8
ROADS
100
AcDbPolyline
 90
2
 70
0
 10
633276.1706826302
 20
4838015.392883883
 10
633262.2526402939
 20
4838059.0156671805
  0
LWPOLYLINE
  5
265
330
17
100
AcDbEntity
  8
ROADS
100
AcDbPolyline
 90
2
 70
0
 10
633262.2526402939
 20
4838059.0156671805
 10
633284.8007556251
 20
4838065.422081663
  0
LWPOLYLINE
  5
266
330
17
100
AcDbEntity
  8
ROADS
100
AcDbPolyline
 90
2
 70
0
 10
633262.2526402939
 20
4838059.0156671805
 10
633252.5958319443
 20
4838090.549353602
  0
LWPOLYLINE
  5
267
330
17
100
AcDbEntity
  8
ROADS
100
AcDbPolyline
 90
2
 70
0
 10
632886.650715366
 20
4838001.126225822
 10
632857.8076274341
 20
4838098.377265544
  0
LWPOLYLINE
  5
268
330
17
100
AcDbEntity
  8
ROADS
100
AcDbPolyline
 90
3
 70
0
 10
633201.8838614182
 20
4838094.787738848
 10
633215.7910278713
 20
4838047.066440505
 10
633118.8529638639
 20
4838018.553020086
  0
LWPOLYLINE
  5
269
330
17
100
AcDbEntity
  8
ROADS
100
AcDbPolyline
 90
2
 70
0
 10
633051.4106134702
 20
4838050.29083524
 10
633201.8838614182
 20
4838094.787738848
  0
LWPOLYLINE
  5
26A
330
17
100
AcDbEntity
  8
ROADS
100
AcDbPolyline
 90
2
 70
0
 10
633051.4106134702
 20
4838050.29083524
 10
633024.8229009958
 20
4838137.410904428
  0
LWPOLYLINE
  5
26B
330
17
100
AcDbEntity
  8
ROADS
100
AcDbPolyline
 90
2
 70
0
 10
633201.8838614182
 20
4838094.787738848
 10
633234.7299520185
 20
4838104.105472423
  0
LWPOLYLINE
  5
26C
330
17
100
AcDbEntity
  8
ROADS
100
AcDbPolyline
 90
2
 70
0
 10
633201.8838614182
 20
4838094.787738848
 10
633190.0873249726
 20
4838133.906337573
  0
LWPOLYLINE
  5
26D
330
17
100
AcDbEntity
  8
ROADS
100
AcDbPolyline
 90
2
 70
0
 10
633183.4323771525
 20
4838137.999280622
 10
633088.2528440431
 20
4838110.543930644
  0
LWPOLYLINE
  5
26E
330
17
100
AcDbEntity
  8
ROADS
100
AcDbPolyline
 90
3
 70
0
 10
633135.2621177016
 20
4838160.831122324
 10
633143.8420172525
 20
4838129.965833969
 10
633179.4407045388
 20
4838140.4542493345
  0
LWPOLYLINE
  5
26F
330
17
100
AcDbEntity
  8
ROADS
100
AcDbPolyline
 90
2
 70
0
 10
632857.8076274341
 20
4838098.377265544
 10
632830.2926779034
 20
4838196.067343914
  0
LWPOLYLINE
  5
270
330
17
100
AcDbEntity
  8
ROADS
100
AcDbPolyline
 90
2
 70
0
 10
633141.0326930947
 20
4838162.695309304
 10
633135.2621177016
 20
4838160.831122324
  0
LWPOLYLINE
  5
271
330
17
100
AcDbEntity
  8
ROADS
100
AcDbPolyline
 90
3
 70
0
 10
633024.8229009958
 20
4838137.410904428
 10
632948.8195253932
 20
4838118.077812957
 10
632916.0137673425
 20
4838220.87563185
  0
LWPOLYLINE
  5
272
330
17
100
AcDbEntity
  8
ROADS
100
AcDbPolyline
 90
2
 70
0
 10
633024.8229009958
 20
4838137.410904428
 10
633001.1134644144
 20
4838220.812224165
  0
LWPOLYLINE
  5
273
330
17
100
AcDbEntity
  8
ROADS
100
AcDbPolyline
 90
2
 70
0
 10
632830.2926779034
 20
4838196.067343914
 10
632916.0137673425
 20
4838220.87563185
  0
LWPOLYLINE
  5
274
330
17
100
AcDbEntity
  8
ROADS
100
AcDbPolyline
 90
2
 70
0
 10
633133.6574037758
 20
4838166.291636971
 10
633135.2621177016
 20
4838160.831122324
  0
LWPOLYLINE
  5
275
330
17
100
AcDbEntity
  8
ROADS
100
AcDbPolyline
 90
2
 70
0
 10
632916.0137673425
 20
4838220.87563185
 10
632956.1542783488
 20
4838232.690326537
  0
LWPOLYLINE
  5
276
330
17
100
AcDbEntity
  8
ROADS
100
AcDbPolyline
 90
2
 70
0
 10
632428.2823755224
 20
4838080.442725146
 10
632455.5185754229
 20
4838222.982375302
  0
LWPOLYLINE
  5
277
330
17
100
AcDbEntity
  8
ROADS
100
AcDbPolyline
 90
2
 70
0
 10
632719.3959810222
 20
4838164.3282074295
 10
632830.2926779034
 20
4838196.067343914
  0
LWPOLYLINE
  5
278
330
17
100
AcDbEntity
  8
ROADS
100
AcDbPolyline
 90
2
 70
0
 10
632621.9507285594
 20
4838135.665608401
 10
632595.6923222624
 20
4838225.037690995
  0
LWPOLYLINE
  5
279
330
17
100
AcDbEntity
  8
ROADS
100
AcDbPolyline
 90
2
 70
0
 10
632455.5185754229
 20
4838222.982375302
 10
632575.9994023922
 20
4838220.580180728
  0
LWPOLYLINE
  5
27A
330
17
100
AcDbEntity
  8
ROADS
100
AcDbPolyline
 90
2
 70
0
 10
632575.9994023922
 20
4838220.580180728
 10
632595.6923222624
 20
4838225.037690995
  0
LWPOLYLINE
  5
27B
330
17
100
AcDbEntity
  8
ROADS
100
AcDbPolyline
 90
2
 70
0
 10
632455.5185754229
 20
4838222.982375302
 10
632462.5255467267
 20
4838251.93218559
  0
LWPOLYLINE
  5
27C
330
17
100
AcDbEntity
  8
ROADS
100
AcDbPolyline
 90
2
 70
0
 10
632830.2926779034
 20
4838196.067343914
 10
632813.6256704795
 20
4838253.986013272
  0
LWPOLYLINE
  5
27D
330
17
100
AcDbEntity
  8
ROADS
100
AcDbPolyline
 90
2
 70
0
 10
632595.6923222624
 20
4838225.037690995
 10
632672.6149234578
 20
4838249.9146042075
  0
LWPOLYLINE
  5
27E
330
17
100
AcDbEntity
  8
ROADS
100
AcDbPolyline
 90
2
 70
0
 10
632170.89979515
 20
4838260.29267934
 10
632150.9101391672
 20
4838200.473554753
  0
LWPOLYLINE
  5
27F
330
17
100
AcDbEntity
  8
ROADS
100
AcDbPolyline
 90
2
 70
0
 10
632429.7610759122
 20
4838247.725450389
 10
632430.66112308
 20
4838257.112424365
  0
LWPOLYLINE
  5
280
330
17
100
AcDbEntity
  8
ROADS
100
AcDbPolyline
 90
2
 70
0
 10
632315.4675183438
 20
4838268.635322951
 10
632299.9925239682
 20
4838264.506766945
  0
LWPOLYLINE
  5
281
330
17
100
AcDbEntity
  8
ROADS
100
AcDbPolyline
 90
2
 70
0
 10
632171.0226160084
 20
4838260.903702366
 10
632170.89979515
 20
4838260.29267934
  0
LWPOLYLINE
  5
282
330
17
100
AcDbEntity
  8
ROADS
100
AcDbPolyline
 90
2
 70
0
 10
632170.89979515
 20
4838260.29267934
 10
632170.964190072
 20
4838260.893161632
  0
LWPOLYLINE
  5
283
330
17
100
AcDbEntity
  8
ROADS
100
AcDbPolyline
 90
2
 70
0
 10
632575.9994023922
 20
4838220.580180728
 10
632579.2336083326
 20
4838233.119885141
  0
ENDSEC
  0
SECTION
  2
OBJECTS
  0
DICTIONARY
  5
A
330
0
100
AcDbDictionary
281
1
  3
ACAD_COLOR
350
B
  3
ACAD_GROUP
350
C
  3
ACAD_LAYOUT
350
D
  3
ACAD_MATERIAL
350
E
  3
ACAD_MLEADERSTYLE
350
F
  3
ACAD_MLINESTYLE
350
10
  3
ACAD_PLOTSETTINGS
350
11
  3
ACAD_PLOTSTYLENAME
350
12
  3
ACAD_SCALELIST
350
14
  3
ACAD_TABLESTYLE
350
15
  3
ACAD_VISUALSTYLE
350
16
  3
EZDXF_META
350
2D
  0
DICTIONARY
  5
B
330
A
100
AcDbDictionary
281
1
  0
DICTIONARY
  5
C
330
A
100
AcDbDictionary
281
1
  0
DICTIONARY
  5
D
330
A
100
AcDbDictionary
281
1
  3
Model
350
1A
  3
Layout1
350
1E
  0
DICTIONARY
  5
E
330
A
100
AcDbDictionary
281
1
  3
ByBlock
350
1F
  3
ByLayer
350
20
  3
Global
350
21
  0
DICTIONARY
  5
F
330
A
100
AcDbDictionary
281
1
  3
Standard
350
2C
  0
DICTIONARY
  5
10
330
A
100
AcDbDictionary
281
1
  3
Standard
350
22
  0
DICTIONARY
  5
11
330
A
100
AcDbDictionary
281
1
  0
ACDBDICTIONARYWDFLT
  5
12
330
A
100
AcDbDictionary
281
1
  3
Normal
350
13
100
AcDbDictionaryWithDefault
340
13
  0
ACDBPLACEHOLDER
  5
13
330
12
  0
DICTIONARY
  5
14
330
A
100
AcDbDictionary
281
1
  0
DICTIONARY
  5
15
330
A
100
AcDbDictionary
281
1
  0
DICTIONARY
  5
16
330
A
100
AcDbDictionary
281
1
  0
LAYOUT
  5
1A
330
D
100
AcDbPlotSettings
  1

  4
A3
  6

 40
7.5
 41
20.0
 42
7.5
 43
20.0
 44
420.0
 45
297.0
 46
0.0
 47
0.0
 48
0.0
 49
0.0
140
0.0
141
0.0
142
1.0
143
1.0
 70
1024
 72
1
 73
0
 74
5
  7

 75
16
 76
0
 77
2
 78
300
147
1.0
148
0.0
149
0.0
100
AcDbLayout
  1
Model
 70
1
 71
0
 10
0.0
 20
0.0
 11
420.0
 21
297.0
 12
0.0
 22
0.0
 32
0.0
 14
1e+20
 24
1e+20
 34
1e+20
 15
-1e+20
 25
-1e+20
 35
-1e+20
146
0.0
 13
0.0
 23
0.0
 33
0.0
 16
1.0
 26
0.0
 36
0.0
 17
0.0
 27
1.0
 37
0.0
 76
1
330
17
  0
LAYOUT
  5
1E
330
D
100
AcDbPlotSettings
  1

  4
A3
  6

 40
7.5
 41
20.0
 42
7.5
 43
20.0
 44
420.0
 45
297.0
 46
0.0
 47
0.0
 48
0.0
 49
0.0
140
0.0
141
0.0
142
1.0
143
1.0
 70
0
 72
1
 73
0
 74
5
  7

 75
16
 76
0
 77
2
 78
300
147
1.0
148
0.0
149
0.0
100
AcDbLayout
  1
Layout1
 70
1
 71
1
 10
0.0
 20
0.0
 11
420.0
 21
297.0
 12
0.0
 22
0.0
 32
0.0
 14
1e+20
 24
1e+20
 34
1e+20
 15
-1e+20
 25
-1e+20
 35
-1e+20
146
0.0
 13
0.0
 23
0.0
 33
0.0
 16
1.0
 26
0.0
 36
0.0
 17
0.0
 27
1.0
 37
0.0
 76
1
330
1B
  0
MATERIAL
  5
1F
102
{ACAD_REACTORS
330
E
102
}
330
E
100
AcDbMaterial
  1
ByBlock
  2

 70
0
 40
1.0
 71
1
 41
1.0
 91
-1023410177
 42
1.0
 72
1
  3

 73
1
 74
1
 75
1
 44
0.5
 73
0
 45
1.0
 46
1.0
 77
1
  4

 78
1
 79
1
170
1
 48
1.0
171
1
  6

172
1
173
1
174
1
140
1.0
141
1.0
175
1
  7

176
1
177
1
178
1
143
1.0
179
1
  8

270
1
271
1
272
1
145
1.0
146
1.0
273
1
  9

274
1
275
1
276
1
 42
1.0
 72
1
  3

 73
1
 74
1
 75
1
 94
63
  0
MATERIAL
  5
20
102
{ACAD_REACTORS
330
E
102
}
330
E
100
AcDbMaterial
  1
ByLayer
  2

 70
0
 40
1.0
 71
1
 41
1.0
 91
-1023410177
 42
1.0
 72
1
  3

 73
1
 74
1
 75
1
 44
0.5
 73
0
 45
1.0
 46
1.0
 77
1
  4

 78
1
 79
1
170
1
 48
1.0
171
1
  6

172
1
173
1
174
1
140
1.0
141
1.0
175
1
  7

176
1
177
1
178
1
143
1.0
179
1
  8

270
1
271
1
272
1
145
1.0
146
1.0
273
1
  9

274
1
275
1
276
1
 42
1.0
 72
1
  3

 73
1
 74
1
 75
1
 94
63
  0
MATERIAL
  5
21
102
{ACAD_REACTORS
330
E
102
}
330
E
100
AcDbMaterial
  1
Global
  2

 70
0
 40
1.0
 71
1
 41
1.0
 91
-1023410177
 42
1.0
 72
1
  3

 73
1
 74
1
 75
1
 44
0.5
 73
0
 45
1.0
 46
1.0
 77
1
  4

 78
1
 79
1
170
1
 48
1.0
171
1
  6

172
1
173
1
174
1
140
1.0
141
1.0
175
1
  7

176
1
177
1
178
1
143
1.0
179
1
  8

270
1
271
1
272
1
145
1.0
146
1.0
273
1
  9

274
1
275
1
276
1
 42
1.0
 72
1
  3

 73
1
 74
1
 75
1
 94
63
  0
MLINESTYLE
  5
22
102
{ACAD_REACTORS
330
10
102
}
330
10
100
AcDbMlineStyle
  2
Standard
 70
0
  3

 62
256
 51
90.0
 52
90.0
 71
2
 49
0.5
 62
256
  6
BYLAYER
 49
-0.5
 62
256
  6
BYLAYER
  0
MLEADERSTYLE
  5
2C
102
{ACAD_REACTORS
330
F
102
}
330
F
100
AcDbMLeaderStyle
179
2
170
2
171
1
172
0
 90
2
 40
0.0
 41
0.0
173
1
 91
-1056964608
 92
-2
290
1
 42
2.0
291
1
 43
8.0
  3
Standard
 44
4.0
300

342
29
174
1
175
1
176
0
178
1
 93
-1056964608
 45
4.0
292
0
297
0
 46
4.0
 94
-1056964608
 47
1.0
 49
1.0
140
1.0
294
1
141
0.0
177
0
142
1.0
295
0
296
0
143
3.75
271
0
272
9
273
9
  0
DICTIONARY
  5
2D
330
A
100
AcDbDictionary
280
1
281
1
  3
CREATED_BY_EZDXF
350
2E
  3
WRITTEN_BY_EZDXF
350
286
  0
DICTIONARYVAR
  5
2E
330
2D
100
DictionaryVariables
280
0
  1
1.4.4 @ 2026-07-07T06:19:16.217499+00:00
  0
DICTIONARYVAR
  5
286
330
2D
100
DictionaryVariables
280
0
  1
1.4.4 @ 2026-07-07T06:19:16.238681+00:00
  0
ENDSEC
  0
EOF
