  0
SECTION
  2
HEADER
  9
$ACADVER
  1
AC1015
  9
$ACADMAINTVER
 70
6
  9
$DWGCODEPAGE
  3
ANSI_1252
  9
$INSBASE
 10
0.0
 20
0.0
 30
0.0
  9
$EXTMIN
 10
1e+20
 20
1e+20
 30
1e+20
  9
$EXTMAX
 10
-1e+20
 20
-1e+20
 30
-1e+20
  9
$LIMMIN
 10
0.0
 20
0.0
  9
$LIMMAX
 10
420.0
 20
297.0
  9
$ORTHOMODE
 70
0
  9
$REGENMODE
 70
1
  9
$FILLMODE
 70
1
  9
$QTEXTMODE
 70
0
  9
$MIRRTEXT
 70
1
  9
$LTSCALE
 40
1.0
  9
$ATTMODE
 70
1
  9
$TEXTSIZE
 40
2.5
  9
$TRACEWID
 40
1.0
  9
$TEXTSTYLE
  7
Standard
  9
$CLAYER
  8
0
  9
$CELTYPE
  6
ByLayer
  9
$CECOLOR
 62
256
  9
$CELTSCALE
 40
1.0
  9
$DISPSILH
 70
0
  9
$DIMSCALE
 40
1.0
  9
$DIMASZ
 40
2.5
  9
$DIMEXO
 40
0.625
  9
$DIMDLI
 40
3.75
  9
$DIMRND
 40
0.0
  9
$DIMDLE
 40
0.0
  9
$DIMEXE
 40
1.25
  9
$DIMTP
 40
0.0
  9
$DIMTM
 40
0.0
  9
$DIMTXT
 40
2.5
  9
$DIMCEN
 40
2.5
  9
$DIMTSZ
 40
0.0
  9
$DIMTOL
 70
0
  9
$DIMLIM
 70
0
  9
$DIMTIH
 70
0
  9
$DIMTOH
 70
0
  9
$DIMSE1
 70
0
  9
$DIMSE2
 70
0
  9
$DIMTAD
 70
1
  9
$DIMZIN
 70
8
  9
$DIMBLK
  1

  9
$DIMASO
 70
1
  9
$DIMSHO
 70
1
  9
$DIMPOST
  1

  9
$DIMAPOST
  1

  9
$DIMALT
 70
0
  9
$DIMALTD
 70
3
  9
$DIMALTF
 40
0.03937007874
  9
$DIMLFAC
 40
1.0
  9
$DIMTOFL
 70
1
  9
$DIMTVP
 40
0.0
  9
$DIMTIX
 70
0
  9
$DIMSOXD
 70
0
  9
$DIMSAH
 70
0
  9
$DIMBLK1
  1

  9
$DIMBLK2
  1

  9
$DIMSTYLE
  2
ISO-25
  9
$DIMCLRD
 70
0
  9
$DIMCLRE
 70
0
  9
$DIMCLRT
 70
0
  9
$DIMTFAC
 40
1.0
  9
$DIMGAP
 40
0.625
  9
$DIMJUST
 70
0
  9
$DIMSD1
 70
0
  9
$DIMSD2
 70
0
  9
$DIMTOLJ
 70
0
  9
$DIMTZIN
 70
8
  9
$DIMALTZ
 70
0
  9
$DIMALTTZ
 70
0
  9
$DIMUPT
 70
0
  9
$DIMDEC
 70
2
  9
$DIMTDEC
 70
2
  9
$DIMALTU
 70
2
  9
$DIMALTTD
 70
3
  9
$DIMTXSTY
  7
Standard
  9
$DIMAUNIT
 70
0
  9
$DIMADEC
 70
0
  9
$DIMALTRND
 40
0.0
  9
$DIMAZIN
 70
0
  9
$DIMDSEP
 70
44
  9
$DIMATFIT
 70
3
  9
$DIMFRAC
 70
0
  9
$DIMLDRBLK
  1

  9
$DIMLUNIT
 70
2
  9
$DIMLWD
 70
-2
  9
$DIMLWE
 70
-2
  9
$DIMTMOVE
 70
0
  9
$LUNITS
 70
2
  9
$LUPREC
 70
4
  9
$SKETCHINC
 40
1.0
  9
$FILLETRAD
 40
10.0
  9
$AUNITS
 70
0
  9
$AUPREC
 70
2
  9
$MENU
  1
.
  9
$ELEVATION
 40
0.0
  9
$PELEVATION
 40
0.0
  9
$THICKNESS
 40
0.0
  9
$LIMCHECK
 70
0
  9
$CHAMFERA
 40
0.0
  9
$CHAMFERB
 40
0.0
  9
$CHAMFERC
 40
0.0
  9
$CHAMFERD
 40
0.0
  9
$SKPOLY
 70
0
  9
$TDCREATE
 40
2461229.6010069447
  9
$TDUCREATE
 40
2458532.153996898
  9
$TDUPDATE
 40
2461229.6010069447
  9
$TDUUPDATE
 40
2458532.1544311
  9
$TDINDWG
 40
0.0
  9
$TDUSRTIMER
 40
0.0
  9
$USRTIMER
 70
1
  9
$ANGBASE
 50
0.0
  9
$ANGDIR
 70
0
  9
$PDMODE
 70
0
  9
$PDSIZE
 40
0.0
  9
$PLINEWID
 40
0.0
  9
$SPLFRAME
 70
0
  9
$SPLINETYPE
 70
6
  9
$SPLINESEGS
 70
8
  9
$HANDSEED
  5
3A2
  9
$SURFTAB1
 70
6
  9
$SURFTAB2
 70
6
  9
$SURFTYPE
 70
6
  9
$SURFU
 70
6
  9
$SURFV
 70
6
  9
$UCSBASE
  2

  9
$UCSNAME
  2

  9
$UCSORG
 10
0.0
 20
0.0
 30
0.0
  9
$UCSXDIR
 10
1.0
 20
0.0
 30
0.0
  9
$UCSYDIR
 10
0.0
 20
1.0
 30
0.0
  9
$UCSORTHOREF
  2

  9
$UCSORTHOVIEW
 70
0
  9
$UCSORGTOP
 10
0.0
 20
0.0
 30
0.0
  9
$UCSORGBOTTOM
 10
0.0
 20
0.0
 30
0.0
  9
$UCSORGLEFT
 10
0.0
 20
0.0
 30
0.0
  9
$UCSORGRIGHT
 10
0.0
 20
0.0
 30
0.0
  9
$UCSORGFRONT
 10
0.0
 20
0.0
 30
0.0
  9
$UCSORGBACK
 10
0.0
 20
0.0
 30
0.0
  9
$PUCSBASE
  2

  9
$PUCSNAME
  2

  9
$PUCSORG
 10
0.0
 20
0.0
 30
0.0
  9
$PUCSXDIR
 10
1.0
 20
0.0
 30
0.0
  9
$PUCSYDIR
 10
0.0
 20
1.0
 30
0.0
  9
$PUCSORTHOREF
  2

  9
$PUCSORTHOVIEW
 70
0
  9
$PUCSORGTOP
 10
0.0
 20
0.0
 30
0.0
  9
$PUCSORGBOTTOM
 10
0.0
 20
0.0
 30
0.0
  9
$PUCSORGLEFT
 10
0.0
 20
0.0
 30
0.0
  9
$PUCSORGRIGHT
 10
0.0
 20
0.0
 30
0.0
  9
$PUCSORGFRONT
 10
0.0
 20
0.0
 30
0.0
  9
$PUCSORGBACK
 10
0.0
 20
0.0
 30
0.0
  9
$USERI1
 70
0
  9
$USERI2
 70
0
  9
$USERI3
 70
0
  9
$USERI4
 70
0
  9
$USERI5
 70
0
  9
$USERR1
 40
0.0
  9
$USERR2
 40
0.0
  9
$USERR3
 40
0.0
  9
$USERR4
 40
0.0
  9
$USERR5
 40
0.0
  9
$WORLDVIEW
 70
1
  9
$SHADEDGE
 70
3
  9
$SHADEDIF
 70
70
  9
$TILEMODE
 70
1
  9
$MAXACTVP
 70
64
  9
$PINSBASE
 10
0.0
 20
0.0
 30
0.0
  9
$PLIMCHECK
 70
0
  9
$PEXTMIN
 10
1e+20
 20
1e+20
 30
1e+20
  9
$PEXTMAX
 10
-1e+20
 20
-1e+20
 30
-1e+20
  9
$PLIMMIN
 10
0.0
 20
0.0
  9
$PLIMMAX
 10
420.0
 20
297.0
  9
$UNITMODE
 70
0
  9
$VISRETAIN
 70
1
  9
$PLINEGEN
 70
0
  9
$PSLTSCALE
 70
1
  9
$TREEDEPTH
 70
3020
  9
$CMLSTYLE
  2
Standard
  9
$CMLJUST
 70
0
  9
$CMLSCALE
 40
20.0
  9
$PROXYGRAPHICS
 70
1
  9
$MEASUREMENT
 70
1
  9
$CELWEIGHT
370
-1
  9
$ENDCAPS
280
0
  9
$JOINSTYLE
280
0
  9
$LWDISPLAY
290
0
  9
$INSUNITS
 70
6
  9
$HYPERLINKBASE
  1

  9
$STYLESHEET
  1

  9
$XEDIT
290
1
  9
$CEPSNTYPE
380
0
  9
$PSTYLEMODE
290
1
  9
$FINGERPRINTGUID
  2
{1A0F4477-3A4C-4447-A344-9C79B7925D8D}
  9
$VERSIONGUID
  2
{E62A670A-B39C-4003-9B5F-36EA8DE10500}
  9
$EXTNAMES
290
1
  9
$PSVPSCALE
 40
0.0
  9
$OLESTARTUP
290
0
  0
ENDSEC
  0
SECTION
  2
CLASSES
  0
CLASS
  1
ACDBDICTIONARYWDFLT
  2
AcDbDictionaryWithDefault
  3
ObjectDBX Classes
 90
0
280
0
281
0
  0
CLASS
  1
SUN
  2
AcDbSun
  3
SCENEOE
 90
1153
280
0
281
0
  0
CLASS
  1
VISUALSTYLE
  2
AcDbVisualStyle
  3
ObjectDBX Classes
 90
4095
280
0
281
0
  0
CLASS
  1
MATERIAL
  2
AcDbMaterial
  3
ObjectDBX Classes
 90
1153
280
0
281
0
  0
CLASS
  1
SCALE
  2
AcDbScale
  3
ObjectDBX Classes
 90
1153
280
0
281
0
  0
CLASS
  1
TABLESTYLE
  2
AcDbTableStyle
  3
ObjectDBX Classes
 90
4095
280
0
281
0
  0
CLASS
  1
MLEADERSTYLE
  2
AcDbMLeaderStyle
  3
ACDB_MLEADERSTYLE_CLASS
 90
4095
280
0
281
0
  0
CLASS
  1
DICTIONARYVAR
  2
AcDbDictionaryVar
  3
ObjectDBX Classes
 90
0
280
0
281
0
  0
CLASS
  1
CELLSTYLEMAP
  2
AcDbCellStyleMap
  3
ObjectDBX Classes
 90
1152
280
0
281
0
  0
CLASS
  1
MENTALRAYRENDERSETTINGS
  2
AcDbMentalRayRenderSettings
  3
SCENEOE
 90
1024
280
0
281
0
  0
CLASS
  1
ACDBDETAILVIEWSTYLE
  2
AcDbDetailViewStyle
  3
ObjectDBX Classes
 90
1025
280
0
281
0
  0
CLASS
  1
ACDBSECTIONVIEWSTYLE
  2
AcDbSectionViewStyle
  3
ObjectDBX Classes
 90
1025
280
0
281
0
  0
CLASS
  1
RASTERVARIABLES
  2
AcDbRasterVariables
  3
ISM
 90
0
280
0
281
0
  0
CLASS
  1
ACDBPLACEHOLDER
  2
AcDbPlaceHolder
  3
ObjectDBX Classes
 90
0
280
0
281
0
  0
CLASS
  1
LAYOUT
  2
AcDbLayout
  3
ObjectDBX Classes
 90
0
280
0
281
0
  0
ENDSEC
  0
SECTION
  2
TABLES
  0
TABLE
  2
VPORT
  5
8
330
0
100
AcDbSymbolTable
 70
1
  0
VPORT
  5
23
330
8
100
AcDbSymbolTableRecord
100
AcDbViewportTableRecord
  2
*Active
 70
0
 10
0.0
 20
0.0
 11
1.0
 21
1.0
 12
0.0
 22
0.0
 13
0.0
 23
0.0
 14
0.5
 24
0.5
 15
0.5
 25
0.5
 16
0.0
 26
0.0
 36
1.0
 17
0.0
 27
0.0
 37
0.0
 40
1000.0
 41
1.34
 42
50.0
 43
0.0
 44
0.0
 50
0.0
 51
0.0
 71
0
 72
1000
 73
1
 74
3
 75
0
 76
0
 77
0
 78
0
281
0
 65
0
146
0.0
  0
ENDTAB
  0
TABLE
  2
LTYPE
  5
2
330
0
100
AcDbSymbolTable
 70
3
  0
LTYPE
  5
24
330
2
100
AcDbSymbolTableRecord
100
AcDbLinetypeTableRecord
  2
ByBlock
 70
0
  3

 72
65
 73
0
 40
0.0
  0
LTYPE
  5
25
330
2
100
AcDbSymbolTableRecord
100
AcDbLinetypeTableRecord
  2
ByLayer
 70
0
  3

 72
65
 73
0
 40
0.0
  0
LTYPE
  5
26
330
2
100
AcDbSymbolTableRecord
100
AcDbLinetypeTableRecord
  2
Continuous
 70
0
  3

 72
65
 73
0
 40
0.0
  0
ENDTAB
  0
TABLE
  2
LAYER
  5
1
330
0
100
AcDbSymbolTable
 70
2
  0
LAYER
  5
27
330
1
100
AcDbSymbolTableRecord
100
AcDbLayerTableRecord
  2
0
 70
0
 62
7
  6
Continuous
370
-3
390
13
  0
LAYER
  5
28
330
1
100
AcDbSymbolTableRecord
100
AcDbLayerTableRecord
  2
Defpoints
 70
0
 62
7
  6
Continuous
290
0
370
-3
390
13
  0
ENDTAB
  0
TABLE
  2
STYLE
  5
5
330
0
100
AcDbSymbolTable
 70
1
  0
STYLE
  5
29
330
5
100
AcDbSymbolTableRecord
100
AcDbTextStyleTableRecord
  2
Standard
 70
0
 40
0.0
 41
1.0
 50
0.0
 71
0
 42
2.5
  3
txt
  4

  0
ENDTAB
  0
TABLE
  2
VIEW
  5
7
330
0
100
AcDbSymbolTable
 70
0
  0
ENDTAB
  0
TABLE
  2
UCS
  5
6
330
0
100
AcDbSymbolTable
 70
0
  0
ENDTAB
  0
TABLE
  2
APPID
  5
3
330
0
100
AcDbSymbolTable
 70
3
  0
APPID
  5
2A
330
3
100
AcDbSymbolTableRecord
100
AcDbRegAppTableRecord
  2
ACAD
 70
0
  0
APPID
  5
39F
330
3
100
AcDbSymbolTableRecord
100
AcDbRegAppTableRecord
  2
HATCHBACKGROUNDCOLOR
 70
0
  0
APPID
  5
3A0
330
3
100
AcDbSymbolTableRecord
100
AcDbRegAppTableRecord
  2
EZDXF
 70
0
  0
ENDTAB
  0
TABLE
  2
DIMSTYLE
  5
4
330
0
100
AcDbSymbolTable
 70
1
100
AcDbDimStyleTable
  0
DIMSTYLE
105
2B
330
4
100
AcDbSymbolTableRecord
100
AcDbDimStyleTableRecord
  2
Standard
 70
0
  3

  4

 40
1.0
 41
2.5
 42
0.625
 43
3.75
 44
1.25
 45
0.0
 46
0.0
 47
0.0
 48
0.0
140
2.5
141
2.5
142
0.0
143
0.03937007874
144
1.0
145
0.0
146
1.0
147
0.625
148
0.0
 71
0
 72
0
 73
0
 74
0
 75
0
 76
0
 77
1
 78
8
 79
3
170
0
171
3
172
1
173
0
174
0
175
0
176
0
177
0
178
0
179
2
271
2
272
2
273
2
274
3
275
0
276
0
277
2
278
44
279
0
280
0
281
0
282
0
283
0
284
8
285
0
286
0
288
0
289
3
371
-2
372
-2
  0
ENDTAB
  0
TABLE
  2
BLOCK_RECORD
  5
9
330
0
100
AcDbSymbolTable
 70
2
  0
BLOCK_RECORD
  5
17
330
9
100
AcDbSymbolTableRecord
100
AcDbBlockTableRecord
  2
*Model_Space
340
1A
  0
BLOCK_RECORD
  5
1B
330
9
100
AcDbSymbolTableRecord
100
AcDbBlockTableRecord
  2
*Paper_Space
340
1E
  0
ENDTAB
  0
ENDSEC
  0
SECTION
  2
BLOCKS
  0
BLOCK
  5
18
330
17
100
AcDbEntity
  8
0
100
AcDbBlockBegin
  2
*Model_Space
 70
0
 10
0.0
 20
0.0
 30
0.0
  3
*Model_Space
  1

  0
ENDBLK
  5
19
330
17
100
AcDbEntity
  8
0
100
AcDbBlockEnd
  0
BLOCK
  5
1C
330
1B
100
AcDbEntity
  8
0
100
AcDbBlockBegin
  2
*Paper_Space
 70
0
 10
0.0
 20
0.0
 30
0.0
  3
*Paper_Space
  1

  0
ENDBLK
  5
1D
330
1B
100
AcDbEntity
  8
0
100
AcDbBlockEnd
  0
ENDSEC
  0
SECTION
  2
ENTITIES
  0
LWPOLYLINE
  5
2F
330
17
100
AcDbEntity
  8
ROADS
100
AcDbPolyline
 90
2
 70
0
 10
624190.687932119
 20
4834043.015025106
 10
624090.5067302786
 20
4834061.997337167
  0
LWPOLYLINE
  5
30
330
17
100
AcDbEntity
  8
ROADS
100
AcDbPolyline
 90
2
 70
0
 10
624080.2471354238
 20
4834090.911794116
 10
624073.9151282173
 20
4834118.7954795975
  0
LWPOLYLINE
  5
31
330
17
100
AcDbEntity
  8
ROADS
100
AcDbPolyline
 90
2
 70
0
 10
624073.9151282173
 20
4834118.7954795975
 10
624070.0714751466
 20
4834118.848997403
  0
LWPOLYLINE
  5
32
330
17
100
AcDbEntity
  8
ROADS
100
AcDbPolyline
 90
2
 70
0
 10
624073.9151282173
 20
4834118.7954795975
 10
624059.4776191629
 20
4834205.64609551
  0
LWPOLYLINE
  5
33
330
17
100
AcDbEntity
  8
ROADS
100
AcDbPolyline
 90
5
 70
0
 10
624190.687932119
 20
4834043.015025106
 10
624167.4908590005
 20
4834141.324958735
 10
624097.6219693564
 20
4834214.5899975905
 10
624116.8390718896
 20
4834277.491646662
 10
624108.9000664924
 20
4834305.740640633
  0
LWPOLYLINE
  5
34
330
17
100
AcDbEntity
  8
ROADS
100
AcDbPolyline
 90
2
 70
0
 10
624041.3817520583
 20
4834211.825363048
 10
624059.4776191629
 20
4834205.64609551
  0
LWPOLYLINE
  5
35
330
17
100
AcDbEntity
  8
ROADS
100
AcDbPolyline
 90
2
 70
0
 10
624059.4776191629
 20
4834205.64609551
 10
624065.748597383
 20
4834301.989499236
  0
LWPOLYLINE
  5
36
330
17
100
AcDbEntity
  8
ROADS
100
AcDbPolyline
 90
2
 70
0
 10
624065.748597383
 20
4834301.989499236
 10
624021.6316194299
 20
4834299.457239604
  0
LWPOLYLINE
  5
37
330
17
100
AcDbEntity
  8
ROADS
100
AcDbPolyline
 90
2
 70
0
 10
624108.9000664924
 20
4834305.740640633
 10
624132.4777584034
 20
4834316.6703735795
  0
LWPOLYLINE
  5
38
330
17
100
AcDbEntity
  8
ROADS
100
AcDbPolyline
 90
2
 70
0
 10
624065.748597383
 20
4834301.989499236
 10
624065.5129808336
 20
4834324.31941348
  0
LWPOLYLINE
  5
39
330
17
100
AcDbEntity
  8
ROADS
100
AcDbPolyline
 90
2
 70
0
 10
624108.9000664924
 20
4834305.740640633
 10
624065.5129808336
 20
4834324.31941348
  0
LWPOLYLINE
  5
3A
330
17
100
AcDbEntity
  8
ROADS
100
AcDbPolyline
 90
2
 70
0
 10
624065.5129808336
 20
4834324.31941348
 10
624015.5675676707
 20
4834338.432625078
  0
LWPOLYLINE
  5
3B
330
17
100
AcDbEntity
  8
ROADS
100
AcDbPolyline
 90
2
 70
0
 10
624146.8401847467
 20
4834398.79230236
 10
624135.424758418
 20
4834367.136300796
  0
LWPOLYLINE
  5
3C
330
17
100
AcDbEntity
  8
ROADS
100
AcDbPolyline
 90
2
 70
0
 10
624146.8401847467
 20
4834398.79230236
 10
624113.1960036227
 20
4834403.84945529
  0
LWPOLYLINE
  5
3D
330
17
100
AcDbEntity
  8
ROADS
100
AcDbPolyline
 90
2
 70
0
 10
624376.0852968525
 20
4834455.614908777
 10
624265.7430860401
 20
4834419.284542393
  0
LWPOLYLINE
  5
3E
330
17
100
AcDbEntity
  8
ROADS
100
AcDbPolyline
 90
2
 70
0
 10
624200.3383723878
 20
4834504.387863496
 10
624146.8401847467
 20
4834398.79230236
  0
LWPOLYLINE
  5
3F
330
17
100
AcDbEntity
  8
ROADS
100
AcDbPolyline
 90
2
 70
0
 10
624265.7430860401
 20
4834419.284542393
 10
624242.941877831
 20
4834489.713149851
  0
LWPOLYLINE
  5
40
330
17
100
AcDbEntity
  8
ROADS
100
AcDbPolyline
 90
2
 70
0
 10
624521.4890384302
 20
4834453.847986198
 10
624506.2066848774
 20
4834498.469160473
  0
LWPOLYLINE
  5
41
330
17
100
AcDbEntity
  8
ROADS
100
AcDbPolyline
 90
2
 70
0
 10
624506.2066848774
 20
4834498.469160473
 10
624376.0852968525
 20
4834455.614908777
  0
LWPOLYLINE
  5
42
330
17
100
AcDbEntity
  8
ROADS
100
AcDbPolyline
 90
2
 70
0
 10
624376.0852968525
 20
4834455.614908777
 10
624359.2299629998
 20
4834506.758980108
  0
LWPOLYLINE
  5
43
330
17
100
AcDbEntity
  8
ROADS
100
AcDbPolyline
 90
2
 70
0
 10
624242.941877831
 20
4834489.713149851
 10
624200.3383723878
 20
4834504.387863496
  0
LWPOLYLINE
  5
44
330
17
100
AcDbEntity
  8
ROADS
100
AcDbPolyline
 90
2
 70
0
 10
624359.2299629998
 20
4834506.758980108
 10
624306.3387079478
 20
4834489.577047323
  0
LWPOLYLINE
  5
45
330
17
100
AcDbEntity
  8
ROADS
100
AcDbPolyline
 90
3
 70
0
 10
624200.3383723878
 20
4834504.387863496
 10
624175.9584928502
 20
4834512.110601567
 10
624167.5809844722
 20
4834496.623358227
  0
LWPOLYLINE
  5
46
330
17
100
AcDbEntity
  8
ROADS
100
AcDbPolyline
 90
2
 70
0
 10
624506.2066848774
 20
4834498.469160473
 10
624490.2284726638
 20
4834544.905850647
  0
LWPOLYLINE
  5
47
330
17
100
AcDbEntity
  8
ROADS
100
AcDbPolyline
 90
2
 70
0
 10
625882.045694566
 20
4833897.494760513
 10
625846.4427700746
 20
4834099.494977211
  0
LWPOLYLINE
  5
48
330
17
100
AcDbEntity
  8
ROADS
100
AcDbPolyline
 90
4
 70
0
 10
625911.5535740308
 20
4833950.285734977
 10
625900.3160311988
 20
4833946.999834814
 10
625858.9985860769
 20
4834095.561681817
 10
625846.4427700746
 20
4834099.494977211
  0
LWPOLYLINE
  5
49
330
17
100
AcDbEntity
  8
ROADS
100
AcDbPolyline
 90
2
 70
0
 10
625846.4427700746
 20
4834099.494977211
 10
625842.2254582545
 20
4834128.767446149
  0
LWPOLYLINE
  5
4A
330
17
100
AcDbEntity
  8
ROADS
100
AcDbPolyline
 90
2
 70
0
 10
625570.5978615297
 20
4833973.238195166
 10
625584.9480200508
 20
4833979.692920967
  0
LWPOLYLINE
  5
4B
330
17
100
AcDbEntity
  8
ROADS
100
AcDbPolyline
 90
2
 70
0
 10
625570.5978615297
 20
4833973.238195166
 10
625566.6475883606
 20
4833986.962581855
  0
LWPOLYLINE
  5
4C
330
17
100
AcDbEntity
  8
ROADS
100
AcDbPolyline
 90
2
 70
0
 10
625539.5167291773
 20
4833977.020665302
 10
625566.6475883606
 20
4833986.962581855
  0
LWPOLYLINE
  5
4D
330
17
100
AcDbEntity
  8
ROADS
100
AcDbPolyline
 90
4
 70
0
 10
625566.6475883606
 20
4833986.962581855
 10
625611.3183014239
 20
4834044.219210092
 10
625588.2445312116
 20
4834080.927275354
 10
625473.7249213754
 20
4834050.096052553
  0
LWPOLYLINE
  5
4E
330
17
100
AcDbEntity
  8
ROADS
100
AcDbPolyline
 90
2
 70
0
 10
625826.5837530737
 20
4834201.733953226
 10
625722.3895369074
 20
4834212.313336428
  0
LWPOLYLINE
  5
4F
330
17
100
AcDbEntity
  8
ROADS
100
AcDbPolyline
 90
2
 70
0
 10
625722.3895369074
 20
4834212.313336428
 10
625630.8991127335
 20
4834232.019845884
  0
LWPOLYLINE
  5
50
330
17
100
AcDbEntity
  8
ROADS
100
AcDbPolyline
 90
2
 70
0
 10
625722.3895369074
 20
4834212.313336428
 10
625718.116986599
 20
4834248.846211929
  0
LWPOLYLINE
  5
51
330
17
100
AcDbEntity
  8
ROADS
100
AcDbPolyline
 90
2
 70
0
 10
625776.0769459923
 20
4834267.290861332
 10
625722.3895369074
 20
4834212.313336428
  0
LWPOLYLINE
  5
52
330
17
100
AcDbEntity
  8
ROADS
100
AcDbPolyline
 90
2
 70
0
 10
625630.8991127335
 20
4834232.019845884
 10
625559.9788462198
 20
4834254.328784408
  0
LWPOLYLINE
  5
53
330
17
100
AcDbEntity
  8
ROADS
100
AcDbPolyline
 90
2
 70
0
 10
625776.0769459923
 20
4834267.290861332
 10
625718.116986599
 20
4834248.846211929
  0
LWPOLYLINE
  5
54
330
17
100
AcDbEntity
  8
ROADS
100
AcDbPolyline
 90
2
 70
0
 10
625858.2842177765
 20
4834133.596631122
 10
625842.2254582545
 20
4834128.767446149
  0
LWPOLYLINE
  5
55
330
17
100
AcDbEntity
  8
ROADS
100
AcDbPolyline
 90
2
 70
0
 10
625842.2254582545
 20
4834128.767446149
 10
625835.892138071
 20
4834158.918720346
  0
LWPOLYLINE
  5
56
330
17
100
AcDbEntity
  8
ROADS
100
AcDbPolyline
 90
2
 70
0
 10
625835.892138071
 20
4834158.918720346
 10
625850.9469962341
 20
4834161.153653827
  0
LWPOLYLINE
  5
57
330
17
100
AcDbEntity
  8
ROADS
100
AcDbPolyline
 90
2
 70
0
 10
625835.892138071
 20
4834158.918720346
 10
625826.5837530737
 20
4834201.733953226
  0
LWPOLYLINE
  5
58
330
17
100
AcDbEntity
  8
ROADS
100
AcDbPolyline
 90
2
 70
0
 10
625839.2578449316
 20
4834200.762408233
 10
625826.5837530737
 20
4834201.733953226
  0
LWPOLYLINE
  5
59
330
17
100
AcDbEntity
  8
ROADS
100
AcDbPolyline
 90
2
 70
0
 10
625826.5837530737
 20
4834201.733953226
 10
625811.2180373986
 20
4834262.971765139
  0
LWPOLYLINE
  5
5A
330
17
100
AcDbEntity
  8
ROADS
100
AcDbPolyline
 90
2
 70
0
 10
625820.0204908457
 20
4834265.535213919
 10
625811.2180373986
 20
4834262.971765139
  0
LWPOLYLINE
  5
5B
330
17
100
AcDbEntity
  8
ROADS
100
AcDbPolyline
 90
2
 70
0
 10
625810.2470310595
 20
4834297.774503635
 10
625803.1729913101
 20
4834295.038206224
  0
LWPOLYLINE
  5
5C
330
17
100
AcDbEntity
  8
ROADS
100
AcDbPolyline
 90
2
 70
0
 10
625559.9788462198
 20
4834254.328784408
 10
625477.0770282394
 20
4834277.793219312
  0
LWPOLYLINE
  5
5D
330
17
100
AcDbEntity
  8
ROADS
100
AcDbPolyline
 90
2
 70
0
 10
625811.2180373986
 20
4834262.971765139
 10
625803.1729913101
 20
4834295.038206224
  0
LWPOLYLINE
  5
5E
330
17
100
AcDbEntity
  8
ROADS
100
AcDbPolyline
 90
2
 70
0
 10
625803.1729913101
 20
4834295.038206224
 10
625776.0769459923
 20
4834267.290861332
  0
LWPOLYLINE
  5
5F
330
17
100
AcDbEntity
  8
ROADS
100
AcDbPolyline
 90
3
 70
0
 10
625718.116986599
 20
4834248.846211929
 10
625700.5217915641
 20
4834313.09087782
 10
625787.5735208297
 20
4834340.326865309
  0
LWPOLYLINE
  5
60
330
17
100
AcDbEntity
  8
ROADS
100
AcDbPolyline
 90
2
 70
0
 10
625803.1729913101
 20
4834295.038206224
 10
625787.5735208297
 20
4834340.326865309
  0
LWPOLYLINE
  5
61
330
17
100
AcDbEntity
  8
ROADS
100
AcDbPolyline
 90
2
 70
0
 10
625787.5735208297
 20
4834340.326865309
 10
625725.9293269452
 20
4834540.253162549
  0
LWPOLYLINE
  5
62
330
17
100
AcDbEntity
  8
ROADS
100
AcDbPolyline
 90
2
 70
0
 10
625647.1917908343
 20
4834493.228274857
 10
625637.2089623248
 20
4834523.062541672
  0
LWPOLYLINE
  5
63
330
17
100
AcDbEntity
  8
ROADS
100
AcDbPolyline
 90
2
 70
0
 10
625660.3129008658
 20
4834519.874965972
 10
625637.2089623248
 20
4834523.062541672
  0
LWPOLYLINE
  5
64
330
17
100
AcDbEntity
  8
ROADS
100
AcDbPolyline
 90
2
 70
0
 10
625713.0016299658
 20
4834536.267263057
 10
625660.3129008658
 20
4834519.874965972
  0
LWPOLYLINE
  5
65
330
17
100
AcDbEntity
  8
ROADS
100
AcDbPolyline
 90
3
 70
0
 10
625660.3129008658
 20
4834519.874965972
 10
625654.9418617577
 20
4834537.895915775
 10
625670.7436377057
 20
4834549.5212020725
  0
LWPOLYLINE
  5
66
330
17
100
AcDbEntity
  8
ROADS
100
AcDbPolyline
 90
2
 70
0
 10
625373.4825543083
 20
4834308.035515451
 10
625338.1925234433
 20
4834319.988338415
  0
LWPOLYLINE
  5
67
330
17
100
AcDbEntity
  8
ROADS
100
AcDbPolyline
 90
2
 70
0
 10
625229.0065220555
 20
4834308.805224078
 10
625174.0554575583
 20
4834342.387884531
  0
LWPOLYLINE
  5
68
330
17
100
AcDbEntity
  8
ROADS
100
AcDbPolyline
 90
2
 70
0
 10
625229.0065220555
 20
4834308.805224078
 10
625252.8331944956
 20
4834348.898127452
  0
LWPOLYLINE
  5
69
330
17
100
AcDbEntity
  8
ROADS
100
AcDbPolyline
 90
2
 70
0
 10
625338.1925234433
 20
4834319.988338415
 10
625252.8331944956
 20
4834348.898127452
  0
LWPOLYLINE
  5
6A
330
17
100
AcDbEntity
  8
ROADS
100
AcDbPolyline
 90
2
 70
0
 10
625252.8331944956
 20
4834348.898127452
 10
625188.3389521588
 20
4834382.737307703
  0
LWPOLYLINE
  5
6B
330
17
100
AcDbEntity
  8
ROADS
100
AcDbPolyline
 90
2
 70
0
 10
625188.3389521588
 20
4834382.737307703
 10
625211.6338385843
 20
4834421.875546296
  0
LWPOLYLINE
  5
6C
330
17
100
AcDbEntity
  8
ROADS
100
AcDbPolyline
 90
2
 70
0
 10
625211.6338385843
 20
4834421.875546296
 10
625234.3967879297
 20
4834460.9531722255
  0
LWPOLYLINE
  5
6D
330
17
100
AcDbEntity
  8
ROADS
100
AcDbPolyline
 90
4
 70
0
 10
625559.9788462198
 20
4834254.328784408
 10
625549.8141973993
 20
4834272.2585860025
 10
625499.2063541884
 20
4834288.190784479
 10
625198.2041934241
 20
4834685.102524356
  0
LWPOLYLINE
  5
6E
330
17
100
AcDbEntity
  8
ROADS
100
AcDbPolyline
 90
2
 70
0
 10
625234.3967879297
 20
4834460.9531722255
 10
625262.7193910213
 20
4834511.463936142
  0
LWPOLYLINE
  5
6F
330
17
100
AcDbEntity
  8
ROADS
100
AcDbPolyline
 90
4
 70
0
 10
625559.9788462198
 20
4834254.328784408
 10
625457.6618286801
 20
4834500.982949877
 10
625378.1710783897
 20
4834746.634014626
 10
625295.370824227
 20
4834733.278581411
  0
LWPOLYLINE
  5
70
330
17
100
AcDbEntity
  8
ROADS
100
AcDbPolyline
 90
2
 70
0
 10
625725.9293269452
 20
4834540.253162549
 10
625713.0016299658
 20
4834536.267263057
  0
LWPOLYLINE
  5
71
330
17
100
AcDbEntity
  8
ROADS
100
AcDbPolyline
 90
2
 70
0
 10
625637.2089623248
 20
4834523.062541672
 10
625618.2704508569
 20
4834585.270781267
  0
LWPOLYLINE
  5
72
330
17
100
AcDbEntity
  8
ROADS
100
AcDbPolyline
 90
2
 70
0
 10
625713.0016299658
 20
4834536.267263057
 10
625618.2704508569
 20
4834585.270781267
  0
LWPOLYLINE
  5
73
330
17
100
AcDbEntity
  8
ROADS
100
AcDbPolyline
 90
2
 70
0
 10
625725.9293269452
 20
4834540.253162549
 10
625705.0875656276
 20
4834608.554365657
  0
LWPOLYLINE
  5
74
330
17
100
AcDbEntity
  8
ROADS
100
AcDbPolyline
 90
2
 70
0
 10
625659.8688022093
 20
4834594.290201645
 10
625618.2704508569
 20
4834585.270781267
  0
LWPOLYLINE
  5
75
330
17
100
AcDbEntity
  8
ROADS
100
AcDbPolyline
 90
2
 70
0
 10
625705.0875656276
 20
4834608.554365657
 10
625659.8688022093
 20
4834594.290201645
  0
LWPOLYLINE
  5
76
330
17
100
AcDbEntity
  8
ROADS
100
AcDbPolyline
 90
2
 70
0
 10
625705.0875656276
 20
4834608.554365657
 10
625693.0879150705
 20
4834654.858124517
  0
LWPOLYLINE
  5
77
330
17
100
AcDbEntity
  8
ROADS
100
AcDbPolyline
 90
2
 70
0
 10
625618.2704508569
 20
4834585.270781267
 10
625575.8448031656
 20
4834719.276567375
  0
LWPOLYLINE
  5
78
330
17
100
AcDbEntity
  8
ROADS
100
AcDbPolyline
 90
2
 70
0
 10
624912.0850880757
 20
4834159.1917828
 10
624898.7209381523
 20
4834204.306719186
  0
LWPOLYLINE
  5
79
330
17
100
AcDbEntity
  8
ROADS
100
AcDbPolyline
 90
2
 70
0
 10
625065.2873443775
 20
4834161.305891461
 10
625043.1967804022
 20
4834237.73186089
  0
LWPOLYLINE
  5
7A
330
17
100
AcDbEntity
  8
ROADS
100
AcDbPolyline
 90
2
 70
0
 10
624944.7219514782
 20
4834216.562827752
 10
624898.7209381523
 20
4834204.306719186
  0
LWPOLYLINE
  5
7B
330
17
100
AcDbEntity
  8
ROADS
100
AcDbPolyline
 90
2
 70
0
 10
624995.2236375174
 20
4834223.92701559
 10
624944.7219514782
 20
4834216.562827752
  0
LWPOLYLINE
  5
7C
330
17
100
AcDbEntity
  8
ROADS
100
AcDbPolyline
 90
2
 70
0
 10
624898.7209381523
 20
4834204.306719186
 10
624885.1852832208
 20
4834248.729514205
  0
LWPOLYLINE
  5
7D
330
17
100
AcDbEntity
  8
ROADS
100
AcDbPolyline
 90
2
 70
0
 10
625043.1967804022
 20
4834237.73186089
 10
624995.2236375174
 20
4834223.92701559
  0
LWPOLYLINE
  5
7E
330
17
100
AcDbEntity
  8
ROADS
100
AcDbPolyline
 90
2
 70
0
 10
625142.2909003475
 20
4834161.788687586
 10
625229.0065220555
 20
4834308.805224078
  0
LWPOLYLINE
  5
7F
330
17
100
AcDbEntity
  8
ROADS
100
AcDbPolyline
 90
2
 70
0
 10
624995.2236375174
 20
4834223.92701559
 10
624977.2802202932
 20
4834278.032689824
  0
LWPOLYLINE
  5
80
330
17
100
AcDbEntity
  8
ROADS
100
AcDbPolyline
 90
2
 70
0
 10
625065.2873443775
 20
4834161.305891461
 10
625174.0554575583
 20
4834342.387884531
  0
LWPOLYLINE
  5
81
330
17
100
AcDbEntity
  8
ROADS
100
AcDbPolyline
 90
2
 70
0
 10
624944.7219514782
 20
4834216.562827752
 10
624909.4115134417
 20
4834334.270095727
  0
LWPOLYLINE
  5
82
330
17
100
AcDbEntity
  8
ROADS
100
AcDbPolyline
 90
2
 70
0
 10
625297.2454161763
 20
4834284.015216426
 10
625271.7810980193
 20
4834241.794593811
  0
LWPOLYLINE
  5
83
330
17
100
AcDbEntity
  8
ROADS
100
AcDbPolyline
 90
2
 70
0
 10
625303.087395427
 20
4834257.422312234
 10
625305.9026076862
 20
4834273.630106542
  0
LWPOLYLINE
  5
84
330
17
100
AcDbEntity
  8
ROADS
100
AcDbPolyline
 90
2
 70
0
 10
625394.1122652442
 20
4834228.389889167
 10
625373.4825543083
 20
4834308.035515451
  0
LWPOLYLINE
  5
85
330
17
100
AcDbEntity
  8
ROADS
100
AcDbPolyline
 90
2
 70
0
 10
625305.9026076862
 20
4834273.630106542
 10
625333.462941688
 20
4834264.99725735
  0
LWPOLYLINE
  5
86
330
17
100
AcDbEntity
  8
ROADS
100
AcDbPolyline
 90
2
 70
0
 10
625305.9026076862
 20
4834273.630106542
 10
625297.2454161763
 20
4834284.015216426
  0
LWPOLYLINE
  5
87
330
17
100
AcDbEntity
  8
ROADS
100
AcDbPolyline
 90
2
 70
0
 10
625333.462941688
 20
4834264.99725735
 10
625328.8704715291
 20
4834293.903378298
  0
LWPOLYLINE
  5
88
330
17
100
AcDbEntity
  8
ROADS
100
AcDbPolyline
 90
2
 70
0
 10
625477.0770282394
 20
4834277.793219312
 10
625373.4825543083
 20
4834308.035515451
  0
LWPOLYLINE
  5
89
330
17
100
AcDbEntity
  8
ROADS
100
AcDbPolyline
 90
2
 70
0
 10
625229.0065220555
 20
4834308.805224078
 10
625297.2454161763
 20
4834284.015216426
  0
LWPOLYLINE
  5
8A
330
17
100
AcDbEntity
  8
ROADS
100
AcDbPolyline
 90
2
 70
0
 10
625328.8704715291
 20
4834293.903378298
 10
625315.982052709
 20
4834299.529743381
  0
LWPOLYLINE
  5
8B
330
17
100
AcDbEntity
  8
ROADS
100
AcDbPolyline
 90
2
 70
0
 10
625328.8704715291
 20
4834293.903378298
 10
625338.1925234433
 20
4834319.988338415
  0
LWPOLYLINE
  5
8C
330
17
100
AcDbEntity
  8
ROADS
100
AcDbPolyline
 90
2
 70
0
 10
625043.1967804022
 20
4834237.73186089
 10
625110.7669631566
 20
4834335.691596015
  0
LWPOLYLINE
  5
8D
330
17
100
AcDbEntity
  8
ROADS
100
AcDbPolyline
 90
3
 70
0
 10
625110.7669631566
 20
4834335.691596015
 10
625027.7252977398
 20
4834313.785436816
 10
624977.2802202932
 20
4834278.032689824
  0
LWPOLYLINE
  5
8E
330
17
100
AcDbEntity
  8
ROADS
100
AcDbPolyline
 90
2
 70
0
 10
624977.2802202932
 20
4834278.032689824
 10
624956.4921582812
 20
4834348.264832428
  0
LWPOLYLINE
  5
8F
330
17
100
AcDbEntity
  8
ROADS
100
AcDbPolyline
 90
2
 70
0
 10
624956.4921582812
 20
4834348.264832428
 10
624909.4115134417
 20
4834334.270095727
  0
LWPOLYLINE
  5
90
330
17
100
AcDbEntity
  8
ROADS
100
AcDbPolyline
 90
2
 70
0
 10
625110.7669631566
 20
4834335.691596015
 10
625132.4715390151
 20
4834367.981696415
  0
LWPOLYLINE
  5
91
330
17
100
AcDbEntity
  8
ROADS
100
AcDbPolyline
 90
2
 70
0
 10
624909.4115134417
 20
4834334.270095727
 10
624897.2220436538
 20
4834374.563992074
  0
LWPOLYLINE
  5
92
330
17
100
AcDbEntity
  8
ROADS
100
AcDbPolyline
 90
2
 70
0
 10
625174.0554575583
 20
4834342.387884531
 10
625132.4715390151
 20
4834367.981696415
  0
LWPOLYLINE
  5
93
330
17
100
AcDbEntity
  8
ROADS
100
AcDbPolyline
 90
2
 70
0
 10
625148.6910628533
 20
4834405.402945887
 10
624956.4921582812
 20
4834348.264832428
  0
LWPOLYLINE
  5
94
330
17
100
AcDbEntity
  8
ROADS
100
AcDbPolyline
 90
2
 70
0
 10
625132.4715390151
 20
4834367.981696415
 10
625148.6910628533
 20
4834405.402945887
  0
LWPOLYLINE
  5
95
330
17
100
AcDbEntity
  8
ROADS
100
AcDbPolyline
 90
2
 70
0
 10
625188.3389521588
 20
4834382.737307703
 10
625148.6910628533
 20
4834405.402945887
  0
LWPOLYLINE
  5
96
330
17
100
AcDbEntity
  8
ROADS
100
AcDbPolyline
 90
2
 70
0
 10
624302.6178962415
 20
4834263.328748842
 10
624260.9714976338
 20
4834259.078787964
  0
LWPOLYLINE
  5
97
330
17
100
AcDbEntity
  8
ROADS
100
AcDbPolyline
 90
2
 70
0
 10
624312.4624877695
 20
4834273.947749812
 10
624302.6178962415
 20
4834263.328748842
  0
LWPOLYLINE
  5
98
330
17
100
AcDbEntity
  8
ROADS
100
AcDbPolyline
 90
3
 70
0
 10
624424.806178608
 20
4834290.1756715
 10
624384.9943458813
 20
4834299.896611973
 10
624312.4624877695
 20
4834273.947749812
  0
LWPOLYLINE
  5
99
330
17
100
AcDbEntity
  8
ROADS
100
AcDbPolyline
 90
2
 70
0
 10
624424.806178608
 20
4834290.1756715
 10
624399.734023519
 20
4834384.883573579
  0
LWPOLYLINE
  5
9A
330
17
100
AcDbEntity
  8
ROADS
100
AcDbPolyline
 90
2
 70
0
 10
624312.4624877695
 20
4834273.947749812
 10
624265.7430860401
 20
4834419.284542393
  0
LWPOLYLINE
  5
9B
330
17
100
AcDbEntity
  8
ROADS
100
AcDbPolyline
 90
2
 70
0
 10
624346.3107997767
 20
4834367.421027949
 10
624321.9348676971
 20
4834359.821034207
  0
LWPOLYLINE
  5
9C
330
17
100
AcDbEntity
  8
ROADS
100
AcDbPolyline
 90
2
 70
0
 10
624399.734023519
 20
4834384.883573579
 10
624346.3107997767
 20
4834367.421027949
  0
LWPOLYLINE
  5
9D
330
17
100
AcDbEntity
  8
ROADS
100
AcDbPolyline
 90
2
 70
0
 10
624346.3107997767
 20
4834367.421027949
 10
624330.2058738647
 20
4834419.7627263125
  0
LWPOLYLINE
  5
9E
330
17
100
AcDbEntity
  8
ROADS
100
AcDbPolyline
 90
2
 70
0
 10
624558.2766687326
 20
4834345.872091827
 10
624521.4890384302
 20
4834453.847986198
  0
LWPOLYLINE
  5
9F
330
17
100
AcDbEntity
  8
ROADS
100
AcDbPolyline
 90
2
 70
0
 10
624399.734023519
 20
4834384.883573579
 10
624376.0852968525
 20
4834455.614908777
  0
LWPOLYLINE
  5
A0
330
17
100
AcDbEntity
  8
ROADS
100
AcDbPolyline
 90
2
 70
0
 10
624681.2182873097
 20
4834266.978931825
 10
624595.2222465689
 20
4834234.854864613
  0
LWPOLYLINE
  5
A1
330
17
100
AcDbEntity
  8
ROADS
100
AcDbPolyline
 90
2
 70
0
 10
624721.6477421906
 20
4834279.41334839
 10
624681.2182873097
 20
4834266.978931825
  0
LWPOLYLINE
  5
A2
330
17
100
AcDbEntity
  8
ROADS
100
AcDbPolyline
 90
2
 70
0
 10
624595.2222465689
 20
4834234.854864613
 10
624558.2766687326
 20
4834345.872091827
  0
LWPOLYLINE
  5
A3
330
17
100
AcDbEntity
  8
ROADS
100
AcDbPolyline
 90
2
 70
0
 10
624909.4115134417
 20
4834334.270095727
 10
624721.6477421906
 20
4834279.41334839
  0
LWPOLYLINE
  5
A4
330
17
100
AcDbEntity
  8
ROADS
100
AcDbPolyline
 90
2
 70
0
 10
624879.62800945
 20
4834442.811735053
 10
624558.2766687326
 20
4834345.872091827
  0
LWPOLYLINE
  5
A5
330
17
100
AcDbEntity
  8
ROADS
100
AcDbPolyline
 90
2
 70
0
 10
624897.2220436538
 20
4834374.563992074
 10
624879.62800945
 20
4834442.811735053
  0
LWPOLYLINE
  5
A6
330
17
100
AcDbEntity
  8
ROADS
100
AcDbPolyline
 90
2
 70
0
 10
624765.1552892767
 20
4834533.292589073
 10
624521.4890384302
 20
4834453.847986198
  0
LWPOLYLINE
  5
A7
330
17
100
AcDbEntity
  8
ROADS
100
AcDbPolyline
 90
2
 70
0
 10
624879.62800945
 20
4834442.811735053
 10
624848.0428561876
 20
4834559.957262496
  0
LWPOLYLINE
  5
A8
330
17
100
AcDbEntity
  8
ROADS
100
AcDbPolyline
 90
2
 70
0
 10
624808.3047701372
 20
4834547.172285053
 10
624765.1552892767
 20
4834533.292589073
  0
LWPOLYLINE
  5
A9
330
17
100
AcDbEntity
  8
ROADS
100
AcDbPolyline
 90
2
 70
0
 10
624848.0428561876
 20
4834559.957262496
 10
624808.3047701372
 20
4834547.172285053
  0
LWPOLYLINE
  5
AA
330
17
100
AcDbEntity
  8
ROADS
100
AcDbPolyline
 90
2
 70
0
 10
625148.6910628533
 20
4834405.402945887
 10
625060.9245185836
 20
4834458.828546549
  0
LWPOLYLINE
  5
AB
330
17
100
AcDbEntity
  8
ROADS
100
AcDbPolyline
 90
2
 70
0
 10
624897.2220436538
 20
4834374.563992074
 10
624983.1417300379
 20
4834506.213242972
  0
LWPOLYLINE
  5
AC
330
17
100
AcDbEntity
  8
ROADS
100
AcDbPolyline
 90
2
 70
0
 10
625211.6338385843
 20
4834421.875546296
 10
625084.8731074093
 20
4834498.039595655
  0
LWPOLYLINE
  5
AD
330
17
100
AcDbEntity
  8
ROADS
100
AcDbPolyline
 90
2
 70
0
 10
625060.9245185836
 20
4834458.828546549
 10
625084.8731074093
 20
4834498.039595655
  0
LWPOLYLINE
  5
AE
330
17
100
AcDbEntity
  8
ROADS
100
AcDbPolyline
 90
2
 70
0
 10
625060.9245185836
 20
4834458.828546549
 10
624983.1417300379
 20
4834506.213242972
  0
LWPOLYLINE
  5
AF
330
17
100
AcDbEntity
  8
ROADS
100
AcDbPolyline
 90
2
 70
0
 10
625234.3967879297
 20
4834460.9531722255
 10
625106.0634288989
 20
4834535.707708305
  0
LWPOLYLINE
  5
B0
330
17
100
AcDbEntity
  8
ROADS
100
AcDbPolyline
 90
2
 70
0
 10
625047.0868518167
 20
4834520.288839417
 10
625084.8731074093
 20
4834498.039595655
  0
LWPOLYLINE
  5
B1
330
17
100
AcDbEntity
  8
ROADS
100
AcDbPolyline
 90
2
 70
0
 10
625084.8731074093
 20
4834498.039595655
 10
625106.0634288989
 20
4834535.707708305
  0
LWPOLYLINE
  5
B2
330
17
100
AcDbEntity
  8
ROADS
100
AcDbPolyline
 90
2
 70
0
 10
624983.1417300379
 20
4834506.213242972
 10
625009.8404318136
 20
4834543.212873125
  0
LWPOLYLINE
  5
B3
330
17
100
AcDbEntity
  8
ROADS
100
AcDbPolyline
 90
2
 70
0
 10
625047.0868518167
 20
4834520.288839417
 10
625009.8404318136
 20
4834543.212873125
  0
LWPOLYLINE
  5
B4
330
17
100
AcDbEntity
  8
ROADS
100
AcDbPolyline
 90
2
 70
0
 10
624685.4037716645
 20
4834608.100131465
 10
624490.2284726638
 20
4834544.905850647
  0
LWPOLYLINE
  5
B5
330
17
100
AcDbEntity
  8
ROADS
100
AcDbPolyline
 90
2
 70
0
 10
624848.0428561876
 20
4834559.957262496
 10
624841.8852818763
 20
4834595.930935737
  0
LWPOLYLINE
  5
B6
330
17
100
AcDbEntity
  8
ROADS
100
AcDbPolyline
 90
2
 70
0
 10
624765.1552892767
 20
4834533.292589073
 10
624740.330936818
 20
4834625.07489014
  0
LWPOLYLINE
  5
B7
330
17
100
AcDbEntity
  8
ROADS
100
AcDbPolyline
 90
3
 70
0
 10
624685.4037716645
 20
4834608.100131465
 10
624698.520412318
 20
4834563.457790898
 10
624658.1850504051
 20
4834550.3000022555
  0
LWPOLYLINE
  5
B8
330
17
100
AcDbEntity
  8
ROADS
100
AcDbPolyline
 90
2
 70
0
 10
624740.330936818
 20
4834625.07489014
 10
624685.4037716645
 20
4834608.100131465
  0
LWPOLYLINE
  5
B9
330
17
100
AcDbEntity
  8
ROADS
100
AcDbPolyline
 90
3
 70
0
 10
624670.7399045615
 20
4834707.630484617
 10
624685.9123982991
 20
4834659.573124704
 10
624595.1953115433
 20
4834632.1418746095
  0
LWPOLYLINE
  5
BA
330
17
100
AcDbEntity
  8
ROADS
100
AcDbPolyline
 90
3
 70
0
 10
624692.9928902354
 20
4834782.604803581
 10
624747.5119204511
 20
4834799.032183973
 10
624808.3047701372
 20
4834547.172285053
  0
LWPOLYLINE
  5
BB
330
17
100
AcDbEntity
  8
ROADS
100
AcDbPolyline
 90
2
 70
0
 10
624740.330936818
 20
4834625.07489014
 10
624713.1781569986
 20
4834721.298331887
  0
LWPOLYLINE
  5
BC
330
17
100
AcDbEntity
  8
ROADS
100
AcDbPolyline
 90
2
 70
0
 10
624670.7399045615
 20
4834707.630484617
 10
624457.9798437573
 20
4834639.725040785
  0
LWPOLYLINE
  5
BD
330
17
100
AcDbEntity
  8
ROADS
100
AcDbPolyline
 90
2
 70
0
 10
624713.1781569986
 20
4834721.298331887
 10
624670.7399045615
 20
4834707.630484617
  0
LWPOLYLINE
  5
BE
330
17
100
AcDbEntity
  8
ROADS
100
AcDbPolyline
 90
2
 70
0
 10
624983.1417300379
 20
4834506.213242972
 10
624841.8852818763
 20
4834595.930935737
  0
LWPOLYLINE
  5
BF
330
17
100
AcDbEntity
  8
ROADS
100
AcDbPolyline
 90
2
 70
0
 10
625009.8404318136
 20
4834543.212873125
 10
625033.2945008271
 20
4834582.893009905
  0
LWPOLYLINE
  5
C0
330
17
100
AcDbEntity
  8
ROADS
100
AcDbPolyline
 90
2
 70
0
 10
625047.0868518167
 20
4834520.288839417
 10
625121.3763437653
 20
4834645.245591801
  0
LWPOLYLINE
  5
C1
330
17
100
AcDbEntity
  8
ROADS
100
AcDbPolyline
 90
2
 70
0
 10
625106.0634288989
 20
4834535.707708305
 10
625166.6744377821
 20
4834638.520003354
  0
LWPOLYLINE
  5
C2
330
17
100
AcDbEntity
  8
ROADS
100
AcDbPolyline
 90
4
 70
0
 10
625009.8404318136
 20
4834543.212873125
 10
624892.3517115656
 20
4834613.764117311
 10
624934.3332432811
 20
4834641.026455185
 10
625033.2945008271
 20
4834582.893009905
  0
LWPOLYLINE
  5
C3
330
17
100
AcDbEntity
  8
ROADS
100
AcDbPolyline
 90
2
 70
0
 10
625033.2945008271
 20
4834582.893009905
 10
625085.3040434566
 20
4834668.884879683
  0
LWPOLYLINE
  5
C4
330
17
100
AcDbEntity
  8
ROADS
100
AcDbPolyline
 90
2
 70
0
 10
625198.2041934241
 20
4834685.102524356
 10
625034.8783507795
 20
4834904.772481517
  0
LWPOLYLINE
  5
C5
330
17
100
AcDbEntity
  8
ROADS
100
AcDbPolyline
 90
3
 70
0
 10
625283.1478165996
 20
4834729.368421334
 10
625227.6896957722
 20
4834720.019449327
 10
625095.2036264682
 20
4834908.31713676
  0
LWPOLYLINE
  5
C6
330
17
100
AcDbEntity
  8
ROADS
100
AcDbPolyline
 90
2
 70
0
 10
624996.7478860389
 20
4834929.022565248
 10
624787.8203270233
 20
4834865.849454064
  0
LWPOLYLINE
  5
C7
330
17
100
AcDbEntity
  8
ROADS
100
AcDbPolyline
 90
2
 70
0
 10
625034.8783507795
 20
4834904.772481517
 10
625014.051290731
 20
4834934.308640924
  0
LWPOLYLINE
  5
C8
330
17
100
AcDbEntity
  8
ROADS
100
AcDbPolyline
 90
2
 70
0
 10
624841.8852818763
 20
4834595.930935737
 10
624787.8203270233
 20
4834865.849454064
  0
LWPOLYLINE
  5
C9
330
17
100
AcDbEntity
  8
ROADS
100
AcDbPolyline
 90
2
 70
0
 10
624670.7399045615
 20
4834707.630484617
 10
624653.4296958109
 20
4834761.363507399
  0
LWPOLYLINE
  5
CA
330
17
100
AcDbEntity
  8
ROADS
100
AcDbPolyline
 90
2
 70
0
 10
624653.4296958109
 20
4834761.363507399
 10
624575.5866514121
 20
4834736.846098616
  0
LWPOLYLINE
  5
CB
330
17
100
AcDbEntity
  8
ROADS
100
AcDbPolyline
 90
2
 70
0
 10
624713.1781569986
 20
4834721.298331887
 10
624692.9928902354
 20
4834782.604803581
  0
LWPOLYLINE
  5
CC
330
17
100
AcDbEntity
  8
ROADS
100
AcDbPolyline
 90
2
 70
0
 10
624653.4296958109
 20
4834761.363507399
 10
624639.4261625375
 20
4834819.605041089
  0
LWPOLYLINE
  5
CD
330
17
100
AcDbEntity
  8
ROADS
100
AcDbPolyline
 90
2
 70
0
 10
624692.9928902354
 20
4834782.604803581
 10
624678.2564737081
 20
4834832.539143904
  0
LWPOLYLINE
  5
CE
330
17
100
AcDbEntity
  8
ROADS
100
AcDbPolyline
 90
2
 70
0
 10
624678.2564737081
 20
4834832.539143904
 10
624639.4261625375
 20
4834819.605041089
  0
LWPOLYLINE
  5
CF
330
17
100
AcDbEntity
  8
ROADS
100
AcDbPolyline
 90
2
 70
0
 10
624639.4261625375
 20
4834819.605041089
 10
624627.0706075763
 20
4834871.102993632
  0
LWPOLYLINE
  5
D0
330
17
100
AcDbEntity
  8
ROADS
100
AcDbPolyline
 90
2
 70
0
 10
624787.8203270233
 20
4834865.849454064
 10
624678.2564737081
 20
4834832.539143904
  0
LWPOLYLINE
  5
D1
330
17
100
AcDbEntity
  8
ROADS
100
AcDbPolyline
 90
2
 70
0
 10
624627.0706075763
 20
4834871.102993632
 10
624701.6062417196
 20
4834894.305579927
  0
LWPOLYLINE
  5
D2
330
17
100
AcDbEntity
  8
ROADS
100
AcDbPolyline
 90
2
 70
0
 10
624290.5124882344
 20
4834711.943819012
 10
624277.6750197464
 20
4834708.6125947125
  0
LWPOLYLINE
  5
D3
330
17
100
AcDbEntity
  8
ROADS
100
AcDbPolyline
 90
2
 70
0
 10
624438.1259790232
 20
4834695.9221864855
 10
624419.1940864869
 20
4834751.403952804
  0
LWPOLYLINE
  5
D4
330
17
100
AcDbEntity
  8
ROADS
100
AcDbPolyline
 90
2
 70
0
 10
624419.1940864869
 20
4834751.403952804
 10
624290.5124882344
 20
4834711.943819012
  0
LWPOLYLINE
  5
D5
330
17
100
AcDbEntity
  8
ROADS
100
AcDbPolyline
 90
2
 70
0
 10
624162.261627275
 20
4834741.1021259725
 10
624178.7712520261
 20
4834746.260824531
  0
LWPOLYLINE
  5
D6
330
17
100
AcDbEntity
  8
ROADS
100
AcDbPolyline
 90
2
 70
0
 10
624435.7089876422
 20
4834756.492747215
 10
624419.1940864869
 20
4834751.403952804
  0
LWPOLYLINE
  5
D7
330
17
100
AcDbEntity
  8
ROADS
100
AcDbPolyline
 90
2
 70
0
 10
624435.7089876422
 20
4834756.492747215
 10
624424.4075463765
 20
4834803.783999236
  0
LWPOLYLINE
  5
D8
330
17
100
AcDbEntity
  8
ROADS
100
AcDbPolyline
 90
2
 70
0
 10
624277.6750197464
 20
4834708.6125947125
 10
624232.1202251331
 20
4834851.972761795
  0
LWPOLYLINE
  5
D9
330
17
100
AcDbEntity
  8
ROADS
100
AcDbPolyline
 90
2
 70
0
 10
624639.4261625375
 20
4834819.605041089
 10
624435.7089876422
 20
4834756.492747215
  0
LWPOLYLINE
  5
DA
330
17
100
AcDbEntity
  8
ROADS
100
AcDbPolyline
 90
2
 70
0
 10
624424.4075463765
 20
4834803.783999236
 10
624415.3955235115
 20
4834850.726613424
  0
LWPOLYLINE
  5
DB
330
17
100
AcDbEntity
  8
ROADS
100
AcDbPolyline
 90
2
 70
0
 10
624627.0706075763
 20
4834871.102993632
 10
624424.4075463765
 20
4834803.783999236
  0
LWPOLYLINE
  5
DC
330
17
100
AcDbEntity
  8
ROADS
100
AcDbPolyline
 90
2
 70
0
 10
624359.2299629998
 20
4834506.758980108
 10
624336.4722723259
 20
4834575.719309927
  0
LWPOLYLINE
  5
DD
330
17
100
AcDbEntity
  8
ROADS
100
AcDbPolyline
 90
2
 70
0
 10
624490.2284726638
 20
4834544.905850647
 10
624463.433523455
 20
4834618.293467573
  0
LWPOLYLINE
  5
DE
330
17
100
AcDbEntity
  8
ROADS
100
AcDbPolyline
 90
2
 70
0
 10
624242.941877831
 20
4834489.713149851
 10
624180.4431255425
 20
4834675.736315139
  0
LWPOLYLINE
  5
DF
330
17
100
AcDbEntity
  8
ROADS
100
AcDbPolyline
 90
4
 70
0
 10
624463.433523455
 20
4834618.293467573
 10
624417.717075105
 20
4834604.13036161
 10
624410.1635879574
 20
4834583.941747539
 10
624336.4722723259
 20
4834575.719309927
  0
LWPOLYLINE
  5
E0
330
17
100
AcDbEntity
  8
ROADS
100
AcDbPolyline
 90
2
 70
0
 10
624463.433523455
 20
4834618.293467573
 10
624457.9798437573
 20
4834639.725040785
  0
LWPOLYLINE
  5
E1
330
17
100
AcDbEntity
  8
ROADS
100
AcDbPolyline
 90
2
 70
0
 10
624336.4722723259
 20
4834575.719309927
 10
624290.5124882344
 20
4834711.943819012
  0
LWPOLYLINE
  5
E2
330
17
100
AcDbEntity
  8
ROADS
100
AcDbPolyline
 90
2
 70
0
 10
624457.9798437573
 20
4834639.725040785
 10
624438.1259790232
 20
4834695.9221864855
  0
LWPOLYLINE
  5
E3
330
17
100
AcDbEntity
  8
ROADS
100
AcDbPolyline
 90
2
 70
0
 10
624438.1259790232
 20
4834695.9221864855
 10
624320.0575726656
 20
4834659.580078017
  0
LWPOLYLINE
  5
E4
330
17
100
AcDbEntity
  8
ROADS
100
AcDbPolyline
 90
2
 70
0
 10
624277.6750197464
 20
4834708.6125947125
 10
624180.4431255425
 20
4834675.736315139
  0
LWPOLYLINE
  5
E5
330
17
100
AcDbEntity
  8
ROADS
100
AcDbPolyline
 90
2
 70
0
 10
624180.4431255425
 20
4834675.736315139
 10
624162.261627275
 20
4834741.1021259725
  0
LWPOLYLINE
  5
E6
330
17
100
AcDbEntity
  8
ROADS
100
AcDbPolyline
 90
2
 70
0
 10
624101.200245484
 20
4834649.1645478755
 10
624009.6980999466
 20
4834619.163382303
  0
LWPOLYLINE
  5
E7
330
17
100
AcDbEntity
  8
ROADS
100
AcDbPolyline
 90
2
 70
0
 10
624180.4431255425
 20
4834675.736315139
 10
624132.7395540919
 20
4834594.911778166
  0
LWPOLYLINE
  5
E8
330
17
100
AcDbEntity
  8
ROADS
100
AcDbPolyline
 90
2
 70
0
 10
624180.4431255425
 20
4834675.736315139
 10
624101.200245484
 20
4834649.1645478755
  0
LWPOLYLINE
  5
E9
330
17
100
AcDbEntity
  8
ROADS
100
AcDbPolyline
 90
2
 70
0
 10
624162.261627275
 20
4834741.1021259725
 10
624150.2890637922
 20
4834778.93870937
  0
LWPOLYLINE
  5
EA
330
17
100
AcDbEntity
  8
ROADS
100
AcDbPolyline
 90
2
 70
0
 10
624101.200245484
 20
4834649.1645478755
 10
624051.3536156121
 20
4834813.537339271
  0
LWPOLYLINE
  5
EB
330
17
100
AcDbEntity
  8
ROADS
100
AcDbPolyline
 90
2
 70
0
 10
624150.2890637922
 20
4834778.93870937
 10
624100.4612446452
 20
4834929.624236353
  0
LWPOLYLINE
  5
EC
330
17
100
AcDbEntity
  8
ROADS
100
AcDbPolyline
 90
2
 70
0
 10
624138.8611239752
 20
4834968.045118046
 10
624119.7283648225
 20
4834962.273164668
  0
LWPOLYLINE
  5
ED
330
17
100
AcDbEntity
  8
ROADS
100
AcDbPolyline
 90
2
 70
0
 10
624138.8611239752
 20
4834968.045118046
 10
624133.2486810024
 20
4834985.183897031
  0
LWPOLYLINE
  5
EE
330
17
100
AcDbEntity
  8
ROADS
100
AcDbPolyline
 90
2
 70
0
 10
624539.8858183669
 20
4835110.919965081
 10
624415.4936489937
 20
4835083.120843933
  0
LWPOLYLINE
  5
EF
330
17
100
AcDbEntity
  8
ROADS
100
AcDbPolyline
 90
2
 70
0
 10
624415.4936489937
 20
4835083.120843933
 10
624386.3951841714
 20
4835174.723737679
  0
LWPOLYLINE
  5
F0
330
17
100
AcDbEntity
  8
ROADS
100
AcDbPolyline
 90
2
 70
0
 10
624539.8858183669
 20
4835110.919965081
 10
624524.2132432638
 20
4835159.5302745495
  0
LWPOLYLINE
  5
F1
330
17
100
AcDbEntity
  8
ROADS
100
AcDbPolyline
 90
2
 70
0
 10
624524.2132432638
 20
4835159.5302745495
 10
624447.6938033367
 20
4835141.846075739
  0
LWPOLYLINE
  5
F2
330
17
100
AcDbEntity
  8
ROADS
100
AcDbPolyline
 90
2
 70
0
 10
624386.3951841714
 20
4835174.723737679
 10
624253.4982084647
 20
4835131.819420758
  0
LWPOLYLINE
  5
F3
330
17
100
AcDbEntity
  8
ROADS
100
AcDbPolyline
 90
2
 70
0
 10
624524.2132432638
 20
4835159.5302745495
 10
624507.7183407772
 20
4835209.70479847
  0
LWPOLYLINE
  5
F4
330
17
100
AcDbEntity
  8
ROADS
100
AcDbPolyline
 90
2
 70
0
 10
624507.7183407772
 20
4835209.70479847
 10
624386.3951841714
 20
4835174.723737679
  0
LWPOLYLINE
  5
F5
330
17
100
AcDbEntity
  8
ROADS
100
AcDbPolyline
 90
2
 70
0
 10
625198.2041934241
 20
4834685.102524356
 10
625283.1478165996
 20
4834729.368421334
  0
LWPOLYLINE
  5
F6
330
17
100
AcDbEntity
  8
ROADS
100
AcDbPolyline
 90
2
 70
0
 10
625295.370824227
 20
4834733.278581411
 10
625283.1478165996
 20
4834729.368421334
  0
LWPOLYLINE
  5
F7
330
17
100
AcDbEntity
  8
ROADS
100
AcDbPolyline
 90
2
 70
0
 10
625524.8561405946
 20
4834749.690640487
 10
625475.0032632237
 20
4834734.866667638
  0
LWPOLYLINE
  5
F8
330
17
100
AcDbEntity
  8
ROADS
100
AcDbPolyline
 90
2
 70
0
 10
625515.2731184831
 20
4834788.000097966
 10
625472.596811534
 20
4834775.435470904
  0
LWPOLYLINE
  5
F9
330
17
100
AcDbEntity
  8
ROADS
100
AcDbPolyline
 90
3
 70
0
 10
625295.370824227
 20
4834733.278581411
 10
625275.9876985443
 20
4834786.058179915
 10
625169.0162712559
 20
4834935.118393781
  0
LWPOLYLINE
  5
FA
330
17
100
AcDbEntity
  8
ROADS
100
AcDbPolyline
 90
4
 70
0
 10
625228.8574220007
 20
4835002.12235942
 10
625253.7032627603
 20
4834925.921212786
 10
625359.9789096747
 20
4834956.199997225
 10
625391.1955620991
 20
4834859.670829087
  0
LWPOLYLINE
  5
FB
330
17
100
AcDbEntity
  8
ROADS
100
AcDbPolyline
 90
2
 70
0
 10
625228.8574220007
 20
4835002.12235942
 10
625165.8456604729
 20
4834981.003142562
  0
LWPOLYLINE
  5
FC
330
17
100
AcDbEntity
  8
ROADS
100
AcDbPolyline
 90
2
 70
0
 10
625368.0997147867
 20
4835044.80379317
 10
625228.8574220007
 20
4835002.12235942
  0
LWPOLYLINE
  5
FD
330
17
100
AcDbEntity
  8
ROADS
100
AcDbPolyline
 90
2
 70
0
 10
625496.7941128898
 20
4834974.375161658
 10
625467.9350812153
 20
4835073.309104861
  0
LWPOLYLINE
  5
FE
330
17
100
AcDbEntity
  8
ROADS
100
AcDbPolyline
 90
2
 70
0
 10
625467.9350812153
 20
4835073.309104861
 10
625368.0997147867
 20
4835044.80379317
  0
LWPOLYLINE
  5
FF
330
17
100
AcDbEntity
  8
ROADS
100
AcDbPolyline
 90
2
 70
0
 10
624415.3955235115
 20
4834850.726613424
 10
624407.2216337986
 20
4834887.816847742
  0
LWPOLYLINE
  5
100
330
17
100
AcDbEntity
  8
ROADS
100
AcDbPolyline
 90
2
 70
0
 10
624342.8547119376
 20
4834891.660537764
 10
624232.1202251331
 20
4834851.972761795
  0
LWPOLYLINE
  5
101
330
17
100
AcDbEntity
  8
ROADS
100
AcDbPolyline
 90
3
 70
0
 10
624150.2890637922
 20
4834778.93870937
 10
624195.4468705239
 20
4834793.907773259
 10
624138.8611239752
 20
4834968.045118046
  0
LWPOLYLINE
  5
102
330
17
100
AcDbEntity
  8
ROADS
100
AcDbPolyline
 90
2
 70
0
 10
624610.9226409479
 20
4834922.77789905
 10
624415.3955235115
 20
4834850.726613424
  0
LWPOLYLINE
  5
103
330
17
100
AcDbEntity
  8
ROADS
100
AcDbPolyline
 90
2
 70
0
 10
624407.2216337986
 20
4834887.816847742
 10
624342.8547119376
 20
4834891.660537764
  0
LWPOLYLINE
  5
104
330
17
100
AcDbEntity
  8
ROADS
100
AcDbPolyline
 90
4
 70
0
 10
624407.2216337986
 20
4834887.816847742
 10
624462.4296799547
 20
4834933.507259579
 10
624465.6122232836
 20
4834966.955586425
 10
624447.293747439
 20
4834995.693995281
  0
LWPOLYLINE
  5
105
330
17
100
AcDbEntity
  8
ROADS
100
AcDbPolyline
 90
3
 70
0
 10
624342.8547119376
 20
4834891.660537764
 10
624313.1179176469
 20
4834924.2007406335
 10
624276.0582639129
 20
4835038.695925141
  0
LWPOLYLINE
  5
106
330
17
100
AcDbEntity
  8
ROADS
100
AcDbPolyline
 90
2
 70
0
 10
624232.1202251331
 20
4834851.972761795
 10
624170.4803246676
 20
4835038.215551947
  0
LWPOLYLINE
  5
107
330
17
100
AcDbEntity
  8
ROADS
100
AcDbPolyline
 90
2
 70
0
 10
624361.1730843593
 20
4835012.182106823
 10
624375.3881954879
 20
4834953.467928332
  0
LWPOLYLINE
  5
108
330
17
100
AcDbEntity
  8
ROADS
100
AcDbPolyline
 90
2
 70
0
 10
624511.9489897444
 20
4835012.579652596
 10
624521.2890463966
 20
4834976.867564037
  0
LWPOLYLINE
  5
109
330
17
100
AcDbEntity
  8
ROADS
100
AcDbPolyline
 90
2
 70
0
 10
625169.0162712559
 20
4834935.118393781
 10
625095.2036264682
 20
4834908.31713676
  0
LWPOLYLINE
  5
10A
330
17
100
AcDbEntity
  8
ROADS
100
AcDbPolyline
 90
3
 70
0
 10
625034.8783507795
 20
4834904.772481517
 10
625024.5162430389
 20
4834927.981458929
 10
625071.473766945
 20
4834951.552590178
  0
LWPOLYLINE
  5
10B
330
17
100
AcDbEntity
  8
ROADS
100
AcDbPolyline
 90
2
 70
0
 10
625095.2036264682
 20
4834908.31713676
 10
625081.2742981225
 20
4834954.761927312
  0
LWPOLYLINE
  5
10C
330
17
100
AcDbEntity
  8
ROADS
100
AcDbPolyline
 90
2
 70
0
 10
625014.051290731
 20
4834934.308640924
 10
624996.7478860389
 20
4834929.022565248
  0
LWPOLYLINE
  5
10D
330
17
100
AcDbEntity
  8
ROADS
100
AcDbPolyline
 90
2
 70
0
 10
625169.0162712559
 20
4834935.118393781
 10
625179.1302046954
 20
4834942.013102432
  0
LWPOLYLINE
  5
10E
330
17
100
AcDbEntity
  8
ROADS
100
AcDbPolyline
 90
2
 70
0
 10
625071.473766945
 20
4834951.552590178
 10
625014.051290731
 20
4834934.308640924
  0
LWPOLYLINE
  5
10F
330
17
100
AcDbEntity
  8
ROADS
100
AcDbPolyline
 90
2
 70
0
 10
625014.051290731
 20
4834934.308640924
 10
624988.8351125361
 20
4834970.918848115
  0
LWPOLYLINE
  5
110
330
17
100
AcDbEntity
  8
ROADS
100
AcDbPolyline
 90
2
 70
0
 10
625081.2742981225
 20
4834954.761927312
 10
625071.473766945
 20
4834951.552590178
  0
LWPOLYLINE
  5
111
330
17
100
AcDbEntity
  8
ROADS
100
AcDbPolyline
 90
2
 70
0
 10
625169.0162712559
 20
4834935.118393781
 10
625139.8873467015
 20
4834973.361480309
  0
LWPOLYLINE
  5
112
330
17
100
AcDbEntity
  8
ROADS
100
AcDbPolyline
 90
3
 70
0
 10
624988.8351125361
 20
4834970.918848115
 10
625013.1182196715
 20
4834942.331218644
 10
625071.473766945
 20
4834951.552590178
  0
LWPOLYLINE
  5
113
330
17
100
AcDbEntity
  8
ROADS
100
AcDbPolyline
 90
2
 70
0
 10
624627.0706075763
 20
4834871.102993632
 10
624610.9226409479
 20
4834922.77789905
  0
LWPOLYLINE
  5
114
330
17
100
AcDbEntity
  8
ROADS
100
AcDbPolyline
 90
2
 70
0
 10
624787.8203270233
 20
4834865.849454064
 10
624764.8798692953
 20
4834972.740618119
  0
LWPOLYLINE
  5
115
330
17
100
AcDbEntity
  8
ROADS
100
AcDbPolyline
 90
2
 70
0
 10
624651.9636276045
 20
4834935.957487266
 10
624610.9226409479
 20
4834922.77789905
  0
LWPOLYLINE
  5
116
330
17
100
AcDbEntity
  8
ROADS
100
AcDbPolyline
 90
2
 70
0
 10
624725.243953475
 20
4834960.390465162
 10
624651.9636276045
 20
4834935.957487266
  0
LWPOLYLINE
  5
117
330
17
100
AcDbEntity
  8
ROADS
100
AcDbPolyline
 90
2
 70
0
 10
624764.8798692953
 20
4834972.740618119
 10
624725.243953475
 20
4834960.390465162
  0
LWPOLYLINE
  5
118
330
17
100
AcDbEntity
  8
ROADS
100
AcDbPolyline
 90
2
 70
0
 10
624610.9226409479
 20
4834922.77789905
 10
624580.9610981352
 20
4835018.256467602
  0
LWPOLYLINE
  5
119
330
17
100
AcDbEntity
  8
ROADS
100
AcDbPolyline
 90
3
 70
0
 10
624716.1123692383
 20
4835008.025994207
 10
624638.4126006317
 20
4834983.881133796
 10
624651.9636276045
 20
4834935.957487266
  0
LWPOLYLINE
  5
11A
330
17
100
AcDbEntity
  8
ROADS
100
AcDbPolyline
 90
2
 70
0
 10
624725.243953475
 20
4834960.390465162
 10
624716.1123692383
 20
4835008.025994207
  0
LWPOLYLINE
  5
11B
330
17
100
AcDbEntity
  8
ROADS
100
AcDbPolyline
 90
2
 70
0
 10
624580.9610981352
 20
4835018.256467602
 10
624570.6960521328
 20
4835019.555980032
  0
LWPOLYLINE
  5
11C
330
17
100
AcDbEntity
  8
ROADS
100
AcDbPolyline
 90
2
 70
0
 10
624764.8798692953
 20
4834972.740618119
 10
624745.9030858955
 20
4835069.425861702
  0
LWPOLYLINE
  5
11D
330
17
100
AcDbEntity
  8
ROADS
100
AcDbPolyline
 90
2
 70
0
 10
625139.8873467015
 20
4834973.361480309
 10
625081.2742981225
 20
4834954.761927312
  0
LWPOLYLINE
  5
11E
330
17
100
AcDbEntity
  8
ROADS
100
AcDbPolyline
 90
2
 70
0
 10
625071.473766945
 20
4834951.552590178
 10
625059.0780022828
 20
4834987.2385000205
  0
LWPOLYLINE
  5
11F
330
17
100
AcDbEntity
  8
ROADS
100
AcDbPolyline
 90
2
 70
0
 10
625165.8456604729
 20
4834981.003142562
 10
625139.8873467015
 20
4834973.361480309
  0
LWPOLYLINE
  5
120
330
17
100
AcDbEntity
  8
ROADS
100
AcDbPolyline
 90
2
 70
0
 10
625059.0780022828
 20
4834987.2385000205
 10
625055.4823272191
 20
4834998.5501304995
  0
LWPOLYLINE
  5
121
330
17
100
AcDbEntity
  8
ROADS
100
AcDbPolyline
 90
2
 70
0
 10
625059.0780022828
 20
4834987.2385000205
 10
625129.3359952577
 20
4835008.642714886
  0
LWPOLYLINE
  5
122
330
17
100
AcDbEntity
  8
ROADS
100
AcDbPolyline
 90
2
 70
0
 10
625165.8456604729
 20
4834981.003142562
 10
625151.2635669132
 20
4835028.815216553
  0
LWPOLYLINE
  5
123
330
17
100
AcDbEntity
  8
ROADS
100
AcDbPolyline
 90
2
 70
0
 10
625103.9372319282
 20
4835013.474860228
 10
625055.4823272191
 20
4834998.5501304995
  0
LWPOLYLINE
  5
124
330
17
100
AcDbEntity
  8
ROADS
100
AcDbPolyline
 90
2
 70
0
 10
625151.2635669132
 20
4835028.815216553
 10
625103.9372319282
 20
4835013.474860228
  0
LWPOLYLINE
  5
125
330
17
100
AcDbEntity
  8
ROADS
100
AcDbPolyline
 90
2
 70
0
 10
625151.2635669132
 20
4835028.815216553
 10
625176.7688649105
 20
4835037.479751483
  0
LWPOLYLINE
  5
126
330
17
100
AcDbEntity
  8
ROADS
100
AcDbPolyline
 90
2
 70
0
 10
624988.8351125361
 20
4834970.918848115
 10
624895.4771104611
 20
4835099.7228500135
  0
LWPOLYLINE
  5
127
330
17
100
AcDbEntity
  8
ROADS
100
AcDbPolyline
 90
2
 70
0
 10
624511.9489897444
 20
4835012.579652596
 10
624447.293747439
 20
4834995.693995281
  0
LWPOLYLINE
  5
128
330
17
100
AcDbEntity
  8
ROADS
100
AcDbPolyline
 90
2
 70
0
 10
624570.6960521328
 20
4835019.555980032
 10
624511.9489897444
 20
4835012.579652596
  0
LWPOLYLINE
  5
129
330
17
100
AcDbEntity
  8
ROADS
100
AcDbPolyline
 90
3
 70
0
 10
624361.1730843593
 20
4835012.182106823
 10
624337.7642750768
 20
4835005.132077416
 10
624322.0945055214
 20
4835053.477898749
  0
LWPOLYLINE
  5
12A
330
17
100
AcDbEntity
  8
ROADS
100
AcDbPolyline
 90
2
 70
0
 10
624447.293747439
 20
4834995.693995281
 10
624415.4936489937
 20
4835083.120843933
  0
LWPOLYLINE
  5
12B
330
17
100
AcDbEntity
  8
ROADS
100
AcDbPolyline
 90
3
 70
0
 10
624369.2073614981
 20
4835068.395345328
 10
624385.4216891999
 20
4835019.909854163
 10
624361.1730843593
 20
4835012.182106823
  0
LWPOLYLINE
  5
12C
330
17
100
AcDbEntity
  8
ROADS
100
AcDbPolyline
 90
2
 70
0
 10
624322.0945055214
 20
4835053.477898749
 10
624276.0582639129
 20
4835038.695925141
  0
LWPOLYLINE
  5
12D
330
17
100
AcDbEntity
  8
ROADS
100
AcDbPolyline
 90
2
 70
0
 10
624209.4178200855
 20
4835085.601941564
 10
624238.9005709805
 20
4834997.467046603
  0
LWPOLYLINE
  5
12E
330
17
100
AcDbEntity
  8
ROADS
100
AcDbPolyline
 90
2
 70
0
 10
624369.2073614981
 20
4835068.395345328
 10
624322.0945055214
 20
4835053.477898749
  0
LWPOLYLINE
  5
12F
330
17
100
AcDbEntity
  8
ROADS
100
AcDbPolyline
 90
2
 70
0
 10
624415.4936489937
 20
4835083.120843933
 10
624369.2073614981
 20
4835068.395345328
  0
LWPOLYLINE
  5
130
330
17
100
AcDbEntity
  8
ROADS
100
AcDbPolyline
 90
2
 70
0
 10
624276.0582639129
 20
4835038.695925141
 10
624248.4722445897
 20
4835127.1765090255
  0
LWPOLYLINE
  5
131
330
17
100
AcDbEntity
  8
ROADS
100
AcDbPolyline
 90
2
 70
0
 10
625176.7688649105
 20
4835037.479751483
 10
625169.3204333709
 20
4835061.240435481
  0
LWPOLYLINE
  5
132
330
17
100
AcDbEntity
  8
ROADS
100
AcDbPolyline
 90
2
 70
0
 10
625151.2635669132
 20
4835028.815216553
 10
625135.5689998448
 20
4835076.207153111
  0
LWPOLYLINE
  5
133
330
17
100
AcDbEntity
  8
ROADS
100
AcDbPolyline
 90
2
 70
0
 10
625055.4823272191
 20
4834998.5501304995
 10
625013.3852561273
 20
4835134.62169571
  0
LWPOLYLINE
  5
134
330
17
100
AcDbEntity
  8
ROADS
100
AcDbPolyline
 90
2
 70
0
 10
625169.3204333709
 20
4835061.240435481
 10
625162.2415009157
 20
4835084.227754654
  0
LWPOLYLINE
  5
135
330
17
100
AcDbEntity
  8
ROADS
100
AcDbPolyline
 90
2
 70
0
 10
625135.5689998448
 20
4835076.207153111
 10
625162.2415009157
 20
4835084.227754654
  0
LWPOLYLINE
  5
136
330
17
100
AcDbEntity
  8
ROADS
100
AcDbPolyline
 90
2
 70
0
 10
624966.3043412636
 20
4835120.587838979
 10
624895.4771104611
 20
4835099.7228500135
  0
LWPOLYLINE
  5
137
330
17
100
AcDbEntity
  8
ROADS
100
AcDbPolyline
 90
2
 70
0
 10
625103.9372319282
 20
4835013.474860228
 10
625032.8956498886
 20
4835240.539258124
  0
LWPOLYLINE
  5
138
330
17
100
AcDbEntity
  8
ROADS
100
AcDbPolyline
 90
2
 70
0
 10
625013.3852561273
 20
4835134.62169571
 10
624966.3043412636
 20
4835120.587838979
  0
LWPOLYLINE
  5
139
330
17
100
AcDbEntity
  8
ROADS
100
AcDbPolyline
 90
2
 70
0
 10
624966.3043412636
 20
4835120.587838979
 10
624951.9024874922
 20
4835165.509977385
  0
LWPOLYLINE
  5
13A
330
17
100
AcDbEntity
  8
ROADS
100
AcDbPolyline
 90
2
 70
0
 10
625135.5689998448
 20
4835076.207153111
 10
625084.9484287661
 20
4835233.132820199
  0
LWPOLYLINE
  5
13B
330
17
100
AcDbEntity
  8
ROADS
100
AcDbPolyline
 90
2
 70
0
 10
624616.6049379755
 20
4835029.491398394
 10
624580.9610981352
 20
4835018.256467602
  0
LWPOLYLINE
  5
13C
330
17
100
AcDbEntity
  8
ROADS
100
AcDbPolyline
 90
2
 70
0
 10
624716.1123692383
 20
4835008.025994207
 10
624706.7859957018
 20
4835057.585104386
  0
LWPOLYLINE
  5
13D
330
17
100
AcDbEntity
  8
ROADS
100
AcDbPolyline
 90
2
 70
0
 10
624661.2144954258
 20
4835044.1435880475
 10
624616.6049379755
 20
4835029.491398394
  0
LWPOLYLINE
  5
13E
330
17
100
AcDbEntity
  8
ROADS
100
AcDbPolyline
 90
2
 70
0
 10
624706.7859957018
 20
4835057.585104386
 10
624661.2144954258
 20
4835044.1435880475
  0
LWPOLYLINE
  5
13F
330
17
100
AcDbEntity
  8
ROADS
100
AcDbPolyline
 90
2
 70
0
 10
624745.9030858955
 20
4835069.425861702
 10
624706.7859957018
 20
4835057.585104386
  0
LWPOLYLINE
  5
140
330
17
100
AcDbEntity
  8
ROADS
100
AcDbPolyline
 90
2
 70
0
 10
624570.6960521328
 20
4835019.555980032
 10
624539.8858183669
 20
4835110.919965081
  0
LWPOLYLINE
  5
141
330
17
100
AcDbEntity
  8
ROADS
100
AcDbPolyline
 90
2
 70
0
 10
624616.6049379755
 20
4835029.491398394
 10
624552.1615522762
 20
4835223.599959716
  0
LWPOLYLINE
  5
142
330
17
100
AcDbEntity
  8
ROADS
100
AcDbPolyline
 90
2
 70
0
 10
624895.4771104611
 20
4835099.7228500135
 10
624835.9960652144
 20
4835179.424990014
  0
LWPOLYLINE
  5
143
330
17
100
AcDbEntity
  8
ROADS
100
AcDbPolyline
 90
2
 70
0
 10
624661.2144954258
 20
4835044.1435880475
 10
624597.3605030978
 20
4835237.456784212
  0
LWPOLYLINE
  5
144
330
17
100
AcDbEntity
  8
ROADS
100
AcDbPolyline
 90
2
 70
0
 10
624706.7859957018
 20
4835057.585104386
 10
624637.7087798695
 20
4835249.981352666
  0
LWPOLYLINE
  5
145
330
17
100
AcDbEntity
  8
ROADS
100
AcDbPolyline
 90
3
 70
0
 10
625176.7688649105
 20
4835037.479751483
 10
625260.6999190332
 20
4835063.543410036
 10
625253.5080770351
 20
4835087.299737543
  0
LWPOLYLINE
  5
146
330
17
100
AcDbEntity
  8
ROADS
100
AcDbPolyline
 90
2
 70
0
 10
625253.5080770351
 20
4835087.299737543
 10
625169.3204333709
 20
4835061.240435481
  0
LWPOLYLINE
  5
147
330
17
100
AcDbEntity
  8
ROADS
100
AcDbPolyline
 90
2
 70
0
 10
625162.2415009157
 20
4835084.227754654
 10
625246.4916597861
 20
4835110.369196677
  0
LWPOLYLINE
  5
148
330
17
100
AcDbEntity
  8
ROADS
100
AcDbPolyline
 90
2
 70
0
 10
625253.5080770351
 20
4835087.299737543
 10
625246.4916597861
 20
4835110.369196677
  0
LWPOLYLINE
  5
149
330
17
100
AcDbEntity
  8
ROADS
100
AcDbPolyline
 90
3
 70
0
 10
625246.4916597861
 20
4835110.369196677
 10
625290.5996061726
 20
4835124.228310965
 10
625286.5356472812
 20
4835134.447421336
  0
LWPOLYLINE
  5
14A
330
17
100
AcDbEntity
  8
ROADS
100
AcDbPolyline
 90
2
 70
0
 10
625450.5317690552
 20
4835120.884024979
 10
625362.7429454128
 20
4835092.957677564
  0
LWPOLYLINE
  5
14B
330
17
100
AcDbEntity
  8
ROADS
100
AcDbPolyline
 90
3
 70
0
 10
625286.5356472812
 20
4835134.447421336
 10
625297.5772083367
 20
4835161.833559476
 10
625274.1599475702
 20
4835173.004871751
  0
LWPOLYLINE
  5
14C
330
17
100
AcDbEntity
  8
ROADS
100
AcDbPolyline
 90
2
 70
0
 10
625286.5356472812
 20
4835134.447421336
 10
625274.1599475702
 20
4835173.004871751
  0
LWPOLYLINE
  5
14D
330
17
100
AcDbEntity
  8
ROADS
100
AcDbPolyline
 90
2
 70
0
 10
625274.1599475702
 20
4835173.004871751
 10
625264.4091180557
 20
4835204.441369939
  0
LWPOLYLINE
  5
14E
330
17
100
AcDbEntity
  8
ROADS
100
AcDbPolyline
 90
3
 70
0
 10
625405.7564934521
 20
4835161.300829186
 10
625394.3741986006
 20
4835157.821137245
 10
625385.678759977
 20
4835177.829977361
  0
LWPOLYLINE
  5
14F
330
17
100
AcDbEntity
  8
ROADS
100
AcDbPolyline
 90
2
 70
0
 10
624951.9024874922
 20
4835165.509977385
 10
624908.0337430054
 20
4835152.030215795
  0
LWPOLYLINE
  5
150
330
17
100
AcDbEntity
  8
ROADS
100
AcDbPolyline
 90
2
 70
0
 10
625126.3654495772
 20
4835246.314261912
 10
625167.9455839505
 20
4835108.747235783
  0
LWPOLYLINE
  5
151
330
17
100
AcDbEntity
  8
ROADS
100
AcDbPolyline
 90
2
 70
0
 10
625013.3852561273
 20
4835134.62169571
 10
624985.2843005129
 20
4835225.8087583715
  0
LWPOLYLINE
  5
152
330
17
100
AcDbEntity
  8
ROADS
100
AcDbPolyline
 90
2
 70
0
 10
625208.2385087071
 20
4835112.305806353
 10
625160.0963096297
 20
4835257.047124615
  0
LWPOLYLINE
  5
153
330
17
100
AcDbEntity
  8
ROADS
100
AcDbPolyline
 90
2
 70
0
 10
624951.9024874922
 20
4835165.509977385
 10
624937.9935791295
 20
4835210.381020288
  0
LWPOLYLINE
  5
154
330
17
100
AcDbEntity
  8
ROADS
100
AcDbPolyline
 90
2
 70
0
 10
624937.9935791295
 20
4835210.381020288
 10
624875.0760715602
 20
4835191.132588186
  0
LWPOLYLINE
  5
155
330
17
100
AcDbEntity
  8
ROADS
100
AcDbPolyline
 90
2
 70
0
 10
624985.2843005129
 20
4835225.8087583715
 10
624937.9935791295
 20
4835210.381020288
  0
LWPOLYLINE
  5
156
330
17
100
AcDbEntity
  8
ROADS
100
AcDbPolyline
 90
2
 70
0
 10
625032.8956498886
 20
4835240.539258124
 10
624985.2843005129
 20
4835225.8087583715
  0
LWPOLYLINE
  5
157
330
17
100
AcDbEntity
  8
ROADS
100
AcDbPolyline
 90
2
 70
0
 10
625126.3654495772
 20
4835246.314261912
 10
625084.9484287661
 20
4835233.132820199
  0
LWPOLYLINE
  5
158
330
17
100
AcDbEntity
  8
ROADS
100
AcDbPolyline
 90
2
 70
0
 10
625084.9484287661
 20
4835233.132820199
 10
625077.6176715066
 20
4835253.730444995
  0
LWPOLYLINE
  5
159
330
17
100
AcDbEntity
  8
ROADS
100
AcDbPolyline
 90
2
 70
0
 10
625659.8688022093
 20
4834594.290201645
 10
625619.9651517469
 20
4834729.852679363
  0
LWPOLYLINE
  5
15A
330
17
100
AcDbEntity
  8
ROADS
100
AcDbPolyline
 90
2
 70
0
 10
625726.977271461
 20
4834664.993692377
 10
625693.0879150705
 20
4834654.858124517
  0
LWPOLYLINE
  5
15B
330
17
100
AcDbEntity
  8
ROADS
100
AcDbPolyline
 90
2
 70
0
 10
625536.666380264
 20
4834709.9928604
 10
625547.9061528805
 20
4834673.582953337
  0
LWPOLYLINE
  5
15C
330
17
100
AcDbEntity
  8
ROADS
100
AcDbPolyline
 90
2
 70
0
 10
625693.0879150705
 20
4834654.858124517
 10
625666.0633416908
 20
4834744.150758394
  0
LWPOLYLINE
  5
15D
330
17
100
AcDbEntity
  8
ROADS
100
AcDbPolyline
 90
2
 70
0
 10
625536.666380264
 20
4834709.9928604
 10
625512.3388055195
 20
4834703.0327267125
  0
LWPOLYLINE
  5
15E
330
17
100
AcDbEntity
  8
ROADS
100
AcDbPolyline
 90
2
 70
0
 10
625575.8448031656
 20
4834719.276567375
 10
625536.666380264
 20
4834709.9928604
  0
LWPOLYLINE
  5
15F
330
17
100
AcDbEntity
  8
ROADS
100
AcDbPolyline
 90
2
 70
0
 10
625619.9651517469
 20
4834729.852679363
 10
625575.8448031656
 20
4834719.276567375
  0
LWPOLYLINE
  5
160
330
17
100
AcDbEntity
  8
ROADS
100
AcDbPolyline
 90
2
 70
0
 10
625536.666380264
 20
4834709.9928604
 10
625524.8561405946
 20
4834749.690640487
  0
LWPOLYLINE
  5
161
330
17
100
AcDbEntity
  8
ROADS
100
AcDbPolyline
 90
2
 70
0
 10
625666.0633416908
 20
4834744.150758394
 10
625619.9651517469
 20
4834729.852679363
  0
LWPOLYLINE
  5
162
330
17
100
AcDbEntity
  8
ROADS
100
AcDbPolyline
 90
2
 70
0
 10
625575.8448031656
 20
4834719.276567375
 10
625551.4521894235
 20
4834799.119201935
  0
LWPOLYLINE
  5
163
330
17
100
AcDbEntity
  8
ROADS
100
AcDbPolyline
 90
2
 70
0
 10
625666.0633416908
 20
4834744.150758394
 10
625655.6107991969
 20
4834778.834807138
  0
LWPOLYLINE
  5
164
330
17
100
AcDbEntity
  8
ROADS
100
AcDbPolyline
 90
2
 70
0
 10
625524.8561405946
 20
4834749.690640487
 10
625515.2731184831
 20
4834788.000097966
  0
LWPOLYLINE
  5
165
330
17
100
AcDbEntity
  8
ROADS
100
AcDbPolyline
 90
2
 70
0
 10
625684.9371034942
 20
4834787.683006065
 10
625655.6107991969
 20
4834778.834807138
  0
LWPOLYLINE
  5
166
330
17
100
AcDbEntity
  8
ROADS
100
AcDbPolyline
 90
2
 70
0
 10
625551.4521894235
 20
4834799.119201935
 10
625515.2731184831
 20
4834788.000097966
  0
LWPOLYLINE
  5
167
330
17
100
AcDbEntity
  8
ROADS
100
AcDbPolyline
 90
3
 70
0
 10
625515.2731184831
 20
4834788.000097966
 10
625496.3736656836
 20
4834871.169697685
 10
625525.5235925217
 20
4834883.989346515
  0
LWPOLYLINE
  5
168
330
17
100
AcDbEntity
  8
ROADS
100
AcDbPolyline
 90
2
 70
0
 10
625551.4521894235
 20
4834799.119201935
 10
625525.5235925217
 20
4834883.989346515
  0
LWPOLYLINE
  5
169
330
17
100
AcDbEntity
  8
ROADS
100
AcDbPolyline
 90
2
 70
0
 10
625619.9651517469
 20
4834729.852679363
 10
625541.5071038207
 20
4834988.125198658
  0
LWPOLYLINE
  5
16A
330
17
100
AcDbEntity
  8
ROADS
100
AcDbPolyline
 90
2
 70
0
 10
625655.6107991969
 20
4834778.834807138
 10
625612.0160241581
 20
4834920.268155471
  0
LWPOLYLINE
  5
16B
330
17
100
AcDbEntity
  8
ROADS
100
AcDbPolyline
 90
2
 70
0
 10
625525.5235925217
 20
4834883.989346515
 10
625496.7941128898
 20
4834974.375161658
  0
LWPOLYLINE
  5
16C
330
17
100
AcDbEntity
  8
ROADS
100
AcDbPolyline
 90
2
 70
0
 10
625541.5071038207
 20
4834988.125198658
 10
625496.7941128898
 20
4834974.375161658
  0
LWPOLYLINE
  5
16D
330
17
100
AcDbEntity
  8
ROADS
100
AcDbPolyline
 90
2
 70
0
 10
625556.8960743895
 20
4834992.858079859
 10
625541.5071038207
 20
4834988.125198658
  0
LWPOLYLINE
  5
16E
330
17
100
AcDbEntity
  8
ROADS
100
AcDbPolyline
 90
2
 70
0
 10
625490.132859714
 20
4835080.286280116
 10
625467.9350812153
 20
4835073.309104861
  0
LWPOLYLINE
  5
16F
330
17
100
AcDbEntity
  8
ROADS
100
AcDbPolyline
 90
2
 70
0
 10
624745.9030858955
 20
4835069.425861702
 10
624683.1897962888
 20
4835264.416814534
  0
LWPOLYLINE
  5
170
330
17
100
AcDbEntity
  8
ROADS
100
AcDbPolyline
 90
2
 70
0
 10
624875.0760715602
 20
4835191.132588186
 10
624835.9960652144
 20
4835179.424990014
  0
LWPOLYLINE
  5
171
330
17
100
AcDbEntity
  8
ROADS
100
AcDbPolyline
 90
2
 70
0
 10
624597.3605030978
 20
4835237.456784212
 10
624552.1615522762
 20
4835223.599959716
  0
LWPOLYLINE
  5
172
330
17
100
AcDbEntity
  8
ROADS
100
AcDbPolyline
 90
2
 70
0
 10
624637.7087798695
 20
4835249.981352666
 10
624597.3605030978
 20
4835237.456784212
  0
LWPOLYLINE
  5
173
330
17
100
AcDbEntity
  8
ROADS
100
AcDbPolyline
 90
2
 70
0
 10
624835.9960652144
 20
4835179.424990014
 10
624722.0684233408
 20
4835332.041826457
  0
LWPOLYLINE
  5
174
330
17
100
AcDbEntity
  8
ROADS
100
AcDbPolyline
 90
2
 70
0
 10
624683.1897962888
 20
4835264.416814534
 10
624637.7087798695
 20
4835249.981352666
  0
LWPOLYLINE
  5
175
330
17
100
AcDbEntity
  8
ROADS
100
AcDbPolyline
 90
2
 70
0
 10
624637.7087798695
 20
4835249.981352666
 10
624615.8934280314
 20
4835296.817027943
  0
LWPOLYLINE
  5
176
330
17
100
AcDbEntity
  8
ROADS
100
AcDbPolyline
 90
2
 70
0
 10
624821.5877006121
 20
4835359.266888088
 10
624875.0760715602
 20
4835191.132588186
  0
LWPOLYLINE
  5
177
330
17
100
AcDbEntity
  8
ROADS
100
AcDbPolyline
 90
2
 70
0
 10
624683.1897962888
 20
4835264.416814534
 10
624663.2531959256
 20
4835315.116168531
  0
LWPOLYLINE
  5
178
330
17
100
AcDbEntity
  8
ROADS
100
AcDbPolyline
 90
4
 70
0
 10
624699.4418255724
 20
4835329.296142464
 10
624671.384014216
 20
4835318.580342172
 10
624683.6018986232
 20
4835298.1561002275
 10
624663.2531959256
 20
4835315.116168531
  0
LWPOLYLINE
  5
179
330
17
100
AcDbEntity
  8
ROADS
100
AcDbPolyline
 90
2
 70
0
 10
625264.4091180557
 20
4835204.441369939
 10
625287.7315385696
 20
4835196.137506917
  0
LWPOLYLINE
  5
17A
330
17
100
AcDbEntity
  8
ROADS
100
AcDbPolyline
 90
2
 70
0
 10
625264.4091180557
 20
4835204.441369939
 10
625241.3206603011
 20
4835269.791724914
  0
LWPOLYLINE
  5
17B
330
17
100
AcDbEntity
  8
ROADS
100
AcDbPolyline
 90
2
 70
0
 10
625227.8468014675
 20
4835277.056274987
 10
625203.5044814509
 20
4835269.563029632
  0
LWPOLYLINE
  5
17C
330
17
100
AcDbEntity
  8
ROADS
100
AcDbPolyline
 90
2
 70
0
 10
624552.1615522762
 20
4835223.599959716
 10
624507.7183407772
 20
4835209.70479847
  0
LWPOLYLINE
  5
17D
330
17
100
AcDbEntity
  8
ROADS
100
AcDbPolyline
 90
2
 70
0
 10
624386.3951841714
 20
4835174.723737679
 10
624370.6842383264
 20
4835225.316253274
  0
LWPOLYLINE
  5
17E
330
17
100
AcDbEntity
  8
ROADS
100
AcDbPolyline
 90
2
 70
0
 10
624615.8934280314
 20
4835296.817027943
 10
624433.66024949
 20
4835243.2888347795
  0
LWPOLYLINE
  5
17F
330
17
100
AcDbEntity
  8
ROADS
100
AcDbPolyline
 90
2
 70
0
 10
625077.6176715066
 20
4835253.730444995
 10
625032.8956498886
 20
4835240.539258124
  0
LWPOLYLINE
  5
180
330
17
100
AcDbEntity
  8
ROADS
100
AcDbPolyline
 90
2
 70
0
 10
625160.0963096297
 20
4835257.047124615
 10
625126.3654495772
 20
4835246.314261912
  0
LWPOLYLINE
  5
181
330
17
100
AcDbEntity
  8
ROADS
100
AcDbPolyline
 90
2
 70
0
 10
625203.5044814509
 20
4835269.563029632
 10
625160.0963096297
 20
4835257.047124615
  0
LWPOLYLINE
  5
182
330
17
100
AcDbEntity
  8
ROADS
100
AcDbPolyline
 90
2
 70
0
 10
624937.9935791295
 20
4835210.381020288
 10
624899.0633703743
 20
4835334.296092628
  0
LWPOLYLINE
  5
183
330
17
100
AcDbEntity
  8
ROADS
100
AcDbPolyline
 90
2
 70
0
 10
624985.2843005129
 20
4835225.8087583715
 10
624941.9090452094
 20
4835359.493981678
  0
LWPOLYLINE
  5
184
330
17
100
AcDbEntity
  8
ROADS
100
AcDbPolyline
 90
2
 70
0
 10
625032.8956498886
 20
4835240.539258124
 10
624998.4644869508
 20
4835350.284327046
  0
LWPOLYLINE
  5
185
330
17
100
AcDbEntity
  8
ROADS
100
AcDbPolyline
 90
2
 70
0
 10
625077.6176715066
 20
4835253.730444995
 10
625052.2240445396
 20
4835339.092287412
  0
LWPOLYLINE
  5
186
330
17
100
AcDbEntity
  8
ROADS
100
AcDbPolyline
 90
2
 70
0
 10
625196.7613416648
 20
4835291.133086823
 10
625203.5044814509
 20
4835269.563029632
  0
LWPOLYLINE
  5
187
330
17
100
AcDbEntity
  8
ROADS
100
AcDbPolyline
 90
2
 70
0
 10
625160.0963096297
 20
4835257.047124615
 10
625143.2704761568
 20
4835313.001327499
  0
LWPOLYLINE
  5
188
330
17
100
AcDbEntity
  8
ROADS
100
AcDbPolyline
 90
2
 70
0
 10
624615.8934280314
 20
4835296.817027943
 10
624605.0073597092
 20
4835330.750684297
  0
LWPOLYLINE
  5
189
330
17
100
AcDbEntity
  8
ROADS
100
AcDbPolyline
 90
2
 70
0
 10
624699.4418255724
 20
4835329.296142464
 10
624722.0684233408
 20
4835332.041826457
  0
LWPOLYLINE
  5
18A
330
17
100
AcDbEntity
  8
ROADS
100
AcDbPolyline
 90
2
 70
0
 10
624663.2531959256
 20
4835315.116168531
 10
624644.9187860125
 20
4835341.400358117
  0
LWPOLYLINE
  5
18B
330
17
100
AcDbEntity
  8
ROADS
100
AcDbPolyline
 90
2
 70
0
 10
624742.8882835356
 20
4835338.418547577
 10
624722.0684233408
 20
4835332.041826457
  0
LWPOLYLINE
  5
18C
330
17
100
AcDbEntity
  8
ROADS
100
AcDbPolyline
 90
2
 70
0
 10
624821.5877006121
 20
4835359.266888088
 10
624742.8882835356
 20
4835338.418547577
  0
LWPOLYLINE
  5
18D
330
17
100
AcDbEntity
  8
ROADS
100
AcDbPolyline
 90
2
 70
0
 10
624842.8195434924
 20
4835365.997602862
 10
624821.5877006121
 20
4835359.266888088
  0
LWPOLYLINE
  5
18E
330
17
100
AcDbEntity
  8
ROADS
100
AcDbPolyline
 90
2
 70
0
 10
624731.5845401089
 20
4835358.59860432
 10
624742.8882835356
 20
4835338.418547577
  0
LWPOLYLINE
  5
18F
330
17
100
AcDbEntity
  8
ROADS
100
AcDbPolyline
 90
2
 70
0
 10
624722.0684233408
 20
4835332.041826457
 10
624706.4199984877
 20
4835354.375770621
  0
LWPOLYLINE
  5
190
330
17
100
AcDbEntity
  8
ROADS
100
AcDbPolyline
 90
18
 70
0
 10
624388.6705351158
 20
4832724.799936172
 10
624406.1233375631
 20
4832735.402810178
 10
624511.1749910634
 20
4832736.785155177
 10
624602.8047390295
 20
4832768.9486318035
 10
624716.0657769518
 20
4832750.747265362
 10
624803.524025925
 20
4832697.648726636
 10
624942.6793511843
 20
4832665.84447698
 10
625041.977958722
 20
4832672.589140808
 10
625099.3160321163
 20
4832632.582999269
 10
625217.0004261778
 20
4832675.370892234
 10
625520.5882644885
 20
4832527.843244188
 10
625520.4762503114
 20
4832512.292337438
 10
625577.0302236023
 20
4832480.151390304
 10
625674.9958903941
 20
4832507.874124097
 10
625744.7948974686
 20
4832500.955934593
 10
625838.5604534828
 20
4832430.993157484
 10
625838.3506891725
 20
4832395.227303384
 10
625889.7299637917
 20
4832363.313814422
  0
LWPOLYLINE
  5
191
330
17
100
AcDbEntity
  8
ROADS
100
AcDbPolyline
 90
4
 70
0
 10
625232.9979643928
 20
4832721.231526769
 10
625385.4289749942
 20
4832719.52782751
 10
625604.326351414
 20
4832595.177163919
 10
625676.6939793122
 20
4832578.823867618
  0
LWPOLYLINE
  5
192
330
17
100
AcDbEntity
  8
ROADS
100
AcDbPolyline
 90
2
 70
0
 10
625175.8263963896
 20
4832682.85480864
 10
625212.7784179562
 20
4832705.685295254
  0
LWPOLYLINE
  5
193
330
17
100
AcDbEntity
  8
ROADS
100
AcDbPolyline
 90
2
 70
0
 10
625212.7784179562
 20
4832705.685295254
 10
625215.3707919169
 20
4832715.91071007
  0
LWPOLYLINE
  5
194
330
17
100
AcDbEntity
  8
ROADS
100
AcDbPolyline
 90
2
 70
0
 10
625212.7784179562
 20
4832705.685295254
 10
625183.7544212127
 20
4832718.019526744
  0
LWPOLYLINE
  5
195
330
17
100
AcDbEntity
  8
ROADS
100
AcDbPolyline
 90
2
 70
0
 10
625212.7784179562
 20
4832705.685295254
 10
625232.9979643928
 20
4832721.231526769
  0
LWPOLYLINE
  5
196
330
17
100
AcDbEntity
  8
ROADS
100
AcDbPolyline
 90
2
 70
0
 10
625183.7544212127
 20
4832718.019526744
 10
625215.3707919169
 20
4832715.91071007
  0
LWPOLYLINE
  5
197
330
17
100
AcDbEntity
  8
ROADS
100
AcDbPolyline
 90
2
 70
0
 10
625215.3707919169
 20
4832715.91071007
 10
625232.9979643928
 20
4832721.231526769
  0
LWPOLYLINE
  5
198
330
17
100
AcDbEntity
  8
ROADS
100
AcDbPolyline
 90
2
 70
0
 10
625232.9979643928
 20
4832721.231526769
 10
625206.7663342762
 20
4832721.443538353
  0
LWPOLYLINE
  5
199
330
17
100
AcDbEntity
  8
ROADS
100
AcDbPolyline
 90
3
 70
0
 10
625442.7700012133
 20
4832708.969370366
 10
625368.4762773986
 20
4832735.0643709805
 10
625292.0596088984
 20
4832729.02519577
  0
LWPOLYLINE
  5
19A
330
17
100
AcDbEntity
  8
ROADS
100
AcDbPolyline
 90
2
 70
0
 10
624741.7892639735
 20
4832754.78230622
 10
624847.4269447572
 20
4832708.577639878
  0
LWPOLYLINE
  5
19B
330
17
100
AcDbEntity
  8
ROADS
100
AcDbPolyline
 90
2
 70
0
 10
624847.4269447572
 20
4832708.577639878
 10
624858.9688251729
 20
4832762.3551464565
  0
LWPOLYLINE
  5
19C
330
17
100
AcDbEntity
  8
ROADS
100
AcDbPolyline
 90
3
 70
0
 10
624449.4366197909
 20
4832761.24886105
 10
624596.3028312593
 20
4832778.774673387
 10
624741.7892639735
 20
4832754.78230622
  0
LWPOLYLINE
  5
19D
330
17
100
AcDbEntity
  8
ROADS
100
AcDbPolyline
 90
2
 70
0
 10
624741.7892639735
 20
4832754.78230622
 10
624740.6507756686
 20
4832812.940900952
  0
LWPOLYLINE
  5
19E
330
17
100
AcDbEntity
  8
ROADS
100
AcDbPolyline
 90
3
 70
0
 10
624429.106908469
 20
4832805.77688759
 10
624596.0010883326
 20
4832822.367576082
 10
624740.6507756686
 20
4832812.940900952
  0
LWPOLYLINE
  5
19F
330
17
100
AcDbEntity
  8
ROADS
100
AcDbPolyline
 90
2
 70
0
 10
624842.8644421683
 20
4832813.295930818
 10
624617.2453629602
 20
4832838.519836593
  0
LWPOLYLINE
  5
1A0
330
17
100
AcDbEntity
  8
ROADS
100
AcDbPolyline
 90
2
 70
0
 10
624842.8644421683
 20
4832813.295930818
 10
624739.0362134342
 20
4832870.492859645
  0
LWPOLYLINE
  5
1A1
330
17
100
AcDbEntity
  8
ROADS
100
AcDbPolyline
 90
3
 70
0
 10
624617.2453629602
 20
4832838.519836593
 10
624709.5868057774
 20
4832841.816141868
 10
624739.0362134342
 20
4832870.492859645
  0
LWPOLYLINE
  5
1A2
330
17
100
AcDbEntity
  8
ROADS
100
AcDbPolyline
 90
2
 70
0
 10
624739.0362134342
 20
4832870.492859645
 10
624605.9787272511
 20
4832868.017341091
  0
LWPOLYLINE
  5
1A3
330
17
100
AcDbEntity
  8
ROADS
100
AcDbPolyline
 90
2
 70
0
 10
624919.343129335
 20
4832868.497943146
 10
624739.0362134342
 20
4832870.492859645
  0
LWPOLYLINE
  5
1A4
330
17
100
AcDbEntity
  8
ROADS
100
AcDbPolyline
 90
2
 70
0
 10
625292.0596088984
 20
4832729.02519577
 10
625232.9979643928
 20
4832721.231526769
  0
LWPOLYLINE
  5
1A5
330
17
100
AcDbEntity
  8
ROADS
100
AcDbPolyline
 90
2
 70
0
 10
625232.9979643928
 20
4832721.231526769
 10
625186.6618713867
 20
4832736.183076936
  0
LWPOLYLINE
  5
1A6
330
17
100
AcDbEntity
  8
ROADS
100
AcDbPolyline
 90
3
 70
0
 10
625442.7700012133
 20
4832708.969370366
 10
625404.1964510224
 20
4832738.874043433
 10
625330.8584548522
 20
4832763.410216623
  0
LWPOLYLINE
  5
1A7
330
17
100
AcDbEntity
  8
ROADS
100
AcDbPolyline
 90
3
 70
0
 10
625292.0596088984
 20
4832729.02519577
 10
625326.4014536464
 20
4832744.995644095
 10
625330.8584548522
 20
4832763.410216623
  0
LWPOLYLINE
  5
1A8
330
17
100
AcDbEntity
  8
ROADS
100
AcDbPolyline
 90
2
 70
0
 10
625232.9979643928
 20
4832721.231526769
 10
625250.767632384
 20
4832788.691397025
  0
LWPOLYLINE
  5
1A9
330
17
100
AcDbEntity
  8
ROADS
100
AcDbPolyline
 90
2
 70
0
 10
625330.8584548522
 20
4832763.410216623
 10
625250.767632384
 20
4832788.691397025
  0
LWPOLYLINE
  5
1AA
330
17
100
AcDbEntity
  8
ROADS
100
AcDbPolyline
 90
2
 70
0
 10
625491.7787690889
 20
4832808.36158116
 10
625491.7250658326
 20
4832827.824714192
  0
LWPOLYLINE
  5
1AB
330
17
100
AcDbEntity
  8
ROADS
100
AcDbPolyline
 90
2
 70
0
 10
625250.767632384
 20
4832788.691397025
 10
625273.7673833767
 20
4832858.5049151955
  0
LWPOLYLINE
  5
1AC
330
17
100
AcDbEntity
  8
ROADS
100
AcDbPolyline
 90
3
 70
0
 10
625491.7787690889
 20
4832808.36158116
 10
625387.8302268905
 20
4832852.891737131
 10
625386.4099266173
 20
4832878.415511166
  0
LWPOLYLINE
  5
1AD
330
17
100
AcDbEntity
  8
ROADS
100
AcDbPolyline
 90
2
 70
0
 10
625491.7250658326
 20
4832827.824714192
 10
625386.4099266173
 20
4832878.415511166
  0
LWPOLYLINE
  5
1AE
330
17
100
AcDbEntity
  8
ROADS
100
AcDbPolyline
 90
2
 70
0
 10
624449.4366197909
 20
4832761.24886105
 10
624429.106908469
 20
4832805.77688759
  0
LWPOLYLINE
  5
1AF
330
17
100
AcDbEntity
  8
ROADS
100
AcDbPolyline
 90
2
 70
0
 10
624367.7196101913
 20
4832789.276906703
 10
624429.106908469
 20
4832805.77688759
  0
LWPOLYLINE
  5
1B0
330
17
100
AcDbEntity
  8
ROADS
100
AcDbPolyline
 90
3
 70
0
 10
624617.2453629602
 20
4832838.519836593
 10
624469.5125232721
 20
4832831.042376168
 10
624362.2962674751
 20
4832805.967373101
  0
LWPOLYLINE
  5
1B1
330
17
100
AcDbEntity
  8
ROADS
100
AcDbPolyline
 90
3
 70
0
 10
624605.9787272511
 20
4832868.017341091
 10
624461.3734984365
 20
4832858.744788301
 10
624353.351222209
 20
4832833.4959629895
  0
LWPOLYLINE
  5
1B2
330
17
100
AcDbEntity
  8
ROADS
100
AcDbPolyline
 90
2
 70
0
 10
624693.0530427339
 20
4833017.841935908
 10
624312.0534267535
 20
4832994.185823707
  0
LWPOLYLINE
  5
1B3
330
17
100
AcDbEntity
  8
ROADS
100
AcDbPolyline
 90
3
 70
0
 10
624847.4269447572
 20
4832708.577639878
 10
625108.7638705074
 20
4832669.035742158
 10
625175.8263963896
 20
4832682.85480864
  0
LWPOLYLINE
  5
1B4
330
17
100
AcDbEntity
  8
ROADS
100
AcDbPolyline
 90
2
 70
0
 10
625183.7544212127
 20
4832718.019526744
 10
625175.8263963896
 20
4832682.85480864
  0
LWPOLYLINE
  5
1B5
330
17
100
AcDbEntity
  8
ROADS
100
AcDbPolyline
 90
2
 70
0
 10
625186.6618713867
 20
4832736.183076936
 10
625183.7544212127
 20
4832718.019526744
  0
LWPOLYLINE
  5
1B6
330
17
100
AcDbEntity
  8
ROADS
100
AcDbPolyline
 90
4
 70
0
 10
624740.6507756686
 20
4832812.940900952
 10
624775.8698149654
 20
4832793.814268716
 10
624853.7702050916
 20
4832797.072109957
 10
625183.7544212127
 20
4832718.019526744
  0
LWPOLYLINE
  5
1B7
330
17
100
AcDbEntity
  8
ROADS
100
AcDbPolyline
 90
2
 70
0
 10
625186.6618713867
 20
4832736.183076936
 10
624842.8644421683
 20
4832813.295930818
  0
LWPOLYLINE
  5
1B8
330
17
100
AcDbEntity
  8
ROADS
100
AcDbPolyline
 90
2
 70
0
 10
625250.767632384
 20
4832788.691397025
 10
624919.343129335
 20
4832868.497943146
  0
LWPOLYLINE
  5
1B9
330
17
100
AcDbEntity
  8
ROADS
100
AcDbPolyline
 90
2
 70
0
 10
625149.331108675
 20
4832923.601950538
 10
624918.0248091359
 20
4832981.40332966
  0
LWPOLYLINE
  5
1BA
330
17
100
AcDbEntity
  8
ROADS
100
AcDbPolyline
 90
2
 70
0
 10
625149.331108675
 20
4832923.601950538
 10
625088.5251796722
 20
4833128.549538336
  0
LWPOLYLINE
  5
1BB
330
17
100
AcDbEntity
  8
ROADS
100
AcDbPolyline
 90
2
 70
0
 10
624918.0248091359
 20
4832981.40332966
 10
624918.4124083128
 20
4833128.625431003
  0
LWPOLYLINE
  5
1BC
330
17
100
AcDbEntity
  8
ROADS
100
AcDbPolyline
 90
2
 70
0
 10
625194.7178631197
 20
4833160.104309422
 10
625088.5251796722
 20
4833128.549538336
  0
LWPOLYLINE
  5
1BD
330
17
100
AcDbEntity
  8
ROADS
100
AcDbPolyline
 90
2
 70
0
 10
625332.4558018051
 20
4832870.562104656
 10
625351.3801018262
 20
4832876.387399087
  0
LWPOLYLINE
  5
1BE
330
17
100
AcDbEntity
  8
ROADS
100
AcDbPolyline
 90
3
 70
0
 10
625273.7673833767
 20
4832858.5049151955
 10
625283.8735898016
 20
4832888.242204024
 10
625304.8407844434
 20
4832892.3363171695
  0
LWPOLYLINE
  5
1BF
330
17
100
AcDbEntity
  8
ROADS
100
AcDbPolyline
 90
2
 70
0
 10
625304.8407844434
 20
4832892.3363171695
 10
625332.4558018051
 20
4832870.562104656
  0
LWPOLYLINE
  5
1C0
330
17
100
AcDbEntity
  8
ROADS
100
AcDbPolyline
 90
3
 70
0
 10
625304.8407844434
 20
4832892.3363171695
 10
625324.4386842826
 20
4832892.67947643
 10
625332.4558018051
 20
4832870.562104656
  0
LWPOLYLINE
  5
1C1
330
17
100
AcDbEntity
  8
ROADS
100
AcDbPolyline
 90
3
 70
0
 10
625386.4099266173
 20
4832878.415511166
 10
625348.3544230006
 20
4832898.080944997
 10
625336.7320394795
 20
4832923.0793306865
  0
LWPOLYLINE
  5
1C2
330
17
100
AcDbEntity
  8
ROADS
100
AcDbPolyline
 90
3
 70
0
 10
625336.7320394795
 20
4832923.0793306865
 10
625270.1303822583
 20
4832903.318705117
 10
625149.331108675
 20
4832923.601950538
  0
LWPOLYLINE
  5
1C3
330
17
100
AcDbEntity
  8
ROADS
100
AcDbPolyline
 90
2
 70
0
 10
625336.7320394795
 20
4832923.0793306865
 10
625320.7444327433
 20
4832973.69827274
  0
LWPOLYLINE
  5
1C4
330
17
100
AcDbEntity
  8
ROADS
100
AcDbPolyline
 90
2
 70
0
 10
625519.2977891504
 20
4832975.295329555
 10
625336.7320394795
 20
4832923.0793306865
  0
LWPOLYLINE
  5
1C5
330
17
100
AcDbEntity
  8
ROADS
100
AcDbPolyline
 90
2
 70
0
 10
625320.7444327433
 20
4832973.69827274
 10
625315.0899743089
 20
4832991.691104388
  0
LWPOLYLINE
  5
1C6
330
17
100
AcDbEntity
  8
ROADS
100
AcDbPolyline
 90
2
 70
0
 10
625503.9661192925
 20
4833017.286160573
 10
625320.7444327433
 20
4832973.69827274
  0
LWPOLYLINE
  5
1C7
330
17
100
AcDbEntity
  8
ROADS
100
AcDbPolyline
 90
3
 70
0
 10
624723.6384269387
 20
4832919.465282199
 10
624702.7063671986
 20
4832877.181733122
 10
624605.9787272511
 20
4832868.017341091
  0
LWPOLYLINE
  5
1C8
330
17
100
AcDbEntity
  8
ROADS
100
AcDbPolyline
 90
4
 70
0
 10
624919.343129335
 20
4832868.497943146
 10
624837.5515398722
 20
4832887.3189788405
 10
624754.5352576636
 20
4832884.648703028
 10
624723.6384269387
 20
4832919.465282199
  0
LWPOLYLINE
  5
1C9
330
17
100
AcDbEntity
  8
ROADS
100
AcDbPolyline
 90
2
 70
0
 10
624739.0362134342
 20
4832870.492859645
 10
624723.6384269387
 20
4832919.465282199
  0
LWPOLYLINE
  5
1CA
330
17
100
AcDbEntity
  8
ROADS
100
AcDbPolyline
 90
2
 70
0
 10
624723.6384269387
 20
4832919.465282199
 10
624711.9020549853
 20
4832963.057571621
  0
LWPOLYLINE
  5
1CB
330
17
100
AcDbEntity
  8
ROADS
100
AcDbPolyline
 90
2
 70
0
 10
624711.9020549853
 20
4832963.057571621
 10
624693.0530427339
 20
4833017.841935908
  0
LWPOLYLINE
  5
1CC
330
17
100
AcDbEntity
  8
ROADS
100
AcDbPolyline
 90
2
 70
0
 10
624918.0248091359
 20
4832981.40332966
 10
624835.5377008852
 20
4833014.472549519
  0
LWPOLYLINE
  5
1CD
330
17
100
AcDbEntity
  8
ROADS
100
AcDbPolyline
 90
2
 70
0
 10
624835.5377008852
 20
4833014.472549519
 10
624693.0530427339
 20
4833017.841935908
  0
LWPOLYLINE
  5
1CE
330
17
100
AcDbEntity
  8
ROADS
100
AcDbPolyline
 90
2
 70
0
 10
624835.5377008852
 20
4833014.472549519
 10
624843.1970240164
 20
4833043.641056468
  0
LWPOLYLINE
  5
1CF
330
17
100
AcDbEntity
  8
ROADS
100
AcDbPolyline
 90
2
 70
0
 10
624693.0530427339
 20
4833017.841935908
 10
624679.0230366962
 20
4833055.263935269
  0
LWPOLYLINE
  5
1D0
330
17
100
AcDbEntity
  8
ROADS
100
AcDbPolyline
 90
2
 70
0
 10
624679.0230366962
 20
4833055.263935269
 10
624843.1970240164
 20
4833043.641056468
  0
LWPOLYLINE
  5
1D1
330
17
100
AcDbEntity
  8
ROADS
100
AcDbPolyline
 90
2
 70
0
 10
624588.376439579
 20
4833043.9577660095
 10
624679.0230366962
 20
4833055.263935269
  0
LWPOLYLINE
  5
1D2
330
17
100
AcDbEntity
  8
ROADS
100
AcDbPolyline
 90
2
 70
0
 10
624745.6016838547
 20
4833058.250728625
 10
624745.910283484
 20
4833078.02938296
  0
LWPOLYLINE
  5
1D3
330
17
100
AcDbEntity
  8
ROADS
100
AcDbPolyline
 90
2
 70
0
 10
624843.1970240164
 20
4833043.641056468
 10
624843.6282981529
 20
4833106.324783634
  0
LWPOLYLINE
  5
1D4
330
17
100
AcDbEntity
  8
ROADS
100
AcDbPolyline
 90
3
 70
0
 10
624561.3457180783
 20
4833139.595458055
 10
624602.7718526574
 20
4833073.556002608
 10
624588.376439579
 20
4833043.9577660095
  0
LWPOLYLINE
  5
1D5
330
17
100
AcDbEntity
  8
ROADS
100
AcDbPolyline
 90
2
 70
0
 10
624843.6282981529
 20
4833106.324783634
 10
624745.910283484
 20
4833078.02938296
  0
LWPOLYLINE
  5
1D6
330
17
100
AcDbEntity
  8
ROADS
100
AcDbPolyline
 90
2
 70
0
 10
624679.0230366962
 20
4833055.263935269
 10
624642.0867484257
 20
4833159.424609645
  0
LWPOLYLINE
  5
1D7
330
17
100
AcDbEntity
  8
ROADS
100
AcDbPolyline
 90
2
 70
0
 10
624745.910283484
 20
4833078.02938296
 10
624744.3806144859
 20
4833153.375845737
  0
LWPOLYLINE
  5
1D8
330
17
100
AcDbEntity
  8
ROADS
100
AcDbPolyline
 90
2
 70
0
 10
624918.4124083128
 20
4833128.625431003
 10
624843.6282981529
 20
4833106.324783634
  0
LWPOLYLINE
  5
1D9
330
17
100
AcDbEntity
  8
ROADS
100
AcDbPolyline
 90
2
 70
0
 10
624642.0867484257
 20
4833159.424609645
 10
624561.3457180783
 20
4833139.595458055
  0
LWPOLYLINE
  5
1DA
330
17
100
AcDbEntity
  8
ROADS
100
AcDbPolyline
 90
2
 70
0
 10
624642.0867484257
 20
4833159.424609645
 10
624632.2983710641
 20
4833192.8395321565
  0
LWPOLYLINE
  5
1DB
330
17
100
AcDbEntity
  8
ROADS
100
AcDbPolyline
 90
2
 70
0
 10
624305.7520034848
 20
4833034.436513539
 10
624326.4517039834
 20
4833043.940576188
  0
LWPOLYLINE
  5
1DC
330
17
100
AcDbEntity
  8
ROADS
100
AcDbPolyline
 90
3
 70
0
 10
624354.6409861313
 20
4833040.853814584
 10
624387.2162719357
 20
4833028.095794329
 10
624588.376439579
 20
4833043.9577660095
  0
LWPOLYLINE
  5
1DD
330
17
100
AcDbEntity
  8
ROADS
100
AcDbPolyline
 90
2
 70
0
 10
624354.6409861313
 20
4833040.853814584
 10
624326.4517039834
 20
4833043.940576188
  0
LWPOLYLINE
  5
1DE
330
17
100
AcDbEntity
  8
ROADS
100
AcDbPolyline
 90
2
 70
0
 10
624354.6409861313
 20
4833040.853814584
 10
624339.501743289
 20
4833051.336794931
  0
LWPOLYLINE
  5
1DF
330
17
100
AcDbEntity
  8
ROADS
100
AcDbPolyline
 90
2
 70
0
 10
624326.4517039834
 20
4833043.940576188
 10
624339.501743289
 20
4833051.336794931
  0
LWPOLYLINE
  5
1E0
330
17
100
AcDbEntity
  8
ROADS
100
AcDbPolyline
 90
6
 70
0
 10
624339.501743289
 20
4833051.336794931
 10
624322.5150435388
 20
4833132.284139888
 10
624333.0054415357
 20
4833162.0642987285
 10
624421.7906895701
 20
4833148.700035223
 10
624327.1959726331
 20
4833290.453151462
 10
624317.5610750099
 20
4833393.093497178
  0
LWPOLYLINE
  5
1E1
330
17
100
AcDbEntity
  8
ROADS
100
AcDbPolyline
 90
3
 70
0
 10
624918.4124083128
 20
4833128.625431003
 10
624918.296608247
 20
4833204.425507792
 10
624905.2053027046
 20
4833214.584489933
  0
LWPOLYLINE
  5
1E2
330
17
100
AcDbEntity
  8
ROADS
100
AcDbPolyline
 90
2
 70
0
 10
625088.5251796722
 20
4833128.549538336
 10
625057.6388007076
 20
4833221.607547364
  0
LWPOLYLINE
  5
1E3
330
17
100
AcDbEntity
  8
ROADS
100
AcDbPolyline
 90
3
 70
0
 10
625194.7178631197
 20
4833160.104309422
 10
625179.6647152305
 20
4833206.714882529
 10
625114.4415697514
 20
4833187.984177743
  0
LWPOLYLINE
  5
1E4
330
17
100
AcDbEntity
  8
ROADS
100
AcDbPolyline
 90
2
 70
0
 10
624953.1708432093
 20
4833241.870792514
 10
624905.2053027046
 20
4833214.584489933
  0
LWPOLYLINE
  5
1E5
330
17
100
AcDbEntity
  8
ROADS
100
AcDbPolyline
 90
2
 70
0
 10
625057.6388007076
 20
4833221.607547364
 10
625044.0811851146
 20
4833264.5409214925
  0
LWPOLYLINE
  5
1E6
330
17
100
AcDbEntity
  8
ROADS
100
AcDbPolyline
 90
2
 70
0
 10
624999.766930829
 20
4833251.083356196
 10
624953.1708432093
 20
4833241.870792514
  0
LWPOLYLINE
  5
1E7
330
17
100
AcDbEntity
  8
ROADS
100
AcDbPolyline
 90
2
 70
0
 10
625229.290550006
 20
4833272.948887868
 10
625057.6388007076
 20
4833221.607547364
  0
LWPOLYLINE
  5
1E8
330
17
100
AcDbEntity
  8
ROADS
100
AcDbPolyline
 90
2
 70
0
 10
625044.0811851146
 20
4833264.5409214925
 10
624999.766930829
 20
4833251.083356196
  0
LWPOLYLINE
  5
1E9
330
17
100
AcDbEntity
  8
ROADS
100
AcDbPolyline
 90
2
 70
0
 10
624953.1708432093
 20
4833241.870792514
 10
624922.0126736086
 20
4833341.002176433
  0
LWPOLYLINE
  5
1EA
330
17
100
AcDbEntity
  8
ROADS
100
AcDbPolyline
 90
2
 70
0
 10
625044.0811851146
 20
4833264.5409214925
 10
625025.4745142993
 20
4833322.18086171
  0
LWPOLYLINE
  5
1EB
330
17
100
AcDbEntity
  8
ROADS
100
AcDbPolyline
 90
2
 70
0
 10
624382.4948387329
 20
4832743.805788902
 10
624449.4366197909
 20
4832761.24886105
  0
LWPOLYLINE
  5
1EC
330
17
100
AcDbEntity
  8
ROADS
100
AcDbPolyline
 90
3
 70
0
 10
625966.3603026295
 20
4832439.254710282
 10
625970.1426632666
 20
4832445.792562877
 10
625971.614545268
 20
4832444.918992509
  0
LWPOLYLINE
  5
1ED
330
17
100
AcDbEntity
  8
ROADS
100
AcDbPolyline
 90
2
 70
0
 10
625676.6939793122
 20
4832578.823867618
 10
625951.0919107129
 20
4832422.794777441
  0
LWPOLYLINE
  5
1EE
330
17
100
AcDbEntity
  8
ROADS
100
AcDbPolyline
 90
2
 70
0
 10
626085.2071055801
 20
4832619.538983743
 10
626049.2122433777
 20
4832733.020357034
  0
LWPOLYLINE
  5
1EF
330
17
100
AcDbEntity
  8
ROADS
100
AcDbPolyline
 90
2
 70
0
 10
626137.247071122
 20
4832759.993367865
 10
626049.2122433777
 20
4832733.020357034
  0
LWPOLYLINE
  5
1F0
330
17
100
AcDbEntity
  8
ROADS
100
AcDbPolyline
 90
2
 70
0
 10
625653.5624235364
 20
4832543.306865161
 10
625665.7308191264
 20
4832533.749192212
  0
LWPOLYLINE
  5
1F1
330
17
100
AcDbEntity
  8
ROADS
100
AcDbPolyline
 90
2
 70
0
 10
625653.5624235364
 20
4832543.306865161
 10
625639.1451011572
 20
4832536.471964624
  0
LWPOLYLINE
  5
1F2
330
17
100
AcDbEntity
  8
ROADS
100
AcDbPolyline
 90
2
 70
0
 10
625676.6939793122
 20
4832578.823867618
 10
625653.5624235364
 20
4832543.306865161
  0
LWPOLYLINE
  5
1F3
330
17
100
AcDbEntity
  8
ROADS
100
AcDbPolyline
 90
2
 70
0
 10
625962.5692345861
 20
4832435.167788376
 10
625442.7700012133
 20
4832708.969370366
  0
LWPOLYLINE
  5
1F4
330
17
100
AcDbEntity
  8
ROADS
100
AcDbPolyline
 90
2
 70
0
 10
625841.7339300137
 20
4832673.045470655
 10
625706.9077816026
 20
4832696.31054638
  0
LWPOLYLINE
  5
1F5
330
17
100
AcDbEntity
  8
ROADS
100
AcDbPolyline
 90
2
 70
0
 10
625706.9077816026
 20
4832696.31054638
 10
625679.0589594909
 20
4832714.862388577
  0
LWPOLYLINE
  5
1F6
330
17
100
AcDbEntity
  8
ROADS
100
AcDbPolyline
 90
2
 70
0
 10
625679.0589594909
 20
4832714.862388577
 10
625639.3819727647
 20
4832727.0771329235
  0
LWPOLYLINE
  5
1F7
330
17
100
AcDbEntity
  8
ROADS
100
AcDbPolyline
 90
2
 70
0
 10
625679.0589594909
 20
4832714.862388577
 10
625648.8136076509
 20
4832740.464325794
  0
LWPOLYLINE
  5
1F8
330
17
100
AcDbEntity
  8
ROADS
100
AcDbPolyline
 90
2
 70
0
 10
625639.3819727647
 20
4832727.0771329235
 10
625648.8136076509
 20
4832740.464325794
  0
LWPOLYLINE
  5
1F9
330
17
100
AcDbEntity
  8
ROADS
100
AcDbPolyline
 90
3
 70
0
 10
625706.9077816026
 20
4832696.31054638
 10
625714.6087459242
 20
4832712.994657348
 10
625690.7058635526
 20
4832791.994263653
  0
LWPOLYLINE
  5
1FA
330
17
100
AcDbEntity
  8
ROADS
100
AcDbPolyline
 90
2
 70
0
 10
626011.2737039169
 20
4832495.652296322
 10
625973.8146001832
 20
4832617.093866051
  0
LWPOLYLINE
  5
1FB
330
17
100
AcDbEntity
  8
ROADS
100
AcDbPolyline
 90
2
 70
0
 10
625973.8146001832
 20
4832617.093866051
 10
625882.389198123
 20
4832588.266191642
  0
LWPOLYLINE
  5
1FC
330
17
100
AcDbEntity
  8
ROADS
100
AcDbPolyline
 90
2
 70
0
 10
625973.8146001832
 20
4832617.093866051
 10
625947.0903641351
 20
4832703.353980529
  0
LWPOLYLINE
  5
1FD
330
17
100
AcDbEntity
  8
ROADS
100
AcDbPolyline
 90
2
 70
0
 10
625947.0903641351
 20
4832703.353980529
 10
625841.7339300137
 20
4832673.045470655
  0
LWPOLYLINE
  5
1FE
330
17
100
AcDbEntity
  8
ROADS
100
AcDbPolyline
 90
2
 70
0
 10
626049.2122433777
 20
4832733.020357034
 10
625947.0903641351
 20
4832703.353980529
  0
LWPOLYLINE
  5
1FF
330
17
100
AcDbEntity
  8
ROADS
100
AcDbPolyline
 90
2
 70
0
 10
625947.0903641351
 20
4832703.353980529
 10
625897.1797778228
 20
4832874.671030052
  0
LWPOLYLINE
  5
200
330
17
100
AcDbEntity
  8
ROADS
100
AcDbPolyline
 90
2
 70
0
 10
626049.2122433777
 20
4832733.020357034
 10
626001.1511072917
 20
4832905.423604779
  0
LWPOLYLINE
  5
201
330
17
100
AcDbEntity
  8
ROADS
100
AcDbPolyline
 90
2
 70
0
 10
625942.1062721392
 20
4832887.958632807
 10
625966.8531463887
 20
4832826.839263457
  0
LWPOLYLINE
  5
202
330
17
100
AcDbEntity
  8
ROADS
100
AcDbPolyline
 90
2
 70
0
 10
625942.1062721392
 20
4832887.958632807
 10
625897.1797778228
 20
4832874.671030052
  0
LWPOLYLINE
  5
203
330
17
100
AcDbEntity
  8
ROADS
100
AcDbPolyline
 90
2
 70
0
 10
626001.1511072917
 20
4832905.423604779
 10
625942.1062721392
 20
4832887.958632807
  0
LWPOLYLINE
  5
204
330
17
100
AcDbEntity
  8
ROADS
100
AcDbPolyline
 90
2
 70
0
 10
625639.3819727647
 20
4832727.0771329235
 10
625491.7787690889
 20
4832808.36158116
  0
LWPOLYLINE
  5
205
330
17
100
AcDbEntity
  8
ROADS
100
AcDbPolyline
 90
2
 70
0
 10
625648.8136076509
 20
4832740.464325794
 10
625535.9620994448
 20
4832806.987897722
  0
LWPOLYLINE
  5
206
330
17
100
AcDbEntity
  8
ROADS
100
AcDbPolyline
 90
2
 70
0
 10
625535.9620994448
 20
4832806.987897722
 10
625491.7250658326
 20
4832827.824714192
  0
LWPOLYLINE
  5
207
330
17
100
AcDbEntity
  8
ROADS
100
AcDbPolyline
 90
2
 70
0
 10
625841.7339300137
 20
4832673.045470655
 10
625745.7974464847
 20
4832995.343450955
  0
LWPOLYLINE
  5
208
330
17
100
AcDbEntity
  8
ROADS
100
AcDbPolyline
 90
3
 70
0
 10
625690.7058635526
 20
4832791.994263653
 10
625625.5960599706
 20
4832822.048446309
 10
625589.0048627229
 20
4832943.08213792
  0
LWPOLYLINE
  5
209
330
17
100
AcDbEntity
  8
ROADS
100
AcDbPolyline
 90
3
 70
0
 10
625535.9620994448
 20
4832806.987897722
 10
625560.3346039096
 20
4832859.0562724145
 10
625537.9452279989
 20
4832928.955664909
  0
LWPOLYLINE
  5
20A
330
17
100
AcDbEntity
  8
ROADS
100
AcDbPolyline
 90
2
 70
0
 10
625690.7058635526
 20
4832791.994263653
 10
625640.9985430136
 20
4832958.371560197
  0
LWPOLYLINE
  5
20B
330
17
100
AcDbEntity
  8
ROADS
100
AcDbPolyline
 90
2
 70
0
 10
625589.0048627229
 20
4832943.08213792
 10
625537.9452279989
 20
4832928.955664909
  0
LWPOLYLINE
  5
20C
330
17
100
AcDbEntity
  8
ROADS
100
AcDbPolyline
 90
2
 70
0
 10
625640.9985430136
 20
4832958.371560197
 10
625589.0048627229
 20
4832943.08213792
  0
LWPOLYLINE
  5
20D
330
17
100
AcDbEntity
  8
ROADS
100
AcDbPolyline
 90
2
 70
0
 10
625537.9452279989
 20
4832928.955664909
 10
625519.2977891504
 20
4832975.295329555
  0
LWPOLYLINE
  5
20E
330
17
100
AcDbEntity
  8
ROADS
100
AcDbPolyline
 90
2
 70
0
 10
626144.7294669674
 20
4832788.404582204
 10
626101.9902275873
 20
4832936.400610917
  0
LWPOLYLINE
  5
20F
330
17
100
AcDbEntity
  8
ROADS
100
AcDbPolyline
 90
2
 70
0
 10
626145.915965934
 20
4833157.933822399
 10
626093.594087819
 20
4833141.851907761
  0
LWPOLYLINE
  5
210
330
17
100
AcDbEntity
  8
ROADS
100
AcDbPolyline
 90
2
 70
0
 10
626101.9902275873
 20
4832936.400610917
 10
626001.1511072917
 20
4832905.423604779
  0
LWPOLYLINE
  5
211
330
17
100
AcDbEntity
  8
ROADS
100
AcDbPolyline
 90
2
 70
0
 10
625897.1797778228
 20
4832874.671030052
 10
625868.1065562739
 20
4832973.647393383
  0
LWPOLYLINE
  5
212
330
17
100
AcDbEntity
  8
ROADS
100
AcDbPolyline
 90
2
 70
0
 10
626101.9902275873
 20
4832936.400610917
 10
626074.4664205132
 20
4833032.534862758
  0
LWPOLYLINE
  5
213
330
17
100
AcDbEntity
  8
ROADS
100
AcDbPolyline
 90
2
 70
0
 10
625868.1065562739
 20
4832973.647393383
 10
625850.8128830077
 20
4833025.868904763
  0
LWPOLYLINE
  5
214
330
17
100
AcDbEntity
  8
ROADS
100
AcDbPolyline
 90
2
 70
0
 10
626074.4664205132
 20
4833032.534862758
 10
625868.1065562739
 20
4832973.647393383
  0
LWPOLYLINE
  5
215
330
17
100
AcDbEntity
  8
ROADS
100
AcDbPolyline
 90
2
 70
0
 10
625850.8128830077
 20
4833025.868904763
 10
625793.6916719127
 20
4833008.930710312
  0
LWPOLYLINE
  5
216
330
17
100
AcDbEntity
  8
ROADS
100
AcDbPolyline
 90
2
 70
0
 10
625850.8128830077
 20
4833025.868904763
 10
625837.2658529554
 20
4833066.777462668
  0
LWPOLYLINE
  5
217
330
17
100
AcDbEntity
  8
ROADS
100
AcDbPolyline
 90
2
 70
0
 10
625899.4908062567
 20
4833084.9639703045
 10
625837.2658529554
 20
4833066.777462668
  0
LWPOLYLINE
  5
218
330
17
100
AcDbEntity
  8
ROADS
100
AcDbPolyline
 90
2
 70
0
 10
626074.4664205132
 20
4833032.534862758
 10
626044.8108219724
 20
4833126.214432501
  0
LWPOLYLINE
  5
219
330
17
100
AcDbEntity
  8
ROADS
100
AcDbPolyline
 90
2
 70
0
 10
625995.1702931961
 20
4833112.636590049
 10
625899.4908062567
 20
4833084.9639703045
  0
LWPOLYLINE
  5
21A
330
17
100
AcDbEntity
  8
ROADS
100
AcDbPolyline
 90
2
 70
0
 10
625640.9985430136
 20
4832958.371560197
 10
625625.9833270349
 20
4833005.705930914
  0
LWPOLYLINE
  5
21B
330
17
100
AcDbEntity
  8
ROADS
100
AcDbPolyline
 90
2
 70
0
 10
625625.9833270349
 20
4833005.705930914
 10
625519.2977891504
 20
4832975.295329555
  0
LWPOLYLINE
  5
21C
330
17
100
AcDbEntity
  8
ROADS
100
AcDbPolyline
 90
2
 70
0
 10
625793.6916719127
 20
4833008.930710312
 10
625800.9561225747
 20
4832983.030490994
  0
LWPOLYLINE
  5
21D
330
17
100
AcDbEntity
  8
ROADS
100
AcDbPolyline
 90
2
 70
0
 10
625519.2977891504
 20
4832975.295329555
 10
625503.9661192925
 20
4833017.286160573
  0
LWPOLYLINE
  5
21E
330
17
100
AcDbEntity
  8
ROADS
100
AcDbPolyline
 90
2
 70
0
 10
625793.6916719127
 20
4833008.930710312
 10
625745.7974464847
 20
4832995.343450955
  0
LWPOLYLINE
  5
21F
330
17
100
AcDbEntity
  8
ROADS
100
AcDbPolyline
 90
2
 70
0
 10
625647.9802655698
 20
4833012.059792541
 10
625625.9833270349
 20
4833005.705930914
  0
LWPOLYLINE
  5
220
330
17
100
AcDbEntity
  8
ROADS
100
AcDbPolyline
 90
2
 70
0
 10
625745.7974464847
 20
4832995.343450955
 10
625733.7540198986
 20
4833036.611188973
  0
LWPOLYLINE
  5
221
330
17
100
AcDbEntity
  8
ROADS
100
AcDbPolyline
 90
2
 70
0
 10
625733.7540198986
 20
4833036.611188973
 10
625647.9802655698
 20
4833012.059792541
  0
LWPOLYLINE
  5
222
330
17
100
AcDbEntity
  8
ROADS
100
AcDbPolyline
 90
2
 70
0
 10
625591.2502677647
 20
4833038.249137845
 10
625503.9661192925
 20
4833017.286160573
  0
LWPOLYLINE
  5
223
330
17
100
AcDbEntity
  8
ROADS
100
AcDbPolyline
 90
2
 70
0
 10
625647.9802655698
 20
4833012.059792541
 10
625636.3564163253
 20
4833051.664504981
  0
LWPOLYLINE
  5
224
330
17
100
AcDbEntity
  8
ROADS
100
AcDbPolyline
 90
2
 70
0
 10
625315.0899743089
 20
4832991.691104388
 10
625309.8025957323
 20
4833008.518503357
  0
LWPOLYLINE
  5
225
330
17
100
AcDbEntity
  8
ROADS
100
AcDbPolyline
 90
2
 70
0
 10
625315.0899743089
 20
4832991.691104388
 10
625339.7486312179
 20
4833017.519153903
  0
LWPOLYLINE
  5
226
330
17
100
AcDbEntity
  8
ROADS
100
AcDbPolyline
 90
2
 70
0
 10
625339.7486312179
 20
4833017.519153903
 10
625309.8025957323
 20
4833008.518503357
  0
LWPOLYLINE
  5
227
330
17
100
AcDbEntity
  8
ROADS
100
AcDbPolyline
 90
2
 70
0
 10
625355.1936278144
 20
4833022.160516688
 10
625339.7486312179
 20
4833017.519153903
  0
LWPOLYLINE
  5
228
330
17
100
AcDbEntity
  8
ROADS
100
AcDbPolyline
 90
2
 70
0
 10
625503.9661192925
 20
4833017.286160573
 10
625490.9098860079
 20
4833061.307221907
  0
LWPOLYLINE
  5
229
330
17
100
AcDbEntity
  8
ROADS
100
AcDbPolyline
 90
2
 70
0
 10
625490.9098860079
 20
4833061.307221907
 10
625355.1936278144
 20
4833022.160516688
  0
LWPOLYLINE
  5
22A
330
17
100
AcDbEntity
  8
ROADS
100
AcDbPolyline
 90
2
 70
0
 10
625309.8025957323
 20
4833008.518503357
 10
625286.9842244168
 20
4833084.059898204
  0
LWPOLYLINE
  5
22B
330
17
100
AcDbEntity
  8
ROADS
100
AcDbPolyline
 90
2
 70
0
 10
625355.1936278144
 20
4833022.160516688
 10
625332.3437015079
 20
4833097.34483062
  0
LWPOLYLINE
  5
22C
330
17
100
AcDbEntity
  8
ROADS
100
AcDbPolyline
 90
2
 70
0
 10
625332.3437015079
 20
4833097.34483062
 10
625286.9842244168
 20
4833084.059898204
  0
LWPOLYLINE
  5
22D
330
17
100
AcDbEntity
  8
ROADS
100
AcDbPolyline
 90
2
 70
0
 10
625490.9098860079
 20
4833061.307221907
 10
625468.3336149651
 20
4833137.174547776
  0
LWPOLYLINE
  5
22E
330
17
100
AcDbEntity
  8
ROADS
100
AcDbPolyline
 90
2
 70
0
 10
624561.3457180783
 20
4833139.595458055
 10
624410.3994153722
 20
4833312.199928933
  0
LWPOLYLINE
  5
22F
330
17
100
AcDbEntity
  8
ROADS
100
AcDbPolyline
 90
3
 70
0
 10
624561.3457180783
 20
4833139.595458055
 10
624484.2978670676
 20
4833260.212599211
 10
624364.8962138059
 20
4833398.482217936
  0
LWPOLYLINE
  5
230
330
17
100
AcDbEntity
  8
ROADS
100
AcDbPolyline
 90
2
 70
0
 10
624317.5610750099
 20
4833393.093497178
 10
624294.5545261184
 20
4833381.485726158
  0
LWPOLYLINE
  5
231
330
17
100
AcDbEntity
  8
ROADS
100
AcDbPolyline
 90
2
 70
0
 10
624317.5610750099
 20
4833393.093497178
 10
624294.3772721054
 20
4833382.190748767
  0
LWPOLYLINE
  5
232
330
17
100
AcDbEntity
  8
ROADS
100
AcDbPolyline
 90
2
 70
0
 10
624366.6390108997
 20
4833369.420162379
 10
624364.8962138059
 20
4833398.482217936
  0
LWPOLYLINE
  5
233
330
17
100
AcDbEntity
  8
ROADS
100
AcDbPolyline
 90
2
 70
0
 10
624328.4067541799
 20
4833405.704170254
 10
624317.5610750099
 20
4833393.093497178
  0
LWPOLYLINE
  5
234
330
17
100
AcDbEntity
  8
ROADS
100
AcDbPolyline
 90
2
 70
0
 10
624364.8962138059
 20
4833398.482217936
 10
624328.4067541799
 20
4833405.704170254
  0
LWPOLYLINE
  5
235
330
17
100
AcDbEntity
  8
ROADS
100
AcDbPolyline
 90
2
 70
0
 10
624364.8962138059
 20
4833398.482217936
 10
624367.2680570509
 20
4833414.129916817
  0
LWPOLYLINE
  5
236
330
17
100
AcDbEntity
  8
ROADS
100
AcDbPolyline
 90
2
 70
0
 10
624367.2680570509
 20
4833414.129916817
 10
624432.4757320911
 20
4833419.2656187
  0
LWPOLYLINE
  5
237
330
17
100
AcDbEntity
  8
ROADS
100
AcDbPolyline
 90
2
 70
0
 10
624328.4067541799
 20
4833405.704170254
 10
624349.7824008527
 20
4833434.533005718
  0
LWPOLYLINE
  5
238
330
17
100
AcDbEntity
  8
ROADS
100
AcDbPolyline
 90
2
 70
0
 10
625899.4908062567
 20
4833084.9639703045
 10
625882.8613308414
 20
4833140.302164212
  0
LWPOLYLINE
  5
239
330
17
100
AcDbEntity
  8
ROADS
100
AcDbPolyline
 90
2
 70
0
 10
625882.8613308414
 20
4833140.302164212
 10
625739.2378138669
 20
4833085.53109517
  0
LWPOLYLINE
  5
23A
330
17
100
AcDbEntity
  8
ROADS
100
AcDbPolyline
 90
2
 70
0
 10
626044.8108219724
 20
4833126.214432501
 10
625995.1702931961
 20
4833112.636590049
  0
LWPOLYLINE
  5
23B
330
17
100
AcDbEntity
  8
ROADS
100
AcDbPolyline
 90
2
 70
0
 10
626093.594087819
 20
4833141.851907761
 10
626044.8108219724
 20
4833126.214432501
  0
LWPOLYLINE
  5
23C
330
17
100
AcDbEntity
  8
ROADS
100
AcDbPolyline
 90
2
 70
0
 10
625840.0274599437
 20
4833136.035366456
 10
625828.1722668187
 20
4833132.3559189085
  0
LWPOLYLINE
  5
23D
330
17
100
AcDbEntity
  8
ROADS
100
AcDbPolyline
 90
2
 70
0
 10
625995.1702931961
 20
4833112.636590049
 10
625981.384468468
 20
4833158.955161747
  0
LWPOLYLINE
  5
23E
330
17
100
AcDbEntity
  8
ROADS
100
AcDbPolyline
 90
2
 70
0
 10
625882.8613308414
 20
4833140.302164212
 10
625840.0274599437
 20
4833136.035366456
  0
LWPOLYLINE
  5
23F
330
17
100
AcDbEntity
  8
ROADS
100
AcDbPolyline
 90
2
 70
0
 10
625933.1435804374
 20
4833144.959585518
 10
625882.8613308414
 20
4833140.302164212
  0
LWPOLYLINE
  5
240
330
17
100
AcDbEntity
  8
ROADS
100
AcDbPolyline
 90
2
 70
0
 10
625981.384468468
 20
4833158.955161747
 10
625933.1435804374
 20
4833144.959585518
  0
LWPOLYLINE
  5
241
330
17
100
AcDbEntity
  8
ROADS
100
AcDbPolyline
 90
2
 70
0
 10
625882.8613308414
 20
4833140.302164212
 10
625875.8162437938
 20
4833164.05172644
  0
LWPOLYLINE
  5
242
330
17
100
AcDbEntity
  8
ROADS
100
AcDbPolyline
 90
2
 70
0
 10
625751.5678429103
 20
4833041.71339067
 10
625733.7540198986
 20
4833036.611188973
  0
LWPOLYLINE
  5
243
330
17
100
AcDbEntity
  8
ROADS
100
AcDbPolyline
 90
2
 70
0
 10
625636.3564163253
 20
4833051.664504981
 10
625591.2502677647
 20
4833038.249137845
  0
LWPOLYLINE
  5
244
330
17
100
AcDbEntity
  8
ROADS
100
AcDbPolyline
 90
2
 70
0
 10
625837.2658529554
 20
4833066.777462668
 10
625751.5678429103
 20
4833041.71339067
  0
LWPOLYLINE
  5
245
330
17
100
AcDbEntity
  8
ROADS
100
AcDbPolyline
 90
2
 70
0
 10
625681.7567269515
 20
4833066.898295515
 10
625636.3564163253
 20
4833051.664504981
  0
LWPOLYLINE
  5
246
330
17
100
AcDbEntity
  8
ROADS
100
AcDbPolyline
 90
2
 70
0
 10
625751.5678429103
 20
4833041.71339067
 10
625739.2378138669
 20
4833085.53109517
  0
LWPOLYLINE
  5
247
330
17
100
AcDbEntity
  8
ROADS
100
AcDbPolyline
 90
2
 70
0
 10
625591.2502677647
 20
4833038.249137845
 10
625574.8228724443
 20
4833093.778445591
  0
LWPOLYLINE
  5
248
330
17
100
AcDbEntity
  8
ROADS
100
AcDbPolyline
 90
2
 70
0
 10
625739.2378138669
 20
4833085.53109517
 10
625681.7567269515
 20
4833066.898295515
  0
LWPOLYLINE
  5
249
330
17
100
AcDbEntity
  8
ROADS
100
AcDbPolyline
 90
2
 70
0
 10
625636.3564163253
 20
4833051.664504981
 10
625600.953745993
 20
4833176.320361526
  0
LWPOLYLINE
  5
24A
330
17
100
AcDbEntity
  8
ROADS
100
AcDbPolyline
 90
2
 70
0
 10
625739.2378138669
 20
4833085.53109517
 10
625714.2043639029
 20
4833168.067454626
  0
LWPOLYLINE
  5
24B
330
17
100
AcDbEntity
  8
ROADS
100
AcDbPolyline
 90
2
 70
0
 10
625681.7567269515
 20
4833066.898295515
 10
625631.7981707003
 20
4833230.734863952
  0
LWPOLYLINE
  5
24C
330
17
100
AcDbEntity
  8
ROADS
100
AcDbPolyline
 90
2
 70
0
 10
625569.4066954047
 20
4833166.871732519
 10
625468.3336149651
 20
4833137.174547776
  0
LWPOLYLINE
  5
24D
330
17
100
AcDbEntity
  8
ROADS
100
AcDbPolyline
 90
2
 70
0
 10
625600.953745993
 20
4833176.320361526
 10
625569.4066954047
 20
4833166.871732519
  0
LWPOLYLINE
  5
24E
330
17
100
AcDbEntity
  8
ROADS
100
AcDbPolyline
 90
2
 70
0
 10
625799.8628414521
 20
4833192.495805366
 10
625714.2043639029
 20
4833168.067454626
  0
LWPOLYLINE
  5
24F
330
17
100
AcDbEntity
  8
ROADS
100
AcDbPolyline
 90
2
 70
0
 10
625813.8876541685
 20
4833194.598371406
 10
625799.8628414521
 20
4833192.495805366
  0
LWPOLYLINE
  5
250
330
17
100
AcDbEntity
  8
ROADS
100
AcDbPolyline
 90
2
 70
0
 10
625600.953745993
 20
4833176.320361526
 10
625582.2313138479
 20
4833218.230414135
  0
LWPOLYLINE
  5
251
330
17
100
AcDbEntity
  8
ROADS
100
AcDbPolyline
 90
4
 70
0
 10
625472.7518559785
 20
4833243.476912696
 10
625486.7411014639
 20
4833197.190592648
 10
625554.3974155262
 20
4833216.200305023
 10
625569.4066954047
 20
4833166.871732519
  0
LWPOLYLINE
  5
252
330
17
100
AcDbEntity
  8
ROADS
100
AcDbPolyline
 90
2
 70
0
 10
625714.2043639029
 20
4833168.067454626
 10
625689.2104210561
 20
4833250.27049694
  0
LWPOLYLINE
  5
253
330
17
100
AcDbEntity
  8
ROADS
100
AcDbPolyline
 90
2
 70
0
 10
625788.1662718476
 20
4833280.917527602
 10
625689.2104210561
 20
4833250.27049694
  0
LWPOLYLINE
  5
254
330
17
100
AcDbEntity
  8
ROADS
100
AcDbPolyline
 90
2
 70
0
 10
625673.4632733201
 20
4833302.797932414
 10
625472.7518559785
 20
4833243.476912696
  0
LWPOLYLINE
  5
255
330
17
100
AcDbEntity
  8
ROADS
100
AcDbPolyline
 90
2
 70
0
 10
625689.2104210561
 20
4833250.27049694
 10
625673.4632733201
 20
4833302.797932414
  0
LWPOLYLINE
  5
256
330
17
100
AcDbEntity
  8
ROADS
100
AcDbPolyline
 90
2
 70
0
 10
626128.345384158
 20
4833203.0954879215
 10
626079.7043671659
 20
4833187.776591421
  0
LWPOLYLINE
  5
257
330
17
100
AcDbEntity
  8
ROADS
100
AcDbPolyline
 90
2
 70
0
 10
626134.9896031369
 20
4833205.187988322
 10
626128.345384158
 20
4833203.0954879215
  0
LWPOLYLINE
  5
258
330
17
100
AcDbEntity
  8
ROADS
100
AcDbPolyline
 90
2
 70
0
 10
626128.345384158
 20
4833203.0954879215
 10
626101.3616507819
 20
4833291.476032884
  0
LWPOLYLINE
  5
259
330
17
100
AcDbEntity
  8
ROADS
100
AcDbPolyline
 90
2
 70
0
 10
625933.1435804374
 20
4833144.959585518
 10
625922.8191601469
 20
4833178.317947328
  0
LWPOLYLINE
  5
25A
330
17
100
AcDbEntity
  8
ROADS
100
AcDbPolyline
 90
2
 70
0
 10
625840.0274599437
 20
4833136.035366456
 10
625799.8628414521
 20
4833192.495805366
  0
LWPOLYLINE
  5
25B
330
17
100
AcDbEntity
  8
ROADS
100
AcDbPolyline
 90
2
 70
0
 10
626093.594087819
 20
4833141.851907761
 10
626079.7043671659
 20
4833187.776591421
  0
LWPOLYLINE
  5
25C
330
17
100
AcDbEntity
  8
ROADS
100
AcDbPolyline
 90
2
 70
0
 10
626031.211304857
 20
4833173.014405414
 10
625981.384468468
 20
4833158.955161747
  0
LWPOLYLINE
  5
25D
330
17
100
AcDbEntity
  8
ROADS
100
AcDbPolyline
 90
2
 70
0
 10
625922.8191601469
 20
4833178.317947328
 10
625875.8162437938
 20
4833164.05172644
  0
LWPOLYLINE
  5
25E
330
17
100
AcDbEntity
  8
ROADS
100
AcDbPolyline
 90
2
 70
0
 10
626079.7043671659
 20
4833187.776591421
 10
626031.211304857
 20
4833173.014405414
  0
LWPOLYLINE
  5
25F
330
17
100
AcDbEntity
  8
ROADS
100
AcDbPolyline
 90
2
 70
0
 10
625922.8191601469
 20
4833178.317947328
 10
625913.9520860557
 20
4833202.697122613
  0
LWPOLYLINE
  5
260
330
17
100
AcDbEntity
  8
ROADS
100
AcDbPolyline
 90
2
 70
0
 10
626031.211304857
 20
4833173.014405414
 10
625984.4832866044
 20
4833328.083001071
  0
LWPOLYLINE
  5
261
330
17
100
AcDbEntity
  8
ROADS
100
AcDbPolyline
 90
2
 70
0
 10
625981.384468468
 20
4833158.955161747
 10
625924.8830955802
 20
4833346.8820228055
  0
LWPOLYLINE
  5
262
330
17
100
AcDbEntity
  8
ROADS
100
AcDbPolyline
 90
2
 70
0
 10
625875.8162437938
 20
4833164.05172644
 10
625820.7202813363
 20
4833346.095585952
  0
LWPOLYLINE
  5
263
330
17
100
AcDbEntity
  8
ROADS
100
AcDbPolyline
 90
2
 70
0
 10
625468.3336149651
 20
4833137.174547776
 10
625332.3437015079
 20
4833097.34483062
  0
LWPOLYLINE
  5
264
330
17
100
AcDbEntity
  8
ROADS
100
AcDbPolyline
 90
2
 70
0
 10
625286.9842244168
 20
4833084.059898204
 10
625257.7689628077
 20
4833178.665752119
  0
LWPOLYLINE
  5
265
330
17
100
AcDbEntity
  8
ROADS
100
AcDbPolyline
 90
2
 70
0
 10
625257.7689628077
 20
4833178.665752119
 10
625194.7178631197
 20
4833160.104309422
  0
LWPOLYLINE
  5
266
330
17
100
AcDbEntity
  8
ROADS
100
AcDbPolyline
 90
2
 70
0
 10
625472.7518559785
 20
4833243.476912696
 10
625257.7689628077
 20
4833178.665752119
  0
LWPOLYLINE
  5
267
330
17
100
AcDbEntity
  8
ROADS
100
AcDbPolyline
 90
2
 70
0
 10
625257.7689628077
 20
4833178.665752119
 10
625229.290550006
 20
4833272.948887868
  0
LWPOLYLINE
  5
268
330
17
100
AcDbEntity
  8
ROADS
100
AcDbPolyline
 90
2
 70
0
 10
625273.2181699686
 20
4833287.6040448295
 10
625229.290550006
 20
4833272.948887868
  0
LWPOLYLINE
  5
269
330
17
100
AcDbEntity
  8
ROADS
100
AcDbPolyline
 90
2
 70
0
 10
625562.3049490647
 20
4833318.014000075
 10
625297.6478753091
 20
4833244.5341078285
  0
LWPOLYLINE
  5
26A
330
17
100
AcDbEntity
  8
ROADS
100
AcDbPolyline
 90
2
 70
0
 10
625229.290550006
 20
4833272.948887868
 10
625198.8214318901
 20
4833374.678448467
  0
LWPOLYLINE
  5
26B
330
17
100
AcDbEntity
  8
ROADS
100
AcDbPolyline
 90
2
 70
0
 10
625547.4020943451
 20
4833367.7055091
 10
625273.2181699686
 20
4833287.6040448295
  0
LWPOLYLINE
  5
26C
330
17
100
AcDbEntity
  8
ROADS
100
AcDbPolyline
 90
3
 70
0
 10
625273.2181699686
 20
4833287.6040448295
 10
625269.3937373564
 20
4833341.678963007
 10
625532.0424578184
 20
4833418.655830489
  0
LWPOLYLINE
  5
26D
330
17
100
AcDbEntity
  8
ROADS
100
AcDbPolyline
 90
2
 70
0
 10
625820.7202813363
 20
4833346.095585952
 10
625673.4632733201
 20
4833302.797932414
  0
LWPOLYLINE
  5
26E
330
17
100
AcDbEntity
  8
ROADS
100
AcDbPolyline
 90
2
 70
0
 10
625621.9425483084
 20
4833332.611577871
 10
625562.3049490647
 20
4833318.014000075
  0
LWPOLYLINE
  5
26F
330
17
100
AcDbEntity
  8
ROADS
100
AcDbPolyline
 90
2
 70
0
 10
625547.4020943451
 20
4833367.7055091
 10
625562.3049490647
 20
4833318.014000075
  0
LWPOLYLINE
  5
270
330
17
100
AcDbEntity
  8
ROADS
100
AcDbPolyline
 90
2
 70
0
 10
625673.4632733201
 20
4833302.797932414
 10
625645.1208713305
 20
4833396.745114268
  0
LWPOLYLINE
  5
271
330
17
100
AcDbEntity
  8
ROADS
100
AcDbPolyline
 90
2
 70
0
 10
625645.1208713305
 20
4833396.745114268
 10
625547.4020943451
 20
4833367.7055091
  0
LWPOLYLINE
  5
272
330
17
100
AcDbEntity
  8
ROADS
100
AcDbPolyline
 90
2
 70
0
 10
625547.4020943451
 20
4833367.7055091
 10
625532.0424578184
 20
4833418.655830489
  0
LWPOLYLINE
  5
273
330
17
100
AcDbEntity
  8
ROADS
100
AcDbPolyline
 90
2
 70
0
 10
625816.955480783
 20
4833360.238365777
 10
625792.6723949226
 20
4833441.729225391
  0
LWPOLYLINE
  5
274
330
17
100
AcDbEntity
  8
ROADS
100
AcDbPolyline
 90
2
 70
0
 10
625681.0881520372
 20
4833409.293826144
 10
625645.1208713305
 20
4833396.745114268
  0
LWPOLYLINE
  5
275
330
17
100
AcDbEntity
  8
ROADS
100
AcDbPolyline
 90
2
 70
0
 10
625532.0424578184
 20
4833418.655830489
 10
625559.3652884252
 20
4833426.664060661
  0
LWPOLYLINE
  5
276
330
17
100
AcDbEntity
  8
ROADS
100
AcDbPolyline
 90
2
 70
0
 10
625792.6723949226
 20
4833441.729225391
 10
625681.0881520372
 20
4833409.293826144
  0
LWPOLYLINE
  5
277
330
17
100
AcDbEntity
  8
ROADS
100
AcDbPolyline
 90
2
 70
0
 10
626079.7043671659
 20
4833187.776591421
 10
626025.8615071632
 20
4833376.124571612
  0
LWPOLYLINE
  5
278
330
17
100
AcDbEntity
  8
ROADS
100
AcDbPolyline
 90
2
 70
0
 10
625820.7202813363
 20
4833346.095585952
 10
625816.955480783
 20
4833360.238365777
  0
LWPOLYLINE
  5
279
330
17
100
AcDbEntity
  8
ROADS
100
AcDbPolyline
 90
3
 70
0
 10
625816.955480783
 20
4833360.238365777
 10
625859.2589701168
 20
4833371.911535295
 10
625868.3093808587
 20
4833343.309437176
  0
LWPOLYLINE
  5
27A
330
17
100
AcDbEntity
  8
ROADS
100
AcDbPolyline
 90
2
 70
0
 10
626025.8615071632
 20
4833376.124571612
 10
625924.8830955802
 20
4833346.8820228055
  0
LWPOLYLINE
  5
27B
330
17
100
AcDbEntity
  8
ROADS
100
AcDbPolyline
 90
2
 70
0
 10
625924.8830955802
 20
4833346.8820228055
 10
625904.8764132342
 20
4833413.866351505
  0
LWPOLYLINE
  5
27C
330
17
100
AcDbEntity
  8
ROADS
100
AcDbPolyline
 90
2
 70
0
 10
626084.502564625
 20
4833394.033080761
 10
626025.8615071632
 20
4833376.124571612
  0
LWPOLYLINE
  5
27D
330
17
100
AcDbEntity
  8
ROADS
100
AcDbPolyline
 90
2
 70
0
 10
625904.8764132342
 20
4833413.866351505
 10
625887.7965427837
 20
4833470.3009549575
  0
LWPOLYLINE
  5
27E
330
17
100
AcDbEntity
  8
ROADS
100
AcDbPolyline
 90
2
 70
0
 10
625887.7965427837
 20
4833470.3009549575
 10
625792.6723949226
 20
4833441.729225391
  0
LWPOLYLINE
  5
27F
330
17
100
AcDbEntity
  8
ROADS
100
AcDbPolyline
 90
2
 70
0
 10
626025.8615071632
 20
4833376.124571612
 10
625950.2840847312
 20
4833618.239824053
  0
LWPOLYLINE
  5
280
330
17
100
AcDbEntity
  8
ROADS
100
AcDbPolyline
 90
3
 70
0
 10
625904.8764132342
 20
4833413.866351505
 10
625953.0309688107
 20
4833432.582679513
 10
625899.1494084497
 20
4833603.366834256
  0
LWPOLYLINE
  5
281
330
17
100
AcDbEntity
  8
ROADS
100
AcDbPolyline
 90
2
 70
0
 10
625645.1208713305
 20
4833396.745114268
 10
625615.1954473448
 20
4833494.449886747
  0
LWPOLYLINE
  5
282
330
17
100
AcDbEntity
  8
ROADS
100
AcDbPolyline
 90
3
 70
0
 10
625681.0881520372
 20
4833409.293826144
 10
625666.9595946744
 20
4833458.140293718
 10
625820.9117771809
 20
4833504.0491613895
  0
LWPOLYLINE
  5
283
330
17
100
AcDbEntity
  8
ROADS
100
AcDbPolyline
 90
2
 70
0
 10
625556.9209996407
 20
4833530.589803469
 10
625454.6360836027
 20
4833500.881608741
  0
LWPOLYLINE
  5
284
330
17
100
AcDbEntity
  8
ROADS
100
AcDbPolyline
 90
2
 70
0
 10
625858.6405574034
 20
4833566.321600328
 10
625615.1954473448
 20
4833494.449886747
  0
LWPOLYLINE
  5
285
330
17
100
AcDbEntity
  8
ROADS
100
AcDbPolyline
 90
2
 70
0
 10
625615.1954473448
 20
4833494.449886747
 10
625586.1852095964
 20
4833591.371137172
  0
LWPOLYLINE
  5
286
330
17
100
AcDbEntity
  8
ROADS
100
AcDbPolyline
 90
2
 70
0
 10
625692.5779281011
 20
4833570.03268198
 10
625644.2824873311
 20
4833555.628048477
  0
LWPOLYLINE
  5
287
330
17
100
AcDbEntity
  8
ROADS
100
AcDbPolyline
 90
2
 70
0
 10
625586.1852095964
 20
4833591.371137172
 10
625440.100451503
 20
4833549.8966923775
  0
LWPOLYLINE
  5
288
330
17
100
AcDbEntity
  8
ROADS
100
AcDbPolyline
 90
2
 70
0
 10
625777.865487183
 20
4833595.781506911
 10
625692.5779281011
 20
4833570.03268198
  0
LWPOLYLINE
  5
289
330
17
100
AcDbEntity
  8
ROADS
100
AcDbPolyline
 90
2
 70
0
 10
625678.6117605405
 20
4833619.244100557
 10
625692.5779281011
 20
4833570.03268198
  0
LWPOLYLINE
  5
28A
330
17
100
AcDbEntity
  8
ROADS
100
AcDbPolyline
 90
2
 70
0
 10
625622.9301778902
 20
4833602.9428668
 10
625586.1852095964
 20
4833591.371137172
  0
LWPOLYLINE
  5
28B
330
17
100
AcDbEntity
  8
ROADS
100
AcDbPolyline
 90
2
 70
0
 10
625615.1954473448
 20
4833494.449886747
 10
625198.8214318901
 20
4833374.678448467
  0
LWPOLYLINE
  5
28C
330
17
100
AcDbEntity
  8
ROADS
100
AcDbPolyline
 90
2
 70
0
 10
625454.6360836027
 20
4833500.881608741
 10
625253.4870015923
 20
4833441.771108794
  0
LWPOLYLINE
  5
28D
330
17
100
AcDbEntity
  8
ROADS
100
AcDbPolyline
 90
2
 70
0
 10
625215.0491277201
 20
4833482.813756226
 10
625202.4256437283
 20
4833529.503232271
  0
LWPOLYLINE
  5
28E
330
17
100
AcDbEntity
  8
ROADS
100
AcDbPolyline
 90
2
 70
0
 10
625440.100451503
 20
4833549.8966923775
 10
625215.0491277201
 20
4833482.813756226
  0
LWPOLYLINE
  5
28F
330
17
100
AcDbEntity
  8
ROADS
100
AcDbPolyline
 90
2
 70
0
 10
625440.100451503
 20
4833549.8966923775
 10
625454.6360836027
 20
4833500.881608741
  0
LWPOLYLINE
  5
290
330
17
100
AcDbEntity
  8
ROADS
100
AcDbPolyline
 90
2
 70
0
 10
625202.4256437283
 20
4833529.503232271
 10
625189.8983335021
 20
4833575.242389944
  0
LWPOLYLINE
  5
291
330
17
100
AcDbEntity
  8
ROADS
100
AcDbPolyline
 90
2
 70
0
 10
625202.4256437283
 20
4833529.503232271
 10
625356.9761407257
 20
4833575.328881253
  0
LWPOLYLINE
  5
292
330
17
100
AcDbEntity
  8
ROADS
100
AcDbPolyline
 90
2
 70
0
 10
625415.0850385819
 20
4833595.657193191
 10
625372.6208552149
 20
4833583.970104924
  0
LWPOLYLINE
  5
293
330
17
100
AcDbEntity
  8
ROADS
100
AcDbPolyline
 90
2
 70
0
 10
625401.4001436427
 20
4833642.143499341
 10
625189.8983335021
 20
4833575.242389944
  0
LWPOLYLINE
  5
294
330
17
100
AcDbEntity
  8
ROADS
100
AcDbPolyline
 90
3
 70
0
 10
625189.8983335021
 20
4833575.242389944
 10
625175.6464730744
 20
4833620.508351007
 10
625261.9231275994
 20
4833647.6861070255
  0
LWPOLYLINE
  5
295
330
17
100
AcDbEntity
  8
ROADS
100
AcDbPolyline
 90
3
 70
0
 10
624305.9430731799
 20
4833573.66914488
 10
624259.7136012954
 20
4833601.198128995
 10
624237.456694522
 20
4833605.860002662
  0
LWPOLYLINE
  5
296
330
17
100
AcDbEntity
  8
ROADS
100
AcDbPolyline
 90
2
 70
0
 10
624305.9430731799
 20
4833573.66914488
 10
624235.5684387655
 20
4833611.193559517
  0
LWPOLYLINE
  5
297
330
17
100
AcDbEntity
  8
ROADS
100
AcDbPolyline
 90
2
 70
0
 10
624922.0126736086
 20
4833341.002176433
 10
624861.463001807
 20
4833273.235226817
  0
LWPOLYLINE
  5
298
330
17
100
AcDbEntity
  8
ROADS
100
AcDbPolyline
 90
2
 70
0
 10
624999.766930829
 20
4833251.083356196
 10
624959.4578139454
 20
4833383.329205993
  0
LWPOLYLINE
  5
299
330
17
100
AcDbEntity
  8
ROADS
100
AcDbPolyline
 90
4
 70
0
 10
625072.2644169058
 20
4833336.440220895
 10
625086.3191198646
 20
4833289.1325861765
 10
625157.3506683562
 20
4833309.51836829
 10
625143.7429586835
 20
4833357.436124164
  0
LWPOLYLINE
  5
29A
330
17
100
AcDbEntity
  8
ROADS
100
AcDbPolyline
 90
2
 70
0
 10
625072.2644169058
 20
4833336.440220895
 10
625025.4745142993
 20
4833322.18086171
  0
LWPOLYLINE
  5
29B
330
17
100
AcDbEntity
  8
ROADS
100
AcDbPolyline
 90
2
 70
0
 10
625143.7429586835
 20
4833357.436124164
 10
625072.2644169058
 20
4833336.440220895
  0
LWPOLYLINE
  5
29C
330
17
100
AcDbEntity
  8
ROADS
100
AcDbPolyline
 90
2
 70
0
 10
625072.2644169058
 20
4833336.440220895
 10
625057.3988836318
 20
4833387.664415704
  0
LWPOLYLINE
  5
29D
330
17
100
AcDbEntity
  8
ROADS
100
AcDbPolyline
 90
2
 70
0
 10
624959.4578139454
 20
4833383.329205993
 10
624922.0126736086
 20
4833341.002176433
  0
LWPOLYLINE
  5
29E
330
17
100
AcDbEntity
  8
ROADS
100
AcDbPolyline
 90
2
 70
0
 10
625198.8214318901
 20
4833374.678448467
 10
625143.7429586835
 20
4833357.436124164
  0
LWPOLYLINE
  5
29F
330
17
100
AcDbEntity
  8
ROADS
100
AcDbPolyline
 90
2
 70
0
 10
625025.4745142993
 20
4833322.18086171
 10
624992.6741110862
 20
4833418.330417064
  0
LWPOLYLINE
  5
2A0
330
17
100
AcDbEntity
  8
ROADS
100
AcDbPolyline
 90
2
 70
0
 10
625143.7429586835
 20
4833357.436124164
 10
625129.6939648832
 20
4833405.0358837405
  0
LWPOLYLINE
  5
2A1
330
17
100
AcDbEntity
  8
ROADS
100
AcDbPolyline
 90
3
 70
0
 10
624905.2053027046
 20
4833214.584489933
 10
624888.7872858619
 20
4833195.333738062
 10
624744.3806144859
 20
4833153.375845737
  0
LWPOLYLINE
  5
2A2
330
17
100
AcDbEntity
  8
ROADS
100
AcDbPolyline
 90
2
 70
0
 10
624744.3806144859
 20
4833153.375845737
 10
624709.9783208895
 20
4833219.581758815
  0
LWPOLYLINE
  5
2A3
330
17
100
AcDbEntity
  8
ROADS
100
AcDbPolyline
 90
2
 70
0
 10
624709.9783208895
 20
4833219.581758815
 10
624632.2983710641
 20
4833192.8395321565
  0
LWPOLYLINE
  5
2A4
330
17
100
AcDbEntity
  8
ROADS
100
AcDbPolyline
 90
2
 70
0
 10
624861.463001807
 20
4833273.235226817
 10
624709.9783208895
 20
4833219.581758815
  0
LWPOLYLINE
  5
2A5
330
17
100
AcDbEntity
  8
ROADS
100
AcDbPolyline
 90
2
 70
0
 10
624632.2983710641
 20
4833192.8395321565
 10
624567.0499034268
 20
4833395.1433294425
  0
LWPOLYLINE
  5
2A6
330
17
100
AcDbEntity
  8
ROADS
100
AcDbPolyline
 90
2
 70
0
 10
624861.463001807
 20
4833273.235226817
 10
624822.2619960213
 20
4833392.696345269
  0
LWPOLYLINE
  5
2A7
330
17
100
AcDbEntity
  8
ROADS
100
AcDbPolyline
 90
4
 70
0
 10
624709.9783208895
 20
4833219.581758815
 10
624706.8478085278
 20
4833264.533630827
 10
624739.6182041056
 20
4833351.210561305
 10
624748.8247455683
 20
4833453.577519472
  0
LWPOLYLINE
  5
2A8
330
17
100
AcDbEntity
  8
ROADS
100
AcDbPolyline
 90
2
 70
0
 10
624748.8247455683
 20
4833453.577519472
 10
624567.0499034268
 20
4833395.1433294425
  0
LWPOLYLINE
  5
2A9
330
17
100
AcDbEntity
  8
ROADS
100
AcDbPolyline
 90
2
 70
0
 10
624922.0126736086
 20
4833341.002176433
 10
624843.0855330398
 20
4833582.525066636
  0
LWPOLYLINE
  5
2AA
330
17
100
AcDbEntity
  8
ROADS
100
AcDbPolyline
 90
2
 70
0
 10
624748.8247455683
 20
4833453.577519472
 10
624744.1227636542
 20
4833555.487099753
  0
LWPOLYLINE
  5
2AB
330
17
100
AcDbEntity
  8
ROADS
100
AcDbPolyline
 90
2
 70
0
 10
624992.6741110862
 20
4833418.330417064
 10
624959.4578139454
 20
4833383.329205993
  0
LWPOLYLINE
  5
2AC
330
17
100
AcDbEntity
  8
ROADS
100
AcDbPolyline
 90
2
 70
0
 10
625198.8214318901
 20
4833374.678448467
 10
625170.4354226169
 20
4833469.434748225
  0
LWPOLYLINE
  5
2AD
330
17
100
AcDbEntity
  8
ROADS
100
AcDbPolyline
 90
2
 70
0
 10
625037.0148265292
 20
4833431.651474911
 10
624992.6741110862
 20
4833418.330417064
  0
LWPOLYLINE
  5
2AE
330
17
100
AcDbEntity
  8
ROADS
100
AcDbPolyline
 90
2
 70
0
 10
625121.4619457618
 20
4833457.02600791
 10
625037.0148265292
 20
4833431.651474911
  0
LWPOLYLINE
  5
2AF
330
17
100
AcDbEntity
  8
ROADS
100
AcDbPolyline
 90
2
 70
0
 10
625170.4354226169
 20
4833469.434748225
 10
625121.4619457618
 20
4833457.02600791
  0
LWPOLYLINE
  5
2B0
330
17
100
AcDbEntity
  8
ROADS
100
AcDbPolyline
 90
2
 70
0
 10
624992.6741110862
 20
4833418.330417064
 10
624962.238885094
 20
4833514.254685525
  0
LWPOLYLINE
  5
2B1
330
17
100
AcDbEntity
  8
ROADS
100
AcDbPolyline
 90
4
 70
0
 10
625037.0148265292
 20
4833431.651474911
 10
625023.411611204
 20
4833476.885141588
 10
625107.8041779654
 20
4833502.455710059
 10
625121.4619457618
 20
4833457.02600791
  0
LWPOLYLINE
  5
2B2
330
17
100
AcDbEntity
  8
ROADS
100
AcDbPolyline
 90
2
 70
0
 10
625215.0491277201
 20
4833482.813756226
 10
625170.4354226169
 20
4833469.434748225
  0
LWPOLYLINE
  5
2B3
330
17
100
AcDbEntity
  8
ROADS
100
AcDbPolyline
 90
2
 70
0
 10
625170.4354226169
 20
4833469.434748225
 10
625141.459361337
 20
4833564.965411909
  0
LWPOLYLINE
  5
2B4
330
17
100
AcDbEntity
  8
ROADS
100
AcDbPolyline
 90
2
 70
0
 10
625141.459361337
 20
4833564.965411909
 10
624962.238885094
 20
4833514.254685525
  0
LWPOLYLINE
  5
2B5
330
17
100
AcDbEntity
  8
ROADS
100
AcDbPolyline
 90
2
 70
0
 10
624367.2680570509
 20
4833414.129916817
 10
624349.7824008527
 20
4833434.533005718
  0
LWPOLYLINE
  5
2B6
330
17
100
AcDbEntity
  8
ROADS
100
AcDbPolyline
 90
2
 70
0
 10
624567.0499034268
 20
4833395.1433294425
 10
624536.2946099964
 20
4833492.566774179
  0
LWPOLYLINE
  5
2B7
330
17
100
AcDbEntity
  8
ROADS
100
AcDbPolyline
 90
3
 70
0
 10
624328.4067541799
 20
4833405.704170254
 10
624343.9930256524
 20
4833443.002831855
 10
624340.532822248
 20
4833511.617956381
  0
LWPOLYLINE
  5
2B8
330
17
100
AcDbEntity
  8
ROADS
100
AcDbPolyline
 90
3
 70
0
 10
624349.7824008527
 20
4833434.533005718
 10
624348.931315722
 20
4833505.141390214
 10
624405.936050974
 20
4833530.777961263
  0
LWPOLYLINE
  5
2B9
330
17
100
AcDbEntity
  8
ROADS
100
AcDbPolyline
 90
2
 70
0
 10
624317.5610750099
 20
4833393.093497178
 10
624305.9430731799
 20
4833573.66914488
  0
LWPOLYLINE
  5
2BA
330
17
100
AcDbEntity
  8
ROADS
100
AcDbPolyline
 90
2
 70
0
 10
624340.532822248
 20
4833511.617956381
 10
624335.2745652979
 20
4833542.63108078
  0
LWPOLYLINE
  5
2BB
330
17
100
AcDbEntity
  8
ROADS
100
AcDbPolyline
 90
3
 70
0
 10
624379.9484172706
 20
4833527.748144381
 10
624346.2505836424
 20
4833519.8927300945
 10
624335.2745652979
 20
4833542.63108078
  0
LWPOLYLINE
  5
2BC
330
17
100
AcDbEntity
  8
ROADS
100
AcDbPolyline
 90
3
 70
0
 10
624402.4723991245
 20
4833557.197778461
 10
624392.4101845855
 20
4833524.699193462
 10
624340.532822248
 20
4833511.617956381
  0
LWPOLYLINE
  5
2BD
330
17
100
AcDbEntity
  8
ROADS
100
AcDbPolyline
 90
2
 70
0
 10
624379.9484172706
 20
4833527.748144381
 10
624335.2745652979
 20
4833542.63108078
  0
LWPOLYLINE
  5
2BE
330
17
100
AcDbEntity
  8
ROADS
100
AcDbPolyline
 90
2
 70
0
 10
624536.2946099964
 20
4833492.566774179
 10
624506.4458771592
 20
4833585.367836544
  0
LWPOLYLINE
  5
2BF
330
17
100
AcDbEntity
  8
ROADS
100
AcDbPolyline
 90
2
 70
0
 10
624402.4723991245
 20
4833557.197778461
 10
624379.9484172706
 20
4833527.748144381
  0
LWPOLYLINE
  5
2C0
330
17
100
AcDbEntity
  8
ROADS
100
AcDbPolyline
 90
2
 70
0
 10
624340.532822248
 20
4833511.617956381
 10
624305.9430731799
 20
4833573.66914488
  0
LWPOLYLINE
  5
2C1
330
17
100
AcDbEntity
  8
ROADS
100
AcDbPolyline
 90
2
 70
0
 10
624405.936050974
 20
4833530.777961263
 10
624438.505644539
 20
4833562.658275738
  0
LWPOLYLINE
  5
2C2
330
17
100
AcDbEntity
  8
ROADS
100
AcDbPolyline
 90
3
 70
0
 10
624405.936050974
 20
4833530.777961263
 10
624410.5889037502
 20
4833552.767225493
 10
624438.505644539
 20
4833562.658275738
  0
LWPOLYLINE
  5
2C3
330
17
100
AcDbEntity
  8
ROADS
100
AcDbPolyline
 90
2
 70
0
 10
624335.2745652979
 20
4833542.63108078
 10
624305.9430731799
 20
4833573.66914488
  0
LWPOLYLINE
  5
2C4
330
17
100
AcDbEntity
  8
ROADS
100
AcDbPolyline
 90
2
 70
0
 10
624506.4458771592
 20
4833585.367836544
 10
624402.4723991245
 20
4833557.197778461
  0
LWPOLYLINE
  5
2C5
330
17
100
AcDbEntity
  8
ROADS
100
AcDbPolyline
 90
2
 70
0
 10
624438.505644539
 20
4833562.658275738
 10
624506.4458771592
 20
4833585.367836544
  0
LWPOLYLINE
  5
2C6
330
17
100
AcDbEntity
  8
ROADS
100
AcDbPolyline
 90
2
 70
0
 10
624335.2745652979
 20
4833542.63108078
 10
624315.8407616033
 20
4833644.01576456
  0
LWPOLYLINE
  5
2C7
330
17
100
AcDbEntity
  8
ROADS
100
AcDbPolyline
 90
2
 70
0
 10
624305.9430731799
 20
4833573.66914488
 10
624315.8407616033
 20
4833644.01576456
  0
LWPOLYLINE
  5
2C8
330
17
100
AcDbEntity
  8
ROADS
100
AcDbPolyline
 90
2
 70
0
 10
624506.4458771592
 20
4833585.367836544
 10
624471.785865413
 20
4833693.163735406
  0
LWPOLYLINE
  5
2C9
330
17
100
AcDbEntity
  8
ROADS
100
AcDbPolyline
 90
2
 70
0
 10
624744.1227636542
 20
4833555.487099753
 10
624536.2946099964
 20
4833492.566774179
  0
LWPOLYLINE
  5
2CA
330
17
100
AcDbEntity
  8
ROADS
100
AcDbPolyline
 90
2
 70
0
 10
624843.0855330398
 20
4833582.525066636
 10
624744.1227636542
 20
4833555.487099753
  0
LWPOLYLINE
  5
2CB
330
17
100
AcDbEntity
  8
ROADS
100
AcDbPolyline
 90
2
 70
0
 10
624932.545057443
 20
4833609.493798202
 10
624843.0855330398
 20
4833582.525066636
  0
LWPOLYLINE
  5
2CC
330
17
100
AcDbEntity
  8
ROADS
100
AcDbPolyline
 90
2
 70
0
 10
624744.1227636542
 20
4833555.487099753
 10
624752.6141237654
 20
4833662.8384126015
  0
LWPOLYLINE
  5
2CD
330
17
100
AcDbEntity
  8
ROADS
100
AcDbPolyline
 90
2
 70
0
 10
624752.6141237654
 20
4833662.8384126015
 10
624506.4458771592
 20
4833585.367836544
  0
LWPOLYLINE
  5
2CE
330
17
100
AcDbEntity
  8
ROADS
100
AcDbPolyline
 90
2
 70
0
 10
624901.209619735
 20
4833705.756282331
 10
624752.6141237654
 20
4833662.8384126015
  0
LWPOLYLINE
  5
2CF
330
17
100
AcDbEntity
  8
ROADS
100
AcDbPolyline
 90
2
 70
0
 10
624752.6141237654
 20
4833662.8384126015
 10
624690.9602252082
 20
4833756.379249301
  0
LWPOLYLINE
  5
2D0
330
17
100
AcDbEntity
  8
ROADS
100
AcDbPolyline
 90
2
 70
0
 10
624690.9602252082
 20
4833756.379249301
 10
624471.785865413
 20
4833693.163735406
  0
LWPOLYLINE
  5
2D1
330
17
100
AcDbEntity
  8
ROADS
100
AcDbPolyline
 90
2
 70
0
 10
624901.209619735
 20
4833705.756282331
 10
624868.8243937199
 20
4833804.160393632
  0
LWPOLYLINE
  5
2D2
330
17
100
AcDbEntity
  8
ROADS
100
AcDbPolyline
 90
2
 70
0
 10
624868.8243937199
 20
4833804.160393632
 10
624690.9602252082
 20
4833756.379249301
  0
LWPOLYLINE
  5
2D3
330
17
100
AcDbEntity
  8
ROADS
100
AcDbPolyline
 90
2
 70
0
 10
624962.238885094
 20
4833514.254685525
 10
624932.545057443
 20
4833609.493798202
  0
LWPOLYLINE
  5
2D4
330
17
100
AcDbEntity
  8
ROADS
100
AcDbPolyline
 90
2
 70
0
 10
625189.8983335021
 20
4833575.242389944
 10
625141.459361337
 20
4833564.965411909
  0
LWPOLYLINE
  5
2D5
330
17
100
AcDbEntity
  8
ROADS
100
AcDbPolyline
 90
2
 70
0
 10
625141.459361337
 20
4833564.965411909
 10
625112.4035712084
 20
4833662.692740799
  0
LWPOLYLINE
  5
2D6
330
17
100
AcDbEntity
  8
ROADS
100
AcDbPolyline
 90
2
 70
0
 10
625112.4035712084
 20
4833662.692740799
 10
624932.545057443
 20
4833609.493798202
  0
LWPOLYLINE
  5
2D7
330
17
100
AcDbEntity
  8
ROADS
100
AcDbPolyline
 90
2
 70
0
 10
624932.545057443
 20
4833609.493798202
 10
624901.209619735
 20
4833705.756282331
  0
LWPOLYLINE
  5
2D8
330
17
100
AcDbEntity
  8
ROADS
100
AcDbPolyline
 90
2
 70
0
 10
625112.4035712084
 20
4833662.692740799
 10
625082.2318861623
 20
4833762.179983483
  0
LWPOLYLINE
  5
2D9
330
17
100
AcDbEntity
  8
ROADS
100
AcDbPolyline
 90
2
 70
0
 10
625082.2318861623
 20
4833762.179983483
 10
624901.209619735
 20
4833705.756282331
  0
LWPOLYLINE
  5
2DA
330
17
100
AcDbEntity
  8
ROADS
100
AcDbPolyline
 90
2
 70
0
 10
625082.2318861623
 20
4833762.179983483
 10
625053.5118540082
 20
4833857.982240477
  0
LWPOLYLINE
  5
2DB
330
17
100
AcDbEntity
  8
ROADS
100
AcDbPolyline
 90
2
 70
0
 10
625053.5118540082
 20
4833857.982240477
 10
624868.8243937199
 20
4833804.160393632
  0
LWPOLYLINE
  5
2DC
330
17
100
AcDbEntity
  8
ROADS
100
AcDbPolyline
 90
2
 70
0
 10
625099.4254047524
 20
4833871.316785885
 10
625053.5118540082
 20
4833857.982240477
  0
LWPOLYLINE
  5
2DD
330
17
100
AcDbEntity
  8
ROADS
100
AcDbPolyline
 90
2
 70
0
 10
625415.0850385819
 20
4833595.657193191
 10
625401.4001436427
 20
4833642.143499341
  0
LWPOLYLINE
  5
2DE
330
17
100
AcDbEntity
  8
ROADS
100
AcDbPolyline
 90
3
 70
0
 10
625507.8868648373
 20
4833673.478762875
 10
625522.2927669829
 20
4833626.773461044
 10
625415.0850385819
 20
4833595.657193191
  0
LWPOLYLINE
  5
2DF
330
17
100
AcDbEntity
  8
ROADS
100
AcDbPolyline
 90
2
 70
0
 10
625507.8868648373
 20
4833673.478762875
 10
625401.4001436427
 20
4833642.143499341
  0
LWPOLYLINE
  5
2E0
330
17
100
AcDbEntity
  8
ROADS
100
AcDbPolyline
 90
2
 70
0
 10
625507.8868648373
 20
4833673.478762875
 10
625493.4545034457
 20
4833721.9796844935
  0
LWPOLYLINE
  5
2E1
330
17
100
AcDbEntity
  8
ROADS
100
AcDbPolyline
 90
2
 70
0
 10
625493.4545034457
 20
4833721.9796844935
 10
625392.1644811746
 20
4833692.4484268585
  0
LWPOLYLINE
  5
2E2
330
17
100
AcDbEntity
  8
ROADS
100
AcDbPolyline
 90
2
 70
0
 10
625479.0624754918
 20
4833769.687286014
 10
625112.4035712084
 20
4833662.692740799
  0
LWPOLYLINE
  5
2E3
330
17
100
AcDbEntity
  8
ROADS
100
AcDbPolyline
 90
2
 70
0
 10
625493.4545034457
 20
4833721.9796844935
 10
625479.0624754918
 20
4833769.687286014
  0
LWPOLYLINE
  5
2E4
330
17
100
AcDbEntity
  8
ROADS
100
AcDbPolyline
 90
2
 70
0
 10
625378.3662213498
 20
4833796.38791798
 10
625159.6410724205
 20
4833731.588286474
  0
LWPOLYLINE
  5
2E5
330
17
100
AcDbEntity
  8
ROADS
100
AcDbPolyline
 90
2
 70
0
 10
625528.061085565
 20
4833783.861639031
 10
625479.0624754918
 20
4833769.687286014
  0
LWPOLYLINE
  5
2E6
330
17
100
AcDbEntity
  8
ROADS
100
AcDbPolyline
 90
3
 70
0
 10
625479.0624754918
 20
4833769.687286014
 10
625464.7966031601
 20
4833815.671065894
 10
625450.4347085343
 20
4833812.798340092
  0
LWPOLYLINE
  5
2E7
330
17
100
AcDbEntity
  8
ROADS
100
AcDbPolyline
 90
2
 70
0
 10
624471.785865413
 20
4833693.163735406
 10
624442.3008861699
 20
4833784.814775474
  0
LWPOLYLINE
  5
2E8
330
17
100
AcDbEntity
  8
ROADS
100
AcDbPolyline
 90
5
 70
0
 10
624372.2524688618
 20
4834003.516472546
 10
624322.4736885298
 20
4833894.68999038
 10
624368.5977196095
 20
4833763.192583088
 10
624376.3451158787
 20
4833611.196481857
 10
624402.4723991245
 20
4833557.197778461
  0
LWPOLYLINE
  5
2E9
330
17
100
AcDbEntity
  8
ROADS
100
AcDbPolyline
 90
2
 70
0
 10
624657.0058612402
 20
4833847.593544559
 10
624442.3008861699
 20
4833784.814775474
  0
LWPOLYLINE
  5
2EA
330
17
100
AcDbEntity
  8
ROADS
100
AcDbPolyline
 90
2
 70
0
 10
624442.3008861699
 20
4833784.814775474
 10
624412.7939243909
 20
4833877.625464631
  0
LWPOLYLINE
  5
2EB
330
17
100
AcDbEntity
  8
ROADS
100
AcDbPolyline
 90
3
 70
0
 10
624315.8407616033
 20
4833644.01576456
 10
624295.4048139759
 20
4833679.697331459
 10
624201.0184850234
 20
4833739.621260947
  0
LWPOLYLINE
  5
2EC
330
17
100
AcDbEntity
  8
ROADS
100
AcDbPolyline
 90
3
 70
0
 10
624176.0488010703
 20
4833822.652839218
 10
624199.532710587
 20
4833997.185458883
 10
624190.687932119
 20
4834043.015025106
  0
LWPOLYLINE
  5
2ED
330
17
100
AcDbEntity
  8
ROADS
100
AcDbPolyline
 90
2
 70
0
 10
624644.9826137078
 20
4833945.339546949
 10
624412.7939243909
 20
4833877.625464631
  0
LWPOLYLINE
  5
2EE
330
17
100
AcDbEntity
  8
ROADS
100
AcDbPolyline
 90
2
 70
0
 10
624412.7939243909
 20
4833877.625464631
 10
624384.5378202695
 20
4833965.24546786
  0
LWPOLYLINE
  5
2EF
330
17
100
AcDbEntity
  8
ROADS
100
AcDbPolyline
 90
2
 70
0
 10
624362.0466318375
 20
4834003.089992953
 10
624328.936037661
 20
4833926.338473121
  0
LWPOLYLINE
  5
2F0
330
17
100
AcDbEntity
  8
ROADS
100
AcDbPolyline
 90
2
 70
0
 10
624384.5378202695
 20
4833965.24546786
 10
624372.2524688618
 20
4834003.516472546
  0
LWPOLYLINE
  5
2F1
330
17
100
AcDbEntity
  8
ROADS
100
AcDbPolyline
 90
2
 70
0
 10
624633.3088528026
 20
4834037.580560996
 10
624384.5378202695
 20
4833965.24546786
  0
LWPOLYLINE
  5
2F2
330
17
100
AcDbEntity
  8
ROADS
100
AcDbPolyline
 90
2
 70
0
 10
625365.2603066205
 20
4833842.709666054
 10
625082.2318861623
 20
4833762.179983483
  0
LWPOLYLINE
  5
2F3
330
17
100
AcDbEntity
  8
ROADS
100
AcDbPolyline
 90
2
 70
0
 10
625450.4347085343
 20
4833812.798340092
 10
625378.3662213498
 20
4833796.38791798
  0
LWPOLYLINE
  5
2F4
330
17
100
AcDbEntity
  8
ROADS
100
AcDbPolyline
 90
2
 70
0
 10
625378.3662213498
 20
4833796.38791798
 10
625365.2603066205
 20
4833842.709666054
  0
LWPOLYLINE
  5
2F5
330
17
100
AcDbEntity
  8
ROADS
100
AcDbPolyline
 90
2
 70
0
 10
625450.4347085343
 20
4833812.798340092
 10
625435.9298996285
 20
4833863.204046152
  0
LWPOLYLINE
  5
2F6
330
17
100
AcDbEntity
  8
ROADS
100
AcDbPolyline
 90
2
 70
0
 10
625252.3796386883
 20
4833862.065643521
 10
625190.215206716
 20
4833842.725053546
  0
LWPOLYLINE
  5
2F7
330
17
100
AcDbEntity
  8
ROADS
100
AcDbPolyline
 90
2
 70
0
 10
625435.9298996285
 20
4833863.204046152
 10
625365.2603066205
 20
4833842.709666054
  0
LWPOLYLINE
  5
2F8
330
17
100
AcDbEntity
  8
ROADS
100
AcDbPolyline
 90
2
 70
0
 10
625497.9702192792
 20
4833881.197333705
 10
625435.9298996285
 20
4833863.204046152
  0
LWPOLYLINE
  5
2F9
330
17
100
AcDbEntity
  8
ROADS
100
AcDbPolyline
 90
2
 70
0
 10
625252.3796386883
 20
4833862.065643521
 10
625238.0805908575
 20
4833911.350973786
  0
LWPOLYLINE
  5
2FA
330
17
100
AcDbEntity
  8
ROADS
100
AcDbPolyline
 90
2
 70
0
 10
625497.9702192792
 20
4833881.197333705
 10
625488.1837352336
 20
4833916.217447295
  0
LWPOLYLINE
  5
2FB
330
17
100
AcDbEntity
  8
ROADS
100
AcDbPolyline
 90
3
 70
0
 10
625420.7538282357
 20
4833962.865400984
 10
625435.3098743998
 20
4833917.37190523
 10
625252.3796386883
 20
4833862.065643521
  0
LWPOLYLINE
  5
2FC
330
17
100
AcDbEntity
  8
ROADS
100
AcDbPolyline
 90
2
 70
0
 10
625887.7965427837
 20
4833470.3009549575
 10
625858.6405574034
 20
4833566.321600328
  0
LWPOLYLINE
  5
2FD
330
17
100
AcDbEntity
  8
ROADS
100
AcDbPolyline
 90
2
 70
0
 10
625950.2840847312
 20
4833618.239824053
 10
625899.1494084497
 20
4833603.366834256
  0
LWPOLYLINE
  5
2FE
330
17
100
AcDbEntity
  8
ROADS
100
AcDbPolyline
 90
2
 70
0
 10
625858.6405574034
 20
4833566.321600328
 10
625829.6543086229
 20
4833662.411301028
  0
LWPOLYLINE
  5
2FF
330
17
100
AcDbEntity
  8
ROADS
100
AcDbPolyline
 90
2
 70
0
 10
625899.1494084497
 20
4833603.366834256
 10
625869.130463757
 20
4833712.936660019
  0
LWPOLYLINE
  5
300
330
17
100
AcDbEntity
  8
ROADS
100
AcDbPolyline
 90
2
 70
0
 10
625950.2840847312
 20
4833618.239824053
 10
625916.3291984178
 20
4833728.7615872165
  0
LWPOLYLINE
  5
301
330
17
100
AcDbEntity
  8
ROADS
100
AcDbPolyline
 90
2
 70
0
 10
625829.6543086229
 20
4833662.411301028
 10
625800.308665938
 20
4833759.571552044
  0
LWPOLYLINE
  5
302
330
17
100
AcDbEntity
  8
ROADS
100
AcDbPolyline
 90
2
 70
0
 10
625869.130463757
 20
4833712.936660019
 10
625916.3291984178
 20
4833728.7615872165
  0
LWPOLYLINE
  5
303
330
17
100
AcDbEntity
  8
ROADS
100
AcDbPolyline
 90
2
 70
0
 10
625971.7441511421
 20
4833718.134136819
 10
626000.66107916
 20
4833723.2808120875
  0
LWPOLYLINE
  5
304
330
17
100
AcDbEntity
  8
ROADS
100
AcDbPolyline
 90
3
 70
0
 10
625934.3408920569
 20
4833735.86352058
 10
625940.5486463711
 20
4833720.18280127
 10
625971.7441511421
 20
4833718.134136819
  0
LWPOLYLINE
  5
305
330
17
100
AcDbEntity
  8
ROADS
100
AcDbPolyline
 90
2
 70
0
 10
625678.6117605405
 20
4833619.244100557
 10
625622.9301778902
 20
4833602.9428668
  0
LWPOLYLINE
  5
306
330
17
100
AcDbEntity
  8
ROADS
100
AcDbPolyline
 90
2
 70
0
 10
625790.0225768583
 20
4833651.867446239
 10
625678.6117605405
 20
4833619.244100557
  0
LWPOLYLINE
  5
307
330
17
100
AcDbEntity
  8
ROADS
100
AcDbPolyline
 90
2
 70
0
 10
625586.1852095964
 20
4833591.371137172
 10
625557.3864196728
 20
4833688.156184966
  0
LWPOLYLINE
  5
308
330
17
100
AcDbEntity
  8
ROADS
100
AcDbPolyline
 90
3
 70
0
 10
625622.9301778902
 20
4833602.9428668
 10
625616.1702201877
 20
4833654.212625961
 10
625775.1015367287
 20
4833700.3485768
  0
LWPOLYLINE
  5
309
330
17
100
AcDbEntity
  8
ROADS
100
AcDbPolyline
 90
2
 70
0
 10
625829.6543086229
 20
4833662.411301028
 10
625790.0225768583
 20
4833651.867446239
  0
LWPOLYLINE
  5
30A
330
17
100
AcDbEntity
  8
ROADS
100
AcDbPolyline
 90
2
 70
0
 10
625521.3126828233
 20
4833677.459628759
 10
625507.8868648373
 20
4833673.478762875
  0
LWPOLYLINE
  5
30B
330
17
100
AcDbEntity
  8
ROADS
100
AcDbPolyline
 90
2
 70
0
 10
625790.0225768583
 20
4833651.867446239
 10
625775.1015367287
 20
4833700.3485768
  0
LWPOLYLINE
  5
30C
330
17
100
AcDbEntity
  8
ROADS
100
AcDbPolyline
 90
2
 70
0
 10
625557.3864196728
 20
4833688.156184966
 10
625521.3126828233
 20
4833677.459628759
  0
LWPOLYLINE
  5
30D
330
17
100
AcDbEntity
  8
ROADS
100
AcDbPolyline
 90
2
 70
0
 10
625625.7352958306
 20
4833709.017622739
 10
625557.3864196728
 20
4833688.156184966
  0
LWPOLYLINE
  5
30E
330
17
100
AcDbEntity
  8
ROADS
100
AcDbPolyline
 90
3
 70
0
 10
625521.3126828233
 20
4833677.459628759
 10
625507.2648763589
 20
4833723.828381066
 10
625493.4545034457
 20
4833721.9796844935
  0
LWPOLYLINE
  5
30F
330
17
100
AcDbEntity
  8
ROADS
100
AcDbPolyline
 90
2
 70
0
 10
625971.7441511421
 20
4833718.134136819
 10
625955.869955717
 20
4833742.735010016
  0
LWPOLYLINE
  5
310
330
17
100
AcDbEntity
  8
ROADS
100
AcDbPolyline
 90
2
 70
0
 10
625916.3291984178
 20
4833728.7615872165
 10
625934.3408920569
 20
4833735.86352058
  0
LWPOLYLINE
  5
311
330
17
100
AcDbEntity
  8
ROADS
100
AcDbPolyline
 90
2
 70
0
 10
625990.9293350917
 20
4833749.623102886
 10
625973.0078527714
 20
4833747.831036269
  0
LWPOLYLINE
  5
312
330
17
100
AcDbEntity
  8
ROADS
100
AcDbPolyline
 90
2
 70
0
 10
625934.3408920569
 20
4833735.86352058
 10
625955.869955717
 20
4833742.735010016
  0
LWPOLYLINE
  5
313
330
17
100
AcDbEntity
  8
ROADS
100
AcDbPolyline
 90
2
 70
0
 10
625955.869955717
 20
4833742.735010016
 10
625973.0078527714
 20
4833747.831036269
  0
LWPOLYLINE
  5
314
330
17
100
AcDbEntity
  8
ROADS
100
AcDbPolyline
 90
2
 70
0
 10
625916.3291984178
 20
4833728.7615872165
 10
625903.2129554488
 20
4833771.449014966
  0
LWPOLYLINE
  5
315
330
17
100
AcDbEntity
  8
ROADS
100
AcDbPolyline
 90
2
 70
0
 10
625869.130463757
 20
4833712.936660019
 10
625837.8510946814
 20
4833806.256748217
  0
LWPOLYLINE
  5
316
330
17
100
AcDbEntity
  8
ROADS
100
AcDbPolyline
 90
3
 70
0
 10
625973.0078527714
 20
4833747.831036269
 10
625965.589533561
 20
4833793.860643159
 10
625970.2329170054
 20
4833793.558321319
  0
LWPOLYLINE
  5
317
330
17
100
AcDbEntity
  8
ROADS
100
AcDbPolyline
 90
2
 70
0
 10
625955.6355466499
 20
4833770.367379685
 10
625950.6091522303
 20
4833786.640483868
  0
LWPOLYLINE
  5
318
330
17
100
AcDbEntity
  8
ROADS
100
AcDbPolyline
 90
2
 70
0
 10
625903.2129554488
 20
4833771.449014966
 10
625950.6091522303
 20
4833786.640483868
  0
LWPOLYLINE
  5
319
330
17
100
AcDbEntity
  8
ROADS
100
AcDbPolyline
 90
2
 70
0
 10
625775.1015367287
 20
4833700.3485768
 10
625758.0199754952
 20
4833747.394240522
  0
LWPOLYLINE
  5
31A
330
17
100
AcDbEntity
  8
ROADS
100
AcDbPolyline
 90
2
 70
0
 10
625758.0199754952
 20
4833747.394240522
 10
625625.7352958306
 20
4833709.017622739
  0
LWPOLYLINE
  5
31B
330
17
100
AcDbEntity
  8
ROADS
100
AcDbPolyline
 90
2
 70
0
 10
625625.7352958306
 20
4833709.017622739
 10
625610.6571009659
 20
4833755.846792517
  0
LWPOLYLINE
  5
31C
330
17
100
AcDbEntity
  8
ROADS
100
AcDbPolyline
 90
2
 70
0
 10
625557.3864196728
 20
4833688.156184966
 10
625528.061085565
 20
4833783.861639031
  0
LWPOLYLINE
  5
31D
330
17
100
AcDbEntity
  8
ROADS
100
AcDbPolyline
 90
2
 70
0
 10
625610.6571009659
 20
4833755.846792517
 10
625590.2632731468
 20
4833748.081774886
  0
LWPOLYLINE
  5
31E
330
17
100
AcDbEntity
  8
ROADS
100
AcDbPolyline
 90
2
 70
0
 10
625800.308665938
 20
4833759.571552044
 10
625758.0199754952
 20
4833747.394240522
  0
LWPOLYLINE
  5
31F
330
17
100
AcDbEntity
  8
ROADS
100
AcDbPolyline
 90
3
 70
0
 10
625758.0199754952
 20
4833747.394240522
 10
625738.0640700726
 20
4833795.371671837
 10
625610.6571009659
 20
4833755.846792517
  0
LWPOLYLINE
  5
320
330
17
100
AcDbEntity
  8
ROADS
100
AcDbPolyline
 90
2
 70
0
 10
625800.308665938
 20
4833759.571552044
 10
625782.5916439391
 20
4833818.886771952
  0
LWPOLYLINE
  5
321
330
17
100
AcDbEntity
  8
ROADS
100
AcDbPolyline
 90
2
 70
0
 10
625588.3301926407
 20
4833802.138921576
 10
625528.061085565
 20
4833783.861639031
  0
LWPOLYLINE
  5
322
330
17
100
AcDbEntity
  8
ROADS
100
AcDbPolyline
 90
2
 70
0
 10
625770.5455644412
 20
4833855.371163373
 10
625588.3301926407
 20
4833802.138921576
  0
LWPOLYLINE
  5
323
330
17
100
AcDbEntity
  8
ROADS
100
AcDbPolyline
 90
2
 70
0
 10
625528.061085565
 20
4833783.861639031
 10
625497.9702192792
 20
4833881.197333705
  0
LWPOLYLINE
  5
324
330
17
100
AcDbEntity
  8
ROADS
100
AcDbPolyline
 90
2
 70
0
 10
625782.5916439391
 20
4833818.886771952
 10
625770.5455644412
 20
4833855.371163373
  0
LWPOLYLINE
  5
325
330
17
100
AcDbEntity
  8
ROADS
100
AcDbPolyline
 90
2
 70
0
 10
625588.3301926407
 20
4833802.138921576
 10
625555.1360123913
 20
4833885.26173593
  0
LWPOLYLINE
  5
326
330
17
100
AcDbEntity
  8
ROADS
100
AcDbPolyline
 90
2
 70
0
 10
625770.5455644412
 20
4833855.371163373
 10
625756.0696069127
 20
4833905.839441015
  0
LWPOLYLINE
  5
327
330
17
100
AcDbEntity
  8
ROADS
100
AcDbPolyline
 90
3
 70
0
 10
625555.1360123913
 20
4833885.26173593
 10
625518.3721006318
 20
4833889.899556256
 10
625488.1837352336
 20
4833916.217447295
  0
LWPOLYLINE
  5
328
330
17
100
AcDbEntity
  8
ROADS
100
AcDbPolyline
 90
2
 70
0
 10
625555.1360123913
 20
4833885.26173593
 10
625555.4279367956
 20
4833939.158414195
  0
LWPOLYLINE
  5
329
330
17
100
AcDbEntity
  8
ROADS
100
AcDbPolyline
 90
3
 70
0
 10
625756.0696069127
 20
4833905.839441015
 10
625671.1173588826
 20
4833880.850642234
 10
625646.6222730856
 20
4833963.053640004
  0
LWPOLYLINE
  5
32A
330
17
100
AcDbEntity
  8
ROADS
100
AcDbPolyline
 90
2
 70
0
 10
625555.4279367956
 20
4833939.158414195
 10
625488.1837352336
 20
4833916.217447295
  0
LWPOLYLINE
  5
32B
330
17
100
AcDbEntity
  8
ROADS
100
AcDbPolyline
 90
2
 70
0
 10
625579.9197753983
 20
4833943.338970116
 10
625555.4279367956
 20
4833939.158414195
  0
LWPOLYLINE
  5
32C
330
17
100
AcDbEntity
  8
ROADS
100
AcDbPolyline
 90
2
 70
0
 10
625555.4279367956
 20
4833939.158414195
 10
625545.5997828462
 20
4833946.328860709
  0
LWPOLYLINE
  5
32D
330
17
100
AcDbEntity
  8
ROADS
100
AcDbPolyline
 90
2
 70
0
 10
625950.6091522303
 20
4833786.640483868
 10
625937.5798967798
 20
4833828.498437814
  0
LWPOLYLINE
  5
32E
330
17
100
AcDbEntity
  8
ROADS
100
AcDbPolyline
 90
2
 70
0
 10
625903.2129554488
 20
4833771.449014966
 10
625879.87471285
 20
4833847.412623831
  0
LWPOLYLINE
  5
32F
330
17
100
AcDbEntity
  8
ROADS
100
AcDbPolyline
 90
2
 70
0
 10
625879.87471285
 20
4833847.412623831
 10
625782.5916439391
 20
4833818.886771952
  0
LWPOLYLINE
  5
330
330
17
100
AcDbEntity
  8
ROADS
100
AcDbPolyline
 90
2
 70
0
 10
625879.87471285
 20
4833847.412623831
 10
625882.045694566
 20
4833897.494760513
  0
LWPOLYLINE
  5
331
330
17
100
AcDbEntity
  8
ROADS
100
AcDbPolyline
 90
4
 70
0
 10
625756.0696069127
 20
4833905.839441015
 10
625740.4262672776
 20
4833957.486683596
 10
625709.2479779976
 20
4833982.246605546
 10
625646.6222730856
 20
4833963.053640004
  0
LWPOLYLINE
  5
332
330
17
100
AcDbEntity
  8
ROADS
100
AcDbPolyline
 90
2
 70
0
 10
625545.5997828462
 20
4833946.328860709
 10
625526.3691229036
 20
4833953.663713789
  0
LWPOLYLINE
  5
333
330
17
100
AcDbEntity
  8
ROADS
100
AcDbPolyline
 90
2
 70
0
 10
625526.3691229036
 20
4833953.663713789
 10
625503.6287999725
 20
4833948.409085945
  0
LWPOLYLINE
  5
334
330
17
100
AcDbEntity
  8
ROADS
100
AcDbPolyline
 90
2
 70
0
 10
625646.6222730856
 20
4833963.053640004
 10
625579.9197753983
 20
4833943.338970116
  0
LWPOLYLINE
  5
335
330
17
100
AcDbEntity
  8
ROADS
100
AcDbPolyline
 90
2
 70
0
 10
625555.4279367956
 20
4833939.158414195
 10
625556.4647810556
 20
4833967.886456074
  0
LWPOLYLINE
  5
336
330
17
100
AcDbEntity
  8
ROADS
100
AcDbPolyline
 90
2
 70
0
 10
625579.9197753983
 20
4833943.338970116
 10
625570.5978615297
 20
4833973.238195166
  0
LWPOLYLINE
  5
337
330
17
100
AcDbEntity
  8
ROADS
100
AcDbPolyline
 90
2
 70
0
 10
625545.5997828462
 20
4833946.328860709
 10
625539.5167291773
 20
4833977.020665302
  0
LWPOLYLINE
  5
338
330
17
100
AcDbEntity
  8
ROADS
100
AcDbPolyline
 90
2
 70
0
 10
625526.3691229036
 20
4833953.663713789
 10
625539.5167291773
 20
4833977.020665302
  0
LWPOLYLINE
  5
339
330
17
100
AcDbEntity
  8
ROADS
100
AcDbPolyline
 90
2
 70
0
 10
625556.4647810556
 20
4833967.886456074
 10
625570.5978615297
 20
4833973.238195166
  0
LWPOLYLINE
  5
33A
330
17
100
AcDbEntity
  8
ROADS
100
AcDbPolyline
 90
2
 70
0
 10
625539.5167291773
 20
4833977.020665302
 10
625556.4647810556
 20
4833967.886456074
  0
LWPOLYLINE
  5
33B
330
17
100
AcDbEntity
  8
ROADS
100
AcDbPolyline
 90
2
 70
0
 10
624690.9602252082
 20
4833756.379249301
 10
624657.0058612402
 20
4833847.593544559
  0
LWPOLYLINE
  5
33C
330
17
100
AcDbEntity
  8
ROADS
100
AcDbPolyline
 90
2
 70
0
 10
624868.8243937199
 20
4833804.160393632
 10
624839.7579922467
 20
4833896.9391602995
  0
LWPOLYLINE
  5
33D
330
17
100
AcDbEntity
  8
ROADS
100
AcDbPolyline
 90
2
 70
0
 10
624839.7579922467
 20
4833896.9391602995
 10
624657.0058612402
 20
4833847.593544559
  0
LWPOLYLINE
  5
33E
330
17
100
AcDbEntity
  8
ROADS
100
AcDbPolyline
 90
2
 70
0
 10
624657.0058612402
 20
4833847.593544559
 10
624644.9826137078
 20
4833945.339546949
  0
LWPOLYLINE
  5
33F
330
17
100
AcDbEntity
  8
ROADS
100
AcDbPolyline
 90
2
 70
0
 10
624887.9874775796
 20
4833908.235447781
 10
624839.7579922467
 20
4833896.9391602995
  0
LWPOLYLINE
  5
340
330
17
100
AcDbEntity
  8
ROADS
100
AcDbPolyline
 90
2
 70
0
 10
624887.9874775796
 20
4833908.235447781
 10
624875.0769638384
 20
4833952.488541773
  0
LWPOLYLINE
  5
341
330
17
100
AcDbEntity
  8
ROADS
100
AcDbPolyline
 90
2
 70
0
 10
624839.7579922467
 20
4833896.9391602995
 10
624811.3805249904
 20
4833988.366788882
  0
LWPOLYLINE
  5
342
330
17
100
AcDbEntity
  8
ROADS
100
AcDbPolyline
 90
2
 70
0
 10
624691.2430774298
 20
4833958.455347163
 10
624644.9826137078
 20
4833945.339546949
  0
LWPOLYLINE
  5
343
330
17
100
AcDbEntity
  8
ROADS
100
AcDbPolyline
 90
2
 70
0
 10
624811.3805249904
 20
4833988.366788882
 10
624691.2430774298
 20
4833958.455347163
  0
LWPOLYLINE
  5
344
330
17
100
AcDbEntity
  8
ROADS
100
AcDbPolyline
 90
2
 70
0
 10
624875.0769638384
 20
4833952.488541773
 10
624861.3697596146
 20
4833998.492329459
  0
LWPOLYLINE
  5
345
330
17
100
AcDbEntity
  8
ROADS
100
AcDbPolyline
 90
2
 70
0
 10
625238.0805908575
 20
4833911.350973786
 10
625099.4254047524
 20
4833871.316785885
  0
LWPOLYLINE
  5
346
330
17
100
AcDbEntity
  8
ROADS
100
AcDbPolyline
 90
2
 70
0
 10
625099.4254047524
 20
4833871.316785885
 10
625086.7386543376
 20
4833917.520061681
  0
LWPOLYLINE
  5
347
330
17
100
AcDbEntity
  8
ROADS
100
AcDbPolyline
 90
2
 70
0
 10
625053.5118540082
 20
4833857.982240477
 10
625024.8780608707
 20
4833951.888935207
  0
LWPOLYLINE
  5
348
330
17
100
AcDbEntity
  8
ROADS
100
AcDbPolyline
 90
2
 70
0
 10
624979.5615256883
 20
4833935.014976156
 10
624992.2174454298
 20
4833891.845326226
  0
LWPOLYLINE
  5
349
330
17
100
AcDbEntity
  8
ROADS
100
AcDbPolyline
 90
2
 70
0
 10
624979.5615256883
 20
4833935.014976156
 10
624887.9874775796
 20
4833908.235447781
  0
LWPOLYLINE
  5
34A
330
17
100
AcDbEntity
  8
ROADS
100
AcDbPolyline
 90
2
 70
0
 10
625086.7386543376
 20
4833917.520061681
 10
625072.7288115955
 20
4833966.1585563505
  0
LWPOLYLINE
  5
34B
330
17
100
AcDbEntity
  8
ROADS
100
AcDbPolyline
 90
2
 70
0
 10
625024.8780608707
 20
4833951.888935207
 10
624979.5615256883
 20
4833935.014976156
  0
LWPOLYLINE
  5
34C
330
17
100
AcDbEntity
  8
ROADS
100
AcDbPolyline
 90
2
 70
0
 10
624979.5615256883
 20
4833935.014976156
 10
624966.1465025917
 20
4833979.570979745
  0
LWPOLYLINE
  5
34D
330
17
100
AcDbEntity
  8
ROADS
100
AcDbPolyline
 90
2
 70
0
 10
625072.7288115955
 20
4833966.1585563505
 10
625024.8780608707
 20
4833951.888935207
  0
LWPOLYLINE
  5
34E
330
17
100
AcDbEntity
  8
ROADS
100
AcDbPolyline
 90
2
 70
0
 10
624966.1465025917
 20
4833979.570979745
 10
624875.0769638384
 20
4833952.488541773
  0
LWPOLYLINE
  5
34F
330
17
100
AcDbEntity
  8
ROADS
100
AcDbPolyline
 90
2
 70
0
 10
625488.1837352336
 20
4833916.217447295
 10
625503.6287999725
 20
4833948.409085945
  0
LWPOLYLINE
  5
350
330
17
100
AcDbEntity
  8
ROADS
100
AcDbPolyline
 90
2
 70
0
 10
625420.7538282357
 20
4833962.865400984
 10
625238.0805908575
 20
4833911.350973786
  0
LWPOLYLINE
  5
351
330
17
100
AcDbEntity
  8
ROADS
100
AcDbPolyline
 90
2
 70
0
 10
625488.1837352336
 20
4833916.217447295
 10
625469.6789471752
 20
4833977.1764595155
  0
LWPOLYLINE
  5
352
330
17
100
AcDbEntity
  8
ROADS
100
AcDbPolyline
 90
2
 70
0
 10
625469.6789471752
 20
4833977.1764595155
 10
625420.7538282357
 20
4833962.865400984
  0
LWPOLYLINE
  5
353
330
17
100
AcDbEntity
  8
ROADS
100
AcDbPolyline
 90
2
 70
0
 10
625503.6287999725
 20
4833948.409085945
 10
625478.8412841366
 20
4834021.284056859
  0
LWPOLYLINE
  5
354
330
17
100
AcDbEntity
  8
ROADS
100
AcDbPolyline
 90
3
 70
0
 10
625393.4600806489
 20
4834059.813581889
 10
625406.4869707518
 20
4834012.941378513
 10
625086.7386543376
 20
4833917.520061681
  0
LWPOLYLINE
  5
355
330
17
100
AcDbEntity
  8
ROADS
100
AcDbPolyline
 90
2
 70
0
 10
625469.6789471752
 20
4833977.1764595155
 10
625458.1347788547
 20
4834015.603492793
  0
LWPOLYLINE
  5
356
330
17
100
AcDbEntity
  8
ROADS
100
AcDbPolyline
 90
2
 70
0
 10
625393.4600806489
 20
4834059.813581889
 10
625072.7288115955
 20
4833966.1585563505
  0
LWPOLYLINE
  5
357
330
17
100
AcDbEntity
  8
ROADS
100
AcDbPolyline
 90
2
 70
0
 10
625458.1347788547
 20
4834015.603492793
 10
625478.8412841366
 20
4834021.284056859
  0
LWPOLYLINE
  5
358
330
17
100
AcDbEntity
  8
ROADS
100
AcDbPolyline
 90
2
 70
0
 10
625478.8412841366
 20
4834021.284056859
 10
625473.7249213754
 20
4834050.096052553
  0
LWPOLYLINE
  5
359
330
17
100
AcDbEntity
  8
ROADS
100
AcDbPolyline
 90
2
 70
0
 10
625072.7288115955
 20
4833966.1585563505
 10
625058.3077904189
 20
4834014.943623709
  0
LWPOLYLINE
  5
35A
330
17
100
AcDbEntity
  8
ROADS
100
AcDbPolyline
 90
2
 70
0
 10
625024.8780608707
 20
4833951.888935207
 10
624998.973769855
 20
4834037.80750502
  0
LWPOLYLINE
  5
35B
330
17
100
AcDbEntity
  8
ROADS
100
AcDbPolyline
 90
2
 70
0
 10
624966.1465025917
 20
4833979.570979745
 10
624952.0564338317
 20
4834024.40379457
  0
LWPOLYLINE
  5
35C
330
17
100
AcDbEntity
  8
ROADS
100
AcDbPolyline
 90
2
 70
0
 10
624952.0564338317
 20
4834024.40379457
 10
624861.3697596146
 20
4833998.492329459
  0
LWPOLYLINE
  5
35D
330
17
100
AcDbEntity
  8
ROADS
100
AcDbPolyline
 90
2
 70
0
 10
624998.973769855
 20
4834037.80750502
 10
624952.0564338317
 20
4834024.40379457
  0
LWPOLYLINE
  5
35E
330
17
100
AcDbEntity
  8
ROADS
100
AcDbPolyline
 90
2
 70
0
 10
625058.3077904189
 20
4834014.943623709
 10
625042.960939112
 20
4834064.712008206
  0
LWPOLYLINE
  5
35F
330
17
100
AcDbEntity
  8
ROADS
100
AcDbPolyline
 90
2
 70
0
 10
624998.973769855
 20
4834037.80750502
 10
624995.2662145887
 20
4834050.49719716
  0
LWPOLYLINE
  5
360
330
17
100
AcDbEntity
  8
ROADS
100
AcDbPolyline
 90
2
 70
0
 10
624952.0564338317
 20
4834024.40379457
 10
624938.3711135662
 20
4834068.310870066
  0
LWPOLYLINE
  5
361
330
17
100
AcDbEntity
  8
ROADS
100
AcDbPolyline
 90
2
 70
0
 10
624938.3711135662
 20
4834068.310870066
 10
624848.0953260091
 20
4834043.513881423
  0
LWPOLYLINE
  5
362
330
17
100
AcDbEntity
  8
ROADS
100
AcDbPolyline
 90
2
 70
0
 10
625042.960939112
 20
4834064.712008206
 10
624995.2662145887
 20
4834050.49719716
  0
LWPOLYLINE
  5
363
330
17
100
AcDbEntity
  8
ROADS
100
AcDbPolyline
 90
3
 70
0
 10
624691.2430774298
 20
4833958.455347163
 10
624678.7704167825
 20
4834004.654432631
 10
624740.5277941052
 20
4834021.97155763
  0
LWPOLYLINE
  5
364
330
17
100
AcDbEntity
  8
ROADS
100
AcDbPolyline
 90
2
 70
0
 10
624644.9826137078
 20
4833945.339546949
 10
624633.3088528026
 20
4834037.580560996
  0
LWPOLYLINE
  5
365
330
17
100
AcDbEntity
  8
ROADS
100
AcDbPolyline
 90
2
 70
0
 10
624861.3697596146
 20
4833998.492329459
 10
624811.3805249904
 20
4833988.366788882
  0
LWPOLYLINE
  5
366
330
17
100
AcDbEntity
  8
ROADS
100
AcDbPolyline
 90
2
 70
0
 10
624861.3697596146
 20
4833998.492329459
 10
624848.0953260091
 20
4834043.513881423
  0
LWPOLYLINE
  5
367
330
17
100
AcDbEntity
  8
ROADS
100
AcDbPolyline
 90
2
 70
0
 10
624811.3805249904
 20
4833988.366788882
 10
624785.5661767849
 20
4834072.214313585
  0
LWPOLYLINE
  5
368
330
17
100
AcDbEntity
  8
ROADS
100
AcDbPolyline
 90
2
 70
0
 10
624781.8576409353
 20
4834084.902979483
 10
624633.3088528026
 20
4834037.580560996
  0
LWPOLYLINE
  5
369
330
17
100
AcDbEntity
  8
ROADS
100
AcDbPolyline
 90
2
 70
0
 10
624633.3088528026
 20
4834037.580560996
 10
624623.8834932032
 20
4834087.865933663
  0
LWPOLYLINE
  5
36A
330
17
100
AcDbEntity
  8
ROADS
100
AcDbPolyline
 90
2
 70
0
 10
624848.0953260091
 20
4834043.513881423
 10
624835.1245299133
 20
4834087.504861336
  0
LWPOLYLINE
  5
36B
330
17
100
AcDbEntity
  8
ROADS
100
AcDbPolyline
 90
2
 70
0
 10
624785.5661767849
 20
4834072.214313585
 10
624781.8576409353
 20
4834084.902979483
  0
LWPOLYLINE
  5
36C
330
17
100
AcDbEntity
  8
ROADS
100
AcDbPolyline
 90
2
 70
0
 10
624835.1245299133
 20
4834087.504861336
 10
624785.5661767849
 20
4834072.214313585
  0
LWPOLYLINE
  5
36D
330
17
100
AcDbEntity
  8
ROADS
100
AcDbPolyline
 90
2
 70
0
 10
625458.1347788547
 20
4834015.603492793
 10
625440.8504079983
 20
4834073.775894231
  0
LWPOLYLINE
  5
36E
330
17
100
AcDbEntity
  8
ROADS
100
AcDbPolyline
 90
2
 70
0
 10
625378.8481810064
 20
4834108.23022156
 10
625058.3077904189
 20
4834014.943623709
  0
LWPOLYLINE
  5
36F
330
17
100
AcDbEntity
  8
ROADS
100
AcDbPolyline
 90
2
 70
0
 10
625473.7249213754
 20
4834050.096052553
 10
625440.8504079983
 20
4834073.775894231
  0
LWPOLYLINE
  5
370
330
17
100
AcDbEntity
  8
ROADS
100
AcDbPolyline
 90
2
 70
0
 10
625440.8504079983
 20
4834073.775894231
 10
625393.4600806489
 20
4834059.813581889
  0
LWPOLYLINE
  5
371
330
17
100
AcDbEntity
  8
ROADS
100
AcDbPolyline
 90
2
 70
0
 10
625393.4600806489
 20
4834059.813581889
 10
625378.8481810064
 20
4834108.23022156
  0
LWPOLYLINE
  5
372
330
17
100
AcDbEntity
  8
ROADS
100
AcDbPolyline
 90
2
 70
0
 10
625364.2863025896
 20
4834157.032782971
 10
625095.2270542076
 20
4834080.081509968
  0
LWPOLYLINE
  5
373
330
17
100
AcDbEntity
  8
ROADS
100
AcDbPolyline
 90
2
 70
0
 10
625440.8504079983
 20
4834073.775894231
 10
625411.3357906116
 20
4834171.537978278
  0
LWPOLYLINE
  5
374
330
17
100
AcDbEntity
  8
ROADS
100
AcDbPolyline
 90
2
 70
0
 10
625378.8481810064
 20
4834108.23022156
 10
625364.2863025896
 20
4834157.032782971
  0
LWPOLYLINE
  5
375
330
17
100
AcDbEntity
  8
ROADS
100
AcDbPolyline
 90
2
 70
0
 10
625411.3357906116
 20
4834171.537978278
 10
625364.2863025896
 20
4834157.032782971
  0
LWPOLYLINE
  5
376
330
17
100
AcDbEntity
  8
ROADS
100
AcDbPolyline
 90
2
 70
0
 10
625364.2863025896
 20
4834157.032782971
 10
625350.8996978472
 20
4834215.561130447
  0
LWPOLYLINE
  5
377
330
17
100
AcDbEntity
  8
ROADS
100
AcDbPolyline
 90
2
 70
0
 10
625095.2270542076
 20
4834080.081509968
 10
625042.960939112
 20
4834064.712008206
  0
LWPOLYLINE
  5
378
330
17
100
AcDbEntity
  8
ROADS
100
AcDbPolyline
 90
2
 70
0
 10
624995.2662145887
 20
4834050.49719716
 10
624971.2261062495
 20
4834129.494063312
  0
LWPOLYLINE
  5
379
330
17
100
AcDbEntity
  8
ROADS
100
AcDbPolyline
 90
2
 70
0
 10
624938.3711135662
 20
4834068.310870066
 10
624925.6656991811
 20
4834113.5537264105
  0
LWPOLYLINE
  5
37A
330
17
100
AcDbEntity
  8
ROADS
100
AcDbPolyline
 90
2
 70
0
 10
625095.2270542076
 20
4834080.081509968
 10
625065.2873443775
 20
4834161.305891461
  0
LWPOLYLINE
  5
37B
330
17
100
AcDbEntity
  8
ROADS
100
AcDbPolyline
 90
2
 70
0
 10
625095.2270542076
 20
4834080.081509968
 10
625142.2909003475
 20
4834161.788687586
  0
LWPOLYLINE
  5
37C
330
17
100
AcDbEntity
  8
ROADS
100
AcDbPolyline
 90
2
 70
0
 10
624971.2261062495
 20
4834129.494063312
 10
624925.6656991811
 20
4834113.5537264105
  0
LWPOLYLINE
  5
37D
330
17
100
AcDbEntity
  8
ROADS
100
AcDbPolyline
 90
2
 70
0
 10
624925.6656991811
 20
4834113.5537264105
 10
624912.0850880757
 20
4834159.1917828
  0
LWPOLYLINE
  5
37E
330
17
100
AcDbEntity
  8
ROADS
100
AcDbPolyline
 90
2
 70
0
 10
625042.960939112
 20
4834064.712008206
 10
624995.2236375174
 20
4834223.92701559
  0
LWPOLYLINE
  5
37F
330
17
100
AcDbEntity
  8
ROADS
100
AcDbPolyline
 90
3
 70
0
 10
625142.2909003475
 20
4834161.788687586
 10
625160.0572673144
 20
4834151.366217171
 10
625228.5387173871
 20
4834171.305070912
  0
LWPOLYLINE
  5
380
330
17
100
AcDbEntity
  8
ROADS
100
AcDbPolyline
 90
2
 70
0
 10
624971.2261062495
 20
4834129.494063312
 10
624944.7219514782
 20
4834216.562827752
  0
LWPOLYLINE
  5
381
330
17
100
AcDbEntity
  8
ROADS
100
AcDbPolyline
 90
2
 70
0
 10
624368.6833904767
 20
4834016.014633805
 10
624362.0466318375
 20
4834003.089992953
  0
LWPOLYLINE
  5
382
330
17
100
AcDbEntity
  8
ROADS
100
AcDbPolyline
 90
2
 70
0
 10
624372.2524688618
 20
4834003.516472546
 10
624368.6833904767
 20
4834016.014633805
  0
LWPOLYLINE
  5
383
330
17
100
AcDbEntity
  8
ROADS
100
AcDbPolyline
 90
2
 70
0
 10
624385.99418318
 20
4834029.522225981
 10
624372.2524688618
 20
4834003.516472546
  0
LWPOLYLINE
  5
384
330
17
100
AcDbEntity
  8
ROADS
100
AcDbPolyline
 90
3
 70
0
 10
624362.0466318375
 20
4834003.089992953
 10
624261.736003024
 20
4834004.9871134525
 10
624190.687932119
 20
4834043.015025106
  0
LWPOLYLINE
  5
385
330
17
100
AcDbEntity
  8
ROADS
100
AcDbPolyline
 90
2
 70
0
 10
624623.8834932032
 20
4834087.865933663
 10
624385.99418318
 20
4834029.522225981
  0
LWPOLYLINE
  5
386
330
17
100
AcDbEntity
  8
ROADS
100
AcDbPolyline
 90
3
 70
0
 10
624467.8760877575
 20
4834147.066451216
 10
624440.816261513
 20
4834127.88834112
 10
624385.99418318
 20
4834029.522225981
  0
LWPOLYLINE
  5
387
330
17
100
AcDbEntity
  8
ROADS
100
AcDbPolyline
 90
2
 70
0
 10
624368.6833904767
 20
4834016.014633805
 10
624312.4624877695
 20
4834273.947749812
  0
LWPOLYLINE
  5
388
330
17
100
AcDbEntity
  8
ROADS
100
AcDbPolyline
 90
2
 70
0
 10
624595.2222465689
 20
4834234.854864613
 10
624467.8760877575
 20
4834147.066451216
  0
LWPOLYLINE
  5
389
330
17
100
AcDbEntity
  8
ROADS
100
AcDbPolyline
 90
2
 70
0
 10
624467.8760877575
 20
4834147.066451216
 10
624424.806178608
 20
4834290.1756715
  0
LWPOLYLINE
  5
38A
330
17
100
AcDbEntity
  8
ROADS
100
AcDbPolyline
 90
3
 70
0
 10
624302.6178962415
 20
4834263.328748842
 10
624232.4232544146
 20
4834223.211893232
 10
624244.1007703294
 20
4834202.801873576
  0
LWPOLYLINE
  5
38B
330
17
100
AcDbEntity
  8
ROADS
100
AcDbPolyline
 90
2
 70
0
 10
624925.6656991811
 20
4834113.5537264105
 10
624835.1245299133
 20
4834087.504861336
  0
LWPOLYLINE
  5
38C
330
17
100
AcDbEntity
  8
ROADS
100
AcDbPolyline
 90
2
 70
0
 10
624623.8834932032
 20
4834087.865933663
 10
624615.9080289647
 20
4834139.433578551
  0
LWPOLYLINE
  5
38D
330
17
100
AcDbEntity
  8
ROADS
100
AcDbPolyline
 90
2
 70
0
 10
624781.8576409353
 20
4834084.902979483
 10
624757.2387153973
 20
4834163.888330634
  0
LWPOLYLINE
  5
38E
330
17
100
AcDbEntity
  8
ROADS
100
AcDbPolyline
 90
2
 70
0
 10
624912.0850880757
 20
4834159.1917828
 10
624820.4267449351
 20
4834131.987651264
  0
LWPOLYLINE
  5
38F
330
17
100
AcDbEntity
  8
ROADS
100
AcDbPolyline
 90
2
 70
0
 10
624752.6351382235
 20
4834178.180904912
 10
624615.9080289647
 20
4834139.433578551
  0
LWPOLYLINE
  5
390
330
17
100
AcDbEntity
  8
ROADS
100
AcDbPolyline
 90
2
 70
0
 10
624757.2387153973
 20
4834163.888330634
 10
624752.6351382235
 20
4834178.180904912
  0
LWPOLYLINE
  5
391
330
17
100
AcDbEntity
  8
ROADS
100
AcDbPolyline
 90
2
 70
0
 10
624898.7209381523
 20
4834204.306719186
 10
624757.2387153973
 20
4834163.888330634
  0
LWPOLYLINE
  5
392
330
17
100
AcDbEntity
  8
ROADS
100
AcDbPolyline
 90
2
 70
0
 10
624615.9080289647
 20
4834139.433578551
 10
624595.2222465689
 20
4834234.854864613
  0
LWPOLYLINE
  5
393
330
17
100
AcDbEntity
  8
ROADS
100
AcDbPolyline
 90
2
 70
0
 10
624752.6351382235
 20
4834178.180904912
 10
624721.6477421906
 20
4834279.41334839
  0
LWPOLYLINE
  5
394
330
17
100
AcDbEntity
  8
ROADS
100
AcDbPolyline
 90
3
 70
0
 10
624681.2182873097
 20
4834266.978931825
 10
624697.602076159
 20
4834212.598100888
 10
624669.5444261059
 20
4834202.535432898
  0
LWPOLYLINE
  5
395
330
17
100
AcDbEntity
  8
ROADS
100
AcDbPolyline
 90
2
 70
0
 10
625228.5387173871
 20
4834171.305070912
 10
625350.8996978472
 20
4834215.561130447
  0
LWPOLYLINE
  5
396
330
17
100
AcDbEntity
  8
ROADS
100
AcDbPolyline
 90
2
 70
0
 10
625259.8929095073
 20
4834222.237626166
 10
625228.5387173871
 20
4834171.305070912
  0
LWPOLYLINE
  5
397
330
17
100
AcDbEntity
  8
ROADS
100
AcDbPolyline
 90
2
 70
0
 10
625411.3357906116
 20
4834171.537978278
 10
625394.1122652442
 20
4834228.389889167
  0
LWPOLYLINE
  5
398
330
17
100
AcDbEntity
  8
ROADS
100
AcDbPolyline
 90
2
 70
0
 10
625266.1428345589
 20
4834203.394531959
 10
625259.8929095073
 20
4834222.237626166
  0
LWPOLYLINE
  5
399
330
17
100
AcDbEntity
  8
ROADS
100
AcDbPolyline
 90
2
 70
0
 10
625394.1122652442
 20
4834228.389889167
 10
625350.8996978472
 20
4834215.561130447
  0
LWPOLYLINE
  5
39A
330
17
100
AcDbEntity
  8
ROADS
100
AcDbPolyline
 90
2
 70
0
 10
625271.7810980193
 20
4834241.794593811
 10
625259.8929095073
 20
4834222.237626166
  0
LWPOLYLINE
  5
39B
330
17
100
AcDbEntity
  8
ROADS
100
AcDbPolyline
 90
2
 70
0
 10
625350.8996978472
 20
4834215.561130447
 10
625333.462941688
 20
4834264.99725735
  0
LWPOLYLINE
  5
39C
330
17
100
AcDbEntity
  8
ROADS
100
AcDbPolyline
 90
2
 70
0
 10
625303.087395427
 20
4834257.422312234
 10
625271.7810980193
 20
4834241.794593811
  0
LWPOLYLINE
  5
39D
330
17
100
AcDbEntity
  8
ROADS
100
AcDbPolyline
 90
2
 70
0
 10
625333.462941688
 20
4834264.99725735
 10
625271.7810980193
 20
4834241.794593811
  0
LWPOLYLINE
  5
39E
330
17
100
AcDbEntity
  8
ROADS
100
AcDbPolyline
 90
2
 70
0
 10
625333.462941688
 20
4834264.99725735
 10
625303.087395427
 20
4834257.422312234
  0
ENDSEC
  0
SECTION
  2
OBJECTS
  0
DICTIONARY
  5
A
330
0
100
AcDbDictionary
281
1
  3
ACAD_COLOR
350
B
  3
ACAD_GROUP
350
C
  3
ACAD_LAYOUT
350
D
  3
ACAD_MATERIAL
350
E
  3
ACAD_MLEADERSTYLE
350
F
  3
ACAD_MLINESTYLE
350
10
  3
ACAD_PLOTSETTINGS
350
11
  3
ACAD_PLOTSTYLENAME
350
12
  3
ACAD_SCALELIST
350
14
  3
ACAD_TABLESTYLE
350
15
  3
ACAD_VISUALSTYLE
350
16
  3
EZDXF_META
350
2D
  0
DICTIONARY
  5
B
330
A
100
AcDbDictionary
281
1
  0
DICTIONARY
  5
C
330
A
100
AcDbDictionary
281
1
  0
DICTIONARY
  5
D
330
A
100
AcDbDictionary
281
1
  3
Model
350
1A
  3
Layout1
350
1E
  0
DICTIONARY
  5
E
330
A
100
AcDbDictionary
281
1
  3
ByBlock
350
1F
  3
ByLayer
350
20
  3
Global
350
21
  0
DICTIONARY
  5
F
330
A
100
AcDbDictionary
281
1
  3
Standard
350
2C
  0
DICTIONARY
  5
10
330
A
100
AcDbDictionary
281
1
  3
Standard
350
22
  0
DICTIONARY
  5
11
330
A
100
AcDbDictionary
281
1
  0
ACDBDICTIONARYWDFLT
  5
12
330
A
100
AcDbDictionary
281
1
  3
Normal
350
13
100
AcDbDictionaryWithDefault
340
13
  0
ACDBPLACEHOLDER
  5
13
330
12
  0
DICTIONARY
  5
14
330
A
100
AcDbDictionary
281
1
  0
DICTIONARY
  5
15
330
A
100
AcDbDictionary
281
1
  0
DICTIONARY
  5
16
330
A
100
AcDbDictionary
281
1
  0
LAYOUT
  5
1A
330
D
100
AcDbPlotSettings
  1

  4
A3
  6

 40
7.5
 41
20.0
 42
7.5
 43
20.0
 44
420.0
 45
297.0
 46
0.0
 47
0.0
 48
0.0
 49
0.0
140
0.0
141
0.0
142
1.0
143
1.0
 70
1024
 72
1
 73
0
 74
5
  7

 75
16
 76
0
 77
2
 78
300
147
1.0
148
0.0
149
0.0
100
AcDbLayout
  1
Model
 70
1
 71
0
 10
0.0
 20
0.0
 11
420.0
 21
297.0
 12
0.0
 22
0.0
 32
0.0
 14
1e+20
 24
1e+20
 34
1e+20
 15
-1e+20
 25
-1e+20
 35
-1e+20
146
0.0
 13
0.0
 23
0.0
 33
0.0
 16
1.0
 26
0.0
 36
0.0
 17
0.0
 27
1.0
 37
0.0
 76
1
330
17
  0
LAYOUT
  5
1E
330
D
100
AcDbPlotSettings
  1

  4
A3
  6

 40
7.5
 41
20.0
 42
7.5
 43
20.0
 44
420.0
 45
297.0
 46
0.0
 47
0.0
 48
0.0
 49
0.0
140
0.0
141
0.0
142
1.0
143
1.0
 70
0
 72
1
 73
0
 74
5
  7

 75
16
 76
0
 77
2
 78
300
147
1.0
148
0.0
149
0.0
100
AcDbLayout
  1
Layout1
 70
1
 71
1
 10
0.0
 20
0.0
 11
420.0
 21
297.0
 12
0.0
 22
0.0
 32
0.0
 14
1e+20
 24
1e+20
 34
1e+20
 15
-1e+20
 25
-1e+20
 35
-1e+20
146
0.0
 13
0.0
 23
0.0
 33
0.0
 16
1.0
 26
0.0
 36
0.0
 17
0.0
 27
1.0
 37
0.0
 76
1
330
1B
  0
MATERIAL
  5
1F
102
{ACAD_REACTORS
330
E
102
}
330
E
100
AcDbMaterial
  1
ByBlock
  2

 70
0
 40
1.0
 71
1
 41
1.0
 91
-1023410177
 42
1.0
 72
1
  3

 73
1
 74
1
 75
1
 44
0.5
 73
0
 45
1.0
 46
1.0
 77
1
  4

 78
1
 79
1
170
1
 48
1.0
171
1
  6

172
1
173
1
174
1
140
1.0
141
1.0
175
1
  7

176
1
177
1
178
1
143
1.0
179
1
  8

270
1
271
1
272
1
145
1.0
146
1.0
273
1
  9

274
1
275
1
276
1
 42
1.0
 72
1
  3

 73
1
 74
1
 75
1
 94
63
  0
MATERIAL
  5
20
102
{ACAD_REACTORS
330
E
102
}
330
E
100
AcDbMaterial
  1
ByLayer
  2

 70
0
 40
1.0
 71
1
 41
1.0
 91
-1023410177
 42
1.0
 72
1
  3

 73
1
 74
1
 75
1
 44
0.5
 73
0
 45
1.0
 46
1.0
 77
1
  4

 78
1
 79
1
170
1
 48
1.0
171
1
  6

172
1
173
1
174
1
140
1.0
141
1.0
175
1
  7

176
1
177
1
178
1
143
1.0
179
1
  8

270
1
271
1
272
1
145
1.0
146
1.0
273
1
  9

274
1
275
1
276
1
 42
1.0
 72
1
  3

 73
1
 74
1
 75
1
 94
63
  0
MATERIAL
  5
21
102
{ACAD_REACTORS
330
E
102
}
330
E
100
AcDbMaterial
  1
Global
  2

 70
0
 40
1.0
 71
1
 41
1.0
 91
-1023410177
 42
1.0
 72
1
  3

 73
1
 74
1
 75
1
 44
0.5
 73
0
 45
1.0
 46
1.0
 77
1
  4

 78
1
 79
1
170
1
 48
1.0
171
1
  6

172
1
173
1
174
1
140
1.0
141
1.0
175
1
  7

176
1
177
1
178
1
143
1.0
179
1
  8

270
1
271
1
272
1
145
1.0
146
1.0
273
1
  9

274
1
275
1
276
1
 42
1.0
 72
1
  3

 73
1
 74
1
 75
1
 94
63
  0
MLINESTYLE
  5
22
102
{ACAD_REACTORS
330
10
102
}
330
10
100
AcDbMlineStyle
  2
Standard
 70
0
  3

 62
256
 51
90.0
 52
90.0
 71
2
 49
0.5
 62
256
  6
BYLAYER
 49
-0.5
 62
256
  6
BYLAYER
  0
MLEADERSTYLE
  5
2C
102
{ACAD_REACTORS
330
F
102
}
330
F
100
AcDbMLeaderStyle
179
2
170
2
171
1
172
0
 90
2
 40
0.0
 41
0.0
173
1
 91
-1056964608
 92
-2
290
1
 42
2.0
291
1
 43
8.0
  3
Standard
 44
4.0
300

342
29
174
1
175
1
176
0
178
1
 93
-1056964608
 45
4.0
292
0
297
0
 46
4.0
 94
-1056964608
 47
1.0
 49
1.0
140
1.0
294
1
141
0.0
177
0
142
1.0
295
0
296
0
143
3.75
271
0
272
9
273
9
  0
DICTIONARY
  5
2D
330
A
100
AcDbDictionary
280
1
281
1
  3
CREATED_BY_EZDXF
350
2E
  3
WRITTEN_BY_EZDXF
350
3A1
  0
DICTIONARYVAR
  5
2E
330
2D
100
DictionaryVariables
280
0
  1
1.4.4 @ 2026-07-07T18:25:27.117083+00:00
  0
DICTIONARYVAR
  5
3A1
330
2D
100
DictionaryVariables
280
0
  1
1.4.4 @ 2026-07-07T18:25:27.139527+00:00
  0
ENDSEC
  0
EOF
