  0
SECTION
  2
HEADER
  9
$ACADVER
  1
AC1015
  9
$ACADMAINTVER
 70
6
  9
$DWGCODEPAGE
  3
ANSI_1252
  9
$INSBASE
 10
0.0
 20
0.0
 30
0.0
  9
$EXTMIN
 10
1e+20
 20
1e+20
 30
1e+20
  9
$EXTMAX
 10
-1e+20
 20
-1e+20
 30
-1e+20
  9
$LIMMIN
 10
0.0
 20
0.0
  9
$LIMMAX
 10
420.0
 20
297.0
  9
$ORTHOMODE
 70
0
  9
$REGENMODE
 70
1
  9
$FILLMODE
 70
1
  9
$QTEXTMODE
 70
0
  9
$MIRRTEXT
 70
1
  9
$LTSCALE
 40
1.0
  9
$ATTMODE
 70
1
  9
$TEXTSIZE
 40
2.5
  9
$TRACEWID
 40
1.0
  9
$TEXTSTYLE
  7
Standard
  9
$CLAYER
  8
0
  9
$CELTYPE
  6
ByLayer
  9
$CECOLOR
 62
256
  9
$CELTSCALE
 40
1.0
  9
$DISPSILH
 70
0
  9
$DIMSCALE
 40
1.0
  9
$DIMASZ
 40
2.5
  9
$DIMEXO
 40
0.625
  9
$DIMDLI
 40
3.75
  9
$DIMRND
 40
0.0
  9
$DIMDLE
 40
0.0
  9
$DIMEXE
 40
1.25
  9
$DIMTP
 40
0.0
  9
$DIMTM
 40
0.0
  9
$DIMTXT
 40
2.5
  9
$DIMCEN
 40
2.5
  9
$DIMTSZ
 40
0.0
  9
$DIMTOL
 70
0
  9
$DIMLIM
 70
0
  9
$DIMTIH
 70
0
  9
$DIMTOH
 70
0
  9
$DIMSE1
 70
0
  9
$DIMSE2
 70
0
  9
$DIMTAD
 70
1
  9
$DIMZIN
 70
8
  9
$DIMBLK
  1

  9
$DIMASO
 70
1
  9
$DIMSHO
 70
1
  9
$DIMPOST
  1

  9
$DIMAPOST
  1

  9
$DIMALT
 70
0
  9
$DIMALTD
 70
3
  9
$DIMALTF
 40
0.03937007874
  9
$DIMLFAC
 40
1.0
  9
$DIMTOFL
 70
1
  9
$DIMTVP
 40
0.0
  9
$DIMTIX
 70
0
  9
$DIMSOXD
 70
0
  9
$DIMSAH
 70
0
  9
$DIMBLK1
  1

  9
$DIMBLK2
  1

  9
$DIMSTYLE
  2
ISO-25
  9
$DIMCLRD
 70
0
  9
$DIMCLRE
 70
0
  9
$DIMCLRT
 70
0
  9
$DIMTFAC
 40
1.0
  9
$DIMGAP
 40
0.625
  9
$DIMJUST
 70
0
  9
$DIMSD1
 70
0
  9
$DIMSD2
 70
0
  9
$DIMTOLJ
 70
0
  9
$DIMTZIN
 70
8
  9
$DIMALTZ
 70
0
  9
$DIMALTTZ
 70
0
  9
$DIMUPT
 70
0
  9
$DIMDEC
 70
2
  9
$DIMTDEC
 70
2
  9
$DIMALTU
 70
2
  9
$DIMALTTD
 70
3
  9
$DIMTXSTY
  7
Standard
  9
$DIMAUNIT
 70
0
  9
$DIMADEC
 70
0
  9
$DIMALTRND
 40
0.0
  9
$DIMAZIN
 70
0
  9
$DIMDSEP
 70
44
  9
$DIMATFIT
 70
3
  9
$DIMFRAC
 70
0
  9
$DIMLDRBLK
  1

  9
$DIMLUNIT
 70
2
  9
$DIMLWD
 70
-2
  9
$DIMLWE
 70
-2
  9
$DIMTMOVE
 70
0
  9
$LUNITS
 70
2
  9
$LUPREC
 70
4
  9
$SKETCHINC
 40
1.0
  9
$FILLETRAD
 40
10.0
  9
$AUNITS
 70
0
  9
$AUPREC
 70
2
  9
$MENU
  1
.
  9
$ELEVATION
 40
0.0
  9
$PELEVATION
 40
0.0
  9
$THICKNESS
 40
0.0
  9
$LIMCHECK
 70
0
  9
$CHAMFERA
 40
0.0
  9
$CHAMFERB
 40
0.0
  9
$CHAMFERC
 40
0.0
  9
$CHAMFERD
 40
0.0
  9
$SKPOLY
 70
0
  9
$TDCREATE
 40
2461229.600798611
  9
$TDUCREATE
 40
2458532.153996898
  9
$TDUPDATE
 40
2461229.600798611
  9
$TDUUPDATE
 40
2458532.1544311
  9
$TDINDWG
 40
0.0
  9
$TDUSRTIMER
 40
0.0
  9
$USRTIMER
 70
1
  9
$ANGBASE
 50
0.0
  9
$ANGDIR
 70
0
  9
$PDMODE
 70
0
  9
$PDSIZE
 40
0.0
  9
$PLINEWID
 40
0.0
  9
$SPLFRAME
 70
0
  9
$SPLINETYPE
 70
6
  9
$SPLINESEGS
 70
8
  9
$HANDSEED
  5
34E
  9
$SURFTAB1
 70
6
  9
$SURFTAB2
 70
6
  9
$SURFTYPE
 70
6
  9
$SURFU
 70
6
  9
$SURFV
 70
6
  9
$UCSBASE
  2

  9
$UCSNAME
  2

  9
$UCSORG
 10
0.0
 20
0.0
 30
0.0
  9
$UCSXDIR
 10
1.0
 20
0.0
 30
0.0
  9
$UCSYDIR
 10
0.0
 20
1.0
 30
0.0
  9
$UCSORTHOREF
  2

  9
$UCSORTHOVIEW
 70
0
  9
$UCSORGTOP
 10
0.0
 20
0.0
 30
0.0
  9
$UCSORGBOTTOM
 10
0.0
 20
0.0
 30
0.0
  9
$UCSORGLEFT
 10
0.0
 20
0.0
 30
0.0
  9
$UCSORGRIGHT
 10
0.0
 20
0.0
 30
0.0
  9
$UCSORGFRONT
 10
0.0
 20
0.0
 30
0.0
  9
$UCSORGBACK
 10
0.0
 20
0.0
 30
0.0
  9
$PUCSBASE
  2

  9
$PUCSNAME
  2

  9
$PUCSORG
 10
0.0
 20
0.0
 30
0.0
  9
$PUCSXDIR
 10
1.0
 20
0.0
 30
0.0
  9
$PUCSYDIR
 10
0.0
 20
1.0
 30
0.0
  9
$PUCSORTHOREF
  2

  9
$PUCSORTHOVIEW
 70
0
  9
$PUCSORGTOP
 10
0.0
 20
0.0
 30
0.0
  9
$PUCSORGBOTTOM
 10
0.0
 20
0.0
 30
0.0
  9
$PUCSORGLEFT
 10
0.0
 20
0.0
 30
0.0
  9
$PUCSORGRIGHT
 10
0.0
 20
0.0
 30
0.0
  9
$PUCSORGFRONT
 10
0.0
 20
0.0
 30
0.0
  9
$PUCSORGBACK
 10
0.0
 20
0.0
 30
0.0
  9
$USERI1
 70
0
  9
$USERI2
 70
0
  9
$USERI3
 70
0
  9
$USERI4
 70
0
  9
$USERI5
 70
0
  9
$USERR1
 40
0.0
  9
$USERR2
 40
0.0
  9
$USERR3
 40
0.0
  9
$USERR4
 40
0.0
  9
$USERR5
 40
0.0
  9
$WORLDVIEW
 70
1
  9
$SHADEDGE
 70
3
  9
$SHADEDIF
 70
70
  9
$TILEMODE
 70
1
  9
$MAXACTVP
 70
64
  9
$PINSBASE
 10
0.0
 20
0.0
 30
0.0
  9
$PLIMCHECK
 70
0
  9
$PEXTMIN
 10
1e+20
 20
1e+20
 30
1e+20
  9
$PEXTMAX
 10
-1e+20
 20
-1e+20
 30
-1e+20
  9
$PLIMMIN
 10
0.0
 20
0.0
  9
$PLIMMAX
 10
420.0
 20
297.0
  9
$UNITMODE
 70
0
  9
$VISRETAIN
 70
1
  9
$PLINEGEN
 70
0
  9
$PSLTSCALE
 70
1
  9
$TREEDEPTH
 70
3020
  9
$CMLSTYLE
  2
Standard
  9
$CMLJUST
 70
0
  9
$CMLSCALE
 40
20.0
  9
$PROXYGRAPHICS
 70
1
  9
$MEASUREMENT
 70
1
  9
$CELWEIGHT
370
-1
  9
$ENDCAPS
280
0
  9
$JOINSTYLE
280
0
  9
$LWDISPLAY
290
0
  9
$INSUNITS
 70
6
  9
$HYPERLINKBASE
  1

  9
$STYLESHEET
  1

  9
$XEDIT
290
1
  9
$CEPSNTYPE
380
0
  9
$PSTYLEMODE
290
1
  9
$FINGERPRINTGUID
  2
{7173D70A-C660-4727-8744-D46435F951D2}
  9
$VERSIONGUID
  2
{64AB7716-C491-410C-89A4-52638126B84B}
  9
$EXTNAMES
290
1
  9
$PSVPSCALE
 40
0.0
  9
$OLESTARTUP
290
0
  0
ENDSEC
  0
SECTION
  2
CLASSES
  0
CLASS
  1
ACDBDICTIONARYWDFLT
  2
AcDbDictionaryWithDefault
  3
ObjectDBX Classes
 90
0
280
0
281
0
  0
CLASS
  1
SUN
  2
AcDbSun
  3
SCENEOE
 90
1153
280
0
281
0
  0
CLASS
  1
VISUALSTYLE
  2
AcDbVisualStyle
  3
ObjectDBX Classes
 90
4095
280
0
281
0
  0
CLASS
  1
MATERIAL
  2
AcDbMaterial
  3
ObjectDBX Classes
 90
1153
280
0
281
0
  0
CLASS
  1
SCALE
  2
AcDbScale
  3
ObjectDBX Classes
 90
1153
280
0
281
0
  0
CLASS
  1
TABLESTYLE
  2
AcDbTableStyle
  3
ObjectDBX Classes
 90
4095
280
0
281
0
  0
CLASS
  1
MLEADERSTYLE
  2
AcDbMLeaderStyle
  3
ACDB_MLEADERSTYLE_CLASS
 90
4095
280
0
281
0
  0
CLASS
  1
DICTIONARYVAR
  2
AcDbDictionaryVar
  3
ObjectDBX Classes
 90
0
280
0
281
0
  0
CLASS
  1
CELLSTYLEMAP
  2
AcDbCellStyleMap
  3
ObjectDBX Classes
 90
1152
280
0
281
0
  0
CLASS
  1
MENTALRAYRENDERSETTINGS
  2
AcDbMentalRayRenderSettings
  3
SCENEOE
 90
1024
280
0
281
0
  0
CLASS
  1
ACDBDETAILVIEWSTYLE
  2
AcDbDetailViewStyle
  3
ObjectDBX Classes
 90
1025
280
0
281
0
  0
CLASS
  1
ACDBSECTIONVIEWSTYLE
  2
AcDbSectionViewStyle
  3
ObjectDBX Classes
 90
1025
280
0
281
0
  0
CLASS
  1
RASTERVARIABLES
  2
AcDbRasterVariables
  3
ISM
 90
0
280
0
281
0
  0
CLASS
  1
ACDBPLACEHOLDER
  2
AcDbPlaceHolder
  3
ObjectDBX Classes
 90
0
280
0
281
0
  0
CLASS
  1
LAYOUT
  2
AcDbLayout
  3
ObjectDBX Classes
 90
0
280
0
281
0
  0
ENDSEC
  0
SECTION
  2
TABLES
  0
TABLE
  2
VPORT
  5
8
330
0
100
AcDbSymbolTable
 70
1
  0
VPORT
  5
23
330
8
100
AcDbSymbolTableRecord
100
AcDbViewportTableRecord
  2
*Active
 70
0
 10
0.0
 20
0.0
 11
1.0
 21
1.0
 12
0.0
 22
0.0
 13
0.0
 23
0.0
 14
0.5
 24
0.5
 15
0.5
 25
0.5
 16
0.0
 26
0.0
 36
1.0
 17
0.0
 27
0.0
 37
0.0
 40
1000.0
 41
1.34
 42
50.0
 43
0.0
 44
0.0
 50
0.0
 51
0.0
 71
0
 72
1000
 73
1
 74
3
 75
0
 76
0
 77
0
 78
0
281
0
 65
0
146
0.0
  0
ENDTAB
  0
TABLE
  2
LTYPE
  5
2
330
0
100
AcDbSymbolTable
 70
3
  0
LTYPE
  5
24
330
2
100
AcDbSymbolTableRecord
100
AcDbLinetypeTableRecord
  2
ByBlock
 70
0
  3

 72
65
 73
0
 40
0.0
  0
LTYPE
  5
25
330
2
100
AcDbSymbolTableRecord
100
AcDbLinetypeTableRecord
  2
ByLayer
 70
0
  3

 72
65
 73
0
 40
0.0
  0
LTYPE
  5
26
330
2
100
AcDbSymbolTableRecord
100
AcDbLinetypeTableRecord
  2
Continuous
 70
0
  3

 72
65
 73
0
 40
0.0
  0
ENDTAB
  0
TABLE
  2
LAYER
  5
1
330
0
100
AcDbSymbolTable
 70
2
  0
LAYER
  5
27
330
1
100
AcDbSymbolTableRecord
100
AcDbLayerTableRecord
  2
0
 70
0
 62
7
  6
Continuous
370
-3
390
13
  0
LAYER
  5
28
330
1
100
AcDbSymbolTableRecord
100
AcDbLayerTableRecord
  2
Defpoints
 70
0
 62
7
  6
Continuous
290
0
370
-3
390
13
  0
ENDTAB
  0
TABLE
  2
STYLE
  5
5
330
0
100
AcDbSymbolTable
 70
1
  0
STYLE
  5
29
330
5
100
AcDbSymbolTableRecord
100
AcDbTextStyleTableRecord
  2
Standard
 70
0
 40
0.0
 41
1.0
 50
0.0
 71
0
 42
2.5
  3
txt
  4

  0
ENDTAB
  0
TABLE
  2
VIEW
  5
7
330
0
100
AcDbSymbolTable
 70
0
  0
ENDTAB
  0
TABLE
  2
UCS
  5
6
330
0
100
AcDbSymbolTable
 70
0
  0
ENDTAB
  0
TABLE
  2
APPID
  5
3
330
0
100
AcDbSymbolTable
 70
3
  0
APPID
  5
2A
330
3
100
AcDbSymbolTableRecord
100
AcDbRegAppTableRecord
  2
ACAD
 70
0
  0
APPID
  5
34B
330
3
100
AcDbSymbolTableRecord
100
AcDbRegAppTableRecord
  2
HATCHBACKGROUNDCOLOR
 70
0
  0
APPID
  5
34C
330
3
100
AcDbSymbolTableRecord
100
AcDbRegAppTableRecord
  2
EZDXF
 70
0
  0
ENDTAB
  0
TABLE
  2
DIMSTYLE
  5
4
330
0
100
AcDbSymbolTable
 70
1
100
AcDbDimStyleTable
  0
DIMSTYLE
105
2B
330
4
100
AcDbSymbolTableRecord
100
AcDbDimStyleTableRecord
  2
Standard
 70
0
  3

  4

 40
1.0
 41
2.5
 42
0.625
 43
3.75
 44
1.25
 45
0.0
 46
0.0
 47
0.0
 48
0.0
140
2.5
141
2.5
142
0.0
143
0.03937007874
144
1.0
145
0.0
146
1.0
147
0.625
148
0.0
 71
0
 72
0
 73
0
 74
0
 75
0
 76
0
 77
1
 78
8
 79
3
170
0
171
3
172
1
173
0
174
0
175
0
176
0
177
0
178
0
179
2
271
2
272
2
273
2
274
3
275
0
276
0
277
2
278
44
279
0
280
0
281
0
282
0
283
0
284
8
285
0
286
0
288
0
289
3
371
-2
372
-2
  0
ENDTAB
  0
TABLE
  2
BLOCK_RECORD
  5
9
330
0
100
AcDbSymbolTable
 70
2
  0
BLOCK_RECORD
  5
17
330
9
100
AcDbSymbolTableRecord
100
AcDbBlockTableRecord
  2
*Model_Space
340
1A
  0
BLOCK_RECORD
  5
1B
330
9
100
AcDbSymbolTableRecord
100
AcDbBlockTableRecord
  2
*Paper_Space
340
1E
  0
ENDTAB
  0
ENDSEC
  0
SECTION
  2
BLOCKS
  0
BLOCK
  5
18
330
17
100
AcDbEntity
  8
0
100
AcDbBlockBegin
  2
*Model_Space
 70
0
 10
0.0
 20
0.0
 30
0.0
  3
*Model_Space
  1

  0
ENDBLK
  5
19
330
17
100
AcDbEntity
  8
0
100
AcDbBlockEnd
  0
BLOCK
  5
1C
330
1B
100
AcDbEntity
  8
0
100
AcDbBlockBegin
  2
*Paper_Space
 70
0
 10
0.0
 20
0.0
 30
0.0
  3
*Paper_Space
  1

  0
ENDBLK
  5
1D
330
1B
100
AcDbEntity
  8
0
100
AcDbBlockEnd
  0
ENDSEC
  0
SECTION
  2
ENTITIES
  0
LWPOLYLINE
  5
2F
330
17
100
AcDbEntity
  8
ROADS
100
AcDbPolyline
 90
2
 70
0
 10
628165.5615520048
 20
4834827.153393888
 10
628167.7131357858
 20
4834820.289370464
  0
LWPOLYLINE
  5
30
330
17
100
AcDbEntity
  8
ROADS
100
AcDbPolyline
 90
2
 70
0
 10
628220.003987733
 20
4834823.820735201
 10
628214.3841254885
 20
4834841.7358530015
  0
LWPOLYLINE
  5
31
330
17
100
AcDbEntity
  8
ROADS
100
AcDbPolyline
 90
2
 70
0
 10
628003.6234332136
 20
4834829.19417979
 10
628002.9342015608
 20
4834831.516035252
  0
LWPOLYLINE
  5
32
330
17
100
AcDbEntity
  8
ROADS
100
AcDbPolyline
 90
2
 70
0
 10
628165.5615520048
 20
4834827.153393888
 10
628141.2404141611
 20
4834818.71086564
  0
LWPOLYLINE
  5
33
330
17
100
AcDbEntity
  8
ROADS
100
AcDbPolyline
 90
2
 70
0
 10
628214.3841254885
 20
4834841.7358530015
 10
628165.5615520048
 20
4834827.153393888
  0
LWPOLYLINE
  5
34
330
17
100
AcDbEntity
  8
ROADS
100
AcDbPolyline
 90
2
 70
0
 10
628114.6557204478
 20
4834819.445625959
 10
628101.4799956351
 20
4834861.365269851
  0
LWPOLYLINE
  5
35
330
17
100
AcDbEntity
  8
ROADS
100
AcDbPolyline
 90
2
 70
0
 10
628271.5597690736
 20
4834831.939154872
 10
628263.7502472723
 20
4834856.871177377
  0
LWPOLYLINE
  5
36
330
17
100
AcDbEntity
  8
ROADS
100
AcDbPolyline
 90
2
 70
0
 10
628370.6684857155
 20
4834855.665399528
 10
628361.2315783354
 20
4834885.944149293
  0
LWPOLYLINE
  5
37
330
17
100
AcDbEntity
  8
ROADS
100
AcDbPolyline
 90
2
 70
0
 10
628322.155227305
 20
4834842.936991361
 10
628313.0255505652
 20
4834871.885856593
  0
LWPOLYLINE
  5
38
330
17
100
AcDbEntity
  8
ROADS
100
AcDbPolyline
 90
2
 70
0
 10
628420.929853557
 20
4834871.275298601
 10
628411.4898953594
 20
4834901.266626135
  0
LWPOLYLINE
  5
39
330
17
100
AcDbEntity
  8
ROADS
100
AcDbPolyline
 90
2
 70
0
 10
628469.1882978566
 20
4834888.514381022
 10
628460.4781104173
 20
4834916.70115623
  0
LWPOLYLINE
  5
3A
330
17
100
AcDbEntity
  8
ROADS
100
AcDbPolyline
 90
2
 70
0
 10
628313.0255505652
 20
4834871.885856593
 10
628263.7502472723
 20
4834856.871177377
  0
LWPOLYLINE
  5
3B
330
17
100
AcDbEntity
  8
ROADS
100
AcDbPolyline
 90
2
 70
0
 10
628361.2315783354
 20
4834885.944149293
 10
628313.0255505652
 20
4834871.885856593
  0
LWPOLYLINE
  5
3C
330
17
100
AcDbEntity
  8
ROADS
100
AcDbPolyline
 90
2
 70
0
 10
628516.512021756
 20
4834907.483691486
 10
628509.5789643164
 20
4834929.943582589
  0
LWPOLYLINE
  5
3D
330
17
100
AcDbEntity
  8
ROADS
100
AcDbPolyline
 90
2
 70
0
 10
628313.0255505652
 20
4834871.885856593
 10
628297.6870582826
 20
4834920.706778144
  0
LWPOLYLINE
  5
3E
330
17
100
AcDbEntity
  8
ROADS
100
AcDbPolyline
 90
2
 70
0
 10
628460.4781104173
 20
4834916.70115623
 10
628411.4898953594
 20
4834901.266626135
  0
LWPOLYLINE
  5
3F
330
17
100
AcDbEntity
  8
ROADS
100
AcDbPolyline
 90
2
 70
0
 10
628361.2315783354
 20
4834885.944149293
 10
628345.6122915554
 20
4834935.195029638
  0
LWPOLYLINE
  5
40
330
17
100
AcDbEntity
  8
ROADS
100
AcDbPolyline
 90
2
 70
0
 10
628509.5789643164
 20
4834929.943582589
 10
628460.4781104173
 20
4834916.70115623
  0
LWPOLYLINE
  5
41
330
17
100
AcDbEntity
  8
ROADS
100
AcDbPolyline
 90
2
 70
0
 10
628663.2357830212
 20
4834992.9809051845
 10
628653.3104133911
 20
4835024.986994469
  0
LWPOLYLINE
  5
42
330
17
100
AcDbEntity
  8
ROADS
100
AcDbPolyline
 90
2
 70
0
 10
628714.2933043982
 20
4835033.319069572
 10
628711.43010085
 20
4835042.532758653
  0
LWPOLYLINE
  5
43
330
17
100
AcDbEntity
  8
ROADS
100
AcDbPolyline
 90
2
 70
0
 10
628599.4824524359
 20
4835009.961981802
 10
628547.0998176878
 20
4834994.482070133
  0
LWPOLYLINE
  5
44
330
17
100
AcDbEntity
  8
ROADS
100
AcDbPolyline
 90
2
 70
0
 10
628653.3104133911
 20
4835024.986994469
 10
628599.4824524359
 20
4835009.961981802
  0
LWPOLYLINE
  5
45
330
17
100
AcDbEntity
  8
ROADS
100
AcDbPolyline
 90
2
 70
0
 10
628690.6699470787
 20
4835036.601093657
 10
628653.3104133911
 20
4835024.986994469
  0
LWPOLYLINE
  5
46
330
17
100
AcDbEntity
  8
ROADS
100
AcDbPolyline
 90
2
 70
0
 10
628599.4824524359
 20
4835009.961981802
 10
628581.5026825856
 20
4835059.72725628
  0
LWPOLYLINE
  5
47
330
17
100
AcDbEntity
  8
ROADS
100
AcDbPolyline
 90
2
 70
0
 10
628711.43010085
 20
4835042.532758653
 10
628690.6699470787
 20
4835036.601093657
  0
LWPOLYLINE
  5
48
330
17
100
AcDbEntity
  8
ROADS
100
AcDbPolyline
 90
2
 70
0
 10
627483.7939927331
 20
4835101.646977838
 10
627485.2418623853
 20
4835104.771397613
  0
LWPOLYLINE
  5
49
330
17
100
AcDbEntity
  8
ROADS
100
AcDbPolyline
 90
2
 70
0
 10
628002.9342015608
 20
4834831.516035252
 10
627997.7940276661
 20
4834829.978254894
  0
LWPOLYLINE
  5
4A
330
17
100
AcDbEntity
  8
ROADS
100
AcDbPolyline
 90
2
 70
0
 10
628002.9342015608
 20
4834831.516035252
 10
627966.9426163672
 20
4834945.49376723
  0
LWPOLYLINE
  5
4B
330
17
100
AcDbEntity
  8
ROADS
100
AcDbPolyline
 90
2
 70
0
 10
627918.1576028161
 20
4834929.886916456
 10
627935.3734625652
 20
4834873.140478399
  0
LWPOLYLINE
  5
4C
330
17
100
AcDbEntity
  8
ROADS
100
AcDbPolyline
 90
2
 70
0
 10
627966.9426163672
 20
4834945.49376723
 10
627918.1576028161
 20
4834929.886916456
  0
LWPOLYLINE
  5
4D
330
17
100
AcDbEntity
  8
ROADS
100
AcDbPolyline
 90
3
 70
0
 10
627938.4870799456
 20
4835031.390901954
 10
627891.2994809082
 20
4835016.762978154
 10
627918.1576028161
 20
4834929.886916456
  0
LWPOLYLINE
  5
4E
330
17
100
AcDbEntity
  8
ROADS
100
AcDbPolyline
 90
2
 70
0
 10
627885.2613748487
 20
4834857.618346696
 10
627793.0836666812
 20
4835160.6247385405
  0
LWPOLYLINE
  5
4F
330
17
100
AcDbEntity
  8
ROADS
100
AcDbPolyline
 90
2
 70
0
 10
627966.9426163672
 20
4834945.49376723
 10
627938.4870799456
 20
4835031.390901954
  0
LWPOLYLINE
  5
50
330
17
100
AcDbEntity
  8
ROADS
100
AcDbPolyline
 90
2
 70
0
 10
627938.4870799456
 20
4835031.390901954
 10
627890.1425108226
 20
4835187.861005832
  0
LWPOLYLINE
  5
51
330
17
100
AcDbEntity
  8
ROADS
100
AcDbPolyline
 90
2
 70
0
 10
627503.7237050117
 20
4835085.8960651085
 10
627496.8685484665
 20
4835108.756820825
  0
LWPOLYLINE
  5
52
330
17
100
AcDbEntity
  8
ROADS
100
AcDbPolyline
 90
2
 70
0
 10
627568.0705237795
 20
4835040.943457539
 10
627543.7013213891
 20
4835119.996114042
  0
LWPOLYLINE
  5
53
330
17
100
AcDbEntity
  8
ROADS
100
AcDbPolyline
 90
2
 70
0
 10
627770.8280946653
 20
4834903.757049637
 10
627695.3965397163
 20
4835171.739559577
  0
LWPOLYLINE
  5
54
330
17
100
AcDbEntity
  8
ROADS
100
AcDbPolyline
 90
2
 70
0
 10
627637.4437176769
 20
4834987.956884079
 10
627592.5016672793
 20
4835135.24923095
  0
LWPOLYLINE
  5
55
330
17
100
AcDbEntity
  8
ROADS
100
AcDbPolyline
 90
2
 70
0
 10
627707.122201207
 20
4834939.660096982
 10
627599.9211165917
 20
4835321.065074834
  0
LWPOLYLINE
  5
56
330
17
100
AcDbEntity
  8
ROADS
100
AcDbPolyline
 90
2
 70
0
 10
628101.4799956351
 20
4834861.365269851
 10
628002.9342015608
 20
4834831.516035252
  0
LWPOLYLINE
  5
57
330
17
100
AcDbEntity
  8
ROADS
100
AcDbPolyline
 90
2
 70
0
 10
628263.7502472723
 20
4834856.871177377
 10
628214.3841254885
 20
4834841.7358530015
  0
LWPOLYLINE
  5
58
330
17
100
AcDbEntity
  8
ROADS
100
AcDbPolyline
 90
2
 70
0
 10
628214.3841254885
 20
4834841.7358530015
 10
628198.8393000616
 20
4834891.460090326
  0
LWPOLYLINE
  5
59
330
17
100
AcDbEntity
  8
ROADS
100
AcDbPolyline
 90
2
 70
0
 10
628198.8393000616
 20
4834891.460090326
 10
628101.4799956351
 20
4834861.365269851
  0
LWPOLYLINE
  5
5A
330
17
100
AcDbEntity
  8
ROADS
100
AcDbPolyline
 90
2
 70
0
 10
628101.4799956351
 20
4834861.365269851
 10
628085.0368348556
 20
4834912.460339503
  0
LWPOLYLINE
  5
5B
330
17
100
AcDbEntity
  8
ROADS
100
AcDbPolyline
 90
2
 70
0
 10
628297.6870582826
 20
4834920.706778144
 10
628198.8393000616
 20
4834891.460090326
  0
LWPOLYLINE
  5
5C
330
17
100
AcDbEntity
  8
ROADS
100
AcDbPolyline
 90
2
 70
0
 10
628297.6870582826
 20
4834920.706778144
 10
628267.8576192568
 20
4835009.856376236
  0
LWPOLYLINE
  5
5D
330
17
100
AcDbEntity
  8
ROADS
100
AcDbPolyline
 90
5
 70
0
 10
628085.0368348556
 20
4834912.460339503
 10
628036.1003873025
 20
4834901.108024909
 10
628012.2131601814
 20
4834970.463695838
 10
627948.2478300906
 20
4835174.053490377
 10
627997.6295298021
 20
4835188.573094539
  0
LWPOLYLINE
  5
5E
330
17
100
AcDbEntity
  8
ROADS
100
AcDbPolyline
 90
2
 70
0
 10
628085.0368348556
 20
4834912.460339503
 10
627997.6295298021
 20
4835188.573094539
  0
LWPOLYLINE
  5
5F
330
17
100
AcDbEntity
  8
ROADS
100
AcDbPolyline
 90
4
 70
0
 10
628085.0368348556
 20
4834912.460339503
 10
628134.2930139566
 20
4834923.552420015
 10
628046.0114143615
 20
4835205.070756565
 10
627997.6295298021
 20
4835188.573094539
  0
LWPOLYLINE
  5
60
330
17
100
AcDbEntity
  8
ROADS
100
AcDbPolyline
 90
2
 70
0
 10
628198.8393000616
 20
4834891.460090326
 10
628083.2985208867
 20
4835260.516375262
  0
LWPOLYLINE
  5
61
330
17
100
AcDbEntity
  8
ROADS
100
AcDbPolyline
 90
2
 70
0
 10
628267.8576192568
 20
4835009.856376236
 10
628180.6414087592
 20
4835289.663952292
  0
LWPOLYLINE
  5
62
330
17
100
AcDbEntity
  8
ROADS
100
AcDbPolyline
 90
3
 70
0
 10
628267.8576192568
 20
4835009.856376236
 10
628317.9592270066
 20
4835025.493055433
 10
628230.7030205198
 20
4835305.049930267
  0
LWPOLYLINE
  5
63
330
17
100
AcDbEntity
  8
ROADS
100
AcDbPolyline
 90
2
 70
0
 10
628133.7615153033
 20
4835275.74359029
 10
628197.5329760812
 20
4835071.985185631
  0
LWPOLYLINE
  5
64
330
17
100
AcDbEntity
  8
ROADS
100
AcDbPolyline
 90
2
 70
0
 10
628032.8620570361
 20
4835246.200702974
 10
627984.9802694304
 20
4835230.474125449
  0
LWPOLYLINE
  5
65
330
17
100
AcDbEntity
  8
ROADS
100
AcDbPolyline
 90
2
 70
0
 10
628083.2985208867
 20
4835260.516375262
 10
628032.8620570361
 20
4835246.200702974
  0
LWPOLYLINE
  5
66
330
17
100
AcDbEntity
  8
ROADS
100
AcDbPolyline
 90
2
 70
0
 10
628133.7615153033
 20
4835275.74359029
 10
628083.2985208867
 20
4835260.516375262
  0
LWPOLYLINE
  5
67
330
17
100
AcDbEntity
  8
ROADS
100
AcDbPolyline
 90
2
 70
0
 10
628180.6414087592
 20
4835289.663952292
 10
628133.7615153033
 20
4835275.74359029
  0
LWPOLYLINE
  5
68
330
17
100
AcDbEntity
  8
ROADS
100
AcDbPolyline
 90
2
 70
0
 10
628230.7030205198
 20
4835305.049930267
 10
628180.6414087592
 20
4835289.663952292
  0
LWPOLYLINE
  5
69
330
17
100
AcDbEntity
  8
ROADS
100
AcDbPolyline
 90
2
 70
0
 10
628279.9992814922
 20
4835320.038051283
 10
628230.7030205198
 20
4835305.049930267
  0
LWPOLYLINE
  5
6A
330
17
100
AcDbEntity
  8
ROADS
100
AcDbPolyline
 90
2
 70
0
 10
628411.4898953594
 20
4834901.266626135
 10
628396.1553143676
 20
4834950.202639035
  0
LWPOLYLINE
  5
6B
330
17
100
AcDbEntity
  8
ROADS
100
AcDbPolyline
 90
2
 70
0
 10
628345.6122915554
 20
4834935.195029638
 10
628297.6870582826
 20
4834920.706778144
  0
LWPOLYLINE
  5
6C
330
17
100
AcDbEntity
  8
ROADS
100
AcDbPolyline
 90
2
 70
0
 10
628396.1553143676
 20
4834950.202639035
 10
628345.6122915554
 20
4834935.195029638
  0
LWPOLYLINE
  5
6D
330
17
100
AcDbEntity
  8
ROADS
100
AcDbPolyline
 90
2
 70
0
 10
628509.5789643164
 20
4834929.943582589
 10
628494.3280067305
 20
4834979.3981543025
  0
LWPOLYLINE
  5
6E
330
17
100
AcDbEntity
  8
ROADS
100
AcDbPolyline
 90
2
 70
0
 10
628494.3280067305
 20
4834979.3981543025
 10
628396.1553143676
 20
4834950.202639035
  0
LWPOLYLINE
  5
6F
330
17
100
AcDbEntity
  8
ROADS
100
AcDbPolyline
 90
2
 70
0
 10
628547.0998176878
 20
4834994.482070133
 10
628494.3280067305
 20
4834979.3981543025
  0
LWPOLYLINE
  5
70
330
17
100
AcDbEntity
  8
ROADS
100
AcDbPolyline
 90
2
 70
0
 10
628494.3280067305
 20
4834979.3981543025
 10
628434.5267936336
 20
4835166.340423851
  0
LWPOLYLINE
  5
71
330
17
100
AcDbEntity
  8
ROADS
100
AcDbPolyline
 90
2
 70
0
 10
628547.0998176878
 20
4834994.482070133
 10
628488.0445260947
 20
4835182.204901945
  0
LWPOLYLINE
  5
72
330
17
100
AcDbEntity
  8
ROADS
100
AcDbPolyline
 90
2
 70
0
 10
628396.1553143676
 20
4834950.202639035
 10
628279.9992814922
 20
4835320.038051283
  0
LWPOLYLINE
  5
73
330
17
100
AcDbEntity
  8
ROADS
100
AcDbPolyline
 90
2
 70
0
 10
628488.0445260947
 20
4835182.204901945
 10
628434.5267936336
 20
4835166.340423851
  0
LWPOLYLINE
  5
74
330
17
100
AcDbEntity
  8
ROADS
100
AcDbPolyline
 90
2
 70
0
 10
628729.6891440228
 20
4835047.492882658
 10
628711.43010085
 20
4835042.532758653
  0
LWPOLYLINE
  5
75
330
17
100
AcDbEntity
  8
ROADS
100
AcDbPolyline
 90
2
 70
0
 10
628780.3774529101
 20
4835098.045177869
 10
628760.4892692458
 20
4835154.118002945
  0
LWPOLYLINE
  5
76
330
17
100
AcDbEntity
  8
ROADS
100
AcDbPolyline
 90
2
 70
0
 10
628581.5026825856
 20
4835059.72725628
 10
628540.6068345191
 20
4835197.09404949
  0
LWPOLYLINE
  5
77
330
17
100
AcDbEntity
  8
ROADS
100
AcDbPolyline
 90
2
 70
0
 10
628812.3815203041
 20
4835133.932305496
 10
628801.4835706707
 20
4835167.694956235
  0
LWPOLYLINE
  5
78
330
17
100
AcDbEntity
  8
ROADS
100
AcDbPolyline
 90
2
 70
0
 10
628801.4835706707
 20
4835167.694956235
 10
628760.4892692458
 20
4835154.118002945
  0
LWPOLYLINE
  5
79
330
17
100
AcDbEntity
  8
ROADS
100
AcDbPolyline
 90
2
 70
0
 10
628690.6699470787
 20
4835036.601093657
 10
628589.0301253381
 20
4835378.587382776
  0
LWPOLYLINE
  5
7A
330
17
100
AcDbEntity
  8
ROADS
100
AcDbPolyline
 90
2
 70
0
 10
628760.4892692458
 20
4835154.118002945
 10
628723.8386925412
 20
4835272.397333615
  0
LWPOLYLINE
  5
7B
330
17
100
AcDbEntity
  8
ROADS
100
AcDbPolyline
 90
3
 70
0
 10
628581.5026825856
 20
4835059.72725628
 10
628625.888446332
 20
4835072.847467118
 10
628527.0649199365
 20
4835391.870079221
  0
LWPOLYLINE
  5
7C
330
17
100
AcDbEntity
  8
ROADS
100
AcDbPolyline
 90
2
 70
0
 10
628801.4835706707
 20
4835167.694956235
 10
628763.1888794345
 20
4835284.480479515
  0
LWPOLYLINE
  5
7D
330
17
100
AcDbEntity
  8
ROADS
100
AcDbPolyline
 90
2
 70
0
 10
628540.6068345191
 20
4835197.09404949
 10
628488.0445260947
 20
4835182.204901945
  0
LWPOLYLINE
  5
7E
330
17
100
AcDbEntity
  8
ROADS
100
AcDbPolyline
 90
2
 70
0
 10
628328.9132172205
 20
4835334.711244565
 10
628384.8208633681
 20
4835148.177705763
  0
LWPOLYLINE
  5
7F
330
17
100
AcDbEntity
  8
ROADS
100
AcDbPolyline
 90
2
 70
0
 10
628434.5267936336
 20
4835166.340423851
 10
628377.634183609
 20
4835348.773913678
  0
LWPOLYLINE
  5
80
330
17
100
AcDbEntity
  8
ROADS
100
AcDbPolyline
 90
2
 70
0
 10
628488.0445260947
 20
4835182.204901945
 10
628431.2184818167
 20
4835363.942576152
  0
LWPOLYLINE
  5
81
330
17
100
AcDbEntity
  8
ROADS
100
AcDbPolyline
 90
2
 70
0
 10
628540.6068345191
 20
4835197.09404949
 10
628484.6123902171
 20
4835379.353817506
  0
LWPOLYLINE
  5
82
330
17
100
AcDbEntity
  8
ROADS
100
AcDbPolyline
 90
2
 70
0
 10
628328.9132172205
 20
4835334.711244565
 10
628279.9992814922
 20
4835320.038051283
  0
LWPOLYLINE
  5
83
330
17
100
AcDbEntity
  8
ROADS
100
AcDbPolyline
 90
2
 70
0
 10
628377.634183609
 20
4835348.773913678
 10
628328.9132172205
 20
4835334.711244565
  0
LWPOLYLINE
  5
84
330
17
100
AcDbEntity
  8
ROADS
100
AcDbPolyline
 90
2
 70
0
 10
628431.2184818167
 20
4835363.942576152
 10
628377.634183609
 20
4835348.773913678
  0
LWPOLYLINE
  5
85
330
17
100
AcDbEntity
  8
ROADS
100
AcDbPolyline
 90
2
 70
0
 10
628377.634183609
 20
4835348.773913678
 10
628365.6972384793
 20
4835387.947685161
  0
LWPOLYLINE
  5
86
330
17
100
AcDbEntity
  8
ROADS
100
AcDbPolyline
 90
2
 70
0
 10
628484.6123902171
 20
4835379.353817506
 10
628431.2184818167
 20
4835363.942576152
  0
LWPOLYLINE
  5
87
330
17
100
AcDbEntity
  8
ROADS
100
AcDbPolyline
 90
2
 70
0
 10
628723.8386925412
 20
4835272.397333615
 10
628763.1888794345
 20
4835284.480479515
  0
LWPOLYLINE
  5
88
330
17
100
AcDbEntity
  8
ROADS
100
AcDbPolyline
 90
2
 70
0
 10
628810.925914321
 20
4835273.037670427
 10
628796.7911643354
 20
4835317.392110121
  0
LWPOLYLINE
  5
89
330
17
100
AcDbEntity
  8
ROADS
100
AcDbPolyline
 90
2
 70
0
 10
628763.1888794345
 20
4835284.480479515
 10
628746.1363456597
 20
4835339.543878764
  0
LWPOLYLINE
  5
8A
330
17
100
AcDbEntity
  8
ROADS
100
AcDbPolyline
 90
2
 70
0
 10
628723.8386925412
 20
4835272.397333615
 10
628690.8552249387
 20
4835388.026755707
  0
LWPOLYLINE
  5
8B
330
17
100
AcDbEntity
  8
ROADS
100
AcDbPolyline
 90
2
 70
0
 10
628633.7137365205
 20
4835423.579129755
 10
628682.771180907
 20
4835265.083462362
  0
LWPOLYLINE
  5
8C
330
17
100
AcDbEntity
  8
ROADS
100
AcDbPolyline
 90
2
 70
0
 10
628796.7911643354
 20
4835317.392110121
 10
628770.3928627282
 20
4835400.232414601
  0
LWPOLYLINE
  5
8D
330
17
100
AcDbEntity
  8
ROADS
100
AcDbPolyline
 90
4
 70
0
 10
628796.7911643354
 20
4835317.392110121
 10
628833.9780663624
 20
4835329.262143045
 10
628818.9103300037
 20
4835378.867067826
 10
628833.6615175304
 20
4835420.841535531
  0
LWPOLYLINE
  5
8E
330
17
100
AcDbEntity
  8
ROADS
100
AcDbPolyline
 90
2
 70
0
 10
628589.0301253381
 20
4835378.587382776
 10
628547.9344140916
 20
4835397.837742538
  0
LWPOLYLINE
  5
8F
330
17
100
AcDbEntity
  8
ROADS
100
AcDbPolyline
 90
2
 70
0
 10
628589.0301253381
 20
4835378.587382776
 10
628580.2026109295
 20
4835407.735727378
  0
LWPOLYLINE
  5
90
330
17
100
AcDbEntity
  8
ROADS
100
AcDbPolyline
 90
2
 70
0
 10
628580.2026109295
 20
4835407.735727378
 10
628547.9344140916
 20
4835397.837742538
  0
LWPOLYLINE
  5
91
330
17
100
AcDbEntity
  8
ROADS
100
AcDbPolyline
 90
2
 70
0
 10
628032.8620570361
 20
4835246.200702974
 10
627973.6217944839
 20
4835432.9777995255
  0
LWPOLYLINE
  5
92
330
17
100
AcDbEntity
  8
ROADS
100
AcDbPolyline
 90
2
 70
0
 10
628083.2985208867
 20
4835260.516375262
 10
628023.9372791399
 20
4835449.116427911
  0
LWPOLYLINE
  5
93
330
17
100
AcDbEntity
  8
ROADS
100
AcDbPolyline
 90
2
 70
0
 10
628133.7615153033
 20
4835275.74359029
 10
628074.5185289495
 20
4835463.941780737
  0
LWPOLYLINE
  5
94
330
17
100
AcDbEntity
  8
ROADS
100
AcDbPolyline
 90
2
 70
0
 10
628230.7030205198
 20
4835305.049930267
 10
628183.0064964935
 20
4835455.3704502
  0
LWPOLYLINE
  5
95
330
17
100
AcDbEntity
  8
ROADS
100
AcDbPolyline
 90
2
 70
0
 10
628180.6414087592
 20
4835289.663952292
 10
628121.898604576
 20
4835478.157228116
  0
LWPOLYLINE
  5
96
330
17
100
AcDbEntity
  8
ROADS
100
AcDbPolyline
 90
2
 70
0
 10
628279.9992814922
 20
4835320.038051283
 10
628220.5457368623
 20
4835508.595533552
  0
LWPOLYLINE
  5
97
330
17
100
AcDbEntity
  8
ROADS
100
AcDbPolyline
 90
2
 70
0
 10
628023.9372791399
 20
4835449.116427911
 10
627973.6217944839
 20
4835432.9777995255
  0
LWPOLYLINE
  5
98
330
17
100
AcDbEntity
  8
ROADS
100
AcDbPolyline
 90
2
 70
0
 10
628183.0064964935
 20
4835455.3704502
 10
628170.8112617437
 20
4835450.969702182
  0
LWPOLYLINE
  5
99
330
17
100
AcDbEntity
  8
ROADS
100
AcDbPolyline
 90
2
 70
0
 10
628074.5185289495
 20
4835463.941780737
 10
628023.9372791399
 20
4835449.116427911
  0
LWPOLYLINE
  5
9A
330
17
100
AcDbEntity
  8
ROADS
100
AcDbPolyline
 90
2
 70
0
 10
628121.898604576
 20
4835478.157228116
 10
628074.5185289495
 20
4835463.941780737
  0
LWPOLYLINE
  5
9B
330
17
100
AcDbEntity
  8
ROADS
100
AcDbPolyline
 90
2
 70
0
 10
628770.3928627282
 20
4835400.232414601
 10
628833.6615175304
 20
4835420.841535531
  0
LWPOLYLINE
  5
9C
330
17
100
AcDbEntity
  8
ROADS
100
AcDbPolyline
 90
2
 70
0
 10
628690.8552249387
 20
4835388.026755707
 10
628673.4582046126
 20
4835435.315395091
  0
LWPOLYLINE
  5
9D
330
17
100
AcDbEntity
  8
ROADS
100
AcDbPolyline
 90
2
 70
0
 10
628633.7137365205
 20
4835423.579129755
 10
628580.2026109295
 20
4835407.735727378
  0
LWPOLYLINE
  5
9E
330
17
100
AcDbEntity
  8
ROADS
100
AcDbPolyline
 90
2
 70
0
 10
628770.3928627282
 20
4835400.232414601
 10
628755.4262962361
 20
4835452.704346649
  0
LWPOLYLINE
  5
9F
330
17
100
AcDbEntity
  8
ROADS
100
AcDbPolyline
 90
2
 70
0
 10
628580.2026109295
 20
4835407.735727378
 10
628567.6940205595
 20
4835446.914686879
  0
LWPOLYLINE
  5
A0
330
17
100
AcDbEntity
  8
ROADS
100
AcDbPolyline
 90
2
 70
0
 10
628673.4582046126
 20
4835435.315395091
 10
628633.7137365205
 20
4835423.579129755
  0
LWPOLYLINE
  5
A1
330
17
100
AcDbEntity
  8
ROADS
100
AcDbPolyline
 90
2
 70
0
 10
628833.6615175304
 20
4835420.841535531
 10
628816.4486817642
 20
4835472.987847288
  0
LWPOLYLINE
  5
A2
330
17
100
AcDbEntity
  8
ROADS
100
AcDbPolyline
 90
2
 70
0
 10
628673.4582046126
 20
4835435.315395091
 10
628662.4890514147
 20
4835479.205006402
  0
LWPOLYLINE
  5
A3
330
17
100
AcDbEntity
  8
ROADS
100
AcDbPolyline
 90
2
 70
0
 10
628816.4486817642
 20
4835472.987847288
 10
628755.4262962361
 20
4835452.704346649
  0
LWPOLYLINE
  5
A4
330
17
100
AcDbEntity
  8
ROADS
100
AcDbPolyline
 90
2
 70
0
 10
628662.4890514147
 20
4835479.205006402
 10
628567.6940205595
 20
4835446.914686879
  0
LWPOLYLINE
  5
A5
330
17
100
AcDbEntity
  8
ROADS
100
AcDbPolyline
 90
2
 70
0
 10
628431.2184818167
 20
4835363.942576152
 10
628418.6262751616
 20
4835404.234581126
  0
LWPOLYLINE
  5
A6
330
17
100
AcDbEntity
  8
ROADS
100
AcDbPolyline
 90
2
 70
0
 10
628527.0649199365
 20
4835391.870079221
 10
628484.6123902171
 20
4835379.353817506
  0
LWPOLYLINE
  5
A7
330
17
100
AcDbEntity
  8
ROADS
100
AcDbPolyline
 90
2
 70
0
 10
628547.9344140916
 20
4835397.837742538
 10
628527.0649199365
 20
4835391.870079221
  0
LWPOLYLINE
  5
A8
330
17
100
AcDbEntity
  8
ROADS
100
AcDbPolyline
 90
2
 70
0
 10
628418.6262751616
 20
4835404.234581126
 10
628365.6972384793
 20
4835387.947685161
  0
LWPOLYLINE
  5
A9
330
17
100
AcDbEntity
  8
ROADS
100
AcDbPolyline
 90
2
 70
0
 10
628484.6123902171
 20
4835379.353817506
 10
628473.4232313063
 20
4835414.724868879
  0
LWPOLYLINE
  5
AA
330
17
100
AcDbEntity
  8
ROADS
100
AcDbPolyline
 90
2
 70
0
 10
628519.4915379568
 20
4835428.151559513
 10
628473.4232313063
 20
4835414.724868879
  0
LWPOLYLINE
  5
AB
330
17
100
AcDbEntity
  8
ROADS
100
AcDbPolyline
 90
2
 70
0
 10
628567.6940205595
 20
4835446.914686879
 10
628519.4915379568
 20
4835428.151559513
  0
LWPOLYLINE
  5
AC
330
17
100
AcDbEntity
  8
ROADS
100
AcDbPolyline
 90
2
 70
0
 10
628267.9204495566
 20
4835522.444872292
 10
628319.009467192
 20
4835366.303271333
  0
LWPOLYLINE
  5
AD
330
17
100
AcDbEntity
  8
ROADS
100
AcDbPolyline
 90
2
 70
0
 10
628365.6972384793
 20
4835387.947685161
 10
628318.1268849265
 20
4835539.030585314
  0
LWPOLYLINE
  5
AE
330
17
100
AcDbEntity
  8
ROADS
100
AcDbPolyline
 90
2
 70
0
 10
628418.6262751616
 20
4835404.234581126
 10
628371.6368306859
 20
4835554.82597258
  0
LWPOLYLINE
  5
AF
330
17
100
AcDbEntity
  8
ROADS
100
AcDbPolyline
 90
2
 70
0
 10
628755.4262962361
 20
4835452.704346649
 10
628738.0474830023
 20
4835502.442483993
  0
LWPOLYLINE
  5
B0
330
17
100
AcDbEntity
  8
ROADS
100
AcDbPolyline
 90
3
 70
0
 10
628690.8552249387
 20
4835388.026755707
 10
628729.3207604091
 20
4835399.201861374
 10
628669.7336621387
 20
4835591.212398367
  0
LWPOLYLINE
  5
B1
330
17
100
AcDbEntity
  8
ROADS
100
AcDbPolyline
 90
2
 70
0
 10
628816.4486817642
 20
4835472.987847288
 10
628801.042981304
 20
4835521.924609133
  0
LWPOLYLINE
  5
B2
330
17
100
AcDbEntity
  8
ROADS
100
AcDbPolyline
 90
2
 70
0
 10
628801.042981304
 20
4835521.924609133
 10
628738.0474830023
 20
4835502.442483993
  0
LWPOLYLINE
  5
B3
330
17
100
AcDbEntity
  8
ROADS
100
AcDbPolyline
 90
2
 70
0
 10
628662.4890514147
 20
4835479.205006402
 10
628631.0260696434
 20
4835580.150904051
  0
LWPOLYLINE
  5
B4
330
17
100
AcDbEntity
  8
ROADS
100
AcDbPolyline
 90
2
 70
0
 10
628801.042981304
 20
4835521.924609133
 10
628789.0767407895
 20
4835560.614862583
  0
LWPOLYLINE
  5
B5
330
17
100
AcDbEntity
  8
ROADS
100
AcDbPolyline
 90
2
 70
0
 10
628738.0474830023
 20
4835502.442483993
 10
628708.1489786223
 20
4835603.228674738
  0
LWPOLYLINE
  5
B6
330
17
100
AcDbEntity
  8
ROADS
100
AcDbPolyline
 90
2
 70
0
 10
628789.0767407895
 20
4835560.614862583
 10
628765.6173315033
 20
4835559.610694925
  0
LWPOLYLINE
  5
B7
330
17
100
AcDbEntity
  8
ROADS
100
AcDbPolyline
 90
2
 70
0
 10
628570.4374880156
 20
4835609.7765307315
 10
628602.8289243353
 20
4835518.434073218
  0
LWPOLYLINE
  5
B8
330
17
100
AcDbEntity
  8
ROADS
100
AcDbPolyline
 90
2
 70
0
 10
628631.0260696434
 20
4835580.150904051
 10
628669.7336621387
 20
4835591.212398367
  0
LWPOLYLINE
  5
B9
330
17
100
AcDbEntity
  8
ROADS
100
AcDbPolyline
 90
2
 70
0
 10
627389.7520822794
 20
4835257.827810519
 10
627418.9832219176
 20
4835161.979393339
  0
LWPOLYLINE
  5
BA
330
17
100
AcDbEntity
  8
ROADS
100
AcDbPolyline
 90
2
 70
0
 10
627485.2418623853
 20
4835104.771397613
 10
627432.2203347277
 20
4835271.458372347
  0
LWPOLYLINE
  5
BB
330
17
100
AcDbEntity
  8
ROADS
100
AcDbPolyline
 90
2
 70
0
 10
627389.7520822794
 20
4835257.827810519
 10
627349.3291937127
 20
4835244.619773698
  0
LWPOLYLINE
  5
BC
330
17
100
AcDbEntity
  8
ROADS
100
AcDbPolyline
 90
2
 70
0
 10
627432.2203347277
 20
4835271.458372347
 10
627389.7520822794
 20
4835257.827810519
  0
LWPOLYLINE
  5
BD
330
17
100
AcDbEntity
  8
ROADS
100
AcDbPolyline
 90
2
 70
0
 10
627496.8685484665
 20
4835108.756820825
 10
627485.2418623853
 20
4835104.771397613
  0
LWPOLYLINE
  5
BE
330
17
100
AcDbEntity
  8
ROADS
100
AcDbPolyline
 90
2
 70
0
 10
627543.7013213891
 20
4835119.996114042
 10
627496.8685484665
 20
4835108.756820825
  0
LWPOLYLINE
  5
BF
330
17
100
AcDbEntity
  8
ROADS
100
AcDbPolyline
 90
2
 70
0
 10
627592.5016672793
 20
4835135.24923095
 10
627543.7013213891
 20
4835119.996114042
  0
LWPOLYLINE
  5
C0
330
17
100
AcDbEntity
  8
ROADS
100
AcDbPolyline
 90
2
 70
0
 10
627733.0894297296
 20
4835183.107654324
 10
627695.3965397163
 20
4835171.739559577
  0
LWPOLYLINE
  5
C1
330
17
100
AcDbEntity
  8
ROADS
100
AcDbPolyline
 90
2
 70
0
 10
627733.0894297296
 20
4835183.107654324
 10
627722.861516882
 20
4835216.202864472
  0
LWPOLYLINE
  5
C2
330
17
100
AcDbEntity
  8
ROADS
100
AcDbPolyline
 90
2
 70
0
 10
627533.925974663
 20
4835209.930063039
 10
627533.2823354977
 20
4835223.875805043
  0
LWPOLYLINE
  5
C3
330
17
100
AcDbEntity
  8
ROADS
100
AcDbPolyline
 90
2
 70
0
 10
627553.1410435834
 20
4835307.242541775
 10
627592.5016672793
 20
4835135.24923095
  0
LWPOLYLINE
  5
C4
330
17
100
AcDbEntity
  8
ROADS
100
AcDbPolyline
 90
2
 70
0
 10
627533.2823354977
 20
4835223.875805043
 10
627515.6166773243
 20
4835238.371871587
  0
LWPOLYLINE
  5
C5
330
17
100
AcDbEntity
  8
ROADS
100
AcDbPolyline
 90
2
 70
0
 10
627533.2823354977
 20
4835223.875805043
 10
627531.7412979356
 20
4835241.159534443
  0
LWPOLYLINE
  5
C6
330
17
100
AcDbEntity
  8
ROADS
100
AcDbPolyline
 90
4
 70
0
 10
627533.2823354977
 20
4835223.875805043
 10
627570.0117142603
 20
4835224.425301287
 10
627558.2180449062
 20
4835253.822956768
 10
627536.9940168512
 20
4835254.746343489
  0
LWPOLYLINE
  5
C7
330
17
100
AcDbEntity
  8
ROADS
100
AcDbPolyline
 90
2
 70
0
 10
627841.9748139681
 20
4835173.512362546
 10
627793.0836666812
 20
4835160.6247385405
  0
LWPOLYLINE
  5
C8
330
17
100
AcDbEntity
  8
ROADS
100
AcDbPolyline
 90
2
 70
0
 10
627793.0836666812
 20
4835160.6247385405
 10
627781.9552616837
 20
4835197.892942596
  0
LWPOLYLINE
  5
C9
330
17
100
AcDbEntity
  8
ROADS
100
AcDbPolyline
 90
2
 70
0
 10
627890.1425108226
 20
4835187.861005832
 10
627841.9748139681
 20
4835173.512362546
  0
LWPOLYLINE
  5
CA
330
17
100
AcDbEntity
  8
ROADS
100
AcDbPolyline
 90
2
 70
0
 10
627781.9552616837
 20
4835197.892942596
 10
627733.0894297296
 20
4835183.107654324
  0
LWPOLYLINE
  5
CB
330
17
100
AcDbEntity
  8
ROADS
100
AcDbPolyline
 90
2
 70
0
 10
627890.1425108226
 20
4835187.861005832
 10
627886.0085039122
 20
4835201.621155226
  0
LWPOLYLINE
  5
CC
330
17
100
AcDbEntity
  8
ROADS
100
AcDbPolyline
 90
2
 70
0
 10
627935.7665905528
 20
4835216.2860742
 10
627886.0085039122
 20
4835201.621155226
  0
LWPOLYLINE
  5
CD
330
17
100
AcDbEntity
  8
ROADS
100
AcDbPolyline
 90
2
 70
0
 10
627997.6295298021
 20
4835188.573094539
 10
627984.9802694304
 20
4835230.474125449
  0
LWPOLYLINE
  5
CE
330
17
100
AcDbEntity
  8
ROADS
100
AcDbPolyline
 90
2
 70
0
 10
627947.6255729999
 20
4835219.814176284
 10
627935.7665905528
 20
4835216.2860742
  0
LWPOLYLINE
  5
CF
330
17
100
AcDbEntity
  8
ROADS
100
AcDbPolyline
 90
2
 70
0
 10
627984.9802694304
 20
4835230.474125449
 10
627947.6255729999
 20
4835219.814176284
  0
LWPOLYLINE
  5
D0
330
17
100
AcDbEntity
  8
ROADS
100
AcDbPolyline
 90
3
 70
0
 10
627947.6255729999
 20
4835219.814176284
 10
627945.6815592248
 20
4835244.922644154
 10
627969.2746315257
 20
4835280.295410824
  0
LWPOLYLINE
  5
D1
330
17
100
AcDbEntity
  8
ROADS
100
AcDbPolyline
 90
2
 70
0
 10
627515.6166773243
 20
4835238.371871587
 10
627531.7412979356
 20
4835241.159534443
  0
LWPOLYLINE
  5
D2
330
17
100
AcDbEntity
  8
ROADS
100
AcDbPolyline
 90
2
 70
0
 10
627531.7412979356
 20
4835241.159534443
 10
627536.9940168512
 20
4835254.746343489
  0
LWPOLYLINE
  5
D3
330
17
100
AcDbEntity
  8
ROADS
100
AcDbPolyline
 90
2
 70
0
 10
627486.5065581639
 20
4835287.492058866
 10
627501.0875139777
 20
4835218.802996498
  0
LWPOLYLINE
  5
D4
330
17
100
AcDbEntity
  8
ROADS
100
AcDbPolyline
 90
2
 70
0
 10
627695.3965397163
 20
4835171.739559577
 10
627646.7205476045
 20
4835335.08947435
  0
LWPOLYLINE
  5
D5
330
17
100
AcDbEntity
  8
ROADS
100
AcDbPolyline
 90
2
 70
0
 10
627515.6166773243
 20
4835238.371871587
 10
627486.5065581639
 20
4835287.492058866
  0
LWPOLYLINE
  5
D6
330
17
100
AcDbEntity
  8
ROADS
100
AcDbPolyline
 90
2
 70
0
 10
627536.9940168512
 20
4835254.746343489
 10
627553.1410435834
 20
4835307.242541775
  0
LWPOLYLINE
  5
D7
330
17
100
AcDbEntity
  8
ROADS
100
AcDbPolyline
 90
2
 70
0
 10
627553.1410435834
 20
4835307.242541775
 10
627486.5065581639
 20
4835287.492058866
  0
LWPOLYLINE
  5
D8
330
17
100
AcDbEntity
  8
ROADS
100
AcDbPolyline
 90
2
 70
0
 10
627486.5065581639
 20
4835287.492058866
 10
627486.5212913335
 20
4835311.754514526
  0
LWPOLYLINE
  5
D9
330
17
100
AcDbEntity
  8
ROADS
100
AcDbPolyline
 90
2
 70
0
 10
627599.9211165917
 20
4835321.065074834
 10
627553.1410435834
 20
4835307.242541775
  0
LWPOLYLINE
  5
DA
330
17
100
AcDbEntity
  8
ROADS
100
AcDbPolyline
 90
2
 70
0
 10
627646.7205476045
 20
4835335.08947435
 10
627599.9211165917
 20
4835321.065074834
  0
LWPOLYLINE
  5
DB
330
17
100
AcDbEntity
  8
ROADS
100
AcDbPolyline
 90
2
 70
0
 10
627984.9802694304
 20
4835230.474125449
 10
627969.2746315257
 20
4835280.295410824
  0
LWPOLYLINE
  5
DC
330
17
100
AcDbEntity
  8
ROADS
100
AcDbPolyline
 90
2
 70
0
 10
627781.9552616837
 20
4835197.892942596
 10
627739.5730784215
 20
4835331.845305438
  0
LWPOLYLINE
  5
DD
330
17
100
AcDbEntity
  8
ROADS
100
AcDbPolyline
 90
2
 70
0
 10
627841.9748139681
 20
4835173.512362546
 10
627779.1230333537
 20
4835376.296095812
  0
LWPOLYLINE
  5
DE
330
17
100
AcDbEntity
  8
ROADS
100
AcDbPolyline
 90
2
 70
0
 10
627886.0085039122
 20
4835201.621155226
 10
627825.9098394918
 20
4835390.356284168
  0
LWPOLYLINE
  5
DF
330
17
100
AcDbEntity
  8
ROADS
100
AcDbPolyline
 90
2
 70
0
 10
627935.7665905528
 20
4835216.2860742
 10
627876.6865224615
 20
4835404.76962651
  0
LWPOLYLINE
  5
E0
330
17
100
AcDbEntity
  8
ROADS
100
AcDbPolyline
 90
2
 70
0
 10
627969.2746315257
 20
4835280.295410824
 10
627925.9514128957
 20
4835418.3920926945
  0
LWPOLYLINE
  5
E1
330
17
100
AcDbEntity
  8
ROADS
100
AcDbPolyline
 90
2
 70
0
 10
627825.9098394918
 20
4835390.356284168
 10
627779.1230333537
 20
4835376.296095812
  0
LWPOLYLINE
  5
E2
330
17
100
AcDbEntity
  8
ROADS
100
AcDbPolyline
 90
2
 70
0
 10
627876.6865224615
 20
4835404.76962651
 10
627825.9098394918
 20
4835390.356284168
  0
LWPOLYLINE
  5
E3
330
17
100
AcDbEntity
  8
ROADS
100
AcDbPolyline
 90
2
 70
0
 10
627925.9514128957
 20
4835418.3920926945
 10
627876.6865224615
 20
4835404.76962651
  0
LWPOLYLINE
  5
E4
330
17
100
AcDbEntity
  8
ROADS
100
AcDbPolyline
 90
2
 70
0
 10
627973.6217944839
 20
4835432.9777995255
 10
627925.9514128957
 20
4835418.3920926945
  0
LWPOLYLINE
  5
E5
330
17
100
AcDbEntity
  8
ROADS
100
AcDbPolyline
 90
2
 70
0
 10
627486.5065581639
 20
4835287.492058866
 10
627432.2203347277
 20
4835271.458372347
  0
LWPOLYLINE
  5
E6
330
17
100
AcDbEntity
  8
ROADS
100
AcDbPolyline
 90
2
 70
0
 10
627486.5212913335
 20
4835311.754514526
 10
627430.6615649213
 20
4835486.789672927
  0
LWPOLYLINE
  5
E7
330
17
100
AcDbEntity
  8
ROADS
100
AcDbPolyline
 90
3
 70
0
 10
627430.6615649213
 20
4835486.789672927
 10
627410.8512291131
 20
4835523.801358169
 10
627486.5065581639
 20
4835287.492058866
  0
LWPOLYLINE
  5
E8
330
17
100
AcDbEntity
  8
ROADS
100
AcDbPolyline
 90
2
 70
0
 10
627339.2862271931
 20
4835257.878713044
 10
627242.1318165517
 20
4835583.674958043
  0
LWPOLYLINE
  5
E9
330
17
100
AcDbEntity
  8
ROADS
100
AcDbPolyline
 90
2
 70
0
 10
627288.4365693176
 20
4835592.781131498
 10
627389.7520822794
 20
4835257.827810519
  0
LWPOLYLINE
  5
EA
330
17
100
AcDbEntity
  8
ROADS
100
AcDbPolyline
 90
2
 70
0
 10
627432.2203347277
 20
4835271.458372347
 10
627332.173537387
 20
4835607.370727947
  0
LWPOLYLINE
  5
EB
330
17
100
AcDbEntity
  8
ROADS
100
AcDbPolyline
 90
2
 70
0
 10
627430.6615649213
 20
4835486.789672927
 10
627436.857972838
 20
4835545.423362805
  0
LWPOLYLINE
  5
EC
330
17
100
AcDbEntity
  8
ROADS
100
AcDbPolyline
 90
2
 70
0
 10
627436.857972838
 20
4835545.423362805
 10
627415.1104307455
 20
4835550.190506985
  0
LWPOLYLINE
  5
ED
330
17
100
AcDbEntity
  8
ROADS
100
AcDbPolyline
 90
2
 70
0
 10
627599.9211165917
 20
4835321.065074834
 10
627594.9437282359
 20
4835337.609140161
  0
LWPOLYLINE
  5
EE
330
17
100
AcDbEntity
  8
ROADS
100
AcDbPolyline
 90
3
 70
0
 10
627739.5730784215
 20
4835331.845305438
 10
627693.5151814902
 20
4835318.069823504
 10
627684.4239518993
 20
4835347.258326764
  0
LWPOLYLINE
  5
EF
330
17
100
AcDbEntity
  8
ROADS
100
AcDbPolyline
 90
2
 70
0
 10
627684.4239518993
 20
4835347.258326764
 10
627646.7205476045
 20
4835335.08947435
  0
LWPOLYLINE
  5
F0
330
17
100
AcDbEntity
  8
ROADS
100
AcDbPolyline
 90
3
 70
0
 10
627486.5212913335
 20
4835311.754514526
 10
627495.661234611
 20
4835358.532677939
 10
627555.8386371434
 20
4835376.144645722
  0
LWPOLYLINE
  5
F1
330
17
100
AcDbEntity
  8
ROADS
100
AcDbPolyline
 90
2
 70
0
 10
627739.5730784215
 20
4835331.845305438
 10
627730.5179411023
 20
4835361.692506642
  0
LWPOLYLINE
  5
F2
330
17
100
AcDbEntity
  8
ROADS
100
AcDbPolyline
 90
2
 70
0
 10
627730.5179411023
 20
4835361.692506642
 10
627684.4239518993
 20
4835347.258326764
  0
LWPOLYLINE
  5
F3
330
17
100
AcDbEntity
  8
ROADS
100
AcDbPolyline
 90
2
 70
0
 10
627594.9437282359
 20
4835337.609140161
 10
627555.8386371434
 20
4835376.144645722
  0
LWPOLYLINE
  5
F4
330
17
100
AcDbEntity
  8
ROADS
100
AcDbPolyline
 90
2
 70
0
 10
627779.1230333537
 20
4835376.296095812
 10
627730.5179411023
 20
4835361.692506642
  0
LWPOLYLINE
  5
F5
330
17
100
AcDbEntity
  8
ROADS
100
AcDbPolyline
 90
2
 70
0
 10
627684.4239518993
 20
4835347.258326764
 10
627631.1133663438
 20
4835521.904642042
  0
LWPOLYLINE
  5
F6
330
17
100
AcDbEntity
  8
ROADS
100
AcDbPolyline
 90
2
 70
0
 10
627646.7205476045
 20
4835335.08947435
 10
627585.5836682394
 20
4835540.259713174
  0
LWPOLYLINE
  5
F7
330
17
100
AcDbEntity
  8
ROADS
100
AcDbPolyline
 90
2
 70
0
 10
627594.9437282359
 20
4835337.609140161
 10
627520.4281275447
 20
4835583.706558412
  0
LWPOLYLINE
  5
F8
330
17
100
AcDbEntity
  8
ROADS
100
AcDbPolyline
 90
3
 70
0
 10
627555.8386371434
 20
4835376.144645722
 10
627525.3549387098
 20
4835477.527949189
 10
627436.857972838
 20
4835545.423362805
  0
LWPOLYLINE
  5
F9
330
17
100
AcDbEntity
  8
ROADS
100
AcDbPolyline
 90
2
 70
0
 10
627730.5179411023
 20
4835361.692506642
 10
627670.2014503395
 20
4835565.902062608
  0
LWPOLYLINE
  5
FA
330
17
100
AcDbEntity
  8
ROADS
100
AcDbPolyline
 90
3
 70
0
 10
627779.1230333537
 20
4835376.296095812
 10
627670.0094854194
 20
4835723.048543025
 10
627627.0415687683
 20
4835709.562890622
  0
LWPOLYLINE
  5
FB
330
17
100
AcDbEntity
  8
ROADS
100
AcDbPolyline
 90
2
 70
0
 10
627670.2014503395
 20
4835565.902062608
 10
627585.5836682394
 20
4835540.259713174
  0
LWPOLYLINE
  5
FC
330
17
100
AcDbEntity
  8
ROADS
100
AcDbPolyline
 90
2
 70
0
 10
627563.5816101045
 20
4835594.229358624
 10
627585.5836682394
 20
4835540.259713174
  0
LWPOLYLINE
  5
FD
330
17
100
AcDbEntity
  8
ROADS
100
AcDbPolyline
 90
2
 70
0
 10
627670.2014503395
 20
4835565.902062608
 10
627652.2050442508
 20
4835619.8491340745
  0
LWPOLYLINE
  5
FE
330
17
100
AcDbEntity
  8
ROADS
100
AcDbPolyline
 90
2
 70
0
 10
627652.2050442508
 20
4835619.8491340745
 10
627563.5816101045
 20
4835594.229358624
  0
LWPOLYLINE
  5
FF
330
17
100
AcDbEntity
  8
ROADS
100
AcDbPolyline
 90
2
 70
0
 10
627543.9125634795
 20
4835659.600891929
 10
627563.5816101045
 20
4835594.229358624
  0
LWPOLYLINE
  5
100
330
17
100
AcDbEntity
  8
ROADS
100
AcDbPolyline
 90
2
 70
0
 10
627520.4281275447
 20
4835583.706558412
 10
627496.3500577307
 20
4835670.415715911
  0
LWPOLYLINE
  5
101
330
17
100
AcDbEntity
  8
ROADS
100
AcDbPolyline
 90
2
 70
0
 10
627925.9514128957
 20
4835418.3920926945
 10
627885.1709166915
 20
4835547.549135675
  0
LWPOLYLINE
  5
102
330
17
100
AcDbEntity
  8
ROADS
100
AcDbPolyline
 90
2
 70
0
 10
627973.6217944839
 20
4835432.9777995255
 10
627931.2847107593
 20
4835560.833635676
  0
LWPOLYLINE
  5
103
330
17
100
AcDbEntity
  8
ROADS
100
AcDbPolyline
 90
2
 70
0
 10
627825.9098394918
 20
4835390.356284168
 10
627747.2104862974
 20
4835644.994268838
  0
LWPOLYLINE
  5
104
330
17
100
AcDbEntity
  8
ROADS
100
AcDbPolyline
 90
2
 70
0
 10
627931.2847107593
 20
4835560.833635676
 10
627885.1709166915
 20
4835547.549135675
  0
LWPOLYLINE
  5
105
330
17
100
AcDbEntity
  8
ROADS
100
AcDbPolyline
 90
2
 70
0
 10
627984.1079923132
 20
4835576.438583441
 10
627931.2847107593
 20
4835560.833635676
  0
LWPOLYLINE
  5
106
330
17
100
AcDbEntity
  8
ROADS
100
AcDbPolyline
 90
2
 70
0
 10
627885.1709166915
 20
4835547.549135675
 10
627866.7076657396
 20
4835604.1959755765
  0
LWPOLYLINE
  5
107
330
17
100
AcDbEntity
  8
ROADS
100
AcDbPolyline
 90
2
 70
0
 10
627891.3695087864
 20
4835688.536214511
 10
627931.2847107593
 20
4835560.833635676
  0
LWPOLYLINE
  5
108
330
17
100
AcDbEntity
  8
ROADS
100
AcDbPolyline
 90
3
 70
0
 10
627866.7076657396
 20
4835604.1959755765
 10
627817.6208170266
 20
4835590.572702906
 10
627796.3972279086
 20
4835659.729423545
  0
LWPOLYLINE
  5
109
330
17
100
AcDbEntity
  8
ROADS
100
AcDbPolyline
 90
2
 70
0
 10
627866.7076657396
 20
4835604.1959755765
 10
627845.5114222219
 20
4835674.55027639
  0
LWPOLYLINE
  5
10A
330
17
100
AcDbEntity
  8
ROADS
100
AcDbPolyline
 90
2
 70
0
 10
627984.1079923132
 20
4835576.438583441
 10
627943.8362639112
 20
4835704.057729871
  0
LWPOLYLINE
  5
10B
330
17
100
AcDbEntity
  8
ROADS
100
AcDbPolyline
 90
2
 70
0
 10
627436.857972838
 20
4835545.423362805
 10
627433.7200061122
 20
4835555.865288158
  0
LWPOLYLINE
  5
10C
330
17
100
AcDbEntity
  8
ROADS
100
AcDbPolyline
 90
3
 70
0
 10
627436.857972838
 20
4835545.423362805
 10
627500.678270116
 20
4835555.695757057
 10
627520.4281275447
 20
4835583.706558412
  0
LWPOLYLINE
  5
10D
330
17
100
AcDbEntity
  8
ROADS
100
AcDbPolyline
 90
2
 70
0
 10
627288.4365693176
 20
4835592.781131498
 10
627242.1318165517
 20
4835583.674958043
  0
LWPOLYLINE
  5
10E
330
17
100
AcDbEntity
  8
ROADS
100
AcDbPolyline
 90
2
 70
0
 10
627332.173537387
 20
4835607.370727947
 10
627288.4365693176
 20
4835592.781131498
  0
LWPOLYLINE
  5
10F
330
17
100
AcDbEntity
  8
ROADS
100
AcDbPolyline
 90
2
 70
0
 10
627242.1318165517
 20
4835583.674958043
 10
627225.0517217477
 20
4835629.173501161
  0
LWPOLYLINE
  5
110
330
17
100
AcDbEntity
  8
ROADS
100
AcDbPolyline
 90
3
 70
0
 10
627496.3500577307
 20
4835670.415715911
 10
627449.2449307067
 20
4835654.937157751
 10
627472.9721535433
 20
4835574.026032468
  0
LWPOLYLINE
  5
111
330
17
100
AcDbEntity
  8
ROADS
100
AcDbPolyline
 90
2
 70
0
 10
627332.173537387
 20
4835607.370727947
 10
627316.8513665872
 20
4835658.382905991
  0
LWPOLYLINE
  5
112
330
17
100
AcDbEntity
  8
ROADS
100
AcDbPolyline
 90
2
 70
0
 10
627260.0495835918
 20
4835640.308896259
 10
627225.0517217477
 20
4835629.173501161
  0
LWPOLYLINE
  5
113
330
17
100
AcDbEntity
  8
ROADS
100
AcDbPolyline
 90
2
 70
0
 10
627316.8513665872
 20
4835658.382905991
 10
627260.0495835918
 20
4835640.308896259
  0
LWPOLYLINE
  5
114
330
17
100
AcDbEntity
  8
ROADS
100
AcDbPolyline
 90
2
 70
0
 10
627260.0495835918
 20
4835640.308896259
 10
627272.8407768682
 20
4835681.772716921
  0
LWPOLYLINE
  5
115
330
17
100
AcDbEntity
  8
ROADS
100
AcDbPolyline
 90
2
 70
0
 10
628841.0978383279
 20
4835173.075974826
 10
628810.925914321
 20
4835273.037670427
  0
LWPOLYLINE
  5
116
330
17
100
AcDbEntity
  8
ROADS
100
AcDbPolyline
 90
2
 70
0
 10
628902.6380795649
 20
4835273.005580383
 10
628879.6465622497
 20
4835296.157494753
  0
LWPOLYLINE
  5
117
330
17
100
AcDbEntity
  8
ROADS
100
AcDbPolyline
 90
2
 70
0
 10
628879.6465622497
 20
4835296.157494753
 10
628810.925914321
 20
4835273.037670427
  0
LWPOLYLINE
  5
118
330
17
100
AcDbEntity
  8
ROADS
100
AcDbPolyline
 90
3
 70
0
 10
628879.6465622497
 20
4835296.157494753
 10
628889.4584724918
 20
4835358.210020837
 10
628925.8854389056
 20
4835393.915921773
  0
LWPOLYLINE
  5
119
330
17
100
AcDbEntity
  8
ROADS
100
AcDbPolyline
 90
2
 70
0
 10
628949.5265854452
 20
4835386.469619805
 10
628925.8854389056
 20
4835393.915921773
  0
LWPOLYLINE
  5
11A
330
17
100
AcDbEntity
  8
ROADS
100
AcDbPolyline
 90
2
 70
0
 10
628925.8854389056
 20
4835393.915921773
 10
628893.127284986
 20
4835497.134644747
  0
LWPOLYLINE
  5
11B
330
17
100
AcDbEntity
  8
ROADS
100
AcDbPolyline
 90
3
 70
0
 10
628833.6615175304
 20
4835420.841535531
 10
628857.5573884132
 20
4835428.626037048
 10
628841.8815889615
 20
4835480.997153449
  0
LWPOLYLINE
  5
11C
330
17
100
AcDbEntity
  8
ROADS
100
AcDbPolyline
 90
2
 70
0
 10
628841.8815889615
 20
4835480.997153449
 10
628816.4486817642
 20
4835472.987847288
  0
LWPOLYLINE
  5
11D
330
17
100
AcDbEntity
  8
ROADS
100
AcDbPolyline
 90
2
 70
0
 10
628893.127284986
 20
4835497.134644747
 10
628841.8815889615
 20
4835480.997153449
  0
LWPOLYLINE
  5
11E
330
17
100
AcDbEntity
  8
ROADS
100
AcDbPolyline
 90
2
 70
0
 10
628981.7216018619
 20
4835523.431592361
 10
628893.127284986
 20
4835497.134644747
  0
LWPOLYLINE
  5
11F
330
17
100
AcDbEntity
  8
ROADS
100
AcDbPolyline
 90
2
 70
0
 10
628893.127284986
 20
4835497.134644747
 10
628862.8590205326
 20
4835595.444032469
  0
LWPOLYLINE
  5
120
330
17
100
AcDbEntity
  8
ROADS
100
AcDbPolyline
 90
2
 70
0
 10
628990.3173777339
 20
4835632.608692305
 10
628862.8590205326
 20
4835595.444032469
  0
LWPOLYLINE
  5
121
330
17
100
AcDbEntity
  8
ROADS
100
AcDbPolyline
 90
2
 70
0
 10
628862.8590205326
 20
4835595.444032469
 10
628833.0574648386
 20
4835690.395616037
  0
LWPOLYLINE
  5
122
330
17
100
AcDbEntity
  8
ROADS
100
AcDbPolyline
 90
2
 70
0
 10
628899.4585303037
 20
4835712.431520425
 10
628833.0574648386
 20
4835690.395616037
  0
LWPOLYLINE
  5
123
330
17
100
AcDbEntity
  8
ROADS
100
AcDbPolyline
 90
2
 70
0
 10
628951.320892969
 20
4835728.866218214
 10
628899.4585303037
 20
4835712.431520425
  0
LWPOLYLINE
  5
124
330
17
100
AcDbEntity
  8
ROADS
100
AcDbPolyline
 90
2
 70
0
 10
628899.4585303037
 20
4835712.431520425
 10
628885.8262894163
 20
4835755.6499629915
  0
LWPOLYLINE
  5
125
330
17
100
AcDbEntity
  8
ROADS
100
AcDbPolyline
 90
2
 70
0
 10
628988.5335230408
 20
4835740.97748679
 10
628951.320892969
 20
4835728.866218214
  0
LWPOLYLINE
  5
126
330
17
100
AcDbEntity
  8
ROADS
100
AcDbPolyline
 90
2
 70
0
 10
628951.320892969
 20
4835728.866218214
 10
628937.132025664
 20
4835771.508565118
  0
LWPOLYLINE
  5
127
330
17
100
AcDbEntity
  8
ROADS
100
AcDbPolyline
 90
2
 70
0
 10
628937.132025664
 20
4835771.508565118
 10
628885.8262894163
 20
4835755.6499629915
  0
LWPOLYLINE
  5
128
330
17
100
AcDbEntity
  8
ROADS
100
AcDbPolyline
 90
2
 70
0
 10
628885.8262894163
 20
4835755.6499629915
 10
628872.7413674875
 20
4835799.350329226
  0
LWPOLYLINE
  5
129
330
17
100
AcDbEntity
  8
ROADS
100
AcDbPolyline
 90
2
 70
0
 10
628989.6029688924
 20
4835770.308757741
 10
628970.17623689
 20
4835830.251908546
  0
LWPOLYLINE
  5
12A
330
17
100
AcDbEntity
  8
ROADS
100
AcDbPolyline
 90
2
 70
0
 10
628872.7413674875
 20
4835799.350329226
 10
628806.721269225
 20
4835778.756392825
  0
LWPOLYLINE
  5
12B
330
17
100
AcDbEntity
  8
ROADS
100
AcDbPolyline
 90
2
 70
0
 10
628937.132025664
 20
4835771.508565118
 10
628923.5421809145
 20
4835815.423823486
  0
LWPOLYLINE
  5
12C
330
17
100
AcDbEntity
  8
ROADS
100
AcDbPolyline
 90
2
 70
0
 10
628923.5421809145
 20
4835815.423823486
 10
628872.7413674875
 20
4835799.350329226
  0
LWPOLYLINE
  5
12D
330
17
100
AcDbEntity
  8
ROADS
100
AcDbPolyline
 90
2
 70
0
 10
628872.7413674875
 20
4835799.350329226
 10
628859.1917360194
 20
4835842.258237721
  0
LWPOLYLINE
  5
12E
330
17
100
AcDbEntity
  8
ROADS
100
AcDbPolyline
 90
2
 70
0
 10
628970.17623689
 20
4835830.251908546
 10
628923.5421809145
 20
4835815.423823486
  0
LWPOLYLINE
  5
12F
330
17
100
AcDbEntity
  8
ROADS
100
AcDbPolyline
 90
2
 70
0
 10
628923.5421809145
 20
4835815.423823486
 10
628909.9935450803
 20
4835858.331755878
  0
LWPOLYLINE
  5
130
330
17
100
AcDbEntity
  8
ROADS
100
AcDbPolyline
 90
2
 70
0
 10
628909.9935450803
 20
4835858.331755878
 10
628859.1917360194
 20
4835842.258237721
  0
LWPOLYLINE
  5
131
330
17
100
AcDbEntity
  8
ROADS
100
AcDbPolyline
 90
2
 70
0
 10
628859.1917360194
 20
4835842.258237721
 10
628845.4549595658
 20
4835886.168826443
  0
LWPOLYLINE
  5
132
330
17
100
AcDbEntity
  8
ROADS
100
AcDbPolyline
 90
2
 70
0
 10
628970.17623689
 20
4835830.251908546
 10
628943.3502108713
 20
4835917.160758049
  0
LWPOLYLINE
  5
133
330
17
100
AcDbEntity
  8
ROADS
100
AcDbPolyline
 90
2
 70
0
 10
628909.9935450803
 20
4835858.331755878
 10
628898.110679072
 20
4835902.419879541
  0
LWPOLYLINE
  5
134
330
17
100
AcDbEntity
  8
ROADS
100
AcDbPolyline
 90
2
 70
0
 10
628898.110679072
 20
4835902.419879541
 10
628845.4549595658
 20
4835886.168826443
  0
LWPOLYLINE
  5
135
330
17
100
AcDbEntity
  8
ROADS
100
AcDbPolyline
 90
2
 70
0
 10
628943.3502108713
 20
4835917.160758049
 10
628898.110679072
 20
4835902.419879541
  0
LWPOLYLINE
  5
136
330
17
100
AcDbEntity
  8
ROADS
100
AcDbPolyline
 90
2
 70
0
 10
628898.110679072
 20
4835902.419879541
 10
628882.716323537
 20
4835950.061753115
  0
LWPOLYLINE
  5
137
330
17
100
AcDbEntity
  8
ROADS
100
AcDbPolyline
 90
2
 70
0
 10
628973.6928669026
 20
4835926.272099155
 10
628943.3502108713
 20
4835917.160758049
  0
LWPOLYLINE
  5
138
330
17
100
AcDbEntity
  8
ROADS
100
AcDbPolyline
 90
2
 70
0
 10
628882.716323537
 20
4835950.061753115
 10
628825.8821819653
 20
4835932.436058999
  0
LWPOLYLINE
  5
139
330
17
100
AcDbEntity
  8
ROADS
100
AcDbPolyline
 90
2
 70
0
 10
628943.3502108713
 20
4835917.160758049
 10
628913.398843532
 20
4836010.602527753
  0
LWPOLYLINE
  5
13A
330
17
100
AcDbEntity
  8
ROADS
100
AcDbPolyline
 90
2
 70
0
 10
628882.716323537
 20
4835950.061753115
 10
628868.6381315968
 20
4835997.754421234
  0
LWPOLYLINE
  5
13B
330
17
100
AcDbEntity
  8
ROADS
100
AcDbPolyline
 90
2
 70
0
 10
628913.398843532
 20
4836010.602527753
 10
628868.6381315968
 20
4835997.754421234
  0
LWPOLYLINE
  5
13C
330
17
100
AcDbEntity
  8
ROADS
100
AcDbPolyline
 90
2
 70
0
 10
628868.6381315968
 20
4835997.754421234
 10
628853.228349259
 20
4836045.751031285
  0
LWPOLYLINE
  5
13D
330
17
100
AcDbEntity
  8
ROADS
100
AcDbPolyline
 90
2
 70
0
 10
628913.398843532
 20
4836010.602527753
 10
628889.256774253
 20
4836092.211518967
  0
LWPOLYLINE
  5
13E
330
17
100
AcDbEntity
  8
ROADS
100
AcDbPolyline
 90
2
 70
0
 10
628853.228349259
 20
4836045.751031285
 10
628842.812331391
 20
4836078.678915457
  0
LWPOLYLINE
  5
13F
330
17
100
AcDbEntity
  8
ROADS
100
AcDbPolyline
 90
2
 70
0
 10
628923.3199216732
 20
4836102.5182630075
 10
628889.256774253
 20
4836092.211518967
  0
LWPOLYLINE
  5
140
330
17
100
AcDbEntity
  8
ROADS
100
AcDbPolyline
 90
2
 70
0
 10
628889.256774253
 20
4836092.211518967
 10
628872.1470451895
 20
4836148.54995146
  0
LWPOLYLINE
  5
141
330
17
100
AcDbEntity
  8
ROADS
100
AcDbPolyline
 90
2
 70
0
 10
628903.7758207163
 20
4836158.237207969
 10
628872.1470451895
 20
4836148.54995146
  0
LWPOLYLINE
  5
142
330
17
100
AcDbEntity
  8
ROADS
100
AcDbPolyline
 90
2
 70
0
 10
628872.1470451895
 20
4836148.54995146
 10
628830.6988454008
 20
4836281.593463575
  0
LWPOLYLINE
  5
143
330
17
100
AcDbEntity
  8
ROADS
100
AcDbPolyline
 90
2
 70
0
 10
628855.2452598034
 20
4836289.282205386
 10
628830.6988454008
 20
4836281.593463575
  0
LWPOLYLINE
  5
144
330
17
100
AcDbEntity
  8
ROADS
100
AcDbPolyline
 90
2
 70
0
 10
627242.1318165517
 20
4835583.674958043
 10
627200.8475106885
 20
4835570.530533883
  0
LWPOLYLINE
  5
145
330
17
100
AcDbEntity
  8
ROADS
100
AcDbPolyline
 90
2
 70
0
 10
628473.4232313063
 20
4835414.724868879
 10
628425.0572856227
 20
4835570.316726963
  0
LWPOLYLINE
  5
146
330
17
100
AcDbEntity
  8
ROADS
100
AcDbPolyline
 90
2
 70
0
 10
628519.4915379568
 20
4835428.151559513
 10
628470.8635292513
 20
4835583.468681547
  0
LWPOLYLINE
  5
147
330
17
100
AcDbEntity
  8
ROADS
100
AcDbPolyline
 90
2
 70
0
 10
628567.6940205595
 20
4835446.914686879
 10
628520.4798203531
 20
4835596.687522787
  0
LWPOLYLINE
  5
148
330
17
100
AcDbEntity
  8
ROADS
100
AcDbPolyline
 90
2
 70
0
 10
628318.1268849265
 20
4835539.030585314
 10
628267.9204495566
 20
4835522.444872292
  0
LWPOLYLINE
  5
149
330
17
100
AcDbEntity
  8
ROADS
100
AcDbPolyline
 90
2
 70
0
 10
628371.6368306859
 20
4835554.82597258
 10
628318.1268849265
 20
4835539.030585314
  0
LWPOLYLINE
  5
14A
330
17
100
AcDbEntity
  8
ROADS
100
AcDbPolyline
 90
2
 70
0
 10
628425.0572856227
 20
4835570.316726963
 10
628371.6368306859
 20
4835554.82597258
  0
LWPOLYLINE
  5
14B
330
17
100
AcDbEntity
  8
ROADS
100
AcDbPolyline
 90
2
 70
0
 10
628470.8635292513
 20
4835583.468681547
 10
628425.0572856227
 20
4835570.316726963
  0
LWPOLYLINE
  5
14C
330
17
100
AcDbEntity
  8
ROADS
100
AcDbPolyline
 90
2
 70
0
 10
628520.4798203531
 20
4835596.687522787
 10
628470.8635292513
 20
4835583.468681547
  0
LWPOLYLINE
  5
14D
330
17
100
AcDbEntity
  8
ROADS
100
AcDbPolyline
 90
2
 70
0
 10
628570.4374880156
 20
4835609.7765307315
 10
628520.4798203531
 20
4835596.687522787
  0
LWPOLYLINE
  5
14E
330
17
100
AcDbEntity
  8
ROADS
100
AcDbPolyline
 90
2
 70
0
 10
628470.8635292513
 20
4835583.468681547
 10
628448.5899177054
 20
4835655.607750831
  0
LWPOLYLINE
  5
14F
330
17
100
AcDbEntity
  8
ROADS
100
AcDbPolyline
 90
2
 70
0
 10
628183.0064964935
 20
4835455.3704502
 10
628170.8640550573
 20
4835493.132388854
  0
LWPOLYLINE
  5
150
330
17
100
AcDbEntity
  8
ROADS
100
AcDbPolyline
 90
2
 70
0
 10
628170.8640550573
 20
4835493.132388854
 10
628121.898604576
 20
4835478.157228116
  0
LWPOLYLINE
  5
151
330
17
100
AcDbEntity
  8
ROADS
100
AcDbPolyline
 90
2
 70
0
 10
628220.5457368623
 20
4835508.595533552
 10
628170.8640550573
 20
4835493.132388854
  0
LWPOLYLINE
  5
152
330
17
100
AcDbEntity
  8
ROADS
100
AcDbPolyline
 90
2
 70
0
 10
628023.9372791399
 20
4835449.116427911
 10
627984.1079923132
 20
4835576.438583441
  0
LWPOLYLINE
  5
153
330
17
100
AcDbEntity
  8
ROADS
100
AcDbPolyline
 90
2
 70
0
 10
628267.9204495566
 20
4835522.444872292
 10
628220.5457368623
 20
4835508.595533552
  0
LWPOLYLINE
  5
154
330
17
100
AcDbEntity
  8
ROADS
100
AcDbPolyline
 90
2
 70
0
 10
628121.898604576
 20
4835478.157228116
 10
628082.3367818393
 20
4835605.951283422
  0
LWPOLYLINE
  5
155
330
17
100
AcDbEntity
  8
ROADS
100
AcDbPolyline
 90
2
 70
0
 10
628170.8640550573
 20
4835493.132388854
 10
628131.3046621241
 20
4835620.625485691
  0
LWPOLYLINE
  5
156
330
17
100
AcDbEntity
  8
ROADS
100
AcDbPolyline
 90
2
 70
0
 10
628220.5457368623
 20
4835508.595533552
 10
628180.4599718995
 20
4835635.830114916
  0
LWPOLYLINE
  5
157
330
17
100
AcDbEntity
  8
ROADS
100
AcDbPolyline
 90
2
 70
0
 10
628082.3367818393
 20
4835605.951283422
 10
627984.1079923132
 20
4835576.438583441
  0
LWPOLYLINE
  5
158
330
17
100
AcDbEntity
  8
ROADS
100
AcDbPolyline
 90
2
 70
0
 10
628131.3046621241
 20
4835620.625485691
 10
628082.3367818393
 20
4835605.951283422
  0
LWPOLYLINE
  5
159
330
17
100
AcDbEntity
  8
ROADS
100
AcDbPolyline
 90
2
 70
0
 10
628789.0767407895
 20
4835560.614862583
 10
628769.9643994373
 20
4835621.797422662
  0
LWPOLYLINE
  5
15A
330
17
100
AcDbEntity
  8
ROADS
100
AcDbPolyline
 90
2
 70
0
 10
628669.7336621387
 20
4835591.212398367
 10
628708.1489786223
 20
4835603.228674738
  0
LWPOLYLINE
  5
15B
330
17
100
AcDbEntity
  8
ROADS
100
AcDbPolyline
 90
2
 70
0
 10
628631.0260696434
 20
4835580.150904051
 10
628616.931755116
 20
4835624.9220662005
  0
LWPOLYLINE
  5
15C
330
17
100
AcDbEntity
  8
ROADS
100
AcDbPolyline
 90
2
 70
0
 10
628769.9643994373
 20
4835621.797422662
 10
628708.1489786223
 20
4835603.228674738
  0
LWPOLYLINE
  5
15D
330
17
100
AcDbEntity
  8
ROADS
100
AcDbPolyline
 90
2
 70
0
 10
628616.931755116
 20
4835624.9220662005
 10
628570.4374880156
 20
4835609.7765307315
  0
LWPOLYLINE
  5
15E
330
17
100
AcDbEntity
  8
ROADS
100
AcDbPolyline
 90
2
 70
0
 10
628708.1489786223
 20
4835603.228674738
 10
628693.6259104895
 20
4835648.482127155
  0
LWPOLYLINE
  5
15F
330
17
100
AcDbEntity
  8
ROADS
100
AcDbPolyline
 90
2
 70
0
 10
628693.6259104895
 20
4835648.482127155
 10
628616.931755116
 20
4835624.9220662005
  0
LWPOLYLINE
  5
160
330
17
100
AcDbEntity
  8
ROADS
100
AcDbPolyline
 90
2
 70
0
 10
628769.9643994373
 20
4835621.797422662
 10
628756.3784196577
 20
4835667.878878829
  0
LWPOLYLINE
  5
161
330
17
100
AcDbEntity
  8
ROADS
100
AcDbPolyline
 90
2
 70
0
 10
628616.931755116
 20
4835624.9220662005
 10
628599.7787150698
 20
4835674.534247746
  0
LWPOLYLINE
  5
162
330
17
100
AcDbEntity
  8
ROADS
100
AcDbPolyline
 90
2
 70
0
 10
628756.3784196577
 20
4835667.878878829
 10
628693.6259104895
 20
4835648.482127155
  0
LWPOLYLINE
  5
163
330
17
100
AcDbEntity
  8
ROADS
100
AcDbPolyline
 90
2
 70
0
 10
628520.4798203531
 20
4835596.687522787
 10
628496.9782410088
 20
4835672.8026638
  0
LWPOLYLINE
  5
164
330
17
100
AcDbEntity
  8
ROADS
100
AcDbPolyline
 90
2
 70
0
 10
628425.0572856227
 20
4835570.316726963
 10
628370.814843838
 20
4835743.94348234
  0
LWPOLYLINE
  5
165
330
17
100
AcDbEntity
  8
ROADS
100
AcDbPolyline
 90
2
 70
0
 10
628448.5899177054
 20
4835655.607750831
 10
628496.9782410088
 20
4835672.8026638
  0
LWPOLYLINE
  5
166
330
17
100
AcDbEntity
  8
ROADS
100
AcDbPolyline
 90
2
 70
0
 10
628448.5899177054
 20
4835655.607750831
 10
628416.7368072893
 20
4835757.995609774
  0
LWPOLYLINE
  5
167
330
17
100
AcDbEntity
  8
ROADS
100
AcDbPolyline
 90
2
 70
0
 10
628496.9782410088
 20
4835672.8026638
 10
628466.3456526386
 20
4835772.676436344
  0
LWPOLYLINE
  5
168
330
17
100
AcDbEntity
  8
ROADS
100
AcDbPolyline
 90
2
 70
0
 10
628416.7368072893
 20
4835757.995609774
 10
628370.814843838
 20
4835743.94348234
  0
LWPOLYLINE
  5
169
330
17
100
AcDbEntity
  8
ROADS
100
AcDbPolyline
 90
2
 70
0
 10
628466.3456526386
 20
4835772.676436344
 10
628416.7368072893
 20
4835757.995609774
  0
LWPOLYLINE
  5
16A
330
17
100
AcDbEntity
  8
ROADS
100
AcDbPolyline
 90
2
 70
0
 10
628508.0142378114
 20
4835785.130570537
 10
628466.3456526386
 20
4835772.676436344
  0
LWPOLYLINE
  5
16B
330
17
100
AcDbEntity
  8
ROADS
100
AcDbPolyline
 90
2
 70
0
 10
628370.814843838
 20
4835743.94348234
 10
628344.254476045
 20
4835825.344625503
  0
LWPOLYLINE
  5
16C
330
17
100
AcDbEntity
  8
ROADS
100
AcDbPolyline
 90
2
 70
0
 10
628562.0997688298
 20
4835801.726464314
 10
628508.0142378114
 20
4835785.130570537
  0
LWPOLYLINE
  5
16D
330
17
100
AcDbEntity
  8
ROADS
100
AcDbPolyline
 90
2
 70
0
 10
628180.4599718995
 20
4835635.830114916
 10
628131.3046621241
 20
4835620.625485691
  0
LWPOLYLINE
  5
16E
330
17
100
AcDbEntity
  8
ROADS
100
AcDbPolyline
 90
2
 70
0
 10
628082.3367818393
 20
4835605.951283422
 10
628042.0766308628
 20
4835733.426664058
  0
LWPOLYLINE
  5
16F
330
17
100
AcDbEntity
  8
ROADS
100
AcDbPolyline
 90
2
 70
0
 10
628131.3046621241
 20
4835620.625485691
 10
628091.488872503
 20
4835749.520008431
  0
LWPOLYLINE
  5
170
330
17
100
AcDbEntity
  8
ROADS
100
AcDbPolyline
 90
2
 70
0
 10
628180.4599718995
 20
4835635.830114916
 10
628140.2325865354
 20
4835763.815154917
  0
LWPOLYLINE
  5
171
330
17
100
AcDbEntity
  8
ROADS
100
AcDbPolyline
 90
2
 70
0
 10
628042.0766308628
 20
4835733.426664058
 10
627993.823307246
 20
4835719.112390268
  0
LWPOLYLINE
  5
172
330
17
100
AcDbEntity
  8
ROADS
100
AcDbPolyline
 90
2
 70
0
 10
628091.488872503
 20
4835749.520008431
 10
628042.0766308628
 20
4835733.426664058
  0
LWPOLYLINE
  5
173
330
17
100
AcDbEntity
  8
ROADS
100
AcDbPolyline
 90
2
 70
0
 10
628140.2325865354
 20
4835763.815154917
 10
628091.488872503
 20
4835749.520008431
  0
LWPOLYLINE
  5
174
330
17
100
AcDbEntity
  8
ROADS
100
AcDbPolyline
 90
2
 70
0
 10
628193.6566885305
 20
4835779.876035581
 10
628140.2325865354
 20
4835763.815154917
  0
LWPOLYLINE
  5
175
330
17
100
AcDbEntity
  8
ROADS
100
AcDbPolyline
 90
2
 70
0
 10
628238.0755583919
 20
4835794.369015486
 10
628193.6566885305
 20
4835779.876035581
  0
LWPOLYLINE
  5
176
330
17
100
AcDbEntity
  8
ROADS
100
AcDbPolyline
 90
2
 70
0
 10
628291.8644937001
 20
4835809.777458661
 10
628238.0755583919
 20
4835794.369015486
  0
LWPOLYLINE
  5
177
330
17
100
AcDbEntity
  8
ROADS
100
AcDbPolyline
 90
2
 70
0
 10
628693.6259104895
 20
4835648.482127155
 10
628679.7038444681
 20
4835695.175536452
  0
LWPOLYLINE
  5
178
330
17
100
AcDbEntity
  8
ROADS
100
AcDbPolyline
 90
2
 70
0
 10
628783.4654072798
 20
4835676.470140396
 10
628756.3784196577
 20
4835667.878878829
  0
LWPOLYLINE
  5
179
330
17
100
AcDbEntity
  8
ROADS
100
AcDbPolyline
 90
2
 70
0
 10
628833.0574648386
 20
4835690.395616037
 10
628783.4654072798
 20
4835676.470140396
  0
LWPOLYLINE
  5
17A
330
17
100
AcDbEntity
  8
ROADS
100
AcDbPolyline
 90
2
 70
0
 10
628756.3784196577
 20
4835667.878878829
 10
628742.3638281112
 20
4835714.047588515
  0
LWPOLYLINE
  5
17B
330
17
100
AcDbEntity
  8
ROADS
100
AcDbPolyline
 90
3
 70
0
 10
628783.4654072798
 20
4835676.470140396
 10
628767.9061281411
 20
4835722.200898604
 10
628742.3638281112
 20
4835714.047588515
  0
LWPOLYLINE
  5
17C
330
17
100
AcDbEntity
  8
ROADS
100
AcDbPolyline
 90
2
 70
0
 10
628742.3638281112
 20
4835714.047588515
 10
628679.7038444681
 20
4835695.175536452
  0
LWPOLYLINE
  5
17D
330
17
100
AcDbEntity
  8
ROADS
100
AcDbPolyline
 90
2
 70
0
 10
628833.0574648386
 20
4835690.395616037
 10
628806.721269225
 20
4835778.756392825
  0
LWPOLYLINE
  5
17E
330
17
100
AcDbEntity
  8
ROADS
100
AcDbPolyline
 90
2
 70
0
 10
628599.7787150698
 20
4835674.534247746
 10
628562.0997688298
 20
4835801.726464314
  0
LWPOLYLINE
  5
17F
330
17
100
AcDbEntity
  8
ROADS
100
AcDbPolyline
 90
3
 70
0
 10
628599.7787150698
 20
4835674.534247746
 10
628639.5790442686
 20
4835684.231083296
 10
628602.4689905676
 20
4835810.545874233
  0
LWPOLYLINE
  5
180
330
17
100
AcDbEntity
  8
ROADS
100
AcDbPolyline
 90
2
 70
0
 10
628679.7038444681
 20
4835695.175536452
 10
628639.7143252455
 20
4835822.556021194
  0
LWPOLYLINE
  5
181
330
17
100
AcDbEntity
  8
ROADS
100
AcDbPolyline
 90
2
 70
0
 10
628742.3638281112
 20
4835714.047588515
 10
628702.6834702368
 20
4835842.5257571945
  0
LWPOLYLINE
  5
182
330
17
100
AcDbEntity
  8
ROADS
100
AcDbPolyline
 90
2
 70
0
 10
628602.4689905676
 20
4835810.545874233
 10
628562.0997688298
 20
4835801.726464314
  0
LWPOLYLINE
  5
183
330
17
100
AcDbEntity
  8
ROADS
100
AcDbPolyline
 90
2
 70
0
 10
628639.7143252455
 20
4835822.556021194
 10
628602.4689905676
 20
4835810.545874233
  0
LWPOLYLINE
  5
184
330
17
100
AcDbEntity
  8
ROADS
100
AcDbPolyline
 90
2
 70
0
 10
628562.0997688298
 20
4835801.726464314
 10
628551.1628035996
 20
4835835.646974286
  0
LWPOLYLINE
  5
185
330
17
100
AcDbEntity
  8
ROADS
100
AcDbPolyline
 90
2
 70
0
 10
628806.721269225
 20
4835778.756392825
 10
628779.4522123238
 20
4835865.390175856
  0
LWPOLYLINE
  5
186
330
17
100
AcDbEntity
  8
ROADS
100
AcDbPolyline
 90
2
 70
0
 10
628602.4689905676
 20
4835810.545874233
 10
628589.8289074836
 20
4835848.227846011
  0
LWPOLYLINE
  5
187
330
17
100
AcDbEntity
  8
ROADS
100
AcDbPolyline
 90
2
 70
0
 10
628702.6834702368
 20
4835842.5257571945
 10
628639.7143252455
 20
4835822.556021194
  0
LWPOLYLINE
  5
188
330
17
100
AcDbEntity
  8
ROADS
100
AcDbPolyline
 90
2
 70
0
 10
628589.8289074836
 20
4835848.227846011
 10
628551.1628035996
 20
4835835.646974286
  0
LWPOLYLINE
  5
189
330
17
100
AcDbEntity
  8
ROADS
100
AcDbPolyline
 90
2
 70
0
 10
628727.1544654316
 20
4835849.806650148
 10
628702.6834702368
 20
4835842.5257571945
  0
LWPOLYLINE
  5
18A
330
17
100
AcDbEntity
  8
ROADS
100
AcDbPolyline
 90
2
 70
0
 10
628779.4522123238
 20
4835865.390175856
 10
628727.1544654316
 20
4835849.806650148
  0
LWPOLYLINE
  5
18B
330
17
100
AcDbEntity
  8
ROADS
100
AcDbPolyline
 90
2
 70
0
 10
628042.0766308628
 20
4835733.426664058
 10
627998.5527404033
 20
4835876.693025257
  0
LWPOLYLINE
  5
18C
330
17
100
AcDbEntity
  8
ROADS
100
AcDbPolyline
 90
2
 70
0
 10
628140.2325865354
 20
4835763.815154917
 10
628096.0589516428
 20
4835906.012738602
  0
LWPOLYLINE
  5
18D
330
17
100
AcDbEntity
  8
ROADS
100
AcDbPolyline
 90
2
 70
0
 10
628193.6566885305
 20
4835779.876035581
 10
628144.2482505345
 20
4835921.821982749
  0
LWPOLYLINE
  5
18E
330
17
100
AcDbEntity
  8
ROADS
100
AcDbPolyline
 90
2
 70
0
 10
628238.0755583919
 20
4835794.369015486
 10
628193.1397572837
 20
4835939.116023054
  0
LWPOLYLINE
  5
18F
330
17
100
AcDbEntity
  8
ROADS
100
AcDbPolyline
 90
2
 70
0
 10
628096.0589516428
 20
4835906.012738602
 10
627998.5527404033
 20
4835876.693025257
  0
LWPOLYLINE
  5
190
330
17
100
AcDbEntity
  8
ROADS
100
AcDbPolyline
 90
2
 70
0
 10
628144.2482505345
 20
4835921.821982749
 10
628096.0589516428
 20
4835906.012738602
  0
LWPOLYLINE
  5
191
330
17
100
AcDbEntity
  8
ROADS
100
AcDbPolyline
 90
2
 70
0
 10
628096.0589516428
 20
4835906.012738602
 10
628082.9481210046
 20
4835947.385377388
  0
LWPOLYLINE
  5
192
330
17
100
AcDbEntity
  8
ROADS
100
AcDbPolyline
 90
2
 70
0
 10
628193.1397572837
 20
4835939.116023054
 10
628144.2482505345
 20
4835921.821982749
  0
LWPOLYLINE
  5
193
330
17
100
AcDbEntity
  8
ROADS
100
AcDbPolyline
 90
3
 70
0
 10
628313.8551116873
 20
4835927.445201058
 10
628259.2125711906
 20
4835915.30301817
 10
628246.0883203568
 20
4835955.260342124
  0
LWPOLYLINE
  5
194
330
17
100
AcDbEntity
  8
ROADS
100
AcDbPolyline
 90
3
 70
0
 10
627984.2679898492
 20
4835924.860866294
 10
628021.6717163832
 20
4835936.126820749
 10
628024.4346836729
 20
4835958.4292091355
  0
LWPOLYLINE
  5
195
330
17
100
AcDbEntity
  8
ROADS
100
AcDbPolyline
 90
2
 70
0
 10
628344.254476045
 20
4835825.344625503
 10
628291.8644937001
 20
4835809.777458661
  0
LWPOLYLINE
  5
196
330
17
100
AcDbEntity
  8
ROADS
100
AcDbPolyline
 90
2
 70
0
 10
628416.7368072893
 20
4835757.995609774
 10
628360.9132064176
 20
4835936.930093168
  0
LWPOLYLINE
  5
197
330
17
100
AcDbEntity
  8
ROADS
100
AcDbPolyline
 90
3
 70
0
 10
628291.8644937001
 20
4835809.777458661
 10
628271.0469492894
 20
4835877.767529242
 10
628324.3052141783
 20
4835893.598420802
  0
LWPOLYLINE
  5
198
330
17
100
AcDbEntity
  8
ROADS
100
AcDbPolyline
 90
2
 70
0
 10
628344.254476045
 20
4835825.344625503
 10
628324.3052141783
 20
4835893.598420802
  0
LWPOLYLINE
  5
199
330
17
100
AcDbEntity
  8
ROADS
100
AcDbPolyline
 90
2
 70
0
 10
628466.3456526386
 20
4835772.676436344
 10
628408.6533339316
 20
4835953.468280693
  0
LWPOLYLINE
  5
19A
330
17
100
AcDbEntity
  8
ROADS
100
AcDbPolyline
 90
2
 70
0
 10
628508.0142378114
 20
4835785.130570537
 10
628459.4981306532
 20
4835969.538572324
  0
LWPOLYLINE
  5
19B
330
17
100
AcDbEntity
  8
ROADS
100
AcDbPolyline
 90
2
 70
0
 10
628551.1628035996
 20
4835835.646974286
 10
628504.6180431333
 20
4835982.595168169
  0
LWPOLYLINE
  5
19C
330
17
100
AcDbEntity
  8
ROADS
100
AcDbPolyline
 90
2
 70
0
 10
628324.3052141783
 20
4835893.598420802
 10
628313.8551116873
 20
4835927.445201058
  0
LWPOLYLINE
  5
19D
330
17
100
AcDbEntity
  8
ROADS
100
AcDbPolyline
 90
2
 70
0
 10
628360.9132064176
 20
4835936.930093168
 10
628313.8551116873
 20
4835927.445201058
  0
LWPOLYLINE
  5
19E
330
17
100
AcDbEntity
  8
ROADS
100
AcDbPolyline
 90
2
 70
0
 10
628408.6533339316
 20
4835953.468280693
 10
628360.9132064176
 20
4835936.930093168
  0
LWPOLYLINE
  5
19F
330
17
100
AcDbEntity
  8
ROADS
100
AcDbPolyline
 90
2
 70
0
 10
628702.6834702368
 20
4835842.5257571945
 10
628690.2984323098
 20
4835881.920463771
  0
LWPOLYLINE
  5
1A0
330
17
100
AcDbEntity
  8
ROADS
100
AcDbPolyline
 90
3
 70
0
 10
628727.1544654316
 20
4835849.806650148
 10
628715.0474062718
 20
4835889.3693961
 10
628690.2984323098
 20
4835881.920463771
  0
LWPOLYLINE
  5
1A1
330
17
100
AcDbEntity
  8
ROADS
100
AcDbPolyline
 90
2
 70
0
 10
628845.4549595658
 20
4835886.168826443
 10
628779.4522123238
 20
4835865.390175856
  0
LWPOLYLINE
  5
1A2
330
17
100
AcDbEntity
  8
ROADS
100
AcDbPolyline
 90
2
 70
0
 10
628779.4522123238
 20
4835865.390175856
 10
628747.1650564764
 20
4835961.855375983
  0
LWPOLYLINE
  5
1A3
330
17
100
AcDbEntity
  8
ROADS
100
AcDbPolyline
 90
2
 70
0
 10
628589.8289074836
 20
4835848.227846011
 10
628545.3199017938
 20
4835988.448416759
  0
LWPOLYLINE
  5
1A4
330
17
100
AcDbEntity
  8
ROADS
100
AcDbPolyline
 90
2
 70
0
 10
628639.7143252455
 20
4835822.556021194
 10
628564.3174001796
 20
4836052.596113104
  0
LWPOLYLINE
  5
1A5
330
17
100
AcDbEntity
  8
ROADS
100
AcDbPolyline
 90
2
 70
0
 10
628690.2984323098
 20
4835881.920463771
 10
628631.3793064569
 20
4836072.205359813
  0
LWPOLYLINE
  5
1A6
330
17
100
AcDbEntity
  8
ROADS
100
AcDbPolyline
 90
2
 70
0
 10
628868.6381315968
 20
4835997.754421234
 10
628747.1650564764
 20
4835961.855375983
  0
LWPOLYLINE
  5
1A7
330
17
100
AcDbEntity
  8
ROADS
100
AcDbPolyline
 90
2
 70
0
 10
628747.1650564764
 20
4835961.855375983
 10
628686.461781468
 20
4836089.250860033
  0
LWPOLYLINE
  5
1A8
330
17
100
AcDbEntity
  8
ROADS
100
AcDbPolyline
 90
2
 70
0
 10
628853.228349259
 20
4836045.751031285
 10
628796.1228835839
 20
4836027.534377554
  0
LWPOLYLINE
  5
1A9
330
17
100
AcDbEntity
  8
ROADS
100
AcDbPolyline
 90
2
 70
0
 10
627242.1318165517
 20
4835583.674958043
 10
627202.0457579995
 20
4835566.732671678
  0
LWPOLYLINE
  5
1AA
330
17
100
AcDbEntity
  8
ROADS
100
AcDbPolyline
 90
2
 70
0
 10
627225.0517217477
 20
4835629.173501161
 10
627188.3624452797
 20
4835617.224865666
  0
LWPOLYLINE
  5
1AB
330
17
100
AcDbEntity
  8
ROADS
100
AcDbPolyline
 90
2
 70
0
 10
627208.4135946953
 20
4835678.4087613
 10
627176.6301516136
 20
4835665.599652712
  0
LWPOLYLINE
  5
1AC
330
17
100
AcDbEntity
  8
ROADS
100
AcDbPolyline
 90
2
 70
0
 10
627208.4135946953
 20
4835678.4087613
 10
627214.3340881281
 20
4835689.796500617
  0
LWPOLYLINE
  5
1AD
330
17
100
AcDbEntity
  8
ROADS
100
AcDbPolyline
 90
2
 70
0
 10
627214.3340881281
 20
4835689.796500617
 10
627204.0210509282
 20
4835722.675092486
  0
LWPOLYLINE
  5
1AE
330
17
100
AcDbEntity
  8
ROADS
100
AcDbPolyline
 90
2
 70
0
 10
627208.4135946953
 20
4835678.4087613
 10
627171.4424757083
 20
4835787.810144646
  0
LWPOLYLINE
  5
1AF
330
17
100
AcDbEntity
  8
ROADS
100
AcDbPolyline
 90
2
 70
0
 10
627204.0210509282
 20
4835722.675092486
 10
627182.4011754252
 20
4835790.18741216
  0
LWPOLYLINE
  5
1B0
330
17
100
AcDbEntity
  8
ROADS
100
AcDbPolyline
 90
2
 70
0
 10
627171.4424757083
 20
4835787.810144646
 10
627182.4011754252
 20
4835790.18741216
  0
LWPOLYLINE
  5
1B1
330
17
100
AcDbEntity
  8
ROADS
100
AcDbPolyline
 90
2
 70
0
 10
627171.4424757083
 20
4835787.810144646
 10
627152.8613151276
 20
4835845.774535928
  0
LWPOLYLINE
  5
1B2
330
17
100
AcDbEntity
  8
ROADS
100
AcDbPolyline
 90
2
 70
0
 10
627155.6576882636
 20
4835930.724348572
 10
627173.3437405783
 20
4835958.773092256
  0
LWPOLYLINE
  5
1B3
330
17
100
AcDbEntity
  8
ROADS
100
AcDbPolyline
 90
4
 70
0
 10
627224.1396469425
 20
4835975.490485006
 10
627194.7830825709
 20
4835951.139228555
 10
627214.2928790402
 20
4835951.327963895
 10
627231.7614302175
 20
4835892.118110353
  0
LWPOLYLINE
  5
1B4
330
17
100
AcDbEntity
  8
ROADS
100
AcDbPolyline
 90
2
 70
0
 10
627173.3437405783
 20
4835958.773092256
 10
627158.7339270543
 20
4835954.012402151
  0
LWPOLYLINE
  5
1B5
330
17
100
AcDbEntity
  8
ROADS
100
AcDbPolyline
 90
2
 70
0
 10
627224.1396469425
 20
4835975.490485006
 10
627173.3437405783
 20
4835958.773092256
  0
LWPOLYLINE
  5
1B6
330
17
100
AcDbEntity
  8
ROADS
100
AcDbPolyline
 90
2
 70
0
 10
627224.1396469425
 20
4835975.490485006
 10
627205.5395390901
 20
4836034.532864689
  0
LWPOLYLINE
  5
1B7
330
17
100
AcDbEntity
  8
ROADS
100
AcDbPolyline
 90
2
 70
0
 10
627205.5395390901
 20
4836034.532864689
 10
627169.2585131289
 20
4836021.604700724
  0
LWPOLYLINE
  5
1B8
330
17
100
AcDbEntity
  8
ROADS
100
AcDbPolyline
 90
2
 70
0
 10
627225.0517217477
 20
4835629.173501161
 10
627208.4135946953
 20
4835678.4087613
  0
LWPOLYLINE
  5
1B9
330
17
100
AcDbEntity
  8
ROADS
100
AcDbPolyline
 90
2
 70
0
 10
627319.9397669721
 20
4835669.102407045
 10
627316.8513665872
 20
4835658.382905991
  0
LWPOLYLINE
  5
1BA
330
17
100
AcDbEntity
  8
ROADS
100
AcDbPolyline
 90
2
 70
0
 10
627370.2385428534
 20
4835675.594136907
 10
627316.8513665872
 20
4835658.382905991
  0
LWPOLYLINE
  5
1BB
330
17
100
AcDbEntity
  8
ROADS
100
AcDbPolyline
 90
2
 70
0
 10
627272.8407768682
 20
4835681.772716921
 10
627319.9397669721
 20
4835669.102407045
  0
LWPOLYLINE
  5
1BC
330
17
100
AcDbEntity
  8
ROADS
100
AcDbPolyline
 90
2
 70
0
 10
627208.4135946953
 20
4835678.4087613
 10
627238.4756128658
 20
4835690.91968024
  0
LWPOLYLINE
  5
1BD
330
17
100
AcDbEntity
  8
ROADS
100
AcDbPolyline
 90
2
 70
0
 10
627238.4756128658
 20
4835690.91968024
 10
627272.8407768682
 20
4835681.772716921
  0
LWPOLYLINE
  5
1BE
330
17
100
AcDbEntity
  8
ROADS
100
AcDbPolyline
 90
2
 70
0
 10
627214.3340881281
 20
4835689.796500617
 10
627238.4756128658
 20
4835690.91968024
  0
LWPOLYLINE
  5
1BF
330
17
100
AcDbEntity
  8
ROADS
100
AcDbPolyline
 90
2
 70
0
 10
627479.4216013309
 20
4835710.872214439
 10
627370.2385428534
 20
4835675.594136907
  0
LWPOLYLINE
  5
1C0
330
17
100
AcDbEntity
  8
ROADS
100
AcDbPolyline
 90
2
 70
0
 10
627319.9397669721
 20
4835669.102407045
 10
627331.5368538122
 20
4835723.207186226
  0
LWPOLYLINE
  5
1C1
330
17
100
AcDbEntity
  8
ROADS
100
AcDbPolyline
 90
2
 70
0
 10
627272.8407768682
 20
4835681.772716921
 10
627285.4615552942
 20
4835710.7576840045
  0
LWPOLYLINE
  5
1C2
330
17
100
AcDbEntity
  8
ROADS
100
AcDbPolyline
 90
2
 70
0
 10
627285.4615552942
 20
4835710.7576840045
 10
627238.4756128658
 20
4835690.91968024
  0
LWPOLYLINE
  5
1C3
330
17
100
AcDbEntity
  8
ROADS
100
AcDbPolyline
 90
2
 70
0
 10
627652.2050442508
 20
4835619.8491340745
 10
627633.8275181954
 20
4835687.187156356
  0
LWPOLYLINE
  5
1C4
330
17
100
AcDbEntity
  8
ROADS
100
AcDbPolyline
 90
2
 70
0
 10
627590.3089837756
 20
4835673.844564648
 10
627543.9125634795
 20
4835659.600891929
  0
LWPOLYLINE
  5
1C5
330
17
100
AcDbEntity
  8
ROADS
100
AcDbPolyline
 90
3
 70
0
 10
627496.3500577307
 20
4835670.415715911
 10
627536.9246219302
 20
4835682.9160281
 10
627543.9125634795
 20
4835659.600891929
  0
LWPOLYLINE
  5
1C6
330
17
100
AcDbEntity
  8
ROADS
100
AcDbPolyline
 90
2
 70
0
 10
627633.8275181954
 20
4835687.187156356
 10
627590.3089837756
 20
4835673.844564648
  0
LWPOLYLINE
  5
1C7
330
17
100
AcDbEntity
  8
ROADS
100
AcDbPolyline
 90
2
 70
0
 10
627590.3089837756
 20
4835673.844564648
 10
627583.7447636263
 20
4835695.01922904
  0
LWPOLYLINE
  5
1C8
330
17
100
AcDbEntity
  8
ROADS
100
AcDbPolyline
 90
2
 70
0
 10
627496.3500577307
 20
4835670.415715911
 10
627479.4216013309
 20
4835710.872214439
  0
LWPOLYLINE
  5
1C9
330
17
100
AcDbEntity
  8
ROADS
100
AcDbPolyline
 90
2
 70
0
 10
627583.7447636263
 20
4835695.01922904
 10
627570.4937936962
 20
4835690.933413477
  0
LWPOLYLINE
  5
1CA
330
17
100
AcDbEntity
  8
ROADS
100
AcDbPolyline
 90
2
 70
0
 10
627633.8275181954
 20
4835687.187156356
 10
627627.0415687683
 20
4835709.562890622
  0
LWPOLYLINE
  5
1CB
330
17
100
AcDbEntity
  8
ROADS
100
AcDbPolyline
 90
2
 70
0
 10
627627.0415687683
 20
4835709.562890622
 10
627583.7447636263
 20
4835695.01922904
  0
LWPOLYLINE
  5
1CC
330
17
100
AcDbEntity
  8
ROADS
100
AcDbPolyline
 90
2
 70
0
 10
627747.2104862974
 20
4835644.994268838
 10
627709.4396329392
 20
4835783.820907488
  0
LWPOLYLINE
  5
1CD
330
17
100
AcDbEntity
  8
ROADS
100
AcDbPolyline
 90
2
 70
0
 10
627796.3972279086
 20
4835659.729423545
 10
627747.2104862974
 20
4835644.994268838
  0
LWPOLYLINE
  5
1CE
330
17
100
AcDbEntity
  8
ROADS
100
AcDbPolyline
 90
2
 70
0
 10
627845.5114222219
 20
4835674.55027639
 10
627796.3972279086
 20
4835659.729423545
  0
LWPOLYLINE
  5
1CF
330
17
100
AcDbEntity
  8
ROADS
100
AcDbPolyline
 90
2
 70
0
 10
627891.3695087864
 20
4835688.536214511
 10
627845.5114222219
 20
4835674.55027639
  0
LWPOLYLINE
  5
1D0
330
17
100
AcDbEntity
  8
ROADS
100
AcDbPolyline
 90
2
 70
0
 10
627943.8362639112
 20
4835704.057729871
 10
627891.3695087864
 20
4835688.536214511
  0
LWPOLYLINE
  5
1D1
330
17
100
AcDbEntity
  8
ROADS
100
AcDbPolyline
 90
2
 70
0
 10
627796.3972279086
 20
4835659.729423545
 10
627759.4078154452
 20
4835748.235341817
  0
LWPOLYLINE
  5
1D2
330
17
100
AcDbEntity
  8
ROADS
100
AcDbPolyline
 90
2
 70
0
 10
627993.823307246
 20
4835719.112390268
 10
627943.8362639112
 20
4835704.057729871
  0
LWPOLYLINE
  5
1D3
330
17
100
AcDbEntity
  8
ROADS
100
AcDbPolyline
 90
2
 70
0
 10
627845.5114222219
 20
4835674.55027639
 10
627816.8957091202
 20
4835766.08878525
  0
LWPOLYLINE
  5
1D4
330
17
100
AcDbEntity
  8
ROADS
100
AcDbPolyline
 90
3
 70
0
 10
627891.3695087864
 20
4835688.536214511
 10
627864.3631371242
 20
4835780.724871256
 10
627816.8957091202
 20
4835766.08878525
  0
LWPOLYLINE
  5
1D5
330
17
100
AcDbEntity
  8
ROADS
100
AcDbPolyline
 90
2
 70
0
 10
627993.823307246
 20
4835719.112390268
 10
627966.1296826608
 20
4835809.873556534
  0
LWPOLYLINE
  5
1D6
330
17
100
AcDbEntity
  8
ROADS
100
AcDbPolyline
 90
2
 70
0
 10
627943.8362639112
 20
4835704.057729871
 10
627899.4814256955
 20
4835845.604919828
  0
LWPOLYLINE
  5
1D7
330
17
100
AcDbEntity
  8
ROADS
100
AcDbPolyline
 90
2
 70
0
 10
627370.2385428534
 20
4835675.594136907
 10
627354.7178234797
 20
4835732.056068319
  0
LWPOLYLINE
  5
1D8
330
17
100
AcDbEntity
  8
ROADS
100
AcDbPolyline
 90
2
 70
0
 10
627238.4756128658
 20
4835690.91968024
 10
627204.0210509282
 20
4835722.675092486
  0
LWPOLYLINE
  5
1D9
330
17
100
AcDbEntity
  8
ROADS
100
AcDbPolyline
 90
2
 70
0
 10
627285.4615552942
 20
4835710.7576840045
 10
627331.5368538122
 20
4835723.207186226
  0
LWPOLYLINE
  5
1DA
330
17
100
AcDbEntity
  8
ROADS
100
AcDbPolyline
 90
2
 70
0
 10
627331.5368538122
 20
4835723.207186226
 10
627354.7178234797
 20
4835732.056068319
  0
LWPOLYLINE
  5
1DB
330
17
100
AcDbEntity
  8
ROADS
100
AcDbPolyline
 90
2
 70
0
 10
627479.4216013309
 20
4835710.872214439
 10
627423.4653554751
 20
4835756.270446421
  0
LWPOLYLINE
  5
1DC
330
17
100
AcDbEntity
  8
ROADS
100
AcDbPolyline
 90
3
 70
0
 10
627285.4615552942
 20
4835710.7576840045
 10
627316.7597260708
 20
4835735.360042882
 10
627301.4177019722
 20
4835762.96539749
  0
LWPOLYLINE
  5
1DD
330
17
100
AcDbEntity
  8
ROADS
100
AcDbPolyline
 90
2
 70
0
 10
627479.4216013309
 20
4835710.872214439
 10
627480.2656162962
 20
4835763.477774638
  0
LWPOLYLINE
  5
1DE
330
17
100
AcDbEntity
  8
ROADS
100
AcDbPolyline
 90
2
 70
0
 10
627354.7178234797
 20
4835732.056068319
 10
627423.4653554751
 20
4835756.270446421
  0
LWPOLYLINE
  5
1DF
330
17
100
AcDbEntity
  8
ROADS
100
AcDbPolyline
 90
2
 70
0
 10
627242.8115160274
 20
4835742.916626992
 10
627301.4177019722
 20
4835762.96539749
  0
LWPOLYLINE
  5
1E0
330
17
100
AcDbEntity
  8
ROADS
100
AcDbPolyline
 90
2
 70
0
 10
627331.5368538122
 20
4835723.207186226
 10
627375.765127586
 20
4835823.766302726
  0
LWPOLYLINE
  5
1E1
330
17
100
AcDbEntity
  8
ROADS
100
AcDbPolyline
 90
2
 70
0
 10
627517.1634328114
 20
4835723.458324433
 10
627479.4216013309
 20
4835710.872214439
  0
LWPOLYLINE
  5
1E2
330
17
100
AcDbEntity
  8
ROADS
100
AcDbPolyline
 90
2
 70
0
 10
627627.0415687683
 20
4835709.562890622
 10
627613.2077442792
 20
4835753.866592959
  0
LWPOLYLINE
  5
1E3
330
17
100
AcDbEntity
  8
ROADS
100
AcDbPolyline
 90
2
 70
0
 10
627613.2077442792
 20
4835753.866592959
 10
627517.1634328114
 20
4835723.458324433
  0
LWPOLYLINE
  5
1E4
330
17
100
AcDbEntity
  8
ROADS
100
AcDbPolyline
 90
2
 70
0
 10
627517.1634328114
 20
4835723.458324433
 10
627503.3016223406
 20
4835765.659373589
  0
LWPOLYLINE
  5
1E5
330
17
100
AcDbEntity
  8
ROADS
100
AcDbPolyline
 90
3
 70
0
 10
627480.2656162962
 20
4835763.477774638
 10
627498.5250820136
 20
4835749.687016411
 10
627503.3016223406
 20
4835765.659373589
  0
LWPOLYLINE
  5
1E6
330
17
100
AcDbEntity
  8
ROADS
100
AcDbPolyline
 90
2
 70
0
 10
627709.4396329392
 20
4835783.820907488
 10
627613.2077442792
 20
4835753.866592959
  0
LWPOLYLINE
  5
1E7
330
17
100
AcDbEntity
  8
ROADS
100
AcDbPolyline
 90
2
 70
0
 10
627552.4366836986
 20
4835781.480670049
 10
627503.3016223406
 20
4835765.659373589
  0
LWPOLYLINE
  5
1E8
330
17
100
AcDbEntity
  8
ROADS
100
AcDbPolyline
 90
2
 70
0
 10
627613.2077442792
 20
4835753.866592959
 10
627604.6903799351
 20
4835799.822511442
  0
LWPOLYLINE
  5
1E9
330
17
100
AcDbEntity
  8
ROADS
100
AcDbPolyline
 90
2
 70
0
 10
627604.6903799351
 20
4835799.822511442
 10
627552.4366836986
 20
4835781.480670049
  0
LWPOLYLINE
  5
1EA
330
17
100
AcDbEntity
  8
ROADS
100
AcDbPolyline
 90
2
 70
0
 10
627503.3016223406
 20
4835765.659373589
 10
627485.0951745613
 20
4835819.053575931
  0
LWPOLYLINE
  5
1EB
330
17
100
AcDbEntity
  8
ROADS
100
AcDbPolyline
 90
3
 70
0
 10
627423.4653554751
 20
4835756.270446421
 10
627463.6686196066
 20
4835771.219207377
 10
627480.1877729888
 20
4835793.808270983
  0
LWPOLYLINE
  5
1EC
330
17
100
AcDbEntity
  8
ROADS
100
AcDbPolyline
 90
2
 70
0
 10
627480.2656162962
 20
4835763.477774638
 10
627480.1877729888
 20
4835793.808270983
  0
LWPOLYLINE
  5
1ED
330
17
100
AcDbEntity
  8
ROADS
100
AcDbPolyline
 90
3
 70
0
 10
627301.4177019722
 20
4835762.96539749
 10
627293.6350888364
 20
4835787.08919832
 10
627316.8883111357
 20
4835807.622867865
  0
LWPOLYLINE
  5
1EE
330
17
100
AcDbEntity
  8
ROADS
100
AcDbPolyline
 90
2
 70
0
 10
627318.4745781301
 20
4835817.791179117
 10
627182.4011754252
 20
4835790.18741216
  0
LWPOLYLINE
  5
1EF
330
17
100
AcDbEntity
  8
ROADS
100
AcDbPolyline
 90
3
 70
0
 10
627480.1877729888
 20
4835793.808270983
 10
627425.5497428596
 20
4835784.244880699
 10
627375.765127586
 20
4835823.766302726
  0
LWPOLYLINE
  5
1F0
330
17
100
AcDbEntity
  8
ROADS
100
AcDbPolyline
 90
2
 70
0
 10
627480.1877729888
 20
4835793.808270983
 10
627485.0951745613
 20
4835819.053575931
  0
LWPOLYLINE
  5
1F1
330
17
100
AcDbEntity
  8
ROADS
100
AcDbPolyline
 90
2
 70
0
 10
627316.8883111357
 20
4835807.622867865
 10
627330.9625205336
 20
4835809.54043326
  0
LWPOLYLINE
  5
1F2
330
17
100
AcDbEntity
  8
ROADS
100
AcDbPolyline
 90
2
 70
0
 10
627316.8883111357
 20
4835807.622867865
 10
627318.4745781301
 20
4835817.791179117
  0
LWPOLYLINE
  5
1F3
330
17
100
AcDbEntity
  8
ROADS
100
AcDbPolyline
 90
2
 70
0
 10
627318.4745781301
 20
4835817.791179117
 10
627344.3361880954
 20
4835843.069305129
  0
LWPOLYLINE
  5
1F4
330
17
100
AcDbEntity
  8
ROADS
100
AcDbPolyline
 90
2
 70
0
 10
627375.765127586
 20
4835823.766302726
 10
627344.3361880954
 20
4835843.069305129
  0
LWPOLYLINE
  5
1F5
330
17
100
AcDbEntity
  8
ROADS
100
AcDbPolyline
 90
2
 70
0
 10
627816.8957091202
 20
4835766.08878525
 10
627802.3730249443
 20
4835813.700267534
  0
LWPOLYLINE
  5
1F6
330
17
100
AcDbEntity
  8
ROADS
100
AcDbPolyline
 90
2
 70
0
 10
627899.4814256955
 20
4835845.604919828
 10
627802.3730249443
 20
4835813.700267534
  0
LWPOLYLINE
  5
1F7
330
17
100
AcDbEntity
  8
ROADS
100
AcDbPolyline
 90
2
 70
0
 10
627802.3730249443
 20
4835813.700267534
 10
627791.5432044462
 20
4835864.650721805
  0
LWPOLYLINE
  5
1F8
330
17
100
AcDbEntity
  8
ROADS
100
AcDbPolyline
 90
2
 70
0
 10
627791.5432044462
 20
4835864.650721805
 10
627743.7080000049
 20
4835850.222991103
  0
LWPOLYLINE
  5
1F9
330
17
100
AcDbEntity
  8
ROADS
100
AcDbPolyline
 90
2
 70
0
 10
627998.5527404033
 20
4835876.693025257
 10
627899.4814256955
 20
4835845.604919828
  0
LWPOLYLINE
  5
1FA
330
17
100
AcDbEntity
  8
ROADS
100
AcDbPolyline
 90
2
 70
0
 10
627899.4814256955
 20
4835845.604919828
 10
627888.0830524345
 20
4835895.975071877
  0
LWPOLYLINE
  5
1FB
330
17
100
AcDbEntity
  8
ROADS
100
AcDbPolyline
 90
2
 70
0
 10
627839.6288143547
 20
4835880.440070528
 10
627791.5432044462
 20
4835864.650721805
  0
LWPOLYLINE
  5
1FC
330
17
100
AcDbEntity
  8
ROADS
100
AcDbPolyline
 90
2
 70
0
 10
627888.0830524345
 20
4835895.975071877
 10
627839.6288143547
 20
4835880.440070528
  0
LWPOLYLINE
  5
1FD
330
17
100
AcDbEntity
  8
ROADS
100
AcDbPolyline
 90
2
 70
0
 10
627998.5527404033
 20
4835876.693025257
 10
627984.2679898492
 20
4835924.860866294
  0
LWPOLYLINE
  5
1FE
330
17
100
AcDbEntity
  8
ROADS
100
AcDbPolyline
 90
2
 70
0
 10
627936.0139277829
 20
4835910.809570704
 10
627888.0830524345
 20
4835895.975071877
  0
LWPOLYLINE
  5
1FF
330
17
100
AcDbEntity
  8
ROADS
100
AcDbPolyline
 90
2
 70
0
 10
627802.3730249443
 20
4835813.700267534
 10
627709.4396329392
 20
4835783.820907488
  0
LWPOLYLINE
  5
200
330
17
100
AcDbEntity
  8
ROADS
100
AcDbPolyline
 90
2
 70
0
 10
627651.3874070636
 20
4835815.250715643
 10
627604.6903799351
 20
4835799.822511442
  0
LWPOLYLINE
  5
201
330
17
100
AcDbEntity
  8
ROADS
100
AcDbPolyline
 90
2
 70
0
 10
627709.4396329392
 20
4835783.820907488
 10
627697.4722643862
 20
4835832.539474631
  0
LWPOLYLINE
  5
202
330
17
100
AcDbEntity
  8
ROADS
100
AcDbPolyline
 90
2
 70
0
 10
627697.4722643862
 20
4835832.539474631
 10
627651.3874070636
 20
4835815.250715643
  0
LWPOLYLINE
  5
203
330
17
100
AcDbEntity
  8
ROADS
100
AcDbPolyline
 90
2
 70
0
 10
627743.7080000049
 20
4835850.222991103
 10
627697.4722643862
 20
4835832.539474631
  0
LWPOLYLINE
  5
204
330
17
100
AcDbEntity
  8
ROADS
100
AcDbPolyline
 90
2
 70
0
 10
627697.4722643862
 20
4835832.539474631
 10
627661.8004890952
 20
4835948.862431386
  0
LWPOLYLINE
  5
205
330
17
100
AcDbEntity
  8
ROADS
100
AcDbPolyline
 90
2
 70
0
 10
627552.4366836986
 20
4835781.480670049
 10
627476.7200707062
 20
4836025.621127537
  0
LWPOLYLINE
  5
206
330
17
100
AcDbEntity
  8
ROADS
100
AcDbPolyline
 90
2
 70
0
 10
627743.7080000049
 20
4835850.222991103
 10
627709.4444067851
 20
4835963.5257295
  0
LWPOLYLINE
  5
207
330
17
100
AcDbEntity
  8
ROADS
100
AcDbPolyline
 90
2
 70
0
 10
627604.6903799351
 20
4835799.822511442
 10
627526.5707197748
 20
4836041.024372254
  0
LWPOLYLINE
  5
208
330
17
100
AcDbEntity
  8
ROADS
100
AcDbPolyline
 90
3
 70
0
 10
627651.3874070636
 20
4835815.250715643
 10
627575.3308731242
 20
4836057.945001369
 10
627526.5707197748
 20
4836041.024372254
  0
LWPOLYLINE
  5
209
330
17
100
AcDbEntity
  8
ROADS
100
AcDbPolyline
 90
2
 70
0
 10
627485.0951745613
 20
4835819.053575931
 10
627428.5120499409
 20
4836011.51666648
  0
LWPOLYLINE
  5
20A
330
17
100
AcDbEntity
  8
ROADS
100
AcDbPolyline
 90
4
 70
0
 10
627344.3361880954
 20
4835843.069305129
 10
627337.0441459207
 20
4835869.154098609
 10
627416.7816382868
 20
4835899.713589693
 10
627409.1683644926
 20
4836021.609574182
  0
LWPOLYLINE
  5
20B
330
17
100
AcDbEntity
  8
ROADS
100
AcDbPolyline
 90
2
 70
0
 10
627367.5696575837
 20
4836036.715433188
 10
627224.1396469425
 20
4835975.490485006
  0
LWPOLYLINE
  5
20C
330
17
100
AcDbEntity
  8
ROADS
100
AcDbPolyline
 90
2
 70
0
 10
627428.5120499409
 20
4836011.51666648
 10
627409.1683644926
 20
4836021.609574182
  0
LWPOLYLINE
  5
20D
330
17
100
AcDbEntity
  8
ROADS
100
AcDbPolyline
 90
2
 70
0
 10
627476.7200707062
 20
4836025.621127537
 10
627428.5120499409
 20
4836011.51666648
  0
LWPOLYLINE
  5
20E
330
17
100
AcDbEntity
  8
ROADS
100
AcDbPolyline
 90
2
 70
0
 10
627409.1683644926
 20
4836021.609574182
 10
627367.5696575837
 20
4836036.715433188
  0
LWPOLYLINE
  5
20F
330
17
100
AcDbEntity
  8
ROADS
100
AcDbPolyline
 90
2
 70
0
 10
627428.5120499409
 20
4836011.51666648
 10
627416.0256308564
 20
4836050.020828329
  0
LWPOLYLINE
  5
210
330
17
100
AcDbEntity
  8
ROADS
100
AcDbPolyline
 90
2
 70
0
 10
627409.1683644926
 20
4836021.609574182
 10
627416.0256308564
 20
4836050.020828329
  0
LWPOLYLINE
  5
211
330
17
100
AcDbEntity
  8
ROADS
100
AcDbPolyline
 90
2
 70
0
 10
627416.0256308564
 20
4836050.020828329
 10
627367.5696575837
 20
4836036.715433188
  0
LWPOLYLINE
  5
212
330
17
100
AcDbEntity
  8
ROADS
100
AcDbPolyline
 90
2
 70
0
 10
627353.7131526269
 20
4836083.543835888
 10
627205.5395390901
 20
4836034.532864689
  0
LWPOLYLINE
  5
213
330
17
100
AcDbEntity
  8
ROADS
100
AcDbPolyline
 90
2
 70
0
 10
627984.2679898492
 20
4835924.860866294
 10
627936.0139277829
 20
4835910.809570704
  0
LWPOLYLINE
  5
214
330
17
100
AcDbEntity
  8
ROADS
100
AcDbPolyline
 90
2
 70
0
 10
627791.5432044462
 20
4835864.650721805
 10
627755.6332626306
 20
4835979.902334034
  0
LWPOLYLINE
  5
215
330
17
100
AcDbEntity
  8
ROADS
100
AcDbPolyline
 90
2
 70
0
 10
627839.6288143547
 20
4835880.440070528
 10
627804.6328876495
 20
4835994.476645152
  0
LWPOLYLINE
  5
216
330
17
100
AcDbEntity
  8
ROADS
100
AcDbPolyline
 90
2
 70
0
 10
627888.0830524345
 20
4835895.975071877
 10
627852.8171808248
 20
4836009.951777215
  0
LWPOLYLINE
  5
217
330
17
100
AcDbEntity
  8
ROADS
100
AcDbPolyline
 90
2
 70
0
 10
627936.0139277829
 20
4835910.809570704
 10
627901.0464238692
 20
4836025.706744194
  0
LWPOLYLINE
  5
218
330
17
100
AcDbEntity
  8
ROADS
100
AcDbPolyline
 90
2
 70
0
 10
627984.2679898492
 20
4835924.860866294
 10
627948.4548762378
 20
4836040.783832571
  0
LWPOLYLINE
  5
219
330
17
100
AcDbEntity
  8
ROADS
100
AcDbPolyline
 90
2
 70
0
 10
627804.6328876495
 20
4835994.476645152
 10
627755.6332626306
 20
4835979.902334034
  0
LWPOLYLINE
  5
21A
330
17
100
AcDbEntity
  8
ROADS
100
AcDbPolyline
 90
2
 70
0
 10
627852.8171808248
 20
4836009.951777215
 10
627804.6328876495
 20
4835994.476645152
  0
LWPOLYLINE
  5
21B
330
17
100
AcDbEntity
  8
ROADS
100
AcDbPolyline
 90
2
 70
0
 10
627804.6328876495
 20
4835994.476645152
 10
627792.9216864149
 20
4836034.049434588
  0
LWPOLYLINE
  5
21C
330
17
100
AcDbEntity
  8
ROADS
100
AcDbPolyline
 90
2
 70
0
 10
627901.0464238692
 20
4836025.706744194
 10
627852.8171808248
 20
4836009.951777215
  0
LWPOLYLINE
  5
21D
330
17
100
AcDbEntity
  8
ROADS
100
AcDbPolyline
 90
2
 70
0
 10
627709.4444067851
 20
4835963.5257295
 10
627661.8004890952
 20
4835948.862431386
  0
LWPOLYLINE
  5
21E
330
17
100
AcDbEntity
  8
ROADS
100
AcDbPolyline
 90
2
 70
0
 10
627755.6332626306
 20
4835979.902334034
 10
627709.4444067851
 20
4835963.5257295
  0
LWPOLYLINE
  5
21F
330
17
100
AcDbEntity
  8
ROADS
100
AcDbPolyline
 90
2
 70
0
 10
627661.8004890952
 20
4835948.862431386
 10
627611.5372007304
 20
4836114.470168257
  0
LWPOLYLINE
  5
220
330
17
100
AcDbEntity
  8
ROADS
100
AcDbPolyline
 90
2
 70
0
 10
627526.5707197748
 20
4836041.024372254
 10
627476.7200707062
 20
4836025.621127537
  0
LWPOLYLINE
  5
221
330
17
100
AcDbEntity
  8
ROADS
100
AcDbPolyline
 90
2
 70
0
 10
627709.4444067851
 20
4835963.5257295
 10
627658.3453286594
 20
4836128.620344495
  0
LWPOLYLINE
  5
222
330
17
100
AcDbEntity
  8
ROADS
100
AcDbPolyline
 90
2
 70
0
 10
627526.5707197748
 20
4836041.024372254
 10
627510.9262340561
 20
4836082.8671574425
  0
LWPOLYLINE
  5
223
330
17
100
AcDbEntity
  8
ROADS
100
AcDbPolyline
 90
2
 70
0
 10
627755.6332626306
 20
4835979.902334034
 10
627705.77567082
 20
4836144.3098717835
  0
LWPOLYLINE
  5
224
330
17
100
AcDbEntity
  8
ROADS
100
AcDbPolyline
 90
2
 70
0
 10
627510.9262340561
 20
4836082.8671574425
 10
627461.7780335913
 20
4836068.4926717235
  0
LWPOLYLINE
  5
225
330
17
100
AcDbEntity
  8
ROADS
100
AcDbPolyline
 90
2
 70
0
 10
627559.0265729453
 20
4836097.23070151
 10
627510.9262340561
 20
4836082.8671574425
  0
LWPOLYLINE
  5
226
330
17
100
AcDbEntity
  8
ROADS
100
AcDbPolyline
 90
2
 70
0
 10
627510.9262340561
 20
4836082.8671574425
 10
627498.5996889088
 20
4836122.456784975
  0
LWPOLYLINE
  5
227
330
17
100
AcDbEntity
  8
ROADS
100
AcDbPolyline
 90
2
 70
0
 10
627461.7780335913
 20
4836068.4926717235
 10
627416.0256308564
 20
4836050.020828329
  0
LWPOLYLINE
  5
228
330
17
100
AcDbEntity
  8
ROADS
100
AcDbPolyline
 90
2
 70
0
 10
627367.5696575837
 20
4836036.715433188
 10
627353.7131526269
 20
4836083.543835888
  0
LWPOLYLINE
  5
229
330
17
100
AcDbEntity
  8
ROADS
100
AcDbPolyline
 90
2
 70
0
 10
627416.0256308564
 20
4836050.020828329
 10
627401.7187813096
 20
4836093.907411203
  0
LWPOLYLINE
  5
22A
330
17
100
AcDbEntity
  8
ROADS
100
AcDbPolyline
 90
2
 70
0
 10
627461.7780335913
 20
4836068.4926717235
 10
627450.1015065702
 20
4836108.139049669
  0
LWPOLYLINE
  5
22B
330
17
100
AcDbEntity
  8
ROADS
100
AcDbPolyline
 90
2
 70
0
 10
627401.7187813096
 20
4836093.907411203
 10
627450.1015065702
 20
4836108.139049669
  0
LWPOLYLINE
  5
22C
330
17
100
AcDbEntity
  8
ROADS
100
AcDbPolyline
 90
2
 70
0
 10
627353.7131526269
 20
4836083.543835888
 10
627339.0544795546
 20
4836131.152780437
  0
LWPOLYLINE
  5
22D
330
17
100
AcDbEntity
  8
ROADS
100
AcDbPolyline
 90
2
 70
0
 10
627339.0544795546
 20
4836131.152780437
 10
627185.546138787
 20
4836086.008579265
  0
LWPOLYLINE
  5
22E
330
17
100
AcDbEntity
  8
ROADS
100
AcDbPolyline
 90
2
 70
0
 10
627450.1015065702
 20
4836108.139049669
 10
627498.5996889088
 20
4836122.456784975
  0
LWPOLYLINE
  5
22F
330
17
100
AcDbEntity
  8
ROADS
100
AcDbPolyline
 90
2
 70
0
 10
627401.7187813096
 20
4836093.907411203
 10
627386.6724077578
 20
4836144.761555427
  0
LWPOLYLINE
  5
230
330
17
100
AcDbEntity
  8
ROADS
100
AcDbPolyline
 90
2
 70
0
 10
627386.6724077578
 20
4836144.761555427
 10
627339.0544795546
 20
4836131.152780437
  0
LWPOLYLINE
  5
231
330
17
100
AcDbEntity
  8
ROADS
100
AcDbPolyline
 90
2
 70
0
 10
627948.4548762378
 20
4836040.783832571
 10
627901.0464238692
 20
4836025.706744194
  0
LWPOLYLINE
  5
232
330
17
100
AcDbEntity
  8
ROADS
100
AcDbPolyline
 90
2
 70
0
 10
627852.8171808248
 20
4836009.951777215
 10
627836.2054231279
 20
4836057.834502365
  0
LWPOLYLINE
  5
233
330
17
100
AcDbEntity
  8
ROADS
100
AcDbPolyline
 90
2
 70
0
 10
627996.5731732063
 20
4836056.480798655
 10
627948.4548762378
 20
4836040.783832571
  0
LWPOLYLINE
  5
234
330
17
100
AcDbEntity
  8
ROADS
100
AcDbPolyline
 90
3
 70
0
 10
627901.0464238692
 20
4836025.706744194
 10
627888.5574979286
 20
4836065.316485409
 10
627867.8738921586
 20
4836073.684068731
  0
LWPOLYLINE
  5
235
330
17
100
AcDbEntity
  8
ROADS
100
AcDbPolyline
 90
2
 70
0
 10
627867.8738921586
 20
4836073.684068731
 10
627836.2054231279
 20
4836057.834502365
  0
LWPOLYLINE
  5
236
330
17
100
AcDbEntity
  8
ROADS
100
AcDbPolyline
 90
3
 70
0
 10
627836.2054231279
 20
4836057.834502365
 10
627802.4095712679
 20
4836052.563151044
 10
627784.3896164667
 20
4836110.684059179
  0
LWPOLYLINE
  5
237
330
17
100
AcDbEntity
  8
ROADS
100
AcDbPolyline
 90
2
 70
0
 10
627848.7894501053
 20
4836133.984880694
 10
627867.8738921586
 20
4836073.684068731
  0
LWPOLYLINE
  5
238
330
17
100
AcDbEntity
  8
ROADS
100
AcDbPolyline
 90
2
 70
0
 10
627784.3896164667
 20
4836110.684059179
 10
627817.3931802871
 20
4836126.366755811
  0
LWPOLYLINE
  5
239
330
17
100
AcDbEntity
  8
ROADS
100
AcDbPolyline
 90
2
 70
0
 10
627948.4548762378
 20
4836040.783832571
 10
627897.1220709109
 20
4836205.913830958
  0
LWPOLYLINE
  5
23A
330
17
100
AcDbEntity
  8
ROADS
100
AcDbPolyline
 90
2
 70
0
 10
627817.3931802871
 20
4836126.366755811
 10
627848.7894501053
 20
4836133.984880694
  0
LWPOLYLINE
  5
23B
330
17
100
AcDbEntity
  8
ROADS
100
AcDbPolyline
 90
2
 70
0
 10
627339.0544795546
 20
4836131.152780437
 10
627324.6299490312
 20
4836177.426871038
  0
LWPOLYLINE
  5
23C
330
17
100
AcDbEntity
  8
ROADS
100
AcDbPolyline
 90
2
 70
0
 10
627324.6299490312
 20
4836177.426871038
 10
627182.4624687548
 20
4836134.818848483
  0
LWPOLYLINE
  5
23D
330
17
100
AcDbEntity
  8
ROADS
100
AcDbPolyline
 90
2
 70
0
 10
627450.1015065702
 20
4836108.139049669
 10
627412.5964773489
 20
4836236.938028088
  0
LWPOLYLINE
  5
23E
330
17
100
AcDbEntity
  8
ROADS
100
AcDbPolyline
 90
2
 70
0
 10
627386.6724077578
 20
4836144.761555427
 10
627364.2576343606
 20
4836222.990183603
  0
LWPOLYLINE
  5
23F
330
17
100
AcDbEntity
  8
ROADS
100
AcDbPolyline
 90
2
 70
0
 10
627498.5996889088
 20
4836122.456784975
 10
627460.3408138071
 20
4836252.350219547
  0
LWPOLYLINE
  5
240
330
17
100
AcDbEntity
  8
ROADS
100
AcDbPolyline
 90
2
 70
0
 10
627324.6299490312
 20
4836177.426871038
 10
627307.9746482718
 20
4836235.682371315
  0
LWPOLYLINE
  5
241
330
17
100
AcDbEntity
  8
ROADS
100
AcDbPolyline
 90
2
 70
0
 10
627307.9746482718
 20
4836235.682371315
 10
627193.279086593
 20
4836202.000599417
  0
LWPOLYLINE
  5
242
330
17
100
AcDbEntity
  8
ROADS
100
AcDbPolyline
 90
2
 70
0
 10
627412.5964773489
 20
4836236.938028088
 10
627364.2576343606
 20
4836222.990183603
  0
LWPOLYLINE
  5
243
330
17
100
AcDbEntity
  8
ROADS
100
AcDbPolyline
 90
2
 70
0
 10
627364.2576343606
 20
4836222.990183603
 10
627358.3460696382
 20
4836250.545021948
  0
LWPOLYLINE
  5
244
330
17
100
AcDbEntity
  8
ROADS
100
AcDbPolyline
 90
2
 70
0
 10
627358.3460696382
 20
4836250.545021948
 10
627307.9746482718
 20
4836235.682371315
  0
LWPOLYLINE
  5
245
330
17
100
AcDbEntity
  8
ROADS
100
AcDbPolyline
 90
2
 70
0
 10
627611.5372007304
 20
4836114.470168257
 10
627559.0265729453
 20
4836097.23070151
  0
LWPOLYLINE
  5
246
330
17
100
AcDbEntity
  8
ROADS
100
AcDbPolyline
 90
2
 70
0
 10
627559.0265729453
 20
4836097.23070151
 10
627547.202492506
 20
4836137.0174311455
  0
LWPOLYLINE
  5
247
330
17
100
AcDbEntity
  8
ROADS
100
AcDbPolyline
 90
2
 70
0
 10
627658.3453286594
 20
4836128.620344495
 10
627611.5372007304
 20
4836114.470168257
  0
LWPOLYLINE
  5
248
330
17
100
AcDbEntity
  8
ROADS
100
AcDbPolyline
 90
2
 70
0
 10
627547.202492506
 20
4836137.0174311455
 10
627498.5996889088
 20
4836122.456784975
  0
LWPOLYLINE
  5
249
330
17
100
AcDbEntity
  8
ROADS
100
AcDbPolyline
 90
2
 70
0
 10
627611.5372007304
 20
4836114.470168257
 10
627599.3910307052
 20
4836153.099007121
  0
LWPOLYLINE
  5
24A
330
17
100
AcDbEntity
  8
ROADS
100
AcDbPolyline
 90
2
 70
0
 10
627705.77567082
 20
4836144.3098717835
 10
627658.3453286594
 20
4836128.620344495
  0
LWPOLYLINE
  5
24B
330
17
100
AcDbEntity
  8
ROADS
100
AcDbPolyline
 90
2
 70
0
 10
627599.3910307052
 20
4836153.099007121
 10
627547.202492506
 20
4836137.0174311455
  0
LWPOLYLINE
  5
24C
330
17
100
AcDbEntity
  8
ROADS
100
AcDbPolyline
 90
2
 70
0
 10
627754.4415256147
 20
4836159.256694112
 10
627705.77567082
 20
4836144.3098717835
  0
LWPOLYLINE
  5
24D
330
17
100
AcDbEntity
  8
ROADS
100
AcDbPolyline
 90
2
 70
0
 10
627547.202492506
 20
4836137.0174311455
 10
627509.5844842179
 20
4836267.03047758
  0
LWPOLYLINE
  5
24E
330
17
100
AcDbEntity
  8
ROADS
100
AcDbPolyline
 90
2
 70
0
 10
627607.9585514213
 20
4836293.530777499
 10
627658.3453286594
 20
4836128.620344495
  0
LWPOLYLINE
  5
24F
330
17
100
AcDbEntity
  8
ROADS
100
AcDbPolyline
 90
3
 70
0
 10
627754.4415256147
 20
4836159.256694112
 10
627766.4724389139
 20
4836120.42074056
 10
627784.3896164667
 20
4836110.684059179
  0
LWPOLYLINE
  5
250
330
17
100
AcDbEntity
  8
ROADS
100
AcDbPolyline
 90
2
 70
0
 10
627996.5731732063
 20
4836056.480798655
 10
627944.4337785895
 20
4836220.92069106
  0
LWPOLYLINE
  5
251
330
17
100
AcDbEntity
  8
ROADS
100
AcDbPolyline
 90
2
 70
0
 10
627817.3931802871
 20
4836126.366755811
 10
627801.8123198928
 20
4836174.64513419
  0
LWPOLYLINE
  5
252
330
17
100
AcDbEntity
  8
ROADS
100
AcDbPolyline
 90
3
 70
0
 10
627850.6255223153
 20
4836190.237670275
 10
627862.8026301404
 20
4836149.677239541
 10
627848.7894501053
 20
4836133.984880694
  0
LWPOLYLINE
  5
253
330
17
100
AcDbEntity
  8
ROADS
100
AcDbPolyline
 90
2
 70
0
 10
627801.8123198928
 20
4836174.64513419
 10
627754.4415256147
 20
4836159.256694112
  0
LWPOLYLINE
  5
254
330
17
100
AcDbEntity
  8
ROADS
100
AcDbPolyline
 90
2
 70
0
 10
627850.6255223153
 20
4836190.237670275
 10
627801.8123198928
 20
4836174.64513419
  0
LWPOLYLINE
  5
255
330
17
100
AcDbEntity
  8
ROADS
100
AcDbPolyline
 90
2
 70
0
 10
627897.1220709109
 20
4836205.913830958
 10
627850.6255223153
 20
4836190.237670275
  0
LWPOLYLINE
  5
256
330
17
100
AcDbEntity
  8
ROADS
100
AcDbPolyline
 90
2
 70
0
 10
627944.4337785895
 20
4836220.92069106
 10
627897.1220709109
 20
4836205.913830958
  0
LWPOLYLINE
  5
257
330
17
100
AcDbEntity
  8
ROADS
100
AcDbPolyline
 90
2
 70
0
 10
627993.9012366084
 20
4836236.613075609
 10
627944.4337785895
 20
4836220.92069106
  0
LWPOLYLINE
  5
258
330
17
100
AcDbEntity
  8
ROADS
100
AcDbPolyline
 90
2
 70
0
 10
627801.8123198928
 20
4836174.64513419
 10
627752.6003772009
 20
4836340.72794754
  0
LWPOLYLINE
  5
259
330
17
100
AcDbEntity
  8
ROADS
100
AcDbPolyline
 90
2
 70
0
 10
627599.3910307052
 20
4836153.099007121
 10
627561.3978618954
 20
4836279.192042054
  0
LWPOLYLINE
  5
25A
330
17
100
AcDbEntity
  8
ROADS
100
AcDbPolyline
 90
2
 70
0
 10
627705.77567082
 20
4836144.3098717835
 10
627654.6173885667
 20
4836308.636339918
  0
LWPOLYLINE
  5
25B
330
17
100
AcDbEntity
  8
ROADS
100
AcDbPolyline
 90
2
 70
0
 10
627509.5844842179
 20
4836267.03047758
 10
627460.3408138071
 20
4836252.350219547
  0
LWPOLYLINE
  5
25C
330
17
100
AcDbEntity
  8
ROADS
100
AcDbPolyline
 90
2
 70
0
 10
627561.3978618954
 20
4836279.192042054
 10
627509.5844842179
 20
4836267.03047758
  0
LWPOLYLINE
  5
25D
330
17
100
AcDbEntity
  8
ROADS
100
AcDbPolyline
 90
2
 70
0
 10
627607.9585514213
 20
4836293.530777499
 10
627561.3978618954
 20
4836279.192042054
  0
LWPOLYLINE
  5
25E
330
17
100
AcDbEntity
  8
ROADS
100
AcDbPolyline
 90
2
 70
0
 10
627654.6173885667
 20
4836308.636339918
 10
627607.9585514213
 20
4836293.530777499
  0
LWPOLYLINE
  5
25F
330
17
100
AcDbEntity
  8
ROADS
100
AcDbPolyline
 90
2
 70
0
 10
627561.3978618954
 20
4836279.192042054
 10
627536.7182462416
 20
4836356.682706725
  0
LWPOLYLINE
  5
260
330
17
100
AcDbEntity
  8
ROADS
100
AcDbPolyline
 90
2
 70
0
 10
627752.6003772009
 20
4836340.72794754
 10
627654.6173885667
 20
4836308.636339918
  0
LWPOLYLINE
  5
261
330
17
100
AcDbEntity
  8
ROADS
100
AcDbPolyline
 90
2
 70
0
 10
627752.6003772009
 20
4836340.72794754
 10
627741.2970287934
 20
4836379.755058961
  0
LWPOLYLINE
  5
262
330
17
100
AcDbEntity
  8
ROADS
100
AcDbPolyline
 90
2
 70
0
 10
627728.3269242585
 20
4836417.932977801
 10
627536.7182462416
 20
4836356.682706725
  0
LWPOLYLINE
  5
263
330
17
100
AcDbEntity
  8
ROADS
100
AcDbPolyline
 90
2
 70
0
 10
627850.6255223153
 20
4836190.237670275
 10
627798.5503426532
 20
4836356.23973185
  0
LWPOLYLINE
  5
264
330
17
100
AcDbEntity
  8
ROADS
100
AcDbPolyline
 90
2
 70
0
 10
627897.1220709109
 20
4836205.913830958
 10
627846.9330573105
 20
4836370.723440019
  0
LWPOLYLINE
  5
265
330
17
100
AcDbEntity
  8
ROADS
100
AcDbPolyline
 90
2
 70
0
 10
627944.4337785895
 20
4836220.92069106
 10
627897.7701527588
 20
4836386.356602459
  0
LWPOLYLINE
  5
266
330
17
100
AcDbEntity
  8
ROADS
100
AcDbPolyline
 90
2
 70
0
 10
627993.9012366084
 20
4836236.613075609
 10
627943.880214937
 20
4836401.809290259
  0
LWPOLYLINE
  5
267
330
17
100
AcDbEntity
  8
ROADS
100
AcDbPolyline
 90
2
 70
0
 10
627798.5503426532
 20
4836356.23973185
 10
627752.6003772009
 20
4836340.72794754
  0
LWPOLYLINE
  5
268
330
17
100
AcDbEntity
  8
ROADS
100
AcDbPolyline
 90
2
 70
0
 10
627846.9330573105
 20
4836370.723440019
 10
627798.5503426532
 20
4836356.23973185
  0
LWPOLYLINE
  5
269
330
17
100
AcDbEntity
  8
ROADS
100
AcDbPolyline
 90
2
 70
0
 10
627897.7701527588
 20
4836386.356602459
 10
627846.9330573105
 20
4836370.723440019
  0
LWPOLYLINE
  5
26A
330
17
100
AcDbEntity
  8
ROADS
100
AcDbPolyline
 90
2
 70
0
 10
627943.880214937
 20
4836401.809290259
 10
627897.7701527588
 20
4836386.356602459
  0
LWPOLYLINE
  5
26B
330
17
100
AcDbEntity
  8
ROADS
100
AcDbPolyline
 90
2
 70
0
 10
627741.2970287934
 20
4836379.755058961
 10
627836.2120765042
 20
4836410.672149928
  0
LWPOLYLINE
  5
26C
330
17
100
AcDbEntity
  8
ROADS
100
AcDbPolyline
 90
2
 70
0
 10
627897.7701527588
 20
4836386.356602459
 10
627874.9710595333
 20
4836465.730459473
  0
LWPOLYLINE
  5
26D
330
17
100
AcDbEntity
  8
ROADS
100
AcDbPolyline
 90
2
 70
0
 10
627460.3408138071
 20
4836252.350219547
 10
627412.5964773489
 20
4836236.938028088
  0
LWPOLYLINE
  5
26E
330
17
100
AcDbEntity
  8
ROADS
100
AcDbPolyline
 90
2
 70
0
 10
627307.9746482718
 20
4836235.682371315
 10
627289.68064183
 20
4836294.966301637
  0
LWPOLYLINE
  5
26F
330
17
100
AcDbEntity
  8
ROADS
100
AcDbPolyline
 90
3
 70
0
 10
627289.68064183
 20
4836294.966301637
 10
627227.2006705069
 20
4836276.387490572
 10
627221.3955506556
 20
4836293.027355703
  0
LWPOLYLINE
  5
270
330
17
100
AcDbEntity
  8
ROADS
100
AcDbPolyline
 90
2
 70
0
 10
627358.3460696382
 20
4836250.545021948
 10
627327.3763318355
 20
4836351.97040548
  0
LWPOLYLINE
  5
271
330
17
100
AcDbEntity
  8
ROADS
100
AcDbPolyline
 90
2
 70
0
 10
627289.68064183
 20
4836294.966301637
 10
627282.8641597047
 20
4836338.939792714
  0
LWPOLYLINE
  5
272
330
17
100
AcDbEntity
  8
ROADS
100
AcDbPolyline
 90
2
 70
0
 10
627282.8641597047
 20
4836338.939792714
 10
627233.9029081659
 20
4836323.978787187
  0
LWPOLYLINE
  5
273
330
17
100
AcDbEntity
  8
ROADS
100
AcDbPolyline
 90
2
 70
0
 10
627412.5964773489
 20
4836236.938028088
 10
627349.1084114653
 20
4836447.336283551
  0
LWPOLYLINE
  5
274
330
17
100
AcDbEntity
  8
ROADS
100
AcDbPolyline
 90
2
 70
0
 10
627327.3763318355
 20
4836351.97040548
 10
627282.8641597047
 20
4836338.939792714
  0
LWPOLYLINE
  5
275
330
17
100
AcDbEntity
  8
ROADS
100
AcDbPolyline
 90
2
 70
0
 10
627460.3408138071
 20
4836252.350219547
 10
627396.1322923242
 20
4836462.825480699
  0
LWPOLYLINE
  5
276
330
17
100
AcDbEntity
  8
ROADS
100
AcDbPolyline
 90
2
 70
0
 10
627282.8641597047
 20
4836338.939792714
 10
627270.1385947843
 20
4836380.574296982
  0
LWPOLYLINE
  5
277
330
17
100
AcDbEntity
  8
ROADS
100
AcDbPolyline
 90
2
 70
0
 10
627205.5395390901
 20
4836034.532864689
 10
627185.546138787
 20
4836086.008579265
  0
LWPOLYLINE
  5
278
330
17
100
AcDbEntity
  8
ROADS
100
AcDbPolyline
 90
2
 70
0
 10
627185.546138787
 20
4836086.008579265
 10
627172.1159664473
 20
4836081.571856049
  0
LWPOLYLINE
  5
279
330
17
100
AcDbEntity
  8
ROADS
100
AcDbPolyline
 90
2
 70
0
 10
627185.546138787
 20
4836086.008579265
 10
627176.5523944839
 20
4836113.59085527
  0
LWPOLYLINE
  5
27A
330
17
100
AcDbEntity
  8
ROADS
100
AcDbPolyline
 90
2
 70
0
 10
627182.4624687548
 20
4836134.818848483
 10
627179.4081019352
 20
4836133.935802189
  0
LWPOLYLINE
  5
27B
330
17
100
AcDbEntity
  8
ROADS
100
AcDbPolyline
 90
2
 70
0
 10
627182.4624687548
 20
4836134.818848483
 10
627180.405373283
 20
4836141.040673041
  0
LWPOLYLINE
  5
27C
330
17
100
AcDbEntity
  8
ROADS
100
AcDbPolyline
 90
2
 70
0
 10
627258.24361744
 20
4836376.857262376
 10
627270.1385947843
 20
4836380.574296982
  0
LWPOLYLINE
  5
27D
330
17
100
AcDbEntity
  8
ROADS
100
AcDbPolyline
 90
2
 70
0
 10
628246.0883203568
 20
4835955.260342124
 10
628193.1397572837
 20
4835939.116023054
  0
LWPOLYLINE
  5
27E
330
17
100
AcDbEntity
  8
ROADS
100
AcDbPolyline
 90
2
 70
0
 10
628082.9481210046
 20
4835947.385377388
 10
628124.1908876306
 20
4835960.1568419775
  0
LWPOLYLINE
  5
27F
330
17
100
AcDbEntity
  8
ROADS
100
AcDbPolyline
 90
2
 70
0
 10
628082.9481210046
 20
4835947.385377388
 10
628078.1021106723
 20
4835963.353795926
  0
LWPOLYLINE
  5
280
330
17
100
AcDbEntity
  8
ROADS
100
AcDbPolyline
 90
2
 70
0
 10
628299.8056912967
 20
4835971.971602647
 10
628246.0883203568
 20
4835955.260342124
  0
LWPOLYLINE
  5
281
330
17
100
AcDbEntity
  8
ROADS
100
AcDbPolyline
 90
2
 70
0
 10
628193.1397572837
 20
4835939.116023054
 10
628176.2818022039
 20
4835993.811791023
  0
LWPOLYLINE
  5
282
330
17
100
AcDbEntity
  8
ROADS
100
AcDbPolyline
 90
2
 70
0
 10
628131.7633536578
 20
4835980.181042593
 10
628078.1021106723
 20
4835963.353795926
  0
LWPOLYLINE
  5
283
330
17
100
AcDbEntity
  8
ROADS
100
AcDbPolyline
 90
2
 70
0
 10
628176.2818022039
 20
4835993.811791023
 10
628131.7633536578
 20
4835980.181042593
  0
LWPOLYLINE
  5
284
330
17
100
AcDbEntity
  8
ROADS
100
AcDbPolyline
 90
2
 70
0
 10
628131.7633536578
 20
4835980.181042593
 10
628172.6094262837
 20
4836006.209200503
  0
LWPOLYLINE
  5
285
330
17
100
AcDbEntity
  8
ROADS
100
AcDbPolyline
 90
2
 70
0
 10
628176.2818022039
 20
4835993.811791023
 10
628172.6094262837
 20
4836006.209200503
  0
LWPOLYLINE
  5
286
330
17
100
AcDbEntity
  8
ROADS
100
AcDbPolyline
 90
2
 70
0
 10
628283.0959328845
 20
4836026.767072318
 10
628176.2818022039
 20
4835993.811791023
  0
LWPOLYLINE
  5
287
330
17
100
AcDbEntity
  8
ROADS
100
AcDbPolyline
 90
2
 70
0
 10
628313.8551116873
 20
4835927.445201058
 10
628299.8056912967
 20
4835971.971602647
  0
LWPOLYLINE
  5
288
330
17
100
AcDbEntity
  8
ROADS
100
AcDbPolyline
 90
2
 70
0
 10
628459.4981306532
 20
4835969.538572324
 10
628408.6533339316
 20
4835953.468280693
  0
LWPOLYLINE
  5
289
330
17
100
AcDbEntity
  8
ROADS
100
AcDbPolyline
 90
2
 70
0
 10
628504.6180431333
 20
4835982.595168169
 10
628459.4981306532
 20
4835969.538572324
  0
LWPOLYLINE
  5
28A
330
17
100
AcDbEntity
  8
ROADS
100
AcDbPolyline
 90
2
 70
0
 10
628408.6533339316
 20
4835953.468280693
 10
628394.5634788333
 20
4836001.032661797
  0
LWPOLYLINE
  5
28B
330
17
100
AcDbEntity
  8
ROADS
100
AcDbPolyline
 90
2
 70
0
 10
628394.5634788333
 20
4836001.032661797
 10
628299.8056912967
 20
4835971.971602647
  0
LWPOLYLINE
  5
28C
330
17
100
AcDbEntity
  8
ROADS
100
AcDbPolyline
 90
2
 70
0
 10
628299.8056912967
 20
4835971.971602647
 10
628283.0959328845
 20
4836026.767072318
  0
LWPOLYLINE
  5
28D
330
17
100
AcDbEntity
  8
ROADS
100
AcDbPolyline
 90
2
 70
0
 10
628504.6180431333
 20
4835982.595168169
 10
628490.3595020743
 20
4836030.749550825
  0
LWPOLYLINE
  5
28E
330
17
100
AcDbEntity
  8
ROADS
100
AcDbPolyline
 90
2
 70
0
 10
628460.7273920339
 20
4836021.46620776
 10
628394.5634788333
 20
4836001.032661797
  0
LWPOLYLINE
  5
28F
330
17
100
AcDbEntity
  8
ROADS
100
AcDbPolyline
 90
2
 70
0
 10
628490.3595020743
 20
4836030.749550825
 10
628460.7273920339
 20
4836021.46620776
  0
LWPOLYLINE
  5
290
330
17
100
AcDbEntity
  8
ROADS
100
AcDbPolyline
 90
2
 70
0
 10
628394.5634788333
 20
4836001.032661797
 10
628375.8061678219
 20
4836062.21154452
  0
LWPOLYLINE
  5
291
330
17
100
AcDbEntity
  8
ROADS
100
AcDbPolyline
 90
2
 70
0
 10
628078.1021106723
 20
4835963.353795926
 10
628045.0569868659
 20
4836071.708347289
  0
LWPOLYLINE
  5
292
330
17
100
AcDbEntity
  8
ROADS
100
AcDbPolyline
 90
2
 70
0
 10
627996.5731732063
 20
4836056.480798655
 10
628006.7854510657
 20
4836022.098220083
  0
LWPOLYLINE
  5
293
330
17
100
AcDbEntity
  8
ROADS
100
AcDbPolyline
 90
2
 70
0
 10
628045.0569868659
 20
4836071.708347289
 10
627996.5731732063
 20
4836056.480798655
  0
LWPOLYLINE
  5
294
330
17
100
AcDbEntity
  8
ROADS
100
AcDbPolyline
 90
2
 70
0
 10
628172.6094262837
 20
4836006.209200503
 10
628097.5698531256
 20
4836253.375499538
  0
LWPOLYLINE
  5
295
330
17
100
AcDbEntity
  8
ROADS
100
AcDbPolyline
 90
2
 70
0
 10
628045.0569868659
 20
4836071.708347289
 10
627993.9012366084
 20
4836236.613075609
  0
LWPOLYLINE
  5
296
330
17
100
AcDbEntity
  8
ROADS
100
AcDbPolyline
 90
2
 70
0
 10
628283.0959328845
 20
4836026.767072318
 10
628203.3893901998
 20
4836285.9148469465
  0
LWPOLYLINE
  5
297
330
17
100
AcDbEntity
  8
ROADS
100
AcDbPolyline
 90
2
 70
0
 10
628091.3421347467
 20
4836267.4968137015
 10
627993.9012366084
 20
4836236.613075609
  0
LWPOLYLINE
  5
298
330
17
100
AcDbEntity
  8
ROADS
100
AcDbPolyline
 90
2
 70
0
 10
628097.5698531256
 20
4836253.375499538
 10
628091.3421347467
 20
4836267.4968137015
  0
LWPOLYLINE
  5
299
330
17
100
AcDbEntity
  8
ROADS
100
AcDbPolyline
 90
2
 70
0
 10
628203.3893901998
 20
4836285.9148469465
 10
628097.5698531256
 20
4836253.375499538
  0
LWPOLYLINE
  5
29A
330
17
100
AcDbEntity
  8
ROADS
100
AcDbPolyline
 90
2
 70
0
 10
628091.3421347467
 20
4836267.4968137015
 10
628199.2135060532
 20
4836300.550296169
  0
LWPOLYLINE
  5
29B
330
17
100
AcDbEntity
  8
ROADS
100
AcDbPolyline
 90
2
 70
0
 10
628564.3174001796
 20
4836052.596113104
 10
628490.3595020743
 20
4836030.749550825
  0
LWPOLYLINE
  5
29C
330
17
100
AcDbEntity
  8
ROADS
100
AcDbPolyline
 90
2
 70
0
 10
628460.7273920339
 20
4836021.46620776
 10
628435.3021552998
 20
4836087.552869861
  0
LWPOLYLINE
  5
29D
330
17
100
AcDbEntity
  8
ROADS
100
AcDbPolyline
 90
2
 70
0
 10
628375.8061678219
 20
4836062.21154452
 10
628435.3021552998
 20
4836087.552869861
  0
LWPOLYLINE
  5
29E
330
17
100
AcDbEntity
  8
ROADS
100
AcDbPolyline
 90
2
 70
0
 10
628375.8061678219
 20
4836062.21154452
 10
628323.0272912486
 20
4836234.360564117
  0
LWPOLYLINE
  5
29F
330
17
100
AcDbEntity
  8
ROADS
100
AcDbPolyline
 90
4
 70
0
 10
628564.3174001796
 20
4836052.596113104
 10
628526.0440195537
 20
4836116.140334832
 10
628515.9355703654
 20
4836213.086962149
 10
628474.7852431023
 20
4836280.377387359
  0
LWPOLYLINE
  5
2A0
330
17
100
AcDbEntity
  8
ROADS
100
AcDbPolyline
 90
2
 70
0
 10
628435.3021552998
 20
4836087.552869861
 10
628388.2693924743
 20
4836254.170444806
  0
LWPOLYLINE
  5
2A1
330
17
100
AcDbEntity
  8
ROADS
100
AcDbPolyline
 90
2
 70
0
 10
628388.2693924743
 20
4836254.170444806
 10
628323.0272912486
 20
4836234.360564117
  0
LWPOLYLINE
  5
2A2
330
17
100
AcDbEntity
  8
ROADS
100
AcDbPolyline
 90
2
 70
0
 10
628474.7852431023
 20
4836280.377387359
 10
628388.2693924743
 20
4836254.170444806
  0
LWPOLYLINE
  5
2A3
330
17
100
AcDbEntity
  8
ROADS
100
AcDbPolyline
 90
2
 70
0
 10
628487.9927717883
 20
4836282.387314685
 10
628474.7852431023
 20
4836280.377387359
  0
LWPOLYLINE
  5
2A4
330
17
100
AcDbEntity
  8
ROADS
100
AcDbPolyline
 90
2
 70
0
 10
628323.0272912486
 20
4836234.360564117
 10
628293.727534898
 20
4836330.313078736
  0
LWPOLYLINE
  5
2A5
330
17
100
AcDbEntity
  8
ROADS
100
AcDbPolyline
 90
2
 70
0
 10
628631.3793064569
 20
4836072.205359813
 10
628564.3174001796
 20
4836052.596113104
  0
LWPOLYLINE
  5
2A6
330
17
100
AcDbEntity
  8
ROADS
100
AcDbPolyline
 90
2
 70
0
 10
628686.461781468
 20
4836089.250860033
 10
628631.3793064569
 20
4836072.205359813
  0
LWPOLYLINE
  5
2A7
330
17
100
AcDbEntity
  8
ROADS
100
AcDbPolyline
 90
2
 70
0
 10
628778.2052437565
 20
4836117.99246455
 10
628686.461781468
 20
4836089.250860033
  0
LWPOLYLINE
  5
2A8
330
17
100
AcDbEntity
  8
ROADS
100
AcDbPolyline
 90
2
 70
0
 10
628872.1470451895
 20
4836148.54995146
 10
628778.2052437565
 20
4836117.99246455
  0
LWPOLYLINE
  5
2A9
330
17
100
AcDbEntity
  8
ROADS
100
AcDbPolyline
 90
2
 70
0
 10
628686.461781468
 20
4836089.250860033
 10
628657.1036207166
 20
4836177.869948835
  0
LWPOLYLINE
  5
2AA
330
17
100
AcDbEntity
  8
ROADS
100
AcDbPolyline
 90
2
 70
0
 10
628778.2052437565
 20
4836117.99246455
 10
628760.0112749819
 20
4836178.322539962
  0
LWPOLYLINE
  5
2AB
330
17
100
AcDbEntity
  8
ROADS
100
AcDbPolyline
 90
2
 70
0
 10
628657.1036207166
 20
4836177.869948835
 10
628590.6024286489
 20
4836156.78521965
  0
LWPOLYLINE
  5
2AC
330
17
100
AcDbEntity
  8
ROADS
100
AcDbPolyline
 90
4
 70
0
 10
628760.0112749819
 20
4836178.322539962
 10
628733.5857557949
 20
4836179.839536537
 10
628729.9484772712
 20
4836196.314703861
 10
628751.2793776969
 20
4836205.552480679
  0
LWPOLYLINE
  5
2AD
330
17
100
AcDbEntity
  8
ROADS
100
AcDbPolyline
 90
2
 70
0
 10
628760.0112749819
 20
4836178.322539962
 10
628751.2793776969
 20
4836205.552480679
  0
LWPOLYLINE
  5
2AE
330
17
100
AcDbEntity
  8
ROADS
100
AcDbPolyline
 90
2
 70
0
 10
628657.1036207166
 20
4836177.869948835
 10
628605.6885227583
 20
4836342.61926437
  0
LWPOLYLINE
  5
2AF
330
17
100
AcDbEntity
  8
ROADS
100
AcDbPolyline
 90
2
 70
0
 10
628751.2793776969
 20
4836205.552480679
 10
628698.5942612067
 20
4836373.062059397
  0
LWPOLYLINE
  5
2B0
330
17
100
AcDbEntity
  8
ROADS
100
AcDbPolyline
 90
2
 70
0
 10
628830.6988454008
 20
4836281.593463575
 10
628805.9023024519
 20
4836363.167580724
  0
LWPOLYLINE
  5
2B1
330
17
100
AcDbEntity
  8
ROADS
100
AcDbPolyline
 90
2
 70
0
 10
628605.6885227583
 20
4836342.61926437
 10
628514.4129096895
 20
4836320.9155346025
  0
LWPOLYLINE
  5
2B2
330
17
100
AcDbEntity
  8
ROADS
100
AcDbPolyline
 90
2
 70
0
 10
628698.5942612067
 20
4836373.062059397
 10
628605.6885227583
 20
4836342.61926437
  0
LWPOLYLINE
  5
2B3
330
17
100
AcDbEntity
  8
ROADS
100
AcDbPolyline
 90
2
 70
0
 10
628805.9023024519
 20
4836363.167580724
 10
628814.5807247775
 20
4836369.999117783
  0
LWPOLYLINE
  5
2B4
330
17
100
AcDbEntity
  8
ROADS
100
AcDbPolyline
 90
2
 70
0
 10
628805.9023024519
 20
4836363.167580724
 10
628794.331064188
 20
4836401.521925872
  0
LWPOLYLINE
  5
2B5
330
17
100
AcDbEntity
  8
ROADS
100
AcDbPolyline
 90
2
 70
0
 10
628794.331064188
 20
4836401.521925872
 10
628698.5942612067
 20
4836373.062059397
  0
LWPOLYLINE
  5
2B6
330
17
100
AcDbEntity
  8
ROADS
100
AcDbPolyline
 90
2
 70
0
 10
628794.331064188
 20
4836401.521925872
 10
628795.6543668831
 20
4836401.003240131
  0
LWPOLYLINE
  5
2B7
330
17
100
AcDbEntity
  8
ROADS
100
AcDbPolyline
 90
2
 70
0
 10
628795.1818139576
 20
4836401.777350438
 10
628794.331064188
 20
4836401.521925872
  0
LWPOLYLINE
  5
2B8
330
17
100
AcDbEntity
  8
ROADS
100
AcDbPolyline
 90
2
 70
0
 10
628605.6885227583
 20
4836342.61926437
 10
628561.3636422096
 20
4836490.675626185
  0
LWPOLYLINE
  5
2B9
330
17
100
AcDbEntity
  8
ROADS
100
AcDbPolyline
 90
2
 70
0
 10
628474.7852431023
 20
4836280.377387359
 10
628482.0904230373
 20
4836296.599533595
  0
LWPOLYLINE
  5
2BA
330
17
100
AcDbEntity
  8
ROADS
100
AcDbPolyline
 90
2
 70
0
 10
628487.9927717883
 20
4836282.387314685
 10
628482.0904230373
 20
4836296.599533595
  0
LWPOLYLINE
  5
2BB
330
17
100
AcDbEntity
  8
ROADS
100
AcDbPolyline
 90
2
 70
0
 10
628514.4129096895
 20
4836320.9155346025
 10
628487.9927717883
 20
4836282.387314685
  0
LWPOLYLINE
  5
2BC
330
17
100
AcDbEntity
  8
ROADS
100
AcDbPolyline
 90
2
 70
0
 10
628482.0904230373
 20
4836296.599533595
 10
628491.6687567405
 20
4836320.804305169
  0
LWPOLYLINE
  5
2BD
330
17
100
AcDbEntity
  8
ROADS
100
AcDbPolyline
 90
2
 70
0
 10
628474.7852431023
 20
4836280.377387359
 10
628483.6354107398
 20
4836340.686867306
  0
LWPOLYLINE
  5
2BE
330
17
100
AcDbEntity
  8
ROADS
100
AcDbPolyline
 90
2
 70
0
 10
628491.6687567405
 20
4836320.804305169
 10
628514.4129096895
 20
4836320.9155346025
  0
LWPOLYLINE
  5
2BF
330
17
100
AcDbEntity
  8
ROADS
100
AcDbPolyline
 90
2
 70
0
 10
628491.6687567405
 20
4836320.804305169
 10
628483.6354107398
 20
4836340.686867306
  0
LWPOLYLINE
  5
2C0
330
17
100
AcDbEntity
  8
ROADS
100
AcDbPolyline
 90
2
 70
0
 10
628514.4129096895
 20
4836320.9155346025
 10
628483.6354107398
 20
4836340.686867306
  0
LWPOLYLINE
  5
2C1
330
17
100
AcDbEntity
  8
ROADS
100
AcDbPolyline
 90
3
 70
0
 10
628483.6354107398
 20
4836340.686867306
 10
628466.7411527869
 20
4836402.418969881
 10
628427.8468932214
 20
4836450.796913094
  0
LWPOLYLINE
  5
2C2
330
17
100
AcDbEntity
  8
ROADS
100
AcDbPolyline
 90
2
 70
0
 10
628467.6436168904
 20
4836461.465168357
 10
628427.8468932214
 20
4836450.796913094
  0
LWPOLYLINE
  5
2C3
330
17
100
AcDbEntity
  8
ROADS
100
AcDbPolyline
 90
2
 70
0
 10
628203.3893901998
 20
4836285.9148469465
 10
628199.2135060532
 20
4836300.550296169
  0
LWPOLYLINE
  5
2C4
330
17
100
AcDbEntity
  8
ROADS
100
AcDbPolyline
 90
2
 70
0
 10
628293.727534898
 20
4836330.313078736
 10
628199.2135060532
 20
4836300.550296169
  0
LWPOLYLINE
  5
2C5
330
17
100
AcDbEntity
  8
ROADS
100
AcDbPolyline
 90
2
 70
0
 10
628091.3421347467
 20
4836267.4968137015
 10
628024.7285432155
 20
4836487.694609973
  0
LWPOLYLINE
  5
2C6
330
17
100
AcDbEntity
  8
ROADS
100
AcDbPolyline
 90
2
 70
0
 10
628199.2135060532
 20
4836300.550296169
 10
628130.7232589307
 20
4836522.766356211
  0
LWPOLYLINE
  5
2C7
330
17
100
AcDbEntity
  8
ROADS
100
AcDbPolyline
 90
2
 70
0
 10
628293.727534898
 20
4836330.313078736
 10
628226.4229963162
 20
4836550.943531607
  0
LWPOLYLINE
  5
2C8
330
17
100
AcDbEntity
  8
ROADS
100
AcDbPolyline
 90
2
 70
0
 10
628024.7285432155
 20
4836487.694609973
 10
628005.082780319
 20
4836482.302050501
  0
LWPOLYLINE
  5
2C9
330
17
100
AcDbEntity
  8
ROADS
100
AcDbPolyline
 90
2
 70
0
 10
628005.082780319
 20
4836482.302050501
 10
627991.1439156629
 20
4836524.001706128
  0
LWPOLYLINE
  5
2CA
330
17
100
AcDbEntity
  8
ROADS
100
AcDbPolyline
 90
2
 70
0
 10
628130.7232589307
 20
4836522.766356211
 10
628024.7285432155
 20
4836487.694609973
  0
LWPOLYLINE
  5
2CB
330
17
100
AcDbEntity
  8
ROADS
100
AcDbPolyline
 90
2
 70
0
 10
627991.1439156629
 20
4836524.001706128
 10
628031.2379549348
 20
4836535.701399325
  0
LWPOLYLINE
  5
2CC
330
17
100
AcDbEntity
  8
ROADS
100
AcDbPolyline
 90
2
 70
0
 10
628226.4229963162
 20
4836550.943531607
 10
628130.7232589307
 20
4836522.766356211
  0
LWPOLYLINE
  5
2CD
330
17
100
AcDbEntity
  8
ROADS
100
AcDbPolyline
 90
3
 70
0
 10
628427.8468932214
 20
4836450.796913094
 10
628375.3932114996
 20
4836436.817596827
 10
628357.1658826733
 20
4836494.897832924
  0
LWPOLYLINE
  5
2CE
330
17
100
AcDbEntity
  8
ROADS
100
AcDbPolyline
 90
2
 70
0
 10
628561.3636422096
 20
4836490.675626185
 10
628467.6436168904
 20
4836461.465168357
  0
LWPOLYLINE
  5
2CF
330
17
100
AcDbEntity
  8
ROADS
100
AcDbPolyline
 90
3
 70
0
 10
628357.1658826733
 20
4836494.897832924
 10
628308.2378993188
 20
4836476.053942559
 10
628294.5290817113
 20
4836525.245284369
  0
LWPOLYLINE
  5
2D0
330
17
100
AcDbEntity
  8
ROADS
100
AcDbPolyline
 90
2
 70
0
 10
628357.1658826733
 20
4836494.897832924
 10
628326.5983678219
 20
4836582.200348301
  0
LWPOLYLINE
  5
2D1
330
17
100
AcDbEntity
  8
ROADS
100
AcDbPolyline
 90
2
 70
0
 10
628467.6436168904
 20
4836461.465168357
 10
628403.6412205779
 20
4836669.870617173
  0
LWPOLYLINE
  5
2D2
330
17
100
AcDbEntity
  8
ROADS
100
AcDbPolyline
 90
2
 70
0
 10
628326.5983678219
 20
4836582.200348301
 10
628242.9964963829
 20
4836561.511385422
  0
LWPOLYLINE
  5
2D3
330
17
100
AcDbEntity
  8
ROADS
100
AcDbPolyline
 90
2
 70
0
 10
628561.3636422096
 20
4836490.675626185
 10
628496.4815010128
 20
4836698.951212539
  0
LWPOLYLINE
  5
2D4
330
17
100
AcDbEntity
  8
ROADS
100
AcDbPolyline
 90
2
 70
0
 10
628326.5983678219
 20
4836582.200348301
 10
628287.9959889257
 20
4836612.776867441
  0
LWPOLYLINE
  5
2D5
330
17
100
AcDbEntity
  8
ROADS
100
AcDbPolyline
 90
2
 70
0
 10
628326.5983678219
 20
4836582.200348301
 10
628313.6944255807
 20
4836637.926668532
  0
LWPOLYLINE
  5
2D6
330
17
100
AcDbEntity
  8
ROADS
100
AcDbPolyline
 90
2
 70
0
 10
628287.9959889257
 20
4836612.776867441
 10
628313.6944255807
 20
4836637.926668532
  0
LWPOLYLINE
  5
2D7
330
17
100
AcDbEntity
  8
ROADS
100
AcDbPolyline
 90
2
 70
0
 10
628130.7232589307
 20
4836522.766356211
 10
628119.7301852871
 20
4836558.32089139
  0
LWPOLYLINE
  5
2D8
330
17
100
AcDbEntity
  8
ROADS
100
AcDbPolyline
 90
2
 70
0
 10
628119.7301852871
 20
4836558.32089139
 10
628070.1773535267
 20
4836550.640427265
  0
LWPOLYLINE
  5
2D9
330
17
100
AcDbEntity
  8
ROADS
100
AcDbPolyline
 90
2
 70
0
 10
628242.9964963829
 20
4836561.511385422
 10
628226.4229963162
 20
4836550.943531607
  0
LWPOLYLINE
  5
2DA
330
17
100
AcDbEntity
  8
ROADS
100
AcDbPolyline
 90
3
 70
0
 10
628242.9964963829
 20
4836561.511385422
 10
628266.2015349532
 20
4836575.502368838
 10
628287.9959889257
 20
4836612.776867441
  0
LWPOLYLINE
  5
2DB
330
17
100
AcDbEntity
  8
ROADS
100
AcDbPolyline
 90
2
 70
0
 10
628242.9964963829
 20
4836561.511385422
 10
628223.2561295056
 20
4836629.791397685
  0
LWPOLYLINE
  5
2DC
330
17
100
AcDbEntity
  8
ROADS
100
AcDbPolyline
 90
3
 70
0
 10
628223.2561295056
 20
4836629.791397685
 10
628188.4670702904
 20
4836619.548702124
 10
628197.1439839603
 20
4836591.599776591
  0
LWPOLYLINE
  5
2DD
330
17
100
AcDbEntity
  8
ROADS
100
AcDbPolyline
 90
2
 70
0
 10
628287.9959889257
 20
4836612.776867441
 10
628230.9921797207
 20
4836646.076334546
  0
LWPOLYLINE
  5
2DE
330
17
100
AcDbEntity
  8
ROADS
100
AcDbPolyline
 90
2
 70
0
 10
628223.2561295056
 20
4836629.791397685
 10
628219.8982985674
 20
4836642.711523718
  0
LWPOLYLINE
  5
2DF
330
17
100
AcDbEntity
  8
ROADS
100
AcDbPolyline
 90
2
 70
0
 10
628230.9921797207
 20
4836646.076334546
 10
628219.8982985674
 20
4836642.711523718
  0
LWPOLYLINE
  5
2E0
330
17
100
AcDbEntity
  8
ROADS
100
AcDbPolyline
 90
2
 70
0
 10
628302.1914636694
 20
4836667.665120595
 10
628230.9921797207
 20
4836646.076334546
  0
LWPOLYLINE
  5
2E1
330
17
100
AcDbEntity
  8
ROADS
100
AcDbPolyline
 90
2
 70
0
 10
627509.5844842179
 20
4836267.03047758
 10
627445.4768741579
 20
4836477.620598841
  0
LWPOLYLINE
  5
2E2
330
17
100
AcDbEntity
  8
ROADS
100
AcDbPolyline
 90
2
 70
0
 10
627327.3763318355
 20
4836351.97040548
 10
627300.6392748511
 20
4836434.290111467
  0
LWPOLYLINE
  5
2E3
330
17
100
AcDbEntity
  8
ROADS
100
AcDbPolyline
 90
2
 70
0
 10
627270.1385947843
 20
4836380.574296982
 10
627266.7429523729
 20
4836391.879040793
  0
LWPOLYLINE
  5
2E4
330
17
100
AcDbEntity
  8
ROADS
100
AcDbPolyline
 90
2
 70
0
 10
627300.6392748511
 20
4836434.290111467
 10
627289.6463468047
 20
4836431.084474973
  0
LWPOLYLINE
  5
2E5
330
17
100
AcDbEntity
  8
ROADS
100
AcDbPolyline
 90
2
 70
0
 10
627349.1084114653
 20
4836447.336283551
 10
627300.6392748511
 20
4836434.290111467
  0
LWPOLYLINE
  5
2E6
330
17
100
AcDbEntity
  8
ROADS
100
AcDbPolyline
 90
2
 70
0
 10
627396.1322923242
 20
4836462.825480699
 10
627349.1084114653
 20
4836447.336283551
  0
LWPOLYLINE
  5
2E7
330
17
100
AcDbEntity
  8
ROADS
100
AcDbPolyline
 90
2
 70
0
 10
627300.6392748511
 20
4836434.290111467
 10
627297.543725176
 20
4836444.603001621
  0
LWPOLYLINE
  5
2E8
330
17
100
AcDbEntity
  8
ROADS
100
AcDbPolyline
 90
2
 70
0
 10
627445.4768741579
 20
4836477.620598841
 10
627396.1322923242
 20
4836462.825480699
  0
LWPOLYLINE
  5
2E9
330
17
100
AcDbEntity
  8
ROADS
100
AcDbPolyline
 90
2
 70
0
 10
627496.3791413478
 20
4836490.613772325
 10
627445.4768741579
 20
4836477.620598841
  0
LWPOLYLINE
  5
2EA
330
17
100
AcDbEntity
  8
ROADS
100
AcDbPolyline
 90
2
 70
0
 10
627536.7182462416
 20
4836356.682706725
 10
627514.9474579991
 20
4836427.610541201
  0
LWPOLYLINE
  5
2EB
330
17
100
AcDbEntity
  8
ROADS
100
AcDbPolyline
 90
2
 70
0
 10
627741.2970287934
 20
4836379.755058961
 10
627728.3269242585
 20
4836417.932977801
  0
LWPOLYLINE
  5
2EC
330
17
100
AcDbEntity
  8
ROADS
100
AcDbPolyline
 90
2
 70
0
 10
627728.3269242585
 20
4836417.932977801
 10
627713.0310786942
 20
4836468.587634689
  0
LWPOLYLINE
  5
2ED
330
17
100
AcDbEntity
  8
ROADS
100
AcDbPolyline
 90
2
 70
0
 10
627707.3675804224
 20
4836487.3444245625
 10
627514.9474579991
 20
4836427.610541201
  0
LWPOLYLINE
  5
2EE
330
17
100
AcDbEntity
  8
ROADS
100
AcDbPolyline
 90
2
 70
0
 10
627514.9474579991
 20
4836427.610541201
 10
627496.3791413478
 20
4836490.613772325
  0
LWPOLYLINE
  5
2EF
330
17
100
AcDbEntity
  8
ROADS
100
AcDbPolyline
 90
2
 70
0
 10
627713.0310786942
 20
4836468.587634689
 10
627707.3675804224
 20
4836487.3444245625
  0
LWPOLYLINE
  5
2F0
330
17
100
AcDbEntity
  8
ROADS
100
AcDbPolyline
 90
2
 70
0
 10
627496.3791413478
 20
4836490.613772325
 10
627488.6420836914
 20
4836516.805524863
  0
LWPOLYLINE
  5
2F1
330
17
100
AcDbEntity
  8
ROADS
100
AcDbPolyline
 90
3
 70
0
 10
627707.3675804224
 20
4836487.3444245625
 10
627750.5502608032
 20
4836502.889194078
 10
627748.8542434063
 20
4836535.957631679
  0
LWPOLYLINE
  5
2F2
330
17
100
AcDbEntity
  8
ROADS
100
AcDbPolyline
 90
2
 70
0
 10
627641.4079130895
 20
4836535.045834207
 10
627496.3791413478
 20
4836490.613772325
  0
LWPOLYLINE
  5
2F3
330
17
100
AcDbEntity
  8
ROADS
100
AcDbPolyline
 90
2
 70
0
 10
627707.3675804224
 20
4836487.3444245625
 10
627688.5244803875
 20
4836548.176582755
  0
LWPOLYLINE
  5
2F4
330
17
100
AcDbEntity
  8
ROADS
100
AcDbPolyline
 90
2
 70
0
 10
627943.880214937
 20
4836401.809290259
 10
627926.8406808678
 20
4836458.136817055
  0
LWPOLYLINE
  5
2F5
330
17
100
AcDbEntity
  8
ROADS
100
AcDbPolyline
 90
2
 70
0
 10
627824.1521835313
 20
4836449.449574054
 10
627728.3269242585
 20
4836417.932977801
  0
LWPOLYLINE
  5
2F6
330
17
100
AcDbEntity
  8
ROADS
100
AcDbPolyline
 90
2
 70
0
 10
627874.9710595333
 20
4836465.730459473
 10
627824.1521835313
 20
4836449.449574054
  0
LWPOLYLINE
  5
2F7
330
17
100
AcDbEntity
  8
ROADS
100
AcDbPolyline
 90
2
 70
0
 10
627713.0310786942
 20
4836468.587634689
 10
627824.1521835313
 20
4836449.449574054
  0
LWPOLYLINE
  5
2F8
330
17
100
AcDbEntity
  8
ROADS
100
AcDbPolyline
 90
2
 70
0
 10
627926.8406808678
 20
4836458.136817055
 10
627920.1008383437
 20
4836479.729339677
  0
LWPOLYLINE
  5
2F9
330
17
100
AcDbEntity
  8
ROADS
100
AcDbPolyline
 90
2
 70
0
 10
628005.082780319
 20
4836482.302050501
 10
627926.8406808678
 20
4836458.136817055
  0
LWPOLYLINE
  5
2FA
330
17
100
AcDbEntity
  8
ROADS
100
AcDbPolyline
 90
2
 70
0
 10
627920.1008383437
 20
4836479.729339677
 10
627874.9710595333
 20
4836465.730459473
  0
LWPOLYLINE
  5
2FB
330
17
100
AcDbEntity
  8
ROADS
100
AcDbPolyline
 90
2
 70
0
 10
627874.9710595333
 20
4836465.730459473
 10
627850.945674519
 20
4836531.150241634
  0
LWPOLYLINE
  5
2FC
330
17
100
AcDbEntity
  8
ROADS
100
AcDbPolyline
 90
2
 70
0
 10
627824.1521835313
 20
4836449.449574054
 10
627793.0053355251
 20
4836551.427914472
  0
LWPOLYLINE
  5
2FD
330
17
100
AcDbEntity
  8
ROADS
100
AcDbPolyline
 90
2
 70
0
 10
627748.8542434063
 20
4836535.957631679
 10
627793.0053355251
 20
4836551.427914472
  0
LWPOLYLINE
  5
2FE
330
17
100
AcDbEntity
  8
ROADS
100
AcDbPolyline
 90
2
 70
0
 10
627396.1322923242
 20
4836462.825480699
 10
627382.9965124779
 20
4836507.787785584
  0
LWPOLYLINE
  5
2FF
330
17
100
AcDbEntity
  8
ROADS
100
AcDbPolyline
 90
2
 70
0
 10
627336.410495445
 20
4836493.248058892
 10
627331.5021062231
 20
4836491.891101424
  0
LWPOLYLINE
  5
300
330
17
100
AcDbEntity
  8
ROADS
100
AcDbPolyline
 90
2
 70
0
 10
627382.9965124779
 20
4836507.787785584
 10
627336.410495445
 20
4836493.248058892
  0
LWPOLYLINE
  5
301
330
17
100
AcDbEntity
  8
ROADS
100
AcDbPolyline
 90
2
 70
0
 10
627432.3618465742
 20
4836522.928306688
 10
627382.9965124779
 20
4836507.787785584
  0
LWPOLYLINE
  5
302
330
17
100
AcDbEntity
  8
ROADS
100
AcDbPolyline
 90
2
 70
0
 10
627482.307996029
 20
4836538.247345074
 10
627432.3618465742
 20
4836522.928306688
  0
LWPOLYLINE
  5
303
330
17
100
AcDbEntity
  8
ROADS
100
AcDbPolyline
 90
2
 70
0
 10
627482.307996029
 20
4836538.247345074
 10
627476.5237022466
 20
4836557.8219881365
  0
LWPOLYLINE
  5
304
330
17
100
AcDbEntity
  8
ROADS
100
AcDbPolyline
 90
2
 70
0
 10
627488.6420836914
 20
4836516.805524863
 10
627482.307996029
 20
4836538.247345074
  0
LWPOLYLINE
  5
305
330
17
100
AcDbEntity
  8
ROADS
100
AcDbPolyline
 90
2
 70
0
 10
627748.8542434063
 20
4836535.957631679
 10
627722.391145861
 20
4836533.15997409
  0
LWPOLYLINE
  5
306
330
17
100
AcDbEntity
  8
ROADS
100
AcDbPolyline
 90
2
 70
0
 10
627632.017416697
 20
4836565.182450671
 10
627488.6420836914
 20
4836516.805524863
  0
LWPOLYLINE
  5
307
330
17
100
AcDbEntity
  8
ROADS
100
AcDbPolyline
 90
2
 70
0
 10
627688.5244803875
 20
4836548.176582755
 10
627641.4079130895
 20
4836535.045834207
  0
LWPOLYLINE
  5
308
330
17
100
AcDbEntity
  8
ROADS
100
AcDbPolyline
 90
2
 70
0
 10
627641.4079130895
 20
4836535.045834207
 10
627632.017416697
 20
4836565.182450671
  0
LWPOLYLINE
  5
309
330
17
100
AcDbEntity
  8
ROADS
100
AcDbPolyline
 90
2
 70
0
 10
627748.8542434063
 20
4836535.957631679
 10
627728.9276259623
 20
4836568.165384627
  0
LWPOLYLINE
  5
30A
330
17
100
AcDbEntity
  8
ROADS
100
AcDbPolyline
 90
2
 70
0
 10
627688.5244803875
 20
4836548.176582755
 10
627684.9385428171
 20
4836559.332452605
  0
LWPOLYLINE
  5
30B
330
17
100
AcDbEntity
  8
ROADS
100
AcDbPolyline
 90
2
 70
0
 10
627728.9276259623
 20
4836568.165384627
 10
627684.9385428171
 20
4836559.332452605
  0
LWPOLYLINE
  5
30C
330
17
100
AcDbEntity
  8
ROADS
100
AcDbPolyline
 90
2
 70
0
 10
627621.6688892503
 20
4836602.894222088
 10
627476.5237022466
 20
4836557.8219881365
  0
LWPOLYLINE
  5
30D
330
17
100
AcDbEntity
  8
ROADS
100
AcDbPolyline
 90
2
 70
0
 10
627632.017416697
 20
4836565.182450671
 10
627621.6688892503
 20
4836602.894222088
  0
LWPOLYLINE
  5
30E
330
17
100
AcDbEntity
  8
ROADS
100
AcDbPolyline
 90
2
 70
0
 10
627991.1439156629
 20
4836524.001706128
 10
627973.8703537188
 20
4836576.733772449
  0
LWPOLYLINE
  5
30F
330
17
100
AcDbEntity
  8
ROADS
100
AcDbPolyline
 90
2
 70
0
 10
627937.4937622286
 20
4836565.631330084
 10
627943.511440363
 20
4836545.704857416
  0
LWPOLYLINE
  5
310
330
17
100
AcDbEntity
  8
ROADS
100
AcDbPolyline
 90
2
 70
0
 10
627973.8703537188
 20
4836576.733772449
 10
627937.4937622286
 20
4836565.631330084
  0
LWPOLYLINE
  5
311
330
17
100
AcDbEntity
  8
ROADS
100
AcDbPolyline
 90
2
 70
0
 10
627937.4937622286
 20
4836565.631330084
 10
627932.2592902008
 20
4836582.2307499
  0
LWPOLYLINE
  5
312
330
17
100
AcDbEntity
  8
ROADS
100
AcDbPolyline
 90
2
 70
0
 10
627793.0053355251
 20
4836551.427914472
 10
627779.0983848063
 20
4836597.2803824665
  0
LWPOLYLINE
  5
313
330
17
100
AcDbEntity
  8
ROADS
100
AcDbPolyline
 90
2
 70
0
 10
627920.1008383437
 20
4836479.729339677
 10
627858.8181930314
 20
4836679.480067669
  0
LWPOLYLINE
  5
314
330
17
100
AcDbEntity
  8
ROADS
100
AcDbPolyline
 90
2
 70
0
 10
627828.7866775652
 20
4836612.869801786
 10
627844.3676232297
 20
4836560.055150491
  0
LWPOLYLINE
  5
315
330
17
100
AcDbEntity
  8
ROADS
100
AcDbPolyline
 90
2
 70
0
 10
627779.0983848063
 20
4836597.2803824665
 10
627828.7866775652
 20
4836612.869801786
  0
LWPOLYLINE
  5
316
330
17
100
AcDbEntity
  8
ROADS
100
AcDbPolyline
 90
2
 70
0
 10
627779.0983848063
 20
4836597.2803824665
 10
627763.5264471639
 20
4836648.214064977
  0
LWPOLYLINE
  5
317
330
17
100
AcDbEntity
  8
ROADS
100
AcDbPolyline
 90
2
 70
0
 10
627813.1474677327
 20
4836664.592325141
 10
627828.7866775652
 20
4836612.869801786
  0
LWPOLYLINE
  5
318
330
17
100
AcDbEntity
  8
ROADS
100
AcDbPolyline
 90
2
 70
0
 10
627336.410495445
 20
4836493.248058892
 10
627335.2625294093
 20
4836497.091892702
  0
LWPOLYLINE
  5
319
330
17
100
AcDbEntity
  8
ROADS
100
AcDbPolyline
 90
2
 70
0
 10
627382.9965124779
 20
4836507.787785584
 10
627372.9885262442
 20
4836542.036441298
  0
LWPOLYLINE
  5
31A
330
17
100
AcDbEntity
  8
ROADS
100
AcDbPolyline
 90
2
 70
0
 10
627476.5237022466
 20
4836557.8219881365
 10
627460.5656318425
 20
4836608.928655384
  0
LWPOLYLINE
  5
31B
330
17
100
AcDbEntity
  8
ROADS
100
AcDbPolyline
 90
2
 70
0
 10
627432.3618465742
 20
4836522.928306688
 10
627413.594028613
 20
4836584.740688678
  0
LWPOLYLINE
  5
31C
330
17
100
AcDbEntity
  8
ROADS
100
AcDbPolyline
 90
2
 70
0
 10
627504.9925737141
 20
4836624.405923357
 10
627460.5656318425
 20
4836608.928655384
  0
LWPOLYLINE
  5
31D
330
17
100
AcDbEntity
  8
ROADS
100
AcDbPolyline
 90
2
 70
0
 10
627460.5656318425
 20
4836608.928655384
 10
627455.8917341374
 20
4836624.256533139
  0
LWPOLYLINE
  5
31E
330
17
100
AcDbEntity
  8
ROADS
100
AcDbPolyline
 90
2
 70
0
 10
627684.9385428171
 20
4836559.332452605
 10
627665.8770281058
 20
4836618.637556936
  0
LWPOLYLINE
  5
31F
330
17
100
AcDbEntity
  8
ROADS
100
AcDbPolyline
 90
3
 70
0
 10
627728.9276259623
 20
4836568.165384627
 10
627743.429637641
 20
4836579.885342457
 10
627731.6912244558
 20
4836638.601830072
  0
LWPOLYLINE
  5
320
330
17
100
AcDbEntity
  8
ROADS
100
AcDbPolyline
 90
2
 70
0
 10
627665.8770281058
 20
4836618.637556936
 10
627621.6688892503
 20
4836602.894222088
  0
LWPOLYLINE
  5
321
330
17
100
AcDbEntity
  8
ROADS
100
AcDbPolyline
 90
2
 70
0
 10
627712.9765789742
 20
4836632.6540667275
 10
627720.7424008936
 20
4836617.924547323
  0
LWPOLYLINE
  5
322
330
17
100
AcDbEntity
  8
ROADS
100
AcDbPolyline
 90
2
 70
0
 10
627712.9765789742
 20
4836632.6540667275
 10
627665.8770281058
 20
4836618.637556936
  0
LWPOLYLINE
  5
323
330
17
100
AcDbEntity
  8
ROADS
100
AcDbPolyline
 90
2
 70
0
 10
627621.6688892503
 20
4836602.894222088
 10
627604.8455325803
 20
4836656.999453375
  0
LWPOLYLINE
  5
324
330
17
100
AcDbEntity
  8
ROADS
100
AcDbPolyline
 90
2
 70
0
 10
627731.6912244558
 20
4836638.601830072
 10
627712.9765789742
 20
4836632.6540667275
  0
LWPOLYLINE
  5
325
330
17
100
AcDbEntity
  8
ROADS
100
AcDbPolyline
 90
2
 70
0
 10
627604.8455325803
 20
4836656.999453375
 10
627504.9925737141
 20
4836624.405923357
  0
LWPOLYLINE
  5
326
330
17
100
AcDbEntity
  8
ROADS
100
AcDbPolyline
 90
2
 70
0
 10
627763.5264471639
 20
4836648.214064977
 10
627731.6912244558
 20
4836638.601830072
  0
LWPOLYLINE
  5
327
330
17
100
AcDbEntity
  8
ROADS
100
AcDbPolyline
 90
2
 70
0
 10
627504.9925737141
 20
4836624.405923357
 10
627495.5677814817
 20
4836657.024986724
  0
LWPOLYLINE
  5
328
330
17
100
AcDbEntity
  8
ROADS
100
AcDbPolyline
 90
2
 70
0
 10
627712.9765789742
 20
4836632.6540667275
 10
627696.950204164
 20
4836687.70278185
  0
LWPOLYLINE
  5
329
330
17
100
AcDbEntity
  8
ROADS
100
AcDbPolyline
 90
2
 70
0
 10
627665.8770281058
 20
4836618.637556936
 10
627633.1086280453
 20
4836730.7041523075
  0
LWPOLYLINE
  5
32A
330
17
100
AcDbEntity
  8
ROADS
100
AcDbPolyline
 90
2
 70
0
 10
627604.8455325803
 20
4836656.999453375
 10
627587.0108115588
 20
4836715.987700589
  0
LWPOLYLINE
  5
32B
330
17
100
AcDbEntity
  8
ROADS
100
AcDbPolyline
 90
2
 70
0
 10
627587.0108115588
 20
4836715.987700589
 10
627563.493865754
 20
4836708.62183979
  0
LWPOLYLINE
  5
32C
330
17
100
AcDbEntity
  8
ROADS
100
AcDbPolyline
 90
2
 70
0
 10
627696.950204164
 20
4836687.70278185
 10
627679.2961391938
 20
4836745.825255449
  0
LWPOLYLINE
  5
32D
330
17
100
AcDbEntity
  8
ROADS
100
AcDbPolyline
 90
2
 70
0
 10
627633.1086280453
 20
4836730.7041523075
 10
627587.0108115588
 20
4836715.987700589
  0
LWPOLYLINE
  5
32E
330
17
100
AcDbEntity
  8
ROADS
100
AcDbPolyline
 90
3
 70
0
 10
627777.2886332644
 20
4836778.440198681
 10
627794.6255824496
 20
4836719.65993379
 10
627696.950204164
 20
4836687.70278185
  0
LWPOLYLINE
  5
32F
330
17
100
AcDbEntity
  8
ROADS
100
AcDbPolyline
 90
2
 70
0
 10
627679.2961391938
 20
4836745.825255449
 10
627633.1086280453
 20
4836730.7041523075
  0
LWPOLYLINE
  5
330
330
17
100
AcDbEntity
  8
ROADS
100
AcDbPolyline
 90
2
 70
0
 10
627587.0108115588
 20
4836715.987700589
 10
627585.0588094393
 20
4836722.332118691
  0
LWPOLYLINE
  5
331
330
17
100
AcDbEntity
  8
ROADS
100
AcDbPolyline
 90
2
 70
0
 10
627813.1474677327
 20
4836664.592325141
 10
627763.5264471639
 20
4836648.214064977
  0
LWPOLYLINE
  5
332
330
17
100
AcDbEntity
  8
ROADS
100
AcDbPolyline
 90
2
 70
0
 10
627858.8181930314
 20
4836679.480067669
 10
627813.1474677327
 20
4836664.592325141
  0
LWPOLYLINE
  5
333
330
17
100
AcDbEntity
  8
ROADS
100
AcDbPolyline
 90
2
 70
0
 10
627973.8703537188
 20
4836576.733772449
 10
627901.5924647893
 20
4836815.887227321
  0
LWPOLYLINE
  5
334
330
17
100
AcDbEntity
  8
ROADS
100
AcDbPolyline
 90
2
 70
0
 10
627858.8181930314
 20
4836679.480067669
 10
627823.9600275308
 20
4836793.681071683
  0
LWPOLYLINE
  5
335
330
17
100
AcDbEntity
  8
ROADS
100
AcDbPolyline
 90
2
 70
0
 10
627823.9600275308
 20
4836793.681071683
 10
627777.2886332644
 20
4836778.440198681
  0
LWPOLYLINE
  5
336
330
17
100
AcDbEntity
  8
ROADS
100
AcDbPolyline
 90
2
 70
0
 10
627901.5924647893
 20
4836815.887227321
 10
627823.9600275308
 20
4836793.681071683
  0
LWPOLYLINE
  5
337
330
17
100
AcDbEntity
  8
ROADS
100
AcDbPolyline
 90
2
 70
0
 10
627823.9600275308
 20
4836793.681071683
 10
627813.5804603958
 20
4836827.233108286
  0
LWPOLYLINE
  5
338
330
17
100
AcDbEntity
  8
ROADS
100
AcDbPolyline
 90
2
 70
0
 10
628028.8772138611
 20
4836855.453320341
 10
627901.5924647893
 20
4836815.887227321
  0
LWPOLYLINE
  5
339
330
17
100
AcDbEntity
  8
ROADS
100
AcDbPolyline
 90
2
 70
0
 10
627901.5924647893
 20
4836815.887227321
 10
627891.2622631686
 20
4836847.798736327
  0
LWPOLYLINE
  5
33A
330
17
100
AcDbEntity
  8
ROADS
100
AcDbPolyline
 90
2
 70
0
 10
628698.5942612067
 20
4836373.062059397
 10
628619.7451216711
 20
4836634.307500102
  0
LWPOLYLINE
  5
33B
330
17
100
AcDbEntity
  8
ROADS
100
AcDbPolyline
 90
2
 70
0
 10
628794.331064188
 20
4836401.521925872
 10
628793.3147632943
 20
4836404.835850521
  0
LWPOLYLINE
  5
33C
330
17
100
AcDbEntity
  8
ROADS
100
AcDbPolyline
 90
2
 70
0
 10
628119.7301852871
 20
4836558.32089139
 10
628028.8772138611
 20
4836855.453320341
  0
LWPOLYLINE
  5
33D
330
17
100
AcDbEntity
  8
ROADS
100
AcDbPolyline
 90
2
 70
0
 10
628219.8982985674
 20
4836642.711523718
 10
628144.4579702076
 20
4836859.887279112
  0
LWPOLYLINE
  5
33E
330
17
100
AcDbEntity
  8
ROADS
100
AcDbPolyline
 90
2
 70
0
 10
628302.1914636694
 20
4836667.665120595
 10
628248.2313494013
 20
4836841.305417267
  0
LWPOLYLINE
  5
33F
330
17
100
AcDbEntity
  8
ROADS
100
AcDbPolyline
 90
2
 70
0
 10
628059.0594111035
 20
4836864.823059128
 10
628028.8772138611
 20
4836855.453320341
  0
LWPOLYLINE
  5
340
330
17
100
AcDbEntity
  8
ROADS
100
AcDbPolyline
 90
2
 70
0
 10
628028.8772138611
 20
4836855.453320341
 10
628025.9386457672
 20
4836863.984360973
  0
LWPOLYLINE
  5
341
330
17
100
AcDbEntity
  8
ROADS
100
AcDbPolyline
 90
2
 70
0
 10
628313.6944255807
 20
4836637.926668532
 10
628302.1914636694
 20
4836667.665120595
  0
LWPOLYLINE
  5
342
330
17
100
AcDbEntity
  8
ROADS
100
AcDbPolyline
 90
2
 70
0
 10
628403.6412205779
 20
4836669.870617173
 10
628313.6944255807
 20
4836637.926668532
  0
LWPOLYLINE
  5
343
330
17
100
AcDbEntity
  8
ROADS
100
AcDbPolyline
 90
2
 70
0
 10
628496.4815010128
 20
4836698.951212539
 10
628403.6412205779
 20
4836669.870617173
  0
LWPOLYLINE
  5
344
330
17
100
AcDbEntity
  8
ROADS
100
AcDbPolyline
 90
2
 70
0
 10
628530.9850178417
 20
4836708.992501691
 10
628496.4815010128
 20
4836698.951212539
  0
LWPOLYLINE
  5
345
330
17
100
AcDbEntity
  8
ROADS
100
AcDbPolyline
 90
2
 70
0
 10
628403.6412205779
 20
4836669.870617173
 10
628361.8780279516
 20
4836804.832402223
  0
LWPOLYLINE
  5
346
330
17
100
AcDbEntity
  8
ROADS
100
AcDbPolyline
 90
2
 70
0
 10
628496.4815010128
 20
4836698.951212539
 10
628483.4083598641
 20
4836741.892735823
  0
LWPOLYLINE
  5
347
330
17
100
AcDbEntity
  8
ROADS
100
AcDbPolyline
 90
2
 70
0
 10
627777.2886332644
 20
4836778.440198681
 10
627679.2961391938
 20
4836745.825255449
  0
LWPOLYLINE
  5
348
330
17
100
AcDbEntity
  8
ROADS
100
AcDbPolyline
 90
2
 70
0
 10
627633.1086280453
 20
4836730.7041523075
 10
627626.1367779432
 20
4836748.294569177
  0
LWPOLYLINE
  5
349
330
17
100
AcDbEntity
  8
ROADS
100
AcDbPolyline
 90
2
 70
0
 10
627679.2961391938
 20
4836745.825255449
 10
627671.4669046542
 20
4836771.588536891
  0
LWPOLYLINE
  5
34A
330
17
100
AcDbEntity
  8
ROADS
100
AcDbPolyline
 90
2
 70
0
 10
627777.2886332644
 20
4836778.440198681
 10
627766.9333517451
 20
4836811.7573702885
  0
ENDSEC
  0
SECTION
  2
OBJECTS
  0
DICTIONARY
  5
A
330
0
100
AcDbDictionary
281
1
  3
ACAD_COLOR
350
B
  3
ACAD_GROUP
350
C
  3
ACAD_LAYOUT
350
D
  3
ACAD_MATERIAL
350
E
  3
ACAD_MLEADERSTYLE
350
F
  3
ACAD_MLINESTYLE
350
10
  3
ACAD_PLOTSETTINGS
350
11
  3
ACAD_PLOTSTYLENAME
350
12
  3
ACAD_SCALELIST
350
14
  3
ACAD_TABLESTYLE
350
15
  3
ACAD_VISUALSTYLE
350
16
  3
EZDXF_META
350
2D
  0
DICTIONARY
  5
B
330
A
100
AcDbDictionary
281
1
  0
DICTIONARY
  5
C
330
A
100
AcDbDictionary
281
1
  0
DICTIONARY
  5
D
330
A
100
AcDbDictionary
281
1
  3
Model
350
1A
  3
Layout1
350
1E
  0
DICTIONARY
  5
E
330
A
100
AcDbDictionary
281
1
  3
ByBlock
350
1F
  3
ByLayer
350
20
  3
Global
350
21
  0
DICTIONARY
  5
F
330
A
100
AcDbDictionary
281
1
  3
Standard
350
2C
  0
DICTIONARY
  5
10
330
A
100
AcDbDictionary
281
1
  3
Standard
350
22
  0
DICTIONARY
  5
11
330
A
100
AcDbDictionary
281
1
  0
ACDBDICTIONARYWDFLT
  5
12
330
A
100
AcDbDictionary
281
1
  3
Normal
350
13
100
AcDbDictionaryWithDefault
340
13
  0
ACDBPLACEHOLDER
  5
13
330
12
  0
DICTIONARY
  5
14
330
A
100
AcDbDictionary
281
1
  0
DICTIONARY
  5
15
330
A
100
AcDbDictionary
281
1
  0
DICTIONARY
  5
16
330
A
100
AcDbDictionary
281
1
  0
LAYOUT
  5
1A
330
D
100
AcDbPlotSettings
  1

  4
A3
  6

 40
7.5
 41
20.0
 42
7.5
 43
20.0
 44
420.0
 45
297.0
 46
0.0
 47
0.0
 48
0.0
 49
0.0
140
0.0
141
0.0
142
1.0
143
1.0
 70
1024
 72
1
 73
0
 74
5
  7

 75
16
 76
0
 77
2
 78
300
147
1.0
148
0.0
149
0.0
100
AcDbLayout
  1
Model
 70
1
 71
0
 10
0.0
 20
0.0
 11
420.0
 21
297.0
 12
0.0
 22
0.0
 32
0.0
 14
1e+20
 24
1e+20
 34
1e+20
 15
-1e+20
 25
-1e+20
 35
-1e+20
146
0.0
 13
0.0
 23
0.0
 33
0.0
 16
1.0
 26
0.0
 36
0.0
 17
0.0
 27
1.0
 37
0.0
 76
1
330
17
  0
LAYOUT
  5
1E
330
D
100
AcDbPlotSettings
  1

  4
A3
  6

 40
7.5
 41
20.0
 42
7.5
 43
20.0
 44
420.0
 45
297.0
 46
0.0
 47
0.0
 48
0.0
 49
0.0
140
0.0
141
0.0
142
1.0
143
1.0
 70
0
 72
1
 73
0
 74
5
  7

 75
16
 76
0
 77
2
 78
300
147
1.0
148
0.0
149
0.0
100
AcDbLayout
  1
Layout1
 70
1
 71
1
 10
0.0
 20
0.0
 11
420.0
 21
297.0
 12
0.0
 22
0.0
 32
0.0
 14
1e+20
 24
1e+20
 34
1e+20
 15
-1e+20
 25
-1e+20
 35
-1e+20
146
0.0
 13
0.0
 23
0.0
 33
0.0
 16
1.0
 26
0.0
 36
0.0
 17
0.0
 27
1.0
 37
0.0
 76
1
330
1B
  0
MATERIAL
  5
1F
102
{ACAD_REACTORS
330
E
102
}
330
E
100
AcDbMaterial
  1
ByBlock
  2

 70
0
 40
1.0
 71
1
 41
1.0
 91
-1023410177
 42
1.0
 72
1
  3

 73
1
 74
1
 75
1
 44
0.5
 73
0
 45
1.0
 46
1.0
 77
1
  4

 78
1
 79
1
170
1
 48
1.0
171
1
  6

172
1
173
1
174
1
140
1.0
141
1.0
175
1
  7

176
1
177
1
178
1
143
1.0
179
1
  8

270
1
271
1
272
1
145
1.0
146
1.0
273
1
  9

274
1
275
1
276
1
 42
1.0
 72
1
  3

 73
1
 74
1
 75
1
 94
63
  0
MATERIAL
  5
20
102
{ACAD_REACTORS
330
E
102
}
330
E
100
AcDbMaterial
  1
ByLayer
  2

 70
0
 40
1.0
 71
1
 41
1.0
 91
-1023410177
 42
1.0
 72
1
  3

 73
1
 74
1
 75
1
 44
0.5
 73
0
 45
1.0
 46
1.0
 77
1
  4

 78
1
 79
1
170
1
 48
1.0
171
1
  6

172
1
173
1
174
1
140
1.0
141
1.0
175
1
  7

176
1
177
1
178
1
143
1.0
179
1
  8

270
1
271
1
272
1
145
1.0
146
1.0
273
1
  9

274
1
275
1
276
1
 42
1.0
 72
1
  3

 73
1
 74
1
 75
1
 94
63
  0
MATERIAL
  5
21
102
{ACAD_REACTORS
330
E
102
}
330
E
100
AcDbMaterial
  1
Global
  2

 70
0
 40
1.0
 71
1
 41
1.0
 91
-1023410177
 42
1.0
 72
1
  3

 73
1
 74
1
 75
1
 44
0.5
 73
0
 45
1.0
 46
1.0
 77
1
  4

 78
1
 79
1
170
1
 48
1.0
171
1
  6

172
1
173
1
174
1
140
1.0
141
1.0
175
1
  7

176
1
177
1
178
1
143
1.0
179
1
  8

270
1
271
1
272
1
145
1.0
146
1.0
273
1
  9

274
1
275
1
276
1
 42
1.0
 72
1
  3

 73
1
 74
1
 75
1
 94
63
  0
MLINESTYLE
  5
22
102
{ACAD_REACTORS
330
10
102
}
330
10
100
AcDbMlineStyle
  2
Standard
 70
0
  3

 62
256
 51
90.0
 52
90.0
 71
2
 49
0.5
 62
256
  6
BYLAYER
 49
-0.5
 62
256
  6
BYLAYER
  0
MLEADERSTYLE
  5
2C
102
{ACAD_REACTORS
330
F
102
}
330
F
100
AcDbMLeaderStyle
179
2
170
2
171
1
172
0
 90
2
 40
0.0
 41
0.0
173
1
 91
-1056964608
 92
-2
290
1
 42
2.0
291
1
 43
8.0
  3
Standard
 44
4.0
300

342
29
174
1
175
1
176
0
178
1
 93
-1056964608
 45
4.0
292
0
297
0
 46
4.0
 94
-1056964608
 47
1.0
 49
1.0
140
1.0
294
1
141
0.0
177
0
142
1.0
295
0
296
0
143
3.75
271
0
272
9
273
9
  0
DICTIONARY
  5
2D
330
A
100
AcDbDictionary
280
1
281
1
  3
CREATED_BY_EZDXF
350
2E
  3
WRITTEN_BY_EZDXF
350
34D
  0
DICTIONARYVAR
  5
2E
330
2D
100
DictionaryVariables
280
0
  1
1.4.4 @ 2026-07-07T18:25:09.413385+00:00
  0
DICTIONARYVAR
  5
34D
330
2D
100
DictionaryVariables
280
0
  1
1.4.4 @ 2026-07-07T18:25:09.435710+00:00
  0
ENDSEC
  0
EOF
