  0
SECTION
  2
HEADER
  9
$ACADVER
  1
AC1015
  9
$ACADMAINTVER
 70
6
  9
$DWGCODEPAGE
  3
ANSI_1252
  9
$INSBASE
 10
0.0
 20
0.0
 30
0.0
  9
$EXTMIN
 10
1e+20
 20
1e+20
 30
1e+20
  9
$EXTMAX
 10
-1e+20
 20
-1e+20
 30
-1e+20
  9
$LIMMIN
 10
0.0
 20
0.0
  9
$LIMMAX
 10
420.0
 20
297.0
  9
$ORTHOMODE
 70
0
  9
$REGENMODE
 70
1
  9
$FILLMODE
 70
1
  9
$QTEXTMODE
 70
0
  9
$MIRRTEXT
 70
1
  9
$LTSCALE
 40
1.0
  9
$ATTMODE
 70
1
  9
$TEXTSIZE
 40
2.5
  9
$TRACEWID
 40
1.0
  9
$TEXTSTYLE
  7
Standard
  9
$CLAYER
  8
0
  9
$CELTYPE
  6
ByLayer
  9
$CECOLOR
 62
256
  9
$CELTSCALE
 40
1.0
  9
$DISPSILH
 70
0
  9
$DIMSCALE
 40
1.0
  9
$DIMASZ
 40
2.5
  9
$DIMEXO
 40
0.625
  9
$DIMDLI
 40
3.75
  9
$DIMRND
 40
0.0
  9
$DIMDLE
 40
0.0
  9
$DIMEXE
 40
1.25
  9
$DIMTP
 40
0.0
  9
$DIMTM
 40
0.0
  9
$DIMTXT
 40
2.5
  9
$DIMCEN
 40
2.5
  9
$DIMTSZ
 40
0.0
  9
$DIMTOL
 70
0
  9
$DIMLIM
 70
0
  9
$DIMTIH
 70
0
  9
$DIMTOH
 70
0
  9
$DIMSE1
 70
0
  9
$DIMSE2
 70
0
  9
$DIMTAD
 70
1
  9
$DIMZIN
 70
8
  9
$DIMBLK
  1

  9
$DIMASO
 70
1
  9
$DIMSHO
 70
1
  9
$DIMPOST
  1

  9
$DIMAPOST
  1

  9
$DIMALT
 70
0
  9
$DIMALTD
 70
3
  9
$DIMALTF
 40
0.03937007874
  9
$DIMLFAC
 40
1.0
  9
$DIMTOFL
 70
1
  9
$DIMTVP
 40
0.0
  9
$DIMTIX
 70
0
  9
$DIMSOXD
 70
0
  9
$DIMSAH
 70
0
  9
$DIMBLK1
  1

  9
$DIMBLK2
  1

  9
$DIMSTYLE
  2
ISO-25
  9
$DIMCLRD
 70
0
  9
$DIMCLRE
 70
0
  9
$DIMCLRT
 70
0
  9
$DIMTFAC
 40
1.0
  9
$DIMGAP
 40
0.625
  9
$DIMJUST
 70
0
  9
$DIMSD1
 70
0
  9
$DIMSD2
 70
0
  9
$DIMTOLJ
 70
0
  9
$DIMTZIN
 70
8
  9
$DIMALTZ
 70
0
  9
$DIMALTTZ
 70
0
  9
$DIMUPT
 70
0
  9
$DIMDEC
 70
2
  9
$DIMTDEC
 70
2
  9
$DIMALTU
 70
2
  9
$DIMALTTD
 70
3
  9
$DIMTXSTY
  7
Standard
  9
$DIMAUNIT
 70
0
  9
$DIMADEC
 70
0
  9
$DIMALTRND
 40
0.0
  9
$DIMAZIN
 70
0
  9
$DIMDSEP
 70
44
  9
$DIMATFIT
 70
3
  9
$DIMFRAC
 70
0
  9
$DIMLDRBLK
  1

  9
$DIMLUNIT
 70
2
  9
$DIMLWD
 70
-2
  9
$DIMLWE
 70
-2
  9
$DIMTMOVE
 70
0
  9
$LUNITS
 70
2
  9
$LUPREC
 70
4
  9
$SKETCHINC
 40
1.0
  9
$FILLETRAD
 40
10.0
  9
$AUNITS
 70
0
  9
$AUPREC
 70
2
  9
$MENU
  1
.
  9
$ELEVATION
 40
0.0
  9
$PELEVATION
 40
0.0
  9
$THICKNESS
 40
0.0
  9
$LIMCHECK
 70
0
  9
$CHAMFERA
 40
0.0
  9
$CHAMFERB
 40
0.0
  9
$CHAMFERC
 40
0.0
  9
$CHAMFERD
 40
0.0
  9
$SKPOLY
 70
0
  9
$TDCREATE
 40
2461229.097511574
  9
$TDUCREATE
 40
2458532.153996898
  9
$TDUPDATE
 40
2461229.097511574
  9
$TDUUPDATE
 40
2458532.1544311
  9
$TDINDWG
 40
0.0
  9
$TDUSRTIMER
 40
0.0
  9
$USRTIMER
 70
1
  9
$ANGBASE
 50
0.0
  9
$ANGDIR
 70
0
  9
$PDMODE
 70
0
  9
$PDSIZE
 40
0.0
  9
$PLINEWID
 40
0.0
  9
$SPLFRAME
 70
0
  9
$SPLINETYPE
 70
6
  9
$SPLINESEGS
 70
8
  9
$HANDSEED
  5
1B2
  9
$SURFTAB1
 70
6
  9
$SURFTAB2
 70
6
  9
$SURFTYPE
 70
6
  9
$SURFU
 70
6
  9
$SURFV
 70
6
  9
$UCSBASE
  2

  9
$UCSNAME
  2

  9
$UCSORG
 10
0.0
 20
0.0
 30
0.0
  9
$UCSXDIR
 10
1.0
 20
0.0
 30
0.0
  9
$UCSYDIR
 10
0.0
 20
1.0
 30
0.0
  9
$UCSORTHOREF
  2

  9
$UCSORTHOVIEW
 70
0
  9
$UCSORGTOP
 10
0.0
 20
0.0
 30
0.0
  9
$UCSORGBOTTOM
 10
0.0
 20
0.0
 30
0.0
  9
$UCSORGLEFT
 10
0.0
 20
0.0
 30
0.0
  9
$UCSORGRIGHT
 10
0.0
 20
0.0
 30
0.0
  9
$UCSORGFRONT
 10
0.0
 20
0.0
 30
0.0
  9
$UCSORGBACK
 10
0.0
 20
0.0
 30
0.0
  9
$PUCSBASE
  2

  9
$PUCSNAME
  2

  9
$PUCSORG
 10
0.0
 20
0.0
 30
0.0
  9
$PUCSXDIR
 10
1.0
 20
0.0
 30
0.0
  9
$PUCSYDIR
 10
0.0
 20
1.0
 30
0.0
  9
$PUCSORTHOREF
  2

  9
$PUCSORTHOVIEW
 70
0
  9
$PUCSORGTOP
 10
0.0
 20
0.0
 30
0.0
  9
$PUCSORGBOTTOM
 10
0.0
 20
0.0
 30
0.0
  9
$PUCSORGLEFT
 10
0.0
 20
0.0
 30
0.0
  9
$PUCSORGRIGHT
 10
0.0
 20
0.0
 30
0.0
  9
$PUCSORGFRONT
 10
0.0
 20
0.0
 30
0.0
  9
$PUCSORGBACK
 10
0.0
 20
0.0
 30
0.0
  9
$USERI1
 70
0
  9
$USERI2
 70
0
  9
$USERI3
 70
0
  9
$USERI4
 70
0
  9
$USERI5
 70
0
  9
$USERR1
 40
0.0
  9
$USERR2
 40
0.0
  9
$USERR3
 40
0.0
  9
$USERR4
 40
0.0
  9
$USERR5
 40
0.0
  9
$WORLDVIEW
 70
1
  9
$SHADEDGE
 70
3
  9
$SHADEDIF
 70
70
  9
$TILEMODE
 70
1
  9
$MAXACTVP
 70
64
  9
$PINSBASE
 10
0.0
 20
0.0
 30
0.0
  9
$PLIMCHECK
 70
0
  9
$PEXTMIN
 10
1e+20
 20
1e+20
 30
1e+20
  9
$PEXTMAX
 10
-1e+20
 20
-1e+20
 30
-1e+20
  9
$PLIMMIN
 10
0.0
 20
0.0
  9
$PLIMMAX
 10
420.0
 20
297.0
  9
$UNITMODE
 70
0
  9
$VISRETAIN
 70
1
  9
$PLINEGEN
 70
0
  9
$PSLTSCALE
 70
1
  9
$TREEDEPTH
 70
3020
  9
$CMLSTYLE
  2
Standard
  9
$CMLJUST
 70
0
  9
$CMLSCALE
 40
20.0
  9
$PROXYGRAPHICS
 70
1
  9
$MEASUREMENT
 70
1
  9
$CELWEIGHT
370
-1
  9
$ENDCAPS
280
0
  9
$JOINSTYLE
280
0
  9
$LWDISPLAY
290
0
  9
$INSUNITS
 70
6
  9
$HYPERLINKBASE
  1

  9
$STYLESHEET
  1

  9
$XEDIT
290
1
  9
$CEPSNTYPE
380
0
  9
$PSTYLEMODE
290
1
  9
$FINGERPRINTGUID
  2
{A0ABE9EE-8607-40A7-B148-02E894966C5C}
  9
$VERSIONGUID
  2
{05D79A93-8397-43B0-8C26-727534C76AD0}
  9
$EXTNAMES
290
1
  9
$PSVPSCALE
 40
0.0
  9
$OLESTARTUP
290
0
  0
ENDSEC
  0
SECTION
  2
CLASSES
  0
CLASS
  1
ACDBDICTIONARYWDFLT
  2
AcDbDictionaryWithDefault
  3
ObjectDBX Classes
 90
0
280
0
281
0
  0
CLASS
  1
SUN
  2
AcDbSun
  3
SCENEOE
 90
1153
280
0
281
0
  0
CLASS
  1
VISUALSTYLE
  2
AcDbVisualStyle
  3
ObjectDBX Classes
 90
4095
280
0
281
0
  0
CLASS
  1
MATERIAL
  2
AcDbMaterial
  3
ObjectDBX Classes
 90
1153
280
0
281
0
  0
CLASS
  1
SCALE
  2
AcDbScale
  3
ObjectDBX Classes
 90
1153
280
0
281
0
  0
CLASS
  1
TABLESTYLE
  2
AcDbTableStyle
  3
ObjectDBX Classes
 90
4095
280
0
281
0
  0
CLASS
  1
MLEADERSTYLE
  2
AcDbMLeaderStyle
  3
ACDB_MLEADERSTYLE_CLASS
 90
4095
280
0
281
0
  0
CLASS
  1
DICTIONARYVAR
  2
AcDbDictionaryVar
  3
ObjectDBX Classes
 90
0
280
0
281
0
  0
CLASS
  1
CELLSTYLEMAP
  2
AcDbCellStyleMap
  3
ObjectDBX Classes
 90
1152
280
0
281
0
  0
CLASS
  1
MENTALRAYRENDERSETTINGS
  2
AcDbMentalRayRenderSettings
  3
SCENEOE
 90
1024
280
0
281
0
  0
CLASS
  1
ACDBDETAILVIEWSTYLE
  2
AcDbDetailViewStyle
  3
ObjectDBX Classes
 90
1025
280
0
281
0
  0
CLASS
  1
ACDBSECTIONVIEWSTYLE
  2
AcDbSectionViewStyle
  3
ObjectDBX Classes
 90
1025
280
0
281
0
  0
CLASS
  1
RASTERVARIABLES
  2
AcDbRasterVariables
  3
ISM
 90
0
280
0
281
0
  0
CLASS
  1
ACDBPLACEHOLDER
  2
AcDbPlaceHolder
  3
ObjectDBX Classes
 90
0
280
0
281
0
  0
CLASS
  1
LAYOUT
  2
AcDbLayout
  3
ObjectDBX Classes
 90
0
280
0
281
0
  0
ENDSEC
  0
SECTION
  2
TABLES
  0
TABLE
  2
VPORT
  5
8
330
0
100
AcDbSymbolTable
 70
1
  0
VPORT
  5
23
330
8
100
AcDbSymbolTableRecord
100
AcDbViewportTableRecord
  2
*Active
 70
0
 10
0.0
 20
0.0
 11
1.0
 21
1.0
 12
0.0
 22
0.0
 13
0.0
 23
0.0
 14
0.5
 24
0.5
 15
0.5
 25
0.5
 16
0.0
 26
0.0
 36
1.0
 17
0.0
 27
0.0
 37
0.0
 40
1000.0
 41
1.34
 42
50.0
 43
0.0
 44
0.0
 50
0.0
 51
0.0
 71
0
 72
1000
 73
1
 74
3
 75
0
 76
0
 77
0
 78
0
281
0
 65
0
146
0.0
  0
ENDTAB
  0
TABLE
  2
LTYPE
  5
2
330
0
100
AcDbSymbolTable
 70
3
  0
LTYPE
  5
24
330
2
100
AcDbSymbolTableRecord
100
AcDbLinetypeTableRecord
  2
ByBlock
 70
0
  3

 72
65
 73
0
 40
0.0
  0
LTYPE
  5
25
330
2
100
AcDbSymbolTableRecord
100
AcDbLinetypeTableRecord
  2
ByLayer
 70
0
  3

 72
65
 73
0
 40
0.0
  0
LTYPE
  5
26
330
2
100
AcDbSymbolTableRecord
100
AcDbLinetypeTableRecord
  2
Continuous
 70
0
  3

 72
65
 73
0
 40
0.0
  0
ENDTAB
  0
TABLE
  2
LAYER
  5
1
330
0
100
AcDbSymbolTable
 70
2
  0
LAYER
  5
27
330
1
100
AcDbSymbolTableRecord
100
AcDbLayerTableRecord
  2
0
 70
0
 62
7
  6
Continuous
370
-3
390
13
  0
LAYER
  5
28
330
1
100
AcDbSymbolTableRecord
100
AcDbLayerTableRecord
  2
Defpoints
 70
0
 62
7
  6
Continuous
290
0
370
-3
390
13
  0
ENDTAB
  0
TABLE
  2
STYLE
  5
5
330
0
100
AcDbSymbolTable
 70
1
  0
STYLE
  5
29
330
5
100
AcDbSymbolTableRecord
100
AcDbTextStyleTableRecord
  2
Standard
 70
0
 40
0.0
 41
1.0
 50
0.0
 71
0
 42
2.5
  3
txt
  4

  0
ENDTAB
  0
TABLE
  2
VIEW
  5
7
330
0
100
AcDbSymbolTable
 70
0
  0
ENDTAB
  0
TABLE
  2
UCS
  5
6
330
0
100
AcDbSymbolTable
 70
0
  0
ENDTAB
  0
TABLE
  2
APPID
  5
3
330
0
100
AcDbSymbolTable
 70
3
  0
APPID
  5
2A
330
3
100
AcDbSymbolTableRecord
100
AcDbRegAppTableRecord
  2
ACAD
 70
0
  0
APPID
  5
1AF
330
3
100
AcDbSymbolTableRecord
100
AcDbRegAppTableRecord
  2
HATCHBACKGROUNDCOLOR
 70
0
  0
APPID
  5
1B0
330
3
100
AcDbSymbolTableRecord
100
AcDbRegAppTableRecord
  2
EZDXF
 70
0
  0
ENDTAB
  0
TABLE
  2
DIMSTYLE
  5
4
330
0
100
AcDbSymbolTable
 70
1
100
AcDbDimStyleTable
  0
DIMSTYLE
105
2B
330
4
100
AcDbSymbolTableRecord
100
AcDbDimStyleTableRecord
  2
Standard
 70
0
  3

  4

 40
1.0
 41
2.5
 42
0.625
 43
3.75
 44
1.25
 45
0.0
 46
0.0
 47
0.0
 48
0.0
140
2.5
141
2.5
142
0.0
143
0.03937007874
144
1.0
145
0.0
146
1.0
147
0.625
148
0.0
 71
0
 72
0
 73
0
 74
0
 75
0
 76
0
 77
1
 78
8
 79
3
170
0
171
3
172
1
173
0
174
0
175
0
176
0
177
0
178
0
179
2
271
2
272
2
273
2
274
3
275
0
276
0
277
2
278
44
279
0
280
0
281
0
282
0
283
0
284
8
285
0
286
0
288
0
289
3
371
-2
372
-2
  0
ENDTAB
  0
TABLE
  2
BLOCK_RECORD
  5
9
330
0
100
AcDbSymbolTable
 70
2
  0
BLOCK_RECORD
  5
17
330
9
100
AcDbSymbolTableRecord
100
AcDbBlockTableRecord
  2
*Model_Space
340
1A
  0
BLOCK_RECORD
  5
1B
330
9
100
AcDbSymbolTableRecord
100
AcDbBlockTableRecord
  2
*Paper_Space
340
1E
  0
ENDTAB
  0
ENDSEC
  0
SECTION
  2
BLOCKS
  0
BLOCK
  5
18
330
17
100
AcDbEntity
  8
0
100
AcDbBlockBegin
  2
*Model_Space
 70
0
 10
0.0
 20
0.0
 30
0.0
  3
*Model_Space
  1

  0
ENDBLK
  5
19
330
17
100
AcDbEntity
  8
0
100
AcDbBlockEnd
  0
BLOCK
  5
1C
330
1B
100
AcDbEntity
  8
0
100
AcDbBlockBegin
  2
*Paper_Space
 70
0
 10
0.0
 20
0.0
 30
0.0
  3
*Paper_Space
  1

  0
ENDBLK
  5
1D
330
1B
100
AcDbEntity
  8
0
100
AcDbBlockEnd
  0
ENDSEC
  0
SECTION
  2
ENTITIES
  0
LWPOLYLINE
  5
2F
330
17
100
AcDbEntity
  8
ROADS
100
AcDbPolyline
 90
2
 70
0
 10
619793.8298998188
 20
4827414.203849369
 10
619768.2901394498
 20
4827464.59990372
  0
LWPOLYLINE
  5
30
330
17
100
AcDbEntity
  8
ROADS
100
AcDbPolyline
 90
4
 70
0
 10
619814.4849014517
 20
4827428.005114143
 10
619802.2203079242
 20
4827471.532767147
 10
619825.9496659554
 20
4827500.477332061
 10
619839.6929253002
 20
4827444.848618575
  0
LWPOLYLINE
  5
31
330
17
100
AcDbEntity
  8
ROADS
100
AcDbPolyline
 90
2
 70
0
 10
619768.2901394498
 20
4827464.59990372
 10
619735.1260594922
 20
4827496.269388763
  0
LWPOLYLINE
  5
32
330
17
100
AcDbEntity
  8
ROADS
100
AcDbPolyline
 90
2
 70
0
 10
619768.2901394498
 20
4827464.59990372
 10
619772.1056138212
 20
4827507.784490507
  0
LWPOLYLINE
  5
33
330
17
100
AcDbEntity
  8
ROADS
100
AcDbPolyline
 90
5
 70
0
 10
619735.1260594922
 20
4827496.269388763
 10
619629.5396469433
 20
4827463.550801337
 10
619582.4727223197
 20
4827511.521896558
 10
619538.369726365
 20
4827514.916433433
 10
619531.6135939634
 20
4827534.959562525
  0
LWPOLYLINE
  5
34
330
17
100
AcDbEntity
  8
ROADS
100
AcDbPolyline
 90
2
 70
0
 10
619735.1260594922
 20
4827496.269388763
 10
619772.1056138212
 20
4827507.784490507
  0
LWPOLYLINE
  5
35
330
17
100
AcDbEntity
  8
ROADS
100
AcDbPolyline
 90
2
 70
0
 10
619157.228028333
 20
4827472.775822765
 10
619043.7456091619
 20
4827452.73520988
  0
LWPOLYLINE
  5
36
330
17
100
AcDbEntity
  8
ROADS
100
AcDbPolyline
 90
2
 70
0
 10
619269.1494269108
 20
4827487.056046794
 10
619157.228028333
 20
4827472.775822765
  0
LWPOLYLINE
  5
37
330
17
100
AcDbEntity
  8
ROADS
100
AcDbPolyline
 90
2
 70
0
 10
619373.7393355289
 20
4827499.909858372
 10
619269.1494269108
 20
4827487.056046794
  0
LWPOLYLINE
  5
38
330
17
100
AcDbEntity
  8
ROADS
100
AcDbPolyline
 90
2
 70
0
 10
619531.6135939634
 20
4827534.959562525
 10
619373.7393355289
 20
4827499.909858372
  0
LWPOLYLINE
  5
39
330
17
100
AcDbEntity
  8
ROADS
100
AcDbPolyline
 90
2
 70
0
 10
619373.7393355289
 20
4827499.909858372
 10
619345.9268495785
 20
4827586.116001791
  0
LWPOLYLINE
  5
3A
330
17
100
AcDbEntity
  8
ROADS
100
AcDbPolyline
 90
3
 70
0
 10
619157.228028333
 20
4827472.775822765
 10
619108.4512333346
 20
4827613.291438662
 10
619042.4482402822
 20
4827655.248321909
  0
LWPOLYLINE
  5
3B
330
17
100
AcDbEntity
  8
ROADS
100
AcDbPolyline
 90
3
 70
0
 10
619269.1494269108
 20
4827487.056046794
 10
619211.3258031873
 20
4827656.12144469
 10
619169.6119750692
 20
4827700.942985252
  0
LWPOLYLINE
  5
3C
330
17
100
AcDbEntity
  8
ROADS
100
AcDbPolyline
 90
2
 70
0
 10
619498.1951377464
 20
4827635.939098522
 10
619345.9268495785
 20
4827586.116001791
  0
LWPOLYLINE
  5
3D
330
17
100
AcDbEntity
  8
ROADS
100
AcDbPolyline
 90
2
 70
0
 10
619345.9268495785
 20
4827586.116001791
 10
619315.3579269069
 20
4827676.659528562
  0
LWPOLYLINE
  5
3E
330
17
100
AcDbEntity
  8
ROADS
100
AcDbPolyline
 90
2
 70
0
 10
619169.6119750692
 20
4827700.942985252
 10
619042.4482402822
 20
4827655.248321909
  0
LWPOLYLINE
  5
3F
330
17
100
AcDbEntity
  8
ROADS
100
AcDbPolyline
 90
2
 70
0
 10
619957.3819815287
 20
4827549.997452365
 10
619921.2672946128
 20
4827638.676751329
  0
LWPOLYLINE
  5
40
330
17
100
AcDbEntity
  8
ROADS
100
AcDbPolyline
 90
2
 70
0
 10
619985.8977427008
 20
4827603.90125824
 10
619994.4982001496
 20
4827594.534452578
  0
LWPOLYLINE
  5
41
330
17
100
AcDbEntity
  8
ROADS
100
AcDbPolyline
 90
2
 70
0
 10
620004.438097252
 20
4827606.585338686
 10
619995.1730548718
 20
4827612.212555317
  0
LWPOLYLINE
  5
42
330
17
100
AcDbEntity
  8
ROADS
100
AcDbPolyline
 90
2
 70
0
 10
619985.8977427008
 20
4827603.90125824
 10
619995.1730548718
 20
4827612.212555317
  0
LWPOLYLINE
  5
43
330
17
100
AcDbEntity
  8
ROADS
100
AcDbPolyline
 90
2
 70
0
 10
619921.2672946128
 20
4827638.676751329
 10
619985.8977427008
 20
4827603.90125824
  0
LWPOLYLINE
  5
44
330
17
100
AcDbEntity
  8
ROADS
100
AcDbPolyline
 90
2
 70
0
 10
619995.1730548718
 20
4827612.212555317
 10
619950.521401684
 20
4827654.52056493
  0
LWPOLYLINE
  5
45
330
17
100
AcDbEntity
  8
ROADS
100
AcDbPolyline
 90
2
 70
0
 10
619921.2672946128
 20
4827638.676751329
 10
619920.2176321817
 20
4827657.044031291
  0
LWPOLYLINE
  5
46
330
17
100
AcDbEntity
  8
ROADS
100
AcDbPolyline
 90
2
 70
0
 10
619995.1730548718
 20
4827612.212555317
 10
620016.493197374
 20
4827623.234651381
  0
LWPOLYLINE
  5
47
330
17
100
AcDbEntity
  8
ROADS
100
AcDbPolyline
 90
4
 70
0
 10
619772.1056138212
 20
4827507.784490507
 10
619791.8138605336
 20
4827537.058468739
 10
619779.6314122645
 20
4827593.717751666
 10
619814.5303616762
 20
4827645.084875316
  0
LWPOLYLINE
  5
48
330
17
100
AcDbEntity
  8
ROADS
100
AcDbPolyline
 90
2
 70
0
 10
619531.6135939634
 20
4827534.959562525
 10
619498.1951377464
 20
4827635.939098522
  0
LWPOLYLINE
  5
49
330
17
100
AcDbEntity
  8
ROADS
100
AcDbPolyline
 90
2
 70
0
 10
619814.5303616762
 20
4827645.084875316
 10
619921.2672946128
 20
4827638.676751329
  0
LWPOLYLINE
  5
4A
330
17
100
AcDbEntity
  8
ROADS
100
AcDbPolyline
 90
2
 70
0
 10
619814.5303616762
 20
4827645.084875316
 10
619823.8115635597
 20
4827658.275968687
  0
LWPOLYLINE
  5
4B
330
17
100
AcDbEntity
  8
ROADS
100
AcDbPolyline
 90
2
 70
0
 10
619823.8115635597
 20
4827658.275968687
 10
619920.2176321817
 20
4827657.044031291
  0
LWPOLYLINE
  5
4C
330
17
100
AcDbEntity
  8
ROADS
100
AcDbPolyline
 90
2
 70
0
 10
619498.1951377464
 20
4827635.939098522
 10
619468.3324635286
 20
4827727.410449512
  0
LWPOLYLINE
  5
4D
330
17
100
AcDbEntity
  8
ROADS
100
AcDbPolyline
 90
5
 70
0
 10
619823.8115635597
 20
4827658.275968687
 10
619795.8429591918
 20
4827668.882413943
 10
619781.3987047556
 20
4827694.785643429
 10
619806.7913762651
 20
4827724.712292943
 10
619788.4463266976
 20
4827781.777320125
  0
LWPOLYLINE
  5
4E
330
17
100
AcDbEntity
  8
ROADS
100
AcDbPolyline
 90
2
 70
0
 10
619920.2176321817
 20
4827657.044031291
 10
619860.6634513375
 20
4827821.805814672
  0
LWPOLYLINE
  5
4F
330
17
100
AcDbEntity
  8
ROADS
100
AcDbPolyline
 90
4
 70
0
 10
619729.5928424227
 20
4827844.316154308
 10
619715.9471382495
 20
4827816.134667857
 10
619753.0336594264
 20
4827700.818746571
 10
619814.5303616762
 20
4827645.084875316
  0
LWPOLYLINE
  5
50
330
17
100
AcDbEntity
  8
ROADS
100
AcDbPolyline
 90
2
 70
0
 10
619788.4463266976
 20
4827781.777320125
 10
619860.6634513375
 20
4827821.805814672
  0
LWPOLYLINE
  5
51
330
17
100
AcDbEntity
  8
ROADS
100
AcDbPolyline
 90
2
 70
0
 10
619950.521401684
 20
4827654.52056493
 10
619920.2176321817
 20
4827657.044031291
  0
LWPOLYLINE
  5
52
330
17
100
AcDbEntity
  8
ROADS
100
AcDbPolyline
 90
2
 70
0
 10
619950.521401684
 20
4827654.52056493
 10
619951.1874441679
 20
4827690.133012057
  0
LWPOLYLINE
  5
53
330
17
100
AcDbEntity
  8
ROADS
100
AcDbPolyline
 90
2
 70
0
 10
619920.2176321817
 20
4827657.044031291
 10
619951.1874441679
 20
4827690.133012057
  0
LWPOLYLINE
  5
54
330
17
100
AcDbEntity
  8
ROADS
100
AcDbPolyline
 90
3
 70
0
 10
620055.4300474876
 20
4827682.15914512
 10
620016.4060935875
 20
4827677.3920295015
 10
619960.5753022089
 20
4827703.5650473265
  0
LWPOLYLINE
  5
55
330
17
100
AcDbEntity
  8
ROADS
100
AcDbPolyline
 90
2
 70
0
 10
619951.1874441679
 20
4827690.133012057
 10
619960.5753022089
 20
4827703.5650473265
  0
LWPOLYLINE
  5
56
330
17
100
AcDbEntity
  8
ROADS
100
AcDbPolyline
 90
3
 70
0
 10
619960.5753022089
 20
4827703.5650473265
 10
620070.2662892756
 20
4827832.192713623
 10
620127.408970509
 20
4827842.107871025
  0
LWPOLYLINE
  5
57
330
17
100
AcDbEntity
  8
ROADS
100
AcDbPolyline
 90
2
 70
0
 10
619468.3324635286
 20
4827727.410449512
 10
619315.3579269069
 20
4827676.659528562
  0
LWPOLYLINE
  5
58
330
17
100
AcDbEntity
  8
ROADS
100
AcDbPolyline
 90
2
 70
0
 10
619315.3579269069
 20
4827676.659528562
 10
619285.4999753372
 20
4827769.364958104
  0
LWPOLYLINE
  5
59
330
17
100
AcDbEntity
  8
ROADS
100
AcDbPolyline
 90
3
 70
0
 10
619169.6119750692
 20
4827700.942985252
 10
619174.7621419454
 20
4827764.139349363
 10
619137.2745618545
 20
4827807.6261287145
  0
LWPOLYLINE
  5
5A
330
17
100
AcDbEntity
  8
ROADS
100
AcDbPolyline
 90
2
 70
0
 10
619468.3324635286
 20
4827727.410449512
 10
619438.1793519056
 20
4827818.959543627
  0
LWPOLYLINE
  5
5B
330
17
100
AcDbEntity
  8
ROADS
100
AcDbPolyline
 90
2
 70
0
 10
619137.2745618545
 20
4827807.6261287145
 10
619007.941484923
 20
4827764.384351669
  0
LWPOLYLINE
  5
5C
330
17
100
AcDbEntity
  8
ROADS
100
AcDbPolyline
 90
2
 70
0
 10
619438.1793519056
 20
4827818.959543627
 10
619285.4999753372
 20
4827769.364958104
  0
LWPOLYLINE
  5
5D
330
17
100
AcDbEntity
  8
ROADS
100
AcDbPolyline
 90
2
 70
0
 10
619285.4999753372
 20
4827769.364958104
 10
619255.7253167303
 20
4827860.723824498
  0
LWPOLYLINE
  5
5E
330
17
100
AcDbEntity
  8
ROADS
100
AcDbPolyline
 90
3
 70
0
 10
619137.2745618545
 20
4827807.6261287145
 10
619141.9268197971
 20
4827862.009167968
 10
619126.1541605791
 20
4827909.920177918
  0
LWPOLYLINE
  5
5F
330
17
100
AcDbEntity
  8
ROADS
100
AcDbPolyline
 90
2
 70
0
 10
619438.1793519056
 20
4827818.959543627
 10
619407.437762892
 20
4827909.867971725
  0
LWPOLYLINE
  5
60
330
17
100
AcDbEntity
  8
ROADS
100
AcDbPolyline
 90
2
 70
0
 10
619407.437762892
 20
4827909.867971725
 10
619255.7253167303
 20
4827860.723824498
  0
LWPOLYLINE
  5
61
330
17
100
AcDbEntity
  8
ROADS
100
AcDbPolyline
 90
3
 70
0
 10
620168.9720484238
 20
4828087.146535404
 10
620166.4243743535
 20
4828094.644546696
 10
620137.283182342
 20
4828124.994594191
  0
LWPOLYLINE
  5
62
330
17
100
AcDbEntity
  8
ROADS
100
AcDbPolyline
 90
2
 70
0
 10
620137.283182342
 20
4828124.994594191
 10
620069.9180297418
 20
4828149.995731056
  0
LWPOLYLINE
  5
63
330
17
100
AcDbEntity
  8
ROADS
100
AcDbPolyline
 90
2
 70
0
 10
620069.9180297418
 20
4828149.995731056
 10
620041.9928983464
 20
4828125.185004302
  0
LWPOLYLINE
  5
64
330
17
100
AcDbEntity
  8
ROADS
100
AcDbPolyline
 90
2
 70
0
 10
620069.9180297418
 20
4828149.995731056
 10
620016.0982974448
 20
4828144.378211895
  0
LWPOLYLINE
  5
65
330
17
100
AcDbEntity
  8
ROADS
100
AcDbPolyline
 90
3
 70
0
 10
619788.4463266976
 20
4827781.777320125
 10
619772.6121288654
 20
4827831.489386317
 10
619778.0445746888
 20
4827892.89789251
  0
LWPOLYLINE
  5
66
330
17
100
AcDbEntity
  8
ROADS
100
AcDbPolyline
 90
2
 70
0
 10
619759.0192301446
 20
4827886.700132539
 10
619729.5928424227
 20
4827844.316154308
  0
LWPOLYLINE
  5
67
330
17
100
AcDbEntity
  8
ROADS
100
AcDbPolyline
 90
4
 70
0
 10
619759.0192301446
 20
4827886.700132539
 10
619709.9808273077
 20
4827870.305067455
 10
619709.868635899
 20
4827850.266255968
 10
619729.5928424227
 20
4827844.316154308
  0
LWPOLYLINE
  5
68
330
17
100
AcDbEntity
  8
ROADS
100
AcDbPolyline
 90
2
 70
0
 10
619860.6634513375
 20
4827821.805814672
 10
619825.4193237127
 20
4827914.172118563
  0
LWPOLYLINE
  5
69
330
17
100
AcDbEntity
  8
ROADS
100
AcDbPolyline
 90
2
 70
0
 10
619778.0445746888
 20
4827892.89789251
 10
619759.0192301446
 20
4827886.700132539
  0
LWPOLYLINE
  5
6A
330
17
100
AcDbEntity
  8
ROADS
100
AcDbPolyline
 90
2
 70
0
 10
619825.4193237127
 20
4827914.172118563
 10
619778.0445746888
 20
4827892.89789251
  0
LWPOLYLINE
  5
6B
330
17
100
AcDbEntity
  8
ROADS
100
AcDbPolyline
 90
2
 70
0
 10
619759.9733829994
 20
4828148.184655504
 10
619825.4193237127
 20
4827914.172118563
  0
LWPOLYLINE
  5
6C
330
17
100
AcDbEntity
  8
ROADS
100
AcDbPolyline
 90
2
 70
0
 10
619759.9733829994
 20
4828148.184655504
 10
619548.723836446
 20
4828090.659004922
  0
LWPOLYLINE
  5
6D
330
17
100
AcDbEntity
  8
ROADS
100
AcDbPolyline
 90
2
 70
0
 10
619700.0598450757
 20
4828315.99940775
 10
619759.9733829994
 20
4828148.184655504
  0
LWPOLYLINE
  5
6E
330
17
100
AcDbEntity
  8
ROADS
100
AcDbPolyline
 90
2
 70
0
 10
619527.2565766021
 20
4828259.374912584
 10
619438.9406268506
 20
4828230.330091889
  0
LWPOLYLINE
  5
6F
330
17
100
AcDbEntity
  8
ROADS
100
AcDbPolyline
 90
2
 70
0
 10
619348.6982891094
 20
4828095.635471081
 10
619313.9291836126
 20
4828189.606244086
  0
LWPOLYLINE
  5
70
330
17
100
AcDbEntity
  8
ROADS
100
AcDbPolyline
 90
3
 70
0
 10
619348.6982891094
 20
4828095.635471081
 10
619361.1670714645
 20
4828131.782991986
 10
619352.3158793685
 20
4828201.500331756
  0
LWPOLYLINE
  5
71
330
17
100
AcDbEntity
  8
ROADS
100
AcDbPolyline
 90
2
 70
0
 10
619258.597089473
 20
4828172.2714769645
 10
619160.6966913581
 20
4828141.1305610575
  0
LWPOLYLINE
  5
72
330
17
100
AcDbEntity
  8
ROADS
100
AcDbPolyline
 90
2
 70
0
 10
619104.2662967152
 20
4828122.869943391
 10
619073.336291231
 20
4828214.351873407
  0
LWPOLYLINE
  5
73
330
17
100
AcDbEntity
  8
ROADS
100
AcDbPolyline
 90
2
 70
0
 10
619313.9291836126
 20
4828189.606244086
 10
619258.597089473
 20
4828172.2714769645
  0
LWPOLYLINE
  5
74
330
17
100
AcDbEntity
  8
ROADS
100
AcDbPolyline
 90
2
 70
0
 10
619352.3158793685
 20
4828201.500331756
 10
619313.9291836126
 20
4828189.606244086
  0
LWPOLYLINE
  5
75
330
17
100
AcDbEntity
  8
ROADS
100
AcDbPolyline
 90
2
 70
0
 10
619438.9406268506
 20
4828230.330091889
 10
619352.3158793685
 20
4828201.500331756
  0
LWPOLYLINE
  5
76
330
17
100
AcDbEntity
  8
ROADS
100
AcDbPolyline
 90
2
 70
0
 10
619258.597089473
 20
4828172.2714769645
 10
619227.5051909385
 20
4828265.628592598
  0
LWPOLYLINE
  5
77
330
17
100
AcDbEntity
  8
ROADS
100
AcDbPolyline
 90
2
 70
0
 10
619227.5051909385
 20
4828265.628592598
 10
619073.336291231
 20
4828214.351873407
  0
LWPOLYLINE
  5
78
330
17
100
AcDbEntity
  8
ROADS
100
AcDbPolyline
 90
2
 70
0
 10
619073.336291231
 20
4828214.351873407
 10
619041.175003005
 20
4828303.630471652
  0
LWPOLYLINE
  5
79
330
17
100
AcDbEntity
  8
ROADS
100
AcDbPolyline
 90
2
 70
0
 10
620137.283182342
 20
4828124.994594191
 10
620152.0091434709
 20
4828175.316532087
  0
LWPOLYLINE
  5
7A
330
17
100
AcDbEntity
  8
ROADS
100
AcDbPolyline
 90
2
 70
0
 10
620080.6087429026
 20
4828176.563339034
 10
620069.9180297418
 20
4828149.995731056
  0
LWPOLYLINE
  5
7B
330
17
100
AcDbEntity
  8
ROADS
100
AcDbPolyline
 90
2
 70
0
 10
620152.0091434709
 20
4828175.316532087
 10
620080.6087429026
 20
4828176.563339034
  0
LWPOLYLINE
  5
7C
330
17
100
AcDbEntity
  8
ROADS
100
AcDbPolyline
 90
2
 70
0
 10
620171.5202108412
 20
4828182.231298146
 10
620152.0091434709
 20
4828175.316532087
  0
LWPOLYLINE
  5
7D
330
17
100
AcDbEntity
  8
ROADS
100
AcDbPolyline
 90
2
 70
0
 10
620160.678957314
 20
4828296.618176479
 10
620154.7763797964
 20
4828314.92516131
  0
LWPOLYLINE
  5
7E
330
17
100
AcDbEntity
  8
ROADS
100
AcDbPolyline
 90
3
 70
0
 10
620024.6567727579
 20
4828420.360334953
 10
620072.5168186757
 20
4828223.449117017
 10
620069.9180297418
 20
4828149.995731056
  0
LWPOLYLINE
  5
7F
330
17
100
AcDbEntity
  8
ROADS
100
AcDbPolyline
 90
3
 70
0
 10
620024.6567727579
 20
4828420.360334953
 10
620079.692143448
 20
4828236.240195451
 10
620080.6087429026
 20
4828176.563339034
  0
LWPOLYLINE
  5
80
330
17
100
AcDbEntity
  8
ROADS
100
AcDbPolyline
 90
2
 70
0
 10
619615.2824405287
 20
4828288.203501714
 10
619527.2565766021
 20
4828259.374912584
  0
LWPOLYLINE
  5
81
330
17
100
AcDbEntity
  8
ROADS
100
AcDbPolyline
 90
2
 70
0
 10
619700.0598450757
 20
4828315.99940775
 10
619615.2824405287
 20
4828288.203501714
  0
LWPOLYLINE
  5
82
330
17
100
AcDbEntity
  8
ROADS
100
AcDbPolyline
 90
2
 70
0
 10
619776.8788450265
 20
4828340.755502301
 10
619700.0598450757
 20
4828315.99940775
  0
LWPOLYLINE
  5
83
330
17
100
AcDbEntity
  8
ROADS
100
AcDbPolyline
 90
2
 70
0
 10
619700.0598450757
 20
4828315.99940775
 10
619687.4295397691
 20
4828355.031871716
  0
LWPOLYLINE
  5
84
330
17
100
AcDbEntity
  8
ROADS
100
AcDbPolyline
 90
2
 70
0
 10
619854.2181338732
 20
4828365.553004445
 10
619776.8788450265
 20
4828340.755502301
  0
LWPOLYLINE
  5
85
330
17
100
AcDbEntity
  8
ROADS
100
AcDbPolyline
 90
2
 70
0
 10
619776.8788450265
 20
4828340.755502301
 10
619764.4985160982
 20
4828379.346470841
  0
LWPOLYLINE
  5
86
330
17
100
AcDbEntity
  8
ROADS
100
AcDbPolyline
 90
2
 70
0
 10
619764.4985160982
 20
4828379.346470841
 10
619687.4295397691
 20
4828355.031871716
  0
LWPOLYLINE
  5
87
330
17
100
AcDbEntity
  8
ROADS
100
AcDbPolyline
 90
2
 70
0
 10
619902.8053787187
 20
4828381.041966278
 10
619854.2181338732
 20
4828365.553004445
  0
LWPOLYLINE
  5
88
330
17
100
AcDbEntity
  8
ROADS
100
AcDbPolyline
 90
2
 70
0
 10
619854.2181338732
 20
4828365.553004445
 10
619840.901918096
 20
4828403.803068034
  0
LWPOLYLINE
  5
89
330
17
100
AcDbEntity
  8
ROADS
100
AcDbPolyline
 90
2
 70
0
 10
619764.4985160982
 20
4828379.346470841
 10
619840.901918096
 20
4828403.803068034
  0
LWPOLYLINE
  5
8A
330
17
100
AcDbEntity
  8
ROADS
100
AcDbPolyline
 90
2
 70
0
 10
619902.8053787187
 20
4828381.041966278
 10
619951.6625209535
 20
4828228.7351011755
  0
LWPOLYLINE
  5
8B
330
17
100
AcDbEntity
  8
ROADS
100
AcDbPolyline
 90
2
 70
0
 10
620157.274234648
 20
4828315.72923399
 10
620154.7763797964
 20
4828314.92516131
  0
LWPOLYLINE
  5
8C
330
17
100
AcDbEntity
  8
ROADS
100
AcDbPolyline
 90
2
 70
0
 10
620154.7763797964
 20
4828314.92516131
 10
620111.7868292448
 20
4828448.379798258
  0
LWPOLYLINE
  5
8D
330
17
100
AcDbEntity
  8
ROADS
100
AcDbPolyline
 90
2
 70
0
 10
619944.0426207833
 20
4828394.466129569
 10
619902.8053787187
 20
4828381.041966278
  0
LWPOLYLINE
  5
8E
330
17
100
AcDbEntity
  8
ROADS
100
AcDbPolyline
 90
2
 70
0
 10
620024.6567727579
 20
4828420.360334953
 10
619944.0426207833
 20
4828394.466129569
  0
LWPOLYLINE
  5
8F
330
17
100
AcDbEntity
  8
ROADS
100
AcDbPolyline
 90
2
 70
0
 10
619944.0426207833
 20
4828394.466129569
 10
619931.1197311049
 20
4828433.972354897
  0
LWPOLYLINE
  5
90
330
17
100
AcDbEntity
  8
ROADS
100
AcDbPolyline
 90
2
 70
0
 10
620111.7868292448
 20
4828448.379798258
 10
620024.6567727579
 20
4828420.360334953
  0
LWPOLYLINE
  5
91
330
17
100
AcDbEntity
  8
ROADS
100
AcDbPolyline
 90
2
 70
0
 10
619931.1197311049
 20
4828433.972354897
 10
619969.9587054108
 20
4828450.5073439395
  0
LWPOLYLINE
  5
92
330
17
100
AcDbEntity
  8
ROADS
100
AcDbPolyline
 90
2
 70
0
 10
619527.2565766021
 20
4828259.374912584
 10
619438.1790441652
 20
4828534.561032639
  0
LWPOLYLINE
  5
93
330
17
100
AcDbEntity
  8
ROADS
100
AcDbPolyline
 90
2
 70
0
 10
619615.2824405287
 20
4828288.203501714
 10
619525.7088835215
 20
4828561.670663526
  0
LWPOLYLINE
  5
94
330
17
100
AcDbEntity
  8
ROADS
100
AcDbPolyline
 90
2
 70
0
 10
619687.4295397691
 20
4828355.031871716
 10
619610.7906927405
 20
4828589.996149536
  0
LWPOLYLINE
  5
95
330
17
100
AcDbEntity
  8
ROADS
100
AcDbPolyline
 90
2
 70
0
 10
619764.4985160982
 20
4828379.346470841
 10
619688.0064255819
 20
4828616.648539408
  0
LWPOLYLINE
  5
96
330
17
100
AcDbEntity
  8
ROADS
100
AcDbPolyline
 90
2
 70
0
 10
619840.901918096
 20
4828403.803068034
 10
619766.1750250013
 20
4828641.816089526
  0
LWPOLYLINE
  5
97
330
17
100
AcDbEntity
  8
ROADS
100
AcDbPolyline
 90
2
 70
0
 10
619525.7088835215
 20
4828561.670663526
 10
619438.1790441652
 20
4828534.561032639
  0
LWPOLYLINE
  5
98
330
17
100
AcDbEntity
  8
ROADS
100
AcDbPolyline
 90
2
 70
0
 10
619931.1197311049
 20
4828433.972354897
 10
619854.4277793125
 20
4828669.600854679
  0
LWPOLYLINE
  5
99
330
17
100
AcDbEntity
  8
ROADS
100
AcDbPolyline
 90
2
 70
0
 10
619610.7906927405
 20
4828589.996149536
 10
619525.7088835215
 20
4828561.670663526
  0
LWPOLYLINE
  5
9A
330
17
100
AcDbEntity
  8
ROADS
100
AcDbPolyline
 90
2
 70
0
 10
619688.0064255819
 20
4828616.648539408
 10
619610.7906927405
 20
4828589.996149536
  0
LWPOLYLINE
  5
9B
330
17
100
AcDbEntity
  8
ROADS
100
AcDbPolyline
 90
2
 70
0
 10
619766.1750250013
 20
4828641.816089526
 10
619688.0064255819
 20
4828616.648539408
  0
LWPOLYLINE
  5
9C
330
17
100
AcDbEntity
  8
ROADS
100
AcDbPolyline
 90
2
 70
0
 10
620121.7445210231
 20
4828451.462927706
 10
620111.7868292448
 20
4828448.379798258
  0
LWPOLYLINE
  5
9D
330
17
100
AcDbEntity
  8
ROADS
100
AcDbPolyline
 90
3
 70
0
 10
620111.7868292448
 20
4828448.379798258
 10
620084.2219070202
 20
4828541.68231502
 10
620089.3696387899
 20
4828543.579197762
  0
LWPOLYLINE
  5
9E
330
17
100
AcDbEntity
  8
ROADS
100
AcDbPolyline
 90
2
 70
0
 10
620024.6567727579
 20
4828420.360334953
 10
619940.3989118462
 20
4828696.419393733
  0
LWPOLYLINE
  5
9F
330
17
100
AcDbEntity
  8
ROADS
100
AcDbPolyline
 90
2
 70
0
 10
619940.3989118462
 20
4828696.419393733
 10
619897.3338083078
 20
4828682.984185216
  0
LWPOLYLINE
  5
A0
330
17
100
AcDbEntity
  8
ROADS
100
AcDbPolyline
 90
2
 70
0
 10
619982.290793763
 20
4828710.584448659
 10
619940.3989118462
 20
4828696.419393733
  0
LWPOLYLINE
  5
A1
330
17
100
AcDbEntity
  8
ROADS
100
AcDbPolyline
 90
2
 70
0
 10
619995.230814579
 20
4828714.852493543
 10
619982.290793763
 20
4828710.584448659
  0
LWPOLYLINE
  5
A2
330
17
100
AcDbEntity
  8
ROADS
100
AcDbPolyline
 90
2
 70
0
 10
619940.3989118462
 20
4828696.419393733
 10
619910.3102758117
 20
4828789.309752886
  0
LWPOLYLINE
  5
A3
330
17
100
AcDbEntity
  8
ROADS
100
AcDbPolyline
 90
2
 70
0
 10
619982.290793763
 20
4828710.584448659
 10
619970.470735956
 20
4828746.901505728
  0
LWPOLYLINE
  5
A4
330
17
100
AcDbEntity
  8
ROADS
100
AcDbPolyline
 90
2
 70
0
 10
619854.4277793125
 20
4828669.600854679
 10
619766.1750250013
 20
4828641.816089526
  0
LWPOLYLINE
  5
A5
330
17
100
AcDbEntity
  8
ROADS
100
AcDbPolyline
 90
2
 70
0
 10
619897.3338083078
 20
4828682.984185216
 10
619854.4277793125
 20
4828669.600854679
  0
LWPOLYLINE
  5
A6
330
17
100
AcDbEntity
  8
ROADS
100
AcDbPolyline
 90
2
 70
0
 10
619854.4277793125
 20
4828669.600854679
 10
619824.5351739123
 20
4828764.262802321
  0
LWPOLYLINE
  5
A7
330
17
100
AcDbEntity
  8
ROADS
100
AcDbPolyline
 90
2
 70
0
 10
619897.3338083078
 20
4828682.984185216
 10
619867.3005090049
 20
4828776.908573903
  0
LWPOLYLINE
  5
A8
330
17
100
AcDbEntity
  8
ROADS
100
AcDbPolyline
 90
2
 70
0
 10
619610.7906927405
 20
4828589.996149536
 10
619496.554905652
 20
4828953.338338327
  0
LWPOLYLINE
  5
A9
330
17
100
AcDbEntity
  8
ROADS
100
AcDbPolyline
 90
2
 70
0
 10
619688.0064255819
 20
4828616.648539408
 10
619572.3293934576
 20
4828978.89073357
  0
LWPOLYLINE
  5
AA
330
17
100
AcDbEntity
  8
ROADS
100
AcDbPolyline
 90
2
 70
0
 10
619766.1750250013
 20
4828641.816089526
 10
619655.8349901258
 20
4828983.655992026
  0
LWPOLYLINE
  5
AB
330
17
100
AcDbEntity
  8
ROADS
100
AcDbPolyline
 90
2
 70
0
 10
619572.3293934576
 20
4828978.89073357
 10
619496.554905652
 20
4828953.338338327
  0
LWPOLYLINE
  5
AC
330
17
100
AcDbEntity
  8
ROADS
100
AcDbPolyline
 90
2
 70
0
 10
619625.6848944627
 20
4828995.662621947
 10
619572.3293934576
 20
4828978.89073357
  0
LWPOLYLINE
  5
AD
330
17
100
AcDbEntity
  8
ROADS
100
AcDbPolyline
 90
2
 70
0
 10
619496.554905652
 20
4828953.338338327
 10
619472.1366096025
 20
4829035.764832117
  0
LWPOLYLINE
  5
AE
330
17
100
AcDbEntity
  8
ROADS
100
AcDbPolyline
 90
3
 70
0
 10
619172.3539823707
 20
4828753.298095341
 10
619207.9225487289
 20
4828791.605849986
 10
619289.9836950765
 20
4828836.956467884
  0
LWPOLYLINE
  5
AF
330
17
100
AcDbEntity
  8
ROADS
100
AcDbPolyline
 90
2
 70
0
 10
619368.6680054956
 20
4829044.923091244
 10
619179.9804691451
 20
4828911.494778842
  0
LWPOLYLINE
  5
B0
330
17
100
AcDbEntity
  8
ROADS
100
AcDbPolyline
 90
2
 70
0
 10
619469.4637336603
 20
4829036.108261192
 10
619316.4911864514
 20
4828926.5265669385
  0
LWPOLYLINE
  5
B1
330
17
100
AcDbEntity
  8
ROADS
100
AcDbPolyline
 90
2
 70
0
 10
619429.9977790387
 20
4829041.179112434
 10
619316.4911864514
 20
4828926.5265669385
  0
LWPOLYLINE
  5
B2
330
17
100
AcDbEntity
  8
ROADS
100
AcDbPolyline
 90
23
 70
0
 10
618017.6333850946
 20
4827090.515045625
 10
618106.9020447118
 20
4827162.718027276
 10
618183.6810721307
 20
4827175.104595472
 10
618325.4620467834
 20
4827154.663542971
 10
618350.6598696655
 20
4827108.027815911
 10
618349.8368153188
 20
4827139.103548379
 10
618387.4761542423
 20
4827171.284705458
 10
618600.4163920594
 20
4827228.632105817
 10
618618.1779448711
 20
4827211.0781384995
 10
618592.198911128
 20
4827186.601242398
 10
618607.4897576963
 20
4827155.732190263
 10
618696.1748865742
 20
4827158.505373696
 10
618785.7395588676
 20
4827288.981088782
 10
618864.124011148
 20
4827342.399196903
 10
619072.2602449795
 20
4827375.658151251
 10
619098.3751735293
 20
4827367.6293354295
 10
619190.8168880113
 20
4827398.7994675515
 10
619509.0797808518
 20
4827432.045750368
 10
619586.7437394721
 20
4827482.7838921575
 10
619616.6072266044
 20
4827446.486649766
 10
619694.5258571998
 20
4827466.892221268
 10
619728.7381741037
 20
4827443.408983797
 10
619756.7249729036
 20
4827392.422823308
  0
LWPOLYLINE
  5
B3
330
17
100
AcDbEntity
  8
ROADS
100
AcDbPolyline
 90
2
 70
0
 10
618678.1720219295
 20
4827207.8701398345
 10
618687.3869710164
 20
4827192.215938366
  0
LWPOLYLINE
  5
B4
330
17
100
AcDbEntity
  8
ROADS
100
AcDbPolyline
 90
3
 70
0
 10
618678.1720219295
 20
4827207.8701398345
 10
618714.4138934191
 20
4827204.183307027
 10
618728.4052775706
 20
4827233.629970994
  0
LWPOLYLINE
  5
B5
330
17
100
AcDbEntity
  8
ROADS
100
AcDbPolyline
 90
3
 70
0
 10
618728.4052775706
 20
4827233.629970994
 10
618714.3460396479
 20
4827221.013691493
 10
618703.2729268346
 20
4827236.5623427145
  0
LWPOLYLINE
  5
B6
330
17
100
AcDbEntity
  8
ROADS
100
AcDbPolyline
 90
2
 70
0
 10
618728.4052775706
 20
4827233.629970994
 10
618724.6157938726
 20
4827256.054369213
  0
LWPOLYLINE
  5
B7
330
17
100
AcDbEntity
  8
ROADS
100
AcDbPolyline
 90
2
 70
0
 10
618728.4052775706
 20
4827233.629970994
 10
618729.5135642469
 20
4827313.51587656
  0
LWPOLYLINE
  5
B8
330
17
100
AcDbEntity
  8
ROADS
100
AcDbPolyline
 90
4
 70
0
 10
618729.5135642469
 20
4827313.51587656
 10
618708.4316016573
 20
4827287.272312024
 10
618573.241958572
 20
4827242.782010766
 10
618539.3792192435
 20
4827264.856446393
  0
LWPOLYLINE
  5
B9
330
17
100
AcDbEntity
  8
ROADS
100
AcDbPolyline
 90
2
 70
0
 10
618539.3792192435
 20
4827264.856446393
 10
618507.0778149224
 20
4827360.527685952
  0
LWPOLYLINE
  5
BA
330
17
100
AcDbEntity
  8
ROADS
100
AcDbPolyline
 90
3
 70
0
 10
618818.0120775058
 20
4827412.867260956
 10
618750.1713219708
 20
4827383.139361653
 10
618729.5135642469
 20
4827313.51587656
  0
LWPOLYLINE
  5
BB
330
17
100
AcDbEntity
  8
ROADS
100
AcDbPolyline
 90
2
 70
0
 10
618930.1914006015
 20
4827432.463305234
 10
618818.0120775058
 20
4827412.867260956
  0
LWPOLYLINE
  5
BC
330
17
100
AcDbEntity
  8
ROADS
100
AcDbPolyline
 90
2
 70
0
 10
617868.6197191518
 20
4827209.977759305
 10
617847.3580191628
 20
4827201.669231716
  0
LWPOLYLINE
  5
BD
330
17
100
AcDbEntity
  8
ROADS
100
AcDbPolyline
 90
2
 70
0
 10
617986.5727645808
 20
4827158.6835103845
 10
617953.6972527857
 20
4827125.117865806
  0
LWPOLYLINE
  5
BE
330
17
100
AcDbEntity
  8
ROADS
100
AcDbPolyline
 90
2
 70
0
 10
617881.2475920266
 20
4827173.576342163
 10
617868.6197191518
 20
4827209.977759305
  0
LWPOLYLINE
  5
BF
330
17
100
AcDbEntity
  8
ROADS
100
AcDbPolyline
 90
2
 70
0
 10
618072.8162067604
 20
4827217.757542321
 10
617986.5727645808
 20
4827158.6835103845
  0
LWPOLYLINE
  5
C0
330
17
100
AcDbEntity
  8
ROADS
100
AcDbPolyline
 90
5
 70
0
 10
618306.6299338253
 20
4827201.438192743
 10
618365.065076361
 20
4827179.055377416
 10
618600.5446982505
 20
4827237.7547495
 10
618639.1420163226
 20
4827236.761542637
 10
618678.1720219295
 20
4827207.8701398345
  0
LWPOLYLINE
  5
C1
330
17
100
AcDbEntity
  8
ROADS
100
AcDbPolyline
 90
2
 70
0
 10
618410.1764434173
 20
4827222.161324303
 10
618306.6299338253
 20
4827201.438192743
  0
LWPOLYLINE
  5
C2
330
17
100
AcDbEntity
  8
ROADS
100
AcDbPolyline
 90
2
 70
0
 10
618168.0857258742
 20
4827250.313643601
 10
618072.8162067604
 20
4827217.757542321
  0
LWPOLYLINE
  5
C3
330
17
100
AcDbEntity
  8
ROADS
100
AcDbPolyline
 90
3
 70
0
 10
618306.6299338253
 20
4827201.438192743
 10
618291.4492775311
 20
4827202.44216044
 10
618264.5257800502
 20
4827279.797288585
  0
LWPOLYLINE
  5
C4
330
17
100
AcDbEntity
  8
ROADS
100
AcDbPolyline
 90
2
 70
0
 10
618539.3792192435
 20
4827264.856446393
 10
618410.1764434173
 20
4827222.161324303
  0
LWPOLYLINE
  5
C5
330
17
100
AcDbEntity
  8
ROADS
100
AcDbPolyline
 90
2
 70
0
 10
618264.5257800502
 20
4827279.797288585
 10
618168.0857258742
 20
4827250.313643601
  0
LWPOLYLINE
  5
C6
330
17
100
AcDbEntity
  8
ROADS
100
AcDbPolyline
 90
2
 70
0
 10
617868.6197191518
 20
4827209.977759305
 10
617837.8707022361
 20
4827297.935579154
  0
LWPOLYLINE
  5
C7
330
17
100
AcDbEntity
  8
ROADS
100
AcDbPolyline
 90
2
 70
0
 10
617837.8707022361
 20
4827297.935579154
 10
617772.1681604524
 20
4827273.7200542865
  0
LWPOLYLINE
  5
C8
330
17
100
AcDbEntity
  8
ROADS
100
AcDbPolyline
 90
2
 70
0
 10
617806.5600115692
 20
4827386.316256811
 10
617709.408617843
 20
4827351.88838526
  0
LWPOLYLINE
  5
C9
330
17
100
AcDbEntity
  8
ROADS
100
AcDbPolyline
 90
2
 70
0
 10
618410.1764434173
 20
4827222.161324303
 10
618378.2431878308
 20
4827316.940145856
  0
LWPOLYLINE
  5
CA
330
17
100
AcDbEntity
  8
ROADS
100
AcDbPolyline
 90
2
 70
0
 10
617986.5727645808
 20
4827158.6835103845
 10
617890.2166121164
 20
4827439.445412314
  0
LWPOLYLINE
  5
CB
330
17
100
AcDbEntity
  8
ROADS
100
AcDbPolyline
 90
2
 70
0
 10
618264.5257800502
 20
4827279.797288585
 10
618237.3433362163
 20
4827360.249837328
  0
LWPOLYLINE
  5
CC
330
17
100
AcDbEntity
  8
ROADS
100
AcDbPolyline
 90
2
 70
0
 10
618507.0778149224
 20
4827360.527685952
 10
618378.2431878308
 20
4827316.940145856
  0
LWPOLYLINE
  5
CD
330
17
100
AcDbEntity
  8
ROADS
100
AcDbPolyline
 90
2
 70
0
 10
618072.8162067604
 20
4827217.757542321
 10
617985.3876089628
 20
4827472.247789776
  0
LWPOLYLINE
  5
CE
330
17
100
AcDbEntity
  8
ROADS
100
AcDbPolyline
 90
2
 70
0
 10
618378.2431878308
 20
4827316.940145856
 10
618350.8921598825
 20
4827398.919229152
  0
LWPOLYLINE
  5
CF
330
17
100
AcDbEntity
  8
ROADS
100
AcDbPolyline
 90
2
 70
0
 10
618168.0857258742
 20
4827250.313643601
 10
618082.4241842892
 20
4827505.576885849
  0
LWPOLYLINE
  5
D0
330
17
100
AcDbEntity
  8
ROADS
100
AcDbPolyline
 90
2
 70
0
 10
618350.8921598825
 20
4827398.919229152
 10
618237.3433362163
 20
4827360.249837328
  0
LWPOLYLINE
  5
D1
330
17
100
AcDbEntity
  8
ROADS
100
AcDbPolyline
 90
2
 70
0
 10
618507.0778149224
 20
4827360.527685952
 10
618478.7587153891
 20
4827443.172343222
  0
LWPOLYLINE
  5
D2
330
17
100
AcDbEntity
  8
ROADS
100
AcDbPolyline
 90
2
 70
0
 10
618478.7587153891
 20
4827443.172343222
 10
618350.8921598825
 20
4827398.919229152
  0
LWPOLYLINE
  5
D3
330
17
100
AcDbEntity
  8
ROADS
100
AcDbPolyline
 90
2
 70
0
 10
617837.8707022361
 20
4827297.935579154
 10
617806.5600115692
 20
4827386.316256811
  0
LWPOLYLINE
  5
D4
330
17
100
AcDbEntity
  8
ROADS
100
AcDbPolyline
 90
2
 70
0
 10
617806.5600115692
 20
4827386.316256811
 10
617799.3965409161
 20
4827408.096654915
  0
LWPOLYLINE
  5
D5
330
17
100
AcDbEntity
  8
ROADS
100
AcDbPolyline
 90
2
 70
0
 10
617890.2166121164
 20
4827439.445412314
 10
617799.3965409161
 20
4827408.096654915
  0
LWPOLYLINE
  5
D6
330
17
100
AcDbEntity
  8
ROADS
100
AcDbPolyline
 90
2
 70
0
 10
617799.3965409161
 20
4827408.096654915
 10
617775.5181981288
 20
4827474.370761907
  0
LWPOLYLINE
  5
D7
330
17
100
AcDbEntity
  8
ROADS
100
AcDbPolyline
 90
2
 70
0
 10
617775.5181981288
 20
4827474.370761907
 10
617664.0127332746
 20
4827435.087278518
  0
LWPOLYLINE
  5
D8
330
17
100
AcDbEntity
  8
ROADS
100
AcDbPolyline
 90
2
 70
0
 10
617621.0338916951
 20
4827518.9120825315
 10
617628.0121734055
 20
4827499.361210531
  0
LWPOLYLINE
  5
D9
330
17
100
AcDbEntity
  8
ROADS
100
AcDbPolyline
 90
2
 70
0
 10
618237.3433362163
 20
4827360.249837328
 10
618177.4377888998
 20
4827538.126449535
  0
LWPOLYLINE
  5
DA
330
17
100
AcDbEntity
  8
ROADS
100
AcDbPolyline
 90
2
 70
0
 10
618350.8921598825
 20
4827398.919229152
 10
618316.8203052252
 20
4827500.592648033
  0
LWPOLYLINE
  5
DB
330
17
100
AcDbEntity
  8
ROADS
100
AcDbPolyline
 90
2
 70
0
 10
617985.3876089628
 20
4827472.247789776
 10
617890.2166121164
 20
4827439.445412314
  0
LWPOLYLINE
  5
DC
330
17
100
AcDbEntity
  8
ROADS
100
AcDbPolyline
 90
2
 70
0
 10
618082.4241842892
 20
4827505.576885849
 10
617985.3876089628
 20
4827472.247789776
  0
LWPOLYLINE
  5
DD
330
17
100
AcDbEntity
  8
ROADS
100
AcDbPolyline
 90
2
 70
0
 10
618316.8203052252
 20
4827500.592648033
 10
618259.8359924346
 20
4827481.2801445825
  0
LWPOLYLINE
  5
DE
330
17
100
AcDbEntity
  8
ROADS
100
AcDbPolyline
 90
2
 70
0
 10
618478.7587153891
 20
4827443.172343222
 10
618445.2365978668
 20
4827542.81065008
  0
LWPOLYLINE
  5
DF
330
17
100
AcDbEntity
  8
ROADS
100
AcDbPolyline
 90
2
 70
0
 10
618445.2365978668
 20
4827542.81065008
 10
618316.8203052252
 20
4827500.592648033
  0
LWPOLYLINE
  5
E0
330
17
100
AcDbEntity
  8
ROADS
100
AcDbPolyline
 90
2
 70
0
 10
618177.4377888998
 20
4827538.126449535
 10
618082.4241842892
 20
4827505.576885849
  0
LWPOLYLINE
  5
E1
330
17
100
AcDbEntity
  8
ROADS
100
AcDbPolyline
 90
2
 70
0
 10
618177.4377888998
 20
4827538.126449535
 10
618166.5260648028
 20
4827571.4885955425
  0
LWPOLYLINE
  5
E2
330
17
100
AcDbEntity
  8
ROADS
100
AcDbPolyline
 90
2
 70
0
 10
618316.8203052252
 20
4827500.592648033
 10
618279.6299419231
 20
4827609.209984954
  0
LWPOLYLINE
  5
E3
330
17
100
AcDbEntity
  8
ROADS
100
AcDbPolyline
 90
2
 70
0
 10
619043.7456091619
 20
4827452.73520988
 10
618930.1914006015
 20
4827432.463305234
  0
LWPOLYLINE
  5
E4
330
17
100
AcDbEntity
  8
ROADS
100
AcDbPolyline
 90
3
 70
0
 10
618818.0120775058
 20
4827412.867260956
 10
618787.1064323136
 20
4827487.559002255
 10
618743.107861365
 20
4827507.275343735
  0
LWPOLYLINE
  5
E5
330
17
100
AcDbEntity
  8
ROADS
100
AcDbPolyline
 90
2
 70
0
 10
618606.4123152208
 20
4827485.652581735
 10
618478.7587153891
 20
4827443.172343222
  0
LWPOLYLINE
  5
E6
330
17
100
AcDbEntity
  8
ROADS
100
AcDbPolyline
 90
2
 70
0
 10
618930.1914006015
 20
4827432.463305234
 10
618892.7860284809
 20
4827557.417567717
  0
LWPOLYLINE
  5
E7
330
17
100
AcDbEntity
  8
ROADS
100
AcDbPolyline
 90
3
 70
0
 10
618743.107861365
 20
4827507.275343735
 10
618694.9678549836
 20
4827488.236505871
 10
618606.4123152208
 20
4827485.652581735
  0
LWPOLYLINE
  5
E8
330
17
100
AcDbEntity
  8
ROADS
100
AcDbPolyline
 90
2
 70
0
 10
619043.7456091619
 20
4827452.73520988
 10
618999.5400984475
 20
4827583.386948817
  0
LWPOLYLINE
  5
E9
330
17
100
AcDbEntity
  8
ROADS
100
AcDbPolyline
 90
2
 70
0
 10
618606.4123152208
 20
4827485.652581735
 10
618573.2969404472
 20
4827585.69228077
  0
LWPOLYLINE
  5
EA
330
17
100
AcDbEntity
  8
ROADS
100
AcDbPolyline
 90
2
 70
0
 10
618573.2969404472
 20
4827585.69228077
 10
618445.2365978668
 20
4827542.81065008
  0
LWPOLYLINE
  5
EB
330
17
100
AcDbEntity
  8
ROADS
100
AcDbPolyline
 90
3
 70
0
 10
618743.107861365
 20
4827507.275343735
 10
618722.7500830062
 20
4827530.595637394
 10
618688.6824813145
 20
4827646.429745793
  0
LWPOLYLINE
  5
EC
330
17
100
AcDbEntity
  8
ROADS
100
AcDbPolyline
 90
3
 70
0
 10
618999.5400984475
 20
4827583.386948817
 10
619029.941725483
 20
4827609.058799181
 10
619042.4482402822
 20
4827655.248321909
  0
LWPOLYLINE
  5
ED
330
17
100
AcDbEntity
  8
ROADS
100
AcDbPolyline
 90
2
 70
0
 10
618279.6299419231
 20
4827609.209984954
 10
618166.5260648028
 20
4827571.4885955425
  0
LWPOLYLINE
  5
EE
330
17
100
AcDbEntity
  8
ROADS
100
AcDbPolyline
 90
2
 70
0
 10
617985.3876089628
 20
4827472.247789776
 10
617900.1121163632
 20
4827721.686611968
  0
LWPOLYLINE
  5
EF
330
17
100
AcDbEntity
  8
ROADS
100
AcDbPolyline
 90
2
 70
0
 10
618445.2365978668
 20
4827542.81065008
 10
618408.0324604915
 20
4827652.687820205
  0
LWPOLYLINE
  5
F0
330
17
100
AcDbEntity
  8
ROADS
100
AcDbPolyline
 90
2
 70
0
 10
618166.5260648028
 20
4827571.4885955425
 10
618131.3786967555
 20
4827674.349564096
  0
LWPOLYLINE
  5
F1
330
17
100
AcDbEntity
  8
ROADS
100
AcDbPolyline
 90
2
 70
0
 10
618082.4241842892
 20
4827505.576885849
 10
617998.3193078085
 20
4827754.371886563
  0
LWPOLYLINE
  5
F2
330
17
100
AcDbEntity
  8
ROADS
100
AcDbPolyline
 90
2
 70
0
 10
618408.0324604915
 20
4827652.687820205
 10
618279.6299419231
 20
4827609.209984954
  0
LWPOLYLINE
  5
F3
330
17
100
AcDbEntity
  8
ROADS
100
AcDbPolyline
 90
2
 70
0
 10
618279.6299419231
 20
4827609.209984954
 10
618244.6923573227
 20
4827712.469786239
  0
LWPOLYLINE
  5
F4
330
17
100
AcDbEntity
  8
ROADS
100
AcDbPolyline
 90
2
 70
0
 10
618536.4481340087
 20
4827696.2149272
 10
618408.0324604915
 20
4827652.687820205
  0
LWPOLYLINE
  5
F5
330
17
100
AcDbEntity
  8
ROADS
100
AcDbPolyline
 90
2
 70
0
 10
618244.6923573227
 20
4827712.469786239
 10
618131.3786967555
 20
4827674.349564096
  0
LWPOLYLINE
  5
F6
330
17
100
AcDbEntity
  8
ROADS
100
AcDbPolyline
 90
2
 70
0
 10
618408.0324604915
 20
4827652.687820205
 10
618372.251858035
 20
4827756.222445633
  0
LWPOLYLINE
  5
F7
330
17
100
AcDbEntity
  8
ROADS
100
AcDbPolyline
 90
2
 70
0
 10
618573.2969404472
 20
4827585.69228077
 10
618536.4481340087
 20
4827696.2149272
  0
LWPOLYLINE
  5
F8
330
17
100
AcDbEntity
  8
ROADS
100
AcDbPolyline
 90
4
 70
0
 10
618883.0333688915
 20
4827722.928566497
 10
618925.2673832662
 20
4827605.373778274
 10
618964.8687447864
 20
4827582.83694322
 10
618999.5400984475
 20
4827583.386948817
  0
LWPOLYLINE
  5
F9
330
17
100
AcDbEntity
  8
ROADS
100
AcDbPolyline
 90
2
 70
0
 10
618883.0333688915
 20
4827722.928566497
 10
618688.6824813145
 20
4827646.429745793
  0
LWPOLYLINE
  5
FA
330
17
100
AcDbEntity
  8
ROADS
100
AcDbPolyline
 90
2
 70
0
 10
618623.2200563306
 20
4827722.976572808
 10
618536.4481340087
 20
4827696.2149272
  0
LWPOLYLINE
  5
FB
330
17
100
AcDbEntity
  8
ROADS
100
AcDbPolyline
 90
2
 70
0
 10
619042.4482402822
 20
4827655.248321909
 10
619007.941484923
 20
4827764.384351669
  0
LWPOLYLINE
  5
FC
330
17
100
AcDbEntity
  8
ROADS
100
AcDbPolyline
 90
2
 70
0
 10
618884.9574526354
 20
4827754.054450158
 10
618883.0333688915
 20
4827722.928566497
  0
LWPOLYLINE
  5
FD
330
17
100
AcDbEntity
  8
ROADS
100
AcDbPolyline
 90
2
 70
0
 10
618536.4481340087
 20
4827696.2149272
 10
618500.9697989479
 20
4827799.1800254
  0
LWPOLYLINE
  5
FE
330
17
100
AcDbEntity
  8
ROADS
100
AcDbPolyline
 90
4
 70
0
 10
618688.6824813145
 20
4827646.429745793
 10
618672.7825425173
 20
4827690.980280813
 10
618699.3834087134
 20
4827766.088282409
 10
618666.2453816327
 20
4827865.383547297
  0
LWPOLYLINE
  5
FF
330
17
100
AcDbEntity
  8
ROADS
100
AcDbPolyline
 90
2
 70
0
 10
618927.0218753056
 20
4827798.092561558
 10
618884.9574526354
 20
4827754.054450158
  0
LWPOLYLINE
  5
100
330
17
100
AcDbEntity
  8
ROADS
100
AcDbPolyline
 90
2
 70
0
 10
619007.941484923
 20
4827764.384351669
 10
618982.9615433065
 20
4827792.022353533
  0
LWPOLYLINE
  5
101
330
17
100
AcDbEntity
  8
ROADS
100
AcDbPolyline
 90
2
 70
0
 10
617710.2829928695
 20
4827659.475121377
 10
617624.592232744
 20
4827623.026761619
  0
LWPOLYLINE
  5
102
330
17
100
AcDbEntity
  8
ROADS
100
AcDbPolyline
 90
2
 70
0
 10
617804.7728072868
 20
4827689.956168246
 10
617710.2829928695
 20
4827659.475121377
  0
LWPOLYLINE
  5
103
330
17
100
AcDbEntity
  8
ROADS
100
AcDbPolyline
 90
2
 70
0
 10
617900.1121163632
 20
4827721.686611968
 10
617804.7728072868
 20
4827689.956168246
  0
LWPOLYLINE
  5
104
330
17
100
AcDbEntity
  8
ROADS
100
AcDbPolyline
 90
5
 70
0
 10
617718.6152943994
 20
4827797.88166747
 10
617725.9070170294
 20
4827713.559015679
 10
617702.8348937945
 20
4827687.990592437
 10
617633.3746361422
 20
4827658.7445073025
 10
617624.592232744
 20
4827623.026761619
  0
LWPOLYLINE
  5
105
330
17
100
AcDbEntity
  8
ROADS
100
AcDbPolyline
 90
4
 70
0
 10
617884.2913196951
 20
4827750.279928316
 10
617773.5533536738
 20
4827720.828526764
 10
617742.9582838189
 20
4827745.8099565795
 10
617718.6152943994
 20
4827797.88166747
  0
LWPOLYLINE
  5
106
330
17
100
AcDbEntity
  8
ROADS
100
AcDbPolyline
 90
2
 70
0
 10
618131.3786967555
 20
4827674.349564096
 10
618093.9861772624
 20
4827786.019277384
  0
LWPOLYLINE
  5
107
330
17
100
AcDbEntity
  8
ROADS
100
AcDbPolyline
 90
2
 70
0
 10
617962.3524868714
 20
4827742.497087814
 10
617900.1121163632
 20
4827721.686611968
  0
LWPOLYLINE
  5
108
330
17
100
AcDbEntity
  8
ROADS
100
AcDbPolyline
 90
2
 70
0
 10
618372.251858035
 20
4827756.222445633
 10
618244.6923573227
 20
4827712.469786239
  0
LWPOLYLINE
  5
109
330
17
100
AcDbEntity
  8
ROADS
100
AcDbPolyline
 90
2
 70
0
 10
617900.1121163632
 20
4827721.686611968
 10
617884.2913196951
 20
4827750.279928316
  0
LWPOLYLINE
  5
10A
330
17
100
AcDbEntity
  8
ROADS
100
AcDbPolyline
 90
2
 70
0
 10
617962.3524868714
 20
4827742.497087814
 10
617884.2913196951
 20
4827750.279928316
  0
LWPOLYLINE
  5
10B
330
17
100
AcDbEntity
  8
ROADS
100
AcDbPolyline
 90
2
 70
0
 10
617998.3193078085
 20
4827754.371886563
 10
617962.3524868714
 20
4827742.497087814
  0
LWPOLYLINE
  5
10C
330
17
100
AcDbEntity
  8
ROADS
100
AcDbPolyline
 90
2
 70
0
 10
618244.6923573227
 20
4827712.469786239
 10
618207.1364379072
 20
4827824.104581946
  0
LWPOLYLINE
  5
10D
330
17
100
AcDbEntity
  8
ROADS
100
AcDbPolyline
 90
2
 70
0
 10
618093.9861772624
 20
4827786.019277384
 10
617998.3193078085
 20
4827754.371886563
  0
LWPOLYLINE
  5
10E
330
17
100
AcDbEntity
  8
ROADS
100
AcDbPolyline
 90
2
 70
0
 10
618500.9697989479
 20
4827799.1800254
 10
618372.251858035
 20
4827756.222445633
  0
LWPOLYLINE
  5
10F
330
17
100
AcDbEntity
  8
ROADS
100
AcDbPolyline
 90
2
 70
0
 10
618372.251858035
 20
4827756.222445633
 10
618354.9700769419
 20
4827810.232316301
  0
LWPOLYLINE
  5
110
330
17
100
AcDbEntity
  8
ROADS
100
AcDbPolyline
 90
2
 70
0
 10
618982.9615433065
 20
4827792.022353533
 10
618927.0218753056
 20
4827798.092561558
  0
LWPOLYLINE
  5
111
330
17
100
AcDbEntity
  8
ROADS
100
AcDbPolyline
 90
2
 70
0
 10
618560.6857357188
 20
4827819.073938064
 10
618500.9697989479
 20
4827799.1800254
  0
LWPOLYLINE
  5
112
330
17
100
AcDbEntity
  8
ROADS
100
AcDbPolyline
 90
3
 70
0
 10
618884.9574526354
 20
4827754.054450158
 10
618806.2442054591
 20
4827798.271870266
 10
618773.5660537105
 20
4827898.238491821
  0
LWPOLYLINE
  5
113
330
17
100
AcDbEntity
  8
ROADS
100
AcDbPolyline
 90
2
 70
0
 10
618927.0218753056
 20
4827798.092561558
 10
618880.2979524445
 20
4827936.509024984
  0
LWPOLYLINE
  5
114
330
17
100
AcDbEntity
  8
ROADS
100
AcDbPolyline
 90
3
 70
0
 10
618982.9615433065
 20
4827792.022353533
 10
619019.9083873216
 20
4827864.7161463555
 10
618988.9170863508
 20
4827968.901439926
  0
LWPOLYLINE
  5
115
330
17
100
AcDbEntity
  8
ROADS
100
AcDbPolyline
 90
2
 70
0
 10
618773.5660537105
 20
4827898.238491821
 10
618666.2453816327
 20
4827865.383547297
  0
LWPOLYLINE
  5
116
330
17
100
AcDbEntity
  8
ROADS
100
AcDbPolyline
 90
2
 70
0
 10
618666.2453816327
 20
4827865.383547297
 10
618631.7702926041
 20
4827967.225742805
  0
LWPOLYLINE
  5
117
330
17
100
AcDbEntity
  8
ROADS
100
AcDbPolyline
 90
2
 70
0
 10
618880.2979524445
 20
4827936.509024984
 10
618773.5660537105
 20
4827898.238491821
  0
LWPOLYLINE
  5
118
330
17
100
AcDbEntity
  8
ROADS
100
AcDbPolyline
 90
2
 70
0
 10
618576.4954890994
 20
4827949.216055984
 10
618464.6917656136
 20
4827911.3189888885
  0
LWPOLYLINE
  5
119
330
17
100
AcDbEntity
  8
ROADS
100
AcDbPolyline
 90
2
 70
0
 10
618988.9170863508
 20
4827968.901439926
 10
618880.2979524445
 20
4827936.509024984
  0
LWPOLYLINE
  5
11A
330
17
100
AcDbEntity
  8
ROADS
100
AcDbPolyline
 90
3
 70
0
 10
617660.9650443123
 20
4827894.933474609
 10
617688.931395997
 20
4827815.156782166
 10
617560.9491875368
 20
4827724.11263969
  0
LWPOLYLINE
  5
11B
330
17
100
AcDbEntity
  8
ROADS
100
AcDbPolyline
 90
2
 70
0
 10
617660.9650443123
 20
4827894.933474609
 10
617550.5911805553
 20
4827859.1058009295
  0
LWPOLYLINE
  5
11C
330
17
100
AcDbEntity
  8
ROADS
100
AcDbPolyline
 90
2
 70
0
 10
617970.4565365964
 20
4827977.69841364
 10
617718.6152943994
 20
4827797.88166747
  0
LWPOLYLINE
  5
11D
330
17
100
AcDbEntity
  8
ROADS
100
AcDbPolyline
 90
2
 70
0
 10
617718.6152943994
 20
4827797.88166747
 10
617642.656855211
 20
4828011.436756751
  0
LWPOLYLINE
  5
11E
330
17
100
AcDbEntity
  8
ROADS
100
AcDbPolyline
 90
3
 70
0
 10
617642.656855211
 20
4828011.436756751
 10
617627.4544427481
 20
4827998.41682944
 10
617660.9650443123
 20
4827894.933474609
  0
LWPOLYLINE
  5
11F
330
17
100
AcDbEntity
  8
ROADS
100
AcDbPolyline
 90
2
 70
0
 10
617642.656855211
 20
4828011.436756751
 10
617560.5302042163
 20
4827984.389193029
  0
LWPOLYLINE
  5
120
330
17
100
AcDbEntity
  8
ROADS
100
AcDbPolyline
 90
2
 70
0
 10
618207.1364379072
 20
4827824.104581946
 10
618093.9861772624
 20
4827786.019277384
  0
LWPOLYLINE
  5
121
330
17
100
AcDbEntity
  8
ROADS
100
AcDbPolyline
 90
2
 70
0
 10
618500.9697989479
 20
4827799.1800254
 10
618483.1521541106
 20
4827853.568252889
  0
LWPOLYLINE
  5
122
330
17
100
AcDbEntity
  8
ROADS
100
AcDbPolyline
 90
2
 70
0
 10
618483.1521541106
 20
4827853.568252889
 10
618354.9700769419
 20
4827810.232316301
  0
LWPOLYLINE
  5
123
330
17
100
AcDbEntity
  8
ROADS
100
AcDbPolyline
 90
2
 70
0
 10
618354.9700769419
 20
4827810.232316301
 10
618335.6655889727
 20
4827867.710781971
  0
LWPOLYLINE
  5
124
330
17
100
AcDbEntity
  8
ROADS
100
AcDbPolyline
 90
2
 70
0
 10
618335.6655889727
 20
4827867.710781971
 10
618207.1364379072
 20
4827824.104581946
  0
LWPOLYLINE
  5
125
330
17
100
AcDbEntity
  8
ROADS
100
AcDbPolyline
 90
2
 70
0
 10
618483.1521541106
 20
4827853.568252889
 10
618464.6917656136
 20
4827911.3189888885
  0
LWPOLYLINE
  5
126
330
17
100
AcDbEntity
  8
ROADS
100
AcDbPolyline
 90
2
 70
0
 10
618464.6917656136
 20
4827911.3189888885
 10
618335.6655889727
 20
4827867.710781971
  0
LWPOLYLINE
  5
127
330
17
100
AcDbEntity
  8
ROADS
100
AcDbPolyline
 90
2
 70
0
 10
618335.6655889727
 20
4827867.710781971
 10
618315.3383743648
 20
4827963.663124021
  0
LWPOLYLINE
  5
128
330
17
100
AcDbEntity
  8
ROADS
100
AcDbPolyline
 90
2
 70
0
 10
618315.3383743648
 20
4827963.663124021
 10
618201.0279841317
 20
4827926.63385001
  0
LWPOLYLINE
  5
129
330
17
100
AcDbEntity
  8
ROADS
100
AcDbPolyline
 90
2
 70
0
 10
618315.3383743648
 20
4827963.663124021
 10
618340.02510198
 20
4827971.812153791
  0
LWPOLYLINE
  5
12A
330
17
100
AcDbEntity
  8
ROADS
100
AcDbPolyline
 90
2
 70
0
 10
618315.3383743648
 20
4827963.663124021
 10
618337.4686299002
 20
4827983.408401471
  0
LWPOLYLINE
  5
12B
330
17
100
AcDbEntity
  8
ROADS
100
AcDbPolyline
 90
2
 70
0
 10
618340.02510198
 20
4827971.812153791
 10
618337.4686299002
 20
4827983.408401471
  0
LWPOLYLINE
  5
12C
330
17
100
AcDbEntity
  8
ROADS
100
AcDbPolyline
 90
2
 70
0
 10
618340.02510198
 20
4827971.812153791
 10
618376.6986964997
 20
4827984.145767589
  0
LWPOLYLINE
  5
12D
330
17
100
AcDbEntity
  8
ROADS
100
AcDbPolyline
 90
2
 70
0
 10
618315.3383743648
 20
4827963.663124021
 10
618301.4323974985
 20
4828001.295355802
  0
LWPOLYLINE
  5
12E
330
17
100
AcDbEntity
  8
ROADS
100
AcDbPolyline
 90
2
 70
0
 10
618337.4686299002
 20
4827983.408401471
 10
618346.8106600356
 20
4827991.73237433
  0
LWPOLYLINE
  5
12F
330
17
100
AcDbEntity
  8
ROADS
100
AcDbPolyline
 90
2
 70
0
 10
618376.6986964997
 20
4827984.145767589
 10
618363.7345109967
 20
4828004.179390954
  0
LWPOLYLINE
  5
130
330
17
100
AcDbEntity
  8
ROADS
100
AcDbPolyline
 90
2
 70
0
 10
618337.4686299002
 20
4827983.408401471
 10
618332.658455018
 20
4828011.654040655
  0
LWPOLYLINE
  5
131
330
17
100
AcDbEntity
  8
ROADS
100
AcDbPolyline
 90
2
 70
0
 10
618346.8106600356
 20
4827991.73237433
 10
618363.7345109967
 20
4828004.179390954
  0
LWPOLYLINE
  5
132
330
17
100
AcDbEntity
  8
ROADS
100
AcDbPolyline
 90
2
 70
0
 10
618346.8106600356
 20
4827991.73237433
 10
618332.658455018
 20
4828011.654040655
  0
LWPOLYLINE
  5
133
330
17
100
AcDbEntity
  8
ROADS
100
AcDbPolyline
 90
2
 70
0
 10
618301.4323974985
 20
4828001.295355802
 10
618332.658455018
 20
4828011.654040655
  0
LWPOLYLINE
  5
134
330
17
100
AcDbEntity
  8
ROADS
100
AcDbPolyline
 90
2
 70
0
 10
619255.7253167303
 20
4827860.723824498
 10
619230.6784842429
 20
4827935.707421463
  0
LWPOLYLINE
  5
135
330
17
100
AcDbEntity
  8
ROADS
100
AcDbPolyline
 90
2
 70
0
 10
619126.1541605791
 20
4827909.920177918
 10
619230.6784842429
 20
4827935.707421463
  0
LWPOLYLINE
  5
136
330
17
100
AcDbEntity
  8
ROADS
100
AcDbPolyline
 90
2
 70
0
 10
619126.1541605791
 20
4827909.920177918
 10
619093.1375838441
 20
4828007.5246861195
  0
LWPOLYLINE
  5
137
330
17
100
AcDbEntity
  8
ROADS
100
AcDbPolyline
 90
2
 70
0
 10
619093.1375838441
 20
4828007.5246861195
 10
618988.9170863508
 20
4827968.901439926
  0
LWPOLYLINE
  5
138
330
17
100
AcDbEntity
  8
ROADS
100
AcDbPolyline
 90
2
 70
0
 10
619407.437762892
 20
4827909.867971725
 10
619348.6982891094
 20
4828095.635471081
  0
LWPOLYLINE
  5
139
330
17
100
AcDbEntity
  8
ROADS
100
AcDbPolyline
 90
4
 70
0
 10
619230.6784842429
 20
4827935.707421463
 10
619284.470752506
 20
4827971.86005922
 10
619268.7330449336
 20
4828062.860349343
 10
619348.6982891094
 20
4828095.635471081
  0
LWPOLYLINE
  5
13A
330
17
100
AcDbEntity
  8
ROADS
100
AcDbPolyline
 90
2
 70
0
 10
619230.6784842429
 20
4827935.707421463
 10
619160.6966913581
 20
4828141.1305610575
  0
LWPOLYLINE
  5
13B
330
17
100
AcDbEntity
  8
ROADS
100
AcDbPolyline
 90
2
 70
0
 10
619093.1375838441
 20
4828007.5246861195
 10
619060.805437667
 20
4828108.483659007
  0
LWPOLYLINE
  5
13C
330
17
100
AcDbEntity
  8
ROADS
100
AcDbPolyline
 90
2
 70
0
 10
619104.2662967152
 20
4828122.869943391
 10
619060.805437667
 20
4828108.483659007
  0
LWPOLYLINE
  5
13D
330
17
100
AcDbEntity
  8
ROADS
100
AcDbPolyline
 90
2
 70
0
 10
619160.6966913581
 20
4828141.1305610575
 10
619104.2662967152
 20
4828122.869943391
  0
LWPOLYLINE
  5
13E
330
17
100
AcDbEntity
  8
ROADS
100
AcDbPolyline
 90
2
 70
0
 10
617591.6254693563
 20
4827601.352833221
 10
617590.8685514437
 20
4827600.344180221
  0
LWPOLYLINE
  5
13F
330
17
100
AcDbEntity
  8
ROADS
100
AcDbPolyline
 90
2
 70
0
 10
617775.5181981288
 20
4827474.370761907
 10
617744.9330460111
 20
4827561.834476346
  0
LWPOLYLINE
  5
140
330
17
100
AcDbEntity
  8
ROADS
100
AcDbPolyline
 90
2
 70
0
 10
617744.9330460111
 20
4827561.834476346
 10
617621.0338916951
 20
4827518.9120825315
  0
LWPOLYLINE
  5
141
330
17
100
AcDbEntity
  8
ROADS
100
AcDbPolyline
 90
3
 70
0
 10
617580.037989999
 20
4827638.188609989
 10
617608.9627660442
 20
4827655.812651354
 10
617601.8744676029
 20
4827692.370874914
  0
LWPOLYLINE
  5
142
330
17
100
AcDbEntity
  8
ROADS
100
AcDbPolyline
 90
2
 70
0
 10
617591.6254693563
 20
4827601.352833221
 10
617621.0338916951
 20
4827518.9120825315
  0
LWPOLYLINE
  5
143
330
17
100
AcDbEntity
  8
ROADS
100
AcDbPolyline
 90
2
 70
0
 10
617890.2166121164
 20
4827439.445412314
 10
617804.7728072868
 20
4827689.956168246
  0
LWPOLYLINE
  5
144
330
17
100
AcDbEntity
  8
ROADS
100
AcDbPolyline
 90
2
 70
0
 10
617718.6152943994
 20
4827797.88166747
 10
617567.702352163
 20
4827687.105976029
  0
LWPOLYLINE
  5
145
330
17
100
AcDbEntity
  8
ROADS
100
AcDbPolyline
 90
2
 70
0
 10
617744.9330460111
 20
4827561.834476346
 10
617710.2829928695
 20
4827659.475121377
  0
LWPOLYLINE
  5
146
330
17
100
AcDbEntity
  8
ROADS
100
AcDbPolyline
 90
2
 70
0
 10
617624.592232744
 20
4827623.026761619
 10
617591.6254693563
 20
4827601.352833221
  0
LWPOLYLINE
  5
147
330
17
100
AcDbEntity
  8
ROADS
100
AcDbPolyline
 90
2
 70
0
 10
617642.656855211
 20
4828011.436756751
 10
617613.9190884879
 20
4828093.835580119
  0
LWPOLYLINE
  5
148
330
17
100
AcDbEntity
  8
ROADS
100
AcDbPolyline
 90
2
 70
0
 10
617613.9190884879
 20
4828093.835580119
 10
617584.653315527
 20
4828084.341950456
  0
LWPOLYLINE
  5
149
330
17
100
AcDbEntity
  8
ROADS
100
AcDbPolyline
 90
2
 70
0
 10
617613.9190884879
 20
4828093.835580119
 10
617600.2535058238
 20
4828132.927869209
  0
LWPOLYLINE
  5
14A
330
17
100
AcDbEntity
  8
ROADS
100
AcDbPolyline
 90
2
 70
0
 10
618631.7702926041
 20
4827967.225742805
 10
618576.4954890994
 20
4827949.216055984
  0
LWPOLYLINE
  5
14B
330
17
100
AcDbEntity
  8
ROADS
100
AcDbPolyline
 90
2
 70
0
 10
618674.2760238744
 20
4827981.226731684
 10
618631.7702926041
 20
4827967.225742805
  0
LWPOLYLINE
  5
14C
330
17
100
AcDbEntity
  8
ROADS
100
AcDbPolyline
 90
2
 70
0
 10
618880.2979524445
 20
4827936.509024984
 10
618845.8078663554
 20
4828037.960993829
  0
LWPOLYLINE
  5
14D
330
17
100
AcDbEntity
  8
ROADS
100
AcDbPolyline
 90
2
 70
0
 10
618791.2736045866
 20
4828019.865652649
 10
618674.2760238744
 20
4827981.226731684
  0
LWPOLYLINE
  5
14E
330
17
100
AcDbEntity
  8
ROADS
100
AcDbPolyline
 90
2
 70
0
 10
618674.2760238744
 20
4827981.226731684
 10
618659.2079766246
 20
4828021.241106773
  0
LWPOLYLINE
  5
14F
330
17
100
AcDbEntity
  8
ROADS
100
AcDbPolyline
 90
2
 70
0
 10
618845.8078663554
 20
4828037.960993829
 10
618791.2736045866
 20
4828019.865652649
  0
LWPOLYLINE
  5
150
330
17
100
AcDbEntity
  8
ROADS
100
AcDbPolyline
 90
2
 70
0
 10
618719.4962705789
 20
4828042.446450214
 10
618659.2079766246
 20
4828021.241106773
  0
LWPOLYLINE
  5
151
330
17
100
AcDbEntity
  8
ROADS
100
AcDbPolyline
 90
2
 70
0
 10
618791.2736045866
 20
4828019.865652649
 10
618776.9264001527
 20
4828062.714159144
  0
LWPOLYLINE
  5
152
330
17
100
AcDbEntity
  8
ROADS
100
AcDbPolyline
 90
2
 70
0
 10
618776.9264001527
 20
4828062.714159144
 10
618719.4962705789
 20
4828042.446450214
  0
LWPOLYLINE
  5
153
330
17
100
AcDbEntity
  8
ROADS
100
AcDbPolyline
 90
2
 70
0
 10
618719.4962705789
 20
4828042.446450214
 10
618704.2344091829
 20
4828087.212500693
  0
LWPOLYLINE
  5
154
330
17
100
AcDbEntity
  8
ROADS
100
AcDbPolyline
 90
2
 70
0
 10
618301.4323974985
 20
4828001.295355802
 10
618295.7140529448
 20
4828013.044516086
  0
LWPOLYLINE
  5
155
330
17
100
AcDbEntity
  8
ROADS
100
AcDbPolyline
 90
2
 70
0
 10
618363.7345109967
 20
4828004.179390954
 10
618362.2374373244
 20
4828028.438213691
  0
LWPOLYLINE
  5
156
330
17
100
AcDbEntity
  8
ROADS
100
AcDbPolyline
 90
2
 70
0
 10
618324.1219754791
 20
4828022.629789982
 10
618332.658455018
 20
4828011.654040655
  0
LWPOLYLINE
  5
157
330
17
100
AcDbEntity
  8
ROADS
100
AcDbPolyline
 90
2
 70
0
 10
618295.7140529448
 20
4828013.044516086
 10
618324.1219754791
 20
4828022.629789982
  0
LWPOLYLINE
  5
158
330
17
100
AcDbEntity
  8
ROADS
100
AcDbPolyline
 90
2
 70
0
 10
618332.658455018
 20
4828011.654040655
 10
618362.2374373244
 20
4828028.438213691
  0
LWPOLYLINE
  5
159
330
17
100
AcDbEntity
  8
ROADS
100
AcDbPolyline
 90
2
 70
0
 10
618324.1219754791
 20
4828022.629789982
 10
618362.2374373244
 20
4828028.438213691
  0
LWPOLYLINE
  5
15A
330
17
100
AcDbEntity
  8
ROADS
100
AcDbPolyline
 90
3
 70
0
 10
618447.4431468444
 20
4828080.680556333
 10
618468.4457986279
 20
4828016.220497287
 10
618376.6986964997
 20
4827984.145767589
  0
LWPOLYLINE
  5
15B
330
17
100
AcDbEntity
  8
ROADS
100
AcDbPolyline
 90
2
 70
0
 10
618407.5816401142
 20
4828067.28332996
 10
618366.0472303735
 20
4828053.323880531
  0
LWPOLYLINE
  5
15C
330
17
100
AcDbEntity
  8
ROADS
100
AcDbPolyline
 90
2
 70
0
 10
618295.7140529448
 20
4828013.044516086
 10
618250.2292736954
 20
4828133.511437839
  0
LWPOLYLINE
  5
15D
330
17
100
AcDbEntity
  8
ROADS
100
AcDbPolyline
 90
2
 70
0
 10
618447.4431468444
 20
4828080.680556333
 10
618407.5816401142
 20
4828067.28332996
  0
LWPOLYLINE
  5
15E
330
17
100
AcDbEntity
  8
ROADS
100
AcDbPolyline
 90
2
 70
0
 10
618659.2079766246
 20
4828021.241106773
 10
618625.9823024963
 20
4828120.235742484
  0
LWPOLYLINE
  5
15F
330
17
100
AcDbEntity
  8
ROADS
100
AcDbPolyline
 90
2
 70
0
 10
619060.805437667
 20
4828108.483659007
 10
618845.8078663554
 20
4828037.960993829
  0
LWPOLYLINE
  5
160
330
17
100
AcDbEntity
  8
ROADS
100
AcDbPolyline
 90
2
 70
0
 10
618576.4954890994
 20
4827949.216055984
 10
618486.1697317592
 20
4828216.243140403
  0
LWPOLYLINE
  5
161
330
17
100
AcDbEntity
  8
ROADS
100
AcDbPolyline
 90
2
 70
0
 10
618776.9264001527
 20
4828062.714159144
 10
618761.4800415649
 20
4828108.06090624
  0
LWPOLYLINE
  5
162
330
17
100
AcDbEntity
  8
ROADS
100
AcDbPolyline
 90
2
 70
0
 10
618704.2344091829
 20
4828087.212500693
 10
618761.4800415649
 20
4828108.06090624
  0
LWPOLYLINE
  5
163
330
17
100
AcDbEntity
  8
ROADS
100
AcDbPolyline
 90
2
 70
0
 10
618704.2344091829
 20
4828087.212500693
 10
618684.9229846984
 20
4828140.4747337075
  0
LWPOLYLINE
  5
164
330
17
100
AcDbEntity
  8
ROADS
100
AcDbPolyline
 90
2
 70
0
 10
618684.9229846984
 20
4828140.4747337075
 10
618625.9823024963
 20
4828120.235742484
  0
LWPOLYLINE
  5
165
330
17
100
AcDbEntity
  8
ROADS
100
AcDbPolyline
 90
2
 70
0
 10
618935.0602795575
 20
4828166.883311594
 10
618761.4800415649
 20
4828108.06090624
  0
LWPOLYLINE
  5
166
330
17
100
AcDbEntity
  8
ROADS
100
AcDbPolyline
 90
2
 70
0
 10
618684.9229846984
 20
4828140.4747337075
 10
618677.6049780495
 20
4828161.782366468
  0
LWPOLYLINE
  5
167
330
17
100
AcDbEntity
  8
ROADS
100
AcDbPolyline
 90
2
 70
0
 10
618761.4800415649
 20
4828108.06090624
 10
618726.9777762158
 20
4828197.115152271
  0
LWPOLYLINE
  5
168
330
17
100
AcDbEntity
  8
ROADS
100
AcDbPolyline
 90
2
 70
0
 10
618411.2743621018
 20
4828191.693405973
 10
618447.4431468444
 20
4828080.680556333
  0
LWPOLYLINE
  5
169
330
17
100
AcDbEntity
  8
ROADS
100
AcDbPolyline
 90
2
 70
0
 10
618407.5816401142
 20
4828067.28332996
 10
618358.6692881929
 20
4828205.883033043
  0
LWPOLYLINE
  5
16A
330
17
100
AcDbEntity
  8
ROADS
100
AcDbPolyline
 90
4
 70
0
 10
617970.4565365964
 20
4827977.69841364
 10
618021.4873847469
 20
4828040.191966194
 10
618037.0222662494
 20
4828102.477600503
 10
617977.9208848455
 20
4828303.309283688
  0
LWPOLYLINE
  5
16B
330
17
100
AcDbEntity
  8
ROADS
100
AcDbPolyline
 90
2
 70
0
 10
618538.1298861796
 20
4828382.75482354
 10
617970.4565365964
 20
4827977.69841364
  0
LWPOLYLINE
  5
16C
330
17
100
AcDbEntity
  8
ROADS
100
AcDbPolyline
 90
2
 70
0
 10
618486.1697317592
 20
4828216.243140403
 10
618411.2743621018
 20
4828191.693405973
  0
LWPOLYLINE
  5
16D
330
17
100
AcDbEntity
  8
ROADS
100
AcDbPolyline
 90
2
 70
0
 10
618411.2743621018
 20
4828191.693405973
 10
618393.3234437698
 20
4828234.684790231
  0
LWPOLYLINE
  5
16E
330
17
100
AcDbEntity
  8
ROADS
100
AcDbPolyline
 90
2
 70
0
 10
618486.1697317592
 20
4828216.243140403
 10
618455.8625699619
 20
4828303.361484559
  0
LWPOLYLINE
  5
16F
330
17
100
AcDbEntity
  8
ROADS
100
AcDbPolyline
 90
4
 70
0
 10
618396.339040986
 20
4828477.38681636
 10
618166.269010958
 20
4828394.926463453
 10
618185.5393547451
 20
4828286.787681309
 10
618098.9631290041
 20
4828261.602509903
  0
LWPOLYLINE
  5
170
330
17
100
AcDbEntity
  8
ROADS
100
AcDbPolyline
 90
2
 70
0
 10
618424.5494059634
 20
4828400.057486895
 10
618386.3419096416
 20
4828372.48658979
  0
LWPOLYLINE
  5
171
330
17
100
AcDbEntity
  8
ROADS
100
AcDbPolyline
 90
2
 70
0
 10
618490.2897660753
 20
4828445.799208404
 10
618424.5494059634
 20
4828400.057486895
  0
LWPOLYLINE
  5
172
330
17
100
AcDbEntity
  8
ROADS
100
AcDbPolyline
 90
2
 70
0
 10
618625.9823024963
 20
4828120.235742484
 10
618582.7119975833
 20
4828249.371067094
  0
LWPOLYLINE
  5
173
330
17
100
AcDbEntity
  8
ROADS
100
AcDbPolyline
 90
2
 70
0
 10
619073.336291231
 20
4828214.351873407
 10
618935.0602795575
 20
4828166.883311594
  0
LWPOLYLINE
  5
174
330
17
100
AcDbEntity
  8
ROADS
100
AcDbPolyline
 90
2
 70
0
 10
618935.0602795575
 20
4828166.883311594
 10
618903.2064899767
 20
4828255.859418452
  0
LWPOLYLINE
  5
175
330
17
100
AcDbEntity
  8
ROADS
100
AcDbPolyline
 90
2
 70
0
 10
618903.2064899767
 20
4828255.859418452
 10
618726.9777762158
 20
4828197.115152271
  0
LWPOLYLINE
  5
176
330
17
100
AcDbEntity
  8
ROADS
100
AcDbPolyline
 90
2
 70
0
 10
618582.7119975833
 20
4828249.371067094
 10
618486.1697317592
 20
4828216.243140403
  0
LWPOLYLINE
  5
177
330
17
100
AcDbEntity
  8
ROADS
100
AcDbPolyline
 90
3
 70
0
 10
618726.9777762158
 20
4828197.115152271
 10
618698.7158607643
 20
4828218.984628336
 10
618676.98267291
 20
4828282.0854795035
  0
LWPOLYLINE
  5
178
330
17
100
AcDbEntity
  8
ROADS
100
AcDbPolyline
 90
2
 70
0
 10
618676.98267291
 20
4828282.0854795035
 10
618582.7119975833
 20
4828249.371067094
  0
LWPOLYLINE
  5
179
330
17
100
AcDbEntity
  8
ROADS
100
AcDbPolyline
 90
2
 70
0
 10
619041.175003005
 20
4828303.630471652
 10
618903.2064899767
 20
4828255.859418452
  0
LWPOLYLINE
  5
17A
330
17
100
AcDbEntity
  8
ROADS
100
AcDbPolyline
 90
2
 70
0
 10
618582.7119975833
 20
4828249.371067094
 10
618538.1298861796
 20
4828382.75482354
  0
LWPOLYLINE
  5
17B
330
17
100
AcDbEntity
  8
ROADS
100
AcDbPolyline
 90
2
 70
0
 10
618676.98267291
 20
4828282.0854795035
 10
618644.921205434
 20
4828372.925824301
  0
LWPOLYLINE
  5
17C
330
17
100
AcDbEntity
  8
ROADS
100
AcDbPolyline
 90
2
 70
0
 10
619227.5051909385
 20
4828265.628592598
 10
619199.8577548098
 20
4828359.242898138
  0
LWPOLYLINE
  5
17D
330
17
100
AcDbEntity
  8
ROADS
100
AcDbPolyline
 90
2
 70
0
 10
619199.8577548098
 20
4828359.242898138
 10
619041.175003005
 20
4828303.630471652
  0
LWPOLYLINE
  5
17E
330
17
100
AcDbEntity
  8
ROADS
100
AcDbPolyline
 90
2
 70
0
 10
619352.3158793685
 20
4828201.500331756
 10
619260.4463430453
 20
4828482.057609123
  0
LWPOLYLINE
  5
17F
330
17
100
AcDbEntity
  8
ROADS
100
AcDbPolyline
 90
2
 70
0
 10
619438.9406268506
 20
4828230.330091889
 10
619350.0517628883
 20
4828506.86660483
  0
LWPOLYLINE
  5
180
330
17
100
AcDbEntity
  8
ROADS
100
AcDbPolyline
 90
2
 70
0
 10
619199.8577548098
 20
4828359.242898138
 10
619170.5734092068
 20
4828450.964559113
  0
LWPOLYLINE
  5
181
330
17
100
AcDbEntity
  8
ROADS
100
AcDbPolyline
 90
2
 70
0
 10
619170.5734092068
 20
4828450.964559113
 10
619009.2293527662
 20
4828394.035988867
  0
LWPOLYLINE
  5
182
330
17
100
AcDbEntity
  8
ROADS
100
AcDbPolyline
 90
2
 70
0
 10
619260.4463430453
 20
4828482.057609123
 10
619170.5734092068
 20
4828450.964559113
  0
LWPOLYLINE
  5
183
330
17
100
AcDbEntity
  8
ROADS
100
AcDbPolyline
 90
2
 70
0
 10
619314.0835803415
 20
4828499.933843358
 10
619260.4463430453
 20
4828482.057609123
  0
LWPOLYLINE
  5
184
330
17
100
AcDbEntity
  8
ROADS
100
AcDbPolyline
 90
2
 70
0
 10
619170.5734092068
 20
4828450.964559113
 10
619141.2517698498
 20
4828543.199550339
  0
LWPOLYLINE
  5
185
330
17
100
AcDbEntity
  8
ROADS
100
AcDbPolyline
 90
2
 70
0
 10
619350.0517628883
 20
4828506.86660483
 10
619314.0835803415
 20
4828499.933843358
  0
LWPOLYLINE
  5
186
330
17
100
AcDbEntity
  8
ROADS
100
AcDbPolyline
 90
2
 70
0
 10
619009.2293527662
 20
4828394.035988867
 10
618676.98267291
 20
4828282.0854795035
  0
LWPOLYLINE
  5
187
330
17
100
AcDbEntity
  8
ROADS
100
AcDbPolyline
 90
2
 70
0
 10
619041.175003005
 20
4828303.630471652
 10
619009.2293527662
 20
4828394.035988867
  0
LWPOLYLINE
  5
188
330
17
100
AcDbEntity
  8
ROADS
100
AcDbPolyline
 90
2
 70
0
 10
618886.4531559657
 20
4828455.543252183
 10
618644.921205434
 20
4828372.925824301
  0
LWPOLYLINE
  5
189
330
17
100
AcDbEntity
  8
ROADS
100
AcDbPolyline
 90
4
 70
0
 10
618644.921205434
 20
4828372.925824301
 10
618629.0536902172
 20
4828417.9184222035
 10
618718.7060734135
 20
4828481.347106823
 10
618779.1061629145
 20
4828483.512861279
  0
LWPOLYLINE
  5
18A
330
17
100
AcDbEntity
  8
ROADS
100
AcDbPolyline
 90
2
 70
0
 10
619009.2293527662
 20
4828394.035988867
 10
618979.5734204089
 20
4828487.284941275
  0
LWPOLYLINE
  5
18B
330
17
100
AcDbEntity
  8
ROADS
100
AcDbPolyline
 90
2
 70
0
 10
618538.1298861796
 20
4828382.75482354
 10
618494.0524727973
 20
4828511.003476108
  0
LWPOLYLINE
  5
18C
330
17
100
AcDbEntity
  8
ROADS
100
AcDbPolyline
 90
2
 70
0
 10
618979.5734204089
 20
4828487.284941275
 10
618886.4531559657
 20
4828455.543252183
  0
LWPOLYLINE
  5
18D
330
17
100
AcDbEntity
  8
ROADS
100
AcDbPolyline
 90
2
 70
0
 10
618780.4383208766
 20
4828462.352144835
 10
618779.1061629145
 20
4828483.512861279
  0
LWPOLYLINE
  5
18E
330
17
100
AcDbEntity
  8
ROADS
100
AcDbPolyline
 90
2
 70
0
 10
618886.4531559657
 20
4828455.543252183
 10
618867.6374610222
 20
4828510.257499216
  0
LWPOLYLINE
  5
18F
330
17
100
AcDbEntity
  8
ROADS
100
AcDbPolyline
 90
2
 70
0
 10
618779.1061629145
 20
4828483.512861279
 10
618816.6630577744
 20
4828497.771567261
  0
LWPOLYLINE
  5
190
330
17
100
AcDbEntity
  8
ROADS
100
AcDbPolyline
 90
3
 70
0
 10
618779.1061629145
 20
4828483.512861279
 10
618800.0856477737
 20
4828503.132415564
 10
618816.6630577744
 20
4828497.771567261
  0
LWPOLYLINE
  5
191
330
17
100
AcDbEntity
  8
ROADS
100
AcDbPolyline
 90
2
 70
0
 10
618816.6630577744
 20
4828497.771567261
 10
618867.6374610222
 20
4828510.257499216
  0
LWPOLYLINE
  5
192
330
17
100
AcDbEntity
  8
ROADS
100
AcDbPolyline
 90
2
 70
0
 10
618908.7889960137
 20
4828643.827521099
 10
618538.1298861796
 20
4828382.75482354
  0
LWPOLYLINE
  5
193
330
17
100
AcDbEntity
  8
ROADS
100
AcDbPolyline
 90
2
 70
0
 10
618542.2763351907
 20
4828526.833850324
 10
618494.0524727973
 20
4828511.003476108
  0
LWPOLYLINE
  5
194
330
17
100
AcDbEntity
  8
ROADS
100
AcDbPolyline
 90
2
 70
0
 10
618867.6374610222
 20
4828510.257499216
 10
618855.0856446282
 20
4828547.768220402
  0
LWPOLYLINE
  5
195
330
17
100
AcDbEntity
  8
ROADS
100
AcDbPolyline
 90
2
 70
0
 10
618979.5734204089
 20
4828487.284941275
 10
618948.8226657498
 20
4828578.693039469
  0
LWPOLYLINE
  5
196
330
17
100
AcDbEntity
  8
ROADS
100
AcDbPolyline
 90
4
 70
0
 10
618816.6630577744
 20
4828497.771567261
 10
618849.4803166488
 20
4828555.583287748
 10
618901.2768485928
 20
4828578.253450688
 10
618948.8226657498
 20
4828578.693039469
  0
LWPOLYLINE
  5
197
330
17
100
AcDbEntity
  8
ROADS
100
AcDbPolyline
 90
2
 70
0
 10
618948.8226657498
 20
4828578.693039469
 10
618928.8525204215
 20
4828634.591486914
  0
LWPOLYLINE
  5
198
330
17
100
AcDbEntity
  8
ROADS
100
AcDbPolyline
 90
2
 70
0
 10
619112.4913294377
 20
4828634.869638803
 10
618948.8226657498
 20
4828578.693039469
  0
LWPOLYLINE
  5
199
330
17
100
AcDbEntity
  8
ROADS
100
AcDbPolyline
 90
3
 70
0
 10
618885.4694167121
 20
4828766.13891789
 10
618864.2957762207
 20
4828740.2706062775
 10
618749.5476844586
 20
4828703.827126335
  0
LWPOLYLINE
  5
19A
330
17
100
AcDbEntity
  8
ROADS
100
AcDbPolyline
 90
2
 70
0
 10
618424.5494059634
 20
4828400.057486895
 10
618396.339040986
 20
4828477.38681636
  0
LWPOLYLINE
  5
19B
330
17
100
AcDbEntity
  8
ROADS
100
AcDbPolyline
 90
2
 70
0
 10
618494.0524727973
 20
4828511.003476108
 10
618396.339040986
 20
4828477.38681636
  0
LWPOLYLINE
  5
19C
330
17
100
AcDbEntity
  8
ROADS
100
AcDbPolyline
 90
2
 70
0
 10
618396.339040986
 20
4828477.38681636
 10
618309.963144531
 20
4828721.482645343
  0
LWPOLYLINE
  5
19D
330
17
100
AcDbEntity
  8
ROADS
100
AcDbPolyline
 90
2
 70
0
 10
618494.0524727973
 20
4828511.003476108
 10
618409.3796977077
 20
4828754.484102191
  0
LWPOLYLINE
  5
19E
330
17
100
AcDbEntity
  8
ROADS
100
AcDbPolyline
 90
2
 70
0
 10
618409.3796977077
 20
4828754.484102191
 10
618309.963144531
 20
4828721.482645343
  0
LWPOLYLINE
  5
19F
330
17
100
AcDbEntity
  8
ROADS
100
AcDbPolyline
 90
2
 70
0
 10
618458.1071938134
 20
4828770.057593497
 10
618409.3796977077
 20
4828754.484102191
  0
LWPOLYLINE
  5
1A0
330
17
100
AcDbEntity
  8
ROADS
100
AcDbPolyline
 90
2
 70
0
 10
618309.963144531
 20
4828721.482645343
 10
618299.0681257619
 20
4828755.258097348
  0
LWPOLYLINE
  5
1A1
330
17
100
AcDbEntity
  8
ROADS
100
AcDbPolyline
 90
2
 70
0
 10
618409.3796977077
 20
4828754.484102191
 10
618398.4859084662
 20
4828786.96704094
  0
LWPOLYLINE
  5
1A2
330
17
100
AcDbEntity
  8
ROADS
100
AcDbPolyline
 90
2
 70
0
 10
619141.2517698498
 20
4828543.199550339
 10
618979.5734204089
 20
4828487.284941275
  0
LWPOLYLINE
  5
1A3
330
17
100
AcDbEntity
  8
ROADS
100
AcDbPolyline
 90
2
 70
0
 10
619438.1790441652
 20
4828534.561032639
 10
619350.0517628883
 20
4828506.86660483
  0
LWPOLYLINE
  5
1A4
330
17
100
AcDbEntity
  8
ROADS
100
AcDbPolyline
 90
2
 70
0
 10
619260.4463430453
 20
4828482.057609123
 10
619226.9588607146
 20
4828582.2486976655
  0
LWPOLYLINE
  5
1A5
330
17
100
AcDbEntity
  8
ROADS
100
AcDbPolyline
 90
2
 70
0
 10
619314.0835803415
 20
4828499.933843358
 10
619274.2652405401
 20
4828597.223514582
  0
LWPOLYLINE
  5
1A6
330
17
100
AcDbEntity
  8
ROADS
100
AcDbPolyline
 90
2
 70
0
 10
619141.2517698498
 20
4828543.199550339
 10
619112.4913294377
 20
4828634.869638803
  0
LWPOLYLINE
  5
1A7
330
17
100
AcDbEntity
  8
ROADS
100
AcDbPolyline
 90
2
 70
0
 10
619274.2652405401
 20
4828597.223514582
 10
619226.9588607146
 20
4828582.2486976655
  0
LWPOLYLINE
  5
1A8
330
17
100
AcDbEntity
  8
ROADS
100
AcDbPolyline
 90
2
 70
0
 10
619226.9588607146
 20
4828582.2486976655
 10
619172.3539823707
 20
4828753.298095341
  0
LWPOLYLINE
  5
1A9
330
17
100
AcDbEntity
  8
ROADS
100
AcDbPolyline
 90
2
 70
0
 10
619274.2652405401
 20
4828597.223514582
 10
619226.1008628232
 20
4828744.778350378
  0
LWPOLYLINE
  5
1AA
330
17
100
AcDbEntity
  8
ROADS
100
AcDbPolyline
 90
3
 70
0
 10
619112.4913294377
 20
4828634.869638803
 10
619089.2195471161
 20
4828707.796126167
 10
619172.3539823707
 20
4828753.298095341
  0
LWPOLYLINE
  5
1AB
330
17
100
AcDbEntity
  8
ROADS
100
AcDbPolyline
 90
2
 70
0
 10
619316.4911864514
 20
4828926.5265669385
 10
618908.7889960137
 20
4828643.827521099
  0
LWPOLYLINE
  5
1AC
330
17
100
AcDbEntity
  8
ROADS
100
AcDbPolyline
 90
4
 70
0
 10
619036.0925086
 20
4828997.808544375
 10
619037.2140920943
 20
4828896.545035741
 10
618990.5089381358
 20
4828753.699296784
 10
618908.7889960137
 20
4828643.827521099
  0
LWPOLYLINE
  5
1AD
330
17
100
AcDbEntity
  8
ROADS
100
AcDbPolyline
 90
3
 70
0
 10
618813.686307204
 20
4828923.947539799
 10
618853.3365032935
 20
4828809.3172355015
 10
618885.4694167121
 20
4828766.13891789
  0
LWPOLYLINE
  5
1AE
330
17
100
AcDbEntity
  8
ROADS
100
AcDbPolyline
 90
4
 70
0
 10
618944.7718046178
 20
4828968.331495057
 10
618946.4491278003
 20
4828939.825536323
 10
618925.1491722865
 20
4828833.957973315
 10
618885.4694167121
 20
4828766.13891789
  0
ENDSEC
  0
SECTION
  2
OBJECTS
  0
DICTIONARY
  5
A
330
0
100
AcDbDictionary
281
1
  3
ACAD_COLOR
350
B
  3
ACAD_GROUP
350
C
  3
ACAD_LAYOUT
350
D
  3
ACAD_MATERIAL
350
E
  3
ACAD_MLEADERSTYLE
350
F
  3
ACAD_MLINESTYLE
350
10
  3
ACAD_PLOTSETTINGS
350
11
  3
ACAD_PLOTSTYLENAME
350
12
  3
ACAD_SCALELIST
350
14
  3
ACAD_TABLESTYLE
350
15
  3
ACAD_VISUALSTYLE
350
16
  3
EZDXF_META
350
2D
  0
DICTIONARY
  5
B
330
A
100
AcDbDictionary
281
1
  0
DICTIONARY
  5
C
330
A
100
AcDbDictionary
281
1
  0
DICTIONARY
  5
D
330
A
100
AcDbDictionary
281
1
  3
Model
350
1A
  3
Layout1
350
1E
  0
DICTIONARY
  5
E
330
A
100
AcDbDictionary
281
1
  3
ByBlock
350
1F
  3
ByLayer
350
20
  3
Global
350
21
  0
DICTIONARY
  5
F
330
A
100
AcDbDictionary
281
1
  3
Standard
350
2C
  0
DICTIONARY
  5
10
330
A
100
AcDbDictionary
281
1
  3
Standard
350
22
  0
DICTIONARY
  5
11
330
A
100
AcDbDictionary
281
1
  0
ACDBDICTIONARYWDFLT
  5
12
330
A
100
AcDbDictionary
281
1
  3
Normal
350
13
100
AcDbDictionaryWithDefault
340
13
  0
ACDBPLACEHOLDER
  5
13
330
12
  0
DICTIONARY
  5
14
330
A
100
AcDbDictionary
281
1
  0
DICTIONARY
  5
15
330
A
100
AcDbDictionary
281
1
  0
DICTIONARY
  5
16
330
A
100
AcDbDictionary
281
1
  0
LAYOUT
  5
1A
330
D
100
AcDbPlotSettings
  1

  4
A3
  6

 40
7.5
 41
20.0
 42
7.5
 43
20.0
 44
420.0
 45
297.0
 46
0.0
 47
0.0
 48
0.0
 49
0.0
140
0.0
141
0.0
142
1.0
143
1.0
 70
1024
 72
1
 73
0
 74
5
  7

 75
16
 76
0
 77
2
 78
300
147
1.0
148
0.0
149
0.0
100
AcDbLayout
  1
Model
 70
1
 71
0
 10
0.0
 20
0.0
 11
420.0
 21
297.0
 12
0.0
 22
0.0
 32
0.0
 14
1e+20
 24
1e+20
 34
1e+20
 15
-1e+20
 25
-1e+20
 35
-1e+20
146
0.0
 13
0.0
 23
0.0
 33
0.0
 16
1.0
 26
0.0
 36
0.0
 17
0.0
 27
1.0
 37
0.0
 76
1
330
17
  0
LAYOUT
  5
1E
330
D
100
AcDbPlotSettings
  1

  4
A3
  6

 40
7.5
 41
20.0
 42
7.5
 43
20.0
 44
420.0
 45
297.0
 46
0.0
 47
0.0
 48
0.0
 49
0.0
140
0.0
141
0.0
142
1.0
143
1.0
 70
0
 72
1
 73
0
 74
5
  7

 75
16
 76
0
 77
2
 78
300
147
1.0
148
0.0
149
0.0
100
AcDbLayout
  1
Layout1
 70
1
 71
1
 10
0.0
 20
0.0
 11
420.0
 21
297.0
 12
0.0
 22
0.0
 32
0.0
 14
1e+20
 24
1e+20
 34
1e+20
 15
-1e+20
 25
-1e+20
 35
-1e+20
146
0.0
 13
0.0
 23
0.0
 33
0.0
 16
1.0
 26
0.0
 36
0.0
 17
0.0
 27
1.0
 37
0.0
 76
1
330
1B
  0
MATERIAL
  5
1F
102
{ACAD_REACTORS
330
E
102
}
330
E
100
AcDbMaterial
  1
ByBlock
  2

 70
0
 40
1.0
 71
1
 41
1.0
 91
-1023410177
 42
1.0
 72
1
  3

 73
1
 74
1
 75
1
 44
0.5
 73
0
 45
1.0
 46
1.0
 77
1
  4

 78
1
 79
1
170
1
 48
1.0
171
1
  6

172
1
173
1
174
1
140
1.0
141
1.0
175
1
  7

176
1
177
1
178
1
143
1.0
179
1
  8

270
1
271
1
272
1
145
1.0
146
1.0
273
1
  9

274
1
275
1
276
1
 42
1.0
 72
1
  3

 73
1
 74
1
 75
1
 94
63
  0
MATERIAL
  5
20
102
{ACAD_REACTORS
330
E
102
}
330
E
100
AcDbMaterial
  1
ByLayer
  2

 70
0
 40
1.0
 71
1
 41
1.0
 91
-1023410177
 42
1.0
 72
1
  3

 73
1
 74
1
 75
1
 44
0.5
 73
0
 45
1.0
 46
1.0
 77
1
  4

 78
1
 79
1
170
1
 48
1.0
171
1
  6

172
1
173
1
174
1
140
1.0
141
1.0
175
1
  7

176
1
177
1
178
1
143
1.0
179
1
  8

270
1
271
1
272
1
145
1.0
146
1.0
273
1
  9

274
1
275
1
276
1
 42
1.0
 72
1
  3

 73
1
 74
1
 75
1
 94
63
  0
MATERIAL
  5
21
102
{ACAD_REACTORS
330
E
102
}
330
E
100
AcDbMaterial
  1
Global
  2

 70
0
 40
1.0
 71
1
 41
1.0
 91
-1023410177
 42
1.0
 72
1
  3

 73
1
 74
1
 75
1
 44
0.5
 73
0
 45
1.0
 46
1.0
 77
1
  4

 78
1
 79
1
170
1
 48
1.0
171
1
  6

172
1
173
1
174
1
140
1.0
141
1.0
175
1
  7

176
1
177
1
178
1
143
1.0
179
1
  8

270
1
271
1
272
1
145
1.0
146
1.0
273
1
  9

274
1
275
1
276
1
 42
1.0
 72
1
  3

 73
1
 74
1
 75
1
 94
63
  0
MLINESTYLE
  5
22
102
{ACAD_REACTORS
330
10
102
}
330
10
100
AcDbMlineStyle
  2
Standard
 70
0
  3

 62
256
 51
90.0
 52
90.0
 71
2
 49
0.5
 62
256
  6
BYLAYER
 49
-0.5
 62
256
  6
BYLAYER
  0
MLEADERSTYLE
  5
2C
102
{ACAD_REACTORS
330
F
102
}
330
F
100
AcDbMLeaderStyle
179
2
170
2
171
1
172
0
 90
2
 40
0.0
 41
0.0
173
1
 91
-1056964608
 92
-2
290
1
 42
2.0
291
1
 43
8.0
  3
Standard
 44
4.0
300

342
29
174
1
175
1
176
0
178
1
 93
-1056964608
 45
4.0
292
0
297
0
 46
4.0
 94
-1056964608
 47
1.0
 49
1.0
140
1.0
294
1
141
0.0
177
0
142
1.0
295
0
296
0
143
3.75
271
0
272
9
273
9
  0
DICTIONARY
  5
2D
330
A
100
AcDbDictionary
280
1
281
1
  3
CREATED_BY_EZDXF
350
2E
  3
WRITTEN_BY_EZDXF
350
1B1
  0
DICTIONARYVAR
  5
2E
330
2D
100
DictionaryVariables
280
0
  1
1.4.4 @ 2026-07-07T06:20:25.186416+00:00
  0
DICTIONARYVAR
  5
1B1
330
2D
100
DictionaryVariables
280
0
  1
1.4.4 @ 2026-07-07T06:20:25.197251+00:00
  0
ENDSEC
  0
EOF
