  0
SECTION
  2
HEADER
  9
$ACADVER
  1
AC1015
  9
$ACADMAINTVER
 70
6
  9
$DWGCODEPAGE
  3
ANSI_1252
  9
$INSBASE
 10
0.0
 20
0.0
 30
0.0
  9
$EXTMIN
 10
1e+20
 20
1e+20
 30
1e+20
  9
$EXTMAX
 10
-1e+20
 20
-1e+20
 30
-1e+20
  9
$LIMMIN
 10
0.0
 20
0.0
  9
$LIMMAX
 10
420.0
 20
297.0
  9
$ORTHOMODE
 70
0
  9
$REGENMODE
 70
1
  9
$FILLMODE
 70
1
  9
$QTEXTMODE
 70
0
  9
$MIRRTEXT
 70
1
  9
$LTSCALE
 40
1.0
  9
$ATTMODE
 70
1
  9
$TEXTSIZE
 40
2.5
  9
$TRACEWID
 40
1.0
  9
$TEXTSTYLE
  7
Standard
  9
$CLAYER
  8
0
  9
$CELTYPE
  6
ByLayer
  9
$CECOLOR
 62
256
  9
$CELTSCALE
 40
1.0
  9
$DISPSILH
 70
0
  9
$DIMSCALE
 40
1.0
  9
$DIMASZ
 40
2.5
  9
$DIMEXO
 40
0.625
  9
$DIMDLI
 40
3.75
  9
$DIMRND
 40
0.0
  9
$DIMDLE
 40
0.0
  9
$DIMEXE
 40
1.25
  9
$DIMTP
 40
0.0
  9
$DIMTM
 40
0.0
  9
$DIMTXT
 40
2.5
  9
$DIMCEN
 40
2.5
  9
$DIMTSZ
 40
0.0
  9
$DIMTOL
 70
0
  9
$DIMLIM
 70
0
  9
$DIMTIH
 70
0
  9
$DIMTOH
 70
0
  9
$DIMSE1
 70
0
  9
$DIMSE2
 70
0
  9
$DIMTAD
 70
1
  9
$DIMZIN
 70
8
  9
$DIMBLK
  1

  9
$DIMASO
 70
1
  9
$DIMSHO
 70
1
  9
$DIMPOST
  1

  9
$DIMAPOST
  1

  9
$DIMALT
 70
0
  9
$DIMALTD
 70
3
  9
$DIMALTF
 40
0.03937007874
  9
$DIMLFAC
 40
1.0
  9
$DIMTOFL
 70
1
  9
$DIMTVP
 40
0.0
  9
$DIMTIX
 70
0
  9
$DIMSOXD
 70
0
  9
$DIMSAH
 70
0
  9
$DIMBLK1
  1

  9
$DIMBLK2
  1

  9
$DIMSTYLE
  2
ISO-25
  9
$DIMCLRD
 70
0
  9
$DIMCLRE
 70
0
  9
$DIMCLRT
 70
0
  9
$DIMTFAC
 40
1.0
  9
$DIMGAP
 40
0.625
  9
$DIMJUST
 70
0
  9
$DIMSD1
 70
0
  9
$DIMSD2
 70
0
  9
$DIMTOLJ
 70
0
  9
$DIMTZIN
 70
8
  9
$DIMALTZ
 70
0
  9
$DIMALTTZ
 70
0
  9
$DIMUPT
 70
0
  9
$DIMDEC
 70
2
  9
$DIMTDEC
 70
2
  9
$DIMALTU
 70
2
  9
$DIMALTTD
 70
3
  9
$DIMTXSTY
  7
Standard
  9
$DIMAUNIT
 70
0
  9
$DIMADEC
 70
0
  9
$DIMALTRND
 40
0.0
  9
$DIMAZIN
 70
0
  9
$DIMDSEP
 70
44
  9
$DIMATFIT
 70
3
  9
$DIMFRAC
 70
0
  9
$DIMLDRBLK
  1

  9
$DIMLUNIT
 70
2
  9
$DIMLWD
 70
-2
  9
$DIMLWE
 70
-2
  9
$DIMTMOVE
 70
0
  9
$LUNITS
 70
2
  9
$LUPREC
 70
4
  9
$SKETCHINC
 40
1.0
  9
$FILLETRAD
 40
10.0
  9
$AUNITS
 70
0
  9
$AUPREC
 70
2
  9
$MENU
  1
.
  9
$ELEVATION
 40
0.0
  9
$PELEVATION
 40
0.0
  9
$THICKNESS
 40
0.0
  9
$LIMCHECK
 70
0
  9
$CHAMFERA
 40
0.0
  9
$CHAMFERB
 40
0.0
  9
$CHAMFERC
 40
0.0
  9
$CHAMFERD
 40
0.0
  9
$SKPOLY
 70
0
  9
$TDCREATE
 40
2461229.097546296
  9
$TDUCREATE
 40
2458532.153996898
  9
$TDUPDATE
 40
2461229.097546296
  9
$TDUUPDATE
 40
2458532.1544311
  9
$TDINDWG
 40
0.0
  9
$TDUSRTIMER
 40
0.0
  9
$USRTIMER
 70
1
  9
$ANGBASE
 50
0.0
  9
$ANGDIR
 70
0
  9
$PDMODE
 70
0
  9
$PDSIZE
 40
0.0
  9
$PLINEWID
 40
0.0
  9
$SPLFRAME
 70
0
  9
$SPLINETYPE
 70
6
  9
$SPLINESEGS
 70
8
  9
$HANDSEED
  5
214
  9
$SURFTAB1
 70
6
  9
$SURFTAB2
 70
6
  9
$SURFTYPE
 70
6
  9
$SURFU
 70
6
  9
$SURFV
 70
6
  9
$UCSBASE
  2

  9
$UCSNAME
  2

  9
$UCSORG
 10
0.0
 20
0.0
 30
0.0
  9
$UCSXDIR
 10
1.0
 20
0.0
 30
0.0
  9
$UCSYDIR
 10
0.0
 20
1.0
 30
0.0
  9
$UCSORTHOREF
  2

  9
$UCSORTHOVIEW
 70
0
  9
$UCSORGTOP
 10
0.0
 20
0.0
 30
0.0
  9
$UCSORGBOTTOM
 10
0.0
 20
0.0
 30
0.0
  9
$UCSORGLEFT
 10
0.0
 20
0.0
 30
0.0
  9
$UCSORGRIGHT
 10
0.0
 20
0.0
 30
0.0
  9
$UCSORGFRONT
 10
0.0
 20
0.0
 30
0.0
  9
$UCSORGBACK
 10
0.0
 20
0.0
 30
0.0
  9
$PUCSBASE
  2

  9
$PUCSNAME
  2

  9
$PUCSORG
 10
0.0
 20
0.0
 30
0.0
  9
$PUCSXDIR
 10
1.0
 20
0.0
 30
0.0
  9
$PUCSYDIR
 10
0.0
 20
1.0
 30
0.0
  9
$PUCSORTHOREF
  2

  9
$PUCSORTHOVIEW
 70
0
  9
$PUCSORGTOP
 10
0.0
 20
0.0
 30
0.0
  9
$PUCSORGBOTTOM
 10
0.0
 20
0.0
 30
0.0
  9
$PUCSORGLEFT
 10
0.0
 20
0.0
 30
0.0
  9
$PUCSORGRIGHT
 10
0.0
 20
0.0
 30
0.0
  9
$PUCSORGFRONT
 10
0.0
 20
0.0
 30
0.0
  9
$PUCSORGBACK
 10
0.0
 20
0.0
 30
0.0
  9
$USERI1
 70
0
  9
$USERI2
 70
0
  9
$USERI3
 70
0
  9
$USERI4
 70
0
  9
$USERI5
 70
0
  9
$USERR1
 40
0.0
  9
$USERR2
 40
0.0
  9
$USERR3
 40
0.0
  9
$USERR4
 40
0.0
  9
$USERR5
 40
0.0
  9
$WORLDVIEW
 70
1
  9
$SHADEDGE
 70
3
  9
$SHADEDIF
 70
70
  9
$TILEMODE
 70
1
  9
$MAXACTVP
 70
64
  9
$PINSBASE
 10
0.0
 20
0.0
 30
0.0
  9
$PLIMCHECK
 70
0
  9
$PEXTMIN
 10
1e+20
 20
1e+20
 30
1e+20
  9
$PEXTMAX
 10
-1e+20
 20
-1e+20
 30
-1e+20
  9
$PLIMMIN
 10
0.0
 20
0.0
  9
$PLIMMAX
 10
420.0
 20
297.0
  9
$UNITMODE
 70
0
  9
$VISRETAIN
 70
1
  9
$PLINEGEN
 70
0
  9
$PSLTSCALE
 70
1
  9
$TREEDEPTH
 70
3020
  9
$CMLSTYLE
  2
Standard
  9
$CMLJUST
 70
0
  9
$CMLSCALE
 40
20.0
  9
$PROXYGRAPHICS
 70
1
  9
$MEASUREMENT
 70
1
  9
$CELWEIGHT
370
-1
  9
$ENDCAPS
280
0
  9
$JOINSTYLE
280
0
  9
$LWDISPLAY
290
0
  9
$INSUNITS
 70
6
  9
$HYPERLINKBASE
  1

  9
$STYLESHEET
  1

  9
$XEDIT
290
1
  9
$CEPSNTYPE
380
0
  9
$PSTYLEMODE
290
1
  9
$FINGERPRINTGUID
  2
{F3F14B0A-5120-4B63-B8FB-C924623E5D2F}
  9
$VERSIONGUID
  2
{27884A72-6D21-4F0F-A298-DE5E1980CB72}
  9
$EXTNAMES
290
1
  9
$PSVPSCALE
 40
0.0
  9
$OLESTARTUP
290
0
  0
ENDSEC
  0
SECTION
  2
CLASSES
  0
CLASS
  1
ACDBDICTIONARYWDFLT
  2
AcDbDictionaryWithDefault
  3
ObjectDBX Classes
 90
0
280
0
281
0
  0
CLASS
  1
SUN
  2
AcDbSun
  3
SCENEOE
 90
1153
280
0
281
0
  0
CLASS
  1
VISUALSTYLE
  2
AcDbVisualStyle
  3
ObjectDBX Classes
 90
4095
280
0
281
0
  0
CLASS
  1
MATERIAL
  2
AcDbMaterial
  3
ObjectDBX Classes
 90
1153
280
0
281
0
  0
CLASS
  1
SCALE
  2
AcDbScale
  3
ObjectDBX Classes
 90
1153
280
0
281
0
  0
CLASS
  1
TABLESTYLE
  2
AcDbTableStyle
  3
ObjectDBX Classes
 90
4095
280
0
281
0
  0
CLASS
  1
MLEADERSTYLE
  2
AcDbMLeaderStyle
  3
ACDB_MLEADERSTYLE_CLASS
 90
4095
280
0
281
0
  0
CLASS
  1
DICTIONARYVAR
  2
AcDbDictionaryVar
  3
ObjectDBX Classes
 90
0
280
0
281
0
  0
CLASS
  1
CELLSTYLEMAP
  2
AcDbCellStyleMap
  3
ObjectDBX Classes
 90
1152
280
0
281
0
  0
CLASS
  1
MENTALRAYRENDERSETTINGS
  2
AcDbMentalRayRenderSettings
  3
SCENEOE
 90
1024
280
0
281
0
  0
CLASS
  1
ACDBDETAILVIEWSTYLE
  2
AcDbDetailViewStyle
  3
ObjectDBX Classes
 90
1025
280
0
281
0
  0
CLASS
  1
ACDBSECTIONVIEWSTYLE
  2
AcDbSectionViewStyle
  3
ObjectDBX Classes
 90
1025
280
0
281
0
  0
CLASS
  1
RASTERVARIABLES
  2
AcDbRasterVariables
  3
ISM
 90
0
280
0
281
0
  0
CLASS
  1
ACDBPLACEHOLDER
  2
AcDbPlaceHolder
  3
ObjectDBX Classes
 90
0
280
0
281
0
  0
CLASS
  1
LAYOUT
  2
AcDbLayout
  3
ObjectDBX Classes
 90
0
280
0
281
0
  0
ENDSEC
  0
SECTION
  2
TABLES
  0
TABLE
  2
VPORT
  5
8
330
0
100
AcDbSymbolTable
 70
1
  0
VPORT
  5
23
330
8
100
AcDbSymbolTableRecord
100
AcDbViewportTableRecord
  2
*Active
 70
0
 10
0.0
 20
0.0
 11
1.0
 21
1.0
 12
0.0
 22
0.0
 13
0.0
 23
0.0
 14
0.5
 24
0.5
 15
0.5
 25
0.5
 16
0.0
 26
0.0
 36
1.0
 17
0.0
 27
0.0
 37
0.0
 40
1000.0
 41
1.34
 42
50.0
 43
0.0
 44
0.0
 50
0.0
 51
0.0
 71
0
 72
1000
 73
1
 74
3
 75
0
 76
0
 77
0
 78
0
281
0
 65
0
146
0.0
  0
ENDTAB
  0
TABLE
  2
LTYPE
  5
2
330
0
100
AcDbSymbolTable
 70
3
  0
LTYPE
  5
24
330
2
100
AcDbSymbolTableRecord
100
AcDbLinetypeTableRecord
  2
ByBlock
 70
0
  3

 72
65
 73
0
 40
0.0
  0
LTYPE
  5
25
330
2
100
AcDbSymbolTableRecord
100
AcDbLinetypeTableRecord
  2
ByLayer
 70
0
  3

 72
65
 73
0
 40
0.0
  0
LTYPE
  5
26
330
2
100
AcDbSymbolTableRecord
100
AcDbLinetypeTableRecord
  2
Continuous
 70
0
  3

 72
65
 73
0
 40
0.0
  0
ENDTAB
  0
TABLE
  2
LAYER
  5
1
330
0
100
AcDbSymbolTable
 70
2
  0
LAYER
  5
27
330
1
100
AcDbSymbolTableRecord
100
AcDbLayerTableRecord
  2
0
 70
0
 62
7
  6
Continuous
370
-3
390
13
  0
LAYER
  5
28
330
1
100
AcDbSymbolTableRecord
100
AcDbLayerTableRecord
  2
Defpoints
 70
0
 62
7
  6
Continuous
290
0
370
-3
390
13
  0
ENDTAB
  0
TABLE
  2
STYLE
  5
5
330
0
100
AcDbSymbolTable
 70
1
  0
STYLE
  5
29
330
5
100
AcDbSymbolTableRecord
100
AcDbTextStyleTableRecord
  2
Standard
 70
0
 40
0.0
 41
1.0
 50
0.0
 71
0
 42
2.5
  3
txt
  4

  0
ENDTAB
  0
TABLE
  2
VIEW
  5
7
330
0
100
AcDbSymbolTable
 70
0
  0
ENDTAB
  0
TABLE
  2
UCS
  5
6
330
0
100
AcDbSymbolTable
 70
0
  0
ENDTAB
  0
TABLE
  2
APPID
  5
3
330
0
100
AcDbSymbolTable
 70
3
  0
APPID
  5
2A
330
3
100
AcDbSymbolTableRecord
100
AcDbRegAppTableRecord
  2
ACAD
 70
0
  0
APPID
  5
211
330
3
100
AcDbSymbolTableRecord
100
AcDbRegAppTableRecord
  2
HATCHBACKGROUNDCOLOR
 70
0
  0
APPID
  5
212
330
3
100
AcDbSymbolTableRecord
100
AcDbRegAppTableRecord
  2
EZDXF
 70
0
  0
ENDTAB
  0
TABLE
  2
DIMSTYLE
  5
4
330
0
100
AcDbSymbolTable
 70
1
100
AcDbDimStyleTable
  0
DIMSTYLE
105
2B
330
4
100
AcDbSymbolTableRecord
100
AcDbDimStyleTableRecord
  2
Standard
 70
0
  3

  4

 40
1.0
 41
2.5
 42
0.625
 43
3.75
 44
1.25
 45
0.0
 46
0.0
 47
0.0
 48
0.0
140
2.5
141
2.5
142
0.0
143
0.03937007874
144
1.0
145
0.0
146
1.0
147
0.625
148
0.0
 71
0
 72
0
 73
0
 74
0
 75
0
 76
0
 77
1
 78
8
 79
3
170
0
171
3
172
1
173
0
174
0
175
0
176
0
177
0
178
0
179
2
271
2
272
2
273
2
274
3
275
0
276
0
277
2
278
44
279
0
280
0
281
0
282
0
283
0
284
8
285
0
286
0
288
0
289
3
371
-2
372
-2
  0
ENDTAB
  0
TABLE
  2
BLOCK_RECORD
  5
9
330
0
100
AcDbSymbolTable
 70
2
  0
BLOCK_RECORD
  5
17
330
9
100
AcDbSymbolTableRecord
100
AcDbBlockTableRecord
  2
*Model_Space
340
1A
  0
BLOCK_RECORD
  5
1B
330
9
100
AcDbSymbolTableRecord
100
AcDbBlockTableRecord
  2
*Paper_Space
340
1E
  0
ENDTAB
  0
ENDSEC
  0
SECTION
  2
BLOCKS
  0
BLOCK
  5
18
330
17
100
AcDbEntity
  8
0
100
AcDbBlockBegin
  2
*Model_Space
 70
0
 10
0.0
 20
0.0
 30
0.0
  3
*Model_Space
  1

  0
ENDBLK
  5
19
330
17
100
AcDbEntity
  8
0
100
AcDbBlockEnd
  0
BLOCK
  5
1C
330
1B
100
AcDbEntity
  8
0
100
AcDbBlockBegin
  2
*Paper_Space
 70
0
 10
0.0
 20
0.0
 30
0.0
  3
*Paper_Space
  1

  0
ENDBLK
  5
1D
330
1B
100
AcDbEntity
  8
0
100
AcDbBlockEnd
  0
ENDSEC
  0
SECTION
  2
ENTITIES
  0
LWPOLYLINE
  5
2F
330
17
100
AcDbEntity
  8
ROADS
100
AcDbPolyline
 90
2
 70
0
 10
629386.9695902347
 20
4838597.49363412
 10
629143.361706975
 20
4838524.820129043
  0
LWPOLYLINE
  5
30
330
17
100
AcDbEntity
  8
ROADS
100
AcDbPolyline
 90
2
 70
0
 10
629386.9695902347
 20
4838597.49363412
 10
629384.7399493566
 20
4838609.131104442
  0
LWPOLYLINE
  5
31
330
17
100
AcDbEntity
  8
ROADS
100
AcDbPolyline
 90
2
 70
0
 10
628894.1425209193
 20
4838568.561983996
 10
628891.1260599524
 20
4838578.357985689
  0
LWPOLYLINE
  5
32
330
17
100
AcDbEntity
  8
ROADS
100
AcDbPolyline
 90
2
 70
0
 10
629044.90228408
 20
4838533.64549056
 10
629040.0253844389
 20
4838621.853071239
  0
LWPOLYLINE
  5
33
330
17
100
AcDbEntity
  8
ROADS
100
AcDbPolyline
 90
2
 70
0
 10
628979.6924750553
 20
4838604.649661038
 10
628891.1260599524
 20
4838578.357985689
  0
LWPOLYLINE
  5
34
330
17
100
AcDbEntity
  8
ROADS
100
AcDbPolyline
 90
2
 70
0
 10
629040.0253844389
 20
4838621.853071239
 10
628979.6924750553
 20
4838604.649661038
  0
LWPOLYLINE
  5
35
330
17
100
AcDbEntity
  8
ROADS
100
AcDbPolyline
 90
2
 70
0
 10
629405.8861681594
 20
4838543.804715691
 10
629386.9695902347
 20
4838597.49363412
  0
LWPOLYLINE
  5
36
330
17
100
AcDbEntity
  8
ROADS
100
AcDbPolyline
 90
2
 70
0
 10
629571.861983143
 20
4838590.989187943
 10
629558.4419427721
 20
4838634.008589162
  0
LWPOLYLINE
  5
37
330
17
100
AcDbEntity
  8
ROADS
100
AcDbPolyline
 90
2
 70
0
 10
629384.7399493566
 20
4838609.131104442
 10
629444.4562915345
 20
4838627.307449898
  0
LWPOLYLINE
  5
38
330
17
100
AcDbEntity
  8
ROADS
100
AcDbPolyline
 90
2
 70
0
 10
629524.581094782
 20
4838575.778171149
 10
629477.1544071977
 20
4838730.259954146
  0
LWPOLYLINE
  5
39
330
17
100
AcDbEntity
  8
ROADS
100
AcDbPolyline
 90
2
 70
0
 10
629615.9665794111
 20
4838607.194021949
 10
629584.2280342903
 20
4838708.740155681
  0
LWPOLYLINE
  5
3A
330
17
100
AcDbEntity
  8
ROADS
100
AcDbPolyline
 90
2
 70
0
 10
629359.0139822903
 20
4838693.179553151
 10
629477.1544071977
 20
4838730.259954146
  0
LWPOLYLINE
  5
3B
330
17
100
AcDbEntity
  8
ROADS
100
AcDbPolyline
 90
2
 70
0
 10
629477.1544071977
 20
4838730.259954146
 10
629487.7440408003
 20
4838734.024753097
  0
LWPOLYLINE
  5
3C
330
17
100
AcDbEntity
  8
ROADS
100
AcDbPolyline
 90
2
 70
0
 10
629487.7440408003
 20
4838734.024753097
 10
629685.8996627902
 20
4838797.056265978
  0
LWPOLYLINE
  5
3D
330
17
100
AcDbEntity
  8
ROADS
100
AcDbPolyline
 90
4
 70
0
 10
629487.7440408003
 20
4838734.024753097
 10
629474.3307127678
 20
4838777.834155932
 10
629486.7102447033
 20
4838825.453352233
 10
629470.0450259523
 20
4838875.767379451
  0
LWPOLYLINE
  5
3E
330
17
100
AcDbEntity
  8
ROADS
100
AcDbPolyline
 90
2
 70
0
 10
629685.8996627902
 20
4838797.056265978
 10
629674.4487998233
 20
4838845.269494852
  0
LWPOLYLINE
  5
3F
330
17
100
AcDbEntity
  8
ROADS
100
AcDbPolyline
 90
2
 70
0
 10
629150.6722316217
 20
4838655.503642582
 10
629040.0253844389
 20
4838621.853071239
  0
LWPOLYLINE
  5
40
330
17
100
AcDbEntity
  8
ROADS
100
AcDbPolyline
 90
2
 70
0
 10
629384.7399493566
 20
4838609.131104442
 10
629359.0139822903
 20
4838693.179553151
  0
LWPOLYLINE
  5
41
330
17
100
AcDbEntity
  8
ROADS
100
AcDbPolyline
 90
2
 70
0
 10
629353.306480827
 20
4838714.5817852
 10
629150.6722316217
 20
4838655.503642582
  0
LWPOLYLINE
  5
42
330
17
100
AcDbEntity
  8
ROADS
100
AcDbPolyline
 90
2
 70
0
 10
629359.0139822903
 20
4838693.179553151
 10
629353.306480827
 20
4838714.5817852
  0
LWPOLYLINE
  5
43
330
17
100
AcDbEntity
  8
ROADS
100
AcDbPolyline
 90
2
 70
0
 10
629150.6722316217
 20
4838655.503642582
 10
629115.1893388778
 20
4838778.378182159
  0
LWPOLYLINE
  5
44
330
17
100
AcDbEntity
  8
ROADS
100
AcDbPolyline
 90
2
 70
0
 10
629353.306480827
 20
4838714.5817852
 10
629344.0959441691
 20
4838779.759652228
  0
LWPOLYLINE
  5
45
330
17
100
AcDbEntity
  8
ROADS
100
AcDbPolyline
 90
2
 70
0
 10
629231.5232403296
 20
4838812.821732258
 10
629247.0878724311
 20
4838754.518286397
  0
LWPOLYLINE
  5
46
330
17
100
AcDbEntity
  8
ROADS
100
AcDbPolyline
 90
2
 70
0
 10
629231.5232403296
 20
4838812.821732258
 10
629115.1893388778
 20
4838778.378182159
  0
LWPOLYLINE
  5
47
330
17
100
AcDbEntity
  8
ROADS
100
AcDbPolyline
 90
3
 70
0
 10
629344.0959441691
 20
4838779.759652228
 10
629323.5580634598
 20
4838783.158403347
 10
629302.5206189067
 20
4838833.303312596
  0
LWPOLYLINE
  5
48
330
17
100
AcDbEntity
  8
ROADS
100
AcDbPolyline
 90
2
 70
0
 10
629344.0959441691
 20
4838779.759652228
 10
629335.0204564232
 20
4838833.435171472
  0
LWPOLYLINE
  5
49
330
17
100
AcDbEntity
  8
ROADS
100
AcDbPolyline
 90
2
 70
0
 10
628891.1260599524
 20
4838578.357985689
 10
628850.6563693889
 20
4838709.277778301
  0
LWPOLYLINE
  5
4A
330
17
100
AcDbEntity
  8
ROADS
100
AcDbPolyline
 90
2
 70
0
 10
628979.6924750553
 20
4838604.649661038
 10
628954.2874841646
 20
4838686.656676535
  0
LWPOLYLINE
  5
4B
330
17
100
AcDbEntity
  8
ROADS
100
AcDbPolyline
 90
2
 70
0
 10
629115.1893388778
 20
4838778.378182159
 10
628850.6563693889
 20
4838709.277778301
  0
LWPOLYLINE
  5
4C
330
17
100
AcDbEntity
  8
ROADS
100
AcDbPolyline
 90
2
 70
0
 10
628850.6563693889
 20
4838709.277778301
 10
628815.2380386537
 20
4838803.594459968
  0
LWPOLYLINE
  5
4D
330
17
100
AcDbEntity
  8
ROADS
100
AcDbPolyline
 90
2
 70
0
 10
628872.7681673118
 20
4838818.230029886
 10
628815.2380386537
 20
4838803.594459968
  0
LWPOLYLINE
  5
4E
330
17
100
AcDbEntity
  8
ROADS
100
AcDbPolyline
 90
2
 70
0
 10
628872.7681673118
 20
4838818.230029886
 10
628837.175162298
 20
4838833.136230304
  0
LWPOLYLINE
  5
4F
330
17
100
AcDbEntity
  8
ROADS
100
AcDbPolyline
 90
2
 70
0
 10
628872.7681673118
 20
4838818.230029886
 10
628850.6283021607
 20
4838879.894700609
  0
LWPOLYLINE
  5
50
330
17
100
AcDbEntity
  8
ROADS
100
AcDbPolyline
 90
2
 70
0
 10
629130.152876557
 20
4838891.519510868
 10
628872.7681673118
 20
4838818.230029886
  0
LWPOLYLINE
  5
51
330
17
100
AcDbEntity
  8
ROADS
100
AcDbPolyline
 90
2
 70
0
 10
628837.175162298
 20
4838833.136230304
 10
628850.6283021607
 20
4838879.894700609
  0
LWPOLYLINE
  5
52
330
17
100
AcDbEntity
  8
ROADS
100
AcDbPolyline
 90
2
 70
0
 10
628850.6283021607
 20
4838879.894700609
 10
628837.3520363092
 20
4838917.620086318
  0
LWPOLYLINE
  5
53
330
17
100
AcDbEntity
  8
ROADS
100
AcDbPolyline
 90
2
 70
0
 10
629302.5206189067
 20
4838833.303312596
 10
629231.5232403296
 20
4838812.821732258
  0
LWPOLYLINE
  5
54
330
17
100
AcDbEntity
  8
ROADS
100
AcDbPolyline
 90
2
 70
0
 10
629302.5206189067
 20
4838833.303312596
 10
629314.0016585746
 20
4838843.627685002
  0
LWPOLYLINE
  5
55
330
17
100
AcDbEntity
  8
ROADS
100
AcDbPolyline
 90
2
 70
0
 10
629314.0016585746
 20
4838843.627685002
 10
629335.0204564232
 20
4838833.435171472
  0
LWPOLYLINE
  5
56
330
17
100
AcDbEntity
  8
ROADS
100
AcDbPolyline
 90
2
 70
0
 10
629335.0204564232
 20
4838833.435171472
 10
629328.3369647745
 20
4838872.689967604
  0
LWPOLYLINE
  5
57
330
17
100
AcDbEntity
  8
ROADS
100
AcDbPolyline
 90
2
 70
0
 10
629302.5206189067
 20
4838833.303312596
 10
629287.274516187
 20
4838873.665300924
  0
LWPOLYLINE
  5
58
330
17
100
AcDbEntity
  8
ROADS
100
AcDbPolyline
 90
2
 70
0
 10
629314.0016585746
 20
4838843.627685002
 10
629328.3369647745
 20
4838872.689967604
  0
LWPOLYLINE
  5
59
330
17
100
AcDbEntity
  8
ROADS
100
AcDbPolyline
 90
2
 70
0
 10
629328.3369647745
 20
4838872.689967604
 10
629326.2468750796
 20
4838884.683982808
  0
LWPOLYLINE
  5
5A
330
17
100
AcDbEntity
  8
ROADS
100
AcDbPolyline
 90
2
 70
0
 10
629287.274516187
 20
4838873.665300924
 10
629326.2468750796
 20
4838884.683982808
  0
LWPOLYLINE
  5
5B
330
17
100
AcDbEntity
  8
ROADS
100
AcDbPolyline
 90
2
 70
0
 10
629287.274516187
 20
4838873.665300924
 10
629259.1150231415
 20
4838929.479762053
  0
LWPOLYLINE
  5
5C
330
17
100
AcDbEntity
  8
ROADS
100
AcDbPolyline
 90
2
 70
0
 10
629259.1150231415
 20
4838929.479762053
 10
629130.152876557
 20
4838891.519510868
  0
LWPOLYLINE
  5
5D
330
17
100
AcDbEntity
  8
ROADS
100
AcDbPolyline
 90
2
 70
0
 10
629130.152876557
 20
4838891.519510868
 10
629099.7606946006
 20
4838993.084658314
  0
LWPOLYLINE
  5
5E
330
17
100
AcDbEntity
  8
ROADS
100
AcDbPolyline
 90
2
 70
0
 10
629259.1150231415
 20
4838929.479762053
 10
629207.4299694317
 20
4839027.086522619
  0
LWPOLYLINE
  5
5F
330
17
100
AcDbEntity
  8
ROADS
100
AcDbPolyline
 90
2
 70
0
 10
629207.4299694317
 20
4839027.086522619
 10
629099.7606946006
 20
4838993.084658314
  0
LWPOLYLINE
  5
60
330
17
100
AcDbEntity
  8
ROADS
100
AcDbPolyline
 90
2
 70
0
 10
629207.4299694317
 20
4839027.086522619
 10
629174.1220865936
 20
4839113.473909186
  0
LWPOLYLINE
  5
61
330
17
100
AcDbEntity
  8
ROADS
100
AcDbPolyline
 90
2
 70
0
 10
629326.2468750796
 20
4838884.683982808
 10
629250.8062914147
 20
4839311.662537443
  0
LWPOLYLINE
  5
62
330
17
100
AcDbEntity
  8
ROADS
100
AcDbPolyline
 90
2
 70
0
 10
629174.1220865936
 20
4839113.473909186
 10
629161.2791435171
 20
4839207.2929716045
  0
LWPOLYLINE
  5
63
330
17
100
AcDbEntity
  8
ROADS
100
AcDbPolyline
 90
2
 70
0
 10
629250.8062914147
 20
4839311.662537443
 10
629248.869334852
 20
4839321.935200059
  0
LWPOLYLINE
  5
64
330
17
100
AcDbEntity
  8
ROADS
100
AcDbPolyline
 90
2
 70
0
 10
629272.1253394927
 20
4839325.450123345
 10
629250.8062914147
 20
4839311.662537443
  0
LWPOLYLINE
  5
65
330
17
100
AcDbEntity
  8
ROADS
100
AcDbPolyline
 90
2
 70
0
 10
629248.869334852
 20
4839321.935200059
 10
629272.1253394927
 20
4839325.450123345
  0
LWPOLYLINE
  5
66
330
17
100
AcDbEntity
  8
ROADS
100
AcDbPolyline
 90
2
 70
0
 10
629272.1253394927
 20
4839325.450123345
 10
629335.322276089
 20
4839339.402263223
  0
LWPOLYLINE
  5
67
330
17
100
AcDbEntity
  8
ROADS
100
AcDbPolyline
 90
2
 70
0
 10
629099.7606946006
 20
4838993.084658314
 10
628837.3520363092
 20
4838917.620086318
  0
LWPOLYLINE
  5
68
330
17
100
AcDbEntity
  8
ROADS
100
AcDbPolyline
 90
2
 70
0
 10
629174.1220865936
 20
4839113.473909186
 10
628811.0439491139
 20
4839008.747319067
  0
LWPOLYLINE
  5
69
330
17
100
AcDbEntity
  8
ROADS
100
AcDbPolyline
 90
2
 70
0
 10
629000.1607065817
 20
4839162.98552714
 10
628784.6802613265
 20
4839097.584379183
  0
LWPOLYLINE
  5
6A
330
17
100
AcDbEntity
  8
ROADS
100
AcDbPolyline
 90
2
 70
0
 10
629161.2791435171
 20
4839207.2929716045
 10
629000.1607065817
 20
4839162.98552714
  0
LWPOLYLINE
  5
6B
330
17
100
AcDbEntity
  8
ROADS
100
AcDbPolyline
 90
2
 70
0
 10
629000.1607065817
 20
4839162.98552714
 10
628984.9463298058
 20
4839210.050490403
  0
LWPOLYLINE
  5
6C
330
17
100
AcDbEntity
  8
ROADS
100
AcDbPolyline
 90
2
 70
0
 10
628972.4960209235
 20
4839252.312125236
 10
628758.9989682212
 20
4839191.32109646
  0
LWPOLYLINE
  5
6D
330
17
100
AcDbEntity
  8
ROADS
100
AcDbPolyline
 90
2
 70
0
 10
628984.9463298058
 20
4839210.050490403
 10
628972.4960209235
 20
4839252.312125236
  0
LWPOLYLINE
  5
6E
330
17
100
AcDbEntity
  8
ROADS
100
AcDbPolyline
 90
3
 70
0
 10
629161.2791435171
 20
4839207.2929716045
 10
629153.4109070401
 20
4839257.91508184
 10
628984.9463298058
 20
4839210.050490403
  0
LWPOLYLINE
  5
6F
330
17
100
AcDbEntity
  8
ROADS
100
AcDbPolyline
 90
2
 70
0
 10
628972.4960209235
 20
4839252.312125236
 10
628941.4452566145
 20
4839350.0320219705
  0
LWPOLYLINE
  5
70
330
17
100
AcDbEntity
  8
ROADS
100
AcDbPolyline
 90
2
 70
0
 10
628941.4452566145
 20
4839350.0320219705
 10
628739.925852385
 20
4839293.086871587
  0
LWPOLYLINE
  5
71
330
17
100
AcDbEntity
  8
ROADS
100
AcDbPolyline
 90
2
 70
0
 10
629335.0204564232
 20
4838833.435171472
 10
629470.0450259523
 20
4838875.767379451
  0
LWPOLYLINE
  5
72
330
17
100
AcDbEntity
  8
ROADS
100
AcDbPolyline
 90
2
 70
0
 10
629470.0450259523
 20
4838875.767379451
 10
629521.6707873815
 20
4838894.608480729
  0
LWPOLYLINE
  5
73
330
17
100
AcDbEntity
  8
ROADS
100
AcDbPolyline
 90
8
 70
0
 10
629335.322276089
 20
4839339.402263223
 10
629353.5632844329
 20
4839326.203325663
 10
629426.0120834173
 20
4839324.222733282
 10
629501.7272769453
 20
4839348.437032624
 10
629674.0378142874
 20
4839349.95111427
 10
629779.2551615409
 20
4839428.4488997
 10
629934.9536136405
 20
4839466.783103167
 10
630025.1910949874
 20
4839538.971556499
  0
LWPOLYLINE
  5
74
330
17
100
AcDbEntity
  8
ROADS
100
AcDbPolyline
 90
3
 70
0
 10
629335.322276089
 20
4839339.402263223
 10
629925.0797898917
 20
4839527.487752161
 10
630025.1910949874
 20
4839538.971556499
  0
LWPOLYLINE
  5
75
330
17
100
AcDbEntity
  8
ROADS
100
AcDbPolyline
 90
2
 70
0
 10
629317.4958065959
 20
4839396.576706432
 10
629831.3208004684
 20
4839555.537631349
  0
LWPOLYLINE
  5
76
330
17
100
AcDbEntity
  8
ROADS
100
AcDbPolyline
 90
2
 70
0
 10
629277.4859412267
 20
4839529.367018695
 10
629690.2308053348
 20
4839657.425411047
  0
LWPOLYLINE
  5
77
330
17
100
AcDbEntity
  8
ROADS
100
AcDbPolyline
 90
2
 70
0
 10
629198.13273197
 20
4839613.767275485
 10
629659.9182453085
 20
4839755.126835224
  0
LWPOLYLINE
  5
78
330
17
100
AcDbEntity
  8
ROADS
100
AcDbPolyline
 90
2
 70
0
 10
629690.2308053348
 20
4839657.425411047
 10
629659.9182453085
 20
4839755.126835224
  0
LWPOLYLINE
  5
79
330
17
100
AcDbEntity
  8
ROADS
100
AcDbPolyline
 90
2
 70
0
 10
629182.0658514948
 20
4839726.523293735
 10
629726.824491695
 20
4839893.341829306
  0
LWPOLYLINE
  5
7A
330
17
100
AcDbEntity
  8
ROADS
100
AcDbPolyline
 90
2
 70
0
 10
629408.1066770402
 20
4839907.534906445
 10
629516.8899693923
 20
4839941.043214339
  0
LWPOLYLINE
  5
7B
330
17
100
AcDbEntity
  8
ROADS
100
AcDbPolyline
 90
2
 70
0
 10
628941.4452566145
 20
4839350.0320219705
 10
628927.8041863961
 20
4839395.260305704
  0
LWPOLYLINE
  5
7C
330
17
100
AcDbEntity
  8
ROADS
100
AcDbPolyline
 90
2
 70
0
 10
628927.8041863961
 20
4839395.260305704
 10
628920.6515012449
 20
4839416.6928583775
  0
LWPOLYLINE
  5
7D
330
17
100
AcDbEntity
  8
ROADS
100
AcDbPolyline
 90
2
 70
0
 10
628920.6515012449
 20
4839416.6928583775
 10
628970.7194462504
 20
4839499.332632491
  0
LWPOLYLINE
  5
7E
330
17
100
AcDbEntity
  8
ROADS
100
AcDbPolyline
 90
3
 70
0
 10
628992.5119861057
 20
4839491.147302554
 10
629016.6712182286
 20
4839467.564744738
 10
629020.1225395441
 20
4839502.441533283
  0
LWPOLYLINE
  5
7F
330
17
100
AcDbEntity
  8
ROADS
100
AcDbPolyline
 90
2
 70
0
 10
628970.7194462504
 20
4839499.332632491
 10
628992.5119861057
 20
4839491.147302554
  0
LWPOLYLINE
  5
80
330
17
100
AcDbEntity
  8
ROADS
100
AcDbPolyline
 90
2
 70
0
 10
628992.5119861057
 20
4839491.147302554
 10
629002.0458334599
 20
4839506.301123318
  0
LWPOLYLINE
  5
81
330
17
100
AcDbEntity
  8
ROADS
100
AcDbPolyline
 90
3
 70
0
 10
628920.6515012449
 20
4839416.6928583775
 10
628878.389428221
 20
4839512.202266595
 10
628870.5726030103
 20
4839583.197624628
  0
LWPOLYLINE
  5
82
330
17
100
AcDbEntity
  8
ROADS
100
AcDbPolyline
 90
2
 70
0
 10
629020.1225395441
 20
4839502.441533283
 10
629002.0458334599
 20
4839506.301123318
  0
LWPOLYLINE
  5
83
330
17
100
AcDbEntity
  8
ROADS
100
AcDbPolyline
 90
3
 70
0
 10
629010.344182634
 20
4839521.827953566
 10
629024.2919153231
 20
4839517.582979109
 10
629020.1225395441
 20
4839502.441533283
  0
LWPOLYLINE
  5
84
330
17
100
AcDbEntity
  8
ROADS
100
AcDbPolyline
 90
2
 70
0
 10
628970.7194462504
 20
4839499.332632491
 10
628992.7387981463
 20
4839528.048561223
  0
LWPOLYLINE
  5
85
330
17
100
AcDbEntity
  8
ROADS
100
AcDbPolyline
 90
2
 70
0
 10
629248.869334852
 20
4839321.935200059
 10
629240.9571418196
 20
4839371.724469192
  0
LWPOLYLINE
  5
86
330
17
100
AcDbEntity
  8
ROADS
100
AcDbPolyline
 90
3
 70
0
 10
629248.869334852
 20
4839321.935200059
 10
629158.94109818
 20
4839318.735249476
 10
628927.8041863961
 20
4839395.260305704
  0
LWPOLYLINE
  5
87
330
17
100
AcDbEntity
  8
ROADS
100
AcDbPolyline
 90
2
 70
0
 10
629317.4958065959
 20
4839396.576706432
 10
629335.322276089
 20
4839339.402263223
  0
LWPOLYLINE
  5
88
330
17
100
AcDbEntity
  8
ROADS
100
AcDbPolyline
 90
2
 70
0
 10
629240.9571418196
 20
4839371.724469192
 10
629317.4958065959
 20
4839396.576706432
  0
LWPOLYLINE
  5
89
330
17
100
AcDbEntity
  8
ROADS
100
AcDbPolyline
 90
2
 70
0
 10
629240.9571418196
 20
4839371.724469192
 10
629213.957986127
 20
4839511.048559737
  0
LWPOLYLINE
  5
8A
330
17
100
AcDbEntity
  8
ROADS
100
AcDbPolyline
 90
2
 70
0
 10
629317.4958065959
 20
4839396.576706432
 10
629277.4859412267
 20
4839529.367018695
  0
LWPOLYLINE
  5
8B
330
17
100
AcDbEntity
  8
ROADS
100
AcDbPolyline
 90
2
 70
0
 10
629213.957986127
 20
4839511.048559737
 10
629277.4859412267
 20
4839529.367018695
  0
LWPOLYLINE
  5
8C
330
17
100
AcDbEntity
  8
ROADS
100
AcDbPolyline
 90
2
 70
0
 10
629213.957986127
 20
4839511.048559737
 10
629198.13273197
 20
4839613.767275485
  0
LWPOLYLINE
  5
8D
330
17
100
AcDbEntity
  8
ROADS
100
AcDbPolyline
 90
2
 70
0
 10
629198.13273197
 20
4839613.767275485
 10
629086.0046700509
 20
4839575.594281201
  0
LWPOLYLINE
  5
8E
330
17
100
AcDbEntity
  8
ROADS
100
AcDbPolyline
 90
2
 70
0
 10
629198.13273197
 20
4839613.767275485
 10
629182.0658514948
 20
4839726.523293735
  0
LWPOLYLINE
  5
8F
330
17
100
AcDbEntity
  8
ROADS
100
AcDbPolyline
 90
2
 70
0
 10
629742.0704147905
 20
4838667.641097086
 10
629685.8996627902
 20
4838797.056265978
  0
LWPOLYLINE
  5
90
330
17
100
AcDbEntity
  8
ROADS
100
AcDbPolyline
 90
2
 70
0
 10
629824.3760839866
 20
4838830.572321246
 10
629854.9914482994
 20
4838748.040624981
  0
LWPOLYLINE
  5
91
330
17
100
AcDbEntity
  8
ROADS
100
AcDbPolyline
 90
4
 70
0
 10
629824.3760839866
 20
4838830.572321246
 10
629894.0781255644
 20
4838853.838704811
 10
629908.7760133132
 20
4838845.996007307
 10
629919.8198662723
 20
4838810.948819211
  0
LWPOLYLINE
  5
92
330
17
100
AcDbEntity
  8
ROADS
100
AcDbPolyline
 90
2
 70
0
 10
629798.7197697735
 20
4838829.440177321
 10
629824.3760839866
 20
4838830.572321246
  0
LWPOLYLINE
  5
93
330
17
100
AcDbEntity
  8
ROADS
100
AcDbPolyline
 90
2
 70
0
 10
630074.9053098694
 20
4839053.308095167
 10
630068.8113155075
 20
4839072.993722454
  0
LWPOLYLINE
  5
94
330
17
100
AcDbEntity
  8
ROADS
100
AcDbPolyline
 90
3
 70
0
 10
629737.926338376
 20
4838855.269359862
 10
629769.0353804936
 20
4838828.573193251
 10
629798.7197697735
 20
4838829.440177321
  0
LWPOLYLINE
  5
95
330
17
100
AcDbEntity
  8
ROADS
100
AcDbPolyline
 90
2
 70
0
 10
629798.7197697735
 20
4838829.440177321
 10
629786.2007853653
 20
4838867.759410974
  0
LWPOLYLINE
  5
96
330
17
100
AcDbEntity
  8
ROADS
100
AcDbPolyline
 90
4
 70
0
 10
629962.6986315359
 20
4839038.507882987
 10
629852.6157537574
 20
4839002.084115277
 10
629902.3436611197
 20
4838865.230009039
 10
629980.6035560785
 20
4838885.246534558
  0
LWPOLYLINE
  5
97
330
17
100
AcDbEntity
  8
ROADS
100
AcDbPolyline
 90
2
 70
0
 10
630001.6639989397
 20
4838914.418703142
 10
629962.6986315359
 20
4839038.507882987
  0
LWPOLYLINE
  5
98
330
17
100
AcDbEntity
  8
ROADS
100
AcDbPolyline
 90
2
 70
0
 10
629962.6986315359
 20
4839038.507882987
 10
630068.8113155075
 20
4839072.993722454
  0
LWPOLYLINE
  5
99
330
17
100
AcDbEntity
  8
ROADS
100
AcDbPolyline
 90
2
 70
0
 10
630025.1910949874
 20
4839538.971556499
 10
630040.4202216112
 20
4839536.840398615
  0
LWPOLYLINE
  5
9A
330
17
100
AcDbEntity
  8
ROADS
100
AcDbPolyline
 90
2
 70
0
 10
630040.4202216112
 20
4839536.840398615
 10
630028.4584121418
 20
4839577.662390766
  0
LWPOLYLINE
  5
9B
330
17
100
AcDbEntity
  8
ROADS
100
AcDbPolyline
 90
2
 70
0
 10
630028.4584121418
 20
4839577.662390766
 10
630025.1910949874
 20
4839538.971556499
  0
LWPOLYLINE
  5
9C
330
17
100
AcDbEntity
  8
ROADS
100
AcDbPolyline
 90
3
 70
0
 10
629831.3208004684
 20
4839555.537631349
 10
629816.2030707696
 20
4839584.541180525
 10
629778.9371201834
 20
4839592.5205968125
  0
LWPOLYLINE
  5
9D
330
17
100
AcDbEntity
  8
ROADS
100
AcDbPolyline
 90
2
 70
0
 10
629778.9371201834
 20
4839592.5205968125
 10
629714.5633687767
 20
4839572.026648299
  0
LWPOLYLINE
  5
9E
330
17
100
AcDbEntity
  8
ROADS
100
AcDbPolyline
 90
2
 70
0
 10
630068.8113155075
 20
4839072.993722454
 10
630083.6937422246
 20
4839077.492430215
  0
LWPOLYLINE
  5
9F
330
17
100
AcDbEntity
  8
ROADS
100
AcDbPolyline
 90
2
 70
0
 10
630127.9349369254
 20
4839261.930063521
 10
630040.4202216112
 20
4839536.840398615
  0
LWPOLYLINE
  5
A0
330
17
100
AcDbEntity
  8
ROADS
100
AcDbPolyline
 90
3
 70
0
 10
630040.4202216112
 20
4839536.840398615
 10
630113.7924746072
 20
4839526.416452571
 10
630122.1449328066
 20
4839522.033196912
  0
LWPOLYLINE
  5
A1
330
17
100
AcDbEntity
  8
ROADS
100
AcDbPolyline
 90
2
 70
0
 10
630017.8457064093
 20
4839614.088975569
 10
630117.066912948
 20
4839644.948395628
  0
LWPOLYLINE
  5
A2
330
17
100
AcDbEntity
  8
ROADS
100
AcDbPolyline
 90
2
 70
0
 10
630069.0499783418
 20
4839763.469819412
 10
630090.0807036688
 20
4839769.978533593
  0
LWPOLYLINE
  5
A3
330
17
100
AcDbEntity
  8
ROADS
100
AcDbPolyline
 90
3
 70
0
 10
630069.0499783418
 20
4839763.469819412
 10
630057.7955378883
 20
4839819.44617458
 10
630073.8280231393
 20
4839824.457266665
  0
LWPOLYLINE
  5
A4
330
17
100
AcDbEntity
  8
ROADS
100
AcDbPolyline
 90
2
 70
0
 10
629993.6811812727
 20
4839858.573058756
 10
630054.8692919747
 20
4839877.900624755
  0
LWPOLYLINE
  5
A5
330
17
100
AcDbEntity
  8
ROADS
100
AcDbPolyline
 90
2
 70
0
 10
628891.1260599524
 20
4838578.357985689
 10
628877.1299841751
 20
4838574.211961698
  0
LWPOLYLINE
  5
A6
330
17
100
AcDbEntity
  8
ROADS
100
AcDbPolyline
 90
2
 70
0
 10
628560.0722068695
 20
4838697.939846177
 10
628552.2176368271
 20
4838721.765611115
  0
LWPOLYLINE
  5
A7
330
17
100
AcDbEntity
  8
ROADS
100
AcDbPolyline
 90
2
 70
0
 10
628739.7645487536
 20
4838623.524452918
 10
628700.5205467304
 20
4838768.755163978
  0
LWPOLYLINE
  5
A8
330
17
100
AcDbEntity
  8
ROADS
100
AcDbPolyline
 90
2
 70
0
 10
628700.5205467304
 20
4838768.755163978
 10
628552.2176368271
 20
4838721.765611115
  0
LWPOLYLINE
  5
A9
330
17
100
AcDbEntity
  8
ROADS
100
AcDbPolyline
 90
2
 70
0
 10
628552.2176368271
 20
4838721.765611115
 10
628529.416801587
 20
4838714.7005962925
  0
LWPOLYLINE
  5
AA
330
17
100
AcDbEntity
  8
ROADS
100
AcDbPolyline
 90
2
 70
0
 10
628387.9928654153
 20
4838819.6485079955
 10
628361.2966732358
 20
4838901.467107407
  0
LWPOLYLINE
  5
AB
330
17
100
AcDbEntity
  8
ROADS
100
AcDbPolyline
 90
2
 70
0
 10
628552.2176368271
 20
4838721.765611115
 10
628481.1709452764
 20
4838938.983868638
  0
LWPOLYLINE
  5
AC
330
17
100
AcDbEntity
  8
ROADS
100
AcDbPolyline
 90
2
 70
0
 10
628361.2966732358
 20
4838901.467107407
 10
628321.7489579744
 20
4838890.161912304
  0
LWPOLYLINE
  5
AD
330
17
100
AcDbEntity
  8
ROADS
100
AcDbPolyline
 90
2
 70
0
 10
628815.2380386537
 20
4838803.594459968
 10
628700.5205467304
 20
4838768.755163978
  0
LWPOLYLINE
  5
AE
330
17
100
AcDbEntity
  8
ROADS
100
AcDbPolyline
 90
2
 70
0
 10
628815.2380386537
 20
4838803.594459968
 10
628837.175162298
 20
4838833.136230304
  0
LWPOLYLINE
  5
AF
330
17
100
AcDbEntity
  8
ROADS
100
AcDbPolyline
 90
2
 70
0
 10
628837.3520363092
 20
4838917.620086318
 10
628811.0439491139
 20
4839008.747319067
  0
LWPOLYLINE
  5
B0
330
17
100
AcDbEntity
  8
ROADS
100
AcDbPolyline
 90
2
 70
0
 10
628811.0439491139
 20
4839008.747319067
 10
628784.6802613265
 20
4839097.584379183
  0
LWPOLYLINE
  5
B1
330
17
100
AcDbEntity
  8
ROADS
100
AcDbPolyline
 90
2
 70
0
 10
628784.6802613265
 20
4839097.584379183
 10
628758.9989682212
 20
4839191.32109646
  0
LWPOLYLINE
  5
B2
330
17
100
AcDbEntity
  8
ROADS
100
AcDbPolyline
 90
2
 70
0
 10
628758.9989682212
 20
4839191.32109646
 10
628747.6963521034
 20
4839226.251975018
  0
LWPOLYLINE
  5
B3
330
17
100
AcDbEntity
  8
ROADS
100
AcDbPolyline
 90
2
 70
0
 10
628747.6963521034
 20
4839226.251975018
 10
628684.5593103743
 20
4839275.886192243
  0
LWPOLYLINE
  5
B4
330
17
100
AcDbEntity
  8
ROADS
100
AcDbPolyline
 90
2
 70
0
 10
628651.5151016393
 20
4839265.272746376
 10
628560.6225505738
 20
4839238.047781089
  0
LWPOLYLINE
  5
B5
330
17
100
AcDbEntity
  8
ROADS
100
AcDbPolyline
 90
2
 70
0
 10
628747.6963521034
 20
4839226.251975018
 10
628739.925852385
 20
4839293.086871587
  0
LWPOLYLINE
  5
B6
330
17
100
AcDbEntity
  8
ROADS
100
AcDbPolyline
 90
2
 70
0
 10
628684.5593103743
 20
4839275.886192243
 10
628651.5151016393
 20
4839265.272746376
  0
LWPOLYLINE
  5
B7
330
17
100
AcDbEntity
  8
ROADS
100
AcDbPolyline
 90
2
 70
0
 10
628276.3219920363
 20
4839151.689421147
 10
628191.1693230084
 20
4839109.972554617
  0
LWPOLYLINE
  5
B8
330
17
100
AcDbEntity
  8
ROADS
100
AcDbPolyline
 90
2
 70
0
 10
628276.3219920363
 20
4839151.689421147
 10
628155.5781027487
 20
4839223.621633806
  0
LWPOLYLINE
  5
B9
330
17
100
AcDbEntity
  8
ROADS
100
AcDbPolyline
 90
2
 70
0
 10
628481.1709452764
 20
4838938.983868638
 10
628361.2966732358
 20
4838901.467107407
  0
LWPOLYLINE
  5
BA
330
17
100
AcDbEntity
  8
ROADS
100
AcDbPolyline
 90
2
 70
0
 10
628361.2966732358
 20
4838901.467107407
 10
628276.3219920363
 20
4839151.689421147
  0
LWPOLYLINE
  5
BB
330
17
100
AcDbEntity
  8
ROADS
100
AcDbPolyline
 90
2
 70
0
 10
628481.1709452764
 20
4838938.983868638
 10
628397.1976670312
 20
4839188.18931057
  0
LWPOLYLINE
  5
BC
330
17
100
AcDbEntity
  8
ROADS
100
AcDbPolyline
 90
2
 70
0
 10
628397.1976670312
 20
4839188.18931057
 10
628276.3219920363
 20
4839151.689421147
  0
LWPOLYLINE
  5
BD
330
17
100
AcDbEntity
  8
ROADS
100
AcDbPolyline
 90
2
 70
0
 10
628560.6225505738
 20
4839238.047781089
 10
628397.1976670312
 20
4839188.18931057
  0
LWPOLYLINE
  5
BE
330
17
100
AcDbEntity
  8
ROADS
100
AcDbPolyline
 90
2
 70
0
 10
628397.1976670312
 20
4839188.18931057
 10
628364.4864773931
 20
4839296.7657209635
  0
LWPOLYLINE
  5
BF
330
17
100
AcDbEntity
  8
ROADS
100
AcDbPolyline
 90
2
 70
0
 10
628560.6225505738
 20
4839238.047781089
 10
628528.9561405404
 20
4839344.980030702
  0
LWPOLYLINE
  5
C0
330
17
100
AcDbEntity
  8
ROADS
100
AcDbPolyline
 90
2
 70
0
 10
628528.9561405404
 20
4839344.980030702
 10
628364.4864773931
 20
4839296.7657209635
  0
LWPOLYLINE
  5
C1
330
17
100
AcDbEntity
  8
ROADS
100
AcDbPolyline
 90
2
 70
0
 10
628364.4864773931
 20
4839296.7657209635
 10
628335.0290289335
 20
4839402.878808094
  0
LWPOLYLINE
  5
C2
330
17
100
AcDbEntity
  8
ROADS
100
AcDbPolyline
 90
2
 70
0
 10
628528.9561405404
 20
4839344.980030702
 10
628496.1640702296
 20
4839451.334859789
  0
LWPOLYLINE
  5
C3
330
17
100
AcDbEntity
  8
ROADS
100
AcDbPolyline
 90
2
 70
0
 10
628739.925852385
 20
4839293.086871587
 10
628684.5593103743
 20
4839275.886192243
  0
LWPOLYLINE
  5
C4
330
17
100
AcDbEntity
  8
ROADS
100
AcDbPolyline
 90
2
 70
0
 10
628739.925852385
 20
4839293.086871587
 10
628714.9315939762
 20
4839393.7314505875
  0
LWPOLYLINE
  5
C5
330
17
100
AcDbEntity
  8
ROADS
100
AcDbPolyline
 90
3
 70
0
 10
628651.5151016393
 20
4839265.272746376
 10
628603.6433799121
 20
4839433.025909679
 10
628608.9784293745
 20
4839455.762926167
  0
LWPOLYLINE
  5
C6
330
17
100
AcDbEntity
  8
ROADS
100
AcDbPolyline
 90
3
 70
0
 10
628821.1058125488
 20
4839391.678948797
 10
628749.6272101142
 20
4839403.16770564
 10
628714.9315939762
 20
4839393.7314505875
  0
LWPOLYLINE
  5
C7
330
17
100
AcDbEntity
  8
ROADS
100
AcDbPolyline
 90
2
 70
0
 10
628714.9315939762
 20
4839393.7314505875
 10
628706.8617664792
 20
4839417.297040986
  0
LWPOLYLINE
  5
C8
330
17
100
AcDbEntity
  8
ROADS
100
AcDbPolyline
 90
2
 70
0
 10
628927.8041863961
 20
4839395.260305704
 10
628691.2821196849
 20
4839475.983117852
  0
LWPOLYLINE
  5
C9
330
17
100
AcDbEntity
  8
ROADS
100
AcDbPolyline
 90
2
 70
0
 10
628706.8617664792
 20
4839417.297040986
 10
628608.9784293745
 20
4839455.762926167
  0
LWPOLYLINE
  5
CA
330
17
100
AcDbEntity
  8
ROADS
100
AcDbPolyline
 90
2
 70
0
 10
628706.8617664792
 20
4839417.297040986
 10
628691.2821196849
 20
4839475.983117852
  0
LWPOLYLINE
  5
CB
330
17
100
AcDbEntity
  8
ROADS
100
AcDbPolyline
 90
2
 70
0
 10
628698.8619319203
 20
4839493.600407408
 10
628920.6515012449
 20
4839416.6928583775
  0
LWPOLYLINE
  5
CC
330
17
100
AcDbEntity
  8
ROADS
100
AcDbPolyline
 90
2
 70
0
 10
628691.2821196849
 20
4839475.983117852
 10
628685.8234987087
 20
4839497.611812014
  0
LWPOLYLINE
  5
CD
330
17
100
AcDbEntity
  8
ROADS
100
AcDbPolyline
 90
2
 70
0
 10
628276.3219920363
 20
4839151.689421147
 10
628227.7488086947
 20
4839313.943364283
  0
LWPOLYLINE
  5
CE
330
17
100
AcDbEntity
  8
ROADS
100
AcDbPolyline
 90
2
 70
0
 10
628227.7488086947
 20
4839313.943364283
 10
628160.1168552843
 20
4839351.012360229
  0
LWPOLYLINE
  5
CF
330
17
100
AcDbEntity
  8
ROADS
100
AcDbPolyline
 90
2
 70
0
 10
628227.7488086947
 20
4839313.943364283
 10
628213.313109452
 20
4839365.94961997
  0
LWPOLYLINE
  5
D0
330
17
100
AcDbEntity
  8
ROADS
100
AcDbPolyline
 90
2
 70
0
 10
628213.313109452
 20
4839365.94961997
 10
628160.1168552843
 20
4839351.012360229
  0
LWPOLYLINE
  5
D1
330
17
100
AcDbEntity
  8
ROADS
100
AcDbPolyline
 90
2
 70
0
 10
628160.1168552843
 20
4839351.012360229
 10
628133.1481974977
 20
4839367.477951008
  0
LWPOLYLINE
  5
D2
330
17
100
AcDbEntity
  8
ROADS
100
AcDbPolyline
 90
2
 70
0
 10
628335.0290289335
 20
4839402.878808094
 10
628213.313109452
 20
4839365.94961997
  0
LWPOLYLINE
  5
D3
330
17
100
AcDbEntity
  8
ROADS
100
AcDbPolyline
 90
3
 70
0
 10
628213.313109452
 20
4839365.94961997
 10
628171.6081023136
 20
4839478.46151435
 10
628134.799975751
 20
4839503.858346174
  0
LWPOLYLINE
  5
D4
330
17
100
AcDbEntity
  8
ROADS
100
AcDbPolyline
 90
3
 70
0
 10
628299.0409376792
 20
4839519.947455233
 10
628262.1538459691
 20
4839594.004006855
 10
628160.5910539819
 20
4839639.095679932
  0
LWPOLYLINE
  5
D5
330
17
100
AcDbEntity
  8
ROADS
100
AcDbPolyline
 90
2
 70
0
 10
628496.1640702296
 20
4839451.334859789
 10
628335.0290289335
 20
4839402.878808094
  0
LWPOLYLINE
  5
D6
330
17
100
AcDbEntity
  8
ROADS
100
AcDbPolyline
 90
2
 70
0
 10
628335.0290289335
 20
4839402.878808094
 10
628302.6946634355
 20
4839507.703749935
  0
LWPOLYLINE
  5
D7
330
17
100
AcDbEntity
  8
ROADS
100
AcDbPolyline
 90
2
 70
0
 10
628496.1640702296
 20
4839451.334859789
 10
628479.3859538342
 20
4839509.545186763
  0
LWPOLYLINE
  5
D8
330
17
100
AcDbEntity
  8
ROADS
100
AcDbPolyline
 90
2
 70
0
 10
628608.9784293745
 20
4839455.762926167
 10
628479.3859538342
 20
4839509.545186763
  0
LWPOLYLINE
  5
D9
330
17
100
AcDbEntity
  8
ROADS
100
AcDbPolyline
 90
2
 70
0
 10
628381.3065828792
 20
4839483.55924177
 10
628380.737210786
 20
4839524.263613388
  0
LWPOLYLINE
  5
DA
330
17
100
AcDbEntity
  8
ROADS
100
AcDbPolyline
 90
2
 70
0
 10
628302.6946634355
 20
4839507.703749935
 10
628318.7299785881
 20
4839517.860490851
  0
LWPOLYLINE
  5
DB
330
17
100
AcDbEntity
  8
ROADS
100
AcDbPolyline
 90
2
 70
0
 10
628302.6946634355
 20
4839507.703749935
 10
628299.0409376792
 20
4839519.947455233
  0
LWPOLYLINE
  5
DC
330
17
100
AcDbEntity
  8
ROADS
100
AcDbPolyline
 90
2
 70
0
 10
628395.6346699449
 20
4839513.23638242
 10
628380.737210786
 20
4839524.263613388
  0
LWPOLYLINE
  5
DD
330
17
100
AcDbEntity
  8
ROADS
100
AcDbPolyline
 90
2
 70
0
 10
628299.0409376792
 20
4839519.947455233
 10
628318.7299785881
 20
4839517.860490851
  0
LWPOLYLINE
  5
DE
330
17
100
AcDbEntity
  8
ROADS
100
AcDbPolyline
 90
2
 70
0
 10
628318.7299785881
 20
4839517.860490851
 10
628375.6480251043
 20
4839536.306340824
  0
LWPOLYLINE
  5
DF
330
17
100
AcDbEntity
  8
ROADS
100
AcDbPolyline
 90
2
 70
0
 10
628685.8234987087
 20
4839497.611812014
 10
628698.8619319203
 20
4839493.600407408
  0
LWPOLYLINE
  5
E0
330
17
100
AcDbEntity
  8
ROADS
100
AcDbPolyline
 90
2
 70
0
 10
628698.8619319203
 20
4839493.600407408
 10
628714.6701933559
 20
4839539.360423954
  0
LWPOLYLINE
  5
E1
330
17
100
AcDbEntity
  8
ROADS
100
AcDbPolyline
 90
2
 70
0
 10
628691.2821196849
 20
4839475.983117852
 10
628463.242194005
 20
4839560.993538116
  0
LWPOLYLINE
  5
E2
330
17
100
AcDbEntity
  8
ROADS
100
AcDbPolyline
 90
2
 70
0
 10
628685.8234987087
 20
4839497.611812014
 10
628667.2126804793
 20
4839556.4060551245
  0
LWPOLYLINE
  5
E3
330
17
100
AcDbEntity
  8
ROADS
100
AcDbPolyline
 90
2
 70
0
 10
628714.6701933559
 20
4839539.360423954
 10
628706.1912163349
 20
4839558.399308031
  0
LWPOLYLINE
  5
E4
330
17
100
AcDbEntity
  8
ROADS
100
AcDbPolyline
 90
2
 70
0
 10
628714.6701933559
 20
4839539.360423954
 10
628716.771314446
 20
4839559.206755432
  0
LWPOLYLINE
  5
E5
330
17
100
AcDbEntity
  8
ROADS
100
AcDbPolyline
 90
2
 70
0
 10
628706.1912163349
 20
4839558.399308031
 10
628667.2126804793
 20
4839556.4060551245
  0
LWPOLYLINE
  5
E6
330
17
100
AcDbEntity
  8
ROADS
100
AcDbPolyline
 90
2
 70
0
 10
628716.771314446
 20
4839559.206755432
 10
628706.1912163349
 20
4839558.399308031
  0
LWPOLYLINE
  5
E7
330
17
100
AcDbEntity
  8
ROADS
100
AcDbPolyline
 90
2
 70
0
 10
628870.5726030103
 20
4839583.197624628
 10
628716.771314446
 20
4839559.206755432
  0
LWPOLYLINE
  5
E8
330
17
100
AcDbEntity
  8
ROADS
100
AcDbPolyline
 90
2
 70
0
 10
628667.2126804793
 20
4839556.4060551245
 10
628537.4556619739
 20
4839606.3460562965
  0
LWPOLYLINE
  5
E9
330
17
100
AcDbEntity
  8
ROADS
100
AcDbPolyline
 90
2
 70
0
 10
628375.6480251043
 20
4839536.306340824
 10
628380.737210786
 20
4839524.263613388
  0
LWPOLYLINE
  5
EA
330
17
100
AcDbEntity
  8
ROADS
100
AcDbPolyline
 90
2
 70
0
 10
628479.3859538342
 20
4839509.545186763
 10
628463.242194005
 20
4839560.993538116
  0
LWPOLYLINE
  5
EB
330
17
100
AcDbEntity
  8
ROADS
100
AcDbPolyline
 90
2
 70
0
 10
628375.6480251043
 20
4839536.306340824
 10
628416.2765617714
 20
4839550.686252895
  0
LWPOLYLINE
  5
EC
330
17
100
AcDbEntity
  8
ROADS
100
AcDbPolyline
 90
2
 70
0
 10
628416.2765617714
 20
4839550.686252895
 10
628453.5728210676
 20
4839558.104429057
  0
LWPOLYLINE
  5
ED
330
17
100
AcDbEntity
  8
ROADS
100
AcDbPolyline
 90
2
 70
0
 10
628453.5728210676
 20
4839558.104429057
 10
628463.242194005
 20
4839560.993538116
  0
LWPOLYLINE
  5
EE
330
17
100
AcDbEntity
  8
ROADS
100
AcDbPolyline
 90
2
 70
0
 10
628416.2765617714
 20
4839550.686252895
 10
628437.0420618228
 20
4839584.703138201
  0
LWPOLYLINE
  5
EF
330
17
100
AcDbEntity
  8
ROADS
100
AcDbPolyline
 90
2
 70
0
 10
628453.5728210676
 20
4839558.104429057
 10
628437.0420618228
 20
4839584.703138201
  0
LWPOLYLINE
  5
F0
330
17
100
AcDbEntity
  8
ROADS
100
AcDbPolyline
 90
2
 70
0
 10
628463.242194005
 20
4839560.993538116
 10
628454.9071485759
 20
4839586.062408151
  0
LWPOLYLINE
  5
F1
330
17
100
AcDbEntity
  8
ROADS
100
AcDbPolyline
 90
2
 70
0
 10
628454.9071485759
 20
4839586.062408151
 10
628437.0420618228
 20
4839584.703138201
  0
LWPOLYLINE
  5
F2
330
17
100
AcDbEntity
  8
ROADS
100
AcDbPolyline
 90
2
 70
0
 10
628454.9071485759
 20
4839586.062408151
 10
628434.579469586
 20
4839650.480917678
  0
LWPOLYLINE
  5
F3
330
17
100
AcDbEntity
  8
ROADS
100
AcDbPolyline
 90
2
 70
0
 10
628437.0420618228
 20
4839584.703138201
 10
628181.3797368942
 20
4839701.747058104
  0
LWPOLYLINE
  5
F4
330
17
100
AcDbEntity
  8
ROADS
100
AcDbPolyline
 90
2
 70
0
 10
628295.6006889383
 20
4839713.976907672
 10
628203.6215303505
 20
4839755.1188753415
  0
LWPOLYLINE
  5
F5
330
17
100
AcDbEntity
  8
ROADS
100
AcDbPolyline
 90
2
 70
0
 10
628295.6006889383
 20
4839713.976907672
 10
628258.223231463
 20
4839856.076770518
  0
LWPOLYLINE
  5
F6
330
17
100
AcDbEntity
  8
ROADS
100
AcDbPolyline
 90
2
 70
0
 10
628667.2126804793
 20
4839556.4060551245
 10
628648.697119505
 20
4839619.829322604
  0
LWPOLYLINE
  5
F7
330
17
100
AcDbEntity
  8
ROADS
100
AcDbPolyline
 90
2
 70
0
 10
628842.6035685983
 20
4839678.562054275
 10
628648.697119505
 20
4839619.829322604
  0
LWPOLYLINE
  5
F8
330
17
100
AcDbEntity
  8
ROADS
100
AcDbPolyline
 90
2
 70
0
 10
628648.697119505
 20
4839619.829322604
 10
628596.868840314
 20
4839790.795073231
  0
LWPOLYLINE
  5
F9
330
17
100
AcDbEntity
  8
ROADS
100
AcDbPolyline
 90
2
 70
0
 10
628731.0211656156
 20
4839699.011856682
 10
628694.8810660974
 20
4839820.605163748
  0
LWPOLYLINE
  5
FA
330
17
100
AcDbEntity
  8
ROADS
100
AcDbPolyline
 90
2
 70
0
 10
628842.6035685983
 20
4839678.562054275
 10
628790.4842855529
 20
4839849.302615877
  0
LWPOLYLINE
  5
FB
330
17
100
AcDbEntity
  8
ROADS
100
AcDbPolyline
 90
2
 70
0
 10
628694.8810660974
 20
4839820.605163748
 10
628596.868840314
 20
4839790.795073231
  0
LWPOLYLINE
  5
FC
330
17
100
AcDbEntity
  8
ROADS
100
AcDbPolyline
 90
2
 70
0
 10
628790.4842855529
 20
4839849.302615877
 10
628694.8810660974
 20
4839820.605163748
  0
LWPOLYLINE
  5
FD
330
17
100
AcDbEntity
  8
ROADS
100
AcDbPolyline
 90
2
 70
0
 10
628596.868840314
 20
4839790.795073231
 10
628532.8586937154
 20
4839992.990452665
  0
LWPOLYLINE
  5
FE
330
17
100
AcDbEntity
  8
ROADS
100
AcDbPolyline
 90
2
 70
0
 10
628694.8810660974
 20
4839820.605163748
 10
628633.9577067746
 20
4840024.203534385
  0
LWPOLYLINE
  5
FF
330
17
100
AcDbEntity
  8
ROADS
100
AcDbPolyline
 90
2
 70
0
 10
628790.4842855529
 20
4839849.302615877
 10
628729.2677032471
 20
4840052.578713472
  0
LWPOLYLINE
  5
100
330
17
100
AcDbEntity
  8
ROADS
100
AcDbPolyline
 90
2
 70
0
 10
628537.4556619739
 20
4839606.3460562965
 10
628434.579469586
 20
4839650.480917678
  0
LWPOLYLINE
  5
101
330
17
100
AcDbEntity
  8
ROADS
100
AcDbPolyline
 90
2
 70
0
 10
628434.579469586
 20
4839650.480917678
 10
628295.6006889383
 20
4839713.976907672
  0
LWPOLYLINE
  5
102
330
17
100
AcDbEntity
  8
ROADS
100
AcDbPolyline
 90
2
 70
0
 10
628537.4556619739
 20
4839606.3460562965
 10
628498.9247329142
 20
4839761.201246231
  0
LWPOLYLINE
  5
103
330
17
100
AcDbEntity
  8
ROADS
100
AcDbPolyline
 90
2
 70
0
 10
628434.579469586
 20
4839650.480917678
 10
628406.1316576765
 20
4839731.791632861
  0
LWPOLYLINE
  5
104
330
17
100
AcDbEntity
  8
ROADS
100
AcDbPolyline
 90
2
 70
0
 10
628498.9247329142
 20
4839761.201246231
 10
628406.1316576765
 20
4839731.791632861
  0
LWPOLYLINE
  5
105
330
17
100
AcDbEntity
  8
ROADS
100
AcDbPolyline
 90
2
 70
0
 10
628596.868840314
 20
4839790.795073231
 10
628498.9247329142
 20
4839761.201246231
  0
LWPOLYLINE
  5
106
330
17
100
AcDbEntity
  8
ROADS
100
AcDbPolyline
 90
2
 70
0
 10
628406.1316576765
 20
4839731.791632861
 10
628321.1960813018
 20
4839989.324966867
  0
LWPOLYLINE
  5
107
330
17
100
AcDbEntity
  8
ROADS
100
AcDbPolyline
 90
2
 70
0
 10
628498.9247329142
 20
4839761.201246231
 10
628410.2617063036
 20
4840016.864087075
  0
LWPOLYLINE
  5
108
330
17
100
AcDbEntity
  8
ROADS
100
AcDbPolyline
 90
2
 70
0
 10
628410.2617063036
 20
4840016.864087075
 10
628321.1960813018
 20
4839989.324966867
  0
LWPOLYLINE
  5
109
330
17
100
AcDbEntity
  8
ROADS
100
AcDbPolyline
 90
2
 70
0
 10
628532.8586937154
 20
4839992.990452665
 10
628511.6966464788
 20
4840048.688283002
  0
LWPOLYLINE
  5
10A
330
17
100
AcDbEntity
  8
ROADS
100
AcDbPolyline
 90
2
 70
0
 10
628321.1960813018
 20
4839989.324966867
 10
628276.7767053839
 20
4839975.764371048
  0
LWPOLYLINE
  5
10B
330
17
100
AcDbEntity
  8
ROADS
100
AcDbPolyline
 90
2
 70
0
 10
628321.1960813018
 20
4839989.324966867
 10
628251.4003645823
 20
4840217.902403337
  0
LWPOLYLINE
  5
10C
330
17
100
AcDbEntity
  8
ROADS
100
AcDbPolyline
 90
2
 70
0
 10
628633.9577067746
 20
4840024.203534385
 10
628532.8586937154
 20
4839992.990452665
  0
LWPOLYLINE
  5
10D
330
17
100
AcDbEntity
  8
ROADS
100
AcDbPolyline
 90
2
 70
0
 10
628729.2677032471
 20
4840052.578713472
 10
628633.9577067746
 20
4840024.203534385
  0
LWPOLYLINE
  5
10E
330
17
100
AcDbEntity
  8
ROADS
100
AcDbPolyline
 90
2
 70
0
 10
628826.2719138542
 20
4840082.552666216
 10
628729.2677032471
 20
4840052.578713472
  0
LWPOLYLINE
  5
10F
330
17
100
AcDbEntity
  8
ROADS
100
AcDbPolyline
 90
2
 70
0
 10
628633.9577067746
 20
4840024.203534385
 10
628584.5692416902
 20
4840179.645330613
  0
LWPOLYLINE
  5
110
330
17
100
AcDbEntity
  8
ROADS
100
AcDbPolyline
 90
2
 70
0
 10
628729.2677032471
 20
4840052.578713472
 10
628678.028356819
 20
4840207.67404103
  0
LWPOLYLINE
  5
111
330
17
100
AcDbEntity
  8
ROADS
100
AcDbPolyline
 90
2
 70
0
 10
628826.2719138542
 20
4840082.552666216
 10
628780.0492027804
 20
4840238.845875391
  0
LWPOLYLINE
  5
112
330
17
100
AcDbEntity
  8
ROADS
100
AcDbPolyline
 90
2
 70
0
 10
628678.028356819
 20
4840207.67404103
 10
628584.5692416902
 20
4840179.645330613
  0
LWPOLYLINE
  5
113
330
17
100
AcDbEntity
  8
ROADS
100
AcDbPolyline
 90
2
 70
0
 10
628759.3545805154
 20
4840232.7790633645
 10
628678.028356819
 20
4840207.67404103
  0
LWPOLYLINE
  5
114
330
17
100
AcDbEntity
  8
ROADS
100
AcDbPolyline
 90
2
 70
0
 10
628780.0492027804
 20
4840238.845875391
 10
628759.3545805154
 20
4840232.7790633645
  0
LWPOLYLINE
  5
115
330
17
100
AcDbEntity
  8
ROADS
100
AcDbPolyline
 90
2
 70
0
 10
628837.8270784338
 20
4840257.47244024
 10
628780.0492027804
 20
4840238.845875391
  0
LWPOLYLINE
  5
116
330
17
100
AcDbEntity
  8
ROADS
100
AcDbPolyline
 90
2
 70
0
 10
628511.6966464788
 20
4840048.688283002
 10
628410.2617063036
 20
4840016.864087075
  0
LWPOLYLINE
  5
117
330
17
100
AcDbEntity
  8
ROADS
100
AcDbPolyline
 90
2
 70
0
 10
628511.6966464788
 20
4840048.688283002
 10
628482.3377891572
 20
4840148.398716264
  0
LWPOLYLINE
  5
118
330
17
100
AcDbEntity
  8
ROADS
100
AcDbPolyline
 90
2
 70
0
 10
628584.5692416902
 20
4840179.645330613
 10
628482.3377891572
 20
4840148.398716264
  0
LWPOLYLINE
  5
119
330
17
100
AcDbEntity
  8
ROADS
100
AcDbPolyline
 90
2
 70
0
 10
628410.2617063036
 20
4840016.864087075
 10
628320.0652895015
 20
4840321.394253995
  0
LWPOLYLINE
  5
11A
330
17
100
AcDbEntity
  8
ROADS
100
AcDbPolyline
 90
2
 70
0
 10
628482.3377891572
 20
4840148.398716264
 10
628421.162236322
 20
4840352.716386068
  0
LWPOLYLINE
  5
11B
330
17
100
AcDbEntity
  8
ROADS
100
AcDbPolyline
 90
2
 70
0
 10
628584.5692416902
 20
4840179.645330613
 10
628521.2285212999
 20
4840384.901946388
  0
LWPOLYLINE
  5
11C
330
17
100
AcDbEntity
  8
ROADS
100
AcDbPolyline
 90
2
 70
0
 10
628388.2161008045
 20
4840342.544645071
 10
628320.0652895015
 20
4840321.394253995
  0
LWPOLYLINE
  5
11D
330
17
100
AcDbEntity
  8
ROADS
100
AcDbPolyline
 90
2
 70
0
 10
628421.162236322
 20
4840352.716386068
 10
628388.2161008045
 20
4840342.544645071
  0
LWPOLYLINE
  5
11E
330
17
100
AcDbEntity
  8
ROADS
100
AcDbPolyline
 90
2
 70
0
 10
628432.526070953
 20
4840356.912260631
 10
628421.162236322
 20
4840352.716386068
  0
LWPOLYLINE
  5
11F
330
17
100
AcDbEntity
  8
ROADS
100
AcDbPolyline
 90
2
 70
0
 10
628521.2285212999
 20
4840384.901946388
 10
628432.526070953
 20
4840356.912260631
  0
LWPOLYLINE
  5
120
330
17
100
AcDbEntity
  8
ROADS
100
AcDbPolyline
 90
2
 70
0
 10
628320.0652895015
 20
4840321.394253995
 10
628252.6348453589
 20
4840301.878704071
  0
LWPOLYLINE
  5
121
330
17
100
AcDbEntity
  8
ROADS
100
AcDbPolyline
 90
2
 70
0
 10
628370.5817132186
 20
4840436.850788843
 10
628265.9381415119
 20
4840404.247239527
  0
LWPOLYLINE
  5
122
330
17
100
AcDbEntity
  8
ROADS
100
AcDbPolyline
 90
2
 70
0
 10
628678.028356819
 20
4840207.67404103
 10
628613.0734332611
 20
4840413.431537418
  0
LWPOLYLINE
  5
123
330
17
100
AcDbEntity
  8
ROADS
100
AcDbPolyline
 90
2
 70
0
 10
628759.3545805154
 20
4840232.7790633645
 10
628691.4051515469
 20
4840440.541560377
  0
LWPOLYLINE
  5
124
330
17
100
AcDbEntity
  8
ROADS
100
AcDbPolyline
 90
2
 70
0
 10
628837.8270784338
 20
4840257.47244024
 10
628774.3427506163
 20
4840465.575789602
  0
LWPOLYLINE
  5
125
330
17
100
AcDbEntity
  8
ROADS
100
AcDbPolyline
 90
2
 70
0
 10
628613.0734332611
 20
4840413.431537418
 10
628565.1905385428
 20
4840398.382218861
  0
LWPOLYLINE
  5
126
330
17
100
AcDbEntity
  8
ROADS
100
AcDbPolyline
 90
2
 70
0
 10
628691.4051515469
 20
4840440.541560377
 10
628613.0734332611
 20
4840413.431537418
  0
LWPOLYLINE
  5
127
330
17
100
AcDbEntity
  8
ROADS
100
AcDbPolyline
 90
2
 70
0
 10
628774.3427506163
 20
4840465.575789602
 10
628691.4051515469
 20
4840440.541560377
  0
LWPOLYLINE
  5
128
330
17
100
AcDbEntity
  8
ROADS
100
AcDbPolyline
 90
2
 70
0
 10
628796.4613268974
 20
4840472.0924095055
 10
628774.3427506163
 20
4840465.575789602
  0
LWPOLYLINE
  5
129
330
17
100
AcDbEntity
  8
ROADS
100
AcDbPolyline
 90
2
 70
0
 10
628613.0734332611
 20
4840413.431537418
 10
628592.5614384034
 20
4840581.489567712
  0
LWPOLYLINE
  5
12A
330
17
100
AcDbEntity
  8
ROADS
100
AcDbPolyline
 90
2
 70
0
 10
628691.4051515469
 20
4840440.541560377
 10
628641.4770847048
 20
4840596.224578378
  0
LWPOLYLINE
  5
12B
330
17
100
AcDbEntity
  8
ROADS
100
AcDbPolyline
 90
2
 70
0
 10
628796.4613268974
 20
4840472.0924095055
 10
628762.7017450907
 20
4840585.912213337
  0
LWPOLYLINE
  5
12C
330
17
100
AcDbEntity
  8
ROADS
100
AcDbPolyline
 90
2
 70
0
 10
628388.2161008045
 20
4840342.544645071
 10
628370.5817132186
 20
4840436.850788843
  0
LWPOLYLINE
  5
12D
330
17
100
AcDbEntity
  8
ROADS
100
AcDbPolyline
 90
2
 70
0
 10
628565.1905385428
 20
4840398.382218861
 10
628521.2285212999
 20
4840384.901946388
  0
LWPOLYLINE
  5
12E
330
17
100
AcDbEntity
  8
ROADS
100
AcDbPolyline
 90
4
 70
0
 10
628432.526070953
 20
4840356.912260631
 10
628428.2387677905
 20
4840402.73370897
 10
628444.3692948901
 20
4840433.162554557
 10
628519.9517686653
 20
4840458.8367331615
  0
LWPOLYLINE
  5
12F
330
17
100
AcDbEntity
  8
ROADS
100
AcDbPolyline
 90
2
 70
0
 10
628565.1905385428
 20
4840398.382218861
 10
628519.9517686653
 20
4840458.8367331615
  0
LWPOLYLINE
  5
130
330
17
100
AcDbEntity
  8
ROADS
100
AcDbPolyline
 90
2
 70
0
 10
628519.9517686653
 20
4840458.8367331615
 10
628510.512352459
 20
4840484.194624333
  0
LWPOLYLINE
  5
131
330
17
100
AcDbEntity
  8
ROADS
100
AcDbPolyline
 90
2
 70
0
 10
628370.5817132186
 20
4840436.850788843
 10
628347.6993517224
 20
4840526.768684407
  0
LWPOLYLINE
  5
132
330
17
100
AcDbEntity
  8
ROADS
100
AcDbPolyline
 90
3
 70
0
 10
628510.512352459
 20
4840484.194624333
 10
628583.2315212877
 20
4840502.469523641
 10
628579.7064455946
 20
4840520.257924102
  0
LWPOLYLINE
  5
133
330
17
100
AcDbEntity
  8
ROADS
100
AcDbPolyline
 90
2
 70
0
 10
628510.512352459
 20
4840484.194624333
 10
628509.2440201789
 20
4840533.343923654
  0
LWPOLYLINE
  5
134
330
17
100
AcDbEntity
  8
ROADS
100
AcDbPolyline
 90
2
 70
0
 10
628509.2440201789
 20
4840533.343923654
 10
628518.3486099122
 20
4840500.01644925
  0
LWPOLYLINE
  5
135
330
17
100
AcDbEntity
  8
ROADS
100
AcDbPolyline
 90
2
 70
0
 10
628509.2440201789
 20
4840533.343923654
 10
628580.8980818882
 20
4840546.204203803
  0
LWPOLYLINE
  5
136
330
17
100
AcDbEntity
  8
ROADS
100
AcDbPolyline
 90
2
 70
0
 10
628347.6993517224
 20
4840526.768684407
 10
628340.2438487877
 20
4840564.878291545
  0
LWPOLYLINE
  5
137
330
17
100
AcDbEntity
  8
ROADS
100
AcDbPolyline
 90
2
 70
0
 10
628509.2440201789
 20
4840533.343923654
 10
628496.7120134506
 20
4840585.69464022
  0
LWPOLYLINE
  5
138
330
17
100
AcDbEntity
  8
ROADS
100
AcDbPolyline
 90
2
 70
0
 10
628340.2438487877
 20
4840564.878291545
 10
628415.1106312935
 20
4840598.020034601
  0
LWPOLYLINE
  5
139
330
17
100
AcDbEntity
  8
ROADS
100
AcDbPolyline
 90
2
 70
0
 10
628340.2438487877
 20
4840564.878291545
 10
628332.5947082315
 20
4840601.15980176
  0
LWPOLYLINE
  5
13A
330
17
100
AcDbEntity
  8
ROADS
100
AcDbPolyline
 90
2
 70
0
 10
628496.7120134506
 20
4840585.69464022
 10
628574.9997393745
 20
4840601.803169681
  0
LWPOLYLINE
  5
13B
330
17
100
AcDbEntity
  8
ROADS
100
AcDbPolyline
 90
2
 70
0
 10
628496.7120134506
 20
4840585.69464022
 10
628498.9093093309
 20
4840647.422472285
  0
LWPOLYLINE
  5
13C
330
17
100
AcDbEntity
  8
ROADS
100
AcDbPolyline
 90
2
 70
0
 10
628498.9093093309
 20
4840647.422472285
 10
628536.5636601301
 20
4840655.370452908
  0
LWPOLYLINE
  5
13D
330
17
100
AcDbEntity
  8
ROADS
100
AcDbPolyline
 90
2
 70
0
 10
628498.9093093309
 20
4840647.422472285
 10
628493.2208968453
 20
4840666.160787763
  0
LWPOLYLINE
  5
13E
330
17
100
AcDbEntity
  8
ROADS
100
AcDbPolyline
 90
2
 70
0
 10
628536.5636601301
 20
4840655.370452908
 10
628569.804564776
 20
4840664.248309893
  0
LWPOLYLINE
  5
13F
330
17
100
AcDbEntity
  8
ROADS
100
AcDbPolyline
 90
2
 70
0
 10
628536.5636601301
 20
4840655.370452908
 10
628507.0507240297
 20
4840678.545832754
  0
LWPOLYLINE
  5
140
330
17
100
AcDbEntity
  8
ROADS
100
AcDbPolyline
 90
2
 70
0
 10
628347.6993517224
 20
4840526.768684407
 10
628294.2683556974
 20
4840510.143892552
  0
LWPOLYLINE
  5
141
330
17
100
AcDbEntity
  8
ROADS
100
AcDbPolyline
 90
2
 70
0
 10
628641.4770847048
 20
4840596.224578378
 10
628592.5614384034
 20
4840581.489567712
  0
LWPOLYLINE
  5
142
330
17
100
AcDbEntity
  8
ROADS
100
AcDbPolyline
 90
2
 70
0
 10
628592.5614384034
 20
4840581.489567712
 10
628569.804564776
 20
4840664.248309893
  0
LWPOLYLINE
  5
143
330
17
100
AcDbEntity
  8
ROADS
100
AcDbPolyline
 90
2
 70
0
 10
628839.7221072016
 20
4840657.806564553
 10
628641.4770847048
 20
4840596.224578378
  0
LWPOLYLINE
  5
144
330
17
100
AcDbEntity
  8
ROADS
100
AcDbPolyline
 90
2
 70
0
 10
628641.4770847048
 20
4840596.224578378
 10
628612.3027958015
 20
4840690.201964143
  0
LWPOLYLINE
  5
145
330
17
100
AcDbEntity
  8
ROADS
100
AcDbPolyline
 90
2
 70
0
 10
628569.804564776
 20
4840664.248309893
 10
628555.3524565332
 20
4840698.376083672
  0
LWPOLYLINE
  5
146
330
17
100
AcDbEntity
  8
ROADS
100
AcDbPolyline
 90
2
 70
0
 10
628612.3027958015
 20
4840690.201964143
 10
628599.0729686364
 20
4840745.9652917655
  0
LWPOLYLINE
  5
147
330
17
100
AcDbEntity
  8
ROADS
100
AcDbPolyline
 90
2
 70
0
 10
628825.1967536374
 20
4840757.090407191
 10
628612.3027958015
 20
4840690.201964143
  0
LWPOLYLINE
  5
148
330
17
100
AcDbEntity
  8
ROADS
100
AcDbPolyline
 90
2
 70
0
 10
628822.2673144235
 20
4840813.864207552
 10
628599.0729686364
 20
4840745.9652917655
  0
LWPOLYLINE
  5
149
330
17
100
AcDbEntity
  8
ROADS
100
AcDbPolyline
 90
2
 70
0
 10
628825.1967536374
 20
4840757.090407191
 10
628822.2673144235
 20
4840813.864207552
  0
LWPOLYLINE
  5
14A
330
17
100
AcDbEntity
  8
ROADS
100
AcDbPolyline
 90
2
 70
0
 10
628599.0729686364
 20
4840745.9652917655
 10
628558.4841334694
 20
4840882.6384356525
  0
LWPOLYLINE
  5
14B
330
17
100
AcDbEntity
  8
ROADS
100
AcDbPolyline
 90
2
 70
0
 10
629012.8399141871
 20
4840711.077423164
 10
628839.7221072016
 20
4840657.806564553
  0
LWPOLYLINE
  5
14C
330
17
100
AcDbEntity
  8
ROADS
100
AcDbPolyline
 90
2
 70
0
 10
629017.3949572416
 20
4840686.248661285
 10
629012.8399141871
 20
4840711.077423164
  0
LWPOLYLINE
  5
14D
330
17
100
AcDbEntity
  8
ROADS
100
AcDbPolyline
 90
2
 70
0
 10
628839.7221072016
 20
4840657.806564553
 10
628825.1967536374
 20
4840757.090407191
  0
LWPOLYLINE
  5
14E
330
17
100
AcDbEntity
  8
ROADS
100
AcDbPolyline
 90
2
 70
0
 10
629012.8399141871
 20
4840711.077423164
 10
628995.5832445449
 20
4840808.294755926
  0
LWPOLYLINE
  5
14F
330
17
100
AcDbEntity
  8
ROADS
100
AcDbPolyline
 90
2
 70
0
 10
628995.5832445449
 20
4840808.294755926
 10
628825.1967536374
 20
4840757.090407191
  0
LWPOLYLINE
  5
150
330
17
100
AcDbEntity
  8
ROADS
100
AcDbPolyline
 90
2
 70
0
 10
628995.5832445449
 20
4840808.294755926
 10
628986.1766697764
 20
4840863.697295977
  0
LWPOLYLINE
  5
151
330
17
100
AcDbEntity
  8
ROADS
100
AcDbPolyline
 90
2
 70
0
 10
628986.1766697764
 20
4840863.697295977
 10
628822.2673144235
 20
4840813.864207552
  0
LWPOLYLINE
  5
152
330
17
100
AcDbEntity
  8
ROADS
100
AcDbPolyline
 90
2
 70
0
 10
628986.1766697764
 20
4840863.697295977
 10
628961.1999540906
 20
4841012.532407031
  0
LWPOLYLINE
  5
153
330
17
100
AcDbEntity
  8
ROADS
100
AcDbPolyline
 90
2
 70
0
 10
628961.1999540906
 20
4841012.532407031
 10
628814.8900602448
 20
4840966.719965607
  0
LWPOLYLINE
  5
154
330
17
100
AcDbEntity
  8
ROADS
100
AcDbPolyline
 90
2
 70
0
 10
628961.1999540906
 20
4841012.532407031
 10
628958.3853645585
 20
4841030.460687862
  0
LWPOLYLINE
  5
155
330
17
100
AcDbEntity
  8
ROADS
100
AcDbPolyline
 90
2
 70
0
 10
628493.2208968453
 20
4840666.160787763
 10
628507.0507240297
 20
4840678.545832754
  0
LWPOLYLINE
  5
156
330
17
100
AcDbEntity
  8
ROADS
100
AcDbPolyline
 90
2
 70
0
 10
628493.2208968453
 20
4840666.160787763
 10
628481.600124955
 20
4840686.6658830885
  0
LWPOLYLINE
  5
157
330
17
100
AcDbEntity
  8
ROADS
100
AcDbPolyline
 90
2
 70
0
 10
628507.0507240297
 20
4840678.545832754
 10
628555.3524565332
 20
4840698.376083672
  0
LWPOLYLINE
  5
158
330
17
100
AcDbEntity
  8
ROADS
100
AcDbPolyline
 90
2
 70
0
 10
628555.3524565332
 20
4840698.376083672
 10
628519.4234264884
 20
4840846.7428744435
  0
LWPOLYLINE
  5
159
330
17
100
AcDbEntity
  8
ROADS
100
AcDbPolyline
 90
2
 70
0
 10
628822.2673144235
 20
4840813.864207552
 10
628814.8900602448
 20
4840966.719965607
  0
LWPOLYLINE
  5
15A
330
17
100
AcDbEntity
  8
ROADS
100
AcDbPolyline
 90
2
 70
0
 10
628814.8900602448
 20
4840966.719965607
 10
628564.1671957081
 20
4840887.798687265
  0
LWPOLYLINE
  5
15B
330
17
100
AcDbEntity
  8
ROADS
100
AcDbPolyline
 90
2
 70
0
 10
628814.8900602448
 20
4840966.719965607
 10
628806.6878142961
 20
4841032.076886605
  0
LWPOLYLINE
  5
15C
330
17
100
AcDbEntity
  8
ROADS
100
AcDbPolyline
 90
2
 70
0
 10
628958.3853645585
 20
4841030.460687862
 10
628949.3714617087
 20
4841077.10712908
  0
LWPOLYLINE
  5
15D
330
17
100
AcDbEntity
  8
ROADS
100
AcDbPolyline
 90
2
 70
0
 10
628904.3002557101
 20
4841064.422517709
 10
628906.8055344255
 20
4841049.878691593
  0
LWPOLYLINE
  5
15E
330
17
100
AcDbEntity
  8
ROADS
100
AcDbPolyline
 90
2
 70
0
 10
629831.3208004684
 20
4839555.537631349
 10
630017.8457064093
 20
4839614.088975569
  0
LWPOLYLINE
  5
15F
330
17
100
AcDbEntity
  8
ROADS
100
AcDbPolyline
 90
2
 70
0
 10
630028.4584121418
 20
4839577.662390766
 10
630017.8457064093
 20
4839614.088975569
  0
LWPOLYLINE
  5
160
330
17
100
AcDbEntity
  8
ROADS
100
AcDbPolyline
 90
3
 70
0
 10
629778.9371201834
 20
4839592.5205968125
 10
629739.599864805
 20
4839606.423954024
 10
629690.2308053348
 20
4839657.425411047
  0
LWPOLYLINE
  5
161
330
17
100
AcDbEntity
  8
ROADS
100
AcDbPolyline
 90
2
 70
0
 10
630017.8457064093
 20
4839614.088975569
 10
629995.2125822187
 20
4839741.258498675
  0
LWPOLYLINE
  5
162
330
17
100
AcDbEntity
  8
ROADS
100
AcDbPolyline
 90
2
 70
0
 10
629690.2308053348
 20
4839657.425411047
 10
629995.2125822187
 20
4839741.258498675
  0
LWPOLYLINE
  5
163
330
17
100
AcDbEntity
  8
ROADS
100
AcDbPolyline
 90
2
 70
0
 10
629995.2125822187
 20
4839741.258498675
 10
630027.8987131589
 20
4839750.499457154
  0
LWPOLYLINE
  5
164
330
17
100
AcDbEntity
  8
ROADS
100
AcDbPolyline
 90
2
 70
0
 10
630027.8987131589
 20
4839750.499457154
 10
630069.0499783418
 20
4839763.469819412
  0
LWPOLYLINE
  5
165
330
17
100
AcDbEntity
  8
ROADS
100
AcDbPolyline
 90
2
 70
0
 10
629659.9182453085
 20
4839755.126835224
 10
629759.2780243226
 20
4839785.42641653
  0
LWPOLYLINE
  5
166
330
17
100
AcDbEntity
  8
ROADS
100
AcDbPolyline
 90
2
 70
0
 10
629995.2125822187
 20
4839741.258498675
 10
629972.9523036631
 20
4839852.294615
  0
LWPOLYLINE
  5
167
330
17
100
AcDbEntity
  8
ROADS
100
AcDbPolyline
 90
2
 70
0
 10
629759.2780243226
 20
4839785.42641653
 10
629852.1835362604
 20
4839814.5011674855
  0
LWPOLYLINE
  5
168
330
17
100
AcDbEntity
  8
ROADS
100
AcDbPolyline
 90
2
 70
0
 10
629759.2780243226
 20
4839785.42641653
 10
629747.882748191
 20
4839823.317910723
  0
LWPOLYLINE
  5
169
330
17
100
AcDbEntity
  8
ROADS
100
AcDbPolyline
 90
2
 70
0
 10
630027.8987131589
 20
4839750.499457154
 10
629993.6811812727
 20
4839858.573058756
  0
LWPOLYLINE
  5
16A
330
17
100
AcDbEntity
  8
ROADS
100
AcDbPolyline
 90
2
 70
0
 10
629747.882748191
 20
4839823.317910723
 10
629761.1517455898
 20
4839827.570252793
  0
LWPOLYLINE
  5
16B
330
17
100
AcDbEntity
  8
ROADS
100
AcDbPolyline
 90
2
 70
0
 10
629852.1835362604
 20
4839814.5011674855
 10
629972.9523036631
 20
4839852.294615
  0
LWPOLYLINE
  5
16C
330
17
100
AcDbEntity
  8
ROADS
100
AcDbPolyline
 90
3
 70
0
 10
629852.1835362604
 20
4839814.5011674855
 10
629859.791400897
 20
4839856.382732452
 10
629875.873589958
 20
4839863.344159977
  0
LWPOLYLINE
  5
16D
330
17
100
AcDbEntity
  8
ROADS
100
AcDbPolyline
 90
2
 70
0
 10
629972.9523036631
 20
4839852.294615
 10
629993.6811812727
 20
4839858.573058756
  0
LWPOLYLINE
  5
16E
330
17
100
AcDbEntity
  8
ROADS
100
AcDbPolyline
 90
2
 70
0
 10
629747.882748191
 20
4839823.317910723
 10
629726.824491695
 20
4839893.341829306
  0
LWPOLYLINE
  5
16F
330
17
100
AcDbEntity
  8
ROADS
100
AcDbPolyline
 90
3
 70
0
 10
629761.1517455898
 20
4839827.570252793
 10
629781.9448261333
 20
4839835.218948421
 10
629788.8961187097
 20
4839897.056520862
  0
LWPOLYLINE
  5
170
330
17
100
AcDbEntity
  8
ROADS
100
AcDbPolyline
 90
3
 70
0
 10
629761.1517455898
 20
4839827.570252793
 10
629747.1939518901
 20
4839882.339564373
 10
629788.8961187097
 20
4839897.056520862
  0
LWPOLYLINE
  5
171
330
17
100
AcDbEntity
  8
ROADS
100
AcDbPolyline
 90
2
 70
0
 10
629788.8961187097
 20
4839897.056520862
 10
629771.0715280911
 20
4839899.590734507
  0
LWPOLYLINE
  5
172
330
17
100
AcDbEntity
  8
ROADS
100
AcDbPolyline
 90
3
 70
0
 10
629726.824491695
 20
4839893.341829306
 10
629742.7892724492
 20
4839905.631503305
 10
629734.862214017
 20
4839939.488454397
  0
LWPOLYLINE
  5
173
330
17
100
AcDbEntity
  8
ROADS
100
AcDbPolyline
 90
2
 70
0
 10
629972.9523036631
 20
4839852.294615
 10
629928.0362631609
 20
4839999.488389633
  0
LWPOLYLINE
  5
174
330
17
100
AcDbEntity
  8
ROADS
100
AcDbPolyline
 90
2
 70
0
 10
629788.8961187097
 20
4839897.056520862
 10
629803.1035167861
 20
4839960.684492153
  0
LWPOLYLINE
  5
175
330
17
100
AcDbEntity
  8
ROADS
100
AcDbPolyline
 90
2
 70
0
 10
629829.9336400825
 20
4839969.017461766
 10
629842.3170490576
 20
4839924.490374798
  0
LWPOLYLINE
  5
176
330
17
100
AcDbEntity
  8
ROADS
100
AcDbPolyline
 90
2
 70
0
 10
629734.862214017
 20
4839939.488454397
 10
629803.1035167861
 20
4839960.684492153
  0
LWPOLYLINE
  5
177
330
17
100
AcDbEntity
  8
ROADS
100
AcDbPolyline
 90
2
 70
0
 10
629803.1035167861
 20
4839960.684492153
 10
629829.9336400825
 20
4839969.017461766
  0
LWPOLYLINE
  5
178
330
17
100
AcDbEntity
  8
ROADS
100
AcDbPolyline
 90
2
 70
0
 10
629734.862214017
 20
4839939.488454397
 10
629715.2856298805
 20
4840000.635550657
  0
LWPOLYLINE
  5
179
330
17
100
AcDbEntity
  8
ROADS
100
AcDbPolyline
 90
2
 70
0
 10
629829.9336400825
 20
4839969.017461766
 10
629928.0362631609
 20
4839999.488389633
  0
LWPOLYLINE
  5
17A
330
17
100
AcDbEntity
  8
ROADS
100
AcDbPolyline
 90
2
 70
0
 10
629715.2856298805
 20
4840000.635550657
 10
629706.3239590172
 20
4840032.974173695
  0
LWPOLYLINE
  5
17B
330
17
100
AcDbEntity
  8
ROADS
100
AcDbPolyline
 90
2
 70
0
 10
629928.0362631609
 20
4839999.488389633
 10
630004.4930552711
 20
4840022.9424887365
  0
LWPOLYLINE
  5
17C
330
17
100
AcDbEntity
  8
ROADS
100
AcDbPolyline
 90
2
 70
0
 10
629706.3239590172
 20
4840032.974173695
 10
629780.7088720556
 20
4840055.651978697
  0
LWPOLYLINE
  5
17D
330
17
100
AcDbEntity
  8
ROADS
100
AcDbPolyline
 90
2
 70
0
 10
629928.0362631609
 20
4839999.488389633
 10
629899.1372906198
 20
4840090.467956294
  0
LWPOLYLINE
  5
17E
330
17
100
AcDbEntity
  8
ROADS
100
AcDbPolyline
 90
2
 70
0
 10
629780.7088720556
 20
4840055.651978697
 10
629899.1372906198
 20
4840090.467956294
  0
LWPOLYLINE
  5
17F
330
17
100
AcDbEntity
  8
ROADS
100
AcDbPolyline
 90
2
 70
0
 10
629780.7088720556
 20
4840055.651978697
 10
629740.93361612
 20
4840096.250218802
  0
LWPOLYLINE
  5
180
330
17
100
AcDbEntity
  8
ROADS
100
AcDbPolyline
 90
2
 70
0
 10
629899.1372906198
 20
4840090.467956294
 10
629982.6631623481
 20
4840115.935714012
  0
LWPOLYLINE
  5
181
330
17
100
AcDbEntity
  8
ROADS
100
AcDbPolyline
 90
2
 70
0
 10
629740.93361612
 20
4840096.250218802
 10
629761.0340826171
 20
4840150.968184084
  0
LWPOLYLINE
  5
182
330
17
100
AcDbEntity
  8
ROADS
100
AcDbPolyline
 90
2
 70
0
 10
629899.1372906198
 20
4840090.467956294
 10
629871.1450627059
 20
4840181.46391345
  0
LWPOLYLINE
  5
183
330
17
100
AcDbEntity
  8
ROADS
100
AcDbPolyline
 90
2
 70
0
 10
629979.603278455
 20
4840158.71516642
 10
629973.7791371554
 20
4840178.265519097
  0
LWPOLYLINE
  5
184
330
17
100
AcDbEntity
  8
ROADS
100
AcDbPolyline
 90
2
 70
0
 10
629761.0340826171
 20
4840150.968184084
 10
629871.1450627059
 20
4840181.46391345
  0
LWPOLYLINE
  5
185
330
17
100
AcDbEntity
  8
ROADS
100
AcDbPolyline
 90
2
 70
0
 10
629002.0458334599
 20
4839506.301123318
 10
629010.344182634
 20
4839521.827953566
  0
LWPOLYLINE
  5
186
330
17
100
AcDbEntity
  8
ROADS
100
AcDbPolyline
 90
2
 70
0
 10
628992.7387981463
 20
4839528.048561223
 10
629010.344182634
 20
4839521.827953566
  0
LWPOLYLINE
  5
187
330
17
100
AcDbEntity
  8
ROADS
100
AcDbPolyline
 90
2
 70
0
 10
628992.7387981463
 20
4839528.048561223
 10
628977.7885545255
 20
4839589.182067597
  0
LWPOLYLINE
  5
188
330
17
100
AcDbEntity
  8
ROADS
100
AcDbPolyline
 90
3
 70
0
 10
629086.0046700509
 20
4839575.594281201
 10
629035.8905006496
 20
4839570.496371422
 10
628977.7885545255
 20
4839589.182067597
  0
LWPOLYLINE
  5
189
330
17
100
AcDbEntity
  8
ROADS
100
AcDbPolyline
 90
2
 70
0
 10
628977.7885545255
 20
4839589.182067597
 10
628870.5726030103
 20
4839583.197624628
  0
LWPOLYLINE
  5
18A
330
17
100
AcDbEntity
  8
ROADS
100
AcDbPolyline
 90
2
 70
0
 10
628870.5726030103
 20
4839583.197624628
 10
628842.6035685983
 20
4839678.562054275
  0
LWPOLYLINE
  5
18B
330
17
100
AcDbEntity
  8
ROADS
100
AcDbPolyline
 90
2
 70
0
 10
628977.7885545255
 20
4839589.182067597
 10
628939.7062487288
 20
4839707.850643351
  0
LWPOLYLINE
  5
18C
330
17
100
AcDbEntity
  8
ROADS
100
AcDbPolyline
 90
2
 70
0
 10
629086.0046700509
 20
4839575.594281201
 10
629037.1938003546
 20
4839737.757253204
  0
LWPOLYLINE
  5
18D
330
17
100
AcDbEntity
  8
ROADS
100
AcDbPolyline
 90
2
 70
0
 10
628939.7062487288
 20
4839707.850643351
 10
628842.6035685983
 20
4839678.562054275
  0
LWPOLYLINE
  5
18E
330
17
100
AcDbEntity
  8
ROADS
100
AcDbPolyline
 90
2
 70
0
 10
629037.1938003546
 20
4839737.757253204
 10
628939.7062487288
 20
4839707.850643351
  0
LWPOLYLINE
  5
18F
330
17
100
AcDbEntity
  8
ROADS
100
AcDbPolyline
 90
2
 70
0
 10
629182.0658514948
 20
4839726.523293735
 10
629173.453109659
 20
4839778.327008078
  0
LWPOLYLINE
  5
190
330
17
100
AcDbEntity
  8
ROADS
100
AcDbPolyline
 90
2
 70
0
 10
629173.453109659
 20
4839778.327008078
 10
629132.7341030373
 20
4839767.45063866
  0
LWPOLYLINE
  5
191
330
17
100
AcDbEntity
  8
ROADS
100
AcDbPolyline
 90
2
 70
0
 10
629132.7341030373
 20
4839767.45063866
 10
629121.7301150532
 20
4839802.95197896
  0
LWPOLYLINE
  5
192
330
17
100
AcDbEntity
  8
ROADS
100
AcDbPolyline
 90
2
 70
0
 10
629173.453109659
 20
4839778.327008078
 10
629164.5071574381
 20
4839833.788940544
  0
LWPOLYLINE
  5
193
330
17
100
AcDbEntity
  8
ROADS
100
AcDbPolyline
 90
2
 70
0
 10
629164.5071574381
 20
4839833.788940544
 10
629154.7443533401
 20
4839897.751670228
  0
LWPOLYLINE
  5
194
330
17
100
AcDbEntity
  8
ROADS
100
AcDbPolyline
 90
2
 70
0
 10
629164.5071574381
 20
4839833.788940544
 10
629408.1066770402
 20
4839907.534906445
  0
LWPOLYLINE
  5
195
330
17
100
AcDbEntity
  8
ROADS
100
AcDbPolyline
 90
2
 70
0
 10
629154.7443533401
 20
4839897.751670228
 10
629091.3383622584
 20
4839878.498290741
  0
LWPOLYLINE
  5
196
330
17
100
AcDbEntity
  8
ROADS
100
AcDbPolyline
 90
2
 70
0
 10
629154.7443533401
 20
4839897.751670228
 10
629149.0730609006
 20
4839926.87704979
  0
LWPOLYLINE
  5
197
330
17
100
AcDbEntity
  8
ROADS
100
AcDbPolyline
 90
2
 70
0
 10
629408.1066770402
 20
4839907.534906445
 10
629294.5339167179
 20
4839971.045607059
  0
LWPOLYLINE
  5
198
330
17
100
AcDbEntity
  8
ROADS
100
AcDbPolyline
 90
2
 70
0
 10
629149.0730609006
 20
4839926.87704979
 10
629294.5339167179
 20
4839971.045607059
  0
LWPOLYLINE
  5
199
330
17
100
AcDbEntity
  8
ROADS
100
AcDbPolyline
 90
2
 70
0
 10
629132.7341030373
 20
4839767.45063866
 10
629037.1938003546
 20
4839737.757253204
  0
LWPOLYLINE
  5
19A
330
17
100
AcDbEntity
  8
ROADS
100
AcDbPolyline
 90
2
 70
0
 10
628939.7062487288
 20
4839707.850643351
 10
628887.6181068636
 20
4839878.968838963
  0
LWPOLYLINE
  5
19B
330
17
100
AcDbEntity
  8
ROADS
100
AcDbPolyline
 90
2
 70
0
 10
629037.1938003546
 20
4839737.757253204
 10
629002.5252496314
 20
4839851.031727672
  0
LWPOLYLINE
  5
19C
330
17
100
AcDbEntity
  8
ROADS
100
AcDbPolyline
 90
2
 70
0
 10
629041.0053619638
 20
4839862.445636157
 10
629002.5252496314
 20
4839851.031727672
  0
LWPOLYLINE
  5
19D
330
17
100
AcDbEntity
  8
ROADS
100
AcDbPolyline
 90
2
 70
0
 10
628887.6181068636
 20
4839878.968838963
 10
628790.4842855529
 20
4839849.302615877
  0
LWPOLYLINE
  5
19E
330
17
100
AcDbEntity
  8
ROADS
100
AcDbPolyline
 90
2
 70
0
 10
629002.5252496314
 20
4839851.031727672
 10
628985.2353674868
 20
4839908.171793395
  0
LWPOLYLINE
  5
19F
330
17
100
AcDbEntity
  8
ROADS
100
AcDbPolyline
 90
2
 70
0
 10
628985.2353674868
 20
4839908.171793395
 10
628887.6181068636
 20
4839878.968838963
  0
LWPOLYLINE
  5
1A0
330
17
100
AcDbEntity
  8
ROADS
100
AcDbPolyline
 90
2
 70
0
 10
628985.2353674868
 20
4839908.171793395
 10
628972.9098334799
 20
4839949.059568603
  0
LWPOLYLINE
  5
1A1
330
17
100
AcDbEntity
  8
ROADS
100
AcDbPolyline
 90
2
 70
0
 10
629091.7138685598
 20
4839987.1994501855
 10
628972.9098334799
 20
4839949.059568603
  0
LWPOLYLINE
  5
1A2
330
17
100
AcDbEntity
  8
ROADS
100
AcDbPolyline
 90
2
 70
0
 10
628887.6181068636
 20
4839878.968838963
 10
628826.2719138542
 20
4840082.552666216
  0
LWPOLYLINE
  5
1A3
330
17
100
AcDbEntity
  8
ROADS
100
AcDbPolyline
 90
2
 70
0
 10
629149.0730609006
 20
4839926.87704979
 10
629136.3737937858
 20
4840000.471303904
  0
LWPOLYLINE
  5
1A4
330
17
100
AcDbEntity
  8
ROADS
100
AcDbPolyline
 90
2
 70
0
 10
629091.7138685598
 20
4839987.1994501855
 10
629097.7188162721
 20
4839948.034432216
  0
LWPOLYLINE
  5
1A5
330
17
100
AcDbEntity
  8
ROADS
100
AcDbPolyline
 90
2
 70
0
 10
629294.5339167179
 20
4839971.045607059
 10
629241.1369943604
 20
4840011.909381997
  0
LWPOLYLINE
  5
1A6
330
17
100
AcDbEntity
  8
ROADS
100
AcDbPolyline
 90
2
 70
0
 10
629136.3737937858
 20
4840000.471303904
 10
629091.7138685598
 20
4839987.1994501855
  0
LWPOLYLINE
  5
1A7
330
17
100
AcDbEntity
  8
ROADS
100
AcDbPolyline
 90
3
 70
0
 10
629091.7138685598
 20
4839987.1994501855
 10
629078.6671650396
 20
4840070.710075695
 10
629122.5674398912
 20
4840080.532462755
  0
LWPOLYLINE
  5
1A8
330
17
100
AcDbEntity
  8
ROADS
100
AcDbPolyline
 90
2
 70
0
 10
629241.1369943604
 20
4840011.909381997
 10
629387.5044586102
 20
4840058.702569679
  0
LWPOLYLINE
  5
1A9
330
17
100
AcDbEntity
  8
ROADS
100
AcDbPolyline
 90
2
 70
0
 10
629136.3737937858
 20
4840000.471303904
 10
629122.5674398912
 20
4840080.532462755
  0
LWPOLYLINE
  5
1AA
330
17
100
AcDbEntity
  8
ROADS
100
AcDbPolyline
 90
2
 70
0
 10
629241.1369943604
 20
4840011.909381997
 10
629167.9380456158
 20
4840091.171508342
  0
LWPOLYLINE
  5
1AB
330
17
100
AcDbEntity
  8
ROADS
100
AcDbPolyline
 90
2
 70
0
 10
629122.5674398912
 20
4840080.532462755
 10
629167.9380456158
 20
4840091.171508342
  0
LWPOLYLINE
  5
1AC
330
17
100
AcDbEntity
  8
ROADS
100
AcDbPolyline
 90
2
 70
0
 10
629387.5044586102
 20
4840058.702569679
 10
629353.8224300155
 20
4840148.093342012
  0
LWPOLYLINE
  5
1AD
330
17
100
AcDbEntity
  8
ROADS
100
AcDbPolyline
 90
2
 70
0
 10
629516.8899693923
 20
4839941.043214339
 10
629535.7032533715
 20
4839990.34997312
  0
LWPOLYLINE
  5
1AE
330
17
100
AcDbEntity
  8
ROADS
100
AcDbPolyline
 90
2
 70
0
 10
629516.8899693923
 20
4839941.043214339
 10
629715.2856298805
 20
4840000.635550657
  0
LWPOLYLINE
  5
1AF
330
17
100
AcDbEntity
  8
ROADS
100
AcDbPolyline
 90
3
 70
0
 10
629516.8899693923
 20
4839941.043214339
 10
629454.7120885096
 20
4839983.417267607
 10
629387.5044586102
 20
4840058.702569679
  0
LWPOLYLINE
  5
1B0
330
17
100
AcDbEntity
  8
ROADS
100
AcDbPolyline
 90
2
 70
0
 10
629535.7032533715
 20
4839990.34997312
 10
629551.1428068643
 20
4840032.719222527
  0
LWPOLYLINE
  5
1B1
330
17
100
AcDbEntity
  8
ROADS
100
AcDbPolyline
 90
2
 70
0
 10
629535.7032533715
 20
4839990.34997312
 10
629706.3239590172
 20
4840032.974173695
  0
LWPOLYLINE
  5
1B2
330
17
100
AcDbEntity
  8
ROADS
100
AcDbPolyline
 90
2
 70
0
 10
629551.1428068643
 20
4840032.719222527
 10
629585.3115882786
 20
4840124.783755955
  0
LWPOLYLINE
  5
1B3
330
17
100
AcDbEntity
  8
ROADS
100
AcDbPolyline
 90
3
 70
0
 10
629551.1428068643
 20
4840032.719222527
 10
629489.2766790275
 20
4840086.493689646
 10
629446.7758749949
 20
4840175.201892365
  0
LWPOLYLINE
  5
1B4
330
17
100
AcDbEntity
  8
ROADS
100
AcDbPolyline
 90
2
 70
0
 10
629740.93361612
 20
4840096.250218802
 10
629665.3831313581
 20
4840145.235799635
  0
LWPOLYLINE
  5
1B5
330
17
100
AcDbEntity
  8
ROADS
100
AcDbPolyline
 90
3
 70
0
 10
629585.3115882786
 20
4840124.783755955
 10
629627.7809402165
 20
4840111.053142201
 10
629665.3831313581
 20
4840145.235799635
  0
LWPOLYLINE
  5
1B6
330
17
100
AcDbEntity
  8
ROADS
100
AcDbPolyline
 90
2
 70
0
 10
629534.7493973991
 20
4840202.371365548
 10
629585.3115882786
 20
4840124.783755955
  0
LWPOLYLINE
  5
1B7
330
17
100
AcDbEntity
  8
ROADS
100
AcDbPolyline
 90
2
 70
0
 10
628972.9098334799
 20
4839949.059568603
 10
628948.1148221554
 20
4840030.996516966
  0
LWPOLYLINE
  5
1B8
330
17
100
AcDbEntity
  8
ROADS
100
AcDbPolyline
 90
2
 70
0
 10
629036.3554606523
 20
4840058.319757035
 10
628948.1148221554
 20
4840030.996516966
  0
LWPOLYLINE
  5
1B9
330
17
100
AcDbEntity
  8
ROADS
100
AcDbPolyline
 90
2
 70
0
 10
628948.1148221554
 20
4840030.996516966
 10
628923.690776714
 20
4840110.780020062
  0
LWPOLYLINE
  5
1BA
330
17
100
AcDbEntity
  8
ROADS
100
AcDbPolyline
 90
2
 70
0
 10
628923.690776714
 20
4840110.780020062
 10
628826.2719138542
 20
4840082.552666216
  0
LWPOLYLINE
  5
1BB
330
17
100
AcDbEntity
  8
ROADS
100
AcDbPolyline
 90
2
 70
0
 10
629067.4908148814
 20
4840153.488483407
 10
628923.690776714
 20
4840110.780020062
  0
LWPOLYLINE
  5
1BC
330
17
100
AcDbEntity
  8
ROADS
100
AcDbPolyline
 90
2
 70
0
 10
628923.690776714
 20
4840110.780020062
 10
628894.4921136189
 20
4840202.904959499
  0
LWPOLYLINE
  5
1BD
330
17
100
AcDbEntity
  8
ROADS
100
AcDbPolyline
 90
2
 70
0
 10
629067.4908148814
 20
4840153.488483407
 10
629051.9792724818
 20
4840249.857373367
  0
LWPOLYLINE
  5
1BE
330
17
100
AcDbEntity
  8
ROADS
100
AcDbPolyline
 90
2
 70
0
 10
629051.9792724818
 20
4840249.857373367
 10
628894.4921136189
 20
4840202.904959499
  0
LWPOLYLINE
  5
1BF
330
17
100
AcDbEntity
  8
ROADS
100
AcDbPolyline
 90
2
 70
0
 10
628894.4921136189
 20
4840202.904959499
 10
628875.9964241337
 20
4840265.2225217875
  0
LWPOLYLINE
  5
1C0
330
17
100
AcDbEntity
  8
ROADS
100
AcDbPolyline
 90
2
 70
0
 10
629091.2833599165
 20
4840261.6622631885
 10
629051.9792724818
 20
4840249.857373367
  0
LWPOLYLINE
  5
1C1
330
17
100
AcDbEntity
  8
ROADS
100
AcDbPolyline
 90
2
 70
0
 10
629167.9380456158
 20
4840091.171508342
 10
629353.8224300155
 20
4840148.093342012
  0
LWPOLYLINE
  5
1C2
330
17
100
AcDbEntity
  8
ROADS
100
AcDbPolyline
 90
2
 70
0
 10
629122.5674398912
 20
4840080.532462755
 10
629108.4160790076
 20
4840165.234688362
  0
LWPOLYLINE
  5
1C3
330
17
100
AcDbEntity
  8
ROADS
100
AcDbPolyline
 90
2
 70
0
 10
629353.8224300155
 20
4840148.093342012
 10
629396.0630033363
 20
4840160.741413881
  0
LWPOLYLINE
  5
1C4
330
17
100
AcDbEntity
  8
ROADS
100
AcDbPolyline
 90
2
 70
0
 10
629108.4160790076
 20
4840165.234688362
 10
629067.4908148814
 20
4840153.488483407
  0
LWPOLYLINE
  5
1C5
330
17
100
AcDbEntity
  8
ROADS
100
AcDbPolyline
 90
2
 70
0
 10
629108.4160790076
 20
4840165.234688362
 10
629106.2016495175
 20
4840179.068563672
  0
LWPOLYLINE
  5
1C6
330
17
100
AcDbEntity
  8
ROADS
100
AcDbPolyline
 90
2
 70
0
 10
629396.0630033363
 20
4840160.741413881
 10
629388.4307628628
 20
4840207.542546886
  0
LWPOLYLINE
  5
1C7
330
17
100
AcDbEntity
  8
ROADS
100
AcDbPolyline
 90
2
 70
0
 10
629106.2016495175
 20
4840179.068563672
 10
629091.2833599165
 20
4840261.6622631885
  0
LWPOLYLINE
  5
1C8
330
17
100
AcDbEntity
  8
ROADS
100
AcDbPolyline
 90
2
 70
0
 10
629106.2016495175
 20
4840179.068563672
 10
629588.766274992
 20
4840324.351078478
  0
LWPOLYLINE
  5
1C9
330
17
100
AcDbEntity
  8
ROADS
100
AcDbPolyline
 90
2
 70
0
 10
629091.2833599165
 20
4840261.6622631885
 10
629087.6659895566
 20
4840283.778316407
  0
LWPOLYLINE
  5
1CA
330
17
100
AcDbEntity
  8
ROADS
100
AcDbPolyline
 90
2
 70
0
 10
629087.6659895566
 20
4840283.778316407
 10
629171.8798200078
 20
4840309.639680695
  0
LWPOLYLINE
  5
1CB
330
17
100
AcDbEntity
  8
ROADS
100
AcDbPolyline
 90
2
 70
0
 10
629396.0630033363
 20
4840160.741413881
 10
629446.7758749949
 20
4840175.201892365
  0
LWPOLYLINE
  5
1CC
330
17
100
AcDbEntity
  8
ROADS
100
AcDbPolyline
 90
2
 70
0
 10
629446.7758749949
 20
4840175.201892365
 10
629534.7493973991
 20
4840202.371365548
  0
LWPOLYLINE
  5
1CD
330
17
100
AcDbEntity
  8
ROADS
100
AcDbPolyline
 90
2
 70
0
 10
629665.3831313581
 20
4840145.235799635
 10
629663.7807114244
 20
4840240.71044275
  0
LWPOLYLINE
  5
1CE
330
17
100
AcDbEntity
  8
ROADS
100
AcDbPolyline
 90
2
 70
0
 10
629534.7493973991
 20
4840202.371365548
 10
629620.1929037168
 20
4840229.920106078
  0
LWPOLYLINE
  5
1CF
330
17
100
AcDbEntity
  8
ROADS
100
AcDbPolyline
 90
2
 70
0
 10
629620.1929037168
 20
4840229.920106078
 10
629663.7807114244
 20
4840240.71044275
  0
LWPOLYLINE
  5
1D0
330
17
100
AcDbEntity
  8
ROADS
100
AcDbPolyline
 90
2
 70
0
 10
629663.7807114244
 20
4840240.71044275
 10
629749.3033202703
 20
4840267.260564575
  0
LWPOLYLINE
  5
1D1
330
17
100
AcDbEntity
  8
ROADS
100
AcDbPolyline
 90
2
 70
0
 10
629620.1929037168
 20
4840229.920106078
 10
629588.766274992
 20
4840324.351078478
  0
LWPOLYLINE
  5
1D2
330
17
100
AcDbEntity
  8
ROADS
100
AcDbPolyline
 90
2
 70
0
 10
629588.766274992
 20
4840324.351078478
 10
629807.389915437
 20
4840390.654095307
  0
LWPOLYLINE
  5
1D3
330
17
100
AcDbEntity
  8
ROADS
100
AcDbPolyline
 90
2
 70
0
 10
629588.766274992
 20
4840324.351078478
 10
629563.8314487431
 20
4840426.665031883
  0
LWPOLYLINE
  5
1D4
330
17
100
AcDbEntity
  8
ROADS
100
AcDbPolyline
 90
2
 70
0
 10
629378.231183812
 20
4840370.756219756
 10
629455.7709335882
 20
4840394.44472715
  0
LWPOLYLINE
  5
1D5
330
17
100
AcDbEntity
  8
ROADS
100
AcDbPolyline
 90
2
 70
0
 10
629171.8798200078
 20
4840309.639680695
 10
629244.0957375653
 20
4840330.09061919
  0
LWPOLYLINE
  5
1D6
330
17
100
AcDbEntity
  8
ROADS
100
AcDbPolyline
 90
2
 70
0
 10
629244.0957375653
 20
4840330.09061919
 10
629350.5340295242
 20
4840362.700560923
  0
LWPOLYLINE
  5
1D7
330
17
100
AcDbEntity
  8
ROADS
100
AcDbPolyline
 90
2
 70
0
 10
629350.5340295242
 20
4840362.700560923
 10
629378.231183812
 20
4840370.756219756
  0
LWPOLYLINE
  5
1D8
330
17
100
AcDbEntity
  8
ROADS
100
AcDbPolyline
 90
2
 70
0
 10
629378.231183812
 20
4840370.756219756
 10
629379.2616238904
 20
4840402.29602783
  0
LWPOLYLINE
  5
1D9
330
17
100
AcDbEntity
  8
ROADS
100
AcDbPolyline
 90
2
 70
0
 10
629244.0957375653
 20
4840330.09061919
 10
629183.8647069869
 20
4840530.058515946
  0
LWPOLYLINE
  5
1DA
330
17
100
AcDbEntity
  8
ROADS
100
AcDbPolyline
 90
2
 70
0
 10
629171.8798200078
 20
4840309.639680695
 10
629112.6136714342
 20
4840569.919087762
  0
LWPOLYLINE
  5
1DB
330
17
100
AcDbEntity
  8
ROADS
100
AcDbPolyline
 90
2
 70
0
 10
629350.5340295242
 20
4840362.700560923
 10
629290.8504797051
 20
4840561.923370343
  0
LWPOLYLINE
  5
1DC
330
17
100
AcDbEntity
  8
ROADS
100
AcDbPolyline
 90
2
 70
0
 10
629183.8647069869
 20
4840530.058515946
 10
629290.8504797051
 20
4840561.923370343
  0
LWPOLYLINE
  5
1DD
330
17
100
AcDbEntity
  8
ROADS
100
AcDbPolyline
 90
2
 70
0
 10
629183.8647069869
 20
4840530.058515946
 10
629166.8452043023
 20
4840586.287409658
  0
LWPOLYLINE
  5
1DE
330
17
100
AcDbEntity
  8
ROADS
100
AcDbPolyline
 90
2
 70
0
 10
629112.6136714342
 20
4840569.919087762
 10
629166.8452043023
 20
4840586.287409658
  0
LWPOLYLINE
  5
1DF
330
17
100
AcDbEntity
  8
ROADS
100
AcDbPolyline
 90
2
 70
0
 10
628875.9964241337
 20
4840265.2225217875
 10
628837.8270784338
 20
4840257.47244024
  0
LWPOLYLINE
  5
1E0
330
17
100
AcDbEntity
  8
ROADS
100
AcDbPolyline
 90
2
 70
0
 10
628875.9964241337
 20
4840265.2225217875
 10
628904.6690268565
 20
4840403.531566615
  0
LWPOLYLINE
  5
1E1
330
17
100
AcDbEntity
  8
ROADS
100
AcDbPolyline
 90
2
 70
0
 10
628904.6690268565
 20
4840403.531566615
 10
628871.3758039956
 20
4840404.0282433415
  0
LWPOLYLINE
  5
1E2
330
17
100
AcDbEntity
  8
ROADS
100
AcDbPolyline
 90
2
 70
0
 10
629087.6659895566
 20
4840283.778316407
 10
629041.1395522915
 20
4840547.439389094
  0
LWPOLYLINE
  5
1E3
330
17
100
AcDbEntity
  8
ROADS
100
AcDbPolyline
 90
2
 70
0
 10
628904.6690268565
 20
4840403.531566615
 10
628887.6058526803
 20
4840502.164478278
  0
LWPOLYLINE
  5
1E4
330
17
100
AcDbEntity
  8
ROADS
100
AcDbPolyline
 90
2
 70
0
 10
628887.6058526803
 20
4840502.164478278
 10
628796.4613268974
 20
4840472.0924095055
  0
LWPOLYLINE
  5
1E5
330
17
100
AcDbEntity
  8
ROADS
100
AcDbPolyline
 90
2
 70
0
 10
629041.1395522915
 20
4840547.439389094
 10
628887.6058526803
 20
4840502.164478278
  0
LWPOLYLINE
  5
1E6
330
17
100
AcDbEntity
  8
ROADS
100
AcDbPolyline
 90
2
 70
0
 10
629041.1395522915
 20
4840547.439389094
 10
629112.6136714342
 20
4840569.919087762
  0
LWPOLYLINE
  5
1E7
330
17
100
AcDbEntity
  8
ROADS
100
AcDbPolyline
 90
2
 70
0
 10
628887.6058526803
 20
4840502.164478278
 10
628839.7221072016
 20
4840657.806564553
  0
LWPOLYLINE
  5
1E8
330
17
100
AcDbEntity
  8
ROADS
100
AcDbPolyline
 90
2
 70
0
 10
629041.1395522915
 20
4840547.439389094
 10
629017.3949572416
 20
4840686.248661285
  0
LWPOLYLINE
  5
1E9
330
17
100
AcDbEntity
  8
ROADS
100
AcDbPolyline
 90
2
 70
0
 10
629761.0340826171
 20
4840150.968184084
 10
629749.3033202703
 20
4840267.260564575
  0
LWPOLYLINE
  5
1EA
330
17
100
AcDbEntity
  8
ROADS
100
AcDbPolyline
 90
3
 70
0
 10
629883.1108047588
 20
4840306.884191085
 10
629927.0401567692
 20
4840163.379883403
 10
629973.7791371554
 20
4840178.265519097
  0
LWPOLYLINE
  5
1EB
330
17
100
AcDbEntity
  8
ROADS
100
AcDbPolyline
 90
2
 70
0
 10
629871.1450627059
 20
4840181.46391345
 10
629837.1350741326
 20
4840293.149430573
  0
LWPOLYLINE
  5
1EC
330
17
100
AcDbEntity
  8
ROADS
100
AcDbPolyline
 90
2
 70
0
 10
629973.7791371554
 20
4840178.265519097
 10
629930.8389318226
 20
4840321.322709371
  0
LWPOLYLINE
  5
1ED
330
17
100
AcDbEntity
  8
ROADS
100
AcDbPolyline
 90
2
 70
0
 10
629749.3033202703
 20
4840267.260564575
 10
629837.1350741326
 20
4840293.149430573
  0
LWPOLYLINE
  5
1EE
330
17
100
AcDbEntity
  8
ROADS
100
AcDbPolyline
 90
2
 70
0
 10
629837.1350741326
 20
4840293.149430573
 10
629883.1108047588
 20
4840306.884191085
  0
LWPOLYLINE
  5
1EF
330
17
100
AcDbEntity
  8
ROADS
100
AcDbPolyline
 90
2
 70
0
 10
629883.1108047588
 20
4840306.884191085
 10
629930.8389318226
 20
4840321.322709371
  0
LWPOLYLINE
  5
1F0
330
17
100
AcDbEntity
  8
ROADS
100
AcDbPolyline
 90
2
 70
0
 10
629930.8389318226
 20
4840321.322709371
 10
629973.6194046702
 20
4840334.301748232
  0
LWPOLYLINE
  5
1F1
330
17
100
AcDbEntity
  8
ROADS
100
AcDbPolyline
 90
2
 70
0
 10
629837.1350741326
 20
4840293.149430573
 10
629807.389915437
 20
4840390.654095307
  0
LWPOLYLINE
  5
1F2
330
17
100
AcDbEntity
  8
ROADS
100
AcDbPolyline
 90
2
 70
0
 10
629807.389915437
 20
4840390.654095307
 10
629956.0435701165
 20
4840435.16708667
  0
LWPOLYLINE
  5
1F3
330
17
100
AcDbEntity
  8
ROADS
100
AcDbPolyline
 90
2
 70
0
 10
629807.389915437
 20
4840390.654095307
 10
629773.6219187815
 20
4840489.7080674805
  0
LWPOLYLINE
  5
1F4
330
17
100
AcDbEntity
  8
ROADS
100
AcDbPolyline
 90
2
 70
0
 10
629670.0461949958
 20
4840457.9828993175
 10
629773.6219187815
 20
4840489.7080674805
  0
LWPOLYLINE
  5
1F5
330
17
100
AcDbEntity
  8
ROADS
100
AcDbPolyline
 90
2
 70
0
 10
629773.6219187815
 20
4840489.7080674805
 10
629880.3941351007
 20
4840521.641102687
  0
LWPOLYLINE
  5
1F6
330
17
100
AcDbEntity
  8
ROADS
100
AcDbPolyline
 90
2
 70
0
 10
629880.3941351007
 20
4840521.641102687
 10
629927.9078990777
 20
4840535.184196739
  0
LWPOLYLINE
  5
1F7
330
17
100
AcDbEntity
  8
ROADS
100
AcDbPolyline
 90
2
 70
0
 10
629773.6219187815
 20
4840489.7080674805
 10
629699.0993477398
 20
4840747.313685046
  0
LWPOLYLINE
  5
1F8
330
17
100
AcDbEntity
  8
ROADS
100
AcDbPolyline
 90
2
 70
0
 10
629880.3941351007
 20
4840521.641102687
 10
629805.6458510791
 20
4840777.099561658
  0
LWPOLYLINE
  5
1F9
330
17
100
AcDbEntity
  8
ROADS
100
AcDbPolyline
 90
2
 70
0
 10
629699.0993477398
 20
4840747.313685046
 10
629805.6458510791
 20
4840777.099561658
  0
LWPOLYLINE
  5
1FA
330
17
100
AcDbEntity
  8
ROADS
100
AcDbPolyline
 90
2
 70
0
 10
629805.6458510791
 20
4840777.099561658
 10
629808.4797960543
 20
4840777.969806494
  0
LWPOLYLINE
  5
1FB
330
17
100
AcDbEntity
  8
ROADS
100
AcDbPolyline
 90
2
 70
0
 10
629659.4293120471
 20
4840880.801194199
 10
629704.8627836165
 20
4840894.11706279
  0
LWPOLYLINE
  5
1FC
330
17
100
AcDbEntity
  8
ROADS
100
AcDbPolyline
 90
2
 70
0
 10
629455.7709335882
 20
4840394.44472715
 10
629563.8314487431
 20
4840426.665031883
  0
LWPOLYLINE
  5
1FD
330
17
100
AcDbEntity
  8
ROADS
100
AcDbPolyline
 90
2
 70
0
 10
629563.8314487431
 20
4840426.665031883
 10
629670.0461949958
 20
4840457.9828993175
  0
LWPOLYLINE
  5
1FE
330
17
100
AcDbEntity
  8
ROADS
100
AcDbPolyline
 90
2
 70
0
 10
629455.7709335882
 20
4840394.44472715
 10
629380.3183752698
 20
4840650.589193208
  0
LWPOLYLINE
  5
1FF
330
17
100
AcDbEntity
  8
ROADS
100
AcDbPolyline
 90
2
 70
0
 10
629563.8314487431
 20
4840426.665031883
 10
629485.6373671406
 20
4840681.498880311
  0
LWPOLYLINE
  5
200
330
17
100
AcDbEntity
  8
ROADS
100
AcDbPolyline
 90
2
 70
0
 10
629670.0461949958
 20
4840457.9828993175
 10
629593.302383156
 20
4840714.7391952155
  0
LWPOLYLINE
  5
201
330
17
100
AcDbEntity
  8
ROADS
100
AcDbPolyline
 90
2
 70
0
 10
629380.3183752698
 20
4840650.589193208
 10
629485.6373671406
 20
4840681.498880311
  0
LWPOLYLINE
  5
202
330
17
100
AcDbEntity
  8
ROADS
100
AcDbPolyline
 90
2
 70
0
 10
629485.6373671406
 20
4840681.498880311
 10
629593.302383156
 20
4840714.7391952155
  0
LWPOLYLINE
  5
203
330
17
100
AcDbEntity
  8
ROADS
100
AcDbPolyline
 90
2
 70
0
 10
629593.302383156
 20
4840714.7391952155
 10
629699.0993477398
 20
4840747.313685046
  0
LWPOLYLINE
  5
204
330
17
100
AcDbEntity
  8
ROADS
100
AcDbPolyline
 90
2
 70
0
 10
629485.6373671406
 20
4840681.498880311
 10
629446.8974763022
 20
4840816.753263064
  0
LWPOLYLINE
  5
205
330
17
100
AcDbEntity
  8
ROADS
100
AcDbPolyline
 90
2
 70
0
 10
629699.0993477398
 20
4840747.313685046
 10
629659.4293120471
 20
4840880.801194199
  0
LWPOLYLINE
  5
206
330
17
100
AcDbEntity
  8
ROADS
100
AcDbPolyline
 90
2
 70
0
 10
629290.8504797051
 20
4840561.923370343
 10
629273.6979643158
 20
4840618.98093053
  0
LWPOLYLINE
  5
207
330
17
100
AcDbEntity
  8
ROADS
100
AcDbPolyline
 90
2
 70
0
 10
629166.8452043023
 20
4840586.287409658
 10
629273.6979643158
 20
4840618.98093053
  0
LWPOLYLINE
  5
208
330
17
100
AcDbEntity
  8
ROADS
100
AcDbPolyline
 90
2
 70
0
 10
629273.6979643158
 20
4840618.98093053
 10
629380.3183752698
 20
4840650.589193208
  0
LWPOLYLINE
  5
209
330
17
100
AcDbEntity
  8
ROADS
100
AcDbPolyline
 90
2
 70
0
 10
629017.3949572416
 20
4840686.248661285
 10
629446.8974763022
 20
4840816.753263064
  0
LWPOLYLINE
  5
20A
330
17
100
AcDbEntity
  8
ROADS
100
AcDbPolyline
 90
2
 70
0
 10
628986.1766697764
 20
4840863.697295977
 10
629396.7870146388
 20
4840984.103081251
  0
LWPOLYLINE
  5
20B
330
17
100
AcDbEntity
  8
ROADS
100
AcDbPolyline
 90
2
 70
0
 10
629396.7870146388
 20
4840984.103081251
 10
629368.0286816577
 20
4841079.215838155
  0
LWPOLYLINE
  5
20C
330
17
100
AcDbEntity
  8
ROADS
100
AcDbPolyline
 90
2
 70
0
 10
628958.3853645585
 20
4841030.460687862
 10
629207.0944664332
 20
4841104.639177143
  0
LWPOLYLINE
  5
20D
330
17
100
AcDbEntity
  8
ROADS
100
AcDbPolyline
 90
2
 70
0
 10
629446.8974763022
 20
4840816.753263064
 10
629659.4293120471
 20
4840880.801194199
  0
LWPOLYLINE
  5
20E
330
17
100
AcDbEntity
  8
ROADS
100
AcDbPolyline
 90
2
 70
0
 10
629446.8974763022
 20
4840816.753263064
 10
629396.7870146388
 20
4840984.103081251
  0
LWPOLYLINE
  5
20F
330
17
100
AcDbEntity
  8
ROADS
100
AcDbPolyline
 90
2
 70
0
 10
629659.4293120471
 20
4840880.801194199
 10
629639.600944695
 20
4840947.9172501555
  0
LWPOLYLINE
  5
210
330
17
100
AcDbEntity
  8
ROADS
100
AcDbPolyline
 90
2
 70
0
 10
629396.7870146388
 20
4840984.103081251
 10
629521.4722466982
 20
4841021.402927414
  0
ENDSEC
  0
SECTION
  2
OBJECTS
  0
DICTIONARY
  5
A
330
0
100
AcDbDictionary
281
1
  3
ACAD_COLOR
350
B
  3
ACAD_GROUP
350
C
  3
ACAD_LAYOUT
350
D
  3
ACAD_MATERIAL
350
E
  3
ACAD_MLEADERSTYLE
350
F
  3
ACAD_MLINESTYLE
350
10
  3
ACAD_PLOTSETTINGS
350
11
  3
ACAD_PLOTSTYLENAME
350
12
  3
ACAD_SCALELIST
350
14
  3
ACAD_TABLESTYLE
350
15
  3
ACAD_VISUALSTYLE
350
16
  3
EZDXF_META
350
2D
  0
DICTIONARY
  5
B
330
A
100
AcDbDictionary
281
1
  0
DICTIONARY
  5
C
330
A
100
AcDbDictionary
281
1
  0
DICTIONARY
  5
D
330
A
100
AcDbDictionary
281
1
  3
Model
350
1A
  3
Layout1
350
1E
  0
DICTIONARY
  5
E
330
A
100
AcDbDictionary
281
1
  3
ByBlock
350
1F
  3
ByLayer
350
20
  3
Global
350
21
  0
DICTIONARY
  5
F
330
A
100
AcDbDictionary
281
1
  3
Standard
350
2C
  0
DICTIONARY
  5
10
330
A
100
AcDbDictionary
281
1
  3
Standard
350
22
  0
DICTIONARY
  5
11
330
A
100
AcDbDictionary
281
1
  0
ACDBDICTIONARYWDFLT
  5
12
330
A
100
AcDbDictionary
281
1
  3
Normal
350
13
100
AcDbDictionaryWithDefault
340
13
  0
ACDBPLACEHOLDER
  5
13
330
12
  0
DICTIONARY
  5
14
330
A
100
AcDbDictionary
281
1
  0
DICTIONARY
  5
15
330
A
100
AcDbDictionary
281
1
  0
DICTIONARY
  5
16
330
A
100
AcDbDictionary
281
1
  0
LAYOUT
  5
1A
330
D
100
AcDbPlotSettings
  1

  4
A3
  6

 40
7.5
 41
20.0
 42
7.5
 43
20.0
 44
420.0
 45
297.0
 46
0.0
 47
0.0
 48
0.0
 49
0.0
140
0.0
141
0.0
142
1.0
143
1.0
 70
1024
 72
1
 73
0
 74
5
  7

 75
16
 76
0
 77
2
 78
300
147
1.0
148
0.0
149
0.0
100
AcDbLayout
  1
Model
 70
1
 71
0
 10
0.0
 20
0.0
 11
420.0
 21
297.0
 12
0.0
 22
0.0
 32
0.0
 14
1e+20
 24
1e+20
 34
1e+20
 15
-1e+20
 25
-1e+20
 35
-1e+20
146
0.0
 13
0.0
 23
0.0
 33
0.0
 16
1.0
 26
0.0
 36
0.0
 17
0.0
 27
1.0
 37
0.0
 76
1
330
17
  0
LAYOUT
  5
1E
330
D
100
AcDbPlotSettings
  1

  4
A3
  6

 40
7.5
 41
20.0
 42
7.5
 43
20.0
 44
420.0
 45
297.0
 46
0.0
 47
0.0
 48
0.0
 49
0.0
140
0.0
141
0.0
142
1.0
143
1.0
 70
0
 72
1
 73
0
 74
5
  7

 75
16
 76
0
 77
2
 78
300
147
1.0
148
0.0
149
0.0
100
AcDbLayout
  1
Layout1
 70
1
 71
1
 10
0.0
 20
0.0
 11
420.0
 21
297.0
 12
0.0
 22
0.0
 32
0.0
 14
1e+20
 24
1e+20
 34
1e+20
 15
-1e+20
 25
-1e+20
 35
-1e+20
146
0.0
 13
0.0
 23
0.0
 33
0.0
 16
1.0
 26
0.0
 36
0.0
 17
0.0
 27
1.0
 37
0.0
 76
1
330
1B
  0
MATERIAL
  5
1F
102
{ACAD_REACTORS
330
E
102
}
330
E
100
AcDbMaterial
  1
ByBlock
  2

 70
0
 40
1.0
 71
1
 41
1.0
 91
-1023410177
 42
1.0
 72
1
  3

 73
1
 74
1
 75
1
 44
0.5
 73
0
 45
1.0
 46
1.0
 77
1
  4

 78
1
 79
1
170
1
 48
1.0
171
1
  6

172
1
173
1
174
1
140
1.0
141
1.0
175
1
  7

176
1
177
1
178
1
143
1.0
179
1
  8

270
1
271
1
272
1
145
1.0
146
1.0
273
1
  9

274
1
275
1
276
1
 42
1.0
 72
1
  3

 73
1
 74
1
 75
1
 94
63
  0
MATERIAL
  5
20
102
{ACAD_REACTORS
330
E
102
}
330
E
100
AcDbMaterial
  1
ByLayer
  2

 70
0
 40
1.0
 71
1
 41
1.0
 91
-1023410177
 42
1.0
 72
1
  3

 73
1
 74
1
 75
1
 44
0.5
 73
0
 45
1.0
 46
1.0
 77
1
  4

 78
1
 79
1
170
1
 48
1.0
171
1
  6

172
1
173
1
174
1
140
1.0
141
1.0
175
1
  7

176
1
177
1
178
1
143
1.0
179
1
  8

270
1
271
1
272
1
145
1.0
146
1.0
273
1
  9

274
1
275
1
276
1
 42
1.0
 72
1
  3

 73
1
 74
1
 75
1
 94
63
  0
MATERIAL
  5
21
102
{ACAD_REACTORS
330
E
102
}
330
E
100
AcDbMaterial
  1
Global
  2

 70
0
 40
1.0
 71
1
 41
1.0
 91
-1023410177
 42
1.0
 72
1
  3

 73
1
 74
1
 75
1
 44
0.5
 73
0
 45
1.0
 46
1.0
 77
1
  4

 78
1
 79
1
170
1
 48
1.0
171
1
  6

172
1
173
1
174
1
140
1.0
141
1.0
175
1
  7

176
1
177
1
178
1
143
1.0
179
1
  8

270
1
271
1
272
1
145
1.0
146
1.0
273
1
  9

274
1
275
1
276
1
 42
1.0
 72
1
  3

 73
1
 74
1
 75
1
 94
63
  0
MLINESTYLE
  5
22
102
{ACAD_REACTORS
330
10
102
}
330
10
100
AcDbMlineStyle
  2
Standard
 70
0
  3

 62
256
 51
90.0
 52
90.0
 71
2
 49
0.5
 62
256
  6
BYLAYER
 49
-0.5
 62
256
  6
BYLAYER
  0
MLEADERSTYLE
  5
2C
102
{ACAD_REACTORS
330
F
102
}
330
F
100
AcDbMLeaderStyle
179
2
170
2
171
1
172
0
 90
2
 40
0.0
 41
0.0
173
1
 91
-1056964608
 92
-2
290
1
 42
2.0
291
1
 43
8.0
  3
Standard
 44
4.0
300

342
29
174
1
175
1
176
0
178
1
 93
-1056964608
 45
4.0
292
0
297
0
 46
4.0
 94
-1056964608
 47
1.0
 49
1.0
140
1.0
294
1
141
0.0
177
0
142
1.0
295
0
296
0
143
3.75
271
0
272
9
273
9
  0
DICTIONARY
  5
2D
330
A
100
AcDbDictionary
280
1
281
1
  3
CREATED_BY_EZDXF
350
2E
  3
WRITTEN_BY_EZDXF
350
213
  0
DICTIONARYVAR
  5
2E
330
2D
100
DictionaryVariables
280
0
  1
1.4.4 @ 2026-07-07T06:20:28.299993+00:00
  0
DICTIONARYVAR
  5
213
330
2D
100
DictionaryVariables
280
0
  1
1.4.4 @ 2026-07-07T06:20:28.313362+00:00
  0
ENDSEC
  0
EOF
