  0
SECTION
  2
HEADER
  9
$ACADVER
  1
AC1015
  9
$ACADMAINTVER
 70
6
  9
$DWGCODEPAGE
  3
ANSI_1252
  9
$INSBASE
 10
0.0
 20
0.0
 30
0.0
  9
$EXTMIN
 10
1e+20
 20
1e+20
 30
1e+20
  9
$EXTMAX
 10
-1e+20
 20
-1e+20
 30
-1e+20
  9
$LIMMIN
 10
0.0
 20
0.0
  9
$LIMMAX
 10
420.0
 20
297.0
  9
$ORTHOMODE
 70
0
  9
$REGENMODE
 70
1
  9
$FILLMODE
 70
1
  9
$QTEXTMODE
 70
0
  9
$MIRRTEXT
 70
1
  9
$LTSCALE
 40
1.0
  9
$ATTMODE
 70
1
  9
$TEXTSIZE
 40
2.5
  9
$TRACEWID
 40
1.0
  9
$TEXTSTYLE
  7
Standard
  9
$CLAYER
  8
0
  9
$CELTYPE
  6
ByLayer
  9
$CECOLOR
 62
256
  9
$CELTSCALE
 40
1.0
  9
$DISPSILH
 70
0
  9
$DIMSCALE
 40
1.0
  9
$DIMASZ
 40
2.5
  9
$DIMEXO
 40
0.625
  9
$DIMDLI
 40
3.75
  9
$DIMRND
 40
0.0
  9
$DIMDLE
 40
0.0
  9
$DIMEXE
 40
1.25
  9
$DIMTP
 40
0.0
  9
$DIMTM
 40
0.0
  9
$DIMTXT
 40
2.5
  9
$DIMCEN
 40
2.5
  9
$DIMTSZ
 40
0.0
  9
$DIMTOL
 70
0
  9
$DIMLIM
 70
0
  9
$DIMTIH
 70
0
  9
$DIMTOH
 70
0
  9
$DIMSE1
 70
0
  9
$DIMSE2
 70
0
  9
$DIMTAD
 70
1
  9
$DIMZIN
 70
8
  9
$DIMBLK
  1

  9
$DIMASO
 70
1
  9
$DIMSHO
 70
1
  9
$DIMPOST
  1

  9
$DIMAPOST
  1

  9
$DIMALT
 70
0
  9
$DIMALTD
 70
3
  9
$DIMALTF
 40
0.03937007874
  9
$DIMLFAC
 40
1.0
  9
$DIMTOFL
 70
1
  9
$DIMTVP
 40
0.0
  9
$DIMTIX
 70
0
  9
$DIMSOXD
 70
0
  9
$DIMSAH
 70
0
  9
$DIMBLK1
  1

  9
$DIMBLK2
  1

  9
$DIMSTYLE
  2
ISO-25
  9
$DIMCLRD
 70
0
  9
$DIMCLRE
 70
0
  9
$DIMCLRT
 70
0
  9
$DIMTFAC
 40
1.0
  9
$DIMGAP
 40
0.625
  9
$DIMJUST
 70
0
  9
$DIMSD1
 70
0
  9
$DIMSD2
 70
0
  9
$DIMTOLJ
 70
0
  9
$DIMTZIN
 70
8
  9
$DIMALTZ
 70
0
  9
$DIMALTTZ
 70
0
  9
$DIMUPT
 70
0
  9
$DIMDEC
 70
2
  9
$DIMTDEC
 70
2
  9
$DIMALTU
 70
2
  9
$DIMALTTD
 70
3
  9
$DIMTXSTY
  7
Standard
  9
$DIMAUNIT
 70
0
  9
$DIMADEC
 70
0
  9
$DIMALTRND
 40
0.0
  9
$DIMAZIN
 70
0
  9
$DIMDSEP
 70
44
  9
$DIMATFIT
 70
3
  9
$DIMFRAC
 70
0
  9
$DIMLDRBLK
  1

  9
$DIMLUNIT
 70
2
  9
$DIMLWD
 70
-2
  9
$DIMLWE
 70
-2
  9
$DIMTMOVE
 70
0
  9
$LUNITS
 70
2
  9
$LUPREC
 70
4
  9
$SKETCHINC
 40
1.0
  9
$FILLETRAD
 40
10.0
  9
$AUNITS
 70
0
  9
$AUPREC
 70
2
  9
$MENU
  1
.
  9
$ELEVATION
 40
0.0
  9
$PELEVATION
 40
0.0
  9
$THICKNESS
 40
0.0
  9
$LIMCHECK
 70
0
  9
$CHAMFERA
 40
0.0
  9
$CHAMFERB
 40
0.0
  9
$CHAMFERC
 40
0.0
  9
$CHAMFERD
 40
0.0
  9
$SKPOLY
 70
0
  9
$TDCREATE
 40
2461252.487974537
  9
$TDUCREATE
 40
2458532.153996898
  9
$TDUPDATE
 40
2461252.487974537
  9
$TDUUPDATE
 40
2458532.1544311
  9
$TDINDWG
 40
0.0
  9
$TDUSRTIMER
 40
0.0
  9
$USRTIMER
 70
1
  9
$ANGBASE
 50
0.0
  9
$ANGDIR
 70
0
  9
$PDMODE
 70
0
  9
$PDSIZE
 40
0.0
  9
$PLINEWID
 40
0.0
  9
$SPLFRAME
 70
0
  9
$SPLINETYPE
 70
6
  9
$SPLINESEGS
 70
8
  9
$HANDSEED
  5
2FD
  9
$SURFTAB1
 70
6
  9
$SURFTAB2
 70
6
  9
$SURFTYPE
 70
6
  9
$SURFU
 70
6
  9
$SURFV
 70
6
  9
$UCSBASE
  2

  9
$UCSNAME
  2

  9
$UCSORG
 10
0.0
 20
0.0
 30
0.0
  9
$UCSXDIR
 10
1.0
 20
0.0
 30
0.0
  9
$UCSYDIR
 10
0.0
 20
1.0
 30
0.0
  9
$UCSORTHOREF
  2

  9
$UCSORTHOVIEW
 70
0
  9
$UCSORGTOP
 10
0.0
 20
0.0
 30
0.0
  9
$UCSORGBOTTOM
 10
0.0
 20
0.0
 30
0.0
  9
$UCSORGLEFT
 10
0.0
 20
0.0
 30
0.0
  9
$UCSORGRIGHT
 10
0.0
 20
0.0
 30
0.0
  9
$UCSORGFRONT
 10
0.0
 20
0.0
 30
0.0
  9
$UCSORGBACK
 10
0.0
 20
0.0
 30
0.0
  9
$PUCSBASE
  2

  9
$PUCSNAME
  2

  9
$PUCSORG
 10
0.0
 20
0.0
 30
0.0
  9
$PUCSXDIR
 10
1.0
 20
0.0
 30
0.0
  9
$PUCSYDIR
 10
0.0
 20
1.0
 30
0.0
  9
$PUCSORTHOREF
  2

  9
$PUCSORTHOVIEW
 70
0
  9
$PUCSORGTOP
 10
0.0
 20
0.0
 30
0.0
  9
$PUCSORGBOTTOM
 10
0.0
 20
0.0
 30
0.0
  9
$PUCSORGLEFT
 10
0.0
 20
0.0
 30
0.0
  9
$PUCSORGRIGHT
 10
0.0
 20
0.0
 30
0.0
  9
$PUCSORGFRONT
 10
0.0
 20
0.0
 30
0.0
  9
$PUCSORGBACK
 10
0.0
 20
0.0
 30
0.0
  9
$USERI1
 70
0
  9
$USERI2
 70
0
  9
$USERI3
 70
0
  9
$USERI4
 70
0
  9
$USERI5
 70
0
  9
$USERR1
 40
0.0
  9
$USERR2
 40
0.0
  9
$USERR3
 40
0.0
  9
$USERR4
 40
0.0
  9
$USERR5
 40
0.0
  9
$WORLDVIEW
 70
1
  9
$SHADEDGE
 70
3
  9
$SHADEDIF
 70
70
  9
$TILEMODE
 70
1
  9
$MAXACTVP
 70
64
  9
$PINSBASE
 10
0.0
 20
0.0
 30
0.0
  9
$PLIMCHECK
 70
0
  9
$PEXTMIN
 10
1e+20
 20
1e+20
 30
1e+20
  9
$PEXTMAX
 10
-1e+20
 20
-1e+20
 30
-1e+20
  9
$PLIMMIN
 10
0.0
 20
0.0
  9
$PLIMMAX
 10
420.0
 20
297.0
  9
$UNITMODE
 70
0
  9
$VISRETAIN
 70
1
  9
$PLINEGEN
 70
0
  9
$PSLTSCALE
 70
1
  9
$TREEDEPTH
 70
3020
  9
$CMLSTYLE
  2
Standard
  9
$CMLJUST
 70
0
  9
$CMLSCALE
 40
20.0
  9
$PROXYGRAPHICS
 70
1
  9
$MEASUREMENT
 70
1
  9
$CELWEIGHT
370
-1
  9
$ENDCAPS
280
0
  9
$JOINSTYLE
280
0
  9
$LWDISPLAY
290
0
  9
$INSUNITS
 70
6
  9
$HYPERLINKBASE
  1

  9
$STYLESHEET
  1

  9
$XEDIT
290
1
  9
$CEPSNTYPE
380
0
  9
$PSTYLEMODE
290
1
  9
$FINGERPRINTGUID
  2
{E00E21DF-86ED-4B26-A5AA-0724C4A9F35D}
  9
$VERSIONGUID
  2
{3E565235-454D-4265-9C30-E10FBA7DD75E}
  9
$EXTNAMES
290
1
  9
$PSVPSCALE
 40
0.0
  9
$OLESTARTUP
290
0
  0
ENDSEC
  0
SECTION
  2
CLASSES
  0
CLASS
  1
ACDBDICTIONARYWDFLT
  2
AcDbDictionaryWithDefault
  3
ObjectDBX Classes
 90
0
280
0
281
0
  0
CLASS
  1
SUN
  2
AcDbSun
  3
SCENEOE
 90
1153
280
0
281
0
  0
CLASS
  1
VISUALSTYLE
  2
AcDbVisualStyle
  3
ObjectDBX Classes
 90
4095
280
0
281
0
  0
CLASS
  1
MATERIAL
  2
AcDbMaterial
  3
ObjectDBX Classes
 90
1153
280
0
281
0
  0
CLASS
  1
SCALE
  2
AcDbScale
  3
ObjectDBX Classes
 90
1153
280
0
281
0
  0
CLASS
  1
TABLESTYLE
  2
AcDbTableStyle
  3
ObjectDBX Classes
 90
4095
280
0
281
0
  0
CLASS
  1
MLEADERSTYLE
  2
AcDbMLeaderStyle
  3
ACDB_MLEADERSTYLE_CLASS
 90
4095
280
0
281
0
  0
CLASS
  1
DICTIONARYVAR
  2
AcDbDictionaryVar
  3
ObjectDBX Classes
 90
0
280
0
281
0
  0
CLASS
  1
CELLSTYLEMAP
  2
AcDbCellStyleMap
  3
ObjectDBX Classes
 90
1152
280
0
281
0
  0
CLASS
  1
MENTALRAYRENDERSETTINGS
  2
AcDbMentalRayRenderSettings
  3
SCENEOE
 90
1024
280
0
281
0
  0
CLASS
  1
ACDBDETAILVIEWSTYLE
  2
AcDbDetailViewStyle
  3
ObjectDBX Classes
 90
1025
280
0
281
0
  0
CLASS
  1
ACDBSECTIONVIEWSTYLE
  2
AcDbSectionViewStyle
  3
ObjectDBX Classes
 90
1025
280
0
281
0
  0
CLASS
  1
RASTERVARIABLES
  2
AcDbRasterVariables
  3
ISM
 90
0
280
0
281
0
  0
CLASS
  1
ACDBPLACEHOLDER
  2
AcDbPlaceHolder
  3
ObjectDBX Classes
 90
0
280
0
281
0
  0
CLASS
  1
LAYOUT
  2
AcDbLayout
  3
ObjectDBX Classes
 90
0
280
0
281
0
  0
ENDSEC
  0
SECTION
  2
TABLES
  0
TABLE
  2
VPORT
  5
8
330
0
100
AcDbSymbolTable
 70
1
  0
VPORT
  5
23
330
8
100
AcDbSymbolTableRecord
100
AcDbViewportTableRecord
  2
*Active
 70
0
 10
0.0
 20
0.0
 11
1.0
 21
1.0
 12
0.0
 22
0.0
 13
0.0
 23
0.0
 14
0.5
 24
0.5
 15
0.5
 25
0.5
 16
0.0
 26
0.0
 36
1.0
 17
0.0
 27
0.0
 37
0.0
 40
1000.0
 41
1.34
 42
50.0
 43
0.0
 44
0.0
 50
0.0
 51
0.0
 71
0
 72
1000
 73
1
 74
3
 75
0
 76
0
 77
0
 78
0
281
0
 65
0
146
0.0
  0
ENDTAB
  0
TABLE
  2
LTYPE
  5
2
330
0
100
AcDbSymbolTable
 70
3
  0
LTYPE
  5
24
330
2
100
AcDbSymbolTableRecord
100
AcDbLinetypeTableRecord
  2
ByBlock
 70
0
  3

 72
65
 73
0
 40
0.0
  0
LTYPE
  5
25
330
2
100
AcDbSymbolTableRecord
100
AcDbLinetypeTableRecord
  2
ByLayer
 70
0
  3

 72
65
 73
0
 40
0.0
  0
LTYPE
  5
26
330
2
100
AcDbSymbolTableRecord
100
AcDbLinetypeTableRecord
  2
Continuous
 70
0
  3

 72
65
 73
0
 40
0.0
  0
ENDTAB
  0
TABLE
  2
LAYER
  5
1
330
0
100
AcDbSymbolTable
 70
2
  0
LAYER
  5
27
330
1
100
AcDbSymbolTableRecord
100
AcDbLayerTableRecord
  2
0
 70
0
 62
7
  6
Continuous
370
-3
390
13
  0
LAYER
  5
28
330
1
100
AcDbSymbolTableRecord
100
AcDbLayerTableRecord
  2
Defpoints
 70
0
 62
7
  6
Continuous
290
0
370
-3
390
13
  0
ENDTAB
  0
TABLE
  2
STYLE
  5
5
330
0
100
AcDbSymbolTable
 70
1
  0
STYLE
  5
29
330
5
100
AcDbSymbolTableRecord
100
AcDbTextStyleTableRecord
  2
Standard
 70
0
 40
0.0
 41
1.0
 50
0.0
 71
0
 42
2.5
  3
txt
  4

  0
ENDTAB
  0
TABLE
  2
VIEW
  5
7
330
0
100
AcDbSymbolTable
 70
0
  0
ENDTAB
  0
TABLE
  2
UCS
  5
6
330
0
100
AcDbSymbolTable
 70
0
  0
ENDTAB
  0
TABLE
  2
APPID
  5
3
330
0
100
AcDbSymbolTable
 70
3
  0
APPID
  5
2A
330
3
100
AcDbSymbolTableRecord
100
AcDbRegAppTableRecord
  2
ACAD
 70
0
  0
APPID
  5
2FA
330
3
100
AcDbSymbolTableRecord
100
AcDbRegAppTableRecord
  2
HATCHBACKGROUNDCOLOR
 70
0
  0
APPID
  5
2FB
330
3
100
AcDbSymbolTableRecord
100
AcDbRegAppTableRecord
  2
EZDXF
 70
0
  0
ENDTAB
  0
TABLE
  2
DIMSTYLE
  5
4
330
0
100
AcDbSymbolTable
 70
1
100
AcDbDimStyleTable
  0
DIMSTYLE
105
2B
330
4
100
AcDbSymbolTableRecord
100
AcDbDimStyleTableRecord
  2
Standard
 70
0
  3

  4

 40
1.0
 41
2.5
 42
0.625
 43
3.75
 44
1.25
 45
0.0
 46
0.0
 47
0.0
 48
0.0
140
2.5
141
2.5
142
0.0
143
0.03937007874
144
1.0
145
0.0
146
1.0
147
0.625
148
0.0
 71
0
 72
0
 73
0
 74
0
 75
0
 76
0
 77
1
 78
8
 79
3
170
0
171
3
172
1
173
0
174
0
175
0
176
0
177
0
178
0
179
2
271
2
272
2
273
2
274
3
275
0
276
0
277
2
278
44
279
0
280
0
281
0
282
0
283
0
284
8
285
0
286
0
288
0
289
3
371
-2
372
-2
  0
ENDTAB
  0
TABLE
  2
BLOCK_RECORD
  5
9
330
0
100
AcDbSymbolTable
 70
2
  0
BLOCK_RECORD
  5
17
330
9
100
AcDbSymbolTableRecord
100
AcDbBlockTableRecord
  2
*Model_Space
340
1A
  0
BLOCK_RECORD
  5
1B
330
9
100
AcDbSymbolTableRecord
100
AcDbBlockTableRecord
  2
*Paper_Space
340
1E
  0
ENDTAB
  0
ENDSEC
  0
SECTION
  2
BLOCKS
  0
BLOCK
  5
18
330
17
100
AcDbEntity
  8
0
100
AcDbBlockBegin
  2
*Model_Space
 70
0
 10
0.0
 20
0.0
 30
0.0
  3
*Model_Space
  1

  0
ENDBLK
  5
19
330
17
100
AcDbEntity
  8
0
100
AcDbBlockEnd
  0
BLOCK
  5
1C
330
1B
100
AcDbEntity
  8
0
100
AcDbBlockBegin
  2
*Paper_Space
 70
0
 10
0.0
 20
0.0
 30
0.0
  3
*Paper_Space
  1

  0
ENDBLK
  5
1D
330
1B
100
AcDbEntity
  8
0
100
AcDbBlockEnd
  0
ENDSEC
  0
SECTION
  2
ENTITIES
  0
LWPOLYLINE
  5
2F
330
17
100
AcDbEntity
  8
ROADS
100
AcDbPolyline
 90
2
 70
0
 10
628944.4034803968
 20
4839693.213562419
 10
628939.7062487288
 20
4839707.850643351
  0
LWPOLYLINE
  5
30
330
17
100
AcDbEntity
  8
ROADS
100
AcDbPolyline
 90
2
 70
0
 10
629051.2349816458
 20
4839691.10863369
 10
629037.1938003546
 20
4839737.757253204
  0
LWPOLYLINE
  5
31
330
17
100
AcDbEntity
  8
ROADS
100
AcDbPolyline
 90
2
 70
0
 10
629185.2527121116
 20
4839704.158173486
 10
629182.0658514948
 20
4839726.523293735
  0
LWPOLYLINE
  5
32
330
17
100
AcDbEntity
  8
ROADS
100
AcDbPolyline
 90
2
 70
0
 10
629037.1938003546
 20
4839737.757253204
 10
628939.7062487288
 20
4839707.850643351
  0
LWPOLYLINE
  5
33
330
17
100
AcDbEntity
  8
ROADS
100
AcDbPolyline
 90
2
 70
0
 10
629182.0658514948
 20
4839726.523293735
 10
629173.453109659
 20
4839778.327008078
  0
LWPOLYLINE
  5
34
330
17
100
AcDbEntity
  8
ROADS
100
AcDbPolyline
 90
2
 70
0
 10
629132.7341030373
 20
4839767.45063866
 10
629037.1938003546
 20
4839737.757253204
  0
LWPOLYLINE
  5
35
330
17
100
AcDbEntity
  8
ROADS
100
AcDbPolyline
 90
2
 70
0
 10
629173.453109659
 20
4839778.327008078
 10
629132.7341030373
 20
4839767.45063866
  0
LWPOLYLINE
  5
36
330
17
100
AcDbEntity
  8
ROADS
100
AcDbPolyline
 90
2
 70
0
 10
629132.7341030373
 20
4839767.45063866
 10
629121.7301150532
 20
4839802.95197896
  0
LWPOLYLINE
  5
37
330
17
100
AcDbEntity
  8
ROADS
100
AcDbPolyline
 90
2
 70
0
 10
629037.1938003546
 20
4839737.757253204
 10
629002.5252496314
 20
4839851.031727672
  0
LWPOLYLINE
  5
38
330
17
100
AcDbEntity
  8
ROADS
100
AcDbPolyline
 90
2
 70
0
 10
629173.453109659
 20
4839778.327008078
 10
629164.5071574381
 20
4839833.788940544
  0
LWPOLYLINE
  5
39
330
17
100
AcDbEntity
  8
ROADS
100
AcDbPolyline
 90
2
 70
0
 10
629041.0053619638
 20
4839862.445636157
 10
629002.5252496314
 20
4839851.031727672
  0
LWPOLYLINE
  5
3A
330
17
100
AcDbEntity
  8
ROADS
100
AcDbPolyline
 90
2
 70
0
 10
629164.5071574381
 20
4839833.788940544
 10
629154.7443533401
 20
4839897.751670228
  0
LWPOLYLINE
  5
3B
330
17
100
AcDbEntity
  8
ROADS
100
AcDbPolyline
 90
2
 70
0
 10
629002.5252496314
 20
4839851.031727672
 10
628985.2353674868
 20
4839908.171793395
  0
LWPOLYLINE
  5
3C
330
17
100
AcDbEntity
  8
ROADS
100
AcDbPolyline
 90
2
 70
0
 10
629154.7443533401
 20
4839897.751670228
 10
629091.3383622584
 20
4839878.498290741
  0
LWPOLYLINE
  5
3D
330
17
100
AcDbEntity
  8
ROADS
100
AcDbPolyline
 90
2
 70
0
 10
628939.7062487288
 20
4839707.850643351
 10
628902.236795592
 20
4839696.548922179
  0
LWPOLYLINE
  5
3E
330
17
100
AcDbEntity
  8
ROADS
100
AcDbPolyline
 90
2
 70
0
 10
628724.1129521833
 20
4839722.254529733
 10
628694.8810660974
 20
4839820.605163748
  0
LWPOLYLINE
  5
3F
330
17
100
AcDbEntity
  8
ROADS
100
AcDbPolyline
 90
2
 70
0
 10
628835.4395080381
 20
4839702.031212942
 10
628790.4842855529
 20
4839849.302615877
  0
LWPOLYLINE
  5
40
330
17
100
AcDbEntity
  8
ROADS
100
AcDbPolyline
 90
2
 70
0
 10
628939.7062487288
 20
4839707.850643351
 10
628887.6181068636
 20
4839878.968838963
  0
LWPOLYLINE
  5
41
330
17
100
AcDbEntity
  8
ROADS
100
AcDbPolyline
 90
2
 70
0
 10
628606.8492688972
 20
4839757.87267081
 10
628596.868840314
 20
4839790.795073231
  0
LWPOLYLINE
  5
42
330
17
100
AcDbEntity
  8
ROADS
100
AcDbPolyline
 90
2
 70
0
 10
628596.868840314
 20
4839790.795073231
 10
628555.5077766185
 20
4839778.297821523
  0
LWPOLYLINE
  5
43
330
17
100
AcDbEntity
  8
ROADS
100
AcDbPolyline
 90
2
 70
0
 10
628694.8810660974
 20
4839820.605163748
 10
628596.868840314
 20
4839790.795073231
  0
LWPOLYLINE
  5
44
330
17
100
AcDbEntity
  8
ROADS
100
AcDbPolyline
 90
2
 70
0
 10
628480.5236764081
 20
4839814.261316034
 10
628410.2617063036
 20
4840016.864087075
  0
LWPOLYLINE
  5
45
330
17
100
AcDbEntity
  8
ROADS
100
AcDbPolyline
 90
2
 70
0
 10
628596.868840314
 20
4839790.795073231
 10
628532.8586937154
 20
4839992.990452665
  0
LWPOLYLINE
  5
46
330
17
100
AcDbEntity
  8
ROADS
100
AcDbPolyline
 90
2
 70
0
 10
628694.8810660974
 20
4839820.605163748
 10
628633.9577067746
 20
4840024.203534385
  0
LWPOLYLINE
  5
47
330
17
100
AcDbEntity
  8
ROADS
100
AcDbPolyline
 90
2
 70
0
 10
628633.9577067746
 20
4840024.203534385
 10
628532.8586937154
 20
4839992.990452665
  0
LWPOLYLINE
  5
48
330
17
100
AcDbEntity
  8
ROADS
100
AcDbPolyline
 90
2
 70
0
 10
628532.8586937154
 20
4839992.990452665
 10
628511.6966464788
 20
4840048.688283002
  0
LWPOLYLINE
  5
49
330
17
100
AcDbEntity
  8
ROADS
100
AcDbPolyline
 90
2
 70
0
 10
628351.0924083184
 20
4839898.676252868
 10
628321.1960813018
 20
4839989.324966867
  0
LWPOLYLINE
  5
4A
330
17
100
AcDbEntity
  8
ROADS
100
AcDbPolyline
 90
2
 70
0
 10
628321.1960813018
 20
4839989.324966867
 10
628264.6263602488
 20
4839972.055045646
  0
LWPOLYLINE
  5
4B
330
17
100
AcDbEntity
  8
ROADS
100
AcDbPolyline
 90
2
 70
0
 10
628410.2617063036
 20
4840016.864087075
 10
628321.1960813018
 20
4839989.324966867
  0
LWPOLYLINE
  5
4C
330
17
100
AcDbEntity
  8
ROADS
100
AcDbPolyline
 90
2
 70
0
 10
628211.0338442688
 20
4840028.0509898225
 10
628141.0503745237
 20
4840267.350959499
  0
LWPOLYLINE
  5
4D
330
17
100
AcDbEntity
  8
ROADS
100
AcDbPolyline
 90
2
 70
0
 10
628321.1960813018
 20
4839989.324966867
 10
628227.9406522794
 20
4840294.731772682
  0
LWPOLYLINE
  5
4E
330
17
100
AcDbEntity
  8
ROADS
100
AcDbPolyline
 90
2
 70
0
 10
628410.2617063036
 20
4840016.864087075
 10
628320.0652895015
 20
4840321.394253995
  0
LWPOLYLINE
  5
4F
330
17
100
AcDbEntity
  8
ROADS
100
AcDbPolyline
 90
2
 70
0
 10
628511.6966464788
 20
4840048.688283002
 10
628410.2617063036
 20
4840016.864087075
  0
LWPOLYLINE
  5
50
330
17
100
AcDbEntity
  8
ROADS
100
AcDbPolyline
 90
2
 70
0
 10
628729.2677032471
 20
4840052.578713472
 10
628633.9577067746
 20
4840024.203534385
  0
LWPOLYLINE
  5
51
330
17
100
AcDbEntity
  8
ROADS
100
AcDbPolyline
 90
2
 70
0
 10
628511.6966464788
 20
4840048.688283002
 10
628482.3377891572
 20
4840148.398716264
  0
LWPOLYLINE
  5
52
330
17
100
AcDbEntity
  8
ROADS
100
AcDbPolyline
 90
2
 70
0
 10
628633.9577067746
 20
4840024.203534385
 10
628584.5692416902
 20
4840179.645330613
  0
LWPOLYLINE
  5
53
330
17
100
AcDbEntity
  8
ROADS
100
AcDbPolyline
 90
2
 70
0
 10
628584.5692416902
 20
4840179.645330613
 10
628482.3377891572
 20
4840148.398716264
  0
LWPOLYLINE
  5
54
330
17
100
AcDbEntity
  8
ROADS
100
AcDbPolyline
 90
2
 70
0
 10
628678.028356819
 20
4840207.67404103
 10
628584.5692416902
 20
4840179.645330613
  0
LWPOLYLINE
  5
55
330
17
100
AcDbEntity
  8
ROADS
100
AcDbPolyline
 90
2
 70
0
 10
628482.3377891572
 20
4840148.398716264
 10
628421.162236322
 20
4840352.716386068
  0
LWPOLYLINE
  5
56
330
17
100
AcDbEntity
  8
ROADS
100
AcDbPolyline
 90
2
 70
0
 10
628584.5692416902
 20
4840179.645330613
 10
628521.2285212999
 20
4840384.901946388
  0
LWPOLYLINE
  5
57
330
17
100
AcDbEntity
  8
ROADS
100
AcDbPolyline
 90
2
 70
0
 10
628678.028356819
 20
4840207.67404103
 10
628613.0734332611
 20
4840413.431537418
  0
LWPOLYLINE
  5
58
330
17
100
AcDbEntity
  8
ROADS
100
AcDbPolyline
 90
2
 70
0
 10
628521.2285212999
 20
4840384.901946388
 10
628432.526070953
 20
4840356.912260631
  0
LWPOLYLINE
  5
59
330
17
100
AcDbEntity
  8
ROADS
100
AcDbPolyline
 90
2
 70
0
 10
628826.2719138542
 20
4840082.552666216
 10
628780.0492027804
 20
4840238.845875391
  0
LWPOLYLINE
  5
5A
330
17
100
AcDbEntity
  8
ROADS
100
AcDbPolyline
 90
2
 70
0
 10
628759.3545805154
 20
4840232.7790633645
 10
628678.028356819
 20
4840207.67404103
  0
LWPOLYLINE
  5
5B
330
17
100
AcDbEntity
  8
ROADS
100
AcDbPolyline
 90
2
 70
0
 10
628894.4921136189
 20
4840202.904959499
 10
628875.9964241337
 20
4840265.2225217875
  0
LWPOLYLINE
  5
5C
330
17
100
AcDbEntity
  8
ROADS
100
AcDbPolyline
 90
2
 70
0
 10
628780.0492027804
 20
4840238.845875391
 10
628759.3545805154
 20
4840232.7790633645
  0
LWPOLYLINE
  5
5D
330
17
100
AcDbEntity
  8
ROADS
100
AcDbPolyline
 90
2
 70
0
 10
628837.8270784338
 20
4840257.47244024
 10
628780.0492027804
 20
4840238.845875391
  0
LWPOLYLINE
  5
5E
330
17
100
AcDbEntity
  8
ROADS
100
AcDbPolyline
 90
2
 70
0
 10
628875.9964241337
 20
4840265.2225217875
 10
628837.8270784338
 20
4840257.47244024
  0
LWPOLYLINE
  5
5F
330
17
100
AcDbEntity
  8
ROADS
100
AcDbPolyline
 90
2
 70
0
 10
628875.9964241337
 20
4840265.2225217875
 10
628904.6690268565
 20
4840403.531566615
  0
LWPOLYLINE
  5
60
330
17
100
AcDbEntity
  8
ROADS
100
AcDbPolyline
 90
2
 70
0
 10
628759.3545805154
 20
4840232.7790633645
 10
628691.4051515469
 20
4840440.541560377
  0
LWPOLYLINE
  5
61
330
17
100
AcDbEntity
  8
ROADS
100
AcDbPolyline
 90
2
 70
0
 10
628837.8270784338
 20
4840257.47244024
 10
628774.3427506163
 20
4840465.575789602
  0
LWPOLYLINE
  5
62
330
17
100
AcDbEntity
  8
ROADS
100
AcDbPolyline
 90
2
 70
0
 10
628904.6690268565
 20
4840403.531566615
 10
628871.3758039956
 20
4840404.0282433415
  0
LWPOLYLINE
  5
63
330
17
100
AcDbEntity
  8
ROADS
100
AcDbPolyline
 90
2
 70
0
 10
628227.9406522794
 20
4840294.731772682
 10
628141.0503745237
 20
4840267.350959499
  0
LWPOLYLINE
  5
64
330
17
100
AcDbEntity
  8
ROADS
100
AcDbPolyline
 90
2
 70
0
 10
628320.0652895015
 20
4840321.394253995
 10
628227.9406522794
 20
4840294.731772682
  0
LWPOLYLINE
  5
65
330
17
100
AcDbEntity
  8
ROADS
100
AcDbPolyline
 90
2
 70
0
 10
628388.2161008045
 20
4840342.544645071
 10
628320.0652895015
 20
4840321.394253995
  0
LWPOLYLINE
  5
66
330
17
100
AcDbEntity
  8
ROADS
100
AcDbPolyline
 90
2
 70
0
 10
628227.9406522794
 20
4840294.731772682
 10
628184.7540839345
 20
4840378.952915359
  0
LWPOLYLINE
  5
67
330
17
100
AcDbEntity
  8
ROADS
100
AcDbPolyline
 90
2
 70
0
 10
628421.162236322
 20
4840352.716386068
 10
628388.2161008045
 20
4840342.544645071
  0
LWPOLYLINE
  5
68
330
17
100
AcDbEntity
  8
ROADS
100
AcDbPolyline
 90
2
 70
0
 10
628432.526070953
 20
4840356.912260631
 10
628421.162236322
 20
4840352.716386068
  0
LWPOLYLINE
  5
69
330
17
100
AcDbEntity
  8
ROADS
100
AcDbPolyline
 90
2
 70
0
 10
628388.2161008045
 20
4840342.544645071
 10
628370.5817132186
 20
4840436.850788843
  0
LWPOLYLINE
  5
6A
330
17
100
AcDbEntity
  8
ROADS
100
AcDbPolyline
 90
2
 70
0
 10
628370.5817132186
 20
4840436.850788843
 10
628184.7540839345
 20
4840378.952915359
  0
LWPOLYLINE
  5
6B
330
17
100
AcDbEntity
  8
ROADS
100
AcDbPolyline
 90
3
 70
0
 10
628184.7540839345
 20
4840378.952915359
 10
628143.9631743149
 20
4840409.034863025
 10
628127.999808529
 20
4840458.41025114
  0
LWPOLYLINE
  5
6C
330
17
100
AcDbEntity
  8
ROADS
100
AcDbPolyline
 90
2
 70
0
 10
628370.5817132186
 20
4840436.850788843
 10
628347.6993517224
 20
4840526.768684407
  0
LWPOLYLINE
  5
6D
330
17
100
AcDbEntity
  8
ROADS
100
AcDbPolyline
 90
2
 70
0
 10
628565.1905385428
 20
4840398.382218861
 10
628521.2285212999
 20
4840384.901946388
  0
LWPOLYLINE
  5
6E
330
17
100
AcDbEntity
  8
ROADS
100
AcDbPolyline
 90
2
 70
0
 10
628613.0734332611
 20
4840413.431537418
 10
628565.1905385428
 20
4840398.382218861
  0
LWPOLYLINE
  5
6F
330
17
100
AcDbEntity
  8
ROADS
100
AcDbPolyline
 90
4
 70
0
 10
628432.526070953
 20
4840356.912260631
 10
628428.2387677905
 20
4840402.73370897
 10
628444.3692948901
 20
4840433.162554557
 10
628519.9517686653
 20
4840458.8367331615
  0
LWPOLYLINE
  5
70
330
17
100
AcDbEntity
  8
ROADS
100
AcDbPolyline
 90
2
 70
0
 10
628691.4051515469
 20
4840440.541560377
 10
628613.0734332611
 20
4840413.431537418
  0
LWPOLYLINE
  5
71
330
17
100
AcDbEntity
  8
ROADS
100
AcDbPolyline
 90
2
 70
0
 10
628565.1905385428
 20
4840398.382218861
 10
628519.9517686653
 20
4840458.8367331615
  0
LWPOLYLINE
  5
72
330
17
100
AcDbEntity
  8
ROADS
100
AcDbPolyline
 90
2
 70
0
 10
628519.9517686653
 20
4840458.8367331615
 10
628510.512352459
 20
4840484.194624333
  0
LWPOLYLINE
  5
73
330
17
100
AcDbEntity
  8
ROADS
100
AcDbPolyline
 90
2
 70
0
 10
628613.0734332611
 20
4840413.431537418
 10
628592.5614384034
 20
4840581.489567712
  0
LWPOLYLINE
  5
74
330
17
100
AcDbEntity
  8
ROADS
100
AcDbPolyline
 90
3
 70
0
 10
628510.512352459
 20
4840484.194624333
 10
628583.2315212877
 20
4840502.469523641
 10
628579.7064455946
 20
4840520.257924102
  0
LWPOLYLINE
  5
75
330
17
100
AcDbEntity
  8
ROADS
100
AcDbPolyline
 90
2
 70
0
 10
628510.512352459
 20
4840484.194624333
 10
628509.2440201789
 20
4840533.343923654
  0
LWPOLYLINE
  5
76
330
17
100
AcDbEntity
  8
ROADS
100
AcDbPolyline
 90
2
 70
0
 10
628509.2440201789
 20
4840533.343923654
 10
628518.3486099122
 20
4840500.01644925
  0
LWPOLYLINE
  5
77
330
17
100
AcDbEntity
  8
ROADS
100
AcDbPolyline
 90
2
 70
0
 10
628141.0503745237
 20
4840267.350959499
 10
628063.5146188512
 20
4840244.079653483
  0
LWPOLYLINE
  5
78
330
17
100
AcDbEntity
  8
ROADS
100
AcDbPolyline
 90
2
 70
0
 10
628101.2558601017
 20
4840353.682590724
 10
628025.2725431533
 20
4840329.402716834
  0
LWPOLYLINE
  5
79
330
17
100
AcDbEntity
  8
ROADS
100
AcDbPolyline
 90
2
 70
0
 10
628101.2558601017
 20
4840353.682590724
 10
628115.0290284117
 20
4840308.675859757
  0
LWPOLYLINE
  5
7A
330
17
100
AcDbEntity
  8
ROADS
100
AcDbPolyline
 90
2
 70
0
 10
628184.7540839345
 20
4840378.952915359
 10
628101.2558601017
 20
4840353.682590724
  0
LWPOLYLINE
  5
7B
330
17
100
AcDbEntity
  8
ROADS
100
AcDbPolyline
 90
2
 70
0
 10
628127.999808529
 20
4840458.41025114
 10
627994.2094316123
 20
4840417.756139443
  0
LWPOLYLINE
  5
7C
330
17
100
AcDbEntity
  8
ROADS
100
AcDbPolyline
 90
2
 70
0
 10
628127.999808529
 20
4840458.41025114
 10
628109.7663074429
 20
4840549.624275842
  0
LWPOLYLINE
  5
7D
330
17
100
AcDbEntity
  8
ROADS
100
AcDbPolyline
 90
2
 70
0
 10
628109.7663074429
 20
4840549.624275842
 10
627964.1557929973
 20
4840504.595411817
  0
LWPOLYLINE
  5
7E
330
17
100
AcDbEntity
  8
ROADS
100
AcDbPolyline
 90
2
 70
0
 10
628691.4051515469
 20
4840440.541560377
 10
628641.4770847048
 20
4840596.224578378
  0
LWPOLYLINE
  5
7F
330
17
100
AcDbEntity
  8
ROADS
100
AcDbPolyline
 90
2
 70
0
 10
628509.2440201789
 20
4840533.343923654
 10
628580.8980818882
 20
4840546.204203803
  0
LWPOLYLINE
  5
80
330
17
100
AcDbEntity
  8
ROADS
100
AcDbPolyline
 90
2
 70
0
 10
628509.2440201789
 20
4840533.343923654
 10
628496.7120134506
 20
4840585.69464022
  0
LWPOLYLINE
  5
81
330
17
100
AcDbEntity
  8
ROADS
100
AcDbPolyline
 90
2
 70
0
 10
628641.4770847048
 20
4840596.224578378
 10
628592.5614384034
 20
4840581.489567712
  0
LWPOLYLINE
  5
82
330
17
100
AcDbEntity
  8
ROADS
100
AcDbPolyline
 90
2
 70
0
 10
628496.7120134506
 20
4840585.69464022
 10
628574.9997393745
 20
4840601.803169681
  0
LWPOLYLINE
  5
83
330
17
100
AcDbEntity
  8
ROADS
100
AcDbPolyline
 90
2
 70
0
 10
628496.7120134506
 20
4840585.69464022
 10
628498.9093093309
 20
4840647.422472285
  0
LWPOLYLINE
  5
84
330
17
100
AcDbEntity
  8
ROADS
100
AcDbPolyline
 90
2
 70
0
 10
628592.5614384034
 20
4840581.489567712
 10
628569.804564776
 20
4840664.248309893
  0
LWPOLYLINE
  5
85
330
17
100
AcDbEntity
  8
ROADS
100
AcDbPolyline
 90
2
 70
0
 10
628641.4770847048
 20
4840596.224578378
 10
628612.3027958015
 20
4840690.201964143
  0
LWPOLYLINE
  5
86
330
17
100
AcDbEntity
  8
ROADS
100
AcDbPolyline
 90
2
 70
0
 10
628498.9093093309
 20
4840647.422472285
 10
628536.5636601301
 20
4840655.370452908
  0
LWPOLYLINE
  5
87
330
17
100
AcDbEntity
  8
ROADS
100
AcDbPolyline
 90
2
 70
0
 10
628498.9093093309
 20
4840647.422472285
 10
628493.2208968453
 20
4840666.160787763
  0
LWPOLYLINE
  5
88
330
17
100
AcDbEntity
  8
ROADS
100
AcDbPolyline
 90
2
 70
0
 10
628904.6690268565
 20
4840403.531566615
 10
628887.6058526803
 20
4840502.164478278
  0
LWPOLYLINE
  5
89
330
17
100
AcDbEntity
  8
ROADS
100
AcDbPolyline
 90
2
 70
0
 10
628774.3427506163
 20
4840465.575789602
 10
628691.4051515469
 20
4840440.541560377
  0
LWPOLYLINE
  5
8A
330
17
100
AcDbEntity
  8
ROADS
100
AcDbPolyline
 90
2
 70
0
 10
628796.4613268974
 20
4840472.0924095055
 10
628774.3427506163
 20
4840465.575789602
  0
LWPOLYLINE
  5
8B
330
17
100
AcDbEntity
  8
ROADS
100
AcDbPolyline
 90
2
 70
0
 10
628887.6058526803
 20
4840502.164478278
 10
628796.4613268974
 20
4840472.0924095055
  0
LWPOLYLINE
  5
8C
330
17
100
AcDbEntity
  8
ROADS
100
AcDbPolyline
 90
2
 70
0
 10
628796.4613268974
 20
4840472.0924095055
 10
628762.7017450907
 20
4840585.912213337
  0
LWPOLYLINE
  5
8D
330
17
100
AcDbEntity
  8
ROADS
100
AcDbPolyline
 90
2
 70
0
 10
628887.6058526803
 20
4840502.164478278
 10
628839.7221072016
 20
4840657.806564553
  0
LWPOLYLINE
  5
8E
330
17
100
AcDbEntity
  8
ROADS
100
AcDbPolyline
 90
2
 70
0
 10
628839.7221072016
 20
4840657.806564553
 10
628641.4770847048
 20
4840596.224578378
  0
LWPOLYLINE
  5
8F
330
17
100
AcDbEntity
  8
ROADS
100
AcDbPolyline
 90
2
 70
0
 10
629012.8399141871
 20
4840711.077423164
 10
628839.7221072016
 20
4840657.806564553
  0
LWPOLYLINE
  5
90
330
17
100
AcDbEntity
  8
ROADS
100
AcDbPolyline
 90
2
 70
0
 10
628839.7221072016
 20
4840657.806564553
 10
628825.1967536374
 20
4840757.090407191
  0
LWPOLYLINE
  5
91
330
17
100
AcDbEntity
  8
ROADS
100
AcDbPolyline
 90
2
 70
0
 10
628825.1967536374
 20
4840757.090407191
 10
628612.3027958015
 20
4840690.201964143
  0
LWPOLYLINE
  5
92
330
17
100
AcDbEntity
  8
ROADS
100
AcDbPolyline
 90
2
 70
0
 10
628347.6993517224
 20
4840526.768684407
 10
628127.999808529
 20
4840458.41025114
  0
LWPOLYLINE
  5
93
330
17
100
AcDbEntity
  8
ROADS
100
AcDbPolyline
 90
2
 70
0
 10
628149.1232217617
 20
4840560.990096907
 10
628160.4849380264
 20
4840518.9859327525
  0
LWPOLYLINE
  5
94
330
17
100
AcDbEntity
  8
ROADS
100
AcDbPolyline
 90
2
 70
0
 10
628347.6993517224
 20
4840526.768684407
 10
628340.2438487877
 20
4840564.878291545
  0
LWPOLYLINE
  5
95
330
17
100
AcDbEntity
  8
ROADS
100
AcDbPolyline
 90
2
 70
0
 10
628340.2438487877
 20
4840564.878291545
 10
628415.1106312935
 20
4840598.020034601
  0
LWPOLYLINE
  5
96
330
17
100
AcDbEntity
  8
ROADS
100
AcDbPolyline
 90
2
 70
0
 10
628329.160453874
 20
4840617.449204947
 10
628149.1232217617
 20
4840560.990096907
  0
LWPOLYLINE
  5
97
330
17
100
AcDbEntity
  8
ROADS
100
AcDbPolyline
 90
2
 70
0
 10
628340.2438487877
 20
4840564.878291545
 10
628329.160453874
 20
4840617.449204947
  0
LWPOLYLINE
  5
98
330
17
100
AcDbEntity
  8
ROADS
100
AcDbPolyline
 90
2
 70
0
 10
628329.160453874
 20
4840617.449204947
 10
628285.6310003827
 20
4840802.190704167
  0
LWPOLYLINE
  5
99
330
17
100
AcDbEntity
  8
ROADS
100
AcDbPolyline
 90
2
 70
0
 10
628285.6310003827
 20
4840802.190704167
 10
628064.821146226
 20
4840733.297977956
  0
LWPOLYLINE
  5
9A
330
17
100
AcDbEntity
  8
ROADS
100
AcDbPolyline
 90
2
 70
0
 10
628285.6310003827
 20
4840802.190704167
 10
628270.2308917848
 20
4840846.299942744
  0
LWPOLYLINE
  5
9B
330
17
100
AcDbEntity
  8
ROADS
100
AcDbPolyline
 90
2
 70
0
 10
628527.5593849731
 20
4840877.439055077
 10
628285.6310003827
 20
4840802.190704167
  0
LWPOLYLINE
  5
9C
330
17
100
AcDbEntity
  8
ROADS
100
AcDbPolyline
 90
2
 70
0
 10
628536.5636601301
 20
4840655.370452908
 10
628569.804564776
 20
4840664.248309893
  0
LWPOLYLINE
  5
9D
330
17
100
AcDbEntity
  8
ROADS
100
AcDbPolyline
 90
2
 70
0
 10
628536.5636601301
 20
4840655.370452908
 10
628507.0507240297
 20
4840678.545832754
  0
LWPOLYLINE
  5
9E
330
17
100
AcDbEntity
  8
ROADS
100
AcDbPolyline
 90
2
 70
0
 10
628493.2208968453
 20
4840666.160787763
 10
628507.0507240297
 20
4840678.545832754
  0
LWPOLYLINE
  5
9F
330
17
100
AcDbEntity
  8
ROADS
100
AcDbPolyline
 90
2
 70
0
 10
628493.2208968453
 20
4840666.160787763
 10
628481.600124955
 20
4840686.6658830885
  0
LWPOLYLINE
  5
A0
330
17
100
AcDbEntity
  8
ROADS
100
AcDbPolyline
 90
2
 70
0
 10
628569.804564776
 20
4840664.248309893
 10
628555.3524565332
 20
4840698.376083672
  0
LWPOLYLINE
  5
A1
330
17
100
AcDbEntity
  8
ROADS
100
AcDbPolyline
 90
2
 70
0
 10
628507.0507240297
 20
4840678.545832754
 10
628555.3524565332
 20
4840698.376083672
  0
LWPOLYLINE
  5
A2
330
17
100
AcDbEntity
  8
ROADS
100
AcDbPolyline
 90
2
 70
0
 10
628612.3027958015
 20
4840690.201964143
 10
628599.0729686364
 20
4840745.9652917655
  0
LWPOLYLINE
  5
A3
330
17
100
AcDbEntity
  8
ROADS
100
AcDbPolyline
 90
3
 70
0
 10
628555.3524565332
 20
4840698.376083672
 10
628517.245377063
 20
4840855.73699989
 10
628527.5593849731
 20
4840877.439055077
  0
LWPOLYLINE
  5
A4
330
17
100
AcDbEntity
  8
ROADS
100
AcDbPolyline
 90
2
 70
0
 10
628599.0729686364
 20
4840745.9652917655
 10
628557.5685076311
 20
4840885.721585524
  0
LWPOLYLINE
  5
A5
330
17
100
AcDbEntity
  8
ROADS
100
AcDbPolyline
 90
2
 70
0
 10
628557.5685076311
 20
4840885.721585524
 10
628527.5593849731
 20
4840877.439055077
  0
LWPOLYLINE
  5
A6
330
17
100
AcDbEntity
  8
ROADS
100
AcDbPolyline
 90
2
 70
0
 10
628149.1232217617
 20
4840560.990096907
 10
628109.7663074429
 20
4840549.624275842
  0
LWPOLYLINE
  5
A7
330
17
100
AcDbEntity
  8
ROADS
100
AcDbPolyline
 90
2
 70
0
 10
628109.7663074429
 20
4840549.624275842
 10
628091.425606261
 20
4840638.913226657
  0
LWPOLYLINE
  5
A8
330
17
100
AcDbEntity
  8
ROADS
100
AcDbPolyline
 90
2
 70
0
 10
628091.425606261
 20
4840638.913226657
 10
627942.0221619672
 20
4840592.997059329
  0
LWPOLYLINE
  5
A9
330
17
100
AcDbEntity
  8
ROADS
100
AcDbPolyline
 90
2
 70
0
 10
628091.425606261
 20
4840638.913226657
 10
628064.821146226
 20
4840733.297977956
  0
LWPOLYLINE
  5
AA
330
17
100
AcDbEntity
  8
ROADS
100
AcDbPolyline
 90
2
 70
0
 10
628064.821146226
 20
4840733.297977956
 10
627919.2578536439
 20
4840687.164268592
  0
LWPOLYLINE
  5
AB
330
17
100
AcDbEntity
  8
ROADS
100
AcDbPolyline
 90
2
 70
0
 10
628064.821146226
 20
4840733.297977956
 10
628034.8027406422
 20
4840830.761142653
  0
LWPOLYLINE
  5
AC
330
17
100
AcDbEntity
  8
ROADS
100
AcDbPolyline
 90
2
 70
0
 10
628034.8027406422
 20
4840830.761142653
 10
628004.9573411811
 20
4840927.228356454
  0
LWPOLYLINE
  5
AD
330
17
100
AcDbEntity
  8
ROADS
100
AcDbPolyline
 90
2
 70
0
 10
628004.9573411811
 20
4840927.228356454
 10
627976.2557568768
 20
4841023.874261678
  0
LWPOLYLINE
  5
AE
330
17
100
AcDbEntity
  8
ROADS
100
AcDbPolyline
 90
2
 70
0
 10
628288.8505653765
 20
4841121.113824969
 10
627976.2557568768
 20
4841023.874261678
  0
LWPOLYLINE
  5
AF
330
17
100
AcDbEntity
  8
ROADS
100
AcDbPolyline
 90
2
 70
0
 10
628822.2673144235
 20
4840813.864207552
 10
628599.0729686364
 20
4840745.9652917655
  0
LWPOLYLINE
  5
B0
330
17
100
AcDbEntity
  8
ROADS
100
AcDbPolyline
 90
2
 70
0
 10
628995.5832445449
 20
4840808.294755926
 10
628825.1967536374
 20
4840757.090407191
  0
LWPOLYLINE
  5
B1
330
17
100
AcDbEntity
  8
ROADS
100
AcDbPolyline
 90
2
 70
0
 10
628825.1967536374
 20
4840757.090407191
 10
628822.2673144235
 20
4840813.864207552
  0
LWPOLYLINE
  5
B2
330
17
100
AcDbEntity
  8
ROADS
100
AcDbPolyline
 90
2
 70
0
 10
628986.1766697764
 20
4840863.697295977
 10
628822.2673144235
 20
4840813.864207552
  0
LWPOLYLINE
  5
B3
330
17
100
AcDbEntity
  8
ROADS
100
AcDbPolyline
 90
2
 70
0
 10
628822.2673144235
 20
4840813.864207552
 10
628814.8900602448
 20
4840966.719965607
  0
LWPOLYLINE
  5
B4
330
17
100
AcDbEntity
  8
ROADS
100
AcDbPolyline
 90
2
 70
0
 10
628961.1999540906
 20
4841012.532407031
 10
628814.8900602448
 20
4840966.719965607
  0
LWPOLYLINE
  5
B5
330
17
100
AcDbEntity
  8
ROADS
100
AcDbPolyline
 90
2
 70
0
 10
628814.8900602448
 20
4840966.719965607
 10
628801.8874990495
 20
4841070.3266326245
  0
LWPOLYLINE
  5
B6
330
17
100
AcDbEntity
  8
ROADS
100
AcDbPolyline
 90
2
 70
0
 10
628958.3853645585
 20
4841030.460687862
 10
628942.349743752
 20
4841113.444125315
  0
LWPOLYLINE
  5
B7
330
17
100
AcDbEntity
  8
ROADS
100
AcDbPolyline
 90
2
 70
0
 10
628898.0893738382
 20
4841100.478380645
 10
628906.8055344255
 20
4841049.878691593
  0
LWPOLYLINE
  5
B8
330
17
100
AcDbEntity
  8
ROADS
100
AcDbPolyline
 90
2
 70
0
 10
628898.0893738382
 20
4841100.478380645
 10
628801.8874990495
 20
4841070.3266326245
  0
LWPOLYLINE
  5
B9
330
17
100
AcDbEntity
  8
ROADS
100
AcDbPolyline
 90
2
 70
0
 10
628270.2308917848
 20
4840846.299942744
 10
628242.5815999501
 20
4840837.926114812
  0
LWPOLYLINE
  5
BA
330
17
100
AcDbEntity
  8
ROADS
100
AcDbPolyline
 90
2
 70
0
 10
628270.2308917848
 20
4840846.299942744
 10
628301.7227101042
 20
4840857.090456285
  0
LWPOLYLINE
  5
BB
330
17
100
AcDbEntity
  8
ROADS
100
AcDbPolyline
 90
2
 70
0
 10
628497.142646921
 20
4840974.804128429
 10
628034.8027406422
 20
4840830.761142653
  0
LWPOLYLINE
  5
BC
330
17
100
AcDbEntity
  8
ROADS
100
AcDbPolyline
 90
2
 70
0
 10
628318.3192660267
 20
4841025.627793761
 10
628004.9573411811
 20
4840927.228356454
  0
LWPOLYLINE
  5
BD
330
17
100
AcDbEntity
  8
ROADS
100
AcDbPolyline
 90
2
 70
0
 10
628466.119727018
 20
4841071.457169081
 10
628318.3192660267
 20
4841025.627793761
  0
LWPOLYLINE
  5
BE
330
17
100
AcDbEntity
  8
ROADS
100
AcDbPolyline
 90
2
 70
0
 10
628318.3192660267
 20
4841025.627793761
 10
628288.8505653765
 20
4841121.113824969
  0
LWPOLYLINE
  5
BF
330
17
100
AcDbEntity
  8
ROADS
100
AcDbPolyline
 90
2
 70
0
 10
628421.5823715132
 20
4841162.778300754
 10
628288.8505653765
 20
4841121.113824969
  0
LWPOLYLINE
  5
C0
330
17
100
AcDbEntity
  8
ROADS
100
AcDbPolyline
 90
2
 70
0
 10
628436.3630009657
 20
4841167.550066908
 10
628421.5823715132
 20
4841162.778300754
  0
LWPOLYLINE
  5
C1
330
17
100
AcDbEntity
  8
ROADS
100
AcDbPolyline
 90
2
 70
0
 10
628204.8200873267
 20
4841158.361752269
 10
628181.6278111032
 20
4841192.944345932
  0
LWPOLYLINE
  5
C2
330
17
100
AcDbEntity
  8
ROADS
100
AcDbPolyline
 90
2
 70
0
 10
628421.5823715132
 20
4841162.778300754
 10
628391.3290510805
 20
4841257.243085205
  0
LWPOLYLINE
  5
C3
330
17
100
AcDbEntity
  8
ROADS
100
AcDbPolyline
 90
2
 70
0
 10
628527.5593849731
 20
4840877.439055077
 10
628497.142646921
 20
4840974.804128429
  0
LWPOLYLINE
  5
C4
330
17
100
AcDbEntity
  8
ROADS
100
AcDbPolyline
 90
2
 70
0
 10
628814.8900602448
 20
4840966.719965607
 10
628557.5685076311
 20
4840885.721585524
  0
LWPOLYLINE
  5
C5
330
17
100
AcDbEntity
  8
ROADS
100
AcDbPolyline
 90
2
 70
0
 10
628801.8874990495
 20
4841070.3266326245
 10
628497.142646921
 20
4840974.804128429
  0
LWPOLYLINE
  5
C6
330
17
100
AcDbEntity
  8
ROADS
100
AcDbPolyline
 90
2
 70
0
 10
628497.142646921
 20
4840974.804128429
 10
628466.119727018
 20
4841071.457169081
  0
LWPOLYLINE
  5
C7
330
17
100
AcDbEntity
  8
ROADS
100
AcDbPolyline
 90
2
 70
0
 10
628466.119727018
 20
4841071.457169081
 10
628436.3630009657
 20
4841167.550066908
  0
LWPOLYLINE
  5
C8
330
17
100
AcDbEntity
  8
ROADS
100
AcDbPolyline
 90
2
 70
0
 10
628785.1074782258
 20
4841171.179755652
 10
628466.119727018
 20
4841071.457169081
  0
LWPOLYLINE
  5
C9
330
17
100
AcDbEntity
  8
ROADS
100
AcDbPolyline
 90
2
 70
0
 10
628766.0844913044
 20
4841270.363170876
 10
628436.3630009657
 20
4841167.550066908
  0
LWPOLYLINE
  5
CA
330
17
100
AcDbEntity
  8
ROADS
100
AcDbPolyline
 90
2
 70
0
 10
628733.9244523913
 20
4841366.183631249
 10
628391.3290510805
 20
4841257.243085205
  0
LWPOLYLINE
  5
CB
330
17
100
AcDbEntity
  8
ROADS
100
AcDbPolyline
 90
2
 70
0
 10
628701.030387506
 20
4841462.4988240255
 10
628334.4221923578
 20
4841346.721221826
  0
LWPOLYLINE
  5
CC
330
17
100
AcDbEntity
  8
ROADS
100
AcDbPolyline
 90
2
 70
0
 10
628487.7773600208
 20
4841450.500083094
 10
628473.0807156469
 20
4841498.228288657
  0
LWPOLYLINE
  5
CD
330
17
100
AcDbEntity
  8
ROADS
100
AcDbPolyline
 90
2
 70
0
 10
627976.2557568768
 20
4841023.874261678
 10
627955.6743268956
 20
4841123.910300646
  0
LWPOLYLINE
  5
CE
330
17
100
AcDbEntity
  8
ROADS
100
AcDbPolyline
 90
2
 70
0
 10
628181.6278111032
 20
4841192.944345932
 10
627955.6743268956
 20
4841123.910300646
  0
LWPOLYLINE
  5
CF
330
17
100
AcDbEntity
  8
ROADS
100
AcDbPolyline
 90
2
 70
0
 10
627955.6743268956
 20
4841123.910300646
 10
627947.3105644404
 20
4841228.206680497
  0
LWPOLYLINE
  5
D0
330
17
100
AcDbEntity
  8
ROADS
100
AcDbPolyline
 90
3
 70
0
 10
628154.2775963063
 20
4841237.953375307
 10
628118.2297752615
 20
4841281.803937954
 10
627947.3105644404
 20
4841228.206680497
  0
LWPOLYLINE
  5
D1
330
17
100
AcDbEntity
  8
ROADS
100
AcDbPolyline
 90
2
 70
0
 10
627947.3105644404
 20
4841228.206680497
 10
627936.4185299914
 20
4841331.015210102
  0
LWPOLYLINE
  5
D2
330
17
100
AcDbEntity
  8
ROADS
100
AcDbPolyline
 90
2
 70
0
 10
627936.4185299914
 20
4841331.015210102
 10
627933.0460882098
 20
4841365.456402549
  0
LWPOLYLINE
  5
D3
330
17
100
AcDbEntity
  8
ROADS
100
AcDbPolyline
 90
2
 70
0
 10
627992.6979924709
 20
4841381.368853634
 10
627933.0460882098
 20
4841365.456402549
  0
LWPOLYLINE
  5
D4
330
17
100
AcDbEntity
  8
ROADS
100
AcDbPolyline
 90
3
 70
0
 10
628107.3557785475
 20
4841414.61679248
 10
628048.5188519077
 20
4841358.310462844
 10
627992.6979924709
 20
4841381.368853634
  0
LWPOLYLINE
  5
D5
330
17
100
AcDbEntity
  8
ROADS
100
AcDbPolyline
 90
2
 70
0
 10
627933.0460882098
 20
4841365.456402549
 10
627981.2236204502
 20
4841420.290065236
  0
LWPOLYLINE
  5
D6
330
17
100
AcDbEntity
  8
ROADS
100
AcDbPolyline
 90
3
 70
0
 10
628111.6421889665
 20
4841379.573082082
 10
628097.8675250231
 20
4841385.418203123
 10
628107.3557785475
 20
4841414.61679248
  0
LWPOLYLINE
  5
D7
330
17
100
AcDbEntity
  8
ROADS
100
AcDbPolyline
 90
2
 70
0
 10
627933.0460882098
 20
4841365.456402549
 10
627927.8375415606
 20
4841436.14870297
  0
LWPOLYLINE
  5
D8
330
17
100
AcDbEntity
  8
ROADS
100
AcDbPolyline
 90
2
 70
0
 10
627992.6979924709
 20
4841381.368853634
 10
627981.2236204502
 20
4841420.290065236
  0
LWPOLYLINE
  5
D9
330
17
100
AcDbEntity
  8
ROADS
100
AcDbPolyline
 90
2
 70
0
 10
627981.2236204502
 20
4841420.290065236
 10
627967.5043677982
 20
4841428.701017123
  0
LWPOLYLINE
  5
DA
330
17
100
AcDbEntity
  8
ROADS
100
AcDbPolyline
 90
2
 70
0
 10
627981.2236204502
 20
4841420.290065236
 10
627974.6278663542
 20
4841441.215728264
  0
LWPOLYLINE
  5
DB
330
17
100
AcDbEntity
  8
ROADS
100
AcDbPolyline
 90
2
 70
0
 10
627967.5043677982
 20
4841428.701017123
 10
627950.6919426802
 20
4841435.434220728
  0
LWPOLYLINE
  5
DC
330
17
100
AcDbEntity
  8
ROADS
100
AcDbPolyline
 90
3
 70
0
 10
628107.3557785475
 20
4841414.61679248
 10
628087.6092448916
 20
4841416.067562864
 10
628060.7277591391
 20
4841453.189532951
  0
LWPOLYLINE
  5
DD
330
17
100
AcDbEntity
  8
ROADS
100
AcDbPolyline
 90
2
 70
0
 10
627967.5043677982
 20
4841428.701017123
 10
627974.6278663542
 20
4841441.215728264
  0
LWPOLYLINE
  5
DE
330
17
100
AcDbEntity
  8
ROADS
100
AcDbPolyline
 90
2
 70
0
 10
627950.6919426802
 20
4841435.434220728
 10
627927.8375415606
 20
4841436.14870297
  0
LWPOLYLINE
  5
DF
330
17
100
AcDbEntity
  8
ROADS
100
AcDbPolyline
 90
2
 70
0
 10
628079.684643524
 20
4841464.979334113
 10
628107.3557785475
 20
4841414.61679248
  0
LWPOLYLINE
  5
E0
330
17
100
AcDbEntity
  8
ROADS
100
AcDbPolyline
 90
2
 70
0
 10
627950.6919426802
 20
4841435.434220728
 10
627925.2989266566
 20
4841458.223186242
  0
LWPOLYLINE
  5
E1
330
17
100
AcDbEntity
  8
ROADS
100
AcDbPolyline
 90
2
 70
0
 10
628034.8027406422
 20
4840830.761142653
 10
627901.1153617448
 20
4840788.523608588
  0
LWPOLYLINE
  5
E2
330
17
100
AcDbEntity
  8
ROADS
100
AcDbPolyline
 90
2
 70
0
 10
628004.9573411811
 20
4840927.228356454
 10
627890.8434470424
 20
4840892.076308784
  0
LWPOLYLINE
  5
E3
330
17
100
AcDbEntity
  8
ROADS
100
AcDbPolyline
 90
2
 70
0
 10
627976.2557568768
 20
4841023.874261678
 10
627888.7039333655
 20
4840996.528281047
  0
LWPOLYLINE
  5
E4
330
17
100
AcDbEntity
  8
ROADS
100
AcDbPolyline
 90
2
 70
0
 10
627955.6743268956
 20
4841123.910300646
 10
627868.924804951
 20
4841096.903412364
  0
LWPOLYLINE
  5
E5
330
17
100
AcDbEntity
  8
ROADS
100
AcDbPolyline
 90
2
 70
0
 10
627947.3105644404
 20
4841228.206680497
 10
627857.224690162
 20
4841200.041294865
  0
LWPOLYLINE
  5
E6
330
17
100
AcDbEntity
  8
ROADS
100
AcDbPolyline
 90
2
 70
0
 10
627936.4185299914
 20
4841331.015210102
 10
627839.2781143246
 20
4841300.974586578
  0
LWPOLYLINE
  5
E7
330
17
100
AcDbEntity
  8
ROADS
100
AcDbPolyline
 90
2
 70
0
 10
627927.8375415606
 20
4841436.14870297
 10
627810.8948288638
 20
4841399.558783614
  0
LWPOLYLINE
  5
E8
330
17
100
AcDbEntity
  8
ROADS
100
AcDbPolyline
 90
2
 70
0
 10
627808.7924842156
 20
4841529.287475857
 10
627784.5420781516
 20
4841521.978244072
  0
LWPOLYLINE
  5
E9
330
17
100
AcDbEntity
  8
ROADS
100
AcDbPolyline
 90
2
 70
0
 10
627898.822558823
 20
4841555.796352738
 10
627808.7924842156
 20
4841529.287475857
  0
LWPOLYLINE
  5
EA
330
17
100
AcDbEntity
  8
ROADS
100
AcDbPolyline
 90
2
 70
0
 10
627808.7924842156
 20
4841529.287475857
 10
627772.8921989773
 20
4841560.025669808
  0
LWPOLYLINE
  5
EB
330
17
100
AcDbEntity
  8
ROADS
100
AcDbPolyline
 90
2
 70
0
 10
627898.822558823
 20
4841555.796352738
 10
627804.9220786695
 20
4841659.711287556
  0
LWPOLYLINE
  5
EC
330
17
100
AcDbEntity
  8
ROADS
100
AcDbPolyline
 90
2
 70
0
 10
627804.9220786695
 20
4841659.711287556
 10
627751.0592395393
 20
4841643.188083744
  0
LWPOLYLINE
  5
ED
330
17
100
AcDbEntity
  8
ROADS
100
AcDbPolyline
 90
2
 70
0
 10
627804.9220786695
 20
4841659.711287556
 10
627733.8335752888
 20
4841744.488771806
  0
LWPOLYLINE
  5
EE
330
17
100
AcDbEntity
  8
ROADS
100
AcDbPolyline
 90
2
 70
0
 10
628120.8948499158
 20
4841756.393991282
 10
627804.9220786695
 20
4841659.711287556
  0
LWPOLYLINE
  5
EF
330
17
100
AcDbEntity
  8
ROADS
100
AcDbPolyline
 90
2
 70
0
 10
628120.8948499158
 20
4841756.393991282
 10
628084.0899233037
 20
4841873.240528865
  0
LWPOLYLINE
  5
F0
330
17
100
AcDbEntity
  8
ROADS
100
AcDbPolyline
 90
2
 70
0
 10
628084.0899233037
 20
4841873.240528865
 10
627731.6171163116
 20
4841766.911503935
  0
LWPOLYLINE
  5
F1
330
17
100
AcDbEntity
  8
ROADS
100
AcDbPolyline
 90
3
 70
0
 10
628084.0899233037
 20
4841873.240528865
 10
628048.2929431647
 20
4841977.603474018
 10
627957.0096173985
 20
4842039.459491421
  0
LWPOLYLINE
  5
F2
330
17
100
AcDbEntity
  8
ROADS
100
AcDbPolyline
 90
2
 70
0
 10
628024.1917614506
 20
4842083.178140594
 10
627957.0096173985
 20
4842039.459491421
  0
LWPOLYLINE
  5
F3
330
17
100
AcDbEntity
  8
ROADS
100
AcDbPolyline
 90
3
 70
0
 10
628231.3323378875
 20
4842213.1333558755
 10
628148.6425615185
 20
4842231.444037427
 10
628048.8063111311
 20
4842281.160427271
  0
LWPOLYLINE
  5
F4
330
17
100
AcDbEntity
  8
ROADS
100
AcDbPolyline
 90
2
 70
0
 10
628195.7238269337
 20
4842329.01247464
 10
628048.8063111311
 20
4842281.160427271
  0
LWPOLYLINE
  5
F5
330
17
100
AcDbEntity
  8
ROADS
100
AcDbPolyline
 90
2
 70
0
 10
628048.8063111311
 20
4842281.160427271
 10
627969.3645080377
 20
4842356.28753118
  0
LWPOLYLINE
  5
F6
330
17
100
AcDbEntity
  8
ROADS
100
AcDbPolyline
 90
2
 70
0
 10
627969.3645080377
 20
4842356.28753118
 10
627900.8132450541
 20
4842335.945559375
  0
LWPOLYLINE
  5
F7
330
17
100
AcDbEntity
  8
ROADS
100
AcDbPolyline
 90
2
 70
0
 10
627900.8132450541
 20
4842335.945559375
 10
627876.2730133225
 20
4842415.270522281
  0
LWPOLYLINE
  5
F8
330
17
100
AcDbEntity
  8
ROADS
100
AcDbPolyline
 90
2
 70
0
 10
627957.0096173985
 20
4842039.459491421
 10
627786.0430550129
 20
4842210.647568137
  0
LWPOLYLINE
  5
F9
330
17
100
AcDbEntity
  8
ROADS
100
AcDbPolyline
 90
2
 70
0
 10
627900.8132450541
 20
4842335.945559375
 10
627818.5047321182
 20
4842309.494165365
  0
LWPOLYLINE
  5
FA
330
17
100
AcDbEntity
  8
ROADS
100
AcDbPolyline
 90
2
 70
0
 10
628181.6278111032
 20
4841192.944345932
 10
628154.2775963063
 20
4841237.953375307
  0
LWPOLYLINE
  5
FB
330
17
100
AcDbEntity
  8
ROADS
100
AcDbPolyline
 90
2
 70
0
 10
628346.3336230388
 20
4841299.932692546
 10
628154.2775963063
 20
4841237.953375307
  0
LWPOLYLINE
  5
FC
330
17
100
AcDbEntity
  8
ROADS
100
AcDbPolyline
 90
3
 70
0
 10
628391.3290510805
 20
4841257.243085205
 10
628364.320542984
 20
4841262.754727294
 10
628346.3336230388
 20
4841299.932692546
  0
LWPOLYLINE
  5
FD
330
17
100
AcDbEntity
  8
ROADS
100
AcDbPolyline
 90
2
 70
0
 10
628346.3336230388
 20
4841299.932692546
 10
628334.4221923578
 20
4841346.721221826
  0
LWPOLYLINE
  5
FE
330
17
100
AcDbEntity
  8
ROADS
100
AcDbPolyline
 90
2
 70
0
 10
628334.4221923578
 20
4841346.721221826
 10
628305.9729924077
 20
4841445.714909262
  0
LWPOLYLINE
  5
FF
330
17
100
AcDbEntity
  8
ROADS
100
AcDbPolyline
 90
3
 70
0
 10
628305.9729924077
 20
4841445.714909262
 10
628163.8292125887
 20
4841402.637928669
 10
628107.3557785475
 20
4841414.61679248
  0
LWPOLYLINE
  5
100
330
17
100
AcDbEntity
  8
ROADS
100
AcDbPolyline
 90
2
 70
0
 10
628473.0807156469
 20
4841498.228288657
 10
628305.9729924077
 20
4841445.714909262
  0
LWPOLYLINE
  5
101
330
17
100
AcDbEntity
  8
ROADS
100
AcDbPolyline
 90
2
 70
0
 10
628442.604349971
 20
4841596.502273919
 10
628193.8939600394
 20
4841520.191625812
  0
LWPOLYLINE
  5
102
330
17
100
AcDbEntity
  8
ROADS
100
AcDbPolyline
 90
2
 70
0
 10
628193.8939600394
 20
4841520.191625812
 10
628157.64516183
 20
4841635.545179987
  0
LWPOLYLINE
  5
103
330
17
100
AcDbEntity
  8
ROADS
100
AcDbPolyline
 90
2
 70
0
 10
628442.604349971
 20
4841596.502273919
 10
628406.5164623382
 20
4841710.200709029
  0
LWPOLYLINE
  5
104
330
17
100
AcDbEntity
  8
ROADS
100
AcDbPolyline
 90
2
 70
0
 10
627927.8375415606
 20
4841436.14870297
 10
627925.2989266566
 20
4841458.223186242
  0
LWPOLYLINE
  5
105
330
17
100
AcDbEntity
  8
ROADS
100
AcDbPolyline
 90
2
 70
0
 10
627974.6278663542
 20
4841441.215728264
 10
627988.5686506554
 20
4841453.600794725
  0
LWPOLYLINE
  5
106
330
17
100
AcDbEntity
  8
ROADS
100
AcDbPolyline
 90
2
 70
0
 10
628060.7277591391
 20
4841453.189532951
 10
628079.684643524
 20
4841464.979334113
  0
LWPOLYLINE
  5
107
330
17
100
AcDbEntity
  8
ROADS
100
AcDbPolyline
 90
2
 70
0
 10
628060.7277591391
 20
4841453.189532951
 10
628032.1735621488
 20
4841487.02901584
  0
LWPOLYLINE
  5
108
330
17
100
AcDbEntity
  8
ROADS
100
AcDbPolyline
 90
2
 70
0
 10
627925.2989266566
 20
4841458.223186242
 10
627921.5929251935
 20
4841490.5382036315
  0
LWPOLYLINE
  5
109
330
17
100
AcDbEntity
  8
ROADS
100
AcDbPolyline
 90
2
 70
0
 10
627921.5929251935
 20
4841490.5382036315
 10
627986.1797004294
 20
4841472.212766641
  0
LWPOLYLINE
  5
10A
330
17
100
AcDbEntity
  8
ROADS
100
AcDbPolyline
 90
3
 70
0
 10
628193.8939600394
 20
4841520.191625812
 10
628094.733735849
 20
4841490.39330626
 10
628079.684643524
 20
4841464.979334113
  0
LWPOLYLINE
  5
10B
330
17
100
AcDbEntity
  8
ROADS
100
AcDbPolyline
 90
2
 70
0
 10
627921.5929251935
 20
4841490.5382036315
 10
627898.822558823
 20
4841555.796352738
  0
LWPOLYLINE
  5
10C
330
17
100
AcDbEntity
  8
ROADS
100
AcDbPolyline
 90
2
 70
0
 10
628157.64516183
 20
4841635.545179987
 10
627898.822558823
 20
4841555.796352738
  0
LWPOLYLINE
  5
10D
330
17
100
AcDbEntity
  8
ROADS
100
AcDbPolyline
 90
2
 70
0
 10
628157.64516183
 20
4841635.545179987
 10
628120.8948499158
 20
4841756.393991282
  0
LWPOLYLINE
  5
10E
330
17
100
AcDbEntity
  8
ROADS
100
AcDbPolyline
 90
2
 70
0
 10
628801.3201576255
 20
4841599.98533918
 10
628668.5016652396
 20
4841559.126630411
  0
LWPOLYLINE
  5
10F
330
17
100
AcDbEntity
  8
ROADS
100
AcDbPolyline
 90
2
 70
0
 10
628855.4318251015
 20
4841616.506154847
 10
628801.3201576255
 20
4841599.98533918
  0
LWPOLYLINE
  5
110
330
17
100
AcDbEntity
  8
ROADS
100
AcDbPolyline
 90
2
 70
0
 10
628801.3201576255
 20
4841599.98533918
 10
628806.5410492886
 20
4841621.2307400685
  0
LWPOLYLINE
  5
111
330
17
100
AcDbEntity
  8
ROADS
100
AcDbPolyline
 90
3
 70
0
 10
628806.5410492886
 20
4841621.2307400685
 10
628798.8043941732
 20
4841637.042795909
 10
628818.9837982983
 20
4841639.4161243485
  0
LWPOLYLINE
  5
112
330
17
100
AcDbEntity
  8
ROADS
100
AcDbPolyline
 90
2
 70
0
 10
628806.5410492886
 20
4841621.2307400685
 10
628818.9837982983
 20
4841639.4161243485
  0
LWPOLYLINE
  5
113
330
17
100
AcDbEntity
  8
ROADS
100
AcDbPolyline
 90
2
 70
0
 10
628855.4318251015
 20
4841616.506154847
 10
628851.4988961495
 20
4841645.941460411
  0
LWPOLYLINE
  5
114
330
17
100
AcDbEntity
  8
ROADS
100
AcDbPolyline
 90
2
 70
0
 10
628818.9837982983
 20
4841639.4161243485
 10
628851.4988961495
 20
4841645.941460411
  0
LWPOLYLINE
  5
115
330
17
100
AcDbEntity
  8
ROADS
100
AcDbPolyline
 90
2
 70
0
 10
628851.4988961495
 20
4841645.941460411
 10
628958.3653848094
 20
4841671.731573456
  0
LWPOLYLINE
  5
116
330
17
100
AcDbEntity
  8
ROADS
100
AcDbPolyline
 90
2
 70
0
 10
628851.4988961495
 20
4841645.941460411
 10
628838.2936242116
 20
4841718.242846997
  0
LWPOLYLINE
  5
117
330
17
100
AcDbEntity
  8
ROADS
100
AcDbPolyline
 90
2
 70
0
 10
628838.2936242116
 20
4841718.242846997
 10
628638.1382790331
 20
4841657.068690274
  0
LWPOLYLINE
  5
118
330
17
100
AcDbEntity
  8
ROADS
100
AcDbPolyline
 90
2
 70
0
 10
628701.030387506
 20
4841462.4988240255
 10
628668.5016652396
 20
4841559.126630411
  0
LWPOLYLINE
  5
119
330
17
100
AcDbEntity
  8
ROADS
100
AcDbPolyline
 90
2
 70
0
 10
628668.5016652396
 20
4841559.126630411
 10
628473.0807156469
 20
4841498.228288657
  0
LWPOLYLINE
  5
11A
330
17
100
AcDbEntity
  8
ROADS
100
AcDbPolyline
 90
2
 70
0
 10
628473.0807156469
 20
4841498.228288657
 10
628442.604349971
 20
4841596.502273919
  0
LWPOLYLINE
  5
11B
330
17
100
AcDbEntity
  8
ROADS
100
AcDbPolyline
 90
2
 70
0
 10
628668.5016652396
 20
4841559.126630411
 10
628638.1382790331
 20
4841657.068690274
  0
LWPOLYLINE
  5
11C
330
17
100
AcDbEntity
  8
ROADS
100
AcDbPolyline
 90
2
 70
0
 10
628638.1382790331
 20
4841657.068690274
 10
628442.604349971
 20
4841596.502273919
  0
LWPOLYLINE
  5
11D
330
17
100
AcDbEntity
  8
ROADS
100
AcDbPolyline
 90
2
 70
0
 10
628638.1382790331
 20
4841657.068690274
 10
628602.0558204215
 20
4841769.028168454
  0
LWPOLYLINE
  5
11E
330
17
100
AcDbEntity
  8
ROADS
100
AcDbPolyline
 90
2
 70
0
 10
628602.0558204215
 20
4841769.028168454
 10
628406.5164623382
 20
4841710.200709029
  0
LWPOLYLINE
  5
11F
330
17
100
AcDbEntity
  8
ROADS
100
AcDbPolyline
 90
2
 70
0
 10
628602.0558204215
 20
4841769.028168454
 10
628565.2222446194
 20
4841890.6596715385
  0
LWPOLYLINE
  5
120
330
17
100
AcDbEntity
  8
ROADS
100
AcDbPolyline
 90
2
 70
0
 10
628565.2222446194
 20
4841890.6596715385
 10
628474.0010419755
 20
4841862.431985937
  0
LWPOLYLINE
  5
121
330
17
100
AcDbEntity
  8
ROADS
100
AcDbPolyline
 90
2
 70
0
 10
628474.0010419755
 20
4841862.431985937
 10
628438.4992254919
 20
4841980.8203201
  0
LWPOLYLINE
  5
122
330
17
100
AcDbEntity
  8
ROADS
100
AcDbPolyline
 90
2
 70
0
 10
628406.5164623382
 20
4841710.200709029
 10
628157.64516183
 20
4841635.545179987
  0
LWPOLYLINE
  5
123
330
17
100
AcDbEntity
  8
ROADS
100
AcDbPolyline
 90
2
 70
0
 10
628406.5164623382
 20
4841710.200709029
 10
628369.768444164
 20
4841831.085646379
  0
LWPOLYLINE
  5
124
330
17
100
AcDbEntity
  8
ROADS
100
AcDbPolyline
 90
2
 70
0
 10
628274.6402175758
 20
4841802.295251623
 10
628120.8948499158
 20
4841756.393991282
  0
LWPOLYLINE
  5
125
330
17
100
AcDbEntity
  8
ROADS
100
AcDbPolyline
 90
2
 70
0
 10
628369.768444164
 20
4841831.085646379
 10
628274.6402175758
 20
4841802.295251623
  0
LWPOLYLINE
  5
126
330
17
100
AcDbEntity
  8
ROADS
100
AcDbPolyline
 90
2
 70
0
 10
628474.0010419755
 20
4841862.431985937
 10
628369.768444164
 20
4841831.085646379
  0
LWPOLYLINE
  5
127
330
17
100
AcDbEntity
  8
ROADS
100
AcDbPolyline
 90
2
 70
0
 10
628274.6402175758
 20
4841802.295251623
 10
628230.2551093396
 20
4841949.569646593
  0
LWPOLYLINE
  5
128
330
17
100
AcDbEntity
  8
ROADS
100
AcDbPolyline
 90
2
 70
0
 10
628369.768444164
 20
4841831.085646379
 10
628335.1639830017
 20
4841973.716777066
  0
LWPOLYLINE
  5
129
330
17
100
AcDbEntity
  8
ROADS
100
AcDbPolyline
 90
2
 70
0
 10
628230.2551093396
 20
4841949.569646593
 10
628191.4676222082
 20
4841938.570988574
  0
LWPOLYLINE
  5
12A
330
17
100
AcDbEntity
  8
ROADS
100
AcDbPolyline
 90
2
 70
0
 10
628335.1639830017
 20
4841973.716777066
 10
628230.2551093396
 20
4841949.569646593
  0
LWPOLYLINE
  5
12B
330
17
100
AcDbEntity
  8
ROADS
100
AcDbPolyline
 90
2
 70
0
 10
628438.4992254919
 20
4841980.8203201
 10
628335.1639830017
 20
4841973.716777066
  0
LWPOLYLINE
  5
12C
330
17
100
AcDbEntity
  8
ROADS
100
AcDbPolyline
 90
2
 70
0
 10
628838.2936242116
 20
4841718.242846997
 10
628818.10898283
 20
4841833.529307281
  0
LWPOLYLINE
  5
12D
330
17
100
AcDbEntity
  8
ROADS
100
AcDbPolyline
 90
2
 70
0
 10
628818.10898283
 20
4841833.529307281
 10
628602.0558204215
 20
4841769.028168454
  0
LWPOLYLINE
  5
12E
330
17
100
AcDbEntity
  8
ROADS
100
AcDbPolyline
 90
2
 70
0
 10
628818.10898283
 20
4841833.529307281
 10
628810.3052667207
 20
4841878.907127007
  0
LWPOLYLINE
  5
12F
330
17
100
AcDbEntity
  8
ROADS
100
AcDbPolyline
 90
2
 70
0
 10
628959.8218295105
 20
4841822.018068519
 10
628943.7622340944
 20
4841919.522017023
  0
LWPOLYLINE
  5
130
330
17
100
AcDbEntity
  8
ROADS
100
AcDbPolyline
 90
2
 70
0
 10
628810.3052667207
 20
4841878.907127007
 10
628943.7622340944
 20
4841919.522017023
  0
LWPOLYLINE
  5
131
330
17
100
AcDbEntity
  8
ROADS
100
AcDbPolyline
 90
2
 70
0
 10
628810.3052667207
 20
4841878.907127007
 10
628793.7116684556
 20
4841967.622777024
  0
LWPOLYLINE
  5
132
330
17
100
AcDbEntity
  8
ROADS
100
AcDbPolyline
 90
2
 70
0
 10
628793.7116684556
 20
4841967.622777024
 10
628779.8615703436
 20
4841955.4203132475
  0
LWPOLYLINE
  5
133
330
17
100
AcDbEntity
  8
ROADS
100
AcDbPolyline
 90
2
 70
0
 10
628793.7116684556
 20
4841967.622777024
 10
628888.6802181648
 20
4842000.159623038
  0
LWPOLYLINE
  5
134
330
17
100
AcDbEntity
  8
ROADS
100
AcDbPolyline
 90
2
 70
0
 10
628888.6802181648
 20
4842000.159623038
 10
628936.8092528924
 20
4842014.4825900365
  0
LWPOLYLINE
  5
135
330
17
100
AcDbEntity
  8
ROADS
100
AcDbPolyline
 90
3
 70
0
 10
628888.6802181648
 20
4842000.159623038
 10
628861.6080969981
 20
4842060.737762974
 10
628823.4743363583
 20
4842076.44169443
  0
LWPOLYLINE
  5
136
330
17
100
AcDbEntity
  8
ROADS
100
AcDbPolyline
 90
2
 70
0
 10
628779.8615703436
 20
4841955.4203132475
 10
628565.2222446194
 20
4841890.6596715385
  0
LWPOLYLINE
  5
137
330
17
100
AcDbEntity
  8
ROADS
100
AcDbPolyline
 90
2
 70
0
 10
628565.2222446194
 20
4841890.6596715385
 10
628534.1356270527
 20
4842010.323022589
  0
LWPOLYLINE
  5
138
330
17
100
AcDbEntity
  8
ROADS
100
AcDbPolyline
 90
2
 70
0
 10
628534.1356270527
 20
4842010.323022589
 10
628438.4992254919
 20
4841980.8203201
  0
LWPOLYLINE
  5
139
330
17
100
AcDbEntity
  8
ROADS
100
AcDbPolyline
 90
3
 70
0
 10
628779.8615703436
 20
4841955.4203132475
 10
628753.5964427259
 20
4842072.861843477
 10
628534.1356270527
 20
4842010.323022589
  0
LWPOLYLINE
  5
13A
330
17
100
AcDbEntity
  8
ROADS
100
AcDbPolyline
 90
2
 70
0
 10
628534.1356270527
 20
4842010.323022589
 10
628534.6547691502
 20
4842066.29212359
  0
LWPOLYLINE
  5
13B
330
17
100
AcDbEntity
  8
ROADS
100
AcDbPolyline
 90
2
 70
0
 10
628534.6547691502
 20
4842066.29212359
 10
628481.0504998671
 20
4842089.705570585
  0
LWPOLYLINE
  5
13C
330
17
100
AcDbEntity
  8
ROADS
100
AcDbPolyline
 90
2
 70
0
 10
628534.6547691502
 20
4842066.29212359
 10
628521.5007430536
 20
4842162.280421907
  0
LWPOLYLINE
  5
13D
330
17
100
AcDbEntity
  8
ROADS
100
AcDbPolyline
 90
3
 70
0
 10
628481.0504998671
 20
4842089.705570585
 10
628482.0708005326
 20
4842114.281658995
 10
628521.5007430536
 20
4842162.280421907
  0
LWPOLYLINE
  5
13E
330
17
100
AcDbEntity
  8
ROADS
100
AcDbPolyline
 90
3
 70
0
 10
628683.7158415841
 20
4842180.607365927
 10
628584.1841058491
 20
4842153.704278393
 10
628517.7755730243
 20
4842178.908105101
  0
LWPOLYLINE
  5
13F
330
17
100
AcDbEntity
  8
ROADS
100
AcDbPolyline
 90
2
 70
0
 10
628521.5007430536
 20
4842162.280421907
 10
628517.7755730243
 20
4842178.908105101
  0
LWPOLYLINE
  5
140
330
17
100
AcDbEntity
  8
ROADS
100
AcDbPolyline
 90
2
 70
0
 10
628824.7941623743
 20
4842126.766955709
 10
628827.3968207585
 20
4842156.995418926
  0
LWPOLYLINE
  5
141
330
17
100
AcDbEntity
  8
ROADS
100
AcDbPolyline
 90
2
 70
0
 10
628766.3256637091
 20
4842123.124572666
 10
628758.1169961154
 20
4842174.187430861
  0
LWPOLYLINE
  5
142
330
17
100
AcDbEntity
  8
ROADS
100
AcDbPolyline
 90
2
 70
0
 10
628899.4870087159
 20
4842117.300079407
 10
628876.389683124
 20
4842188.677873207
  0
LWPOLYLINE
  5
143
330
17
100
AcDbEntity
  8
ROADS
100
AcDbPolyline
 90
2
 70
0
 10
628827.3968207585
 20
4842156.995418926
 10
628862.506212251
 20
4842166.550126343
  0
LWPOLYLINE
  5
144
330
17
100
AcDbEntity
  8
ROADS
100
AcDbPolyline
 90
2
 70
0
 10
628758.1169961154
 20
4842174.187430861
 10
628827.3968207585
 20
4842156.995418926
  0
LWPOLYLINE
  5
145
330
17
100
AcDbEntity
  8
ROADS
100
AcDbPolyline
 90
2
 70
0
 10
628827.3968207585
 20
4842156.995418926
 10
628835.4516428505
 20
4842191.3461646885
  0
LWPOLYLINE
  5
146
330
17
100
AcDbEntity
  8
ROADS
100
AcDbPolyline
 90
2
 70
0
 10
628758.1169961154
 20
4842174.187430861
 10
628734.0146662067
 20
4842177.100427764
  0
LWPOLYLINE
  5
147
330
17
100
AcDbEntity
  8
ROADS
100
AcDbPolyline
 90
2
 70
0
 10
628734.0146662067
 20
4842177.100427764
 10
628708.280125675
 20
4842179.963881567
  0
LWPOLYLINE
  5
148
330
17
100
AcDbEntity
  8
ROADS
100
AcDbPolyline
 90
2
 70
0
 10
628862.506212251
 20
4842166.550126343
 10
628835.4516428505
 20
4842191.3461646885
  0
LWPOLYLINE
  5
149
330
17
100
AcDbEntity
  8
ROADS
100
AcDbPolyline
 90
2
 70
0
 10
628758.1169961154
 20
4842174.187430861
 10
628755.6996756132
 20
4842189.2256885655
  0
LWPOLYLINE
  5
14A
330
17
100
AcDbEntity
  8
ROADS
100
AcDbPolyline
 90
5
 70
0
 10
628481.0504998671
 20
4842089.705570585
 10
628432.3496551135
 20
4842069.350865212
 10
628345.5467296601
 20
4842063.284555569
 10
628339.3026211512
 20
4842081.336738102
 10
628200.8319489679
 20
4842125.188626906
  0
LWPOLYLINE
  5
14B
330
17
100
AcDbEntity
  8
ROADS
100
AcDbPolyline
 90
2
 70
0
 10
628231.3323378875
 20
4842213.1333558755
 10
628125.531097167
 20
4842146.01721428
  0
LWPOLYLINE
  5
14C
330
17
100
AcDbEntity
  8
ROADS
100
AcDbPolyline
 90
3
 70
0
 10
628504.0668969977
 20
4842228.901314803
 10
628358.1700552031
 20
4842172.940209009
 10
628231.3323378875
 20
4842213.1333558755
  0
LWPOLYLINE
  5
14D
330
17
100
AcDbEntity
  8
ROADS
100
AcDbPolyline
 90
3
 70
0
 10
628476.8645426134
 20
4842313.692609684
 10
628349.9755273662
 20
4842274.11155081
 10
628231.3323378875
 20
4842213.1333558755
  0
LWPOLYLINE
  5
14E
330
17
100
AcDbEntity
  8
ROADS
100
AcDbPolyline
 90
2
 70
0
 10
628231.3323378875
 20
4842213.1333558755
 10
628195.7238269337
 20
4842329.01247464
  0
LWPOLYLINE
  5
14F
330
17
100
AcDbEntity
  8
ROADS
100
AcDbPolyline
 90
2
 70
0
 10
628447.733084739
 20
4842407.432567815
 10
628195.7238269337
 20
4842329.01247464
  0
LWPOLYLINE
  5
150
330
17
100
AcDbEntity
  8
ROADS
100
AcDbPolyline
 90
2
 70
0
 10
628195.7238269337
 20
4842329.01247464
 10
628168.0700428442
 20
4842417.748770495
  0
LWPOLYLINE
  5
151
330
17
100
AcDbEntity
  8
ROADS
100
AcDbPolyline
 90
2
 70
0
 10
628447.733084739
 20
4842407.432567815
 10
628419.7940733638
 20
4842496.868808277
  0
LWPOLYLINE
  5
152
330
17
100
AcDbEntity
  8
ROADS
100
AcDbPolyline
 90
2
 70
0
 10
628419.7940733638
 20
4842496.868808277
 10
628168.0700428442
 20
4842417.748770495
  0
LWPOLYLINE
  5
153
330
17
100
AcDbEntity
  8
ROADS
100
AcDbPolyline
 90
2
 70
0
 10
628168.0700428442
 20
4842417.748770495
 10
628142.6615833077
 20
4842498.628178448
  0
LWPOLYLINE
  5
154
330
17
100
AcDbEntity
  8
ROADS
100
AcDbPolyline
 90
2
 70
0
 10
628708.280125675
 20
4842179.963881567
 10
628683.7158415841
 20
4842180.607365927
  0
LWPOLYLINE
  5
155
330
17
100
AcDbEntity
  8
ROADS
100
AcDbPolyline
 90
2
 70
0
 10
628708.280125675
 20
4842179.963881567
 10
628695.5506319435
 20
4842205.693222382
  0
LWPOLYLINE
  5
156
330
17
100
AcDbEntity
  8
ROADS
100
AcDbPolyline
 90
2
 70
0
 10
628683.7158415841
 20
4842180.607365927
 10
628695.5506319435
 20
4842205.693222382
  0
LWPOLYLINE
  5
157
330
17
100
AcDbEntity
  8
ROADS
100
AcDbPolyline
 90
2
 70
0
 10
628517.7755730243
 20
4842178.908105101
 10
628504.0668969977
 20
4842228.901314803
  0
LWPOLYLINE
  5
158
330
17
100
AcDbEntity
  8
ROADS
100
AcDbPolyline
 90
2
 70
0
 10
628695.5506319435
 20
4842205.693222382
 10
628699.6240873253
 20
4842229.608538593
  0
LWPOLYLINE
  5
159
330
17
100
AcDbEntity
  8
ROADS
100
AcDbPolyline
 90
3
 70
0
 10
628699.6240873253
 20
4842229.608538593
 10
628588.009610279
 20
4842242.2093862165
 10
628504.0668969977
 20
4842228.901314803
  0
LWPOLYLINE
  5
15A
330
17
100
AcDbEntity
  8
ROADS
100
AcDbPolyline
 90
2
 70
0
 10
628504.0668969977
 20
4842228.901314803
 10
628476.8645426134
 20
4842313.692609684
  0
LWPOLYLINE
  5
15B
330
17
100
AcDbEntity
  8
ROADS
100
AcDbPolyline
 90
2
 70
0
 10
628620.7100008477
 20
4842343.644439949
 10
628476.8645426134
 20
4842313.692609684
  0
LWPOLYLINE
  5
15C
330
17
100
AcDbEntity
  8
ROADS
100
AcDbPolyline
 90
2
 70
0
 10
628729.760407954
 20
4842359.715635006
 10
628620.7100008477
 20
4842343.644439949
  0
LWPOLYLINE
  5
15D
330
17
100
AcDbEntity
  8
ROADS
100
AcDbPolyline
 90
2
 70
0
 10
628476.8645426134
 20
4842313.692609684
 10
628447.733084739
 20
4842407.432567815
  0
LWPOLYLINE
  5
15E
330
17
100
AcDbEntity
  8
ROADS
100
AcDbPolyline
 90
2
 70
0
 10
628620.7100008477
 20
4842343.644439949
 10
628616.1624369769
 20
4842459.3043254465
  0
LWPOLYLINE
  5
15F
330
17
100
AcDbEntity
  8
ROADS
100
AcDbPolyline
 90
2
 70
0
 10
628616.1624369769
 20
4842459.3043254465
 10
628447.733084739
 20
4842407.432567815
  0
LWPOLYLINE
  5
160
330
17
100
AcDbEntity
  8
ROADS
100
AcDbPolyline
 90
2
 70
0
 10
628616.1624369769
 20
4842459.3043254465
 10
628615.4370746224
 20
4842513.137776081
  0
LWPOLYLINE
  5
161
330
17
100
AcDbEntity
  8
ROADS
100
AcDbPolyline
 90
2
 70
0
 10
628504.3839670396
 20
4842523.400531623
 10
628419.7940733638
 20
4842496.868808277
  0
LWPOLYLINE
  5
162
330
17
100
AcDbEntity
  8
ROADS
100
AcDbPolyline
 90
2
 70
0
 10
628582.5742379725
 20
4842547.872305333
 10
628504.3839670396
 20
4842523.400531623
  0
LWPOLYLINE
  5
163
330
17
100
AcDbEntity
  8
ROADS
100
AcDbPolyline
 90
2
 70
0
 10
628700.7746996682
 20
4842523.638981454
 10
628693.3260916257
 20
4842581.715045062
  0
LWPOLYLINE
  5
164
330
17
100
AcDbEntity
  8
ROADS
100
AcDbPolyline
 90
2
 70
0
 10
628693.3260916257
 20
4842581.715045062
 10
628582.5742379725
 20
4842547.872305333
  0
LWPOLYLINE
  5
165
330
17
100
AcDbEntity
  8
ROADS
100
AcDbPolyline
 90
2
 70
0
 10
628693.3260916257
 20
4842581.715045062
 10
628678.4965080587
 20
4842645.452894527
  0
LWPOLYLINE
  5
166
330
17
100
AcDbEntity
  8
ROADS
100
AcDbPolyline
 90
2
 70
0
 10
628504.3839670396
 20
4842523.400531623
 10
628439.5280707955
 20
4842727.588186571
  0
LWPOLYLINE
  5
167
330
17
100
AcDbEntity
  8
ROADS
100
AcDbPolyline
 90
2
 70
0
 10
628582.5742379725
 20
4842547.872305333
 10
628529.2368132417
 20
4842721.85248103
  0
LWPOLYLINE
  5
168
330
17
100
AcDbEntity
  8
ROADS
100
AcDbPolyline
 90
2
 70
0
 10
628819.7469375259
 20
4842428.367842581
 10
628810.5559764057
 20
4842618.289235898
  0
LWPOLYLINE
  5
169
330
17
100
AcDbEntity
  8
ROADS
100
AcDbPolyline
 90
4
 70
0
 10
628938.6911430812
 20
4842464.713004058
 10
628929.6973154019
 20
4842505.999011536
 10
628948.2014996136
 20
4842574.570539979
 10
628924.574882235
 20
4842655.515379535
  0
LWPOLYLINE
  5
16A
330
17
100
AcDbEntity
  8
ROADS
100
AcDbPolyline
 90
2
 70
0
 10
628693.3260916257
 20
4842581.715045062
 10
628810.5559764057
 20
4842618.289235898
  0
LWPOLYLINE
  5
16B
330
17
100
AcDbEntity
  8
ROADS
100
AcDbPolyline
 90
2
 70
0
 10
628810.5559764057
 20
4842618.289235898
 10
628868.0440353528
 20
4842637.339996411
  0
LWPOLYLINE
  5
16C
330
17
100
AcDbEntity
  8
ROADS
100
AcDbPolyline
 90
2
 70
0
 10
628868.0440353528
 20
4842637.339996411
 10
628924.574882235
 20
4842655.515379535
  0
LWPOLYLINE
  5
16D
330
17
100
AcDbEntity
  8
ROADS
100
AcDbPolyline
 90
2
 70
0
 10
628678.4965080587
 20
4842645.452894527
 10
628728.858593746
 20
4842661.3804694945
  0
LWPOLYLINE
  5
16E
330
17
100
AcDbEntity
  8
ROADS
100
AcDbPolyline
 90
2
 70
0
 10
628924.574882235
 20
4842655.515379535
 10
628960.6280268871
 20
4842668.183766509
  0
LWPOLYLINE
  5
16F
330
17
100
AcDbEntity
  8
ROADS
100
AcDbPolyline
 90
2
 70
0
 10
628868.0440353528
 20
4842637.339996411
 10
628819.2218044094
 20
4842782.3150842395
  0
LWPOLYLINE
  5
170
330
17
100
AcDbEntity
  8
ROADS
100
AcDbPolyline
 90
2
 70
0
 10
628960.6280268871
 20
4842668.183766509
 10
628919.5778988675
 20
4842814.506653256
  0
LWPOLYLINE
  5
171
330
17
100
AcDbEntity
  8
ROADS
100
AcDbPolyline
 90
3
 70
0
 10
628665.0224603686
 20
4842713.143536252
 10
628732.6981400036
 20
4842757.003353263
 10
628819.2218044094
 20
4842782.3150842395
  0
LWPOLYLINE
  5
172
330
17
100
AcDbEntity
  8
ROADS
100
AcDbPolyline
 90
2
 70
0
 10
628419.7940733638
 20
4842496.868808277
 10
628393.5352436064
 20
4842578.398923426
  0
LWPOLYLINE
  5
173
330
17
100
AcDbEntity
  8
ROADS
100
AcDbPolyline
 90
2
 70
0
 10
628393.5352436064
 20
4842578.398923426
 10
628142.6615833077
 20
4842498.628178448
  0
LWPOLYLINE
  5
174
330
17
100
AcDbEntity
  8
ROADS
100
AcDbPolyline
 90
2
 70
0
 10
628393.5352436064
 20
4842578.398923426
 10
628369.3135592187
 20
4842657.6897496125
  0
LWPOLYLINE
  5
175
330
17
100
AcDbEntity
  8
ROADS
100
AcDbPolyline
 90
2
 70
0
 10
628369.3135592187
 20
4842657.6897496125
 10
628117.3354647263
 20
4842579.488063492
  0
LWPOLYLINE
  5
176
330
17
100
AcDbEntity
  8
ROADS
100
AcDbPolyline
 90
2
 70
0
 10
628355.2116780084
 20
4842701.777414009
 10
628103.5768091398
 20
4842622.515841014
  0
LWPOLYLINE
  5
177
330
17
100
AcDbEntity
  8
ROADS
100
AcDbPolyline
 90
2
 70
0
 10
628369.3135592187
 20
4842657.6897496125
 10
628355.2116780084
 20
4842701.777414009
  0
LWPOLYLINE
  5
178
330
17
100
AcDbEntity
  8
ROADS
100
AcDbPolyline
 90
2
 70
0
 10
628347.6048635544
 20
4842750.5809417935
 10
628088.9934524782
 20
4842669.280931262
  0
LWPOLYLINE
  5
179
330
17
100
AcDbEntity
  8
ROADS
100
AcDbPolyline
 90
2
 70
0
 10
628355.2116780084
 20
4842701.777414009
 10
628439.5280707955
 20
4842727.588186571
  0
LWPOLYLINE
  5
17A
330
17
100
AcDbEntity
  8
ROADS
100
AcDbPolyline
 90
2
 70
0
 10
628355.2116780084
 20
4842701.777414009
 10
628347.6048635544
 20
4842750.5809417935
  0
LWPOLYLINE
  5
17B
330
17
100
AcDbEntity
  8
ROADS
100
AcDbPolyline
 90
2
 70
0
 10
628355.3471496917
 20
4842805.953712103
 10
628137.5550968557
 20
4842737.099974412
  0
LWPOLYLINE
  5
17C
330
17
100
AcDbEntity
  8
ROADS
100
AcDbPolyline
 90
2
 70
0
 10
628678.4965080587
 20
4842645.452894527
 10
628665.0224603686
 20
4842713.143536252
  0
LWPOLYLINE
  5
17D
330
17
100
AcDbEntity
  8
ROADS
100
AcDbPolyline
 90
2
 70
0
 10
628439.5280707955
 20
4842727.588186571
 10
628509.414580239
 20
4842749.528542329
  0
LWPOLYLINE
  5
17E
330
17
100
AcDbEntity
  8
ROADS
100
AcDbPolyline
 90
2
 70
0
 10
628665.0224603686
 20
4842713.143536252
 10
628638.0942313443
 20
4842841.12667125
  0
LWPOLYLINE
  5
17F
330
17
100
AcDbEntity
  8
ROADS
100
AcDbPolyline
 90
3
 70
0
 10
628584.8766122014
 20
4842823.893302338
 10
628599.0722063238
 20
4842778.718236451
 10
628527.4368533926
 20
4842755.712145318
  0
LWPOLYLINE
  5
180
330
17
100
AcDbEntity
  8
ROADS
100
AcDbPolyline
 90
2
 70
0
 10
628584.8766122014
 20
4842823.893302338
 10
628438.0902943842
 20
4842778.787540934
  0
LWPOLYLINE
  5
181
330
17
100
AcDbEntity
  8
ROADS
100
AcDbPolyline
 90
2
 70
0
 10
628638.0942313443
 20
4842841.12667125
 10
628584.8766122014
 20
4842823.893302338
  0
LWPOLYLINE
  5
182
330
17
100
AcDbEntity
  8
ROADS
100
AcDbPolyline
 90
2
 70
0
 10
628638.0942313443
 20
4842841.12667125
 10
628628.4849409872
 20
4842886.411758713
  0
LWPOLYLINE
  5
183
330
17
100
AcDbEntity
  8
ROADS
100
AcDbPolyline
 90
2
 70
0
 10
628576.606043275
 20
4842927.707498948
 10
628362.679113892
 20
4842861.066041242
  0
LWPOLYLINE
  5
184
330
17
100
AcDbEntity
  8
ROADS
100
AcDbPolyline
 90
2
 70
0
 10
628628.4849409872
 20
4842886.411758713
 10
628617.2493942056
 20
4842940.43398951
  0
LWPOLYLINE
  5
185
330
17
100
AcDbEntity
  8
ROADS
100
AcDbPolyline
 90
2
 70
0
 10
628617.2493942056
 20
4842940.43398951
 10
628576.606043275
 20
4842927.707498948
  0
LWPOLYLINE
  5
186
330
17
100
AcDbEntity
  8
ROADS
100
AcDbPolyline
 90
2
 70
0
 10
628438.0902943842
 20
4842778.787540934
 10
628347.6048635544
 20
4842750.5809417935
  0
LWPOLYLINE
  5
187
330
17
100
AcDbEntity
  8
ROADS
100
AcDbPolyline
 90
2
 70
0
 10
628347.6048635544
 20
4842750.5809417935
 10
628355.3471496917
 20
4842805.953712103
  0
LWPOLYLINE
  5
188
330
17
100
AcDbEntity
  8
ROADS
100
AcDbPolyline
 90
3
 70
0
 10
628438.0902943842
 20
4842778.787540934
 10
628424.0632665406
 20
4842826.031772498
 10
628355.3471496917
 20
4842805.953712103
  0
LWPOLYLINE
  5
189
330
17
100
AcDbEntity
  8
ROADS
100
AcDbPolyline
 90
2
 70
0
 10
628308.2021281337
 20
4842843.187846027
 10
628303.6184096811
 20
4842841.768919659
  0
LWPOLYLINE
  5
18A
330
17
100
AcDbEntity
  8
ROADS
100
AcDbPolyline
 90
2
 70
0
 10
628355.3471496917
 20
4842805.953712103
 10
628308.2021281337
 20
4842843.187846027
  0
LWPOLYLINE
  5
18B
330
17
100
AcDbEntity
  8
ROADS
100
AcDbPolyline
 90
2
 70
0
 10
628355.3471496917
 20
4842805.953712103
 10
628362.679113892
 20
4842861.066041242
  0
LWPOLYLINE
  5
18C
330
17
100
AcDbEntity
  8
ROADS
100
AcDbPolyline
 90
2
 70
0
 10
628407.4722408094
 20
4842839.011668402
 10
628390.6186217032
 20
4842829.260647154
  0
LWPOLYLINE
  5
18D
330
17
100
AcDbEntity
  8
ROADS
100
AcDbPolyline
 90
2
 70
0
 10
628407.4722408094
 20
4842839.011668402
 10
628429.7143549781
 20
4842834.942643081
  0
LWPOLYLINE
  5
18E
330
17
100
AcDbEntity
  8
ROADS
100
AcDbPolyline
 90
2
 70
0
 10
628373.7617178354
 20
4842849.083846031
 10
628372.0762473623
 20
4842834.40737412
  0
LWPOLYLINE
  5
18F
330
17
100
AcDbEntity
  8
ROADS
100
AcDbPolyline
 90
2
 70
0
 10
628373.7617178354
 20
4842849.083846031
 10
628407.4722408094
 20
4842839.011668402
  0
LWPOLYLINE
  5
190
330
17
100
AcDbEntity
  8
ROADS
100
AcDbPolyline
 90
2
 70
0
 10
628819.2218044094
 20
4842782.3150842395
 10
628919.5778988675
 20
4842814.506653256
  0
LWPOLYLINE
  5
191
330
17
100
AcDbEntity
  8
ROADS
100
AcDbPolyline
 90
2
 70
0
 10
628919.5778988675
 20
4842814.506653256
 10
628961.0039957993
 20
4842828.081367054
  0
LWPOLYLINE
  5
192
330
17
100
AcDbEntity
  8
ROADS
100
AcDbPolyline
 90
2
 70
0
 10
628961.0039957993
 20
4842828.081367054
 10
628945.1570653472
 20
4842877.521878783
  0
LWPOLYLINE
  5
193
330
17
100
AcDbEntity
  8
ROADS
100
AcDbPolyline
 90
3
 70
0
 10
628628.4849409872
 20
4842886.411758713
 10
628732.347687688
 20
4842886.863690251
 10
628853.5123429138
 20
4842923.243198114
  0
LWPOLYLINE
  5
194
330
17
100
AcDbEntity
  8
ROADS
100
AcDbPolyline
 90
2
 70
0
 10
628853.5123429138
 20
4842923.243198114
 10
628888.3390413919
 20
4842933.831272708
  0
LWPOLYLINE
  5
195
330
17
100
AcDbEntity
  8
ROADS
100
AcDbPolyline
 90
2
 70
0
 10
628853.5123429138
 20
4842923.243198114
 10
628850.5912319646
 20
4842946.663899953
  0
LWPOLYLINE
  5
196
330
17
100
AcDbEntity
  8
ROADS
100
AcDbPolyline
 90
2
 70
0
 10
628888.3390413919
 20
4842933.831272708
 10
628877.8327184868
 20
4842954.583504548
  0
LWPOLYLINE
  5
197
330
17
100
AcDbEntity
  8
ROADS
100
AcDbPolyline
 90
2
 70
0
 10
628850.5912319646
 20
4842946.663899953
 10
628877.8327184868
 20
4842954.583504548
  0
LWPOLYLINE
  5
198
330
17
100
AcDbEntity
  8
ROADS
100
AcDbPolyline
 90
4
 70
0
 10
628850.5912319646
 20
4842946.663899953
 10
628835.820845552
 20
4842976.464556759
 10
628853.0223952448
 20
4842987.768666606
 10
628877.8327184868
 20
4842954.583504548
  0
LWPOLYLINE
  5
199
330
17
100
AcDbEntity
  8
ROADS
100
AcDbPolyline
 90
2
 70
0
 10
628362.679113892
 20
4842861.066041242
 10
628308.2021281337
 20
4842843.187846027
  0
LWPOLYLINE
  5
19A
330
17
100
AcDbEntity
  8
ROADS
100
AcDbPolyline
 90
2
 70
0
 10
628362.679113892
 20
4842861.066041242
 10
628373.7617178354
 20
4842849.083846031
  0
LWPOLYLINE
  5
19B
330
17
100
AcDbEntity
  8
ROADS
100
AcDbPolyline
 90
2
 70
0
 10
628362.679113892
 20
4842861.066041242
 10
628360.9365560481
 20
4842871.168725172
  0
LWPOLYLINE
  5
19C
330
17
100
AcDbEntity
  8
ROADS
100
AcDbPolyline
 90
2
 70
0
 10
628576.606043275
 20
4842927.707498948
 10
628568.5608736825
 20
4842947.359907326
  0
LWPOLYLINE
  5
19D
330
17
100
AcDbEntity
  8
ROADS
100
AcDbPolyline
 90
2
 70
0
 10
628617.2493942056
 20
4842940.43398951
 10
628613.2485611106
 20
4842958.923819037
  0
LWPOLYLINE
  5
19E
330
17
100
AcDbEntity
  8
ROADS
100
AcDbPolyline
 90
2
 70
0
 10
627876.2730133225
 20
4842415.270522281
 10
627864.4392012021
 20
4842411.597621639
  0
LWPOLYLINE
  5
19F
330
17
100
AcDbEntity
  8
ROADS
100
AcDbPolyline
 90
2
 70
0
 10
627876.2730133225
 20
4842415.270522281
 10
627872.5479810331
 20
4842427.028709703
  0
LWPOLYLINE
  5
1A0
330
17
100
AcDbEntity
  8
ROADS
100
AcDbPolyline
 90
2
 70
0
 10
628168.0700428442
 20
4842417.748770495
 10
627969.3645080377
 20
4842356.28753118
  0
LWPOLYLINE
  5
1A1
330
17
100
AcDbEntity
  8
ROADS
100
AcDbPolyline
 90
2
 70
0
 10
628142.6615833077
 20
4842498.628178448
 10
627876.2730133225
 20
4842415.270522281
  0
LWPOLYLINE
  5
1A2
330
17
100
AcDbEntity
  8
ROADS
100
AcDbPolyline
 90
2
 70
0
 10
628117.3354647263
 20
4842579.488063492
 10
627931.5417998341
 20
4842521.129715783
  0
LWPOLYLINE
  5
1A3
330
17
100
AcDbEntity
  8
ROADS
100
AcDbPolyline
 90
2
 70
0
 10
628142.6615833077
 20
4842498.628178448
 10
628117.3354647263
 20
4842579.488063492
  0
LWPOLYLINE
  5
1A4
330
17
100
AcDbEntity
  8
ROADS
100
AcDbPolyline
 90
2
 70
0
 10
628103.5768091398
 20
4842622.515841014
 10
627977.7890147939
 20
4842583.221398516
  0
LWPOLYLINE
  5
1A5
330
17
100
AcDbEntity
  8
ROADS
100
AcDbPolyline
 90
2
 70
0
 10
628117.3354647263
 20
4842579.488063492
 10
628103.5768091398
 20
4842622.515841014
  0
LWPOLYLINE
  5
1A6
330
17
100
AcDbEntity
  8
ROADS
100
AcDbPolyline
 90
2
 70
0
 10
628088.9934524782
 20
4842669.280931262
 10
628042.8731470712
 20
4842654.807009263
  0
LWPOLYLINE
  5
1A7
330
17
100
AcDbEntity
  8
ROADS
100
AcDbPolyline
 90
2
 70
0
 10
628103.5768091398
 20
4842622.515841014
 10
628088.9934524782
 20
4842669.280931262
  0
LWPOLYLINE
  5
1A8
330
17
100
AcDbEntity
  8
ROADS
100
AcDbPolyline
 90
2
 70
0
 10
628088.9934524782
 20
4842669.280931262
 10
628082.2940185039
 20
4842690.61817607
  0
LWPOLYLINE
  5
1A9
330
17
100
AcDbEntity
  8
ROADS
100
AcDbPolyline
 90
2
 70
0
 10
629889.1851526678
 20
4840122.819947764
 10
629871.1450627059
 20
4840181.46391345
  0
LWPOLYLINE
  5
1AA
330
17
100
AcDbEntity
  8
ROADS
100
AcDbPolyline
 90
2
 70
0
 10
629731.2298168333
 20
4839950.834179407
 10
629715.2856298805
 20
4840000.635550657
  0
LWPOLYLINE
  5
1AB
330
17
100
AcDbEntity
  8
ROADS
100
AcDbPolyline
 90
2
 70
0
 10
629516.8899693923
 20
4839941.043214339
 10
629715.2856298805
 20
4840000.635550657
  0
LWPOLYLINE
  5
1AC
330
17
100
AcDbEntity
  8
ROADS
100
AcDbPolyline
 90
2
 70
0
 10
629535.7032533715
 20
4839990.34997312
 10
629706.3239590172
 20
4840032.974173695
  0
LWPOLYLINE
  5
1AD
330
17
100
AcDbEntity
  8
ROADS
100
AcDbPolyline
 90
2
 70
0
 10
629715.2856298805
 20
4840000.635550657
 10
629706.3239590172
 20
4840032.974173695
  0
LWPOLYLINE
  5
1AE
330
17
100
AcDbEntity
  8
ROADS
100
AcDbPolyline
 90
2
 70
0
 10
629706.3239590172
 20
4840032.974173695
 10
629780.7088720556
 20
4840055.651978697
  0
LWPOLYLINE
  5
1AF
330
17
100
AcDbEntity
  8
ROADS
100
AcDbPolyline
 90
2
 70
0
 10
629780.7088720556
 20
4840055.651978697
 10
629854.216933136
 20
4840077.262121253
  0
LWPOLYLINE
  5
1B0
330
17
100
AcDbEntity
  8
ROADS
100
AcDbPolyline
 90
2
 70
0
 10
629780.7088720556
 20
4840055.651978697
 10
629740.93361612
 20
4840096.250218802
  0
LWPOLYLINE
  5
1B1
330
17
100
AcDbEntity
  8
ROADS
100
AcDbPolyline
 90
2
 70
0
 10
629740.93361612
 20
4840096.250218802
 10
629665.3831313581
 20
4840145.235799635
  0
LWPOLYLINE
  5
1B2
330
17
100
AcDbEntity
  8
ROADS
100
AcDbPolyline
 90
2
 70
0
 10
629740.93361612
 20
4840096.250218802
 10
629761.0340826171
 20
4840150.968184084
  0
LWPOLYLINE
  5
1B3
330
17
100
AcDbEntity
  8
ROADS
100
AcDbPolyline
 90
2
 70
0
 10
629883.1108047588
 20
4840306.884191085
 10
629923.5742928524
 20
4840174.7018442135
  0
LWPOLYLINE
  5
1B4
330
17
100
AcDbEntity
  8
ROADS
100
AcDbPolyline
 90
2
 70
0
 10
629957.6733870695
 20
4840231.922536727
 10
629930.8389318226
 20
4840321.322709371
  0
LWPOLYLINE
  5
1B5
330
17
100
AcDbEntity
  8
ROADS
100
AcDbPolyline
 90
2
 70
0
 10
629883.1108047588
 20
4840306.884191085
 10
629930.8389318226
 20
4840321.322709371
  0
LWPOLYLINE
  5
1B6
330
17
100
AcDbEntity
  8
ROADS
100
AcDbPolyline
 90
2
 70
0
 10
629930.8389318226
 20
4840321.322709371
 10
630009.3064714832
 20
4840345.128739991
  0
LWPOLYLINE
  5
1B7
330
17
100
AcDbEntity
  8
ROADS
100
AcDbPolyline
 90
2
 70
0
 10
629807.389915437
 20
4840390.654095307
 10
630054.4995739114
 20
4840464.648845837
  0
LWPOLYLINE
  5
1B8
330
17
100
AcDbEntity
  8
ROADS
100
AcDbPolyline
 90
2
 70
0
 10
629182.0658514948
 20
4839726.523293735
 10
629599.4840327118
 20
4839854.347039103
  0
LWPOLYLINE
  5
1B9
330
17
100
AcDbEntity
  8
ROADS
100
AcDbPolyline
 90
2
 70
0
 10
629164.5071574381
 20
4839833.788940544
 10
629408.1066770402
 20
4839907.534906445
  0
LWPOLYLINE
  5
1BA
330
17
100
AcDbEntity
  8
ROADS
100
AcDbPolyline
 90
2
 70
0
 10
629408.1066770402
 20
4839907.534906445
 10
629516.8899693923
 20
4839941.043214339
  0
LWPOLYLINE
  5
1BB
330
17
100
AcDbEntity
  8
ROADS
100
AcDbPolyline
 90
2
 70
0
 10
629408.1066770402
 20
4839907.534906445
 10
629294.5339167179
 20
4839971.045607059
  0
LWPOLYLINE
  5
1BC
330
17
100
AcDbEntity
  8
ROADS
100
AcDbPolyline
 90
2
 70
0
 10
629516.8899693923
 20
4839941.043214339
 10
629535.7032533715
 20
4839990.34997312
  0
LWPOLYLINE
  5
1BD
330
17
100
AcDbEntity
  8
ROADS
100
AcDbPolyline
 90
2
 70
0
 10
629294.5339167179
 20
4839971.045607059
 10
629241.1369943604
 20
4840011.909381997
  0
LWPOLYLINE
  5
1BE
330
17
100
AcDbEntity
  8
ROADS
100
AcDbPolyline
 90
3
 70
0
 10
629516.8899693923
 20
4839941.043214339
 10
629454.7120885096
 20
4839983.417267607
 10
629387.5044586102
 20
4840058.702569679
  0
LWPOLYLINE
  5
1BF
330
17
100
AcDbEntity
  8
ROADS
100
AcDbPolyline
 90
2
 70
0
 10
629535.7032533715
 20
4839990.34997312
 10
629551.1428068643
 20
4840032.719222527
  0
LWPOLYLINE
  5
1C0
330
17
100
AcDbEntity
  8
ROADS
100
AcDbPolyline
 90
2
 70
0
 10
629241.1369943604
 20
4840011.909381997
 10
629387.5044586102
 20
4840058.702569679
  0
LWPOLYLINE
  5
1C1
330
17
100
AcDbEntity
  8
ROADS
100
AcDbPolyline
 90
2
 70
0
 10
629154.7443533401
 20
4839897.751670228
 10
629149.0730609006
 20
4839926.87704979
  0
LWPOLYLINE
  5
1C2
330
17
100
AcDbEntity
  8
ROADS
100
AcDbPolyline
 90
2
 70
0
 10
628985.2353674868
 20
4839908.171793395
 10
628972.9098334799
 20
4839949.059568603
  0
LWPOLYLINE
  5
1C3
330
17
100
AcDbEntity
  8
ROADS
100
AcDbPolyline
 90
2
 70
0
 10
629149.0730609006
 20
4839926.87704979
 10
629294.5339167179
 20
4839971.045607059
  0
LWPOLYLINE
  5
1C4
330
17
100
AcDbEntity
  8
ROADS
100
AcDbPolyline
 90
2
 70
0
 10
629149.0730609006
 20
4839926.87704979
 10
629136.3737937858
 20
4840000.471303904
  0
LWPOLYLINE
  5
1C5
330
17
100
AcDbEntity
  8
ROADS
100
AcDbPolyline
 90
2
 70
0
 10
629091.7138685598
 20
4839987.1994501855
 10
629097.7188162721
 20
4839948.034432216
  0
LWPOLYLINE
  5
1C6
330
17
100
AcDbEntity
  8
ROADS
100
AcDbPolyline
 90
2
 70
0
 10
629091.7138685598
 20
4839987.1994501855
 10
628972.9098334799
 20
4839949.059568603
  0
LWPOLYLINE
  5
1C7
330
17
100
AcDbEntity
  8
ROADS
100
AcDbPolyline
 90
2
 70
0
 10
628972.9098334799
 20
4839949.059568603
 10
628948.1148221554
 20
4840030.996516966
  0
LWPOLYLINE
  5
1C8
330
17
100
AcDbEntity
  8
ROADS
100
AcDbPolyline
 90
2
 70
0
 10
629136.3737937858
 20
4840000.471303904
 10
629091.7138685598
 20
4839987.1994501855
  0
LWPOLYLINE
  5
1C9
330
17
100
AcDbEntity
  8
ROADS
100
AcDbPolyline
 90
3
 70
0
 10
629091.7138685598
 20
4839987.1994501855
 10
629078.6671650396
 20
4840070.710075695
 10
629122.5674398912
 20
4840080.532462755
  0
LWPOLYLINE
  5
1CA
330
17
100
AcDbEntity
  8
ROADS
100
AcDbPolyline
 90
2
 70
0
 10
629136.3737937858
 20
4840000.471303904
 10
629122.5674398912
 20
4840080.532462755
  0
LWPOLYLINE
  5
1CB
330
17
100
AcDbEntity
  8
ROADS
100
AcDbPolyline
 90
2
 70
0
 10
628790.4842855529
 20
4839849.302615877
 10
628694.8810660974
 20
4839820.605163748
  0
LWPOLYLINE
  5
1CC
330
17
100
AcDbEntity
  8
ROADS
100
AcDbPolyline
 90
2
 70
0
 10
628887.6181068636
 20
4839878.968838963
 10
628790.4842855529
 20
4839849.302615877
  0
LWPOLYLINE
  5
1CD
330
17
100
AcDbEntity
  8
ROADS
100
AcDbPolyline
 90
2
 70
0
 10
628985.2353674868
 20
4839908.171793395
 10
628887.6181068636
 20
4839878.968838963
  0
LWPOLYLINE
  5
1CE
330
17
100
AcDbEntity
  8
ROADS
100
AcDbPolyline
 90
2
 70
0
 10
628790.4842855529
 20
4839849.302615877
 10
628729.2677032471
 20
4840052.578713472
  0
LWPOLYLINE
  5
1CF
330
17
100
AcDbEntity
  8
ROADS
100
AcDbPolyline
 90
2
 70
0
 10
628887.6181068636
 20
4839878.968838963
 10
628826.2719138542
 20
4840082.552666216
  0
LWPOLYLINE
  5
1D0
330
17
100
AcDbEntity
  8
ROADS
100
AcDbPolyline
 90
2
 70
0
 10
628826.2719138542
 20
4840082.552666216
 10
628729.2677032471
 20
4840052.578713472
  0
LWPOLYLINE
  5
1D1
330
17
100
AcDbEntity
  8
ROADS
100
AcDbPolyline
 90
2
 70
0
 10
628948.1148221554
 20
4840030.996516966
 10
628923.690776714
 20
4840110.780020062
  0
LWPOLYLINE
  5
1D2
330
17
100
AcDbEntity
  8
ROADS
100
AcDbPolyline
 90
2
 70
0
 10
628923.690776714
 20
4840110.780020062
 10
628826.2719138542
 20
4840082.552666216
  0
LWPOLYLINE
  5
1D3
330
17
100
AcDbEntity
  8
ROADS
100
AcDbPolyline
 90
2
 70
0
 10
628729.2677032471
 20
4840052.578713472
 10
628678.028356819
 20
4840207.67404103
  0
LWPOLYLINE
  5
1D4
330
17
100
AcDbEntity
  8
ROADS
100
AcDbPolyline
 90
2
 70
0
 10
628923.690776714
 20
4840110.780020062
 10
628894.4921136189
 20
4840202.904959499
  0
LWPOLYLINE
  5
1D5
330
17
100
AcDbEntity
  8
ROADS
100
AcDbPolyline
 90
2
 70
0
 10
629036.3554606523
 20
4840058.319757035
 10
628948.1148221554
 20
4840030.996516966
  0
LWPOLYLINE
  5
1D6
330
17
100
AcDbEntity
  8
ROADS
100
AcDbPolyline
 90
2
 70
0
 10
629241.1369943604
 20
4840011.909381997
 10
629167.9380456158
 20
4840091.171508342
  0
LWPOLYLINE
  5
1D7
330
17
100
AcDbEntity
  8
ROADS
100
AcDbPolyline
 90
2
 70
0
 10
629122.5674398912
 20
4840080.532462755
 10
629167.9380456158
 20
4840091.171508342
  0
LWPOLYLINE
  5
1D8
330
17
100
AcDbEntity
  8
ROADS
100
AcDbPolyline
 90
2
 70
0
 10
629122.5674398912
 20
4840080.532462755
 10
629108.4160790076
 20
4840165.234688362
  0
LWPOLYLINE
  5
1D9
330
17
100
AcDbEntity
  8
ROADS
100
AcDbPolyline
 90
2
 70
0
 10
629067.4908148814
 20
4840153.488483407
 10
628923.690776714
 20
4840110.780020062
  0
LWPOLYLINE
  5
1DA
330
17
100
AcDbEntity
  8
ROADS
100
AcDbPolyline
 90
2
 70
0
 10
629108.4160790076
 20
4840165.234688362
 10
629067.4908148814
 20
4840153.488483407
  0
LWPOLYLINE
  5
1DB
330
17
100
AcDbEntity
  8
ROADS
100
AcDbPolyline
 90
2
 70
0
 10
629108.4160790076
 20
4840165.234688362
 10
629106.2016495175
 20
4840179.068563672
  0
LWPOLYLINE
  5
1DC
330
17
100
AcDbEntity
  8
ROADS
100
AcDbPolyline
 90
2
 70
0
 10
629067.4908148814
 20
4840153.488483407
 10
629051.9792724818
 20
4840249.857373367
  0
LWPOLYLINE
  5
1DD
330
17
100
AcDbEntity
  8
ROADS
100
AcDbPolyline
 90
2
 70
0
 10
629106.2016495175
 20
4840179.068563672
 10
629091.2833599165
 20
4840261.6622631885
  0
LWPOLYLINE
  5
1DE
330
17
100
AcDbEntity
  8
ROADS
100
AcDbPolyline
 90
2
 70
0
 10
629051.9792724818
 20
4840249.857373367
 10
628894.4921136189
 20
4840202.904959499
  0
LWPOLYLINE
  5
1DF
330
17
100
AcDbEntity
  8
ROADS
100
AcDbPolyline
 90
2
 70
0
 10
629551.1428068643
 20
4840032.719222527
 10
629585.3115882786
 20
4840124.783755955
  0
LWPOLYLINE
  5
1E0
330
17
100
AcDbEntity
  8
ROADS
100
AcDbPolyline
 90
2
 70
0
 10
629387.5044586102
 20
4840058.702569679
 10
629353.8224300155
 20
4840148.093342012
  0
LWPOLYLINE
  5
1E1
330
17
100
AcDbEntity
  8
ROADS
100
AcDbPolyline
 90
3
 70
0
 10
629551.1428068643
 20
4840032.719222527
 10
629489.2766790275
 20
4840086.493689646
 10
629446.7758749949
 20
4840175.201892365
  0
LWPOLYLINE
  5
1E2
330
17
100
AcDbEntity
  8
ROADS
100
AcDbPolyline
 90
2
 70
0
 10
629167.9380456158
 20
4840091.171508342
 10
629353.8224300155
 20
4840148.093342012
  0
LWPOLYLINE
  5
1E3
330
17
100
AcDbEntity
  8
ROADS
100
AcDbPolyline
 90
2
 70
0
 10
629353.8224300155
 20
4840148.093342012
 10
629396.0630033363
 20
4840160.741413881
  0
LWPOLYLINE
  5
1E4
330
17
100
AcDbEntity
  8
ROADS
100
AcDbPolyline
 90
2
 70
0
 10
629534.7493973991
 20
4840202.371365548
 10
629585.3115882786
 20
4840124.783755955
  0
LWPOLYLINE
  5
1E5
330
17
100
AcDbEntity
  8
ROADS
100
AcDbPolyline
 90
2
 70
0
 10
629396.0630033363
 20
4840160.741413881
 10
629446.7758749949
 20
4840175.201892365
  0
LWPOLYLINE
  5
1E6
330
17
100
AcDbEntity
  8
ROADS
100
AcDbPolyline
 90
2
 70
0
 10
629396.0630033363
 20
4840160.741413881
 10
629388.4307628628
 20
4840207.542546886
  0
LWPOLYLINE
  5
1E7
330
17
100
AcDbEntity
  8
ROADS
100
AcDbPolyline
 90
2
 70
0
 10
629446.7758749949
 20
4840175.201892365
 10
629534.7493973991
 20
4840202.371365548
  0
LWPOLYLINE
  5
1E8
330
17
100
AcDbEntity
  8
ROADS
100
AcDbPolyline
 90
2
 70
0
 10
629106.2016495175
 20
4840179.068563672
 10
629588.766274992
 20
4840324.351078478
  0
LWPOLYLINE
  5
1E9
330
17
100
AcDbEntity
  8
ROADS
100
AcDbPolyline
 90
3
 70
0
 10
629585.3115882786
 20
4840124.783755955
 10
629627.7809402165
 20
4840111.053142201
 10
629665.3831313581
 20
4840145.235799635
  0
LWPOLYLINE
  5
1EA
330
17
100
AcDbEntity
  8
ROADS
100
AcDbPolyline
 90
2
 70
0
 10
629761.0340826171
 20
4840150.968184084
 10
629871.1450627059
 20
4840181.46391345
  0
LWPOLYLINE
  5
1EB
330
17
100
AcDbEntity
  8
ROADS
100
AcDbPolyline
 90
2
 70
0
 10
629665.3831313581
 20
4840145.235799635
 10
629663.7807114244
 20
4840240.71044275
  0
LWPOLYLINE
  5
1EC
330
17
100
AcDbEntity
  8
ROADS
100
AcDbPolyline
 90
2
 70
0
 10
629761.0340826171
 20
4840150.968184084
 10
629749.3033202703
 20
4840267.260564575
  0
LWPOLYLINE
  5
1ED
330
17
100
AcDbEntity
  8
ROADS
100
AcDbPolyline
 90
2
 70
0
 10
629534.7493973991
 20
4840202.371365548
 10
629620.1929037168
 20
4840229.920106078
  0
LWPOLYLINE
  5
1EE
330
17
100
AcDbEntity
  8
ROADS
100
AcDbPolyline
 90
2
 70
0
 10
629620.1929037168
 20
4840229.920106078
 10
629663.7807114244
 20
4840240.71044275
  0
LWPOLYLINE
  5
1EF
330
17
100
AcDbEntity
  8
ROADS
100
AcDbPolyline
 90
2
 70
0
 10
629871.1450627059
 20
4840181.46391345
 10
629837.1350741326
 20
4840293.149430573
  0
LWPOLYLINE
  5
1F0
330
17
100
AcDbEntity
  8
ROADS
100
AcDbPolyline
 90
2
 70
0
 10
629663.7807114244
 20
4840240.71044275
 10
629749.3033202703
 20
4840267.260564575
  0
LWPOLYLINE
  5
1F1
330
17
100
AcDbEntity
  8
ROADS
100
AcDbPolyline
 90
2
 70
0
 10
629620.1929037168
 20
4840229.920106078
 10
629588.766274992
 20
4840324.351078478
  0
LWPOLYLINE
  5
1F2
330
17
100
AcDbEntity
  8
ROADS
100
AcDbPolyline
 90
2
 70
0
 10
629749.3033202703
 20
4840267.260564575
 10
629837.1350741326
 20
4840293.149430573
  0
LWPOLYLINE
  5
1F3
330
17
100
AcDbEntity
  8
ROADS
100
AcDbPolyline
 90
2
 70
0
 10
629091.2833599165
 20
4840261.6622631885
 10
629051.9792724818
 20
4840249.857373367
  0
LWPOLYLINE
  5
1F4
330
17
100
AcDbEntity
  8
ROADS
100
AcDbPolyline
 90
2
 70
0
 10
629091.2833599165
 20
4840261.6622631885
 10
629087.6659895566
 20
4840283.778316407
  0
LWPOLYLINE
  5
1F5
330
17
100
AcDbEntity
  8
ROADS
100
AcDbPolyline
 90
2
 70
0
 10
629087.6659895566
 20
4840283.778316407
 10
629171.8798200078
 20
4840309.639680695
  0
LWPOLYLINE
  5
1F6
330
17
100
AcDbEntity
  8
ROADS
100
AcDbPolyline
 90
2
 70
0
 10
629171.8798200078
 20
4840309.639680695
 10
629244.0957375653
 20
4840330.09061919
  0
LWPOLYLINE
  5
1F7
330
17
100
AcDbEntity
  8
ROADS
100
AcDbPolyline
 90
2
 70
0
 10
629087.6659895566
 20
4840283.778316407
 10
629041.1395522915
 20
4840547.439389094
  0
LWPOLYLINE
  5
1F8
330
17
100
AcDbEntity
  8
ROADS
100
AcDbPolyline
 90
2
 70
0
 10
629244.0957375653
 20
4840330.09061919
 10
629183.8647069869
 20
4840530.058515946
  0
LWPOLYLINE
  5
1F9
330
17
100
AcDbEntity
  8
ROADS
100
AcDbPolyline
 90
2
 70
0
 10
629171.8798200078
 20
4840309.639680695
 10
629112.6136714342
 20
4840569.919087762
  0
LWPOLYLINE
  5
1FA
330
17
100
AcDbEntity
  8
ROADS
100
AcDbPolyline
 90
2
 70
0
 10
629041.1395522915
 20
4840547.439389094
 10
628887.6058526803
 20
4840502.164478278
  0
LWPOLYLINE
  5
1FB
330
17
100
AcDbEntity
  8
ROADS
100
AcDbPolyline
 90
2
 70
0
 10
629183.8647069869
 20
4840530.058515946
 10
629166.8452043023
 20
4840586.287409658
  0
LWPOLYLINE
  5
1FC
330
17
100
AcDbEntity
  8
ROADS
100
AcDbPolyline
 90
2
 70
0
 10
629041.1395522915
 20
4840547.439389094
 10
629112.6136714342
 20
4840569.919087762
  0
LWPOLYLINE
  5
1FD
330
17
100
AcDbEntity
  8
ROADS
100
AcDbPolyline
 90
2
 70
0
 10
629244.0957375653
 20
4840330.09061919
 10
629350.5340295242
 20
4840362.700560923
  0
LWPOLYLINE
  5
1FE
330
17
100
AcDbEntity
  8
ROADS
100
AcDbPolyline
 90
2
 70
0
 10
629350.5340295242
 20
4840362.700560923
 10
629378.231183812
 20
4840370.756219756
  0
LWPOLYLINE
  5
1FF
330
17
100
AcDbEntity
  8
ROADS
100
AcDbPolyline
 90
2
 70
0
 10
629378.231183812
 20
4840370.756219756
 10
629455.7709335882
 20
4840394.44472715
  0
LWPOLYLINE
  5
200
330
17
100
AcDbEntity
  8
ROADS
100
AcDbPolyline
 90
2
 70
0
 10
629378.231183812
 20
4840370.756219756
 10
629379.2616238904
 20
4840402.29602783
  0
LWPOLYLINE
  5
201
330
17
100
AcDbEntity
  8
ROADS
100
AcDbPolyline
 90
2
 70
0
 10
629455.7709335882
 20
4840394.44472715
 10
629563.8314487431
 20
4840426.665031883
  0
LWPOLYLINE
  5
202
330
17
100
AcDbEntity
  8
ROADS
100
AcDbPolyline
 90
2
 70
0
 10
629350.5340295242
 20
4840362.700560923
 10
629290.8504797051
 20
4840561.923370343
  0
LWPOLYLINE
  5
203
330
17
100
AcDbEntity
  8
ROADS
100
AcDbPolyline
 90
2
 70
0
 10
629455.7709335882
 20
4840394.44472715
 10
629380.3183752698
 20
4840650.589193208
  0
LWPOLYLINE
  5
204
330
17
100
AcDbEntity
  8
ROADS
100
AcDbPolyline
 90
2
 70
0
 10
629183.8647069869
 20
4840530.058515946
 10
629290.8504797051
 20
4840561.923370343
  0
LWPOLYLINE
  5
205
330
17
100
AcDbEntity
  8
ROADS
100
AcDbPolyline
 90
2
 70
0
 10
629563.8314487431
 20
4840426.665031883
 10
629485.6373671406
 20
4840681.498880311
  0
LWPOLYLINE
  5
206
330
17
100
AcDbEntity
  8
ROADS
100
AcDbPolyline
 90
2
 70
0
 10
629290.8504797051
 20
4840561.923370343
 10
629273.6979643158
 20
4840618.98093053
  0
LWPOLYLINE
  5
207
330
17
100
AcDbEntity
  8
ROADS
100
AcDbPolyline
 90
2
 70
0
 10
629112.6136714342
 20
4840569.919087762
 10
629166.8452043023
 20
4840586.287409658
  0
LWPOLYLINE
  5
208
330
17
100
AcDbEntity
  8
ROADS
100
AcDbPolyline
 90
2
 70
0
 10
629166.8452043023
 20
4840586.287409658
 10
629273.6979643158
 20
4840618.98093053
  0
LWPOLYLINE
  5
209
330
17
100
AcDbEntity
  8
ROADS
100
AcDbPolyline
 90
2
 70
0
 10
629041.1395522915
 20
4840547.439389094
 10
629017.3949572416
 20
4840686.248661285
  0
LWPOLYLINE
  5
20A
330
17
100
AcDbEntity
  8
ROADS
100
AcDbPolyline
 90
2
 70
0
 10
629017.3949572416
 20
4840686.248661285
 10
629012.8399141871
 20
4840711.077423164
  0
LWPOLYLINE
  5
20B
330
17
100
AcDbEntity
  8
ROADS
100
AcDbPolyline
 90
2
 70
0
 10
629012.8399141871
 20
4840711.077423164
 10
628995.5832445449
 20
4840808.294755926
  0
LWPOLYLINE
  5
20C
330
17
100
AcDbEntity
  8
ROADS
100
AcDbPolyline
 90
2
 70
0
 10
628995.5832445449
 20
4840808.294755926
 10
628986.1766697764
 20
4840863.697295977
  0
LWPOLYLINE
  5
20D
330
17
100
AcDbEntity
  8
ROADS
100
AcDbPolyline
 90
2
 70
0
 10
628986.1766697764
 20
4840863.697295977
 10
629396.7870146388
 20
4840984.103081251
  0
LWPOLYLINE
  5
20E
330
17
100
AcDbEntity
  8
ROADS
100
AcDbPolyline
 90
2
 70
0
 10
628986.1766697764
 20
4840863.697295977
 10
628961.1999540906
 20
4841012.532407031
  0
LWPOLYLINE
  5
20F
330
17
100
AcDbEntity
  8
ROADS
100
AcDbPolyline
 90
2
 70
0
 10
628961.1999540906
 20
4841012.532407031
 10
628958.3853645585
 20
4841030.460687862
  0
LWPOLYLINE
  5
210
330
17
100
AcDbEntity
  8
ROADS
100
AcDbPolyline
 90
2
 70
0
 10
628958.3853645585
 20
4841030.460687862
 10
629347.6649908186
 20
4841146.564901041
  0
LWPOLYLINE
  5
211
330
17
100
AcDbEntity
  8
ROADS
100
AcDbPolyline
 90
2
 70
0
 10
629273.6979643158
 20
4840618.98093053
 10
629380.3183752698
 20
4840650.589193208
  0
LWPOLYLINE
  5
212
330
17
100
AcDbEntity
  8
ROADS
100
AcDbPolyline
 90
2
 70
0
 10
629380.3183752698
 20
4840650.589193208
 10
629485.6373671406
 20
4840681.498880311
  0
LWPOLYLINE
  5
213
330
17
100
AcDbEntity
  8
ROADS
100
AcDbPolyline
 90
2
 70
0
 10
629485.6373671406
 20
4840681.498880311
 10
629593.302383156
 20
4840714.7391952155
  0
LWPOLYLINE
  5
214
330
17
100
AcDbEntity
  8
ROADS
100
AcDbPolyline
 90
2
 70
0
 10
629485.6373671406
 20
4840681.498880311
 10
629446.8974763022
 20
4840816.753263064
  0
LWPOLYLINE
  5
215
330
17
100
AcDbEntity
  8
ROADS
100
AcDbPolyline
 90
2
 70
0
 10
629017.3949572416
 20
4840686.248661285
 10
629446.8974763022
 20
4840816.753263064
  0
LWPOLYLINE
  5
216
330
17
100
AcDbEntity
  8
ROADS
100
AcDbPolyline
 90
2
 70
0
 10
629446.8974763022
 20
4840816.753263064
 10
629659.4293120471
 20
4840880.801194199
  0
LWPOLYLINE
  5
217
330
17
100
AcDbEntity
  8
ROADS
100
AcDbPolyline
 90
2
 70
0
 10
629446.8974763022
 20
4840816.753263064
 10
629396.7870146388
 20
4840984.103081251
  0
LWPOLYLINE
  5
218
330
17
100
AcDbEntity
  8
ROADS
100
AcDbPolyline
 90
2
 70
0
 10
629396.7870146388
 20
4840984.103081251
 10
629610.0612999446
 20
4841047.904526707
  0
LWPOLYLINE
  5
219
330
17
100
AcDbEntity
  8
ROADS
100
AcDbPolyline
 90
2
 70
0
 10
629396.7870146388
 20
4840984.103081251
 10
629347.6649908186
 20
4841146.564901041
  0
LWPOLYLINE
  5
21A
330
17
100
AcDbEntity
  8
ROADS
100
AcDbPolyline
 90
2
 70
0
 10
629347.6649908186
 20
4841146.564901041
 10
629383.81089946
 20
4841157.3731912635
  0
LWPOLYLINE
  5
21B
330
17
100
AcDbEntity
  8
ROADS
100
AcDbPolyline
 90
2
 70
0
 10
629837.1350741326
 20
4840293.149430573
 10
629883.1108047588
 20
4840306.884191085
  0
LWPOLYLINE
  5
21C
330
17
100
AcDbEntity
  8
ROADS
100
AcDbPolyline
 90
2
 70
0
 10
629837.1350741326
 20
4840293.149430573
 10
629807.389915437
 20
4840390.654095307
  0
LWPOLYLINE
  5
21D
330
17
100
AcDbEntity
  8
ROADS
100
AcDbPolyline
 90
2
 70
0
 10
629588.766274992
 20
4840324.351078478
 10
629807.389915437
 20
4840390.654095307
  0
LWPOLYLINE
  5
21E
330
17
100
AcDbEntity
  8
ROADS
100
AcDbPolyline
 90
2
 70
0
 10
629588.766274992
 20
4840324.351078478
 10
629563.8314487431
 20
4840426.665031883
  0
LWPOLYLINE
  5
21F
330
17
100
AcDbEntity
  8
ROADS
100
AcDbPolyline
 90
2
 70
0
 10
629807.389915437
 20
4840390.654095307
 10
629773.6219187815
 20
4840489.7080674805
  0
LWPOLYLINE
  5
220
330
17
100
AcDbEntity
  8
ROADS
100
AcDbPolyline
 90
2
 70
0
 10
629563.8314487431
 20
4840426.665031883
 10
629670.0461949958
 20
4840457.9828993175
  0
LWPOLYLINE
  5
221
330
17
100
AcDbEntity
  8
ROADS
100
AcDbPolyline
 90
2
 70
0
 10
629670.0461949958
 20
4840457.9828993175
 10
629773.6219187815
 20
4840489.7080674805
  0
LWPOLYLINE
  5
222
330
17
100
AcDbEntity
  8
ROADS
100
AcDbPolyline
 90
2
 70
0
 10
629773.6219187815
 20
4840489.7080674805
 10
629880.3941351007
 20
4840521.641102687
  0
LWPOLYLINE
  5
223
330
17
100
AcDbEntity
  8
ROADS
100
AcDbPolyline
 90
2
 70
0
 10
629670.0461949958
 20
4840457.9828993175
 10
629593.302383156
 20
4840714.7391952155
  0
LWPOLYLINE
  5
224
330
17
100
AcDbEntity
  8
ROADS
100
AcDbPolyline
 90
2
 70
0
 10
629773.6219187815
 20
4840489.7080674805
 10
629699.0993477398
 20
4840747.313685046
  0
LWPOLYLINE
  5
225
330
17
100
AcDbEntity
  8
ROADS
100
AcDbPolyline
 90
2
 70
0
 10
629880.3941351007
 20
4840521.641102687
 10
629987.1630243202
 20
4840552.07399176
  0
LWPOLYLINE
  5
226
330
17
100
AcDbEntity
  8
ROADS
100
AcDbPolyline
 90
2
 70
0
 10
629987.1630243202
 20
4840552.07399176
 10
630087.1240529468
 20
4840582.120058488
  0
LWPOLYLINE
  5
227
330
17
100
AcDbEntity
  8
ROADS
100
AcDbPolyline
 90
2
 70
0
 10
629987.1630243202
 20
4840552.07399176
 10
629910.232780576
 20
4840808.735130785
  0
LWPOLYLINE
  5
228
330
17
100
AcDbEntity
  8
ROADS
100
AcDbPolyline
 90
2
 70
0
 10
630090.0436291663
 20
4840595.000521584
 10
630015.9787550326
 20
4840839.600636183
  0
LWPOLYLINE
  5
229
330
17
100
AcDbEntity
  8
ROADS
100
AcDbPolyline
 90
2
 70
0
 10
629880.7209806025
 20
4840800.153553317
 10
629910.232780576
 20
4840808.735130785
  0
LWPOLYLINE
  5
22A
330
17
100
AcDbEntity
  8
ROADS
100
AcDbPolyline
 90
2
 70
0
 10
629910.232780576
 20
4840808.735130785
 10
630015.9787550326
 20
4840839.600636183
  0
LWPOLYLINE
  5
22B
330
17
100
AcDbEntity
  8
ROADS
100
AcDbPolyline
 90
2
 70
0
 10
630015.9787550326
 20
4840839.600636183
 10
630105.9031527488
 20
4840866.927746494
  0
LWPOLYLINE
  5
22C
330
17
100
AcDbEntity
  8
ROADS
100
AcDbPolyline
 90
2
 70
0
 10
629880.3941351007
 20
4840521.641102687
 10
629805.6458510791
 20
4840777.099561658
  0
LWPOLYLINE
  5
22D
330
17
100
AcDbEntity
  8
ROADS
100
AcDbPolyline
 90
2
 70
0
 10
629593.302383156
 20
4840714.7391952155
 10
629699.0993477398
 20
4840747.313685046
  0
LWPOLYLINE
  5
22E
330
17
100
AcDbEntity
  8
ROADS
100
AcDbPolyline
 90
2
 70
0
 10
629699.0993477398
 20
4840747.313685046
 10
629805.6458510791
 20
4840777.099561658
  0
LWPOLYLINE
  5
22F
330
17
100
AcDbEntity
  8
ROADS
100
AcDbPolyline
 90
2
 70
0
 10
629805.6458510791
 20
4840777.099561658
 10
629880.7209806025
 20
4840800.153553317
  0
LWPOLYLINE
  5
230
330
17
100
AcDbEntity
  8
ROADS
100
AcDbPolyline
 90
2
 70
0
 10
629699.0993477398
 20
4840747.313685046
 10
629659.4293120471
 20
4840880.801194199
  0
LWPOLYLINE
  5
231
330
17
100
AcDbEntity
  8
ROADS
100
AcDbPolyline
 90
2
 70
0
 10
629880.7209806025
 20
4840800.153553317
 10
629839.5576486445
 20
4840933.594106051
  0
LWPOLYLINE
  5
232
330
17
100
AcDbEntity
  8
ROADS
100
AcDbPolyline
 90
2
 70
0
 10
629659.4293120471
 20
4840880.801194199
 10
629839.5576486445
 20
4840933.594106051
  0
LWPOLYLINE
  5
233
330
17
100
AcDbEntity
  8
ROADS
100
AcDbPolyline
 90
2
 70
0
 10
629839.5576486445
 20
4840933.594106051
 10
629861.8760677638
 20
4840940.289404859
  0
LWPOLYLINE
  5
234
330
17
100
AcDbEntity
  8
ROADS
100
AcDbPolyline
 90
2
 70
0
 10
629659.4293120471
 20
4840880.801194199
 10
629610.0612999446
 20
4841047.904526707
  0
LWPOLYLINE
  5
235
330
17
100
AcDbEntity
  8
ROADS
100
AcDbPolyline
 90
2
 70
0
 10
629861.8760677638
 20
4840940.289404859
 10
629839.6070226924
 20
4841015.699750208
  0
LWPOLYLINE
  5
236
330
17
100
AcDbEntity
  8
ROADS
100
AcDbPolyline
 90
2
 70
0
 10
629861.8760677638
 20
4840940.289404859
 10
630088.1373661215
 20
4841009.141004117
  0
LWPOLYLINE
  5
237
330
17
100
AcDbEntity
  8
ROADS
100
AcDbPolyline
 90
2
 70
0
 10
629839.6070226924
 20
4841015.699750208
 10
630071.234493771
 20
4841085.433414927
  0
LWPOLYLINE
  5
238
330
17
100
AcDbEntity
  8
ROADS
100
AcDbPolyline
 90
2
 70
0
 10
629813.999006419
 20
4841108.724401414
 10
630014.0381274242
 20
4841168.738747468
  0
LWPOLYLINE
  5
239
330
17
100
AcDbEntity
  8
ROADS
100
AcDbPolyline
 90
2
 70
0
 10
630014.0381274242
 20
4841168.738747468
 10
630044.8262225131
 20
4841178.07479482
  0
LWPOLYLINE
  5
23A
330
17
100
AcDbEntity
  8
ROADS
100
AcDbPolyline
 90
3
 70
0
 10
630014.0381274242
 20
4841168.738747468
 10
629997.4874703584
 20
4841217.619715622
 10
630026.8922010884
 20
4841229.995954142
  0
LWPOLYLINE
  5
23B
330
17
100
AcDbEntity
  8
ROADS
100
AcDbPolyline
 90
2
 70
0
 10
628942.349743752
 20
4841113.444125315
 10
628898.0893738382
 20
4841100.478380645
  0
LWPOLYLINE
  5
23C
330
17
100
AcDbEntity
  8
ROADS
100
AcDbPolyline
 90
2
 70
0
 10
628801.8874990495
 20
4841070.3266326245
 10
628785.1074782258
 20
4841171.179755652
  0
LWPOLYLINE
  5
23D
330
17
100
AcDbEntity
  8
ROADS
100
AcDbPolyline
 90
2
 70
0
 10
628942.349743752
 20
4841113.444125315
 10
628935.2156529177
 20
4841163.658419399
  0
LWPOLYLINE
  5
23E
330
17
100
AcDbEntity
  8
ROADS
100
AcDbPolyline
 90
2
 70
0
 10
628785.1074782258
 20
4841171.179755652
 10
628780.2845909168
 20
4841199.506381782
  0
LWPOLYLINE
  5
23F
330
17
100
AcDbEntity
  8
ROADS
100
AcDbPolyline
 90
2
 70
0
 10
628935.2156529177
 20
4841163.658419399
 10
628921.6600280392
 20
4841242.228423649
  0
LWPOLYLINE
  5
240
330
17
100
AcDbEntity
  8
ROADS
100
AcDbPolyline
 90
2
 70
0
 10
628921.6600280392
 20
4841242.228423649
 10
628780.2845909168
 20
4841199.506381782
  0
LWPOLYLINE
  5
241
330
17
100
AcDbEntity
  8
ROADS
100
AcDbPolyline
 90
2
 70
0
 10
628780.2845909168
 20
4841199.506381782
 10
628766.0844913044
 20
4841270.363170876
  0
LWPOLYLINE
  5
242
330
17
100
AcDbEntity
  8
ROADS
100
AcDbPolyline
 90
2
 70
0
 10
628921.6600280392
 20
4841242.228423649
 10
628911.8566742995
 20
4841298.856843279
  0
LWPOLYLINE
  5
243
330
17
100
AcDbEntity
  8
ROADS
100
AcDbPolyline
 90
2
 70
0
 10
628909.0108010463
 20
4841315.031435227
 10
628766.0844913044
 20
4841270.363170876
  0
LWPOLYLINE
  5
244
330
17
100
AcDbEntity
  8
ROADS
100
AcDbPolyline
 90
2
 70
0
 10
628911.8566742995
 20
4841298.856843279
 10
628909.0108010463
 20
4841315.031435227
  0
LWPOLYLINE
  5
245
330
17
100
AcDbEntity
  8
ROADS
100
AcDbPolyline
 90
2
 70
0
 10
629347.6649908186
 20
4841146.564901041
 10
629343.2724671651
 20
4841177.857065683
  0
LWPOLYLINE
  5
246
330
17
100
AcDbEntity
  8
ROADS
100
AcDbPolyline
 90
2
 70
0
 10
629383.81089946
 20
4841157.3731912635
 10
629343.2724671651
 20
4841177.857065683
  0
LWPOLYLINE
  5
247
330
17
100
AcDbEntity
  8
ROADS
100
AcDbPolyline
 90
3
 70
0
 10
629315.0782287346
 20
4841174.88969476
 10
629328.5587103185
 20
4841192.81984938
 10
629343.2724671651
 20
4841177.857065683
  0
LWPOLYLINE
  5
248
330
17
100
AcDbEntity
  8
ROADS
100
AcDbPolyline
 90
2
 70
0
 10
629383.81089946
 20
4841157.3731912635
 10
629561.7218525029
 20
4841211.384172292
  0
LWPOLYLINE
  5
249
330
17
100
AcDbEntity
  8
ROADS
100
AcDbPolyline
 90
2
 70
0
 10
629561.7218525029
 20
4841211.384172292
 10
629522.7370964113
 20
4841340.483671982
  0
LWPOLYLINE
  5
24A
330
17
100
AcDbEntity
  8
ROADS
100
AcDbPolyline
 90
2
 70
0
 10
629522.7370964113
 20
4841340.483671982
 10
629485.3163278506
 20
4841472.184623337
  0
LWPOLYLINE
  5
24B
330
17
100
AcDbEntity
  8
ROADS
100
AcDbPolyline
 90
2
 70
0
 10
629485.3163278506
 20
4841472.184623337
 10
629450.6056171521
 20
4841588.527529012
  0
LWPOLYLINE
  5
24C
330
17
100
AcDbEntity
  8
ROADS
100
AcDbPolyline
 90
4
 70
0
 10
629122.2466861742
 20
4841530.4736106265
 10
629152.0398603219
 20
4841506.316098899
 10
629180.1778785143
 20
4841507.139333075
 10
629450.6056171521
 20
4841588.527529012
  0
LWPOLYLINE
  5
24D
330
17
100
AcDbEntity
  8
ROADS
100
AcDbPolyline
 90
2
 70
0
 10
629450.6056171521
 20
4841588.527529012
 10
629652.6722139511
 20
4841649.667368318
  0
LWPOLYLINE
  5
24E
330
17
100
AcDbEntity
  8
ROADS
100
AcDbPolyline
 90
2
 70
0
 10
629450.6056171521
 20
4841588.527529012
 10
629404.3942394006
 20
4841689.278219138
  0
LWPOLYLINE
  5
24F
330
17
100
AcDbEntity
  8
ROADS
100
AcDbPolyline
 90
2
 70
0
 10
628935.2156529177
 20
4841163.658419399
 10
629522.7370964113
 20
4841340.483671982
  0
LWPOLYLINE
  5
250
330
17
100
AcDbEntity
  8
ROADS
100
AcDbPolyline
 90
2
 70
0
 10
628979.1107537847
 20
4841232.565340014
 10
628965.1691106625
 20
4841315.057631561
  0
LWPOLYLINE
  5
251
330
17
100
AcDbEntity
  8
ROADS
100
AcDbPolyline
 90
2
 70
0
 10
628965.1691106625
 20
4841315.057631561
 10
629485.3163278506
 20
4841472.184623337
  0
LWPOLYLINE
  5
252
330
17
100
AcDbEntity
  8
ROADS
100
AcDbPolyline
 90
2
 70
0
 10
628963.9178520513
 20
4841483.452349491
 10
629040.179850089
 20
4841505.399847432
  0
LWPOLYLINE
  5
253
330
17
100
AcDbEntity
  8
ROADS
100
AcDbPolyline
 90
2
 70
0
 10
628963.9178520513
 20
4841483.452349491
 10
628952.7072112111
 20
4841543.570539178
  0
LWPOLYLINE
  5
254
330
17
100
AcDbEntity
  8
ROADS
100
AcDbPolyline
 90
2
 70
0
 10
629040.179850089
 20
4841505.399847432
 10
629122.2466861742
 20
4841530.4736106265
  0
LWPOLYLINE
  5
255
330
17
100
AcDbEntity
  8
ROADS
100
AcDbPolyline
 90
2
 70
0
 10
629040.179850089
 20
4841505.399847432
 10
629025.2526784736
 20
4841587.80330369
  0
LWPOLYLINE
  5
256
330
17
100
AcDbEntity
  8
ROADS
100
AcDbPolyline
 90
2
 70
0
 10
629122.2466861742
 20
4841530.4736106265
 10
629130.3919071328
 20
4841602.22088107
  0
LWPOLYLINE
  5
257
330
17
100
AcDbEntity
  8
ROADS
100
AcDbPolyline
 90
2
 70
0
 10
628958.3653848094
 20
4841671.731573456
 10
628969.4330409701
 20
4841617.747213132
  0
LWPOLYLINE
  5
258
330
17
100
AcDbEntity
  8
ROADS
100
AcDbPolyline
 90
3
 70
0
 10
629130.3919071328
 20
4841602.22088107
 10
629097.1143196289
 20
4841632.079715488
 10
629073.145442545
 20
4841706.529019406
  0
LWPOLYLINE
  5
259
330
17
100
AcDbEntity
  8
ROADS
100
AcDbPolyline
 90
2
 70
0
 10
628911.8566742995
 20
4841298.856843279
 10
628965.1691106625
 20
4841315.057631561
  0
LWPOLYLINE
  5
25A
330
17
100
AcDbEntity
  8
ROADS
100
AcDbPolyline
 90
2
 70
0
 10
628766.0844913044
 20
4841270.363170876
 10
628733.9244523913
 20
4841366.183631249
  0
LWPOLYLINE
  5
25B
330
17
100
AcDbEntity
  8
ROADS
100
AcDbPolyline
 90
2
 70
0
 10
628909.0108010463
 20
4841315.031435227
 10
628891.6999160302
 20
4841415.704961179
  0
LWPOLYLINE
  5
25C
330
17
100
AcDbEntity
  8
ROADS
100
AcDbPolyline
 90
2
 70
0
 10
628891.6999160302
 20
4841415.704961179
 10
628733.9244523913
 20
4841366.183631249
  0
LWPOLYLINE
  5
25D
330
17
100
AcDbEntity
  8
ROADS
100
AcDbPolyline
 90
2
 70
0
 10
628733.9244523913
 20
4841366.183631249
 10
628701.030387506
 20
4841462.4988240255
  0
LWPOLYLINE
  5
25E
330
17
100
AcDbEntity
  8
ROADS
100
AcDbPolyline
 90
2
 70
0
 10
628891.6999160302
 20
4841415.704961179
 10
628884.268727698
 20
4841457.742316176
  0
LWPOLYLINE
  5
25F
330
17
100
AcDbEntity
  8
ROADS
100
AcDbPolyline
 90
2
 70
0
 10
628884.268727698
 20
4841457.742316176
 10
628963.9178520513
 20
4841483.452349491
  0
LWPOLYLINE
  5
260
330
17
100
AcDbEntity
  8
ROADS
100
AcDbPolyline
 90
2
 70
0
 10
628884.268727698
 20
4841457.742316176
 10
628873.9945341254
 20
4841516.292332736
  0
LWPOLYLINE
  5
261
330
17
100
AcDbEntity
  8
ROADS
100
AcDbPolyline
 90
2
 70
0
 10
628873.9945341254
 20
4841516.292332736
 10
628701.030387506
 20
4841462.4988240255
  0
LWPOLYLINE
  5
262
330
17
100
AcDbEntity
  8
ROADS
100
AcDbPolyline
 90
2
 70
0
 10
628873.9945341254
 20
4841516.292332736
 10
628855.4318251015
 20
4841616.506154847
  0
LWPOLYLINE
  5
263
330
17
100
AcDbEntity
  8
ROADS
100
AcDbPolyline
 90
3
 70
0
 10
629485.3163278506
 20
4841472.184623337
 10
629774.6790413188
 20
4841567.863503756
 10
629831.3904311176
 20
4841613.098915209
  0
LWPOLYLINE
  5
264
330
17
100
AcDbEntity
  8
ROADS
100
AcDbPolyline
 90
3
 70
0
 10
629904.6256675898
 20
4841633.042582698
 10
629868.2336274103
 20
4841634.285116756
 10
629831.3904311176
 20
4841613.098915209
  0
LWPOLYLINE
  5
265
330
17
100
AcDbEntity
  8
ROADS
100
AcDbPolyline
 90
2
 70
0
 10
629831.3904311176
 20
4841613.098915209
 10
629822.2754689481
 20
4841649.312506442
  0
LWPOLYLINE
  5
266
330
17
100
AcDbEntity
  8
ROADS
100
AcDbPolyline
 90
2
 70
0
 10
629652.6722139511
 20
4841649.667368318
 10
629698.8785712438
 20
4841662.369409599
  0
LWPOLYLINE
  5
267
330
17
100
AcDbEntity
  8
ROADS
100
AcDbPolyline
 90
3
 70
0
 10
629934.6766184126
 20
4841637.969733587
 10
629862.5026030355
 20
4841759.428185838
 10
629795.0716906772
 20
4841785.2447312325
  0
LWPOLYLINE
  5
268
330
17
100
AcDbEntity
  8
ROADS
100
AcDbPolyline
 90
5
 70
0
 10
629904.6256675898
 20
4841633.042582698
 10
629860.6792635268
 20
4841738.109694534
 10
629732.2146574027
 20
4841776.843984076
 10
629694.4355347417
 20
4841828.906606578
 10
629698.6663371648
 20
4841853.081854179
  0
LWPOLYLINE
  5
269
330
17
100
AcDbEntity
  8
ROADS
100
AcDbPolyline
 90
2
 70
0
 10
629795.0716906772
 20
4841785.2447312325
 10
629722.588289167
 20
4841840.190864511
  0
LWPOLYLINE
  5
26A
330
17
100
AcDbEntity
  8
ROADS
100
AcDbPolyline
 90
3
 70
0
 10
629795.0716906772
 20
4841785.2447312325
 10
629752.0928790816
 20
4841799.269942981
 10
629722.588289167
 20
4841840.190864511
  0
LWPOLYLINE
  5
26B
330
17
100
AcDbEntity
  8
ROADS
100
AcDbPolyline
 90
2
 70
0
 10
629722.588289167
 20
4841840.190864511
 10
629716.4767785235
 20
4841854.452260621
  0
LWPOLYLINE
  5
26C
330
17
100
AcDbEntity
  8
ROADS
100
AcDbPolyline
 90
2
 70
0
 10
629698.6663371648
 20
4841853.081854179
 10
629716.4767785235
 20
4841854.452260621
  0
LWPOLYLINE
  5
26D
330
17
100
AcDbEntity
  8
ROADS
100
AcDbPolyline
 90
2
 70
0
 10
629130.3919071328
 20
4841602.22088107
 10
629404.3942394006
 20
4841689.278219138
  0
LWPOLYLINE
  5
26E
330
17
100
AcDbEntity
  8
ROADS
100
AcDbPolyline
 90
3
 70
0
 10
629404.3942394006
 20
4841689.278219138
 10
629619.923530519
 20
4841748.356595026
 10
629652.6722139511
 20
4841649.667368318
  0
LWPOLYLINE
  5
26F
330
17
100
AcDbEntity
  8
ROADS
100
AcDbPolyline
 90
2
 70
0
 10
629404.3942394006
 20
4841689.278219138
 10
629357.894579741
 20
4841793.854927711
  0
LWPOLYLINE
  5
270
330
17
100
AcDbEntity
  8
ROADS
100
AcDbPolyline
 90
2
 70
0
 10
629357.894579741
 20
4841793.854927711
 10
629708.0864195583
 20
4841899.08853337
  0
LWPOLYLINE
  5
271
330
17
100
AcDbEntity
  8
ROADS
100
AcDbPolyline
 90
2
 70
0
 10
629357.894579741
 20
4841793.854927711
 10
629337.8704293097
 20
4841903.807100981
  0
LWPOLYLINE
  5
272
330
17
100
AcDbEntity
  8
ROADS
100
AcDbPolyline
 90
2
 70
0
 10
629337.8704293097
 20
4841903.807100981
 10
629317.3298086094
 20
4841974.438220036
  0
LWPOLYLINE
  5
273
330
17
100
AcDbEntity
  8
ROADS
100
AcDbPolyline
 90
5
 70
0
 10
629708.0864195583
 20
4841899.08853337
 10
629633.4486669158
 20
4841924.206568179
 10
629526.4163805883
 20
4841899.498900857
 10
629402.6729555789
 20
4841979.285018343
 10
629371.5020587054
 20
4841986.896937521
  0
LWPOLYLINE
  5
274
330
17
100
AcDbEntity
  8
ROADS
100
AcDbPolyline
 90
2
 70
0
 10
629337.8704293097
 20
4841903.807100981
 10
629371.5020587054
 20
4841986.896937521
  0
LWPOLYLINE
  5
275
330
17
100
AcDbEntity
  8
ROADS
100
AcDbPolyline
 90
2
 70
0
 10
629371.5020587054
 20
4841986.896937521
 10
629317.3298086094
 20
4841974.438220036
  0
LWPOLYLINE
  5
276
330
17
100
AcDbEntity
  8
ROADS
100
AcDbPolyline
 90
2
 70
0
 10
629371.5020587054
 20
4841986.896937521
 10
629419.8847311034
 20
4842005.444302969
  0
LWPOLYLINE
  5
277
330
17
100
AcDbEntity
  8
ROADS
100
AcDbPolyline
 90
2
 70
0
 10
628958.3653848094
 20
4841671.731573456
 10
628986.5266632028
 20
4841680.220759954
  0
LWPOLYLINE
  5
278
330
17
100
AcDbEntity
  8
ROADS
100
AcDbPolyline
 90
2
 70
0
 10
628986.5266632028
 20
4841680.220759954
 10
629073.145442545
 20
4841706.529019406
  0
LWPOLYLINE
  5
279
330
17
100
AcDbEntity
  8
ROADS
100
AcDbPolyline
 90
2
 70
0
 10
629073.145442545
 20
4841706.529019406
 10
629357.894579741
 20
4841793.854927711
  0
LWPOLYLINE
  5
27A
330
17
100
AcDbEntity
  8
ROADS
100
AcDbPolyline
 90
2
 70
0
 10
628986.5266632028
 20
4841680.220759954
 10
628959.8218295105
 20
4841822.018068519
  0
LWPOLYLINE
  5
27B
330
17
100
AcDbEntity
  8
ROADS
100
AcDbPolyline
 90
2
 70
0
 10
628959.8218295105
 20
4841822.018068519
 10
629104.5151022689
 20
4841852.770624397
  0
LWPOLYLINE
  5
27C
330
17
100
AcDbEntity
  8
ROADS
100
AcDbPolyline
 90
3
 70
0
 10
628943.7622340944
 20
4841919.522017023
 10
628991.8278366905
 20
4841931.603675256
 10
629038.5278524712
 20
4841921.223102907
  0
LWPOLYLINE
  5
27D
330
17
100
AcDbEntity
  8
ROADS
100
AcDbPolyline
 90
5
 70
0
 10
629317.3298086094
 20
4841974.438220036
 10
629231.670588061
 20
4841936.551447773
 10
629183.0002325472
 20
4841932.906411421
 10
629095.4890130891
 20
4841965.025900687
 10
629055.1172615272
 20
4842014.647651285
  0
LWPOLYLINE
  5
27E
330
17
100
AcDbEntity
  8
ROADS
100
AcDbPolyline
 90
4
 70
0
 10
629055.1172615272
 20
4842014.647651285
 10
629054.9373714853
 20
4842050.115799112
 10
629123.2176912227
 20
4842016.150183882
 10
629288.8948305224
 20
4842069.095108645
  0
LWPOLYLINE
  5
27F
330
17
100
AcDbEntity
  8
ROADS
100
AcDbPolyline
 90
2
 70
0
 10
628889.9641304617
 20
4842104.733226436
 10
629055.1172615272
 20
4842014.647651285
  0
LWPOLYLINE
  5
280
330
17
100
AcDbEntity
  8
ROADS
100
AcDbPolyline
 90
5
 70
0
 10
628908.0407458598
 20
4842219.679774513
 10
628954.9082109199
 20
4842157.776799002
 10
629034.5125076529
 20
4842126.009301251
 10
629109.9984020804
 20
4842130.773737026
 10
629254.6680877522
 20
4842175.650977553
  0
LWPOLYLINE
  5
281
330
17
100
AcDbEntity
  8
ROADS
100
AcDbPolyline
 90
4
 70
0
 10
629698.6663371648
 20
4841853.081854179
 10
629701.2992613547
 20
4841871.82880769
 10
629680.1604041634
 20
4841877.09962903
 10
629712.4991011823
 20
4841889.8397444
  0
LWPOLYLINE
  5
282
330
17
100
AcDbEntity
  8
ROADS
100
AcDbPolyline
 90
2
 70
0
 10
629716.4767785235
 20
4841854.452260621
 10
629712.4991011823
 20
4841889.8397444
  0
LWPOLYLINE
  5
283
330
17
100
AcDbEntity
  8
ROADS
100
AcDbPolyline
 90
2
 70
0
 10
629712.4991011823
 20
4841889.8397444
 10
629708.0864195583
 20
4841899.08853337
  0
LWPOLYLINE
  5
284
330
17
100
AcDbEntity
  8
ROADS
100
AcDbPolyline
 90
2
 70
0
 10
629708.0864195583
 20
4841899.08853337
 10
629814.4060835835
 20
4841931.069825912
  0
LWPOLYLINE
  5
285
330
17
100
AcDbEntity
  8
ROADS
100
AcDbPolyline
 90
3
 70
0
 10
629814.4060835835
 20
4841931.069825912
 10
629774.300837748
 20
4841992.26431987
 10
629739.3986231335
 20
4842097.903062431
  0
LWPOLYLINE
  5
286
330
17
100
AcDbEntity
  8
ROADS
100
AcDbPolyline
 90
2
 70
0
 10
629602.3834086494
 20
4842058.984733358
 10
629739.3986231335
 20
4842097.903062431
  0
LWPOLYLINE
  5
287
330
17
100
AcDbEntity
  8
ROADS
100
AcDbPolyline
 90
2
 70
0
 10
629602.3834086494
 20
4842058.984733358
 10
629570.192770282
 20
4842155.981889427
  0
LWPOLYLINE
  5
288
330
17
100
AcDbEntity
  8
ROADS
100
AcDbPolyline
 90
2
 70
0
 10
629739.3986231335
 20
4842097.903062431
 10
629763.029354203
 20
4842178.793370634
  0
LWPOLYLINE
  5
289
330
17
100
AcDbEntity
  8
ROADS
100
AcDbPolyline
 90
3
 70
0
 10
629570.192770282
 20
4842155.981889427
 10
629655.7291232611
 20
4842183.144785166
 10
629763.029354203
 20
4842178.793370634
  0
LWPOLYLINE
  5
28A
330
17
100
AcDbEntity
  8
ROADS
100
AcDbPolyline
 90
2
 70
0
 10
629833.517431575
 20
4842154.362330712
 10
629818.574973586
 20
4842205.054458049
  0
LWPOLYLINE
  5
28B
330
17
100
AcDbEntity
  8
ROADS
100
AcDbPolyline
 90
2
 70
0
 10
628793.7116684556
 20
4841967.622777024
 10
628766.3256637091
 20
4842123.124572666
  0
LWPOLYLINE
  5
28C
330
17
100
AcDbEntity
  8
ROADS
100
AcDbPolyline
 90
2
 70
0
 10
628889.9641304617
 20
4842104.733226436
 10
628910.9143727256
 20
4842103.839980503
  0
LWPOLYLINE
  5
28D
330
17
100
AcDbEntity
  8
ROADS
100
AcDbPolyline
 90
2
 70
0
 10
628889.9641304617
 20
4842104.733226436
 10
628899.4870087159
 20
4842117.300079407
  0
LWPOLYLINE
  5
28E
330
17
100
AcDbEntity
  8
ROADS
100
AcDbPolyline
 90
2
 70
0
 10
628889.9641304617
 20
4842104.733226436
 10
628852.7636270192
 20
4842126.762135451
  0
LWPOLYLINE
  5
28F
330
17
100
AcDbEntity
  8
ROADS
100
AcDbPolyline
 90
2
 70
0
 10
628824.7941623743
 20
4842126.766955709
 10
628889.9641304617
 20
4842104.733226436
  0
LWPOLYLINE
  5
290
330
17
100
AcDbEntity
  8
ROADS
100
AcDbPolyline
 90
2
 70
0
 10
628899.4870087159
 20
4842117.300079407
 10
628910.4734456041
 20
4842119.748071988
  0
LWPOLYLINE
  5
291
330
17
100
AcDbEntity
  8
ROADS
100
AcDbPolyline
 90
2
 70
0
 10
628766.3256637091
 20
4842123.124572666
 10
628824.7941623743
 20
4842126.766955709
  0
LWPOLYLINE
  5
292
330
17
100
AcDbEntity
  8
ROADS
100
AcDbPolyline
 90
2
 70
0
 10
628852.7636270192
 20
4842126.762135451
 10
628824.7941623743
 20
4842126.766955709
  0
LWPOLYLINE
  5
293
330
17
100
AcDbEntity
  8
ROADS
100
AcDbPolyline
 90
2
 70
0
 10
628889.9641304617
 20
4842104.733226436
 10
628862.506212251
 20
4842166.550126343
  0
LWPOLYLINE
  5
294
330
17
100
AcDbEntity
  8
ROADS
100
AcDbPolyline
 90
2
 70
0
 10
628852.7636270192
 20
4842126.762135451
 10
628827.3968207585
 20
4842156.995418926
  0
LWPOLYLINE
  5
295
330
17
100
AcDbEntity
  8
ROADS
100
AcDbPolyline
 90
2
 70
0
 10
629317.3298086094
 20
4841974.438220036
 10
629288.8948305224
 20
4842069.095108645
  0
LWPOLYLINE
  5
296
330
17
100
AcDbEntity
  8
ROADS
100
AcDbPolyline
 90
2
 70
0
 10
629419.8847311034
 20
4842005.444302969
 10
629602.3834086494
 20
4842058.984733358
  0
LWPOLYLINE
  5
297
330
17
100
AcDbEntity
  8
ROADS
100
AcDbPolyline
 90
2
 70
0
 10
629419.8847311034
 20
4842005.444302969
 10
629425.3956139233
 20
4842112.61441464
  0
LWPOLYLINE
  5
298
330
17
100
AcDbEntity
  8
ROADS
100
AcDbPolyline
 90
2
 70
0
 10
629288.8948305224
 20
4842069.095108645
 10
629425.3956139233
 20
4842112.61441464
  0
LWPOLYLINE
  5
299
330
17
100
AcDbEntity
  8
ROADS
100
AcDbPolyline
 90
2
 70
0
 10
629288.8948305224
 20
4842069.095108645
 10
629254.6680877522
 20
4842175.650977553
  0
LWPOLYLINE
  5
29A
330
17
100
AcDbEntity
  8
ROADS
100
AcDbPolyline
 90
2
 70
0
 10
629425.3956139233
 20
4842112.61441464
 10
629570.192770282
 20
4842155.981889427
  0
LWPOLYLINE
  5
29B
330
17
100
AcDbEntity
  8
ROADS
100
AcDbPolyline
 90
2
 70
0
 10
629425.3956139233
 20
4842112.61441464
 10
629395.1216299188
 20
4842218.0367812645
  0
LWPOLYLINE
  5
29C
330
17
100
AcDbEntity
  8
ROADS
100
AcDbPolyline
 90
2
 70
0
 10
629254.6680877522
 20
4842175.650977553
 10
629395.1216299188
 20
4842218.0367812645
  0
LWPOLYLINE
  5
29D
330
17
100
AcDbEntity
  8
ROADS
100
AcDbPolyline
 90
2
 70
0
 10
629254.6680877522
 20
4842175.650977553
 10
629222.8965920906
 20
4842282.090252476
  0
LWPOLYLINE
  5
29E
330
17
100
AcDbEntity
  8
ROADS
100
AcDbPolyline
 90
2
 70
0
 10
629395.1216299188
 20
4842218.0367812645
 10
629671.9998506178
 20
4842305.943795764
  0
LWPOLYLINE
  5
29F
330
17
100
AcDbEntity
  8
ROADS
100
AcDbPolyline
 90
2
 70
0
 10
629839.6070226924
 20
4841015.699750208
 10
629813.999006419
 20
4841108.724401414
  0
LWPOLYLINE
  5
2A0
330
17
100
AcDbEntity
  8
ROADS
100
AcDbPolyline
 90
2
 70
0
 10
629610.0612999446
 20
4841047.904526707
 10
629813.999006419
 20
4841108.724401414
  0
LWPOLYLINE
  5
2A1
330
17
100
AcDbEntity
  8
ROADS
100
AcDbPolyline
 90
2
 70
0
 10
629610.0612999446
 20
4841047.904526707
 10
629590.4109035577
 20
4841114.114554285
  0
LWPOLYLINE
  5
2A2
330
17
100
AcDbEntity
  8
ROADS
100
AcDbPolyline
 90
2
 70
0
 10
629590.4109035577
 20
4841114.114554285
 10
629757.1009106424
 20
4841163.388173335
  0
LWPOLYLINE
  5
2A3
330
17
100
AcDbEntity
  8
ROADS
100
AcDbPolyline
 90
2
 70
0
 10
629590.4109035577
 20
4841114.114554285
 10
629561.7218525029
 20
4841211.384172292
  0
LWPOLYLINE
  5
2A4
330
17
100
AcDbEntity
  8
ROADS
100
AcDbPolyline
 90
2
 70
0
 10
629757.1009106424
 20
4841163.388173335
 10
629795.3301212711
 20
4841173.858650936
  0
LWPOLYLINE
  5
2A5
330
17
100
AcDbEntity
  8
ROADS
100
AcDbPolyline
 90
2
 70
0
 10
629757.1009106424
 20
4841163.388173335
 10
629727.0435974938
 20
4841259.200975575
  0
LWPOLYLINE
  5
2A6
330
17
100
AcDbEntity
  8
ROADS
100
AcDbPolyline
 90
2
 70
0
 10
629561.7218525029
 20
4841211.384172292
 10
629727.0435974938
 20
4841259.200975575
  0
LWPOLYLINE
  5
2A7
330
17
100
AcDbEntity
  8
ROADS
100
AcDbPolyline
 90
2
 70
0
 10
629727.0435974938
 20
4841259.200975575
 10
629972.8256684985
 20
4841332.572063023
  0
LWPOLYLINE
  5
2A8
330
17
100
AcDbEntity
  8
ROADS
100
AcDbPolyline
 90
2
 70
0
 10
629522.7370964113
 20
4841340.483671982
 10
629931.9251836066
 20
4841461.533532126
  0
LWPOLYLINE
  5
2A9
330
17
100
AcDbEntity
  8
ROADS
100
AcDbPolyline
 90
2
 70
0
 10
629934.6766184126
 20
4841637.969733587
 10
629904.6256675898
 20
4841633.042582698
  0
LWPOLYLINE
  5
2AA
330
17
100
AcDbEntity
  8
ROADS
100
AcDbPolyline
 90
2
 70
0
 10
629934.6766184126
 20
4841637.969733587
 10
629939.9378199341
 20
4841635.00433386
  0
LWPOLYLINE
  5
2AB
330
17
100
AcDbEntity
  8
ROADS
100
AcDbPolyline
 90
2
 70
0
 10
629814.4060835835
 20
4841931.069825912
 10
629909.1593621005
 20
4841960.322810776
  0
LWPOLYLINE
  5
2AC
330
17
100
AcDbEntity
  8
ROADS
100
AcDbPolyline
 90
2
 70
0
 10
629763.029354203
 20
4842178.793370634
 10
629801.0609574651
 20
4842201.230225594
  0
LWPOLYLINE
  5
2AD
330
17
100
AcDbEntity
  8
ROADS
100
AcDbPolyline
 90
2
 70
0
 10
629801.0609574651
 20
4842201.230225594
 10
629818.574973586
 20
4842205.054458049
  0
LWPOLYLINE
  5
2AE
330
17
100
AcDbEntity
  8
ROADS
100
AcDbPolyline
 90
2
 70
0
 10
629818.574973586
 20
4842205.054458049
 10
629842.0705074673
 20
4842214.288322413
  0
LWPOLYLINE
  5
2AF
330
17
100
AcDbEntity
  8
ROADS
100
AcDbPolyline
 90
2
 70
0
 10
629842.0705074673
 20
4842214.288322413
 10
629853.9406484134
 20
4842214.386279991
  0
LWPOLYLINE
  5
2B0
330
17
100
AcDbEntity
  8
ROADS
100
AcDbPolyline
 90
2
 70
0
 10
629801.0609574651
 20
4842201.230225594
 10
629671.9998506178
 20
4842305.943795764
  0
LWPOLYLINE
  5
2B1
330
17
100
AcDbEntity
  8
ROADS
100
AcDbPolyline
 90
2
 70
0
 10
629842.0705074673
 20
4842214.288322413
 10
629848.0243737376
 20
4842232.836895252
  0
LWPOLYLINE
  5
2B2
330
17
100
AcDbEntity
  8
ROADS
100
AcDbPolyline
 90
2
 70
0
 10
629671.9998506178
 20
4842305.943795764
 10
629801.1145996217
 20
4842344.629189085
  0
LWPOLYLINE
  5
2B3
330
17
100
AcDbEntity
  8
ROADS
100
AcDbPolyline
 90
3
 70
0
 10
629671.9998506178
 20
4842305.943795764
 10
629675.3939547089
 20
4842377.0631739255
 10
629710.6202810892
 20
4842432.489575239
  0
LWPOLYLINE
  5
2B4
330
17
100
AcDbEntity
  8
ROADS
100
AcDbPolyline
 90
2
 70
0
 10
629710.6202810892
 20
4842432.489575239
 10
629739.0172205425
 20
4842443.929314788
  0
LWPOLYLINE
  5
2B5
330
17
100
AcDbEntity
  8
ROADS
100
AcDbPolyline
 90
2
 70
0
 10
628755.6996756132
 20
4842189.2256885655
 10
628734.0146662067
 20
4842177.100427764
  0
LWPOLYLINE
  5
2B6
330
17
100
AcDbEntity
  8
ROADS
100
AcDbPolyline
 90
2
 70
0
 10
628876.389683124
 20
4842188.677873207
 10
628835.4516428505
 20
4842191.3461646885
  0
LWPOLYLINE
  5
2B7
330
17
100
AcDbEntity
  8
ROADS
100
AcDbPolyline
 90
2
 70
0
 10
628876.389683124
 20
4842188.677873207
 10
628884.4098340431
 20
4842212.680134553
  0
LWPOLYLINE
  5
2B8
330
17
100
AcDbEntity
  8
ROADS
100
AcDbPolyline
 90
2
 70
0
 10
628755.6996756132
 20
4842189.2256885655
 10
628748.3676272046
 20
4842234.842044552
  0
LWPOLYLINE
  5
2B9
330
17
100
AcDbEntity
  8
ROADS
100
AcDbPolyline
 90
3
 70
0
 10
628835.4516428505
 20
4842191.3461646885
 10
628809.3636791644
 20
4842230.478653678
 10
628821.8505586373
 20
4842233.183821489
  0
LWPOLYLINE
  5
2BA
330
17
100
AcDbEntity
  8
ROADS
100
AcDbPolyline
 90
2
 70
0
 10
628884.4098340431
 20
4842212.680134553
 10
628908.0407458598
 20
4842219.679774513
  0
LWPOLYLINE
  5
2BB
330
17
100
AcDbEntity
  8
ROADS
100
AcDbPolyline
 90
2
 70
0
 10
628821.8505586373
 20
4842233.183821489
 10
628884.4098340431
 20
4842212.680134553
  0
LWPOLYLINE
  5
2BC
330
17
100
AcDbEntity
  8
ROADS
100
AcDbPolyline
 90
2
 70
0
 10
628748.3676272046
 20
4842234.842044552
 10
628699.6240873253
 20
4842229.608538593
  0
LWPOLYLINE
  5
2BD
330
17
100
AcDbEntity
  8
ROADS
100
AcDbPolyline
 90
2
 70
0
 10
628908.0407458598
 20
4842219.679774513
 10
628967.6779853951
 20
4842247.239941956
  0
LWPOLYLINE
  5
2BE
330
17
100
AcDbEntity
  8
ROADS
100
AcDbPolyline
 90
2
 70
0
 10
628810.7953311626
 20
4842247.521706235
 10
628821.8505586373
 20
4842233.183821489
  0
LWPOLYLINE
  5
2BF
330
17
100
AcDbEntity
  8
ROADS
100
AcDbPolyline
 90
3
 70
0
 10
628967.6779853951
 20
4842247.239941956
 10
629014.4533913321
 20
4842217.7754874425
 10
629120.8161750729
 20
4842251.06268806
  0
LWPOLYLINE
  5
2C0
330
17
100
AcDbEntity
  8
ROADS
100
AcDbPolyline
 90
2
 70
0
 10
629120.8161750729
 20
4842251.06268806
 10
629222.8965920906
 20
4842282.090252476
  0
LWPOLYLINE
  5
2C1
330
17
100
AcDbEntity
  8
ROADS
100
AcDbPolyline
 90
2
 70
0
 10
629120.8161750729
 20
4842251.06268806
 10
629087.0125254813
 20
4842345.346310199
  0
LWPOLYLINE
  5
2C2
330
17
100
AcDbEntity
  8
ROADS
100
AcDbPolyline
 90
3
 70
0
 10
628967.6779853951
 20
4842247.239941956
 10
628988.0930000988
 20
4842297.98384076
 10
628982.0880766761
 20
4842363.046558644
  0
LWPOLYLINE
  5
2C3
330
17
100
AcDbEntity
  8
ROADS
100
AcDbPolyline
 90
2
 70
0
 10
629222.8965920906
 20
4842282.090252476
 10
629199.5932402145
 20
4842356.504582949
  0
LWPOLYLINE
  5
2C4
330
17
100
AcDbEntity
  8
ROADS
100
AcDbPolyline
 90
3
 70
0
 10
629087.0125254813
 20
4842345.346310199
 10
629137.2851515227
 20
4842337.70963638
 10
629199.5932402145
 20
4842356.504582949
  0
LWPOLYLINE
  5
2C5
330
17
100
AcDbEntity
  8
ROADS
100
AcDbPolyline
 90
3
 70
0
 10
628982.0880766761
 20
4842363.046558644
 10
629044.1640824662
 20
4842376.262923499
 10
629087.0125254813
 20
4842345.346310199
  0
LWPOLYLINE
  5
2C6
330
17
100
AcDbEntity
  8
ROADS
100
AcDbPolyline
 90
2
 70
0
 10
629199.5932402145
 20
4842356.504582949
 10
629164.0421571976
 20
4842463.6774690375
  0
LWPOLYLINE
  5
2C7
330
17
100
AcDbEntity
  8
ROADS
100
AcDbPolyline
 90
2
 70
0
 10
628982.0880766761
 20
4842363.046558644
 10
628938.6911430812
 20
4842464.713004058
  0
LWPOLYLINE
  5
2C8
330
17
100
AcDbEntity
  8
ROADS
100
AcDbPolyline
 90
4
 70
0
 10
629042.3798451218
 20
4842496.610784567
 10
629060.1283786775
 20
4842468.745120426
 10
629097.828035346
 20
4842450.285177828
 10
629164.0421571976
 20
4842463.6774690375
  0
LWPOLYLINE
  5
2C9
330
17
100
AcDbEntity
  8
ROADS
100
AcDbPolyline
 90
2
 70
0
 10
628748.3676272046
 20
4842234.842044552
 10
628810.7953311626
 20
4842247.521706235
  0
LWPOLYLINE
  5
2CA
330
17
100
AcDbEntity
  8
ROADS
100
AcDbPolyline
 90
3
 70
0
 10
628810.7953311626
 20
4842247.521706235
 10
628819.3265137541
 20
4842300.58766246
 10
628871.1401661725
 20
4842330.857426718
  0
LWPOLYLINE
  5
2CB
330
17
100
AcDbEntity
  8
ROADS
100
AcDbPolyline
 90
2
 70
0
 10
628748.3676272046
 20
4842234.842044552
 10
628729.760407954
 20
4842359.715635006
  0
LWPOLYLINE
  5
2CC
330
17
100
AcDbEntity
  8
ROADS
100
AcDbPolyline
 90
2
 70
0
 10
628871.1401661725
 20
4842330.857426718
 10
628982.0880766761
 20
4842363.046558644
  0
LWPOLYLINE
  5
2CD
330
17
100
AcDbEntity
  8
ROADS
100
AcDbPolyline
 90
2
 70
0
 10
628729.760407954
 20
4842359.715635006
 10
628723.428886658
 20
4842397.514569965
  0
LWPOLYLINE
  5
2CE
330
17
100
AcDbEntity
  8
ROADS
100
AcDbPolyline
 90
2
 70
0
 10
628871.1401661725
 20
4842330.857426718
 10
628819.7469375259
 20
4842428.367842581
  0
LWPOLYLINE
  5
2CF
330
17
100
AcDbEntity
  8
ROADS
100
AcDbPolyline
 90
2
 70
0
 10
628723.428886658
 20
4842397.514569965
 10
628819.7469375259
 20
4842428.367842581
  0
LWPOLYLINE
  5
2D0
330
17
100
AcDbEntity
  8
ROADS
100
AcDbPolyline
 90
2
 70
0
 10
628819.7469375259
 20
4842428.367842581
 10
628938.6911430812
 20
4842464.713004058
  0
LWPOLYLINE
  5
2D1
330
17
100
AcDbEntity
  8
ROADS
100
AcDbPolyline
 90
2
 70
0
 10
628723.428886658
 20
4842397.514569965
 10
628700.7746996682
 20
4842523.638981454
  0
LWPOLYLINE
  5
2D2
330
17
100
AcDbEntity
  8
ROADS
100
AcDbPolyline
 90
3
 70
0
 10
628700.7746996682
 20
4842523.638981454
 10
628718.0774801932
 20
4842525.09623802
 10
628819.7469375259
 20
4842428.367842581
  0
LWPOLYLINE
  5
2D3
330
17
100
AcDbEntity
  8
ROADS
100
AcDbPolyline
 90
2
 70
0
 10
629395.1216299188
 20
4842218.0367812645
 10
629361.330901863
 20
4842325.30860987
  0
LWPOLYLINE
  5
2D4
330
17
100
AcDbEntity
  8
ROADS
100
AcDbPolyline
 90
2
 70
0
 10
629222.8965920906
 20
4842282.090252476
 10
629361.330901863
 20
4842325.30860987
  0
LWPOLYLINE
  5
2D5
330
17
100
AcDbEntity
  8
ROADS
100
AcDbPolyline
 90
2
 70
0
 10
629361.330901863
 20
4842325.30860987
 10
629327.9223337574
 20
4842431.908287851
  0
LWPOLYLINE
  5
2D6
330
17
100
AcDbEntity
  8
ROADS
100
AcDbPolyline
 90
2
 70
0
 10
629361.330901863
 20
4842325.30860987
 10
629710.6202810892
 20
4842432.489575239
  0
LWPOLYLINE
  5
2D7
330
17
100
AcDbEntity
  8
ROADS
100
AcDbPolyline
 90
3
 70
0
 10
629199.5932402145
 20
4842356.504582949
 10
629277.1344049873
 20
4842387.01203087
 10
629327.9223337574
 20
4842431.908287851
  0
LWPOLYLINE
  5
2D8
330
17
100
AcDbEntity
  8
ROADS
100
AcDbPolyline
 90
2
 70
0
 10
629327.9223337574
 20
4842431.908287851
 10
629682.4920431273
 20
4842543.913499632
  0
LWPOLYLINE
  5
2D9
330
17
100
AcDbEntity
  8
ROADS
100
AcDbPolyline
 90
3
 70
0
 10
629327.9223337574
 20
4842431.908287851
 10
629357.0155913869
 20
4842500.849566428
 10
629360.2046071017
 20
4842559.870337724
  0
LWPOLYLINE
  5
2DA
330
17
100
AcDbEntity
  8
ROADS
100
AcDbPolyline
 90
2
 70
0
 10
629360.2046071017
 20
4842559.870337724
 10
629349.003647821
 20
4842596.347117723
  0
LWPOLYLINE
  5
2DB
330
17
100
AcDbEntity
  8
ROADS
100
AcDbPolyline
 90
2
 70
0
 10
629249.3584780301
 20
4842563.988430702
 10
629349.003647821
 20
4842596.347117723
  0
LWPOLYLINE
  5
2DC
330
17
100
AcDbEntity
  8
ROADS
100
AcDbPolyline
 90
2
 70
0
 10
629360.2046071017
 20
4842559.870337724
 10
629611.9235133494
 20
4842638.401294345
  0
LWPOLYLINE
  5
2DD
330
17
100
AcDbEntity
  8
ROADS
100
AcDbPolyline
 90
2
 70
0
 10
628938.6911430812
 20
4842464.713004058
 10
629042.3798451218
 20
4842496.610784567
  0
LWPOLYLINE
  5
2DE
330
17
100
AcDbEntity
  8
ROADS
100
AcDbPolyline
 90
3
 70
0
 10
629164.0421571976
 20
4842463.6774690375
 10
629240.9257422924
 20
4842504.103715235
 10
629249.3584780301
 20
4842563.988430702
  0
LWPOLYLINE
  5
2DF
330
17
100
AcDbEntity
  8
ROADS
100
AcDbPolyline
 90
2
 70
0
 10
629164.0421571976
 20
4842463.6774690375
 10
629121.5852746242
 20
4842600.813382671
  0
LWPOLYLINE
  5
2E0
330
17
100
AcDbEntity
  8
ROADS
100
AcDbPolyline
 90
3
 70
0
 10
629121.5852746242
 20
4842600.813382671
 10
629052.3991028547
 20
4842562.660596665
 10
629042.3798451218
 20
4842496.610784567
  0
LWPOLYLINE
  5
2E1
330
17
100
AcDbEntity
  8
ROADS
100
AcDbPolyline
 90
3
 70
0
 10
629249.3584780301
 20
4842563.988430702
 10
629196.4889166149
 20
4842611.8338145465
 10
629121.5852746242
 20
4842600.813382671
  0
LWPOLYLINE
  5
2E2
330
17
100
AcDbEntity
  8
ROADS
100
AcDbPolyline
 90
2
 70
0
 10
629121.5852746242
 20
4842600.813382671
 10
629089.6530940776
 20
4842705.625558612
  0
LWPOLYLINE
  5
2E3
330
17
100
AcDbEntity
  8
ROADS
100
AcDbPolyline
 90
2
 70
0
 10
628960.6280268871
 20
4842668.183766509
 10
629063.7969567387
 20
4842698.685109803
  0
LWPOLYLINE
  5
2E4
330
17
100
AcDbEntity
  8
ROADS
100
AcDbPolyline
 90
2
 70
0
 10
629063.7969567387
 20
4842698.685109803
 10
629089.6530940776
 20
4842705.625558612
  0
LWPOLYLINE
  5
2E5
330
17
100
AcDbEntity
  8
ROADS
100
AcDbPolyline
 90
2
 70
0
 10
629089.6530940776
 20
4842705.625558612
 10
629157.3961775368
 20
4842728.528220792
  0
LWPOLYLINE
  5
2E6
330
17
100
AcDbEntity
  8
ROADS
100
AcDbPolyline
 90
2
 70
0
 10
629157.3961775368
 20
4842728.528220792
 10
629181.846184613
 20
4842734.863182345
  0
LWPOLYLINE
  5
2E7
330
17
100
AcDbEntity
  8
ROADS
100
AcDbPolyline
 90
2
 70
0
 10
629349.003647821
 20
4842596.347117723
 10
629317.6040555675
 20
4842661.623293605
  0
LWPOLYLINE
  5
2E8
330
17
100
AcDbEntity
  8
ROADS
100
AcDbPolyline
 90
3
 70
0
 10
629317.6040555675
 20
4842661.623293605
 10
629264.1765159237
 20
4842703.552168424
 10
629181.846184613
 20
4842734.863182345
  0
LWPOLYLINE
  5
2E9
330
17
100
AcDbEntity
  8
ROADS
100
AcDbPolyline
 90
2
 70
0
 10
629317.6040555675
 20
4842661.623293605
 10
629524.4887942177
 20
4842727.439094249
  0
LWPOLYLINE
  5
2EA
330
17
100
AcDbEntity
  8
ROADS
100
AcDbPolyline
 90
2
 70
0
 10
629257.3140413894
 20
4842758.747737729
 10
629356.0598452627
 20
4842789.962126761
  0
LWPOLYLINE
  5
2EB
330
17
100
AcDbEntity
  8
ROADS
100
AcDbPolyline
 90
2
 70
0
 10
629356.0598452627
 20
4842789.962126761
 10
629420.8921939695
 20
4842809.75475227
  0
LWPOLYLINE
  5
2EC
330
17
100
AcDbEntity
  8
ROADS
100
AcDbPolyline
 90
2
 70
0
 10
629257.3140413894
 20
4842758.747737729
 10
629211.9040741303
 20
4842906.753946047
  0
LWPOLYLINE
  5
2ED
330
17
100
AcDbEntity
  8
ROADS
100
AcDbPolyline
 90
2
 70
0
 10
629356.0598452627
 20
4842789.962126761
 10
629332.2950602312
 20
4842864.725418921
  0
LWPOLYLINE
  5
2EE
330
17
100
AcDbEntity
  8
ROADS
100
AcDbPolyline
 90
2
 70
0
 10
629181.846184613
 20
4842734.863182345
 10
629257.3140413894
 20
4842758.747737729
  0
LWPOLYLINE
  5
2EF
330
17
100
AcDbEntity
  8
ROADS
100
AcDbPolyline
 90
2
 70
0
 10
629063.7969567387
 20
4842698.685109803
 10
629016.8586775067
 20
4842844.661440782
  0
LWPOLYLINE
  5
2F0
330
17
100
AcDbEntity
  8
ROADS
100
AcDbPolyline
 90
3
 70
0
 10
629157.3961775368
 20
4842728.528220792
 10
629136.3035614158
 20
4842802.131465651
 10
629084.1309705972
 20
4842865.560469186
  0
LWPOLYLINE
  5
2F1
330
17
100
AcDbEntity
  8
ROADS
100
AcDbPolyline
 90
2
 70
0
 10
628961.0039957993
 20
4842828.081367054
 10
629016.8586775067
 20
4842844.661440782
  0
LWPOLYLINE
  5
2F2
330
17
100
AcDbEntity
  8
ROADS
100
AcDbPolyline
 90
2
 70
0
 10
629016.8586775067
 20
4842844.661440782
 10
629084.1309705972
 20
4842865.560469186
  0
LWPOLYLINE
  5
2F3
330
17
100
AcDbEntity
  8
ROADS
100
AcDbPolyline
 90
2
 70
0
 10
629084.1309705972
 20
4842865.560469186
 10
629211.9040741303
 20
4842906.753946047
  0
LWPOLYLINE
  5
2F4
330
17
100
AcDbEntity
  8
ROADS
100
AcDbPolyline
 90
2
 70
0
 10
629084.1309705972
 20
4842865.560469186
 10
629052.6582066827
 20
4842967.723382625
  0
LWPOLYLINE
  5
2F5
330
17
100
AcDbEntity
  8
ROADS
100
AcDbPolyline
 90
2
 70
0
 10
628888.3390413919
 20
4842933.831272708
 10
629021.8698996025
 20
4842973.78101981
  0
LWPOLYLINE
  5
2F6
330
17
100
AcDbEntity
  8
ROADS
100
AcDbPolyline
 90
2
 70
0
 10
629211.9040741303
 20
4842906.753946047
 10
629232.1860674252
 20
4842913.064112924
  0
LWPOLYLINE
  5
2F7
330
17
100
AcDbEntity
  8
ROADS
100
AcDbPolyline
 90
2
 70
0
 10
629739.0172205425
 20
4842443.929314788
 10
629742.8073286919
 20
4842444.8796991445
  0
LWPOLYLINE
  5
2F8
330
17
100
AcDbEntity
  8
ROADS
100
AcDbPolyline
 90
2
 70
0
 10
629739.0172205425
 20
4842443.929314788
 10
629735.0243945441
 20
4842455.967376957
  0
LWPOLYLINE
  5
2F9
330
17
100
AcDbEntity
  8
ROADS
100
AcDbPolyline
 90
4
 70
0
 10
629635.3142522483
 20
4842608.2667801855
 10
629632.041848359
 20
4842590.6204165
 10
629650.788038245
 20
4842560.127581512
 10
629679.9522723247
 20
4842547.936992905
  0
ENDSEC
  0
SECTION
  2
OBJECTS
  0
DICTIONARY
  5
A
330
0
100
AcDbDictionary
281
1
  3
ACAD_COLOR
350
B
  3
ACAD_GROUP
350
C
  3
ACAD_LAYOUT
350
D
  3
ACAD_MATERIAL
350
E
  3
ACAD_MLEADERSTYLE
350
F
  3
ACAD_MLINESTYLE
350
10
  3
ACAD_PLOTSETTINGS
350
11
  3
ACAD_PLOTSTYLENAME
350
12
  3
ACAD_SCALELIST
350
14
  3
ACAD_TABLESTYLE
350
15
  3
ACAD_VISUALSTYLE
350
16
  3
EZDXF_META
350
2D
  0
DICTIONARY
  5
B
330
A
100
AcDbDictionary
281
1
  0
DICTIONARY
  5
C
330
A
100
AcDbDictionary
281
1
  0
DICTIONARY
  5
D
330
A
100
AcDbDictionary
281
1
  3
Model
350
1A
  3
Layout1
350
1E
  0
DICTIONARY
  5
E
330
A
100
AcDbDictionary
281
1
  3
ByBlock
350
1F
  3
ByLayer
350
20
  3
Global
350
21
  0
DICTIONARY
  5
F
330
A
100
AcDbDictionary
281
1
  3
Standard
350
2C
  0
DICTIONARY
  5
10
330
A
100
AcDbDictionary
281
1
  3
Standard
350
22
  0
DICTIONARY
  5
11
330
A
100
AcDbDictionary
281
1
  0
ACDBDICTIONARYWDFLT
  5
12
330
A
100
AcDbDictionary
281
1
  3
Normal
350
13
100
AcDbDictionaryWithDefault
340
13
  0
ACDBPLACEHOLDER
  5
13
330
12
  0
DICTIONARY
  5
14
330
A
100
AcDbDictionary
281
1
  0
DICTIONARY
  5
15
330
A
100
AcDbDictionary
281
1
  0
DICTIONARY
  5
16
330
A
100
AcDbDictionary
281
1
  0
LAYOUT
  5
1A
330
D
100
AcDbPlotSettings
  1

  4
A3
  6

 40
7.5
 41
20.0
 42
7.5
 43
20.0
 44
420.0
 45
297.0
 46
0.0
 47
0.0
 48
0.0
 49
0.0
140
0.0
141
0.0
142
1.0
143
1.0
 70
1024
 72
1
 73
0
 74
5
  7

 75
16
 76
0
 77
2
 78
300
147
1.0
148
0.0
149
0.0
100
AcDbLayout
  1
Model
 70
1
 71
0
 10
0.0
 20
0.0
 11
420.0
 21
297.0
 12
0.0
 22
0.0
 32
0.0
 14
1e+20
 24
1e+20
 34
1e+20
 15
-1e+20
 25
-1e+20
 35
-1e+20
146
0.0
 13
0.0
 23
0.0
 33
0.0
 16
1.0
 26
0.0
 36
0.0
 17
0.0
 27
1.0
 37
0.0
 76
1
330
17
  0
LAYOUT
  5
1E
330
D
100
AcDbPlotSettings
  1

  4
A3
  6

 40
7.5
 41
20.0
 42
7.5
 43
20.0
 44
420.0
 45
297.0
 46
0.0
 47
0.0
 48
0.0
 49
0.0
140
0.0
141
0.0
142
1.0
143
1.0
 70
0
 72
1
 73
0
 74
5
  7

 75
16
 76
0
 77
2
 78
300
147
1.0
148
0.0
149
0.0
100
AcDbLayout
  1
Layout1
 70
1
 71
1
 10
0.0
 20
0.0
 11
420.0
 21
297.0
 12
0.0
 22
0.0
 32
0.0
 14
1e+20
 24
1e+20
 34
1e+20
 15
-1e+20
 25
-1e+20
 35
-1e+20
146
0.0
 13
0.0
 23
0.0
 33
0.0
 16
1.0
 26
0.0
 36
0.0
 17
0.0
 27
1.0
 37
0.0
 76
1
330
1B
  0
MATERIAL
  5
1F
102
{ACAD_REACTORS
330
E
102
}
330
E
100
AcDbMaterial
  1
ByBlock
  2

 70
0
 40
1.0
 71
1
 41
1.0
 91
-1023410177
 42
1.0
 72
1
  3

 73
1
 74
1
 75
1
 44
0.5
 73
0
 45
1.0
 46
1.0
 77
1
  4

 78
1
 79
1
170
1
 48
1.0
171
1
  6

172
1
173
1
174
1
140
1.0
141
1.0
175
1
  7

176
1
177
1
178
1
143
1.0
179
1
  8

270
1
271
1
272
1
145
1.0
146
1.0
273
1
  9

274
1
275
1
276
1
 42
1.0
 72
1
  3

 73
1
 74
1
 75
1
 94
63
  0
MATERIAL
  5
20
102
{ACAD_REACTORS
330
E
102
}
330
E
100
AcDbMaterial
  1
ByLayer
  2

 70
0
 40
1.0
 71
1
 41
1.0
 91
-1023410177
 42
1.0
 72
1
  3

 73
1
 74
1
 75
1
 44
0.5
 73
0
 45
1.0
 46
1.0
 77
1
  4

 78
1
 79
1
170
1
 48
1.0
171
1
  6

172
1
173
1
174
1
140
1.0
141
1.0
175
1
  7

176
1
177
1
178
1
143
1.0
179
1
  8

270
1
271
1
272
1
145
1.0
146
1.0
273
1
  9

274
1
275
1
276
1
 42
1.0
 72
1
  3

 73
1
 74
1
 75
1
 94
63
  0
MATERIAL
  5
21
102
{ACAD_REACTORS
330
E
102
}
330
E
100
AcDbMaterial
  1
Global
  2

 70
0
 40
1.0
 71
1
 41
1.0
 91
-1023410177
 42
1.0
 72
1
  3

 73
1
 74
1
 75
1
 44
0.5
 73
0
 45
1.0
 46
1.0
 77
1
  4

 78
1
 79
1
170
1
 48
1.0
171
1
  6

172
1
173
1
174
1
140
1.0
141
1.0
175
1
  7

176
1
177
1
178
1
143
1.0
179
1
  8

270
1
271
1
272
1
145
1.0
146
1.0
273
1
  9

274
1
275
1
276
1
 42
1.0
 72
1
  3

 73
1
 74
1
 75
1
 94
63
  0
MLINESTYLE
  5
22
102
{ACAD_REACTORS
330
10
102
}
330
10
100
AcDbMlineStyle
  2
Standard
 70
0
  3

 62
256
 51
90.0
 52
90.0
 71
2
 49
0.5
 62
256
  6
BYLAYER
 49
-0.5
 62
256
  6
BYLAYER
  0
MLEADERSTYLE
  5
2C
102
{ACAD_REACTORS
330
F
102
}
330
F
100
AcDbMLeaderStyle
179
2
170
2
171
1
172
0
 90
2
 40
0.0
 41
0.0
173
1
 91
-1056964608
 92
-2
290
1
 42
2.0
291
1
 43
8.0
  3
Standard
 44
4.0
300

342
29
174
1
175
1
176
0
178
1
 93
-1056964608
 45
4.0
292
0
297
0
 46
4.0
 94
-1056964608
 47
1.0
 49
1.0
140
1.0
294
1
141
0.0
177
0
142
1.0
295
0
296
0
143
3.75
271
0
272
9
273
9
  0
DICTIONARY
  5
2D
330
A
100
AcDbDictionary
280
1
281
1
  3
CREATED_BY_EZDXF
350
2E
  3
WRITTEN_BY_EZDXF
350
2FC
  0
DICTIONARYVAR
  5
2E
330
2D
100
DictionaryVariables
280
0
  1
1.4.4 @ 2026-07-30T15:42:41.241124+00:00
  0
DICTIONARYVAR
  5
2FC
330
2D
100
DictionaryVariables
280
0
  1
1.4.4 @ 2026-07-30T15:42:41.326206+00:00
  0
ENDSEC
  0
EOF
