  0
SECTION
  2
HEADER
  9
$ACADVER
  1
AC1015
  9
$ACADMAINTVER
 70
6
  9
$DWGCODEPAGE
  3
ANSI_1252
  9
$INSBASE
 10
0.0
 20
0.0
 30
0.0
  9
$EXTMIN
 10
1e+20
 20
1e+20
 30
1e+20
  9
$EXTMAX
 10
-1e+20
 20
-1e+20
 30
-1e+20
  9
$LIMMIN
 10
0.0
 20
0.0
  9
$LIMMAX
 10
420.0
 20
297.0
  9
$ORTHOMODE
 70
0
  9
$REGENMODE
 70
1
  9
$FILLMODE
 70
1
  9
$QTEXTMODE
 70
0
  9
$MIRRTEXT
 70
1
  9
$LTSCALE
 40
1.0
  9
$ATTMODE
 70
1
  9
$TEXTSIZE
 40
2.5
  9
$TRACEWID
 40
1.0
  9
$TEXTSTYLE
  7
Standard
  9
$CLAYER
  8
0
  9
$CELTYPE
  6
ByLayer
  9
$CECOLOR
 62
256
  9
$CELTSCALE
 40
1.0
  9
$DISPSILH
 70
0
  9
$DIMSCALE
 40
1.0
  9
$DIMASZ
 40
2.5
  9
$DIMEXO
 40
0.625
  9
$DIMDLI
 40
3.75
  9
$DIMRND
 40
0.0
  9
$DIMDLE
 40
0.0
  9
$DIMEXE
 40
1.25
  9
$DIMTP
 40
0.0
  9
$DIMTM
 40
0.0
  9
$DIMTXT
 40
2.5
  9
$DIMCEN
 40
2.5
  9
$DIMTSZ
 40
0.0
  9
$DIMTOL
 70
0
  9
$DIMLIM
 70
0
  9
$DIMTIH
 70
0
  9
$DIMTOH
 70
0
  9
$DIMSE1
 70
0
  9
$DIMSE2
 70
0
  9
$DIMTAD
 70
1
  9
$DIMZIN
 70
8
  9
$DIMBLK
  1

  9
$DIMASO
 70
1
  9
$DIMSHO
 70
1
  9
$DIMPOST
  1

  9
$DIMAPOST
  1

  9
$DIMALT
 70
0
  9
$DIMALTD
 70
3
  9
$DIMALTF
 40
0.03937007874
  9
$DIMLFAC
 40
1.0
  9
$DIMTOFL
 70
1
  9
$DIMTVP
 40
0.0
  9
$DIMTIX
 70
0
  9
$DIMSOXD
 70
0
  9
$DIMSAH
 70
0
  9
$DIMBLK1
  1

  9
$DIMBLK2
  1

  9
$DIMSTYLE
  2
ISO-25
  9
$DIMCLRD
 70
0
  9
$DIMCLRE
 70
0
  9
$DIMCLRT
 70
0
  9
$DIMTFAC
 40
1.0
  9
$DIMGAP
 40
0.625
  9
$DIMJUST
 70
0
  9
$DIMSD1
 70
0
  9
$DIMSD2
 70
0
  9
$DIMTOLJ
 70
0
  9
$DIMTZIN
 70
8
  9
$DIMALTZ
 70
0
  9
$DIMALTTZ
 70
0
  9
$DIMUPT
 70
0
  9
$DIMDEC
 70
2
  9
$DIMTDEC
 70
2
  9
$DIMALTU
 70
2
  9
$DIMALTTD
 70
3
  9
$DIMTXSTY
  7
Standard
  9
$DIMAUNIT
 70
0
  9
$DIMADEC
 70
0
  9
$DIMALTRND
 40
0.0
  9
$DIMAZIN
 70
0
  9
$DIMDSEP
 70
44
  9
$DIMATFIT
 70
3
  9
$DIMFRAC
 70
0
  9
$DIMLDRBLK
  1

  9
$DIMLUNIT
 70
2
  9
$DIMLWD
 70
-2
  9
$DIMLWE
 70
-2
  9
$DIMTMOVE
 70
0
  9
$LUNITS
 70
2
  9
$LUPREC
 70
4
  9
$SKETCHINC
 40
1.0
  9
$FILLETRAD
 40
10.0
  9
$AUNITS
 70
0
  9
$AUPREC
 70
2
  9
$MENU
  1
.
  9
$ELEVATION
 40
0.0
  9
$PELEVATION
 40
0.0
  9
$THICKNESS
 40
0.0
  9
$LIMCHECK
 70
0
  9
$CHAMFERA
 40
0.0
  9
$CHAMFERB
 40
0.0
  9
$CHAMFERC
 40
0.0
  9
$CHAMFERD
 40
0.0
  9
$SKPOLY
 70
0
  9
$TDCREATE
 40
2461229.601354167
  9
$TDUCREATE
 40
2458532.153996898
  9
$TDUPDATE
 40
2461229.601354167
  9
$TDUUPDATE
 40
2458532.1544311
  9
$TDINDWG
 40
0.0
  9
$TDUSRTIMER
 40
0.0
  9
$USRTIMER
 70
1
  9
$ANGBASE
 50
0.0
  9
$ANGDIR
 70
0
  9
$PDMODE
 70
0
  9
$PDSIZE
 40
0.0
  9
$PLINEWID
 40
0.0
  9
$SPLFRAME
 70
0
  9
$SPLINETYPE
 70
6
  9
$SPLINESEGS
 70
8
  9
$HANDSEED
  5
245
  9
$SURFTAB1
 70
6
  9
$SURFTAB2
 70
6
  9
$SURFTYPE
 70
6
  9
$SURFU
 70
6
  9
$SURFV
 70
6
  9
$UCSBASE
  2

  9
$UCSNAME
  2

  9
$UCSORG
 10
0.0
 20
0.0
 30
0.0
  9
$UCSXDIR
 10
1.0
 20
0.0
 30
0.0
  9
$UCSYDIR
 10
0.0
 20
1.0
 30
0.0
  9
$UCSORTHOREF
  2

  9
$UCSORTHOVIEW
 70
0
  9
$UCSORGTOP
 10
0.0
 20
0.0
 30
0.0
  9
$UCSORGBOTTOM
 10
0.0
 20
0.0
 30
0.0
  9
$UCSORGLEFT
 10
0.0
 20
0.0
 30
0.0
  9
$UCSORGRIGHT
 10
0.0
 20
0.0
 30
0.0
  9
$UCSORGFRONT
 10
0.0
 20
0.0
 30
0.0
  9
$UCSORGBACK
 10
0.0
 20
0.0
 30
0.0
  9
$PUCSBASE
  2

  9
$PUCSNAME
  2

  9
$PUCSORG
 10
0.0
 20
0.0
 30
0.0
  9
$PUCSXDIR
 10
1.0
 20
0.0
 30
0.0
  9
$PUCSYDIR
 10
0.0
 20
1.0
 30
0.0
  9
$PUCSORTHOREF
  2

  9
$PUCSORTHOVIEW
 70
0
  9
$PUCSORGTOP
 10
0.0
 20
0.0
 30
0.0
  9
$PUCSORGBOTTOM
 10
0.0
 20
0.0
 30
0.0
  9
$PUCSORGLEFT
 10
0.0
 20
0.0
 30
0.0
  9
$PUCSORGRIGHT
 10
0.0
 20
0.0
 30
0.0
  9
$PUCSORGFRONT
 10
0.0
 20
0.0
 30
0.0
  9
$PUCSORGBACK
 10
0.0
 20
0.0
 30
0.0
  9
$USERI1
 70
0
  9
$USERI2
 70
0
  9
$USERI3
 70
0
  9
$USERI4
 70
0
  9
$USERI5
 70
0
  9
$USERR1
 40
0.0
  9
$USERR2
 40
0.0
  9
$USERR3
 40
0.0
  9
$USERR4
 40
0.0
  9
$USERR5
 40
0.0
  9
$WORLDVIEW
 70
1
  9
$SHADEDGE
 70
3
  9
$SHADEDIF
 70
70
  9
$TILEMODE
 70
1
  9
$MAXACTVP
 70
64
  9
$PINSBASE
 10
0.0
 20
0.0
 30
0.0
  9
$PLIMCHECK
 70
0
  9
$PEXTMIN
 10
1e+20
 20
1e+20
 30
1e+20
  9
$PEXTMAX
 10
-1e+20
 20
-1e+20
 30
-1e+20
  9
$PLIMMIN
 10
0.0
 20
0.0
  9
$PLIMMAX
 10
420.0
 20
297.0
  9
$UNITMODE
 70
0
  9
$VISRETAIN
 70
1
  9
$PLINEGEN
 70
0
  9
$PSLTSCALE
 70
1
  9
$TREEDEPTH
 70
3020
  9
$CMLSTYLE
  2
Standard
  9
$CMLJUST
 70
0
  9
$CMLSCALE
 40
20.0
  9
$PROXYGRAPHICS
 70
1
  9
$MEASUREMENT
 70
1
  9
$CELWEIGHT
370
-1
  9
$ENDCAPS
280
0
  9
$JOINSTYLE
280
0
  9
$LWDISPLAY
290
0
  9
$INSUNITS
 70
6
  9
$HYPERLINKBASE
  1

  9
$STYLESHEET
  1

  9
$XEDIT
290
1
  9
$CEPSNTYPE
380
0
  9
$PSTYLEMODE
290
1
  9
$FINGERPRINTGUID
  2
{A8B96C38-EB45-4E78-BB9F-3614C8A5BEAC}
  9
$VERSIONGUID
  2
{B4F09BE6-F46F-463F-ADF1-010BE5F2FD92}
  9
$EXTNAMES
290
1
  9
$PSVPSCALE
 40
0.0
  9
$OLESTARTUP
290
0
  0
ENDSEC
  0
SECTION
  2
CLASSES
  0
CLASS
  1
ACDBDICTIONARYWDFLT
  2
AcDbDictionaryWithDefault
  3
ObjectDBX Classes
 90
0
280
0
281
0
  0
CLASS
  1
SUN
  2
AcDbSun
  3
SCENEOE
 90
1153
280
0
281
0
  0
CLASS
  1
VISUALSTYLE
  2
AcDbVisualStyle
  3
ObjectDBX Classes
 90
4095
280
0
281
0
  0
CLASS
  1
MATERIAL
  2
AcDbMaterial
  3
ObjectDBX Classes
 90
1153
280
0
281
0
  0
CLASS
  1
SCALE
  2
AcDbScale
  3
ObjectDBX Classes
 90
1153
280
0
281
0
  0
CLASS
  1
TABLESTYLE
  2
AcDbTableStyle
  3
ObjectDBX Classes
 90
4095
280
0
281
0
  0
CLASS
  1
MLEADERSTYLE
  2
AcDbMLeaderStyle
  3
ACDB_MLEADERSTYLE_CLASS
 90
4095
280
0
281
0
  0
CLASS
  1
DICTIONARYVAR
  2
AcDbDictionaryVar
  3
ObjectDBX Classes
 90
0
280
0
281
0
  0
CLASS
  1
CELLSTYLEMAP
  2
AcDbCellStyleMap
  3
ObjectDBX Classes
 90
1152
280
0
281
0
  0
CLASS
  1
MENTALRAYRENDERSETTINGS
  2
AcDbMentalRayRenderSettings
  3
SCENEOE
 90
1024
280
0
281
0
  0
CLASS
  1
ACDBDETAILVIEWSTYLE
  2
AcDbDetailViewStyle
  3
ObjectDBX Classes
 90
1025
280
0
281
0
  0
CLASS
  1
ACDBSECTIONVIEWSTYLE
  2
AcDbSectionViewStyle
  3
ObjectDBX Classes
 90
1025
280
0
281
0
  0
CLASS
  1
RASTERVARIABLES
  2
AcDbRasterVariables
  3
ISM
 90
0
280
0
281
0
  0
CLASS
  1
ACDBPLACEHOLDER
  2
AcDbPlaceHolder
  3
ObjectDBX Classes
 90
0
280
0
281
0
  0
CLASS
  1
LAYOUT
  2
AcDbLayout
  3
ObjectDBX Classes
 90
0
280
0
281
0
  0
ENDSEC
  0
SECTION
  2
TABLES
  0
TABLE
  2
VPORT
  5
8
330
0
100
AcDbSymbolTable
 70
1
  0
VPORT
  5
23
330
8
100
AcDbSymbolTableRecord
100
AcDbViewportTableRecord
  2
*Active
 70
0
 10
0.0
 20
0.0
 11
1.0
 21
1.0
 12
0.0
 22
0.0
 13
0.0
 23
0.0
 14
0.5
 24
0.5
 15
0.5
 25
0.5
 16
0.0
 26
0.0
 36
1.0
 17
0.0
 27
0.0
 37
0.0
 40
1000.0
 41
1.34
 42
50.0
 43
0.0
 44
0.0
 50
0.0
 51
0.0
 71
0
 72
1000
 73
1
 74
3
 75
0
 76
0
 77
0
 78
0
281
0
 65
0
146
0.0
  0
ENDTAB
  0
TABLE
  2
LTYPE
  5
2
330
0
100
AcDbSymbolTable
 70
3
  0
LTYPE
  5
24
330
2
100
AcDbSymbolTableRecord
100
AcDbLinetypeTableRecord
  2
ByBlock
 70
0
  3

 72
65
 73
0
 40
0.0
  0
LTYPE
  5
25
330
2
100
AcDbSymbolTableRecord
100
AcDbLinetypeTableRecord
  2
ByLayer
 70
0
  3

 72
65
 73
0
 40
0.0
  0
LTYPE
  5
26
330
2
100
AcDbSymbolTableRecord
100
AcDbLinetypeTableRecord
  2
Continuous
 70
0
  3

 72
65
 73
0
 40
0.0
  0
ENDTAB
  0
TABLE
  2
LAYER
  5
1
330
0
100
AcDbSymbolTable
 70
2
  0
LAYER
  5
27
330
1
100
AcDbSymbolTableRecord
100
AcDbLayerTableRecord
  2
0
 70
0
 62
7
  6
Continuous
370
-3
390
13
  0
LAYER
  5
28
330
1
100
AcDbSymbolTableRecord
100
AcDbLayerTableRecord
  2
Defpoints
 70
0
 62
7
  6
Continuous
290
0
370
-3
390
13
  0
ENDTAB
  0
TABLE
  2
STYLE
  5
5
330
0
100
AcDbSymbolTable
 70
1
  0
STYLE
  5
29
330
5
100
AcDbSymbolTableRecord
100
AcDbTextStyleTableRecord
  2
Standard
 70
0
 40
0.0
 41
1.0
 50
0.0
 71
0
 42
2.5
  3
txt
  4

  0
ENDTAB
  0
TABLE
  2
VIEW
  5
7
330
0
100
AcDbSymbolTable
 70
0
  0
ENDTAB
  0
TABLE
  2
UCS
  5
6
330
0
100
AcDbSymbolTable
 70
0
  0
ENDTAB
  0
TABLE
  2
APPID
  5
3
330
0
100
AcDbSymbolTable
 70
3
  0
APPID
  5
2A
330
3
100
AcDbSymbolTableRecord
100
AcDbRegAppTableRecord
  2
ACAD
 70
0
  0
APPID
  5
242
330
3
100
AcDbSymbolTableRecord
100
AcDbRegAppTableRecord
  2
HATCHBACKGROUNDCOLOR
 70
0
  0
APPID
  5
243
330
3
100
AcDbSymbolTableRecord
100
AcDbRegAppTableRecord
  2
EZDXF
 70
0
  0
ENDTAB
  0
TABLE
  2
DIMSTYLE
  5
4
330
0
100
AcDbSymbolTable
 70
1
100
AcDbDimStyleTable
  0
DIMSTYLE
105
2B
330
4
100
AcDbSymbolTableRecord
100
AcDbDimStyleTableRecord
  2
Standard
 70
0
  3

  4

 40
1.0
 41
2.5
 42
0.625
 43
3.75
 44
1.25
 45
0.0
 46
0.0
 47
0.0
 48
0.0
140
2.5
141
2.5
142
0.0
143
0.03937007874
144
1.0
145
0.0
146
1.0
147
0.625
148
0.0
 71
0
 72
0
 73
0
 74
0
 75
0
 76
0
 77
1
 78
8
 79
3
170
0
171
3
172
1
173
0
174
0
175
0
176
0
177
0
178
0
179
2
271
2
272
2
273
2
274
3
275
0
276
0
277
2
278
44
279
0
280
0
281
0
282
0
283
0
284
8
285
0
286
0
288
0
289
3
371
-2
372
-2
  0
ENDTAB
  0
TABLE
  2
BLOCK_RECORD
  5
9
330
0
100
AcDbSymbolTable
 70
2
  0
BLOCK_RECORD
  5
17
330
9
100
AcDbSymbolTableRecord
100
AcDbBlockTableRecord
  2
*Model_Space
340
1A
  0
BLOCK_RECORD
  5
1B
330
9
100
AcDbSymbolTableRecord
100
AcDbBlockTableRecord
  2
*Paper_Space
340
1E
  0
ENDTAB
  0
ENDSEC
  0
SECTION
  2
BLOCKS
  0
BLOCK
  5
18
330
17
100
AcDbEntity
  8
0
100
AcDbBlockBegin
  2
*Model_Space
 70
0
 10
0.0
 20
0.0
 30
0.0
  3
*Model_Space
  1

  0
ENDBLK
  5
19
330
17
100
AcDbEntity
  8
0
100
AcDbBlockEnd
  0
BLOCK
  5
1C
330
1B
100
AcDbEntity
  8
0
100
AcDbBlockBegin
  2
*Paper_Space
 70
0
 10
0.0
 20
0.0
 30
0.0
  3
*Paper_Space
  1

  0
ENDBLK
  5
1D
330
1B
100
AcDbEntity
  8
0
100
AcDbBlockEnd
  0
ENDSEC
  0
SECTION
  2
ENTITIES
  0
LWPOLYLINE
  5
2F
330
17
100
AcDbEntity
  8
ROADS
100
AcDbPolyline
 90
2
 70
0
 10
628274.6402175758
 20
4841802.295251623
 10
628240.6571114855
 20
4841792.149466917
  0
LWPOLYLINE
  5
30
330
17
100
AcDbEntity
  8
ROADS
100
AcDbPolyline
 90
2
 70
0
 10
628024.1917614506
 20
4842083.178140594
 10
627973.7255970252
 20
4842050.33738255
  0
LWPOLYLINE
  5
31
330
17
100
AcDbEntity
  8
ROADS
100
AcDbPolyline
 90
2
 70
0
 10
627900.8132450541
 20
4842335.945559375
 10
627797.7275493259
 20
4842302.817025554
  0
LWPOLYLINE
  5
32
330
17
100
AcDbEntity
  8
ROADS
100
AcDbPolyline
 90
2
 70
0
 10
627969.3645080377
 20
4842356.28753118
 10
627900.8132450541
 20
4842335.945559375
  0
LWPOLYLINE
  5
33
330
17
100
AcDbEntity
  8
ROADS
100
AcDbPolyline
 90
2
 70
0
 10
627900.8132450541
 20
4842335.945559375
 10
627876.2730133225
 20
4842415.270522281
  0
LWPOLYLINE
  5
34
330
17
100
AcDbEntity
  8
ROADS
100
AcDbPolyline
 90
2
 70
0
 10
627876.2730133225
 20
4842415.270522281
 10
627782.4987553905
 20
4842386.165485913
  0
LWPOLYLINE
  5
35
330
17
100
AcDbEntity
  8
ROADS
100
AcDbPolyline
 90
2
 70
0
 10
627876.2730133225
 20
4842415.270522281
 10
627850.7736232231
 20
4842495.760189123
  0
LWPOLYLINE
  5
36
330
17
100
AcDbEntity
  8
ROADS
100
AcDbPolyline
 90
2
 70
0
 10
628838.2936242116
 20
4841718.242846997
 10
628722.3056111423
 20
4841682.793037334
  0
LWPOLYLINE
  5
37
330
17
100
AcDbEntity
  8
ROADS
100
AcDbPolyline
 90
2
 70
0
 10
628630.7384858127
 20
4841680.029348153
 10
628602.0558204215
 20
4841769.028168454
  0
LWPOLYLINE
  5
38
330
17
100
AcDbEntity
  8
ROADS
100
AcDbPolyline
 90
2
 70
0
 10
628602.0558204215
 20
4841769.028168454
 10
628417.9496624927
 20
4841713.64035476
  0
LWPOLYLINE
  5
39
330
17
100
AcDbEntity
  8
ROADS
100
AcDbPolyline
 90
2
 70
0
 10
628404.2202745683
 20
4841717.754164386
 10
628369.768444164
 20
4841831.085646379
  0
LWPOLYLINE
  5
3A
330
17
100
AcDbEntity
  8
ROADS
100
AcDbPolyline
 90
2
 70
0
 10
628369.768444164
 20
4841831.085646379
 10
628274.6402175758
 20
4841802.295251623
  0
LWPOLYLINE
  5
3B
330
17
100
AcDbEntity
  8
ROADS
100
AcDbPolyline
 90
2
 70
0
 10
628474.0010419755
 20
4841862.431985937
 10
628369.768444164
 20
4841831.085646379
  0
LWPOLYLINE
  5
3C
330
17
100
AcDbEntity
  8
ROADS
100
AcDbPolyline
 90
2
 70
0
 10
628565.2222446194
 20
4841890.6596715385
 10
628474.0010419755
 20
4841862.431985937
  0
LWPOLYLINE
  5
3D
330
17
100
AcDbEntity
  8
ROADS
100
AcDbPolyline
 90
2
 70
0
 10
628369.768444164
 20
4841831.085646379
 10
628335.1639830017
 20
4841973.716777066
  0
LWPOLYLINE
  5
3E
330
17
100
AcDbEntity
  8
ROADS
100
AcDbPolyline
 90
2
 70
0
 10
628474.0010419755
 20
4841862.431985937
 10
628438.4992254919
 20
4841980.8203201
  0
LWPOLYLINE
  5
3F
330
17
100
AcDbEntity
  8
ROADS
100
AcDbPolyline
 90
2
 70
0
 10
628838.2936242116
 20
4841718.242846997
 10
628818.10898283
 20
4841833.529307281
  0
LWPOLYLINE
  5
40
330
17
100
AcDbEntity
  8
ROADS
100
AcDbPolyline
 90
2
 70
0
 10
628818.10898283
 20
4841833.529307281
 10
628602.0558204215
 20
4841769.028168454
  0
LWPOLYLINE
  5
41
330
17
100
AcDbEntity
  8
ROADS
100
AcDbPolyline
 90
2
 70
0
 10
628602.0558204215
 20
4841769.028168454
 10
628565.2222446194
 20
4841890.6596715385
  0
LWPOLYLINE
  5
42
330
17
100
AcDbEntity
  8
ROADS
100
AcDbPolyline
 90
2
 70
0
 10
628818.10898283
 20
4841833.529307281
 10
628810.3052667207
 20
4841878.907127007
  0
LWPOLYLINE
  5
43
330
17
100
AcDbEntity
  8
ROADS
100
AcDbPolyline
 90
2
 70
0
 10
628779.8615703436
 20
4841955.4203132475
 10
628565.2222446194
 20
4841890.6596715385
  0
LWPOLYLINE
  5
44
330
17
100
AcDbEntity
  8
ROADS
100
AcDbPolyline
 90
2
 70
0
 10
628810.3052667207
 20
4841878.907127007
 10
628793.7116684556
 20
4841967.622777024
  0
LWPOLYLINE
  5
45
330
17
100
AcDbEntity
  8
ROADS
100
AcDbPolyline
 90
2
 70
0
 10
628793.7116684556
 20
4841967.622777024
 10
628779.8615703436
 20
4841955.4203132475
  0
LWPOLYLINE
  5
46
330
17
100
AcDbEntity
  8
ROADS
100
AcDbPolyline
 90
3
 70
0
 10
628779.8615703436
 20
4841955.4203132475
 10
628753.5964427259
 20
4842072.861843477
 10
628534.1356270527
 20
4842010.323022589
  0
LWPOLYLINE
  5
47
330
17
100
AcDbEntity
  8
ROADS
100
AcDbPolyline
 90
2
 70
0
 10
628793.7116684556
 20
4841967.622777024
 10
628766.3256637091
 20
4842123.124572666
  0
LWPOLYLINE
  5
48
330
17
100
AcDbEntity
  8
ROADS
100
AcDbPolyline
 90
2
 70
0
 10
628766.3256637091
 20
4842123.124572666
 10
628824.7941623743
 20
4842126.766955709
  0
LWPOLYLINE
  5
49
330
17
100
AcDbEntity
  8
ROADS
100
AcDbPolyline
 90
2
 70
0
 10
628274.6402175758
 20
4841802.295251623
 10
628230.2551093396
 20
4841949.569646593
  0
LWPOLYLINE
  5
4A
330
17
100
AcDbEntity
  8
ROADS
100
AcDbPolyline
 90
2
 70
0
 10
628230.2551093396
 20
4841949.569646593
 10
628191.4676222082
 20
4841938.570988574
  0
LWPOLYLINE
  5
4B
330
17
100
AcDbEntity
  8
ROADS
100
AcDbPolyline
 90
3
 70
0
 10
628062.7568246238
 20
4841935.43530057
 10
628048.2929431647
 20
4841977.603474018
 10
628003.4179123408
 20
4842008.011992379
  0
LWPOLYLINE
  5
4C
330
17
100
AcDbEntity
  8
ROADS
100
AcDbPolyline
 90
2
 70
0
 10
628335.1639830017
 20
4841973.716777066
 10
628230.2551093396
 20
4841949.569646593
  0
LWPOLYLINE
  5
4D
330
17
100
AcDbEntity
  8
ROADS
100
AcDbPolyline
 90
2
 70
0
 10
628231.3323378875
 20
4842213.1333558755
 10
628125.531097167
 20
4842146.01721428
  0
LWPOLYLINE
  5
4E
330
17
100
AcDbEntity
  8
ROADS
100
AcDbPolyline
 90
3
 70
0
 10
628231.3323378875
 20
4842213.1333558755
 10
628148.6425615185
 20
4842231.444037427
 10
628048.8063111311
 20
4842281.160427271
  0
LWPOLYLINE
  5
4F
330
17
100
AcDbEntity
  8
ROADS
100
AcDbPolyline
 90
2
 70
0
 10
628231.3323378875
 20
4842213.1333558755
 10
628195.7238269337
 20
4842329.01247464
  0
LWPOLYLINE
  5
50
330
17
100
AcDbEntity
  8
ROADS
100
AcDbPolyline
 90
2
 70
0
 10
628195.7238269337
 20
4842329.01247464
 10
628048.8063111311
 20
4842281.160427271
  0
LWPOLYLINE
  5
51
330
17
100
AcDbEntity
  8
ROADS
100
AcDbPolyline
 90
2
 70
0
 10
628048.8063111311
 20
4842281.160427271
 10
627969.3645080377
 20
4842356.28753118
  0
LWPOLYLINE
  5
52
330
17
100
AcDbEntity
  8
ROADS
100
AcDbPolyline
 90
2
 70
0
 10
628565.2222446194
 20
4841890.6596715385
 10
628534.1356270527
 20
4842010.323022589
  0
LWPOLYLINE
  5
53
330
17
100
AcDbEntity
  8
ROADS
100
AcDbPolyline
 90
2
 70
0
 10
628438.4992254919
 20
4841980.8203201
 10
628335.1639830017
 20
4841973.716777066
  0
LWPOLYLINE
  5
54
330
17
100
AcDbEntity
  8
ROADS
100
AcDbPolyline
 90
2
 70
0
 10
628534.1356270527
 20
4842010.323022589
 10
628438.4992254919
 20
4841980.8203201
  0
LWPOLYLINE
  5
55
330
17
100
AcDbEntity
  8
ROADS
100
AcDbPolyline
 90
2
 70
0
 10
628534.1356270527
 20
4842010.323022589
 10
628534.6547691502
 20
4842066.29212359
  0
LWPOLYLINE
  5
56
330
17
100
AcDbEntity
  8
ROADS
100
AcDbPolyline
 90
2
 70
0
 10
628534.6547691502
 20
4842066.29212359
 10
628481.0504998671
 20
4842089.705570585
  0
LWPOLYLINE
  5
57
330
17
100
AcDbEntity
  8
ROADS
100
AcDbPolyline
 90
5
 70
0
 10
628481.0504998671
 20
4842089.705570585
 10
628432.3496551135
 20
4842069.350865212
 10
628345.5467296601
 20
4842063.284555569
 10
628339.3026211512
 20
4842081.336738102
 10
628200.8319489679
 20
4842125.188626906
  0
LWPOLYLINE
  5
58
330
17
100
AcDbEntity
  8
ROADS
100
AcDbPolyline
 90
2
 70
0
 10
628534.6547691502
 20
4842066.29212359
 10
628521.5007430536
 20
4842162.280421907
  0
LWPOLYLINE
  5
59
330
17
100
AcDbEntity
  8
ROADS
100
AcDbPolyline
 90
3
 70
0
 10
628481.0504998671
 20
4842089.705570585
 10
628482.0708005326
 20
4842114.281658995
 10
628521.5007430536
 20
4842162.280421907
  0
LWPOLYLINE
  5
5A
330
17
100
AcDbEntity
  8
ROADS
100
AcDbPolyline
 90
2
 70
0
 10
628521.5007430536
 20
4842162.280421907
 10
628517.7755730243
 20
4842178.908105101
  0
LWPOLYLINE
  5
5B
330
17
100
AcDbEntity
  8
ROADS
100
AcDbPolyline
 90
3
 70
0
 10
628504.0668969977
 20
4842228.901314803
 10
628358.1700552031
 20
4842172.940209009
 10
628231.3323378875
 20
4842213.1333558755
  0
LWPOLYLINE
  5
5C
330
17
100
AcDbEntity
  8
ROADS
100
AcDbPolyline
 90
2
 70
0
 10
628824.7941623743
 20
4842126.766955709
 10
628827.3968207585
 20
4842156.995418926
  0
LWPOLYLINE
  5
5D
330
17
100
AcDbEntity
  8
ROADS
100
AcDbPolyline
 90
2
 70
0
 10
628766.3256637091
 20
4842123.124572666
 10
628758.1169961154
 20
4842174.187430861
  0
LWPOLYLINE
  5
5E
330
17
100
AcDbEntity
  8
ROADS
100
AcDbPolyline
 90
2
 70
0
 10
628758.1169961154
 20
4842174.187430861
 10
628827.3968207585
 20
4842156.995418926
  0
LWPOLYLINE
  5
5F
330
17
100
AcDbEntity
  8
ROADS
100
AcDbPolyline
 90
3
 70
0
 10
628683.7158415841
 20
4842180.607365927
 10
628584.1841058491
 20
4842153.704278393
 10
628517.7755730243
 20
4842178.908105101
  0
LWPOLYLINE
  5
60
330
17
100
AcDbEntity
  8
ROADS
100
AcDbPolyline
 90
2
 70
0
 10
628758.1169961154
 20
4842174.187430861
 10
628734.0146662067
 20
4842177.100427764
  0
LWPOLYLINE
  5
61
330
17
100
AcDbEntity
  8
ROADS
100
AcDbPolyline
 90
2
 70
0
 10
628734.0146662067
 20
4842177.100427764
 10
628708.280125675
 20
4842179.963881567
  0
LWPOLYLINE
  5
62
330
17
100
AcDbEntity
  8
ROADS
100
AcDbPolyline
 90
2
 70
0
 10
628708.280125675
 20
4842179.963881567
 10
628683.7158415841
 20
4842180.607365927
  0
LWPOLYLINE
  5
63
330
17
100
AcDbEntity
  8
ROADS
100
AcDbPolyline
 90
2
 70
0
 10
628758.1169961154
 20
4842174.187430861
 10
628755.6996756132
 20
4842189.2256885655
  0
LWPOLYLINE
  5
64
330
17
100
AcDbEntity
  8
ROADS
100
AcDbPolyline
 90
2
 70
0
 10
628755.6996756132
 20
4842189.2256885655
 10
628734.0146662067
 20
4842177.100427764
  0
LWPOLYLINE
  5
65
330
17
100
AcDbEntity
  8
ROADS
100
AcDbPolyline
 90
2
 70
0
 10
628708.280125675
 20
4842179.963881567
 10
628695.5506319435
 20
4842205.693222382
  0
LWPOLYLINE
  5
66
330
17
100
AcDbEntity
  8
ROADS
100
AcDbPolyline
 90
2
 70
0
 10
628683.7158415841
 20
4842180.607365927
 10
628695.5506319435
 20
4842205.693222382
  0
LWPOLYLINE
  5
67
330
17
100
AcDbEntity
  8
ROADS
100
AcDbPolyline
 90
2
 70
0
 10
628755.6996756132
 20
4842189.2256885655
 10
628748.3676272046
 20
4842234.842044552
  0
LWPOLYLINE
  5
68
330
17
100
AcDbEntity
  8
ROADS
100
AcDbPolyline
 90
3
 70
0
 10
628835.4516428505
 20
4842191.3461646885
 10
628809.3636791644
 20
4842230.478653678
 10
628821.8505586373
 20
4842233.183821489
  0
LWPOLYLINE
  5
69
330
17
100
AcDbEntity
  8
ROADS
100
AcDbPolyline
 90
2
 70
0
 10
628695.5506319435
 20
4842205.693222382
 10
628699.6240873253
 20
4842229.608538593
  0
LWPOLYLINE
  5
6A
330
17
100
AcDbEntity
  8
ROADS
100
AcDbPolyline
 90
2
 70
0
 10
628748.3676272046
 20
4842234.842044552
 10
628699.6240873253
 20
4842229.608538593
  0
LWPOLYLINE
  5
6B
330
17
100
AcDbEntity
  8
ROADS
100
AcDbPolyline
 90
3
 70
0
 10
628699.6240873253
 20
4842229.608538593
 10
628588.009610279
 20
4842242.2093862165
 10
628504.0668969977
 20
4842228.901314803
  0
LWPOLYLINE
  5
6C
330
17
100
AcDbEntity
  8
ROADS
100
AcDbPolyline
 90
2
 70
0
 10
628810.7953311626
 20
4842247.521706235
 10
628821.8505586373
 20
4842233.183821489
  0
LWPOLYLINE
  5
6D
330
17
100
AcDbEntity
  8
ROADS
100
AcDbPolyline
 90
2
 70
0
 10
628748.3676272046
 20
4842234.842044552
 10
628810.7953311626
 20
4842247.521706235
  0
LWPOLYLINE
  5
6E
330
17
100
AcDbEntity
  8
ROADS
100
AcDbPolyline
 90
2
 70
0
 10
628748.3676272046
 20
4842234.842044552
 10
628729.760407954
 20
4842359.715635006
  0
LWPOLYLINE
  5
6F
330
17
100
AcDbEntity
  8
ROADS
100
AcDbPolyline
 90
2
 70
0
 10
628729.760407954
 20
4842359.715635006
 10
628620.7100008477
 20
4842343.644439949
  0
LWPOLYLINE
  5
70
330
17
100
AcDbEntity
  8
ROADS
100
AcDbPolyline
 90
2
 70
0
 10
628517.7755730243
 20
4842178.908105101
 10
628504.0668969977
 20
4842228.901314803
  0
LWPOLYLINE
  5
71
330
17
100
AcDbEntity
  8
ROADS
100
AcDbPolyline
 90
3
 70
0
 10
628476.8645426134
 20
4842313.692609684
 10
628349.9755273662
 20
4842274.11155081
 10
628231.3323378875
 20
4842213.1333558755
  0
LWPOLYLINE
  5
72
330
17
100
AcDbEntity
  8
ROADS
100
AcDbPolyline
 90
2
 70
0
 10
628504.0668969977
 20
4842228.901314803
 10
628476.8645426134
 20
4842313.692609684
  0
LWPOLYLINE
  5
73
330
17
100
AcDbEntity
  8
ROADS
100
AcDbPolyline
 90
2
 70
0
 10
628620.7100008477
 20
4842343.644439949
 10
628476.8645426134
 20
4842313.692609684
  0
LWPOLYLINE
  5
74
330
17
100
AcDbEntity
  8
ROADS
100
AcDbPolyline
 90
2
 70
0
 10
628476.8645426134
 20
4842313.692609684
 10
628447.733084739
 20
4842407.432567815
  0
LWPOLYLINE
  5
75
330
17
100
AcDbEntity
  8
ROADS
100
AcDbPolyline
 90
2
 70
0
 10
628447.733084739
 20
4842407.432567815
 10
628195.7238269337
 20
4842329.01247464
  0
LWPOLYLINE
  5
76
330
17
100
AcDbEntity
  8
ROADS
100
AcDbPolyline
 90
2
 70
0
 10
628616.1624369769
 20
4842459.3043254465
 10
628447.733084739
 20
4842407.432567815
  0
LWPOLYLINE
  5
77
330
17
100
AcDbEntity
  8
ROADS
100
AcDbPolyline
 90
2
 70
0
 10
628447.733084739
 20
4842407.432567815
 10
628419.7940733638
 20
4842496.868808277
  0
LWPOLYLINE
  5
78
330
17
100
AcDbEntity
  8
ROADS
100
AcDbPolyline
 90
2
 70
0
 10
628419.7940733638
 20
4842496.868808277
 10
628168.0700428442
 20
4842417.748770495
  0
LWPOLYLINE
  5
79
330
17
100
AcDbEntity
  8
ROADS
100
AcDbPolyline
 90
2
 70
0
 10
628504.3839670396
 20
4842523.400531623
 10
628419.7940733638
 20
4842496.868808277
  0
LWPOLYLINE
  5
7A
330
17
100
AcDbEntity
  8
ROADS
100
AcDbPolyline
 90
2
 70
0
 10
628729.760407954
 20
4842359.715635006
 10
628723.428886658
 20
4842397.514569965
  0
LWPOLYLINE
  5
7B
330
17
100
AcDbEntity
  8
ROADS
100
AcDbPolyline
 90
2
 70
0
 10
628620.7100008477
 20
4842343.644439949
 10
628616.1624369769
 20
4842459.3043254465
  0
LWPOLYLINE
  5
7C
330
17
100
AcDbEntity
  8
ROADS
100
AcDbPolyline
 90
2
 70
0
 10
628723.428886658
 20
4842397.514569965
 10
628819.7469375259
 20
4842428.367842581
  0
LWPOLYLINE
  5
7D
330
17
100
AcDbEntity
  8
ROADS
100
AcDbPolyline
 90
2
 70
0
 10
628723.428886658
 20
4842397.514569965
 10
628700.7746996682
 20
4842523.638981454
  0
LWPOLYLINE
  5
7E
330
17
100
AcDbEntity
  8
ROADS
100
AcDbPolyline
 90
3
 70
0
 10
628700.7746996682
 20
4842523.638981454
 10
628718.0774801932
 20
4842525.09623802
 10
628819.7469375259
 20
4842428.367842581
  0
LWPOLYLINE
  5
7F
330
17
100
AcDbEntity
  8
ROADS
100
AcDbPolyline
 90
2
 70
0
 10
628616.1624369769
 20
4842459.3043254465
 10
628615.4370746224
 20
4842513.137776081
  0
LWPOLYLINE
  5
80
330
17
100
AcDbEntity
  8
ROADS
100
AcDbPolyline
 90
2
 70
0
 10
628819.7469375259
 20
4842428.367842581
 10
628810.5559764057
 20
4842618.289235898
  0
LWPOLYLINE
  5
81
330
17
100
AcDbEntity
  8
ROADS
100
AcDbPolyline
 90
2
 70
0
 10
628700.7746996682
 20
4842523.638981454
 10
628693.3260916257
 20
4842581.715045062
  0
LWPOLYLINE
  5
82
330
17
100
AcDbEntity
  8
ROADS
100
AcDbPolyline
 90
2
 70
0
 10
628693.3260916257
 20
4842581.715045062
 10
628582.5742379725
 20
4842547.872305333
  0
LWPOLYLINE
  5
83
330
17
100
AcDbEntity
  8
ROADS
100
AcDbPolyline
 90
2
 70
0
 10
628693.3260916257
 20
4842581.715045062
 10
628810.5559764057
 20
4842618.289235898
  0
LWPOLYLINE
  5
84
330
17
100
AcDbEntity
  8
ROADS
100
AcDbPolyline
 90
2
 70
0
 10
628195.7238269337
 20
4842329.01247464
 10
628168.0700428442
 20
4842417.748770495
  0
LWPOLYLINE
  5
85
330
17
100
AcDbEntity
  8
ROADS
100
AcDbPolyline
 90
2
 70
0
 10
628168.0700428442
 20
4842417.748770495
 10
627969.3645080377
 20
4842356.28753118
  0
LWPOLYLINE
  5
86
330
17
100
AcDbEntity
  8
ROADS
100
AcDbPolyline
 90
2
 70
0
 10
628142.6615833077
 20
4842498.628178448
 10
627876.2730133225
 20
4842415.270522281
  0
LWPOLYLINE
  5
87
330
17
100
AcDbEntity
  8
ROADS
100
AcDbPolyline
 90
2
 70
0
 10
628168.0700428442
 20
4842417.748770495
 10
628142.6615833077
 20
4842498.628178448
  0
LWPOLYLINE
  5
88
330
17
100
AcDbEntity
  8
ROADS
100
AcDbPolyline
 90
2
 70
0
 10
628393.5352436064
 20
4842578.398923426
 10
628142.6615833077
 20
4842498.628178448
  0
LWPOLYLINE
  5
89
330
17
100
AcDbEntity
  8
ROADS
100
AcDbPolyline
 90
2
 70
0
 10
628142.6615833077
 20
4842498.628178448
 10
628117.3354647263
 20
4842579.488063492
  0
LWPOLYLINE
  5
8A
330
17
100
AcDbEntity
  8
ROADS
100
AcDbPolyline
 90
2
 70
0
 10
628117.3354647263
 20
4842579.488063492
 10
628103.5768091398
 20
4842622.515841014
  0
LWPOLYLINE
  5
8B
330
17
100
AcDbEntity
  8
ROADS
100
AcDbPolyline
 90
2
 70
0
 10
628369.3135592187
 20
4842657.6897496125
 10
628117.3354647263
 20
4842579.488063492
  0
LWPOLYLINE
  5
8C
330
17
100
AcDbEntity
  8
ROADS
100
AcDbPolyline
 90
2
 70
0
 10
628103.5768091398
 20
4842622.515841014
 10
628088.9934524782
 20
4842669.280931262
  0
LWPOLYLINE
  5
8D
330
17
100
AcDbEntity
  8
ROADS
100
AcDbPolyline
 90
2
 70
0
 10
628355.2116780084
 20
4842701.777414009
 10
628103.5768091398
 20
4842622.515841014
  0
LWPOLYLINE
  5
8E
330
17
100
AcDbEntity
  8
ROADS
100
AcDbPolyline
 90
2
 70
0
 10
627822.5198407114
 20
4842585.653595375
 10
627704.2385239473
 20
4842548.793176459
  0
LWPOLYLINE
  5
8F
330
17
100
AcDbEntity
  8
ROADS
100
AcDbPolyline
 90
2
 70
0
 10
627850.7736232231
 20
4842495.760189123
 10
627730.5694043944
 20
4842458.474361381
  0
LWPOLYLINE
  5
90
330
17
100
AcDbEntity
  8
ROADS
100
AcDbPolyline
 90
2
 70
0
 10
627850.7736232231
 20
4842495.760189123
 10
627837.3667424988
 20
4842539.355338753
  0
LWPOLYLINE
  5
91
330
17
100
AcDbEntity
  8
ROADS
100
AcDbPolyline
 90
2
 70
0
 10
627837.3667424988
 20
4842539.355338753
 10
627716.8614867477
 20
4842501.739757745
  0
LWPOLYLINE
  5
92
330
17
100
AcDbEntity
  8
ROADS
100
AcDbPolyline
 90
2
 70
0
 10
628117.3354647263
 20
4842579.488063492
 10
627850.7736232231
 20
4842495.760189123
  0
LWPOLYLINE
  5
93
330
17
100
AcDbEntity
  8
ROADS
100
AcDbPolyline
 90
2
 70
0
 10
627837.3667424988
 20
4842539.355338753
 10
627822.5198407114
 20
4842585.653595375
  0
LWPOLYLINE
  5
94
330
17
100
AcDbEntity
  8
ROADS
100
AcDbPolyline
 90
2
 70
0
 10
628103.5768091398
 20
4842622.515841014
 10
627837.3667424988
 20
4842539.355338753
  0
LWPOLYLINE
  5
95
330
17
100
AcDbEntity
  8
ROADS
100
AcDbPolyline
 90
2
 70
0
 10
627822.5198407114
 20
4842585.653595375
 10
627806.3551481024
 20
4842633.427091641
  0
LWPOLYLINE
  5
96
330
17
100
AcDbEntity
  8
ROADS
100
AcDbPolyline
 90
2
 70
0
 10
628088.9934524782
 20
4842669.280931262
 10
627822.5198407114
 20
4842585.653595375
  0
LWPOLYLINE
  5
97
330
17
100
AcDbEntity
  8
ROADS
100
AcDbPolyline
 90
2
 70
0
 10
627806.3551481024
 20
4842633.427091641
 10
627791.044874709
 20
4842682.50613142
  0
LWPOLYLINE
  5
98
330
17
100
AcDbEntity
  8
ROADS
100
AcDbPolyline
 90
2
 70
0
 10
628074.0076200621
 20
4842717.009795541
 10
627806.3551481024
 20
4842633.427091641
  0
LWPOLYLINE
  5
99
330
17
100
AcDbEntity
  8
ROADS
100
AcDbPolyline
 90
2
 70
0
 10
627806.3551481024
 20
4842633.427091641
 10
627693.4924678686
 20
4842598.2479211055
  0
LWPOLYLINE
  5
9A
330
17
100
AcDbEntity
  8
ROADS
100
AcDbPolyline
 90
2
 70
0
 10
627791.044874709
 20
4842682.50613142
 10
627685.096583923
 20
4842649.170788653
  0
LWPOLYLINE
  5
9B
330
17
100
AcDbEntity
  8
ROADS
100
AcDbPolyline
 90
2
 70
0
 10
627777.6164903619
 20
4842729.277080265
 10
627681.5998103641
 20
4842699.1710037375
  0
LWPOLYLINE
  5
9C
330
17
100
AcDbEntity
  8
ROADS
100
AcDbPolyline
 90
2
 70
0
 10
627763.7216249178
 20
4842772.923382524
 10
627680.1298084795
 20
4842746.957391567
  0
LWPOLYLINE
  5
9D
330
17
100
AcDbEntity
  8
ROADS
100
AcDbPolyline
 90
2
 70
0
 10
627737.7956052469
 20
4842856.535974225
 10
627686.3967755368
 20
4842840.430030748
  0
LWPOLYLINE
  5
9E
330
17
100
AcDbEntity
  8
ROADS
100
AcDbPolyline
 90
2
 70
0
 10
627791.044874709
 20
4842682.50613142
 10
627777.6164903619
 20
4842729.277080265
  0
LWPOLYLINE
  5
9F
330
17
100
AcDbEntity
  8
ROADS
100
AcDbPolyline
 90
2
 70
0
 10
628058.3686260764
 20
4842765.849905788
 10
627791.044874709
 20
4842682.50613142
  0
LWPOLYLINE
  5
A0
330
17
100
AcDbEntity
  8
ROADS
100
AcDbPolyline
 90
2
 70
0
 10
627777.6164903619
 20
4842729.277080265
 10
627763.7216249178
 20
4842772.923382524
  0
LWPOLYLINE
  5
A1
330
17
100
AcDbEntity
  8
ROADS
100
AcDbPolyline
 90
2
 70
0
 10
628043.8472265626
 20
4842812.285083877
 10
627777.6164903619
 20
4842729.277080265
  0
LWPOLYLINE
  5
A2
330
17
100
AcDbEntity
  8
ROADS
100
AcDbPolyline
 90
2
 70
0
 10
628030.3541025547
 20
4842855.89068641
 10
627763.7216249178
 20
4842772.923382524
  0
LWPOLYLINE
  5
A3
330
17
100
AcDbEntity
  8
ROADS
100
AcDbPolyline
 90
2
 70
0
 10
628004.1016027227
 20
4842939.415923733
 10
627737.7956052469
 20
4842856.535974225
  0
LWPOLYLINE
  5
A4
330
17
100
AcDbEntity
  8
ROADS
100
AcDbPolyline
 90
2
 70
0
 10
628004.1016027227
 20
4842939.415923733
 10
627971.8604337989
 20
4843038.811776701
  0
LWPOLYLINE
  5
A5
330
17
100
AcDbEntity
  8
ROADS
100
AcDbPolyline
 90
2
 70
0
 10
627971.8604337989
 20
4843038.811776701
 10
627708.8825198637
 20
4842956.323537275
  0
LWPOLYLINE
  5
A6
330
17
100
AcDbEntity
  8
ROADS
100
AcDbPolyline
 90
2
 70
0
 10
627971.8604337989
 20
4843038.811776701
 10
627938.6343506698
 20
4843147.147860106
  0
LWPOLYLINE
  5
A7
330
17
100
AcDbEntity
  8
ROADS
100
AcDbPolyline
 90
2
 70
0
 10
627938.6343506698
 20
4843147.147860106
 10
627709.163826261
 20
4843076.057527458
  0
LWPOLYLINE
  5
A8
330
17
100
AcDbEntity
  8
ROADS
100
AcDbPolyline
 90
2
 70
0
 10
627763.7216249178
 20
4842772.923382524
 10
627737.7956052469
 20
4842856.535974225
  0
LWPOLYLINE
  5
A9
330
17
100
AcDbEntity
  8
ROADS
100
AcDbPolyline
 90
2
 70
0
 10
627737.7956052469
 20
4842856.535974225
 10
627707.9608007922
 20
4842952.411094283
  0
LWPOLYLINE
  5
AA
330
17
100
AcDbEntity
  8
ROADS
100
AcDbPolyline
 90
2
 70
0
 10
627870.2581343919
 20
4843367.014841916
 10
627668.6057474192
 20
4843304.200305803
  0
LWPOLYLINE
  5
AB
330
17
100
AcDbEntity
  8
ROADS
100
AcDbPolyline
 90
2
 70
0
 10
628582.5742379725
 20
4842547.872305333
 10
628504.3839670396
 20
4842523.400531623
  0
LWPOLYLINE
  5
AC
330
17
100
AcDbEntity
  8
ROADS
100
AcDbPolyline
 90
2
 70
0
 10
628419.7940733638
 20
4842496.868808277
 10
628393.5352436064
 20
4842578.398923426
  0
LWPOLYLINE
  5
AD
330
17
100
AcDbEntity
  8
ROADS
100
AcDbPolyline
 90
2
 70
0
 10
628393.5352436064
 20
4842578.398923426
 10
628369.3135592187
 20
4842657.6897496125
  0
LWPOLYLINE
  5
AE
330
17
100
AcDbEntity
  8
ROADS
100
AcDbPolyline
 90
2
 70
0
 10
628504.3839670396
 20
4842523.400531623
 10
628439.5280707955
 20
4842727.588186571
  0
LWPOLYLINE
  5
AF
330
17
100
AcDbEntity
  8
ROADS
100
AcDbPolyline
 90
2
 70
0
 10
628582.5742379725
 20
4842547.872305333
 10
628529.2368132417
 20
4842721.85248103
  0
LWPOLYLINE
  5
B0
330
17
100
AcDbEntity
  8
ROADS
100
AcDbPolyline
 90
2
 70
0
 10
628369.3135592187
 20
4842657.6897496125
 10
628355.2116780084
 20
4842701.777414009
  0
LWPOLYLINE
  5
B1
330
17
100
AcDbEntity
  8
ROADS
100
AcDbPolyline
 90
2
 70
0
 10
628355.2116780084
 20
4842701.777414009
 10
628439.5280707955
 20
4842727.588186571
  0
LWPOLYLINE
  5
B2
330
17
100
AcDbEntity
  8
ROADS
100
AcDbPolyline
 90
2
 70
0
 10
628355.2116780084
 20
4842701.777414009
 10
628347.6048635544
 20
4842750.5809417935
  0
LWPOLYLINE
  5
B3
330
17
100
AcDbEntity
  8
ROADS
100
AcDbPolyline
 90
2
 70
0
 10
628439.5280707955
 20
4842727.588186571
 10
628509.414580239
 20
4842749.528542329
  0
LWPOLYLINE
  5
B4
330
17
100
AcDbEntity
  8
ROADS
100
AcDbPolyline
 90
2
 70
0
 10
628438.0902943842
 20
4842778.787540934
 10
628347.6048635544
 20
4842750.5809417935
  0
LWPOLYLINE
  5
B5
330
17
100
AcDbEntity
  8
ROADS
100
AcDbPolyline
 90
2
 70
0
 10
628693.3260916257
 20
4842581.715045062
 10
628678.4965080587
 20
4842645.452894527
  0
LWPOLYLINE
  5
B6
330
17
100
AcDbEntity
  8
ROADS
100
AcDbPolyline
 90
2
 70
0
 10
628678.4965080587
 20
4842645.452894527
 10
628728.858593746
 20
4842661.3804694945
  0
LWPOLYLINE
  5
B7
330
17
100
AcDbEntity
  8
ROADS
100
AcDbPolyline
 90
2
 70
0
 10
628678.4965080587
 20
4842645.452894527
 10
628665.0224603686
 20
4842713.143536252
  0
LWPOLYLINE
  5
B8
330
17
100
AcDbEntity
  8
ROADS
100
AcDbPolyline
 90
3
 70
0
 10
628665.0224603686
 20
4842713.143536252
 10
628732.6981400036
 20
4842757.003353263
 10
628819.2218044094
 20
4842782.3150842395
  0
LWPOLYLINE
  5
B9
330
17
100
AcDbEntity
  8
ROADS
100
AcDbPolyline
 90
2
 70
0
 10
628665.0224603686
 20
4842713.143536252
 10
628638.0942313443
 20
4842841.12667125
  0
LWPOLYLINE
  5
BA
330
17
100
AcDbEntity
  8
ROADS
100
AcDbPolyline
 90
3
 70
0
 10
628584.8766122014
 20
4842823.893302338
 10
628599.0722063238
 20
4842778.718236451
 10
628527.4368533926
 20
4842755.712145318
  0
LWPOLYLINE
  5
BB
330
17
100
AcDbEntity
  8
ROADS
100
AcDbPolyline
 90
2
 70
0
 10
628638.0942313443
 20
4842841.12667125
 10
628584.8766122014
 20
4842823.893302338
  0
LWPOLYLINE
  5
BC
330
17
100
AcDbEntity
  8
ROADS
100
AcDbPolyline
 90
2
 70
0
 10
628638.0942313443
 20
4842841.12667125
 10
628628.4849409872
 20
4842886.411758713
  0
LWPOLYLINE
  5
BD
330
17
100
AcDbEntity
  8
ROADS
100
AcDbPolyline
 90
3
 70
0
 10
628628.4849409872
 20
4842886.411758713
 10
628732.347687688
 20
4842886.863690251
 10
628853.5123429138
 20
4842923.243198114
  0
LWPOLYLINE
  5
BE
330
17
100
AcDbEntity
  8
ROADS
100
AcDbPolyline
 90
2
 70
0
 10
628628.4849409872
 20
4842886.411758713
 10
628617.2493942056
 20
4842940.43398951
  0
LWPOLYLINE
  5
BF
330
17
100
AcDbEntity
  8
ROADS
100
AcDbPolyline
 90
2
 70
0
 10
628347.6048635544
 20
4842750.5809417935
 10
628355.3471496917
 20
4842805.953712103
  0
LWPOLYLINE
  5
C0
330
17
100
AcDbEntity
  8
ROADS
100
AcDbPolyline
 90
2
 70
0
 10
628584.8766122014
 20
4842823.893302338
 10
628438.0902943842
 20
4842778.787540934
  0
LWPOLYLINE
  5
C1
330
17
100
AcDbEntity
  8
ROADS
100
AcDbPolyline
 90
3
 70
0
 10
628438.0902943842
 20
4842778.787540934
 10
628424.0632665406
 20
4842826.031772498
 10
628355.3471496917
 20
4842805.953712103
  0
LWPOLYLINE
  5
C2
330
17
100
AcDbEntity
  8
ROADS
100
AcDbPolyline
 90
2
 70
0
 10
628355.3471496917
 20
4842805.953712103
 10
628308.2021281337
 20
4842843.187846027
  0
LWPOLYLINE
  5
C3
330
17
100
AcDbEntity
  8
ROADS
100
AcDbPolyline
 90
2
 70
0
 10
628355.3471496917
 20
4842805.953712103
 10
628362.679113892
 20
4842861.066041242
  0
LWPOLYLINE
  5
C4
330
17
100
AcDbEntity
  8
ROADS
100
AcDbPolyline
 90
2
 70
0
 10
628407.4722408094
 20
4842839.011668402
 10
628390.6186217032
 20
4842829.260647154
  0
LWPOLYLINE
  5
C5
330
17
100
AcDbEntity
  8
ROADS
100
AcDbPolyline
 90
2
 70
0
 10
628407.4722408094
 20
4842839.011668402
 10
628429.7143549781
 20
4842834.942643081
  0
LWPOLYLINE
  5
C6
330
17
100
AcDbEntity
  8
ROADS
100
AcDbPolyline
 90
2
 70
0
 10
628373.7617178354
 20
4842849.083846031
 10
628372.0762473623
 20
4842834.40737412
  0
LWPOLYLINE
  5
C7
330
17
100
AcDbEntity
  8
ROADS
100
AcDbPolyline
 90
2
 70
0
 10
628373.7617178354
 20
4842849.083846031
 10
628407.4722408094
 20
4842839.011668402
  0
LWPOLYLINE
  5
C8
330
17
100
AcDbEntity
  8
ROADS
100
AcDbPolyline
 90
2
 70
0
 10
628362.679113892
 20
4842861.066041242
 10
628308.2021281337
 20
4842843.187846027
  0
LWPOLYLINE
  5
C9
330
17
100
AcDbEntity
  8
ROADS
100
AcDbPolyline
 90
2
 70
0
 10
628088.9934524782
 20
4842669.280931262
 10
628074.0076200621
 20
4842717.009795541
  0
LWPOLYLINE
  5
CA
330
17
100
AcDbEntity
  8
ROADS
100
AcDbPolyline
 90
2
 70
0
 10
628347.6048635544
 20
4842750.5809417935
 10
628088.9934524782
 20
4842669.280931262
  0
LWPOLYLINE
  5
CB
330
17
100
AcDbEntity
  8
ROADS
100
AcDbPolyline
 90
2
 70
0
 10
628074.0076200621
 20
4842717.009795541
 10
628058.3686260764
 20
4842765.849905788
  0
LWPOLYLINE
  5
CC
330
17
100
AcDbEntity
  8
ROADS
100
AcDbPolyline
 90
2
 70
0
 10
628355.3471496917
 20
4842805.953712103
 10
628074.0076200621
 20
4842717.009795541
  0
LWPOLYLINE
  5
CD
330
17
100
AcDbEntity
  8
ROADS
100
AcDbPolyline
 90
2
 70
0
 10
628058.3686260764
 20
4842765.849905788
 10
628043.8472265626
 20
4842812.285083877
  0
LWPOLYLINE
  5
CE
330
17
100
AcDbEntity
  8
ROADS
100
AcDbPolyline
 90
2
 70
0
 10
628308.2021281337
 20
4842843.187846027
 10
628058.3686260764
 20
4842765.849905788
  0
LWPOLYLINE
  5
CF
330
17
100
AcDbEntity
  8
ROADS
100
AcDbPolyline
 90
2
 70
0
 10
628043.8472265626
 20
4842812.285083877
 10
628030.3541025547
 20
4842855.89068641
  0
LWPOLYLINE
  5
D0
330
17
100
AcDbEntity
  8
ROADS
100
AcDbPolyline
 90
2
 70
0
 10
628354.3126158472
 20
4842909.5717971
 10
628043.8472265626
 20
4842812.285083877
  0
LWPOLYLINE
  5
D1
330
17
100
AcDbEntity
  8
ROADS
100
AcDbPolyline
 90
2
 70
0
 10
628030.3541025547
 20
4842855.89068641
 10
628004.1016027227
 20
4842939.415923733
  0
LWPOLYLINE
  5
D2
330
17
100
AcDbEntity
  8
ROADS
100
AcDbPolyline
 90
2
 70
0
 10
628340.5133522376
 20
4842953.237899226
 10
628030.3541025547
 20
4842855.89068641
  0
LWPOLYLINE
  5
D3
330
17
100
AcDbEntity
  8
ROADS
100
AcDbPolyline
 90
2
 70
0
 10
628362.679113892
 20
4842861.066041242
 10
628373.7617178354
 20
4842849.083846031
  0
LWPOLYLINE
  5
D4
330
17
100
AcDbEntity
  8
ROADS
100
AcDbPolyline
 90
2
 70
0
 10
628362.679113892
 20
4842861.066041242
 10
628354.3126158472
 20
4842909.5717971
  0
LWPOLYLINE
  5
D5
330
17
100
AcDbEntity
  8
ROADS
100
AcDbPolyline
 90
2
 70
0
 10
628576.606043275
 20
4842927.707498948
 10
628362.679113892
 20
4842861.066041242
  0
LWPOLYLINE
  5
D6
330
17
100
AcDbEntity
  8
ROADS
100
AcDbPolyline
 90
2
 70
0
 10
628354.3126158472
 20
4842909.5717971
 10
628340.5133522376
 20
4842953.237899226
  0
LWPOLYLINE
  5
D7
330
17
100
AcDbEntity
  8
ROADS
100
AcDbPolyline
 90
2
 70
0
 10
628558.2021091867
 20
4842972.663869888
 10
628354.3126158472
 20
4842909.5717971
  0
LWPOLYLINE
  5
D8
330
17
100
AcDbEntity
  8
ROADS
100
AcDbPolyline
 90
2
 70
0
 10
628540.2522768258
 20
4843015.682326881
 10
628340.5133522376
 20
4842953.237899226
  0
LWPOLYLINE
  5
D9
330
17
100
AcDbEntity
  8
ROADS
100
AcDbPolyline
 90
2
 70
0
 10
628340.5133522376
 20
4842953.237899226
 10
628314.1548044904
 20
4843034.49763863
  0
LWPOLYLINE
  5
DA
330
17
100
AcDbEntity
  8
ROADS
100
AcDbPolyline
 90
2
 70
0
 10
628558.2021091867
 20
4842972.663869888
 10
628540.2522768258
 20
4843015.682326881
  0
LWPOLYLINE
  5
DB
330
17
100
AcDbEntity
  8
ROADS
100
AcDbPolyline
 90
2
 70
0
 10
628555.4466546816
 20
4843020.5236700615
 10
628540.2522768258
 20
4843015.682326881
  0
LWPOLYLINE
  5
DC
330
17
100
AcDbEntity
  8
ROADS
100
AcDbPolyline
 90
2
 70
0
 10
628555.4466546816
 20
4843020.5236700615
 10
628529.1450067401
 20
4843100.79292096
  0
LWPOLYLINE
  5
DD
330
17
100
AcDbEntity
  8
ROADS
100
AcDbPolyline
 90
2
 70
0
 10
628617.2493942056
 20
4842940.43398951
 10
628576.606043275
 20
4842927.707498948
  0
LWPOLYLINE
  5
DE
330
17
100
AcDbEntity
  8
ROADS
100
AcDbPolyline
 90
2
 70
0
 10
628576.606043275
 20
4842927.707498948
 10
628558.2021091867
 20
4842972.663869888
  0
LWPOLYLINE
  5
DF
330
17
100
AcDbEntity
  8
ROADS
100
AcDbPolyline
 90
2
 70
0
 10
628617.2493942056
 20
4842940.43398951
 10
628611.6157706236
 20
4842966.469751856
  0
LWPOLYLINE
  5
E0
330
17
100
AcDbEntity
  8
ROADS
100
AcDbPolyline
 90
2
 70
0
 10
628611.6157706236
 20
4842966.469751856
 10
628664.8272494734
 20
4842982.881978868
  0
LWPOLYLINE
  5
E1
330
17
100
AcDbEntity
  8
ROADS
100
AcDbPolyline
 90
2
 70
0
 10
628611.6157706236
 20
4842966.469751856
 10
628597.8093469272
 20
4843033.237290863
  0
LWPOLYLINE
  5
E2
330
17
100
AcDbEntity
  8
ROADS
100
AcDbPolyline
 90
2
 70
0
 10
628664.8272494734
 20
4842982.881978868
 10
628824.2283530927
 20
4843030.039327342
  0
LWPOLYLINE
  5
E3
330
17
100
AcDbEntity
  8
ROADS
100
AcDbPolyline
 90
2
 70
0
 10
628597.8093469272
 20
4843033.237290863
 10
628555.4466546816
 20
4843020.5236700615
  0
LWPOLYLINE
  5
E4
330
17
100
AcDbEntity
  8
ROADS
100
AcDbPolyline
 90
2
 70
0
 10
628664.8272494734
 20
4842982.881978868
 10
628646.1958471384
 20
4843077.033017727
  0
LWPOLYLINE
  5
E5
330
17
100
AcDbEntity
  8
ROADS
100
AcDbPolyline
 90
2
 70
0
 10
628597.8093469272
 20
4843033.237290863
 10
628591.1148006152
 20
4843060.700942027
  0
LWPOLYLINE
  5
E6
330
17
100
AcDbEntity
  8
ROADS
100
AcDbPolyline
 90
2
 70
0
 10
628591.1148006152
 20
4843060.700942027
 10
628646.1958471384
 20
4843077.033017727
  0
LWPOLYLINE
  5
E7
330
17
100
AcDbEntity
  8
ROADS
100
AcDbPolyline
 90
2
 70
0
 10
628824.2283530927
 20
4843030.039327342
 10
628795.4035825793
 20
4843121.022690487
  0
LWPOLYLINE
  5
E8
330
17
100
AcDbEntity
  8
ROADS
100
AcDbPolyline
 90
2
 70
0
 10
628591.1148006152
 20
4843060.700942027
 10
628580.5750062128
 20
4843116.06384397
  0
LWPOLYLINE
  5
E9
330
17
100
AcDbEntity
  8
ROADS
100
AcDbPolyline
 90
2
 70
0
 10
628646.1958471384
 20
4843077.033017727
 10
628795.4035825793
 20
4843121.022690487
  0
LWPOLYLINE
  5
EA
330
17
100
AcDbEntity
  8
ROADS
100
AcDbPolyline
 90
2
 70
0
 10
628646.1958471384
 20
4843077.033017727
 10
628635.7794580755
 20
4843124.970667706
  0
LWPOLYLINE
  5
EB
330
17
100
AcDbEntity
  8
ROADS
100
AcDbPolyline
 90
2
 70
0
 10
628580.5750062128
 20
4843116.06384397
 10
628572.7431578059
 20
4843153.373559917
  0
LWPOLYLINE
  5
EC
330
17
100
AcDbEntity
  8
ROADS
100
AcDbPolyline
 90
2
 70
0
 10
628795.4035825793
 20
4843121.022690487
 10
628767.337255948
 20
4843212.590806039
  0
LWPOLYLINE
  5
ED
330
17
100
AcDbEntity
  8
ROADS
100
AcDbPolyline
 90
2
 70
0
 10
628572.7431578059
 20
4843153.373559917
 10
628767.337255948
 20
4843212.590806039
  0
LWPOLYLINE
  5
EE
330
17
100
AcDbEntity
  8
ROADS
100
AcDbPolyline
 90
2
 70
0
 10
628572.7431578059
 20
4843153.373559917
 10
628557.8705728617
 20
4843222.574947166
  0
LWPOLYLINE
  5
EF
330
17
100
AcDbEntity
  8
ROADS
100
AcDbPolyline
 90
2
 70
0
 10
628767.337255948
 20
4843212.590806039
 10
628742.2860736742
 20
4843304.768524888
  0
LWPOLYLINE
  5
F0
330
17
100
AcDbEntity
  8
ROADS
100
AcDbPolyline
 90
2
 70
0
 10
628552.1634268602
 20
4843250.516496127
 10
628742.2860736742
 20
4843304.768524888
  0
LWPOLYLINE
  5
F1
330
17
100
AcDbEntity
  8
ROADS
100
AcDbPolyline
 90
2
 70
0
 10
628529.1450067401
 20
4843100.79292096
 10
628314.1548044904
 20
4843034.49763863
  0
LWPOLYLINE
  5
F2
330
17
100
AcDbEntity
  8
ROADS
100
AcDbPolyline
 90
2
 70
0
 10
628314.1548044904
 20
4843034.49763863
 10
628282.615739679
 20
4843134.936851951
  0
LWPOLYLINE
  5
F3
330
17
100
AcDbEntity
  8
ROADS
100
AcDbPolyline
 90
2
 70
0
 10
628580.5750062128
 20
4843116.06384397
 10
628529.1450067401
 20
4843100.79292096
  0
LWPOLYLINE
  5
F4
330
17
100
AcDbEntity
  8
ROADS
100
AcDbPolyline
 90
2
 70
0
 10
628529.1450067401
 20
4843100.79292096
 10
628502.2291711192
 20
4843205.598666066
  0
LWPOLYLINE
  5
F5
330
17
100
AcDbEntity
  8
ROADS
100
AcDbPolyline
 90
2
 70
0
 10
628502.2291711192
 20
4843205.598666066
 10
628282.615739679
 20
4843134.936851951
  0
LWPOLYLINE
  5
F6
330
17
100
AcDbEntity
  8
ROADS
100
AcDbPolyline
 90
2
 70
0
 10
628557.8705728617
 20
4843222.574947166
 10
628502.2291711192
 20
4843205.598666066
  0
LWPOLYLINE
  5
F7
330
17
100
AcDbEntity
  8
ROADS
100
AcDbPolyline
 90
2
 70
0
 10
628557.8705728617
 20
4843222.574947166
 10
628552.1634268602
 20
4843250.516496127
  0
LWPOLYLINE
  5
F8
330
17
100
AcDbEntity
  8
ROADS
100
AcDbPolyline
 90
2
 70
0
 10
628502.2291711192
 20
4843205.598666066
 10
628483.7159276321
 20
4843316.532896571
  0
LWPOLYLINE
  5
F9
330
17
100
AcDbEntity
  8
ROADS
100
AcDbPolyline
 90
2
 70
0
 10
628483.7159276321
 20
4843316.532896571
 10
628249.1202931744
 20
4843243.730681184
  0
LWPOLYLINE
  5
FA
330
17
100
AcDbEntity
  8
ROADS
100
AcDbPolyline
 90
2
 70
0
 10
628552.1634268602
 20
4843250.516496127
 10
628535.008535469
 20
4843333.039445741
  0
LWPOLYLINE
  5
FB
330
17
100
AcDbEntity
  8
ROADS
100
AcDbPolyline
 90
2
 70
0
 10
628314.1548044904
 20
4843034.49763863
 10
628004.1016027227
 20
4842939.415923733
  0
LWPOLYLINE
  5
FC
330
17
100
AcDbEntity
  8
ROADS
100
AcDbPolyline
 90
2
 70
0
 10
628282.615739679
 20
4843134.936851951
 10
627971.8604337989
 20
4843038.811776701
  0
LWPOLYLINE
  5
FD
330
17
100
AcDbEntity
  8
ROADS
100
AcDbPolyline
 90
2
 70
0
 10
628282.615739679
 20
4843134.936851951
 10
628249.1202931744
 20
4843243.730681184
  0
LWPOLYLINE
  5
FE
330
17
100
AcDbEntity
  8
ROADS
100
AcDbPolyline
 90
2
 70
0
 10
628249.1202931744
 20
4843243.730681184
 10
627938.6343506698
 20
4843147.147860106
  0
LWPOLYLINE
  5
FF
330
17
100
AcDbEntity
  8
ROADS
100
AcDbPolyline
 90
2
 70
0
 10
628249.1202931744
 20
4843243.730681184
 10
628215.055396636
 20
4843354.755327273
  0
LWPOLYLINE
  5
100
330
17
100
AcDbEntity
  8
ROADS
100
AcDbPolyline
 90
2
 70
0
 10
628215.055396636
 20
4843354.755327273
 10
627904.1243591277
 20
4843258.013845549
  0
LWPOLYLINE
  5
101
330
17
100
AcDbEntity
  8
ROADS
100
AcDbPolyline
 90
2
 70
0
 10
628215.055396636
 20
4843354.755327273
 10
628180.997157328
 20
4843463.034892856
  0
LWPOLYLINE
  5
102
330
17
100
AcDbEntity
  8
ROADS
100
AcDbPolyline
 90
2
 70
0
 10
628180.997157328
 20
4843463.034892856
 10
627870.2581343919
 20
4843367.014841916
  0
LWPOLYLINE
  5
103
330
17
100
AcDbEntity
  8
ROADS
100
AcDbPolyline
 90
2
 70
0
 10
628180.997157328
 20
4843463.034892856
 10
628155.6645031031
 20
4843554.131267212
  0
LWPOLYLINE
  5
104
330
17
100
AcDbEntity
  8
ROADS
100
AcDbPolyline
 90
2
 70
0
 10
628057.8202774471
 20
4843523.519117397
 10
627975.7374055019
 20
4843498.745669596
  0
LWPOLYLINE
  5
105
330
17
100
AcDbEntity
  8
ROADS
100
AcDbPolyline
 90
2
 70
0
 10
628535.008535469
 20
4843333.039445741
 10
628483.7159276321
 20
4843316.532896571
  0
LWPOLYLINE
  5
106
330
17
100
AcDbEntity
  8
ROADS
100
AcDbPolyline
 90
2
 70
0
 10
628535.008535469
 20
4843333.039445741
 10
628532.5342978506
 20
4843344.755435527
  0
LWPOLYLINE
  5
107
330
17
100
AcDbEntity
  8
ROADS
100
AcDbPolyline
 90
2
 70
0
 10
628483.7159276321
 20
4843316.532896571
 10
628460.4653736603
 20
4843431.221611182
  0
LWPOLYLINE
  5
108
330
17
100
AcDbEntity
  8
ROADS
100
AcDbPolyline
 90
2
 70
0
 10
628460.4653736603
 20
4843431.221611182
 10
628215.055396636
 20
4843354.755327273
  0
LWPOLYLINE
  5
109
330
17
100
AcDbEntity
  8
ROADS
100
AcDbPolyline
 90
2
 70
0
 10
628532.5342978506
 20
4843344.755435527
 10
628511.3390122581
 20
4843446.840534085
  0
LWPOLYLINE
  5
10A
330
17
100
AcDbEntity
  8
ROADS
100
AcDbPolyline
 90
2
 70
0
 10
628511.3390122581
 20
4843446.840534085
 10
628460.4653736603
 20
4843431.221611182
  0
LWPOLYLINE
  5
10B
330
17
100
AcDbEntity
  8
ROADS
100
AcDbPolyline
 90
2
 70
0
 10
628511.3390122581
 20
4843446.840534085
 10
628509.55337783
 20
4843457.254900892
  0
LWPOLYLINE
  5
10C
330
17
100
AcDbEntity
  8
ROADS
100
AcDbPolyline
 90
2
 70
0
 10
628460.4653736603
 20
4843431.221611182
 10
628438.9390049322
 20
4843543.418356998
  0
LWPOLYLINE
  5
10D
330
17
100
AcDbEntity
  8
ROADS
100
AcDbPolyline
 90
2
 70
0
 10
628509.55337783
 20
4843457.254900892
 10
628495.3341315521
 20
4843530.690369479
  0
LWPOLYLINE
  5
10E
330
17
100
AcDbEntity
  8
ROADS
100
AcDbPolyline
 90
2
 70
0
 10
628438.9390049322
 20
4843543.418356998
 10
628180.997157328
 20
4843463.034892856
  0
LWPOLYLINE
  5
10F
330
17
100
AcDbEntity
  8
ROADS
100
AcDbPolyline
 90
5
 70
0
 10
629293.0113807184
 20
4841963.682264829
 10
629231.670588061
 20
4841936.551447773
 10
629183.0002325472
 20
4841932.906411421
 10
629095.4890130891
 20
4841965.025900687
 10
629055.1172615272
 20
4842014.647651285
  0
LWPOLYLINE
  5
110
330
17
100
AcDbEntity
  8
ROADS
100
AcDbPolyline
 90
2
 70
0
 10
628840.9694887283
 20
4841703.591977573
 10
628838.2936242116
 20
4841718.242846997
  0
LWPOLYLINE
  5
111
330
17
100
AcDbEntity
  8
ROADS
100
AcDbPolyline
 90
2
 70
0
 10
628974.3692526061
 20
4841744.774170832
 10
628959.8218295105
 20
4841822.018068519
  0
LWPOLYLINE
  5
112
330
17
100
AcDbEntity
  8
ROADS
100
AcDbPolyline
 90
2
 70
0
 10
628959.8218295105
 20
4841822.018068519
 10
629104.5151022689
 20
4841852.770624397
  0
LWPOLYLINE
  5
113
330
17
100
AcDbEntity
  8
ROADS
100
AcDbPolyline
 90
2
 70
0
 10
628959.8218295105
 20
4841822.018068519
 10
628943.7622340944
 20
4841919.522017023
  0
LWPOLYLINE
  5
114
330
17
100
AcDbEntity
  8
ROADS
100
AcDbPolyline
 90
2
 70
0
 10
628810.3052667207
 20
4841878.907127007
 10
628943.7622340944
 20
4841919.522017023
  0
LWPOLYLINE
  5
115
330
17
100
AcDbEntity
  8
ROADS
100
AcDbPolyline
 90
3
 70
0
 10
628943.7622340944
 20
4841919.522017023
 10
628991.8278366905
 20
4841931.603675256
 10
629038.5278524712
 20
4841921.223102907
  0
LWPOLYLINE
  5
116
330
17
100
AcDbEntity
  8
ROADS
100
AcDbPolyline
 90
2
 70
0
 10
628793.7116684556
 20
4841967.622777024
 10
628888.6802181648
 20
4842000.159623038
  0
LWPOLYLINE
  5
117
330
17
100
AcDbEntity
  8
ROADS
100
AcDbPolyline
 90
2
 70
0
 10
628888.6802181648
 20
4842000.159623038
 10
628936.8092528924
 20
4842014.4825900365
  0
LWPOLYLINE
  5
118
330
17
100
AcDbEntity
  8
ROADS
100
AcDbPolyline
 90
3
 70
0
 10
628888.6802181648
 20
4842000.159623038
 10
628861.6080969981
 20
4842060.737762974
 10
628823.4743363583
 20
4842076.44169443
  0
LWPOLYLINE
  5
119
330
17
100
AcDbEntity
  8
ROADS
100
AcDbPolyline
 90
2
 70
0
 10
628889.9641304617
 20
4842104.733226436
 10
629055.1172615272
 20
4842014.647651285
  0
LWPOLYLINE
  5
11A
330
17
100
AcDbEntity
  8
ROADS
100
AcDbPolyline
 90
2
 70
0
 10
628889.9641304617
 20
4842104.733226436
 10
628910.9143727256
 20
4842103.839980503
  0
LWPOLYLINE
  5
11B
330
17
100
AcDbEntity
  8
ROADS
100
AcDbPolyline
 90
2
 70
0
 10
628889.9641304617
 20
4842104.733226436
 10
628899.4870087159
 20
4842117.300079407
  0
LWPOLYLINE
  5
11C
330
17
100
AcDbEntity
  8
ROADS
100
AcDbPolyline
 90
2
 70
0
 10
628889.9641304617
 20
4842104.733226436
 10
628852.7636270192
 20
4842126.762135451
  0
LWPOLYLINE
  5
11D
330
17
100
AcDbEntity
  8
ROADS
100
AcDbPolyline
 90
2
 70
0
 10
628824.7941623743
 20
4842126.766955709
 10
628889.9641304617
 20
4842104.733226436
  0
LWPOLYLINE
  5
11E
330
17
100
AcDbEntity
  8
ROADS
100
AcDbPolyline
 90
2
 70
0
 10
628899.4870087159
 20
4842117.300079407
 10
628910.4734456041
 20
4842119.748071988
  0
LWPOLYLINE
  5
11F
330
17
100
AcDbEntity
  8
ROADS
100
AcDbPolyline
 90
2
 70
0
 10
628852.7636270192
 20
4842126.762135451
 10
628824.7941623743
 20
4842126.766955709
  0
LWPOLYLINE
  5
120
330
17
100
AcDbEntity
  8
ROADS
100
AcDbPolyline
 90
2
 70
0
 10
628889.9641304617
 20
4842104.733226436
 10
628862.506212251
 20
4842166.550126343
  0
LWPOLYLINE
  5
121
330
17
100
AcDbEntity
  8
ROADS
100
AcDbPolyline
 90
2
 70
0
 10
628852.7636270192
 20
4842126.762135451
 10
628827.3968207585
 20
4842156.995418926
  0
LWPOLYLINE
  5
122
330
17
100
AcDbEntity
  8
ROADS
100
AcDbPolyline
 90
2
 70
0
 10
628899.4870087159
 20
4842117.300079407
 10
628876.389683124
 20
4842188.677873207
  0
LWPOLYLINE
  5
123
330
17
100
AcDbEntity
  8
ROADS
100
AcDbPolyline
 90
2
 70
0
 10
629313.494946738
 20
4841987.20404992
 10
629288.8948305224
 20
4842069.095108645
  0
LWPOLYLINE
  5
124
330
17
100
AcDbEntity
  8
ROADS
100
AcDbPolyline
 90
4
 70
0
 10
629055.1172615272
 20
4842014.647651285
 10
629054.9373714853
 20
4842050.115799112
 10
629123.2176912227
 20
4842016.150183882
 10
629288.8948305224
 20
4842069.095108645
  0
LWPOLYLINE
  5
125
330
17
100
AcDbEntity
  8
ROADS
100
AcDbPolyline
 90
2
 70
0
 10
629288.8948305224
 20
4842069.095108645
 10
629391.8985027471
 20
4842101.934834678
  0
LWPOLYLINE
  5
126
330
17
100
AcDbEntity
  8
ROADS
100
AcDbPolyline
 90
2
 70
0
 10
629288.8948305224
 20
4842069.095108645
 10
629254.6680877522
 20
4842175.650977553
  0
LWPOLYLINE
  5
127
330
17
100
AcDbEntity
  8
ROADS
100
AcDbPolyline
 90
2
 70
0
 10
629254.6680877522
 20
4842175.650977553
 10
629395.1216299188
 20
4842218.0367812645
  0
LWPOLYLINE
  5
128
330
17
100
AcDbEntity
  8
ROADS
100
AcDbPolyline
 90
2
 70
0
 10
629254.6680877522
 20
4842175.650977553
 10
629222.8965920906
 20
4842282.090252476
  0
LWPOLYLINE
  5
129
330
17
100
AcDbEntity
  8
ROADS
100
AcDbPolyline
 90
2
 70
0
 10
629120.8161750729
 20
4842251.06268806
 10
629222.8965920906
 20
4842282.090252476
  0
LWPOLYLINE
  5
12A
330
17
100
AcDbEntity
  8
ROADS
100
AcDbPolyline
 90
2
 70
0
 10
629395.1216299188
 20
4842218.0367812645
 10
629361.330901863
 20
4842325.30860987
  0
LWPOLYLINE
  5
12B
330
17
100
AcDbEntity
  8
ROADS
100
AcDbPolyline
 90
2
 70
0
 10
629120.8161750729
 20
4842251.06268806
 10
629087.0125254813
 20
4842345.346310199
  0
LWPOLYLINE
  5
12C
330
17
100
AcDbEntity
  8
ROADS
100
AcDbPolyline
 90
2
 70
0
 10
629222.8965920906
 20
4842282.090252476
 10
629361.330901863
 20
4842325.30860987
  0
LWPOLYLINE
  5
12D
330
17
100
AcDbEntity
  8
ROADS
100
AcDbPolyline
 90
2
 70
0
 10
628827.3968207585
 20
4842156.995418926
 10
628862.506212251
 20
4842166.550126343
  0
LWPOLYLINE
  5
12E
330
17
100
AcDbEntity
  8
ROADS
100
AcDbPolyline
 90
5
 70
0
 10
628908.0407458598
 20
4842219.679774513
 10
628954.9082109199
 20
4842157.776799002
 10
629034.5125076529
 20
4842126.009301251
 10
629109.9984020804
 20
4842130.773737026
 10
629254.6680877522
 20
4842175.650977553
  0
LWPOLYLINE
  5
12F
330
17
100
AcDbEntity
  8
ROADS
100
AcDbPolyline
 90
2
 70
0
 10
628827.3968207585
 20
4842156.995418926
 10
628835.4516428505
 20
4842191.3461646885
  0
LWPOLYLINE
  5
130
330
17
100
AcDbEntity
  8
ROADS
100
AcDbPolyline
 90
2
 70
0
 10
628862.506212251
 20
4842166.550126343
 10
628835.4516428505
 20
4842191.3461646885
  0
LWPOLYLINE
  5
131
330
17
100
AcDbEntity
  8
ROADS
100
AcDbPolyline
 90
2
 70
0
 10
628876.389683124
 20
4842188.677873207
 10
628835.4516428505
 20
4842191.3461646885
  0
LWPOLYLINE
  5
132
330
17
100
AcDbEntity
  8
ROADS
100
AcDbPolyline
 90
2
 70
0
 10
628876.389683124
 20
4842188.677873207
 10
628884.4098340431
 20
4842212.680134553
  0
LWPOLYLINE
  5
133
330
17
100
AcDbEntity
  8
ROADS
100
AcDbPolyline
 90
2
 70
0
 10
628884.4098340431
 20
4842212.680134553
 10
628908.0407458598
 20
4842219.679774513
  0
LWPOLYLINE
  5
134
330
17
100
AcDbEntity
  8
ROADS
100
AcDbPolyline
 90
2
 70
0
 10
628821.8505586373
 20
4842233.183821489
 10
628884.4098340431
 20
4842212.680134553
  0
LWPOLYLINE
  5
135
330
17
100
AcDbEntity
  8
ROADS
100
AcDbPolyline
 90
2
 70
0
 10
628908.0407458598
 20
4842219.679774513
 10
628967.6779853951
 20
4842247.239941956
  0
LWPOLYLINE
  5
136
330
17
100
AcDbEntity
  8
ROADS
100
AcDbPolyline
 90
3
 70
0
 10
628967.6779853951
 20
4842247.239941956
 10
629014.4533913321
 20
4842217.7754874425
 10
629120.8161750729
 20
4842251.06268806
  0
LWPOLYLINE
  5
137
330
17
100
AcDbEntity
  8
ROADS
100
AcDbPolyline
 90
2
 70
0
 10
629415.1781229196
 20
4842148.194537904
 10
629395.1216299188
 20
4842218.0367812645
  0
LWPOLYLINE
  5
138
330
17
100
AcDbEntity
  8
ROADS
100
AcDbPolyline
 90
2
 70
0
 10
629395.1216299188
 20
4842218.0367812645
 10
629458.7960685197
 20
4842238.252996839
  0
LWPOLYLINE
  5
139
330
17
100
AcDbEntity
  8
ROADS
100
AcDbPolyline
 90
2
 70
0
 10
629361.330901863
 20
4842325.30860987
 10
629507.0714082409
 20
4842370.029718201
  0
LWPOLYLINE
  5
13A
330
17
100
AcDbEntity
  8
ROADS
100
AcDbPolyline
 90
2
 70
0
 10
629327.9223337574
 20
4842431.908287851
 10
629531.0454373823
 20
4842496.072951775
  0
LWPOLYLINE
  5
13B
330
17
100
AcDbEntity
  8
ROADS
100
AcDbPolyline
 90
2
 70
0
 10
629360.2046071017
 20
4842559.870337724
 10
629543.1765473596
 20
4842616.9536999455
  0
LWPOLYLINE
  5
13C
330
17
100
AcDbEntity
  8
ROADS
100
AcDbPolyline
 90
2
 70
0
 10
629222.8965920906
 20
4842282.090252476
 10
629199.5932402145
 20
4842356.504582949
  0
LWPOLYLINE
  5
13D
330
17
100
AcDbEntity
  8
ROADS
100
AcDbPolyline
 90
3
 70
0
 10
629087.0125254813
 20
4842345.346310199
 10
629137.2851515227
 20
4842337.70963638
 10
629199.5932402145
 20
4842356.504582949
  0
LWPOLYLINE
  5
13E
330
17
100
AcDbEntity
  8
ROADS
100
AcDbPolyline
 90
2
 70
0
 10
629361.330901863
 20
4842325.30860987
 10
629327.9223337574
 20
4842431.908287851
  0
LWPOLYLINE
  5
13F
330
17
100
AcDbEntity
  8
ROADS
100
AcDbPolyline
 90
3
 70
0
 10
629199.5932402145
 20
4842356.504582949
 10
629277.1344049873
 20
4842387.01203087
 10
629327.9223337574
 20
4842431.908287851
  0
LWPOLYLINE
  5
140
330
17
100
AcDbEntity
  8
ROADS
100
AcDbPolyline
 90
2
 70
0
 10
629199.5932402145
 20
4842356.504582949
 10
629164.0421571976
 20
4842463.6774690375
  0
LWPOLYLINE
  5
141
330
17
100
AcDbEntity
  8
ROADS
100
AcDbPolyline
 90
4
 70
0
 10
629042.3798451218
 20
4842496.610784567
 10
629060.1283786775
 20
4842468.745120426
 10
629097.828035346
 20
4842450.285177828
 10
629164.0421571976
 20
4842463.6774690375
  0
LWPOLYLINE
  5
142
330
17
100
AcDbEntity
  8
ROADS
100
AcDbPolyline
 90
3
 70
0
 10
629327.9223337574
 20
4842431.908287851
 10
629357.0155913869
 20
4842500.849566428
 10
629360.2046071017
 20
4842559.870337724
  0
LWPOLYLINE
  5
143
330
17
100
AcDbEntity
  8
ROADS
100
AcDbPolyline
 90
3
 70
0
 10
629164.0421571976
 20
4842463.6774690375
 10
629240.9257422924
 20
4842504.103715235
 10
629249.3584780301
 20
4842563.988430702
  0
LWPOLYLINE
  5
144
330
17
100
AcDbEntity
  8
ROADS
100
AcDbPolyline
 90
2
 70
0
 10
629164.0421571976
 20
4842463.6774690375
 10
629121.5852746242
 20
4842600.813382671
  0
LWPOLYLINE
  5
145
330
17
100
AcDbEntity
  8
ROADS
100
AcDbPolyline
 90
2
 70
0
 10
629360.2046071017
 20
4842559.870337724
 10
629349.003647821
 20
4842596.347117723
  0
LWPOLYLINE
  5
146
330
17
100
AcDbEntity
  8
ROADS
100
AcDbPolyline
 90
3
 70
0
 10
628810.7953311626
 20
4842247.521706235
 10
628819.3265137541
 20
4842300.58766246
 10
628871.1401661725
 20
4842330.857426718
  0
LWPOLYLINE
  5
147
330
17
100
AcDbEntity
  8
ROADS
100
AcDbPolyline
 90
3
 70
0
 10
628967.6779853951
 20
4842247.239941956
 10
628988.0930000988
 20
4842297.98384076
 10
628982.0880766761
 20
4842363.046558644
  0
LWPOLYLINE
  5
148
330
17
100
AcDbEntity
  8
ROADS
100
AcDbPolyline
 90
2
 70
0
 10
628871.1401661725
 20
4842330.857426718
 10
628982.0880766761
 20
4842363.046558644
  0
LWPOLYLINE
  5
149
330
17
100
AcDbEntity
  8
ROADS
100
AcDbPolyline
 90
3
 70
0
 10
628982.0880766761
 20
4842363.046558644
 10
629044.1640824662
 20
4842376.262923499
 10
629087.0125254813
 20
4842345.346310199
  0
LWPOLYLINE
  5
14A
330
17
100
AcDbEntity
  8
ROADS
100
AcDbPolyline
 90
2
 70
0
 10
628871.1401661725
 20
4842330.857426718
 10
628819.7469375259
 20
4842428.367842581
  0
LWPOLYLINE
  5
14B
330
17
100
AcDbEntity
  8
ROADS
100
AcDbPolyline
 90
2
 70
0
 10
628982.0880766761
 20
4842363.046558644
 10
628938.6911430812
 20
4842464.713004058
  0
LWPOLYLINE
  5
14C
330
17
100
AcDbEntity
  8
ROADS
100
AcDbPolyline
 90
2
 70
0
 10
628819.7469375259
 20
4842428.367842581
 10
628938.6911430812
 20
4842464.713004058
  0
LWPOLYLINE
  5
14D
330
17
100
AcDbEntity
  8
ROADS
100
AcDbPolyline
 90
2
 70
0
 10
628938.6911430812
 20
4842464.713004058
 10
629042.3798451218
 20
4842496.610784567
  0
LWPOLYLINE
  5
14E
330
17
100
AcDbEntity
  8
ROADS
100
AcDbPolyline
 90
3
 70
0
 10
629121.5852746242
 20
4842600.813382671
 10
629052.3991028547
 20
4842562.660596665
 10
629042.3798451218
 20
4842496.610784567
  0
LWPOLYLINE
  5
14F
330
17
100
AcDbEntity
  8
ROADS
100
AcDbPolyline
 90
4
 70
0
 10
628938.6911430812
 20
4842464.713004058
 10
628929.6973154019
 20
4842505.999011536
 10
628948.2014996136
 20
4842574.570539979
 10
628924.574882235
 20
4842655.515379535
  0
LWPOLYLINE
  5
150
330
17
100
AcDbEntity
  8
ROADS
100
AcDbPolyline
 90
2
 70
0
 10
629249.3584780301
 20
4842563.988430702
 10
629349.003647821
 20
4842596.347117723
  0
LWPOLYLINE
  5
151
330
17
100
AcDbEntity
  8
ROADS
100
AcDbPolyline
 90
3
 70
0
 10
629249.3584780301
 20
4842563.988430702
 10
629196.4889166149
 20
4842611.8338145465
 10
629121.5852746242
 20
4842600.813382671
  0
LWPOLYLINE
  5
152
330
17
100
AcDbEntity
  8
ROADS
100
AcDbPolyline
 90
2
 70
0
 10
629349.003647821
 20
4842596.347117723
 10
629317.6040555675
 20
4842661.623293605
  0
LWPOLYLINE
  5
153
330
17
100
AcDbEntity
  8
ROADS
100
AcDbPolyline
 90
2
 70
0
 10
629121.5852746242
 20
4842600.813382671
 10
629089.6530940776
 20
4842705.625558612
  0
LWPOLYLINE
  5
154
330
17
100
AcDbEntity
  8
ROADS
100
AcDbPolyline
 90
3
 70
0
 10
629317.6040555675
 20
4842661.623293605
 10
629264.1765159237
 20
4842703.552168424
 10
629181.846184613
 20
4842734.863182345
  0
LWPOLYLINE
  5
155
330
17
100
AcDbEntity
  8
ROADS
100
AcDbPolyline
 90
2
 70
0
 10
629089.6530940776
 20
4842705.625558612
 10
629157.3961775368
 20
4842728.528220792
  0
LWPOLYLINE
  5
156
330
17
100
AcDbEntity
  8
ROADS
100
AcDbPolyline
 90
2
 70
0
 10
629157.3961775368
 20
4842728.528220792
 10
629181.846184613
 20
4842734.863182345
  0
LWPOLYLINE
  5
157
330
17
100
AcDbEntity
  8
ROADS
100
AcDbPolyline
 90
2
 70
0
 10
629181.846184613
 20
4842734.863182345
 10
629257.3140413894
 20
4842758.747737729
  0
LWPOLYLINE
  5
158
330
17
100
AcDbEntity
  8
ROADS
100
AcDbPolyline
 90
2
 70
0
 10
629257.3140413894
 20
4842758.747737729
 10
629356.0598452627
 20
4842789.962126761
  0
LWPOLYLINE
  5
159
330
17
100
AcDbEntity
  8
ROADS
100
AcDbPolyline
 90
3
 70
0
 10
629157.3961775368
 20
4842728.528220792
 10
629136.3035614158
 20
4842802.131465651
 10
629084.1309705972
 20
4842865.560469186
  0
LWPOLYLINE
  5
15A
330
17
100
AcDbEntity
  8
ROADS
100
AcDbPolyline
 90
2
 70
0
 10
628810.5559764057
 20
4842618.289235898
 10
628868.0440353528
 20
4842637.339996411
  0
LWPOLYLINE
  5
15B
330
17
100
AcDbEntity
  8
ROADS
100
AcDbPolyline
 90
2
 70
0
 10
628868.0440353528
 20
4842637.339996411
 10
628924.574882235
 20
4842655.515379535
  0
LWPOLYLINE
  5
15C
330
17
100
AcDbEntity
  8
ROADS
100
AcDbPolyline
 90
2
 70
0
 10
628924.574882235
 20
4842655.515379535
 10
628960.6280268871
 20
4842668.183766509
  0
LWPOLYLINE
  5
15D
330
17
100
AcDbEntity
  8
ROADS
100
AcDbPolyline
 90
2
 70
0
 10
628960.6280268871
 20
4842668.183766509
 10
629063.7969567387
 20
4842698.685109803
  0
LWPOLYLINE
  5
15E
330
17
100
AcDbEntity
  8
ROADS
100
AcDbPolyline
 90
2
 70
0
 10
629063.7969567387
 20
4842698.685109803
 10
629089.6530940776
 20
4842705.625558612
  0
LWPOLYLINE
  5
15F
330
17
100
AcDbEntity
  8
ROADS
100
AcDbPolyline
 90
2
 70
0
 10
628868.0440353528
 20
4842637.339996411
 10
628819.2218044094
 20
4842782.3150842395
  0
LWPOLYLINE
  5
160
330
17
100
AcDbEntity
  8
ROADS
100
AcDbPolyline
 90
2
 70
0
 10
628960.6280268871
 20
4842668.183766509
 10
628919.5778988675
 20
4842814.506653256
  0
LWPOLYLINE
  5
161
330
17
100
AcDbEntity
  8
ROADS
100
AcDbPolyline
 90
2
 70
0
 10
629063.7969567387
 20
4842698.685109803
 10
629016.8586775067
 20
4842844.661440782
  0
LWPOLYLINE
  5
162
330
17
100
AcDbEntity
  8
ROADS
100
AcDbPolyline
 90
2
 70
0
 10
628819.2218044094
 20
4842782.3150842395
 10
628919.5778988675
 20
4842814.506653256
  0
LWPOLYLINE
  5
163
330
17
100
AcDbEntity
  8
ROADS
100
AcDbPolyline
 90
2
 70
0
 10
628919.5778988675
 20
4842814.506653256
 10
628961.0039957993
 20
4842828.081367054
  0
LWPOLYLINE
  5
164
330
17
100
AcDbEntity
  8
ROADS
100
AcDbPolyline
 90
2
 70
0
 10
629317.6040555675
 20
4842661.623293605
 10
629544.0235941121
 20
4842733.653658474
  0
LWPOLYLINE
  5
165
330
17
100
AcDbEntity
  8
ROADS
100
AcDbPolyline
 90
2
 70
0
 10
629510.3280509621
 20
4842837.0585667975
 10
629547.2599437427
 20
4842781.662556468
  0
LWPOLYLINE
  5
166
330
17
100
AcDbEntity
  8
ROADS
100
AcDbPolyline
 90
2
 70
0
 10
629356.0598452627
 20
4842789.962126761
 10
629510.3280509621
 20
4842837.0585667975
  0
LWPOLYLINE
  5
167
330
17
100
AcDbEntity
  8
ROADS
100
AcDbPolyline
 90
2
 70
0
 10
629499.2040806236
 20
4842871.379598905
 10
629510.3280509621
 20
4842837.0585667975
  0
LWPOLYLINE
  5
168
330
17
100
AcDbEntity
  8
ROADS
100
AcDbPolyline
 90
2
 70
0
 10
629510.3280509621
 20
4842837.0585667975
 10
629547.8273385898
 20
4842849.04701869
  0
LWPOLYLINE
  5
169
330
17
100
AcDbEntity
  8
ROADS
100
AcDbPolyline
 90
3
 70
0
 10
629388.6432316635
 20
4842948.574782724
 10
629448.6738476427
 20
4842925.785765553
 10
629499.2040806236
 20
4842871.379598905
  0
LWPOLYLINE
  5
16A
330
17
100
AcDbEntity
  8
ROADS
100
AcDbPolyline
 90
3
 70
0
 10
629537.8995233914
 20
4842949.218415233
 10
629518.6468894865
 20
4842931.188647105
 10
629499.2040806236
 20
4842871.379598905
  0
LWPOLYLINE
  5
16B
330
17
100
AcDbEntity
  8
ROADS
100
AcDbPolyline
 90
2
 70
0
 10
628961.0039957993
 20
4842828.081367054
 10
629016.8586775067
 20
4842844.661440782
  0
LWPOLYLINE
  5
16C
330
17
100
AcDbEntity
  8
ROADS
100
AcDbPolyline
 90
2
 70
0
 10
628961.0039957993
 20
4842828.081367054
 10
628945.1570653472
 20
4842877.521878783
  0
LWPOLYLINE
  5
16D
330
17
100
AcDbEntity
  8
ROADS
100
AcDbPolyline
 90
2
 70
0
 10
629016.8586775067
 20
4842844.661440782
 10
629084.1309705972
 20
4842865.560469186
  0
LWPOLYLINE
  5
16E
330
17
100
AcDbEntity
  8
ROADS
100
AcDbPolyline
 90
2
 70
0
 10
629084.1309705972
 20
4842865.560469186
 10
629048.3513556368
 20
4842981.703738839
  0
LWPOLYLINE
  5
16F
330
17
100
AcDbEntity
  8
ROADS
100
AcDbPolyline
 90
2
 70
0
 10
628853.5123429138
 20
4842923.243198114
 10
628888.3390413919
 20
4842933.831272708
  0
LWPOLYLINE
  5
170
330
17
100
AcDbEntity
  8
ROADS
100
AcDbPolyline
 90
2
 70
0
 10
628853.5123429138
 20
4842923.243198114
 10
628850.5912319646
 20
4842946.663899953
  0
LWPOLYLINE
  5
171
330
17
100
AcDbEntity
  8
ROADS
100
AcDbPolyline
 90
2
 70
0
 10
628888.3390413919
 20
4842933.831272708
 10
628877.8327184868
 20
4842954.583504548
  0
LWPOLYLINE
  5
172
330
17
100
AcDbEntity
  8
ROADS
100
AcDbPolyline
 90
2
 70
0
 10
628850.5912319646
 20
4842946.663899953
 10
628877.8327184868
 20
4842954.583504548
  0
LWPOLYLINE
  5
173
330
17
100
AcDbEntity
  8
ROADS
100
AcDbPolyline
 90
2
 70
0
 10
628888.3390413919
 20
4842933.831272708
 10
629048.3513556368
 20
4842981.703738839
  0
LWPOLYLINE
  5
174
330
17
100
AcDbEntity
  8
ROADS
100
AcDbPolyline
 90
4
 70
0
 10
628850.5912319646
 20
4842946.663899953
 10
628835.820845552
 20
4842976.464556759
 10
628853.0223952448
 20
4842987.768666606
 10
628877.8327184868
 20
4842954.583504548
  0
LWPOLYLINE
  5
175
330
17
100
AcDbEntity
  8
ROADS
100
AcDbPolyline
 90
2
 70
0
 10
629257.3140413894
 20
4842758.747737729
 10
629211.9040741303
 20
4842906.753946047
  0
LWPOLYLINE
  5
176
330
17
100
AcDbEntity
  8
ROADS
100
AcDbPolyline
 90
2
 70
0
 10
629356.0598452627
 20
4842789.962126761
 10
629309.3032555307
 20
4842937.056938428
  0
LWPOLYLINE
  5
177
330
17
100
AcDbEntity
  8
ROADS
100
AcDbPolyline
 90
2
 70
0
 10
629084.1309705972
 20
4842865.560469186
 10
629211.9040741303
 20
4842906.753946047
  0
LWPOLYLINE
  5
178
330
17
100
AcDbEntity
  8
ROADS
100
AcDbPolyline
 90
2
 70
0
 10
629211.9040741303
 20
4842906.753946047
 10
629309.3032555307
 20
4842937.056938428
  0
LWPOLYLINE
  5
179
330
17
100
AcDbEntity
  8
ROADS
100
AcDbPolyline
 90
2
 70
0
 10
629309.3032555307
 20
4842937.056938428
 10
629388.6432316635
 20
4842948.574782724
  0
LWPOLYLINE
  5
17A
330
17
100
AcDbEntity
  8
ROADS
100
AcDbPolyline
 90
2
 70
0
 10
629388.6432316635
 20
4842948.574782724
 10
629389.169129957
 20
4842972.946978299
  0
LWPOLYLINE
  5
17B
330
17
100
AcDbEntity
  8
ROADS
100
AcDbPolyline
 90
2
 70
0
 10
629309.3032555307
 20
4842937.056938428
 10
629273.9561658779
 20
4843049.523856182
  0
LWPOLYLINE
  5
17C
330
17
100
AcDbEntity
  8
ROADS
100
AcDbPolyline
 90
2
 70
0
 10
629048.3513556368
 20
4842981.703738839
 10
629273.9561658779
 20
4843049.523856182
  0
LWPOLYLINE
  5
17D
330
17
100
AcDbEntity
  8
ROADS
100
AcDbPolyline
 90
2
 70
0
 10
629389.169129957
 20
4842972.946978299
 10
629367.7388402376
 20
4843066.913547476
  0
LWPOLYLINE
  5
17E
330
17
100
AcDbEntity
  8
ROADS
100
AcDbPolyline
 90
2
 70
0
 10
629321.4768156218
 20
4843053.09323982
 10
629367.7388402376
 20
4843066.913547476
  0
LWPOLYLINE
  5
17F
330
17
100
AcDbEntity
  8
ROADS
100
AcDbPolyline
 90
3
 70
0
 10
629389.169129957
 20
4842972.946978299
 10
629507.0412719828
 20
4843010.95710206
 10
629469.6027064106
 20
4843052.281309993
  0
LWPOLYLINE
  5
180
330
17
100
AcDbEntity
  8
ROADS
100
AcDbPolyline
 90
2
 70
0
 10
629367.7388402376
 20
4843066.913547476
 10
629501.4758988415
 20
4843109.297166887
  0
LWPOLYLINE
  5
181
330
17
100
AcDbEntity
  8
ROADS
100
AcDbPolyline
 90
2
 70
0
 10
629501.4758988415
 20
4843109.297166887
 10
629503.269437477
 20
4843109.855492685
  0
LWPOLYLINE
  5
182
330
17
100
AcDbEntity
  8
ROADS
100
AcDbPolyline
 90
2
 70
0
 10
629501.4758988415
 20
4843109.297166887
 10
629473.6185178881
 20
4843190.717611332
  0
LWPOLYLINE
  5
183
330
17
100
AcDbEntity
  8
ROADS
100
AcDbPolyline
 90
2
 70
0
 10
629048.3513556368
 20
4842981.703738839
 10
629015.6554211288
 20
4843088.261151537
  0
LWPOLYLINE
  5
184
330
17
100
AcDbEntity
  8
ROADS
100
AcDbPolyline
 90
2
 70
0
 10
628824.2283530927
 20
4843030.039327342
 10
629015.6554211288
 20
4843088.261151537
  0
LWPOLYLINE
  5
185
330
17
100
AcDbEntity
  8
ROADS
100
AcDbPolyline
 90
2
 70
0
 10
629015.6554211288
 20
4843088.261151537
 10
628988.473212169
 20
4843179.991344039
  0
LWPOLYLINE
  5
186
330
17
100
AcDbEntity
  8
ROADS
100
AcDbPolyline
 90
2
 70
0
 10
628795.4035825793
 20
4843121.022690487
 10
628988.473212169
 20
4843179.991344039
  0
LWPOLYLINE
  5
187
330
17
100
AcDbEntity
  8
ROADS
100
AcDbPolyline
 90
2
 70
0
 10
628988.473212169
 20
4843179.991344039
 10
628960.608180505
 20
4843271.763165158
  0
LWPOLYLINE
  5
188
330
17
100
AcDbEntity
  8
ROADS
100
AcDbPolyline
 90
2
 70
0
 10
628767.337255948
 20
4843212.590806039
 10
628960.608180505
 20
4843271.763165158
  0
LWPOLYLINE
  5
189
330
17
100
AcDbEntity
  8
ROADS
100
AcDbPolyline
 90
2
 70
0
 10
628960.608180505
 20
4843271.763165158
 10
629186.4369710565
 20
4843340.407571824
  0
LWPOLYLINE
  5
18A
330
17
100
AcDbEntity
  8
ROADS
100
AcDbPolyline
 90
2
 70
0
 10
628960.608180505
 20
4843271.763165158
 10
628933.3056270934
 20
4843363.4541475605
  0
LWPOLYLINE
  5
18B
330
17
100
AcDbEntity
  8
ROADS
100
AcDbPolyline
 90
2
 70
0
 10
628742.2860736742
 20
4843304.768524888
 10
628933.3056270934
 20
4843363.4541475605
  0
LWPOLYLINE
  5
18C
330
17
100
AcDbEntity
  8
ROADS
100
AcDbPolyline
 90
2
 70
0
 10
628933.3056270934
 20
4843363.4541475605
 10
629157.3725490392
 20
4843433.242796391
  0
LWPOLYLINE
  5
18D
330
17
100
AcDbEntity
  8
ROADS
100
AcDbPolyline
 90
2
 70
0
 10
629273.9561658779
 20
4843049.523856182
 10
629241.7462433737
 20
4843155.859116405
  0
LWPOLYLINE
  5
18E
330
17
100
AcDbEntity
  8
ROADS
100
AcDbPolyline
 90
2
 70
0
 10
629367.7388402376
 20
4843066.913547476
 10
629345.9991110837
 20
4843161.509547278
  0
LWPOLYLINE
  5
18F
330
17
100
AcDbEntity
  8
ROADS
100
AcDbPolyline
 90
2
 70
0
 10
629015.6554211288
 20
4843088.261151537
 10
629241.7462433737
 20
4843155.859116405
  0
LWPOLYLINE
  5
190
330
17
100
AcDbEntity
  8
ROADS
100
AcDbPolyline
 90
2
 70
0
 10
629299.5405215637
 20
4843146.9466185365
 10
629345.9991110837
 20
4843161.509547278
  0
LWPOLYLINE
  5
191
330
17
100
AcDbEntity
  8
ROADS
100
AcDbPolyline
 90
2
 70
0
 10
629345.9991110837
 20
4843161.509547278
 10
629333.9847998103
 20
4843209.048343891
  0
LWPOLYLINE
  5
192
330
17
100
AcDbEntity
  8
ROADS
100
AcDbPolyline
 90
2
 70
0
 10
629241.7462433737
 20
4843155.859116405
 10
629214.1858032198
 20
4843248.7035954865
  0
LWPOLYLINE
  5
193
330
17
100
AcDbEntity
  8
ROADS
100
AcDbPolyline
 90
2
 70
0
 10
628988.473212169
 20
4843179.991344039
 10
629214.1858032198
 20
4843248.7035954865
  0
LWPOLYLINE
  5
194
330
17
100
AcDbEntity
  8
ROADS
100
AcDbPolyline
 90
2
 70
0
 10
629214.1858032198
 20
4843248.7035954865
 10
629441.7205471325
 20
4843321.289186968
  0
LWPOLYLINE
  5
195
330
17
100
AcDbEntity
  8
ROADS
100
AcDbPolyline
 90
2
 70
0
 10
629214.1858032198
 20
4843248.7035954865
 10
629186.4369710565
 20
4843340.407571824
  0
LWPOLYLINE
  5
196
330
17
100
AcDbEntity
  8
ROADS
100
AcDbPolyline
 90
2
 70
0
 10
629186.4369710565
 20
4843340.407571824
 10
629397.0545287315
 20
4843404.208390592
  0
LWPOLYLINE
  5
197
330
17
100
AcDbEntity
  8
ROADS
100
AcDbPolyline
 90
2
 70
0
 10
628742.2860736742
 20
4843304.768524888
 10
628712.7798199839
 20
4843399.031726822
  0
LWPOLYLINE
  5
198
330
17
100
AcDbEntity
  8
ROADS
100
AcDbPolyline
 90
2
 70
0
 10
628532.5342978506
 20
4843344.755435527
 10
628712.7798199839
 20
4843399.031726822
  0
LWPOLYLINE
  5
199
330
17
100
AcDbEntity
  8
ROADS
100
AcDbPolyline
 90
2
 70
0
 10
628712.7798199839
 20
4843399.031726822
 10
628904.794762285
 20
4843455.543269997
  0
LWPOLYLINE
  5
19A
330
17
100
AcDbEntity
  8
ROADS
100
AcDbPolyline
 90
2
 70
0
 10
628712.7798199839
 20
4843399.031726822
 10
628679.3336294635
 20
4843510.787760271
  0
LWPOLYLINE
  5
19B
330
17
100
AcDbEntity
  8
ROADS
100
AcDbPolyline
 90
2
 70
0
 10
628509.55337783
 20
4843457.254900892
 10
628679.3336294635
 20
4843510.787760271
  0
LWPOLYLINE
  5
19C
330
17
100
AcDbEntity
  8
ROADS
100
AcDbPolyline
 90
2
 70
0
 10
628679.3336294635
 20
4843510.787760271
 10
628872.63469756
 20
4843570.8858849015
  0
LWPOLYLINE
  5
19D
330
17
100
AcDbEntity
  8
ROADS
100
AcDbPolyline
 90
2
 70
0
 10
628679.3336294635
 20
4843510.787760271
 10
628658.9598681445
 20
4843582.460237809
  0
LWPOLYLINE
  5
19E
330
17
100
AcDbEntity
  8
ROADS
100
AcDbPolyline
 90
2
 70
0
 10
628594.6367525177
 20
4843560.574910367
 10
628658.9598681445
 20
4843582.460237809
  0
LWPOLYLINE
  5
19F
330
17
100
AcDbEntity
  8
ROADS
100
AcDbPolyline
 90
2
 70
0
 10
628658.9598681445
 20
4843582.460237809
 10
628648.0037777646
 20
4843614.686558619
  0
LWPOLYLINE
  5
1A0
330
17
100
AcDbEntity
  8
ROADS
100
AcDbPolyline
 90
2
 70
0
 10
628658.9598681445
 20
4843582.460237809
 10
628855.7724568654
 20
4843641.878420555
  0
LWPOLYLINE
  5
1A1
330
17
100
AcDbEntity
  8
ROADS
100
AcDbPolyline
 90
2
 70
0
 10
628495.3341315521
 20
4843530.690369479
 10
628490.5461492204
 20
4843559.01157214
  0
LWPOLYLINE
  5
1A2
330
17
100
AcDbEntity
  8
ROADS
100
AcDbPolyline
 90
2
 70
0
 10
628495.3341315521
 20
4843530.690369479
 10
628594.6367525177
 20
4843560.574910367
  0
LWPOLYLINE
  5
1A3
330
17
100
AcDbEntity
  8
ROADS
100
AcDbPolyline
 90
2
 70
0
 10
628490.5461492204
 20
4843559.01157214
 10
628438.9390049322
 20
4843543.418356998
  0
LWPOLYLINE
  5
1A4
330
17
100
AcDbEntity
  8
ROADS
100
AcDbPolyline
 90
2
 70
0
 10
628438.9390049322
 20
4843543.418356998
 10
628456.5491152229
 20
4843568.556792744
  0
LWPOLYLINE
  5
1A5
330
17
100
AcDbEntity
  8
ROADS
100
AcDbPolyline
 90
2
 70
0
 10
628490.5461492204
 20
4843559.01157214
 10
628456.5491152229
 20
4843568.556792744
  0
LWPOLYLINE
  5
1A6
330
17
100
AcDbEntity
  8
ROADS
100
AcDbPolyline
 90
2
 70
0
 10
628456.5491152229
 20
4843568.556792744
 10
628467.1728458093
 20
4843579.272310631
  0
LWPOLYLINE
  5
1A7
330
17
100
AcDbEntity
  8
ROADS
100
AcDbPolyline
 90
2
 70
0
 10
628490.5461492204
 20
4843559.01157214
 10
628481.6460370868
 20
4843608.261720563
  0
LWPOLYLINE
  5
1A8
330
17
100
AcDbEntity
  8
ROADS
100
AcDbPolyline
 90
2
 70
0
 10
628467.1728458093
 20
4843579.272310631
 10
628438.000138741
 20
4843599.037032843
  0
LWPOLYLINE
  5
1A9
330
17
100
AcDbEntity
  8
ROADS
100
AcDbPolyline
 90
2
 70
0
 10
628467.1728458093
 20
4843579.272310631
 10
628481.6460370868
 20
4843608.261720563
  0
LWPOLYLINE
  5
1AA
330
17
100
AcDbEntity
  8
ROADS
100
AcDbPolyline
 90
2
 70
0
 10
628481.6460370868
 20
4843608.261720563
 10
628438.000138741
 20
4843599.037032843
  0
LWPOLYLINE
  5
1AB
330
17
100
AcDbEntity
  8
ROADS
100
AcDbPolyline
 90
2
 70
0
 10
628155.6645031031
 20
4843554.131267212
 10
628057.8202774471
 20
4843523.519117397
  0
LWPOLYLINE
  5
1AC
330
17
100
AcDbEntity
  8
ROADS
100
AcDbPolyline
 90
3
 70
0
 10
628343.3267318368
 20
4843626.06003144
 10
628337.6075003147
 20
4843610.418473703
 10
628155.6645031031
 20
4843554.131267212
  0
LWPOLYLINE
  5
1AD
330
17
100
AcDbEntity
  8
ROADS
100
AcDbPolyline
 90
2
 70
0
 10
628057.8202774471
 20
4843523.519117397
 10
628021.2305164558
 20
4843697.775063319
  0
LWPOLYLINE
  5
1AE
330
17
100
AcDbEntity
  8
ROADS
100
AcDbPolyline
 90
2
 70
0
 10
628155.6645031031
 20
4843554.131267212
 10
628124.6292752287
 20
4843731.746029856
  0
LWPOLYLINE
  5
1AF
330
17
100
AcDbEntity
  8
ROADS
100
AcDbPolyline
 90
2
 70
0
 10
628256.8227496744
 20
4843658.062224657
 10
628139.9602328419
 20
4843737.161909713
  0
LWPOLYLINE
  5
1B0
330
17
100
AcDbEntity
  8
ROADS
100
AcDbPolyline
 90
2
 70
0
 10
628124.6292752287
 20
4843731.746029856
 10
628021.2305164558
 20
4843697.775063319
  0
LWPOLYLINE
  5
1B1
330
17
100
AcDbEntity
  8
ROADS
100
AcDbPolyline
 90
2
 70
0
 10
628139.9602328419
 20
4843737.161909713
 10
628124.6292752287
 20
4843731.746029856
  0
LWPOLYLINE
  5
1B2
330
17
100
AcDbEntity
  8
ROADS
100
AcDbPolyline
 90
2
 70
0
 10
628222.2823578834
 20
4843764.298912989
 10
628139.9602328419
 20
4843737.161909713
  0
LWPOLYLINE
  5
1B3
330
17
100
AcDbEntity
  8
ROADS
100
AcDbPolyline
 90
2
 70
0
 10
628139.9602328419
 20
4843737.161909713
 10
628046.3166145508
 20
4843852.36820484
  0
LWPOLYLINE
  5
1B4
330
17
100
AcDbEntity
  8
ROADS
100
AcDbPolyline
 90
2
 70
0
 10
628046.3166145508
 20
4843852.36820484
 10
627966.233030266
 20
4843782.013924566
  0
LWPOLYLINE
  5
1B5
330
17
100
AcDbEntity
  8
ROADS
100
AcDbPolyline
 90
2
 70
0
 10
628438.000138741
 20
4843599.037032843
 10
628343.3267318368
 20
4843626.06003144
  0
LWPOLYLINE
  5
1B6
330
17
100
AcDbEntity
  8
ROADS
100
AcDbPolyline
 90
2
 70
0
 10
628343.3267318368
 20
4843626.06003144
 10
628256.8227496744
 20
4843658.062224657
  0
LWPOLYLINE
  5
1B7
330
17
100
AcDbEntity
  8
ROADS
100
AcDbPolyline
 90
2
 70
0
 10
628481.6460370868
 20
4843608.261720563
 10
628457.7508769239
 20
4843740.10088022
  0
LWPOLYLINE
  5
1B8
330
17
100
AcDbEntity
  8
ROADS
100
AcDbPolyline
 90
3
 70
0
 10
628457.7508769239
 20
4843740.10088022
 10
628266.5658089069
 20
4843680.909091677
 10
628256.8227496744
 20
4843658.062224657
  0
LWPOLYLINE
  5
1B9
330
17
100
AcDbEntity
  8
ROADS
100
AcDbPolyline
 90
2
 70
0
 10
628457.7508769239
 20
4843740.10088022
 10
628449.5315304963
 20
4843789.088825764
  0
LWPOLYLINE
  5
1BA
330
17
100
AcDbEntity
  8
ROADS
100
AcDbPolyline
 90
2
 70
0
 10
628564.236132563
 20
4843736.222762243
 10
628533.7938463772
 20
4843798.770330767
  0
LWPOLYLINE
  5
1BB
330
17
100
AcDbEntity
  8
ROADS
100
AcDbPolyline
 90
2
 70
0
 10
628449.5315304963
 20
4843789.088825764
 10
628466.6416577047
 20
4843807.042249509
  0
LWPOLYLINE
  5
1BC
330
17
100
AcDbEntity
  8
ROADS
100
AcDbPolyline
 90
2
 70
0
 10
628490.1158137243
 20
4843835.292062277
 10
628466.6416577047
 20
4843807.042249509
  0
LWPOLYLINE
  5
1BD
330
17
100
AcDbEntity
  8
ROADS
100
AcDbPolyline
 90
2
 70
0
 10
628466.6416577047
 20
4843807.042249509
 10
628559.541535615
 20
4843864.34178286
  0
LWPOLYLINE
  5
1BE
330
17
100
AcDbEntity
  8
ROADS
100
AcDbPolyline
 90
2
 70
0
 10
628449.5315304963
 20
4843789.088825764
 10
628430.7440367334
 20
4843896.324301149
  0
LWPOLYLINE
  5
1BF
330
17
100
AcDbEntity
  8
ROADS
100
AcDbPolyline
 90
2
 70
0
 10
628594.6367525177
 20
4843560.574910367
 10
628570.7798430013
 20
4843685.164328514
  0
LWPOLYLINE
  5
1C0
330
17
100
AcDbEntity
  8
ROADS
100
AcDbPolyline
 90
3
 70
0
 10
628570.7798430013
 20
4843685.164328514
 10
628696.3449430221
 20
4843681.36708429
 10
628839.935839992
 20
4843729.798653131
  0
LWPOLYLINE
  5
1C1
330
17
100
AcDbEntity
  8
ROADS
100
AcDbPolyline
 90
2
 70
0
 10
628570.7798430013
 20
4843685.164328514
 10
628564.236132563
 20
4843736.222762243
  0
LWPOLYLINE
  5
1C2
330
17
100
AcDbEntity
  8
ROADS
100
AcDbPolyline
 90
6
 70
0
 10
628564.236132563
 20
4843736.222762243
 10
628680.7779949273
 20
4843792.065675188
 10
628821.6717723026
 20
4843803.370971037
 10
628835.3616091905
 20
4843800.171577419
 10
628851.1785087546
 20
4843746.707308912
 10
628839.935839992
 20
4843729.798653131
  0
LWPOLYLINE
  5
1C3
330
17
100
AcDbEntity
  8
ROADS
100
AcDbPolyline
 90
3
 70
0
 10
628559.541535615
 20
4843864.34178286
 10
628591.5416480585
 20
4843838.324344158
 10
628663.2671120011
 20
4843862.205360814
  0
LWPOLYLINE
  5
1C4
330
17
100
AcDbEntity
  8
ROADS
100
AcDbPolyline
 90
3
 70
0
 10
628559.541535615
 20
4843864.34178286
 10
628594.5994045039
 20
4843898.781717228
 10
628635.4678467046
 20
4844044.573264723
  0
LWPOLYLINE
  5
1C5
330
17
100
AcDbEntity
  8
ROADS
100
AcDbPolyline
 90
2
 70
0
 10
628759.23688904
 20
4843905.9906111555
 10
628718.2342253522
 20
4844064.190921286
  0
LWPOLYLINE
  5
1C6
330
17
100
AcDbEntity
  8
ROADS
100
AcDbPolyline
 90
3
 70
0
 10
628488.2918146371
 20
4843948.858557562
 10
628515.6413956423
 20
4844033.939304857
 10
628635.4678467046
 20
4844044.573264723
  0
LWPOLYLINE
  5
1C7
330
17
100
AcDbEntity
  8
ROADS
100
AcDbPolyline
 90
2
 70
0
 10
628718.2342253522
 20
4844064.190921286
 10
628750.4338585313
 20
4844068.25211475
  0
LWPOLYLINE
  5
1C8
330
17
100
AcDbEntity
  8
ROADS
100
AcDbPolyline
 90
2
 70
0
 10
628750.4338585313
 20
4844068.25211475
 10
628792.6389467552
 20
4844069.5082533285
  0
LWPOLYLINE
  5
1C9
330
17
100
AcDbEntity
  8
ROADS
100
AcDbPolyline
 90
2
 70
0
 10
628222.2823578834
 20
4843764.298912989
 10
628126.5608173786
 20
4843924.622549878
  0
LWPOLYLINE
  5
1CA
330
17
100
AcDbEntity
  8
ROADS
100
AcDbPolyline
 90
2
 70
0
 10
628126.5608173786
 20
4843924.622549878
 10
628046.3166145508
 20
4843852.36820484
  0
LWPOLYLINE
  5
1CB
330
17
100
AcDbEntity
  8
ROADS
100
AcDbPolyline
 90
2
 70
0
 10
628200.3558534948
 20
4843989.847719723
 10
628126.5608173786
 20
4843924.622549878
  0
LWPOLYLINE
  5
1CC
330
17
100
AcDbEntity
  8
ROADS
100
AcDbPolyline
 90
2
 70
0
 10
628126.5608173786
 20
4843924.622549878
 10
627968.5147392643
 20
4844095.245472416
  0
LWPOLYLINE
  5
1CD
330
17
100
AcDbEntity
  8
ROADS
100
AcDbPolyline
 90
2
 70
0
 10
628200.3558534948
 20
4843989.847719723
 10
628061.1836090804
 20
4844143.917261506
  0
LWPOLYLINE
  5
1CE
330
17
100
AcDbEntity
  8
ROADS
100
AcDbPolyline
 90
2
 70
0
 10
627968.5147392643
 20
4844095.245472416
 10
628043.7410299203
 20
4844162.722707228
  0
LWPOLYLINE
  5
1CF
330
17
100
AcDbEntity
  8
ROADS
100
AcDbPolyline
 90
2
 70
0
 10
628061.1836090804
 20
4844143.917261506
 10
628043.7410299203
 20
4844162.722707228
  0
LWPOLYLINE
  5
1D0
330
17
100
AcDbEntity
  8
ROADS
100
AcDbPolyline
 90
2
 70
0
 10
628061.1836090804
 20
4844143.917261506
 10
628136.2150940385
 20
4844184.483245932
  0
LWPOLYLINE
  5
1D1
330
17
100
AcDbEntity
  8
ROADS
100
AcDbPolyline
 90
2
 70
0
 10
628136.2150940385
 20
4844184.483245932
 10
628252.9776931208
 20
4844207.518594601
  0
LWPOLYLINE
  5
1D2
330
17
100
AcDbEntity
  8
ROADS
100
AcDbPolyline
 90
2
 70
0
 10
628136.2150940385
 20
4844184.483245932
 10
628122.0653187596
 20
4844229.659022756
  0
LWPOLYLINE
  5
1D3
330
17
100
AcDbEntity
  8
ROADS
100
AcDbPolyline
 90
3
 70
0
 10
628490.1158137243
 20
4843835.292062277
 10
628483.5654975009
 20
4843862.5742887175
 10
628469.2000649724
 20
4843857.29788572
  0
LWPOLYLINE
  5
1D4
330
17
100
AcDbEntity
  8
ROADS
100
AcDbPolyline
 90
2
 70
0
 10
628536.676519754
 20
4843878.510802197
 10
628490.1158137243
 20
4843835.292062277
  0
LWPOLYLINE
  5
1D5
330
17
100
AcDbEntity
  8
ROADS
100
AcDbPolyline
 90
4
 70
0
 10
628200.3558534948
 20
4843989.847719723
 10
628305.4121126739
 20
4843872.939897908
 10
628379.2877904129
 20
4843821.244851566
 10
628222.2823578834
 20
4843764.298912989
  0
LWPOLYLINE
  5
1D6
330
17
100
AcDbEntity
  8
ROADS
100
AcDbPolyline
 90
2
 70
0
 10
628430.7440367334
 20
4843896.324301149
 10
628488.2918146371
 20
4843948.858557562
  0
LWPOLYLINE
  5
1D7
330
17
100
AcDbEntity
  8
ROADS
100
AcDbPolyline
 90
2
 70
0
 10
628453.4484864315
 20
4843935.7129192455
 10
628488.2918146371
 20
4843948.858557562
  0
LWPOLYLINE
  5
1D8
330
17
100
AcDbEntity
  8
ROADS
100
AcDbPolyline
 90
2
 70
0
 10
628430.7440367334
 20
4843896.324301149
 10
628361.1851833919
 20
4844272.510839155
  0
LWPOLYLINE
  5
1D9
330
17
100
AcDbEntity
  8
ROADS
100
AcDbPolyline
 90
5
 70
0
 10
628430.8298862039
 20
4844291.505940555
 10
628459.443633489
 20
4844245.280909683
 10
628517.0857026821
 20
4844199.696435578
 10
628560.5234436084
 20
4844196.7766286675
 10
628620.3128472054
 20
4844224.702900983
  0
LWPOLYLINE
  5
1DA
330
17
100
AcDbEntity
  8
ROADS
100
AcDbPolyline
 90
2
 70
0
 10
628430.8298862039
 20
4844291.505940555
 10
628442.1813924366
 20
4844227.500221187
  0
LWPOLYLINE
  5
1DB
330
17
100
AcDbEntity
  8
ROADS
100
AcDbPolyline
 90
2
 70
0
 10
628361.1851833919
 20
4844272.510839155
 10
628430.8298862039
 20
4844291.505940555
  0
LWPOLYLINE
  5
1DC
330
17
100
AcDbEntity
  8
ROADS
100
AcDbPolyline
 90
3
 70
0
 10
628492.7150775411
 20
4844307.62938049
 10
628507.7940935745
 20
4844287.191018436
 10
628511.1558513639
 20
4844309.587363727
  0
LWPOLYLINE
  5
1DD
330
17
100
AcDbEntity
  8
ROADS
100
AcDbPolyline
 90
2
 70
0
 10
628792.6389467552
 20
4844069.5082533285
 10
628849.1052803735
 20
4844069.97551574
  0
LWPOLYLINE
  5
1DE
330
17
100
AcDbEntity
  8
ROADS
100
AcDbPolyline
 90
2
 70
0
 10
628635.4678467046
 20
4844044.573264723
 10
628690.135555656
 20
4844105.829021467
  0
LWPOLYLINE
  5
1DF
330
17
100
AcDbEntity
  8
ROADS
100
AcDbPolyline
 90
2
 70
0
 10
628718.2342253522
 20
4844064.190921286
 10
628690.135555656
 20
4844105.829021467
  0
LWPOLYLINE
  5
1E0
330
17
100
AcDbEntity
  8
ROADS
100
AcDbPolyline
 90
2
 70
0
 10
628750.4338585313
 20
4844068.25211475
 10
628784.7727659824
 20
4844108.542466569
  0
LWPOLYLINE
  5
1E1
330
17
100
AcDbEntity
  8
ROADS
100
AcDbPolyline
 90
2
 70
0
 10
628792.6389467552
 20
4844069.5082533285
 10
628784.7727659824
 20
4844108.542466569
  0
LWPOLYLINE
  5
1E2
330
17
100
AcDbEntity
  8
ROADS
100
AcDbPolyline
 90
2
 70
0
 10
628690.135555656
 20
4844105.829021467
 10
628656.1244024565
 20
4844160.507946998
  0
LWPOLYLINE
  5
1E3
330
17
100
AcDbEntity
  8
ROADS
100
AcDbPolyline
 90
2
 70
0
 10
628656.1244024565
 20
4844160.507946998
 10
628707.2250467202
 20
4844189.328981307
  0
LWPOLYLINE
  5
1E4
330
17
100
AcDbEntity
  8
ROADS
100
AcDbPolyline
 90
2
 70
0
 10
628656.1244024565
 20
4844160.507946998
 10
628620.3128472054
 20
4844224.702900983
  0
LWPOLYLINE
  5
1E5
330
17
100
AcDbEntity
  8
ROADS
100
AcDbPolyline
 90
2
 70
0
 10
628620.3128472054
 20
4844224.702900983
 10
628575.7350884022
 20
4844315.8869312
  0
LWPOLYLINE
  5
1E6
330
17
100
AcDbEntity
  8
ROADS
100
AcDbPolyline
 90
2
 70
0
 10
628786.0360982437
 20
4844298.931106555
 10
628867.0742671535
 20
4844248.128806125
  0
LWPOLYLINE
  5
1E7
330
17
100
AcDbEntity
  8
ROADS
100
AcDbPolyline
 90
2
 70
0
 10
628430.8298862039
 20
4844291.505940555
 10
628492.7150775411
 20
4844307.62938049
  0
LWPOLYLINE
  5
1E8
330
17
100
AcDbEntity
  8
ROADS
100
AcDbPolyline
 90
2
 70
0
 10
628492.7150775411
 20
4844307.62938049
 10
628511.1558513639
 20
4844309.587363727
  0
LWPOLYLINE
  5
1E9
330
17
100
AcDbEntity
  8
ROADS
100
AcDbPolyline
 90
2
 70
0
 10
628511.1558513639
 20
4844309.587363727
 10
628549.4291322456
 20
4844309.767278937
  0
LWPOLYLINE
  5
1EA
330
17
100
AcDbEntity
  8
ROADS
100
AcDbPolyline
 90
2
 70
0
 10
628430.8298862039
 20
4844291.505940555
 10
628450.7922892125
 20
4844360.7119139675
  0
LWPOLYLINE
  5
1EB
330
17
100
AcDbEntity
  8
ROADS
100
AcDbPolyline
 90
2
 70
0
 10
628549.4291322456
 20
4844309.767278937
 10
628543.2965481546
 20
4844351.204003543
  0
LWPOLYLINE
  5
1EC
330
17
100
AcDbEntity
  8
ROADS
100
AcDbPolyline
 90
2
 70
0
 10
628543.2965481546
 20
4844351.204003543
 10
628566.7775703897
 20
4844334.33148841
  0
LWPOLYLINE
  5
1ED
330
17
100
AcDbEntity
  8
ROADS
100
AcDbPolyline
 90
2
 70
0
 10
628361.1851833919
 20
4844272.510839155
 10
628330.8117980642
 20
4844436.471735632
  0
LWPOLYLINE
  5
1EE
330
17
100
AcDbEntity
  8
ROADS
100
AcDbPolyline
 90
2
 70
0
 10
628450.7922892125
 20
4844360.7119139675
 10
628433.9011831125
 20
4844404.734019932
  0
LWPOLYLINE
  5
1EF
330
17
100
AcDbEntity
  8
ROADS
100
AcDbPolyline
 90
3
 70
0
 10
628450.7922892125
 20
4844360.7119139675
 10
628462.6064171164
 20
4844390.96179998
 10
628451.6086448902
 20
4844411.567054233
  0
LWPOLYLINE
  5
1F0
330
17
100
AcDbEntity
  8
ROADS
100
AcDbPolyline
 90
2
 70
0
 10
628409.9616325138
 20
4844403.351517846
 10
628433.9011831125
 20
4844404.734019932
  0
LWPOLYLINE
  5
1F1
330
17
100
AcDbEntity
  8
ROADS
100
AcDbPolyline
 90
2
 70
0
 10
628433.9011831125
 20
4844404.734019932
 10
628451.6086448902
 20
4844411.567054233
  0
LWPOLYLINE
  5
1F2
330
17
100
AcDbEntity
  8
ROADS
100
AcDbPolyline
 90
2
 70
0
 10
628433.9011831125
 20
4844404.734019932
 10
628414.3808887352
 20
4844440.360967488
  0
LWPOLYLINE
  5
1F3
330
17
100
AcDbEntity
  8
ROADS
100
AcDbPolyline
 90
2
 70
0
 10
628451.6086448902
 20
4844411.567054233
 10
628414.3808887352
 20
4844440.360967488
  0
LWPOLYLINE
  5
1F4
330
17
100
AcDbEntity
  8
ROADS
100
AcDbPolyline
 90
2
 70
0
 10
628330.8117980642
 20
4844436.471735632
 10
628238.1477206008
 20
4844436.803121603
  0
LWPOLYLINE
  5
1F5
330
17
100
AcDbEntity
  8
ROADS
100
AcDbPolyline
 90
3
 70
0
 10
628414.3808887352
 20
4844440.360967488
 10
628343.6751286578
 20
4844451.413602289
 10
628330.8117980642
 20
4844436.471735632
  0
LWPOLYLINE
  5
1F6
330
17
100
AcDbEntity
  8
ROADS
100
AcDbPolyline
 90
2
 70
0
 10
628385.2946291406
 20
4844603.232000292
 10
628543.2965481546
 20
4844351.204003543
  0
LWPOLYLINE
  5
1F7
330
17
100
AcDbEntity
  8
ROADS
100
AcDbPolyline
 90
2
 70
0
 10
628330.8117980642
 20
4844436.471735632
 10
628306.0998098754
 20
4844589.247729106
  0
LWPOLYLINE
  5
1F8
330
17
100
AcDbEntity
  8
ROADS
100
AcDbPolyline
 90
3
 70
0
 10
628565.3080866612
 20
4844402.844935405
 10
628571.9461998261
 20
4844498.695483133
 10
628534.9311926941
 20
4844615.508680492
  0
LWPOLYLINE
  5
1F9
330
17
100
AcDbEntity
  8
ROADS
100
AcDbPolyline
 90
2
 70
0
 10
627938.6343506698
 20
4843147.147860106
 10
627904.1243591277
 20
4843258.013845549
  0
LWPOLYLINE
  5
1FA
330
17
100
AcDbEntity
  8
ROADS
100
AcDbPolyline
 90
2
 70
0
 10
627904.1243591277
 20
4843258.013845549
 10
627690.9801900919
 20
4843191.15473918
  0
LWPOLYLINE
  5
1FB
330
17
100
AcDbEntity
  8
ROADS
100
AcDbPolyline
 90
2
 70
0
 10
627904.1243591277
 20
4843258.013845549
 10
627870.2581343919
 20
4843367.014841916
  0
LWPOLYLINE
  5
1FC
330
17
100
AcDbEntity
  8
ROADS
100
AcDbPolyline
 90
3
 70
0
 10
627870.2581343919
 20
4843367.014841916
 10
627853.9575055757
 20
4843423.230391183
 10
627866.0859823981
 20
4843459.984297954
  0
LWPOLYLINE
  5
1FD
330
17
100
AcDbEntity
  8
ROADS
100
AcDbPolyline
 90
2
 70
0
 10
627975.7374055019
 20
4843498.745669596
 10
627866.0859823981
 20
4843459.984297954
  0
LWPOLYLINE
  5
1FE
330
17
100
AcDbEntity
  8
ROADS
100
AcDbPolyline
 90
3
 70
0
 10
627866.0859823981
 20
4843459.984297954
 10
627877.4254953298
 20
4843498.280025033
 10
627863.1803333847
 20
4843547.073300137
  0
LWPOLYLINE
  5
1FF
330
17
100
AcDbEntity
  8
ROADS
100
AcDbPolyline
 90
2
 70
0
 10
627975.7374055019
 20
4843498.745669596
 10
627929.3664516632
 20
4843667.399152521
  0
LWPOLYLINE
  5
200
330
17
100
AcDbEntity
  8
ROADS
100
AcDbPolyline
 90
2
 70
0
 10
627863.1803333847
 20
4843547.073300137
 10
627834.0626148368
 20
4843637.9940530425
  0
LWPOLYLINE
  5
201
330
17
100
AcDbEntity
  8
ROADS
100
AcDbPolyline
 90
2
 70
0
 10
627929.3664516632
 20
4843667.399152521
 10
627834.0626148368
 20
4843637.9940530425
  0
LWPOLYLINE
  5
202
330
17
100
AcDbEntity
  8
ROADS
100
AcDbPolyline
 90
2
 70
0
 10
627834.0626148368
 20
4843637.9940530425
 10
627805.0925813966
 20
4843725.672256109
  0
LWPOLYLINE
  5
203
330
17
100
AcDbEntity
  8
ROADS
100
AcDbPolyline
 90
2
 70
0
 10
627866.0859823981
 20
4843459.984297954
 10
627646.9338369308
 20
4843390.984194797
  0
LWPOLYLINE
  5
204
330
17
100
AcDbEntity
  8
ROADS
100
AcDbPolyline
 90
2
 70
0
 10
627863.1803333847
 20
4843547.073300137
 10
627630.4467639446
 20
4843474.20445178
  0
LWPOLYLINE
  5
205
330
17
100
AcDbEntity
  8
ROADS
100
AcDbPolyline
 90
2
 70
0
 10
627676.2848205135
 20
4843589.032816164
 10
627622.2343594654
 20
4843570.861250879
  0
LWPOLYLINE
  5
206
330
17
100
AcDbEntity
  8
ROADS
100
AcDbPolyline
 90
2
 70
0
 10
627834.0626148368
 20
4843637.9940530425
 10
627676.2848205135
 20
4843589.032816164
  0
LWPOLYLINE
  5
207
330
17
100
AcDbEntity
  8
ROADS
100
AcDbPolyline
 90
2
 70
0
 10
627676.2848205135
 20
4843589.032816164
 10
627645.6884628853
 20
4843682.96693994
  0
LWPOLYLINE
  5
208
330
17
100
AcDbEntity
  8
ROADS
100
AcDbPolyline
 90
2
 70
0
 10
627645.6884628853
 20
4843682.96693994
 10
627627.9873716567
 20
4843677.209708139
  0
LWPOLYLINE
  5
209
330
17
100
AcDbEntity
  8
ROADS
100
AcDbPolyline
 90
2
 70
0
 10
627805.0925813966
 20
4843725.672256109
 10
627645.6884628853
 20
4843682.96693994
  0
LWPOLYLINE
  5
20A
330
17
100
AcDbEntity
  8
ROADS
100
AcDbPolyline
 90
2
 70
0
 10
627645.6884628853
 20
4843682.96693994
 10
627633.4198950961
 20
4843719.965475217
  0
LWPOLYLINE
  5
20B
330
17
100
AcDbEntity
  8
ROADS
100
AcDbPolyline
 90
3
 70
0
 10
627777.0362570799
 20
4843811.821887074
 10
627725.4984892636
 20
4843812.786978124
 10
627640.9786768435
 20
4843785.7641109405
  0
LWPOLYLINE
  5
20C
330
17
100
AcDbEntity
  8
ROADS
100
AcDbPolyline
 90
2
 70
0
 10
627800.9400727969
 20
4843871.410430684
 10
627648.5340350725
 20
4843891.274009007
  0
LWPOLYLINE
  5
20D
330
17
100
AcDbEntity
  8
ROADS
100
AcDbPolyline
 90
3
 70
0
 10
627845.3167616588
 20
4843969.856100501
 10
627682.2821009555
 20
4844004.889897602
 10
627672.1999387754
 20
4844004.9509930415
  0
LWPOLYLINE
  5
20E
330
17
100
AcDbEntity
  8
ROADS
100
AcDbPolyline
 90
2
 70
0
 10
628021.2305164558
 20
4843697.775063319
 10
627929.3664516632
 20
4843667.399152521
  0
LWPOLYLINE
  5
20F
330
17
100
AcDbEntity
  8
ROADS
100
AcDbPolyline
 90
2
 70
0
 10
628021.2305164558
 20
4843697.775063319
 10
627966.233030266
 20
4843782.013924566
  0
LWPOLYLINE
  5
210
330
17
100
AcDbEntity
  8
ROADS
100
AcDbPolyline
 90
2
 70
0
 10
627966.233030266
 20
4843782.013924566
 10
627805.0925813966
 20
4843725.672256109
  0
LWPOLYLINE
  5
211
330
17
100
AcDbEntity
  8
ROADS
100
AcDbPolyline
 90
2
 70
0
 10
627805.0925813966
 20
4843725.672256109
 10
627777.0362570799
 20
4843811.821887074
  0
LWPOLYLINE
  5
212
330
17
100
AcDbEntity
  8
ROADS
100
AcDbPolyline
 90
2
 70
0
 10
627966.233030266
 20
4843782.013924566
 10
627800.9400727969
 20
4843871.410430684
  0
LWPOLYLINE
  5
213
330
17
100
AcDbEntity
  8
ROADS
100
AcDbPolyline
 90
2
 70
0
 10
627777.0362570799
 20
4843811.821887074
 10
627800.9400727969
 20
4843871.410430684
  0
LWPOLYLINE
  5
214
330
17
100
AcDbEntity
  8
ROADS
100
AcDbPolyline
 90
2
 70
0
 10
627800.9400727969
 20
4843871.410430684
 10
627845.3167616588
 20
4843969.856100501
  0
LWPOLYLINE
  5
215
330
17
100
AcDbEntity
  8
ROADS
100
AcDbPolyline
 90
2
 70
0
 10
628046.3166145508
 20
4843852.36820484
 10
627886.0612150745
 20
4844022.066063845
  0
LWPOLYLINE
  5
216
330
17
100
AcDbEntity
  8
ROADS
100
AcDbPolyline
 90
2
 70
0
 10
627933.4064113735
 20
4843934.33850643
 10
627845.3167616588
 20
4843969.856100501
  0
LWPOLYLINE
  5
217
330
17
100
AcDbEntity
  8
ROADS
100
AcDbPolyline
 90
2
 70
0
 10
627845.3167616588
 20
4843969.856100501
 10
627886.0612150745
 20
4844022.066063845
  0
LWPOLYLINE
  5
218
330
17
100
AcDbEntity
  8
ROADS
100
AcDbPolyline
 90
2
 70
0
 10
627794.1892644048
 20
4844133.263009714
 10
627717.802031008
 20
4844125.338810067
  0
LWPOLYLINE
  5
219
330
17
100
AcDbEntity
  8
ROADS
100
AcDbPolyline
 90
2
 70
0
 10
627753.7302322811
 20
4844184.602840769
 10
627750.8268324673
 20
4844188.134780442
  0
LWPOLYLINE
  5
21A
330
17
100
AcDbEntity
  8
ROADS
100
AcDbPolyline
 90
2
 70
0
 10
628549.4291322456
 20
4844309.767278937
 10
628575.7350884022
 20
4844315.8869312
  0
LWPOLYLINE
  5
21B
330
17
100
AcDbEntity
  8
ROADS
100
AcDbPolyline
 90
2
 70
0
 10
628575.7350884022
 20
4844315.8869312
 10
628566.7775703897
 20
4844334.33148841
  0
LWPOLYLINE
  5
21C
330
17
100
AcDbEntity
  8
ROADS
100
AcDbPolyline
 90
2
 70
0
 10
628575.7350884022
 20
4844315.8869312
 10
628840.6318200931
 20
4844409.730960499
  0
LWPOLYLINE
  5
21D
330
17
100
AcDbEntity
  8
ROADS
100
AcDbPolyline
 90
2
 70
0
 10
628566.7775703897
 20
4844334.33148841
 10
628565.3080866612
 20
4844402.844935405
  0
LWPOLYLINE
  5
21E
330
17
100
AcDbEntity
  8
ROADS
100
AcDbPolyline
 90
4
 70
0
 10
628565.3080866612
 20
4844402.844935405
 10
628672.0187023062
 20
4844479.758997495
 10
628758.8838581642
 20
4844572.919898238
 10
628762.726097128
 20
4844580.785965469
  0
LWPOLYLINE
  5
21F
330
17
100
AcDbEntity
  8
ROADS
100
AcDbPolyline
 90
2
 70
0
 10
627886.0612150745
 20
4844022.066063845
 10
627968.5147392643
 20
4844095.245472416
  0
LWPOLYLINE
  5
220
330
17
100
AcDbEntity
  8
ROADS
100
AcDbPolyline
 90
2
 70
0
 10
627886.0612150745
 20
4844022.066063845
 10
627794.1892644048
 20
4844133.263009714
  0
LWPOLYLINE
  5
221
330
17
100
AcDbEntity
  8
ROADS
100
AcDbPolyline
 90
2
 70
0
 10
627794.1892644048
 20
4844133.263009714
 10
627753.7302322811
 20
4844184.602840769
  0
LWPOLYLINE
  5
222
330
17
100
AcDbEntity
  8
ROADS
100
AcDbPolyline
 90
2
 70
0
 10
627968.5147392643
 20
4844095.245472416
 10
627837.4762678202
 20
4844252.728336409
  0
LWPOLYLINE
  5
223
330
17
100
AcDbEntity
  8
ROADS
100
AcDbPolyline
 90
2
 70
0
 10
627837.4762678202
 20
4844252.728336409
 10
627753.7302322811
 20
4844184.602840769
  0
LWPOLYLINE
  5
224
330
17
100
AcDbEntity
  8
ROADS
100
AcDbPolyline
 90
2
 70
0
 10
627966.2274588663
 20
4844251.795182698
 10
627918.717852478
 20
4844317.611315713
  0
LWPOLYLINE
  5
225
330
17
100
AcDbEntity
  8
ROADS
100
AcDbPolyline
 90
2
 70
0
 10
627918.717852478
 20
4844317.611315713
 10
627837.4762678202
 20
4844252.728336409
  0
LWPOLYLINE
  5
226
330
17
100
AcDbEntity
  8
ROADS
100
AcDbPolyline
 90
2
 70
0
 10
627837.4762678202
 20
4844252.728336409
 10
627814.0626245681
 20
4844281.370086336
  0
LWPOLYLINE
  5
227
330
17
100
AcDbEntity
  8
ROADS
100
AcDbPolyline
 90
2
 70
0
 10
627884.100963519
 20
4844358.553914601
 10
627918.717852478
 20
4844317.611315713
  0
LWPOLYLINE
  5
228
330
17
100
AcDbEntity
  8
ROADS
100
AcDbPolyline
 90
2
 70
0
 10
628043.7410299203
 20
4844162.722707228
 10
627966.2274588663
 20
4844251.795182698
  0
LWPOLYLINE
  5
229
330
17
100
AcDbEntity
  8
ROADS
100
AcDbPolyline
 90
4
 70
0
 10
628206.809130296
 20
4844297.694660729
 10
628122.6226689833
 20
4844281.674499188
 10
628071.3109394112
 20
4844291.7492040405
 10
627966.2274588663
 20
4844251.795182698
  0
LWPOLYLINE
  5
22A
330
17
100
AcDbEntity
  8
ROADS
100
AcDbPolyline
 90
2
 70
0
 10
628933.3056270934
 20
4843363.4541475605
 10
628904.794762285
 20
4843455.543269997
  0
LWPOLYLINE
  5
22B
330
17
100
AcDbEntity
  8
ROADS
100
AcDbPolyline
 90
2
 70
0
 10
628904.794762285
 20
4843455.543269997
 10
629130.7416851881
 20
4843524.673961391
  0
LWPOLYLINE
  5
22C
330
17
100
AcDbEntity
  8
ROADS
100
AcDbPolyline
 90
2
 70
0
 10
628904.794762285
 20
4843455.543269997
 10
628872.63469756
 20
4843570.8858849015
  0
LWPOLYLINE
  5
22D
330
17
100
AcDbEntity
  8
ROADS
100
AcDbPolyline
 90
2
 70
0
 10
628872.63469756
 20
4843570.8858849015
 10
628855.7724568654
 20
4843641.878420555
  0
LWPOLYLINE
  5
22E
330
17
100
AcDbEntity
  8
ROADS
100
AcDbPolyline
 90
3
 70
0
 10
628872.63469756
 20
4843570.8858849015
 10
629232.2122117218
 20
4843673.850952398
 10
629273.4854095464
 20
4843659.633113193
  0
LWPOLYLINE
  5
22F
330
17
100
AcDbEntity
  8
ROADS
100
AcDbPolyline
 90
2
 70
0
 10
628855.7724568654
 20
4843641.878420555
 10
628839.935839992
 20
4843729.798653131
  0
LWPOLYLINE
  5
230
330
17
100
AcDbEntity
  8
ROADS
100
AcDbPolyline
 90
3
 70
0
 10
628849.1052803735
 20
4844069.97551574
 10
628851.8070480463
 20
4844002.993921886
 10
628913.4661965506
 20
4843999.237894661
  0
LWPOLYLINE
  5
231
330
17
100
AcDbEntity
  8
ROADS
100
AcDbPolyline
 90
2
 70
0
 10
629024.6026963519
 20
4844083.47752487
 10
629028.5645192243
 20
4843985.950636791
  0
LWPOLYLINE
  5
232
330
17
100
AcDbEntity
  8
ROADS
100
AcDbPolyline
 90
2
 70
0
 10
628849.1052803735
 20
4844069.97551574
 10
629024.6026963519
 20
4844083.47752487
  0
LWPOLYLINE
  5
233
330
17
100
AcDbEntity
  8
ROADS
100
AcDbPolyline
 90
2
 70
0
 10
629024.6026963519
 20
4844083.47752487
 10
629088.0641230204
 20
4844097.722360612
  0
LWPOLYLINE
  5
234
330
17
100
AcDbEntity
  8
ROADS
100
AcDbPolyline
 90
2
 70
0
 10
629186.4369710565
 20
4843340.407571824
 10
629157.3725490392
 20
4843433.242796391
  0
LWPOLYLINE
  5
235
330
17
100
AcDbEntity
  8
ROADS
100
AcDbPolyline
 90
2
 70
0
 10
629157.3725490392
 20
4843433.242796391
 10
629389.8556998034
 20
4843502.138145964
  0
LWPOLYLINE
  5
236
330
17
100
AcDbEntity
  8
ROADS
100
AcDbPolyline
 90
2
 70
0
 10
629157.3725490392
 20
4843433.242796391
 10
629130.7416851881
 20
4843524.673961391
  0
LWPOLYLINE
  5
237
330
17
100
AcDbEntity
  8
ROADS
100
AcDbPolyline
 90
3
 70
0
 10
629291.5049520916
 20
4843572.885359384
 10
629312.7135870013
 20
4843555.529084657
 10
629369.5734354284
 20
4843544.768778619
  0
LWPOLYLINE
  5
238
330
17
100
AcDbEntity
  8
ROADS
100
AcDbPolyline
 90
2
 70
0
 10
629130.7416851881
 20
4843524.673961391
 10
629291.5049520916
 20
4843572.885359384
  0
LWPOLYLINE
  5
239
330
17
100
AcDbEntity
  8
ROADS
100
AcDbPolyline
 90
2
 70
0
 10
629279.1553144191
 20
4843619.1119745625
 10
629291.5049520916
 20
4843572.885359384
  0
LWPOLYLINE
  5
23A
330
17
100
AcDbEntity
  8
ROADS
100
AcDbPolyline
 90
3
 70
0
 10
629088.0641230204
 20
4844097.722360612
 10
629211.2107393773
 20
4844100.250910581
 10
629264.1984795638
 20
4844131.7922876775
  0
LWPOLYLINE
  5
23B
330
17
100
AcDbEntity
  8
ROADS
100
AcDbPolyline
 90
5
 70
0
 10
629088.0641230204
 20
4844097.722360612
 10
629092.3013198545
 20
4844186.660114147
 10
629125.7818470364
 20
4844234.205472599
 10
629185.8494135716
 20
4844231.693754989
 10
629224.2659946689
 20
4844211.533348672
  0
LWPOLYLINE
  5
23C
330
17
100
AcDbEntity
  8
ROADS
100
AcDbPolyline
 90
5
 70
0
 10
628873.2908402554
 20
4844229.892122451
 10
628954.4611683872
 20
4844248.238857057
 10
628985.5880067473
 20
4844329.17485073
 10
629016.5631216938
 20
4844349.334994444
 10
629123.8790695829
 20
4844350.052052346
  0
LWPOLYLINE
  5
23D
330
17
100
AcDbEntity
  8
ROADS
100
AcDbPolyline
 90
2
 70
0
 10
629345.9991110837
 20
4843161.509547278
 10
629469.8168272363
 20
4843198.833039521
  0
LWPOLYLINE
  5
23E
330
17
100
AcDbEntity
  8
ROADS
100
AcDbPolyline
 90
2
 70
0
 10
628784.7727659824
 20
4844108.542466569
 10
628873.2908402554
 20
4844229.892122451
  0
LWPOLYLINE
  5
23F
330
17
100
AcDbEntity
  8
ROADS
100
AcDbPolyline
 90
2
 70
0
 10
628873.2908402554
 20
4844229.892122451
 10
628867.0742671535
 20
4844248.128806125
  0
LWPOLYLINE
  5
240
330
17
100
AcDbEntity
  8
ROADS
100
AcDbPolyline
 90
3
 70
0
 10
628867.0742671535
 20
4844248.128806125
 10
628876.6758796768
 20
4844307.454627905
 10
628840.6318200931
 20
4844409.730960499
  0
LWPOLYLINE
  5
241
330
17
100
AcDbEntity
  8
ROADS
100
AcDbPolyline
 90
2
 70
0
 10
628840.6318200931
 20
4844409.730960499
 10
628876.0003051985
 20
4844425.743363399
  0
ENDSEC
  0
SECTION
  2
OBJECTS
  0
DICTIONARY
  5
A
330
0
100
AcDbDictionary
281
1
  3
ACAD_COLOR
350
B
  3
ACAD_GROUP
350
C
  3
ACAD_LAYOUT
350
D
  3
ACAD_MATERIAL
350
E
  3
ACAD_MLEADERSTYLE
350
F
  3
ACAD_MLINESTYLE
350
10
  3
ACAD_PLOTSETTINGS
350
11
  3
ACAD_PLOTSTYLENAME
350
12
  3
ACAD_SCALELIST
350
14
  3
ACAD_TABLESTYLE
350
15
  3
ACAD_VISUALSTYLE
350
16
  3
EZDXF_META
350
2D
  0
DICTIONARY
  5
B
330
A
100
AcDbDictionary
281
1
  0
DICTIONARY
  5
C
330
A
100
AcDbDictionary
281
1
  0
DICTIONARY
  5
D
330
A
100
AcDbDictionary
281
1
  3
Model
350
1A
  3
Layout1
350
1E
  0
DICTIONARY
  5
E
330
A
100
AcDbDictionary
281
1
  3
ByBlock
350
1F
  3
ByLayer
350
20
  3
Global
350
21
  0
DICTIONARY
  5
F
330
A
100
AcDbDictionary
281
1
  3
Standard
350
2C
  0
DICTIONARY
  5
10
330
A
100
AcDbDictionary
281
1
  3
Standard
350
22
  0
DICTIONARY
  5
11
330
A
100
AcDbDictionary
281
1
  0
ACDBDICTIONARYWDFLT
  5
12
330
A
100
AcDbDictionary
281
1
  3
Normal
350
13
100
AcDbDictionaryWithDefault
340
13
  0
ACDBPLACEHOLDER
  5
13
330
12
  0
DICTIONARY
  5
14
330
A
100
AcDbDictionary
281
1
  0
DICTIONARY
  5
15
330
A
100
AcDbDictionary
281
1
  0
DICTIONARY
  5
16
330
A
100
AcDbDictionary
281
1
  0
LAYOUT
  5
1A
330
D
100
AcDbPlotSettings
  1

  4
A3
  6

 40
7.5
 41
20.0
 42
7.5
 43
20.0
 44
420.0
 45
297.0
 46
0.0
 47
0.0
 48
0.0
 49
0.0
140
0.0
141
0.0
142
1.0
143
1.0
 70
1024
 72
1
 73
0
 74
5
  7

 75
16
 76
0
 77
2
 78
300
147
1.0
148
0.0
149
0.0
100
AcDbLayout
  1
Model
 70
1
 71
0
 10
0.0
 20
0.0
 11
420.0
 21
297.0
 12
0.0
 22
0.0
 32
0.0
 14
1e+20
 24
1e+20
 34
1e+20
 15
-1e+20
 25
-1e+20
 35
-1e+20
146
0.0
 13
0.0
 23
0.0
 33
0.0
 16
1.0
 26
0.0
 36
0.0
 17
0.0
 27
1.0
 37
0.0
 76
1
330
17
  0
LAYOUT
  5
1E
330
D
100
AcDbPlotSettings
  1

  4
A3
  6

 40
7.5
 41
20.0
 42
7.5
 43
20.0
 44
420.0
 45
297.0
 46
0.0
 47
0.0
 48
0.0
 49
0.0
140
0.0
141
0.0
142
1.0
143
1.0
 70
0
 72
1
 73
0
 74
5
  7

 75
16
 76
0
 77
2
 78
300
147
1.0
148
0.0
149
0.0
100
AcDbLayout
  1
Layout1
 70
1
 71
1
 10
0.0
 20
0.0
 11
420.0
 21
297.0
 12
0.0
 22
0.0
 32
0.0
 14
1e+20
 24
1e+20
 34
1e+20
 15
-1e+20
 25
-1e+20
 35
-1e+20
146
0.0
 13
0.0
 23
0.0
 33
0.0
 16
1.0
 26
0.0
 36
0.0
 17
0.0
 27
1.0
 37
0.0
 76
1
330
1B
  0
MATERIAL
  5
1F
102
{ACAD_REACTORS
330
E
102
}
330
E
100
AcDbMaterial
  1
ByBlock
  2

 70
0
 40
1.0
 71
1
 41
1.0
 91
-1023410177
 42
1.0
 72
1
  3

 73
1
 74
1
 75
1
 44
0.5
 73
0
 45
1.0
 46
1.0
 77
1
  4

 78
1
 79
1
170
1
 48
1.0
171
1
  6

172
1
173
1
174
1
140
1.0
141
1.0
175
1
  7

176
1
177
1
178
1
143
1.0
179
1
  8

270
1
271
1
272
1
145
1.0
146
1.0
273
1
  9

274
1
275
1
276
1
 42
1.0
 72
1
  3

 73
1
 74
1
 75
1
 94
63
  0
MATERIAL
  5
20
102
{ACAD_REACTORS
330
E
102
}
330
E
100
AcDbMaterial
  1
ByLayer
  2

 70
0
 40
1.0
 71
1
 41
1.0
 91
-1023410177
 42
1.0
 72
1
  3

 73
1
 74
1
 75
1
 44
0.5
 73
0
 45
1.0
 46
1.0
 77
1
  4

 78
1
 79
1
170
1
 48
1.0
171
1
  6

172
1
173
1
174
1
140
1.0
141
1.0
175
1
  7

176
1
177
1
178
1
143
1.0
179
1
  8

270
1
271
1
272
1
145
1.0
146
1.0
273
1
  9

274
1
275
1
276
1
 42
1.0
 72
1
  3

 73
1
 74
1
 75
1
 94
63
  0
MATERIAL
  5
21
102
{ACAD_REACTORS
330
E
102
}
330
E
100
AcDbMaterial
  1
Global
  2

 70
0
 40
1.0
 71
1
 41
1.0
 91
-1023410177
 42
1.0
 72
1
  3

 73
1
 74
1
 75
1
 44
0.5
 73
0
 45
1.0
 46
1.0
 77
1
  4

 78
1
 79
1
170
1
 48
1.0
171
1
  6

172
1
173
1
174
1
140
1.0
141
1.0
175
1
  7

176
1
177
1
178
1
143
1.0
179
1
  8

270
1
271
1
272
1
145
1.0
146
1.0
273
1
  9

274
1
275
1
276
1
 42
1.0
 72
1
  3

 73
1
 74
1
 75
1
 94
63
  0
MLINESTYLE
  5
22
102
{ACAD_REACTORS
330
10
102
}
330
10
100
AcDbMlineStyle
  2
Standard
 70
0
  3

 62
256
 51
90.0
 52
90.0
 71
2
 49
0.5
 62
256
  6
BYLAYER
 49
-0.5
 62
256
  6
BYLAYER
  0
MLEADERSTYLE
  5
2C
102
{ACAD_REACTORS
330
F
102
}
330
F
100
AcDbMLeaderStyle
179
2
170
2
171
1
172
0
 90
2
 40
0.0
 41
0.0
173
1
 91
-1056964608
 92
-2
290
1
 42
2.0
291
1
 43
8.0
  3
Standard
 44
4.0
300

342
29
174
1
175
1
176
0
178
1
 93
-1056964608
 45
4.0
292
0
297
0
 46
4.0
 94
-1056964608
 47
1.0
 49
1.0
140
1.0
294
1
141
0.0
177
0
142
1.0
295
0
296
0
143
3.75
271
0
272
9
273
9
  0
DICTIONARY
  5
2D
330
A
100
AcDbDictionary
280
1
281
1
  3
CREATED_BY_EZDXF
350
2E
  3
WRITTEN_BY_EZDXF
350
244
  0
DICTIONARYVAR
  5
2E
330
2D
100
DictionaryVariables
280
0
  1
1.4.4 @ 2026-07-07T18:25:57.376882+00:00
  0
DICTIONARYVAR
  5
244
330
2D
100
DictionaryVariables
280
0
  1
1.4.4 @ 2026-07-07T18:25:57.391248+00:00
  0
ENDSEC
  0
EOF
