  0
SECTION
  2
HEADER
  9
$ACADVER
  1
AC1015
  9
$ACADMAINTVER
 70
6
  9
$DWGCODEPAGE
  3
ANSI_1252
  9
$INSBASE
 10
0.0
 20
0.0
 30
0.0
  9
$EXTMIN
 10
1e+20
 20
1e+20
 30
1e+20
  9
$EXTMAX
 10
-1e+20
 20
-1e+20
 30
-1e+20
  9
$LIMMIN
 10
0.0
 20
0.0
  9
$LIMMAX
 10
420.0
 20
297.0
  9
$ORTHOMODE
 70
0
  9
$REGENMODE
 70
1
  9
$FILLMODE
 70
1
  9
$QTEXTMODE
 70
0
  9
$MIRRTEXT
 70
1
  9
$LTSCALE
 40
1.0
  9
$ATTMODE
 70
1
  9
$TEXTSIZE
 40
2.5
  9
$TRACEWID
 40
1.0
  9
$TEXTSTYLE
  7
Standard
  9
$CLAYER
  8
0
  9
$CELTYPE
  6
ByLayer
  9
$CECOLOR
 62
256
  9
$CELTSCALE
 40
1.0
  9
$DISPSILH
 70
0
  9
$DIMSCALE
 40
1.0
  9
$DIMASZ
 40
2.5
  9
$DIMEXO
 40
0.625
  9
$DIMDLI
 40
3.75
  9
$DIMRND
 40
0.0
  9
$DIMDLE
 40
0.0
  9
$DIMEXE
 40
1.25
  9
$DIMTP
 40
0.0
  9
$DIMTM
 40
0.0
  9
$DIMTXT
 40
2.5
  9
$DIMCEN
 40
2.5
  9
$DIMTSZ
 40
0.0
  9
$DIMTOL
 70
0
  9
$DIMLIM
 70
0
  9
$DIMTIH
 70
0
  9
$DIMTOH
 70
0
  9
$DIMSE1
 70
0
  9
$DIMSE2
 70
0
  9
$DIMTAD
 70
1
  9
$DIMZIN
 70
8
  9
$DIMBLK
  1

  9
$DIMASO
 70
1
  9
$DIMSHO
 70
1
  9
$DIMPOST
  1

  9
$DIMAPOST
  1

  9
$DIMALT
 70
0
  9
$DIMALTD
 70
3
  9
$DIMALTF
 40
0.03937007874
  9
$DIMLFAC
 40
1.0
  9
$DIMTOFL
 70
1
  9
$DIMTVP
 40
0.0
  9
$DIMTIX
 70
0
  9
$DIMSOXD
 70
0
  9
$DIMSAH
 70
0
  9
$DIMBLK1
  1

  9
$DIMBLK2
  1

  9
$DIMSTYLE
  2
ISO-25
  9
$DIMCLRD
 70
0
  9
$DIMCLRE
 70
0
  9
$DIMCLRT
 70
0
  9
$DIMTFAC
 40
1.0
  9
$DIMGAP
 40
0.625
  9
$DIMJUST
 70
0
  9
$DIMSD1
 70
0
  9
$DIMSD2
 70
0
  9
$DIMTOLJ
 70
0
  9
$DIMTZIN
 70
8
  9
$DIMALTZ
 70
0
  9
$DIMALTTZ
 70
0
  9
$DIMUPT
 70
0
  9
$DIMDEC
 70
2
  9
$DIMTDEC
 70
2
  9
$DIMALTU
 70
2
  9
$DIMALTTD
 70
3
  9
$DIMTXSTY
  7
Standard
  9
$DIMAUNIT
 70
0
  9
$DIMADEC
 70
0
  9
$DIMALTRND
 40
0.0
  9
$DIMAZIN
 70
0
  9
$DIMDSEP
 70
44
  9
$DIMATFIT
 70
3
  9
$DIMFRAC
 70
0
  9
$DIMLDRBLK
  1

  9
$DIMLUNIT
 70
2
  9
$DIMLWD
 70
-2
  9
$DIMLWE
 70
-2
  9
$DIMTMOVE
 70
0
  9
$LUNITS
 70
2
  9
$LUPREC
 70
4
  9
$SKETCHINC
 40
1.0
  9
$FILLETRAD
 40
10.0
  9
$AUNITS
 70
0
  9
$AUPREC
 70
2
  9
$MENU
  1
.
  9
$ELEVATION
 40
0.0
  9
$PELEVATION
 40
0.0
  9
$THICKNESS
 40
0.0
  9
$LIMCHECK
 70
0
  9
$CHAMFERA
 40
0.0
  9
$CHAMFERB
 40
0.0
  9
$CHAMFERC
 40
0.0
  9
$CHAMFERD
 40
0.0
  9
$SKPOLY
 70
0
  9
$TDCREATE
 40
2461229.6010300927
  9
$TDUCREATE
 40
2458532.153996898
  9
$TDUPDATE
 40
2461229.6010300927
  9
$TDUUPDATE
 40
2458532.1544311
  9
$TDINDWG
 40
0.0
  9
$TDUSRTIMER
 40
0.0
  9
$USRTIMER
 70
1
  9
$ANGBASE
 50
0.0
  9
$ANGDIR
 70
0
  9
$PDMODE
 70
0
  9
$PDSIZE
 40
0.0
  9
$PLINEWID
 40
0.0
  9
$SPLFRAME
 70
0
  9
$SPLINETYPE
 70
6
  9
$SPLINESEGS
 70
8
  9
$HANDSEED
  5
223
  9
$SURFTAB1
 70
6
  9
$SURFTAB2
 70
6
  9
$SURFTYPE
 70
6
  9
$SURFU
 70
6
  9
$SURFV
 70
6
  9
$UCSBASE
  2

  9
$UCSNAME
  2

  9
$UCSORG
 10
0.0
 20
0.0
 30
0.0
  9
$UCSXDIR
 10
1.0
 20
0.0
 30
0.0
  9
$UCSYDIR
 10
0.0
 20
1.0
 30
0.0
  9
$UCSORTHOREF
  2

  9
$UCSORTHOVIEW
 70
0
  9
$UCSORGTOP
 10
0.0
 20
0.0
 30
0.0
  9
$UCSORGBOTTOM
 10
0.0
 20
0.0
 30
0.0
  9
$UCSORGLEFT
 10
0.0
 20
0.0
 30
0.0
  9
$UCSORGRIGHT
 10
0.0
 20
0.0
 30
0.0
  9
$UCSORGFRONT
 10
0.0
 20
0.0
 30
0.0
  9
$UCSORGBACK
 10
0.0
 20
0.0
 30
0.0
  9
$PUCSBASE
  2

  9
$PUCSNAME
  2

  9
$PUCSORG
 10
0.0
 20
0.0
 30
0.0
  9
$PUCSXDIR
 10
1.0
 20
0.0
 30
0.0
  9
$PUCSYDIR
 10
0.0
 20
1.0
 30
0.0
  9
$PUCSORTHOREF
  2

  9
$PUCSORTHOVIEW
 70
0
  9
$PUCSORGTOP
 10
0.0
 20
0.0
 30
0.0
  9
$PUCSORGBOTTOM
 10
0.0
 20
0.0
 30
0.0
  9
$PUCSORGLEFT
 10
0.0
 20
0.0
 30
0.0
  9
$PUCSORGRIGHT
 10
0.0
 20
0.0
 30
0.0
  9
$PUCSORGFRONT
 10
0.0
 20
0.0
 30
0.0
  9
$PUCSORGBACK
 10
0.0
 20
0.0
 30
0.0
  9
$USERI1
 70
0
  9
$USERI2
 70
0
  9
$USERI3
 70
0
  9
$USERI4
 70
0
  9
$USERI5
 70
0
  9
$USERR1
 40
0.0
  9
$USERR2
 40
0.0
  9
$USERR3
 40
0.0
  9
$USERR4
 40
0.0
  9
$USERR5
 40
0.0
  9
$WORLDVIEW
 70
1
  9
$SHADEDGE
 70
3
  9
$SHADEDIF
 70
70
  9
$TILEMODE
 70
1
  9
$MAXACTVP
 70
64
  9
$PINSBASE
 10
0.0
 20
0.0
 30
0.0
  9
$PLIMCHECK
 70
0
  9
$PEXTMIN
 10
1e+20
 20
1e+20
 30
1e+20
  9
$PEXTMAX
 10
-1e+20
 20
-1e+20
 30
-1e+20
  9
$PLIMMIN
 10
0.0
 20
0.0
  9
$PLIMMAX
 10
420.0
 20
297.0
  9
$UNITMODE
 70
0
  9
$VISRETAIN
 70
1
  9
$PLINEGEN
 70
0
  9
$PSLTSCALE
 70
1
  9
$TREEDEPTH
 70
3020
  9
$CMLSTYLE
  2
Standard
  9
$CMLJUST
 70
0
  9
$CMLSCALE
 40
20.0
  9
$PROXYGRAPHICS
 70
1
  9
$MEASUREMENT
 70
1
  9
$CELWEIGHT
370
-1
  9
$ENDCAPS
280
0
  9
$JOINSTYLE
280
0
  9
$LWDISPLAY
290
0
  9
$INSUNITS
 70
6
  9
$HYPERLINKBASE
  1

  9
$STYLESHEET
  1

  9
$XEDIT
290
1
  9
$CEPSNTYPE
380
0
  9
$PSTYLEMODE
290
1
  9
$FINGERPRINTGUID
  2
{A83BE046-68A8-4B14-8E11-ABE22F684E12}
  9
$VERSIONGUID
  2
{84B4EEB3-995E-4161-915C-7CCBC1BA6039}
  9
$EXTNAMES
290
1
  9
$PSVPSCALE
 40
0.0
  9
$OLESTARTUP
290
0
  0
ENDSEC
  0
SECTION
  2
CLASSES
  0
CLASS
  1
ACDBDICTIONARYWDFLT
  2
AcDbDictionaryWithDefault
  3
ObjectDBX Classes
 90
0
280
0
281
0
  0
CLASS
  1
SUN
  2
AcDbSun
  3
SCENEOE
 90
1153
280
0
281
0
  0
CLASS
  1
VISUALSTYLE
  2
AcDbVisualStyle
  3
ObjectDBX Classes
 90
4095
280
0
281
0
  0
CLASS
  1
MATERIAL
  2
AcDbMaterial
  3
ObjectDBX Classes
 90
1153
280
0
281
0
  0
CLASS
  1
SCALE
  2
AcDbScale
  3
ObjectDBX Classes
 90
1153
280
0
281
0
  0
CLASS
  1
TABLESTYLE
  2
AcDbTableStyle
  3
ObjectDBX Classes
 90
4095
280
0
281
0
  0
CLASS
  1
MLEADERSTYLE
  2
AcDbMLeaderStyle
  3
ACDB_MLEADERSTYLE_CLASS
 90
4095
280
0
281
0
  0
CLASS
  1
DICTIONARYVAR
  2
AcDbDictionaryVar
  3
ObjectDBX Classes
 90
0
280
0
281
0
  0
CLASS
  1
CELLSTYLEMAP
  2
AcDbCellStyleMap
  3
ObjectDBX Classes
 90
1152
280
0
281
0
  0
CLASS
  1
MENTALRAYRENDERSETTINGS
  2
AcDbMentalRayRenderSettings
  3
SCENEOE
 90
1024
280
0
281
0
  0
CLASS
  1
ACDBDETAILVIEWSTYLE
  2
AcDbDetailViewStyle
  3
ObjectDBX Classes
 90
1025
280
0
281
0
  0
CLASS
  1
ACDBSECTIONVIEWSTYLE
  2
AcDbSectionViewStyle
  3
ObjectDBX Classes
 90
1025
280
0
281
0
  0
CLASS
  1
RASTERVARIABLES
  2
AcDbRasterVariables
  3
ISM
 90
0
280
0
281
0
  0
CLASS
  1
ACDBPLACEHOLDER
  2
AcDbPlaceHolder
  3
ObjectDBX Classes
 90
0
280
0
281
0
  0
CLASS
  1
LAYOUT
  2
AcDbLayout
  3
ObjectDBX Classes
 90
0
280
0
281
0
  0
ENDSEC
  0
SECTION
  2
TABLES
  0
TABLE
  2
VPORT
  5
8
330
0
100
AcDbSymbolTable
 70
1
  0
VPORT
  5
23
330
8
100
AcDbSymbolTableRecord
100
AcDbViewportTableRecord
  2
*Active
 70
0
 10
0.0
 20
0.0
 11
1.0
 21
1.0
 12
0.0
 22
0.0
 13
0.0
 23
0.0
 14
0.5
 24
0.5
 15
0.5
 25
0.5
 16
0.0
 26
0.0
 36
1.0
 17
0.0
 27
0.0
 37
0.0
 40
1000.0
 41
1.34
 42
50.0
 43
0.0
 44
0.0
 50
0.0
 51
0.0
 71
0
 72
1000
 73
1
 74
3
 75
0
 76
0
 77
0
 78
0
281
0
 65
0
146
0.0
  0
ENDTAB
  0
TABLE
  2
LTYPE
  5
2
330
0
100
AcDbSymbolTable
 70
3
  0
LTYPE
  5
24
330
2
100
AcDbSymbolTableRecord
100
AcDbLinetypeTableRecord
  2
ByBlock
 70
0
  3

 72
65
 73
0
 40
0.0
  0
LTYPE
  5
25
330
2
100
AcDbSymbolTableRecord
100
AcDbLinetypeTableRecord
  2
ByLayer
 70
0
  3

 72
65
 73
0
 40
0.0
  0
LTYPE
  5
26
330
2
100
AcDbSymbolTableRecord
100
AcDbLinetypeTableRecord
  2
Continuous
 70
0
  3

 72
65
 73
0
 40
0.0
  0
ENDTAB
  0
TABLE
  2
LAYER
  5
1
330
0
100
AcDbSymbolTable
 70
2
  0
LAYER
  5
27
330
1
100
AcDbSymbolTableRecord
100
AcDbLayerTableRecord
  2
0
 70
0
 62
7
  6
Continuous
370
-3
390
13
  0
LAYER
  5
28
330
1
100
AcDbSymbolTableRecord
100
AcDbLayerTableRecord
  2
Defpoints
 70
0
 62
7
  6
Continuous
290
0
370
-3
390
13
  0
ENDTAB
  0
TABLE
  2
STYLE
  5
5
330
0
100
AcDbSymbolTable
 70
1
  0
STYLE
  5
29
330
5
100
AcDbSymbolTableRecord
100
AcDbTextStyleTableRecord
  2
Standard
 70
0
 40
0.0
 41
1.0
 50
0.0
 71
0
 42
2.5
  3
txt
  4

  0
ENDTAB
  0
TABLE
  2
VIEW
  5
7
330
0
100
AcDbSymbolTable
 70
0
  0
ENDTAB
  0
TABLE
  2
UCS
  5
6
330
0
100
AcDbSymbolTable
 70
0
  0
ENDTAB
  0
TABLE
  2
APPID
  5
3
330
0
100
AcDbSymbolTable
 70
3
  0
APPID
  5
2A
330
3
100
AcDbSymbolTableRecord
100
AcDbRegAppTableRecord
  2
ACAD
 70
0
  0
APPID
  5
220
330
3
100
AcDbSymbolTableRecord
100
AcDbRegAppTableRecord
  2
HATCHBACKGROUNDCOLOR
 70
0
  0
APPID
  5
221
330
3
100
AcDbSymbolTableRecord
100
AcDbRegAppTableRecord
  2
EZDXF
 70
0
  0
ENDTAB
  0
TABLE
  2
DIMSTYLE
  5
4
330
0
100
AcDbSymbolTable
 70
1
100
AcDbDimStyleTable
  0
DIMSTYLE
105
2B
330
4
100
AcDbSymbolTableRecord
100
AcDbDimStyleTableRecord
  2
Standard
 70
0
  3

  4

 40
1.0
 41
2.5
 42
0.625
 43
3.75
 44
1.25
 45
0.0
 46
0.0
 47
0.0
 48
0.0
140
2.5
141
2.5
142
0.0
143
0.03937007874
144
1.0
145
0.0
146
1.0
147
0.625
148
0.0
 71
0
 72
0
 73
0
 74
0
 75
0
 76
0
 77
1
 78
8
 79
3
170
0
171
3
172
1
173
0
174
0
175
0
176
0
177
0
178
0
179
2
271
2
272
2
273
2
274
3
275
0
276
0
277
2
278
44
279
0
280
0
281
0
282
0
283
0
284
8
285
0
286
0
288
0
289
3
371
-2
372
-2
  0
ENDTAB
  0
TABLE
  2
BLOCK_RECORD
  5
9
330
0
100
AcDbSymbolTable
 70
2
  0
BLOCK_RECORD
  5
17
330
9
100
AcDbSymbolTableRecord
100
AcDbBlockTableRecord
  2
*Model_Space
340
1A
  0
BLOCK_RECORD
  5
1B
330
9
100
AcDbSymbolTableRecord
100
AcDbBlockTableRecord
  2
*Paper_Space
340
1E
  0
ENDTAB
  0
ENDSEC
  0
SECTION
  2
BLOCKS
  0
BLOCK
  5
18
330
17
100
AcDbEntity
  8
0
100
AcDbBlockBegin
  2
*Model_Space
 70
0
 10
0.0
 20
0.0
 30
0.0
  3
*Model_Space
  1

  0
ENDBLK
  5
19
330
17
100
AcDbEntity
  8
0
100
AcDbBlockEnd
  0
BLOCK
  5
1C
330
1B
100
AcDbEntity
  8
0
100
AcDbBlockBegin
  2
*Paper_Space
 70
0
 10
0.0
 20
0.0
 30
0.0
  3
*Paper_Space
  1

  0
ENDBLK
  5
1D
330
1B
100
AcDbEntity
  8
0
100
AcDbBlockEnd
  0
ENDSEC
  0
SECTION
  2
ENTITIES
  0
LWPOLYLINE
  5
2F
330
17
100
AcDbEntity
  8
ROADS
100
AcDbPolyline
 90
2
 70
0
 10
638194.8019801264
 20
4848635.846368811
 10
638294.6938302651
 20
4848668.009130914
  0
LWPOLYLINE
  5
30
330
17
100
AcDbEntity
  8
ROADS
100
AcDbPolyline
 90
2
 70
0
 10
638294.6938302651
 20
4848668.009130914
 10
638359.1841609528
 20
4848689.306513847
  0
LWPOLYLINE
  5
31
330
17
100
AcDbEntity
  8
ROADS
100
AcDbPolyline
 90
3
 70
0
 10
638194.8019801264
 20
4848635.846368811
 10
638146.4991108557
 20
4848783.570337904
 10
638244.0688540777
 20
4848814.234927092
  0
LWPOLYLINE
  5
32
330
17
100
AcDbEntity
  8
ROADS
100
AcDbPolyline
 90
2
 70
0
 10
638294.6938302651
 20
4848668.009130914
 10
638244.0688540777
 20
4848814.234927092
  0
LWPOLYLINE
  5
33
330
17
100
AcDbEntity
  8
ROADS
100
AcDbPolyline
 90
2
 70
0
 10
638244.0688540777
 20
4848814.234927092
 10
638303.6801280484
 20
4848833.852780359
  0
LWPOLYLINE
  5
34
330
17
100
AcDbEntity
  8
ROADS
100
AcDbPolyline
 90
2
 70
0
 10
638173.1959623735
 20
4848628.780165433
 10
638194.8019801264
 20
4848635.846368811
  0
LWPOLYLINE
  5
35
330
17
100
AcDbEntity
  8
ROADS
100
AcDbPolyline
 90
2
 70
0
 10
638841.2527642036
 20
4848564.875787746
 10
638777.0895687968
 20
4848763.097707941
  0
LWPOLYLINE
  5
36
330
17
100
AcDbEntity
  8
ROADS
100
AcDbPolyline
 90
2
 70
0
 10
638777.0895687968
 20
4848763.097707941
 10
638595.8483537768
 20
4848706.3927206425
  0
LWPOLYLINE
  5
37
330
17
100
AcDbEntity
  8
ROADS
100
AcDbPolyline
 90
4
 70
0
 10
638832.9951388014
 20
4848816.741251007
 10
638877.8692321747
 20
4848702.773649442
 10
639188.0615484823
 20
4848804.778311331
 10
639189.8657086657
 20
4848829.507425541
  0
LWPOLYLINE
  5
38
330
17
100
AcDbEntity
  8
ROADS
100
AcDbPolyline
 90
2
 70
0
 10
638777.0895687968
 20
4848763.097707941
 10
638766.7997393089
 20
4848796.151492937
  0
LWPOLYLINE
  5
39
330
17
100
AcDbEntity
  8
ROADS
100
AcDbPolyline
 90
2
 70
0
 10
638766.7997393089
 20
4848796.151492937
 10
638832.9951388014
 20
4848816.741251007
  0
LWPOLYLINE
  5
3A
330
17
100
AcDbEntity
  8
ROADS
100
AcDbPolyline
 90
2
 70
0
 10
639189.8657086657
 20
4848829.507425541
 10
639170.740799959
 20
4848890.997974008
  0
LWPOLYLINE
  5
3B
330
17
100
AcDbEntity
  8
ROADS
100
AcDbPolyline
 90
2
 70
0
 10
638766.7997393089
 20
4848796.151492937
 10
638718.2493868945
 20
4848948.860191111
  0
LWPOLYLINE
  5
3C
330
17
100
AcDbEntity
  8
ROADS
100
AcDbPolyline
 90
3
 70
0
 10
638886.9641211557
 20
4848939.567458026
 10
638930.9438704916
 20
4848825.451136474
 10
639170.740799959
 20
4848890.997974008
  0
LWPOLYLINE
  5
3D
330
17
100
AcDbEntity
  8
ROADS
100
AcDbPolyline
 90
2
 70
0
 10
639616.4842737671
 20
4848890.439268833
 10
639581.8308552505
 20
4849003.2959315255
  0
LWPOLYLINE
  5
3E
330
17
100
AcDbEntity
  8
ROADS
100
AcDbPolyline
 90
2
 70
0
 10
639189.8657086657
 20
4848829.507425541
 10
639319.3543798176
 20
4848875.765934457
  0
LWPOLYLINE
  5
3F
330
17
100
AcDbEntity
  8
ROADS
100
AcDbPolyline
 90
3
 70
0
 10
639319.3543798176
 20
4848875.765934457
 10
639361.4132331875
 20
4848893.334655289
 10
639408.2244247866
 20
4848969.970318611
  0
LWPOLYLINE
  5
40
330
17
100
AcDbEntity
  8
ROADS
100
AcDbPolyline
 90
2
 70
0
 10
639408.2244247866
 20
4848969.970318611
 10
639455.1512894428
 20
4848984.915992174
  0
LWPOLYLINE
  5
41
330
17
100
AcDbEntity
  8
ROADS
100
AcDbPolyline
 90
3
 70
0
 10
639455.1512894428
 20
4848984.915992174
 10
639460.6972087576
 20
4848968.888883367
 10
639544.0043668788
 20
4848995.277813492
  0
LWPOLYLINE
  5
42
330
17
100
AcDbEntity
  8
ROADS
100
AcDbPolyline
 90
2
 70
0
 10
639319.3543798176
 20
4848875.765934457
 10
639252.8678784461
 20
4849092.901752741
  0
LWPOLYLINE
  5
43
330
17
100
AcDbEntity
  8
ROADS
100
AcDbPolyline
 90
2
 70
0
 10
639544.0043668788
 20
4848995.277813492
 10
639549.2327873211
 20
4848982.864307072
  0
LWPOLYLINE
  5
44
330
17
100
AcDbEntity
  8
ROADS
100
AcDbPolyline
 90
2
 70
0
 10
639544.0043668788
 20
4848995.277813492
 10
639581.8308552505
 20
4849003.2959315255
  0
LWPOLYLINE
  5
45
330
17
100
AcDbEntity
  8
ROADS
100
AcDbPolyline
 90
2
 70
0
 10
639581.8308552505
 20
4849003.2959315255
 10
639577.9781176837
 20
4849016.0103927655
  0
LWPOLYLINE
  5
46
330
17
100
AcDbEntity
  8
ROADS
100
AcDbPolyline
 90
3
 70
0
 10
637877.9012884026
 20
4848928.508968836
 10
637995.9793993
 20
4848960.001081957
 10
638051.3201529619
 20
4848958.758598112
  0
LWPOLYLINE
  5
47
330
17
100
AcDbEntity
  8
ROADS
100
AcDbPolyline
 90
2
 70
0
 10
637811.3098428794
 20
4849057.512660861
 10
637913.9271308876
 20
4849089.074689702
  0
LWPOLYLINE
  5
48
330
17
100
AcDbEntity
  8
ROADS
100
AcDbPolyline
 90
2
 70
0
 10
637936.8135519768
 20
4849396.815422525
 10
637882.8662324843
 20
4849378.780262319
  0
LWPOLYLINE
  5
49
330
17
100
AcDbEntity
  8
ROADS
100
AcDbPolyline
 90
2
 70
0
 10
637936.8135519768
 20
4849396.815422525
 10
637921.2774271739
 20
4849440.397543818
  0
LWPOLYLINE
  5
4A
330
17
100
AcDbEntity
  8
ROADS
100
AcDbPolyline
 90
2
 70
0
 10
637921.2774271739
 20
4849440.397543818
 10
637988.2330164898
 20
4849462.349282751
  0
LWPOLYLINE
  5
4B
330
17
100
AcDbEntity
  8
ROADS
100
AcDbPolyline
 90
2
 70
0
 10
637988.2330164898
 20
4849462.349282751
 10
638011.321349299
 20
4849469.902334677
  0
LWPOLYLINE
  5
4C
330
17
100
AcDbEntity
  8
ROADS
100
AcDbPolyline
 90
2
 70
0
 10
637921.2774271739
 20
4849440.397543818
 10
637898.8831898662
 20
4849509.723828968
  0
LWPOLYLINE
  5
4D
330
17
100
AcDbEntity
  8
ROADS
100
AcDbPolyline
 90
3
 70
0
 10
637804.2835395738
 20
4849535.096656231
 10
637797.9768101177
 20
4849487.033360939
 10
637846.1146932592
 20
4849419.405199968
  0
LWPOLYLINE
  5
4E
330
17
100
AcDbEntity
  8
ROADS
100
AcDbPolyline
 90
2
 70
0
 10
637966.0826977656
 20
4849531.128948257
 10
637988.2330164898
 20
4849462.349282751
  0
LWPOLYLINE
  5
4F
330
17
100
AcDbEntity
  8
ROADS
100
AcDbPolyline
 90
2
 70
0
 10
637674.5402613918
 20
4849512.437912722
 10
637722.5160995058
 20
4849527.025339508
  0
LWPOLYLINE
  5
50
330
17
100
AcDbEntity
  8
ROADS
100
AcDbPolyline
 90
2
 70
0
 10
637898.8831898662
 20
4849509.723828968
 10
637949.9538475573
 20
4849526.621280845
  0
LWPOLYLINE
  5
51
330
17
100
AcDbEntity
  8
ROADS
100
AcDbPolyline
 90
2
 70
0
 10
637804.2835395738
 20
4849535.096656231
 10
637898.8831898662
 20
4849509.723828968
  0
LWPOLYLINE
  5
52
330
17
100
AcDbEntity
  8
ROADS
100
AcDbPolyline
 90
2
 70
0
 10
637949.9538475573
 20
4849526.621280845
 10
637966.0826977656
 20
4849531.128948257
  0
LWPOLYLINE
  5
53
330
17
100
AcDbEntity
  8
ROADS
100
AcDbPolyline
 90
2
 70
0
 10
637722.5160995058
 20
4849527.025339508
 10
637804.2835395738
 20
4849535.096656231
  0
LWPOLYLINE
  5
54
330
17
100
AcDbEntity
  8
ROADS
100
AcDbPolyline
 90
2
 70
0
 10
637966.0826977656
 20
4849531.128948257
 10
638010.3032597273
 20
4849544.684971778
  0
LWPOLYLINE
  5
55
330
17
100
AcDbEntity
  8
ROADS
100
AcDbPolyline
 90
5
 70
0
 10
637722.5160995058
 20
4849527.025339508
 10
637692.0952373325
 20
4849580.449649332
 10
637790.8744704743
 20
4849612.57248361
 10
637812.7998032356
 20
4849576.68437907
 10
637804.2835395738
 20
4849535.096656231
  0
LWPOLYLINE
  5
56
330
17
100
AcDbEntity
  8
ROADS
100
AcDbPolyline
 90
2
 70
0
 10
637949.9538475573
 20
4849526.621280845
 10
637872.8857664166
 20
4849758.18421469
  0
LWPOLYLINE
  5
57
330
17
100
AcDbEntity
  8
ROADS
100
AcDbPolyline
 90
2
 70
0
 10
637668.1341148139
 20
4849692.476841765
 10
637872.8857664166
 20
4849758.18421469
  0
LWPOLYLINE
  5
58
330
17
100
AcDbEntity
  8
ROADS
100
AcDbPolyline
 90
2
 70
0
 10
637872.8857664166
 20
4849758.18421469
 10
637952.2518383695
 20
4849782.269592601
  0
LWPOLYLINE
  5
59
330
17
100
AcDbEntity
  8
ROADS
100
AcDbPolyline
 90
3
 70
0
 10
637872.8857664166
 20
4849758.18421469
 10
637821.6111327887
 20
4849905.91003939
 10
637701.613863668
 20
4849869.111916987
  0
LWPOLYLINE
  5
5A
330
17
100
AcDbEntity
  8
ROADS
100
AcDbPolyline
 90
3
 70
0
 10
638072.7160734347
 20
4849764.4537018
 10
638053.9629162014
 20
4849785.114857509
 10
637910.8295190338
 20
4850217.815425386
  0
LWPOLYLINE
  5
5B
330
17
100
AcDbEntity
  8
ROADS
100
AcDbPolyline
 90
2
 70
0
 10
640419.4795600303
 20
4849087.04087482
 10
640289.363085116
 20
4849513.324408247
  0
LWPOLYLINE
  5
5C
330
17
100
AcDbEntity
  8
ROADS
100
AcDbPolyline
 90
5
 70
0
 10
640323.0904991654
 20
4849253.592129545
 10
640297.2289771811
 20
4849409.118351885
 10
640243.249341133
 20
4849476.019092035
 10
640252.5978351124
 20
4849501.763086421
 10
640289.363085116
 20
4849513.324408247
  0
LWPOLYLINE
  5
5D
330
17
100
AcDbEntity
  8
ROADS
100
AcDbPolyline
 90
5
 70
0
 10
640025.8094806392
 20
4849488.872615736
 10
640046.9335807536
 20
4849402.444652628
 10
640062.887786818
 20
4849389.386405357
 10
640193.505998953
 20
4849432.600403388
 10
640159.855371838
 20
4849509.383458834
  0
LWPOLYLINE
  5
5E
330
17
100
AcDbEntity
  8
ROADS
100
AcDbPolyline
 90
2
 70
0
 10
640002.4370026155
 20
4849484.29867084
 10
640025.8094806392
 20
4849488.872615736
  0
LWPOLYLINE
  5
5F
330
17
100
AcDbEntity
  8
ROADS
100
AcDbPolyline
 90
2
 70
0
 10
639577.9781176837
 20
4849016.0103927655
 10
639562.1560050005
 20
4849067.481846523
  0
LWPOLYLINE
  5
60
330
17
100
AcDbEntity
  8
ROADS
100
AcDbPolyline
 90
4
 70
0
 10
639577.9781176837
 20
4849016.0103927655
 10
639546.1016893268
 20
4849017.183986226
 10
639536.4010347426
 20
4849051.332622799
 10
639562.1560050005
 20
4849067.481846523
  0
LWPOLYLINE
  5
61
330
17
100
AcDbEntity
  8
ROADS
100
AcDbPolyline
 90
3
 70
0
 10
639344.4400497349
 20
4849121.042615516
 10
639390.4050094887
 20
4848975.2499982575
 10
639408.2244247866
 20
4848969.970318611
  0
LWPOLYLINE
  5
62
330
17
100
AcDbEntity
  8
ROADS
100
AcDbPolyline
 90
6
 70
0
 10
639764.1944400596
 20
4849093.902959437
 10
639819.2953697881
 20
4849002.753143897
 10
639955.387295382
 20
4849042.643798135
 10
639932.1098246545
 20
4849119.150748115
 10
639869.1207173078
 20
4849106.113214236
 10
639810.5576119436
 20
4849129.142483019
  0
LWPOLYLINE
  5
63
330
17
100
AcDbEntity
  8
ROADS
100
AcDbPolyline
 90
3
 70
0
 10
639455.1512894428
 20
4848984.915992174
 10
639473.257523856
 20
4849002.16774007
 10
639430.063755712
 20
4849147.356538468
  0
LWPOLYLINE
  5
64
330
17
100
AcDbEntity
  8
ROADS
100
AcDbPolyline
 90
3
 70
0
 10
639613.9620140377
 20
4849139.076574282
 10
639645.8733046745
 20
4849061.467013353
 10
639764.1944400596
 20
4849093.902959437
  0
LWPOLYLINE
  5
65
330
17
100
AcDbEntity
  8
ROADS
100
AcDbPolyline
 90
2
 70
0
 10
639252.8678784461
 20
4849092.901752741
 10
639344.4400497349
 20
4849121.042615516
  0
LWPOLYLINE
  5
66
330
17
100
AcDbEntity
  8
ROADS
100
AcDbPolyline
 90
2
 70
0
 10
639764.1944400596
 20
4849093.902959437
 10
639810.5576119436
 20
4849129.142483019
  0
LWPOLYLINE
  5
67
330
17
100
AcDbEntity
  8
ROADS
100
AcDbPolyline
 90
2
 70
0
 10
639562.1560050005
 20
4849067.481846523
 10
639529.1001761322
 20
4849177.78989517
  0
LWPOLYLINE
  5
68
330
17
100
AcDbEntity
  8
ROADS
100
AcDbPolyline
 90
2
 70
0
 10
639344.4400497349
 20
4849121.042615516
 10
639430.063755712
 20
4849147.356538468
  0
LWPOLYLINE
  5
69
330
17
100
AcDbEntity
  8
ROADS
100
AcDbPolyline
 90
9
 70
0
 10
640289.363085116
 20
4849513.324408247
 10
640407.2201971267
 20
4849548.418435369
 10
640469.1898690322
 20
4849535.981001079
 10
640508.9337200276
 20
4849497.138154678
 10
640547.9668587442
 20
4849407.775255742
 10
640608.6322691264
 20
4849365.763129089
 10
640777.3508815711
 20
4849401.842779021
 10
641037.5835912566
 20
4849485.136481448
 10
641438.4985421465
 20
4849683.979470526
  0
LWPOLYLINE
  5
6A
330
17
100
AcDbEntity
  8
ROADS
100
AcDbPolyline
 90
2
 70
0
 10
642199.5301673333
 20
4849680.530939006
 10
642134.5217442489
 20
4849898.636988506
  0
LWPOLYLINE
  5
6B
330
17
100
AcDbEntity
  8
ROADS
100
AcDbPolyline
 90
3
 70
0
 10
641991.7068008085
 20
4849577.511349971
 10
641985.4115550042
 20
4849598.645640299
 10
641841.4389281741
 20
4850011.1402460225
  0
LWPOLYLINE
  5
6C
330
17
100
AcDbEntity
  8
ROADS
100
AcDbPolyline
 90
3
 70
0
 10
641438.4985421465
 20
4849683.979470526
 10
641587.8370365415
 20
4849607.001292549
 10
641795.0625200054
 20
4849672.755024364
  0
LWPOLYLINE
  5
6D
330
17
100
AcDbEntity
  8
ROADS
100
AcDbPolyline
 90
3
 70
0
 10
641438.4985421465
 20
4849683.979470526
 10
641540.9793671976
 20
4849863.44925155
 10
641597.9013767835
 20
4849928.569540994
  0
LWPOLYLINE
  5
6E
330
17
100
AcDbEntity
  8
ROADS
100
AcDbPolyline
 90
3
 70
0
 10
641962.5102401471
 20
4850050.353283376
 10
642022.0885659205
 20
4849869.617596625
 10
642134.5217442489
 20
4849898.636988506
  0
LWPOLYLINE
  5
6F
330
17
100
AcDbEntity
  8
ROADS
100
AcDbPolyline
 90
3
 70
0
 10
640002.4370026155
 20
4849484.29867084
 10
639924.3222234208
 20
4849458.9067650065
 10
639893.9717051946
 20
4849535.813563505
  0
LWPOLYLINE
  5
70
330
17
100
AcDbEntity
  8
ROADS
100
AcDbPolyline
 90
2
 70
0
 10
640025.8094806392
 20
4849488.872615736
 10
640159.855371838
 20
4849509.383458834
  0
LWPOLYLINE
  5
71
330
17
100
AcDbEntity
  8
ROADS
100
AcDbPolyline
 90
2
 70
0
 10
640002.4370026155
 20
4849484.29867084
 10
639945.3286574774
 20
4849663.478931854
  0
LWPOLYLINE
  5
72
330
17
100
AcDbEntity
  8
ROADS
100
AcDbPolyline
 90
3
 70
0
 10
639893.9717051946
 20
4849535.813563505
 10
639863.1965833772
 20
4849634.384826339
 10
639945.3286574774
 20
4849663.478931854
  0
LWPOLYLINE
  5
73
330
17
100
AcDbEntity
  8
ROADS
100
AcDbPolyline
 90
7
 70
0
 10
640159.855371838
 20
4849509.383458834
 10
640200.3732974384
 20
4849543.280034307
 10
640184.7379161619
 20
4849603.92287155
 10
640078.4709680169
 20
4849578.436820306
 10
640061.649919752
 20
4849593.3575406
 10
640038.3990638433
 20
4849684.72445812
 10
640071.5105516762
 20
4849734.165408849
  0
LWPOLYLINE
  5
74
330
17
100
AcDbEntity
  8
ROADS
100
AcDbPolyline
 90
2
 70
0
 10
640289.363085116
 20
4849513.324408247
 10
640219.7977381947
 20
4849735.31343924
  0
LWPOLYLINE
  5
75
330
17
100
AcDbEntity
  8
ROADS
100
AcDbPolyline
 90
2
 70
0
 10
639945.3286574774
 20
4849663.478931854
 10
639917.2498072565
 20
4849750.347879563
  0
LWPOLYLINE
  5
76
330
17
100
AcDbEntity
  8
ROADS
100
AcDbPolyline
 90
3
 70
0
 10
640071.5105516762
 20
4849734.165408849
 10
640134.9971226935
 20
4849712.853610897
 10
640219.7977381947
 20
4849735.31343924
  0
LWPOLYLINE
  5
77
330
17
100
AcDbEntity
  8
ROADS
100
AcDbPolyline
 90
2
 70
0
 10
639848.3924502165
 20
4849729.401104473
 10
639917.2498072565
 20
4849750.347879563
  0
LWPOLYLINE
  5
78
330
17
100
AcDbEntity
  8
ROADS
100
AcDbPolyline
 90
2
 70
0
 10
640219.7977381947
 20
4849735.31343924
 10
640290.9245838447
 20
4849757.519487839
  0
LWPOLYLINE
  5
79
330
17
100
AcDbEntity
  8
ROADS
100
AcDbPolyline
 90
2
 70
0
 10
639813.5619787973
 20
4849491.753202937
 10
639769.2191176978
 20
4849478.089390713
  0
LWPOLYLINE
  5
7A
330
17
100
AcDbEntity
  8
ROADS
100
AcDbPolyline
 90
2
 70
0
 10
639304.4037101022
 20
4849479.318553345
 10
639424.2445072791
 20
4849515.332504563
  0
LWPOLYLINE
  5
7B
330
17
100
AcDbEntity
  8
ROADS
100
AcDbPolyline
 90
2
 70
0
 10
639813.5619787973
 20
4849491.753202937
 10
639809.398766123
 20
4849508.078403477
  0
LWPOLYLINE
  5
7C
330
17
100
AcDbEntity
  8
ROADS
100
AcDbPolyline
 90
2
 70
0
 10
639304.4037101022
 20
4849479.318553345
 10
639282.0114252857
 20
4849550.573847579
  0
LWPOLYLINE
  5
7D
330
17
100
AcDbEntity
  8
ROADS
100
AcDbPolyline
 90
2
 70
0
 10
639809.398766123
 20
4849508.078403477
 10
639893.9717051946
 20
4849535.813563505
  0
LWPOLYLINE
  5
7E
330
17
100
AcDbEntity
  8
ROADS
100
AcDbPolyline
 90
2
 70
0
 10
639206.4180641985
 20
4849525.95473984
 10
639282.0114252857
 20
4849550.573847579
  0
LWPOLYLINE
  5
7F
330
17
100
AcDbEntity
  8
ROADS
100
AcDbPolyline
 90
3
 70
0
 10
639809.398766123
 20
4849508.078403477
 10
639771.6300471671
 20
4849626.733932395
 10
639776.8806587883
 20
4849676.841079758
  0
LWPOLYLINE
  5
80
330
17
100
AcDbEntity
  8
ROADS
100
AcDbPolyline
 90
2
 70
0
 10
639424.2445072791
 20
4849515.332504563
 10
639330.069026038
 20
4849738.501150046
  0
LWPOLYLINE
  5
81
330
17
100
AcDbEntity
  8
ROADS
100
AcDbPolyline
 90
7
 70
0
 10
639657.4615461797
 20
4849682.701847405
 10
639637.3360317342
 20
4849688.800789699
 10
639513.58615273
 20
4849652.076853992
 10
639536.7028837621
 20
4849568.164386996
 10
639643.8278850999
 20
4849607.164289569
 10
639665.2557751944
 20
4849634.386260686
 10
639657.4615461797
 20
4849682.701847405
  0
LWPOLYLINE
  5
82
330
17
100
AcDbEntity
  8
ROADS
100
AcDbPolyline
 90
3
 70
0
 10
639282.0114252857
 20
4849550.573847579
 10
639282.3066796504
 20
4849613.919437298
 10
639252.9414825675
 20
4849714.877295673
  0
LWPOLYLINE
  5
83
330
17
100
AcDbEntity
  8
ROADS
100
AcDbPolyline
 90
2
 70
0
 10
640757.8810559172
 20
4849659.7385459505
 10
640737.6744997526
 20
4849674.941978333
  0
LWPOLYLINE
  5
84
330
17
100
AcDbEntity
  8
ROADS
100
AcDbPolyline
 90
2
 70
0
 10
640737.6744997526
 20
4849674.941978333
 10
640751.6572081144
 20
4849689.441829149
  0
LWPOLYLINE
  5
85
330
17
100
AcDbEntity
  8
ROADS
100
AcDbPolyline
 90
2
 70
0
 10
640737.6744997526
 20
4849674.941978333
 10
640736.4242401773
 20
4849696.638555347
  0
LWPOLYLINE
  5
86
330
17
100
AcDbEntity
  8
ROADS
100
AcDbPolyline
 90
2
 70
0
 10
640751.6572081144
 20
4849689.441829149
 10
640736.4242401773
 20
4849696.638555347
  0
LWPOLYLINE
  5
87
330
17
100
AcDbEntity
  8
ROADS
100
AcDbPolyline
 90
3
 70
0
 10
640891.5014113917
 20
4849709.376795519
 10
640786.6558853899
 20
4849678.399850744
 10
640751.6572081144
 20
4849689.441829149
  0
LWPOLYLINE
  5
88
330
17
100
AcDbEntity
  8
ROADS
100
AcDbPolyline
 90
2
 70
0
 10
640736.4242401773
 20
4849696.638555347
 10
640624.0263921148
 20
4849815.366128641
  0
LWPOLYLINE
  5
89
330
17
100
AcDbEntity
  8
ROADS
100
AcDbPolyline
 90
3
 70
0
 10
641438.4985421465
 20
4849683.979470526
 10
641371.7822493428
 20
4849771.580780756
 10
641346.0182645922
 20
4849844.61058671
  0
LWPOLYLINE
  5
8A
330
17
100
AcDbEntity
  8
ROADS
100
AcDbPolyline
 90
5
 70
0
 10
640650.4445049925
 20
4849862.308637177
 10
640761.3667687578
 20
4849767.447788802
 10
640795.3690352039
 20
4849757.250850503
 10
640950.0692378767
 20
4849799.512344601
 10
641039.8066252416
 20
4849848.5694589885
  0
LWPOLYLINE
  5
8B
330
17
100
AcDbEntity
  8
ROADS
100
AcDbPolyline
 90
2
 70
0
 10
640624.0263921148
 20
4849815.366128641
 10
640583.2414558637
 20
4849852.107871929
  0
LWPOLYLINE
  5
8C
330
17
100
AcDbEntity
  8
ROADS
100
AcDbPolyline
 90
2
 70
0
 10
640624.0263921148
 20
4849815.366128641
 10
640625.6328889616
 20
4849862.754095778
  0
LWPOLYLINE
  5
8D
330
17
100
AcDbEntity
  8
ROADS
100
AcDbPolyline
 90
2
 70
0
 10
640022.0393869379
 20
4849765.467160143
 10
640071.5105516762
 20
4849734.165408849
  0
LWPOLYLINE
  5
8E
330
17
100
AcDbEntity
  8
ROADS
100
AcDbPolyline
 90
5
 70
0
 10
640290.9245838447
 20
4849757.519487839
 10
640317.0416381382
 20
4849675.100349163
 10
640524.711585677
 20
4849737.475594839
 10
640541.0939663415
 20
4849758.794617867
 10
640506.0615430064
 20
4849826.170722597
  0
LWPOLYLINE
  5
8F
330
17
100
AcDbEntity
  8
ROADS
100
AcDbPolyline
 90
2
 70
0
 10
639917.2498072565
 20
4849750.347879563
 10
640022.0393869379
 20
4849765.467160143
  0
LWPOLYLINE
  5
90
330
17
100
AcDbEntity
  8
ROADS
100
AcDbPolyline
 90
2
 70
0
 10
640290.9245838447
 20
4849757.519487839
 10
640421.8240183587
 20
4849800.283707176
  0
LWPOLYLINE
  5
91
330
17
100
AcDbEntity
  8
ROADS
100
AcDbPolyline
 90
2
 70
0
 10
640421.8240183587
 20
4849800.283707176
 10
640506.0615430064
 20
4849826.170722597
  0
LWPOLYLINE
  5
92
330
17
100
AcDbEntity
  8
ROADS
100
AcDbPolyline
 90
4
 70
0
 10
639819.6046181367
 20
4849817.644312698
 10
640029.4795936339
 20
4849884.757991821
 10
640039.1418242146
 20
4849838.110372051
 10
640022.0393869379
 20
4849765.467160143
  0
LWPOLYLINE
  5
93
330
17
100
AcDbEntity
  8
ROADS
100
AcDbPolyline
 90
3
 70
0
 10
640376.9808502196
 20
4849876.144876
 10
640401.7053240478
 20
4849858.432081392
 10
640421.8240183587
 20
4849800.283707176
  0
LWPOLYLINE
  5
94
330
17
100
AcDbEntity
  8
ROADS
100
AcDbPolyline
 90
2
 70
0
 10
640506.0615430064
 20
4849826.170722597
 10
640583.2414558637
 20
4849852.107871929
  0
LWPOLYLINE
  5
95
330
17
100
AcDbEntity
  8
ROADS
100
AcDbPolyline
 90
3
 70
0
 10
640219.7977381947
 20
4849735.31343924
 10
640126.3801082945
 20
4849887.035070321
 10
640089.3182066681
 20
4849980.08889508
  0
LWPOLYLINE
  5
96
330
17
100
AcDbEntity
  8
ROADS
100
AcDbPolyline
 90
2
 70
0
 10
639797.8639433135
 20
4849889.084520813
 10
640089.3182066681
 20
4849980.08889508
  0
LWPOLYLINE
  5
97
330
17
100
AcDbEntity
  8
ROADS
100
AcDbPolyline
 90
2
 70
0
 10
640583.2414558637
 20
4849852.107871929
 10
640625.6328889616
 20
4849862.754095778
  0
LWPOLYLINE
  5
98
330
17
100
AcDbEntity
  8
ROADS
100
AcDbPolyline
 90
2
 70
0
 10
640625.6328889616
 20
4849862.754095778
 10
640650.4445049925
 20
4849862.308637177
  0
LWPOLYLINE
  5
99
330
17
100
AcDbEntity
  8
ROADS
100
AcDbPolyline
 90
2
 70
0
 10
641039.8066252416
 20
4849848.5694589885
 10
641210.1810782391
 20
4849901.895196323
  0
LWPOLYLINE
  5
9A
330
17
100
AcDbEntity
  8
ROADS
100
AcDbPolyline
 90
2
 70
0
 10
641039.8066252416
 20
4849848.5694589885
 10
641014.0043130749
 20
4849925.866934841
  0
LWPOLYLINE
  5
9B
330
17
100
AcDbEntity
  8
ROADS
100
AcDbPolyline
 90
2
 70
0
 10
641210.1810782391
 20
4849901.895196323
 10
641300.562299139
 20
4849931.100966733
  0
LWPOLYLINE
  5
9C
330
17
100
AcDbEntity
  8
ROADS
100
AcDbPolyline
 90
3
 70
0
 10
640650.4445049925
 20
4849862.308637177
 10
640656.1234525195
 20
4849899.043308782
 10
640624.2837523998
 20
4849971.8588333335
  0
LWPOLYLINE
  5
9D
330
17
100
AcDbEntity
  8
ROADS
100
AcDbPolyline
 90
5
 70
0
 10
641014.0043130749
 20
4849925.866934841
 10
640810.0437753797
 20
4849852.382556074
 10
640744.547104188
 20
4849909.828666223
 10
640755.1189142949
 20
4849925.130803626
 10
640989.1835085973
 20
4850004.686342073
  0
LWPOLYLINE
  5
9E
330
17
100
AcDbEntity
  8
ROADS
100
AcDbPolyline
 90
2
 70
0
 10
641300.562299139
 20
4849931.100966733
 10
641385.8887369722
 20
4849957.341847768
  0
LWPOLYLINE
  5
9F
330
17
100
AcDbEntity
  8
ROADS
100
AcDbPolyline
 90
2
 70
0
 10
641014.0043130749
 20
4849925.866934841
 10
640989.1835085973
 20
4850004.686342073
  0
LWPOLYLINE
  5
A0
330
17
100
AcDbEntity
  8
ROADS
100
AcDbPolyline
 90
2
 70
0
 10
641210.1810782391
 20
4849901.895196323
 10
641156.108627896
 20
4850130.963240939
  0
LWPOLYLINE
  5
A1
330
17
100
AcDbEntity
  8
ROADS
100
AcDbPolyline
 90
2
 70
0
 10
641597.9013767835
 20
4849928.569540994
 10
641841.4389281741
 20
4850011.1402460225
  0
LWPOLYLINE
  5
A2
330
17
100
AcDbEntity
  8
ROADS
100
AcDbPolyline
 90
2
 70
0
 10
641385.8887369722
 20
4849957.341847768
 10
641442.0336443061
 20
4849983.112913063
  0
LWPOLYLINE
  5
A3
330
17
100
AcDbEntity
  8
ROADS
100
AcDbPolyline
 90
4
 70
0
 10
641442.0336443061
 20
4849983.112913063
 10
641474.7037855203
 20
4849943.504747108
 10
641517.5710316696
 20
4849993.076724375
 10
641478.052810609
 20
4850031.65569201
  0
LWPOLYLINE
  5
A4
330
17
100
AcDbEntity
  8
ROADS
100
AcDbPolyline
 90
2
 70
0
 10
642134.5217442489
 20
4849898.636988506
 10
642072.0856594782
 20
4850085.576609331
  0
LWPOLYLINE
  5
A5
330
17
100
AcDbEntity
  8
ROADS
100
AcDbPolyline
 90
3
 70
0
 10
641597.9013767835
 20
4849928.569540994
 10
641562.349380724
 20
4849988.01959221
 10
641543.2902720085
 20
4850062.968121974
  0
LWPOLYLINE
  5
A6
330
17
100
AcDbEntity
  8
ROADS
100
AcDbPolyline
 90
2
 70
0
 10
641442.0336443061
 20
4849983.112913063
 10
641460.9425337554
 20
4850008.890255158
  0
LWPOLYLINE
  5
A7
330
17
100
AcDbEntity
  8
ROADS
100
AcDbPolyline
 90
2
 70
0
 10
641460.9425337554
 20
4850008.890255158
 10
641478.052810609
 20
4850031.65569201
  0
LWPOLYLINE
  5
A8
330
17
100
AcDbEntity
  8
ROADS
100
AcDbPolyline
 90
2
 70
0
 10
641460.9425337554
 20
4850008.890255158
 10
641443.727923533
 20
4850033.933947333
  0
LWPOLYLINE
  5
A9
330
17
100
AcDbEntity
  8
ROADS
100
AcDbPolyline
 90
2
 70
0
 10
641841.4389281741
 20
4850011.1402460225
 10
641962.5102401471
 20
4850050.353283376
  0
LWPOLYLINE
  5
AA
330
17
100
AcDbEntity
  8
ROADS
100
AcDbPolyline
 90
2
 70
0
 10
641478.052810609
 20
4850031.65569201
 10
641543.2902720085
 20
4850062.968121974
  0
LWPOLYLINE
  5
AB
330
17
100
AcDbEntity
  8
ROADS
100
AcDbPolyline
 90
4
 70
0
 10
642482.4556449363
 20
4850024.780838185
 10
642438.5935610413
 20
4850011.706987379
 10
642412.0699418555
 20
4850023.22761126
 10
642365.843465088
 20
4850179.264770916
  0
LWPOLYLINE
  5
AC
330
17
100
AcDbEntity
  8
ROADS
100
AcDbPolyline
 90
2
 70
0
 10
642206.6658523869
 20
4850130.178067754
 10
642365.843465088
 20
4850179.264770916
  0
LWPOLYLINE
  5
AD
330
17
100
AcDbEntity
  8
ROADS
100
AcDbPolyline
 90
2
 70
0
 10
642365.843465088
 20
4850179.264770916
 10
642432.5799901083
 20
4850200.1063445015
  0
LWPOLYLINE
  5
AE
330
17
100
AcDbEntity
  8
ROADS
100
AcDbPolyline
 90
5
 70
0
 10
642308.5889247742
 20
4850237.5055298
 10
642246.7928335879
 20
4850226.162501273
 10
642256.1160936393
 20
4850195.962205919
 10
642315.5939651632
 20
4850211.773701331
 10
642308.5889247742
 20
4850237.5055298
  0
LWPOLYLINE
  5
AF
330
17
100
AcDbEntity
  8
ROADS
100
AcDbPolyline
 90
2
 70
0
 10
642432.5799901083
 20
4850200.1063445015
 10
642400.2108768919
 20
4850245.281655083
  0
LWPOLYLINE
  5
B0
330
17
100
AcDbEntity
  8
ROADS
100
AcDbPolyline
 90
2
 70
0
 10
642400.2108768919
 20
4850245.281655083
 10
642319.771653686
 20
4850218.217098183
  0
LWPOLYLINE
  5
B1
330
17
100
AcDbEntity
  8
ROADS
100
AcDbPolyline
 90
2
 70
0
 10
642305.0358979306
 20
4850274.07307664
 10
642308.5889247742
 20
4850237.5055298
  0
LWPOLYLINE
  5
B2
330
17
100
AcDbEntity
  8
ROADS
100
AcDbPolyline
 90
2
 70
0
 10
642400.2108768919
 20
4850245.281655083
 10
642374.6093986107
 20
4850282.901780968
  0
LWPOLYLINE
  5
B3
330
17
100
AcDbEntity
  8
ROADS
100
AcDbPolyline
 90
2
 70
0
 10
642251.3654151618
 20
4850275.933704248
 10
642305.0358979306
 20
4850274.07307664
  0
LWPOLYLINE
  5
B4
330
17
100
AcDbEntity
  8
ROADS
100
AcDbPolyline
 90
2
 70
0
 10
642174.231095912
 20
4850278.916258709
 10
642251.3654151618
 20
4850275.933704248
  0
LWPOLYLINE
  5
B5
330
17
100
AcDbEntity
  8
ROADS
100
AcDbPolyline
 90
2
 70
0
 10
642305.0358979306
 20
4850274.07307664
 10
642374.6093986107
 20
4850282.901780968
  0
LWPOLYLINE
  5
B6
330
17
100
AcDbEntity
  8
ROADS
100
AcDbPolyline
 90
2
 70
0
 10
642374.6093986107
 20
4850282.901780968
 10
642399.6321582305
 20
4850302.1022929875
  0
LWPOLYLINE
  5
B7
330
17
100
AcDbEntity
  8
ROADS
100
AcDbPolyline
 90
2
 70
0
 10
642251.3654151618
 20
4850275.933704248
 10
642256.4650390634
 20
4850317.372564726
  0
LWPOLYLINE
  5
B8
330
17
100
AcDbEntity
  8
ROADS
100
AcDbPolyline
 90
2
 70
0
 10
642399.6321582305
 20
4850302.1022929875
 10
642371.1697890534
 20
4850328.055314644
  0
LWPOLYLINE
  5
B9
330
17
100
AcDbEntity
  8
ROADS
100
AcDbPolyline
 90
2
 70
0
 10
642327.4687924734
 20
4850312.840757621
 10
642256.4650390634
 20
4850317.372564726
  0
LWPOLYLINE
  5
BA
330
17
100
AcDbEntity
  8
ROADS
100
AcDbPolyline
 90
2
 70
0
 10
642371.1697890534
 20
4850328.055314644
 10
642327.4687924734
 20
4850312.840757621
  0
LWPOLYLINE
  5
BB
330
17
100
AcDbEntity
  8
ROADS
100
AcDbPolyline
 90
2
 70
0
 10
642327.4687924734
 20
4850312.840757621
 10
642328.6112674478
 20
4850337.709136209
  0
LWPOLYLINE
  5
BC
330
17
100
AcDbEntity
  8
ROADS
100
AcDbPolyline
 90
2
 70
0
 10
642256.4650390634
 20
4850317.372564726
 10
642262.947712099
 20
4850350.3735832125
  0
LWPOLYLINE
  5
BD
330
17
100
AcDbEntity
  8
ROADS
100
AcDbPolyline
 90
2
 70
0
 10
642399.6321582305
 20
4850302.1022929875
 10
642436.1026813632
 20
4850380.540648384
  0
LWPOLYLINE
  5
BE
330
17
100
AcDbEntity
  8
ROADS
100
AcDbPolyline
 90
2
 70
0
 10
642262.947712099
 20
4850350.3735832125
 10
642328.6112674478
 20
4850337.709136209
  0
LWPOLYLINE
  5
BF
330
17
100
AcDbEntity
  8
ROADS
100
AcDbPolyline
 90
2
 70
0
 10
642328.6112674478
 20
4850337.709136209
 10
642336.0116711804
 20
4850363.059969553
  0
LWPOLYLINE
  5
C0
330
17
100
AcDbEntity
  8
ROADS
100
AcDbPolyline
 90
2
 70
0
 10
642371.1697890534
 20
4850328.055314644
 10
642397.968849087
 20
4850392.499895902
  0
LWPOLYLINE
  5
C1
330
17
100
AcDbEntity
  8
ROADS
100
AcDbPolyline
 90
3
 70
0
 10
642371.1697890534
 20
4850328.055314644
 10
642356.4804950773
 20
4850339.131317635
 10
642373.4129099856
 20
4850400.103724035
  0
LWPOLYLINE
  5
C2
330
17
100
AcDbEntity
  8
ROADS
100
AcDbPolyline
 90
2
 70
0
 10
642262.947712099
 20
4850350.3735832125
 10
642270.5565651691
 20
4850379.894637276
  0
LWPOLYLINE
  5
C3
330
17
100
AcDbEntity
  8
ROADS
100
AcDbPolyline
 90
2
 70
0
 10
642270.5565651691
 20
4850379.894637276
 10
642336.0116711804
 20
4850363.059969553
  0
LWPOLYLINE
  5
C4
330
17
100
AcDbEntity
  8
ROADS
100
AcDbPolyline
 90
2
 70
0
 10
642336.0116711804
 20
4850363.059969553
 10
642355.7210567158
 20
4850397.534843751
  0
LWPOLYLINE
  5
C5
330
17
100
AcDbEntity
  8
ROADS
100
AcDbPolyline
 90
2
 70
0
 10
642397.968849087
 20
4850392.499895902
 10
642436.1026813632
 20
4850380.540648384
  0
LWPOLYLINE
  5
C6
330
17
100
AcDbEntity
  8
ROADS
100
AcDbPolyline
 90
2
 70
0
 10
642270.5565651691
 20
4850379.894637276
 10
642274.7188733462
 20
4850400.706300254
  0
LWPOLYLINE
  5
C7
330
17
100
AcDbEntity
  8
ROADS
100
AcDbPolyline
 90
2
 70
0
 10
642373.4129099856
 20
4850400.103724035
 10
642397.968849087
 20
4850392.499895902
  0
LWPOLYLINE
  5
C8
330
17
100
AcDbEntity
  8
ROADS
100
AcDbPolyline
 90
2
 70
0
 10
642355.7210567158
 20
4850397.534843751
 10
642373.4129099856
 20
4850400.103724035
  0
LWPOLYLINE
  5
C9
330
17
100
AcDbEntity
  8
ROADS
100
AcDbPolyline
 90
2
 70
0
 10
642436.1026813632
 20
4850380.540648384
 10
642450.169820536
 20
4850427.963685102
  0
LWPOLYLINE
  5
CA
330
17
100
AcDbEntity
  8
ROADS
100
AcDbPolyline
 90
3
 70
0
 10
642373.4129099856
 20
4850400.103724035
 10
642361.2219107198
 20
4850411.592041437
 10
642355.7210567158
 20
4850397.534843751
  0
LWPOLYLINE
  5
CB
330
17
100
AcDbEntity
  8
ROADS
100
AcDbPolyline
 90
2
 70
0
 10
642432.5799901083
 20
4850200.1063445015
 10
642545.3346849295
 20
4850274.9780129045
  0
LWPOLYLINE
  5
CC
330
17
100
AcDbEntity
  8
ROADS
100
AcDbPolyline
 90
2
 70
0
 10
642274.7188733462
 20
4850400.706300254
 10
642195.3586723447
 20
4850429.163220678
  0
LWPOLYLINE
  5
CD
330
17
100
AcDbEntity
  8
ROADS
100
AcDbPolyline
 90
2
 70
0
 10
642397.968849087
 20
4850392.499895902
 10
642415.3042859095
 20
4850439.732634231
  0
LWPOLYLINE
  5
CE
330
17
100
AcDbEntity
  8
ROADS
100
AcDbPolyline
 90
4
 70
0
 10
642274.7188733462
 20
4850400.706300254
 10
642292.3553564479
 20
4850421.588145068
 10
642386.905203742
 20
4850448.866480028
 10
642415.3042859095
 20
4850439.732634231
  0
LWPOLYLINE
  5
CF
330
17
100
AcDbEntity
  8
ROADS
100
AcDbPolyline
 90
2
 70
0
 10
642415.3042859095
 20
4850439.732634231
 10
642450.169820536
 20
4850427.963685102
  0
LWPOLYLINE
  5
D0
330
17
100
AcDbEntity
  8
ROADS
100
AcDbPolyline
 90
3
 70
0
 10
642487.3851184138
 20
4850470.383670676
 10
642515.6549426143
 20
4850428.043890402
 10
642521.124007071
 20
4850445.262361063
  0
LWPOLYLINE
  5
D1
330
17
100
AcDbEntity
  8
ROADS
100
AcDbPolyline
 90
2
 70
0
 10
642521.124007071
 20
4850445.262361063
 10
642541.3629022527
 20
4850440.748412139
  0
LWPOLYLINE
  5
D2
330
17
100
AcDbEntity
  8
ROADS
100
AcDbPolyline
 90
2
 70
0
 10
642537.9415258217
 20
4850461.745933122
 10
642535.8361861386
 20
4850467.229347364
  0
LWPOLYLINE
  5
D3
330
17
100
AcDbEntity
  8
ROADS
100
AcDbPolyline
 90
2
 70
0
 10
642521.124007071
 20
4850445.262361063
 10
642535.8361861386
 20
4850467.229347364
  0
LWPOLYLINE
  5
D4
330
17
100
AcDbEntity
  8
ROADS
100
AcDbPolyline
 90
3
 70
0
 10
642521.124007071
 20
4850445.262361063
 10
642506.1304658516
 20
4850463.302603528
 10
642535.8361861386
 20
4850467.229347364
  0
LWPOLYLINE
  5
D5
330
17
100
AcDbEntity
  8
ROADS
100
AcDbPolyline
 90
2
 70
0
 10
642450.169820536
 20
4850427.963685102
 10
642480.6621663028
 20
4850485.019420329
  0
LWPOLYLINE
  5
D6
330
17
100
AcDbEntity
  8
ROADS
100
AcDbPolyline
 90
2
 70
0
 10
642487.3851184138
 20
4850470.383670676
 10
642535.8361861386
 20
4850467.229347364
  0
LWPOLYLINE
  5
D7
330
17
100
AcDbEntity
  8
ROADS
100
AcDbPolyline
 90
2
 70
0
 10
642487.3851184138
 20
4850470.383670676
 10
642480.6621663028
 20
4850485.019420329
  0
LWPOLYLINE
  5
D8
330
17
100
AcDbEntity
  8
ROADS
100
AcDbPolyline
 90
2
 70
0
 10
642535.8361861386
 20
4850467.229347364
 10
642536.8710403832
 20
4850468.315669282
  0
LWPOLYLINE
  5
D9
330
17
100
AcDbEntity
  8
ROADS
100
AcDbPolyline
 90
2
 70
0
 10
642480.6621663028
 20
4850485.019420329
 10
642528.4879597565
 20
4850514.582207848
  0
LWPOLYLINE
  5
DA
330
17
100
AcDbEntity
  8
ROADS
100
AcDbPolyline
 90
6
 70
0
 10
642480.6621663028
 20
4850485.019420329
 10
642401.3758560603
 20
4850530.089469199
 10
642229.6912902992
 20
4850490.971015735
 10
642255.7842280532
 20
4850582.4546906
 10
642410.9172237456
 20
4850631.273288923
 10
642514.5042062352
 20
4850567.828971055
  0
LWPOLYLINE
  5
DB
330
17
100
AcDbEntity
  8
ROADS
100
AcDbPolyline
 90
2
 70
0
 10
640624.2837523998
 20
4849971.8588333335
 10
640887.0920329978
 20
4850062.1303338725
  0
LWPOLYLINE
  5
DC
330
17
100
AcDbEntity
  8
ROADS
100
AcDbPolyline
 90
2
 70
0
 10
641300.562299139
 20
4849931.100966733
 10
641234.8165232402
 20
4850144.610914533
  0
LWPOLYLINE
  5
DD
330
17
100
AcDbEntity
  8
ROADS
100
AcDbPolyline
 90
2
 70
0
 10
640989.1835085973
 20
4850004.686342073
 10
640962.0610530677
 20
4850094.3991581425
  0
LWPOLYLINE
  5
DE
330
17
100
AcDbEntity
  8
ROADS
100
AcDbPolyline
 90
5
 70
0
 10
640624.2837523998
 20
4849971.8588333335
 10
640594.8539090265
 20
4850056.284201411
 10
640639.4360826287
 20
4850078.380323292
 10
640846.432701331
 20
4850141.604761849
 10
640887.0920329978
 20
4850062.1303338725
  0
LWPOLYLINE
  5
DF
330
17
100
AcDbEntity
  8
ROADS
100
AcDbPolyline
 90
2
 70
0
 10
641385.8887369722
 20
4849957.341847768
 10
641326.1140110446
 20
4850169.44689894
  0
LWPOLYLINE
  5
E0
330
17
100
AcDbEntity
  8
ROADS
100
AcDbPolyline
 90
5
 70
0
 10
641093.2197719571
 20
4850111.003570622
 10
641046.982971487
 20
4850091.412692526
 10
641064.1107855182
 20
4850040.032726022
 10
641111.2092605804
 20
4850051.8103997875
 10
641093.2197719571
 20
4850111.003570622
  0
LWPOLYLINE
  5
E1
330
17
100
AcDbEntity
  8
ROADS
100
AcDbPolyline
 90
2
 70
0
 10
640887.0920329978
 20
4850062.1303338725
 10
640962.0610530677
 20
4850094.3991581425
  0
LWPOLYLINE
  5
E2
330
17
100
AcDbEntity
  8
ROADS
100
AcDbPolyline
 90
2
 70
0
 10
640962.0610530677
 20
4850094.3991581425
 10
640950.584058795
 20
4850133.625246274
  0
LWPOLYLINE
  5
E3
330
17
100
AcDbEntity
  8
ROADS
100
AcDbPolyline
 90
2
 70
0
 10
641156.108627896
 20
4850130.963240939
 10
641093.2197719571
 20
4850111.003570622
  0
LWPOLYLINE
  5
E4
330
17
100
AcDbEntity
  8
ROADS
100
AcDbPolyline
 90
2
 70
0
 10
641234.8165232402
 20
4850144.610914533
 10
641156.108627896
 20
4850130.963240939
  0
LWPOLYLINE
  5
E5
330
17
100
AcDbEntity
  8
ROADS
100
AcDbPolyline
 90
2
 70
0
 10
641962.5102401471
 20
4850050.353283376
 10
641984.2741260746
 20
4850057.275393929
  0
LWPOLYLINE
  5
E6
330
17
100
AcDbEntity
  8
ROADS
100
AcDbPolyline
 90
2
 70
0
 10
641443.727923533
 20
4850033.933947333
 10
641429.0227451291
 20
4850075.468839288
  0
LWPOLYLINE
  5
E7
330
17
100
AcDbEntity
  8
ROADS
100
AcDbPolyline
 90
2
 70
0
 10
641443.727923533
 20
4850033.933947333
 10
641523.9515499341
 20
4850076.692136676
  0
LWPOLYLINE
  5
E8
330
17
100
AcDbEntity
  8
ROADS
100
AcDbPolyline
 90
2
 70
0
 10
641984.2741260746
 20
4850057.275393929
 10
642072.0856594782
 20
4850085.576609331
  0
LWPOLYLINE
  5
E9
330
17
100
AcDbEntity
  8
ROADS
100
AcDbPolyline
 90
2
 70
0
 10
641543.2902720085
 20
4850062.968121974
 10
641536.8332895016
 20
4850115.852682421
  0
LWPOLYLINE
  5
EA
330
17
100
AcDbEntity
  8
ROADS
100
AcDbPolyline
 90
2
 70
0
 10
642072.0856594782
 20
4850085.576609331
 10
642132.5405056425
 20
4850105.091176641
  0
LWPOLYLINE
  5
EB
330
17
100
AcDbEntity
  8
ROADS
100
AcDbPolyline
 90
4
 70
0
 10
641574.2084088849
 20
4850127.0451260535
 10
641593.4490101426
 20
4850043.351959942
 10
641653.5107476823
 20
4850058.505909476
 10
641635.7212016061
 20
4850147.832978541
  0
LWPOLYLINE
  5
EC
330
17
100
AcDbEntity
  8
ROADS
100
AcDbPolyline
 90
2
 70
0
 10
642132.5405056425
 20
4850105.091176641
 10
642206.6658523869
 20
4850130.178067754
  0
LWPOLYLINE
  5
ED
330
17
100
AcDbEntity
  8
ROADS
100
AcDbPolyline
 90
2
 70
0
 10
641841.4389281741
 20
4850011.1402460225
 10
641779.3145160722
 20
4850227.953996373
  0
LWPOLYLINE
  5
EE
330
17
100
AcDbEntity
  8
ROADS
100
AcDbPolyline
 90
2
 70
0
 10
642072.0856594782
 20
4850085.576609331
 10
642064.5882978237
 20
4850153.596016413
  0
LWPOLYLINE
  5
EF
330
17
100
AcDbEntity
  8
ROADS
100
AcDbPolyline
 90
2
 70
0
 10
641536.8332895016
 20
4850115.852682421
 10
641574.2084088849
 20
4850127.0451260535
  0
LWPOLYLINE
  5
F0
330
17
100
AcDbEntity
  8
ROADS
100
AcDbPolyline
 90
3
 70
0
 10
642132.5405056425
 20
4850105.091176641
 10
642122.1057770161
 20
4850134.9802893195
 10
642134.7667031172
 20
4850153.711719309
  0
LWPOLYLINE
  5
F1
330
17
100
AcDbEntity
  8
ROADS
100
AcDbPolyline
 90
2
 70
0
 10
641574.2084088849
 20
4850127.0451260535
 10
641635.7212016061
 20
4850147.832978541
  0
LWPOLYLINE
  5
F2
330
17
100
AcDbEntity
  8
ROADS
100
AcDbPolyline
 90
2
 70
0
 10
641536.8332895016
 20
4850115.852682421
 10
641528.1700472408
 20
4850183.362300162
  0
LWPOLYLINE
  5
F3
330
17
100
AcDbEntity
  8
ROADS
100
AcDbPolyline
 90
2
 70
0
 10
642206.6658523869
 20
4850130.178067754
 10
642193.6660621588
 20
4850171.312910516
  0
LWPOLYLINE
  5
F4
330
17
100
AcDbEntity
  8
ROADS
100
AcDbPolyline
 90
2
 70
0
 10
641635.7212016061
 20
4850147.832978541
 10
641674.094255231
 20
4850160.911711531
  0
LWPOLYLINE
  5
F5
330
17
100
AcDbEntity
  8
ROADS
100
AcDbPolyline
 90
4
 70
0
 10
641472.3054536285
 20
4850166.570717581
 10
641476.2037213508
 20
4850130.818602028
 10
641422.6261149119
 20
4850115.476124543
 10
641394.8115839662
 20
4850200.826049743
  0
LWPOLYLINE
  5
F6
330
17
100
AcDbEntity
  8
ROADS
100
AcDbPolyline
 90
2
 70
0
 10
642134.7667031172
 20
4850153.711719309
 10
642193.6660621588
 20
4850171.312910516
  0
LWPOLYLINE
  5
F7
330
17
100
AcDbEntity
  8
ROADS
100
AcDbPolyline
 90
2
 70
0
 10
641984.2741260746
 20
4850057.275393929
 10
641916.7799482737
 20
4850269.62694741
  0
LWPOLYLINE
  5
F8
330
17
100
AcDbEntity
  8
ROADS
100
AcDbPolyline
 90
2
 70
0
 10
642134.7667031172
 20
4850153.711719309
 10
642128.5831250793
 20
4850177.602223689
  0
LWPOLYLINE
  5
F9
330
17
100
AcDbEntity
  8
ROADS
100
AcDbPolyline
 90
2
 70
0
 10
640950.584058795
 20
4850133.625246274
 10
641025.0309621408
 20
4850157.178727369
  0
LWPOLYLINE
  5
FA
330
17
100
AcDbEntity
  8
ROADS
100
AcDbPolyline
 90
2
 70
0
 10
641326.1140110446
 20
4850169.44689894
 10
641234.8165232402
 20
4850144.610914533
  0
LWPOLYLINE
  5
FB
330
17
100
AcDbEntity
  8
ROADS
100
AcDbPolyline
 90
2
 70
0
 10
641234.8165232402
 20
4850144.610914533
 10
641213.2748428874
 20
4850217.9202050315
  0
LWPOLYLINE
  5
FC
330
17
100
AcDbEntity
  8
ROADS
100
AcDbPolyline
 90
2
 70
0
 10
641394.8115839662
 20
4850200.826049743
 10
641326.1140110446
 20
4850169.44689894
  0
LWPOLYLINE
  5
FD
330
17
100
AcDbEntity
  8
ROADS
100
AcDbPolyline
 90
2
 70
0
 10
640950.584058795
 20
4850133.625246274
 10
640915.2459680535
 20
4850244.239326801
  0
LWPOLYLINE
  5
FE
330
17
100
AcDbEntity
  8
ROADS
100
AcDbPolyline
 90
5
 70
0
 10
641025.0309621408
 20
4850157.178727369
 10
641005.62740542
 20
4850219.291555847
 10
641061.1551389737
 20
4850237.448662588
 10
641078.8857774064
 20
4850174.218393906
 10
641025.0309621408
 20
4850157.178727369
  0
LWPOLYLINE
  5
FF
330
17
100
AcDbEntity
  8
ROADS
100
AcDbPolyline
 90
2
 70
0
 10
641394.8115839662
 20
4850200.826049743
 10
641385.7887884948
 20
4850230.396646143
  0
LWPOLYLINE
  5
100
330
17
100
AcDbEntity
  8
ROADS
100
AcDbPolyline
 90
3
 70
0
 10
641213.2748428874
 20
4850217.9202050315
 10
641144.3249293647
 20
4850196.107489935
 10
641131.845787657
 20
4850253.104284717
  0
LWPOLYLINE
  5
101
330
17
100
AcDbEntity
  8
ROADS
100
AcDbPolyline
 90
2
 70
0
 10
640877.9070434276
 20
4850232.40598063
 10
640915.2459680535
 20
4850244.239326801
  0
LWPOLYLINE
  5
102
330
17
100
AcDbEntity
  8
ROADS
100
AcDbPolyline
 90
3
 70
0
 10
641213.2748428874
 20
4850217.9202050315
 10
641277.6937727261
 20
4850240.699923412
 10
641254.096267169
 20
4850289.650420247
  0
LWPOLYLINE
  5
103
330
17
100
AcDbEntity
  8
ROADS
100
AcDbPolyline
 90
2
 70
0
 10
642064.5882978237
 20
4850153.596016413
 10
642115.5435911668
 20
4850187.48799293
  0
LWPOLYLINE
  5
104
330
17
100
AcDbEntity
  8
ROADS
100
AcDbPolyline
 90
2
 70
0
 10
641472.3054536285
 20
4850166.570717581
 10
641528.1700472408
 20
4850183.362300162
  0
LWPOLYLINE
  5
105
330
17
100
AcDbEntity
  8
ROADS
100
AcDbPolyline
 90
2
 70
0
 10
642064.5882978237
 20
4850153.596016413
 10
642069.1553408293
 20
4850204.556217982
  0
LWPOLYLINE
  5
106
330
17
100
AcDbEntity
  8
ROADS
100
AcDbPolyline
 90
2
 70
0
 10
642069.1553408293
 20
4850204.556217982
 10
642115.5435911668
 20
4850187.48799293
  0
LWPOLYLINE
  5
107
330
17
100
AcDbEntity
  8
ROADS
100
AcDbPolyline
 90
2
 70
0
 10
641445.4627196987
 20
4850249.066961961
 10
641472.3054536285
 20
4850166.570717581
  0
LWPOLYLINE
  5
108
330
17
100
AcDbEntity
  8
ROADS
100
AcDbPolyline
 90
3
 70
0
 10
642193.6660621588
 20
4850171.312910516
 10
642170.4277150007
 20
4850236.367779427
 10
642174.231095912
 20
4850278.916258709
  0
LWPOLYLINE
  5
109
330
17
100
AcDbEntity
  8
ROADS
100
AcDbPolyline
 90
2
 70
0
 10
641528.1700472408
 20
4850183.362300162
 10
641506.0917699683
 20
4850269.226748745
  0
LWPOLYLINE
  5
10A
330
17
100
AcDbEntity
  8
ROADS
100
AcDbPolyline
 90
3
 70
0
 10
641528.1700472408
 20
4850183.362300162
 10
641613.8873580733
 20
4850210.607951268
 10
641599.017417361
 20
4850277.732568812
  0
LWPOLYLINE
  5
10B
330
17
100
AcDbEntity
  8
ROADS
100
AcDbPolyline
 90
2
 70
0
 10
642115.5435911668
 20
4850187.48799293
 10
642147.6058375706
 20
4850278.644414862
  0
LWPOLYLINE
  5
10C
330
17
100
AcDbEntity
  8
ROADS
100
AcDbPolyline
 90
2
 70
0
 10
641385.7887884948
 20
4850230.396646143
 10
641445.4627196987
 20
4850249.066961961
  0
LWPOLYLINE
  5
10D
330
17
100
AcDbEntity
  8
ROADS
100
AcDbPolyline
 90
2
 70
0
 10
641779.3145160722
 20
4850227.953996373
 10
641916.7799482737
 20
4850269.62694741
  0
LWPOLYLINE
  5
10E
330
17
100
AcDbEntity
  8
ROADS
100
AcDbPolyline
 90
2
 70
0
 10
641445.4627196987
 20
4850249.066961961
 10
641506.0917699683
 20
4850269.226748745
  0
LWPOLYLINE
  5
10F
330
17
100
AcDbEntity
  8
ROADS
100
AcDbPolyline
 90
2
 70
0
 10
642069.1553408293
 20
4850204.556217982
 10
642074.6573585307
 20
4850320.143267903
  0
LWPOLYLINE
  5
110
330
17
100
AcDbEntity
  8
ROADS
100
AcDbPolyline
 90
2
 70
0
 10
642147.6058375706
 20
4850278.644414862
 10
642174.231095912
 20
4850278.916258709
  0
LWPOLYLINE
  5
111
330
17
100
AcDbEntity
  8
ROADS
100
AcDbPolyline
 90
2
 70
0
 10
642147.6058375706
 20
4850278.644414862
 10
642141.1203856946
 20
4850307.731337117
  0
LWPOLYLINE
  5
112
330
17
100
AcDbEntity
  8
ROADS
100
AcDbPolyline
 90
2
 70
0
 10
641916.7799482737
 20
4850269.62694741
 10
642074.6573585307
 20
4850320.143267903
  0
LWPOLYLINE
  5
113
330
17
100
AcDbEntity
  8
ROADS
100
AcDbPolyline
 90
2
 70
0
 10
641779.3145160722
 20
4850227.953996373
 10
641737.605181719
 20
4850366.01929037
  0
LWPOLYLINE
  5
114
330
17
100
AcDbEntity
  8
ROADS
100
AcDbPolyline
 90
2
 70
0
 10
642141.1203856946
 20
4850307.731337117
 10
642118.3514786547
 20
4850325.581644658
  0
LWPOLYLINE
  5
115
330
17
100
AcDbEntity
  8
ROADS
100
AcDbPolyline
 90
3
 70
0
 10
642074.6573585307
 20
4850320.143267903
 10
642086.8070246093
 20
4850310.024354502
 10
642098.6036068181
 20
4850326.616897541
  0
LWPOLYLINE
  5
116
330
17
100
AcDbEntity
  8
ROADS
100
AcDbPolyline
 90
2
 70
0
 10
642118.3514786547
 20
4850325.581644658
 10
642098.6036068181
 20
4850326.616897541
  0
LWPOLYLINE
  5
117
330
17
100
AcDbEntity
  8
ROADS
100
AcDbPolyline
 90
2
 70
0
 10
641916.7799482737
 20
4850269.62694741
 10
641873.6313615595
 20
4850407.640706091
  0
LWPOLYLINE
  5
118
330
17
100
AcDbEntity
  8
ROADS
100
AcDbPolyline
 90
2
 70
0
 10
641506.0917699683
 20
4850269.226748745
 10
641460.6513775224
 20
4850413.620477178
  0
LWPOLYLINE
  5
119
330
17
100
AcDbEntity
  8
ROADS
100
AcDbPolyline
 90
4
 70
0
 10
642098.6036068181
 20
4850326.616897541
 10
642100.2918107883
 20
4850365.133607807
 10
642123.8984421932
 20
4850363.472216494
 10
642118.3514786547
 20
4850325.581644658
  0
LWPOLYLINE
  5
11A
330
17
100
AcDbEntity
  8
ROADS
100
AcDbPolyline
 90
2
 70
0
 10
642141.1203856946
 20
4850307.731337117
 10
642168.0117240734
 20
4850435.234299458
  0
LWPOLYLINE
  5
11B
330
17
100
AcDbEntity
  8
ROADS
100
AcDbPolyline
 90
2
 70
0
 10
641737.605181719
 20
4850366.01929037
 10
641873.6313615595
 20
4850407.640706091
  0
LWPOLYLINE
  5
11C
330
17
100
AcDbEntity
  8
ROADS
100
AcDbPolyline
 90
2
 70
0
 10
642074.6573585307
 20
4850320.143267903
 10
642035.7639860542
 20
4850458.995786772
  0
LWPOLYLINE
  5
11D
330
17
100
AcDbEntity
  8
ROADS
100
AcDbPolyline
 90
2
 70
0
 10
641737.605181719
 20
4850366.01929037
 10
641695.3455126685
 20
4850486.2731949575
  0
LWPOLYLINE
  5
11E
330
17
100
AcDbEntity
  8
ROADS
100
AcDbPolyline
 90
2
 70
0
 10
642180.6371109822
 20
4850430.762613247
 10
642195.3586723447
 20
4850429.163220678
  0
LWPOLYLINE
  5
11F
330
17
100
AcDbEntity
  8
ROADS
100
AcDbPolyline
 90
2
 70
0
 10
642180.6371109822
 20
4850430.762613247
 10
642168.0117240734
 20
4850435.234299458
  0
LWPOLYLINE
  5
120
330
17
100
AcDbEntity
  8
ROADS
100
AcDbPolyline
 90
2
 70
0
 10
641873.6313615595
 20
4850407.640706091
 10
642035.7639860542
 20
4850458.995786772
  0
LWPOLYLINE
  5
121
330
17
100
AcDbEntity
  8
ROADS
100
AcDbPolyline
 90
2
 70
0
 10
641213.2748428874
 20
4850217.9202050315
 10
641179.1057909458
 20
4850326.880376129
  0
LWPOLYLINE
  5
122
330
17
100
AcDbEntity
  8
ROADS
100
AcDbPolyline
 90
2
 70
0
 10
640915.2459680535
 20
4850244.239326801
 10
641179.1057909458
 20
4850326.880376129
  0
LWPOLYLINE
  5
123
330
17
100
AcDbEntity
  8
ROADS
100
AcDbPolyline
 90
4
 70
0
 10
641385.7887884948
 20
4850230.396646143
 10
641361.5395628763
 20
4850331.365796557
 10
641411.8620198538
 20
4850342.557882713
 10
641445.4627196987
 20
4850249.066961961
  0
LWPOLYLINE
  5
124
330
17
100
AcDbEntity
  8
ROADS
100
AcDbPolyline
 90
2
 70
0
 10
641315.8723516397
 20
4850323.498420687
 10
641337.4303905217
 20
4850251.826581941
  0
LWPOLYLINE
  5
125
330
17
100
AcDbEntity
  8
ROADS
100
AcDbPolyline
 90
2
 70
0
 10
641315.8723516397
 20
4850323.498420687
 10
641296.2980608004
 20
4850317.55208635
  0
LWPOLYLINE
  5
126
330
17
100
AcDbEntity
  8
ROADS
100
AcDbPolyline
 90
2
 70
0
 10
640877.9070434276
 20
4850232.40598063
 10
640808.3085009342
 20
4850443.032987235
  0
LWPOLYLINE
  5
127
330
17
100
AcDbEntity
  8
ROADS
100
AcDbPolyline
 90
2
 70
0
 10
641302.6878451542
 20
4850364.230757613
 10
641315.8723516397
 20
4850323.498420687
  0
LWPOLYLINE
  5
128
330
17
100
AcDbEntity
  8
ROADS
100
AcDbPolyline
 90
2
 70
0
 10
641179.1057909458
 20
4850326.880376129
 10
641302.6878451542
 20
4850364.230757613
  0
LWPOLYLINE
  5
129
330
17
100
AcDbEntity
  8
ROADS
100
AcDbPolyline
 90
2
 70
0
 10
641302.6878451542
 20
4850364.230757613
 10
641460.6513775224
 20
4850413.620477178
  0
LWPOLYLINE
  5
12A
330
17
100
AcDbEntity
  8
ROADS
100
AcDbPolyline
 90
2
 70
0
 10
640808.3085009342
 20
4850443.032987235
 10
641189.6706633471
 20
4850561.473272796
  0
LWPOLYLINE
  5
12B
330
17
100
AcDbEntity
  8
ROADS
100
AcDbPolyline
 90
3
 70
0
 10
642195.3586723447
 20
4850429.163220678
 10
642188.0951428735
 20
4850445.428336811
 10
642180.6371109822
 20
4850430.762613247
  0
LWPOLYLINE
  5
12C
330
17
100
AcDbEntity
  8
ROADS
100
AcDbPolyline
 90
2
 70
0
 10
641460.6513775224
 20
4850413.620477178
 10
641695.3455126685
 20
4850486.2731949575
  0
LWPOLYLINE
  5
12D
330
17
100
AcDbEntity
  8
ROADS
100
AcDbPolyline
 90
2
 70
0
 10
642035.7639860542
 20
4850458.995786772
 10
641999.7663287678
 20
4850580.606412603
  0
LWPOLYLINE
  5
12E
330
17
100
AcDbEntity
  8
ROADS
100
AcDbPolyline
 90
2
 70
0
 10
641695.3455126685
 20
4850486.2731949575
 10
641999.7663287678
 20
4850580.606412603
  0
LWPOLYLINE
  5
12F
330
17
100
AcDbEntity
  8
ROADS
100
AcDbPolyline
 90
2
 70
0
 10
641695.3455126685
 20
4850486.2731949575
 10
641635.9996175449
 20
4850584.862143579
  0
LWPOLYLINE
  5
130
330
17
100
AcDbEntity
  8
ROADS
100
AcDbPolyline
 90
2
 70
0
 10
642168.0117240734
 20
4850435.234299458
 10
642206.7541182972
 20
4850642.593611517
  0
LWPOLYLINE
  5
131
330
17
100
AcDbEntity
  8
ROADS
100
AcDbPolyline
 90
2
 70
0
 10
641635.9996175449
 20
4850584.862143579
 10
641801.9270674435
 20
4850635.689490316
  0
LWPOLYLINE
  5
132
330
17
100
AcDbEntity
  8
ROADS
100
AcDbPolyline
 90
2
 70
0
 10
641999.7663287678
 20
4850580.606412603
 10
642206.7541182972
 20
4850642.593611517
  0
LWPOLYLINE
  5
133
330
17
100
AcDbEntity
  8
ROADS
100
AcDbPolyline
 90
2
 70
0
 10
641999.7663287678
 20
4850580.606412603
 10
641966.8669040666
 20
4850681.168918403
  0
LWPOLYLINE
  5
134
330
17
100
AcDbEntity
  8
ROADS
100
AcDbPolyline
 90
2
 70
0
 10
641635.9996175449
 20
4850584.862143579
 10
641597.8466026265
 20
4850688.711678618
  0
LWPOLYLINE
  5
135
330
17
100
AcDbEntity
  8
ROADS
100
AcDbPolyline
 90
2
 70
0
 10
640808.3085009342
 20
4850443.032987235
 10
640708.8585348628
 20
4850746.402963289
  0
LWPOLYLINE
  5
136
330
17
100
AcDbEntity
  8
ROADS
100
AcDbPolyline
 90
3
 70
0
 10
640799.367992817
 20
4850775.640247205
 10
640835.0741534248
 20
4850659.184325707
 10
640884.0143965752
 20
4850676.058982705
  0
LWPOLYLINE
  5
137
330
17
100
AcDbEntity
  8
ROADS
100
AcDbPolyline
 90
2
 70
0
 10
640884.0143965752
 20
4850676.058982705
 10
640848.9042680593
 20
4850785.452992386
  0
LWPOLYLINE
  5
138
330
17
100
AcDbEntity
  8
ROADS
100
AcDbPolyline
 90
3
 70
0
 10
640896.1301339632
 20
4850788.54367456
 10
640927.0715438187
 20
4850690.477774207
 10
640884.0143965752
 20
4850676.058982705
  0
LWPOLYLINE
  5
139
330
17
100
AcDbEntity
  8
ROADS
100
AcDbPolyline
 90
2
 70
0
 10
640708.8585348628
 20
4850746.402963289
 10
640799.367992817
 20
4850775.640247205
  0
LWPOLYLINE
  5
13A
330
17
100
AcDbEntity
  8
ROADS
100
AcDbPolyline
 90
2
 70
0
 10
640995.8620710941
 20
4850804.842781886
 10
641056.3880688369
 20
4850718.447212527
  0
LWPOLYLINE
  5
13B
330
17
100
AcDbEntity
  8
ROADS
100
AcDbPolyline
 90
2
 70
0
 10
640799.367992817
 20
4850775.640247205
 10
640848.9042680593
 20
4850785.452992386
  0
LWPOLYLINE
  5
13C
330
17
100
AcDbEntity
  8
ROADS
100
AcDbPolyline
 90
2
 70
0
 10
640848.9042680593
 20
4850785.452992386
 10
640896.1301339632
 20
4850788.54367456
  0
LWPOLYLINE
  5
13D
330
17
100
AcDbEntity
  8
ROADS
100
AcDbPolyline
 90
2
 70
0
 10
640896.1301339632
 20
4850788.54367456
 10
640995.8620710941
 20
4850804.842781886
  0
LWPOLYLINE
  5
13E
330
17
100
AcDbEntity
  8
ROADS
100
AcDbPolyline
 90
3
 70
0
 10
640995.8620710941
 20
4850804.842781886
 10
641141.7604558064
 20
4850903.213608419
 10
641235.9158222962
 20
4850936.289946635
  0
LWPOLYLINE
  5
13F
330
17
100
AcDbEntity
  8
ROADS
100
AcDbPolyline
 90
2
 70
0
 10
638784.0426067687
 20
4848969.4566907175
 10
638832.9951388014
 20
4848816.741251007
  0
LWPOLYLINE
  5
140
330
17
100
AcDbEntity
  8
ROADS
100
AcDbPolyline
 90
3
 70
0
 10
638934.5943388694
 20
4848969.120271632
 10
638985.4371971411
 20
4848923.754986885
 10
639050.7998187905
 20
4848955.424278609
  0
LWPOLYLINE
  5
141
330
17
100
AcDbEntity
  8
ROADS
100
AcDbPolyline
 90
2
 70
0
 10
638886.9641211557
 20
4848939.567458026
 10
638934.5943388694
 20
4848969.120271632
  0
LWPOLYLINE
  5
142
330
17
100
AcDbEntity
  8
ROADS
100
AcDbPolyline
 90
2
 70
0
 10
638718.2493868945
 20
4848948.860191111
 10
638784.0426067687
 20
4848969.4566907175
  0
LWPOLYLINE
  5
143
330
17
100
AcDbEntity
  8
ROADS
100
AcDbPolyline
 90
2
 70
0
 10
638845.8355991433
 20
4849001.470333565
 10
638886.9641211557
 20
4848939.567458026
  0
LWPOLYLINE
  5
144
330
17
100
AcDbEntity
  8
ROADS
100
AcDbPolyline
 90
2
 70
0
 10
639170.740799959
 20
4848890.997974008
 10
639114.3848166913
 20
4849074.933983265
  0
LWPOLYLINE
  5
145
330
17
100
AcDbEntity
  8
ROADS
100
AcDbPolyline
 90
2
 70
0
 10
638784.0426067687
 20
4848969.4566907175
 10
638845.8355991433
 20
4849001.470333565
  0
LWPOLYLINE
  5
146
330
17
100
AcDbEntity
  8
ROADS
100
AcDbPolyline
 90
3
 70
0
 10
638934.5943388694
 20
4848969.120271632
 10
639002.1226775562
 20
4849040.335666692
 10
639114.3848166913
 20
4849074.933983265
  0
LWPOLYLINE
  5
147
330
17
100
AcDbEntity
  8
ROADS
100
AcDbPolyline
 90
2
 70
0
 10
638845.8355991433
 20
4849001.470333565
 10
638911.0164561046
 20
4849076.451552349
  0
LWPOLYLINE
  5
148
330
17
100
AcDbEntity
  8
ROADS
100
AcDbPolyline
 90
2
 70
0
 10
638718.2493868945
 20
4848948.860191111
 10
638657.9793736509
 20
4849136.9739323575
  0
LWPOLYLINE
  5
149
330
17
100
AcDbEntity
  8
ROADS
100
AcDbPolyline
 90
2
 70
0
 10
639252.8678784461
 20
4849092.901752741
 10
639219.853007389
 20
4849197.914918808
  0
LWPOLYLINE
  5
14A
330
17
100
AcDbEntity
  8
ROADS
100
AcDbPolyline
 90
2
 70
0
 10
639810.5576119436
 20
4849129.142483019
 10
639821.0685584339
 20
4849190.303040513
  0
LWPOLYLINE
  5
14B
330
17
100
AcDbEntity
  8
ROADS
100
AcDbPolyline
 90
2
 70
0
 10
639430.063755712
 20
4849147.356538468
 10
639529.1001761322
 20
4849177.78989517
  0
LWPOLYLINE
  5
14C
330
17
100
AcDbEntity
  8
ROADS
100
AcDbPolyline
 90
2
 70
0
 10
639589.2441177245
 20
4849220.069788093
 10
639613.9620140377
 20
4849139.076574282
  0
LWPOLYLINE
  5
14D
330
17
100
AcDbEntity
  8
ROADS
100
AcDbPolyline
 90
5
 70
0
 10
639613.9620140377
 20
4849139.076574282
 10
639728.2992727356
 20
4849175.180731058
 10
639719.0383352477
 20
4849237.605170293
 10
639698.5292705826
 20
4849253.612179101
 10
639589.2441177245
 20
4849220.069788093
  0
LWPOLYLINE
  5
14E
330
17
100
AcDbEntity
  8
ROADS
100
AcDbPolyline
 90
2
 70
0
 10
639219.853007389
 20
4849197.914918808
 10
639257.8048973775
 20
4849211.207843678
  0
LWPOLYLINE
  5
14F
330
17
100
AcDbEntity
  8
ROADS
100
AcDbPolyline
 90
2
 70
0
 10
639257.8048973775
 20
4849211.207843678
 10
639375.626810779
 20
4849247.398133074
  0
LWPOLYLINE
  5
150
330
17
100
AcDbEntity
  8
ROADS
100
AcDbPolyline
 90
2
 70
0
 10
639529.1001761322
 20
4849177.78989517
 10
639495.9458301393
 20
4849283.708702594
  0
LWPOLYLINE
  5
151
330
17
100
AcDbEntity
  8
ROADS
100
AcDbPolyline
 90
2
 70
0
 10
639562.9504021165
 20
4849304.299760431
 10
639589.2441177245
 20
4849220.069788093
  0
LWPOLYLINE
  5
152
330
17
100
AcDbEntity
  8
ROADS
100
AcDbPolyline
 90
2
 70
0
 10
639375.626810779
 20
4849247.398133074
 10
639495.9458301393
 20
4849283.708702594
  0
LWPOLYLINE
  5
153
330
17
100
AcDbEntity
  8
ROADS
100
AcDbPolyline
 90
2
 70
0
 10
638911.0164561046
 20
4849076.451552349
 10
638863.2037504949
 20
4849138.382315017
  0
LWPOLYLINE
  5
154
330
17
100
AcDbEntity
  8
ROADS
100
AcDbPolyline
 90
3
 70
0
 10
638911.0164561046
 20
4849076.451552349
 10
638967.6332491551
 20
4849119.37750957
 10
639054.8951024944
 20
4849149.274434465
  0
LWPOLYLINE
  5
155
330
17
100
AcDbEntity
  8
ROADS
100
AcDbPolyline
 90
2
 70
0
 10
639114.3848166913
 20
4849074.933983265
 10
639088.9134281126
 20
4849158.988728822
  0
LWPOLYLINE
  5
156
330
17
100
AcDbEntity
  8
ROADS
100
AcDbPolyline
 90
2
 70
0
 10
639054.8951024944
 20
4849149.274434465
 10
639088.9134281126
 20
4849158.988728822
  0
LWPOLYLINE
  5
157
330
17
100
AcDbEntity
  8
ROADS
100
AcDbPolyline
 90
2
 70
0
 10
639088.9134281126
 20
4849158.988728822
 10
639152.0090327888
 20
4849179.607917905
  0
LWPOLYLINE
  5
158
330
17
100
AcDbEntity
  8
ROADS
100
AcDbPolyline
 90
2
 70
0
 10
639152.0090327888
 20
4849179.607917905
 10
639219.853007389
 20
4849197.914918808
  0
LWPOLYLINE
  5
159
330
17
100
AcDbEntity
  8
ROADS
100
AcDbPolyline
 90
3
 70
0
 10
638863.2037504949
 20
4849138.382315017
 10
638853.6898577906
 20
4849190.09697018
 10
639025.4146348006
 20
4849243.135480701
  0
LWPOLYLINE
  5
15A
330
17
100
AcDbEntity
  8
ROADS
100
AcDbPolyline
 90
2
 70
0
 10
639025.4146348006
 20
4849243.135480701
 10
639054.8951024944
 20
4849149.274434465
  0
LWPOLYLINE
  5
15B
330
17
100
AcDbEntity
  8
ROADS
100
AcDbPolyline
 90
8
 70
0
 10
638863.2037504949
 20
4849138.382315017
 10
638782.7601195175
 20
4849072.470447402
 10
638754.705003208
 20
4849069.235838004
 10
638739.1351987396
 20
4849113.242011064
 10
638762.7273928775
 20
4849168.109770772
 10
638753.2593861653
 20
4849247.592932372
 10
638991.7795077544
 20
4849326.081168815
 10
639025.4146348006
 20
4849243.135480701
  0
LWPOLYLINE
  5
15C
330
17
100
AcDbEntity
  8
ROADS
100
AcDbPolyline
 90
2
 70
0
 10
639152.0090327888
 20
4849179.607917905
 10
639065.7348129412
 20
4849477.963990755
  0
LWPOLYLINE
  5
15D
330
17
100
AcDbEntity
  8
ROADS
100
AcDbPolyline
 90
3
 70
0
 10
637913.9271308876
 20
4849089.074689702
 10
638040.1903429134
 20
4849129.793167204
 10
638063.0956646262
 20
4849200.211845412
  0
LWPOLYLINE
  5
15E
330
17
100
AcDbEntity
  8
ROADS
100
AcDbPolyline
 90
2
 70
0
 10
637913.9271308876
 20
4849089.074689702
 10
637857.0494082608
 20
4849266.485909603
  0
LWPOLYLINE
  5
15F
330
17
100
AcDbEntity
  8
ROADS
100
AcDbPolyline
 90
4
 70
0
 10
638063.0956646262
 20
4849200.211845412
 10
638077.2229750161
 20
4849206.174372362
 10
638103.5260416269
 20
4849183.237757594
 10
638146.7878067808
 20
4849194.019604963
  0
LWPOLYLINE
  5
160
330
17
100
AcDbEntity
  8
ROADS
100
AcDbPolyline
 90
2
 70
0
 10
638063.0956646262
 20
4849200.211845412
 10
638052.9339576965
 20
4849209.02857001
  0
LWPOLYLINE
  5
161
330
17
100
AcDbEntity
  8
ROADS
100
AcDbPolyline
 90
2
 70
0
 10
637748.5605033789
 20
4849231.251041678
 10
637857.0494082608
 20
4849266.485909603
  0
LWPOLYLINE
  5
162
330
17
100
AcDbEntity
  8
ROADS
100
AcDbPolyline
 90
2
 70
0
 10
637857.0494082608
 20
4849266.485909603
 10
637968.8235431823
 20
4849303.515578201
  0
LWPOLYLINE
  5
163
330
17
100
AcDbEntity
  8
ROADS
100
AcDbPolyline
 90
2
 70
0
 10
637968.8235431823
 20
4849303.515578201
 10
638129.7579284882
 20
4849354.092273147
  0
LWPOLYLINE
  5
164
330
17
100
AcDbEntity
  8
ROADS
100
AcDbPolyline
 90
2
 70
0
 10
637968.8235431823
 20
4849303.515578201
 10
637936.8135519768
 20
4849396.815422525
  0
LWPOLYLINE
  5
165
330
17
100
AcDbEntity
  8
ROADS
100
AcDbPolyline
 90
2
 70
0
 10
638657.9793736509
 20
4849136.9739323575
 10
638469.7918478039
 20
4849088.36968832
  0
LWPOLYLINE
  5
166
330
17
100
AcDbEntity
  8
ROADS
100
AcDbPolyline
 90
2
 70
0
 10
638657.9793736509
 20
4849136.9739323575
 10
638585.6200372536
 20
4849303.234959896
  0
LWPOLYLINE
  5
167
330
17
100
AcDbEntity
  8
ROADS
100
AcDbPolyline
 90
5
 70
0
 10
638312.5141289539
 20
4849283.789841844
 10
638334.9514504306
 20
4849202.922633218
 10
638281.3351176477
 20
4849183.892385705
 10
638252.2757712444
 20
4849258.268982973
 10
638312.5141289539
 20
4849283.789841844
  0
LWPOLYLINE
  5
168
330
17
100
AcDbEntity
  8
ROADS
100
AcDbPolyline
 90
2
 70
0
 10
638275.4740176176
 20
4849400.110843222
 10
638312.5141289539
 20
4849283.789841844
  0
LWPOLYLINE
  5
169
330
17
100
AcDbEntity
  8
ROADS
100
AcDbPolyline
 90
2
 70
0
 10
638129.7579284882
 20
4849354.092273147
 10
638242.6270121549
 20
4849390.776305671
  0
LWPOLYLINE
  5
16A
330
17
100
AcDbEntity
  8
ROADS
100
AcDbPolyline
 90
2
 70
0
 10
638585.6200372536
 20
4849303.234959896
 10
638511.6329186787
 20
4849472.396702376
  0
LWPOLYLINE
  5
16B
330
17
100
AcDbEntity
  8
ROADS
100
AcDbPolyline
 90
2
 70
0
 10
638242.6270121549
 20
4849390.776305671
 10
638275.4740176176
 20
4849400.110843222
  0
LWPOLYLINE
  5
16C
330
17
100
AcDbEntity
  8
ROADS
100
AcDbPolyline
 90
2
 70
0
 10
638275.4740176176
 20
4849400.110843222
 10
638511.6329186787
 20
4849472.396702376
  0
LWPOLYLINE
  5
16D
330
17
100
AcDbEntity
  8
ROADS
100
AcDbPolyline
 90
4
 70
0
 10
638242.6270121549
 20
4849390.776305671
 10
638226.1268543759
 20
4849429.166504729
 10
638182.0459100333
 20
4849442.950121508
 10
638145.8097045739
 20
4849552.821013484
  0
LWPOLYLINE
  5
16E
330
17
100
AcDbEntity
  8
ROADS
100
AcDbPolyline
 90
2
 70
0
 10
638511.6329186787
 20
4849472.396702376
 10
638713.0333235323
 20
4849541.055514546
  0
LWPOLYLINE
  5
16F
330
17
100
AcDbEntity
  8
ROADS
100
AcDbPolyline
 90
2
 70
0
 10
639821.0685584339
 20
4849190.303040513
 10
639757.8588017677
 20
4849382.231976749
  0
LWPOLYLINE
  5
170
330
17
100
AcDbEntity
  8
ROADS
100
AcDbPolyline
 90
2
 70
0
 10
639495.9458301393
 20
4849283.708702594
 10
639562.9504021165
 20
4849304.299760431
  0
LWPOLYLINE
  5
171
330
17
100
AcDbEntity
  8
ROADS
100
AcDbPolyline
 90
5
 70
0
 10
639821.0685584339
 20
4849190.303040513
 10
639870.8399814804
 20
4849188.788650497
 10
639905.9586783944
 20
4849213.726435319
 10
639849.3387071402
 20
4849385.170762161
 10
639810.0007616783
 20
4849432.304728494
  0
LWPOLYLINE
  5
172
330
17
100
AcDbEntity
  8
ROADS
100
AcDbPolyline
 90
3
 70
0
 10
639562.9504021165
 20
4849304.299760431
 10
639708.80499538
 20
4849351.209093644
 10
639757.8588017677
 20
4849382.231976749
  0
LWPOLYLINE
  5
173
330
17
100
AcDbEntity
  8
ROADS
100
AcDbPolyline
 90
2
 70
0
 10
639257.8048973775
 20
4849211.207843678
 10
639166.791527012
 20
4849511.199294668
  0
LWPOLYLINE
  5
174
330
17
100
AcDbEntity
  8
ROADS
100
AcDbPolyline
 90
2
 70
0
 10
639375.626810779
 20
4849247.398133074
 10
639304.4037101022
 20
4849479.318553345
  0
LWPOLYLINE
  5
175
330
17
100
AcDbEntity
  8
ROADS
100
AcDbPolyline
 90
2
 70
0
 10
639495.9458301393
 20
4849283.708702594
 10
639424.2445072791
 20
4849515.332504563
  0
LWPOLYLINE
  5
176
330
17
100
AcDbEntity
  8
ROADS
100
AcDbPolyline
 90
2
 70
0
 10
639757.8588017677
 20
4849382.231976749
 10
639733.2053170901
 20
4849425.558614823
  0
LWPOLYLINE
  5
177
330
17
100
AcDbEntity
  8
ROADS
100
AcDbPolyline
 90
2
 70
0
 10
639757.8588017677
 20
4849382.231976749
 10
639810.0007616783
 20
4849432.304728494
  0
LWPOLYLINE
  5
178
330
17
100
AcDbEntity
  8
ROADS
100
AcDbPolyline
 90
2
 70
0
 10
639810.0007616783
 20
4849432.304728494
 10
639813.5619787973
 20
4849491.753202937
  0
LWPOLYLINE
  5
179
330
17
100
AcDbEntity
  8
ROADS
100
AcDbPolyline
 90
6
 70
0
 10
638657.9793736509
 20
4849136.9739323575
 10
638692.7094027776
 20
4849157.524157483
 10
638670.2712949842
 20
4849248.534421567
 10
638690.4845805793
 20
4849279.589655822
 10
638986.6145014865
 20
4849550.902534118
 10
639177.3525457771
 20
4849619.814315607
  0
LWPOLYLINE
  5
17A
330
17
100
AcDbEntity
  8
ROADS
100
AcDbPolyline
 90
2
 70
0
 10
639065.7348129412
 20
4849477.963990755
 10
639166.791527012
 20
4849511.199294668
  0
LWPOLYLINE
  5
17B
330
17
100
AcDbEntity
  8
ROADS
100
AcDbPolyline
 90
2
 70
0
 10
639065.7348129412
 20
4849477.963990755
 10
638999.8117216618
 20
4849518.178460813
  0
LWPOLYLINE
  5
17C
330
17
100
AcDbEntity
  8
ROADS
100
AcDbPolyline
 90
2
 70
0
 10
639166.791527012
 20
4849511.199294668
 10
639206.4180641985
 20
4849525.95473984
  0
LWPOLYLINE
  5
17D
330
17
100
AcDbEntity
  8
ROADS
100
AcDbPolyline
 90
2
 70
0
 10
639206.4180641985
 20
4849525.95473984
 10
639177.3525457771
 20
4849619.814315607
  0
LWPOLYLINE
  5
17E
330
17
100
AcDbEntity
  8
ROADS
100
AcDbPolyline
 90
2
 70
0
 10
638713.0333235323
 20
4849541.055514546
 10
638925.6772169396
 20
4849611.961350892
  0
LWPOLYLINE
  5
17F
330
17
100
AcDbEntity
  8
ROADS
100
AcDbPolyline
 90
3
 70
0
 10
638713.0333235323
 20
4849541.055514546
 10
638718.3228718363
 20
4849642.161146968
 10
638682.1535500446
 20
4849754.515646518
  0
LWPOLYLINE
  5
180
330
17
100
AcDbEntity
  8
ROADS
100
AcDbPolyline
 90
2
 70
0
 10
638925.6772169396
 20
4849611.961350892
 10
639157.2400932154
 20
4849684.136203101
  0
LWPOLYLINE
  5
181
330
17
100
AcDbEntity
  8
ROADS
100
AcDbPolyline
 90
2
 70
0
 10
639177.3525457771
 20
4849619.814315607
 10
639157.2400932154
 20
4849684.136203101
  0
LWPOLYLINE
  5
182
330
17
100
AcDbEntity
  8
ROADS
100
AcDbPolyline
 90
2
 70
0
 10
638682.1535500446
 20
4849754.515646518
 10
638638.9620117616
 20
4849881.743315881
  0
LWPOLYLINE
  5
183
330
17
100
AcDbEntity
  8
ROADS
100
AcDbPolyline
 90
2
 70
0
 10
638511.6329186787
 20
4849472.396702376
 10
638478.7596185335
 20
4849578.811300651
  0
LWPOLYLINE
  5
184
330
17
100
AcDbEntity
  8
ROADS
100
AcDbPolyline
 90
3
 70
0
 10
638478.7596185335
 20
4849578.811300651
 10
638356.4968766109
 20
4849537.585039986
 10
638302.1205935206
 20
4849604.645197902
  0
LWPOLYLINE
  5
185
330
17
100
AcDbEntity
  8
ROADS
100
AcDbPolyline
 90
2
 70
0
 10
638145.8097045739
 20
4849552.821013484
 10
638302.1205935206
 20
4849604.645197902
  0
LWPOLYLINE
  5
186
330
17
100
AcDbEntity
  8
ROADS
100
AcDbPolyline
 90
2
 70
0
 10
638478.7596185335
 20
4849578.811300651
 10
638449.2644068692
 20
4849678.283421462
  0
LWPOLYLINE
  5
187
330
17
100
AcDbEntity
  8
ROADS
100
AcDbPolyline
 90
2
 70
0
 10
638145.8097045739
 20
4849552.821013484
 10
638072.7160734347
 20
4849764.4537018
  0
LWPOLYLINE
  5
188
330
17
100
AcDbEntity
  8
ROADS
100
AcDbPolyline
 90
3
 70
0
 10
638302.1205935206
 20
4849604.645197902
 10
638226.1589914996
 20
4849703.232224501
 10
638190.6047582608
 20
4849805.59774649
  0
LWPOLYLINE
  5
189
330
17
100
AcDbEntity
  8
ROADS
100
AcDbPolyline
 90
2
 70
0
 10
638449.2644068692
 20
4849678.283421462
 10
638682.1535500446
 20
4849754.515646518
  0
LWPOLYLINE
  5
18A
330
17
100
AcDbEntity
  8
ROADS
100
AcDbPolyline
 90
2
 70
0
 10
638449.2644068692
 20
4849678.283421462
 10
638419.5832707528
 20
4849766.656091313
  0
LWPOLYLINE
  5
18B
330
17
100
AcDbEntity
  8
ROADS
100
AcDbPolyline
 90
3
 70
0
 10
638331.5944246312
 20
4849712.649579516
 10
638371.5514961956
 20
4849751.378299476
 10
638419.5832707528
 20
4849766.656091313
  0
LWPOLYLINE
  5
18C
330
17
100
AcDbEntity
  8
ROADS
100
AcDbPolyline
 90
2
 70
0
 10
638072.7160734347
 20
4849764.4537018
 10
638190.6047582608
 20
4849805.59774649
  0
LWPOLYLINE
  5
18D
330
17
100
AcDbEntity
  8
ROADS
100
AcDbPolyline
 90
4
 70
0
 10
638667.8211857904
 20
4849862.351373917
 10
638681.078752734
 20
4849847.159132915
 10
638698.6987397515
 20
4849852.551930181
 10
638693.3647781764
 20
4849867.973770728
  0
LWPOLYLINE
  5
18E
330
17
100
AcDbEntity
  8
ROADS
100
AcDbPolyline
 90
5
 70
0
 10
638792.7072023752
 20
4849933.2712061
 10
638774.867101236
 20
4849861.38296366
 10
638795.1693927664
 20
4849792.822188023
 10
638827.8570951014
 20
4849812.274375992
 10
638819.7033785323
 20
4849864.201675441
  0
LWPOLYLINE
  5
18F
330
17
100
AcDbEntity
  8
ROADS
100
AcDbPolyline
 90
2
 70
0
 10
638693.3647781764
 20
4849867.973770728
 10
638667.8211857904
 20
4849862.351373917
  0
LWPOLYLINE
  5
190
330
17
100
AcDbEntity
  8
ROADS
100
AcDbPolyline
 90
2
 70
0
 10
638667.8211857904
 20
4849862.351373917
 10
638638.9620117616
 20
4849881.743315881
  0
LWPOLYLINE
  5
191
330
17
100
AcDbEntity
  8
ROADS
100
AcDbPolyline
 90
2
 70
0
 10
638693.3647781764
 20
4849867.973770728
 10
638694.8211486943
 20
4849900.466304832
  0
LWPOLYLINE
  5
192
330
17
100
AcDbEntity
  8
ROADS
100
AcDbPolyline
 90
2
 70
0
 10
638638.9620117616
 20
4849881.743315881
 10
638694.8211486943
 20
4849900.466304832
  0
LWPOLYLINE
  5
193
330
17
100
AcDbEntity
  8
ROADS
100
AcDbPolyline
 90
2
 70
0
 10
638694.8211486943
 20
4849900.466304832
 10
638792.7072023752
 20
4849933.2712061
  0
LWPOLYLINE
  5
194
330
17
100
AcDbEntity
  8
ROADS
100
AcDbPolyline
 90
2
 70
0
 10
638792.7072023752
 20
4849933.2712061
 10
638913.4394121787
 20
4849974.248904019
  0
LWPOLYLINE
  5
195
330
17
100
AcDbEntity
  8
ROADS
100
AcDbPolyline
 90
2
 70
0
 10
638616.0114416761
 20
4849954.333455691
 10
638711.4254704943
 20
4850045.0701806815
  0
LWPOLYLINE
  5
196
330
17
100
AcDbEntity
  8
ROADS
100
AcDbPolyline
 90
2
 70
0
 10
638913.4394121787
 20
4849974.248904019
 10
639083.8904831163
 20
4850032.833288096
  0
LWPOLYLINE
  5
197
330
17
100
AcDbEntity
  8
ROADS
100
AcDbPolyline
 90
2
 70
0
 10
638419.5832707528
 20
4849766.656091313
 10
638385.1791486586
 20
4849868.136421337
  0
LWPOLYLINE
  5
198
330
17
100
AcDbEntity
  8
ROADS
100
AcDbPolyline
 90
2
 70
0
 10
638190.6047582608
 20
4849805.59774649
 10
638385.1791486586
 20
4849868.136421337
  0
LWPOLYLINE
  5
199
330
17
100
AcDbEntity
  8
ROADS
100
AcDbPolyline
 90
2
 70
0
 10
638190.6047582608
 20
4849805.59774649
 10
638157.7980210871
 20
4849915.01270364
  0
LWPOLYLINE
  5
19A
330
17
100
AcDbEntity
  8
ROADS
100
AcDbPolyline
 90
2
 70
0
 10
638638.9620117616
 20
4849881.743315881
 10
638616.0114416761
 20
4849954.333455691
  0
LWPOLYLINE
  5
19B
330
17
100
AcDbEntity
  8
ROADS
100
AcDbPolyline
 90
2
 70
0
 10
638385.1791486586
 20
4849868.136421337
 10
638312.7174384871
 20
4850089.751601201
  0
LWPOLYLINE
  5
19C
330
17
100
AcDbEntity
  8
ROADS
100
AcDbPolyline
 90
3
 70
0
 10
638616.0114416761
 20
4849954.333455691
 10
638583.345722422
 20
4850021.747042181
 10
638471.8518673383
 20
4850140.733144817
  0
LWPOLYLINE
  5
19D
330
17
100
AcDbEntity
  8
ROADS
100
AcDbPolyline
 90
2
 70
0
 10
638157.7980210871
 20
4849915.01270364
 10
638071.4480850268
 20
4850184.4685974745
  0
LWPOLYLINE
  5
19E
330
17
100
AcDbEntity
  8
ROADS
100
AcDbPolyline
 90
4
 70
0
 10
638157.7980210871
 20
4849915.01270364
 10
638229.1421585291
 20
4849934.309320875
 10
638236.4467474251
 20
4849948.443031137
 10
638141.928053355
 20
4850230.753175489
  0
LWPOLYLINE
  5
19F
330
17
100
AcDbEntity
  8
ROADS
100
AcDbPolyline
 90
2
 70
0
 10
638312.7174384871
 20
4850089.751601201
 10
638471.8518673383
 20
4850140.733144817
  0
LWPOLYLINE
  5
1A0
330
17
100
AcDbEntity
  8
ROADS
100
AcDbPolyline
 90
2
 70
0
 10
638471.8518673383
 20
4850140.733144817
 10
638582.5038332517
 20
4850177.744832929
  0
LWPOLYLINE
  5
1A1
330
17
100
AcDbEntity
  8
ROADS
100
AcDbPolyline
 90
2
 70
0
 10
638913.4394121787
 20
4849974.248904019
 10
638876.7472276266
 20
4850083.881695443
  0
LWPOLYLINE
  5
1A2
330
17
100
AcDbEntity
  8
ROADS
100
AcDbPolyline
 90
2
 70
0
 10
639083.8904831163
 20
4850032.833288096
 10
639192.2074261467
 20
4850067.803491915
  0
LWPOLYLINE
  5
1A3
330
17
100
AcDbEntity
  8
ROADS
100
AcDbPolyline
 90
2
 70
0
 10
639195.4243896676
 20
4850058.275849257
 10
639192.2074261467
 20
4850067.803491915
  0
LWPOLYLINE
  5
1A4
330
17
100
AcDbEntity
  8
ROADS
100
AcDbPolyline
 90
2
 70
0
 10
638711.4254704943
 20
4850045.0701806815
 10
638791.6773399373
 20
4850124.532110315
  0
LWPOLYLINE
  5
1A5
330
17
100
AcDbEntity
  8
ROADS
100
AcDbPolyline
 90
2
 70
0
 10
639083.8904831163
 20
4850032.833288096
 10
639046.2248816113
 20
4850141.157361946
  0
LWPOLYLINE
  5
1A6
330
17
100
AcDbEntity
  8
ROADS
100
AcDbPolyline
 90
3
 70
0
 10
638791.6773399373
 20
4850124.532110315
 10
638837.1780123422
 20
4850066.35296724
 10
638876.7472276266
 20
4850083.881695443
  0
LWPOLYLINE
  5
1A7
330
17
100
AcDbEntity
  8
ROADS
100
AcDbPolyline
 90
2
 70
0
 10
638711.4254704943
 20
4850045.0701806815
 10
638582.5038332517
 20
4850177.744832929
  0
LWPOLYLINE
  5
1A8
330
17
100
AcDbEntity
  8
ROADS
100
AcDbPolyline
 90
2
 70
0
 10
638876.7472276266
 20
4850083.881695443
 10
639046.2248816113
 20
4850141.157361946
  0
LWPOLYLINE
  5
1A9
330
17
100
AcDbEntity
  8
ROADS
100
AcDbPolyline
 90
2
 70
0
 10
638791.6773399373
 20
4850124.532110315
 10
638678.3769371354
 20
4850233.489547049
  0
LWPOLYLINE
  5
1AA
330
17
100
AcDbEntity
  8
ROADS
100
AcDbPolyline
 90
2
 70
0
 10
638791.6773399373
 20
4850124.532110315
 10
638915.2754672348
 20
4850250.788120261
  0
LWPOLYLINE
  5
1AB
330
17
100
AcDbEntity
  8
ROADS
100
AcDbPolyline
 90
2
 70
0
 10
639776.8806587883
 20
4849676.841079758
 10
639657.4615461797
 20
4849682.701847405
  0
LWPOLYLINE
  5
1AC
330
17
100
AcDbEntity
  8
ROADS
100
AcDbPolyline
 90
2
 70
0
 10
639157.2400932154
 20
4849684.136203101
 10
639252.9414825675
 20
4849714.877295673
  0
LWPOLYLINE
  5
1AD
330
17
100
AcDbEntity
  8
ROADS
100
AcDbPolyline
 90
3
 70
0
 10
639776.8806587883
 20
4849676.841079758
 10
639804.1127530105
 20
4849709.271757017
 10
639848.3924502165
 20
4849729.401104473
  0
LWPOLYLINE
  5
1AE
330
17
100
AcDbEntity
  8
ROADS
100
AcDbPolyline
 90
2
 70
0
 10
639252.9414825675
 20
4849714.877295673
 10
639330.069026038
 20
4849738.501150046
  0
LWPOLYLINE
  5
1AF
330
17
100
AcDbEntity
  8
ROADS
100
AcDbPolyline
 90
2
 70
0
 10
639848.3924502165
 20
4849729.401104473
 10
639819.6046181367
 20
4849817.644312698
  0
LWPOLYLINE
  5
1B0
330
17
100
AcDbEntity
  8
ROADS
100
AcDbPolyline
 90
2
 70
0
 10
639330.069026038
 20
4849738.501150046
 10
639797.8639433135
 20
4849889.084520813
  0
LWPOLYLINE
  5
1B1
330
17
100
AcDbEntity
  8
ROADS
100
AcDbPolyline
 90
2
 70
0
 10
639330.069026038
 20
4849738.501150046
 10
639248.1238489933
 20
4849901.200338862
  0
LWPOLYLINE
  5
1B2
330
17
100
AcDbEntity
  8
ROADS
100
AcDbPolyline
 90
2
 70
0
 10
639819.6046181367
 20
4849817.644312698
 10
639797.8639433135
 20
4849889.084520813
  0
LWPOLYLINE
  5
1B3
330
17
100
AcDbEntity
  8
ROADS
100
AcDbPolyline
 90
2
 70
0
 10
639248.1238489933
 20
4849901.200338862
 10
639195.4243896676
 20
4850058.275849257
  0
LWPOLYLINE
  5
1B4
330
17
100
AcDbEntity
  8
ROADS
100
AcDbPolyline
 90
3
 70
0
 10
639859.6834217265
 20
4850699.052900044
 10
639661.2150426263
 20
4850635.459808549
 10
639614.6297768098
 20
4850590.522100347
  0
LWPOLYLINE
  5
1B5
330
17
100
AcDbEntity
  8
ROADS
100
AcDbPolyline
 90
3
 70
0
 10
638582.5038332517
 20
4850177.744832929
 10
638647.6328895383
 20
4850201.928377173
 10
638678.3769371354
 20
4850233.489547049
  0
LWPOLYLINE
  5
1B6
330
17
100
AcDbEntity
  8
ROADS
100
AcDbPolyline
 90
2
 70
0
 10
638312.7174384871
 20
4850089.751601201
 10
638226.8291757314
 20
4850350.30609393
  0
LWPOLYLINE
  5
1B7
330
17
100
AcDbEntity
  8
ROADS
100
AcDbPolyline
 90
2
 70
0
 10
638471.8518673383
 20
4850140.733144817
 10
638371.9182921797
 20
4850397.942903047
  0
LWPOLYLINE
  5
1B8
330
17
100
AcDbEntity
  8
ROADS
100
AcDbPolyline
 90
2
 70
0
 10
638141.928053355
 20
4850230.753175489
 10
638128.0753322783
 20
4850315.50970839
  0
LWPOLYLINE
  5
1B9
330
17
100
AcDbEntity
  8
ROADS
100
AcDbPolyline
 90
3
 70
0
 10
638582.5038332517
 20
4850177.744832929
 10
638544.0035334354
 20
4850236.051784384
 10
638477.7174474916
 20
4850433.866619239
  0
LWPOLYLINE
  5
1BA
330
17
100
AcDbEntity
  8
ROADS
100
AcDbPolyline
 90
2
 70
0
 10
638128.0753322783
 20
4850315.50970839
 10
638226.8291757314
 20
4850350.30609393
  0
LWPOLYLINE
  5
1BB
330
17
100
AcDbEntity
  8
ROADS
100
AcDbPolyline
 90
2
 70
0
 10
638226.8291757314
 20
4850350.30609393
 10
638371.9182921797
 20
4850397.942903047
  0
LWPOLYLINE
  5
1BC
330
17
100
AcDbEntity
  8
ROADS
100
AcDbPolyline
 90
2
 70
0
 10
638371.9182921797
 20
4850397.942903047
 10
638477.7174474916
 20
4850433.866619239
  0
LWPOLYLINE
  5
1BD
330
17
100
AcDbEntity
  8
ROADS
100
AcDbPolyline
 90
2
 70
0
 10
638226.8291757314
 20
4850350.30609393
 10
638202.7747643145
 20
4850426.350934395
  0
LWPOLYLINE
  5
1BE
330
17
100
AcDbEntity
  8
ROADS
100
AcDbPolyline
 90
2
 70
0
 10
638371.9182921797
 20
4850397.942903047
 10
638347.3730619334
 20
4850472.708689382
  0
LWPOLYLINE
  5
1BF
330
17
100
AcDbEntity
  8
ROADS
100
AcDbPolyline
 90
2
 70
0
 10
639192.2074261467
 20
4850067.803491915
 10
639099.8593218739
 20
4850347.148453429
  0
LWPOLYLINE
  5
1C0
330
17
100
AcDbEntity
  8
ROADS
100
AcDbPolyline
 90
2
 70
0
 10
639046.2248816113
 20
4850141.157361946
 10
638990.8680680579
 20
4850308.166557142
  0
LWPOLYLINE
  5
1C1
330
17
100
AcDbEntity
  8
ROADS
100
AcDbPolyline
 90
2
 70
0
 10
638915.2754672348
 20
4850250.788120261
 10
638990.8680680579
 20
4850308.166557142
  0
LWPOLYLINE
  5
1C2
330
17
100
AcDbEntity
  8
ROADS
100
AcDbPolyline
 90
2
 70
0
 10
638915.2754672348
 20
4850250.788120261
 10
638870.3290952974
 20
4850312.979687744
  0
LWPOLYLINE
  5
1C3
330
17
100
AcDbEntity
  8
ROADS
100
AcDbPolyline
 90
2
 70
0
 10
638990.8680680579
 20
4850308.166557142
 10
639099.8593218739
 20
4850347.148453429
  0
LWPOLYLINE
  5
1C4
330
17
100
AcDbEntity
  8
ROADS
100
AcDbPolyline
 90
4
 70
0
 10
638678.3769371354
 20
4850233.489547049
 10
638648.397488537
 20
4850276.949483641
 10
638591.6758190342
 20
4850436.935047828
 10
638696.6319308354
 20
4850473.125653056
  0
LWPOLYLINE
  5
1C5
330
17
100
AcDbEntity
  8
ROADS
100
AcDbPolyline
 90
4
 70
0
 10
638870.3290952974
 20
4850312.979687744
 10
638803.7413743802
 20
4850296.769447905
 10
638754.0316728931
 20
4850321.871072807
 10
638699.3262094416
 20
4850472.51591575
  0
LWPOLYLINE
  5
1C6
330
17
100
AcDbEntity
  8
ROADS
100
AcDbPolyline
 90
4
 70
0
 10
639195.4243896676
 20
4850058.275849257
 10
639207.7680971485
 20
4850082.750931575
 10
639160.925992141
 20
4850242.70382076
 10
639002.1112355853
 20
4850695.01522056
  0
LWPOLYLINE
  5
1C7
330
17
100
AcDbEntity
  8
ROADS
100
AcDbPolyline
 90
2
 70
0
 10
638870.3290952974
 20
4850312.979687744
 10
638795.8346167214
 20
4850539.39534118
  0
LWPOLYLINE
  5
1C8
330
17
100
AcDbEntity
  8
ROADS
100
AcDbPolyline
 90
4
 70
0
 10
638871.1475855358
 20
4850601.344314364
 10
638890.465026573
 20
4850543.367015198
 10
638946.6061503927
 20
4850446.376950067
 10
638990.8680680579
 20
4850308.166557142
  0
LWPOLYLINE
  5
1C9
330
17
100
AcDbEntity
  8
ROADS
100
AcDbPolyline
 90
2
 70
0
 10
638477.7174474916
 20
4850433.866619239
 10
638459.8663568076
 20
4850489.348361915
  0
LWPOLYLINE
  5
1CA
330
17
100
AcDbEntity
  8
ROADS
100
AcDbPolyline
 90
2
 70
0
 10
639099.8593218739
 20
4850347.148453429
 10
638986.346487063
 20
4850683.936161385
  0
LWPOLYLINE
  5
1CB
330
17
100
AcDbEntity
  8
ROADS
100
AcDbPolyline
 90
6
 70
0
 10
639614.6297768098
 20
4850590.522100347
 10
639569.883934072
 20
4850493.700581388
 10
639505.6694738069
 20
4850429.528523869
 10
639388.7973140416
 20
4850387.401429873
 10
639340.22065366
 20
4850401.520534918
 10
639202.2714374055
 20
4850801.9289738275
  0
LWPOLYLINE
  5
1CC
330
17
100
AcDbEntity
  8
ROADS
100
AcDbPolyline
 90
3
 70
0
 10
639614.6297768098
 20
4850590.522100347
 10
639571.6694058573
 20
4850615.745069984
 10
639538.8815229031
 20
4850707.157956692
  0
LWPOLYLINE
  5
1CD
330
17
100
AcDbEntity
  8
ROADS
100
AcDbPolyline
 90
2
 70
0
 10
639859.6834217265
 20
4850699.052900044
 10
639768.685362486
 20
4850980.7919596005
  0
LWPOLYLINE
  5
1CE
330
17
100
AcDbEntity
  8
ROADS
100
AcDbPolyline
 90
2
 70
0
 10
639465.0048709663
 20
4850900.793979218
 10
639544.8421552905
 20
4850915.40066583
  0
LWPOLYLINE
  5
1CF
330
17
100
AcDbEntity
  8
ROADS
100
AcDbPolyline
 90
2
 70
0
 10
639544.8421552905
 20
4850915.40066583
 10
639768.685362486
 20
4850980.7919596005
  0
LWPOLYLINE
  5
1D0
330
17
100
AcDbEntity
  8
ROADS
100
AcDbPolyline
 90
2
 70
0
 10
639544.8421552905
 20
4850915.40066583
 10
639543.7830387184
 20
4850924.533848921
  0
LWPOLYLINE
  5
1D1
330
17
100
AcDbEntity
  8
ROADS
100
AcDbPolyline
 90
3
 70
0
 10
637768.2392833605
 20
4850023.98314096
 10
637808.5230883014
 20
4850037.684286621
 10
637796.8566735904
 20
4850069.239115831
  0
LWPOLYLINE
  5
1D2
330
17
100
AcDbEntity
  8
ROADS
100
AcDbPolyline
 90
2
 70
0
 10
638071.4480850268
 20
4850184.4685974745
 10
638035.327696362
 20
4850190.812658057
  0
LWPOLYLINE
  5
1D3
330
17
100
AcDbEntity
  8
ROADS
100
AcDbPolyline
 90
3
 70
0
 10
638071.4480850268
 20
4850184.4685974745
 10
638095.7717031599
 20
4850214.9132606415
 10
638141.928053355
 20
4850230.753175489
  0
LWPOLYLINE
  5
1D4
330
17
100
AcDbEntity
  8
ROADS
100
AcDbPolyline
 90
2
 70
0
 10
637948.0269705071
 20
4850257.2546942355
 10
638128.0753322783
 20
4850315.50970839
  0
LWPOLYLINE
  5
1D5
330
17
100
AcDbEntity
  8
ROADS
100
AcDbPolyline
 90
2
 70
0
 10
638128.0753322783
 20
4850315.50970839
 10
638106.3699433191
 20
4850378.540391635
  0
LWPOLYLINE
  5
1D6
330
17
100
AcDbEntity
  8
ROADS
100
AcDbPolyline
 90
2
 70
0
 10
639768.685362486
 20
4850980.7919596005
 10
639765.1322958643
 20
4850991.077570605
  0
LWPOLYLINE
  5
1D7
330
17
100
AcDbEntity
  8
ROADS
100
AcDbPolyline
 90
2
 70
0
 10
642206.7541182972
 20
4850642.593611517
 10
642370.9055185618
 20
4850694.255972471
  0
LWPOLYLINE
  5
1D8
330
17
100
AcDbEntity
  8
ROADS
100
AcDbPolyline
 90
2
 70
0
 10
642370.9055185618
 20
4850694.255972471
 10
642462.2681461803
 20
4850721.251599441
  0
LWPOLYLINE
  5
1D9
330
17
100
AcDbEntity
  8
ROADS
100
AcDbPolyline
 90
2
 70
0
 10
642462.2681461803
 20
4850721.251599441
 10
642466.5259609652
 20
4850722.478096209
  0
LWPOLYLINE
  5
1DA
330
17
100
AcDbEntity
  8
ROADS
100
AcDbPolyline
 90
2
 70
0
 10
642370.9055185618
 20
4850694.255972471
 10
642325.4639390664
 20
4850820.5450492045
  0
LWPOLYLINE
  5
1DB
330
17
100
AcDbEntity
  8
ROADS
100
AcDbPolyline
 90
2
 70
0
 10
642243.2671032795
 20
4850804.708712638
 10
642325.4639390664
 20
4850820.5450492045
  0
LWPOLYLINE
  5
1DC
330
17
100
AcDbEntity
  8
ROADS
100
AcDbPolyline
 90
3
 70
0
 10
642462.2681461803
 20
4850721.251599441
 10
642386.9888665511
 20
4850894.799055952
 10
642297.4812822083
 20
4850995.385723828
  0
LWPOLYLINE
  5
1DD
330
17
100
AcDbEntity
  8
ROADS
100
AcDbPolyline
 90
2
 70
0
 10
642325.4639390664
 20
4850820.5450492045
 10
642239.2123660713
 20
4850926.670321422
  0
LWPOLYLINE
  5
1DE
330
17
100
AcDbEntity
  8
ROADS
100
AcDbPolyline
 90
2
 70
0
 10
642201.555007965
 20
4850902.354245327
 10
642239.2123660713
 20
4850926.670321422
  0
LWPOLYLINE
  5
1DF
330
17
100
AcDbEntity
  8
ROADS
100
AcDbPolyline
 90
2
 70
0
 10
642239.2123660713
 20
4850926.670321422
 10
642297.4812822083
 20
4850995.385723828
  0
LWPOLYLINE
  5
1E0
330
17
100
AcDbEntity
  8
ROADS
100
AcDbPolyline
 90
2
 70
0
 10
642297.4812822083
 20
4850995.385723828
 10
642307.349859996
 20
4851017.260207221
  0
LWPOLYLINE
  5
1E1
330
17
100
AcDbEntity
  8
ROADS
100
AcDbPolyline
 90
2
 70
0
 10
642297.4812822083
 20
4850995.385723828
 10
642203.7449297375
 20
4851087.050740914
  0
LWPOLYLINE
  5
1E2
330
17
100
AcDbEntity
  8
ROADS
100
AcDbPolyline
 90
2
 70
0
 10
642203.7449297375
 20
4851087.050740914
 10
642222.6144762394
 20
4851148.76434704
  0
LWPOLYLINE
  5
1E3
330
17
100
AcDbEntity
  8
ROADS
100
AcDbPolyline
 90
2
 70
0
 10
642231.7794544619
 20
4851168.697985246
 10
642222.6144762394
 20
4851148.76434704
  0
LWPOLYLINE
  5
1E4
330
17
100
AcDbEntity
  8
ROADS
100
AcDbPolyline
 90
2
 70
0
 10
640089.3182066681
 20
4849980.08889508
 10
640877.9070434276
 20
4850232.40598063
  0
LWPOLYLINE
  5
1E5
330
17
100
AcDbEntity
  8
ROADS
100
AcDbPolyline
 90
2
 70
0
 10
640089.3182066681
 20
4849980.08889508
 10
640005.1687175485
 20
4850249.586204888
  0
LWPOLYLINE
  5
1E6
330
17
100
AcDbEntity
  8
ROADS
100
AcDbPolyline
 90
2
 70
0
 10
640005.1687175485
 20
4850249.586204888
 10
639950.3052645482
 20
4850418.857028893
  0
LWPOLYLINE
  5
1E7
330
17
100
AcDbEntity
  8
ROADS
100
AcDbPolyline
 90
2
 70
0
 10
639950.3052645482
 20
4850418.857028893
 10
639944.4035892803
 20
4850437.126916772
  0
LWPOLYLINE
  5
1E8
330
17
100
AcDbEntity
  8
ROADS
100
AcDbPolyline
 90
5
 70
0
 10
640005.1687175485
 20
4850249.586204888
 10
640177.1876859843
 20
4850304.708972743
 10
640408.9156417446
 20
4850465.929623079
 10
640653.7611211198
 20
4850720.399783623
 10
640708.8585348628
 20
4850746.402963289
  0
LWPOLYLINE
  5
1E9
330
17
100
AcDbEntity
  8
ROADS
100
AcDbPolyline
 90
2
 70
0
 10
639944.4035892803
 20
4850437.126916772
 10
639859.6834217265
 20
4850699.052900044
  0
LWPOLYLINE
  5
1EA
330
17
100
AcDbEntity
  8
ROADS
100
AcDbPolyline
 90
2
 70
0
 10
639768.685362486
 20
4850980.7919596005
 10
639880.6359826004
 20
4851016.952922114
  0
LWPOLYLINE
  5
1EB
330
17
100
AcDbEntity
  8
ROADS
100
AcDbPolyline
 90
3
 70
0
 10
640043.2256387149
 20
4851069.470705882
 10
640049.3853244856
 20
4851071.460334578
 10
640054.0241342237
 20
4851074.618497756
  0
LWPOLYLINE
  5
1EC
330
17
100
AcDbEntity
  8
ROADS
100
AcDbPolyline
 90
2
 70
0
 10
641801.9270674435
 20
4850635.689490316
 10
641966.8669040666
 20
4850681.168918403
  0
LWPOLYLINE
  5
1ED
330
17
100
AcDbEntity
  8
ROADS
100
AcDbPolyline
 90
2
 70
0
 10
641966.8669040666
 20
4850681.168918403
 10
642004.338809354
 20
4850687.878214561
  0
LWPOLYLINE
  5
1EE
330
17
100
AcDbEntity
  8
ROADS
100
AcDbPolyline
 90
2
 70
0
 10
641768.0304860037
 20
4850740.200278877
 10
641801.9270674435
 20
4850635.689490316
  0
LWPOLYLINE
  5
1EF
330
17
100
AcDbEntity
  8
ROADS
100
AcDbPolyline
 90
2
 70
0
 10
642004.338809354
 20
4850687.878214561
 10
642030.5008247044
 20
4850696.253227179
  0
LWPOLYLINE
  5
1F0
330
17
100
AcDbEntity
  8
ROADS
100
AcDbPolyline
 90
2
 70
0
 10
641597.8466026265
 20
4850688.711678618
 10
641768.0304860037
 20
4850740.200278877
  0
LWPOLYLINE
  5
1F1
330
17
100
AcDbEntity
  8
ROADS
100
AcDbPolyline
 90
2
 70
0
 10
641597.8466026265
 20
4850688.711678618
 10
641572.6329594381
 20
4850767.287024562
  0
LWPOLYLINE
  5
1F2
330
17
100
AcDbEntity
  8
ROADS
100
AcDbPolyline
 90
2
 70
0
 10
641966.8669040666
 20
4850681.168918403
 10
641936.3565237899
 20
4850775.285514802
  0
LWPOLYLINE
  5
1F3
330
17
100
AcDbEntity
  8
ROADS
100
AcDbPolyline
 90
5
 70
0
 10
642145.135655245
 20
4850775.625186938
 10
642133.2157481142
 20
4850697.359790208
 10
642080.46122447
 20
4850681.682074242
 10
642057.3278130912
 20
4850765.386780887
 10
642145.135655245
 20
4850775.625186938
  0
LWPOLYLINE
  5
1F4
330
17
100
AcDbEntity
  8
ROADS
100
AcDbPolyline
 90
2
 70
0
 10
642004.338809354
 20
4850687.878214561
 10
641972.3968087591
 20
4850785.689769756
  0
LWPOLYLINE
  5
1F5
330
17
100
AcDbEntity
  8
ROADS
100
AcDbPolyline
 90
4
 70
0
 10
641768.0304860037
 20
4850740.200278877
 10
641790.9514111825
 20
4850770.576885319
 10
641846.8343370773
 20
4850798.111556527
 10
641866.7298981944
 20
4850716.2554229675
  0
LWPOLYLINE
  5
1F6
330
17
100
AcDbEntity
  8
ROADS
100
AcDbPolyline
 90
2
 70
0
 10
641936.3565237899
 20
4850775.285514802
 10
641972.3968087591
 20
4850785.689769756
  0
LWPOLYLINE
  5
1F7
330
17
100
AcDbEntity
  8
ROADS
100
AcDbPolyline
 90
2
 70
0
 10
641572.6329594381
 20
4850767.287024562
 10
641642.8978537878
 20
4850800.03686926
  0
LWPOLYLINE
  5
1F8
330
17
100
AcDbEntity
  8
ROADS
100
AcDbPolyline
 90
2
 70
0
 10
641972.3968087591
 20
4850785.689769756
 10
641996.0686427414
 20
4850793.673618665
  0
LWPOLYLINE
  5
1F9
330
17
100
AcDbEntity
  8
ROADS
100
AcDbPolyline
 90
2
 70
0
 10
641936.3565237899
 20
4850775.285514802
 10
641925.5671748731
 20
4850811.052788877
  0
LWPOLYLINE
  5
1FA
330
17
100
AcDbEntity
  8
ROADS
100
AcDbPolyline
 90
2
 70
0
 10
642150.3551354976
 20
4850880.24898075
 10
642145.135655245
 20
4850775.625186938
  0
LWPOLYLINE
  5
1FB
330
17
100
AcDbEntity
  8
ROADS
100
AcDbPolyline
 90
2
 70
0
 10
641925.5671748731
 20
4850811.052788877
 10
642031.5957930054
 20
4850844.8599304035
  0
LWPOLYLINE
  5
1FC
330
17
100
AcDbEntity
  8
ROADS
100
AcDbPolyline
 90
2
 70
0
 10
641925.5671748731
 20
4850811.052788877
 10
641905.5819121837
 20
4850869.825850895
  0
LWPOLYLINE
  5
1FD
330
17
100
AcDbEntity
  8
ROADS
100
AcDbPolyline
 90
2
 70
0
 10
641642.8978537878
 20
4850800.03686926
 10
641616.148154733
 20
4850882.9638389535
  0
LWPOLYLINE
  5
1FE
330
17
100
AcDbEntity
  8
ROADS
100
AcDbPolyline
 90
3
 70
0
 10
641889.994921216
 20
4850917.849473776
 10
641759.8909241722
 20
4850841.989550231
 10
641642.8978537878
 20
4850800.03686926
  0
LWPOLYLINE
  5
1FF
330
17
100
AcDbEntity
  8
ROADS
100
AcDbPolyline
 90
2
 70
0
 10
641954.2936946778
 20
4850837.182176022
 10
641939.9023603343
 20
4850881.259056068
  0
LWPOLYLINE
  5
200
330
17
100
AcDbEntity
  8
ROADS
100
AcDbPolyline
 90
2
 70
0
 10
642031.5957930054
 20
4850844.8599304035
 10
642150.3551354976
 20
4850880.24898075
  0
LWPOLYLINE
  5
201
330
17
100
AcDbEntity
  8
ROADS
100
AcDbPolyline
 90
2
 70
0
 10
641572.6329594381
 20
4850767.287024562
 10
641507.1114623134
 20
4850978.929858561
  0
LWPOLYLINE
  5
202
330
17
100
AcDbEntity
  8
ROADS
100
AcDbPolyline
 90
2
 70
0
 10
641905.5819121837
 20
4850869.825850895
 10
641939.9023603343
 20
4850881.259056068
  0
LWPOLYLINE
  5
203
330
17
100
AcDbEntity
  8
ROADS
100
AcDbPolyline
 90
2
 70
0
 10
642150.3551354976
 20
4850880.24898075
 10
642201.555007965
 20
4850902.354245327
  0
LWPOLYLINE
  5
204
330
17
100
AcDbEntity
  8
ROADS
100
AcDbPolyline
 90
2
 70
0
 10
641905.5819121837
 20
4850869.825850895
 10
641889.994921216
 20
4850917.849473776
  0
LWPOLYLINE
  5
205
330
17
100
AcDbEntity
  8
ROADS
100
AcDbPolyline
 90
2
 70
0
 10
641939.9023603343
 20
4850881.259056068
 10
641929.4934943997
 20
4850913.138809089
  0
LWPOLYLINE
  5
206
330
17
100
AcDbEntity
  8
ROADS
100
AcDbPolyline
 90
2
 70
0
 10
641616.148154733
 20
4850882.9638389535
 10
641592.5567117016
 20
4850965.894033964
  0
LWPOLYLINE
  5
207
330
17
100
AcDbEntity
  8
ROADS
100
AcDbPolyline
 90
3
 70
0
 10
641616.148154733
 20
4850882.9638389535
 10
641717.8303273153
 20
4850917.978330237
 10
641816.3132110056
 20
4850986.484414091
  0
LWPOLYLINE
  5
208
330
17
100
AcDbEntity
  8
ROADS
100
AcDbPolyline
 90
2
 70
0
 10
641889.994921216
 20
4850917.849473776
 10
641882.243264079
 20
4851019.201762249
  0
LWPOLYLINE
  5
209
330
17
100
AcDbEntity
  8
ROADS
100
AcDbPolyline
 90
2
 70
0
 10
641507.1114623134
 20
4850978.929858561
 10
641592.5567117016
 20
4850965.894033964
  0
LWPOLYLINE
  5
20A
330
17
100
AcDbEntity
  8
ROADS
100
AcDbPolyline
 90
3
 70
0
 10
642201.555007965
 20
4850902.354245327
 10
642207.4825568717
 20
4850985.291565793
 10
642167.4837298949
 20
4851053.354947592
  0
LWPOLYLINE
  5
20B
330
17
100
AcDbEntity
  8
ROADS
100
AcDbPolyline
 90
2
 70
0
 10
641507.1114623134
 20
4850978.929858561
 10
641500.128342263
 20
4851002.787810148
  0
LWPOLYLINE
  5
20C
330
17
100
AcDbEntity
  8
ROADS
100
AcDbPolyline
 90
2
 70
0
 10
641816.3132110056
 20
4850986.484414091
 10
641882.243264079
 20
4851019.201762249
  0
LWPOLYLINE
  5
20D
330
17
100
AcDbEntity
  8
ROADS
100
AcDbPolyline
 90
3
 70
0
 10
641592.5567117016
 20
4850965.894033964
 10
641761.3376740811
 20
4851046.887473949
 10
641816.3132110056
 20
4850986.484414091
  0
LWPOLYLINE
  5
20E
330
17
100
AcDbEntity
  8
ROADS
100
AcDbPolyline
 90
3
 70
0
 10
642031.5957930054
 20
4850844.8599304035
 10
641940.9875164947
 20
4851122.437399133
 10
641876.7283312806
 20
4851183.757301448
  0
LWPOLYLINE
  5
20F
330
17
100
AcDbEntity
  8
ROADS
100
AcDbPolyline
 90
2
 70
0
 10
642167.4837298949
 20
4851053.354947592
 10
642161.0953902173
 20
4851039.872724355
  0
LWPOLYLINE
  5
210
330
17
100
AcDbEntity
  8
ROADS
100
AcDbPolyline
 90
2
 70
0
 10
641882.243264079
 20
4851019.201762249
 10
641818.0942250976
 20
4851113.732193105
  0
LWPOLYLINE
  5
211
330
17
100
AcDbEntity
  8
ROADS
100
AcDbPolyline
 90
2
 70
0
 10
642167.4837298949
 20
4851053.354947592
 10
642203.7449297375
 20
4851087.050740914
  0
LWPOLYLINE
  5
212
330
17
100
AcDbEntity
  8
ROADS
100
AcDbPolyline
 90
3
 70
0
 10
641500.128342263
 20
4851002.787810148
 10
641673.8127002402
 20
4851064.142039053
 10
641770.7647613164
 20
4851155.745860622
  0
LWPOLYLINE
  5
213
330
17
100
AcDbEntity
  8
ROADS
100
AcDbPolyline
 90
2
 70
0
 10
641818.0942250976
 20
4851113.732193105
 10
641770.7647613164
 20
4851155.745860622
  0
LWPOLYLINE
  5
214
330
17
100
AcDbEntity
  8
ROADS
100
AcDbPolyline
 90
2
 70
0
 10
641818.0942250976
 20
4851113.732193105
 10
641876.7283312806
 20
4851183.757301448
  0
LWPOLYLINE
  5
215
330
17
100
AcDbEntity
  8
ROADS
100
AcDbPolyline
 90
3
 70
0
 10
642222.6144762394
 20
4851148.76434704
 10
642201.2610406143
 20
4851146.17906495
 10
642130.2518240552
 20
4851222.024228386
  0
LWPOLYLINE
  5
216
330
17
100
AcDbEntity
  8
ROADS
100
AcDbPolyline
 90
3
 70
0
 10
641876.7283312806
 20
4851183.757301448
 10
641914.064201335
 20
4851225.420405364
 10
641934.9934432035
 20
4851227.7369738445
  0
LWPOLYLINE
  5
217
330
17
100
AcDbEntity
  8
ROADS
100
AcDbPolyline
 90
2
 70
0
 10
641500.128342263
 20
4851002.787810148
 10
641403.5652296101
 20
4851435.913186073
  0
LWPOLYLINE
  5
218
330
17
100
AcDbEntity
  8
ROADS
100
AcDbPolyline
 90
2
 70
0
 10
642203.7449297375
 20
4851087.050740914
 10
641950.8575832286
 20
4851353.896932611
  0
LWPOLYLINE
  5
219
330
17
100
AcDbEntity
  8
ROADS
100
AcDbPolyline
 90
2
 70
0
 10
641770.7647613164
 20
4851155.745860622
 10
641950.8575832286
 20
4851353.896932611
  0
LWPOLYLINE
  5
21A
330
17
100
AcDbEntity
  8
ROADS
100
AcDbPolyline
 90
2
 70
0
 10
642130.2518240552
 20
4851222.024228386
 10
642167.7435062329
 20
4851257.332726579
  0
LWPOLYLINE
  5
21B
330
17
100
AcDbEntity
  8
ROADS
100
AcDbPolyline
 90
3
 70
0
 10
642130.2518240552
 20
4851222.024228386
 10
642025.9598002916
 20
4851345.940265432
 10
642050.4888757835
 20
4851370.303691607
  0
LWPOLYLINE
  5
21C
330
17
100
AcDbEntity
  8
ROADS
100
AcDbPolyline
 90
2
 70
0
 10
641950.8575832286
 20
4851353.896932611
 10
642001.0097502444
 20
4851406.360561891
  0
LWPOLYLINE
  5
21D
330
17
100
AcDbEntity
  8
ROADS
100
AcDbPolyline
 90
3
 70
0
 10
641292.1920583352
 20
4850813.332498239
 10
641263.6781185125
 20
4850830.987589272
 10
641235.9158222962
 20
4850936.289946635
  0
LWPOLYLINE
  5
21E
330
17
100
AcDbEntity
  8
ROADS
100
AcDbPolyline
 90
2
 70
0
 10
641235.9158222962
 20
4850936.289946635
 10
641500.128342263
 20
4851002.787810148
  0
LWPOLYLINE
  5
21F
330
17
100
AcDbEntity
  8
ROADS
100
AcDbPolyline
 90
2
 70
0
 10
641403.5652296101
 20
4851435.913186073
 10
641336.4862196386
 20
4851636.706417578
  0
ENDSEC
  0
SECTION
  2
OBJECTS
  0
DICTIONARY
  5
A
330
0
100
AcDbDictionary
281
1
  3
ACAD_COLOR
350
B
  3
ACAD_GROUP
350
C
  3
ACAD_LAYOUT
350
D
  3
ACAD_MATERIAL
350
E
  3
ACAD_MLEADERSTYLE
350
F
  3
ACAD_MLINESTYLE
350
10
  3
ACAD_PLOTSETTINGS
350
11
  3
ACAD_PLOTSTYLENAME
350
12
  3
ACAD_SCALELIST
350
14
  3
ACAD_TABLESTYLE
350
15
  3
ACAD_VISUALSTYLE
350
16
  3
EZDXF_META
350
2D
  0
DICTIONARY
  5
B
330
A
100
AcDbDictionary
281
1
  0
DICTIONARY
  5
C
330
A
100
AcDbDictionary
281
1
  0
DICTIONARY
  5
D
330
A
100
AcDbDictionary
281
1
  3
Model
350
1A
  3
Layout1
350
1E
  0
DICTIONARY
  5
E
330
A
100
AcDbDictionary
281
1
  3
ByBlock
350
1F
  3
ByLayer
350
20
  3
Global
350
21
  0
DICTIONARY
  5
F
330
A
100
AcDbDictionary
281
1
  3
Standard
350
2C
  0
DICTIONARY
  5
10
330
A
100
AcDbDictionary
281
1
  3
Standard
350
22
  0
DICTIONARY
  5
11
330
A
100
AcDbDictionary
281
1
  0
ACDBDICTIONARYWDFLT
  5
12
330
A
100
AcDbDictionary
281
1
  3
Normal
350
13
100
AcDbDictionaryWithDefault
340
13
  0
ACDBPLACEHOLDER
  5
13
330
12
  0
DICTIONARY
  5
14
330
A
100
AcDbDictionary
281
1
  0
DICTIONARY
  5
15
330
A
100
AcDbDictionary
281
1
  0
DICTIONARY
  5
16
330
A
100
AcDbDictionary
281
1
  0
LAYOUT
  5
1A
330
D
100
AcDbPlotSettings
  1

  4
A3
  6

 40
7.5
 41
20.0
 42
7.5
 43
20.0
 44
420.0
 45
297.0
 46
0.0
 47
0.0
 48
0.0
 49
0.0
140
0.0
141
0.0
142
1.0
143
1.0
 70
1024
 72
1
 73
0
 74
5
  7

 75
16
 76
0
 77
2
 78
300
147
1.0
148
0.0
149
0.0
100
AcDbLayout
  1
Model
 70
1
 71
0
 10
0.0
 20
0.0
 11
420.0
 21
297.0
 12
0.0
 22
0.0
 32
0.0
 14
1e+20
 24
1e+20
 34
1e+20
 15
-1e+20
 25
-1e+20
 35
-1e+20
146
0.0
 13
0.0
 23
0.0
 33
0.0
 16
1.0
 26
0.0
 36
0.0
 17
0.0
 27
1.0
 37
0.0
 76
1
330
17
  0
LAYOUT
  5
1E
330
D
100
AcDbPlotSettings
  1

  4
A3
  6

 40
7.5
 41
20.0
 42
7.5
 43
20.0
 44
420.0
 45
297.0
 46
0.0
 47
0.0
 48
0.0
 49
0.0
140
0.0
141
0.0
142
1.0
143
1.0
 70
0
 72
1
 73
0
 74
5
  7

 75
16
 76
0
 77
2
 78
300
147
1.0
148
0.0
149
0.0
100
AcDbLayout
  1
Layout1
 70
1
 71
1
 10
0.0
 20
0.0
 11
420.0
 21
297.0
 12
0.0
 22
0.0
 32
0.0
 14
1e+20
 24
1e+20
 34
1e+20
 15
-1e+20
 25
-1e+20
 35
-1e+20
146
0.0
 13
0.0
 23
0.0
 33
0.0
 16
1.0
 26
0.0
 36
0.0
 17
0.0
 27
1.0
 37
0.0
 76
1
330
1B
  0
MATERIAL
  5
1F
102
{ACAD_REACTORS
330
E
102
}
330
E
100
AcDbMaterial
  1
ByBlock
  2

 70
0
 40
1.0
 71
1
 41
1.0
 91
-1023410177
 42
1.0
 72
1
  3

 73
1
 74
1
 75
1
 44
0.5
 73
0
 45
1.0
 46
1.0
 77
1
  4

 78
1
 79
1
170
1
 48
1.0
171
1
  6

172
1
173
1
174
1
140
1.0
141
1.0
175
1
  7

176
1
177
1
178
1
143
1.0
179
1
  8

270
1
271
1
272
1
145
1.0
146
1.0
273
1
  9

274
1
275
1
276
1
 42
1.0
 72
1
  3

 73
1
 74
1
 75
1
 94
63
  0
MATERIAL
  5
20
102
{ACAD_REACTORS
330
E
102
}
330
E
100
AcDbMaterial
  1
ByLayer
  2

 70
0
 40
1.0
 71
1
 41
1.0
 91
-1023410177
 42
1.0
 72
1
  3

 73
1
 74
1
 75
1
 44
0.5
 73
0
 45
1.0
 46
1.0
 77
1
  4

 78
1
 79
1
170
1
 48
1.0
171
1
  6

172
1
173
1
174
1
140
1.0
141
1.0
175
1
  7

176
1
177
1
178
1
143
1.0
179
1
  8

270
1
271
1
272
1
145
1.0
146
1.0
273
1
  9

274
1
275
1
276
1
 42
1.0
 72
1
  3

 73
1
 74
1
 75
1
 94
63
  0
MATERIAL
  5
21
102
{ACAD_REACTORS
330
E
102
}
330
E
100
AcDbMaterial
  1
Global
  2

 70
0
 40
1.0
 71
1
 41
1.0
 91
-1023410177
 42
1.0
 72
1
  3

 73
1
 74
1
 75
1
 44
0.5
 73
0
 45
1.0
 46
1.0
 77
1
  4

 78
1
 79
1
170
1
 48
1.0
171
1
  6

172
1
173
1
174
1
140
1.0
141
1.0
175
1
  7

176
1
177
1
178
1
143
1.0
179
1
  8

270
1
271
1
272
1
145
1.0
146
1.0
273
1
  9

274
1
275
1
276
1
 42
1.0
 72
1
  3

 73
1
 74
1
 75
1
 94
63
  0
MLINESTYLE
  5
22
102
{ACAD_REACTORS
330
10
102
}
330
10
100
AcDbMlineStyle
  2
Standard
 70
0
  3

 62
256
 51
90.0
 52
90.0
 71
2
 49
0.5
 62
256
  6
BYLAYER
 49
-0.5
 62
256
  6
BYLAYER
  0
MLEADERSTYLE
  5
2C
102
{ACAD_REACTORS
330
F
102
}
330
F
100
AcDbMLeaderStyle
179
2
170
2
171
1
172
0
 90
2
 40
0.0
 41
0.0
173
1
 91
-1056964608
 92
-2
290
1
 42
2.0
291
1
 43
8.0
  3
Standard
 44
4.0
300

342
29
174
1
175
1
176
0
178
1
 93
-1056964608
 45
4.0
292
0
297
0
 46
4.0
 94
-1056964608
 47
1.0
 49
1.0
140
1.0
294
1
141
0.0
177
0
142
1.0
295
0
296
0
143
3.75
271
0
272
9
273
9
  0
DICTIONARY
  5
2D
330
A
100
AcDbDictionary
280
1
281
1
  3
CREATED_BY_EZDXF
350
2E
  3
WRITTEN_BY_EZDXF
350
222
  0
DICTIONARYVAR
  5
2E
330
2D
100
DictionaryVariables
280
0
  1
1.4.4 @ 2026-07-07T18:25:29.920063+00:00
  0
DICTIONARYVAR
  5
222
330
2D
100
DictionaryVariables
280
0
  1
1.4.4 @ 2026-07-07T18:25:29.933583+00:00
  0
ENDSEC
  0
EOF
