  0
SECTION
  2
HEADER
  9
$ACADVER
  1
AC1015
  9
$ACADMAINTVER
 70
6
  9
$DWGCODEPAGE
  3
ANSI_1252
  9
$INSBASE
 10
0.0
 20
0.0
 30
0.0
  9
$EXTMIN
 10
1e+20
 20
1e+20
 30
1e+20
  9
$EXTMAX
 10
-1e+20
 20
-1e+20
 30
-1e+20
  9
$LIMMIN
 10
0.0
 20
0.0
  9
$LIMMAX
 10
420.0
 20
297.0
  9
$ORTHOMODE
 70
0
  9
$REGENMODE
 70
1
  9
$FILLMODE
 70
1
  9
$QTEXTMODE
 70
0
  9
$MIRRTEXT
 70
1
  9
$LTSCALE
 40
1.0
  9
$ATTMODE
 70
1
  9
$TEXTSIZE
 40
2.5
  9
$TRACEWID
 40
1.0
  9
$TEXTSTYLE
  7
Standard
  9
$CLAYER
  8
0
  9
$CELTYPE
  6
ByLayer
  9
$CECOLOR
 62
256
  9
$CELTSCALE
 40
1.0
  9
$DISPSILH
 70
0
  9
$DIMSCALE
 40
1.0
  9
$DIMASZ
 40
2.5
  9
$DIMEXO
 40
0.625
  9
$DIMDLI
 40
3.75
  9
$DIMRND
 40
0.0
  9
$DIMDLE
 40
0.0
  9
$DIMEXE
 40
1.25
  9
$DIMTP
 40
0.0
  9
$DIMTM
 40
0.0
  9
$DIMTXT
 40
2.5
  9
$DIMCEN
 40
2.5
  9
$DIMTSZ
 40
0.0
  9
$DIMTOL
 70
0
  9
$DIMLIM
 70
0
  9
$DIMTIH
 70
0
  9
$DIMTOH
 70
0
  9
$DIMSE1
 70
0
  9
$DIMSE2
 70
0
  9
$DIMTAD
 70
1
  9
$DIMZIN
 70
8
  9
$DIMBLK
  1

  9
$DIMASO
 70
1
  9
$DIMSHO
 70
1
  9
$DIMPOST
  1

  9
$DIMAPOST
  1

  9
$DIMALT
 70
0
  9
$DIMALTD
 70
3
  9
$DIMALTF
 40
0.03937007874
  9
$DIMLFAC
 40
1.0
  9
$DIMTOFL
 70
1
  9
$DIMTVP
 40
0.0
  9
$DIMTIX
 70
0
  9
$DIMSOXD
 70
0
  9
$DIMSAH
 70
0
  9
$DIMBLK1
  1

  9
$DIMBLK2
  1

  9
$DIMSTYLE
  2
ISO-25
  9
$DIMCLRD
 70
0
  9
$DIMCLRE
 70
0
  9
$DIMCLRT
 70
0
  9
$DIMTFAC
 40
1.0
  9
$DIMGAP
 40
0.625
  9
$DIMJUST
 70
0
  9
$DIMSD1
 70
0
  9
$DIMSD2
 70
0
  9
$DIMTOLJ
 70
0
  9
$DIMTZIN
 70
8
  9
$DIMALTZ
 70
0
  9
$DIMALTTZ
 70
0
  9
$DIMUPT
 70
0
  9
$DIMDEC
 70
2
  9
$DIMTDEC
 70
2
  9
$DIMALTU
 70
2
  9
$DIMALTTD
 70
3
  9
$DIMTXSTY
  7
Standard
  9
$DIMAUNIT
 70
0
  9
$DIMADEC
 70
0
  9
$DIMALTRND
 40
0.0
  9
$DIMAZIN
 70
0
  9
$DIMDSEP
 70
44
  9
$DIMATFIT
 70
3
  9
$DIMFRAC
 70
0
  9
$DIMLDRBLK
  1

  9
$DIMLUNIT
 70
2
  9
$DIMLWD
 70
-2
  9
$DIMLWE
 70
-2
  9
$DIMTMOVE
 70
0
  9
$LUNITS
 70
2
  9
$LUPREC
 70
4
  9
$SKETCHINC
 40
1.0
  9
$FILLETRAD
 40
10.0
  9
$AUNITS
 70
0
  9
$AUPREC
 70
2
  9
$MENU
  1
.
  9
$ELEVATION
 40
0.0
  9
$PELEVATION
 40
0.0
  9
$THICKNESS
 40
0.0
  9
$LIMCHECK
 70
0
  9
$CHAMFERA
 40
0.0
  9
$CHAMFERB
 40
0.0
  9
$CHAMFERC
 40
0.0
  9
$CHAMFERD
 40
0.0
  9
$SKPOLY
 70
0
  9
$TDCREATE
 40
2461252.486655093
  9
$TDUCREATE
 40
2458532.153996898
  9
$TDUPDATE
 40
2461252.486655093
  9
$TDUUPDATE
 40
2458532.1544311
  9
$TDINDWG
 40
0.0
  9
$TDUSRTIMER
 40
0.0
  9
$USRTIMER
 70
1
  9
$ANGBASE
 50
0.0
  9
$ANGDIR
 70
0
  9
$PDMODE
 70
0
  9
$PDSIZE
 40
0.0
  9
$PLINEWID
 40
0.0
  9
$SPLFRAME
 70
0
  9
$SPLINETYPE
 70
6
  9
$SPLINESEGS
 70
8
  9
$HANDSEED
  5
26D
  9
$SURFTAB1
 70
6
  9
$SURFTAB2
 70
6
  9
$SURFTYPE
 70
6
  9
$SURFU
 70
6
  9
$SURFV
 70
6
  9
$UCSBASE
  2

  9
$UCSNAME
  2

  9
$UCSORG
 10
0.0
 20
0.0
 30
0.0
  9
$UCSXDIR
 10
1.0
 20
0.0
 30
0.0
  9
$UCSYDIR
 10
0.0
 20
1.0
 30
0.0
  9
$UCSORTHOREF
  2

  9
$UCSORTHOVIEW
 70
0
  9
$UCSORGTOP
 10
0.0
 20
0.0
 30
0.0
  9
$UCSORGBOTTOM
 10
0.0
 20
0.0
 30
0.0
  9
$UCSORGLEFT
 10
0.0
 20
0.0
 30
0.0
  9
$UCSORGRIGHT
 10
0.0
 20
0.0
 30
0.0
  9
$UCSORGFRONT
 10
0.0
 20
0.0
 30
0.0
  9
$UCSORGBACK
 10
0.0
 20
0.0
 30
0.0
  9
$PUCSBASE
  2

  9
$PUCSNAME
  2

  9
$PUCSORG
 10
0.0
 20
0.0
 30
0.0
  9
$PUCSXDIR
 10
1.0
 20
0.0
 30
0.0
  9
$PUCSYDIR
 10
0.0
 20
1.0
 30
0.0
  9
$PUCSORTHOREF
  2

  9
$PUCSORTHOVIEW
 70
0
  9
$PUCSORGTOP
 10
0.0
 20
0.0
 30
0.0
  9
$PUCSORGBOTTOM
 10
0.0
 20
0.0
 30
0.0
  9
$PUCSORGLEFT
 10
0.0
 20
0.0
 30
0.0
  9
$PUCSORGRIGHT
 10
0.0
 20
0.0
 30
0.0
  9
$PUCSORGFRONT
 10
0.0
 20
0.0
 30
0.0
  9
$PUCSORGBACK
 10
0.0
 20
0.0
 30
0.0
  9
$USERI1
 70
0
  9
$USERI2
 70
0
  9
$USERI3
 70
0
  9
$USERI4
 70
0
  9
$USERI5
 70
0
  9
$USERR1
 40
0.0
  9
$USERR2
 40
0.0
  9
$USERR3
 40
0.0
  9
$USERR4
 40
0.0
  9
$USERR5
 40
0.0
  9
$WORLDVIEW
 70
1
  9
$SHADEDGE
 70
3
  9
$SHADEDIF
 70
70
  9
$TILEMODE
 70
1
  9
$MAXACTVP
 70
64
  9
$PINSBASE
 10
0.0
 20
0.0
 30
0.0
  9
$PLIMCHECK
 70
0
  9
$PEXTMIN
 10
1e+20
 20
1e+20
 30
1e+20
  9
$PEXTMAX
 10
-1e+20
 20
-1e+20
 30
-1e+20
  9
$PLIMMIN
 10
0.0
 20
0.0
  9
$PLIMMAX
 10
420.0
 20
297.0
  9
$UNITMODE
 70
0
  9
$VISRETAIN
 70
1
  9
$PLINEGEN
 70
0
  9
$PSLTSCALE
 70
1
  9
$TREEDEPTH
 70
3020
  9
$CMLSTYLE
  2
Standard
  9
$CMLJUST
 70
0
  9
$CMLSCALE
 40
20.0
  9
$PROXYGRAPHICS
 70
1
  9
$MEASUREMENT
 70
1
  9
$CELWEIGHT
370
-1
  9
$ENDCAPS
280
0
  9
$JOINSTYLE
280
0
  9
$LWDISPLAY
290
0
  9
$INSUNITS
 70
6
  9
$HYPERLINKBASE
  1

  9
$STYLESHEET
  1

  9
$XEDIT
290
1
  9
$CEPSNTYPE
380
0
  9
$PSTYLEMODE
290
1
  9
$FINGERPRINTGUID
  2
{9A759948-51E4-486F-A831-A4E99E914594}
  9
$VERSIONGUID
  2
{8A1CC248-7361-48A3-AB12-1C04530DF6A3}
  9
$EXTNAMES
290
1
  9
$PSVPSCALE
 40
0.0
  9
$OLESTARTUP
290
0
  0
ENDSEC
  0
SECTION
  2
CLASSES
  0
CLASS
  1
ACDBDICTIONARYWDFLT
  2
AcDbDictionaryWithDefault
  3
ObjectDBX Classes
 90
0
280
0
281
0
  0
CLASS
  1
SUN
  2
AcDbSun
  3
SCENEOE
 90
1153
280
0
281
0
  0
CLASS
  1
VISUALSTYLE
  2
AcDbVisualStyle
  3
ObjectDBX Classes
 90
4095
280
0
281
0
  0
CLASS
  1
MATERIAL
  2
AcDbMaterial
  3
ObjectDBX Classes
 90
1153
280
0
281
0
  0
CLASS
  1
SCALE
  2
AcDbScale
  3
ObjectDBX Classes
 90
1153
280
0
281
0
  0
CLASS
  1
TABLESTYLE
  2
AcDbTableStyle
  3
ObjectDBX Classes
 90
4095
280
0
281
0
  0
CLASS
  1
MLEADERSTYLE
  2
AcDbMLeaderStyle
  3
ACDB_MLEADERSTYLE_CLASS
 90
4095
280
0
281
0
  0
CLASS
  1
DICTIONARYVAR
  2
AcDbDictionaryVar
  3
ObjectDBX Classes
 90
0
280
0
281
0
  0
CLASS
  1
CELLSTYLEMAP
  2
AcDbCellStyleMap
  3
ObjectDBX Classes
 90
1152
280
0
281
0
  0
CLASS
  1
MENTALRAYRENDERSETTINGS
  2
AcDbMentalRayRenderSettings
  3
SCENEOE
 90
1024
280
0
281
0
  0
CLASS
  1
ACDBDETAILVIEWSTYLE
  2
AcDbDetailViewStyle
  3
ObjectDBX Classes
 90
1025
280
0
281
0
  0
CLASS
  1
ACDBSECTIONVIEWSTYLE
  2
AcDbSectionViewStyle
  3
ObjectDBX Classes
 90
1025
280
0
281
0
  0
CLASS
  1
RASTERVARIABLES
  2
AcDbRasterVariables
  3
ISM
 90
0
280
0
281
0
  0
CLASS
  1
ACDBPLACEHOLDER
  2
AcDbPlaceHolder
  3
ObjectDBX Classes
 90
0
280
0
281
0
  0
CLASS
  1
LAYOUT
  2
AcDbLayout
  3
ObjectDBX Classes
 90
0
280
0
281
0
  0
ENDSEC
  0
SECTION
  2
TABLES
  0
TABLE
  2
VPORT
  5
8
330
0
100
AcDbSymbolTable
 70
1
  0
VPORT
  5
23
330
8
100
AcDbSymbolTableRecord
100
AcDbViewportTableRecord
  2
*Active
 70
0
 10
0.0
 20
0.0
 11
1.0
 21
1.0
 12
0.0
 22
0.0
 13
0.0
 23
0.0
 14
0.5
 24
0.5
 15
0.5
 25
0.5
 16
0.0
 26
0.0
 36
1.0
 17
0.0
 27
0.0
 37
0.0
 40
1000.0
 41
1.34
 42
50.0
 43
0.0
 44
0.0
 50
0.0
 51
0.0
 71
0
 72
1000
 73
1
 74
3
 75
0
 76
0
 77
0
 78
0
281
0
 65
0
146
0.0
  0
ENDTAB
  0
TABLE
  2
LTYPE
  5
2
330
0
100
AcDbSymbolTable
 70
3
  0
LTYPE
  5
24
330
2
100
AcDbSymbolTableRecord
100
AcDbLinetypeTableRecord
  2
ByBlock
 70
0
  3

 72
65
 73
0
 40
0.0
  0
LTYPE
  5
25
330
2
100
AcDbSymbolTableRecord
100
AcDbLinetypeTableRecord
  2
ByLayer
 70
0
  3

 72
65
 73
0
 40
0.0
  0
LTYPE
  5
26
330
2
100
AcDbSymbolTableRecord
100
AcDbLinetypeTableRecord
  2
Continuous
 70
0
  3

 72
65
 73
0
 40
0.0
  0
ENDTAB
  0
TABLE
  2
LAYER
  5
1
330
0
100
AcDbSymbolTable
 70
2
  0
LAYER
  5
27
330
1
100
AcDbSymbolTableRecord
100
AcDbLayerTableRecord
  2
0
 70
0
 62
7
  6
Continuous
370
-3
390
13
  0
LAYER
  5
28
330
1
100
AcDbSymbolTableRecord
100
AcDbLayerTableRecord
  2
Defpoints
 70
0
 62
7
  6
Continuous
290
0
370
-3
390
13
  0
ENDTAB
  0
TABLE
  2
STYLE
  5
5
330
0
100
AcDbSymbolTable
 70
1
  0
STYLE
  5
29
330
5
100
AcDbSymbolTableRecord
100
AcDbTextStyleTableRecord
  2
Standard
 70
0
 40
0.0
 41
1.0
 50
0.0
 71
0
 42
2.5
  3
txt
  4

  0
ENDTAB
  0
TABLE
  2
VIEW
  5
7
330
0
100
AcDbSymbolTable
 70
0
  0
ENDTAB
  0
TABLE
  2
UCS
  5
6
330
0
100
AcDbSymbolTable
 70
0
  0
ENDTAB
  0
TABLE
  2
APPID
  5
3
330
0
100
AcDbSymbolTable
 70
3
  0
APPID
  5
2A
330
3
100
AcDbSymbolTableRecord
100
AcDbRegAppTableRecord
  2
ACAD
 70
0
  0
APPID
  5
26A
330
3
100
AcDbSymbolTableRecord
100
AcDbRegAppTableRecord
  2
HATCHBACKGROUNDCOLOR
 70
0
  0
APPID
  5
26B
330
3
100
AcDbSymbolTableRecord
100
AcDbRegAppTableRecord
  2
EZDXF
 70
0
  0
ENDTAB
  0
TABLE
  2
DIMSTYLE
  5
4
330
0
100
AcDbSymbolTable
 70
1
100
AcDbDimStyleTable
  0
DIMSTYLE
105
2B
330
4
100
AcDbSymbolTableRecord
100
AcDbDimStyleTableRecord
  2
Standard
 70
0
  3

  4

 40
1.0
 41
2.5
 42
0.625
 43
3.75
 44
1.25
 45
0.0
 46
0.0
 47
0.0
 48
0.0
140
2.5
141
2.5
142
0.0
143
0.03937007874
144
1.0
145
0.0
146
1.0
147
0.625
148
0.0
 71
0
 72
0
 73
0
 74
0
 75
0
 76
0
 77
1
 78
8
 79
3
170
0
171
3
172
1
173
0
174
0
175
0
176
0
177
0
178
0
179
2
271
2
272
2
273
2
274
3
275
0
276
0
277
2
278
44
279
0
280
0
281
0
282
0
283
0
284
8
285
0
286
0
288
0
289
3
371
-2
372
-2
  0
ENDTAB
  0
TABLE
  2
BLOCK_RECORD
  5
9
330
0
100
AcDbSymbolTable
 70
2
  0
BLOCK_RECORD
  5
17
330
9
100
AcDbSymbolTableRecord
100
AcDbBlockTableRecord
  2
*Model_Space
340
1A
  0
BLOCK_RECORD
  5
1B
330
9
100
AcDbSymbolTableRecord
100
AcDbBlockTableRecord
  2
*Paper_Space
340
1E
  0
ENDTAB
  0
ENDSEC
  0
SECTION
  2
BLOCKS
  0
BLOCK
  5
18
330
17
100
AcDbEntity
  8
0
100
AcDbBlockBegin
  2
*Model_Space
 70
0
 10
0.0
 20
0.0
 30
0.0
  3
*Model_Space
  1

  0
ENDBLK
  5
19
330
17
100
AcDbEntity
  8
0
100
AcDbBlockEnd
  0
BLOCK
  5
1C
330
1B
100
AcDbEntity
  8
0
100
AcDbBlockBegin
  2
*Paper_Space
 70
0
 10
0.0
 20
0.0
 30
0.0
  3
*Paper_Space
  1

  0
ENDBLK
  5
1D
330
1B
100
AcDbEntity
  8
0
100
AcDbBlockEnd
  0
ENDSEC
  0
SECTION
  2
ENTITIES
  0
LWPOLYLINE
  5
2F
330
17
100
AcDbEntity
  8
ROADS
100
AcDbPolyline
 90
3
 70
0
 10
621872.7184125402
 20
4836906.718891084
 10
621966.052270793
 20
4836928.169005213
 10
621982.0799974985
 20
4836888.799257858
  0
LWPOLYLINE
  5
30
330
17
100
AcDbEntity
  8
ROADS
100
AcDbPolyline
 90
2
 70
0
 10
622361.7081515504
 20
4836922.124724558
 10
622351.5704795644
 20
4836940.219702771
  0
LWPOLYLINE
  5
31
330
17
100
AcDbEntity
  8
ROADS
100
AcDbPolyline
 90
2
 70
0
 10
622411.0939549587
 20
4836936.364501722
 10
622368.7865978054
 20
4837059.322684719
  0
LWPOLYLINE
  5
32
330
17
100
AcDbEntity
  8
ROADS
100
AcDbPolyline
 90
2
 70
0
 10
622418.7357599861
 20
4837073.989608839
 10
622368.7865978054
 20
4837059.322684719
  0
LWPOLYLINE
  5
33
330
17
100
AcDbEntity
  8
ROADS
100
AcDbPolyline
 90
2
 70
0
 10
622522.9610688821
 20
4836974.150255356
 10
622491.7216956831
 20
4837057.872632499
  0
LWPOLYLINE
  5
34
330
17
100
AcDbEntity
  8
ROADS
100
AcDbPolyline
 90
2
 70
0
 10
622690.6128666772
 20
4837054.667834198
 10
622686.0313485559
 20
4837066.705732011
  0
LWPOLYLINE
  5
35
330
17
100
AcDbEntity
  8
ROADS
100
AcDbPolyline
 90
2
 70
0
 10
622781.056360165
 20
4837115.067730151
 10
622780.2982343801
 20
4837115.464728593
  0
LWPOLYLINE
  5
36
330
17
100
AcDbEntity
  8
ROADS
100
AcDbPolyline
 90
2
 70
0
 10
622686.0313485559
 20
4837066.705732011
 10
622718.4542128405
 20
4837093.068313032
  0
LWPOLYLINE
  5
37
330
17
100
AcDbEntity
  8
ROADS
100
AcDbPolyline
 90
2
 70
0
 10
622664.8457584011
 20
4837122.369335785
 10
622491.7216956831
 20
4837057.872632499
  0
LWPOLYLINE
  5
38
330
17
100
AcDbEntity
  8
ROADS
100
AcDbPolyline
 90
2
 70
0
 10
622686.0313485559
 20
4837066.705732011
 10
622664.8457584011
 20
4837122.369335785
  0
LWPOLYLINE
  5
39
330
17
100
AcDbEntity
  8
ROADS
100
AcDbPolyline
 90
2
 70
0
 10
622718.4542128405
 20
4837093.068313032
 10
622769.7070055676
 20
4837112.186047324
  0
LWPOLYLINE
  5
3A
330
17
100
AcDbEntity
  8
ROADS
100
AcDbPolyline
 90
2
 70
0
 10
622718.4542128405
 20
4837093.068313032
 10
622664.8457584011
 20
4837122.369335785
  0
LWPOLYLINE
  5
3B
330
17
100
AcDbEntity
  8
ROADS
100
AcDbPolyline
 90
3
 70
0
 10
622491.7216956831
 20
4837057.872632499
 10
622460.8684113887
 20
4837150.822169346
 10
622475.9684414982
 20
4837159.542643164
  0
LWPOLYLINE
  5
3C
330
17
100
AcDbEntity
  8
ROADS
100
AcDbPolyline
 90
2
 70
0
 10
622769.7070055676
 20
4837112.186047324
 10
622780.2982343801
 20
4837115.464728593
  0
LWPOLYLINE
  5
3D
330
17
100
AcDbEntity
  8
ROADS
100
AcDbPolyline
 90
2
 70
0
 10
621769.3694072552
 20
4837097.324242001
 10
621827.9247012276
 20
4836917.072293645
  0
LWPOLYLINE
  5
3E
330
17
100
AcDbEntity
  8
ROADS
100
AcDbPolyline
 90
2
 70
0
 10
621695.9649885953
 20
4837071.861708016
 10
621564.8320482092
 20
4837030.101863673
  0
LWPOLYLINE
  5
3F
330
17
100
AcDbEntity
  8
ROADS
100
AcDbPolyline
 90
2
 70
0
 10
621769.3694072552
 20
4837097.324242001
 10
621695.9649885953
 20
4837071.861708016
  0
LWPOLYLINE
  5
40
330
17
100
AcDbEntity
  8
ROADS
100
AcDbPolyline
 90
3
 70
0
 10
621695.9649885953
 20
4837071.861708016
 10
621646.7970749474
 20
4837254.692922955
 10
621603.1376571527
 20
4837254.053379856
  0
LWPOLYLINE
  5
41
330
17
100
AcDbEntity
  8
ROADS
100
AcDbPolyline
 90
2
 70
0
 10
622222.1862132417
 20
4837254.721951331
 10
621769.3694072552
 20
4837097.324242001
  0
LWPOLYLINE
  5
42
330
17
100
AcDbEntity
  8
ROADS
100
AcDbPolyline
 90
2
 70
0
 10
621717.3565747419
 20
4837259.267092869
 10
621769.3694072552
 20
4837097.324242001
  0
LWPOLYLINE
  5
43
330
17
100
AcDbEntity
  8
ROADS
100
AcDbPolyline
 90
2
 70
0
 10
621603.1376571527
 20
4837254.053379856
 10
621565.8092318738
 20
4837241.485783534
  0
LWPOLYLINE
  5
44
330
17
100
AcDbEntity
  8
ROADS
100
AcDbPolyline
 90
2
 70
0
 10
621603.1376571527
 20
4837254.053379856
 10
621585.0184571416
 20
4837302.84793217
  0
LWPOLYLINE
  5
45
330
17
100
AcDbEntity
  8
ROADS
100
AcDbPolyline
 90
2
 70
0
 10
621585.0184571416
 20
4837302.84793217
 10
621566.6319105079
 20
4837296.915168341
  0
LWPOLYLINE
  5
46
330
17
100
AcDbEntity
  8
ROADS
100
AcDbPolyline
 90
2
 70
0
 10
621690.5459123246
 20
4837341.244002085
 10
621717.3565747419
 20
4837259.267092869
  0
LWPOLYLINE
  5
47
330
17
100
AcDbEntity
  8
ROADS
100
AcDbPolyline
 90
2
 70
0
 10
622769.7070055676
 20
4837112.186047324
 10
622775.2975577235
 20
4837128.981961451
  0
LWPOLYLINE
  5
48
330
17
100
AcDbEntity
  8
ROADS
100
AcDbPolyline
 90
2
 70
0
 10
622780.2982343801
 20
4837115.464728593
 10
622775.2975577235
 20
4837128.981961451
  0
LWPOLYLINE
  5
49
330
17
100
AcDbEntity
  8
ROADS
100
AcDbPolyline
 90
2
 70
0
 10
622771.5116059444
 20
4837158.222927571
 10
622795.6249293819
 20
4837126.971490408
  0
LWPOLYLINE
  5
4A
330
17
100
AcDbEntity
  8
ROADS
100
AcDbPolyline
 90
2
 70
0
 10
622771.5116059444
 20
4837158.222927571
 10
622664.8457584011
 20
4837122.369335785
  0
LWPOLYLINE
  5
4B
330
17
100
AcDbEntity
  8
ROADS
100
AcDbPolyline
 90
2
 70
0
 10
622775.2975577235
 20
4837128.981961451
 10
622771.5116059444
 20
4837158.222927571
  0
LWPOLYLINE
  5
4C
330
17
100
AcDbEntity
  8
ROADS
100
AcDbPolyline
 90
2
 70
0
 10
622664.8457584011
 20
4837122.369335785
 10
622632.1391377731
 20
4837213.229299573
  0
LWPOLYLINE
  5
4D
330
17
100
AcDbEntity
  8
ROADS
100
AcDbPolyline
 90
2
 70
0
 10
622872.7183425287
 20
4837193.001650364
 10
622800.6285698486
 20
4837271.501994338
  0
LWPOLYLINE
  5
4E
330
17
100
AcDbEntity
  8
ROADS
100
AcDbPolyline
 90
2
 70
0
 10
622838.1723359935
 20
4837162.755287783
 10
622750.5673047827
 20
4837254.459882024
  0
LWPOLYLINE
  5
4F
330
17
100
AcDbEntity
  8
ROADS
100
AcDbPolyline
 90
2
 70
0
 10
622632.1391377731
 20
4837213.229299573
 10
622475.9684414982
 20
4837159.542643164
  0
LWPOLYLINE
  5
50
330
17
100
AcDbEntity
  8
ROADS
100
AcDbPolyline
 90
2
 70
0
 10
622703.6638035137
 20
4837237.660889487
 10
622771.5116059444
 20
4837158.222927571
  0
LWPOLYLINE
  5
51
330
17
100
AcDbEntity
  8
ROADS
100
AcDbPolyline
 90
5
 70
0
 10
620976.0671039379
 20
4837900.11586089
 10
620830.503936888
 20
4837858.859509898
 10
620716.2652862311
 20
4837851.989173655
 10
620476.1624430702
 20
4837910.360293122
 10
620470.5915367738
 20
4837910.876254291
  0
LWPOLYLINE
  5
52
330
17
100
AcDbEntity
  8
ROADS
100
AcDbPolyline
 90
2
 70
0
 10
621438.4978383975
 20
4837122.279578024
 10
621415.5402703175
 20
4837186.141923964
  0
LWPOLYLINE
  5
53
330
17
100
AcDbEntity
  8
ROADS
100
AcDbPolyline
 90
2
 70
0
 10
621415.5402703175
 20
4837186.141923964
 10
621373.0115140682
 20
4837172.598265243
  0
LWPOLYLINE
  5
54
330
17
100
AcDbEntity
  8
ROADS
100
AcDbPolyline
 90
3
 70
0
 10
621565.8092318738
 20
4837241.485783534
 10
621594.6343723838
 20
4837134.158176633
 10
621469.0908969772
 20
4837095.851020853
  0
LWPOLYLINE
  5
55
330
17
100
AcDbEntity
  8
ROADS
100
AcDbPolyline
 90
2
 70
0
 10
621565.8092318738
 20
4837241.485783534
 10
621415.5402703175
 20
4837186.141923964
  0
LWPOLYLINE
  5
56
330
17
100
AcDbEntity
  8
ROADS
100
AcDbPolyline
 90
2
 70
0
 10
621161.6396002127
 20
4837310.587675919
 10
621161.1075491471
 20
4837312.136491533
  0
LWPOLYLINE
  5
57
330
17
100
AcDbEntity
  8
ROADS
100
AcDbPolyline
 90
2
 70
0
 10
621304.7304122647
 20
4837218.445325165
 10
621258.9353272972
 20
4837352.81088008
  0
LWPOLYLINE
  5
58
330
17
100
AcDbEntity
  8
ROADS
100
AcDbPolyline
 90
2
 70
0
 10
621339.5330352003
 20
4837378.794050037
 10
621387.6816936247
 20
4837234.381306168
  0
LWPOLYLINE
  5
59
330
17
100
AcDbEntity
  8
ROADS
100
AcDbPolyline
 90
2
 70
0
 10
621161.1075491471
 20
4837312.136491533
 10
621159.7182550196
 20
4837311.639981765
  0
LWPOLYLINE
  5
5A
330
17
100
AcDbEntity
  8
ROADS
100
AcDbPolyline
 90
2
 70
0
 10
621161.1075491471
 20
4837312.136491533
 10
621130.4108537693
 20
4837403.397393682
  0
LWPOLYLINE
  5
5B
330
17
100
AcDbEntity
  8
ROADS
100
AcDbPolyline
 90
2
 70
0
 10
621130.4108537693
 20
4837403.397393682
 10
621053.0321685045
 20
4837375.4302845355
  0
LWPOLYLINE
  5
5C
330
17
100
AcDbEntity
  8
ROADS
100
AcDbPolyline
 90
2
 70
0
 10
620948.5691724228
 20
4837439.381539908
 10
620932.6428179642
 20
4837431.991735874
  0
LWPOLYLINE
  5
5D
330
17
100
AcDbEntity
  8
ROADS
100
AcDbPolyline
 90
2
 70
0
 10
621130.4108537693
 20
4837403.397393682
 10
621101.5575749226
 20
4837493.5325669125
  0
LWPOLYLINE
  5
5E
330
17
100
AcDbEntity
  8
ROADS
100
AcDbPolyline
 90
2
 70
0
 10
620948.5691724228
 20
4837439.381539908
 10
620931.402619436
 20
4837491.571362165
  0
LWPOLYLINE
  5
5F
330
17
100
AcDbEntity
  8
ROADS
100
AcDbPolyline
 90
2
 70
0
 10
621101.5575749226
 20
4837493.5325669125
 10
620948.5691724228
 20
4837439.381539908
  0
LWPOLYLINE
  5
60
330
17
100
AcDbEntity
  8
ROADS
100
AcDbPolyline
 90
3
 70
0
 10
621806.2620370375
 20
4837380.9024038855
 10
621831.5082020999
 20
4837301.217283039
 10
621717.3565747419
 20
4837259.267092869
  0
LWPOLYLINE
  5
61
330
17
100
AcDbEntity
  8
ROADS
100
AcDbPolyline
 90
2
 70
0
 10
621690.5459123246
 20
4837341.244002085
 10
621806.2620370375
 20
4837380.9024038855
  0
LWPOLYLINE
  5
62
330
17
100
AcDbEntity
  8
ROADS
100
AcDbPolyline
 90
6
 70
0
 10
621564.3025739015
 20
4837437.82742099
 10
621581.0332361879
 20
4837390.110817309
 10
621608.1784108977
 20
4837369.487771665
 10
621583.1287691365
 20
4837348.944847857
 10
621597.9758508399
 20
4837329.125440244
 10
621585.0184571416
 20
4837302.84793217
  0
LWPOLYLINE
  5
63
330
17
100
AcDbEntity
  8
ROADS
100
AcDbPolyline
 90
2
 70
0
 10
621666.017627805
 20
4837416.347859932
 10
621690.5459123246
 20
4837341.244002085
  0
LWPOLYLINE
  5
64
330
17
100
AcDbEntity
  8
ROADS
100
AcDbPolyline
 90
2
 70
0
 10
621666.017627805
 20
4837416.347859932
 10
621737.9280629084
 20
4837438.237286696
  0
LWPOLYLINE
  5
65
330
17
100
AcDbEntity
  8
ROADS
100
AcDbPolyline
 90
2
 70
0
 10
621648.4029556983
 20
4837465.776565895
 10
621666.017627805
 20
4837416.347859932
  0
LWPOLYLINE
  5
66
330
17
100
AcDbEntity
  8
ROADS
100
AcDbPolyline
 90
2
 70
0
 10
621648.4029556983
 20
4837465.776565895
 10
621564.3025739015
 20
4837437.82742099
  0
LWPOLYLINE
  5
67
330
17
100
AcDbEntity
  8
ROADS
100
AcDbPolyline
 90
2
 70
0
 10
621943.9478814435
 20
4837460.116966283
 10
621898.6232435177
 20
4837446.930702458
  0
LWPOLYLINE
  5
68
330
17
100
AcDbEntity
  8
ROADS
100
AcDbPolyline
 90
2
 70
0
 10
621746.9582476286
 20
4837569.137583258
 10
621806.2620370375
 20
4837380.9024038855
  0
LWPOLYLINE
  5
69
330
17
100
AcDbEntity
  8
ROADS
100
AcDbPolyline
 90
2
 70
0
 10
621723.4937829538
 20
4837490.195632599
 10
621648.4029556983
 20
4837465.776565895
  0
LWPOLYLINE
  5
6A
330
17
100
AcDbEntity
  8
ROADS
100
AcDbPolyline
 90
2
 70
0
 10
621206.6034551767
 20
4837334.5932166455
 10
621161.1075491471
 20
4837312.136491533
  0
LWPOLYLINE
  5
6B
330
17
100
AcDbEntity
  8
ROADS
100
AcDbPolyline
 90
2
 70
0
 10
621411.006320984
 20
4837403.617674746
 10
621455.8755854594
 20
4837274.86930402
  0
LWPOLYLINE
  5
6C
330
17
100
AcDbEntity
  8
ROADS
100
AcDbPolyline
 90
2
 70
0
 10
621258.9353272972
 20
4837352.81088008
 10
621206.6034551767
 20
4837334.5932166455
  0
LWPOLYLINE
  5
6D
330
17
100
AcDbEntity
  8
ROADS
100
AcDbPolyline
 90
2
 70
0
 10
621339.5330352003
 20
4837378.794050037
 10
621258.9353272972
 20
4837352.81088008
  0
LWPOLYLINE
  5
6E
330
17
100
AcDbEntity
  8
ROADS
100
AcDbPolyline
 90
2
 70
0
 10
621481.7140593003
 20
4837427.917442042
 10
621515.311958765
 20
4837331.6776861185
  0
LWPOLYLINE
  5
6F
330
17
100
AcDbEntity
  8
ROADS
100
AcDbPolyline
 90
2
 70
0
 10
621411.006320984
 20
4837403.617674746
 10
621339.5330352003
 20
4837378.794050037
  0
LWPOLYLINE
  5
70
330
17
100
AcDbEntity
  8
ROADS
100
AcDbPolyline
 90
2
 70
0
 10
621481.7140593003
 20
4837427.917442042
 10
621411.006320984
 20
4837403.617674746
  0
LWPOLYLINE
  5
71
330
17
100
AcDbEntity
  8
ROADS
100
AcDbPolyline
 90
2
 70
0
 10
621559.981141963
 20
4837452.051915552
 10
621481.7140593003
 20
4837427.917442042
  0
LWPOLYLINE
  5
72
330
17
100
AcDbEntity
  8
ROADS
100
AcDbPolyline
 90
2
 70
0
 10
621206.6034551767
 20
4837334.5932166455
 10
621136.9723229134
 20
4837554.07167741
  0
LWPOLYLINE
  5
73
330
17
100
AcDbEntity
  8
ROADS
100
AcDbPolyline
 90
2
 70
0
 10
621559.981141963
 20
4837452.051915552
 10
621564.3025739015
 20
4837437.82742099
  0
LWPOLYLINE
  5
74
330
17
100
AcDbEntity
  8
ROADS
100
AcDbPolyline
 90
2
 70
0
 10
621258.9353272972
 20
4837352.81088008
 10
621193.1945694088
 20
4837559.724672162
  0
LWPOLYLINE
  5
75
330
17
100
AcDbEntity
  8
ROADS
100
AcDbPolyline
 90
2
 70
0
 10
621269.4258246084
 20
4837593.62777366
 10
621339.5330352003
 20
4837378.794050037
  0
LWPOLYLINE
  5
76
330
17
100
AcDbEntity
  8
ROADS
100
AcDbPolyline
 90
2
 70
0
 10
621520.0476303808
 20
4837575.983346989
 10
621559.981141963
 20
4837452.051915552
  0
LWPOLYLINE
  5
77
330
17
100
AcDbEntity
  8
ROADS
100
AcDbPolyline
 90
2
 70
0
 10
621335.6528427051
 20
4837631.833159438
 10
621411.006320984
 20
4837403.617674746
  0
LWPOLYLINE
  5
78
330
17
100
AcDbEntity
  8
ROADS
100
AcDbPolyline
 90
2
 70
0
 10
621407.2484233603
 20
4837656.695051391
 10
621481.7140593003
 20
4837427.917442042
  0
LWPOLYLINE
  5
79
330
17
100
AcDbEntity
  8
ROADS
100
AcDbPolyline
 90
2
 70
0
 10
621193.1945694088
 20
4837559.724672162
 10
621136.9723229134
 20
4837554.07167741
  0
LWPOLYLINE
  5
7A
330
17
100
AcDbEntity
  8
ROADS
100
AcDbPolyline
 90
2
 70
0
 10
621520.0476303808
 20
4837575.983346989
 10
621482.5158751708
 20
4837563.7940575695
  0
LWPOLYLINE
  5
7B
330
17
100
AcDbEntity
  8
ROADS
100
AcDbPolyline
 90
2
 70
0
 10
621269.4258246084
 20
4837593.62777366
 10
621193.1945694088
 20
4837559.724672162
  0
LWPOLYLINE
  5
7C
330
17
100
AcDbEntity
  8
ROADS
100
AcDbPolyline
 90
2
 70
0
 10
621603.5448704642
 20
4837602.527551912
 10
621520.0476303808
 20
4837575.983346989
  0
LWPOLYLINE
  5
7D
330
17
100
AcDbEntity
  8
ROADS
100
AcDbPolyline
 90
2
 70
0
 10
621300.0603914278
 20
4837621.20901116
 10
621269.4258246084
 20
4837593.62777366
  0
LWPOLYLINE
  5
7E
330
17
100
AcDbEntity
  8
ROADS
100
AcDbPolyline
 90
2
 70
0
 10
621603.5448704642
 20
4837602.527551912
 10
621648.4029556983
 20
4837465.776565895
  0
LWPOLYLINE
  5
7F
330
17
100
AcDbEntity
  8
ROADS
100
AcDbPolyline
 90
2
 70
0
 10
621707.1605501565
 20
4837556.910306944
 10
621712.7702420922
 20
4837538.3619071245
  0
LWPOLYLINE
  5
80
330
17
100
AcDbEntity
  8
ROADS
100
AcDbPolyline
 90
2
 70
0
 10
621746.9582476286
 20
4837569.137583258
 10
621707.1605501565
 20
4837556.910306944
  0
LWPOLYLINE
  5
81
330
17
100
AcDbEntity
  8
ROADS
100
AcDbPolyline
 90
2
 70
0
 10
621700.0235088432
 20
4837579.234257314
 10
621707.1605501565
 20
4837556.910306944
  0
LWPOLYLINE
  5
82
330
17
100
AcDbEntity
  8
ROADS
100
AcDbPolyline
 90
2
 70
0
 10
621597.4685475916
 20
4837624.869677911
 10
621603.5448704642
 20
4837602.527551912
  0
LWPOLYLINE
  5
83
330
17
100
AcDbEntity
  8
ROADS
100
AcDbPolyline
 90
2
 70
0
 10
621848.685579055
 20
4837494.450818406
 10
621759.5824440774
 20
4837776.1843756335
  0
LWPOLYLINE
  5
84
330
17
100
AcDbEntity
  8
ROADS
100
AcDbPolyline
 90
2
 70
0
 10
621597.4685475916
 20
4837624.869677911
 10
621674.5447917632
 20
4837649.877709285
  0
LWPOLYLINE
  5
85
330
17
100
AcDbEntity
  8
ROADS
100
AcDbPolyline
 90
2
 70
0
 10
621686.3003254343
 20
4837751.565443475
 10
621746.9582476286
 20
4837569.137583258
  0
LWPOLYLINE
  5
86
330
17
100
AcDbEntity
  8
ROADS
100
AcDbPolyline
 90
2
 70
0
 10
621567.7678869875
 20
4837710.70543974
 10
621597.4685475916
 20
4837624.869677911
  0
LWPOLYLINE
  5
87
330
17
100
AcDbEntity
  8
ROADS
100
AcDbPolyline
 90
2
 70
0
 10
621636.7489965006
 20
4837735.368073347
 10
621567.7678869875
 20
4837710.70543974
  0
LWPOLYLINE
  5
88
330
17
100
AcDbEntity
  8
ROADS
100
AcDbPolyline
 90
2
 70
0
 10
621101.5575749226
 20
4837493.5325669125
 10
621086.2460140729
 20
4837550.150150902
  0
LWPOLYLINE
  5
89
330
17
100
AcDbEntity
  8
ROADS
100
AcDbPolyline
 90
2
 70
0
 10
621136.9723229134
 20
4837554.07167741
 10
621086.2460140729
 20
4837550.150150902
  0
LWPOLYLINE
  5
8A
330
17
100
AcDbEntity
  8
ROADS
100
AcDbPolyline
 90
2
 70
0
 10
621138.64114834
 20
4837711.677790505
 10
621156.1037398155
 20
4837715.281757806
  0
LWPOLYLINE
  5
8B
330
17
100
AcDbEntity
  8
ROADS
100
AcDbPolyline
 90
2
 70
0
 10
621086.2460140729
 20
4837550.150150902
 10
620996.8484600823
 20
4837905.564938178
  0
LWPOLYLINE
  5
8C
330
17
100
AcDbEntity
  8
ROADS
100
AcDbPolyline
 90
2
 70
0
 10
620996.8484600823
 20
4837905.564938178
 10
620976.0671039379
 20
4837900.11586089
  0
LWPOLYLINE
  5
8D
330
17
100
AcDbEntity
  8
ROADS
100
AcDbPolyline
 90
2
 70
0
 10
620976.0671039379
 20
4837900.11586089
 10
620972.8697545626
 20
4837917.544793836
  0
LWPOLYLINE
  5
8E
330
17
100
AcDbEntity
  8
ROADS
100
AcDbPolyline
 90
2
 70
0
 10
620996.8484600823
 20
4837905.564938178
 10
620992.1674656097
 20
4837924.187091687
  0
LWPOLYLINE
  5
8F
330
17
100
AcDbEntity
  8
ROADS
100
AcDbPolyline
 90
2
 70
0
 10
620992.1674656097
 20
4837924.187091687
 10
620972.8697545626
 20
4837917.544793836
  0
LWPOLYLINE
  5
90
330
17
100
AcDbEntity
  8
ROADS
100
AcDbPolyline
 90
3
 70
0
 10
620972.8697545626
 20
4837917.544793836
 10
620969.9318325332
 20
4837936.996506362
 10
620987.0676245121
 20
4837944.126727014
  0
LWPOLYLINE
  5
91
330
17
100
AcDbEntity
  8
ROADS
100
AcDbPolyline
 90
2
 70
0
 10
620992.1674656097
 20
4837924.187091687
 10
620987.0676245121
 20
4837944.126727014
  0
LWPOLYLINE
  5
92
330
17
100
AcDbEntity
  8
ROADS
100
AcDbPolyline
 90
2
 70
0
 10
622475.9684414982
 20
4837159.542643164
 10
622445.7590113067
 20
4837248.463617061
  0
LWPOLYLINE
  5
93
330
17
100
AcDbEntity
  8
ROADS
100
AcDbPolyline
 90
2
 70
0
 10
622703.6638035137
 20
4837237.660889487
 10
622632.1391377731
 20
4837213.229299573
  0
LWPOLYLINE
  5
94
330
17
100
AcDbEntity
  8
ROADS
100
AcDbPolyline
 90
2
 70
0
 10
622750.5673047827
 20
4837254.459882024
 10
622703.6638035137
 20
4837237.660889487
  0
LWPOLYLINE
  5
95
330
17
100
AcDbEntity
  8
ROADS
100
AcDbPolyline
 90
2
 70
0
 10
622459.3090197102
 20
4837253.088869046
 10
622445.7590113067
 20
4837248.463617061
  0
LWPOLYLINE
  5
96
330
17
100
AcDbEntity
  8
ROADS
100
AcDbPolyline
 90
2
 70
0
 10
622690.0974488031
 20
4837278.952570341
 10
622703.6638035137
 20
4837237.660889487
  0
LWPOLYLINE
  5
97
330
17
100
AcDbEntity
  8
ROADS
100
AcDbPolyline
 90
2
 70
0
 10
622459.3090197102
 20
4837253.088869046
 10
622454.6069395067
 20
4837267.624535381
  0
LWPOLYLINE
  5
98
330
17
100
AcDbEntity
  8
ROADS
100
AcDbPolyline
 90
2
 70
0
 10
622507.699497924
 20
4837270.00174731
 10
622459.3090197102
 20
4837253.088869046
  0
LWPOLYLINE
  5
99
330
17
100
AcDbEntity
  8
ROADS
100
AcDbPolyline
 90
2
 70
0
 10
622800.6285698486
 20
4837271.501994338
 10
622750.5673047827
 20
4837254.459882024
  0
LWPOLYLINE
  5
9A
330
17
100
AcDbEntity
  8
ROADS
100
AcDbPolyline
 90
2
 70
0
 10
622454.6069395067
 20
4837267.624535381
 10
622470.470843947
 20
4837275.487453411
  0
LWPOLYLINE
  5
9B
330
17
100
AcDbEntity
  8
ROADS
100
AcDbPolyline
 90
2
 70
0
 10
622454.6069395067
 20
4837267.624535381
 10
622454.775278077
 20
4837294.53686832
  0
LWPOLYLINE
  5
9C
330
17
100
AcDbEntity
  8
ROADS
100
AcDbPolyline
 90
2
 70
0
 10
622910.5311747899
 20
4837232.276939297
 10
622856.957730238
 20
4837291.774615748
  0
LWPOLYLINE
  5
9D
330
17
100
AcDbEntity
  8
ROADS
100
AcDbPolyline
 90
2
 70
0
 10
622940.5370253589
 20
4837263.700003668
 10
622900.9437212356
 20
4837306.714772679
  0
LWPOLYLINE
  5
9E
330
17
100
AcDbEntity
  8
ROADS
100
AcDbPolyline
 90
2
 70
0
 10
622971.9321951736
 20
4837300.67198172
 10
622949.4264242533
 20
4837323.89536078
  0
LWPOLYLINE
  5
9F
330
17
100
AcDbEntity
  8
ROADS
100
AcDbPolyline
 90
2
 70
0
 10
623000.5097445133
 20
4837338.795199284
 10
622998.1625258779
 20
4837341.165540548
  0
LWPOLYLINE
  5
A0
330
17
100
AcDbEntity
  8
ROADS
100
AcDbPolyline
 90
2
 70
0
 10
622949.4264242533
 20
4837323.89536078
 10
622900.9437212356
 20
4837306.714772679
  0
LWPOLYLINE
  5
A1
330
17
100
AcDbEntity
  8
ROADS
100
AcDbPolyline
 90
2
 70
0
 10
622998.1625258779
 20
4837341.165540548
 10
622949.4264242533
 20
4837323.89536078
  0
LWPOLYLINE
  5
A2
330
17
100
AcDbEntity
  8
ROADS
100
AcDbPolyline
 90
2
 70
0
 10
622998.1625258779
 20
4837341.165540548
 10
622940.6526860103
 20
4837418.306358025
  0
LWPOLYLINE
  5
A3
330
17
100
AcDbEntity
  8
ROADS
100
AcDbPolyline
 90
2
 70
0
 10
622287.9726862358
 20
4837313.982405836
 10
622368.7865978054
 20
4837059.322684719
  0
LWPOLYLINE
  5
A4
330
17
100
AcDbEntity
  8
ROADS
100
AcDbPolyline
 90
3
 70
0
 10
622445.7590113067
 20
4837248.463617061
 10
622432.6211368716
 20
4837265.785867797
 10
622348.9209810088
 20
4837238.642987302
  0
LWPOLYLINE
  5
A5
330
17
100
AcDbEntity
  8
ROADS
100
AcDbPolyline
 90
2
 70
0
 10
622287.9726862358
 20
4837313.982405836
 10
622222.1862132417
 20
4837254.721951331
  0
LWPOLYLINE
  5
A6
330
17
100
AcDbEntity
  8
ROADS
100
AcDbPolyline
 90
2
 70
0
 10
622255.541623291
 20
4837322.85935471
 10
622222.1862132417
 20
4837254.721951331
  0
LWPOLYLINE
  5
A7
330
17
100
AcDbEntity
  8
ROADS
100
AcDbPolyline
 90
2
 70
0
 10
622287.9726862358
 20
4837313.982405836
 10
622255.541623291
 20
4837322.85935471
  0
LWPOLYLINE
  5
A8
330
17
100
AcDbEntity
  8
ROADS
100
AcDbPolyline
 90
2
 70
0
 10
622168.3626509942
 20
4837415.697207982
 10
622222.1862132417
 20
4837254.721951331
  0
LWPOLYLINE
  5
A9
330
17
100
AcDbEntity
  8
ROADS
100
AcDbPolyline
 90
3
 70
0
 10
622142.223358366
 20
4837409.286205788
 10
621984.0752363714
 20
4837357.401856448
 10
621943.9478814435
 20
4837460.116966283
  0
LWPOLYLINE
  5
AA
330
17
100
AcDbEntity
  8
ROADS
100
AcDbPolyline
 90
2
 70
0
 10
622168.3626509942
 20
4837415.697207982
 10
622142.223358366
 20
4837409.286205788
  0
LWPOLYLINE
  5
AB
330
17
100
AcDbEntity
  8
ROADS
100
AcDbPolyline
 90
2
 70
0
 10
622349.8985677466
 20
4837520.025054073
 10
622255.541623291
 20
4837322.85935471
  0
LWPOLYLINE
  5
AC
330
17
100
AcDbEntity
  8
ROADS
100
AcDbPolyline
 90
2
 70
0
 10
622121.7188270855
 20
4837469.647234986
 10
622142.223358366
 20
4837409.286205788
  0
LWPOLYLINE
  5
AD
330
17
100
AcDbEntity
  8
ROADS
100
AcDbPolyline
 90
2
 70
0
 10
622856.957730238
 20
4837291.774615748
 10
622800.6285698486
 20
4837271.501994338
  0
LWPOLYLINE
  5
AE
330
17
100
AcDbEntity
  8
ROADS
100
AcDbPolyline
 90
2
 70
0
 10
622690.0974488031
 20
4837278.952570341
 10
622717.7563273625
 20
4837288.379198266
  0
LWPOLYLINE
  5
AF
330
17
100
AcDbEntity
  8
ROADS
100
AcDbPolyline
 90
2
 70
0
 10
622470.470843947
 20
4837275.487453411
 10
622454.775278077
 20
4837294.53686832
  0
LWPOLYLINE
  5
B0
330
17
100
AcDbEntity
  8
ROADS
100
AcDbPolyline
 90
2
 70
0
 10
622495.609749503
 20
4837307.171907193
 10
622507.699497924
 20
4837270.00174731
  0
LWPOLYLINE
  5
B1
330
17
100
AcDbEntity
  8
ROADS
100
AcDbPolyline
 90
2
 70
0
 10
622470.470843947
 20
4837275.487453411
 10
622495.609749503
 20
4837307.171907193
  0
LWPOLYLINE
  5
B2
330
17
100
AcDbEntity
  8
ROADS
100
AcDbPolyline
 90
2
 70
0
 10
622673.7719316643
 20
4837325.996631536
 10
622507.699497924
 20
4837270.00174731
  0
LWPOLYLINE
  5
B3
330
17
100
AcDbEntity
  8
ROADS
100
AcDbPolyline
 90
2
 70
0
 10
622900.9437212356
 20
4837306.714772679
 10
622856.957730238
 20
4837291.774615748
  0
LWPOLYLINE
  5
B4
330
17
100
AcDbEntity
  8
ROADS
100
AcDbPolyline
 90
2
 70
0
 10
622673.7719316643
 20
4837325.996631536
 10
622690.0974488031
 20
4837278.952570341
  0
LWPOLYLINE
  5
B5
330
17
100
AcDbEntity
  8
ROADS
100
AcDbPolyline
 90
2
 70
0
 10
622454.775278077
 20
4837294.53686832
 10
622473.4269556409
 20
4837323.74655737
  0
LWPOLYLINE
  5
B6
330
17
100
AcDbEntity
  8
ROADS
100
AcDbPolyline
 90
3
 70
0
 10
622592.1890947223
 20
4837361.879050351
 10
622489.2054275281
 20
4837326.85903892
 10
622495.609749503
 20
4837307.171907193
  0
LWPOLYLINE
  5
B7
330
17
100
AcDbEntity
  8
ROADS
100
AcDbPolyline
 90
2
 70
0
 10
622900.1351314231
 20
4837404.180947542
 10
622673.7719316643
 20
4837325.996631536
  0
LWPOLYLINE
  5
B8
330
17
100
AcDbEntity
  8
ROADS
100
AcDbPolyline
 90
2
 70
0
 10
622592.1890947223
 20
4837361.879050351
 10
622482.469324733
 20
4837369.924291659
  0
LWPOLYLINE
  5
B9
330
17
100
AcDbEntity
  8
ROADS
100
AcDbPolyline
 90
3
 70
0
 10
622704.385079155
 20
4837436.224589582
 10
622668.330034919
 20
4837353.62556303
 10
622673.7719316643
 20
4837325.996631536
  0
LWPOLYLINE
  5
BA
330
17
100
AcDbEntity
  8
ROADS
100
AcDbPolyline
 90
3
 70
0
 10
622870.9922020633
 20
4837443.856880471
 10
622737.8096296686
 20
4837397.852167607
 10
622724.5686657837
 20
4837364.912116
  0
LWPOLYLINE
  5
BB
330
17
100
AcDbEntity
  8
ROADS
100
AcDbPolyline
 90
2
 70
0
 10
622900.1351314231
 20
4837404.180947542
 10
622870.9922020633
 20
4837443.856880471
  0
LWPOLYLINE
  5
BC
330
17
100
AcDbEntity
  8
ROADS
100
AcDbPolyline
 90
2
 70
0
 10
622770.8111088146
 20
4837458.133905152
 10
622704.385079155
 20
4837436.224589582
  0
LWPOLYLINE
  5
BD
330
17
100
AcDbEntity
  8
ROADS
100
AcDbPolyline
 90
2
 70
0
 10
622940.6526860103
 20
4837418.306358025
 10
622883.512078367
 20
4837496.927899306
  0
LWPOLYLINE
  5
BE
330
17
100
AcDbEntity
  8
ROADS
100
AcDbPolyline
 90
2
 70
0
 10
622687.5519932905
 20
4837559.994195006
 10
622592.1890947223
 20
4837361.879050351
  0
LWPOLYLINE
  5
BF
330
17
100
AcDbEntity
  8
ROADS
100
AcDbPolyline
 90
2
 70
0
 10
622870.9922020633
 20
4837443.856880471
 10
622840.2946966595
 20
4837481.846110739
  0
LWPOLYLINE
  5
C0
330
17
100
AcDbEntity
  8
ROADS
100
AcDbPolyline
 90
2
 70
0
 10
622840.2946966595
 20
4837481.846110739
 10
622770.8111088146
 20
4837458.133905152
  0
LWPOLYLINE
  5
C1
330
17
100
AcDbEntity
  8
ROADS
100
AcDbPolyline
 90
2
 70
0
 10
622121.7188270855
 20
4837469.647234986
 10
622079.8365773079
 20
4837456.281207253
  0
LWPOLYLINE
  5
C2
330
17
100
AcDbEntity
  8
ROADS
100
AcDbPolyline
 90
2
 70
0
 10
622121.7188270855
 20
4837469.647234986
 10
622157.6933974538
 20
4837482.040385006
  0
LWPOLYLINE
  5
C3
330
17
100
AcDbEntity
  8
ROADS
100
AcDbPolyline
 90
2
 70
0
 10
622079.6836224656
 20
4837504.552699507
 10
621943.9478814435
 20
4837460.116966283
  0
LWPOLYLINE
  5
C4
330
17
100
AcDbEntity
  8
ROADS
100
AcDbPolyline
 90
3
 70
0
 10
622267.677281785
 20
4837560.468060194
 10
622204.2477015224
 20
4837432.70895272
 10
622168.3626509942
 20
4837415.697207982
  0
LWPOLYLINE
  5
C5
330
17
100
AcDbEntity
  8
ROADS
100
AcDbPolyline
 90
2
 70
0
 10
622106.8420974166
 20
4837513.444255389
 10
622121.7188270855
 20
4837469.647234986
  0
LWPOLYLINE
  5
C6
330
17
100
AcDbEntity
  8
ROADS
100
AcDbPolyline
 90
2
 70
0
 10
622106.8420974166
 20
4837513.444255389
 10
622079.6836224656
 20
4837504.552699507
  0
LWPOLYLINE
  5
C7
330
17
100
AcDbEntity
  8
ROADS
100
AcDbPolyline
 90
2
 70
0
 10
622127.4777376554
 20
4837522.309850917
 10
622106.8420974166
 20
4837513.444255389
  0
LWPOLYLINE
  5
C8
330
17
100
AcDbEntity
  8
ROADS
100
AcDbPolyline
 90
2
 70
0
 10
622473.810394503
 20
4837722.302605324
 10
622287.9726862358
 20
4837313.982405836
  0
LWPOLYLINE
  5
C9
330
17
100
AcDbEntity
  8
ROADS
100
AcDbPolyline
 90
2
 70
0
 10
622060.0555645452
 20
4837555.571625808
 10
622079.6836224656
 20
4837504.552699507
  0
LWPOLYLINE
  5
CA
330
17
100
AcDbEntity
  8
ROADS
100
AcDbPolyline
 90
2
 70
0
 10
622349.8985677466
 20
4837520.025054073
 10
622267.677281785
 20
4837560.468060194
  0
LWPOLYLINE
  5
CB
330
17
100
AcDbEntity
  8
ROADS
100
AcDbPolyline
 90
2
 70
0
 10
622731.4940627877
 20
4837521.317973297
 10
622704.385079155
 20
4837436.224589582
  0
LWPOLYLINE
  5
CC
330
17
100
AcDbEntity
  8
ROADS
100
AcDbPolyline
 90
2
 70
0
 10
622770.8111088146
 20
4837458.133905152
 10
622783.390495614
 20
4837512.393043078
  0
LWPOLYLINE
  5
CD
330
17
100
AcDbEntity
  8
ROADS
100
AcDbPolyline
 90
2
 70
0
 10
622883.512078367
 20
4837496.927899306
 10
622840.2946966595
 20
4837481.846110739
  0
LWPOLYLINE
  5
CE
330
17
100
AcDbEntity
  8
ROADS
100
AcDbPolyline
 90
2
 70
0
 10
622840.2946966595
 20
4837481.846110739
 10
622781.4150009382
 20
4837561.7397296345
  0
LWPOLYLINE
  5
CF
330
17
100
AcDbEntity
  8
ROADS
100
AcDbPolyline
 90
2
 70
0
 10
622883.512078367
 20
4837496.927899306
 10
622825.6091654795
 20
4837575.729637032
  0
LWPOLYLINE
  5
D0
330
17
100
AcDbEntity
  8
ROADS
100
AcDbPolyline
 90
2
 70
0
 10
622687.5519932905
 20
4837559.994195006
 10
622731.4940627877
 20
4837521.317973297
  0
LWPOLYLINE
  5
D1
330
17
100
AcDbEntity
  8
ROADS
100
AcDbPolyline
 90
3
 70
0
 10
622781.4150009382
 20
4837561.7397296345
 10
622747.2916028027
 20
4837547.181920791
 10
622731.4940627877
 20
4837521.317973297
  0
LWPOLYLINE
  5
D2
330
17
100
AcDbEntity
  8
ROADS
100
AcDbPolyline
 90
3
 70
0
 10
622592.6517643769
 20
4837625.389147348
 10
622528.8768074391
 20
4837510.587282422
 10
622510.410510155
 20
4837518.959736806
  0
LWPOLYLINE
  5
D3
330
17
100
AcDbEntity
  8
ROADS
100
AcDbPolyline
 90
2
 70
0
 10
622825.6091654795
 20
4837575.729637032
 10
622781.4150009382
 20
4837561.7397296345
  0
LWPOLYLINE
  5
D4
330
17
100
AcDbEntity
  8
ROADS
100
AcDbPolyline
 90
2
 70
0
 10
622607.7705904281
 20
4837632.019384835
 10
622687.5519932905
 20
4837559.994195006
  0
LWPOLYLINE
  5
D5
330
17
100
AcDbEntity
  8
ROADS
100
AcDbPolyline
 90
2
 70
0
 10
622073.2947127871
 20
4837686.344663696
 10
622127.4777376554
 20
4837522.309850917
  0
LWPOLYLINE
  5
D6
330
17
100
AcDbEntity
  8
ROADS
100
AcDbPolyline
 90
4
 70
0
 10
622165.9349048937
 20
4837697.854578601
 10
622192.6711023061
 20
4837593.902197393
 10
622164.9236138378
 20
4837535.021629303
 10
622127.4777376554
 20
4837522.309850917
  0
LWPOLYLINE
  5
D7
330
17
100
AcDbEntity
  8
ROADS
100
AcDbPolyline
 90
2
 70
0
 10
622023.9565937563
 20
4837668.667572443
 10
622060.0555645452
 20
4837555.571625808
  0
LWPOLYLINE
  5
D8
330
17
100
AcDbEntity
  8
ROADS
100
AcDbPolyline
 90
3
 70
0
 10
622060.0555645452
 20
4837555.571625808
 10
622008.8441845248
 20
4837646.284226569
 10
622011.3228123006
 20
4837671.581230188
  0
LWPOLYLINE
  5
D9
330
17
100
AcDbEntity
  8
ROADS
100
AcDbPolyline
 90
2
 70
0
 10
622343.321772582
 20
4837717.347505413
 10
622267.677281785
 20
4837560.468060194
  0
LWPOLYLINE
  5
DA
330
17
100
AcDbEntity
  8
ROADS
100
AcDbPolyline
 90
2
 70
0
 10
622476.1166227382
 20
4837780.079084992
 10
622349.8985677466
 20
4837520.025054073
  0
LWPOLYLINE
  5
DB
330
17
100
AcDbEntity
  8
ROADS
100
AcDbPolyline
 90
2
 70
0
 10
622023.9565937563
 20
4837668.667572443
 10
622011.3228123006
 20
4837671.581230188
  0
LWPOLYLINE
  5
DC
330
17
100
AcDbEntity
  8
ROADS
100
AcDbPolyline
 90
2
 70
0
 10
622073.2947127871
 20
4837686.344663696
 10
622023.9565937563
 20
4837668.667572443
  0
LWPOLYLINE
  5
DD
330
17
100
AcDbEntity
  8
ROADS
100
AcDbPolyline
 90
2
 70
0
 10
622165.9349048937
 20
4837697.854578601
 10
622073.2947127871
 20
4837686.344663696
  0
LWPOLYLINE
  5
DE
330
17
100
AcDbEntity
  8
ROADS
100
AcDbPolyline
 90
2
 70
0
 10
622343.321772582
 20
4837717.347505413
 10
622303.391204863
 20
4837737.40132021
  0
LWPOLYLINE
  5
DF
330
17
100
AcDbEntity
  8
ROADS
100
AcDbPolyline
 90
2
 70
0
 10
622825.6091654795
 20
4837575.729637032
 10
622776.9747448132
 20
4837638.161164845
  0
LWPOLYLINE
  5
E0
330
17
100
AcDbEntity
  8
ROADS
100
AcDbPolyline
 90
2
 70
0
 10
622592.6517643769
 20
4837625.389147348
 10
622580.871383145
 20
4837622.613970704
  0
LWPOLYLINE
  5
E1
330
17
100
AcDbEntity
  8
ROADS
100
AcDbPolyline
 90
2
 70
0
 10
622580.871383145
 20
4837622.613970704
 10
622535.4204225598
 20
4837627.467245455
  0
LWPOLYLINE
  5
E2
330
17
100
AcDbEntity
  8
ROADS
100
AcDbPolyline
 90
2
 70
0
 10
622607.7705904281
 20
4837632.019384835
 10
622592.6517643769
 20
4837625.389147348
  0
LWPOLYLINE
  5
E3
330
17
100
AcDbEntity
  8
ROADS
100
AcDbPolyline
 90
2
 70
0
 10
622832.1888661017
 20
4837651.85135894
 10
622776.9747448132
 20
4837638.161164845
  0
LWPOLYLINE
  5
E4
330
17
100
AcDbEntity
  8
ROADS
100
AcDbPolyline
 90
2
 70
0
 10
622580.871383145
 20
4837622.613970704
 10
622551.6352635635
 20
4837684.197217543
  0
LWPOLYLINE
  5
E5
330
17
100
AcDbEntity
  8
ROADS
100
AcDbPolyline
 90
2
 70
0
 10
622551.6352635635
 20
4837684.197217543
 10
622607.7705904281
 20
4837632.019384835
  0
LWPOLYLINE
  5
E6
330
17
100
AcDbEntity
  8
ROADS
100
AcDbPolyline
 90
2
 70
0
 10
622930.383482048
 20
4837666.40588644
 10
622832.1888661017
 20
4837651.85135894
  0
LWPOLYLINE
  5
E7
330
17
100
AcDbEntity
  8
ROADS
100
AcDbPolyline
 90
2
 70
0
 10
622510.0971488737
 20
4837704.884007425
 10
622551.6352635635
 20
4837684.197217543
  0
LWPOLYLINE
  5
E8
330
17
100
AcDbEntity
  8
ROADS
100
AcDbPolyline
 90
2
 70
0
 10
622776.9747448132
 20
4837638.161164845
 10
622619.7969590846
 20
4837777.07039702
  0
LWPOLYLINE
  5
E9
330
17
100
AcDbEntity
  8
ROADS
100
AcDbPolyline
 90
2
 70
0
 10
622473.810394503
 20
4837722.302605324
 10
622510.0971488737
 20
4837704.884007425
  0
LWPOLYLINE
  5
EA
330
17
100
AcDbEntity
  8
ROADS
100
AcDbPolyline
 90
2
 70
0
 10
622510.0971488737
 20
4837704.884007425
 10
622527.9440503474
 20
4837740.657486283
  0
LWPOLYLINE
  5
EB
330
17
100
AcDbEntity
  8
ROADS
100
AcDbPolyline
 90
2
 70
0
 10
622930.383482048
 20
4837666.40588644
 10
622892.2258206621
 20
4837782.734544017
  0
LWPOLYLINE
  5
EC
330
17
100
AcDbEntity
  8
ROADS
100
AcDbPolyline
 90
2
 70
0
 10
622619.7969590846
 20
4837777.07039702
 10
622551.6352635635
 20
4837684.197217543
  0
LWPOLYLINE
  5
ED
330
17
100
AcDbEntity
  8
ROADS
100
AcDbPolyline
 90
2
 70
0
 10
622514.6998112657
 20
4837801.348884687
 10
622473.810394503
 20
4837722.302605324
  0
LWPOLYLINE
  5
EE
330
17
100
AcDbEntity
  8
ROADS
100
AcDbPolyline
 90
2
 70
0
 10
622892.2258206621
 20
4837782.734544017
 10
622786.124498018
 20
4837743.094764905
  0
LWPOLYLINE
  5
EF
330
17
100
AcDbEntity
  8
ROADS
100
AcDbPolyline
 90
2
 70
0
 10
622908.7027515671
 20
4837795.445655221
 10
622892.2258206621
 20
4837782.734544017
  0
LWPOLYLINE
  5
F0
330
17
100
AcDbEntity
  8
ROADS
100
AcDbPolyline
 90
2
 70
0
 10
622476.1166227382
 20
4837780.079084992
 10
622388.8786942455
 20
4837802.791471099
  0
LWPOLYLINE
  5
F1
330
17
100
AcDbEntity
  8
ROADS
100
AcDbPolyline
 90
2
 70
0
 10
622619.7969590846
 20
4837777.07039702
 10
622496.0941899413
 20
4837822.1243990185
  0
LWPOLYLINE
  5
F2
330
17
100
AcDbEntity
  8
ROADS
100
AcDbPolyline
 90
2
 70
0
 10
622496.0941899413
 20
4837822.1243990185
 10
622476.1166227382
 20
4837780.079084992
  0
LWPOLYLINE
  5
F3
330
17
100
AcDbEntity
  8
ROADS
100
AcDbPolyline
 90
2
 70
0
 10
620557.4974178439
 20
4837905.796082787
 10
620466.0806500255
 20
4837921.236976876
  0
LWPOLYLINE
  5
F4
330
17
100
AcDbEntity
  8
ROADS
100
AcDbPolyline
 90
4
 70
0
 10
620428.2087501469
 20
4838014.142657187
 10
620532.339901708
 20
4838021.105964
 10
620569.8919810919
 20
4837981.655454409
 10
620557.4974178439
 20
4837905.796082787
  0
LWPOLYLINE
  5
F5
330
17
100
AcDbEntity
  8
ROADS
100
AcDbPolyline
 90
4
 70
0
 10
620565.5620314812
 20
4838406.9361409405
 10
620523.8544014608
 20
4838298.507200723
 10
620429.7168809007
 20
4838240.207625179
 10
620371.3138829069
 20
4838229.721287467
  0
LWPOLYLINE
  5
F6
330
17
100
AcDbEntity
  8
ROADS
100
AcDbPolyline
 90
2
 70
0
 10
620479.9787953595
 20
4838472.652965145
 10
620360.8960517783
 20
4838433.36415064
  0
LWPOLYLINE
  5
F7
330
17
100
AcDbEntity
  8
ROADS
100
AcDbPolyline
 90
2
 70
0
 10
620373.5670939084
 20
4838546.1002719365
 10
620458.6641370683
 20
4838574.202710269
  0
LWPOLYLINE
  5
F8
330
17
100
AcDbEntity
  8
ROADS
100
AcDbPolyline
 90
2
 70
0
 10
621335.6528427051
 20
4837631.833159438
 10
621300.0603914278
 20
4837621.20901116
  0
LWPOLYLINE
  5
F9
330
17
100
AcDbEntity
  8
ROADS
100
AcDbPolyline
 90
2
 70
0
 10
621407.2484233603
 20
4837656.695051391
 10
621335.6528427051
 20
4837631.833159438
  0
LWPOLYLINE
  5
FA
330
17
100
AcDbEntity
  8
ROADS
100
AcDbPolyline
 90
2
 70
0
 10
621567.7678869875
 20
4837710.70543974
 10
621407.2484233603
 20
4837656.695051391
  0
LWPOLYLINE
  5
FB
330
17
100
AcDbEntity
  8
ROADS
100
AcDbPolyline
 90
5
 70
0
 10
621351.1025861253
 20
4837835.314643326
 10
621324.1223893869
 20
4837770.730823149
 10
621246.3507156963
 20
4837682.105392408
 10
621172.2239736678
 20
4837659.791843366
 10
621138.64114834
 20
4837711.677790505
  0
LWPOLYLINE
  5
FC
330
17
100
AcDbEntity
  8
ROADS
100
AcDbPolyline
 90
5
 70
0
 10
621587.1986370508
 20
4837879.000471343
 10
621547.1740505253
 20
4837820.901986006
 10
621372.2661799908
 20
4837733.81385497
 10
621301.6268136934
 20
4837647.565511511
 10
621300.0603914278
 20
4837621.20901116
  0
LWPOLYLINE
  5
FD
330
17
100
AcDbEntity
  8
ROADS
100
AcDbPolyline
 90
5
 70
0
 10
621138.64114834
 20
4837711.677790505
 10
621106.8664410458
 20
4837765.662519347
 10
621111.4678257408
 20
4837785.226594742
 10
621262.7670511453
 20
4837840.103288096
 10
621295.3311809715
 20
4837866.2193794865
  0
LWPOLYLINE
  5
FE
330
17
100
AcDbEntity
  8
ROADS
100
AcDbPolyline
 90
2
 70
0
 10
621362.7577809494
 20
4837847.441971806
 10
621351.1025861253
 20
4837835.314643326
  0
LWPOLYLINE
  5
FF
330
17
100
AcDbEntity
  8
ROADS
100
AcDbPolyline
 90
2
 70
0
 10
621351.1025861253
 20
4837835.314643326
 10
621341.4706296768
 20
4837858.069462301
  0
LWPOLYLINE
  5
100
330
17
100
AcDbEntity
  8
ROADS
100
AcDbPolyline
 90
2
 70
0
 10
621362.7577809494
 20
4837847.441971806
 10
621341.4706296768
 20
4837858.069462301
  0
LWPOLYLINE
  5
101
330
17
100
AcDbEntity
  8
ROADS
100
AcDbPolyline
 90
2
 70
0
 10
621341.4706296768
 20
4837858.069462301
 10
621329.5652116557
 20
4837878.190046215
  0
LWPOLYLINE
  5
102
330
17
100
AcDbEntity
  8
ROADS
100
AcDbPolyline
 90
2
 70
0
 10
621329.5652116557
 20
4837878.190046215
 10
621295.3311809715
 20
4837866.2193794865
  0
LWPOLYLINE
  5
103
330
17
100
AcDbEntity
  8
ROADS
100
AcDbPolyline
 90
2
 70
0
 10
621329.5652116557
 20
4837878.190046215
 10
621324.5606397813
 20
4837892.696183167
  0
LWPOLYLINE
  5
104
330
17
100
AcDbEntity
  8
ROADS
100
AcDbPolyline
 90
3
 70
0
 10
621486.8316269529
 20
4837978.415777902
 10
621424.3942392704
 20
4837867.419578822
 10
621362.7577809494
 20
4837847.441971806
  0
LWPOLYLINE
  5
105
330
17
100
AcDbEntity
  8
ROADS
100
AcDbPolyline
 90
4
 70
0
 10
621587.1986370508
 20
4837879.000471343
 10
621559.2886360907
 20
4837891.39927067
 10
621547.8825160143
 20
4837940.588211246
 10
621486.8316269529
 20
4837978.415777902
  0
LWPOLYLINE
  5
106
330
17
100
AcDbEntity
  8
ROADS
100
AcDbPolyline
 90
7
 70
0
 10
621295.3311809715
 20
4837866.2193794865
 10
621291.5422488259
 20
4837920.504268995
 10
621328.5157418505
 20
4837933.119514462
 10
621307.6306593007
 20
4837993.8945022905
 10
621420.489234471
 20
4838027.372129012
 10
621461.1154777138
 20
4838011.867189249
 10
621486.8316269529
 20
4837978.415777902
  0
LWPOLYLINE
  5
107
330
17
100
AcDbEntity
  8
ROADS
100
AcDbPolyline
 90
2
 70
0
 10
621600.8362838102
 20
4838171.079369549
 10
620992.1674656097
 20
4837924.187091687
  0
LWPOLYLINE
  5
108
330
17
100
AcDbEntity
  8
ROADS
100
AcDbPolyline
 90
4
 70
0
 10
621192.8578170431
 20
4838020.199917519
 10
621339.3106575552
 20
4838084.098481041
 10
621361.1382636841
 20
4838140.294765054
 10
621352.7700731347
 20
4838159.028253473
  0
LWPOLYLINE
  5
109
330
17
100
AcDbEntity
  8
ROADS
100
AcDbPolyline
 90
2
 70
0
 10
621600.8362838102
 20
4838171.079369549
 10
621539.2639051122
 20
4838203.125207691
  0
LWPOLYLINE
  5
10A
330
17
100
AcDbEntity
  8
ROADS
100
AcDbPolyline
 90
3
 70
0
 10
621430.4506565846
 20
4838224.431134404
 10
621415.6887599285
 20
4838225.992215246
 10
621366.3150088994
 20
4838155.416068182
  0
LWPOLYLINE
  5
10B
330
17
100
AcDbEntity
  8
ROADS
100
AcDbPolyline
 90
2
 70
0
 10
621352.7700731347
 20
4838159.028253473
 10
621415.9265673197
 20
4838252.542707089
  0
LWPOLYLINE
  5
10C
330
17
100
AcDbEntity
  8
ROADS
100
AcDbPolyline
 90
2
 70
0
 10
620987.0676245121
 20
4837944.126727014
 10
621192.8578170431
 20
4838020.199917519
  0
LWPOLYLINE
  5
10D
330
17
100
AcDbEntity
  8
ROADS
100
AcDbPolyline
 90
2
 70
0
 10
621192.8578170431
 20
4838020.199917519
 10
621127.2103956188
 20
4838171.506287593
  0
LWPOLYLINE
  5
10E
330
17
100
AcDbEntity
  8
ROADS
100
AcDbPolyline
 90
2
 70
0
 10
620987.0676245121
 20
4837944.126727014
 10
620879.2590136287
 20
4838365.798183896
  0
LWPOLYLINE
  5
10F
330
17
100
AcDbEntity
  8
ROADS
100
AcDbPolyline
 90
2
 70
0
 10
621127.2103956188
 20
4838171.506287593
 10
621104.065662127
 20
4838173.425770879
  0
LWPOLYLINE
  5
110
330
17
100
AcDbEntity
  8
ROADS
100
AcDbPolyline
 90
2
 70
0
 10
621127.2103956188
 20
4838171.506287593
 10
621127.8510648337
 20
4838181.644320846
  0
LWPOLYLINE
  5
111
330
17
100
AcDbEntity
  8
ROADS
100
AcDbPolyline
 90
2
 70
0
 10
621127.8510648337
 20
4838181.644320846
 10
621146.420754506
 20
4838180.269116527
  0
LWPOLYLINE
  5
112
330
17
100
AcDbEntity
  8
ROADS
100
AcDbPolyline
 90
2
 70
0
 10
621127.8510648337
 20
4838181.644320846
 10
621153.3736567538
 20
4838245.865759123
  0
LWPOLYLINE
  5
113
330
17
100
AcDbEntity
  8
ROADS
100
AcDbPolyline
 90
4
 70
0
 10
620879.2590136287
 20
4838365.798183896
 10
620941.2963087676
 20
4838269.423054651
 10
621010.1727490617
 20
4838264.422572253
 10
621095.1410080896
 20
4838286.453318732
  0
LWPOLYLINE
  5
114
330
17
100
AcDbEntity
  8
ROADS
100
AcDbPolyline
 90
2
 70
0
 10
620879.2590136287
 20
4838365.798183896
 10
620769.1630165705
 20
4838330.178367638
  0
LWPOLYLINE
  5
115
330
17
100
AcDbEntity
  8
ROADS
100
AcDbPolyline
 90
2
 70
0
 10
620974.0633795109
 20
4838401.528449162
 10
620906.3056275784
 20
4838379.12594881
  0
LWPOLYLINE
  5
116
330
17
100
AcDbEntity
  8
ROADS
100
AcDbPolyline
 90
5
 70
0
 10
620972.8697545626
 20
4837917.544793836
 10
620869.4778495078
 20
4837881.959363422
 10
620753.6521630569
 20
4837865.354899436
 10
620658.3678646951
 20
4837874.325032126
 10
620557.4974178439
 20
4837905.796082787
  0
LWPOLYLINE
  5
117
330
17
100
AcDbEntity
  8
ROADS
100
AcDbPolyline
 90
2
 70
0
 10
620513.7155428865
 20
4838397.055978745
 10
620521.843458364
 20
4838348.314931109
  0
LWPOLYLINE
  5
118
330
17
100
AcDbEntity
  8
ROADS
100
AcDbPolyline
 90
2
 70
0
 10
620513.7155428865
 20
4838397.055978745
 10
620565.5620314812
 20
4838406.9361409405
  0
LWPOLYLINE
  5
119
330
17
100
AcDbEntity
  8
ROADS
100
AcDbPolyline
 90
2
 70
0
 10
620856.9062892472
 20
4838455.379763639
 10
620656.1871095105
 20
4838387.959464664
  0
LWPOLYLINE
  5
11A
330
17
100
AcDbEntity
  8
ROADS
100
AcDbPolyline
 90
2
 70
0
 10
620498.0564737679
 20
4838479.513228059
 10
620513.7155428865
 20
4838397.055978745
  0
LWPOLYLINE
  5
11B
330
17
100
AcDbEntity
  8
ROADS
100
AcDbPolyline
 90
3
 70
0
 10
620674.0713382926
 20
4838499.228680919
 10
620600.655538786
 20
4838467.64145184
 10
620565.5620314812
 20
4838406.9361409405
  0
LWPOLYLINE
  5
11C
330
17
100
AcDbEntity
  8
ROADS
100
AcDbPolyline
 90
2
 70
0
 10
620498.0564737679
 20
4838479.513228059
 10
620479.9787953595
 20
4838472.652965145
  0
LWPOLYLINE
  5
11D
330
17
100
AcDbEntity
  8
ROADS
100
AcDbPolyline
 90
2
 70
0
 10
620552.2924349034
 20
4838504.687268327
 10
620498.0564737679
 20
4838479.513228059
  0
LWPOLYLINE
  5
11E
330
17
100
AcDbEntity
  8
ROADS
100
AcDbPolyline
 90
2
 70
0
 10
620793.4508221459
 20
4838536.969548068
 10
620674.0713382926
 20
4838499.228680919
  0
LWPOLYLINE
  5
11F
330
17
100
AcDbEntity
  8
ROADS
100
AcDbPolyline
 90
2
 70
0
 10
620674.0713382926
 20
4838499.228680919
 10
620666.4803012204
 20
4838539.075078923
  0
LWPOLYLINE
  5
120
330
17
100
AcDbEntity
  8
ROADS
100
AcDbPolyline
 90
3
 70
0
 10
621539.2639051122
 20
4838203.125207691
 10
621486.5346057415
 20
4838197.702285173
 10
621430.4506565846
 20
4838224.431134404
  0
LWPOLYLINE
  5
121
330
17
100
AcDbEntity
  8
ROADS
100
AcDbPolyline
 90
2
 70
0
 10
621539.2639051122
 20
4838203.125207691
 10
621422.371771624
 20
4838262.333717305
  0
LWPOLYLINE
  5
122
330
17
100
AcDbEntity
  8
ROADS
100
AcDbPolyline
 90
2
 70
0
 10
621430.4506565846
 20
4838224.431134404
 10
621415.9265673197
 20
4838252.542707089
  0
LWPOLYLINE
  5
123
330
17
100
AcDbEntity
  8
ROADS
100
AcDbPolyline
 90
2
 70
0
 10
621422.371771624
 20
4838262.333717305
 10
621415.9265673197
 20
4838252.542707089
  0
LWPOLYLINE
  5
124
330
17
100
AcDbEntity
  8
ROADS
100
AcDbPolyline
 90
4
 70
0
 10
621377.9608531009
 20
4838386.0120132705
 10
621305.2606809156
 20
4838227.1060205465
 10
621338.0642471309
 20
4838160.696355634
 10
621352.7700731347
 20
4838159.028253473
  0
LWPOLYLINE
  5
125
330
17
100
AcDbEntity
  8
ROADS
100
AcDbPolyline
 90
2
 70
0
 10
621487.1799873235
 20
4838335.852183112
 10
621422.371771624
 20
4838262.333717305
  0
LWPOLYLINE
  5
126
330
17
100
AcDbEntity
  8
ROADS
100
AcDbPolyline
 90
2
 70
0
 10
621535.1429056847
 20
4838315.021732295
 10
621487.1799873235
 20
4838335.852183112
  0
LWPOLYLINE
  5
127
330
17
100
AcDbEntity
  8
ROADS
100
AcDbPolyline
 90
2
 70
0
 10
621487.1799873235
 20
4838335.852183112
 10
621442.9966122643
 20
4838355.832949411
  0
LWPOLYLINE
  5
128
330
17
100
AcDbEntity
  8
ROADS
100
AcDbPolyline
 90
2
 70
0
 10
621535.1429056847
 20
4838315.021732295
 10
621568.112864706
 20
4838383.112132947
  0
LWPOLYLINE
  5
129
330
17
100
AcDbEntity
  8
ROADS
100
AcDbPolyline
 90
2
 70
0
 10
621442.9966122643
 20
4838355.832949411
 10
621377.9608531009
 20
4838386.0120132705
  0
LWPOLYLINE
  5
12A
330
17
100
AcDbEntity
  8
ROADS
100
AcDbPolyline
 90
4
 70
0
 10
621285.251549207
 20
4838427.156022862
 10
621234.6379711811
 20
4838321.240882019
 10
621128.3142079208
 20
4838363.31969024
 10
621110.4239415218
 20
4838446.610773106
  0
LWPOLYLINE
  5
12B
330
17
100
AcDbEntity
  8
ROADS
100
AcDbPolyline
 90
2
 70
0
 10
621377.9608531009
 20
4838386.0120132705
 10
621356.5964161992
 20
4838396.267055965
  0
LWPOLYLINE
  5
12C
330
17
100
AcDbEntity
  8
ROADS
100
AcDbPolyline
 90
2
 70
0
 10
621442.9966122643
 20
4838355.832949411
 10
621483.5794227723
 20
4838442.028844912
  0
LWPOLYLINE
  5
12D
330
17
100
AcDbEntity
  8
ROADS
100
AcDbPolyline
 90
2
 70
0
 10
621356.5964161992
 20
4838396.267055965
 10
621285.251549207
 20
4838427.156022862
  0
LWPOLYLINE
  5
12E
330
17
100
AcDbEntity
  8
ROADS
100
AcDbPolyline
 90
2
 70
0
 10
621356.5964161992
 20
4838396.267055965
 10
621373.2936498623
 20
4838436.434853719
  0
LWPOLYLINE
  5
12F
330
17
100
AcDbEntity
  8
ROADS
100
AcDbPolyline
 90
2
 70
0
 10
621373.2936498623
 20
4838436.434853719
 10
621417.1148644461
 20
4838417.180584443
  0
LWPOLYLINE
  5
130
330
17
100
AcDbEntity
  8
ROADS
100
AcDbPolyline
 90
2
 70
0
 10
621285.251549207
 20
4838427.156022862
 10
621208.297684278
 20
4838463.007745616
  0
LWPOLYLINE
  5
131
330
17
100
AcDbEntity
  8
ROADS
100
AcDbPolyline
 90
2
 70
0
 10
621373.2936498623
 20
4838436.434853719
 10
621267.3632722555
 20
4838482.691944717
  0
LWPOLYLINE
  5
132
330
17
100
AcDbEntity
  8
ROADS
100
AcDbPolyline
 90
2
 70
0
 10
621208.297684278
 20
4838463.007745616
 10
621192.0279899254
 20
4838472.515894329
  0
LWPOLYLINE
  5
133
330
17
100
AcDbEntity
  8
ROADS
100
AcDbPolyline
 90
2
 70
0
 10
621267.3632722555
 20
4838482.691944717
 10
621208.297684278
 20
4838463.007745616
  0
LWPOLYLINE
  5
134
330
17
100
AcDbEntity
  8
ROADS
100
AcDbPolyline
 90
2
 70
0
 10
620879.2590136287
 20
4838365.798183896
 10
620856.9062892472
 20
4838455.379763639
  0
LWPOLYLINE
  5
135
330
17
100
AcDbEntity
  8
ROADS
100
AcDbPolyline
 90
2
 70
0
 10
621082.8045757198
 20
4838436.943796137
 10
620974.0633795109
 20
4838401.528449162
  0
LWPOLYLINE
  5
136
330
17
100
AcDbEntity
  8
ROADS
100
AcDbPolyline
 90
3
 70
0
 10
620856.9062892472
 20
4838455.379763639
 10
620891.2311979212
 20
4838451.928451873
 10
620974.0633795109
 20
4838401.528449162
  0
LWPOLYLINE
  5
137
330
17
100
AcDbEntity
  8
ROADS
100
AcDbPolyline
 90
2
 70
0
 10
621110.4239415218
 20
4838446.610773106
 10
621082.8045757198
 20
4838436.943796137
  0
LWPOLYLINE
  5
138
330
17
100
AcDbEntity
  8
ROADS
100
AcDbPolyline
 90
2
 70
0
 10
621192.0279899254
 20
4838472.515894329
 10
621110.4239415218
 20
4838446.610773106
  0
LWPOLYLINE
  5
139
330
17
100
AcDbEntity
  8
ROADS
100
AcDbPolyline
 90
2
 70
0
 10
621082.8045757198
 20
4838436.943796137
 10
620952.1162486073
 20
4838510.953250976
  0
LWPOLYLINE
  5
13A
330
17
100
AcDbEntity
  8
ROADS
100
AcDbPolyline
 90
2
 70
0
 10
620856.9062892472
 20
4838455.379763639
 10
620837.4242667552
 20
4838550.8715102775
  0
LWPOLYLINE
  5
13B
330
17
100
AcDbEntity
  8
ROADS
100
AcDbPolyline
 90
2
 70
0
 10
621151.7697977293
 20
4838494.211695683
 10
621055.8653449398
 20
4838545.255288751
  0
LWPOLYLINE
  5
13C
330
17
100
AcDbEntity
  8
ROADS
100
AcDbPolyline
 90
3
 70
0
 10
620952.1162486073
 20
4838510.953250976
 10
620874.206547821
 20
4838551.717841762
 10
620837.4242667552
 20
4838550.8715102775
  0
LWPOLYLINE
  5
13D
330
17
100
AcDbEntity
  8
ROADS
100
AcDbPolyline
 90
2
 70
0
 10
620990.8170512166
 20
4838579.945250148
 10
620952.1162486073
 20
4838510.953250976
  0
LWPOLYLINE
  5
13E
330
17
100
AcDbEntity
  8
ROADS
100
AcDbPolyline
 90
2
 70
0
 10
621373.2936498623
 20
4838436.434853719
 10
621410.6550910076
 20
4838524.0790408235
  0
LWPOLYLINE
  5
13F
330
17
100
AcDbEntity
  8
ROADS
100
AcDbPolyline
 90
2
 70
0
 10
621192.0279899254
 20
4838472.515894329
 10
621151.7697977293
 20
4838494.211695683
  0
LWPOLYLINE
  5
140
330
17
100
AcDbEntity
  8
ROADS
100
AcDbPolyline
 90
2
 70
0
 10
621410.6550910076
 20
4838524.0790408235
 10
621267.3632722555
 20
4838482.691944717
  0
LWPOLYLINE
  5
141
330
17
100
AcDbEntity
  8
ROADS
100
AcDbPolyline
 90
2
 70
0
 10
621151.7697977293
 20
4838494.211695683
 10
621394.2954178816
 20
4838572.783821089
  0
LWPOLYLINE
  5
142
330
17
100
AcDbEntity
  8
ROADS
100
AcDbPolyline
 90
2
 70
0
 10
621410.6550910076
 20
4838524.0790408235
 10
621440.4468710725
 20
4838555.457802697
  0
LWPOLYLINE
  5
143
330
17
100
AcDbEntity
  8
ROADS
100
AcDbPolyline
 90
2
 70
0
 10
621394.2954178816
 20
4838572.783821089
 10
621410.6550910076
 20
4838524.0790408235
  0
LWPOLYLINE
  5
144
330
17
100
AcDbEntity
  8
ROADS
100
AcDbPolyline
 90
2
 70
0
 10
621410.6550910076
 20
4838524.0790408235
 10
621448.7648785475
 20
4838588.539740973
  0
LWPOLYLINE
  5
145
330
17
100
AcDbEntity
  8
ROADS
100
AcDbPolyline
 90
2
 70
0
 10
621055.8653449398
 20
4838545.255288751
 10
621320.1750684759
 20
4838633.711892151
  0
LWPOLYLINE
  5
146
330
17
100
AcDbEntity
  8
ROADS
100
AcDbPolyline
 90
2
 70
0
 10
621320.1750684759
 20
4838633.711892151
 10
621394.2954178816
 20
4838572.783821089
  0
LWPOLYLINE
  5
147
330
17
100
AcDbEntity
  8
ROADS
100
AcDbPolyline
 90
2
 70
0
 10
621236.5485335384
 20
4838688.5457202345
 10
621320.1750684759
 20
4838633.711892151
  0
LWPOLYLINE
  5
148
330
17
100
AcDbEntity
  8
ROADS
100
AcDbPolyline
 90
2
 70
0
 10
620601.9176821818
 20
4838539.510330654
 10
620552.2924349034
 20
4838504.687268327
  0
LWPOLYLINE
  5
149
330
17
100
AcDbEntity
  8
ROADS
100
AcDbPolyline
 90
2
 70
0
 10
620479.9787953595
 20
4838472.652965145
 10
620458.6641370683
 20
4838574.202710269
  0
LWPOLYLINE
  5
14A
330
17
100
AcDbEntity
  8
ROADS
100
AcDbPolyline
 90
2
 70
0
 10
620552.2924349034
 20
4838504.687268327
 10
620535.9113353412
 20
4838577.13604001
  0
LWPOLYLINE
  5
14B
330
17
100
AcDbEntity
  8
ROADS
100
AcDbPolyline
 90
2
 70
0
 10
620837.4242667552
 20
4838550.8715102775
 10
620793.4508221459
 20
4838536.969548068
  0
LWPOLYLINE
  5
14C
330
17
100
AcDbEntity
  8
ROADS
100
AcDbPolyline
 90
2
 70
0
 10
620666.4803012204
 20
4838539.075078923
 10
620656.5462517628
 20
4838579.248109971
  0
LWPOLYLINE
  5
14D
330
17
100
AcDbEntity
  8
ROADS
100
AcDbPolyline
 90
2
 70
0
 10
620656.5462517628
 20
4838579.248109971
 10
620601.9176821818
 20
4838539.510330654
  0
LWPOLYLINE
  5
14E
330
17
100
AcDbEntity
  8
ROADS
100
AcDbPolyline
 90
2
 70
0
 10
620793.4508221459
 20
4838536.969548068
 10
620780.7140023061
 20
4838602.167974968
  0
LWPOLYLINE
  5
14F
330
17
100
AcDbEntity
  8
ROADS
100
AcDbPolyline
 90
2
 70
0
 10
620780.7140023061
 20
4838602.167974968
 10
620666.4803012204
 20
4838539.075078923
  0
LWPOLYLINE
  5
150
330
17
100
AcDbEntity
  8
ROADS
100
AcDbPolyline
 90
6
 70
0
 10
620535.9113353412
 20
4838577.13604001
 10
620524.1917125827
 20
4838629.831286278
 10
620508.3714690028
 20
4838639.206530973
 10
620464.7475703446
 20
4838621.4077285975
 10
620477.5683335417
 20
4838567.601361483
 10
620535.9113353412
 20
4838577.13604001
  0
LWPOLYLINE
  5
151
330
17
100
AcDbEntity
  8
ROADS
100
AcDbPolyline
 90
2
 70
0
 10
620458.6641370683
 20
4838574.202710269
 10
620423.3564285939
 20
4838666.59895628
  0
LWPOLYLINE
  5
152
330
17
100
AcDbEntity
  8
ROADS
100
AcDbPolyline
 90
2
 70
0
 10
621055.8653449398
 20
4838545.255288751
 10
620990.8170512166
 20
4838579.945250148
  0
LWPOLYLINE
  5
153
330
17
100
AcDbEntity
  8
ROADS
100
AcDbPolyline
 90
2
 70
0
 10
620990.8170512166
 20
4838579.945250148
 10
620958.1946313286
 20
4838598.798013837
  0
LWPOLYLINE
  5
154
330
17
100
AcDbEntity
  8
ROADS
100
AcDbPolyline
 90
2
 70
0
 10
620837.4242667552
 20
4838550.8715102775
 10
620811.782006924
 20
4838679.200236473
  0
LWPOLYLINE
  5
155
330
17
100
AcDbEntity
  8
ROADS
100
AcDbPolyline
 90
2
 70
0
 10
620958.1946313286
 20
4838598.798013837
 10
621067.8578788955
 20
4838634.156098613
  0
LWPOLYLINE
  5
156
330
17
100
AcDbEntity
  8
ROADS
100
AcDbPolyline
 90
2
 70
0
 10
620958.1946313286
 20
4838598.798013837
 10
620876.5982485523
 20
4838645.451156629
  0
LWPOLYLINE
  5
157
330
17
100
AcDbEntity
  8
ROADS
100
AcDbPolyline
 90
2
 70
0
 10
621067.8578788955
 20
4838634.156098613
 10
621236.5485335384
 20
4838688.5457202345
  0
LWPOLYLINE
  5
158
330
17
100
AcDbEntity
  8
ROADS
100
AcDbPolyline
 90
2
 70
0
 10
620876.5982485523
 20
4838645.451156629
 10
620811.782006924
 20
4838679.200236473
  0
LWPOLYLINE
  5
159
330
17
100
AcDbEntity
  8
ROADS
100
AcDbPolyline
 90
2
 70
0
 10
621067.8578788955
 20
4838634.156098613
 10
621045.7679578672
 20
4838701.381487218
  0
LWPOLYLINE
  5
15A
330
17
100
AcDbEntity
  8
ROADS
100
AcDbPolyline
 90
2
 70
0
 10
620876.5982485523
 20
4838645.451156629
 10
621045.7679578672
 20
4838701.381487218
  0
LWPOLYLINE
  5
15B
330
17
100
AcDbEntity
  8
ROADS
100
AcDbPolyline
 90
2
 70
0
 10
621045.7679578672
 20
4838701.381487218
 10
621162.7296350977
 20
4838740.051773832
  0
LWPOLYLINE
  5
15C
330
17
100
AcDbEntity
  8
ROADS
100
AcDbPolyline
 90
4
 70
0
 10
621842.8764613115
 20
4837801.719926615
 10
621887.4313561778
 20
4837686.992402662
 10
622007.2273304425
 20
4837687.245894279
 10
622011.3228123006
 20
4837671.581230188
  0
LWPOLYLINE
  5
15D
330
17
100
AcDbEntity
  8
ROADS
100
AcDbPolyline
 90
2
 70
0
 10
621686.3003254343
 20
4837751.565443475
 10
621636.7489965006
 20
4837735.368073347
  0
LWPOLYLINE
  5
15E
330
17
100
AcDbEntity
  8
ROADS
100
AcDbPolyline
 90
2
 70
0
 10
621759.5824440774
 20
4837776.1843756335
 10
621686.3003254343
 20
4837751.565443475
  0
LWPOLYLINE
  5
15F
330
17
100
AcDbEntity
  8
ROADS
100
AcDbPolyline
 90
2
 70
0
 10
621779.934404051
 20
4837783.48177626
 10
621759.5824440774
 20
4837776.1843756335
  0
LWPOLYLINE
  5
160
330
17
100
AcDbEntity
  8
ROADS
100
AcDbPolyline
 90
3
 70
0
 10
621941.4158905891
 20
4837833.797509194
 10
621962.3919657554
 20
4837757.762333427
 10
621915.9593040892
 20
4837741.920867099
  0
LWPOLYLINE
  5
161
330
17
100
AcDbEntity
  8
ROADS
100
AcDbPolyline
 90
2
 70
0
 10
621842.8764613115
 20
4837801.719926615
 10
621779.934404051
 20
4837783.48177626
  0
LWPOLYLINE
  5
162
330
17
100
AcDbEntity
  8
ROADS
100
AcDbPolyline
 90
2
 70
0
 10
621636.7489965006
 20
4837735.368073347
 10
621587.1986370508
 20
4837879.000471343
  0
LWPOLYLINE
  5
163
330
17
100
AcDbEntity
  8
ROADS
100
AcDbPolyline
 90
2
 70
0
 10
621941.4158905891
 20
4837833.797509194
 10
621842.8764613115
 20
4837801.719926615
  0
LWPOLYLINE
  5
164
330
17
100
AcDbEntity
  8
ROADS
100
AcDbPolyline
 90
2
 70
0
 10
621779.934404051
 20
4837783.48177626
 10
621742.4000127829
 20
4837898.972254534
  0
LWPOLYLINE
  5
165
330
17
100
AcDbEntity
  8
ROADS
100
AcDbPolyline
 90
2
 70
0
 10
622016.1106766663
 20
4837859.823591114
 10
621941.4158905891
 20
4837833.797509194
  0
LWPOLYLINE
  5
166
330
17
100
AcDbEntity
  8
ROADS
100
AcDbPolyline
 90
2
 70
0
 10
622388.8786942455
 20
4837802.791471099
 10
622343.321772582
 20
4837717.347505413
  0
LWPOLYLINE
  5
167
330
17
100
AcDbEntity
  8
ROADS
100
AcDbPolyline
 90
3
 70
0
 10
622312.6437615906
 20
4837865.732746442
 10
622253.319457433
 20
4837741.347965456
 10
622165.9349048937
 20
4837697.854578601
  0
LWPOLYLINE
  5
168
330
17
100
AcDbEntity
  8
ROADS
100
AcDbPolyline
 90
2
 70
0
 10
622388.8786942455
 20
4837802.791471099
 10
622341.3874090929
 20
4837815.289182575
  0
LWPOLYLINE
  5
169
330
17
100
AcDbEntity
  8
ROADS
100
AcDbPolyline
 90
2
 70
0
 10
622407.9164650192
 20
4837842.389662378
 10
622388.8786942455
 20
4837802.791471099
  0
LWPOLYLINE
  5
16A
330
17
100
AcDbEntity
  8
ROADS
100
AcDbPolyline
 90
4
 70
0
 10
622030.7118199418
 20
4837819.101756587
 10
622048.6167787985
 20
4837769.164237723
 10
622229.9756955642
 20
4837829.025938513
 10
622255.9830917711
 20
4837879.831690772
  0
LWPOLYLINE
  5
16B
330
17
100
AcDbEntity
  8
ROADS
100
AcDbPolyline
 90
2
 70
0
 10
622030.7118199418
 20
4837819.101756587
 10
622075.7374934453
 20
4837833.833741222
  0
LWPOLYLINE
  5
16C
330
17
100
AcDbEntity
  8
ROADS
100
AcDbPolyline
 90
2
 70
0
 10
622016.1106766663
 20
4837859.823591114
 10
622030.7118199418
 20
4837819.101756587
  0
LWPOLYLINE
  5
16D
330
17
100
AcDbEntity
  8
ROADS
100
AcDbPolyline
 90
2
 70
0
 10
622407.9164650192
 20
4837842.389662378
 10
622312.6437615906
 20
4837865.732746442
  0
LWPOLYLINE
  5
16E
330
17
100
AcDbEntity
  8
ROADS
100
AcDbPolyline
 90
2
 70
0
 10
622312.6437615906
 20
4837865.732746442
 10
622255.9830917711
 20
4837879.831690772
  0
LWPOLYLINE
  5
16F
330
17
100
AcDbEntity
  8
ROADS
100
AcDbPolyline
 90
2
 70
0
 10
622187.4177675464
 20
4837918.4864875795
 10
622016.1106766663
 20
4837859.823591114
  0
LWPOLYLINE
  5
170
330
17
100
AcDbEntity
  8
ROADS
100
AcDbPolyline
 90
3
 70
0
 10
622908.7027515671
 20
4837795.445655221
 10
622872.9306779916
 20
4837818.078329219
 10
622802.7437296709
 20
4837811.41566583
  0
LWPOLYLINE
  5
171
330
17
100
AcDbEntity
  8
ROADS
100
AcDbPolyline
 90
2
 70
0
 10
622496.0941899413
 20
4837822.1243990185
 10
622407.9164650192
 20
4837842.389662378
  0
LWPOLYLINE
  5
172
330
17
100
AcDbEntity
  8
ROADS
100
AcDbPolyline
 90
3
 70
0
 10
622802.7437296709
 20
4837811.41566583
 10
622767.475032525
 20
4837819.321215064
 10
622595.94141245
 20
4837928.431286556
  0
LWPOLYLINE
  5
173
330
17
100
AcDbEntity
  8
ROADS
100
AcDbPolyline
 90
3
 70
0
 10
622802.7437296709
 20
4837811.41566583
 10
622816.9471152361
 20
4837885.250152659
 10
622753.0505532403
 20
4837934.595973217
  0
LWPOLYLINE
  5
174
330
17
100
AcDbEntity
  8
ROADS
100
AcDbPolyline
 90
2
 70
0
 10
622496.0941899413
 20
4837822.1243990185
 10
622452.8948605299
 20
4837925.8141021645
  0
LWPOLYLINE
  5
175
330
17
100
AcDbEntity
  8
ROADS
100
AcDbPolyline
 90
3
 70
0
 10
622916.8734083486
 20
4837966.952376112
 10
622872.5239374208
 20
4837960.111956136
 10
622746.5894364947
 20
4838048.100659445
  0
LWPOLYLINE
  5
176
330
17
100
AcDbEntity
  8
ROADS
100
AcDbPolyline
 90
2
 70
0
 10
622916.8734083486
 20
4837966.952376112
 10
622886.5773898917
 20
4838058.213947737
  0
LWPOLYLINE
  5
177
330
17
100
AcDbEntity
  8
ROADS
100
AcDbPolyline
 90
2
 70
0
 10
622886.5773898917
 20
4838058.213947737
 10
622746.5894364947
 20
4838048.100659445
  0
LWPOLYLINE
  5
178
330
17
100
AcDbEntity
  8
ROADS
100
AcDbPolyline
 90
5
 70
0
 10
622746.5894364947
 20
4838048.100659445
 10
622669.4841896703
 20
4838100.378689987
 10
622665.818703905
 20
4838123.120500585
 10
622682.2093557195
 20
4838142.756896538
 10
622856.4408720183
 20
4838147.788305148
  0
LWPOLYLINE
  5
179
330
17
100
AcDbEntity
  8
ROADS
100
AcDbPolyline
 90
2
 70
0
 10
622886.5773898917
 20
4838058.213947737
 10
622856.4408720183
 20
4838147.788305148
  0
LWPOLYLINE
  5
17A
330
17
100
AcDbEntity
  8
ROADS
100
AcDbPolyline
 90
2
 70
0
 10
621619.8157037753
 20
4837944.5733414255
 10
621587.1986370508
 20
4837879.000471343
  0
LWPOLYLINE
  5
17B
330
17
100
AcDbEntity
  8
ROADS
100
AcDbPolyline
 90
2
 70
0
 10
621839.5337289046
 20
4837931.249442927
 10
621742.4000127829
 20
4837898.972254534
  0
LWPOLYLINE
  5
17C
330
17
100
AcDbEntity
  8
ROADS
100
AcDbPolyline
 90
2
 70
0
 10
621742.4000127829
 20
4837898.972254534
 10
621718.7077483104
 20
4837969.535997862
  0
LWPOLYLINE
  5
17D
330
17
100
AcDbEntity
  8
ROADS
100
AcDbPolyline
 90
2
 70
0
 10
621718.7077483104
 20
4837969.535997862
 10
621619.8157037753
 20
4837944.5733414255
  0
LWPOLYLINE
  5
17E
330
17
100
AcDbEntity
  8
ROADS
100
AcDbPolyline
 90
3
 70
0
 10
622050.9518571565
 20
4838010.742754012
 10
622042.7294977648
 20
4837996.3653754145
 10
621839.5337289046
 20
4837931.249442927
  0
LWPOLYLINE
  5
17F
330
17
100
AcDbEntity
  8
ROADS
100
AcDbPolyline
 90
2
 70
0
 10
621839.5337289046
 20
4837931.249442927
 10
621800.1929126396
 20
4838049.354375727
  0
LWPOLYLINE
  5
180
330
17
100
AcDbEntity
  8
ROADS
100
AcDbPolyline
 90
2
 70
0
 10
621718.7077483104
 20
4837969.535997862
 10
621703.7021154101
 20
4838016.752769433
  0
LWPOLYLINE
  5
181
330
17
100
AcDbEntity
  8
ROADS
100
AcDbPolyline
 90
2
 70
0
 10
621619.8157037753
 20
4837944.5733414255
 10
621587.0482943836
 20
4838076.772720151
  0
LWPOLYLINE
  5
182
330
17
100
AcDbEntity
  8
ROADS
100
AcDbPolyline
 90
2
 70
0
 10
621800.1929126396
 20
4838049.354375727
 10
621703.7021154101
 20
4838016.752769433
  0
LWPOLYLINE
  5
183
330
17
100
AcDbEntity
  8
ROADS
100
AcDbPolyline
 90
2
 70
0
 10
622050.9518571565
 20
4838010.742754012
 10
621952.354136702
 20
4838074.888523148
  0
LWPOLYLINE
  5
184
330
17
100
AcDbEntity
  8
ROADS
100
AcDbPolyline
 90
2
 70
0
 10
622255.9830917711
 20
4837879.831690772
 10
622187.4177675464
 20
4837918.4864875795
  0
LWPOLYLINE
  5
185
330
17
100
AcDbEntity
  8
ROADS
100
AcDbPolyline
 90
2
 70
0
 10
622187.4177675464
 20
4837918.4864875795
 10
622069.2048780957
 20
4837998.4032954965
  0
LWPOLYLINE
  5
186
330
17
100
AcDbEntity
  8
ROADS
100
AcDbPolyline
 90
3
 70
0
 10
622114.6021037431
 20
4838068.397618394
 10
622233.7194193974
 20
4837990.894294927
 10
622187.4177675464
 20
4837918.4864875795
  0
LWPOLYLINE
  5
187
330
17
100
AcDbEntity
  8
ROADS
100
AcDbPolyline
 90
2
 70
0
 10
622069.2048780957
 20
4837998.4032954965
 10
622050.9518571565
 20
4838010.742754012
  0
LWPOLYLINE
  5
188
330
17
100
AcDbEntity
  8
ROADS
100
AcDbPolyline
 90
2
 70
0
 10
622452.8948605299
 20
4837925.8141021645
 10
622370.6450602853
 20
4838103.461048668
  0
LWPOLYLINE
  5
189
330
17
100
AcDbEntity
  8
ROADS
100
AcDbPolyline
 90
2
 70
0
 10
622069.2048780957
 20
4837998.4032954965
 10
622092.4185025678
 20
4838034.368814318
  0
LWPOLYLINE
  5
18A
330
17
100
AcDbEntity
  8
ROADS
100
AcDbPolyline
 90
2
 70
0
 10
622092.4185025678
 20
4838034.368814318
 10
622131.3656873308
 20
4838008.416985333
  0
LWPOLYLINE
  5
18B
330
17
100
AcDbEntity
  8
ROADS
100
AcDbPolyline
 90
2
 70
0
 10
622092.4185025678
 20
4838034.368814318
 10
622114.6021037431
 20
4838068.397618394
  0
LWPOLYLINE
  5
18C
330
17
100
AcDbEntity
  8
ROADS
100
AcDbPolyline
 90
2
 70
0
 10
621975.2503705845
 20
4838109.989254489
 10
622092.4185025678
 20
4838034.368814318
  0
LWPOLYLINE
  5
18D
330
17
100
AcDbEntity
  8
ROADS
100
AcDbPolyline
 90
2
 70
0
 10
622114.6021037431
 20
4838068.397618394
 10
621997.7262778435
 20
4838144.443358453
  0
LWPOLYLINE
  5
18E
330
17
100
AcDbEntity
  8
ROADS
100
AcDbPolyline
 90
2
 70
0
 10
621703.7021154101
 20
4838016.752769433
 10
621668.8105922751
 20
4838125.894706418
  0
LWPOLYLINE
  5
18F
330
17
100
AcDbEntity
  8
ROADS
100
AcDbPolyline
 90
2
 70
0
 10
621916.3627118967
 20
4838094.116476623
 10
621800.1929126396
 20
4838049.354375727
  0
LWPOLYLINE
  5
190
330
17
100
AcDbEntity
  8
ROADS
100
AcDbPolyline
 90
2
 70
0
 10
621952.354136702
 20
4838074.888523148
 10
621916.3627118967
 20
4838094.116476623
  0
LWPOLYLINE
  5
191
330
17
100
AcDbEntity
  8
ROADS
100
AcDbPolyline
 90
2
 70
0
 10
621975.2503705845
 20
4838109.989254489
 10
621952.354136702
 20
4838074.888523148
  0
LWPOLYLINE
  5
192
330
17
100
AcDbEntity
  8
ROADS
100
AcDbPolyline
 90
4
 70
0
 10
621800.1929126396
 20
4838049.354375727
 10
621784.7779554239
 20
4838090.947494072
 10
621719.3575527036
 20
4838135.866358206
 10
621668.8105922751
 20
4838125.894706418
  0
LWPOLYLINE
  5
193
330
17
100
AcDbEntity
  8
ROADS
100
AcDbPolyline
 90
2
 70
0
 10
621997.7262778435
 20
4838144.443358453
 10
621975.2503705845
 20
4838109.989254489
  0
LWPOLYLINE
  5
194
330
17
100
AcDbEntity
  8
ROADS
100
AcDbPolyline
 90
2
 70
0
 10
621975.2503705845
 20
4838109.989254489
 10
621840.611886383
 20
4838197.639223311
  0
LWPOLYLINE
  5
195
330
17
100
AcDbEntity
  8
ROADS
100
AcDbPolyline
 90
2
 70
0
 10
621916.3627118967
 20
4838094.116476623
 10
621735.8706729347
 20
4838217.344747544
  0
LWPOLYLINE
  5
196
330
17
100
AcDbEntity
  8
ROADS
100
AcDbPolyline
 90
2
 70
0
 10
621668.8105922751
 20
4838125.894706418
 10
621645.5257674177
 20
4838186.259323762
  0
LWPOLYLINE
  5
197
330
17
100
AcDbEntity
  8
ROADS
100
AcDbPolyline
 90
2
 70
0
 10
621997.7262778435
 20
4838144.443358453
 10
621907.8428559806
 20
4838203.286442248
  0
LWPOLYLINE
  5
198
330
17
100
AcDbEntity
  8
ROADS
100
AcDbPolyline
 90
2
 70
0
 10
621645.5257674177
 20
4838186.259323762
 10
621600.8362838102
 20
4838171.079369549
  0
LWPOLYLINE
  5
199
330
17
100
AcDbEntity
  8
ROADS
100
AcDbPolyline
 90
2
 70
0
 10
621600.8362838102
 20
4838171.079369549
 10
621612.4487669498
 20
4838200.938751818
  0
LWPOLYLINE
  5
19A
330
17
100
AcDbEntity
  8
ROADS
100
AcDbPolyline
 90
2
 70
0
 10
621665.9336878444
 20
4838193.281746604
 10
621645.5257674177
 20
4838186.259323762
  0
LWPOLYLINE
  5
19B
330
17
100
AcDbEntity
  8
ROADS
100
AcDbPolyline
 90
2
 70
0
 10
621645.5257674177
 20
4838186.259323762
 10
621612.4487669498
 20
4838200.938751818
  0
LWPOLYLINE
  5
19C
330
17
100
AcDbEntity
  8
ROADS
100
AcDbPolyline
 90
2
 70
0
 10
621735.8706729347
 20
4838217.344747544
 10
621665.9336878444
 20
4838193.281746604
  0
LWPOLYLINE
  5
19D
330
17
100
AcDbEntity
  8
ROADS
100
AcDbPolyline
 90
2
 70
0
 10
621612.4487669498
 20
4838200.938751818
 10
621590.9578658803
 20
4838211.771552537
  0
LWPOLYLINE
  5
19E
330
17
100
AcDbEntity
  8
ROADS
100
AcDbPolyline
 90
2
 70
0
 10
621840.611886383
 20
4838197.639223311
 10
621808.0470373183
 20
4838219.498252415
  0
LWPOLYLINE
  5
19F
330
17
100
AcDbEntity
  8
ROADS
100
AcDbPolyline
 90
3
 70
0
 10
621840.611886383
 20
4838197.639223311
 10
621862.5060223668
 20
4838232.962837677
 10
621907.8428559806
 20
4838203.286442248
  0
LWPOLYLINE
  5
1A0
330
17
100
AcDbEntity
  8
ROADS
100
AcDbPolyline
 90
2
 70
0
 10
621907.8428559806
 20
4838203.286442248
 10
621929.570447369
 20
4838237.312991646
  0
LWPOLYLINE
  5
1A1
330
17
100
AcDbEntity
  8
ROADS
100
AcDbPolyline
 90
2
 70
0
 10
621735.8706729347
 20
4838217.344747544
 10
621711.5643894764
 20
4838230.789750744
  0
LWPOLYLINE
  5
1A2
330
17
100
AcDbEntity
  8
ROADS
100
AcDbPolyline
 90
2
 70
0
 10
622942.3470799179
 20
4838174.329321316
 10
622856.4408720183
 20
4838147.788305148
  0
LWPOLYLINE
  5
1A3
330
17
100
AcDbEntity
  8
ROADS
100
AcDbPolyline
 90
2
 70
0
 10
622856.4408720183
 20
4838147.788305148
 10
622806.6158822475
 20
4838296.273440405
  0
LWPOLYLINE
  5
1A4
330
17
100
AcDbEntity
  8
ROADS
100
AcDbPolyline
 90
2
 70
0
 10
622942.3470799179
 20
4838174.329321316
 10
622878.5541518037
 20
4838363.6858697515
  0
LWPOLYLINE
  5
1A5
330
17
100
AcDbEntity
  8
ROADS
100
AcDbPolyline
 90
2
 70
0
 10
622878.5541518037
 20
4838363.6858697515
 10
622806.6158822475
 20
4838296.273440405
  0
LWPOLYLINE
  5
1A6
330
17
100
AcDbEntity
  8
ROADS
100
AcDbPolyline
 90
2
 70
0
 10
622719.7778822315
 20
4838264.468293704
 10
622668.2684382203
 20
4838418.418150855
  0
LWPOLYLINE
  5
1A7
330
17
100
AcDbEntity
  8
ROADS
100
AcDbPolyline
 90
2
 70
0
 10
622806.6158822475
 20
4838296.273440405
 10
622753.9806913618
 20
4838449.181920729
  0
LWPOLYLINE
  5
1A8
330
17
100
AcDbEntity
  8
ROADS
100
AcDbPolyline
 90
2
 70
0
 10
622955.6848707282
 20
4838409.13815757
 10
622878.5541518037
 20
4838363.6858697515
  0
LWPOLYLINE
  5
1A9
330
17
100
AcDbEntity
  8
ROADS
100
AcDbPolyline
 90
2
 70
0
 10
622668.2684382203
 20
4838418.418150855
 10
622624.8128820965
 20
4838404.869518715
  0
LWPOLYLINE
  5
1AA
330
17
100
AcDbEntity
  8
ROADS
100
AcDbPolyline
 90
2
 70
0
 10
622753.9806913618
 20
4838449.181920729
 10
622668.2684382203
 20
4838418.418150855
  0
LWPOLYLINE
  5
1AB
330
17
100
AcDbEntity
  8
ROADS
100
AcDbPolyline
 90
2
 70
0
 10
622878.5541518037
 20
4838363.6858697515
 10
622827.566568413
 20
4838520.875383569
  0
LWPOLYLINE
  5
1AC
330
17
100
AcDbEntity
  8
ROADS
100
AcDbPolyline
 90
7
 70
0
 10
622370.6450602853
 20
4838103.461048668
 10
622313.4339837714
 20
4838086.782538767
 10
622267.2056942933
 20
4838099.339052588
 10
622113.1538969945
 20
4838200.440621441
 10
622105.8468240942
 20
4838227.462731122
 10
622039.2102074813
 20
4838242.91623985
 10
622002.0031466305
 20
4838293.358648515
  0
LWPOLYLINE
  5
1AD
330
17
100
AcDbEntity
  8
ROADS
100
AcDbPolyline
 90
2
 70
0
 10
622370.6450602853
 20
4838103.461048668
 10
622269.3917993776
 20
4838379.8263820615
  0
LWPOLYLINE
  5
1AE
330
17
100
AcDbEntity
  8
ROADS
100
AcDbPolyline
 90
2
 70
0
 10
622201.4476160469
 20
4838357.1009172825
 10
622002.0031466305
 20
4838293.358648515
  0
LWPOLYLINE
  5
1AF
330
17
100
AcDbEntity
  8
ROADS
100
AcDbPolyline
 90
2
 70
0
 10
622269.3917993776
 20
4838379.8263820615
 10
622201.4476160469
 20
4838357.1009172825
  0
LWPOLYLINE
  5
1B0
330
17
100
AcDbEntity
  8
ROADS
100
AcDbPolyline
 90
3
 70
0
 10
622201.4476160469
 20
4838357.1009172825
 10
622208.555786123
 20
4838444.13459013
 10
622177.9327212883
 20
4838544.903460349
  0
LWPOLYLINE
  5
1B1
330
17
100
AcDbEntity
  8
ROADS
100
AcDbPolyline
 90
2
 70
0
 10
622269.3917993776
 20
4838379.8263820615
 10
622184.0283816478
 20
4838678.290003954
  0
LWPOLYLINE
  5
1B2
330
17
100
AcDbEntity
  8
ROADS
100
AcDbPolyline
 90
5
 70
0
 10
622184.0283816478
 20
4838678.290003954
 10
622146.259250181
 20
4838668.634393615
 10
622113.1111660855
 20
4838686.465659562
 10
622083.8654405396
 20
4838822.7640586905
 10
621988.5488259591
 20
4838928.69789536
  0
LWPOLYLINE
  5
1B3
330
17
100
AcDbEntity
  8
ROADS
100
AcDbPolyline
 90
2
 70
0
 10
622440.9510991697
 20
4838783.692190052
 10
622379.9693626945
 20
4838816.742731416
  0
LWPOLYLINE
  5
1B4
330
17
100
AcDbEntity
  8
ROADS
100
AcDbPolyline
 90
2
 70
0
 10
622379.9693626945
 20
4838816.742731416
 10
622349.7597579688
 20
4838836.046217481
  0
LWPOLYLINE
  5
1B5
330
17
100
AcDbEntity
  8
ROADS
100
AcDbPolyline
 90
2
 70
0
 10
622379.9693626945
 20
4838816.742731416
 10
622374.7374610039
 20
4838841.325269718
  0
LWPOLYLINE
  5
1B6
330
17
100
AcDbEntity
  8
ROADS
100
AcDbPolyline
 90
4
 70
0
 10
622728.3915451757
 20
4838533.822218161
 10
622541.2925832823
 20
4838449.723061984
 10
622415.7683415904
 20
4838428.227678434
 10
622269.3917993776
 20
4838379.8263820615
  0
LWPOLYLINE
  5
1B7
330
17
100
AcDbEntity
  8
ROADS
100
AcDbPolyline
 90
2
 70
0
 10
622753.9806913618
 20
4838449.181920729
 10
622728.3915451757
 20
4838533.822218161
  0
LWPOLYLINE
  5
1B8
330
17
100
AcDbEntity
  8
ROADS
100
AcDbPolyline
 90
2
 70
0
 10
622827.566568413
 20
4838520.875383569
 10
622766.0131554117
 20
4838500.662067765
  0
LWPOLYLINE
  5
1B9
330
17
100
AcDbEntity
  8
ROADS
100
AcDbPolyline
 90
2
 70
0
 10
622827.566568413
 20
4838520.875383569
 10
622813.2356485844
 20
4838562.574221765
  0
LWPOLYLINE
  5
1BA
330
17
100
AcDbEntity
  8
ROADS
100
AcDbPolyline
 90
2
 70
0
 10
622813.2356485844
 20
4838562.574221765
 10
622728.3915451757
 20
4838533.822218161
  0
LWPOLYLINE
  5
1BB
330
17
100
AcDbEntity
  8
ROADS
100
AcDbPolyline
 90
2
 70
0
 10
622912.7918171226
 20
4838539.614791992
 10
622895.6162799505
 20
4838590.959663703
  0
LWPOLYLINE
  5
1BC
330
17
100
AcDbEntity
  8
ROADS
100
AcDbPolyline
 90
2
 70
0
 10
622895.6162799505
 20
4838590.959663703
 10
622813.2356485844
 20
4838562.574221765
  0
LWPOLYLINE
  5
1BD
330
17
100
AcDbEntity
  8
ROADS
100
AcDbPolyline
 90
4
 70
0
 10
622728.3915451757
 20
4838533.822218161
 10
622714.4332412652
 20
4838556.966878977
 10
622664.4241722082
 20
4838570.6580153
 10
622632.6533731113
 20
4838672.068283353
  0
LWPOLYLINE
  5
1BE
330
17
100
AcDbEntity
  8
ROADS
100
AcDbPolyline
 90
2
 70
0
 10
622895.6162799505
 20
4838590.959663703
 10
622865.6259831913
 20
4838666.747945029
  0
LWPOLYLINE
  5
1BF
330
17
100
AcDbEntity
  8
ROADS
100
AcDbPolyline
 90
3
 70
0
 10
622632.6533731113
 20
4838672.068283353
 10
622524.5721342365
 20
4838702.918834555
 10
622509.3256531938
 20
4838733.588536222
  0
LWPOLYLINE
  5
1C0
330
17
100
AcDbEntity
  8
ROADS
100
AcDbPolyline
 90
2
 70
0
 10
622940.6526860103
 20
4837418.306358025
 10
622900.1351314231
 20
4837404.180947542
  0
LWPOLYLINE
  5
1C1
330
17
100
AcDbEntity
  8
ROADS
100
AcDbPolyline
 90
2
 70
0
 10
623017.1501514147
 20
4837680.37472224
 10
622930.383482048
 20
4837666.40588644
  0
LWPOLYLINE
  5
1C2
330
17
100
AcDbEntity
  8
ROADS
100
AcDbPolyline
 90
2
 70
0
 10
623178.4979802062
 20
4837702.596976027
 10
623017.1501514147
 20
4837680.37472224
  0
LWPOLYLINE
  5
1C3
330
17
100
AcDbEntity
  8
ROADS
100
AcDbPolyline
 90
2
 70
0
 10
623017.1501514147
 20
4837680.37472224
 10
622998.9404383737
 20
4837734.277075359
  0
LWPOLYLINE
  5
1C4
330
17
100
AcDbEntity
  8
ROADS
100
AcDbPolyline
 90
2
 70
0
 10
623184.1491334875
 20
4837724.971299791
 10
623161.3458951279
 20
4837791.209997548
  0
LWPOLYLINE
  5
1C5
330
17
100
AcDbEntity
  8
ROADS
100
AcDbPolyline
 90
2
 70
0
 10
623161.3458951279
 20
4837791.209997548
 10
622998.9404383737
 20
4837734.277075359
  0
LWPOLYLINE
  5
1C6
330
17
100
AcDbEntity
  8
ROADS
100
AcDbPolyline
 90
2
 70
0
 10
622998.9404383737
 20
4837734.277075359
 10
622969.6828178336
 20
4837819.993194568
  0
LWPOLYLINE
  5
1C7
330
17
100
AcDbEntity
  8
ROADS
100
AcDbPolyline
 90
2
 70
0
 10
623194.2189877053
 20
4837839.788941759
 10
623201.5050948855
 20
4837818.486573107
  0
LWPOLYLINE
  5
1C8
330
17
100
AcDbEntity
  8
ROADS
100
AcDbPolyline
 90
2
 70
0
 10
622969.6828178336
 20
4837819.993194568
 10
622908.7027515671
 20
4837795.445655221
  0
LWPOLYLINE
  5
1C9
330
17
100
AcDbEntity
  8
ROADS
100
AcDbPolyline
 90
2
 70
0
 10
623161.3458951279
 20
4837791.209997548
 10
623151.1377907424
 20
4837826.244135348
  0
LWPOLYLINE
  5
1CA
330
17
100
AcDbEntity
  8
ROADS
100
AcDbPolyline
 90
2
 70
0
 10
623194.2189877053
 20
4837839.788941759
 10
623151.1377907424
 20
4837826.244135348
  0
LWPOLYLINE
  5
1CB
330
17
100
AcDbEntity
  8
ROADS
100
AcDbPolyline
 90
2
 70
0
 10
623081.637421597
 20
4837862.788033555
 10
623099.1258464591
 20
4837810.725720859
  0
LWPOLYLINE
  5
1CC
330
17
100
AcDbEntity
  8
ROADS
100
AcDbPolyline
 90
2
 70
0
 10
623081.637421597
 20
4837862.788033555
 10
622969.6828178336
 20
4837819.993194568
  0
LWPOLYLINE
  5
1CD
330
17
100
AcDbEntity
  8
ROADS
100
AcDbPolyline
 90
2
 70
0
 10
623205.2836911978
 20
4837843.268306406
 10
623194.2189877053
 20
4837839.788941759
  0
LWPOLYLINE
  5
1CE
330
17
100
AcDbEntity
  8
ROADS
100
AcDbPolyline
 90
2
 70
0
 10
623151.1377907424
 20
4837826.244135348
 10
623132.7432426062
 20
4837881.462225499
  0
LWPOLYLINE
  5
1CF
330
17
100
AcDbEntity
  8
ROADS
100
AcDbPolyline
 90
2
 70
0
 10
623132.7432426062
 20
4837881.462225499
 10
623081.637421597
 20
4837862.788033555
  0
LWPOLYLINE
  5
1D0
330
17
100
AcDbEntity
  8
ROADS
100
AcDbPolyline
 90
2
 70
0
 10
623194.2189877053
 20
4837839.788941759
 10
623166.5182588634
 20
4837925.568262504
  0
LWPOLYLINE
  5
1D1
330
17
100
AcDbEntity
  8
ROADS
100
AcDbPolyline
 90
2
 70
0
 10
622969.6828178336
 20
4837819.993194568
 10
622916.8734083486
 20
4837966.952376112
  0
LWPOLYLINE
  5
1D2
330
17
100
AcDbEntity
  8
ROADS
100
AcDbPolyline
 90
2
 70
0
 10
623132.7432426062
 20
4837881.462225499
 10
623122.8190721822
 20
4837911.966266674
  0
LWPOLYLINE
  5
1D3
330
17
100
AcDbEntity
  8
ROADS
100
AcDbPolyline
 90
2
 70
0
 10
623166.5182588634
 20
4837925.568262504
 10
623122.8190721822
 20
4837911.966266674
  0
LWPOLYLINE
  5
1D4
330
17
100
AcDbEntity
  8
ROADS
100
AcDbPolyline
 90
2
 70
0
 10
623211.4312792799
 20
4837941.120099102
 10
623166.5182588634
 20
4837925.568262504
  0
LWPOLYLINE
  5
1D5
330
17
100
AcDbEntity
  8
ROADS
100
AcDbPolyline
 90
2
 70
0
 10
623122.8190721822
 20
4837911.966266674
 10
623087.7556744514
 20
4838011.087069654
  0
LWPOLYLINE
  5
1D6
330
17
100
AcDbEntity
  8
ROADS
100
AcDbPolyline
 90
2
 70
0
 10
623166.5182588634
 20
4837925.568262504
 10
623132.2537387469
 20
4838026.024592063
  0
LWPOLYLINE
  5
1D7
330
17
100
AcDbEntity
  8
ROADS
100
AcDbPolyline
 90
2
 70
0
 10
623132.2537387469
 20
4838026.024592063
 10
623087.7556744514
 20
4838011.087069654
  0
LWPOLYLINE
  5
1D8
330
17
100
AcDbEntity
  8
ROADS
100
AcDbPolyline
 90
2
 70
0
 10
623087.7556744514
 20
4838011.087069654
 10
623068.1584517625
 20
4838069.157530329
  0
LWPOLYLINE
  5
1D9
330
17
100
AcDbEntity
  8
ROADS
100
AcDbPolyline
 90
2
 70
0
 10
623206.6807593697
 20
4838051.007358705
 10
623132.2537387469
 20
4838026.024592063
  0
LWPOLYLINE
  5
1DA
330
17
100
AcDbEntity
  8
ROADS
100
AcDbPolyline
 90
2
 70
0
 10
623068.1584517625
 20
4838069.157530329
 10
622966.2235931318
 20
4838035.197274771
  0
LWPOLYLINE
  5
1DB
330
17
100
AcDbEntity
  8
ROADS
100
AcDbPolyline
 90
2
 70
0
 10
623132.2537387469
 20
4838026.024592063
 10
623098.460669062
 20
4838126.953451802
  0
LWPOLYLINE
  5
1DC
330
17
100
AcDbEntity
  8
ROADS
100
AcDbPolyline
 90
2
 70
0
 10
623053.5497881263
 20
4838112.447472661
 10
622886.5773898917
 20
4838058.213947737
  0
LWPOLYLINE
  5
1DD
330
17
100
AcDbEntity
  8
ROADS
100
AcDbPolyline
 90
2
 70
0
 10
623068.1584517625
 20
4838069.157530329
 10
623053.5497881263
 20
4838112.447472661
  0
LWPOLYLINE
  5
1DE
330
17
100
AcDbEntity
  8
ROADS
100
AcDbPolyline
 90
2
 70
0
 10
623098.460669062
 20
4838126.953451802
 10
623053.5497881263
 20
4838112.447472661
  0
LWPOLYLINE
  5
1DF
330
17
100
AcDbEntity
  8
ROADS
100
AcDbPolyline
 90
2
 70
0
 10
623053.5497881263
 20
4838112.447472661
 10
623038.9712290548
 20
4838157.556046123
  0
LWPOLYLINE
  5
1E0
330
17
100
AcDbEntity
  8
ROADS
100
AcDbPolyline
 90
2
 70
0
 10
623038.9712290548
 20
4838157.556046123
 10
622936.938231815
 20
4838123.382980949
  0
LWPOLYLINE
  5
1E1
330
17
100
AcDbEntity
  8
ROADS
100
AcDbPolyline
 90
2
 70
0
 10
623190.2647447065
 20
4838156.606899719
 10
623098.460669062
 20
4838126.953451802
  0
LWPOLYLINE
  5
1E2
330
17
100
AcDbEntity
  8
ROADS
100
AcDbPolyline
 90
2
 70
0
 10
623098.460669062
 20
4838126.953451802
 10
623065.8628841402
 20
4838227.591895551
  0
LWPOLYLINE
  5
1E3
330
17
100
AcDbEntity
  8
ROADS
100
AcDbPolyline
 90
2
 70
0
 10
623038.9712290548
 20
4838157.556046123
 10
623024.1288520787
 20
4838203.482884905
  0
LWPOLYLINE
  5
1E4
330
17
100
AcDbEntity
  8
ROADS
100
AcDbPolyline
 90
2
 70
0
 10
623024.1288520787
 20
4838203.482884905
 10
622942.3470799179
 20
4838174.329321316
  0
LWPOLYLINE
  5
1E5
330
17
100
AcDbEntity
  8
ROADS
100
AcDbPolyline
 90
2
 70
0
 10
623024.1288520787
 20
4838203.482884905
 10
623021.8373556873
 20
4838213.56694079
  0
LWPOLYLINE
  5
1E6
330
17
100
AcDbEntity
  8
ROADS
100
AcDbPolyline
 90
2
 70
0
 10
623065.8628841402
 20
4838227.591895551
 10
623021.8373556873
 20
4838213.56694079
  0
LWPOLYLINE
  5
1E7
330
17
100
AcDbEntity
  8
ROADS
100
AcDbPolyline
 90
2
 70
0
 10
623163.1872397624
 20
4838258.686141611
 10
623065.8628841402
 20
4838227.591895551
  0
LWPOLYLINE
  5
1E8
330
17
100
AcDbEntity
  8
ROADS
100
AcDbPolyline
 90
2
 70
0
 10
623021.8373556873
 20
4838213.56694079
 10
622991.9351881238
 20
4838300.023405389
  0
LWPOLYLINE
  5
1E9
330
17
100
AcDbEntity
  8
ROADS
100
AcDbPolyline
 90
2
 70
0
 10
623065.8628841402
 20
4838227.591895551
 10
623036.6222776059
 20
4838314.516358963
  0
LWPOLYLINE
  5
1EA
330
17
100
AcDbEntity
  8
ROADS
100
AcDbPolyline
 90
2
 70
0
 10
623036.6222776059
 20
4838314.516358963
 10
622991.9351881238
 20
4838300.023405389
  0
LWPOLYLINE
  5
1EB
330
17
100
AcDbEntity
  8
ROADS
100
AcDbPolyline
 90
2
 70
0
 10
623036.6222776059
 20
4838314.516358963
 10
623023.2358071863
 20
4838355.309268577
  0
LWPOLYLINE
  5
1EC
330
17
100
AcDbEntity
  8
ROADS
100
AcDbPolyline
 90
2
 70
0
 10
623131.0869389846
 20
4838345.192209207
 10
623036.6222776059
 20
4838314.516358963
  0
LWPOLYLINE
  5
1ED
330
17
100
AcDbEntity
  8
ROADS
100
AcDbPolyline
 90
2
 70
0
 10
622991.9351881238
 20
4838300.023405389
 10
622962.5968322118
 20
4838390.41624717
  0
LWPOLYLINE
  5
1EE
330
17
100
AcDbEntity
  8
ROADS
100
AcDbPolyline
 90
2
 70
0
 10
622962.5968322118
 20
4838390.41624717
 10
622955.6848707282
 20
4838409.13815757
  0
LWPOLYLINE
  5
1EF
330
17
100
AcDbEntity
  8
ROADS
100
AcDbPolyline
 90
2
 70
0
 10
623089.6341017286
 20
4838431.023230094
 10
622962.5968322118
 20
4838390.41624717
  0
LWPOLYLINE
  5
1F0
330
17
100
AcDbEntity
  8
ROADS
100
AcDbPolyline
 90
2
 70
0
 10
622955.6848707282
 20
4838409.13815757
 10
622930.2444099954
 20
4838487.437885201
  0
LWPOLYLINE
  5
1F1
330
17
100
AcDbEntity
  8
ROADS
100
AcDbPolyline
 90
2
 70
0
 10
623034.4609332043
 20
4838520.584720262
 10
622930.2444099954
 20
4838487.437885201
  0
LWPOLYLINE
  5
1F2
330
17
100
AcDbEntity
  8
ROADS
100
AcDbPolyline
 90
2
 70
0
 10
622930.2444099954
 20
4838487.437885201
 10
622912.7918171226
 20
4838539.614791992
  0
LWPOLYLINE
  5
1F3
330
17
100
AcDbEntity
  8
ROADS
100
AcDbPolyline
 90
2
 70
0
 10
623000.7038443454
 20
4838568.130022077
 10
622912.7918171226
 20
4838539.614791992
  0
LWPOLYLINE
  5
1F4
330
17
100
AcDbEntity
  8
ROADS
100
AcDbPolyline
 90
2
 70
0
 10
622963.7070136389
 20
4838613.18918223
 10
622895.6162799505
 20
4838590.959663703
  0
LWPOLYLINE
  5
1F5
330
17
100
AcDbEntity
  8
ROADS
100
AcDbPolyline
 90
4
 70
0
 10
620601.9176821818
 20
4838539.510330654
 10
620568.5252696124
 20
4838688.6456658915
 10
620628.2654556055
 20
4838705.388946402
 10
620656.5462517628
 20
4838579.248109971
  0
LWPOLYLINE
  5
1F6
330
17
100
AcDbEntity
  8
ROADS
100
AcDbPolyline
 90
2
 70
0
 10
620767.3886922006
 20
4838670.376881982
 10
620656.5462517628
 20
4838579.248109971
  0
LWPOLYLINE
  5
1F7
330
17
100
AcDbEntity
  8
ROADS
100
AcDbPolyline
 90
2
 70
0
 10
620780.7140023061
 20
4838602.167974968
 10
620767.3886922006
 20
4838670.376881982
  0
LWPOLYLINE
  5
1F8
330
17
100
AcDbEntity
  8
ROADS
100
AcDbPolyline
 90
2
 70
0
 10
620776.0268805982
 20
4838678.016455492
 10
620767.3886922006
 20
4838670.376881982
  0
LWPOLYLINE
  5
1F9
330
17
100
AcDbEntity
  8
ROADS
100
AcDbPolyline
 90
2
 70
0
 10
620811.782006924
 20
4838679.200236473
 10
620807.6430849204
 20
4838696.988138663
  0
LWPOLYLINE
  5
1FA
330
17
100
AcDbEntity
  8
ROADS
100
AcDbPolyline
 90
3
 70
0
 10
620658.2987127951
 20
4838759.680497306
 10
620624.3862570712
 20
4838722.363501808
 10
620423.3564285939
 20
4838666.59895628
  0
LWPOLYLINE
  5
1FB
330
17
100
AcDbEntity
  8
ROADS
100
AcDbPolyline
 90
2
 70
0
 10
620811.782006924
 20
4838679.200236473
 10
620658.2987127951
 20
4838759.680497306
  0
LWPOLYLINE
  5
1FC
330
17
100
AcDbEntity
  8
ROADS
100
AcDbPolyline
 90
2
 70
0
 10
620807.6430849204
 20
4838696.988138663
 10
620794.8875923654
 20
4838762.6642456325
  0
LWPOLYLINE
  5
1FD
330
17
100
AcDbEntity
  8
ROADS
100
AcDbPolyline
 90
2
 70
0
 10
620658.2987127951
 20
4838759.680497306
 10
620502.4073920465
 20
4838893.453373848
  0
LWPOLYLINE
  5
1FE
330
17
100
AcDbEntity
  8
ROADS
100
AcDbPolyline
 90
2
 70
0
 10
620502.4073920465
 20
4838893.453373848
 10
620495.638255685
 20
4838890.971526074
  0
LWPOLYLINE
  5
1FF
330
17
100
AcDbEntity
  8
ROADS
100
AcDbPolyline
 90
2
 70
0
 10
620423.3564285939
 20
4838666.59895628
 10
620408.8327806069
 20
4838687.883328701
  0
LWPOLYLINE
  5
200
330
17
100
AcDbEntity
  8
ROADS
100
AcDbPolyline
 90
3
 70
0
 10
620452.7576327085
 20
4838801.2951931525
 10
620462.5737340272
 20
4838771.328711454
 10
620431.1563519964
 20
4838750.775578043
  0
LWPOLYLINE
  5
201
330
17
100
AcDbEntity
  8
ROADS
100
AcDbPolyline
 90
2
 70
0
 10
621665.9336878444
 20
4838193.281746604
 10
621503.7025878009
 20
4838280.349518497
  0
LWPOLYLINE
  5
202
330
17
100
AcDbEntity
  8
ROADS
100
AcDbPolyline
 90
2
 70
0
 10
621932.9778111584
 20
4838273.074277423
 10
621735.8706729347
 20
4838217.344747544
  0
LWPOLYLINE
  5
203
330
17
100
AcDbEntity
  8
ROADS
100
AcDbPolyline
 90
2
 70
0
 10
621711.5643894764
 20
4838230.789750744
 10
621625.1220476748
 20
4838275.707364312
  0
LWPOLYLINE
  5
204
330
17
100
AcDbEntity
  8
ROADS
100
AcDbPolyline
 90
2
 70
0
 10
622002.0031466305
 20
4838293.358648515
 10
621932.9778111584
 20
4838273.074277423
  0
LWPOLYLINE
  5
205
330
17
100
AcDbEntity
  8
ROADS
100
AcDbPolyline
 90
2
 70
0
 10
621711.5643894764
 20
4838230.789750744
 10
621764.7790963536
 20
4838346.164506368
  0
LWPOLYLINE
  5
206
330
17
100
AcDbEntity
  8
ROADS
100
AcDbPolyline
 90
2
 70
0
 10
621625.1220476748
 20
4838275.707364312
 10
621535.1429056847
 20
4838315.021732295
  0
LWPOLYLINE
  5
207
330
17
100
AcDbEntity
  8
ROADS
100
AcDbPolyline
 90
2
 70
0
 10
621625.1220476748
 20
4838275.707364312
 10
621682.3428963915
 20
4838400.702995592
  0
LWPOLYLINE
  5
208
330
17
100
AcDbEntity
  8
ROADS
100
AcDbPolyline
 90
3
 70
0
 10
622002.0031466305
 20
4838293.358648515
 10
621982.01567993
 20
4838366.038526603
 10
622020.474086671
 20
4838443.021706437
  0
LWPOLYLINE
  5
209
330
17
100
AcDbEntity
  8
ROADS
100
AcDbPolyline
 90
2
 70
0
 10
621737.6970969926
 20
4838744.938954719
 10
621598.4394284044
 20
4838820.586510792
  0
LWPOLYLINE
  5
20A
330
17
100
AcDbEntity
  8
ROADS
100
AcDbPolyline
 90
5
 70
0
 10
621988.5488259591
 20
4838928.69789536
 10
621931.1985744872
 20
4838819.930470351
 10
621888.1960739266
 20
4838775.564582625
 10
621823.0371113875
 20
4838744.8785737585
 10
621737.6970969926
 20
4838744.938954719
  0
LWPOLYLINE
  5
20B
330
17
100
AcDbEntity
  8
ROADS
100
AcDbPolyline
 90
2
 70
0
 10
622892.3417098924
 20
4838693.564643363
 10
622865.6259831913
 20
4838666.747945029
  0
LWPOLYLINE
  5
20C
330
17
100
AcDbEntity
  8
ROADS
100
AcDbPolyline
 90
2
 70
0
 10
622509.3256531938
 20
4838733.588536222
 10
622490.8952089786
 20
4838752.527079916
  0
LWPOLYLINE
  5
20D
330
17
100
AcDbEntity
  8
ROADS
100
AcDbPolyline
 90
2
 70
0
 10
622509.3256531938
 20
4838733.588536222
 10
622501.2841640835
 20
4838761.900445066
  0
LWPOLYLINE
  5
20E
330
17
100
AcDbEntity
  8
ROADS
100
AcDbPolyline
 90
3
 70
0
 10
622865.6259831913
 20
4838666.747945029
 10
622825.5427452724
 20
4838726.858884336
 10
622711.4016150384
 20
4838835.24860478
  0
LWPOLYLINE
  5
20F
330
17
100
AcDbEntity
  8
ROADS
100
AcDbPolyline
 90
4
 70
0
 10
622632.6533731113
 20
4838672.068283353
 10
622596.3233813867
 20
4838783.371545015
 10
622611.3154223905
 20
4838803.03567305
 10
622711.4016150384
 20
4838835.24860478
  0
LWPOLYLINE
  5
210
330
17
100
AcDbEntity
  8
ROADS
100
AcDbPolyline
 90
2
 70
0
 10
622501.2841640835
 20
4838761.900445066
 10
622490.8952089786
 20
4838752.527079916
  0
LWPOLYLINE
  5
211
330
17
100
AcDbEntity
  8
ROADS
100
AcDbPolyline
 90
2
 70
0
 10
622490.8952089786
 20
4838752.527079916
 10
622440.9510991697
 20
4838783.692190052
  0
LWPOLYLINE
  5
212
330
17
100
AcDbEntity
  8
ROADS
100
AcDbPolyline
 90
2
 70
0
 10
622501.2841640835
 20
4838761.900445066
 10
622494.1713993244
 20
4838783.816843822
  0
LWPOLYLINE
  5
213
330
17
100
AcDbEntity
  8
ROADS
100
AcDbPolyline
 90
2
 70
0
 10
622494.1713993244
 20
4838783.816843822
 10
622440.9510991697
 20
4838783.692190052
  0
LWPOLYLINE
  5
214
330
17
100
AcDbEntity
  8
ROADS
100
AcDbPolyline
 90
2
 70
0
 10
622494.1713993244
 20
4838783.816843822
 10
622464.4957335946
 20
4838872.838843941
  0
LWPOLYLINE
  5
215
330
17
100
AcDbEntity
  8
ROADS
100
AcDbPolyline
 90
2
 70
0
 10
622714.8219322657
 20
4838836.2872686945
 10
622711.4016150384
 20
4838835.24860478
  0
LWPOLYLINE
  5
216
330
17
100
AcDbEntity
  8
ROADS
100
AcDbPolyline
 90
4
 70
0
 10
622629.1645087285
 20
4838888.407233612
 10
622586.1728566821
 20
4838841.4227499645
 10
622492.0948689629
 20
4838826.631342107
 10
622475.2625977949
 20
4838876.634279936
  0
LWPOLYLINE
  5
217
330
17
100
AcDbEntity
  8
ROADS
100
AcDbPolyline
 90
2
 70
0
 10
622711.4016150384
 20
4838835.24860478
 10
622699.7176223116
 20
4838846.161073142
  0
LWPOLYLINE
  5
218
330
17
100
AcDbEntity
  8
ROADS
100
AcDbPolyline
 90
2
 70
0
 10
622475.2625977949
 20
4838876.634279936
 10
622464.4957335946
 20
4838872.838843941
  0
LWPOLYLINE
  5
219
330
17
100
AcDbEntity
  8
ROADS
100
AcDbPolyline
 90
2
 70
0
 10
622578.5884912485
 20
4838915.528736462
 10
622475.2625977949
 20
4838876.634279936
  0
LWPOLYLINE
  5
21A
330
17
100
AcDbEntity
  8
ROADS
100
AcDbPolyline
 90
2
 70
0
 10
622374.7374610039
 20
4838841.325269718
 10
622349.7597579688
 20
4838836.046217481
  0
LWPOLYLINE
  5
21B
330
17
100
AcDbEntity
  8
ROADS
100
AcDbPolyline
 90
2
 70
0
 10
622464.4957335946
 20
4838872.838843941
 10
622374.7374610039
 20
4838841.325269718
  0
LWPOLYLINE
  5
21C
330
17
100
AcDbEntity
  8
ROADS
100
AcDbPolyline
 90
2
 70
0
 10
622184.0283816478
 20
4838678.290003954
 10
621996.5684870448
 20
4839068.493475276
  0
LWPOLYLINE
  5
21D
330
17
100
AcDbEntity
  8
ROADS
100
AcDbPolyline
 90
3
 70
0
 10
622349.7597579688
 20
4838836.046217481
 10
622308.4710462084
 20
4838855.271295205
 10
622226.8402417526
 20
4838941.068798402
  0
LWPOLYLINE
  5
21E
330
17
100
AcDbEntity
  8
ROADS
100
AcDbPolyline
 90
2
 70
0
 10
622226.8402417526
 20
4838941.068798402
 10
622169.2003923997
 20
4838949.589583651
  0
LWPOLYLINE
  5
21F
330
17
100
AcDbEntity
  8
ROADS
100
AcDbPolyline
 90
2
 70
0
 10
622312.6246448264
 20
4838976.100171994
 10
622226.8402417526
 20
4838941.068798402
  0
LWPOLYLINE
  5
220
330
17
100
AcDbEntity
  8
ROADS
100
AcDbPolyline
 90
3
 70
0
 10
622476.4278436119
 20
4838989.046741082
 10
622455.8663893401
 20
4838993.354036429
 10
622312.6246448264
 20
4838976.100171994
  0
LWPOLYLINE
  5
221
330
17
100
AcDbEntity
  8
ROADS
100
AcDbPolyline
 90
2
 70
0
 10
622169.2003923997
 20
4838949.589583651
 10
621996.5684870448
 20
4839068.493475276
  0
LWPOLYLINE
  5
222
330
17
100
AcDbEntity
  8
ROADS
100
AcDbPolyline
 90
3
 70
0
 10
622381.5692949631
 20
4839070.60853681
 10
622334.9235466167
 20
4839058.978474014
 10
622312.6246448264
 20
4838976.100171994
  0
LWPOLYLINE
  5
223
330
17
100
AcDbEntity
  8
ROADS
100
AcDbPolyline
 90
3
 70
0
 10
622259.3459171533
 20
4839147.370915556
 10
622231.5141814693
 20
4839115.336588563
 10
622169.2003923997
 20
4838949.589583651
  0
LWPOLYLINE
  5
224
330
17
100
AcDbEntity
  8
ROADS
100
AcDbPolyline
 90
2
 70
0
 10
620807.6430849204
 20
4838696.988138663
 10
621018.6317682092
 20
4838765.6234598905
  0
LWPOLYLINE
  5
225
330
17
100
AcDbEntity
  8
ROADS
100
AcDbPolyline
 90
3
 70
0
 10
621018.6317682092
 20
4838765.6234598905
 10
621089.0618118756
 20
4838787.85037456
 10
621162.7296350977
 20
4838740.051773832
  0
LWPOLYLINE
  5
226
330
17
100
AcDbEntity
  8
ROADS
100
AcDbPolyline
 90
2
 70
0
 10
620794.8875923654
 20
4838762.6642456325
 10
620998.5431737797
 20
4838828.466839614
  0
LWPOLYLINE
  5
227
330
17
100
AcDbEntity
  8
ROADS
100
AcDbPolyline
 90
2
 70
0
 10
621018.6317682092
 20
4838765.6234598905
 10
620998.5431737797
 20
4838828.466839614
  0
LWPOLYLINE
  5
228
330
17
100
AcDbEntity
  8
ROADS
100
AcDbPolyline
 90
2
 70
0
 10
620998.5431737797
 20
4838828.466839614
 10
621021.3193024296
 20
4838835.97814688
  0
LWPOLYLINE
  5
229
330
17
100
AcDbEntity
  8
ROADS
100
AcDbPolyline
 90
2
 70
0
 10
621011.5427343338
 20
4838932.788534972
 10
620957.2362909791
 20
4838968.284757586
  0
LWPOLYLINE
  5
22A
330
17
100
AcDbEntity
  8
ROADS
100
AcDbPolyline
 90
2
 70
0
 10
620957.2362909791
 20
4838968.284757586
 10
620902.8408020732
 20
4839004.336382022
  0
LWPOLYLINE
  5
22B
330
17
100
AcDbEntity
  8
ROADS
100
AcDbPolyline
 90
3
 70
0
 10
621192.5065956807
 20
4839088.083767245
 10
621072.5404588006
 20
4838903.98262878
 10
621011.5427343338
 20
4838932.788534972
  0
LWPOLYLINE
  5
22C
330
17
100
AcDbEntity
  8
ROADS
100
AcDbPolyline
 90
2
 70
0
 10
620902.8408020732
 20
4839004.336382022
 10
620848.2286842752
 20
4839040.533082385
  0
LWPOLYLINE
  5
22D
330
17
100
AcDbEntity
  8
ROADS
100
AcDbPolyline
 90
2
 70
0
 10
621011.5427343338
 20
4838932.788534972
 10
621137.8589969147
 20
4839124.6908624675
  0
LWPOLYLINE
  5
22E
330
17
100
AcDbEntity
  8
ROADS
100
AcDbPolyline
 90
2
 70
0
 10
621448.7648785475
 20
4838588.539740973
 10
621598.4394284044
 20
4838820.586510792
  0
LWPOLYLINE
  5
22F
330
17
100
AcDbEntity
  8
ROADS
100
AcDbPolyline
 90
2
 70
0
 10
621162.7296350977
 20
4838740.051773832
 10
621236.5485335384
 20
4838688.5457202345
  0
LWPOLYLINE
  5
230
330
17
100
AcDbEntity
  8
ROADS
100
AcDbPolyline
 90
2
 70
0
 10
621598.4394284044
 20
4838820.586510792
 10
621230.054517271
 20
4839062.307826909
  0
LWPOLYLINE
  5
231
330
17
100
AcDbEntity
  8
ROADS
100
AcDbPolyline
 90
2
 70
0
 10
621192.5065956807
 20
4839088.083767245
 10
621137.8589969147
 20
4839124.6908624675
  0
LWPOLYLINE
  5
232
330
17
100
AcDbEntity
  8
ROADS
100
AcDbPolyline
 90
3
 70
0
 10
621271.039118266
 20
4839267.691325062
 10
621256.2602405609
 20
4839189.425505685
 10
621192.5065956807
 20
4839088.083767245
  0
LWPOLYLINE
  5
233
330
17
100
AcDbEntity
  8
ROADS
100
AcDbPolyline
 90
4
 70
0
 10
621137.8589969147
 20
4839124.6908624675
 10
621192.6551591712
 20
4839209.451823122
 10
621210.386351362
 20
4839269.0222066585
 10
621271.039118266
 20
4839267.691325062
  0
LWPOLYLINE
  5
234
330
17
100
AcDbEntity
  8
ROADS
100
AcDbPolyline
 90
3
 70
0
 10
621271.039118266
 20
4839267.691325062
 10
621343.0652271212
 20
4839261.3949587075
 10
621357.7082159115
 20
4839284.096857954
  0
LWPOLYLINE
  5
235
330
17
100
AcDbEntity
  8
ROADS
100
AcDbPolyline
 90
3
 70
0
 10
621667.8053656525
 20
4839264.022450052
 10
621610.8610896121
 20
4839290.539565328
 10
621369.5301285861
 20
4839313.816541251
  0
LWPOLYLINE
  5
236
330
17
100
AcDbEntity
  8
ROADS
100
AcDbPolyline
 90
2
 70
0
 10
621369.5301285861
 20
4839313.816541251
 10
621271.921623974
 20
4839322.890744242
  0
LWPOLYLINE
  5
237
330
17
100
AcDbEntity
  8
ROADS
100
AcDbPolyline
 90
2
 70
0
 10
621271.921623974
 20
4839322.890744242
 10
621221.9662199558
 20
4839326.9917502925
  0
LWPOLYLINE
  5
238
330
17
100
AcDbEntity
  8
ROADS
100
AcDbPolyline
 90
2
 70
0
 10
620794.8875923654
 20
4838762.6642456325
 10
620742.977453019
 20
4839048.1455368735
  0
LWPOLYLINE
  5
239
330
17
100
AcDbEntity
  8
ROADS
100
AcDbPolyline
 90
2
 70
0
 10
620502.4073920465
 20
4838893.453373848
 10
620498.8651221093
 20
4838897.345508148
  0
LWPOLYLINE
  5
23A
330
17
100
AcDbEntity
  8
ROADS
100
AcDbPolyline
 90
2
 70
0
 10
620742.977453019
 20
4839048.1455368735
 10
620717.6552462624
 20
4839178.276616541
  0
LWPOLYLINE
  5
23B
330
17
100
AcDbEntity
  8
ROADS
100
AcDbPolyline
 90
2
 70
0
 10
620790.897355563
 20
4839124.222627165
 10
620772.9814267226
 20
4839225.331148106
  0
LWPOLYLINE
  5
23C
330
17
100
AcDbEntity
  8
ROADS
100
AcDbPolyline
 90
2
 70
0
 10
620957.2362909791
 20
4838968.284757586
 10
621083.0139814703
 20
4839161.044363476
  0
LWPOLYLINE
  5
23D
330
17
100
AcDbEntity
  8
ROADS
100
AcDbPolyline
 90
3
 70
0
 10
620848.2286842752
 20
4839040.533082385
 10
620803.5874768052
 20
4839072.888968691
 10
620790.897355563
 20
4839124.222627165
  0
LWPOLYLINE
  5
23E
330
17
100
AcDbEntity
  8
ROADS
100
AcDbPolyline
 90
3
 70
0
 10
620902.8408020732
 20
4839004.336382022
 10
621019.8799230129
 20
4839182.0122369565
 10
621030.9112795191
 20
4839252.640876268
  0
LWPOLYLINE
  5
23F
330
17
100
AcDbEntity
  8
ROADS
100
AcDbPolyline
 90
2
 70
0
 10
621137.8589969147
 20
4839124.6908624675
 10
621083.0139814703
 20
4839161.044363476
  0
LWPOLYLINE
  5
240
330
17
100
AcDbEntity
  8
ROADS
100
AcDbPolyline
 90
3
 70
0
 10
620848.2286842752
 20
4839040.533082385
 10
620933.9278923088
 20
4839173.017038645
 10
620942.4656572314
 20
4839256.525112154
  0
LWPOLYLINE
  5
241
330
17
100
AcDbEntity
  8
ROADS
100
AcDbPolyline
 90
2
 70
0
 10
621083.0139814703
 20
4839161.044363476
 10
621133.2225872356
 20
4839240.351089953
  0
LWPOLYLINE
  5
242
330
17
100
AcDbEntity
  8
ROADS
100
AcDbPolyline
 90
4
 70
0
 10
620790.897355563
 20
4839124.222627165
 10
620827.7475330096
 20
4839136.683750706
 10
620865.2533652019
 20
4839186.591357109
 10
620880.3474666546
 20
4839296.4901323505
  0
LWPOLYLINE
  5
243
330
17
100
AcDbEntity
  8
ROADS
100
AcDbPolyline
 90
2
 70
0
 10
621133.2225872356
 20
4839240.351089953
 10
621030.9112795191
 20
4839252.640876268
  0
LWPOLYLINE
  5
244
330
17
100
AcDbEntity
  8
ROADS
100
AcDbPolyline
 90
2
 70
0
 10
621030.9112795191
 20
4839252.640876268
 10
620942.4656572314
 20
4839256.525112154
  0
LWPOLYLINE
  5
245
330
17
100
AcDbEntity
  8
ROADS
100
AcDbPolyline
 90
2
 70
0
 10
621030.9112795191
 20
4839252.640876268
 10
621005.7112920297
 20
4839274.27696742
  0
LWPOLYLINE
  5
246
330
17
100
AcDbEntity
  8
ROADS
100
AcDbPolyline
 90
2
 70
0
 10
620942.4656572314
 20
4839256.525112154
 10
620971.3599044647
 20
4839278.19573814
  0
LWPOLYLINE
  5
247
330
17
100
AcDbEntity
  8
ROADS
100
AcDbPolyline
 90
2
 70
0
 10
621030.9112795191
 20
4839252.640876268
 10
621033.9463388661
 20
4839289.268381932
  0
LWPOLYLINE
  5
248
330
17
100
AcDbEntity
  8
ROADS
100
AcDbPolyline
 90
2
 70
0
 10
620971.3599044647
 20
4839278.19573814
 10
621005.7112920297
 20
4839274.27696742
  0
LWPOLYLINE
  5
249
330
17
100
AcDbEntity
  8
ROADS
100
AcDbPolyline
 90
2
 70
0
 10
620942.4656572314
 20
4839256.525112154
 10
620945.8390493365
 20
4839297.3639117675
  0
LWPOLYLINE
  5
24A
330
17
100
AcDbEntity
  8
ROADS
100
AcDbPolyline
 90
2
 70
0
 10
621005.7112920297
 20
4839274.27696742
 10
621012.857252708
 20
4839291.156972158
  0
LWPOLYLINE
  5
24B
330
17
100
AcDbEntity
  8
ROADS
100
AcDbPolyline
 90
2
 70
0
 10
621005.7112920297
 20
4839274.27696742
 10
620990.5332487626
 20
4839293.259232316
  0
LWPOLYLINE
  5
24C
330
17
100
AcDbEntity
  8
ROADS
100
AcDbPolyline
 90
2
 70
0
 10
620971.3599044647
 20
4839278.19573814
 10
620966.5794091279
 20
4839295.238003726
  0
LWPOLYLINE
  5
24D
330
17
100
AcDbEntity
  8
ROADS
100
AcDbPolyline
 90
2
 70
0
 10
621133.2225872356
 20
4839240.351089953
 10
621143.6488718863
 20
4839334.171832322
  0
LWPOLYLINE
  5
24E
330
17
100
AcDbEntity
  8
ROADS
100
AcDbPolyline
 90
2
 70
0
 10
621012.857252708
 20
4839291.156972158
 10
621033.9463388661
 20
4839289.268381932
  0
LWPOLYLINE
  5
24F
330
17
100
AcDbEntity
  8
ROADS
100
AcDbPolyline
 90
2
 70
0
 10
620966.5794091279
 20
4839295.238003726
 10
620990.5332487626
 20
4839293.259232316
  0
LWPOLYLINE
  5
250
330
17
100
AcDbEntity
  8
ROADS
100
AcDbPolyline
 90
2
 70
0
 10
620945.8390493365
 20
4839297.3639117675
 10
620966.5794091279
 20
4839295.238003726
  0
LWPOLYLINE
  5
251
330
17
100
AcDbEntity
  8
ROADS
100
AcDbPolyline
 90
2
 70
0
 10
621012.857252708
 20
4839291.156972158
 10
621009.3286885093
 20
4839306.9898337945
  0
LWPOLYLINE
  5
252
330
17
100
AcDbEntity
  8
ROADS
100
AcDbPolyline
 90
2
 70
0
 10
620990.5332487626
 20
4839293.259232316
 10
621009.3286885093
 20
4839306.9898337945
  0
LWPOLYLINE
  5
253
330
17
100
AcDbEntity
  8
ROADS
100
AcDbPolyline
 90
2
 70
0
 10
620891.041954057
 20
4839302.519309533
 10
620945.8390493365
 20
4839297.3639117675
  0
LWPOLYLINE
  5
254
330
17
100
AcDbEntity
  8
ROADS
100
AcDbPolyline
 90
2
 70
0
 10
621033.9463388661
 20
4839289.268381932
 10
621033.3703359888
 20
4839321.053353437
  0
LWPOLYLINE
  5
255
330
17
100
AcDbEntity
  8
ROADS
100
AcDbPolyline
 90
2
 70
0
 10
621009.3286885093
 20
4839306.9898337945
 10
621033.3703359888
 20
4839321.053353437
  0
LWPOLYLINE
  5
256
330
17
100
AcDbEntity
  8
ROADS
100
AcDbPolyline
 90
2
 70
0
 10
620990.5332487626
 20
4839293.259232316
 10
620959.5616685972
 20
4839338.229476802
  0
LWPOLYLINE
  5
257
330
17
100
AcDbEntity
  8
ROADS
100
AcDbPolyline
 90
2
 70
0
 10
620945.8390493365
 20
4839297.3639117675
 10
620948.8225009122
 20
4839333.495157906
  0
LWPOLYLINE
  5
258
330
17
100
AcDbEntity
  8
ROADS
100
AcDbPolyline
 90
2
 70
0
 10
621033.3703359888
 20
4839321.053353437
 10
621041.3787887774
 20
4839344.0442304555
  0
LWPOLYLINE
  5
259
330
17
100
AcDbEntity
  8
ROADS
100
AcDbPolyline
 90
2
 70
0
 10
621143.6488718863
 20
4839334.171832322
 10
621070.0519389096
 20
4839341.6178133115
  0
LWPOLYLINE
  5
25A
330
17
100
AcDbEntity
  8
ROADS
100
AcDbPolyline
 90
2
 70
0
 10
621070.0519389096
 20
4839341.6178133115
 10
621041.3787887774
 20
4839344.0442304555
  0
LWPOLYLINE
  5
25B
330
17
100
AcDbEntity
  8
ROADS
100
AcDbPolyline
 90
2
 70
0
 10
621041.3787887774
 20
4839344.0442304555
 10
621025.812274859
 20
4839345.361694151
  0
LWPOLYLINE
  5
25C
330
17
100
AcDbEntity
  8
ROADS
100
AcDbPolyline
 90
2
 70
0
 10
621025.812274859
 20
4839345.361694151
 10
620983.6938922765
 20
4839348.868070586
  0
LWPOLYLINE
  5
25D
330
17
100
AcDbEntity
  8
ROADS
100
AcDbPolyline
 90
3
 70
0
 10
621070.0519389096
 20
4839341.6178133115
 10
621037.8201957715
 20
4839370.658021743
 10
621025.812274859
 20
4839345.361694151
  0
LWPOLYLINE
  5
25E
330
17
100
AcDbEntity
  8
ROADS
100
AcDbPolyline
 90
2
 70
0
 10
621143.6488718863
 20
4839334.171832322
 10
621149.5103720735
 20
4839404.754702129
  0
LWPOLYLINE
  5
25F
330
17
100
AcDbEntity
  8
ROADS
100
AcDbPolyline
 90
2
 70
0
 10
621221.9662199558
 20
4839326.9917502925
 10
621143.6488718863
 20
4839334.171832322
  0
LWPOLYLINE
  5
260
330
17
100
AcDbEntity
  8
ROADS
100
AcDbPolyline
 90
4
 70
0
 10
621271.921623974
 20
4839322.890744242
 10
621268.9158204021
 20
4839352.115669952
 10
621226.243209284
 20
4839344.084377533
 10
621221.9662199558
 20
4839326.9917502925
  0
LWPOLYLINE
  5
261
330
17
100
AcDbEntity
  8
ROADS
100
AcDbPolyline
 90
2
 70
0
 10
621369.5301285861
 20
4839313.816541251
 10
621375.0220392797
 20
4839383.21149575
  0
LWPOLYLINE
  5
262
330
17
100
AcDbEntity
  8
ROADS
100
AcDbPolyline
 90
2
 70
0
 10
621375.0220392797
 20
4839383.21149575
 10
621366.4719863624
 20
4839432.282991529
  0
LWPOLYLINE
  5
263
330
17
100
AcDbEntity
  8
ROADS
100
AcDbPolyline
 90
2
 70
0
 10
621375.0220392797
 20
4839383.21149575
 10
621499.5970431098
 20
4839426.495093398
  0
LWPOLYLINE
  5
264
330
17
100
AcDbEntity
  8
ROADS
100
AcDbPolyline
 90
4
 70
0
 10
621737.6970969926
 20
4838744.938954719
 10
621740.213936343
 20
4838813.839637642
 10
621849.4646119091
 20
4838951.738142619
 10
621776.4966868944
 20
4839009.429912752
  0
LWPOLYLINE
  5
265
330
17
100
AcDbEntity
  8
ROADS
100
AcDbPolyline
 90
4
 70
0
 10
621988.5488259591
 20
4838928.69789536
 10
621873.5617696943
 20
4839049.0895269485
 10
621857.3068241212
 20
4839098.301768354
 10
621872.2177543701
 20
4839135.659219293
  0
LWPOLYLINE
  5
266
330
17
100
AcDbEntity
  8
ROADS
100
AcDbPolyline
 90
2
 70
0
 10
621996.5684870448
 20
4839068.493475276
 10
621872.2177543701
 20
4839135.659219293
  0
LWPOLYLINE
  5
267
330
17
100
AcDbEntity
  8
ROADS
100
AcDbPolyline
 90
2
 70
0
 10
621872.2177543701
 20
4839135.659219293
 10
621667.8053656525
 20
4839264.022450052
  0
LWPOLYLINE
  5
268
330
17
100
AcDbEntity
  8
ROADS
100
AcDbPolyline
 90
3
 70
0
 10
621667.8053656525
 20
4839264.022450052
 10
621759.5670632838
 20
4839349.790307782
 10
621759.4216499928
 20
4839359.145674684
  0
LWPOLYLINE
  5
269
330
17
100
AcDbEntity
  8
ROADS
100
AcDbPolyline
 90
2
 70
0
 10
621996.5684870448
 20
4839068.493475276
 10
621882.624658187
 20
4839309.221382129
  0
ENDSEC
  0
SECTION
  2
OBJECTS
  0
DICTIONARY
  5
A
330
0
100
AcDbDictionary
281
1
  3
ACAD_COLOR
350
B
  3
ACAD_GROUP
350
C
  3
ACAD_LAYOUT
350
D
  3
ACAD_MATERIAL
350
E
  3
ACAD_MLEADERSTYLE
350
F
  3
ACAD_MLINESTYLE
350
10
  3
ACAD_PLOTSETTINGS
350
11
  3
ACAD_PLOTSTYLENAME
350
12
  3
ACAD_SCALELIST
350
14
  3
ACAD_TABLESTYLE
350
15
  3
ACAD_VISUALSTYLE
350
16
  3
EZDXF_META
350
2D
  0
DICTIONARY
  5
B
330
A
100
AcDbDictionary
281
1
  0
DICTIONARY
  5
C
330
A
100
AcDbDictionary
281
1
  0
DICTIONARY
  5
D
330
A
100
AcDbDictionary
281
1
  3
Model
350
1A
  3
Layout1
350
1E
  0
DICTIONARY
  5
E
330
A
100
AcDbDictionary
281
1
  3
ByBlock
350
1F
  3
ByLayer
350
20
  3
Global
350
21
  0
DICTIONARY
  5
F
330
A
100
AcDbDictionary
281
1
  3
Standard
350
2C
  0
DICTIONARY
  5
10
330
A
100
AcDbDictionary
281
1
  3
Standard
350
22
  0
DICTIONARY
  5
11
330
A
100
AcDbDictionary
281
1
  0
ACDBDICTIONARYWDFLT
  5
12
330
A
100
AcDbDictionary
281
1
  3
Normal
350
13
100
AcDbDictionaryWithDefault
340
13
  0
ACDBPLACEHOLDER
  5
13
330
12
  0
DICTIONARY
  5
14
330
A
100
AcDbDictionary
281
1
  0
DICTIONARY
  5
15
330
A
100
AcDbDictionary
281
1
  0
DICTIONARY
  5
16
330
A
100
AcDbDictionary
281
1
  0
LAYOUT
  5
1A
330
D
100
AcDbPlotSettings
  1

  4
A3
  6

 40
7.5
 41
20.0
 42
7.5
 43
20.0
 44
420.0
 45
297.0
 46
0.0
 47
0.0
 48
0.0
 49
0.0
140
0.0
141
0.0
142
1.0
143
1.0
 70
1024
 72
1
 73
0
 74
5
  7

 75
16
 76
0
 77
2
 78
300
147
1.0
148
0.0
149
0.0
100
AcDbLayout
  1
Model
 70
1
 71
0
 10
0.0
 20
0.0
 11
420.0
 21
297.0
 12
0.0
 22
0.0
 32
0.0
 14
1e+20
 24
1e+20
 34
1e+20
 15
-1e+20
 25
-1e+20
 35
-1e+20
146
0.0
 13
0.0
 23
0.0
 33
0.0
 16
1.0
 26
0.0
 36
0.0
 17
0.0
 27
1.0
 37
0.0
 76
1
330
17
  0
LAYOUT
  5
1E
330
D
100
AcDbPlotSettings
  1

  4
A3
  6

 40
7.5
 41
20.0
 42
7.5
 43
20.0
 44
420.0
 45
297.0
 46
0.0
 47
0.0
 48
0.0
 49
0.0
140
0.0
141
0.0
142
1.0
143
1.0
 70
0
 72
1
 73
0
 74
5
  7

 75
16
 76
0
 77
2
 78
300
147
1.0
148
0.0
149
0.0
100
AcDbLayout
  1
Layout1
 70
1
 71
1
 10
0.0
 20
0.0
 11
420.0
 21
297.0
 12
0.0
 22
0.0
 32
0.0
 14
1e+20
 24
1e+20
 34
1e+20
 15
-1e+20
 25
-1e+20
 35
-1e+20
146
0.0
 13
0.0
 23
0.0
 33
0.0
 16
1.0
 26
0.0
 36
0.0
 17
0.0
 27
1.0
 37
0.0
 76
1
330
1B
  0
MATERIAL
  5
1F
102
{ACAD_REACTORS
330
E
102
}
330
E
100
AcDbMaterial
  1
ByBlock
  2

 70
0
 40
1.0
 71
1
 41
1.0
 91
-1023410177
 42
1.0
 72
1
  3

 73
1
 74
1
 75
1
 44
0.5
 73
0
 45
1.0
 46
1.0
 77
1
  4

 78
1
 79
1
170
1
 48
1.0
171
1
  6

172
1
173
1
174
1
140
1.0
141
1.0
175
1
  7

176
1
177
1
178
1
143
1.0
179
1
  8

270
1
271
1
272
1
145
1.0
146
1.0
273
1
  9

274
1
275
1
276
1
 42
1.0
 72
1
  3

 73
1
 74
1
 75
1
 94
63
  0
MATERIAL
  5
20
102
{ACAD_REACTORS
330
E
102
}
330
E
100
AcDbMaterial
  1
ByLayer
  2

 70
0
 40
1.0
 71
1
 41
1.0
 91
-1023410177
 42
1.0
 72
1
  3

 73
1
 74
1
 75
1
 44
0.5
 73
0
 45
1.0
 46
1.0
 77
1
  4

 78
1
 79
1
170
1
 48
1.0
171
1
  6

172
1
173
1
174
1
140
1.0
141
1.0
175
1
  7

176
1
177
1
178
1
143
1.0
179
1
  8

270
1
271
1
272
1
145
1.0
146
1.0
273
1
  9

274
1
275
1
276
1
 42
1.0
 72
1
  3

 73
1
 74
1
 75
1
 94
63
  0
MATERIAL
  5
21
102
{ACAD_REACTORS
330
E
102
}
330
E
100
AcDbMaterial
  1
Global
  2

 70
0
 40
1.0
 71
1
 41
1.0
 91
-1023410177
 42
1.0
 72
1
  3

 73
1
 74
1
 75
1
 44
0.5
 73
0
 45
1.0
 46
1.0
 77
1
  4

 78
1
 79
1
170
1
 48
1.0
171
1
  6

172
1
173
1
174
1
140
1.0
141
1.0
175
1
  7

176
1
177
1
178
1
143
1.0
179
1
  8

270
1
271
1
272
1
145
1.0
146
1.0
273
1
  9

274
1
275
1
276
1
 42
1.0
 72
1
  3

 73
1
 74
1
 75
1
 94
63
  0
MLINESTYLE
  5
22
102
{ACAD_REACTORS
330
10
102
}
330
10
100
AcDbMlineStyle
  2
Standard
 70
0
  3

 62
256
 51
90.0
 52
90.0
 71
2
 49
0.5
 62
256
  6
BYLAYER
 49
-0.5
 62
256
  6
BYLAYER
  0
MLEADERSTYLE
  5
2C
102
{ACAD_REACTORS
330
F
102
}
330
F
100
AcDbMLeaderStyle
179
2
170
2
171
1
172
0
 90
2
 40
0.0
 41
0.0
173
1
 91
-1056964608
 92
-2
290
1
 42
2.0
291
1
 43
8.0
  3
Standard
 44
4.0
300

342
29
174
1
175
1
176
0
178
1
 93
-1056964608
 45
4.0
292
0
297
0
 46
4.0
 94
-1056964608
 47
1.0
 49
1.0
140
1.0
294
1
141
0.0
177
0
142
1.0
295
0
296
0
143
3.75
271
0
272
9
273
9
  0
DICTIONARY
  5
2D
330
A
100
AcDbDictionary
280
1
281
1
  3
CREATED_BY_EZDXF
350
2E
  3
WRITTEN_BY_EZDXF
350
26C
  0
DICTIONARYVAR
  5
2E
330
2D
100
DictionaryVariables
280
0
  1
1.4.4 @ 2026-07-30T15:40:47.091265+00:00
  0
DICTIONARYVAR
  5
26C
330
2D
100
DictionaryVariables
280
0
  1
1.4.4 @ 2026-07-30T15:40:47.128411+00:00
  0
ENDSEC
  0
EOF
