  0
SECTION
  2
HEADER
  9
$ACADVER
  1
AC1015
  9
$ACADMAINTVER
 70
6
  9
$DWGCODEPAGE
  3
ANSI_1252
  9
$INSBASE
 10
0.0
 20
0.0
 30
0.0
  9
$EXTMIN
 10
1e+20
 20
1e+20
 30
1e+20
  9
$EXTMAX
 10
-1e+20
 20
-1e+20
 30
-1e+20
  9
$LIMMIN
 10
0.0
 20
0.0
  9
$LIMMAX
 10
420.0
 20
297.0
  9
$ORTHOMODE
 70
0
  9
$REGENMODE
 70
1
  9
$FILLMODE
 70
1
  9
$QTEXTMODE
 70
0
  9
$MIRRTEXT
 70
1
  9
$LTSCALE
 40
1.0
  9
$ATTMODE
 70
1
  9
$TEXTSIZE
 40
2.5
  9
$TRACEWID
 40
1.0
  9
$TEXTSTYLE
  7
Standard
  9
$CLAYER
  8
0
  9
$CELTYPE
  6
ByLayer
  9
$CECOLOR
 62
256
  9
$CELTSCALE
 40
1.0
  9
$DISPSILH
 70
0
  9
$DIMSCALE
 40
1.0
  9
$DIMASZ
 40
2.5
  9
$DIMEXO
 40
0.625
  9
$DIMDLI
 40
3.75
  9
$DIMRND
 40
0.0
  9
$DIMDLE
 40
0.0
  9
$DIMEXE
 40
1.25
  9
$DIMTP
 40
0.0
  9
$DIMTM
 40
0.0
  9
$DIMTXT
 40
2.5
  9
$DIMCEN
 40
2.5
  9
$DIMTSZ
 40
0.0
  9
$DIMTOL
 70
0
  9
$DIMLIM
 70
0
  9
$DIMTIH
 70
0
  9
$DIMTOH
 70
0
  9
$DIMSE1
 70
0
  9
$DIMSE2
 70
0
  9
$DIMTAD
 70
1
  9
$DIMZIN
 70
8
  9
$DIMBLK
  1

  9
$DIMASO
 70
1
  9
$DIMSHO
 70
1
  9
$DIMPOST
  1

  9
$DIMAPOST
  1

  9
$DIMALT
 70
0
  9
$DIMALTD
 70
3
  9
$DIMALTF
 40
0.03937007874
  9
$DIMLFAC
 40
1.0
  9
$DIMTOFL
 70
1
  9
$DIMTVP
 40
0.0
  9
$DIMTIX
 70
0
  9
$DIMSOXD
 70
0
  9
$DIMSAH
 70
0
  9
$DIMBLK1
  1

  9
$DIMBLK2
  1

  9
$DIMSTYLE
  2
ISO-25
  9
$DIMCLRD
 70
0
  9
$DIMCLRE
 70
0
  9
$DIMCLRT
 70
0
  9
$DIMTFAC
 40
1.0
  9
$DIMGAP
 40
0.625
  9
$DIMJUST
 70
0
  9
$DIMSD1
 70
0
  9
$DIMSD2
 70
0
  9
$DIMTOLJ
 70
0
  9
$DIMTZIN
 70
8
  9
$DIMALTZ
 70
0
  9
$DIMALTTZ
 70
0
  9
$DIMUPT
 70
0
  9
$DIMDEC
 70
2
  9
$DIMTDEC
 70
2
  9
$DIMALTU
 70
2
  9
$DIMALTTD
 70
3
  9
$DIMTXSTY
  7
Standard
  9
$DIMAUNIT
 70
0
  9
$DIMADEC
 70
0
  9
$DIMALTRND
 40
0.0
  9
$DIMAZIN
 70
0
  9
$DIMDSEP
 70
44
  9
$DIMATFIT
 70
3
  9
$DIMFRAC
 70
0
  9
$DIMLDRBLK
  1

  9
$DIMLUNIT
 70
2
  9
$DIMLWD
 70
-2
  9
$DIMLWE
 70
-2
  9
$DIMTMOVE
 70
0
  9
$LUNITS
 70
2
  9
$LUPREC
 70
4
  9
$SKETCHINC
 40
1.0
  9
$FILLETRAD
 40
10.0
  9
$AUNITS
 70
0
  9
$AUPREC
 70
2
  9
$MENU
  1
.
  9
$ELEVATION
 40
0.0
  9
$PELEVATION
 40
0.0
  9
$THICKNESS
 40
0.0
  9
$LIMCHECK
 70
0
  9
$CHAMFERA
 40
0.0
  9
$CHAMFERB
 40
0.0
  9
$CHAMFERC
 40
0.0
  9
$CHAMFERD
 40
0.0
  9
$SKPOLY
 70
0
  9
$TDCREATE
 40
2461229.600960648
  9
$TDUCREATE
 40
2458532.153996898
  9
$TDUPDATE
 40
2461229.600960648
  9
$TDUUPDATE
 40
2458532.1544311
  9
$TDINDWG
 40
0.0
  9
$TDUSRTIMER
 40
0.0
  9
$USRTIMER
 70
1
  9
$ANGBASE
 50
0.0
  9
$ANGDIR
 70
0
  9
$PDMODE
 70
0
  9
$PDSIZE
 40
0.0
  9
$PLINEWID
 40
0.0
  9
$SPLFRAME
 70
0
  9
$SPLINETYPE
 70
6
  9
$SPLINESEGS
 70
8
  9
$HANDSEED
  5
3E4
  9
$SURFTAB1
 70
6
  9
$SURFTAB2
 70
6
  9
$SURFTYPE
 70
6
  9
$SURFU
 70
6
  9
$SURFV
 70
6
  9
$UCSBASE
  2

  9
$UCSNAME
  2

  9
$UCSORG
 10
0.0
 20
0.0
 30
0.0
  9
$UCSXDIR
 10
1.0
 20
0.0
 30
0.0
  9
$UCSYDIR
 10
0.0
 20
1.0
 30
0.0
  9
$UCSORTHOREF
  2

  9
$UCSORTHOVIEW
 70
0
  9
$UCSORGTOP
 10
0.0
 20
0.0
 30
0.0
  9
$UCSORGBOTTOM
 10
0.0
 20
0.0
 30
0.0
  9
$UCSORGLEFT
 10
0.0
 20
0.0
 30
0.0
  9
$UCSORGRIGHT
 10
0.0
 20
0.0
 30
0.0
  9
$UCSORGFRONT
 10
0.0
 20
0.0
 30
0.0
  9
$UCSORGBACK
 10
0.0
 20
0.0
 30
0.0
  9
$PUCSBASE
  2

  9
$PUCSNAME
  2

  9
$PUCSORG
 10
0.0
 20
0.0
 30
0.0
  9
$PUCSXDIR
 10
1.0
 20
0.0
 30
0.0
  9
$PUCSYDIR
 10
0.0
 20
1.0
 30
0.0
  9
$PUCSORTHOREF
  2

  9
$PUCSORTHOVIEW
 70
0
  9
$PUCSORGTOP
 10
0.0
 20
0.0
 30
0.0
  9
$PUCSORGBOTTOM
 10
0.0
 20
0.0
 30
0.0
  9
$PUCSORGLEFT
 10
0.0
 20
0.0
 30
0.0
  9
$PUCSORGRIGHT
 10
0.0
 20
0.0
 30
0.0
  9
$PUCSORGFRONT
 10
0.0
 20
0.0
 30
0.0
  9
$PUCSORGBACK
 10
0.0
 20
0.0
 30
0.0
  9
$USERI1
 70
0
  9
$USERI2
 70
0
  9
$USERI3
 70
0
  9
$USERI4
 70
0
  9
$USERI5
 70
0
  9
$USERR1
 40
0.0
  9
$USERR2
 40
0.0
  9
$USERR3
 40
0.0
  9
$USERR4
 40
0.0
  9
$USERR5
 40
0.0
  9
$WORLDVIEW
 70
1
  9
$SHADEDGE
 70
3
  9
$SHADEDIF
 70
70
  9
$TILEMODE
 70
1
  9
$MAXACTVP
 70
64
  9
$PINSBASE
 10
0.0
 20
0.0
 30
0.0
  9
$PLIMCHECK
 70
0
  9
$PEXTMIN
 10
1e+20
 20
1e+20
 30
1e+20
  9
$PEXTMAX
 10
-1e+20
 20
-1e+20
 30
-1e+20
  9
$PLIMMIN
 10
0.0
 20
0.0
  9
$PLIMMAX
 10
420.0
 20
297.0
  9
$UNITMODE
 70
0
  9
$VISRETAIN
 70
1
  9
$PLINEGEN
 70
0
  9
$PSLTSCALE
 70
1
  9
$TREEDEPTH
 70
3020
  9
$CMLSTYLE
  2
Standard
  9
$CMLJUST
 70
0
  9
$CMLSCALE
 40
20.0
  9
$PROXYGRAPHICS
 70
1
  9
$MEASUREMENT
 70
1
  9
$CELWEIGHT
370
-1
  9
$ENDCAPS
280
0
  9
$JOINSTYLE
280
0
  9
$LWDISPLAY
290
0
  9
$INSUNITS
 70
6
  9
$HYPERLINKBASE
  1

  9
$STYLESHEET
  1

  9
$XEDIT
290
1
  9
$CEPSNTYPE
380
0
  9
$PSTYLEMODE
290
1
  9
$FINGERPRINTGUID
  2
{E2D06DBE-DEC6-4AE9-BA79-36124C0B5575}
  9
$VERSIONGUID
  2
{AAA24568-AAB8-4765-84A4-A6E118451723}
  9
$EXTNAMES
290
1
  9
$PSVPSCALE
 40
0.0
  9
$OLESTARTUP
290
0
  0
ENDSEC
  0
SECTION
  2
CLASSES
  0
CLASS
  1
ACDBDICTIONARYWDFLT
  2
AcDbDictionaryWithDefault
  3
ObjectDBX Classes
 90
0
280
0
281
0
  0
CLASS
  1
SUN
  2
AcDbSun
  3
SCENEOE
 90
1153
280
0
281
0
  0
CLASS
  1
VISUALSTYLE
  2
AcDbVisualStyle
  3
ObjectDBX Classes
 90
4095
280
0
281
0
  0
CLASS
  1
MATERIAL
  2
AcDbMaterial
  3
ObjectDBX Classes
 90
1153
280
0
281
0
  0
CLASS
  1
SCALE
  2
AcDbScale
  3
ObjectDBX Classes
 90
1153
280
0
281
0
  0
CLASS
  1
TABLESTYLE
  2
AcDbTableStyle
  3
ObjectDBX Classes
 90
4095
280
0
281
0
  0
CLASS
  1
MLEADERSTYLE
  2
AcDbMLeaderStyle
  3
ACDB_MLEADERSTYLE_CLASS
 90
4095
280
0
281
0
  0
CLASS
  1
DICTIONARYVAR
  2
AcDbDictionaryVar
  3
ObjectDBX Classes
 90
0
280
0
281
0
  0
CLASS
  1
CELLSTYLEMAP
  2
AcDbCellStyleMap
  3
ObjectDBX Classes
 90
1152
280
0
281
0
  0
CLASS
  1
MENTALRAYRENDERSETTINGS
  2
AcDbMentalRayRenderSettings
  3
SCENEOE
 90
1024
280
0
281
0
  0
CLASS
  1
ACDBDETAILVIEWSTYLE
  2
AcDbDetailViewStyle
  3
ObjectDBX Classes
 90
1025
280
0
281
0
  0
CLASS
  1
ACDBSECTIONVIEWSTYLE
  2
AcDbSectionViewStyle
  3
ObjectDBX Classes
 90
1025
280
0
281
0
  0
CLASS
  1
RASTERVARIABLES
  2
AcDbRasterVariables
  3
ISM
 90
0
280
0
281
0
  0
CLASS
  1
ACDBPLACEHOLDER
  2
AcDbPlaceHolder
  3
ObjectDBX Classes
 90
0
280
0
281
0
  0
CLASS
  1
LAYOUT
  2
AcDbLayout
  3
ObjectDBX Classes
 90
0
280
0
281
0
  0
ENDSEC
  0
SECTION
  2
TABLES
  0
TABLE
  2
VPORT
  5
8
330
0
100
AcDbSymbolTable
 70
1
  0
VPORT
  5
23
330
8
100
AcDbSymbolTableRecord
100
AcDbViewportTableRecord
  2
*Active
 70
0
 10
0.0
 20
0.0
 11
1.0
 21
1.0
 12
0.0
 22
0.0
 13
0.0
 23
0.0
 14
0.5
 24
0.5
 15
0.5
 25
0.5
 16
0.0
 26
0.0
 36
1.0
 17
0.0
 27
0.0
 37
0.0
 40
1000.0
 41
1.34
 42
50.0
 43
0.0
 44
0.0
 50
0.0
 51
0.0
 71
0
 72
1000
 73
1
 74
3
 75
0
 76
0
 77
0
 78
0
281
0
 65
0
146
0.0
  0
ENDTAB
  0
TABLE
  2
LTYPE
  5
2
330
0
100
AcDbSymbolTable
 70
3
  0
LTYPE
  5
24
330
2
100
AcDbSymbolTableRecord
100
AcDbLinetypeTableRecord
  2
ByBlock
 70
0
  3

 72
65
 73
0
 40
0.0
  0
LTYPE
  5
25
330
2
100
AcDbSymbolTableRecord
100
AcDbLinetypeTableRecord
  2
ByLayer
 70
0
  3

 72
65
 73
0
 40
0.0
  0
LTYPE
  5
26
330
2
100
AcDbSymbolTableRecord
100
AcDbLinetypeTableRecord
  2
Continuous
 70
0
  3

 72
65
 73
0
 40
0.0
  0
ENDTAB
  0
TABLE
  2
LAYER
  5
1
330
0
100
AcDbSymbolTable
 70
2
  0
LAYER
  5
27
330
1
100
AcDbSymbolTableRecord
100
AcDbLayerTableRecord
  2
0
 70
0
 62
7
  6
Continuous
370
-3
390
13
  0
LAYER
  5
28
330
1
100
AcDbSymbolTableRecord
100
AcDbLayerTableRecord
  2
Defpoints
 70
0
 62
7
  6
Continuous
290
0
370
-3
390
13
  0
ENDTAB
  0
TABLE
  2
STYLE
  5
5
330
0
100
AcDbSymbolTable
 70
1
  0
STYLE
  5
29
330
5
100
AcDbSymbolTableRecord
100
AcDbTextStyleTableRecord
  2
Standard
 70
0
 40
0.0
 41
1.0
 50
0.0
 71
0
 42
2.5
  3
txt
  4

  0
ENDTAB
  0
TABLE
  2
VIEW
  5
7
330
0
100
AcDbSymbolTable
 70
0
  0
ENDTAB
  0
TABLE
  2
UCS
  5
6
330
0
100
AcDbSymbolTable
 70
0
  0
ENDTAB
  0
TABLE
  2
APPID
  5
3
330
0
100
AcDbSymbolTable
 70
3
  0
APPID
  5
2A
330
3
100
AcDbSymbolTableRecord
100
AcDbRegAppTableRecord
  2
ACAD
 70
0
  0
APPID
  5
3E1
330
3
100
AcDbSymbolTableRecord
100
AcDbRegAppTableRecord
  2
HATCHBACKGROUNDCOLOR
 70
0
  0
APPID
  5
3E2
330
3
100
AcDbSymbolTableRecord
100
AcDbRegAppTableRecord
  2
EZDXF
 70
0
  0
ENDTAB
  0
TABLE
  2
DIMSTYLE
  5
4
330
0
100
AcDbSymbolTable
 70
1
100
AcDbDimStyleTable
  0
DIMSTYLE
105
2B
330
4
100
AcDbSymbolTableRecord
100
AcDbDimStyleTableRecord
  2
Standard
 70
0
  3

  4

 40
1.0
 41
2.5
 42
0.625
 43
3.75
 44
1.25
 45
0.0
 46
0.0
 47
0.0
 48
0.0
140
2.5
141
2.5
142
0.0
143
0.03937007874
144
1.0
145
0.0
146
1.0
147
0.625
148
0.0
 71
0
 72
0
 73
0
 74
0
 75
0
 76
0
 77
1
 78
8
 79
3
170
0
171
3
172
1
173
0
174
0
175
0
176
0
177
0
178
0
179
2
271
2
272
2
273
2
274
3
275
0
276
0
277
2
278
44
279
0
280
0
281
0
282
0
283
0
284
8
285
0
286
0
288
0
289
3
371
-2
372
-2
  0
ENDTAB
  0
TABLE
  2
BLOCK_RECORD
  5
9
330
0
100
AcDbSymbolTable
 70
2
  0
BLOCK_RECORD
  5
17
330
9
100
AcDbSymbolTableRecord
100
AcDbBlockTableRecord
  2
*Model_Space
340
1A
  0
BLOCK_RECORD
  5
1B
330
9
100
AcDbSymbolTableRecord
100
AcDbBlockTableRecord
  2
*Paper_Space
340
1E
  0
ENDTAB
  0
ENDSEC
  0
SECTION
  2
BLOCKS
  0
BLOCK
  5
18
330
17
100
AcDbEntity
  8
0
100
AcDbBlockBegin
  2
*Model_Space
 70
0
 10
0.0
 20
0.0
 30
0.0
  3
*Model_Space
  1

  0
ENDBLK
  5
19
330
17
100
AcDbEntity
  8
0
100
AcDbBlockEnd
  0
BLOCK
  5
1C
330
1B
100
AcDbEntity
  8
0
100
AcDbBlockBegin
  2
*Paper_Space
 70
0
 10
0.0
 20
0.0
 30
0.0
  3
*Paper_Space
  1

  0
ENDBLK
  5
1D
330
1B
100
AcDbEntity
  8
0
100
AcDbBlockEnd
  0
ENDSEC
  0
SECTION
  2
ENTITIES
  0
LWPOLYLINE
  5
2F
330
17
100
AcDbEntity
  8
ROADS
100
AcDbPolyline
 90
2
 70
0
 10
634093.3874812158
 20
4834853.2003113
 10
634065.8166422131
 20
4834899.005967776
  0
LWPOLYLINE
  5
30
330
17
100
AcDbEntity
  8
ROADS
100
AcDbPolyline
 90
2
 70
0
 10
634065.8166422131
 20
4834899.005967776
 10
634050.0209392236
 20
4834924.476542673
  0
LWPOLYLINE
  5
31
330
17
100
AcDbEntity
  8
ROADS
100
AcDbPolyline
 90
2
 70
0
 10
633764.8978232833
 20
4834578.39479444
 10
633702.5217392561
 20
4834678.608199904
  0
LWPOLYLINE
  5
32
330
17
100
AcDbEntity
  8
ROADS
100
AcDbPolyline
 90
2
 70
0
 10
633939.3763051117
 20
4834700.832178592
 10
633884.5401871118
 20
4834789.94132346
  0
LWPOLYLINE
  5
33
330
17
100
AcDbEntity
  8
ROADS
100
AcDbPolyline
 90
2
 70
0
 10
633320.0214909043
 20
4834418.81998445
 10
633307.4551116065
 20
4834439.866176278
  0
LWPOLYLINE
  5
34
330
17
100
AcDbEntity
  8
ROADS
100
AcDbPolyline
 90
2
 70
0
 10
633307.4551116065
 20
4834439.866176278
 10
633516.5579697443
 20
4834563.848608359
  0
LWPOLYLINE
  5
35
330
17
100
AcDbEntity
  8
ROADS
100
AcDbPolyline
 90
2
 70
0
 10
633563.2731875954
 20
4834489.760125939
 10
633516.5579697443
 20
4834563.848608359
  0
LWPOLYLINE
  5
36
330
17
100
AcDbEntity
  8
ROADS
100
AcDbPolyline
 90
3
 70
0
 10
633259.6971828813
 20
4834484.686556087
 10
633315.3974079371
 20
4834478.1707962435
 10
633788.640684525
 20
4834760.546493955
  0
LWPOLYLINE
  5
37
330
17
100
AcDbEntity
  8
ROADS
100
AcDbPolyline
 90
2
 70
0
 10
633516.5579697443
 20
4834563.848608359
 10
633702.5217392561
 20
4834678.608199904
  0
LWPOLYLINE
  5
38
330
17
100
AcDbEntity
  8
ROADS
100
AcDbPolyline
 90
2
 70
0
 10
633702.5217392561
 20
4834678.608199904
 10
633794.3532352024
 20
4834742.340266964
  0
LWPOLYLINE
  5
39
330
17
100
AcDbEntity
  8
ROADS
100
AcDbPolyline
 90
4
 70
0
 10
633702.5217392561
 20
4834678.608199904
 10
633733.0184096585
 20
4834669.5796992155
 10
633865.0428027508
 20
4834754.411994677
 10
633884.5401871118
 20
4834789.94132346
  0
LWPOLYLINE
  5
3A
330
17
100
AcDbEntity
  8
ROADS
100
AcDbPolyline
 90
2
 70
0
 10
633794.3532352024
 20
4834742.340266964
 10
633788.640684525
 20
4834760.546493955
  0
LWPOLYLINE
  5
3B
330
17
100
AcDbEntity
  8
ROADS
100
AcDbPolyline
 90
2
 70
0
 10
633794.3532352024
 20
4834742.340266964
 10
633884.5401871118
 20
4834789.94132346
  0
LWPOLYLINE
  5
3C
330
17
100
AcDbEntity
  8
ROADS
100
AcDbPolyline
 90
2
 70
0
 10
633788.640684525
 20
4834760.546493955
 10
633869.9849772399
 20
4834808.475745228
  0
LWPOLYLINE
  5
3D
330
17
100
AcDbEntity
  8
ROADS
100
AcDbPolyline
 90
2
 70
0
 10
633884.5401871118
 20
4834789.94132346
 10
633869.9849772399
 20
4834808.475745228
  0
LWPOLYLINE
  5
3E
330
17
100
AcDbEntity
  8
ROADS
100
AcDbPolyline
 90
2
 70
0
 10
633884.5401871118
 20
4834789.94132346
 10
633965.7414224814
 20
4834842.7979134945
  0
LWPOLYLINE
  5
3F
330
17
100
AcDbEntity
  8
ROADS
100
AcDbPolyline
 90
2
 70
0
 10
633869.9849772399
 20
4834808.475745228
 10
633958.8828999166
 20
4834862.82258304
  0
LWPOLYLINE
  5
40
330
17
100
AcDbEntity
  8
ROADS
100
AcDbPolyline
 90
2
 70
0
 10
633788.640684525
 20
4834760.546493955
 10
633728.8701377335
 20
4834944.090039418
  0
LWPOLYLINE
  5
41
330
17
100
AcDbEntity
  8
ROADS
100
AcDbPolyline
 90
2
 70
0
 10
633965.7414224814
 20
4834842.7979134945
 10
633958.8828999166
 20
4834862.82258304
  0
LWPOLYLINE
  5
42
330
17
100
AcDbEntity
  8
ROADS
100
AcDbPolyline
 90
2
 70
0
 10
633869.9849772399
 20
4834808.475745228
 10
633832.4122825292
 20
4834924.6880824575
  0
LWPOLYLINE
  5
43
330
17
100
AcDbEntity
  8
ROADS
100
AcDbPolyline
 90
2
 70
0
 10
633965.7414224814
 20
4834842.7979134945
 10
634065.8166422131
 20
4834899.005967776
  0
LWPOLYLINE
  5
44
330
17
100
AcDbEntity
  8
ROADS
100
AcDbPolyline
 90
2
 70
0
 10
633958.8828999166
 20
4834862.82258304
 10
634050.0209392236
 20
4834924.476542673
  0
LWPOLYLINE
  5
45
330
17
100
AcDbEntity
  8
ROADS
100
AcDbPolyline
 90
2
 70
0
 10
633958.8828999166
 20
4834862.82258304
 10
633929.6975238522
 20
4834956.095176133
  0
LWPOLYLINE
  5
46
330
17
100
AcDbEntity
  8
ROADS
100
AcDbPolyline
 90
2
 70
0
 10
633832.4122825292
 20
4834924.6880824575
 10
633881.639399747
 20
4834940.726219787
  0
LWPOLYLINE
  5
47
330
17
100
AcDbEntity
  8
ROADS
100
AcDbPolyline
 90
2
 70
0
 10
633881.639399747
 20
4834940.726219787
 10
633929.6975238522
 20
4834956.095176133
  0
LWPOLYLINE
  5
48
330
17
100
AcDbEntity
  8
ROADS
100
AcDbPolyline
 90
2
 70
0
 10
633832.4122825292
 20
4834924.6880824575
 10
633816.789601517
 20
4834973.006629815
  0
LWPOLYLINE
  5
49
330
17
100
AcDbEntity
  8
ROADS
100
AcDbPolyline
 90
2
 70
0
 10
633728.8701377335
 20
4834944.090039418
 10
633774.120810327
 20
4834958.97220238
  0
LWPOLYLINE
  5
4A
330
17
100
AcDbEntity
  8
ROADS
100
AcDbPolyline
 90
2
 70
0
 10
634050.0209392236
 20
4834924.476542673
 10
634026.2763952318
 20
4834987.797543461
  0
LWPOLYLINE
  5
4B
330
17
100
AcDbEntity
  8
ROADS
100
AcDbPolyline
 90
2
 70
0
 10
633929.6975238522
 20
4834956.095176133
 10
633976.8628289693
 20
4834971.727019716
  0
LWPOLYLINE
  5
4C
330
17
100
AcDbEntity
  8
ROADS
100
AcDbPolyline
 90
2
 70
0
 10
633774.120810327
 20
4834958.97220238
 10
633816.789601517
 20
4834973.006629815
  0
LWPOLYLINE
  5
4D
330
17
100
AcDbEntity
  8
ROADS
100
AcDbPolyline
 90
2
 70
0
 10
633976.8628289693
 20
4834971.727019716
 10
634026.2763952318
 20
4834987.797543461
  0
LWPOLYLINE
  5
4E
330
17
100
AcDbEntity
  8
ROADS
100
AcDbPolyline
 90
2
 70
0
 10
633929.6975238522
 20
4834956.095176133
 10
633883.0425719596
 20
4835099.550572276
  0
LWPOLYLINE
  5
4F
330
17
100
AcDbEntity
  8
ROADS
100
AcDbPolyline
 90
2
 70
0
 10
633881.639399747
 20
4834940.726219787
 10
633804.9151932197
 20
4835180.649920657
  0
LWPOLYLINE
  5
50
330
17
100
AcDbEntity
  8
ROADS
100
AcDbPolyline
 90
3
 70
0
 10
633774.120810327
 20
4834958.97220238
 10
633712.3641674684
 20
4835149.089338777
 10
633754.7974790477
 20
4835164.752663942
  0
LWPOLYLINE
  5
51
330
17
100
AcDbEntity
  8
ROADS
100
AcDbPolyline
 90
2
 70
0
 10
633728.8701377335
 20
4834944.090039418
 10
633652.9851311762
 20
4835180.965552679
  0
LWPOLYLINE
  5
52
330
17
100
AcDbEntity
  8
ROADS
100
AcDbPolyline
 90
2
 70
0
 10
633816.789601517
 20
4834973.006629815
 10
633754.7974790477
 20
4835164.752663942
  0
LWPOLYLINE
  5
53
330
17
100
AcDbEntity
  8
ROADS
100
AcDbPolyline
 90
2
 70
0
 10
633865.0223435065
 20
4835085.153653882
 10
633867.6378140588
 20
4835073.854008588
  0
LWPOLYLINE
  5
54
330
17
100
AcDbEntity
  8
ROADS
100
AcDbPolyline
 90
2
 70
0
 10
633865.0223435065
 20
4835085.153653882
 10
633842.4951054875
 20
4835093.3631128045
  0
LWPOLYLINE
  5
55
330
17
100
AcDbEntity
  8
ROADS
100
AcDbPolyline
 90
2
 70
0
 10
633976.8628289693
 20
4834971.727019716
 10
633901.4043413141
 20
4835211.061114069
  0
LWPOLYLINE
  5
56
330
17
100
AcDbEntity
  8
ROADS
100
AcDbPolyline
 90
2
 70
0
 10
633207.7574920934
 20
4834378.398830656
 10
633307.4551116065
 20
4834439.866176278
  0
LWPOLYLINE
  5
57
330
17
100
AcDbEntity
  8
ROADS
100
AcDbPolyline
 90
5
 70
0
 10
632722.8191602525
 20
4834314.629164489
 10
632712.673566375
 20
4834332.336365806
 10
632930.954994724
 20
4834423.610834296
 10
632989.1888158078
 20
4834429.905878212
 10
633052.7072013079
 20
4834412.845588448
  0
LWPOLYLINE
  5
58
330
17
100
AcDbEntity
  8
ROADS
100
AcDbPolyline
 90
2
 70
0
 10
632809.0271451944
 20
4834646.642072925
 10
632850.9078744678
 20
4834685.621640747
  0
LWPOLYLINE
  5
59
330
17
100
AcDbEntity
  8
ROADS
100
AcDbPolyline
 90
5
 70
0
 10
632959.2268279899
 20
4834734.007357511
 10
632942.7187776135
 20
4834677.341493083
 10
632881.272760521
 20
4834631.542233588
 10
632841.2264507465
 20
4834613.847000464
 10
632809.0271451944
 20
4834646.642072925
  0
LWPOLYLINE
  5
5A
330
17
100
AcDbEntity
  8
ROADS
100
AcDbPolyline
 90
2
 70
0
 10
632899.1722422051
 20
4834699.034089313
 10
632850.9078744678
 20
4834685.621640747
  0
LWPOLYLINE
  5
5B
330
17
100
AcDbEntity
  8
ROADS
100
AcDbPolyline
 90
2
 70
0
 10
632488.7397423425
 20
4834392.425526801
 10
632484.6974285304
 20
4834404.503472948
  0
LWPOLYLINE
  5
5C
330
17
100
AcDbEntity
  8
ROADS
100
AcDbPolyline
 90
2
 70
0
 10
632473.3081760226
 20
4834400.636162546
 10
632484.6974285304
 20
4834404.503472948
  0
LWPOLYLINE
  5
5D
330
17
100
AcDbEntity
  8
ROADS
100
AcDbPolyline
 90
2
 70
0
 10
632484.6974285304
 20
4834404.503472948
 10
632465.395669614
 20
4834459.235847937
  0
LWPOLYLINE
  5
5E
330
17
100
AcDbEntity
  8
ROADS
100
AcDbPolyline
 90
2
 70
0
 10
632465.395669614
 20
4834459.235847937
 10
632557.1875442327
 20
4834491.22843934
  0
LWPOLYLINE
  5
5F
330
17
100
AcDbEntity
  8
ROADS
100
AcDbPolyline
 90
2
 70
0
 10
632557.1875442327
 20
4834491.22843934
 10
632634.6099759659
 20
4834517.264858361
  0
LWPOLYLINE
  5
60
330
17
100
AcDbEntity
  8
ROADS
100
AcDbPolyline
 90
2
 70
0
 10
632404.7700877124
 20
4834437.790674909
 10
632465.395669614
 20
4834459.235847937
  0
LWPOLYLINE
  5
61
330
17
100
AcDbEntity
  8
ROADS
100
AcDbPolyline
 90
2
 70
0
 10
632345.7715565372
 20
4834463.767856901
 10
632365.8557456086
 20
4834470.700587942
  0
LWPOLYLINE
  5
62
330
17
100
AcDbEntity
  8
ROADS
100
AcDbPolyline
 90
2
 70
0
 10
632226.3209512174
 20
4834536.656669964
 10
632225.2481738115
 20
4834539.843466717
  0
LWPOLYLINE
  5
63
330
17
100
AcDbEntity
  8
ROADS
100
AcDbPolyline
 90
2
 70
0
 10
632222.7967280615
 20
4834539.044862023
 10
632225.2481738115
 20
4834539.843466717
  0
LWPOLYLINE
  5
64
330
17
100
AcDbEntity
  8
ROADS
100
AcDbPolyline
 90
2
 70
0
 10
632189.4672604896
 20
4834566.447392599
 10
632196.5592321203
 20
4834579.27594408
  0
LWPOLYLINE
  5
65
330
17
100
AcDbEntity
  8
ROADS
100
AcDbPolyline
 90
2
 70
0
 10
632225.2481738115
 20
4834539.843466717
 10
632196.5592321203
 20
4834579.27594408
  0
LWPOLYLINE
  5
66
330
17
100
AcDbEntity
  8
ROADS
100
AcDbPolyline
 90
2
 70
0
 10
632225.2481738115
 20
4834539.843466717
 10
632404.8332448365
 20
4834601.463208066
  0
LWPOLYLINE
  5
67
330
17
100
AcDbEntity
  8
ROADS
100
AcDbPolyline
 90
2
 70
0
 10
632196.5592321203
 20
4834579.27594408
 10
632240.8664066383
 20
4834636.273176909
  0
LWPOLYLINE
  5
68
330
17
100
AcDbEntity
  8
ROADS
100
AcDbPolyline
 90
2
 70
0
 10
632465.395669614
 20
4834459.235847937
 10
632404.8332448365
 20
4834601.463208066
  0
LWPOLYLINE
  5
69
330
17
100
AcDbEntity
  8
ROADS
100
AcDbPolyline
 90
2
 70
0
 10
632634.6099759659
 20
4834517.264858361
 10
632708.5106587571
 20
4834555.610597399
  0
LWPOLYLINE
  5
6A
330
17
100
AcDbEntity
  8
ROADS
100
AcDbPolyline
 90
2
 70
0
 10
632508.5133692388
 20
4834636.478949486
 10
632557.1875442327
 20
4834491.22843934
  0
LWPOLYLINE
  5
6B
330
17
100
AcDbEntity
  8
ROADS
100
AcDbPolyline
 90
2
 70
0
 10
632587.8746356103
 20
4834656.445970538
 10
632634.6099759659
 20
4834517.264858361
  0
LWPOLYLINE
  5
6C
330
17
100
AcDbEntity
  8
ROADS
100
AcDbPolyline
 90
3
 70
0
 10
632708.5106587571
 20
4834555.610597399
 10
632810.5807183813
 20
4834634.44569569
 10
632809.0271451944
 20
4834646.642072925
  0
LWPOLYLINE
  5
6D
330
17
100
AcDbEntity
  8
ROADS
100
AcDbPolyline
 90
2
 70
0
 10
632404.8332448365
 20
4834601.463208066
 10
632508.5133692388
 20
4834636.478949486
  0
LWPOLYLINE
  5
6E
330
17
100
AcDbEntity
  8
ROADS
100
AcDbPolyline
 90
2
 70
0
 10
632665.3827199063
 20
4834682.722997095
 10
632708.5106587571
 20
4834555.610597399
  0
LWPOLYLINE
  5
6F
330
17
100
AcDbEntity
  8
ROADS
100
AcDbPolyline
 90
2
 70
0
 10
632508.5133692388
 20
4834636.478949486
 10
632587.8746356103
 20
4834656.445970538
  0
LWPOLYLINE
  5
70
330
17
100
AcDbEntity
  8
ROADS
100
AcDbPolyline
 90
2
 70
0
 10
632587.8746356103
 20
4834656.445970538
 10
632665.3827199063
 20
4834682.722997095
  0
LWPOLYLINE
  5
71
330
17
100
AcDbEntity
  8
ROADS
100
AcDbPolyline
 90
2
 70
0
 10
632764.1743440818
 20
4834704.803413551
 10
632809.0271451944
 20
4834646.642072925
  0
LWPOLYLINE
  5
72
330
17
100
AcDbEntity
  8
ROADS
100
AcDbPolyline
 90
2
 70
0
 10
632196.5592321203
 20
4834579.27594408
 10
632097.9809253829
 20
4834694.06091821
  0
LWPOLYLINE
  5
73
330
17
100
AcDbEntity
  8
ROADS
100
AcDbPolyline
 90
2
 70
0
 10
632240.8664066383
 20
4834636.273176909
 10
632214.737973145
 20
4834665.78466803
  0
LWPOLYLINE
  5
74
330
17
100
AcDbEntity
  8
ROADS
100
AcDbPolyline
 90
2
 70
0
 10
632240.8664066383
 20
4834636.273176909
 10
632310.9470217961
 20
4834693.632315771
  0
LWPOLYLINE
  5
75
330
17
100
AcDbEntity
  8
ROADS
100
AcDbPolyline
 90
2
 70
0
 10
632404.8332448365
 20
4834601.463208066
 10
632360.0672836395
 20
4834738.086613277
  0
LWPOLYLINE
  5
76
330
17
100
AcDbEntity
  8
ROADS
100
AcDbPolyline
 90
2
 70
0
 10
632122.4834821802
 20
4834714.382365026
 10
632165.7641799616
 20
4834663.075747427
  0
LWPOLYLINE
  5
77
330
17
100
AcDbEntity
  8
ROADS
100
AcDbPolyline
 90
2
 70
0
 10
632214.737973145
 20
4834665.78466803
 10
632172.57551261
 20
4834715.201527207
  0
LWPOLYLINE
  5
78
330
17
100
AcDbEntity
  8
ROADS
100
AcDbPolyline
 90
4
 70
0
 10
632214.737973145
 20
4834665.78466803
 10
632229.1457328319
 20
4834678.030532677
 10
632187.9297842239
 20
4834726.980298599
 10
632172.57551261
 20
4834715.201527207
  0
LWPOLYLINE
  5
79
330
17
100
AcDbEntity
  8
ROADS
100
AcDbPolyline
 90
2
 70
0
 10
632097.9809253829
 20
4834694.06091821
 10
632122.4834821802
 20
4834714.382365026
  0
LWPOLYLINE
  5
7A
330
17
100
AcDbEntity
  8
ROADS
100
AcDbPolyline
 90
2
 70
0
 10
632172.57551261
 20
4834715.201527207
 10
632160.306298867
 20
4834699.891916469
  0
LWPOLYLINE
  5
7B
330
17
100
AcDbEntity
  8
ROADS
100
AcDbPolyline
 90
2
 70
0
 10
632310.9470217961
 20
4834693.632315771
 10
632360.0672836395
 20
4834738.086613277
  0
LWPOLYLINE
  5
7C
330
17
100
AcDbEntity
  8
ROADS
100
AcDbPolyline
 90
3
 70
0
 10
632508.5133692388
 20
4834636.478949486
 10
632485.5220825584
 20
4834700.931880705
 10
632562.853199518
 20
4834728.39430347
  0
LWPOLYLINE
  5
7D
330
17
100
AcDbEntity
  8
ROADS
100
AcDbPolyline
 90
2
 70
0
 10
632587.8746356103
 20
4834656.445970538
 10
632562.853199518
 20
4834728.39430347
  0
LWPOLYLINE
  5
7E
330
17
100
AcDbEntity
  8
ROADS
100
AcDbPolyline
 90
2
 70
0
 10
632665.3827199063
 20
4834682.722997095
 10
632759.1049003489
 20
4834714.985580193
  0
LWPOLYLINE
  5
7F
330
17
100
AcDbEntity
  8
ROADS
100
AcDbPolyline
 90
2
 70
0
 10
632764.1743440818
 20
4834704.803413551
 10
632786.1224198784
 20
4834711.754677851
  0
LWPOLYLINE
  5
80
330
17
100
AcDbEntity
  8
ROADS
100
AcDbPolyline
 90
2
 70
0
 10
632759.1049003489
 20
4834714.985580193
 10
632764.1743440818
 20
4834704.803413551
  0
LWPOLYLINE
  5
81
330
17
100
AcDbEntity
  8
ROADS
100
AcDbPolyline
 90
3
 70
0
 10
632562.853199518
 20
4834728.39430347
 10
632640.2246001923
 20
4834753.656795016
 10
632665.3827199063
 20
4834682.722997095
  0
LWPOLYLINE
  5
82
330
17
100
AcDbEntity
  8
ROADS
100
AcDbPolyline
 90
2
 70
0
 10
632752.7612916025
 20
4834733.63587944
 10
632759.1049003489
 20
4834714.985580193
  0
LWPOLYLINE
  5
83
330
17
100
AcDbEntity
  8
ROADS
100
AcDbPolyline
 90
2
 70
0
 10
632752.7612916025
 20
4834733.63587944
 10
632796.6260396936
 20
4834754.8079155395
  0
LWPOLYLINE
  5
84
330
17
100
AcDbEntity
  8
ROADS
100
AcDbPolyline
 90
2
 70
0
 10
632747.8822633818
 20
4834770.683093105
 10
632752.7612916025
 20
4834733.63587944
  0
LWPOLYLINE
  5
85
330
17
100
AcDbEntity
  8
ROADS
100
AcDbPolyline
 90
2
 70
0
 10
632796.6260396936
 20
4834754.8079155395
 10
632814.3340964625
 20
4834764.2867419645
  0
LWPOLYLINE
  5
86
330
17
100
AcDbEntity
  8
ROADS
100
AcDbPolyline
 90
2
 70
0
 10
632850.9078744678
 20
4834685.621640747
 10
632857.3487098989
 20
4834713.04421906
  0
LWPOLYLINE
  5
87
330
17
100
AcDbEntity
  8
ROADS
100
AcDbPolyline
 90
2
 70
0
 10
632890.1730698664
 20
4834712.337474998
 10
632899.1722422051
 20
4834699.034089313
  0
LWPOLYLINE
  5
88
330
17
100
AcDbEntity
  8
ROADS
100
AcDbPolyline
 90
2
 70
0
 10
632908.4144788936
 20
4834723.957111108
 10
632899.1722422051
 20
4834699.034089313
  0
LWPOLYLINE
  5
89
330
17
100
AcDbEntity
  8
ROADS
100
AcDbPolyline
 90
2
 70
0
 10
632786.1224198784
 20
4834711.754677851
 10
632857.3487098989
 20
4834713.04421906
  0
LWPOLYLINE
  5
8A
330
17
100
AcDbEntity
  8
ROADS
100
AcDbPolyline
 90
3
 70
0
 10
633059.0327504128
 20
4834694.228234581
 10
633034.8287195943
 20
4834726.654309419
 10
633001.76738283
 20
4834733.388246174
  0
LWPOLYLINE
  5
8B
330
17
100
AcDbEntity
  8
ROADS
100
AcDbPolyline
 90
2
 70
0
 10
632890.1730698664
 20
4834712.337474998
 10
632875.6720508097
 20
4834722.842191552
  0
LWPOLYLINE
  5
8C
330
17
100
AcDbEntity
  8
ROADS
100
AcDbPolyline
 90
2
 70
0
 10
632857.3487098989
 20
4834713.04421906
 10
632875.6720508097
 20
4834722.842191552
  0
LWPOLYLINE
  5
8D
330
17
100
AcDbEntity
  8
ROADS
100
AcDbPolyline
 90
2
 70
0
 10
632908.4144788936
 20
4834723.957111108
 10
632890.1730698664
 20
4834712.337474998
  0
LWPOLYLINE
  5
8E
330
17
100
AcDbEntity
  8
ROADS
100
AcDbPolyline
 90
2
 70
0
 10
632786.1224198784
 20
4834711.754677851
 10
632852.4061535322
 20
4834727.493017746
  0
LWPOLYLINE
  5
8F
330
17
100
AcDbEntity
  8
ROADS
100
AcDbPolyline
 90
2
 70
0
 10
632857.3487098989
 20
4834713.04421906
 10
632852.4061535322
 20
4834727.493017746
  0
LWPOLYLINE
  5
90
330
17
100
AcDbEntity
  8
ROADS
100
AcDbPolyline
 90
2
 70
0
 10
632079.4416444377
 20
4834678.3523374945
 10
632097.9809253829
 20
4834694.06091821
  0
LWPOLYLINE
  5
91
330
17
100
AcDbEntity
  8
ROADS
100
AcDbPolyline
 90
2
 70
0
 10
632034.389149462
 20
4834740.060439064
 10
632029.5050463588
 20
4834755.782900559
  0
LWPOLYLINE
  5
92
330
17
100
AcDbEntity
  8
ROADS
100
AcDbPolyline
 90
2
 70
0
 10
632025.9235190321
 20
4834752.813080223
 10
632029.5050463588
 20
4834755.782900559
  0
LWPOLYLINE
  5
93
330
17
100
AcDbEntity
  8
ROADS
100
AcDbPolyline
 90
2
 70
0
 10
632908.5342519495
 20
4834735.588193356
 10
632908.4144788936
 20
4834723.957111108
  0
LWPOLYLINE
  5
94
330
17
100
AcDbEntity
  8
ROADS
100
AcDbPolyline
 90
2
 70
0
 10
633001.76738283
 20
4834733.388246174
 10
632977.2006926883
 20
4834733.540205427
  0
LWPOLYLINE
  5
95
330
17
100
AcDbEntity
  8
ROADS
100
AcDbPolyline
 90
2
 70
0
 10
632977.2006926883
 20
4834733.540205427
 10
632959.2268279899
 20
4834734.007357511
  0
LWPOLYLINE
  5
96
330
17
100
AcDbEntity
  8
ROADS
100
AcDbPolyline
 90
2
 70
0
 10
632959.2268279899
 20
4834734.007357511
 10
632908.5342519495
 20
4834735.588193356
  0
LWPOLYLINE
  5
97
330
17
100
AcDbEntity
  8
ROADS
100
AcDbPolyline
 90
2
 70
0
 10
632852.4061535322
 20
4834727.493017746
 10
632814.3340964625
 20
4834764.2867419645
  0
LWPOLYLINE
  5
98
330
17
100
AcDbEntity
  8
ROADS
100
AcDbPolyline
 90
3
 70
0
 10
632875.6720508097
 20
4834722.842191552
 10
632893.1144692744
 20
4834760.902469756
 10
632877.5070621164
 20
4834808.103076585
  0
LWPOLYLINE
  5
99
330
17
100
AcDbEntity
  8
ROADS
100
AcDbPolyline
 90
3
 70
0
 10
632852.4061535322
 20
4834727.493017746
 10
632882.1862121074
 20
4834752.183249191
 10
632877.5070621164
 20
4834808.103076585
  0
LWPOLYLINE
  5
9A
330
17
100
AcDbEntity
  8
ROADS
100
AcDbPolyline
 90
2
 70
0
 10
632908.5342519495
 20
4834735.588193356
 10
632877.5070621164
 20
4834808.103076585
  0
LWPOLYLINE
  5
9B
330
17
100
AcDbEntity
  8
ROADS
100
AcDbPolyline
 90
2
 70
0
 10
632818.2450592497
 20
4834774.817262278
 10
632828.1453752505
 20
4834784.967013818
  0
LWPOLYLINE
  5
9C
330
17
100
AcDbEntity
  8
ROADS
100
AcDbPolyline
 90
3
 70
0
 10
632818.2450592497
 20
4834774.817262278
 10
632810.7494840964
 20
4834787.872801638
 10
632828.1453752505
 20
4834784.967013818
  0
LWPOLYLINE
  5
9D
330
17
100
AcDbEntity
  8
ROADS
100
AcDbPolyline
 90
2
 70
0
 10
632122.4834821802
 20
4834714.382365026
 10
632151.9635579198
 20
4834739.122124173
  0
LWPOLYLINE
  5
9E
330
17
100
AcDbEntity
  8
ROADS
100
AcDbPolyline
 90
2
 70
0
 10
632172.57551261
 20
4834715.201527207
 10
632151.9635579198
 20
4834739.122124173
  0
LWPOLYLINE
  5
9F
330
17
100
AcDbEntity
  8
ROADS
100
AcDbPolyline
 90
2
 70
0
 10
632151.9635579198
 20
4834739.122124173
 10
632166.7919803176
 20
4834751.554107727
  0
LWPOLYLINE
  5
A0
330
17
100
AcDbEntity
  8
ROADS
100
AcDbPolyline
 90
2
 70
0
 10
632310.9470217961
 20
4834693.632315771
 10
632221.2304770916
 20
4834798.118687632
  0
LWPOLYLINE
  5
A1
330
17
100
AcDbEntity
  8
ROADS
100
AcDbPolyline
 90
2
 70
0
 10
632360.0672836395
 20
4834738.086613277
 10
632421.4063306068
 20
4834785.482013016
  0
LWPOLYLINE
  5
A2
330
17
100
AcDbEntity
  8
ROADS
100
AcDbPolyline
 90
2
 70
0
 10
632166.7919803176
 20
4834751.554107727
 10
632221.2304770916
 20
4834798.118687632
  0
LWPOLYLINE
  5
A3
330
17
100
AcDbEntity
  8
ROADS
100
AcDbPolyline
 90
2
 70
0
 10
632166.7919803176
 20
4834751.554107727
 10
632119.8002613864
 20
4834805.832862625
  0
LWPOLYLINE
  5
A4
330
17
100
AcDbEntity
  8
ROADS
100
AcDbPolyline
 90
2
 70
0
 10
632318.5994460811
 20
4834793.279319683
 10
632288.6719253373
 20
4834766.791321226
  0
LWPOLYLINE
  5
A5
330
17
100
AcDbEntity
  8
ROADS
100
AcDbPolyline
 90
3
 70
0
 10
632360.0672836395
 20
4834738.086613277
 10
632351.5848789713
 20
4834772.649958683
 10
632364.4623805089
 20
4834831.762293063
  0
LWPOLYLINE
  5
A6
330
17
100
AcDbEntity
  8
ROADS
100
AcDbPolyline
 90
3
 70
0
 10
632029.5050463588
 20
4834755.782900559
 10
632152.616647548
 20
4834846.502156515
 10
632293.7985470591
 20
4834858.117023468
  0
LWPOLYLINE
  5
A7
330
17
100
AcDbEntity
  8
ROADS
100
AcDbPolyline
 90
2
 70
0
 10
634065.8166422131
 20
4834899.005967776
 10
634194.358151597
 20
4834984.784932112
  0
LWPOLYLINE
  5
A8
330
17
100
AcDbEntity
  8
ROADS
100
AcDbPolyline
 90
3
 70
0
 10
634065.8166422131
 20
4834899.005967776
 10
634074.0807726411
 20
4834924.097415027
 10
634213.5174266336
 20
4835018.339701437
  0
LWPOLYLINE
  5
A9
330
17
100
AcDbEntity
  8
ROADS
100
AcDbPolyline
 90
2
 70
0
 10
634050.0209392236
 20
4834924.476542673
 10
634227.5160586365
 20
4835042.9660861995
  0
LWPOLYLINE
  5
AA
330
17
100
AcDbEntity
  8
ROADS
100
AcDbPolyline
 90
2
 70
0
 10
634068.1253495824
 20
4835172.098183948
 10
634028.6664744108
 20
4835301.801564252
  0
LWPOLYLINE
  5
AB
330
17
100
AcDbEntity
  8
ROADS
100
AcDbPolyline
 90
2
 70
0
 10
634028.6664744108
 20
4835301.801564252
 10
634076.0738466881
 20
4835317.098809298
  0
LWPOLYLINE
  5
AC
330
17
100
AcDbEntity
  8
ROADS
100
AcDbPolyline
 90
2
 70
0
 10
634076.0738466881
 20
4835317.098809298
 10
634125.0052333433
 20
4835332.236595219
  0
LWPOLYLINE
  5
AD
330
17
100
AcDbEntity
  8
ROADS
100
AcDbPolyline
 90
2
 70
0
 10
634076.0738466881
 20
4835317.098809298
 10
634062.8127268984
 20
4835358.6445073895
  0
LWPOLYLINE
  5
AE
330
17
100
AcDbEntity
  8
ROADS
100
AcDbPolyline
 90
2
 70
0
 10
634125.0052333433
 20
4835332.236595219
 10
634242.0545219285
 20
4835370.925715897
  0
LWPOLYLINE
  5
AF
330
17
100
AcDbEntity
  8
ROADS
100
AcDbPolyline
 90
2
 70
0
 10
634125.0052333433
 20
4835332.236595219
 10
634111.7616242331
 20
4835374.141144964
  0
LWPOLYLINE
  5
B0
330
17
100
AcDbEntity
  8
ROADS
100
AcDbPolyline
 90
2
 70
0
 10
634062.8127268984
 20
4835358.6445073895
 10
634111.7616242331
 20
4835374.141144964
  0
LWPOLYLINE
  5
B1
330
17
100
AcDbEntity
  8
ROADS
100
AcDbPolyline
 90
2
 70
0
 10
634242.0545219285
 20
4835370.925715897
 10
634313.075755595
 20
4835393.962684827
  0
LWPOLYLINE
  5
B2
330
17
100
AcDbEntity
  8
ROADS
100
AcDbPolyline
 90
2
 70
0
 10
634242.0545219285
 20
4835370.925715897
 10
634228.3736141751
 20
4835411.184737365
  0
LWPOLYLINE
  5
B3
330
17
100
AcDbEntity
  8
ROADS
100
AcDbPolyline
 90
2
 70
0
 10
634313.6783787642
 20
4835414.232165638
 10
634306.2243279773
 20
4835436.174148095
  0
LWPOLYLINE
  5
B4
330
17
100
AcDbEntity
  8
ROADS
100
AcDbPolyline
 90
2
 70
0
 10
634228.3736141751
 20
4835411.184737365
 10
634266.3391262568
 20
4835423.445070387
  0
LWPOLYLINE
  5
B5
330
17
100
AcDbEntity
  8
ROADS
100
AcDbPolyline
 90
2
 70
0
 10
634111.7616242331
 20
4835374.141144964
 10
634081.4253008724
 20
4835468.448017498
  0
LWPOLYLINE
  5
B6
330
17
100
AcDbEntity
  8
ROADS
100
AcDbPolyline
 90
2
 70
0
 10
634266.3391262568
 20
4835423.445070387
 10
634306.2243279773
 20
4835436.174148095
  0
LWPOLYLINE
  5
B7
330
17
100
AcDbEntity
  8
ROADS
100
AcDbPolyline
 90
2
 70
0
 10
634081.4253008724
 20
4835468.448017498
 10
634065.9143648702
 20
4835516.665588594
  0
LWPOLYLINE
  5
B8
330
17
100
AcDbEntity
  8
ROADS
100
AcDbPolyline
 90
4
 70
0
 10
634081.4253008724
 20
4835468.448017498
 10
634123.2647122546
 20
4835482.113498564
 10
634107.4966736144
 20
4835530.169413925
 10
634065.9143648702
 20
4835516.665588594
  0
LWPOLYLINE
  5
B9
330
17
100
AcDbEntity
  8
ROADS
100
AcDbPolyline
 90
2
 70
0
 10
634228.3736141751
 20
4835411.184737365
 10
634154.5588821929
 20
4835626.457146072
  0
LWPOLYLINE
  5
BA
330
17
100
AcDbEntity
  8
ROADS
100
AcDbPolyline
 90
2
 70
0
 10
634266.3391262568
 20
4835423.445070387
 10
634195.0602228772
 20
4835640.009950716
  0
LWPOLYLINE
  5
BB
330
17
100
AcDbEntity
  8
ROADS
100
AcDbPolyline
 90
2
 70
0
 10
634306.2243279773
 20
4835436.174148095
 10
634232.8620468065
 20
4835651.311269941
  0
LWPOLYLINE
  5
BC
330
17
100
AcDbEntity
  8
ROADS
100
AcDbPolyline
 90
2
 70
0
 10
634065.9143648702
 20
4835516.665588594
 10
634041.362247718
 20
4835589.522737754
  0
LWPOLYLINE
  5
BD
330
17
100
AcDbEntity
  8
ROADS
100
AcDbPolyline
 90
2
 70
0
 10
634120.4651851318
 20
4835615.110863849
 10
634154.5588821929
 20
4835626.457146072
  0
LWPOLYLINE
  5
BE
330
17
100
AcDbEntity
  8
ROADS
100
AcDbPolyline
 90
2
 70
0
 10
634219.0415405675
 20
4835692.375322399
 10
634255.7891861713
 20
4835704.0136185745
  0
LWPOLYLINE
  5
BF
330
17
100
AcDbEntity
  8
ROADS
100
AcDbPolyline
 90
2
 70
0
 10
634174.4011032013
 20
4835677.260054061
 10
634159.9762274057
 20
4835723.320085228
  0
LWPOLYLINE
  5
C0
330
17
100
AcDbEntity
  8
ROADS
100
AcDbPolyline
 90
2
 70
0
 10
634255.7891861713
 20
4835704.0136185745
 10
634257.7918085229
 20
4835704.666448317
  0
LWPOLYLINE
  5
C1
330
17
100
AcDbEntity
  8
ROADS
100
AcDbPolyline
 90
2
 70
0
 10
632814.3340964625
 20
4834764.2867419645
 10
632818.2450592497
 20
4834774.817262278
  0
LWPOLYLINE
  5
C2
330
17
100
AcDbEntity
  8
ROADS
100
AcDbPolyline
 90
2
 70
0
 10
632562.853199518
 20
4834728.39430347
 10
632535.4282899138
 20
4834812.584133521
  0
LWPOLYLINE
  5
C3
330
17
100
AcDbEntity
  8
ROADS
100
AcDbPolyline
 90
4
 70
0
 10
632796.6260396936
 20
4834754.8079155395
 10
632777.3038264373
 20
4834761.81720745
 10
632776.990476639
 20
4834786.34346826
 10
632747.8822633818
 20
4834770.683093105
  0
LWPOLYLINE
  5
C4
330
17
100
AcDbEntity
  8
ROADS
100
AcDbPolyline
 90
2
 70
0
 10
632814.3340964625
 20
4834764.2867419645
 10
632799.4883428081
 20
4834793.308677041
  0
LWPOLYLINE
  5
C5
330
17
100
AcDbEntity
  8
ROADS
100
AcDbPolyline
 90
2
 70
0
 10
632799.4883428081
 20
4834793.308677041
 10
632829.2970790204
 20
4834796.163711955
  0
LWPOLYLINE
  5
C6
330
17
100
AcDbEntity
  8
ROADS
100
AcDbPolyline
 90
2
 70
0
 10
632421.4063306068
 20
4834785.482013016
 10
632456.8480340436
 20
4834813.643825695
  0
LWPOLYLINE
  5
C7
330
17
100
AcDbEntity
  8
ROADS
100
AcDbPolyline
 90
2
 70
0
 10
632753.3965238825
 20
4834833.539694735
 10
632747.8822633818
 20
4834770.683093105
  0
LWPOLYLINE
  5
C8
330
17
100
AcDbEntity
  8
ROADS
100
AcDbPolyline
 90
3
 70
0
 10
632456.8480340436
 20
4834813.643825695
 10
632479.3553344678
 20
4834795.13522397
 10
632535.4282899138
 20
4834812.584133521
  0
LWPOLYLINE
  5
C9
330
17
100
AcDbEntity
  8
ROADS
100
AcDbPolyline
 90
2
 70
0
 10
632799.4883428081
 20
4834793.308677041
 10
632782.4585083688
 20
4834844.841897904
  0
LWPOLYLINE
  5
CA
330
17
100
AcDbEntity
  8
ROADS
100
AcDbPolyline
 90
2
 70
0
 10
632456.8480340436
 20
4834813.643825695
 10
632490.7790483118
 20
4834838.186056468
  0
LWPOLYLINE
  5
CB
330
17
100
AcDbEntity
  8
ROADS
100
AcDbPolyline
 90
3
 70
0
 10
632814.3340964625
 20
4834764.2867419645
 10
632850.2652865631
 20
4834772.17783718
 10
632864.4920143118
 20
4834798.644076622
  0
LWPOLYLINE
  5
CC
330
17
100
AcDbEntity
  8
ROADS
100
AcDbPolyline
 90
2
 70
0
 10
632828.1453752505
 20
4834784.967013818
 10
632829.2970790204
 20
4834796.163711955
  0
LWPOLYLINE
  5
CD
330
17
100
AcDbEntity
  8
ROADS
100
AcDbPolyline
 90
2
 70
0
 10
632828.1453752505
 20
4834784.967013818
 10
632852.1177727912
 20
4834801.701645408
  0
LWPOLYLINE
  5
CE
330
17
100
AcDbEntity
  8
ROADS
100
AcDbPolyline
 90
2
 70
0
 10
632852.1177727912
 20
4834801.701645408
 10
632864.4920143118
 20
4834798.644076622
  0
LWPOLYLINE
  5
CF
330
17
100
AcDbEntity
  8
ROADS
100
AcDbPolyline
 90
2
 70
0
 10
632864.4920143118
 20
4834798.644076622
 10
632877.5070621164
 20
4834808.103076585
  0
LWPOLYLINE
  5
D0
330
17
100
AcDbEntity
  8
ROADS
100
AcDbPolyline
 90
2
 70
0
 10
632877.5070621164
 20
4834808.103076585
 10
632889.7493968785
 20
4834811.512633187
  0
LWPOLYLINE
  5
D1
330
17
100
AcDbEntity
  8
ROADS
100
AcDbPolyline
 90
3
 70
0
 10
632829.2970790204
 20
4834796.163711955
 10
632846.5217822869
 20
4834806.489871224
 10
632843.8325165766
 20
4834825.136728174
  0
LWPOLYLINE
  5
D2
330
17
100
AcDbEntity
  8
ROADS
100
AcDbPolyline
 90
2
 70
0
 10
632852.1177727912
 20
4834801.701645408
 10
632843.8325165766
 20
4834825.136728174
  0
LWPOLYLINE
  5
D3
330
17
100
AcDbEntity
  8
ROADS
100
AcDbPolyline
 90
2
 70
0
 10
632864.4920143118
 20
4834798.644076622
 10
632856.551496865
 20
4834837.25358619
  0
LWPOLYLINE
  5
D4
330
17
100
AcDbEntity
  8
ROADS
100
AcDbPolyline
 90
2
 70
0
 10
632877.5070621164
 20
4834808.103076585
 10
632856.551496865
 20
4834837.25358619
  0
LWPOLYLINE
  5
D5
330
17
100
AcDbEntity
  8
ROADS
100
AcDbPolyline
 90
2
 70
0
 10
632421.4063306068
 20
4834785.482013016
 10
632403.6254682578
 20
4834838.397707531
  0
LWPOLYLINE
  5
D6
330
17
100
AcDbEntity
  8
ROADS
100
AcDbPolyline
 90
2
 70
0
 10
632318.5994460811
 20
4834793.279319683
 10
632364.4623805089
 20
4834831.762293063
  0
LWPOLYLINE
  5
D7
330
17
100
AcDbEntity
  8
ROADS
100
AcDbPolyline
 90
2
 70
0
 10
632275.5777835711
 20
4834843.144515781
 10
632318.5994460811
 20
4834793.279319683
  0
LWPOLYLINE
  5
D8
330
17
100
AcDbEntity
  8
ROADS
100
AcDbPolyline
 90
2
 70
0
 10
632221.2304770916
 20
4834798.118687632
 10
632275.5777835711
 20
4834843.144515781
  0
LWPOLYLINE
  5
D9
330
17
100
AcDbEntity
  8
ROADS
100
AcDbPolyline
 90
2
 70
0
 10
632364.4623805089
 20
4834831.762293063
 10
632369.3296912283
 20
4834850.243701227
  0
LWPOLYLINE
  5
DA
330
17
100
AcDbEntity
  8
ROADS
100
AcDbPolyline
 90
2
 70
0
 10
632369.3296912283
 20
4834850.243701227
 10
632490.7790483118
 20
4834838.186056468
  0
LWPOLYLINE
  5
DB
330
17
100
AcDbEntity
  8
ROADS
100
AcDbPolyline
 90
2
 70
0
 10
632275.5777835711
 20
4834843.144515781
 10
632293.7985470591
 20
4834858.117023468
  0
LWPOLYLINE
  5
DC
330
17
100
AcDbEntity
  8
ROADS
100
AcDbPolyline
 90
2
 70
0
 10
632293.7985470591
 20
4834858.117023468
 10
632369.3296912283
 20
4834850.243701227
  0
LWPOLYLINE
  5
DD
330
17
100
AcDbEntity
  8
ROADS
100
AcDbPolyline
 90
2
 70
0
 10
632369.3296912283
 20
4834850.243701227
 10
632373.3960043647
 20
4834863.355216258
  0
LWPOLYLINE
  5
DE
330
17
100
AcDbEntity
  8
ROADS
100
AcDbPolyline
 90
3
 70
0
 10
632004.2192698547
 20
4834835.107889995
 10
632162.8583922803
 20
4834884.732214496
 10
632311.9929830001
 20
4834873.716105199
  0
LWPOLYLINE
  5
DF
330
17
100
AcDbEntity
  8
ROADS
100
AcDbPolyline
 90
2
 70
0
 10
632029.5050463588
 20
4834755.782900559
 10
632004.2192698547
 20
4834835.107889995
  0
LWPOLYLINE
  5
E0
330
17
100
AcDbEntity
  8
ROADS
100
AcDbPolyline
 90
2
 70
0
 10
631983.709672639
 20
4834827.836660896
 10
632004.2192698547
 20
4834835.107889995
  0
LWPOLYLINE
  5
E1
330
17
100
AcDbEntity
  8
ROADS
100
AcDbPolyline
 90
2
 70
0
 10
632535.4282899138
 20
4834812.584133521
 10
632632.897890582
 20
4834845.445525321
  0
LWPOLYLINE
  5
E2
330
17
100
AcDbEntity
  8
ROADS
100
AcDbPolyline
 90
2
 70
0
 10
632813.6364902591
 20
4834841.520702036
 10
632782.4585083688
 20
4834844.841897904
  0
LWPOLYLINE
  5
E3
330
17
100
AcDbEntity
  8
ROADS
100
AcDbPolyline
 90
2
 70
0
 10
632753.3965238825
 20
4834833.539694735
 10
632760.20482735
 20
4834853.413318353
  0
LWPOLYLINE
  5
E4
330
17
100
AcDbEntity
  8
ROADS
100
AcDbPolyline
 90
2
 70
0
 10
632753.3965238825
 20
4834833.539694735
 10
632676.7450507549
 20
4834860.563277578
  0
LWPOLYLINE
  5
E5
330
17
100
AcDbEntity
  8
ROADS
100
AcDbPolyline
 90
2
 70
0
 10
632782.4585083688
 20
4834844.841897904
 10
632760.20482735
 20
4834853.413318353
  0
LWPOLYLINE
  5
E6
330
17
100
AcDbEntity
  8
ROADS
100
AcDbPolyline
 90
2
 70
0
 10
632632.897890582
 20
4834845.445525321
 10
632676.7450507549
 20
4834860.563277578
  0
LWPOLYLINE
  5
E7
330
17
100
AcDbEntity
  8
ROADS
100
AcDbPolyline
 90
2
 70
0
 10
632813.6364902591
 20
4834841.520702036
 10
632814.5260994239
 20
4834867.022286607
  0
LWPOLYLINE
  5
E8
330
17
100
AcDbEntity
  8
ROADS
100
AcDbPolyline
 90
3
 70
0
 10
632490.7790483118
 20
4834838.186056468
 10
632545.7145685756
 20
4834844.755567436
 10
632606.9388663927
 20
4834877.919828647
  0
LWPOLYLINE
  5
E9
330
17
100
AcDbEntity
  8
ROADS
100
AcDbPolyline
 90
2
 70
0
 10
632632.897890582
 20
4834845.445525321
 10
632606.9388663927
 20
4834877.919828647
  0
LWPOLYLINE
  5
EA
330
17
100
AcDbEntity
  8
ROADS
100
AcDbPolyline
 90
2
 70
0
 10
632760.20482735
 20
4834853.413318353
 10
632766.0771814301
 20
4834870.84583323
  0
LWPOLYLINE
  5
EB
330
17
100
AcDbEntity
  8
ROADS
100
AcDbPolyline
 90
2
 70
0
 10
632490.7790483118
 20
4834838.186056468
 10
632579.6339732588
 20
4834908.776673111
  0
LWPOLYLINE
  5
EC
330
17
100
AcDbEntity
  8
ROADS
100
AcDbPolyline
 90
2
 70
0
 10
632814.5260994239
 20
4834867.022286607
 10
632787.0740014844
 20
4834889.977870065
  0
LWPOLYLINE
  5
ED
330
17
100
AcDbEntity
  8
ROADS
100
AcDbPolyline
 90
2
 70
0
 10
632676.7450507549
 20
4834860.563277578
 10
632689.0452011789
 20
4834898.946614921
  0
LWPOLYLINE
  5
EE
330
17
100
AcDbEntity
  8
ROADS
100
AcDbPolyline
 90
2
 70
0
 10
632766.0771814301
 20
4834870.84583323
 10
632776.5181838023
 20
4834895.509498541
  0
LWPOLYLINE
  5
EF
330
17
100
AcDbEntity
  8
ROADS
100
AcDbPolyline
 90
2
 70
0
 10
632766.0771814301
 20
4834870.84583323
 10
632689.0452011789
 20
4834898.946614921
  0
LWPOLYLINE
  5
F0
330
17
100
AcDbEntity
  8
ROADS
100
AcDbPolyline
 90
3
 70
0
 10
632373.3960043647
 20
4834863.355216258
 10
632463.4994856913
 20
4834866.923186784
 10
632579.6339732588
 20
4834908.776673111
  0
LWPOLYLINE
  5
F1
330
17
100
AcDbEntity
  8
ROADS
100
AcDbPolyline
 90
2
 70
0
 10
632787.0740014844
 20
4834889.977870065
 10
632776.5181838023
 20
4834895.509498541
  0
LWPOLYLINE
  5
F2
330
17
100
AcDbEntity
  8
ROADS
100
AcDbPolyline
 90
2
 70
0
 10
632606.9388663927
 20
4834877.919828647
 10
632579.6339732588
 20
4834908.776673111
  0
LWPOLYLINE
  5
F3
330
17
100
AcDbEntity
  8
ROADS
100
AcDbPolyline
 90
2
 70
0
 10
632606.9388663927
 20
4834877.919828647
 10
632662.5923480822
 20
4834934.230212768
  0
LWPOLYLINE
  5
F4
330
17
100
AcDbEntity
  8
ROADS
100
AcDbPolyline
 90
2
 70
0
 10
632579.6339732588
 20
4834908.776673111
 10
632566.5817169157
 20
4834923.726905278
  0
LWPOLYLINE
  5
F5
330
17
100
AcDbEntity
  8
ROADS
100
AcDbPolyline
 90
3
 70
0
 10
632959.2268279899
 20
4834734.007357511
 10
632942.0656505853
 20
4834816.650688526
 10
632864.3096649521
 20
4834915.836008371
  0
LWPOLYLINE
  5
F6
330
17
100
AcDbEntity
  8
ROADS
100
AcDbPolyline
 90
2
 70
0
 10
632843.8325165766
 20
4834825.136728174
 10
632856.551496865
 20
4834837.25358619
  0
LWPOLYLINE
  5
F7
330
17
100
AcDbEntity
  8
ROADS
100
AcDbPolyline
 90
2
 70
0
 10
632843.8325165766
 20
4834825.136728174
 10
632813.6364902591
 20
4834841.520702036
  0
LWPOLYLINE
  5
F8
330
17
100
AcDbEntity
  8
ROADS
100
AcDbPolyline
 90
2
 70
0
 10
632856.551496865
 20
4834837.25358619
 10
632841.0208663371
 20
4834847.123635403
  0
LWPOLYLINE
  5
F9
330
17
100
AcDbEntity
  8
ROADS
100
AcDbPolyline
 90
2
 70
0
 10
632841.0208663371
 20
4834847.123635403
 10
632813.6364902591
 20
4834841.520702036
  0
LWPOLYLINE
  5
FA
330
17
100
AcDbEntity
  8
ROADS
100
AcDbPolyline
 90
2
 70
0
 10
632841.0208663371
 20
4834847.123635403
 10
632814.5260994239
 20
4834867.022286607
  0
LWPOLYLINE
  5
FB
330
17
100
AcDbEntity
  8
ROADS
100
AcDbPolyline
 90
3
 70
0
 10
633001.76738283
 20
4834733.388246174
 10
632953.1004789409
 20
4834850.012785981
 10
632796.0477798972
 20
4835039.34231053
  0
LWPOLYLINE
  5
FC
330
17
100
AcDbEntity
  8
ROADS
100
AcDbPolyline
 90
3
 70
0
 10
632787.0740014844
 20
4834889.977870065
 10
632818.8500941917
 20
4834914.895209467
 10
632864.3096649521
 20
4834915.836008371
  0
LWPOLYLINE
  5
FD
330
17
100
AcDbEntity
  8
ROADS
100
AcDbPolyline
 90
2
 70
0
 10
632864.3096649521
 20
4834915.836008371
 10
632789.3582467933
 20
4834999.732778016
  0
LWPOLYLINE
  5
FE
330
17
100
AcDbEntity
  8
ROADS
100
AcDbPolyline
 90
2
 70
0
 10
632976.0878356097
 20
4834957.252779776
 10
633153.3895137771
 20
4835014.034216335
  0
LWPOLYLINE
  5
FF
330
17
100
AcDbEntity
  8
ROADS
100
AcDbPolyline
 90
2
 70
0
 10
632293.7985470591
 20
4834858.117023468
 10
632311.9929830001
 20
4834873.716105199
  0
LWPOLYLINE
  5
100
330
17
100
AcDbEntity
  8
ROADS
100
AcDbPolyline
 90
2
 70
0
 10
632311.9929830001
 20
4834873.716105199
 10
632373.3960043647
 20
4834863.355216258
  0
LWPOLYLINE
  5
101
330
17
100
AcDbEntity
  8
ROADS
100
AcDbPolyline
 90
2
 70
0
 10
632311.9929830001
 20
4834873.716105199
 10
632332.2192767631
 20
4834891.102054136
  0
LWPOLYLINE
  5
102
330
17
100
AcDbEntity
  8
ROADS
100
AcDbPolyline
 90
2
 70
0
 10
632373.3960043647
 20
4834863.355216258
 10
632373.2620910293
 20
4834925.974634987
  0
LWPOLYLINE
  5
103
330
17
100
AcDbEntity
  8
ROADS
100
AcDbPolyline
 90
2
 70
0
 10
632332.2192767631
 20
4834891.102054136
 10
632304.5537022282
 20
4834922.632404195
  0
LWPOLYLINE
  5
104
330
17
100
AcDbEntity
  8
ROADS
100
AcDbPolyline
 90
2
 70
0
 10
632332.2192767631
 20
4834891.102054136
 10
632373.2620910293
 20
4834925.974634987
  0
LWPOLYLINE
  5
105
330
17
100
AcDbEntity
  8
ROADS
100
AcDbPolyline
 90
2
 70
0
 10
632403.388355433
 20
4834950.707111057
 10
632447.7843068383
 20
4834887.113686796
  0
LWPOLYLINE
  5
106
330
17
100
AcDbEntity
  8
ROADS
100
AcDbPolyline
 90
3
 70
0
 10
632196.7457285614
 20
4834915.893150065
 10
632154.4865758156
 20
4834914.671180698
 10
632140.6546643658
 20
4834955.10325208
  0
LWPOLYLINE
  5
107
330
17
100
AcDbEntity
  8
ROADS
100
AcDbPolyline
 90
2
 70
0
 10
632373.2620910293
 20
4834925.974634987
 10
632403.388355433
 20
4834950.707111057
  0
LWPOLYLINE
  5
108
330
17
100
AcDbEntity
  8
ROADS
100
AcDbPolyline
 90
3
 70
0
 10
632304.5537022282
 20
4834922.632404195
 10
632328.1451595853
 20
4834945.804631006
 10
632321.5016182947
 20
4834956.317352768
  0
LWPOLYLINE
  5
109
330
17
100
AcDbEntity
  8
ROADS
100
AcDbPolyline
 90
2
 70
0
 10
632004.2192698547
 20
4834835.107889995
 10
631967.8928921232
 20
4834948.828914734
  0
LWPOLYLINE
  5
10A
330
17
100
AcDbEntity
  8
ROADS
100
AcDbPolyline
 90
2
 70
0
 10
631937.6083343007
 20
4834938.868385947
 10
631967.8928921232
 20
4834948.828914734
  0
LWPOLYLINE
  5
10B
330
17
100
AcDbEntity
  8
ROADS
100
AcDbPolyline
 90
2
 70
0
 10
631967.8928921232
 20
4834948.828914734
 10
631984.411244194
 20
4834954.023897436
  0
LWPOLYLINE
  5
10C
330
17
100
AcDbEntity
  8
ROADS
100
AcDbPolyline
 90
2
 70
0
 10
631984.411244194
 20
4834954.023897436
 10
632059.4758990111
 20
4834978.977679179
  0
LWPOLYLINE
  5
10D
330
17
100
AcDbEntity
  8
ROADS
100
AcDbPolyline
 90
2
 70
0
 10
631984.411244194
 20
4834954.023897436
 10
631966.7400099937
 20
4835000.875034575
  0
LWPOLYLINE
  5
10E
330
17
100
AcDbEntity
  8
ROADS
100
AcDbPolyline
 90
2
 70
0
 10
631923.9317365327
 20
4834986.106263022
 10
631934.0963972502
 20
4834989.486095251
  0
LWPOLYLINE
  5
10F
330
17
100
AcDbEntity
  8
ROADS
100
AcDbPolyline
 90
2
 70
0
 10
632196.7457285614
 20
4834915.893150065
 10
632180.5203751485
 20
4834968.288880146
  0
LWPOLYLINE
  5
110
330
17
100
AcDbEntity
  8
ROADS
100
AcDbPolyline
 90
3
 70
0
 10
632304.5537022282
 20
4834922.632404195
 10
632278.1667689488
 20
4834899.30863819
 10
632249.9680249763
 20
4834988.463777188
  0
LWPOLYLINE
  5
111
330
17
100
AcDbEntity
  8
ROADS
100
AcDbPolyline
 90
2
 70
0
 10
632373.2620910293
 20
4834925.974634987
 10
632359.6530476615
 20
4834969.789022257
  0
LWPOLYLINE
  5
112
330
17
100
AcDbEntity
  8
ROADS
100
AcDbPolyline
 90
3
 70
0
 10
632196.7457285614
 20
4834915.893150065
 10
632234.1296171444
 20
4834920.539257653
 10
632216.5611378397
 20
4834980.0172588965
  0
LWPOLYLINE
  5
113
330
17
100
AcDbEntity
  8
ROADS
100
AcDbPolyline
 90
2
 70
0
 10
632304.5537022282
 20
4834922.632404195
 10
632282.2132292057
 20
4834994.675126146
  0
LWPOLYLINE
  5
114
330
17
100
AcDbEntity
  8
ROADS
100
AcDbPolyline
 90
2
 70
0
 10
632140.6546643658
 20
4834955.10325208
 10
632180.5203751485
 20
4834968.288880146
  0
LWPOLYLINE
  5
115
330
17
100
AcDbEntity
  8
ROADS
100
AcDbPolyline
 90
2
 70
0
 10
632403.388355433
 20
4834950.707111057
 10
632434.4701396339
 20
4834976.963981742
  0
LWPOLYLINE
  5
116
330
17
100
AcDbEntity
  8
ROADS
100
AcDbPolyline
 90
2
 70
0
 10
632180.5203751485
 20
4834968.288880146
 10
632216.5611378397
 20
4834980.0172588965
  0
LWPOLYLINE
  5
117
330
17
100
AcDbEntity
  8
ROADS
100
AcDbPolyline
 90
2
 70
0
 10
632140.6546643658
 20
4834955.10325208
 10
632126.2254606197
 20
4835000.748922515
  0
LWPOLYLINE
  5
118
330
17
100
AcDbEntity
  8
ROADS
100
AcDbPolyline
 90
2
 70
0
 10
632249.9680249763
 20
4834988.463777188
 10
632216.5611378397
 20
4834980.0172588965
  0
LWPOLYLINE
  5
119
330
17
100
AcDbEntity
  8
ROADS
100
AcDbPolyline
 90
2
 70
0
 10
632662.5923480822
 20
4834934.230212768
 10
632689.0452011789
 20
4834898.946614921
  0
LWPOLYLINE
  5
11A
330
17
100
AcDbEntity
  8
ROADS
100
AcDbPolyline
 90
2
 70
0
 10
632579.6339732588
 20
4834908.776673111
 10
632649.7998227924
 20
4834950.579251872
  0
LWPOLYLINE
  5
11B
330
17
100
AcDbEntity
  8
ROADS
100
AcDbPolyline
 90
2
 70
0
 10
632649.7998227924
 20
4834950.579251872
 10
632662.5923480822
 20
4834934.230212768
  0
LWPOLYLINE
  5
11C
330
17
100
AcDbEntity
  8
ROADS
100
AcDbPolyline
 90
2
 70
0
 10
632636.8820231248
 20
4834965.393905478
 10
632566.5817169157
 20
4834923.726905278
  0
LWPOLYLINE
  5
11D
330
17
100
AcDbEntity
  8
ROADS
100
AcDbPolyline
 90
3
 70
0
 10
632776.5181838023
 20
4834895.509498541
 10
632798.8625947449
 20
4834950.186688585
 10
632789.3582467933
 20
4834999.732778016
  0
LWPOLYLINE
  5
11E
330
17
100
AcDbEntity
  8
ROADS
100
AcDbPolyline
 90
2
 70
0
 10
632649.7998227924
 20
4834950.579251872
 10
632636.8820231248
 20
4834965.393905478
  0
LWPOLYLINE
  5
11F
330
17
100
AcDbEntity
  8
ROADS
100
AcDbPolyline
 90
2
 70
0
 10
632566.5817169157
 20
4834923.726905278
 10
632486.4206146491
 20
4835020.698441188
  0
LWPOLYLINE
  5
120
330
17
100
AcDbEntity
  8
ROADS
100
AcDbPolyline
 90
2
 70
0
 10
632662.5923480822
 20
4834934.230212768
 10
632772.4628932413
 20
4835025.237375649
  0
LWPOLYLINE
  5
121
330
17
100
AcDbEntity
  8
ROADS
100
AcDbPolyline
 90
2
 70
0
 10
632434.4701396339
 20
4834976.963981742
 10
632453.4344382331
 20
4834992.906019178
  0
LWPOLYLINE
  5
122
330
17
100
AcDbEntity
  8
ROADS
100
AcDbPolyline
 90
2
 70
0
 10
632649.7998227924
 20
4834950.579251872
 10
632772.4628932413
 20
4835025.237375649
  0
LWPOLYLINE
  5
123
330
17
100
AcDbEntity
  8
ROADS
100
AcDbPolyline
 90
2
 70
0
 10
632359.6530476615
 20
4834969.789022257
 10
632405.2773081816
 20
4835009.745824376
  0
LWPOLYLINE
  5
124
330
17
100
AcDbEntity
  8
ROADS
100
AcDbPolyline
 90
2
 70
0
 10
632059.4758990111
 20
4834978.977679179
 10
632126.2254606197
 20
4835000.748922515
  0
LWPOLYLINE
  5
125
330
17
100
AcDbEntity
  8
ROADS
100
AcDbPolyline
 90
2
 70
0
 10
632282.2132292057
 20
4834994.675126146
 10
632249.9680249763
 20
4834988.463777188
  0
LWPOLYLINE
  5
126
330
17
100
AcDbEntity
  8
ROADS
100
AcDbPolyline
 90
2
 70
0
 10
632434.4701396339
 20
4834976.963981742
 10
632405.2773081816
 20
4835009.745824376
  0
LWPOLYLINE
  5
127
330
17
100
AcDbEntity
  8
ROADS
100
AcDbPolyline
 90
2
 70
0
 10
632216.5611378397
 20
4834980.0172588965
 10
632202.2634350888
 20
4835025.967339104
  0
LWPOLYLINE
  5
128
330
17
100
AcDbEntity
  8
ROADS
100
AcDbPolyline
 90
2
 70
0
 10
632126.2254606197
 20
4835000.748922515
 10
632202.2634350888
 20
4835025.967339104
  0
LWPOLYLINE
  5
129
330
17
100
AcDbEntity
  8
ROADS
100
AcDbPolyline
 90
2
 70
0
 10
632126.2254606197
 20
4835000.748922515
 10
632114.2177182732
 20
4835035.259508337
  0
LWPOLYLINE
  5
12A
330
17
100
AcDbEntity
  8
ROADS
100
AcDbPolyline
 90
2
 70
0
 10
632453.4344382331
 20
4834992.906019178
 10
632410.7567966704
 20
4835044.428557417
  0
LWPOLYLINE
  5
12B
330
17
100
AcDbEntity
  8
ROADS
100
AcDbPolyline
 90
2
 70
0
 10
632359.6530476615
 20
4834969.789022257
 10
632328.6316572732
 20
4835067.651825976
  0
LWPOLYLINE
  5
12C
330
17
100
AcDbEntity
  8
ROADS
100
AcDbPolyline
 90
2
 70
0
 10
632405.2773081816
 20
4835009.745824376
 10
632389.2486026646
 20
4835028.193512116
  0
LWPOLYLINE
  5
12D
330
17
100
AcDbEntity
  8
ROADS
100
AcDbPolyline
 90
2
 70
0
 10
631934.0963972502
 20
4834989.486095251
 10
631966.7400099937
 20
4835000.875034575
  0
LWPOLYLINE
  5
12E
330
17
100
AcDbEntity
  8
ROADS
100
AcDbPolyline
 90
2
 70
0
 10
631934.0963972502
 20
4834989.486095251
 10
631925.258726046
 20
4835015.708335283
  0
LWPOLYLINE
  5
12F
330
17
100
AcDbEntity
  8
ROADS
100
AcDbPolyline
 90
2
 70
0
 10
632059.4758990111
 20
4834978.977679179
 10
632033.7440509264
 20
4835058.633621658
  0
LWPOLYLINE
  5
130
330
17
100
AcDbEntity
  8
ROADS
100
AcDbPolyline
 90
2
 70
0
 10
631966.7400099937
 20
4835000.875034575
 10
631950.804785711
 20
4835043.52822847
  0
LWPOLYLINE
  5
131
330
17
100
AcDbEntity
  8
ROADS
100
AcDbPolyline
 90
3
 70
0
 10
631966.7400099937
 20
4835000.875034575
 10
631988.0293530814
 20
4835009.354511584
 10
631980.1180029667
 20
4835051.7717325995
  0
LWPOLYLINE
  5
132
330
17
100
AcDbEntity
  8
ROADS
100
AcDbPolyline
 90
2
 70
0
 10
631950.804785711
 20
4835043.52822847
 10
631980.1180029667
 20
4835051.7717325995
  0
LWPOLYLINE
  5
133
330
17
100
AcDbEntity
  8
ROADS
100
AcDbPolyline
 90
2
 70
0
 10
631980.1180029667
 20
4835051.7717325995
 10
632033.7440509264
 20
4835058.633621658
  0
LWPOLYLINE
  5
134
330
17
100
AcDbEntity
  8
ROADS
100
AcDbPolyline
 90
2
 70
0
 10
632282.2132292057
 20
4834994.675126146
 10
632276.6775761977
 20
4835050.285344509
  0
LWPOLYLINE
  5
135
330
17
100
AcDbEntity
  8
ROADS
100
AcDbPolyline
 90
3
 70
0
 10
632114.2177182732
 20
4835035.259508337
 10
632078.0932500642
 20
4835023.23859159
 10
632069.9884479532
 20
4835049.692107369
  0
LWPOLYLINE
  5
136
330
17
100
AcDbEntity
  8
ROADS
100
AcDbPolyline
 90
2
 70
0
 10
632202.2634350888
 20
4835025.967339104
 10
632276.6775761977
 20
4835050.285344509
  0
LWPOLYLINE
  5
137
330
17
100
AcDbEntity
  8
ROADS
100
AcDbPolyline
 90
2
 70
0
 10
632114.2177182732
 20
4835035.259508337
 10
632101.371156815
 20
4835078.773617479
  0
LWPOLYLINE
  5
138
330
17
100
AcDbEntity
  8
ROADS
100
AcDbPolyline
 90
2
 70
0
 10
632276.6775761977
 20
4835050.285344509
 10
632328.6316572732
 20
4835067.651825976
  0
LWPOLYLINE
  5
139
330
17
100
AcDbEntity
  8
ROADS
100
AcDbPolyline
 90
2
 70
0
 10
632061.4991627181
 20
4835066.212913315
 10
632101.371156815
 20
4835078.773617479
  0
LWPOLYLINE
  5
13A
330
17
100
AcDbEntity
  8
ROADS
100
AcDbPolyline
 90
2
 70
0
 10
632328.6316572732
 20
4835067.651825976
 10
632422.7077961438
 20
4835098.306760079
  0
LWPOLYLINE
  5
13B
330
17
100
AcDbEntity
  8
ROADS
100
AcDbPolyline
 90
2
 70
0
 10
632328.6316572732
 20
4835067.651825976
 10
632315.5214467274
 20
4835107.548917035
  0
LWPOLYLINE
  5
13C
330
17
100
AcDbEntity
  8
ROADS
100
AcDbPolyline
 90
2
 70
0
 10
632101.371156815
 20
4835078.773617479
 10
632089.4208717206
 20
4835115.969441984
  0
LWPOLYLINE
  5
13D
330
17
100
AcDbEntity
  8
ROADS
100
AcDbPolyline
 90
2
 70
0
 10
632315.5214467274
 20
4835107.548917035
 10
632353.1806600528
 20
4835120.08963407
  0
LWPOLYLINE
  5
13E
330
17
100
AcDbEntity
  8
ROADS
100
AcDbPolyline
 90
2
 70
0
 10
632636.8820231248
 20
4834965.393905478
 10
632581.090174922
 20
4835037.671036696
  0
LWPOLYLINE
  5
13F
330
17
100
AcDbEntity
  8
ROADS
100
AcDbPolyline
 90
2
 70
0
 10
632453.4344382331
 20
4834992.906019178
 10
632486.4206146491
 20
4835020.698441188
  0
LWPOLYLINE
  5
140
330
17
100
AcDbEntity
  8
ROADS
100
AcDbPolyline
 90
2
 70
0
 10
632789.3582467933
 20
4834999.732778016
 10
632772.4628932413
 20
4835025.237375649
  0
LWPOLYLINE
  5
141
330
17
100
AcDbEntity
  8
ROADS
100
AcDbPolyline
 90
5
 70
0
 10
632636.8820231248
 20
4834965.393905478
 10
632699.3282681019
 20
4835007.750005075
 10
632701.7138257638
 20
4835024.602445923
 10
632650.4159790237
 20
4835087.659097184
 10
632581.090174922
 20
4835037.671036696
  0
LWPOLYLINE
  5
142
330
17
100
AcDbEntity
  8
ROADS
100
AcDbPolyline
 90
2
 70
0
 10
632772.4628932413
 20
4835025.237375649
 10
632785.190534373
 20
4835033.251073226
  0
LWPOLYLINE
  5
143
330
17
100
AcDbEntity
  8
ROADS
100
AcDbPolyline
 90
2
 70
0
 10
632785.190534373
 20
4835033.251073226
 10
632796.0477798972
 20
4835039.34231053
  0
LWPOLYLINE
  5
144
330
17
100
AcDbEntity
  8
ROADS
100
AcDbPolyline
 90
2
 70
0
 10
632486.4206146491
 20
4835020.698441188
 10
632551.5761269785
 20
4835075.994513471
  0
LWPOLYLINE
  5
145
330
17
100
AcDbEntity
  8
ROADS
100
AcDbPolyline
 90
2
 70
0
 10
632581.090174922
 20
4835037.671036696
 10
632551.5761269785
 20
4835075.994513471
  0
LWPOLYLINE
  5
146
330
17
100
AcDbEntity
  8
ROADS
100
AcDbPolyline
 90
2
 70
0
 10
632772.4628932413
 20
4835025.237375649
 10
632662.6216156848
 20
4835164.405730064
  0
LWPOLYLINE
  5
147
330
17
100
AcDbEntity
  8
ROADS
100
AcDbPolyline
 90
2
 70
0
 10
632551.5761269785
 20
4835075.994513471
 10
632520.961922718
 20
4835130.309339539
  0
LWPOLYLINE
  5
148
330
17
100
AcDbEntity
  8
ROADS
100
AcDbPolyline
 90
2
 70
0
 10
632033.7440509264
 20
4835058.633621658
 10
632061.4991627181
 20
4835066.212913315
  0
LWPOLYLINE
  5
149
330
17
100
AcDbEntity
  8
ROADS
100
AcDbPolyline
 90
2
 70
0
 10
631971.2821110743
 20
4835077.507969873
 10
631980.1180029667
 20
4835051.7717325995
  0
LWPOLYLINE
  5
14A
330
17
100
AcDbEntity
  8
ROADS
100
AcDbPolyline
 90
2
 70
0
 10
631950.804785711
 20
4835043.52822847
 10
631937.2491780136
 20
4835103.195726522
  0
LWPOLYLINE
  5
14B
330
17
100
AcDbEntity
  8
ROADS
100
AcDbPolyline
 90
2
 70
0
 10
632033.7440509264
 20
4835058.633621658
 10
632024.2113582104
 20
4835090.3857259005
  0
LWPOLYLINE
  5
14C
330
17
100
AcDbEntity
  8
ROADS
100
AcDbPolyline
 90
2
 70
0
 10
631971.2821110743
 20
4835077.507969873
 10
632024.2113582104
 20
4835090.3857259005
  0
LWPOLYLINE
  5
14D
330
17
100
AcDbEntity
  8
ROADS
100
AcDbPolyline
 90
2
 70
0
 10
632061.4991627181
 20
4835066.212913315
 10
632048.8195682486
 20
4835102.482479724
  0
LWPOLYLINE
  5
14E
330
17
100
AcDbEntity
  8
ROADS
100
AcDbPolyline
 90
2
 70
0
 10
631901.7666234743
 20
4835091.338339975
 10
631937.2491780136
 20
4835103.195726522
  0
LWPOLYLINE
  5
14F
330
17
100
AcDbEntity
  8
ROADS
100
AcDbPolyline
 90
2
 70
0
 10
631959.7928700084
 20
4835110.775815277
 10
631971.2821110743
 20
4835077.507969873
  0
LWPOLYLINE
  5
150
330
17
100
AcDbEntity
  8
ROADS
100
AcDbPolyline
 90
2
 70
0
 10
632796.0477798972
 20
4835039.34231053
 10
632674.9245970391
 20
4835183.517621776
  0
LWPOLYLINE
  5
151
330
17
100
AcDbEntity
  8
ROADS
100
AcDbPolyline
 90
2
 70
0
 10
632422.7077961438
 20
4835098.306760079
 10
632520.961922718
 20
4835130.309339539
  0
LWPOLYLINE
  5
152
330
17
100
AcDbEntity
  8
ROADS
100
AcDbPolyline
 90
2
 70
0
 10
632551.5761269785
 20
4835075.994513471
 10
632626.9407118575
 20
4835157.05466336
  0
LWPOLYLINE
  5
153
330
17
100
AcDbEntity
  8
ROADS
100
AcDbPolyline
 90
2
 70
0
 10
632520.961922718
 20
4835130.309339539
 10
632605.4861492959
 20
4835160.699620336
  0
LWPOLYLINE
  5
154
330
17
100
AcDbEntity
  8
ROADS
100
AcDbPolyline
 90
2
 70
0
 10
632520.961922718
 20
4835130.309339539
 10
632501.5296735885
 20
4835184.840306196
  0
LWPOLYLINE
  5
155
330
17
100
AcDbEntity
  8
ROADS
100
AcDbPolyline
 90
2
 70
0
 10
632605.4861492959
 20
4835160.699620336
 10
632626.9407118575
 20
4835157.05466336
  0
LWPOLYLINE
  5
156
330
17
100
AcDbEntity
  8
ROADS
100
AcDbPolyline
 90
2
 70
0
 10
632626.9407118575
 20
4835157.05466336
 10
632662.6216156848
 20
4835164.405730064
  0
LWPOLYLINE
  5
157
330
17
100
AcDbEntity
  8
ROADS
100
AcDbPolyline
 90
2
 70
0
 10
632626.9407118575
 20
4835157.05466336
 10
632646.0904255603
 20
4835174.357678022
  0
LWPOLYLINE
  5
158
330
17
100
AcDbEntity
  8
ROADS
100
AcDbPolyline
 90
2
 70
0
 10
632605.4861492959
 20
4835160.699620336
 10
632646.0904255603
 20
4835174.357678022
  0
LWPOLYLINE
  5
159
330
17
100
AcDbEntity
  8
ROADS
100
AcDbPolyline
 90
2
 70
0
 10
632662.6216156848
 20
4835164.405730064
 10
632657.7532214116
 20
4835178.125797675
  0
LWPOLYLINE
  5
15A
330
17
100
AcDbEntity
  8
ROADS
100
AcDbPolyline
 90
2
 70
0
 10
631937.2491780136
 20
4835103.195726522
 10
631959.7928700084
 20
4835110.775815277
  0
LWPOLYLINE
  5
15B
330
17
100
AcDbEntity
  8
ROADS
100
AcDbPolyline
 90
2
 70
0
 10
632024.2113582104
 20
4835090.3857259005
 10
632016.5344562985
 20
4835128.076327492
  0
LWPOLYLINE
  5
15C
330
17
100
AcDbEntity
  8
ROADS
100
AcDbPolyline
 90
2
 70
0
 10
631959.7928700084
 20
4835110.775815277
 10
632016.5344562985
 20
4835128.076327492
  0
LWPOLYLINE
  5
15D
330
17
100
AcDbEntity
  8
ROADS
100
AcDbPolyline
 90
2
 70
0
 10
632016.5344562985
 20
4835128.076327492
 10
632078.8802263758
 20
4835149.65047694
  0
LWPOLYLINE
  5
15E
330
17
100
AcDbEntity
  8
ROADS
100
AcDbPolyline
 90
2
 70
0
 10
631959.7928700084
 20
4835110.775815277
 10
631936.4797365152
 20
4835182.0478099305
  0
LWPOLYLINE
  5
15F
330
17
100
AcDbEntity
  8
ROADS
100
AcDbPolyline
 90
2
 70
0
 10
631997.7081155708
 20
4835201.425098295
 10
632016.5344562985
 20
4835128.076327492
  0
LWPOLYLINE
  5
160
330
17
100
AcDbEntity
  8
ROADS
100
AcDbPolyline
 90
2
 70
0
 10
632078.8802263758
 20
4835149.65047694
 10
632056.238209883
 20
4835220.862621562
  0
LWPOLYLINE
  5
161
330
17
100
AcDbEntity
  8
ROADS
100
AcDbPolyline
 90
2
 70
0
 10
631936.4797365152
 20
4835182.0478099305
 10
631997.7081155708
 20
4835201.425098295
  0
LWPOLYLINE
  5
162
330
17
100
AcDbEntity
  8
ROADS
100
AcDbPolyline
 90
2
 70
0
 10
631997.7081155708
 20
4835201.425098295
 10
632056.238209883
 20
4835220.862621562
  0
LWPOLYLINE
  5
163
330
17
100
AcDbEntity
  8
ROADS
100
AcDbPolyline
 90
3
 70
0
 10
632353.1806600528
 20
4835120.08963407
 10
632408.7474049177
 20
4835140.256651713
 10
632422.7077961438
 20
4835098.306760079
  0
LWPOLYLINE
  5
164
330
17
100
AcDbEntity
  8
ROADS
100
AcDbPolyline
 90
2
 70
0
 10
632089.4208717206
 20
4835115.969441984
 10
632141.3418906513
 20
4835132.618271833
  0
LWPOLYLINE
  5
165
330
17
100
AcDbEntity
  8
ROADS
100
AcDbPolyline
 90
2
 70
0
 10
632089.4208717206
 20
4835115.969441984
 10
632078.8802263758
 20
4835149.65047694
  0
LWPOLYLINE
  5
166
330
17
100
AcDbEntity
  8
ROADS
100
AcDbPolyline
 90
2
 70
0
 10
632315.5214467274
 20
4835107.548917035
 10
632298.7813513782
 20
4835164.683717378
  0
LWPOLYLINE
  5
167
330
17
100
AcDbEntity
  8
ROADS
100
AcDbPolyline
 90
2
 70
0
 10
632353.1806600528
 20
4835120.08963407
 10
632336.2671358826
 20
4835176.915281363
  0
LWPOLYLINE
  5
168
330
17
100
AcDbEntity
  8
ROADS
100
AcDbPolyline
 90
2
 70
0
 10
632298.7813513782
 20
4835164.683717378
 10
632336.2671358826
 20
4835176.915281363
  0
LWPOLYLINE
  5
169
330
17
100
AcDbEntity
  8
ROADS
100
AcDbPolyline
 90
2
 70
0
 10
632336.2671358826
 20
4835176.915281363
 10
632328.1157957308
 20
4835200.520753045
  0
LWPOLYLINE
  5
16A
330
17
100
AcDbEntity
  8
ROADS
100
AcDbPolyline
 90
3
 70
0
 10
632078.8802263758
 20
4835149.65047694
 10
632226.7319085196
 20
4835194.716608155
 10
632278.1429651789
 20
4835231.2217673985
  0
LWPOLYLINE
  5
16B
330
17
100
AcDbEntity
  8
ROADS
100
AcDbPolyline
 90
2
 70
0
 10
632336.2671358826
 20
4835176.915281363
 10
632429.9438632189
 20
4835207.092989811
  0
LWPOLYLINE
  5
16C
330
17
100
AcDbEntity
  8
ROADS
100
AcDbPolyline
 90
2
 70
0
 10
632298.7813513782
 20
4835164.683717378
 10
632278.1429651789
 20
4835231.2217673985
  0
LWPOLYLINE
  5
16D
330
17
100
AcDbEntity
  8
ROADS
100
AcDbPolyline
 90
2
 70
0
 10
632822.9040299287
 20
4835135.149805941
 10
632776.096470553
 20
4835215.190966909
  0
LWPOLYLINE
  5
16E
330
17
100
AcDbEntity
  8
ROADS
100
AcDbPolyline
 90
2
 70
0
 10
632646.0904255603
 20
4835174.357678022
 10
632657.7532214116
 20
4835178.125797675
  0
LWPOLYLINE
  5
16F
330
17
100
AcDbEntity
  8
ROADS
100
AcDbPolyline
 90
2
 70
0
 10
632657.7532214116
 20
4835178.125797675
 10
632674.9245970391
 20
4835183.517621776
  0
LWPOLYLINE
  5
170
330
17
100
AcDbEntity
  8
ROADS
100
AcDbPolyline
 90
2
 70
0
 10
632588.2002890502
 20
4835213.392255799
 10
632605.4861492959
 20
4835160.699620336
  0
LWPOLYLINE
  5
171
330
17
100
AcDbEntity
  8
ROADS
100
AcDbPolyline
 90
2
 70
0
 10
632501.5296735885
 20
4835184.840306196
 10
632548.4481586795
 20
4835200.753679023
  0
LWPOLYLINE
  5
172
330
17
100
AcDbEntity
  8
ROADS
100
AcDbPolyline
 90
2
 70
0
 10
632674.9245970391
 20
4835183.517621776
 10
632776.096470553
 20
4835215.190966909
  0
LWPOLYLINE
  5
173
330
17
100
AcDbEntity
  8
ROADS
100
AcDbPolyline
 90
2
 70
0
 10
632501.5296735885
 20
4835184.840306196
 10
632488.345197084
 20
4835225.525132204
  0
LWPOLYLINE
  5
174
330
17
100
AcDbEntity
  8
ROADS
100
AcDbPolyline
 90
2
 70
0
 10
632548.4481586795
 20
4835200.753679023
 10
632588.2002890502
 20
4835213.392255799
  0
LWPOLYLINE
  5
175
330
17
100
AcDbEntity
  8
ROADS
100
AcDbPolyline
 90
2
 70
0
 10
632429.9438632189
 20
4835207.092989811
 10
632488.345197084
 20
4835225.525132204
  0
LWPOLYLINE
  5
176
330
17
100
AcDbEntity
  8
ROADS
100
AcDbPolyline
 90
2
 70
0
 10
632548.4481586795
 20
4835200.753679023
 10
632535.1750390984
 20
4835240.2288136585
  0
LWPOLYLINE
  5
177
330
17
100
AcDbEntity
  8
ROADS
100
AcDbPolyline
 90
2
 70
0
 10
633867.191779209
 20
4835098.526962585
 10
633865.0223435065
 20
4835085.153653882
  0
LWPOLYLINE
  5
178
330
17
100
AcDbEntity
  8
ROADS
100
AcDbPolyline
 90
2
 70
0
 10
633883.0425719596
 20
4835099.550572276
 10
633867.191779209
 20
4835098.526962585
  0
LWPOLYLINE
  5
179
330
17
100
AcDbEntity
  8
ROADS
100
AcDbPolyline
 90
2
 70
0
 10
634026.2763952318
 20
4834987.797543461
 10
633949.5813463395
 20
4835226.2707460765
  0
LWPOLYLINE
  5
17A
330
17
100
AcDbEntity
  8
ROADS
100
AcDbPolyline
 90
2
 70
0
 10
633867.191779209
 20
4835098.526962585
 10
633831.8003637115
 20
4835118.02880356
  0
LWPOLYLINE
  5
17B
330
17
100
AcDbEntity
  8
ROADS
100
AcDbPolyline
 90
2
 70
0
 10
633883.0425719596
 20
4835099.550572276
 10
633852.492473292
 20
4835195.0111337425
  0
LWPOLYLINE
  5
17C
330
17
100
AcDbEntity
  8
ROADS
100
AcDbPolyline
 90
2
 70
0
 10
633754.7974790477
 20
4835164.752663942
 10
633804.9151932197
 20
4835180.649920657
  0
LWPOLYLINE
  5
17D
330
17
100
AcDbEntity
  8
ROADS
100
AcDbPolyline
 90
2
 70
0
 10
633754.7974790477
 20
4835164.752663942
 10
633740.2857597274
 20
4835210.034024967
  0
LWPOLYLINE
  5
17E
330
17
100
AcDbEntity
  8
ROADS
100
AcDbPolyline
 90
2
 70
0
 10
633804.9151932197
 20
4835180.649920657
 10
633852.492473292
 20
4835195.0111337425
  0
LWPOLYLINE
  5
17F
330
17
100
AcDbEntity
  8
ROADS
100
AcDbPolyline
 90
2
 70
0
 10
633652.9851311762
 20
4835180.965552679
 10
633740.2857597274
 20
4835210.034024967
  0
LWPOLYLINE
  5
180
330
17
100
AcDbEntity
  8
ROADS
100
AcDbPolyline
 90
2
 70
0
 10
633852.492473292
 20
4835195.0111337425
 10
633901.4043413141
 20
4835211.061114069
  0
LWPOLYLINE
  5
181
330
17
100
AcDbEntity
  8
ROADS
100
AcDbPolyline
 90
2
 70
0
 10
633249.2550150175
 20
4835049.834963069
 10
633344.1832962149
 20
4835080.002336562
  0
LWPOLYLINE
  5
182
330
17
100
AcDbEntity
  8
ROADS
100
AcDbPolyline
 90
2
 70
0
 10
633344.1832962149
 20
4835080.002336562
 10
633424.3097537986
 20
4835106.720884191
  0
LWPOLYLINE
  5
183
330
17
100
AcDbEntity
  8
ROADS
100
AcDbPolyline
 90
2
 70
0
 10
633424.3097537986
 20
4835106.720884191
 10
633504.3888926981
 20
4835132.019474406
  0
LWPOLYLINE
  5
184
330
17
100
AcDbEntity
  8
ROADS
100
AcDbPolyline
 90
2
 70
0
 10
633424.3097537986
 20
4835106.720884191
 10
633408.4328407338
 20
4835158.923081004
  0
LWPOLYLINE
  5
185
330
17
100
AcDbEntity
  8
ROADS
100
AcDbPolyline
 90
2
 70
0
 10
633504.3888926981
 20
4835132.019474406
 10
633546.3946323257
 20
4835145.774904953
  0
LWPOLYLINE
  5
186
330
17
100
AcDbEntity
  8
ROADS
100
AcDbPolyline
 90
2
 70
0
 10
633271.2026989503
 20
4835153.9520222265
 10
633275.6831940467
 20
4835140.722956468
  0
LWPOLYLINE
  5
187
330
17
100
AcDbEntity
  8
ROADS
100
AcDbPolyline
 90
2
 70
0
 10
633546.3946323257
 20
4835145.774904953
 10
633582.7482204031
 20
4835158.02004478
  0
LWPOLYLINE
  5
188
330
17
100
AcDbEntity
  8
ROADS
100
AcDbPolyline
 90
2
 70
0
 10
633325.1923875056
 20
4835138.552740353
 10
633315.504556608
 20
4835168.151988252
  0
LWPOLYLINE
  5
189
330
17
100
AcDbEntity
  8
ROADS
100
AcDbPolyline
 90
2
 70
0
 10
633315.504556608
 20
4835168.151988252
 10
633271.2026989503
 20
4835153.9520222265
  0
LWPOLYLINE
  5
18A
330
17
100
AcDbEntity
  8
ROADS
100
AcDbPolyline
 90
2
 70
0
 10
633582.7482204031
 20
4835158.02004478
 10
633652.9851311762
 20
4835180.965552679
  0
LWPOLYLINE
  5
18B
330
17
100
AcDbEntity
  8
ROADS
100
AcDbPolyline
 90
2
 70
0
 10
633153.3895137771
 20
4835014.034216335
 10
633236.0301161573
 20
4835047.668732442
  0
LWPOLYLINE
  5
18C
330
17
100
AcDbEntity
  8
ROADS
100
AcDbPolyline
 90
2
 70
0
 10
633153.3895137771
 20
4835014.034216335
 10
633137.7633058744
 20
4835064.263749887
  0
LWPOLYLINE
  5
18D
330
17
100
AcDbEntity
  8
ROADS
100
AcDbPolyline
 90
2
 70
0
 10
633236.0301161573
 20
4835047.668732442
 10
633249.2550150175
 20
4835049.834963069
  0
LWPOLYLINE
  5
18E
330
17
100
AcDbEntity
  8
ROADS
100
AcDbPolyline
 90
2
 70
0
 10
633137.7633058744
 20
4835064.263749887
 10
633236.0301161573
 20
4835047.668732442
  0
LWPOLYLINE
  5
18F
330
17
100
AcDbEntity
  8
ROADS
100
AcDbPolyline
 90
3
 70
0
 10
632796.0477798972
 20
4835039.34231053
 10
632924.437632716
 20
4835087.983465488
 10
633059.4235923614
 20
4835090.844760193
  0
LWPOLYLINE
  5
190
330
17
100
AcDbEntity
  8
ROADS
100
AcDbPolyline
 90
2
 70
0
 10
633059.4235923614
 20
4835090.844760193
 10
633137.7633058744
 20
4835064.263749887
  0
LWPOLYLINE
  5
191
330
17
100
AcDbEntity
  8
ROADS
100
AcDbPolyline
 90
2
 70
0
 10
633137.7633058744
 20
4835064.263749887
 10
633117.5755248634
 20
4835121.0323413685
  0
LWPOLYLINE
  5
192
330
17
100
AcDbEntity
  8
ROADS
100
AcDbPolyline
 90
3
 70
0
 10
633059.4235923614
 20
4835090.844760193
 10
633098.2376136841
 20
4835095.273732176
 10
633117.5755248634
 20
4835121.0323413685
  0
LWPOLYLINE
  5
193
330
17
100
AcDbEntity
  8
ROADS
100
AcDbPolyline
 90
2
 70
0
 10
632842.7055674338
 20
4835106.052460823
 10
632822.9040299287
 20
4835135.149805941
  0
LWPOLYLINE
  5
194
330
17
100
AcDbEntity
  8
ROADS
100
AcDbPolyline
 90
2
 70
0
 10
633249.2550150175
 20
4835049.834963069
 10
633171.0655836147
 20
4835289.38066936
  0
LWPOLYLINE
  5
195
330
17
100
AcDbEntity
  8
ROADS
100
AcDbPolyline
 90
2
 70
0
 10
633852.492473292
 20
4835195.0111337425
 10
633837.8513568812
 20
4835240.092151314
  0
LWPOLYLINE
  5
196
330
17
100
AcDbEntity
  8
ROADS
100
AcDbPolyline
 90
2
 70
0
 10
633901.4043413141
 20
4835211.061114069
 10
633949.5813463395
 20
4835226.2707460765
  0
LWPOLYLINE
  5
197
330
17
100
AcDbEntity
  8
ROADS
100
AcDbPolyline
 90
2
 70
0
 10
633740.2857597274
 20
4835210.034024967
 10
633837.8513568812
 20
4835240.092151314
  0
LWPOLYLINE
  5
198
330
17
100
AcDbEntity
  8
ROADS
100
AcDbPolyline
 90
2
 70
0
 10
633740.2857597274
 20
4835210.034024967
 10
633725.2756965853
 20
4835255.774410994
  0
LWPOLYLINE
  5
199
330
17
100
AcDbEntity
  8
ROADS
100
AcDbPolyline
 90
2
 70
0
 10
633949.5813463395
 20
4835226.2707460765
 10
633934.433715517
 20
4835273.866825294
  0
LWPOLYLINE
  5
19A
330
17
100
AcDbEntity
  8
ROADS
100
AcDbPolyline
 90
2
 70
0
 10
633837.8513568812
 20
4835240.092151314
 10
633934.433715517
 20
4835273.866825294
  0
LWPOLYLINE
  5
19B
330
17
100
AcDbEntity
  8
ROADS
100
AcDbPolyline
 90
2
 70
0
 10
633725.2756965853
 20
4835255.774410994
 10
633774.2605802185
 20
4835271.214164605
  0
LWPOLYLINE
  5
19C
330
17
100
AcDbEntity
  8
ROADS
100
AcDbPolyline
 90
2
 70
0
 10
633837.8513568812
 20
4835240.092151314
 10
633822.7957830315
 20
4835287.021823768
  0
LWPOLYLINE
  5
19D
330
17
100
AcDbEntity
  8
ROADS
100
AcDbPolyline
 90
2
 70
0
 10
633774.2605802185
 20
4835271.214164605
 10
633822.7957830315
 20
4835287.021823768
  0
LWPOLYLINE
  5
19E
330
17
100
AcDbEntity
  8
ROADS
100
AcDbPolyline
 90
2
 70
0
 10
633934.433715517
 20
4835273.866825294
 10
633983.3431430722
 20
4835287.065042662
  0
LWPOLYLINE
  5
19F
330
17
100
AcDbEntity
  8
ROADS
100
AcDbPolyline
 90
2
 70
0
 10
633217.9097209967
 20
4835305.732778092
 10
633271.2026989503
 20
4835153.9520222265
  0
LWPOLYLINE
  5
1A0
330
17
100
AcDbEntity
  8
ROADS
100
AcDbPolyline
 90
2
 70
0
 10
633504.3888926981
 20
4835132.019474406
 10
633436.0573265165
 20
4835343.121259946
  0
LWPOLYLINE
  5
1A1
330
17
100
AcDbEntity
  8
ROADS
100
AcDbPolyline
 90
2
 70
0
 10
633315.504556608
 20
4835168.151988252
 10
633267.1290799495
 20
4835321.972819541
  0
LWPOLYLINE
  5
1A2
330
17
100
AcDbEntity
  8
ROADS
100
AcDbPolyline
 90
2
 70
0
 10
633546.3946323257
 20
4835145.774904953
 10
633467.7298025774
 20
4835388.70748189
  0
LWPOLYLINE
  5
1A3
330
17
100
AcDbEntity
  8
ROADS
100
AcDbPolyline
 90
2
 70
0
 10
633582.7482204031
 20
4835158.02004478
 10
633503.3789049118
 20
4835403.271097204
  0
LWPOLYLINE
  5
1A4
330
17
100
AcDbEntity
  8
ROADS
100
AcDbPolyline
 90
2
 70
0
 10
633652.9851311762
 20
4835180.965552679
 10
633573.7087382082
 20
4835424.864221889
  0
LWPOLYLINE
  5
1A5
330
17
100
AcDbEntity
  8
ROADS
100
AcDbPolyline
 90
2
 70
0
 10
633436.0573265165
 20
4835343.121259946
 10
633425.601418001
 20
4835346.167491481
  0
LWPOLYLINE
  5
1A6
330
17
100
AcDbEntity
  8
ROADS
100
AcDbPolyline
 90
3
 70
0
 10
633425.601418001
 20
4835346.167491481
 10
633409.5296271879
 20
4835337.012222475
 10
633411.9990119336
 20
4835355.146319867
  0
LWPOLYLINE
  5
1A7
330
17
100
AcDbEntity
  8
ROADS
100
AcDbPolyline
 90
2
 70
0
 10
633267.1290799495
 20
4835321.972819541
 10
633250.7379577756
 20
4835372.744572356
  0
LWPOLYLINE
  5
1A8
330
17
100
AcDbEntity
  8
ROADS
100
AcDbPolyline
 90
2
 70
0
 10
633425.601418001
 20
4835346.167491481
 10
633411.9990119336
 20
4835355.146319867
  0
LWPOLYLINE
  5
1A9
330
17
100
AcDbEntity
  8
ROADS
100
AcDbPolyline
 90
2
 70
0
 10
632852.6428682385
 20
4835285.25920025
 10
632886.9784313459
 20
4835299.317994137
  0
LWPOLYLINE
  5
1AA
330
17
100
AcDbEntity
  8
ROADS
100
AcDbPolyline
 90
2
 70
0
 10
632970.581863441
 20
4835279.965770365
 10
633057.543177326
 20
4835308.376026285
  0
LWPOLYLINE
  5
1AB
330
17
100
AcDbEntity
  8
ROADS
100
AcDbPolyline
 90
2
 70
0
 10
633171.0655836147
 20
4835289.38066936
 10
633217.9097209967
 20
4835305.732778092
  0
LWPOLYLINE
  5
1AC
330
17
100
AcDbEntity
  8
ROADS
100
AcDbPolyline
 90
2
 70
0
 10
632886.9784313459
 20
4835299.317994137
 10
632906.2196888363
 20
4835305.749327412
  0
LWPOLYLINE
  5
1AD
330
17
100
AcDbEntity
  8
ROADS
100
AcDbPolyline
 90
2
 70
0
 10
632852.6428682385
 20
4835285.25920025
 10
632841.8745119307
 20
4835321.410385082
  0
LWPOLYLINE
  5
1AE
330
17
100
AcDbEntity
  8
ROADS
100
AcDbPolyline
 90
2
 70
0
 10
632970.581863441
 20
4835279.965770365
 10
632954.3998087153
 20
4835328.5230844235
  0
LWPOLYLINE
  5
1AF
330
17
100
AcDbEntity
  8
ROADS
100
AcDbPolyline
 90
2
 70
0
 10
632793.8319896882
 20
4835305.1326341145
 10
632841.8745119307
 20
4835321.410385082
  0
LWPOLYLINE
  5
1B0
330
17
100
AcDbEntity
  8
ROADS
100
AcDbPolyline
 90
2
 70
0
 10
633217.9097209967
 20
4835305.732778092
 10
633267.1290799495
 20
4835321.972819541
  0
LWPOLYLINE
  5
1B1
330
17
100
AcDbEntity
  8
ROADS
100
AcDbPolyline
 90
2
 70
0
 10
633171.0655836147
 20
4835289.38066936
 10
633154.0028462608
 20
4835340.405288312
  0
LWPOLYLINE
  5
1B2
330
17
100
AcDbEntity
  8
ROADS
100
AcDbPolyline
 90
2
 70
0
 10
632886.9784313459
 20
4835299.317994137
 10
632873.9959246935
 20
4835333.69751703
  0
LWPOLYLINE
  5
1B3
330
17
100
AcDbEntity
  8
ROADS
100
AcDbPolyline
 90
2
 70
0
 10
633725.2756965853
 20
4835255.774410994
 10
633707.6188498389
 20
4835310.175650833
  0
LWPOLYLINE
  5
1B4
330
17
100
AcDbEntity
  8
ROADS
100
AcDbPolyline
 90
2
 70
0
 10
633669.8654309483
 20
4835280.101738348
 10
633664.6596316872
 20
4835296.496963506
  0
LWPOLYLINE
  5
1B5
330
17
100
AcDbEntity
  8
ROADS
100
AcDbPolyline
 90
2
 70
0
 10
633983.3431430722
 20
4835287.065042662
 10
634028.6664744108
 20
4835301.801564252
  0
LWPOLYLINE
  5
1B6
330
17
100
AcDbEntity
  8
ROADS
100
AcDbPolyline
 90
2
 70
0
 10
633822.7957830315
 20
4835287.021823768
 10
633872.1565754174
 20
4835303.409459043
  0
LWPOLYLINE
  5
1B7
330
17
100
AcDbEntity
  8
ROADS
100
AcDbPolyline
 90
2
 70
0
 10
633934.433715517
 20
4835273.866825294
 10
633920.2188269999
 20
4835317.027898356
  0
LWPOLYLINE
  5
1B8
330
17
100
AcDbEntity
  8
ROADS
100
AcDbPolyline
 90
2
 70
0
 10
633707.6188498389
 20
4835310.175650833
 10
633664.6596316872
 20
4835296.496963506
  0
LWPOLYLINE
  5
1B9
330
17
100
AcDbEntity
  8
ROADS
100
AcDbPolyline
 90
2
 70
0
 10
633983.3431430722
 20
4835287.065042662
 10
633967.4936289114
 20
4835330.336081186
  0
LWPOLYLINE
  5
1BA
330
17
100
AcDbEntity
  8
ROADS
100
AcDbPolyline
 90
2
 70
0
 10
633872.1565754174
 20
4835303.409459043
 10
633920.2188269999
 20
4835317.027898356
  0
LWPOLYLINE
  5
1BB
330
17
100
AcDbEntity
  8
ROADS
100
AcDbPolyline
 90
2
 70
0
 10
633920.2188269999
 20
4835317.027898356
 10
633967.4936289114
 20
4835330.336081186
  0
LWPOLYLINE
  5
1BC
330
17
100
AcDbEntity
  8
ROADS
100
AcDbPolyline
 90
3
 70
0
 10
633872.1565754174
 20
4835303.409459043
 10
633851.3128719737
 20
4835370.234125934
 10
633898.2904171791
 20
4835384.688533926
  0
LWPOLYLINE
  5
1BD
330
17
100
AcDbEntity
  8
ROADS
100
AcDbPolyline
 90
2
 70
0
 10
633436.0573265165
 20
4835343.121259946
 10
633425.4641198694
 20
4835375.391360142
  0
LWPOLYLINE
  5
1BE
330
17
100
AcDbEntity
  8
ROADS
100
AcDbPolyline
 90
3
 70
0
 10
633291.4803732891
 20
4835340.153476326
 10
633316.6880755845
 20
4835348.136800329
 10
633306.507158176
 20
4835391.235209098
  0
LWPOLYLINE
  5
1BF
330
17
100
AcDbEntity
  8
ROADS
100
AcDbPolyline
 90
2
 70
0
 10
633350.6326935752
 20
4835335.087377722
 10
633330.1400793642
 20
4835399.310076733
  0
LWPOLYLINE
  5
1C0
330
17
100
AcDbEntity
  8
ROADS
100
AcDbPolyline
 90
2
 70
0
 10
633664.6596316872
 20
4835296.496963506
 10
633617.88510938
 20
4835439.590010078
  0
LWPOLYLINE
  5
1C1
330
17
100
AcDbEntity
  8
ROADS
100
AcDbPolyline
 90
2
 70
0
 10
633411.9990119336
 20
4835355.146319867
 10
633420.6581001175
 20
4835390.970733252
  0
LWPOLYLINE
  5
1C2
330
17
100
AcDbEntity
  8
ROADS
100
AcDbPolyline
 90
2
 70
0
 10
633250.7379577756
 20
4835372.744572356
 10
633306.507158176
 20
4835391.235209098
  0
LWPOLYLINE
  5
1C3
330
17
100
AcDbEntity
  8
ROADS
100
AcDbPolyline
 90
2
 70
0
 10
633425.4641198694
 20
4835375.391360142
 10
633467.7298025774
 20
4835388.70748189
  0
LWPOLYLINE
  5
1C4
330
17
100
AcDbEntity
  8
ROADS
100
AcDbPolyline
 90
2
 70
0
 10
633425.4641198694
 20
4835375.391360142
 10
633420.6581001175
 20
4835390.970733252
  0
LWPOLYLINE
  5
1C5
330
17
100
AcDbEntity
  8
ROADS
100
AcDbPolyline
 90
2
 70
0
 10
633306.507158176
 20
4835391.235209098
 10
633330.1400793642
 20
4835399.310076733
  0
LWPOLYLINE
  5
1C6
330
17
100
AcDbEntity
  8
ROADS
100
AcDbPolyline
 90
2
 70
0
 10
633467.7298025774
 20
4835388.70748189
 10
633503.3789049118
 20
4835403.271097204
  0
LWPOLYLINE
  5
1C7
330
17
100
AcDbEntity
  8
ROADS
100
AcDbPolyline
 90
2
 70
0
 10
632954.3998087153
 20
4835328.5230844235
 10
632944.6362376838
 20
4835357.166849616
  0
LWPOLYLINE
  5
1C8
330
17
100
AcDbEntity
  8
ROADS
100
AcDbPolyline
 90
2
 70
0
 10
632885.183052507
 20
4835337.44554434
 10
632827.8693569151
 20
4835355.931927004
  0
LWPOLYLINE
  5
1C9
330
17
100
AcDbEntity
  8
ROADS
100
AcDbPolyline
 90
2
 70
0
 10
632914.3366204335
 20
4835347.277335144
 10
632944.6362376838
 20
4835357.166849616
  0
LWPOLYLINE
  5
1CA
330
17
100
AcDbEntity
  8
ROADS
100
AcDbPolyline
 90
2
 70
0
 10
633166.5505568606
 20
4835344.625451959
 10
633250.7379577756
 20
4835372.744572356
  0
LWPOLYLINE
  5
1CB
330
17
100
AcDbEntity
  8
ROADS
100
AcDbPolyline
 90
2
 70
0
 10
633042.9940829305
 20
4835352.821045006
 10
633112.6670320237
 20
4835371.412517731
  0
LWPOLYLINE
  5
1CC
330
17
100
AcDbEntity
  8
ROADS
100
AcDbPolyline
 90
2
 70
0
 10
632944.6362376838
 20
4835357.166849616
 10
632982.4389827659
 20
4835369.682209769
  0
LWPOLYLINE
  5
1CD
330
17
100
AcDbEntity
  8
ROADS
100
AcDbPolyline
 90
2
 70
0
 10
632827.8693569151
 20
4835355.931927004
 10
632812.3860959715
 20
4835377.3977195015
  0
LWPOLYLINE
  5
1CE
330
17
100
AcDbEntity
  8
ROADS
100
AcDbPolyline
 90
2
 70
0
 10
633042.9940829305
 20
4835352.821045006
 10
633032.1677271483
 20
4835385.790447704
  0
LWPOLYLINE
  5
1CF
330
17
100
AcDbEntity
  8
ROADS
100
AcDbPolyline
 90
2
 70
0
 10
632982.4389827659
 20
4835369.682209769
 10
633032.1677271483
 20
4835385.790447704
  0
LWPOLYLINE
  5
1D0
330
17
100
AcDbEntity
  8
ROADS
100
AcDbPolyline
 90
2
 70
0
 10
632885.183052507
 20
4835337.44554434
 10
632854.6339158971
 20
4835436.726118497
  0
LWPOLYLINE
  5
1D1
330
17
100
AcDbEntity
  8
ROADS
100
AcDbPolyline
 90
2
 70
0
 10
633920.2188269999
 20
4835317.027898356
 10
633898.2904171791
 20
4835384.688533926
  0
LWPOLYLINE
  5
1D2
330
17
100
AcDbEntity
  8
ROADS
100
AcDbPolyline
 90
2
 70
0
 10
633774.2605802185
 20
4835271.214164605
 10
633710.407145196
 20
4835469.930040672
  0
LWPOLYLINE
  5
1D3
330
17
100
AcDbEntity
  8
ROADS
100
AcDbPolyline
 90
2
 70
0
 10
633967.4936289114
 20
4835330.336081186
 10
633941.0101834177
 20
4835415.9283524845
  0
LWPOLYLINE
  5
1D4
330
17
100
AcDbEntity
  8
ROADS
100
AcDbPolyline
 90
2
 70
0
 10
633707.6188498389
 20
4835310.175650833
 10
633660.8019724896
 20
4835453.895999214
  0
LWPOLYLINE
  5
1D5
330
17
100
AcDbEntity
  8
ROADS
100
AcDbPolyline
 90
2
 70
0
 10
633822.7957830315
 20
4835287.021823768
 10
633758.5989401882
 20
4835485.370487929
  0
LWPOLYLINE
  5
1D6
330
17
100
AcDbEntity
  8
ROADS
100
AcDbPolyline
 90
2
 70
0
 10
633898.2904171791
 20
4835384.688533926
 10
633893.2508111506
 20
4835399.911677176
  0
LWPOLYLINE
  5
1D7
330
17
100
AcDbEntity
  8
ROADS
100
AcDbPolyline
 90
2
 70
0
 10
633893.2508111506
 20
4835399.911677176
 10
633941.0101834177
 20
4835415.9283524845
  0
LWPOLYLINE
  5
1D8
330
17
100
AcDbEntity
  8
ROADS
100
AcDbPolyline
 90
2
 70
0
 10
634028.6664744108
 20
4835301.801564252
 10
633947.1392240444
 20
4835558.118808266
  0
LWPOLYLINE
  5
1D9
330
17
100
AcDbEntity
  8
ROADS
100
AcDbPolyline
 90
2
 70
0
 10
633893.2508111506
 20
4835399.911677176
 10
633855.3076226584
 20
4835517.576380654
  0
LWPOLYLINE
  5
1DA
330
17
100
AcDbEntity
  8
ROADS
100
AcDbPolyline
 90
2
 70
0
 10
633660.8019724896
 20
4835453.895999214
 10
633710.407145196
 20
4835469.930040672
  0
LWPOLYLINE
  5
1DB
330
17
100
AcDbEntity
  8
ROADS
100
AcDbPolyline
 90
2
 70
0
 10
633117.5755248634
 20
4835121.0323413685
 10
633073.1195566001
 20
4835256.202460487
  0
LWPOLYLINE
  5
1DC
330
17
100
AcDbEntity
  8
ROADS
100
AcDbPolyline
 90
3
 70
0
 10
632919.3395705513
 20
4835263.8261881275
 10
632945.2811904328
 20
4835177.662327405
 10
632822.9040299287
 20
4835135.149805941
  0
LWPOLYLINE
  5
1DD
330
17
100
AcDbEntity
  8
ROADS
100
AcDbPolyline
 90
2
 70
0
 10
632776.096470553
 20
4835215.190966909
 10
632865.780388373
 20
4835244.849504972
  0
LWPOLYLINE
  5
1DE
330
17
100
AcDbEntity
  8
ROADS
100
AcDbPolyline
 90
2
 70
0
 10
633073.1195566001
 20
4835256.202460487
 10
632990.1608127378
 20
4835228.275609085
  0
LWPOLYLINE
  5
1DF
330
17
100
AcDbEntity
  8
ROADS
100
AcDbPolyline
 90
2
 70
0
 10
632865.780388373
 20
4835244.849504972
 10
632919.3395705513
 20
4835263.8261881275
  0
LWPOLYLINE
  5
1E0
330
17
100
AcDbEntity
  8
ROADS
100
AcDbPolyline
 90
2
 70
0
 10
632865.780388373
 20
4835244.849504972
 10
632852.6428682385
 20
4835285.25920025
  0
LWPOLYLINE
  5
1E1
330
17
100
AcDbEntity
  8
ROADS
100
AcDbPolyline
 90
2
 70
0
 10
632919.3395705513
 20
4835263.8261881275
 10
632970.581863441
 20
4835279.965770365
  0
LWPOLYLINE
  5
1E2
330
17
100
AcDbEntity
  8
ROADS
100
AcDbPolyline
 90
2
 70
0
 10
633073.1195566001
 20
4835256.202460487
 10
633057.543177326
 20
4835308.376026285
  0
LWPOLYLINE
  5
1E3
330
17
100
AcDbEntity
  8
ROADS
100
AcDbPolyline
 90
2
 70
0
 10
632919.3395705513
 20
4835263.8261881275
 10
632906.2196888363
 20
4835305.749327412
  0
LWPOLYLINE
  5
1E4
330
17
100
AcDbEntity
  8
ROADS
100
AcDbPolyline
 90
3
 70
0
 10
632852.6428682385
 20
4835285.25920025
 10
632807.3002325423
 20
4835270.050343843
 10
632793.8319896882
 20
4835305.1326341145
  0
LWPOLYLINE
  5
1E5
330
17
100
AcDbEntity
  8
ROADS
100
AcDbPolyline
 90
2
 70
0
 10
632588.2002890502
 20
4835213.392255799
 10
632587.3512111693
 20
4835234.469549792
  0
LWPOLYLINE
  5
1E6
330
17
100
AcDbEntity
  8
ROADS
100
AcDbPolyline
 90
2
 70
0
 10
632488.345197084
 20
4835225.525132204
 10
632535.1750390984
 20
4835240.2288136585
  0
LWPOLYLINE
  5
1E7
330
17
100
AcDbEntity
  8
ROADS
100
AcDbPolyline
 90
2
 70
0
 10
632488.345197084
 20
4835225.525132204
 10
632476.5319278801
 20
4835260.948834119
  0
LWPOLYLINE
  5
1E8
330
17
100
AcDbEntity
  8
ROADS
100
AcDbPolyline
 90
2
 70
0
 10
632535.1750390984
 20
4835240.2288136585
 10
632575.5260915342
 20
4835251.574120603
  0
LWPOLYLINE
  5
1E9
330
17
100
AcDbEntity
  8
ROADS
100
AcDbPolyline
 90
2
 70
0
 10
632776.096470553
 20
4835215.190966909
 10
632751.1096154337
 20
4835290.972226414
  0
LWPOLYLINE
  5
1EA
330
17
100
AcDbEntity
  8
ROADS
100
AcDbPolyline
 90
2
 70
0
 10
632535.1750390984
 20
4835240.2288136585
 10
632523.292266443
 20
4835275.5692571625
  0
LWPOLYLINE
  5
1EB
330
17
100
AcDbEntity
  8
ROADS
100
AcDbPolyline
 90
2
 70
0
 10
632476.5319278801
 20
4835260.948834119
 10
632523.292266443
 20
4835275.5692571625
  0
LWPOLYLINE
  5
1EC
330
17
100
AcDbEntity
  8
ROADS
100
AcDbPolyline
 90
2
 70
0
 10
632523.292266443
 20
4835275.5692571625
 10
632560.8870331522
 20
4835287.250268562
  0
LWPOLYLINE
  5
1ED
330
17
100
AcDbEntity
  8
ROADS
100
AcDbPolyline
 90
2
 70
0
 10
632476.5319278801
 20
4835260.948834119
 10
632462.4011198548
 20
4835303.860220009
  0
LWPOLYLINE
  5
1EE
330
17
100
AcDbEntity
  8
ROADS
100
AcDbPolyline
 90
2
 70
0
 10
632741.4773194423
 20
4835288.180883881
 10
632751.1096154337
 20
4835290.972226414
  0
LWPOLYLINE
  5
1EF
330
17
100
AcDbEntity
  8
ROADS
100
AcDbPolyline
 90
2
 70
0
 10
631936.4797365152
 20
4835182.0478099305
 10
631915.1102259549
 20
4835246.8204362495
  0
LWPOLYLINE
  5
1F0
330
17
100
AcDbEntity
  8
ROADS
100
AcDbPolyline
 90
2
 70
0
 10
632056.238209883
 20
4835220.862621562
 10
632035.9783493724
 20
4835285.105287554
  0
LWPOLYLINE
  5
1F1
330
17
100
AcDbEntity
  8
ROADS
100
AcDbPolyline
 90
2
 70
0
 10
631915.1102259549
 20
4835246.8204362495
 10
632035.9783493724
 20
4835285.105287554
  0
LWPOLYLINE
  5
1F2
330
17
100
AcDbEntity
  8
ROADS
100
AcDbPolyline
 90
2
 70
0
 10
631915.1102259549
 20
4835246.8204362495
 10
631900.7522331019
 20
4835293.143981911
  0
LWPOLYLINE
  5
1F3
330
17
100
AcDbEntity
  8
ROADS
100
AcDbPolyline
 90
2
 70
0
 10
632035.9783493724
 20
4835285.105287554
 10
632015.2765998752
 20
4835349.449965601
  0
LWPOLYLINE
  5
1F4
330
17
100
AcDbEntity
  8
ROADS
100
AcDbPolyline
 90
2
 70
0
 10
631903.1010994036
 20
4835312.486366082
 10
631956.3562869257
 20
4835329.968364655
  0
LWPOLYLINE
  5
1F5
330
17
100
AcDbEntity
  8
ROADS
100
AcDbPolyline
 90
2
 70
0
 10
631956.3562869257
 20
4835329.968364655
 10
632015.2765998752
 20
4835349.449965601
  0
LWPOLYLINE
  5
1F6
330
17
100
AcDbEntity
  8
ROADS
100
AcDbPolyline
 90
2
 70
0
 10
632508.1342212891
 20
4835318.655092488
 10
632523.292266443
 20
4835275.5692571625
  0
LWPOLYLINE
  5
1F7
330
17
100
AcDbEntity
  8
ROADS
100
AcDbPolyline
 90
2
 70
0
 10
632751.1096154337
 20
4835290.972226414
 10
632793.8319896882
 20
4835305.1326341145
  0
LWPOLYLINE
  5
1F8
330
17
100
AcDbEntity
  8
ROADS
100
AcDbPolyline
 90
2
 70
0
 10
632489.338674837
 20
4835312.574850169
 10
632493.8938221917
 20
4835298.314086741
  0
LWPOLYLINE
  5
1F9
330
17
100
AcDbEntity
  8
ROADS
100
AcDbPolyline
 90
2
 70
0
 10
632462.4011198548
 20
4835303.860220009
 10
632489.338674837
 20
4835312.574850169
  0
LWPOLYLINE
  5
1FA
330
17
100
AcDbEntity
  8
ROADS
100
AcDbPolyline
 90
2
 70
0
 10
632525.7450002524
 20
4835324.27488242
 10
632533.3308635419
 20
4835301.413235318
  0
LWPOLYLINE
  5
1FB
330
17
100
AcDbEntity
  8
ROADS
100
AcDbPolyline
 90
2
 70
0
 10
632489.338674837
 20
4835312.574850169
 10
632508.1342212891
 20
4835318.655092488
  0
LWPOLYLINE
  5
1FC
330
17
100
AcDbEntity
  8
ROADS
100
AcDbPolyline
 90
2
 70
0
 10
632508.1342212891
 20
4835318.655092488
 10
632525.7450002524
 20
4835324.27488242
  0
LWPOLYLINE
  5
1FD
330
17
100
AcDbEntity
  8
ROADS
100
AcDbPolyline
 90
2
 70
0
 10
632489.338674837
 20
4835312.574850169
 10
632480.2301050232
 20
4835339.507283707
  0
LWPOLYLINE
  5
1FE
330
17
100
AcDbEntity
  8
ROADS
100
AcDbPolyline
 90
2
 70
0
 10
632508.1342212891
 20
4835318.655092488
 10
632498.3988825066
 20
4835345.95922601
  0
LWPOLYLINE
  5
1FF
330
17
100
AcDbEntity
  8
ROADS
100
AcDbPolyline
 90
2
 70
0
 10
632793.8319896882
 20
4835305.1326341145
 10
632773.8901553134
 20
4835366.05292528
  0
LWPOLYLINE
  5
200
330
17
100
AcDbEntity
  8
ROADS
100
AcDbPolyline
 90
2
 70
0
 10
632429.9438632189
 20
4835207.092989811
 10
632419.1405631143
 20
4835241.029328141
  0
LWPOLYLINE
  5
201
330
17
100
AcDbEntity
  8
ROADS
100
AcDbPolyline
 90
2
 70
0
 10
632419.1405631143
 20
4835241.029328141
 10
632383.6918628024
 20
4835229.354621339
  0
LWPOLYLINE
  5
202
330
17
100
AcDbEntity
  8
ROADS
100
AcDbPolyline
 90
3
 70
0
 10
632419.1405631143
 20
4835241.029328141
 10
632430.925069568
 20
4835245.366691956
 10
632422.7816306963
 20
4835271.798530466
  0
LWPOLYLINE
  5
203
330
17
100
AcDbEntity
  8
ROADS
100
AcDbPolyline
 90
2
 70
0
 10
632278.1429651789
 20
4835231.2217673985
 10
632388.2436110915
 20
4835323.208661956
  0
LWPOLYLINE
  5
204
330
17
100
AcDbEntity
  8
ROADS
100
AcDbPolyline
 90
2
 70
0
 10
632278.1429651789
 20
4835231.2217673985
 10
632238.7304688541
 20
4835353.888744099
  0
LWPOLYLINE
  5
205
330
17
100
AcDbEntity
  8
ROADS
100
AcDbPolyline
 90
2
 70
0
 10
632035.9783493724
 20
4835285.105287554
 10
632132.0272350884
 20
4835317.879081447
  0
LWPOLYLINE
  5
206
330
17
100
AcDbEntity
  8
ROADS
100
AcDbPolyline
 90
2
 70
0
 10
632132.0272350884
 20
4835317.879081447
 10
632238.7304688541
 20
4835353.888744099
  0
LWPOLYLINE
  5
207
330
17
100
AcDbEntity
  8
ROADS
100
AcDbPolyline
 90
2
 70
0
 10
632388.2436110915
 20
4835323.208661956
 10
632441.4987866738
 20
4835367.460295318
  0
LWPOLYLINE
  5
208
330
17
100
AcDbEntity
  8
ROADS
100
AcDbPolyline
 90
2
 70
0
 10
632132.0272350884
 20
4835317.879081447
 10
632088.7454882562
 20
4835454.040080092
  0
LWPOLYLINE
  5
209
330
17
100
AcDbEntity
  8
ROADS
100
AcDbPolyline
 90
2
 70
0
 10
632238.7304688541
 20
4835353.888744099
 10
632217.0711544068
 20
4835423.016514338
  0
LWPOLYLINE
  5
20A
330
17
100
AcDbEntity
  8
ROADS
100
AcDbPolyline
 90
2
 70
0
 10
632906.2196888363
 20
4835305.749327412
 10
632954.3998087153
 20
4835328.5230844235
  0
LWPOLYLINE
  5
20B
330
17
100
AcDbEntity
  8
ROADS
100
AcDbPolyline
 90
2
 70
0
 10
633057.543177326
 20
4835308.376026285
 10
633154.0028462608
 20
4835340.405288312
  0
LWPOLYLINE
  5
20C
330
17
100
AcDbEntity
  8
ROADS
100
AcDbPolyline
 90
2
 70
0
 10
632841.8745119307
 20
4835321.410385082
 10
632873.9959246935
 20
4835333.69751703
  0
LWPOLYLINE
  5
20D
330
17
100
AcDbEntity
  8
ROADS
100
AcDbPolyline
 90
2
 70
0
 10
633057.543177326
 20
4835308.376026285
 10
633042.9940829305
 20
4835352.821045006
  0
LWPOLYLINE
  5
20E
330
17
100
AcDbEntity
  8
ROADS
100
AcDbPolyline
 90
2
 70
0
 10
632873.9959246935
 20
4835333.69751703
 10
632885.183052507
 20
4835337.44554434
  0
LWPOLYLINE
  5
20F
330
17
100
AcDbEntity
  8
ROADS
100
AcDbPolyline
 90
2
 70
0
 10
632954.3998087153
 20
4835328.5230844235
 10
632969.093520941
 20
4835343.483888241
  0
LWPOLYLINE
  5
210
330
17
100
AcDbEntity
  8
ROADS
100
AcDbPolyline
 90
2
 70
0
 10
632841.8745119307
 20
4835321.410385082
 10
632827.8693569151
 20
4835355.931927004
  0
LWPOLYLINE
  5
211
330
17
100
AcDbEntity
  8
ROADS
100
AcDbPolyline
 90
2
 70
0
 10
632954.3998087153
 20
4835328.5230844235
 10
633042.9940829305
 20
4835352.821045006
  0
LWPOLYLINE
  5
212
330
17
100
AcDbEntity
  8
ROADS
100
AcDbPolyline
 90
2
 70
0
 10
632885.183052507
 20
4835337.44554434
 10
632914.3366204335
 20
4835347.277335144
  0
LWPOLYLINE
  5
213
330
17
100
AcDbEntity
  8
ROADS
100
AcDbPolyline
 90
2
 70
0
 10
633154.0028462608
 20
4835340.405288312
 10
633166.5505568606
 20
4835344.625451959
  0
LWPOLYLINE
  5
214
330
17
100
AcDbEntity
  8
ROADS
100
AcDbPolyline
 90
2
 70
0
 10
632462.4011198548
 20
4835303.860220009
 10
632441.4987866738
 20
4835367.460295318
  0
LWPOLYLINE
  5
215
330
17
100
AcDbEntity
  8
ROADS
100
AcDbPolyline
 90
2
 70
0
 10
632525.7450002524
 20
4835324.27488242
 10
632516.5038819507
 20
4835351.402937695
  0
LWPOLYLINE
  5
216
330
17
100
AcDbEntity
  8
ROADS
100
AcDbPolyline
 90
3
 70
0
 10
632751.1096154337
 20
4835290.972226414
 10
632712.5616580509
 20
4835412.723926981
 10
632750.3006302123
 20
4835424.56107916
  0
LWPOLYLINE
  5
217
330
17
100
AcDbEntity
  8
ROADS
100
AcDbPolyline
 90
2
 70
0
 10
632788.8687150482
 20
4835371.674138592
 10
632773.8901553134
 20
4835366.05292528
  0
LWPOLYLINE
  5
218
330
17
100
AcDbEntity
  8
ROADS
100
AcDbPolyline
 90
2
 70
0
 10
632812.3860959715
 20
4835377.3977195015
 10
632788.8687150482
 20
4835371.674138592
  0
LWPOLYLINE
  5
219
330
17
100
AcDbEntity
  8
ROADS
100
AcDbPolyline
 90
2
 70
0
 10
632773.8901553134
 20
4835366.05292528
 10
632763.3126193308
 20
4835391.980746499
  0
LWPOLYLINE
  5
21A
330
17
100
AcDbEntity
  8
ROADS
100
AcDbPolyline
 90
2
 70
0
 10
632441.4987866738
 20
4835367.460295318
 10
632432.1938067102
 20
4835395.963294693
  0
LWPOLYLINE
  5
21B
330
17
100
AcDbEntity
  8
ROADS
100
AcDbPolyline
 90
3
 70
0
 10
632788.8687150482
 20
4835371.674138592
 10
632780.1342469634
 20
4835397.274252928
 10
632763.3126193308
 20
4835391.980746499
  0
LWPOLYLINE
  5
21C
330
17
100
AcDbEntity
  8
ROADS
100
AcDbPolyline
 90
2
 70
0
 10
632657.7532214116
 20
4835178.125797675
 10
632546.5321905075
 20
4835608.01973859
  0
LWPOLYLINE
  5
21D
330
17
100
AcDbEntity
  8
ROADS
100
AcDbPolyline
 90
2
 70
0
 10
632674.9245970391
 20
4835183.517621776
 10
632581.0011666397
 20
4835614.088342514
  0
LWPOLYLINE
  5
21E
330
17
100
AcDbEntity
  8
ROADS
100
AcDbPolyline
 90
2
 70
0
 10
632944.6362376838
 20
4835357.166849616
 10
632922.9297003902
 20
4835423.759711824
  0
LWPOLYLINE
  5
21F
330
17
100
AcDbEntity
  8
ROADS
100
AcDbPolyline
 90
2
 70
0
 10
633166.5505568606
 20
4835344.625451959
 10
633132.9785771121
 20
4835444.214488128
  0
LWPOLYLINE
  5
220
330
17
100
AcDbEntity
  8
ROADS
100
AcDbPolyline
 90
2
 70
0
 10
632914.3366204335
 20
4835347.277335144
 10
632887.2750100982
 20
4835447.207514206
  0
LWPOLYLINE
  5
221
330
17
100
AcDbEntity
  8
ROADS
100
AcDbPolyline
 90
3
 70
0
 10
632922.9297003902
 20
4835423.759711824
 10
632961.1966069366
 20
4835436.5444909325
 10
632982.4389827659
 20
4835369.682209769
  0
LWPOLYLINE
  5
222
330
17
100
AcDbEntity
  8
ROADS
100
AcDbPolyline
 90
3
 70
0
 10
632812.3860959715
 20
4835377.3977195015
 10
632837.2238265636
 20
4835386.703451455
 10
632854.6339158971
 20
4835436.726118497
  0
LWPOLYLINE
  5
223
330
17
100
AcDbEntity
  8
ROADS
100
AcDbPolyline
 90
2
 70
0
 10
633216.9789677127
 20
4835422.270254223
 10
633220.7043137013
 20
4835410.26364047
  0
LWPOLYLINE
  5
224
330
17
100
AcDbEntity
  8
ROADS
100
AcDbPolyline
 90
2
 70
0
 10
632782.1787884342
 20
4835432.93301295
 10
632854.6339158971
 20
4835436.726118497
  0
LWPOLYLINE
  5
225
330
17
100
AcDbEntity
  8
ROADS
100
AcDbPolyline
 90
3
 70
0
 10
633174.0938729449
 20
4835457.378799299
 10
633189.1002914105
 20
4835413.112548928
 10
633216.9789677127
 20
4835422.270254223
  0
LWPOLYLINE
  5
226
330
17
100
AcDbEntity
  8
ROADS
100
AcDbPolyline
 90
2
 70
0
 10
633032.1677271483
 20
4835385.790447704
 10
632999.135294172
 20
4835484.743143248
  0
LWPOLYLINE
  5
227
330
17
100
AcDbEntity
  8
ROADS
100
AcDbPolyline
 90
2
 70
0
 10
632922.9297003902
 20
4835423.759711824
 10
632914.344290362
 20
4835455.663027185
  0
LWPOLYLINE
  5
228
330
17
100
AcDbEntity
  8
ROADS
100
AcDbPolyline
 90
2
 70
0
 10
632388.2436110915
 20
4835323.208661956
 10
632340.8366523131
 20
4835464.451082753
  0
LWPOLYLINE
  5
229
330
17
100
AcDbEntity
  8
ROADS
100
AcDbPolyline
 90
2
 70
0
 10
632311.015333702
 20
4835454.716233853
 10
632217.0711544068
 20
4835423.016514338
  0
LWPOLYLINE
  5
22A
330
17
100
AcDbEntity
  8
ROADS
100
AcDbPolyline
 90
2
 70
0
 10
632432.1938067102
 20
4835395.963294693
 10
632401.7864199171
 20
4835484.011755854
  0
LWPOLYLINE
  5
22B
330
17
100
AcDbEntity
  8
ROADS
100
AcDbPolyline
 90
2
 70
0
 10
632217.0711544068
 20
4835423.016514338
 10
632195.4139983318
 20
4835489.922144277
  0
LWPOLYLINE
  5
22C
330
17
100
AcDbEntity
  8
ROADS
100
AcDbPolyline
 90
2
 70
0
 10
632311.015333702
 20
4835454.716233853
 10
632340.8366523131
 20
4835464.451082753
  0
LWPOLYLINE
  5
22D
330
17
100
AcDbEntity
  8
ROADS
100
AcDbPolyline
 90
2
 70
0
 10
632088.7454882562
 20
4835454.040080092
 10
632151.8792048094
 20
4835472.854327455
  0
LWPOLYLINE
  5
22E
330
17
100
AcDbEntity
  8
ROADS
100
AcDbPolyline
 90
2
 70
0
 10
632340.8366523131
 20
4835464.451082753
 10
632401.7864199171
 20
4835484.011755854
  0
LWPOLYLINE
  5
22F
330
17
100
AcDbEntity
  8
ROADS
100
AcDbPolyline
 90
2
 70
0
 10
632151.8792048094
 20
4835472.854327455
 10
632195.4139983318
 20
4835489.922144277
  0
LWPOLYLINE
  5
230
330
17
100
AcDbEntity
  8
ROADS
100
AcDbPolyline
 90
2
 70
0
 10
632311.015333702
 20
4835454.716233853
 10
632288.9180762141
 20
4835522.509993036
  0
LWPOLYLINE
  5
231
330
17
100
AcDbEntity
  8
ROADS
100
AcDbPolyline
 90
2
 70
0
 10
632401.7864199171
 20
4835484.011755854
 10
632451.7149794024
 20
4835497.102029177
  0
LWPOLYLINE
  5
232
330
17
100
AcDbEntity
  8
ROADS
100
AcDbPolyline
 90
2
 70
0
 10
632432.1938067102
 20
4835395.963294693
 10
632478.658699519
 20
4835410.772408531
  0
LWPOLYLINE
  5
233
330
17
100
AcDbEntity
  8
ROADS
100
AcDbPolyline
 90
2
 70
0
 10
632812.3860959715
 20
4835377.3977195015
 10
632782.1787884342
 20
4835432.93301295
  0
LWPOLYLINE
  5
234
330
17
100
AcDbEntity
  8
ROADS
100
AcDbPolyline
 90
2
 70
0
 10
632763.3126193308
 20
4835391.980746499
 10
632750.3006302123
 20
4835424.56107916
  0
LWPOLYLINE
  5
235
330
17
100
AcDbEntity
  8
ROADS
100
AcDbPolyline
 90
2
 70
0
 10
632478.658699519
 20
4835410.772408531
 10
632521.1455116549
 20
4835423.522452607
  0
LWPOLYLINE
  5
236
330
17
100
AcDbEntity
  8
ROADS
100
AcDbPolyline
 90
2
 70
0
 10
632750.3006302123
 20
4835424.56107916
 10
632782.1787884342
 20
4835432.93301295
  0
LWPOLYLINE
  5
237
330
17
100
AcDbEntity
  8
ROADS
100
AcDbPolyline
 90
2
 70
0
 10
632521.1455116549
 20
4835423.522452607
 10
632566.126775595
 20
4835436.977648234
  0
LWPOLYLINE
  5
238
330
17
100
AcDbEntity
  8
ROADS
100
AcDbPolyline
 90
2
 70
0
 10
632478.658699519
 20
4835410.772408531
 10
632451.7149794024
 20
4835497.102029177
  0
LWPOLYLINE
  5
239
330
17
100
AcDbEntity
  8
ROADS
100
AcDbPolyline
 90
2
 70
0
 10
632521.1455116549
 20
4835423.522452607
 10
632493.1019402437
 20
4835509.562177917
  0
LWPOLYLINE
  5
23A
330
17
100
AcDbEntity
  8
ROADS
100
AcDbPolyline
 90
2
 70
0
 10
632782.1787884342
 20
4835432.93301295
 10
632760.0218454613
 20
4835504.082053329
  0
LWPOLYLINE
  5
23B
330
17
100
AcDbEntity
  8
ROADS
100
AcDbPolyline
 90
4
 70
0
 10
632754.341473607
 20
4835519.732592962
 10
632717.6151103515
 20
4835508.474780947
 10
632730.291803142
 20
4835460.8082109
 10
632694.8595323446
 20
4835448.997756892
  0
LWPOLYLINE
  5
23C
330
17
100
AcDbEntity
  8
ROADS
100
AcDbPolyline
 90
2
 70
0
 10
631956.3562869257
 20
4835329.968364655
 10
631933.4952237827
 20
4835403.393180003
  0
LWPOLYLINE
  5
23D
330
17
100
AcDbEntity
  8
ROADS
100
AcDbPolyline
 90
2
 70
0
 10
632015.2765998752
 20
4835349.449965601
 10
631992.7252993211
 20
4835422.556868147
  0
LWPOLYLINE
  5
23E
330
17
100
AcDbEntity
  8
ROADS
100
AcDbPolyline
 90
2
 70
0
 10
631920.229868561
 20
4835399.184228067
 10
631933.4952237827
 20
4835403.393180003
  0
LWPOLYLINE
  5
23F
330
17
100
AcDbEntity
  8
ROADS
100
AcDbPolyline
 90
2
 70
0
 10
631933.4952237827
 20
4835403.393180003
 10
631992.7252993211
 20
4835422.556868147
  0
LWPOLYLINE
  5
240
330
17
100
AcDbEntity
  8
ROADS
100
AcDbPolyline
 90
2
 70
0
 10
631992.7252993211
 20
4835422.556868147
 10
632043.4602710257
 20
4835439.312308389
  0
LWPOLYLINE
  5
241
330
17
100
AcDbEntity
  8
ROADS
100
AcDbPolyline
 90
2
 70
0
 10
633330.1400793642
 20
4835399.310076733
 10
633358.6333326031
 20
4835408.549901072
  0
LWPOLYLINE
  5
242
330
17
100
AcDbEntity
  8
ROADS
100
AcDbPolyline
 90
2
 70
0
 10
633420.6581001175
 20
4835390.970733252
 10
633410.1385191403
 20
4835425.474341061
  0
LWPOLYLINE
  5
243
330
17
100
AcDbEntity
  8
ROADS
100
AcDbPolyline
 90
2
 70
0
 10
633358.6333326031
 20
4835408.549901072
 10
633380.0994173898
 20
4835417.546674361
  0
LWPOLYLINE
  5
244
330
17
100
AcDbEntity
  8
ROADS
100
AcDbPolyline
 90
2
 70
0
 10
633306.507158176
 20
4835391.235209098
 10
633289.474331297
 20
4835443.09345122
  0
LWPOLYLINE
  5
245
330
17
100
AcDbEntity
  8
ROADS
100
AcDbPolyline
 90
2
 70
0
 10
633380.0994173898
 20
4835417.546674361
 10
633410.1385191403
 20
4835425.474341061
  0
LWPOLYLINE
  5
246
330
17
100
AcDbEntity
  8
ROADS
100
AcDbPolyline
 90
2
 70
0
 10
633503.3789049118
 20
4835403.271097204
 10
633487.8697895061
 20
4835452.1366729345
  0
LWPOLYLINE
  5
247
330
17
100
AcDbEntity
  8
ROADS
100
AcDbPolyline
 90
2
 70
0
 10
633410.1385191403
 20
4835425.474341061
 10
633435.5821535053
 20
4835435.067068739
  0
LWPOLYLINE
  5
248
330
17
100
AcDbEntity
  8
ROADS
100
AcDbPolyline
 90
2
 70
0
 10
633573.7087382082
 20
4835424.864221889
 10
633617.88510938
 20
4835439.590010078
  0
LWPOLYLINE
  5
249
330
17
100
AcDbEntity
  8
ROADS
100
AcDbPolyline
 90
2
 70
0
 10
633358.6333326031
 20
4835408.549901072
 10
633359.8672967344
 20
4835466.142829405
  0
LWPOLYLINE
  5
24A
330
17
100
AcDbEntity
  8
ROADS
100
AcDbPolyline
 90
2
 70
0
 10
633435.5821535053
 20
4835435.067068739
 10
633487.8697895061
 20
4835452.1366729345
  0
LWPOLYLINE
  5
24B
330
17
100
AcDbEntity
  8
ROADS
100
AcDbPolyline
 90
2
 70
0
 10
633617.88510938
 20
4835439.590010078
 10
633660.8019724896
 20
4835453.895999214
  0
LWPOLYLINE
  5
24C
330
17
100
AcDbEntity
  8
ROADS
100
AcDbPolyline
 90
2
 70
0
 10
633573.7087382082
 20
4835424.864221889
 10
633558.5814564169
 20
4835474.597779758
  0
LWPOLYLINE
  5
24D
330
17
100
AcDbEntity
  8
ROADS
100
AcDbPolyline
 90
2
 70
0
 10
633289.474331297
 20
4835443.09345122
 10
633359.8672967344
 20
4835466.142829405
  0
LWPOLYLINE
  5
24E
330
17
100
AcDbEntity
  8
ROADS
100
AcDbPolyline
 90
2
 70
0
 10
633435.5821535053
 20
4835435.067068739
 10
633438.3955445521
 20
4835488.107196315
  0
LWPOLYLINE
  5
24F
330
17
100
AcDbEntity
  8
ROADS
100
AcDbPolyline
 90
2
 70
0
 10
633487.8697895061
 20
4835452.1366729345
 10
633558.5814564169
 20
4835474.597779758
  0
LWPOLYLINE
  5
250
330
17
100
AcDbEntity
  8
ROADS
100
AcDbPolyline
 90
2
 70
0
 10
633289.474331297
 20
4835443.09345122
 10
633274.532507679
 20
4835490.203108792
  0
LWPOLYLINE
  5
251
330
17
100
AcDbEntity
  8
ROADS
100
AcDbPolyline
 90
2
 70
0
 10
633359.8672967344
 20
4835466.142829405
 10
633357.4663585604
 20
4835480.40057031
  0
LWPOLYLINE
  5
252
330
17
100
AcDbEntity
  8
ROADS
100
AcDbPolyline
 90
2
 70
0
 10
633660.8019724896
 20
4835453.895999214
 10
633645.8442204687
 20
4835503.434617678
  0
LWPOLYLINE
  5
253
330
17
100
AcDbEntity
  8
ROADS
100
AcDbPolyline
 90
2
 70
0
 10
633558.5814564169
 20
4835474.597779758
 10
633532.8034295052
 20
4835487.704833945
  0
LWPOLYLINE
  5
254
330
17
100
AcDbEntity
  8
ROADS
100
AcDbPolyline
 90
2
 70
0
 10
633558.5814564169
 20
4835474.597779758
 10
633645.8442204687
 20
4835503.434617678
  0
LWPOLYLINE
  5
255
330
17
100
AcDbEntity
  8
ROADS
100
AcDbPolyline
 90
2
 70
0
 10
634062.8127268984
 20
4835358.6445073895
 10
633995.3405413106
 20
4835574.306512089
  0
LWPOLYLINE
  5
256
330
17
100
AcDbEntity
  8
ROADS
100
AcDbPolyline
 90
2
 70
0
 10
633710.407145196
 20
4835469.930040672
 10
633758.5989401882
 20
4835485.370487929
  0
LWPOLYLINE
  5
257
330
17
100
AcDbEntity
  8
ROADS
100
AcDbPolyline
 90
3
 70
0
 10
633941.0101834177
 20
4835415.9283524845
 10
633901.049049793
 20
4835543.205378023
 10
633947.1392240444
 20
4835558.118808266
  0
LWPOLYLINE
  5
258
330
17
100
AcDbEntity
  8
ROADS
100
AcDbPolyline
 90
2
 70
0
 10
633758.5989401882
 20
4835485.370487929
 10
633855.3076226584
 20
4835517.576380654
  0
LWPOLYLINE
  5
259
330
17
100
AcDbEntity
  8
ROADS
100
AcDbPolyline
 90
2
 70
0
 10
633758.5989401882
 20
4835485.370487929
 10
633742.3393020008
 20
4835535.449628382
  0
LWPOLYLINE
  5
25A
330
17
100
AcDbEntity
  8
ROADS
100
AcDbPolyline
 90
2
 70
0
 10
633645.8442204687
 20
4835503.434617678
 10
633742.3393020008
 20
4835535.449628382
  0
LWPOLYLINE
  5
25B
330
17
100
AcDbEntity
  8
ROADS
100
AcDbPolyline
 90
2
 70
0
 10
633742.3393020008
 20
4835535.449628382
 10
633779.2844965485
 20
4835547.166469278
  0
LWPOLYLINE
  5
25C
330
17
100
AcDbEntity
  8
ROADS
100
AcDbPolyline
 90
2
 70
0
 10
633855.3076226584
 20
4835517.576380654
 10
633838.8331576833
 20
4835567.14660893
  0
LWPOLYLINE
  5
25D
330
17
100
AcDbEntity
  8
ROADS
100
AcDbPolyline
 90
2
 70
0
 10
633779.2844965485
 20
4835547.166469278
 10
633838.8331576833
 20
4835567.14660893
  0
LWPOLYLINE
  5
25E
330
17
100
AcDbEntity
  8
ROADS
100
AcDbPolyline
 90
2
 70
0
 10
633779.2844965485
 20
4835547.166469278
 10
633770.5329326652
 20
4835576.254630247
  0
LWPOLYLINE
  5
25F
330
17
100
AcDbEntity
  8
ROADS
100
AcDbPolyline
 90
2
 70
0
 10
632854.6339158971
 20
4835436.726118497
 10
632887.2750100982
 20
4835447.207514206
  0
LWPOLYLINE
  5
260
330
17
100
AcDbEntity
  8
ROADS
100
AcDbPolyline
 90
2
 70
0
 10
633216.9789677127
 20
4835422.270254223
 10
633199.2733650086
 20
4835465.926164519
  0
LWPOLYLINE
  5
261
330
17
100
AcDbEntity
  8
ROADS
100
AcDbPolyline
 90
2
 70
0
 10
633132.9785771121
 20
4835444.214488128
 10
633174.0938729449
 20
4835457.378799299
  0
LWPOLYLINE
  5
262
330
17
100
AcDbEntity
  8
ROADS
100
AcDbPolyline
 90
2
 70
0
 10
632887.2750100982
 20
4835447.207514206
 10
632914.344290362
 20
4835455.663027185
  0
LWPOLYLINE
  5
263
330
17
100
AcDbEntity
  8
ROADS
100
AcDbPolyline
 90
2
 70
0
 10
632914.344290362
 20
4835455.663027185
 10
632928.3957331707
 20
4835460.678438911
  0
LWPOLYLINE
  5
264
330
17
100
AcDbEntity
  8
ROADS
100
AcDbPolyline
 90
2
 70
0
 10
633174.0938729449
 20
4835457.378799299
 10
633199.2733650086
 20
4835465.926164519
  0
LWPOLYLINE
  5
265
330
17
100
AcDbEntity
  8
ROADS
100
AcDbPolyline
 90
2
 70
0
 10
632928.3957331707
 20
4835460.678438911
 10
632961.2634850038
 20
4835472.120512493
  0
LWPOLYLINE
  5
266
330
17
100
AcDbEntity
  8
ROADS
100
AcDbPolyline
 90
2
 70
0
 10
633199.2733650086
 20
4835465.926164519
 10
633274.532507679
 20
4835490.203108792
  0
LWPOLYLINE
  5
267
330
17
100
AcDbEntity
  8
ROADS
100
AcDbPolyline
 90
2
 70
0
 10
632961.2634850038
 20
4835472.120512493
 10
632999.135294172
 20
4835484.743143248
  0
LWPOLYLINE
  5
268
330
17
100
AcDbEntity
  8
ROADS
100
AcDbPolyline
 90
3
 70
0
 10
632999.135294172
 20
4835484.743143248
 10
633105.60316035
 20
4835527.203205489
 10
633132.9785771121
 20
4835444.214488128
  0
LWPOLYLINE
  5
269
330
17
100
AcDbEntity
  8
ROADS
100
AcDbPolyline
 90
2
 70
0
 10
633558.5814564169
 20
4835474.597779758
 10
633545.8121501665
 20
4835514.44116095
  0
LWPOLYLINE
  5
26A
330
17
100
AcDbEntity
  8
ROADS
100
AcDbPolyline
 90
2
 70
0
 10
633545.8121501665
 20
4835514.44116095
 10
633589.3965373252
 20
4835528.499204032
  0
LWPOLYLINE
  5
26B
330
17
100
AcDbEntity
  8
ROADS
100
AcDbPolyline
 90
2
 70
0
 10
633645.8442204687
 20
4835503.434617678
 10
633632.9606135901
 20
4835542.795902853
  0
LWPOLYLINE
  5
26C
330
17
100
AcDbEntity
  8
ROADS
100
AcDbPolyline
 90
2
 70
0
 10
633357.4663585604
 20
4835480.40057031
 10
633329.3571617693
 20
4835570.231623909
  0
LWPOLYLINE
  5
26D
330
17
100
AcDbEntity
  8
ROADS
100
AcDbPolyline
 90
2
 70
0
 10
633357.4663585604
 20
4835480.40057031
 10
633355.7318016398
 20
4835579.219142464
  0
LWPOLYLINE
  5
26E
330
17
100
AcDbEntity
  8
ROADS
100
AcDbPolyline
 90
2
 70
0
 10
633589.3965373252
 20
4835528.499204032
 10
633632.9606135901
 20
4835542.795902853
  0
LWPOLYLINE
  5
26F
330
17
100
AcDbEntity
  8
ROADS
100
AcDbPolyline
 90
2
 70
0
 10
633632.9606135901
 20
4835542.795902853
 10
633624.260237229
 20
4835574.861217836
  0
LWPOLYLINE
  5
270
330
17
100
AcDbEntity
  8
ROADS
100
AcDbPolyline
 90
2
 70
0
 10
633545.8121501665
 20
4835514.44116095
 10
633515.5731434636
 20
4835609.561186716
  0
LWPOLYLINE
  5
271
330
17
100
AcDbEntity
  8
ROADS
100
AcDbPolyline
 90
2
 70
0
 10
633329.3571617693
 20
4835570.231623909
 10
633355.7318016398
 20
4835579.219142464
  0
LWPOLYLINE
  5
272
330
17
100
AcDbEntity
  8
ROADS
100
AcDbPolyline
 90
2
 70
0
 10
633589.3965373252
 20
4835528.499204032
 10
633559.439376607
 20
4835623.407319083
  0
LWPOLYLINE
  5
273
330
17
100
AcDbEntity
  8
ROADS
100
AcDbPolyline
 90
2
 70
0
 10
632854.6339158971
 20
4835436.726118497
 10
632817.406184288
 20
4835578.547285946
  0
LWPOLYLINE
  5
274
330
17
100
AcDbEntity
  8
ROADS
100
AcDbPolyline
 90
2
 70
0
 10
632887.2750100982
 20
4835447.207514206
 10
632848.3389037128
 20
4835587.492689529
  0
LWPOLYLINE
  5
275
330
17
100
AcDbEntity
  8
ROADS
100
AcDbPolyline
 90
2
 70
0
 10
632928.3957331707
 20
4835460.678438911
 10
632882.2415531097
 20
4835598.00390847
  0
LWPOLYLINE
  5
276
330
17
100
AcDbEntity
  8
ROADS
100
AcDbPolyline
 90
2
 70
0
 10
633199.2733650086
 20
4835465.926164519
 10
633152.3643638091
 20
4835602.572544964
  0
LWPOLYLINE
  5
277
330
17
100
AcDbEntity
  8
ROADS
100
AcDbPolyline
 90
3
 70
0
 10
632868.3868757029
 20
4835639.633723912
 10
632904.121894563
 20
4835650.851630302
 10
632961.2634850038
 20
4835472.120512493
  0
LWPOLYLINE
  5
278
330
17
100
AcDbEntity
  8
ROADS
100
AcDbPolyline
 90
2
 70
0
 10
632848.3389037128
 20
4835587.492689529
 10
632882.2415531097
 20
4835598.00390847
  0
LWPOLYLINE
  5
279
330
17
100
AcDbEntity
  8
ROADS
100
AcDbPolyline
 90
2
 70
0
 10
632999.135294172
 20
4835484.743143248
 10
632926.801924865
 20
4835703.387791539
  0
LWPOLYLINE
  5
27A
330
17
100
AcDbEntity
  8
ROADS
100
AcDbPolyline
 90
2
 70
0
 10
633274.532507679
 20
4835490.203108792
 10
633199.6970419007
 20
4835725.045994766
  0
LWPOLYLINE
  5
27B
330
17
100
AcDbEntity
  8
ROADS
100
AcDbPolyline
 90
3
 70
0
 10
632848.3389037128
 20
4835587.492689529
 10
632835.0617423707
 20
4835628.70940903
 10
632868.3868757029
 20
4835639.633723912
  0
LWPOLYLINE
  5
27C
330
17
100
AcDbEntity
  8
ROADS
100
AcDbPolyline
 90
2
 70
0
 10
632882.2415531097
 20
4835598.00390847
 10
632868.3868757029
 20
4835639.633723912
  0
LWPOLYLINE
  5
27D
330
17
100
AcDbEntity
  8
ROADS
100
AcDbPolyline
 90
2
 70
0
 10
633947.1392240444
 20
4835558.118808266
 10
633995.3405413106
 20
4835574.306512089
  0
LWPOLYLINE
  5
27E
330
17
100
AcDbEntity
  8
ROADS
100
AcDbPolyline
 90
3
 70
0
 10
633770.5329326652
 20
4835576.254630247
 10
633719.846581113
 20
4835559.450962342
 10
633712.2409524187
 20
4835583.569429928
  0
LWPOLYLINE
  5
27F
330
17
100
AcDbEntity
  8
ROADS
100
AcDbPolyline
 90
2
 70
0
 10
633947.1392240444
 20
4835558.118808266
 10
633937.2685924273
 20
4835599.347248318
  0
LWPOLYLINE
  5
280
330
17
100
AcDbEntity
  8
ROADS
100
AcDbPolyline
 90
2
 70
0
 10
633995.3405413106
 20
4835574.306512089
 10
634041.362247718
 20
4835589.522737754
  0
LWPOLYLINE
  5
281
330
17
100
AcDbEntity
  8
ROADS
100
AcDbPolyline
 90
2
 70
0
 10
633838.8331576833
 20
4835567.14660893
 10
633937.2685924273
 20
4835599.347248318
  0
LWPOLYLINE
  5
282
330
17
100
AcDbEntity
  8
ROADS
100
AcDbPolyline
 90
2
 70
0
 10
633770.5329326652
 20
4835576.254630247
 10
633756.2243072646
 20
4835618.8734312495
  0
LWPOLYLINE
  5
283
330
17
100
AcDbEntity
  8
ROADS
100
AcDbPolyline
 90
2
 70
0
 10
633661.1797352962
 20
4835587.666682974
 10
633756.2243072646
 20
4835618.8734312495
  0
LWPOLYLINE
  5
284
330
17
100
AcDbEntity
  8
ROADS
100
AcDbPolyline
 90
2
 70
0
 10
634041.362247718
 20
4835589.522737754
 10
634029.6366721585
 20
4835629.38404238
  0
LWPOLYLINE
  5
285
330
17
100
AcDbEntity
  8
ROADS
100
AcDbPolyline
 90
2
 70
0
 10
633937.2685924273
 20
4835599.347248318
 10
634029.6366721585
 20
4835629.38404238
  0
LWPOLYLINE
  5
286
330
17
100
AcDbEntity
  8
ROADS
100
AcDbPolyline
 90
2
 70
0
 10
633937.2685924273
 20
4835599.347248318
 10
633926.153892291
 20
4835645.662612493
  0
LWPOLYLINE
  5
287
330
17
100
AcDbEntity
  8
ROADS
100
AcDbPolyline
 90
2
 70
0
 10
633624.260237229
 20
4835574.861217836
 10
633661.1797352962
 20
4835587.666682974
  0
LWPOLYLINE
  5
288
330
17
100
AcDbEntity
  8
ROADS
100
AcDbPolyline
 90
2
 70
0
 10
633624.260237229
 20
4835574.861217836
 10
633603.7549845398
 20
4835637.511599722
  0
LWPOLYLINE
  5
289
330
17
100
AcDbEntity
  8
ROADS
100
AcDbPolyline
 90
2
 70
0
 10
633515.5731434636
 20
4835609.561186716
 10
633544.8146383356
 20
4835618.791559774
  0
LWPOLYLINE
  5
28A
330
17
100
AcDbEntity
  8
ROADS
100
AcDbPolyline
 90
2
 70
0
 10
633661.1797352962
 20
4835587.666682974
 10
633638.2191338069
 20
4835650.518699355
  0
LWPOLYLINE
  5
28B
330
17
100
AcDbEntity
  8
ROADS
100
AcDbPolyline
 90
2
 70
0
 10
633544.8146383356
 20
4835618.791559774
 10
633559.439376607
 20
4835623.407319083
  0
LWPOLYLINE
  5
28C
330
17
100
AcDbEntity
  8
ROADS
100
AcDbPolyline
 90
2
 70
0
 10
633559.439376607
 20
4835623.407319083
 10
633603.7549845398
 20
4835637.511599722
  0
LWPOLYLINE
  5
28D
330
17
100
AcDbEntity
  8
ROADS
100
AcDbPolyline
 90
3
 70
0
 10
633544.8146383356
 20
4835618.791559774
 10
633536.2251076525
 20
4835646.1084847655
 10
633550.8222689976
 20
4835650.53473131
  0
LWPOLYLINE
  5
28E
330
17
100
AcDbEntity
  8
ROADS
100
AcDbPolyline
 90
2
 70
0
 10
633559.439376607
 20
4835623.407319083
 10
633550.8222689976
 20
4835650.53473131
  0
LWPOLYLINE
  5
28F
330
17
100
AcDbEntity
  8
ROADS
100
AcDbPolyline
 90
2
 70
0
 10
633603.7549845398
 20
4835637.511599722
 10
633638.2191338069
 20
4835650.518699355
  0
LWPOLYLINE
  5
290
330
17
100
AcDbEntity
  8
ROADS
100
AcDbPolyline
 90
2
 70
0
 10
633638.2191338069
 20
4835650.518699355
 10
633665.4130763686
 20
4835659.522044851
  0
LWPOLYLINE
  5
291
330
17
100
AcDbEntity
  8
ROADS
100
AcDbPolyline
 90
2
 70
0
 10
633838.8331576833
 20
4835567.14660893
 10
633796.0059931547
 20
4835701.158315007
  0
LWPOLYLINE
  5
292
330
17
100
AcDbEntity
  8
ROADS
100
AcDbPolyline
 90
2
 70
0
 10
633756.2243072646
 20
4835618.8734312495
 10
633737.4816666777
 20
4835681.441693453
  0
LWPOLYLINE
  5
293
330
17
100
AcDbEntity
  8
ROADS
100
AcDbPolyline
 90
2
 70
0
 10
634029.6366721585
 20
4835629.38404238
 10
634014.7032922443
 20
4835676.63196039
  0
LWPOLYLINE
  5
294
330
17
100
AcDbEntity
  8
ROADS
100
AcDbPolyline
 90
2
 70
0
 10
633926.153892291
 20
4835645.662612493
 10
633970.6402723258
 20
4835661.221117273
  0
LWPOLYLINE
  5
295
330
17
100
AcDbEntity
  8
ROADS
100
AcDbPolyline
 90
2
 70
0
 10
633665.4130763686
 20
4835659.522044851
 10
633698.6507573557
 20
4835668.926684003
  0
LWPOLYLINE
  5
296
330
17
100
AcDbEntity
  8
ROADS
100
AcDbPolyline
 90
2
 70
0
 10
633970.6402723258
 20
4835661.221117273
 10
634014.7032922443
 20
4835676.63196039
  0
LWPOLYLINE
  5
297
330
17
100
AcDbEntity
  8
ROADS
100
AcDbPolyline
 90
2
 70
0
 10
633665.4130763686
 20
4835659.522044851
 10
633670.9835187915
 20
4835679.657382612
  0
LWPOLYLINE
  5
298
330
17
100
AcDbEntity
  8
ROADS
100
AcDbPolyline
 90
2
 70
0
 10
633698.6507573557
 20
4835668.926684003
 10
633670.9835187915
 20
4835679.657382612
  0
LWPOLYLINE
  5
299
330
17
100
AcDbEntity
  8
ROADS
100
AcDbPolyline
 90
2
 70
0
 10
633698.6507573557
 20
4835668.926684003
 10
633737.4816666777
 20
4835681.441693453
  0
LWPOLYLINE
  5
29A
330
17
100
AcDbEntity
  8
ROADS
100
AcDbPolyline
 90
2
 70
0
 10
633665.4130763686
 20
4835659.522044851
 10
633648.0349481271
 20
4835714.766361933
  0
LWPOLYLINE
  5
29B
330
17
100
AcDbEntity
  8
ROADS
100
AcDbPolyline
 90
2
 70
0
 10
634154.5588821929
 20
4835626.457146072
 10
634195.0602228772
 20
4835640.009950716
  0
LWPOLYLINE
  5
29C
330
17
100
AcDbEntity
  8
ROADS
100
AcDbPolyline
 90
2
 70
0
 10
634195.0602228772
 20
4835640.009950716
 10
634232.8620468065
 20
4835651.311269941
  0
LWPOLYLINE
  5
29D
330
17
100
AcDbEntity
  8
ROADS
100
AcDbPolyline
 90
2
 70
0
 10
634154.5588821929
 20
4835626.457146072
 10
634142.1439716705
 20
4835666.4440114675
  0
LWPOLYLINE
  5
29E
330
17
100
AcDbEntity
  8
ROADS
100
AcDbPolyline
 90
2
 70
0
 10
634029.6366721585
 20
4835629.38404238
 10
634142.1439716705
 20
4835666.4440114675
  0
LWPOLYLINE
  5
29F
330
17
100
AcDbEntity
  8
ROADS
100
AcDbPolyline
 90
2
 70
0
 10
634232.8620468065
 20
4835651.311269941
 10
634270.9529411437
 20
4835663.950432276
  0
LWPOLYLINE
  5
2A0
330
17
100
AcDbEntity
  8
ROADS
100
AcDbPolyline
 90
2
 70
0
 10
634232.8620468065
 20
4835651.311269941
 10
634219.0415405675
 20
4835692.375322399
  0
LWPOLYLINE
  5
2A1
330
17
100
AcDbEntity
  8
ROADS
100
AcDbPolyline
 90
2
 70
0
 10
634142.1439716705
 20
4835666.4440114675
 10
634174.4011032013
 20
4835677.260054061
  0
LWPOLYLINE
  5
2A2
330
17
100
AcDbEntity
  8
ROADS
100
AcDbPolyline
 90
2
 70
0
 10
634174.4011032013
 20
4835677.260054061
 10
634219.0415405675
 20
4835692.375322399
  0
LWPOLYLINE
  5
2A3
330
17
100
AcDbEntity
  8
ROADS
100
AcDbPolyline
 90
2
 70
0
 10
632043.4602710257
 20
4835439.312308389
 10
632088.7454882562
 20
4835454.040080092
  0
LWPOLYLINE
  5
2A4
330
17
100
AcDbEntity
  8
ROADS
100
AcDbPolyline
 90
2
 70
0
 10
631992.7252993211
 20
4835422.556868147
 10
631967.9943229563
 20
4835498.733591182
  0
LWPOLYLINE
  5
2A5
330
17
100
AcDbEntity
  8
ROADS
100
AcDbPolyline
 90
2
 70
0
 10
632043.4602710257
 20
4835439.312308389
 10
632029.1595518177
 20
4835490.29400891
  0
LWPOLYLINE
  5
2A6
330
17
100
AcDbEntity
  8
ROADS
100
AcDbPolyline
 90
2
 70
0
 10
631950.737501671
 20
4835493.082868888
 10
631967.9943229563
 20
4835498.733591182
  0
LWPOLYLINE
  5
2A7
330
17
100
AcDbEntity
  8
ROADS
100
AcDbPolyline
 90
2
 70
0
 10
632059.071857026
 20
4835496.598902777
 10
632066.0236622082
 20
4835474.788909355
  0
LWPOLYLINE
  5
2A8
330
17
100
AcDbEntity
  8
ROADS
100
AcDbPolyline
 90
2
 70
0
 10
632029.1595518177
 20
4835490.29400891
 10
632059.071857026
 20
4835496.598902777
  0
LWPOLYLINE
  5
2A9
330
17
100
AcDbEntity
  8
ROADS
100
AcDbPolyline
 90
2
 70
0
 10
632029.1595518177
 20
4835490.29400891
 10
632018.630115366
 20
4835515.166224259
  0
LWPOLYLINE
  5
2AA
330
17
100
AcDbEntity
  8
ROADS
100
AcDbPolyline
 90
2
 70
0
 10
631967.9943229563
 20
4835498.733591182
 10
632018.630115366
 20
4835515.166224259
  0
LWPOLYLINE
  5
2AB
330
17
100
AcDbEntity
  8
ROADS
100
AcDbPolyline
 90
2
 70
0
 10
631967.9943229563
 20
4835498.733591182
 10
631962.0095101991
 20
4835518.632334223
  0
LWPOLYLINE
  5
2AC
330
17
100
AcDbEntity
  8
ROADS
100
AcDbPolyline
 90
3
 70
0
 10
632151.8792048094
 20
4835472.854327455
 10
632132.8313570214
 20
4835520.614145449
 10
632121.4417397014
 20
4835517.447003913
  0
LWPOLYLINE
  5
2AD
330
17
100
AcDbEntity
  8
ROADS
100
AcDbPolyline
 90
2
 70
0
 10
632195.4139983318
 20
4835489.922144277
 10
632288.9180762141
 20
4835522.509993036
  0
LWPOLYLINE
  5
2AE
330
17
100
AcDbEntity
  8
ROADS
100
AcDbPolyline
 90
2
 70
0
 10
632059.071857026
 20
4835496.598902777
 10
632121.4417397014
 20
4835517.447003913
  0
LWPOLYLINE
  5
2AF
330
17
100
AcDbEntity
  8
ROADS
100
AcDbPolyline
 90
2
 70
0
 10
632401.7864199171
 20
4835484.011755854
 10
632380.4775516129
 20
4835553.630591813
  0
LWPOLYLINE
  5
2B0
330
17
100
AcDbEntity
  8
ROADS
100
AcDbPolyline
 90
2
 70
0
 10
632195.4139983318
 20
4835489.922144277
 10
632171.5604221129
 20
4835565.359713657
  0
LWPOLYLINE
  5
2B1
330
17
100
AcDbEntity
  8
ROADS
100
AcDbPolyline
 90
2
 70
0
 10
632288.9180762141
 20
4835522.509993036
 10
632380.4775516129
 20
4835553.630591813
  0
LWPOLYLINE
  5
2B2
330
17
100
AcDbEntity
  8
ROADS
100
AcDbPolyline
 90
2
 70
0
 10
632098.42906401
 20
4835588.578927171
 10
632121.4417397014
 20
4835517.447003913
  0
LWPOLYLINE
  5
2B3
330
17
100
AcDbEntity
  8
ROADS
100
AcDbPolyline
 90
2
 70
0
 10
632288.9180762141
 20
4835522.509993036
 10
632265.4200283948
 20
4835595.595827494
  0
LWPOLYLINE
  5
2B4
330
17
100
AcDbEntity
  8
ROADS
100
AcDbPolyline
 90
2
 70
0
 10
632380.4775516129
 20
4835553.630591813
 10
632366.9271594416
 20
4835593.91974374
  0
LWPOLYLINE
  5
2B5
330
17
100
AcDbEntity
  8
ROADS
100
AcDbPolyline
 90
2
 70
0
 10
632171.5604221129
 20
4835565.359713657
 10
632265.4200283948
 20
4835595.595827494
  0
LWPOLYLINE
  5
2B6
330
17
100
AcDbEntity
  8
ROADS
100
AcDbPolyline
 90
2
 70
0
 10
632018.630115366
 20
4835515.166224259
 10
632011.06286066
 20
4835553.385838821
  0
LWPOLYLINE
  5
2B7
330
17
100
AcDbEntity
  8
ROADS
100
AcDbPolyline
 90
2
 70
0
 10
631972.9963645334
 20
4835543.535460693
 10
631973.0494827435
 20
4835543.552388631
  0
LWPOLYLINE
  5
2B8
330
17
100
AcDbEntity
  8
ROADS
100
AcDbPolyline
 90
2
 70
0
 10
631973.0494827435
 20
4835543.552388631
 10
632011.06286066
 20
4835553.385838821
  0
LWPOLYLINE
  5
2B9
330
17
100
AcDbEntity
  8
ROADS
100
AcDbPolyline
 90
2
 70
0
 10
631973.0494827435
 20
4835543.552388631
 10
631973.023838336
 20
4835543.59773362
  0
LWPOLYLINE
  5
2BA
330
17
100
AcDbEntity
  8
ROADS
100
AcDbPolyline
 90
2
 70
0
 10
631973.0494827435
 20
4835543.552388631
 10
631973.0365769523
 20
4835543.626607342
  0
LWPOLYLINE
  5
2BB
330
17
100
AcDbEntity
  8
ROADS
100
AcDbPolyline
 90
2
 70
0
 10
632011.06286066
 20
4835553.385838821
 10
632008.521575296
 20
4835584.298754167
  0
LWPOLYLINE
  5
2BC
330
17
100
AcDbEntity
  8
ROADS
100
AcDbPolyline
 90
3
 70
0
 10
632806.0628575883
 20
4835483.924784792
 10
632796.8725354436
 20
4835510.454729921
 10
632760.0218454613
 20
4835504.082053329
  0
LWPOLYLINE
  5
2BD
330
17
100
AcDbEntity
  8
ROADS
100
AcDbPolyline
 90
2
 70
0
 10
632451.7149794024
 20
4835497.102029177
 10
632493.1019402437
 20
4835509.562177917
  0
LWPOLYLINE
  5
2BE
330
17
100
AcDbEntity
  8
ROADS
100
AcDbPolyline
 90
2
 70
0
 10
632760.0218454613
 20
4835504.082053329
 10
632754.341473607
 20
4835519.732592962
  0
LWPOLYLINE
  5
2BF
330
17
100
AcDbEntity
  8
ROADS
100
AcDbPolyline
 90
2
 70
0
 10
632493.1019402437
 20
4835509.562177917
 10
632551.4809428685
 20
4835527.956969815
  0
LWPOLYLINE
  5
2C0
330
17
100
AcDbEntity
  8
ROADS
100
AcDbPolyline
 90
2
 70
0
 10
632778.729012535
 20
4835519.421440395
 10
632765.2211792438
 20
4835561.836577862
  0
LWPOLYLINE
  5
2C1
330
17
100
AcDbEntity
  8
ROADS
100
AcDbPolyline
 90
2
 70
0
 10
632803.7722964132
 20
4835522.280391297
 10
632788.420879069
 20
4835568.702518472
  0
LWPOLYLINE
  5
2C2
330
17
100
AcDbEntity
  8
ROADS
100
AcDbPolyline
 90
2
 70
0
 10
632765.2211792438
 20
4835561.836577862
 10
632788.420879069
 20
4835568.702518472
  0
LWPOLYLINE
  5
2C3
330
17
100
AcDbEntity
  8
ROADS
100
AcDbPolyline
 90
2
 70
0
 10
632788.420879069
 20
4835568.702518472
 10
632817.406184288
 20
4835578.547285946
  0
LWPOLYLINE
  5
2C4
330
17
100
AcDbEntity
  8
ROADS
100
AcDbPolyline
 90
2
 70
0
 10
632380.4775516129
 20
4835553.630591813
 10
632524.0439782877
 20
4835601.628699127
  0
LWPOLYLINE
  5
2C5
330
17
100
AcDbEntity
  8
ROADS
100
AcDbPolyline
 90
2
 70
0
 10
632754.341473607
 20
4835519.732592962
 10
632723.9701781281
 20
4835639.984970954
  0
LWPOLYLINE
  5
2C6
330
17
100
AcDbEntity
  8
ROADS
100
AcDbPolyline
 90
2
 70
0
 10
632171.5604221129
 20
4835565.359713657
 10
632159.4605558788
 20
4835604.519976044
  0
LWPOLYLINE
  5
2C7
330
17
100
AcDbEntity
  8
ROADS
100
AcDbPolyline
 90
2
 70
0
 10
632098.42906401
 20
4835588.578927171
 10
632131.5536358336
 20
4835595.38077378
  0
LWPOLYLINE
  5
2C8
330
17
100
AcDbEntity
  8
ROADS
100
AcDbPolyline
 90
2
 70
0
 10
632098.42906401
 20
4835588.578927171
 10
632091.5864731433
 20
4835610.432398199
  0
LWPOLYLINE
  5
2C9
330
17
100
AcDbEntity
  8
ROADS
100
AcDbPolyline
 90
2
 70
0
 10
632131.5536358336
 20
4835595.38077378
 10
632159.4605558788
 20
4835604.519976044
  0
LWPOLYLINE
  5
2CA
330
17
100
AcDbEntity
  8
ROADS
100
AcDbPolyline
 90
2
 70
0
 10
632366.9271594416
 20
4835593.91974374
 10
632448.5805260083
 20
4835621.021973949
  0
LWPOLYLINE
  5
2CB
330
17
100
AcDbEntity
  8
ROADS
100
AcDbPolyline
 90
2
 70
0
 10
632131.5536358336
 20
4835595.38077378
 10
632123.5968683555
 20
4835620.50285495
  0
LWPOLYLINE
  5
2CC
330
17
100
AcDbEntity
  8
ROADS
100
AcDbPolyline
 90
2
 70
0
 10
632366.9271594416
 20
4835593.91974374
 10
632356.456126926
 20
4835625.074855737
  0
LWPOLYLINE
  5
2CD
330
17
100
AcDbEntity
  8
ROADS
100
AcDbPolyline
 90
2
 70
0
 10
632265.4200283948
 20
4835595.595827494
 10
632356.456126926
 20
4835625.074855737
  0
LWPOLYLINE
  5
2CE
330
17
100
AcDbEntity
  8
ROADS
100
AcDbPolyline
 90
2
 70
0
 10
632123.5968683555
 20
4835620.50285495
 10
632091.5864731433
 20
4835610.432398199
  0
LWPOLYLINE
  5
2CF
330
17
100
AcDbEntity
  8
ROADS
100
AcDbPolyline
 90
2
 70
0
 10
632159.4605558788
 20
4835604.519976044
 10
632151.8185174629
 20
4835629.381728856
  0
LWPOLYLINE
  5
2D0
330
17
100
AcDbEntity
  8
ROADS
100
AcDbPolyline
 90
2
 70
0
 10
632765.2211792438
 20
4835561.836577862
 10
632749.6446045833
 20
4835609.759745313
  0
LWPOLYLINE
  5
2D1
330
17
100
AcDbEntity
  8
ROADS
100
AcDbPolyline
 90
2
 70
0
 10
632788.420879069
 20
4835568.702518472
 10
632773.447004476
 20
4835617.14262517
  0
LWPOLYLINE
  5
2D2
330
17
100
AcDbEntity
  8
ROADS
100
AcDbPolyline
 90
2
 70
0
 10
632817.406184288
 20
4835578.547285946
 10
632801.5185249544
 20
4835626.528840914
  0
LWPOLYLINE
  5
2D3
330
17
100
AcDbEntity
  8
ROADS
100
AcDbPolyline
 90
2
 70
0
 10
632524.0439782877
 20
4835601.628699127
 10
632546.5321905075
 20
4835608.01973859
  0
LWPOLYLINE
  5
2D4
330
17
100
AcDbEntity
  8
ROADS
100
AcDbPolyline
 90
2
 70
0
 10
632739.6595865476
 20
4835606.841007107
 10
632749.6446045833
 20
4835609.759745313
  0
LWPOLYLINE
  5
2D5
330
17
100
AcDbEntity
  8
ROADS
100
AcDbPolyline
 90
2
 70
0
 10
632546.5321905075
 20
4835608.01973859
 10
632562.6763937179
 20
4835610.843813821
  0
LWPOLYLINE
  5
2D6
330
17
100
AcDbEntity
  8
ROADS
100
AcDbPolyline
 90
2
 70
0
 10
632562.6763937179
 20
4835610.843813821
 10
632581.0011666397
 20
4835614.088342514
  0
LWPOLYLINE
  5
2D7
330
17
100
AcDbEntity
  8
ROADS
100
AcDbPolyline
 90
2
 70
0
 10
632749.6446045833
 20
4835609.759745313
 10
632773.447004476
 20
4835617.14262517
  0
LWPOLYLINE
  5
2D8
330
17
100
AcDbEntity
  8
ROADS
100
AcDbPolyline
 90
2
 70
0
 10
632773.447004476
 20
4835617.14262517
 10
632801.5185249544
 20
4835626.528840914
  0
LWPOLYLINE
  5
2D9
330
17
100
AcDbEntity
  8
ROADS
100
AcDbPolyline
 90
2
 70
0
 10
632581.0011666397
 20
4835614.088342514
 10
632723.9701781281
 20
4835639.984970954
  0
LWPOLYLINE
  5
2DA
330
17
100
AcDbEntity
  8
ROADS
100
AcDbPolyline
 90
2
 70
0
 10
632011.06286066
 20
4835553.385838821
 10
632098.42906401
 20
4835588.578927171
  0
LWPOLYLINE
  5
2DB
330
17
100
AcDbEntity
  8
ROADS
100
AcDbPolyline
 90
2
 70
0
 10
632008.521575296
 20
4835584.298754167
 10
631991.2505606432
 20
4835578.847323515
  0
LWPOLYLINE
  5
2DC
330
17
100
AcDbEntity
  8
ROADS
100
AcDbPolyline
 90
2
 70
0
 10
632091.5864731433
 20
4835610.432398199
 10
632008.521575296
 20
4835584.298754167
  0
LWPOLYLINE
  5
2DD
330
17
100
AcDbEntity
  8
ROADS
100
AcDbPolyline
 90
2
 70
0
 10
632151.8185174629
 20
4835629.381728856
 10
632123.5968683555
 20
4835620.50285495
  0
LWPOLYLINE
  5
2DE
330
17
100
AcDbEntity
  8
ROADS
100
AcDbPolyline
 90
2
 70
0
 10
632265.4200283948
 20
4835595.595827494
 10
632244.5125447251
 20
4835660.086823513
  0
LWPOLYLINE
  5
2DF
330
17
100
AcDbEntity
  8
ROADS
100
AcDbPolyline
 90
2
 70
0
 10
632356.456126926
 20
4835625.074855737
 10
632405.0530972905
 20
4835641.104636711
  0
LWPOLYLINE
  5
2E0
330
17
100
AcDbEntity
  8
ROADS
100
AcDbPolyline
 90
2
 70
0
 10
632356.456126926
 20
4835625.074855737
 10
632381.5309532462
 20
4835654.785458455
  0
LWPOLYLINE
  5
2E1
330
17
100
AcDbEntity
  8
ROADS
100
AcDbPolyline
 90
2
 70
0
 10
632356.456126926
 20
4835625.074855737
 10
632344.1027204156
 20
4835662.10588974
  0
LWPOLYLINE
  5
2E2
330
17
100
AcDbEntity
  8
ROADS
100
AcDbPolyline
 90
2
 70
0
 10
632244.5125447251
 20
4835660.086823513
 10
632151.8185174629
 20
4835629.381728856
  0
LWPOLYLINE
  5
2E3
330
17
100
AcDbEntity
  8
ROADS
100
AcDbPolyline
 90
2
 70
0
 10
632405.0530972905
 20
4835641.104636711
 10
632381.5309532462
 20
4835654.785458455
  0
LWPOLYLINE
  5
2E4
330
17
100
AcDbEntity
  8
ROADS
100
AcDbPolyline
 90
2
 70
0
 10
632344.1027204156
 20
4835662.10588974
 10
632381.5309532462
 20
4835654.785458455
  0
LWPOLYLINE
  5
2E5
330
17
100
AcDbEntity
  8
ROADS
100
AcDbPolyline
 90
2
 70
0
 10
632381.5309532462
 20
4835654.785458455
 10
632390.4424268915
 20
4835689.701263026
  0
LWPOLYLINE
  5
2E6
330
17
100
AcDbEntity
  8
ROADS
100
AcDbPolyline
 90
2
 70
0
 10
632335.1834594274
 20
4835690.182313266
 10
632244.5125447251
 20
4835660.086823513
  0
LWPOLYLINE
  5
2E7
330
17
100
AcDbEntity
  8
ROADS
100
AcDbPolyline
 90
2
 70
0
 10
632868.3868757029
 20
4835639.633723912
 10
632857.5740588936
 20
4835678.131280736
  0
LWPOLYLINE
  5
2E8
330
17
100
AcDbEntity
  8
ROADS
100
AcDbPolyline
 90
2
 70
0
 10
632791.0455084557
 20
4835656.575869532
 10
632857.5740588936
 20
4835678.131280736
  0
LWPOLYLINE
  5
2E9
330
17
100
AcDbEntity
  8
ROADS
100
AcDbPolyline
 90
2
 70
0
 10
632857.5740588936
 20
4835678.131280736
 10
632891.0448549783
 20
4835689.130240458
  0
LWPOLYLINE
  5
2EA
330
17
100
AcDbEntity
  8
ROADS
100
AcDbPolyline
 90
2
 70
0
 10
632857.5740588936
 20
4835678.131280736
 10
632845.2006654312
 20
4835710.4031324135
  0
LWPOLYLINE
  5
2EB
330
17
100
AcDbEntity
  8
ROADS
100
AcDbPolyline
 90
2
 70
0
 10
632891.0448549783
 20
4835689.130240458
 10
632926.801924865
 20
4835703.387791539
  0
LWPOLYLINE
  5
2EC
330
17
100
AcDbEntity
  8
ROADS
100
AcDbPolyline
 90
2
 70
0
 10
632814.0277083011
 20
4835700.197775377
 10
632845.2006654312
 20
4835710.4031324135
  0
LWPOLYLINE
  5
2ED
330
17
100
AcDbEntity
  8
ROADS
100
AcDbPolyline
 90
2
 70
0
 10
632891.0448549783
 20
4835689.130240458
 10
632880.8916972574
 20
4835723.113368072
  0
LWPOLYLINE
  5
2EE
330
17
100
AcDbEntity
  8
ROADS
100
AcDbPolyline
 90
2
 70
0
 10
632926.801924865
 20
4835703.387791539
 10
632966.6091471664
 20
4835717.433548847
  0
LWPOLYLINE
  5
2EF
330
17
100
AcDbEntity
  8
ROADS
100
AcDbPolyline
 90
2
 70
0
 10
632845.2006654312
 20
4835710.4031324135
 10
632880.8916972574
 20
4835723.113368072
  0
LWPOLYLINE
  5
2F0
330
17
100
AcDbEntity
  8
ROADS
100
AcDbPolyline
 90
2
 70
0
 10
632966.6091471664
 20
4835717.433548847
 10
632958.9475007682
 20
4835741.718959185
  0
LWPOLYLINE
  5
2F1
330
17
100
AcDbEntity
  8
ROADS
100
AcDbPolyline
 90
2
 70
0
 10
632524.0439782877
 20
4835601.628699127
 10
632498.9174270182
 20
4835672.0784344785
  0
LWPOLYLINE
  5
2F2
330
17
100
AcDbEntity
  8
ROADS
100
AcDbPolyline
 90
2
 70
0
 10
632801.5185249544
 20
4835626.528840914
 10
632791.0455084557
 20
4835656.575869532
  0
LWPOLYLINE
  5
2F3
330
17
100
AcDbEntity
  8
ROADS
100
AcDbPolyline
 90
2
 70
0
 10
632723.9701781281
 20
4835639.984970954
 10
632791.0455084557
 20
4835656.575869532
  0
LWPOLYLINE
  5
2F4
330
17
100
AcDbEntity
  8
ROADS
100
AcDbPolyline
 90
2
 70
0
 10
632405.0530972905
 20
4835641.104636711
 10
632498.9174270182
 20
4835672.0784344785
  0
LWPOLYLINE
  5
2F5
330
17
100
AcDbEntity
  8
ROADS
100
AcDbPolyline
 90
2
 70
0
 10
632791.0455084557
 20
4835656.575869532
 10
632778.6532825353
 20
4835688.617356993
  0
LWPOLYLINE
  5
2F6
330
17
100
AcDbEntity
  8
ROADS
100
AcDbPolyline
 90
2
 70
0
 10
632778.6532825353
 20
4835688.617356993
 10
632814.0277083011
 20
4835700.197775377
  0
LWPOLYLINE
  5
2F7
330
17
100
AcDbEntity
  8
ROADS
100
AcDbPolyline
 90
2
 70
0
 10
632498.9174270182
 20
4835672.0784344785
 10
632473.9490798081
 20
4835736.487550698
  0
LWPOLYLINE
  5
2F8
330
17
100
AcDbEntity
  8
ROADS
100
AcDbPolyline
 90
2
 70
0
 10
632814.0277083011
 20
4835700.197775377
 10
632794.6744112791
 20
4835760.699654917
  0
LWPOLYLINE
  5
2F9
330
17
100
AcDbEntity
  8
ROADS
100
AcDbPolyline
 90
2
 70
0
 10
632546.5321905075
 20
4835608.01973859
 10
632478.785448086
 20
4835906.7992075905
  0
LWPOLYLINE
  5
2FA
330
17
100
AcDbEntity
  8
ROADS
100
AcDbPolyline
 90
2
 70
0
 10
632778.6532825353
 20
4835688.617356993
 10
632732.0589041365
 20
4835835.240505906
  0
LWPOLYLINE
  5
2FB
330
17
100
AcDbEntity
  8
ROADS
100
AcDbPolyline
 90
2
 70
0
 10
633329.3571617693
 20
4835570.231623909
 10
633272.1408891762
 20
4835749.10458387
  0
LWPOLYLINE
  5
2FC
330
17
100
AcDbEntity
  8
ROADS
100
AcDbPolyline
 90
2
 70
0
 10
633355.7318016398
 20
4835579.219142464
 10
633376.9565076708
 20
4835768.3420282565
  0
LWPOLYLINE
  5
2FD
330
17
100
AcDbEntity
  8
ROADS
100
AcDbPolyline
 90
3
 70
0
 10
633515.5731434636
 20
4835609.561186716
 10
633457.0394646722
 20
4835802.110524832
 10
633498.154533833
 20
4835816.727005136
  0
LWPOLYLINE
  5
2FE
330
17
100
AcDbEntity
  8
ROADS
100
AcDbPolyline
 90
2
 70
0
 10
633603.7549845398
 20
4835637.511599722
 10
633547.5519097077
 20
4835814.10582864
  0
LWPOLYLINE
  5
2FF
330
17
100
AcDbEntity
  8
ROADS
100
AcDbPolyline
 90
2
 70
0
 10
633550.8222689976
 20
4835650.53473131
 10
633498.154533833
 20
4835816.727005136
  0
LWPOLYLINE
  5
300
330
17
100
AcDbEntity
  8
ROADS
100
AcDbPolyline
 90
2
 70
0
 10
633638.2191338069
 20
4835650.518699355
 10
633579.9609015879
 20
4835824.7055951925
  0
LWPOLYLINE
  5
301
330
17
100
AcDbEntity
  8
ROADS
100
AcDbPolyline
 90
2
 70
0
 10
633272.1408891762
 20
4835749.10458387
 10
633347.1294061858
 20
4835774.742313563
  0
LWPOLYLINE
  5
302
330
17
100
AcDbEntity
  8
ROADS
100
AcDbPolyline
 90
2
 70
0
 10
633347.1294061858
 20
4835774.742313563
 10
633376.9565076708
 20
4835768.3420282565
  0
LWPOLYLINE
  5
303
330
17
100
AcDbEntity
  8
ROADS
100
AcDbPolyline
 90
3
 70
0
 10
633648.0349481271
 20
4835714.766361933
 10
633610.5693080737
 20
4835832.287567127
 10
633579.9609015879
 20
4835824.7055951925
  0
LWPOLYLINE
  5
304
330
17
100
AcDbEntity
  8
ROADS
100
AcDbPolyline
 90
2
 70
0
 10
633272.1408891762
 20
4835749.10458387
 10
633251.5179943964
 20
4835814.554986683
  0
LWPOLYLINE
  5
305
330
17
100
AcDbEntity
  8
ROADS
100
AcDbPolyline
 90
3
 70
0
 10
634001.5443810602
 20
4835719.989634022
 10
634100.9823696102
 20
4835751.6959170075
 10
634086.3425228586
 20
4835795.982902535
  0
LWPOLYLINE
  5
306
330
17
100
AcDbEntity
  8
ROADS
100
AcDbPolyline
 90
3
 70
0
 10
634013.8240756307
 20
4835815.756502444
 10
634026.5172450757
 20
4835777.2508099405
 10
634086.3425228586
 20
4835795.982902535
  0
LWPOLYLINE
  5
307
330
17
100
AcDbEntity
  8
ROADS
100
AcDbPolyline
 90
2
 70
0
 10
634074.6494109605
 20
4835835.374753938
 10
634086.3425228586
 20
4835795.982902535
  0
LWPOLYLINE
  5
308
330
17
100
AcDbEntity
  8
ROADS
100
AcDbPolyline
 90
2
 70
0
 10
632926.801924865
 20
4835703.387791539
 10
632905.3442759751
 20
4835769.265072002
  0
LWPOLYLINE
  5
309
330
17
100
AcDbEntity
  8
ROADS
100
AcDbPolyline
 90
2
 70
0
 10
633199.6970419007
 20
4835725.045994766
 10
633272.1408891762
 20
4835749.10458387
  0
LWPOLYLINE
  5
30A
330
17
100
AcDbEntity
  8
ROADS
100
AcDbPolyline
 90
2
 70
0
 10
632966.6091471664
 20
4835717.433548847
 10
633105.9917344237
 20
4835765.970211599
  0
LWPOLYLINE
  5
30B
330
17
100
AcDbEntity
  8
ROADS
100
AcDbPolyline
 90
2
 70
0
 10
632880.8916972574
 20
4835723.113368072
 10
632861.743753044
 20
4835781.770825635
  0
LWPOLYLINE
  5
30C
330
17
100
AcDbEntity
  8
ROADS
100
AcDbPolyline
 90
2
 70
0
 10
633199.6970419007
 20
4835725.045994766
 10
633177.8210776314
 20
4835790.052695762
  0
LWPOLYLINE
  5
30D
330
17
100
AcDbEntity
  8
ROADS
100
AcDbPolyline
 90
2
 70
0
 10
632944.9070399256
 20
4835782.72637067
 10
632953.2772515605
 20
4835758.0257391725
  0
LWPOLYLINE
  5
30E
330
17
100
AcDbEntity
  8
ROADS
100
AcDbPolyline
 90
2
 70
0
 10
632905.3442759751
 20
4835769.265072002
 10
632944.9070399256
 20
4835782.72637067
  0
LWPOLYLINE
  5
30F
330
17
100
AcDbEntity
  8
ROADS
100
AcDbPolyline
 90
2
 70
0
 10
633105.9917344237
 20
4835765.970211599
 10
633177.8210776314
 20
4835790.052695762
  0
LWPOLYLINE
  5
310
330
17
100
AcDbEntity
  8
ROADS
100
AcDbPolyline
 90
2
 70
0
 10
632845.2006654312
 20
4835710.4031324135
 10
632799.1923896549
 20
4835856.800885935
  0
LWPOLYLINE
  5
311
330
17
100
AcDbEntity
  8
ROADS
100
AcDbPolyline
 90
2
 70
0
 10
633105.9917344237
 20
4835765.970211599
 10
633093.9568571624
 20
4835802.528544712
  0
LWPOLYLINE
  5
312
330
17
100
AcDbEntity
  8
ROADS
100
AcDbPolyline
 90
3
 70
0
 10
633538.1980021008
 20
4835844.592186262
 10
633628.0353573837
 20
4835873.184644731
 10
633683.484043705
 20
4835714.920233413
  0
LWPOLYLINE
  5
313
330
17
100
AcDbEntity
  8
ROADS
100
AcDbPolyline
 90
2
 70
0
 10
633347.1294061858
 20
4835774.742313563
 10
633328.152719215
 20
4835835.984153435
  0
LWPOLYLINE
  5
314
330
17
100
AcDbEntity
  8
ROADS
100
AcDbPolyline
 90
2
 70
0
 10
633376.9565076708
 20
4835768.3420282565
 10
633390.0278113254
 20
4835850.74595859
  0
LWPOLYLINE
  5
315
330
17
100
AcDbEntity
  8
ROADS
100
AcDbPolyline
 90
2
 70
0
 10
633579.9609015879
 20
4835824.7055951925
 10
633547.5519097077
 20
4835814.10582864
  0
LWPOLYLINE
  5
316
330
17
100
AcDbEntity
  8
ROADS
100
AcDbPolyline
 90
2
 70
0
 10
633547.5519097077
 20
4835814.10582864
 10
633542.2106082235
 20
4835831.19064597
  0
LWPOLYLINE
  5
317
330
17
100
AcDbEntity
  8
ROADS
100
AcDbPolyline
 90
2
 70
0
 10
633498.154533833
 20
4835816.727005136
 10
633542.2106082235
 20
4835831.19064597
  0
LWPOLYLINE
  5
318
330
17
100
AcDbEntity
  8
ROADS
100
AcDbPolyline
 90
2
 70
0
 10
633251.5179943964
 20
4835814.554986683
 10
633328.152719215
 20
4835835.984153435
  0
LWPOLYLINE
  5
319
330
17
100
AcDbEntity
  8
ROADS
100
AcDbPolyline
 90
2
 70
0
 10
633498.154533833
 20
4835816.727005136
 10
633486.7749396989
 20
4835852.497162517
  0
LWPOLYLINE
  5
31A
330
17
100
AcDbEntity
  8
ROADS
100
AcDbPolyline
 90
2
 70
0
 10
633542.2106082235
 20
4835831.19064597
 10
633538.1980021008
 20
4835844.592186262
  0
LWPOLYLINE
  5
31B
330
17
100
AcDbEntity
  8
ROADS
100
AcDbPolyline
 90
2
 70
0
 10
633328.152719215
 20
4835835.984153435
 10
633363.8347071138
 20
4835844.384910488
  0
LWPOLYLINE
  5
31C
330
17
100
AcDbEntity
  8
ROADS
100
AcDbPolyline
 90
2
 70
0
 10
632944.9070399256
 20
4835782.72637067
 10
632935.8581985384
 20
4835808.343804719
  0
LWPOLYLINE
  5
31D
330
17
100
AcDbEntity
  8
ROADS
100
AcDbPolyline
 90
2
 70
0
 10
633093.9568571624
 20
4835802.528544712
 10
633074.3126366015
 20
4835795.4848457975
  0
LWPOLYLINE
  5
31E
330
17
100
AcDbEntity
  8
ROADS
100
AcDbPolyline
 90
2
 70
0
 10
633177.8210776314
 20
4835790.052695762
 10
633251.5179943964
 20
4835814.554986683
  0
LWPOLYLINE
  5
31F
330
17
100
AcDbEntity
  8
ROADS
100
AcDbPolyline
 90
2
 70
0
 10
633093.9568571624
 20
4835802.528544712
 10
633120.1536703878
 20
4835811.061824614
  0
LWPOLYLINE
  5
320
330
17
100
AcDbEntity
  8
ROADS
100
AcDbPolyline
 90
2
 70
0
 10
632944.9070399256
 20
4835782.72637067
 10
633158.2849819742
 20
4835853.527568304
  0
LWPOLYLINE
  5
321
330
17
100
AcDbEntity
  8
ROADS
100
AcDbPolyline
 90
2
 70
0
 10
633177.8210776314
 20
4835790.052695762
 10
633158.2849819742
 20
4835853.527568304
  0
LWPOLYLINE
  5
322
330
17
100
AcDbEntity
  8
ROADS
100
AcDbPolyline
 90
2
 70
0
 10
632905.3442759751
 20
4835769.265072002
 10
632869.3488722753
 20
4835879.924049739
  0
LWPOLYLINE
  5
323
330
17
100
AcDbEntity
  8
ROADS
100
AcDbPolyline
 90
2
 70
0
 10
633116.3889065143
 20
4835865.129063374
 10
633104.6517967517
 20
4835861.211559487
  0
LWPOLYLINE
  5
324
330
17
100
AcDbEntity
  8
ROADS
100
AcDbPolyline
 90
2
 70
0
 10
633158.2849819742
 20
4835853.527568304
 10
633150.9911729104
 20
4835876.71655236
  0
LWPOLYLINE
  5
325
330
17
100
AcDbEntity
  8
ROADS
100
AcDbPolyline
 90
2
 70
0
 10
632799.1923896549
 20
4835856.800885935
 10
632869.3488722753
 20
4835879.924049739
  0
LWPOLYLINE
  5
326
330
17
100
AcDbEntity
  8
ROADS
100
AcDbPolyline
 90
2
 70
0
 10
633737.4816666777
 20
4835681.441693453
 10
633796.0059931547
 20
4835701.158315007
  0
LWPOLYLINE
  5
327
330
17
100
AcDbEntity
  8
ROADS
100
AcDbPolyline
 90
2
 70
0
 10
633698.6507573557
 20
4835668.926684003
 10
633683.484043705
 20
4835714.920233413
  0
LWPOLYLINE
  5
328
330
17
100
AcDbEntity
  8
ROADS
100
AcDbPolyline
 90
2
 70
0
 10
633670.9835187915
 20
4835679.657382612
 10
633663.3573424408
 20
4835708.2308341805
  0
LWPOLYLINE
  5
329
330
17
100
AcDbEntity
  8
ROADS
100
AcDbPolyline
 90
2
 70
0
 10
634014.7032922443
 20
4835676.63196039
 10
634001.5443810602
 20
4835719.989634022
  0
LWPOLYLINE
  5
32A
330
17
100
AcDbEntity
  8
ROADS
100
AcDbPolyline
 90
2
 70
0
 10
633648.0349481271
 20
4835714.766361933
 10
633663.3573424408
 20
4835708.2308341805
  0
LWPOLYLINE
  5
32B
330
17
100
AcDbEntity
  8
ROADS
100
AcDbPolyline
 90
2
 70
0
 10
633663.3573424408
 20
4835708.2308341805
 10
633683.484043705
 20
4835714.920233413
  0
LWPOLYLINE
  5
32C
330
17
100
AcDbEntity
  8
ROADS
100
AcDbPolyline
 90
2
 70
0
 10
634001.5443810602
 20
4835719.989634022
 10
633974.9676480535
 20
4835803.711044827
  0
LWPOLYLINE
  5
32D
330
17
100
AcDbEntity
  8
ROADS
100
AcDbPolyline
 90
2
 70
0
 10
633974.9676480535
 20
4835803.711044827
 10
634013.8240756307
 20
4835815.756502444
  0
LWPOLYLINE
  5
32E
330
17
100
AcDbEntity
  8
ROADS
100
AcDbPolyline
 90
2
 70
0
 10
634013.8240756307
 20
4835815.756502444
 10
634074.6494109605
 20
4835835.374753938
  0
LWPOLYLINE
  5
32F
330
17
100
AcDbEntity
  8
ROADS
100
AcDbPolyline
 90
2
 70
0
 10
633926.153892291
 20
4835645.662612493
 10
633809.3082173116
 20
4836019.480771395
  0
LWPOLYLINE
  5
330
330
17
100
AcDbEntity
  8
ROADS
100
AcDbPolyline
 90
2
 70
0
 10
634013.8240756307
 20
4835815.756502444
 10
634001.4301055861
 20
4835856.630795883
  0
LWPOLYLINE
  5
331
330
17
100
AcDbEntity
  8
ROADS
100
AcDbPolyline
 90
2
 70
0
 10
633796.0059931547
 20
4835701.158315007
 10
633707.2206751574
 20
4835985.144319512
  0
LWPOLYLINE
  5
332
330
17
100
AcDbEntity
  8
ROADS
100
AcDbPolyline
 90
2
 70
0
 10
633974.9676480535
 20
4835803.711044827
 10
633948.0748888827
 20
4835887.48673377
  0
LWPOLYLINE
  5
333
330
17
100
AcDbEntity
  8
ROADS
100
AcDbPolyline
 90
2
 70
0
 10
633970.6402723258
 20
4835661.221117273
 10
633851.9425823287
 20
4836037.795563066
  0
LWPOLYLINE
  5
334
330
17
100
AcDbEntity
  8
ROADS
100
AcDbPolyline
 90
2
 70
0
 10
634001.4301055861
 20
4835856.630795883
 10
634061.2310059518
 20
4835876.240532912
  0
LWPOLYLINE
  5
335
330
17
100
AcDbEntity
  8
ROADS
100
AcDbPolyline
 90
2
 70
0
 10
634001.4301055861
 20
4835856.630795883
 10
633987.2944636575
 20
4835900.1338149
  0
LWPOLYLINE
  5
336
330
17
100
AcDbEntity
  8
ROADS
100
AcDbPolyline
 90
2
 70
0
 10
633948.0748888827
 20
4835887.48673377
 10
633987.2944636575
 20
4835900.1338149
  0
LWPOLYLINE
  5
337
330
17
100
AcDbEntity
  8
ROADS
100
AcDbPolyline
 90
2
 70
0
 10
633987.2944636575
 20
4835900.1338149
 10
634047.5733594793
 20
4835919.386171138
  0
LWPOLYLINE
  5
338
330
17
100
AcDbEntity
  8
ROADS
100
AcDbPolyline
 90
2
 70
0
 10
633987.2944636575
 20
4835900.1338149
 10
633974.5164350579
 20
4835940.843145232
  0
LWPOLYLINE
  5
339
330
17
100
AcDbEntity
  8
ROADS
100
AcDbPolyline
 90
2
 70
0
 10
634034.4773470444
 20
4835960.424786369
 10
634047.5733594793
 20
4835919.386171138
  0
LWPOLYLINE
  5
33A
330
17
100
AcDbEntity
  8
ROADS
100
AcDbPolyline
 90
2
 70
0
 10
633363.8347071138
 20
4835844.384910488
 10
633390.0278113254
 20
4835850.74595859
  0
LWPOLYLINE
  5
33B
330
17
100
AcDbEntity
  8
ROADS
100
AcDbPolyline
 90
2
 70
0
 10
633390.0278113254
 20
4835850.74595859
 10
633448.373997763
 20
4835862.721746463
  0
LWPOLYLINE
  5
33C
330
17
100
AcDbEntity
  8
ROADS
100
AcDbPolyline
 90
2
 70
0
 10
633538.1980021008
 20
4835844.592186262
 10
633526.643989679
 20
4835878.725061545
  0
LWPOLYLINE
  5
33D
330
17
100
AcDbEntity
  8
ROADS
100
AcDbPolyline
 90
2
 70
0
 10
633363.8347071138
 20
4835844.384910488
 10
633347.9286134468
 20
4835890.285031678
  0
LWPOLYLINE
  5
33E
330
17
100
AcDbEntity
  8
ROADS
100
AcDbPolyline
 90
2
 70
0
 10
633448.373997763
 20
4835862.721746463
 10
633526.643989679
 20
4835878.725061545
  0
LWPOLYLINE
  5
33F
330
17
100
AcDbEntity
  8
ROADS
100
AcDbPolyline
 90
2
 70
0
 10
633526.643989679
 20
4835878.725061545
 10
633523.3795845509
 20
4835890.846523892
  0
LWPOLYLINE
  5
340
330
17
100
AcDbEntity
  8
ROADS
100
AcDbPolyline
 90
3
 70
0
 10
633523.3795845509
 20
4835890.846523892
 10
633480.1248763242
 20
4835883.05940197
 10
633480.6392127825
 20
4835905.00246971
  0
LWPOLYLINE
  5
341
330
17
100
AcDbEntity
  8
ROADS
100
AcDbPolyline
 90
2
 70
0
 10
633431.1476961743
 20
4835880.306731827
 10
633421.3896204988
 20
4835913.0129487645
  0
LWPOLYLINE
  5
342
330
17
100
AcDbEntity
  8
ROADS
100
AcDbPolyline
 90
2
 70
0
 10
633347.9286134468
 20
4835890.285031678
 10
633421.3896204988
 20
4835913.0129487645
  0
LWPOLYLINE
  5
343
330
17
100
AcDbEntity
  8
ROADS
100
AcDbPolyline
 90
2
 70
0
 10
633526.643989679
 20
4835878.725061545
 10
633707.2206751574
 20
4835985.144319512
  0
LWPOLYLINE
  5
344
330
17
100
AcDbEntity
  8
ROADS
100
AcDbPolyline
 90
2
 70
0
 10
633150.9911729104
 20
4835876.71655236
 10
633116.3889065143
 20
4835865.129063374
  0
LWPOLYLINE
  5
345
330
17
100
AcDbEntity
  8
ROADS
100
AcDbPolyline
 90
2
 70
0
 10
633116.3889065143
 20
4835865.129063374
 10
633110.1222603761
 20
4835887.428543452
  0
LWPOLYLINE
  5
346
330
17
100
AcDbEntity
  8
ROADS
100
AcDbPolyline
 90
2
 70
0
 10
633150.9911729104
 20
4835876.71655236
 10
633147.0294887403
 20
4835889.624957795
  0
LWPOLYLINE
  5
347
330
17
100
AcDbEntity
  8
ROADS
100
AcDbPolyline
 90
3
 70
0
 10
633147.0294887403
 20
4835889.624957795
 10
633181.8163321393
 20
4835901.236789209
 10
633188.5092209607
 20
4835880.917168456
  0
LWPOLYLINE
  5
348
330
17
100
AcDbEntity
  8
ROADS
100
AcDbPolyline
 90
2
 70
0
 10
632869.3488722753
 20
4835879.924049739
 10
632849.6773280294
 20
4835940.602189749
  0
LWPOLYLINE
  5
349
330
17
100
AcDbEntity
  8
ROADS
100
AcDbPolyline
 90
2
 70
0
 10
633251.5179943964
 20
4835814.554986683
 10
633176.5628403852
 20
4836047.542476109
  0
LWPOLYLINE
  5
34A
330
17
100
AcDbEntity
  8
ROADS
100
AcDbPolyline
 90
2
 70
0
 10
633147.0294887403
 20
4835889.624957795
 10
633103.6955266116
 20
4836024.06321895
  0
LWPOLYLINE
  5
34B
330
17
100
AcDbEntity
  8
ROADS
100
AcDbPolyline
 90
2
 70
0
 10
632849.6773280294
 20
4835940.602189749
 10
633103.6955266116
 20
4836024.06321895
  0
LWPOLYLINE
  5
34C
330
17
100
AcDbEntity
  8
ROADS
100
AcDbPolyline
 90
2
 70
0
 10
632849.6773280294
 20
4835940.602189749
 10
632817.5796387944
 20
4836038.790618769
  0
LWPOLYLINE
  5
34D
330
17
100
AcDbEntity
  8
ROADS
100
AcDbPolyline
 90
3
 70
0
 10
632856.7824310125
 20
4836046.273967036
 10
632871.830658929
 20
4836000.860449181
 10
633089.0056622981
 20
4836069.955284324
  0
LWPOLYLINE
  5
34E
330
17
100
AcDbEntity
  8
ROADS
100
AcDbPolyline
 90
2
 70
0
 10
633948.0748888827
 20
4835887.48673377
 10
633910.8406501797
 20
4836003.82011238
  0
LWPOLYLINE
  5
34F
330
17
100
AcDbEntity
  8
ROADS
100
AcDbPolyline
 90
2
 70
0
 10
633974.5164350579
 20
4835940.843145232
 10
634034.4773470444
 20
4835960.424786369
  0
LWPOLYLINE
  5
350
330
17
100
AcDbEntity
  8
ROADS
100
AcDbPolyline
 90
2
 70
0
 10
633974.5164350579
 20
4835940.843145232
 10
633962.7604236715
 20
4835975.637464233
  0
LWPOLYLINE
  5
351
330
17
100
AcDbEntity
  8
ROADS
100
AcDbPolyline
 90
2
 70
0
 10
633962.7604236715
 20
4835975.637464233
 10
634007.585425097
 20
4835990.001038311
  0
LWPOLYLINE
  5
352
330
17
100
AcDbEntity
  8
ROADS
100
AcDbPolyline
 90
2
 70
0
 10
633616.2938032219
 20
4835975.823688821
 10
633701.4104400806
 20
4836003.107735935
  0
LWPOLYLINE
  5
353
330
17
100
AcDbEntity
  8
ROADS
100
AcDbPolyline
 90
2
 70
0
 10
633707.2206751574
 20
4835985.144319512
 10
633701.4104400806
 20
4836003.107735935
  0
LWPOLYLINE
  5
354
330
17
100
AcDbEntity
  8
ROADS
100
AcDbPolyline
 90
2
 70
0
 10
633962.7604236715
 20
4835975.637464233
 10
633949.794948754
 20
4836016.591420032
  0
LWPOLYLINE
  5
355
330
17
100
AcDbEntity
  8
ROADS
100
AcDbPolyline
 90
2
 70
0
 10
634011.0870770516
 20
4836033.732940152
 10
634034.4773470444
 20
4835960.424786369
  0
LWPOLYLINE
  5
356
330
17
100
AcDbEntity
  8
ROADS
100
AcDbPolyline
 90
2
 70
0
 10
633707.2206751574
 20
4835985.144319512
 10
633809.3082173116
 20
4836019.480771395
  0
LWPOLYLINE
  5
357
330
17
100
AcDbEntity
  8
ROADS
100
AcDbPolyline
 90
2
 70
0
 10
634016.2927543598
 20
4835983.384914905
 10
633995.7210681047
 20
4836028.9067381285
  0
LWPOLYLINE
  5
358
330
17
100
AcDbEntity
  8
ROADS
100
AcDbPolyline
 90
2
 70
0
 10
632344.1027204156
 20
4835662.10588974
 10
632335.1834594274
 20
4835690.182313266
  0
LWPOLYLINE
  5
359
330
17
100
AcDbEntity
  8
ROADS
100
AcDbPolyline
 90
2
 70
0
 10
632151.8185174629
 20
4835629.381728856
 10
632113.5033319249
 20
4835748.890841292
  0
LWPOLYLINE
  5
35A
330
17
100
AcDbEntity
  8
ROADS
100
AcDbPolyline
 90
2
 70
0
 10
632335.1834594274
 20
4835690.182313266
 10
632363.5801482757
 20
4835708.630102371
  0
LWPOLYLINE
  5
35B
330
17
100
AcDbEntity
  8
ROADS
100
AcDbPolyline
 90
2
 70
0
 10
632335.1834594274
 20
4835690.182313266
 10
632288.1645248774
 20
4835829.149001938
  0
LWPOLYLINE
  5
35C
330
17
100
AcDbEntity
  8
ROADS
100
AcDbPolyline
 90
2
 70
0
 10
632144.6178211245
 20
4835778.691644127
 10
632155.5036581601
 20
4835782.335076569
  0
LWPOLYLINE
  5
35D
330
17
100
AcDbEntity
  8
ROADS
100
AcDbPolyline
 90
2
 70
0
 10
632155.5036581601
 20
4835782.335076569
 10
632201.0228242266
 20
4835797.675175906
  0
LWPOLYLINE
  5
35E
330
17
100
AcDbEntity
  8
ROADS
100
AcDbPolyline
 90
2
 70
0
 10
632201.0228242266
 20
4835797.675175906
 10
632246.2682169938
 20
4835812.72530754
  0
LWPOLYLINE
  5
35F
330
17
100
AcDbEntity
  8
ROADS
100
AcDbPolyline
 90
2
 70
0
 10
632246.2682169938
 20
4835812.72530754
 10
632288.1645248774
 20
4835829.149001938
  0
LWPOLYLINE
  5
360
330
17
100
AcDbEntity
  8
ROADS
100
AcDbPolyline
 90
2
 70
0
 10
632155.5036581601
 20
4835782.335076569
 10
632153.8613189548
 20
4835787.519932169
  0
LWPOLYLINE
  5
361
330
17
100
AcDbEntity
  8
ROADS
100
AcDbPolyline
 90
2
 70
0
 10
632581.0011666397
 20
4835614.088342514
 10
632505.8160677184
 20
4835917.777745207
  0
LWPOLYLINE
  5
362
330
17
100
AcDbEntity
  8
ROADS
100
AcDbPolyline
 90
2
 70
0
 10
632675.7985105324
 20
4835816.930959218
 10
632689.836841323
 20
4835824.717362568
  0
LWPOLYLINE
  5
363
330
17
100
AcDbEntity
  8
ROADS
100
AcDbPolyline
 90
2
 70
0
 10
632689.836841323
 20
4835824.717362568
 10
632732.0589041365
 20
4835835.240505906
  0
LWPOLYLINE
  5
364
330
17
100
AcDbEntity
  8
ROADS
100
AcDbPolyline
 90
2
 70
0
 10
632732.0589041365
 20
4835835.240505906
 10
632799.1923896549
 20
4835856.800885935
  0
LWPOLYLINE
  5
365
330
17
100
AcDbEntity
  8
ROADS
100
AcDbPolyline
 90
2
 70
0
 10
632689.836841323
 20
4835824.717362568
 10
632601.568153561
 20
4835956.4618598
  0
LWPOLYLINE
  5
366
330
17
100
AcDbEntity
  8
ROADS
100
AcDbPolyline
 90
2
 70
0
 10
632478.785448086
 20
4835906.7992075905
 10
632490.971585189
 20
4835911.600892739
  0
LWPOLYLINE
  5
367
330
17
100
AcDbEntity
  8
ROADS
100
AcDbPolyline
 90
2
 70
0
 10
632732.0589041365
 20
4835835.240505906
 10
632682.3411483532
 20
4835989.832770759
  0
LWPOLYLINE
  5
368
330
17
100
AcDbEntity
  8
ROADS
100
AcDbPolyline
 90
2
 70
0
 10
632490.971585189
 20
4835911.600892739
 10
632505.8160677184
 20
4835917.777745207
  0
LWPOLYLINE
  5
369
330
17
100
AcDbEntity
  8
ROADS
100
AcDbPolyline
 90
2
 70
0
 10
632799.1923896549
 20
4835856.800885935
 10
632747.3691649706
 20
4836015.944470626
  0
LWPOLYLINE
  5
36A
330
17
100
AcDbEntity
  8
ROADS
100
AcDbPolyline
 90
2
 70
0
 10
632505.8160677184
 20
4835917.777745207
 10
632601.568153561
 20
4835956.4618598
  0
LWPOLYLINE
  5
36B
330
17
100
AcDbEntity
  8
ROADS
100
AcDbPolyline
 90
2
 70
0
 10
632201.0228242266
 20
4835797.675175906
 10
632193.4607515676
 20
4835821.422010764
  0
LWPOLYLINE
  5
36C
330
17
100
AcDbEntity
  8
ROADS
100
AcDbPolyline
 90
2
 70
0
 10
632288.1645248774
 20
4835829.149001938
 10
632478.785448086
 20
4835906.7992075905
  0
LWPOLYLINE
  5
36D
330
17
100
AcDbEntity
  8
ROADS
100
AcDbPolyline
 90
2
 70
0
 10
632288.1645248774
 20
4835829.149001938
 10
632276.1828713412
 20
4835879.745123102
  0
LWPOLYLINE
  5
36E
330
17
100
AcDbEntity
  8
ROADS
100
AcDbPolyline
 90
2
 70
0
 10
632246.2682169938
 20
4835812.72530754
 10
632233.4764252391
 20
4835852.612575009
  0
LWPOLYLINE
  5
36F
330
17
100
AcDbEntity
  8
ROADS
100
AcDbPolyline
 90
2
 70
0
 10
632601.568153561
 20
4835956.4618598
 10
632612.7023642057
 20
4835961.144521307
  0
LWPOLYLINE
  5
370
330
17
100
AcDbEntity
  8
ROADS
100
AcDbPolyline
 90
2
 70
0
 10
632478.785448086
 20
4835906.7992075905
 10
632456.0793154454
 20
4835989.737373928
  0
LWPOLYLINE
  5
371
330
17
100
AcDbEntity
  8
ROADS
100
AcDbPolyline
 90
2
 70
0
 10
632612.7023642057
 20
4835961.144521307
 10
632672.0669125331
 20
4835985.431676997
  0
LWPOLYLINE
  5
372
330
17
100
AcDbEntity
  8
ROADS
100
AcDbPolyline
 90
2
 70
0
 10
632672.0669125331
 20
4835985.431676997
 10
632682.3411483532
 20
4835989.832770759
  0
LWPOLYLINE
  5
373
330
17
100
AcDbEntity
  8
ROADS
100
AcDbPolyline
 90
2
 70
0
 10
632682.3411483532
 20
4835989.832770759
 10
632715.6987808816
 20
4836003.161892901
  0
LWPOLYLINE
  5
374
330
17
100
AcDbEntity
  8
ROADS
100
AcDbPolyline
 90
2
 70
0
 10
632672.0669125331
 20
4835985.431676997
 10
632657.9238780827
 20
4836027.280588192
  0
LWPOLYLINE
  5
375
330
17
100
AcDbEntity
  8
ROADS
100
AcDbPolyline
 90
3
 70
0
 10
632612.7023642057
 20
4835961.144521307
 10
632589.5777895806
 20
4836033.812116949
 10
632649.2630614855
 20
4836053.192698933
  0
LWPOLYLINE
  5
376
330
17
100
AcDbEntity
  8
ROADS
100
AcDbPolyline
 90
2
 70
0
 10
632715.6987808816
 20
4836003.161892901
 10
632747.3691649706
 20
4836015.944470626
  0
LWPOLYLINE
  5
377
330
17
100
AcDbEntity
  8
ROADS
100
AcDbPolyline
 90
2
 70
0
 10
632747.3691649706
 20
4836015.944470626
 10
632762.0023060438
 20
4836022.084508474
  0
LWPOLYLINE
  5
378
330
17
100
AcDbEntity
  8
ROADS
100
AcDbPolyline
 90
2
 70
0
 10
632715.6987808816
 20
4836003.161892901
 10
632702.38471298
 20
4836041.586694547
  0
LWPOLYLINE
  5
379
330
17
100
AcDbEntity
  8
ROADS
100
AcDbPolyline
 90
3
 70
0
 10
632358.2350701995
 20
4835933.765803973
 10
632396.1677034975
 20
4835935.414782894
 10
632411.3971773557
 20
4835967.135172597
  0
LWPOLYLINE
  5
37A
330
17
100
AcDbEntity
  8
ROADS
100
AcDbPolyline
 90
2
 70
0
 10
632657.9238780827
 20
4836027.280588192
 10
632647.5675920558
 20
4836024.025099709
  0
LWPOLYLINE
  5
37B
330
17
100
AcDbEntity
  8
ROADS
100
AcDbPolyline
 90
2
 70
0
 10
632762.0023060438
 20
4836022.084508474
 10
632817.5796387944
 20
4836038.790618769
  0
LWPOLYLINE
  5
37C
330
17
100
AcDbEntity
  8
ROADS
100
AcDbPolyline
 90
3
 70
0
 10
632762.0023060438
 20
4836022.084508474
 10
632756.1362010897
 20
4836034.39942013
 10
632702.38471298
 20
4836041.586694547
  0
LWPOLYLINE
  5
37D
330
17
100
AcDbEntity
  8
ROADS
100
AcDbPolyline
 90
2
 70
0
 10
632657.9238780827
 20
4836027.280588192
 10
632702.38471298
 20
4836041.586694547
  0
LWPOLYLINE
  5
37E
330
17
100
AcDbEntity
  8
ROADS
100
AcDbPolyline
 90
2
 70
0
 10
632657.9238780827
 20
4836027.280588192
 10
632649.2630614855
 20
4836053.192698933
  0
LWPOLYLINE
  5
37F
330
17
100
AcDbEntity
  8
ROADS
100
AcDbPolyline
 90
2
 70
0
 10
632702.38471298
 20
4836041.586694547
 10
632666.2178609348
 20
4836058.697661128
  0
LWPOLYLINE
  5
380
330
17
100
AcDbEntity
  8
ROADS
100
AcDbPolyline
 90
2
 70
0
 10
632702.38471298
 20
4836041.586694547
 10
632693.7036601048
 20
4836067.622285492
  0
LWPOLYLINE
  5
381
330
17
100
AcDbEntity
  8
ROADS
100
AcDbPolyline
 90
2
 70
0
 10
632666.2178609348
 20
4836058.697661128
 10
632649.2630614855
 20
4836053.192698933
  0
LWPOLYLINE
  5
382
330
17
100
AcDbEntity
  8
ROADS
100
AcDbPolyline
 90
2
 70
0
 10
632702.38471298
 20
4836041.586694547
 10
632719.3651030255
 20
4836081.260297368
  0
LWPOLYLINE
  5
383
330
17
100
AcDbEntity
  8
ROADS
100
AcDbPolyline
 90
2
 70
0
 10
632693.7036601048
 20
4836067.622285492
 10
632666.2178609348
 20
4836058.697661128
  0
LWPOLYLINE
  5
384
330
17
100
AcDbEntity
  8
ROADS
100
AcDbPolyline
 90
2
 70
0
 10
632719.3651030255
 20
4836081.260297368
 10
632693.7036601048
 20
4836067.622285492
  0
LWPOLYLINE
  5
385
330
17
100
AcDbEntity
  8
ROADS
100
AcDbPolyline
 90
2
 70
0
 10
632817.5796387944
 20
4836038.790618769
 10
632792.9555107731
 20
4836113.195279189
  0
LWPOLYLINE
  5
386
330
17
100
AcDbEntity
  8
ROADS
100
AcDbPolyline
 90
2
 70
0
 10
632505.8160677184
 20
4835917.777745207
 10
632485.2781052571
 20
4836003.655774647
  0
LWPOLYLINE
  5
387
330
17
100
AcDbEntity
  8
ROADS
100
AcDbPolyline
 90
2
 70
0
 10
632735.0166897692
 20
4836093.46422603
 10
632719.3651030255
 20
4836081.260297368
  0
LWPOLYLINE
  5
388
330
17
100
AcDbEntity
  8
ROADS
100
AcDbPolyline
 90
2
 70
0
 10
632792.9555107731
 20
4836113.195279189
 10
632735.0166897692
 20
4836093.46422603
  0
LWPOLYLINE
  5
389
330
17
100
AcDbEntity
  8
ROADS
100
AcDbPolyline
 90
2
 70
0
 10
632735.0166897692
 20
4836093.46422603
 10
632732.4094914454
 20
4836101.378608015
  0
LWPOLYLINE
  5
38A
330
17
100
AcDbEntity
  8
ROADS
100
AcDbPolyline
 90
2
 70
0
 10
632792.9555107731
 20
4836113.195279189
 10
632790.7795526531
 20
4836119.887098364
  0
LWPOLYLINE
  5
38B
330
17
100
AcDbEntity
  8
ROADS
100
AcDbPolyline
 90
2
 70
0
 10
634061.2310059518
 20
4835876.240532912
 10
634074.6494109605
 20
4835835.374753938
  0
LWPOLYLINE
  5
38C
330
17
100
AcDbEntity
  8
ROADS
100
AcDbPolyline
 90
2
 70
0
 10
634255.7891861713
 20
4835704.0136185745
 10
634238.7163152598
 20
4835755.876788409
  0
LWPOLYLINE
  5
38D
330
17
100
AcDbEntity
  8
ROADS
100
AcDbPolyline
 90
2
 70
0
 10
634047.5733594793
 20
4835919.386171138
 10
634061.2310059518
 20
4835876.240532912
  0
LWPOLYLINE
  5
38E
330
17
100
AcDbEntity
  8
ROADS
100
AcDbPolyline
 90
2
 70
0
 10
634159.9762274057
 20
4835723.320085228
 10
634063.3959022502
 20
4836025.735686448
  0
LWPOLYLINE
  5
38F
330
17
100
AcDbEntity
  8
ROADS
100
AcDbPolyline
 90
3
 70
0
 10
634159.9762274057
 20
4835723.320085228
 10
634204.0731201163
 20
4835738.241516678
 10
634142.772715312
 20
4835932.031080147
  0
LWPOLYLINE
  5
390
330
17
100
AcDbEntity
  8
ROADS
100
AcDbPolyline
 90
2
 70
0
 10
633523.3795845509
 20
4835890.846523892
 10
633489.6397497851
 20
4835992.960283375
  0
LWPOLYLINE
  5
391
330
17
100
AcDbEntity
  8
ROADS
100
AcDbPolyline
 90
2
 70
0
 10
633421.3896204988
 20
4835913.0129487645
 10
633402.5762835995
 20
4835972.298590783
  0
LWPOLYLINE
  5
392
330
17
100
AcDbEntity
  8
ROADS
100
AcDbPolyline
 90
2
 70
0
 10
633518.8313136314
 20
4835943.997087885
 10
633616.2938032219
 20
4835975.823688821
  0
LWPOLYLINE
  5
393
330
17
100
AcDbEntity
  8
ROADS
100
AcDbPolyline
 90
2
 70
0
 10
633347.9286134468
 20
4835890.285031678
 10
633301.2692463759
 20
4836037.61728556
  0
LWPOLYLINE
  5
394
330
17
100
AcDbEntity
  8
ROADS
100
AcDbPolyline
 90
2
 70
0
 10
633402.5762835995
 20
4835972.298590783
 10
633416.6867286238
 20
4835976.817057919
  0
LWPOLYLINE
  5
395
330
17
100
AcDbEntity
  8
ROADS
100
AcDbPolyline
 90
2
 70
0
 10
633415.5493025408
 20
4836074.627361926
 10
633454.921589992
 20
4835943.86265449
  0
LWPOLYLINE
  5
396
330
17
100
AcDbEntity
  8
ROADS
100
AcDbPolyline
 90
2
 70
0
 10
633402.5762835995
 20
4835972.298590783
 10
633373.5076083133
 20
4836060.8721697405
  0
LWPOLYLINE
  5
397
330
17
100
AcDbEntity
  8
ROADS
100
AcDbPolyline
 90
2
 70
0
 10
633301.2692463759
 20
4836037.61728556
 10
633279.4809874028
 20
4836030.56580545
  0
LWPOLYLINE
  5
398
330
17
100
AcDbEntity
  8
ROADS
100
AcDbPolyline
 90
2
 70
0
 10
633616.2938032219
 20
4835975.823688821
 10
633567.4118432101
 20
4836120.851679888
  0
LWPOLYLINE
  5
399
330
17
100
AcDbEntity
  8
ROADS
100
AcDbPolyline
 90
2
 70
0
 10
633301.2692463759
 20
4836037.61728556
 10
633373.5076083133
 20
4836060.8721697405
  0
LWPOLYLINE
  5
39A
330
17
100
AcDbEntity
  8
ROADS
100
AcDbPolyline
 90
2
 70
0
 10
633910.8406501797
 20
4836003.82011238
 10
633949.794948754
 20
4836016.591420032
  0
LWPOLYLINE
  5
39B
330
17
100
AcDbEntity
  8
ROADS
100
AcDbPolyline
 90
2
 70
0
 10
633949.794948754
 20
4836016.591420032
 10
633995.7210681047
 20
4836028.9067381285
  0
LWPOLYLINE
  5
39C
330
17
100
AcDbEntity
  8
ROADS
100
AcDbPolyline
 90
2
 70
0
 10
633910.8406501797
 20
4836003.82011238
 10
633895.3944805918
 20
4836052.544847834
  0
LWPOLYLINE
  5
39D
330
17
100
AcDbEntity
  8
ROADS
100
AcDbPolyline
 90
2
 70
0
 10
633809.3082173116
 20
4836019.480771395
 10
633851.9425823287
 20
4836037.795563066
  0
LWPOLYLINE
  5
39E
330
17
100
AcDbEntity
  8
ROADS
100
AcDbPolyline
 90
2
 70
0
 10
633995.7210681047
 20
4836028.9067381285
 10
634011.0870770516
 20
4836033.732940152
  0
LWPOLYLINE
  5
39F
330
17
100
AcDbEntity
  8
ROADS
100
AcDbPolyline
 90
2
 70
0
 10
633949.794948754
 20
4836016.591420032
 10
633937.9634916955
 20
4836066.205585079
  0
LWPOLYLINE
  5
3A0
330
17
100
AcDbEntity
  8
ROADS
100
AcDbPolyline
 90
2
 70
0
 10
633851.9425823287
 20
4836037.795563066
 10
633895.3944805918
 20
4836052.544847834
  0
LWPOLYLINE
  5
3A1
330
17
100
AcDbEntity
  8
ROADS
100
AcDbPolyline
 90
2
 70
0
 10
633995.6034593517
 20
4836084.860209282
 10
634011.0870770516
 20
4836033.732940152
  0
LWPOLYLINE
  5
3A2
330
17
100
AcDbEntity
  8
ROADS
100
AcDbPolyline
 90
2
 70
0
 10
633895.3944805918
 20
4836052.544847834
 10
633937.9634916955
 20
4836066.205585079
  0
LWPOLYLINE
  5
3A3
330
17
100
AcDbEntity
  8
ROADS
100
AcDbPolyline
 90
2
 70
0
 10
633851.9425823287
 20
4836037.795563066
 10
633837.9345870164
 20
4836087.014830158
  0
LWPOLYLINE
  5
3A4
330
17
100
AcDbEntity
  8
ROADS
100
AcDbPolyline
 90
2
 70
0
 10
633301.2692463759
 20
4836037.61728556
 10
633286.7084676466
 20
4836083.338697617
  0
LWPOLYLINE
  5
3A5
330
17
100
AcDbEntity
  8
ROADS
100
AcDbPolyline
 90
2
 70
0
 10
633489.6397497851
 20
4835992.960283375
 10
633444.2101820407
 20
4836135.659447309
  0
LWPOLYLINE
  5
3A6
330
17
100
AcDbEntity
  8
ROADS
100
AcDbPolyline
 90
2
 70
0
 10
633373.5076083133
 20
4836060.8721697405
 10
633415.5493025408
 20
4836074.627361926
  0
LWPOLYLINE
  5
3A7
330
17
100
AcDbEntity
  8
ROADS
100
AcDbPolyline
 90
2
 70
0
 10
633415.5493025408
 20
4836074.627361926
 10
633427.2669331338
 20
4836078.350508941
  0
LWPOLYLINE
  5
3A8
330
17
100
AcDbEntity
  8
ROADS
100
AcDbPolyline
 90
2
 70
0
 10
633373.5076083133
 20
4836060.8721697405
 10
633359.1824715692
 20
4836107.111892614
  0
LWPOLYLINE
  5
3A9
330
17
100
AcDbEntity
  8
ROADS
100
AcDbPolyline
 90
2
 70
0
 10
633286.7084676466
 20
4836083.338697617
 10
633359.1824715692
 20
4836107.111892614
  0
LWPOLYLINE
  5
3AA
330
17
100
AcDbEntity
  8
ROADS
100
AcDbPolyline
 90
2
 70
0
 10
633359.1824715692
 20
4836107.111892614
 10
633444.2101820407
 20
4836135.659447309
  0
LWPOLYLINE
  5
3AB
330
17
100
AcDbEntity
  8
ROADS
100
AcDbPolyline
 90
2
 70
0
 10
633390.9885304781
 20
4836170.747043655
 10
633196.8105407347
 20
4836110.703579971
  0
LWPOLYLINE
  5
3AC
330
17
100
AcDbEntity
  8
ROADS
100
AcDbPolyline
 90
2
 70
0
 10
633444.2101820407
 20
4836135.659447309
 10
633499.6930727087
 20
4836154.442068667
  0
LWPOLYLINE
  5
3AD
330
17
100
AcDbEntity
  8
ROADS
100
AcDbPolyline
 90
2
 70
0
 10
633444.2101820407
 20
4836135.659447309
 10
633428.4547316926
 20
4836182.794389355
  0
LWPOLYLINE
  5
3AE
330
17
100
AcDbEntity
  8
ROADS
100
AcDbPolyline
 90
2
 70
0
 10
633701.4104400806
 20
4836003.107735935
 10
633660.4918994138
 20
4836128.622151462
  0
LWPOLYLINE
  5
3AF
330
17
100
AcDbEntity
  8
ROADS
100
AcDbPolyline
 90
2
 70
0
 10
633937.9634916955
 20
4836066.205585079
 10
633995.6034593517
 20
4836084.860209282
  0
LWPOLYLINE
  5
3B0
330
17
100
AcDbEntity
  8
ROADS
100
AcDbPolyline
 90
2
 70
0
 10
633937.9634916955
 20
4836066.205585079
 10
633927.321224288
 20
4836106.798507235
  0
LWPOLYLINE
  5
3B1
330
17
100
AcDbEntity
  8
ROADS
100
AcDbPolyline
 90
2
 70
0
 10
633995.6034593517
 20
4836084.860209282
 10
633997.8362373541
 20
4836085.58029147
  0
LWPOLYLINE
  5
3B2
330
17
100
AcDbEntity
  8
ROADS
100
AcDbPolyline
 90
2
 70
0
 10
633895.3944805918
 20
4836052.544847834
 10
633868.6274607047
 20
4836133.511541478
  0
LWPOLYLINE
  5
3B3
330
17
100
AcDbEntity
  8
ROADS
100
AcDbPolyline
 90
3
 70
0
 10
633765.098346793
 20
4836162.531148625
 10
633794.2368584248
 20
4836074.965819119
 10
633837.9345870164
 20
4836087.014830158
  0
LWPOLYLINE
  5
3B4
330
17
100
AcDbEntity
  8
ROADS
100
AcDbPolyline
 90
2
 70
0
 10
633927.321224288
 20
4836106.798507235
 10
633915.1635893886
 20
4836143.740542248
  0
LWPOLYLINE
  5
3B5
330
17
100
AcDbEntity
  8
ROADS
100
AcDbPolyline
 90
2
 70
0
 10
633927.321224288
 20
4836106.798507235
 10
633956.1356349143
 20
4836116.312061836
  0
LWPOLYLINE
  5
3B6
330
17
100
AcDbEntity
  8
ROADS
100
AcDbPolyline
 90
2
 70
0
 10
633837.9345870164
 20
4836087.014830158
 10
633810.6919969233
 20
4836177.800710588
  0
LWPOLYLINE
  5
3B7
330
17
100
AcDbEntity
  8
ROADS
100
AcDbPolyline
 90
2
 70
0
 10
633660.4918994138
 20
4836128.622151462
 10
633714.2614253534
 20
4836146.257712965
  0
LWPOLYLINE
  5
3B8
330
17
100
AcDbEntity
  8
ROADS
100
AcDbPolyline
 90
2
 70
0
 10
633103.6955266116
 20
4836024.06321895
 10
633176.5628403852
 20
4836047.542476109
  0
LWPOLYLINE
  5
3B9
330
17
100
AcDbEntity
  8
ROADS
100
AcDbPolyline
 90
2
 70
0
 10
632817.5796387944
 20
4836038.790618769
 10
632856.7824310125
 20
4836046.273967036
  0
LWPOLYLINE
  5
3BA
330
17
100
AcDbEntity
  8
ROADS
100
AcDbPolyline
 90
2
 70
0
 10
633103.6955266116
 20
4836024.06321895
 10
633089.0056622981
 20
4836069.955284324
  0
LWPOLYLINE
  5
3BB
330
17
100
AcDbEntity
  8
ROADS
100
AcDbPolyline
 90
2
 70
0
 10
632856.7824310125
 20
4836046.273967036
 10
632844.4539971843
 20
4836083.469006141
  0
LWPOLYLINE
  5
3BC
330
17
100
AcDbEntity
  8
ROADS
100
AcDbPolyline
 90
2
 70
0
 10
633176.5628403852
 20
4836047.542476109
 10
633286.7084676466
 20
4836083.338697617
  0
LWPOLYLINE
  5
3BD
330
17
100
AcDbEntity
  8
ROADS
100
AcDbPolyline
 90
2
 70
0
 10
632856.7824310125
 20
4836046.273967036
 10
633074.2175175467
 20
4836116.304605231
  0
LWPOLYLINE
  5
3BE
330
17
100
AcDbEntity
  8
ROADS
100
AcDbPolyline
 90
2
 70
0
 10
633089.0056622981
 20
4836069.955284324
 10
633074.2175175467
 20
4836116.304605231
  0
LWPOLYLINE
  5
3BF
330
17
100
AcDbEntity
  8
ROADS
100
AcDbPolyline
 90
2
 70
0
 10
633176.5628403852
 20
4836047.542476109
 10
633146.7687921983
 20
4836140.005184312
  0
LWPOLYLINE
  5
3C0
330
17
100
AcDbEntity
  8
ROADS
100
AcDbPolyline
 90
2
 70
0
 10
633074.2175175467
 20
4836116.304605231
 10
633146.7687921983
 20
4836140.005184312
  0
LWPOLYLINE
  5
3C1
330
17
100
AcDbEntity
  8
ROADS
100
AcDbPolyline
 90
2
 70
0
 10
633146.7687921983
 20
4836140.005184312
 10
633266.720389018
 20
4836178.61094683
  0
LWPOLYLINE
  5
3C2
330
17
100
AcDbEntity
  8
ROADS
100
AcDbPolyline
 90
2
 70
0
 10
633868.6274607047
 20
4836133.511541478
 10
633909.727930741
 20
4836146.89828731
  0
LWPOLYLINE
  5
3C3
330
17
100
AcDbEntity
  8
ROADS
100
AcDbPolyline
 90
2
 70
0
 10
633714.2614253534
 20
4836146.257712965
 10
633765.098346793
 20
4836162.531148625
  0
LWPOLYLINE
  5
3C4
330
17
100
AcDbEntity
  8
ROADS
100
AcDbPolyline
 90
2
 70
0
 10
633868.6274607047
 20
4836133.511541478
 10
633853.9603562958
 20
4836178.2329039695
  0
LWPOLYLINE
  5
3C5
330
17
100
AcDbEntity
  8
ROADS
100
AcDbPolyline
 90
2
 70
0
 10
633765.098346793
 20
4836162.531148625
 10
633810.6919969233
 20
4836177.800710588
  0
LWPOLYLINE
  5
3C6
330
17
100
AcDbEntity
  8
ROADS
100
AcDbPolyline
 90
2
 70
0
 10
633810.6919969233
 20
4836177.800710588
 10
633836.7555907674
 20
4836186.096258637
  0
LWPOLYLINE
  5
3C7
330
17
100
AcDbEntity
  8
ROADS
100
AcDbPolyline
 90
2
 70
0
 10
633714.2614253534
 20
4836146.257712965
 10
633689.1045237835
 20
4836222.136052787
  0
LWPOLYLINE
  5
3C8
330
17
100
AcDbEntity
  8
ROADS
100
AcDbPolyline
 90
2
 70
0
 10
633765.098346793
 20
4836162.531148625
 10
633745.4697380246
 20
4836222.596805425
  0
LWPOLYLINE
  5
3C9
330
17
100
AcDbEntity
  8
ROADS
100
AcDbPolyline
 90
2
 70
0
 10
633499.6930727087
 20
4836154.442068667
 10
633543.2953475991
 20
4836168.117485828
  0
LWPOLYLINE
  5
3CA
330
17
100
AcDbEntity
  8
ROADS
100
AcDbPolyline
 90
2
 70
0
 10
633428.4547316926
 20
4836182.794389355
 10
633390.9885304781
 20
4836170.747043655
  0
LWPOLYLINE
  5
3CB
330
17
100
AcDbEntity
  8
ROADS
100
AcDbPolyline
 90
2
 70
0
 10
633660.4918994138
 20
4836128.622151462
 10
633626.6174990132
 20
4836233.14019212
  0
LWPOLYLINE
  5
3CC
330
17
100
AcDbEntity
  8
ROADS
100
AcDbPolyline
 90
3
 70
0
 10
633424.2566235842
 20
4836195.392502636
 10
633387.1564931823
 20
4836182.955742822
 10
633390.9885304781
 20
4836170.747043655
  0
LWPOLYLINE
  5
3CD
330
17
100
AcDbEntity
  8
ROADS
100
AcDbPolyline
 90
2
 70
0
 10
633428.4547316926
 20
4836182.794389355
 10
633424.2566235842
 20
4836195.392502636
  0
LWPOLYLINE
  5
3CE
330
17
100
AcDbEntity
  8
ROADS
100
AcDbPolyline
 90
2
 70
0
 10
633266.720389018
 20
4836178.61094683
 10
633251.3201938509
 20
4836226.0653104205
  0
LWPOLYLINE
  5
3CF
330
17
100
AcDbEntity
  8
ROADS
100
AcDbPolyline
 90
2
 70
0
 10
633266.720389018
 20
4836178.61094683
 10
633412.9409019658
 20
4836229.342648349
  0
LWPOLYLINE
  5
3D0
330
17
100
AcDbEntity
  8
ROADS
100
AcDbPolyline
 90
4
 70
0
 10
633499.6930727087
 20
4836154.442068667
 10
633484.9565964751
 20
4836200.08932051
 10
633542.2263800129
 20
4836219.1072804
 10
633528.4842366524
 20
4836262.138772782
  0
LWPOLYLINE
  5
3D1
330
17
100
AcDbEntity
  8
ROADS
100
AcDbPolyline
 90
2
 70
0
 10
633424.2566235842
 20
4836195.392502636
 10
633412.9409019658
 20
4836229.342648349
  0
LWPOLYLINE
  5
3D2
330
17
100
AcDbEntity
  8
ROADS
100
AcDbPolyline
 90
2
 70
0
 10
633251.3201938509
 20
4836226.0653104205
 10
633294.5658064298
 20
4836240.216317022
  0
LWPOLYLINE
  5
3D3
330
17
100
AcDbEntity
  8
ROADS
100
AcDbPolyline
 90
2
 70
0
 10
633689.1045237835
 20
4836222.136052787
 10
633678.8790013328
 20
4836219.076928917
  0
LWPOLYLINE
  5
3D4
330
17
100
AcDbEntity
  8
ROADS
100
AcDbPolyline
 90
2
 70
0
 10
633810.6919969233
 20
4836177.800710588
 10
633801.9646862873
 20
4836201.997272845
  0
LWPOLYLINE
  5
3D5
330
17
100
AcDbEntity
  8
ROADS
100
AcDbPolyline
 90
2
 70
0
 10
633689.1045237835
 20
4836222.136052787
 10
633707.954531309
 20
4836234.454373015
  0
LWPOLYLINE
  5
3D6
330
17
100
AcDbEntity
  8
ROADS
100
AcDbPolyline
 90
2
 70
0
 10
633251.3201938509
 20
4836226.0653104205
 10
633239.8795769779
 20
4836260.516012821
  0
LWPOLYLINE
  5
3D7
330
17
100
AcDbEntity
  8
ROADS
100
AcDbPolyline
 90
2
 70
0
 10
633626.6174990132
 20
4836233.14019212
 10
633620.3888314612
 20
4836253.114535283
  0
LWPOLYLINE
  5
3D8
330
17
100
AcDbEntity
  8
ROADS
100
AcDbPolyline
 90
2
 70
0
 10
633412.9409019658
 20
4836229.342648349
 10
633513.4048886428
 20
4836262.717561668
  0
LWPOLYLINE
  5
3D9
330
17
100
AcDbEntity
  8
ROADS
100
AcDbPolyline
 90
2
 70
0
 10
633412.9409019658
 20
4836229.342648349
 10
633399.9915811906
 20
4836269.82915232
  0
LWPOLYLINE
  5
3DA
330
17
100
AcDbEntity
  8
ROADS
100
AcDbPolyline
 90
2
 70
0
 10
633294.5658064298
 20
4836240.216317022
 10
633385.6493810324
 20
4836270.243621438
  0
LWPOLYLINE
  5
3DB
330
17
100
AcDbEntity
  8
ROADS
100
AcDbPolyline
 90
2
 70
0
 10
633294.5658064298
 20
4836240.216317022
 10
633285.513854086
 20
4836266.778410978
  0
LWPOLYLINE
  5
3DC
330
17
100
AcDbEntity
  8
ROADS
100
AcDbPolyline
 90
2
 70
0
 10
632792.9555107731
 20
4836113.195279189
 10
633197.4026664894
 20
4836246.155093769
  0
LWPOLYLINE
  5
3DD
330
17
100
AcDbEntity
  8
ROADS
100
AcDbPolyline
 90
2
 70
0
 10
633251.3201938509
 20
4836226.0653104205
 10
633207.763998423
 20
4836211.447654867
  0
LWPOLYLINE
  5
3DE
330
17
100
AcDbEntity
  8
ROADS
100
AcDbPolyline
 90
2
 70
0
 10
633197.4026664894
 20
4836246.155093769
 10
633223.7276263469
 20
4836257.738659405
  0
LWPOLYLINE
  5
3DF
330
17
100
AcDbEntity
  8
ROADS
100
AcDbPolyline
 90
2
 70
0
 10
633197.4026664894
 20
4836246.155093769
 10
633195.1869400651
 20
4836252.83104333
  0
LWPOLYLINE
  5
3E0
330
17
100
AcDbEntity
  8
ROADS
100
AcDbPolyline
 90
2
 70
0
 10
633626.6174990132
 20
4836233.14019212
 10
633645.2888185438
 20
4836249.3607068155
  0
ENDSEC
  0
SECTION
  2
OBJECTS
  0
DICTIONARY
  5
A
330
0
100
AcDbDictionary
281
1
  3
ACAD_COLOR
350
B
  3
ACAD_GROUP
350
C
  3
ACAD_LAYOUT
350
D
  3
ACAD_MATERIAL
350
E
  3
ACAD_MLEADERSTYLE
350
F
  3
ACAD_MLINESTYLE
350
10
  3
ACAD_PLOTSETTINGS
350
11
  3
ACAD_PLOTSTYLENAME
350
12
  3
ACAD_SCALELIST
350
14
  3
ACAD_TABLESTYLE
350
15
  3
ACAD_VISUALSTYLE
350
16
  3
EZDXF_META
350
2D
  0
DICTIONARY
  5
B
330
A
100
AcDbDictionary
281
1
  0
DICTIONARY
  5
C
330
A
100
AcDbDictionary
281
1
  0
DICTIONARY
  5
D
330
A
100
AcDbDictionary
281
1
  3
Model
350
1A
  3
Layout1
350
1E
  0
DICTIONARY
  5
E
330
A
100
AcDbDictionary
281
1
  3
ByBlock
350
1F
  3
ByLayer
350
20
  3
Global
350
21
  0
DICTIONARY
  5
F
330
A
100
AcDbDictionary
281
1
  3
Standard
350
2C
  0
DICTIONARY
  5
10
330
A
100
AcDbDictionary
281
1
  3
Standard
350
22
  0
DICTIONARY
  5
11
330
A
100
AcDbDictionary
281
1
  0
ACDBDICTIONARYWDFLT
  5
12
330
A
100
AcDbDictionary
281
1
  3
Normal
350
13
100
AcDbDictionaryWithDefault
340
13
  0
ACDBPLACEHOLDER
  5
13
330
12
  0
DICTIONARY
  5
14
330
A
100
AcDbDictionary
281
1
  0
DICTIONARY
  5
15
330
A
100
AcDbDictionary
281
1
  0
DICTIONARY
  5
16
330
A
100
AcDbDictionary
281
1
  0
LAYOUT
  5
1A
330
D
100
AcDbPlotSettings
  1

  4
A3
  6

 40
7.5
 41
20.0
 42
7.5
 43
20.0
 44
420.0
 45
297.0
 46
0.0
 47
0.0
 48
0.0
 49
0.0
140
0.0
141
0.0
142
1.0
143
1.0
 70
1024
 72
1
 73
0
 74
5
  7

 75
16
 76
0
 77
2
 78
300
147
1.0
148
0.0
149
0.0
100
AcDbLayout
  1
Model
 70
1
 71
0
 10
0.0
 20
0.0
 11
420.0
 21
297.0
 12
0.0
 22
0.0
 32
0.0
 14
1e+20
 24
1e+20
 34
1e+20
 15
-1e+20
 25
-1e+20
 35
-1e+20
146
0.0
 13
0.0
 23
0.0
 33
0.0
 16
1.0
 26
0.0
 36
0.0
 17
0.0
 27
1.0
 37
0.0
 76
1
330
17
  0
LAYOUT
  5
1E
330
D
100
AcDbPlotSettings
  1

  4
A3
  6

 40
7.5
 41
20.0
 42
7.5
 43
20.0
 44
420.0
 45
297.0
 46
0.0
 47
0.0
 48
0.0
 49
0.0
140
0.0
141
0.0
142
1.0
143
1.0
 70
0
 72
1
 73
0
 74
5
  7

 75
16
 76
0
 77
2
 78
300
147
1.0
148
0.0
149
0.0
100
AcDbLayout
  1
Layout1
 70
1
 71
1
 10
0.0
 20
0.0
 11
420.0
 21
297.0
 12
0.0
 22
0.0
 32
0.0
 14
1e+20
 24
1e+20
 34
1e+20
 15
-1e+20
 25
-1e+20
 35
-1e+20
146
0.0
 13
0.0
 23
0.0
 33
0.0
 16
1.0
 26
0.0
 36
0.0
 17
0.0
 27
1.0
 37
0.0
 76
1
330
1B
  0
MATERIAL
  5
1F
102
{ACAD_REACTORS
330
E
102
}
330
E
100
AcDbMaterial
  1
ByBlock
  2

 70
0
 40
1.0
 71
1
 41
1.0
 91
-1023410177
 42
1.0
 72
1
  3

 73
1
 74
1
 75
1
 44
0.5
 73
0
 45
1.0
 46
1.0
 77
1
  4

 78
1
 79
1
170
1
 48
1.0
171
1
  6

172
1
173
1
174
1
140
1.0
141
1.0
175
1
  7

176
1
177
1
178
1
143
1.0
179
1
  8

270
1
271
1
272
1
145
1.0
146
1.0
273
1
  9

274
1
275
1
276
1
 42
1.0
 72
1
  3

 73
1
 74
1
 75
1
 94
63
  0
MATERIAL
  5
20
102
{ACAD_REACTORS
330
E
102
}
330
E
100
AcDbMaterial
  1
ByLayer
  2

 70
0
 40
1.0
 71
1
 41
1.0
 91
-1023410177
 42
1.0
 72
1
  3

 73
1
 74
1
 75
1
 44
0.5
 73
0
 45
1.0
 46
1.0
 77
1
  4

 78
1
 79
1
170
1
 48
1.0
171
1
  6

172
1
173
1
174
1
140
1.0
141
1.0
175
1
  7

176
1
177
1
178
1
143
1.0
179
1
  8

270
1
271
1
272
1
145
1.0
146
1.0
273
1
  9

274
1
275
1
276
1
 42
1.0
 72
1
  3

 73
1
 74
1
 75
1
 94
63
  0
MATERIAL
  5
21
102
{ACAD_REACTORS
330
E
102
}
330
E
100
AcDbMaterial
  1
Global
  2

 70
0
 40
1.0
 71
1
 41
1.0
 91
-1023410177
 42
1.0
 72
1
  3

 73
1
 74
1
 75
1
 44
0.5
 73
0
 45
1.0
 46
1.0
 77
1
  4

 78
1
 79
1
170
1
 48
1.0
171
1
  6

172
1
173
1
174
1
140
1.0
141
1.0
175
1
  7

176
1
177
1
178
1
143
1.0
179
1
  8

270
1
271
1
272
1
145
1.0
146
1.0
273
1
  9

274
1
275
1
276
1
 42
1.0
 72
1
  3

 73
1
 74
1
 75
1
 94
63
  0
MLINESTYLE
  5
22
102
{ACAD_REACTORS
330
10
102
}
330
10
100
AcDbMlineStyle
  2
Standard
 70
0
  3

 62
256
 51
90.0
 52
90.0
 71
2
 49
0.5
 62
256
  6
BYLAYER
 49
-0.5
 62
256
  6
BYLAYER
  0
MLEADERSTYLE
  5
2C
102
{ACAD_REACTORS
330
F
102
}
330
F
100
AcDbMLeaderStyle
179
2
170
2
171
1
172
0
 90
2
 40
0.0
 41
0.0
173
1
 91
-1056964608
 92
-2
290
1
 42
2.0
291
1
 43
8.0
  3
Standard
 44
4.0
300

342
29
174
1
175
1
176
0
178
1
 93
-1056964608
 45
4.0
292
0
297
0
 46
4.0
 94
-1056964608
 47
1.0
 49
1.0
140
1.0
294
1
141
0.0
177
0
142
1.0
295
0
296
0
143
3.75
271
0
272
9
273
9
  0
DICTIONARY
  5
2D
330
A
100
AcDbDictionary
280
1
281
1
  3
CREATED_BY_EZDXF
350
2E
  3
WRITTEN_BY_EZDXF
350
3E3
  0
DICTIONARYVAR
  5
2E
330
2D
100
DictionaryVariables
280
0
  1
1.4.4 @ 2026-07-07T18:25:23.935211+00:00
  0
DICTIONARYVAR
  5
3E3
330
2D
100
DictionaryVariables
280
0
  1
1.4.4 @ 2026-07-07T18:25:23.965066+00:00
  0
ENDSEC
  0
EOF
