  0
SECTION
  2
HEADER
  9
$ACADVER
  1
AC1015
  9
$ACADMAINTVER
 70
6
  9
$DWGCODEPAGE
  3
ANSI_1252
  9
$INSBASE
 10
0.0
 20
0.0
 30
0.0
  9
$EXTMIN
 10
1e+20
 20
1e+20
 30
1e+20
  9
$EXTMAX
 10
-1e+20
 20
-1e+20
 30
-1e+20
  9
$LIMMIN
 10
0.0
 20
0.0
  9
$LIMMAX
 10
420.0
 20
297.0
  9
$ORTHOMODE
 70
0
  9
$REGENMODE
 70
1
  9
$FILLMODE
 70
1
  9
$QTEXTMODE
 70
0
  9
$MIRRTEXT
 70
1
  9
$LTSCALE
 40
1.0
  9
$ATTMODE
 70
1
  9
$TEXTSIZE
 40
2.5
  9
$TRACEWID
 40
1.0
  9
$TEXTSTYLE
  7
Standard
  9
$CLAYER
  8
0
  9
$CELTYPE
  6
ByLayer
  9
$CECOLOR
 62
256
  9
$CELTSCALE
 40
1.0
  9
$DISPSILH
 70
0
  9
$DIMSCALE
 40
1.0
  9
$DIMASZ
 40
2.5
  9
$DIMEXO
 40
0.625
  9
$DIMDLI
 40
3.75
  9
$DIMRND
 40
0.0
  9
$DIMDLE
 40
0.0
  9
$DIMEXE
 40
1.25
  9
$DIMTP
 40
0.0
  9
$DIMTM
 40
0.0
  9
$DIMTXT
 40
2.5
  9
$DIMCEN
 40
2.5
  9
$DIMTSZ
 40
0.0
  9
$DIMTOL
 70
0
  9
$DIMLIM
 70
0
  9
$DIMTIH
 70
0
  9
$DIMTOH
 70
0
  9
$DIMSE1
 70
0
  9
$DIMSE2
 70
0
  9
$DIMTAD
 70
1
  9
$DIMZIN
 70
8
  9
$DIMBLK
  1

  9
$DIMASO
 70
1
  9
$DIMSHO
 70
1
  9
$DIMPOST
  1

  9
$DIMAPOST
  1

  9
$DIMALT
 70
0
  9
$DIMALTD
 70
3
  9
$DIMALTF
 40
0.03937007874
  9
$DIMLFAC
 40
1.0
  9
$DIMTOFL
 70
1
  9
$DIMTVP
 40
0.0
  9
$DIMTIX
 70
0
  9
$DIMSOXD
 70
0
  9
$DIMSAH
 70
0
  9
$DIMBLK1
  1

  9
$DIMBLK2
  1

  9
$DIMSTYLE
  2
ISO-25
  9
$DIMCLRD
 70
0
  9
$DIMCLRE
 70
0
  9
$DIMCLRT
 70
0
  9
$DIMTFAC
 40
1.0
  9
$DIMGAP
 40
0.625
  9
$DIMJUST
 70
0
  9
$DIMSD1
 70
0
  9
$DIMSD2
 70
0
  9
$DIMTOLJ
 70
0
  9
$DIMTZIN
 70
8
  9
$DIMALTZ
 70
0
  9
$DIMALTTZ
 70
0
  9
$DIMUPT
 70
0
  9
$DIMDEC
 70
2
  9
$DIMTDEC
 70
2
  9
$DIMALTU
 70
2
  9
$DIMALTTD
 70
3
  9
$DIMTXSTY
  7
Standard
  9
$DIMAUNIT
 70
0
  9
$DIMADEC
 70
0
  9
$DIMALTRND
 40
0.0
  9
$DIMAZIN
 70
0
  9
$DIMDSEP
 70
44
  9
$DIMATFIT
 70
3
  9
$DIMFRAC
 70
0
  9
$DIMLDRBLK
  1

  9
$DIMLUNIT
 70
2
  9
$DIMLWD
 70
-2
  9
$DIMLWE
 70
-2
  9
$DIMTMOVE
 70
0
  9
$LUNITS
 70
2
  9
$LUPREC
 70
4
  9
$SKETCHINC
 40
1.0
  9
$FILLETRAD
 40
10.0
  9
$AUNITS
 70
0
  9
$AUPREC
 70
2
  9
$MENU
  1
.
  9
$ELEVATION
 40
0.0
  9
$PELEVATION
 40
0.0
  9
$THICKNESS
 40
0.0
  9
$LIMCHECK
 70
0
  9
$CHAMFERA
 40
0.0
  9
$CHAMFERB
 40
0.0
  9
$CHAMFERC
 40
0.0
  9
$CHAMFERD
 40
0.0
  9
$SKPOLY
 70
0
  9
$TDCREATE
 40
2461229.600011574
  9
$TDUCREATE
 40
2458532.153996898
  9
$TDUPDATE
 40
2461229.600011574
  9
$TDUUPDATE
 40
2458532.1544311
  9
$TDINDWG
 40
0.0
  9
$TDUSRTIMER
 40
0.0
  9
$USRTIMER
 70
1
  9
$ANGBASE
 50
0.0
  9
$ANGDIR
 70
0
  9
$PDMODE
 70
0
  9
$PDSIZE
 40
0.0
  9
$PLINEWID
 40
0.0
  9
$SPLFRAME
 70
0
  9
$SPLINETYPE
 70
6
  9
$SPLINESEGS
 70
8
  9
$HANDSEED
  5
1BB
  9
$SURFTAB1
 70
6
  9
$SURFTAB2
 70
6
  9
$SURFTYPE
 70
6
  9
$SURFU
 70
6
  9
$SURFV
 70
6
  9
$UCSBASE
  2

  9
$UCSNAME
  2

  9
$UCSORG
 10
0.0
 20
0.0
 30
0.0
  9
$UCSXDIR
 10
1.0
 20
0.0
 30
0.0
  9
$UCSYDIR
 10
0.0
 20
1.0
 30
0.0
  9
$UCSORTHOREF
  2

  9
$UCSORTHOVIEW
 70
0
  9
$UCSORGTOP
 10
0.0
 20
0.0
 30
0.0
  9
$UCSORGBOTTOM
 10
0.0
 20
0.0
 30
0.0
  9
$UCSORGLEFT
 10
0.0
 20
0.0
 30
0.0
  9
$UCSORGRIGHT
 10
0.0
 20
0.0
 30
0.0
  9
$UCSORGFRONT
 10
0.0
 20
0.0
 30
0.0
  9
$UCSORGBACK
 10
0.0
 20
0.0
 30
0.0
  9
$PUCSBASE
  2

  9
$PUCSNAME
  2

  9
$PUCSORG
 10
0.0
 20
0.0
 30
0.0
  9
$PUCSXDIR
 10
1.0
 20
0.0
 30
0.0
  9
$PUCSYDIR
 10
0.0
 20
1.0
 30
0.0
  9
$PUCSORTHOREF
  2

  9
$PUCSORTHOVIEW
 70
0
  9
$PUCSORGTOP
 10
0.0
 20
0.0
 30
0.0
  9
$PUCSORGBOTTOM
 10
0.0
 20
0.0
 30
0.0
  9
$PUCSORGLEFT
 10
0.0
 20
0.0
 30
0.0
  9
$PUCSORGRIGHT
 10
0.0
 20
0.0
 30
0.0
  9
$PUCSORGFRONT
 10
0.0
 20
0.0
 30
0.0
  9
$PUCSORGBACK
 10
0.0
 20
0.0
 30
0.0
  9
$USERI1
 70
0
  9
$USERI2
 70
0
  9
$USERI3
 70
0
  9
$USERI4
 70
0
  9
$USERI5
 70
0
  9
$USERR1
 40
0.0
  9
$USERR2
 40
0.0
  9
$USERR3
 40
0.0
  9
$USERR4
 40
0.0
  9
$USERR5
 40
0.0
  9
$WORLDVIEW
 70
1
  9
$SHADEDGE
 70
3
  9
$SHADEDIF
 70
70
  9
$TILEMODE
 70
1
  9
$MAXACTVP
 70
64
  9
$PINSBASE
 10
0.0
 20
0.0
 30
0.0
  9
$PLIMCHECK
 70
0
  9
$PEXTMIN
 10
1e+20
 20
1e+20
 30
1e+20
  9
$PEXTMAX
 10
-1e+20
 20
-1e+20
 30
-1e+20
  9
$PLIMMIN
 10
0.0
 20
0.0
  9
$PLIMMAX
 10
420.0
 20
297.0
  9
$UNITMODE
 70
0
  9
$VISRETAIN
 70
1
  9
$PLINEGEN
 70
0
  9
$PSLTSCALE
 70
1
  9
$TREEDEPTH
 70
3020
  9
$CMLSTYLE
  2
Standard
  9
$CMLJUST
 70
0
  9
$CMLSCALE
 40
20.0
  9
$PROXYGRAPHICS
 70
1
  9
$MEASUREMENT
 70
1
  9
$CELWEIGHT
370
-1
  9
$ENDCAPS
280
0
  9
$JOINSTYLE
280
0
  9
$LWDISPLAY
290
0
  9
$INSUNITS
 70
6
  9
$HYPERLINKBASE
  1

  9
$STYLESHEET
  1

  9
$XEDIT
290
1
  9
$CEPSNTYPE
380
0
  9
$PSTYLEMODE
290
1
  9
$FINGERPRINTGUID
  2
{EEFBA19D-7293-4282-A2D4-9BF39BE19898}
  9
$VERSIONGUID
  2
{0B7DEC0F-594C-469E-8581-530FDEBF6FB7}
  9
$EXTNAMES
290
1
  9
$PSVPSCALE
 40
0.0
  9
$OLESTARTUP
290
0
  0
ENDSEC
  0
SECTION
  2
CLASSES
  0
CLASS
  1
ACDBDICTIONARYWDFLT
  2
AcDbDictionaryWithDefault
  3
ObjectDBX Classes
 90
0
280
0
281
0
  0
CLASS
  1
SUN
  2
AcDbSun
  3
SCENEOE
 90
1153
280
0
281
0
  0
CLASS
  1
VISUALSTYLE
  2
AcDbVisualStyle
  3
ObjectDBX Classes
 90
4095
280
0
281
0
  0
CLASS
  1
MATERIAL
  2
AcDbMaterial
  3
ObjectDBX Classes
 90
1153
280
0
281
0
  0
CLASS
  1
SCALE
  2
AcDbScale
  3
ObjectDBX Classes
 90
1153
280
0
281
0
  0
CLASS
  1
TABLESTYLE
  2
AcDbTableStyle
  3
ObjectDBX Classes
 90
4095
280
0
281
0
  0
CLASS
  1
MLEADERSTYLE
  2
AcDbMLeaderStyle
  3
ACDB_MLEADERSTYLE_CLASS
 90
4095
280
0
281
0
  0
CLASS
  1
DICTIONARYVAR
  2
AcDbDictionaryVar
  3
ObjectDBX Classes
 90
0
280
0
281
0
  0
CLASS
  1
CELLSTYLEMAP
  2
AcDbCellStyleMap
  3
ObjectDBX Classes
 90
1152
280
0
281
0
  0
CLASS
  1
MENTALRAYRENDERSETTINGS
  2
AcDbMentalRayRenderSettings
  3
SCENEOE
 90
1024
280
0
281
0
  0
CLASS
  1
ACDBDETAILVIEWSTYLE
  2
AcDbDetailViewStyle
  3
ObjectDBX Classes
 90
1025
280
0
281
0
  0
CLASS
  1
ACDBSECTIONVIEWSTYLE
  2
AcDbSectionViewStyle
  3
ObjectDBX Classes
 90
1025
280
0
281
0
  0
CLASS
  1
RASTERVARIABLES
  2
AcDbRasterVariables
  3
ISM
 90
0
280
0
281
0
  0
CLASS
  1
ACDBPLACEHOLDER
  2
AcDbPlaceHolder
  3
ObjectDBX Classes
 90
0
280
0
281
0
  0
CLASS
  1
LAYOUT
  2
AcDbLayout
  3
ObjectDBX Classes
 90
0
280
0
281
0
  0
ENDSEC
  0
SECTION
  2
TABLES
  0
TABLE
  2
VPORT
  5
8
330
0
100
AcDbSymbolTable
 70
1
  0
VPORT
  5
23
330
8
100
AcDbSymbolTableRecord
100
AcDbViewportTableRecord
  2
*Active
 70
0
 10
0.0
 20
0.0
 11
1.0
 21
1.0
 12
0.0
 22
0.0
 13
0.0
 23
0.0
 14
0.5
 24
0.5
 15
0.5
 25
0.5
 16
0.0
 26
0.0
 36
1.0
 17
0.0
 27
0.0
 37
0.0
 40
1000.0
 41
1.34
 42
50.0
 43
0.0
 44
0.0
 50
0.0
 51
0.0
 71
0
 72
1000
 73
1
 74
3
 75
0
 76
0
 77
0
 78
0
281
0
 65
0
146
0.0
  0
ENDTAB
  0
TABLE
  2
LTYPE
  5
2
330
0
100
AcDbSymbolTable
 70
3
  0
LTYPE
  5
24
330
2
100
AcDbSymbolTableRecord
100
AcDbLinetypeTableRecord
  2
ByBlock
 70
0
  3

 72
65
 73
0
 40
0.0
  0
LTYPE
  5
25
330
2
100
AcDbSymbolTableRecord
100
AcDbLinetypeTableRecord
  2
ByLayer
 70
0
  3

 72
65
 73
0
 40
0.0
  0
LTYPE
  5
26
330
2
100
AcDbSymbolTableRecord
100
AcDbLinetypeTableRecord
  2
Continuous
 70
0
  3

 72
65
 73
0
 40
0.0
  0
ENDTAB
  0
TABLE
  2
LAYER
  5
1
330
0
100
AcDbSymbolTable
 70
2
  0
LAYER
  5
27
330
1
100
AcDbSymbolTableRecord
100
AcDbLayerTableRecord
  2
0
 70
0
 62
7
  6
Continuous
370
-3
390
13
  0
LAYER
  5
28
330
1
100
AcDbSymbolTableRecord
100
AcDbLayerTableRecord
  2
Defpoints
 70
0
 62
7
  6
Continuous
290
0
370
-3
390
13
  0
ENDTAB
  0
TABLE
  2
STYLE
  5
5
330
0
100
AcDbSymbolTable
 70
1
  0
STYLE
  5
29
330
5
100
AcDbSymbolTableRecord
100
AcDbTextStyleTableRecord
  2
Standard
 70
0
 40
0.0
 41
1.0
 50
0.0
 71
0
 42
2.5
  3
txt
  4

  0
ENDTAB
  0
TABLE
  2
VIEW
  5
7
330
0
100
AcDbSymbolTable
 70
0
  0
ENDTAB
  0
TABLE
  2
UCS
  5
6
330
0
100
AcDbSymbolTable
 70
0
  0
ENDTAB
  0
TABLE
  2
APPID
  5
3
330
0
100
AcDbSymbolTable
 70
3
  0
APPID
  5
2A
330
3
100
AcDbSymbolTableRecord
100
AcDbRegAppTableRecord
  2
ACAD
 70
0
  0
APPID
  5
1B8
330
3
100
AcDbSymbolTableRecord
100
AcDbRegAppTableRecord
  2
HATCHBACKGROUNDCOLOR
 70
0
  0
APPID
  5
1B9
330
3
100
AcDbSymbolTableRecord
100
AcDbRegAppTableRecord
  2
EZDXF
 70
0
  0
ENDTAB
  0
TABLE
  2
DIMSTYLE
  5
4
330
0
100
AcDbSymbolTable
 70
1
100
AcDbDimStyleTable
  0
DIMSTYLE
105
2B
330
4
100
AcDbSymbolTableRecord
100
AcDbDimStyleTableRecord
  2
Standard
 70
0
  3

  4

 40
1.0
 41
2.5
 42
0.625
 43
3.75
 44
1.25
 45
0.0
 46
0.0
 47
0.0
 48
0.0
140
2.5
141
2.5
142
0.0
143
0.03937007874
144
1.0
145
0.0
146
1.0
147
0.625
148
0.0
 71
0
 72
0
 73
0
 74
0
 75
0
 76
0
 77
1
 78
8
 79
3
170
0
171
3
172
1
173
0
174
0
175
0
176
0
177
0
178
0
179
2
271
2
272
2
273
2
274
3
275
0
276
0
277
2
278
44
279
0
280
0
281
0
282
0
283
0
284
8
285
0
286
0
288
0
289
3
371
-2
372
-2
  0
ENDTAB
  0
TABLE
  2
BLOCK_RECORD
  5
9
330
0
100
AcDbSymbolTable
 70
2
  0
BLOCK_RECORD
  5
17
330
9
100
AcDbSymbolTableRecord
100
AcDbBlockTableRecord
  2
*Model_Space
340
1A
  0
BLOCK_RECORD
  5
1B
330
9
100
AcDbSymbolTableRecord
100
AcDbBlockTableRecord
  2
*Paper_Space
340
1E
  0
ENDTAB
  0
ENDSEC
  0
SECTION
  2
BLOCKS
  0
BLOCK
  5
18
330
17
100
AcDbEntity
  8
0
100
AcDbBlockBegin
  2
*Model_Space
 70
0
 10
0.0
 20
0.0
 30
0.0
  3
*Model_Space
  1

  0
ENDBLK
  5
19
330
17
100
AcDbEntity
  8
0
100
AcDbBlockEnd
  0
BLOCK
  5
1C
330
1B
100
AcDbEntity
  8
0
100
AcDbBlockBegin
  2
*Paper_Space
 70
0
 10
0.0
 20
0.0
 30
0.0
  3
*Paper_Space
  1

  0
ENDBLK
  5
1D
330
1B
100
AcDbEntity
  8
0
100
AcDbBlockEnd
  0
ENDSEC
  0
SECTION
  2
ENTITIES
  0
LWPOLYLINE
  5
2F
330
17
100
AcDbEntity
  8
ROADS
100
AcDbPolyline
 90
2
 70
0
 10
630815.6890820677
 20
4839367.748153279
 10
630839.0967389203
 20
4839375.161016551
  0
LWPOLYLINE
  5
30
330
17
100
AcDbEntity
  8
ROADS
100
AcDbPolyline
 90
2
 70
0
 10
630297.5952437341
 20
4839701.095662794
 10
630647.4482972592
 20
4839809.905691558
  0
LWPOLYLINE
  5
31
330
17
100
AcDbEntity
  8
ROADS
100
AcDbPolyline
 90
2
 70
0
 10
630233.2848465104
 20
4839814.298204972
 10
630387.0372522278
 20
4839861.882415596
  0
LWPOLYLINE
  5
32
330
17
100
AcDbEntity
  8
ROADS
100
AcDbPolyline
 90
2
 70
0
 10
630210.7354867196
 20
4839867.248879842
 10
630330.2125264683
 20
4839904.592463127
  0
LWPOLYLINE
  5
33
330
17
100
AcDbEntity
  8
ROADS
100
AcDbPolyline
 90
2
 70
0
 10
630191.097140179
 20
4839920.931087648
 10
630269.40512102
 20
4839945.666328703
  0
LWPOLYLINE
  5
34
330
17
100
AcDbEntity
  8
ROADS
100
AcDbPolyline
 90
2
 70
0
 10
630387.0372522278
 20
4839861.882415596
 10
630352.1233275271
 20
4839970.1645388715
  0
LWPOLYLINE
  5
35
330
17
100
AcDbEntity
  8
ROADS
100
AcDbPolyline
 90
2
 70
0
 10
630269.40512102
 20
4839945.666328703
 10
630352.1233275271
 20
4839970.1645388715
  0
LWPOLYLINE
  5
36
330
17
100
AcDbEntity
  8
ROADS
100
AcDbPolyline
 90
2
 70
0
 10
630842.5646888907
 20
4839364.191500936
 10
630839.0967389203
 20
4839375.161016551
  0
LWPOLYLINE
  5
37
330
17
100
AcDbEntity
  8
ROADS
100
AcDbPolyline
 90
2
 70
0
 10
631000.5861775556
 20
4839357.337740646
 10
631009.0207037773
 20
4839359.98470939
  0
LWPOLYLINE
  5
38
330
17
100
AcDbEntity
  8
ROADS
100
AcDbPolyline
 90
2
 70
0
 10
631009.7053404179
 20
4839357.925960428
 10
631009.0207037773
 20
4839359.98470939
  0
LWPOLYLINE
  5
39
330
17
100
AcDbEntity
  8
ROADS
100
AcDbPolyline
 90
2
 70
0
 10
631090.7075898326
 20
4839367.5273011625
 10
631078.7368005312
 20
4839408.744413019
  0
LWPOLYLINE
  5
3A
330
17
100
AcDbEntity
  8
ROADS
100
AcDbPolyline
 90
2
 70
0
 10
631009.0207037773
 20
4839359.98470939
 10
630990.9450870755
 20
4839417.658967376
  0
LWPOLYLINE
  5
3B
330
17
100
AcDbEntity
  8
ROADS
100
AcDbPolyline
 90
2
 70
0
 10
630839.0967389203
 20
4839375.161016551
 10
630990.9450870755
 20
4839417.658967376
  0
LWPOLYLINE
  5
3C
330
17
100
AcDbEntity
  8
ROADS
100
AcDbPolyline
 90
2
 70
0
 10
630990.9450870755
 20
4839417.658967376
 10
631150.6704734854
 20
4839466.381907469
  0
LWPOLYLINE
  5
3D
330
17
100
AcDbEntity
  8
ROADS
100
AcDbPolyline
 90
2
 70
0
 10
631199.0076154219
 20
4839392.969396458
 10
631213.9619249237
 20
4839397.712364261
  0
LWPOLYLINE
  5
3E
330
17
100
AcDbEntity
  8
ROADS
100
AcDbPolyline
 90
2
 70
0
 10
631158.3583870067
 20
4839382.138328471
 10
631150.6704734854
 20
4839466.381907469
  0
LWPOLYLINE
  5
3F
330
17
100
AcDbEntity
  8
ROADS
100
AcDbPolyline
 90
2
 70
0
 10
631238.6592064131
 20
4839405.607215364
 10
631208.3126510687
 20
4839480.593681851
  0
LWPOLYLINE
  5
40
330
17
100
AcDbEntity
  8
ROADS
100
AcDbPolyline
 90
2
 70
0
 10
631357.4372853718
 20
4839451.770701458
 10
631335.9803845984
 20
4839515.350727575
  0
LWPOLYLINE
  5
41
330
17
100
AcDbEntity
  8
ROADS
100
AcDbPolyline
 90
2
 70
0
 10
631150.6704734854
 20
4839466.381907469
 10
631208.3126510687
 20
4839480.593681851
  0
LWPOLYLINE
  5
42
330
17
100
AcDbEntity
  8
ROADS
100
AcDbPolyline
 90
2
 70
0
 10
631492.0616062483
 20
4839565.236926346
 10
631556.9518068287
 20
4839586.122431614
  0
LWPOLYLINE
  5
43
330
17
100
AcDbEntity
  8
ROADS
100
AcDbPolyline
 90
2
 70
0
 10
631401.29786953
 20
4839536.101849992
 10
631421.7948424591
 20
4839485.747342033
  0
LWPOLYLINE
  5
44
330
17
100
AcDbEntity
  8
ROADS
100
AcDbPolyline
 90
2
 70
0
 10
631208.3126510687
 20
4839480.593681851
 10
631335.9803845984
 20
4839515.350727575
  0
LWPOLYLINE
  5
45
330
17
100
AcDbEntity
  8
ROADS
100
AcDbPolyline
 90
2
 70
0
 10
631335.9803845984
 20
4839515.350727575
 10
631401.29786953
 20
4839536.101849992
  0
LWPOLYLINE
  5
46
330
17
100
AcDbEntity
  8
ROADS
100
AcDbPolyline
 90
2
 70
0
 10
631401.29786953
 20
4839536.101849992
 10
631492.0616062483
 20
4839565.236926346
  0
LWPOLYLINE
  5
47
330
17
100
AcDbEntity
  8
ROADS
100
AcDbPolyline
 90
2
 70
0
 10
631208.3126510687
 20
4839480.593681851
 10
631142.3296113287
 20
4839699.398232371
  0
LWPOLYLINE
  5
48
330
17
100
AcDbEntity
  8
ROADS
100
AcDbPolyline
 90
2
 70
0
 10
631401.29786953
 20
4839536.101849992
 10
631334.0573922509
 20
4839763.87643646
  0
LWPOLYLINE
  5
49
330
17
100
AcDbEntity
  8
ROADS
100
AcDbPolyline
 90
3
 70
0
 10
631239.9623887222
 20
4839729.162641736
 10
631268.3024546813
 20
4839630.603007651
 10
631254.857145587
 20
4839619.674970607
  0
LWPOLYLINE
  5
4A
330
17
100
AcDbEntity
  8
ROADS
100
AcDbPolyline
 90
2
 70
0
 10
631492.0616062483
 20
4839565.236926346
 10
631422.1355095592
 20
4839800.992580905
  0
LWPOLYLINE
  5
4B
330
17
100
AcDbEntity
  8
ROADS
100
AcDbPolyline
 90
2
 70
0
 10
631142.3296113287
 20
4839699.398232371
 10
631239.9623887222
 20
4839729.162641736
  0
LWPOLYLINE
  5
4C
330
17
100
AcDbEntity
  8
ROADS
100
AcDbPolyline
 90
2
 70
0
 10
631239.9623887222
 20
4839729.162641736
 10
631334.0573922509
 20
4839763.87643646
  0
LWPOLYLINE
  5
4D
330
17
100
AcDbEntity
  8
ROADS
100
AcDbPolyline
 90
2
 70
0
 10
631598.6550899927
 20
4839626.986343334
 10
631497.0708607093
 20
4839839.369077619
  0
LWPOLYLINE
  5
4E
330
17
100
AcDbEntity
  8
ROADS
100
AcDbPolyline
 90
2
 70
0
 10
631686.1574357252
 20
4839737.55381747
 10
631566.4318630011
 20
4839887.1394526325
  0
LWPOLYLINE
  5
4F
330
17
100
AcDbEntity
  8
ROADS
100
AcDbPolyline
 90
2
 70
0
 10
631497.0708607093
 20
4839839.369077619
 10
631566.4318630011
 20
4839887.1394526325
  0
LWPOLYLINE
  5
50
330
17
100
AcDbEntity
  8
ROADS
100
AcDbPolyline
 90
2
 70
0
 10
631566.4318630011
 20
4839887.1394526325
 10
631503.9292385179
 20
4839966.512678084
  0
LWPOLYLINE
  5
51
330
17
100
AcDbEntity
  8
ROADS
100
AcDbPolyline
 90
2
 70
0
 10
631566.4318630011
 20
4839887.1394526325
 10
631692.2424728011
 20
4840024.437833165
  0
LWPOLYLINE
  5
52
330
17
100
AcDbEntity
  8
ROADS
100
AcDbPolyline
 90
2
 70
0
 10
631778.542173111
 20
4839966.996746798
 10
631692.2424728011
 20
4840024.437833165
  0
LWPOLYLINE
  5
53
330
17
100
AcDbEntity
  8
ROADS
100
AcDbPolyline
 90
2
 70
0
 10
631503.9292385179
 20
4839966.512678084
 10
631440.1320446408
 20
4840044.86137715
  0
LWPOLYLINE
  5
54
330
17
100
AcDbEntity
  8
ROADS
100
AcDbPolyline
 90
2
 70
0
 10
631503.9292385179
 20
4839966.512678084
 10
631610.5576781846
 20
4840080.964311016
  0
LWPOLYLINE
  5
55
330
17
100
AcDbEntity
  8
ROADS
100
AcDbPolyline
 90
2
 70
0
 10
631692.2424728011
 20
4840024.437833165
 10
631610.5576781846
 20
4840080.964311016
  0
LWPOLYLINE
  5
56
330
17
100
AcDbEntity
  8
ROADS
100
AcDbPolyline
 90
2
 70
0
 10
631440.1320446408
 20
4840044.86137715
 10
631525.315724478
 20
4840138.922514117
  0
LWPOLYLINE
  5
57
330
17
100
AcDbEntity
  8
ROADS
100
AcDbPolyline
 90
2
 70
0
 10
631334.0573922509
 20
4839763.87643646
 10
631361.7820807139
 20
4839777.384994945
  0
LWPOLYLINE
  5
58
330
17
100
AcDbEntity
  8
ROADS
100
AcDbPolyline
 90
2
 70
0
 10
631361.7820807139
 20
4839777.384994945
 10
631422.1355095592
 20
4839800.992580905
  0
LWPOLYLINE
  5
59
330
17
100
AcDbEntity
  8
ROADS
100
AcDbPolyline
 90
2
 70
0
 10
631116.8244869474
 20
4839792.112678293
 10
631214.4612675235
 20
4839822.705246332
  0
LWPOLYLINE
  5
5A
330
17
100
AcDbEntity
  8
ROADS
100
AcDbPolyline
 90
2
 70
0
 10
631422.1355095592
 20
4839800.992580905
 10
631497.0708607093
 20
4839839.369077619
  0
LWPOLYLINE
  5
5B
330
17
100
AcDbEntity
  8
ROADS
100
AcDbPolyline
 90
2
 70
0
 10
631361.7820807139
 20
4839777.384994945
 10
631348.6728839854
 20
4839880.157496928
  0
LWPOLYLINE
  5
5C
330
17
100
AcDbEntity
  8
ROADS
100
AcDbPolyline
 90
2
 70
0
 10
631214.4612675235
 20
4839822.705246332
 10
631348.6728839854
 20
4839880.157496928
  0
LWPOLYLINE
  5
5D
330
17
100
AcDbEntity
  8
ROADS
100
AcDbPolyline
 90
2
 70
0
 10
631348.6728839854
 20
4839880.157496928
 10
631503.9292385179
 20
4839966.512678084
  0
LWPOLYLINE
  5
5E
330
17
100
AcDbEntity
  8
ROADS
100
AcDbPolyline
 90
3
 70
0
 10
631214.4612675235
 20
4839822.705246332
 10
631236.5054087095
 20
4839932.125151201
 10
631215.3601459366
 20
4840043.267847146
  0
LWPOLYLINE
  5
5F
330
17
100
AcDbEntity
  8
ROADS
100
AcDbPolyline
 90
2
 70
0
 10
631348.6728839854
 20
4839880.157496928
 10
631349.2288764544
 20
4839994.19504873
  0
LWPOLYLINE
  5
60
330
17
100
AcDbEntity
  8
ROADS
100
AcDbPolyline
 90
3
 70
0
 10
631072.2287931854
 20
4839942.266977219
 10
631145.8618291158
 20
4840007.624900013
 10
631215.3601459366
 20
4840043.267847146
  0
LWPOLYLINE
  5
61
330
17
100
AcDbEntity
  8
ROADS
100
AcDbPolyline
 90
2
 70
0
 10
631349.2288764544
 20
4839994.19504873
 10
631440.1320446408
 20
4840044.86137715
  0
LWPOLYLINE
  5
62
330
17
100
AcDbEntity
  8
ROADS
100
AcDbPolyline
 90
2
 70
0
 10
631349.2288764544
 20
4839994.19504873
 10
631326.1846311087
 20
4840089.795266442
  0
LWPOLYLINE
  5
63
330
17
100
AcDbEntity
  8
ROADS
100
AcDbPolyline
 90
2
 70
0
 10
631215.3601459366
 20
4840043.267847146
 10
631326.1846311087
 20
4840089.795266442
  0
LWPOLYLINE
  5
64
330
17
100
AcDbEntity
  8
ROADS
100
AcDbPolyline
 90
2
 70
0
 10
631326.1846311087
 20
4840089.795266442
 10
631304.0346813138
 20
4840158.407644088
  0
LWPOLYLINE
  5
65
330
17
100
AcDbEntity
  8
ROADS
100
AcDbPolyline
 90
3
 70
0
 10
631326.1846311087
 20
4840089.795266442
 10
631394.2703213475
 20
4840130.388062012
 10
631448.6148218315
 20
4840194.537034741
  0
LWPOLYLINE
  5
66
330
17
100
AcDbEntity
  8
ROADS
100
AcDbPolyline
 90
2
 70
0
 10
631203.3746100029
 20
4840127.072719406
 10
631304.0346813138
 20
4840158.407644088
  0
LWPOLYLINE
  5
67
330
17
100
AcDbEntity
  8
ROADS
100
AcDbPolyline
 90
2
 70
0
 10
631304.0346813138
 20
4840158.407644088
 10
631296.7356729067
 20
4840188.778850832
  0
LWPOLYLINE
  5
68
330
17
100
AcDbEntity
  8
ROADS
100
AcDbPolyline
 90
2
 70
0
 10
631203.3746100029
 20
4840127.072719406
 10
631150.56022994
 20
4840308.645144857
  0
LWPOLYLINE
  5
69
330
17
100
AcDbEntity
  8
ROADS
100
AcDbPolyline
 90
3
 70
0
 10
631296.7356729067
 20
4840188.778850832
 10
631334.2391166545
 20
4840213.67120548
 10
631385.0225927636
 20
4840282.39309584
  0
LWPOLYLINE
  5
6A
330
17
100
AcDbEntity
  8
ROADS
100
AcDbPolyline
 90
2
 70
0
 10
631448.6148218315
 20
4840194.537034741
 10
631385.0225927636
 20
4840282.39309584
  0
LWPOLYLINE
  5
6B
330
17
100
AcDbEntity
  8
ROADS
100
AcDbPolyline
 90
2
 70
0
 10
631786.661037922
 20
4839961.676491685
 10
631778.542173111
 20
4839966.996746798
  0
LWPOLYLINE
  5
6C
330
17
100
AcDbEntity
  8
ROADS
100
AcDbPolyline
 90
2
 70
0
 10
631778.542173111
 20
4839966.996746798
 10
631795.7251694702
 20
4839998.2612634
  0
LWPOLYLINE
  5
6D
330
17
100
AcDbEntity
  8
ROADS
100
AcDbPolyline
 90
2
 70
0
 10
631785.5819891589
 20
4840250.153563475
 10
631825.2468511648
 20
4840228.628402334
  0
LWPOLYLINE
  5
6E
330
17
100
AcDbEntity
  8
ROADS
100
AcDbPolyline
 90
2
 70
0
 10
631740.3854726218
 20
4840275.031756136
 10
631785.5819891589
 20
4840250.153563475
  0
LWPOLYLINE
  5
6F
330
17
100
AcDbEntity
  8
ROADS
100
AcDbPolyline
 90
3
 70
0
 10
631785.5819891589
 20
4840250.153563475
 10
631797.1699796744
 20
4840347.372583934
 10
631788.0734303839
 20
4840473.7165855365
  0
LWPOLYLINE
  5
70
330
17
100
AcDbEntity
  8
ROADS
100
AcDbPolyline
 90
2
 70
0
 10
631741.0365252071
 20
4840460.304553705
 10
631788.0734303839
 20
4840473.7165855365
  0
LWPOLYLINE
  5
71
330
17
100
AcDbEntity
  8
ROADS
100
AcDbPolyline
 90
2
 70
0
 10
631142.3296113287
 20
4839699.398232371
 10
631116.8244869474
 20
4839792.112678293
  0
LWPOLYLINE
  5
72
330
17
100
AcDbEntity
  8
ROADS
100
AcDbPolyline
 90
2
 70
0
 10
631116.8244869474
 20
4839792.112678293
 10
631104.4542518634
 20
4839833.477944543
  0
LWPOLYLINE
  5
73
330
17
100
AcDbEntity
  8
ROADS
100
AcDbPolyline
 90
3
 70
0
 10
631104.4542518634
 20
4839833.477944543
 10
631158.6080418995
 20
4839856.816347441
 10
631134.1035952119
 20
4839939.324136249
  0
LWPOLYLINE
  5
74
330
17
100
AcDbEntity
  8
ROADS
100
AcDbPolyline
 90
2
 70
0
 10
631104.4542518634
 20
4839833.477944543
 10
631072.2287931854
 20
4839942.266977219
  0
LWPOLYLINE
  5
75
330
17
100
AcDbEntity
  8
ROADS
100
AcDbPolyline
 90
2
 70
0
 10
630765.7314554522
 20
4839846.633178046
 10
631072.2287931854
 20
4839942.266977219
  0
LWPOLYLINE
  5
76
330
17
100
AcDbEntity
  8
ROADS
100
AcDbPolyline
 90
2
 70
0
 10
631072.2287931854
 20
4839942.266977219
 10
631034.1581093352
 20
4840069.062566105
  0
LWPOLYLINE
  5
77
330
17
100
AcDbEntity
  8
ROADS
100
AcDbPolyline
 90
2
 70
0
 10
630727.0029644766
 20
4839966.3992500305
 10
630989.8732400776
 20
4840048.25786474
  0
LWPOLYLINE
  5
78
330
17
100
AcDbEntity
  8
ROADS
100
AcDbPolyline
 90
2
 70
0
 10
630989.8732400776
 20
4840048.25786474
 10
631009.6810903398
 20
4839982.900412634
  0
LWPOLYLINE
  5
79
330
17
100
AcDbEntity
  8
ROADS
100
AcDbPolyline
 90
2
 70
0
 10
630989.8732400776
 20
4840048.25786474
 10
631034.1581093352
 20
4840069.062566105
  0
LWPOLYLINE
  5
7A
330
17
100
AcDbEntity
  8
ROADS
100
AcDbPolyline
 90
2
 70
0
 10
630707.5448219745
 20
4840019.891113338
 10
630973.8148353018
 20
4840102.550330593
  0
LWPOLYLINE
  5
7B
330
17
100
AcDbEntity
  8
ROADS
100
AcDbPolyline
 90
2
 70
0
 10
630647.4482972592
 20
4839809.905691558
 10
630650.1526102772
 20
4839783.089672931
  0
LWPOLYLINE
  5
7C
330
17
100
AcDbEntity
  8
ROADS
100
AcDbPolyline
 90
2
 70
0
 10
630647.4482972592
 20
4839809.905691558
 10
630765.7314554522
 20
4839846.633178046
  0
LWPOLYLINE
  5
7D
330
17
100
AcDbEntity
  8
ROADS
100
AcDbPolyline
 90
2
 70
0
 10
630387.0372522278
 20
4839861.882415596
 10
630513.179113873
 20
4839902.079314219
  0
LWPOLYLINE
  5
7E
330
17
100
AcDbEntity
  8
ROADS
100
AcDbPolyline
 90
2
 70
0
 10
630765.7314554522
 20
4839846.633178046
 10
630727.0029644766
 20
4839966.3992500305
  0
LWPOLYLINE
  5
7F
330
17
100
AcDbEntity
  8
ROADS
100
AcDbPolyline
 90
2
 70
0
 10
630513.179113873
 20
4839902.079314219
 10
630647.3672361693
 20
4839944.009932818
  0
LWPOLYLINE
  5
80
330
17
100
AcDbEntity
  8
ROADS
100
AcDbPolyline
 90
2
 70
0
 10
630647.3672361693
 20
4839944.009932818
 10
630727.0029644766
 20
4839966.3992500305
  0
LWPOLYLINE
  5
81
330
17
100
AcDbEntity
  8
ROADS
100
AcDbPolyline
 90
2
 70
0
 10
630513.179113873
 20
4839902.079314219
 10
630480.0156620614
 20
4840009.484079487
  0
LWPOLYLINE
  5
82
330
17
100
AcDbEntity
  8
ROADS
100
AcDbPolyline
 90
2
 70
0
 10
630727.0029644766
 20
4839966.3992500305
 10
630707.5448219745
 20
4840019.891113338
  0
LWPOLYLINE
  5
83
330
17
100
AcDbEntity
  8
ROADS
100
AcDbPolyline
 90
2
 70
0
 10
630391.9814790562
 20
4839983.38656412
 10
630480.0156620614
 20
4840009.484079487
  0
LWPOLYLINE
  5
84
330
17
100
AcDbEntity
  8
ROADS
100
AcDbPolyline
 90
2
 70
0
 10
630647.3672361693
 20
4839944.009932818
 10
630611.7654460894
 20
4840049.874513102
  0
LWPOLYLINE
  5
85
330
17
100
AcDbEntity
  8
ROADS
100
AcDbPolyline
 90
2
 70
0
 10
630391.9814790562
 20
4839983.38656412
 10
630374.8435128268
 20
4840041.079648651
  0
LWPOLYLINE
  5
86
330
17
100
AcDbEntity
  8
ROADS
100
AcDbPolyline
 90
2
 70
0
 10
630480.0156620614
 20
4840009.484079487
 10
630557.8654648409
 20
4840035.397346297
  0
LWPOLYLINE
  5
87
330
17
100
AcDbEntity
  8
ROADS
100
AcDbPolyline
 90
2
 70
0
 10
630557.8654648409
 20
4840035.397346297
 10
630611.7654460894
 20
4840049.874513102
  0
LWPOLYLINE
  5
88
330
17
100
AcDbEntity
  8
ROADS
100
AcDbPolyline
 90
2
 70
0
 10
630707.5448219745
 20
4840019.891113338
 10
630687.9648154959
 20
4840075.253901573
  0
LWPOLYLINE
  5
89
330
17
100
AcDbEntity
  8
ROADS
100
AcDbPolyline
 90
2
 70
0
 10
630611.7654460894
 20
4840049.874513102
 10
630630.4669822947
 20
4840057.713415931
  0
LWPOLYLINE
  5
8A
330
17
100
AcDbEntity
  8
ROADS
100
AcDbPolyline
 90
2
 70
0
 10
630630.4669822947
 20
4840057.713415931
 10
630687.9648154959
 20
4840075.253901573
  0
LWPOLYLINE
  5
8B
330
17
100
AcDbEntity
  8
ROADS
100
AcDbPolyline
 90
3
 70
0
 10
630480.0156620614
 20
4840009.484079487
 10
630462.4553508328
 20
4840061.169105474
 10
630377.6159818721
 20
4840136.634647764
  0
LWPOLYLINE
  5
8C
330
17
100
AcDbEntity
  8
ROADS
100
AcDbPolyline
 90
2
 70
0
 10
630630.4669822947
 20
4840057.713415931
 10
630613.0709742948
 20
4840115.903905598
  0
LWPOLYLINE
  5
8D
330
17
100
AcDbEntity
  8
ROADS
100
AcDbPolyline
 90
2
 70
0
 10
630687.9648154959
 20
4840075.253901573
 10
630817.0147650747
 20
4840112.588317817
  0
LWPOLYLINE
  5
8E
330
17
100
AcDbEntity
  8
ROADS
100
AcDbPolyline
 90
2
 70
0
 10
630557.8654648409
 20
4840035.397346297
 10
630512.9748457401
 20
4840176.0923470985
  0
LWPOLYLINE
  5
8F
330
17
100
AcDbEntity
  8
ROADS
100
AcDbPolyline
 90
2
 70
0
 10
630352.1233275271
 20
4839970.1645388715
 10
630391.9814790562
 20
4839983.38656412
  0
LWPOLYLINE
  5
90
330
17
100
AcDbEntity
  8
ROADS
100
AcDbPolyline
 90
2
 70
0
 10
630269.40512102
 20
4839945.666328703
 10
630224.0134180845
 20
4840089.850402416
  0
LWPOLYLINE
  5
91
330
17
100
AcDbEntity
  8
ROADS
100
AcDbPolyline
 90
2
 70
0
 10
630148.2848890348
 20
4840066.911382861
 10
630224.0134180845
 20
4840089.850402416
  0
LWPOLYLINE
  5
92
330
17
100
AcDbEntity
  8
ROADS
100
AcDbPolyline
 90
2
 70
0
 10
630224.0134180845
 20
4840089.850402416
 10
630377.6159818721
 20
4840136.634647764
  0
LWPOLYLINE
  5
93
330
17
100
AcDbEntity
  8
ROADS
100
AcDbPolyline
 90
2
 70
0
 10
630377.6159818721
 20
4840136.634647764
 10
630290.7986013504
 20
4840208.224089518
  0
LWPOLYLINE
  5
94
330
17
100
AcDbEntity
  8
ROADS
100
AcDbPolyline
 90
2
 70
0
 10
630122.2488734995
 20
4840158.120761328
 10
630290.7986013504
 20
4840208.224089518
  0
LWPOLYLINE
  5
95
330
17
100
AcDbEntity
  8
ROADS
100
AcDbPolyline
 90
2
 70
0
 10
630116.597070637
 20
4840178.4585099965
 10
630270.564837913
 20
4840225.1002269415
  0
LWPOLYLINE
  5
96
330
17
100
AcDbEntity
  8
ROADS
100
AcDbPolyline
 90
4
 70
0
 10
630687.9648154959
 20
4840075.253901573
 10
630682.694679448
 20
4840112.661269637
 10
630700.7205808663
 20
4840161.490928626
 10
630686.816804834
 20
4840228.746263732
  0
LWPOLYLINE
  5
97
330
17
100
AcDbEntity
  8
ROADS
100
AcDbPolyline
 90
2
 70
0
 10
630377.6159818721
 20
4840136.634647764
 10
630512.9748457401
 20
4840176.0923470985
  0
LWPOLYLINE
  5
98
330
17
100
AcDbEntity
  8
ROADS
100
AcDbPolyline
 90
2
 70
0
 10
630512.9748457401
 20
4840176.0923470985
 10
630686.816804834
 20
4840228.746263732
  0
LWPOLYLINE
  5
99
330
17
100
AcDbEntity
  8
ROADS
100
AcDbPolyline
 90
2
 70
0
 10
630686.816804834
 20
4840228.746263732
 10
630776.0907560198
 20
4840255.362332813
  0
LWPOLYLINE
  5
9A
330
17
100
AcDbEntity
  8
ROADS
100
AcDbPolyline
 90
2
 70
0
 10
630382.9403803418
 20
4840236.237108007
 10
630375.9462759537
 20
4840256.611030159
  0
LWPOLYLINE
  5
9B
330
17
100
AcDbEntity
  8
ROADS
100
AcDbPolyline
 90
2
 70
0
 10
630382.9403803418
 20
4840236.237108007
 10
630474.02658407
 20
4840265.1081057
  0
LWPOLYLINE
  5
9C
330
17
100
AcDbEntity
  8
ROADS
100
AcDbPolyline
 90
2
 70
0
 10
630686.816804834
 20
4840228.746263732
 10
630658.4055182978
 20
4840320.677910348
  0
LWPOLYLINE
  5
9D
330
17
100
AcDbEntity
  8
ROADS
100
AcDbPolyline
 90
2
 70
0
 10
630474.02658407
 20
4840265.1081057
 10
630565.9883055881
 20
4840292.462849162
  0
LWPOLYLINE
  5
9E
330
17
100
AcDbEntity
  8
ROADS
100
AcDbPolyline
 90
2
 70
0
 10
630565.9883055881
 20
4840292.462849162
 10
630658.4055182978
 20
4840320.677910348
  0
LWPOLYLINE
  5
9F
330
17
100
AcDbEntity
  8
ROADS
100
AcDbPolyline
 90
2
 70
0
 10
630658.4055182978
 20
4840320.677910348
 10
630750.0821570515
 20
4840348.425554034
  0
LWPOLYLINE
  5
A0
330
17
100
AcDbEntity
  8
ROADS
100
AcDbPolyline
 90
2
 70
0
 10
630290.7986013504
 20
4840208.224089518
 10
630270.564837913
 20
4840225.1002269415
  0
LWPOLYLINE
  5
A1
330
17
100
AcDbEntity
  8
ROADS
100
AcDbPolyline
 90
2
 70
0
 10
630290.7986013504
 20
4840208.224089518
 10
630382.9403803418
 20
4840236.237108007
  0
LWPOLYLINE
  5
A2
330
17
100
AcDbEntity
  8
ROADS
100
AcDbPolyline
 90
2
 70
0
 10
630270.564837913
 20
4840225.1002269415
 10
630375.9462759537
 20
4840256.611030159
  0
LWPOLYLINE
  5
A3
330
17
100
AcDbEntity
  8
ROADS
100
AcDbPolyline
 90
2
 70
0
 10
630270.564837913
 20
4840225.1002269415
 10
630200.3238260909
 20
4840302.427931906
  0
LWPOLYLINE
  5
A4
330
17
100
AcDbEntity
  8
ROADS
100
AcDbPolyline
 90
2
 70
0
 10
630085.0595697023
 20
4840267.947394843
 10
630200.3238260909
 20
4840302.427931906
  0
LWPOLYLINE
  5
A5
330
17
100
AcDbEntity
  8
ROADS
100
AcDbPolyline
 90
2
 70
0
 10
630375.9462759537
 20
4840256.611030159
 10
630347.129249627
 20
4840346.593108948
  0
LWPOLYLINE
  5
A6
330
17
100
AcDbEntity
  8
ROADS
100
AcDbPolyline
 90
2
 70
0
 10
630200.3238260909
 20
4840302.427931906
 10
630347.129249627
 20
4840346.593108948
  0
LWPOLYLINE
  5
A7
330
17
100
AcDbEntity
  8
ROADS
100
AcDbPolyline
 90
2
 70
0
 10
630200.3238260909
 20
4840302.427931906
 10
630141.3523866193
 20
4840385.239886396
  0
LWPOLYLINE
  5
A8
330
17
100
AcDbEntity
  8
ROADS
100
AcDbPolyline
 90
2
 70
0
 10
630046.4518112164
 20
4840356.40101719
 10
630103.5121371096
 20
4840373.719451603
  0
LWPOLYLINE
  5
A9
330
17
100
AcDbEntity
  8
ROADS
100
AcDbPolyline
 90
2
 70
0
 10
630776.0907560198
 20
4840255.362332813
 10
630866.7623086325
 20
4840282.504739539
  0
LWPOLYLINE
  5
AA
330
17
100
AcDbEntity
  8
ROADS
100
AcDbPolyline
 90
2
 70
0
 10
630866.7623086325
 20
4840282.504739539
 10
630917.4253438987
 20
4840298.0734755425
  0
LWPOLYLINE
  5
AB
330
17
100
AcDbEntity
  8
ROADS
100
AcDbPolyline
 90
2
 70
0
 10
630917.4253438987
 20
4840298.0734755425
 10
630960.1250416836
 20
4840311.19696328
  0
LWPOLYLINE
  5
AC
330
17
100
AcDbEntity
  8
ROADS
100
AcDbPolyline
 90
2
 70
0
 10
630960.1250416836
 20
4840311.19696328
 10
631007.9461384634
 20
4840325.480196512
  0
LWPOLYLINE
  5
AD
330
17
100
AcDbEntity
  8
ROADS
100
AcDbPolyline
 90
2
 70
0
 10
631007.9461384634
 20
4840325.480196512
 10
631059.747156239
 20
4840340.834517998
  0
LWPOLYLINE
  5
AE
330
17
100
AcDbEntity
  8
ROADS
100
AcDbPolyline
 90
2
 70
0
 10
630917.4253438987
 20
4840298.0734755425
 10
630889.822265106
 20
4840391.43190669
  0
LWPOLYLINE
  5
AF
330
17
100
AcDbEntity
  8
ROADS
100
AcDbPolyline
 90
2
 70
0
 10
631059.747156239
 20
4840340.834517998
 10
631133.711511485
 20
4840363.225347745
  0
LWPOLYLINE
  5
B0
330
17
100
AcDbEntity
  8
ROADS
100
AcDbPolyline
 90
2
 70
0
 10
630960.1250416836
 20
4840311.19696328
 10
630932.4853084958
 20
4840403.706679972
  0
LWPOLYLINE
  5
B1
330
17
100
AcDbEntity
  8
ROADS
100
AcDbPolyline
 90
2
 70
0
 10
630750.0821570515
 20
4840348.425554034
 10
630841.5217935501
 20
4840377.0579891605
  0
LWPOLYLINE
  5
B2
330
17
100
AcDbEntity
  8
ROADS
100
AcDbPolyline
 90
2
 70
0
 10
630841.5217935501
 20
4840377.0579891605
 10
630889.822265106
 20
4840391.43190669
  0
LWPOLYLINE
  5
B3
330
17
100
AcDbEntity
  8
ROADS
100
AcDbPolyline
 90
2
 70
0
 10
630973.8148353018
 20
4840102.550330593
 10
630989.8732400776
 20
4840048.25786474
  0
LWPOLYLINE
  5
B4
330
17
100
AcDbEntity
  8
ROADS
100
AcDbPolyline
 90
2
 70
0
 10
631034.1581093352
 20
4840069.062566105
 10
631203.3746100029
 20
4840127.072719406
  0
LWPOLYLINE
  5
B5
330
17
100
AcDbEntity
  8
ROADS
100
AcDbPolyline
 90
2
 70
0
 10
631034.1581093352
 20
4840069.062566105
 10
631004.0059956386
 20
4840168.827401974
  0
LWPOLYLINE
  5
B6
330
17
100
AcDbEntity
  8
ROADS
100
AcDbPolyline
 90
2
 70
0
 10
630817.0147650747
 20
4840112.588317817
 10
630908.6899820474
 20
4840141.246957829
  0
LWPOLYLINE
  5
B7
330
17
100
AcDbEntity
  8
ROADS
100
AcDbPolyline
 90
2
 70
0
 10
630973.8148353018
 20
4840102.550330593
 10
630957.4089746007
 20
4840156.838505037
  0
LWPOLYLINE
  5
B8
330
17
100
AcDbEntity
  8
ROADS
100
AcDbPolyline
 90
2
 70
0
 10
630908.6899820474
 20
4840141.246957829
 10
630957.4089746007
 20
4840156.838505037
  0
LWPOLYLINE
  5
B9
330
17
100
AcDbEntity
  8
ROADS
100
AcDbPolyline
 90
2
 70
0
 10
630957.4089746007
 20
4840156.838505037
 10
631004.0059956386
 20
4840168.827401974
  0
LWPOLYLINE
  5
BA
330
17
100
AcDbEntity
  8
ROADS
100
AcDbPolyline
 90
2
 70
0
 10
630817.0147650747
 20
4840112.588317817
 10
630776.0907560198
 20
4840255.362332813
  0
LWPOLYLINE
  5
BB
330
17
100
AcDbEntity
  8
ROADS
100
AcDbPolyline
 90
2
 70
0
 10
630908.6899820474
 20
4840141.246957829
 10
630866.7623086325
 20
4840282.504739539
  0
LWPOLYLINE
  5
BC
330
17
100
AcDbEntity
  8
ROADS
100
AcDbPolyline
 90
2
 70
0
 10
631004.0059956386
 20
4840168.827401974
 10
630960.1250416836
 20
4840311.19696328
  0
LWPOLYLINE
  5
BD
330
17
100
AcDbEntity
  8
ROADS
100
AcDbPolyline
 90
2
 70
0
 10
631610.5576781846
 20
4840080.964311016
 10
631525.315724478
 20
4840138.922514117
  0
LWPOLYLINE
  5
BE
330
17
100
AcDbEntity
  8
ROADS
100
AcDbPolyline
 90
3
 70
0
 10
631692.2424728011
 20
4840024.437833165
 10
631746.554966775
 20
4840119.931637292
 10
631785.5819891589
 20
4840250.153563475
  0
LWPOLYLINE
  5
BF
330
17
100
AcDbEntity
  8
ROADS
100
AcDbPolyline
 90
2
 70
0
 10
631525.315724478
 20
4840138.922514117
 10
631448.6148218315
 20
4840194.537034741
  0
LWPOLYLINE
  5
C0
330
17
100
AcDbEntity
  8
ROADS
100
AcDbPolyline
 90
3
 70
0
 10
631610.5576781846
 20
4840080.964311016
 10
631656.3000403683
 20
4840157.800646821
 10
631694.0050006807
 20
4840302.113688321
  0
LWPOLYLINE
  5
C1
330
17
100
AcDbEntity
  8
ROADS
100
AcDbPolyline
 90
3
 70
0
 10
631525.315724478
 20
4840138.922514117
 10
631583.4828088513
 20
4840263.470211513
 10
631597.5461591576
 20
4840346.252872744
  0
LWPOLYLINE
  5
C2
330
17
100
AcDbEntity
  8
ROADS
100
AcDbPolyline
 90
2
 70
0
 10
631694.0050006807
 20
4840302.113688321
 10
631740.3854726218
 20
4840275.031756136
  0
LWPOLYLINE
  5
C3
330
17
100
AcDbEntity
  8
ROADS
100
AcDbPolyline
 90
2
 70
0
 10
631740.3854726218
 20
4840275.031756136
 10
631747.4657795844
 20
4840315.22789476
  0
LWPOLYLINE
  5
C4
330
17
100
AcDbEntity
  8
ROADS
100
AcDbPolyline
 90
2
 70
0
 10
631597.5461591576
 20
4840346.252872744
 10
631694.0050006807
 20
4840302.113688321
  0
LWPOLYLINE
  5
C5
330
17
100
AcDbEntity
  8
ROADS
100
AcDbPolyline
 90
2
 70
0
 10
631597.5461591576
 20
4840346.252872744
 10
631582.8813756313
 20
4840366.907108133
  0
LWPOLYLINE
  5
C6
330
17
100
AcDbEntity
  8
ROADS
100
AcDbPolyline
 90
2
 70
0
 10
631481.5752430164
 20
4840378.654134032
 10
631597.5461591576
 20
4840346.252872744
  0
LWPOLYLINE
  5
C7
330
17
100
AcDbEntity
  8
ROADS
100
AcDbPolyline
 90
3
 70
0
 10
631448.6148218315
 20
4840194.537034741
 10
631482.1353452278
 20
4840280.154890562
 10
631481.5752430164
 20
4840378.654134032
  0
LWPOLYLINE
  5
C8
330
17
100
AcDbEntity
  8
ROADS
100
AcDbPolyline
 90
2
 70
0
 10
631296.7356729067
 20
4840188.778850832
 10
631239.0653877298
 20
4840386.601168828
  0
LWPOLYLINE
  5
C9
330
17
100
AcDbEntity
  8
ROADS
100
AcDbPolyline
 90
2
 70
0
 10
631385.0225927636
 20
4840282.39309584
 10
631349.2291148369
 20
4840393.75681719
  0
LWPOLYLINE
  5
CA
330
17
100
AcDbEntity
  8
ROADS
100
AcDbPolyline
 90
2
 70
0
 10
631133.711511485
 20
4840363.225347745
 10
631239.0653877298
 20
4840386.601168828
  0
LWPOLYLINE
  5
CB
330
17
100
AcDbEntity
  8
ROADS
100
AcDbPolyline
 90
2
 70
0
 10
631349.2291148369
 20
4840393.75681719
 10
631481.5752430164
 20
4840378.654134032
  0
LWPOLYLINE
  5
CC
330
17
100
AcDbEntity
  8
ROADS
100
AcDbPolyline
 90
2
 70
0
 10
631239.0653877298
 20
4840386.601168828
 10
631349.2291148369
 20
4840393.75681719
  0
LWPOLYLINE
  5
CD
330
17
100
AcDbEntity
  8
ROADS
100
AcDbPolyline
 90
2
 70
0
 10
631349.2291148369
 20
4840393.75681719
 10
631345.9411603359
 20
4840518.709638814
  0
LWPOLYLINE
  5
CE
330
17
100
AcDbEntity
  8
ROADS
100
AcDbPolyline
 90
2
 70
0
 10
631239.0653877298
 20
4840386.601168828
 10
631234.4250686085
 20
4840531.189937968
  0
LWPOLYLINE
  5
CF
330
17
100
AcDbEntity
  8
ROADS
100
AcDbPolyline
 90
2
 70
0
 10
631345.9411603359
 20
4840518.709638814
 10
631474.7263240478
 20
4840481.039887857
  0
LWPOLYLINE
  5
D0
330
17
100
AcDbEntity
  8
ROADS
100
AcDbPolyline
 90
2
 70
0
 10
631234.4250686085
 20
4840531.189937968
 10
631345.9411603359
 20
4840518.709638814
  0
LWPOLYLINE
  5
D1
330
17
100
AcDbEntity
  8
ROADS
100
AcDbPolyline
 90
2
 70
0
 10
631694.0050006807
 20
4840302.113688321
 10
631692.5569374154
 20
4840446.482392884
  0
LWPOLYLINE
  5
D2
330
17
100
AcDbEntity
  8
ROADS
100
AcDbPolyline
 90
2
 70
0
 10
631597.5461591576
 20
4840346.252872744
 10
631577.9072294913
 20
4840490.620415933
  0
LWPOLYLINE
  5
D3
330
17
100
AcDbEntity
  8
ROADS
100
AcDbPolyline
 90
2
 70
0
 10
631481.5752430164
 20
4840378.654134032
 10
631474.7263240478
 20
4840481.039887857
  0
LWPOLYLINE
  5
D4
330
17
100
AcDbEntity
  8
ROADS
100
AcDbPolyline
 90
2
 70
0
 10
631692.5569374154
 20
4840446.482392884
 10
631741.0365252071
 20
4840460.304553705
  0
LWPOLYLINE
  5
D5
330
17
100
AcDbEntity
  8
ROADS
100
AcDbPolyline
 90
2
 70
0
 10
631577.9072294913
 20
4840490.620415933
 10
631559.7317313345
 20
4840477.666600733
  0
LWPOLYLINE
  5
D6
330
17
100
AcDbEntity
  8
ROADS
100
AcDbPolyline
 90
2
 70
0
 10
631577.9072294913
 20
4840490.620415933
 10
631474.7263240478
 20
4840481.039887857
  0
LWPOLYLINE
  5
D7
330
17
100
AcDbEntity
  8
ROADS
100
AcDbPolyline
 90
2
 70
0
 10
631692.5569374154
 20
4840446.482392884
 10
631669.6364893782
 20
4840533.574277484
  0
LWPOLYLINE
  5
D8
330
17
100
AcDbEntity
  8
ROADS
100
AcDbPolyline
 90
2
 70
0
 10
631577.9072294913
 20
4840490.620415933
 10
631574.5372694824
 20
4840502.349326356
  0
LWPOLYLINE
  5
D9
330
17
100
AcDbEntity
  8
ROADS
100
AcDbPolyline
 90
2
 70
0
 10
631474.7263240478
 20
4840481.039887857
 10
631485.7482162856
 20
4840544.432051159
  0
LWPOLYLINE
  5
DA
330
17
100
AcDbEntity
  8
ROADS
100
AcDbPolyline
 90
2
 70
0
 10
631574.5372694824
 20
4840502.349326356
 10
631565.253212094
 20
4840531.607552075
  0
LWPOLYLINE
  5
DB
330
17
100
AcDbEntity
  8
ROADS
100
AcDbPolyline
 90
2
 70
0
 10
630889.822265106
 20
4840391.43190669
 10
630932.4853084958
 20
4840403.706679972
  0
LWPOLYLINE
  5
DC
330
17
100
AcDbEntity
  8
ROADS
100
AcDbPolyline
 90
2
 70
0
 10
631059.747156239
 20
4840340.834517998
 10
630999.0080033981
 20
4840535.92594637
  0
LWPOLYLINE
  5
DD
330
17
100
AcDbEntity
  8
ROADS
100
AcDbPolyline
 90
2
 70
0
 10
631133.711511485
 20
4840363.225347745
 10
631125.2466909729
 20
4840530.2115301555
  0
LWPOLYLINE
  5
DE
330
17
100
AcDbEntity
  8
ROADS
100
AcDbPolyline
 90
2
 70
0
 10
631007.9461384634
 20
4840325.480196512
 10
630920.1036310947
 20
4840620.245523542
  0
LWPOLYLINE
  5
DF
330
17
100
AcDbEntity
  8
ROADS
100
AcDbPolyline
 90
2
 70
0
 10
630841.5217935501
 20
4840377.0579891605
 10
630780.9912546074
 20
4840577.47844657
  0
LWPOLYLINE
  5
E0
330
17
100
AcDbEntity
  8
ROADS
100
AcDbPolyline
 90
2
 70
0
 10
630889.822265106
 20
4840391.43190669
 10
630828.6766842514
 20
4840592.680323074
  0
LWPOLYLINE
  5
E1
330
17
100
AcDbEntity
  8
ROADS
100
AcDbPolyline
 90
2
 70
0
 10
630932.4853084958
 20
4840403.706679972
 10
630873.4433496979
 20
4840606.752312055
  0
LWPOLYLINE
  5
E2
330
17
100
AcDbEntity
  8
ROADS
100
AcDbPolyline
 90
2
 70
0
 10
631125.2466909729
 20
4840530.2115301555
 10
631134.1235688
 20
4840573.310320858
  0
LWPOLYLINE
  5
E3
330
17
100
AcDbEntity
  8
ROADS
100
AcDbPolyline
 90
2
 70
0
 10
630999.0080033981
 20
4840535.92594637
 10
631090.5644366137
 20
4840583.3649528185
  0
LWPOLYLINE
  5
E4
330
17
100
AcDbEntity
  8
ROADS
100
AcDbPolyline
 90
2
 70
0
 10
631090.5644366137
 20
4840583.3649528185
 10
631134.1235688
 20
4840573.310320858
  0
LWPOLYLINE
  5
E5
330
17
100
AcDbEntity
  8
ROADS
100
AcDbPolyline
 90
2
 70
0
 10
631574.5372694824
 20
4840502.349326356
 10
631669.6364893782
 20
4840533.574277484
  0
LWPOLYLINE
  5
E6
330
17
100
AcDbEntity
  8
ROADS
100
AcDbPolyline
 90
2
 70
0
 10
631565.253212094
 20
4840531.607552075
 10
631485.7482162856
 20
4840544.432051159
  0
LWPOLYLINE
  5
E7
330
17
100
AcDbEntity
  8
ROADS
100
AcDbPolyline
 90
2
 70
0
 10
631741.0365252071
 20
4840460.304553705
 10
631690.5005284254
 20
4840638.009652244
  0
LWPOLYLINE
  5
E8
330
17
100
AcDbEntity
  8
ROADS
100
AcDbPolyline
 90
2
 70
0
 10
631565.253212094
 20
4840531.607552075
 10
631549.6906617591
 20
4840580.653666871
  0
LWPOLYLINE
  5
E9
330
17
100
AcDbEntity
  8
ROADS
100
AcDbPolyline
 90
2
 70
0
 10
631485.7482162856
 20
4840544.432051159
 10
631492.4031711522
 20
4840573.368626034
  0
LWPOLYLINE
  5
EA
330
17
100
AcDbEntity
  8
ROADS
100
AcDbPolyline
 90
2
 70
0
 10
631549.6906617591
 20
4840580.653666871
 10
631530.9730151407
 20
4840553.694987747
  0
LWPOLYLINE
  5
EB
330
17
100
AcDbEntity
  8
ROADS
100
AcDbPolyline
 90
2
 70
0
 10
631669.6364893782
 20
4840533.574277484
 10
631641.4741997418
 20
4840622.071415945
  0
LWPOLYLINE
  5
EC
330
17
100
AcDbEntity
  8
ROADS
100
AcDbPolyline
 90
2
 70
0
 10
631492.4031711522
 20
4840573.368626034
 10
631529.7321774272
 20
4840643.550281035
  0
LWPOLYLINE
  5
ED
330
17
100
AcDbEntity
  8
ROADS
100
AcDbPolyline
 90
2
 70
0
 10
631549.6906617591
 20
4840580.653666871
 10
631529.7321774272
 20
4840643.550281035
  0
LWPOLYLINE
  5
EE
330
17
100
AcDbEntity
  8
ROADS
100
AcDbPolyline
 90
2
 70
0
 10
631641.4741997418
 20
4840622.071415945
 10
631690.5005284254
 20
4840638.009652244
  0
LWPOLYLINE
  5
EF
330
17
100
AcDbEntity
  8
ROADS
100
AcDbPolyline
 90
2
 70
0
 10
631788.0734303839
 20
4840473.7165855365
 10
631799.0929750438
 20
4840477.500937429
  0
LWPOLYLINE
  5
F0
330
17
100
AcDbEntity
  8
ROADS
100
AcDbPolyline
 90
2
 70
0
 10
631788.0734303839
 20
4840473.7165855365
 10
631740.792825023
 20
4840653.015727784
  0
LWPOLYLINE
  5
F1
330
17
100
AcDbEntity
  8
ROADS
100
AcDbPolyline
 90
2
 70
0
 10
631740.792825023
 20
4840653.015727784
 10
631747.1307526861
 20
4840655.016151314
  0
LWPOLYLINE
  5
F2
330
17
100
AcDbEntity
  8
ROADS
100
AcDbPolyline
 90
2
 70
0
 10
631125.2466909729
 20
4840530.2115301555
 10
631234.4250686085
 20
4840531.189937968
  0
LWPOLYLINE
  5
F3
330
17
100
AcDbEntity
  8
ROADS
100
AcDbPolyline
 90
2
 70
0
 10
631345.9411603359
 20
4840518.709638814
 10
631359.5350517367
 20
4840610.465428422
  0
LWPOLYLINE
  5
F4
330
17
100
AcDbEntity
  8
ROADS
100
AcDbPolyline
 90
2
 70
0
 10
631359.5350517367
 20
4840610.465428422
 10
631492.4031711522
 20
4840573.368626034
  0
LWPOLYLINE
  5
F5
330
17
100
AcDbEntity
  8
ROADS
100
AcDbPolyline
 90
2
 70
0
 10
631134.1235688
 20
4840573.310320858
 10
631140.0018957716
 20
4840657.98993363
  0
LWPOLYLINE
  5
F6
330
17
100
AcDbEntity
  8
ROADS
100
AcDbPolyline
 90
2
 70
0
 10
631234.4250686085
 20
4840531.189937968
 10
631261.7350233798
 20
4840701.6467064945
  0
LWPOLYLINE
  5
F7
330
17
100
AcDbEntity
  8
ROADS
100
AcDbPolyline
 90
2
 70
0
 10
631359.5350517367
 20
4840610.465428422
 10
631369.9623769892
 20
4840706.162226332
  0
LWPOLYLINE
  5
F8
330
17
100
AcDbEntity
  8
ROADS
100
AcDbPolyline
 90
2
 70
0
 10
631140.0018957716
 20
4840657.98993363
 10
631152.4401903427
 20
4840705.832518147
  0
LWPOLYLINE
  5
F9
330
17
100
AcDbEntity
  8
ROADS
100
AcDbPolyline
 90
2
 70
0
 10
631369.9623769892
 20
4840706.162226332
 10
631519.5152999556
 20
4840669.367363342
  0
LWPOLYLINE
  5
FA
330
17
100
AcDbEntity
  8
ROADS
100
AcDbPolyline
 90
2
 70
0
 10
631152.4401903427
 20
4840705.832518147
 10
631261.7350233798
 20
4840701.6467064945
  0
LWPOLYLINE
  5
FB
330
17
100
AcDbEntity
  8
ROADS
100
AcDbPolyline
 90
2
 70
0
 10
631261.7350233798
 20
4840701.6467064945
 10
631369.9623769892
 20
4840706.162226332
  0
LWPOLYLINE
  5
FC
330
17
100
AcDbEntity
  8
ROADS
100
AcDbPolyline
 90
2
 70
0
 10
630780.9912546074
 20
4840577.47844657
 10
630828.6766842514
 20
4840592.680323074
  0
LWPOLYLINE
  5
FD
330
17
100
AcDbEntity
  8
ROADS
100
AcDbPolyline
 90
2
 70
0
 10
630999.0080033981
 20
4840535.92594637
 10
630971.0597108928
 20
4840635.81261496
  0
LWPOLYLINE
  5
FE
330
17
100
AcDbEntity
  8
ROADS
100
AcDbPolyline
 90
2
 70
0
 10
630828.6766842514
 20
4840592.680323074
 10
630873.4433496979
 20
4840606.752312055
  0
LWPOLYLINE
  5
FF
330
17
100
AcDbEntity
  8
ROADS
100
AcDbPolyline
 90
2
 70
0
 10
630873.4433496979
 20
4840606.752312055
 10
630920.1036310947
 20
4840620.245523542
  0
LWPOLYLINE
  5
100
330
17
100
AcDbEntity
  8
ROADS
100
AcDbPolyline
 90
2
 70
0
 10
631090.5644366137
 20
4840583.3649528185
 10
631140.0018957716
 20
4840657.98993363
  0
LWPOLYLINE
  5
101
330
17
100
AcDbEntity
  8
ROADS
100
AcDbPolyline
 90
2
 70
0
 10
630920.1036310947
 20
4840620.245523542
 10
630971.0597108928
 20
4840635.81261496
  0
LWPOLYLINE
  5
102
330
17
100
AcDbEntity
  8
ROADS
100
AcDbPolyline
 90
2
 70
0
 10
630873.4433496979
 20
4840606.752312055
 10
630844.2928028051
 20
4840703.441951507
  0
LWPOLYLINE
  5
103
330
17
100
AcDbEntity
  8
ROADS
100
AcDbPolyline
 90
3
 70
0
 10
630920.1036310947
 20
4840620.245523542
 10
630874.9877432345
 20
4840763.066182171
 10
630930.2078628447
 20
4840772.76151446
  0
LWPOLYLINE
  5
104
330
17
100
AcDbEntity
  8
ROADS
100
AcDbPolyline
 90
2
 70
0
 10
630971.0597108928
 20
4840635.81261496
 10
630930.2078628447
 20
4840772.76151446
  0
LWPOLYLINE
  5
105
330
17
100
AcDbEntity
  8
ROADS
100
AcDbPolyline
 90
5
 70
0
 10
630971.0597108928
 20
4840635.81261496
 10
631013.7691306052
 20
4840652.930617351
 10
631044.4609064964
 20
4840691.203744135
 10
631052.835600341
 20
4840761.667457999
 10
631039.0188945073
 20
4840820.234776902
  0
LWPOLYLINE
  5
106
330
17
100
AcDbEntity
  8
ROADS
100
AcDbPolyline
 90
2
 70
0
 10
631690.5005284254
 20
4840638.009652244
 10
631740.792825023
 20
4840653.015727784
  0
LWPOLYLINE
  5
107
330
17
100
AcDbEntity
  8
ROADS
100
AcDbPolyline
 90
2
 70
0
 10
631529.7321774272
 20
4840643.550281035
 10
631519.5152999556
 20
4840669.367363342
  0
LWPOLYLINE
  5
108
330
17
100
AcDbEntity
  8
ROADS
100
AcDbPolyline
 90
2
 70
0
 10
631641.4741997418
 20
4840622.071415945
 10
631609.0792527532
 20
4840728.493306972
  0
LWPOLYLINE
  5
109
330
17
100
AcDbEntity
  8
ROADS
100
AcDbPolyline
 90
2
 70
0
 10
631529.7321774272
 20
4840643.550281035
 10
631609.0792527532
 20
4840728.493306972
  0
LWPOLYLINE
  5
10A
330
17
100
AcDbEntity
  8
ROADS
100
AcDbPolyline
 90
2
 70
0
 10
631690.5005284254
 20
4840638.009652244
 10
631642.3242251123
 20
4840760.68924552
  0
LWPOLYLINE
  5
10B
330
17
100
AcDbEntity
  8
ROADS
100
AcDbPolyline
 90
2
 70
0
 10
631740.792825023
 20
4840653.015727784
 10
631691.5492898131
 20
4840809.582587381
  0
LWPOLYLINE
  5
10C
330
17
100
AcDbEntity
  8
ROADS
100
AcDbPolyline
 90
2
 70
0
 10
631609.0792527532
 20
4840728.493306972
 10
631642.3242251123
 20
4840760.68924552
  0
LWPOLYLINE
  5
10D
330
17
100
AcDbEntity
  8
ROADS
100
AcDbPolyline
 90
2
 70
0
 10
631519.5152999556
 20
4840669.367363342
 10
631466.0260981893
 20
4840844.911718595
  0
LWPOLYLINE
  5
10E
330
17
100
AcDbEntity
  8
ROADS
100
AcDbPolyline
 90
2
 70
0
 10
631642.3242251123
 20
4840760.68924552
 10
631691.5492898131
 20
4840809.582587381
  0
LWPOLYLINE
  5
10F
330
17
100
AcDbEntity
  8
ROADS
100
AcDbPolyline
 90
2
 70
0
 10
631609.0792527532
 20
4840728.493306972
 10
631563.1309577943
 20
4840874.171899402
  0
LWPOLYLINE
  5
110
330
17
100
AcDbEntity
  8
ROADS
100
AcDbPolyline
 90
2
 70
0
 10
630014.9911431695
 20
4840452.818403861
 10
630117.9711569473
 20
4840483.654836868
  0
LWPOLYLINE
  5
111
330
17
100
AcDbEntity
  8
ROADS
100
AcDbPolyline
 90
2
 70
0
 10
630103.5121371096
 20
4840373.719451603
 10
630141.3523866193
 20
4840385.239886396
  0
LWPOLYLINE
  5
112
330
17
100
AcDbEntity
  8
ROADS
100
AcDbPolyline
 90
2
 70
0
 10
630347.129249627
 20
4840346.593108948
 10
630321.1733991229
 20
4840439.3391359765
  0
LWPOLYLINE
  5
113
330
17
100
AcDbEntity
  8
ROADS
100
AcDbPolyline
 90
3
 70
0
 10
630103.5121371096
 20
4840373.719451603
 10
630096.7520158306
 20
4840396.471755666
 10
630132.900313513
 20
4840412.68091366
  0
LWPOLYLINE
  5
114
330
17
100
AcDbEntity
  8
ROADS
100
AcDbPolyline
 90
2
 70
0
 10
630141.3523866193
 20
4840385.239886396
 10
630132.900313513
 20
4840412.68091366
  0
LWPOLYLINE
  5
115
330
17
100
AcDbEntity
  8
ROADS
100
AcDbPolyline
 90
2
 70
0
 10
630141.3523866193
 20
4840385.239886396
 10
630321.1733991229
 20
4840439.3391359765
  0
LWPOLYLINE
  5
116
330
17
100
AcDbEntity
  8
ROADS
100
AcDbPolyline
 90
2
 70
0
 10
630132.900313513
 20
4840412.68091366
 10
630117.9711569473
 20
4840483.654836868
  0
LWPOLYLINE
  5
117
330
17
100
AcDbEntity
  8
ROADS
100
AcDbPolyline
 90
2
 70
0
 10
630321.1733991229
 20
4840439.3391359765
 10
630412.399407104
 20
4840466.782610974
  0
LWPOLYLINE
  5
118
330
17
100
AcDbEntity
  8
ROADS
100
AcDbPolyline
 90
2
 70
0
 10
630117.9711569473
 20
4840483.654836868
 10
630093.3749100583
 20
4840583.998927408
  0
LWPOLYLINE
  5
119
330
17
100
AcDbEntity
  8
ROADS
100
AcDbPolyline
 90
2
 70
0
 10
630117.9711569473
 20
4840483.654836868
 10
630561.4444203349
 20
4840616.992059642
  0
LWPOLYLINE
  5
11A
330
17
100
AcDbEntity
  8
ROADS
100
AcDbPolyline
 90
2
 70
0
 10
630093.3749100583
 20
4840583.998927408
 10
630196.5055216812
 20
4840616.868200251
  0
LWPOLYLINE
  5
11B
330
17
100
AcDbEntity
  8
ROADS
100
AcDbPolyline
 90
2
 70
0
 10
630474.02658407
 20
4840265.1081057
 10
630412.399407104
 20
4840466.782610974
  0
LWPOLYLINE
  5
11C
330
17
100
AcDbEntity
  8
ROADS
100
AcDbPolyline
 90
2
 70
0
 10
630565.9883055881
 20
4840292.462849162
 10
630505.2310795498
 20
4840495.468240677
  0
LWPOLYLINE
  5
11D
330
17
100
AcDbEntity
  8
ROADS
100
AcDbPolyline
 90
2
 70
0
 10
630658.4055182978
 20
4840320.677910348
 10
630597.3539939424
 20
4840523.641525421
  0
LWPOLYLINE
  5
11E
330
17
100
AcDbEntity
  8
ROADS
100
AcDbPolyline
 90
2
 70
0
 10
630750.0821570515
 20
4840348.425554034
 10
630690.0459563513
 20
4840549.825976628
  0
LWPOLYLINE
  5
11F
330
17
100
AcDbEntity
  8
ROADS
100
AcDbPolyline
 90
2
 70
0
 10
630412.399407104
 20
4840466.782610974
 10
630505.2310795498
 20
4840495.468240677
  0
LWPOLYLINE
  5
120
330
17
100
AcDbEntity
  8
ROADS
100
AcDbPolyline
 90
2
 70
0
 10
630505.2310795498
 20
4840495.468240677
 10
630597.3539939424
 20
4840523.641525421
  0
LWPOLYLINE
  5
121
330
17
100
AcDbEntity
  8
ROADS
100
AcDbPolyline
 90
2
 70
0
 10
630597.3539939424
 20
4840523.641525421
 10
630690.0459563513
 20
4840549.825976628
  0
LWPOLYLINE
  5
122
330
17
100
AcDbEntity
  8
ROADS
100
AcDbPolyline
 90
2
 70
0
 10
630690.0459563513
 20
4840549.825976628
 10
630780.9912546074
 20
4840577.47844657
  0
LWPOLYLINE
  5
123
330
17
100
AcDbEntity
  8
ROADS
100
AcDbPolyline
 90
2
 70
0
 10
630597.3539939424
 20
4840523.641525421
 10
630561.4444203349
 20
4840616.992059642
  0
LWPOLYLINE
  5
124
330
17
100
AcDbEntity
  8
ROADS
100
AcDbPolyline
 90
2
 70
0
 10
630561.4444203349
 20
4840616.992059642
 10
630844.2928028051
 20
4840703.441951507
  0
LWPOLYLINE
  5
125
330
17
100
AcDbEntity
  8
ROADS
100
AcDbPolyline
 90
2
 70
0
 10
629992.0986920265
 20
4840553.557543932
 10
630093.3749100583
 20
4840583.998927408
  0
LWPOLYLINE
  5
126
330
17
100
AcDbEntity
  8
ROADS
100
AcDbPolyline
 90
2
 70
0
 10
630196.5055216812
 20
4840616.868200251
 10
630303.5273473591
 20
4840647.310723747
  0
LWPOLYLINE
  5
127
330
17
100
AcDbEntity
  8
ROADS
100
AcDbPolyline
 90
2
 70
0
 10
630303.5273473591
 20
4840647.310723747
 10
630408.9204317176
 20
4840679.723938273
  0
LWPOLYLINE
  5
128
330
17
100
AcDbEntity
  8
ROADS
100
AcDbPolyline
 90
2
 70
0
 10
630093.3749100583
 20
4840583.998927408
 10
630015.9787550326
 20
4840839.600636183
  0
LWPOLYLINE
  5
129
330
17
100
AcDbEntity
  8
ROADS
100
AcDbPolyline
 90
2
 70
0
 10
630196.5055216812
 20
4840616.868200251
 10
630121.6004624354
 20
4840871.697999332
  0
LWPOLYLINE
  5
12A
330
17
100
AcDbEntity
  8
ROADS
100
AcDbPolyline
 90
2
 70
0
 10
630303.5273473591
 20
4840647.310723747
 10
630225.0481760388
 20
4840904.39608891
  0
LWPOLYLINE
  5
12B
330
17
100
AcDbEntity
  8
ROADS
100
AcDbPolyline
 90
2
 70
0
 10
630408.9204317176
 20
4840679.723938273
 10
630332.6174863012
 20
4840937.852828472
  0
LWPOLYLINE
  5
12C
330
17
100
AcDbEntity
  8
ROADS
100
AcDbPolyline
 90
2
 70
0
 10
630015.9787550326
 20
4840839.600636183
 10
630121.6004624354
 20
4840871.697999332
  0
LWPOLYLINE
  5
12D
330
17
100
AcDbEntity
  8
ROADS
100
AcDbPolyline
 90
2
 70
0
 10
630121.6004624354
 20
4840871.697999332
 10
630225.0481760388
 20
4840904.39608891
  0
LWPOLYLINE
  5
12E
330
17
100
AcDbEntity
  8
ROADS
100
AcDbPolyline
 90
2
 70
0
 10
630225.0481760388
 20
4840904.39608891
 10
630255.7329697749
 20
4840913.453941843
  0
LWPOLYLINE
  5
12F
330
17
100
AcDbEntity
  8
ROADS
100
AcDbPolyline
 90
2
 70
0
 10
630255.7329697749
 20
4840913.453941843
 10
630332.6174863012
 20
4840937.852828472
  0
LWPOLYLINE
  5
130
330
17
100
AcDbEntity
  8
ROADS
100
AcDbPolyline
 90
2
 70
0
 10
630561.4444203349
 20
4840616.992059642
 10
630514.5686338271
 20
4840710.14364495
  0
LWPOLYLINE
  5
131
330
17
100
AcDbEntity
  8
ROADS
100
AcDbPolyline
 90
2
 70
0
 10
630408.9204317176
 20
4840679.723938273
 10
630514.5686338271
 20
4840710.14364495
  0
LWPOLYLINE
  5
132
330
17
100
AcDbEntity
  8
ROADS
100
AcDbPolyline
 90
2
 70
0
 10
630514.5686338271
 20
4840710.14364495
 10
630620.5145355909
 20
4840743.069937991
  0
LWPOLYLINE
  5
133
330
17
100
AcDbEntity
  8
ROADS
100
AcDbPolyline
 90
2
 70
0
 10
630620.5145355909
 20
4840743.069937991
 10
630721.2870223423
 20
4840773.402457712
  0
LWPOLYLINE
  5
134
330
17
100
AcDbEntity
  8
ROADS
100
AcDbPolyline
 90
2
 70
0
 10
630721.2870223423
 20
4840773.402457712
 10
630811.639515699
 20
4840801.041263911
  0
LWPOLYLINE
  5
135
330
17
100
AcDbEntity
  8
ROADS
100
AcDbPolyline
 90
2
 70
0
 10
630514.5686338271
 20
4840710.14364495
 10
630438.2466935107
 20
4840967.77223049
  0
LWPOLYLINE
  5
136
330
17
100
AcDbEntity
  8
ROADS
100
AcDbPolyline
 90
2
 70
0
 10
630620.5145355909
 20
4840743.069937991
 10
630543.7182317773
 20
4841000.492999983
  0
LWPOLYLINE
  5
137
330
17
100
AcDbEntity
  8
ROADS
100
AcDbPolyline
 90
2
 70
0
 10
630721.2870223423
 20
4840773.402457712
 10
630645.3123589444
 20
4841027.530218933
  0
LWPOLYLINE
  5
138
330
17
100
AcDbEntity
  8
ROADS
100
AcDbPolyline
 90
2
 70
0
 10
630811.639515699
 20
4840801.041263911
 10
630746.1094513949
 20
4841060.536466149
  0
LWPOLYLINE
  5
139
330
17
100
AcDbEntity
  8
ROADS
100
AcDbPolyline
 90
2
 70
0
 10
630413.1507468452
 20
4840960.816643609
 10
630438.2466935107
 20
4840967.77223049
  0
LWPOLYLINE
  5
13A
330
17
100
AcDbEntity
  8
ROADS
100
AcDbPolyline
 90
2
 70
0
 10
629967.9948715357
 20
4840825.594932205
 10
630015.9787550326
 20
4840839.600636183
  0
LWPOLYLINE
  5
13B
330
17
100
AcDbEntity
  8
ROADS
100
AcDbPolyline
 90
2
 70
0
 10
629990.7490986608
 20
4840979.505631155
 10
630216.2230349605
 20
4841048.117635143
  0
LWPOLYLINE
  5
13C
330
17
100
AcDbEntity
  8
ROADS
100
AcDbPolyline
 90
2
 70
0
 10
630018.1875867681
 20
4841069.463136401
 10
630193.2813448635
 20
4841122.176786317
  0
LWPOLYLINE
  5
13D
330
17
100
AcDbEntity
  8
ROADS
100
AcDbPolyline
 90
2
 70
0
 10
630438.2466935107
 20
4840967.77223049
 10
630496.2172529966
 20
4840985.325417509
  0
LWPOLYLINE
  5
13E
330
17
100
AcDbEntity
  8
ROADS
100
AcDbPolyline
 90
2
 70
0
 10
630496.2172529966
 20
4840985.325417509
 10
630543.7182317773
 20
4841000.492999983
  0
LWPOLYLINE
  5
13F
330
17
100
AcDbEntity
  8
ROADS
100
AcDbPolyline
 90
2
 70
0
 10
630543.7182317773
 20
4841000.492999983
 10
630645.3123589444
 20
4841027.530218933
  0
LWPOLYLINE
  5
140
330
17
100
AcDbEntity
  8
ROADS
100
AcDbPolyline
 90
2
 70
0
 10
630496.2172529966
 20
4840985.325417509
 10
630479.4566405122
 20
4841043.764353406
  0
LWPOLYLINE
  5
141
330
17
100
AcDbEntity
  8
ROADS
100
AcDbPolyline
 90
2
 70
0
 10
630413.1507468452
 20
4840960.816643609
 10
630371.8564071103
 20
4841093.586971531
  0
LWPOLYLINE
  5
142
330
17
100
AcDbEntity
  8
ROADS
100
AcDbPolyline
 90
2
 70
0
 10
630645.3123589444
 20
4841027.530218933
 10
630746.1094513949
 20
4841060.536466149
  0
LWPOLYLINE
  5
143
330
17
100
AcDbEntity
  8
ROADS
100
AcDbPolyline
 90
2
 70
0
 10
630479.4566405122
 20
4841043.764353406
 10
630577.1568533729
 20
4841073.543320774
  0
LWPOLYLINE
  5
144
330
17
100
AcDbEntity
  8
ROADS
100
AcDbPolyline
 90
2
 70
0
 10
630746.1094513949
 20
4841060.536466149
 10
630787.3736572496
 20
4841073.568063845
  0
LWPOLYLINE
  5
145
330
17
100
AcDbEntity
  8
ROADS
100
AcDbPolyline
 90
2
 70
0
 10
630479.4566405122
 20
4841043.764353406
 10
630462.5672843525
 20
4841101.524905313
  0
LWPOLYLINE
  5
146
330
17
100
AcDbEntity
  8
ROADS
100
AcDbPolyline
 90
3
 70
0
 10
630371.8564071103
 20
4841093.586971531
 10
630423.142000249
 20
4841109.508098827
 10
630462.5672843525
 20
4841101.524905313
  0
LWPOLYLINE
  5
147
330
17
100
AcDbEntity
  8
ROADS
100
AcDbPolyline
 90
2
 70
0
 10
630332.6174863012
 20
4840937.852828472
 10
630413.1507468452
 20
4840960.816643609
  0
LWPOLYLINE
  5
148
330
17
100
AcDbEntity
  8
ROADS
100
AcDbPolyline
 90
2
 70
0
 10
630255.7329697749
 20
4840913.453941843
 10
630216.2230349605
 20
4841048.117635143
  0
LWPOLYLINE
  5
149
330
17
100
AcDbEntity
  8
ROADS
100
AcDbPolyline
 90
2
 70
0
 10
630332.6174863012
 20
4840937.852828472
 10
630294.0545351917
 20
4841069.7844900265
  0
LWPOLYLINE
  5
14A
330
17
100
AcDbEntity
  8
ROADS
100
AcDbPolyline
 90
2
 70
0
 10
630216.2230349605
 20
4841048.117635143
 10
630294.0545351917
 20
4841069.7844900265
  0
LWPOLYLINE
  5
14B
330
17
100
AcDbEntity
  8
ROADS
100
AcDbPolyline
 90
2
 70
0
 10
630294.0545351917
 20
4841069.7844900265
 10
630371.8564071103
 20
4841093.586971531
  0
LWPOLYLINE
  5
14C
330
17
100
AcDbEntity
  8
ROADS
100
AcDbPolyline
 90
2
 70
0
 10
630216.2230349605
 20
4841048.117635143
 10
630193.2813448635
 20
4841122.176786317
  0
LWPOLYLINE
  5
14D
330
17
100
AcDbEntity
  8
ROADS
100
AcDbPolyline
 90
2
 70
0
 10
630294.0545351917
 20
4841069.7844900265
 10
630245.8786655065
 20
4841238.808821784
  0
LWPOLYLINE
  5
14E
330
17
100
AcDbEntity
  8
ROADS
100
AcDbPolyline
 90
2
 70
0
 10
630193.2813448635
 20
4841122.176786317
 10
630164.7398996288
 20
4841214.4368940145
  0
LWPOLYLINE
  5
14F
330
17
100
AcDbEntity
  8
ROADS
100
AcDbPolyline
 90
2
 70
0
 10
630371.8564071103
 20
4841093.586971531
 10
630323.2893848863
 20
4841261.62219077
  0
LWPOLYLINE
  5
150
330
17
100
AcDbEntity
  8
ROADS
100
AcDbPolyline
 90
2
 70
0
 10
630074.9577463899
 20
4841187.211746387
 10
630164.7398996288
 20
4841214.4368940145
  0
LWPOLYLINE
  5
151
330
17
100
AcDbEntity
  8
ROADS
100
AcDbPolyline
 90
3
 70
0
 10
630877.2374584186
 20
4840954.704400016
 10
630831.8585955653
 20
4840960.233717954
 10
630787.3736572496
 20
4841073.568063845
  0
LWPOLYLINE
  5
152
330
17
100
AcDbEntity
  8
ROADS
100
AcDbPolyline
 90
2
 70
0
 10
630787.3736572496
 20
4841073.568063845
 10
631001.4419906818
 20
4841141.23146734
  0
LWPOLYLINE
  5
153
330
17
100
AcDbEntity
  8
ROADS
100
AcDbPolyline
 90
2
 70
0
 10
631001.4419906818
 20
4841141.23146734
 10
631027.4592362067
 20
4841149.281830256
  0
LWPOLYLINE
  5
154
330
17
100
AcDbEntity
  8
ROADS
100
AcDbPolyline
 90
2
 70
0
 10
631027.4592362067
 20
4841149.281830256
 10
631148.1104038133
 20
4841184.415560103
  0
LWPOLYLINE
  5
155
330
17
100
AcDbEntity
  8
ROADS
100
AcDbPolyline
 90
2
 70
0
 10
631001.4419906818
 20
4841141.23146734
 10
630889.9223236863
 20
4841233.05328691
  0
LWPOLYLINE
  5
156
330
17
100
AcDbEntity
  8
ROADS
100
AcDbPolyline
 90
3
 70
0
 10
631027.4592362067
 20
4841149.281830256
 10
631023.3646780706
 20
4841242.306584947
 10
631117.9065776059
 20
4841278.618988882
  0
LWPOLYLINE
  5
157
330
17
100
AcDbEntity
  8
ROADS
100
AcDbPolyline
 90
2
 70
0
 10
630722.8639029365
 20
4841213.1159422705
 10
630889.9223236863
 20
4841233.05328691
  0
LWPOLYLINE
  5
158
330
17
100
AcDbEntity
  8
ROADS
100
AcDbPolyline
 90
2
 70
0
 10
631148.1104038133
 20
4841184.415560103
 10
631117.9065776059
 20
4841278.618988882
  0
LWPOLYLINE
  5
159
330
17
100
AcDbEntity
  8
ROADS
100
AcDbPolyline
 90
2
 70
0
 10
630889.9223236863
 20
4841233.05328691
 10
630944.500756748
 20
4841292.659246227
  0
LWPOLYLINE
  5
15A
330
17
100
AcDbEntity
  8
ROADS
100
AcDbPolyline
 90
3
 70
0
 10
630889.9223236863
 20
4841233.05328691
 10
630840.230962651
 20
4841293.99458035
 10
630804.3180436061
 20
4841389.6167088
  0
LWPOLYLINE
  5
15B
330
17
100
AcDbEntity
  8
ROADS
100
AcDbPolyline
 90
2
 70
0
 10
630844.2928028051
 20
4840703.441951507
 10
630811.639515699
 20
4840801.041263911
  0
LWPOLYLINE
  5
15C
330
17
100
AcDbEntity
  8
ROADS
100
AcDbPolyline
 90
2
 70
0
 10
630930.2078628447
 20
4840772.76151446
 10
630917.4812195186
 20
4840815.965409495
  0
LWPOLYLINE
  5
15D
330
17
100
AcDbEntity
  8
ROADS
100
AcDbPolyline
 90
2
 70
0
 10
631149.5625425644
 20
4840800.4214446535
 10
631112.7915161849
 20
4840789.0532874875
  0
LWPOLYLINE
  5
15E
330
17
100
AcDbEntity
  8
ROADS
100
AcDbPolyline
 90
2
 70
0
 10
630811.639515699
 20
4840801.041263911
 10
630917.4812195186
 20
4840815.965409495
  0
LWPOLYLINE
  5
15F
330
17
100
AcDbEntity
  8
ROADS
100
AcDbPolyline
 90
2
 70
0
 10
630917.4812195186
 20
4840815.965409495
 10
631039.0188945073
 20
4840820.234776902
  0
LWPOLYLINE
  5
160
330
17
100
AcDbEntity
  8
ROADS
100
AcDbPolyline
 90
2
 70
0
 10
631039.0188945073
 20
4840820.234776902
 10
631136.5689363314
 20
4840849.47996929
  0
LWPOLYLINE
  5
161
330
17
100
AcDbEntity
  8
ROADS
100
AcDbPolyline
 90
2
 70
0
 10
630917.4812195186
 20
4840815.965409495
 10
630877.2374584186
 20
4840954.704400016
  0
LWPOLYLINE
  5
162
330
17
100
AcDbEntity
  8
ROADS
100
AcDbPolyline
 90
4
 70
0
 10
631039.0188945073
 20
4840820.234776902
 10
630971.7957820871
 20
4840908.9489803575
 10
630907.0595302538
 20
4840947.774493499
 10
630877.2374584186
 20
4840954.704400016
  0
LWPOLYLINE
  5
163
330
17
100
AcDbEntity
  8
ROADS
100
AcDbPolyline
 90
2
 70
0
 10
631136.5689363314
 20
4840849.47996929
 10
631078.543944238
 20
4840949.387448637
  0
LWPOLYLINE
  5
164
330
17
100
AcDbEntity
  8
ROADS
100
AcDbPolyline
 90
2
 70
0
 10
630877.2374584186
 20
4840954.704400016
 10
630907.5809168869
 20
4841009.7644661805
  0
LWPOLYLINE
  5
165
330
17
100
AcDbEntity
  8
ROADS
100
AcDbPolyline
 90
2
 70
0
 10
631152.4401903427
 20
4840705.832518147
 10
631149.5625425644
 20
4840800.4214446535
  0
LWPOLYLINE
  5
166
330
17
100
AcDbEntity
  8
ROADS
100
AcDbPolyline
 90
3
 70
0
 10
631261.7350233798
 20
4840701.6467064945
 10
631263.0628717516
 20
4840795.230681384
 10
631239.9894780236
 20
4840884.249807613
  0
LWPOLYLINE
  5
167
330
17
100
AcDbEntity
  8
ROADS
100
AcDbPolyline
 90
3
 70
0
 10
631369.9623769892
 20
4840706.162226332
 10
631365.7104768556
 20
4840822.092940466
 10
631343.1732924941
 20
4840915.689135394
  0
LWPOLYLINE
  5
168
330
17
100
AcDbEntity
  8
ROADS
100
AcDbPolyline
 90
2
 70
0
 10
631149.5625425644
 20
4840800.4214446535
 10
631136.5689363314
 20
4840849.47996929
  0
LWPOLYLINE
  5
169
330
17
100
AcDbEntity
  8
ROADS
100
AcDbPolyline
 90
2
 70
0
 10
631136.5689363314
 20
4840849.47996929
 10
631239.9894780236
 20
4840884.249807613
  0
LWPOLYLINE
  5
16A
330
17
100
AcDbEntity
  8
ROADS
100
AcDbPolyline
 90
2
 70
0
 10
631466.0260981893
 20
4840844.911718595
 10
631434.1288183301
 20
4840942.83990312
  0
LWPOLYLINE
  5
16B
330
17
100
AcDbEntity
  8
ROADS
100
AcDbPolyline
 90
2
 70
0
 10
631239.9894780236
 20
4840884.249807613
 10
631343.1732924941
 20
4840915.689135394
  0
LWPOLYLINE
  5
16C
330
17
100
AcDbEntity
  8
ROADS
100
AcDbPolyline
 90
2
 70
0
 10
631239.9894780236
 20
4840884.249807613
 10
631216.1121008564
 20
4840939.384862745
  0
LWPOLYLINE
  5
16D
330
17
100
AcDbEntity
  8
ROADS
100
AcDbPolyline
 90
2
 70
0
 10
631343.1732924941
 20
4840915.689135394
 10
631434.1288183301
 20
4840942.83990312
  0
LWPOLYLINE
  5
16E
330
17
100
AcDbEntity
  8
ROADS
100
AcDbPolyline
 90
2
 70
0
 10
631434.1288183301
 20
4840942.83990312
 10
631403.6468866101
 20
4841043.792905062
  0
LWPOLYLINE
  5
16F
330
17
100
AcDbEntity
  8
ROADS
100
AcDbPolyline
 90
2
 70
0
 10
631691.5492898131
 20
4840809.582587381
 10
631698.5832464105
 20
4840817.140385566
  0
LWPOLYLINE
  5
170
330
17
100
AcDbEntity
  8
ROADS
100
AcDbPolyline
 90
2
 70
0
 10
631691.5492898131
 20
4840809.582587381
 10
631659.1918679352
 20
4840905.913394854
  0
LWPOLYLINE
  5
171
330
17
100
AcDbEntity
  8
ROADS
100
AcDbPolyline
 90
2
 70
0
 10
631466.0260981893
 20
4840844.911718595
 10
631563.1309577943
 20
4840874.171899402
  0
LWPOLYLINE
  5
172
330
17
100
AcDbEntity
  8
ROADS
100
AcDbPolyline
 90
2
 70
0
 10
631563.1309577943
 20
4840874.171899402
 10
631659.1918679352
 20
4840905.913394854
  0
LWPOLYLINE
  5
173
330
17
100
AcDbEntity
  8
ROADS
100
AcDbPolyline
 90
2
 70
0
 10
631659.1918679352
 20
4840905.913394854
 10
631628.5772104923
 20
4841003.865840185
  0
LWPOLYLINE
  5
174
330
17
100
AcDbEntity
  8
ROADS
100
AcDbPolyline
 90
2
 70
0
 10
631434.1288183301
 20
4840942.83990312
 10
631628.5772104923
 20
4841003.865840185
  0
LWPOLYLINE
  5
175
330
17
100
AcDbEntity
  8
ROADS
100
AcDbPolyline
 90
2
 70
0
 10
631628.5772104923
 20
4841003.865840185
 10
631641.5930996205
 20
4841007.70199049
  0
LWPOLYLINE
  5
176
330
17
100
AcDbEntity
  8
ROADS
100
AcDbPolyline
 90
2
 70
0
 10
631628.5772104923
 20
4841003.865840185
 10
631597.502356046
 20
4841104.810166311
  0
LWPOLYLINE
  5
177
330
17
100
AcDbEntity
  8
ROADS
100
AcDbPolyline
 90
2
 70
0
 10
631403.6468866101
 20
4841043.792905062
 10
631597.502356046
 20
4841104.810166311
  0
LWPOLYLINE
  5
178
330
17
100
AcDbEntity
  8
ROADS
100
AcDbPolyline
 90
2
 70
0
 10
631597.502356046
 20
4841104.810166311
 10
631602.8571796358
 20
4841106.447688882
  0
LWPOLYLINE
  5
179
330
17
100
AcDbEntity
  8
ROADS
100
AcDbPolyline
 90
2
 70
0
 10
631343.1732924941
 20
4840915.689135394
 10
631237.9358255795
 20
4841099.78964231
  0
LWPOLYLINE
  5
17A
330
17
100
AcDbEntity
  8
ROADS
100
AcDbPolyline
 90
2
 70
0
 10
631198.072402667
 20
4841066.738888006
 10
631237.9358255795
 20
4841099.78964231
  0
LWPOLYLINE
  5
17B
330
17
100
AcDbEntity
  8
ROADS
100
AcDbPolyline
 90
2
 70
0
 10
631403.6468866101
 20
4841043.792905062
 10
631372.365351181
 20
4841142.2322331555
  0
LWPOLYLINE
  5
17C
330
17
100
AcDbEntity
  8
ROADS
100
AcDbPolyline
 90
2
 70
0
 10
631237.9358255795
 20
4841099.78964231
 10
631372.365351181
 20
4841142.2322331555
  0
LWPOLYLINE
  5
17D
330
17
100
AcDbEntity
  8
ROADS
100
AcDbPolyline
 90
2
 70
0
 10
631237.9358255795
 20
4841099.78964231
 10
631148.1104038133
 20
4841184.415560103
  0
LWPOLYLINE
  5
17E
330
17
100
AcDbEntity
  8
ROADS
100
AcDbPolyline
 90
2
 70
0
 10
631372.365351181
 20
4841142.2322331555
 10
631556.8928685114
 20
4841199.495472302
  0
LWPOLYLINE
  5
17F
330
17
100
AcDbEntity
  8
ROADS
100
AcDbPolyline
 90
2
 70
0
 10
631372.365351181
 20
4841142.2322331555
 10
631341.2876319693
 20
4841241.344281518
  0
LWPOLYLINE
  5
180
330
17
100
AcDbEntity
  8
ROADS
100
AcDbPolyline
 90
2
 70
0
 10
631148.1104038133
 20
4841184.415560103
 10
631341.2876319693
 20
4841241.344281518
  0
LWPOLYLINE
  5
181
330
17
100
AcDbEntity
  8
ROADS
100
AcDbPolyline
 90
2
 70
0
 10
631341.2876319693
 20
4841241.344281518
 10
631498.7908092808
 20
4841289.76574668
  0
LWPOLYLINE
  5
182
330
17
100
AcDbEntity
  8
ROADS
100
AcDbPolyline
 90
2
 70
0
 10
631341.2876319693
 20
4841241.344281518
 10
631312.4008828291
 20
4841335.657600689
  0
LWPOLYLINE
  5
183
330
17
100
AcDbEntity
  8
ROADS
100
AcDbPolyline
 90
2
 70
0
 10
631597.502356046
 20
4841104.810166311
 10
631585.8757912997
 20
4841142.709911197
  0
LWPOLYLINE
  5
184
330
17
100
AcDbEntity
  8
ROADS
100
AcDbPolyline
 90
2
 70
0
 10
631117.9065776059
 20
4841278.618988882
 10
631087.6661820334
 20
4841373.349778298
  0
LWPOLYLINE
  5
185
330
17
100
AcDbEntity
  8
ROADS
100
AcDbPolyline
 90
3
 70
0
 10
630944.500756748
 20
4841292.659246227
 10
630998.4444817859
 20
4841340.806897528
 10
631087.6661820334
 20
4841373.349778298
  0
LWPOLYLINE
  5
186
330
17
100
AcDbEntity
  8
ROADS
100
AcDbPolyline
 90
2
 70
0
 10
630944.500756748
 20
4841292.659246227
 10
630900.7923752476
 20
4841421.487774723
  0
LWPOLYLINE
  5
187
330
17
100
AcDbEntity
  8
ROADS
100
AcDbPolyline
 90
2
 70
0
 10
630804.3180436061
 20
4841389.6167088
 10
630900.7923752476
 20
4841421.487774723
  0
LWPOLYLINE
  5
188
330
17
100
AcDbEntity
  8
ROADS
100
AcDbPolyline
 90
2
 70
0
 10
631087.6661820334
 20
4841373.349778298
 10
631057.4675126601
 20
4841469.973445612
  0
LWPOLYLINE
  5
189
330
17
100
AcDbEntity
  8
ROADS
100
AcDbPolyline
 90
2
 70
0
 10
630804.3180436061
 20
4841389.6167088
 10
630786.5514381265
 20
4841491.70365668
  0
LWPOLYLINE
  5
18A
330
17
100
AcDbEntity
  8
ROADS
100
AcDbPolyline
 90
2
 70
0
 10
630900.7923752476
 20
4841421.487774723
 10
631057.4675126601
 20
4841469.973445612
  0
LWPOLYLINE
  5
18B
330
17
100
AcDbEntity
  8
ROADS
100
AcDbPolyline
 90
2
 70
0
 10
631057.4675126601
 20
4841469.973445612
 10
631154.5271333805
 20
4841500.674062097
  0
LWPOLYLINE
  5
18C
330
17
100
AcDbEntity
  8
ROADS
100
AcDbPolyline
 90
2
 70
0
 10
630786.5514381265
 20
4841491.70365668
 10
630912.8126122131
 20
4841531.771364714
  0
LWPOLYLINE
  5
18D
330
17
100
AcDbEntity
  8
ROADS
100
AcDbPolyline
 90
2
 70
0
 10
631057.4675126601
 20
4841469.973445612
 10
631026.5890798472
 20
4841567.850887384
  0
LWPOLYLINE
  5
18E
330
17
100
AcDbEntity
  8
ROADS
100
AcDbPolyline
 90
2
 70
0
 10
631117.9065776059
 20
4841278.618988882
 10
631312.4008828291
 20
4841335.657600689
  0
LWPOLYLINE
  5
18F
330
17
100
AcDbEntity
  8
ROADS
100
AcDbPolyline
 90
2
 70
0
 10
631312.4008828291
 20
4841335.657600689
 10
631428.5071063573
 20
4841371.887427834
  0
LWPOLYLINE
  5
190
330
17
100
AcDbEntity
  8
ROADS
100
AcDbPolyline
 90
2
 70
0
 10
631312.4008828291
 20
4841335.657600689
 10
631281.3273146523
 20
4841433.100565364
  0
LWPOLYLINE
  5
191
330
17
100
AcDbEntity
  8
ROADS
100
AcDbPolyline
 90
2
 70
0
 10
631087.6661820334
 20
4841373.349778298
 10
631281.3273146523
 20
4841433.100565364
  0
LWPOLYLINE
  5
192
330
17
100
AcDbEntity
  8
ROADS
100
AcDbPolyline
 90
2
 70
0
 10
631281.3273146523
 20
4841433.100565364
 10
631260.0387240516
 20
4841503.488057085
  0
LWPOLYLINE
  5
193
330
17
100
AcDbEntity
  8
ROADS
100
AcDbPolyline
 90
2
 70
0
 10
631154.5271333805
 20
4841500.674062097
 10
631225.4719846845
 20
4841523.2643757295
  0
LWPOLYLINE
  5
194
330
17
100
AcDbEntity
  8
ROADS
100
AcDbPolyline
 90
2
 70
0
 10
630462.5672843525
 20
4841101.524905313
 10
630536.61689206
 20
4841115.270784714
  0
LWPOLYLINE
  5
195
330
17
100
AcDbEntity
  8
ROADS
100
AcDbPolyline
 90
2
 70
0
 10
630746.1094513949
 20
4841060.536466149
 10
630728.2991954853
 20
4841171.507268001
  0
LWPOLYLINE
  5
196
330
17
100
AcDbEntity
  8
ROADS
100
AcDbPolyline
 90
2
 70
0
 10
630536.61689206
 20
4841115.270784714
 10
630625.7166442338
 20
4841141.393891313
  0
LWPOLYLINE
  5
197
330
17
100
AcDbEntity
  8
ROADS
100
AcDbPolyline
 90
2
 70
0
 10
630625.7166442338
 20
4841141.393891313
 10
630667.2018803947
 20
4841153.318413744
  0
LWPOLYLINE
  5
198
330
17
100
AcDbEntity
  8
ROADS
100
AcDbPolyline
 90
2
 70
0
 10
630667.2018803947
 20
4841153.318413744
 10
630728.2991954853
 20
4841171.507268001
  0
LWPOLYLINE
  5
199
330
17
100
AcDbEntity
  8
ROADS
100
AcDbPolyline
 90
2
 70
0
 10
630728.2991954853
 20
4841171.507268001
 10
630722.8639029365
 20
4841213.1159422705
  0
LWPOLYLINE
  5
19A
330
17
100
AcDbEntity
  8
ROADS
100
AcDbPolyline
 90
2
 70
0
 10
630462.5672843525
 20
4841101.524905313
 10
630401.036955449
 20
4841285.219721552
  0
LWPOLYLINE
  5
19B
330
17
100
AcDbEntity
  8
ROADS
100
AcDbPolyline
 90
2
 70
0
 10
630625.7166442338
 20
4841141.393891313
 10
630585.4679984755
 20
4841249.366412189
  0
LWPOLYLINE
  5
19C
330
17
100
AcDbEntity
  8
ROADS
100
AcDbPolyline
 90
2
 70
0
 10
630536.61689206
 20
4841115.270784714
 10
630477.6817607847
 20
4841306.6731540635
  0
LWPOLYLINE
  5
19D
330
17
100
AcDbEntity
  8
ROADS
100
AcDbPolyline
 90
2
 70
0
 10
630667.2018803947
 20
4841153.318413744
 10
630650.511077818
 20
4841271.340952549
  0
LWPOLYLINE
  5
19E
330
17
100
AcDbEntity
  8
ROADS
100
AcDbPolyline
 90
2
 70
0
 10
630722.8639029365
 20
4841213.1159422705
 10
630711.7166066575
 20
4841290.125828932
  0
LWPOLYLINE
  5
19F
330
17
100
AcDbEntity
  8
ROADS
100
AcDbPolyline
 90
2
 70
0
 10
630650.511077818
 20
4841271.340952549
 10
630585.4679984755
 20
4841249.366412189
  0
LWPOLYLINE
  5
1A0
330
17
100
AcDbEntity
  8
ROADS
100
AcDbPolyline
 90
2
 70
0
 10
630711.7166066575
 20
4841290.125828932
 10
630650.511077818
 20
4841271.340952549
  0
LWPOLYLINE
  5
1A1
330
17
100
AcDbEntity
  8
ROADS
100
AcDbPolyline
 90
2
 70
0
 10
630585.4679984755
 20
4841249.366412189
 10
630555.530783419
 20
4841331.657141434
  0
LWPOLYLINE
  5
1A2
330
17
100
AcDbEntity
  8
ROADS
100
AcDbPolyline
 90
2
 70
0
 10
630401.036955449
 20
4841285.219721552
 10
630477.6817607847
 20
4841306.6731540635
  0
LWPOLYLINE
  5
1A3
330
17
100
AcDbEntity
  8
ROADS
100
AcDbPolyline
 90
2
 70
0
 10
630401.036955449
 20
4841285.219721552
 10
630382.1466648761
 20
4841349.874535323
  0
LWPOLYLINE
  5
1A4
330
17
100
AcDbEntity
  8
ROADS
100
AcDbPolyline
 90
2
 70
0
 10
630477.6817607847
 20
4841306.6731540635
 10
630555.530783419
 20
4841331.657141434
  0
LWPOLYLINE
  5
1A5
330
17
100
AcDbEntity
  8
ROADS
100
AcDbPolyline
 90
2
 70
0
 10
630711.7166066575
 20
4841290.125828932
 10
630697.0135536843
 20
4841370.588619206
  0
LWPOLYLINE
  5
1A6
330
17
100
AcDbEntity
  8
ROADS
100
AcDbPolyline
 90
2
 70
0
 10
630477.6817607847
 20
4841306.6731540635
 10
630458.8578546505
 20
4841363.873646765
  0
LWPOLYLINE
  5
1A7
330
17
100
AcDbEntity
  8
ROADS
100
AcDbPolyline
 90
2
 70
0
 10
630555.530783419
 20
4841331.657141434
 10
630633.9026828267
 20
4841355.4075123295
  0
LWPOLYLINE
  5
1A8
330
17
100
AcDbEntity
  8
ROADS
100
AcDbPolyline
 90
2
 70
0
 10
630164.7398996288
 20
4841214.4368940145
 10
630245.8786655065
 20
4841238.808821784
  0
LWPOLYLINE
  5
1A9
330
17
100
AcDbEntity
  8
ROADS
100
AcDbPolyline
 90
2
 70
0
 10
630164.7398996288
 20
4841214.4368940145
 10
630144.3224479111
 20
4841278.875016518
  0
LWPOLYLINE
  5
1AA
330
17
100
AcDbEntity
  8
ROADS
100
AcDbPolyline
 90
2
 70
0
 10
630245.8786655065
 20
4841238.808821784
 10
630323.2893848863
 20
4841261.62219077
  0
LWPOLYLINE
  5
1AB
330
17
100
AcDbEntity
  8
ROADS
100
AcDbPolyline
 90
2
 70
0
 10
630245.8786655065
 20
4841238.808821784
 10
630225.8780846519
 20
4841303.531522088
  0
LWPOLYLINE
  5
1AC
330
17
100
AcDbEntity
  8
ROADS
100
AcDbPolyline
 90
2
 70
0
 10
630323.2893848863
 20
4841261.62219077
 10
630401.036955449
 20
4841285.219721552
  0
LWPOLYLINE
  5
1AD
330
17
100
AcDbEntity
  8
ROADS
100
AcDbPolyline
 90
2
 70
0
 10
630323.2893848863
 20
4841261.62219077
 10
630304.2396749225
 20
4841326.742139282
  0
LWPOLYLINE
  5
1AE
330
17
100
AcDbEntity
  8
ROADS
100
AcDbPolyline
 90
2
 70
0
 10
630555.530783419
 20
4841331.657141434
 10
630539.8267144331
 20
4841389.624655898
  0
LWPOLYLINE
  5
1AF
330
17
100
AcDbEntity
  8
ROADS
100
AcDbPolyline
 90
2
 70
0
 10
630633.9026828267
 20
4841355.4075123295
 10
630697.0135536843
 20
4841370.588619206
  0
LWPOLYLINE
  5
1B0
330
17
100
AcDbEntity
  8
ROADS
100
AcDbPolyline
 90
2
 70
0
 10
630697.0135536843
 20
4841370.588619206
 10
630804.3180436061
 20
4841389.6167088
  0
LWPOLYLINE
  5
1B1
330
17
100
AcDbEntity
  8
ROADS
100
AcDbPolyline
 90
2
 70
0
 10
630633.9026828267
 20
4841355.4075123295
 10
630603.7481965463
 20
4841451.636821123
  0
LWPOLYLINE
  5
1B2
330
17
100
AcDbEntity
  8
ROADS
100
AcDbPolyline
 90
2
 70
0
 10
630697.0135536843
 20
4841370.588619206
 10
630667.0158104962
 20
4841591.334861983
  0
LWPOLYLINE
  5
1B3
330
17
100
AcDbEntity
  8
ROADS
100
AcDbPolyline
 90
2
 70
0
 10
630786.5514381265
 20
4841491.70365668
 10
630770.5956002754
 20
4841608.997114565
  0
LWPOLYLINE
  5
1B4
330
17
100
AcDbEntity
  8
ROADS
100
AcDbPolyline
 90
2
 70
0
 10
630912.8126122131
 20
4841531.771364714
 10
631026.5890798472
 20
4841567.850887384
  0
LWPOLYLINE
  5
1B5
330
17
100
AcDbEntity
  8
ROADS
100
AcDbPolyline
 90
2
 70
0
 10
630912.8126122131
 20
4841531.771364714
 10
630888.4041930313
 20
4841612.087357106
  0
LWPOLYLINE
  5
1B6
330
17
100
AcDbEntity
  8
ROADS
100
AcDbPolyline
 90
2
 70
0
 10
631154.5271333805
 20
4841500.674062097
 10
631135.6101676443
 20
4841562.834984496
  0
LWPOLYLINE
  5
1B7
330
17
100
AcDbEntity
  8
ROADS
100
AcDbPolyline
 90
2
 70
0
 10
631026.5890798472
 20
4841567.850887384
 10
631018.0423421975
 20
4841596.548895866
  0
ENDSEC
  0
SECTION
  2
OBJECTS
  0
DICTIONARY
  5
A
330
0
100
AcDbDictionary
281
1
  3
ACAD_COLOR
350
B
  3
ACAD_GROUP
350
C
  3
ACAD_LAYOUT
350
D
  3
ACAD_MATERIAL
350
E
  3
ACAD_MLEADERSTYLE
350
F
  3
ACAD_MLINESTYLE
350
10
  3
ACAD_PLOTSETTINGS
350
11
  3
ACAD_PLOTSTYLENAME
350
12
  3
ACAD_SCALELIST
350
14
  3
ACAD_TABLESTYLE
350
15
  3
ACAD_VISUALSTYLE
350
16
  3
EZDXF_META
350
2D
  0
DICTIONARY
  5
B
330
A
100
AcDbDictionary
281
1
  0
DICTIONARY
  5
C
330
A
100
AcDbDictionary
281
1
  0
DICTIONARY
  5
D
330
A
100
AcDbDictionary
281
1
  3
Model
350
1A
  3
Layout1
350
1E
  0
DICTIONARY
  5
E
330
A
100
AcDbDictionary
281
1
  3
ByBlock
350
1F
  3
ByLayer
350
20
  3
Global
350
21
  0
DICTIONARY
  5
F
330
A
100
AcDbDictionary
281
1
  3
Standard
350
2C
  0
DICTIONARY
  5
10
330
A
100
AcDbDictionary
281
1
  3
Standard
350
22
  0
DICTIONARY
  5
11
330
A
100
AcDbDictionary
281
1
  0
ACDBDICTIONARYWDFLT
  5
12
330
A
100
AcDbDictionary
281
1
  3
Normal
350
13
100
AcDbDictionaryWithDefault
340
13
  0
ACDBPLACEHOLDER
  5
13
330
12
  0
DICTIONARY
  5
14
330
A
100
AcDbDictionary
281
1
  0
DICTIONARY
  5
15
330
A
100
AcDbDictionary
281
1
  0
DICTIONARY
  5
16
330
A
100
AcDbDictionary
281
1
  0
LAYOUT
  5
1A
330
D
100
AcDbPlotSettings
  1

  4
A3
  6

 40
7.5
 41
20.0
 42
7.5
 43
20.0
 44
420.0
 45
297.0
 46
0.0
 47
0.0
 48
0.0
 49
0.0
140
0.0
141
0.0
142
1.0
143
1.0
 70
1024
 72
1
 73
0
 74
5
  7

 75
16
 76
0
 77
2
 78
300
147
1.0
148
0.0
149
0.0
100
AcDbLayout
  1
Model
 70
1
 71
0
 10
0.0
 20
0.0
 11
420.0
 21
297.0
 12
0.0
 22
0.0
 32
0.0
 14
1e+20
 24
1e+20
 34
1e+20
 15
-1e+20
 25
-1e+20
 35
-1e+20
146
0.0
 13
0.0
 23
0.0
 33
0.0
 16
1.0
 26
0.0
 36
0.0
 17
0.0
 27
1.0
 37
0.0
 76
1
330
17
  0
LAYOUT
  5
1E
330
D
100
AcDbPlotSettings
  1

  4
A3
  6

 40
7.5
 41
20.0
 42
7.5
 43
20.0
 44
420.0
 45
297.0
 46
0.0
 47
0.0
 48
0.0
 49
0.0
140
0.0
141
0.0
142
1.0
143
1.0
 70
0
 72
1
 73
0
 74
5
  7

 75
16
 76
0
 77
2
 78
300
147
1.0
148
0.0
149
0.0
100
AcDbLayout
  1
Layout1
 70
1
 71
1
 10
0.0
 20
0.0
 11
420.0
 21
297.0
 12
0.0
 22
0.0
 32
0.0
 14
1e+20
 24
1e+20
 34
1e+20
 15
-1e+20
 25
-1e+20
 35
-1e+20
146
0.0
 13
0.0
 23
0.0
 33
0.0
 16
1.0
 26
0.0
 36
0.0
 17
0.0
 27
1.0
 37
0.0
 76
1
330
1B
  0
MATERIAL
  5
1F
102
{ACAD_REACTORS
330
E
102
}
330
E
100
AcDbMaterial
  1
ByBlock
  2

 70
0
 40
1.0
 71
1
 41
1.0
 91
-1023410177
 42
1.0
 72
1
  3

 73
1
 74
1
 75
1
 44
0.5
 73
0
 45
1.0
 46
1.0
 77
1
  4

 78
1
 79
1
170
1
 48
1.0
171
1
  6

172
1
173
1
174
1
140
1.0
141
1.0
175
1
  7

176
1
177
1
178
1
143
1.0
179
1
  8

270
1
271
1
272
1
145
1.0
146
1.0
273
1
  9

274
1
275
1
276
1
 42
1.0
 72
1
  3

 73
1
 74
1
 75
1
 94
63
  0
MATERIAL
  5
20
102
{ACAD_REACTORS
330
E
102
}
330
E
100
AcDbMaterial
  1
ByLayer
  2

 70
0
 40
1.0
 71
1
 41
1.0
 91
-1023410177
 42
1.0
 72
1
  3

 73
1
 74
1
 75
1
 44
0.5
 73
0
 45
1.0
 46
1.0
 77
1
  4

 78
1
 79
1
170
1
 48
1.0
171
1
  6

172
1
173
1
174
1
140
1.0
141
1.0
175
1
  7

176
1
177
1
178
1
143
1.0
179
1
  8

270
1
271
1
272
1
145
1.0
146
1.0
273
1
  9

274
1
275
1
276
1
 42
1.0
 72
1
  3

 73
1
 74
1
 75
1
 94
63
  0
MATERIAL
  5
21
102
{ACAD_REACTORS
330
E
102
}
330
E
100
AcDbMaterial
  1
Global
  2

 70
0
 40
1.0
 71
1
 41
1.0
 91
-1023410177
 42
1.0
 72
1
  3

 73
1
 74
1
 75
1
 44
0.5
 73
0
 45
1.0
 46
1.0
 77
1
  4

 78
1
 79
1
170
1
 48
1.0
171
1
  6

172
1
173
1
174
1
140
1.0
141
1.0
175
1
  7

176
1
177
1
178
1
143
1.0
179
1
  8

270
1
271
1
272
1
145
1.0
146
1.0
273
1
  9

274
1
275
1
276
1
 42
1.0
 72
1
  3

 73
1
 74
1
 75
1
 94
63
  0
MLINESTYLE
  5
22
102
{ACAD_REACTORS
330
10
102
}
330
10
100
AcDbMlineStyle
  2
Standard
 70
0
  3

 62
256
 51
90.0
 52
90.0
 71
2
 49
0.5
 62
256
  6
BYLAYER
 49
-0.5
 62
256
  6
BYLAYER
  0
MLEADERSTYLE
  5
2C
102
{ACAD_REACTORS
330
F
102
}
330
F
100
AcDbMLeaderStyle
179
2
170
2
171
1
172
0
 90
2
 40
0.0
 41
0.0
173
1
 91
-1056964608
 92
-2
290
1
 42
2.0
291
1
 43
8.0
  3
Standard
 44
4.0
300

342
29
174
1
175
1
176
0
178
1
 93
-1056964608
 45
4.0
292
0
297
0
 46
4.0
 94
-1056964608
 47
1.0
 49
1.0
140
1.0
294
1
141
0.0
177
0
142
1.0
295
0
296
0
143
3.75
271
0
272
9
273
9
  0
DICTIONARY
  5
2D
330
A
100
AcDbDictionary
280
1
281
1
  3
CREATED_BY_EZDXF
350
2E
  3
WRITTEN_BY_EZDXF
350
1BA
  0
DICTIONARYVAR
  5
2E
330
2D
100
DictionaryVariables
280
0
  1
1.4.4 @ 2026-07-07T18:24:01.081591+00:00
  0
DICTIONARYVAR
  5
1BA
330
2D
100
DictionaryVariables
280
0
  1
1.4.4 @ 2026-07-07T18:24:01.092140+00:00
  0
ENDSEC
  0
EOF
