  0
SECTION
  2
HEADER
  9
$ACADVER
  1
AC1015
  9
$ACADMAINTVER
 70
6
  9
$DWGCODEPAGE
  3
ANSI_1252
  9
$INSBASE
 10
0.0
 20
0.0
 30
0.0
  9
$EXTMIN
 10
1e+20
 20
1e+20
 30
1e+20
  9
$EXTMAX
 10
-1e+20
 20
-1e+20
 30
-1e+20
  9
$LIMMIN
 10
0.0
 20
0.0
  9
$LIMMAX
 10
420.0
 20
297.0
  9
$ORTHOMODE
 70
0
  9
$REGENMODE
 70
1
  9
$FILLMODE
 70
1
  9
$QTEXTMODE
 70
0
  9
$MIRRTEXT
 70
1
  9
$LTSCALE
 40
1.0
  9
$ATTMODE
 70
1
  9
$TEXTSIZE
 40
2.5
  9
$TRACEWID
 40
1.0
  9
$TEXTSTYLE
  7
Standard
  9
$CLAYER
  8
0
  9
$CELTYPE
  6
ByLayer
  9
$CECOLOR
 62
256
  9
$CELTSCALE
 40
1.0
  9
$DISPSILH
 70
0
  9
$DIMSCALE
 40
1.0
  9
$DIMASZ
 40
2.5
  9
$DIMEXO
 40
0.625
  9
$DIMDLI
 40
3.75
  9
$DIMRND
 40
0.0
  9
$DIMDLE
 40
0.0
  9
$DIMEXE
 40
1.25
  9
$DIMTP
 40
0.0
  9
$DIMTM
 40
0.0
  9
$DIMTXT
 40
2.5
  9
$DIMCEN
 40
2.5
  9
$DIMTSZ
 40
0.0
  9
$DIMTOL
 70
0
  9
$DIMLIM
 70
0
  9
$DIMTIH
 70
0
  9
$DIMTOH
 70
0
  9
$DIMSE1
 70
0
  9
$DIMSE2
 70
0
  9
$DIMTAD
 70
1
  9
$DIMZIN
 70
8
  9
$DIMBLK
  1

  9
$DIMASO
 70
1
  9
$DIMSHO
 70
1
  9
$DIMPOST
  1

  9
$DIMAPOST
  1

  9
$DIMALT
 70
0
  9
$DIMALTD
 70
3
  9
$DIMALTF
 40
0.03937007874
  9
$DIMLFAC
 40
1.0
  9
$DIMTOFL
 70
1
  9
$DIMTVP
 40
0.0
  9
$DIMTIX
 70
0
  9
$DIMSOXD
 70
0
  9
$DIMSAH
 70
0
  9
$DIMBLK1
  1

  9
$DIMBLK2
  1

  9
$DIMSTYLE
  2
ISO-25
  9
$DIMCLRD
 70
0
  9
$DIMCLRE
 70
0
  9
$DIMCLRT
 70
0
  9
$DIMTFAC
 40
1.0
  9
$DIMGAP
 40
0.625
  9
$DIMJUST
 70
0
  9
$DIMSD1
 70
0
  9
$DIMSD2
 70
0
  9
$DIMTOLJ
 70
0
  9
$DIMTZIN
 70
8
  9
$DIMALTZ
 70
0
  9
$DIMALTTZ
 70
0
  9
$DIMUPT
 70
0
  9
$DIMDEC
 70
2
  9
$DIMTDEC
 70
2
  9
$DIMALTU
 70
2
  9
$DIMALTTD
 70
3
  9
$DIMTXSTY
  7
Standard
  9
$DIMAUNIT
 70
0
  9
$DIMADEC
 70
0
  9
$DIMALTRND
 40
0.0
  9
$DIMAZIN
 70
0
  9
$DIMDSEP
 70
44
  9
$DIMATFIT
 70
3
  9
$DIMFRAC
 70
0
  9
$DIMLDRBLK
  1

  9
$DIMLUNIT
 70
2
  9
$DIMLWD
 70
-2
  9
$DIMLWE
 70
-2
  9
$DIMTMOVE
 70
0
  9
$LUNITS
 70
2
  9
$LUPREC
 70
4
  9
$SKETCHINC
 40
1.0
  9
$FILLETRAD
 40
10.0
  9
$AUNITS
 70
0
  9
$AUPREC
 70
2
  9
$MENU
  1
.
  9
$ELEVATION
 40
0.0
  9
$PELEVATION
 40
0.0
  9
$THICKNESS
 40
0.0
  9
$LIMCHECK
 70
0
  9
$CHAMFERA
 40
0.0
  9
$CHAMFERB
 40
0.0
  9
$CHAMFERC
 40
0.0
  9
$CHAMFERD
 40
0.0
  9
$SKPOLY
 70
0
  9
$TDCREATE
 40
2461252.48724537
  9
$TDUCREATE
 40
2458532.153996898
  9
$TDUPDATE
 40
2461252.48724537
  9
$TDUUPDATE
 40
2458532.1544311
  9
$TDINDWG
 40
0.0
  9
$TDUSRTIMER
 40
0.0
  9
$USRTIMER
 70
1
  9
$ANGBASE
 50
0.0
  9
$ANGDIR
 70
0
  9
$PDMODE
 70
0
  9
$PDSIZE
 40
0.0
  9
$PLINEWID
 40
0.0
  9
$SPLFRAME
 70
0
  9
$SPLINETYPE
 70
6
  9
$SPLINESEGS
 70
8
  9
$HANDSEED
  5
437
  9
$SURFTAB1
 70
6
  9
$SURFTAB2
 70
6
  9
$SURFTYPE
 70
6
  9
$SURFU
 70
6
  9
$SURFV
 70
6
  9
$UCSBASE
  2

  9
$UCSNAME
  2

  9
$UCSORG
 10
0.0
 20
0.0
 30
0.0
  9
$UCSXDIR
 10
1.0
 20
0.0
 30
0.0
  9
$UCSYDIR
 10
0.0
 20
1.0
 30
0.0
  9
$UCSORTHOREF
  2

  9
$UCSORTHOVIEW
 70
0
  9
$UCSORGTOP
 10
0.0
 20
0.0
 30
0.0
  9
$UCSORGBOTTOM
 10
0.0
 20
0.0
 30
0.0
  9
$UCSORGLEFT
 10
0.0
 20
0.0
 30
0.0
  9
$UCSORGRIGHT
 10
0.0
 20
0.0
 30
0.0
  9
$UCSORGFRONT
 10
0.0
 20
0.0
 30
0.0
  9
$UCSORGBACK
 10
0.0
 20
0.0
 30
0.0
  9
$PUCSBASE
  2

  9
$PUCSNAME
  2

  9
$PUCSORG
 10
0.0
 20
0.0
 30
0.0
  9
$PUCSXDIR
 10
1.0
 20
0.0
 30
0.0
  9
$PUCSYDIR
 10
0.0
 20
1.0
 30
0.0
  9
$PUCSORTHOREF
  2

  9
$PUCSORTHOVIEW
 70
0
  9
$PUCSORGTOP
 10
0.0
 20
0.0
 30
0.0
  9
$PUCSORGBOTTOM
 10
0.0
 20
0.0
 30
0.0
  9
$PUCSORGLEFT
 10
0.0
 20
0.0
 30
0.0
  9
$PUCSORGRIGHT
 10
0.0
 20
0.0
 30
0.0
  9
$PUCSORGFRONT
 10
0.0
 20
0.0
 30
0.0
  9
$PUCSORGBACK
 10
0.0
 20
0.0
 30
0.0
  9
$USERI1
 70
0
  9
$USERI2
 70
0
  9
$USERI3
 70
0
  9
$USERI4
 70
0
  9
$USERI5
 70
0
  9
$USERR1
 40
0.0
  9
$USERR2
 40
0.0
  9
$USERR3
 40
0.0
  9
$USERR4
 40
0.0
  9
$USERR5
 40
0.0
  9
$WORLDVIEW
 70
1
  9
$SHADEDGE
 70
3
  9
$SHADEDIF
 70
70
  9
$TILEMODE
 70
1
  9
$MAXACTVP
 70
64
  9
$PINSBASE
 10
0.0
 20
0.0
 30
0.0
  9
$PLIMCHECK
 70
0
  9
$PEXTMIN
 10
1e+20
 20
1e+20
 30
1e+20
  9
$PEXTMAX
 10
-1e+20
 20
-1e+20
 30
-1e+20
  9
$PLIMMIN
 10
0.0
 20
0.0
  9
$PLIMMAX
 10
420.0
 20
297.0
  9
$UNITMODE
 70
0
  9
$VISRETAIN
 70
1
  9
$PLINEGEN
 70
0
  9
$PSLTSCALE
 70
1
  9
$TREEDEPTH
 70
3020
  9
$CMLSTYLE
  2
Standard
  9
$CMLJUST
 70
0
  9
$CMLSCALE
 40
20.0
  9
$PROXYGRAPHICS
 70
1
  9
$MEASUREMENT
 70
1
  9
$CELWEIGHT
370
-1
  9
$ENDCAPS
280
0
  9
$JOINSTYLE
280
0
  9
$LWDISPLAY
290
0
  9
$INSUNITS
 70
6
  9
$HYPERLINKBASE
  1

  9
$STYLESHEET
  1

  9
$XEDIT
290
1
  9
$CEPSNTYPE
380
0
  9
$PSTYLEMODE
290
1
  9
$FINGERPRINTGUID
  2
{6F5F5BA8-7064-40ED-ABC7-C673CE89B3D1}
  9
$VERSIONGUID
  2
{A10D5172-3B28-48BA-9119-2DC2553E872C}
  9
$EXTNAMES
290
1
  9
$PSVPSCALE
 40
0.0
  9
$OLESTARTUP
290
0
  0
ENDSEC
  0
SECTION
  2
CLASSES
  0
CLASS
  1
ACDBDICTIONARYWDFLT
  2
AcDbDictionaryWithDefault
  3
ObjectDBX Classes
 90
0
280
0
281
0
  0
CLASS
  1
SUN
  2
AcDbSun
  3
SCENEOE
 90
1153
280
0
281
0
  0
CLASS
  1
VISUALSTYLE
  2
AcDbVisualStyle
  3
ObjectDBX Classes
 90
4095
280
0
281
0
  0
CLASS
  1
MATERIAL
  2
AcDbMaterial
  3
ObjectDBX Classes
 90
1153
280
0
281
0
  0
CLASS
  1
SCALE
  2
AcDbScale
  3
ObjectDBX Classes
 90
1153
280
0
281
0
  0
CLASS
  1
TABLESTYLE
  2
AcDbTableStyle
  3
ObjectDBX Classes
 90
4095
280
0
281
0
  0
CLASS
  1
MLEADERSTYLE
  2
AcDbMLeaderStyle
  3
ACDB_MLEADERSTYLE_CLASS
 90
4095
280
0
281
0
  0
CLASS
  1
DICTIONARYVAR
  2
AcDbDictionaryVar
  3
ObjectDBX Classes
 90
0
280
0
281
0
  0
CLASS
  1
CELLSTYLEMAP
  2
AcDbCellStyleMap
  3
ObjectDBX Classes
 90
1152
280
0
281
0
  0
CLASS
  1
MENTALRAYRENDERSETTINGS
  2
AcDbMentalRayRenderSettings
  3
SCENEOE
 90
1024
280
0
281
0
  0
CLASS
  1
ACDBDETAILVIEWSTYLE
  2
AcDbDetailViewStyle
  3
ObjectDBX Classes
 90
1025
280
0
281
0
  0
CLASS
  1
ACDBSECTIONVIEWSTYLE
  2
AcDbSectionViewStyle
  3
ObjectDBX Classes
 90
1025
280
0
281
0
  0
CLASS
  1
RASTERVARIABLES
  2
AcDbRasterVariables
  3
ISM
 90
0
280
0
281
0
  0
CLASS
  1
ACDBPLACEHOLDER
  2
AcDbPlaceHolder
  3
ObjectDBX Classes
 90
0
280
0
281
0
  0
CLASS
  1
LAYOUT
  2
AcDbLayout
  3
ObjectDBX Classes
 90
0
280
0
281
0
  0
ENDSEC
  0
SECTION
  2
TABLES
  0
TABLE
  2
VPORT
  5
8
330
0
100
AcDbSymbolTable
 70
1
  0
VPORT
  5
23
330
8
100
AcDbSymbolTableRecord
100
AcDbViewportTableRecord
  2
*Active
 70
0
 10
0.0
 20
0.0
 11
1.0
 21
1.0
 12
0.0
 22
0.0
 13
0.0
 23
0.0
 14
0.5
 24
0.5
 15
0.5
 25
0.5
 16
0.0
 26
0.0
 36
1.0
 17
0.0
 27
0.0
 37
0.0
 40
1000.0
 41
1.34
 42
50.0
 43
0.0
 44
0.0
 50
0.0
 51
0.0
 71
0
 72
1000
 73
1
 74
3
 75
0
 76
0
 77
0
 78
0
281
0
 65
0
146
0.0
  0
ENDTAB
  0
TABLE
  2
LTYPE
  5
2
330
0
100
AcDbSymbolTable
 70
3
  0
LTYPE
  5
24
330
2
100
AcDbSymbolTableRecord
100
AcDbLinetypeTableRecord
  2
ByBlock
 70
0
  3

 72
65
 73
0
 40
0.0
  0
LTYPE
  5
25
330
2
100
AcDbSymbolTableRecord
100
AcDbLinetypeTableRecord
  2
ByLayer
 70
0
  3

 72
65
 73
0
 40
0.0
  0
LTYPE
  5
26
330
2
100
AcDbSymbolTableRecord
100
AcDbLinetypeTableRecord
  2
Continuous
 70
0
  3

 72
65
 73
0
 40
0.0
  0
ENDTAB
  0
TABLE
  2
LAYER
  5
1
330
0
100
AcDbSymbolTable
 70
2
  0
LAYER
  5
27
330
1
100
AcDbSymbolTableRecord
100
AcDbLayerTableRecord
  2
0
 70
0
 62
7
  6
Continuous
370
-3
390
13
  0
LAYER
  5
28
330
1
100
AcDbSymbolTableRecord
100
AcDbLayerTableRecord
  2
Defpoints
 70
0
 62
7
  6
Continuous
290
0
370
-3
390
13
  0
ENDTAB
  0
TABLE
  2
STYLE
  5
5
330
0
100
AcDbSymbolTable
 70
1
  0
STYLE
  5
29
330
5
100
AcDbSymbolTableRecord
100
AcDbTextStyleTableRecord
  2
Standard
 70
0
 40
0.0
 41
1.0
 50
0.0
 71
0
 42
2.5
  3
txt
  4

  0
ENDTAB
  0
TABLE
  2
VIEW
  5
7
330
0
100
AcDbSymbolTable
 70
0
  0
ENDTAB
  0
TABLE
  2
UCS
  5
6
330
0
100
AcDbSymbolTable
 70
0
  0
ENDTAB
  0
TABLE
  2
APPID
  5
3
330
0
100
AcDbSymbolTable
 70
3
  0
APPID
  5
2A
330
3
100
AcDbSymbolTableRecord
100
AcDbRegAppTableRecord
  2
ACAD
 70
0
  0
APPID
  5
434
330
3
100
AcDbSymbolTableRecord
100
AcDbRegAppTableRecord
  2
HATCHBACKGROUNDCOLOR
 70
0
  0
APPID
  5
435
330
3
100
AcDbSymbolTableRecord
100
AcDbRegAppTableRecord
  2
EZDXF
 70
0
  0
ENDTAB
  0
TABLE
  2
DIMSTYLE
  5
4
330
0
100
AcDbSymbolTable
 70
1
100
AcDbDimStyleTable
  0
DIMSTYLE
105
2B
330
4
100
AcDbSymbolTableRecord
100
AcDbDimStyleTableRecord
  2
Standard
 70
0
  3

  4

 40
1.0
 41
2.5
 42
0.625
 43
3.75
 44
1.25
 45
0.0
 46
0.0
 47
0.0
 48
0.0
140
2.5
141
2.5
142
0.0
143
0.03937007874
144
1.0
145
0.0
146
1.0
147
0.625
148
0.0
 71
0
 72
0
 73
0
 74
0
 75
0
 76
0
 77
1
 78
8
 79
3
170
0
171
3
172
1
173
0
174
0
175
0
176
0
177
0
178
0
179
2
271
2
272
2
273
2
274
3
275
0
276
0
277
2
278
44
279
0
280
0
281
0
282
0
283
0
284
8
285
0
286
0
288
0
289
3
371
-2
372
-2
  0
ENDTAB
  0
TABLE
  2
BLOCK_RECORD
  5
9
330
0
100
AcDbSymbolTable
 70
2
  0
BLOCK_RECORD
  5
17
330
9
100
AcDbSymbolTableRecord
100
AcDbBlockTableRecord
  2
*Model_Space
340
1A
  0
BLOCK_RECORD
  5
1B
330
9
100
AcDbSymbolTableRecord
100
AcDbBlockTableRecord
  2
*Paper_Space
340
1E
  0
ENDTAB
  0
ENDSEC
  0
SECTION
  2
BLOCKS
  0
BLOCK
  5
18
330
17
100
AcDbEntity
  8
0
100
AcDbBlockBegin
  2
*Model_Space
 70
0
 10
0.0
 20
0.0
 30
0.0
  3
*Model_Space
  1

  0
ENDBLK
  5
19
330
17
100
AcDbEntity
  8
0
100
AcDbBlockEnd
  0
BLOCK
  5
1C
330
1B
100
AcDbEntity
  8
0
100
AcDbBlockBegin
  2
*Paper_Space
 70
0
 10
0.0
 20
0.0
 30
0.0
  3
*Paper_Space
  1

  0
ENDBLK
  5
1D
330
1B
100
AcDbEntity
  8
0
100
AcDbBlockEnd
  0
ENDSEC
  0
SECTION
  2
ENTITIES
  0
LWPOLYLINE
  5
2F
330
17
100
AcDbEntity
  8
ROADS
100
AcDbPolyline
 90
2
 70
0
 10
623635.5042414704
 20
4836482.21290782
 10
623618.6456491487
 20
4836530.203174957
  0
LWPOLYLINE
  5
30
330
17
100
AcDbEntity
  8
ROADS
100
AcDbPolyline
 90
2
 70
0
 10
623682.1388031227
 20
4836500.554550018
 10
623673.8925729467
 20
4836525.018172943
  0
LWPOLYLINE
  5
31
330
17
100
AcDbEntity
  8
ROADS
100
AcDbPolyline
 90
2
 70
0
 10
623592.5523426828
 20
4836466.114290906
 10
623576.0837972325
 20
4836513.888103104
  0
LWPOLYLINE
  5
32
330
17
100
AcDbEntity
  8
ROADS
100
AcDbPolyline
 90
2
 70
0
 10
623726.5572529591
 20
4836521.760452579
 10
623720.4711665194
 20
4836539.940139879
  0
LWPOLYLINE
  5
33
330
17
100
AcDbEntity
  8
ROADS
100
AcDbPolyline
 90
3
 70
0
 10
623761.0373835987
 20
4836537.25887979
 10
623757.1150716228
 20
4836547.461096129
 10
623720.4711665194
 20
4836539.940139879
  0
LWPOLYLINE
  5
34
330
17
100
AcDbEntity
  8
ROADS
100
AcDbPolyline
 90
2
 70
0
 10
623618.6456491487
 20
4836530.203174957
 10
623576.0837972325
 20
4836513.888103104
  0
LWPOLYLINE
  5
35
330
17
100
AcDbEntity
  8
ROADS
100
AcDbPolyline
 90
2
 70
0
 10
623576.0837972325
 20
4836513.888103104
 10
623588.9644232219
 20
4836533.413000028
  0
LWPOLYLINE
  5
36
330
17
100
AcDbEntity
  8
ROADS
100
AcDbPolyline
 90
2
 70
0
 10
623576.0837972325
 20
4836513.888103104
 10
623566.0481975818
 20
4836543.039138949
  0
LWPOLYLINE
  5
37
330
17
100
AcDbEntity
  8
ROADS
100
AcDbPolyline
 90
2
 70
0
 10
623673.8925729467
 20
4836525.018172943
 10
623655.6549979285
 20
4836537.829074481
  0
LWPOLYLINE
  5
38
330
17
100
AcDbEntity
  8
ROADS
100
AcDbPolyline
 90
2
 70
0
 10
623588.9644232219
 20
4836533.413000028
 10
623618.6456491487
 20
4836530.203174957
  0
LWPOLYLINE
  5
39
330
17
100
AcDbEntity
  8
ROADS
100
AcDbPolyline
 90
2
 70
0
 10
623720.4711665194
 20
4836539.940139879
 10
623673.8925729467
 20
4836525.018172943
  0
LWPOLYLINE
  5
3A
330
17
100
AcDbEntity
  8
ROADS
100
AcDbPolyline
 90
2
 70
0
 10
623655.6549979285
 20
4836537.829074481
 10
623618.6456491487
 20
4836530.203174957
  0
LWPOLYLINE
  5
3B
330
17
100
AcDbEntity
  8
ROADS
100
AcDbPolyline
 90
2
 70
0
 10
623588.9644232219
 20
4836533.413000028
 10
623566.0481975818
 20
4836543.039138949
  0
LWPOLYLINE
  5
3C
330
17
100
AcDbEntity
  8
ROADS
100
AcDbPolyline
 90
2
 70
0
 10
623618.6456491487
 20
4836530.203174957
 10
623632.2272682968
 20
4836549.140553001
  0
LWPOLYLINE
  5
3D
330
17
100
AcDbEntity
  8
ROADS
100
AcDbPolyline
 90
2
 70
0
 10
622889.1171983078
 20
4836551.5037790015
 10
623068.9585783116
 20
4836610.321469439
  0
LWPOLYLINE
  5
3E
330
17
100
AcDbEntity
  8
ROADS
100
AcDbPolyline
 90
2
 70
0
 10
623079.8100039875
 20
4836576.868016269
 10
623091.4510793478
 20
4836598.575582895
  0
LWPOLYLINE
  5
3F
330
17
100
AcDbEntity
  8
ROADS
100
AcDbPolyline
 90
2
 70
0
 10
623175.5157700834
 20
4836607.701050288
 10
623079.8100039875
 20
4836576.868016269
  0
LWPOLYLINE
  5
40
330
17
100
AcDbEntity
  8
ROADS
100
AcDbPolyline
 90
2
 70
0
 10
623079.8100039875
 20
4836576.868016269
 10
623068.9585783116
 20
4836610.321469439
  0
LWPOLYLINE
  5
41
330
17
100
AcDbEntity
  8
ROADS
100
AcDbPolyline
 90
2
 70
0
 10
623250.6764848523
 20
4836555.025421034
 10
623213.7583910121
 20
4836636.39297089
  0
LWPOLYLINE
  5
42
330
17
100
AcDbEntity
  8
ROADS
100
AcDbPolyline
 90
2
 70
0
 10
623531.335284196
 20
4836643.868633689
 10
623250.6764848523
 20
4836555.025421034
  0
LWPOLYLINE
  5
43
330
17
100
AcDbEntity
  8
ROADS
100
AcDbPolyline
 90
2
 70
0
 10
623056.5818297006
 20
4836641.576231086
 10
622877.8776502776
 20
4836584.742185495
  0
LWPOLYLINE
  5
44
330
17
100
AcDbEntity
  8
ROADS
100
AcDbPolyline
 90
2
 70
0
 10
623082.6087533921
 20
4836635.955559435
 10
623175.5157700834
 20
4836607.701050288
  0
LWPOLYLINE
  5
45
330
17
100
AcDbEntity
  8
ROADS
100
AcDbPolyline
 90
2
 70
0
 10
623213.7583910121
 20
4836636.39297089
 10
623175.5157700834
 20
4836607.701050288
  0
LWPOLYLINE
  5
46
330
17
100
AcDbEntity
  8
ROADS
100
AcDbPolyline
 90
2
 70
0
 10
623068.9585783116
 20
4836610.321469439
 10
623056.5818297006
 20
4836641.576231086
  0
LWPOLYLINE
  5
47
330
17
100
AcDbEntity
  8
ROADS
100
AcDbPolyline
 90
2
 70
0
 10
623655.6549979285
 20
4836537.829074481
 10
623632.2272682968
 20
4836549.140553001
  0
LWPOLYLINE
  5
48
330
17
100
AcDbEntity
  8
ROADS
100
AcDbPolyline
 90
2
 70
0
 10
623655.6549979285
 20
4836537.829074481
 10
623648.5005953314
 20
4836560.229865466
  0
LWPOLYLINE
  5
49
330
17
100
AcDbEntity
  8
ROADS
100
AcDbPolyline
 90
2
 70
0
 10
623632.2272682968
 20
4836549.140553001
 10
623648.5005953314
 20
4836560.229865466
  0
LWPOLYLINE
  5
4A
330
17
100
AcDbEntity
  8
ROADS
100
AcDbPolyline
 90
2
 70
0
 10
623618.6456491487
 20
4836530.203174957
 10
623585.7605470406
 20
4836621.996606966
  0
LWPOLYLINE
  5
4B
330
17
100
AcDbEntity
  8
ROADS
100
AcDbPolyline
 90
2
 70
0
 10
623566.0481975818
 20
4836543.039138949
 10
623531.335284196
 20
4836643.868633689
  0
LWPOLYLINE
  5
4C
330
17
100
AcDbEntity
  8
ROADS
100
AcDbPolyline
 90
2
 70
0
 10
623648.5005953314
 20
4836560.229865466
 10
623625.0497533934
 20
4836636.80777474
  0
LWPOLYLINE
  5
4D
330
17
100
AcDbEntity
  8
ROADS
100
AcDbPolyline
 90
2
 70
0
 10
623625.0497533934
 20
4836636.80777474
 10
623620.2150336861
 20
4836652.485160198
  0
LWPOLYLINE
  5
4E
330
17
100
AcDbEntity
  8
ROADS
100
AcDbPolyline
 90
3
 70
0
 10
623625.0497533934
 20
4836636.80777474
 10
623581.8972277825
 20
4836634.8894126
 10
623574.9236688907
 20
4836656.911947276
  0
LWPOLYLINE
  5
4F
330
17
100
AcDbEntity
  8
ROADS
100
AcDbPolyline
 90
2
 70
0
 10
623574.9236688907
 20
4836656.911947276
 10
623531.335284196
 20
4836643.868633689
  0
LWPOLYLINE
  5
50
330
17
100
AcDbEntity
  8
ROADS
100
AcDbPolyline
 90
2
 70
0
 10
623687.5333281942
 20
4836692.977467587
 10
623574.9236688907
 20
4836656.911947276
  0
LWPOLYLINE
  5
51
330
17
100
AcDbEntity
  8
ROADS
100
AcDbPolyline
 90
2
 70
0
 10
623929.0695919999
 20
4836635.556331277
 10
623900.557301373
 20
4836762.885947973
  0
LWPOLYLINE
  5
52
330
17
100
AcDbEntity
  8
ROADS
100
AcDbPolyline
 90
2
 70
0
 10
624018.5496919991
 20
4836709.063965422
 10
624012.674362175
 20
4836726.706337242
  0
LWPOLYLINE
  5
53
330
17
100
AcDbEntity
  8
ROADS
100
AcDbPolyline
 90
2
 70
0
 10
623531.335284196
 20
4836643.868633689
 10
623505.585213251
 20
4836714.645140652
  0
LWPOLYLINE
  5
54
330
17
100
AcDbEntity
  8
ROADS
100
AcDbPolyline
 90
2
 70
0
 10
623863.4255068112
 20
4836728.423740938
 10
623874.3394598374
 20
4836677.356425107
  0
LWPOLYLINE
  5
55
330
17
100
AcDbEntity
  8
ROADS
100
AcDbPolyline
 90
2
 70
0
 10
623606.3141001395
 20
4836706.087558234
 10
623625.9704426323
 20
4836712.650316068
  0
LWPOLYLINE
  5
56
330
17
100
AcDbEntity
  8
ROADS
100
AcDbPolyline
 90
2
 70
0
 10
623863.4255068112
 20
4836728.423740938
 10
623761.7541361174
 20
4836692.370474243
  0
LWPOLYLINE
  5
57
330
17
100
AcDbEntity
  8
ROADS
100
AcDbPolyline
 90
4
 70
0
 10
623582.502167464
 20
4836738.9776814785
 10
623547.9470893313
 20
4836712.3935032915
 10
623550.6421813866
 20
4836695.19635621
 10
623606.3141001395
 20
4836706.087558234
  0
LWPOLYLINE
  5
58
330
17
100
AcDbEntity
  8
ROADS
100
AcDbPolyline
 90
2
 70
0
 10
623858.7505149976
 20
4836749.038281423
 10
623687.5333281942
 20
4836692.977467587
  0
LWPOLYLINE
  5
59
330
17
100
AcDbEntity
  8
ROADS
100
AcDbPolyline
 90
2
 70
0
 10
623606.3141001395
 20
4836706.087558234
 10
623582.502167464
 20
4836738.9776814785
  0
LWPOLYLINE
  5
5A
330
17
100
AcDbEntity
  8
ROADS
100
AcDbPolyline
 90
2
 70
0
 10
623505.585213251
 20
4836714.645140652
 10
623540.0322901894
 20
4836742.887947685
  0
LWPOLYLINE
  5
5B
330
17
100
AcDbEntity
  8
ROADS
100
AcDbPolyline
 90
2
 70
0
 10
623858.7505149976
 20
4836749.038281423
 10
623863.4255068112
 20
4836728.423740938
  0
LWPOLYLINE
  5
5C
330
17
100
AcDbEntity
  8
ROADS
100
AcDbPolyline
 90
2
 70
0
 10
623582.502167464
 20
4836738.9776814785
 10
623567.1730426957
 20
4836758.463499784
  0
LWPOLYLINE
  5
5D
330
17
100
AcDbEntity
  8
ROADS
100
AcDbPolyline
 90
2
 70
0
 10
623977.4941669648
 20
4836672.612351688
 10
623942.8190578152
 20
4836776.736844803
  0
LWPOLYLINE
  5
5E
330
17
100
AcDbEntity
  8
ROADS
100
AcDbPolyline
 90
2
 70
0
 10
624120.4536746853
 20
4836764.675977673
 10
624114.9789755653
 20
4836781.500079716
  0
LWPOLYLINE
  5
5F
330
17
100
AcDbEntity
  8
ROADS
100
AcDbPolyline
 90
2
 70
0
 10
624066.6143765091
 20
4836747.554560063
 10
624045.9990670488
 20
4836810.494314138
  0
LWPOLYLINE
  5
60
330
17
100
AcDbEntity
  8
ROADS
100
AcDbPolyline
 90
2
 70
0
 10
623942.8190578152
 20
4836776.736844803
 10
623900.557301373
 20
4836762.885947973
  0
LWPOLYLINE
  5
61
330
17
100
AcDbEntity
  8
ROADS
100
AcDbPolyline
 90
2
 70
0
 10
624246.1034094568
 20
4836804.751835046
 10
624242.0892495497
 20
4836817.36238667
  0
LWPOLYLINE
  5
62
330
17
100
AcDbEntity
  8
ROADS
100
AcDbPolyline
 90
2
 70
0
 10
624166.9738215322
 20
4836779.515329743
 10
624143.7575702623
 20
4836841.002599509
  0
LWPOLYLINE
  5
63
330
17
100
AcDbEntity
  8
ROADS
100
AcDbPolyline
 90
2
 70
0
 10
624020.2961927855
 20
4836802.117114029
 10
623942.8190578152
 20
4836776.736844803
  0
LWPOLYLINE
  5
64
330
17
100
AcDbEntity
  8
ROADS
100
AcDbPolyline
 90
2
 70
0
 10
624574.2945305341
 20
4836941.096991696
 10
624562.1570428037
 20
4836976.821495128
  0
LWPOLYLINE
  5
65
330
17
100
AcDbEntity
  8
ROADS
100
AcDbPolyline
 90
2
 70
0
 10
624352.72686509
 20
4836839.346491319
 10
624331.0280304638
 20
4836901.808094475
  0
LWPOLYLINE
  5
66
330
17
100
AcDbEntity
  8
ROADS
100
AcDbPolyline
 90
3
 70
0
 10
624598.6101827358
 20
4836956.258576817
 10
624592.5274103675
 20
4836964.22798419
 10
624562.1570428037
 20
4836976.821495128
  0
LWPOLYLINE
  5
67
330
17
100
AcDbEntity
  8
ROADS
100
AcDbPolyline
 90
2
 70
0
 10
624374.9616204861
 20
4836916.118280901
 10
624331.0280304638
 20
4836901.808094475
  0
LWPOLYLINE
  5
68
330
17
100
AcDbEntity
  8
ROADS
100
AcDbPolyline
 90
2
 70
0
 10
623056.5818297006
 20
4836641.576231086
 10
623082.6087533921
 20
4836635.955559435
  0
LWPOLYLINE
  5
69
330
17
100
AcDbEntity
  8
ROADS
100
AcDbPolyline
 90
2
 70
0
 10
623082.6087533921
 20
4836635.955559435
 10
623080.6043353857
 20
4836652.841155935
  0
LWPOLYLINE
  5
6A
330
17
100
AcDbEntity
  8
ROADS
100
AcDbPolyline
 90
3
 70
0
 10
623213.7583910121
 20
4836636.39297089
 10
623144.7802079264
 20
4836733.60358983
 10
623113.8703636684
 20
4836881.391046188
  0
LWPOLYLINE
  5
6B
330
17
100
AcDbEntity
  8
ROADS
100
AcDbPolyline
 90
2
 70
0
 10
623505.585213251
 20
4836714.645140652
 10
623389.1772925634
 20
4836818.229524551
  0
LWPOLYLINE
  5
6C
330
17
100
AcDbEntity
  8
ROADS
100
AcDbPolyline
 90
2
 70
0
 10
623454.1707382076
 20
4836866.445692766
 10
623389.1772925634
 20
4836818.229524551
  0
LWPOLYLINE
  5
6D
330
17
100
AcDbEntity
  8
ROADS
100
AcDbPolyline
 90
2
 70
0
 10
623429.8144921024
 20
4836867.939353439
 10
623454.1707382076
 20
4836866.445692766
  0
LWPOLYLINE
  5
6E
330
17
100
AcDbEntity
  8
ROADS
100
AcDbPolyline
 90
2
 70
0
 10
623454.1707382076
 20
4836866.445692766
 10
623476.2512168156
 20
4836881.523724524
  0
LWPOLYLINE
  5
6F
330
17
100
AcDbEntity
  8
ROADS
100
AcDbPolyline
 90
2
 70
0
 10
623429.8144921024
 20
4836867.939353439
 10
623426.6564064955
 20
4836910.905429143
  0
LWPOLYLINE
  5
70
330
17
100
AcDbEntity
  8
ROADS
100
AcDbPolyline
 90
3
 70
0
 10
623387.7133875045
 20
4836917.986606052
 10
623395.7858297391
 20
4836891.937255166
 10
623429.8144921024
 20
4836867.939353439
  0
LWPOLYLINE
  5
71
330
17
100
AcDbEntity
  8
ROADS
100
AcDbPolyline
 90
2
 70
0
 10
623476.2512168156
 20
4836881.523724524
 10
623430.6948270801
 20
4836943.1900925245
  0
LWPOLYLINE
  5
72
330
17
100
AcDbEntity
  8
ROADS
100
AcDbPolyline
 90
2
 70
0
 10
624045.9990670488
 20
4836810.494314138
 10
624020.2961927855
 20
4836802.117114029
  0
LWPOLYLINE
  5
73
330
17
100
AcDbEntity
  8
ROADS
100
AcDbPolyline
 90
2
 70
0
 10
624242.0892495497
 20
4836817.36238667
 10
624201.7987545604
 20
4836804.109149093
  0
LWPOLYLINE
  5
74
330
17
100
AcDbEntity
  8
ROADS
100
AcDbPolyline
 90
2
 70
0
 10
624020.2961927855
 20
4836802.117114029
 10
624006.1594545535
 20
4836846.580826919
  0
LWPOLYLINE
  5
75
330
17
100
AcDbEntity
  8
ROADS
100
AcDbPolyline
 90
2
 70
0
 10
623963.3035656078
 20
4836830.329549979
 10
623936.1734939554
 20
4836819.387909558
  0
LWPOLYLINE
  5
76
330
17
100
AcDbEntity
  8
ROADS
100
AcDbPolyline
 90
2
 70
0
 10
624143.7575702623
 20
4836841.002599509
 10
624045.9990670488
 20
4836810.494314138
  0
LWPOLYLINE
  5
77
330
17
100
AcDbEntity
  8
ROADS
100
AcDbPolyline
 90
2
 70
0
 10
623963.3035656078
 20
4836830.329549979
 10
623980.5745259123
 20
4836833.3405028405
  0
LWPOLYLINE
  5
78
330
17
100
AcDbEntity
  8
ROADS
100
AcDbPolyline
 90
2
 70
0
 10
624006.1594545535
 20
4836846.580826919
 10
623963.3035656078
 20
4836830.329549979
  0
LWPOLYLINE
  5
79
330
17
100
AcDbEntity
  8
ROADS
100
AcDbPolyline
 90
2
 70
0
 10
624242.0892495497
 20
4836817.36238667
 10
624225.5945202402
 20
4836867.790807807
  0
LWPOLYLINE
  5
7A
330
17
100
AcDbEntity
  8
ROADS
100
AcDbPolyline
 90
2
 70
0
 10
624225.5945202402
 20
4836867.790807807
 10
624143.7575702623
 20
4836841.002599509
  0
LWPOLYLINE
  5
7B
330
17
100
AcDbEntity
  8
ROADS
100
AcDbPolyline
 90
2
 70
0
 10
624143.7575702623
 20
4836841.002599509
 10
624127.6563475518
 20
4836886.039835298
  0
LWPOLYLINE
  5
7C
330
17
100
AcDbEntity
  8
ROADS
100
AcDbPolyline
 90
2
 70
0
 10
624127.6563475518
 20
4836886.039835298
 10
624006.1594545535
 20
4836846.580826919
  0
LWPOLYLINE
  5
7D
330
17
100
AcDbEntity
  8
ROADS
100
AcDbPolyline
 90
2
 70
0
 10
624248.4329161105
 20
4836875.523187384
 10
624225.5945202402
 20
4836867.790807807
  0
LWPOLYLINE
  5
7E
330
17
100
AcDbEntity
  8
ROADS
100
AcDbPolyline
 90
2
 70
0
 10
624331.0280304638
 20
4836901.808094475
 10
624248.4329161105
 20
4836875.523187384
  0
LWPOLYLINE
  5
7F
330
17
100
AcDbEntity
  8
ROADS
100
AcDbPolyline
 90
3
 70
0
 10
623859.4276290762
 20
4836937.341325085
 10
623922.4124441418
 20
4836949.36787083
 10
623963.3035656078
 20
4836830.329549979
  0
LWPOLYLINE
  5
80
330
17
100
AcDbEntity
  8
ROADS
100
AcDbPolyline
 90
2
 70
0
 10
624006.1594545535
 20
4836846.580826919
 10
623977.9516711467
 20
4836935.413924718
  0
LWPOLYLINE
  5
81
330
17
100
AcDbEntity
  8
ROADS
100
AcDbPolyline
 90
2
 70
0
 10
624178.6658497261
 20
4836902.918096252
 10
624127.6563475518
 20
4836886.039835298
  0
LWPOLYLINE
  5
82
330
17
100
AcDbEntity
  8
ROADS
100
AcDbPolyline
 90
2
 70
0
 10
624248.4329161105
 20
4836875.523187384
 10
624233.1669433458
 20
4836919.995508956
  0
LWPOLYLINE
  5
83
330
17
100
AcDbEntity
  8
ROADS
100
AcDbPolyline
 90
2
 70
0
 10
624127.6563475518
 20
4836886.039835298
 10
624114.2483527521
 20
4836927.422073832
  0
LWPOLYLINE
  5
84
330
17
100
AcDbEntity
  8
ROADS
100
AcDbPolyline
 90
2
 70
0
 10
624233.1669433458
 20
4836919.995508956
 10
624178.6658497261
 20
4836902.918096252
  0
LWPOLYLINE
  5
85
330
17
100
AcDbEntity
  8
ROADS
100
AcDbPolyline
 90
2
 70
0
 10
624178.6658497261
 20
4836902.918096252
 10
624162.6277194838
 20
4836954.530822976
  0
LWPOLYLINE
  5
86
330
17
100
AcDbEntity
  8
ROADS
100
AcDbPolyline
 90
2
 70
0
 10
623540.0322901894
 20
4836742.887947685
 10
623567.1730426957
 20
4836758.463499784
  0
LWPOLYLINE
  5
87
330
17
100
AcDbEntity
  8
ROADS
100
AcDbPolyline
 90
2
 70
0
 10
623900.557301373
 20
4836762.885947973
 10
623858.7505149976
 20
4836749.038281423
  0
LWPOLYLINE
  5
88
330
17
100
AcDbEntity
  8
ROADS
100
AcDbPolyline
 90
2
 70
0
 10
623900.557301373
 20
4836762.885947973
 10
623887.1962010865
 20
4836816.60815421
  0
LWPOLYLINE
  5
89
330
17
100
AcDbEntity
  8
ROADS
100
AcDbPolyline
 90
2
 70
0
 10
623540.0322901894
 20
4836742.887947685
 10
623454.1707382076
 20
4836866.445692766
  0
LWPOLYLINE
  5
8A
330
17
100
AcDbEntity
  8
ROADS
100
AcDbPolyline
 90
2
 70
0
 10
623567.1730426957
 20
4836758.463499784
 10
623476.2512168156
 20
4836881.523724524
  0
LWPOLYLINE
  5
8B
330
17
100
AcDbEntity
  8
ROADS
100
AcDbPolyline
 90
2
 70
0
 10
623887.1962010865
 20
4836816.60815421
 10
623859.4276290762
 20
4836937.341325085
  0
LWPOLYLINE
  5
8C
330
17
100
AcDbEntity
  8
ROADS
100
AcDbPolyline
 90
2
 70
0
 10
623859.4276290762
 20
4836937.341325085
 10
623846.6536458988
 20
4836993.435258222
  0
LWPOLYLINE
  5
8D
330
17
100
AcDbEntity
  8
ROADS
100
AcDbPolyline
 90
3
 70
0
 10
623887.1962010865
 20
4836816.60815421
 10
623685.1659989472
 20
4836757.52898796
 10
623528.409731526
 20
4837224.952407978
  0
LWPOLYLINE
  5
8E
330
17
100
AcDbEntity
  8
ROADS
100
AcDbPolyline
 90
2
 70
0
 10
623846.6536458988
 20
4836993.435258222
 10
623840.5762666417
 20
4837021.310812963
  0
LWPOLYLINE
  5
8F
330
17
100
AcDbEntity
  8
ROADS
100
AcDbPolyline
 90
2
 70
0
 10
623840.5762666417
 20
4837021.310812963
 10
623726.6036221609
 20
4837037.886739612
  0
LWPOLYLINE
  5
90
330
17
100
AcDbEntity
  8
ROADS
100
AcDbPolyline
 90
2
 70
0
 10
623389.1772925634
 20
4836818.229524551
 10
623304.7184176844
 20
4837015.305764034
  0
LWPOLYLINE
  5
91
330
17
100
AcDbEntity
  8
ROADS
100
AcDbPolyline
 90
3
 70
0
 10
623113.8703636684
 20
4836881.391046188
 10
623114.1196665532
 20
4836932.032077638
 10
623162.806981753
 20
4836962.897005532
  0
LWPOLYLINE
  5
92
330
17
100
AcDbEntity
  8
ROADS
100
AcDbPolyline
 90
2
 70
0
 10
623430.6948270801
 20
4836943.1900925245
 10
623387.7133875045
 20
4836917.986606052
  0
LWPOLYLINE
  5
93
330
17
100
AcDbEntity
  8
ROADS
100
AcDbPolyline
 90
2
 70
0
 10
623369.1363566617
 20
4836974.34454029
 10
623387.7133875045
 20
4836917.986606052
  0
LWPOLYLINE
  5
94
330
17
100
AcDbEntity
  8
ROADS
100
AcDbPolyline
 90
3
 70
0
 10
623430.6948270801
 20
4836943.1900925245
 10
623407.0159327014
 20
4836973.257444506
 10
623369.1363566617
 20
4836974.34454029
  0
LWPOLYLINE
  5
95
330
17
100
AcDbEntity
  8
ROADS
100
AcDbPolyline
 90
3
 70
0
 10
623162.806981753
 20
4836962.897005532
 10
623223.9988638457
 20
4836972.972014726
 10
623304.7184176844
 20
4837015.305764034
  0
LWPOLYLINE
  5
96
330
17
100
AcDbEntity
  8
ROADS
100
AcDbPolyline
 90
2
 70
0
 10
623369.1363566617
 20
4836974.34454029
 10
623373.6173567119
 20
4837007.372239642
  0
LWPOLYLINE
  5
97
330
17
100
AcDbEntity
  8
ROADS
100
AcDbPolyline
 90
2
 70
0
 10
622979.1914715292
 20
4837077.060415709
 10
622933.374528206
 20
4837063.715255548
  0
LWPOLYLINE
  5
98
330
17
100
AcDbEntity
  8
ROADS
100
AcDbPolyline
 90
2
 70
0
 10
623036.5840093406
 20
4837092.284993127
 10
622979.1914715292
 20
4837077.060415709
  0
LWPOLYLINE
  5
99
330
17
100
AcDbEntity
  8
ROADS
100
AcDbPolyline
 90
2
 70
0
 10
623304.7184176844
 20
4837015.305764034
 10
623179.7170246091
 20
4837157.822534715
  0
LWPOLYLINE
  5
9A
330
17
100
AcDbEntity
  8
ROADS
100
AcDbPolyline
 90
2
 70
0
 10
624114.2483527521
 20
4836927.422073832
 10
623977.9516711467
 20
4836935.413924718
  0
LWPOLYLINE
  5
9B
330
17
100
AcDbEntity
  8
ROADS
100
AcDbPolyline
 90
4
 70
0
 10
624233.1669433458
 20
4836919.995508956
 10
624285.1439526075
 20
4836937.568311988
 10
624279.4175738087
 20
4836956.485773646
 10
624374.0040413409
 20
4836944.78310157
  0
LWPOLYLINE
  5
9C
330
17
100
AcDbEntity
  8
ROADS
100
AcDbPolyline
 90
2
 70
0
 10
624233.1669433458
 20
4836919.995508956
 10
624221.7584777705
 20
4836967.547743507
  0
LWPOLYLINE
  5
9D
330
17
100
AcDbEntity
  8
ROADS
100
AcDbPolyline
 90
2
 70
0
 10
624114.2483527521
 20
4836927.422073832
 10
624094.4843179572
 20
4836989.80248374
  0
LWPOLYLINE
  5
9E
330
17
100
AcDbEntity
  8
ROADS
100
AcDbPolyline
 90
2
 70
0
 10
623977.9516711467
 20
4836935.413924718
 10
623964.632504577
 20
4836985.377698468
  0
LWPOLYLINE
  5
9F
330
17
100
AcDbEntity
  8
ROADS
100
AcDbPolyline
 90
2
 70
0
 10
624221.7584777705
 20
4836967.547743507
 10
624180.553356426
 20
4836975.220059092
  0
LWPOLYLINE
  5
A0
330
17
100
AcDbEntity
  8
ROADS
100
AcDbPolyline
 90
2
 70
0
 10
624180.553356426
 20
4836975.220059092
 10
624094.4843179572
 20
4836989.80248374
  0
LWPOLYLINE
  5
A1
330
17
100
AcDbEntity
  8
ROADS
100
AcDbPolyline
 90
2
 70
0
 10
624094.4843179572
 20
4836989.80248374
 10
623964.632504577
 20
4836985.377698468
  0
LWPOLYLINE
  5
A2
330
17
100
AcDbEntity
  8
ROADS
100
AcDbPolyline
 90
3
 70
0
 10
623964.632504577
 20
4836985.377698468
 10
623892.6501108027
 20
4837000.381022002
 10
623846.6536458988
 20
4836993.435258222
  0
LWPOLYLINE
  5
A3
330
17
100
AcDbEntity
  8
ROADS
100
AcDbPolyline
 90
2
 70
0
 10
624094.4843179572
 20
4836989.80248374
 10
624065.5424331727
 20
4837079.797880242
  0
LWPOLYLINE
  5
A4
330
17
100
AcDbEntity
  8
ROADS
100
AcDbPolyline
 90
2
 70
0
 10
623726.6036221609
 20
4837037.886739612
 10
623713.4038946574
 20
4837038.7740984075
  0
LWPOLYLINE
  5
A5
330
17
100
AcDbEntity
  8
ROADS
100
AcDbPolyline
 90
2
 70
0
 10
623713.4038946574
 20
4837038.7740984075
 10
623678.7069417856
 20
4837041.105803044
  0
LWPOLYLINE
  5
A6
330
17
100
AcDbEntity
  8
ROADS
100
AcDbPolyline
 90
2
 70
0
 10
623840.5762666417
 20
4837021.310812963
 10
623824.030376115
 20
4837098.07060686
  0
LWPOLYLINE
  5
A7
330
17
100
AcDbEntity
  8
ROADS
100
AcDbPolyline
 90
2
 70
0
 10
623661.5831373464
 20
4837094.798921302
 10
623678.7069417856
 20
4837041.105803044
  0
LWPOLYLINE
  5
A8
330
17
100
AcDbEntity
  8
ROADS
100
AcDbPolyline
 90
2
 70
0
 10
623692.8164127481
 20
4837104.71622066
 10
623713.4038946574
 20
4837038.7740984075
  0
LWPOLYLINE
  5
A9
330
17
100
AcDbEntity
  8
ROADS
100
AcDbPolyline
 90
3
 70
0
 10
623723.8508305443
 20
4837114.569922596
 10
623744.412979995
 20
4837044.388117465
 10
623726.6036221609
 20
4837037.886739612
  0
LWPOLYLINE
  5
AA
330
17
100
AcDbEntity
  8
ROADS
100
AcDbPolyline
 90
2
 70
0
 10
623761.1937410367
 20
4837126.294799508
 10
623794.5587955706
 20
4837038.237572176
  0
LWPOLYLINE
  5
AB
330
17
100
AcDbEntity
  8
ROADS
100
AcDbPolyline
 90
3
 70
0
 10
623678.7069417856
 20
4837041.105803044
 10
623636.1036456971
 20
4837042.383484592
 10
623599.1912995081
 20
4837156.272848894
  0
LWPOLYLINE
  5
AC
330
17
100
AcDbEntity
  8
ROADS
100
AcDbPolyline
 90
2
 70
0
 10
623661.5831373464
 20
4837094.798921302
 10
623692.8164127481
 20
4837104.71622066
  0
LWPOLYLINE
  5
AD
330
17
100
AcDbEntity
  8
ROADS
100
AcDbPolyline
 90
2
 70
0
 10
623885.6357975834
 20
4837119.01770329
 10
623824.030376115
 20
4837098.07060686
  0
LWPOLYLINE
  5
AE
330
17
100
AcDbEntity
  8
ROADS
100
AcDbPolyline
 90
2
 70
0
 10
624180.553356426
 20
4836975.220059092
 10
624137.8879054694
 20
4837103.209329035
  0
LWPOLYLINE
  5
AF
330
17
100
AcDbEntity
  8
ROADS
100
AcDbPolyline
 90
3
 70
0
 10
624221.7584777705
 20
4836967.547743507
 10
624249.7892294518
 20
4836985.340555988
 10
624209.6852709919
 20
4837126.072847174
  0
LWPOLYLINE
  5
B0
330
17
100
AcDbEntity
  8
ROADS
100
AcDbPolyline
 90
3
 70
0
 10
624065.5424331727
 20
4837079.797880242
 10
623916.3421373678
 20
4837034.974575353
 10
623885.6357975834
 20
4837119.01770329
  0
LWPOLYLINE
  5
B1
330
17
100
AcDbEntity
  8
ROADS
100
AcDbPolyline
 90
2
 70
0
 10
624137.8879054694
 20
4837103.209329035
 10
624065.5424331727
 20
4837079.797880242
  0
LWPOLYLINE
  5
B2
330
17
100
AcDbEntity
  8
ROADS
100
AcDbPolyline
 90
3
 70
0
 10
624346.3820015033
 20
4837004.88324379
 10
624301.3776856927
 20
4836988.066551623
 10
624227.7288283949
 20
4837229.7276381515
  0
LWPOLYLINE
  5
B3
330
17
100
AcDbEntity
  8
ROADS
100
AcDbPolyline
 90
2
 70
0
 10
624209.6852709919
 20
4837126.072847174
 10
624137.8879054694
 20
4837103.209329035
  0
LWPOLYLINE
  5
B4
330
17
100
AcDbEntity
  8
ROADS
100
AcDbPolyline
 90
2
 70
0
 10
624065.5424331727
 20
4837079.797880242
 10
624037.8929638723
 20
4837168.058541265
  0
LWPOLYLINE
  5
B5
330
17
100
AcDbEntity
  8
ROADS
100
AcDbPolyline
 90
2
 70
0
 10
623973.1714128772
 20
4837147.274086239
 10
623885.6357975834
 20
4837119.01770329
  0
LWPOLYLINE
  5
B6
330
17
100
AcDbEntity
  8
ROADS
100
AcDbPolyline
 90
2
 70
0
 10
624037.8929638723
 20
4837168.058541265
 10
623973.1714128772
 20
4837147.274086239
  0
LWPOLYLINE
  5
B7
330
17
100
AcDbEntity
  8
ROADS
100
AcDbPolyline
 90
2
 70
0
 10
624209.6852709919
 20
4837126.072847174
 10
624181.5124703567
 20
4837214.736100483
  0
LWPOLYLINE
  5
B8
330
17
100
AcDbEntity
  8
ROADS
100
AcDbPolyline
 90
2
 70
0
 10
623692.8164127481
 20
4837104.71622066
 10
623723.8508305443
 20
4837114.569922596
  0
LWPOLYLINE
  5
B9
330
17
100
AcDbEntity
  8
ROADS
100
AcDbPolyline
 90
2
 70
0
 10
623649.266099155
 20
4837133.421180081
 10
623661.5831373464
 20
4837094.798921302
  0
LWPOLYLINE
  5
BA
330
17
100
AcDbEntity
  8
ROADS
100
AcDbPolyline
 90
2
 70
0
 10
623723.8508305443
 20
4837114.569922596
 10
623761.1937410367
 20
4837126.294799508
  0
LWPOLYLINE
  5
BB
330
17
100
AcDbEntity
  8
ROADS
100
AcDbPolyline
 90
2
 70
0
 10
623747.9084054204
 20
4837164.598542409
 10
623761.1937410367
 20
4837126.294799508
  0
LWPOLYLINE
  5
BC
330
17
100
AcDbEntity
  8
ROADS
100
AcDbPolyline
 90
2
 70
0
 10
623649.266099155
 20
4837133.421180081
 10
623747.9084054204
 20
4837164.598542409
  0
LWPOLYLINE
  5
BD
330
17
100
AcDbEntity
  8
ROADS
100
AcDbPolyline
 90
2
 70
0
 10
623636.9904688257
 20
4837171.910178034
 10
623649.266099155
 20
4837133.421180081
  0
LWPOLYLINE
  5
BE
330
17
100
AcDbEntity
  8
ROADS
100
AcDbPolyline
 90
2
 70
0
 10
623733.2586410808
 20
4837202.3135786615
 10
623747.9084054204
 20
4837164.598542409
  0
LWPOLYLINE
  5
BF
330
17
100
AcDbEntity
  8
ROADS
100
AcDbPolyline
 90
2
 70
0
 10
623636.9904688257
 20
4837171.910178034
 10
623733.2586410808
 20
4837202.3135786615
  0
LWPOLYLINE
  5
C0
330
17
100
AcDbEntity
  8
ROADS
100
AcDbPolyline
 90
2
 70
0
 10
623624.5939054599
 20
4837210.782006048
 10
623636.9904688257
 20
4837171.910178034
  0
LWPOLYLINE
  5
C1
330
17
100
AcDbEntity
  8
ROADS
100
AcDbPolyline
 90
2
 70
0
 10
623824.030376115
 20
4837098.07060686
 10
623745.1327698535
 20
4837298.893296711
  0
LWPOLYLINE
  5
C2
330
17
100
AcDbEntity
  8
ROADS
100
AcDbPolyline
 90
3
 70
0
 10
623624.5939054599
 20
4837210.782006048
 10
623717.891150495
 20
4837239.900626209
 10
623733.2586410808
 20
4837202.3135786615
  0
LWPOLYLINE
  5
C3
330
17
100
AcDbEntity
  8
ROADS
100
AcDbPolyline
 90
2
 70
0
 10
623885.6357975834
 20
4837119.01770329
 10
623820.0228528364
 20
4837324.540903618
  0
LWPOLYLINE
  5
C4
330
17
100
AcDbEntity
  8
ROADS
100
AcDbPolyline
 90
2
 70
0
 10
623611.9856732117
 20
4837251.183082071
 10
623624.5939054599
 20
4837210.782006048
  0
LWPOLYLINE
  5
C5
330
17
100
AcDbEntity
  8
ROADS
100
AcDbPolyline
 90
2
 70
0
 10
623611.9856732117
 20
4837251.183082071
 10
623528.409731526
 20
4837224.952407978
  0
LWPOLYLINE
  5
C6
330
17
100
AcDbEntity
  8
ROADS
100
AcDbPolyline
 90
2
 70
0
 10
623630.4803414136
 20
4837258.912925046
 10
623611.9856732117
 20
4837251.183082071
  0
LWPOLYLINE
  5
C7
330
17
100
AcDbEntity
  8
ROADS
100
AcDbPolyline
 90
2
 70
0
 10
623666.4024286857
 20
4837270.153096709
 10
623630.4803414136
 20
4837258.912925046
  0
LWPOLYLINE
  5
C8
330
17
100
AcDbEntity
  8
ROADS
100
AcDbPolyline
 90
2
 70
0
 10
623702.4204685527
 20
4837281.424007448
 10
623666.4024286857
 20
4837270.153096709
  0
LWPOLYLINE
  5
C9
330
17
100
AcDbEntity
  8
ROADS
100
AcDbPolyline
 90
2
 70
0
 10
623745.1327698535
 20
4837298.893296711
 10
623702.4204685527
 20
4837281.424007448
  0
LWPOLYLINE
  5
CA
330
17
100
AcDbEntity
  8
ROADS
100
AcDbPolyline
 90
2
 70
0
 10
623820.0228528364
 20
4837324.540903618
 10
623745.1327698535
 20
4837298.893296711
  0
LWPOLYLINE
  5
CB
330
17
100
AcDbEntity
  8
ROADS
100
AcDbPolyline
 90
3
 70
0
 10
623630.4803414136
 20
4837258.912925046
 10
623572.8496870677
 20
4837371.733545995
 10
623609.1690203598
 20
4837388.241682055
  0
LWPOLYLINE
  5
CC
330
17
100
AcDbEntity
  8
ROADS
100
AcDbPolyline
 90
2
 70
0
 10
624667.7965702572
 20
4837005.726612161
 10
624666.4673319962
 20
4837009.857484221
  0
LWPOLYLINE
  5
CD
330
17
100
AcDbEntity
  8
ROADS
100
AcDbPolyline
 90
2
 70
0
 10
624678.145681558
 20
4837013.638667504
 10
624666.4673319962
 20
4837009.857484221
  0
LWPOLYLINE
  5
CE
330
17
100
AcDbEntity
  8
ROADS
100
AcDbPolyline
 90
2
 70
0
 10
624438.5642559539
 20
4836937.397508603
 10
624374.9616204861
 20
4836916.118280901
  0
LWPOLYLINE
  5
CF
330
17
100
AcDbEntity
  8
ROADS
100
AcDbPolyline
 90
2
 70
0
 10
624374.9616204861
 20
4836916.118280901
 10
624374.0040413409
 20
4836944.78310157
  0
LWPOLYLINE
  5
D0
330
17
100
AcDbEntity
  8
ROADS
100
AcDbPolyline
 90
2
 70
0
 10
624465.7970410506
 20
4836946.172914896
 10
624438.5642559539
 20
4836937.397508603
  0
LWPOLYLINE
  5
D1
330
17
100
AcDbEntity
  8
ROADS
100
AcDbPolyline
 90
3
 70
0
 10
624438.5642559539
 20
4836937.397508603
 10
624433.0861009818
 20
4836950.441151674
 10
624374.0040413409
 20
4836944.78310157
  0
LWPOLYLINE
  5
D2
330
17
100
AcDbEntity
  8
ROADS
100
AcDbPolyline
 90
2
 70
0
 10
624374.0040413409
 20
4836944.78310157
 10
624359.9240420394
 20
4836962.3938440485
  0
LWPOLYLINE
  5
D3
330
17
100
AcDbEntity
  8
ROADS
100
AcDbPolyline
 90
2
 70
0
 10
624562.1570428037
 20
4836976.821495128
 10
624465.7970410506
 20
4836946.172914896
  0
LWPOLYLINE
  5
D4
330
17
100
AcDbEntity
  8
ROADS
100
AcDbPolyline
 90
2
 70
0
 10
624359.9240420394
 20
4836962.3938440485
 10
624346.3820015033
 20
4837004.88324379
  0
LWPOLYLINE
  5
D5
330
17
100
AcDbEntity
  8
ROADS
100
AcDbPolyline
 90
3
 70
0
 10
624359.9240420394
 20
4836962.3938440485
 10
624424.6680110254
 20
4836983.104687294
 10
624412.1676296183
 20
4837017.873515864
  0
LWPOLYLINE
  5
D6
330
17
100
AcDbEntity
  8
ROADS
100
AcDbPolyline
 90
2
 70
0
 10
624666.4673319962
 20
4837009.857484221
 10
624562.1570428037
 20
4836976.821495128
  0
LWPOLYLINE
  5
D7
330
17
100
AcDbEntity
  8
ROADS
100
AcDbPolyline
 90
2
 70
0
 10
624562.1570428037
 20
4836976.821495128
 10
624547.33458122
 20
4837025.800117727
  0
LWPOLYLINE
  5
D8
330
17
100
AcDbEntity
  8
ROADS
100
AcDbPolyline
 90
2
 70
0
 10
624600.8205043066
 20
4837042.942214656
 10
624547.33458122
 20
4837025.800117727
  0
LWPOLYLINE
  5
D9
330
17
100
AcDbEntity
  8
ROADS
100
AcDbPolyline
 90
2
 70
0
 10
624666.4673319962
 20
4837009.857484221
 10
624650.3784971345
 20
4837059.184240191
  0
LWPOLYLINE
  5
DA
330
17
100
AcDbEntity
  8
ROADS
100
AcDbPolyline
 90
2
 70
0
 10
624650.3784971345
 20
4837059.184240191
 10
624600.8205043066
 20
4837042.942214656
  0
LWPOLYLINE
  5
DB
330
17
100
AcDbEntity
  8
ROADS
100
AcDbPolyline
 90
2
 70
0
 10
624346.3820015033
 20
4837004.88324379
 10
624316.6295176179
 20
4837099.553298651
  0
LWPOLYLINE
  5
DC
330
17
100
AcDbEntity
  8
ROADS
100
AcDbPolyline
 90
4
 70
0
 10
624316.6295176179
 20
4837099.553298651
 10
624362.2224611811
 20
4837113.516497871
 10
624394.6468565308
 20
4837023.034971153
 10
624346.3820015033
 20
4837004.88324379
  0
LWPOLYLINE
  5
DD
330
17
100
AcDbEntity
  8
ROADS
100
AcDbPolyline
 90
2
 70
0
 10
624547.33458122
 20
4837025.800117727
 10
624505.5439279688
 20
4837153.18030818
  0
LWPOLYLINE
  5
DE
330
17
100
AcDbEntity
  8
ROADS
100
AcDbPolyline
 90
2
 70
0
 10
624600.8205043066
 20
4837042.942214656
 10
624546.1094401546
 20
4837210.508957067
  0
LWPOLYLINE
  5
DF
330
17
100
AcDbEntity
  8
ROADS
100
AcDbPolyline
 90
2
 70
0
 10
624456.8879381125
 20
4837137.937640047
 10
624401.7193926816
 20
4837120.384086032
  0
LWPOLYLINE
  5
E0
330
17
100
AcDbEntity
  8
ROADS
100
AcDbPolyline
 90
2
 70
0
 10
624650.3784971345
 20
4837059.184240191
 10
624595.2381634486
 20
4837226.487228046
  0
LWPOLYLINE
  5
E1
330
17
100
AcDbEntity
  8
ROADS
100
AcDbPolyline
 90
2
 70
0
 10
624505.5439279688
 20
4837153.18030818
 10
624456.8879381125
 20
4837137.937640047
  0
LWPOLYLINE
  5
E2
330
17
100
AcDbEntity
  8
ROADS
100
AcDbPolyline
 90
2
 70
0
 10
624873.0019674349
 20
4837207.4894841835
 10
624836.3792034332
 20
4837323.600175952
  0
LWPOLYLINE
  5
E3
330
17
100
AcDbEntity
  8
ROADS
100
AcDbPolyline
 90
2
 70
0
 10
624911.0131132324
 20
4837253.978775742
 10
624896.0222175743
 20
4837300.942481508
  0
LWPOLYLINE
  5
E4
330
17
100
AcDbEntity
  8
ROADS
100
AcDbPolyline
 90
2
 70
0
 10
624947.6759072117
 20
4837307.060371827
 10
624944.5989408069
 20
4837316.755790324
  0
LWPOLYLINE
  5
E5
330
17
100
AcDbEntity
  8
ROADS
100
AcDbPolyline
 90
2
 70
0
 10
624456.8879381125
 20
4837137.937640047
 10
624442.7268592722
 20
4837180.978880977
  0
LWPOLYLINE
  5
E6
330
17
100
AcDbEntity
  8
ROADS
100
AcDbPolyline
 90
2
 70
0
 10
624442.7268592722
 20
4837180.978880977
 10
624377.1726542679
 20
4837159.947329621
  0
LWPOLYLINE
  5
E7
330
17
100
AcDbEntity
  8
ROADS
100
AcDbPolyline
 90
2
 70
0
 10
624505.5439279688
 20
4837153.18030818
 10
624492.7418603069
 20
4837193.127963092
  0
LWPOLYLINE
  5
E8
330
17
100
AcDbEntity
  8
ROADS
100
AcDbPolyline
 90
3
 70
0
 10
624650.3784971345
 20
4837059.184240191
 10
624699.4956768746
 20
4837074.36424133
 10
624612.2239913056
 20
4837341.072609626
  0
LWPOLYLINE
  5
E9
330
17
100
AcDbEntity
  8
ROADS
100
AcDbPolyline
 90
2
 70
0
 10
624546.1094401546
 20
4837210.508957067
 10
624492.7418603069
 20
4837193.127963092
  0
LWPOLYLINE
  5
EA
330
17
100
AcDbEntity
  8
ROADS
100
AcDbPolyline
 90
2
 70
0
 10
624442.7268592722
 20
4837180.978880977
 10
624427.7089143995
 20
4837226.940780469
  0
LWPOLYLINE
  5
EB
330
17
100
AcDbEntity
  8
ROADS
100
AcDbPolyline
 90
2
 70
0
 10
624371.1202157745
 20
4837210.608597744
 10
624351.6308440826
 20
4837204.3778339615
  0
LWPOLYLINE
  5
EC
330
17
100
AcDbEntity
  8
ROADS
100
AcDbPolyline
 90
2
 70
0
 10
624492.7418603069
 20
4837193.127963092
 10
624476.4473484203
 20
4837242.766982629
  0
LWPOLYLINE
  5
ED
330
17
100
AcDbEntity
  8
ROADS
100
AcDbPolyline
 90
2
 70
0
 10
624595.2381634486
 20
4837226.487228046
 10
624546.1094401546
 20
4837210.508957067
  0
LWPOLYLINE
  5
EE
330
17
100
AcDbEntity
  8
ROADS
100
AcDbPolyline
 90
2
 70
0
 10
624427.7089143995
 20
4837226.940780469
 10
624371.1202157745
 20
4837210.608597744
  0
LWPOLYLINE
  5
EF
330
17
100
AcDbEntity
  8
ROADS
100
AcDbPolyline
 90
2
 70
0
 10
624371.1202157745
 20
4837210.608597744
 10
624355.6287599943
 20
4837257.647981164
  0
LWPOLYLINE
  5
F0
330
17
100
AcDbEntity
  8
ROADS
100
AcDbPolyline
 90
2
 70
0
 10
624476.4473484203
 20
4837242.766982629
 10
624427.7089143995
 20
4837226.940780469
  0
LWPOLYLINE
  5
F1
330
17
100
AcDbEntity
  8
ROADS
100
AcDbPolyline
 90
2
 70
0
 10
624595.2381634486
 20
4837226.487228046
 10
624579.0674832959
 20
4837275.969492074
  0
LWPOLYLINE
  5
F2
330
17
100
AcDbEntity
  8
ROADS
100
AcDbPolyline
 90
2
 70
0
 10
624579.0674832959
 20
4837275.969492074
 10
624476.4473484203
 20
4837242.766982629
  0
LWPOLYLINE
  5
F3
330
17
100
AcDbEntity
  8
ROADS
100
AcDbPolyline
 90
2
 70
0
 10
624405.1281656782
 20
4837273.587951648
 10
624355.6287599943
 20
4837257.647981164
  0
LWPOLYLINE
  5
F4
330
17
100
AcDbEntity
  8
ROADS
100
AcDbPolyline
 90
2
 70
0
 10
624476.4473484203
 20
4837242.766982629
 10
624460.4066474842
 20
4837291.808555065
  0
LWPOLYLINE
  5
F5
330
17
100
AcDbEntity
  8
ROADS
100
AcDbPolyline
 90
2
 70
0
 10
624460.4066474842
 20
4837291.808555065
 10
624405.1281656782
 20
4837273.587951648
  0
LWPOLYLINE
  5
F6
330
17
100
AcDbEntity
  8
ROADS
100
AcDbPolyline
 90
2
 70
0
 10
624514.7371477693
 20
4837309.140973545
 10
624460.4066474842
 20
4837291.808555065
  0
LWPOLYLINE
  5
F7
330
17
100
AcDbEntity
  8
ROADS
100
AcDbPolyline
 90
2
 70
0
 10
624579.0674832959
 20
4837275.969492074
 10
624562.908063532
 20
4837325.049933305
  0
LWPOLYLINE
  5
F8
330
17
100
AcDbEntity
  8
ROADS
100
AcDbPolyline
 90
2
 70
0
 10
624562.908063532
 20
4837325.049933305
 10
624514.7371477693
 20
4837309.140973545
  0
LWPOLYLINE
  5
F9
330
17
100
AcDbEntity
  8
ROADS
100
AcDbPolyline
 90
2
 70
0
 10
624944.5989408069
 20
4837316.755790324
 10
624896.0222175743
 20
4837300.942481508
  0
LWPOLYLINE
  5
FA
330
17
100
AcDbEntity
  8
ROADS
100
AcDbPolyline
 90
2
 70
0
 10
624896.0222175743
 20
4837300.942481508
 10
624883.8528773653
 20
4837339.080519992
  0
LWPOLYLINE
  5
FB
330
17
100
AcDbEntity
  8
ROADS
100
AcDbPolyline
 90
2
 70
0
 10
624956.7511418345
 20
4837320.738806079
 10
624944.5989408069
 20
4837316.755790324
  0
LWPOLYLINE
  5
FC
330
17
100
AcDbEntity
  8
ROADS
100
AcDbPolyline
 90
2
 70
0
 10
624883.8528773653
 20
4837339.080519992
 10
624836.3792034332
 20
4837323.600175952
  0
LWPOLYLINE
  5
FD
330
17
100
AcDbEntity
  8
ROADS
100
AcDbPolyline
 90
2
 70
0
 10
624883.8528773653
 20
4837339.080519992
 10
624880.6554362713
 20
4837349.104251274
  0
LWPOLYLINE
  5
FE
330
17
100
AcDbEntity
  8
ROADS
100
AcDbPolyline
 90
2
 70
0
 10
624982.8614467905
 20
4837363.610438585
 10
624978.1368645085
 20
4837378.686703855
  0
LWPOLYLINE
  5
FF
330
17
100
AcDbEntity
  8
ROADS
100
AcDbPolyline
 90
2
 70
0
 10
624978.1368645085
 20
4837378.686703855
 10
624880.6554362713
 20
4837349.104251274
  0
LWPOLYLINE
  5
100
330
17
100
AcDbEntity
  8
ROADS
100
AcDbPolyline
 90
2
 70
0
 10
624880.6554362713
 20
4837349.104251274
 10
624867.0890327797
 20
4837392.439308486
  0
LWPOLYLINE
  5
101
330
17
100
AcDbEntity
  8
ROADS
100
AcDbPolyline
 90
2
 70
0
 10
624914.8167049586
 20
4837408.418284413
 10
624867.0890327797
 20
4837392.439308486
  0
LWPOLYLINE
  5
102
330
17
100
AcDbEntity
  8
ROADS
100
AcDbPolyline
 90
2
 70
0
 10
624978.1368645085
 20
4837378.686703855
 10
624963.3924889385
 20
4837424.5046078125
  0
LWPOLYLINE
  5
103
330
17
100
AcDbEntity
  8
ROADS
100
AcDbPolyline
 90
2
 70
0
 10
623302.4059789407
 20
4836404.916195794
 10
623250.6764848523
 20
4836555.025421034
  0
LWPOLYLINE
  5
104
330
17
100
AcDbEntity
  8
ROADS
100
AcDbPolyline
 90
2
 70
0
 10
622922.0053905239
 20
4836453.419955051
 10
622911.0906805054
 20
4836486.109870743
  0
LWPOLYLINE
  5
105
330
17
100
AcDbEntity
  8
ROADS
100
AcDbPolyline
 90
2
 70
0
 10
623250.6764848523
 20
4836555.025421034
 10
622934.1006126106
 20
4836449.294003189
  0
LWPOLYLINE
  5
106
330
17
100
AcDbEntity
  8
ROADS
100
AcDbPolyline
 90
3
 70
0
 10
622911.0906805054
 20
4836486.109870743
 10
623185.7737491558
 20
4836576.012944359
 10
623175.5157700834
 20
4836607.701050288
  0
LWPOLYLINE
  5
107
330
17
100
AcDbEntity
  8
ROADS
100
AcDbPolyline
 90
2
 70
0
 10
623079.8100039875
 20
4836576.868016269
 10
622900.3345923248
 20
4836518.328972901
  0
LWPOLYLINE
  5
108
330
17
100
AcDbEntity
  8
ROADS
100
AcDbPolyline
 90
2
 70
0
 10
622862.7782535213
 20
4836470.226111225
 10
622911.0906805054
 20
4836486.109870743
  0
LWPOLYLINE
  5
109
330
17
100
AcDbEntity
  8
ROADS
100
AcDbPolyline
 90
2
 70
0
 10
622900.3345923248
 20
4836518.328972901
 10
622805.7157203564
 20
4836487.546882419
  0
LWPOLYLINE
  5
10A
330
17
100
AcDbEntity
  8
ROADS
100
AcDbPolyline
 90
2
 70
0
 10
622911.0906805054
 20
4836486.109870743
 10
622900.3345923248
 20
4836518.328972901
  0
LWPOLYLINE
  5
10B
330
17
100
AcDbEntity
  8
ROADS
100
AcDbPolyline
 90
2
 70
0
 10
622646.096874795
 20
4836554.506904864
 10
622668.112829145
 20
4836577.492654096
  0
LWPOLYLINE
  5
10C
330
17
100
AcDbEntity
  8
ROADS
100
AcDbPolyline
 90
3
 70
0
 10
622388.3756992378
 20
4836679.061409235
 10
622407.7815615663
 20
4836687.185063878
 10
622413.8197128725
 20
4836668.488213674
  0
LWPOLYLINE
  5
10D
330
17
100
AcDbEntity
  8
ROADS
100
AcDbPolyline
 90
3
 70
0
 10
622439.21405811
 20
4836771.800464056
 10
622431.8272966975
 20
4836753.794036062
 10
622320.5112514828
 20
4836713.261880425
  0
LWPOLYLINE
  5
10E
330
17
100
AcDbEntity
  8
ROADS
100
AcDbPolyline
 90
2
 70
0
 10
622751.1188430827
 20
4836506.610324888
 10
622889.1171983078
 20
4836551.5037790015
  0
LWPOLYLINE
  5
10F
330
17
100
AcDbEntity
  8
ROADS
100
AcDbPolyline
 90
2
 70
0
 10
622900.3345923248
 20
4836518.328972901
 10
622889.1171983078
 20
4836551.5037790015
  0
LWPOLYLINE
  5
110
330
17
100
AcDbEntity
  8
ROADS
100
AcDbPolyline
 90
2
 70
0
 10
622680.820877205
 20
4836536.064499166
 10
622668.112829145
 20
4836577.492654096
  0
LWPOLYLINE
  5
111
330
17
100
AcDbEntity
  8
ROADS
100
AcDbPolyline
 90
2
 70
0
 10
622877.8776502776
 20
4836584.742185495
 10
622685.1285958715
 20
4836533.848996331
  0
LWPOLYLINE
  5
112
330
17
100
AcDbEntity
  8
ROADS
100
AcDbPolyline
 90
2
 70
0
 10
622889.1171983078
 20
4836551.5037790015
 10
622877.8776502776
 20
4836584.742185495
  0
LWPOLYLINE
  5
113
330
17
100
AcDbEntity
  8
ROADS
100
AcDbPolyline
 90
4
 70
0
 10
622668.112829145
 20
4836577.492654096
 10
622772.0807526218
 20
4836589.040437007
 10
623042.5126428625
 20
4836677.053597827
 10
623056.5818297006
 20
4836641.576231086
  0
LWPOLYLINE
  5
114
330
17
100
AcDbEntity
  8
ROADS
100
AcDbPolyline
 90
3
 70
0
 10
622668.112829145
 20
4836577.492654096
 10
622708.052620821
 20
4836670.007651962
 10
622690.184458629
 20
4836755.8007315975
  0
LWPOLYLINE
  5
115
330
17
100
AcDbEntity
  8
ROADS
100
AcDbPolyline
 90
3
 70
0
 10
622308.1982342813
 20
4836719.8381070485
 10
622330.1882380719
 20
4836727.591959667
 10
622402.1237449219
 20
4836795.610932968
  0
LWPOLYLINE
  5
116
330
17
100
AcDbEntity
  8
ROADS
100
AcDbPolyline
 90
3
 70
0
 10
622439.21405811
 20
4836771.800464056
 10
622410.2784647073
 20
4836778.448568014
 10
622402.1237449219
 20
4836795.610932968
  0
LWPOLYLINE
  5
117
330
17
100
AcDbEntity
  8
ROADS
100
AcDbPolyline
 90
2
 70
0
 10
622402.1237449219
 20
4836795.610932968
 10
622390.6407247281
 20
4836836.893264247
  0
LWPOLYLINE
  5
118
330
17
100
AcDbEntity
  8
ROADS
100
AcDbPolyline
 90
3
 70
0
 10
622155.5296380984
 20
4836825.973299385
 10
622224.6970294984
 20
4836845.732054482
 10
622258.3615354417
 20
4836842.252619243
  0
LWPOLYLINE
  5
119
330
17
100
AcDbEntity
  8
ROADS
100
AcDbPolyline
 90
2
 70
0
 10
622390.6407247281
 20
4836836.893264247
 10
622369.4514535385
 20
4836908.303515807
  0
LWPOLYLINE
  5
11A
330
17
100
AcDbEntity
  8
ROADS
100
AcDbPolyline
 90
2
 70
0
 10
622415.6876609814
 20
4836923.013780151
 10
622426.6196039908
 20
4836890.41739882
  0
LWPOLYLINE
  5
11B
330
17
100
AcDbEntity
  8
ROADS
100
AcDbPolyline
 90
2
 70
0
 10
622369.4514535385
 20
4836908.303515807
 10
622415.6876609814
 20
4836923.013780151
  0
LWPOLYLINE
  5
11C
330
17
100
AcDbEntity
  8
ROADS
100
AcDbPolyline
 90
2
 70
0
 10
622369.4514535385
 20
4836908.303515807
 10
622351.5704795644
 20
4836940.219702771
  0
LWPOLYLINE
  5
11D
330
17
100
AcDbEntity
  8
ROADS
100
AcDbPolyline
 90
2
 70
0
 10
622415.6876609814
 20
4836923.013780151
 10
622368.7865978054
 20
4837059.322684719
  0
LWPOLYLINE
  5
11E
330
17
100
AcDbEntity
  8
ROADS
100
AcDbPolyline
 90
2
 70
0
 10
622418.7357599861
 20
4837073.989608839
 10
622368.7865978054
 20
4837059.322684719
  0
LWPOLYLINE
  5
11F
330
17
100
AcDbEntity
  8
ROADS
100
AcDbPolyline
 90
2
 70
0
 10
622690.184458629
 20
4836755.8007315975
 10
622439.21405811
 20
4836771.800464056
  0
LWPOLYLINE
  5
120
330
17
100
AcDbEntity
  8
ROADS
100
AcDbPolyline
 90
2
 70
0
 10
623113.8703636684
 20
4836881.391046188
 10
622690.184458629
 20
4836755.8007315975
  0
LWPOLYLINE
  5
121
330
17
100
AcDbEntity
  8
ROADS
100
AcDbPolyline
 90
3
 70
0
 10
622390.6407247281
 20
4836836.893264247
 10
622513.4877081503
 20
4836857.90261612
 10
622541.4889052702
 20
4836924.495145573
  0
LWPOLYLINE
  5
122
330
17
100
AcDbEntity
  8
ROADS
100
AcDbPolyline
 90
5
 70
0
 10
622402.1237449219
 20
4836795.610932968
 10
622571.5122135472
 20
4836829.437457242
 10
623022.425603936
 20
4836981.112957605
 10
623125.9143929889
 20
4836999.658727516
 10
623162.806981753
 20
4836962.897005532
  0
LWPOLYLINE
  5
123
330
17
100
AcDbEntity
  8
ROADS
100
AcDbPolyline
 90
2
 70
0
 10
622712.0141119394
 20
4836998.436254028
 10
622541.4889052702
 20
4836924.495145573
  0
LWPOLYLINE
  5
124
330
17
100
AcDbEntity
  8
ROADS
100
AcDbPolyline
 90
2
 70
0
 10
622541.4889052702
 20
4836924.495145573
 10
622491.7216956831
 20
4837057.872632499
  0
LWPOLYLINE
  5
125
330
17
100
AcDbEntity
  8
ROADS
100
AcDbPolyline
 90
2
 70
0
 10
622839.0360029375
 20
4837034.675923344
 10
622712.0141119394
 20
4836998.436254028
  0
LWPOLYLINE
  5
126
330
17
100
AcDbEntity
  8
ROADS
100
AcDbPolyline
 90
2
 70
0
 10
622712.0141119394
 20
4836998.436254028
 10
622686.0313485559
 20
4837066.705732011
  0
LWPOLYLINE
  5
127
330
17
100
AcDbEntity
  8
ROADS
100
AcDbPolyline
 90
2
 70
0
 10
622933.374528206
 20
4837063.715255548
 10
622839.0360029375
 20
4837034.675923344
  0
LWPOLYLINE
  5
128
330
17
100
AcDbEntity
  8
ROADS
100
AcDbPolyline
 90
2
 70
0
 10
622824.9915794071
 20
4837088.91161781
 10
622839.0360029375
 20
4837034.675923344
  0
LWPOLYLINE
  5
129
330
17
100
AcDbEntity
  8
ROADS
100
AcDbPolyline
 90
3
 70
0
 10
622839.0360029375
 20
4837034.675923344
 10
622806.463277984
 20
4837101.763200759
 10
622780.2982343801
 20
4837115.464728593
  0
LWPOLYLINE
  5
12A
330
17
100
AcDbEntity
  8
ROADS
100
AcDbPolyline
 90
2
 70
0
 10
622686.0313485559
 20
4837066.705732011
 10
622718.4542128405
 20
4837093.068313032
  0
LWPOLYLINE
  5
12B
330
17
100
AcDbEntity
  8
ROADS
100
AcDbPolyline
 90
2
 70
0
 10
622933.374528206
 20
4837063.715255548
 10
622890.9505525193
 20
4837107.507263048
  0
LWPOLYLINE
  5
12C
330
17
100
AcDbEntity
  8
ROADS
100
AcDbPolyline
 90
2
 70
0
 10
622664.8457584011
 20
4837122.369335785
 10
622491.7216956831
 20
4837057.872632499
  0
LWPOLYLINE
  5
12D
330
17
100
AcDbEntity
  8
ROADS
100
AcDbPolyline
 90
2
 70
0
 10
622686.0313485559
 20
4837066.705732011
 10
622664.8457584011
 20
4837122.369335785
  0
LWPOLYLINE
  5
12E
330
17
100
AcDbEntity
  8
ROADS
100
AcDbPolyline
 90
2
 70
0
 10
622824.9915794071
 20
4837088.91161781
 10
622890.9505525193
 20
4837107.507263048
  0
LWPOLYLINE
  5
12F
330
17
100
AcDbEntity
  8
ROADS
100
AcDbPolyline
 90
2
 70
0
 10
622718.4542128405
 20
4837093.068313032
 10
622769.7070055676
 20
4837112.186047324
  0
LWPOLYLINE
  5
130
330
17
100
AcDbEntity
  8
ROADS
100
AcDbPolyline
 90
2
 70
0
 10
622718.4542128405
 20
4837093.068313032
 10
622664.8457584011
 20
4837122.369335785
  0
LWPOLYLINE
  5
131
330
17
100
AcDbEntity
  8
ROADS
100
AcDbPolyline
 90
3
 70
0
 10
622491.7216956831
 20
4837057.872632499
 10
622460.8684113887
 20
4837150.822169346
 10
622475.9684414982
 20
4837159.542643164
  0
LWPOLYLINE
  5
132
330
17
100
AcDbEntity
  8
ROADS
100
AcDbPolyline
 90
2
 70
0
 10
622769.7070055676
 20
4837112.186047324
 10
622780.2982343801
 20
4837115.464728593
  0
LWPOLYLINE
  5
133
330
17
100
AcDbEntity
  8
ROADS
100
AcDbPolyline
 90
2
 70
0
 10
622222.1862132417
 20
4837254.721951331
 10
621879.2206569539
 20
4837135.508193747
  0
LWPOLYLINE
  5
134
330
17
100
AcDbEntity
  8
ROADS
100
AcDbPolyline
 90
2
 70
0
 10
622769.7070055676
 20
4837112.186047324
 10
622775.2975577235
 20
4837128.981961451
  0
LWPOLYLINE
  5
135
330
17
100
AcDbEntity
  8
ROADS
100
AcDbPolyline
 90
2
 70
0
 10
622780.2982343801
 20
4837115.464728593
 10
622775.2975577235
 20
4837128.981961451
  0
LWPOLYLINE
  5
136
330
17
100
AcDbEntity
  8
ROADS
100
AcDbPolyline
 90
2
 70
0
 10
622771.5116059444
 20
4837158.222927571
 10
622824.9915794071
 20
4837088.91161781
  0
LWPOLYLINE
  5
137
330
17
100
AcDbEntity
  8
ROADS
100
AcDbPolyline
 90
2
 70
0
 10
622771.5116059444
 20
4837158.222927571
 10
622664.8457584011
 20
4837122.369335785
  0
LWPOLYLINE
  5
138
330
17
100
AcDbEntity
  8
ROADS
100
AcDbPolyline
 90
2
 70
0
 10
622775.2975577235
 20
4837128.981961451
 10
622771.5116059444
 20
4837158.222927571
  0
LWPOLYLINE
  5
139
330
17
100
AcDbEntity
  8
ROADS
100
AcDbPolyline
 90
2
 70
0
 10
622664.8457584011
 20
4837122.369335785
 10
622632.1391377731
 20
4837213.229299573
  0
LWPOLYLINE
  5
13A
330
17
100
AcDbEntity
  8
ROADS
100
AcDbPolyline
 90
2
 70
0
 10
622979.1914715292
 20
4837077.060415709
 10
622800.6285698486
 20
4837271.501994338
  0
LWPOLYLINE
  5
13B
330
17
100
AcDbEntity
  8
ROADS
100
AcDbPolyline
 90
2
 70
0
 10
622890.9505525193
 20
4837107.507263048
 10
622750.5673047827
 20
4837254.459882024
  0
LWPOLYLINE
  5
13C
330
17
100
AcDbEntity
  8
ROADS
100
AcDbPolyline
 90
2
 70
0
 10
622632.1391377731
 20
4837213.229299573
 10
622475.9684414982
 20
4837159.542643164
  0
LWPOLYLINE
  5
13D
330
17
100
AcDbEntity
  8
ROADS
100
AcDbPolyline
 90
2
 70
0
 10
622703.6638035137
 20
4837237.660889487
 10
622771.5116059444
 20
4837158.222927571
  0
LWPOLYLINE
  5
13E
330
17
100
AcDbEntity
  8
ROADS
100
AcDbPolyline
 90
3
 70
0
 10
621806.2620370375
 20
4837380.9024038855
 10
621831.5082020999
 20
4837301.217283039
 10
621794.449333475
 20
4837287.598321818
  0
LWPOLYLINE
  5
13F
330
17
100
AcDbEntity
  8
ROADS
100
AcDbPolyline
 90
2
 70
0
 10
621763.5691907444
 20
4837366.270648316
 10
621806.2620370375
 20
4837380.9024038855
  0
LWPOLYLINE
  5
140
330
17
100
AcDbEntity
  8
ROADS
100
AcDbPolyline
 90
2
 70
0
 10
621943.9478814435
 20
4837460.116966283
 10
621898.6232435177
 20
4837446.930702458
  0
LWPOLYLINE
  5
141
330
17
100
AcDbEntity
  8
ROADS
100
AcDbPolyline
 90
2
 70
0
 10
621746.9582476286
 20
4837569.137583258
 10
621806.2620370375
 20
4837380.9024038855
  0
LWPOLYLINE
  5
142
330
17
100
AcDbEntity
  8
ROADS
100
AcDbPolyline
 90
2
 70
0
 10
621746.9582476286
 20
4837569.137583258
 10
621716.7398951625
 20
4837559.853424404
  0
LWPOLYLINE
  5
143
330
17
100
AcDbEntity
  8
ROADS
100
AcDbPolyline
 90
2
 70
0
 10
621848.685579055
 20
4837494.450818406
 10
621759.5824440774
 20
4837776.1843756335
  0
LWPOLYLINE
  5
144
330
17
100
AcDbEntity
  8
ROADS
100
AcDbPolyline
 90
2
 70
0
 10
621707.0459645002
 20
4837689.173221541
 10
621746.9582476286
 20
4837569.137583258
  0
LWPOLYLINE
  5
145
330
17
100
AcDbEntity
  8
ROADS
100
AcDbPolyline
 90
2
 70
0
 10
622475.9684414982
 20
4837159.542643164
 10
622445.7590113067
 20
4837248.463617061
  0
LWPOLYLINE
  5
146
330
17
100
AcDbEntity
  8
ROADS
100
AcDbPolyline
 90
2
 70
0
 10
622703.6638035137
 20
4837237.660889487
 10
622632.1391377731
 20
4837213.229299573
  0
LWPOLYLINE
  5
147
330
17
100
AcDbEntity
  8
ROADS
100
AcDbPolyline
 90
2
 70
0
 10
622750.5673047827
 20
4837254.459882024
 10
622703.6638035137
 20
4837237.660889487
  0
LWPOLYLINE
  5
148
330
17
100
AcDbEntity
  8
ROADS
100
AcDbPolyline
 90
2
 70
0
 10
622459.3090197102
 20
4837253.088869046
 10
622445.7590113067
 20
4837248.463617061
  0
LWPOLYLINE
  5
149
330
17
100
AcDbEntity
  8
ROADS
100
AcDbPolyline
 90
2
 70
0
 10
622690.0974488031
 20
4837278.952570341
 10
622703.6638035137
 20
4837237.660889487
  0
LWPOLYLINE
  5
14A
330
17
100
AcDbEntity
  8
ROADS
100
AcDbPolyline
 90
2
 70
0
 10
622459.3090197102
 20
4837253.088869046
 10
622454.6069395067
 20
4837267.624535381
  0
LWPOLYLINE
  5
14B
330
17
100
AcDbEntity
  8
ROADS
100
AcDbPolyline
 90
2
 70
0
 10
622507.699497924
 20
4837270.00174731
 10
622459.3090197102
 20
4837253.088869046
  0
LWPOLYLINE
  5
14C
330
17
100
AcDbEntity
  8
ROADS
100
AcDbPolyline
 90
2
 70
0
 10
622800.6285698486
 20
4837271.501994338
 10
622750.5673047827
 20
4837254.459882024
  0
LWPOLYLINE
  5
14D
330
17
100
AcDbEntity
  8
ROADS
100
AcDbPolyline
 90
2
 70
0
 10
622454.6069395067
 20
4837267.624535381
 10
622470.470843947
 20
4837275.487453411
  0
LWPOLYLINE
  5
14E
330
17
100
AcDbEntity
  8
ROADS
100
AcDbPolyline
 90
2
 70
0
 10
622454.6069395067
 20
4837267.624535381
 10
622454.775278077
 20
4837294.53686832
  0
LWPOLYLINE
  5
14F
330
17
100
AcDbEntity
  8
ROADS
100
AcDbPolyline
 90
2
 70
0
 10
623085.4690241561
 20
4837106.243671373
 10
623036.5840093406
 20
4837092.284993127
  0
LWPOLYLINE
  5
150
330
17
100
AcDbEntity
  8
ROADS
100
AcDbPolyline
 90
2
 70
0
 10
623142.0615410323
 20
4837125.117973724
 10
623085.4690241561
 20
4837106.243671373
  0
LWPOLYLINE
  5
151
330
17
100
AcDbEntity
  8
ROADS
100
AcDbPolyline
 90
2
 70
0
 10
623179.7170246091
 20
4837157.822534715
 10
623142.0615410323
 20
4837125.117973724
  0
LWPOLYLINE
  5
152
330
17
100
AcDbEntity
  8
ROADS
100
AcDbPolyline
 90
2
 70
0
 10
623036.5840093406
 20
4837092.284993127
 10
622856.957730238
 20
4837291.774615748
  0
LWPOLYLINE
  5
153
330
17
100
AcDbEntity
  8
ROADS
100
AcDbPolyline
 90
2
 70
0
 10
623085.4690241561
 20
4837106.243671373
 10
622900.9437212356
 20
4837306.714772679
  0
LWPOLYLINE
  5
154
330
17
100
AcDbEntity
  8
ROADS
100
AcDbPolyline
 90
2
 70
0
 10
623142.0615410323
 20
4837125.117973724
 10
622949.4264242533
 20
4837323.89536078
  0
LWPOLYLINE
  5
155
330
17
100
AcDbEntity
  8
ROADS
100
AcDbPolyline
 90
2
 70
0
 10
623179.7170246091
 20
4837157.822534715
 10
622998.1625258779
 20
4837341.165540548
  0
LWPOLYLINE
  5
156
330
17
100
AcDbEntity
  8
ROADS
100
AcDbPolyline
 90
2
 70
0
 10
622949.4264242533
 20
4837323.89536078
 10
622900.9437212356
 20
4837306.714772679
  0
LWPOLYLINE
  5
157
330
17
100
AcDbEntity
  8
ROADS
100
AcDbPolyline
 90
2
 70
0
 10
622998.1625258779
 20
4837341.165540548
 10
622949.4264242533
 20
4837323.89536078
  0
LWPOLYLINE
  5
158
330
17
100
AcDbEntity
  8
ROADS
100
AcDbPolyline
 90
2
 70
0
 10
622998.1625258779
 20
4837341.165540548
 10
622940.6526860103
 20
4837418.306358025
  0
LWPOLYLINE
  5
159
330
17
100
AcDbEntity
  8
ROADS
100
AcDbPolyline
 90
2
 70
0
 10
622287.9726862358
 20
4837313.982405836
 10
622368.7865978054
 20
4837059.322684719
  0
LWPOLYLINE
  5
15A
330
17
100
AcDbEntity
  8
ROADS
100
AcDbPolyline
 90
3
 70
0
 10
622445.7590113067
 20
4837248.463617061
 10
622432.6211368716
 20
4837265.785867797
 10
622348.9209810088
 20
4837238.642987302
  0
LWPOLYLINE
  5
15B
330
17
100
AcDbEntity
  8
ROADS
100
AcDbPolyline
 90
2
 70
0
 10
622287.9726862358
 20
4837313.982405836
 10
622222.1862132417
 20
4837254.721951331
  0
LWPOLYLINE
  5
15C
330
17
100
AcDbEntity
  8
ROADS
100
AcDbPolyline
 90
2
 70
0
 10
622255.541623291
 20
4837322.85935471
 10
622222.1862132417
 20
4837254.721951331
  0
LWPOLYLINE
  5
15D
330
17
100
AcDbEntity
  8
ROADS
100
AcDbPolyline
 90
2
 70
0
 10
622287.9726862358
 20
4837313.982405836
 10
622255.541623291
 20
4837322.85935471
  0
LWPOLYLINE
  5
15E
330
17
100
AcDbEntity
  8
ROADS
100
AcDbPolyline
 90
2
 70
0
 10
622168.3626509942
 20
4837415.697207982
 10
622222.1862132417
 20
4837254.721951331
  0
LWPOLYLINE
  5
15F
330
17
100
AcDbEntity
  8
ROADS
100
AcDbPolyline
 90
3
 70
0
 10
622142.223358366
 20
4837409.286205788
 10
621984.0752363714
 20
4837357.401856448
 10
621943.9478814435
 20
4837460.116966283
  0
LWPOLYLINE
  5
160
330
17
100
AcDbEntity
  8
ROADS
100
AcDbPolyline
 90
2
 70
0
 10
622168.3626509942
 20
4837415.697207982
 10
622142.223358366
 20
4837409.286205788
  0
LWPOLYLINE
  5
161
330
17
100
AcDbEntity
  8
ROADS
100
AcDbPolyline
 90
2
 70
0
 10
622349.8985677466
 20
4837520.025054073
 10
622255.541623291
 20
4837322.85935471
  0
LWPOLYLINE
  5
162
330
17
100
AcDbEntity
  8
ROADS
100
AcDbPolyline
 90
2
 70
0
 10
622121.7188270855
 20
4837469.647234986
 10
622142.223358366
 20
4837409.286205788
  0
LWPOLYLINE
  5
163
330
17
100
AcDbEntity
  8
ROADS
100
AcDbPolyline
 90
2
 70
0
 10
622856.957730238
 20
4837291.774615748
 10
622800.6285698486
 20
4837271.501994338
  0
LWPOLYLINE
  5
164
330
17
100
AcDbEntity
  8
ROADS
100
AcDbPolyline
 90
2
 70
0
 10
622690.0974488031
 20
4837278.952570341
 10
622717.7563273625
 20
4837288.379198266
  0
LWPOLYLINE
  5
165
330
17
100
AcDbEntity
  8
ROADS
100
AcDbPolyline
 90
2
 70
0
 10
622470.470843947
 20
4837275.487453411
 10
622454.775278077
 20
4837294.53686832
  0
LWPOLYLINE
  5
166
330
17
100
AcDbEntity
  8
ROADS
100
AcDbPolyline
 90
2
 70
0
 10
622495.609749503
 20
4837307.171907193
 10
622507.699497924
 20
4837270.00174731
  0
LWPOLYLINE
  5
167
330
17
100
AcDbEntity
  8
ROADS
100
AcDbPolyline
 90
2
 70
0
 10
622470.470843947
 20
4837275.487453411
 10
622495.609749503
 20
4837307.171907193
  0
LWPOLYLINE
  5
168
330
17
100
AcDbEntity
  8
ROADS
100
AcDbPolyline
 90
2
 70
0
 10
622673.7719316643
 20
4837325.996631536
 10
622507.699497924
 20
4837270.00174731
  0
LWPOLYLINE
  5
169
330
17
100
AcDbEntity
  8
ROADS
100
AcDbPolyline
 90
2
 70
0
 10
622900.9437212356
 20
4837306.714772679
 10
622856.957730238
 20
4837291.774615748
  0
LWPOLYLINE
  5
16A
330
17
100
AcDbEntity
  8
ROADS
100
AcDbPolyline
 90
2
 70
0
 10
622673.7719316643
 20
4837325.996631536
 10
622690.0974488031
 20
4837278.952570341
  0
LWPOLYLINE
  5
16B
330
17
100
AcDbEntity
  8
ROADS
100
AcDbPolyline
 90
2
 70
0
 10
622454.775278077
 20
4837294.53686832
 10
622473.4269556409
 20
4837323.74655737
  0
LWPOLYLINE
  5
16C
330
17
100
AcDbEntity
  8
ROADS
100
AcDbPolyline
 90
3
 70
0
 10
622592.1890947223
 20
4837361.879050351
 10
622489.2054275281
 20
4837326.85903892
 10
622495.609749503
 20
4837307.171907193
  0
LWPOLYLINE
  5
16D
330
17
100
AcDbEntity
  8
ROADS
100
AcDbPolyline
 90
2
 70
0
 10
622900.1351314231
 20
4837404.180947542
 10
622673.7719316643
 20
4837325.996631536
  0
LWPOLYLINE
  5
16E
330
17
100
AcDbEntity
  8
ROADS
100
AcDbPolyline
 90
2
 70
0
 10
622592.1890947223
 20
4837361.879050351
 10
622482.469324733
 20
4837369.924291659
  0
LWPOLYLINE
  5
16F
330
17
100
AcDbEntity
  8
ROADS
100
AcDbPolyline
 90
3
 70
0
 10
622704.385079155
 20
4837436.224589582
 10
622668.330034919
 20
4837353.62556303
 10
622673.7719316643
 20
4837325.996631536
  0
LWPOLYLINE
  5
170
330
17
100
AcDbEntity
  8
ROADS
100
AcDbPolyline
 90
3
 70
0
 10
622870.9922020633
 20
4837443.856880471
 10
622737.8096296686
 20
4837397.852167607
 10
622724.5686657837
 20
4837364.912116
  0
LWPOLYLINE
  5
171
330
17
100
AcDbEntity
  8
ROADS
100
AcDbPolyline
 90
2
 70
0
 10
622900.1351314231
 20
4837404.180947542
 10
622870.9922020633
 20
4837443.856880471
  0
LWPOLYLINE
  5
172
330
17
100
AcDbEntity
  8
ROADS
100
AcDbPolyline
 90
2
 70
0
 10
622770.8111088146
 20
4837458.133905152
 10
622704.385079155
 20
4837436.224589582
  0
LWPOLYLINE
  5
173
330
17
100
AcDbEntity
  8
ROADS
100
AcDbPolyline
 90
2
 70
0
 10
622940.6526860103
 20
4837418.306358025
 10
622883.512078367
 20
4837496.927899306
  0
LWPOLYLINE
  5
174
330
17
100
AcDbEntity
  8
ROADS
100
AcDbPolyline
 90
2
 70
0
 10
622687.5519932905
 20
4837559.994195006
 10
622592.1890947223
 20
4837361.879050351
  0
LWPOLYLINE
  5
175
330
17
100
AcDbEntity
  8
ROADS
100
AcDbPolyline
 90
2
 70
0
 10
622870.9922020633
 20
4837443.856880471
 10
622840.2946966595
 20
4837481.846110739
  0
LWPOLYLINE
  5
176
330
17
100
AcDbEntity
  8
ROADS
100
AcDbPolyline
 90
2
 70
0
 10
622840.2946966595
 20
4837481.846110739
 10
622770.8111088146
 20
4837458.133905152
  0
LWPOLYLINE
  5
177
330
17
100
AcDbEntity
  8
ROADS
100
AcDbPolyline
 90
2
 70
0
 10
622121.7188270855
 20
4837469.647234986
 10
622079.8365773079
 20
4837456.281207253
  0
LWPOLYLINE
  5
178
330
17
100
AcDbEntity
  8
ROADS
100
AcDbPolyline
 90
2
 70
0
 10
622121.7188270855
 20
4837469.647234986
 10
622157.6933974538
 20
4837482.040385006
  0
LWPOLYLINE
  5
179
330
17
100
AcDbEntity
  8
ROADS
100
AcDbPolyline
 90
2
 70
0
 10
622079.6836224656
 20
4837504.552699507
 10
621943.9478814435
 20
4837460.116966283
  0
LWPOLYLINE
  5
17A
330
17
100
AcDbEntity
  8
ROADS
100
AcDbPolyline
 90
3
 70
0
 10
622267.677281785
 20
4837560.468060194
 10
622204.2477015224
 20
4837432.70895272
 10
622168.3626509942
 20
4837415.697207982
  0
LWPOLYLINE
  5
17B
330
17
100
AcDbEntity
  8
ROADS
100
AcDbPolyline
 90
2
 70
0
 10
622106.8420974166
 20
4837513.444255389
 10
622121.7188270855
 20
4837469.647234986
  0
LWPOLYLINE
  5
17C
330
17
100
AcDbEntity
  8
ROADS
100
AcDbPolyline
 90
2
 70
0
 10
622106.8420974166
 20
4837513.444255389
 10
622079.6836224656
 20
4837504.552699507
  0
LWPOLYLINE
  5
17D
330
17
100
AcDbEntity
  8
ROADS
100
AcDbPolyline
 90
2
 70
0
 10
622127.4777376554
 20
4837522.309850917
 10
622106.8420974166
 20
4837513.444255389
  0
LWPOLYLINE
  5
17E
330
17
100
AcDbEntity
  8
ROADS
100
AcDbPolyline
 90
2
 70
0
 10
622473.810394503
 20
4837722.302605324
 10
622287.9726862358
 20
4837313.982405836
  0
LWPOLYLINE
  5
17F
330
17
100
AcDbEntity
  8
ROADS
100
AcDbPolyline
 90
2
 70
0
 10
622060.0555645452
 20
4837555.571625808
 10
622079.6836224656
 20
4837504.552699507
  0
LWPOLYLINE
  5
180
330
17
100
AcDbEntity
  8
ROADS
100
AcDbPolyline
 90
2
 70
0
 10
622349.8985677466
 20
4837520.025054073
 10
622267.677281785
 20
4837560.468060194
  0
LWPOLYLINE
  5
181
330
17
100
AcDbEntity
  8
ROADS
100
AcDbPolyline
 90
2
 70
0
 10
622731.4940627877
 20
4837521.317973297
 10
622704.385079155
 20
4837436.224589582
  0
LWPOLYLINE
  5
182
330
17
100
AcDbEntity
  8
ROADS
100
AcDbPolyline
 90
2
 70
0
 10
622770.8111088146
 20
4837458.133905152
 10
622783.390495614
 20
4837512.393043078
  0
LWPOLYLINE
  5
183
330
17
100
AcDbEntity
  8
ROADS
100
AcDbPolyline
 90
2
 70
0
 10
622883.512078367
 20
4837496.927899306
 10
622840.2946966595
 20
4837481.846110739
  0
LWPOLYLINE
  5
184
330
17
100
AcDbEntity
  8
ROADS
100
AcDbPolyline
 90
2
 70
0
 10
622840.2946966595
 20
4837481.846110739
 10
622781.4150009382
 20
4837561.7397296345
  0
LWPOLYLINE
  5
185
330
17
100
AcDbEntity
  8
ROADS
100
AcDbPolyline
 90
2
 70
0
 10
622883.512078367
 20
4837496.927899306
 10
622825.6091654795
 20
4837575.729637032
  0
LWPOLYLINE
  5
186
330
17
100
AcDbEntity
  8
ROADS
100
AcDbPolyline
 90
2
 70
0
 10
622687.5519932905
 20
4837559.994195006
 10
622731.4940627877
 20
4837521.317973297
  0
LWPOLYLINE
  5
187
330
17
100
AcDbEntity
  8
ROADS
100
AcDbPolyline
 90
3
 70
0
 10
622781.4150009382
 20
4837561.7397296345
 10
622747.2916028027
 20
4837547.181920791
 10
622731.4940627877
 20
4837521.317973297
  0
LWPOLYLINE
  5
188
330
17
100
AcDbEntity
  8
ROADS
100
AcDbPolyline
 90
3
 70
0
 10
622592.6517643769
 20
4837625.389147348
 10
622528.8768074391
 20
4837510.587282422
 10
622510.410510155
 20
4837518.959736806
  0
LWPOLYLINE
  5
189
330
17
100
AcDbEntity
  8
ROADS
100
AcDbPolyline
 90
2
 70
0
 10
622825.6091654795
 20
4837575.729637032
 10
622781.4150009382
 20
4837561.7397296345
  0
LWPOLYLINE
  5
18A
330
17
100
AcDbEntity
  8
ROADS
100
AcDbPolyline
 90
2
 70
0
 10
622607.7705904281
 20
4837632.019384835
 10
622687.5519932905
 20
4837559.994195006
  0
LWPOLYLINE
  5
18B
330
17
100
AcDbEntity
  8
ROADS
100
AcDbPolyline
 90
2
 70
0
 10
622073.2947127871
 20
4837686.344663696
 10
622127.4777376554
 20
4837522.309850917
  0
LWPOLYLINE
  5
18C
330
17
100
AcDbEntity
  8
ROADS
100
AcDbPolyline
 90
4
 70
0
 10
622165.9349048937
 20
4837697.854578601
 10
622192.6711023061
 20
4837593.902197393
 10
622164.9236138378
 20
4837535.021629303
 10
622127.4777376554
 20
4837522.309850917
  0
LWPOLYLINE
  5
18D
330
17
100
AcDbEntity
  8
ROADS
100
AcDbPolyline
 90
2
 70
0
 10
622023.9565937563
 20
4837668.667572443
 10
622060.0555645452
 20
4837555.571625808
  0
LWPOLYLINE
  5
18E
330
17
100
AcDbEntity
  8
ROADS
100
AcDbPolyline
 90
3
 70
0
 10
622060.0555645452
 20
4837555.571625808
 10
622008.8441845248
 20
4837646.284226569
 10
622011.3228123006
 20
4837671.581230188
  0
LWPOLYLINE
  5
18F
330
17
100
AcDbEntity
  8
ROADS
100
AcDbPolyline
 90
2
 70
0
 10
622343.321772582
 20
4837717.347505413
 10
622267.677281785
 20
4837560.468060194
  0
LWPOLYLINE
  5
190
330
17
100
AcDbEntity
  8
ROADS
100
AcDbPolyline
 90
2
 70
0
 10
622476.1166227382
 20
4837780.079084992
 10
622349.8985677466
 20
4837520.025054073
  0
LWPOLYLINE
  5
191
330
17
100
AcDbEntity
  8
ROADS
100
AcDbPolyline
 90
2
 70
0
 10
622023.9565937563
 20
4837668.667572443
 10
622011.3228123006
 20
4837671.581230188
  0
LWPOLYLINE
  5
192
330
17
100
AcDbEntity
  8
ROADS
100
AcDbPolyline
 90
2
 70
0
 10
622073.2947127871
 20
4837686.344663696
 10
622023.9565937563
 20
4837668.667572443
  0
LWPOLYLINE
  5
193
330
17
100
AcDbEntity
  8
ROADS
100
AcDbPolyline
 90
2
 70
0
 10
622165.9349048937
 20
4837697.854578601
 10
622073.2947127871
 20
4837686.344663696
  0
LWPOLYLINE
  5
194
330
17
100
AcDbEntity
  8
ROADS
100
AcDbPolyline
 90
2
 70
0
 10
622343.321772582
 20
4837717.347505413
 10
622303.391204863
 20
4837737.40132021
  0
LWPOLYLINE
  5
195
330
17
100
AcDbEntity
  8
ROADS
100
AcDbPolyline
 90
2
 70
0
 10
622825.6091654795
 20
4837575.729637032
 10
622776.9747448132
 20
4837638.161164845
  0
LWPOLYLINE
  5
196
330
17
100
AcDbEntity
  8
ROADS
100
AcDbPolyline
 90
2
 70
0
 10
622592.6517643769
 20
4837625.389147348
 10
622580.871383145
 20
4837622.613970704
  0
LWPOLYLINE
  5
197
330
17
100
AcDbEntity
  8
ROADS
100
AcDbPolyline
 90
2
 70
0
 10
622580.871383145
 20
4837622.613970704
 10
622535.4204225598
 20
4837627.467245455
  0
LWPOLYLINE
  5
198
330
17
100
AcDbEntity
  8
ROADS
100
AcDbPolyline
 90
2
 70
0
 10
622607.7705904281
 20
4837632.019384835
 10
622592.6517643769
 20
4837625.389147348
  0
LWPOLYLINE
  5
199
330
17
100
AcDbEntity
  8
ROADS
100
AcDbPolyline
 90
2
 70
0
 10
622832.1888661017
 20
4837651.85135894
 10
622776.9747448132
 20
4837638.161164845
  0
LWPOLYLINE
  5
19A
330
17
100
AcDbEntity
  8
ROADS
100
AcDbPolyline
 90
2
 70
0
 10
622580.871383145
 20
4837622.613970704
 10
622551.6352635635
 20
4837684.197217543
  0
LWPOLYLINE
  5
19B
330
17
100
AcDbEntity
  8
ROADS
100
AcDbPolyline
 90
2
 70
0
 10
622551.6352635635
 20
4837684.197217543
 10
622607.7705904281
 20
4837632.019384835
  0
LWPOLYLINE
  5
19C
330
17
100
AcDbEntity
  8
ROADS
100
AcDbPolyline
 90
2
 70
0
 10
622930.383482048
 20
4837666.40588644
 10
622832.1888661017
 20
4837651.85135894
  0
LWPOLYLINE
  5
19D
330
17
100
AcDbEntity
  8
ROADS
100
AcDbPolyline
 90
2
 70
0
 10
622510.0971488737
 20
4837704.884007425
 10
622551.6352635635
 20
4837684.197217543
  0
LWPOLYLINE
  5
19E
330
17
100
AcDbEntity
  8
ROADS
100
AcDbPolyline
 90
2
 70
0
 10
622776.9747448132
 20
4837638.161164845
 10
622619.7969590846
 20
4837777.07039702
  0
LWPOLYLINE
  5
19F
330
17
100
AcDbEntity
  8
ROADS
100
AcDbPolyline
 90
2
 70
0
 10
622473.810394503
 20
4837722.302605324
 10
622510.0971488737
 20
4837704.884007425
  0
LWPOLYLINE
  5
1A0
330
17
100
AcDbEntity
  8
ROADS
100
AcDbPolyline
 90
2
 70
0
 10
622510.0971488737
 20
4837704.884007425
 10
622527.9440503474
 20
4837740.657486283
  0
LWPOLYLINE
  5
1A1
330
17
100
AcDbEntity
  8
ROADS
100
AcDbPolyline
 90
2
 70
0
 10
622930.383482048
 20
4837666.40588644
 10
622892.2258206621
 20
4837782.734544017
  0
LWPOLYLINE
  5
1A2
330
17
100
AcDbEntity
  8
ROADS
100
AcDbPolyline
 90
2
 70
0
 10
622619.7969590846
 20
4837777.07039702
 10
622551.6352635635
 20
4837684.197217543
  0
LWPOLYLINE
  5
1A3
330
17
100
AcDbEntity
  8
ROADS
100
AcDbPolyline
 90
2
 70
0
 10
622514.6998112657
 20
4837801.348884687
 10
622473.810394503
 20
4837722.302605324
  0
LWPOLYLINE
  5
1A4
330
17
100
AcDbEntity
  8
ROADS
100
AcDbPolyline
 90
2
 70
0
 10
622892.2258206621
 20
4837782.734544017
 10
622786.124498018
 20
4837743.094764905
  0
LWPOLYLINE
  5
1A5
330
17
100
AcDbEntity
  8
ROADS
100
AcDbPolyline
 90
2
 70
0
 10
622908.7027515671
 20
4837795.445655221
 10
622892.2258206621
 20
4837782.734544017
  0
LWPOLYLINE
  5
1A6
330
17
100
AcDbEntity
  8
ROADS
100
AcDbPolyline
 90
2
 70
0
 10
622476.1166227382
 20
4837780.079084992
 10
622388.8786942455
 20
4837802.791471099
  0
LWPOLYLINE
  5
1A7
330
17
100
AcDbEntity
  8
ROADS
100
AcDbPolyline
 90
2
 70
0
 10
622619.7969590846
 20
4837777.07039702
 10
622496.0941899413
 20
4837822.1243990185
  0
LWPOLYLINE
  5
1A8
330
17
100
AcDbEntity
  8
ROADS
100
AcDbPolyline
 90
2
 70
0
 10
622496.0941899413
 20
4837822.1243990185
 10
622476.1166227382
 20
4837780.079084992
  0
LWPOLYLINE
  5
1A9
330
17
100
AcDbEntity
  8
ROADS
100
AcDbPolyline
 90
4
 70
0
 10
621842.8764613115
 20
4837801.719926615
 10
621887.4313561778
 20
4837686.992402662
 10
622007.2273304425
 20
4837687.245894279
 10
622011.3228123006
 20
4837671.581230188
  0
LWPOLYLINE
  5
1AA
330
17
100
AcDbEntity
  8
ROADS
100
AcDbPolyline
 90
2
 70
0
 10
621759.5824440774
 20
4837776.1843756335
 10
621709.2364069044
 20
4837759.270758825
  0
LWPOLYLINE
  5
1AB
330
17
100
AcDbEntity
  8
ROADS
100
AcDbPolyline
 90
2
 70
0
 10
621779.934404051
 20
4837783.48177626
 10
621759.5824440774
 20
4837776.1843756335
  0
LWPOLYLINE
  5
1AC
330
17
100
AcDbEntity
  8
ROADS
100
AcDbPolyline
 90
3
 70
0
 10
621941.4158905891
 20
4837833.797509194
 10
621962.3919657554
 20
4837757.762333427
 10
621915.9593040892
 20
4837741.920867099
  0
LWPOLYLINE
  5
1AD
330
17
100
AcDbEntity
  8
ROADS
100
AcDbPolyline
 90
2
 70
0
 10
621842.8764613115
 20
4837801.719926615
 10
621779.934404051
 20
4837783.48177626
  0
LWPOLYLINE
  5
1AE
330
17
100
AcDbEntity
  8
ROADS
100
AcDbPolyline
 90
2
 70
0
 10
621941.4158905891
 20
4837833.797509194
 10
621842.8764613115
 20
4837801.719926615
  0
LWPOLYLINE
  5
1AF
330
17
100
AcDbEntity
  8
ROADS
100
AcDbPolyline
 90
2
 70
0
 10
621779.934404051
 20
4837783.48177626
 10
621742.4000127829
 20
4837898.972254534
  0
LWPOLYLINE
  5
1B0
330
17
100
AcDbEntity
  8
ROADS
100
AcDbPolyline
 90
2
 70
0
 10
622016.1106766663
 20
4837859.823591114
 10
621941.4158905891
 20
4837833.797509194
  0
LWPOLYLINE
  5
1B1
330
17
100
AcDbEntity
  8
ROADS
100
AcDbPolyline
 90
2
 70
0
 10
622388.8786942455
 20
4837802.791471099
 10
622343.321772582
 20
4837717.347505413
  0
LWPOLYLINE
  5
1B2
330
17
100
AcDbEntity
  8
ROADS
100
AcDbPolyline
 90
3
 70
0
 10
622312.6437615906
 20
4837865.732746442
 10
622253.319457433
 20
4837741.347965456
 10
622165.9349048937
 20
4837697.854578601
  0
LWPOLYLINE
  5
1B3
330
17
100
AcDbEntity
  8
ROADS
100
AcDbPolyline
 90
2
 70
0
 10
622388.8786942455
 20
4837802.791471099
 10
622341.3874090929
 20
4837815.289182575
  0
LWPOLYLINE
  5
1B4
330
17
100
AcDbEntity
  8
ROADS
100
AcDbPolyline
 90
2
 70
0
 10
622407.9164650192
 20
4837842.389662378
 10
622388.8786942455
 20
4837802.791471099
  0
LWPOLYLINE
  5
1B5
330
17
100
AcDbEntity
  8
ROADS
100
AcDbPolyline
 90
4
 70
0
 10
622030.7118199418
 20
4837819.101756587
 10
622048.6167787985
 20
4837769.164237723
 10
622229.9756955642
 20
4837829.025938513
 10
622255.9830917711
 20
4837879.831690772
  0
LWPOLYLINE
  5
1B6
330
17
100
AcDbEntity
  8
ROADS
100
AcDbPolyline
 90
2
 70
0
 10
622030.7118199418
 20
4837819.101756587
 10
622075.7374934453
 20
4837833.833741222
  0
LWPOLYLINE
  5
1B7
330
17
100
AcDbEntity
  8
ROADS
100
AcDbPolyline
 90
2
 70
0
 10
622016.1106766663
 20
4837859.823591114
 10
622030.7118199418
 20
4837819.101756587
  0
LWPOLYLINE
  5
1B8
330
17
100
AcDbEntity
  8
ROADS
100
AcDbPolyline
 90
2
 70
0
 10
622407.9164650192
 20
4837842.389662378
 10
622312.6437615906
 20
4837865.732746442
  0
LWPOLYLINE
  5
1B9
330
17
100
AcDbEntity
  8
ROADS
100
AcDbPolyline
 90
2
 70
0
 10
622312.6437615906
 20
4837865.732746442
 10
622255.9830917711
 20
4837879.831690772
  0
LWPOLYLINE
  5
1BA
330
17
100
AcDbEntity
  8
ROADS
100
AcDbPolyline
 90
2
 70
0
 10
622187.4177675464
 20
4837918.4864875795
 10
622016.1106766663
 20
4837859.823591114
  0
LWPOLYLINE
  5
1BB
330
17
100
AcDbEntity
  8
ROADS
100
AcDbPolyline
 90
3
 70
0
 10
622908.7027515671
 20
4837795.445655221
 10
622872.9306779916
 20
4837818.078329219
 10
622802.7437296709
 20
4837811.41566583
  0
LWPOLYLINE
  5
1BC
330
17
100
AcDbEntity
  8
ROADS
100
AcDbPolyline
 90
2
 70
0
 10
622496.0941899413
 20
4837822.1243990185
 10
622407.9164650192
 20
4837842.389662378
  0
LWPOLYLINE
  5
1BD
330
17
100
AcDbEntity
  8
ROADS
100
AcDbPolyline
 90
3
 70
0
 10
622802.7437296709
 20
4837811.41566583
 10
622767.475032525
 20
4837819.321215064
 10
622595.94141245
 20
4837928.431286556
  0
LWPOLYLINE
  5
1BE
330
17
100
AcDbEntity
  8
ROADS
100
AcDbPolyline
 90
3
 70
0
 10
622802.7437296709
 20
4837811.41566583
 10
622816.9471152361
 20
4837885.250152659
 10
622753.0505532403
 20
4837934.595973217
  0
LWPOLYLINE
  5
1BF
330
17
100
AcDbEntity
  8
ROADS
100
AcDbPolyline
 90
2
 70
0
 10
622496.0941899413
 20
4837822.1243990185
 10
622452.8948605299
 20
4837925.8141021645
  0
LWPOLYLINE
  5
1C0
330
17
100
AcDbEntity
  8
ROADS
100
AcDbPolyline
 90
3
 70
0
 10
622916.8734083486
 20
4837966.952376112
 10
622872.5239374208
 20
4837960.111956136
 10
622746.5894364947
 20
4838048.100659445
  0
LWPOLYLINE
  5
1C1
330
17
100
AcDbEntity
  8
ROADS
100
AcDbPolyline
 90
2
 70
0
 10
622916.8734083486
 20
4837966.952376112
 10
622886.5773898917
 20
4838058.213947737
  0
LWPOLYLINE
  5
1C2
330
17
100
AcDbEntity
  8
ROADS
100
AcDbPolyline
 90
2
 70
0
 10
622886.5773898917
 20
4838058.213947737
 10
622746.5894364947
 20
4838048.100659445
  0
LWPOLYLINE
  5
1C3
330
17
100
AcDbEntity
  8
ROADS
100
AcDbPolyline
 90
5
 70
0
 10
622746.5894364947
 20
4838048.100659445
 10
622669.4841896703
 20
4838100.378689987
 10
622665.818703905
 20
4838123.120500585
 10
622682.2093557195
 20
4838142.756896538
 10
622856.4408720183
 20
4838147.788305148
  0
LWPOLYLINE
  5
1C4
330
17
100
AcDbEntity
  8
ROADS
100
AcDbPolyline
 90
2
 70
0
 10
622886.5773898917
 20
4838058.213947737
 10
622856.4408720183
 20
4838147.788305148
  0
LWPOLYLINE
  5
1C5
330
17
100
AcDbEntity
  8
ROADS
100
AcDbPolyline
 90
2
 70
0
 10
621839.5337289046
 20
4837931.249442927
 10
621742.4000127829
 20
4837898.972254534
  0
LWPOLYLINE
  5
1C6
330
17
100
AcDbEntity
  8
ROADS
100
AcDbPolyline
 90
2
 70
0
 10
621742.4000127829
 20
4837898.972254534
 10
621734.0214042012
 20
4837923.926643596
  0
LWPOLYLINE
  5
1C7
330
17
100
AcDbEntity
  8
ROADS
100
AcDbPolyline
 90
3
 70
0
 10
622050.9518571565
 20
4838010.742754012
 10
622042.7294977648
 20
4837996.3653754145
 10
621839.5337289046
 20
4837931.249442927
  0
LWPOLYLINE
  5
1C8
330
17
100
AcDbEntity
  8
ROADS
100
AcDbPolyline
 90
2
 70
0
 10
621839.5337289046
 20
4837931.249442927
 10
621800.1929126396
 20
4838049.354375727
  0
LWPOLYLINE
  5
1C9
330
17
100
AcDbEntity
  8
ROADS
100
AcDbPolyline
 90
2
 70
0
 10
621800.1929126396
 20
4838049.354375727
 10
621767.8516766798
 20
4838038.427154975
  0
LWPOLYLINE
  5
1CA
330
17
100
AcDbEntity
  8
ROADS
100
AcDbPolyline
 90
2
 70
0
 10
622050.9518571565
 20
4838010.742754012
 10
621952.354136702
 20
4838074.888523148
  0
LWPOLYLINE
  5
1CB
330
17
100
AcDbEntity
  8
ROADS
100
AcDbPolyline
 90
2
 70
0
 10
622255.9830917711
 20
4837879.831690772
 10
622187.4177675464
 20
4837918.4864875795
  0
LWPOLYLINE
  5
1CC
330
17
100
AcDbEntity
  8
ROADS
100
AcDbPolyline
 90
2
 70
0
 10
622187.4177675464
 20
4837918.4864875795
 10
622069.2048780957
 20
4837998.4032954965
  0
LWPOLYLINE
  5
1CD
330
17
100
AcDbEntity
  8
ROADS
100
AcDbPolyline
 90
3
 70
0
 10
622114.6021037431
 20
4838068.397618394
 10
622233.7194193974
 20
4837990.894294927
 10
622187.4177675464
 20
4837918.4864875795
  0
LWPOLYLINE
  5
1CE
330
17
100
AcDbEntity
  8
ROADS
100
AcDbPolyline
 90
2
 70
0
 10
622069.2048780957
 20
4837998.4032954965
 10
622050.9518571565
 20
4838010.742754012
  0
LWPOLYLINE
  5
1CF
330
17
100
AcDbEntity
  8
ROADS
100
AcDbPolyline
 90
2
 70
0
 10
622452.8948605299
 20
4837925.8141021645
 10
622370.6450602853
 20
4838103.461048668
  0
LWPOLYLINE
  5
1D0
330
17
100
AcDbEntity
  8
ROADS
100
AcDbPolyline
 90
2
 70
0
 10
622069.2048780957
 20
4837998.4032954965
 10
622092.4185025678
 20
4838034.368814318
  0
LWPOLYLINE
  5
1D1
330
17
100
AcDbEntity
  8
ROADS
100
AcDbPolyline
 90
2
 70
0
 10
622092.4185025678
 20
4838034.368814318
 10
622131.3656873308
 20
4838008.416985333
  0
LWPOLYLINE
  5
1D2
330
17
100
AcDbEntity
  8
ROADS
100
AcDbPolyline
 90
2
 70
0
 10
622092.4185025678
 20
4838034.368814318
 10
622114.6021037431
 20
4838068.397618394
  0
LWPOLYLINE
  5
1D3
330
17
100
AcDbEntity
  8
ROADS
100
AcDbPolyline
 90
2
 70
0
 10
621975.2503705845
 20
4838109.989254489
 10
622092.4185025678
 20
4838034.368814318
  0
LWPOLYLINE
  5
1D4
330
17
100
AcDbEntity
  8
ROADS
100
AcDbPolyline
 90
2
 70
0
 10
622114.6021037431
 20
4838068.397618394
 10
621997.7262778435
 20
4838144.443358453
  0
LWPOLYLINE
  5
1D5
330
17
100
AcDbEntity
  8
ROADS
100
AcDbPolyline
 90
2
 70
0
 10
621916.3627118967
 20
4838094.116476623
 10
621800.1929126396
 20
4838049.354375727
  0
LWPOLYLINE
  5
1D6
330
17
100
AcDbEntity
  8
ROADS
100
AcDbPolyline
 90
2
 70
0
 10
621952.354136702
 20
4838074.888523148
 10
621916.3627118967
 20
4838094.116476623
  0
LWPOLYLINE
  5
1D7
330
17
100
AcDbEntity
  8
ROADS
100
AcDbPolyline
 90
2
 70
0
 10
621975.2503705845
 20
4838109.989254489
 10
621952.354136702
 20
4838074.888523148
  0
LWPOLYLINE
  5
1D8
330
17
100
AcDbEntity
  8
ROADS
100
AcDbPolyline
 90
2
 70
0
 10
621800.1929126396
 20
4838049.354375727
 10
621786.6052468704
 20
4838086.017039299
  0
LWPOLYLINE
  5
1D9
330
17
100
AcDbEntity
  8
ROADS
100
AcDbPolyline
 90
2
 70
0
 10
621997.7262778435
 20
4838144.443358453
 10
621975.2503705845
 20
4838109.989254489
  0
LWPOLYLINE
  5
1DA
330
17
100
AcDbEntity
  8
ROADS
100
AcDbPolyline
 90
2
 70
0
 10
621975.2503705845
 20
4838109.989254489
 10
621842.0883879041
 20
4838196.67801736
  0
LWPOLYLINE
  5
1DB
330
17
100
AcDbEntity
  8
ROADS
100
AcDbPolyline
 90
2
 70
0
 10
621916.3627118967
 20
4838094.116476623
 10
621820.6785516284
 20
4838159.4434223
  0
LWPOLYLINE
  5
1DC
330
17
100
AcDbEntity
  8
ROADS
100
AcDbPolyline
 90
2
 70
0
 10
621997.7262778435
 20
4838144.443358453
 10
621907.8428559806
 20
4838203.286442248
  0
LWPOLYLINE
  5
1DD
330
17
100
AcDbEntity
  8
ROADS
100
AcDbPolyline
 90
2
 70
0
 10
621862.8301208884
 20
4838232.750690619
 10
621907.8428559806
 20
4838203.286442248
  0
LWPOLYLINE
  5
1DE
330
17
100
AcDbEntity
  8
ROADS
100
AcDbPolyline
 90
2
 70
0
 10
621907.8428559806
 20
4838203.286442248
 10
621929.570447369
 20
4838237.312991646
  0
LWPOLYLINE
  5
1DF
330
17
100
AcDbEntity
  8
ROADS
100
AcDbPolyline
 90
2
 70
0
 10
622942.3470799179
 20
4838174.329321316
 10
622856.4408720183
 20
4838147.788305148
  0
LWPOLYLINE
  5
1E0
330
17
100
AcDbEntity
  8
ROADS
100
AcDbPolyline
 90
2
 70
0
 10
622856.4408720183
 20
4838147.788305148
 10
622806.6158822475
 20
4838296.273440405
  0
LWPOLYLINE
  5
1E1
330
17
100
AcDbEntity
  8
ROADS
100
AcDbPolyline
 90
2
 70
0
 10
622942.3470799179
 20
4838174.329321316
 10
622878.5541518037
 20
4838363.6858697515
  0
LWPOLYLINE
  5
1E2
330
17
100
AcDbEntity
  8
ROADS
100
AcDbPolyline
 90
2
 70
0
 10
622878.5541518037
 20
4838363.6858697515
 10
622806.6158822475
 20
4838296.273440405
  0
LWPOLYLINE
  5
1E3
330
17
100
AcDbEntity
  8
ROADS
100
AcDbPolyline
 90
2
 70
0
 10
622719.7778822315
 20
4838264.468293704
 10
622668.2684382203
 20
4838418.418150855
  0
LWPOLYLINE
  5
1E4
330
17
100
AcDbEntity
  8
ROADS
100
AcDbPolyline
 90
2
 70
0
 10
622806.6158822475
 20
4838296.273440405
 10
622753.9806913618
 20
4838449.181920729
  0
LWPOLYLINE
  5
1E5
330
17
100
AcDbEntity
  8
ROADS
100
AcDbPolyline
 90
2
 70
0
 10
622955.6848707282
 20
4838409.13815757
 10
622878.5541518037
 20
4838363.6858697515
  0
LWPOLYLINE
  5
1E6
330
17
100
AcDbEntity
  8
ROADS
100
AcDbPolyline
 90
2
 70
0
 10
622668.2684382203
 20
4838418.418150855
 10
622624.8128820965
 20
4838404.869518715
  0
LWPOLYLINE
  5
1E7
330
17
100
AcDbEntity
  8
ROADS
100
AcDbPolyline
 90
2
 70
0
 10
622753.9806913618
 20
4838449.181920729
 10
622668.2684382203
 20
4838418.418150855
  0
LWPOLYLINE
  5
1E8
330
17
100
AcDbEntity
  8
ROADS
100
AcDbPolyline
 90
2
 70
0
 10
622878.5541518037
 20
4838363.6858697515
 10
622827.566568413
 20
4838520.875383569
  0
LWPOLYLINE
  5
1E9
330
17
100
AcDbEntity
  8
ROADS
100
AcDbPolyline
 90
7
 70
0
 10
622370.6450602853
 20
4838103.461048668
 10
622313.4339837714
 20
4838086.782538767
 10
622267.2056942933
 20
4838099.339052588
 10
622113.1538969945
 20
4838200.440621441
 10
622105.8468240942
 20
4838227.462731122
 10
622039.2102074813
 20
4838242.91623985
 10
622002.0031466305
 20
4838293.358648515
  0
LWPOLYLINE
  5
1EA
330
17
100
AcDbEntity
  8
ROADS
100
AcDbPolyline
 90
2
 70
0
 10
622370.6450602853
 20
4838103.461048668
 10
622269.3917993776
 20
4838379.8263820615
  0
LWPOLYLINE
  5
1EB
330
17
100
AcDbEntity
  8
ROADS
100
AcDbPolyline
 90
2
 70
0
 10
622201.4476160469
 20
4838357.1009172825
 10
622002.0031466305
 20
4838293.358648515
  0
LWPOLYLINE
  5
1EC
330
17
100
AcDbEntity
  8
ROADS
100
AcDbPolyline
 90
2
 70
0
 10
622269.3917993776
 20
4838379.8263820615
 10
622201.4476160469
 20
4838357.1009172825
  0
LWPOLYLINE
  5
1ED
330
17
100
AcDbEntity
  8
ROADS
100
AcDbPolyline
 90
3
 70
0
 10
622201.4476160469
 20
4838357.1009172825
 10
622208.555786123
 20
4838444.13459013
 10
622178.2099896602
 20
4838543.991075493
  0
LWPOLYLINE
  5
1EE
330
17
100
AcDbEntity
  8
ROADS
100
AcDbPolyline
 90
2
 70
0
 10
622269.3917993776
 20
4838379.8263820615
 10
622215.7348084432
 20
4838567.432036568
  0
LWPOLYLINE
  5
1EF
330
17
100
AcDbEntity
  8
ROADS
100
AcDbPolyline
 90
4
 70
0
 10
622728.3915451757
 20
4838533.822218161
 10
622541.2925832823
 20
4838449.723061984
 10
622415.7683415904
 20
4838428.227678434
 10
622269.3917993776
 20
4838379.8263820615
  0
LWPOLYLINE
  5
1F0
330
17
100
AcDbEntity
  8
ROADS
100
AcDbPolyline
 90
2
 70
0
 10
622753.9806913618
 20
4838449.181920729
 10
622728.3915451757
 20
4838533.822218161
  0
LWPOLYLINE
  5
1F1
330
17
100
AcDbEntity
  8
ROADS
100
AcDbPolyline
 90
2
 70
0
 10
622827.566568413
 20
4838520.875383569
 10
622766.0131554117
 20
4838500.662067765
  0
LWPOLYLINE
  5
1F2
330
17
100
AcDbEntity
  8
ROADS
100
AcDbPolyline
 90
2
 70
0
 10
622827.566568413
 20
4838520.875383569
 10
622813.2356485844
 20
4838562.574221765
  0
LWPOLYLINE
  5
1F3
330
17
100
AcDbEntity
  8
ROADS
100
AcDbPolyline
 90
2
 70
0
 10
622813.2356485844
 20
4838562.574221765
 10
622728.3915451757
 20
4838533.822218161
  0
LWPOLYLINE
  5
1F4
330
17
100
AcDbEntity
  8
ROADS
100
AcDbPolyline
 90
2
 70
0
 10
622912.7918171226
 20
4838539.614791992
 10
622895.6162799505
 20
4838590.959663703
  0
LWPOLYLINE
  5
1F5
330
17
100
AcDbEntity
  8
ROADS
100
AcDbPolyline
 90
2
 70
0
 10
622895.6162799505
 20
4838590.959663703
 10
622813.2356485844
 20
4838562.574221765
  0
LWPOLYLINE
  5
1F6
330
17
100
AcDbEntity
  8
ROADS
100
AcDbPolyline
 90
4
 70
0
 10
622728.3915451757
 20
4838533.822218161
 10
622714.4332412652
 20
4838556.966878977
 10
622664.4241722082
 20
4838570.6580153
 10
622632.6533731113
 20
4838672.068283353
  0
LWPOLYLINE
  5
1F7
330
17
100
AcDbEntity
  8
ROADS
100
AcDbPolyline
 90
2
 70
0
 10
622895.6162799505
 20
4838590.959663703
 10
622865.6259831913
 20
4838666.747945029
  0
LWPOLYLINE
  5
1F8
330
17
100
AcDbEntity
  8
ROADS
100
AcDbPolyline
 90
2
 70
0
 10
622632.6533731113
 20
4838672.068283353
 10
622540.8819529832
 20
4838698.263383677
  0
LWPOLYLINE
  5
1F9
330
17
100
AcDbEntity
  8
ROADS
100
AcDbPolyline
 90
3
 70
0
 10
624316.6295176179
 20
4837099.553298651
 10
624266.7549737518
 20
4837241.557988576
 10
624227.7288283949
 20
4837229.7276381515
  0
LWPOLYLINE
  5
1FA
330
17
100
AcDbEntity
  8
ROADS
100
AcDbPolyline
 90
2
 70
0
 10
624059.6339671368
 20
4837175.200061881
 10
624037.8929638723
 20
4837168.058541265
  0
LWPOLYLINE
  5
1FB
330
17
100
AcDbEntity
  8
ROADS
100
AcDbPolyline
 90
2
 70
0
 10
624144.1296142155
 20
4837202.784465507
 10
624059.6339671368
 20
4837175.200061881
  0
LWPOLYLINE
  5
1FC
330
17
100
AcDbEntity
  8
ROADS
100
AcDbPolyline
 90
2
 70
0
 10
624181.5124703567
 20
4837214.736100483
 10
624144.1296142155
 20
4837202.784465507
  0
LWPOLYLINE
  5
1FD
330
17
100
AcDbEntity
  8
ROADS
100
AcDbPolyline
 90
2
 70
0
 10
624227.7288283949
 20
4837229.7276381515
 10
624181.5124703567
 20
4837214.736100483
  0
LWPOLYLINE
  5
1FE
330
17
100
AcDbEntity
  8
ROADS
100
AcDbPolyline
 90
2
 70
0
 10
623973.1714128772
 20
4837147.274086239
 10
623905.9983606802
 20
4837353.405154493
  0
LWPOLYLINE
  5
1FF
330
17
100
AcDbEntity
  8
ROADS
100
AcDbPolyline
 90
2
 70
0
 10
624059.6339671368
 20
4837175.200061881
 10
623991.8466886892
 20
4837381.727091452
  0
LWPOLYLINE
  5
200
330
17
100
AcDbEntity
  8
ROADS
100
AcDbPolyline
 90
2
 70
0
 10
623950.1963149656
 20
4837367.747165509
 10
623905.9983606802
 20
4837353.405154493
  0
LWPOLYLINE
  5
201
330
17
100
AcDbEntity
  8
ROADS
100
AcDbPolyline
 90
2
 70
0
 10
623991.8466886892
 20
4837381.727091452
 10
623950.1963149656
 20
4837367.747165509
  0
LWPOLYLINE
  5
202
330
17
100
AcDbEntity
  8
ROADS
100
AcDbPolyline
 90
2
 70
0
 10
624227.7288283949
 20
4837229.7276381515
 10
624130.2293879128
 20
4837522.990036722
  0
LWPOLYLINE
  5
203
330
17
100
AcDbEntity
  8
ROADS
100
AcDbPolyline
 90
2
 70
0
 10
623666.4024286857
 20
4837270.153096709
 10
623609.1690203598
 20
4837388.241682055
  0
LWPOLYLINE
  5
204
330
17
100
AcDbEntity
  8
ROADS
100
AcDbPolyline
 90
2
 70
0
 10
623865.0319148483
 20
4837339.59761233
 10
623820.0228528364
 20
4837324.540903618
  0
LWPOLYLINE
  5
205
330
17
100
AcDbEntity
  8
ROADS
100
AcDbPolyline
 90
2
 70
0
 10
623528.409731526
 20
4837224.952407978
 10
623459.4732167404
 20
4837440.893796149
  0
LWPOLYLINE
  5
206
330
17
100
AcDbEntity
  8
ROADS
100
AcDbPolyline
 90
2
 70
0
 10
623905.9983606802
 20
4837353.405154493
 10
623865.0319148483
 20
4837339.59761233
  0
LWPOLYLINE
  5
207
330
17
100
AcDbEntity
  8
ROADS
100
AcDbPolyline
 90
2
 70
0
 10
623702.4204685527
 20
4837281.424007448
 10
623623.6518538529
 20
4837440.7697848175
  0
LWPOLYLINE
  5
208
330
17
100
AcDbEntity
  8
ROADS
100
AcDbPolyline
 90
2
 70
0
 10
623745.1327698535
 20
4837298.893296711
 10
623670.9082242087
 20
4837458.634285742
  0
LWPOLYLINE
  5
209
330
17
100
AcDbEntity
  8
ROADS
100
AcDbPolyline
 90
2
 70
0
 10
623609.1690203598
 20
4837388.241682055
 10
623589.9030491603
 20
4837420.092413707
  0
LWPOLYLINE
  5
20A
330
17
100
AcDbEntity
  8
ROADS
100
AcDbPolyline
 90
2
 70
0
 10
623589.9030491603
 20
4837420.092413707
 10
623623.6518538529
 20
4837440.7697848175
  0
LWPOLYLINE
  5
20B
330
17
100
AcDbEntity
  8
ROADS
100
AcDbPolyline
 90
5
 70
0
 10
623589.9030491603
 20
4837420.092413707
 10
623554.2549960095
 20
4837402.077837322
 10
623526.1578651657
 20
4837450.94423028
 10
623551.6082756108
 20
4837466.753283307
 10
623589.9030491603
 20
4837420.092413707
  0
LWPOLYLINE
  5
20C
330
17
100
AcDbEntity
  8
ROADS
100
AcDbPolyline
 90
2
 70
0
 10
623865.0319148483
 20
4837339.59761233
 10
623797.6156907678
 20
4837544.626122722
  0
LWPOLYLINE
  5
20D
330
17
100
AcDbEntity
  8
ROADS
100
AcDbPolyline
 90
2
 70
0
 10
624144.1296142155
 20
4837202.784465507
 10
624008.2808719934
 20
4837614.068485747
  0
LWPOLYLINE
  5
20E
330
17
100
AcDbEntity
  8
ROADS
100
AcDbPolyline
 90
2
 70
0
 10
623950.1963149656
 20
4837367.747165509
 10
623879.5801927766
 20
4837571.984813621
  0
LWPOLYLINE
  5
20F
330
17
100
AcDbEntity
  8
ROADS
100
AcDbPolyline
 90
2
 70
0
 10
623991.8466886892
 20
4837381.727091452
 10
623924.4265293195
 20
4837587.191623258
  0
LWPOLYLINE
  5
210
330
17
100
AcDbEntity
  8
ROADS
100
AcDbPolyline
 90
2
 70
0
 10
624319.9171977714
 20
4837535.060022577
 10
624270.6464193787
 20
4837519.419167668
  0
LWPOLYLINE
  5
211
330
17
100
AcDbEntity
  8
ROADS
100
AcDbPolyline
 90
2
 70
0
 10
624130.2293879128
 20
4837522.990036722
 10
624161.0647564541
 20
4837532.792187234
  0
LWPOLYLINE
  5
212
330
17
100
AcDbEntity
  8
ROADS
100
AcDbPolyline
 90
2
 70
0
 10
624270.6464193787
 20
4837519.419167668
 10
624254.3936321554
 20
4837568.407859168
  0
LWPOLYLINE
  5
213
330
17
100
AcDbEntity
  8
ROADS
100
AcDbPolyline
 90
2
 70
0
 10
624210.1603625629
 20
4837553.473139193
 10
624185.2245585205
 20
4837546.255811474
  0
LWPOLYLINE
  5
214
330
17
100
AcDbEntity
  8
ROADS
100
AcDbPolyline
 90
2
 70
0
 10
624254.3936321554
 20
4837568.407859168
 10
624210.1603625629
 20
4837553.473139193
  0
LWPOLYLINE
  5
215
330
17
100
AcDbEntity
  8
ROADS
100
AcDbPolyline
 90
3
 70
0
 10
624130.2293879128
 20
4837522.990036722
 10
624089.7842287944
 20
4837639.44576579
 10
624008.2808719934
 20
4837614.068485747
  0
LWPOLYLINE
  5
216
330
17
100
AcDbEntity
  8
ROADS
100
AcDbPolyline
 90
2
 70
0
 10
624254.3936321554
 20
4837568.407859168
 10
624240.9131640994
 20
4837610.972339927
  0
LWPOLYLINE
  5
217
330
17
100
AcDbEntity
  8
ROADS
100
AcDbPolyline
 90
2
 70
0
 10
624612.2239913056
 20
4837341.072609626
 10
624562.908063532
 20
4837325.049933305
  0
LWPOLYLINE
  5
218
330
17
100
AcDbEntity
  8
ROADS
100
AcDbPolyline
 90
2
 70
0
 10
624355.6287599943
 20
4837257.647981164
 10
624270.6464193787
 20
4837519.419167668
  0
LWPOLYLINE
  5
219
330
17
100
AcDbEntity
  8
ROADS
100
AcDbPolyline
 90
2
 70
0
 10
624460.4066474842
 20
4837291.808555065
 10
624392.0252649605
 20
4837498.2760630045
  0
LWPOLYLINE
  5
21A
330
17
100
AcDbEntity
  8
ROADS
100
AcDbPolyline
 90
2
 70
0
 10
624405.1281656782
 20
4837273.587951648
 10
624319.9171977714
 20
4837535.060022577
  0
LWPOLYLINE
  5
21B
330
17
100
AcDbEntity
  8
ROADS
100
AcDbPolyline
 90
2
 70
0
 10
624514.7371477693
 20
4837309.140973545
 10
624446.0295518036
 20
4837515.894627825
  0
LWPOLYLINE
  5
21C
330
17
100
AcDbEntity
  8
ROADS
100
AcDbPolyline
 90
2
 70
0
 10
624562.908063532
 20
4837325.049933305
 10
624495.5373849501
 20
4837531.755788756
  0
LWPOLYLINE
  5
21D
330
17
100
AcDbEntity
  8
ROADS
100
AcDbPolyline
 90
2
 70
0
 10
624612.2239913056
 20
4837341.072609626
 10
624526.412850738
 20
4837602.491469766
  0
LWPOLYLINE
  5
21E
330
17
100
AcDbEntity
  8
ROADS
100
AcDbPolyline
 90
2
 70
0
 10
624446.0295518036
 20
4837515.894627825
 10
624392.0252649605
 20
4837498.2760630045
  0
LWPOLYLINE
  5
21F
330
17
100
AcDbEntity
  8
ROADS
100
AcDbPolyline
 90
2
 70
0
 10
624495.5373849501
 20
4837531.755788756
 10
624446.0295518036
 20
4837515.894627825
  0
LWPOLYLINE
  5
220
330
17
100
AcDbEntity
  8
ROADS
100
AcDbPolyline
 90
2
 70
0
 10
624392.0252649605
 20
4837498.2760630045
 10
624374.6499984711
 20
4837552.872774794
  0
LWPOLYLINE
  5
221
330
17
100
AcDbEntity
  8
ROADS
100
AcDbPolyline
 90
2
 70
0
 10
623623.6518538529
 20
4837440.7697848175
 10
623670.9082242087
 20
4837458.634285742
  0
LWPOLYLINE
  5
222
330
17
100
AcDbEntity
  8
ROADS
100
AcDbPolyline
 90
2
 70
0
 10
623905.9983606802
 20
4837353.405154493
 10
623838.2938513354
 20
4837558.779491956
  0
LWPOLYLINE
  5
223
330
17
100
AcDbEntity
  8
ROADS
100
AcDbPolyline
 90
2
 70
0
 10
623670.9082242087
 20
4837458.634285742
 10
623646.8357513002
 20
4837493.705763961
  0
LWPOLYLINE
  5
224
330
17
100
AcDbEntity
  8
ROADS
100
AcDbPolyline
 90
2
 70
0
 10
623623.6518538529
 20
4837440.7697848175
 10
623571.9905777667
 20
4837527.676497709
  0
LWPOLYLINE
  5
225
330
17
100
AcDbEntity
  8
ROADS
100
AcDbPolyline
 90
2
 70
0
 10
623571.9905777667
 20
4837527.676497709
 10
623417.157032281
 20
4837479.714523575
  0
LWPOLYLINE
  5
226
330
17
100
AcDbEntity
  8
ROADS
100
AcDbPolyline
 90
2
 70
0
 10
623752.0262439953
 20
4837529.755903126
 10
623646.8357513002
 20
4837493.705763961
  0
LWPOLYLINE
  5
227
330
17
100
AcDbEntity
  8
ROADS
100
AcDbPolyline
 90
2
 70
0
 10
623646.8357513002
 20
4837493.705763961
 10
623611.0889829606
 20
4837540.759732243
  0
LWPOLYLINE
  5
228
330
17
100
AcDbEntity
  8
ROADS
100
AcDbPolyline
 90
2
 70
0
 10
623611.0889829606
 20
4837540.759732243
 10
623571.9905777667
 20
4837527.676497709
  0
LWPOLYLINE
  5
229
330
17
100
AcDbEntity
  8
ROADS
100
AcDbPolyline
 90
2
 70
0
 10
623797.6156907678
 20
4837544.626122722
 10
623752.0262439953
 20
4837529.755903126
  0
LWPOLYLINE
  5
22A
330
17
100
AcDbEntity
  8
ROADS
100
AcDbPolyline
 90
2
 70
0
 10
623838.2938513354
 20
4837558.779491956
 10
623797.6156907678
 20
4837544.626122722
  0
LWPOLYLINE
  5
22B
330
17
100
AcDbEntity
  8
ROADS
100
AcDbPolyline
 90
2
 70
0
 10
623300.2286516182
 20
4837370.416474388
 10
623280.0863638343
 20
4837434.798468273
  0
LWPOLYLINE
  5
22C
330
17
100
AcDbEntity
  8
ROADS
100
AcDbPolyline
 90
2
 70
0
 10
622940.6526860103
 20
4837418.306358025
 10
622900.1351314231
 20
4837404.180947542
  0
LWPOLYLINE
  5
22D
330
17
100
AcDbEntity
  8
ROADS
100
AcDbPolyline
 90
2
 70
0
 10
623371.5966932058
 20
4837464.785852183
 10
623280.0863638343
 20
4837434.798468273
  0
LWPOLYLINE
  5
22E
330
17
100
AcDbEntity
  8
ROADS
100
AcDbPolyline
 90
2
 70
0
 10
623417.157032281
 20
4837479.714523575
 10
623371.5966932058
 20
4837464.785852183
  0
LWPOLYLINE
  5
22F
330
17
100
AcDbEntity
  8
ROADS
100
AcDbPolyline
 90
2
 70
0
 10
623280.0863638343
 20
4837434.798468273
 10
623250.9840181429
 20
4837520.4474889655
  0
LWPOLYLINE
  5
230
330
17
100
AcDbEntity
  8
ROADS
100
AcDbPolyline
 90
2
 70
0
 10
623371.5966932058
 20
4837464.785852183
 10
623359.0563572798
 20
4837504.528083158
  0
LWPOLYLINE
  5
231
330
17
100
AcDbEntity
  8
ROADS
100
AcDbPolyline
 90
2
 70
0
 10
623302.0015871292
 20
4837537.8659781935
 10
623250.9840181429
 20
4837520.4474889655
  0
LWPOLYLINE
  5
232
330
17
100
AcDbEntity
  8
ROADS
100
AcDbPolyline
 90
3
 70
0
 10
623417.157032281
 20
4837479.714523575
 10
623391.5117422632
 20
4837561.829915056
 10
623367.6780800523
 20
4837589.503300816
  0
LWPOLYLINE
  5
233
330
17
100
AcDbEntity
  8
ROADS
100
AcDbPolyline
 90
2
 70
0
 10
623353.4924830096
 20
4837581.423354392
 10
623302.0015871292
 20
4837537.8659781935
  0
LWPOLYLINE
  5
234
330
17
100
AcDbEntity
  8
ROADS
100
AcDbPolyline
 90
2
 70
0
 10
623367.6780800523
 20
4837589.503300816
 10
623353.4924830096
 20
4837581.423354392
  0
LWPOLYLINE
  5
235
330
17
100
AcDbEntity
  8
ROADS
100
AcDbPolyline
 90
2
 70
0
 10
624374.6499984711
 20
4837552.872774794
 10
624319.9171977714
 20
4837535.060022577
  0
LWPOLYLINE
  5
236
330
17
100
AcDbEntity
  8
ROADS
100
AcDbPolyline
 90
2
 70
0
 10
624495.5373849501
 20
4837531.755788756
 10
624477.4786124184
 20
4837586.43315942
  0
LWPOLYLINE
  5
237
330
17
100
AcDbEntity
  8
ROADS
100
AcDbPolyline
 90
2
 70
0
 10
624374.6499984711
 20
4837552.872774794
 10
624358.18873269
 20
4837602.439740768
  0
LWPOLYLINE
  5
238
330
17
100
AcDbEntity
  8
ROADS
100
AcDbPolyline
 90
2
 70
0
 10
624358.18873269
 20
4837602.439740768
 10
624254.3936321554
 20
4837568.407859168
  0
LWPOLYLINE
  5
239
330
17
100
AcDbEntity
  8
ROADS
100
AcDbPolyline
 90
2
 70
0
 10
624526.412850738
 20
4837602.491469766
 10
624477.4786124184
 20
4837586.43315942
  0
LWPOLYLINE
  5
23A
330
17
100
AcDbEntity
  8
ROADS
100
AcDbPolyline
 90
2
 70
0
 10
624477.4786124184
 20
4837586.43315942
 10
624461.4235917383
 20
4837635.655467249
  0
LWPOLYLINE
  5
23B
330
17
100
AcDbEntity
  8
ROADS
100
AcDbPolyline
 90
2
 70
0
 10
624461.4235917383
 20
4837635.655467249
 10
624358.18873269
 20
4837602.439740768
  0
LWPOLYLINE
  5
23C
330
17
100
AcDbEntity
  8
ROADS
100
AcDbPolyline
 90
2
 70
0
 10
624358.18873269
 20
4837602.439740768
 10
624344.5260527899
 20
4837645.014938818
  0
LWPOLYLINE
  5
23D
330
17
100
AcDbEntity
  8
ROADS
100
AcDbPolyline
 90
2
 70
0
 10
624344.5260527899
 20
4837645.014938818
 10
624289.6757281057
 20
4837627.176046276
  0
LWPOLYLINE
  5
23E
330
17
100
AcDbEntity
  8
ROADS
100
AcDbPolyline
 90
2
 70
0
 10
624398.5250934638
 20
4837662.203907052
 10
624344.5260527899
 20
4837645.014938818
  0
LWPOLYLINE
  5
23F
330
17
100
AcDbEntity
  8
ROADS
100
AcDbPolyline
 90
3
 70
0
 10
623302.0015871292
 20
4837537.8659781935
 10
623261.955520349
 20
4837668.478346525
 10
623308.4891248671
 20
4837676.288283119
  0
LWPOLYLINE
  5
240
330
17
100
AcDbEntity
  8
ROADS
100
AcDbPolyline
 90
2
 70
0
 10
623250.9840181429
 20
4837520.4474889655
 10
623191.2471904487
 20
4837704.352910319
  0
LWPOLYLINE
  5
241
330
17
100
AcDbEntity
  8
ROADS
100
AcDbPolyline
 90
2
 70
0
 10
623454.2652060161
 20
4837659.301726596
 10
623367.6780800523
 20
4837589.503300816
  0
LWPOLYLINE
  5
242
330
17
100
AcDbEntity
  8
ROADS
100
AcDbPolyline
 90
2
 70
0
 10
623353.4924830096
 20
4837581.423354392
 10
623308.4891248671
 20
4837676.288283119
  0
LWPOLYLINE
  5
243
330
17
100
AcDbEntity
  8
ROADS
100
AcDbPolyline
 90
3
 70
0
 10
623308.4891248671
 20
4837676.288283119
 10
623418.102667095
 20
4837678.085695819
 10
623454.2652060161
 20
4837659.301726596
  0
LWPOLYLINE
  5
244
330
17
100
AcDbEntity
  8
ROADS
100
AcDbPolyline
 90
2
 70
0
 10
623017.1501514147
 20
4837680.37472224
 10
622930.383482048
 20
4837666.40588644
  0
LWPOLYLINE
  5
245
330
17
100
AcDbEntity
  8
ROADS
100
AcDbPolyline
 90
2
 70
0
 10
623191.2471904487
 20
4837704.352910319
 10
623017.1501514147
 20
4837680.37472224
  0
LWPOLYLINE
  5
246
330
17
100
AcDbEntity
  8
ROADS
100
AcDbPolyline
 90
2
 70
0
 10
623308.4891248671
 20
4837676.288283119
 10
623295.400495623
 20
4837716.071585456
  0
LWPOLYLINE
  5
247
330
17
100
AcDbEntity
  8
ROADS
100
AcDbPolyline
 90
2
 70
0
 10
623017.1501514147
 20
4837680.37472224
 10
622998.9404383737
 20
4837734.277075359
  0
LWPOLYLINE
  5
248
330
17
100
AcDbEntity
  8
ROADS
100
AcDbPolyline
 90
2
 70
0
 10
623492.813479041
 20
4837690.3054371765
 10
623388.5250113064
 20
4837728.855367918
  0
LWPOLYLINE
  5
249
330
17
100
AcDbEntity
  8
ROADS
100
AcDbPolyline
 90
2
 70
0
 10
623879.5801927766
 20
4837571.984813621
 10
623838.2938513354
 20
4837558.779491956
  0
LWPOLYLINE
  5
24A
330
17
100
AcDbEntity
  8
ROADS
100
AcDbPolyline
 90
2
 70
0
 10
623571.9905777667
 20
4837527.676497709
 10
623505.7776102463
 20
4837608.828731135
  0
LWPOLYLINE
  5
24B
330
17
100
AcDbEntity
  8
ROADS
100
AcDbPolyline
 90
2
 70
0
 10
623924.4265293195
 20
4837587.191623258
 10
623879.5801927766
 20
4837571.984813621
  0
LWPOLYLINE
  5
24C
330
17
100
AcDbEntity
  8
ROADS
100
AcDbPolyline
 90
3
 70
0
 10
623611.0889829606
 20
4837540.759732243
 10
623639.6772962499
 20
4837569.633214586
 10
623616.0738493071
 20
4837650.931538107
  0
LWPOLYLINE
  5
24D
330
17
100
AcDbEntity
  8
ROADS
100
AcDbPolyline
 90
2
 70
0
 10
623611.0889829606
 20
4837540.759732243
 10
623507.9644276948
 20
4837683.439086671
  0
LWPOLYLINE
  5
24E
330
17
100
AcDbEntity
  8
ROADS
100
AcDbPolyline
 90
2
 70
0
 10
623752.0262439953
 20
4837529.755903126
 10
623687.3597370202
 20
4837733.364962943
  0
LWPOLYLINE
  5
24F
330
17
100
AcDbEntity
  8
ROADS
100
AcDbPolyline
 90
2
 70
0
 10
623838.2938513354
 20
4837558.779491956
 10
623773.4995787083
 20
4837760.272178711
  0
LWPOLYLINE
  5
250
330
17
100
AcDbEntity
  8
ROADS
100
AcDbPolyline
 90
3
 70
0
 10
623550.0843844719
 20
4837689.4771204125
 10
623587.3989112425
 20
4837642.773546372
 10
623616.0738493071
 20
4837650.931538107
  0
LWPOLYLINE
  5
251
330
17
100
AcDbEntity
  8
ROADS
100
AcDbPolyline
 90
2
 70
0
 10
623492.813479041
 20
4837690.3054371765
 10
623454.2652060161
 20
4837659.301726596
  0
LWPOLYLINE
  5
252
330
17
100
AcDbEntity
  8
ROADS
100
AcDbPolyline
 90
2
 70
0
 10
623616.0738493071
 20
4837650.931538107
 10
623599.6446130676
 20
4837705.198207446
  0
LWPOLYLINE
  5
253
330
17
100
AcDbEntity
  8
ROADS
100
AcDbPolyline
 90
2
 70
0
 10
624008.2808719934
 20
4837614.068485747
 10
623924.4265293195
 20
4837587.191623258
  0
LWPOLYLINE
  5
254
330
17
100
AcDbEntity
  8
ROADS
100
AcDbPolyline
 90
2
 70
0
 10
624289.6757281057
 20
4837627.176046276
 10
624240.9131640994
 20
4837610.972339927
  0
LWPOLYLINE
  5
255
330
17
100
AcDbEntity
  8
ROADS
100
AcDbPolyline
 90
2
 70
0
 10
624008.2808719934
 20
4837614.068485747
 10
623975.9297522912
 20
4837715.227738641
  0
LWPOLYLINE
  5
256
330
17
100
AcDbEntity
  8
ROADS
100
AcDbPolyline
 90
2
 70
0
 10
624210.1603625629
 20
4837553.473139193
 10
624106.243544671
 20
4837865.936888858
  0
LWPOLYLINE
  5
257
330
17
100
AcDbEntity
  8
ROADS
100
AcDbPolyline
 90
2
 70
0
 10
624054.2455914994
 20
4837740.789405149
 10
623975.9297522912
 20
4837715.227738641
  0
LWPOLYLINE
  5
258
330
17
100
AcDbEntity
  8
ROADS
100
AcDbPolyline
 90
2
 70
0
 10
624240.9131640994
 20
4837610.972339927
 10
624156.8993935357
 20
4837864.683441791
  0
LWPOLYLINE
  5
259
330
17
100
AcDbEntity
  8
ROADS
100
AcDbPolyline
 90
2
 70
0
 10
624289.6757281057
 20
4837627.176046276
 10
624216.6284138431
 20
4837850.812913158
  0
LWPOLYLINE
  5
25A
330
17
100
AcDbEntity
  8
ROADS
100
AcDbPolyline
 90
2
 70
0
 10
623975.9297522912
 20
4837715.227738641
 10
623944.9521427517
 20
4837816.471816958
  0
LWPOLYLINE
  5
25B
330
17
100
AcDbEntity
  8
ROADS
100
AcDbPolyline
 90
2
 70
0
 10
623944.9521427517
 20
4837816.471816958
 10
623860.3203962476
 20
4837787.736752352
  0
LWPOLYLINE
  5
25C
330
17
100
AcDbEntity
  8
ROADS
100
AcDbPolyline
 90
2
 70
0
 10
623944.9521427517
 20
4837816.471816958
 10
624014.9283176226
 20
4837840.718112178
  0
LWPOLYLINE
  5
25D
330
17
100
AcDbEntity
  8
ROADS
100
AcDbPolyline
 90
2
 70
0
 10
624993.4401845688
 20
4837383.627656779
 10
624978.1368645085
 20
4837378.686703855
  0
LWPOLYLINE
  5
25E
330
17
100
AcDbEntity
  8
ROADS
100
AcDbPolyline
 90
2
 70
0
 10
625024.0851121437
 20
4837443.779730491
 10
625011.0560079738
 20
4837439.441874715
  0
LWPOLYLINE
  5
25F
330
17
100
AcDbEntity
  8
ROADS
100
AcDbPolyline
 90
2
 70
0
 10
624963.3924889385
 20
4837424.5046078125
 10
624914.8167049586
 20
4837408.418284413
  0
LWPOLYLINE
  5
260
330
17
100
AcDbEntity
  8
ROADS
100
AcDbPolyline
 90
2
 70
0
 10
625011.0560079738
 20
4837439.441874715
 10
624963.3924889385
 20
4837424.5046078125
  0
LWPOLYLINE
  5
261
330
17
100
AcDbEntity
  8
ROADS
100
AcDbPolyline
 90
2
 70
0
 10
624836.3792034332
 20
4837323.600175952
 10
624754.3497847641
 20
4837583.440018969
  0
LWPOLYLINE
  5
262
330
17
100
AcDbEntity
  8
ROADS
100
AcDbPolyline
 90
2
 70
0
 10
624867.0890327797
 20
4837392.439308486
 10
624819.7499333891
 20
4837543.650548197
  0
LWPOLYLINE
  5
263
330
17
100
AcDbEntity
  8
ROADS
100
AcDbPolyline
 90
2
 70
0
 10
624914.8167049586
 20
4837408.418284413
 10
624867.2991593368
 20
4837559.542311733
  0
LWPOLYLINE
  5
264
330
17
100
AcDbEntity
  8
ROADS
100
AcDbPolyline
 90
2
 70
0
 10
624963.3924889385
 20
4837424.5046078125
 10
624914.7977124811
 20
4837575.41616228
  0
LWPOLYLINE
  5
265
330
17
100
AcDbEntity
  8
ROADS
100
AcDbPolyline
 90
2
 70
0
 10
625011.0560079738
 20
4837439.441874715
 10
624962.594202423
 20
4837590.852380965
  0
LWPOLYLINE
  5
266
330
17
100
AcDbEntity
  8
ROADS
100
AcDbPolyline
 90
2
 70
0
 10
624867.2991593368
 20
4837559.542311733
 10
624819.7499333891
 20
4837543.650548197
  0
LWPOLYLINE
  5
267
330
17
100
AcDbEntity
  8
ROADS
100
AcDbPolyline
 90
2
 70
0
 10
624914.7977124811
 20
4837575.41616228
 10
624867.2991593368
 20
4837559.542311733
  0
LWPOLYLINE
  5
268
330
17
100
AcDbEntity
  8
ROADS
100
AcDbPolyline
 90
2
 70
0
 10
624819.7499333891
 20
4837543.650548197
 10
624803.750216406
 20
4837594.68050772
  0
LWPOLYLINE
  5
269
330
17
100
AcDbEntity
  8
ROADS
100
AcDbPolyline
 90
2
 70
0
 10
625046.173170619
 20
4837498.045075452
 10
625011.6125718642
 20
4837606.741725978
  0
LWPOLYLINE
  5
26A
330
17
100
AcDbEntity
  8
ROADS
100
AcDbPolyline
 90
2
 70
0
 10
625073.2669685184
 20
4837579.034568939
 10
625059.4116297301
 20
4837622.479016551
  0
LWPOLYLINE
  5
26B
330
17
100
AcDbEntity
  8
ROADS
100
AcDbPolyline
 90
2
 70
0
 10
625059.4116297301
 20
4837622.479016551
 10
625011.6125718642
 20
4837606.741725978
  0
LWPOLYLINE
  5
26C
330
17
100
AcDbEntity
  8
ROADS
100
AcDbPolyline
 90
2
 70
0
 10
624962.594202423
 20
4837590.852380965
 10
624914.7977124811
 20
4837575.41616228
  0
LWPOLYLINE
  5
26D
330
17
100
AcDbEntity
  8
ROADS
100
AcDbPolyline
 90
2
 70
0
 10
624803.750216406
 20
4837594.68050772
 10
624754.3497847641
 20
4837583.440018969
  0
LWPOLYLINE
  5
26E
330
17
100
AcDbEntity
  8
ROADS
100
AcDbPolyline
 90
2
 70
0
 10
624914.7977124811
 20
4837575.41616228
 10
624901.00759817
 20
4837621.055296765
  0
LWPOLYLINE
  5
26F
330
17
100
AcDbEntity
  8
ROADS
100
AcDbPolyline
 90
2
 70
0
 10
625011.6125718642
 20
4837606.741725978
 10
624962.594202423
 20
4837590.852380965
  0
LWPOLYLINE
  5
270
330
17
100
AcDbEntity
  8
ROADS
100
AcDbPolyline
 90
2
 70
0
 10
624901.00759817
 20
4837621.055296765
 10
624803.750216406
 20
4837594.68050772
  0
LWPOLYLINE
  5
271
330
17
100
AcDbEntity
  8
ROADS
100
AcDbPolyline
 90
2
 70
0
 10
624803.750216406
 20
4837594.68050772
 10
624790.9119538021
 20
4837634.580025176
  0
LWPOLYLINE
  5
272
330
17
100
AcDbEntity
  8
ROADS
100
AcDbPolyline
 90
2
 70
0
 10
624997.4293113006
 20
4837652.663778309
 10
624901.00759817
 20
4837621.055296765
  0
LWPOLYLINE
  5
273
330
17
100
AcDbEntity
  8
ROADS
100
AcDbPolyline
 90
2
 70
0
 10
624838.9504965857
 20
4837650.897672811
 10
624790.9119538021
 20
4837634.580025176
  0
LWPOLYLINE
  5
274
330
17
100
AcDbEntity
  8
ROADS
100
AcDbPolyline
 90
2
 70
0
 10
624901.00759817
 20
4837621.055296765
 10
624885.8320516978
 20
4837666.824379875
  0
LWPOLYLINE
  5
275
330
17
100
AcDbEntity
  8
ROADS
100
AcDbPolyline
 90
2
 70
0
 10
624885.8320516978
 20
4837666.824379875
 10
624838.9504965857
 20
4837650.897672811
  0
LWPOLYLINE
  5
276
330
17
100
AcDbEntity
  8
ROADS
100
AcDbPolyline
 90
2
 70
0
 10
625011.6125718642
 20
4837606.741725978
 10
624997.4293113006
 20
4837652.663778309
  0
LWPOLYLINE
  5
277
330
17
100
AcDbEntity
  8
ROADS
100
AcDbPolyline
 90
2
 70
0
 10
625087.8032432279
 20
4837631.753639666
 10
625059.4116297301
 20
4837622.479016551
  0
LWPOLYLINE
  5
278
330
17
100
AcDbEntity
  8
ROADS
100
AcDbPolyline
 90
2
 70
0
 10
625095.5932853967
 20
4837672.8503674995
 10
625091.7442832469
 20
4837684.695201625
  0
LWPOLYLINE
  5
279
330
17
100
AcDbEntity
  8
ROADS
100
AcDbPolyline
 90
2
 70
0
 10
625091.7442832469
 20
4837684.695201625
 10
624997.4293113006
 20
4837652.663778309
  0
LWPOLYLINE
  5
27A
330
17
100
AcDbEntity
  8
ROADS
100
AcDbPolyline
 90
2
 70
0
 10
625098.2459664904
 20
4837686.844709324
 10
625091.7442832469
 20
4837684.695201625
  0
LWPOLYLINE
  5
27B
330
17
100
AcDbEntity
  8
ROADS
100
AcDbPolyline
 90
2
 70
0
 10
624935.0483834246
 20
4837682.660309702
 10
624885.8320516978
 20
4837666.824379875
  0
LWPOLYLINE
  5
27C
330
17
100
AcDbEntity
  8
ROADS
100
AcDbPolyline
 90
2
 70
0
 10
624997.4293113006
 20
4837652.663778309
 10
624981.9461017959
 20
4837697.749271411
  0
LWPOLYLINE
  5
27D
330
17
100
AcDbEntity
  8
ROADS
100
AcDbPolyline
 90
2
 70
0
 10
624754.3497847641
 20
4837583.440018969
 10
624685.7986932172
 20
4837796.8449615715
  0
LWPOLYLINE
  5
27E
330
17
100
AcDbEntity
  8
ROADS
100
AcDbPolyline
 90
2
 70
0
 10
624981.9461017959
 20
4837697.749271411
 10
624935.0483834246
 20
4837682.660309702
  0
LWPOLYLINE
  5
27F
330
17
100
AcDbEntity
  8
ROADS
100
AcDbPolyline
 90
2
 70
0
 10
624790.9119538021
 20
4837634.580025176
 10
624745.7873689327
 20
4837774.815646785
  0
LWPOLYLINE
  5
280
330
17
100
AcDbEntity
  8
ROADS
100
AcDbPolyline
 90
2
 70
0
 10
624838.9504965857
 20
4837650.897672811
 10
624793.8056673262
 20
4837790.371904615
  0
LWPOLYLINE
  5
281
330
17
100
AcDbEntity
  8
ROADS
100
AcDbPolyline
 90
2
 70
0
 10
624885.8320516978
 20
4837666.824379875
 10
624841.3903302217
 20
4837805.962326374
  0
LWPOLYLINE
  5
282
330
17
100
AcDbEntity
  8
ROADS
100
AcDbPolyline
 90
2
 70
0
 10
624935.0483834246
 20
4837682.660309702
 10
624890.5257145377
 20
4837822.34734107
  0
LWPOLYLINE
  5
283
330
17
100
AcDbEntity
  8
ROADS
100
AcDbPolyline
 90
2
 70
0
 10
624981.9461017959
 20
4837697.749271411
 10
624938.618861186
 20
4837837.194426465
  0
LWPOLYLINE
  5
284
330
17
100
AcDbEntity
  8
ROADS
100
AcDbPolyline
 90
2
 70
0
 10
624793.8056673262
 20
4837790.371904615
 10
624745.7873689327
 20
4837774.815646785
  0
LWPOLYLINE
  5
285
330
17
100
AcDbEntity
  8
ROADS
100
AcDbPolyline
 90
2
 70
0
 10
624461.4235917383
 20
4837635.655467249
 10
624447.0300276928
 20
4837678.000447036
  0
LWPOLYLINE
  5
286
330
17
100
AcDbEntity
  8
ROADS
100
AcDbPolyline
 90
2
 70
0
 10
624447.0300276928
 20
4837678.000447036
 10
624398.5250934638
 20
4837662.203907052
  0
LWPOLYLINE
  5
287
330
17
100
AcDbEntity
  8
ROADS
100
AcDbPolyline
 90
2
 70
0
 10
624526.412850738
 20
4837602.491469766
 10
624443.2632058114
 20
4837849.946581389
  0
LWPOLYLINE
  5
288
330
17
100
AcDbEntity
  8
ROADS
100
AcDbPolyline
 90
2
 70
0
 10
624344.5260527899
 20
4837645.014938818
 10
624283.5719545563
 20
4837831.129544379
  0
LWPOLYLINE
  5
289
330
17
100
AcDbEntity
  8
ROADS
100
AcDbPolyline
 90
2
 70
0
 10
624398.5250934638
 20
4837662.203907052
 10
624344.6498909504
 20
4837824.40178178
  0
LWPOLYLINE
  5
28A
330
17
100
AcDbEntity
  8
ROADS
100
AcDbPolyline
 90
2
 70
0
 10
624447.0300276928
 20
4837678.000447036
 10
624395.9742340966
 20
4837834.5985314455
  0
LWPOLYLINE
  5
28B
330
17
100
AcDbEntity
  8
ROADS
100
AcDbPolyline
 90
2
 70
0
 10
624344.6498909504
 20
4837824.40178178
 10
624283.5719545563
 20
4837831.129544379
  0
LWPOLYLINE
  5
28C
330
17
100
AcDbEntity
  8
ROADS
100
AcDbPolyline
 90
2
 70
0
 10
624395.9742340966
 20
4837834.5985314455
 10
624344.6498909504
 20
4837824.40178178
  0
LWPOLYLINE
  5
28D
330
17
100
AcDbEntity
  8
ROADS
100
AcDbPolyline
 90
2
 70
0
 10
624443.2632058114
 20
4837849.946581389
 10
624395.9742340966
 20
4837834.5985314455
  0
LWPOLYLINE
  5
28E
330
17
100
AcDbEntity
  8
ROADS
100
AcDbPolyline
 90
2
 70
0
 10
624685.7986932172
 20
4837796.8449615715
 10
624647.8188557572
 20
4837916.212097522
  0
LWPOLYLINE
  5
28F
330
17
100
AcDbEntity
  8
ROADS
100
AcDbPolyline
 90
2
 70
0
 10
625029.8310991809
 20
4837713.379121884
 10
624981.9461017959
 20
4837697.749271411
  0
LWPOLYLINE
  5
290
330
17
100
AcDbEntity
  8
ROADS
100
AcDbPolyline
 90
2
 70
0
 10
625091.7442832469
 20
4837684.695201625
 10
625077.7633185501
 20
4837729.024831602
  0
LWPOLYLINE
  5
291
330
17
100
AcDbEntity
  8
ROADS
100
AcDbPolyline
 90
2
 70
0
 10
625077.7633185501
 20
4837729.024831602
 10
625029.8310991809
 20
4837713.379121884
  0
LWPOLYLINE
  5
292
330
17
100
AcDbEntity
  8
ROADS
100
AcDbPolyline
 90
2
 70
0
 10
625029.8310991809
 20
4837713.379121884
 10
624986.3937311176
 20
4837852.830303696
  0
LWPOLYLINE
  5
293
330
17
100
AcDbEntity
  8
ROADS
100
AcDbPolyline
 90
2
 70
0
 10
625077.7633185501
 20
4837729.024831602
 10
625034.6279865055
 20
4837868.61250143
  0
LWPOLYLINE
  5
294
330
17
100
AcDbEntity
  8
ROADS
100
AcDbPolyline
 90
2
 70
0
 10
625111.3507577368
 20
4837797.650237276
 10
625069.6097173033
 20
4837930.387591234
  0
LWPOLYLINE
  5
295
330
17
100
AcDbEntity
  8
ROADS
100
AcDbPolyline
 90
2
 70
0
 10
623550.0843844719
 20
4837689.4771204125
 10
623507.9644276948
 20
4837683.439086671
  0
LWPOLYLINE
  5
296
330
17
100
AcDbEntity
  8
ROADS
100
AcDbPolyline
 90
2
 70
0
 10
623507.9644276948
 20
4837683.439086671
 10
623492.813479041
 20
4837690.3054371765
  0
LWPOLYLINE
  5
297
330
17
100
AcDbEntity
  8
ROADS
100
AcDbPolyline
 90
2
 70
0
 10
623924.4265293195
 20
4837587.191623258
 10
623860.3203962476
 20
4837787.736752352
  0
LWPOLYLINE
  5
298
330
17
100
AcDbEntity
  8
ROADS
100
AcDbPolyline
 90
2
 70
0
 10
623599.6446130676
 20
4837705.198207446
 10
623550.0843844719
 20
4837689.4771204125
  0
LWPOLYLINE
  5
299
330
17
100
AcDbEntity
  8
ROADS
100
AcDbPolyline
 90
2
 70
0
 10
623687.3597370202
 20
4837733.364962943
 10
623599.6446130676
 20
4837705.198207446
  0
LWPOLYLINE
  5
29A
330
17
100
AcDbEntity
  8
ROADS
100
AcDbPolyline
 90
2
 70
0
 10
623773.4995787083
 20
4837760.272178711
 10
623687.3597370202
 20
4837733.364962943
  0
LWPOLYLINE
  5
29B
330
17
100
AcDbEntity
  8
ROADS
100
AcDbPolyline
 90
2
 70
0
 10
623507.9644276948
 20
4837683.439086671
 10
623461.9049309015
 20
4837829.591557162
  0
LWPOLYLINE
  5
29C
330
17
100
AcDbEntity
  8
ROADS
100
AcDbPolyline
 90
2
 70
0
 10
623860.3203962476
 20
4837787.736752352
 10
623773.4995787083
 20
4837760.272178711
  0
LWPOLYLINE
  5
29D
330
17
100
AcDbEntity
  8
ROADS
100
AcDbPolyline
 90
2
 70
0
 10
623599.6446130676
 20
4837705.198207446
 10
623553.3053052506
 20
4837861.291163604
  0
LWPOLYLINE
  5
29E
330
17
100
AcDbEntity
  8
ROADS
100
AcDbPolyline
 90
2
 70
0
 10
623687.3597370202
 20
4837733.364962943
 10
623637.3258364648
 20
4837888.207074368
  0
LWPOLYLINE
  5
29F
330
17
100
AcDbEntity
  8
ROADS
100
AcDbPolyline
 90
2
 70
0
 10
623295.400495623
 20
4837716.071585456
 10
623191.2471904487
 20
4837704.352910319
  0
LWPOLYLINE
  5
2A0
330
17
100
AcDbEntity
  8
ROADS
100
AcDbPolyline
 90
2
 70
0
 10
623388.5250113064
 20
4837728.855367918
 10
623295.400495623
 20
4837716.071585456
  0
LWPOLYLINE
  5
2A1
330
17
100
AcDbEntity
  8
ROADS
100
AcDbPolyline
 90
2
 70
0
 10
623295.400495623
 20
4837716.071585456
 10
623280.693148582
 20
4837760.866362868
  0
LWPOLYLINE
  5
2A2
330
17
100
AcDbEntity
  8
ROADS
100
AcDbPolyline
 90
2
 70
0
 10
623191.2471904487
 20
4837704.352910319
 10
623161.3458951279
 20
4837791.209997548
  0
LWPOLYLINE
  5
2A3
330
17
100
AcDbEntity
  8
ROADS
100
AcDbPolyline
 90
2
 70
0
 10
623388.5250113064
 20
4837728.855367918
 10
623376.1423853466
 20
4837771.100570562
  0
LWPOLYLINE
  5
2A4
330
17
100
AcDbEntity
  8
ROADS
100
AcDbPolyline
 90
2
 70
0
 10
623161.3458951279
 20
4837791.209997548
 10
622998.9404383737
 20
4837734.277075359
  0
LWPOLYLINE
  5
2A5
330
17
100
AcDbEntity
  8
ROADS
100
AcDbPolyline
 90
2
 70
0
 10
623280.693148582
 20
4837760.866362868
 10
623376.1423853466
 20
4837771.100570562
  0
LWPOLYLINE
  5
2A6
330
17
100
AcDbEntity
  8
ROADS
100
AcDbPolyline
 90
2
 70
0
 10
622998.9404383737
 20
4837734.277075359
 10
622969.6828178336
 20
4837819.993194568
  0
LWPOLYLINE
  5
2A7
330
17
100
AcDbEntity
  8
ROADS
100
AcDbPolyline
 90
2
 70
0
 10
623376.1423853466
 20
4837771.100570562
 10
623367.6255596693
 20
4837800.152015344
  0
LWPOLYLINE
  5
2A8
330
17
100
AcDbEntity
  8
ROADS
100
AcDbPolyline
 90
3
 70
0
 10
623194.2189877053
 20
4837839.788941759
 10
623224.1659368686
 20
4837752.233140654
 10
623280.693148582
 20
4837760.866362868
  0
LWPOLYLINE
  5
2A9
330
17
100
AcDbEntity
  8
ROADS
100
AcDbPolyline
 90
2
 70
0
 10
622969.6828178336
 20
4837819.993194568
 10
622908.7027515671
 20
4837795.445655221
  0
LWPOLYLINE
  5
2AA
330
17
100
AcDbEntity
  8
ROADS
100
AcDbPolyline
 90
2
 70
0
 10
623161.3458951279
 20
4837791.209997548
 10
623151.1377907424
 20
4837826.244135348
  0
LWPOLYLINE
  5
2AB
330
17
100
AcDbEntity
  8
ROADS
100
AcDbPolyline
 90
2
 70
0
 10
623280.693148582
 20
4837760.866362868
 10
623249.1125641105
 20
4837857.050567364
  0
LWPOLYLINE
  5
2AC
330
17
100
AcDbEntity
  8
ROADS
100
AcDbPolyline
 90
2
 70
0
 10
623461.9049309015
 20
4837829.591557162
 10
623367.6255596693
 20
4837800.152015344
  0
LWPOLYLINE
  5
2AD
330
17
100
AcDbEntity
  8
ROADS
100
AcDbPolyline
 90
2
 70
0
 10
623194.2189877053
 20
4837839.788941759
 10
623151.1377907424
 20
4837826.244135348
  0
LWPOLYLINE
  5
2AE
330
17
100
AcDbEntity
  8
ROADS
100
AcDbPolyline
 90
2
 70
0
 10
623081.637421597
 20
4837862.788033555
 10
623099.1258464591
 20
4837810.725720859
  0
LWPOLYLINE
  5
2AF
330
17
100
AcDbEntity
  8
ROADS
100
AcDbPolyline
 90
2
 70
0
 10
623081.637421597
 20
4837862.788033555
 10
622969.6828178336
 20
4837819.993194568
  0
LWPOLYLINE
  5
2B0
330
17
100
AcDbEntity
  8
ROADS
100
AcDbPolyline
 90
2
 70
0
 10
623367.6255596693
 20
4837800.152015344
 10
623338.6088245083
 20
4837887.9736866
  0
LWPOLYLINE
  5
2B1
330
17
100
AcDbEntity
  8
ROADS
100
AcDbPolyline
 90
2
 70
0
 10
623249.1125641105
 20
4837857.050567364
 10
623194.2189877053
 20
4837839.788941759
  0
LWPOLYLINE
  5
2B2
330
17
100
AcDbEntity
  8
ROADS
100
AcDbPolyline
 90
2
 70
0
 10
623151.1377907424
 20
4837826.244135348
 10
623132.7432426062
 20
4837881.462225499
  0
LWPOLYLINE
  5
2B3
330
17
100
AcDbEntity
  8
ROADS
100
AcDbPolyline
 90
2
 70
0
 10
623773.4995787083
 20
4837760.272178711
 10
623724.0289879425
 20
4837916.25857305
  0
LWPOLYLINE
  5
2B4
330
17
100
AcDbEntity
  8
ROADS
100
AcDbPolyline
 90
2
 70
0
 10
623553.3053052506
 20
4837861.291163604
 10
623461.9049309015
 20
4837829.591557162
  0
LWPOLYLINE
  5
2B5
330
17
100
AcDbEntity
  8
ROADS
100
AcDbPolyline
 90
2
 70
0
 10
623860.3203962476
 20
4837787.736752352
 10
623823.7650750183
 20
4837903.158652213
  0
LWPOLYLINE
  5
2B6
330
17
100
AcDbEntity
  8
ROADS
100
AcDbPolyline
 90
2
 70
0
 10
623637.3258364648
 20
4837888.207074368
 10
623553.3053052506
 20
4837861.291163604
  0
LWPOLYLINE
  5
2B7
330
17
100
AcDbEntity
  8
ROADS
100
AcDbPolyline
 90
2
 70
0
 10
623724.0289879425
 20
4837916.25857305
 10
623637.3258364648
 20
4837888.207074368
  0
LWPOLYLINE
  5
2B8
330
17
100
AcDbEntity
  8
ROADS
100
AcDbPolyline
 90
2
 70
0
 10
623553.3053052506
 20
4837861.291163604
 10
623524.1984445159
 20
4837947.680175476
  0
LWPOLYLINE
  5
2B9
330
17
100
AcDbEntity
  8
ROADS
100
AcDbPolyline
 90
2
 70
0
 10
623823.7650750183
 20
4837903.158652213
 10
623757.7185763094
 20
4837928.394822485
  0
LWPOLYLINE
  5
2BA
330
17
100
AcDbEntity
  8
ROADS
100
AcDbPolyline
 90
2
 70
0
 10
623757.7185763094
 20
4837928.394822485
 10
623724.0289879425
 20
4837916.25857305
  0
LWPOLYLINE
  5
2BB
330
17
100
AcDbEntity
  8
ROADS
100
AcDbPolyline
 90
2
 70
0
 10
623833.872246563
 20
4837969.198379112
 10
623823.7650750183
 20
4837903.158652213
  0
LWPOLYLINE
  5
2BC
330
17
100
AcDbEntity
  8
ROADS
100
AcDbPolyline
 90
2
 70
0
 10
623757.7185763094
 20
4837928.394822485
 10
623669.7870505104
 20
4837995.224659174
  0
LWPOLYLINE
  5
2BD
330
17
100
AcDbEntity
  8
ROADS
100
AcDbPolyline
 90
2
 70
0
 10
623132.7432426062
 20
4837881.462225499
 10
623081.637421597
 20
4837862.788033555
  0
LWPOLYLINE
  5
2BE
330
17
100
AcDbEntity
  8
ROADS
100
AcDbPolyline
 90
2
 70
0
 10
623338.6088245083
 20
4837887.9736866
 10
623249.1125641105
 20
4837857.050567364
  0
LWPOLYLINE
  5
2BF
330
17
100
AcDbEntity
  8
ROADS
100
AcDbPolyline
 90
2
 70
0
 10
623194.2189877053
 20
4837839.788941759
 10
623166.5182588634
 20
4837925.568262504
  0
LWPOLYLINE
  5
2C0
330
17
100
AcDbEntity
  8
ROADS
100
AcDbPolyline
 90
2
 70
0
 10
622969.6828178336
 20
4837819.993194568
 10
622916.8734083486
 20
4837966.952376112
  0
LWPOLYLINE
  5
2C1
330
17
100
AcDbEntity
  8
ROADS
100
AcDbPolyline
 90
2
 70
0
 10
623132.7432426062
 20
4837881.462225499
 10
623122.8190721822
 20
4837911.966266674
  0
LWPOLYLINE
  5
2C2
330
17
100
AcDbEntity
  8
ROADS
100
AcDbPolyline
 90
2
 70
0
 10
623524.1984445159
 20
4837947.680175476
 10
623338.6088245083
 20
4837887.9736866
  0
LWPOLYLINE
  5
2C3
330
17
100
AcDbEntity
  8
ROADS
100
AcDbPolyline
 90
2
 70
0
 10
623166.5182588634
 20
4837925.568262504
 10
623122.8190721822
 20
4837911.966266674
  0
LWPOLYLINE
  5
2C4
330
17
100
AcDbEntity
  8
ROADS
100
AcDbPolyline
 90
2
 70
0
 10
623338.6088245083
 20
4837887.9736866
 10
623310.8764884196
 20
4837975.554559946
  0
LWPOLYLINE
  5
2C5
330
17
100
AcDbEntity
  8
ROADS
100
AcDbPolyline
 90
2
 70
0
 10
623310.8764884196
 20
4837975.554559946
 10
623166.5182588634
 20
4837925.568262504
  0
LWPOLYLINE
  5
2C6
330
17
100
AcDbEntity
  8
ROADS
100
AcDbPolyline
 90
2
 70
0
 10
623122.8190721822
 20
4837911.966266674
 10
623087.7556744514
 20
4838011.087069654
  0
LWPOLYLINE
  5
2C7
330
17
100
AcDbEntity
  8
ROADS
100
AcDbPolyline
 90
2
 70
0
 10
624283.5719545563
 20
4837831.129544379
 10
624216.6284138431
 20
4837850.812913158
  0
LWPOLYLINE
  5
2C8
330
17
100
AcDbEntity
  8
ROADS
100
AcDbPolyline
 90
2
 70
0
 10
624106.243544671
 20
4837865.936888858
 10
624014.9283176226
 20
4837840.718112178
  0
LWPOLYLINE
  5
2C9
330
17
100
AcDbEntity
  8
ROADS
100
AcDbPolyline
 90
2
 70
0
 10
624216.6284138431
 20
4837850.812913158
 10
624156.8993935357
 20
4837864.683441791
  0
LWPOLYLINE
  5
2CA
330
17
100
AcDbEntity
  8
ROADS
100
AcDbPolyline
 90
2
 70
0
 10
624156.8993935357
 20
4837864.683441791
 10
624106.243544671
 20
4837865.936888858
  0
LWPOLYLINE
  5
2CB
330
17
100
AcDbEntity
  8
ROADS
100
AcDbPolyline
 90
2
 70
0
 10
624106.243544671
 20
4837865.936888858
 10
624089.6084700993
 20
4837916.016184163
  0
LWPOLYLINE
  5
2CC
330
17
100
AcDbEntity
  8
ROADS
100
AcDbPolyline
 90
2
 70
0
 10
624156.8993935357
 20
4837864.683441791
 10
624135.740935955
 20
4837927.405107033
  0
LWPOLYLINE
  5
2CD
330
17
100
AcDbEntity
  8
ROADS
100
AcDbPolyline
 90
2
 70
0
 10
624283.5719545563
 20
4837831.129544379
 10
624239.8209443416
 20
4837961.107223875
  0
LWPOLYLINE
  5
2CE
330
17
100
AcDbEntity
  8
ROADS
100
AcDbPolyline
 90
2
 70
0
 10
623944.9521427517
 20
4837816.471816958
 10
623902.7378420047
 20
4838047.879456651
  0
LWPOLYLINE
  5
2CF
330
17
100
AcDbEntity
  8
ROADS
100
AcDbPolyline
 90
2
 70
0
 10
624239.8209443416
 20
4837961.107223875
 10
624135.740935955
 20
4837927.405107033
  0
LWPOLYLINE
  5
2D0
330
17
100
AcDbEntity
  8
ROADS
100
AcDbPolyline
 90
2
 70
0
 10
624135.740935955
 20
4837927.405107033
 10
624121.4901547908
 20
4837969.650610732
  0
LWPOLYLINE
  5
2D1
330
17
100
AcDbEntity
  8
ROADS
100
AcDbPolyline
 90
2
 70
0
 10
624089.6084700993
 20
4837916.016184163
 10
624061.2985136916
 20
4837996.714442715
  0
LWPOLYLINE
  5
2D2
330
17
100
AcDbEntity
  8
ROADS
100
AcDbPolyline
 90
2
 70
0
 10
624294.2226605443
 20
4837978.977057053
 10
624239.8209443416
 20
4837961.107223875
  0
LWPOLYLINE
  5
2D3
330
17
100
AcDbEntity
  8
ROADS
100
AcDbPolyline
 90
4
 70
0
 10
624089.6084700993
 20
4837916.016184163
 10
624033.0217198677
 20
4837896.871787557
 10
623995.1389544789
 20
4838047.145558281
 10
624040.4307654747
 20
4838061.912470214
  0
LWPOLYLINE
  5
2D4
330
17
100
AcDbEntity
  8
ROADS
100
AcDbPolyline
 90
2
 70
0
 10
624239.8209443416
 20
4837961.107223875
 10
624225.414086904
 20
4838003.908946235
  0
LWPOLYLINE
  5
2D5
330
17
100
AcDbEntity
  8
ROADS
100
AcDbPolyline
 90
2
 70
0
 10
624225.414086904
 20
4838003.908946235
 10
624121.4901547908
 20
4837969.650610732
  0
LWPOLYLINE
  5
2D6
330
17
100
AcDbEntity
  8
ROADS
100
AcDbPolyline
 90
2
 70
0
 10
624121.4901547908
 20
4837969.650610732
 10
624108.0668992379
 20
4838012.035084565
  0
LWPOLYLINE
  5
2D7
330
17
100
AcDbEntity
  8
ROADS
100
AcDbPolyline
 90
2
 70
0
 10
624108.0668992379
 20
4838012.035084565
 10
624061.2985136916
 20
4837996.714442715
  0
LWPOLYLINE
  5
2D8
330
17
100
AcDbEntity
  8
ROADS
100
AcDbPolyline
 90
2
 70
0
 10
624158.3225170019
 20
4838028.569863763
 10
624108.0668992379
 20
4838012.035084565
  0
LWPOLYLINE
  5
2D9
330
17
100
AcDbEntity
  8
ROADS
100
AcDbPolyline
 90
2
 70
0
 10
624328.7336856229
 20
4838037.964361795
 10
624225.414086904
 20
4838003.908946235
  0
LWPOLYLINE
  5
2DA
330
17
100
AcDbEntity
  8
ROADS
100
AcDbPolyline
 90
2
 70
0
 10
624225.414086904
 20
4838003.908946235
 10
624211.3410479801
 20
4838046.776705861
  0
LWPOLYLINE
  5
2DB
330
17
100
AcDbEntity
  8
ROADS
100
AcDbPolyline
 90
2
 70
0
 10
623166.5182588634
 20
4837925.568262504
 10
623132.2537387469
 20
4838026.024592063
  0
LWPOLYLINE
  5
2DC
330
17
100
AcDbEntity
  8
ROADS
100
AcDbPolyline
 90
2
 70
0
 10
623495.2480078407
 20
4838034.985048506
 10
623310.8764884196
 20
4837975.554559946
  0
LWPOLYLINE
  5
2DD
330
17
100
AcDbEntity
  8
ROADS
100
AcDbPolyline
 90
2
 70
0
 10
623132.2537387469
 20
4838026.024592063
 10
623087.7556744514
 20
4838011.087069654
  0
LWPOLYLINE
  5
2DE
330
17
100
AcDbEntity
  8
ROADS
100
AcDbPolyline
 90
2
 70
0
 10
623310.8764884196
 20
4837975.554559946
 10
623277.5151704963
 20
4838074.784201423
  0
LWPOLYLINE
  5
2DF
330
17
100
AcDbEntity
  8
ROADS
100
AcDbPolyline
 90
2
 70
0
 10
623087.7556744514
 20
4838011.087069654
 10
623068.1584517625
 20
4838069.157530329
  0
LWPOLYLINE
  5
2E0
330
17
100
AcDbEntity
  8
ROADS
100
AcDbPolyline
 90
2
 70
0
 10
623277.5151704963
 20
4838074.784201423
 10
623132.2537387469
 20
4838026.024592063
  0
LWPOLYLINE
  5
2E1
330
17
100
AcDbEntity
  8
ROADS
100
AcDbPolyline
 90
2
 70
0
 10
623068.1584517625
 20
4838069.157530329
 10
622966.2235931318
 20
4838035.197274771
  0
LWPOLYLINE
  5
2E2
330
17
100
AcDbEntity
  8
ROADS
100
AcDbPolyline
 90
2
 70
0
 10
623132.2537387469
 20
4838026.024592063
 10
623098.460669062
 20
4838126.953451802
  0
LWPOLYLINE
  5
2E3
330
17
100
AcDbEntity
  8
ROADS
100
AcDbPolyline
 90
2
 70
0
 10
623053.5497881263
 20
4838112.447472661
 10
622886.5773898917
 20
4838058.213947737
  0
LWPOLYLINE
  5
2E4
330
17
100
AcDbEntity
  8
ROADS
100
AcDbPolyline
 90
2
 70
0
 10
623068.1584517625
 20
4838069.157530329
 10
623053.5497881263
 20
4838112.447472661
  0
LWPOLYLINE
  5
2E5
330
17
100
AcDbEntity
  8
ROADS
100
AcDbPolyline
 90
2
 70
0
 10
623669.7870505104
 20
4837995.224659174
 10
623524.1984445159
 20
4837947.680175476
  0
LWPOLYLINE
  5
2E6
330
17
100
AcDbEntity
  8
ROADS
100
AcDbPolyline
 90
2
 70
0
 10
623524.1984445159
 20
4837947.680175476
 10
623495.2480078407
 20
4838034.985048506
  0
LWPOLYLINE
  5
2E7
330
17
100
AcDbEntity
  8
ROADS
100
AcDbPolyline
 90
3
 70
0
 10
623902.7378420047
 20
4838047.879456651
 10
623861.8392513238
 20
4838033.971051436
 10
623833.872246563
 20
4837969.198379112
  0
LWPOLYLINE
  5
2E8
330
17
100
AcDbEntity
  8
ROADS
100
AcDbPolyline
 90
2
 70
0
 10
623700.0149020351
 20
4838030.872187691
 10
623737.65075441
 20
4838000.245272771
  0
LWPOLYLINE
  5
2E9
330
17
100
AcDbEntity
  8
ROADS
100
AcDbPolyline
 90
2
 70
0
 10
623833.872246563
 20
4837969.198379112
 10
623736.2946409353
 20
4838066.156156933
  0
LWPOLYLINE
  5
2EA
330
17
100
AcDbEntity
  8
ROADS
100
AcDbPolyline
 90
2
 70
0
 10
623669.7870505104
 20
4837995.224659174
 10
623613.1212827705
 20
4838078.376098063
  0
LWPOLYLINE
  5
2EB
330
17
100
AcDbEntity
  8
ROADS
100
AcDbPolyline
 90
2
 70
0
 10
623736.2946409353
 20
4838066.156156933
 10
623700.0149020351
 20
4838030.872187691
  0
LWPOLYLINE
  5
2EC
330
17
100
AcDbEntity
  8
ROADS
100
AcDbPolyline
 90
2
 70
0
 10
623664.2224425059
 20
4838073.094032353
 10
623700.0149020351
 20
4838030.872187691
  0
LWPOLYLINE
  5
2ED
330
17
100
AcDbEntity
  8
ROADS
100
AcDbPolyline
 90
2
 70
0
 10
623613.1212827705
 20
4838078.376098063
 10
623495.2480078407
 20
4838034.985048506
  0
LWPOLYLINE
  5
2EE
330
17
100
AcDbEntity
  8
ROADS
100
AcDbPolyline
 90
2
 70
0
 10
623495.2480078407
 20
4838034.985048506
 10
623461.088724876
 20
4838134.540323723
  0
LWPOLYLINE
  5
2EF
330
17
100
AcDbEntity
  8
ROADS
100
AcDbPolyline
 90
2
 70
0
 10
624061.2985136916
 20
4837996.714442715
 10
624040.4307654747
 20
4838061.912470214
  0
LWPOLYLINE
  5
2F0
330
17
100
AcDbEntity
  8
ROADS
100
AcDbPolyline
 90
2
 70
0
 10
624211.3410479801
 20
4838046.776705861
 10
624158.3225170019
 20
4838028.569863763
  0
LWPOLYLINE
  5
2F1
330
17
100
AcDbEntity
  8
ROADS
100
AcDbPolyline
 90
2
 70
0
 10
623950.1099468702
 20
4838056.5256679505
 10
623902.7378420047
 20
4838047.879456651
  0
LWPOLYLINE
  5
2F2
330
17
100
AcDbEntity
  8
ROADS
100
AcDbPolyline
 90
2
 70
0
 10
624211.3410479801
 20
4838046.776705861
 10
624266.6470929332
 20
4838063.745858979
  0
LWPOLYLINE
  5
2F3
330
17
100
AcDbEntity
  8
ROADS
100
AcDbPolyline
 90
2
 70
0
 10
624266.6470929332
 20
4838063.745858979
 10
624315.2506328592
 20
4838079.617738752
  0
LWPOLYLINE
  5
2F4
330
17
100
AcDbEntity
  8
ROADS
100
AcDbPolyline
 90
2
 70
0
 10
624108.0668992379
 20
4838012.035084565
 10
624061.7164587376
 20
4838158.3925236715
  0
LWPOLYLINE
  5
2F5
330
17
100
AcDbEntity
  8
ROADS
100
AcDbPolyline
 90
2
 70
0
 10
624158.3225170019
 20
4838028.569863763
 10
624110.7193409279
 20
4838174.4106383175
  0
LWPOLYLINE
  5
2F6
330
17
100
AcDbEntity
  8
ROADS
100
AcDbPolyline
 90
2
 70
0
 10
624211.3410479801
 20
4838046.776705861
 10
624163.7515884954
 20
4838191.747703066
  0
LWPOLYLINE
  5
2F7
330
17
100
AcDbEntity
  8
ROADS
100
AcDbPolyline
 90
2
 70
0
 10
624040.4307654747
 20
4838061.912470214
 10
624000.5284025127
 20
4838186.084328833
  0
LWPOLYLINE
  5
2F8
330
17
100
AcDbEntity
  8
ROADS
100
AcDbPolyline
 90
2
 70
0
 10
624266.6470929332
 20
4838063.745858979
 10
624218.7414500368
 20
4838210.052230374
  0
LWPOLYLINE
  5
2F9
330
17
100
AcDbEntity
  8
ROADS
100
AcDbPolyline
 90
2
 70
0
 10
624745.7873689327
 20
4837774.815646785
 10
624732.3774503458
 20
4837816.490409499
  0
LWPOLYLINE
  5
2FA
330
17
100
AcDbEntity
  8
ROADS
100
AcDbPolyline
 90
2
 70
0
 10
624841.3903302217
 20
4837805.962326374
 10
624793.8056673262
 20
4837790.371904615
  0
LWPOLYLINE
  5
2FB
330
17
100
AcDbEntity
  8
ROADS
100
AcDbPolyline
 90
2
 70
0
 10
624685.7986932172
 20
4837796.8449615715
 10
624732.3774503458
 20
4837816.490409499
  0
LWPOLYLINE
  5
2FC
330
17
100
AcDbEntity
  8
ROADS
100
AcDbPolyline
 90
2
 70
0
 10
624890.5257145377
 20
4837822.34734107
 10
624841.3903302217
 20
4837805.962326374
  0
LWPOLYLINE
  5
2FD
330
17
100
AcDbEntity
  8
ROADS
100
AcDbPolyline
 90
2
 70
0
 10
624841.3903302217
 20
4837805.962326374
 10
624827.5838747645
 20
4837851.895162541
  0
LWPOLYLINE
  5
2FE
330
17
100
AcDbEntity
  8
ROADS
100
AcDbPolyline
 90
2
 70
0
 10
624938.618861186
 20
4837837.194426465
 10
624890.5257145377
 20
4837822.34734107
  0
LWPOLYLINE
  5
2FF
330
17
100
AcDbEntity
  8
ROADS
100
AcDbPolyline
 90
2
 70
0
 10
624827.5838747645
 20
4837851.895162541
 10
624732.3774503458
 20
4837816.490409499
  0
LWPOLYLINE
  5
300
330
17
100
AcDbEntity
  8
ROADS
100
AcDbPolyline
 90
2
 70
0
 10
624732.3774503458
 20
4837816.490409499
 10
624716.4069974048
 20
4837866.287305297
  0
LWPOLYLINE
  5
301
330
17
100
AcDbEntity
  8
ROADS
100
AcDbPolyline
 90
2
 70
0
 10
624986.3937311176
 20
4837852.830303696
 10
624938.618861186
 20
4837837.194426465
  0
LWPOLYLINE
  5
302
330
17
100
AcDbEntity
  8
ROADS
100
AcDbPolyline
 90
2
 70
0
 10
624938.618861186
 20
4837837.194426465
 10
624924.0887026929
 20
4837883.10818543
  0
LWPOLYLINE
  5
303
330
17
100
AcDbEntity
  8
ROADS
100
AcDbPolyline
 90
2
 70
0
 10
625034.6279865055
 20
4837868.61250143
 10
624986.3937311176
 20
4837852.830303696
  0
LWPOLYLINE
  5
304
330
17
100
AcDbEntity
  8
ROADS
100
AcDbPolyline
 90
2
 70
0
 10
625034.6279865055
 20
4837868.61250143
 10
625019.3575549748
 20
4837914.206866513
  0
LWPOLYLINE
  5
305
330
17
100
AcDbEntity
  8
ROADS
100
AcDbPolyline
 90
2
 70
0
 10
625069.6097173033
 20
4837930.387591234
 10
625019.3575549748
 20
4837914.206866513
  0
LWPOLYLINE
  5
306
330
17
100
AcDbEntity
  8
ROADS
100
AcDbPolyline
 90
2
 70
0
 10
625019.3575549748
 20
4837914.206866513
 10
625005.4469819744
 20
4837960.365852478
  0
LWPOLYLINE
  5
307
330
17
100
AcDbEntity
  8
ROADS
100
AcDbPolyline
 90
2
 70
0
 10
625109.3136251752
 20
4837943.133175856
 10
625069.6097173033
 20
4837930.387591234
  0
LWPOLYLINE
  5
308
330
17
100
AcDbEntity
  8
ROADS
100
AcDbPolyline
 90
2
 70
0
 10
624924.0887026929
 20
4837883.10818543
 10
624827.5838747645
 20
4837851.895162541
  0
LWPOLYLINE
  5
309
330
17
100
AcDbEntity
  8
ROADS
100
AcDbPolyline
 90
2
 70
0
 10
624716.4069974048
 20
4837866.287305297
 10
624764.5907896364
 20
4837882.341595244
  0
LWPOLYLINE
  5
30A
330
17
100
AcDbEntity
  8
ROADS
100
AcDbPolyline
 90
2
 70
0
 10
624827.5838747645
 20
4837851.895162541
 10
624813.0950590285
 20
4837897.679646243
  0
LWPOLYLINE
  5
30B
330
17
100
AcDbEntity
  8
ROADS
100
AcDbPolyline
 90
2
 70
0
 10
624764.5907896364
 20
4837882.341595244
 10
624813.0950590285
 20
4837897.679646243
  0
LWPOLYLINE
  5
30C
330
17
100
AcDbEntity
  8
ROADS
100
AcDbPolyline
 90
2
 70
0
 10
625019.3575549748
 20
4837914.206866513
 10
624924.0887026929
 20
4837883.10818543
  0
LWPOLYLINE
  5
30D
330
17
100
AcDbEntity
  8
ROADS
100
AcDbPolyline
 90
2
 70
0
 10
624716.4069974048
 20
4837866.287305297
 10
624695.8104912152
 20
4837931.9143971335
  0
LWPOLYLINE
  5
30E
330
17
100
AcDbEntity
  8
ROADS
100
AcDbPolyline
 90
2
 70
0
 10
624860.8732720579
 20
4837913.51659811
 10
624813.0950590285
 20
4837897.679646243
  0
LWPOLYLINE
  5
30F
330
17
100
AcDbEntity
  8
ROADS
100
AcDbPolyline
 90
2
 70
0
 10
624924.0887026929
 20
4837883.10818543
 10
624909.1812514099
 20
4837929.313133142
  0
LWPOLYLINE
  5
310
330
17
100
AcDbEntity
  8
ROADS
100
AcDbPolyline
 90
2
 70
0
 10
624764.5907896364
 20
4837882.341595244
 10
624744.4561387296
 20
4837947.176005051
  0
LWPOLYLINE
  5
311
330
17
100
AcDbEntity
  8
ROADS
100
AcDbPolyline
 90
2
 70
0
 10
624909.1812514099
 20
4837929.313133142
 10
624860.8732720579
 20
4837913.51659811
  0
LWPOLYLINE
  5
312
330
17
100
AcDbEntity
  8
ROADS
100
AcDbPolyline
 90
2
 70
0
 10
624647.8188557572
 20
4837916.212097522
 10
624443.2632058114
 20
4837849.946581389
  0
LWPOLYLINE
  5
313
330
17
100
AcDbEntity
  8
ROADS
100
AcDbPolyline
 90
2
 70
0
 10
624344.6498909504
 20
4837824.40178178
 10
624294.2226605443
 20
4837978.977057053
  0
LWPOLYLINE
  5
314
330
17
100
AcDbEntity
  8
ROADS
100
AcDbPolyline
 90
2
 70
0
 10
624395.9742340966
 20
4837834.5985314455
 10
624342.9458606684
 20
4837994.979096821
  0
LWPOLYLINE
  5
315
330
17
100
AcDbEntity
  8
ROADS
100
AcDbPolyline
 90
2
 70
0
 10
624695.8104912152
 20
4837931.9143971335
 10
624647.8188557572
 20
4837916.212097522
  0
LWPOLYLINE
  5
316
330
17
100
AcDbEntity
  8
ROADS
100
AcDbPolyline
 90
2
 70
0
 10
624443.2632058114
 20
4837849.946581389
 10
624391.0827404191
 20
4838010.057487577
  0
LWPOLYLINE
  5
317
330
17
100
AcDbEntity
  8
ROADS
100
AcDbPolyline
 90
2
 70
0
 10
624342.9458606684
 20
4837994.979096821
 10
624294.2226605443
 20
4837978.977057053
  0
LWPOLYLINE
  5
318
330
17
100
AcDbEntity
  8
ROADS
100
AcDbPolyline
 90
2
 70
0
 10
624342.9458606684
 20
4837994.979096821
 10
624391.0827404191
 20
4838010.057487577
  0
LWPOLYLINE
  5
319
330
17
100
AcDbEntity
  8
ROADS
100
AcDbPolyline
 90
2
 70
0
 10
624342.9458606684
 20
4837994.979096821
 10
624328.7336856229
 20
4838037.964361795
  0
LWPOLYLINE
  5
31A
330
17
100
AcDbEntity
  8
ROADS
100
AcDbPolyline
 90
2
 70
0
 10
624675.9059737416
 20
4837994.861849979
 10
624661.4854363332
 20
4838040.464532032
  0
LWPOLYLINE
  5
31B
330
17
100
AcDbEntity
  8
ROADS
100
AcDbPolyline
 90
2
 70
0
 10
624661.4854363332
 20
4838040.464532032
 10
624615.1497309513
 20
4838025.545709455
  0
LWPOLYLINE
  5
31C
330
17
100
AcDbEntity
  8
ROADS
100
AcDbPolyline
 90
2
 70
0
 10
624813.0950590285
 20
4837897.679646243
 10
624792.2543564346
 20
4837962.2932832325
  0
LWPOLYLINE
  5
31D
330
17
100
AcDbEntity
  8
ROADS
100
AcDbPolyline
 90
2
 70
0
 10
624957.231779506
 20
4837944.913005611
 10
624909.1812514099
 20
4837929.313133142
  0
LWPOLYLINE
  5
31E
330
17
100
AcDbEntity
  8
ROADS
100
AcDbPolyline
 90
2
 70
0
 10
624744.4561387296
 20
4837947.176005051
 10
624695.8104912152
 20
4837931.9143971335
  0
LWPOLYLINE
  5
31F
330
17
100
AcDbEntity
  8
ROADS
100
AcDbPolyline
 90
2
 70
0
 10
624860.8732720579
 20
4837913.51659811
 10
624840.599496739
 20
4837977.914484682
  0
LWPOLYLINE
  5
320
330
17
100
AcDbEntity
  8
ROADS
100
AcDbPolyline
 90
2
 70
0
 10
625005.4469819744
 20
4837960.365852478
 10
624957.231779506
 20
4837944.913005611
  0
LWPOLYLINE
  5
321
330
17
100
AcDbEntity
  8
ROADS
100
AcDbPolyline
 90
2
 70
0
 10
624792.2543564346
 20
4837962.2932832325
 10
624744.4561387296
 20
4837947.176005051
  0
LWPOLYLINE
  5
322
330
17
100
AcDbEntity
  8
ROADS
100
AcDbPolyline
 90
2
 70
0
 10
624909.1812514099
 20
4837929.313133142
 10
624888.5623236371
 20
4837993.662783194
  0
LWPOLYLINE
  5
323
330
17
100
AcDbEntity
  8
ROADS
100
AcDbPolyline
 90
2
 70
0
 10
624695.8104912152
 20
4837931.9143971335
 10
624675.9059737416
 20
4837994.861849979
  0
LWPOLYLINE
  5
324
330
17
100
AcDbEntity
  8
ROADS
100
AcDbPolyline
 90
2
 70
0
 10
624840.599496739
 20
4837977.914484682
 10
624792.2543564346
 20
4837962.2932832325
  0
LWPOLYLINE
  5
325
330
17
100
AcDbEntity
  8
ROADS
100
AcDbPolyline
 90
2
 70
0
 10
624957.231779506
 20
4837944.913005611
 10
624936.7705830041
 20
4838009.056505261
  0
LWPOLYLINE
  5
326
330
17
100
AcDbEntity
  8
ROADS
100
AcDbPolyline
 90
2
 70
0
 10
624744.4561387296
 20
4837947.176005051
 10
624724.0256793496
 20
4838010.615981173
  0
LWPOLYLINE
  5
327
330
17
100
AcDbEntity
  8
ROADS
100
AcDbPolyline
 90
2
 70
0
 10
624888.5623236371
 20
4837993.662783194
 10
624840.599496739
 20
4837977.914484682
  0
LWPOLYLINE
  5
328
330
17
100
AcDbEntity
  8
ROADS
100
AcDbPolyline
 90
2
 70
0
 10
624792.2543564346
 20
4837962.2932832325
 10
624771.2317402958
 20
4838026.071576585
  0
LWPOLYLINE
  5
329
330
17
100
AcDbEntity
  8
ROADS
100
AcDbPolyline
 90
2
 70
0
 10
624936.7705830041
 20
4838009.056505261
 10
624888.5623236371
 20
4837993.662783194
  0
LWPOLYLINE
  5
32A
330
17
100
AcDbEntity
  8
ROADS
100
AcDbPolyline
 90
2
 70
0
 10
624724.0256793496
 20
4838010.615981173
 10
624675.9059737416
 20
4837994.861849979
  0
LWPOLYLINE
  5
32B
330
17
100
AcDbEntity
  8
ROADS
100
AcDbPolyline
 90
2
 70
0
 10
624840.599496739
 20
4837977.914484682
 10
624820.3167689204
 20
4838041.75617119
  0
LWPOLYLINE
  5
32C
330
17
100
AcDbEntity
  8
ROADS
100
AcDbPolyline
 90
2
 70
0
 10
624984.111091923
 20
4838024.323530836
 10
624936.7705830041
 20
4838009.056505261
  0
LWPOLYLINE
  5
32D
330
17
100
AcDbEntity
  8
ROADS
100
AcDbPolyline
 90
2
 70
0
 10
624771.2317402958
 20
4838026.071576585
 10
624724.0256793496
 20
4838010.615981173
  0
LWPOLYLINE
  5
32E
330
17
100
AcDbEntity
  8
ROADS
100
AcDbPolyline
 90
2
 70
0
 10
624888.5623236371
 20
4837993.662783194
 10
624868.4582310211
 20
4838057.30369763
  0
LWPOLYLINE
  5
32F
330
17
100
AcDbEntity
  8
ROADS
100
AcDbPolyline
 90
2
 70
0
 10
624820.3167689204
 20
4838041.75617119
 10
624771.2317402958
 20
4838026.071576585
  0
LWPOLYLINE
  5
330
330
17
100
AcDbEntity
  8
ROADS
100
AcDbPolyline
 90
2
 70
0
 10
625069.6097173033
 20
4837930.387591234
 10
625033.3565890267
 20
4838043.440227559
  0
LWPOLYLINE
  5
331
330
17
100
AcDbEntity
  8
ROADS
100
AcDbPolyline
 90
2
 70
0
 10
625005.4469819744
 20
4837960.365852478
 10
624984.111091923
 20
4838024.323530836
  0
LWPOLYLINE
  5
332
330
17
100
AcDbEntity
  8
ROADS
100
AcDbPolyline
 90
2
 70
0
 10
625106.8065323258
 20
4837965.523012995
 10
625076.0157631927
 20
4838060.066672753
  0
LWPOLYLINE
  5
333
330
17
100
AcDbEntity
  8
ROADS
100
AcDbPolyline
 90
2
 70
0
 10
625033.3565890267
 20
4838043.440227559
 10
624984.111091923
 20
4838024.323530836
  0
LWPOLYLINE
  5
334
330
17
100
AcDbEntity
  8
ROADS
100
AcDbPolyline
 90
2
 70
0
 10
624936.7705830041
 20
4838009.056505261
 10
624916.4974767028
 20
4838073.084392661
  0
LWPOLYLINE
  5
335
330
17
100
AcDbEntity
  8
ROADS
100
AcDbPolyline
 90
2
 70
0
 10
624868.4582310211
 20
4838057.30369763
 10
624820.3167689204
 20
4838041.75617119
  0
LWPOLYLINE
  5
336
330
17
100
AcDbEntity
  8
ROADS
100
AcDbPolyline
 90
2
 70
0
 10
624771.2317402958
 20
4838026.071576585
 10
624757.249880266
 20
4838073.075280934
  0
LWPOLYLINE
  5
337
330
17
100
AcDbEntity
  8
ROADS
100
AcDbPolyline
 90
2
 70
0
 10
624984.111091923
 20
4838024.323530836
 10
624962.8728184775
 20
4838088.467977079
  0
LWPOLYLINE
  5
338
330
17
100
AcDbEntity
  8
ROADS
100
AcDbPolyline
 90
2
 70
0
 10
624757.249880266
 20
4838073.075280934
 10
624661.4854363332
 20
4838040.464532032
  0
LWPOLYLINE
  5
339
330
17
100
AcDbEntity
  8
ROADS
100
AcDbPolyline
 90
2
 70
0
 10
624916.4974767028
 20
4838073.084392661
 10
624868.4582310211
 20
4838057.30369763
  0
LWPOLYLINE
  5
33A
330
17
100
AcDbEntity
  8
ROADS
100
AcDbPolyline
 90
2
 70
0
 10
624868.4582310211
 20
4838057.30369763
 10
624852.9355910239
 20
4838103.516004554
  0
LWPOLYLINE
  5
33B
330
17
100
AcDbEntity
  8
ROADS
100
AcDbPolyline
 90
2
 70
0
 10
624962.8728184775
 20
4838088.467977079
 10
624916.4974767028
 20
4838073.084392661
  0
LWPOLYLINE
  5
33C
330
17
100
AcDbEntity
  8
ROADS
100
AcDbPolyline
 90
2
 70
0
 10
624852.9355910239
 20
4838103.516004554
 10
624757.249880266
 20
4838073.075280934
  0
LWPOLYLINE
  5
33D
330
17
100
AcDbEntity
  8
ROADS
100
AcDbPolyline
 90
2
 70
0
 10
624757.249880266
 20
4838073.075280934
 10
624742.8419973177
 20
4838118.862209879
  0
LWPOLYLINE
  5
33E
330
17
100
AcDbEntity
  8
ROADS
100
AcDbPolyline
 90
2
 70
0
 10
625076.0157631927
 20
4838060.066672753
 10
625033.3565890267
 20
4838043.440227559
  0
LWPOLYLINE
  5
33F
330
17
100
AcDbEntity
  8
ROADS
100
AcDbPolyline
 90
2
 70
0
 10
625090.422696563
 20
4838066.849112302
 10
625076.0157631927
 20
4838060.066672753
  0
LWPOLYLINE
  5
340
330
17
100
AcDbEntity
  8
ROADS
100
AcDbPolyline
 90
2
 70
0
 10
625033.3565890267
 20
4838043.440227559
 10
625005.9584164858
 20
4838130.533549333
  0
LWPOLYLINE
  5
341
330
17
100
AcDbEntity
  8
ROADS
100
AcDbPolyline
 90
2
 70
0
 10
625076.0157631927
 20
4838060.066672753
 10
625048.3629669347
 20
4838145.39630109
  0
LWPOLYLINE
  5
342
330
17
100
AcDbEntity
  8
ROADS
100
AcDbPolyline
 90
2
 70
0
 10
624328.7336856229
 20
4838037.964361795
 10
624315.2506328592
 20
4838079.617738752
  0
LWPOLYLINE
  5
343
330
17
100
AcDbEntity
  8
ROADS
100
AcDbPolyline
 90
2
 70
0
 10
624661.4854363332
 20
4838040.464532032
 10
624647.7210202583
 20
4838084.51399217
  0
LWPOLYLINE
  5
344
330
17
100
AcDbEntity
  8
ROADS
100
AcDbPolyline
 90
2
 70
0
 10
624647.7210202583
 20
4838084.51399217
 10
624598.6500808067
 20
4838067.609587487
  0
LWPOLYLINE
  5
345
330
17
100
AcDbEntity
  8
ROADS
100
AcDbPolyline
 90
2
 70
0
 10
624647.7210202583
 20
4838084.51399217
 10
624694.9796206868
 20
4838101.929651931
  0
LWPOLYLINE
  5
346
330
17
100
AcDbEntity
  8
ROADS
100
AcDbPolyline
 90
3
 70
0
 10
624391.0827404191
 20
4838010.057487577
 10
624315.5775324375
 20
4838241.7383196205
 10
624267.8255164976
 20
4838226.116830477
  0
LWPOLYLINE
  5
347
330
17
100
AcDbEntity
  8
ROADS
100
AcDbPolyline
 90
2
 70
0
 10
624647.7210202583
 20
4838084.51399217
 10
624611.3669428687
 20
4838200.852822945
  0
LWPOLYLINE
  5
348
330
17
100
AcDbEntity
  8
ROADS
100
AcDbPolyline
 90
2
 70
0
 10
624611.3669428687
 20
4838200.852822945
 10
624660.5281824637
 20
4838210.580489855
  0
LWPOLYLINE
  5
349
330
17
100
AcDbEntity
  8
ROADS
100
AcDbPolyline
 90
2
 70
0
 10
624611.3669428687
 20
4838200.852822945
 10
624596.5924146855
 20
4838246.176070302
  0
LWPOLYLINE
  5
34A
330
17
100
AcDbEntity
  8
ROADS
100
AcDbPolyline
 90
2
 70
0
 10
624596.5924146855
 20
4838246.176070302
 10
624544.2474559221
 20
4838235.7327795625
  0
LWPOLYLINE
  5
34B
330
17
100
AcDbEntity
  8
ROADS
100
AcDbPolyline
 90
2
 70
0
 10
624626.9806146123
 20
4838252.283011722
 10
624596.5924146855
 20
4838246.176070302
  0
LWPOLYLINE
  5
34C
330
17
100
AcDbEntity
  8
ROADS
100
AcDbPolyline
 90
2
 70
0
 10
623461.088724876
 20
4838134.540323723
 10
623277.5151704963
 20
4838074.784201423
  0
LWPOLYLINE
  5
34D
330
17
100
AcDbEntity
  8
ROADS
100
AcDbPolyline
 90
2
 70
0
 10
623098.460669062
 20
4838126.953451802
 10
623053.5497881263
 20
4838112.447472661
  0
LWPOLYLINE
  5
34E
330
17
100
AcDbEntity
  8
ROADS
100
AcDbPolyline
 90
2
 70
0
 10
623277.5151704963
 20
4838074.784201423
 10
623244.0335291288
 20
4838173.97464551
  0
LWPOLYLINE
  5
34F
330
17
100
AcDbEntity
  8
ROADS
100
AcDbPolyline
 90
2
 70
0
 10
623053.5497881263
 20
4838112.447472661
 10
623038.9712290548
 20
4838157.556046123
  0
LWPOLYLINE
  5
350
330
17
100
AcDbEntity
  8
ROADS
100
AcDbPolyline
 90
2
 70
0
 10
623038.9712290548
 20
4838157.556046123
 10
622936.938231815
 20
4838123.382980949
  0
LWPOLYLINE
  5
351
330
17
100
AcDbEntity
  8
ROADS
100
AcDbPolyline
 90
2
 70
0
 10
623244.0335291288
 20
4838173.97464551
 10
623098.460669062
 20
4838126.953451802
  0
LWPOLYLINE
  5
352
330
17
100
AcDbEntity
  8
ROADS
100
AcDbPolyline
 90
2
 70
0
 10
623098.460669062
 20
4838126.953451802
 10
623065.8628841402
 20
4838227.591895551
  0
LWPOLYLINE
  5
353
330
17
100
AcDbEntity
  8
ROADS
100
AcDbPolyline
 90
2
 70
0
 10
623038.9712290548
 20
4838157.556046123
 10
623024.1288520787
 20
4838203.482884905
  0
LWPOLYLINE
  5
354
330
17
100
AcDbEntity
  8
ROADS
100
AcDbPolyline
 90
2
 70
0
 10
623461.088724876
 20
4838134.540323723
 10
623427.9870471286
 20
4838235.611784413
  0
LWPOLYLINE
  5
355
330
17
100
AcDbEntity
  8
ROADS
100
AcDbPolyline
 90
2
 70
0
 10
623024.1288520787
 20
4838203.482884905
 10
622942.3470799179
 20
4838174.329321316
  0
LWPOLYLINE
  5
356
330
17
100
AcDbEntity
  8
ROADS
100
AcDbPolyline
 90
2
 70
0
 10
624315.2506328592
 20
4838079.617738752
 10
624267.8255164976
 20
4838226.116830477
  0
LWPOLYLINE
  5
357
330
17
100
AcDbEntity
  8
ROADS
100
AcDbPolyline
 90
2
 70
0
 10
624110.7193409279
 20
4838174.4106383175
 10
624061.7164587376
 20
4838158.3925236715
  0
LWPOLYLINE
  5
358
330
17
100
AcDbEntity
  8
ROADS
100
AcDbPolyline
 90
2
 70
0
 10
624000.5284025127
 20
4838186.084328833
 10
623956.2213156099
 20
4838172.027248729
  0
LWPOLYLINE
  5
359
330
17
100
AcDbEntity
  8
ROADS
100
AcDbPolyline
 90
2
 70
0
 10
624061.7164587376
 20
4838158.3925236715
 10
624048.2624357645
 20
4838200.873431422
  0
LWPOLYLINE
  5
35A
330
17
100
AcDbEntity
  8
ROADS
100
AcDbPolyline
 90
2
 70
0
 10
624163.7515884954
 20
4838191.747703066
 10
624110.7193409279
 20
4838174.4106383175
  0
LWPOLYLINE
  5
35B
330
17
100
AcDbEntity
  8
ROADS
100
AcDbPolyline
 90
2
 70
0
 10
624048.2624357645
 20
4838200.873431422
 10
624000.5284025127
 20
4838186.084328833
  0
LWPOLYLINE
  5
35C
330
17
100
AcDbEntity
  8
ROADS
100
AcDbPolyline
 90
2
 70
0
 10
624163.7515884954
 20
4838191.747703066
 10
624218.7414500368
 20
4838210.052230374
  0
LWPOLYLINE
  5
35D
330
17
100
AcDbEntity
  8
ROADS
100
AcDbPolyline
 90
2
 70
0
 10
624163.7515884954
 20
4838191.747703066
 10
624149.6912662992
 20
4838234.574675175
  0
LWPOLYLINE
  5
35E
330
17
100
AcDbEntity
  8
ROADS
100
AcDbPolyline
 90
2
 70
0
 10
624149.6912662992
 20
4838234.574675175
 10
624048.2624357645
 20
4838200.873431422
  0
LWPOLYLINE
  5
35F
330
17
100
AcDbEntity
  8
ROADS
100
AcDbPolyline
 90
2
 70
0
 10
624218.7414500368
 20
4838210.052230374
 10
624267.8255164976
 20
4838226.116830477
  0
LWPOLYLINE
  5
360
330
17
100
AcDbEntity
  8
ROADS
100
AcDbPolyline
 90
2
 70
0
 10
623902.7378420047
 20
4838047.879456651
 10
623876.5571009977
 20
4838182.092959993
  0
LWPOLYLINE
  5
361
330
17
100
AcDbEntity
  8
ROADS
100
AcDbPolyline
 90
3
 70
0
 10
623876.5571009977
 20
4838182.092959993
 10
623845.8394435312
 20
4838173.138930528
 10
623736.2946409353
 20
4838066.156156933
  0
LWPOLYLINE
  5
362
330
17
100
AcDbEntity
  8
ROADS
100
AcDbPolyline
 90
2
 70
0
 10
623613.1212827705
 20
4838078.376098063
 10
623592.7910155115
 20
4838174.540343442
  0
LWPOLYLINE
  5
363
330
17
100
AcDbEntity
  8
ROADS
100
AcDbPolyline
 90
2
 70
0
 10
623750.0902499282
 20
4838216.830964297
 10
623613.1212827705
 20
4838078.376098063
  0
LWPOLYLINE
  5
364
330
17
100
AcDbEntity
  8
ROADS
100
AcDbPolyline
 90
2
 70
0
 10
623592.7910155115
 20
4838174.540343442
 10
623461.088724876
 20
4838134.540323723
  0
LWPOLYLINE
  5
365
330
17
100
AcDbEntity
  8
ROADS
100
AcDbPolyline
 90
2
 70
0
 10
623592.7910155115
 20
4838174.540343442
 10
623588.8261004441
 20
4838192.991580278
  0
LWPOLYLINE
  5
366
330
17
100
AcDbEntity
  8
ROADS
100
AcDbPolyline
 90
2
 70
0
 10
623541.7940178058
 20
4838215.145083813
 10
623546.6420591028
 20
4838199.840983274
  0
LWPOLYLINE
  5
367
330
17
100
AcDbEntity
  8
ROADS
100
AcDbPolyline
 90
2
 70
0
 10
623541.7940178058
 20
4838215.145083813
 10
623499.1542066995
 20
4838201.136175109
  0
LWPOLYLINE
  5
368
330
17
100
AcDbEntity
  8
ROADS
100
AcDbPolyline
 90
2
 70
0
 10
623876.5571009977
 20
4838182.092959993
 10
623860.1932921119
 20
4838234.229719485
  0
LWPOLYLINE
  5
369
330
17
100
AcDbEntity
  8
ROADS
100
AcDbPolyline
 90
2
 70
0
 10
623588.8261004441
 20
4838192.991580278
 10
623567.5964391383
 20
4838281.709163815
  0
LWPOLYLINE
  5
36A
330
17
100
AcDbEntity
  8
ROADS
100
AcDbPolyline
 90
2
 70
0
 10
623427.9870471286
 20
4838235.611784413
 10
623244.0335291288
 20
4838173.97464551
  0
LWPOLYLINE
  5
36B
330
17
100
AcDbEntity
  8
ROADS
100
AcDbPolyline
 90
2
 70
0
 10
623024.1288520787
 20
4838203.482884905
 10
623021.8373556873
 20
4838213.56694079
  0
LWPOLYLINE
  5
36C
330
17
100
AcDbEntity
  8
ROADS
100
AcDbPolyline
 90
2
 70
0
 10
623065.8628841402
 20
4838227.591895551
 10
623021.8373556873
 20
4838213.56694079
  0
LWPOLYLINE
  5
36D
330
17
100
AcDbEntity
  8
ROADS
100
AcDbPolyline
 90
2
 70
0
 10
623244.0335291288
 20
4838173.97464551
 10
623211.9400877543
 20
4838274.262232939
  0
LWPOLYLINE
  5
36E
330
17
100
AcDbEntity
  8
ROADS
100
AcDbPolyline
 90
2
 70
0
 10
623211.9400877543
 20
4838274.262232939
 10
623065.8628841402
 20
4838227.591895551
  0
LWPOLYLINE
  5
36F
330
17
100
AcDbEntity
  8
ROADS
100
AcDbPolyline
 90
2
 70
0
 10
623021.8373556873
 20
4838213.56694079
 10
622991.9351881238
 20
4838300.023405389
  0
LWPOLYLINE
  5
370
330
17
100
AcDbEntity
  8
ROADS
100
AcDbPolyline
 90
2
 70
0
 10
623065.8628841402
 20
4838227.591895551
 10
623036.6222776059
 20
4838314.516358963
  0
LWPOLYLINE
  5
371
330
17
100
AcDbEntity
  8
ROADS
100
AcDbPolyline
 90
2
 70
0
 10
623427.9870471286
 20
4838235.611784413
 10
623394.8842981431
 20
4838335.248133471
  0
LWPOLYLINE
  5
372
330
17
100
AcDbEntity
  8
ROADS
100
AcDbPolyline
 90
2
 70
0
 10
623036.6222776059
 20
4838314.516358963
 10
622991.9351881238
 20
4838300.023405389
  0
LWPOLYLINE
  5
373
330
17
100
AcDbEntity
  8
ROADS
100
AcDbPolyline
 90
2
 70
0
 10
623211.9400877543
 20
4838274.262232939
 10
623183.2513916248
 20
4838362.131760082
  0
LWPOLYLINE
  5
374
330
17
100
AcDbEntity
  8
ROADS
100
AcDbPolyline
 90
2
 70
0
 10
624267.8255164976
 20
4838226.116830477
 10
624262.2137385565
 20
4838243.449258659
  0
LWPOLYLINE
  5
375
330
17
100
AcDbEntity
  8
ROADS
100
AcDbPolyline
 90
2
 70
0
 10
624249.9554622407
 20
4838275.386253638
 10
624149.6912662992
 20
4838234.574675175
  0
LWPOLYLINE
  5
376
330
17
100
AcDbEntity
  8
ROADS
100
AcDbPolyline
 90
2
 70
0
 10
624048.2624357645
 20
4838200.873431422
 10
624000.4589131944
 20
4838334.593374439
  0
LWPOLYLINE
  5
377
330
17
100
AcDbEntity
  8
ROADS
100
AcDbPolyline
 90
2
 70
0
 10
624293.6774687646
 20
4838287.291662125
 10
624249.9554622407
 20
4838275.386253638
  0
LWPOLYLINE
  5
378
330
17
100
AcDbEntity
  8
ROADS
100
AcDbPolyline
 90
2
 70
0
 10
624149.6912662992
 20
4838234.574675175
 10
624118.1026524978
 20
4838330.2234140625
  0
LWPOLYLINE
  5
379
330
17
100
AcDbEntity
  8
ROADS
100
AcDbPolyline
 90
2
 70
0
 10
624000.4589131944
 20
4838334.593374439
 10
623915.6640514098
 20
4838307.49680963
  0
LWPOLYLINE
  5
37A
330
17
100
AcDbEntity
  8
ROADS
100
AcDbPolyline
 90
2
 70
0
 10
624118.1026524978
 20
4838330.2234140625
 10
624066.0887144498
 20
4838344.443411444
  0
LWPOLYLINE
  5
37B
330
17
100
AcDbEntity
  8
ROADS
100
AcDbPolyline
 90
2
 70
0
 10
624043.2758093724
 20
4838342.6577096945
 10
624000.4589131944
 20
4838334.593374439
  0
LWPOLYLINE
  5
37C
330
17
100
AcDbEntity
  8
ROADS
100
AcDbPolyline
 90
2
 70
0
 10
624043.2758093724
 20
4838342.6577096945
 10
624066.0887144498
 20
4838344.443411444
  0
LWPOLYLINE
  5
37D
330
17
100
AcDbEntity
  8
ROADS
100
AcDbPolyline
 90
2
 70
0
 10
624043.2758093724
 20
4838342.6577096945
 10
624057.940651832
 20
4838357.139710035
  0
LWPOLYLINE
  5
37E
330
17
100
AcDbEntity
  8
ROADS
100
AcDbPolyline
 90
2
 70
0
 10
623525.2343284384
 20
4838267.275246472
 10
623541.7940178058
 20
4838215.145083813
  0
LWPOLYLINE
  5
37F
330
17
100
AcDbEntity
  8
ROADS
100
AcDbPolyline
 90
2
 70
0
 10
623692.438518537
 20
4838293.670728462
 10
623588.8261004441
 20
4838192.991580278
  0
LWPOLYLINE
  5
380
330
17
100
AcDbEntity
  8
ROADS
100
AcDbPolyline
 90
2
 70
0
 10
623845.4973781673
 20
4838279.631289522
 10
623750.0902499282
 20
4838216.830964297
  0
LWPOLYLINE
  5
381
330
17
100
AcDbEntity
  8
ROADS
100
AcDbPolyline
 90
2
 70
0
 10
623525.2343284384
 20
4838267.275246472
 10
623427.9870471286
 20
4838235.611784413
  0
LWPOLYLINE
  5
382
330
17
100
AcDbEntity
  8
ROADS
100
AcDbPolyline
 90
3
 70
0
 10
623750.0902499282
 20
4838216.830964297
 10
623703.411644391
 20
4838261.571535358
 10
623692.438518537
 20
4838293.670728462
  0
LWPOLYLINE
  5
383
330
17
100
AcDbEntity
  8
ROADS
100
AcDbPolyline
 90
2
 70
0
 10
623567.5964391383
 20
4838281.709163815
 10
623525.2343284384
 20
4838267.275246472
  0
LWPOLYLINE
  5
384
330
17
100
AcDbEntity
  8
ROADS
100
AcDbPolyline
 90
2
 70
0
 10
623567.5964391383
 20
4838281.709163815
 10
623561.7084362567
 20
4838299.219567994
  0
LWPOLYLINE
  5
385
330
17
100
AcDbEntity
  8
ROADS
100
AcDbPolyline
 90
2
 70
0
 10
623915.6640514098
 20
4838307.49680963
 10
623845.4973781673
 20
4838279.631289522
  0
LWPOLYLINE
  5
386
330
17
100
AcDbEntity
  8
ROADS
100
AcDbPolyline
 90
4
 70
0
 10
623845.4973781673
 20
4838279.631289522
 10
623813.0807735458
 20
4838366.9845304815
 10
623755.0086417831
 20
4838348.690250973
 10
623692.438518537
 20
4838293.670728462
  0
LWPOLYLINE
  5
387
330
17
100
AcDbEntity
  8
ROADS
100
AcDbPolyline
 90
2
 70
0
 10
623561.7084362567
 20
4838299.219567994
 10
623520.029491538
 20
4838377.996768996
  0
LWPOLYLINE
  5
388
330
17
100
AcDbEntity
  8
ROADS
100
AcDbPolyline
 90
2
 70
0
 10
623036.6222776059
 20
4838314.516358963
 10
623023.2358071863
 20
4838355.309268577
  0
LWPOLYLINE
  5
389
330
17
100
AcDbEntity
  8
ROADS
100
AcDbPolyline
 90
2
 70
0
 10
623183.2513916248
 20
4838362.131760082
 10
623036.6222776059
 20
4838314.516358963
  0
LWPOLYLINE
  5
38A
330
17
100
AcDbEntity
  8
ROADS
100
AcDbPolyline
 90
2
 70
0
 10
622991.9351881238
 20
4838300.023405389
 10
622962.5968322118
 20
4838390.41624717
  0
LWPOLYLINE
  5
38B
330
17
100
AcDbEntity
  8
ROADS
100
AcDbPolyline
 90
2
 70
0
 10
623262.2750852108
 20
4838388.022340483
 10
623278.3885966189
 20
4838309.306814869
  0
LWPOLYLINE
  5
38C
330
17
100
AcDbEntity
  8
ROADS
100
AcDbPolyline
 90
2
 70
0
 10
623479.0128126509
 20
4838363.322163503
 10
623394.8842981431
 20
4838335.248133471
  0
LWPOLYLINE
  5
38D
330
17
100
AcDbEntity
  8
ROADS
100
AcDbPolyline
 90
2
 70
0
 10
623262.2750852108
 20
4838388.022340483
 10
623183.2513916248
 20
4838362.131760082
  0
LWPOLYLINE
  5
38E
330
17
100
AcDbEntity
  8
ROADS
100
AcDbPolyline
 90
2
 70
0
 10
623394.8842981431
 20
4838335.248133471
 10
623365.6142504762
 20
4838422.249144964
  0
LWPOLYLINE
  5
38F
330
17
100
AcDbEntity
  8
ROADS
100
AcDbPolyline
 90
2
 70
0
 10
622962.5968322118
 20
4838390.41624717
 10
622955.6848707282
 20
4838409.13815757
  0
LWPOLYLINE
  5
390
330
17
100
AcDbEntity
  8
ROADS
100
AcDbPolyline
 90
2
 70
0
 10
623365.6142504762
 20
4838422.249144964
 10
623262.2750852108
 20
4838388.022340483
  0
LWPOLYLINE
  5
391
330
17
100
AcDbEntity
  8
ROADS
100
AcDbPolyline
 90
2
 70
0
 10
623183.2513916248
 20
4838362.131760082
 10
623152.6858953292
 20
4838452.195436765
  0
LWPOLYLINE
  5
392
330
17
100
AcDbEntity
  8
ROADS
100
AcDbPolyline
 90
2
 70
0
 10
624066.0887144498
 20
4838344.443411444
 10
624057.940651832
 20
4838357.139710035
  0
LWPOLYLINE
  5
393
330
17
100
AcDbEntity
  8
ROADS
100
AcDbPolyline
 90
2
 70
0
 10
624000.4589131944
 20
4838334.593374439
 10
623982.8885301967
 20
4838374.897202127
  0
LWPOLYLINE
  5
394
330
17
100
AcDbEntity
  8
ROADS
100
AcDbPolyline
 90
2
 70
0
 10
624118.1026524978
 20
4838330.2234140625
 10
624091.1014962936
 20
4838411.981374314
  0
LWPOLYLINE
  5
395
330
17
100
AcDbEntity
  8
ROADS
100
AcDbPolyline
 90
2
 70
0
 10
623995.5959274234
 20
4838378.948249618
 10
624010.6716706466
 20
4838364.465158576
  0
LWPOLYLINE
  5
396
330
17
100
AcDbEntity
  8
ROADS
100
AcDbPolyline
 90
2
 70
0
 10
623982.8885301967
 20
4838374.897202127
 10
623995.5959274234
 20
4838378.948249618
  0
LWPOLYLINE
  5
397
330
17
100
AcDbEntity
  8
ROADS
100
AcDbPolyline
 90
2
 70
0
 10
624057.940651832
 20
4838357.139710035
 10
624091.1014962936
 20
4838411.981374314
  0
LWPOLYLINE
  5
398
330
17
100
AcDbEntity
  8
ROADS
100
AcDbPolyline
 90
2
 70
0
 10
623982.8885301967
 20
4838374.897202127
 10
623974.2227291766
 20
4838401.399857004
  0
LWPOLYLINE
  5
399
330
17
100
AcDbEntity
  8
ROADS
100
AcDbPolyline
 90
2
 70
0
 10
623995.5959274234
 20
4838378.948249618
 10
623984.1923625139
 20
4838408.139029186
  0
LWPOLYLINE
  5
39A
330
17
100
AcDbEntity
  8
ROADS
100
AcDbPolyline
 90
2
 70
0
 10
624249.9554622407
 20
4838275.386253638
 10
624169.968580455
 20
4838516.426367683
  0
LWPOLYLINE
  5
39B
330
17
100
AcDbEntity
  8
ROADS
100
AcDbPolyline
 90
2
 70
0
 10
623974.2227291766
 20
4838401.399857004
 10
623984.1923625139
 20
4838408.139029186
  0
LWPOLYLINE
  5
39C
330
17
100
AcDbEntity
  8
ROADS
100
AcDbPolyline
 90
2
 70
0
 10
623692.438518537
 20
4838293.670728462
 10
623702.4375867835
 20
4838423.570286387
  0
LWPOLYLINE
  5
39D
330
17
100
AcDbEntity
  8
ROADS
100
AcDbPolyline
 90
2
 70
0
 10
623520.029491538
 20
4838377.996768996
 10
623479.0128126509
 20
4838363.322163503
  0
LWPOLYLINE
  5
39E
330
17
100
AcDbEntity
  8
ROADS
100
AcDbPolyline
 90
4
 70
0
 10
623690.8208889714
 20
4838455.587829914
 10
623623.3087599414
 20
4838425.436191334
 10
623599.8430744706
 20
4838339.930379912
 10
623561.7084362567
 20
4838299.219567994
  0
LWPOLYLINE
  5
39F
330
17
100
AcDbEntity
  8
ROADS
100
AcDbPolyline
 90
2
 70
0
 10
623702.4375867835
 20
4838423.570286387
 10
623811.466953646
 20
4838455.376936825
  0
LWPOLYLINE
  5
3A0
330
17
100
AcDbEntity
  8
ROADS
100
AcDbPolyline
 90
2
 70
0
 10
623702.4375867835
 20
4838423.570286387
 10
623690.8208889714
 20
4838455.587829914
  0
LWPOLYLINE
  5
3A1
330
17
100
AcDbEntity
  8
ROADS
100
AcDbPolyline
 90
2
 70
0
 10
623822.3196209973
 20
4838434.0851207515
 10
623811.466953646
 20
4838455.376936825
  0
LWPOLYLINE
  5
3A2
330
17
100
AcDbEntity
  8
ROADS
100
AcDbPolyline
 90
3
 70
0
 10
623520.029491538
 20
4838377.996768996
 10
623536.903450979
 20
4838468.001568888
 10
623523.4769537792
 20
4838518.3032960165
  0
LWPOLYLINE
  5
3A3
330
17
100
AcDbEntity
  8
ROADS
100
AcDbPolyline
 90
2
 70
0
 10
623690.8208889714
 20
4838455.587829914
 10
623674.1406762132
 20
4838509.623923019
  0
LWPOLYLINE
  5
3A4
330
17
100
AcDbEntity
  8
ROADS
100
AcDbPolyline
 90
3
 70
0
 10
623811.466953646
 20
4838455.376936825
 10
623787.7888876075
 20
4838545.653360165
 10
623745.8783693127
 20
4838534.006712789
  0
LWPOLYLINE
  5
3A5
330
17
100
AcDbEntity
  8
ROADS
100
AcDbPolyline
 90
2
 70
0
 10
623745.8783693127
 20
4838534.006712789
 10
623674.1406762132
 20
4838509.623923019
  0
LWPOLYLINE
  5
3A6
330
17
100
AcDbEntity
  8
ROADS
100
AcDbPolyline
 90
2
 70
0
 10
623111.4377188805
 20
4838437.992673886
 10
622962.5968322118
 20
4838390.41624717
  0
LWPOLYLINE
  5
3A7
330
17
100
AcDbEntity
  8
ROADS
100
AcDbPolyline
 90
2
 70
0
 10
623152.6858953292
 20
4838452.195436765
 10
623111.4377188805
 20
4838437.992673886
  0
LWPOLYLINE
  5
3A8
330
17
100
AcDbEntity
  8
ROADS
100
AcDbPolyline
 90
2
 70
0
 10
622955.6848707282
 20
4838409.13815757
 10
622930.2444099954
 20
4838487.437885201
  0
LWPOLYLINE
  5
3A9
330
17
100
AcDbEntity
  8
ROADS
100
AcDbPolyline
 90
2
 70
0
 10
623365.6142504762
 20
4838422.249144964
 10
623334.8670092776
 20
4838513.291627874
  0
LWPOLYLINE
  5
3AA
330
17
100
AcDbEntity
  8
ROADS
100
AcDbPolyline
 90
2
 70
0
 10
623334.8670092776
 20
4838513.291627874
 10
623152.6858953292
 20
4838452.195436765
  0
LWPOLYLINE
  5
3AB
330
17
100
AcDbEntity
  8
ROADS
100
AcDbPolyline
 90
2
 70
0
 10
623111.4377188805
 20
4838437.992673886
 10
623078.7236093018
 20
4838534.662791367
  0
LWPOLYLINE
  5
3AC
330
17
100
AcDbEntity
  8
ROADS
100
AcDbPolyline
 90
2
 70
0
 10
623479.0128126509
 20
4838363.322163503
 10
623403.0311733892
 20
4838612.327550653
  0
LWPOLYLINE
  5
3AD
330
17
100
AcDbEntity
  8
ROADS
100
AcDbPolyline
 90
2
 70
0
 10
623152.6858953292
 20
4838452.195436765
 10
623120.8955268182
 20
4838548.550257055
  0
LWPOLYLINE
  5
3AE
330
17
100
AcDbEntity
  8
ROADS
100
AcDbPolyline
 90
2
 70
0
 10
623078.7236093018
 20
4838534.662791367
 10
622930.2444099954
 20
4838487.437885201
  0
LWPOLYLINE
  5
3AF
330
17
100
AcDbEntity
  8
ROADS
100
AcDbPolyline
 90
2
 70
0
 10
622930.2444099954
 20
4838487.437885201
 10
622912.7918171226
 20
4838539.614791992
  0
LWPOLYLINE
  5
3B0
330
17
100
AcDbEntity
  8
ROADS
100
AcDbPolyline
 90
2
 70
0
 10
624962.8728184775
 20
4838088.467977079
 10
624950.513016289
 20
4838125.79650674
  0
LWPOLYLINE
  5
3B1
330
17
100
AcDbEntity
  8
ROADS
100
AcDbPolyline
 90
2
 70
0
 10
624742.8419973177
 20
4838118.862209879
 10
624694.9796206868
 20
4838101.929651931
  0
LWPOLYLINE
  5
3B2
330
17
100
AcDbEntity
  8
ROADS
100
AcDbPolyline
 90
2
 70
0
 10
624947.2928928975
 20
4838135.524806369
 10
624852.9355910239
 20
4838103.516004554
  0
LWPOLYLINE
  5
3B3
330
17
100
AcDbEntity
  8
ROADS
100
AcDbPolyline
 90
2
 70
0
 10
624852.9355910239
 20
4838103.516004554
 10
624837.8235675796
 20
4838149.805737961
  0
LWPOLYLINE
  5
3B4
330
17
100
AcDbEntity
  8
ROADS
100
AcDbPolyline
 90
2
 70
0
 10
624793.5708833579
 20
4838135.388593732
 10
624742.8419973177
 20
4838118.862209879
  0
LWPOLYLINE
  5
3B5
330
17
100
AcDbEntity
  8
ROADS
100
AcDbPolyline
 90
2
 70
0
 10
624950.513016289
 20
4838125.79650674
 10
624947.2928928975
 20
4838135.524806369
  0
LWPOLYLINE
  5
3B6
330
17
100
AcDbEntity
  8
ROADS
100
AcDbPolyline
 90
2
 70
0
 10
625002.0035198596
 20
4838142.458683423
 10
624950.513016289
 20
4838125.79650674
  0
LWPOLYLINE
  5
3B7
330
17
100
AcDbEntity
  8
ROADS
100
AcDbPolyline
 90
2
 70
0
 10
624837.8235675796
 20
4838149.805737961
 10
624793.5708833579
 20
4838135.388593732
  0
LWPOLYLINE
  5
3B8
330
17
100
AcDbEntity
  8
ROADS
100
AcDbPolyline
 90
2
 70
0
 10
624694.9796206868
 20
4838101.929651931
 10
624660.5281824637
 20
4838210.580489855
  0
LWPOLYLINE
  5
3B9
330
17
100
AcDbEntity
  8
ROADS
100
AcDbPolyline
 90
2
 70
0
 10
624947.2928928975
 20
4838135.524806369
 10
624935.6990410772
 20
4838179.769568233
  0
LWPOLYLINE
  5
3BA
330
17
100
AcDbEntity
  8
ROADS
100
AcDbPolyline
 90
2
 70
0
 10
625005.9584164858
 20
4838130.533549333
 10
625002.0035198596
 20
4838142.458683423
  0
LWPOLYLINE
  5
3BB
330
17
100
AcDbEntity
  8
ROADS
100
AcDbPolyline
 90
2
 70
0
 10
625048.3629669347
 20
4838145.39630109
 10
625005.9584164858
 20
4838130.533549333
  0
LWPOLYLINE
  5
3BC
330
17
100
AcDbEntity
  8
ROADS
100
AcDbPolyline
 90
2
 70
0
 10
625002.0035198596
 20
4838142.458683423
 10
624992.2862810448
 20
4838172.520605936
  0
LWPOLYLINE
  5
3BD
330
17
100
AcDbEntity
  8
ROADS
100
AcDbPolyline
 90
2
 70
0
 10
625068.232221622
 20
4838151.959839634
 10
625048.3629669347
 20
4838145.39630109
  0
LWPOLYLINE
  5
3BE
330
17
100
AcDbEntity
  8
ROADS
100
AcDbPolyline
 90
2
 70
0
 10
624992.2862810448
 20
4838172.520605936
 10
625054.9748218072
 20
4838193.242009089
  0
LWPOLYLINE
  5
3BF
330
17
100
AcDbEntity
  8
ROADS
100
AcDbPolyline
 90
3
 70
0
 10
624992.2862810448
 20
4838172.520605936
 10
624985.649232607
 20
4838193.734744701
 10
625048.0502156568
 20
4838213.491375406
  0
LWPOLYLINE
  5
3C0
330
17
100
AcDbEntity
  8
ROADS
100
AcDbPolyline
 90
2
 70
0
 10
624935.6990410772
 20
4838179.769568233
 10
624837.8235675796
 20
4838149.805737961
  0
LWPOLYLINE
  5
3C1
330
17
100
AcDbEntity
  8
ROADS
100
AcDbPolyline
 90
2
 70
0
 10
624742.8419973177
 20
4838118.862209879
 10
624710.8430269235
 20
4838220.555037307
  0
LWPOLYLINE
  5
3C2
330
17
100
AcDbEntity
  8
ROADS
100
AcDbPolyline
 90
2
 70
0
 10
624837.8235675796
 20
4838149.805737961
 10
624821.8646067976
 20
4838198.68779203
  0
LWPOLYLINE
  5
3C3
330
17
100
AcDbEntity
  8
ROADS
100
AcDbPolyline
 90
3
 70
0
 10
624793.5708833579
 20
4838135.388593732
 10
624762.4462227969
 20
4838232.421992737
 10
624710.8430269235
 20
4838220.555037307
  0
LWPOLYLINE
  5
3C4
330
17
100
AcDbEntity
  8
ROADS
100
AcDbPolyline
 90
2
 70
0
 10
624935.6990410772
 20
4838179.769568233
 10
624920.3436896236
 20
4838227.900510748
  0
LWPOLYLINE
  5
3C5
330
17
100
AcDbEntity
  8
ROADS
100
AcDbPolyline
 90
2
 70
0
 10
624920.3436896236
 20
4838227.900510748
 10
624821.8646067976
 20
4838198.68779203
  0
LWPOLYLINE
  5
3C6
330
17
100
AcDbEntity
  8
ROADS
100
AcDbPolyline
 90
2
 70
0
 10
624710.8430269235
 20
4838220.555037307
 10
624660.5281824637
 20
4838210.580489855
  0
LWPOLYLINE
  5
3C7
330
17
100
AcDbEntity
  8
ROADS
100
AcDbPolyline
 90
2
 70
0
 10
624710.8430269235
 20
4838220.555037307
 10
624696.8372584985
 20
4838265.064156915
  0
LWPOLYLINE
  5
3C8
330
17
100
AcDbEntity
  8
ROADS
100
AcDbPolyline
 90
2
 70
0
 10
624821.8646067976
 20
4838198.68779203
 10
624794.7329126027
 20
4838288.878036413
  0
LWPOLYLINE
  5
3C9
330
17
100
AcDbEntity
  8
ROADS
100
AcDbPolyline
 90
2
 70
0
 10
624794.7329126027
 20
4838288.878036413
 10
624696.8372584985
 20
4838265.064156915
  0
LWPOLYLINE
  5
3CA
330
17
100
AcDbEntity
  8
ROADS
100
AcDbPolyline
 90
2
 70
0
 10
625026.9612220632
 20
4838261.966345799
 10
624920.3436896236
 20
4838227.900510748
  0
LWPOLYLINE
  5
3CB
330
17
100
AcDbEntity
  8
ROADS
100
AcDbPolyline
 90
2
 70
0
 10
624696.8372584985
 20
4838265.064156915
 10
624626.9806146123
 20
4838252.283011722
  0
LWPOLYLINE
  5
3CC
330
17
100
AcDbEntity
  8
ROADS
100
AcDbPolyline
 90
2
 70
0
 10
624626.9806146123
 20
4838252.283011722
 10
624566.4254647013
 20
4838331.119068515
  0
LWPOLYLINE
  5
3CD
330
17
100
AcDbEntity
  8
ROADS
100
AcDbPolyline
 90
2
 70
0
 10
624669.3022589312
 20
4838367.709747342
 10
624566.4254647013
 20
4838331.119068515
  0
LWPOLYLINE
  5
3CE
330
17
100
AcDbEntity
  8
ROADS
100
AcDbPolyline
 90
2
 70
0
 10
624566.4254647013
 20
4838331.119068515
 10
624548.3330787717
 20
4838383.887698728
  0
LWPOLYLINE
  5
3CF
330
17
100
AcDbEntity
  8
ROADS
100
AcDbPolyline
 90
2
 70
0
 10
624669.3022589312
 20
4838367.709747342
 10
624649.2409031736
 20
4838431.030354442
  0
LWPOLYLINE
  5
3D0
330
17
100
AcDbEntity
  8
ROADS
100
AcDbPolyline
 90
2
 70
0
 10
624548.3330787717
 20
4838383.887698728
 10
624536.6469869914
 20
4838417.971181381
  0
LWPOLYLINE
  5
3D1
330
17
100
AcDbEntity
  8
ROADS
100
AcDbPolyline
 90
3
 70
0
 10
624548.3330787717
 20
4838383.887698728
 10
624599.7449507217
 20
4838401.74153886
 10
624592.4445215687
 20
4838431.54411643
  0
LWPOLYLINE
  5
3D2
330
17
100
AcDbEntity
  8
ROADS
100
AcDbPolyline
 90
2
 70
0
 10
624536.6469869914
 20
4838417.971181381
 10
624592.4445215687
 20
4838431.54411643
  0
LWPOLYLINE
  5
3D3
330
17
100
AcDbEntity
  8
ROADS
100
AcDbPolyline
 90
2
 70
0
 10
624592.4445215687
 20
4838431.54411643
 10
624649.2409031736
 20
4838431.030354442
  0
LWPOLYLINE
  5
3D4
330
17
100
AcDbEntity
  8
ROADS
100
AcDbPolyline
 90
2
 70
0
 10
624536.6469869914
 20
4838417.971181381
 10
624522.0881414809
 20
4838460.436155976
  0
LWPOLYLINE
  5
3D5
330
17
100
AcDbEntity
  8
ROADS
100
AcDbPolyline
 90
2
 70
0
 10
624926.4256464118
 20
4838331.867258905
 10
624794.7329126027
 20
4838288.878036413
  0
LWPOLYLINE
  5
3D6
330
17
100
AcDbEntity
  8
ROADS
100
AcDbPolyline
 90
2
 70
0
 10
624984.0283261767
 20
4838349.597420495
 10
624926.4256464118
 20
4838331.867258905
  0
LWPOLYLINE
  5
3D7
330
17
100
AcDbEntity
  8
ROADS
100
AcDbPolyline
 90
3
 70
0
 10
624926.4256464118
 20
4838331.867258905
 10
624778.410796404
 20
4838360.711768755
 10
624762.2922086653
 20
4838396.578204115
  0
LWPOLYLINE
  5
3D8
330
17
100
AcDbEntity
  8
ROADS
100
AcDbPolyline
 90
2
 70
0
 10
624762.2922086653
 20
4838396.578204115
 10
624669.3022589312
 20
4838367.709747342
  0
LWPOLYLINE
  5
3D9
330
17
100
AcDbEntity
  8
ROADS
100
AcDbPolyline
 90
2
 70
0
 10
624945.1260088794
 20
4838417.061971607
 10
624905.6025813033
 20
4838407.55382298
  0
LWPOLYLINE
  5
3DA
330
17
100
AcDbEntity
  8
ROADS
100
AcDbPolyline
 90
2
 70
0
 10
624762.2922086653
 20
4838396.578204115
 10
624743.4822091027
 20
4838458.5553867845
  0
LWPOLYLINE
  5
3DB
330
17
100
AcDbEntity
  8
ROADS
100
AcDbPolyline
 90
2
 70
0
 10
624743.4822091027
 20
4838458.5553867845
 10
624719.5238381063
 20
4838527.226809794
  0
LWPOLYLINE
  5
3DC
330
17
100
AcDbEntity
  8
ROADS
100
AcDbPolyline
 90
2
 70
0
 10
624874.7447569469
 20
4838512.540730655
 10
624743.4822091027
 20
4838458.5553867845
  0
LWPOLYLINE
  5
3DD
330
17
100
AcDbEntity
  8
ROADS
100
AcDbPolyline
 90
2
 70
0
 10
624719.5238381063
 20
4838527.226809794
 10
624628.622799406
 20
4838496.103979658
  0
LWPOLYLINE
  5
3DE
330
17
100
AcDbEntity
  8
ROADS
100
AcDbPolyline
 90
2
 70
0
 10
624719.5238381063
 20
4838527.226809794
 10
624715.5814499286
 20
4838569.973840838
  0
LWPOLYLINE
  5
3DF
330
17
100
AcDbEntity
  8
ROADS
100
AcDbPolyline
 90
2
 70
0
 10
624800.1455606523
 20
4838593.195341857
 10
624715.5814499286
 20
4838569.973840838
  0
LWPOLYLINE
  5
3E0
330
17
100
AcDbEntity
  8
ROADS
100
AcDbPolyline
 90
2
 70
0
 10
624715.5814499286
 20
4838569.973840838
 10
624734.1814639046
 20
4838652.218539712
  0
LWPOLYLINE
  5
3E1
330
17
100
AcDbEntity
  8
ROADS
100
AcDbPolyline
 90
2
 70
0
 10
624433.5813006022
 20
4838819.642047412
 10
624407.6536722378
 20
4838811.193249212
  0
LWPOLYLINE
  5
3E2
330
17
100
AcDbEntity
  8
ROADS
100
AcDbPolyline
 90
2
 70
0
 10
624407.6536722378
 20
4838811.193249212
 10
624401.1091627016
 20
4838831.423520227
  0
LWPOLYLINE
  5
3E3
330
17
100
AcDbEntity
  8
ROADS
100
AcDbPolyline
 90
2
 70
0
 10
623974.2227291766
 20
4838401.399857004
 10
623969.5785956982
 20
4838415.326590166
  0
LWPOLYLINE
  5
3E4
330
17
100
AcDbEntity
  8
ROADS
100
AcDbPolyline
 90
2
 70
0
 10
623984.1923625139
 20
4838408.139029186
 10
623968.0442255781
 20
4838449.621637103
  0
LWPOLYLINE
  5
3E5
330
17
100
AcDbEntity
  8
ROADS
100
AcDbPolyline
 90
2
 70
0
 10
624091.1014962936
 20
4838411.981374314
 10
624067.576938087
 20
4838483.210647703
  0
LWPOLYLINE
  5
3E6
330
17
100
AcDbEntity
  8
ROADS
100
AcDbPolyline
 90
2
 70
0
 10
624067.576938087
 20
4838483.210647703
 10
623968.0442255781
 20
4838449.621637103
  0
LWPOLYLINE
  5
3E7
330
17
100
AcDbEntity
  8
ROADS
100
AcDbPolyline
 90
2
 70
0
 10
624169.968580455
 20
4838516.426367683
 10
624067.576938087
 20
4838483.210647703
  0
LWPOLYLINE
  5
3E8
330
17
100
AcDbEntity
  8
ROADS
100
AcDbPolyline
 90
2
 70
0
 10
623968.0442255781
 20
4838449.621637103
 10
623907.0860099843
 20
4838635.389802362
  0
LWPOLYLINE
  5
3E9
330
17
100
AcDbEntity
  8
ROADS
100
AcDbPolyline
 90
2
 70
0
 10
624067.576938087
 20
4838483.210647703
 10
624007.2435411818
 20
4838667.33007727
  0
LWPOLYLINE
  5
3EA
330
17
100
AcDbEntity
  8
ROADS
100
AcDbPolyline
 90
2
 70
0
 10
624169.968580455
 20
4838516.426367683
 10
624107.547640624
 20
4838702.392186886
  0
LWPOLYLINE
  5
3EB
330
17
100
AcDbEntity
  8
ROADS
100
AcDbPolyline
 90
2
 70
0
 10
624007.2435411818
 20
4838667.33007727
 10
623907.0860099843
 20
4838635.389802362
  0
LWPOLYLINE
  5
3EC
330
17
100
AcDbEntity
  8
ROADS
100
AcDbPolyline
 90
2
 70
0
 10
624107.547640624
 20
4838702.392186886
 10
624007.2435411818
 20
4838667.33007727
  0
LWPOLYLINE
  5
3ED
330
17
100
AcDbEntity
  8
ROADS
100
AcDbPolyline
 90
2
 70
0
 10
623120.8955268182
 20
4838548.550257055
 10
623078.7236093018
 20
4838534.662791367
  0
LWPOLYLINE
  5
3EE
330
17
100
AcDbEntity
  8
ROADS
100
AcDbPolyline
 90
2
 70
0
 10
623334.8670092776
 20
4838513.291627874
 10
623303.3698352203
 20
4838609.081769832
  0
LWPOLYLINE
  5
3EF
330
17
100
AcDbEntity
  8
ROADS
100
AcDbPolyline
 90
2
 70
0
 10
623120.8955268182
 20
4838548.550257055
 10
623102.5338825182
 20
4838600.394731638
  0
LWPOLYLINE
  5
3F0
330
17
100
AcDbEntity
  8
ROADS
100
AcDbPolyline
 90
4
 70
0
 10
623097.697689594
 20
4838614.821976977
 10
623056.5799321648
 20
4838601.2605870655
 10
623060.7391666838
 20
4838587.603137232
 10
622912.7918171226
 20
4838539.614791992
  0
LWPOLYLINE
  5
3F1
330
17
100
AcDbEntity
  8
ROADS
100
AcDbPolyline
 90
2
 70
0
 10
623303.3698352203
 20
4838609.081769832
 10
623120.8955268182
 20
4838548.550257055
  0
LWPOLYLINE
  5
3F2
330
17
100
AcDbEntity
  8
ROADS
100
AcDbPolyline
 90
2
 70
0
 10
622987.8412493868
 20
4838621.068263738
 10
622895.6162799505
 20
4838590.959663703
  0
LWPOLYLINE
  5
3F3
330
17
100
AcDbEntity
  8
ROADS
100
AcDbPolyline
 90
2
 70
0
 10
623102.5338825182
 20
4838600.394731638
 10
623097.697689594
 20
4838614.821976977
  0
LWPOLYLINE
  5
3F4
330
17
100
AcDbEntity
  8
ROADS
100
AcDbPolyline
 90
2
 70
0
 10
623496.1241854645
 20
4838607.226102586
 10
623403.0311733892
 20
4838612.327550653
  0
LWPOLYLINE
  5
3F5
330
17
100
AcDbEntity
  8
ROADS
100
AcDbPolyline
 90
2
 70
0
 10
623102.5338825182
 20
4838600.394731638
 10
623202.9041381108
 20
4838634.106860408
  0
LWPOLYLINE
  5
3F6
330
17
100
AcDbEntity
  8
ROADS
100
AcDbPolyline
 90
3
 70
0
 10
623403.0311733892
 20
4838612.327550653
 10
623361.8809102228
 20
4838628.868086323
 10
623303.3698352203
 20
4838609.081769832
  0
LWPOLYLINE
  5
3F7
330
17
100
AcDbEntity
  8
ROADS
100
AcDbPolyline
 90
2
 70
0
 10
623674.1406762132
 20
4838509.623923019
 10
623664.6128630122
 20
4838542.20627219
  0
LWPOLYLINE
  5
3F8
330
17
100
AcDbEntity
  8
ROADS
100
AcDbPolyline
 90
2
 70
0
 10
623664.6128630122
 20
4838542.20627219
 10
623523.4769537792
 20
4838518.3032960165
  0
LWPOLYLINE
  5
3F9
330
17
100
AcDbEntity
  8
ROADS
100
AcDbPolyline
 90
2
 70
0
 10
623523.4769537792
 20
4838518.3032960165
 10
623496.1241854645
 20
4838607.226102586
  0
LWPOLYLINE
  5
3FA
330
17
100
AcDbEntity
  8
ROADS
100
AcDbPolyline
 90
2
 70
0
 10
623745.8783693127
 20
4838534.006712789
 10
623720.0745000506
 20
4838591.866986293
  0
LWPOLYLINE
  5
3FB
330
17
100
AcDbEntity
  8
ROADS
100
AcDbPolyline
 90
2
 70
0
 10
623664.6128630122
 20
4838542.20627219
 10
623701.2745057
 20
4838609.117835578
  0
LWPOLYLINE
  5
3FC
330
17
100
AcDbEntity
  8
ROADS
100
AcDbPolyline
 90
3
 70
0
 10
623720.0745000506
 20
4838591.866986293
 10
623697.3539121476
 20
4838590.175943821
 10
623714.0169867841
 20
4838611.007411591
  0
LWPOLYLINE
  5
3FD
330
17
100
AcDbEntity
  8
ROADS
100
AcDbPolyline
 90
2
 70
0
 10
623720.0745000506
 20
4838591.866986293
 10
623714.0169867841
 20
4838611.007411591
  0
LWPOLYLINE
  5
3FE
330
17
100
AcDbEntity
  8
ROADS
100
AcDbPolyline
 90
2
 70
0
 10
623637.6916654047
 20
4838627.227719645
 10
623496.1241854645
 20
4838607.226102586
  0
LWPOLYLINE
  5
3FF
330
17
100
AcDbEntity
  8
ROADS
100
AcDbPolyline
 90
2
 70
0
 10
623701.2745057
 20
4838609.117835578
 10
623637.6916654047
 20
4838627.227719645
  0
LWPOLYLINE
  5
400
330
17
100
AcDbEntity
  8
ROADS
100
AcDbPolyline
 90
2
 70
0
 10
623701.2745057
 20
4838609.117835578
 10
623721.1635265232
 20
4838639.63665481
  0
LWPOLYLINE
  5
401
330
17
100
AcDbEntity
  8
ROADS
100
AcDbPolyline
 90
2
 70
0
 10
624649.2409031736
 20
4838431.030354442
 10
624628.622799406
 20
4838496.103979658
  0
LWPOLYLINE
  5
402
330
17
100
AcDbEntity
  8
ROADS
100
AcDbPolyline
 90
2
 70
0
 10
624628.622799406
 20
4838496.103979658
 10
624522.0881414809
 20
4838460.436155976
  0
LWPOLYLINE
  5
403
330
17
100
AcDbEntity
  8
ROADS
100
AcDbPolyline
 90
3
 70
0
 10
624522.0881414809
 20
4838460.436155976
 10
624498.4127404358
 20
4838536.243037025
 10
624501.0206681185
 20
4838591.48719253
  0
LWPOLYLINE
  5
404
330
17
100
AcDbEntity
  8
ROADS
100
AcDbPolyline
 90
2
 70
0
 10
624501.0206681185
 20
4838591.48719253
 10
624169.968580455
 20
4838516.426367683
  0
LWPOLYLINE
  5
405
330
17
100
AcDbEntity
  8
ROADS
100
AcDbPolyline
 90
2
 70
0
 10
624628.622799406
 20
4838496.103979658
 10
624577.6944355792
 20
4838630.320121631
  0
LWPOLYLINE
  5
406
330
17
100
AcDbEntity
  8
ROADS
100
AcDbPolyline
 90
2
 70
0
 10
624577.6944355792
 20
4838630.320121631
 10
624501.0206681185
 20
4838591.48719253
  0
LWPOLYLINE
  5
407
330
17
100
AcDbEntity
  8
ROADS
100
AcDbPolyline
 90
2
 70
0
 10
624501.0206681185
 20
4838591.48719253
 10
624492.8220461998
 20
4838721.973950879
  0
LWPOLYLINE
  5
408
330
17
100
AcDbEntity
  8
ROADS
100
AcDbPolyline
 90
2
 70
0
 10
624554.1030763556
 20
4838742.611501905
 10
624492.8220461998
 20
4838721.973950879
  0
LWPOLYLINE
  5
409
330
17
100
AcDbEntity
  8
ROADS
100
AcDbPolyline
 90
3
 70
0
 10
624577.6944355792
 20
4838630.320121631
 10
624576.0380125522
 20
4838750.973709397
 10
624569.0434171209
 20
4838761.324037024
  0
LWPOLYLINE
  5
40A
330
17
100
AcDbEntity
  8
ROADS
100
AcDbPolyline
 90
3
 70
0
 10
624492.8220461998
 20
4838721.973950879
 10
624440.7513360633
 20
4838720.531034127
 10
624407.6536722378
 20
4838811.193249212
  0
LWPOLYLINE
  5
40B
330
17
100
AcDbEntity
  8
ROADS
100
AcDbPolyline
 90
2
 70
0
 10
623714.0169867841
 20
4838611.007411591
 10
623721.1635265232
 20
4838639.63665481
  0
LWPOLYLINE
  5
40C
330
17
100
AcDbEntity
  8
ROADS
100
AcDbPolyline
 90
2
 70
0
 10
623496.1241854645
 20
4838607.226102586
 10
623472.8324655446
 20
4838677.801414407
  0
LWPOLYLINE
  5
40D
330
17
100
AcDbEntity
  8
ROADS
100
AcDbPolyline
 90
2
 70
0
 10
623637.6916654047
 20
4838627.227719645
 10
623610.028957424
 20
4838725.653430586
  0
LWPOLYLINE
  5
40E
330
17
100
AcDbEntity
  8
ROADS
100
AcDbPolyline
 90
2
 70
0
 10
623721.1635265232
 20
4838639.63665481
 10
623684.8602357425
 20
4838771.627833186
  0
LWPOLYLINE
  5
40F
330
17
100
AcDbEntity
  8
ROADS
100
AcDbPolyline
 90
3
 70
0
 10
623610.028957424
 20
4838725.653430586
 10
623455.4069500804
 20
4838699.895353857
 10
623346.5661919173
 20
4838739.437678263
  0
LWPOLYLINE
  5
410
330
17
100
AcDbEntity
  8
ROADS
100
AcDbPolyline
 90
2
 70
0
 10
623684.8602357425
 20
4838771.627833186
 10
623610.028957424
 20
4838725.653430586
  0
LWPOLYLINE
  5
411
330
17
100
AcDbEntity
  8
ROADS
100
AcDbPolyline
 90
2
 70
0
 10
623907.0860099843
 20
4838635.389802362
 10
623829.718022332
 20
4838871.427550855
  0
LWPOLYLINE
  5
412
330
17
100
AcDbEntity
  8
ROADS
100
AcDbPolyline
 90
2
 70
0
 10
623714.4276522107
 20
4838792.200208991
 10
623684.8602357425
 20
4838771.627833186
  0
LWPOLYLINE
  5
413
330
17
100
AcDbEntity
  8
ROADS
100
AcDbPolyline
 90
2
 70
0
 10
623684.8602357425
 20
4838771.627833186
 10
623675.1660031185
 20
4838803.291618855
  0
LWPOLYLINE
  5
414
330
17
100
AcDbEntity
  8
ROADS
100
AcDbPolyline
 90
2
 70
0
 10
623675.1660031185
 20
4838803.291618855
 10
623491.6374054287
 20
4838779.141724196
  0
LWPOLYLINE
  5
415
330
17
100
AcDbEntity
  8
ROADS
100
AcDbPolyline
 90
2
 70
0
 10
623346.5661919173
 20
4838739.437678263
 10
623325.8304340275
 20
4838732.787277717
  0
LWPOLYLINE
  5
416
330
17
100
AcDbEntity
  8
ROADS
100
AcDbPolyline
 90
2
 70
0
 10
623142.3369893407
 20
4838765.6681460915
 10
622972.393836019
 20
4838708.7331986325
  0
LWPOLYLINE
  5
417
330
17
100
AcDbEntity
  8
ROADS
100
AcDbPolyline
 90
2
 70
0
 10
622972.393836019
 20
4838708.7331986325
 10
622962.1102678935
 20
4838755.013370184
  0
LWPOLYLINE
  5
418
330
17
100
AcDbEntity
  8
ROADS
100
AcDbPolyline
 90
2
 70
0
 10
623325.8304340275
 20
4838732.787277717
 10
623313.0413161627
 20
4838774.021337245
  0
LWPOLYLINE
  5
419
330
17
100
AcDbEntity
  8
ROADS
100
AcDbPolyline
 90
2
 70
0
 10
622947.7568344024
 20
4838754.819439084
 10
622940.538557158
 20
4838741.943649788
  0
LWPOLYLINE
  5
41A
330
17
100
AcDbEntity
  8
ROADS
100
AcDbPolyline
 90
2
 70
0
 10
623491.6374054287
 20
4838779.141724196
 10
623346.5661919173
 20
4838739.437678263
  0
LWPOLYLINE
  5
41B
330
17
100
AcDbEntity
  8
ROADS
100
AcDbPolyline
 90
2
 70
0
 10
623309.6356785217
 20
4838773.791099963
 10
623220.245127768
 20
4838744.120042537
  0
LWPOLYLINE
  5
41C
330
17
100
AcDbEntity
  8
ROADS
100
AcDbPolyline
 90
2
 70
0
 10
624007.2435411818
 20
4838667.33007727
 10
623938.0176572236
 20
4838887.447752877
  0
LWPOLYLINE
  5
41D
330
17
100
AcDbEntity
  8
ROADS
100
AcDbPolyline
 90
2
 70
0
 10
624107.547640624
 20
4838702.392186886
 10
624046.0574698381
 20
4838891.753887631
  0
LWPOLYLINE
  5
41E
330
17
100
AcDbEntity
  8
ROADS
100
AcDbPolyline
 90
2
 70
0
 10
623483.5892001498
 20
4838801.590877922
 10
623491.6374054287
 20
4838779.141724196
  0
LWPOLYLINE
  5
41F
330
17
100
AcDbEntity
  8
ROADS
100
AcDbPolyline
 90
2
 70
0
 10
623734.920059413
 20
4838828.558756965
 10
623675.1660031185
 20
4838803.291618855
  0
LWPOLYLINE
  5
420
330
17
100
AcDbEntity
  8
ROADS
100
AcDbPolyline
 90
2
 70
0
 10
623734.920059413
 20
4838828.558756965
 10
623783.7072474385
 20
4838857.104704105
  0
LWPOLYLINE
  5
421
330
17
100
AcDbEntity
  8
ROADS
100
AcDbPolyline
 90
2
 70
0
 10
623792.4518880851
 20
4838863.671898635
 10
623783.7072474385
 20
4838857.104704105
  0
LWPOLYLINE
  5
422
330
17
100
AcDbEntity
  8
ROADS
100
AcDbPolyline
 90
2
 70
0
 10
623783.7072474385
 20
4838857.104704105
 10
623782.2760993523
 20
4838861.595056809
  0
LWPOLYLINE
  5
423
330
17
100
AcDbEntity
  8
ROADS
100
AcDbPolyline
 90
2
 70
0
 10
621932.9778111584
 20
4838273.074277423
 10
621880.457619855
 20
4838258.224863055
  0
LWPOLYLINE
  5
424
330
17
100
AcDbEntity
  8
ROADS
100
AcDbPolyline
 90
2
 70
0
 10
622002.0031466305
 20
4838293.358648515
 10
621932.9778111584
 20
4838273.074277423
  0
LWPOLYLINE
  5
425
330
17
100
AcDbEntity
  8
ROADS
100
AcDbPolyline
 90
3
 70
0
 10
622002.0031466305
 20
4838293.358648515
 10
621982.01567993
 20
4838366.038526603
 10
622000.9087362895
 20
4838403.85724242
  0
LWPOLYLINE
  5
426
330
17
100
AcDbEntity
  8
ROADS
100
AcDbPolyline
 90
2
 70
0
 10
623097.697689594
 20
4838614.821976977
 10
623084.8135051162
 20
4838652.999837536
  0
LWPOLYLINE
  5
427
330
17
100
AcDbEntity
  8
ROADS
100
AcDbPolyline
 90
2
 70
0
 10
623084.8135051162
 20
4838652.999837536
 10
622987.8412493868
 20
4838621.068263738
  0
LWPOLYLINE
  5
428
330
17
100
AcDbEntity
  8
ROADS
100
AcDbPolyline
 90
2
 70
0
 10
622987.8412493868
 20
4838621.068263738
 10
622979.7741273713
 20
4838665.7245613765
  0
LWPOLYLINE
  5
429
330
17
100
AcDbEntity
  8
ROADS
100
AcDbPolyline
 90
2
 70
0
 10
622979.7741273713
 20
4838665.7245613765
 10
622940.3471983522
 20
4838652.288758891
  0
LWPOLYLINE
  5
42A
330
17
100
AcDbEntity
  8
ROADS
100
AcDbPolyline
 90
2
 70
0
 10
623303.3698352203
 20
4838609.081769832
 10
623271.2638144081
 20
4838716.47046612
  0
LWPOLYLINE
  5
42B
330
17
100
AcDbEntity
  8
ROADS
100
AcDbPolyline
 90
2
 70
0
 10
623179.8511578954
 20
4838686.453513187
 10
623084.8135051162
 20
4838652.999837536
  0
LWPOLYLINE
  5
42C
330
17
100
AcDbEntity
  8
ROADS
100
AcDbPolyline
 90
2
 70
0
 10
622979.7741273713
 20
4838665.7245613765
 10
622972.393836019
 20
4838708.7331986325
  0
LWPOLYLINE
  5
42D
330
17
100
AcDbEntity
  8
ROADS
100
AcDbPolyline
 90
2
 70
0
 10
623271.2638144081
 20
4838716.47046612
 10
623179.8511578954
 20
4838686.453513187
  0
LWPOLYLINE
  5
42E
330
17
100
AcDbEntity
  8
ROADS
100
AcDbPolyline
 90
2
 70
0
 10
623325.8304340275
 20
4838732.787277717
 10
623271.2638144081
 20
4838716.47046612
  0
LWPOLYLINE
  5
42F
330
17
100
AcDbEntity
  8
ROADS
100
AcDbPolyline
 90
2
 70
0
 10
623179.8511578954
 20
4838686.453513187
 10
623153.8891323624
 20
4838765.432519665
  0
LWPOLYLINE
  5
430
330
17
100
AcDbEntity
  8
ROADS
100
AcDbPolyline
 90
2
 70
0
 10
622940.538557158
 20
4838741.943649788
 10
622865.6259831913
 20
4838666.747945029
  0
LWPOLYLINE
  5
431
330
17
100
AcDbEntity
  8
ROADS
100
AcDbPolyline
 90
3
 70
0
 10
622865.6259831913
 20
4838666.747945029
 10
622825.5427452724
 20
4838726.858884336
 10
622808.3247184285
 20
4838743.20931921
  0
LWPOLYLINE
  5
432
330
17
100
AcDbEntity
  8
ROADS
100
AcDbPolyline
 90
2
 70
0
 10
622632.6533731113
 20
4838672.068283353
 10
622618.9558270097
 20
4838714.0331032025
  0
LWPOLYLINE
  5
433
330
17
100
AcDbEntity
  8
ROADS
100
AcDbPolyline
 90
2
 70
0
 10
622940.538557158
 20
4838741.943649788
 10
622928.3757169916
 20
4838753.696452224
  0
ENDSEC
  0
SECTION
  2
OBJECTS
  0
DICTIONARY
  5
A
330
0
100
AcDbDictionary
281
1
  3
ACAD_COLOR
350
B
  3
ACAD_GROUP
350
C
  3
ACAD_LAYOUT
350
D
  3
ACAD_MATERIAL
350
E
  3
ACAD_MLEADERSTYLE
350
F
  3
ACAD_MLINESTYLE
350
10
  3
ACAD_PLOTSETTINGS
350
11
  3
ACAD_PLOTSTYLENAME
350
12
  3
ACAD_SCALELIST
350
14
  3
ACAD_TABLESTYLE
350
15
  3
ACAD_VISUALSTYLE
350
16
  3
EZDXF_META
350
2D
  0
DICTIONARY
  5
B
330
A
100
AcDbDictionary
281
1
  0
DICTIONARY
  5
C
330
A
100
AcDbDictionary
281
1
  0
DICTIONARY
  5
D
330
A
100
AcDbDictionary
281
1
  3
Model
350
1A
  3
Layout1
350
1E
  0
DICTIONARY
  5
E
330
A
100
AcDbDictionary
281
1
  3
ByBlock
350
1F
  3
ByLayer
350
20
  3
Global
350
21
  0
DICTIONARY
  5
F
330
A
100
AcDbDictionary
281
1
  3
Standard
350
2C
  0
DICTIONARY
  5
10
330
A
100
AcDbDictionary
281
1
  3
Standard
350
22
  0
DICTIONARY
  5
11
330
A
100
AcDbDictionary
281
1
  0
ACDBDICTIONARYWDFLT
  5
12
330
A
100
AcDbDictionary
281
1
  3
Normal
350
13
100
AcDbDictionaryWithDefault
340
13
  0
ACDBPLACEHOLDER
  5
13
330
12
  0
DICTIONARY
  5
14
330
A
100
AcDbDictionary
281
1
  0
DICTIONARY
  5
15
330
A
100
AcDbDictionary
281
1
  0
DICTIONARY
  5
16
330
A
100
AcDbDictionary
281
1
  0
LAYOUT
  5
1A
330
D
100
AcDbPlotSettings
  1

  4
A3
  6

 40
7.5
 41
20.0
 42
7.5
 43
20.0
 44
420.0
 45
297.0
 46
0.0
 47
0.0
 48
0.0
 49
0.0
140
0.0
141
0.0
142
1.0
143
1.0
 70
1024
 72
1
 73
0
 74
5
  7

 75
16
 76
0
 77
2
 78
300
147
1.0
148
0.0
149
0.0
100
AcDbLayout
  1
Model
 70
1
 71
0
 10
0.0
 20
0.0
 11
420.0
 21
297.0
 12
0.0
 22
0.0
 32
0.0
 14
1e+20
 24
1e+20
 34
1e+20
 15
-1e+20
 25
-1e+20
 35
-1e+20
146
0.0
 13
0.0
 23
0.0
 33
0.0
 16
1.0
 26
0.0
 36
0.0
 17
0.0
 27
1.0
 37
0.0
 76
1
330
17
  0
LAYOUT
  5
1E
330
D
100
AcDbPlotSettings
  1

  4
A3
  6

 40
7.5
 41
20.0
 42
7.5
 43
20.0
 44
420.0
 45
297.0
 46
0.0
 47
0.0
 48
0.0
 49
0.0
140
0.0
141
0.0
142
1.0
143
1.0
 70
0
 72
1
 73
0
 74
5
  7

 75
16
 76
0
 77
2
 78
300
147
1.0
148
0.0
149
0.0
100
AcDbLayout
  1
Layout1
 70
1
 71
1
 10
0.0
 20
0.0
 11
420.0
 21
297.0
 12
0.0
 22
0.0
 32
0.0
 14
1e+20
 24
1e+20
 34
1e+20
 15
-1e+20
 25
-1e+20
 35
-1e+20
146
0.0
 13
0.0
 23
0.0
 33
0.0
 16
1.0
 26
0.0
 36
0.0
 17
0.0
 27
1.0
 37
0.0
 76
1
330
1B
  0
MATERIAL
  5
1F
102
{ACAD_REACTORS
330
E
102
}
330
E
100
AcDbMaterial
  1
ByBlock
  2

 70
0
 40
1.0
 71
1
 41
1.0
 91
-1023410177
 42
1.0
 72
1
  3

 73
1
 74
1
 75
1
 44
0.5
 73
0
 45
1.0
 46
1.0
 77
1
  4

 78
1
 79
1
170
1
 48
1.0
171
1
  6

172
1
173
1
174
1
140
1.0
141
1.0
175
1
  7

176
1
177
1
178
1
143
1.0
179
1
  8

270
1
271
1
272
1
145
1.0
146
1.0
273
1
  9

274
1
275
1
276
1
 42
1.0
 72
1
  3

 73
1
 74
1
 75
1
 94
63
  0
MATERIAL
  5
20
102
{ACAD_REACTORS
330
E
102
}
330
E
100
AcDbMaterial
  1
ByLayer
  2

 70
0
 40
1.0
 71
1
 41
1.0
 91
-1023410177
 42
1.0
 72
1
  3

 73
1
 74
1
 75
1
 44
0.5
 73
0
 45
1.0
 46
1.0
 77
1
  4

 78
1
 79
1
170
1
 48
1.0
171
1
  6

172
1
173
1
174
1
140
1.0
141
1.0
175
1
  7

176
1
177
1
178
1
143
1.0
179
1
  8

270
1
271
1
272
1
145
1.0
146
1.0
273
1
  9

274
1
275
1
276
1
 42
1.0
 72
1
  3

 73
1
 74
1
 75
1
 94
63
  0
MATERIAL
  5
21
102
{ACAD_REACTORS
330
E
102
}
330
E
100
AcDbMaterial
  1
Global
  2

 70
0
 40
1.0
 71
1
 41
1.0
 91
-1023410177
 42
1.0
 72
1
  3

 73
1
 74
1
 75
1
 44
0.5
 73
0
 45
1.0
 46
1.0
 77
1
  4

 78
1
 79
1
170
1
 48
1.0
171
1
  6

172
1
173
1
174
1
140
1.0
141
1.0
175
1
  7

176
1
177
1
178
1
143
1.0
179
1
  8

270
1
271
1
272
1
145
1.0
146
1.0
273
1
  9

274
1
275
1
276
1
 42
1.0
 72
1
  3

 73
1
 74
1
 75
1
 94
63
  0
MLINESTYLE
  5
22
102
{ACAD_REACTORS
330
10
102
}
330
10
100
AcDbMlineStyle
  2
Standard
 70
0
  3

 62
256
 51
90.0
 52
90.0
 71
2
 49
0.5
 62
256
  6
BYLAYER
 49
-0.5
 62
256
  6
BYLAYER
  0
MLEADERSTYLE
  5
2C
102
{ACAD_REACTORS
330
F
102
}
330
F
100
AcDbMLeaderStyle
179
2
170
2
171
1
172
0
 90
2
 40
0.0
 41
0.0
173
1
 91
-1056964608
 92
-2
290
1
 42
2.0
291
1
 43
8.0
  3
Standard
 44
4.0
300

342
29
174
1
175
1
176
0
178
1
 93
-1056964608
 45
4.0
292
0
297
0
 46
4.0
 94
-1056964608
 47
1.0
 49
1.0
140
1.0
294
1
141
0.0
177
0
142
1.0
295
0
296
0
143
3.75
271
0
272
9
273
9
  0
DICTIONARY
  5
2D
330
A
100
AcDbDictionary
280
1
281
1
  3
CREATED_BY_EZDXF
350
2E
  3
WRITTEN_BY_EZDXF
350
436
  0
DICTIONARYVAR
  5
2E
330
2D
100
DictionaryVariables
280
0
  1
1.4.4 @ 2026-07-30T15:41:38.803910+00:00
  0
DICTIONARYVAR
  5
436
330
2D
100
DictionaryVariables
280
0
  1
1.4.4 @ 2026-07-30T15:41:38.909523+00:00
  0
ENDSEC
  0
EOF
