  0
SECTION
  2
HEADER
  9
$ACADVER
  1
AC1015
  9
$ACADMAINTVER
 70
6
  9
$DWGCODEPAGE
  3
ANSI_1252
  9
$INSBASE
 10
0.0
 20
0.0
 30
0.0
  9
$EXTMIN
 10
1e+20
 20
1e+20
 30
1e+20
  9
$EXTMAX
 10
-1e+20
 20
-1e+20
 30
-1e+20
  9
$LIMMIN
 10
0.0
 20
0.0
  9
$LIMMAX
 10
420.0
 20
297.0
  9
$ORTHOMODE
 70
0
  9
$REGENMODE
 70
1
  9
$FILLMODE
 70
1
  9
$QTEXTMODE
 70
0
  9
$MIRRTEXT
 70
1
  9
$LTSCALE
 40
1.0
  9
$ATTMODE
 70
1
  9
$TEXTSIZE
 40
2.5
  9
$TRACEWID
 40
1.0
  9
$TEXTSTYLE
  7
Standard
  9
$CLAYER
  8
0
  9
$CELTYPE
  6
ByLayer
  9
$CECOLOR
 62
256
  9
$CELTSCALE
 40
1.0
  9
$DISPSILH
 70
0
  9
$DIMSCALE
 40
1.0
  9
$DIMASZ
 40
2.5
  9
$DIMEXO
 40
0.625
  9
$DIMDLI
 40
3.75
  9
$DIMRND
 40
0.0
  9
$DIMDLE
 40
0.0
  9
$DIMEXE
 40
1.25
  9
$DIMTP
 40
0.0
  9
$DIMTM
 40
0.0
  9
$DIMTXT
 40
2.5
  9
$DIMCEN
 40
2.5
  9
$DIMTSZ
 40
0.0
  9
$DIMTOL
 70
0
  9
$DIMLIM
 70
0
  9
$DIMTIH
 70
0
  9
$DIMTOH
 70
0
  9
$DIMSE1
 70
0
  9
$DIMSE2
 70
0
  9
$DIMTAD
 70
1
  9
$DIMZIN
 70
8
  9
$DIMBLK
  1

  9
$DIMASO
 70
1
  9
$DIMSHO
 70
1
  9
$DIMPOST
  1

  9
$DIMAPOST
  1

  9
$DIMALT
 70
0
  9
$DIMALTD
 70
3
  9
$DIMALTF
 40
0.03937007874
  9
$DIMLFAC
 40
1.0
  9
$DIMTOFL
 70
1
  9
$DIMTVP
 40
0.0
  9
$DIMTIX
 70
0
  9
$DIMSOXD
 70
0
  9
$DIMSAH
 70
0
  9
$DIMBLK1
  1

  9
$DIMBLK2
  1

  9
$DIMSTYLE
  2
ISO-25
  9
$DIMCLRD
 70
0
  9
$DIMCLRE
 70
0
  9
$DIMCLRT
 70
0
  9
$DIMTFAC
 40
1.0
  9
$DIMGAP
 40
0.625
  9
$DIMJUST
 70
0
  9
$DIMSD1
 70
0
  9
$DIMSD2
 70
0
  9
$DIMTOLJ
 70
0
  9
$DIMTZIN
 70
8
  9
$DIMALTZ
 70
0
  9
$DIMALTTZ
 70
0
  9
$DIMUPT
 70
0
  9
$DIMDEC
 70
2
  9
$DIMTDEC
 70
2
  9
$DIMALTU
 70
2
  9
$DIMALTTD
 70
3
  9
$DIMTXSTY
  7
Standard
  9
$DIMAUNIT
 70
0
  9
$DIMADEC
 70
0
  9
$DIMALTRND
 40
0.0
  9
$DIMAZIN
 70
0
  9
$DIMDSEP
 70
44
  9
$DIMATFIT
 70
3
  9
$DIMFRAC
 70
0
  9
$DIMLDRBLK
  1

  9
$DIMLUNIT
 70
2
  9
$DIMLWD
 70
-2
  9
$DIMLWE
 70
-2
  9
$DIMTMOVE
 70
0
  9
$LUNITS
 70
2
  9
$LUPREC
 70
4
  9
$SKETCHINC
 40
1.0
  9
$FILLETRAD
 40
10.0
  9
$AUNITS
 70
0
  9
$AUPREC
 70
2
  9
$MENU
  1
.
  9
$ELEVATION
 40
0.0
  9
$PELEVATION
 40
0.0
  9
$THICKNESS
 40
0.0
  9
$LIMCHECK
 70
0
  9
$CHAMFERA
 40
0.0
  9
$CHAMFERB
 40
0.0
  9
$CHAMFERC
 40
0.0
  9
$CHAMFERD
 40
0.0
  9
$SKPOLY
 70
0
  9
$TDCREATE
 40
2461252.485949074
  9
$TDUCREATE
 40
2458532.153996898
  9
$TDUPDATE
 40
2461252.485949074
  9
$TDUUPDATE
 40
2458532.1544311
  9
$TDINDWG
 40
0.0
  9
$TDUSRTIMER
 40
0.0
  9
$USRTIMER
 70
1
  9
$ANGBASE
 50
0.0
  9
$ANGDIR
 70
0
  9
$PDMODE
 70
0
  9
$PDSIZE
 40
0.0
  9
$PLINEWID
 40
0.0
  9
$SPLFRAME
 70
0
  9
$SPLINETYPE
 70
6
  9
$SPLINESEGS
 70
8
  9
$HANDSEED
  5
341
  9
$SURFTAB1
 70
6
  9
$SURFTAB2
 70
6
  9
$SURFTYPE
 70
6
  9
$SURFU
 70
6
  9
$SURFV
 70
6
  9
$UCSBASE
  2

  9
$UCSNAME
  2

  9
$UCSORG
 10
0.0
 20
0.0
 30
0.0
  9
$UCSXDIR
 10
1.0
 20
0.0
 30
0.0
  9
$UCSYDIR
 10
0.0
 20
1.0
 30
0.0
  9
$UCSORTHOREF
  2

  9
$UCSORTHOVIEW
 70
0
  9
$UCSORGTOP
 10
0.0
 20
0.0
 30
0.0
  9
$UCSORGBOTTOM
 10
0.0
 20
0.0
 30
0.0
  9
$UCSORGLEFT
 10
0.0
 20
0.0
 30
0.0
  9
$UCSORGRIGHT
 10
0.0
 20
0.0
 30
0.0
  9
$UCSORGFRONT
 10
0.0
 20
0.0
 30
0.0
  9
$UCSORGBACK
 10
0.0
 20
0.0
 30
0.0
  9
$PUCSBASE
  2

  9
$PUCSNAME
  2

  9
$PUCSORG
 10
0.0
 20
0.0
 30
0.0
  9
$PUCSXDIR
 10
1.0
 20
0.0
 30
0.0
  9
$PUCSYDIR
 10
0.0
 20
1.0
 30
0.0
  9
$PUCSORTHOREF
  2

  9
$PUCSORTHOVIEW
 70
0
  9
$PUCSORGTOP
 10
0.0
 20
0.0
 30
0.0
  9
$PUCSORGBOTTOM
 10
0.0
 20
0.0
 30
0.0
  9
$PUCSORGLEFT
 10
0.0
 20
0.0
 30
0.0
  9
$PUCSORGRIGHT
 10
0.0
 20
0.0
 30
0.0
  9
$PUCSORGFRONT
 10
0.0
 20
0.0
 30
0.0
  9
$PUCSORGBACK
 10
0.0
 20
0.0
 30
0.0
  9
$USERI1
 70
0
  9
$USERI2
 70
0
  9
$USERI3
 70
0
  9
$USERI4
 70
0
  9
$USERI5
 70
0
  9
$USERR1
 40
0.0
  9
$USERR2
 40
0.0
  9
$USERR3
 40
0.0
  9
$USERR4
 40
0.0
  9
$USERR5
 40
0.0
  9
$WORLDVIEW
 70
1
  9
$SHADEDGE
 70
3
  9
$SHADEDIF
 70
70
  9
$TILEMODE
 70
1
  9
$MAXACTVP
 70
64
  9
$PINSBASE
 10
0.0
 20
0.0
 30
0.0
  9
$PLIMCHECK
 70
0
  9
$PEXTMIN
 10
1e+20
 20
1e+20
 30
1e+20
  9
$PEXTMAX
 10
-1e+20
 20
-1e+20
 30
-1e+20
  9
$PLIMMIN
 10
0.0
 20
0.0
  9
$PLIMMAX
 10
420.0
 20
297.0
  9
$UNITMODE
 70
0
  9
$VISRETAIN
 70
1
  9
$PLINEGEN
 70
0
  9
$PSLTSCALE
 70
1
  9
$TREEDEPTH
 70
3020
  9
$CMLSTYLE
  2
Standard
  9
$CMLJUST
 70
0
  9
$CMLSCALE
 40
20.0
  9
$PROXYGRAPHICS
 70
1
  9
$MEASUREMENT
 70
1
  9
$CELWEIGHT
370
-1
  9
$ENDCAPS
280
0
  9
$JOINSTYLE
280
0
  9
$LWDISPLAY
290
0
  9
$INSUNITS
 70
6
  9
$HYPERLINKBASE
  1

  9
$STYLESHEET
  1

  9
$XEDIT
290
1
  9
$CEPSNTYPE
380
0
  9
$PSTYLEMODE
290
1
  9
$FINGERPRINTGUID
  2
{764FCB91-BAA7-4469-B5DF-4EBB0FB32828}
  9
$VERSIONGUID
  2
{C3453378-358A-4F43-91B9-B2F5015F30D4}
  9
$EXTNAMES
290
1
  9
$PSVPSCALE
 40
0.0
  9
$OLESTARTUP
290
0
  0
ENDSEC
  0
SECTION
  2
CLASSES
  0
CLASS
  1
ACDBDICTIONARYWDFLT
  2
AcDbDictionaryWithDefault
  3
ObjectDBX Classes
 90
0
280
0
281
0
  0
CLASS
  1
SUN
  2
AcDbSun
  3
SCENEOE
 90
1153
280
0
281
0
  0
CLASS
  1
VISUALSTYLE
  2
AcDbVisualStyle
  3
ObjectDBX Classes
 90
4095
280
0
281
0
  0
CLASS
  1
MATERIAL
  2
AcDbMaterial
  3
ObjectDBX Classes
 90
1153
280
0
281
0
  0
CLASS
  1
SCALE
  2
AcDbScale
  3
ObjectDBX Classes
 90
1153
280
0
281
0
  0
CLASS
  1
TABLESTYLE
  2
AcDbTableStyle
  3
ObjectDBX Classes
 90
4095
280
0
281
0
  0
CLASS
  1
MLEADERSTYLE
  2
AcDbMLeaderStyle
  3
ACDB_MLEADERSTYLE_CLASS
 90
4095
280
0
281
0
  0
CLASS
  1
DICTIONARYVAR
  2
AcDbDictionaryVar
  3
ObjectDBX Classes
 90
0
280
0
281
0
  0
CLASS
  1
CELLSTYLEMAP
  2
AcDbCellStyleMap
  3
ObjectDBX Classes
 90
1152
280
0
281
0
  0
CLASS
  1
MENTALRAYRENDERSETTINGS
  2
AcDbMentalRayRenderSettings
  3
SCENEOE
 90
1024
280
0
281
0
  0
CLASS
  1
ACDBDETAILVIEWSTYLE
  2
AcDbDetailViewStyle
  3
ObjectDBX Classes
 90
1025
280
0
281
0
  0
CLASS
  1
ACDBSECTIONVIEWSTYLE
  2
AcDbSectionViewStyle
  3
ObjectDBX Classes
 90
1025
280
0
281
0
  0
CLASS
  1
RASTERVARIABLES
  2
AcDbRasterVariables
  3
ISM
 90
0
280
0
281
0
  0
CLASS
  1
ACDBPLACEHOLDER
  2
AcDbPlaceHolder
  3
ObjectDBX Classes
 90
0
280
0
281
0
  0
CLASS
  1
LAYOUT
  2
AcDbLayout
  3
ObjectDBX Classes
 90
0
280
0
281
0
  0
ENDSEC
  0
SECTION
  2
TABLES
  0
TABLE
  2
VPORT
  5
8
330
0
100
AcDbSymbolTable
 70
1
  0
VPORT
  5
23
330
8
100
AcDbSymbolTableRecord
100
AcDbViewportTableRecord
  2
*Active
 70
0
 10
0.0
 20
0.0
 11
1.0
 21
1.0
 12
0.0
 22
0.0
 13
0.0
 23
0.0
 14
0.5
 24
0.5
 15
0.5
 25
0.5
 16
0.0
 26
0.0
 36
1.0
 17
0.0
 27
0.0
 37
0.0
 40
1000.0
 41
1.34
 42
50.0
 43
0.0
 44
0.0
 50
0.0
 51
0.0
 71
0
 72
1000
 73
1
 74
3
 75
0
 76
0
 77
0
 78
0
281
0
 65
0
146
0.0
  0
ENDTAB
  0
TABLE
  2
LTYPE
  5
2
330
0
100
AcDbSymbolTable
 70
3
  0
LTYPE
  5
24
330
2
100
AcDbSymbolTableRecord
100
AcDbLinetypeTableRecord
  2
ByBlock
 70
0
  3

 72
65
 73
0
 40
0.0
  0
LTYPE
  5
25
330
2
100
AcDbSymbolTableRecord
100
AcDbLinetypeTableRecord
  2
ByLayer
 70
0
  3

 72
65
 73
0
 40
0.0
  0
LTYPE
  5
26
330
2
100
AcDbSymbolTableRecord
100
AcDbLinetypeTableRecord
  2
Continuous
 70
0
  3

 72
65
 73
0
 40
0.0
  0
ENDTAB
  0
TABLE
  2
LAYER
  5
1
330
0
100
AcDbSymbolTable
 70
2
  0
LAYER
  5
27
330
1
100
AcDbSymbolTableRecord
100
AcDbLayerTableRecord
  2
0
 70
0
 62
7
  6
Continuous
370
-3
390
13
  0
LAYER
  5
28
330
1
100
AcDbSymbolTableRecord
100
AcDbLayerTableRecord
  2
Defpoints
 70
0
 62
7
  6
Continuous
290
0
370
-3
390
13
  0
ENDTAB
  0
TABLE
  2
STYLE
  5
5
330
0
100
AcDbSymbolTable
 70
1
  0
STYLE
  5
29
330
5
100
AcDbSymbolTableRecord
100
AcDbTextStyleTableRecord
  2
Standard
 70
0
 40
0.0
 41
1.0
 50
0.0
 71
0
 42
2.5
  3
txt
  4

  0
ENDTAB
  0
TABLE
  2
VIEW
  5
7
330
0
100
AcDbSymbolTable
 70
0
  0
ENDTAB
  0
TABLE
  2
UCS
  5
6
330
0
100
AcDbSymbolTable
 70
0
  0
ENDTAB
  0
TABLE
  2
APPID
  5
3
330
0
100
AcDbSymbolTable
 70
3
  0
APPID
  5
2A
330
3
100
AcDbSymbolTableRecord
100
AcDbRegAppTableRecord
  2
ACAD
 70
0
  0
APPID
  5
33E
330
3
100
AcDbSymbolTableRecord
100
AcDbRegAppTableRecord
  2
HATCHBACKGROUNDCOLOR
 70
0
  0
APPID
  5
33F
330
3
100
AcDbSymbolTableRecord
100
AcDbRegAppTableRecord
  2
EZDXF
 70
0
  0
ENDTAB
  0
TABLE
  2
DIMSTYLE
  5
4
330
0
100
AcDbSymbolTable
 70
1
100
AcDbDimStyleTable
  0
DIMSTYLE
105
2B
330
4
100
AcDbSymbolTableRecord
100
AcDbDimStyleTableRecord
  2
Standard
 70
0
  3

  4

 40
1.0
 41
2.5
 42
0.625
 43
3.75
 44
1.25
 45
0.0
 46
0.0
 47
0.0
 48
0.0
140
2.5
141
2.5
142
0.0
143
0.03937007874
144
1.0
145
0.0
146
1.0
147
0.625
148
0.0
 71
0
 72
0
 73
0
 74
0
 75
0
 76
0
 77
1
 78
8
 79
3
170
0
171
3
172
1
173
0
174
0
175
0
176
0
177
0
178
0
179
2
271
2
272
2
273
2
274
3
275
0
276
0
277
2
278
44
279
0
280
0
281
0
282
0
283
0
284
8
285
0
286
0
288
0
289
3
371
-2
372
-2
  0
ENDTAB
  0
TABLE
  2
BLOCK_RECORD
  5
9
330
0
100
AcDbSymbolTable
 70
2
  0
BLOCK_RECORD
  5
17
330
9
100
AcDbSymbolTableRecord
100
AcDbBlockTableRecord
  2
*Model_Space
340
1A
  0
BLOCK_RECORD
  5
1B
330
9
100
AcDbSymbolTableRecord
100
AcDbBlockTableRecord
  2
*Paper_Space
340
1E
  0
ENDTAB
  0
ENDSEC
  0
SECTION
  2
BLOCKS
  0
BLOCK
  5
18
330
17
100
AcDbEntity
  8
0
100
AcDbBlockBegin
  2
*Model_Space
 70
0
 10
0.0
 20
0.0
 30
0.0
  3
*Model_Space
  1

  0
ENDBLK
  5
19
330
17
100
AcDbEntity
  8
0
100
AcDbBlockEnd
  0
BLOCK
  5
1C
330
1B
100
AcDbEntity
  8
0
100
AcDbBlockBegin
  2
*Paper_Space
 70
0
 10
0.0
 20
0.0
 30
0.0
  3
*Paper_Space
  1

  0
ENDBLK
  5
1D
330
1B
100
AcDbEntity
  8
0
100
AcDbBlockEnd
  0
ENDSEC
  0
SECTION
  2
ENTITIES
  0
LWPOLYLINE
  5
2F
330
17
100
AcDbEntity
  8
ROADS
100
AcDbPolyline
 90
2
 70
0
 10
621500.8311054136
 20
4829302.450788579
 10
621488.069068467
 20
4829298.073600609
  0
LWPOLYLINE
  5
30
330
17
100
AcDbEntity
  8
ROADS
100
AcDbPolyline
 90
3
 70
0
 10
621820.3677343911
 20
4829329.044769336
 10
621746.9155262961
 20
4829101.456909398
 10
621731.9490746938
 20
4829080.013885324
  0
LWPOLYLINE
  5
31
330
17
100
AcDbEntity
  8
ROADS
100
AcDbPolyline
 90
3
 70
0
 10
621730.3731912692
 20
4829333.665688403
 10
621680.4888325987
 20
4829173.258538373
 10
621651.535440802
 20
4829137.035833538
  0
LWPOLYLINE
  5
32
330
17
100
AcDbEntity
  8
ROADS
100
AcDbPolyline
 90
4
 70
0
 10
621637.0829268708
 20
4829349.947609282
 10
621623.4143411866
 20
4829259.745697022
 10
621593.7364237271
 20
4829191.005637006
 10
621590.7169984975
 20
4829188.833332532
  0
LWPOLYLINE
  5
33
330
17
100
AcDbEntity
  8
ROADS
100
AcDbPolyline
 90
3
 70
0
 10
621869.4418410959
 20
4829341.344603873
 10
621864.3621383931
 20
4829300.72800831
 10
621897.0355562337
 20
4829289.602573647
  0
LWPOLYLINE
  5
34
330
17
100
AcDbEntity
  8
ROADS
100
AcDbPolyline
 90
2
 70
0
 10
621820.3677343911
 20
4829329.044769336
 10
621730.3731912692
 20
4829333.665688403
  0
LWPOLYLINE
  5
35
330
17
100
AcDbEntity
  8
ROADS
100
AcDbPolyline
 90
2
 70
0
 10
621510.5857598293
 20
4829272.107692679
 10
621500.8311054136
 20
4829302.450788579
  0
LWPOLYLINE
  5
36
330
17
100
AcDbEntity
  8
ROADS
100
AcDbPolyline
 90
2
 70
0
 10
621472.4709271068
 20
4829390.015509596
 10
621431.4332548314
 20
4829376.475650422
  0
LWPOLYLINE
  5
37
330
17
100
AcDbEntity
  8
ROADS
100
AcDbPolyline
 90
2
 70
0
 10
621637.0829268708
 20
4829349.947609282
 10
621500.8311054136
 20
4829302.450788579
  0
LWPOLYLINE
  5
38
330
17
100
AcDbEntity
  8
ROADS
100
AcDbPolyline
 90
2
 70
0
 10
621500.8311054136
 20
4829302.450788579
 10
621472.4709271068
 20
4829390.015509596
  0
LWPOLYLINE
  5
39
330
17
100
AcDbEntity
  8
ROADS
100
AcDbPolyline
 90
2
 70
0
 10
621573.4522152429
 20
4829423.8317554565
 10
621472.4709271068
 20
4829390.015509596
  0
LWPOLYLINE
  5
3A
330
17
100
AcDbEntity
  8
ROADS
100
AcDbPolyline
 90
2
 70
0
 10
621444.2567224021
 20
4829477.497848846
 10
621383.5452491894
 20
4829458.39579295
  0
LWPOLYLINE
  5
3B
330
17
100
AcDbEntity
  8
ROADS
100
AcDbPolyline
 90
2
 70
0
 10
621472.4709271068
 20
4829390.015509596
 10
621444.2567224021
 20
4829477.497848846
  0
LWPOLYLINE
  5
3C
330
17
100
AcDbEntity
  8
ROADS
100
AcDbPolyline
 90
2
 70
0
 10
621415.8750875099
 20
4829569.487349919
 10
621342.7700348044
 20
4829546.415333666
  0
LWPOLYLINE
  5
3D
330
17
100
AcDbEntity
  8
ROADS
100
AcDbPolyline
 90
2
 70
0
 10
621444.2567224021
 20
4829477.497848846
 10
621415.8750875099
 20
4829569.487349919
  0
LWPOLYLINE
  5
3E
330
17
100
AcDbEntity
  8
ROADS
100
AcDbPolyline
 90
2
 70
0
 10
621573.4522152429
 20
4829423.8317554565
 10
621482.6987456586
 20
4829709.199455734
  0
LWPOLYLINE
  5
3F
330
17
100
AcDbEntity
  8
ROADS
100
AcDbPolyline
 90
2
 70
0
 10
621383.2728503981
 20
4829664.986763511
 10
621309.721850574
 20
4829640.954150881
  0
LWPOLYLINE
  5
40
330
17
100
AcDbEntity
  8
ROADS
100
AcDbPolyline
 90
2
 70
0
 10
621415.8750875099
 20
4829569.487349919
 10
621383.2728503981
 20
4829664.986763511
  0
LWPOLYLINE
  5
41
330
17
100
AcDbEntity
  8
ROADS
100
AcDbPolyline
 90
2
 70
0
 10
621383.2728503981
 20
4829664.986763511
 10
621378.334897799
 20
4829679.58922626
  0
LWPOLYLINE
  5
42
330
17
100
AcDbEntity
  8
ROADS
100
AcDbPolyline
 90
2
 70
0
 10
621482.6987456586
 20
4829709.199455734
 10
621378.334897799
 20
4829679.58922626
  0
LWPOLYLINE
  5
43
330
17
100
AcDbEntity
  8
ROADS
100
AcDbPolyline
 90
2
 70
0
 10
621378.334897799
 20
4829679.58922626
 10
621353.9218214377
 20
4829755.7196689
  0
LWPOLYLINE
  5
44
330
17
100
AcDbEntity
  8
ROADS
100
AcDbPolyline
 90
2
 70
0
 10
621584.7570520465
 20
4829742.545230179
 10
621482.6987456586
 20
4829709.199455734
  0
LWPOLYLINE
  5
45
330
17
100
AcDbEntity
  8
ROADS
100
AcDbPolyline
 90
2
 70
0
 10
621353.9218214377
 20
4829755.7196689
 10
621322.3040630443
 20
4829854.458971697
  0
LWPOLYLINE
  5
46
330
17
100
AcDbEntity
  8
ROADS
100
AcDbPolyline
 90
2
 70
0
 10
621482.6987456586
 20
4829709.199455734
 10
621408.3885402184
 20
4829937.360462679
  0
LWPOLYLINE
  5
47
330
17
100
AcDbEntity
  8
ROADS
100
AcDbPolyline
 90
2
 70
0
 10
621322.3040630443
 20
4829854.458971697
 10
621305.5419610481
 20
4829906.24650613
  0
LWPOLYLINE
  5
48
330
17
100
AcDbEntity
  8
ROADS
100
AcDbPolyline
 90
2
 70
0
 10
621408.3885402184
 20
4829937.360462679
 10
621305.5419610481
 20
4829906.24650613
  0
LWPOLYLINE
  5
49
330
17
100
AcDbEntity
  8
ROADS
100
AcDbPolyline
 90
2
 70
0
 10
621869.4418410959
 20
4829341.344603873
 10
621820.3677343911
 20
4829329.044769336
  0
LWPOLYLINE
  5
4A
330
17
100
AcDbEntity
  8
ROADS
100
AcDbPolyline
 90
2
 70
0
 10
621730.3731912692
 20
4829333.665688403
 10
621637.0829268708
 20
4829349.947609282
  0
LWPOLYLINE
  5
4B
330
17
100
AcDbEntity
  8
ROADS
100
AcDbPolyline
 90
2
 70
0
 10
621949.693865565
 20
4829366.630110141
 10
621869.4418410959
 20
4829341.344603873
  0
LWPOLYLINE
  5
4C
330
17
100
AcDbEntity
  8
ROADS
100
AcDbPolyline
 90
2
 70
0
 10
621990.0617371683
 20
4829378.9217195
 10
621949.693865565
 20
4829366.630110141
  0
LWPOLYLINE
  5
4D
330
17
100
AcDbEntity
  8
ROADS
100
AcDbPolyline
 90
2
 70
0
 10
621828.0510868012
 20
4829476.109236783
 10
621820.3677343911
 20
4829329.044769336
  0
LWPOLYLINE
  5
4E
330
17
100
AcDbEntity
  8
ROADS
100
AcDbPolyline
 90
2
 70
0
 10
621728.2802684653
 20
4829473.63323226
 10
621730.3731912692
 20
4829333.665688403
  0
LWPOLYLINE
  5
4F
330
17
100
AcDbEntity
  8
ROADS
100
AcDbPolyline
 90
2
 70
0
 10
621949.693865565
 20
4829366.630110141
 10
621982.5305348746
 20
4829451.726059777
  0
LWPOLYLINE
  5
50
330
17
100
AcDbEntity
  8
ROADS
100
AcDbPolyline
 90
2
 70
0
 10
621677.2615855004
 20
4829457.209077275
 10
621573.4522152429
 20
4829423.8317554565
  0
LWPOLYLINE
  5
51
330
17
100
AcDbEntity
  8
ROADS
100
AcDbPolyline
 90
2
 70
0
 10
621728.2802684653
 20
4829473.63323226
 10
621677.2615855004
 20
4829457.209077275
  0
LWPOLYLINE
  5
52
330
17
100
AcDbEntity
  8
ROADS
100
AcDbPolyline
 90
2
 70
0
 10
621769.9227185433
 20
4829488.385978078
 10
621728.2802684653
 20
4829473.63323226
  0
LWPOLYLINE
  5
53
330
17
100
AcDbEntity
  8
ROADS
100
AcDbPolyline
 90
2
 70
0
 10
621829.3037380936
 20
4829506.751257785
 10
621828.0510868012
 20
4829476.109236783
  0
LWPOLYLINE
  5
54
330
17
100
AcDbEntity
  8
ROADS
100
AcDbPolyline
 90
2
 70
0
 10
621829.3037380936
 20
4829506.751257785
 10
621769.9227185433
 20
4829488.385978078
  0
LWPOLYLINE
  5
55
330
17
100
AcDbEntity
  8
ROADS
100
AcDbPolyline
 90
2
 70
0
 10
622062.0642333695
 20
4829523.428776942
 10
621828.0510868012
 20
4829476.109236783
  0
LWPOLYLINE
  5
56
330
17
100
AcDbEntity
  8
ROADS
100
AcDbPolyline
 90
2
 70
0
 10
621836.9907560392
 20
4829670.606567242
 10
621829.3037380936
 20
4829506.751257785
  0
LWPOLYLINE
  5
57
330
17
100
AcDbEntity
  8
ROADS
100
AcDbPolyline
 90
2
 70
0
 10
621677.2615855004
 20
4829457.209077275
 10
621584.7570520465
 20
4829742.545230179
  0
LWPOLYLINE
  5
58
330
17
100
AcDbEntity
  8
ROADS
100
AcDbPolyline
 90
2
 70
0
 10
621769.9227185433
 20
4829488.385978078
 10
621677.7101225441
 20
4829771.896392337
  0
LWPOLYLINE
  5
59
330
17
100
AcDbEntity
  8
ROADS
100
AcDbPolyline
 90
3
 70
0
 10
621836.9907560392
 20
4829670.606567242
 10
621814.869900598
 20
4829677.40835492
 10
621801.4065977449
 20
4829716.480974857
  0
LWPOLYLINE
  5
5A
330
17
100
AcDbEntity
  8
ROADS
100
AcDbPolyline
 90
2
 70
0
 10
621836.9907560392
 20
4829670.606567242
 10
621817.9193358191
 20
4829717.53375989
  0
LWPOLYLINE
  5
5B
330
17
100
AcDbEntity
  8
ROADS
100
AcDbPolyline
 90
2
 70
0
 10
621841.4449661062
 20
4829719.053226398
 10
621836.9907560392
 20
4829670.606567242
  0
LWPOLYLINE
  5
5C
330
17
100
AcDbEntity
  8
ROADS
100
AcDbPolyline
 90
2
 70
0
 10
621841.4449661062
 20
4829719.053226398
 10
622044.6784450843
 20
4829707.861314332
  0
LWPOLYLINE
  5
5D
330
17
100
AcDbEntity
  8
ROADS
100
AcDbPolyline
 90
2
 70
0
 10
621801.4065977449
 20
4829716.480974857
 10
621817.9193358191
 20
4829717.53375989
  0
LWPOLYLINE
  5
5E
330
17
100
AcDbEntity
  8
ROADS
100
AcDbPolyline
 90
2
 70
0
 10
621817.9193358191
 20
4829717.53375989
 10
621841.4449661062
 20
4829719.053226398
  0
LWPOLYLINE
  5
5F
330
17
100
AcDbEntity
  8
ROADS
100
AcDbPolyline
 90
2
 70
0
 10
621846.1885363854
 20
4829771.854312064
 10
621841.4449661062
 20
4829719.053226398
  0
LWPOLYLINE
  5
60
330
17
100
AcDbEntity
  8
ROADS
100
AcDbPolyline
 90
2
 70
0
 10
621677.7101225441
 20
4829771.896392337
 10
621584.7570520465
 20
4829742.545230179
  0
LWPOLYLINE
  5
61
330
17
100
AcDbEntity
  8
ROADS
100
AcDbPolyline
 90
2
 70
0
 10
621801.4065977449
 20
4829716.480974857
 10
621774.8515460258
 20
4829801.295219524
  0
LWPOLYLINE
  5
62
330
17
100
AcDbEntity
  8
ROADS
100
AcDbPolyline
 90
2
 70
0
 10
621584.7570520465
 20
4829742.545230179
 10
621571.6852371747
 20
4829782.809944931
  0
LWPOLYLINE
  5
63
330
17
100
AcDbEntity
  8
ROADS
100
AcDbPolyline
 90
2
 70
0
 10
621848.5715951464
 20
4829795.2774230875
 10
621846.1885363854
 20
4829771.854312064
  0
LWPOLYLINE
  5
64
330
17
100
AcDbEntity
  8
ROADS
100
AcDbPolyline
 90
2
 70
0
 10
621774.8515460258
 20
4829801.295219524
 10
621677.7101225441
 20
4829771.896392337
  0
LWPOLYLINE
  5
65
330
17
100
AcDbEntity
  8
ROADS
100
AcDbPolyline
 90
2
 70
0
 10
621848.5715951464
 20
4829795.2774230875
 10
621774.8515460258
 20
4829801.295219524
  0
LWPOLYLINE
  5
66
330
17
100
AcDbEntity
  8
ROADS
100
AcDbPolyline
 90
6
 70
0
 10
621846.1885363854
 20
4829771.854312064
 10
622056.6244707222
 20
4829750.579049408
 10
622103.7137659912
 20
4829775.709701845
 10
622097.3934059134
 20
4829850.791034675
 10
622076.3524874084
 20
4829882.4574743295
 10
622098.4734647108
 20
4829937.715578649
  0
LWPOLYLINE
  5
67
330
17
100
AcDbEntity
  8
ROADS
100
AcDbPolyline
 90
2
 70
0
 10
621858.5268022389
 20
4829904.031199002
 10
621848.5715951464
 20
4829795.2774230875
  0
LWPOLYLINE
  5
68
330
17
100
AcDbEntity
  8
ROADS
100
AcDbPolyline
 90
2
 70
0
 10
621774.8515460258
 20
4829801.295219524
 10
621723.9870797495
 20
4829957.990643637
  0
LWPOLYLINE
  5
69
330
17
100
AcDbEntity
  8
ROADS
100
AcDbPolyline
 90
2
 70
0
 10
621858.5268022389
 20
4829904.031199002
 10
622043.17025767
 20
4829857.137981583
  0
LWPOLYLINE
  5
6A
330
17
100
AcDbEntity
  8
ROADS
100
AcDbPolyline
 90
2
 70
0
 10
621677.7101225441
 20
4829771.896392337
 10
621604.4433247834
 20
4829998.593299511
  0
LWPOLYLINE
  5
6B
330
17
100
AcDbEntity
  8
ROADS
100
AcDbPolyline
 90
2
 70
0
 10
621813.9300078702
 20
4829967.245592284
 10
621804.0150099772
 20
4829858.481554335
  0
LWPOLYLINE
  5
6C
330
17
100
AcDbEntity
  8
ROADS
100
AcDbPolyline
 90
2
 70
0
 10
621865.6797206947
 20
4829972.264513494
 10
621858.5268022389
 20
4829904.031199002
  0
LWPOLYLINE
  5
6D
330
17
100
AcDbEntity
  8
ROADS
100
AcDbPolyline
 90
2
 70
0
 10
621813.9300078702
 20
4829967.245592284
 10
621723.9870797495
 20
4829957.990643637
  0
LWPOLYLINE
  5
6E
330
17
100
AcDbEntity
  8
ROADS
100
AcDbPolyline
 90
2
 70
0
 10
621865.6797206947
 20
4829972.264513494
 10
621813.9300078702
 20
4829967.245592284
  0
LWPOLYLINE
  5
6F
330
17
100
AcDbEntity
  8
ROADS
100
AcDbPolyline
 90
2
 70
0
 10
621723.9870797495
 20
4829957.990643637
 10
621697.424272284
 20
4830027.120000786
  0
LWPOLYLINE
  5
70
330
17
100
AcDbEntity
  8
ROADS
100
AcDbPolyline
 90
2
 70
0
 10
621604.4433247834
 20
4829998.593299511
 10
621577.7461640112
 20
4829990.341728162
  0
LWPOLYLINE
  5
71
330
17
100
AcDbEntity
  8
ROADS
100
AcDbPolyline
 90
3
 70
0
 10
622098.4734647108
 20
4829937.715578649
 10
622131.5763364917
 20
4829929.060069019
 10
622143.5437698246
 20
4829952.431309041
  0
LWPOLYLINE
  5
72
330
17
100
AcDbEntity
  8
ROADS
100
AcDbPolyline
 90
2
 70
0
 10
622098.4734647108
 20
4829937.715578649
 10
622088.390080854
 20
4829960.355506605
  0
LWPOLYLINE
  5
73
330
17
100
AcDbEntity
  8
ROADS
100
AcDbPolyline
 90
2
 70
0
 10
622088.390080854
 20
4829960.355506605
 10
622143.5437698246
 20
4829952.431309041
  0
LWPOLYLINE
  5
74
330
17
100
AcDbEntity
  8
ROADS
100
AcDbPolyline
 90
2
 70
0
 10
622143.5437698246
 20
4829952.431309041
 10
622144.7504537336
 20
4829970.168930032
  0
LWPOLYLINE
  5
75
330
17
100
AcDbEntity
  8
ROADS
100
AcDbPolyline
 90
2
 70
0
 10
622088.390080854
 20
4829960.355506605
 10
622077.9510957754
 20
4829968.577341702
  0
LWPOLYLINE
  5
76
330
17
100
AcDbEntity
  8
ROADS
100
AcDbPolyline
 90
2
 70
0
 10
622077.9510957754
 20
4829968.577341702
 10
622090.3539410557
 20
4830023.041887169
  0
LWPOLYLINE
  5
77
330
17
100
AcDbEntity
  8
ROADS
100
AcDbPolyline
 90
3
 70
0
 10
622077.9510957754
 20
4829968.577341702
 10
622053.4210753847
 20
4829993.6514473595
 10
622056.9958978301
 20
4830031.318760014
  0
LWPOLYLINE
  5
78
330
17
100
AcDbEntity
  8
ROADS
100
AcDbPolyline
 90
2
 70
0
 10
622034.893864618
 20
4830021.159834168
 10
622032.3194476702
 20
4829999.6115887435
  0
LWPOLYLINE
  5
79
330
17
100
AcDbEntity
  8
ROADS
100
AcDbPolyline
 90
2
 70
0
 10
622034.893864618
 20
4830021.159834168
 10
622046.8083100151
 20
4830026.065509087
  0
LWPOLYLINE
  5
7A
330
17
100
AcDbEntity
  8
ROADS
100
AcDbPolyline
 90
3
 70
0
 10
622013.4849863725
 20
4830032.032900909
 10
622009.1888046166
 20
4830016.197572193
 10
622034.893864618
 20
4830021.159834168
  0
LWPOLYLINE
  5
7B
330
17
100
AcDbEntity
  8
ROADS
100
AcDbPolyline
 90
2
 70
0
 10
621697.424272284
 20
4830027.120000786
 10
621604.4433247834
 20
4829998.593299511
  0
LWPOLYLINE
  5
7C
330
17
100
AcDbEntity
  8
ROADS
100
AcDbPolyline
 90
2
 70
0
 10
621901.4619622006
 20
4830086.283033387
 10
621865.6797206947
 20
4829972.264513494
  0
LWPOLYLINE
  5
7D
330
17
100
AcDbEntity
  8
ROADS
100
AcDbPolyline
 90
2
 70
0
 10
621901.4619622006
 20
4830086.283033387
 10
621697.424272284
 20
4830027.120000786
  0
LWPOLYLINE
  5
7E
330
17
100
AcDbEntity
  8
ROADS
100
AcDbPolyline
 90
2
 70
0
 10
622018.4486672152
 20
4830053.194199164
 10
621901.4619622006
 20
4830086.283033387
  0
LWPOLYLINE
  5
7F
330
17
100
AcDbEntity
  8
ROADS
100
AcDbPolyline
 90
2
 70
0
 10
621697.424272284
 20
4830027.120000786
 10
621661.7893816472
 20
4830118.099472227
  0
LWPOLYLINE
  5
80
330
17
100
AcDbEntity
  8
ROADS
100
AcDbPolyline
 90
2
 70
0
 10
621914.553374763
 20
4830120.121045306
 10
621901.4619622006
 20
4830086.283033387
  0
LWPOLYLINE
  5
81
330
17
100
AcDbEntity
  8
ROADS
100
AcDbPolyline
 90
3
 70
0
 10
621914.553374763
 20
4830120.121045306
 10
621770.4927480299
 20
4830150.518371581
 10
621661.7893816472
 20
4830118.099472227
  0
LWPOLYLINE
  5
82
330
17
100
AcDbEntity
  8
ROADS
100
AcDbPolyline
 90
2
 70
0
 10
621661.7893816472
 20
4830118.099472227
 10
621629.1368987692
 20
4830214.765050671
  0
LWPOLYLINE
  5
83
330
17
100
AcDbEntity
  8
ROADS
100
AcDbPolyline
 90
2
 70
0
 10
621952.161703556
 20
4830218.5798661085
 10
621914.553374763
 20
4830120.121045306
  0
LWPOLYLINE
  5
84
330
17
100
AcDbEntity
  8
ROADS
100
AcDbPolyline
 90
2
 70
0
 10
621902.7859564393
 20
4830230.066542735
 10
621884.0636369053
 20
4830179.047032345
  0
LWPOLYLINE
  5
85
330
17
100
AcDbEntity
  8
ROADS
100
AcDbPolyline
 90
2
 70
0
 10
622013.4849863725
 20
4830032.032900909
 10
622034.893864618
 20
4830021.159834168
  0
LWPOLYLINE
  5
86
330
17
100
AcDbEntity
  8
ROADS
100
AcDbPolyline
 90
2
 70
0
 10
622090.3539410557
 20
4830023.041887169
 10
622056.9958978301
 20
4830031.318760014
  0
LWPOLYLINE
  5
87
330
17
100
AcDbEntity
  8
ROADS
100
AcDbPolyline
 90
2
 70
0
 10
622018.4486672152
 20
4830053.194199164
 10
622013.4849863725
 20
4830032.032900909
  0
LWPOLYLINE
  5
88
330
17
100
AcDbEntity
  8
ROADS
100
AcDbPolyline
 90
2
 70
0
 10
622056.9958978301
 20
4830031.318760014
 10
622076.6470506825
 20
4830065.742294795
  0
LWPOLYLINE
  5
89
330
17
100
AcDbEntity
  8
ROADS
100
AcDbPolyline
 90
2
 70
0
 10
622090.3539410557
 20
4830023.041887169
 10
622107.0140262269
 20
4830078.832393072
  0
LWPOLYLINE
  5
8A
330
17
100
AcDbEntity
  8
ROADS
100
AcDbPolyline
 90
3
 70
0
 10
622018.4486672152
 20
4830053.194199164
 10
622057.6436705944
 20
4830074.351453523
 10
622076.6470506825
 20
4830065.742294795
  0
LWPOLYLINE
  5
8B
330
17
100
AcDbEntity
  8
ROADS
100
AcDbPolyline
 90
2
 70
0
 10
622076.6470506825
 20
4830065.742294795
 10
622107.0140262269
 20
4830078.832393072
  0
LWPOLYLINE
  5
8C
330
17
100
AcDbEntity
  8
ROADS
100
AcDbPolyline
 90
3
 70
0
 10
622107.0140262269
 20
4830078.832393072
 10
622154.160971309
 20
4830089.36545645
 10
622161.726053023
 20
4830133.5611590585
  0
LWPOLYLINE
  5
8D
330
17
100
AcDbEntity
  8
ROADS
100
AcDbPolyline
 90
2
 70
0
 10
622161.726053023
 20
4830133.5611590585
 10
621952.161703556
 20
4830218.5798661085
  0
LWPOLYLINE
  5
8E
330
17
100
AcDbEntity
  8
ROADS
100
AcDbPolyline
 90
2
 70
0
 10
622210.9819042546
 20
4830320.990600507
 10
622161.726053023
 20
4830133.5611590585
  0
LWPOLYLINE
  5
8F
330
17
100
AcDbEntity
  8
ROADS
100
AcDbPolyline
 90
2
 70
0
 10
621629.1368987692
 20
4830214.765050671
 10
621623.7723569148
 20
4830231.279897371
  0
LWPOLYLINE
  5
90
330
17
100
AcDbEntity
  8
ROADS
100
AcDbPolyline
 90
2
 70
0
 10
621952.161703556
 20
4830218.5798661085
 10
621902.7859564393
 20
4830230.066542735
  0
LWPOLYLINE
  5
91
330
17
100
AcDbEntity
  8
ROADS
100
AcDbPolyline
 90
3
 70
0
 10
621750.7226447915
 20
4830250.792831883
 10
621702.6140779379
 20
4830207.6309106955
 10
621629.1368987692
 20
4830214.765050671
  0
LWPOLYLINE
  5
92
330
17
100
AcDbEntity
  8
ROADS
100
AcDbPolyline
 90
2
 70
0
 10
621902.7859564393
 20
4830230.066542735
 10
621763.7488402943
 20
4830266.53783491
  0
LWPOLYLINE
  5
93
330
17
100
AcDbEntity
  8
ROADS
100
AcDbPolyline
 90
3
 70
0
 10
621623.7723569148
 20
4830231.279897371
 10
621660.9149114845
 20
4830269.874530076
 10
621681.5241131489
 20
4830249.153850671
  0
LWPOLYLINE
  5
94
330
17
100
AcDbEntity
  8
ROADS
100
AcDbPolyline
 90
2
 70
0
 10
621763.7488402943
 20
4830266.53783491
 10
621750.7226447915
 20
4830250.792831883
  0
LWPOLYLINE
  5
95
330
17
100
AcDbEntity
  8
ROADS
100
AcDbPolyline
 90
2
 70
0
 10
621984.8798369344
 20
4830305.298837299
 10
621952.161703556
 20
4830218.5798661085
  0
LWPOLYLINE
  5
96
330
17
100
AcDbEntity
  8
ROADS
100
AcDbPolyline
 90
2
 70
0
 10
621819.2052325117
 20
4830324.565172921
 10
621763.7488402943
 20
4830266.53783491
  0
LWPOLYLINE
  5
97
330
17
100
AcDbEntity
  8
ROADS
100
AcDbPolyline
 90
2
 70
0
 10
621623.7723569148
 20
4830231.279897371
 10
621570.0776265359
 20
4830421.300561856
  0
LWPOLYLINE
  5
98
330
17
100
AcDbEntity
  8
ROADS
100
AcDbPolyline
 90
2
 70
0
 10
621750.7226447915
 20
4830250.792831883
 10
621570.0776265359
 20
4830421.300561856
  0
LWPOLYLINE
  5
99
330
17
100
AcDbEntity
  8
ROADS
100
AcDbPolyline
 90
2
 70
0
 10
622670.5277154783
 20
4830021.638866807
 10
622656.7437765258
 20
4830004.214064568
  0
LWPOLYLINE
  5
9A
330
17
100
AcDbEntity
  8
ROADS
100
AcDbPolyline
 90
5
 70
0
 10
622851.5882357457
 20
4830460.184518281
 10
622858.8696931427
 20
4830408.360519181
 10
622809.7601664832
 20
4830268.024634618
 10
622708.1446171352
 20
4830175.159708804
 10
622670.5277154783
 20
4830021.638866807
  0
LWPOLYLINE
  5
9B
330
17
100
AcDbEntity
  8
ROADS
100
AcDbPolyline
 90
7
 70
0
 10
622863.8503598141
 20
4830463.0341502465
 10
622868.9886737617
 20
4830399.198851942
 10
622825.8004767514
 20
4830275.081707754
 10
622836.2932514646
 20
4830204.146783714
 10
622756.4342113249
 20
4830195.020893679
 10
622721.670568703
 20
4830170.824809812
 10
622670.5277154783
 20
4830021.638866807
  0
LWPOLYLINE
  5
9C
330
17
100
AcDbEntity
  8
ROADS
100
AcDbPolyline
 90
2
 70
0
 10
622851.5882357457
 20
4830460.184518281
 10
622863.8503598141
 20
4830463.0341502465
  0
LWPOLYLINE
  5
9D
330
17
100
AcDbEntity
  8
ROADS
100
AcDbPolyline
 90
2
 70
0
 10
622840.8518139904
 20
4830491.485607998
 10
622851.5882357457
 20
4830460.184518281
  0
LWPOLYLINE
  5
9E
330
17
100
AcDbEntity
  8
ROADS
100
AcDbPolyline
 90
2
 70
0
 10
622840.8518139904
 20
4830491.485607998
 10
622863.8503598141
 20
4830463.0341502465
  0
LWPOLYLINE
  5
9F
330
17
100
AcDbEntity
  8
ROADS
100
AcDbPolyline
 90
2
 70
0
 10
622739.6104446959
 20
4830592.709753692
 10
622840.8518139904
 20
4830491.485607998
  0
LWPOLYLINE
  5
A0
330
17
100
AcDbEntity
  8
ROADS
100
AcDbPolyline
 90
3
 70
0
 10
622624.2636258237
 20
4830686.7521939045
 10
622701.9359636538
 20
4830670.277461814
 10
622739.6104446959
 20
4830592.709753692
  0
LWPOLYLINE
  5
A1
330
17
100
AcDbEntity
  8
ROADS
100
AcDbPolyline
 90
2
 70
0
 10
622709.2497823525
 20
4830692.284640229
 10
622739.6104446959
 20
4830592.709753692
  0
LWPOLYLINE
  5
A2
330
17
100
AcDbEntity
  8
ROADS
100
AcDbPolyline
 90
2
 70
0
 10
622443.8220721786
 20
4830622.697676375
 10
622546.867660652
 20
4830687.043136627
  0
LWPOLYLINE
  5
A3
330
17
100
AcDbEntity
  8
ROADS
100
AcDbPolyline
 90
2
 70
0
 10
621984.8798369344
 20
4830305.298837299
 10
621902.6048216012
 20
4830384.313347269
  0
LWPOLYLINE
  5
A4
330
17
100
AcDbEntity
  8
ROADS
100
AcDbPolyline
 90
2
 70
0
 10
621889.6367967201
 20
4830394.5790762715
 10
621819.2052325117
 20
4830324.565172921
  0
LWPOLYLINE
  5
A5
330
17
100
AcDbEntity
  8
ROADS
100
AcDbPolyline
 90
2
 70
0
 10
621902.6048216012
 20
4830384.313347269
 10
621889.6367967201
 20
4830394.5790762715
  0
LWPOLYLINE
  5
A6
330
17
100
AcDbEntity
  8
ROADS
100
AcDbPolyline
 90
2
 70
0
 10
621819.2052325117
 20
4830324.565172921
 10
621603.4557841792
 20
4830532.539481312
  0
LWPOLYLINE
  5
A7
330
17
100
AcDbEntity
  8
ROADS
100
AcDbPolyline
 90
2
 70
0
 10
621961.2956686843
 20
4830514.34846993
 10
621902.6048216012
 20
4830384.313347269
  0
LWPOLYLINE
  5
A8
330
17
100
AcDbEntity
  8
ROADS
100
AcDbPolyline
 90
2
 70
0
 10
622053.4881084678
 20
4830480.8452258995
 10
621961.2956686843
 20
4830514.34846993
  0
LWPOLYLINE
  5
A9
330
17
100
AcDbEntity
  8
ROADS
100
AcDbPolyline
 90
2
 70
0
 10
621889.6367967201
 20
4830394.5790762715
 10
621673.8517872114
 20
4830605.181361323
  0
LWPOLYLINE
  5
AA
330
17
100
AcDbEntity
  8
ROADS
100
AcDbPolyline
 90
2
 70
0
 10
621961.2956686843
 20
4830514.34846993
 10
621861.7413766398
 20
4830554.580022273
  0
LWPOLYLINE
  5
AB
330
17
100
AcDbEntity
  8
ROADS
100
AcDbPolyline
 90
2
 70
0
 10
621620.9665708194
 20
4830550.753107394
 10
621603.4557841792
 20
4830532.539481312
  0
LWPOLYLINE
  5
AC
330
17
100
AcDbEntity
  8
ROADS
100
AcDbPolyline
 90
2
 70
0
 10
621673.8517872114
 20
4830605.181361323
 10
621620.9665708194
 20
4830550.753107394
  0
LWPOLYLINE
  5
AD
330
17
100
AcDbEntity
  8
ROADS
100
AcDbPolyline
 90
2
 70
0
 10
621353.9218214377
 20
4829755.7196689
 10
621287.3019826927
 20
4829733.9264698485
  0
LWPOLYLINE
  5
AE
330
17
100
AcDbEntity
  8
ROADS
100
AcDbPolyline
 90
2
 70
0
 10
621322.3040630443
 20
4829854.458971697
 10
621272.6523659158
 20
4829838.106938321
  0
LWPOLYLINE
  5
AF
330
17
100
AcDbEntity
  8
ROADS
100
AcDbPolyline
 90
2
 70
0
 10
621440.8687060277
 20
4829947.784573592
 10
621408.3885402184
 20
4829937.360462679
  0
LWPOLYLINE
  5
B0
330
17
100
AcDbEntity
  8
ROADS
100
AcDbPolyline
 90
2
 70
0
 10
621305.5419610481
 20
4829906.24650613
 10
621274.4255647598
 20
4830002.91624575
  0
LWPOLYLINE
  5
B1
330
17
100
AcDbEntity
  8
ROADS
100
AcDbPolyline
 90
2
 70
0
 10
621577.7461640112
 20
4829990.341728162
 10
621440.8687060277
 20
4829947.784573592
  0
LWPOLYLINE
  5
B2
330
17
100
AcDbEntity
  8
ROADS
100
AcDbPolyline
 90
2
 70
0
 10
621274.4255647598
 20
4830002.91624575
 10
621273.1823891395
 20
4830002.508025753
  0
LWPOLYLINE
  5
B3
330
17
100
AcDbEntity
  8
ROADS
100
AcDbPolyline
 90
2
 70
0
 10
621440.8687060277
 20
4829947.784573592
 10
621366.0696144935
 20
4830178.863800772
  0
LWPOLYLINE
  5
B4
330
17
100
AcDbEntity
  8
ROADS
100
AcDbPolyline
 90
2
 70
0
 10
621274.4255647598
 20
4830002.91624575
 10
621273.4267701223
 20
4830006.0704367
  0
LWPOLYLINE
  5
B5
330
17
100
AcDbEntity
  8
ROADS
100
AcDbPolyline
 90
2
 70
0
 10
621577.7461640112
 20
4829990.341728162
 10
621501.328551054
 20
4830222.549856947
  0
LWPOLYLINE
  5
B6
330
17
100
AcDbEntity
  8
ROADS
100
AcDbPolyline
 90
2
 70
0
 10
621366.0696144935
 20
4830178.863800772
 10
621297.5899132002
 20
4830156.876182078
  0
LWPOLYLINE
  5
B7
330
17
100
AcDbEntity
  8
ROADS
100
AcDbPolyline
 90
2
 70
0
 10
621501.328551054
 20
4830222.549856947
 10
621366.0696144935
 20
4830178.863800772
  0
LWPOLYLINE
  5
B8
330
17
100
AcDbEntity
  8
ROADS
100
AcDbPolyline
 90
2
 70
0
 10
621629.1368987692
 20
4830214.765050671
 10
621501.328551054
 20
4830222.549856947
  0
LWPOLYLINE
  5
B9
330
17
100
AcDbEntity
  8
ROADS
100
AcDbPolyline
 90
3
 70
0
 10
621413.5648462229
 20
4830338.301761776
 10
621335.2466484613
 20
4830266.370929363
 10
621328.1849739281
 20
4830263.4451347785
  0
LWPOLYLINE
  5
BA
330
17
100
AcDbEntity
  8
ROADS
100
AcDbPolyline
 90
2
 70
0
 10
621501.328551054
 20
4830222.549856947
 10
621448.0726405939
 20
4830371.504550998
  0
LWPOLYLINE
  5
BB
330
17
100
AcDbEntity
  8
ROADS
100
AcDbPolyline
 90
2
 70
0
 10
621448.0726405939
 20
4830371.504550998
 10
621413.5648462229
 20
4830338.301761776
  0
LWPOLYLINE
  5
BC
330
17
100
AcDbEntity
  8
ROADS
100
AcDbPolyline
 90
2
 70
0
 10
621533.3936810766
 20
4830460.014668339
 10
621448.0726405939
 20
4830371.504550998
  0
LWPOLYLINE
  5
BD
330
17
100
AcDbEntity
  8
ROADS
100
AcDbPolyline
 90
2
 70
0
 10
621570.0776265359
 20
4830421.300561856
 10
621533.3936810766
 20
4830460.014668339
  0
LWPOLYLINE
  5
BE
330
17
100
AcDbEntity
  8
ROADS
100
AcDbPolyline
 90
2
 70
0
 10
621413.5648462229
 20
4830338.301761776
 10
621369.3001302675
 20
4830390.4254548475
  0
LWPOLYLINE
  5
BF
330
17
100
AcDbEntity
  8
ROADS
100
AcDbPolyline
 90
2
 70
0
 10
621387.4773441446
 20
4830446.564082097
 10
621547.2086002217
 20
4830618.771327881
  0
LWPOLYLINE
  5
C0
330
17
100
AcDbEntity
  8
ROADS
100
AcDbPolyline
 90
2
 70
0
 10
621603.4557841792
 20
4830532.539481312
 10
621533.3936810766
 20
4830460.014668339
  0
LWPOLYLINE
  5
C1
330
17
100
AcDbEntity
  8
ROADS
100
AcDbPolyline
 90
2
 70
0
 10
621365.7951364852
 20
4830569.522141869
 10
621316.6542510864
 20
4830553.936916196
  0
LWPOLYLINE
  5
C2
330
17
100
AcDbEntity
  8
ROADS
100
AcDbPolyline
 90
2
 70
0
 10
621547.2086002217
 20
4830618.771327881
 10
621561.4275704919
 20
4830632.592795782
  0
LWPOLYLINE
  5
C3
330
17
100
AcDbEntity
  8
ROADS
100
AcDbPolyline
 90
2
 70
0
 10
621365.7951364852
 20
4830569.522141869
 10
621308.6269743815
 20
4830740.285014474
  0
LWPOLYLINE
  5
C4
330
17
100
AcDbEntity
  8
ROADS
100
AcDbPolyline
 90
3
 70
0
 10
621365.7951364852
 20
4830569.522141869
 10
621489.7947207133
 20
4830618.899224718
 10
621447.265683666
 20
4830785.149396497
  0
LWPOLYLINE
  5
C5
330
17
100
AcDbEntity
  8
ROADS
100
AcDbPolyline
 90
2
 70
0
 10
621308.6269743815
 20
4830740.285014474
 10
621205.6472441239
 20
4830707.486006168
  0
LWPOLYLINE
  5
C6
330
17
100
AcDbEntity
  8
ROADS
100
AcDbPolyline
 90
2
 70
0
 10
621447.265683666
 20
4830785.149396497
 10
621308.6269743815
 20
4830740.285014474
  0
LWPOLYLINE
  5
C7
330
17
100
AcDbEntity
  8
ROADS
100
AcDbPolyline
 90
2
 70
0
 10
621308.6269743815
 20
4830740.285014474
 10
621277.9782975748
 20
4830832.529436157
  0
LWPOLYLINE
  5
C8
330
17
100
AcDbEntity
  8
ROADS
100
AcDbPolyline
 90
2
 70
0
 10
621501.0412295777
 20
4830803.907648885
 10
621447.265683666
 20
4830785.149396497
  0
LWPOLYLINE
  5
C9
330
17
100
AcDbEntity
  8
ROADS
100
AcDbPolyline
 90
2
 70
0
 10
621501.0412295777
 20
4830803.907648885
 10
621471.4703434965
 20
4830895.721568855
  0
LWPOLYLINE
  5
CA
330
17
100
AcDbEntity
  8
ROADS
100
AcDbPolyline
 90
2
 70
0
 10
621277.9782975748
 20
4830832.529436157
 10
621160.5865089749
 20
4830793.528667024
  0
LWPOLYLINE
  5
CB
330
17
100
AcDbEntity
  8
ROADS
100
AcDbPolyline
 90
2
 70
0
 10
622053.4881084678
 20
4830480.8452258995
 10
621984.8798369344
 20
4830305.298837299
  0
LWPOLYLINE
  5
CC
330
17
100
AcDbEntity
  8
ROADS
100
AcDbPolyline
 90
3
 70
0
 10
622210.9819042546
 20
4830320.990600507
 10
622258.8057026303
 20
4830483.8890793305
 10
622333.0800127483
 20
4830568.877726513
  0
LWPOLYLINE
  5
CD
330
17
100
AcDbEntity
  8
ROADS
100
AcDbPolyline
 90
5
 70
0
 10
622333.0800127483
 20
4830568.877726513
 10
622296.3246998034
 20
4830564.868606762
 10
622234.2271290863
 20
4830485.5731883515
 10
622204.1001803452
 20
4830374.049779167
 10
622210.9819042546
 20
4830320.990600507
  0
LWPOLYLINE
  5
CE
330
17
100
AcDbEntity
  8
ROADS
100
AcDbPolyline
 90
2
 70
0
 10
622087.6727895373
 20
4830571.907942628
 10
622053.4881084678
 20
4830480.8452258995
  0
LWPOLYLINE
  5
CF
330
17
100
AcDbEntity
  8
ROADS
100
AcDbPolyline
 90
3
 70
0
 10
622443.8220721786
 20
4830622.697676375
 10
622390.6132973923
 20
4830612.470045046
 10
622333.0800127483
 20
4830568.877726513
  0
LWPOLYLINE
  5
D0
330
17
100
AcDbEntity
  8
ROADS
100
AcDbPolyline
 90
2
 70
0
 10
622087.6727895373
 20
4830571.907942628
 10
621928.0979070051
 20
4830632.11221873
  0
LWPOLYLINE
  5
D1
330
17
100
AcDbEntity
  8
ROADS
100
AcDbPolyline
 90
2
 70
0
 10
622366.4335984541
 20
4830651.972138475
 10
622333.0800127483
 20
4830568.877726513
  0
LWPOLYLINE
  5
D2
330
17
100
AcDbEntity
  8
ROADS
100
AcDbPolyline
 90
2
 70
0
 10
622120.5830718247
 20
4830662.268625059
 10
622087.6727895373
 20
4830571.907942628
  0
LWPOLYLINE
  5
D3
330
17
100
AcDbEntity
  8
ROADS
100
AcDbPolyline
 90
2
 70
0
 10
622366.4335984541
 20
4830651.972138475
 10
622443.8220721786
 20
4830622.697676375
  0
LWPOLYLINE
  5
D4
330
17
100
AcDbEntity
  8
ROADS
100
AcDbPolyline
 90
2
 70
0
 10
622120.5830718247
 20
4830662.268625059
 10
621993.7430328485
 20
4830708.474541123
  0
LWPOLYLINE
  5
D5
330
17
100
AcDbEntity
  8
ROADS
100
AcDbPolyline
 90
2
 70
0
 10
621620.9665708194
 20
4830550.753107394
 10
621547.2086002217
 20
4830618.771327881
  0
LWPOLYLINE
  5
D6
330
17
100
AcDbEntity
  8
ROADS
100
AcDbPolyline
 90
2
 70
0
 10
621861.7413766398
 20
4830554.580022273
 10
621787.8106859963
 20
4830623.243701085
  0
LWPOLYLINE
  5
D7
330
17
100
AcDbEntity
  8
ROADS
100
AcDbPolyline
 90
2
 70
0
 10
621928.0979070051
 20
4830632.11221873
 10
621861.7413766398
 20
4830554.580022273
  0
LWPOLYLINE
  5
D8
330
17
100
AcDbEntity
  8
ROADS
100
AcDbPolyline
 90
2
 70
0
 10
621736.0382608266
 20
4830669.3065890735
 10
621673.8517872114
 20
4830605.181361323
  0
LWPOLYLINE
  5
D9
330
17
100
AcDbEntity
  8
ROADS
100
AcDbPolyline
 90
2
 70
0
 10
621787.8106859963
 20
4830623.243701085
 10
621736.0382608266
 20
4830669.3065890735
  0
LWPOLYLINE
  5
DA
330
17
100
AcDbEntity
  8
ROADS
100
AcDbPolyline
 90
2
 70
0
 10
621959.8149092557
 20
4830669.006846233
 10
621928.0979070051
 20
4830632.11221873
  0
LWPOLYLINE
  5
DB
330
17
100
AcDbEntity
  8
ROADS
100
AcDbPolyline
 90
2
 70
0
 10
621959.8149092557
 20
4830669.006846233
 10
621964.1940968232
 20
4830646.088895221
  0
LWPOLYLINE
  5
DC
330
17
100
AcDbEntity
  8
ROADS
100
AcDbPolyline
 90
2
 70
0
 10
621993.7430328485
 20
4830708.474541123
 10
621959.8149092557
 20
4830669.006846233
  0
LWPOLYLINE
  5
DD
330
17
100
AcDbEntity
  8
ROADS
100
AcDbPolyline
 90
3
 70
0
 10
621724.1943279216
 20
4830781.595736056
 10
621828.8253592016
 20
4830682.987307815
 10
621787.8106859963
 20
4830623.243701085
  0
LWPOLYLINE
  5
DE
330
17
100
AcDbEntity
  8
ROADS
100
AcDbPolyline
 90
3
 70
0
 10
621736.0382608266
 20
4830669.3065890735
 10
621677.9506864744
 20
4830729.257014037
 10
621724.1943279216
 20
4830781.595736056
  0
LWPOLYLINE
  5
DF
330
17
100
AcDbEntity
  8
ROADS
100
AcDbPolyline
 90
2
 70
0
 10
622797.8345388225
 20
4830702.666329226
 10
622807.0106524951
 20
4830666.09230863
  0
LWPOLYLINE
  5
E0
330
17
100
AcDbEntity
  8
ROADS
100
AcDbPolyline
 90
3
 70
0
 10
622624.2636258237
 20
4830686.7521939045
 10
622612.1004292388
 20
4830671.783760824
 10
622564.9443879509
 20
4830698.067200163
  0
LWPOLYLINE
  5
E1
330
17
100
AcDbEntity
  8
ROADS
100
AcDbPolyline
 90
2
 70
0
 10
622797.8345388225
 20
4830702.666329226
 10
622863.1565347108
 20
4830668.021610809
  0
LWPOLYLINE
  5
E2
330
17
100
AcDbEntity
  8
ROADS
100
AcDbPolyline
 90
2
 70
0
 10
622769.4252382175
 20
4830703.769199529
 10
622758.0058231845
 20
4830667.169147102
  0
LWPOLYLINE
  5
E3
330
17
100
AcDbEntity
  8
ROADS
100
AcDbPolyline
 90
2
 70
0
 10
622564.9443879509
 20
4830698.067200163
 10
622546.867660652
 20
4830687.043136627
  0
LWPOLYLINE
  5
E4
330
17
100
AcDbEntity
  8
ROADS
100
AcDbPolyline
 90
2
 70
0
 10
622709.2497823525
 20
4830692.284640229
 10
622769.4252382175
 20
4830703.769199529
  0
LWPOLYLINE
  5
E5
330
17
100
AcDbEntity
  8
ROADS
100
AcDbPolyline
 90
2
 70
0
 10
622635.8351558901
 20
4830710.613367837
 10
622624.2636258237
 20
4830686.7521939045
  0
LWPOLYLINE
  5
E6
330
17
100
AcDbEntity
  8
ROADS
100
AcDbPolyline
 90
2
 70
0
 10
622635.8351558901
 20
4830710.613367837
 10
622709.2497823525
 20
4830692.284640229
  0
LWPOLYLINE
  5
E7
330
17
100
AcDbEntity
  8
ROADS
100
AcDbPolyline
 90
2
 70
0
 10
622546.867660652
 20
4830687.043136627
 10
622554.0773673885
 20
4830716.584785094
  0
LWPOLYLINE
  5
E8
330
17
100
AcDbEntity
  8
ROADS
100
AcDbPolyline
 90
2
 70
0
 10
622769.4252382175
 20
4830703.769199529
 10
622797.8345388225
 20
4830702.666329226
  0
LWPOLYLINE
  5
E9
330
17
100
AcDbEntity
  8
ROADS
100
AcDbPolyline
 90
4
 70
0
 10
622863.8503598141
 20
4830463.0341502465
 10
622940.4383467087
 20
4830487.268760837
 10
623010.974129016
 20
4830561.157501665
 10
623041.1434639725
 20
4830545.166676814
  0
LWPOLYLINE
  5
EA
330
17
100
AcDbEntity
  8
ROADS
100
AcDbPolyline
 90
2
 70
0
 10
622982.8883290823
 20
4830829.838370345
 10
623068.3969486938
 20
4830675.531403597
  0
LWPOLYLINE
  5
EB
330
17
100
AcDbEntity
  8
ROADS
100
AcDbPolyline
 90
2
 70
0
 10
623033.0551627241
 20
4830892.759698389
 10
622982.8883290823
 20
4830829.838370345
  0
LWPOLYLINE
  5
EC
330
17
100
AcDbEntity
  8
ROADS
100
AcDbPolyline
 90
5
 70
0
 10
622982.8883290823
 20
4830829.838370345
 10
622951.3198226693
 20
4830838.582536612
 10
622901.6673527607
 20
4830944.261764801
 10
622917.9603308016
 20
4830972.926494065
 10
622978.8522827426
 20
4830986.8781747855
  0
LWPOLYLINE
  5
ED
330
17
100
AcDbEntity
  8
ROADS
100
AcDbPolyline
 90
2
 70
0
 10
623033.0551627241
 20
4830892.759698389
 10
623010.0691787205
 20
4830963.22093602
  0
LWPOLYLINE
  5
EE
330
17
100
AcDbEntity
  8
ROADS
100
AcDbPolyline
 90
3
 70
0
 10
623114.5342618076
 20
4830988.57831955
 10
623081.1144489996
 20
4830932.510828135
 10
623033.0551627241
 20
4830892.759698389
  0
LWPOLYLINE
  5
EF
330
17
100
AcDbEntity
  8
ROADS
100
AcDbPolyline
 90
2
 70
0
 10
623010.0691787205
 20
4830963.22093602
 10
622978.8522827426
 20
4830986.8781747855
  0
LWPOLYLINE
  5
F0
330
17
100
AcDbEntity
  8
ROADS
100
AcDbPolyline
 90
2
 70
0
 10
623010.0691787205
 20
4830963.22093602
 10
623031.9678113629
 20
4830988.266761886
  0
LWPOLYLINE
  5
F1
330
17
100
AcDbEntity
  8
ROADS
100
AcDbPolyline
 90
2
 70
0
 10
623113.2261966061
 20
4831002.251366738
 10
623031.9678113629
 20
4830988.266761886
  0
LWPOLYLINE
  5
F2
330
17
100
AcDbEntity
  8
ROADS
100
AcDbPolyline
 90
2
 70
0
 10
623113.2261966061
 20
4831002.251366738
 10
623114.5342618076
 20
4830988.57831955
  0
LWPOLYLINE
  5
F3
330
17
100
AcDbEntity
  8
ROADS
100
AcDbPolyline
 90
2
 70
0
 10
622366.4335984541
 20
4830651.972138475
 10
622163.4985291886
 20
4830738.140383736
  0
LWPOLYLINE
  5
F4
330
17
100
AcDbEntity
  8
ROADS
100
AcDbPolyline
 90
2
 70
0
 10
622163.4985291886
 20
4830738.140383736
 10
622120.5830718247
 20
4830662.268625059
  0
LWPOLYLINE
  5
F5
330
17
100
AcDbEntity
  8
ROADS
100
AcDbPolyline
 90
2
 70
0
 10
622045.937937332
 20
4830770.421258152
 10
621993.7430328485
 20
4830708.474541123
  0
LWPOLYLINE
  5
F6
330
17
100
AcDbEntity
  8
ROADS
100
AcDbPolyline
 90
2
 70
0
 10
622193.0133477931
 20
4830763.082707354
 10
622163.4985291886
 20
4830738.140383736
  0
LWPOLYLINE
  5
F7
330
17
100
AcDbEntity
  8
ROADS
100
AcDbPolyline
 90
2
 70
0
 10
622257.9100124385
 20
4830790.727306888
 10
622193.0133477931
 20
4830763.082707354
  0
LWPOLYLINE
  5
F8
330
17
100
AcDbEntity
  8
ROADS
100
AcDbPolyline
 90
2
 70
0
 10
622193.0133477931
 20
4830763.082707354
 10
622135.8135147633
 20
4830796.361993016
  0
LWPOLYLINE
  5
F9
330
17
100
AcDbEntity
  8
ROADS
100
AcDbPolyline
 90
2
 70
0
 10
622257.9100124385
 20
4830790.727306888
 10
622248.2023203956
 20
4830828.217704659
  0
LWPOLYLINE
  5
FA
330
17
100
AcDbEntity
  8
ROADS
100
AcDbPolyline
 90
2
 70
0
 10
622135.8135147633
 20
4830796.361993016
 10
622074.7778234946
 20
4830833.997177196
  0
LWPOLYLINE
  5
FB
330
17
100
AcDbEntity
  8
ROADS
100
AcDbPolyline
 90
2
 70
0
 10
622375.7652730611
 20
4830842.890735969
 10
622257.9100124385
 20
4830790.727306888
  0
LWPOLYLINE
  5
FC
330
17
100
AcDbEntity
  8
ROADS
100
AcDbPolyline
 90
2
 70
0
 10
622135.8135147633
 20
4830796.361993016
 10
622179.5884227939
 20
4830845.195034731
  0
LWPOLYLINE
  5
FD
330
17
100
AcDbEntity
  8
ROADS
100
AcDbPolyline
 90
2
 70
0
 10
622564.9443879509
 20
4830698.067200163
 10
622554.0773673885
 20
4830716.584785094
  0
LWPOLYLINE
  5
FE
330
17
100
AcDbEntity
  8
ROADS
100
AcDbPolyline
 90
2
 70
0
 10
622635.8351558901
 20
4830710.613367837
 10
622605.8346114536
 20
4830743.114666109
  0
LWPOLYLINE
  5
FF
330
17
100
AcDbEntity
  8
ROADS
100
AcDbPolyline
 90
2
 70
0
 10
622605.8346114536
 20
4830743.114666109
 10
622618.9950985168
 20
4830737.531462878
  0
LWPOLYLINE
  5
100
330
17
100
AcDbEntity
  8
ROADS
100
AcDbPolyline
 90
3
 70
0
 10
622526.2201950011
 20
4830799.364527355
 10
622575.3396147436
 20
4830707.991453991
 10
622624.2636258237
 20
4830686.7521939045
  0
LWPOLYLINE
  5
101
330
17
100
AcDbEntity
  8
ROADS
100
AcDbPolyline
 90
2
 70
0
 10
622605.8346114536
 20
4830743.114666109
 10
622596.6684183407
 20
4830756.387057562
  0
LWPOLYLINE
  5
102
330
17
100
AcDbEntity
  8
ROADS
100
AcDbPolyline
 90
2
 70
0
 10
622554.0773673885
 20
4830716.584785094
 10
622521.3337707528
 20
4830783.127482703
  0
LWPOLYLINE
  5
103
330
17
100
AcDbEntity
  8
ROADS
100
AcDbPolyline
 90
2
 70
0
 10
622521.3337707528
 20
4830783.127482703
 10
622526.2201950011
 20
4830799.364527355
  0
LWPOLYLINE
  5
104
330
17
100
AcDbEntity
  8
ROADS
100
AcDbPolyline
 90
2
 70
0
 10
622521.3337707528
 20
4830783.127482703
 10
622428.0897130866
 20
4830880.646735352
  0
LWPOLYLINE
  5
105
330
17
100
AcDbEntity
  8
ROADS
100
AcDbPolyline
 90
2
 70
0
 10
622428.0897130866
 20
4830880.646735352
 10
622526.2201950011
 20
4830799.364527355
  0
LWPOLYLINE
  5
106
330
17
100
AcDbEntity
  8
ROADS
100
AcDbPolyline
 90
3
 70
0
 10
622605.6858507625
 20
4830896.331666226
 10
622541.4231203052
 20
4830838.021004276
 10
622526.2201950011
 20
4830799.364527355
  0
LWPOLYLINE
  5
107
330
17
100
AcDbEntity
  8
ROADS
100
AcDbPolyline
 90
2
 70
0
 10
622248.2023203956
 20
4830828.217704659
 10
622223.2984249338
 20
4830816.07926401
  0
LWPOLYLINE
  5
108
330
17
100
AcDbEntity
  8
ROADS
100
AcDbPolyline
 90
2
 70
0
 10
622248.2023203956
 20
4830828.217704659
 10
622278.2346477469
 20
4830838.9617233025
  0
LWPOLYLINE
  5
109
330
17
100
AcDbEntity
  8
ROADS
100
AcDbPolyline
 90
2
 70
0
 10
622194.4902413955
 20
4830879.34382401
 10
622248.2023203956
 20
4830828.217704659
  0
LWPOLYLINE
  5
10A
330
17
100
AcDbEntity
  8
ROADS
100
AcDbPolyline
 90
2
 70
0
 10
622074.7778234946
 20
4830833.997177196
 10
622128.7787538433
 20
4830892.431390253
  0
LWPOLYLINE
  5
10B
330
17
100
AcDbEntity
  8
ROADS
100
AcDbPolyline
 90
2
 70
0
 10
622416.735822982
 20
4830889.634059763
 10
622375.7652730611
 20
4830842.890735969
  0
LWPOLYLINE
  5
10C
330
17
100
AcDbEntity
  8
ROADS
100
AcDbPolyline
 90
2
 70
0
 10
622074.7778234946
 20
4830833.997177196
 10
622005.4968862298
 20
4830899.74670093
  0
LWPOLYLINE
  5
10D
330
17
100
AcDbEntity
  8
ROADS
100
AcDbPolyline
 90
2
 70
0
 10
622416.735822982
 20
4830889.634059763
 10
622428.0897130866
 20
4830880.646735352
  0
LWPOLYLINE
  5
10E
330
17
100
AcDbEntity
  8
ROADS
100
AcDbPolyline
 90
2
 70
0
 10
622375.7652730611
 20
4830842.890735969
 10
622270.9329842202
 20
4830937.072435116
  0
LWPOLYLINE
  5
10F
330
17
100
AcDbEntity
  8
ROADS
100
AcDbPolyline
 90
2
 70
0
 10
622194.4902413955
 20
4830879.34382401
 10
622146.5953026182
 20
4830903.573757147
  0
LWPOLYLINE
  5
110
330
17
100
AcDbEntity
  8
ROADS
100
AcDbPolyline
 90
2
 70
0
 10
622221.2078328877
 20
4830908.442826628
 10
622194.4902413955
 20
4830879.34382401
  0
LWPOLYLINE
  5
111
330
17
100
AcDbEntity
  8
ROADS
100
AcDbPolyline
 90
2
 70
0
 10
622228.978368054
 20
4830920.279752811
 10
622221.2078328877
 20
4830908.442826628
  0
LWPOLYLINE
  5
112
330
17
100
AcDbEntity
  8
ROADS
100
AcDbPolyline
 90
2
 70
0
 10
622221.2078328877
 20
4830908.442826628
 10
622140.3732380837
 20
4830930.132596454
  0
LWPOLYLINE
  5
113
330
17
100
AcDbEntity
  8
ROADS
100
AcDbPolyline
 90
2
 70
0
 10
622228.978368054
 20
4830920.279752811
 10
622248.8724997911
 20
4830920.7946563475
  0
LWPOLYLINE
  5
114
330
17
100
AcDbEntity
  8
ROADS
100
AcDbPolyline
 90
2
 70
0
 10
622248.8724997911
 20
4830920.7946563475
 10
622257.1035487762
 20
4830938.942699197
  0
LWPOLYLINE
  5
115
330
17
100
AcDbEntity
  8
ROADS
100
AcDbPolyline
 90
2
 70
0
 10
622233.5005818856
 20
4830941.813454577
 10
622228.978368054
 20
4830920.279752811
  0
LWPOLYLINE
  5
116
330
17
100
AcDbEntity
  8
ROADS
100
AcDbPolyline
 90
2
 70
0
 10
622233.5005818856
 20
4830941.813454577
 10
622248.8724997911
 20
4830920.7946563475
  0
LWPOLYLINE
  5
117
330
17
100
AcDbEntity
  8
ROADS
100
AcDbPolyline
 90
2
 70
0
 10
622270.9329842202
 20
4830937.072435116
 10
622257.1035487762
 20
4830938.942699197
  0
LWPOLYLINE
  5
118
330
17
100
AcDbEntity
  8
ROADS
100
AcDbPolyline
 90
2
 70
0
 10
622257.1035487762
 20
4830938.942699197
 10
622233.5005818856
 20
4830941.813454577
  0
LWPOLYLINE
  5
119
330
17
100
AcDbEntity
  8
ROADS
100
AcDbPolyline
 90
3
 70
0
 10
622019.4377854133
 20
4831009.338606455
 10
622061.0414596666
 20
4830958.424809687
 10
622005.4968862298
 20
4830899.74670093
  0
LWPOLYLINE
  5
11A
330
17
100
AcDbEntity
  8
ROADS
100
AcDbPolyline
 90
2
 70
0
 10
622233.5005818856
 20
4830941.813454577
 10
622135.4925815237
 20
4830969.570267175
  0
LWPOLYLINE
  5
11B
330
17
100
AcDbEntity
  8
ROADS
100
AcDbPolyline
 90
2
 70
0
 10
622605.6858507625
 20
4830896.331666226
 10
622614.8964296746
 20
4830875.399045373
  0
LWPOLYLINE
  5
11C
330
17
100
AcDbEntity
  8
ROADS
100
AcDbPolyline
 90
2
 70
0
 10
622607.2076170731
 20
4830909.468286807
 10
622605.6858507625
 20
4830896.331666226
  0
LWPOLYLINE
  5
11D
330
17
100
AcDbEntity
  8
ROADS
100
AcDbPolyline
 90
2
 70
0
 10
622607.2076170731
 20
4830909.468286807
 10
622611.3888675909
 20
4830941.074336898
  0
LWPOLYLINE
  5
11E
330
17
100
AcDbEntity
  8
ROADS
100
AcDbPolyline
 90
2
 70
0
 10
622460.176567588
 20
4830968.424542663
 10
622416.735822982
 20
4830889.634059763
  0
LWPOLYLINE
  5
11F
330
17
100
AcDbEntity
  8
ROADS
100
AcDbPolyline
 90
2
 70
0
 10
622632.8208129194
 20
4831033.413437409
 10
622611.3888675909
 20
4830941.074336898
  0
LWPOLYLINE
  5
120
330
17
100
AcDbEntity
  8
ROADS
100
AcDbPolyline
 90
2
 70
0
 10
622491.5471134726
 20
4831034.738403812
 10
622460.176567588
 20
4830968.424542663
  0
LWPOLYLINE
  5
121
330
17
100
AcDbEntity
  8
ROADS
100
AcDbPolyline
 90
2
 70
0
 10
622726.4236563722
 20
4831017.203579804
 10
622715.1716084164
 20
4831057.558263724
  0
LWPOLYLINE
  5
122
330
17
100
AcDbEntity
  8
ROADS
100
AcDbPolyline
 90
2
 70
0
 10
622632.8208129194
 20
4831033.413437409
 10
622651.6836649971
 20
4831053.8981793225
  0
LWPOLYLINE
  5
123
330
17
100
AcDbEntity
  8
ROADS
100
AcDbPolyline
 90
2
 70
0
 10
622617.1307262491
 20
4831055.242046163
 10
622632.8208129194
 20
4831033.413437409
  0
LWPOLYLINE
  5
124
330
17
100
AcDbEntity
  8
ROADS
100
AcDbPolyline
 90
6
 70
0
 10
622976.795505828
 20
4831090.099089213
 10
622904.97336184
 20
4831114.932832363
 10
622826.6085922803
 20
4831019.939538888
 10
622745.2738608588
 20
4830988.097696593
 10
622692.1428101533
 20
4831000.41349092
 10
622667.4315624951
 20
4831053.447642853
  0
LWPOLYLINE
  5
125
330
17
100
AcDbEntity
  8
ROADS
100
AcDbPolyline
 90
2
 70
0
 10
622651.6836649971
 20
4831053.8981793225
 10
622667.4315624951
 20
4831053.447642853
  0
LWPOLYLINE
  5
126
330
17
100
AcDbEntity
  8
ROADS
100
AcDbPolyline
 90
2
 70
0
 10
622617.1307262491
 20
4831055.242046163
 10
622651.6836649971
 20
4831053.8981793225
  0
LWPOLYLINE
  5
127
330
17
100
AcDbEntity
  8
ROADS
100
AcDbPolyline
 90
2
 70
0
 10
622667.4315624951
 20
4831053.447642853
 10
622715.1716084164
 20
4831057.558263724
  0
LWPOLYLINE
  5
128
330
17
100
AcDbEntity
  8
ROADS
100
AcDbPolyline
 90
4
 70
0
 10
622906.5716685227
 20
4831123.168108767
 10
622811.5309572448
 20
4831014.619904919
 10
622760.573215367
 20
4830995.315425671
 10
622726.4236563722
 20
4831017.203579804
  0
LWPOLYLINE
  5
129
330
17
100
AcDbEntity
  8
ROADS
100
AcDbPolyline
 90
2
 70
0
 10
622667.4315624951
 20
4831053.447642853
 10
622666.5922634746
 20
4831070.871320615
  0
LWPOLYLINE
  5
12A
330
17
100
AcDbEntity
  8
ROADS
100
AcDbPolyline
 90
2
 70
0
 10
622525.93579367
 20
4831098.782692063
 10
622491.5471134726
 20
4831034.738403812
  0
LWPOLYLINE
  5
12B
330
17
100
AcDbEntity
  8
ROADS
100
AcDbPolyline
 90
3
 70
0
 10
622525.93579367
 20
4831098.782692063
 10
622555.0383929473
 20
4831063.509745437
 10
622617.1307262491
 20
4831055.242046163
  0
LWPOLYLINE
  5
12C
330
17
100
AcDbEntity
  8
ROADS
100
AcDbPolyline
 90
2
 70
0
 10
622536.6904585933
 20
4831118.812933815
 10
622666.5922634746
 20
4831070.871320615
  0
LWPOLYLINE
  5
12D
330
17
100
AcDbEntity
  8
ROADS
100
AcDbPolyline
 90
2
 70
0
 10
622726.4236563722
 20
4831017.203579804
 10
622888.4117784107
 20
4831190.728848277
  0
LWPOLYLINE
  5
12E
330
17
100
AcDbEntity
  8
ROADS
100
AcDbPolyline
 90
2
 70
0
 10
622536.6904585933
 20
4831118.812933815
 10
622525.93579367
 20
4831098.782692063
  0
LWPOLYLINE
  5
12F
330
17
100
AcDbEntity
  8
ROADS
100
AcDbPolyline
 90
4
 70
0
 10
621724.1943279216
 20
4830781.595736056
 10
621750.0679264796
 20
4830814.565620446
 10
621818.2384423979
 20
4830841.22529019
 10
621844.4666422252
 20
4830797.10506864
  0
LWPOLYLINE
  5
130
330
17
100
AcDbEntity
  8
ROADS
100
AcDbPolyline
 90
3
 70
0
 10
622005.4968862298
 20
4830899.74670093
 10
621938.0558640327
 20
4830829.936197544
 10
621887.832487429
 20
4830868.911732915
  0
LWPOLYLINE
  5
131
330
17
100
AcDbEntity
  8
ROADS
100
AcDbPolyline
 90
3
 70
0
 10
621501.0412295777
 20
4830803.907648885
 10
621697.3353526897
 20
4830868.27247581
 10
621679.0846232655
 20
4830963.038073631
  0
LWPOLYLINE
  5
132
330
17
100
AcDbEntity
  8
ROADS
100
AcDbPolyline
 90
2
 70
0
 10
622019.4377854133
 20
4831009.338606455
 10
621887.832487429
 20
4830868.911732915
  0
LWPOLYLINE
  5
133
330
17
100
AcDbEntity
  8
ROADS
100
AcDbPolyline
 90
4
 70
0
 10
621887.832487429
 20
4830868.911732915
 10
621843.1219534299
 20
4830914.276135893
 10
621965.4667214676
 20
4831047.344378389
 10
622019.4377854133
 20
4831009.338606455
  0
LWPOLYLINE
  5
134
330
17
100
AcDbEntity
  8
ROADS
100
AcDbPolyline
 90
2
 70
0
 10
621679.0846232655
 20
4830963.038073631
 10
621715.5445560606
 20
4830978.854430419
  0
LWPOLYLINE
  5
135
330
17
100
AcDbEntity
  8
ROADS
100
AcDbPolyline
 90
2
 70
0
 10
621744.4231551685
 20
4830967.047579806
 10
621747.037273973
 20
4830989.3008146025
  0
LWPOLYLINE
  5
136
330
17
100
AcDbEntity
  8
ROADS
100
AcDbPolyline
 90
2
 70
0
 10
621715.5445560606
 20
4830978.854430419
 10
621733.8627886255
 20
4830991.840935211
  0
LWPOLYLINE
  5
137
330
17
100
AcDbEntity
  8
ROADS
100
AcDbPolyline
 90
2
 70
0
 10
621733.8627886255
 20
4830991.840935211
 10
621747.037273973
 20
4830989.3008146025
  0
LWPOLYLINE
  5
138
330
17
100
AcDbEntity
  8
ROADS
100
AcDbPolyline
 90
3
 70
0
 10
621715.5445560606
 20
4830978.854430419
 10
621724.6688621669
 20
4831003.881394914
 10
621737.6950850745
 20
4831001.853619786
  0
LWPOLYLINE
  5
139
330
17
100
AcDbEntity
  8
ROADS
100
AcDbPolyline
 90
2
 70
0
 10
621471.4703434965
 20
4830895.721568855
 10
621277.9782975748
 20
4830832.529436157
  0
LWPOLYLINE
  5
13A
330
17
100
AcDbEntity
  8
ROADS
100
AcDbPolyline
 90
2
 70
0
 10
621277.9782975748
 20
4830832.529436157
 10
621248.6676005009
 20
4830924.001977618
  0
LWPOLYLINE
  5
13B
330
17
100
AcDbEntity
  8
ROADS
100
AcDbPolyline
 90
2
 70
0
 10
621679.0846232655
 20
4830963.038073631
 10
621471.4703434965
 20
4830895.721568855
  0
LWPOLYLINE
  5
13C
330
17
100
AcDbEntity
  8
ROADS
100
AcDbPolyline
 90
2
 70
0
 10
621471.4703434965
 20
4830895.721568855
 10
621441.3312306518
 20
4830987.988228293
  0
LWPOLYLINE
  5
13D
330
17
100
AcDbEntity
  8
ROADS
100
AcDbPolyline
 90
2
 70
0
 10
621441.3312306518
 20
4830987.988228293
 10
621248.6676005009
 20
4830924.001977618
  0
LWPOLYLINE
  5
13E
330
17
100
AcDbEntity
  8
ROADS
100
AcDbPolyline
 90
2
 70
0
 10
621248.6676005009
 20
4830924.001977618
 10
621219.6670986818
 20
4831017.013174687
  0
LWPOLYLINE
  5
13F
330
17
100
AcDbEntity
  8
ROADS
100
AcDbPolyline
 90
2
 70
0
 10
621649.6393918135
 20
4831054.259272497
 10
621441.3312306518
 20
4830987.988228293
  0
LWPOLYLINE
  5
140
330
17
100
AcDbEntity
  8
ROADS
100
AcDbPolyline
 90
2
 70
0
 10
621441.3312306518
 20
4830987.988228293
 10
621412.8831572491
 20
4831079.757398272
  0
LWPOLYLINE
  5
141
330
17
100
AcDbEntity
  8
ROADS
100
AcDbPolyline
 90
2
 70
0
 10
621219.6670986818
 20
4831017.013174687
 10
621412.8831572491
 20
4831079.757398272
  0
LWPOLYLINE
  5
142
330
17
100
AcDbEntity
  8
ROADS
100
AcDbPolyline
 90
2
 70
0
 10
621219.6670986818
 20
4831017.013174687
 10
621190.4682981803
 20
4831109.042730801
  0
LWPOLYLINE
  5
143
330
17
100
AcDbEntity
  8
ROADS
100
AcDbPolyline
 90
2
 70
0
 10
621248.6676005009
 20
4830924.001977618
 10
621124.0258566827
 20
4830883.73628715
  0
LWPOLYLINE
  5
144
330
17
100
AcDbEntity
  8
ROADS
100
AcDbPolyline
 90
2
 70
0
 10
621096.5047010863
 20
4830976.726141984
 10
621219.6670986818
 20
4831017.013174687
  0
LWPOLYLINE
  5
145
330
17
100
AcDbEntity
  8
ROADS
100
AcDbPolyline
 90
2
 70
0
 10
621190.4682981803
 20
4831109.042730801
 10
621078.1140156287
 20
4831072.057173404
  0
LWPOLYLINE
  5
146
330
17
100
AcDbEntity
  8
ROADS
100
AcDbPolyline
 90
2
 70
0
 10
621733.8627886255
 20
4830991.840935211
 10
621737.6950850745
 20
4831001.853619786
  0
LWPOLYLINE
  5
147
330
17
100
AcDbEntity
  8
ROADS
100
AcDbPolyline
 90
2
 70
0
 10
621763.5831195068
 20
4831008.559588619
 10
621747.037273973
 20
4830989.3008146025
  0
LWPOLYLINE
  5
148
330
17
100
AcDbEntity
  8
ROADS
100
AcDbPolyline
 90
2
 70
0
 10
621679.0846232655
 20
4830963.038073631
 10
621649.6393918135
 20
4831054.259272497
  0
LWPOLYLINE
  5
149
330
17
100
AcDbEntity
  8
ROADS
100
AcDbPolyline
 90
2
 70
0
 10
621737.6950850745
 20
4831001.853619786
 10
621747.2535464301
 20
4831018.791061886
  0
LWPOLYLINE
  5
14A
330
17
100
AcDbEntity
  8
ROADS
100
AcDbPolyline
 90
2
 70
0
 10
621763.5831195068
 20
4831008.559588619
 10
621747.2535464301
 20
4831018.791061886
  0
LWPOLYLINE
  5
14B
330
17
100
AcDbEntity
  8
ROADS
100
AcDbPolyline
 90
2
 70
0
 10
621763.5831195068
 20
4831008.559588619
 10
621766.4716450783
 20
4831037.987108695
  0
LWPOLYLINE
  5
14C
330
17
100
AcDbEntity
  8
ROADS
100
AcDbPolyline
 90
2
 70
0
 10
621747.2535464301
 20
4831018.791061886
 10
621735.5065763503
 20
4831073.617344017
  0
LWPOLYLINE
  5
14D
330
17
100
AcDbEntity
  8
ROADS
100
AcDbPolyline
 90
2
 70
0
 10
621649.6393918135
 20
4831054.259272497
 10
621699.741792408
 20
4831071.190640553
  0
LWPOLYLINE
  5
14E
330
17
100
AcDbEntity
  8
ROADS
100
AcDbPolyline
 90
2
 70
0
 10
621699.741792408
 20
4831071.190640553
 10
621735.5065763503
 20
4831073.617344017
  0
LWPOLYLINE
  5
14F
330
17
100
AcDbEntity
  8
ROADS
100
AcDbPolyline
 90
4
 70
0
 10
621763.5831195068
 20
4831008.559588619
 10
621855.2291357208
 20
4831032.593262663
 10
621825.0744718172
 20
4831141.105477865
 10
621802.6245247279
 20
4831162.357383069
  0
LWPOLYLINE
  5
150
330
17
100
AcDbEntity
  8
ROADS
100
AcDbPolyline
 90
2
 70
0
 10
621160.6445716589
 20
4831201.785012881
 10
621068.9400478776
 20
4831171.149449698
  0
LWPOLYLINE
  5
151
330
17
100
AcDbEntity
  8
ROADS
100
AcDbPolyline
 90
2
 70
0
 10
621160.6445716589
 20
4831201.785012881
 10
621130.7687088221
 20
4831292.153233448
  0
LWPOLYLINE
  5
152
330
17
100
AcDbEntity
  8
ROADS
100
AcDbPolyline
 90
2
 70
0
 10
621649.6393918135
 20
4831054.259272497
 10
621620.545509647
 20
4831147.50889445
  0
LWPOLYLINE
  5
153
330
17
100
AcDbEntity
  8
ROADS
100
AcDbPolyline
 90
2
 70
0
 10
621735.5065763503
 20
4831073.617344017
 10
621744.488196077
 20
4831144.404814796
  0
LWPOLYLINE
  5
154
330
17
100
AcDbEntity
  8
ROADS
100
AcDbPolyline
 90
3
 70
0
 10
621699.741792408
 20
4831071.190640553
 10
621661.6114520163
 20
4831131.285029609
 10
621620.545509647
 20
4831147.50889445
  0
LWPOLYLINE
  5
155
330
17
100
AcDbEntity
  8
ROADS
100
AcDbPolyline
 90
2
 70
0
 10
621600.1493263112
 20
4831141.379155302
 10
621620.545509647
 20
4831147.50889445
  0
LWPOLYLINE
  5
156
330
17
100
AcDbEntity
  8
ROADS
100
AcDbPolyline
 90
2
 70
0
 10
621744.488196077
 20
4831144.404814796
 10
621802.6245247279
 20
4831162.357383069
  0
LWPOLYLINE
  5
157
330
17
100
AcDbEntity
  8
ROADS
100
AcDbPolyline
 90
2
 70
0
 10
621744.488196077
 20
4831144.404814796
 10
621723.4585607863
 20
4831181.1425759
  0
LWPOLYLINE
  5
158
330
17
100
AcDbEntity
  8
ROADS
100
AcDbPolyline
 90
2
 70
0
 10
621620.545509647
 20
4831147.50889445
 10
621723.4585607863
 20
4831181.1425759
  0
LWPOLYLINE
  5
159
330
17
100
AcDbEntity
  8
ROADS
100
AcDbPolyline
 90
2
 70
0
 10
621802.6245247279
 20
4831162.357383069
 10
621819.0819541569
 20
4831210.5888949735
  0
LWPOLYLINE
  5
15A
330
17
100
AcDbEntity
  8
ROADS
100
AcDbPolyline
 90
2
 70
0
 10
621723.4585607863
 20
4831181.1425759
 10
621819.0819541569
 20
4831210.5888949735
  0
LWPOLYLINE
  5
15B
330
17
100
AcDbEntity
  8
ROADS
100
AcDbPolyline
 90
3
 70
0
 10
621819.0819541569
 20
4831210.5888949735
 10
621918.872985272
 20
4831240.897560731
 10
621893.5136122367
 20
4831318.07197175
  0
LWPOLYLINE
  5
15C
330
17
100
AcDbEntity
  8
ROADS
100
AcDbPolyline
 90
2
 70
0
 10
621412.8831572491
 20
4831079.757398272
 10
621600.1493263112
 20
4831141.379155302
  0
LWPOLYLINE
  5
15D
330
17
100
AcDbEntity
  8
ROADS
100
AcDbPolyline
 90
2
 70
0
 10
621412.8831572491
 20
4831079.757398272
 10
621384.5229521375
 20
4831172.529184989
  0
LWPOLYLINE
  5
15E
330
17
100
AcDbEntity
  8
ROADS
100
AcDbPolyline
 90
2
 70
0
 10
621384.5229521375
 20
4831172.529184989
 10
621190.4682981803
 20
4831109.042730801
  0
LWPOLYLINE
  5
15F
330
17
100
AcDbEntity
  8
ROADS
100
AcDbPolyline
 90
3
 70
0
 10
621600.1493263112
 20
4831141.379155302
 10
621557.3479325044
 20
4831228.200833795
 10
621384.5229521375
 20
4831172.529184989
  0
LWPOLYLINE
  5
160
330
17
100
AcDbEntity
  8
ROADS
100
AcDbPolyline
 90
2
 70
0
 10
621321.3345463385
 20
4831253.213727589
 10
621160.6445716589
 20
4831201.785012881
  0
LWPOLYLINE
  5
161
330
17
100
AcDbEntity
  8
ROADS
100
AcDbPolyline
 90
5
 70
0
 10
621321.3345463385
 20
4831253.213727589
 10
621392.9334412606
 20
4831276.422237343
 10
621374.6659611145
 20
4831305.076993613
 10
621318.6300541541
 20
4831288.549930693
 10
621321.3345463385
 20
4831253.213727589
  0
LWPOLYLINE
  5
162
330
17
100
AcDbEntity
  8
ROADS
100
AcDbPolyline
 90
2
 70
0
 10
621620.545509647
 20
4831147.50889445
 10
621529.1531435723
 20
4831423.460230792
  0
LWPOLYLINE
  5
163
330
17
100
AcDbEntity
  8
ROADS
100
AcDbPolyline
 90
2
 70
0
 10
621228.1813383431
 20
4831324.01646556
 10
621177.609501474
 20
4831316.093745623
  0
LWPOLYLINE
  5
164
330
17
100
AcDbEntity
  8
ROADS
100
AcDbPolyline
 90
2
 70
0
 10
621323.7320515265
 20
4831356.370100118
 10
621228.1813383431
 20
4831324.01646556
  0
LWPOLYLINE
  5
165
330
17
100
AcDbEntity
  8
ROADS
100
AcDbPolyline
 90
2
 70
0
 10
621421.9022906387
 20
4831388.647073681
 10
621323.7320515265
 20
4831356.370100118
  0
LWPOLYLINE
  5
166
330
17
100
AcDbEntity
  8
ROADS
100
AcDbPolyline
 90
3
 70
0
 10
622775.6591570631
 20
4831178.751849859
 10
622731.4434368411
 20
4831097.910166321
 10
622666.5922634746
 20
4831070.871320615
  0
LWPOLYLINE
  5
167
330
17
100
AcDbEntity
  8
ROADS
100
AcDbPolyline
 90
3
 70
0
 10
622715.1716084164
 20
4831057.558263724
 10
622754.5348751117
 20
4831083.278606342
 10
622838.9892247415
 20
4831223.202093728
  0
LWPOLYLINE
  5
168
330
17
100
AcDbEntity
  8
ROADS
100
AcDbPolyline
 90
2
 70
0
 10
622888.4117784107
 20
4831190.728848277
 10
622910.9652379288
 20
4831175.874057853
  0
LWPOLYLINE
  5
169
330
17
100
AcDbEntity
  8
ROADS
100
AcDbPolyline
 90
2
 70
0
 10
622589.3957406388
 20
4831250.210366296
 10
622536.6904585933
 20
4831118.812933815
  0
LWPOLYLINE
  5
16A
330
17
100
AcDbEntity
  8
ROADS
100
AcDbPolyline
 90
2
 70
0
 10
622775.6591570631
 20
4831178.751849859
 10
622715.8935032848
 20
4831202.596316134
  0
LWPOLYLINE
  5
16B
330
17
100
AcDbEntity
  8
ROADS
100
AcDbPolyline
 90
2
 70
0
 10
622868.5452784746
 20
4831214.643619781
 10
622888.4117784107
 20
4831190.728848277
  0
LWPOLYLINE
  5
16C
330
17
100
AcDbEntity
  8
ROADS
100
AcDbPolyline
 90
2
 70
0
 10
622856.450166351
 20
4831221.536452457
 10
622868.5452784746
 20
4831214.643619781
  0
LWPOLYLINE
  5
16D
330
17
100
AcDbEntity
  8
ROADS
100
AcDbPolyline
 90
2
 70
0
 10
622715.8935032848
 20
4831202.596316134
 10
622632.390661293
 20
4831234.027314953
  0
LWPOLYLINE
  5
16E
330
17
100
AcDbEntity
  8
ROADS
100
AcDbPolyline
 90
2
 70
0
 10
622838.9892247415
 20
4831223.202093728
 10
622856.450166351
 20
4831221.536452457
  0
LWPOLYLINE
  5
16F
330
17
100
AcDbEntity
  8
ROADS
100
AcDbPolyline
 90
2
 70
0
 10
622868.5452784746
 20
4831214.643619781
 10
622867.2792195334
 20
4831235.788779712
  0
LWPOLYLINE
  5
170
330
17
100
AcDbEntity
  8
ROADS
100
AcDbPolyline
 90
2
 70
0
 10
622856.450166351
 20
4831221.536452457
 10
622867.2792195334
 20
4831235.788779712
  0
LWPOLYLINE
  5
171
330
17
100
AcDbEntity
  8
ROADS
100
AcDbPolyline
 90
2
 70
0
 10
622838.9892247415
 20
4831223.202093728
 10
622842.2885717697
 20
4831238.6909526475
  0
LWPOLYLINE
  5
172
330
17
100
AcDbEntity
  8
ROADS
100
AcDbPolyline
 90
2
 70
0
 10
622824.7202189504
 20
4831293.352731968
 10
622775.6591570631
 20
4831178.751849859
  0
LWPOLYLINE
  5
173
330
17
100
AcDbEntity
  8
ROADS
100
AcDbPolyline
 90
2
 70
0
 10
622632.390661293
 20
4831234.027314953
 10
622589.3957406388
 20
4831250.210366296
  0
LWPOLYLINE
  5
174
330
17
100
AcDbEntity
  8
ROADS
100
AcDbPolyline
 90
2
 70
0
 10
622842.2885717697
 20
4831238.6909526475
 10
622859.1898099176
 20
4831249.185293913
  0
LWPOLYLINE
  5
175
330
17
100
AcDbEntity
  8
ROADS
100
AcDbPolyline
 90
2
 70
0
 10
622842.2885717697
 20
4831238.6909526475
 10
622844.9194625331
 20
4831254.756763916
  0
LWPOLYLINE
  5
176
330
17
100
AcDbEntity
  8
ROADS
100
AcDbPolyline
 90
2
 70
0
 10
622867.2792195334
 20
4831235.788779712
 10
622883.9814864625
 20
4831266.76202746
  0
LWPOLYLINE
  5
177
330
17
100
AcDbEntity
  8
ROADS
100
AcDbPolyline
 90
2
 70
0
 10
622844.9194625331
 20
4831254.756763916
 10
622859.1898099176
 20
4831249.185293913
  0
LWPOLYLINE
  5
178
330
17
100
AcDbEntity
  8
ROADS
100
AcDbPolyline
 90
2
 70
0
 10
622859.1898099176
 20
4831249.185293913
 10
622869.2913781431
 20
4831258.425235119
  0
LWPOLYLINE
  5
179
330
17
100
AcDbEntity
  8
ROADS
100
AcDbPolyline
 90
2
 70
0
 10
622859.1898099176
 20
4831249.185293913
 10
622851.9538070783
 20
4831262.506221071
  0
LWPOLYLINE
  5
17A
330
17
100
AcDbEntity
  8
ROADS
100
AcDbPolyline
 90
2
 70
0
 10
622844.9194625331
 20
4831254.756763916
 10
622851.9538070783
 20
4831262.506221071
  0
LWPOLYLINE
  5
17B
330
17
100
AcDbEntity
  8
ROADS
100
AcDbPolyline
 90
2
 70
0
 10
622851.9538070783
 20
4831262.506221071
 10
622869.2913781431
 20
4831258.425235119
  0
LWPOLYLINE
  5
17C
330
17
100
AcDbEntity
  8
ROADS
100
AcDbPolyline
 90
2
 70
0
 10
622842.2885717697
 20
4831238.6909526475
 10
622836.9193300966
 20
4831282.3640818335
  0
LWPOLYLINE
  5
17D
330
17
100
AcDbEntity
  8
ROADS
100
AcDbPolyline
 90
2
 70
0
 10
622869.2913781431
 20
4831258.425235119
 10
622873.281324137
 20
4831270.782919019
  0
LWPOLYLINE
  5
17E
330
17
100
AcDbEntity
  8
ROADS
100
AcDbPolyline
 90
2
 70
0
 10
622737.2661974961
 20
4831328.766530757
 10
622715.8935032848
 20
4831202.596316134
  0
LWPOLYLINE
  5
17F
330
17
100
AcDbEntity
  8
ROADS
100
AcDbPolyline
 90
2
 70
0
 10
622873.281324137
 20
4831270.782919019
 10
622883.9814864625
 20
4831266.76202746
  0
LWPOLYLINE
  5
180
330
17
100
AcDbEntity
  8
ROADS
100
AcDbPolyline
 90
2
 70
0
 10
622851.9538070783
 20
4831262.506221071
 10
622836.9193300966
 20
4831282.3640818335
  0
LWPOLYLINE
  5
181
330
17
100
AcDbEntity
  8
ROADS
100
AcDbPolyline
 90
2
 70
0
 10
622836.9193300966
 20
4831282.3640818335
 10
622873.281324137
 20
4831270.782919019
  0
LWPOLYLINE
  5
182
330
17
100
AcDbEntity
  8
ROADS
100
AcDbPolyline
 90
2
 70
0
 10
622632.390661293
 20
4831234.027314953
 10
622672.3845140812
 20
4831353.041562996
  0
LWPOLYLINE
  5
183
330
17
100
AcDbEntity
  8
ROADS
100
AcDbPolyline
 90
2
 70
0
 10
622883.9814864625
 20
4831266.76202746
 10
622887.1542686014
 20
4831334.258643568
  0
LWPOLYLINE
  5
184
330
17
100
AcDbEntity
  8
ROADS
100
AcDbPolyline
 90
3
 70
0
 10
622873.281324137
 20
4831270.782919019
 10
622863.2357658426
 20
4831313.0215007495
 10
622887.1542686014
 20
4831334.258643568
  0
LWPOLYLINE
  5
185
330
17
100
AcDbEntity
  8
ROADS
100
AcDbPolyline
 90
2
 70
0
 10
622629.7351959539
 20
4831368.997833946
 10
622589.3957406388
 20
4831250.210366296
  0
LWPOLYLINE
  5
186
330
17
100
AcDbEntity
  8
ROADS
100
AcDbPolyline
 90
2
 70
0
 10
622824.7202189504
 20
4831293.352731968
 10
622737.2661974961
 20
4831328.766530757
  0
LWPOLYLINE
  5
187
330
17
100
AcDbEntity
  8
ROADS
100
AcDbPolyline
 90
2
 70
0
 10
622737.2661974961
 20
4831328.766530757
 10
622672.3845140812
 20
4831353.041562996
  0
LWPOLYLINE
  5
188
330
17
100
AcDbEntity
  8
ROADS
100
AcDbPolyline
 90
2
 70
0
 10
622836.9193300966
 20
4831282.3640818335
 10
622876.1395678072
 20
4831433.404495831
  0
LWPOLYLINE
  5
189
330
17
100
AcDbEntity
  8
ROADS
100
AcDbPolyline
 90
2
 70
0
 10
622672.3845140812
 20
4831353.041562996
 10
622629.7351959539
 20
4831368.997833946
  0
LWPOLYLINE
  5
18A
330
17
100
AcDbEntity
  8
ROADS
100
AcDbPolyline
 90
2
 70
0
 10
622862.0307528877
 20
4831437.230791462
 10
622824.7202189504
 20
4831293.352731968
  0
LWPOLYLINE
  5
18B
330
17
100
AcDbEntity
  8
ROADS
100
AcDbPolyline
 90
2
 70
0
 10
622887.1542686014
 20
4831334.258643568
 10
622900.2785543789
 20
4831423.507108751
  0
LWPOLYLINE
  5
18C
330
17
100
AcDbEntity
  8
ROADS
100
AcDbPolyline
 90
2
 70
0
 10
622769.0264441354
 20
4831471.869246911
 10
622737.2661974961
 20
4831328.766530757
  0
LWPOLYLINE
  5
18D
330
17
100
AcDbEntity
  8
ROADS
100
AcDbPolyline
 90
2
 70
0
 10
622900.2785543789
 20
4831423.507108751
 10
622913.5460577034
 20
4831418.865573005
  0
LWPOLYLINE
  5
18E
330
17
100
AcDbEntity
  8
ROADS
100
AcDbPolyline
 90
5
 70
0
 10
622270.9329842202
 20
4830937.072435116
 10
622294.2105635648
 20
4830979.005910285
 10
622350.4262528946
 20
4830978.007386113
 10
622371.4880692225
 20
4831012.22748161
 10
622460.176567588
 20
4830968.424542663
  0
LWPOLYLINE
  5
18F
330
17
100
AcDbEntity
  8
ROADS
100
AcDbPolyline
 90
3
 70
0
 10
622491.5471134726
 20
4831034.738403812
 10
622430.3150101847
 20
4831041.2255588295
 10
622244.3438085798
 20
4831129.596146862
  0
LWPOLYLINE
  5
190
330
17
100
AcDbEntity
  8
ROADS
100
AcDbPolyline
 90
3
 70
0
 10
622536.6904585933
 20
4831118.812933815
 10
622357.7681364375
 20
4831211.079033569
 10
622207.285227528
 20
4831358.365389656
  0
LWPOLYLINE
  5
191
330
17
100
AcDbEntity
  8
ROADS
100
AcDbPolyline
 90
4
 70
0
 10
621893.5136122367
 20
4831318.07197175
 10
621900.1817555072
 20
4831341.993535611
 10
622130.6218683958
 20
4831389.073828531
 10
622148.2384759159
 20
4831415.488822699
  0
LWPOLYLINE
  5
192
330
17
100
AcDbEntity
  8
ROADS
100
AcDbPolyline
 90
2
 70
0
 10
622207.285227528
 20
4831358.365389656
 10
622148.2384759159
 20
4831415.488822699
  0
LWPOLYLINE
  5
193
330
17
100
AcDbEntity
  8
ROADS
100
AcDbPolyline
 90
2
 70
0
 10
622148.2384759159
 20
4831415.488822699
 10
622096.139218084
 20
4831470.610157633
  0
LWPOLYLINE
  5
194
330
17
100
AcDbEntity
  8
ROADS
100
AcDbPolyline
 90
2
 70
0
 10
622096.139218084
 20
4831470.610157633
 10
622078.6364995766
 20
4831487.653241236
  0
LWPOLYLINE
  5
195
330
17
100
AcDbEntity
  8
ROADS
100
AcDbPolyline
 90
2
 70
0
 10
622078.6364995766
 20
4831487.653241236
 10
622042.9957078482
 20
4831523.584010036
  0
LWPOLYLINE
  5
196
330
17
100
AcDbEntity
  8
ROADS
100
AcDbPolyline
 90
2
 70
0
 10
622042.9957078482
 20
4831523.584010036
 10
622003.7009016882
 20
4831565.152016634
  0
LWPOLYLINE
  5
197
330
17
100
AcDbEntity
  8
ROADS
100
AcDbPolyline
 90
2
 70
0
 10
622196.2031403559
 20
4831910.683041851
 10
622077.0619029324
 20
4831873.526725136
  0
LWPOLYLINE
  5
198
330
17
100
AcDbEntity
  8
ROADS
100
AcDbPolyline
 90
2
 70
0
 10
622672.3845140812
 20
4831353.041562996
 10
622718.5592072629
 20
4831491.950466669
  0
LWPOLYLINE
  5
199
330
17
100
AcDbEntity
  8
ROADS
100
AcDbPolyline
 90
2
 70
0
 10
622876.1395678072
 20
4831433.404495831
 10
622900.2785543789
 20
4831423.507108751
  0
LWPOLYLINE
  5
19A
330
17
100
AcDbEntity
  8
ROADS
100
AcDbPolyline
 90
2
 70
0
 10
622675.8622084623
 20
4831508.939910815
 10
622629.7351959539
 20
4831368.997833946
  0
LWPOLYLINE
  5
19B
330
17
100
AcDbEntity
  8
ROADS
100
AcDbPolyline
 90
2
 70
0
 10
622862.0307528877
 20
4831437.230791462
 10
622769.0264441354
 20
4831471.869246911
  0
LWPOLYLINE
  5
19C
330
17
100
AcDbEntity
  8
ROADS
100
AcDbPolyline
 90
2
 70
0
 10
622769.0264441354
 20
4831471.869246911
 10
622718.5592072629
 20
4831491.950466669
  0
LWPOLYLINE
  5
19D
330
17
100
AcDbEntity
  8
ROADS
100
AcDbPolyline
 90
2
 70
0
 10
622718.5592072629
 20
4831491.950466669
 10
622675.8622084623
 20
4831508.939910815
  0
LWPOLYLINE
  5
19E
330
17
100
AcDbEntity
  8
ROADS
100
AcDbPolyline
 90
2
 70
0
 10
622802.905468086
 20
4831575.632357413
 10
622769.0264441354
 20
4831471.869246911
  0
LWPOLYLINE
  5
19F
330
17
100
AcDbEntity
  8
ROADS
100
AcDbPolyline
 90
2
 70
0
 10
622876.1395678072
 20
4831433.404495831
 10
622930.4398465094
 20
4831670.218093749
  0
LWPOLYLINE
  5
1A0
330
17
100
AcDbEntity
  8
ROADS
100
AcDbPolyline
 90
2
 70
0
 10
622920.1512761274
 20
4831674.594426677
 10
622862.0307528877
 20
4831437.230791462
  0
LWPOLYLINE
  5
1A1
330
17
100
AcDbEntity
  8
ROADS
100
AcDbPolyline
 90
2
 70
0
 10
622704.6137334176
 20
4831603.748927248
 10
622675.8622084623
 20
4831508.939910815
  0
LWPOLYLINE
  5
1A2
330
17
100
AcDbEntity
  8
ROADS
100
AcDbPolyline
 90
2
 70
0
 10
622819.7835718021
 20
4831571.576088437
 10
622802.905468086
 20
4831575.632357413
  0
LWPOLYLINE
  5
1A3
330
17
100
AcDbEntity
  8
ROADS
100
AcDbPolyline
 90
2
 70
0
 10
622802.905468086
 20
4831575.632357413
 10
622704.6137334176
 20
4831603.748927248
  0
LWPOLYLINE
  5
1A4
330
17
100
AcDbEntity
  8
ROADS
100
AcDbPolyline
 90
2
 70
0
 10
622920.1512761274
 20
4831674.594426677
 10
622868.4155975342
 20
4831686.724320637
  0
LWPOLYLINE
  5
1A5
330
17
100
AcDbEntity
  8
ROADS
100
AcDbPolyline
 90
3
 70
0
 10
622817.5059682801
 20
4831701.566266872
 10
622828.1055721295
 20
4831677.871614648
 10
622868.4155975342
 20
4831686.724320637
  0
LWPOLYLINE
  5
1A6
330
17
100
AcDbEntity
  8
ROADS
100
AcDbPolyline
 90
2
 70
0
 10
622868.4155975342
 20
4831686.724320637
 10
622817.5059682801
 20
4831701.566266872
  0
LWPOLYLINE
  5
1A7
330
17
100
AcDbEntity
  8
ROADS
100
AcDbPolyline
 90
2
 70
0
 10
622771.1771849445
 20
4831705.193425983
 10
622752.4081086606
 20
4831690.811629713
  0
LWPOLYLINE
  5
1A8
330
17
100
AcDbEntity
  8
ROADS
100
AcDbPolyline
 90
2
 70
0
 10
622817.5059682801
 20
4831701.566266872
 10
622771.1771849445
 20
4831705.193425983
  0
LWPOLYLINE
  5
1A9
330
17
100
AcDbEntity
  8
ROADS
100
AcDbPolyline
 90
2
 70
0
 10
622745.0393877915
 20
4831699.0789006995
 10
622753.5527310027
 20
4831714.543793386
  0
LWPOLYLINE
  5
1AA
330
17
100
AcDbEntity
  8
ROADS
100
AcDbPolyline
 90
2
 70
0
 10
622771.1771849445
 20
4831705.193425983
 10
622753.5527310027
 20
4831714.543793386
  0
LWPOLYLINE
  5
1AB
330
17
100
AcDbEntity
  8
ROADS
100
AcDbPolyline
 90
2
 70
0
 10
622771.1771849445
 20
4831705.193425983
 10
622758.1884403768
 20
4831733.96315496
  0
LWPOLYLINE
  5
1AC
330
17
100
AcDbEntity
  8
ROADS
100
AcDbPolyline
 90
2
 70
0
 10
621715.9739227502
 20
4831485.324165216
 10
621685.7306233331
 20
4831475.744346745
  0
LWPOLYLINE
  5
1AD
330
17
100
AcDbEntity
  8
ROADS
100
AcDbPolyline
 90
2
 70
0
 10
622003.7009016882
 20
4831565.152016634
 10
621785.9565993312
 20
4831780.756964735
  0
LWPOLYLINE
  5
1AE
330
17
100
AcDbEntity
  8
ROADS
100
AcDbPolyline
 90
2
 70
0
 10
621488.5736718785
 20
4831682.926717523
 10
621785.9565993312
 20
4831780.756964735
  0
LWPOLYLINE
  5
1AF
330
17
100
AcDbEntity
  8
ROADS
100
AcDbPolyline
 90
2
 70
0
 10
622077.0619029324
 20
4831873.526725136
 10
621785.9565993312
 20
4831780.756964735
  0
LWPOLYLINE
  5
1B0
330
17
100
AcDbEntity
  8
ROADS
100
AcDbPolyline
 90
2
 70
0
 10
621785.9565993312
 20
4831780.756964735
 10
621752.1628985982
 20
4831889.636362975
  0
LWPOLYLINE
  5
1B1
330
17
100
AcDbEntity
  8
ROADS
100
AcDbPolyline
 90
2
 70
0
 10
621660.3516326885
 20
4831768.982104533
 10
621605.4152221321
 20
4831909.5078940485
  0
LWPOLYLINE
  5
1B2
330
17
100
AcDbEntity
  8
ROADS
100
AcDbPolyline
 90
2
 70
0
 10
621854.2202471233
 20
4831923.498835618
 10
621752.1628985982
 20
4831889.636362975
  0
LWPOLYLINE
  5
1B3
330
17
100
AcDbEntity
  8
ROADS
100
AcDbPolyline
 90
2
 70
0
 10
621752.1628985982
 20
4831889.636362975
 10
621722.8395813293
 20
4831973.210360363
  0
LWPOLYLINE
  5
1B4
330
17
100
AcDbEntity
  8
ROADS
100
AcDbPolyline
 90
2
 70
0
 10
621605.4152221321
 20
4831909.5078940485
 10
621582.2749110978
 20
4831953.63479094
  0
LWPOLYLINE
  5
1B5
330
17
100
AcDbEntity
  8
ROADS
100
AcDbPolyline
 90
2
 70
0
 10
621954.4335825355
 20
4831954.812893771
 10
621854.2202471233
 20
4831923.498835618
  0
LWPOLYLINE
  5
1B6
330
17
100
AcDbEntity
  8
ROADS
100
AcDbPolyline
 90
2
 70
0
 10
622952.58964067
 20
4831661.156824675
 10
622974.9853018835
 20
4831652.158999524
  0
LWPOLYLINE
  5
1B7
330
17
100
AcDbEntity
  8
ROADS
100
AcDbPolyline
 90
2
 70
0
 10
622930.4398465094
 20
4831670.218093749
 10
622952.58964067
 20
4831661.156824675
  0
LWPOLYLINE
  5
1B8
330
17
100
AcDbEntity
  8
ROADS
100
AcDbPolyline
 90
2
 70
0
 10
622920.1512761274
 20
4831674.594426677
 10
622930.4398465094
 20
4831670.218093749
  0
LWPOLYLINE
  5
1B9
330
17
100
AcDbEntity
  8
ROADS
100
AcDbPolyline
 90
2
 70
0
 10
622974.9853018835
 20
4831652.158999524
 10
622990.6003064176
 20
4831737.218795629
  0
LWPOLYLINE
  5
1BA
330
17
100
AcDbEntity
  8
ROADS
100
AcDbPolyline
 90
2
 70
0
 10
622952.58964067
 20
4831661.156824675
 10
622990.6003064176
 20
4831737.218795629
  0
LWPOLYLINE
  5
1BB
330
17
100
AcDbEntity
  8
ROADS
100
AcDbPolyline
 90
2
 70
0
 10
622930.4398465094
 20
4831670.218093749
 10
622983.5292906181
 20
4831768.03005876
  0
LWPOLYLINE
  5
1BC
330
17
100
AcDbEntity
  8
ROADS
100
AcDbPolyline
 90
2
 70
0
 10
622963.7243521329
 20
4831785.29708947
 10
622920.1512761274
 20
4831674.594426677
  0
LWPOLYLINE
  5
1BD
330
17
100
AcDbEntity
  8
ROADS
100
AcDbPolyline
 90
2
 70
0
 10
622990.6003064176
 20
4831737.218795629
 10
622983.5292906181
 20
4831768.03005876
  0
LWPOLYLINE
  5
1BE
330
17
100
AcDbEntity
  8
ROADS
100
AcDbPolyline
 90
2
 70
0
 10
622990.6003064176
 20
4831737.218795629
 10
623043.6612784534
 20
4831806.828382634
  0
LWPOLYLINE
  5
1BF
330
17
100
AcDbEntity
  8
ROADS
100
AcDbPolyline
 90
2
 70
0
 10
622990.6003064176
 20
4831737.218795629
 10
623031.5804357717
 20
4831811.491345738
  0
LWPOLYLINE
  5
1C0
330
17
100
AcDbEntity
  8
ROADS
100
AcDbPolyline
 90
2
 70
0
 10
622983.5292906181
 20
4831768.03005876
 10
622993.3532059866
 20
4831783.725320421
  0
LWPOLYLINE
  5
1C1
330
17
100
AcDbEntity
  8
ROADS
100
AcDbPolyline
 90
2
 70
0
 10
622963.7243521329
 20
4831785.29708947
 10
622993.3532059866
 20
4831783.725320421
  0
LWPOLYLINE
  5
1C2
330
17
100
AcDbEntity
  8
ROADS
100
AcDbPolyline
 90
2
 70
0
 10
622993.3532059866
 20
4831783.725320421
 10
623013.9214661433
 20
4831817.087073224
  0
LWPOLYLINE
  5
1C3
330
17
100
AcDbEntity
  8
ROADS
100
AcDbPolyline
 90
2
 70
0
 10
622969.543244124
 20
4831823.897116656
 10
622963.7243521329
 20
4831785.29708947
  0
LWPOLYLINE
  5
1C4
330
17
100
AcDbEntity
  8
ROADS
100
AcDbPolyline
 90
2
 70
0
 10
623031.5804357717
 20
4831811.491345738
 10
623043.6612784534
 20
4831806.828382634
  0
LWPOLYLINE
  5
1C5
330
17
100
AcDbEntity
  8
ROADS
100
AcDbPolyline
 90
2
 70
0
 10
623013.9214661433
 20
4831817.087073224
 10
623031.5804357717
 20
4831811.491345738
  0
LWPOLYLINE
  5
1C6
330
17
100
AcDbEntity
  8
ROADS
100
AcDbPolyline
 90
2
 70
0
 10
623013.9214661433
 20
4831817.087073224
 10
623038.6128114425
 20
4831846.304118741
  0
LWPOLYLINE
  5
1C7
330
17
100
AcDbEntity
  8
ROADS
100
AcDbPolyline
 90
2
 70
0
 10
623031.5804357717
 20
4831811.491345738
 10
623065.7589733751
 20
4831853.287921883
  0
LWPOLYLINE
  5
1C8
330
17
100
AcDbEntity
  8
ROADS
100
AcDbPolyline
 90
3
 70
0
 10
623043.6612784534
 20
4831806.828382634
 10
623061.1247312508
 20
4831836.573367697
 10
623133.5022962015
 20
4831885.50246105
  0
LWPOLYLINE
  5
1C9
330
17
100
AcDbEntity
  8
ROADS
100
AcDbPolyline
 90
2
 70
0
 10
623038.6128114425
 20
4831846.304118741
 10
623065.7589733751
 20
4831853.287921883
  0
LWPOLYLINE
  5
1CA
330
17
100
AcDbEntity
  8
ROADS
100
AcDbPolyline
 90
2
 70
0
 10
621177.609501474
 20
4831316.093745623
 10
621130.7687088221
 20
4831292.153233448
  0
LWPOLYLINE
  5
1CB
330
17
100
AcDbEntity
  8
ROADS
100
AcDbPolyline
 90
3
 70
0
 10
621177.609501474
 20
4831316.093745623
 10
621143.9833150243
 20
4831316.50702884
 10
621130.7687088221
 20
4831292.153233448
  0
LWPOLYLINE
  5
1CC
330
17
100
AcDbEntity
  8
ROADS
100
AcDbPolyline
 90
2
 70
0
 10
621130.7687088221
 20
4831292.153233448
 10
621118.4124917428
 20
4831332.155752917
  0
LWPOLYLINE
  5
1CD
330
17
100
AcDbEntity
  8
ROADS
100
AcDbPolyline
 90
2
 70
0
 10
621118.4124917428
 20
4831332.155752917
 10
621072.8249296951
 20
4831317.377408311
  0
LWPOLYLINE
  5
1CE
330
17
100
AcDbEntity
  8
ROADS
100
AcDbPolyline
 90
2
 70
0
 10
621118.4124917428
 20
4831332.155752917
 10
621089.4910858833
 20
4831420.98478652
  0
LWPOLYLINE
  5
1CF
330
17
100
AcDbEntity
  8
ROADS
100
AcDbPolyline
 90
6
 70
0
 10
621654.0483188332
 20
4831394.480292704
 10
621654.1188536873
 20
4831369.2654274395
 10
621588.2270602852
 20
4831344.678922616
 10
621572.5103322444
 20
4831349.717212402
 10
621555.5831907038
 20
4831402.710787664
 10
621578.2117987464
 20
4831410.039927111
  0
LWPOLYLINE
  5
1D0
330
17
100
AcDbEntity
  8
ROADS
100
AcDbPolyline
 90
2
 70
0
 10
621578.2117987464
 20
4831410.039927111
 10
621590.8175066742
 20
4831370.897901279
  0
LWPOLYLINE
  5
1D1
330
17
100
AcDbEntity
  8
ROADS
100
AcDbPolyline
 90
2
 70
0
 10
621638.7096758136
 20
4831393.315131645
 10
621654.0483188332
 20
4831394.480292704
  0
LWPOLYLINE
  5
1D2
330
17
100
AcDbEntity
  8
ROADS
100
AcDbPolyline
 90
3
 70
0
 10
621602.9144063205
 20
4831418.038566762
 10
621614.0794412799
 20
4831388.450941795
 10
621638.7096758136
 20
4831393.315131645
  0
LWPOLYLINE
  5
1D3
330
17
100
AcDbEntity
  8
ROADS
100
AcDbPolyline
 90
2
 70
0
 10
621654.0483188332
 20
4831394.480292704
 10
621707.5178557617
 20
4831414.788196131
  0
LWPOLYLINE
  5
1D4
330
17
100
AcDbEntity
  8
ROADS
100
AcDbPolyline
 90
2
 70
0
 10
621707.5178557617
 20
4831414.788196131
 10
621713.5094914333
 20
4831398.217689731
  0
LWPOLYLINE
  5
1D5
330
17
100
AcDbEntity
  8
ROADS
100
AcDbPolyline
 90
2
 70
0
 10
621627.6959508663
 20
4831425.985631318
 10
621638.7096758136
 20
4831393.315131645
  0
LWPOLYLINE
  5
1D6
330
17
100
AcDbEntity
  8
ROADS
100
AcDbPolyline
 90
2
 70
0
 10
621578.2117987464
 20
4831410.039927111
 10
621602.9144063205
 20
4831418.038566762
  0
LWPOLYLINE
  5
1D7
330
17
100
AcDbEntity
  8
ROADS
100
AcDbPolyline
 90
2
 70
0
 10
621602.9144063205
 20
4831418.038566762
 10
621627.6959508663
 20
4831425.985631318
  0
LWPOLYLINE
  5
1D8
330
17
100
AcDbEntity
  8
ROADS
100
AcDbPolyline
 90
2
 70
0
 10
621653.9179926572
 20
4831431.141261761
 10
621656.6372054231
 20
4831413.478922391
  0
LWPOLYLINE
  5
1D9
330
17
100
AcDbEntity
  8
ROADS
100
AcDbPolyline
 90
2
 70
0
 10
621627.6959508663
 20
4831425.985631318
 10
621653.9179926572
 20
4831431.141261761
  0
LWPOLYLINE
  5
1DA
330
17
100
AcDbEntity
  8
ROADS
100
AcDbPolyline
 90
2
 70
0
 10
621675.9577758182
 20
4831425.562516461
 10
621670.0359889617
 20
4831434.502937212
  0
LWPOLYLINE
  5
1DB
330
17
100
AcDbEntity
  8
ROADS
100
AcDbPolyline
 90
2
 70
0
 10
621594.6718560258
 20
4831445.779904856
 10
621602.9144063205
 20
4831418.038566762
  0
LWPOLYLINE
  5
1DC
330
17
100
AcDbEntity
  8
ROADS
100
AcDbPolyline
 90
2
 70
0
 10
621670.0359889617
 20
4831434.502937212
 10
621653.9179926572
 20
4831431.141261761
  0
LWPOLYLINE
  5
1DD
330
17
100
AcDbEntity
  8
ROADS
100
AcDbPolyline
 90
2
 70
0
 10
621707.5178557617
 20
4831414.788196131
 10
621685.7306233331
 20
4831475.744346745
  0
LWPOLYLINE
  5
1DE
330
17
100
AcDbEntity
  8
ROADS
100
AcDbPolyline
 90
2
 70
0
 10
621653.9179926572
 20
4831431.141261761
 10
621644.8160128467
 20
4831462.28056397
  0
LWPOLYLINE
  5
1DF
330
17
100
AcDbEntity
  8
ROADS
100
AcDbPolyline
 90
2
 70
0
 10
621670.0359889617
 20
4831434.502937212
 10
621664.4452116779
 20
4831468.739481829
  0
LWPOLYLINE
  5
1E0
330
17
100
AcDbEntity
  8
ROADS
100
AcDbPolyline
 90
2
 70
0
 10
621644.8160128467
 20
4831462.28056397
 10
621594.6718560258
 20
4831445.779904856
  0
LWPOLYLINE
  5
1E1
330
17
100
AcDbEntity
  8
ROADS
100
AcDbPolyline
 90
2
 70
0
 10
621664.4452116779
 20
4831468.739481829
 10
621644.8160128467
 20
4831462.28056397
  0
LWPOLYLINE
  5
1E2
330
17
100
AcDbEntity
  8
ROADS
100
AcDbPolyline
 90
2
 70
0
 10
621685.7306233331
 20
4831475.744346745
 10
621664.4452116779
 20
4831468.739481829
  0
LWPOLYLINE
  5
1E3
330
17
100
AcDbEntity
  8
ROADS
100
AcDbPolyline
 90
2
 70
0
 10
621529.1531435723
 20
4831423.460230792
 10
621421.9022906387
 20
4831388.647073681
  0
LWPOLYLINE
  5
1E4
330
17
100
AcDbEntity
  8
ROADS
100
AcDbPolyline
 90
2
 70
0
 10
621228.1813383431
 20
4831324.01646556
 10
621160.3059969932
 20
4831534.485442802
  0
LWPOLYLINE
  5
1E5
330
17
100
AcDbEntity
  8
ROADS
100
AcDbPolyline
 90
2
 70
0
 10
621594.6718560258
 20
4831445.779904856
 10
621529.1531435723
 20
4831423.460230792
  0
LWPOLYLINE
  5
1E6
330
17
100
AcDbEntity
  8
ROADS
100
AcDbPolyline
 90
2
 70
0
 10
621323.7320515265
 20
4831356.370100118
 10
621255.6364379714
 20
4831565.689101226
  0
LWPOLYLINE
  5
1E7
330
17
100
AcDbEntity
  8
ROADS
100
AcDbPolyline
 90
2
 70
0
 10
621529.1531435723
 20
4831423.460230792
 10
621503.513281695
 20
4831502.763566542
  0
LWPOLYLINE
  5
1E8
330
17
100
AcDbEntity
  8
ROADS
100
AcDbPolyline
 90
2
 70
0
 10
621421.9022906387
 20
4831388.647073681
 10
621353.0463966123
 20
4831597.31336551
  0
LWPOLYLINE
  5
1E9
330
17
100
AcDbEntity
  8
ROADS
100
AcDbPolyline
 90
2
 70
0
 10
621503.513281695
 20
4831502.763566542
 10
621477.4028299932
 20
4831580.658325598
  0
LWPOLYLINE
  5
1EA
330
17
100
AcDbEntity
  8
ROADS
100
AcDbPolyline
 90
2
 70
0
 10
621160.3059969932
 20
4831534.485442802
 10
621255.6364379714
 20
4831565.689101226
  0
LWPOLYLINE
  5
1EB
330
17
100
AcDbEntity
  8
ROADS
100
AcDbPolyline
 90
4
 70
0
 10
621477.4028299932
 20
4831580.658325598
 10
621607.6292269833
 20
4831623.302994914
 10
621672.7690097621
 20
4831558.93894374
 10
621503.513281695
 20
4831502.763566542
  0
LWPOLYLINE
  5
1EC
330
17
100
AcDbEntity
  8
ROADS
100
AcDbPolyline
 90
2
 70
0
 10
621255.6364379714
 20
4831565.689101226
 10
621353.0463966123
 20
4831597.31336551
  0
LWPOLYLINE
  5
1ED
330
17
100
AcDbEntity
  8
ROADS
100
AcDbPolyline
 90
2
 70
0
 10
621116.2074744569
 20
4831520.412322532
 10
621160.3059969932
 20
4831534.485442802
  0
LWPOLYLINE
  5
1EE
330
17
100
AcDbEntity
  8
ROADS
100
AcDbPolyline
 90
2
 70
0
 10
621160.3059969932
 20
4831534.485442802
 10
621147.9851035348
 20
4831573.693560873
  0
LWPOLYLINE
  5
1EF
330
17
100
AcDbEntity
  8
ROADS
100
AcDbPolyline
 90
2
 70
0
 10
621147.9851035348
 20
4831573.693560873
 10
621133.1151785183
 20
4831569.033862777
  0
LWPOLYLINE
  5
1F0
330
17
100
AcDbEntity
  8
ROADS
100
AcDbPolyline
 90
2
 70
0
 10
621255.6364379714
 20
4831565.689101226
 10
621243.3093339842
 20
4831603.580059286
  0
LWPOLYLINE
  5
1F1
330
17
100
AcDbEntity
  8
ROADS
100
AcDbPolyline
 90
2
 70
0
 10
621224.5608085085
 20
4831599.080138034
 10
621147.9851035348
 20
4831573.693560873
  0
LWPOLYLINE
  5
1F2
330
17
100
AcDbEntity
  8
ROADS
100
AcDbPolyline
 90
2
 70
0
 10
621243.3093339842
 20
4831603.580059286
 10
621224.5608085085
 20
4831599.080138034
  0
LWPOLYLINE
  5
1F3
330
17
100
AcDbEntity
  8
ROADS
100
AcDbPolyline
 90
2
 70
0
 10
621353.0463966123
 20
4831597.31336551
 10
621401.9282349899
 20
4831612.885188926
  0
LWPOLYLINE
  5
1F4
330
17
100
AcDbEntity
  8
ROADS
100
AcDbPolyline
 90
2
 70
0
 10
621312.3380060986
 20
4831625.962166995
 10
621243.3093339842
 20
4831603.580059286
  0
LWPOLYLINE
  5
1F5
330
17
100
AcDbEntity
  8
ROADS
100
AcDbPolyline
 90
2
 70
0
 10
621353.0463966123
 20
4831597.31336551
 10
621340.6024802637
 20
4831635.02721525
  0
LWPOLYLINE
  5
1F6
330
17
100
AcDbEntity
  8
ROADS
100
AcDbPolyline
 90
2
 70
0
 10
621224.5608085085
 20
4831599.080138034
 10
621209.0156461688
 20
4831646.929388446
  0
LWPOLYLINE
  5
1F7
330
17
100
AcDbEntity
  8
ROADS
100
AcDbPolyline
 90
2
 70
0
 10
621477.4028299932
 20
4831580.658325598
 10
621447.4894620052
 20
4831669.718864109
  0
LWPOLYLINE
  5
1F8
330
17
100
AcDbEntity
  8
ROADS
100
AcDbPolyline
 90
2
 70
0
 10
621340.6024802637
 20
4831635.02721525
 10
621312.3380060986
 20
4831625.962166995
  0
LWPOLYLINE
  5
1F9
330
17
100
AcDbEntity
  8
ROADS
100
AcDbPolyline
 90
2
 70
0
 10
621159.5266033222
 20
4831630.820428848
 10
621209.0156461688
 20
4831646.929388446
  0
LWPOLYLINE
  5
1FA
330
17
100
AcDbEntity
  8
ROADS
100
AcDbPolyline
 90
2
 70
0
 10
621402.1388304197
 20
4831655.859904198
 10
621340.6024802637
 20
4831635.02721525
  0
LWPOLYLINE
  5
1FB
330
17
100
AcDbEntity
  8
ROADS
100
AcDbPolyline
 90
2
 70
0
 10
621312.3380060986
 20
4831625.962166995
 10
621297.4889137518
 20
4831671.926921437
  0
LWPOLYLINE
  5
1FC
330
17
100
AcDbEntity
  8
ROADS
100
AcDbPolyline
 90
2
 70
0
 10
621447.4894620052
 20
4831669.718864109
 10
621402.1388304197
 20
4831655.859904198
  0
LWPOLYLINE
  5
1FD
330
17
100
AcDbEntity
  8
ROADS
100
AcDbPolyline
 90
2
 70
0
 10
621297.4889137518
 20
4831671.926921437
 10
621274.8635179335
 20
4831664.974844685
  0
LWPOLYLINE
  5
1FE
330
17
100
AcDbEntity
  8
ROADS
100
AcDbPolyline
 90
2
 70
0
 10
621297.4889137518
 20
4831671.926921437
 10
621320.3585349196
 20
4831679.697447671
  0
LWPOLYLINE
  5
1FF
330
17
100
AcDbEntity
  8
ROADS
100
AcDbPolyline
 90
2
 70
0
 10
621488.5736718785
 20
4831682.926717523
 10
621447.4894620052
 20
4831669.718864109
  0
LWPOLYLINE
  5
200
330
17
100
AcDbEntity
  8
ROADS
100
AcDbPolyline
 90
2
 70
0
 10
621209.0156461688
 20
4831646.929388446
 10
621192.7394570276
 20
4831697.031665513
  0
LWPOLYLINE
  5
201
330
17
100
AcDbEntity
  8
ROADS
100
AcDbPolyline
 90
2
 70
0
 10
621297.4889137518
 20
4831671.926921437
 10
621267.027640286
 20
4831771.219956013
  0
LWPOLYLINE
  5
202
330
17
100
AcDbEntity
  8
ROADS
100
AcDbPolyline
 90
2
 70
0
 10
621402.1388304197
 20
4831655.859904198
 10
621354.24216573
 20
4831801.680026056
  0
LWPOLYLINE
  5
203
330
17
100
AcDbEntity
  8
ROADS
100
AcDbPolyline
 90
2
 70
0
 10
621488.5736718785
 20
4831682.926717523
 10
621446.7549413993
 20
4831826.605590065
  0
LWPOLYLINE
  5
204
330
17
100
AcDbEntity
  8
ROADS
100
AcDbPolyline
 90
2
 70
0
 10
621267.027640286
 20
4831771.219956013
 10
621228.0086740578
 20
4831757.54422604
  0
LWPOLYLINE
  5
205
330
17
100
AcDbEntity
  8
ROADS
100
AcDbPolyline
 90
2
 70
0
 10
621354.24216573
 20
4831801.680026056
 10
621267.027640286
 20
4831771.219956013
  0
LWPOLYLINE
  5
206
330
17
100
AcDbEntity
  8
ROADS
100
AcDbPolyline
 90
2
 70
0
 10
621446.7549413993
 20
4831826.605590065
 10
621354.24216573
 20
4831801.680026056
  0
LWPOLYLINE
  5
207
330
17
100
AcDbEntity
  8
ROADS
100
AcDbPolyline
 90
2
 70
0
 10
621267.027640286
 20
4831771.219956013
 10
621257.7658200946
 20
4831798.938413343
  0
LWPOLYLINE
  5
208
330
17
100
AcDbEntity
  8
ROADS
100
AcDbPolyline
 90
2
 70
0
 10
621446.7549413993
 20
4831826.605590065
 10
621443.217338289
 20
4831857.902070522
  0
LWPOLYLINE
  5
209
330
17
100
AcDbEntity
  8
ROADS
100
AcDbPolyline
 90
3
 70
0
 10
621354.24216573
 20
4831801.680026056
 10
621340.9454948884
 20
4831863.9515493065
 10
621549.745889263
 20
4831942.485565478
  0
LWPOLYLINE
  5
20A
330
17
100
AcDbEntity
  8
ROADS
100
AcDbPolyline
 90
2
 70
0
 10
621549.745889263
 20
4831942.485565478
 10
621582.2749110978
 20
4831953.63479094
  0
LWPOLYLINE
  5
20B
330
17
100
AcDbEntity
  8
ROADS
100
AcDbPolyline
 90
2
 70
0
 10
621549.745889263
 20
4831942.485565478
 10
621571.5014349788
 20
4831968.854823542
  0
LWPOLYLINE
  5
20C
330
17
100
AcDbEntity
  8
ROADS
100
AcDbPolyline
 90
2
 70
0
 10
621571.5014349788
 20
4831968.854823542
 10
621487.4238365631
 20
4832054.574437596
  0
LWPOLYLINE
  5
20D
330
17
100
AcDbEntity
  8
ROADS
100
AcDbPolyline
 90
3
 70
0
 10
621916.0560593447
 20
4832407.026309621
 10
621829.7647326351
 20
4832384.079058144
 10
621815.9130083603
 20
4832417.655639021
  0
LWPOLYLINE
  5
20E
330
17
100
AcDbEntity
  8
ROADS
100
AcDbPolyline
 90
2
 70
0
 10
621916.0560593447
 20
4832407.026309621
 10
621901.4895084127
 20
4832453.563246137
  0
LWPOLYLINE
  5
20F
330
17
100
AcDbEntity
  8
ROADS
100
AcDbPolyline
 90
2
 70
0
 10
621901.4895084127
 20
4832453.563246137
 10
621897.6389424514
 20
4832466.092245618
  0
LWPOLYLINE
  5
210
330
17
100
AcDbEntity
  8
ROADS
100
AcDbPolyline
 90
3
 70
0
 10
621901.4895084127
 20
4832453.563246137
 10
621910.5139295282
 20
4832470.055068833
 10
621897.6389424514
 20
4832466.092245618
  0
LWPOLYLINE
  5
211
330
17
100
AcDbEntity
  8
ROADS
100
AcDbPolyline
 90
2
 70
0
 10
621897.6389424514
 20
4832466.092245618
 10
621886.819600525
 20
4832494.438664814
  0
LWPOLYLINE
  5
212
330
17
100
AcDbEntity
  8
ROADS
100
AcDbPolyline
 90
2
 70
0
 10
623038.6128114425
 20
4831846.304118741
 10
623053.2233111238
 20
4831870.28227526
  0
LWPOLYLINE
  5
213
330
17
100
AcDbEntity
  8
ROADS
100
AcDbPolyline
 90
2
 70
0
 10
623065.3430148816
 20
4831916.5475330455
 10
622969.543244124
 20
4831823.897116656
  0
LWPOLYLINE
  5
214
330
17
100
AcDbEntity
  8
ROADS
100
AcDbPolyline
 90
2
 70
0
 10
623065.7589733751
 20
4831853.287921883
 10
623100.778948073
 20
4831889.804447678
  0
LWPOLYLINE
  5
215
330
17
100
AcDbEntity
  8
ROADS
100
AcDbPolyline
 90
3
 70
0
 10
622969.543244124
 20
4831823.897116656
 10
622942.4694664514
 20
4831893.882401228
 10
622868.4886533074
 20
4831936.012813786
  0
LWPOLYLINE
  5
216
330
17
100
AcDbEntity
  8
ROADS
100
AcDbPolyline
 90
2
 70
0
 10
623053.2233111238
 20
4831870.28227526
 10
623100.778948073
 20
4831889.804447678
  0
LWPOLYLINE
  5
217
330
17
100
AcDbEntity
  8
ROADS
100
AcDbPolyline
 90
2
 70
0
 10
623053.2233111238
 20
4831870.28227526
 10
623071.1803263687
 20
4831901.436251641
  0
LWPOLYLINE
  5
218
330
17
100
AcDbEntity
  8
ROADS
100
AcDbPolyline
 90
2
 70
0
 10
623133.5022962015
 20
4831885.50246105
 10
623173.4911325241
 20
4831887.780069311
  0
LWPOLYLINE
  5
219
330
17
100
AcDbEntity
  8
ROADS
100
AcDbPolyline
 90
2
 70
0
 10
623133.5022962015
 20
4831885.50246105
 10
623157.7829944328
 20
4831898.924817602
  0
LWPOLYLINE
  5
21A
330
17
100
AcDbEntity
  8
ROADS
100
AcDbPolyline
 90
2
 70
0
 10
623157.7829944328
 20
4831898.924817602
 10
623173.4911325241
 20
4831887.780069311
  0
LWPOLYLINE
  5
21B
330
17
100
AcDbEntity
  8
ROADS
100
AcDbPolyline
 90
2
 70
0
 10
623173.4911325241
 20
4831887.780069311
 10
623176.4803148448
 20
4831904.742420069
  0
LWPOLYLINE
  5
21C
330
17
100
AcDbEntity
  8
ROADS
100
AcDbPolyline
 90
2
 70
0
 10
622275.4682228904
 20
4831937.61743476
 10
622196.2031403559
 20
4831910.683041851
  0
LWPOLYLINE
  5
21D
330
17
100
AcDbEntity
  8
ROADS
100
AcDbPolyline
 90
2
 70
0
 10
622077.0619029324
 20
4831873.526725136
 10
622038.4423786523
 20
4831980.332921494
  0
LWPOLYLINE
  5
21E
330
17
100
AcDbEntity
  8
ROADS
100
AcDbPolyline
 90
2
 70
0
 10
622370.7595906614
 20
4831968.3425776325
 10
622275.4682228904
 20
4831937.61743476
  0
LWPOLYLINE
  5
21F
330
17
100
AcDbEntity
  8
ROADS
100
AcDbPolyline
 90
2
 70
0
 10
622275.4682228904
 20
4831937.61743476
 10
622261.0283622893
 20
4831984.58975003
  0
LWPOLYLINE
  5
220
330
17
100
AcDbEntity
  8
ROADS
100
AcDbPolyline
 90
2
 70
0
 10
622196.2031403559
 20
4831910.683041851
 10
622161.0394339914
 20
4832020.052831336
  0
LWPOLYLINE
  5
221
330
17
100
AcDbEntity
  8
ROADS
100
AcDbPolyline
 90
2
 70
0
 10
622261.0283622893
 20
4831984.58975003
 10
622215.4044290109
 20
4831968.001649842
  0
LWPOLYLINE
  5
222
330
17
100
AcDbEntity
  8
ROADS
100
AcDbPolyline
 90
2
 70
0
 10
622370.7595906614
 20
4831968.3425776325
 10
622354.7833262316
 20
4832017.242236737
  0
LWPOLYLINE
  5
223
330
17
100
AcDbEntity
  8
ROADS
100
AcDbPolyline
 90
2
 70
0
 10
622161.0394339914
 20
4832020.052831336
 10
622038.4423786523
 20
4831980.332921494
  0
LWPOLYLINE
  5
224
330
17
100
AcDbEntity
  8
ROADS
100
AcDbPolyline
 90
2
 70
0
 10
622354.7833262316
 20
4832017.242236737
 10
622261.0283622893
 20
4831984.58975003
  0
LWPOLYLINE
  5
225
330
17
100
AcDbEntity
  8
ROADS
100
AcDbPolyline
 90
2
 70
0
 10
622261.0283622893
 20
4831984.58975003
 10
622243.0630036376
 20
4832043.036902145
  0
LWPOLYLINE
  5
226
330
17
100
AcDbEntity
  8
ROADS
100
AcDbPolyline
 90
2
 70
0
 10
623099.8717982138
 20
4831973.662211063
 10
623065.3430148816
 20
4831916.5475330455
  0
LWPOLYLINE
  5
227
330
17
100
AcDbEntity
  8
ROADS
100
AcDbPolyline
 90
2
 70
0
 10
623181.4942578685
 20
4831923.937464652
 10
623099.8717982138
 20
4831973.662211063
  0
LWPOLYLINE
  5
228
330
17
100
AcDbEntity
  8
ROADS
100
AcDbPolyline
 90
4
 70
0
 10
623222.4639926929
 20
4831931.371057406
 10
623230.2107387071
 20
4831965.666734036
 10
623257.630398083
 20
4831992.217470382
 10
623333.3019338415
 20
4831994.002772703
  0
LWPOLYLINE
  5
229
330
17
100
AcDbEntity
  8
ROADS
100
AcDbPolyline
 90
3
 70
0
 10
623207.604401119
 20
4831931.971610924
 10
623229.5605032751
 20
4831985.270964363
 10
623259.9392456658
 20
4832018.891186568
  0
LWPOLYLINE
  5
22A
330
17
100
AcDbEntity
  8
ROADS
100
AcDbPolyline
 90
3
 70
0
 10
623207.604401119
 20
4831931.971610924
 10
623217.7119569231
 20
4831977.464498868
 10
623259.9392456658
 20
4832018.891186568
  0
LWPOLYLINE
  5
22B
330
17
100
AcDbEntity
  8
ROADS
100
AcDbPolyline
 90
2
 70
0
 10
622977.2975991268
 20
4832048.333750353
 10
622868.4886533074
 20
4831936.012813786
  0
LWPOLYLINE
  5
22C
330
17
100
AcDbEntity
  8
ROADS
100
AcDbPolyline
 90
2
 70
0
 10
623333.3019338415
 20
4831994.002772703
 10
623259.9392456658
 20
4832018.891186568
  0
LWPOLYLINE
  5
22D
330
17
100
AcDbEntity
  8
ROADS
100
AcDbPolyline
 90
2
 70
0
 10
623099.8717982138
 20
4831973.662211063
 10
622977.2975991268
 20
4832048.333750353
  0
LWPOLYLINE
  5
22E
330
17
100
AcDbEntity
  8
ROADS
100
AcDbPolyline
 90
3
 70
0
 10
623292.810064945
 20
4832074.468208382
 10
623347.5253140242
 20
4832018.041965304
 10
623333.3019338415
 20
4831994.002772703
  0
LWPOLYLINE
  5
22F
330
17
100
AcDbEntity
  8
ROADS
100
AcDbPolyline
 90
2
 70
0
 10
623259.9392456658
 20
4832018.891186568
 10
623292.810064945
 20
4832074.468208382
  0
LWPOLYLINE
  5
230
330
17
100
AcDbEntity
  8
ROADS
100
AcDbPolyline
 90
2
 70
0
 10
621722.8395813293
 20
4831973.210360363
 10
621605.4152221321
 20
4831909.5078940485
  0
LWPOLYLINE
  5
231
330
17
100
AcDbEntity
  8
ROADS
100
AcDbPolyline
 90
2
 70
0
 10
621582.2749110978
 20
4831953.63479094
 10
621571.5014349788
 20
4831968.854823542
  0
LWPOLYLINE
  5
232
330
17
100
AcDbEntity
  8
ROADS
100
AcDbPolyline
 90
2
 70
0
 10
622038.4423786523
 20
4831980.332921494
 10
621954.4335825355
 20
4831954.812893771
  0
LWPOLYLINE
  5
233
330
17
100
AcDbEntity
  8
ROADS
100
AcDbPolyline
 90
2
 70
0
 10
621854.2202471233
 20
4831923.498835618
 10
621775.5803364625
 20
4832162.087878457
  0
LWPOLYLINE
  5
234
330
17
100
AcDbEntity
  8
ROADS
100
AcDbPolyline
 90
2
 70
0
 10
621722.8395813293
 20
4831973.210360363
 10
621671.2079848662
 20
4832127.1984659
  0
LWPOLYLINE
  5
235
330
17
100
AcDbEntity
  8
ROADS
100
AcDbPolyline
 90
2
 70
0
 10
621954.4335825355
 20
4831954.812893771
 10
621886.8190556958
 20
4832164.100866564
  0
LWPOLYLINE
  5
236
330
17
100
AcDbEntity
  8
ROADS
100
AcDbPolyline
 90
2
 70
0
 10
622038.4423786523
 20
4831980.332921494
 10
621970.2209364132
 20
4832190.110998736
  0
LWPOLYLINE
  5
237
330
17
100
AcDbEntity
  8
ROADS
100
AcDbPolyline
 90
2
 70
0
 10
621671.2079848662
 20
4832127.1984659
 10
621562.6924071898
 20
4832092.368216878
  0
LWPOLYLINE
  5
238
330
17
100
AcDbEntity
  8
ROADS
100
AcDbPolyline
 90
2
 70
0
 10
621775.5803364625
 20
4832162.087878457
 10
621671.2079848662
 20
4832127.1984659
  0
LWPOLYLINE
  5
239
330
17
100
AcDbEntity
  8
ROADS
100
AcDbPolyline
 90
2
 70
0
 10
621671.2079848662
 20
4832127.1984659
 10
621640.1272057972
 20
4832220.642114771
  0
LWPOLYLINE
  5
23A
330
17
100
AcDbEntity
  8
ROADS
100
AcDbPolyline
 90
2
 70
0
 10
622243.0630036376
 20
4832043.036902145
 10
622161.0394339914
 20
4832020.052831336
  0
LWPOLYLINE
  5
23B
330
17
100
AcDbEntity
  8
ROADS
100
AcDbPolyline
 90
2
 70
0
 10
622243.0630036376
 20
4832043.036902145
 10
622207.169728057
 20
4832147.895300333
  0
LWPOLYLINE
  5
23C
330
17
100
AcDbEntity
  8
ROADS
100
AcDbPolyline
 90
2
 70
0
 10
622354.7833262316
 20
4832017.242236737
 10
622303.6152227002
 20
4832176.677258788
  0
LWPOLYLINE
  5
23D
330
17
100
AcDbEntity
  8
ROADS
100
AcDbPolyline
 90
2
 70
0
 10
622161.0394339914
 20
4832020.052831336
 10
622094.1865589004
 20
4832229.855707074
  0
LWPOLYLINE
  5
23E
330
17
100
AcDbEntity
  8
ROADS
100
AcDbPolyline
 90
2
 70
0
 10
622303.6152227002
 20
4832176.677258788
 10
622207.169728057
 20
4832147.895300333
  0
LWPOLYLINE
  5
23F
330
17
100
AcDbEntity
  8
ROADS
100
AcDbPolyline
 90
2
 70
0
 10
622207.169728057
 20
4832147.895300333
 10
622170.2356120301
 20
4832254.732962726
  0
LWPOLYLINE
  5
240
330
17
100
AcDbEntity
  8
ROADS
100
AcDbPolyline
 90
2
 70
0
 10
622094.1865589004
 20
4832229.855707074
 10
621970.2209364132
 20
4832190.110998736
  0
LWPOLYLINE
  5
241
330
17
100
AcDbEntity
  8
ROADS
100
AcDbPolyline
 90
2
 70
0
 10
622170.2356120301
 20
4832254.732962726
 10
622094.1865589004
 20
4832229.855707074
  0
LWPOLYLINE
  5
242
330
17
100
AcDbEntity
  8
ROADS
100
AcDbPolyline
 90
2
 70
0
 10
622303.6152227002
 20
4832176.677258788
 10
622244.5707766096
 20
4832347.452450368
  0
LWPOLYLINE
  5
243
330
17
100
AcDbEntity
  8
ROADS
100
AcDbPolyline
 90
2
 70
0
 10
622152.7937385918
 20
4832308.420321634
 10
621970.5517198076
 20
4832249.619723575
  0
LWPOLYLINE
  5
244
330
17
100
AcDbEntity
  8
ROADS
100
AcDbPolyline
 90
2
 70
0
 10
623134.2942157722
 20
4832211.971973585
 10
623168.755886486
 20
4832180.4550726125
  0
LWPOLYLINE
  5
245
330
17
100
AcDbEntity
  8
ROADS
100
AcDbPolyline
 90
2
 70
0
 10
622926.0503120411
 20
4832212.975389632
 10
622955.1219460593
 20
4832227.713391436
  0
LWPOLYLINE
  5
246
330
17
100
AcDbEntity
  8
ROADS
100
AcDbPolyline
 90
2
 70
0
 10
623078.4335950414
 20
4832248.961992251
 10
623134.2942157722
 20
4832211.971973585
  0
LWPOLYLINE
  5
247
330
17
100
AcDbEntity
  8
ROADS
100
AcDbPolyline
 90
2
 70
0
 10
622947.0871501268
 20
4832247.964209244
 10
622926.0503120411
 20
4832212.975389632
  0
LWPOLYLINE
  5
248
330
17
100
AcDbEntity
  8
ROADS
100
AcDbPolyline
 90
2
 70
0
 10
623313.6189176998
 20
4832216.164291722
 10
623255.5504893116
 20
4832256.539607493
  0
LWPOLYLINE
  5
249
330
17
100
AcDbEntity
  8
ROADS
100
AcDbPolyline
 90
2
 70
0
 10
623313.6189176998
 20
4832216.164291722
 10
623225.9425444321
 20
4832257.174167517
  0
LWPOLYLINE
  5
24A
330
17
100
AcDbEntity
  8
ROADS
100
AcDbPolyline
 90
2
 70
0
 10
622947.0871501268
 20
4832247.964209244
 10
622955.1219460593
 20
4832227.713391436
  0
LWPOLYLINE
  5
24B
330
17
100
AcDbEntity
  8
ROADS
100
AcDbPolyline
 90
2
 70
0
 10
623209.6597325397
 20
4832266.610431783
 10
623134.2942157722
 20
4832211.971973585
  0
LWPOLYLINE
  5
24C
330
17
100
AcDbEntity
  8
ROADS
100
AcDbPolyline
 90
2
 70
0
 10
622955.1219460593
 20
4832227.713391436
 10
622982.2981696215
 20
4832266.101311989
  0
LWPOLYLINE
  5
24D
330
17
100
AcDbEntity
  8
ROADS
100
AcDbPolyline
 90
2
 70
0
 10
622954.6611234376
 20
4832284.845870981
 10
622901.0717541229
 20
4832212.053021798
  0
LWPOLYLINE
  5
24E
330
17
100
AcDbEntity
  8
ROADS
100
AcDbPolyline
 90
2
 70
0
 10
622817.5059682801
 20
4831701.566266872
 10
622834.3956342343
 20
4831739.9322799565
  0
LWPOLYLINE
  5
24F
330
17
100
AcDbEntity
  8
ROADS
100
AcDbPolyline
 90
2
 70
0
 10
622753.5527310027
 20
4831714.543793386
 10
622758.1884403768
 20
4831733.96315496
  0
LWPOLYLINE
  5
250
330
17
100
AcDbEntity
  8
ROADS
100
AcDbPolyline
 90
2
 70
0
 10
622758.1884403768
 20
4831733.96315496
 10
622758.3418270985
 20
4831754.439919292
  0
LWPOLYLINE
  5
251
330
17
100
AcDbEntity
  8
ROADS
100
AcDbPolyline
 90
3
 70
0
 10
622868.4886533074
 20
4831936.012813786
 10
622747.1527010078
 20
4831763.660211711
 10
622704.6137334176
 20
4831603.748927248
  0
LWPOLYLINE
  5
252
330
17
100
AcDbEntity
  8
ROADS
100
AcDbPolyline
 90
2
 70
0
 10
622495.7780179604
 20
4832007.114223859
 10
622370.7595906614
 20
4831968.3425776325
  0
LWPOLYLINE
  5
253
330
17
100
AcDbEntity
  8
ROADS
100
AcDbPolyline
 90
3
 70
0
 10
622901.0717541229
 20
4832212.053021798
 10
622855.3609094326
 20
4832170.633077985
 10
622495.7780179604
 20
4832007.114223859
  0
LWPOLYLINE
  5
254
330
17
100
AcDbEntity
  8
ROADS
100
AcDbPolyline
 90
4
 70
0
 10
622926.0503120411
 20
4832212.975389632
 10
622863.5310220602
 20
4832120.450247206
 10
622818.0925874842
 20
4832094.504996076
 10
622495.7780179604
 20
4832007.114223859
  0
LWPOLYLINE
  5
255
330
17
100
AcDbEntity
  8
ROADS
100
AcDbPolyline
 90
3
 70
0
 10
622901.0717541229
 20
4832212.053021798
 10
622895.7597149637
 20
4832229.695905085
 10
622923.9581571431
 20
4832283.543046968
  0
LWPOLYLINE
  5
256
330
17
100
AcDbEntity
  8
ROADS
100
AcDbPolyline
 90
12
 70
0
 10
622103.1388400651
 20
4832465.683446579
 10
622151.0071853374
 20
4832442.931325984
 10
622193.6618469186
 20
4832449.978388729
 10
622272.6169813658
 20
4832506.12768481
 10
622314.812391242
 20
4832568.4750709
 10
622424.380403217
 20
4832618.901306964
 10
622517.7595322921
 20
4832606.080020606
 10
622691.8406638987
 20
4832632.767885762
 10
622780.6401274696
 20
4832558.379846054
 10
622885.6588515603
 20
4832385.234005342
 10
622909.3343825033
 20
4832293.674311845
 10
622923.9581571431
 20
4832283.543046968
  0
LWPOLYLINE
  5
257
330
17
100
AcDbEntity
  8
ROADS
100
AcDbPolyline
 90
2
 70
0
 10
622902.8848048019
 20
4832773.783288804
 10
622868.2632792566
 20
4832882.959012264
  0
LWPOLYLINE
  5
258
330
17
100
AcDbEntity
  8
ROADS
100
AcDbPolyline
 90
2
 70
0
 10
621970.2209364132
 20
4832190.110998736
 10
621886.8190556958
 20
4832164.100866564
  0
LWPOLYLINE
  5
259
330
17
100
AcDbEntity
  8
ROADS
100
AcDbPolyline
 90
2
 70
0
 10
621876.4608696931
 20
4832194.414102929
 10
621775.5803364625
 20
4832162.087878457
  0
LWPOLYLINE
  5
25A
330
17
100
AcDbEntity
  8
ROADS
100
AcDbPolyline
 90
2
 70
0
 10
621886.8190556958
 20
4832164.100866564
 10
621876.4608696931
 20
4832194.414102929
  0
LWPOLYLINE
  5
25B
330
17
100
AcDbEntity
  8
ROADS
100
AcDbPolyline
 90
2
 70
0
 10
621640.1272057972
 20
4832220.642114771
 10
621638.6111055949
 20
4832220.116703384
  0
LWPOLYLINE
  5
25C
330
17
100
AcDbEntity
  8
ROADS
100
AcDbPolyline
 90
2
 70
0
 10
621876.4608696931
 20
4832194.414102929
 10
621844.5171394013
 20
4832290.341324731
  0
LWPOLYLINE
  5
25D
330
17
100
AcDbEntity
  8
ROADS
100
AcDbPolyline
 90
2
 70
0
 10
621844.5171394013
 20
4832290.341324731
 10
621640.1272057972
 20
4832220.642114771
  0
LWPOLYLINE
  5
25E
330
17
100
AcDbEntity
  8
ROADS
100
AcDbPolyline
 90
2
 70
0
 10
621640.1272057972
 20
4832220.642114771
 10
621639.8437405577
 20
4832221.490029867
  0
LWPOLYLINE
  5
25F
330
17
100
AcDbEntity
  8
ROADS
100
AcDbPolyline
 90
3
 70
0
 10
622135.6288845506
 20
4832360.612610749
 10
621932.4142001168
 20
4832295.431743884
 10
621844.5171394013
 20
4832290.341324731
  0
LWPOLYLINE
  5
260
330
17
100
AcDbEntity
  8
ROADS
100
AcDbPolyline
 90
2
 70
0
 10
622003.4258596527
 20
4832433.493222489
 10
621916.0560593447
 20
4832407.026309621
  0
LWPOLYLINE
  5
261
330
17
100
AcDbEntity
  8
ROADS
100
AcDbPolyline
 90
2
 70
0
 10
622170.2356120301
 20
4832254.732962726
 10
622152.7937385918
 20
4832308.420321634
  0
LWPOLYLINE
  5
262
330
17
100
AcDbEntity
  8
ROADS
100
AcDbPolyline
 90
2
 70
0
 10
622152.7937385918
 20
4832308.420321634
 10
622135.6288845506
 20
4832360.612610749
  0
LWPOLYLINE
  5
263
330
17
100
AcDbEntity
  8
ROADS
100
AcDbPolyline
 90
2
 70
0
 10
622135.6288845506
 20
4832360.612610749
 10
622103.1388400651
 20
4832465.683446579
  0
LWPOLYLINE
  5
264
330
17
100
AcDbEntity
  8
ROADS
100
AcDbPolyline
 90
2
 70
0
 10
622103.1388400651
 20
4832465.683446579
 10
622003.4258596527
 20
4832433.493222489
  0
LWPOLYLINE
  5
265
330
17
100
AcDbEntity
  8
ROADS
100
AcDbPolyline
 90
2
 70
0
 10
622103.1388400651
 20
4832465.683446579
 10
622059.9847661041
 20
4832606.754241543
  0
LWPOLYLINE
  5
266
330
17
100
AcDbEntity
  8
ROADS
100
AcDbPolyline
 90
2
 70
0
 10
622174.8597965231
 20
4832603.285827181
 10
622176.9664368647
 20
4832559.369837468
  0
LWPOLYLINE
  5
267
330
17
100
AcDbEntity
  8
ROADS
100
AcDbPolyline
 90
2
 70
0
 10
622131.1762437567
 20
4832644.543408472
 10
622174.8597965231
 20
4832603.285827181
  0
LWPOLYLINE
  5
268
330
17
100
AcDbEntity
  8
ROADS
100
AcDbPolyline
 90
3
 70
0
 10
622059.9847661041
 20
4832606.754241543
 10
622114.4674015138
 20
4832623.240490825
 10
622131.1762437567
 20
4832644.543408472
  0
LWPOLYLINE
  5
269
330
17
100
AcDbEntity
  8
ROADS
100
AcDbPolyline
 90
3
 70
0
 10
622278.8269124347
 20
4832705.709297928
 10
622231.2480059442
 20
4832632.032090214
 10
622174.8597965231
 20
4832603.285827181
  0
LWPOLYLINE
  5
26A
330
17
100
AcDbEntity
  8
ROADS
100
AcDbPolyline
 90
2
 70
0
 10
622384.5537174059
 20
4832691.110078374
 10
622362.8629824279
 20
4832625.736033059
  0
LWPOLYLINE
  5
26B
330
17
100
AcDbEntity
  8
ROADS
100
AcDbPolyline
 90
2
 70
0
 10
623024.7803585696
 20
4832443.196639265
 10
623070.9542172096
 20
4832531.104307355
  0
LWPOLYLINE
  5
26C
330
17
100
AcDbEntity
  8
ROADS
100
AcDbPolyline
 90
2
 70
0
 10
623133.7979702969
 20
4832521.10735615
 10
623110.878822409
 20
4832489.562658631
  0
LWPOLYLINE
  5
26D
330
17
100
AcDbEntity
  8
ROADS
100
AcDbPolyline
 90
3
 70
0
 10
623070.9542172096
 20
4832531.104307355
 10
623089.7507290283
 20
4832500.744444309
 10
623133.7979702969
 20
4832521.10735615
  0
LWPOLYLINE
  5
26E
330
17
100
AcDbEntity
  8
ROADS
100
AcDbPolyline
 90
2
 70
0
 10
623147.4236219064
 20
4832510.815050743
 10
623133.7979702969
 20
4832521.10735615
  0
LWPOLYLINE
  5
26F
330
17
100
AcDbEntity
  8
ROADS
100
AcDbPolyline
 90
5
 70
0
 10
623024.7803585696
 20
4832443.196639265
 10
623003.1224050431
 20
4832502.573225219
 10
623016.1114806109
 20
4832547.321134689
 10
623005.3566548894
 20
4832577.886307723
 10
623043.7467905174
 20
4832597.62997293
  0
LWPOLYLINE
  5
270
330
17
100
AcDbEntity
  8
ROADS
100
AcDbPolyline
 90
2
 70
0
 10
623133.7979702969
 20
4832521.10735615
 10
623121.1583322943
 20
4832530.073411517
  0
LWPOLYLINE
  5
271
330
17
100
AcDbEntity
  8
ROADS
100
AcDbPolyline
 90
2
 70
0
 10
623144.0269994461
 20
4832535.688912202
 10
623133.7979702969
 20
4832521.10735615
  0
LWPOLYLINE
  5
272
330
17
100
AcDbEntity
  8
ROADS
100
AcDbPolyline
 90
2
 70
0
 10
623121.1583322943
 20
4832530.073411517
 10
623065.6348851668
 20
4832574.16432018
  0
LWPOLYLINE
  5
273
330
17
100
AcDbEntity
  8
ROADS
100
AcDbPolyline
 90
2
 70
0
 10
623180.4431597127
 20
4832581.382204155
 10
623144.0269994461
 20
4832535.688912202
  0
LWPOLYLINE
  5
274
330
17
100
AcDbEntity
  8
ROADS
100
AcDbPolyline
 90
2
 70
0
 10
623065.6348851668
 20
4832574.16432018
 10
623052.4598633513
 20
4832587.798928312
  0
LWPOLYLINE
  5
275
330
17
100
AcDbEntity
  8
ROADS
100
AcDbPolyline
 90
2
 70
0
 10
621959.5106293111
 20
4832569.328229829
 10
622003.4258596527
 20
4832433.493222489
  0
LWPOLYLINE
  5
276
330
17
100
AcDbEntity
  8
ROADS
100
AcDbPolyline
 90
2
 70
0
 10
622059.9847661041
 20
4832606.754241543
 10
622043.8249758563
 20
4832658.441612082
  0
LWPOLYLINE
  5
277
330
17
100
AcDbEntity
  8
ROADS
100
AcDbPolyline
 90
3
 70
0
 10
622131.1762437567
 20
4832644.543408472
 10
622151.5079867083
 20
4832695.413175354
 10
622212.5624509341
 20
4832731.849131975
  0
LWPOLYLINE
  5
278
330
17
100
AcDbEntity
  8
ROADS
100
AcDbPolyline
 90
2
 70
0
 10
622384.5537174059
 20
4832691.110078374
 10
622472.8635780518
 20
4832694.061965403
  0
LWPOLYLINE
  5
279
330
17
100
AcDbEntity
  8
ROADS
100
AcDbPolyline
 90
2
 70
0
 10
622278.8269124347
 20
4832705.709297928
 10
622384.5537174059
 20
4832691.110078374
  0
LWPOLYLINE
  5
27A
330
17
100
AcDbEntity
  8
ROADS
100
AcDbPolyline
 90
2
 70
0
 10
622212.5624509341
 20
4832731.849131975
 10
622278.8269124347
 20
4832705.709297928
  0
LWPOLYLINE
  5
27B
330
17
100
AcDbEntity
  8
ROADS
100
AcDbPolyline
 90
3
 70
0
 10
622136.6894142756
 20
4832758.6988802925
 10
622166.6082882448
 20
4832767.43340589
 10
622212.5624509341
 20
4832731.849131975
  0
LWPOLYLINE
  5
27C
330
17
100
AcDbEntity
  8
ROADS
100
AcDbPolyline
 90
2
 70
0
 10
622911.295023548
 20
4832918.949377239
 10
622868.2632792566
 20
4832882.959012264
  0
LWPOLYLINE
  5
27D
330
17
100
AcDbEntity
  8
ROADS
100
AcDbPolyline
 90
5
 70
0
 10
622902.8848048019
 20
4832773.783288804
 10
622870.4544302054
 20
4832783.898764023
 10
622623.2282198402
 20
4833019.875722977
 10
622594.1215263505
 20
4833085.63290272
 10
622547.3551650187
 20
4833139.972523978
  0
LWPOLYLINE
  5
27E
330
17
100
AcDbEntity
  8
ROADS
100
AcDbPolyline
 90
3
 70
0
 10
622868.2632792566
 20
4832882.959012264
 10
622830.4863545699
 20
4832971.22867361
 10
622697.1867189148
 20
4833123.96925061
  0
LWPOLYLINE
  5
27F
330
17
100
AcDbEntity
  8
ROADS
100
AcDbPolyline
 90
2
 70
0
 10
622941.4962589756
 20
4833018.406013157
 10
622859.8845912279
 20
4833100.121218385
  0
LWPOLYLINE
  5
280
330
17
100
AcDbEntity
  8
ROADS
100
AcDbPolyline
 90
3
 70
0
 10
622859.8845912279
 20
4833100.121218385
 10
622895.8903340411
 20
4833136.976685139
 10
622948.3503806025
 20
4833126.132165862
  0
LWPOLYLINE
  5
281
330
17
100
AcDbEntity
  8
ROADS
100
AcDbPolyline
 90
2
 70
0
 10
622859.8845912279
 20
4833100.121218385
 10
622749.7228948255
 20
4833169.863866602
  0
LWPOLYLINE
  5
282
330
17
100
AcDbEntity
  8
ROADS
100
AcDbPolyline
 90
2
 70
0
 10
622697.1867189148
 20
4833123.96925061
 10
622749.7228948255
 20
4833169.863866602
  0
LWPOLYLINE
  5
283
330
17
100
AcDbEntity
  8
ROADS
100
AcDbPolyline
 90
2
 70
0
 10
622697.1867189148
 20
4833123.96925061
 10
622637.3702167212
 20
4833189.874253303
  0
LWPOLYLINE
  5
284
330
17
100
AcDbEntity
  8
ROADS
100
AcDbPolyline
 90
2
 70
0
 10
622952.7258866115
 20
4833167.978293021
 10
622814.8310479692
 20
4833249.991358855
  0
LWPOLYLINE
  5
285
330
17
100
AcDbEntity
  8
ROADS
100
AcDbPolyline
 90
2
 70
0
 10
622749.7228948255
 20
4833169.863866602
 10
622724.8062357893
 20
4833227.879791314
  0
LWPOLYLINE
  5
286
330
17
100
AcDbEntity
  8
ROADS
100
AcDbPolyline
 90
2
 70
0
 10
622978.8522827426
 20
4830986.8781747855
 10
622985.6746524496
 20
4831022.913189903
  0
LWPOLYLINE
  5
287
330
17
100
AcDbEntity
  8
ROADS
100
AcDbPolyline
 90
2
 70
0
 10
623031.9678113629
 20
4830988.266761886
 10
623003.4006095481
 20
4831024.624490961
  0
LWPOLYLINE
  5
288
330
17
100
AcDbEntity
  8
ROADS
100
AcDbPolyline
 90
2
 70
0
 10
623122.3235602595
 20
4831020.191597552
 10
623113.2261966061
 20
4831002.251366738
  0
LWPOLYLINE
  5
289
330
17
100
AcDbEntity
  8
ROADS
100
AcDbPolyline
 90
2
 70
0
 10
623003.4006095481
 20
4831024.624490961
 10
622985.6746524496
 20
4831022.913189903
  0
LWPOLYLINE
  5
28A
330
17
100
AcDbEntity
  8
ROADS
100
AcDbPolyline
 90
2
 70
0
 10
623122.3235602595
 20
4831020.191597552
 10
623105.5400124447
 20
4831057.707262331
  0
LWPOLYLINE
  5
28B
330
17
100
AcDbEntity
  8
ROADS
100
AcDbPolyline
 90
3
 70
0
 10
623332.9577992607
 20
4831097.427545938
 10
623220.782517141
 20
4831083.238385098
 10
623114.5342618076
 20
4830988.57831955
  0
LWPOLYLINE
  5
28C
330
17
100
AcDbEntity
  8
ROADS
100
AcDbPolyline
 90
3
 70
0
 10
622985.6746524496
 20
4831022.913189903
 10
622981.7310041738
 20
4831068.330179748
 10
622995.370708066
 20
4831092.684778438
  0
LWPOLYLINE
  5
28D
330
17
100
AcDbEntity
  8
ROADS
100
AcDbPolyline
 90
3
 70
0
 10
623003.4006095481
 20
4831024.624490961
 10
623006.0951952979
 20
4831066.725239694
 10
623026.1435069566
 20
4831091.67264115
  0
LWPOLYLINE
  5
28E
330
17
100
AcDbEntity
  8
ROADS
100
AcDbPolyline
 90
2
 70
0
 10
623026.1435069566
 20
4831091.67264115
 10
623105.5400124447
 20
4831057.707262331
  0
LWPOLYLINE
  5
28F
330
17
100
AcDbEntity
  8
ROADS
100
AcDbPolyline
 90
4
 70
0
 10
623332.9577992607
 20
4831097.427545938
 10
623264.6994953805
 20
4831130.745120465
 10
623193.6382725318
 20
4831088.657293293
 10
623122.3235602595
 20
4831020.191597552
  0
LWPOLYLINE
  5
290
330
17
100
AcDbEntity
  8
ROADS
100
AcDbPolyline
 90
3
 70
0
 10
623352.7192419372
 20
4831100.059669819
 10
623474.7976307457
 20
4831081.890104399
 10
623491.1857018619
 20
4831098.261984215
  0
LWPOLYLINE
  5
291
330
17
100
AcDbEntity
  8
ROADS
100
AcDbPolyline
 90
2
 70
0
 10
622995.370708066
 20
4831092.684778438
 10
623026.1435069566
 20
4831091.67264115
  0
LWPOLYLINE
  5
292
330
17
100
AcDbEntity
  8
ROADS
100
AcDbPolyline
 90
2
 70
0
 10
623352.7192419372
 20
4831100.059669819
 10
623332.9577992607
 20
4831097.427545938
  0
LWPOLYLINE
  5
293
330
17
100
AcDbEntity
  8
ROADS
100
AcDbPolyline
 90
2
 70
0
 10
622906.5716685227
 20
4831123.168108767
 10
622995.370708066
 20
4831092.684778438
  0
LWPOLYLINE
  5
294
330
17
100
AcDbEntity
  8
ROADS
100
AcDbPolyline
 90
3
 70
0
 10
623388.2204313728
 20
4831119.300969833
 10
623445.8141143337
 20
4831118.870384965
 10
623491.1857018619
 20
4831098.261984215
  0
LWPOLYLINE
  5
295
330
17
100
AcDbEntity
  8
ROADS
100
AcDbPolyline
 90
2
 70
0
 10
623388.2204313728
 20
4831119.300969833
 10
623352.7192419372
 20
4831100.059669819
  0
LWPOLYLINE
  5
296
330
17
100
AcDbEntity
  8
ROADS
100
AcDbPolyline
 90
2
 70
0
 10
623105.5400124447
 20
4831057.707262331
 10
623244.3188502799
 20
4831164.269614183
  0
LWPOLYLINE
  5
297
330
17
100
AcDbEntity
  8
ROADS
100
AcDbPolyline
 90
3
 70
0
 10
623026.1435069566
 20
4831091.67264115
 10
622978.2640900621
 20
4831144.540293549
 10
622931.5501727471
 20
4831149.833655618
  0
LWPOLYLINE
  5
298
330
17
100
AcDbEntity
  8
ROADS
100
AcDbPolyline
 90
2
 70
0
 10
622931.5501727471
 20
4831149.833655618
 10
622906.5716685227
 20
4831123.168108767
  0
LWPOLYLINE
  5
299
330
17
100
AcDbEntity
  8
ROADS
100
AcDbPolyline
 90
2
 70
0
 10
623244.3188502799
 20
4831164.269614183
 10
623266.5439105823
 20
4831153.699587442
  0
LWPOLYLINE
  5
29A
330
17
100
AcDbEntity
  8
ROADS
100
AcDbPolyline
 90
2
 70
0
 10
622931.5501727471
 20
4831149.833655618
 10
622910.9652379288
 20
4831175.874057853
  0
LWPOLYLINE
  5
29B
330
17
100
AcDbEntity
  8
ROADS
100
AcDbPolyline
 90
3
 70
0
 10
623491.1857018619
 20
4831098.261984215
 10
623495.6582363474
 20
4831115.017629686
 10
623412.8282416137
 20
4831258.043508362
  0
LWPOLYLINE
  5
29C
330
17
100
AcDbEntity
  8
ROADS
100
AcDbPolyline
 90
2
 70
0
 10
623384.8485981252
 20
4831274.385863811
 10
623388.2204313728
 20
4831119.300969833
  0
LWPOLYLINE
  5
29D
330
17
100
AcDbEntity
  8
ROADS
100
AcDbPolyline
 90
3
 70
0
 10
623244.3188502799
 20
4831164.269614183
 10
623302.2272736855
 20
4831248.655972143
 10
623346.2848462665
 20
4831281.737556281
  0
LWPOLYLINE
  5
29E
330
17
100
AcDbEntity
  8
ROADS
100
AcDbPolyline
 90
2
 70
0
 10
623412.8282416137
 20
4831258.043508362
 10
623384.8485981252
 20
4831274.385863811
  0
LWPOLYLINE
  5
29F
330
17
100
AcDbEntity
  8
ROADS
100
AcDbPolyline
 90
3
 70
0
 10
623346.2848462665
 20
4831281.737556281
 10
623365.3664963867
 20
4831288.95064061
 10
623384.8485981252
 20
4831274.385863811
  0
LWPOLYLINE
  5
2A0
330
17
100
AcDbEntity
  8
ROADS
100
AcDbPolyline
 90
5
 70
0
 10
623412.8282416137
 20
4831258.043508362
 10
623400.0504831906
 20
4831341.79989163
 10
623376.70530807
 20
4831370.915607854
 10
623305.9804376792
 20
4831351.282917396
 10
623346.2848462665
 20
4831281.737556281
  0
LWPOLYLINE
  5
2A1
330
17
100
AcDbEntity
  8
ROADS
100
AcDbPolyline
 90
2
 70
0
 10
622900.2785543789
 20
4831423.507108751
 10
622950.9338140299
 20
4831613.264559261
  0
LWPOLYLINE
  5
2A2
330
17
100
AcDbEntity
  8
ROADS
100
AcDbPolyline
 90
2
 70
0
 10
622950.9338140299
 20
4831613.264559261
 10
622974.9853018835
 20
4831652.158999524
  0
LWPOLYLINE
  5
2A3
330
17
100
AcDbEntity
  8
ROADS
100
AcDbPolyline
 90
2
 70
0
 10
622950.9338140299
 20
4831613.264559261
 10
622952.58964067
 20
4831661.156824675
  0
LWPOLYLINE
  5
2A4
330
17
100
AcDbEntity
  8
ROADS
100
AcDbPolyline
 90
3
 70
0
 10
623100.778948073
 20
4831889.804447678
 10
623126.8152315802
 20
4831905.191619742
 10
623157.7829944328
 20
4831898.924817602
  0
LWPOLYLINE
  5
2A5
330
17
100
AcDbEntity
  8
ROADS
100
AcDbPolyline
 90
3
 70
0
 10
623173.4911325241
 20
4831887.780069311
 10
623209.1177247668
 20
4831884.524587681
 10
623222.4639926929
 20
4831931.371057406
  0
LWPOLYLINE
  5
2A6
330
17
100
AcDbEntity
  8
ROADS
100
AcDbPolyline
 90
2
 70
0
 10
623065.3430148816
 20
4831916.5475330455
 10
623071.1803263687
 20
4831901.436251641
  0
LWPOLYLINE
  5
2A7
330
17
100
AcDbEntity
  8
ROADS
100
AcDbPolyline
 90
2
 70
0
 10
623176.4803148448
 20
4831904.742420069
 10
623197.7019024341
 20
4831915.42287258
  0
LWPOLYLINE
  5
2A8
330
17
100
AcDbEntity
  8
ROADS
100
AcDbPolyline
 90
3
 70
0
 10
623176.4803148448
 20
4831904.742420069
 10
623205.5825947927
 20
4831899.8534810245
 10
623207.604401119
 20
4831931.971610924
  0
LWPOLYLINE
  5
2A9
330
17
100
AcDbEntity
  8
ROADS
100
AcDbPolyline
 90
3
 70
0
 10
623071.1803263687
 20
4831901.436251641
 10
623126.4893673621
 20
4831930.920008475
 10
623176.4803148448
 20
4831904.742420069
  0
LWPOLYLINE
  5
2AA
330
17
100
AcDbEntity
  8
ROADS
100
AcDbPolyline
 90
2
 70
0
 10
623197.7019024341
 20
4831915.42287258
 10
623181.4942578685
 20
4831923.937464652
  0
LWPOLYLINE
  5
2AB
330
17
100
AcDbEntity
  8
ROADS
100
AcDbPolyline
 90
2
 70
0
 10
623197.7019024341
 20
4831915.42287258
 10
623207.604401119
 20
4831931.971610924
  0
LWPOLYLINE
  5
2AC
330
17
100
AcDbEntity
  8
ROADS
100
AcDbPolyline
 90
2
 70
0
 10
623181.4942578685
 20
4831923.937464652
 10
623207.604401119
 20
4831931.971610924
  0
LWPOLYLINE
  5
2AD
330
17
100
AcDbEntity
  8
ROADS
100
AcDbPolyline
 90
2
 70
0
 10
623207.604401119
 20
4831931.971610924
 10
623222.4639926929
 20
4831931.371057406
  0
LWPOLYLINE
  5
2AE
330
17
100
AcDbEntity
  8
ROADS
100
AcDbPolyline
 90
2
 70
0
 10
623062.7147481776
 20
4832157.313946004
 10
622977.2975991268
 20
4832048.333750353
  0
LWPOLYLINE
  5
2AF
330
17
100
AcDbEntity
  8
ROADS
100
AcDbPolyline
 90
2
 70
0
 10
623348.3437083153
 20
4832168.841333416
 10
623292.810064945
 20
4832074.468208382
  0
LWPOLYLINE
  5
2B0
330
17
100
AcDbEntity
  8
ROADS
100
AcDbPolyline
 90
2
 70
0
 10
623168.755886486
 20
4832180.4550726125
 10
623292.810064945
 20
4832074.468208382
  0
LWPOLYLINE
  5
2B1
330
17
100
AcDbEntity
  8
ROADS
100
AcDbPolyline
 90
2
 70
0
 10
623062.7147481776
 20
4832157.313946004
 10
623096.5869519335
 20
4832166.195396655
  0
LWPOLYLINE
  5
2B2
330
17
100
AcDbEntity
  8
ROADS
100
AcDbPolyline
 90
3
 70
0
 10
623168.755886486
 20
4832180.4550726125
 10
623114.1257322127
 20
4832148.932435882
 10
623096.5869519335
 20
4832166.195396655
  0
LWPOLYLINE
  5
2B3
330
17
100
AcDbEntity
  8
ROADS
100
AcDbPolyline
 90
2
 70
0
 10
623134.2942157722
 20
4832211.971973585
 10
623062.7147481776
 20
4832157.313946004
  0
LWPOLYLINE
  5
2B4
330
17
100
AcDbEntity
  8
ROADS
100
AcDbPolyline
 90
2
 70
0
 10
623096.5869519335
 20
4832166.195396655
 10
623134.2942157722
 20
4832211.971973585
  0
LWPOLYLINE
  5
2B5
330
17
100
AcDbEntity
  8
ROADS
100
AcDbPolyline
 90
3
 70
0
 10
623348.3437083153
 20
4832168.841333416
 10
623373.7146305323
 20
4832165.761586485
 10
623435.1146653836
 20
4832216.461539252
  0
LWPOLYLINE
  5
2B6
330
17
100
AcDbEntity
  8
ROADS
100
AcDbPolyline
 90
2
 70
0
 10
623348.3437083153
 20
4832168.841333416
 10
623313.6189176998
 20
4832216.164291722
  0
LWPOLYLINE
  5
2B7
330
17
100
AcDbEntity
  8
ROADS
100
AcDbPolyline
 90
3
 70
0
 10
623435.1146653836
 20
4832216.461539252
 10
623378.7078981237
 20
4832197.584408968
 10
623348.3437083153
 20
4832168.841333416
  0
LWPOLYLINE
  5
2B8
330
17
100
AcDbEntity
  8
ROADS
100
AcDbPolyline
 90
4
 70
0
 10
623494.0463334199
 20
4832348.102516076
 10
623452.8179341375
 20
4832242.231712568
 10
623376.926587279
 20
4832208.997798509
 10
623348.3437083153
 20
4832168.841333416
  0
LWPOLYLINE
  5
2B9
330
17
100
AcDbEntity
  8
ROADS
100
AcDbPolyline
 90
2
 70
0
 10
623242.4725718028
 20
4832262.476105568
 10
623255.5504893116
 20
4832256.539607493
  0
LWPOLYLINE
  5
2BA
330
17
100
AcDbEntity
  8
ROADS
100
AcDbPolyline
 90
2
 70
0
 10
623053.0750592975
 20
4832270.28535497
 10
623078.4335950414
 20
4832248.961992251
  0
LWPOLYLINE
  5
2BB
330
17
100
AcDbEntity
  8
ROADS
100
AcDbPolyline
 90
2
 70
0
 10
623225.9425444321
 20
4832257.174167517
 10
623242.4725718028
 20
4832262.476105568
  0
LWPOLYLINE
  5
2BC
330
17
100
AcDbEntity
  8
ROADS
100
AcDbPolyline
 90
2
 70
0
 10
623225.9425444321
 20
4832257.174167517
 10
623209.6597325397
 20
4832266.610431783
  0
LWPOLYLINE
  5
2BD
330
17
100
AcDbEntity
  8
ROADS
100
AcDbPolyline
 90
2
 70
0
 10
623255.5504893116
 20
4832256.539607493
 10
623260.0494706883
 20
4832269.06102375
  0
LWPOLYLINE
  5
2BE
330
17
100
AcDbEntity
  8
ROADS
100
AcDbPolyline
 90
2
 70
0
 10
622969.5890776116
 20
4832280.129366591
 10
622947.0871501268
 20
4832247.964209244
  0
LWPOLYLINE
  5
2BF
330
17
100
AcDbEntity
  8
ROADS
100
AcDbPolyline
 90
2
 70
0
 10
623242.4725718028
 20
4832262.476105568
 10
623260.0494706883
 20
4832269.06102375
  0
LWPOLYLINE
  5
2C0
330
17
100
AcDbEntity
  8
ROADS
100
AcDbPolyline
 90
2
 70
0
 10
622969.5890776116
 20
4832280.129366591
 10
622982.2981696215
 20
4832266.101311989
  0
LWPOLYLINE
  5
2C1
330
17
100
AcDbEntity
  8
ROADS
100
AcDbPolyline
 90
3
 70
0
 10
622982.2981696215
 20
4832266.101311989
 10
623036.3541455518
 20
4832285.3439752385
 10
623053.0750592975
 20
4832270.28535497
  0
LWPOLYLINE
  5
2C2
330
17
100
AcDbEntity
  8
ROADS
100
AcDbPolyline
 90
2
 70
0
 10
622954.6611234376
 20
4832284.845870981
 10
622969.5890776116
 20
4832280.129366591
  0
LWPOLYLINE
  5
2C3
330
17
100
AcDbEntity
  8
ROADS
100
AcDbPolyline
 90
2
 70
0
 10
623209.6597325397
 20
4832266.610431783
 10
623138.327740805
 20
4832301.308289233
  0
LWPOLYLINE
  5
2C4
330
17
100
AcDbEntity
  8
ROADS
100
AcDbPolyline
 90
2
 70
0
 10
622923.9581571431
 20
4832283.543046968
 10
622954.6611234376
 20
4832284.845870981
  0
LWPOLYLINE
  5
2C5
330
17
100
AcDbEntity
  8
ROADS
100
AcDbPolyline
 90
2
 70
0
 10
622968.1213211976
 20
4832290.627362297
 10
622969.5890776116
 20
4832280.129366591
  0
LWPOLYLINE
  5
2C6
330
17
100
AcDbEntity
  8
ROADS
100
AcDbPolyline
 90
2
 70
0
 10
622968.1213211976
 20
4832290.627362297
 10
622954.6611234376
 20
4832284.845870981
  0
LWPOLYLINE
  5
2C7
330
17
100
AcDbEntity
  8
ROADS
100
AcDbPolyline
 90
4
 70
0
 10
623494.0463334199
 20
4832348.102516076
 10
623397.344996994
 20
4832281.589386587
 10
623316.2899248818
 20
4832299.6867444115
 10
623260.0494706883
 20
4832269.06102375
  0
LWPOLYLINE
  5
2C8
330
17
100
AcDbEntity
  8
ROADS
100
AcDbPolyline
 90
4
 70
0
 10
623209.6597325397
 20
4832266.610431783
 10
623314.2000440632
 20
4832315.004751842
 10
623462.4206095234
 20
4832356.396997882
 10
623494.0463334199
 20
4832348.102516076
  0
LWPOLYLINE
  5
2C9
330
17
100
AcDbEntity
  8
ROADS
100
AcDbPolyline
 90
2
 70
0
 10
623138.327740805
 20
4832301.308289233
 10
623157.6890304959
 20
4832330.124554433
  0
LWPOLYLINE
  5
2CA
330
17
100
AcDbEntity
  8
ROADS
100
AcDbPolyline
 90
2
 70
0
 10
623053.4749185992
 20
4832408.156392141
 10
622968.1213211976
 20
4832290.627362297
  0
LWPOLYLINE
  5
2CB
330
17
100
AcDbEntity
  8
ROADS
100
AcDbPolyline
 90
2
 70
0
 10
623157.6890304959
 20
4832330.124554433
 10
623243.8194200235
 20
4832393.155972084
  0
LWPOLYLINE
  5
2CC
330
17
100
AcDbEntity
  8
ROADS
100
AcDbPolyline
 90
2
 70
0
 10
623435.1146653836
 20
4832216.461539252
 10
623525.880486753
 20
4832340.642841182
  0
LWPOLYLINE
  5
2CD
330
17
100
AcDbEntity
  8
ROADS
100
AcDbPolyline
 90
2
 70
0
 10
623494.0463334199
 20
4832348.102516076
 10
623525.880486753
 20
4832340.642841182
  0
LWPOLYLINE
  5
2CE
330
17
100
AcDbEntity
  8
ROADS
100
AcDbPolyline
 90
2
 70
0
 10
623525.880486753
 20
4832340.642841182
 10
623535.4153060629
 20
4832356.268251287
  0
LWPOLYLINE
  5
2CF
330
17
100
AcDbEntity
  8
ROADS
100
AcDbPolyline
 90
2
 70
0
 10
623494.0463334199
 20
4832348.102516076
 10
623520.556317785
 20
4832371.685217108
  0
LWPOLYLINE
  5
2D0
330
17
100
AcDbEntity
  8
ROADS
100
AcDbPolyline
 90
2
 70
0
 10
623535.4153060629
 20
4832356.268251287
 10
623520.556317785
 20
4832371.685217108
  0
LWPOLYLINE
  5
2D1
330
17
100
AcDbEntity
  8
ROADS
100
AcDbPolyline
 90
2
 70
0
 10
623535.4153060629
 20
4832356.268251287
 10
623613.0913931122
 20
4832410.793216429
  0
LWPOLYLINE
  5
2D2
330
17
100
AcDbEntity
  8
ROADS
100
AcDbPolyline
 90
2
 70
0
 10
623520.556317785
 20
4832371.685217108
 10
623596.5570264434
 20
4832431.02249
  0
LWPOLYLINE
  5
2D3
330
17
100
AcDbEntity
  8
ROADS
100
AcDbPolyline
 90
2
 70
0
 10
623596.5570264434
 20
4832431.02249
 10
623613.0913931122
 20
4832410.793216429
  0
LWPOLYLINE
  5
2D4
330
17
100
AcDbEntity
  8
ROADS
100
AcDbPolyline
 90
2
 70
0
 10
623613.0913931122
 20
4832410.793216429
 10
623755.9168192687
 20
4832477.97438265
  0
LWPOLYLINE
  5
2D5
330
17
100
AcDbEntity
  8
ROADS
100
AcDbPolyline
 90
2
 70
0
 10
623596.5570264434
 20
4832431.02249
 10
623569.9282784519
 20
4832461.81490366
  0
LWPOLYLINE
  5
2D6
330
17
100
AcDbEntity
  8
ROADS
100
AcDbPolyline
 90
3
 70
0
 10
623569.9282784519
 20
4832461.81490366
 10
623437.2360782991
 20
4832363.827319183
 10
623209.6597325397
 20
4832266.610431783
  0
LWPOLYLINE
  5
2D7
330
17
100
AcDbEntity
  8
ROADS
100
AcDbPolyline
 90
4
 70
0
 10
623551.2612464356
 20
4832487.885933984
 10
623408.1751899088
 20
4832377.90793364
 10
623200.0805622448
 20
4832341.170066547
 10
623138.327740805
 20
4832301.308289233
  0
LWPOLYLINE
  5
2D8
330
17
100
AcDbEntity
  8
ROADS
100
AcDbPolyline
 90
2
 70
0
 10
623243.8194200235
 20
4832393.155972084
 10
623233.3342861553
 20
4832415.161116175
  0
LWPOLYLINE
  5
2D9
330
17
100
AcDbEntity
  8
ROADS
100
AcDbPolyline
 90
3
 70
0
 10
623196.638654565
 20
4832441.8255587695
 10
623064.9635357634
 20
4832400.571604649
 10
623053.4749185992
 20
4832408.156392141
  0
LWPOLYLINE
  5
2DA
330
17
100
AcDbEntity
  8
ROADS
100
AcDbPolyline
 90
2
 70
0
 10
623074.2611176404
 20
4832437.810944713
 10
623053.4749185992
 20
4832408.156392141
  0
LWPOLYLINE
  5
2DB
330
17
100
AcDbEntity
  8
ROADS
100
AcDbPolyline
 90
2
 70
0
 10
623053.4749185992
 20
4832408.156392141
 10
623024.7803585696
 20
4832443.196639265
  0
LWPOLYLINE
  5
2DC
330
17
100
AcDbEntity
  8
ROADS
100
AcDbPolyline
 90
2
 70
0
 10
623233.3342861553
 20
4832415.161116175
 10
623196.638654565
 20
4832441.8255587695
  0
LWPOLYLINE
  5
2DD
330
17
100
AcDbEntity
  8
ROADS
100
AcDbPolyline
 90
5
 70
0
 10
623551.2612464356
 20
4832487.885933984
 10
623541.2091518214
 20
4832494.282626179
 10
623391.3506547437
 20
4832385.251303549
 10
623294.2038607803
 20
4832368.311119163
 10
623243.8194200235
 20
4832393.155972084
  0
LWPOLYLINE
  5
2DE
330
17
100
AcDbEntity
  8
ROADS
100
AcDbPolyline
 90
2
 70
0
 10
623110.878822409
 20
4832489.562658631
 10
623074.2611176404
 20
4832437.810944713
  0
LWPOLYLINE
  5
2DF
330
17
100
AcDbEntity
  8
ROADS
100
AcDbPolyline
 90
4
 70
0
 10
623147.4236219064
 20
4832510.815050743
 10
623183.887820212
 20
4832483.952594535
 10
623179.3004490448
 20
4832456.012313217
 10
623196.638654565
 20
4832441.8255587695
  0
LWPOLYLINE
  5
2E0
330
17
100
AcDbEntity
  8
ROADS
100
AcDbPolyline
 90
2
 70
0
 10
623581.2505441767
 20
4832470.022905435
 10
623569.9282784519
 20
4832461.81490366
  0
LWPOLYLINE
  5
2E1
330
17
100
AcDbEntity
  8
ROADS
100
AcDbPolyline
 90
3
 70
0
 10
623596.5570264434
 20
4832431.02249
 10
623694.8341725476
 20
4832485.861075907
 10
623712.5149671147
 20
4832515.6970862895
  0
LWPOLYLINE
  5
2E2
330
17
100
AcDbEntity
  8
ROADS
100
AcDbPolyline
 90
2
 70
0
 10
623569.9282784519
 20
4832461.81490366
 10
623551.2612464356
 20
4832487.885933984
  0
LWPOLYLINE
  5
2E3
330
17
100
AcDbEntity
  8
ROADS
100
AcDbPolyline
 90
2
 70
0
 10
623755.9168192687
 20
4832477.97438265
 10
623764.5263548567
 20
4832486.132370047
  0
LWPOLYLINE
  5
2E4
330
17
100
AcDbEntity
  8
ROADS
100
AcDbPolyline
 90
2
 70
0
 10
623581.2505441767
 20
4832470.022905435
 10
623562.9095612438
 20
4832496.866867031
  0
LWPOLYLINE
  5
2E5
330
17
100
AcDbEntity
  8
ROADS
100
AcDbPolyline
 90
2
 70
0
 10
623755.9168192687
 20
4832477.97438265
 10
623750.5353247051
 20
4832489.497737
  0
LWPOLYLINE
  5
2E6
330
17
100
AcDbEntity
  8
ROADS
100
AcDbPolyline
 90
2
 70
0
 10
623764.5263548567
 20
4832486.132370047
 10
623750.5353247051
 20
4832489.497737
  0
LWPOLYLINE
  5
2E7
330
17
100
AcDbEntity
  8
ROADS
100
AcDbPolyline
 90
2
 70
0
 10
623764.5263548567
 20
4832486.132370047
 10
623780.6428488751
 20
4832496.417112293
  0
LWPOLYLINE
  5
2E8
330
17
100
AcDbEntity
  8
ROADS
100
AcDbPolyline
 90
2
 70
0
 10
623562.9095612438
 20
4832496.866867031
 10
623551.2612464356
 20
4832487.885933984
  0
LWPOLYLINE
  5
2E9
330
17
100
AcDbEntity
  8
ROADS
100
AcDbPolyline
 90
2
 70
0
 10
623764.5263548567
 20
4832486.132370047
 10
623764.822815089
 20
4832499.860434339
  0
LWPOLYLINE
  5
2EA
330
17
100
AcDbEntity
  8
ROADS
100
AcDbPolyline
 90
2
 70
0
 10
623750.5353247051
 20
4832489.497737
 10
623752.2696917322
 20
4832500.993667625
  0
LWPOLYLINE
  5
2EB
330
17
100
AcDbEntity
  8
ROADS
100
AcDbPolyline
 90
2
 70
0
 10
623780.6428488751
 20
4832496.417112293
 10
623764.822815089
 20
4832499.860434339
  0
LWPOLYLINE
  5
2EC
330
17
100
AcDbEntity
  8
ROADS
100
AcDbPolyline
 90
2
 70
0
 10
623764.822815089
 20
4832499.860434339
 10
623752.2696917322
 20
4832500.993667625
  0
LWPOLYLINE
  5
2ED
330
17
100
AcDbEntity
  8
ROADS
100
AcDbPolyline
 90
2
 70
0
 10
623780.6428488751
 20
4832496.417112293
 10
623809.8793421192
 20
4832519.606590619
  0
LWPOLYLINE
  5
2EE
330
17
100
AcDbEntity
  8
ROADS
100
AcDbPolyline
 90
2
 70
0
 10
623752.2696917322
 20
4832500.993667625
 10
623712.5149671147
 20
4832515.6970862895
  0
LWPOLYLINE
  5
2EF
330
17
100
AcDbEntity
  8
ROADS
100
AcDbPolyline
 90
2
 70
0
 10
623793.4156486865
 20
4832594.641977381
 10
623581.2505441767
 20
4832470.022905435
  0
LWPOLYLINE
  5
2F0
330
17
100
AcDbEntity
  8
ROADS
100
AcDbPolyline
 90
2
 70
0
 10
623562.9095612438
 20
4832496.866867031
 10
623505.2940928341
 20
4832587.547404148
  0
LWPOLYLINE
  5
2F1
330
17
100
AcDbEntity
  8
ROADS
100
AcDbPolyline
 90
3
 70
0
 10
623712.5149671147
 20
4832515.6970862895
 10
623722.1153514897
 20
4832542.98696117
 10
623800.2280353304
 20
4832582.077424849
  0
LWPOLYLINE
  5
2F2
330
17
100
AcDbEntity
  8
ROADS
100
AcDbPolyline
 90
2
 70
0
 10
623809.8793421192
 20
4832519.606590619
 10
623800.2280353304
 20
4832582.077424849
  0
LWPOLYLINE
  5
2F3
330
17
100
AcDbEntity
  8
ROADS
100
AcDbPolyline
 90
2
 70
0
 10
623790.5213086596
 20
4832629.462475529
 10
623562.9095612438
 20
4832496.866867031
  0
LWPOLYLINE
  5
2F4
330
17
100
AcDbEntity
  8
ROADS
100
AcDbPolyline
 90
2
 70
0
 10
623809.8793421192
 20
4832519.606590619
 10
624000.6296343177
 20
4832607.468898381
  0
LWPOLYLINE
  5
2F5
330
17
100
AcDbEntity
  8
ROADS
100
AcDbPolyline
 90
2
 70
0
 10
624000.6296343177
 20
4832607.468898381
 10
623992.8279894607
 20
4832623.143744953
  0
LWPOLYLINE
  5
2F6
330
17
100
AcDbEntity
  8
ROADS
100
AcDbPolyline
 90
2
 70
0
 10
624000.6296343177
 20
4832607.468898381
 10
624136.7091026866
 20
4832672.698223243
  0
LWPOLYLINE
  5
2F7
330
17
100
AcDbEntity
  8
ROADS
100
AcDbPolyline
 90
2
 70
0
 10
623992.8279894607
 20
4832623.143744953
 10
623960.5709419469
 20
4832661.2388597615
  0
LWPOLYLINE
  5
2F8
330
17
100
AcDbEntity
  8
ROADS
100
AcDbPolyline
 90
3
 70
0
 10
623907.1834654625
 20
4832654.359807349
 10
623934.8529776382
 20
4832640.465062962
 10
623960.5709419469
 20
4832661.2388597615
  0
LWPOLYLINE
  5
2F9
330
17
100
AcDbEntity
  8
ROADS
100
AcDbPolyline
 90
2
 70
0
 10
623992.8279894607
 20
4832623.143744953
 10
624130.7697547216
 20
4832688.361725411
  0
LWPOLYLINE
  5
2FA
330
17
100
AcDbEntity
  8
ROADS
100
AcDbPolyline
 90
2
 70
0
 10
624136.7091026866
 20
4832672.698223243
 10
624130.7697547216
 20
4832688.361725411
  0
LWPOLYLINE
  5
2FB
330
17
100
AcDbEntity
  8
ROADS
100
AcDbPolyline
 90
2
 70
0
 10
623960.5709419469
 20
4832661.2388597615
 10
624043.4481605032
 20
4832714.981239552
  0
LWPOLYLINE
  5
2FC
330
17
100
AcDbEntity
  8
ROADS
100
AcDbPolyline
 90
2
 70
0
 10
624057.6323547624
 20
4832679.31667618
 10
624043.4481605032
 20
4832714.981239552
  0
LWPOLYLINE
  5
2FD
330
17
100
AcDbEntity
  8
ROADS
100
AcDbPolyline
 90
2
 70
0
 10
624136.7091026866
 20
4832672.698223243
 10
624142.3254244953
 20
4832674.357145866
  0
LWPOLYLINE
  5
2FE
330
17
100
AcDbEntity
  8
ROADS
100
AcDbPolyline
 90
2
 70
0
 10
623052.4598633513
 20
4832587.798928312
 10
623043.7467905174
 20
4832597.62997293
  0
LWPOLYLINE
  5
2FF
330
17
100
AcDbEntity
  8
ROADS
100
AcDbPolyline
 90
2
 70
0
 10
623043.7467905174
 20
4832597.62997293
 10
623018.9072938719
 20
4832629.521707538
  0
LWPOLYLINE
  5
300
330
17
100
AcDbEntity
  8
ROADS
100
AcDbPolyline
 90
3
 70
0
 10
623333.4214815543
 20
4832691.197962646
 10
623251.9966241976
 20
4832645.08632465
 10
623180.4431597127
 20
4832581.382204155
  0
LWPOLYLINE
  5
301
330
17
100
AcDbEntity
  8
ROADS
100
AcDbPolyline
 90
2
 70
0
 10
623018.9072938719
 20
4832629.521707538
 10
622987.5886171125
 20
4832661.516365442
  0
LWPOLYLINE
  5
302
330
17
100
AcDbEntity
  8
ROADS
100
AcDbPolyline
 90
2
 70
0
 10
623505.2940928341
 20
4832587.547404148
 10
623418.1290567968
 20
4832718.297980891
  0
LWPOLYLINE
  5
303
330
17
100
AcDbEntity
  8
ROADS
100
AcDbPolyline
 90
2
 70
0
 10
623418.1290567968
 20
4832718.297980891
 10
623333.4214815543
 20
4832691.197962646
  0
LWPOLYLINE
  5
304
330
17
100
AcDbEntity
  8
ROADS
100
AcDbPolyline
 90
2
 70
0
 10
622987.5886171125
 20
4832661.516365442
 10
622902.8848048019
 20
4832773.783288804
  0
LWPOLYLINE
  5
305
330
17
100
AcDbEntity
  8
ROADS
100
AcDbPolyline
 90
2
 70
0
 10
623496.7993047064
 20
4832733.059291985
 10
623418.1290567968
 20
4832718.297980891
  0
LWPOLYLINE
  5
306
330
17
100
AcDbEntity
  8
ROADS
100
AcDbPolyline
 90
2
 70
0
 10
623333.4214815543
 20
4832691.197962646
 10
623263.2435781154
 20
4832783.582485811
  0
LWPOLYLINE
  5
307
330
17
100
AcDbEntity
  8
ROADS
100
AcDbPolyline
 90
2
 70
0
 10
623418.1290567968
 20
4832718.297980891
 10
623359.9657079927
 20
4832789.876079509
  0
LWPOLYLINE
  5
308
330
17
100
AcDbEntity
  8
ROADS
100
AcDbPolyline
 90
2
 70
0
 10
623800.2280353304
 20
4832582.077424849
 10
623793.4156486865
 20
4832594.641977381
  0
LWPOLYLINE
  5
309
330
17
100
AcDbEntity
  8
ROADS
100
AcDbPolyline
 90
2
 70
0
 10
623806.3049599534
 20
4832600.749196251
 10
623793.4156486865
 20
4832594.641977381
  0
LWPOLYLINE
  5
30A
330
17
100
AcDbEntity
  8
ROADS
100
AcDbPolyline
 90
3
 70
0
 10
623800.2280353304
 20
4832582.077424849
 10
623883.9979100133
 20
4832619.016017793
 10
623992.8279894607
 20
4832623.143744953
  0
LWPOLYLINE
  5
30B
330
17
100
AcDbEntity
  8
ROADS
100
AcDbPolyline
 90
2
 70
0
 10
623806.3049599534
 20
4832600.749196251
 10
623790.5213086596
 20
4832629.462475529
  0
LWPOLYLINE
  5
30C
330
17
100
AcDbEntity
  8
ROADS
100
AcDbPolyline
 90
2
 70
0
 10
623907.1834654625
 20
4832654.359807349
 10
623806.3049599534
 20
4832600.749196251
  0
LWPOLYLINE
  5
30D
330
17
100
AcDbEntity
  8
ROADS
100
AcDbPolyline
 90
2
 70
0
 10
623790.5213086596
 20
4832629.462475529
 10
623733.4699733485
 20
4832727.4381218385
  0
LWPOLYLINE
  5
30E
330
17
100
AcDbEntity
  8
ROADS
100
AcDbPolyline
 90
2
 70
0
 10
623543.0949378686
 20
4832742.396325575
 10
623496.7993047064
 20
4832733.059291985
  0
LWPOLYLINE
  5
30F
330
17
100
AcDbEntity
  8
ROADS
100
AcDbPolyline
 90
2
 70
0
 10
623733.4699733485
 20
4832727.4381218385
 10
623697.120870516
 20
4832784.617733497
  0
LWPOLYLINE
  5
310
330
17
100
AcDbEntity
  8
ROADS
100
AcDbPolyline
 90
2
 70
0
 10
623697.120870516
 20
4832784.617733497
 10
623543.0949378686
 20
4832742.396325575
  0
LWPOLYLINE
  5
311
330
17
100
AcDbEntity
  8
ROADS
100
AcDbPolyline
 90
2
 70
0
 10
623543.0949378686
 20
4832742.396325575
 10
623510.9967806363
 20
4832843.088928353
  0
LWPOLYLINE
  5
312
330
17
100
AcDbEntity
  8
ROADS
100
AcDbPolyline
 90
3
 70
0
 10
624087.4057610859
 20
4832748.896933908
 10
624035.465545692
 20
4832742.164418146
 10
623907.1834654625
 20
4832654.359807349
  0
LWPOLYLINE
  5
313
330
17
100
AcDbEntity
  8
ROADS
100
AcDbPolyline
 90
2
 70
0
 10
624130.7697547216
 20
4832688.361725411
 10
624127.7227020699
 20
4832695.736359713
  0
LWPOLYLINE
  5
314
330
17
100
AcDbEntity
  8
ROADS
100
AcDbPolyline
 90
2
 70
0
 10
624043.4481605032
 20
4832714.981239552
 10
624102.4388895945
 20
4832729.074751868
  0
LWPOLYLINE
  5
315
330
17
100
AcDbEntity
  8
ROADS
100
AcDbPolyline
 90
4
 70
0
 10
624066.2693510238
 20
4832774.397614523
 10
624029.6343454838
 20
4832769.773493838
 10
623877.7354445453
 20
4832668.886445078
 10
623790.5213086596
 20
4832629.462475529
  0
LWPOLYLINE
  5
316
330
17
100
AcDbEntity
  8
ROADS
100
AcDbPolyline
 90
2
 70
0
 10
624130.7697547216
 20
4832688.361725411
 10
624132.8972320273
 20
4832688.913397033
  0
LWPOLYLINE
  5
317
330
17
100
AcDbEntity
  8
ROADS
100
AcDbPolyline
 90
2
 70
0
 10
623957.6611342182
 20
4832891.266355212
 10
623697.120870516
 20
4832784.617733497
  0
LWPOLYLINE
  5
318
330
17
100
AcDbEntity
  8
ROADS
100
AcDbPolyline
 90
4
 70
0
 10
622987.5886171125
 20
4832661.516365442
 10
623037.5179321463
 20
4832692.29409473
 10
623041.3600087962
 20
4832709.843387208
 10
622911.295023548
 20
4832918.949377239
  0
LWPOLYLINE
  5
319
330
17
100
AcDbEntity
  8
ROADS
100
AcDbPolyline
 90
2
 70
0
 10
623327.171906028
 20
4832831.500083856
 10
623263.2435781154
 20
4832783.582485811
  0
LWPOLYLINE
  5
31A
330
17
100
AcDbEntity
  8
ROADS
100
AcDbPolyline
 90
2
 70
0
 10
623359.9657079927
 20
4832789.876079509
 10
623327.171906028
 20
4832831.500083856
  0
LWPOLYLINE
  5
31B
330
17
100
AcDbEntity
  8
ROADS
100
AcDbPolyline
 90
7
 70
0
 10
623496.7993047064
 20
4832733.059291985
 10
623453.1360792462
 20
4832856.689559549
 10
623365.8242824709
 20
4832963.681198853
 10
623317.1377417298
 20
4832951.179775108
 10
623305.3273531348
 20
4832934.179501241
 10
623389.8263009719
 20
4832823.683868483
 10
623359.9657079927
 20
4832789.876079509
  0
LWPOLYLINE
  5
31C
330
17
100
AcDbEntity
  8
ROADS
100
AcDbPolyline
 90
4
 70
0
 10
623263.2435781154
 20
4832783.582485811
 10
623071.276264549
 20
4833002.822469969
 10
623034.9353860294
 20
4833015.499389206
 10
622973.7655006424
 20
4832974.707993887
  0
LWPOLYLINE
  5
31D
330
17
100
AcDbEntity
  8
ROADS
100
AcDbPolyline
 90
2
 70
0
 10
622973.7655006424
 20
4832974.707993887
 10
622911.295023548
 20
4832918.949377239
  0
LWPOLYLINE
  5
31E
330
17
100
AcDbEntity
  8
ROADS
100
AcDbPolyline
 90
2
 70
0
 10
623327.171906028
 20
4832831.500083856
 10
623122.2814902713
 20
4833080.312019993
  0
LWPOLYLINE
  5
31F
330
17
100
AcDbEntity
  8
ROADS
100
AcDbPolyline
 90
2
 70
0
 10
622973.7655006424
 20
4832974.707993887
 10
622941.4962589756
 20
4833018.406013157
  0
LWPOLYLINE
  5
320
330
17
100
AcDbEntity
  8
ROADS
100
AcDbPolyline
 90
5
 70
0
 10
623510.9967806363
 20
4832843.088928353
 10
623385.4604475434
 20
4833012.756511441
 10
623303.8847892156
 20
4833040.234756261
 10
623206.1715334486
 20
4833110.86551948
 10
623034.4551284049
 20
4833190.65436219
  0
LWPOLYLINE
  5
321
330
17
100
AcDbEntity
  8
ROADS
100
AcDbPolyline
 90
3
 70
0
 10
622941.4962589756
 20
4833018.406013157
 10
622982.2606270424
 20
4833067.249062704
 10
622948.3503806025
 20
4833126.132165862
  0
LWPOLYLINE
  5
322
330
17
100
AcDbEntity
  8
ROADS
100
AcDbPolyline
 90
2
 70
0
 10
623697.120870516
 20
4832784.617733497
 10
623637.9721785391
 20
4832884.321015161
  0
LWPOLYLINE
  5
323
330
17
100
AcDbEntity
  8
ROADS
100
AcDbPolyline
 90
2
 70
0
 10
623637.9721785391
 20
4832884.321015161
 10
623510.9967806363
 20
4832843.088928353
  0
LWPOLYLINE
  5
324
330
17
100
AcDbEntity
  8
ROADS
100
AcDbPolyline
 90
3
 70
0
 10
623697.120870516
 20
4832784.617733497
 10
623698.269270708
 20
4832808.007686331
 10
623937.2928948578
 20
4832912.17946379
  0
LWPOLYLINE
  5
325
330
17
100
AcDbEntity
  8
ROADS
100
AcDbPolyline
 90
2
 70
0
 10
623637.9721785391
 20
4832884.321015161
 10
623477.3882201045
 20
4833071.24168174
  0
LWPOLYLINE
  5
326
330
17
100
AcDbEntity
  8
ROADS
100
AcDbPolyline
 90
2
 70
0
 10
623552.9780331558
 20
4833036.767903881
 10
623604.1081743129
 20
4832991.2505423
  0
LWPOLYLINE
  5
327
330
17
100
AcDbEntity
  8
ROADS
100
AcDbPolyline
 90
2
 70
0
 10
623477.3882201045
 20
4833071.24168174
 10
623552.9780331558
 20
4833036.767903881
  0
LWPOLYLINE
  5
328
330
17
100
AcDbEntity
  8
ROADS
100
AcDbPolyline
 90
2
 70
0
 10
623517.4669805648
 20
4833105.67669253
 10
623552.9780331558
 20
4833036.767903881
  0
LWPOLYLINE
  5
329
330
17
100
AcDbEntity
  8
ROADS
100
AcDbPolyline
 90
2
 70
0
 10
623488.4239364212
 20
4833150.033105718
 10
623450.262640882
 20
4833214.298740808
  0
LWPOLYLINE
  5
32A
330
17
100
AcDbEntity
  8
ROADS
100
AcDbPolyline
 90
2
 70
0
 10
623477.3882201045
 20
4833071.24168174
 10
623439.3142704067
 20
4833128.627553693
  0
LWPOLYLINE
  5
32B
330
17
100
AcDbEntity
  8
ROADS
100
AcDbPolyline
 90
2
 70
0
 10
623439.3142704067
 20
4833128.627553693
 10
623405.291282031
 20
4833107.337645629
  0
LWPOLYLINE
  5
32C
330
17
100
AcDbEntity
  8
ROADS
100
AcDbPolyline
 90
3
 70
0
 10
623122.2814902713
 20
4833080.312019993
 10
623047.5279258803
 20
4833103.767309458
 10
623014.5025770585
 20
4833178.511694361
  0
LWPOLYLINE
  5
32D
330
17
100
AcDbEntity
  8
ROADS
100
AcDbPolyline
 90
3
 70
0
 10
623122.2814902713
 20
4833080.312019993
 10
623069.448850191
 20
4833119.381216415
 10
623029.7308104472
 20
4833180.6984959105
  0
LWPOLYLINE
  5
32E
330
17
100
AcDbEntity
  8
ROADS
100
AcDbPolyline
 90
2
 70
0
 10
623439.3142704067
 20
4833128.627553693
 10
623427.0948161999
 20
4833147.045665977
  0
LWPOLYLINE
  5
32F
330
17
100
AcDbEntity
  8
ROADS
100
AcDbPolyline
 90
2
 70
0
 10
622948.3503806025
 20
4833126.132165862
 10
622952.7258866115
 20
4833167.978293021
  0
LWPOLYLINE
  5
330
330
17
100
AcDbEntity
  8
ROADS
100
AcDbPolyline
 90
2
 70
0
 10
623427.0948161999
 20
4833147.045665977
 10
623392.5657715327
 20
4833196.699191815
  0
LWPOLYLINE
  5
331
330
17
100
AcDbEntity
  8
ROADS
100
AcDbPolyline
 90
2
 70
0
 10
623029.7308104472
 20
4833180.6984959105
 10
623014.5025770585
 20
4833178.511694361
  0
LWPOLYLINE
  5
332
330
17
100
AcDbEntity
  8
ROADS
100
AcDbPolyline
 90
2
 70
0
 10
623427.0948161999
 20
4833147.045665977
 10
623450.262640882
 20
4833214.298740808
  0
LWPOLYLINE
  5
333
330
17
100
AcDbEntity
  8
ROADS
100
AcDbPolyline
 90
2
 70
0
 10
623005.2345068383
 20
4833194.9805206265
 10
622952.7258866115
 20
4833167.978293021
  0
LWPOLYLINE
  5
334
330
17
100
AcDbEntity
  8
ROADS
100
AcDbPolyline
 90
2
 70
0
 10
623029.7308104472
 20
4833180.6984959105
 10
623034.4551284049
 20
4833190.65436219
  0
LWPOLYLINE
  5
335
330
17
100
AcDbEntity
  8
ROADS
100
AcDbPolyline
 90
2
 70
0
 10
623014.5025770585
 20
4833178.511694361
 10
623005.2345068383
 20
4833194.9805206265
  0
LWPOLYLINE
  5
336
330
17
100
AcDbEntity
  8
ROADS
100
AcDbPolyline
 90
2
 70
0
 10
623034.4551284049
 20
4833190.65436219
 10
623023.4972875547
 20
4833207.825187316
  0
LWPOLYLINE
  5
337
330
17
100
AcDbEntity
  8
ROADS
100
AcDbPolyline
 90
2
 70
0
 10
623005.2345068383
 20
4833194.9805206265
 10
623011.2737726984
 20
4833204.998152317
  0
LWPOLYLINE
  5
338
330
17
100
AcDbEntity
  8
ROADS
100
AcDbPolyline
 90
2
 70
0
 10
623023.4972875547
 20
4833207.825187316
 10
623011.2737726984
 20
4833204.998152317
  0
LWPOLYLINE
  5
339
330
17
100
AcDbEntity
  8
ROADS
100
AcDbPolyline
 90
2
 70
0
 10
623392.5657715327
 20
4833196.699191815
 10
623354.8680462657
 20
4833254.069853391
  0
LWPOLYLINE
  5
33A
330
17
100
AcDbEntity
  8
ROADS
100
AcDbPolyline
 90
6
 70
0
 10
623191.5850305015
 20
4833286.492971131
 10
623195.0799822828
 20
4833280.19452899
 10
623272.7291003763
 20
4833211.454325428
 10
623313.2434315541
 20
4833216.860745936
 10
623377.835571889
 20
4833174.423874704
 10
623392.5657715327
 20
4833196.699191815
  0
LWPOLYLINE
  5
33B
330
17
100
AcDbEntity
  8
ROADS
100
AcDbPolyline
 90
2
 70
0
 10
623011.2737726984
 20
4833204.998152317
 10
622928.9771390033
 20
4833280.913065075
  0
LWPOLYLINE
  5
33C
330
17
100
AcDbEntity
  8
ROADS
100
AcDbPolyline
 90
2
 70
0
 10
623450.262640882
 20
4833214.298740808
 10
623445.7761407036
 20
4833223.243210773
  0
LWPOLYLINE
  5
33D
330
17
100
AcDbEntity
  8
ROADS
100
AcDbPolyline
 90
3
 70
0
 10
623023.4972875547
 20
4833207.825187316
 10
623044.3875142301
 20
4833246.051591652
 10
622992.4468245284
 20
4833289.444058924
  0
ENDSEC
  0
SECTION
  2
OBJECTS
  0
DICTIONARY
  5
A
330
0
100
AcDbDictionary
281
1
  3
ACAD_COLOR
350
B
  3
ACAD_GROUP
350
C
  3
ACAD_LAYOUT
350
D
  3
ACAD_MATERIAL
350
E
  3
ACAD_MLEADERSTYLE
350
F
  3
ACAD_MLINESTYLE
350
10
  3
ACAD_PLOTSETTINGS
350
11
  3
ACAD_PLOTSTYLENAME
350
12
  3
ACAD_SCALELIST
350
14
  3
ACAD_TABLESTYLE
350
15
  3
ACAD_VISUALSTYLE
350
16
  3
EZDXF_META
350
2D
  0
DICTIONARY
  5
B
330
A
100
AcDbDictionary
281
1
  0
DICTIONARY
  5
C
330
A
100
AcDbDictionary
281
1
  0
DICTIONARY
  5
D
330
A
100
AcDbDictionary
281
1
  3
Model
350
1A
  3
Layout1
350
1E
  0
DICTIONARY
  5
E
330
A
100
AcDbDictionary
281
1
  3
ByBlock
350
1F
  3
ByLayer
350
20
  3
Global
350
21
  0
DICTIONARY
  5
F
330
A
100
AcDbDictionary
281
1
  3
Standard
350
2C
  0
DICTIONARY
  5
10
330
A
100
AcDbDictionary
281
1
  3
Standard
350
22
  0
DICTIONARY
  5
11
330
A
100
AcDbDictionary
281
1
  0
ACDBDICTIONARYWDFLT
  5
12
330
A
100
AcDbDictionary
281
1
  3
Normal
350
13
100
AcDbDictionaryWithDefault
340
13
  0
ACDBPLACEHOLDER
  5
13
330
12
  0
DICTIONARY
  5
14
330
A
100
AcDbDictionary
281
1
  0
DICTIONARY
  5
15
330
A
100
AcDbDictionary
281
1
  0
DICTIONARY
  5
16
330
A
100
AcDbDictionary
281
1
  0
LAYOUT
  5
1A
330
D
100
AcDbPlotSettings
  1

  4
A3
  6

 40
7.5
 41
20.0
 42
7.5
 43
20.0
 44
420.0
 45
297.0
 46
0.0
 47
0.0
 48
0.0
 49
0.0
140
0.0
141
0.0
142
1.0
143
1.0
 70
1024
 72
1
 73
0
 74
5
  7

 75
16
 76
0
 77
2
 78
300
147
1.0
148
0.0
149
0.0
100
AcDbLayout
  1
Model
 70
1
 71
0
 10
0.0
 20
0.0
 11
420.0
 21
297.0
 12
0.0
 22
0.0
 32
0.0
 14
1e+20
 24
1e+20
 34
1e+20
 15
-1e+20
 25
-1e+20
 35
-1e+20
146
0.0
 13
0.0
 23
0.0
 33
0.0
 16
1.0
 26
0.0
 36
0.0
 17
0.0
 27
1.0
 37
0.0
 76
1
330
17
  0
LAYOUT
  5
1E
330
D
100
AcDbPlotSettings
  1

  4
A3
  6

 40
7.5
 41
20.0
 42
7.5
 43
20.0
 44
420.0
 45
297.0
 46
0.0
 47
0.0
 48
0.0
 49
0.0
140
0.0
141
0.0
142
1.0
143
1.0
 70
0
 72
1
 73
0
 74
5
  7

 75
16
 76
0
 77
2
 78
300
147
1.0
148
0.0
149
0.0
100
AcDbLayout
  1
Layout1
 70
1
 71
1
 10
0.0
 20
0.0
 11
420.0
 21
297.0
 12
0.0
 22
0.0
 32
0.0
 14
1e+20
 24
1e+20
 34
1e+20
 15
-1e+20
 25
-1e+20
 35
-1e+20
146
0.0
 13
0.0
 23
0.0
 33
0.0
 16
1.0
 26
0.0
 36
0.0
 17
0.0
 27
1.0
 37
0.0
 76
1
330
1B
  0
MATERIAL
  5
1F
102
{ACAD_REACTORS
330
E
102
}
330
E
100
AcDbMaterial
  1
ByBlock
  2

 70
0
 40
1.0
 71
1
 41
1.0
 91
-1023410177
 42
1.0
 72
1
  3

 73
1
 74
1
 75
1
 44
0.5
 73
0
 45
1.0
 46
1.0
 77
1
  4

 78
1
 79
1
170
1
 48
1.0
171
1
  6

172
1
173
1
174
1
140
1.0
141
1.0
175
1
  7

176
1
177
1
178
1
143
1.0
179
1
  8

270
1
271
1
272
1
145
1.0
146
1.0
273
1
  9

274
1
275
1
276
1
 42
1.0
 72
1
  3

 73
1
 74
1
 75
1
 94
63
  0
MATERIAL
  5
20
102
{ACAD_REACTORS
330
E
102
}
330
E
100
AcDbMaterial
  1
ByLayer
  2

 70
0
 40
1.0
 71
1
 41
1.0
 91
-1023410177
 42
1.0
 72
1
  3

 73
1
 74
1
 75
1
 44
0.5
 73
0
 45
1.0
 46
1.0
 77
1
  4

 78
1
 79
1
170
1
 48
1.0
171
1
  6

172
1
173
1
174
1
140
1.0
141
1.0
175
1
  7

176
1
177
1
178
1
143
1.0
179
1
  8

270
1
271
1
272
1
145
1.0
146
1.0
273
1
  9

274
1
275
1
276
1
 42
1.0
 72
1
  3

 73
1
 74
1
 75
1
 94
63
  0
MATERIAL
  5
21
102
{ACAD_REACTORS
330
E
102
}
330
E
100
AcDbMaterial
  1
Global
  2

 70
0
 40
1.0
 71
1
 41
1.0
 91
-1023410177
 42
1.0
 72
1
  3

 73
1
 74
1
 75
1
 44
0.5
 73
0
 45
1.0
 46
1.0
 77
1
  4

 78
1
 79
1
170
1
 48
1.0
171
1
  6

172
1
173
1
174
1
140
1.0
141
1.0
175
1
  7

176
1
177
1
178
1
143
1.0
179
1
  8

270
1
271
1
272
1
145
1.0
146
1.0
273
1
  9

274
1
275
1
276
1
 42
1.0
 72
1
  3

 73
1
 74
1
 75
1
 94
63
  0
MLINESTYLE
  5
22
102
{ACAD_REACTORS
330
10
102
}
330
10
100
AcDbMlineStyle
  2
Standard
 70
0
  3

 62
256
 51
90.0
 52
90.0
 71
2
 49
0.5
 62
256
  6
BYLAYER
 49
-0.5
 62
256
  6
BYLAYER
  0
MLEADERSTYLE
  5
2C
102
{ACAD_REACTORS
330
F
102
}
330
F
100
AcDbMLeaderStyle
179
2
170
2
171
1
172
0
 90
2
 40
0.0
 41
0.0
173
1
 91
-1056964608
 92
-2
290
1
 42
2.0
291
1
 43
8.0
  3
Standard
 44
4.0
300

342
29
174
1
175
1
176
0
178
1
 93
-1056964608
 45
4.0
292
0
297
0
 46
4.0
 94
-1056964608
 47
1.0
 49
1.0
140
1.0
294
1
141
0.0
177
0
142
1.0
295
0
296
0
143
3.75
271
0
272
9
273
9
  0
DICTIONARY
  5
2D
330
A
100
AcDbDictionary
280
1
281
1
  3
CREATED_BY_EZDXF
350
2E
  3
WRITTEN_BY_EZDXF
350
340
  0
DICTIONARYVAR
  5
2E
330
2D
100
DictionaryVariables
280
0
  1
1.4.4 @ 2026-07-30T15:39:46.549166+00:00
  0
DICTIONARYVAR
  5
340
330
2D
100
DictionaryVariables
280
0
  1
1.4.4 @ 2026-07-30T15:39:46.634320+00:00
  0
ENDSEC
  0
EOF
