  0
SECTION
  2
HEADER
  9
$ACADVER
  1
AC1015
  9
$ACADMAINTVER
 70
6
  9
$DWGCODEPAGE
  3
ANSI_1252
  9
$INSBASE
 10
0.0
 20
0.0
 30
0.0
  9
$EXTMIN
 10
1e+20
 20
1e+20
 30
1e+20
  9
$EXTMAX
 10
-1e+20
 20
-1e+20
 30
-1e+20
  9
$LIMMIN
 10
0.0
 20
0.0
  9
$LIMMAX
 10
420.0
 20
297.0
  9
$ORTHOMODE
 70
0
  9
$REGENMODE
 70
1
  9
$FILLMODE
 70
1
  9
$QTEXTMODE
 70
0
  9
$MIRRTEXT
 70
1
  9
$LTSCALE
 40
1.0
  9
$ATTMODE
 70
1
  9
$TEXTSIZE
 40
2.5
  9
$TRACEWID
 40
1.0
  9
$TEXTSTYLE
  7
Standard
  9
$CLAYER
  8
0
  9
$CELTYPE
  6
ByLayer
  9
$CECOLOR
 62
256
  9
$CELTSCALE
 40
1.0
  9
$DISPSILH
 70
0
  9
$DIMSCALE
 40
1.0
  9
$DIMASZ
 40
2.5
  9
$DIMEXO
 40
0.625
  9
$DIMDLI
 40
3.75
  9
$DIMRND
 40
0.0
  9
$DIMDLE
 40
0.0
  9
$DIMEXE
 40
1.25
  9
$DIMTP
 40
0.0
  9
$DIMTM
 40
0.0
  9
$DIMTXT
 40
2.5
  9
$DIMCEN
 40
2.5
  9
$DIMTSZ
 40
0.0
  9
$DIMTOL
 70
0
  9
$DIMLIM
 70
0
  9
$DIMTIH
 70
0
  9
$DIMTOH
 70
0
  9
$DIMSE1
 70
0
  9
$DIMSE2
 70
0
  9
$DIMTAD
 70
1
  9
$DIMZIN
 70
8
  9
$DIMBLK
  1

  9
$DIMASO
 70
1
  9
$DIMSHO
 70
1
  9
$DIMPOST
  1

  9
$DIMAPOST
  1

  9
$DIMALT
 70
0
  9
$DIMALTD
 70
3
  9
$DIMALTF
 40
0.03937007874
  9
$DIMLFAC
 40
1.0
  9
$DIMTOFL
 70
1
  9
$DIMTVP
 40
0.0
  9
$DIMTIX
 70
0
  9
$DIMSOXD
 70
0
  9
$DIMSAH
 70
0
  9
$DIMBLK1
  1

  9
$DIMBLK2
  1

  9
$DIMSTYLE
  2
ISO-25
  9
$DIMCLRD
 70
0
  9
$DIMCLRE
 70
0
  9
$DIMCLRT
 70
0
  9
$DIMTFAC
 40
1.0
  9
$DIMGAP
 40
0.625
  9
$DIMJUST
 70
0
  9
$DIMSD1
 70
0
  9
$DIMSD2
 70
0
  9
$DIMTOLJ
 70
0
  9
$DIMTZIN
 70
8
  9
$DIMALTZ
 70
0
  9
$DIMALTTZ
 70
0
  9
$DIMUPT
 70
0
  9
$DIMDEC
 70
2
  9
$DIMTDEC
 70
2
  9
$DIMALTU
 70
2
  9
$DIMALTTD
 70
3
  9
$DIMTXSTY
  7
Standard
  9
$DIMAUNIT
 70
0
  9
$DIMADEC
 70
0
  9
$DIMALTRND
 40
0.0
  9
$DIMAZIN
 70
0
  9
$DIMDSEP
 70
44
  9
$DIMATFIT
 70
3
  9
$DIMFRAC
 70
0
  9
$DIMLDRBLK
  1

  9
$DIMLUNIT
 70
2
  9
$DIMLWD
 70
-2
  9
$DIMLWE
 70
-2
  9
$DIMTMOVE
 70
0
  9
$LUNITS
 70
2
  9
$LUPREC
 70
4
  9
$SKETCHINC
 40
1.0
  9
$FILLETRAD
 40
10.0
  9
$AUNITS
 70
0
  9
$AUPREC
 70
2
  9
$MENU
  1
.
  9
$ELEVATION
 40
0.0
  9
$PELEVATION
 40
0.0
  9
$THICKNESS
 40
0.0
  9
$LIMCHECK
 70
0
  9
$CHAMFERA
 40
0.0
  9
$CHAMFERB
 40
0.0
  9
$CHAMFERC
 40
0.0
  9
$CHAMFERD
 40
0.0
  9
$SKPOLY
 70
0
  9
$TDCREATE
 40
2461252.4859953704
  9
$TDUCREATE
 40
2458532.153996898
  9
$TDUPDATE
 40
2461252.4859953704
  9
$TDUUPDATE
 40
2458532.1544311
  9
$TDINDWG
 40
0.0
  9
$TDUSRTIMER
 40
0.0
  9
$USRTIMER
 70
1
  9
$ANGBASE
 50
0.0
  9
$ANGDIR
 70
0
  9
$PDMODE
 70
0
  9
$PDSIZE
 40
0.0
  9
$PLINEWID
 40
0.0
  9
$SPLFRAME
 70
0
  9
$SPLINETYPE
 70
6
  9
$SPLINESEGS
 70
8
  9
$HANDSEED
  5
2D4
  9
$SURFTAB1
 70
6
  9
$SURFTAB2
 70
6
  9
$SURFTYPE
 70
6
  9
$SURFU
 70
6
  9
$SURFV
 70
6
  9
$UCSBASE
  2

  9
$UCSNAME
  2

  9
$UCSORG
 10
0.0
 20
0.0
 30
0.0
  9
$UCSXDIR
 10
1.0
 20
0.0
 30
0.0
  9
$UCSYDIR
 10
0.0
 20
1.0
 30
0.0
  9
$UCSORTHOREF
  2

  9
$UCSORTHOVIEW
 70
0
  9
$UCSORGTOP
 10
0.0
 20
0.0
 30
0.0
  9
$UCSORGBOTTOM
 10
0.0
 20
0.0
 30
0.0
  9
$UCSORGLEFT
 10
0.0
 20
0.0
 30
0.0
  9
$UCSORGRIGHT
 10
0.0
 20
0.0
 30
0.0
  9
$UCSORGFRONT
 10
0.0
 20
0.0
 30
0.0
  9
$UCSORGBACK
 10
0.0
 20
0.0
 30
0.0
  9
$PUCSBASE
  2

  9
$PUCSNAME
  2

  9
$PUCSORG
 10
0.0
 20
0.0
 30
0.0
  9
$PUCSXDIR
 10
1.0
 20
0.0
 30
0.0
  9
$PUCSYDIR
 10
0.0
 20
1.0
 30
0.0
  9
$PUCSORTHOREF
  2

  9
$PUCSORTHOVIEW
 70
0
  9
$PUCSORGTOP
 10
0.0
 20
0.0
 30
0.0
  9
$PUCSORGBOTTOM
 10
0.0
 20
0.0
 30
0.0
  9
$PUCSORGLEFT
 10
0.0
 20
0.0
 30
0.0
  9
$PUCSORGRIGHT
 10
0.0
 20
0.0
 30
0.0
  9
$PUCSORGFRONT
 10
0.0
 20
0.0
 30
0.0
  9
$PUCSORGBACK
 10
0.0
 20
0.0
 30
0.0
  9
$USERI1
 70
0
  9
$USERI2
 70
0
  9
$USERI3
 70
0
  9
$USERI4
 70
0
  9
$USERI5
 70
0
  9
$USERR1
 40
0.0
  9
$USERR2
 40
0.0
  9
$USERR3
 40
0.0
  9
$USERR4
 40
0.0
  9
$USERR5
 40
0.0
  9
$WORLDVIEW
 70
1
  9
$SHADEDGE
 70
3
  9
$SHADEDIF
 70
70
  9
$TILEMODE
 70
1
  9
$MAXACTVP
 70
64
  9
$PINSBASE
 10
0.0
 20
0.0
 30
0.0
  9
$PLIMCHECK
 70
0
  9
$PEXTMIN
 10
1e+20
 20
1e+20
 30
1e+20
  9
$PEXTMAX
 10
-1e+20
 20
-1e+20
 30
-1e+20
  9
$PLIMMIN
 10
0.0
 20
0.0
  9
$PLIMMAX
 10
420.0
 20
297.0
  9
$UNITMODE
 70
0
  9
$VISRETAIN
 70
1
  9
$PLINEGEN
 70
0
  9
$PSLTSCALE
 70
1
  9
$TREEDEPTH
 70
3020
  9
$CMLSTYLE
  2
Standard
  9
$CMLJUST
 70
0
  9
$CMLSCALE
 40
20.0
  9
$PROXYGRAPHICS
 70
1
  9
$MEASUREMENT
 70
1
  9
$CELWEIGHT
370
-1
  9
$ENDCAPS
280
0
  9
$JOINSTYLE
280
0
  9
$LWDISPLAY
290
0
  9
$INSUNITS
 70
6
  9
$HYPERLINKBASE
  1

  9
$STYLESHEET
  1

  9
$XEDIT
290
1
  9
$CEPSNTYPE
380
0
  9
$PSTYLEMODE
290
1
  9
$FINGERPRINTGUID
  2
{983A2B18-F990-4ADE-B166-E33A095691EE}
  9
$VERSIONGUID
  2
{452A9CC9-59ED-4F35-A83B-FC713186ED82}
  9
$EXTNAMES
290
1
  9
$PSVPSCALE
 40
0.0
  9
$OLESTARTUP
290
0
  0
ENDSEC
  0
SECTION
  2
CLASSES
  0
CLASS
  1
ACDBDICTIONARYWDFLT
  2
AcDbDictionaryWithDefault
  3
ObjectDBX Classes
 90
0
280
0
281
0
  0
CLASS
  1
SUN
  2
AcDbSun
  3
SCENEOE
 90
1153
280
0
281
0
  0
CLASS
  1
VISUALSTYLE
  2
AcDbVisualStyle
  3
ObjectDBX Classes
 90
4095
280
0
281
0
  0
CLASS
  1
MATERIAL
  2
AcDbMaterial
  3
ObjectDBX Classes
 90
1153
280
0
281
0
  0
CLASS
  1
SCALE
  2
AcDbScale
  3
ObjectDBX Classes
 90
1153
280
0
281
0
  0
CLASS
  1
TABLESTYLE
  2
AcDbTableStyle
  3
ObjectDBX Classes
 90
4095
280
0
281
0
  0
CLASS
  1
MLEADERSTYLE
  2
AcDbMLeaderStyle
  3
ACDB_MLEADERSTYLE_CLASS
 90
4095
280
0
281
0
  0
CLASS
  1
DICTIONARYVAR
  2
AcDbDictionaryVar
  3
ObjectDBX Classes
 90
0
280
0
281
0
  0
CLASS
  1
CELLSTYLEMAP
  2
AcDbCellStyleMap
  3
ObjectDBX Classes
 90
1152
280
0
281
0
  0
CLASS
  1
MENTALRAYRENDERSETTINGS
  2
AcDbMentalRayRenderSettings
  3
SCENEOE
 90
1024
280
0
281
0
  0
CLASS
  1
ACDBDETAILVIEWSTYLE
  2
AcDbDetailViewStyle
  3
ObjectDBX Classes
 90
1025
280
0
281
0
  0
CLASS
  1
ACDBSECTIONVIEWSTYLE
  2
AcDbSectionViewStyle
  3
ObjectDBX Classes
 90
1025
280
0
281
0
  0
CLASS
  1
RASTERVARIABLES
  2
AcDbRasterVariables
  3
ISM
 90
0
280
0
281
0
  0
CLASS
  1
ACDBPLACEHOLDER
  2
AcDbPlaceHolder
  3
ObjectDBX Classes
 90
0
280
0
281
0
  0
CLASS
  1
LAYOUT
  2
AcDbLayout
  3
ObjectDBX Classes
 90
0
280
0
281
0
  0
ENDSEC
  0
SECTION
  2
TABLES
  0
TABLE
  2
VPORT
  5
8
330
0
100
AcDbSymbolTable
 70
1
  0
VPORT
  5
23
330
8
100
AcDbSymbolTableRecord
100
AcDbViewportTableRecord
  2
*Active
 70
0
 10
0.0
 20
0.0
 11
1.0
 21
1.0
 12
0.0
 22
0.0
 13
0.0
 23
0.0
 14
0.5
 24
0.5
 15
0.5
 25
0.5
 16
0.0
 26
0.0
 36
1.0
 17
0.0
 27
0.0
 37
0.0
 40
1000.0
 41
1.34
 42
50.0
 43
0.0
 44
0.0
 50
0.0
 51
0.0
 71
0
 72
1000
 73
1
 74
3
 75
0
 76
0
 77
0
 78
0
281
0
 65
0
146
0.0
  0
ENDTAB
  0
TABLE
  2
LTYPE
  5
2
330
0
100
AcDbSymbolTable
 70
3
  0
LTYPE
  5
24
330
2
100
AcDbSymbolTableRecord
100
AcDbLinetypeTableRecord
  2
ByBlock
 70
0
  3

 72
65
 73
0
 40
0.0
  0
LTYPE
  5
25
330
2
100
AcDbSymbolTableRecord
100
AcDbLinetypeTableRecord
  2
ByLayer
 70
0
  3

 72
65
 73
0
 40
0.0
  0
LTYPE
  5
26
330
2
100
AcDbSymbolTableRecord
100
AcDbLinetypeTableRecord
  2
Continuous
 70
0
  3

 72
65
 73
0
 40
0.0
  0
ENDTAB
  0
TABLE
  2
LAYER
  5
1
330
0
100
AcDbSymbolTable
 70
2
  0
LAYER
  5
27
330
1
100
AcDbSymbolTableRecord
100
AcDbLayerTableRecord
  2
0
 70
0
 62
7
  6
Continuous
370
-3
390
13
  0
LAYER
  5
28
330
1
100
AcDbSymbolTableRecord
100
AcDbLayerTableRecord
  2
Defpoints
 70
0
 62
7
  6
Continuous
290
0
370
-3
390
13
  0
ENDTAB
  0
TABLE
  2
STYLE
  5
5
330
0
100
AcDbSymbolTable
 70
1
  0
STYLE
  5
29
330
5
100
AcDbSymbolTableRecord
100
AcDbTextStyleTableRecord
  2
Standard
 70
0
 40
0.0
 41
1.0
 50
0.0
 71
0
 42
2.5
  3
txt
  4

  0
ENDTAB
  0
TABLE
  2
VIEW
  5
7
330
0
100
AcDbSymbolTable
 70
0
  0
ENDTAB
  0
TABLE
  2
UCS
  5
6
330
0
100
AcDbSymbolTable
 70
0
  0
ENDTAB
  0
TABLE
  2
APPID
  5
3
330
0
100
AcDbSymbolTable
 70
3
  0
APPID
  5
2A
330
3
100
AcDbSymbolTableRecord
100
AcDbRegAppTableRecord
  2
ACAD
 70
0
  0
APPID
  5
2D1
330
3
100
AcDbSymbolTableRecord
100
AcDbRegAppTableRecord
  2
HATCHBACKGROUNDCOLOR
 70
0
  0
APPID
  5
2D2
330
3
100
AcDbSymbolTableRecord
100
AcDbRegAppTableRecord
  2
EZDXF
 70
0
  0
ENDTAB
  0
TABLE
  2
DIMSTYLE
  5
4
330
0
100
AcDbSymbolTable
 70
1
100
AcDbDimStyleTable
  0
DIMSTYLE
105
2B
330
4
100
AcDbSymbolTableRecord
100
AcDbDimStyleTableRecord
  2
Standard
 70
0
  3

  4

 40
1.0
 41
2.5
 42
0.625
 43
3.75
 44
1.25
 45
0.0
 46
0.0
 47
0.0
 48
0.0
140
2.5
141
2.5
142
0.0
143
0.03937007874
144
1.0
145
0.0
146
1.0
147
0.625
148
0.0
 71
0
 72
0
 73
0
 74
0
 75
0
 76
0
 77
1
 78
8
 79
3
170
0
171
3
172
1
173
0
174
0
175
0
176
0
177
0
178
0
179
2
271
2
272
2
273
2
274
3
275
0
276
0
277
2
278
44
279
0
280
0
281
0
282
0
283
0
284
8
285
0
286
0
288
0
289
3
371
-2
372
-2
  0
ENDTAB
  0
TABLE
  2
BLOCK_RECORD
  5
9
330
0
100
AcDbSymbolTable
 70
2
  0
BLOCK_RECORD
  5
17
330
9
100
AcDbSymbolTableRecord
100
AcDbBlockTableRecord
  2
*Model_Space
340
1A
  0
BLOCK_RECORD
  5
1B
330
9
100
AcDbSymbolTableRecord
100
AcDbBlockTableRecord
  2
*Paper_Space
340
1E
  0
ENDTAB
  0
ENDSEC
  0
SECTION
  2
BLOCKS
  0
BLOCK
  5
18
330
17
100
AcDbEntity
  8
0
100
AcDbBlockBegin
  2
*Model_Space
 70
0
 10
0.0
 20
0.0
 30
0.0
  3
*Model_Space
  1

  0
ENDBLK
  5
19
330
17
100
AcDbEntity
  8
0
100
AcDbBlockEnd
  0
BLOCK
  5
1C
330
1B
100
AcDbEntity
  8
0
100
AcDbBlockBegin
  2
*Paper_Space
 70
0
 10
0.0
 20
0.0
 30
0.0
  3
*Paper_Space
  1

  0
ENDBLK
  5
1D
330
1B
100
AcDbEntity
  8
0
100
AcDbBlockEnd
  0
ENDSEC
  0
SECTION
  2
ENTITIES
  0
LWPOLYLINE
  5
2F
330
17
100
AcDbEntity
  8
ROADS
100
AcDbPolyline
 90
2
 70
0
 10
638671.6906174641
 20
4844367.650888183
 10
638670.7151532348
 20
4844370.747441706
  0
LWPOLYLINE
  5
30
330
17
100
AcDbEntity
  8
ROADS
100
AcDbPolyline
 90
2
 70
0
 10
638355.8462568552
 20
4844432.010155635
 10
638331.2452348396
 20
4844508.608903017
  0
LWPOLYLINE
  5
31
330
17
100
AcDbEntity
  8
ROADS
100
AcDbPolyline
 90
2
 70
0
 10
639108.6404756434
 20
4844441.190282852
 10
639088.5864050623
 20
4844504.326544902
  0
LWPOLYLINE
  5
32
330
17
100
AcDbEntity
  8
ROADS
100
AcDbPolyline
 90
2
 70
0
 10
639204.7937787765
 20
4844470.141570148
 10
639162.900129485
 20
4844601.681466985
  0
LWPOLYLINE
  5
33
330
17
100
AcDbEntity
  8
ROADS
100
AcDbPolyline
 90
2
 70
0
 10
638766.6047994625
 20
4844368.451936297
 10
638757.5192154526
 20
4844399.322688306
  0
LWPOLYLINE
  5
34
330
17
100
AcDbEntity
  8
ROADS
100
AcDbPolyline
 90
2
 70
0
 10
638662.501672997
 20
4844368.111630273
 10
638670.7151532348
 20
4844370.747441706
  0
LWPOLYLINE
  5
35
330
17
100
AcDbEntity
  8
ROADS
100
AcDbPolyline
 90
2
 70
0
 10
638941.3373829942
 20
4844393.791261974
 10
638923.4505928756
 20
4844452.333842305
  0
LWPOLYLINE
  5
36
330
17
100
AcDbEntity
  8
ROADS
100
AcDbPolyline
 90
2
 70
0
 10
638670.7151532348
 20
4844370.747441706
 10
638757.5192154526
 20
4844399.322688306
  0
LWPOLYLINE
  5
37
330
17
100
AcDbEntity
  8
ROADS
100
AcDbPolyline
 90
2
 70
0
 10
638757.5192154526
 20
4844399.322688306
 10
638799.8179469507
 20
4844414.090889517
  0
LWPOLYLINE
  5
38
330
17
100
AcDbEntity
  8
ROADS
100
AcDbPolyline
 90
2
 70
0
 10
638799.8179469507
 20
4844414.090889517
 10
638923.4505928756
 20
4844452.333842305
  0
LWPOLYLINE
  5
39
330
17
100
AcDbEntity
  8
ROADS
100
AcDbPolyline
 90
2
 70
0
 10
638514.7346812696
 20
4844385.212611639
 10
638882.14918592
 20
4844617.068114436
  0
LWPOLYLINE
  5
3A
330
17
100
AcDbEntity
  8
ROADS
100
AcDbPolyline
 90
2
 70
0
 10
638923.4505928756
 20
4844452.333842305
 10
639088.5864050623
 20
4844504.326544902
  0
LWPOLYLINE
  5
3B
330
17
100
AcDbEntity
  8
ROADS
100
AcDbPolyline
 90
3
 70
0
 10
638799.8179469507
 20
4844414.090889517
 10
638838.0278137468
 20
4844502.791237854
 10
638917.7900922273
 20
4844554.241269258
  0
LWPOLYLINE
  5
3C
330
17
100
AcDbEntity
  8
ROADS
100
AcDbPolyline
 90
2
 70
0
 10
639088.5864050623
 20
4844504.326544902
 10
639047.1131164355
 20
4844633.590318927
  0
LWPOLYLINE
  5
3D
330
17
100
AcDbEntity
  8
ROADS
100
AcDbPolyline
 90
2
 70
0
 10
638917.7900922273
 20
4844554.241269258
 10
638882.14918592
 20
4844617.068114436
  0
LWPOLYLINE
  5
3E
330
17
100
AcDbEntity
  8
ROADS
100
AcDbPolyline
 90
2
 70
0
 10
638917.7900922273
 20
4844554.241269258
 10
639047.1131164355
 20
4844633.590318927
  0
LWPOLYLINE
  5
3F
330
17
100
AcDbEntity
  8
ROADS
100
AcDbPolyline
 90
2
 70
0
 10
638596.9624084417
 20
4844610.175279425
 10
638571.6644316727
 20
4844648.98000378
  0
LWPOLYLINE
  5
40
330
17
100
AcDbEntity
  8
ROADS
100
AcDbPolyline
 90
2
 70
0
 10
639047.1131164355
 20
4844633.590318927
 10
639135.4270316757
 20
4844689.195644379
  0
LWPOLYLINE
  5
41
330
17
100
AcDbEntity
  8
ROADS
100
AcDbPolyline
 90
2
 70
0
 10
638571.6644316727
 20
4844648.98000378
 10
638660.0937487932
 20
4844708.588732042
  0
LWPOLYLINE
  5
42
330
17
100
AcDbEntity
  8
ROADS
100
AcDbPolyline
 90
2
 70
0
 10
638882.14918592
 20
4844617.068114436
 10
639119.1224860488
 20
4844741.278548914
  0
LWPOLYLINE
  5
43
330
17
100
AcDbEntity
  8
ROADS
100
AcDbPolyline
 90
2
 70
0
 10
638882.14918592
 20
4844617.068114436
 10
638790.3513472321
 20
4844794.47633594
  0
LWPOLYLINE
  5
44
330
17
100
AcDbEntity
  8
ROADS
100
AcDbPolyline
 90
2
 70
0
 10
639135.4270316757
 20
4844689.195644379
 10
639119.1224860488
 20
4844741.278548914
  0
LWPOLYLINE
  5
45
330
17
100
AcDbEntity
  8
ROADS
100
AcDbPolyline
 90
2
 70
0
 10
638045.3950276664
 20
4844621.019341513
 10
637985.4477222739
 20
4844809.369906136
  0
LWPOLYLINE
  5
46
330
17
100
AcDbEntity
  8
ROADS
100
AcDbPolyline
 90
3
 70
0
 10
637985.4477222739
 20
4844809.369906136
 10
637894.6037607732
 20
4845093.889958411
 10
637844.4418211884
 20
4845177.851622375
  0
LWPOLYLINE
  5
47
330
17
100
AcDbEntity
  8
ROADS
100
AcDbPolyline
 90
2
 70
0
 10
639250.4174650215
 20
4844633.317027293
 10
639162.900129485
 20
4844601.681466985
  0
LWPOLYLINE
  5
48
330
17
100
AcDbEntity
  8
ROADS
100
AcDbPolyline
 90
2
 70
0
 10
639464.396372684
 20
4844638.159497048
 10
639507.5719175787
 20
4844651.529494128
  0
LWPOLYLINE
  5
49
330
17
100
AcDbEntity
  8
ROADS
100
AcDbPolyline
 90
2
 70
0
 10
639162.900129485
 20
4844601.681466985
 10
639135.4270316757
 20
4844689.195644379
  0
LWPOLYLINE
  5
4A
330
17
100
AcDbEntity
  8
ROADS
100
AcDbPolyline
 90
2
 70
0
 10
639250.4174650215
 20
4844633.317027293
 10
639376.6725010577
 20
4844669.268361317
  0
LWPOLYLINE
  5
4B
330
17
100
AcDbEntity
  8
ROADS
100
AcDbPolyline
 90
2
 70
0
 10
639250.4174650215
 20
4844633.317027293
 10
639271.5331732588
 20
4844680.977000447
  0
LWPOLYLINE
  5
4C
330
17
100
AcDbEntity
  8
ROADS
100
AcDbPolyline
 90
2
 70
0
 10
639507.5719175787
 20
4844651.529494128
 10
639560.1295470406
 20
4844673.047494572
  0
LWPOLYLINE
  5
4D
330
17
100
AcDbEntity
  8
ROADS
100
AcDbPolyline
 90
3
 70
0
 10
639250.4174650215
 20
4844633.317027293
 10
639227.418328701
 20
4844650.129287869
 10
639200.1005360703
 20
4844710.50662954
  0
LWPOLYLINE
  5
4E
330
17
100
AcDbEntity
  8
ROADS
100
AcDbPolyline
 90
2
 70
0
 10
639560.1295470406
 20
4844673.047494572
 10
639572.5544131163
 20
4844678.075607712
  0
LWPOLYLINE
  5
4F
330
17
100
AcDbEntity
  8
ROADS
100
AcDbPolyline
 90
2
 70
0
 10
638244.3638376908
 20
4844481.566869785
 10
638331.2452348396
 20
4844508.608903017
  0
LWPOLYLINE
  5
50
330
17
100
AcDbEntity
  8
ROADS
100
AcDbPolyline
 90
2
 70
0
 10
638331.2452348396
 20
4844508.608903017
 10
638280.5312370072
 20
4844667.169876988
  0
LWPOLYLINE
  5
51
330
17
100
AcDbEntity
  8
ROADS
100
AcDbPolyline
 90
3
 70
0
 10
638421.7790461616
 20
4844676.265995986
 10
638440.5994584565
 20
4844565.5971341785
 10
638571.6644316727
 20
4844648.98000378
  0
LWPOLYLINE
  5
52
330
17
100
AcDbEntity
  8
ROADS
100
AcDbPolyline
 90
2
 70
0
 10
638280.5312370072
 20
4844667.169876988
 10
638412.3449344318
 20
4844707.098144721
  0
LWPOLYLINE
  5
53
330
17
100
AcDbEntity
  8
ROADS
100
AcDbPolyline
 90
2
 70
0
 10
638412.3449344318
 20
4844707.098144721
 10
638421.7790461616
 20
4844676.265995986
  0
LWPOLYLINE
  5
54
330
17
100
AcDbEntity
  8
ROADS
100
AcDbPolyline
 90
3
 70
0
 10
638421.7790461616
 20
4844676.265995986
 10
638548.7968242571
 20
4844741.574893184
 10
638525.7311246275
 20
4844807.163590112
  0
LWPOLYLINE
  5
55
330
17
100
AcDbEntity
  8
ROADS
100
AcDbPolyline
 90
2
 70
0
 10
638280.5312370072
 20
4844667.169876988
 10
638233.4081924747
 20
4844819.866260859
  0
LWPOLYLINE
  5
56
330
17
100
AcDbEntity
  8
ROADS
100
AcDbPolyline
 90
3
 70
0
 10
638412.3449344318
 20
4844707.098144721
 10
638393.3517323242
 20
4844768.760174174
 10
638508.2007224939
 20
4844801.845689924
  0
LWPOLYLINE
  5
57
330
17
100
AcDbEntity
  8
ROADS
100
AcDbPolyline
 90
2
 70
0
 10
638508.2007224939
 20
4844801.845689924
 10
638525.7311246275
 20
4844807.163590112
  0
LWPOLYLINE
  5
58
330
17
100
AcDbEntity
  8
ROADS
100
AcDbPolyline
 90
2
 70
0
 10
637985.4477222739
 20
4844809.369906136
 10
638213.3351241399
 20
4844882.5087932395
  0
LWPOLYLINE
  5
59
330
17
100
AcDbEntity
  8
ROADS
100
AcDbPolyline
 90
3
 70
0
 10
639376.6725010577
 20
4844669.268361317
 10
639352.5096982004
 20
4844683.100264504
 10
639271.5331732588
 20
4844680.977000447
  0
LWPOLYLINE
  5
5A
330
17
100
AcDbEntity
  8
ROADS
100
AcDbPolyline
 90
3
 70
0
 10
639376.6725010577
 20
4844669.268361317
 10
639481.7338732583
 20
4844700.91759018
 10
639507.5719175787
 20
4844651.529494128
  0
LWPOLYLINE
  5
5B
330
17
100
AcDbEntity
  8
ROADS
100
AcDbPolyline
 90
2
 70
0
 10
639572.5544131163
 20
4844678.075607712
 10
639579.4451231017
 20
4844680.765758324
  0
LWPOLYLINE
  5
5C
330
17
100
AcDbEntity
  8
ROADS
100
AcDbPolyline
 90
2
 70
0
 10
639580.5620645348
 20
4844686.313400562
 10
639587.1462403969
 20
4844687.861831906
  0
LWPOLYLINE
  5
5D
330
17
100
AcDbEntity
  8
ROADS
100
AcDbPolyline
 90
3
 70
0
 10
639200.1005360703
 20
4844710.50662954
 10
639224.8283399373
 20
4844718.605115656
 10
639271.5331732588
 20
4844680.977000447
  0
LWPOLYLINE
  5
5E
330
17
100
AcDbEntity
  8
ROADS
100
AcDbPolyline
 90
2
 70
0
 10
639200.1005360703
 20
4844710.50662954
 10
639135.4270316757
 20
4844689.195644379
  0
LWPOLYLINE
  5
5F
330
17
100
AcDbEntity
  8
ROADS
100
AcDbPolyline
 90
2
 70
0
 10
639621.9563592162
 20
4844719.93706918
 10
639599.6562781516
 20
4844790.632447178
  0
LWPOLYLINE
  5
60
330
17
100
AcDbEntity
  8
ROADS
100
AcDbPolyline
 90
2
 70
0
 10
638660.0937487932
 20
4844708.588732042
 10
638742.0340232928
 20
4844764.078609264
  0
LWPOLYLINE
  5
61
330
17
100
AcDbEntity
  8
ROADS
100
AcDbPolyline
 90
3
 70
0
 10
638525.7311246275
 20
4844807.163590112
 10
638622.4088081077
 20
4844835.918719157
 10
638660.0937487932
 20
4844708.588732042
  0
LWPOLYLINE
  5
62
330
17
100
AcDbEntity
  8
ROADS
100
AcDbPolyline
 90
2
 70
0
 10
638742.0340232928
 20
4844764.078609264
 10
638790.3513472321
 20
4844794.47633594
  0
LWPOLYLINE
  5
63
330
17
100
AcDbEntity
  8
ROADS
100
AcDbPolyline
 90
2
 70
0
 10
638790.3513472321
 20
4844794.47633594
 10
638826.3839658997
 20
4844817.611951019
  0
LWPOLYLINE
  5
64
330
17
100
AcDbEntity
  8
ROADS
100
AcDbPolyline
 90
2
 70
0
 10
638826.3839658997
 20
4844817.611951019
 10
638797.233549556
 20
4844912.092329906
  0
LWPOLYLINE
  5
65
330
17
100
AcDbEntity
  8
ROADS
100
AcDbPolyline
 90
2
 70
0
 10
638742.0340232928
 20
4844764.078609264
 10
638656.7756198794
 20
4845043.562961406
  0
LWPOLYLINE
  5
66
330
17
100
AcDbEntity
  8
ROADS
100
AcDbPolyline
 90
3
 70
0
 10
638826.3839658997
 20
4844817.611951019
 10
638958.7053972884
 20
4844904.019056023
 10
638933.5098742667
 20
4844990.571299922
  0
LWPOLYLINE
  5
67
330
17
100
AcDbEntity
  8
ROADS
100
AcDbPolyline
 90
2
 70
0
 10
639119.1224860488
 20
4844741.278548914
 10
638998.4821697794
 20
4845109.761280146
  0
LWPOLYLINE
  5
68
330
17
100
AcDbEntity
  8
ROADS
100
AcDbPolyline
 90
2
 70
0
 10
638797.233549556
 20
4844912.092329906
 10
638933.5098742667
 20
4844990.571299922
  0
LWPOLYLINE
  5
69
330
17
100
AcDbEntity
  8
ROADS
100
AcDbPolyline
 90
2
 70
0
 10
638797.233549556
 20
4844912.092329906
 10
638766.4365939305
 20
4845014.545652601
  0
LWPOLYLINE
  5
6A
330
17
100
AcDbEntity
  8
ROADS
100
AcDbPolyline
 90
2
 70
0
 10
638233.4081924747
 20
4844819.866260859
 10
638406.6515110526
 20
4844873.011942399
  0
LWPOLYLINE
  5
6B
330
17
100
AcDbEntity
  8
ROADS
100
AcDbPolyline
 90
2
 70
0
 10
638508.2007224939
 20
4844801.845689924
 10
638479.4155749808
 20
4844893.332306553
  0
LWPOLYLINE
  5
6C
330
17
100
AcDbEntity
  8
ROADS
100
AcDbPolyline
 90
2
 70
0
 10
638233.4081924747
 20
4844819.866260859
 10
638213.3351241399
 20
4844882.5087932395
  0
LWPOLYLINE
  5
6D
330
17
100
AcDbEntity
  8
ROADS
100
AcDbPolyline
 90
2
 70
0
 10
638406.6515110526
 20
4844873.011942399
 10
638479.4155749808
 20
4844893.332306553
  0
LWPOLYLINE
  5
6E
330
17
100
AcDbEntity
  8
ROADS
100
AcDbPolyline
 90
2
 70
0
 10
638213.3351241399
 20
4844882.5087932395
 10
638204.552383554
 20
4844908.352236259
  0
LWPOLYLINE
  5
6F
330
17
100
AcDbEntity
  8
ROADS
100
AcDbPolyline
 90
2
 70
0
 10
638479.4155749808
 20
4844893.332306553
 10
638590.9801283939
 20
4844928.3585936
  0
LWPOLYLINE
  5
70
330
17
100
AcDbEntity
  8
ROADS
100
AcDbPolyline
 90
2
 70
0
 10
638406.6515110526
 20
4844873.011942399
 10
638378.2335714861
 20
4844961.505887876
  0
LWPOLYLINE
  5
71
330
17
100
AcDbEntity
  8
ROADS
100
AcDbPolyline
 90
2
 70
0
 10
638204.552383554
 20
4844908.352236259
 10
638294.2945783628
 20
4844936.981786025
  0
LWPOLYLINE
  5
72
330
17
100
AcDbEntity
  8
ROADS
100
AcDbPolyline
 90
2
 70
0
 10
638294.2945783628
 20
4844936.981786025
 10
638378.2335714861
 20
4844961.505887876
  0
LWPOLYLINE
  5
73
330
17
100
AcDbEntity
  8
ROADS
100
AcDbPolyline
 90
2
 70
0
 10
638378.2335714861
 20
4844961.505887876
 10
638656.7756198794
 20
4845043.562961406
  0
LWPOLYLINE
  5
74
330
17
100
AcDbEntity
  8
ROADS
100
AcDbPolyline
 90
2
 70
0
 10
638933.5098742667
 20
4844990.571299922
 10
638906.378777378
 20
4845077.088482495
  0
LWPOLYLINE
  5
75
330
17
100
AcDbEntity
  8
ROADS
100
AcDbPolyline
 90
3
 70
0
 10
638699.7283932772
 20
4845057.335985674
 10
638747.069137156
 20
4845069.2012769235
 10
638766.4365939305
 20
4845014.545652601
  0
LWPOLYLINE
  5
76
330
17
100
AcDbEntity
  8
ROADS
100
AcDbPolyline
 90
2
 70
0
 10
638766.4365939305
 20
4845014.545652601
 10
638906.378777378
 20
4845077.088482495
  0
LWPOLYLINE
  5
77
330
17
100
AcDbEntity
  8
ROADS
100
AcDbPolyline
 90
2
 70
0
 10
638656.7756198794
 20
4845043.562961406
 10
638699.7283932772
 20
4845057.335985674
  0
LWPOLYLINE
  5
78
330
17
100
AcDbEntity
  8
ROADS
100
AcDbPolyline
 90
2
 70
0
 10
638699.7283932772
 20
4845057.335985674
 10
638686.2141134898
 20
4845102.126622071
  0
LWPOLYLINE
  5
79
330
17
100
AcDbEntity
  8
ROADS
100
AcDbPolyline
 90
2
 70
0
 10
638906.378777378
 20
4845077.088482495
 10
638998.4821697794
 20
4845109.761280146
  0
LWPOLYLINE
  5
7A
330
17
100
AcDbEntity
  8
ROADS
100
AcDbPolyline
 90
4
 70
0
 10
638906.378777378
 20
4845077.088482495
 10
638882.2467236809
 20
4845156.659277907
 10
638830.5984475841
 20
4845157.723230935
 10
638805.269242432
 20
4845241.2717122
  0
LWPOLYLINE
  5
7B
330
17
100
AcDbEntity
  8
ROADS
100
AcDbPolyline
 90
2
 70
0
 10
638998.4821697794
 20
4845109.761280146
 10
638956.243221697
 20
4845244.733640701
  0
LWPOLYLINE
  5
7C
330
17
100
AcDbEntity
  8
ROADS
100
AcDbPolyline
 90
2
 70
0
 10
638805.269242432
 20
4845241.2717122
 10
638856.5658655704
 20
4845256.202957234
  0
LWPOLYLINE
  5
7D
330
17
100
AcDbEntity
  8
ROADS
100
AcDbPolyline
 90
2
 70
0
 10
638805.269242432
 20
4845241.2717122
 10
638789.6081099008
 20
4845285.87546558
  0
LWPOLYLINE
  5
7E
330
17
100
AcDbEntity
  8
ROADS
100
AcDbPolyline
 90
2
 70
0
 10
639599.6562781516
 20
4844790.632447178
 10
639759.2427929275
 20
4844843.735139049
  0
LWPOLYLINE
  5
7F
330
17
100
AcDbEntity
  8
ROADS
100
AcDbPolyline
 90
3
 70
0
 10
639599.6562781516
 20
4844790.632447178
 10
639574.0924988117
 20
4844880.178494203
 10
639816.4092204885
 20
4844960.590734637
  0
LWPOLYLINE
  5
80
330
17
100
AcDbEntity
  8
ROADS
100
AcDbPolyline
 90
2
 70
0
 10
639816.4092204885
 20
4844960.590734637
 10
639768.7346960462
 20
4845107.741241365
  0
LWPOLYLINE
  5
81
330
17
100
AcDbEntity
  8
ROADS
100
AcDbPolyline
 90
8
 70
0
 10
639768.7346960462
 20
4845107.741241365
 10
639711.3342183107
 20
4845084.696657015
 10
639655.9121394636
 20
4845007.680535508
 10
639546.6972397257
 20
4844977.6931576
 10
639530.3597598977
 20
4845044.404965335
 10
639665.17169359
 20
4845158.867219951
 10
639711.271169804
 20
4845177.706777488
 10
639770.3164945743
 20
4845161.776271647
  0
LWPOLYLINE
  5
82
330
17
100
AcDbEntity
  8
ROADS
100
AcDbPolyline
 90
2
 70
0
 10
639768.7346960462
 20
4845107.741241365
 10
639770.3164945743
 20
4845161.776271647
  0
LWPOLYLINE
  5
83
330
17
100
AcDbEntity
  8
ROADS
100
AcDbPolyline
 90
3
 70
0
 10
639770.3164945743
 20
4845161.776271647
 10
639800.179744725
 20
4845152.317034121
 10
639848.7348062536
 20
4845170.199963508
  0
LWPOLYLINE
  5
84
330
17
100
AcDbEntity
  8
ROADS
100
AcDbPolyline
 90
2
 70
0
 10
639194.9917443241
 20
4845322.5401405515
 10
639203.3360934107
 20
4845294.399468349
  0
LWPOLYLINE
  5
85
330
17
100
AcDbEntity
  8
ROADS
100
AcDbPolyline
 90
2
 70
0
 10
639194.9917443241
 20
4845322.5401405515
 10
639284.8216018113
 20
4845349.4342982
  0
LWPOLYLINE
  5
86
330
17
100
AcDbEntity
  8
ROADS
100
AcDbPolyline
 90
2
 70
0
 10
639848.7348062536
 20
4845170.199963508
 10
639730.8826355638
 20
4845532.575227879
  0
LWPOLYLINE
  5
87
330
17
100
AcDbEntity
  8
ROADS
100
AcDbPolyline
 90
2
 70
0
 10
639284.8216018113
 20
4845349.4342982
 10
639309.1889055631
 20
4845356.895243239
  0
LWPOLYLINE
  5
88
330
17
100
AcDbEntity
  8
ROADS
100
AcDbPolyline
 90
4
 70
0
 10
638294.2945783628
 20
4844936.981786025
 10
638229.6672067475
 20
4845143.833362069
 10
638310.4439503463
 20
4845177.300108309
 10
638378.2335714861
 20
4844961.505887876
  0
LWPOLYLINE
  5
89
330
17
100
AcDbEntity
  8
ROADS
100
AcDbPolyline
 90
2
 70
0
 10
638204.552383554
 20
4844908.352236259
 10
638094.4178695485
 20
4845260.394569164
  0
LWPOLYLINE
  5
8A
330
17
100
AcDbEntity
  8
ROADS
100
AcDbPolyline
 90
2
 70
0
 10
638094.4178695485
 20
4845260.394569164
 10
638264.708671855
 20
4845310.673724471
  0
LWPOLYLINE
  5
8B
330
17
100
AcDbEntity
  8
ROADS
100
AcDbPolyline
 90
2
 70
0
 10
638094.4178695485
 20
4845260.394569164
 10
638061.9208534533
 20
4845366.816239798
  0
LWPOLYLINE
  5
8C
330
17
100
AcDbEntity
  8
ROADS
100
AcDbPolyline
 90
2
 70
0
 10
638264.708671855
 20
4845310.673724471
 10
638324.6443170437
 20
4845328.571664397
  0
LWPOLYLINE
  5
8D
330
17
100
AcDbEntity
  8
ROADS
100
AcDbPolyline
 90
2
 70
0
 10
638324.6443170437
 20
4845328.571664397
 10
638365.3096621165
 20
4845341.856247797
  0
LWPOLYLINE
  5
8E
330
17
100
AcDbEntity
  8
ROADS
100
AcDbPolyline
 90
2
 70
0
 10
638264.708671855
 20
4845310.673724471
 10
638241.2814487747
 20
4845382.856410272
  0
LWPOLYLINE
  5
8F
330
17
100
AcDbEntity
  8
ROADS
100
AcDbPolyline
 90
2
 70
0
 10
638365.3096621165
 20
4845341.856247797
 10
638342.9532870911
 20
4845411.346085738
  0
LWPOLYLINE
  5
90
330
17
100
AcDbEntity
  8
ROADS
100
AcDbPolyline
 90
2
 70
0
 10
638061.9208534533
 20
4845366.816239798
 10
638153.1006541543
 20
4845395.470933795
  0
LWPOLYLINE
  5
91
330
17
100
AcDbEntity
  8
ROADS
100
AcDbPolyline
 90
3
 70
0
 10
638327.256455303
 20
4845459.964506867
 10
638286.0600014307
 20
4845448.340452109
 10
638324.6443170437
 20
4845328.571664397
  0
LWPOLYLINE
  5
92
330
17
100
AcDbEntity
  8
ROADS
100
AcDbPolyline
 90
2
 70
0
 10
638789.6081099008
 20
4845285.87546558
 10
638741.3372093443
 20
4845271.142023091
  0
LWPOLYLINE
  5
93
330
17
100
AcDbEntity
  8
ROADS
100
AcDbPolyline
 90
3
 70
0
 10
638956.243221697
 20
4845244.733640701
 10
639047.7891211724
 20
4845280.35768298
 10
639030.6643367102
 20
4845359.009287117
  0
LWPOLYLINE
  5
94
330
17
100
AcDbEntity
  8
ROADS
100
AcDbPolyline
 90
2
 70
0
 10
638956.243221697
 20
4845244.733640701
 10
638914.7729445968
 20
4845376.577582099
  0
LWPOLYLINE
  5
95
330
17
100
AcDbEntity
  8
ROADS
100
AcDbPolyline
 90
3
 70
0
 10
638789.6081099008
 20
4845285.87546558
 10
638778.2687543081
 20
4845330.790497899
 10
638914.7729445968
 20
4845376.577582099
  0
LWPOLYLINE
  5
96
330
17
100
AcDbEntity
  8
ROADS
100
AcDbPolyline
 90
2
 70
0
 10
639030.6643367102
 20
4845359.009287117
 10
639093.5601025531
 20
4845378.138992979
  0
LWPOLYLINE
  5
97
330
17
100
AcDbEntity
  8
ROADS
100
AcDbPolyline
 90
2
 70
0
 10
639093.5601025531
 20
4845378.138992979
 10
639171.1553163684
 20
4845401.24525582
  0
LWPOLYLINE
  5
98
330
17
100
AcDbEntity
  8
ROADS
100
AcDbPolyline
 90
3
 70
0
 10
639030.6643367102
 20
4845359.009287117
 10
639013.2757429237
 20
4845427.983162955
 10
639069.3840127385
 20
4845455.994847451
  0
LWPOLYLINE
  5
99
330
17
100
AcDbEntity
  8
ROADS
100
AcDbPolyline
 90
2
 70
0
 10
639093.5601025531
 20
4845378.138992979
 10
639069.3840127385
 20
4845455.994847451
  0
LWPOLYLINE
  5
9A
330
17
100
AcDbEntity
  8
ROADS
100
AcDbPolyline
 90
2
 70
0
 10
638365.3096621165
 20
4845341.856247797
 10
638885.8762261758
 20
4845498.017652586
  0
LWPOLYLINE
  5
9B
330
17
100
AcDbEntity
  8
ROADS
100
AcDbPolyline
 90
2
 70
0
 10
638914.7729445968
 20
4845376.577582099
 10
638885.8762261758
 20
4845498.017652586
  0
LWPOLYLINE
  5
9C
330
17
100
AcDbEntity
  8
ROADS
100
AcDbPolyline
 90
2
 70
0
 10
639171.1553163684
 20
4845401.24525582
 10
639194.9917443241
 20
4845322.5401405515
  0
LWPOLYLINE
  5
9D
330
17
100
AcDbEntity
  8
ROADS
100
AcDbPolyline
 90
2
 70
0
 10
639284.8216018113
 20
4845349.4342982
 10
639260.8267890505
 20
4845428.2695776895
  0
LWPOLYLINE
  5
9E
330
17
100
AcDbEntity
  8
ROADS
100
AcDbPolyline
 90
2
 70
0
 10
639171.1553163684
 20
4845401.24525582
 10
639202.4105468902
 20
4845410.459092887
  0
LWPOLYLINE
  5
9F
330
17
100
AcDbEntity
  8
ROADS
100
AcDbPolyline
 90
2
 70
0
 10
639448.3928562228
 20
4845362.074278629
 10
639461.072438448
 20
4845453.181870082
  0
LWPOLYLINE
  5
A0
330
17
100
AcDbEntity
  8
ROADS
100
AcDbPolyline
 90
2
 70
0
 10
639202.4105468902
 20
4845410.459092887
 10
639260.8267890505
 20
4845428.2695776895
  0
LWPOLYLINE
  5
A1
330
17
100
AcDbEntity
  8
ROADS
100
AcDbPolyline
 90
2
 70
0
 10
639461.072438448
 20
4845453.181870082
 10
639379.1580449981
 20
4845431.770536429
  0
LWPOLYLINE
  5
A2
330
17
100
AcDbEntity
  8
ROADS
100
AcDbPolyline
 90
2
 70
0
 10
639202.4105468902
 20
4845410.459092887
 10
639178.6441147714
 20
4845489.992052536
  0
LWPOLYLINE
  5
A3
330
17
100
AcDbEntity
  8
ROADS
100
AcDbPolyline
 90
2
 70
0
 10
639483.639803521
 20
4845467.864949305
 10
639461.072438448
 20
4845453.181870082
  0
LWPOLYLINE
  5
A4
330
17
100
AcDbEntity
  8
ROADS
100
AcDbPolyline
 90
2
 70
0
 10
639260.8267890505
 20
4845428.2695776895
 10
639231.4001917274
 20
4845505.295314412
  0
LWPOLYLINE
  5
A5
330
17
100
AcDbEntity
  8
ROADS
100
AcDbPolyline
 90
2
 70
0
 10
639231.4001917274
 20
4845505.295314412
 10
639178.6441147714
 20
4845489.992052536
  0
LWPOLYLINE
  5
A6
330
17
100
AcDbEntity
  8
ROADS
100
AcDbPolyline
 90
2
 70
0
 10
639515.6992643111
 20
4844628.866250149
 10
639507.5719175787
 20
4844651.529494128
  0
LWPOLYLINE
  5
A7
330
17
100
AcDbEntity
  8
ROADS
100
AcDbPolyline
 90
2
 70
0
 10
639331.047335388
 20
4844518.972224379
 10
639323.6589203061
 20
4844541.363982318
  0
LWPOLYLINE
  5
A8
330
17
100
AcDbEntity
  8
ROADS
100
AcDbPolyline
 90
2
 70
0
 10
639446.1133835098
 20
4844580.918414439
 10
639323.6589203061
 20
4844541.363982318
  0
LWPOLYLINE
  5
A9
330
17
100
AcDbEntity
  8
ROADS
100
AcDbPolyline
 90
3
 70
0
 10
639323.6589203061
 20
4844541.363982318
 10
639312.3031788087
 20
4844590.392217745
 10
639464.396372684
 20
4844638.159497048
  0
LWPOLYLINE
  5
AA
330
17
100
AcDbEntity
  8
ROADS
100
AcDbPolyline
 90
2
 70
0
 10
639476.8270358532
 20
4844599.680884472
 10
639464.396372684
 20
4844638.159497048
  0
LWPOLYLINE
  5
AB
330
17
100
AcDbEntity
  8
ROADS
100
AcDbPolyline
 90
2
 70
0
 10
639827.4176654244
 20
4844925.8482910935
 10
639816.4092204885
 20
4844960.590734637
  0
LWPOLYLINE
  5
AC
330
17
100
AcDbEntity
  8
ROADS
100
AcDbPolyline
 90
2
 70
0
 10
639894.7133618705
 20
4845028.48004061
 10
639848.7348062536
 20
4845170.199963508
  0
LWPOLYLINE
  5
AD
330
17
100
AcDbEntity
  8
ROADS
100
AcDbPolyline
 90
2
 70
0
 10
639848.7348062536
 20
4845170.199963508
 10
639951.1964577753
 20
4845190.061138265
  0
LWPOLYLINE
  5
AE
330
17
100
AcDbEntity
  8
ROADS
100
AcDbPolyline
 90
2
 70
0
 10
639951.1964577753
 20
4845190.061138265
 10
639970.2769803633
 20
4845195.817475277
  0
LWPOLYLINE
  5
AF
330
17
100
AcDbEntity
  8
ROADS
100
AcDbPolyline
 90
3
 70
0
 10
640004.9669564939
 20
4845319.009303796
 10
639997.3978827702
 20
4845347.917523927
 10
640011.0617702688
 20
4845353.424391425
  0
LWPOLYLINE
  5
B0
330
17
100
AcDbEntity
  8
ROADS
100
AcDbPolyline
 90
3
 70
0
 10
639951.1964577753
 20
4845190.061138265
 10
639885.2044303347
 20
4845364.88377544
 10
640024.67965645
 20
4845489.047651942
  0
LWPOLYLINE
  5
B1
330
17
100
AcDbEntity
  8
ROADS
100
AcDbPolyline
 90
2
 70
0
 10
639302.3448626411
 20
4845625.456741753
 10
639511.45921957
 20
4845689.340603694
  0
LWPOLYLINE
  5
B2
330
17
100
AcDbEntity
  8
ROADS
100
AcDbPolyline
 90
3
 70
0
 10
639432.7377385739
 20
4845631.668443643
 10
639509.6833999831
 20
4845656.296176122
 10
639511.45921957
 20
4845689.340603694
  0
LWPOLYLINE
  5
B3
330
17
100
AcDbEntity
  8
ROADS
100
AcDbPolyline
 90
5
 70
0
 10
639302.3448626411
 20
4845625.456741753
 10
639298.7143641794
 20
4845650.785494301
 10
639314.0753783453
 20
4845661.526702177
 10
639493.227443772
 20
4845714.852993227
 10
639511.45921957
 20
4845689.340603694
  0
LWPOLYLINE
  5
B4
330
17
100
AcDbEntity
  8
ROADS
100
AcDbPolyline
 90
2
 70
0
 10
639511.45921957
 20
4845689.340603694
 10
639678.0336949939
 20
4845738.162738249
  0
LWPOLYLINE
  5
B5
330
17
100
AcDbEntity
  8
ROADS
100
AcDbPolyline
 90
2
 70
0
 10
639678.0336949939
 20
4845738.162738249
 10
639885.5094215248
 20
4845802.940155476
  0
LWPOLYLINE
  5
B6
330
17
100
AcDbEntity
  8
ROADS
100
AcDbPolyline
 90
2
 70
0
 10
639678.0336949939
 20
4845738.162738249
 10
639613.8691142006
 20
4845975.304411578
  0
LWPOLYLINE
  5
B7
330
17
100
AcDbEntity
  8
ROADS
100
AcDbPolyline
 90
2
 70
0
 10
639665.9236734814
 20
4845930.276563209
 10
639673.9037606063
 20
4845903.035359081
  0
LWPOLYLINE
  5
B8
330
17
100
AcDbEntity
  8
ROADS
100
AcDbPolyline
 90
2
 70
0
 10
639665.9236734814
 20
4845930.276563209
 10
639719.7316203371
 20
4845946.479552768
  0
LWPOLYLINE
  5
B9
330
17
100
AcDbEntity
  8
ROADS
100
AcDbPolyline
 90
2
 70
0
 10
639652.7510272556
 20
4845975.246499797
 10
639665.9236734814
 20
4845930.276563209
  0
LWPOLYLINE
  5
BA
330
17
100
AcDbEntity
  8
ROADS
100
AcDbPolyline
 90
2
 70
0
 10
639794.7541384349
 20
4845968.953337231
 10
639807.5071338755
 20
4845943.95277716
  0
LWPOLYLINE
  5
BB
330
17
100
AcDbEntity
  8
ROADS
100
AcDbPolyline
 90
2
 70
0
 10
639885.5094215248
 20
4845802.940155476
 10
639977.719898121
 20
4845830.925968728
  0
LWPOLYLINE
  5
BC
330
17
100
AcDbEntity
  8
ROADS
100
AcDbPolyline
 90
2
 70
0
 10
639885.5094215248
 20
4845802.940155476
 10
639828.5841084964
 20
4845990.844135462
  0
LWPOLYLINE
  5
BD
330
17
100
AcDbEntity
  8
ROADS
100
AcDbPolyline
 90
2
 70
0
 10
639719.7316203371
 20
4845946.479552768
 10
639794.7541384349
 20
4845968.953337231
  0
LWPOLYLINE
  5
BE
330
17
100
AcDbEntity
  8
ROADS
100
AcDbPolyline
 90
2
 70
0
 10
639719.7316203371
 20
4845946.479552768
 10
639702.9383682767
 20
4846001.678950796
  0
LWPOLYLINE
  5
BF
330
17
100
AcDbEntity
  8
ROADS
100
AcDbPolyline
 90
2
 70
0
 10
639794.7541384349
 20
4845968.953337231
 10
639828.5841084964
 20
4845990.844135462
  0
LWPOLYLINE
  5
C0
330
17
100
AcDbEntity
  8
ROADS
100
AcDbPolyline
 90
2
 70
0
 10
639613.8691142006
 20
4845975.304411578
 10
639702.9383682767
 20
4846001.678950796
  0
LWPOLYLINE
  5
C1
330
17
100
AcDbEntity
  8
ROADS
100
AcDbPolyline
 90
2
 70
0
 10
639613.8691142006
 20
4845975.304411578
 10
639604.9700449305
 20
4846005.245235798
  0
LWPOLYLINE
  5
C2
330
17
100
AcDbEntity
  8
ROADS
100
AcDbPolyline
 90
2
 70
0
 10
639702.9383682767
 20
4846001.678950796
 10
639814.3868165908
 20
4846036.671622335
  0
LWPOLYLINE
  5
C3
330
17
100
AcDbEntity
  8
ROADS
100
AcDbPolyline
 90
2
 70
0
 10
639604.9700449305
 20
4846005.245235798
 10
639567.0203090875
 20
4846130.210414512
  0
LWPOLYLINE
  5
C4
330
17
100
AcDbEntity
  8
ROADS
100
AcDbPolyline
 90
2
 70
0
 10
639814.3868165908
 20
4846036.671622335
 10
639792.5917020297
 20
4846107.987063076
  0
LWPOLYLINE
  5
C5
330
17
100
AcDbEntity
  8
ROADS
100
AcDbPolyline
 90
3
 70
0
 10
639644.4861314927
 20
4846142.738487463
 10
639667.8740298377
 20
4846074.453225269
 10
639792.5917020297
 20
4846107.987063076
  0
LWPOLYLINE
  5
C6
330
17
100
AcDbEntity
  8
ROADS
100
AcDbPolyline
 90
2
 70
0
 10
639567.0203090875
 20
4846130.210414512
 10
639644.4861314927
 20
4846142.738487463
  0
LWPOLYLINE
  5
C7
330
17
100
AcDbEntity
  8
ROADS
100
AcDbPolyline
 90
2
 70
0
 10
639828.5841084964
 20
4845990.844135462
 10
639814.3868165908
 20
4846036.671622335
  0
LWPOLYLINE
  5
C8
330
17
100
AcDbEntity
  8
ROADS
100
AcDbPolyline
 90
3
 70
0
 10
639644.4861314927
 20
4846142.738487463
 10
639764.0311555516
 20
4846176.637712877
 10
639792.5917020297
 20
4846107.987063076
  0
LWPOLYLINE
  5
C9
330
17
100
AcDbEntity
  8
ROADS
100
AcDbPolyline
 90
2
 70
0
 10
639567.0203090875
 20
4846130.210414512
 10
639538.1207423438
 20
4846223.848353409
  0
LWPOLYLINE
  5
CA
330
17
100
AcDbEntity
  8
ROADS
100
AcDbPolyline
 90
2
 70
0
 10
639644.4861314927
 20
4846142.738487463
 10
639631.4384766528
 20
4846237.185594423
  0
LWPOLYLINE
  5
CB
330
17
100
AcDbEntity
  8
ROADS
100
AcDbPolyline
 90
3
 70
0
 10
639538.1207423438
 20
4846223.848353409
 10
639599.3945997523
 20
4846244.789057216
 10
639576.9392944608
 20
4846334.249284247
  0
LWPOLYLINE
  5
CC
330
17
100
AcDbEntity
  8
ROADS
100
AcDbPolyline
 90
2
 70
0
 10
639538.1207423438
 20
4846223.848353409
 10
639470.3032831888
 20
4846448.466447914
  0
LWPOLYLINE
  5
CD
330
17
100
AcDbEntity
  8
ROADS
100
AcDbPolyline
 90
2
 70
0
 10
639576.9392944608
 20
4846334.249284247
 10
639620.9660326394
 20
4846347.536910791
  0
LWPOLYLINE
  5
CE
330
17
100
AcDbEntity
  8
ROADS
100
AcDbPolyline
 90
2
 70
0
 10
639785.7683679917
 20
4846392.544913687
 10
639800.6383823139
 20
4846342.487205153
  0
LWPOLYLINE
  5
CF
330
17
100
AcDbEntity
  8
ROADS
100
AcDbPolyline
 90
2
 70
0
 10
639576.9392944608
 20
4846334.249284247
 10
639536.069028227
 20
4846468.6634631455
  0
LWPOLYLINE
  5
D0
330
17
100
AcDbEntity
  8
ROADS
100
AcDbPolyline
 90
4
 70
0
 10
639625.3457197192
 20
4846495.287909277
 10
639654.231802182
 20
4846408.804435609
 10
639712.0029922907
 20
4846414.854263577
 10
639785.7683679917
 20
4846392.544913687
  0
LWPOLYLINE
  5
D1
330
17
100
AcDbEntity
  8
ROADS
100
AcDbPolyline
 90
2
 70
0
 10
639470.3032831888
 20
4846448.466447914
 10
639536.069028227
 20
4846468.6634631455
  0
LWPOLYLINE
  5
D2
330
17
100
AcDbEntity
  8
ROADS
100
AcDbPolyline
 90
3
 70
0
 10
639785.7683679917
 20
4846392.544913687
 10
639835.3626415422
 20
4846382.091008338
 10
639867.9450341196
 20
4846446.689532934
  0
LWPOLYLINE
  5
D3
330
17
100
AcDbEntity
  8
ROADS
100
AcDbPolyline
 90
2
 70
0
 10
639867.9450341196
 20
4846446.689532934
 10
639885.3785235058
 20
4846449.651857765
  0
LWPOLYLINE
  5
D4
330
17
100
AcDbEntity
  8
ROADS
100
AcDbPolyline
 90
2
 70
0
 10
639809.5819113533
 20
4846476.633574209
 10
639867.9450341196
 20
4846446.689532934
  0
LWPOLYLINE
  5
D5
330
17
100
AcDbEntity
  8
ROADS
100
AcDbPolyline
 90
2
 70
0
 10
639470.3032831888
 20
4846448.466447914
 10
639312.7017844042
 20
4846960.646727333
  0
LWPOLYLINE
  5
D6
330
17
100
AcDbEntity
  8
ROADS
100
AcDbPolyline
 90
3
 70
0
 10
639805.7083543534
 20
4846614.576207948
 10
639752.6668881278
 20
4846761.626276688
 10
639659.9995913673
 20
4846835.949388073
  0
LWPOLYLINE
  5
D7
330
17
100
AcDbEntity
  8
ROADS
100
AcDbPolyline
 90
2
 70
0
 10
639495.3720774619
 20
4846720.945418789
 10
639570.9345420207
 20
4846759.321719407
  0
LWPOLYLINE
  5
D8
330
17
100
AcDbEntity
  8
ROADS
100
AcDbPolyline
 90
5
 70
0
 10
639495.3720774619
 20
4846720.945418789
 10
639451.9514624135
 20
4846761.16001563
 10
639432.8288086909
 20
4846805.816101062
 10
639430.385227662
 20
4846833.773608194
 10
639454.594934602
 20
4846867.216379495
  0
LWPOLYLINE
  5
D9
330
17
100
AcDbEntity
  8
ROADS
100
AcDbPolyline
 90
3
 70
0
 10
639570.9345420207
 20
4846759.321719407
 10
639600.5978007438
 20
4846767.862794695
 10
639659.9995913673
 20
4846835.949388073
  0
LWPOLYLINE
  5
DA
330
17
100
AcDbEntity
  8
ROADS
100
AcDbPolyline
 90
3
 70
0
 10
639570.9345420207
 20
4846759.321719407
 10
639546.304480532
 20
4846800.87776882
 10
639454.594934602
 20
4846867.216379495
  0
LWPOLYLINE
  5
DB
330
17
100
AcDbEntity
  8
ROADS
100
AcDbPolyline
 90
2
 70
0
 10
639659.9995913673
 20
4846835.949388073
 10
639681.7928443121
 20
4846864.337254208
  0
LWPOLYLINE
  5
DC
330
17
100
AcDbEntity
  8
ROADS
100
AcDbPolyline
 90
3
 70
0
 10
639454.594934602
 20
4846867.216379495
 10
639405.917060467
 20
4846911.336122617
 10
639379.0943419666
 20
4846980.854187661
  0
LWPOLYLINE
  5
DD
330
17
100
AcDbEntity
  8
ROADS
100
AcDbPolyline
 90
2
 70
0
 10
638342.9532870911
 20
4845411.346085738
 10
638366.3750347085
 20
4845416.840706358
  0
LWPOLYLINE
  5
DE
330
17
100
AcDbEntity
  8
ROADS
100
AcDbPolyline
 90
2
 70
0
 10
638342.9532870911
 20
4845411.346085738
 10
638327.256455303
 20
4845459.964506867
  0
LWPOLYLINE
  5
DF
330
17
100
AcDbEntity
  8
ROADS
100
AcDbPolyline
 90
4
 70
0
 10
638153.1006541543
 20
4845395.470933795
 10
638230.479123009
 20
4845419.875338378
 10
638237.5255270356
 20
4845438.004653344
 10
638194.4930215384
 20
4845570.24003852
  0
LWPOLYLINE
  5
E0
330
17
100
AcDbEntity
  8
ROADS
100
AcDbPolyline
 90
2
 70
0
 10
638327.256455303
 20
4845459.964506867
 10
638308.7656778626
 20
4845520.162438074
  0
LWPOLYLINE
  5
E1
330
17
100
AcDbEntity
  8
ROADS
100
AcDbPolyline
 90
2
 70
0
 10
638308.7656778626
 20
4845520.162438074
 10
638322.4232746065
 20
4845530.252702647
  0
LWPOLYLINE
  5
E2
330
17
100
AcDbEntity
  8
ROADS
100
AcDbPolyline
 90
3
 70
0
 10
638153.1006541543
 20
4845395.470933795
 10
638063.760337193
 20
4845678.884100635
 10
638147.1070601098
 20
4845715.397786272
  0
LWPOLYLINE
  5
E3
330
17
100
AcDbEntity
  8
ROADS
100
AcDbPolyline
 90
2
 70
0
 10
638308.7656778626
 20
4845520.162438074
 10
638282.4226145989
 20
4845598.834939907
  0
LWPOLYLINE
  5
E4
330
17
100
AcDbEntity
  8
ROADS
100
AcDbPolyline
 90
2
 70
0
 10
638194.4930215384
 20
4845570.24003852
 10
638282.4226145989
 20
4845598.834939907
  0
LWPOLYLINE
  5
E5
330
17
100
AcDbEntity
  8
ROADS
100
AcDbPolyline
 90
2
 70
0
 10
638282.4226145989
 20
4845598.834939907
 10
638374.9369446172
 20
4845629.513073489
  0
LWPOLYLINE
  5
E6
330
17
100
AcDbEntity
  8
ROADS
100
AcDbPolyline
 90
2
 70
0
 10
638194.4930215384
 20
4845570.24003852
 10
638147.1070601098
 20
4845715.397786272
  0
LWPOLYLINE
  5
E7
330
17
100
AcDbEntity
  8
ROADS
100
AcDbPolyline
 90
2
 70
0
 10
639730.8826355638
 20
4845532.575227879
 10
639483.639803521
 20
4845467.864949305
  0
LWPOLYLINE
  5
E8
330
17
100
AcDbEntity
  8
ROADS
100
AcDbPolyline
 90
2
 70
0
 10
639178.6441147714
 20
4845489.992052536
 10
639163.5396173773
 20
4845540.912042527
  0
LWPOLYLINE
  5
E9
330
17
100
AcDbEntity
  8
ROADS
100
AcDbPolyline
 90
2
 70
0
 10
639231.4001917274
 20
4845505.295314412
 10
639224.2070780059
 20
4845530.335525391
  0
LWPOLYLINE
  5
EA
330
17
100
AcDbEntity
  8
ROADS
100
AcDbPolyline
 90
2
 70
0
 10
639483.639803521
 20
4845467.864949305
 10
639432.7377385739
 20
4845631.668443643
  0
LWPOLYLINE
  5
EB
330
17
100
AcDbEntity
  8
ROADS
100
AcDbPolyline
 90
3
 70
0
 10
639163.5396173773
 20
4845540.912042527
 10
639210.6348163906
 20
4845565.345204333
 10
639209.525544494
 20
4845597.109234764
  0
LWPOLYLINE
  5
EC
330
17
100
AcDbEntity
  8
ROADS
100
AcDbPolyline
 90
2
 70
0
 10
639209.525544494
 20
4845597.109234764
 10
639266.472574161
 20
4845614.702127372
  0
LWPOLYLINE
  5
ED
330
17
100
AcDbEntity
  8
ROADS
100
AcDbPolyline
 90
3
 70
0
 10
639302.3448626411
 20
4845625.456741753
 10
639322.5527669109
 20
4845599.0910607
 10
639432.7377385739
 20
4845631.668443643
  0
LWPOLYLINE
  5
EE
330
17
100
AcDbEntity
  8
ROADS
100
AcDbPolyline
 90
2
 70
0
 10
639266.472574161
 20
4845614.702127372
 10
639279.2198280708
 20
4845618.678338793
  0
LWPOLYLINE
  5
EF
330
17
100
AcDbEntity
  8
ROADS
100
AcDbPolyline
 90
2
 70
0
 10
639279.2198280708
 20
4845618.678338793
 10
639302.3448626411
 20
4845625.456741753
  0
LWPOLYLINE
  5
F0
330
17
100
AcDbEntity
  8
ROADS
100
AcDbPolyline
 90
2
 70
0
 10
639730.8826355638
 20
4845532.575227879
 10
639678.0336949939
 20
4845738.162738249
  0
LWPOLYLINE
  5
F1
330
17
100
AcDbEntity
  8
ROADS
100
AcDbPolyline
 90
2
 70
0
 10
639069.3840127385
 20
4845455.994847451
 10
639178.6441147714
 20
4845489.992052536
  0
LWPOLYLINE
  5
F2
330
17
100
AcDbEntity
  8
ROADS
100
AcDbPolyline
 90
2
 70
0
 10
638885.8762261758
 20
4845498.017652586
 10
639035.9878731406
 20
4845544.516782284
  0
LWPOLYLINE
  5
F3
330
17
100
AcDbEntity
  8
ROADS
100
AcDbPolyline
 90
3
 70
0
 10
639080.0910133319
 20
4845557.614649646
 10
639102.6555763846
 20
4845520.703623542
 10
639163.5396173773
 20
4845540.912042527
  0
LWPOLYLINE
  5
F4
330
17
100
AcDbEntity
  8
ROADS
100
AcDbPolyline
 90
2
 70
0
 10
639035.9878731406
 20
4845544.516782284
 10
639080.0910133319
 20
4845557.614649646
  0
LWPOLYLINE
  5
F5
330
17
100
AcDbEntity
  8
ROADS
100
AcDbPolyline
 90
2
 70
0
 10
639080.0910133319
 20
4845557.614649646
 10
639209.525544494
 20
4845597.109234764
  0
LWPOLYLINE
  5
F6
330
17
100
AcDbEntity
  8
ROADS
100
AcDbPolyline
 90
5
 70
0
 10
639035.9878731406
 20
4845544.516782284
 10
639030.2976304186
 20
4845581.05931322
 10
639042.4183885248
 20
4845592.348890382
 10
639184.5670581126
 20
4845623.398878367
 10
639209.525544494
 20
4845597.109234764
  0
LWPOLYLINE
  5
F7
330
17
100
AcDbEntity
  8
ROADS
100
AcDbPolyline
 90
2
 70
0
 10
638885.8762261758
 20
4845498.017652586
 10
638813.5923957973
 20
4845764.47112807
  0
LWPOLYLINE
  5
F8
330
17
100
AcDbEntity
  8
ROADS
100
AcDbPolyline
 90
2
 70
0
 10
638529.7710756584
 20
4845677.322334139
 10
638621.3400138669
 20
4845704.983101197
  0
LWPOLYLINE
  5
F9
330
17
100
AcDbEntity
  8
ROADS
100
AcDbPolyline
 90
2
 70
0
 10
638621.3400138669
 20
4845704.983101197
 10
638713.5338301514
 20
4845732.65519924
  0
LWPOLYLINE
  5
FA
330
17
100
AcDbEntity
  8
ROADS
100
AcDbPolyline
 90
2
 70
0
 10
638713.5338301514
 20
4845732.65519924
 10
638813.5923957973
 20
4845764.47112807
  0
LWPOLYLINE
  5
FB
330
17
100
AcDbEntity
  8
ROADS
100
AcDbPolyline
 90
2
 70
0
 10
638374.9369446172
 20
4845629.513073489
 10
638529.7710756584
 20
4845677.322334139
  0
LWPOLYLINE
  5
FC
330
17
100
AcDbEntity
  8
ROADS
100
AcDbPolyline
 90
2
 70
0
 10
638543.1297909872
 20
4845633.56002256
 10
638529.7710756584
 20
4845677.322334139
  0
LWPOLYLINE
  5
FD
330
17
100
AcDbEntity
  8
ROADS
100
AcDbPolyline
 90
2
 70
0
 10
638374.9369446172
 20
4845629.513073489
 10
638341.1461766689
 20
4845734.912274619
  0
LWPOLYLINE
  5
FE
330
17
100
AcDbEntity
  8
ROADS
100
AcDbPolyline
 90
2
 70
0
 10
638282.4226145989
 20
4845598.834939907
 10
638211.8030186993
 20
4845825.580773118
  0
LWPOLYLINE
  5
FF
330
17
100
AcDbEntity
  8
ROADS
100
AcDbPolyline
 90
2
 70
0
 10
638529.7710756584
 20
4845677.322334139
 10
638496.6862411858
 20
4845781.7332676025
  0
LWPOLYLINE
  5
100
330
17
100
AcDbEntity
  8
ROADS
100
AcDbPolyline
 90
2
 70
0
 10
638341.1461766689
 20
4845734.912274619
 10
638496.6862411858
 20
4845781.7332676025
  0
LWPOLYLINE
  5
101
330
17
100
AcDbEntity
  8
ROADS
100
AcDbPolyline
 90
2
 70
0
 10
638147.1070601098
 20
4845715.397786272
 10
638119.4558342902
 20
4845802.906385638
  0
LWPOLYLINE
  5
102
330
17
100
AcDbEntity
  8
ROADS
100
AcDbPolyline
 90
2
 70
0
 10
638029.4563634461
 20
4845778.27333736
 10
638119.4558342902
 20
4845802.906385638
  0
LWPOLYLINE
  5
103
330
17
100
AcDbEntity
  8
ROADS
100
AcDbPolyline
 90
2
 70
0
 10
638341.1461766689
 20
4845734.912274619
 10
638303.4167558855
 20
4845854.24146254
  0
LWPOLYLINE
  5
104
330
17
100
AcDbEntity
  8
ROADS
100
AcDbPolyline
 90
2
 70
0
 10
638119.4558342902
 20
4845802.906385638
 10
638211.8030186993
 20
4845825.580773118
  0
LWPOLYLINE
  5
105
330
17
100
AcDbEntity
  8
ROADS
100
AcDbPolyline
 90
2
 70
0
 10
638621.3400138669
 20
4845704.983101197
 10
638552.1292409855
 20
4845929.750463963
  0
LWPOLYLINE
  5
106
330
17
100
AcDbEntity
  8
ROADS
100
AcDbPolyline
 90
2
 70
0
 10
638813.5923957973
 20
4845764.47112807
 10
638769.5956437946
 20
4845908.687399997
  0
LWPOLYLINE
  5
107
330
17
100
AcDbEntity
  8
ROADS
100
AcDbPolyline
 90
2
 70
0
 10
638643.8861208169
 20
4845957.414705437
 10
638713.5338301514
 20
4845732.65519924
  0
LWPOLYLINE
  5
108
330
17
100
AcDbEntity
  8
ROADS
100
AcDbPolyline
 90
2
 70
0
 10
639116.5489628989
 20
4845754.969113462
 10
639034.9216367259
 20
4845994.464890433
  0
LWPOLYLINE
  5
109
330
17
100
AcDbEntity
  8
ROADS
100
AcDbPolyline
 90
2
 70
0
 10
638552.1292409855
 20
4845929.750463963
 10
638643.8861208169
 20
4845957.414705437
  0
LWPOLYLINE
  5
10A
330
17
100
AcDbEntity
  8
ROADS
100
AcDbPolyline
 90
2
 70
0
 10
638769.5956437946
 20
4845908.687399997
 10
639034.9216367259
 20
4845994.464890433
  0
LWPOLYLINE
  5
10B
330
17
100
AcDbEntity
  8
ROADS
100
AcDbPolyline
 90
2
 70
0
 10
638612.7481614174
 20
4846057.861521907
 10
638643.8861208169
 20
4845957.414705437
  0
LWPOLYLINE
  5
10C
330
17
100
AcDbEntity
  8
ROADS
100
AcDbPolyline
 90
2
 70
0
 10
638769.5956437946
 20
4845908.687399997
 10
638694.8461764347
 20
4846149.358058374
  0
LWPOLYLINE
  5
10D
330
17
100
AcDbEntity
  8
ROADS
100
AcDbPolyline
 90
2
 70
0
 10
638595.6825862054
 20
4846116.558137591
 10
638612.7481614174
 20
4846057.861521907
  0
LWPOLYLINE
  5
10E
330
17
100
AcDbEntity
  8
ROADS
100
AcDbPolyline
 90
2
 70
0
 10
638595.6825862054
 20
4846116.558137591
 10
638642.0231747968
 20
4846132.399846649
  0
LWPOLYLINE
  5
10F
330
17
100
AcDbEntity
  8
ROADS
100
AcDbPolyline
 90
2
 70
0
 10
638211.8030186993
 20
4845825.580773118
 10
638303.4167558855
 20
4845854.24146254
  0
LWPOLYLINE
  5
110
330
17
100
AcDbEntity
  8
ROADS
100
AcDbPolyline
 90
2
 70
0
 10
638496.6862411858
 20
4845781.7332676025
 10
638460.044331774
 20
4845903.081392595
  0
LWPOLYLINE
  5
111
330
17
100
AcDbEntity
  8
ROADS
100
AcDbPolyline
 90
2
 70
0
 10
638303.4167558855
 20
4845854.24146254
 10
638460.044331774
 20
4845903.081392595
  0
LWPOLYLINE
  5
112
330
17
100
AcDbEntity
  8
ROADS
100
AcDbPolyline
 90
2
 70
0
 10
638303.4167558855
 20
4845854.24146254
 10
638271.4660662136
 20
4845954.672467131
  0
LWPOLYLINE
  5
113
330
17
100
AcDbEntity
  8
ROADS
100
AcDbPolyline
 90
2
 70
0
 10
638460.044331774
 20
4845903.081392595
 10
638552.1292409855
 20
4845929.750463963
  0
LWPOLYLINE
  5
114
330
17
100
AcDbEntity
  8
ROADS
100
AcDbPolyline
 90
2
 70
0
 10
638460.044331774
 20
4845903.081392595
 10
638424.6755164556
 20
4846002.450440333
  0
LWPOLYLINE
  5
115
330
17
100
AcDbEntity
  8
ROADS
100
AcDbPolyline
 90
2
 70
0
 10
638119.4558342902
 20
4845802.906385638
 10
638022.213997019
 20
4846105.174116824
  0
LWPOLYLINE
  5
116
330
17
100
AcDbEntity
  8
ROADS
100
AcDbPolyline
 90
2
 70
0
 10
638211.8030186993
 20
4845825.580773118
 10
638116.7417333846
 20
4846117.887123915
  0
LWPOLYLINE
  5
117
330
17
100
AcDbEntity
  8
ROADS
100
AcDbPolyline
 90
2
 70
0
 10
638271.4660662136
 20
4845954.672467131
 10
638424.6755164556
 20
4846002.450440333
  0
LWPOLYLINE
  5
118
330
17
100
AcDbEntity
  8
ROADS
100
AcDbPolyline
 90
2
 70
0
 10
638271.4660662136
 20
4845954.672467131
 10
638241.9116763051
 20
4846047.146089252
  0
LWPOLYLINE
  5
119
330
17
100
AcDbEntity
  8
ROADS
100
AcDbPolyline
 90
2
 70
0
 10
638424.6755164556
 20
4846002.450440333
 10
638612.7481614174
 20
4846057.861521907
  0
LWPOLYLINE
  5
11A
330
17
100
AcDbEntity
  8
ROADS
100
AcDbPolyline
 90
2
 70
0
 10
638424.6755164556
 20
4846002.450440333
 10
638395.8250289247
 20
4846093.937753276
  0
LWPOLYLINE
  5
11B
330
17
100
AcDbEntity
  8
ROADS
100
AcDbPolyline
 90
2
 70
0
 10
638241.9116763051
 20
4846047.146089252
 10
638395.8250289247
 20
4846093.937753276
  0
LWPOLYLINE
  5
11C
330
17
100
AcDbEntity
  8
ROADS
100
AcDbPolyline
 90
2
 70
0
 10
638241.9116763051
 20
4846047.146089252
 10
638209.1491058973
 20
4846147.563354247
  0
LWPOLYLINE
  5
11D
330
17
100
AcDbEntity
  8
ROADS
100
AcDbPolyline
 90
2
 70
0
 10
638022.213997019
 20
4846105.174116824
 10
638116.7417333846
 20
4846117.887123915
  0
LWPOLYLINE
  5
11E
330
17
100
AcDbEntity
  8
ROADS
100
AcDbPolyline
 90
2
 70
0
 10
638395.8250289247
 20
4846093.937753276
 10
638588.4292624723
 20
4846161.432108135
  0
LWPOLYLINE
  5
11F
330
17
100
AcDbEntity
  8
ROADS
100
AcDbPolyline
 90
2
 70
0
 10
638116.7417333846
 20
4846117.887123915
 10
638209.1491058973
 20
4846147.563354247
  0
LWPOLYLINE
  5
120
330
17
100
AcDbEntity
  8
ROADS
100
AcDbPolyline
 90
2
 70
0
 10
638395.8250289247
 20
4846093.937753276
 10
638364.4391276906
 20
4846194.378992788
  0
LWPOLYLINE
  5
121
330
17
100
AcDbEntity
  8
ROADS
100
AcDbPolyline
 90
2
 70
0
 10
638209.1491058973
 20
4846147.563354247
 10
638364.4391276906
 20
4846194.378992788
  0
LWPOLYLINE
  5
122
330
17
100
AcDbEntity
  8
ROADS
100
AcDbPolyline
 90
2
 70
0
 10
638209.1491058973
 20
4846147.563354247
 10
638179.7377282172
 20
4846239.040438147
  0
LWPOLYLINE
  5
123
330
17
100
AcDbEntity
  8
ROADS
100
AcDbPolyline
 90
2
 70
0
 10
637934.4134851452
 20
4846076.581441282
 10
638022.213997019
 20
4846105.174116824
  0
LWPOLYLINE
  5
124
330
17
100
AcDbEntity
  8
ROADS
100
AcDbPolyline
 90
2
 70
0
 10
637843.5497101485
 20
4846047.933303038
 10
637800.331077635
 20
4846180.164087294
  0
LWPOLYLINE
  5
125
330
17
100
AcDbEntity
  8
ROADS
100
AcDbPolyline
 90
2
 70
0
 10
637934.4134851452
 20
4846076.581441282
 10
637906.539687963
 20
4846214.090639636
  0
LWPOLYLINE
  5
126
330
17
100
AcDbEntity
  8
ROADS
100
AcDbPolyline
 90
2
 70
0
 10
638022.213997019
 20
4846105.174116824
 10
637982.0863749841
 20
4846239.461135185
  0
LWPOLYLINE
  5
127
330
17
100
AcDbEntity
  8
ROADS
100
AcDbPolyline
 90
2
 70
0
 10
637906.539687963
 20
4846214.090639636
 10
637982.0863749841
 20
4846239.461135185
  0
LWPOLYLINE
  5
128
330
17
100
AcDbEntity
  8
ROADS
100
AcDbPolyline
 90
2
 70
0
 10
637800.331077635
 20
4846180.164087294
 10
637727.8067617569
 20
4846406.039902362
  0
LWPOLYLINE
  5
129
330
17
100
AcDbEntity
  8
ROADS
100
AcDbPolyline
 90
2
 70
0
 10
638116.7417333846
 20
4846117.887123915
 10
637995.9291219787
 20
4846499.73842537
  0
LWPOLYLINE
  5
12A
330
17
100
AcDbEntity
  8
ROADS
100
AcDbPolyline
 90
3
 70
0
 10
637906.539687963
 20
4846214.090639636
 10
637857.214181405
 20
4846366.212707046
 10
637809.4737248708
 20
4846432.031324698
  0
LWPOLYLINE
  5
12B
330
17
100
AcDbEntity
  8
ROADS
100
AcDbPolyline
 90
4
 70
0
 10
637982.0863749841
 20
4846239.461135185
 10
637929.6062441182
 20
4846403.527230492
 10
637894.7241251094
 20
4846458.9017383745
 10
637900.4791776908
 20
4846500.010837593
  0
LWPOLYLINE
  5
12C
330
17
100
AcDbEntity
  8
ROADS
100
AcDbPolyline
 90
2
 70
0
 10
637727.8067617569
 20
4846406.039902362
 10
637809.4737248708
 20
4846432.031324698
  0
LWPOLYLINE
  5
12D
330
17
100
AcDbEntity
  8
ROADS
100
AcDbPolyline
 90
2
 70
0
 10
638470.4378521071
 20
4846229.301898463
 10
638588.4292624723
 20
4846161.432108135
  0
LWPOLYLINE
  5
12E
330
17
100
AcDbEntity
  8
ROADS
100
AcDbPolyline
 90
2
 70
0
 10
638364.4391276906
 20
4846194.378992788
 10
638470.4378521071
 20
4846229.301898463
  0
LWPOLYLINE
  5
12F
330
17
100
AcDbEntity
  8
ROADS
100
AcDbPolyline
 90
2
 70
0
 10
638354.6443857318
 20
4846293.212065981
 10
638470.4378521071
 20
4846229.301898463
  0
LWPOLYLINE
  5
130
330
17
100
AcDbEntity
  8
ROADS
100
AcDbPolyline
 90
2
 70
0
 10
638179.7377282172
 20
4846239.040438147
 10
638354.6443857318
 20
4846293.212065981
  0
LWPOLYLINE
  5
131
330
17
100
AcDbEntity
  8
ROADS
100
AcDbPolyline
 90
2
 70
0
 10
638270.667472524
 20
4846344.284153753
 10
638354.6443857318
 20
4846293.212065981
  0
LWPOLYLINE
  5
132
330
17
100
AcDbEntity
  8
ROADS
100
AcDbPolyline
 90
2
 70
0
 10
638179.7377282172
 20
4846239.040438147
 10
638120.3652461631
 20
4846429.151282758
  0
LWPOLYLINE
  5
133
330
17
100
AcDbEntity
  8
ROADS
100
AcDbPolyline
 90
2
 70
0
 10
638120.3652461631
 20
4846429.151282758
 10
638270.667472524
 20
4846344.284153753
  0
LWPOLYLINE
  5
134
330
17
100
AcDbEntity
  8
ROADS
100
AcDbPolyline
 90
3
 70
0
 10
638452.5341577829
 20
4846433.99830386
 10
638574.7039690434
 20
4846363.203976579
 10
638630.6996450357
 20
4846367.219429863
  0
LWPOLYLINE
  5
135
330
17
100
AcDbEntity
  8
ROADS
100
AcDbPolyline
 90
2
 70
0
 10
638270.667472524
 20
4846344.284153753
 10
638357.01364424
 20
4846489.788767545
  0
LWPOLYLINE
  5
136
330
17
100
AcDbEntity
  8
ROADS
100
AcDbPolyline
 90
2
 70
0
 10
638357.01364424
 20
4846489.788767545
 10
638452.5341577829
 20
4846433.99830386
  0
LWPOLYLINE
  5
137
330
17
100
AcDbEntity
  8
ROADS
100
AcDbPolyline
 90
2
 70
0
 10
638235.706200489
 20
4846558.085382118
 10
638357.01364424
 20
4846489.788767545
  0
LWPOLYLINE
  5
138
330
17
100
AcDbEntity
  8
ROADS
100
AcDbPolyline
 90
3
 70
0
 10
638452.5341577829
 20
4846433.99830386
 10
638464.8660436897
 20
4846481.226164466
 10
638374.2561927184
 20
4846761.7910559345
  0
LWPOLYLINE
  5
139
330
17
100
AcDbEntity
  8
ROADS
100
AcDbPolyline
 90
2
 70
0
 10
638064.5960409256
 20
4846652.997515588
 10
638235.706200489
 20
4846558.085382118
  0
LWPOLYLINE
  5
13A
330
17
100
AcDbEntity
  8
ROADS
100
AcDbPolyline
 90
2
 70
0
 10
638562.9298429586
 20
4846585.014095026
 10
638547.8923104402
 20
4846633.057380878
  0
LWPOLYLINE
  5
13B
330
17
100
AcDbEntity
  8
ROADS
100
AcDbPolyline
 90
2
 70
0
 10
638357.01364424
 20
4846489.788767545
 10
638280.325520506
 20
4846730.908939021
  0
LWPOLYLINE
  5
13C
330
17
100
AcDbEntity
  8
ROADS
100
AcDbPolyline
 90
2
 70
0
 10
638547.8923104402
 20
4846633.057380878
 10
638480.867480596
 20
4846599.286284134
  0
LWPOLYLINE
  5
13D
330
17
100
AcDbEntity
  8
ROADS
100
AcDbPolyline
 90
3
 70
0
 10
638037.3021618106
 20
4846672.505053757
 10
638183.4864762501
 20
4846725.156556357
 10
638235.706200489
 20
4846558.085382118
  0
LWPOLYLINE
  5
13E
330
17
100
AcDbEntity
  8
ROADS
100
AcDbPolyline
 90
2
 70
0
 10
638547.8923104402
 20
4846633.057380878
 10
638517.4697954995
 20
4846729.883718488
  0
LWPOLYLINE
  5
13F
330
17
100
AcDbEntity
  8
ROADS
100
AcDbPolyline
 90
2
 70
0
 10
638517.4697954995
 20
4846729.883718488
 10
638451.4072280794
 20
4846718.9082188215
  0
LWPOLYLINE
  5
140
330
17
100
AcDbEntity
  8
ROADS
100
AcDbPolyline
 90
2
 70
0
 10
638280.325520506
 20
4846730.908939021
 10
638374.2561927184
 20
4846761.7910559345
  0
LWPOLYLINE
  5
141
330
17
100
AcDbEntity
  8
ROADS
100
AcDbPolyline
 90
2
 70
0
 10
637722.2502179635
 20
4845138.448305503
 10
637844.4418211884
 20
4845177.851622375
  0
LWPOLYLINE
  5
142
330
17
100
AcDbEntity
  8
ROADS
100
AcDbPolyline
 90
2
 70
0
 10
637844.4418211884
 20
4845177.851622375
 10
638094.4178695485
 20
4845260.394569164
  0
LWPOLYLINE
  5
143
330
17
100
AcDbEntity
  8
ROADS
100
AcDbPolyline
 90
2
 70
0
 10
638061.9208534533
 20
4845366.816239798
 10
637938.7484963118
 20
4845750.070137491
  0
LWPOLYLINE
  5
144
330
17
100
AcDbEntity
  8
ROADS
100
AcDbPolyline
 90
2
 70
0
 10
637844.4418211884
 20
4845177.851622375
 10
637630.1911628392
 20
4845849.527079387
  0
LWPOLYLINE
  5
145
330
17
100
AcDbEntity
  8
ROADS
100
AcDbPolyline
 90
3
 70
0
 10
637624.1678232935
 20
4845868.4102388285
 10
637553.9024933125
 20
4846088.691931266
 10
637800.331077635
 20
4846180.164087294
  0
LWPOLYLINE
  5
146
330
17
100
AcDbEntity
  8
ROADS
100
AcDbPolyline
 90
2
 70
0
 10
637938.7484963118
 20
4845750.070137491
 10
638029.4563634461
 20
4845778.27333736
  0
LWPOLYLINE
  5
147
330
17
100
AcDbEntity
  8
ROADS
100
AcDbPolyline
 90
2
 70
0
 10
637938.7484963118
 20
4845750.070137491
 10
637843.5497101485
 20
4846047.933303038
  0
LWPOLYLINE
  5
148
330
17
100
AcDbEntity
  8
ROADS
100
AcDbPolyline
 90
2
 70
0
 10
638029.4563634461
 20
4845778.27333736
 10
637934.4134851452
 20
4846076.581441282
  0
LWPOLYLINE
  5
149
330
17
100
AcDbEntity
  8
ROADS
100
AcDbPolyline
 90
2
 70
0
 10
637843.5497101485
 20
4846047.933303038
 10
637934.4134851452
 20
4846076.581441282
  0
LWPOLYLINE
  5
14A
330
17
100
AcDbEntity
  8
ROADS
100
AcDbPolyline
 90
2
 70
0
 10
637323.1319122624
 20
4846691.15782345
 10
637337.5275496043
 20
4846696.0318368375
  0
LWPOLYLINE
  5
14B
330
17
100
AcDbEntity
  8
ROADS
100
AcDbPolyline
 90
2
 70
0
 10
637995.9291219787
 20
4846499.73842537
 10
638120.3652461631
 20
4846429.151282758
  0
LWPOLYLINE
  5
14C
330
17
100
AcDbEntity
  8
ROADS
100
AcDbPolyline
 90
2
 70
0
 10
637727.8067617569
 20
4846406.039902362
 10
637690.3843919451
 20
4846523.039142781
  0
LWPOLYLINE
  5
14D
330
17
100
AcDbEntity
  8
ROADS
100
AcDbPolyline
 90
3
 70
0
 10
637809.4737248708
 20
4846432.031324698
 10
637830.6450049158
 20
4846476.741940914
 10
637900.4791776908
 20
4846500.010837593
  0
LWPOLYLINE
  5
14E
330
17
100
AcDbEntity
  8
ROADS
100
AcDbPolyline
 90
2
 70
0
 10
637900.4791776908
 20
4846500.010837593
 10
637995.9291219787
 20
4846499.73842537
  0
LWPOLYLINE
  5
14F
330
17
100
AcDbEntity
  8
ROADS
100
AcDbPolyline
 90
2
 70
0
 10
637690.3843919451
 20
4846523.039142781
 10
637684.048888996
 20
4846542.36021417
  0
LWPOLYLINE
  5
150
330
17
100
AcDbEntity
  8
ROADS
100
AcDbPolyline
 90
3
 70
0
 10
637900.4791776908
 20
4846500.010837593
 10
637869.5666432005
 20
4846578.895435375
 10
637690.3843919451
 20
4846523.039142781
  0
LWPOLYLINE
  5
151
330
17
100
AcDbEntity
  8
ROADS
100
AcDbPolyline
 90
3
 70
0
 10
637995.9291219787
 20
4846499.73842537
 10
637996.1959185826
 20
4846536.746756134
 10
638064.5960409256
 20
4846652.997515588
  0
LWPOLYLINE
  5
152
330
17
100
AcDbEntity
  8
ROADS
100
AcDbPolyline
 90
2
 70
0
 10
638037.3021618106
 20
4846672.505053757
 10
638064.5960409256
 20
4846652.997515588
  0
LWPOLYLINE
  5
153
330
17
100
AcDbEntity
  8
ROADS
100
AcDbPolyline
 90
2
 70
0
 10
637684.048888996
 20
4846542.36021417
 10
637604.7612153476
 20
4846789.687389041
  0
LWPOLYLINE
  5
154
330
17
100
AcDbEntity
  8
ROADS
100
AcDbPolyline
 90
2
 70
0
 10
638037.3021618106
 20
4846672.505053757
 10
638022.3253040055
 20
4846723.769664226
  0
LWPOLYLINE
  5
155
330
17
100
AcDbEntity
  8
ROADS
100
AcDbPolyline
 90
2
 70
0
 10
637470.5044817129
 20
4846468.057280854
 10
637684.048888996
 20
4846542.36021417
  0
LWPOLYLINE
  5
156
330
17
100
AcDbEntity
  8
ROADS
100
AcDbPolyline
 90
2
 70
0
 10
637337.5275496043
 20
4846696.0318368375
 10
637604.7612153476
 20
4846789.687389041
  0
LWPOLYLINE
  5
157
330
17
100
AcDbEntity
  8
ROADS
100
AcDbPolyline
 90
2
 70
0
 10
637337.5275496043
 20
4846696.0318368375
 10
637264.8771039264
 20
4846920.243795867
  0
LWPOLYLINE
  5
158
330
17
100
AcDbEntity
  8
ROADS
100
AcDbPolyline
 90
2
 70
0
 10
637604.7612153476
 20
4846789.687389041
 10
637566.4601135278
 20
4846913.010220741
  0
LWPOLYLINE
  5
159
330
17
100
AcDbEntity
  8
ROADS
100
AcDbPolyline
 90
2
 70
0
 10
637264.8771039264
 20
4846920.243795867
 10
637423.7332006469
 20
4846976.982176619
  0
LWPOLYLINE
  5
15A
330
17
100
AcDbEntity
  8
ROADS
100
AcDbPolyline
 90
2
 70
0
 10
637566.4601135278
 20
4846913.010220741
 10
637532.5202513799
 20
4847016.408157926
  0
LWPOLYLINE
  5
15B
330
17
100
AcDbEntity
  8
ROADS
100
AcDbPolyline
 90
2
 70
0
 10
637423.7332006469
 20
4846976.982176619
 10
637532.5202513799
 20
4847016.408157926
  0
LWPOLYLINE
  5
15C
330
17
100
AcDbEntity
  8
ROADS
100
AcDbPolyline
 90
3
 70
0
 10
637532.5202513799
 20
4847016.408157926
 10
637518.3455253904
 20
4847088.538148453
 10
637533.3175732476
 20
4847190.091785944
  0
LWPOLYLINE
  5
15D
330
17
100
AcDbEntity
  8
ROADS
100
AcDbPolyline
 90
2
 70
0
 10
637533.3175732476
 20
4847190.091785944
 10
637594.8598954402
 20
4847211.150420942
  0
LWPOLYLINE
  5
15E
330
17
100
AcDbEntity
  8
ROADS
100
AcDbPolyline
 90
2
 70
0
 10
639536.069028227
 20
4846468.6634631455
 10
639625.3457197192
 20
4846495.287909277
  0
LWPOLYLINE
  5
15F
330
17
100
AcDbEntity
  8
ROADS
100
AcDbPolyline
 90
3
 70
0
 10
639625.3457197192
 20
4846495.287909277
 10
639721.420317437
 20
4846509.035196758
 10
639809.5819113533
 20
4846476.633574209
  0
LWPOLYLINE
  5
160
330
17
100
AcDbEntity
  8
ROADS
100
AcDbPolyline
 90
2
 70
0
 10
639536.069028227
 20
4846468.6634631455
 10
639509.2752374546
 20
4846557.184995172
  0
LWPOLYLINE
  5
161
330
17
100
AcDbEntity
  8
ROADS
100
AcDbPolyline
 90
3
 70
0
 10
639809.5819113533
 20
4846476.633574209
 10
639830.642936145
 20
4846532.021528067
 10
639805.7083543534
 20
4846614.576207948
  0
LWPOLYLINE
  5
162
330
17
100
AcDbEntity
  8
ROADS
100
AcDbPolyline
 90
2
 70
0
 10
639509.2752374546
 20
4846557.184995172
 10
639596.347324971
 20
4846584.76863202
  0
LWPOLYLINE
  5
163
330
17
100
AcDbEntity
  8
ROADS
100
AcDbPolyline
 90
2
 70
0
 10
639596.347324971
 20
4846584.76863202
 10
639711.6131727544
 20
4846601.864838409
  0
LWPOLYLINE
  5
164
330
17
100
AcDbEntity
  8
ROADS
100
AcDbPolyline
 90
2
 70
0
 10
639711.6131727544
 20
4846601.864838409
 10
639805.7083543534
 20
4846614.576207948
  0
LWPOLYLINE
  5
165
330
17
100
AcDbEntity
  8
ROADS
100
AcDbPolyline
 90
6
 70
0
 10
639604.9700449305
 20
4846005.245235798
 10
639476.6042912402
 20
4845967.529978866
 10
639434.2835099736
 20
4845998.763698455
 10
639211.1566383829
 20
4846572.767518372
 10
639011.6242418935
 20
4847231.796231744
 10
639014.1856326154
 20
4847260.829458153
  0
LWPOLYLINE
  5
166
330
17
100
AcDbEntity
  8
ROADS
100
AcDbPolyline
 90
3
 70
0
 10
639509.2752374546
 20
4846557.184995172
 10
639479.1150915007
 20
4846655.645530541
 10
639495.3720774619
 20
4846720.945418789
  0
LWPOLYLINE
  5
167
330
17
100
AcDbEntity
  8
ROADS
100
AcDbPolyline
 90
4
 70
0
 10
639596.347324971
 20
4846584.76863202
 10
639573.0011596127
 20
4846669.352218966
 10
639678.6674069008
 20
4846702.275174081
 10
639711.6131727544
 20
4846601.864838409
  0
LWPOLYLINE
  5
168
330
17
100
AcDbEntity
  8
ROADS
100
AcDbPolyline
 90
2
 70
0
 10
638588.4292624723
 20
4846161.432108135
 10
638595.6825862054
 20
4846116.558137591
  0
LWPOLYLINE
  5
169
330
17
100
AcDbEntity
  8
ROADS
100
AcDbPolyline
 90
2
 70
0
 10
638642.0231747968
 20
4846132.399846649
 10
638694.8461764347
 20
4846149.358058374
  0
LWPOLYLINE
  5
16A
330
17
100
AcDbEntity
  8
ROADS
100
AcDbPolyline
 90
2
 70
0
 10
638588.4292624723
 20
4846161.432108135
 10
638642.0231747968
 20
4846132.399846649
  0
LWPOLYLINE
  5
16B
330
17
100
AcDbEntity
  8
ROADS
100
AcDbPolyline
 90
2
 70
0
 10
638694.8461764347
 20
4846149.358058374
 10
638630.6996450357
 20
4846367.219429863
  0
LWPOLYLINE
  5
16C
330
17
100
AcDbEntity
  8
ROADS
100
AcDbPolyline
 90
4
 70
0
 10
639034.9216367259
 20
4845994.464890433
 10
639014.5310457296
 20
4846048.146381908
 10
638952.6917055473
 20
4846125.032033981
 10
638790.1647304058
 20
4846656.13629703
  0
LWPOLYLINE
  5
16D
330
17
100
AcDbEntity
  8
ROADS
100
AcDbPolyline
 90
2
 70
0
 10
638630.6996450357
 20
4846367.219429863
 10
638562.9298429586
 20
4846585.014095026
  0
LWPOLYLINE
  5
16E
330
17
100
AcDbEntity
  8
ROADS
100
AcDbPolyline
 90
2
 70
0
 10
638562.9298429586
 20
4846585.014095026
 10
638790.1647304058
 20
4846656.13629703
  0
LWPOLYLINE
  5
16F
330
17
100
AcDbEntity
  8
ROADS
100
AcDbPolyline
 90
2
 70
0
 10
638790.1647304058
 20
4846656.13629703
 10
638671.458264212
 20
4847043.023814601
  0
LWPOLYLINE
  5
170
330
17
100
AcDbEntity
  8
ROADS
100
AcDbPolyline
 90
2
 70
0
 10
638867.9791523818
 20
4847215.6249193605
 10
638847.7627838578
 20
4847209.077119751
  0
LWPOLYLINE
  5
171
330
17
100
AcDbEntity
  8
ROADS
100
AcDbPolyline
 90
2
 70
0
 10
638867.9791523818
 20
4847215.6249193605
 10
638853.9802256434
 20
4847259.7146497825
  0
LWPOLYLINE
  5
172
330
17
100
AcDbEntity
  8
ROADS
100
AcDbPolyline
 90
2
 70
0
 10
638517.4697954995
 20
4846729.883718488
 10
638497.0590645438
 20
4846801.926983033
  0
LWPOLYLINE
  5
173
330
17
100
AcDbEntity
  8
ROADS
100
AcDbPolyline
 90
2
 70
0
 10
638374.2561927184
 20
4846761.7910559345
 10
638497.0590645438
 20
4846801.926983033
  0
LWPOLYLINE
  5
174
330
17
100
AcDbEntity
  8
ROADS
100
AcDbPolyline
 90
2
 70
0
 10
638280.325520506
 20
4846730.908939021
 10
638215.2397372772
 20
4846931.646294173
  0
LWPOLYLINE
  5
175
330
17
100
AcDbEntity
  8
ROADS
100
AcDbPolyline
 90
2
 70
0
 10
637980.8112159136
 20
4846850.9388293205
 10
638215.2397372772
 20
4846931.646294173
  0
LWPOLYLINE
  5
176
330
17
100
AcDbEntity
  8
ROADS
100
AcDbPolyline
 90
2
 70
0
 10
638374.2561927184
 20
4846761.7910559345
 10
638248.8778897771
 20
4847145.37790241
  0
LWPOLYLINE
  5
177
330
17
100
AcDbEntity
  8
ROADS
100
AcDbPolyline
 90
3
 70
0
 10
637961.8868888227
 20
4846908.170493288
 10
637964.2337357738
 20
4846947.061671991
 10
638185.0688838289
 20
4847022.80252857
  0
LWPOLYLINE
  5
178
330
17
100
AcDbEntity
  8
ROADS
100
AcDbPolyline
 90
2
 70
0
 10
638215.2397372772
 20
4846931.646294173
 10
638185.0688838289
 20
4847022.80252857
  0
LWPOLYLINE
  5
179
330
17
100
AcDbEntity
  8
ROADS
100
AcDbPolyline
 90
2
 70
0
 10
638497.0590645438
 20
4846801.926983033
 10
638354.5342186436
 20
4847299.017250745
  0
LWPOLYLINE
  5
17A
330
17
100
AcDbEntity
  8
ROADS
100
AcDbPolyline
 90
2
 70
0
 10
638185.0688838289
 20
4847022.80252857
 10
638154.859711298
 20
4847114.803133182
  0
LWPOLYLINE
  5
17B
330
17
100
AcDbEntity
  8
ROADS
100
AcDbPolyline
 90
2
 70
0
 10
638005.8466990386
 20
4847063.228333687
 10
638154.859711298
 20
4847114.803133182
  0
LWPOLYLINE
  5
17C
330
17
100
AcDbEntity
  8
ROADS
100
AcDbPolyline
 90
2
 70
0
 10
639312.7017844042
 20
4846960.646727333
 10
639379.0943419666
 20
4846980.854187661
  0
LWPOLYLINE
  5
17D
330
17
100
AcDbEntity
  8
ROADS
100
AcDbPolyline
 90
5
 70
0
 10
639633.1493852524
 20
4846959.697591034
 10
639577.0720157331
 20
4846893.446187241
 10
639474.8498306794
 20
4846977.595142495
 10
639453.4845264221
 20
4847032.211586131
 10
639510.3539403046
 20
4847081.25244464
  0
LWPOLYLINE
  5
17E
330
17
100
AcDbEntity
  8
ROADS
100
AcDbPolyline
 90
3
 70
0
 10
639627.3651895232
 20
4846988.169198892
 10
639566.5002801343
 20
4847018.267106141
 10
639510.3539403046
 20
4847081.25244464
  0
LWPOLYLINE
  5
17F
330
17
100
AcDbEntity
  8
ROADS
100
AcDbPolyline
 90
3
 70
0
 10
639379.0943419666
 20
4846980.854187661
 10
639358.7948512111
 20
4847052.492597839
 10
639381.0777848046
 20
4847157.907583645
  0
LWPOLYLINE
  5
180
330
17
100
AcDbEntity
  8
ROADS
100
AcDbPolyline
 90
2
 70
0
 10
639312.7017844042
 20
4846960.646727333
 10
639201.0177338072
 20
4847325.325760488
  0
LWPOLYLINE
  5
181
330
17
100
AcDbEntity
  8
ROADS
100
AcDbPolyline
 90
4
 70
0
 10
639510.3539403046
 20
4847081.25244464
 10
639470.2701854827
 20
4847168.531091686
 10
639476.2771381338
 20
4847209.643959203
 10
639511.6839098233
 20
4847263.294569405
  0
LWPOLYLINE
  5
182
330
17
100
AcDbEntity
  8
ROADS
100
AcDbPolyline
 90
2
 70
0
 10
638154.859711298
 20
4847114.803133182
 10
638248.8778897771
 20
4847145.37790241
  0
LWPOLYLINE
  5
183
330
17
100
AcDbEntity
  8
ROADS
100
AcDbPolyline
 90
2
 70
0
 10
638248.8778897771
 20
4847145.37790241
 10
638294.1586645878
 20
4847161.198540796
  0
LWPOLYLINE
  5
184
330
17
100
AcDbEntity
  8
ROADS
100
AcDbPolyline
 90
2
 70
0
 10
638154.859711298
 20
4847114.803133182
 10
638134.2644428455
 20
4847222.317324675
  0
LWPOLYLINE
  5
185
330
17
100
AcDbEntity
  8
ROADS
100
AcDbPolyline
 90
2
 70
0
 10
638134.2644428455
 20
4847222.317324675
 10
638354.5342186436
 20
4847299.017250745
  0
LWPOLYLINE
  5
186
330
17
100
AcDbEntity
  8
ROADS
100
AcDbPolyline
 90
3
 70
0
 10
638134.2644428455
 20
4847222.317324675
 10
638131.3237551411
 20
4847261.042740294
 10
638093.3935794041
 20
4847318.162152357
  0
LWPOLYLINE
  5
187
330
17
100
AcDbEntity
  8
ROADS
100
AcDbPolyline
 90
2
 70
0
 10
638354.5342186436
 20
4847299.017250745
 10
638490.7630596312
 20
4847342.258850447
  0
LWPOLYLINE
  5
188
330
17
100
AcDbEntity
  8
ROADS
100
AcDbPolyline
 90
3
 70
0
 10
638490.7630596312
 20
4847342.258850447
 10
638508.3441378082
 20
4847312.0373856295
 10
638547.8800095604
 20
4847322.523489829
  0
LWPOLYLINE
  5
189
330
17
100
AcDbEntity
  8
ROADS
100
AcDbPolyline
 90
2
 70
0
 10
638093.3935794041
 20
4847318.162152357
 10
638070.8409737055
 20
4847356.393291
  0
LWPOLYLINE
  5
18A
330
17
100
AcDbEntity
  8
ROADS
100
AcDbPolyline
 90
2
 70
0
 10
638490.7630596312
 20
4847342.258850447
 10
638519.5176846243
 20
4847351.486559601
  0
LWPOLYLINE
  5
18B
330
17
100
AcDbEntity
  8
ROADS
100
AcDbPolyline
 90
2
 70
0
 10
638070.8409737055
 20
4847356.393291
 10
638066.4882623832
 20
4847369.273672652
  0
LWPOLYLINE
  5
18C
330
17
100
AcDbEntity
  8
ROADS
100
AcDbPolyline
 90
3
 70
0
 10
638867.9791523818
 20
4847215.6249193605
 10
638975.183001055
 20
4847250.108982915
 10
638996.1462128838
 20
4847271.5767699415
  0
LWPOLYLINE
  5
18D
330
17
100
AcDbEntity
  8
ROADS
100
AcDbPolyline
 90
2
 70
0
 10
638996.1462128838
 20
4847271.5767699415
 10
639014.1856326154
 20
4847260.829458153
  0
LWPOLYLINE
  5
18E
330
17
100
AcDbEntity
  8
ROADS
100
AcDbPolyline
 90
2
 70
0
 10
639014.1856326154
 20
4847260.829458153
 10
639035.6766055755
 20
4847274.363032407
  0
LWPOLYLINE
  5
18F
330
17
100
AcDbEntity
  8
ROADS
100
AcDbPolyline
 90
2
 70
0
 10
638853.9802256434
 20
4847259.7146497825
 10
638842.2602131395
 20
4847297.5270439545
  0
LWPOLYLINE
  5
190
330
17
100
AcDbEntity
  8
ROADS
100
AcDbPolyline
 90
2
 70
0
 10
638853.9802256434
 20
4847259.7146497825
 10
638984.4104657655
 20
4847300.706047991
  0
LWPOLYLINE
  5
191
330
17
100
AcDbEntity
  8
ROADS
100
AcDbPolyline
 90
2
 70
0
 10
639035.6766055755
 20
4847274.363032407
 10
639088.1454128274
 20
4847290.943990879
  0
LWPOLYLINE
  5
192
330
17
100
AcDbEntity
  8
ROADS
100
AcDbPolyline
 90
2
 70
0
 10
638984.4104657655
 20
4847300.706047991
 10
638996.1462128838
 20
4847271.5767699415
  0
LWPOLYLINE
  5
193
330
17
100
AcDbEntity
  8
ROADS
100
AcDbPolyline
 90
2
 70
0
 10
639035.6766055755
 20
4847274.363032407
 10
639017.2231254361
 20
4847298.693170423
  0
LWPOLYLINE
  5
194
330
17
100
AcDbEntity
  8
ROADS
100
AcDbPolyline
 90
3
 70
0
 10
638547.8800095604
 20
4847322.523489829
 10
638568.0341050755
 20
4847261.617668263
 10
638605.5750107616
 20
4847264.803930956
  0
LWPOLYLINE
  5
195
330
17
100
AcDbEntity
  8
ROADS
100
AcDbPolyline
 90
2
 70
0
 10
639088.1454128274
 20
4847290.943990879
 10
639118.8446867367
 20
4847300.590974693
  0
LWPOLYLINE
  5
196
330
17
100
AcDbEntity
  8
ROADS
100
AcDbPolyline
 90
2
 70
0
 10
639088.1454128274
 20
4847290.943990879
 10
639084.2761223548
 20
4847305.680349961
  0
LWPOLYLINE
  5
197
330
17
100
AcDbEntity
  8
ROADS
100
AcDbPolyline
 90
3
 70
0
 10
638605.5750107616
 20
4847264.803930956
 10
638708.1614639481
 20
4847297.955223197
 10
638704.5383102648
 20
4847333.55504093
  0
LWPOLYLINE
  5
198
330
17
100
AcDbEntity
  8
ROADS
100
AcDbPolyline
 90
3
 70
0
 10
638605.5750107616
 20
4847264.803930956
 10
638598.2727499881
 20
4847300.05906706
 10
638704.5383102648
 20
4847333.55504093
  0
LWPOLYLINE
  5
199
330
17
100
AcDbEntity
  8
ROADS
100
AcDbPolyline
 90
2
 70
0
 10
639017.2231254361
 20
4847298.693170423
 10
638984.4104657655
 20
4847300.706047991
  0
LWPOLYLINE
  5
19A
330
17
100
AcDbEntity
  8
ROADS
100
AcDbPolyline
 90
3
 70
0
 10
639017.2231254361
 20
4847298.693170423
 10
639042.9080868117
 20
4847318.654338868
 10
639071.6260065553
 20
4847316.329265976
  0
LWPOLYLINE
  5
19B
330
17
100
AcDbEntity
  8
ROADS
100
AcDbPolyline
 90
2
 70
0
 10
639084.2761223548
 20
4847305.680349961
 10
639091.7207469731
 20
4847313.52595832
  0
LWPOLYLINE
  5
19C
330
17
100
AcDbEntity
  8
ROADS
100
AcDbPolyline
 90
2
 70
0
 10
639084.2761223548
 20
4847305.680349961
 10
639071.6260065553
 20
4847316.329265976
  0
LWPOLYLINE
  5
19D
330
17
100
AcDbEntity
  8
ROADS
100
AcDbPolyline
 90
2
 70
0
 10
639118.8446867367
 20
4847300.590974693
 10
639102.2291975361
 20
4847326.605906274
  0
LWPOLYLINE
  5
19E
330
17
100
AcDbEntity
  8
ROADS
100
AcDbPolyline
 90
2
 70
0
 10
638842.2602131395
 20
4847297.5270439545
 10
638831.3327105632
 20
4847333.824642918
  0
LWPOLYLINE
  5
19F
330
17
100
AcDbEntity
  8
ROADS
100
AcDbPolyline
 90
2
 70
0
 10
638842.2602131395
 20
4847297.5270439545
 10
638974.1631518238
 20
4847338.708148429
  0
LWPOLYLINE
  5
1A0
330
17
100
AcDbEntity
  8
ROADS
100
AcDbPolyline
 90
2
 70
0
 10
639381.0777848046
 20
4847157.907583645
 10
639395.0543647257
 20
4847341.638869077
  0
LWPOLYLINE
  5
1A1
330
17
100
AcDbEntity
  8
ROADS
100
AcDbPolyline
 90
5
 70
0
 10
639381.0777848046
 20
4847157.907583645
 10
639322.5800105873
 20
4847167.846048239
 10
639272.3394243771
 20
4847325.950639712
 10
639322.9139441332
 20
4847342.870340261
 10
639395.0543647257
 20
4847341.638869077
  0
LWPOLYLINE
  5
1A2
330
17
100
AcDbEntity
  8
ROADS
100
AcDbPolyline
 90
3
 70
0
 10
639511.6839098233
 20
4847263.294569405
 10
639436.1052413642
 20
4847332.925545415
 10
639395.0543647257
 20
4847341.638869077
  0
LWPOLYLINE
  5
1A3
330
17
100
AcDbEntity
  8
ROADS
100
AcDbPolyline
 90
2
 70
0
 10
639511.6839098233
 20
4847263.294569405
 10
639540.4468950201
 20
4847287.850852457
  0
LWPOLYLINE
  5
1A4
330
17
100
AcDbEntity
  8
ROADS
100
AcDbPolyline
 90
2
 70
0
 10
639118.8446867367
 20
4847300.590974693
 10
639201.0177338072
 20
4847325.325760488
  0
LWPOLYLINE
  5
1A5
330
17
100
AcDbEntity
  8
ROADS
100
AcDbPolyline
 90
2
 70
0
 10
639201.0177338072
 20
4847325.325760488
 10
639180.7633672006
 20
4847395.297766783
  0
LWPOLYLINE
  5
1A6
330
17
100
AcDbEntity
  8
ROADS
100
AcDbPolyline
 90
2
 70
0
 10
639395.0543647257
 20
4847341.638869077
 10
639383.1594594824
 20
4847462.312332927
  0
LWPOLYLINE
  5
1A7
330
17
100
AcDbEntity
  8
ROADS
100
AcDbPolyline
 90
2
 70
0
 10
639091.7207469731
 20
4847313.52595832
 10
639087.1170113907
 20
4847323.203519757
  0
LWPOLYLINE
  5
1A8
330
17
100
AcDbEntity
  8
ROADS
100
AcDbPolyline
 90
2
 70
0
 10
638974.1631518238
 20
4847338.708148429
 10
638984.4104657655
 20
4847300.706047991
  0
LWPOLYLINE
  5
1A9
330
17
100
AcDbEntity
  8
ROADS
100
AcDbPolyline
 90
2
 70
0
 10
639071.6260065553
 20
4847316.329265976
 10
639087.1170113907
 20
4847323.203519757
  0
LWPOLYLINE
  5
1AA
330
17
100
AcDbEntity
  8
ROADS
100
AcDbPolyline
 90
2
 70
0
 10
639091.7207469731
 20
4847313.52595832
 10
639102.2291975361
 20
4847326.605906274
  0
LWPOLYLINE
  5
1AB
330
17
100
AcDbEntity
  8
ROADS
100
AcDbPolyline
 90
2
 70
0
 10
639087.1170113907
 20
4847323.203519757
 10
639102.2291975361
 20
4847326.605906274
  0
LWPOLYLINE
  5
1AC
330
17
100
AcDbEntity
  8
ROADS
100
AcDbPolyline
 90
2
 70
0
 10
639102.2291975361
 20
4847326.605906274
 10
639093.4907905397
 20
4847341.800784799
  0
LWPOLYLINE
  5
1AD
330
17
100
AcDbEntity
  8
ROADS
100
AcDbPolyline
 90
2
 70
0
 10
638547.8800095604
 20
4847322.523489829
 10
638683.8320996534
 20
4847371.440658441
  0
LWPOLYLINE
  5
1AE
330
17
100
AcDbEntity
  8
ROADS
100
AcDbPolyline
 90
2
 70
0
 10
638704.5383102648
 20
4847333.55504093
 10
638683.8320996534
 20
4847371.440658441
  0
LWPOLYLINE
  5
1AF
330
17
100
AcDbEntity
  8
ROADS
100
AcDbPolyline
 90
2
 70
0
 10
638831.3327105632
 20
4847333.824642918
 10
638819.4388439185
 20
4847372.234941128
  0
LWPOLYLINE
  5
1B0
330
17
100
AcDbEntity
  8
ROADS
100
AcDbPolyline
 90
2
 70
0
 10
638831.3327105632
 20
4847333.824642918
 10
638964.4854069802
 20
4847375.301425736
  0
LWPOLYLINE
  5
1B1
330
17
100
AcDbEntity
  8
ROADS
100
AcDbPolyline
 90
2
 70
0
 10
638964.4854069802
 20
4847375.301425736
 10
638974.1631518238
 20
4847338.708148429
  0
LWPOLYLINE
  5
1B2
330
17
100
AcDbEntity
  8
ROADS
100
AcDbPolyline
 90
2
 70
0
 10
638519.5176846243
 20
4847351.486559601
 10
638683.1129673764
 20
4847403.189700843
  0
LWPOLYLINE
  5
1B3
330
17
100
AcDbEntity
  8
ROADS
100
AcDbPolyline
 90
2
 70
0
 10
638683.8320996534
 20
4847371.440658441
 10
638683.1129673764
 20
4847403.189700843
  0
LWPOLYLINE
  5
1B4
330
17
100
AcDbEntity
  8
ROADS
100
AcDbPolyline
 90
6
 70
0
 10
638519.5176846243
 20
4847351.486559601
 10
638516.01725812
 20
4847385.942469824
 10
638538.4948871022
 20
4847408.331755608
 10
638590.8071546978
 20
4847406.773128535
 10
638657.8755200867
 20
4847432.230383809
 10
638683.1129673764
 20
4847403.189700843
  0
LWPOLYLINE
  5
1B5
330
17
100
AcDbEntity
  8
ROADS
100
AcDbPolyline
 90
2
 70
0
 10
638819.4388439185
 20
4847372.234941128
 10
638954.2301454778
 20
4847413.631409758
  0
LWPOLYLINE
  5
1B6
330
17
100
AcDbEntity
  8
ROADS
100
AcDbPolyline
 90
2
 70
0
 10
638954.2301454778
 20
4847413.631409758
 10
638964.4854069802
 20
4847375.301425736
  0
LWPOLYLINE
  5
1B7
330
17
100
AcDbEntity
  8
ROADS
100
AcDbPolyline
 90
2
 70
0
 10
638819.4388439185
 20
4847372.234941128
 10
638814.8730347238
 20
4847425.256386078
  0
LWPOLYLINE
  5
1B8
330
17
100
AcDbEntity
  8
ROADS
100
AcDbPolyline
 90
2
 70
0
 10
638683.1129673764
 20
4847403.189700843
 10
638737.2936330285
 20
4847420.170708316
  0
LWPOLYLINE
  5
1B9
330
17
100
AcDbEntity
  8
ROADS
100
AcDbPolyline
 90
2
 70
0
 10
638737.2936330285
 20
4847420.170708316
 10
638750.2551403636
 20
4847424.4078885
  0
LWPOLYLINE
  5
1BA
330
17
100
AcDbEntity
  8
ROADS
100
AcDbPolyline
 90
2
 70
0
 10
638750.2551403636
 20
4847424.4078885
 10
638802.2316813841
 20
4847440.832425544
  0
LWPOLYLINE
  5
1BB
330
17
100
AcDbEntity
  8
ROADS
100
AcDbPolyline
 90
2
 70
0
 10
637905.5427842223
 20
4846746.3797686985
 10
638037.3021618106
 20
4846672.505053757
  0
LWPOLYLINE
  5
1BC
330
17
100
AcDbEntity
  8
ROADS
100
AcDbPolyline
 90
2
 70
0
 10
638022.3253040055
 20
4846723.769664226
 10
638013.257641188
 20
4846751.477062773
  0
LWPOLYLINE
  5
1BD
330
17
100
AcDbEntity
  8
ROADS
100
AcDbPolyline
 90
2
 70
0
 10
638022.3253040055
 20
4846723.769664226
 10
638041.6210557101
 20
4846753.534944628
  0
LWPOLYLINE
  5
1BE
330
17
100
AcDbEntity
  8
ROADS
100
AcDbPolyline
 90
2
 70
0
 10
638013.257641188
 20
4846751.477062773
 10
638041.6210557101
 20
4846753.534944628
  0
LWPOLYLINE
  5
1BF
330
17
100
AcDbEntity
  8
ROADS
100
AcDbPolyline
 90
2
 70
0
 10
638041.6210557101
 20
4846753.534944628
 10
638051.3554497011
 20
4846760.962946918
  0
LWPOLYLINE
  5
1C0
330
17
100
AcDbEntity
  8
ROADS
100
AcDbPolyline
 90
5
 70
0
 10
638051.3554497011
 20
4846760.962946918
 10
638076.6126542164
 20
4846776.488850145
 10
638070.5440234931
 20
4846791.234338923
 10
638045.0848981092
 20
4846782.991467607
 10
638051.3554497011
 20
4846760.962946918
  0
LWPOLYLINE
  5
1C1
330
17
100
AcDbEntity
  8
ROADS
100
AcDbPolyline
 90
2
 70
0
 10
637787.8932647211
 20
4846811.006101731
 10
637905.5427842223
 20
4846746.3797686985
  0
LWPOLYLINE
  5
1C2
330
17
100
AcDbEntity
  8
ROADS
100
AcDbPolyline
 90
2
 70
0
 10
638013.257641188
 20
4846751.477062773
 10
637980.8112159136
 20
4846850.9388293205
  0
LWPOLYLINE
  5
1C3
330
17
100
AcDbEntity
  8
ROADS
100
AcDbPolyline
 90
3
 70
0
 10
637905.5427842223
 20
4846746.3797686985
 10
637874.7679691651
 20
4846872.375278119
 10
637961.8868888227
 20
4846908.170493288
  0
LWPOLYLINE
  5
1C4
330
17
100
AcDbEntity
  8
ROADS
100
AcDbPolyline
 90
3
 70
0
 10
637642.9625420392
 20
4846937.399067618
 10
637663.0991886827
 20
4846881.756565102
 10
637787.8932647211
 20
4846811.006101731
  0
LWPOLYLINE
  5
1C5
330
17
100
AcDbEntity
  8
ROADS
100
AcDbPolyline
 90
2
 70
0
 10
637196.1173639032
 20
4846896.518070269
 10
637264.8771039264
 20
4846920.243795867
  0
LWPOLYLINE
  5
1C6
330
17
100
AcDbEntity
  8
ROADS
100
AcDbPolyline
 90
2
 70
0
 10
637980.8112159136
 20
4846850.9388293205
 10
637961.8868888227
 20
4846908.170493288
  0
LWPOLYLINE
  5
1C7
330
17
100
AcDbEntity
  8
ROADS
100
AcDbPolyline
 90
3
 70
0
 10
637642.9625420392
 20
4846937.399067618
 10
637739.9680500873
 20
4846972.160240652
 10
637787.8932647211
 20
4846811.006101731
  0
LWPOLYLINE
  5
1C8
330
17
100
AcDbEntity
  8
ROADS
100
AcDbPolyline
 90
2
 70
0
 10
637566.4601135278
 20
4846913.010220741
 10
637642.9625420392
 20
4846937.399067618
  0
LWPOLYLINE
  5
1C9
330
17
100
AcDbEntity
  8
ROADS
100
AcDbPolyline
 90
2
 70
0
 10
637940.4499808142
 20
4847039.792666994
 10
638005.8466990386
 20
4847063.228333687
  0
LWPOLYLINE
  5
1CA
330
17
100
AcDbEntity
  8
ROADS
100
AcDbPolyline
 90
2
 70
0
 10
637532.5202513799
 20
4847016.408157926
 10
637824.002628254
 20
4847114.957670136
  0
LWPOLYLINE
  5
1CB
330
17
100
AcDbEntity
  8
ROADS
100
AcDbPolyline
 90
2
 70
0
 10
638005.8466990386
 20
4847063.228333687
 10
637971.4724303643
 20
4847166.365499413
  0
LWPOLYLINE
  5
1CC
330
17
100
AcDbEntity
  8
ROADS
100
AcDbPolyline
 90
2
 70
0
 10
637824.002628254
 20
4847114.957670136
 10
637971.4724303643
 20
4847166.365499413
  0
LWPOLYLINE
  5
1CD
330
17
100
AcDbEntity
  8
ROADS
100
AcDbPolyline
 90
2
 70
0
 10
637824.002628254
 20
4847114.957670136
 10
637781.3673235627
 20
4847245.438717201
  0
LWPOLYLINE
  5
1CE
330
17
100
AcDbEntity
  8
ROADS
100
AcDbPolyline
 90
2
 70
0
 10
637971.4724303643
 20
4847166.365499413
 10
638134.2644428455
 20
4847222.317324675
  0
LWPOLYLINE
  5
1CF
330
17
100
AcDbEntity
  8
ROADS
100
AcDbPolyline
 90
3
 70
0
 10
637646.5332739804
 20
4847198.587168745
 10
637608.9059625389
 20
4847188.361698219
 10
637594.8598954402
 20
4847211.150420942
  0
LWPOLYLINE
  5
1D0
330
17
100
AcDbEntity
  8
ROADS
100
AcDbPolyline
 90
6
 70
0
 10
637423.7332006469
 20
4846976.982176619
 10
637358.9374925544
 20
4847155.191138962
 10
637255.6816021404
 20
4847231.069964073
 10
637227.0593422077
 20
4847304.865358427
 10
637264.9531182356
 20
4847411.570573516
 10
637342.5668728229
 20
4847444.940474953
  0
LWPOLYLINE
  5
1D1
330
17
100
AcDbEntity
  8
ROADS
100
AcDbPolyline
 90
2
 70
0
 10
637594.8598954402
 20
4847211.150420942
 10
637564.7831121988
 20
4847297.774743617
  0
LWPOLYLINE
  5
1D2
330
17
100
AcDbEntity
  8
ROADS
100
AcDbPolyline
 90
3
 70
0
 10
637533.3175732476
 20
4847190.091785944
 10
637527.238098231
 20
4847255.235743657
 10
637481.3217173578
 20
4847394.923085387
  0
LWPOLYLINE
  5
1D3
330
17
100
AcDbEntity
  8
ROADS
100
AcDbPolyline
 90
2
 70
0
 10
637564.7831121988
 20
4847297.774743617
 10
637607.1166770849
 20
4847312.564893983
  0
LWPOLYLINE
  5
1D4
330
17
100
AcDbEntity
  8
ROADS
100
AcDbPolyline
 90
2
 70
0
 10
637564.7831121988
 20
4847297.774743617
 10
637525.708559425
 20
4847410.314991375
  0
LWPOLYLINE
  5
1D5
330
17
100
AcDbEntity
  8
ROADS
100
AcDbPolyline
 90
2
 70
0
 10
637607.1166770849
 20
4847312.564893983
 10
637568.215061061
 20
4847425.05378193
  0
LWPOLYLINE
  5
1D6
330
17
100
AcDbEntity
  8
ROADS
100
AcDbPolyline
 90
2
 70
0
 10
637525.708559425
 20
4847410.314991375
 10
637481.3217173578
 20
4847394.923085387
  0
LWPOLYLINE
  5
1D7
330
17
100
AcDbEntity
  8
ROADS
100
AcDbPolyline
 90
2
 70
0
 10
637568.215061061
 20
4847425.05378193
 10
637525.708559425
 20
4847410.314991375
  0
LWPOLYLINE
  5
1D8
330
17
100
AcDbEntity
  8
ROADS
100
AcDbPolyline
 90
2
 70
0
 10
637611.17824304
 20
4847439.950862763
 10
637568.215061061
 20
4847425.05378193
  0
LWPOLYLINE
  5
1D9
330
17
100
AcDbEntity
  8
ROADS
100
AcDbPolyline
 90
2
 70
0
 10
637481.3217173578
 20
4847394.923085387
 10
637451.2313605221
 20
4847481.63212502
  0
LWPOLYLINE
  5
1DA
330
17
100
AcDbEntity
  8
ROADS
100
AcDbPolyline
 90
2
 70
0
 10
637689.2381125323
 20
4847213.39253605
 10
637646.5332739804
 20
4847198.587168745
  0
LWPOLYLINE
  5
1DB
330
17
100
AcDbEntity
  8
ROADS
100
AcDbPolyline
 90
2
 70
0
 10
637781.3673235627
 20
4847245.438717201
 10
637689.2381125323
 20
4847213.39253605
  0
LWPOLYLINE
  5
1DC
330
17
100
AcDbEntity
  8
ROADS
100
AcDbPolyline
 90
2
 70
0
 10
637646.5332739804
 20
4847198.587168745
 10
637607.1166770849
 20
4847312.564893983
  0
LWPOLYLINE
  5
1DD
330
17
100
AcDbEntity
  8
ROADS
100
AcDbPolyline
 90
2
 70
0
 10
637999.5060840953
 20
4847258.291943969
 10
637993.2198905065
 20
4847279.305073143
  0
LWPOLYLINE
  5
1DE
330
17
100
AcDbEntity
  8
ROADS
100
AcDbPolyline
 90
2
 70
0
 10
637689.2381125323
 20
4847213.39253605
 10
637649.3268112134
 20
4847329.227987556
  0
LWPOLYLINE
  5
1DF
330
17
100
AcDbEntity
  8
ROADS
100
AcDbPolyline
 90
2
 70
0
 10
637781.3673235627
 20
4847245.438717201
 10
637751.3884127813
 20
4847332.510899959
  0
LWPOLYLINE
  5
1E0
330
17
100
AcDbEntity
  8
ROADS
100
AcDbPolyline
 90
2
 70
0
 10
638093.3935794041
 20
4847318.162152357
 10
637993.2198905065
 20
4847279.305073143
  0
LWPOLYLINE
  5
1E1
330
17
100
AcDbEntity
  8
ROADS
100
AcDbPolyline
 90
2
 70
0
 10
637993.2198905065
 20
4847279.305073143
 10
637969.0459548112
 20
4847361.825021852
  0
LWPOLYLINE
  5
1E2
330
17
100
AcDbEntity
  8
ROADS
100
AcDbPolyline
 90
2
 70
0
 10
637649.3268112134
 20
4847329.227987556
 10
637607.1166770849
 20
4847312.564893983
  0
LWPOLYLINE
  5
1E3
330
17
100
AcDbEntity
  8
ROADS
100
AcDbPolyline
 90
2
 70
0
 10
637649.3268112134
 20
4847329.227987556
 10
637689.013452472
 20
4847345.739863893
  0
LWPOLYLINE
  5
1E4
330
17
100
AcDbEntity
  8
ROADS
100
AcDbPolyline
 90
2
 70
0
 10
637751.3884127813
 20
4847332.510899959
 10
637689.013452472
 20
4847345.739863893
  0
LWPOLYLINE
  5
1E5
330
17
100
AcDbEntity
  8
ROADS
100
AcDbPolyline
 90
2
 70
0
 10
637969.0459548112
 20
4847361.825021852
 10
638066.4882623832
 20
4847369.273672652
  0
LWPOLYLINE
  5
1E6
330
17
100
AcDbEntity
  8
ROADS
100
AcDbPolyline
 90
2
 70
0
 10
637751.3884127813
 20
4847332.510899959
 10
637720.2630443785
 20
4847422.306557214
  0
LWPOLYLINE
  5
1E7
330
17
100
AcDbEntity
  8
ROADS
100
AcDbPolyline
 90
2
 70
0
 10
637969.0459548112
 20
4847361.825021852
 10
637954.174972786
 20
4847393.933701
  0
LWPOLYLINE
  5
1E8
330
17
100
AcDbEntity
  8
ROADS
100
AcDbPolyline
 90
3
 70
0
 10
637689.013452472
 20
4847345.739863893
 10
637690.0391316403
 20
4847397.742813146
 10
637720.2630443785
 20
4847422.306557214
  0
LWPOLYLINE
  5
1E9
330
17
100
AcDbEntity
  8
ROADS
100
AcDbPolyline
 90
2
 70
0
 10
637649.3268112134
 20
4847329.227987556
 10
637611.17824304
 20
4847439.950862763
  0
LWPOLYLINE
  5
1EA
330
17
100
AcDbEntity
  8
ROADS
100
AcDbPolyline
 90
2
 70
0
 10
638059.447734592
 20
4847439.602814944
 10
637975.5534894941
 20
4847440.061286368
  0
LWPOLYLINE
  5
1EB
330
17
100
AcDbEntity
  8
ROADS
100
AcDbPolyline
 90
3
 70
0
 10
637720.2630443785
 20
4847422.306557214
 10
637703.3785456293
 20
4847471.272318914
 10
637611.17824304
 20
4847439.950862763
  0
LWPOLYLINE
  5
1EC
330
17
100
AcDbEntity
  8
ROADS
100
AcDbPolyline
 90
2
 70
0
 10
637975.5534894941
 20
4847440.061286368
 10
637933.712839671
 20
4847467.096981074
  0
LWPOLYLINE
  5
1ED
330
17
100
AcDbEntity
  8
ROADS
100
AcDbPolyline
 90
3
 70
0
 10
637975.5534894941
 20
4847440.061286368
 10
637933.4788827782
 20
4847443.077475863
 10
637933.712839671
 20
4847467.096981074
  0
LWPOLYLINE
  5
1EE
330
17
100
AcDbEntity
  8
ROADS
100
AcDbPolyline
 90
2
 70
0
 10
636770.0425310016
 20
4847472.098376191
 10
636985.0671237495
 20
4847542.815045929
  0
LWPOLYLINE
  5
1EF
330
17
100
AcDbEntity
  8
ROADS
100
AcDbPolyline
 90
2
 70
0
 10
636663.4059111553
 20
4848050.260695982
 10
636773.07370651
 20
4848087.449191883
  0
LWPOLYLINE
  5
1F0
330
17
100
AcDbEntity
  8
ROADS
100
AcDbPolyline
 90
2
 70
0
 10
636773.07370651
 20
4848087.449191883
 10
636854.2690607959
 20
4848115.191070493
  0
LWPOLYLINE
  5
1F1
330
17
100
AcDbEntity
  8
ROADS
100
AcDbPolyline
 90
4
 70
0
 10
636854.2690607959
 20
4848115.191070493
 10
636892.9477144943
 20
4848010.353158498
 10
637169.144342483
 20
4848106.667250196
 10
637144.319485797
 20
4848193.587553385
  0
LWPOLYLINE
  5
1F2
330
17
100
AcDbEntity
  8
ROADS
100
AcDbPolyline
 90
2
 70
0
 10
636854.2690607959
 20
4848115.191070493
 10
636969.4216984871
 20
4848134.229804294
  0
LWPOLYLINE
  5
1F3
330
17
100
AcDbEntity
  8
ROADS
100
AcDbPolyline
 90
2
 70
0
 10
636773.07370651
 20
4848087.449191883
 10
636744.9459705832
 20
4848174.210046928
  0
LWPOLYLINE
  5
1F4
330
17
100
AcDbEntity
  8
ROADS
100
AcDbPolyline
 90
2
 70
0
 10
636969.4216984871
 20
4848134.229804294
 10
637144.319485797
 20
4848193.587553385
  0
LWPOLYLINE
  5
1F5
330
17
100
AcDbEntity
  8
ROADS
100
AcDbPolyline
 90
4
 70
0
 10
636577.4294740277
 20
4847918.684720811
 10
636604.0980154193
 20
4847925.915093199
 10
636792.1984513026
 20
4848002.794428188
 10
636773.07370651
 20
4848087.449191883
  0
LWPOLYLINE
  5
1F6
330
17
100
AcDbEntity
  8
ROADS
100
AcDbPolyline
 90
2
 70
0
 10
636560.3067850935
 20
4848014.406812989
 10
636663.4059111553
 20
4848050.260695982
  0
LWPOLYLINE
  5
1F7
330
17
100
AcDbEntity
  8
ROADS
100
AcDbPolyline
 90
2
 70
0
 10
636663.4059111553
 20
4848050.260695982
 10
636636.075649324
 20
4848130.182852431
  0
LWPOLYLINE
  5
1F8
330
17
100
AcDbEntity
  8
ROADS
100
AcDbPolyline
 90
2
 70
0
 10
637342.5668728229
 20
4847444.940474953
 10
637451.2313605221
 20
4847481.63212502
  0
LWPOLYLINE
  5
1F9
330
17
100
AcDbEntity
  8
ROADS
100
AcDbPolyline
 90
4
 70
0
 10
637342.5668728229
 20
4847444.940474953
 10
637278.9155211772
 20
4847647.8003155785
 10
637315.82469688
 20
4847742.10660441
 10
637352.8315596248
 20
4847781.996639654
  0
LWPOLYLINE
  5
1FA
330
17
100
AcDbEntity
  8
ROADS
100
AcDbPolyline
 90
2
 70
0
 10
637451.2313605221
 20
4847481.63212502
 10
637352.8315596248
 20
4847781.996639654
  0
LWPOLYLINE
  5
1FB
330
17
100
AcDbEntity
  8
ROADS
100
AcDbPolyline
 90
2
 70
0
 10
637352.8315596248
 20
4847781.996639654
 10
637334.912347734
 20
4847837.895229722
  0
LWPOLYLINE
  5
1FC
330
17
100
AcDbEntity
  8
ROADS
100
AcDbPolyline
 90
2
 70
0
 10
637352.8315596248
 20
4847781.996639654
 10
637547.0109023142
 20
4847850.049349522
  0
LWPOLYLINE
  5
1FD
330
17
100
AcDbEntity
  8
ROADS
100
AcDbPolyline
 90
2
 70
0
 10
637334.912347734
 20
4847837.895229722
 10
637210.7657561774
 20
4848210.857836348
  0
LWPOLYLINE
  5
1FE
330
17
100
AcDbEntity
  8
ROADS
100
AcDbPolyline
 90
2
 70
0
 10
637144.319485797
 20
4848193.587553385
 10
637210.7657561774
 20
4848210.857836348
  0
LWPOLYLINE
  5
1FF
330
17
100
AcDbEntity
  8
ROADS
100
AcDbPolyline
 90
5
 70
0
 10
637273.4713416867
 20
4848230.631593742
 10
637303.7565488771
 20
4848150.234778125
 10
637429.6226700975
 20
4848196.028109814
 10
637454.9759549226
 20
4848243.781832061
 10
637442.6968414516
 20
4848288.217523262
  0
LWPOLYLINE
  5
200
330
17
100
AcDbEntity
  8
ROADS
100
AcDbPolyline
 90
2
 70
0
 10
637210.7657561774
 20
4848210.857836348
 10
637273.4713416867
 20
4848230.631593742
  0
LWPOLYLINE
  5
201
330
17
100
AcDbEntity
  8
ROADS
100
AcDbPolyline
 90
2
 70
0
 10
637273.4713416867
 20
4848230.631593742
 10
637442.6968414516
 20
4848288.217523262
  0
LWPOLYLINE
  5
202
330
17
100
AcDbEntity
  8
ROADS
100
AcDbPolyline
 90
2
 70
0
 10
636969.4216984871
 20
4848134.229804294
 10
636942.9452580273
 20
4848221.671182475
  0
LWPOLYLINE
  5
203
330
17
100
AcDbEntity
  8
ROADS
100
AcDbPolyline
 90
3
 70
0
 10
636744.9459705832
 20
4848174.210046928
 10
636876.2092001451
 20
4848218.963990301
 10
636942.9452580273
 20
4848221.671182475
  0
LWPOLYLINE
  5
204
330
17
100
AcDbEntity
  8
ROADS
100
AcDbPolyline
 90
2
 70
0
 10
636744.9459705832
 20
4848174.210046928
 10
636713.3678754537
 20
4848267.734497249
  0
LWPOLYLINE
  5
205
330
17
100
AcDbEntity
  8
ROADS
100
AcDbPolyline
 90
2
 70
0
 10
636942.9452580273
 20
4848221.671182475
 10
636908.2006481823
 20
4848323.928118664
  0
LWPOLYLINE
  5
206
330
17
100
AcDbEntity
  8
ROADS
100
AcDbPolyline
 90
2
 70
0
 10
636713.3678754537
 20
4848267.734497249
 10
636908.2006481823
 20
4848323.928118664
  0
LWPOLYLINE
  5
207
330
17
100
AcDbEntity
  8
ROADS
100
AcDbPolyline
 90
3
 70
0
 10
636942.9452580273
 20
4848221.671182475
 10
637029.37055236
 20
4848252.618643557
 10
636970.6269889015
 20
4848428.001542341
  0
LWPOLYLINE
  5
208
330
17
100
AcDbEntity
  8
ROADS
100
AcDbPolyline
 90
2
 70
0
 10
637144.319485797
 20
4848193.587553385
 10
637044.2693409515
 20
4848494.649760774
  0
LWPOLYLINE
  5
209
330
17
100
AcDbEntity
  8
ROADS
100
AcDbPolyline
 90
2
 70
0
 10
636908.2006481823
 20
4848323.928118664
 10
636885.3312092451
 20
4848391.789022386
  0
LWPOLYLINE
  5
20A
330
17
100
AcDbEntity
  8
ROADS
100
AcDbPolyline
 90
2
 70
0
 10
637210.7657561774
 20
4848210.857836348
 10
637108.5254708745
 20
4848517.21390865
  0
LWPOLYLINE
  5
20B
330
17
100
AcDbEntity
  8
ROADS
100
AcDbPolyline
 90
2
 70
0
 10
636885.3312092451
 20
4848391.789022386
 10
636970.6269889015
 20
4848428.001542341
  0
LWPOLYLINE
  5
20C
330
17
100
AcDbEntity
  8
ROADS
100
AcDbPolyline
 90
2
 70
0
 10
636552.6051007857
 20
4848110.672843392
 10
636636.075649324
 20
4848130.182852431
  0
LWPOLYLINE
  5
20D
330
17
100
AcDbEntity
  8
ROADS
100
AcDbPolyline
 90
2
 70
0
 10
636636.075649324
 20
4848130.182852431
 10
636610.9651780769
 20
4848256.275387289
  0
LWPOLYLINE
  5
20E
330
17
100
AcDbEntity
  8
ROADS
100
AcDbPolyline
 90
3
 70
0
 10
636610.9651780769
 20
4848256.275387289
 10
636660.4504852744
 20
4848272.514307373
 10
636713.3678754537
 20
4848267.734497249
  0
LWPOLYLINE
  5
20F
330
17
100
AcDbEntity
  8
ROADS
100
AcDbPolyline
 90
2
 70
0
 10
636610.9651780769
 20
4848256.275387289
 10
636601.235593867
 20
4848285.515777417
  0
LWPOLYLINE
  5
210
330
17
100
AcDbEntity
  8
ROADS
100
AcDbPolyline
 90
2
 70
0
 10
636561.0276962955
 20
4848273.437331072
 10
636601.235593867
 20
4848285.515777417
  0
LWPOLYLINE
  5
211
330
17
100
AcDbEntity
  8
ROADS
100
AcDbPolyline
 90
2
 70
0
 10
636601.235593867
 20
4848285.515777417
 10
636576.3855456416
 20
4848360.210132543
  0
LWPOLYLINE
  5
212
330
17
100
AcDbEntity
  8
ROADS
100
AcDbPolyline
 90
2
 70
0
 10
636713.3678754537
 20
4848267.734497249
 10
636648.8120806232
 20
4848460.215483392
  0
LWPOLYLINE
  5
213
330
17
100
AcDbEntity
  8
ROADS
100
AcDbPolyline
 90
2
 70
0
 10
636598.2339202393
 20
4848442.286971986
 10
636648.8120806232
 20
4848460.215483392
  0
LWPOLYLINE
  5
214
330
17
100
AcDbEntity
  8
ROADS
100
AcDbPolyline
 90
2
 70
0
 10
636648.8120806232
 20
4848460.215483392
 10
636662.7677711355
 20
4848465.3807736095
  0
LWPOLYLINE
  5
215
330
17
100
AcDbEntity
  8
ROADS
100
AcDbPolyline
 90
2
 70
0
 10
638059.447734592
 20
4847439.602814944
 10
638042.0847724609
 20
4847490.854175466
  0
LWPOLYLINE
  5
216
330
17
100
AcDbEntity
  8
ROADS
100
AcDbPolyline
 90
3
 70
0
 10
637933.712839671
 20
4847467.096981074
 10
637897.3717797989
 20
4847481.210065115
 10
637886.1379276728
 20
4847512.943576872
  0
LWPOLYLINE
  5
217
330
17
100
AcDbEntity
  8
ROADS
100
AcDbPolyline
 90
3
 70
0
 10
637974.8859595525
 20
4847549.234515447
 10
637996.5386248346
 20
4847485.434680997
 10
638042.0847724609
 20
4847490.854175466
  0
LWPOLYLINE
  5
218
330
17
100
AcDbEntity
  8
ROADS
100
AcDbPolyline
 90
2
 70
0
 10
638042.0847724609
 20
4847490.854175466
 10
638016.5820210051
 20
4847563.306099512
  0
LWPOLYLINE
  5
219
330
17
100
AcDbEntity
  8
ROADS
100
AcDbPolyline
 90
2
 70
0
 10
637895.0552029586
 20
4847574.531904389
 10
637911.2993699585
 20
4847519.619960192
  0
LWPOLYLINE
  5
21A
330
17
100
AcDbEntity
  8
ROADS
100
AcDbPolyline
 90
2
 70
0
 10
638016.5820210051
 20
4847563.306099512
 10
637974.8859595525
 20
4847549.234515447
  0
LWPOLYLINE
  5
21B
330
17
100
AcDbEntity
  8
ROADS
100
AcDbPolyline
 90
2
 70
0
 10
637974.8859595525
 20
4847549.234515447
 10
637895.0552029586
 20
4847574.531904389
  0
LWPOLYLINE
  5
21C
330
17
100
AcDbEntity
  8
ROADS
100
AcDbPolyline
 90
2
 70
0
 10
638016.5820210051
 20
4847563.306099512
 10
638007.2885495219
 20
4847592.212499327
  0
LWPOLYLINE
  5
21D
330
17
100
AcDbEntity
  8
ROADS
100
AcDbPolyline
 90
2
 70
0
 10
637877.681537261
 20
4847627.919240542
 10
637895.0552029586
 20
4847574.531904389
  0
LWPOLYLINE
  5
21E
330
17
100
AcDbEntity
  8
ROADS
100
AcDbPolyline
 90
2
 70
0
 10
638007.2885495219
 20
4847592.212499327
 10
637987.5892328887
 20
4847634.02963245
  0
LWPOLYLINE
  5
21F
330
17
100
AcDbEntity
  8
ROADS
100
AcDbPolyline
 90
2
 70
0
 10
638070.8409737055
 20
4847356.393291
 10
638135.1040149085
 20
4847419.556268309
  0
LWPOLYLINE
  5
220
330
17
100
AcDbEntity
  8
ROADS
100
AcDbPolyline
 90
2
 70
0
 10
638066.4882623832
 20
4847369.273672652
 10
638059.447734592
 20
4847439.602814944
  0
LWPOLYLINE
  5
221
330
17
100
AcDbEntity
  8
ROADS
100
AcDbPolyline
 90
2
 70
0
 10
638135.1040149085
 20
4847419.556268309
 10
638153.7841259118
 20
4847428.978514574
  0
LWPOLYLINE
  5
222
330
17
100
AcDbEntity
  8
ROADS
100
AcDbPolyline
 90
2
 70
0
 10
638059.447734592
 20
4847439.602814944
 10
638135.1040149085
 20
4847419.556268309
  0
LWPOLYLINE
  5
223
330
17
100
AcDbEntity
  8
ROADS
100
AcDbPolyline
 90
3
 70
0
 10
638354.5342186436
 20
4847299.017250745
 10
638329.7040051214
 20
4847442.112189768
 10
638251.6245591005
 20
4847697.338278268
  0
LWPOLYLINE
  5
224
330
17
100
AcDbEntity
  8
ROADS
100
AcDbPolyline
 90
4
 70
0
 10
638360.8162767862
 20
4847734.2556765415
 10
638453.9668591191
 20
4847451.113818609
 10
638573.0769993865
 20
4847487.016713114
 10
638486.2740444558
 20
4847773.852997463
  0
LWPOLYLINE
  5
225
330
17
100
AcDbEntity
  8
ROADS
100
AcDbPolyline
 90
3
 70
0
 10
638251.6245591005
 20
4847697.338278268
 10
638146.0406246427
 20
4847664.20761331
 10
638007.2885495219
 20
4847592.212499327
  0
LWPOLYLINE
  5
226
330
17
100
AcDbEntity
  8
ROADS
100
AcDbPolyline
 90
2
 70
0
 10
638251.6245591005
 20
4847697.338278268
 10
638360.8162767862
 20
4847734.2556765415
  0
LWPOLYLINE
  5
227
330
17
100
AcDbEntity
  8
ROADS
100
AcDbPolyline
 90
2
 70
0
 10
638360.8162767862
 20
4847734.2556765415
 10
638486.2740444558
 20
4847773.852997463
  0
LWPOLYLINE
  5
228
330
17
100
AcDbEntity
  8
ROADS
100
AcDbPolyline
 90
2
 70
0
 10
638486.2740444558
 20
4847773.852997463
 10
638528.9048884821
 20
4847787.668537885
  0
LWPOLYLINE
  5
229
330
17
100
AcDbEntity
  8
ROADS
100
AcDbPolyline
 90
2
 70
0
 10
639180.7633672006
 20
4847395.297766783
 10
639383.1594594824
 20
4847462.312332927
  0
LWPOLYLINE
  5
22A
330
17
100
AcDbEntity
  8
ROADS
100
AcDbPolyline
 90
2
 70
0
 10
639383.1594594824
 20
4847462.312332927
 10
639476.6594005561
 20
4847464.206080069
  0
LWPOLYLINE
  5
22B
330
17
100
AcDbEntity
  8
ROADS
100
AcDbPolyline
 90
2
 70
0
 10
639180.7633672006
 20
4847395.297766783
 10
639152.278112941
 20
4847549.797965072
  0
LWPOLYLINE
  5
22C
330
17
100
AcDbEntity
  8
ROADS
100
AcDbPolyline
 90
2
 70
0
 10
639383.1594594824
 20
4847462.312332927
 10
639337.1823636865
 20
4847611.4612546945
  0
LWPOLYLINE
  5
22D
330
17
100
AcDbEntity
  8
ROADS
100
AcDbPolyline
 90
2
 70
0
 10
639152.278112941
 20
4847549.797965072
 10
639337.1823636865
 20
4847611.4612546945
  0
LWPOLYLINE
  5
22E
330
17
100
AcDbEntity
  8
ROADS
100
AcDbPolyline
 90
3
 70
0
 10
639546.0512984646
 20
4847622.198891492
 10
639535.3111940505
 20
4847632.75815186
 10
639521.0021071675
 20
4847670.501706381
  0
LWPOLYLINE
  5
22F
330
17
100
AcDbEntity
  8
ROADS
100
AcDbPolyline
 90
2
 70
0
 10
639337.1823636865
 20
4847611.4612546945
 10
639521.0021071675
 20
4847670.501706381
  0
LWPOLYLINE
  5
230
330
17
100
AcDbEntity
  8
ROADS
100
AcDbPolyline
 90
2
 70
0
 10
638802.2316813841
 20
4847440.832425544
 10
638814.8730347238
 20
4847425.256386078
  0
LWPOLYLINE
  5
231
330
17
100
AcDbEntity
  8
ROADS
100
AcDbPolyline
 90
2
 70
0
 10
638942.3388045724
 20
4847454.938047231
 10
638954.2301454778
 20
4847413.631409758
  0
LWPOLYLINE
  5
232
330
17
100
AcDbEntity
  8
ROADS
100
AcDbPolyline
 90
2
 70
0
 10
638814.8730347238
 20
4847425.256386078
 10
638942.3388045724
 20
4847454.938047231
  0
LWPOLYLINE
  5
233
330
17
100
AcDbEntity
  8
ROADS
100
AcDbPolyline
 90
2
 70
0
 10
638802.2316813841
 20
4847440.832425544
 10
639002.5812569399
 20
4847504.31803417
  0
LWPOLYLINE
  5
234
330
17
100
AcDbEntity
  8
ROADS
100
AcDbPolyline
 90
3
 70
0
 10
638942.3388045724
 20
4847454.938047231
 10
639006.5053782302
 20
4847472.753031622
 10
639018.8174177522
 20
4847509.144592478
  0
LWPOLYLINE
  5
235
330
17
100
AcDbEntity
  8
ROADS
100
AcDbPolyline
 90
5
 70
0
 10
638802.2316813841
 20
4847440.832425544
 10
638804.8075821566
 20
4847471.713577844
 10
638821.9909298536
 20
4847484.37404853
 10
638971.3546760958
 20
4847533.111231228
 10
639002.5812569399
 20
4847504.31803417
  0
LWPOLYLINE
  5
236
330
17
100
AcDbEntity
  8
ROADS
100
AcDbPolyline
 90
2
 70
0
 10
639002.5812569399
 20
4847504.31803417
 10
639018.8174177522
 20
4847509.144592478
  0
LWPOLYLINE
  5
237
330
17
100
AcDbEntity
  8
ROADS
100
AcDbPolyline
 90
2
 70
0
 10
639018.8174177522
 20
4847509.144592478
 10
639152.278112941
 20
4847549.797965072
  0
LWPOLYLINE
  5
238
330
17
100
AcDbEntity
  8
ROADS
100
AcDbPolyline
 90
2
 70
0
 10
639152.278112941
 20
4847549.797965072
 10
639077.1468584932
 20
4847828.477354012
  0
LWPOLYLINE
  5
239
330
17
100
AcDbEntity
  8
ROADS
100
AcDbPolyline
 90
2
 70
0
 10
638528.9048884821
 20
4847787.668537885
 10
638627.3676479389
 20
4847841.534284844
  0
LWPOLYLINE
  5
23A
330
17
100
AcDbEntity
  8
ROADS
100
AcDbPolyline
 90
3
 70
0
 10
637849.5419577165
 20
4847706.474931063
 10
637861.4897394419
 20
4847674.584346029
 10
637987.5892328887
 20
4847634.02963245
  0
LWPOLYLINE
  5
23B
330
17
100
AcDbEntity
  8
ROADS
100
AcDbPolyline
 90
2
 70
0
 10
637987.5892328887
 20
4847634.02963245
 10
637948.5513873126
 20
4847739.096944023
  0
LWPOLYLINE
  5
23C
330
17
100
AcDbEntity
  8
ROADS
100
AcDbPolyline
 90
2
 70
0
 10
637849.5419577165
 20
4847706.474931063
 10
637840.9793679732
 20
4847732.465277254
  0
LWPOLYLINE
  5
23D
330
17
100
AcDbEntity
  8
ROADS
100
AcDbPolyline
 90
2
 70
0
 10
637948.5513873126
 20
4847739.096944023
 10
637849.5419577165
 20
4847706.474931063
  0
LWPOLYLINE
  5
23E
330
17
100
AcDbEntity
  8
ROADS
100
AcDbPolyline
 90
2
 70
0
 10
637948.5513873126
 20
4847739.096944023
 10
637938.4174486874
 20
4847767.913600711
  0
LWPOLYLINE
  5
23F
330
17
100
AcDbEntity
  8
ROADS
100
AcDbPolyline
 90
2
 70
0
 10
637938.4174486874
 20
4847767.913600711
 10
637912.9793220634
 20
4847874.169342656
  0
LWPOLYLINE
  5
240
330
17
100
AcDbEntity
  8
ROADS
100
AcDbPolyline
 90
4
 70
0
 10
637938.4174486874
 20
4847767.913600711
 10
637969.279794906
 20
4847780.200800349
 10
637966.1032212798
 20
4847834.8144219285
 10
637912.9793220634
 20
4847874.169342656
  0
LWPOLYLINE
  5
241
330
17
100
AcDbEntity
  8
ROADS
100
AcDbPolyline
 90
2
 70
0
 10
637912.9793220634
 20
4847874.169342656
 10
637949.4376556093
 20
4847930.263556994
  0
LWPOLYLINE
  5
242
330
17
100
AcDbEntity
  8
ROADS
100
AcDbPolyline
 90
3
 70
0
 10
638166.4190877207
 20
4847952.408152097
 10
638022.3628141222
 20
4847901.597838495
 10
637949.4376556093
 20
4847930.263556994
  0
LWPOLYLINE
  5
243
330
17
100
AcDbEntity
  8
ROADS
100
AcDbPolyline
 90
3
 70
0
 10
637949.4376556093
 20
4847930.263556994
 10
637817.6833120362
 20
4848021.125453518
 10
637709.0934998806
 20
4847966.231236316
  0
LWPOLYLINE
  5
244
330
17
100
AcDbEntity
  8
ROADS
100
AcDbPolyline
 90
2
 70
0
 10
639077.1468584932
 20
4847828.477354012
 10
639071.5378640369
 20
4847845.946960952
  0
LWPOLYLINE
  5
245
330
17
100
AcDbEntity
  8
ROADS
100
AcDbPolyline
 90
2
 70
0
 10
639071.5378640369
 20
4847845.946960952
 10
639046.8994912715
 20
4847923.618749796
  0
LWPOLYLINE
  5
246
330
17
100
AcDbEntity
  8
ROADS
100
AcDbPolyline
 90
3
 70
0
 10
638627.3676479389
 20
4847841.534284844
 10
638815.9001311858
 20
4848036.007255577
 10
638989.6154783366
 20
4848106.532934116
  0
LWPOLYLINE
  5
247
330
17
100
AcDbEntity
  8
ROADS
100
AcDbPolyline
 90
2
 70
0
 10
639046.8994912715
 20
4847923.618749796
 10
638989.6154783366
 20
4848106.532934116
  0
LWPOLYLINE
  5
248
330
17
100
AcDbEntity
  8
ROADS
100
AcDbPolyline
 90
2
 70
0
 10
638989.6154783366
 20
4848106.532934116
 10
639226.4632716936
 20
4848181.023723485
  0
LWPOLYLINE
  5
249
330
17
100
AcDbEntity
  8
ROADS
100
AcDbPolyline
 90
2
 70
0
 10
638989.6154783366
 20
4848106.532934116
 10
638777.0895687968
 20
4848763.097707941
  0
LWPOLYLINE
  5
24A
330
17
100
AcDbEntity
  8
ROADS
100
AcDbPolyline
 90
2
 70
0
 10
638777.0895687968
 20
4848763.097707941
 10
638595.8483537768
 20
4848706.3927206425
  0
LWPOLYLINE
  5
24B
330
17
100
AcDbEntity
  8
ROADS
100
AcDbPolyline
 90
4
 70
0
 10
638832.9951388014
 20
4848816.741251007
 10
638877.8692321747
 20
4848702.773649442
 10
639188.0615484823
 20
4848804.778311331
 10
639189.8657086657
 20
4848829.507425541
  0
LWPOLYLINE
  5
24C
330
17
100
AcDbEntity
  8
ROADS
100
AcDbPolyline
 90
2
 70
0
 10
638777.0895687968
 20
4848763.097707941
 10
638766.7997393089
 20
4848796.151492937
  0
LWPOLYLINE
  5
24D
330
17
100
AcDbEntity
  8
ROADS
100
AcDbPolyline
 90
2
 70
0
 10
638766.7997393089
 20
4848796.151492937
 10
638832.9951388014
 20
4848816.741251007
  0
LWPOLYLINE
  5
24E
330
17
100
AcDbEntity
  8
ROADS
100
AcDbPolyline
 90
2
 70
0
 10
639521.0021071675
 20
4847670.501706381
 10
639563.3001573075
 20
4847684.315222112
  0
LWPOLYLINE
  5
24F
330
17
100
AcDbEntity
  8
ROADS
100
AcDbPolyline
 90
3
 70
0
 10
639046.8994912715
 20
4847923.618749796
 10
639274.4135779059
 20
4848000.641595231
 10
639226.4632716936
 20
4848181.023723485
  0
LWPOLYLINE
  5
250
330
17
100
AcDbEntity
  8
ROADS
100
AcDbPolyline
 90
3
 70
0
 10
639226.4632716936
 20
4848181.023723485
 10
639436.9926960757
 20
4848250.155320057
 10
639527.606343338
 20
4848297.006017668
  0
LWPOLYLINE
  5
251
330
17
100
AcDbEntity
  8
ROADS
100
AcDbPolyline
 90
2
 70
0
 10
639189.8657086657
 20
4848829.507425541
 10
639319.3543798176
 20
4848875.765934457
  0
LWPOLYLINE
  5
252
330
17
100
AcDbEntity
  8
ROADS
100
AcDbPolyline
 90
2
 70
0
 10
638251.6245591005
 20
4847697.338278268
 10
638166.4190877207
 20
4847952.408152097
  0
LWPOLYLINE
  5
253
330
17
100
AcDbEntity
  8
ROADS
100
AcDbPolyline
 90
5
 70
0
 10
638528.9048884821
 20
4847787.668537885
 10
638482.5357820613
 20
4847976.119711422
 10
638450.1171439312
 20
4848017.441428742
 10
638210.9197063982
 20
4848138.865017772
 10
638113.2996147075
 20
4848112.964168448
  0
LWPOLYLINE
  5
254
330
17
100
AcDbEntity
  8
ROADS
100
AcDbPolyline
 90
2
 70
0
 10
638166.4190877207
 20
4847952.408152097
 10
638113.2996147075
 20
4848112.964168448
  0
LWPOLYLINE
  5
255
330
17
100
AcDbEntity
  8
ROADS
100
AcDbPolyline
 90
2
 70
0
 10
637967.968426787
 20
4848561.660924776
 10
638194.8019801264
 20
4848635.846368811
  0
LWPOLYLINE
  5
256
330
17
100
AcDbEntity
  8
ROADS
100
AcDbPolyline
 90
2
 70
0
 10
638194.8019801264
 20
4848635.846368811
 10
638294.6938302651
 20
4848668.009130914
  0
LWPOLYLINE
  5
257
330
17
100
AcDbEntity
  8
ROADS
100
AcDbPolyline
 90
2
 70
0
 10
638294.6938302651
 20
4848668.009130914
 10
638359.1841609528
 20
4848689.306513847
  0
LWPOLYLINE
  5
258
330
17
100
AcDbEntity
  8
ROADS
100
AcDbPolyline
 90
3
 70
0
 10
638194.8019801264
 20
4848635.846368811
 10
638146.4991108557
 20
4848783.570337904
 10
638244.0688540777
 20
4848814.234927092
  0
LWPOLYLINE
  5
259
330
17
100
AcDbEntity
  8
ROADS
100
AcDbPolyline
 90
2
 70
0
 10
638294.6938302651
 20
4848668.009130914
 10
638244.0688540777
 20
4848814.234927092
  0
LWPOLYLINE
  5
25A
330
17
100
AcDbEntity
  8
ROADS
100
AcDbPolyline
 90
2
 70
0
 10
638244.0688540777
 20
4848814.234927092
 10
638303.6801280484
 20
4848833.852780359
  0
LWPOLYLINE
  5
25B
330
17
100
AcDbEntity
  8
ROADS
100
AcDbPolyline
 90
2
 70
0
 10
638657.9793736509
 20
4849136.9739323575
 10
638469.7918478039
 20
4849088.36968832
  0
LWPOLYLINE
  5
25C
330
17
100
AcDbEntity
  8
ROADS
100
AcDbPolyline
 90
2
 70
0
 10
638766.7997393089
 20
4848796.151492937
 10
638718.2493868945
 20
4848948.860191111
  0
LWPOLYLINE
  5
25D
330
17
100
AcDbEntity
  8
ROADS
100
AcDbPolyline
 90
3
 70
0
 10
638886.9641211557
 20
4848939.567458026
 10
638930.9438704916
 20
4848825.451136474
 10
639170.740799959
 20
4848890.997974008
  0
LWPOLYLINE
  5
25E
330
17
100
AcDbEntity
  8
ROADS
100
AcDbPolyline
 90
2
 70
0
 10
638784.0426067687
 20
4848969.4566907175
 10
638832.9951388014
 20
4848816.741251007
  0
LWPOLYLINE
  5
25F
330
17
100
AcDbEntity
  8
ROADS
100
AcDbPolyline
 90
3
 70
0
 10
638934.5943388694
 20
4848969.120271632
 10
638985.4371971411
 20
4848923.754986885
 10
639050.7998187905
 20
4848955.424278609
  0
LWPOLYLINE
  5
260
330
17
100
AcDbEntity
  8
ROADS
100
AcDbPolyline
 90
2
 70
0
 10
638886.9641211557
 20
4848939.567458026
 10
638934.5943388694
 20
4848969.120271632
  0
LWPOLYLINE
  5
261
330
17
100
AcDbEntity
  8
ROADS
100
AcDbPolyline
 90
2
 70
0
 10
638718.2493868945
 20
4848948.860191111
 10
638784.0426067687
 20
4848969.4566907175
  0
LWPOLYLINE
  5
262
330
17
100
AcDbEntity
  8
ROADS
100
AcDbPolyline
 90
2
 70
0
 10
638845.8355991433
 20
4849001.470333565
 10
638886.9641211557
 20
4848939.567458026
  0
LWPOLYLINE
  5
263
330
17
100
AcDbEntity
  8
ROADS
100
AcDbPolyline
 90
2
 70
0
 10
639170.740799959
 20
4848890.997974008
 10
639114.3848166913
 20
4849074.933983265
  0
LWPOLYLINE
  5
264
330
17
100
AcDbEntity
  8
ROADS
100
AcDbPolyline
 90
2
 70
0
 10
638784.0426067687
 20
4848969.4566907175
 10
638845.8355991433
 20
4849001.470333565
  0
LWPOLYLINE
  5
265
330
17
100
AcDbEntity
  8
ROADS
100
AcDbPolyline
 90
3
 70
0
 10
638934.5943388694
 20
4848969.120271632
 10
639002.1226775562
 20
4849040.335666692
 10
639114.3848166913
 20
4849074.933983265
  0
LWPOLYLINE
  5
266
330
17
100
AcDbEntity
  8
ROADS
100
AcDbPolyline
 90
2
 70
0
 10
639189.8657086657
 20
4848829.507425541
 10
639170.740799959
 20
4848890.997974008
  0
LWPOLYLINE
  5
267
330
17
100
AcDbEntity
  8
ROADS
100
AcDbPolyline
 90
2
 70
0
 10
639319.3543798176
 20
4848875.765934457
 10
639337.0666583038
 20
4848883.164663882
  0
LWPOLYLINE
  5
268
330
17
100
AcDbEntity
  8
ROADS
100
AcDbPolyline
 90
2
 70
0
 10
639319.3543798176
 20
4848875.765934457
 10
639291.4428391408
 20
4848966.921208075
  0
LWPOLYLINE
  5
269
330
17
100
AcDbEntity
  8
ROADS
100
AcDbPolyline
 90
3
 70
0
 10
637442.6968414516
 20
4848288.217523262
 10
637486.3278014679
 20
4848304.231410687
 10
637507.3855681741
 20
4848332.615528216
  0
LWPOLYLINE
  5
26A
330
17
100
AcDbEntity
  8
ROADS
100
AcDbPolyline
 90
5
 70
0
 10
637507.3855681741
 20
4848332.615528216
 10
637436.9012635553
 20
4848362.851472144
 10
637367.5438230681
 20
4848358.214582291
 10
637246.96732204
 20
4848321.027817497
 10
637217.5121675315
 20
4848400.485555145
  0
LWPOLYLINE
  5
26B
330
17
100
AcDbEntity
  8
ROADS
100
AcDbPolyline
 90
3
 70
0
 10
637507.3855681741
 20
4848332.615528216
 10
637545.3380776896
 20
4848390.743484386
 10
637534.3640921761
 20
4848441.194387114
  0
LWPOLYLINE
  5
26C
330
17
100
AcDbEntity
  8
ROADS
100
AcDbPolyline
 90
2
 70
0
 10
637217.5121675315
 20
4848400.485555145
 10
637300.7111620631
 20
4848430.166521884
  0
LWPOLYLINE
  5
26D
330
17
100
AcDbEntity
  8
ROADS
100
AcDbPolyline
 90
3
 70
0
 10
637300.7111620631
 20
4848430.166521884
 10
637418.1165835152
 20
4848450.340303409
 10
637534.3640921761
 20
4848441.194387114
  0
LWPOLYLINE
  5
26E
330
17
100
AcDbEntity
  8
ROADS
100
AcDbPolyline
 90
2
 70
0
 10
637217.5121675315
 20
4848400.485555145
 10
637170.3035684612
 20
4848542.141390178
  0
LWPOLYLINE
  5
26F
330
17
100
AcDbEntity
  8
ROADS
100
AcDbPolyline
 90
2
 70
0
 10
637534.3640921761
 20
4848441.194387114
 10
637507.3046897885
 20
4848515.376093117
  0
LWPOLYLINE
  5
270
330
17
100
AcDbEntity
  8
ROADS
100
AcDbPolyline
 90
2
 70
0
 10
637534.3640921761
 20
4848441.194387114
 10
637623.3507707646
 20
4848520.606391894
  0
LWPOLYLINE
  5
271
330
17
100
AcDbEntity
  8
ROADS
100
AcDbPolyline
 90
3
 70
0
 10
637300.7111620631
 20
4848430.166521884
 10
637217.2275211823
 20
4848683.028484661
 10
637234.1527397035
 20
4848739.735352169
  0
LWPOLYLINE
  5
272
330
17
100
AcDbEntity
  8
ROADS
100
AcDbPolyline
 90
3
 70
0
 10
637507.3046897885
 20
4848515.376093117
 10
637513.0363484796
 20
4848561.957270373
 10
637468.4051424388
 20
4848681.298825722
  0
LWPOLYLINE
  5
273
330
17
100
AcDbEntity
  8
ROADS
100
AcDbPolyline
 90
2
 70
0
 10
638113.2996147075
 20
4848112.964168448
 10
637967.968426787
 20
4848561.660924776
  0
LWPOLYLINE
  5
274
330
17
100
AcDbEntity
  8
ROADS
100
AcDbPolyline
 90
2
 70
0
 10
637623.3507707646
 20
4848520.606391894
 10
637692.2827103658
 20
4848596.367776562
  0
LWPOLYLINE
  5
275
330
17
100
AcDbEntity
  8
ROADS
100
AcDbPolyline
 90
2
 70
0
 10
637967.968426787
 20
4848561.660924776
 10
637924.9003159285
 20
4848696.1263885815
  0
LWPOLYLINE
  5
276
330
17
100
AcDbEntity
  8
ROADS
100
AcDbPolyline
 90
2
 70
0
 10
637692.2827103658
 20
4848596.367776562
 10
637757.421185055
 20
4848666.39442883
  0
LWPOLYLINE
  5
277
330
17
100
AcDbEntity
  8
ROADS
100
AcDbPolyline
 90
2
 70
0
 10
637692.2827103658
 20
4848596.367776562
 10
637617.3066019469
 20
4848710.191124228
  0
LWPOLYLINE
  5
278
330
17
100
AcDbEntity
  8
ROADS
100
AcDbPolyline
 90
3
 70
0
 10
637757.421185055
 20
4848666.39442883
 10
637819.4998515274
 20
4848733.855432782
 10
637788.580359502
 20
4848797.640268447
  0
LWPOLYLINE
  5
279
330
17
100
AcDbEntity
  8
ROADS
100
AcDbPolyline
 90
2
 70
0
 10
637617.3066019469
 20
4848710.191124228
 10
637590.3079871815
 20
4848790.34248704
  0
LWPOLYLINE
  5
27A
330
17
100
AcDbEntity
  8
ROADS
100
AcDbPolyline
 90
2
 70
0
 10
637924.9003159285
 20
4848696.1263885815
 10
637872.651367054
 20
4848851.617471163
  0
LWPOLYLINE
  5
27B
330
17
100
AcDbEntity
  8
ROADS
100
AcDbPolyline
 90
3
 70
0
 10
637757.421185055
 20
4848666.39442883
 10
637705.2180115213
 20
4848740.153602034
 10
637645.120368206
 20
4848923.516988299
  0
LWPOLYLINE
  5
27C
330
17
100
AcDbEntity
  8
ROADS
100
AcDbPolyline
 90
2
 70
0
 10
637788.580359502
 20
4848797.640268447
 10
637872.651367054
 20
4848851.617471163
  0
LWPOLYLINE
  5
27D
330
17
100
AcDbEntity
  8
ROADS
100
AcDbPolyline
 90
3
 70
0
 10
636885.3312092451
 20
4848391.789022386
 10
636846.9322389478
 20
4848386.073871956
 10
636809.0379524858
 20
4848483.989307176
  0
LWPOLYLINE
  5
27E
330
17
100
AcDbEntity
  8
ROADS
100
AcDbPolyline
 90
2
 70
0
 10
636970.6269889015
 20
4848428.001542341
 10
636959.2512355896
 20
4848465.907930538
  0
LWPOLYLINE
  5
27F
330
17
100
AcDbEntity
  8
ROADS
100
AcDbPolyline
 90
2
 70
0
 10
636959.2512355896
 20
4848465.907930538
 10
637044.2693409515
 20
4848494.649760774
  0
LWPOLYLINE
  5
280
330
17
100
AcDbEntity
  8
ROADS
100
AcDbPolyline
 90
2
 70
0
 10
636809.0379524858
 20
4848483.989307176
 10
636821.746570962
 20
4848483.577500275
  0
LWPOLYLINE
  5
281
330
17
100
AcDbEntity
  8
ROADS
100
AcDbPolyline
 90
2
 70
0
 10
637044.2693409515
 20
4848494.649760774
 10
637108.5254708745
 20
4848517.21390865
  0
LWPOLYLINE
  5
282
330
17
100
AcDbEntity
  8
ROADS
100
AcDbPolyline
 90
3
 70
0
 10
636662.7677711355
 20
4848465.3807736095
 10
636703.1867938929
 20
4848481.203443443
 10
636769.1917940569
 20
4848567.590057253
  0
LWPOLYLINE
  5
283
330
17
100
AcDbEntity
  8
ROADS
100
AcDbPolyline
 90
4
 70
0
 10
636809.0379524858
 20
4848483.989307176
 10
636787.2486887481
 20
4848477.435973949
 10
636772.8636760497
 20
4848499.4993817
 10
636769.1917940569
 20
4848567.590057253
  0
LWPOLYLINE
  5
284
330
17
100
AcDbEntity
  8
ROADS
100
AcDbPolyline
 90
2
 70
0
 10
637108.5254708745
 20
4848517.21390865
 10
637170.3035684612
 20
4848542.141390178
  0
LWPOLYLINE
  5
285
330
17
100
AcDbEntity
  8
ROADS
100
AcDbPolyline
 90
2
 70
0
 10
636959.2512355896
 20
4848465.907930538
 10
636893.3699426475
 20
4848659.560115214
  0
LWPOLYLINE
  5
286
330
17
100
AcDbEntity
  8
ROADS
100
AcDbPolyline
 90
2
 70
0
 10
637044.2693409515
 20
4848494.649760774
 10
636973.7042394779
 20
4848707.253870267
  0
LWPOLYLINE
  5
287
330
17
100
AcDbEntity
  8
ROADS
100
AcDbPolyline
 90
3
 70
0
 10
636769.1917940569
 20
4848567.590057253
 10
636816.994034163
 20
4848628.590619075
 10
636854.843434465
 20
4848645.704880675
  0
LWPOLYLINE
  5
288
330
17
100
AcDbEntity
  8
ROADS
100
AcDbPolyline
 90
2
 70
0
 10
637108.5254708745
 20
4848517.21390865
 10
637037.8890545876
 20
4848731.047875319
  0
LWPOLYLINE
  5
289
330
17
100
AcDbEntity
  8
ROADS
100
AcDbPolyline
 90
3
 70
0
 10
636650.9076756417
 20
4848575.134194601
 10
636753.8834432508
 20
4848667.827842736
 10
636743.6479639566
 20
4848719.247085493
  0
LWPOLYLINE
  5
28A
330
17
100
AcDbEntity
  8
ROADS
100
AcDbPolyline
 90
3
 70
0
 10
637170.3035684612
 20
4848542.141390178
 10
637125.0844437231
 20
4848677.485647946
 10
637114.7827410651
 20
4848757.5083799595
  0
LWPOLYLINE
  5
28B
330
17
100
AcDbEntity
  8
ROADS
100
AcDbPolyline
 90
2
 70
0
 10
636854.843434465
 20
4848645.704880675
 10
636893.3699426475
 20
4848659.560115214
  0
LWPOLYLINE
  5
28C
330
17
100
AcDbEntity
  8
ROADS
100
AcDbPolyline
 90
2
 70
0
 10
636893.3699426475
 20
4848659.560115214
 10
636933.2404524644
 20
4848686.724919371
  0
LWPOLYLINE
  5
28D
330
17
100
AcDbEntity
  8
ROADS
100
AcDbPolyline
 90
2
 70
0
 10
636854.843434465
 20
4848645.704880675
 10
636821.6276541981
 20
4848746.592321001
  0
LWPOLYLINE
  5
28E
330
17
100
AcDbEntity
  8
ROADS
100
AcDbPolyline
 90
2
 70
0
 10
636933.2404524644
 20
4848686.724919371
 10
636973.7042394779
 20
4848707.253870267
  0
LWPOLYLINE
  5
28F
330
17
100
AcDbEntity
  8
ROADS
100
AcDbPolyline
 90
2
 70
0
 10
636973.7042394779
 20
4848707.253870267
 10
637037.8890545876
 20
4848731.047875319
  0
LWPOLYLINE
  5
290
330
17
100
AcDbEntity
  8
ROADS
100
AcDbPolyline
 90
2
 70
0
 10
636743.6479639566
 20
4848719.247085493
 10
636821.6276541981
 20
4848746.592321001
  0
LWPOLYLINE
  5
291
330
17
100
AcDbEntity
  8
ROADS
100
AcDbPolyline
 90
2
 70
0
 10
636662.7677711355
 20
4848465.3807736095
 10
636637.3006311007
 20
4848545.214580337
  0
LWPOLYLINE
  5
292
330
17
100
AcDbEntity
  8
ROADS
100
AcDbPolyline
 90
2
 70
0
 10
636732.3316796861
 20
4848714.01646988
 10
636743.6479639566
 20
4848719.247085493
  0
LWPOLYLINE
  5
293
330
17
100
AcDbEntity
  8
ROADS
100
AcDbPolyline
 90
4
 70
0
 10
637623.3507707646
 20
4848520.606391894
 10
637553.6767318578
 20
4848643.839165715
 10
637564.3393785002
 20
4848673.886141278
 10
637617.3066019469
 20
4848710.191124228
  0
LWPOLYLINE
  5
294
330
17
100
AcDbEntity
  8
ROADS
100
AcDbPolyline
 90
5
 70
0
 10
637507.3046897885
 20
4848515.376093117
 10
637438.2535794543
 20
4848541.688598332
 10
637361.9001133812
 20
4848544.855653807
 10
637316.205941577
 20
4848673.243738055
 10
637338.5848651637
 20
4848733.803782549
  0
LWPOLYLINE
  5
295
330
17
100
AcDbEntity
  8
ROADS
100
AcDbPolyline
 90
3
 70
0
 10
637234.1527397035
 20
4848739.735352169
 10
637299.3157653766
 20
4848748.787738463
 10
637338.5848651637
 20
4848733.803782549
  0
LWPOLYLINE
  5
296
330
17
100
AcDbEntity
  8
ROADS
100
AcDbPolyline
 90
2
 70
0
 10
637167.1578149395
 20
4848769.472356884
 10
637234.1527397035
 20
4848739.735352169
  0
LWPOLYLINE
  5
297
330
17
100
AcDbEntity
  8
ROADS
100
AcDbPolyline
 90
2
 70
0
 10
637590.3079871815
 20
4848790.34248704
 10
637540.6473958186
 20
4848774.167278063
  0
LWPOLYLINE
  5
298
330
17
100
AcDbEntity
  8
ROADS
100
AcDbPolyline
 90
3
 70
0
 10
637338.5848651637
 20
4848733.803782549
 10
637380.4613654802
 20
4848790.898751186
 10
637386.890170314
 20
4848845.366278684
  0
LWPOLYLINE
  5
299
330
17
100
AcDbEntity
  8
ROADS
100
AcDbPolyline
 90
2
 70
0
 10
637590.3079871815
 20
4848790.34248704
 10
637555.7990941677
 20
4848893.375907886
  0
LWPOLYLINE
  5
29A
330
17
100
AcDbEntity
  8
ROADS
100
AcDbPolyline
 90
3
 70
0
 10
637167.1578149395
 20
4848769.472356884
 10
637126.1038184995
 20
4848896.546283847
 10
637221.5201356873
 20
4848929.911052452
  0
LWPOLYLINE
  5
29B
330
17
100
AcDbEntity
  8
ROADS
100
AcDbPolyline
 90
2
 70
0
 10
637386.890170314
 20
4848845.366278684
 10
637555.7990941677
 20
4848893.375907886
  0
LWPOLYLINE
  5
29C
330
17
100
AcDbEntity
  8
ROADS
100
AcDbPolyline
 90
3
 70
0
 10
637221.5201356873
 20
4848929.911052452
 10
637248.5427533796
 20
4848826.467070436
 10
637386.890170314
 20
4848845.366278684
  0
LWPOLYLINE
  5
29D
330
17
100
AcDbEntity
  8
ROADS
100
AcDbPolyline
 90
2
 70
0
 10
637037.8890545876
 20
4848731.047875319
 10
637114.7827410651
 20
4848757.5083799595
  0
LWPOLYLINE
  5
29E
330
17
100
AcDbEntity
  8
ROADS
100
AcDbPolyline
 90
3
 70
0
 10
636933.2404524644
 20
4848686.724919371
 10
636892.8087054552
 20
4848807.333449769
 10
636810.4093406086
 20
4848781.603270609
  0
LWPOLYLINE
  5
29F
330
17
100
AcDbEntity
  8
ROADS
100
AcDbPolyline
 90
2
 70
0
 10
637114.7827410651
 20
4848757.5083799595
 10
637167.1578149395
 20
4848769.472356884
  0
LWPOLYLINE
  5
2A0
330
17
100
AcDbEntity
  8
ROADS
100
AcDbPolyline
 90
2
 70
0
 10
636821.6276541981
 20
4848746.592321001
 10
636810.4093406086
 20
4848781.603270609
  0
LWPOLYLINE
  5
2A1
330
17
100
AcDbEntity
  8
ROADS
100
AcDbPolyline
 90
2
 70
0
 10
636810.4093406086
 20
4848781.603270609
 10
636802.3309729081
 20
4848803.000380534
  0
LWPOLYLINE
  5
2A2
330
17
100
AcDbEntity
  8
ROADS
100
AcDbPolyline
 90
2
 70
0
 10
637037.8890545876
 20
4848731.047875319
 10
636956.3925795107
 20
4848944.827945476
  0
LWPOLYLINE
  5
2A3
330
17
100
AcDbEntity
  8
ROADS
100
AcDbPolyline
 90
2
 70
0
 10
637016.7021003474
 20
4848985.788419317
 10
637320.7125448372
 20
4849088.748878773
  0
LWPOLYLINE
  5
2A4
330
17
100
AcDbEntity
  8
ROADS
100
AcDbPolyline
 90
2
 70
0
 10
637872.651367054
 20
4848851.617471163
 10
637852.5349777377
 20
4848921.743627496
  0
LWPOLYLINE
  5
2A5
330
17
100
AcDbEntity
  8
ROADS
100
AcDbPolyline
 90
2
 70
0
 10
637788.580359502
 20
4848797.640268447
 10
637717.3824240691
 20
4849012.310518209
  0
LWPOLYLINE
  5
2A6
330
17
100
AcDbEntity
  8
ROADS
100
AcDbPolyline
 90
2
 70
0
 10
637555.7990941677
 20
4848893.375907886
 10
637645.120368206
 20
4848923.516988299
  0
LWPOLYLINE
  5
2A7
330
17
100
AcDbEntity
  8
ROADS
100
AcDbPolyline
 90
3
 70
0
 10
637852.5349777377
 20
4848921.743627496
 10
637995.9793993
 20
4848960.001081957
 10
638051.3201529619
 20
4848958.758598112
  0
LWPOLYLINE
  5
2A8
330
17
100
AcDbEntity
  8
ROADS
100
AcDbPolyline
 90
2
 70
0
 10
637645.120368206
 20
4848923.516988299
 10
637625.3016597402
 20
4848982.126408738
  0
LWPOLYLINE
  5
2A9
330
17
100
AcDbEntity
  8
ROADS
100
AcDbPolyline
 90
2
 70
0
 10
637852.5349777377
 20
4848921.743627496
 10
637811.0886045322
 20
4849043.861221282
  0
LWPOLYLINE
  5
2AA
330
17
100
AcDbEntity
  8
ROADS
100
AcDbPolyline
 90
2
 70
0
 10
637625.3016597402
 20
4848982.126408738
 10
637717.3824240691
 20
4849012.310518209
  0
LWPOLYLINE
  5
2AB
330
17
100
AcDbEntity
  8
ROADS
100
AcDbPolyline
 90
2
 70
0
 10
637717.3824240691
 20
4849012.310518209
 10
637811.0886045322
 20
4849043.861221282
  0
LWPOLYLINE
  5
2AC
330
17
100
AcDbEntity
  8
ROADS
100
AcDbPolyline
 90
2
 70
0
 10
637811.0886045322
 20
4849043.861221282
 10
637807.1838956068
 20
4849056.243642069
  0
LWPOLYLINE
  5
2AD
330
17
100
AcDbEntity
  8
ROADS
100
AcDbPolyline
 90
2
 70
0
 10
637807.1838956068
 20
4849056.243642069
 10
637913.9271308876
 20
4849089.074689702
  0
LWPOLYLINE
  5
2AE
330
17
100
AcDbEntity
  8
ROADS
100
AcDbPolyline
 90
2
 70
0
 10
638845.8355991433
 20
4849001.470333565
 10
638911.0164561046
 20
4849076.451552349
  0
LWPOLYLINE
  5
2AF
330
17
100
AcDbEntity
  8
ROADS
100
AcDbPolyline
 90
2
 70
0
 10
638718.2493868945
 20
4848948.860191111
 10
638657.9793736509
 20
4849136.9739323575
  0
LWPOLYLINE
  5
2B0
330
17
100
AcDbEntity
  8
ROADS
100
AcDbPolyline
 90
2
 70
0
 10
638911.0164561046
 20
4849076.451552349
 10
638863.2037504949
 20
4849138.382315017
  0
LWPOLYLINE
  5
2B1
330
17
100
AcDbEntity
  8
ROADS
100
AcDbPolyline
 90
3
 70
0
 10
638911.0164561046
 20
4849076.451552349
 10
638967.6332491551
 20
4849119.37750957
 10
639054.8951024944
 20
4849149.274434465
  0
LWPOLYLINE
  5
2B2
330
17
100
AcDbEntity
  8
ROADS
100
AcDbPolyline
 90
2
 70
0
 10
639114.3848166913
 20
4849074.933983265
 10
639088.9134281126
 20
4849158.988728822
  0
LWPOLYLINE
  5
2B3
330
17
100
AcDbEntity
  8
ROADS
100
AcDbPolyline
 90
2
 70
0
 10
639054.8951024944
 20
4849149.274434465
 10
639088.9134281126
 20
4849158.988728822
  0
LWPOLYLINE
  5
2B4
330
17
100
AcDbEntity
  8
ROADS
100
AcDbPolyline
 90
2
 70
0
 10
639088.9134281126
 20
4849158.988728822
 10
639127.5314638589
 20
4849171.608824709
  0
LWPOLYLINE
  5
2B5
330
17
100
AcDbEntity
  8
ROADS
100
AcDbPolyline
 90
3
 70
0
 10
638863.2037504949
 20
4849138.382315017
 10
638853.6898577906
 20
4849190.09697018
 10
639025.4146348006
 20
4849243.135480701
  0
LWPOLYLINE
  5
2B6
330
17
100
AcDbEntity
  8
ROADS
100
AcDbPolyline
 90
2
 70
0
 10
639025.4146348006
 20
4849243.135480701
 10
639054.8951024944
 20
4849149.274434465
  0
LWPOLYLINE
  5
2B7
330
17
100
AcDbEntity
  8
ROADS
100
AcDbPolyline
 90
7
 70
0
 10
638863.2037504949
 20
4849138.382315017
 10
638782.7601195175
 20
4849072.470447402
 10
638754.705003208
 20
4849069.235838004
 10
638739.1351987396
 20
4849113.242011064
 10
638762.7273928775
 20
4849168.109770772
 10
638753.2593861653
 20
4849247.592932372
 10
638942.6990414698
 20
4849309.930584886
  0
LWPOLYLINE
  5
2B8
330
17
100
AcDbEntity
  8
ROADS
100
AcDbPolyline
 90
2
 70
0
 10
639018.1581815331
 20
4849261.030210479
 10
639025.4146348006
 20
4849243.135480701
  0
LWPOLYLINE
  5
2B9
330
17
100
AcDbEntity
  8
ROADS
100
AcDbPolyline
 90
2
 70
0
 10
637807.1838956068
 20
4849056.243642069
 10
637736.3761502474
 20
4849227.29382528
  0
LWPOLYLINE
  5
2BA
330
17
100
AcDbEntity
  8
ROADS
100
AcDbPolyline
 90
3
 70
0
 10
637913.9271308876
 20
4849089.074689702
 10
638040.1903429134
 20
4849129.793167204
 10
638063.0956646262
 20
4849200.211845412
  0
LWPOLYLINE
  5
2BB
330
17
100
AcDbEntity
  8
ROADS
100
AcDbPolyline
 90
2
 70
0
 10
637913.9271308876
 20
4849089.074689702
 10
637857.0494082608
 20
4849266.485909603
  0
LWPOLYLINE
  5
2BC
330
17
100
AcDbEntity
  8
ROADS
100
AcDbPolyline
 90
2
 70
0
 10
638063.0956646262
 20
4849200.211845412
 10
638052.9339576965
 20
4849209.02857001
  0
LWPOLYLINE
  5
2BD
330
17
100
AcDbEntity
  8
ROADS
100
AcDbPolyline
 90
2
 70
0
 10
637736.3761502474
 20
4849227.29382528
 10
637857.0494082608
 20
4849266.485909603
  0
LWPOLYLINE
  5
2BE
330
17
100
AcDbEntity
  8
ROADS
100
AcDbPolyline
 90
2
 70
0
 10
637857.0494082608
 20
4849266.485909603
 10
637968.8235431823
 20
4849303.515578201
  0
LWPOLYLINE
  5
2BF
330
17
100
AcDbEntity
  8
ROADS
100
AcDbPolyline
 90
2
 70
0
 10
637968.8235431823
 20
4849303.515578201
 10
638129.7579284882
 20
4849354.092273147
  0
LWPOLYLINE
  5
2C0
330
17
100
AcDbEntity
  8
ROADS
100
AcDbPolyline
 90
2
 70
0
 10
637968.8235431823
 20
4849303.515578201
 10
637956.5666071113
 20
4849339.240993431
  0
LWPOLYLINE
  5
2C1
330
17
100
AcDbEntity
  8
ROADS
100
AcDbPolyline
 90
2
 70
0
 10
637736.3761502474
 20
4849227.29382528
 10
637724.253117095
 20
4849259.66911964
  0
LWPOLYLINE
  5
2C2
330
17
100
AcDbEntity
  8
ROADS
100
AcDbPolyline
 90
4
 70
0
 10
638063.0956646262
 20
4849200.211845412
 10
638077.2229750161
 20
4849206.174372362
 10
638103.5260416269
 20
4849183.237757594
 10
638146.7878067808
 20
4849194.019604963
  0
LWPOLYLINE
  5
2C3
330
17
100
AcDbEntity
  8
ROADS
100
AcDbPolyline
 90
5
 70
0
 10
638312.5141289539
 20
4849283.789841844
 10
638334.9514504306
 20
4849202.922633218
 10
638281.3351176477
 20
4849183.892385705
 10
638252.2757712444
 20
4849258.268982973
 10
638312.5141289539
 20
4849283.789841844
  0
LWPOLYLINE
  5
2C4
330
17
100
AcDbEntity
  8
ROADS
100
AcDbPolyline
 90
2
 70
0
 10
638275.4740176176
 20
4849400.110843222
 10
638312.5141289539
 20
4849283.789841844
  0
LWPOLYLINE
  5
2C5
330
17
100
AcDbEntity
  8
ROADS
100
AcDbPolyline
 90
2
 70
0
 10
638129.7579284882
 20
4849354.092273147
 10
638242.6270121549
 20
4849390.776305671
  0
LWPOLYLINE
  5
2C6
330
17
100
AcDbEntity
  8
ROADS
100
AcDbPolyline
 90
2
 70
0
 10
638585.6200372536
 20
4849303.234959896
 10
638524.2557309974
 20
4849443.5363146765
  0
LWPOLYLINE
  5
2C7
330
17
100
AcDbEntity
  8
ROADS
100
AcDbPolyline
 90
2
 70
0
 10
638242.6270121549
 20
4849390.776305671
 10
638275.4740176176
 20
4849400.110843222
  0
LWPOLYLINE
  5
2C8
330
17
100
AcDbEntity
  8
ROADS
100
AcDbPolyline
 90
2
 70
0
 10
638275.4740176176
 20
4849400.110843222
 10
638428.8615480706
 20
4849447.061220161
  0
LWPOLYLINE
  5
2C9
330
17
100
AcDbEntity
  8
ROADS
100
AcDbPolyline
 90
2
 70
0
 10
638242.6270121549
 20
4849390.776305671
 10
638228.0059378115
 20
4849424.794523072
  0
LWPOLYLINE
  5
2CA
330
17
100
AcDbEntity
  8
ROADS
100
AcDbPolyline
 90
2
 70
0
 10
638657.9793736509
 20
4849136.9739323575
 10
638585.6200372536
 20
4849303.234959896
  0
LWPOLYLINE
  5
2CB
330
17
100
AcDbEntity
  8
ROADS
100
AcDbPolyline
 90
5
 70
0
 10
638657.9793736509
 20
4849136.9739323575
 10
638692.7094027776
 20
4849157.524157483
 10
638670.2712949842
 20
4849248.534421567
 10
638690.4845805793
 20
4849279.589655822
 10
638800.2242276437
 20
4849380.132618239
  0
LWPOLYLINE
  5
2CC
330
17
100
AcDbEntity
  8
ROADS
100
AcDbPolyline
 90
2
 70
0
 10
637386.890170314
 20
4848845.366278684
 10
637360.9483858189
 20
4848963.561252392
  0
LWPOLYLINE
  5
2CD
330
17
100
AcDbEntity
  8
ROADS
100
AcDbPolyline
 90
2
 70
0
 10
637221.5201356873
 20
4848929.911052452
 10
637360.9483858189
 20
4848963.561252392
  0
LWPOLYLINE
  5
2CE
330
17
100
AcDbEntity
  8
ROADS
100
AcDbPolyline
 90
3
 70
0
 10
637360.9483858189
 20
4848963.561252392
 10
637414.8903453856
 20
4848980.2881003665
 10
637625.3016597402
 20
4848982.126408738
  0
LWPOLYLINE
  5
2CF
330
17
100
AcDbEntity
  8
ROADS
100
AcDbPolyline
 90
2
 70
0
 10
637360.9483858189
 20
4848963.561252392
 10
637320.7125448372
 20
4849088.748878773
  0
LWPOLYLINE
  5
2D0
330
17
100
AcDbEntity
  8
ROADS
100
AcDbPolyline
 90
2
 70
0
 10
637320.7125448372
 20
4849088.748878773
 10
637736.3761502474
 20
4849227.29382528
  0
ENDSEC
  0
SECTION
  2
OBJECTS
  0
DICTIONARY
  5
A
330
0
100
AcDbDictionary
281
1
  3
ACAD_COLOR
350
B
  3
ACAD_GROUP
350
C
  3
ACAD_LAYOUT
350
D
  3
ACAD_MATERIAL
350
E
  3
ACAD_MLEADERSTYLE
350
F
  3
ACAD_MLINESTYLE
350
10
  3
ACAD_PLOTSETTINGS
350
11
  3
ACAD_PLOTSTYLENAME
350
12
  3
ACAD_SCALELIST
350
14
  3
ACAD_TABLESTYLE
350
15
  3
ACAD_VISUALSTYLE
350
16
  3
EZDXF_META
350
2D
  0
DICTIONARY
  5
B
330
A
100
AcDbDictionary
281
1
  0
DICTIONARY
  5
C
330
A
100
AcDbDictionary
281
1
  0
DICTIONARY
  5
D
330
A
100
AcDbDictionary
281
1
  3
Model
350
1A
  3
Layout1
350
1E
  0
DICTIONARY
  5
E
330
A
100
AcDbDictionary
281
1
  3
ByBlock
350
1F
  3
ByLayer
350
20
  3
Global
350
21
  0
DICTIONARY
  5
F
330
A
100
AcDbDictionary
281
1
  3
Standard
350
2C
  0
DICTIONARY
  5
10
330
A
100
AcDbDictionary
281
1
  3
Standard
350
22
  0
DICTIONARY
  5
11
330
A
100
AcDbDictionary
281
1
  0
ACDBDICTIONARYWDFLT
  5
12
330
A
100
AcDbDictionary
281
1
  3
Normal
350
13
100
AcDbDictionaryWithDefault
340
13
  0
ACDBPLACEHOLDER
  5
13
330
12
  0
DICTIONARY
  5
14
330
A
100
AcDbDictionary
281
1
  0
DICTIONARY
  5
15
330
A
100
AcDbDictionary
281
1
  0
DICTIONARY
  5
16
330
A
100
AcDbDictionary
281
1
  0
LAYOUT
  5
1A
330
D
100
AcDbPlotSettings
  1

  4
A3
  6

 40
7.5
 41
20.0
 42
7.5
 43
20.0
 44
420.0
 45
297.0
 46
0.0
 47
0.0
 48
0.0
 49
0.0
140
0.0
141
0.0
142
1.0
143
1.0
 70
1024
 72
1
 73
0
 74
5
  7

 75
16
 76
0
 77
2
 78
300
147
1.0
148
0.0
149
0.0
100
AcDbLayout
  1
Model
 70
1
 71
0
 10
0.0
 20
0.0
 11
420.0
 21
297.0
 12
0.0
 22
0.0
 32
0.0
 14
1e+20
 24
1e+20
 34
1e+20
 15
-1e+20
 25
-1e+20
 35
-1e+20
146
0.0
 13
0.0
 23
0.0
 33
0.0
 16
1.0
 26
0.0
 36
0.0
 17
0.0
 27
1.0
 37
0.0
 76
1
330
17
  0
LAYOUT
  5
1E
330
D
100
AcDbPlotSettings
  1

  4
A3
  6

 40
7.5
 41
20.0
 42
7.5
 43
20.0
 44
420.0
 45
297.0
 46
0.0
 47
0.0
 48
0.0
 49
0.0
140
0.0
141
0.0
142
1.0
143
1.0
 70
0
 72
1
 73
0
 74
5
  7

 75
16
 76
0
 77
2
 78
300
147
1.0
148
0.0
149
0.0
100
AcDbLayout
  1
Layout1
 70
1
 71
1
 10
0.0
 20
0.0
 11
420.0
 21
297.0
 12
0.0
 22
0.0
 32
0.0
 14
1e+20
 24
1e+20
 34
1e+20
 15
-1e+20
 25
-1e+20
 35
-1e+20
146
0.0
 13
0.0
 23
0.0
 33
0.0
 16
1.0
 26
0.0
 36
0.0
 17
0.0
 27
1.0
 37
0.0
 76
1
330
1B
  0
MATERIAL
  5
1F
102
{ACAD_REACTORS
330
E
102
}
330
E
100
AcDbMaterial
  1
ByBlock
  2

 70
0
 40
1.0
 71
1
 41
1.0
 91
-1023410177
 42
1.0
 72
1
  3

 73
1
 74
1
 75
1
 44
0.5
 73
0
 45
1.0
 46
1.0
 77
1
  4

 78
1
 79
1
170
1
 48
1.0
171
1
  6

172
1
173
1
174
1
140
1.0
141
1.0
175
1
  7

176
1
177
1
178
1
143
1.0
179
1
  8

270
1
271
1
272
1
145
1.0
146
1.0
273
1
  9

274
1
275
1
276
1
 42
1.0
 72
1
  3

 73
1
 74
1
 75
1
 94
63
  0
MATERIAL
  5
20
102
{ACAD_REACTORS
330
E
102
}
330
E
100
AcDbMaterial
  1
ByLayer
  2

 70
0
 40
1.0
 71
1
 41
1.0
 91
-1023410177
 42
1.0
 72
1
  3

 73
1
 74
1
 75
1
 44
0.5
 73
0
 45
1.0
 46
1.0
 77
1
  4

 78
1
 79
1
170
1
 48
1.0
171
1
  6

172
1
173
1
174
1
140
1.0
141
1.0
175
1
  7

176
1
177
1
178
1
143
1.0
179
1
  8

270
1
271
1
272
1
145
1.0
146
1.0
273
1
  9

274
1
275
1
276
1
 42
1.0
 72
1
  3

 73
1
 74
1
 75
1
 94
63
  0
MATERIAL
  5
21
102
{ACAD_REACTORS
330
E
102
}
330
E
100
AcDbMaterial
  1
Global
  2

 70
0
 40
1.0
 71
1
 41
1.0
 91
-1023410177
 42
1.0
 72
1
  3

 73
1
 74
1
 75
1
 44
0.5
 73
0
 45
1.0
 46
1.0
 77
1
  4

 78
1
 79
1
170
1
 48
1.0
171
1
  6

172
1
173
1
174
1
140
1.0
141
1.0
175
1
  7

176
1
177
1
178
1
143
1.0
179
1
  8

270
1
271
1
272
1
145
1.0
146
1.0
273
1
  9

274
1
275
1
276
1
 42
1.0
 72
1
  3

 73
1
 74
1
 75
1
 94
63
  0
MLINESTYLE
  5
22
102
{ACAD_REACTORS
330
10
102
}
330
10
100
AcDbMlineStyle
  2
Standard
 70
0
  3

 62
256
 51
90.0
 52
90.0
 71
2
 49
0.5
 62
256
  6
BYLAYER
 49
-0.5
 62
256
  6
BYLAYER
  0
MLEADERSTYLE
  5
2C
102
{ACAD_REACTORS
330
F
102
}
330
F
100
AcDbMLeaderStyle
179
2
170
2
171
1
172
0
 90
2
 40
0.0
 41
0.0
173
1
 91
-1056964608
 92
-2
290
1
 42
2.0
291
1
 43
8.0
  3
Standard
 44
4.0
300

342
29
174
1
175
1
176
0
178
1
 93
-1056964608
 45
4.0
292
0
297
0
 46
4.0
 94
-1056964608
 47
1.0
 49
1.0
140
1.0
294
1
141
0.0
177
0
142
1.0
295
0
296
0
143
3.75
271
0
272
9
273
9
  0
DICTIONARY
  5
2D
330
A
100
AcDbDictionary
280
1
281
1
  3
CREATED_BY_EZDXF
350
2E
  3
WRITTEN_BY_EZDXF
350
2D3
  0
DICTIONARYVAR
  5
2E
330
2D
100
DictionaryVariables
280
0
  1
1.4.4 @ 2026-07-30T15:39:50.421282+00:00
  0
DICTIONARYVAR
  5
2D3
330
2D
100
DictionaryVariables
280
0
  1
1.4.4 @ 2026-07-30T15:39:50.506077+00:00
  0
ENDSEC
  0
EOF
