  0
SECTION
  2
HEADER
  9
$ACADVER
  1
AC1015
  9
$ACADMAINTVER
 70
6
  9
$DWGCODEPAGE
  3
ANSI_1252
  9
$INSBASE
 10
0.0
 20
0.0
 30
0.0
  9
$EXTMIN
 10
1e+20
 20
1e+20
 30
1e+20
  9
$EXTMAX
 10
-1e+20
 20
-1e+20
 30
-1e+20
  9
$LIMMIN
 10
0.0
 20
0.0
  9
$LIMMAX
 10
420.0
 20
297.0
  9
$ORTHOMODE
 70
0
  9
$REGENMODE
 70
1
  9
$FILLMODE
 70
1
  9
$QTEXTMODE
 70
0
  9
$MIRRTEXT
 70
1
  9
$LTSCALE
 40
1.0
  9
$ATTMODE
 70
1
  9
$TEXTSIZE
 40
2.5
  9
$TRACEWID
 40
1.0
  9
$TEXTSTYLE
  7
Standard
  9
$CLAYER
  8
0
  9
$CELTYPE
  6
ByLayer
  9
$CECOLOR
 62
256
  9
$CELTSCALE
 40
1.0
  9
$DISPSILH
 70
0
  9
$DIMSCALE
 40
1.0
  9
$DIMASZ
 40
2.5
  9
$DIMEXO
 40
0.625
  9
$DIMDLI
 40
3.75
  9
$DIMRND
 40
0.0
  9
$DIMDLE
 40
0.0
  9
$DIMEXE
 40
1.25
  9
$DIMTP
 40
0.0
  9
$DIMTM
 40
0.0
  9
$DIMTXT
 40
2.5
  9
$DIMCEN
 40
2.5
  9
$DIMTSZ
 40
0.0
  9
$DIMTOL
 70
0
  9
$DIMLIM
 70
0
  9
$DIMTIH
 70
0
  9
$DIMTOH
 70
0
  9
$DIMSE1
 70
0
  9
$DIMSE2
 70
0
  9
$DIMTAD
 70
1
  9
$DIMZIN
 70
8
  9
$DIMBLK
  1

  9
$DIMASO
 70
1
  9
$DIMSHO
 70
1
  9
$DIMPOST
  1

  9
$DIMAPOST
  1

  9
$DIMALT
 70
0
  9
$DIMALTD
 70
3
  9
$DIMALTF
 40
0.03937007874
  9
$DIMLFAC
 40
1.0
  9
$DIMTOFL
 70
1
  9
$DIMTVP
 40
0.0
  9
$DIMTIX
 70
0
  9
$DIMSOXD
 70
0
  9
$DIMSAH
 70
0
  9
$DIMBLK1
  1

  9
$DIMBLK2
  1

  9
$DIMSTYLE
  2
ISO-25
  9
$DIMCLRD
 70
0
  9
$DIMCLRE
 70
0
  9
$DIMCLRT
 70
0
  9
$DIMTFAC
 40
1.0
  9
$DIMGAP
 40
0.625
  9
$DIMJUST
 70
0
  9
$DIMSD1
 70
0
  9
$DIMSD2
 70
0
  9
$DIMTOLJ
 70
0
  9
$DIMTZIN
 70
8
  9
$DIMALTZ
 70
0
  9
$DIMALTTZ
 70
0
  9
$DIMUPT
 70
0
  9
$DIMDEC
 70
2
  9
$DIMTDEC
 70
2
  9
$DIMALTU
 70
2
  9
$DIMALTTD
 70
3
  9
$DIMTXSTY
  7
Standard
  9
$DIMAUNIT
 70
0
  9
$DIMADEC
 70
0
  9
$DIMALTRND
 40
0.0
  9
$DIMAZIN
 70
0
  9
$DIMDSEP
 70
44
  9
$DIMATFIT
 70
3
  9
$DIMFRAC
 70
0
  9
$DIMLDRBLK
  1

  9
$DIMLUNIT
 70
2
  9
$DIMLWD
 70
-2
  9
$DIMLWE
 70
-2
  9
$DIMTMOVE
 70
0
  9
$LUNITS
 70
2
  9
$LUPREC
 70
4
  9
$SKETCHINC
 40
1.0
  9
$FILLETRAD
 40
10.0
  9
$AUNITS
 70
0
  9
$AUPREC
 70
2
  9
$MENU
  1
.
  9
$ELEVATION
 40
0.0
  9
$PELEVATION
 40
0.0
  9
$THICKNESS
 40
0.0
  9
$LIMCHECK
 70
0
  9
$CHAMFERA
 40
0.0
  9
$CHAMFERB
 40
0.0
  9
$CHAMFERC
 40
0.0
  9
$CHAMFERD
 40
0.0
  9
$SKPOLY
 70
0
  9
$TDCREATE
 40
2461252.4861458335
  9
$TDUCREATE
 40
2458532.153996898
  9
$TDUPDATE
 40
2461252.4861458335
  9
$TDUUPDATE
 40
2458532.1544311
  9
$TDINDWG
 40
0.0
  9
$TDUSRTIMER
 40
0.0
  9
$USRTIMER
 70
1
  9
$ANGBASE
 50
0.0
  9
$ANGDIR
 70
0
  9
$PDMODE
 70
0
  9
$PDSIZE
 40
0.0
  9
$PLINEWID
 40
0.0
  9
$SPLFRAME
 70
0
  9
$SPLINETYPE
 70
6
  9
$SPLINESEGS
 70
8
  9
$HANDSEED
  5
1DE
  9
$SURFTAB1
 70
6
  9
$SURFTAB2
 70
6
  9
$SURFTYPE
 70
6
  9
$SURFU
 70
6
  9
$SURFV
 70
6
  9
$UCSBASE
  2

  9
$UCSNAME
  2

  9
$UCSORG
 10
0.0
 20
0.0
 30
0.0
  9
$UCSXDIR
 10
1.0
 20
0.0
 30
0.0
  9
$UCSYDIR
 10
0.0
 20
1.0
 30
0.0
  9
$UCSORTHOREF
  2

  9
$UCSORTHOVIEW
 70
0
  9
$UCSORGTOP
 10
0.0
 20
0.0
 30
0.0
  9
$UCSORGBOTTOM
 10
0.0
 20
0.0
 30
0.0
  9
$UCSORGLEFT
 10
0.0
 20
0.0
 30
0.0
  9
$UCSORGRIGHT
 10
0.0
 20
0.0
 30
0.0
  9
$UCSORGFRONT
 10
0.0
 20
0.0
 30
0.0
  9
$UCSORGBACK
 10
0.0
 20
0.0
 30
0.0
  9
$PUCSBASE
  2

  9
$PUCSNAME
  2

  9
$PUCSORG
 10
0.0
 20
0.0
 30
0.0
  9
$PUCSXDIR
 10
1.0
 20
0.0
 30
0.0
  9
$PUCSYDIR
 10
0.0
 20
1.0
 30
0.0
  9
$PUCSORTHOREF
  2

  9
$PUCSORTHOVIEW
 70
0
  9
$PUCSORGTOP
 10
0.0
 20
0.0
 30
0.0
  9
$PUCSORGBOTTOM
 10
0.0
 20
0.0
 30
0.0
  9
$PUCSORGLEFT
 10
0.0
 20
0.0
 30
0.0
  9
$PUCSORGRIGHT
 10
0.0
 20
0.0
 30
0.0
  9
$PUCSORGFRONT
 10
0.0
 20
0.0
 30
0.0
  9
$PUCSORGBACK
 10
0.0
 20
0.0
 30
0.0
  9
$USERI1
 70
0
  9
$USERI2
 70
0
  9
$USERI3
 70
0
  9
$USERI4
 70
0
  9
$USERI5
 70
0
  9
$USERR1
 40
0.0
  9
$USERR2
 40
0.0
  9
$USERR3
 40
0.0
  9
$USERR4
 40
0.0
  9
$USERR5
 40
0.0
  9
$WORLDVIEW
 70
1
  9
$SHADEDGE
 70
3
  9
$SHADEDIF
 70
70
  9
$TILEMODE
 70
1
  9
$MAXACTVP
 70
64
  9
$PINSBASE
 10
0.0
 20
0.0
 30
0.0
  9
$PLIMCHECK
 70
0
  9
$PEXTMIN
 10
1e+20
 20
1e+20
 30
1e+20
  9
$PEXTMAX
 10
-1e+20
 20
-1e+20
 30
-1e+20
  9
$PLIMMIN
 10
0.0
 20
0.0
  9
$PLIMMAX
 10
420.0
 20
297.0
  9
$UNITMODE
 70
0
  9
$VISRETAIN
 70
1
  9
$PLINEGEN
 70
0
  9
$PSLTSCALE
 70
1
  9
$TREEDEPTH
 70
3020
  9
$CMLSTYLE
  2
Standard
  9
$CMLJUST
 70
0
  9
$CMLSCALE
 40
20.0
  9
$PROXYGRAPHICS
 70
1
  9
$MEASUREMENT
 70
1
  9
$CELWEIGHT
370
-1
  9
$ENDCAPS
280
0
  9
$JOINSTYLE
280
0
  9
$LWDISPLAY
290
0
  9
$INSUNITS
 70
6
  9
$HYPERLINKBASE
  1

  9
$STYLESHEET
  1

  9
$XEDIT
290
1
  9
$CEPSNTYPE
380
0
  9
$PSTYLEMODE
290
1
  9
$FINGERPRINTGUID
  2
{F0C7EE03-A642-4D82-8108-7C8985148548}
  9
$VERSIONGUID
  2
{26D7DD38-7198-4B33-89A9-CEA25C2950A3}
  9
$EXTNAMES
290
1
  9
$PSVPSCALE
 40
0.0
  9
$OLESTARTUP
290
0
  0
ENDSEC
  0
SECTION
  2
CLASSES
  0
CLASS
  1
ACDBDICTIONARYWDFLT
  2
AcDbDictionaryWithDefault
  3
ObjectDBX Classes
 90
0
280
0
281
0
  0
CLASS
  1
SUN
  2
AcDbSun
  3
SCENEOE
 90
1153
280
0
281
0
  0
CLASS
  1
VISUALSTYLE
  2
AcDbVisualStyle
  3
ObjectDBX Classes
 90
4095
280
0
281
0
  0
CLASS
  1
MATERIAL
  2
AcDbMaterial
  3
ObjectDBX Classes
 90
1153
280
0
281
0
  0
CLASS
  1
SCALE
  2
AcDbScale
  3
ObjectDBX Classes
 90
1153
280
0
281
0
  0
CLASS
  1
TABLESTYLE
  2
AcDbTableStyle
  3
ObjectDBX Classes
 90
4095
280
0
281
0
  0
CLASS
  1
MLEADERSTYLE
  2
AcDbMLeaderStyle
  3
ACDB_MLEADERSTYLE_CLASS
 90
4095
280
0
281
0
  0
CLASS
  1
DICTIONARYVAR
  2
AcDbDictionaryVar
  3
ObjectDBX Classes
 90
0
280
0
281
0
  0
CLASS
  1
CELLSTYLEMAP
  2
AcDbCellStyleMap
  3
ObjectDBX Classes
 90
1152
280
0
281
0
  0
CLASS
  1
MENTALRAYRENDERSETTINGS
  2
AcDbMentalRayRenderSettings
  3
SCENEOE
 90
1024
280
0
281
0
  0
CLASS
  1
ACDBDETAILVIEWSTYLE
  2
AcDbDetailViewStyle
  3
ObjectDBX Classes
 90
1025
280
0
281
0
  0
CLASS
  1
ACDBSECTIONVIEWSTYLE
  2
AcDbSectionViewStyle
  3
ObjectDBX Classes
 90
1025
280
0
281
0
  0
CLASS
  1
RASTERVARIABLES
  2
AcDbRasterVariables
  3
ISM
 90
0
280
0
281
0
  0
CLASS
  1
ACDBPLACEHOLDER
  2
AcDbPlaceHolder
  3
ObjectDBX Classes
 90
0
280
0
281
0
  0
CLASS
  1
LAYOUT
  2
AcDbLayout
  3
ObjectDBX Classes
 90
0
280
0
281
0
  0
ENDSEC
  0
SECTION
  2
TABLES
  0
TABLE
  2
VPORT
  5
8
330
0
100
AcDbSymbolTable
 70
1
  0
VPORT
  5
23
330
8
100
AcDbSymbolTableRecord
100
AcDbViewportTableRecord
  2
*Active
 70
0
 10
0.0
 20
0.0
 11
1.0
 21
1.0
 12
0.0
 22
0.0
 13
0.0
 23
0.0
 14
0.5
 24
0.5
 15
0.5
 25
0.5
 16
0.0
 26
0.0
 36
1.0
 17
0.0
 27
0.0
 37
0.0
 40
1000.0
 41
1.34
 42
50.0
 43
0.0
 44
0.0
 50
0.0
 51
0.0
 71
0
 72
1000
 73
1
 74
3
 75
0
 76
0
 77
0
 78
0
281
0
 65
0
146
0.0
  0
ENDTAB
  0
TABLE
  2
LTYPE
  5
2
330
0
100
AcDbSymbolTable
 70
3
  0
LTYPE
  5
24
330
2
100
AcDbSymbolTableRecord
100
AcDbLinetypeTableRecord
  2
ByBlock
 70
0
  3

 72
65
 73
0
 40
0.0
  0
LTYPE
  5
25
330
2
100
AcDbSymbolTableRecord
100
AcDbLinetypeTableRecord
  2
ByLayer
 70
0
  3

 72
65
 73
0
 40
0.0
  0
LTYPE
  5
26
330
2
100
AcDbSymbolTableRecord
100
AcDbLinetypeTableRecord
  2
Continuous
 70
0
  3

 72
65
 73
0
 40
0.0
  0
ENDTAB
  0
TABLE
  2
LAYER
  5
1
330
0
100
AcDbSymbolTable
 70
2
  0
LAYER
  5
27
330
1
100
AcDbSymbolTableRecord
100
AcDbLayerTableRecord
  2
0
 70
0
 62
7
  6
Continuous
370
-3
390
13
  0
LAYER
  5
28
330
1
100
AcDbSymbolTableRecord
100
AcDbLayerTableRecord
  2
Defpoints
 70
0
 62
7
  6
Continuous
290
0
370
-3
390
13
  0
ENDTAB
  0
TABLE
  2
STYLE
  5
5
330
0
100
AcDbSymbolTable
 70
1
  0
STYLE
  5
29
330
5
100
AcDbSymbolTableRecord
100
AcDbTextStyleTableRecord
  2
Standard
 70
0
 40
0.0
 41
1.0
 50
0.0
 71
0
 42
2.5
  3
txt
  4

  0
ENDTAB
  0
TABLE
  2
VIEW
  5
7
330
0
100
AcDbSymbolTable
 70
0
  0
ENDTAB
  0
TABLE
  2
UCS
  5
6
330
0
100
AcDbSymbolTable
 70
0
  0
ENDTAB
  0
TABLE
  2
APPID
  5
3
330
0
100
AcDbSymbolTable
 70
3
  0
APPID
  5
2A
330
3
100
AcDbSymbolTableRecord
100
AcDbRegAppTableRecord
  2
ACAD
 70
0
  0
APPID
  5
1DB
330
3
100
AcDbSymbolTableRecord
100
AcDbRegAppTableRecord
  2
HATCHBACKGROUNDCOLOR
 70
0
  0
APPID
  5
1DC
330
3
100
AcDbSymbolTableRecord
100
AcDbRegAppTableRecord
  2
EZDXF
 70
0
  0
ENDTAB
  0
TABLE
  2
DIMSTYLE
  5
4
330
0
100
AcDbSymbolTable
 70
1
100
AcDbDimStyleTable
  0
DIMSTYLE
105
2B
330
4
100
AcDbSymbolTableRecord
100
AcDbDimStyleTableRecord
  2
Standard
 70
0
  3

  4

 40
1.0
 41
2.5
 42
0.625
 43
3.75
 44
1.25
 45
0.0
 46
0.0
 47
0.0
 48
0.0
140
2.5
141
2.5
142
0.0
143
0.03937007874
144
1.0
145
0.0
146
1.0
147
0.625
148
0.0
 71
0
 72
0
 73
0
 74
0
 75
0
 76
0
 77
1
 78
8
 79
3
170
0
171
3
172
1
173
0
174
0
175
0
176
0
177
0
178
0
179
2
271
2
272
2
273
2
274
3
275
0
276
0
277
2
278
44
279
0
280
0
281
0
282
0
283
0
284
8
285
0
286
0
288
0
289
3
371
-2
372
-2
  0
ENDTAB
  0
TABLE
  2
BLOCK_RECORD
  5
9
330
0
100
AcDbSymbolTable
 70
2
  0
BLOCK_RECORD
  5
17
330
9
100
AcDbSymbolTableRecord
100
AcDbBlockTableRecord
  2
*Model_Space
340
1A
  0
BLOCK_RECORD
  5
1B
330
9
100
AcDbSymbolTableRecord
100
AcDbBlockTableRecord
  2
*Paper_Space
340
1E
  0
ENDTAB
  0
ENDSEC
  0
SECTION
  2
BLOCKS
  0
BLOCK
  5
18
330
17
100
AcDbEntity
  8
0
100
AcDbBlockBegin
  2
*Model_Space
 70
0
 10
0.0
 20
0.0
 30
0.0
  3
*Model_Space
  1

  0
ENDBLK
  5
19
330
17
100
AcDbEntity
  8
0
100
AcDbBlockEnd
  0
BLOCK
  5
1C
330
1B
100
AcDbEntity
  8
0
100
AcDbBlockBegin
  2
*Paper_Space
 70
0
 10
0.0
 20
0.0
 30
0.0
  3
*Paper_Space
  1

  0
ENDBLK
  5
1D
330
1B
100
AcDbEntity
  8
0
100
AcDbBlockEnd
  0
ENDSEC
  0
SECTION
  2
ENTITIES
  0
LWPOLYLINE
  5
2F
330
17
100
AcDbEntity
  8
ROADS
100
AcDbPolyline
 90
2
 70
0
 10
620234.8192835996
 20
4827448.512159738
 10
620235.7275805896
 20
4827434.011608842
  0
LWPOLYLINE
  5
30
330
17
100
AcDbEntity
  8
ROADS
100
AcDbPolyline
 90
2
 70
0
 10
620234.8192835996
 20
4827448.512159738
 10
620365.9834263844
 20
4827456.334565329
  0
LWPOLYLINE
  5
31
330
17
100
AcDbEntity
  8
ROADS
100
AcDbPolyline
 90
2
 70
0
 10
620176.8630185039
 20
4827487.943396859
 10
620234.8192835996
 20
4827448.512159738
  0
LWPOLYLINE
  5
32
330
17
100
AcDbEntity
  8
ROADS
100
AcDbPolyline
 90
4
 70
0
 10
620176.8630185039
 20
4827487.943396859
 10
620136.0239214472
 20
4827460.716966616
 10
620082.7935765424
 20
4827477.399597071
 10
620062.0042261307
 20
4827501.230965812
  0
LWPOLYLINE
  5
33
330
17
100
AcDbEntity
  8
ROADS
100
AcDbPolyline
 90
2
 70
0
 10
620062.0042261307
 20
4827501.230965812
 10
620056.3651416961
 20
4827485.506772297
  0
LWPOLYLINE
  5
34
330
17
100
AcDbEntity
  8
ROADS
100
AcDbPolyline
 90
2
 70
0
 10
620062.0042261307
 20
4827501.230965812
 10
620016.1697251552
 20
4827486.825117928
  0
LWPOLYLINE
  5
35
330
17
100
AcDbEntity
  8
ROADS
100
AcDbPolyline
 90
2
 70
0
 10
619964.952095475
 20
4827468.571330721
 10
620016.1697251552
 20
4827486.825117928
  0
LWPOLYLINE
  5
36
330
17
100
AcDbEntity
  8
ROADS
100
AcDbPolyline
 90
2
 70
0
 10
620133.0911483369
 20
4827509.549992681
 10
620176.8630185039
 20
4827487.943396859
  0
LWPOLYLINE
  5
37
330
17
100
AcDbEntity
  8
ROADS
100
AcDbPolyline
 90
2
 70
0
 10
620062.0042261307
 20
4827501.230965812
 10
620069.3286574368
 20
4827524.832405256
  0
LWPOLYLINE
  5
38
330
17
100
AcDbEntity
  8
ROADS
100
AcDbPolyline
 90
2
 70
0
 10
620168.8400293442
 20
4827540.487677315
 10
620176.8630185039
 20
4827487.943396859
  0
LWPOLYLINE
  5
39
330
17
100
AcDbEntity
  8
ROADS
100
AcDbPolyline
 90
2
 70
0
 10
620077.5779162562
 20
4827532.867666014
 10
620133.0911483369
 20
4827509.549992681
  0
LWPOLYLINE
  5
3A
330
17
100
AcDbEntity
  8
ROADS
100
AcDbPolyline
 90
2
 70
0
 10
620168.8400293442
 20
4827540.487677315
 10
620133.0911483369
 20
4827509.549992681
  0
LWPOLYLINE
  5
3B
330
17
100
AcDbEntity
  8
ROADS
100
AcDbPolyline
 90
2
 70
0
 10
620069.3286574368
 20
4827524.832405256
 10
620077.5779162562
 20
4827532.867666014
  0
LWPOLYLINE
  5
3C
330
17
100
AcDbEntity
  8
ROADS
100
AcDbPolyline
 90
2
 70
0
 10
620069.3286574368
 20
4827524.832405256
 10
620058.4212955004
 20
4827540.835121137
  0
LWPOLYLINE
  5
3D
330
17
100
AcDbEntity
  8
ROADS
100
AcDbPolyline
 90
2
 70
0
 10
620058.4212955004
 20
4827540.835121137
 10
620077.5779162562
 20
4827532.867666014
  0
LWPOLYLINE
  5
3E
330
17
100
AcDbEntity
  8
ROADS
100
AcDbPolyline
 90
2
 70
0
 10
620017.576427785
 20
4827569.399827522
 10
620058.4212955004
 20
4827540.835121137
  0
LWPOLYLINE
  5
3F
330
17
100
AcDbEntity
  8
ROADS
100
AcDbPolyline
 90
2
 70
0
 10
620190.7164610354
 20
4827621.211928218
 10
620168.8400293442
 20
4827540.487677315
  0
LWPOLYLINE
  5
40
330
17
100
AcDbEntity
  8
ROADS
100
AcDbPolyline
 90
3
 70
0
 10
620016.1697251552
 20
4827486.825117928
 10
619957.6674915456
 20
4827549.296385007
 10
619921.2672946128
 20
4827638.676751329
  0
LWPOLYLINE
  5
41
330
17
100
AcDbEntity
  8
ROADS
100
AcDbPolyline
 90
4
 70
0
 10
619789.9038446968
 20
4827534.221394348
 10
619791.8138605336
 20
4827537.058468739
 10
619779.6314122645
 20
4827593.717751666
 10
619814.5303616762
 20
4827645.084875316
  0
LWPOLYLINE
  5
42
330
17
100
AcDbEntity
  8
ROADS
100
AcDbPolyline
 90
2
 70
0
 10
619985.8977427008
 20
4827603.90125824
 10
620017.576427785
 20
4827569.399827522
  0
LWPOLYLINE
  5
43
330
17
100
AcDbEntity
  8
ROADS
100
AcDbPolyline
 90
3
 70
0
 10
620017.576427785
 20
4827569.399827522
 10
620021.3622902757
 20
4827596.306259914
 10
619995.1730548718
 20
4827612.212555317
  0
LWPOLYLINE
  5
44
330
17
100
AcDbEntity
  8
ROADS
100
AcDbPolyline
 90
2
 70
0
 10
619985.8977427008
 20
4827603.90125824
 10
619995.1730548718
 20
4827612.212555317
  0
LWPOLYLINE
  5
45
330
17
100
AcDbEntity
  8
ROADS
100
AcDbPolyline
 90
2
 70
0
 10
619921.2672946128
 20
4827638.676751329
 10
619985.8977427008
 20
4827603.90125824
  0
LWPOLYLINE
  5
46
330
17
100
AcDbEntity
  8
ROADS
100
AcDbPolyline
 90
2
 70
0
 10
619995.1730548718
 20
4827612.212555317
 10
619950.521401684
 20
4827654.52056493
  0
LWPOLYLINE
  5
47
330
17
100
AcDbEntity
  8
ROADS
100
AcDbPolyline
 90
2
 70
0
 10
619814.5303616762
 20
4827645.084875316
 10
619921.2672946128
 20
4827638.676751329
  0
LWPOLYLINE
  5
48
330
17
100
AcDbEntity
  8
ROADS
100
AcDbPolyline
 90
2
 70
0
 10
619921.2672946128
 20
4827638.676751329
 10
619920.2176321817
 20
4827657.044031291
  0
LWPOLYLINE
  5
49
330
17
100
AcDbEntity
  8
ROADS
100
AcDbPolyline
 90
2
 70
0
 10
619814.5303616762
 20
4827645.084875316
 10
619823.8115635597
 20
4827658.275968687
  0
LWPOLYLINE
  5
4A
330
17
100
AcDbEntity
  8
ROADS
100
AcDbPolyline
 90
3
 70
0
 10
619995.1730548718
 20
4827612.212555317
 10
620076.8489699075
 20
4827654.437403558
 10
620094.2744813205
 20
4827686.904330799
  0
LWPOLYLINE
  5
4B
330
17
100
AcDbEntity
  8
ROADS
100
AcDbPolyline
 90
2
 70
0
 10
620190.7164610354
 20
4827621.211928218
 10
620094.2744813205
 20
4827686.904330799
  0
LWPOLYLINE
  5
4C
330
17
100
AcDbEntity
  8
ROADS
100
AcDbPolyline
 90
3
 70
0
 10
620094.2744813205
 20
4827686.904330799
 10
620016.4060935875
 20
4827677.3920295015
 10
619960.5753022089
 20
4827703.5650473265
  0
LWPOLYLINE
  5
4D
330
17
100
AcDbEntity
  8
ROADS
100
AcDbPolyline
 90
2
 70
0
 10
620094.2744813205
 20
4827686.904330799
 10
620091.8381829174
 20
4827711.008315672
  0
LWPOLYLINE
  5
4E
330
17
100
AcDbEntity
  8
ROADS
100
AcDbPolyline
 90
3
 70
0
 10
620188.9903470429
 20
4827801.883104716
 10
620216.6833384217
 20
4827696.76883303
 10
620190.7164610354
 20
4827621.211928218
  0
LWPOLYLINE
  5
4F
330
17
100
AcDbEntity
  8
ROADS
100
AcDbPolyline
 90
3
 70
0
 10
619960.5753022089
 20
4827703.5650473265
 10
620070.2662892756
 20
4827832.192713623
 10
620143.2914572342
 20
4827844.863733236
  0
LWPOLYLINE
  5
50
330
17
100
AcDbEntity
  8
ROADS
100
AcDbPolyline
 90
2
 70
0
 10
620143.2914572342
 20
4827844.863733236
 10
620188.9903470429
 20
4827801.883104716
  0
LWPOLYLINE
  5
51
330
17
100
AcDbEntity
  8
ROADS
100
AcDbPolyline
 90
2
 70
0
 10
620189.5740266885
 20
4827864.376183108
 10
620188.9903470429
 20
4827801.883104716
  0
LWPOLYLINE
  5
52
330
17
100
AcDbEntity
  8
ROADS
100
AcDbPolyline
 90
2
 70
0
 10
620143.2914572342
 20
4827844.863733236
 10
620189.5740266885
 20
4827864.376183108
  0
LWPOLYLINE
  5
53
330
17
100
AcDbEntity
  8
ROADS
100
AcDbPolyline
 90
2
 70
0
 10
620189.5740266885
 20
4827864.376183108
 10
620213.2500536325
 20
4827882.926423182
  0
LWPOLYLINE
  5
54
330
17
100
AcDbEntity
  8
ROADS
100
AcDbPolyline
 90
2
 70
0
 10
619950.521401684
 20
4827654.52056493
 10
619920.2176321817
 20
4827657.044031291
  0
LWPOLYLINE
  5
55
330
17
100
AcDbEntity
  8
ROADS
100
AcDbPolyline
 90
2
 70
0
 10
619823.8115635597
 20
4827658.275968687
 10
619920.2176321817
 20
4827657.044031291
  0
LWPOLYLINE
  5
56
330
17
100
AcDbEntity
  8
ROADS
100
AcDbPolyline
 90
2
 70
0
 10
619950.521401684
 20
4827654.52056493
 10
619951.1874441679
 20
4827690.133012057
  0
LWPOLYLINE
  5
57
330
17
100
AcDbEntity
  8
ROADS
100
AcDbPolyline
 90
2
 70
0
 10
619920.2176321817
 20
4827657.044031291
 10
619951.1874441679
 20
4827690.133012057
  0
LWPOLYLINE
  5
58
330
17
100
AcDbEntity
  8
ROADS
100
AcDbPolyline
 90
2
 70
0
 10
619951.1874441679
 20
4827690.133012057
 10
619960.5753022089
 20
4827703.5650473265
  0
LWPOLYLINE
  5
59
330
17
100
AcDbEntity
  8
ROADS
100
AcDbPolyline
 90
5
 70
0
 10
619823.8115635597
 20
4827658.275968687
 10
619795.8429591918
 20
4827668.882413943
 10
619781.3987047556
 20
4827694.785643429
 10
619806.7913762651
 20
4827724.712292943
 10
619788.4463266976
 20
4827781.777320125
  0
LWPOLYLINE
  5
5A
330
17
100
AcDbEntity
  8
ROADS
100
AcDbPolyline
 90
2
 70
0
 10
619920.2176321817
 20
4827657.044031291
 10
619860.6634513375
 20
4827821.805814672
  0
LWPOLYLINE
  5
5B
330
17
100
AcDbEntity
  8
ROADS
100
AcDbPolyline
 90
4
 70
0
 10
619729.5928424227
 20
4827844.316154308
 10
619715.9471382495
 20
4827816.134667857
 10
619753.0336594264
 20
4827700.818746571
 10
619814.5303616762
 20
4827645.084875316
  0
LWPOLYLINE
  5
5C
330
17
100
AcDbEntity
  8
ROADS
100
AcDbPolyline
 90
2
 70
0
 10
619788.4463266976
 20
4827781.777320125
 10
619860.6634513375
 20
4827821.805814672
  0
LWPOLYLINE
  5
5D
330
17
100
AcDbEntity
  8
ROADS
100
AcDbPolyline
 90
3
 70
0
 10
619788.4463266976
 20
4827781.777320125
 10
619772.6121288654
 20
4827831.489386317
 10
619778.0445746888
 20
4827892.89789251
  0
LWPOLYLINE
  5
5E
330
17
100
AcDbEntity
  8
ROADS
100
AcDbPolyline
 90
2
 70
0
 10
619438.4848838478
 20
4827818.031905615
 10
619438.1793519056
 20
4827818.959543627
  0
LWPOLYLINE
  5
5F
330
17
100
AcDbEntity
  8
ROADS
100
AcDbPolyline
 90
2
 70
0
 10
619438.1793519056
 20
4827818.959543627
 10
619437.8575263465
 20
4827818.855005571
  0
LWPOLYLINE
  5
60
330
17
100
AcDbEntity
  8
ROADS
100
AcDbPolyline
 90
2
 70
0
 10
619438.1793519056
 20
4827818.959543627
 10
619407.437762892
 20
4827909.867971725
  0
LWPOLYLINE
  5
61
330
17
100
AcDbEntity
  8
ROADS
100
AcDbPolyline
 90
2
 70
0
 10
619407.437762892
 20
4827909.867971725
 10
619380.1333253061
 20
4827901.023257039
  0
LWPOLYLINE
  5
62
330
17
100
AcDbEntity
  8
ROADS
100
AcDbPolyline
 90
2
 70
0
 10
620213.2500536325
 20
4827882.926423182
 10
620287.5883008833
 20
4827905.677579908
  0
LWPOLYLINE
  5
63
330
17
100
AcDbEntity
  8
ROADS
100
AcDbPolyline
 90
2
 70
0
 10
620369.9824015272
 20
4827930.145271845
 10
620287.5883008833
 20
4827905.677579908
  0
LWPOLYLINE
  5
64
330
17
100
AcDbEntity
  8
ROADS
100
AcDbPolyline
 90
2
 70
0
 10
620465.2663182039
 20
4827938.094027056
 10
620369.9824015272
 20
4827930.145271845
  0
LWPOLYLINE
  5
65
330
17
100
AcDbEntity
  8
ROADS
100
AcDbPolyline
 90
4
 70
0
 10
620213.2500536325
 20
4827882.926423182
 10
620214.8729232651
 20
4827952.056540229
 10
620166.4243743535
 20
4828094.644546696
 10
620137.283182342
 20
4828124.994594191
  0
LWPOLYLINE
  5
66
330
17
100
AcDbEntity
  8
ROADS
100
AcDbPolyline
 90
2
 70
0
 10
620287.5883008833
 20
4827905.677579908
 10
620194.8894816054
 20
4828190.513420146
  0
LWPOLYLINE
  5
67
330
17
100
AcDbEntity
  8
ROADS
100
AcDbPolyline
 90
2
 70
0
 10
620369.9824015272
 20
4827930.145271845
 10
620276.7909218748
 20
4828216.703350715
  0
LWPOLYLINE
  5
68
330
17
100
AcDbEntity
  8
ROADS
100
AcDbPolyline
 90
2
 70
0
 10
620137.283182342
 20
4828124.994594191
 10
620069.9180297418
 20
4828149.995731056
  0
LWPOLYLINE
  5
69
330
17
100
AcDbEntity
  8
ROADS
100
AcDbPolyline
 90
2
 70
0
 10
620069.9180297418
 20
4828149.995731056
 10
620041.9928983464
 20
4828125.185004302
  0
LWPOLYLINE
  5
6A
330
17
100
AcDbEntity
  8
ROADS
100
AcDbPolyline
 90
2
 70
0
 10
620069.9180297418
 20
4828149.995731056
 10
620016.0982974448
 20
4828144.378211895
  0
LWPOLYLINE
  5
6B
330
17
100
AcDbEntity
  8
ROADS
100
AcDbPolyline
 90
2
 70
0
 10
620137.283182342
 20
4828124.994594191
 10
620152.0091434709
 20
4828175.316532087
  0
LWPOLYLINE
  5
6C
330
17
100
AcDbEntity
  8
ROADS
100
AcDbPolyline
 90
4
 70
0
 10
619759.0192301446
 20
4827886.700132539
 10
619709.9808273077
 20
4827870.305067455
 10
619709.868635899
 20
4827850.266255968
 10
619729.5928424227
 20
4827844.316154308
  0
LWPOLYLINE
  5
6D
330
17
100
AcDbEntity
  8
ROADS
100
AcDbPolyline
 90
2
 70
0
 10
619759.0192301446
 20
4827886.700132539
 10
619729.5928424227
 20
4827844.316154308
  0
LWPOLYLINE
  5
6E
330
17
100
AcDbEntity
  8
ROADS
100
AcDbPolyline
 90
2
 70
0
 10
619860.6634513375
 20
4827821.805814672
 10
619825.4193237127
 20
4827914.172118563
  0
LWPOLYLINE
  5
6F
330
17
100
AcDbEntity
  8
ROADS
100
AcDbPolyline
 90
2
 70
0
 10
619778.0445746888
 20
4827892.89789251
 10
619759.0192301446
 20
4827886.700132539
  0
LWPOLYLINE
  5
70
330
17
100
AcDbEntity
  8
ROADS
100
AcDbPolyline
 90
2
 70
0
 10
619825.4193237127
 20
4827914.172118563
 10
619778.0445746888
 20
4827892.89789251
  0
LWPOLYLINE
  5
71
330
17
100
AcDbEntity
  8
ROADS
100
AcDbPolyline
 90
2
 70
0
 10
619759.9733829994
 20
4828148.184655504
 10
619825.4193237127
 20
4827914.172118563
  0
LWPOLYLINE
  5
72
330
17
100
AcDbEntity
  8
ROADS
100
AcDbPolyline
 90
2
 70
0
 10
619759.9733829994
 20
4828148.184655504
 10
619548.723836446
 20
4828090.659004922
  0
LWPOLYLINE
  5
73
330
17
100
AcDbEntity
  8
ROADS
100
AcDbPolyline
 90
2
 70
0
 10
619700.0598450757
 20
4828315.99940775
 10
619759.9733829994
 20
4828148.184655504
  0
LWPOLYLINE
  5
74
330
17
100
AcDbEntity
  8
ROADS
100
AcDbPolyline
 90
2
 70
0
 10
619615.2824405287
 20
4828288.203501714
 10
619527.2565766021
 20
4828259.374912584
  0
LWPOLYLINE
  5
75
330
17
100
AcDbEntity
  8
ROADS
100
AcDbPolyline
 90
2
 70
0
 10
619700.0598450757
 20
4828315.99940775
 10
619615.2824405287
 20
4828288.203501714
  0
LWPOLYLINE
  5
76
330
17
100
AcDbEntity
  8
ROADS
100
AcDbPolyline
 90
5
 70
0
 10
620542.5406607222
 20
4827955.421999743
 10
620570.4865315524
 20
4827929.629508512
 10
620589.0373623804
 20
4827825.559104379
 10
620608.7006136082
 20
4827826.366167243
 10
620641.2073512983
 20
4827862.068590447
  0
LWPOLYLINE
  5
77
330
17
100
AcDbEntity
  8
ROADS
100
AcDbPolyline
 90
2
 70
0
 10
620479.4701830515
 20
4827895.820734477
 10
620465.2663182039
 20
4827938.094027056
  0
LWPOLYLINE
  5
78
330
17
100
AcDbEntity
  8
ROADS
100
AcDbPolyline
 90
2
 70
0
 10
620671.5176225208
 20
4827957.384870606
 10
620667.7722187402
 20
4827899.023788824
  0
LWPOLYLINE
  5
79
330
17
100
AcDbEntity
  8
ROADS
100
AcDbPolyline
 90
2
 70
0
 10
620465.2663182039
 20
4827938.094027056
 10
620459.7170345499
 20
4827955.93056966
  0
LWPOLYLINE
  5
7A
330
17
100
AcDbEntity
  8
ROADS
100
AcDbPolyline
 90
2
 70
0
 10
620495.5561078379
 20
4827958.445779297
 10
620542.5406607222
 20
4827955.421999743
  0
LWPOLYLINE
  5
7B
330
17
100
AcDbEntity
  8
ROADS
100
AcDbPolyline
 90
2
 70
0
 10
620459.7170345499
 20
4827955.93056966
 10
620495.5561078379
 20
4827958.445779297
  0
LWPOLYLINE
  5
7C
330
17
100
AcDbEntity
  8
ROADS
100
AcDbPolyline
 90
2
 70
0
 10
620842.6001656976
 20
4827988.549237835
 10
620671.5176225208
 20
4827957.384870606
  0
LWPOLYLINE
  5
7D
330
17
100
AcDbEntity
  8
ROADS
100
AcDbPolyline
 90
2
 70
0
 10
620542.5406607222
 20
4827955.421999743
 10
620534.7216037356
 20
4827995.172476717
  0
LWPOLYLINE
  5
7E
330
17
100
AcDbEntity
  8
ROADS
100
AcDbPolyline
 90
3
 70
0
 10
620671.5176225208
 20
4827957.384870606
 10
620644.0308469046
 20
4827969.382077418
 10
620624.4411650681
 20
4828025.200709708
  0
LWPOLYLINE
  5
7F
330
17
100
AcDbEntity
  8
ROADS
100
AcDbPolyline
 90
5
 70
0
 10
620495.5561078379
 20
4827958.445779297
 10
620486.3588092211
 20
4827971.013236118
 10
620510.6800437446
 20
4827986.840536375
 10
620500.7652550659
 20
4827996.110400904
 10
620518.3989011452
 20
4828024.69298346
  0
LWPOLYLINE
  5
80
330
17
100
AcDbEntity
  8
ROADS
100
AcDbPolyline
 90
2
 70
0
 10
620885.9212839255
 20
4828003.820093434
 10
620842.6001656976
 20
4827988.549237835
  0
LWPOLYLINE
  5
81
330
17
100
AcDbEntity
  8
ROADS
100
AcDbPolyline
 90
3
 70
0
 10
620905.7691248466
 20
4828012.681844702
 10
620905.2814752068
 20
4827991.837147901
 10
620885.9212839255
 20
4828003.820093434
  0
LWPOLYLINE
  5
82
330
17
100
AcDbEntity
  8
ROADS
100
AcDbPolyline
 90
2
 70
0
 10
620905.7691248466
 20
4828012.681844702
 10
620885.9212839255
 20
4828003.820093434
  0
LWPOLYLINE
  5
83
330
17
100
AcDbEntity
  8
ROADS
100
AcDbPolyline
 90
2
 70
0
 10
620930.9972291116
 20
4828019.492655282
 10
620905.7691248466
 20
4828012.681844702
  0
LWPOLYLINE
  5
84
330
17
100
AcDbEntity
  8
ROADS
100
AcDbPolyline
 90
2
 70
0
 10
620842.6001656976
 20
4827988.549237835
 10
620807.6529978979
 20
4828096.306813167
  0
LWPOLYLINE
  5
85
330
17
100
AcDbEntity
  8
ROADS
100
AcDbPolyline
 90
2
 70
0
 10
620930.9972291116
 20
4828019.492655282
 10
620898.4707693575
 20
4828124.335840601
  0
LWPOLYLINE
  5
86
330
17
100
AcDbEntity
  8
ROADS
100
AcDbPolyline
 90
4
 70
0
 10
620930.9972291116
 20
4828019.492655282
 10
620958.7472575596
 20
4828025.039948559
 10
621006.6477446307
 20
4828087.100515438
 10
620991.8418332293
 20
4828143.162589964
  0
LWPOLYLINE
  5
87
330
17
100
AcDbEntity
  8
ROADS
100
AcDbPolyline
 90
3
 70
0
 10
620898.4707693575
 20
4828124.335840601
 10
620852.979066344
 20
4828126.925537557
 10
620807.6529978979
 20
4828096.306813167
  0
LWPOLYLINE
  5
88
330
17
100
AcDbEntity
  8
ROADS
100
AcDbPolyline
 90
2
 70
0
 10
620991.8418332293
 20
4828143.162589964
 10
620898.4707693575
 20
4828124.335840601
  0
LWPOLYLINE
  5
89
330
17
100
AcDbEntity
  8
ROADS
100
AcDbPolyline
 90
2
 70
0
 10
620991.8418332293
 20
4828143.162589964
 10
620981.5142827787
 20
4828175.511503336
  0
LWPOLYLINE
  5
8A
330
17
100
AcDbEntity
  8
ROADS
100
AcDbPolyline
 90
2
 70
0
 10
620459.7170345499
 20
4827955.93056966
 10
620425.8789059743
 20
4828057.266783991
  0
LWPOLYLINE
  5
8B
330
17
100
AcDbEntity
  8
ROADS
100
AcDbPolyline
 90
2
 70
0
 10
620530.152852878
 20
4828026.605793192
 10
620518.3989011452
 20
4828024.69298346
  0
LWPOLYLINE
  5
8C
330
17
100
AcDbEntity
  8
ROADS
100
AcDbPolyline
 90
2
 70
0
 10
620624.4411650681
 20
4828025.200709708
 10
620530.152852878
 20
4828026.605793192
  0
LWPOLYLINE
  5
8D
330
17
100
AcDbEntity
  8
ROADS
100
AcDbPolyline
 90
2
 70
0
 10
620718.8710415917
 20
4828052.066874934
 10
620624.4411650681
 20
4828025.200709708
  0
LWPOLYLINE
  5
8E
330
17
100
AcDbEntity
  8
ROADS
100
AcDbPolyline
 90
3
 70
0
 10
620518.3989011452
 20
4828024.69298346
 10
620462.1966993082
 20
4828060.130662598
 10
620425.8789059743
 20
4828057.266783991
  0
LWPOLYLINE
  5
8F
330
17
100
AcDbEntity
  8
ROADS
100
AcDbPolyline
 90
2
 70
0
 10
620807.6529978979
 20
4828096.306813167
 10
620718.8710415917
 20
4828052.066874934
  0
LWPOLYLINE
  5
90
330
17
100
AcDbEntity
  8
ROADS
100
AcDbPolyline
 90
2
 70
0
 10
620530.152852878
 20
4828026.605793192
 10
620450.701177166
 20
4828272.466896202
  0
LWPOLYLINE
  5
91
330
17
100
AcDbEntity
  8
ROADS
100
AcDbPolyline
 90
2
 70
0
 10
620624.4411650681
 20
4828025.200709708
 10
620535.4936360674
 20
4828300.05012658
  0
LWPOLYLINE
  5
92
330
17
100
AcDbEntity
  8
ROADS
100
AcDbPolyline
 90
2
 70
0
 10
620718.8710415917
 20
4828052.066874934
 10
620629.1060490918
 20
4828329.512710938
  0
LWPOLYLINE
  5
93
330
17
100
AcDbEntity
  8
ROADS
100
AcDbPolyline
 90
2
 70
0
 10
620807.6529978979
 20
4828096.306813167
 10
620722.6097472173
 20
4828359.514371027
  0
LWPOLYLINE
  5
94
330
17
100
AcDbEntity
  8
ROADS
100
AcDbPolyline
 90
3
 70
0
 10
621051.724871844
 20
4828265.475148669
 10
621024.1363888833
 20
4828195.433968186
 10
620981.5142827787
 20
4828175.511503336
  0
LWPOLYLINE
  5
95
330
17
100
AcDbEntity
  8
ROADS
100
AcDbPolyline
 90
2
 70
0
 10
621073.0288028986
 20
4828213.748588819
 10
621051.724871844
 20
4828265.475148669
  0
LWPOLYLINE
  5
96
330
17
100
AcDbEntity
  8
ROADS
100
AcDbPolyline
 90
2
 70
0
 10
620898.4707693575
 20
4828124.335840601
 10
620813.3049534118
 20
4828387.904265553
  0
LWPOLYLINE
  5
97
330
17
100
AcDbEntity
  8
ROADS
100
AcDbPolyline
 90
2
 70
0
 10
621051.724871844
 20
4828265.475148669
 10
621040.85456656
 20
4828301.297413902
  0
LWPOLYLINE
  5
98
330
17
100
AcDbEntity
  8
ROADS
100
AcDbPolyline
 90
2
 70
0
 10
620981.5142827787
 20
4828175.511503336
 10
620903.1953608961
 20
4828417.500694247
  0
LWPOLYLINE
  5
99
330
17
100
AcDbEntity
  8
ROADS
100
AcDbPolyline
 90
2
 70
0
 10
621102.9392197424
 20
4828419.203583372
 10
621040.85456656
 20
4828301.297413902
  0
LWPOLYLINE
  5
9A
330
17
100
AcDbEntity
  8
ROADS
100
AcDbPolyline
 90
2
 70
0
 10
621126.9431357069
 20
4828345.776835514
 10
621102.9392197424
 20
4828419.203583372
  0
LWPOLYLINE
  5
9B
330
17
100
AcDbEntity
  8
ROADS
100
AcDbPolyline
 90
2
 70
0
 10
620903.1953608961
 20
4828417.500694247
 10
620813.3049534118
 20
4828387.904265553
  0
LWPOLYLINE
  5
9C
330
17
100
AcDbEntity
  8
ROADS
100
AcDbPolyline
 90
2
 70
0
 10
621040.85456656
 20
4828301.297413902
 10
620975.4377646093
 20
4828505.868991468
  0
LWPOLYLINE
  5
9D
330
17
100
AcDbEntity
  8
ROADS
100
AcDbPolyline
 90
2
 70
0
 10
620903.1953608961
 20
4828417.500694247
 10
620884.6050745382
 20
4828474.845456793
  0
LWPOLYLINE
  5
9E
330
17
100
AcDbEntity
  8
ROADS
100
AcDbPolyline
 90
2
 70
0
 10
620535.4936360674
 20
4828300.05012658
 10
620450.701177166
 20
4828272.466896202
  0
LWPOLYLINE
  5
9F
330
17
100
AcDbEntity
  8
ROADS
100
AcDbPolyline
 90
2
 70
0
 10
620629.1060490918
 20
4828329.512710938
 10
620535.4936360674
 20
4828300.05012658
  0
LWPOLYLINE
  5
A0
330
17
100
AcDbEntity
  8
ROADS
100
AcDbPolyline
 90
2
 70
0
 10
620722.6097472173
 20
4828359.514371027
 10
620629.1060490918
 20
4828329.512710938
  0
LWPOLYLINE
  5
A1
330
17
100
AcDbEntity
  8
ROADS
100
AcDbPolyline
 90
2
 70
0
 10
620813.3049534118
 20
4828387.904265553
 10
620722.6097472173
 20
4828359.514371027
  0
LWPOLYLINE
  5
A2
330
17
100
AcDbEntity
  8
ROADS
100
AcDbPolyline
 90
2
 70
0
 10
620535.4936360674
 20
4828300.05012658
 10
620466.158461677
 20
4828515.105073735
  0
LWPOLYLINE
  5
A3
330
17
100
AcDbEntity
  8
ROADS
100
AcDbPolyline
 90
2
 70
0
 10
620629.1060490918
 20
4828329.512710938
 10
620559.8964791757
 20
4828544.836992044
  0
LWPOLYLINE
  5
A4
330
17
100
AcDbEntity
  8
ROADS
100
AcDbPolyline
 90
2
 70
0
 10
620722.6097472173
 20
4828359.514371027
 10
620653.2851590142
 20
4828574.80962843
  0
LWPOLYLINE
  5
A5
330
17
100
AcDbEntity
  8
ROADS
100
AcDbPolyline
 90
2
 70
0
 10
620813.3049534118
 20
4828387.904265553
 10
620743.8801175775
 20
4828604.207808363
  0
LWPOLYLINE
  5
A6
330
17
100
AcDbEntity
  8
ROADS
100
AcDbPolyline
 90
2
 70
0
 10
620381.9606722856
 20
4828487.709540061
 10
620466.158461677
 20
4828515.105073735
  0
LWPOLYLINE
  5
A7
330
17
100
AcDbEntity
  8
ROADS
100
AcDbPolyline
 90
2
 70
0
 10
620466.158461677
 20
4828515.105073735
 10
620559.8964791757
 20
4828544.836992044
  0
LWPOLYLINE
  5
A8
330
17
100
AcDbEntity
  8
ROADS
100
AcDbPolyline
 90
2
 70
0
 10
621102.9392197424
 20
4828419.203583372
 10
621149.7097089933
 20
4828475.720587936
  0
LWPOLYLINE
  5
A9
330
17
100
AcDbEntity
  8
ROADS
100
AcDbPolyline
 90
2
 70
0
 10
621129.5316308255
 20
4828477.2822928475
 10
621102.9392197424
 20
4828419.203583372
  0
LWPOLYLINE
  5
AA
330
17
100
AcDbEntity
  8
ROADS
100
AcDbPolyline
 90
2
 70
0
 10
621102.9392197424
 20
4828419.203583372
 10
621066.2502377671
 20
4828535.3551109275
  0
LWPOLYLINE
  5
AB
330
17
100
AcDbEntity
  8
ROADS
100
AcDbPolyline
 90
2
 70
0
 10
620975.4377646093
 20
4828505.868991468
 10
620884.6050745382
 20
4828474.845456793
  0
LWPOLYLINE
  5
AC
330
17
100
AcDbEntity
  8
ROADS
100
AcDbPolyline
 90
4
 70
0
 10
621149.7097089933
 20
4828475.720587936
 10
621133.75360994
 20
4828517.000258037
 10
621154.3958543891
 20
4828549.654427383
 10
621173.0688745447
 20
4828549.144594838
  0
LWPOLYLINE
  5
AD
330
17
100
AcDbEntity
  8
ROADS
100
AcDbPolyline
 90
2
 70
0
 10
621066.2502377671
 20
4828535.3551109275
 10
620975.4377646093
 20
4828505.868991468
  0
LWPOLYLINE
  5
AE
330
17
100
AcDbEntity
  8
ROADS
100
AcDbPolyline
 90
2
 70
0
 10
621166.7223706193
 20
4828568.871852238
 10
621066.2502377671
 20
4828535.3551109275
  0
LWPOLYLINE
  5
AF
330
17
100
AcDbEntity
  8
ROADS
100
AcDbPolyline
 90
2
 70
0
 10
620884.6050745382
 20
4828474.845456793
 10
620833.4746547593
 20
4828633.295925091
  0
LWPOLYLINE
  5
B0
330
17
100
AcDbEntity
  8
ROADS
100
AcDbPolyline
 90
2
 70
0
 10
620975.4377646093
 20
4828505.868991468
 10
620925.3777964795
 20
4828662.8002634505
  0
LWPOLYLINE
  5
B1
330
17
100
AcDbEntity
  8
ROADS
100
AcDbPolyline
 90
2
 70
0
 10
621066.2502377671
 20
4828535.3551109275
 10
621015.4066130568
 20
4828691.931754867
  0
LWPOLYLINE
  5
B2
330
17
100
AcDbEntity
  8
ROADS
100
AcDbPolyline
 90
2
 70
0
 10
620466.158461677
 20
4828515.105073735
 10
620451.3201606398
 20
4828558.005909423
  0
LWPOLYLINE
  5
B3
330
17
100
AcDbEntity
  8
ROADS
100
AcDbPolyline
 90
2
 70
0
 10
620559.8964791757
 20
4828544.836992044
 10
620653.2851590142
 20
4828574.80962843
  0
LWPOLYLINE
  5
B4
330
17
100
AcDbEntity
  8
ROADS
100
AcDbPolyline
 90
2
 70
0
 10
620559.8964791757
 20
4828544.836992044
 10
620547.3198309188
 20
4828588.841724945
  0
LWPOLYLINE
  5
B5
330
17
100
AcDbEntity
  8
ROADS
100
AcDbPolyline
 90
2
 70
0
 10
620547.3198309188
 20
4828588.841724945
 10
620451.3201606398
 20
4828558.005909423
  0
LWPOLYLINE
  5
B6
330
17
100
AcDbEntity
  8
ROADS
100
AcDbPolyline
 90
2
 70
0
 10
620451.3201606398
 20
4828558.005909423
 10
620437.9344457536
 20
4828600.821968368
  0
LWPOLYLINE
  5
B7
330
17
100
AcDbEntity
  8
ROADS
100
AcDbPolyline
 90
2
 70
0
 10
620653.2851590142
 20
4828574.80962843
 10
620743.8801175775
 20
4828604.207808363
  0
LWPOLYLINE
  5
B8
330
17
100
AcDbEntity
  8
ROADS
100
AcDbPolyline
 90
2
 70
0
 10
620653.2851590142
 20
4828574.80962843
 10
620639.6218208773
 20
4828617.243683322
  0
LWPOLYLINE
  5
B9
330
17
100
AcDbEntity
  8
ROADS
100
AcDbPolyline
 90
2
 70
0
 10
620639.6218208773
 20
4828617.243683322
 10
620547.3198309188
 20
4828588.841724945
  0
LWPOLYLINE
  5
BA
330
17
100
AcDbEntity
  8
ROADS
100
AcDbPolyline
 90
2
 70
0
 10
620547.3198309188
 20
4828588.841724945
 10
620533.9834700592
 20
4828631.388675053
  0
LWPOLYLINE
  5
BB
330
17
100
AcDbEntity
  8
ROADS
100
AcDbPolyline
 90
2
 70
0
 10
620437.9344457536
 20
4828600.821968368
 10
620533.9834700592
 20
4828631.388675053
  0
LWPOLYLINE
  5
BC
330
17
100
AcDbEntity
  8
ROADS
100
AcDbPolyline
 90
2
 70
0
 10
620743.8801175775
 20
4828604.207808363
 10
620833.4746547593
 20
4828633.295925091
  0
LWPOLYLINE
  5
BD
330
17
100
AcDbEntity
  8
ROADS
100
AcDbPolyline
 90
2
 70
0
 10
620743.8801175775
 20
4828604.207808363
 10
620730.4425375147
 20
4828646.0739263445
  0
LWPOLYLINE
  5
BE
330
17
100
AcDbEntity
  8
ROADS
100
AcDbPolyline
 90
2
 70
0
 10
620437.9344457536
 20
4828600.821968368
 10
620420.3029102084
 20
4828654.139787838
  0
LWPOLYLINE
  5
BF
330
17
100
AcDbEntity
  8
ROADS
100
AcDbPolyline
 90
2
 70
0
 10
620730.4425375147
 20
4828646.0739263445
 10
620639.6218208773
 20
4828617.243683322
  0
LWPOLYLINE
  5
C0
330
17
100
AcDbEntity
  8
ROADS
100
AcDbPolyline
 90
2
 70
0
 10
620639.6218208773
 20
4828617.243683322
 10
620626.4125385447
 20
4828658.567887566
  0
LWPOLYLINE
  5
C1
330
17
100
AcDbEntity
  8
ROADS
100
AcDbPolyline
 90
2
 70
0
 10
620819.7765047554
 20
4828675.746372722
 10
620730.4425375147
 20
4828646.0739263445
  0
LWPOLYLINE
  5
C2
330
17
100
AcDbEntity
  8
ROADS
100
AcDbPolyline
 90
2
 70
0
 10
620671.8883882924
 20
4828673.301708327
 10
620626.4125385447
 20
4828658.567887566
  0
LWPOLYLINE
  5
C3
330
17
100
AcDbEntity
  8
ROADS
100
AcDbPolyline
 90
2
 70
0
 10
620730.4425375147
 20
4828646.0739263445
 10
620716.805526314
 20
4828687.852436015
  0
LWPOLYLINE
  5
C4
330
17
100
AcDbEntity
  8
ROADS
100
AcDbPolyline
 90
2
 70
0
 10
620716.805526314
 20
4828687.852436015
 10
620671.8883882924
 20
4828673.301708327
  0
LWPOLYLINE
  5
C5
330
17
100
AcDbEntity
  8
ROADS
100
AcDbPolyline
 90
2
 70
0
 10
620762.442828801
 20
4828702.562179022
 10
620716.805526314
 20
4828687.852436015
  0
LWPOLYLINE
  5
C6
330
17
100
AcDbEntity
  8
ROADS
100
AcDbPolyline
 90
2
 70
0
 10
621166.7223706193
 20
4828568.871852238
 10
621116.4412470545
 20
4828724.202142069
  0
LWPOLYLINE
  5
C7
330
17
100
AcDbEntity
  8
ROADS
100
AcDbPolyline
 90
2
 70
0
 10
620833.4746547593
 20
4828633.295925091
 10
620925.3777964795
 20
4828662.8002634505
  0
LWPOLYLINE
  5
C8
330
17
100
AcDbEntity
  8
ROADS
100
AcDbPolyline
 90
2
 70
0
 10
620833.4746547593
 20
4828633.295925091
 10
620819.7765047554
 20
4828675.746372722
  0
LWPOLYLINE
  5
C9
330
17
100
AcDbEntity
  8
ROADS
100
AcDbPolyline
 90
2
 70
0
 10
620925.3777964795
 20
4828662.8002634505
 10
621015.4066130568
 20
4828691.931754867
  0
LWPOLYLINE
  5
CA
330
17
100
AcDbEntity
  8
ROADS
100
AcDbPolyline
 90
2
 70
0
 10
620925.3777964795
 20
4828662.8002634505
 10
620911.9685661128
 20
4828705.698458138
  0
LWPOLYLINE
  5
CB
330
17
100
AcDbEntity
  8
ROADS
100
AcDbPolyline
 90
2
 70
0
 10
620911.9685661128
 20
4828705.698458138
 10
620819.7765047554
 20
4828675.746372722
  0
LWPOLYLINE
  5
CC
330
17
100
AcDbEntity
  8
ROADS
100
AcDbPolyline
 90
2
 70
0
 10
621015.4066130568
 20
4828691.931754867
 10
621116.4412470545
 20
4828724.202142069
  0
LWPOLYLINE
  5
CD
330
17
100
AcDbEntity
  8
ROADS
100
AcDbPolyline
 90
2
 70
0
 10
621015.4066130568
 20
4828691.931754867
 10
621001.7112148891
 20
4828734.561280785
  0
LWPOLYLINE
  5
CE
330
17
100
AcDbEntity
  8
ROADS
100
AcDbPolyline
 90
2
 70
0
 10
621001.7112148891
 20
4828734.561280785
 10
620911.9685661128
 20
4828705.698458138
  0
LWPOLYLINE
  5
CF
330
17
100
AcDbEntity
  8
ROADS
100
AcDbPolyline
 90
2
 70
0
 10
620852.947786058
 20
4828731.739767991
 10
620806.6345468771
 20
4828716.802801464
  0
LWPOLYLINE
  5
D0
330
17
100
AcDbEntity
  8
ROADS
100
AcDbPolyline
 90
4
 70
0
 10
621149.7097089933
 20
4828475.720587936
 10
621178.6524285169
 20
4828488.930793516
 10
621185.6655431904
 20
4828509.985351087
 10
621173.0688745447
 20
4828549.144594838
  0
LWPOLYLINE
  5
D1
330
17
100
AcDbEntity
  8
ROADS
100
AcDbPolyline
 90
2
 70
0
 10
621173.0688745447
 20
4828549.144594838
 10
621166.7223706193
 20
4828568.871852238
  0
LWPOLYLINE
  5
D2
330
17
100
AcDbEntity
  8
ROADS
100
AcDbPolyline
 90
2
 70
0
 10
621230.5546527979
 20
4828666.586291183
 10
621166.7223706193
 20
4828568.871852238
  0
LWPOLYLINE
  5
D3
330
17
100
AcDbEntity
  8
ROADS
100
AcDbPolyline
 90
2
 70
0
 10
621250.7602233136
 20
4828704.869340651
 10
621230.5546527979
 20
4828666.586291183
  0
LWPOLYLINE
  5
D4
330
17
100
AcDbEntity
  8
ROADS
100
AcDbPolyline
 90
2
 70
0
 10
621230.5546527979
 20
4828666.586291183
 10
621184.8390976909
 20
4828795.201877412
  0
LWPOLYLINE
  5
D5
330
17
100
AcDbEntity
  8
ROADS
100
AcDbPolyline
 90
3
 70
0
 10
621269.3904486891
 20
4828682.529785274
 10
621306.15213869
 20
4828722.72939638
 10
621277.5343764264
 20
4828813.574605157
  0
LWPOLYLINE
  5
D6
330
17
100
AcDbEntity
  8
ROADS
100
AcDbPolyline
 90
2
 70
0
 10
621227.2851084961
 20
4828807.20990668
 10
621184.8390976909
 20
4828795.201877412
  0
LWPOLYLINE
  5
D7
330
17
100
AcDbEntity
  8
ROADS
100
AcDbPolyline
 90
2
 70
0
 10
621277.5343764264
 20
4828813.574605157
 10
621227.2851084961
 20
4828807.20990668
  0
LWPOLYLINE
  5
D8
330
17
100
AcDbEntity
  8
ROADS
100
AcDbPolyline
 90
2
 70
0
 10
621227.2851084961
 20
4828807.20990668
 10
621205.814972314
 20
4828869.130898774
  0
LWPOLYLINE
  5
D9
330
17
100
AcDbEntity
  8
ROADS
100
AcDbPolyline
 90
2
 70
0
 10
621205.814972314
 20
4828869.130898774
 10
621199.2056186256
 20
4828894.385647283
  0
LWPOLYLINE
  5
DA
330
17
100
AcDbEntity
  8
ROADS
100
AcDbPolyline
 90
2
 70
0
 10
620425.8789059743
 20
4828057.266783991
 10
620366.3486949881
 20
4828244.388603567
  0
LWPOLYLINE
  5
DB
330
17
100
AcDbEntity
  8
ROADS
100
AcDbPolyline
 90
2
 70
0
 10
620080.6087429026
 20
4828176.563339034
 10
620069.9180297418
 20
4828149.995731056
  0
LWPOLYLINE
  5
DC
330
17
100
AcDbEntity
  8
ROADS
100
AcDbPolyline
 90
2
 70
0
 10
620152.0091434709
 20
4828175.316532087
 10
620080.6087429026
 20
4828176.563339034
  0
LWPOLYLINE
  5
DD
330
17
100
AcDbEntity
  8
ROADS
100
AcDbPolyline
 90
2
 70
0
 10
620194.8894816054
 20
4828190.513420146
 10
620152.0091434709
 20
4828175.316532087
  0
LWPOLYLINE
  5
DE
330
17
100
AcDbEntity
  8
ROADS
100
AcDbPolyline
 90
2
 70
0
 10
620276.7909218748
 20
4828216.703350715
 10
620194.8894816054
 20
4828190.513420146
  0
LWPOLYLINE
  5
DF
330
17
100
AcDbEntity
  8
ROADS
100
AcDbPolyline
 90
2
 70
0
 10
620366.3486949881
 20
4828244.388603567
 10
620276.7909218748
 20
4828216.703350715
  0
LWPOLYLINE
  5
E0
330
17
100
AcDbEntity
  8
ROADS
100
AcDbPolyline
 90
2
 70
0
 10
620194.8894816054
 20
4828190.513420146
 10
620154.7763797964
 20
4828314.92516131
  0
LWPOLYLINE
  5
E1
330
17
100
AcDbEntity
  8
ROADS
100
AcDbPolyline
 90
2
 70
0
 10
620450.701177166
 20
4828272.466896202
 10
620366.3486949881
 20
4828244.388603567
  0
LWPOLYLINE
  5
E2
330
17
100
AcDbEntity
  8
ROADS
100
AcDbPolyline
 90
2
 70
0
 10
620276.7909218748
 20
4828216.703350715
 10
620236.6826210305
 20
4828341.291213331
  0
LWPOLYLINE
  5
E3
330
17
100
AcDbEntity
  8
ROADS
100
AcDbPolyline
 90
3
 70
0
 10
620024.6567727579
 20
4828420.360334953
 10
620072.5168186757
 20
4828223.449117017
 10
620069.9180297418
 20
4828149.995731056
  0
LWPOLYLINE
  5
E4
330
17
100
AcDbEntity
  8
ROADS
100
AcDbPolyline
 90
2
 70
0
 10
619902.8053787187
 20
4828381.041966278
 10
619951.6625209535
 20
4828228.7351011755
  0
LWPOLYLINE
  5
E5
330
17
100
AcDbEntity
  8
ROADS
100
AcDbPolyline
 90
2
 70
0
 10
619776.8788450265
 20
4828340.755502301
 10
619700.0598450757
 20
4828315.99940775
  0
LWPOLYLINE
  5
E6
330
17
100
AcDbEntity
  8
ROADS
100
AcDbPolyline
 90
2
 70
0
 10
619700.0598450757
 20
4828315.99940775
 10
619687.4295397691
 20
4828355.031871716
  0
LWPOLYLINE
  5
E7
330
17
100
AcDbEntity
  8
ROADS
100
AcDbPolyline
 90
2
 70
0
 10
619854.2181338732
 20
4828365.553004445
 10
619776.8788450265
 20
4828340.755502301
  0
LWPOLYLINE
  5
E8
330
17
100
AcDbEntity
  8
ROADS
100
AcDbPolyline
 90
2
 70
0
 10
619776.8788450265
 20
4828340.755502301
 10
619764.4985160982
 20
4828379.346470841
  0
LWPOLYLINE
  5
E9
330
17
100
AcDbEntity
  8
ROADS
100
AcDbPolyline
 90
2
 70
0
 10
619764.4985160982
 20
4828379.346470841
 10
619687.4295397691
 20
4828355.031871716
  0
LWPOLYLINE
  5
EA
330
17
100
AcDbEntity
  8
ROADS
100
AcDbPolyline
 90
2
 70
0
 10
619902.8053787187
 20
4828381.041966278
 10
619854.2181338732
 20
4828365.553004445
  0
LWPOLYLINE
  5
EB
330
17
100
AcDbEntity
  8
ROADS
100
AcDbPolyline
 90
2
 70
0
 10
619854.2181338732
 20
4828365.553004445
 10
619840.901918096
 20
4828403.803068034
  0
LWPOLYLINE
  5
EC
330
17
100
AcDbEntity
  8
ROADS
100
AcDbPolyline
 90
2
 70
0
 10
619944.0426207833
 20
4828394.466129569
 10
619902.8053787187
 20
4828381.041966278
  0
LWPOLYLINE
  5
ED
330
17
100
AcDbEntity
  8
ROADS
100
AcDbPolyline
 90
2
 70
0
 10
619764.4985160982
 20
4828379.346470841
 10
619840.901918096
 20
4828403.803068034
  0
LWPOLYLINE
  5
EE
330
17
100
AcDbEntity
  8
ROADS
100
AcDbPolyline
 90
3
 70
0
 10
620024.6567727579
 20
4828420.360334953
 10
620079.692143448
 20
4828236.240195451
 10
620080.6087429026
 20
4828176.563339034
  0
LWPOLYLINE
  5
EF
330
17
100
AcDbEntity
  8
ROADS
100
AcDbPolyline
 90
2
 70
0
 10
620236.6826210305
 20
4828341.291213331
 10
620154.7763797964
 20
4828314.92516131
  0
LWPOLYLINE
  5
F0
330
17
100
AcDbEntity
  8
ROADS
100
AcDbPolyline
 90
2
 70
0
 10
620366.3486949881
 20
4828244.388603567
 10
620297.3984157939
 20
4828459.066387316
  0
LWPOLYLINE
  5
F1
330
17
100
AcDbEntity
  8
ROADS
100
AcDbPolyline
 90
2
 70
0
 10
620450.701177166
 20
4828272.466896202
 10
620381.9606722856
 20
4828487.709540061
  0
LWPOLYLINE
  5
F2
330
17
100
AcDbEntity
  8
ROADS
100
AcDbPolyline
 90
2
 70
0
 10
620154.7763797964
 20
4828314.92516131
 10
620111.7868292448
 20
4828448.379798258
  0
LWPOLYLINE
  5
F3
330
17
100
AcDbEntity
  8
ROADS
100
AcDbPolyline
 90
3
 70
0
 10
620236.6826210305
 20
4828341.291213331
 10
620242.6075458518
 20
4828375.53359784
 10
620225.0129149925
 20
4828434.037275165
  0
LWPOLYLINE
  5
F4
330
17
100
AcDbEntity
  8
ROADS
100
AcDbPolyline
 90
2
 70
0
 10
620111.7868292448
 20
4828448.379798258
 10
620024.6567727579
 20
4828420.360334953
  0
LWPOLYLINE
  5
F5
330
17
100
AcDbEntity
  8
ROADS
100
AcDbPolyline
 90
2
 70
0
 10
620297.3984157939
 20
4828459.066387316
 10
620225.0129149925
 20
4828434.037275165
  0
LWPOLYLINE
  5
F6
330
17
100
AcDbEntity
  8
ROADS
100
AcDbPolyline
 90
2
 70
0
 10
620225.0129149925
 20
4828434.037275165
 10
620210.8370599346
 20
4828479.048131262
  0
LWPOLYLINE
  5
F7
330
17
100
AcDbEntity
  8
ROADS
100
AcDbPolyline
 90
2
 70
0
 10
620198.0987629736
 20
4828475.103949851
 10
620111.7868292448
 20
4828448.379798258
  0
LWPOLYLINE
  5
F8
330
17
100
AcDbEntity
  8
ROADS
100
AcDbPolyline
 90
2
 70
0
 10
619527.2565766021
 20
4828259.374912584
 10
619438.9406268506
 20
4828230.330091889
  0
LWPOLYLINE
  5
F9
330
17
100
AcDbEntity
  8
ROADS
100
AcDbPolyline
 90
2
 70
0
 10
619352.3158793685
 20
4828201.500331756
 10
619260.4463430453
 20
4828482.057609123
  0
LWPOLYLINE
  5
FA
330
17
100
AcDbEntity
  8
ROADS
100
AcDbPolyline
 90
2
 70
0
 10
619438.9406268506
 20
4828230.330091889
 10
619350.0517628883
 20
4828506.86660483
  0
LWPOLYLINE
  5
FB
330
17
100
AcDbEntity
  8
ROADS
100
AcDbPolyline
 90
2
 70
0
 10
619527.2565766021
 20
4828259.374912584
 10
619438.1790441652
 20
4828534.561032639
  0
LWPOLYLINE
  5
FC
330
17
100
AcDbEntity
  8
ROADS
100
AcDbPolyline
 90
2
 70
0
 10
619260.4463430453
 20
4828482.057609123
 10
619211.0182177635
 20
4828464.957119513
  0
LWPOLYLINE
  5
FD
330
17
100
AcDbEntity
  8
ROADS
100
AcDbPolyline
 90
2
 70
0
 10
619314.0835803415
 20
4828499.933843358
 10
619260.4463430453
 20
4828482.057609123
  0
LWPOLYLINE
  5
FE
330
17
100
AcDbEntity
  8
ROADS
100
AcDbPolyline
 90
2
 70
0
 10
620024.6567727579
 20
4828420.360334953
 10
619944.0426207833
 20
4828394.466129569
  0
LWPOLYLINE
  5
FF
330
17
100
AcDbEntity
  8
ROADS
100
AcDbPolyline
 90
2
 70
0
 10
619944.0426207833
 20
4828394.466129569
 10
619931.1197311049
 20
4828433.972354897
  0
LWPOLYLINE
  5
100
330
17
100
AcDbEntity
  8
ROADS
100
AcDbPolyline
 90
2
 70
0
 10
619615.2824405287
 20
4828288.203501714
 10
619525.7088835215
 20
4828561.670663526
  0
LWPOLYLINE
  5
101
330
17
100
AcDbEntity
  8
ROADS
100
AcDbPolyline
 90
2
 70
0
 10
619931.1197311049
 20
4828433.972354897
 10
619969.9587054108
 20
4828450.5073439395
  0
LWPOLYLINE
  5
102
330
17
100
AcDbEntity
  8
ROADS
100
AcDbPolyline
 90
2
 70
0
 10
619687.4295397691
 20
4828355.031871716
 10
619610.7906927405
 20
4828589.996149536
  0
LWPOLYLINE
  5
103
330
17
100
AcDbEntity
  8
ROADS
100
AcDbPolyline
 90
2
 70
0
 10
619764.4985160982
 20
4828379.346470841
 10
619688.0064255819
 20
4828616.648539408
  0
LWPOLYLINE
  5
104
330
17
100
AcDbEntity
  8
ROADS
100
AcDbPolyline
 90
2
 70
0
 10
619840.901918096
 20
4828403.803068034
 10
619766.1750250013
 20
4828641.816089526
  0
LWPOLYLINE
  5
105
330
17
100
AcDbEntity
  8
ROADS
100
AcDbPolyline
 90
2
 70
0
 10
619931.1197311049
 20
4828433.972354897
 10
619854.4277793125
 20
4828669.600854679
  0
LWPOLYLINE
  5
106
330
17
100
AcDbEntity
  8
ROADS
100
AcDbPolyline
 90
2
 70
0
 10
620024.6567727579
 20
4828420.360334953
 10
619940.3989118462
 20
4828696.419393733
  0
LWPOLYLINE
  5
107
330
17
100
AcDbEntity
  8
ROADS
100
AcDbPolyline
 90
2
 70
0
 10
619610.7906927405
 20
4828589.996149536
 10
619525.7088835215
 20
4828561.670663526
  0
LWPOLYLINE
  5
108
330
17
100
AcDbEntity
  8
ROADS
100
AcDbPolyline
 90
2
 70
0
 10
620297.3984157939
 20
4828459.066387316
 10
620381.9606722856
 20
4828487.709540061
  0
LWPOLYLINE
  5
109
330
17
100
AcDbEntity
  8
ROADS
100
AcDbPolyline
 90
2
 70
0
 10
620210.8370599346
 20
4828479.048131262
 10
620198.0987629736
 20
4828475.103949851
  0
LWPOLYLINE
  5
10A
330
17
100
AcDbEntity
  8
ROADS
100
AcDbPolyline
 90
2
 70
0
 10
620297.3984157939
 20
4828459.066387316
 10
620283.4738106289
 20
4828502.983744342
  0
LWPOLYLINE
  5
10B
330
17
100
AcDbEntity
  8
ROADS
100
AcDbPolyline
 90
2
 70
0
 10
620283.4738106289
 20
4828502.983744342
 10
620210.8370599346
 20
4828479.048131262
  0
LWPOLYLINE
  5
10C
330
17
100
AcDbEntity
  8
ROADS
100
AcDbPolyline
 90
2
 70
0
 10
620381.9606722856
 20
4828487.709540061
 10
620368.1279115948
 20
4828531.081543103
  0
LWPOLYLINE
  5
10D
330
17
100
AcDbEntity
  8
ROADS
100
AcDbPolyline
 90
3
 70
0
 10
620111.7868292448
 20
4828448.379798258
 10
620084.2219070202
 20
4828541.68231502
 10
620166.9805774643
 20
4828572.177978099
  0
LWPOLYLINE
  5
10E
330
17
100
AcDbEntity
  8
ROADS
100
AcDbPolyline
 90
2
 70
0
 10
620368.1279115948
 20
4828531.081543103
 10
620283.4738106289
 20
4828502.983744342
  0
LWPOLYLINE
  5
10F
330
17
100
AcDbEntity
  8
ROADS
100
AcDbPolyline
 90
2
 70
0
 10
620198.0987629736
 20
4828475.103949851
 10
620166.9805774643
 20
4828572.177978099
  0
LWPOLYLINE
  5
110
330
17
100
AcDbEntity
  8
ROADS
100
AcDbPolyline
 90
2
 70
0
 10
620451.3201606398
 20
4828558.005909423
 10
620368.1279115948
 20
4828531.081543103
  0
LWPOLYLINE
  5
111
330
17
100
AcDbEntity
  8
ROADS
100
AcDbPolyline
 90
3
 70
0
 10
620368.1279115948
 20
4828531.081543103
 10
620340.5600901949
 20
4828620.167399317
 10
620365.1290210781
 20
4828635.843707129
  0
LWPOLYLINE
  5
112
330
17
100
AcDbEntity
  8
ROADS
100
AcDbPolyline
 90
2
 70
0
 10
620250.5024140154
 20
4828605.657558919
 10
620255.3481467197
 20
4828590.897458837
  0
LWPOLYLINE
  5
113
330
17
100
AcDbEntity
  8
ROADS
100
AcDbPolyline
 90
2
 70
0
 10
620166.9805774643
 20
4828572.177978099
 10
620152.1066732153
 20
4828629.676722271
  0
LWPOLYLINE
  5
114
330
17
100
AcDbEntity
  8
ROADS
100
AcDbPolyline
 90
2
 70
0
 10
620250.5024140154
 20
4828605.657558919
 10
620262.0806646079
 20
4828613.007437274
  0
LWPOLYLINE
  5
115
330
17
100
AcDbEntity
  8
ROADS
100
AcDbPolyline
 90
2
 70
0
 10
620246.9001067386
 20
4828628.6204473125
 10
620250.5024140154
 20
4828605.657558919
  0
LWPOLYLINE
  5
116
330
17
100
AcDbEntity
  8
ROADS
100
AcDbPolyline
 90
2
 70
0
 10
620262.0806646079
 20
4828613.007437274
 10
620246.9001067386
 20
4828628.6204473125
  0
LWPOLYLINE
  5
117
330
17
100
AcDbEntity
  8
ROADS
100
AcDbPolyline
 90
2
 70
0
 10
620262.0806646079
 20
4828613.007437274
 10
620281.7620526865
 20
4828630.336050079
  0
LWPOLYLINE
  5
118
330
17
100
AcDbEntity
  8
ROADS
100
AcDbPolyline
 90
2
 70
0
 10
620265.9117355341
 20
4828635.357032448
 10
620262.0806646079
 20
4828613.007437274
  0
LWPOLYLINE
  5
119
330
17
100
AcDbEntity
  8
ROADS
100
AcDbPolyline
 90
2
 70
0
 10
620069.2419592212
 20
4828590.987800915
 10
620047.8661064676
 20
4828659.82157208
  0
LWPOLYLINE
  5
11A
330
17
100
AcDbEntity
  8
ROADS
100
AcDbPolyline
 90
2
 70
0
 10
620246.9001067386
 20
4828628.6204473125
 10
620265.9117355341
 20
4828635.357032448
  0
LWPOLYLINE
  5
11B
330
17
100
AcDbEntity
  8
ROADS
100
AcDbPolyline
 90
2
 70
0
 10
620265.9117355341
 20
4828635.357032448
 10
620281.7620526865
 20
4828630.336050079
  0
LWPOLYLINE
  5
11C
330
17
100
AcDbEntity
  8
ROADS
100
AcDbPolyline
 90
2
 70
0
 10
620365.1290210781
 20
4828635.843707129
 10
620420.3029102084
 20
4828654.139787838
  0
LWPOLYLINE
  5
11D
330
17
100
AcDbEntity
  8
ROADS
100
AcDbPolyline
 90
2
 70
0
 10
620232.4897592323
 20
4828661.473567932
 10
620246.9001067386
 20
4828628.6204473125
  0
LWPOLYLINE
  5
11E
330
17
100
AcDbEntity
  8
ROADS
100
AcDbPolyline
 90
2
 70
0
 10
620152.1066732153
 20
4828629.676722271
 10
620232.4897592323
 20
4828661.473567932
  0
LWPOLYLINE
  5
11F
330
17
100
AcDbEntity
  8
ROADS
100
AcDbPolyline
 90
2
 70
0
 10
620281.7620526865
 20
4828630.336050079
 10
620289.5087446402
 20
4828680.320987437
  0
LWPOLYLINE
  5
120
330
17
100
AcDbEntity
  8
ROADS
100
AcDbPolyline
 90
2
 70
0
 10
620152.1066732153
 20
4828629.676722271
 10
620130.2927373023
 20
4828686.275101589
  0
LWPOLYLINE
  5
121
330
17
100
AcDbEntity
  8
ROADS
100
AcDbPolyline
 90
2
 70
0
 10
620365.1290210781
 20
4828635.843707129
 10
620345.4966398298
 20
4828698.17475278
  0
LWPOLYLINE
  5
122
330
17
100
AcDbEntity
  8
ROADS
100
AcDbPolyline
 90
2
 70
0
 10
620232.4897592323
 20
4828661.473567932
 10
620289.5087446402
 20
4828680.320987437
  0
LWPOLYLINE
  5
123
330
17
100
AcDbEntity
  8
ROADS
100
AcDbPolyline
 90
2
 70
0
 10
620130.2927373023
 20
4828686.275101589
 10
620047.8661064676
 20
4828659.82157208
  0
LWPOLYLINE
  5
124
330
17
100
AcDbEntity
  8
ROADS
100
AcDbPolyline
 90
2
 70
0
 10
620420.3029102084
 20
4828654.139787838
 10
620400.8810967358
 20
4828716.162632516
  0
LWPOLYLINE
  5
125
330
17
100
AcDbEntity
  8
ROADS
100
AcDbPolyline
 90
2
 70
0
 10
620289.5087446402
 20
4828680.320987437
 10
620345.4966398298
 20
4828698.17475278
  0
LWPOLYLINE
  5
126
330
17
100
AcDbEntity
  8
ROADS
100
AcDbPolyline
 90
2
 70
0
 10
619688.0064255819
 20
4828616.648539408
 10
619610.7906927405
 20
4828589.996149536
  0
LWPOLYLINE
  5
127
330
17
100
AcDbEntity
  8
ROADS
100
AcDbPolyline
 90
2
 70
0
 10
619766.1750250013
 20
4828641.816089526
 10
619688.0064255819
 20
4828616.648539408
  0
LWPOLYLINE
  5
128
330
17
100
AcDbEntity
  8
ROADS
100
AcDbPolyline
 90
2
 70
0
 10
619854.4277793125
 20
4828669.600854679
 10
619766.1750250013
 20
4828641.816089526
  0
LWPOLYLINE
  5
129
330
17
100
AcDbEntity
  8
ROADS
100
AcDbPolyline
 90
2
 70
0
 10
619897.3338083078
 20
4828682.984185216
 10
619854.4277793125
 20
4828669.600854679
  0
LWPOLYLINE
  5
12A
330
17
100
AcDbEntity
  8
ROADS
100
AcDbPolyline
 90
2
 70
0
 10
619940.3989118462
 20
4828696.419393733
 10
619897.3338083078
 20
4828682.984185216
  0
LWPOLYLINE
  5
12B
330
17
100
AcDbEntity
  8
ROADS
100
AcDbPolyline
 90
2
 70
0
 10
619982.290793763
 20
4828710.584448659
 10
619940.3989118462
 20
4828696.419393733
  0
LWPOLYLINE
  5
12C
330
17
100
AcDbEntity
  8
ROADS
100
AcDbPolyline
 90
2
 70
0
 10
619854.4277793125
 20
4828669.600854679
 10
619824.5351739123
 20
4828764.262802321
  0
LWPOLYLINE
  5
12D
330
17
100
AcDbEntity
  8
ROADS
100
AcDbPolyline
 90
2
 70
0
 10
620024.396693667
 20
4828724.472360684
 10
619982.290793763
 20
4828710.584448659
  0
LWPOLYLINE
  5
12E
330
17
100
AcDbEntity
  8
ROADS
100
AcDbPolyline
 90
2
 70
0
 10
619897.3338083078
 20
4828682.984185216
 10
619867.3005090049
 20
4828776.908573903
  0
LWPOLYLINE
  5
12F
330
17
100
AcDbEntity
  8
ROADS
100
AcDbPolyline
 90
2
 70
0
 10
619940.3989118462
 20
4828696.419393733
 10
619910.3102758117
 20
4828789.309752886
  0
LWPOLYLINE
  5
130
330
17
100
AcDbEntity
  8
ROADS
100
AcDbPolyline
 90
2
 70
0
 10
619350.0517628883
 20
4828506.86660483
 10
619314.0835803415
 20
4828499.933843358
  0
LWPOLYLINE
  5
131
330
17
100
AcDbEntity
  8
ROADS
100
AcDbPolyline
 90
2
 70
0
 10
619438.1790441652
 20
4828534.561032639
 10
619350.0517628883
 20
4828506.86660483
  0
LWPOLYLINE
  5
132
330
17
100
AcDbEntity
  8
ROADS
100
AcDbPolyline
 90
2
 70
0
 10
619260.4463430453
 20
4828482.057609123
 10
619226.9588607146
 20
4828582.2486976655
  0
LWPOLYLINE
  5
133
330
17
100
AcDbEntity
  8
ROADS
100
AcDbPolyline
 90
2
 70
0
 10
619525.7088835215
 20
4828561.670663526
 10
619438.1790441652
 20
4828534.561032639
  0
LWPOLYLINE
  5
134
330
17
100
AcDbEntity
  8
ROADS
100
AcDbPolyline
 90
2
 70
0
 10
619314.0835803415
 20
4828499.933843358
 10
619274.2652405401
 20
4828597.223514582
  0
LWPOLYLINE
  5
135
330
17
100
AcDbEntity
  8
ROADS
100
AcDbPolyline
 90
2
 70
0
 10
619274.2652405401
 20
4828597.223514582
 10
619226.9588607146
 20
4828582.2486976655
  0
LWPOLYLINE
  5
136
330
17
100
AcDbEntity
  8
ROADS
100
AcDbPolyline
 90
2
 70
0
 10
619226.9588607146
 20
4828582.2486976655
 10
619219.969804639
 20
4828604.141866706
  0
LWPOLYLINE
  5
137
330
17
100
AcDbEntity
  8
ROADS
100
AcDbPolyline
 90
2
 70
0
 10
619274.2652405401
 20
4828597.223514582
 10
619238.4776073311
 20
4828706.861354662
  0
LWPOLYLINE
  5
138
330
17
100
AcDbEntity
  8
ROADS
100
AcDbPolyline
 90
2
 70
0
 10
619610.7906927405
 20
4828589.996149536
 10
619496.554905652
 20
4828953.338338327
  0
LWPOLYLINE
  5
139
330
17
100
AcDbEntity
  8
ROADS
100
AcDbPolyline
 90
2
 70
0
 10
620911.9685661128
 20
4828705.698458138
 10
620898.5680738348
 20
4828746.451215454
  0
LWPOLYLINE
  5
13A
330
17
100
AcDbEntity
  8
ROADS
100
AcDbPolyline
 90
2
 70
0
 10
620898.5680738348
 20
4828746.451215454
 10
620852.947786058
 20
4828731.739767991
  0
LWPOLYLINE
  5
13B
330
17
100
AcDbEntity
  8
ROADS
100
AcDbPolyline
 90
2
 70
0
 10
621116.4412470545
 20
4828724.202142069
 10
621103.4159555008
 20
4828768.211340489
  0
LWPOLYLINE
  5
13C
330
17
100
AcDbEntity
  8
ROADS
100
AcDbPolyline
 90
2
 70
0
 10
621091.9436785673
 20
4828764.655017071
 10
621001.7112148891
 20
4828734.561280785
  0
LWPOLYLINE
  5
13D
330
17
100
AcDbEntity
  8
ROADS
100
AcDbPolyline
 90
2
 70
0
 10
621001.7112148891
 20
4828734.561280785
 10
620987.2705705138
 20
4828779.417441359
  0
LWPOLYLINE
  5
13E
330
17
100
AcDbEntity
  8
ROADS
100
AcDbPolyline
 90
2
 70
0
 10
620987.2705705138
 20
4828779.417441359
 10
620898.5680738348
 20
4828746.451215454
  0
LWPOLYLINE
  5
13F
330
17
100
AcDbEntity
  8
ROADS
100
AcDbPolyline
 90
2
 70
0
 10
621103.4159555008
 20
4828768.211340489
 10
621091.9436785673
 20
4828764.655017071
  0
LWPOLYLINE
  5
140
330
17
100
AcDbEntity
  8
ROADS
100
AcDbPolyline
 90
2
 70
0
 10
621184.8390976909
 20
4828795.201877412
 10
621103.4159555008
 20
4828768.211340489
  0
LWPOLYLINE
  5
141
330
17
100
AcDbEntity
  8
ROADS
100
AcDbPolyline
 90
2
 70
0
 10
621091.9436785673
 20
4828764.655017071
 10
621076.6011850748
 20
4828807.672822952
  0
LWPOLYLINE
  5
142
330
17
100
AcDbEntity
  8
ROADS
100
AcDbPolyline
 90
2
 70
0
 10
620987.2705705138
 20
4828779.417441359
 10
621076.6011850748
 20
4828807.672822952
  0
LWPOLYLINE
  5
143
330
17
100
AcDbEntity
  8
ROADS
100
AcDbPolyline
 90
2
 70
0
 10
620819.7765047554
 20
4828675.746372722
 10
620806.6345468771
 20
4828716.802801464
  0
LWPOLYLINE
  5
144
330
17
100
AcDbEntity
  8
ROADS
100
AcDbPolyline
 90
2
 70
0
 10
620806.6345468771
 20
4828716.802801464
 10
620762.442828801
 20
4828702.562179022
  0
LWPOLYLINE
  5
145
330
17
100
AcDbEntity
  8
ROADS
100
AcDbPolyline
 90
2
 70
0
 10
620533.9834700592
 20
4828631.388675053
 10
620476.3211700702
 20
4828812.02192112
  0
LWPOLYLINE
  5
146
330
17
100
AcDbEntity
  8
ROADS
100
AcDbPolyline
 90
2
 70
0
 10
620626.4125385447
 20
4828658.567887566
 10
620551.1694362363
 20
4828893.969484566
  0
LWPOLYLINE
  5
147
330
17
100
AcDbEntity
  8
ROADS
100
AcDbPolyline
 90
2
 70
0
 10
620671.8883882924
 20
4828673.301708327
 10
620595.9111403377
 20
4828908.265558228
  0
LWPOLYLINE
  5
148
330
17
100
AcDbEntity
  8
ROADS
100
AcDbPolyline
 90
2
 70
0
 10
620716.805526314
 20
4828687.852436015
 10
620640.3428930528
 20
4828922.115519528
  0
LWPOLYLINE
  5
149
330
17
100
AcDbEntity
  8
ROADS
100
AcDbPolyline
 90
2
 70
0
 10
620476.3211700702
 20
4828812.02192112
 10
620442.5736505103
 20
4828815.672246033
  0
LWPOLYLINE
  5
14A
330
17
100
AcDbEntity
  8
ROADS
100
AcDbPolyline
 90
2
 70
0
 10
620687.3344648888
 20
4828937.3107683165
 10
620762.442828801
 20
4828702.562179022
  0
LWPOLYLINE
  5
14B
330
17
100
AcDbEntity
  8
ROADS
100
AcDbPolyline
 90
2
 70
0
 10
620476.3211700702
 20
4828812.02192112
 10
620470.220333135
 20
4828829.774487014
  0
LWPOLYLINE
  5
14C
330
17
100
AcDbEntity
  8
ROADS
100
AcDbPolyline
 90
2
 70
0
 10
620442.5736505103
 20
4828815.672246033
 10
620470.220333135
 20
4828829.774487014
  0
LWPOLYLINE
  5
14D
330
17
100
AcDbEntity
  8
ROADS
100
AcDbPolyline
 90
2
 70
0
 10
620852.947786058
 20
4828731.739767991
 10
620807.1600036816
 20
4828872.883928815
  0
LWPOLYLINE
  5
14E
330
17
100
AcDbEntity
  8
ROADS
100
AcDbPolyline
 90
2
 70
0
 10
621076.6011850748
 20
4828807.672822952
 10
621070.4831451729
 20
4828826.931175422
  0
LWPOLYLINE
  5
14F
330
17
100
AcDbEntity
  8
ROADS
100
AcDbPolyline
 90
2
 70
0
 10
621070.4831451729
 20
4828826.931175422
 10
621205.814972314
 20
4828869.130898774
  0
LWPOLYLINE
  5
150
330
17
100
AcDbEntity
  8
ROADS
100
AcDbPolyline
 90
2
 70
0
 10
621070.4831451729
 20
4828826.931175422
 10
621055.4128898893
 20
4828874.366083214
  0
LWPOLYLINE
  5
151
330
17
100
AcDbEntity
  8
ROADS
100
AcDbPolyline
 90
2
 70
0
 10
620898.5680738348
 20
4828746.451215454
 10
620821.7867585834
 20
4828979.9716272615
  0
LWPOLYLINE
  5
152
330
17
100
AcDbEntity
  8
ROADS
100
AcDbPolyline
 90
2
 70
0
 10
620987.2705705138
 20
4828779.417441359
 10
620913.5777664138
 20
4829008.318485471
  0
LWPOLYLINE
  5
153
330
17
100
AcDbEntity
  8
ROADS
100
AcDbPolyline
 90
2
 70
0
 10
621191.4594659548
 20
4828917.909790143
 10
621055.4128898893
 20
4828874.366083214
  0
LWPOLYLINE
  5
154
330
17
100
AcDbEntity
  8
ROADS
100
AcDbPolyline
 90
2
 70
0
 10
621055.4128898893
 20
4828874.366083214
 10
621002.4279064123
 20
4829039.033351626
  0
LWPOLYLINE
  5
155
330
17
100
AcDbEntity
  8
ROADS
100
AcDbPolyline
 90
2
 70
0
 10
620913.5777664138
 20
4829008.318485471
 10
620821.7867585834
 20
4828979.9716272615
  0
LWPOLYLINE
  5
156
330
17
100
AcDbEntity
  8
ROADS
100
AcDbPolyline
 90
2
 70
0
 10
621002.4279064123
 20
4829039.033351626
 10
620913.5777664138
 20
4829008.318485471
  0
LWPOLYLINE
  5
157
330
17
100
AcDbEntity
  8
ROADS
100
AcDbPolyline
 90
2
 70
0
 10
620806.6345468771
 20
4828716.802801464
 10
620731.4844886749
 20
4828951.588667456
  0
LWPOLYLINE
  5
158
330
17
100
AcDbEntity
  8
ROADS
100
AcDbPolyline
 90
2
 70
0
 10
620470.220333135
 20
4828829.774487014
 10
620457.9293687261
 20
4828864.796984417
  0
LWPOLYLINE
  5
159
330
17
100
AcDbEntity
  8
ROADS
100
AcDbPolyline
 90
2
 70
0
 10
620551.1694362363
 20
4828893.969484566
 10
620457.9293687261
 20
4828864.796984417
  0
LWPOLYLINE
  5
15A
330
17
100
AcDbEntity
  8
ROADS
100
AcDbPolyline
 90
2
 70
0
 10
620595.9111403377
 20
4828908.265558228
 10
620551.1694362363
 20
4828893.969484566
  0
LWPOLYLINE
  5
15B
330
17
100
AcDbEntity
  8
ROADS
100
AcDbPolyline
 90
2
 70
0
 10
620640.3428930528
 20
4828922.115519528
 10
620595.9111403377
 20
4828908.265558228
  0
LWPOLYLINE
  5
15C
330
17
100
AcDbEntity
  8
ROADS
100
AcDbPolyline
 90
2
 70
0
 10
620687.3344648888
 20
4828937.3107683165
 10
620640.3428930528
 20
4828922.115519528
  0
LWPOLYLINE
  5
15D
330
17
100
AcDbEntity
  8
ROADS
100
AcDbPolyline
 90
2
 70
0
 10
620731.4844886749
 20
4828951.588667456
 10
620687.3344648888
 20
4828937.3107683165
  0
LWPOLYLINE
  5
15E
330
17
100
AcDbEntity
  8
ROADS
100
AcDbPolyline
 90
2
 70
0
 10
620821.7867585834
 20
4828979.9716272615
 10
620731.4844886749
 20
4828951.588667456
  0
LWPOLYLINE
  5
15F
330
17
100
AcDbEntity
  8
ROADS
100
AcDbPolyline
 90
3
 70
0
 10
620595.9111403377
 20
4828908.265558228
 10
620534.3234557811
 20
4829101.250419043
 10
620574.5930735003
 20
4829124.56613459
  0
LWPOLYLINE
  5
160
330
17
100
AcDbEntity
  8
ROADS
100
AcDbPolyline
 90
2
 70
0
 10
620640.3428930528
 20
4828922.115519528
 10
620574.5930735003
 20
4829124.56613459
  0
LWPOLYLINE
  5
161
330
17
100
AcDbEntity
  8
ROADS
100
AcDbPolyline
 90
3
 70
0
 10
621611.1092192875
 20
4828955.832811274
 10
621417.6328810579
 20
4828838.4206569
 10
621277.5343764264
 20
4828813.574605157
  0
LWPOLYLINE
  5
162
330
17
100
AcDbEntity
  8
ROADS
100
AcDbPolyline
 90
2
 70
0
 10
621199.2056186256
 20
4828894.385647283
 10
621191.4594659548
 20
4828917.909790143
  0
LWPOLYLINE
  5
163
330
17
100
AcDbEntity
  8
ROADS
100
AcDbPolyline
 90
2
 70
0
 10
621191.4594659548
 20
4828917.909790143
 10
621169.2860380511
 20
4828987.264392485
  0
LWPOLYLINE
  5
164
330
17
100
AcDbEntity
  8
ROADS
100
AcDbPolyline
 90
2
 70
0
 10
621590.9500708764
 20
4829022.018732073
 10
621199.2056186256
 20
4828894.385647283
  0
LWPOLYLINE
  5
165
330
17
100
AcDbEntity
  8
ROADS
100
AcDbPolyline
 90
2
 70
0
 10
621560.9130210683
 20
4829115.528482393
 10
621169.2860380511
 20
4828987.264392485
  0
LWPOLYLINE
  5
166
330
17
100
AcDbEntity
  8
ROADS
100
AcDbPolyline
 90
2
 70
0
 10
621582.1834571019
 20
4829050.271683315
 10
621560.9130210683
 20
4829115.528482393
  0
LWPOLYLINE
  5
167
330
17
100
AcDbEntity
  8
ROADS
100
AcDbPolyline
 90
2
 70
0
 10
621560.9130210683
 20
4829115.528482393
 10
621547.4329564536
 20
4829157.692929631
  0
LWPOLYLINE
  5
168
330
17
100
AcDbEntity
  8
ROADS
100
AcDbPolyline
 90
2
 70
0
 10
621531.7096453918
 20
4829206.399154162
 10
621137.3001276999
 20
4829081.151849253
  0
LWPOLYLINE
  5
169
330
17
100
AcDbEntity
  8
ROADS
100
AcDbPolyline
 90
2
 70
0
 10
621547.4329564536
 20
4829157.692929631
 10
621531.7096453918
 20
4829206.399154162
  0
LWPOLYLINE
  5
16A
330
17
100
AcDbEntity
  8
ROADS
100
AcDbPolyline
 90
2
 70
0
 10
621500.8311054136
 20
4829302.450788579
 10
621110.8619697246
 20
4829168.697202317
  0
LWPOLYLINE
  5
16B
330
17
100
AcDbEntity
  8
ROADS
100
AcDbPolyline
 90
2
 70
0
 10
621639.8333127089
 20
4828863.976397808
 10
621631.8857035667
 20
4828889.9060426
  0
LWPOLYLINE
  5
16C
330
17
100
AcDbEntity
  8
ROADS
100
AcDbPolyline
 90
2
 70
0
 10
621631.8857035667
 20
4828889.9060426
 10
621678.0539028654
 20
4828918.916083783
  0
LWPOLYLINE
  5
16D
330
17
100
AcDbEntity
  8
ROADS
100
AcDbPolyline
 90
2
 70
0
 10
621631.8857035667
 20
4828889.9060426
 10
621611.1092192875
 20
4828955.832811274
  0
LWPOLYLINE
  5
16E
330
17
100
AcDbEntity
  8
ROADS
100
AcDbPolyline
 90
2
 70
0
 10
621611.1092192875
 20
4828955.832811274
 10
621590.9500708764
 20
4829022.018732073
  0
LWPOLYLINE
  5
16F
330
17
100
AcDbEntity
  8
ROADS
100
AcDbPolyline
 90
2
 70
0
 10
621590.9500708764
 20
4829022.018732073
 10
621582.1834571019
 20
4829050.271683315
  0
LWPOLYLINE
  5
170
330
17
100
AcDbEntity
  8
ROADS
100
AcDbPolyline
 90
4
 70
0
 10
621820.3677343911
 20
4829329.044769336
 10
621746.9155262961
 20
4829101.456909398
 10
621695.3113939704
 20
4829027.521638623
 10
621611.1092192875
 20
4828955.832811274
  0
LWPOLYLINE
  5
171
330
17
100
AcDbEntity
  8
ROADS
100
AcDbPolyline
 90
3
 70
0
 10
621730.3731912692
 20
4829333.665688403
 10
621680.4888325987
 20
4829173.258538373
 10
621582.1834571019
 20
4829050.271683315
  0
LWPOLYLINE
  5
172
330
17
100
AcDbEntity
  8
ROADS
100
AcDbPolyline
 90
4
 70
0
 10
621637.0829268708
 20
4829349.947609282
 10
621623.4143411866
 20
4829259.745697022
 10
621593.7364237271
 20
4829191.005637006
 10
621547.4329564536
 20
4829157.692929631
  0
LWPOLYLINE
  5
173
330
17
100
AcDbEntity
  8
ROADS
100
AcDbPolyline
 90
3
 70
0
 10
621869.4418410959
 20
4829341.344603873
 10
621864.3621383931
 20
4829300.72800831
 10
621897.0355562337
 20
4829289.602573647
  0
LWPOLYLINE
  5
174
330
17
100
AcDbEntity
  8
ROADS
100
AcDbPolyline
 90
2
 70
0
 10
621820.3677343911
 20
4829329.044769336
 10
621730.3731912692
 20
4829333.665688403
  0
LWPOLYLINE
  5
175
330
17
100
AcDbEntity
  8
ROADS
100
AcDbPolyline
 90
3
 70
0
 10
620551.1694362363
 20
4828893.969484566
 10
620523.218339127
 20
4829020.496501244
 10
620523.099395132
 20
4829282.240269523
  0
LWPOLYLINE
  5
176
330
17
100
AcDbEntity
  8
ROADS
100
AcDbPolyline
 90
2
 70
0
 10
620687.3344648888
 20
4828937.3107683165
 10
620570.9833650028
 20
4829297.773694724
  0
LWPOLYLINE
  5
177
330
17
100
AcDbEntity
  8
ROADS
100
AcDbPolyline
 90
2
 70
0
 10
620479.0221123938
 20
4829126.502767207
 10
620473.2685341545
 20
4829138.371354591
  0
LWPOLYLINE
  5
178
330
17
100
AcDbEntity
  8
ROADS
100
AcDbPolyline
 90
2
 70
0
 10
620574.5930735003
 20
4829124.56613459
 10
620550.125071441
 20
4829203.028037521
  0
LWPOLYLINE
  5
179
330
17
100
AcDbEntity
  8
ROADS
100
AcDbPolyline
 90
2
 70
0
 10
620473.2685341545
 20
4829138.371354591
 10
620434.4914503578
 20
4829254.125861928
  0
LWPOLYLINE
  5
17A
330
17
100
AcDbEntity
  8
ROADS
100
AcDbPolyline
 90
3
 70
0
 10
620473.2685341545
 20
4829138.371354591
 10
620509.9145562862
 20
4829152.740757629
 10
620480.7020302251
 20
4829268.652016296
  0
LWPOLYLINE
  5
17B
330
17
100
AcDbEntity
  8
ROADS
100
AcDbPolyline
 90
2
 70
0
 10
620480.7020302251
 20
4829268.652016296
 10
620434.4914503578
 20
4829254.125861928
  0
LWPOLYLINE
  5
17C
330
17
100
AcDbEntity
  8
ROADS
100
AcDbPolyline
 90
2
 70
0
 10
620523.099395132
 20
4829282.240269523
 10
620480.7020302251
 20
4829268.652016296
  0
LWPOLYLINE
  5
17D
330
17
100
AcDbEntity
  8
ROADS
100
AcDbPolyline
 90
2
 70
0
 10
620570.9833650028
 20
4829297.773694724
 10
620523.099395132
 20
4829282.240269523
  0
LWPOLYLINE
  5
17E
330
17
100
AcDbEntity
  8
ROADS
100
AcDbPolyline
 90
2
 70
0
 10
620946.914155406
 20
4829420.8442331515
 10
620570.9833650028
 20
4829297.773694724
  0
LWPOLYLINE
  5
17F
330
17
100
AcDbEntity
  8
ROADS
100
AcDbPolyline
 90
2
 70
0
 10
621169.2860380511
 20
4828987.264392485
 10
621137.3001276999
 20
4829081.151849253
  0
LWPOLYLINE
  5
180
330
17
100
AcDbEntity
  8
ROADS
100
AcDbPolyline
 90
2
 70
0
 10
620913.5777664138
 20
4829008.318485471
 10
620894.776311152
 20
4829060.738194527
  0
LWPOLYLINE
  5
181
330
17
100
AcDbEntity
  8
ROADS
100
AcDbPolyline
 90
2
 70
0
 10
621137.3001276999
 20
4829081.151849253
 10
621002.4279064123
 20
4829039.033351626
  0
LWPOLYLINE
  5
182
330
17
100
AcDbEntity
  8
ROADS
100
AcDbPolyline
 90
2
 70
0
 10
621137.3001276999
 20
4829081.151849253
 10
621110.8619697246
 20
4829168.697202317
  0
LWPOLYLINE
  5
183
330
17
100
AcDbEntity
  8
ROADS
100
AcDbPolyline
 90
2
 70
0
 10
621110.8619697246
 20
4829168.697202317
 10
621080.5102462554
 20
4829260.693057177
  0
LWPOLYLINE
  5
184
330
17
100
AcDbEntity
  8
ROADS
100
AcDbPolyline
 90
2
 70
0
 10
621080.5102462554
 20
4829260.693057177
 10
621050.6401341025
 20
4829353.651635378
  0
LWPOLYLINE
  5
185
330
17
100
AcDbEntity
  8
ROADS
100
AcDbPolyline
 90
2
 70
0
 10
621050.6401341025
 20
4829353.651635378
 10
621020.4784876505
 20
4829444.69984973
  0
LWPOLYLINE
  5
186
330
17
100
AcDbEntity
  8
ROADS
100
AcDbPolyline
 90
2
 70
0
 10
621020.4784876505
 20
4829444.69984973
 10
620946.914155406
 20
4829420.8442331515
  0
LWPOLYLINE
  5
187
330
17
100
AcDbEntity
  8
ROADS
100
AcDbPolyline
 90
2
 70
0
 10
621020.4784876505
 20
4829444.69984973
 10
620992.1270209559
 20
4829537.180802704
  0
LWPOLYLINE
  5
188
330
17
100
AcDbEntity
  8
ROADS
100
AcDbPolyline
 90
3
 70
0
 10
620946.914155406
 20
4829420.8442331515
 10
620915.0741211412
 20
4829469.662289697
 10
620781.3136814729
 20
4829572.246889406
  0
LWPOLYLINE
  5
189
330
17
100
AcDbEntity
  8
ROADS
100
AcDbPolyline
 90
2
 70
0
 10
621531.7096453918
 20
4829206.399154162
 10
621500.8311054136
 20
4829302.450788579
  0
LWPOLYLINE
  5
18A
330
17
100
AcDbEntity
  8
ROADS
100
AcDbPolyline
 90
2
 70
0
 10
621472.4709271068
 20
4829390.015509596
 10
621080.5102462554
 20
4829260.693057177
  0
LWPOLYLINE
  5
18B
330
17
100
AcDbEntity
  8
ROADS
100
AcDbPolyline
 90
2
 70
0
 10
621637.0829268708
 20
4829349.947609282
 10
621500.8311054136
 20
4829302.450788579
  0
LWPOLYLINE
  5
18C
330
17
100
AcDbEntity
  8
ROADS
100
AcDbPolyline
 90
2
 70
0
 10
621500.8311054136
 20
4829302.450788579
 10
621472.4709271068
 20
4829390.015509596
  0
LWPOLYLINE
  5
18D
330
17
100
AcDbEntity
  8
ROADS
100
AcDbPolyline
 90
2
 70
0
 10
621573.4522152429
 20
4829423.8317554565
 10
621472.4709271068
 20
4829390.015509596
  0
LWPOLYLINE
  5
18E
330
17
100
AcDbEntity
  8
ROADS
100
AcDbPolyline
 90
2
 70
0
 10
621444.2567224021
 20
4829477.497848846
 10
621050.6401341025
 20
4829353.651635378
  0
LWPOLYLINE
  5
18F
330
17
100
AcDbEntity
  8
ROADS
100
AcDbPolyline
 90
2
 70
0
 10
621472.4709271068
 20
4829390.015509596
 10
621444.2567224021
 20
4829477.497848846
  0
LWPOLYLINE
  5
190
330
17
100
AcDbEntity
  8
ROADS
100
AcDbPolyline
 90
2
 70
0
 10
621415.8750875099
 20
4829569.487349919
 10
621020.4784876505
 20
4829444.69984973
  0
LWPOLYLINE
  5
191
330
17
100
AcDbEntity
  8
ROADS
100
AcDbPolyline
 90
2
 70
0
 10
621444.2567224021
 20
4829477.497848846
 10
621415.8750875099
 20
4829569.487349919
  0
LWPOLYLINE
  5
192
330
17
100
AcDbEntity
  8
ROADS
100
AcDbPolyline
 90
2
 70
0
 10
621573.4522152429
 20
4829423.8317554565
 10
621482.6987456586
 20
4829709.199455734
  0
LWPOLYLINE
  5
193
330
17
100
AcDbEntity
  8
ROADS
100
AcDbPolyline
 90
2
 70
0
 10
621383.2728503981
 20
4829664.986763511
 10
620992.1270209559
 20
4829537.180802704
  0
LWPOLYLINE
  5
194
330
17
100
AcDbEntity
  8
ROADS
100
AcDbPolyline
 90
2
 70
0
 10
621415.8750875099
 20
4829569.487349919
 10
621383.2728503981
 20
4829664.986763511
  0
LWPOLYLINE
  5
195
330
17
100
AcDbEntity
  8
ROADS
100
AcDbPolyline
 90
2
 70
0
 10
621383.2728503981
 20
4829664.986763511
 10
621378.334897799
 20
4829679.58922626
  0
LWPOLYLINE
  5
196
330
17
100
AcDbEntity
  8
ROADS
100
AcDbPolyline
 90
2
 70
0
 10
621482.6987456586
 20
4829709.199455734
 10
621378.334897799
 20
4829679.58922626
  0
LWPOLYLINE
  5
197
330
17
100
AcDbEntity
  8
ROADS
100
AcDbPolyline
 90
2
 70
0
 10
621378.334897799
 20
4829679.58922626
 10
621353.9218214377
 20
4829755.7196689
  0
LWPOLYLINE
  5
198
330
17
100
AcDbEntity
  8
ROADS
100
AcDbPolyline
 90
2
 70
0
 10
621584.7570520465
 20
4829742.545230179
 10
621482.6987456586
 20
4829709.199455734
  0
LWPOLYLINE
  5
199
330
17
100
AcDbEntity
  8
ROADS
100
AcDbPolyline
 90
2
 70
0
 10
621353.9218214377
 20
4829755.7196689
 10
621322.3040630443
 20
4829854.458971697
  0
LWPOLYLINE
  5
19A
330
17
100
AcDbEntity
  8
ROADS
100
AcDbPolyline
 90
2
 70
0
 10
621482.6987456586
 20
4829709.199455734
 10
621438.7840183113
 20
4829844.034615345
  0
LWPOLYLINE
  5
19B
330
17
100
AcDbEntity
  8
ROADS
100
AcDbPolyline
 90
2
 70
0
 10
621322.3040630443
 20
4829854.458971697
 10
621318.8364775041
 20
4829865.172288297
  0
LWPOLYLINE
  5
19C
330
17
100
AcDbEntity
  8
ROADS
100
AcDbPolyline
 90
2
 70
0
 10
620047.8661064676
 20
4828659.82157208
 10
620024.396693667
 20
4828724.472360684
  0
LWPOLYLINE
  5
19D
330
17
100
AcDbEntity
  8
ROADS
100
AcDbPolyline
 90
2
 70
0
 10
620289.5087446402
 20
4828680.320987437
 10
620276.3767075912
 20
4828718.669419041
  0
LWPOLYLINE
  5
19E
330
17
100
AcDbEntity
  8
ROADS
100
AcDbPolyline
 90
2
 70
0
 10
620345.4966398298
 20
4828698.17475278
 10
620400.8810967358
 20
4828716.162632516
  0
LWPOLYLINE
  5
19F
330
17
100
AcDbEntity
  8
ROADS
100
AcDbPolyline
 90
2
 70
0
 10
620130.2927373023
 20
4828686.275101589
 10
620108.6842670464
 20
4828752.095557085
  0
LWPOLYLINE
  5
1A0
330
17
100
AcDbEntity
  8
ROADS
100
AcDbPolyline
 90
2
 70
0
 10
620108.6842670464
 20
4828752.095557085
 10
620024.396693667
 20
4828724.472360684
  0
LWPOLYLINE
  5
1A1
330
17
100
AcDbEntity
  8
ROADS
100
AcDbPolyline
 90
3
 70
0
 10
620276.3767075912
 20
4828718.669419041
 10
620219.339869315
 20
4828700.201686787
 10
620195.059182382
 20
4828779.539453605
  0
LWPOLYLINE
  5
1A2
330
17
100
AcDbEntity
  8
ROADS
100
AcDbPolyline
 90
2
 70
0
 10
620276.3767075912
 20
4828718.669419041
 10
620251.257190695
 20
4828797.497029413
  0
LWPOLYLINE
  5
1A3
330
17
100
AcDbEntity
  8
ROADS
100
AcDbPolyline
 90
2
 70
0
 10
620195.059182382
 20
4828779.539453605
 10
620108.6842670464
 20
4828752.095557085
  0
LWPOLYLINE
  5
1A4
330
17
100
AcDbEntity
  8
ROADS
100
AcDbPolyline
 90
3
 70
0
 10
620276.3767075912
 20
4828718.669419041
 10
620332.431538717
 20
4828737.080421821
 10
620307.1772686333
 20
4828815.450591914
  0
LWPOLYLINE
  5
1A5
330
17
100
AcDbEntity
  8
ROADS
100
AcDbPolyline
 90
2
 70
0
 10
620400.8810967358
 20
4828716.162632516
 10
620364.033178133
 20
4828834.302096954
  0
LWPOLYLINE
  5
1A6
330
17
100
AcDbEntity
  8
ROADS
100
AcDbPolyline
 90
2
 70
0
 10
620251.257190695
 20
4828797.497029413
 10
620195.059182382
 20
4828779.539453605
  0
LWPOLYLINE
  5
1A7
330
17
100
AcDbEntity
  8
ROADS
100
AcDbPolyline
 90
2
 70
0
 10
620307.1772686333
 20
4828815.450591914
 10
620251.257190695
 20
4828797.497029413
  0
LWPOLYLINE
  5
1A8
330
17
100
AcDbEntity
  8
ROADS
100
AcDbPolyline
 90
3
 70
0
 10
620442.5736505103
 20
4828815.672246033
 10
620413.4170447026
 20
4828801.584541118
 10
620402.4810649034
 20
4828819.444793196
  0
LWPOLYLINE
  5
1A9
330
17
100
AcDbEntity
  8
ROADS
100
AcDbPolyline
 90
2
 70
0
 10
620442.5736505103
 20
4828815.672246033
 10
620402.4810649034
 20
4828819.444793196
  0
LWPOLYLINE
  5
1AA
330
17
100
AcDbEntity
  8
ROADS
100
AcDbPolyline
 90
2
 70
0
 10
620364.033178133
 20
4828834.302096954
 10
620307.1772686333
 20
4828815.450591914
  0
LWPOLYLINE
  5
1AB
330
17
100
AcDbEntity
  8
ROADS
100
AcDbPolyline
 90
2
 70
0
 10
620402.4810649034
 20
4828819.444793196
 10
620364.033178133
 20
4828834.302096954
  0
LWPOLYLINE
  5
1AC
330
17
100
AcDbEntity
  8
ROADS
100
AcDbPolyline
 90
2
 70
0
 10
620457.9293687261
 20
4828864.796984417
 10
620364.033178133
 20
4828834.302096954
  0
LWPOLYLINE
  5
1AD
330
17
100
AcDbEntity
  8
ROADS
100
AcDbPolyline
 90
2
 70
0
 10
620457.9293687261
 20
4828864.796984417
 10
620341.7281603814
 20
4829225.745413784
  0
LWPOLYLINE
  5
1AE
330
17
100
AcDbEntity
  8
ROADS
100
AcDbPolyline
 90
2
 70
0
 10
620434.4914503578
 20
4829254.125861928
 10
620341.7281603814
 20
4829225.745413784
  0
LWPOLYLINE
  5
1AF
330
17
100
AcDbEntity
  8
ROADS
100
AcDbPolyline
 90
2
 70
0
 10
619982.290793763
 20
4828710.584448659
 10
619951.8940461114
 20
4828803.978274411
  0
LWPOLYLINE
  5
1B0
330
17
100
AcDbEntity
  8
ROADS
100
AcDbPolyline
 90
2
 70
0
 10
620024.396693667
 20
4828724.472360684
 10
619996.3038092406
 20
4828819.262857257
  0
LWPOLYLINE
  5
1B1
330
17
100
AcDbEntity
  8
ROADS
100
AcDbPolyline
 90
2
 70
0
 10
619688.0064255819
 20
4828616.648539408
 10
619572.3293934576
 20
4828978.89073357
  0
LWPOLYLINE
  5
1B2
330
17
100
AcDbEntity
  8
ROADS
100
AcDbPolyline
 90
2
 70
0
 10
619766.1750250013
 20
4828641.816089526
 10
619649.5391065677
 20
4829003.161008715
  0
LWPOLYLINE
  5
1B3
330
17
100
AcDbEntity
  8
ROADS
100
AcDbPolyline
 90
2
 70
0
 10
619649.5391065677
 20
4829003.161008715
 10
619572.3293934576
 20
4828978.89073357
  0
LWPOLYLINE
  5
1B4
330
17
100
AcDbEntity
  8
ROADS
100
AcDbPolyline
 90
2
 70
0
 10
620341.7281603814
 20
4829225.745413784
 10
619649.5391065677
 20
4829003.161008715
  0
LWPOLYLINE
  5
1B5
330
17
100
AcDbEntity
  8
ROADS
100
AcDbPolyline
 90
2
 70
0
 10
621869.4418410959
 20
4829341.344603873
 10
621820.3677343911
 20
4829329.044769336
  0
LWPOLYLINE
  5
1B6
330
17
100
AcDbEntity
  8
ROADS
100
AcDbPolyline
 90
2
 70
0
 10
621730.3731912692
 20
4829333.665688403
 10
621637.0829268708
 20
4829349.947609282
  0
LWPOLYLINE
  5
1B7
330
17
100
AcDbEntity
  8
ROADS
100
AcDbPolyline
 90
2
 70
0
 10
621949.693865565
 20
4829366.630110141
 10
621869.4418410959
 20
4829341.344603873
  0
LWPOLYLINE
  5
1B8
330
17
100
AcDbEntity
  8
ROADS
100
AcDbPolyline
 90
2
 70
0
 10
621990.0617371683
 20
4829378.9217195
 10
621949.693865565
 20
4829366.630110141
  0
LWPOLYLINE
  5
1B9
330
17
100
AcDbEntity
  8
ROADS
100
AcDbPolyline
 90
2
 70
0
 10
621828.0510868012
 20
4829476.109236783
 10
621820.3677343911
 20
4829329.044769336
  0
LWPOLYLINE
  5
1BA
330
17
100
AcDbEntity
  8
ROADS
100
AcDbPolyline
 90
2
 70
0
 10
621728.2802684653
 20
4829473.63323226
 10
621730.3731912692
 20
4829333.665688403
  0
LWPOLYLINE
  5
1BB
330
17
100
AcDbEntity
  8
ROADS
100
AcDbPolyline
 90
2
 70
0
 10
621949.693865565
 20
4829366.630110141
 10
621982.5305348746
 20
4829451.726059777
  0
LWPOLYLINE
  5
1BC
330
17
100
AcDbEntity
  8
ROADS
100
AcDbPolyline
 90
2
 70
0
 10
621677.2615855004
 20
4829457.209077275
 10
621573.4522152429
 20
4829423.8317554565
  0
LWPOLYLINE
  5
1BD
330
17
100
AcDbEntity
  8
ROADS
100
AcDbPolyline
 90
2
 70
0
 10
621728.2802684653
 20
4829473.63323226
 10
621677.2615855004
 20
4829457.209077275
  0
LWPOLYLINE
  5
1BE
330
17
100
AcDbEntity
  8
ROADS
100
AcDbPolyline
 90
2
 70
0
 10
621769.9227185433
 20
4829488.385978078
 10
621728.2802684653
 20
4829473.63323226
  0
LWPOLYLINE
  5
1BF
330
17
100
AcDbEntity
  8
ROADS
100
AcDbPolyline
 90
2
 70
0
 10
621829.3037380936
 20
4829506.751257785
 10
621828.0510868012
 20
4829476.109236783
  0
LWPOLYLINE
  5
1C0
330
17
100
AcDbEntity
  8
ROADS
100
AcDbPolyline
 90
2
 70
0
 10
621829.3037380936
 20
4829506.751257785
 10
621769.9227185433
 20
4829488.385978078
  0
LWPOLYLINE
  5
1C1
330
17
100
AcDbEntity
  8
ROADS
100
AcDbPolyline
 90
2
 70
0
 10
621977.2028270084
 20
4829506.269045598
 10
621828.0510868012
 20
4829476.109236783
  0
LWPOLYLINE
  5
1C2
330
17
100
AcDbEntity
  8
ROADS
100
AcDbPolyline
 90
2
 70
0
 10
621835.8981769867
 20
4829647.317317757
 10
621829.3037380936
 20
4829506.751257785
  0
LWPOLYLINE
  5
1C3
330
17
100
AcDbEntity
  8
ROADS
100
AcDbPolyline
 90
2
 70
0
 10
621677.2615855004
 20
4829457.209077275
 10
621584.7570520465
 20
4829742.545230179
  0
LWPOLYLINE
  5
1C4
330
17
100
AcDbEntity
  8
ROADS
100
AcDbPolyline
 90
2
 70
0
 10
621769.9227185433
 20
4829488.385978078
 10
621685.3309659942
 20
4829748.465878749
  0
LWPOLYLINE
  5
1C5
330
17
100
AcDbEntity
  8
ROADS
100
AcDbPolyline
 90
2
 70
0
 10
621655.9629956696
 20
4829765.029449224
 10
621584.7570520465
 20
4829742.545230179
  0
LWPOLYLINE
  5
1C6
330
17
100
AcDbEntity
  8
ROADS
100
AcDbPolyline
 90
2
 70
0
 10
621584.7570520465
 20
4829742.545230179
 10
621571.6852371747
 20
4829782.809944931
  0
LWPOLYLINE
  5
1C7
330
17
100
AcDbEntity
  8
ROADS
100
AcDbPolyline
 90
2
 70
0
 10
620523.099395132
 20
4829282.240269523
 10
620490.0603178674
 20
4829466.608263555
  0
LWPOLYLINE
  5
1C8
330
17
100
AcDbEntity
  8
ROADS
100
AcDbPolyline
 90
2
 70
0
 10
620490.0603178674
 20
4829466.608263555
 10
620450.5142243643
 20
4829654.568212673
  0
LWPOLYLINE
  5
1C9
330
17
100
AcDbEntity
  8
ROADS
100
AcDbPolyline
 90
2
 70
0
 10
620992.1270209559
 20
4829537.180802704
 10
620961.9495916505
 20
4829627.494668849
  0
LWPOLYLINE
  5
1CA
330
17
100
AcDbEntity
  8
ROADS
100
AcDbPolyline
 90
2
 70
0
 10
620961.9495916505
 20
4829627.494668849
 10
620930.19036624
 20
4829725.322272895
  0
LWPOLYLINE
  5
1CB
330
17
100
AcDbEntity
  8
ROADS
100
AcDbPolyline
 90
2
 70
0
 10
621353.9218214377
 20
4829755.7196689
 10
620961.9495916505
 20
4829627.494668849
  0
LWPOLYLINE
  5
1CC
330
17
100
AcDbEntity
  8
ROADS
100
AcDbPolyline
 90
2
 70
0
 10
621322.3040630443
 20
4829854.458971697
 10
620930.19036624
 20
4829725.322272895
  0
LWPOLYLINE
  5
1CD
330
17
100
AcDbEntity
  8
ROADS
100
AcDbPolyline
 90
3
 70
0
 10
620930.19036624
 20
4829725.322272895
 10
620910.9819670725
 20
4829801.262605432
 10
620940.6409222408
 20
4829836.2349363305
  0
LWPOLYLINE
  5
1CE
330
17
100
AcDbEntity
  8
ROADS
100
AcDbPolyline
 90
2
 70
0
 10
619407.437762892
 20
4827909.867971725
 10
619348.6982891094
 20
4828095.635471081
  0
LWPOLYLINE
  5
1CF
330
17
100
AcDbEntity
  8
ROADS
100
AcDbPolyline
 90
2
 70
0
 10
619293.5999902053
 20
4828073.0524917785
 10
619348.6982891094
 20
4828095.635471081
  0
LWPOLYLINE
  5
1D0
330
17
100
AcDbEntity
  8
ROADS
100
AcDbPolyline
 90
2
 70
0
 10
619348.6982891094
 20
4828095.635471081
 10
619313.9291836126
 20
4828189.606244086
  0
LWPOLYLINE
  5
1D1
330
17
100
AcDbEntity
  8
ROADS
100
AcDbPolyline
 90
3
 70
0
 10
619348.6982891094
 20
4828095.635471081
 10
619361.1670714645
 20
4828131.782991986
 10
619352.3158793685
 20
4828201.500331756
  0
LWPOLYLINE
  5
1D2
330
17
100
AcDbEntity
  8
ROADS
100
AcDbPolyline
 90
2
 70
0
 10
619313.9291836126
 20
4828189.606244086
 10
619258.9929777196
 20
4828172.395503186
  0
LWPOLYLINE
  5
1D3
330
17
100
AcDbEntity
  8
ROADS
100
AcDbPolyline
 90
2
 70
0
 10
619352.3158793685
 20
4828201.500331756
 10
619313.9291836126
 20
4828189.606244086
  0
LWPOLYLINE
  5
1D4
330
17
100
AcDbEntity
  8
ROADS
100
AcDbPolyline
 90
2
 70
0
 10
619438.9406268506
 20
4828230.330091889
 10
619352.3158793685
 20
4828201.500331756
  0
LWPOLYLINE
  5
1D5
330
17
100
AcDbEntity
  8
ROADS
100
AcDbPolyline
 90
2
 70
0
 10
619274.816348316
 20
4828828.574321423
 10
619289.9836950765
 20
4828836.956467884
  0
LWPOLYLINE
  5
1D6
330
17
100
AcDbEntity
  8
ROADS
100
AcDbPolyline
 90
2
 70
0
 10
619572.3293934576
 20
4828978.89073357
 10
619496.554905652
 20
4828953.338338327
  0
LWPOLYLINE
  5
1D7
330
17
100
AcDbEntity
  8
ROADS
100
AcDbPolyline
 90
2
 70
0
 10
619496.554905652
 20
4828953.338338327
 10
619471.5847604825
 20
4829037.627656123
  0
LWPOLYLINE
  5
1D8
330
17
100
AcDbEntity
  8
ROADS
100
AcDbPolyline
 90
2
 70
0
 10
619471.5847604825
 20
4829037.627656123
 10
619459.4037454007
 20
4829070.881958933
  0
LWPOLYLINE
  5
1D9
330
17
100
AcDbEntity
  8
ROADS
100
AcDbPolyline
 90
3
 70
0
 10
619421.4017744286
 20
4829092.101707536
 10
619422.6352693457
 20
4829087.386582651
 10
619412.2352363693
 20
4829079.199494577
  0
LWPOLYLINE
  5
1DA
330
17
100
AcDbEntity
  8
ROADS
100
AcDbPolyline
 90
2
 70
0
 10
619459.4037454007
 20
4829070.881958933
 10
619442.5840445503
 20
4829117.370716237
  0
ENDSEC
  0
SECTION
  2
OBJECTS
  0
DICTIONARY
  5
A
330
0
100
AcDbDictionary
281
1
  3
ACAD_COLOR
350
B
  3
ACAD_GROUP
350
C
  3
ACAD_LAYOUT
350
D
  3
ACAD_MATERIAL
350
E
  3
ACAD_MLEADERSTYLE
350
F
  3
ACAD_MLINESTYLE
350
10
  3
ACAD_PLOTSETTINGS
350
11
  3
ACAD_PLOTSTYLENAME
350
12
  3
ACAD_SCALELIST
350
14
  3
ACAD_TABLESTYLE
350
15
  3
ACAD_VISUALSTYLE
350
16
  3
EZDXF_META
350
2D
  0
DICTIONARY
  5
B
330
A
100
AcDbDictionary
281
1
  0
DICTIONARY
  5
C
330
A
100
AcDbDictionary
281
1
  0
DICTIONARY
  5
D
330
A
100
AcDbDictionary
281
1
  3
Model
350
1A
  3
Layout1
350
1E
  0
DICTIONARY
  5
E
330
A
100
AcDbDictionary
281
1
  3
ByBlock
350
1F
  3
ByLayer
350
20
  3
Global
350
21
  0
DICTIONARY
  5
F
330
A
100
AcDbDictionary
281
1
  3
Standard
350
2C
  0
DICTIONARY
  5
10
330
A
100
AcDbDictionary
281
1
  3
Standard
350
22
  0
DICTIONARY
  5
11
330
A
100
AcDbDictionary
281
1
  0
ACDBDICTIONARYWDFLT
  5
12
330
A
100
AcDbDictionary
281
1
  3
Normal
350
13
100
AcDbDictionaryWithDefault
340
13
  0
ACDBPLACEHOLDER
  5
13
330
12
  0
DICTIONARY
  5
14
330
A
100
AcDbDictionary
281
1
  0
DICTIONARY
  5
15
330
A
100
AcDbDictionary
281
1
  0
DICTIONARY
  5
16
330
A
100
AcDbDictionary
281
1
  0
LAYOUT
  5
1A
330
D
100
AcDbPlotSettings
  1

  4
A3
  6

 40
7.5
 41
20.0
 42
7.5
 43
20.0
 44
420.0
 45
297.0
 46
0.0
 47
0.0
 48
0.0
 49
0.0
140
0.0
141
0.0
142
1.0
143
1.0
 70
1024
 72
1
 73
0
 74
5
  7

 75
16
 76
0
 77
2
 78
300
147
1.0
148
0.0
149
0.0
100
AcDbLayout
  1
Model
 70
1
 71
0
 10
0.0
 20
0.0
 11
420.0
 21
297.0
 12
0.0
 22
0.0
 32
0.0
 14
1e+20
 24
1e+20
 34
1e+20
 15
-1e+20
 25
-1e+20
 35
-1e+20
146
0.0
 13
0.0
 23
0.0
 33
0.0
 16
1.0
 26
0.0
 36
0.0
 17
0.0
 27
1.0
 37
0.0
 76
1
330
17
  0
LAYOUT
  5
1E
330
D
100
AcDbPlotSettings
  1

  4
A3
  6

 40
7.5
 41
20.0
 42
7.5
 43
20.0
 44
420.0
 45
297.0
 46
0.0
 47
0.0
 48
0.0
 49
0.0
140
0.0
141
0.0
142
1.0
143
1.0
 70
0
 72
1
 73
0
 74
5
  7

 75
16
 76
0
 77
2
 78
300
147
1.0
148
0.0
149
0.0
100
AcDbLayout
  1
Layout1
 70
1
 71
1
 10
0.0
 20
0.0
 11
420.0
 21
297.0
 12
0.0
 22
0.0
 32
0.0
 14
1e+20
 24
1e+20
 34
1e+20
 15
-1e+20
 25
-1e+20
 35
-1e+20
146
0.0
 13
0.0
 23
0.0
 33
0.0
 16
1.0
 26
0.0
 36
0.0
 17
0.0
 27
1.0
 37
0.0
 76
1
330
1B
  0
MATERIAL
  5
1F
102
{ACAD_REACTORS
330
E
102
}
330
E
100
AcDbMaterial
  1
ByBlock
  2

 70
0
 40
1.0
 71
1
 41
1.0
 91
-1023410177
 42
1.0
 72
1
  3

 73
1
 74
1
 75
1
 44
0.5
 73
0
 45
1.0
 46
1.0
 77
1
  4

 78
1
 79
1
170
1
 48
1.0
171
1
  6

172
1
173
1
174
1
140
1.0
141
1.0
175
1
  7

176
1
177
1
178
1
143
1.0
179
1
  8

270
1
271
1
272
1
145
1.0
146
1.0
273
1
  9

274
1
275
1
276
1
 42
1.0
 72
1
  3

 73
1
 74
1
 75
1
 94
63
  0
MATERIAL
  5
20
102
{ACAD_REACTORS
330
E
102
}
330
E
100
AcDbMaterial
  1
ByLayer
  2

 70
0
 40
1.0
 71
1
 41
1.0
 91
-1023410177
 42
1.0
 72
1
  3

 73
1
 74
1
 75
1
 44
0.5
 73
0
 45
1.0
 46
1.0
 77
1
  4

 78
1
 79
1
170
1
 48
1.0
171
1
  6

172
1
173
1
174
1
140
1.0
141
1.0
175
1
  7

176
1
177
1
178
1
143
1.0
179
1
  8

270
1
271
1
272
1
145
1.0
146
1.0
273
1
  9

274
1
275
1
276
1
 42
1.0
 72
1
  3

 73
1
 74
1
 75
1
 94
63
  0
MATERIAL
  5
21
102
{ACAD_REACTORS
330
E
102
}
330
E
100
AcDbMaterial
  1
Global
  2

 70
0
 40
1.0
 71
1
 41
1.0
 91
-1023410177
 42
1.0
 72
1
  3

 73
1
 74
1
 75
1
 44
0.5
 73
0
 45
1.0
 46
1.0
 77
1
  4

 78
1
 79
1
170
1
 48
1.0
171
1
  6

172
1
173
1
174
1
140
1.0
141
1.0
175
1
  7

176
1
177
1
178
1
143
1.0
179
1
  8

270
1
271
1
272
1
145
1.0
146
1.0
273
1
  9

274
1
275
1
276
1
 42
1.0
 72
1
  3

 73
1
 74
1
 75
1
 94
63
  0
MLINESTYLE
  5
22
102
{ACAD_REACTORS
330
10
102
}
330
10
100
AcDbMlineStyle
  2
Standard
 70
0
  3

 62
256
 51
90.0
 52
90.0
 71
2
 49
0.5
 62
256
  6
BYLAYER
 49
-0.5
 62
256
  6
BYLAYER
  0
MLEADERSTYLE
  5
2C
102
{ACAD_REACTORS
330
F
102
}
330
F
100
AcDbMLeaderStyle
179
2
170
2
171
1
172
0
 90
2
 40
0.0
 41
0.0
173
1
 91
-1056964608
 92
-2
290
1
 42
2.0
291
1
 43
8.0
  3
Standard
 44
4.0
300

342
29
174
1
175
1
176
0
178
1
 93
-1056964608
 45
4.0
292
0
297
0
 46
4.0
 94
-1056964608
 47
1.0
 49
1.0
140
1.0
294
1
141
0.0
177
0
142
1.0
295
0
296
0
143
3.75
271
0
272
9
273
9
  0
DICTIONARY
  5
2D
330
A
100
AcDbDictionary
280
1
281
1
  3
CREATED_BY_EZDXF
350
2E
  3
WRITTEN_BY_EZDXF
350
1DD
  0
DICTIONARYVAR
  5
2E
330
2D
100
DictionaryVariables
280
0
  1
1.4.4 @ 2026-07-30T15:40:03.695657+00:00
  0
DICTIONARYVAR
  5
1DD
330
2D
100
DictionaryVariables
280
0
  1
1.4.4 @ 2026-07-30T15:40:03.738043+00:00
  0
ENDSEC
  0
EOF
